<svg width="200" height="55" viewBox="0 0 200 55" fill="none" xmlns="http://www.w3.org/2000/svg">
<path d="M96.1869 16.5537C96.1869 16.2373 95.976 16.1319 95.7652 16.1319H89.1226C88.8063 16.1319 88.5954 16.3428 88.49 16.5537L78.2625 42.175C78.0516 42.4913 78.3679 42.9131 78.6843 42.9131H84.6942C85.0105 42.9131 85.2214 42.7022 85.3268 42.3859L90.2824 27.4137L90.5987 42.3859C90.5987 42.7022 90.8096 42.9131 91.0205 42.9131H96.7141C97.0304 42.9131 97.4522 42.5968 97.4522 42.175L96.1869 16.5537ZM71.5145 32.5802H65.5045C65.1882 32.5802 65.0828 32.2639 65.1882 31.9476L66.0317 26.7811C66.0317 26.4648 66.348 26.1485 66.5589 26.1485H72.6743C72.6743 26.0431 72.6743 25.9376 72.6743 25.8322C72.6743 25.5159 72.6743 25.305 72.6743 24.9887C72.6743 24.6724 72.5689 24.4615 72.4634 24.1452C72.358 23.8289 72.2526 23.7234 72.1471 23.4071C72.0417 23.1962 71.8308 22.9854 71.8308 22.7745C71.6199 22.5636 71.5145 22.4582 71.3036 22.3527C71.0927 22.2473 70.8819 22.0364 70.5655 22.0364C70.2492 21.931 70.0384 21.931 69.722 21.931C69.4057 21.931 69.1949 21.931 68.8785 21.931C68.5622 21.931 68.3514 22.0364 68.035 22.0364C67.7187 22.1419 67.6133 22.1419 67.297 22.2473C66.9807 22.3527 66.8752 22.4582 66.6644 22.5636H66.5589C66.2426 22.669 66.0317 22.4582 66.0317 22.1419L65.8209 17.608C65.7154 17.2917 65.9263 16.9754 66.1372 16.87C66.348 16.7645 66.5589 16.6591 66.8752 16.5537C67.1915 16.4482 67.4024 16.3428 67.7187 16.2373C68.035 16.1319 68.3514 16.0265 68.5622 15.921C68.7731 15.8156 69.1949 15.7102 69.5112 15.7102C69.8275 15.6047 70.2492 15.6047 70.5655 15.4993C70.8819 15.4993 71.3036 15.3938 71.7254 15.3938C72.358 15.3938 72.9906 15.4993 73.5178 15.6047C74.045 15.7102 74.5722 15.921 74.9939 16.0265C75.4157 16.2373 75.8374 16.4482 76.2592 16.7645C76.5755 17.0808 76.9972 17.3972 77.3136 17.7135C77.6299 18.0298 77.8408 18.4515 78.1571 18.8733C78.4734 19.295 78.5788 19.7168 78.7897 20.244C79.0006 20.6657 79.106 21.0875 79.106 21.7201C79.2114 22.1419 79.3169 22.669 79.4223 23.1962C79.5278 23.7234 79.5278 24.2506 79.5278 24.6724C79.5278 25.1996 79.5278 25.6213 79.5278 26.1485C79.5278 26.6757 79.4223 27.2029 79.3169 27.7301C79.2114 28.2572 79.106 28.679 79.0006 29.2062V29.3116C78.7897 30.366 78.5788 31.3149 78.2625 32.3693C77.9462 33.3183 77.6299 34.2672 77.2081 35.0053C76.7864 35.8488 76.3646 36.5868 75.8374 37.3249C75.3102 38.063 74.8885 38.6956 74.2559 39.2228C73.7287 39.75 73.0961 40.2771 72.4634 40.6989C71.8308 41.1206 71.1982 41.5424 70.4601 41.7533C69.722 42.0696 69.0894 42.2805 68.4568 42.3859C67.8242 42.9131 67.1915 42.9131 66.4535 42.9131C66.1372 42.9131 65.7154 42.9131 65.3991 42.8076C65.0828 42.8076 64.661 42.7022 64.4502 42.7022C64.1339 42.5968 63.8175 42.5968 63.6067 42.4913C63.2903 42.3859 63.0795 42.2805 62.8686 42.175C62.6577 42.0696 62.4468 41.9641 62.236 41.8587C62.0251 41.7533 61.9197 41.6478 61.7088 41.5424C61.4979 41.437 61.3925 41.1206 61.4979 40.8043L63.3958 35.9542V35.8488C63.6067 35.5324 63.8175 35.427 64.1338 35.5324C64.3447 35.6379 64.4502 35.7433 64.661 35.8488C64.8719 35.9542 64.9774 35.9542 65.2937 36.0596C65.5045 36.1651 65.7154 36.1651 66.0317 36.1651C66.348 36.1651 66.4535 36.1651 66.7698 36.1651C67.0861 36.1651 67.6133 36.1651 67.8242 36.0596C68.1405 35.9542 68.4568 35.8488 68.6677 35.7433C68.984 35.5324 69.1949 35.427 69.5112 35.3216C69.8275 35.1107 69.9329 35.0053 70.1438 34.6889C70.3547 34.3726 70.4601 34.2672 70.671 33.9509C70.8819 33.6346 70.9873 33.4237 71.0927 33.1074C71.3036 32.7911 71.4091 32.4748 71.4091 32.2639L71.5145 32.5802ZM110.316 25.9376H115.377C115.693 25.9376 115.798 26.2539 115.693 26.5702L114.849 31.4204C114.849 31.7367 114.533 32.053 114.322 32.053H109.261L108.418 36.6923H114.111C114.428 36.6923 114.533 37.0086 114.428 37.3249L113.584 42.3859C113.584 42.7022 113.268 43.0185 113.057 43.0185H100.932C100.615 43.0185 100.51 42.7022 100.615 42.3859L105.149 16.7645C105.149 16.4482 105.465 16.1319 105.676 16.1319H117.485C117.802 16.1319 117.907 16.4482 117.802 16.7645L116.958 21.8255C116.958 22.1419 116.642 22.4582 116.431 22.4582H111.054L110.316 25.9376ZM138.784 42.9131H133.617C133.301 42.9131 133.196 42.5968 133.196 42.2805L134.144 34.2672C134.25 33.8454 134.355 33.2128 134.355 32.5802L134.461 31.9476L134.566 31.2095L134.461 31.5258L134.039 32.6856L133.934 33.0019C133.723 33.4237 133.617 33.8454 133.512 34.1618L130.349 41.9641C130.243 42.2805 130.032 42.3859 129.822 42.3859H125.499C125.182 42.3859 125.077 42.175 125.077 41.9641L124.761 34.1618V33.4237V32.5802V31.7367V30.8932L124.444 32.053L124.128 33.3183L123.812 34.3726L121.914 42.3859C121.808 42.7022 121.597 42.9131 121.387 42.9131H116.431H116.326C116.009 42.8076 115.904 42.5968 116.009 42.175L122.546 16.5537C122.652 16.2373 122.863 16.0265 123.074 16.0265H129.189C129.505 16.0265 129.611 16.2373 129.611 16.4482L129.822 24.6724C129.822 26.1485 129.927 27.3083 129.927 28.3627V29.3116C129.927 29.7334 129.927 30.2606 129.927 30.7877C130.138 30.366 130.243 29.8388 130.454 29.3116C130.77 28.5736 130.981 27.8355 131.298 26.992C131.614 26.1485 131.825 25.4104 132.141 24.6724L135.304 16.4482C135.41 16.1319 135.621 16.0265 135.831 16.0265H141.947C142.263 16.0265 142.369 16.3428 142.369 16.6591L139.416 42.2805C139.311 42.5968 139.1 42.9131 138.784 42.9131ZM152.491 25.9376H157.552C157.868 25.9376 157.973 26.2539 157.868 26.5702L157.024 31.4204C157.024 31.7367 156.708 32.053 156.497 32.053H151.436L150.593 36.6923H156.286C156.603 36.6923 156.708 37.0086 156.603 37.3249L155.759 42.3859C155.759 42.7022 155.443 43.0185 155.232 43.0185H143.107C142.79 43.0185 142.685 42.7022 142.79 42.3859L147.324 16.7645C147.324 16.4482 147.641 16.1319 147.851 16.1319H159.66C159.977 16.1319 160.082 16.4482 159.977 16.7645L159.133 21.8255C159.133 22.1419 158.817 22.4582 158.606 22.4582H153.229L152.491 25.9376ZM159.239 42.175L163.772 16.5537C163.772 16.2373 164.089 15.921 164.3 15.921H170.204C170.52 15.921 170.626 16.2373 170.52 16.5537L169.044 26.0431H172.313L174 16.6591C174 16.3428 174.316 16.0265 174.527 16.0265H180.432C180.748 16.0265 180.853 16.3428 180.748 16.6591L176.214 42.2805C176.214 42.5968 175.898 42.9131 175.687 42.9131H169.782C169.466 42.9131 169.361 42.5968 169.466 42.2805L171.153 32.7911H167.885L166.198 42.3859C166.198 42.7022 165.881 43.0185 165.67 43.0185H159.766C159.45 42.8076 159.239 42.5968 159.239 42.175ZM189.605 42.9131H183.7C183.384 42.9131 183.278 42.5968 183.384 42.2805L186.863 22.7745H182.962C182.646 22.7745 182.54 22.4582 182.646 22.1419L183.595 16.6591C183.595 16.3428 183.911 16.0265 184.122 16.0265H198.883C199.2 16.0265 199.305 16.3428 199.2 16.6591L198.251 22.1419C198.251 22.4582 197.934 22.7745 197.723 22.7745H193.717L190.237 42.2805C190.132 42.5968 189.816 42.9131 189.605 42.9131Z" fill="#141414"/>
<path fill-rule="evenodd" clip-rule="evenodd" d="M24.7001 54.6167C9.62254 54.6167 -1.34298 42.4914 0.133143 27.3084C1.71471 12.1253 14.9999 0 30.1829 0H59.7054L54.8553 27.3084C52.1139 42.2805 39.7777 54.6167 24.7001 54.6167ZM31.3428 16.7646L30.4993 19.9277C32.7135 19.9277 35.244 21.0875 36.7201 22.4582C38.5126 24.4615 39.0398 27.2029 38.5126 30.5769C37.0364 39.1174 30.0776 43.0186 22.2752 42.8077H21.9589H21.6425H21.0099H16.2652L17.6359 35.3216H22.3806H23.9622H24.173C26.9144 35.3216 28.7069 33.8455 29.1286 31.315C29.7612 26.992 25.6492 26.4648 22.486 26.8866C22.2752 26.8866 22.0643 26.8866 21.9589 26.6757C21.8534 26.5703 21.748 26.3594 21.8534 26.1485L25.0165 9.17306C25.122 8.85674 25.5437 8.54043 25.86 8.54043H43.4681L41.992 16.7646H31.3428Z" fill="#141414"/>
</svg>
