<svg width="221" height="41" viewBox="0 0 221 41" fill="none" xmlns="http://www.w3.org/2000/svg">
<path d="M5.80058 19.8475L0 40.2554H9.51424L15.3148 19.8475H5.80058Z" fill="#141414"/>
<path d="M46.972 33.1267H42.4985V19.8369H46.972V33.1267ZM49.6476 12.7135H42.4985V2.61328H33.3481V40.2447H49.6529C53.5218 40.2447 56.1224 37.6825 56.1224 33.8656V19.0927C56.1224 15.2758 53.5218 12.7135 49.6529 12.7135H49.6476Z" fill="#141414"/>
<path d="M72.6892 33.8337H68.708V28.7357H72.6839V33.8337H72.6892ZM75.3648 12.7135H61.2593V19.1298H72.6839V23.1008H66.0271C62.1262 23.1008 59.4988 25.6418 59.4988 29.4215V33.8975C59.4988 37.709 62.1208 40.2766 66.0271 40.2766H81.8396V19.0926C81.8396 15.2758 79.239 12.7135 75.3701 12.7135H75.3648Z" fill="#141414"/>
<path d="M115.311 12.7135H85.9331V40.25H95.0835V19.8368H99.3376V40.25H108.434V19.8368H112.689V40.25H121.839V19.0926C121.839 15.2758 119.217 12.7135 115.311 12.7135Z" fill="#141414"/>
<path d="M138.593 24.2331H134.617V19.1351H138.593V24.2331ZM141.269 12.7188H131.926C128.057 12.7188 125.456 15.2811 125.456 19.0979V33.8868C125.456 37.6984 128.057 40.266 131.926 40.266H147.299V33.8337H134.607V28.8473H147.792V19.0926C147.792 15.2758 145.17 12.7135 141.263 12.7135L141.269 12.7188Z" fill="#141414"/>
<path d="M160.656 6.44067H151.505V33.8815C151.505 37.693 154.106 40.2606 157.975 40.2606H164.931V33.6157H160.65V19.8421H164.931V12.7135H160.65V6.44067H160.656Z" fill="#141414"/>
<path d="M180.867 17.2905V40.2553H190.017V19.8422H195.4V12.7135H185.453C182.66 12.7135 180.851 14.5103 180.851 17.2852L180.867 17.2905Z" fill="#141414"/>
<path d="M207.317 12.7135H198.22V33.8762C198.22 36.2578 199.061 40.2553 204.69 40.2553H221V12.7188H211.85V33.132H207.323V12.7188L207.317 12.7135Z" fill="#141414"/>
<path d="M169.581 40.2554H176.211V33.6689H169.581V40.2554Z" fill="#141414"/>
<path d="M19.4298 0.821777H9.91553L21.1207 40.2554H30.6349L19.4298 0.821777Z" fill="#141414"/>
<path d="M22.3194 36.3057H7.64673V29.3418H22.3194V36.3057Z" fill="#141414"/>
</svg>
