<svg width="174" height="73" viewBox="0 0 174 73" fill="none" xmlns="http://www.w3.org/2000/svg">
<path fill-rule="evenodd" clip-rule="evenodd" d="M173.452 10.6347C172.66 10.572 168.712 10.4814 167.957 10.4667C167.2 10.4507 167.14 11.28 166.869 11.8587C166.608 10.8747 164.176 9.28136 160.299 10.7347C156.949 11.988 154.439 15.2974 153.02 19.332C151.712 23.0414 152.704 27.256 157.791 26.7507C148.645 27.9387 142.244 32.8987 137.744 35.752C133.876 38.208 130.031 37.34 129.876 34.628C129.925 34.444 129.976 34.252 130.031 34.032C129.988 34.0347 128.991 34.0814 128.991 34.0814C122.928 34.3614 116.845 34.816 110.769 35.452C110.965 34.864 111.119 34.4147 111.364 33.6907C113.184 28.2627 114.684 24.3494 116.545 18.9374C117.411 16.3427 119.313 14.724 120.645 14.9587C122.881 15.3747 122.809 19.2694 121.98 21.2734C120.736 24.4054 118.755 26.7414 117.304 25.952C116.6 25.552 117.476 24.4334 117.476 24.4334C116.897 24.56 116.321 24.6867 115.747 24.8134C115.111 26.0267 113.747 28.196 115.681 29.8187C117.616 31.496 120.939 30.408 123.023 28.7067C125.312 26.8347 126.919 23.968 127.783 20.316C128.843 15.7627 126.728 11.18 123.132 11.52C120.411 11.728 118.1 13.744 118.1 13.744C118.1 13.748 118.783 12.5734 116.733 12.7334C114.025 12.9427 112.077 13.124 112.077 13.128C111.025 13.588 112.551 14.0467 112.184 15.0227L110.965 18.4654C109.145 24.172 107.309 28.384 105.533 34.1027C105.405 34.5507 105.145 35.3227 104.856 36.1174C74.7 39.84 44.7414 48 17.4654 61.044C16.288 65.6147 15.7 67.8974 14.528 72.4654C41.1454 55.636 72.1627 43.9774 103.652 39.1947C102.796 41.0747 102.152 42.388 101.056 43.7C99.2334 45.8774 97.7574 46.8267 96.5947 47.4427C94.9467 48.3387 100.267 48.4987 102.725 47.3694C106.755 45.4227 106.868 43.496 106.868 43.492C107.769 44.1667 108.769 44.544 109.652 44.4587C113.575 43.9854 108.764 42.676 109.351 40.14C109.525 39.5414 109.695 38.94 109.867 38.34C115.755 37.616 121.652 37.1427 127.531 36.9174C127.1 38.4027 126.913 40.2107 128.023 41.312C129.876 43.2067 134.687 43.052 139.536 39.7587C144.381 36.464 149.679 29.496 160.319 27.1467C160.525 26.588 160.895 25.252 161.097 24.6947C161.097 24.692 158.309 26.4787 158.465 22.0894C158.58 18.4707 162.416 12.368 164.233 12.324C166.543 12.268 165.548 14.8987 165.548 14.8987C164.46 17.6867 163.376 20.4894 162.293 23.3C160.9 26.732 163.369 27.8574 166.197 27.408C168.257 27.0787 169.204 26.1934 170.14 25.4867L171.072 23.184C169.327 24.1387 167.129 24.9254 167.809 23.224C168.903 20.3427 171.22 15.232 172.319 12.38C172.597 11.6214 174.488 10.7134 173.452 10.6347ZM131.976 29.1254C134.411 29.4107 137.597 28.4947 140.192 25.5814C140.663 25.08 141.08 24.512 141.327 23.8587C143.1 19.9854 141.816 18.372 140.968 17.748C140.692 17.5214 140.455 17.4254 140.455 17.4254C140.655 17.2654 140.881 17.1334 141.249 16.9134C141.933 16.5014 142.971 16.0387 144.364 15.5027C145.561 15.06 146.001 16.06 145.463 17.1574C144.509 19.5027 143.921 21.2214 142.979 23.5867C142.085 25.2734 142.444 28.3134 144.905 28.2054C147.428 28.12 148.369 27.6867 151.037 26.156C150.96 25.6094 150.881 25.064 150.801 24.516C149.507 25.4387 147.821 25.5094 148.561 23.6307C149.821 20.2587 150.728 17.5427 152.009 14.208C152.207 13.5067 154.608 9.44803 148.871 11.3574C146.155 12.348 142.46 14.0254 141.264 14.7947C140.085 15.5534 139.411 15.948 138.369 16.656C138.369 16.656 140.184 18.8867 138.813 23.0174C136.96 28.404 132.889 28.292 134.14 25.168C135.433 21.6334 138.381 13.432 138.629 12.9547C138.879 12.4787 139.624 11.8374 137.837 11.7907C136.053 11.7427 133.051 11.928 133.048 11.972C131.676 12.1694 133.364 12.888 132.983 13.8467C131.775 16.8987 130.269 20.8667 129.345 23.3014C128.728 24.808 128.103 28.664 131.976 29.1254ZM59.3707 23.3307C59.592 23.692 59.168 24.884 59.168 24.8854C58.0747 28.1827 56.9827 31.4947 55.892 34.8214C55.892 34.8214 55.0454 37.2947 55.556 38.916C56.02 40.2614 57.6654 40.5747 58.6814 40.2747C60.0774 39.8614 62.4 38.4894 63.468 37.0734L63.7147 34.452C63.1107 35.176 61.968 36.5134 61.6454 35.808C61.3787 35.172 61.8974 33.372 61.8974 33.372C62.5147 31.4427 63.1374 29.524 63.7574 27.604C64.236 26.1267 64.7174 24.652 65.1947 23.1774C65.1947 23.1774 66.2467 20.292 65.46 19.3334C65.1787 18.968 64.7067 18.784 64.228 18.808C61.7854 18.7974 59.4 21.0707 58.236 22.1347C58.2547 22.544 57.6374 23.7627 57.6574 24.1747C57.6574 24.1747 59.152 22.968 59.3707 23.3307ZM64.3427 16.6427C64.5254 16.5934 64.7747 16.4147 65.0227 16.304C68.6187 14.16 67.816 12.6614 67.6374 12.2987C67.46 11.944 66.5534 11.236 64.5854 12.116C64.2147 12.2827 63.9054 12.4547 63.4707 12.752C60.236 14.872 61.2387 16.4094 61.236 16.4054C61.236 16.4094 61.9414 17.768 64.3427 16.6427ZM7.5147 41.6574C6.58803 39.8347 8.10804 35.6827 12.6107 32.9227C17.5747 29.88 20.4214 30.0374 20.4214 30.0374C20.4214 30.0374 18.0774 33.7227 15.28 37.1654C14.7667 37.7974 14.2614 38.3614 13.812 38.932C12.288 40.628 9.04803 44.4374 7.5147 41.6574ZM27.6947 22.44C28.9187 20.004 30.6707 16.6094 31.2467 15.1467C30.96 18.128 29.0827 23.6947 28.088 27.2707C28.0614 27.3614 28.0374 27.4547 28.0147 27.548C27.1427 27.408 25.9627 27.288 24.9987 27.3147C25.712 26.144 26.816 24.1814 27.6947 22.44ZM15.668 41.696C18.4734 37.92 21.0774 33.9907 23.3187 29.8547C24.7774 29.9654 26.0667 30.0787 27.3974 30.4694C26.1947 34.8147 24.9934 39.0387 23.7414 43.368C22.272 47.26 20.416 51.1787 16.876 53.6067C16.876 53.612 18.5014 54.4867 22.1707 51.5974C22.5427 51.312 25.192 48.5747 25.1814 48.796C25.1814 48.796 27.0907 51.1534 32.5427 48.772C38.9387 45.9747 44.96 33.372 47.288 25.912C47.2694 25.9614 48.048 25.4774 47.868 26.0814C47.1 28.64 44.6547 36.08 44.1454 38.5094C43.9854 39.1987 43.908 42.52 46.9387 42.8334C48.7987 43.104 50.736 41.0774 52.4414 38.3947L52.1627 35.7774C50.6454 38.04 49.764 37.588 50.2587 35.604C50.2574 35.5934 52.5454 27.16 53.3094 25.172C54.152 23.3627 54.8867 22.34 55.288 21.976C55.7934 21.524 56.316 20.4987 52.9827 21.244C49.652 21.9894 47.7307 22.4454 44.332 23.508C43.0947 23.9427 44.1467 24.3134 44.3094 24.7187C44.4707 25.1254 44.6814 27.9027 41.228 34.0147C39.668 36.496 37.012 42.0507 33.6707 43.676C31.7774 44.5947 30.804 43.384 31.3814 41.48C32.1494 38.712 32.9187 35.8174 33.6734 33.0907C35.3134 34.0814 36.6214 34.968 37.1467 35.396L38.3067 31.7694C37.6374 31.3054 36.1454 30.3867 34.7334 29.788C35.9827 24.7027 37.3454 19.8254 39.1347 14.8974C40.3094 12.2187 41.5587 10.6454 42.5747 9.72403C43.04 9.30404 43.0347 8.62937 42.2147 8.73337C41.048 8.88137 39.6054 9.34137 38.1947 9.6147C35.0454 10.2214 28.192 12.1774 27.52 12.412C26.048 12.9254 27.4187 13.504 27.5534 13.8467C27.608 13.9907 27.66 14.136 27.6494 14.3467C27.728 15.1294 27.6267 16.04 27.4 16.94C26.184 21.0214 24.3214 23.8347 21.892 27.32C19.7587 27.5494 16.5907 28.0467 11.8534 30.0907C7.41337 32.0094 3.99338 35.244 1.93604 38.9587C-0.118622 42.672 -2.07463 51.0614 4.70003 50.252C7.53736 49.52 11.14 47.2614 14.0694 43.6907C14.5747 43.192 15.0907 42.476 15.668 41.696ZM94.4574 21C95.4387 19.148 96.548 18.0614 97.5667 17.324C98.3894 16.76 99.1947 16.5254 99.8267 17.124C100.64 17.8027 100.34 18.7774 99.812 20.484C99.2174 22.2547 98.7094 23.6387 97.436 26.724C97.3374 26.936 97.228 27.1694 97.092 27.4094C96.0094 29.3307 94.0427 31.052 92.6627 29.8014C91.108 28.46 93.1 23.5587 94.4574 21ZM87.6894 22.0947C85.6814 26.8134 85.632 31.3707 88.368 33.18C89.2934 33.8627 90.5534 34.032 91.7694 33.8147C93.9 33.48 95.7014 31.54 96.9387 30.024C97.1347 29.7787 97.3294 29.536 97.468 29.2854C97.468 29.2854 96.7467 32.2374 99.3894 32.556C101.744 32.8414 104.424 30.3387 104.424 30.3467L105.421 27.7187C105.421 27.7174 102.201 30.3214 102.616 27.5614C103.804 24.052 105.304 20.0907 106.512 16.6147C106.889 15.4907 107.181 14.9507 107.569 14.4534C108.056 14 108.288 13.5854 107.605 13.5667C106.457 13.3787 103.348 13.776 102.572 13.8747C101.801 13.9734 101.575 15.0854 101.095 16.0347C93.8067 10.92 88.6574 19.8134 87.6894 22.0947ZM79.3187 11.7027C79.8867 10.8694 80.588 9.72803 81.5947 8.3067C84.5507 4.23603 86.428 2.95869 87.356 3.07203C88.5094 3.22269 88.3134 5.67336 87.08 7.9427C86.6947 8.59736 86.304 9.31737 85.7467 9.88937C83.2587 12.784 81.1427 13.9747 79.848 14.4014C78.5587 14.8294 77.9134 14.984 77.408 14.9827C77.5974 14.6187 78.6214 12.8947 79.3187 11.7027ZM67.3187 31.636C67.5334 35.0934 69.4707 37.888 73.824 37.1774C75.4054 36.7907 77.4334 35.9334 79.1547 34.3454C81.0067 32.7694 82.7067 30.3627 84.1467 26.9814C85.5374 23.1427 86.5827 15.8867 80.192 16.7334C79.3814 17.2054 78.4934 17.8774 77.3894 18.9467C77.556 19.4494 77.2174 19.9614 77.3867 20.464C78.3347 19.8614 79.048 19.9307 79.4707 20.5254C80.14 21.3494 80.1467 23.3534 79.3534 25.772C79.2774 25.9694 79.2014 26.168 79.1214 26.4374C77.7 30.6627 75.528 34.5387 73.7827 33.736C72.3067 33.0147 73.2 27.7334 74.8427 22.788C75.7014 20.196 77.092 16.6854 77.108 16.6707C77.108 16.6707 78.7 16.4387 79.736 16.132C80.9547 15.7707 84.1547 14.4174 86.892 11.3C87.0774 11.1307 87.2014 10.9534 87.3894 10.7214C87.64 10.368 87.8947 10.0174 88.1467 9.66536C91.1267 5.38003 91.304 1.36404 88.676 0.314705C88.4467 0.221367 88.22 0.128029 87.9907 0.0987015C87.8134 0.0746994 87.7 0.0600357 87.528 0.0373688C85.4387 -0.167969 82.7307 0.428032 79.804 2.95603C77.788 4.76403 73.856 9.78803 71.124 16.336C69.5014 20.2254 67.824 25.2827 67.4134 28.9254C67.2747 29.7814 67.2987 30.8747 67.3187 31.636Z" fill="#141414"/>
</svg>
