<svg width="1499" height="222" viewBox="0 0 1499 222" fill="none" xmlns="http://www.w3.org/2000/svg">
<path d="M499.578 195.723V172.497C499.578 172.029 499.267 171.717 498.801 171.717H495.382C494.916 171.717 494.605 172.029 494.605 172.497V195.723C494.605 196.191 494.916 196.503 495.382 196.503H498.801C499.267 196.347 499.578 196.035 499.578 195.723ZM481.861 196.347V171.873C479.996 171.873 477.043 173.12 477.043 175.77V192.45C475.956 192.606 474.401 192.762 473.469 192.762C470.361 192.762 469.584 190.579 469.584 187.617V175.615C469.428 172.653 466.165 171.873 464.766 171.873V187.462C464.766 193.073 467.563 196.659 473.469 196.659C474.401 196.659 476.266 196.347 477.043 196.191V196.503C477.82 201.335 471.915 199.465 468.807 199.153C466.475 199.153 464.921 201.023 464.455 203.206C465.854 203.673 470.205 204.141 473.314 204.453C478.908 204.609 481.861 201.491 481.861 196.347ZM490.72 195.723V172.497C490.72 172.029 490.409 171.717 489.943 171.717H486.524C486.057 171.717 485.746 172.029 485.746 172.497V195.723C485.746 196.191 486.057 196.503 486.524 196.503H489.943C490.409 196.347 490.72 196.035 490.72 195.723ZM488.233 165.17C489.632 165.17 490.72 166.262 490.72 167.665C490.72 169.067 489.632 170.159 488.233 170.159C486.834 170.159 485.746 169.067 485.746 167.665C485.746 166.417 486.834 165.17 488.233 165.17ZM497.247 165.17C498.646 165.17 499.734 166.262 499.734 167.665C499.734 169.067 498.646 170.159 497.247 170.159C495.848 170.159 494.76 169.067 494.76 167.665C494.76 166.417 495.848 165.17 497.247 165.17Z" fill="#C5CDCF"/>
<path fill-rule="evenodd" clip-rule="evenodd" d="M435.356 172.881C432.929 165.853 440.024 158.32 445.861 158.095C449.358 159.925 452.361 164.73 452.211 171.252C451.752 179.286 446.085 186.21 439.917 192.59C439.573 184.811 437.927 179.852 435.356 172.881Z" fill="#9BE400"/>
<path fill-rule="evenodd" clip-rule="evenodd" d="M421.596 210.934C420.619 203.089 423.794 196.398 426.946 192.317C428.443 190.401 429.594 188.653 430.471 187.043C432.126 187.762 436.576 190.104 439.028 193.906C438.672 199.421 434.608 209.458 421.596 210.934Z" fill="#3E7FCA"/>
<path fill-rule="evenodd" clip-rule="evenodd" d="M416.68 181.14C406.323 178.235 403.769 169.109 404.231 162.972C414.288 158.883 425.111 163.071 431.361 171.801C435.742 177.919 438.486 185.764 439.042 192.61C436.036 188.631 432.24 186.325 427.404 184.519C424.096 183.286 421.04 182.468 416.68 181.14Z" fill="#E4B200"/>
<path d="M518.984 173H517.664V156.2H519.008L525.776 165.416L532.28 156.2H533.552V173H532.232V158.264L525.776 167.336H525.56L518.984 158.336V173ZM546.651 170.72L547.059 171.68C546.083 172.704 544.755 173.216 543.075 173.216C541.347 173.216 539.963 172.704 538.923 171.68C537.867 170.656 537.339 169.296 537.339 167.6C537.339 165.968 537.819 164.624 538.779 163.568C539.755 162.512 541.099 161.984 542.811 161.984C544.203 161.984 545.371 162.432 546.315 163.328C547.243 164.208 547.707 165.384 547.707 166.856C547.707 167.24 547.683 167.576 547.635 167.864H538.731C538.779 169.16 539.203 170.184 540.003 170.936C540.803 171.672 541.851 172.04 543.147 172.04C544.651 172.04 545.819 171.6 546.651 170.72ZM542.691 163.16C541.539 163.16 540.603 163.496 539.883 164.168C539.179 164.84 538.771 165.728 538.659 166.832H546.435C546.419 165.696 546.075 164.8 545.403 164.144C544.731 163.488 543.827 163.16 542.691 163.16ZM549.744 175.736H548.568V171.824H549.912C550.328 171.296 550.696 170.44 551.016 169.256C551.352 168.072 551.568 166.736 551.664 165.248L551.832 162.2H558.72V171.824H560.52V175.736H559.344V173H549.744V175.736ZM553.008 163.376L552.864 165.728C552.736 167.2 552.512 168.48 552.192 169.568C551.888 170.624 551.568 171.376 551.232 171.824H557.472V163.376H553.008ZM571.282 164L564.082 173H562.834V162.2H564.082V171.2L571.282 162.2H572.53V173H571.282V164ZM576.646 164L576.31 162.968C577.382 162.312 578.526 161.984 579.742 161.984C581.15 161.984 582.166 162.336 582.79 163.04C583.43 163.744 583.75 164.832 583.75 166.304V173H582.502V171.344C581.622 172.544 580.39 173.144 578.806 173.144C577.798 173.144 576.99 172.856 576.382 172.28C575.774 171.688 575.47 170.904 575.47 169.928C575.47 168.872 575.854 168.048 576.622 167.456C577.374 166.864 578.358 166.568 579.574 166.568C580.79 166.568 581.766 166.84 582.502 167.384C582.502 166.264 582.422 165.408 582.262 164.816C582.134 164.24 581.87 163.832 581.47 163.592C581.086 163.352 580.486 163.208 579.67 163.16C578.694 163.16 577.686 163.44 576.646 164ZM579.19 171.968C580.534 171.968 581.638 171.4 582.502 170.264V168.464C581.718 167.888 580.782 167.6 579.694 167.6C578.878 167.6 578.19 167.8 577.63 168.2C577.07 168.6 576.79 169.152 576.79 169.856C576.79 170.496 577.014 171.008 577.462 171.392C577.91 171.776 578.486 171.968 579.19 171.968ZM594.862 162.2H596.326L592.27 167.432L596.566 173H595.03L591.334 168.224L587.638 173H586.174L590.47 167.48L586.414 162.2H587.95L591.382 166.664L594.862 162.2ZM600.457 177.8H599.209V162.2H600.457V163.64C600.889 163.16 601.465 162.768 602.185 162.464C602.921 162.144 603.665 161.984 604.417 161.984C605.953 161.984 607.177 162.488 608.089 163.496C609.001 164.504 609.457 165.816 609.457 167.432C609.457 169.112 608.945 170.496 607.921 171.584C606.881 172.672 605.545 173.216 603.913 173.216C602.457 173.216 601.305 172.912 600.457 172.304V177.8ZM604.081 163.16C603.377 163.16 602.689 163.32 602.017 163.64C601.361 163.96 600.841 164.36 600.457 164.84V171.056C601.449 171.712 602.569 172.04 603.817 172.04C605.097 172.04 606.137 171.616 606.937 170.768C607.737 169.92 608.137 168.832 608.137 167.504C608.137 166.176 607.777 165.12 607.057 164.336C606.337 163.552 605.345 163.16 604.081 163.16ZM612.834 164L612.498 162.968C613.57 162.312 614.714 161.984 615.93 161.984C617.338 161.984 618.354 162.336 618.978 163.04C619.618 163.744 619.938 164.832 619.938 166.304V173H618.69V171.344C617.81 172.544 616.578 173.144 614.994 173.144C613.986 173.144 613.178 172.856 612.57 172.28C611.962 171.688 611.658 170.904 611.658 169.928C611.658 168.872 612.042 168.048 612.81 167.456C613.562 166.864 614.546 166.568 615.762 166.568C616.978 166.568 617.954 166.84 618.69 167.384C618.69 166.264 618.61 165.408 618.45 164.816C618.322 164.24 618.058 163.832 617.658 163.592C617.274 163.352 616.674 163.208 615.858 163.16C614.882 163.16 613.874 163.44 612.834 164ZM615.378 171.968C616.722 171.968 617.826 171.4 618.69 170.264V168.464C617.906 167.888 616.97 167.6 615.882 167.6C615.066 167.6 614.378 167.8 613.818 168.2C613.258 168.6 612.978 169.152 612.978 169.856C612.978 170.496 613.202 171.008 613.65 171.392C614.098 171.776 614.674 171.968 615.378 171.968ZM633.017 173H631.769V168.104H624.761V173H623.513V162.2H624.761V166.928H631.769V162.2H633.017V173ZM645.25 164L638.05 173H636.802V162.2H638.05V171.2L645.25 162.2H646.498V173H645.25V164ZM659.135 173H657.887V163.448H653.327L653.183 165.8C652.975 168.84 652.471 170.856 651.671 171.848C651.031 172.68 650.239 173.096 649.295 173.096L649.199 171.872C649.615 171.872 650.007 171.68 650.375 171.296C651.255 170.48 651.791 168.568 651.983 165.56L652.151 162.2H659.135V173ZM671.383 164L664.183 173H662.935V162.2H664.183V171.2L671.383 162.2H672.631V173H671.383V164ZM690.14 173H676.412V162.2H677.66V171.824H682.34V162.2H683.588V171.824H688.268V162.2H689.516V171.824H691.316V175.736H690.14V173ZM702.159 170.72L702.567 171.68C701.591 172.704 700.263 173.216 698.583 173.216C696.855 173.216 695.471 172.704 694.431 171.68C693.375 170.656 692.847 169.296 692.847 167.6C692.847 165.968 693.327 164.624 694.287 163.568C695.263 162.512 696.607 161.984 698.319 161.984C699.711 161.984 700.879 162.432 701.823 163.328C702.751 164.208 703.215 165.384 703.215 166.856C703.215 167.24 703.191 167.576 703.143 167.864H694.239C694.287 169.16 694.711 170.184 695.511 170.936C696.311 171.672 697.359 172.04 698.655 172.04C700.159 172.04 701.327 171.6 702.159 170.72ZM698.199 163.16C697.047 163.16 696.111 163.496 695.391 164.168C694.687 164.84 694.279 165.728 694.167 166.832H701.943C701.927 165.696 701.583 164.8 700.911 164.144C700.239 163.488 699.335 163.16 698.199 163.16ZM518.144 208H516.896V197.2H518.072L522.56 203.224L526.88 197.2H528.008V208H526.76V199.096L522.56 204.928H522.488L518.144 199.096V208ZM536.722 208.216C535.058 208.216 533.698 207.688 532.642 206.632C531.586 205.576 531.058 204.232 531.058 202.6C531.058 200.968 531.586 199.624 532.642 198.568C533.698 197.512 535.058 196.984 536.722 196.984C538.386 196.984 539.746 197.512 540.802 198.568C541.858 199.624 542.386 200.968 542.386 202.6C542.386 204.232 541.858 205.576 540.802 206.632C539.746 207.688 538.386 208.216 536.722 208.216ZM536.722 207.04C538.018 207.04 539.058 206.632 539.842 205.816C540.658 204.984 541.066 203.912 541.066 202.6C541.066 201.304 540.658 200.24 539.842 199.408C539.026 198.576 537.986 198.16 536.722 198.16C535.474 198.16 534.434 198.576 533.602 199.408C532.786 200.24 532.378 201.304 532.378 202.6C532.378 203.896 532.786 204.96 533.602 205.792C534.418 206.624 535.458 207.04 536.722 207.04ZM544.494 210.736H543.318V206.824H544.662C545.078 206.296 545.446 205.44 545.766 204.256C546.102 203.072 546.318 201.736 546.414 200.248L546.582 197.2H553.47V206.824H555.27V210.736H554.094V208H544.494V210.736ZM547.758 198.376L547.614 200.728C547.486 202.2 547.262 203.48 546.942 204.568C546.638 205.624 546.318 206.376 545.982 206.824H552.222V198.376H547.758ZM566.128 205.72L566.536 206.68C565.56 207.704 564.232 208.216 562.552 208.216C560.824 208.216 559.44 207.704 558.4 206.68C557.344 205.656 556.816 204.296 556.816 202.6C556.816 200.968 557.296 199.624 558.256 198.568C559.232 197.512 560.576 196.984 562.288 196.984C563.68 196.984 564.848 197.432 565.792 198.328C566.72 199.208 567.184 200.384 567.184 201.856C567.184 202.24 567.16 202.576 567.112 202.864H558.208C558.256 204.16 558.68 205.184 559.48 205.936C560.28 206.672 561.328 207.04 562.624 207.04C564.128 207.04 565.296 206.6 566.128 205.72ZM562.168 198.16C561.016 198.16 560.08 198.496 559.36 199.168C558.656 199.84 558.248 200.728 558.136 201.832H565.912C565.896 200.696 565.552 199.8 564.88 199.144C564.208 198.488 563.304 198.16 562.168 198.16ZM578.557 208H577.309V198.448H572.749L572.605 200.8C572.397 203.84 571.893 205.856 571.093 206.848C570.453 207.68 569.661 208.096 568.717 208.096L568.621 206.872C569.037 206.872 569.429 206.68 569.797 206.296C570.677 205.48 571.213 203.568 571.405 200.56L571.573 197.2H578.557V208ZM590.901 205.72L591.309 206.68C590.333 207.704 589.005 208.216 587.325 208.216C585.597 208.216 584.213 207.704 583.173 206.68C582.117 205.656 581.589 204.296 581.589 202.6C581.589 200.968 582.069 199.624 583.029 198.568C584.005 197.512 585.349 196.984 587.061 196.984C588.453 196.984 589.621 197.432 590.565 198.328C591.493 199.208 591.957 200.384 591.957 201.856C591.957 202.24 591.933 202.576 591.885 202.864H582.981C583.029 204.16 583.453 205.184 584.253 205.936C585.053 206.672 586.101 207.04 587.397 207.04C588.901 207.04 590.069 206.6 590.901 205.72ZM586.941 198.16C585.789 198.16 584.853 198.496 584.133 199.168C583.429 199.84 583.021 200.728 582.909 201.832H590.685C590.669 200.696 590.325 199.8 589.653 199.144C588.981 198.488 588.077 198.16 586.941 198.16ZM603.391 199L596.191 208H594.943V197.2H596.191V206.2L603.391 197.2H604.639V208H603.391V199ZM596.599 191.584H597.727C597.727 192.176 597.935 192.68 598.351 193.096C598.767 193.496 599.303 193.696 599.959 193.696C600.583 193.696 601.095 193.496 601.495 193.096C601.895 192.68 602.095 192.176 602.095 191.584H603.223C603.223 192.464 602.919 193.2 602.311 193.792C601.703 194.368 600.919 194.656 599.959 194.656C598.935 194.656 598.119 194.376 597.511 193.816C596.903 193.24 596.599 192.496 596.599 191.584Z" fill="#141414"/>
<path d="M1311.72 32H1310.4V16.448H1299.98V32H1298.66V15.2H1311.72V32ZM1317.52 36.8H1316.27V21.2H1317.52V22.64C1317.95 22.16 1318.53 21.768 1319.25 21.464C1319.98 21.144 1320.73 20.984 1321.48 20.984C1323.02 20.984 1324.24 21.488 1325.15 22.496C1326.06 23.504 1326.52 24.816 1326.52 26.432C1326.52 28.112 1326.01 29.496 1324.98 30.584C1323.94 31.672 1322.61 32.216 1320.98 32.216C1319.52 32.216 1318.37 31.912 1317.52 31.304V36.8ZM1321.14 22.16C1320.44 22.16 1319.75 22.32 1319.08 22.64C1318.42 22.96 1317.9 23.36 1317.52 23.84V30.056C1318.51 30.712 1319.63 31.04 1320.88 31.04C1322.16 31.04 1323.2 30.616 1324 29.768C1324.8 28.92 1325.2 27.832 1325.2 26.504C1325.2 25.176 1324.84 24.12 1324.12 23.336C1323.4 22.552 1322.41 22.16 1321.14 22.16ZM1338.01 23L1330.81 32H1329.56V21.2H1330.81V30.2L1338.01 21.2H1339.26V32H1338.01V23ZM1351.89 32H1350.64V22.448H1346.08L1345.94 24.8C1345.73 27.84 1345.23 29.856 1344.43 30.848C1343.79 31.68 1343 32.096 1342.05 32.096L1341.96 30.872C1342.37 30.872 1342.76 30.68 1343.13 30.296C1344.01 29.48 1344.55 27.568 1344.74 24.56L1344.91 21.2H1351.89V32ZM1360.59 32.216C1358.92 32.216 1357.56 31.688 1356.51 30.632C1355.45 29.576 1354.92 28.232 1354.92 26.6C1354.92 24.968 1355.45 23.624 1356.51 22.568C1357.56 21.512 1358.92 20.984 1360.59 20.984C1362.25 20.984 1363.61 21.512 1364.67 22.568C1365.72 23.624 1366.25 24.968 1366.25 26.6C1366.25 28.232 1365.72 29.576 1364.67 30.632C1363.61 31.688 1362.25 32.216 1360.59 32.216ZM1360.59 31.04C1361.88 31.04 1362.92 30.632 1363.71 29.816C1364.52 28.984 1364.93 27.912 1364.93 26.6C1364.93 25.304 1364.52 24.24 1363.71 23.408C1362.89 22.576 1361.85 22.16 1360.59 22.16C1359.34 22.16 1358.3 22.576 1357.47 23.408C1356.65 24.24 1356.24 25.304 1356.24 26.6C1356.24 27.896 1356.65 28.96 1357.47 29.792C1358.28 30.624 1359.32 31.04 1360.59 31.04ZM1380.29 21.2H1381.8L1377.48 26.384L1382.09 32H1380.58L1376.09 26.384L1380.29 21.2ZM1375.32 32H1374.08V21.2H1375.32V32ZM1367.38 32L1371.92 26.384L1367.6 21.2H1369.13L1373.31 26.384L1368.89 32H1367.38ZM1392.5 29.72L1392.91 30.68C1391.93 31.704 1390.61 32.216 1388.93 32.216C1387.2 32.216 1385.81 31.704 1384.77 30.68C1383.72 29.656 1383.19 28.296 1383.19 26.6C1383.19 24.968 1383.67 23.624 1384.63 22.568C1385.61 21.512 1386.95 20.984 1388.66 20.984C1390.05 20.984 1391.22 21.432 1392.17 22.328C1393.09 23.208 1393.56 24.384 1393.56 25.856C1393.56 26.24 1393.53 26.576 1393.49 26.864H1384.58C1384.63 28.16 1385.05 29.184 1385.85 29.936C1386.65 30.672 1387.7 31.04 1389 31.04C1390.5 31.04 1391.67 30.6 1392.5 29.72ZM1388.54 22.16C1387.39 22.16 1386.45 22.496 1385.73 23.168C1385.03 23.84 1384.62 24.728 1384.51 25.832H1392.29C1392.27 24.696 1391.93 23.8 1391.25 23.144C1390.58 22.488 1389.68 22.16 1388.54 22.16ZM1406.05 32H1404.8V27.104H1397.79V32H1396.54V21.2H1397.79V25.928H1404.8V21.2H1406.05V32ZM1418.28 23L1411.08 32H1409.83V21.2H1411.08V30.2L1418.28 21.2H1419.53V32H1418.28V23ZM1431.85 29.72L1432.26 30.68C1431.29 31.704 1429.96 32.216 1428.28 32.216C1426.55 32.216 1425.17 31.704 1424.13 30.68C1423.07 29.656 1422.54 28.296 1422.54 26.6C1422.54 24.968 1423.02 23.624 1423.98 22.568C1424.96 21.512 1426.3 20.984 1428.01 20.984C1429.41 20.984 1430.57 21.432 1431.52 22.328C1432.45 23.208 1432.91 24.384 1432.91 25.856C1432.91 26.24 1432.89 26.576 1432.84 26.864H1423.93C1423.98 28.16 1424.41 29.184 1425.21 29.936C1426.01 30.672 1427.05 31.04 1428.35 31.04C1429.85 31.04 1431.02 30.6 1431.85 29.72ZM1427.89 22.16C1426.74 22.16 1425.81 22.496 1425.09 23.168C1424.38 23.84 1423.97 24.728 1423.86 25.832H1431.64C1431.62 24.696 1431.28 23.8 1430.61 23.144C1429.93 22.488 1429.03 22.16 1427.89 22.16ZM1451.05 32H1449.8V27.104H1442.79V32H1441.54V21.2H1442.79V25.928H1449.8V21.2H1451.05V32ZM1455.17 23L1454.83 21.968C1455.91 21.312 1457.05 20.984 1458.27 20.984C1459.67 20.984 1460.69 21.336 1461.31 22.04C1461.95 22.744 1462.27 23.832 1462.27 25.304V32H1461.03V30.344C1460.15 31.544 1458.91 32.144 1457.33 32.144C1456.32 32.144 1455.51 31.856 1454.91 31.28C1454.3 30.688 1453.99 29.904 1453.99 28.928C1453.99 27.872 1454.38 27.048 1455.15 26.456C1455.9 25.864 1456.88 25.568 1458.1 25.568C1459.31 25.568 1460.29 25.84 1461.03 26.384C1461.03 25.264 1460.95 24.408 1460.79 23.816C1460.66 23.24 1460.39 22.832 1459.99 22.592C1459.61 22.352 1459.01 22.208 1458.19 22.16C1457.22 22.16 1456.21 22.44 1455.17 23ZM1457.71 30.968C1459.06 30.968 1460.16 30.4 1461.03 29.264V27.464C1460.24 26.888 1459.31 26.6 1458.22 26.6C1457.4 26.6 1456.71 26.8 1456.15 27.2C1455.59 27.6 1455.31 28.152 1455.31 28.856C1455.31 29.496 1455.54 30.008 1455.99 30.392C1456.43 30.776 1457.01 30.968 1457.71 30.968ZM1299.98 59.944V67H1298.66V50.2C1299.38 50.2 1300.11 50.192 1300.85 50.176C1301.58 50.16 1302.2 50.152 1302.7 50.152C1306.62 50.152 1308.58 51.768 1308.58 55C1308.58 56.152 1308.2 57.168 1307.45 58.048C1306.7 58.896 1305.74 59.44 1304.59 59.68L1310.47 67H1308.84L1303.25 59.944H1299.98ZM1302.62 51.4C1302.27 51.4 1301.39 51.416 1299.98 51.448V58.696H1302.89C1304.02 58.696 1305.02 58.352 1305.86 57.664C1306.74 56.976 1307.18 56.088 1307.18 55C1307.18 52.6 1305.66 51.4 1302.62 51.4ZM1320.53 64.72L1320.93 65.68C1319.96 66.704 1318.63 67.216 1316.95 67.216C1315.22 67.216 1313.84 66.704 1312.8 65.68C1311.74 64.656 1311.21 63.296 1311.21 61.6C1311.21 59.968 1311.69 58.624 1312.65 57.568C1313.63 56.512 1314.97 55.984 1316.69 55.984C1318.08 55.984 1319.25 56.432 1320.19 57.328C1321.12 58.208 1321.58 59.384 1321.58 60.856C1321.58 61.24 1321.56 61.576 1321.51 61.864H1312.61C1312.65 63.16 1313.08 64.184 1313.88 64.936C1314.68 65.672 1315.73 66.04 1317.02 66.04C1318.53 66.04 1319.69 65.6 1320.53 64.72ZM1316.57 57.16C1315.41 57.16 1314.48 57.496 1313.76 58.168C1313.05 58.84 1312.65 59.728 1312.53 60.832H1320.31C1320.29 59.696 1319.95 58.8 1319.28 58.144C1318.61 57.488 1317.7 57.16 1316.57 57.16ZM1324.9 58L1324.57 56.968C1325.64 56.312 1326.78 55.984 1328 55.984C1329.41 55.984 1330.42 56.336 1331.05 57.04C1331.69 57.744 1332.01 58.832 1332.01 60.304V67H1330.76V65.344C1329.88 66.544 1328.65 67.144 1327.06 67.144C1326.06 67.144 1325.25 66.856 1324.64 66.28C1324.03 65.688 1323.73 64.904 1323.73 63.928C1323.73 62.872 1324.11 62.048 1324.88 61.456C1325.63 60.864 1326.62 60.568 1327.83 60.568C1329.05 60.568 1330.02 60.84 1330.76 61.384C1330.76 60.264 1330.68 59.408 1330.52 58.816C1330.39 58.24 1330.13 57.832 1329.73 57.592C1329.34 57.352 1328.74 57.208 1327.93 57.16C1326.95 57.16 1325.94 57.44 1324.9 58ZM1327.45 65.968C1328.79 65.968 1329.9 65.4 1330.76 64.264V62.464C1329.98 61.888 1329.04 61.6 1327.95 61.6C1327.14 61.6 1326.45 61.8 1325.89 62.2C1325.33 62.6 1325.05 63.152 1325.05 63.856C1325.05 64.496 1325.27 65.008 1325.72 65.392C1326.17 65.776 1326.74 65.968 1327.45 65.968ZM1343.98 64.552L1344.61 65.464C1344.18 66.024 1343.59 66.456 1342.86 66.76C1342.14 67.064 1341.36 67.216 1340.53 67.216C1338.85 67.216 1337.47 66.704 1336.4 65.68C1335.34 64.656 1334.82 63.296 1334.82 61.6C1334.82 60.016 1335.33 58.688 1336.35 57.616C1337.39 56.528 1338.67 55.984 1340.19 55.984C1342.05 55.984 1343.45 56.432 1344.39 57.328L1343.79 58.336C1342.94 57.552 1341.81 57.16 1340.38 57.16C1339.23 57.16 1338.23 57.584 1337.38 58.432C1336.55 59.264 1336.14 60.32 1336.14 61.6C1336.14 62.944 1336.56 64.024 1337.41 64.84C1338.26 65.64 1339.33 66.04 1340.62 66.04C1342.02 66.04 1343.14 65.544 1343.98 64.552ZM1347.11 62.896V53.2H1348.36V56.2H1352.7V57.376H1348.36V62.704C1348.36 64.88 1349.17 65.968 1350.78 65.968C1351.42 65.968 1352 65.776 1352.51 65.392L1352.92 66.376C1352.26 66.888 1351.45 67.144 1350.49 67.144C1348.24 67.144 1347.11 65.728 1347.11 62.896ZM1358.48 50.2H1359.8V63.304C1359.8 65.912 1358.68 67.216 1356.44 67.216C1355.49 67.216 1354.72 66.96 1354.13 66.448L1354.61 65.416C1355.12 65.784 1355.68 65.968 1356.27 65.968C1357.07 65.968 1357.64 65.736 1357.97 65.272C1358.31 64.792 1358.48 64.072 1358.48 63.112V50.2ZM1372.88 62.824C1372.88 62.088 1372.67 61.456 1372.24 60.928C1371.8 60.4 1371.27 60 1370.63 59.728C1369.99 59.456 1369.29 59.16 1368.54 58.84C1367.79 58.504 1367.09 58.176 1366.45 57.856C1365.81 57.536 1365.28 57.064 1364.84 56.44C1364.41 55.8 1364.2 55.048 1364.2 54.184C1364.2 52.968 1364.64 51.968 1365.52 51.184C1366.41 50.384 1367.61 49.984 1369.12 49.984C1371.08 49.984 1372.59 50.552 1373.63 51.688L1372.91 52.672C1371.95 51.712 1370.7 51.232 1369.16 51.232C1368.06 51.232 1367.19 51.504 1366.55 52.048C1365.91 52.576 1365.59 53.288 1365.59 54.184C1365.59 54.904 1365.8 55.528 1366.24 56.056C1366.67 56.568 1367.2 56.952 1367.84 57.208C1368.48 57.464 1369.18 57.752 1369.93 58.072C1370.68 58.376 1371.38 58.688 1372.02 59.008C1372.66 59.328 1373.2 59.816 1373.63 60.472C1374.06 61.112 1374.28 61.888 1374.28 62.8C1374.28 64.112 1373.76 65.176 1372.74 65.992C1371.72 66.808 1370.44 67.216 1368.92 67.216C1367.88 67.216 1366.86 67 1365.85 66.568C1364.86 66.104 1364.16 65.512 1363.76 64.792L1364.56 63.88C1365.04 64.504 1365.68 65.008 1366.48 65.392C1367.28 65.776 1368.08 65.968 1368.9 65.968C1369.99 65.968 1370.92 65.688 1371.71 65.128C1372.49 64.584 1372.88 63.816 1372.88 62.824Z" fill="#141414"/>
<path d="M516.656 35.216H515.408V30.752H517.208C517.752 30.048 518.328 28.68 518.936 26.648C519.56 24.52 519.952 21.824 520.112 18.56L520.28 15.2H529.736V30.752H532.016V35.216H530.768V32H516.656V35.216ZM521.552 16.448L521.36 19.52C521.152 22.56 520.768 25.056 520.208 27.008C519.664 28.928 519.152 30.176 518.672 30.752H528.416V16.448H521.552ZM539.019 32.216C537.355 32.216 535.995 31.688 534.939 30.632C533.883 29.576 533.355 28.232 533.355 26.6C533.355 24.968 533.883 23.624 534.939 22.568C535.995 21.512 537.355 20.984 539.019 20.984C540.683 20.984 542.043 21.512 543.099 22.568C544.155 23.624 544.683 24.968 544.683 26.6C544.683 28.232 544.155 29.576 543.099 30.632C542.043 31.688 540.683 32.216 539.019 32.216ZM539.019 31.04C540.315 31.04 541.355 30.632 542.139 29.816C542.955 28.984 543.363 27.912 543.363 26.6C543.363 25.304 542.955 24.24 542.139 23.408C541.323 22.576 540.283 22.16 539.019 22.16C537.771 22.16 536.731 22.576 535.899 23.408C535.083 24.24 534.675 25.304 534.675 26.6C534.675 27.896 535.083 28.96 535.899 29.792C536.715 30.624 537.755 31.04 539.019 31.04ZM557.124 32H555.876V22.376H548.988V32H547.74V21.2H557.124V32ZM565.808 32.216C564.144 32.216 562.784 31.688 561.728 30.632C560.672 29.576 560.144 28.232 560.144 26.6C560.144 24.968 560.672 23.624 561.728 22.568C562.784 21.512 564.144 20.984 565.808 20.984C567.472 20.984 568.832 21.512 569.888 22.568C570.944 23.624 571.472 24.968 571.472 26.6C571.472 28.232 570.944 29.576 569.888 30.632C568.832 31.688 567.472 32.216 565.808 32.216ZM565.808 31.04C567.104 31.04 568.144 30.632 568.928 29.816C569.744 28.984 570.152 27.912 570.152 26.6C570.152 25.304 569.744 24.24 568.928 23.408C568.112 22.576 567.072 22.16 565.808 22.16C564.56 22.16 563.52 22.576 562.688 23.408C561.872 24.24 561.464 25.304 561.464 26.6C561.464 27.896 561.872 28.96 562.688 29.792C563.504 30.624 564.544 31.04 565.808 31.04ZM582.916 32H581.668V22.448H577.108L576.964 24.8C576.756 27.84 576.252 29.856 575.452 30.848C574.812 31.68 574.02 32.096 573.076 32.096L572.98 30.872C573.396 30.872 573.788 30.68 574.156 30.296C575.036 29.48 575.572 27.568 575.764 24.56L575.932 21.2H582.916V32ZM596.22 32H594.972V27.104H587.964V32H586.716V21.2H587.964V25.928H594.972V21.2H596.22V32ZM608.549 29.72L608.957 30.68C607.981 31.704 606.653 32.216 604.973 32.216C603.245 32.216 601.861 31.704 600.821 30.68C599.765 29.656 599.237 28.296 599.237 26.6C599.237 24.968 599.717 23.624 600.677 22.568C601.653 21.512 602.997 20.984 604.709 20.984C606.101 20.984 607.269 21.432 608.213 22.328C609.141 23.208 609.605 24.384 609.605 25.856C609.605 26.24 609.581 26.576 609.533 26.864H600.629C600.677 28.16 601.101 29.184 601.901 29.936C602.701 30.672 603.749 31.04 605.045 31.04C606.549 31.04 607.717 30.6 608.549 29.72ZM604.589 22.16C603.437 22.16 602.501 22.496 601.781 23.168C601.077 23.84 600.669 24.728 600.557 25.832H608.333C608.317 24.696 607.973 23.8 607.301 23.144C606.629 22.488 605.725 22.16 604.589 22.16ZM622.095 32H620.847V27.104H613.839V32H612.591V21.2H613.839V25.928H620.847V21.2H622.095V32ZM635.384 32H634.136V27.104H627.128V32H625.88V21.2H627.128V25.928H634.136V21.2H635.384V32ZM642.145 32H639.169V21.2H640.417V24.824H642.289C645.137 24.824 646.561 26.008 646.561 28.376C646.561 29.496 646.201 30.384 645.481 31.04C644.761 31.68 643.649 32 642.145 32ZM642.073 26H640.417V30.824H642.049C643.185 30.824 644.001 30.624 644.497 30.224C644.993 29.824 645.241 29.216 645.241 28.4C645.241 26.8 644.185 26 642.073 26ZM650.281 32H649.033V21.2H650.281V32ZM662.62 29.72L663.028 30.68C662.052 31.704 660.724 32.216 659.044 32.216C657.316 32.216 655.932 31.704 654.892 30.68C653.836 29.656 653.308 28.296 653.308 26.6C653.308 24.968 653.788 23.624 654.748 22.568C655.724 21.512 657.068 20.984 658.78 20.984C660.172 20.984 661.34 21.432 662.284 22.328C663.212 23.208 663.676 24.384 663.676 25.856C663.676 26.24 663.652 26.576 663.604 26.864H654.7C654.748 28.16 655.172 29.184 655.972 29.936C656.772 30.672 657.82 31.04 659.116 31.04C660.62 31.04 661.788 30.6 662.62 29.72ZM658.66 22.16C657.508 22.16 656.572 22.496 655.852 23.168C655.148 23.84 654.74 24.728 654.628 25.832H662.404C662.388 24.696 662.044 23.8 661.372 23.144C660.7 22.488 659.796 22.16 658.66 22.16ZM525.296 64.552L525.92 65.464C525.488 66.024 524.904 66.456 524.168 66.76C523.448 67.064 522.672 67.216 521.84 67.216C520.16 67.216 518.784 66.704 517.712 65.68C516.656 64.656 516.128 63.296 516.128 61.6C516.128 60.016 516.64 58.688 517.664 57.616C518.704 56.528 519.984 55.984 521.504 55.984C523.36 55.984 524.76 56.432 525.704 57.328L525.104 58.336C524.256 57.552 523.12 57.16 521.696 57.16C520.544 57.16 519.544 57.584 518.696 58.432C517.864 59.264 517.448 60.32 517.448 61.6C517.448 62.944 517.872 64.024 518.72 64.84C519.568 65.64 520.64 66.04 521.936 66.04C523.328 66.04 524.448 65.544 525.296 64.552ZM538.046 67H536.798V57.376H529.91V67H528.662V56.2H538.046V67ZM543.082 71.8H541.834V56.2H543.082V57.64C543.514 57.16 544.09 56.768 544.81 56.464C545.546 56.144 546.29 55.984 547.042 55.984C548.578 55.984 549.802 56.488 550.714 57.496C551.626 58.504 552.082 59.816 552.082 61.432C552.082 63.112 551.57 64.496 550.546 65.584C549.506 66.672 548.17 67.216 546.538 67.216C545.082 67.216 543.93 66.912 543.082 66.304V71.8ZM546.706 57.16C546.002 57.16 545.314 57.32 544.642 57.64C543.986 57.96 543.466 58.36 543.082 58.84V65.056C544.074 65.712 545.194 66.04 546.442 66.04C547.722 66.04 548.762 65.616 549.562 64.768C550.362 63.92 550.762 62.832 550.762 61.504C550.762 60.176 550.402 59.12 549.682 58.336C548.962 57.552 547.97 57.16 546.706 57.16ZM555.459 58L555.123 56.968C556.195 56.312 557.339 55.984 558.555 55.984C559.963 55.984 560.979 56.336 561.603 57.04C562.243 57.744 562.563 58.832 562.563 60.304V67H561.315V65.344C560.435 66.544 559.203 67.144 557.619 67.144C556.611 67.144 555.803 66.856 555.195 66.28C554.587 65.688 554.283 64.904 554.283 63.928C554.283 62.872 554.667 62.048 555.435 61.456C556.187 60.864 557.171 60.568 558.387 60.568C559.603 60.568 560.579 60.84 561.315 61.384C561.315 60.264 561.235 59.408 561.075 58.816C560.947 58.24 560.683 57.832 560.283 57.592C559.899 57.352 559.299 57.208 558.483 57.16C557.507 57.16 556.499 57.44 555.459 58ZM558.003 65.968C559.347 65.968 560.451 65.4 561.315 64.264V62.464C560.531 61.888 559.595 61.6 558.507 61.6C557.691 61.6 557.003 61.8 556.443 62.2C555.883 62.6 555.603 63.152 555.603 63.856C555.603 64.496 555.827 65.008 556.275 65.392C556.723 65.776 557.299 65.968 558.003 65.968ZM566.138 67V56.2C566.666 56.2 567.178 56.192 567.674 56.176C568.698 56.144 569.346 56.128 569.618 56.128C572.594 56.128 574.082 57.056 574.082 58.912C574.082 59.536 573.882 60.08 573.482 60.544C573.098 60.992 572.57 61.272 571.898 61.384V61.432C573.626 61.688 574.49 62.552 574.49 64.024C574.49 66.056 572.882 67.072 569.666 67.072C569.458 67.072 568.826 67.056 567.77 67.024C567.242 67.008 566.698 67 566.138 67ZM569.978 62.032H567.386V65.848C568.634 65.88 569.442 65.896 569.81 65.896C572.05 65.896 573.17 65.232 573.17 63.904C573.17 62.656 572.106 62.032 569.978 62.032ZM569.762 57.304C569.234 57.304 568.442 57.32 567.386 57.352V61H570.242C571.026 61 571.642 60.832 572.09 60.496C572.538 60.144 572.762 59.68 572.762 59.104C572.762 57.904 571.762 57.304 569.762 57.304ZM582.589 67.216C580.925 67.216 579.565 66.688 578.509 65.632C577.453 64.576 576.925 63.232 576.925 61.6C576.925 59.968 577.453 58.624 578.509 57.568C579.565 56.512 580.925 55.984 582.589 55.984C584.253 55.984 585.613 56.512 586.669 57.568C587.725 58.624 588.253 59.968 588.253 61.6C588.253 63.232 587.725 64.576 586.669 65.632C585.613 66.688 584.253 67.216 582.589 67.216ZM582.589 66.04C583.885 66.04 584.925 65.632 585.709 64.816C586.525 63.984 586.933 62.912 586.933 61.6C586.933 60.304 586.525 59.24 585.709 58.408C584.893 57.576 583.853 57.16 582.589 57.16C581.341 57.16 580.301 57.576 579.469 58.408C578.653 59.24 578.245 60.304 578.245 61.6C578.245 62.896 578.653 63.96 579.469 64.792C580.285 65.624 581.325 66.04 582.589 66.04ZM597.67 56.2H598.918V67H597.67V62.44C596.774 63.048 595.694 63.352 594.43 63.352C591.902 63.352 590.638 62 590.638 59.296V56.2H591.958V59.2C591.958 61.184 592.894 62.176 594.766 62.176C595.902 62.176 596.87 61.888 597.67 61.312V56.2ZM612.205 67H610.957V62.104H603.949V67H602.701V56.2H603.949V60.928H610.957V56.2H612.205V67ZM624.438 58L617.238 67H615.99V56.2H617.238V65.2L624.438 56.2H625.686V67H624.438V58ZM636.666 56.2H638.274L632.946 61.36L638.706 67H637.026L631.434 61.432L636.666 56.2ZM630.714 67H629.466V56.2H630.714V67ZM649.539 58L642.339 67H641.091V56.2H642.339V65.2L649.539 56.2H650.787V67H649.539V58Z" fill="#141414"/>
<path fill-rule="evenodd" clip-rule="evenodd" d="M449.499 5C446.557 5 443.695 5.33104 440.937 5.94327V44.5273C440.937 49.2555 444.792 53.1117 449.522 53.1117C454.249 53.1117 458.103 49.2555 458.103 44.5297C458.103 39.9877 454.554 36.2597 450.093 35.9631V29.092C458.337 29.391 464.971 36.2111 464.971 44.5297C464.971 53.0369 458.031 59.9804 449.522 59.9804C441.01 59.9804 434.071 53.0369 434.071 44.5273V8.12645C433.095 8.54054 432.142 8.99971 431.209 9.4933V44.5273C431.21 54.6114 439.437 62.8351 449.522 62.8351C459.608 62.8351 467.832 54.6114 467.832 44.5297C467.832 34.6354 459.917 26.5327 450.093 26.2278V19.3591C463.698 19.6664 474.696 30.8552 474.696 44.5297C474.696 58.3976 463.387 69.7038 449.522 69.7038C435.653 69.7038 424.341 58.3976 424.341 44.5273V14.0495C415.584 21.2907 410 32.241 410 44.4976C410 66.3116 427.684 84 449.501 84C471.32 84 489 66.3116 489 44.4976C489 22.6837 471.32 5 449.499 5Z" fill="#D91935"/>
<rect width="337" height="89" rx="8" fill="white"/>
<path d="M66.075 34.2H67.659L61.491 42.456L67.875 51H66.291L60.627 43.464L54.939 51H53.379L59.787 42.456L53.643 34.2H55.203L60.651 41.448L66.075 34.2ZM72.5348 51H71.2148V34.2H72.5588L79.3268 43.416L85.8308 34.2H87.1028V51H85.7828V36.264L79.3268 45.336H79.1108L72.5348 36.336V51ZM102.602 51H92.4257V34.2H93.7457V49.752H102.602V51ZM109.626 45.072H104.13V43.896H109.626V45.072ZM113.572 51V40.2C114.1 40.2 114.612 40.192 115.108 40.176C116.132 40.144 116.78 40.128 117.052 40.128C120.028 40.128 121.516 41.056 121.516 42.912C121.516 43.536 121.316 44.08 120.916 44.544C120.532 44.992 120.004 45.272 119.332 45.384V45.432C121.06 45.688 121.924 46.552 121.924 48.024C121.924 50.056 120.316 51.072 117.1 51.072C116.892 51.072 116.26 51.056 115.204 51.024C114.676 51.008 114.132 51 113.572 51ZM117.412 46.032H114.82V49.848C116.068 49.88 116.876 49.896 117.244 49.896C119.484 49.896 120.604 49.232 120.604 47.904C120.604 46.656 119.54 46.032 117.412 46.032ZM117.196 41.304C116.668 41.304 115.876 41.32 114.82 41.352V45H117.676C118.46 45 119.076 44.832 119.524 44.496C119.972 44.144 120.196 43.68 120.196 43.104C120.196 41.904 119.196 41.304 117.196 41.304ZM128.102 51H125.126V40.2H126.374V43.824H128.246C131.094 43.824 132.518 45.008 132.518 47.376C132.518 48.496 132.158 49.384 131.438 50.04C130.718 50.68 129.606 51 128.102 51ZM128.03 45H126.374V49.824H128.006C129.142 49.824 129.958 49.624 130.454 49.224C130.95 48.824 131.198 48.216 131.198 47.4C131.198 45.8 130.142 45 128.03 45ZM136.238 51H134.99V40.2H136.238V51ZM141.281 51H140.033V40.2H146.537V41.376H141.281V51ZM149.742 55.8H148.494V40.2H149.742V41.64C150.174 41.16 150.75 40.768 151.47 40.464C152.206 40.144 152.95 39.984 153.702 39.984C155.238 39.984 156.462 40.488 157.374 41.496C158.286 42.504 158.742 43.816 158.742 45.432C158.742 47.112 158.23 48.496 157.206 49.584C156.166 50.672 154.83 51.216 153.198 51.216C151.742 51.216 150.59 50.912 149.742 50.304V55.8ZM153.366 41.16C152.662 41.16 151.974 41.32 151.302 41.64C150.646 41.96 150.126 42.36 149.742 42.84V49.056C150.734 49.712 151.854 50.04 153.102 50.04C154.382 50.04 155.422 49.616 156.222 48.768C157.022 47.92 157.422 46.832 157.422 45.504C157.422 44.176 157.062 43.12 156.342 42.336C155.622 41.552 154.63 41.16 153.366 41.16ZM169.257 40.2H170.673L166.305 51C165.521 52.904 164.841 54.168 164.265 54.792C163.689 55.464 163.017 55.8 162.249 55.8C161.657 55.8 161.041 55.616 160.401 55.248L160.809 54.288C161.305 54.528 161.729 54.648 162.081 54.648C162.625 54.648 163.113 54.408 163.545 53.928C163.977 53.464 164.425 52.68 164.889 51.576L165.129 51L159.801 40.2H161.289L164.985 47.832L165.753 49.512C165.769 49.448 165.969 48.872 166.353 47.784L169.257 40.2ZM176.252 51.216C175.516 51.216 174.7 51.08 173.804 50.808C172.956 50.552 172.356 50.208 172.004 49.776L172.652 48.816C173.068 49.2 173.588 49.504 174.212 49.728C174.852 49.936 175.468 50.04 176.06 50.04C177.068 50.04 177.876 49.84 178.484 49.44C179.092 49.04 179.396 48.504 179.396 47.832C179.396 47.272 179.172 46.832 178.724 46.512C178.276 46.192 177.668 46.032 176.9 46.032H175.076V45H176.78C177.388 45 177.908 44.808 178.34 44.424C178.772 44.04 178.988 43.576 178.988 43.032C178.988 42.424 178.748 41.96 178.268 41.64C177.788 41.32 177.116 41.16 176.252 41.16C174.988 41.16 173.86 41.56 172.868 42.36L172.364 41.4C173.276 40.456 174.628 39.984 176.42 39.984C177.652 39.984 178.604 40.24 179.276 40.752C179.964 41.248 180.308 41.936 180.308 42.816C180.308 44.08 179.66 44.944 178.364 45.408V45.456C179.1 45.52 179.676 45.792 180.092 46.272C180.508 46.736 180.716 47.312 180.716 48C180.716 48.992 180.308 49.776 179.492 50.352C178.676 50.928 177.596 51.216 176.252 51.216ZM191.108 40.2H192.716L187.388 45.36L193.148 51H191.468L185.876 45.432L191.108 40.2ZM185.156 51H183.908V40.2H185.156V51ZM195.869 42L195.533 40.968C196.605 40.312 197.749 39.984 198.965 39.984C200.373 39.984 201.389 40.336 202.013 41.04C202.653 41.744 202.973 42.832 202.973 44.304V51H201.725V49.344C200.845 50.544 199.613 51.144 198.029 51.144C197.021 51.144 196.213 50.856 195.605 50.28C194.997 49.688 194.693 48.904 194.693 47.928C194.693 46.872 195.077 46.048 195.845 45.456C196.597 44.864 197.581 44.568 198.797 44.568C200.013 44.568 200.989 44.84 201.725 45.384C201.725 44.264 201.645 43.408 201.485 42.816C201.357 42.24 201.093 41.832 200.693 41.592C200.309 41.352 199.709 41.208 198.893 41.16C197.917 41.16 196.909 41.44 195.869 42ZM198.413 49.968C199.757 49.968 200.861 49.4 201.725 48.264V46.464C200.941 45.888 200.005 45.6 198.917 45.6C198.101 45.6 197.413 45.8 196.853 46.2C196.293 46.6 196.013 47.152 196.013 47.856C196.013 48.496 196.237 49.008 196.685 49.392C197.133 49.776 197.709 49.968 198.413 49.968ZM220.645 42L213.445 51H212.197V40.2H213.445V49.2L220.645 40.2H221.893V51H220.645V42ZM229.009 51.216C228.273 51.216 227.457 51.08 226.561 50.808C225.713 50.552 225.113 50.208 224.761 49.776L225.409 48.816C225.825 49.2 226.345 49.504 226.969 49.728C227.609 49.936 228.225 50.04 228.817 50.04C229.825 50.04 230.633 49.84 231.241 49.44C231.849 49.04 232.153 48.504 232.153 47.832C232.153 47.272 231.929 46.832 231.481 46.512C231.033 46.192 230.425 46.032 229.657 46.032H227.833V45H229.537C230.145 45 230.665 44.808 231.097 44.424C231.529 44.04 231.745 43.576 231.745 43.032C231.745 42.424 231.505 41.96 231.025 41.64C230.545 41.32 229.873 41.16 229.009 41.16C227.745 41.16 226.617 41.56 225.625 42.36L225.121 41.4C226.033 40.456 227.385 39.984 229.177 39.984C230.409 39.984 231.361 40.24 232.033 40.752C232.721 41.248 233.065 41.936 233.065 42.816C233.065 44.08 232.417 44.944 231.121 45.408V45.456C231.857 45.52 232.433 45.792 232.849 46.272C233.265 46.736 233.473 47.312 233.473 48C233.473 48.992 233.065 49.776 232.249 50.352C231.433 50.928 230.353 51.216 229.009 51.216ZM250.834 46.824C250.834 46.088 250.618 45.456 250.186 44.928C249.754 44.4 249.218 44 248.578 43.728C247.938 43.456 247.242 43.16 246.49 42.84C245.738 42.504 245.042 42.176 244.402 41.856C243.762 41.536 243.226 41.064 242.794 40.44C242.362 39.8 242.146 39.048 242.146 38.184C242.146 36.968 242.586 35.968 243.466 35.184C244.362 34.384 245.562 33.984 247.066 33.984C249.034 33.984 250.538 34.552 251.578 35.688L250.858 36.672C249.898 35.712 248.65 35.232 247.114 35.232C246.01 35.232 245.138 35.504 244.498 36.048C243.858 36.576 243.538 37.288 243.538 38.184C243.538 38.904 243.754 39.528 244.186 40.056C244.618 40.568 245.154 40.952 245.794 41.208C246.434 41.464 247.13 41.752 247.882 42.072C248.634 42.376 249.33 42.688 249.97 43.008C250.61 43.328 251.146 43.816 251.578 44.472C252.01 45.112 252.226 45.888 252.226 46.8C252.226 48.112 251.714 49.176 250.69 49.992C249.666 50.808 248.394 51.216 246.874 51.216C245.834 51.216 244.81 51 243.802 50.568C242.81 50.104 242.114 49.512 241.714 48.792L242.506 47.88C242.986 48.504 243.626 49.008 244.426 49.392C245.226 49.776 246.034 49.968 246.85 49.968C247.938 49.968 248.874 49.688 249.658 49.128C250.442 48.584 250.834 47.816 250.834 46.824ZM255.368 51H254.024L261.344 34.056H262.424L269.744 51H268.328L265.88 45.288H257.816L255.368 51ZM265.328 44.04L261.848 35.88L258.344 44.04H265.328ZM274.238 44.256V51H272.918V34.2C273.574 34.2 274.254 34.192 274.958 34.176C275.662 34.16 276.35 34.152 277.022 34.152C278.142 34.152 279.102 34.296 279.902 34.584C280.718 34.872 281.342 35.264 281.774 35.76C282.206 36.256 282.518 36.792 282.71 37.368C282.902 37.928 282.998 38.544 282.998 39.216C282.998 40.672 282.494 41.888 281.486 42.864C280.462 43.856 278.974 44.352 277.022 44.352C275.918 44.352 274.99 44.32 274.238 44.256ZM277.142 35.4C276.614 35.4 275.646 35.416 274.238 35.448V42.984C275.39 43.064 276.302 43.104 276.974 43.104C278.446 43.104 279.582 42.752 280.382 42.048C281.198 41.344 281.606 40.392 281.606 39.192C281.606 38.008 281.23 37.08 280.478 36.408C279.742 35.736 278.63 35.4 277.142 35.4Z" fill="#141414"/>
<rect x="789" width="337" height="89" rx="8" fill="white"/>
<path d="M911.328 43.944V51H910.008V34.2C910.728 34.2 911.456 34.192 912.192 34.176C912.928 34.16 913.544 34.152 914.04 34.152C917.96 34.152 919.92 35.768 919.92 39C919.92 40.152 919.544 41.168 918.792 42.048C918.04 42.896 917.088 43.44 915.936 43.68L921.816 51H920.184L914.592 43.944H911.328ZM913.968 35.4C913.616 35.4 912.736 35.416 911.328 35.448V42.696H914.232C915.368 42.696 916.36 42.352 917.208 41.664C918.088 40.976 918.528 40.088 918.528 39C918.528 36.6 917.008 35.4 913.968 35.4ZM934.676 51H925.148V34.2H934.436V35.448H926.468V41.856H933.716V43.104H926.468V49.752H934.676V51ZM946.705 46.824C946.705 46.088 946.489 45.456 946.057 44.928C945.625 44.4 945.089 44 944.449 43.728C943.809 43.456 943.113 43.16 942.361 42.84C941.609 42.504 940.913 42.176 940.273 41.856C939.633 41.536 939.097 41.064 938.665 40.44C938.233 39.8 938.017 39.048 938.017 38.184C938.017 36.968 938.457 35.968 939.337 35.184C940.233 34.384 941.433 33.984 942.937 33.984C944.905 33.984 946.409 34.552 947.449 35.688L946.729 36.672C945.769 35.712 944.521 35.232 942.985 35.232C941.881 35.232 941.009 35.504 940.369 36.048C939.729 36.576 939.409 37.288 939.409 38.184C939.409 38.904 939.625 39.528 940.057 40.056C940.489 40.568 941.025 40.952 941.665 41.208C942.305 41.464 943.001 41.752 943.753 42.072C944.505 42.376 945.201 42.688 945.841 43.008C946.481 43.328 947.017 43.816 947.449 44.472C947.881 45.112 948.097 45.888 948.097 46.8C948.097 48.112 947.585 49.176 946.561 49.992C945.537 50.808 944.265 51.216 942.745 51.216C941.705 51.216 940.681 51 939.673 50.568C938.681 50.104 937.985 49.512 937.585 48.792L938.377 47.88C938.857 48.504 939.497 49.008 940.297 49.392C941.097 49.776 941.905 49.968 942.721 49.968C943.809 49.968 944.745 49.688 945.529 49.128C946.313 48.584 946.705 47.816 946.705 46.824ZM953.375 44.256V51H952.055V34.2C952.711 34.2 953.391 34.192 954.095 34.176C954.799 34.16 955.487 34.152 956.159 34.152C957.279 34.152 958.239 34.296 959.039 34.584C959.855 34.872 960.479 35.264 960.911 35.76C961.343 36.256 961.655 36.792 961.847 37.368C962.039 37.928 962.135 38.544 962.135 39.216C962.135 40.672 961.631 41.888 960.623 42.864C959.599 43.856 958.111 44.352 956.159 44.352C955.055 44.352 954.127 44.32 953.375 44.256ZM956.279 35.4C955.751 35.4 954.783 35.416 953.375 35.448V42.984C954.527 43.064 955.439 43.104 956.111 43.104C957.583 43.104 958.719 42.752 959.519 42.048C960.335 41.344 960.743 40.392 960.743 39.192C960.743 38.008 960.367 37.08 959.615 36.408C958.879 35.736 957.767 35.4 956.279 35.4ZM970.926 51H969.582L976.902 34.056H977.982L985.302 51H983.886L981.438 45.288H973.374L970.926 51ZM980.886 44.04L977.406 35.88L973.902 44.04H980.886ZM989.797 44.256V51H988.477V34.2C989.133 34.2 989.813 34.192 990.517 34.176C991.221 34.16 991.909 34.152 992.581 34.152C993.701 34.152 994.661 34.296 995.461 34.584C996.277 34.872 996.901 35.264 997.333 35.76C997.765 36.256 998.077 36.792 998.269 37.368C998.461 37.928 998.557 38.544 998.557 39.216C998.557 40.672 998.053 41.888 997.045 42.864C996.021 43.856 994.533 44.352 992.581 44.352C991.477 44.352 990.549 44.32 989.797 44.256ZM992.701 35.4C992.173 35.4 991.205 35.416 989.797 35.448V42.984C990.949 43.064 991.861 43.104 992.533 43.104C994.005 43.104 995.141 42.752 995.941 42.048C996.757 41.344 997.165 40.392 997.165 39.192C997.165 38.008 996.789 37.08 996.037 36.408C995.301 35.736 994.189 35.4 992.701 35.4ZM1004.41 51H1003.09V34.2H1004.41V51Z" fill="#141414"/>
<g clip-path="url(#clip0)">
<path d="M1242 49.2123C1245.94 49.2123 1249.13 45.983 1249.13 41.9995C1249.13 38.0159 1245.94 34.7866 1242 34.7866C1238.06 34.7866 1234.87 38.0159 1234.87 41.9995C1234.87 45.983 1238.06 49.2123 1242 49.2123Z" fill="#61DAFB"/>
<path d="M1242 56.7773C1263.13 56.7773 1280.26 50.1611 1280.26 41.9997C1280.26 33.8383 1263.13 27.2222 1242 27.2222C1220.87 27.2222 1203.74 33.8383 1203.74 41.9997C1203.74 50.1611 1220.87 56.7773 1242 56.7773Z" stroke="#61DAFB"/>
<path d="M1229.35 49.3887C1239.91 67.9001 1254.14 79.5985 1261.13 75.5178C1268.12 71.437 1265.22 53.1225 1254.65 34.6111C1244.08 16.0997 1229.86 4.40133 1222.87 8.48203C1215.88 12.5627 1218.78 30.8773 1229.35 49.3887Z" stroke="#61DAFB"/>
<path d="M1229.35 34.6119C1218.78 53.1233 1215.88 71.4378 1222.87 75.5185C1229.85 79.5992 1244.08 67.9008 1254.65 49.3894C1265.21 30.878 1268.12 12.5635 1261.13 8.48281C1254.14 4.4021 1239.91 16.1005 1229.35 34.6119Z" stroke="#61DAFB"/>
</g>
<path d="M961.043 122.543C961.433 122.152 962.067 122.152 962.457 122.543L968.821 128.907C969.212 129.297 969.212 129.931 968.821 130.321C968.431 130.712 967.797 130.712 967.407 130.321L961.75 124.664L956.093 130.321C955.703 130.712 955.069 130.712 954.679 130.321C954.288 129.931 954.288 129.297 954.679 128.907L961.043 122.543ZM727.5 190.25H953.75V192.25H727.5V190.25ZM960.75 183.25V123.25H962.75V183.25H960.75ZM953.75 190.25C957.616 190.25 960.75 187.116 960.75 183.25H962.75C962.75 188.221 958.721 192.25 953.75 192.25V190.25Z" fill="#E4002B"/>
<path d="M388.207 45.7071C388.598 45.3166 388.598 44.6834 388.207 44.2929L381.843 37.9289C381.453 37.5384 380.819 37.5384 380.429 37.9289C380.038 38.3195 380.038 38.9526 380.429 39.3431L386.086 45L380.429 50.6569C380.038 51.0474 380.038 51.6805 380.429 52.0711C380.819 52.4616 381.453 52.4616 381.843 52.0711L388.207 45.7071ZM353 46L387.5 46L387.5 44L353 44L353 46Z" fill="#E4002B"/>
<path d="M761.207 45.7071C761.598 45.3166 761.598 44.6834 761.207 44.2929L754.843 37.9289C754.453 37.5384 753.819 37.5384 753.429 37.9289C753.038 38.3195 753.038 38.9526 753.429 39.3431L759.086 45L753.429 50.6569C753.038 51.0474 753.038 51.6805 753.429 52.0711C753.819 52.4616 754.453 52.4616 754.843 52.0711L761.207 45.7071ZM726 46L760.5 46L760.5 44L726 44L726 46Z" fill="#E4002B"/>
<path d="M1178.21 45.7071C1178.6 45.3166 1178.6 44.6834 1178.21 44.2929L1171.84 37.9289C1171.45 37.5384 1170.82 37.5384 1170.43 37.9289C1170.04 38.3195 1170.04 38.9526 1170.43 39.3431L1176.09 45L1170.43 50.6569C1170.04 51.0474 1170.04 51.6805 1170.43 52.0711C1170.82 52.4616 1171.45 52.4616 1171.84 52.0711L1178.21 45.7071ZM1143 46L1177.5 46L1177.5 44L1143 44L1143 46Z" fill="#E4002B"/>
<defs>
<clipPath id="clip0">
<rect width="80" height="72" fill="white" transform="translate(1202 6)"/>
</clipPath>
</defs>
</svg>
