<svg width="344" height="67" viewBox="0 0 344 67" fill="none" xmlns="http://www.w3.org/2000/svg">
<path fill-rule="evenodd" clip-rule="evenodd" d="M134.95 31.5429C132.214 31.5429 129.993 33.7619 129.993 36.4959C129.993 39.2359 132.214 41.4529 134.95 41.4529C137.688 41.4529 139.906 39.2359 139.906 36.4959C139.906 33.7619 137.688 31.5429 134.95 31.5429ZM336.637 27.9059C339.887 27.9059 342.264 29.7249 343.822 31.5429V22.7599C341.269 21.0289 338.193 20.3359 335.518 20.3359C327.302 20.3359 320.163 26.2189 320.163 36.3399C320.163 46.0309 326.651 52.3479 335.646 52.3479C338.241 52.3479 341.095 51.9549 343.822 50.0979V41.4839C342.264 43.0879 339.802 44.7769 336.637 44.7769C331.796 44.7769 328.896 41.1879 328.896 36.5999C328.896 31.6249 331.968 27.9059 336.637 27.9059ZM321.092 21.2029H311.143L302.014 33.9179V21.2029H293.538L293.541 51.4819H302.014V38.4589L310.792 51.4819H321.396L309.585 35.8649L321.092 21.2029ZM268.504 39.3709V21.2029H260.329V51.4819H268.634L280.357 33.3129V51.4819H288.532V21.2029H280.225L268.504 39.3709ZM243.938 34.8259H241.52V27.8649H243.938C247.572 27.8649 248.089 29.8089 248.089 31.3239C248.089 32.6209 247.701 34.8259 243.938 34.8259ZM245.796 21.2029H233.038V51.4819H241.52V41.4839H245.796C254.363 41.4839 256.829 35.5219 256.829 31.3239C256.829 27.1699 254.406 21.2029 245.796 21.2029ZM207.78 28.4669H214.437V51.4819H222.918V28.4669H229.577V21.2029H207.78V28.4669ZM184.289 39.3709V21.2029H176.116V51.4819H184.423L196.14 33.3129V51.4819H204.317V21.2029H196.014L184.289 39.3709ZM159.03 45.4219H155.398V39.0659H159.03C161.713 39.0659 163.271 39.8459 163.271 42.2269C163.271 44.6469 161.671 45.4219 159.03 45.4219ZM159.854 33.0099H155.398V28.4669H169.282V21.2029H146.921L146.92 51.482L159.854 51.4819C162.057 51.4819 171.748 51.5659 171.748 42.0959C171.748 32.9669 162.146 33.0099 159.854 33.0099ZM99.4712 36.3399C99.4712 46.0309 105.959 52.3479 114.955 52.3479C117.553 52.3479 120.407 51.9549 123.133 50.0979V41.4839C121.571 43.0879 119.106 44.7769 115.95 44.7769C111.104 44.7769 108.208 41.1879 108.208 36.5999C108.208 31.6249 111.278 27.9059 115.95 27.9059C119.193 27.9059 121.571 29.7249 123.133 31.5429V22.7599C120.575 21.0289 117.507 20.3359 114.825 20.3359C106.606 20.3359 99.4712 26.2189 99.4712 36.3399ZM81.7212 28.1659H86.3522V51.4819H94.1822V21.2029H81.7212V28.1659Z" fill="#231F20"/>
<path fill-rule="evenodd" clip-rule="evenodd" d="M33.289 0C30.809 0 28.397 0.279 26.073 0.795V33.314C26.073 37.299 29.322 40.549 33.308 40.549C37.292 40.549 40.54 37.299 40.54 33.316C40.54 29.488 37.549 26.346 33.789 26.096V20.305C40.737 20.557 46.328 26.305 46.328 33.316C46.328 40.486 40.479 46.338 33.308 46.338C26.134 46.338 20.286 40.486 20.286 33.314V2.635C19.464 2.984 18.661 3.371 17.874 3.787V33.314C17.875 41.813 24.809 48.744 33.308 48.744C41.808 48.744 48.739 41.813 48.739 33.316C48.739 24.977 42.069 18.148 33.789 17.891V12.102C45.255 12.361 54.524 21.791 54.524 33.316C54.524 45.004 44.993 54.533 33.308 54.533C21.62 54.533 12.086 45.004 12.086 33.314V7.627C4.706 13.73 0 22.959 0 33.289C0 51.674 14.904 66.582 33.29 66.582C51.679 66.582 66.579 51.674 66.579 33.289C66.579 14.904 51.679 0 33.289 0Z" fill="#D91935"/>
</svg>
