<svg width="165" height="44" viewBox="0 0 165 44" fill="none" xmlns="http://www.w3.org/2000/svg">
<path d="M15.7312 25.5748L14.0753 12.3274C13.9833 11.6835 13.6153 11.1315 12.9714 10.9475C12.3274 10.7635 11.6834 10.8555 11.2234 11.3155L1.65592 20.607C1.47193 20.791 1.28794 21.067 1.19594 21.343C0.919954 22.2629 1.37993 23.1829 2.20789 23.5509C2.39188 23.6429 2.57587 23.6429 2.75986 23.6429H4.32378H5.88771C5.9797 23.6429 5.9797 23.6429 6.0717 23.6429C6.34768 23.7348 6.53168 24.1028 6.43968 24.3788L5.88771 25.8507L0 42.6859H1.19594L7.54362 24.8388C7.81961 23.9188 7.35963 22.9989 6.53167 22.6309C6.34768 22.5389 6.16369 22.5389 5.9797 22.5389H4.50777H3.77181H2.94385C2.85186 22.5389 2.85186 22.5389 2.75986 22.5389C2.48388 22.4469 2.29988 22.0789 2.39188 21.8029C2.39188 21.7109 2.48388 21.619 2.57587 21.527L3.67982 20.423L10.9475 13.4314L12.1434 12.2354C12.3274 12.1434 12.5114 12.0514 12.6954 12.1434C12.8794 12.2354 13.0633 12.4194 13.0633 12.6034L13.2473 14.3513L14.3513 24.1948L14.5353 25.7588C14.5353 25.8507 14.5353 25.9427 14.5353 26.0347C14.4433 26.3107 14.0753 26.4947 13.7993 26.4027C13.7073 26.4027 13.7073 26.3107 13.6153 26.3107L12.9714 25.7588L12.4194 25.2988L11.2234 24.3788C11.0394 24.2868 10.9475 24.1948 10.6715 24.1028C9.75151 23.8268 8.83156 24.2868 8.46358 25.1148C8.46358 25.1148 8.46358 25.1148 8.46358 25.2068L2.29989 42.6859H3.49583L9.01555 27.0467L9.56752 25.5748C9.65952 25.2988 10.0275 25.1148 10.3035 25.2068C10.3955 25.2068 10.3955 25.2988 10.4875 25.2988L11.6834 26.3107L12.8794 27.3227C13.0634 27.4147 13.1553 27.5067 13.3393 27.5987C14.2593 27.8746 15.1792 27.4147 15.5472 26.5867C15.7312 26.1267 15.7312 25.8507 15.7312 25.5748Z" fill="#141414"/>
<path d="M50.9655 42.5939H63.9368L79.1161 0H66.0527L50.9655 42.5939Z" fill="#141414"/>
<path d="M102.943 42.5939H115.822L122.538 23.8268C125.206 19.319 130.633 20.331 129.622 24.2868L123.182 42.5939H136.613L142.961 24.6548C144.617 20.147 151.7 19.871 150.137 25.2067L144.157 42.5939H157.128L164.396 21.9869C166.788 14.9952 158.232 5.61171 143.513 15.9152C141.765 11.2234 134.497 8.27958 124.838 15.0872L125.482 12.3274H113.43L102.943 42.5939Z" fill="#141414"/>
<path d="M89.7874 12.3274H77.644L70.4684 32.4744C66.8806 43.7898 78.288 47.5616 89.2354 39.742L88.4995 42.5939H100.091L110.762 12.3274H98.343L91.9953 29.6225C90.5234 33.8543 82.2438 36.2462 83.5317 29.7145L89.7874 12.3274Z" fill="#141414"/>
<path d="M35.7862 13.9833L40.662 0H27.5987L12.6034 42.5939H24.8388L26.2187 39.1901C26.9547 44.3418 43.8818 48.5736 52.8974 30.4505C59.981 17.3871 51.8854 4.41578 35.7862 13.9833ZM40.294 30.1745C37.9021 33.1184 34.0383 34.6823 31.7384 33.2104C29.3466 31.5544 29.4386 27.8746 31.8304 24.3788C32.3824 23.5508 33.0264 22.7229 33.6703 22.1709C35.9702 20.055 38.5461 19.319 40.662 20.699C43.2379 22.2629 42.7779 26.9547 40.294 30.1745Z" fill="#141414"/>
</svg>
