<svg width="120" height="33" viewBox="0 0 120 33" fill="none" xmlns="http://www.w3.org/2000/svg">
<path d="M57.7897 9.94554C57.7897 9.7555 57.663 9.69215 57.5363 9.69215H53.5454C53.3554 9.69215 53.2287 9.81885 53.1653 9.94554L47.0206 25.339C46.8939 25.5291 47.0839 25.7824 47.274 25.7824H50.8848C51.0748 25.7824 51.2015 25.6558 51.2649 25.4657L54.2422 16.4703L54.4323 25.4657C54.4323 25.6558 54.559 25.7824 54.6857 25.7824H58.1064C58.2965 25.7824 58.5499 25.5924 58.5499 25.339L57.7897 9.94554ZM42.9663 19.5744H39.3555C39.1655 19.5744 39.1021 19.3843 39.1655 19.1943L39.6723 16.0903C39.6723 15.9002 39.8623 15.7102 39.989 15.7102H43.6632C43.6632 15.6468 43.6632 15.5835 43.6632 15.5201C43.6632 15.3301 43.6632 15.2034 43.6632 15.0134C43.6632 14.8233 43.5998 14.6966 43.5365 14.5066C43.4731 14.3165 43.4098 14.2532 43.3464 14.0631C43.2831 13.9364 43.1564 13.8097 43.1564 13.6831C43.0297 13.5564 42.9663 13.493 42.8396 13.4297C42.713 13.3663 42.5863 13.2396 42.3962 13.2396C42.2062 13.1763 42.0795 13.1763 41.8894 13.1763C41.6994 13.1763 41.5727 13.1763 41.3826 13.1763C41.1926 13.1763 41.0659 13.2396 40.8759 13.2396C40.6858 13.303 40.6225 13.303 40.4324 13.3663C40.2424 13.4297 40.179 13.493 40.0523 13.5564H39.989C39.799 13.6197 39.6723 13.493 39.6723 13.303L39.5456 10.579C39.4822 10.389 39.6089 10.1989 39.7356 10.1356C39.8623 10.0722 39.989 10.0089 40.179 9.94554C40.3691 9.88219 40.4958 9.81885 40.6858 9.7555C40.8759 9.69215 41.0659 9.6288 41.1926 9.56546C41.3193 9.50211 41.5727 9.43876 41.7627 9.43876C41.9528 9.37541 42.2062 9.37541 42.3962 9.31207C42.5863 9.31207 42.8396 9.24872 43.093 9.24872C43.4731 9.24872 43.8532 9.31207 44.1699 9.37541C44.4867 9.43876 44.8034 9.56546 45.0568 9.6288C45.3102 9.7555 45.5636 9.8822 45.817 10.0722C46.007 10.2623 46.2604 10.4523 46.4505 10.6424C46.6405 10.8324 46.7672 11.0858 46.9572 11.3392C47.1473 11.5926 47.2106 11.846 47.3373 12.1627C47.464 12.4161 47.5274 12.6695 47.5274 13.0496C47.5907 13.303 47.6541 13.6197 47.7174 13.9364C47.7808 14.2532 47.7808 14.5699 47.7808 14.8233C47.7808 15.14 47.7808 15.3934 47.7808 15.7102C47.7808 16.0269 47.7174 16.3437 47.6541 16.6604C47.5907 16.9771 47.5274 17.2305 47.464 17.5473V17.6106C47.3373 18.2441 47.2106 18.8142 47.0206 19.4477C46.8305 20.0178 46.6405 20.5879 46.3871 21.0314C46.1337 21.5382 45.8803 21.9816 45.5636 22.425C45.2469 22.8685 44.9935 23.2485 44.6134 23.5653C44.2966 23.882 43.9166 24.1988 43.5365 24.4522C43.1564 24.7055 42.7763 24.9589 42.3329 25.0856C41.8894 25.2757 41.5093 25.4024 41.1293 25.4657C40.7492 25.7824 40.3691 25.7824 39.9257 25.7824C39.7356 25.7824 39.4822 25.7825 39.2922 25.7191C39.1021 25.7191 38.8487 25.6558 38.722 25.6558C38.532 25.5924 38.342 25.5924 38.2153 25.5291C38.0252 25.4657 37.8985 25.4024 37.7718 25.339C37.6451 25.2757 37.5184 25.2123 37.3917 25.149C37.2651 25.0856 37.2017 25.0223 37.075 24.9589C36.9483 24.8956 36.885 24.7055 36.9483 24.5155L38.0886 21.6015V21.5382C38.2153 21.3481 38.342 21.2848 38.532 21.3481C38.6587 21.4115 38.722 21.4748 38.8487 21.5382C38.9754 21.6015 39.0388 21.6015 39.2288 21.6649C39.3555 21.7282 39.4822 21.7282 39.6723 21.7282C39.8623 21.7282 39.9257 21.7282 40.1157 21.7282C40.3057 21.7282 40.6225 21.7282 40.7492 21.6649C40.9392 21.6015 41.1293 21.5382 41.256 21.4748C41.446 21.3481 41.5727 21.2848 41.7627 21.2214C41.9528 21.0947 42.0161 21.0314 42.1428 20.8413C42.2695 20.6513 42.3329 20.5879 42.4596 20.3979C42.5863 20.2079 42.6496 20.0812 42.7129 19.8911C42.8396 19.7011 42.903 19.511 42.903 19.3843L42.9663 19.5744ZM66.2783 15.5835H69.319C69.509 15.5835 69.5723 15.7735 69.509 15.9636L69.0022 18.8776C69.0022 19.0676 68.8122 19.2576 68.6855 19.2576H65.6448L65.138 22.0449H68.5588C68.7488 22.0449 68.8122 22.235 68.7488 22.425L68.242 25.4657C68.242 25.6558 68.052 25.8458 67.9253 25.8458H60.6403C60.4503 25.8458 60.3869 25.6558 60.4503 25.4657L63.1742 10.0722C63.1742 9.8822 63.3643 9.69215 63.491 9.69215H70.5859C70.776 9.69215 70.8393 9.8822 70.776 10.0722L70.2692 13.1129C70.2692 13.303 70.0791 13.493 69.9524 13.493H66.7217L66.2783 15.5835ZM83.3821 25.7824H80.2781C80.0881 25.7824 80.0247 25.5924 80.0247 25.4024L80.5948 20.5879C80.6582 20.3346 80.7215 19.9545 80.7215 19.5744L80.7849 19.1943L80.8482 18.7509L80.7849 18.9409L80.5315 19.6377L80.4681 19.8278C80.3414 20.0812 80.2781 20.3346 80.2148 20.5246L78.3143 25.2123C78.251 25.4024 78.1243 25.4657 77.9976 25.4657H75.4003C75.2103 25.4657 75.1469 25.339 75.1469 25.2123L74.9569 20.5246V20.0812V19.5744V19.0676V18.5608L74.7669 19.2576L74.5768 20.0178L74.3868 20.6513L73.2465 25.4657C73.1832 25.6558 73.0565 25.7824 72.9298 25.7824H69.9524H69.8891C69.699 25.7191 69.6357 25.5924 69.699 25.339L73.6266 9.94554C73.6899 9.7555 73.8166 9.6288 73.9433 9.6288H77.6175C77.8075 9.6288 77.8709 9.7555 77.8709 9.88219L77.9976 14.8233C77.9976 15.7102 78.0609 16.407 78.0609 17.0405V17.6106C78.0609 17.864 78.0609 18.1807 78.0609 18.4975C78.1876 18.2441 78.251 17.9273 78.3777 17.6106C78.5677 17.1672 78.6944 16.7237 78.8845 16.217C79.0745 15.7102 79.2012 15.2667 79.3912 14.8233L81.2917 9.88219C81.355 9.69215 81.4817 9.6288 81.6084 9.6288H85.2826C85.4726 9.6288 85.536 9.81885 85.536 10.0089L83.7622 25.4024C83.6989 25.5924 83.5722 25.7824 83.3821 25.7824ZM91.6173 15.5835H94.658C94.8481 15.5835 94.9114 15.7735 94.8481 15.9636L94.3413 18.8776C94.3413 19.0676 94.1512 19.2576 94.0245 19.2576H90.9838L90.4771 22.0449H93.8978C94.0879 22.0449 94.1512 22.235 94.0879 22.425L93.5811 25.4657C93.5811 25.6558 93.3911 25.8458 93.2644 25.8458H85.9794C85.7893 25.8458 85.726 25.6558 85.7893 25.4657L88.5133 10.0722C88.5133 9.8822 88.7033 9.69215 88.83 9.69215H95.925C96.115 9.69215 96.1784 9.8822 96.115 10.0722L95.6082 13.1129C95.6082 13.303 95.4182 13.493 95.2915 13.493H92.0608L91.6173 15.5835ZM95.6716 25.339L98.3955 9.94554C98.3955 9.7555 98.5856 9.56546 98.7123 9.56546H102.26C102.45 9.56546 102.513 9.7555 102.45 9.94554L101.563 15.6468H103.527L104.54 10.0089C104.54 9.81885 104.73 9.6288 104.857 9.6288H108.404C108.594 9.6288 108.658 9.81885 108.594 10.0089L105.871 25.4024C105.871 25.5924 105.68 25.7824 105.554 25.7824H102.006C101.816 25.7824 101.753 25.5924 101.816 25.4024L102.83 19.7011H100.866L99.8525 25.4657C99.8525 25.6558 99.6625 25.8458 99.5358 25.8458H95.9883C95.7983 25.7191 95.6716 25.5924 95.6716 25.339ZM113.916 25.7824H110.368C110.178 25.7824 110.115 25.5924 110.178 25.4024L112.269 13.6831H109.925C109.735 13.6831 109.671 13.493 109.735 13.303L110.305 10.0089C110.305 9.81885 110.495 9.6288 110.622 9.6288H119.49C119.68 9.6288 119.744 9.81885 119.68 10.0089L119.11 13.303C119.11 13.493 118.92 13.6831 118.793 13.6831H116.386L114.296 25.4024C114.232 25.5924 114.042 25.7824 113.916 25.7824Z" fill="#141414"/>
<path fill-rule="evenodd" clip-rule="evenodd" d="M14.84 32.8141C5.78128 32.8141 -0.806874 25.5291 0.0799933 16.407C1.03021 7.28498 9.01201 0 18.1341 0H35.8714L32.9574 16.407C31.3104 25.4024 23.8987 32.8141 14.84 32.8141ZM18.831 10.0723L18.3242 11.9727C19.6545 11.9727 21.1748 12.6695 22.0617 13.493C23.1386 14.6966 23.4553 16.3437 23.1386 18.3708C22.2517 23.502 18.0708 25.8458 13.3831 25.7191H13.193H13.003H12.6229H9.77225L10.5958 21.2214H13.4464H14.3966H14.5233C16.1704 21.2214 17.2473 20.3346 17.5007 18.8142C17.8807 16.217 15.4102 15.9002 13.5098 16.1536C13.3831 16.1536 13.2564 16.1536 13.193 16.0269C13.1297 15.9636 13.0663 15.8369 13.1297 15.7102L15.0301 5.51123C15.0934 5.32119 15.3468 5.13115 15.5369 5.13115H26.1159L25.2291 10.0723H18.831Z" fill="#141414"/>
</svg>
