<svg width="83" height="15" viewBox="0 0 83 15" fill="none" xmlns="http://www.w3.org/2000/svg">
<path fill-rule="evenodd" clip-rule="evenodd" d="M16.4715 14.3432H3.77471C3.77471 14.2902 3.74195 14.3027 3.69666 14.32C3.66867 14.3307 3.63591 14.3432 3.60314 14.3432C3.46017 14.3146 3.31719 14.2955 3.17422 14.2765C2.88825 14.2383 2.60228 14.2002 2.31631 14.0858C1.54421 13.8284 0.857888 13.3995 0.428944 12.6274C0.343203 12.4559 0.257472 12.1987 0.171731 11.9415L0.171588 11.9411C0.128694 11.8124 0.107244 11.7052 0.085794 11.5979C0.0643442 11.4907 0.0428944 11.3835 0 11.2548V4.04854C0.0857887 3.96276 0.085794 3.79118 0.085794 3.70539C0.257371 2.59014 0.857898 1.73224 1.88736 1.30329C2.57367 1.04593 3.34576 0.960144 4.11786 0.960144H4.28944H16.0425H16.2999C16.4714 0.960144 16.5572 1.04592 16.5572 1.2175V3.53381C16.5572 3.79116 16.4714 3.79116 16.2999 3.79116H16.2999H16.1283H12.2678H4.71838C4.20365 3.79116 4.03208 3.96276 4.03208 4.47749V10.7401C4.03208 11.169 4.20366 11.4264 4.6326 11.4264H12.4394C12.5252 11.4264 12.611 11.4264 12.611 11.2548V9.19587C12.611 9.02429 12.6109 9.02428 12.4394 9.02428H8.92204H6.51995C6.1768 9.02428 6.09101 9.02428 6.09101 8.59534V6.45062V6.4506C6.09101 6.27904 6.09101 6.19325 6.1339 6.15036C6.17679 6.10747 6.26257 6.10747 6.43414 6.10747H6.43416H16.1283C16.4714 6.10747 16.4715 6.19325 16.4715 6.45062V9.88217V13.9143C16.643 14.0858 16.643 14.2574 16.4715 14.3432ZM50.787 14.3432H39.806H39.7202C39.2913 14.3432 38.8623 14.2574 38.3476 14.0858C37.2323 13.8284 36.6318 13.0564 36.2887 12.0269C36.2029 11.6837 36.1171 11.2548 36.1171 10.8259V4.39169C36.1171 3.87696 36.2029 3.36222 36.3745 2.93327C36.7176 2.16118 37.2323 1.56066 38.0902 1.30329C38.7765 1.04593 39.4628 0.960144 40.2349 0.960144H40.4065H50.4438H50.7012C50.9585 0.960144 50.9585 1.04592 50.9585 1.2175V3.44801C50.9585 3.70538 50.8727 3.79116 50.6154 3.79116H50.4438H40.9213H40.6639C40.2349 3.87695 40.0634 3.96275 40.0634 4.39169V5.85011C40.0634 5.9359 40.0634 5.97879 40.0848 6.00023C40.1063 6.02168 40.1491 6.02168 40.2349 6.02168H40.2349H44.7818H50.1864C50.5296 6.02168 50.6154 6.02168 50.6154 6.45062V8.42378C50.6154 8.68114 50.6154 8.80982 50.551 8.87415C50.4867 8.93849 50.358 8.93849 50.1007 8.93849H50.1007H40.2349H40.0634C39.9776 8.93849 39.9776 8.93849 39.9776 9.02428V10.8259C39.9776 11.0832 40.0634 11.169 40.3207 11.2548C40.4065 11.2548 40.4709 11.2762 40.5352 11.2977C40.5995 11.3191 40.6639 11.3406 40.7497 11.3406H50.2722H50.5296C50.787 11.3406 50.787 11.4264 50.787 11.5979V13.9143C50.9585 14.1716 50.8728 14.2574 50.787 14.3432ZM22.8198 14.3432H33.8008C33.9348 14.2762 33.9641 14.2092 34.0114 14.1014C34.0247 14.0711 34.0394 14.0377 34.0582 14V11.6837C34.0582 11.4264 33.9724 11.3406 33.715 11.3406H33.4576H23.9351H23.6777C23.3346 11.3406 23.163 11.169 23.163 10.8259V9.11007C23.163 9.02429 23.163 9.02428 23.2488 9.02428H23.4203H33.2003C33.715 9.02428 33.715 8.93849 33.715 8.50954V6.53641C33.715 6.32194 33.715 6.2147 33.6614 6.16109C33.6078 6.10747 33.5005 6.10747 33.2861 6.10747H23.4203C23.356 6.10747 23.3078 6.11283 23.2716 6.11685C23.163 6.12891 23.163 6.12891 23.163 5.93588V4.56328C23.163 4.04855 23.3346 3.87696 23.8493 3.87696H33.4576C33.9724 3.87696 33.9724 3.79116 33.9724 3.36222V1.30329C33.9724 1.04593 33.9724 0.960144 33.715 0.960144H33.4576H23.5061H23.3346C22.6483 0.960144 21.8762 1.04593 21.1898 1.30329C20.0746 1.73224 19.4741 2.59014 19.3025 3.70539C19.2167 3.96274 19.2167 4.30585 19.2167 4.56321V4.56328V10.8259C19.2167 11.4264 19.3883 11.9411 19.5599 12.4558C19.903 13.3137 20.5893 13.8284 21.4472 14.0858C21.8761 14.2574 22.3051 14.3432 22.734 14.3432C22.734 14.3432 22.8198 14.2574 22.8198 14.3432ZM70.7757 14.3432C70.6041 14.2574 70.6041 14.0858 70.6041 13.9143V9.96796C70.6041 9.88217 70.6041 9.7964 70.5183 9.71061L67.9447 6.87956C67.2584 6.19325 66.6578 5.50695 66.0573 4.82064C65.7142 4.47748 65.3925 4.11288 65.0707 3.74828C64.749 3.38368 64.4273 3.01907 64.0842 2.67592C63.9126 2.46145 63.7196 2.26842 63.5266 2.0754L63.5265 2.07535C63.3335 1.88234 63.1405 1.68933 62.9689 1.47488C62.9362 1.44211 62.9159 1.40934 62.8986 1.38135C62.8706 1.33606 62.8504 1.30329 62.7974 1.30329C62.7116 1.13172 62.7116 1.04593 62.9689 0.960144H64.0842H66.8294C67.3442 0.960144 67.6873 1.30329 68.0305 1.64644C68.3736 1.9896 68.6953 2.3542 69.017 2.7188C69.3387 3.08341 69.6605 3.44801 70.0036 3.79116C70.7755 4.563 71.5473 5.42059 72.3191 6.27818L72.3199 6.27906L72.6631 6.62221C72.706 6.6651 72.7274 6.68655 72.7489 6.68655C72.7703 6.68655 72.7917 6.6651 72.8346 6.62221C73.0062 6.40774 73.1992 6.21471 73.3923 6.02169L73.3924 6.02159C73.5854 5.8286 73.7784 5.6356 73.9499 5.42117L73.95 5.4211L73.95 5.42106C74.6363 4.649 75.3226 3.87693 76.0946 3.19066C76.352 2.93329 76.6094 2.65448 76.8667 2.37567C77.1241 2.09685 77.3814 1.81804 77.6388 1.56068C77.8962 1.21752 78.3251 1.04594 78.7541 1.04594H78.8399H82.5288H82.6146C82.8268 0.975196 82.8057 1.13778 82.7917 1.2451C82.7888 1.26792 82.7861 1.28825 82.7861 1.30329C82.7003 1.47487 82.5288 1.64645 82.3572 1.81803C82.2714 1.94671 82.1642 2.05395 82.0569 2.16118C81.9497 2.26841 81.8425 2.37565 81.7567 2.50433C81.4135 2.84749 81.0918 3.21209 80.7701 3.57669C80.4484 3.94129 80.1267 4.3059 79.7835 4.64905C79.4404 4.9922 79.1187 5.35681 78.797 5.72141C78.4753 6.08601 78.1535 6.45061 77.8104 6.79377C77.5331 7.0711 77.2697 7.36244 77.0091 7.65081C76.6247 8.07607 76.2462 8.49486 75.8372 8.85272C75.6657 9.0243 75.5155 9.19587 75.3654 9.36744C75.2153 9.53902 75.0651 9.71059 74.8936 9.88217C74.8078 9.96796 74.8078 9.96797 74.8078 10.0538V10.8259V14.0858C74.8078 14.2574 74.8078 14.429 74.6362 14.5148C73.1779 14.3432 71.977 14.3432 70.776 14.3432H70.7757ZM56.0201 14.2574C56.2774 14.2574 56.5348 14.2574 56.7922 14.3432C60.3953 14.3432 64.0842 14.3432 67.5158 14.429C67.6873 14.3432 67.7731 14.2574 67.7731 14.0858V12.0269C67.7731 11.5122 67.7731 11.5121 67.2584 11.5121H58.2506H57.8216C57.5643 11.4264 57.3927 11.2548 57.3927 10.9974V10.6543V1.56067V1.30329C57.3927 1.13171 57.3069 1.04594 57.1353 1.04594H53.7896C53.618 1.04594 53.5322 1.13171 53.5322 1.30329V1.56067V10.3111V10.3112C53.5322 10.8259 53.5322 11.2548 53.618 11.6837C53.7038 12.1985 53.7895 12.7132 54.1327 13.1422C54.5616 13.8285 55.248 14.0858 56.0201 14.2574Z" fill="white"/>
</svg>
