<svg width="53" height="53" viewBox="0 0 53 53" fill="none" xmlns="http://www.w3.org/2000/svg">
<path d="M26.5 49.8768C13.7232 49.8768 3.21786 39.2768 3.21786 26.5C3.21786 23.85 3.69107 21.2946 4.54286 18.8339L18.1714 45.3339C18.3607 45.7125 18.55 45.9964 19.0232 45.9964C19.4964 45.9964 19.6857 45.7125 19.875 45.3339L26.2161 31.2321C26.3107 31.0429 26.4054 30.9482 26.5 30.9482C26.6893 30.9482 26.6893 31.1375 26.7839 31.2321L33.2196 45.3339C33.4089 45.7125 33.5982 45.9964 34.0714 45.9964C34.5446 45.9964 34.7339 45.7125 34.9232 45.3339L48.5518 18.8339C49.4036 21.2 49.8768 23.7554 49.8768 26.5C49.7821 39.2768 39.2768 49.8768 26.5 49.8768ZM26.5 20.4429C26.3107 20.4429 26.3107 20.2536 26.2161 20.1589L18.9286 4.44821C21.2946 3.59643 23.85 3.12321 26.5 3.12321C29.15 3.12321 31.7054 3.59643 34.0714 4.44821L26.7839 20.1589C26.6893 20.2536 26.6893 20.4429 26.5 20.4429ZM18.8339 37.4786C18.6446 37.4786 18.6446 37.2893 18.55 37.1946L6.625 14.2911C8.70714 10.8839 11.7357 8.04464 15.2375 6.05714L23.6607 24.2286C23.85 24.6071 24.0393 24.7018 24.3232 24.7018H28.6768C28.9607 24.7018 29.15 24.6071 29.3393 24.2286L37.6679 6.05714C41.1696 8.04464 44.1982 10.8839 46.2804 14.2911L34.45 37.1946C34.3554 37.3839 34.2607 37.4786 34.1661 37.4786C33.9768 37.4786 33.9768 37.2893 33.8821 37.1946L29.3393 27.1625C29.15 26.7839 28.9607 26.6893 28.6768 26.6893H24.3232C24.0393 26.6893 23.85 26.7839 23.6607 27.1625L19.1179 37.1946C19.0232 37.2893 19.0232 37.4786 18.8339 37.4786ZM26.5 53C41.1696 53 53 41.1696 53 26.5C53 11.8304 41.1696 0 26.5 0C11.8304 0 0 11.8304 0 26.5C0 41.1696 11.8304 53 26.5 53Z" fill="white"/>
</svg>
