<svg width="111" height="33" viewBox="0 0 111 33" fill="none" xmlns="http://www.w3.org/2000/svg">
<path fill-rule="evenodd" clip-rule="evenodd" d="M16.0724 0C7.19586 0 0 7.19586 0 16.0724C0 24.9489 7.19586 32.1448 16.0724 32.1448H94.9276C103.804 32.1448 111 24.9489 111 16.0724C111 7.19586 103.804 0 94.9276 0H16.0724ZM18.2623 11.0196H22.3667V21.5973H24.5908V11.0196H28.6953V8.94028H18.2623V11.0196ZM33.1842 11.0196H37.2886V21.5973H39.5127V11.0196H43.6172V8.94028H33.1842V11.0196ZM59.9896 8.94028V21.5973H58.2176L51.2563 12.8278V21.5973H49.1769V8.94028H50.9489L57.9102 17.7459V8.94028H59.9896ZM75.2853 8.94028V20.8921C75.6951 21.1573 76.2134 21.3743 76.8403 21.543C77.4791 21.7118 78.112 21.7962 78.7388 21.7962C80.1612 21.7962 81.2883 21.3984 82.12 20.6028C82.9638 19.8072 83.3857 18.7404 83.3857 17.4024C83.3857 16.1608 83.0362 15.1663 82.337 14.419C81.6499 13.6475 80.7097 13.2617 79.5163 13.2617C78.6725 13.2617 77.9553 13.4968 77.3646 13.9669V8.94028H75.2853ZM77.3646 15.992C77.8106 15.4737 78.3651 15.2145 79.0281 15.2145C79.6549 15.2145 80.1672 15.4195 80.565 15.8293C80.9628 16.2392 81.1617 16.8117 81.1617 17.5471C81.1617 18.2583 80.9447 18.8248 80.5108 19.2467C80.0889 19.6566 79.5344 19.8615 78.8473 19.8615C78.3049 19.8615 77.8106 19.7229 77.3646 19.4456V15.992ZM91.2561 13.4606H93.6248L90.4244 21.5973C89.8458 23.0076 89.3274 23.9599 88.8694 24.4542C88.4234 24.9604 87.893 25.2136 87.2782 25.2136C86.6996 25.2136 86.115 25.0026 85.5243 24.5807L86.1933 23.0076C86.5067 23.2005 86.79 23.297 87.0431 23.297C87.5374 23.297 87.9532 22.875 88.2908 22.0312L88.4716 21.5973L84.7106 13.4606H87.2059L89.1044 17.9087C89.1285 17.9689 89.2611 18.3607 89.5022 19.084C89.5745 18.638 89.671 18.2402 89.7915 17.8906L91.2561 13.4606ZM65.7963 14.5656H69.3122V18.0814H65.7963V14.5656Z" fill="#141414"/>
</svg>
