<svg width="82" height="21" viewBox="0 0 82 21" fill="none" xmlns="http://www.w3.org/2000/svg">
<path d="M7.28675 0C5.77154 0 3.9533 1.50202 2.47942 4.02429C0.909122 6.65992 0 9.89069 0 12.7105C0 16.8482 2.24525 21 7.28675 21C12.3282 21 14.5735 16.8482 14.5735 12.7105C14.5735 9.89069 13.6644 6.64575 12.0941 4.03846C10.6202 1.50202 8.80195 0 7.28675 0ZM46.6407 6.17814H51.7373V19.8522H57.2058V6.17814H62.3024V1.11943H46.6407V6.17814ZM73.9832 6.17814H82V1.11943H73.9832C66.6138 1.11943 62.6881 4.88866 62.6881 10.5C62.6881 16.1113 66.6276 19.8806 73.9832 19.8806H82V14.8077H73.9832C70.5671 14.8077 68.3494 13.5466 68.3494 10.5C68.3494 7.45344 70.5671 6.17814 73.9832 6.17814ZM35.5246 1.1336L32.6044 12.3279L29.6842 1.1336H20.0282V19.8947H25.4967V4.61943L29.4776 19.8664H35.745L39.7259 4.60526V19.8664H45.1944V1.1336H35.5246Z" fill="#141414"/>
</svg>
