<svg width="144" height="16" viewBox="0 0 144 16" fill="none" xmlns="http://www.w3.org/2000/svg">
<path fill-rule="evenodd" clip-rule="evenodd" d="M0 0H16.1941V2.80481C14.1428 2.92601 9.77725 3.56094 9.28636 7.48012C8.97965 9.92426 10.9599 11.3004 11.6557 11.784C11.7289 11.8349 11.7879 11.8759 11.8285 11.9073C12.9798 12.5364 14.511 12.9173 16.1941 12.9924V15.9943H5.25815C5.80042 15.3139 6.37744 14.4269 6.937 13.3676C7.32855 12.623 8.08829 10.4758 8.07664 8.69227C8.07079 7.94187 8.02402 7.18578 7.64418 6.75283C7.12987 6.16409 6.10712 6.2045 5.48182 6.30839C3.4948 6.63739 1.48442 8.08616 0 9.94477V0ZM0 11.1973V15.9943H5.15142L5.18036 15.9374C5.78578 14.7475 6.61677 13.1143 7.01883 11.509C7.40453 9.98519 7.59155 8.48444 6.82595 7.75716C6.27137 7.23222 5.2713 7.5703 4.60486 7.79559L4.58182 7.80338C3.41883 8.1901 1.01688 9.70234 0 11.1973ZM16.1941 12.2305V4.50177C14.2422 4.4556 11.963 4.90581 10.8468 6.01979C10.0987 6.77019 9.93506 8.0573 10.3909 9.06744C11.4253 11.3474 14.2597 12.0054 16.1941 12.2305ZM7.55649 0.380562C7.53899 0.351701 7.52143 0.334386 7.49807 0.317069C7.48051 0.305525 7.41038 0.293981 7.39288 0.293981C7.29934 0.328613 7.29934 0.415193 7.29934 0.432509C7.30452 0.610186 7.31164 0.791633 7.31883 0.974779C7.39264 2.85617 7.47349 4.91684 5.54026 4.91158C4.27792 4.90581 2.88701 4.01692 1.66558 2.40654C1.64129 2.37549 1.61534 2.34177 1.588 2.30624C1.39168 2.05113 1.12357 1.70273 0.882468 1.58114C0.672076 1.47147 0.268831 1.7543 0.444156 2.20452C0.929222 3.45127 2.43701 4.60567 2.88117 4.87695C3.83377 5.47147 5.87339 5.93902 6.90779 5.10783C8.16783 4.0936 7.87254 2.07437 7.71453 0.99389C7.70619 0.936804 7.69822 0.882338 7.69089 0.830779C7.65583 0.605671 7.61491 0.461369 7.55649 0.380562Z" fill="#141414"/>
<path d="M142.381 6.69553C142.381 6.11834 141.44 5.49496 140.02 5.49496H129.255V7.89612H140.02C141.44 7.89612 142.381 7.26696 142.381 6.69553ZM144 6.69553C144 8.24243 142.218 9.49499 140.02 9.49499H129.255V12.4098H127.637V3.89612H140.02C142.218 3.89612 144 5.14287 144 6.69553ZM124.206 8.15011C124.206 6.71864 121.593 5.26986 116.603 5.26986C111.612 5.26986 108.999 6.71864 108.999 8.15011C108.999 9.28717 112.033 11.0015 116.603 11.0015C121.173 11.0015 124.206 9.28717 124.206 8.15011ZM116.603 3.67101C122.698 3.67101 125.825 5.68544 125.825 8.15011C125.825 10.6148 121.693 12.6003 116.603 12.6003C111.507 12.6003 107.381 10.6148 107.381 8.15011C107.381 5.68544 110.513 3.67101 116.603 3.67101ZM107.381 3.89612H90.9705V5.49496H98.369V12.4098H99.9875V5.49496H107.387V3.89612H107.381ZM88.8778 8.90045L85.1906 5.56423L81.5028 8.90045H88.8778ZM90.6486 10.4993H79.7379L77.6224 12.4098H75.2259L85.1906 3.39395L95.1547 12.4098H92.7588L90.6486 10.4993ZM74.8402 7.52095H65.1623V9.11976H73.2216V9.92208C71.9011 10.5397 69.7557 11.0015 67.0911 11.0015C62.5212 11.0015 59.4878 9.28717 59.4878 8.15011C59.4878 6.71864 62.1003 5.26986 67.0911 5.26986C70.2761 5.26986 72.4911 5.8586 73.6776 6.66092L74.5774 5.33335C73.0577 4.32325 70.5565 3.67101 67.0911 3.67101C60.9957 3.67101 57.869 5.68544 57.869 8.15011C57.869 10.6148 62.0008 12.6003 67.0911 12.6003C70.3405 12.6003 73.1982 11.9307 74.8402 10.8052V7.52095ZM38.0748 3.89612L31.0443 10.5166L24.0079 3.89612H22.0092V12.4098H23.628V5.85283L30.5943 12.4098H31.4885L38.4547 5.85283V12.4098H40.0735V3.89612H38.0748ZM44.0885 5.49496V7.16883H55.841V8.76771H44.0885V10.811H56.3553V12.4098H42.4696V3.89612H56.3553V5.49496H44.0885Z" fill="#141414"/>
</svg>
