<svg width="135" height="65" viewBox="0 0 135 65" fill="none" xmlns="http://www.w3.org/2000/svg">
<path d="M41.5125 41.866H50.0424V44.628H45.9846V64.0346H41.5125V41.866Z" fill="#141414"/>
<path d="M55.0994 55.7123L55.8658 44.628H56.1225L56.8889 55.7123H55.0994ZM50.1469 64.0346H54.5254L54.9399 58.1472H57.0485L57.4647 64.0346H61.8415L59.5092 41.866H52.4792L50.1469 64.0346Z" fill="#141414"/>
<path d="M68.2463 56.2756V60.4549C68.2463 61.0182 68.6863 61.1818 68.943 61.1818C69.3648 61.1818 69.6581 60.8365 69.6581 60.4549V55.2944C69.6581 54.6039 69.5298 53.8407 67.8612 53.8407H66.046V51.4058H67.9346C69.1997 51.4058 69.6581 51.115 69.6581 49.7522V45.3548C69.6581 44.9732 69.3648 44.628 68.943 44.628C68.6863 44.628 68.2463 44.7734 68.2463 45.3548V48.9708H63.7723V45.8273C63.7723 44.2827 63.9557 41.866 67.0911 41.866H70.795C73.9304 41.866 74.1321 44.2827 74.1321 45.8273V49.3706C74.1321 51.7873 72.4269 52.4415 71.0883 52.387V52.605C74.0954 52.5324 74.1321 54.8219 74.1321 55.6033V60.0733C74.1321 61.636 73.9304 64.0346 70.795 64.0346H67.0911C63.9557 64.0346 63.7723 61.636 63.7723 60.0733V56.2756H68.2463Z" fill="#141414"/>
<path d="M77.0658 41.866H87.4256V64.0346H82.9516V44.628H81.5398V64.0346H77.0658V41.866Z" fill="#141414"/>
<path d="M94.8333 54.0587V44.628H95.42C95.8968 44.628 96.2451 45.0277 96.2451 45.7364V52.9503C96.2451 53.659 95.8968 54.0587 95.42 54.0587H94.8333ZM90.3593 64.0346H94.8333V56.4936H97.4003C100.517 56.4936 100.719 54.0951 100.719 52.5324V45.8273C100.719 44.2827 100.517 41.866 97.4003 41.866H90.3593V64.0346Z" fill="#141414"/>
<path d="M109.539 60.4549C109.539 60.8365 109.245 61.1818 108.824 61.1818C108.567 61.1818 108.127 61.0182 108.127 60.4549V45.3548C108.127 44.7734 108.567 44.628 108.824 44.628C109.245 44.628 109.539 44.9732 109.539 45.3548V60.4549ZM103.653 60.0733C103.653 61.636 103.855 64.0346 106.972 64.0346H110.694C113.811 64.0346 114.013 61.636 114.013 60.0733V45.8273C114.013 44.2827 113.811 41.866 110.694 41.866H106.972C103.855 41.866 103.653 44.2827 103.653 45.8273V60.0733Z" fill="#141414"/>
<path d="M128.571 41.866H134.402V64.0346H129.928V50.1338H129.763L127.453 64.0346H123.877L121.585 50.1338H121.42V64.0346H116.946V41.866H122.759L125.674 57.4567L128.571 41.866Z" fill="#141414"/>
<path d="M35.7147 11.5567C34.345 5.61483 30.9125 0.781353 30.4394 0C29.6913 1.10843 26.9538 5.37861 25.5621 10.1031C24.042 15.3908 23.8183 20.0789 24.3427 24.6762C24.8635 29.2916 26.8309 34.0343 26.8309 34.0343C27.8761 36.5055 29.442 39.1767 30.4614 40.485C31.9558 38.5589 35.3901 32.8168 36.4609 25.3304C37.0569 21.151 37.0825 17.4987 35.7147 11.5567ZM30.4394 38.995C29.7665 37.7412 28.7214 35.3608 28.6223 31.6539C28.5967 28.0924 30.0397 25.0215 30.4614 24.3855C30.8373 25.0215 32.0805 27.6926 32.229 31.345C32.3299 34.9065 31.1344 37.723 30.4394 38.995ZM35.3168 21.6416C35.2654 23.913 34.9922 26.3116 34.6438 27.7471C34.7685 25.2759 34.4697 21.8052 33.8976 19.0795C33.3255 16.3721 31.7064 11.8293 30.4138 9.73965C29.2201 11.7385 27.7496 15.6634 26.9794 19.0614C26.2057 22.4593 26.1837 26.5842 26.1837 27.8198C25.9783 26.784 25.4649 23.059 25.6098 19.3339C25.7308 16.263 26.4569 13.0831 26.8548 11.6294C28.373 6.77779 30.091 3.67054 30.4138 3.17992C30.7365 3.67054 32.9001 7.50461 34.0223 11.5204C35.1389 15.5362 35.3645 19.3884 35.3168 21.6416Z" fill="#141414"/>
<path d="M32.7626 41.8659H22.3497V48.7891C22.3588 48.7891 22.3662 48.7709 22.3753 48.7709C24.8287 46.336 28.8076 46.336 31.2627 48.7709C33.7161 51.1876 33.7161 55.1307 31.2627 57.5657C31.2517 57.5838 31.2407 57.5838 31.2297 57.602C31.2169 57.602 31.2041 57.6202 31.1931 57.6383C28.7452 60.0369 25.5474 61.2362 22.3497 61.2362C19.1372 61.2362 15.9248 60.0369 13.4751 57.602C9.15514 53.3318 8.64358 46.6994 11.9367 41.8659C12.3804 41.2118 12.892 40.5939 13.4751 40.0125C15.9248 37.5776 19.1372 36.3783 22.3497 36.3783V19.7336C10.0059 19.7336 3.05176e-05 29.6368 3.05176e-05 41.8659C3.05176e-05 54.095 10.0059 64.0164 22.3497 64.0164C28.7856 64.0164 34.5834 61.3089 38.6613 57.0023V41.8659H32.7626Z" fill="#141414"/>
</svg>
