<svg width="259" height="142" viewBox="0 0 259 142" fill="none" xmlns="http://www.w3.org/2000/svg">
<path d="M25.1145 104.517V118.801H8.92409V104.517H0V142H8.92409V126.929H25.1145V142H34.0386V104.517H25.1145Z" fill="#142975"/>
<path d="M66.7315 104.517L57.3983 119.361L48.076 104.517H37.5479L52.9524 129.017V142H61.8657V129.017L77.2702 104.517H66.7315Z" fill="#142975"/>
<path d="M105.958 104.517V131.989C105.958 133.033 105.172 133.872 104.063 133.872H89.7677V104.517H80.8438V142H107.207C109.554 142 111.438 141.3 112.815 139.933C114.183 138.555 114.871 136.671 114.871 134.335V104.517H105.958Z" fill="#142975"/>
<path d="M149.503 104.517H123.14V142H132.053V112.633H146.371C147.523 112.633 148.255 113.538 148.255 114.506V142H157.168V112.181C157.168 109.835 156.468 107.951 155.112 106.583C153.723 105.206 151.85 104.517 149.503 104.517Z" fill="#142975"/>
<path d="M191.798 104.517H165.435V142H191.798C194.145 142 196.018 141.3 197.385 139.933C198.763 138.555 199.452 136.671 199.452 134.335V112.181C199.452 109.835 198.763 107.951 197.385 106.583C196.018 105.206 194.134 104.517 191.798 104.517ZM190.539 114.571V131.935C190.539 132.947 189.807 133.872 188.644 133.872H174.338V112.633H188.58C189.753 112.633 190.539 113.451 190.539 114.571Z" fill="#142975"/>
<path d="M214.996 104.517C212.66 104.517 210.765 105.206 209.398 106.583C208.02 107.961 207.342 109.845 207.342 112.181V142H216.234V130.406H232.435V142H241.348V104.517H214.996ZM232.435 112.633V122.289H216.234V114.539C216.234 113.613 216.955 112.633 218.139 112.633H232.435Z" fill="#142975"/>
<path d="M250.025 142H258.949V104.517H250.025V142Z" fill="#142975"/>
<path d="M124.208 78.5405C167.016 78.5405 201.723 60.9576 201.723 39.2785C201.723 17.5832 167.016 0 124.208 0C81.4166 0 46.709 17.5832 46.709 39.2785C46.709 60.9576 81.4166 78.5405 124.208 78.5405ZM138.804 59.2738C137.512 62.2367 135.286 68.5669 130.181 71.0927C128.626 71.854 126.711 72.2104 125.01 72.2749C124.617 72.2749 124.339 72.2749 124.224 72.2749C109.922 72.2749 96.6016 70.2993 85.4578 66.9479C85.3747 66.9126 85.1146 66.8187 85.0327 66.7858C84.002 66.4463 83.4781 65.9763 83.4781 65.3936C83.4781 64.8919 83.7561 64.5031 84.1159 64.1469C84.2797 64.0012 84.5089 63.8073 84.82 63.5312C87.4055 61.4103 95.1456 55.8569 109.742 50.3197C114.864 48.393 121.278 45.9807 127.988 44.5722C131.915 43.7626 146.511 41.5443 138.804 59.2731L138.804 59.2738ZM177.963 19.6873C178.241 19.2173 178.601 18.8131 179.272 18.7802C179.631 18.7449 180.123 18.8271 180.875 19.2983C189.974 24.8355 195.374 31.7651 195.374 39.2613C195.374 52.7966 177.783 64.4374 152.615 69.5212C151.012 69.8455 149.932 69.8291 149.571 69.4272C149.31 69.184 149.245 68.7472 149.571 68.2132C149.719 67.9383 149.899 67.6949 150.242 67.2896C163.939 51.3095 174.379 27.7359 177.341 20.9358C177.57 20.4658 177.783 19.9973 177.963 19.6895L177.963 19.6873ZM109.857 19.1878C111.15 16.225 113.375 9.89418 118.481 7.38471C120.035 6.62338 121.95 6.2511 123.652 6.20293C124.045 6.19118 124.323 6.20293 124.421 6.20293C138.739 6.20293 152.043 8.16194 163.203 11.5296C163.286 11.5648 163.546 11.6587 163.628 11.6916C164.659 12.0312 165.183 12.501 165.183 13.0839C165.183 13.5856 164.905 13.9581 164.545 14.3144C164.381 14.4766 164.152 14.6704 163.841 14.9301C161.272 17.0672 153.515 22.6044 138.919 28.1416C133.781 30.0844 127.382 32.4805 120.69 33.8891C116.746 34.7151 102.15 36.9168 109.857 19.1882V19.1878ZM95.8003 9.00428C97.4204 8.69646 98.4841 8.69641 98.8768 9.09822C99.106 9.3567 99.1712 9.77853 98.8648 10.3126C98.701 10.5876 98.5218 10.8473 98.1941 11.2198C84.4977 27.216 74.0576 50.773 71.0793 57.5893C70.8668 58.0593 70.6376 58.5281 70.4571 58.836C70.1947 59.306 69.8194 59.7103 69.1643 59.7431C68.8045 59.7784 68.2973 59.6727 67.5443 59.225C58.446 53.6879 53.046 46.7582 53.046 39.262C53.046 25.7267 70.637 14.0859 95.8045 9.00213" fill="#142975"/>
</svg>
