<svg width="1570" height="598" viewBox="0 0 1570 598" fill="none" xmlns="http://www.w3.org/2000/svg">
<rect width="502" height="89" rx="8" fill="#F6F4F2"/>
<path d="M109.726 51H108.406V43.056H97.9176V51H96.5976V34.2H97.9176V41.808H108.406V34.2H109.726V51ZM114.611 42L114.275 40.968C115.347 40.312 116.491 39.984 117.707 39.984C119.115 39.984 120.131 40.336 120.755 41.04C121.395 41.744 121.715 42.832 121.715 44.304V51H120.467V49.344C119.587 50.544 118.355 51.144 116.771 51.144C115.763 51.144 114.955 50.856 114.347 50.28C113.739 49.688 113.435 48.904 113.435 47.928C113.435 46.872 113.819 46.048 114.587 45.456C115.339 44.864 116.323 44.568 117.539 44.568C118.755 44.568 119.731 44.84 120.467 45.384C120.467 44.264 120.387 43.408 120.227 42.816C120.099 42.24 119.835 41.832 119.435 41.592C119.051 41.352 118.451 41.208 117.635 41.16C116.659 41.16 115.651 41.44 114.611 42ZM117.155 49.968C118.499 49.968 119.603 49.4 120.467 48.264V46.464C119.683 45.888 118.747 45.6 117.659 45.6C116.843 45.6 116.155 45.8 115.595 46.2C115.035 46.6 114.755 47.152 114.755 47.856C114.755 48.496 114.979 49.008 115.427 49.392C115.875 49.776 116.451 49.968 117.155 49.968ZM139.339 48.552L139.963 49.464C139.531 50.024 138.947 50.456 138.211 50.76C137.491 51.064 136.715 51.216 135.883 51.216C134.203 51.216 132.827 50.704 131.755 49.68C130.699 48.656 130.171 47.296 130.171 45.6C130.171 44.016 130.683 42.688 131.707 41.616C132.747 40.528 134.027 39.984 135.547 39.984C137.403 39.984 138.803 40.432 139.747 41.328L139.147 42.336C138.299 41.552 137.163 41.16 135.739 41.16C134.587 41.16 133.587 41.584 132.739 42.432C131.907 43.264 131.491 44.32 131.491 45.6C131.491 46.944 131.915 48.024 132.763 48.84C133.611 49.64 134.683 50.04 135.979 50.04C137.371 50.04 138.491 49.544 139.339 48.552ZM143.041 42L142.705 40.968C143.777 40.312 144.921 39.984 146.137 39.984C147.545 39.984 148.561 40.336 149.185 41.04C149.825 41.744 150.145 42.832 150.145 44.304V51H148.897V49.344C148.017 50.544 146.785 51.144 145.201 51.144C144.193 51.144 143.385 50.856 142.777 50.28C142.169 49.688 141.865 48.904 141.865 47.928C141.865 46.872 142.249 46.048 143.017 45.456C143.769 44.864 144.753 44.568 145.969 44.568C147.185 44.568 148.161 44.84 148.897 45.384C148.897 44.264 148.817 43.408 148.657 42.816C148.529 42.24 148.265 41.832 147.865 41.592C147.481 41.352 146.881 41.208 146.065 41.16C145.089 41.16 144.081 41.44 143.041 42ZM145.585 49.968C146.929 49.968 148.033 49.4 148.897 48.264V46.464C148.113 45.888 147.177 45.6 146.089 45.6C145.273 45.6 144.585 45.8 144.025 46.2C143.465 46.6 143.185 47.152 143.185 47.856C143.185 48.496 143.409 49.008 143.857 49.392C144.305 49.776 144.881 49.968 145.585 49.968ZM162.168 42L154.968 51H153.72V40.2H154.968V49.2L162.168 40.2H163.416V51H162.168V42ZM155.376 34.584H156.504C156.504 35.176 156.712 35.68 157.128 36.096C157.544 36.496 158.08 36.696 158.736 36.696C159.36 36.696 159.872 36.496 160.272 36.096C160.672 35.68 160.872 35.176 160.872 34.584H162C162 35.464 161.696 36.2 161.088 36.792C160.48 37.368 159.696 37.656 158.736 37.656C157.712 37.656 156.896 37.376 156.288 36.816C155.68 36.24 155.376 35.496 155.376 34.584ZM169.909 41.448H165.613V40.2H175.453V41.448H171.157V51H169.909V41.448ZM185.819 48.72L186.227 49.68C185.251 50.704 183.923 51.216 182.243 51.216C180.515 51.216 179.131 50.704 178.091 49.68C177.035 48.656 176.507 47.296 176.507 45.6C176.507 43.968 176.987 42.624 177.947 41.568C178.923 40.512 180.267 39.984 181.979 39.984C183.371 39.984 184.539 40.432 185.483 41.328C186.411 42.208 186.875 43.384 186.875 44.856C186.875 45.24 186.851 45.576 186.803 45.864H177.899C177.947 47.16 178.371 48.184 179.171 48.936C179.971 49.672 181.019 50.04 182.315 50.04C183.819 50.04 184.987 49.6 185.819 48.72ZM181.859 41.16C180.707 41.16 179.771 41.496 179.051 42.168C178.347 42.84 177.939 43.728 177.827 44.832H185.603C185.587 43.696 185.243 42.8 184.571 42.144C183.899 41.488 182.995 41.16 181.859 41.16ZM205.013 51H203.765V46.104H196.757V51H195.509V40.2H196.757V44.928H203.765V40.2H205.013V51ZM213.694 51.216C212.03 51.216 210.67 50.688 209.614 49.632C208.558 48.576 208.03 47.232 208.03 45.6C208.03 43.968 208.558 42.624 209.614 41.568C210.67 40.512 212.03 39.984 213.694 39.984C215.358 39.984 216.718 40.512 217.774 41.568C218.83 42.624 219.358 43.968 219.358 45.6C219.358 47.232 218.83 48.576 217.774 49.632C216.718 50.688 215.358 51.216 213.694 51.216ZM213.694 50.04C214.99 50.04 216.03 49.632 216.814 48.816C217.63 47.984 218.038 46.912 218.038 45.6C218.038 44.304 217.63 43.24 216.814 42.408C215.998 41.576 214.958 41.16 213.694 41.16C212.446 41.16 211.406 41.576 210.574 42.408C209.758 43.24 209.35 44.304 209.35 45.6C209.35 46.896 209.758 47.96 210.574 48.792C211.39 49.624 212.43 50.04 213.694 50.04ZM222.416 51V40.2C222.944 40.2 223.456 40.192 223.952 40.176C224.976 40.144 225.624 40.128 225.896 40.128C228.872 40.128 230.36 41.056 230.36 42.912C230.36 43.536 230.16 44.08 229.76 44.544C229.376 44.992 228.848 45.272 228.176 45.384V45.432C229.904 45.688 230.768 46.552 230.768 48.024C230.768 50.056 229.16 51.072 225.944 51.072C225.736 51.072 225.104 51.056 224.048 51.024C223.52 51.008 222.976 51 222.416 51ZM226.256 46.032H223.664V49.848C224.912 49.88 225.72 49.896 226.088 49.896C228.328 49.896 229.448 49.232 229.448 47.904C229.448 46.656 228.384 46.032 226.256 46.032ZM226.04 41.304C225.512 41.304 224.72 41.32 223.664 41.352V45H226.52C227.304 45 227.92 44.832 228.368 44.496C228.816 44.144 229.04 43.68 229.04 43.104C229.04 41.904 228.04 41.304 226.04 41.304ZM236.946 51H233.97V40.2H235.218V43.824H237.09C239.938 43.824 241.362 45.008 241.362 47.376C241.362 48.496 241.002 49.384 240.282 50.04C239.562 50.68 238.45 51 236.946 51ZM236.874 45H235.218V49.824H236.85C237.986 49.824 238.802 49.624 239.298 49.224C239.794 48.824 240.042 48.216 240.042 47.4C240.042 45.8 238.986 45 236.874 45ZM245.082 51H243.834V40.2H245.082V51ZM257.324 42L250.124 51H248.876V40.2H250.124V49.2L257.324 40.2H258.572V51H257.324V42ZM250.532 34.584H251.66C251.66 35.176 251.868 35.68 252.284 36.096C252.7 36.496 253.236 36.696 253.892 36.696C254.516 36.696 255.028 36.496 255.428 36.096C255.828 35.68 256.028 35.176 256.028 34.584H257.156C257.156 35.464 256.852 36.2 256.244 36.792C255.636 37.368 254.852 37.656 253.892 37.656C252.868 37.656 252.052 37.376 251.444 36.816C250.836 36.24 250.532 35.496 250.532 34.584ZM277.385 51H276.137V41.376H269.249V51H268.001V40.2H277.385V51ZM286.069 51.216C284.405 51.216 283.045 50.688 281.989 49.632C280.933 48.576 280.405 47.232 280.405 45.6C280.405 43.968 280.933 42.624 281.989 41.568C283.045 40.512 284.405 39.984 286.069 39.984C287.733 39.984 289.093 40.512 290.149 41.568C291.205 42.624 291.733 43.968 291.733 45.6C291.733 47.232 291.205 48.576 290.149 49.632C289.093 50.688 287.733 51.216 286.069 51.216ZM286.069 50.04C287.365 50.04 288.405 49.632 289.189 48.816C290.005 47.984 290.413 46.912 290.413 45.6C290.413 44.304 290.005 43.24 289.189 42.408C288.373 41.576 287.333 41.16 286.069 41.16C284.821 41.16 283.781 41.576 282.949 42.408C282.133 43.24 281.725 44.304 281.725 45.6C281.725 46.896 282.133 47.96 282.949 48.792C283.765 49.624 284.805 50.04 286.069 50.04ZM303.178 51H301.93V41.448H297.37L297.226 43.8C297.018 46.84 296.514 48.856 295.714 49.848C295.074 50.68 294.282 51.096 293.338 51.096L293.242 49.872C293.658 49.872 294.05 49.68 294.418 49.296C295.298 48.48 295.834 46.568 296.026 43.56L296.194 40.2H303.178V51ZM310.146 51H306.978V40.2H308.226V43.824H310.314C313.162 43.824 314.586 45.008 314.586 47.376C314.586 48.496 314.218 49.384 313.482 50.04C312.762 50.68 311.65 51 310.146 51ZM310.098 45H308.226V49.824H310.074C311.194 49.824 312.002 49.624 312.498 49.224C313.01 48.824 313.266 48.216 313.266 47.4C313.266 45.8 312.21 45 310.098 45ZM320.791 51.216C320.055 51.216 319.239 51.08 318.343 50.808C317.495 50.552 316.895 50.208 316.543 49.776L317.191 48.816C317.607 49.2 318.127 49.504 318.751 49.728C319.391 49.936 320.007 50.04 320.599 50.04C321.607 50.04 322.415 49.84 323.023 49.44C323.631 49.04 323.935 48.504 323.935 47.832C323.935 47.272 323.711 46.832 323.263 46.512C322.815 46.192 322.207 46.032 321.439 46.032H319.615V45H321.319C321.927 45 322.447 44.808 322.879 44.424C323.311 44.04 323.527 43.576 323.527 43.032C323.527 42.424 323.287 41.96 322.807 41.64C322.327 41.32 321.655 41.16 320.791 41.16C319.527 41.16 318.399 41.56 317.407 42.36L316.903 41.4C317.815 40.456 319.167 39.984 320.959 39.984C322.191 39.984 323.143 40.24 323.815 40.752C324.503 41.248 324.847 41.936 324.847 42.816C324.847 44.08 324.199 44.944 322.903 45.408V45.456C323.639 45.52 324.215 45.792 324.631 46.272C325.047 46.736 325.255 47.312 325.255 48C325.255 48.992 324.847 49.776 324.031 50.352C323.215 50.928 322.135 51.216 320.791 51.216ZM333.343 51.216C331.679 51.216 330.319 50.688 329.263 49.632C328.207 48.576 327.679 47.232 327.679 45.6C327.679 43.968 328.207 42.624 329.263 41.568C330.319 40.512 331.679 39.984 333.343 39.984C335.007 39.984 336.367 40.512 337.423 41.568C338.479 42.624 339.007 43.968 339.007 45.6C339.007 47.232 338.479 48.576 337.423 49.632C336.367 50.688 335.007 51.216 333.343 51.216ZM333.343 50.04C334.639 50.04 335.679 49.632 336.463 48.816C337.279 47.984 337.687 46.912 337.687 45.6C337.687 44.304 337.279 43.24 336.463 42.408C335.647 41.576 334.607 41.16 333.343 41.16C332.095 41.16 331.055 41.576 330.223 42.408C329.407 43.24 328.999 44.304 328.999 45.6C328.999 46.896 329.407 47.96 330.223 48.792C331.039 49.624 332.079 50.04 333.343 50.04ZM342.064 51V40.2C342.592 40.2 343.104 40.192 343.6 40.176C344.624 40.144 345.272 40.128 345.544 40.128C348.52 40.128 350.008 41.056 350.008 42.912C350.008 43.536 349.808 44.08 349.408 44.544C349.024 44.992 348.496 45.272 347.824 45.384V45.432C349.552 45.688 350.416 46.552 350.416 48.024C350.416 50.056 348.808 51.072 345.592 51.072C345.384 51.072 344.752 51.056 343.696 51.024C343.168 51.008 342.624 51 342.064 51ZM345.904 46.032H343.312V49.848C344.56 49.88 345.368 49.896 345.736 49.896C347.976 49.896 349.096 49.232 349.096 47.904C349.096 46.656 348.032 46.032 345.904 46.032ZM345.688 41.304C345.16 41.304 344.368 41.32 343.312 41.352V45H346.168C346.952 45 347.568 44.832 348.016 44.496C348.464 44.144 348.688 43.68 348.688 43.104C348.688 41.904 347.688 41.304 345.688 41.304ZM353.955 42L353.619 40.968C354.691 40.312 355.835 39.984 357.051 39.984C358.459 39.984 359.475 40.336 360.099 41.04C360.739 41.744 361.059 42.832 361.059 44.304V51H359.811V49.344C358.931 50.544 357.699 51.144 356.115 51.144C355.107 51.144 354.299 50.856 353.691 50.28C353.083 49.688 352.779 48.904 352.779 47.928C352.779 46.872 353.163 46.048 353.931 45.456C354.683 44.864 355.667 44.568 356.883 44.568C358.099 44.568 359.075 44.84 359.811 45.384C359.811 44.264 359.731 43.408 359.571 42.816C359.443 42.24 359.179 41.832 358.779 41.592C358.395 41.352 357.795 41.208 356.979 41.16C356.003 41.16 354.995 41.44 353.955 42ZM356.499 49.968C357.843 49.968 358.947 49.4 359.811 48.264V46.464C359.027 45.888 358.091 45.6 357.003 45.6C356.187 45.6 355.499 45.8 354.939 46.2C354.379 46.6 354.099 47.152 354.099 47.856C354.099 48.496 354.323 49.008 354.771 49.392C355.219 49.776 355.795 49.968 356.499 49.968ZM367.346 41.448H363.05V40.2H372.89V41.448H368.594V51H367.346V41.448ZM383.256 48.72L383.664 49.68C382.688 50.704 381.36 51.216 379.68 51.216C377.952 51.216 376.568 50.704 375.528 49.68C374.472 48.656 373.944 47.296 373.944 45.6C373.944 43.968 374.424 42.624 375.384 41.568C376.36 40.512 377.704 39.984 379.416 39.984C380.808 39.984 381.976 40.432 382.92 41.328C383.848 42.208 384.312 43.384 384.312 44.856C384.312 45.24 384.288 45.576 384.24 45.864H375.336C375.384 47.16 375.808 48.184 376.608 48.936C377.408 49.672 378.456 50.04 379.752 50.04C381.256 50.04 382.424 49.6 383.256 48.72ZM379.296 41.16C378.144 41.16 377.208 41.496 376.488 42.168C375.784 42.84 375.376 43.728 375.264 44.832H383.04C383.024 43.696 382.68 42.8 382.008 42.144C381.336 41.488 380.432 41.16 379.296 41.16ZM395.686 51H394.438V41.448H389.878L389.734 43.8C389.526 46.84 389.022 48.856 388.222 49.848C387.582 50.68 386.79 51.096 385.846 51.096L385.75 49.872C386.166 49.872 386.558 49.68 386.926 49.296C387.806 48.48 388.342 46.568 388.534 43.56L388.702 40.2H395.686V51ZM402.654 51H399.486V40.2H400.734V43.824H402.822C405.67 43.824 407.094 45.008 407.094 47.376C407.094 48.496 406.726 49.384 405.99 50.04C405.27 50.68 404.158 51 402.654 51ZM402.606 45H400.734V49.824H402.582C403.702 49.824 404.51 49.624 405.006 49.224C405.518 48.824 405.774 48.216 405.774 47.4C405.774 45.8 404.718 45 402.606 45Z" fill="#141414"/>
<rect x="2" y="508" width="501" height="89" rx="8" fill="#F6F4F2"/>
<path d="M148.523 558.976V542.224C150.747 542.16 152.219 542.128 152.939 542.128C156.475 542.128 158.243 543.512 158.243 546.28C158.243 547.304 157.947 548.16 157.355 548.848C156.763 549.52 155.971 549.976 154.979 550.216V550.264C156.227 550.408 157.187 550.832 157.859 551.536C158.547 552.224 158.891 553.144 158.891 554.296C158.891 555.864 158.355 557.056 157.283 557.872C156.227 558.672 154.771 559.072 152.915 559.072C151.155 559.072 149.691 559.04 148.523 558.976ZM153.035 551.008H149.843V557.728C151.443 557.792 152.483 557.824 152.963 557.824C154.451 557.824 155.587 557.52 156.371 556.912C157.171 556.304 157.571 555.408 157.571 554.224C157.571 553.2 157.179 552.408 156.395 551.848C155.611 551.288 154.491 551.008 153.035 551.008ZM152.891 543.376C152.203 543.376 151.187 543.4 149.843 543.448V549.832H153.107C154.211 549.832 155.115 549.536 155.819 548.944C156.555 548.352 156.923 547.552 156.923 546.544C156.923 544.432 155.579 543.376 152.891 543.376ZM181.464 544.36L170.16 559H168.984V542.2H170.304V556.84L181.608 542.2H182.784V559H181.464V544.36ZM189.429 559H188.109V542.2H189.453L196.221 551.416L202.725 542.2H203.997V559H202.677V544.264L196.221 553.336H196.005L189.429 544.336V559ZM222.601 556.552L223.225 557.464C222.793 558.024 222.209 558.456 221.473 558.76C220.753 559.064 219.977 559.216 219.145 559.216C217.465 559.216 216.089 558.704 215.017 557.68C213.961 556.656 213.433 555.296 213.433 553.6C213.433 552.016 213.945 550.688 214.969 549.616C216.009 548.528 217.289 547.984 218.809 547.984C220.665 547.984 222.065 548.432 223.009 549.328L222.409 550.336C221.561 549.552 220.425 549.16 219.001 549.16C217.849 549.16 216.849 549.584 216.001 550.432C215.169 551.264 214.753 552.32 214.753 553.6C214.753 554.944 215.177 556.024 216.025 556.84C216.873 557.64 217.945 558.04 219.241 558.04C220.633 558.04 221.753 557.544 222.601 556.552ZM230.276 559.216C228.612 559.216 227.252 558.688 226.196 557.632C225.14 556.576 224.612 555.232 224.612 553.6C224.612 551.968 225.14 550.624 226.196 549.568C227.252 548.512 228.612 547.984 230.276 547.984C231.94 547.984 233.3 548.512 234.356 549.568C235.412 550.624 235.94 551.968 235.94 553.6C235.94 555.232 235.412 556.576 234.356 557.632C233.3 558.688 231.94 559.216 230.276 559.216ZM230.276 558.04C231.572 558.04 232.612 557.632 233.396 556.816C234.212 555.984 234.62 554.912 234.62 553.6C234.62 552.304 234.212 551.24 233.396 550.408C232.58 549.576 231.54 549.16 230.276 549.16C229.028 549.16 227.988 549.576 227.156 550.408C226.34 551.24 225.932 552.304 225.932 553.6C225.932 554.896 226.34 555.96 227.156 556.792C227.972 557.624 229.012 558.04 230.276 558.04ZM242.334 559.216C241.598 559.216 240.782 559.08 239.886 558.808C239.038 558.552 238.438 558.208 238.086 557.776L238.734 556.816C239.15 557.2 239.67 557.504 240.294 557.728C240.934 557.936 241.55 558.04 242.142 558.04C243.15 558.04 243.958 557.84 244.566 557.44C245.174 557.04 245.478 556.504 245.478 555.832C245.478 555.272 245.254 554.832 244.806 554.512C244.358 554.192 243.75 554.032 242.982 554.032H241.158V553H242.862C243.47 553 243.99 552.808 244.422 552.424C244.854 552.04 245.07 551.576 245.07 551.032C245.07 550.424 244.83 549.96 244.35 549.64C243.87 549.32 243.198 549.16 242.334 549.16C241.07 549.16 239.942 549.56 238.95 550.36L238.446 549.4C239.358 548.456 240.71 547.984 242.502 547.984C243.734 547.984 244.686 548.24 245.358 548.752C246.046 549.248 246.39 549.936 246.39 550.816C246.39 552.08 245.742 552.944 244.446 553.408V553.456C245.182 553.52 245.758 553.792 246.174 554.272C246.59 554.736 246.798 555.312 246.798 556C246.798 556.992 246.39 557.776 245.574 558.352C244.758 558.928 243.678 559.216 242.334 559.216ZM249.51 561.736H248.334V557.824H249.678C250.094 557.296 250.462 556.44 250.782 555.256C251.118 554.072 251.334 552.736 251.43 551.248L251.598 548.2H258.486V557.824H260.286V561.736H259.11V559H249.51V561.736ZM252.774 549.376L252.63 551.728C252.502 553.2 252.278 554.48 251.958 555.568C251.654 556.624 251.334 557.376 250.998 557.824H257.238V549.376H252.774ZM262.935 550L262.599 548.968C263.671 548.312 264.815 547.984 266.031 547.984C267.439 547.984 268.455 548.336 269.079 549.04C269.719 549.744 270.039 550.832 270.039 552.304V559H268.791V557.344C267.911 558.544 266.679 559.144 265.095 559.144C264.087 559.144 263.279 558.856 262.671 558.28C262.063 557.688 261.759 556.904 261.759 555.928C261.759 554.872 262.143 554.048 262.911 553.456C263.663 552.864 264.647 552.568 265.863 552.568C267.079 552.568 268.055 552.84 268.791 553.384C268.791 552.264 268.711 551.408 268.551 550.816C268.423 550.24 268.159 549.832 267.759 549.592C267.375 549.352 266.775 549.208 265.959 549.16C264.983 549.16 263.975 549.44 262.935 550ZM265.479 557.968C266.823 557.968 267.927 557.4 268.791 556.264V554.464C268.007 553.888 267.071 553.6 265.983 553.6C265.167 553.6 264.479 553.8 263.919 554.2C263.359 554.6 263.079 555.152 263.079 555.856C263.079 556.496 263.303 557.008 263.751 557.392C264.199 557.776 264.775 557.968 265.479 557.968ZM282.471 559H281.223V549.448H276.663L276.519 551.8C276.311 554.84 275.807 556.856 275.007 557.848C274.367 558.68 273.575 559.096 272.631 559.096L272.535 557.872C272.951 557.872 273.343 557.68 273.711 557.296C274.591 556.48 275.127 554.568 275.319 551.56L275.487 548.2H282.471V559ZM294.719 550L287.519 559H286.271V548.2H287.519V557.2L294.719 548.2H295.967V559H294.719V550ZM308.732 559.216C307.996 559.216 307.18 559.08 306.284 558.808C305.436 558.552 304.836 558.208 304.484 557.776L305.132 556.816C305.548 557.2 306.068 557.504 306.692 557.728C307.332 557.936 307.948 558.04 308.54 558.04C309.548 558.04 310.356 557.84 310.964 557.44C311.572 557.04 311.876 556.504 311.876 555.832C311.876 555.272 311.652 554.832 311.204 554.512C310.756 554.192 310.148 554.032 309.38 554.032H307.556V553H309.26C309.868 553 310.388 552.808 310.82 552.424C311.252 552.04 311.468 551.576 311.468 551.032C311.468 550.424 311.228 549.96 310.748 549.64C310.268 549.32 309.596 549.16 308.732 549.16C307.468 549.16 306.34 549.56 305.348 550.36L304.844 549.4C305.756 548.456 307.108 547.984 308.9 547.984C310.132 547.984 311.084 548.24 311.756 548.752C312.444 549.248 312.788 549.936 312.788 550.816C312.788 552.08 312.14 552.944 310.844 553.408V553.456C311.58 553.52 312.156 553.792 312.572 554.272C312.988 554.736 313.196 555.312 313.196 556C313.196 556.992 312.788 557.776 311.972 558.352C311.156 558.928 310.076 559.216 308.732 559.216ZM316.724 550L316.388 548.968C317.46 548.312 318.604 547.984 319.82 547.984C321.228 547.984 322.244 548.336 322.868 549.04C323.508 549.744 323.828 550.832 323.828 552.304V559H322.58V557.344C321.7 558.544 320.468 559.144 318.884 559.144C317.876 559.144 317.068 558.856 316.46 558.28C315.852 557.688 315.548 556.904 315.548 555.928C315.548 554.872 315.932 554.048 316.7 553.456C317.452 552.864 318.436 552.568 319.652 552.568C320.868 552.568 321.844 552.84 322.58 553.384C322.58 552.264 322.5 551.408 322.34 550.816C322.212 550.24 321.948 549.832 321.548 549.592C321.164 549.352 320.564 549.208 319.748 549.16C318.772 549.16 317.764 549.44 316.724 550ZM319.268 557.968C320.612 557.968 321.716 557.4 322.58 556.264V554.464C321.796 553.888 320.86 553.6 319.772 553.6C318.956 553.6 318.268 553.8 317.708 554.2C317.148 554.6 316.868 555.152 316.868 555.856C316.868 556.496 317.092 557.008 317.54 557.392C317.988 557.776 318.564 557.968 319.268 557.968ZM334.604 548.2H336.212L330.884 553.36L336.644 559H334.964L329.372 553.432L334.604 548.2ZM328.652 559H327.404V548.2H328.652V559ZM339.365 550L339.029 548.968C340.101 548.312 341.245 547.984 342.461 547.984C343.869 547.984 344.885 548.336 345.509 549.04C346.149 549.744 346.469 550.832 346.469 552.304V559H345.221V557.344C344.341 558.544 343.109 559.144 341.525 559.144C340.517 559.144 339.709 558.856 339.101 558.28C338.493 557.688 338.189 556.904 338.189 555.928C338.189 554.872 338.573 554.048 339.341 553.456C340.093 552.864 341.077 552.568 342.293 552.568C343.509 552.568 344.485 552.84 345.221 553.384C345.221 552.264 345.141 551.408 344.981 550.816C344.853 550.24 344.589 549.832 344.189 549.592C343.805 549.352 343.205 549.208 342.389 549.16C341.413 549.16 340.405 549.44 339.365 550ZM341.909 557.968C343.253 557.968 344.357 557.4 345.221 556.264V554.464C344.437 553.888 343.501 553.6 342.413 553.6C341.597 553.6 340.909 553.8 340.349 554.2C339.789 554.6 339.509 555.152 339.509 555.856C339.509 556.496 339.733 557.008 340.181 557.392C340.629 557.776 341.205 557.968 341.909 557.968ZM353.38 559.216C352.644 559.216 351.828 559.08 350.932 558.808C350.084 558.552 349.484 558.208 349.132 557.776L349.78 556.816C350.196 557.2 350.716 557.504 351.34 557.728C351.98 557.936 352.596 558.04 353.188 558.04C354.196 558.04 355.004 557.84 355.612 557.44C356.22 557.04 356.524 556.504 356.524 555.832C356.524 555.272 356.3 554.832 355.852 554.512C355.404 554.192 354.796 554.032 354.028 554.032H352.204V553H353.908C354.516 553 355.036 552.808 355.468 552.424C355.9 552.04 356.116 551.576 356.116 551.032C356.116 550.424 355.876 549.96 355.396 549.64C354.916 549.32 354.244 549.16 353.38 549.16C352.116 549.16 350.988 549.56 349.996 550.36L349.492 549.4C350.404 548.456 351.756 547.984 353.548 547.984C354.78 547.984 355.732 548.24 356.404 548.752C357.092 549.248 357.436 549.936 357.436 550.816C357.436 552.08 356.788 552.944 355.492 553.408V553.456C356.228 553.52 356.804 553.792 357.22 554.272C357.636 554.736 357.844 555.312 357.844 556C357.844 556.992 357.436 557.776 356.62 558.352C355.804 558.928 354.724 559.216 353.38 559.216Z" fill="#141414"/>
<rect x="1070" y="509" width="500" height="89" rx="8" fill="#F6F4F2"/>
<path d="M1169.74 560H1168.42V552.056H1157.93V560H1156.61V543.2H1157.93V550.808H1168.42V543.2H1169.74V560ZM1179.18 560.216C1177.52 560.216 1176.16 559.688 1175.1 558.632C1174.05 557.576 1173.52 556.232 1173.52 554.6C1173.52 552.968 1174.05 551.624 1175.1 550.568C1176.16 549.512 1177.52 548.984 1179.18 548.984C1180.85 548.984 1182.21 549.512 1183.26 550.568C1184.32 551.624 1184.85 552.968 1184.85 554.6C1184.85 556.232 1184.32 557.576 1183.26 558.632C1182.21 559.688 1180.85 560.216 1179.18 560.216ZM1179.18 559.04C1180.48 559.04 1181.52 558.632 1182.3 557.816C1183.12 556.984 1183.53 555.912 1183.53 554.6C1183.53 553.304 1183.12 552.24 1182.3 551.408C1181.49 550.576 1180.45 550.16 1179.18 550.16C1177.93 550.16 1176.89 550.576 1176.06 551.408C1175.25 552.24 1174.84 553.304 1174.84 554.6C1174.84 555.896 1175.25 556.96 1176.06 557.792C1176.88 558.624 1177.92 559.04 1179.18 559.04ZM1187.9 560V549.2C1188.43 549.2 1188.94 549.192 1189.44 549.176C1190.46 549.144 1191.11 549.128 1191.38 549.128C1194.36 549.128 1195.85 550.056 1195.85 551.912C1195.85 552.536 1195.65 553.08 1195.25 553.544C1194.86 553.992 1194.34 554.272 1193.66 554.384V554.432C1195.39 554.688 1196.26 555.552 1196.26 557.024C1196.26 559.056 1194.65 560.072 1191.43 560.072C1191.22 560.072 1190.59 560.056 1189.54 560.024C1189.01 560.008 1188.46 560 1187.9 560ZM1191.74 555.032H1189.15V558.848C1190.4 558.88 1191.21 558.896 1191.58 558.896C1193.82 558.896 1194.94 558.232 1194.94 556.904C1194.94 555.656 1193.87 555.032 1191.74 555.032ZM1191.53 550.304C1191 550.304 1190.21 550.32 1189.15 550.352V554H1192.01C1192.79 554 1193.41 553.832 1193.86 553.496C1194.3 553.144 1194.53 552.68 1194.53 552.104C1194.53 550.904 1193.53 550.304 1191.53 550.304ZM1202.43 560H1199.46V549.2H1200.71V552.824H1202.58C1205.43 552.824 1206.85 554.008 1206.85 556.376C1206.85 557.496 1206.49 558.384 1205.77 559.04C1205.05 559.68 1203.94 560 1202.43 560ZM1202.36 554H1200.71V558.824H1202.34C1203.47 558.824 1204.29 558.624 1204.79 558.224C1205.28 557.824 1205.53 557.216 1205.53 556.4C1205.53 554.8 1204.47 554 1202.36 554ZM1210.57 560H1209.32V549.2H1210.57V560ZM1222.81 551L1215.61 560H1214.36V549.2H1215.61V558.2L1222.81 549.2H1224.06V560H1222.81V551ZM1216.02 543.584H1217.15C1217.15 544.176 1217.36 544.68 1217.77 545.096C1218.19 545.496 1218.72 545.696 1219.38 545.696C1220 545.696 1220.52 545.496 1220.92 545.096C1221.32 544.68 1221.52 544.176 1221.52 543.584H1222.64C1222.64 544.464 1222.34 545.2 1221.73 545.792C1221.12 546.368 1220.34 546.656 1219.38 546.656C1218.36 546.656 1217.54 546.376 1216.93 545.816C1216.32 545.24 1216.02 544.496 1216.02 543.584ZM1241.39 549.2H1242.8L1238.43 560C1237.65 561.904 1236.97 563.168 1236.39 563.792C1235.82 564.464 1235.15 564.8 1234.38 564.8C1233.79 564.8 1233.17 564.616 1232.53 564.248L1232.94 563.288C1233.43 563.528 1233.86 563.648 1234.21 563.648C1234.75 563.648 1235.24 563.408 1235.67 562.928C1236.11 562.464 1236.55 561.68 1237.02 560.576L1237.26 560L1231.93 549.2H1233.42L1237.11 556.832L1237.88 558.512C1237.9 558.448 1238.1 557.872 1238.48 556.784L1241.39 549.2ZM1246.29 564.8H1245.04V549.2H1246.29V550.64C1246.72 550.16 1247.3 549.768 1248.02 549.464C1248.76 549.144 1249.5 548.984 1250.25 548.984C1251.79 548.984 1253.01 549.488 1253.92 550.496C1254.84 551.504 1255.29 552.816 1255.29 554.432C1255.29 556.112 1254.78 557.496 1253.76 558.584C1252.72 559.672 1251.38 560.216 1249.75 560.216C1248.29 560.216 1247.14 559.912 1246.29 559.304V564.8ZM1249.92 550.16C1249.21 550.16 1248.52 550.32 1247.85 550.64C1247.2 550.96 1246.68 551.36 1246.29 551.84V558.056C1247.28 558.712 1248.4 559.04 1249.65 559.04C1250.93 559.04 1251.97 558.616 1252.77 557.768C1253.57 556.92 1253.97 555.832 1253.97 554.504C1253.97 553.176 1253.61 552.12 1252.89 551.336C1252.17 550.552 1251.18 550.16 1249.92 550.16ZM1263.23 560.216C1261.57 560.216 1260.21 559.688 1259.15 558.632C1258.09 557.576 1257.57 556.232 1257.57 554.6C1257.57 552.968 1258.09 551.624 1259.15 550.568C1260.21 549.512 1261.57 548.984 1263.23 548.984C1264.89 548.984 1266.25 549.512 1267.31 550.568C1268.37 551.624 1268.89 552.968 1268.89 554.6C1268.89 556.232 1268.37 557.576 1267.31 558.632C1266.25 559.688 1264.89 560.216 1263.23 560.216ZM1263.23 559.04C1264.53 559.04 1265.57 558.632 1266.35 557.816C1267.17 556.984 1267.57 555.912 1267.57 554.6C1267.57 553.304 1267.17 552.24 1266.35 551.408C1265.53 550.576 1264.49 550.16 1263.23 550.16C1261.98 550.16 1260.94 550.576 1260.11 551.408C1259.29 552.24 1258.89 553.304 1258.89 554.6C1258.89 555.896 1259.29 556.96 1260.11 557.792C1260.93 558.624 1261.97 559.04 1263.23 559.04ZM1271.95 560V549.2C1272.48 549.2 1272.99 549.192 1273.49 549.176C1274.51 549.144 1275.16 549.128 1275.43 549.128C1278.41 549.128 1279.89 550.056 1279.89 551.912C1279.89 552.536 1279.69 553.08 1279.29 553.544C1278.91 553.992 1278.38 554.272 1277.71 554.384V554.432C1279.44 554.688 1280.3 555.552 1280.3 557.024C1280.3 559.056 1278.69 560.072 1275.48 560.072C1275.27 560.072 1274.64 560.056 1273.58 560.024C1273.05 560.008 1272.51 560 1271.95 560ZM1275.79 555.032H1273.2V558.848C1274.45 558.88 1275.25 558.896 1275.62 558.896C1277.86 558.896 1278.98 558.232 1278.98 556.904C1278.98 555.656 1277.92 555.032 1275.79 555.032ZM1275.57 550.304C1275.05 550.304 1274.25 550.32 1273.2 550.352V554H1276.05C1276.84 554 1277.45 553.832 1277.9 553.496C1278.35 553.144 1278.57 552.68 1278.57 552.104C1278.57 550.904 1277.57 550.304 1275.57 550.304ZM1292.05 557.72L1292.46 558.68C1291.48 559.704 1290.15 560.216 1288.47 560.216C1286.75 560.216 1285.36 559.704 1284.32 558.68C1283.27 557.656 1282.74 556.296 1282.74 554.6C1282.74 552.968 1283.22 551.624 1284.18 550.568C1285.15 549.512 1286.5 548.984 1288.21 548.984C1289.6 548.984 1290.77 549.432 1291.71 550.328C1292.64 551.208 1293.11 552.384 1293.11 553.856C1293.11 554.24 1293.08 554.576 1293.03 554.864H1284.13C1284.18 556.16 1284.6 557.184 1285.4 557.936C1286.2 558.672 1287.25 559.04 1288.55 559.04C1290.05 559.04 1291.22 558.6 1292.05 557.72ZM1288.09 550.16C1286.94 550.16 1286 550.496 1285.28 551.168C1284.58 551.84 1284.17 552.728 1284.06 553.832H1291.83C1291.82 552.696 1291.47 551.8 1290.8 551.144C1290.13 550.488 1289.23 550.16 1288.09 550.16ZM1305.6 560H1304.35V555.104H1297.34V560H1296.09V549.2H1297.34V553.928H1304.35V549.2H1305.6V560ZM1312.55 560H1309.38V549.2H1310.63V552.824H1312.72C1315.56 552.824 1316.99 554.008 1316.99 556.376C1316.99 557.496 1316.62 558.384 1315.88 559.04C1315.16 559.68 1314.05 560 1312.55 560ZM1312.5 554H1310.63V558.824H1312.48C1313.6 558.824 1314.4 558.624 1314.9 558.224C1315.41 557.824 1315.67 557.216 1315.67 556.4C1315.67 554.8 1314.61 554 1312.5 554ZM1333.91 557.552L1334.53 558.464C1334.1 559.024 1333.51 559.456 1332.78 559.76C1332.06 560.064 1331.28 560.216 1330.45 560.216C1328.77 560.216 1327.39 559.704 1326.32 558.68C1325.27 557.656 1324.74 556.296 1324.74 554.6C1324.74 553.016 1325.25 551.688 1326.27 550.616C1327.31 549.528 1328.59 548.984 1330.11 548.984C1331.97 548.984 1333.37 549.432 1334.31 550.328L1333.71 551.336C1332.87 550.552 1331.73 550.16 1330.31 550.16C1329.15 550.16 1328.15 550.584 1327.31 551.432C1326.47 552.264 1326.06 553.32 1326.06 554.6C1326.06 555.944 1326.48 557.024 1327.33 557.84C1328.18 558.64 1329.25 559.04 1330.55 559.04C1331.94 559.04 1333.06 558.544 1333.91 557.552ZM1344.47 549.2H1346.08L1340.75 554.36L1346.51 560H1344.83L1339.24 554.432L1344.47 549.2ZM1338.52 560H1337.27V549.2H1338.52V560ZM1357.34 551L1350.14 560H1348.9V549.2H1350.14V558.2L1357.34 549.2H1358.59V560H1357.34V551ZM1361.89 562.736H1360.72V558.824H1362.06C1362.48 558.296 1362.84 557.44 1363.16 556.256C1363.5 555.072 1363.72 553.736 1363.81 552.248L1363.98 549.2H1370.87V558.824H1372.67V562.736H1371.49V560H1361.89V562.736ZM1365.16 550.376L1365.01 552.728C1364.88 554.2 1364.66 555.48 1364.34 556.568C1364.04 557.624 1363.72 558.376 1363.38 558.824H1369.62V550.376H1365.16ZM1382.18 549.2H1383.79L1378.46 554.36L1384.22 560H1382.54L1376.95 554.432L1382.18 549.2ZM1376.23 560H1374.98V549.2H1376.23V560ZM1395.05 551L1387.85 560H1386.61V549.2H1387.85V558.2L1395.05 549.2H1396.3V560H1395.05V551ZM1414.18 551L1406.98 560H1405.73V549.2H1406.98V558.2L1414.18 549.2H1415.43V560H1414.18V551ZM1422.54 560.216C1421.81 560.216 1420.99 560.08 1420.1 559.808C1419.25 559.552 1418.65 559.208 1418.3 558.776L1418.94 557.816C1419.36 558.2 1419.88 558.504 1420.5 558.728C1421.14 558.936 1421.76 559.04 1422.35 559.04C1423.36 559.04 1424.17 558.84 1424.78 558.44C1425.38 558.04 1425.69 557.504 1425.69 556.832C1425.69 556.272 1425.46 555.832 1425.02 555.512C1424.57 555.192 1423.96 555.032 1423.19 555.032H1421.37V554H1423.07C1423.68 554 1424.2 553.808 1424.63 553.424C1425.06 553.04 1425.28 552.576 1425.28 552.032C1425.28 551.424 1425.04 550.96 1424.56 550.64C1424.08 550.32 1423.41 550.16 1422.54 550.16C1421.28 550.16 1420.15 550.56 1419.16 551.36L1418.66 550.4C1419.57 549.456 1420.92 548.984 1422.71 548.984C1423.94 548.984 1424.9 549.24 1425.57 549.752C1426.26 550.248 1426.6 550.936 1426.6 551.816C1426.6 553.08 1425.95 553.944 1424.66 554.408V554.456C1425.39 554.52 1425.97 554.792 1426.38 555.272C1426.8 555.736 1427.01 556.312 1427.01 557C1427.01 557.992 1426.6 558.776 1425.78 559.352C1424.97 559.928 1423.89 560.216 1422.54 560.216ZM1448.35 557.384L1448.88 558.368C1448.31 558.944 1447.55 559.4 1446.6 559.736C1445.67 560.056 1444.7 560.216 1443.67 560.216C1441.18 560.216 1439.15 559.432 1437.58 557.864C1436.03 556.312 1435.25 554.224 1435.25 551.6C1435.25 549.12 1436 547.072 1437.51 545.456C1439.01 543.808 1441 542.984 1443.48 542.984C1445.61 542.984 1447.31 543.512 1448.57 544.568L1447.95 545.552C1446.81 544.672 1445.33 544.232 1443.51 544.232C1441.46 544.232 1439.8 544.928 1438.54 546.32C1437.27 547.68 1436.64 549.44 1436.64 551.6C1436.64 553.792 1437.3 555.568 1438.61 556.928C1439.92 558.288 1441.64 558.968 1443.77 558.968C1445.53 558.968 1447.06 558.44 1448.35 557.384ZM1453.69 552.944V560H1452.37V543.2C1453.09 543.2 1453.82 543.192 1454.55 543.176C1455.29 543.16 1455.9 543.152 1456.4 543.152C1460.32 543.152 1462.28 544.768 1462.28 548C1462.28 549.152 1461.9 550.168 1461.15 551.048C1460.4 551.896 1459.45 552.44 1458.3 552.68L1464.18 560H1462.54L1456.95 552.944H1453.69ZM1456.33 544.4C1455.98 544.4 1455.1 544.416 1453.69 544.448V551.696H1456.59C1457.73 551.696 1458.72 551.352 1459.57 550.664C1460.45 549.976 1460.89 549.088 1460.89 548C1460.89 545.6 1459.37 544.4 1456.33 544.4ZM1468.83 560H1467.51V543.2H1468.85L1475.62 552.416L1482.12 543.2H1483.4V560H1482.08V545.264L1475.62 554.336H1475.4L1468.83 545.336V560Z" fill="#141414"/>
<rect y="175" width="504" height="89" rx="8" fill="#F6F4F2"/>
<path d="M144.59 229.216H143.342V224.752H145.142C145.686 224.048 146.262 222.68 146.87 220.648C147.494 218.52 147.886 215.824 148.046 212.56L148.214 209.2H157.67V224.752H159.95V229.216H158.702V226H144.59V229.216ZM149.486 210.448L149.294 213.52C149.086 216.56 148.702 219.056 148.142 221.008C147.598 222.928 147.086 224.176 146.606 224.752H156.35V210.448H149.486ZM163.002 217L162.666 215.968C163.738 215.312 164.882 214.984 166.098 214.984C167.506 214.984 168.522 215.336 169.146 216.04C169.786 216.744 170.106 217.832 170.106 219.304V226H168.858V224.344C167.978 225.544 166.746 226.144 165.162 226.144C164.154 226.144 163.346 225.856 162.738 225.28C162.13 224.688 161.826 223.904 161.826 222.928C161.826 221.872 162.21 221.048 162.978 220.456C163.73 219.864 164.714 219.568 165.93 219.568C167.146 219.568 168.122 219.84 168.858 220.384C168.858 219.264 168.778 218.408 168.618 217.816C168.49 217.24 168.226 216.832 167.826 216.592C167.442 216.352 166.842 216.208 166.026 216.16C165.05 216.16 164.042 216.44 163.002 217ZM165.546 224.968C166.89 224.968 167.994 224.4 168.858 223.264V221.464C168.074 220.888 167.138 220.6 166.05 220.6C165.234 220.6 164.546 220.8 163.986 221.2C163.426 221.6 163.146 222.152 163.146 222.856C163.146 223.496 163.37 224.008 163.818 224.392C164.266 224.776 164.842 224.968 165.546 224.968ZM183.185 226H181.937V221.104H174.929V226H173.681V215.2H174.929V219.928H181.937V215.2H183.185V226ZM196.474 226H195.226V221.104H188.218V226H186.97V215.2H188.218V219.928H195.226V215.2H196.474V226ZM203.235 226H200.259V215.2H201.507V218.824H203.379C206.227 218.824 207.651 220.008 207.651 222.376C207.651 223.496 207.291 224.384 206.571 225.04C205.851 225.68 204.739 226 203.235 226ZM203.163 220H201.507V224.824H203.139C204.275 224.824 205.091 224.624 205.587 224.224C206.083 223.824 206.331 223.216 206.331 222.4C206.331 220.8 205.275 220 203.163 220ZM211.371 226H210.123V215.2H211.371V226ZM223.71 223.72L224.118 224.68C223.142 225.704 221.814 226.216 220.134 226.216C218.406 226.216 217.022 225.704 215.982 224.68C214.926 223.656 214.398 222.296 214.398 220.6C214.398 218.968 214.878 217.624 215.838 216.568C216.814 215.512 218.158 214.984 219.87 214.984C221.262 214.984 222.43 215.432 223.374 216.328C224.302 217.208 224.766 218.384 224.766 219.856C224.766 220.24 224.742 220.576 224.694 220.864H215.79C215.838 222.16 216.262 223.184 217.062 223.936C217.862 224.672 218.91 225.04 220.206 225.04C221.71 225.04 222.878 224.6 223.71 223.72ZM219.75 216.16C218.598 216.16 217.662 216.496 216.942 217.168C216.238 217.84 215.83 218.728 215.718 219.832H223.494C223.478 218.696 223.134 217.8 222.462 217.144C221.79 216.488 220.886 216.16 219.75 216.16ZM241.296 215.2H242.712L238.344 226C237.56 227.904 236.88 229.168 236.304 229.792C235.728 230.464 235.056 230.8 234.288 230.8C233.696 230.8 233.08 230.616 232.44 230.248L232.848 229.288C233.344 229.528 233.768 229.648 234.12 229.648C234.664 229.648 235.152 229.408 235.584 228.928C236.016 228.464 236.464 227.68 236.928 226.576L237.168 226L231.84 215.2H233.328L237.024 222.832L237.792 224.512C237.808 224.448 238.008 223.872 238.392 222.784L241.296 215.2ZM258.059 226H244.955V215.2H246.203V224.824H250.883V215.2H252.131V224.824H256.811V215.2H258.059V226ZM270.732 226H269.484V216.448H264.924L264.78 218.8C264.572 221.84 264.068 223.856 263.268 224.848C262.628 225.68 261.836 226.096 260.892 226.096L260.796 224.872C261.212 224.872 261.604 224.68 261.972 224.296C262.852 223.48 263.388 221.568 263.58 218.56L263.748 215.2H270.732V226ZM282.981 217L275.781 226H274.533V215.2H275.781V224.2L282.981 215.2H284.229V226H282.981V217ZM293.658 226V215.2C294.186 215.2 294.698 215.192 295.194 215.176C296.218 215.144 296.866 215.128 297.138 215.128C300.114 215.128 301.602 216.056 301.602 217.912C301.602 218.536 301.402 219.08 301.002 219.544C300.618 219.992 300.09 220.272 299.418 220.384V220.432C301.146 220.688 302.01 221.552 302.01 223.024C302.01 225.056 300.402 226.072 297.186 226.072C296.978 226.072 296.346 226.056 295.29 226.024C294.762 226.008 294.218 226 293.658 226ZM297.498 221.032H294.906V224.848C296.154 224.88 296.962 224.896 297.33 224.896C299.57 224.896 300.69 224.232 300.69 222.904C300.69 221.656 299.626 221.032 297.498 221.032ZM297.282 216.304C296.754 216.304 295.962 216.32 294.906 216.352V220H297.762C298.546 220 299.162 219.832 299.61 219.496C300.058 219.144 300.282 218.68 300.282 218.104C300.282 216.904 299.282 216.304 297.282 216.304ZM323.365 223.384L323.893 224.368C323.317 224.944 322.557 225.4 321.613 225.736C320.685 226.056 319.709 226.216 318.685 226.216C316.189 226.216 314.157 225.432 312.589 223.864C311.037 222.312 310.261 220.224 310.261 217.6C310.261 215.12 311.013 213.072 312.517 211.456C314.021 209.808 316.013 208.984 318.493 208.984C320.621 208.984 322.317 209.512 323.581 210.568L322.957 211.552C321.821 210.672 320.341 210.232 318.517 210.232C316.469 210.232 314.813 210.928 313.549 212.32C312.285 213.68 311.653 215.44 311.653 217.6C311.653 219.792 312.309 221.568 313.621 222.928C314.933 224.288 316.653 224.968 318.781 224.968C320.541 224.968 322.069 224.44 323.365 223.384ZM328.699 218.944V226H327.379V209.2C328.099 209.2 328.827 209.192 329.563 209.176C330.299 209.16 330.915 209.152 331.411 209.152C335.331 209.152 337.291 210.768 337.291 214C337.291 215.152 336.915 216.168 336.163 217.048C335.411 217.896 334.459 218.44 333.307 218.68L339.187 226H337.555L331.963 218.944H328.699ZM331.339 210.4C330.987 210.4 330.107 210.416 328.699 210.448V217.696H331.603C332.739 217.696 333.731 217.352 334.579 216.664C335.459 215.976 335.899 215.088 335.899 214C335.899 211.6 334.379 210.4 331.339 210.4ZM343.839 226H342.519V209.2H343.863L350.631 218.416L357.135 209.2H358.407V226H357.087V211.264L350.631 220.336H350.415L343.839 211.336V226Z" fill="#141414"/>
<rect y="345" width="504" height="89" rx="8" fill="#F6F4F2"/>
<path d="M108.748 393.384L109.276 394.368C108.7 394.944 107.94 395.4 106.996 395.736C106.068 396.056 105.092 396.216 104.068 396.216C101.572 396.216 99.5397 395.432 97.9717 393.864C96.4197 392.312 95.6437 390.224 95.6437 387.6C95.6437 385.12 96.3957 383.072 97.8997 381.456C99.4037 379.808 101.396 378.984 103.876 378.984C106.004 378.984 107.7 379.512 108.964 380.568L108.34 381.552C107.204 380.672 105.724 380.232 103.9 380.232C101.852 380.232 100.196 380.928 98.9317 382.32C97.6677 383.68 97.0357 385.44 97.0357 387.6C97.0357 389.792 97.6917 391.568 99.0037 392.928C100.316 394.288 102.036 394.968 104.164 394.968C105.924 394.968 107.452 394.44 108.748 393.384ZM114.082 388.944V396H112.762V379.2C113.482 379.2 114.21 379.192 114.946 379.176C115.682 379.16 116.298 379.152 116.794 379.152C120.714 379.152 122.674 380.768 122.674 384C122.674 385.152 122.298 386.168 121.546 387.048C120.794 387.896 119.842 388.44 118.69 388.68L124.57 396H122.938L117.346 388.944H114.082ZM116.722 380.4C116.37 380.4 115.49 380.416 114.082 380.448V387.696H116.986C118.122 387.696 119.114 387.352 119.962 386.664C120.842 385.976 121.282 385.088 121.282 384C121.282 381.6 119.762 380.4 116.722 380.4ZM129.222 396H127.902V379.2H129.246L136.014 388.416L142.518 379.2H143.79V396H142.47V381.264L136.014 390.336H135.798L129.222 381.336V396ZM153.994 396V385.2C154.522 385.2 155.034 385.192 155.53 385.176C156.554 385.144 157.202 385.128 157.474 385.128C160.45 385.128 161.938 386.056 161.938 387.912C161.938 388.536 161.738 389.08 161.338 389.544C160.954 389.992 160.426 390.272 159.754 390.384V390.432C161.482 390.688 162.346 391.552 162.346 393.024C162.346 395.056 160.738 396.072 157.522 396.072C157.314 396.072 156.682 396.056 155.626 396.024C155.098 396.008 154.554 396 153.994 396ZM157.834 391.032H155.242V394.848C156.49 394.88 157.298 394.896 157.666 394.896C159.906 394.896 161.026 394.232 161.026 392.904C161.026 391.656 159.962 391.032 157.834 391.032ZM157.618 386.304C157.09 386.304 156.298 386.32 155.242 386.352V390H158.098C158.882 390 159.498 389.832 159.946 389.496C160.394 389.144 160.618 388.68 160.618 388.104C160.618 386.904 159.618 386.304 157.618 386.304ZM174.092 393.72L174.5 394.68C173.524 395.704 172.196 396.216 170.516 396.216C168.788 396.216 167.404 395.704 166.364 394.68C165.308 393.656 164.78 392.296 164.78 390.6C164.78 388.968 165.26 387.624 166.22 386.568C167.196 385.512 168.54 384.984 170.252 384.984C171.644 384.984 172.812 385.432 173.756 386.328C174.684 387.208 175.148 388.384 175.148 389.856C175.148 390.24 175.124 390.576 175.076 390.864H166.172C166.22 392.16 166.644 393.184 167.444 393.936C168.244 394.672 169.292 395.04 170.588 395.04C172.092 395.04 173.26 394.6 174.092 393.72ZM170.132 386.16C168.98 386.16 168.044 386.496 167.324 387.168C166.62 387.84 166.212 388.728 166.1 389.832H173.876C173.86 388.696 173.516 387.8 172.844 387.144C172.172 386.488 171.268 386.16 170.132 386.16ZM179.382 400.8H178.134V385.2H179.382V386.64C179.814 386.16 180.39 385.768 181.11 385.464C181.846 385.144 182.59 384.984 183.342 384.984C184.878 384.984 186.102 385.488 187.014 386.496C187.926 387.504 188.382 388.816 188.382 390.432C188.382 392.112 187.87 393.496 186.846 394.584C185.806 395.672 184.47 396.216 182.838 396.216C181.382 396.216 180.23 395.912 179.382 395.304V400.8ZM183.006 386.16C182.302 386.16 181.614 386.32 180.942 386.64C180.286 386.96 179.766 387.36 179.382 387.84V394.056C180.374 394.712 181.494 395.04 182.742 395.04C184.022 395.04 185.062 394.616 185.862 393.768C186.662 392.92 187.062 391.832 187.062 390.504C187.062 389.176 186.702 388.12 185.982 387.336C185.262 386.552 184.27 386.16 183.006 386.16ZM200.927 396H199.679V391.104H192.671V396H191.423V385.2H192.671V389.928H199.679V385.2H200.927V396ZM212.608 385.2H214.024L209.656 396C208.872 397.904 208.192 399.168 207.616 399.792C207.04 400.464 206.368 400.8 205.6 400.8C205.008 400.8 204.392 400.616 203.752 400.248L204.16 399.288C204.656 399.528 205.08 399.648 205.432 399.648C205.976 399.648 206.464 399.408 206.896 398.928C207.328 398.464 207.776 397.68 208.24 396.576L208.48 396L203.152 385.2H204.64L208.336 392.832L209.104 394.512C209.12 394.448 209.32 393.872 209.704 392.784L212.608 385.2ZM224.49 396H223.242V386.448H218.682L218.538 388.8C218.33 391.84 217.826 393.856 217.026 394.848C216.386 395.68 215.594 396.096 214.65 396.096L214.554 394.872C214.97 394.872 215.362 394.68 215.73 394.296C216.61 393.48 217.146 391.568 217.338 388.56L217.506 385.2H224.49V396ZM228.627 387L228.291 385.968C229.363 385.312 230.507 384.984 231.723 384.984C233.131 384.984 234.147 385.336 234.771 386.04C235.411 386.744 235.731 387.832 235.731 389.304V396H234.483V394.344C233.603 395.544 232.371 396.144 230.787 396.144C229.779 396.144 228.971 395.856 228.363 395.28C227.755 394.688 227.451 393.904 227.451 392.928C227.451 391.872 227.835 391.048 228.603 390.456C229.355 389.864 230.339 389.568 231.555 389.568C232.771 389.568 233.747 389.84 234.483 390.384C234.483 389.264 234.403 388.408 234.243 387.816C234.115 387.24 233.851 386.832 233.451 386.592C233.067 386.352 232.467 386.208 231.651 386.16C230.675 386.16 229.667 386.44 228.627 387ZM231.171 394.968C232.515 394.968 233.619 394.4 234.483 393.264V391.464C233.699 390.888 232.763 390.6 231.675 390.6C230.859 390.6 230.171 390.8 229.611 391.2C229.051 391.6 228.771 392.152 228.771 392.856C228.771 393.496 228.995 394.008 229.443 394.392C229.891 394.776 230.467 394.968 231.171 394.968ZM252.851 385.2H254.267L249.899 396C249.115 397.904 248.435 399.168 247.859 399.792C247.283 400.464 246.611 400.8 245.843 400.8C245.251 400.8 244.635 400.616 243.995 400.248L244.403 399.288C244.899 399.528 245.323 399.648 245.675 399.648C246.219 399.648 246.707 399.408 247.139 398.928C247.571 398.464 248.019 397.68 248.483 396.576L248.723 396L243.395 385.2H244.883L248.579 392.832L249.347 394.512C249.363 394.448 249.563 393.872 249.947 392.784L252.851 385.2ZM257.757 400.8H256.509V385.2H257.757V386.64C258.189 386.16 258.765 385.768 259.485 385.464C260.221 385.144 260.965 384.984 261.717 384.984C263.253 384.984 264.477 385.488 265.389 386.496C266.301 387.504 266.757 388.816 266.757 390.432C266.757 392.112 266.245 393.496 265.221 394.584C264.181 395.672 262.845 396.216 261.213 396.216C259.757 396.216 258.605 395.912 257.757 395.304V400.8ZM261.381 386.16C260.677 386.16 259.989 386.32 259.317 386.64C258.661 386.96 258.141 387.36 257.757 387.84V394.056C258.749 394.712 259.869 395.04 261.117 395.04C262.397 395.04 263.437 394.616 264.237 393.768C265.037 392.92 265.437 391.832 265.437 390.504C265.437 389.176 265.077 388.12 264.357 387.336C263.637 386.552 262.645 386.16 261.381 386.16ZM274.694 396.216C273.03 396.216 271.67 395.688 270.614 394.632C269.558 393.576 269.03 392.232 269.03 390.6C269.03 388.968 269.558 387.624 270.614 386.568C271.67 385.512 273.03 384.984 274.694 384.984C276.358 384.984 277.718 385.512 278.774 386.568C279.83 387.624 280.358 388.968 280.358 390.6C280.358 392.232 279.83 393.576 278.774 394.632C277.718 395.688 276.358 396.216 274.694 396.216ZM274.694 395.04C275.99 395.04 277.03 394.632 277.814 393.816C278.63 392.984 279.038 391.912 279.038 390.6C279.038 389.304 278.63 388.24 277.814 387.408C276.998 386.576 275.958 386.16 274.694 386.16C273.446 386.16 272.406 386.576 271.574 387.408C270.758 388.24 270.35 389.304 270.35 390.6C270.35 391.896 270.758 392.96 271.574 393.792C272.39 394.624 273.43 395.04 274.694 395.04ZM283.416 396V385.2C283.944 385.2 284.456 385.192 284.952 385.176C285.976 385.144 286.624 385.128 286.896 385.128C289.872 385.128 291.36 386.056 291.36 387.912C291.36 388.536 291.16 389.08 290.76 389.544C290.376 389.992 289.848 390.272 289.176 390.384V390.432C290.904 390.688 291.768 391.552 291.768 393.024C291.768 395.056 290.16 396.072 286.944 396.072C286.736 396.072 286.104 396.056 285.048 396.024C284.52 396.008 283.976 396 283.416 396ZM287.256 391.032H284.664V394.848C285.912 394.88 286.72 394.896 287.088 394.896C289.328 394.896 290.448 394.232 290.448 392.904C290.448 391.656 289.384 391.032 287.256 391.032ZM287.04 386.304C286.512 386.304 285.72 386.32 284.664 386.352V390H287.52C288.304 390 288.92 389.832 289.368 389.496C289.816 389.144 290.04 388.68 290.04 388.104C290.04 386.904 289.04 386.304 287.04 386.304ZM303.514 393.72L303.922 394.68C302.946 395.704 301.618 396.216 299.938 396.216C298.21 396.216 296.826 395.704 295.786 394.68C294.73 393.656 294.202 392.296 294.202 390.6C294.202 388.968 294.682 387.624 295.642 386.568C296.618 385.512 297.962 384.984 299.674 384.984C301.066 384.984 302.234 385.432 303.178 386.328C304.106 387.208 304.57 388.384 304.57 389.856C304.57 390.24 304.546 390.576 304.498 390.864H295.594C295.642 392.16 296.066 393.184 296.866 393.936C297.666 394.672 298.714 395.04 300.01 395.04C301.514 395.04 302.682 394.6 303.514 393.72ZM299.554 386.16C298.402 386.16 297.466 386.496 296.746 387.168C296.042 387.84 295.634 388.728 295.522 389.832H303.298C303.282 388.696 302.938 387.8 302.266 387.144C301.594 386.488 300.69 386.16 299.554 386.16ZM317.06 396H315.812V391.104H308.804V396H307.556V385.2H308.804V389.928H315.812V385.2H317.06V396ZM324.013 396H320.845V385.2H322.093V388.824H324.181C327.029 388.824 328.453 390.008 328.453 392.376C328.453 393.496 328.085 394.384 327.349 395.04C326.629 395.68 325.517 396 324.013 396ZM323.965 390H322.093V394.824H323.941C325.061 394.824 325.869 394.624 326.365 394.224C326.877 393.824 327.133 393.216 327.133 392.4C327.133 390.8 326.077 390 323.965 390ZM345.37 393.552L345.994 394.464C345.562 395.024 344.978 395.456 344.242 395.76C343.522 396.064 342.746 396.216 341.914 396.216C340.234 396.216 338.858 395.704 337.786 394.68C336.73 393.656 336.202 392.296 336.202 390.6C336.202 389.016 336.714 387.688 337.738 386.616C338.778 385.528 340.058 384.984 341.578 384.984C343.434 384.984 344.834 385.432 345.778 386.328L345.178 387.336C344.33 386.552 343.194 386.16 341.77 386.16C340.618 386.16 339.618 386.584 338.77 387.432C337.938 388.264 337.522 389.32 337.522 390.6C337.522 391.944 337.946 393.024 338.794 393.84C339.642 394.64 340.714 395.04 342.01 395.04C343.402 395.04 344.522 394.544 345.37 393.552ZM355.936 385.2H357.544L352.216 390.36L357.976 396H356.296L350.704 390.432L355.936 385.2ZM349.984 396H348.736V385.2H349.984V396ZM368.809 387L361.609 396H360.361V385.2H361.609V394.2L368.809 385.2H370.057V396H368.809V387ZM373.357 398.736H372.181V394.824H373.525C373.941 394.296 374.309 393.44 374.629 392.256C374.965 391.072 375.181 389.736 375.277 388.248L375.445 385.2H382.333V394.824H384.133V398.736H382.957V396H373.357V398.736ZM376.621 386.376L376.477 388.728C376.349 390.2 376.125 391.48 375.805 392.568C375.501 393.624 375.181 394.376 374.845 394.824H381.085V386.376H376.621ZM393.647 385.2H395.255L389.927 390.36L395.687 396H394.007L388.415 390.432L393.647 385.2ZM387.695 396H386.447V385.2H387.695V396ZM406.52 387L399.32 396H398.072V385.2H399.32V394.2L406.52 385.2H407.768V396H406.52V387Z" fill="#141414"/>
<rect x="536" y="509" width="499" height="89" rx="8" fill="#F6F4F2"/>
<path d="M600.166 557.384L600.694 558.368C600.118 558.944 599.358 559.4 598.414 559.736C597.486 560.056 596.51 560.216 595.486 560.216C592.99 560.216 590.958 559.432 589.39 557.864C587.838 556.312 587.062 554.224 587.062 551.6C587.062 549.12 587.814 547.072 589.318 545.456C590.822 543.808 592.814 542.984 595.294 542.984C597.422 542.984 599.118 543.512 600.382 544.568L599.758 545.552C598.622 544.672 597.142 544.232 595.318 544.232C593.27 544.232 591.614 544.928 590.35 546.32C589.086 547.68 588.454 549.44 588.454 551.6C588.454 553.792 589.11 555.568 590.422 556.928C591.734 558.288 593.454 558.968 595.582 558.968C597.342 558.968 598.87 558.44 600.166 557.384ZM610.581 549.2H611.997L607.629 560C606.845 561.904 606.165 563.168 605.589 563.792C605.013 564.464 604.341 564.8 603.573 564.8C602.981 564.8 602.365 564.616 601.725 564.248L602.133 563.288C602.629 563.528 603.053 563.648 603.405 563.648C603.949 563.648 604.437 563.408 604.869 562.928C605.301 562.464 605.749 561.68 606.213 560.576L606.453 560L601.125 549.2H602.613L606.309 556.832L607.077 558.512C607.093 558.448 607.293 557.872 607.677 556.784L610.581 549.2ZM615.488 560H614.24V549.2H615.416L619.904 555.224L624.224 549.2H625.352V560H624.104V551.096L619.904 556.928H619.832L615.488 551.096V560ZM630.417 560H629.169V549.2H630.345L634.833 555.224L639.153 549.2H640.281V560H639.033V551.096L634.833 556.928H634.761L630.417 551.096V560ZM644.435 551L644.099 549.968C645.171 549.312 646.315 548.984 647.531 548.984C648.939 548.984 649.955 549.336 650.579 550.04C651.219 550.744 651.539 551.832 651.539 553.304V560H650.291V558.344C649.411 559.544 648.179 560.144 646.595 560.144C645.587 560.144 644.779 559.856 644.171 559.28C643.563 558.688 643.259 557.904 643.259 556.928C643.259 555.872 643.643 555.048 644.411 554.456C645.163 553.864 646.147 553.568 647.363 553.568C648.579 553.568 649.555 553.84 650.291 554.384C650.291 553.264 650.211 552.408 650.051 551.816C649.923 551.24 649.659 550.832 649.259 550.592C648.875 550.352 648.275 550.208 647.459 550.16C646.483 550.16 645.475 550.44 644.435 551ZM646.979 558.968C648.323 558.968 649.427 558.4 650.291 557.264V555.464C649.507 554.888 648.571 554.6 647.483 554.6C646.667 554.6 645.979 554.8 645.419 555.2C644.859 555.6 644.579 556.152 644.579 556.856C644.579 557.496 644.803 558.008 645.251 558.392C645.699 558.776 646.275 558.968 646.979 558.968ZM670.147 560H668.899V550.376H662.011V560H660.763V549.2H670.147V560ZM678.831 560.216C677.167 560.216 675.807 559.688 674.751 558.632C673.695 557.576 673.167 556.232 673.167 554.6C673.167 552.968 673.695 551.624 674.751 550.568C675.807 549.512 677.167 548.984 678.831 548.984C680.495 548.984 681.855 549.512 682.911 550.568C683.967 551.624 684.495 552.968 684.495 554.6C684.495 556.232 683.967 557.576 682.911 558.632C681.855 559.688 680.495 560.216 678.831 560.216ZM678.831 559.04C680.127 559.04 681.167 558.632 681.951 557.816C682.767 556.984 683.175 555.912 683.175 554.6C683.175 553.304 682.767 552.24 681.951 551.408C681.135 550.576 680.095 550.16 678.831 550.16C677.583 550.16 676.543 550.576 675.711 551.408C674.895 552.24 674.487 553.304 674.487 554.6C674.487 555.896 674.895 556.96 675.711 557.792C676.527 558.624 677.567 559.04 678.831 559.04ZM694.752 549.2H696.36L691.032 554.36L696.792 560H695.112L689.52 554.432L694.752 549.2ZM688.8 560H687.552V549.2H688.8V560ZM706.769 549.2H708.185L703.817 560C703.033 561.904 702.353 563.168 701.777 563.792C701.201 564.464 700.529 564.8 699.761 564.8C699.169 564.8 698.553 564.616 697.913 564.248L698.321 563.288C698.817 563.528 699.241 563.648 699.593 563.648C700.137 563.648 700.625 563.408 701.057 562.928C701.489 562.464 701.937 561.68 702.401 560.576L702.641 560L697.313 549.2H698.801L702.497 556.832L703.265 558.512C703.281 558.448 703.481 557.872 703.865 556.784L706.769 549.2ZM719.811 560H718.563V550.376H711.675V560H710.427V549.2H719.811V560ZM728.495 560.216C726.831 560.216 725.471 559.688 724.415 558.632C723.359 557.576 722.831 556.232 722.831 554.6C722.831 552.968 723.359 551.624 724.415 550.568C725.471 549.512 726.831 548.984 728.495 548.984C730.159 548.984 731.519 549.512 732.575 550.568C733.631 551.624 734.159 552.968 734.159 554.6C734.159 556.232 733.631 557.576 732.575 558.632C731.519 559.688 730.159 560.216 728.495 560.216ZM728.495 559.04C729.791 559.04 730.831 558.632 731.615 557.816C732.431 556.984 732.839 555.912 732.839 554.6C732.839 553.304 732.431 552.24 731.615 551.408C730.799 550.576 729.759 550.16 728.495 550.16C727.247 550.16 726.207 550.576 725.375 551.408C724.559 552.24 724.151 553.304 724.151 554.6C724.151 555.896 724.559 556.96 725.375 557.792C726.191 558.624 727.231 559.04 728.495 559.04ZM744.416 549.2H746.024L740.696 554.36L746.456 560H744.776L739.184 554.432L744.416 549.2ZM738.464 560H737.216V549.2H738.464V560ZM762.386 549.2H763.802L759.434 560C758.65 561.904 757.97 563.168 757.394 563.792C756.818 564.464 756.146 564.8 755.378 564.8C754.786 564.8 754.17 564.616 753.53 564.248L753.938 563.288C754.434 563.528 754.858 563.648 755.21 563.648C755.754 563.648 756.242 563.408 756.674 562.928C757.106 562.464 757.554 561.68 758.018 560.576L758.258 560L752.93 549.2H754.418L758.114 556.832L758.882 558.512C758.898 558.448 759.098 557.872 759.482 556.784L762.386 549.2ZM778.893 549.2H780.501L775.173 554.36L780.933 560H779.253L773.661 554.432L778.893 549.2ZM772.941 560H771.693V549.2H772.941V560ZM792.08 560H790.832V550.448H786.272L786.128 552.8C785.92 555.84 785.416 557.856 784.616 558.848C783.976 559.68 783.184 560.096 782.24 560.096L782.144 558.872C782.56 558.872 782.952 558.68 783.32 558.296C784.2 557.48 784.736 555.568 784.928 552.56L785.096 549.2H792.08V560ZM804.328 551L797.128 560H795.88V549.2H797.128V558.2L804.328 549.2H805.576V560H804.328V551ZM817.901 557.72L818.309 558.68C817.333 559.704 816.005 560.216 814.325 560.216C812.597 560.216 811.213 559.704 810.173 558.68C809.117 557.656 808.589 556.296 808.589 554.6C808.589 552.968 809.069 551.624 810.029 550.568C811.005 549.512 812.349 548.984 814.061 548.984C815.453 548.984 816.621 549.432 817.565 550.328C818.493 551.208 818.957 552.384 818.957 553.856C818.957 554.24 818.933 554.576 818.885 554.864H809.981C810.029 556.16 810.453 557.184 811.253 557.936C812.053 558.672 813.101 559.04 814.397 559.04C815.901 559.04 817.069 558.6 817.901 557.72ZM813.941 550.16C812.789 550.16 811.853 550.496 811.133 551.168C810.429 551.84 810.021 552.728 809.909 553.832H817.685C817.669 552.696 817.325 551.8 816.653 551.144C815.981 550.488 815.077 550.16 813.941 550.16ZM831.447 560H830.199V555.104H823.191V560H821.943V549.2H823.191V553.928H830.199V549.2H831.447V560ZM837.944 550.448H833.648V549.2H843.488V550.448H839.192V560H837.944V550.448ZM846.021 551L845.685 549.968C846.757 549.312 847.901 548.984 849.117 548.984C850.525 548.984 851.541 549.336 852.165 550.04C852.805 550.744 853.125 551.832 853.125 553.304V560H851.877V558.344C850.997 559.544 849.765 560.144 848.181 560.144C847.173 560.144 846.365 559.856 845.757 559.28C845.149 558.688 844.845 557.904 844.845 556.928C844.845 555.872 845.229 555.048 845.997 554.456C846.749 553.864 847.733 553.568 848.949 553.568C850.165 553.568 851.141 553.84 851.877 554.384C851.877 553.264 851.797 552.408 851.637 551.816C851.509 551.24 851.245 550.832 850.845 550.592C850.461 550.352 849.861 550.208 849.045 550.16C848.069 550.16 847.061 550.44 846.021 551ZM848.565 558.968C849.909 558.968 851.013 558.4 851.877 557.264V555.464C851.093 554.888 850.157 554.6 849.069 554.6C848.253 554.6 847.565 554.8 847.005 555.2C846.445 555.6 846.165 556.152 846.165 556.856C846.165 557.496 846.389 558.008 846.837 558.392C847.285 558.776 847.861 558.968 848.565 558.968ZM867.245 560.216C865.581 560.216 864.221 559.688 863.165 558.632C862.109 557.576 861.581 556.232 861.581 554.6C861.581 552.968 862.109 551.624 863.165 550.568C864.221 549.512 865.581 548.984 867.245 548.984C868.909 548.984 870.269 549.512 871.325 550.568C872.381 551.624 872.909 552.968 872.909 554.6C872.909 556.232 872.381 557.576 871.325 558.632C870.269 559.688 868.909 560.216 867.245 560.216ZM867.245 559.04C868.541 559.04 869.581 558.632 870.365 557.816C871.181 556.984 871.589 555.912 871.589 554.6C871.589 553.304 871.181 552.24 870.365 551.408C869.549 550.576 868.509 550.16 867.245 550.16C865.997 550.16 864.957 550.576 864.125 551.408C863.309 552.24 862.901 553.304 862.901 554.6C862.901 555.896 863.309 556.96 864.125 557.792C864.941 558.624 865.981 559.04 867.245 559.04ZM884.51 542.96L885.206 543.896C884.838 544.424 884.39 544.784 883.862 544.976C883.206 545.168 882.51 545.32 881.774 545.432C880.942 545.544 880.19 545.752 879.518 546.056C877.678 546.84 876.646 548.888 876.422 552.2H876.47C876.838 551.32 877.454 550.616 878.318 550.088C879.182 549.544 880.118 549.272 881.126 549.272C882.694 549.272 883.942 549.768 884.87 550.76C885.798 551.736 886.262 553.048 886.262 554.696C886.262 556.216 885.742 557.52 884.702 558.608C883.678 559.68 882.374 560.216 880.79 560.216C879.094 560.216 877.726 559.624 876.686 558.44C875.678 557.256 875.174 555.632 875.174 553.568C875.174 548.832 876.494 545.928 879.134 544.856C879.806 544.584 880.55 544.384 881.366 544.256C882.326 544.096 883.014 543.944 883.43 543.8C883.846 543.64 884.206 543.36 884.51 542.96ZM876.494 553.784C876.494 555.4 876.886 556.68 877.67 557.624C878.454 558.568 879.478 559.04 880.742 559.04C881.958 559.04 882.958 558.624 883.742 557.792C884.542 556.944 884.942 555.928 884.942 554.744C884.942 553.448 884.574 552.408 883.838 551.624C883.102 550.84 882.102 550.448 880.838 550.448C879.702 550.448 878.734 550.784 877.934 551.456C877.166 552.128 876.686 552.904 876.494 553.784ZM898.783 560H897.535V555.104H890.527V560H889.279V549.2H890.527V553.928H897.535V549.2H898.783V560ZM907.464 560.216C905.8 560.216 904.44 559.688 903.384 558.632C902.328 557.576 901.8 556.232 901.8 554.6C901.8 552.968 902.328 551.624 903.384 550.568C904.44 549.512 905.8 548.984 907.464 548.984C909.128 548.984 910.488 549.512 911.544 550.568C912.6 551.624 913.128 552.968 913.128 554.6C913.128 556.232 912.6 557.576 911.544 558.632C910.488 559.688 909.128 560.216 907.464 560.216ZM907.464 559.04C908.76 559.04 909.8 558.632 910.584 557.816C911.4 556.984 911.808 555.912 911.808 554.6C911.808 553.304 911.4 552.24 910.584 551.408C909.768 550.576 908.728 550.16 907.464 550.16C906.216 550.16 905.176 550.576 904.344 551.408C903.528 552.24 903.12 553.304 903.12 554.6C903.12 555.896 903.528 556.96 904.344 557.792C905.16 558.624 906.2 559.04 907.464 559.04ZM916.185 560V549.2C916.713 549.2 917.225 549.192 917.721 549.176C918.745 549.144 919.393 549.128 919.665 549.128C922.641 549.128 924.129 550.056 924.129 551.912C924.129 552.536 923.929 553.08 923.529 553.544C923.145 553.992 922.617 554.272 921.945 554.384V554.432C923.673 554.688 924.537 555.552 924.537 557.024C924.537 559.056 922.929 560.072 919.713 560.072C919.505 560.072 918.873 560.056 917.817 560.024C917.289 560.008 916.745 560 916.185 560ZM920.025 555.032H917.433V558.848C918.681 558.88 919.489 558.896 919.857 558.896C922.097 558.896 923.217 558.232 923.217 556.904C923.217 555.656 922.153 555.032 920.025 555.032ZM919.809 550.304C919.281 550.304 918.489 550.32 917.433 550.352V554H920.289C921.073 554 921.689 553.832 922.137 553.496C922.585 553.144 922.809 552.68 922.809 552.104C922.809 550.904 921.809 550.304 919.809 550.304ZM936.188 551L928.988 560H927.74V549.2H928.988V558.2L936.188 549.2H937.436V560H936.188V551ZM950.072 560H948.824V550.448H944.264L944.12 552.8C943.912 555.84 943.408 557.856 942.608 558.848C941.968 559.68 941.176 560.096 940.232 560.096L940.136 558.872C940.552 558.872 940.944 558.68 941.312 558.296C942.192 557.48 942.728 555.568 942.92 552.56L943.088 549.2H950.072V560ZM954.209 551L953.873 549.968C954.945 549.312 956.089 548.984 957.305 548.984C958.713 548.984 959.729 549.336 960.353 550.04C960.993 550.744 961.313 551.832 961.313 553.304V560H960.065V558.344C959.185 559.544 957.953 560.144 956.369 560.144C955.361 560.144 954.553 559.856 953.945 559.28C953.337 558.688 953.033 557.904 953.033 556.928C953.033 555.872 953.417 555.048 954.185 554.456C954.937 553.864 955.921 553.568 957.137 553.568C958.353 553.568 959.329 553.84 960.065 554.384C960.065 553.264 959.985 552.408 959.825 551.816C959.697 551.24 959.433 550.832 959.033 550.592C958.649 550.352 958.049 550.208 957.233 550.16C956.257 550.16 955.249 550.44 954.209 551ZM956.753 558.968C958.097 558.968 959.201 558.4 960.065 557.264V555.464C959.281 554.888 958.345 554.6 957.257 554.6C956.441 554.6 955.753 554.8 955.193 555.2C954.633 555.6 954.353 556.152 954.353 556.856C954.353 557.496 954.577 558.008 955.025 558.392C955.473 558.776 956.049 558.968 956.753 558.968ZM973.288 557.552L973.912 558.464C973.48 559.024 972.896 559.456 972.16 559.76C971.44 560.064 970.664 560.216 969.832 560.216C968.152 560.216 966.776 559.704 965.704 558.68C964.648 557.656 964.12 556.296 964.12 554.6C964.12 553.016 964.632 551.688 965.656 550.616C966.696 549.528 967.976 548.984 969.496 548.984C971.352 548.984 972.752 549.432 973.696 550.328L973.096 551.336C972.248 550.552 971.112 550.16 969.688 550.16C968.536 550.16 967.536 550.584 966.688 551.432C965.856 552.264 965.44 553.32 965.44 554.6C965.44 555.944 965.864 557.024 966.712 557.84C967.56 558.64 968.632 559.04 969.928 559.04C971.32 559.04 972.44 558.544 973.288 557.552ZM979.822 560H976.654V549.2H977.902V552.824H979.99C982.838 552.824 984.262 554.008 984.262 556.376C984.262 557.496 983.894 558.384 983.158 559.04C982.438 559.68 981.326 560 979.822 560ZM979.774 554H977.902V558.824H979.75C980.87 558.824 981.678 558.624 982.174 558.224C982.686 557.824 982.942 557.216 982.942 556.4C982.942 554.8 981.886 554 979.774 554Z" fill="#141414"/>
<path d="M527.207 554.707C527.598 554.317 527.598 553.683 527.207 553.293L520.843 546.929C520.453 546.538 519.819 546.538 519.429 546.929C519.038 547.319 519.038 547.953 519.429 548.343L525.086 554L519.429 559.657C519.038 560.047 519.038 560.681 519.429 561.071C519.819 561.462 520.453 561.462 520.843 561.071L527.207 554.707ZM510 555H526.5V553H510V555Z" fill="#E4002B"/>
<path d="M1061.21 554.707C1061.6 554.317 1061.6 553.683 1061.21 553.293L1054.84 546.929C1054.45 546.538 1053.82 546.538 1053.43 546.929C1053.04 547.319 1053.04 547.953 1053.43 548.343L1059.09 554L1053.43 559.657C1053.04 560.047 1053.04 560.681 1053.43 561.071C1053.82 561.462 1054.45 561.462 1054.84 561.071L1061.21 554.707ZM1044 555H1060.5V553H1044V555Z" fill="#E4002B"/>
<path d="M250.293 147.707C250.683 148.098 251.317 148.098 251.707 147.707L258.071 141.343C258.462 140.953 258.462 140.319 258.071 139.929C257.681 139.538 257.047 139.538 256.657 139.929L251 145.586L245.343 139.929C244.953 139.538 244.319 139.538 243.929 139.929C243.538 140.319 243.538 140.953 243.929 141.343L250.293 147.707ZM250 114L250 147L252 147L252 114L250 114Z" fill="#E4002B"/>
<path d="M250.293 320.707C250.683 321.098 251.317 321.098 251.707 320.707L258.071 314.343C258.462 313.953 258.462 313.319 258.071 312.929C257.681 312.538 257.047 312.538 256.657 312.929L251 318.586L245.343 312.929C244.953 312.538 244.319 312.538 243.929 312.929C243.538 313.319 243.538 313.953 243.929 314.343L250.293 320.707ZM250 287L250 320L252 320L252 287L250 287Z" fill="#E4002B"/>
<path d="M250.293 488.707C250.683 489.098 251.317 489.098 251.707 488.707L258.071 482.343C258.462 481.953 258.462 481.319 258.071 480.929C257.681 480.538 257.047 480.538 256.657 480.929L251 486.586L245.343 480.929C244.953 480.538 244.319 480.538 243.929 480.929C243.538 481.319 243.538 481.953 243.929 482.343L250.293 488.707ZM250 455L250 488L252 488L252 455L250 455Z" fill="#E4002B"/>
</svg>
