<svg width="17" height="17" viewBox="0 0 17 17" fill="none" xmlns="http://www.w3.org/2000/svg">
<path d="M7.04752 12.9573L5.04433 14.9605C4.21385 15.791 2.86895 15.791 2.03917 14.9607C1.20922 14.1307 1.20922 12.7857 2.039 11.9559L6.04608 7.94882C6.87586 7.11901 8.2209 7.11901 9.05068 7.94882C9.3273 8.22544 9.77581 8.22544 10.0524 7.94882C10.329 7.67221 10.329 7.2237 10.0524 6.94708C8.66938 5.56403 6.42739 5.56403 5.04433 6.94708L1.03729 10.9541C-0.345763 12.3372 -0.345763 14.5792 1.03729 15.9622C2.42017 17.346 4.66233 17.346 6.04611 15.9622L8.0493 13.959C8.32592 13.6824 8.32592 13.2339 8.0493 12.9573C7.77269 12.6807 7.32414 12.6807 7.04752 12.9573Z" fill="#E4002B"/>
<path d="M15.9623 1.03729C14.5793 -0.345763 12.3366 -0.345763 10.9535 1.03729L8.55011 3.44068C8.2735 3.7173 8.2735 4.16581 8.55011 4.44242C8.82673 4.71904 9.27524 4.71904 9.55186 4.44242L11.9552 2.03903C12.785 1.20922 14.1308 1.20922 14.9606 2.03903C15.7904 2.86882 15.7904 4.21385 14.9606 5.04364L10.5533 9.45095C9.72349 10.2808 8.37848 10.2808 7.5487 9.45095C7.27208 9.17433 6.82357 9.17433 6.54696 9.45095C6.27034 9.72756 6.27034 10.1761 6.54696 10.4527C7.93001 11.8357 10.172 11.8357 11.555 10.4527L15.9623 6.04541C17.3454 4.66236 17.3454 2.42034 15.9623 1.03729Z" fill="#E4002B"/>
</svg>
