<svg width="179" height="56" viewBox="0 0 179 56" fill="none" xmlns="http://www.w3.org/2000/svg">
<path d="M129.068 3.90877H124.914V31.125H129.068V3.90877Z" fill="#141414"/>
<path d="M136.096 26.2091C134.542 26.2091 133.29 27.4149 133.29 28.9122C133.29 30.4095 134.542 31.6153 136.096 31.6153C137.65 31.6153 138.902 30.4095 138.902 28.9122C138.902 27.4149 137.65 26.2091 136.096 26.2091Z" fill="#141414"/>
<path d="M147.016 21.651C147.016 18.4047 149.038 15.6221 152.958 15.6221H155.434V11.8325H152.958C149.891 11.8325 148.488 12.7733 147.058 14.3368L147.03 14.3766V11.8325H142.918V31.1118H147.016C147.016 31.0985 147.016 22.9628 147.016 21.651Z" fill="#141414"/>
<path d="M120.403 11.8325H116.249V31.1118H120.403V11.8325Z" fill="#141414"/>
<path d="M118.326 8.63917C119.88 8.63917 121.132 7.43338 121.132 5.93609C121.132 4.4388 119.866 3.23302 118.326 3.23302C116.772 3.23302 115.52 4.4388 115.52 5.93609C115.52 7.43338 116.785 8.63917 118.326 8.63917Z" fill="#141414"/>
<path d="M107.666 13.7803C106.071 12.2168 103.623 11.3422 101.188 11.3422C95.3841 11.3422 90.6664 15.8871 90.6664 21.4788C90.6664 27.0704 95.3841 31.6153 101.188 31.6153C103.623 31.6153 106.195 30.6083 107.666 29.0182V31.125H111.751V11.8325H107.666V13.7803ZM101.326 27.5872C97.7497 27.5872 95.0265 24.9371 95.0265 21.4788C95.0265 18.0204 97.7497 15.3969 101.326 15.3969C104.902 15.3969 107.721 17.8614 107.721 21.4788C107.721 25.0961 104.902 27.5872 101.326 27.5872Z" fill="#141414"/>
<path d="M166.932 31.6153C168.789 31.6153 171.155 30.648 172.64 29.005C172.654 29.7338 172.64 30.3963 172.64 31.1118H176.725V22.6978V11.8325H172.626V22.4196C172.626 25.1624 170.453 27.7197 167.194 27.7197C164.347 27.7197 162.325 25.7322 162.325 22.8833V11.8458H158.226V23.2146C158.24 28.3027 161.087 31.6153 166.932 31.6153Z" fill="#141414"/>
<path d="M78.6729 11.3422C75.9496 11.3422 73.2814 12.5348 71.6584 14.4163C70.173 12.5215 68.0136 11.3422 65.1115 11.3422C62.7458 11.3422 61.0541 12.3625 60.1463 13.184V11.8325H56.0614V31.1118H60.1463V19.8357C60.1463 17.3182 62.2782 15.2776 64.8777 15.2776C67.4772 15.2776 69.609 17.3314 69.609 19.8357V31.1118H73.694V19.8357C73.694 17.3182 75.8258 15.2776 78.4253 15.2776C81.0248 15.2776 83.1567 17.3314 83.1567 19.8357V31.1118H87.2416V19.8357C87.2692 14.6681 83.7894 11.3422 78.6729 11.3422Z" fill="#141414"/>
<path d="M132.616 40.0292L132.589 40.0557V38.5584H131.392H130.182H129.975V49.8742H130.182H132.589C132.589 49.861 132.589 45.3426 132.589 44.5741C132.589 42.666 133.771 41.0363 136.068 41.0363H137.512V38.5584H136.068C134.28 38.5584 133.455 39.1149 132.616 40.0292Z" fill="#141414"/>
<path d="M160.716 44.7596C160.716 46.5749 159.203 47.6614 157.731 47.6614C156.177 47.6614 155.076 46.5749 155.076 45.0246V38.5717H152.449V45.2101C152.449 48.3504 154.32 50.1657 157.566 50.1657C158.625 50.1657 159.877 49.649 160.702 48.8672C160.702 49.066 160.702 49.2647 160.702 49.4635V49.8875H163.315V38.5717H160.688L160.716 44.7596Z" fill="#141414"/>
<path d="M144.321 38.2802C140.924 38.2802 138.159 40.9435 138.159 44.2164C138.159 47.4892 140.924 50.1525 144.321 50.1525C147.718 50.1525 150.483 47.4892 150.483 44.2164C150.483 40.9435 147.732 38.2802 144.321 38.2802ZM144.321 47.6349C142.368 47.6349 140.772 46.0979 140.772 44.2164C140.772 42.3348 142.368 40.7978 144.321 40.7978C146.274 40.7978 147.869 42.3348 147.869 44.2164C147.869 46.0979 146.288 47.6349 144.321 47.6349Z" fill="#141414"/>
<path d="M172.131 38.2802C170.783 38.2802 169.477 38.7307 168.555 39.4992V38.5585H165.942V53.7698H168.555V48.8672C169.436 49.6622 170.797 50.1658 172.131 50.1658C175.529 50.1658 178.293 47.5024 178.293 44.2296C178.293 40.9435 175.529 38.2802 172.131 38.2802ZM172.049 47.5819C169.999 47.5819 168.514 46.1642 168.514 44.2164C168.514 42.2686 169.999 40.864 172.049 40.864C174.029 40.864 175.529 42.3083 175.529 44.2164C175.529 46.1377 174.029 47.5819 172.049 47.5819Z" fill="#141414"/>
<path d="M124.763 39.4992C123.841 38.7307 122.534 38.2802 121.187 38.2802C117.789 38.2802 115.025 40.9435 115.025 44.2164C115.025 47.4892 117.789 50.1525 121.187 50.1525C122.521 50.1525 123.882 49.649 124.763 48.854V49.0792C124.721 51.398 123.552 52.5773 121.269 52.5773H121.242C119.949 52.5773 118.807 52.1003 117.748 51.1065L117.652 51.0138L115.754 52.7628L115.836 52.8556C116.813 53.9554 118.793 55.2141 121.173 55.2141C121.214 55.2141 121.255 55.2141 121.297 55.2141C123.525 55.1744 127.266 54.3396 127.376 49.172V38.5452H124.763V39.4992ZM121.269 47.5819C119.288 47.5819 117.789 46.1377 117.789 44.2164C117.789 42.3083 119.288 40.864 121.269 40.864C123.318 40.864 124.804 42.2686 124.804 44.2164C124.79 46.1642 123.318 47.5819 121.269 47.5819Z" fill="#141414"/>
<path d="M28.5533 21.1343C28.5533 24.6457 25.5962 27.4945 21.9514 27.4945C18.3066 27.4945 15.3495 24.6457 15.3495 21.1343C15.3495 17.623 18.3066 14.7741 21.9514 14.7741C25.5962 14.7741 28.5533 17.6362 28.5533 21.1343ZM21.9514 0C9.84786 0 0 9.48725 0 21.1476C0 32.8079 9.84786 42.2819 21.9514 42.2819C26.3802 42.2819 30.6577 41.0098 34.3162 38.5983L34.385 38.5585L31.4279 35.2459L31.3729 35.2724C28.5533 37.0082 25.3074 37.9358 21.9514 37.9358C12.3373 37.9358 4.51131 30.3963 4.51131 21.1343C4.51131 11.8723 12.3373 4.33287 21.9514 4.33287C31.5654 4.33287 39.3914 11.8723 39.3914 21.1343C39.3914 22.3401 39.2539 23.5459 38.9788 24.7517C38.4287 26.938 36.847 27.6005 35.6504 27.5077C34.4538 27.415 33.0509 26.5935 33.0371 24.5794V21.1343C33.0371 15.2379 28.0582 10.4413 21.9376 10.4413C15.8171 10.4413 10.8382 15.2379 10.8382 21.1343C10.8382 27.0307 15.8171 31.8274 21.9376 31.8274C24.9085 31.8274 27.7006 30.7011 29.8049 28.6738C31.029 30.5023 33.0233 31.6551 35.2928 31.8274C35.4853 31.8406 35.6916 31.8539 35.8842 31.8539C37.4796 31.8539 39.0614 31.3371 40.3405 30.4096C41.6609 29.4423 42.6374 28.051 43.1738 26.3815C43.2563 26.1164 43.4214 25.4937 43.4214 25.4937V25.4672C43.7377 24.1289 43.889 22.7906 43.889 21.1343C43.9028 9.48725 34.0549 0 21.9514 0Z" fill="#141414"/>
</svg>
