<svg width="118" height="30" viewBox="0 0 118 30" fill="none" xmlns="http://www.w3.org/2000/svg">
<path d="M10.4858 0C8.30539 0 5.6889 2.14575 3.56795 5.74899C1.30825 9.51417 0 14.1296 0 18.1579C0 24.0688 3.23098 30 10.4858 30C17.7406 30 20.9716 24.0688 20.9716 18.1579C20.9716 14.1296 19.6634 9.49393 17.4037 5.76923C15.2827 2.14575 12.6662 0 10.4858 0ZM67.1171 8.82591H74.4512V28.3603H82.3205V8.82591H89.6546V1.59919H67.1171V8.82591ZM106.464 8.82591H118V1.59919H106.464C95.8589 1.59919 90.2096 6.98381 90.2096 15C90.2096 23.0162 95.8787 28.4008 106.464 28.4008H118V21.1538H106.464C101.548 21.1538 98.3565 19.3522 98.3565 15C98.3565 10.6478 101.548 8.82591 106.464 8.82591ZM51.1208 1.61943L46.9185 17.6113L42.7163 1.61943H28.8211V28.421H36.6904V6.59919L42.4189 28.3806H51.4379L57.1665 6.57895V28.3806H65.0358V1.61943H51.1208Z" fill="#141414"/>
</svg>
