<svg width="256" height="65" viewBox="0 0 256 65" fill="none" xmlns="http://www.w3.org/2000/svg">
<path d="M22.7489 0C18.0185 0 12.342 4.64912 7.74064 12.4561C2.83823 20.614 0 30.614 0 39.3421C0 52.1491 7.00958 65 22.7489 65C38.4882 65 45.4977 52.1491 45.4977 39.3421C45.4977 30.614 42.6595 20.5702 37.7571 12.5C33.1557 4.64912 27.4793 0 22.7489 0ZM145.61 19.1228H161.521V61.4474H178.594V19.1228H194.505V3.46491H145.61V19.1228ZM230.972 19.1228H256V3.46491H230.972C207.965 3.46491 195.709 15.1316 195.709 32.5C195.709 49.8684 208.008 61.5351 230.972 61.5351H256V45.8333H230.972C220.307 45.8333 213.384 41.9298 213.384 32.5C213.384 23.0702 220.307 19.1228 230.972 19.1228ZM110.906 3.50877L101.789 38.1579L92.6726 3.50877H62.5271V61.5789H79.5995V14.2982L92.0275 61.4912H111.594L124.022 14.2544V61.4912H141.095V3.50877H110.906Z" fill="#FF0109"/>
</svg>
