<svg width="189" height="48" viewBox="0 0 189 48" fill="none" xmlns="http://www.w3.org/2000/svg">
<path d="M16.7951 0C13.3027 0 9.11188 3.4332 5.71477 9.19838C2.09541 15.2227 0 22.6073 0 29.0526C0 38.5101 5.17504 48 16.7951 48C28.4151 48 33.5901 38.5101 33.5901 29.0526C33.5901 22.6073 31.4947 15.1903 27.8754 9.23077C24.4782 3.4332 20.2874 0 16.7951 0ZM107.501 14.1215H119.248V45.3765H131.852V14.1215H143.599V2.5587H107.501V14.1215ZM170.522 14.1215H189V2.5587H170.522C153.537 2.5587 144.488 11.1741 144.488 24C144.488 36.8259 153.568 45.4413 170.522 45.4413H189V33.8461H170.522C162.649 33.8461 157.537 30.9636 157.537 24C157.537 17.0364 162.649 14.1215 170.522 14.1215ZM81.8799 2.59109L75.1492 28.1781L68.4184 2.59109H46.1626V45.4737H58.7668V10.5587L67.9422 45.4089H82.3879L91.5632 10.5263V45.4089H104.167V2.59109H81.8799Z" fill="#E4002B"/>
</svg>
