<svg width="1202" height="289" viewBox="0 0 1202 289" fill="none" xmlns="http://www.w3.org/2000/svg">
<path opacity="0.1" fill-rule="evenodd" clip-rule="evenodd" d="M72.8962 138.691L71.7581 125.64H69.3843L66.9304 138.718L39.4132 286.091H0L52.8206 3.26487H91.0513L105.277 150.629L106.424 163.716H108.806L111.251 150.638L138.769 3.24708H178.173L125.361 286.055H87.1305L72.8962 138.691ZM210.011 3.20263H252.989L200.178 286.02H157.19L210.011 3.20263ZM304.912 138.611L303.765 125.533H301.382L298.937 138.611L271.42 285.975H232.016L284.837 3.14921H323.067L337.293 150.523L338.44 163.591H340.831L343.267 150.523L370.829 3.13143H410.233L357.413 285.949H319.182L304.912 138.611ZM426.424 61.2143C428.949 47.7367 441.431 0.0266996 493.994 1.11903e-05C546.557 -0.0266772 541.204 47.6922 538.697 61.161L508.655 222.048C504.921 242.055 493.763 288.982 440.035 289C386.308 289.018 392.692 242.082 396.426 222.074L399.733 204.38H442.712C435.599 242.473 434.461 252.846 446.784 252.828C457.533 252.828 461.658 243.585 465.677 222.057L475.59 168.955C468.684 173.116 460.854 175.497 452.803 175.886C408.633 175.886 413.238 132.045 416.19 116.281L426.424 61.2143ZM497.977 48.8665C498.28 47.2974 498.227 45.6805 497.821 44.1348C497.416 42.5891 496.67 41.154 495.636 39.9357C494.603 38.7173 493.309 37.7466 491.851 37.0951C490.393 36.4437 488.807 36.1281 487.21 36.1717C483.649 36.4842 480.264 37.8635 477.499 40.1297C474.732 42.3959 472.713 45.4437 471.705 48.8754L456.403 130.836C456.185 132.392 456.298 133.977 456.735 135.487C457.171 136.997 457.923 138.397 458.938 139.596C459.954 140.795 461.212 141.765 462.629 142.443C464.047 143.121 465.591 143.492 467.161 143.53C470.591 143.416 473.902 142.244 476.64 140.173C479.377 138.103 481.408 135.236 482.454 131.965L497.977 48.8665ZM620.671 44.2138H556.194L563.885 3.04252H672.149L664.387 44.6053L576.368 285.895H531.789L620.671 44.2138ZM692.856 3.00688H791.144L783.143 45.7084H727.824L713.954 119.973H753.749L745.268 165.344H705.49L691.007 243.132H746.317L738.315 285.833H640.009L692.856 3.00688ZM893.06 2.94464H934.847L837.448 285.771H794.47L802.711 2.96243H844.498L836.95 158.414L836.328 170.334H838.719L842.525 158.405L893.06 2.94464ZM954.354 2.94464H1052.67L1044.67 45.6461H989.339L975.47 119.911H1015.27L1006.81 165.281H967.006L952.496 243.069H1007.82L999.822 285.771H901.515L954.354 2.94464ZM1096.61 138.335L1095.47 125.258H1093.09L1090.64 138.335L1063.08 285.708H1023.67L1076.54 2.87345H1114.77L1129.04 150.247L1130.22 163.342H1132.61L1135.04 150.256L1162.6 2.88234H1202L1149.2 285.708H1110.97L1096.61 138.335Z" fill="white"/>
</svg>
