<svg width="86" height="74" viewBox="0 0 86 74" fill="none" xmlns="http://www.w3.org/2000/svg">
<path fill-rule="evenodd" clip-rule="evenodd" d="M15.9309 27.3544C24.7265 27.0292 35.9748 26.6805 42.7103 26.6805C49.5437 26.6805 61.0221 27.0394 69.8716 27.3685L69.8313 27.3544C69.8313 27.3544 69.7886 27.3123 69.7886 27.2702C65.6884 16.8664 55.1816 9.45326 42.8811 9.45326C30.5378 9.45326 20.0311 16.9085 15.9309 27.3544ZM79.1993 27.7598C80.8834 27.9549 81.7373 28.0794 82.4735 28.2811C84.908 28.8286 85.4205 29.671 85.4205 31.398V43.0653C85.4205 44.7501 83.584 45.9295 82.3027 46.1401C81.1002 46.3773 80.3115 46.4661 79.1246 46.5805C74.7467 61.839 60.1556 73.055 42.8385 73.055C25.5143 73.055 10.9611 61.872 6.5471 46.6042L6.53467 46.6034C5.21065 46.4771 4.39916 46.3928 3.11785 46.1401C1.83654 45.9295 0 44.7501 0 43.0653V31.398C0 29.671 0.512523 28.8286 2.94701 28.2811C3.71579 28.0705 4.61271 27.9441 6.44925 27.7335L6.44919 27.7335C10.7202 12.3174 25.4126 0.944946 42.8383 0.944946C60.2214 0.944946 74.871 12.2332 79.1848 27.6492C79.1848 27.708 79.1848 27.7258 79.1993 27.7598ZM73.172 46.9338L73.1796 46.9333C73.0256 47.3646 72.862 47.7915 72.6888 48.2138C72.8595 47.7916 73.0206 47.3649 73.172 46.9338ZM42.7103 47.9092C51.7224 47.9092 61.8532 47.5097 69.6162 47.1199C69.6111 47.1428 69.593 47.1785 69.5749 47.2141C69.5536 47.2563 69.5322 47.2984 69.5322 47.3195C65.2612 57.4283 54.9253 64.5888 42.8383 64.5888C30.6659 64.5888 20.2873 57.3441 16.059 47.151C16.0319 47.1441 16.0046 47.1369 15.977 47.1295C23.7146 47.5163 33.7721 47.9092 42.7103 47.9092ZM59.3261 32.5814C59.5616 32.7308 59.6739 33.0745 60.0506 33.8831C60.2214 34.2761 60.8562 35.6342 61.5463 37.1106C62.409 38.9565 63.3583 40.9873 63.5956 41.549C63.7081 41.8078 63.656 41.807 63.4104 41.8029C63.3762 41.8023 63.3383 41.8017 63.2966 41.8017H60.9475C60.8194 41.8017 60.6913 41.7596 60.6486 41.6332C60.6486 41.5947 60.3987 41.028 60.0294 40.1908C59.9948 40.1123 59.9591 40.0314 59.9225 39.9484H54.4129C53.9858 40.9172 53.6441 41.6332 53.6441 41.6332C53.6014 41.7174 53.5159 41.8017 53.3451 41.8017H51.0815C50.7398 41.8017 50.6116 41.8017 50.8252 41.3805L50.8679 41.2962C51.9357 38.9796 54.4556 33.4197 54.4556 33.4197C54.6988 32.92 54.7689 32.6764 54.9306 32.5584C55.1097 32.4277 55.401 32.451 56.164 32.451C56.5484 32.4089 56.6338 32.4089 57.1035 32.4089H57.1036H57.1037C57.5735 32.4089 57.9151 32.4089 58.0432 32.451C58.7831 32.4712 59.1076 32.4427 59.3261 32.5814ZM56.6765 34.6833C56.6765 34.7255 55.9931 36.326 55.2671 37.9687H59.0683C58.759 37.1945 58.4233 36.4203 58.1569 35.8062C57.9451 35.3178 57.7772 34.9307 57.7016 34.7255C57.6588 34.5991 57.5734 34.557 57.488 34.557C57.4453 34.5149 57.3172 34.5149 57.2317 34.5149C57.1036 34.5149 56.9755 34.5149 56.9328 34.557C56.8046 34.557 56.7192 34.5991 56.6765 34.6833ZM25.3272 32.5773C25.3272 32.4089 25.2845 32.3246 25.0709 32.3246H22.7645C22.5937 32.3246 22.551 32.4089 22.551 32.5773V41.4226C22.551 41.6753 22.5937 41.7174 22.85 41.7174H25.0282C25.2845 41.7174 25.3272 41.6332 25.3272 41.4226V32.5773ZM20.7145 32.7037C20.7145 32.4931 20.6717 32.4089 20.4155 32.4089H18.5362C18.28 32.4089 18.2373 32.4931 18.2373 32.7037V39.7378C18.2373 39.7378 14.436 33.9673 13.9662 33.2091C13.3966 32.4066 13.1758 32.4068 11.7527 32.4087C11.6821 32.4088 11.6085 32.4089 11.5317 32.4089H9.35352C9.09726 32.4089 9.05455 32.4931 9.05455 32.7037V41.5068C9.05455 41.7596 9.09726 41.8017 9.35352 41.8017H11.2328C11.489 41.8017 11.5317 41.7596 11.5317 41.5068V34.5991C11.5317 34.5991 14.6923 39.3587 15.7174 40.9593C16.2299 41.8017 16.358 41.8017 17.8529 41.8017H20.4155C20.6717 41.8017 20.7145 41.7596 20.7145 41.5068V32.7037ZM76.6649 32.7037C76.6649 32.4931 76.6222 32.4089 76.366 32.4089H74.4867C74.2304 32.4089 74.1877 32.4931 74.1877 32.7037V39.7378C74.1877 39.7378 70.4292 33.9673 69.9167 33.2091C69.347 32.4066 69.1263 32.4068 67.7032 32.4087C67.6325 32.4088 67.559 32.4089 67.4822 32.4089H65.304C65.0477 32.4089 65.005 32.4931 65.005 32.7037V41.5068C65.005 41.7596 65.0477 41.8017 65.304 41.8017H67.1832C67.4395 41.8017 67.4822 41.7596 67.4822 41.5068V34.5991C67.4822 34.5991 70.6001 39.3587 71.6678 40.9593C72.1803 41.8017 72.3085 41.8017 73.8033 41.8017H76.366C76.6222 41.8017 76.6649 41.7596 76.6649 41.5068V32.7037ZM37.9267 38.0109C37.585 36.4524 36.3464 36.1576 34.6807 35.9891C34.4136 35.9651 34.0224 35.9344 33.5814 35.8997C32.4709 35.8125 31.0454 35.7004 30.4951 35.61C30.1961 35.5679 30.068 35.3994 30.068 35.1888V34.9782V34.8097C30.1107 34.5149 30.2388 34.3885 30.5378 34.3885H37.2433C37.4996 34.4306 37.585 34.3464 37.585 34.1358V32.6195C37.585 32.4089 37.4996 32.3667 37.2433 32.3667H30.4097C28.6159 32.3667 27.6335 32.9985 27.3345 34.3043C27.2918 34.5991 27.2918 34.9782 27.2918 35.2309C27.2918 35.5258 27.2918 35.8627 27.3345 36.1154C27.42 36.8736 27.9325 37.716 29.9826 37.9266C31.5629 38.0951 33.9119 38.3057 34.7234 38.3478C35.0885 38.3878 35.1454 38.6178 35.1868 38.7851C35.1889 38.794 35.1911 38.8027 35.1932 38.8111V39.0639V39.443C35.1505 39.6536 35.0651 39.7378 34.7661 39.7378H27.6335C27.3773 39.7378 27.3345 39.7799 27.3345 40.0326V41.5068C27.3345 41.7596 27.3773 41.8017 27.6335 41.8017H34.6807C36.4745 41.8017 37.585 41.5068 37.884 40.0326C37.9694 39.6957 37.9694 39.3166 37.9694 39.0217C37.9694 38.7174 37.951 38.4312 37.9383 38.2348C37.9317 38.1323 37.9267 38.0542 37.9267 38.0109ZM50.0137 38.0109C49.672 36.4524 48.4334 36.1576 46.7677 35.9891C46.4923 35.9632 46.0679 35.9294 45.5896 35.8913C44.5105 35.8053 43.1575 35.6976 42.6248 35.61C42.2831 35.5679 42.1977 35.3994 42.1977 35.1888V34.9782V34.8097C42.2404 34.5149 42.3686 34.3885 42.6675 34.3885H49.373C49.6293 34.4306 49.7147 34.3464 49.7147 34.1358V32.6195C49.7147 32.4089 49.6293 32.3667 49.373 32.3667H42.5394C40.7456 32.3667 39.7632 32.9985 39.4643 34.3043C39.4216 34.5991 39.4216 34.9781 39.4216 35.2308V35.2309V35.231C39.4216 35.5258 39.4216 35.8627 39.4643 36.1154C39.5924 36.8736 40.0622 37.716 42.1123 37.9266C43.6926 38.0951 46.0416 38.3057 46.8531 38.3478C47.1948 38.3899 47.2802 38.6427 47.323 38.8111V39.0639V39.443C47.2802 39.6536 47.1948 39.7378 46.8959 39.7378H39.7632C39.507 39.7378 39.4643 39.7799 39.4643 40.0326V41.5068C39.4643 41.7596 39.507 41.8017 39.7632 41.8017H46.7677C48.5616 41.8017 49.672 41.5068 49.971 40.0326C50.0564 39.6957 50.0564 39.3166 50.0564 39.0217C50.0564 38.7174 50.038 38.4312 50.0253 38.2348C50.0187 38.1323 50.0137 38.0542 50.0137 38.0109Z" fill="#141414"/>
</svg>
