<svg width="201" height="149" viewBox="0 0 201 149" fill="none" xmlns="http://www.w3.org/2000/svg">
<path fill-rule="evenodd" clip-rule="evenodd" d="M170.715 0C177.329 2.01743 183.833 3.2794 189.782 6.18136C193.514 8.00167 196.658 10.4581 198.664 14.1055C200.602 17.6289 200.438 21.0727 198.129 24.3907C196.305 27.0131 193.788 28.8643 191.001 30.4162C185.097 33.7036 179.168 36.9541 173.612 40.7918C171.39 42.326 169.183 43.8971 167.537 46.0566C167.168 46.5401 166.88 46.48 166.413 46.2814C161.519 44.2003 156.501 42.4392 151.404 40.8475C151.518 40.2126 152.106 40.3239 152.467 40.1887C162.205 36.5498 171.914 32.8514 181.004 27.7989C182.802 26.7994 184.512 25.6774 186.093 24.3698C190.715 20.5459 187.902 15.2258 184.114 13.5881C183.239 13.2098 182.424 13.1989 181.565 13.8074C161.939 27.694 139.854 35.5996 116.004 39.0139C87.5616 43.0856 59.4873 41.2801 31.8814 33.3709C22.7181 30.7459 13.8707 27.3522 5.8331 22.208C3.70364 20.845 1.70944 19.3143 0 17.438C3.36502 19.3929 6.78874 21.2192 10.3526 22.7887C20.7148 27.3522 31.6045 30.1643 42.8068 31.8169C74.2404 36.4538 105.248 34.2696 135.807 25.9108C146.456 22.9979 156.706 19.0435 166.33 13.6609C167.687 12.9022 169.016 12.1031 170.162 11.0539C173.301 8.17935 173.773 4.9798 171.597 1.37275C171.369 0.994722 171.12 0.629067 170.715 0Z" fill="#FE663D"/>
<path fill-rule="evenodd" clip-rule="evenodd" d="M0 85.6935C53.7262 36.6165 143.213 35.5628 198.214 83.5619C197.918 83.7816 197.75 83.4978 197.581 83.3766C175.991 67.8928 151.901 58.8625 125.439 56.072C97.4052 53.116 70.4912 57.284 44.8052 68.9024C35.2577 73.2211 26.3013 78.5359 17.9429 84.8284C17.1418 85.4316 16.3537 85.7234 15.3328 85.7141C10.3079 85.6686 5.28273 85.6935 0 85.6935Z" fill="#FE663D"/>
<path fill-rule="evenodd" clip-rule="evenodd" d="M119.643 148.214C114.509 147.141 110.127 144.743 106.024 141.87C97.8153 136.119 91.7034 128.733 87.127 120.199C86.5763 119.171 86.0043 118.757 84.7327 118.796C80.9008 118.917 80.8748 118.857 80.963 122.518C81.0485 126.056 81.1566 129.594 81.3288 133.128C81.3744 134.063 81.1223 134.371 80.0979 134.33C78.213 134.255 76.3196 134.25 74.435 134.331C73.3721 134.376 73.1818 134.008 73.2278 133.103C73.6358 125.076 73.7709 117.043 73.5534 109.009C73.4823 106.38 73.3503 103.753 73.2452 101.124C73.2247 100.613 73.0296 100.042 73.9712 100.065C80.4453 100.219 86.9442 99.6378 93.3909 100.419C97.2964 100.892 100.597 102.469 101.659 106.427C103.143 111.952 100.131 116.849 95.4155 117.937C94.6043 118.124 94.812 118.465 95.0657 118.944C98.7778 125.955 103.255 132.489 108.779 138.379C112.115 141.937 115.771 145.179 119.643 148.214ZM81.1273 105.413C81.1476 106.846 80.9105 112.487 80.9117 113.874C80.9123 114.304 80.8492 114.766 81.5645 114.745C84.4106 114.662 87.2929 115.027 90.0815 114.21C92.9828 113.36 94.1618 111.499 93.7948 108.438C93.5057 106.028 91.7605 104.521 88.8877 104.401C86.6472 104.308 84.3978 104.426 82.1536 104.384C81.2989 104.368 81.1178 104.734 81.1273 105.413Z" fill="#FE663D"/>
<path fill-rule="evenodd" clip-rule="evenodd" d="M66.0706 116.896C66.0054 120.187 65.7535 123.265 64.8408 126.255C63.1597 131.763 59.5229 134.689 54.1742 135.416C50.9084 135.86 47.6566 135.84 44.4213 135.141C39.7776 134.138 36.6917 131.213 35.2943 126.477C33.5179 120.455 33.5096 114.335 35.0584 108.259C36.4686 102.726 39.9313 99.5019 45.3127 98.6202C48.7133 98.0633 52.118 98.0524 55.4919 98.757C60.6174 99.8273 63.6908 103.231 65.0779 108.46C65.8256 111.278 66.0248 114.168 66.0706 116.896ZM58.6148 117.113C58.6003 114.157 58.5314 111.205 57.6569 108.355C56.8153 105.613 55.147 103.739 52.3856 103.308C45.8601 102.29 43.1186 104.752 42.1566 109.308C41.0715 114.449 41.047 119.651 42.2101 124.781C43.2051 129.168 45.6557 130.907 50.2796 130.851C54.5625 130.798 56.9707 128.826 57.944 124.565C58.5033 122.116 58.6148 119.62 58.6148 117.113Z" fill="#FE663D"/>
<path fill-rule="evenodd" clip-rule="evenodd" d="M23.426 124.998C23.918 117.165 23.9063 109.469 23.4203 101.782C23.332 100.386 23.7038 100.07 25.0686 100.108C28.6072 100.208 28.6123 100.139 28.4479 103.615C27.9951 113.195 28.0746 122.773 28.564 132.348C28.6254 133.547 28.3178 133.884 27.1302 133.809C25.2933 133.695 23.1954 134.279 21.6732 133.575C20.1416 132.866 19.5707 130.69 18.5905 129.151C14.4227 122.606 10.2183 116.086 5.78671 109.713C5.5839 109.421 5.36831 109.138 4.8221 108.92C4.8221 111.993 4.77438 115.067 4.83318 118.139C4.92521 122.928 5.0482 127.718 5.25356 132.503C5.301 133.606 4.99224 133.923 3.9481 133.796C2.69974 133.644 1.01452 134.346 0.306114 133.495C-0.290943 132.778 0.160116 131.168 0.212664 129.957C0.621117 120.518 0.635603 111.08 0.0984791 101.647C0.0257643 100.375 0.360934 99.9624 1.61299 100.126C2.3569 100.223 3.14994 100.268 3.87681 100.121C6.52323 99.5859 7.88606 100.877 9.17931 103.038C13.3067 109.936 17.6753 116.691 22.2492 123.309C22.6395 123.874 23.0337 124.435 23.426 124.998Z" fill="#FE663D"/>
<path fill-rule="evenodd" clip-rule="evenodd" d="M199.166 105.473C195.737 103.867 192.328 103.107 188.776 103.206C187.797 103.233 186.808 103.322 185.849 103.523C182.855 104.148 180.711 105.948 179.811 109.138C178.479 113.859 178.248 118.659 179.562 123.425C180.765 127.787 183.719 130.153 187.941 130.358C189.295 130.423 190.652 130.448 192.009 130.44C192.94 130.434 193.39 130.021 193.359 128.862C193.267 125.436 193.208 122.009 192.703 118.621C192.568 117.711 192.629 117.348 193.597 117.386C195.466 117.459 197.339 117.415 199.211 117.403C199.754 117.4 200.075 117.471 199.986 118.236C199.392 123.351 199.489 128.493 199.597 133.629C199.619 134.674 199.378 135.026 198.373 134.98C195.793 134.86 193.252 135.448 190.685 135.604C188.159 135.758 185.635 135.818 183.13 135.321C177.689 134.24 174.138 130.821 172.557 125.146C171.114 119.966 171.069 114.692 172.351 109.477C174.047 102.581 178.321 99.0336 185.584 98.3707C189.795 97.9859 193.997 98.3843 198.194 98.7808C198.856 98.8431 199.206 99.0185 199.182 99.8457C199.131 101.654 199.166 103.465 199.166 105.473Z" fill="#FE663D"/>
<path fill-rule="evenodd" clip-rule="evenodd" d="M143.276 116.899C143.349 111.691 143.15 106.488 142.877 101.288C142.826 100.316 143.036 99.9941 144.141 100C151.814 100.045 159.487 100.044 167.16 100C168.231 99.9941 168.508 100.281 168.5 101.265C168.474 104.298 168.519 104.303 165.296 104.28C160.904 104.248 156.511 104.246 152.122 104.142C150.973 104.114 150.653 104.428 150.663 105.476C150.683 107.557 150.606 109.641 150.464 111.718C150.396 112.714 150.815 112.874 151.753 112.87C156.195 112.849 160.64 112.886 165.073 112.591C166.27 112.511 166.741 112.726 166.701 113.983C166.61 116.852 166.685 116.873 163.627 116.778C159.691 116.656 155.755 116.585 151.817 116.625C150.83 116.635 150.39 116.803 150.435 117.864C150.588 121.457 150.666 125.054 150.694 128.65C150.701 129.664 151.083 129.888 152.106 129.866C157.455 129.751 162.807 129.744 168.155 129.606C169.386 129.575 169.664 129.922 169.642 131.013C169.584 133.9 169.638 133.901 166.577 133.901C159.157 133.902 151.736 133.875 144.316 133.928C143.105 133.937 142.805 133.63 142.864 132.511C143.139 127.311 143.333 122.108 143.276 116.899Z" fill="#FE663D"/>
<path fill-rule="evenodd" clip-rule="evenodd" d="M120.982 127.47C122.705 122.334 124.452 117.205 126.143 112.059C127.308 108.516 128.42 104.957 129.499 101.389C129.753 100.552 130.082 100.12 131.097 100.199C132.327 100.296 133.574 100.264 134.81 100.211C135.732 100.172 135.888 100.39 135.554 101.235C133.864 105.499 132.221 109.78 130.594 114.067C128.246 120.256 125.981 126.473 124.052 132.792C123.777 133.692 123.342 133.955 122.397 133.916C120.667 133.843 118.925 133.822 117.198 133.922C116.042 133.989 115.586 133.557 115.236 132.558C111.749 122.621 108.167 112.715 104.231 102.927C103.144 100.223 103.148 100.19 106.211 100.234C108.028 100.259 110.301 99.5322 111.534 100.521C112.684 101.444 112.758 103.584 113.287 105.194C115.728 112.634 118.162 120.076 120.598 127.518C120.726 127.502 120.854 127.486 120.982 127.47Z" fill="#FE663D"/>
</svg>
