<svg width="262" height="62" viewBox="0 0 262 62" fill="none" xmlns="http://www.w3.org/2000/svg">
<path fill-rule="evenodd" clip-rule="evenodd" d="M46.4179 0L31.1259 15.3141L23.1581 23.2922L30.584 30.7288L45.876 15.4147L61.168 30.7288L53.8425 38.0637L61.7099 45.9424L77.0019 30.6283L46.4179 0Z" fill="#141414"/>
<path fill-rule="evenodd" clip-rule="evenodd" d="M46.4179 30.6283L31.1259 45.9424L15.8339 30.6283L23.1581 23.2922L15.292 15.4147L0 30.7288L30.584 61.3559L45.876 46.0418L53.8425 38.0625L46.4179 30.6271V30.6283Z" fill="#141414"/>
<path fill-rule="evenodd" clip-rule="evenodd" d="M90.5472 33.9136C91.3999 33.9136 92.1027 33.7925 92.635 33.532C93.668 33.0596 94.1397 32.0542 94.1397 30.6974C94.1397 29.5733 93.6982 28.5775 92.7245 27.9852C92.1632 27.6642 91.4604 27.543 90.4867 27.543H89.6351V33.9148H90.5472V33.9136ZM85.5998 24.2675H90.6681C92.4342 24.2675 93.9099 24.5085 95.053 25.0912C97.1698 26.0967 98.3238 28.0155 98.3238 30.6986C98.3238 32.97 97.3513 35.3915 94.4603 36.5072C93.3668 36.919 92.0229 37.1795 90.3064 37.1795H89.6242V43.7015H85.5901V24.2675H85.601H85.5998ZM111.309 35.7125L110.164 32.437C109.692 31.0197 109.462 30.1959 109.281 29.5418H109.22C109.07 30.2262 108.78 31.0499 108.247 32.4673L107.074 35.7137H111.308L111.309 35.7125ZM107.546 24.1766H110.817L118.743 43.7015H114.408L112.521 38.9481H105.93L104.134 43.7015H99.9798L107.546 24.1766ZM126.681 33.0899C127.564 33.0899 128.125 32.9397 128.627 32.678C129.389 32.2056 129.921 31.4121 129.921 30.3159C129.921 29.2813 129.45 28.397 128.597 27.9549C128.155 27.6835 127.604 27.543 126.71 27.543H125.175V33.0911H126.681V33.0899ZM121.142 24.2675H126.941C128.677 24.2675 129.971 24.5291 131.005 25.0004C133.243 25.9755 134.096 27.835 134.096 29.8943C134.096 32.4261 132.51 34.2056 130.323 34.8791V34.9397C130.915 35.2607 131.767 36.3255 132.802 38.1256L135.951 43.7015H131.326L128.767 39.0389C127.794 37.2098 127.111 36.4769 126.651 36.3558H125.175V43.7015H121.142V24.2675Z" fill="#141414"/>
<path d="M143.025 24.2674H138.992V43.7015H143.025V24.2674Z" fill="#141414"/>
<path fill-rule="evenodd" clip-rule="evenodd" d="M151.304 27.6943H145.645V24.2673H161.489L160.424 27.6943H155.338V43.7014H151.304V27.6943ZM163.756 24.2673H174.975L173.91 27.6943H167.79V32.1764H173.941V35.5622H167.79V40.2853H174.945V43.7014H163.756V24.2673ZM182.631 27.6943H176.982V24.2673H192.814L191.761 27.6943H186.663V43.7014H182.631V27.6943ZM200.42 41.8722C203.039 41.8722 204.775 40.8377 204.775 38.2454C204.775 36.0649 203.16 34.6779 200.682 34.6779H197.531V41.8734H200.42V41.8722ZM199.649 32.8487C202.237 32.8487 203.621 31.5828 203.621 29.4217C203.621 27.4835 202.497 26.0856 199.729 26.0856H197.521V32.839H199.649V32.8487ZM195.353 24.2673H199.859C203.983 24.2673 205.809 26.5387 205.809 29.1916C205.809 31.1709 204.836 32.7288 203.251 33.412V33.4726C205.428 33.945 207.024 35.7427 207.024 38.1945C207.024 41.47 204.725 43.7111 200.42 43.7111H195.353V24.2673ZM220.057 36.6572L218.051 31.0498C217.429 29.3418 217.137 28.4272 216.897 27.6943H216.836C216.595 28.4381 216.275 29.3418 215.663 31.0498L213.626 36.6572H220.057ZM216.114 24.2068H217.619L225.045 43.7014H222.686L220.77 38.4864H212.963L211.047 43.7014H208.749L216.114 24.2068ZM241.962 43.7014L232.66 31.372C231.721 30.1424 230.807 28.8928 229.921 27.6241H229.861C229.921 28.598 229.951 29.4217 229.951 30.9493V43.6917H227.774V24.2673H229.861L238.811 36.1242C239.776 37.4146 240.719 38.721 241.641 40.043H241.701C241.641 39.0085 241.641 38.1545 241.641 36.627V24.2673H243.788V43.7014H241.962ZM248.564 24.2673H250.742V33.1709H250.802L258.166 24.2673H260.756L252.688 33.8832L261.278 43.7014H258.549L250.802 34.8281H250.742V43.7014H248.564V24.2673Z" fill="#141414"/>
</svg>
