<svg width="57" height="56" viewBox="0 0 57 56" fill="none" xmlns="http://www.w3.org/2000/svg">
<path fill-rule="evenodd" clip-rule="evenodd" d="M25.8786 0C24.2218 0 22.8786 1.34314 22.8786 3V22.8308H3.04785C1.391 22.8308 0.0478516 24.1739 0.0478516 25.8308V30.1692C0.0478516 31.8261 1.391 33.1692 3.04785 33.1692H22.8786V53C22.8786 54.6569 24.2218 56 25.8786 56H30.2171C31.8739 56 33.2171 54.6569 33.2171 53V33.1692H53.0479C54.7047 33.1692 56.0479 31.8261 56.0479 30.1692V25.8308C56.0479 24.1739 54.7047 22.8308 53.0479 22.8308H33.2171V3C33.2171 1.34315 31.8739 0 30.2171 0H25.8786Z" fill="white"/>
</svg>
