<svg width="1572" height="569" viewBox="0 0 1572 569" fill="none" xmlns="http://www.w3.org/2000/svg">
<rect width="344" height="89" rx="8" fill="#F6F4F2"/>
<path d="M80.7617 50.976V34.224C82.9857 34.16 84.4577 34.128 85.1777 34.128C88.7137 34.128 90.4817 35.512 90.4817 38.28C90.4817 39.304 90.1857 40.16 89.5937 40.848C89.0017 41.52 88.2097 41.976 87.2177 42.216V42.264C88.4657 42.408 89.4257 42.832 90.0977 43.536C90.7857 44.224 91.1297 45.144 91.1297 46.296C91.1297 47.864 90.5937 49.056 89.5217 49.872C88.4657 50.672 87.0097 51.072 85.1537 51.072C83.3937 51.072 81.9297 51.04 80.7617 50.976ZM85.2737 43.008H82.0817V49.728C83.6817 49.792 84.7217 49.824 85.2017 49.824C86.6897 49.824 87.8257 49.52 88.6097 48.912C89.4097 48.304 89.8097 47.408 89.8097 46.224C89.8097 45.2 89.4177 44.408 88.6337 43.848C87.8497 43.288 86.7297 43.008 85.2737 43.008ZM85.1297 35.376C84.4417 35.376 83.4257 35.4 82.0817 35.448V41.832H85.3457C86.4497 41.832 87.3537 41.536 88.0577 40.944C88.7937 40.352 89.1617 39.552 89.1617 38.544C89.1617 36.432 87.8177 35.376 85.1297 35.376ZM100.311 38.112L99.6386 37.104L103.455 34.056H104.319V51H103.071V35.88L100.311 38.112ZM121.888 48.384L122.416 49.368C121.84 49.944 121.08 50.4 120.136 50.736C119.208 51.056 118.232 51.216 117.208 51.216C114.712 51.216 112.68 50.432 111.112 48.864C109.56 47.312 108.784 45.224 108.784 42.6C108.784 40.12 109.536 38.072 111.04 36.456C112.544 34.808 114.536 33.984 117.016 33.984C119.144 33.984 120.84 34.512 122.104 35.568L121.48 36.552C120.344 35.672 118.864 35.232 117.04 35.232C114.992 35.232 113.336 35.928 112.072 37.32C110.808 38.68 110.176 40.44 110.176 42.6C110.176 44.792 110.832 46.568 112.144 47.928C113.456 49.288 115.176 49.968 117.304 49.968C119.064 49.968 120.592 49.44 121.888 48.384ZM134.119 51.216C133.383 51.216 132.567 51.08 131.671 50.808C130.823 50.552 130.223 50.208 129.871 49.776L130.519 48.816C130.935 49.2 131.455 49.504 132.079 49.728C132.719 49.936 133.335 50.04 133.927 50.04C134.935 50.04 135.743 49.84 136.351 49.44C136.959 49.04 137.263 48.504 137.263 47.832C137.263 47.272 137.039 46.832 136.591 46.512C136.143 46.192 135.535 46.032 134.767 46.032H132.943V45H134.647C135.255 45 135.775 44.808 136.207 44.424C136.639 44.04 136.855 43.576 136.855 43.032C136.855 42.424 136.615 41.96 136.135 41.64C135.655 41.32 134.983 41.16 134.119 41.16C132.855 41.16 131.727 41.56 130.735 42.36L130.231 41.4C131.143 40.456 132.495 39.984 134.287 39.984C135.519 39.984 136.471 40.24 137.143 40.752C137.831 41.248 138.175 41.936 138.175 42.816C138.175 44.08 137.527 44.944 136.231 45.408V45.456C136.967 45.52 137.543 45.792 137.959 46.272C138.375 46.736 138.583 47.312 138.583 48C138.583 48.992 138.175 49.776 137.359 50.352C136.543 50.928 135.463 51.216 134.119 51.216ZM142.111 42L141.775 40.968C142.847 40.312 143.991 39.984 145.207 39.984C146.615 39.984 147.631 40.336 148.255 41.04C148.895 41.744 149.215 42.832 149.215 44.304V51H147.967V49.344C147.087 50.544 145.855 51.144 144.271 51.144C143.263 51.144 142.455 50.856 141.847 50.28C141.239 49.688 140.935 48.904 140.935 47.928C140.935 46.872 141.319 46.048 142.087 45.456C142.839 44.864 143.823 44.568 145.039 44.568C146.255 44.568 147.231 44.84 147.967 45.384C147.967 44.264 147.887 43.408 147.727 42.816C147.599 42.24 147.335 41.832 146.935 41.592C146.551 41.352 145.951 41.208 145.135 41.16C144.159 41.16 143.151 41.44 142.111 42ZM144.655 49.968C145.999 49.968 147.103 49.4 147.967 48.264V46.464C147.183 45.888 146.247 45.6 145.159 45.6C144.343 45.6 143.655 45.8 143.095 46.2C142.535 46.6 142.255 47.152 142.255 47.856C142.255 48.496 142.479 49.008 142.927 49.392C143.375 49.776 143.951 49.968 144.655 49.968ZM152.791 51V40.2C153.319 40.2 153.831 40.192 154.327 40.176C155.351 40.144 155.999 40.128 156.271 40.128C159.247 40.128 160.735 41.056 160.735 42.912C160.735 43.536 160.535 44.08 160.135 44.544C159.751 44.992 159.223 45.272 158.551 45.384V45.432C160.279 45.688 161.143 46.552 161.143 48.024C161.143 50.056 159.535 51.072 156.319 51.072C156.111 51.072 155.479 51.056 154.423 51.024C153.895 51.008 153.351 51 152.791 51ZM156.631 46.032H154.039V49.848C155.287 49.88 156.095 49.896 156.463 49.896C158.703 49.896 159.823 49.232 159.823 47.904C159.823 46.656 158.759 46.032 156.631 46.032ZM156.415 41.304C155.887 41.304 155.095 41.32 154.039 41.352V45H156.895C157.679 45 158.295 44.832 158.743 44.496C159.191 44.144 159.415 43.68 159.415 43.104C159.415 41.904 158.415 41.304 156.415 41.304ZM172.889 48.72L173.297 49.68C172.321 50.704 170.993 51.216 169.313 51.216C167.585 51.216 166.201 50.704 165.161 49.68C164.105 48.656 163.577 47.296 163.577 45.6C163.577 43.968 164.057 42.624 165.017 41.568C165.993 40.512 167.337 39.984 169.049 39.984C170.441 39.984 171.609 40.432 172.553 41.328C173.481 42.208 173.945 43.384 173.945 44.856C173.945 45.24 173.921 45.576 173.873 45.864H164.969C165.017 47.16 165.441 48.184 166.241 48.936C167.041 49.672 168.089 50.04 169.385 50.04C170.889 50.04 172.057 49.6 172.889 48.72ZM168.929 41.16C167.777 41.16 166.841 41.496 166.121 42.168C165.417 42.84 165.009 43.728 164.897 44.832H172.673C172.657 43.696 172.313 42.8 171.641 42.144C170.969 41.488 170.065 41.16 168.929 41.16ZM185.318 51H184.07V41.448H179.51L179.366 43.8C179.158 46.84 178.654 48.856 177.854 49.848C177.214 50.68 176.422 51.096 175.478 51.096L175.382 49.872C175.798 49.872 176.19 49.68 176.558 49.296C177.438 48.48 177.974 46.568 178.166 43.56L178.334 40.2H185.318V51ZM197.567 42L190.367 51H189.119V40.2H190.367V49.2L197.567 40.2H198.815V51H197.567V42ZM210.956 41.448H206.66V40.2H216.5V41.448H212.204V51H210.956V41.448ZM223.218 51.216C221.554 51.216 220.194 50.688 219.138 49.632C218.082 48.576 217.554 47.232 217.554 45.6C217.554 43.968 218.082 42.624 219.138 41.568C220.194 40.512 221.554 39.984 223.218 39.984C224.882 39.984 226.242 40.512 227.298 41.568C228.354 42.624 228.882 43.968 228.882 45.6C228.882 47.232 228.354 48.576 227.298 49.632C226.242 50.688 224.882 51.216 223.218 51.216ZM223.218 50.04C224.514 50.04 225.554 49.632 226.338 48.816C227.154 47.984 227.562 46.912 227.562 45.6C227.562 44.304 227.154 43.24 226.338 42.408C225.522 41.576 224.482 41.16 223.218 41.16C221.97 41.16 220.93 41.576 220.098 42.408C219.282 43.24 218.874 44.304 218.874 45.6C218.874 46.896 219.282 47.96 220.098 48.792C220.914 49.624 221.954 50.04 223.218 50.04ZM231.939 51V40.2C232.467 40.2 232.979 40.192 233.475 40.176C234.499 40.144 235.147 40.128 235.419 40.128C238.395 40.128 239.883 41.056 239.883 42.912C239.883 43.536 239.683 44.08 239.283 44.544C238.899 44.992 238.371 45.272 237.699 45.384V45.432C239.427 45.688 240.291 46.552 240.291 48.024C240.291 50.056 238.683 51.072 235.467 51.072C235.259 51.072 234.627 51.056 233.571 51.024C233.043 51.008 232.499 51 231.939 51ZM235.779 46.032H233.187V49.848C234.435 49.88 235.243 49.896 235.611 49.896C237.851 49.896 238.971 49.232 238.971 47.904C238.971 46.656 237.907 46.032 235.779 46.032ZM235.563 41.304C235.035 41.304 234.243 41.32 233.187 41.352V45H236.043C236.827 45 237.443 44.832 237.891 44.496C238.339 44.144 238.563 43.68 238.563 43.104C238.563 41.904 237.563 41.304 235.563 41.304ZM243.83 42L243.494 40.968C244.566 40.312 245.71 39.984 246.926 39.984C248.334 39.984 249.35 40.336 249.974 41.04C250.614 41.744 250.934 42.832 250.934 44.304V51H249.686V49.344C248.806 50.544 247.574 51.144 245.99 51.144C244.982 51.144 244.174 50.856 243.566 50.28C242.958 49.688 242.654 48.904 242.654 47.928C242.654 46.872 243.038 46.048 243.806 45.456C244.558 44.864 245.542 44.568 246.758 44.568C247.974 44.568 248.95 44.84 249.686 45.384C249.686 44.264 249.606 43.408 249.446 42.816C249.318 42.24 249.054 41.832 248.654 41.592C248.27 41.352 247.67 41.208 246.854 41.16C245.878 41.16 244.87 41.44 243.83 42ZM246.374 49.968C247.718 49.968 248.822 49.4 249.686 48.264V46.464C248.902 45.888 247.966 45.6 246.878 45.6C246.062 45.6 245.374 45.8 244.814 46.2C244.254 46.6 243.974 47.152 243.974 47.856C243.974 48.496 244.198 49.008 244.646 49.392C245.094 49.776 245.67 49.968 246.374 49.968ZM255.757 55.8H254.509V40.2H255.757V41.64C256.189 41.16 256.765 40.768 257.485 40.464C258.221 40.144 258.965 39.984 259.717 39.984C261.253 39.984 262.477 40.488 263.389 41.496C264.301 42.504 264.757 43.816 264.757 45.432C264.757 47.112 264.245 48.496 263.221 49.584C262.181 50.672 260.845 51.216 259.213 51.216C257.757 51.216 256.605 50.912 255.757 50.304V55.8ZM259.381 41.16C258.677 41.16 257.989 41.32 257.317 41.64C256.661 41.96 256.141 42.36 255.757 42.84V49.056C256.749 49.712 257.869 50.04 259.117 50.04C260.397 50.04 261.437 49.616 262.237 48.768C263.037 47.92 263.437 46.832 263.437 45.504C263.437 44.176 263.077 43.12 262.357 42.336C261.637 41.552 260.645 41.16 259.381 41.16Z" fill="#141414"/>
<rect x="737" y="281" width="344" height="89" rx="8" fill="#F6F4F2"/>
<path d="M808.258 331.976V315.224C810.482 315.16 811.954 315.128 812.674 315.128C816.21 315.128 817.978 316.512 817.978 319.28C817.978 320.304 817.682 321.16 817.09 321.848C816.498 322.52 815.706 322.976 814.714 323.216V323.264C815.962 323.408 816.922 323.832 817.594 324.536C818.282 325.224 818.626 326.144 818.626 327.296C818.626 328.864 818.09 330.056 817.018 330.872C815.962 331.672 814.506 332.072 812.65 332.072C810.89 332.072 809.426 332.04 808.258 331.976ZM812.77 324.008H809.578V330.728C811.178 330.792 812.218 330.824 812.698 330.824C814.186 330.824 815.322 330.52 816.106 329.912C816.906 329.304 817.306 328.408 817.306 327.224C817.306 326.2 816.914 325.408 816.13 324.848C815.346 324.288 814.226 324.008 812.77 324.008ZM812.626 316.376C811.938 316.376 810.922 316.4 809.578 316.448V322.832H812.842C813.946 322.832 814.85 322.536 815.554 321.944C816.29 321.352 816.658 320.552 816.658 319.544C816.658 317.432 815.314 316.376 812.626 316.376ZM827.807 319.112L827.135 318.104L830.951 315.056H831.815V332H830.567V316.88L827.807 319.112ZM849.384 329.384L849.912 330.368C849.336 330.944 848.576 331.4 847.632 331.736C846.704 332.056 845.728 332.216 844.704 332.216C842.208 332.216 840.176 331.432 838.608 329.864C837.056 328.312 836.28 326.224 836.28 323.6C836.28 321.12 837.032 319.072 838.536 317.456C840.04 315.808 842.032 314.984 844.512 314.984C846.64 314.984 848.336 315.512 849.6 316.568L848.976 317.552C847.84 316.672 846.36 316.232 844.536 316.232C842.488 316.232 840.832 316.928 839.568 318.32C838.304 319.68 837.672 321.44 837.672 323.6C837.672 325.792 838.328 327.568 839.64 328.928C840.952 330.288 842.672 330.968 844.8 330.968C846.56 330.968 848.088 330.44 849.384 329.384ZM866.679 329.552L867.303 330.464C866.871 331.024 866.287 331.456 865.551 331.76C864.831 332.064 864.055 332.216 863.223 332.216C861.543 332.216 860.167 331.704 859.095 330.68C858.039 329.656 857.511 328.296 857.511 326.6C857.511 325.016 858.023 323.688 859.047 322.616C860.087 321.528 861.367 320.984 862.887 320.984C864.743 320.984 866.143 321.432 867.087 322.328L866.487 323.336C865.639 322.552 864.503 322.16 863.079 322.16C861.927 322.16 860.927 322.584 860.079 323.432C859.247 324.264 858.831 325.32 858.831 326.6C858.831 327.944 859.255 329.024 860.103 329.84C860.951 330.64 862.023 331.04 863.319 331.04C864.711 331.04 865.831 330.544 866.679 329.552ZM874.355 332.216C872.691 332.216 871.331 331.688 870.275 330.632C869.219 329.576 868.691 328.232 868.691 326.6C868.691 324.968 869.219 323.624 870.275 322.568C871.331 321.512 872.691 320.984 874.355 320.984C876.019 320.984 877.379 321.512 878.435 322.568C879.491 323.624 880.019 324.968 880.019 326.6C880.019 328.232 879.491 329.576 878.435 330.632C877.379 331.688 876.019 332.216 874.355 332.216ZM874.355 331.04C875.651 331.04 876.691 330.632 877.475 329.816C878.291 328.984 878.699 327.912 878.699 326.6C878.699 325.304 878.291 324.24 877.475 323.408C876.659 322.576 875.619 322.16 874.355 322.16C873.107 322.16 872.067 322.576 871.235 323.408C870.419 324.24 870.011 325.304 870.011 326.6C870.011 327.896 870.419 328.96 871.235 329.792C872.051 330.624 873.091 331.04 874.355 331.04ZM886.412 332.216C885.676 332.216 884.86 332.08 883.964 331.808C883.116 331.552 882.516 331.208 882.164 330.776L882.812 329.816C883.228 330.2 883.748 330.504 884.372 330.728C885.012 330.936 885.628 331.04 886.22 331.04C887.228 331.04 888.036 330.84 888.644 330.44C889.252 330.04 889.556 329.504 889.556 328.832C889.556 328.272 889.332 327.832 888.884 327.512C888.436 327.192 887.828 327.032 887.06 327.032H885.236V326H886.94C887.548 326 888.068 325.808 888.5 325.424C888.932 325.04 889.148 324.576 889.148 324.032C889.148 323.424 888.908 322.96 888.428 322.64C887.948 322.32 887.276 322.16 886.412 322.16C885.148 322.16 884.02 322.56 883.028 323.36L882.524 322.4C883.436 321.456 884.788 320.984 886.58 320.984C887.812 320.984 888.764 321.24 889.436 321.752C890.124 322.248 890.468 322.936 890.468 323.816C890.468 325.08 889.82 325.944 888.524 326.408V326.456C889.26 326.52 889.836 326.792 890.252 327.272C890.668 327.736 890.876 328.312 890.876 329C890.876 329.992 890.468 330.776 889.652 331.352C888.836 331.928 887.756 332.216 886.412 332.216ZM893.588 334.736H892.412V330.824H893.756C894.172 330.296 894.54 329.44 894.86 328.256C895.196 327.072 895.412 325.736 895.508 324.248L895.676 321.2H902.564V330.824H904.364V334.736H903.188V332H893.588V334.736ZM896.852 322.376L896.708 324.728C896.58 326.2 896.356 327.48 896.036 328.568C895.732 329.624 895.412 330.376 895.076 330.824H901.316V322.376H896.852ZM907.013 323L906.677 321.968C907.749 321.312 908.893 320.984 910.109 320.984C911.517 320.984 912.533 321.336 913.157 322.04C913.797 322.744 914.117 323.832 914.117 325.304V332H912.869V330.344C911.989 331.544 910.757 332.144 909.173 332.144C908.165 332.144 907.357 331.856 906.749 331.28C906.141 330.688 905.837 329.904 905.837 328.928C905.837 327.872 906.221 327.048 906.989 326.456C907.741 325.864 908.725 325.568 909.941 325.568C911.157 325.568 912.133 325.84 912.869 326.384C912.869 325.264 912.789 324.408 912.629 323.816C912.501 323.24 912.237 322.832 911.837 322.592C911.453 322.352 910.853 322.208 910.037 322.16C909.061 322.16 908.053 322.44 907.013 323ZM909.557 330.968C910.901 330.968 912.005 330.4 912.869 329.264V327.464C912.085 326.888 911.149 326.6 910.061 326.6C909.245 326.6 908.557 326.8 907.997 327.2C907.437 327.6 907.157 328.152 907.157 328.856C907.157 329.496 907.381 330.008 907.829 330.392C908.277 330.776 908.853 330.968 909.557 330.968ZM926.549 332H925.301V322.448H920.741L920.597 324.8C920.389 327.84 919.885 329.856 919.085 330.848C918.445 331.68 917.653 332.096 916.709 332.096L916.613 330.872C917.029 330.872 917.421 330.68 917.789 330.296C918.669 329.48 919.205 327.568 919.397 324.56L919.565 321.2H926.549V332ZM938.749 329.552L939.373 330.464C938.941 331.024 938.357 331.456 937.621 331.76C936.901 332.064 936.125 332.216 935.293 332.216C933.613 332.216 932.237 331.704 931.165 330.68C930.109 329.656 929.581 328.296 929.581 326.6C929.581 325.016 930.093 323.688 931.117 322.616C932.157 321.528 933.437 320.984 934.957 320.984C936.813 320.984 938.213 321.432 939.157 322.328L938.557 323.336C937.709 322.552 936.573 322.16 935.149 322.16C933.997 322.16 932.997 322.584 932.149 323.432C931.317 324.264 930.901 325.32 930.901 326.6C930.901 327.944 931.325 329.024 932.173 329.84C933.021 330.64 934.093 331.04 935.389 331.04C936.781 331.04 937.901 330.544 938.749 329.552ZM946.016 321.2H949.232V332H947.984V327.968H945.296L942.2 332H940.664L944.072 327.68C943.352 327.568 942.736 327.232 942.224 326.672C941.728 326.096 941.48 325.408 941.48 324.608C941.48 323.568 941.856 322.744 942.608 322.136C943.36 321.512 944.496 321.2 946.016 321.2ZM942.8 324.632C942.8 325.272 943.048 325.792 943.544 326.192C944.04 326.592 944.568 326.792 945.128 326.792H947.984V322.376H945.8C944.808 322.376 944.056 322.584 943.544 323C943.048 323.4 942.8 323.944 942.8 324.632ZM961.998 332.216C961.262 332.216 960.446 332.08 959.55 331.808C958.702 331.552 958.102 331.208 957.75 330.776L958.398 329.816C958.814 330.2 959.334 330.504 959.958 330.728C960.598 330.936 961.214 331.04 961.806 331.04C962.814 331.04 963.622 330.84 964.23 330.44C964.838 330.04 965.142 329.504 965.142 328.832C965.142 328.272 964.918 327.832 964.47 327.512C964.022 327.192 963.414 327.032 962.646 327.032H960.822V326H962.526C963.134 326 963.654 325.808 964.086 325.424C964.518 325.04 964.734 324.576 964.734 324.032C964.734 323.424 964.494 322.96 964.014 322.64C963.534 322.32 962.862 322.16 961.998 322.16C960.734 322.16 959.606 322.56 958.614 323.36L958.11 322.4C959.022 321.456 960.374 320.984 962.166 320.984C963.398 320.984 964.35 321.24 965.022 321.752C965.71 322.248 966.054 322.936 966.054 323.816C966.054 325.08 965.406 325.944 964.11 326.408V326.456C964.846 326.52 965.422 326.792 965.838 327.272C966.254 327.736 966.462 328.312 966.462 329C966.462 329.992 966.054 330.776 965.238 331.352C964.422 331.928 963.342 332.216 961.998 332.216ZM969.99 323L969.654 321.968C970.726 321.312 971.87 320.984 973.086 320.984C974.494 320.984 975.51 321.336 976.134 322.04C976.774 322.744 977.094 323.832 977.094 325.304V332H975.846V330.344C974.966 331.544 973.734 332.144 972.15 332.144C971.142 332.144 970.334 331.856 969.726 331.28C969.118 330.688 968.814 329.904 968.814 328.928C968.814 327.872 969.198 327.048 969.966 326.456C970.718 325.864 971.702 325.568 972.918 325.568C974.134 325.568 975.11 325.84 975.846 326.384C975.846 325.264 975.766 324.408 975.606 323.816C975.478 323.24 975.214 322.832 974.814 322.592C974.43 322.352 973.83 322.208 973.014 322.16C972.038 322.16 971.03 322.44 969.99 323ZM972.534 330.968C973.878 330.968 974.982 330.4 975.846 329.264V327.464C975.062 326.888 974.126 326.6 973.038 326.6C972.222 326.6 971.534 326.8 970.974 327.2C970.414 327.6 970.134 328.152 970.134 328.856C970.134 329.496 970.358 330.008 970.806 330.392C971.254 330.776 971.83 330.968 972.534 330.968ZM987.869 321.2H989.477L984.149 326.36L989.909 332H988.229L982.637 326.432L987.869 321.2ZM981.917 332H980.669V321.2H981.917V332ZM992.63 323L992.294 321.968C993.366 321.312 994.51 320.984 995.726 320.984C997.134 320.984 998.15 321.336 998.774 322.04C999.414 322.744 999.734 323.832 999.734 325.304V332H998.486V330.344C997.606 331.544 996.374 332.144 994.79 332.144C993.782 332.144 992.974 331.856 992.366 331.28C991.758 330.688 991.454 329.904 991.454 328.928C991.454 327.872 991.838 327.048 992.606 326.456C993.358 325.864 994.342 325.568 995.558 325.568C996.774 325.568 997.75 325.84 998.486 326.384C998.486 325.264 998.406 324.408 998.246 323.816C998.118 323.24 997.854 322.832 997.454 322.592C997.07 322.352 996.47 322.208 995.654 322.16C994.678 322.16 993.67 322.44 992.63 323ZM995.174 330.968C996.518 330.968 997.622 330.4 998.486 329.264V327.464C997.702 326.888 996.766 326.6 995.678 326.6C994.862 326.6 994.174 326.8 993.614 327.2C993.054 327.6 992.774 328.152 992.774 328.856C992.774 329.496 992.998 330.008 993.446 330.392C993.894 330.776 994.47 330.968 995.174 330.968ZM1006.65 332.216C1005.91 332.216 1005.09 332.08 1004.2 331.808C1003.35 331.552 1002.75 331.208 1002.4 330.776L1003.05 329.816C1003.46 330.2 1003.98 330.504 1004.61 330.728C1005.25 330.936 1005.86 331.04 1006.45 331.04C1007.46 331.04 1008.27 330.84 1008.88 330.44C1009.49 330.04 1009.79 329.504 1009.79 328.832C1009.79 328.272 1009.57 327.832 1009.12 327.512C1008.67 327.192 1008.06 327.032 1007.29 327.032H1005.47V326H1007.17C1007.78 326 1008.3 325.808 1008.73 325.424C1009.17 325.04 1009.38 324.576 1009.38 324.032C1009.38 323.424 1009.14 322.96 1008.66 322.64C1008.18 322.32 1007.51 322.16 1006.65 322.16C1005.38 322.16 1004.25 322.56 1003.26 323.36L1002.76 322.4C1003.67 321.456 1005.02 320.984 1006.81 320.984C1008.05 320.984 1009 321.24 1009.67 321.752C1010.36 322.248 1010.7 322.936 1010.7 323.816C1010.7 325.08 1010.05 325.944 1008.76 326.408V326.456C1009.49 326.52 1010.07 326.792 1010.49 327.272C1010.9 327.736 1011.11 328.312 1011.11 329C1011.11 329.992 1010.7 330.776 1009.89 331.352C1009.07 331.928 1007.99 332.216 1006.65 332.216Z" fill="#141414"/>
<rect x="737" y="445" width="344" height="124" rx="8" fill="#F6F4F2"/>
<path d="M836.512 495.976V479.224C838.736 479.16 840.208 479.128 840.928 479.128C844.464 479.128 846.232 480.512 846.232 483.28C846.232 484.304 845.936 485.16 845.344 485.848C844.752 486.52 843.96 486.976 842.968 487.216V487.264C844.216 487.408 845.176 487.832 845.848 488.536C846.536 489.224 846.88 490.144 846.88 491.296C846.88 492.864 846.344 494.056 845.272 494.872C844.216 495.672 842.76 496.072 840.904 496.072C839.144 496.072 837.68 496.04 836.512 495.976ZM841.024 488.008H837.832V494.728C839.432 494.792 840.472 494.824 840.952 494.824C842.44 494.824 843.576 494.52 844.36 493.912C845.16 493.304 845.56 492.408 845.56 491.224C845.56 490.2 845.168 489.408 844.384 488.848C843.6 488.288 842.48 488.008 841.024 488.008ZM840.88 480.376C840.192 480.376 839.176 480.4 837.832 480.448V486.832H841.096C842.2 486.832 843.104 486.536 843.808 485.944C844.544 485.352 844.912 484.552 844.912 483.544C844.912 481.432 843.568 480.376 840.88 480.376ZM869.453 481.36L858.149 496H856.973V479.2H858.293V493.84L869.597 479.2H870.773V496H869.453V481.36ZM877.418 496H876.098V479.2H877.442L884.21 488.416L890.714 479.2H891.986V496H890.666V481.264L884.21 490.336H883.994L877.418 481.336V496ZM910.085 485.2H911.501L907.133 496C906.349 497.904 905.669 499.168 905.093 499.792C904.517 500.464 903.845 500.8 903.077 500.8C902.485 500.8 901.869 500.616 901.229 500.248L901.637 499.288C902.133 499.528 902.557 499.648 902.909 499.648C903.453 499.648 903.941 499.408 904.373 498.928C904.805 498.464 905.253 497.68 905.717 496.576L905.957 496L900.629 485.2H902.117L905.813 492.832L906.581 494.512C906.597 494.448 906.797 493.872 907.181 492.784L910.085 485.2ZM922.728 496.216C921.992 496.216 921.176 496.08 920.28 495.808C919.432 495.552 918.832 495.208 918.48 494.776L919.128 493.816C919.544 494.2 920.064 494.504 920.688 494.728C921.328 494.936 921.944 495.04 922.536 495.04C923.544 495.04 924.352 494.84 924.96 494.44C925.568 494.04 925.872 493.504 925.872 492.832C925.872 492.272 925.648 491.832 925.2 491.512C924.752 491.192 924.144 491.032 923.376 491.032H921.552V490H923.256C923.864 490 924.384 489.808 924.816 489.424C925.248 489.04 925.464 488.576 925.464 488.032C925.464 487.424 925.224 486.96 924.744 486.64C924.264 486.32 923.592 486.16 922.728 486.16C921.464 486.16 920.336 486.56 919.344 487.36L918.84 486.4C919.752 485.456 921.104 484.984 922.896 484.984C924.128 484.984 925.08 485.24 925.752 485.752C926.44 486.248 926.784 486.936 926.784 487.816C926.784 489.08 926.136 489.944 924.84 490.408V490.456C925.576 490.52 926.152 490.792 926.568 491.272C926.984 491.736 927.192 492.312 927.192 493C927.192 493.992 926.784 494.776 925.968 495.352C925.152 495.928 924.072 496.216 922.728 496.216ZM930.72 487L930.384 485.968C931.456 485.312 932.6 484.984 933.816 484.984C935.224 484.984 936.24 485.336 936.864 486.04C937.504 486.744 937.824 487.832 937.824 489.304V496H936.576V494.344C935.696 495.544 934.464 496.144 932.88 496.144C931.872 496.144 931.064 495.856 930.456 495.28C929.848 494.688 929.544 493.904 929.544 492.928C929.544 491.872 929.928 491.048 930.696 490.456C931.448 489.864 932.432 489.568 933.648 489.568C934.864 489.568 935.84 489.84 936.576 490.384C936.576 489.264 936.496 488.408 936.336 487.816C936.208 487.24 935.944 486.832 935.544 486.592C935.16 486.352 934.56 486.208 933.744 486.16C932.768 486.16 931.76 486.44 930.72 487ZM933.264 494.968C934.608 494.968 935.712 494.4 936.576 493.264V491.464C935.792 490.888 934.856 490.6 933.768 490.6C932.952 490.6 932.264 490.8 931.704 491.2C931.144 491.6 930.864 492.152 930.864 492.856C930.864 493.496 931.088 494.008 931.536 494.392C931.984 494.776 932.56 494.968 933.264 494.968ZM948.6 485.2H950.208L944.88 490.36L950.64 496H948.96L943.368 490.432L948.6 485.2ZM942.648 496H941.4V485.2H942.648V496ZM953.361 487L953.025 485.968C954.097 485.312 955.241 484.984 956.457 484.984C957.865 484.984 958.881 485.336 959.505 486.04C960.145 486.744 960.465 487.832 960.465 489.304V496H959.217V494.344C958.337 495.544 957.105 496.144 955.521 496.144C954.513 496.144 953.705 495.856 953.097 495.28C952.489 494.688 952.185 493.904 952.185 492.928C952.185 491.872 952.569 491.048 953.337 490.456C954.089 489.864 955.073 489.568 956.289 489.568C957.505 489.568 958.481 489.84 959.217 490.384C959.217 489.264 959.137 488.408 958.977 487.816C958.849 487.24 958.585 486.832 958.185 486.592C957.801 486.352 957.201 486.208 956.385 486.16C955.409 486.16 954.401 486.44 953.361 487ZM955.905 494.968C957.249 494.968 958.353 494.4 959.217 493.264V491.464C958.433 490.888 957.497 490.6 956.409 490.6C955.593 490.6 954.905 490.8 954.345 491.2C953.785 491.6 953.505 492.152 953.505 492.856C953.505 493.496 953.729 494.008 954.177 494.392C954.625 494.776 955.201 494.968 955.905 494.968ZM967.377 496.216C966.641 496.216 965.825 496.08 964.929 495.808C964.081 495.552 963.481 495.208 963.129 494.776L963.777 493.816C964.193 494.2 964.713 494.504 965.337 494.728C965.977 494.936 966.593 495.04 967.185 495.04C968.193 495.04 969.001 494.84 969.609 494.44C970.217 494.04 970.521 493.504 970.521 492.832C970.521 492.272 970.297 491.832 969.849 491.512C969.401 491.192 968.793 491.032 968.025 491.032H966.201V490H967.905C968.513 490 969.033 489.808 969.465 489.424C969.897 489.04 970.113 488.576 970.113 488.032C970.113 487.424 969.873 486.96 969.393 486.64C968.913 486.32 968.241 486.16 967.377 486.16C966.113 486.16 964.985 486.56 963.993 487.36L963.489 486.4C964.401 485.456 965.753 484.984 967.545 484.984C968.777 484.984 969.729 485.24 970.401 485.752C971.089 486.248 971.433 486.936 971.433 487.816C971.433 489.08 970.785 489.944 969.489 490.408V490.456C970.225 490.52 970.801 490.792 971.217 491.272C971.633 491.736 971.841 492.312 971.841 493C971.841 493.992 971.433 494.776 970.617 495.352C969.801 495.928 968.721 496.216 967.377 496.216ZM975.369 487L975.033 485.968C976.105 485.312 977.249 484.984 978.465 484.984C979.873 484.984 980.889 485.336 981.513 486.04C982.153 486.744 982.473 487.832 982.473 489.304V496H981.225V494.344C980.345 495.544 979.113 496.144 977.529 496.144C976.521 496.144 975.713 495.856 975.105 495.28C974.497 494.688 974.193 493.904 974.193 492.928C974.193 491.872 974.577 491.048 975.345 490.456C976.097 489.864 977.081 489.568 978.297 489.568C979.513 489.568 980.489 489.84 981.225 490.384C981.225 489.264 981.145 488.408 980.985 487.816C980.857 487.24 980.593 486.832 980.193 486.592C979.809 486.352 979.209 486.208 978.393 486.16C977.417 486.16 976.409 486.44 975.369 487ZM977.913 494.968C979.257 494.968 980.361 494.4 981.225 493.264V491.464C980.441 490.888 979.505 490.6 978.417 490.6C977.601 490.6 976.913 490.8 976.353 491.2C975.793 491.6 975.513 492.152 975.513 492.856C975.513 493.496 975.737 494.008 976.185 494.392C976.633 494.776 977.209 494.968 977.913 494.968ZM832.343 528.552L832.967 529.464C832.535 530.024 831.951 530.456 831.215 530.76C830.495 531.064 829.719 531.216 828.887 531.216C827.207 531.216 825.831 530.704 824.759 529.68C823.703 528.656 823.175 527.296 823.175 525.6C823.175 524.016 823.687 522.688 824.711 521.616C825.751 520.528 827.031 519.984 828.551 519.984C830.407 519.984 831.807 520.432 832.751 521.328L832.151 522.336C831.303 521.552 830.167 521.16 828.743 521.16C827.591 521.16 826.591 521.584 825.743 522.432C824.911 523.264 824.495 524.32 824.495 525.6C824.495 526.944 824.919 528.024 825.767 528.84C826.615 529.64 827.687 530.04 828.983 530.04C830.375 530.04 831.495 529.544 832.343 528.552ZM836.957 531H835.709V520.2H836.885L841.373 526.224L845.693 520.2H846.821V531H845.573V522.096L841.373 527.928H841.301L836.957 522.096V531ZM859.182 528.72L859.59 529.68C858.614 530.704 857.286 531.216 855.606 531.216C853.878 531.216 852.494 530.704 851.454 529.68C850.398 528.656 849.87 527.296 849.87 525.6C849.87 523.968 850.35 522.624 851.31 521.568C852.286 520.512 853.63 519.984 855.342 519.984C856.734 519.984 857.902 520.432 858.846 521.328C859.774 522.208 860.238 523.384 860.238 524.856C860.238 525.24 860.214 525.576 860.166 525.864H851.262C851.31 527.16 851.734 528.184 852.534 528.936C853.334 529.672 854.382 530.04 855.678 530.04C857.182 530.04 858.35 529.6 859.182 528.72ZM855.222 521.16C854.07 521.16 853.134 521.496 852.414 522.168C851.71 522.84 851.302 523.728 851.19 524.832H858.966C858.95 523.696 858.606 522.8 857.934 522.144C857.262 521.488 856.358 521.16 855.222 521.16ZM872.728 531H871.48V526.104H864.472V531H863.224V520.2H864.472V524.928H871.48V520.2H872.728V531ZM884.961 522L877.761 531H876.513V520.2H877.761V529.2L884.961 520.2H886.209V531H884.961V522ZM898.846 531H897.598V521.448H893.038L892.894 523.8C892.686 526.84 892.182 528.856 891.382 529.848C890.742 530.68 889.95 531.096 889.006 531.096L888.91 529.872C889.326 529.872 889.718 529.68 890.086 529.296C890.966 528.48 891.502 526.568 891.694 523.56L891.862 520.2H898.846V531ZM911.046 528.552L911.67 529.464C911.238 530.024 910.654 530.456 909.918 530.76C909.198 531.064 908.422 531.216 907.59 531.216C905.91 531.216 904.534 530.704 903.462 529.68C902.406 528.656 901.878 527.296 901.878 525.6C901.878 524.016 902.39 522.688 903.414 521.616C904.454 520.528 905.734 519.984 907.254 519.984C909.11 519.984 910.51 520.432 911.454 521.328L910.854 522.336C910.006 521.552 908.87 521.16 907.446 521.16C906.294 521.16 905.294 521.584 904.446 522.432C903.614 523.264 903.198 524.32 903.198 525.6C903.198 526.944 903.622 528.024 904.47 528.84C905.318 529.64 906.39 530.04 907.686 530.04C909.078 530.04 910.198 529.544 911.046 528.552ZM918.313 520.2H921.529V531H920.281V526.968H917.593L914.497 531H912.961L916.369 526.68C915.649 526.568 915.033 526.232 914.521 525.672C914.025 525.096 913.777 524.408 913.777 523.608C913.777 522.568 914.153 521.744 914.905 521.136C915.657 520.512 916.793 520.2 918.313 520.2ZM915.097 523.632C915.097 524.272 915.345 524.792 915.841 525.192C916.337 525.592 916.865 525.792 917.425 525.792H920.281V521.376H918.097C917.105 521.376 916.353 521.584 915.841 522C915.345 522.4 915.097 522.944 915.097 523.632ZM939.359 528.552L939.983 529.464C939.551 530.024 938.967 530.456 938.231 530.76C937.511 531.064 936.735 531.216 935.903 531.216C934.223 531.216 932.847 530.704 931.775 529.68C930.719 528.656 930.191 527.296 930.191 525.6C930.191 524.016 930.703 522.688 931.727 521.616C932.767 520.528 934.047 519.984 935.567 519.984C937.423 519.984 938.823 520.432 939.767 521.328L939.167 522.336C938.319 521.552 937.183 521.16 935.759 521.16C934.607 521.16 933.607 521.584 932.759 522.432C931.927 523.264 931.511 524.32 931.511 525.6C931.511 526.944 931.935 528.024 932.783 528.84C933.631 529.64 934.703 530.04 935.999 530.04C937.391 530.04 938.511 529.544 939.359 528.552ZM945.342 521.448H941.046V520.2H950.886V521.448H946.59V531H945.342V521.448ZM953.42 522L953.084 520.968C954.156 520.312 955.3 519.984 956.516 519.984C957.924 519.984 958.94 520.336 959.564 521.04C960.204 521.744 960.524 522.832 960.524 524.304V531H959.276V529.344C958.396 530.544 957.164 531.144 955.58 531.144C954.572 531.144 953.764 530.856 953.156 530.28C952.548 529.688 952.244 528.904 952.244 527.928C952.244 526.872 952.628 526.048 953.396 525.456C954.148 524.864 955.132 524.568 956.348 524.568C957.564 524.568 958.54 524.84 959.276 525.384C959.276 524.264 959.196 523.408 959.036 522.816C958.908 522.24 958.644 521.832 958.243 521.592C957.86 521.352 957.26 521.208 956.444 521.16C955.468 521.16 954.46 521.44 953.42 522ZM955.964 529.968C957.308 529.968 958.412 529.4 959.276 528.264V526.464C958.492 525.888 957.556 525.6 956.468 525.6C955.652 525.6 954.964 525.8 954.404 526.2C953.844 526.6 953.564 527.152 953.564 527.856C953.564 528.496 953.788 529.008 954.236 529.392C954.684 529.776 955.26 529.968 955.964 529.968ZM966.811 521.448H962.515V520.2H972.355V521.448H968.059V531H966.811V521.448ZM982.847 520.2H984.263L979.895 531C979.111 532.904 978.431 534.168 977.855 534.792C977.279 535.464 976.607 535.8 975.839 535.8C975.247 535.8 974.631 535.616 973.991 535.248L974.399 534.288C974.895 534.528 975.319 534.648 975.671 534.648C976.215 534.648 976.703 534.408 977.135 533.928C977.567 533.464 978.015 532.68 978.479 531.576L978.719 531L973.391 520.2H974.879L978.575 527.832L979.343 529.512C979.359 529.448 979.559 528.872 979.943 527.784L982.847 520.2ZM994.484 528.552L995.108 529.464C994.676 530.024 994.092 530.456 993.356 530.76C992.636 531.064 991.86 531.216 991.028 531.216C989.348 531.216 987.972 530.704 986.9 529.68C985.844 528.656 985.316 527.296 985.316 525.6C985.316 524.016 985.828 522.688 986.852 521.616C987.892 520.528 989.172 519.984 990.692 519.984C992.548 519.984 993.948 520.432 994.892 521.328L994.292 522.336C993.444 521.552 992.308 521.16 990.884 521.16C989.732 521.16 988.732 521.584 987.884 522.432C987.052 523.264 986.636 524.32 986.636 525.6C986.636 526.944 987.06 528.024 987.908 528.84C988.756 529.64 989.828 530.04 991.124 530.04C992.516 530.04 993.636 529.544 994.484 528.552Z" fill="#141414"/>
<rect x="1198" y="445" width="374" height="124" rx="8" fill="#F6F4F2"/>
<path d="M1310.55 495.976V479.224C1312.78 479.16 1314.25 479.128 1314.97 479.128C1318.51 479.128 1320.27 480.512 1320.27 483.28C1320.27 484.304 1319.98 485.16 1319.39 485.848C1318.79 486.52 1318 486.976 1317.01 487.216V487.264C1318.26 487.408 1319.22 487.832 1319.89 488.536C1320.58 489.224 1320.92 490.144 1320.92 491.296C1320.92 492.864 1320.39 494.056 1319.31 494.872C1318.26 495.672 1316.8 496.072 1314.95 496.072C1313.19 496.072 1311.72 496.04 1310.55 495.976ZM1315.07 488.008H1311.87V494.728C1313.47 494.792 1314.51 494.824 1314.99 494.824C1316.48 494.824 1317.62 494.52 1318.4 493.912C1319.2 493.304 1319.6 492.408 1319.6 491.224C1319.6 490.2 1319.21 489.408 1318.43 488.848C1317.64 488.288 1316.52 488.008 1315.07 488.008ZM1314.92 480.376C1314.23 480.376 1313.22 480.4 1311.87 480.448V486.832H1315.14C1316.24 486.832 1317.15 486.536 1317.85 485.944C1318.59 485.352 1318.95 484.552 1318.95 483.544C1318.95 481.432 1317.61 480.376 1314.92 480.376ZM1343.5 481.36L1332.19 496H1331.02V479.2H1332.34V493.84L1343.64 479.2H1344.82V496H1343.5V481.36ZM1351.46 496H1350.14V479.2H1351.48L1358.25 488.416L1364.76 479.2H1366.03V496H1364.71V481.264L1358.25 490.336H1358.04L1351.46 481.336V496ZM1384.13 485.2H1385.54L1381.18 496C1380.39 497.904 1379.71 499.168 1379.14 499.792C1378.56 500.464 1377.89 500.8 1377.12 500.8C1376.53 500.8 1375.91 500.616 1375.27 500.248L1375.68 499.288C1376.18 499.528 1376.6 499.648 1376.95 499.648C1377.5 499.648 1377.98 499.408 1378.42 498.928C1378.85 498.464 1379.3 497.68 1379.76 496.576L1380 496L1374.67 485.2H1376.16L1379.86 492.832L1380.62 494.512C1380.64 494.448 1380.84 493.872 1381.22 492.784L1384.13 485.2ZM1396.15 486.448H1391.85V485.2H1401.69V486.448H1397.4V496H1396.15V486.448ZM1408.41 496.216C1406.75 496.216 1405.39 495.688 1404.33 494.632C1403.27 493.576 1402.75 492.232 1402.75 490.6C1402.75 488.968 1403.27 487.624 1404.33 486.568C1405.39 485.512 1406.75 484.984 1408.41 484.984C1410.07 484.984 1411.43 485.512 1412.49 486.568C1413.55 487.624 1414.07 488.968 1414.07 490.6C1414.07 492.232 1413.55 493.576 1412.49 494.632C1411.43 495.688 1410.07 496.216 1408.41 496.216ZM1408.41 495.04C1409.71 495.04 1410.75 494.632 1411.53 493.816C1412.35 492.984 1412.75 491.912 1412.75 490.6C1412.75 489.304 1412.35 488.24 1411.53 487.408C1410.71 486.576 1409.67 486.16 1408.41 486.16C1407.16 486.16 1406.12 486.576 1405.29 487.408C1404.47 488.24 1404.07 489.304 1404.07 490.6C1404.07 491.896 1404.47 492.96 1405.29 493.792C1406.11 494.624 1407.15 495.04 1408.41 495.04ZM1417.13 496V485.2C1417.66 485.2 1418.17 485.192 1418.67 485.176C1419.69 485.144 1420.34 485.128 1420.61 485.128C1423.59 485.128 1425.07 486.056 1425.07 487.912C1425.07 488.536 1424.87 489.08 1424.47 489.544C1424.09 489.992 1423.56 490.272 1422.89 490.384V490.432C1424.62 490.688 1425.48 491.552 1425.48 493.024C1425.48 495.056 1423.87 496.072 1420.66 496.072C1420.45 496.072 1419.82 496.056 1418.76 496.024C1418.23 496.008 1417.69 496 1417.13 496ZM1420.97 491.032H1418.38V494.848C1419.63 494.88 1420.43 494.896 1420.8 494.896C1423.04 494.896 1424.16 494.232 1424.16 492.904C1424.16 491.656 1423.1 491.032 1420.97 491.032ZM1420.75 486.304C1420.23 486.304 1419.43 486.32 1418.38 486.352V490H1421.23C1422.02 490 1422.63 489.832 1423.08 489.496C1423.53 489.144 1423.75 488.68 1423.75 488.104C1423.75 486.904 1422.75 486.304 1420.75 486.304ZM1429.02 487L1428.69 485.968C1429.76 485.312 1430.9 484.984 1432.12 484.984C1433.53 484.984 1434.54 485.336 1435.17 486.04C1435.81 486.744 1436.13 487.832 1436.13 489.304V496H1434.88V494.344C1434 495.544 1432.77 496.144 1431.18 496.144C1430.17 496.144 1429.37 495.856 1428.76 495.28C1428.15 494.688 1427.85 493.904 1427.85 492.928C1427.85 491.872 1428.23 491.048 1429 490.456C1429.75 489.864 1430.73 489.568 1431.95 489.568C1433.17 489.568 1434.14 489.84 1434.88 490.384C1434.88 489.264 1434.8 488.408 1434.64 487.816C1434.51 487.24 1434.25 486.832 1433.85 486.592C1433.46 486.352 1432.86 486.208 1432.05 486.16C1431.07 486.16 1430.06 486.44 1429.02 487ZM1431.57 494.968C1432.91 494.968 1434.01 494.4 1434.88 493.264V491.464C1434.09 490.888 1433.16 490.6 1432.07 490.6C1431.25 490.6 1430.57 490.8 1430.01 491.2C1429.45 491.6 1429.17 492.152 1429.17 492.856C1429.17 493.496 1429.39 494.008 1429.84 494.392C1430.29 494.776 1430.86 494.968 1431.57 494.968ZM1440.95 500.8H1439.7V485.2H1440.95V486.64C1441.38 486.16 1441.96 485.768 1442.68 485.464C1443.41 485.144 1444.16 484.984 1444.91 484.984C1446.44 484.984 1447.67 485.488 1448.58 486.496C1449.49 487.504 1449.95 488.816 1449.95 490.432C1449.95 492.112 1449.44 493.496 1448.41 494.584C1447.37 495.672 1446.04 496.216 1444.4 496.216C1442.95 496.216 1441.8 495.912 1440.95 495.304V500.8ZM1444.57 486.16C1443.87 486.16 1443.18 486.32 1442.51 486.64C1441.85 486.96 1441.33 487.36 1440.95 487.84V494.056C1441.94 494.712 1443.06 495.04 1444.31 495.04C1445.59 495.04 1446.63 494.616 1447.43 493.768C1448.23 492.92 1448.63 491.832 1448.63 490.504C1448.63 489.176 1448.27 488.12 1447.55 487.336C1446.83 486.552 1445.84 486.16 1444.57 486.16ZM1453.33 487L1452.99 485.968C1454.06 485.312 1455.21 484.984 1456.42 484.984C1457.83 484.984 1458.85 485.336 1459.47 486.04C1460.11 486.744 1460.43 487.832 1460.43 489.304V496H1459.18V494.344C1458.3 495.544 1457.07 496.144 1455.49 496.144C1454.48 496.144 1453.67 495.856 1453.06 495.28C1452.45 494.688 1452.15 493.904 1452.15 492.928C1452.15 491.872 1452.53 491.048 1453.3 490.456C1454.05 489.864 1455.04 489.568 1456.25 489.568C1457.47 489.568 1458.45 489.84 1459.18 490.384C1459.18 489.264 1459.1 488.408 1458.94 487.816C1458.81 487.24 1458.55 486.832 1458.15 486.592C1457.77 486.352 1457.17 486.208 1456.35 486.16C1455.37 486.16 1454.37 486.44 1453.33 487ZM1455.87 494.968C1457.21 494.968 1458.32 494.4 1459.18 493.264V491.464C1458.4 490.888 1457.46 490.6 1456.37 490.6C1455.56 490.6 1454.87 490.8 1454.31 491.2C1453.75 491.6 1453.47 492.152 1453.47 492.856C1453.47 493.496 1453.69 494.008 1454.14 494.392C1454.59 494.776 1455.17 494.968 1455.87 494.968ZM1264.55 531.216C1262.89 531.216 1261.53 530.688 1260.47 529.632C1259.41 528.576 1258.89 527.232 1258.89 525.6C1258.89 523.968 1259.41 522.624 1260.47 521.568C1261.53 520.512 1262.89 519.984 1264.55 519.984C1266.21 519.984 1267.57 520.512 1268.63 521.568C1269.69 522.624 1270.21 523.968 1270.21 525.6C1270.21 527.232 1269.69 528.576 1268.63 529.632C1267.57 530.688 1266.21 531.216 1264.55 531.216ZM1264.55 530.04C1265.85 530.04 1266.89 529.632 1267.67 528.816C1268.49 527.984 1268.89 526.912 1268.89 525.6C1268.89 524.304 1268.49 523.24 1267.67 522.408C1266.85 521.576 1265.81 521.16 1264.55 521.16C1263.3 521.16 1262.26 521.576 1261.43 522.408C1260.61 523.24 1260.21 524.304 1260.21 525.6C1260.21 526.896 1260.61 527.96 1261.43 528.792C1262.25 529.624 1263.29 530.04 1264.55 530.04ZM1281.82 513.96L1282.51 514.896C1282.14 515.424 1281.7 515.784 1281.17 515.976C1280.51 516.168 1279.82 516.32 1279.08 516.432C1278.25 516.544 1277.5 516.752 1276.82 517.056C1274.98 517.84 1273.95 519.888 1273.73 523.2H1273.78C1274.14 522.32 1274.76 521.616 1275.62 521.088C1276.49 520.544 1277.42 520.272 1278.43 520.272C1280 520.272 1281.25 520.768 1282.18 521.76C1283.1 522.736 1283.57 524.048 1283.57 525.696C1283.57 527.216 1283.05 528.52 1282.01 529.608C1280.98 530.68 1279.68 531.216 1278.1 531.216C1276.4 531.216 1275.03 530.624 1273.99 529.44C1272.98 528.256 1272.48 526.632 1272.48 524.568C1272.48 519.832 1273.8 516.928 1276.44 515.856C1277.11 515.584 1277.86 515.384 1278.67 515.256C1279.63 515.096 1280.32 514.944 1280.74 514.8C1281.15 514.64 1281.51 514.36 1281.82 513.96ZM1273.8 524.784C1273.8 526.4 1274.19 527.68 1274.98 528.624C1275.76 529.568 1276.78 530.04 1278.05 530.04C1279.26 530.04 1280.26 529.624 1281.05 528.792C1281.85 527.944 1282.25 526.928 1282.25 525.744C1282.25 524.448 1281.88 523.408 1281.14 522.624C1280.41 521.84 1279.41 521.448 1278.14 521.448C1277.01 521.448 1276.04 521.784 1275.24 522.456C1274.47 523.128 1273.99 523.904 1273.8 524.784ZM1296.09 531H1294.84V526.104H1287.83V531H1286.58V520.2H1287.83V524.928H1294.84V520.2H1296.09V531ZM1304.77 531.216C1303.1 531.216 1301.74 530.688 1300.69 529.632C1299.63 528.576 1299.1 527.232 1299.1 525.6C1299.1 523.968 1299.63 522.624 1300.69 521.568C1301.74 520.512 1303.1 519.984 1304.77 519.984C1306.43 519.984 1307.79 520.512 1308.85 521.568C1309.9 522.624 1310.43 523.968 1310.43 525.6C1310.43 527.232 1309.9 528.576 1308.85 529.632C1307.79 530.688 1306.43 531.216 1304.77 531.216ZM1304.77 530.04C1306.06 530.04 1307.1 529.632 1307.89 528.816C1308.7 527.984 1309.11 526.912 1309.11 525.6C1309.11 524.304 1308.7 523.24 1307.89 522.408C1307.07 521.576 1306.03 521.16 1304.77 521.16C1303.52 521.16 1302.48 521.576 1301.65 522.408C1300.83 523.24 1300.42 524.304 1300.42 525.6C1300.42 526.896 1300.83 527.96 1301.65 528.792C1302.46 529.624 1303.5 530.04 1304.77 530.04ZM1313.49 531V520.2C1314.02 520.2 1314.53 520.192 1315.03 520.176C1316.05 520.144 1316.7 520.128 1316.97 520.128C1319.95 520.128 1321.43 521.056 1321.43 522.912C1321.43 523.536 1321.23 524.08 1320.83 524.544C1320.45 524.992 1319.92 525.272 1319.25 525.384V525.432C1320.98 525.688 1321.84 526.552 1321.84 528.024C1321.84 530.056 1320.23 531.072 1317.02 531.072C1316.81 531.072 1316.18 531.056 1315.12 531.024C1314.59 531.008 1314.05 531 1313.49 531ZM1317.33 526.032H1314.74V529.848C1315.99 529.88 1316.79 529.896 1317.16 529.896C1319.4 529.896 1320.52 529.232 1320.52 527.904C1320.52 526.656 1319.46 526.032 1317.33 526.032ZM1317.11 521.304C1316.59 521.304 1315.79 521.32 1314.74 521.352V525H1317.59C1318.38 525 1318.99 524.832 1319.44 524.496C1319.89 524.144 1320.11 523.68 1320.11 523.104C1320.11 521.904 1319.11 521.304 1317.11 521.304ZM1333.49 522L1326.29 531H1325.04V520.2H1326.29V529.2L1333.49 520.2H1334.74V531H1333.49V522ZM1347.38 531H1346.13V521.448H1341.57L1341.43 523.8C1341.22 526.84 1340.71 528.856 1339.91 529.848C1339.27 530.68 1338.48 531.096 1337.54 531.096L1337.44 529.872C1337.86 529.872 1338.25 529.68 1338.62 529.296C1339.5 528.48 1340.03 526.568 1340.23 523.56L1340.39 520.2H1347.38V531ZM1356.07 531.216C1354.41 531.216 1353.05 530.688 1351.99 529.632C1350.94 528.576 1350.41 527.232 1350.41 525.6C1350.41 523.968 1350.94 522.624 1351.99 521.568C1353.05 520.512 1354.41 519.984 1356.07 519.984C1357.74 519.984 1359.1 520.512 1360.15 521.568C1361.21 522.624 1361.74 523.968 1361.74 525.6C1361.74 527.232 1361.21 528.576 1360.15 529.632C1359.1 530.688 1357.74 531.216 1356.07 531.216ZM1356.07 530.04C1357.37 530.04 1358.41 529.632 1359.19 528.816C1360.01 527.984 1360.42 526.912 1360.42 525.6C1360.42 524.304 1360.01 523.24 1359.19 522.408C1358.38 521.576 1357.34 521.16 1356.07 521.16C1354.83 521.16 1353.79 521.576 1352.95 522.408C1352.14 523.24 1351.73 524.304 1351.73 525.6C1351.73 526.896 1352.14 527.96 1352.95 528.792C1353.77 529.624 1354.81 530.04 1356.07 530.04ZM1373.19 528.552L1373.82 529.464C1373.39 530.024 1372.8 530.456 1372.07 530.76C1371.35 531.064 1370.57 531.216 1369.74 531.216C1368.06 531.216 1366.68 530.704 1365.61 529.68C1364.55 528.656 1364.03 527.296 1364.03 525.6C1364.03 524.016 1364.54 522.688 1365.56 521.616C1366.6 520.528 1367.88 519.984 1369.4 519.984C1371.26 519.984 1372.66 520.432 1373.6 521.328L1373 522.336C1372.15 521.552 1371.02 521.16 1369.59 521.16C1368.44 521.16 1367.44 521.584 1366.59 522.432C1365.76 523.264 1365.35 524.32 1365.35 525.6C1365.35 526.944 1365.77 528.024 1366.62 528.84C1367.47 529.64 1368.54 530.04 1369.83 530.04C1371.23 530.04 1372.35 529.544 1373.19 528.552ZM1379.73 531H1376.56V520.2H1377.81V523.824H1379.9C1382.74 523.824 1384.17 525.008 1384.17 527.376C1384.17 528.496 1383.8 529.384 1383.06 530.04C1382.34 530.68 1381.23 531 1379.73 531ZM1379.68 525H1377.81V529.824H1379.66C1380.78 529.824 1381.58 529.624 1382.08 529.224C1382.59 528.824 1382.85 528.216 1382.85 527.4C1382.85 525.8 1381.79 525 1379.68 525ZM1399.89 520.2H1401.49L1396.17 525.36L1401.93 531H1400.25L1394.65 525.432L1399.89 520.2ZM1393.93 531H1392.69V520.2H1393.93V531ZM1408.67 531.216C1407 531.216 1405.64 530.688 1404.59 529.632C1403.53 528.576 1403 527.232 1403 525.6C1403 523.968 1403.53 522.624 1404.59 521.568C1405.64 520.512 1407 519.984 1408.67 519.984C1410.33 519.984 1411.69 520.512 1412.75 521.568C1413.8 522.624 1414.33 523.968 1414.33 525.6C1414.33 527.232 1413.8 528.576 1412.75 529.632C1411.69 530.688 1410.33 531.216 1408.67 531.216ZM1408.67 530.04C1409.96 530.04 1411 529.632 1411.79 528.816C1412.6 527.984 1413.01 526.912 1413.01 525.6C1413.01 524.304 1412.6 523.24 1411.79 522.408C1410.97 521.576 1409.93 521.16 1408.67 521.16C1407.42 521.16 1406.38 521.576 1405.55 522.408C1404.73 523.24 1404.32 524.304 1404.32 525.6C1404.32 526.896 1404.73 527.96 1405.55 528.792C1406.36 529.624 1407.4 530.04 1408.67 530.04ZM1425.78 531H1424.53V521.448H1419.97L1419.82 523.8C1419.62 526.84 1419.11 528.856 1418.31 529.848C1417.67 530.68 1416.88 531.096 1415.94 531.096L1415.84 529.872C1416.26 529.872 1416.65 529.68 1417.02 529.296C1417.9 528.48 1418.43 526.568 1418.62 523.56L1418.79 520.2H1425.78V531ZM1438.02 522L1430.82 531H1429.58V520.2H1430.82V529.2L1438.02 520.2H1439.27V531H1438.02V522ZM1449.41 520.2H1450.66V531H1449.41V526.44C1448.52 527.048 1447.44 527.352 1446.17 527.352C1443.64 527.352 1442.38 526 1442.38 523.296V520.2H1443.7V523.2C1443.7 525.184 1444.64 526.176 1446.51 526.176C1447.64 526.176 1448.61 525.888 1449.41 525.312V520.2ZM1462.99 528.72L1463.39 529.68C1462.42 530.704 1461.09 531.216 1459.41 531.216C1457.68 531.216 1456.3 530.704 1455.26 529.68C1454.2 528.656 1453.67 527.296 1453.67 525.6C1453.67 523.968 1454.15 522.624 1455.11 521.568C1456.09 520.512 1457.43 519.984 1459.15 519.984C1460.54 519.984 1461.71 520.432 1462.65 521.328C1463.58 522.208 1464.04 523.384 1464.04 524.856C1464.04 525.24 1464.02 525.576 1463.97 525.864H1455.07C1455.11 527.16 1455.54 528.184 1456.34 528.936C1457.14 529.672 1458.19 530.04 1459.48 530.04C1460.99 530.04 1462.15 529.6 1462.99 528.72ZM1459.03 521.16C1457.87 521.16 1456.94 521.496 1456.22 522.168C1455.51 522.84 1455.11 523.728 1454.99 524.832H1462.77C1462.75 523.696 1462.41 522.8 1461.74 522.144C1461.07 521.488 1460.16 521.16 1459.03 521.16ZM1475.24 528.552L1475.87 529.464C1475.43 530.024 1474.85 530.456 1474.11 530.76C1473.39 531.064 1472.62 531.216 1471.79 531.216C1470.11 531.216 1468.73 530.704 1467.66 529.68C1466.6 528.656 1466.07 527.296 1466.07 525.6C1466.07 524.016 1466.59 522.688 1467.61 521.616C1468.65 520.528 1469.93 519.984 1471.45 519.984C1473.31 519.984 1474.71 520.432 1475.65 521.328L1475.05 522.336C1474.2 521.552 1473.07 521.16 1471.64 521.16C1470.49 521.16 1469.49 521.584 1468.64 522.432C1467.81 523.264 1467.39 524.32 1467.39 525.6C1467.39 526.944 1467.82 528.024 1468.67 528.84C1469.51 529.64 1470.59 530.04 1471.88 530.04C1473.27 530.04 1474.39 529.544 1475.24 528.552ZM1481.23 521.448H1476.93V520.2H1486.77V521.448H1482.47V531H1481.23V521.448ZM1488.97 531V520.2C1489.49 520.2 1490.01 520.192 1490.5 520.176C1491.53 520.144 1492.17 520.128 1492.45 520.128C1495.42 520.128 1496.91 521.056 1496.91 522.912C1496.91 523.536 1496.71 524.08 1496.31 524.544C1495.93 524.992 1495.4 525.272 1494.73 525.384V525.432C1496.45 525.688 1497.32 526.552 1497.32 528.024C1497.32 530.056 1495.71 531.072 1492.49 531.072C1492.29 531.072 1491.65 531.056 1490.6 531.024C1490.07 531.008 1489.53 531 1488.97 531ZM1492.81 526.032H1490.21V529.848C1491.46 529.88 1492.27 529.896 1492.64 529.896C1494.88 529.896 1496 529.232 1496 527.904C1496 526.656 1494.93 526.032 1492.81 526.032ZM1492.59 521.304C1492.06 521.304 1491.27 521.32 1490.21 521.352V525H1493.07C1493.85 525 1494.47 524.832 1494.92 524.496C1495.37 524.144 1495.59 523.68 1495.59 523.104C1495.59 521.904 1494.59 521.304 1492.59 521.304ZM1505.42 531.216C1503.75 531.216 1502.39 530.688 1501.34 529.632C1500.28 528.576 1499.75 527.232 1499.75 525.6C1499.75 523.968 1500.28 522.624 1501.34 521.568C1502.39 520.512 1503.75 519.984 1505.42 519.984C1507.08 519.984 1508.44 520.512 1509.5 521.568C1510.55 522.624 1511.08 523.968 1511.08 525.6C1511.08 527.232 1510.55 528.576 1509.5 529.632C1508.44 530.688 1507.08 531.216 1505.42 531.216ZM1505.42 530.04C1506.71 530.04 1507.75 529.632 1508.54 528.816C1509.35 527.984 1509.76 526.912 1509.76 525.6C1509.76 524.304 1509.35 523.24 1508.54 522.408C1507.72 521.576 1506.68 521.16 1505.42 521.16C1504.17 521.16 1503.13 521.576 1502.3 522.408C1501.48 523.24 1501.07 524.304 1501.07 525.6C1501.07 526.896 1501.48 527.96 1502.3 528.792C1503.11 529.624 1504.15 530.04 1505.42 530.04Z" fill="#141414"/>
<rect x="119" y="142" width="375" height="89" rx="8" fill="#F6F4F2"/>
<path d="M188.702 177.448H182.486V176.2H196.238V177.448H190.022V193H188.702V177.448ZM200.101 193.216C198.437 193.216 197.077 192.688 196.021 191.632C194.965 190.576 194.437 189.232 194.437 187.6C194.437 185.968 194.965 184.624 196.021 183.568C197.077 182.512 198.437 181.984 200.101 181.984C201.765 181.984 203.125 182.512 204.181 183.568C205.237 184.624 205.765 185.968 205.765 187.6C205.765 189.232 205.237 190.576 204.181 191.632C203.125 192.688 201.765 193.216 200.101 193.216ZM200.101 192.04C201.397 192.04 202.437 191.632 203.221 190.816C204.037 189.984 204.445 188.912 204.445 187.6C204.445 186.304 204.037 185.24 203.221 184.408C202.405 183.576 201.365 183.16 200.101 183.16C198.853 183.16 197.813 183.576 196.981 184.408C196.165 185.24 195.757 186.304 195.757 187.6C195.757 188.896 196.165 189.96 196.981 190.792C197.797 191.624 198.837 192.04 200.101 192.04ZM208.822 193V182.2C209.35 182.2 209.862 182.192 210.358 182.176C211.382 182.144 212.03 182.128 212.302 182.128C215.278 182.128 216.766 183.056 216.766 184.912C216.766 185.536 216.566 186.08 216.166 186.544C215.782 186.992 215.254 187.272 214.582 187.384V187.432C216.31 187.688 217.174 188.552 217.174 190.024C217.174 192.056 215.566 193.072 212.35 193.072C212.142 193.072 211.51 193.056 210.454 193.024C209.926 193.008 209.382 193 208.822 193ZM212.662 188.032H210.07V191.848C211.318 191.88 212.126 191.896 212.494 191.896C214.734 191.896 215.854 191.232 215.854 189.904C215.854 188.656 214.79 188.032 212.662 188.032ZM212.446 183.304C211.918 183.304 211.126 183.32 210.07 183.352V187H212.926C213.71 187 214.326 186.832 214.774 186.496C215.222 186.144 215.446 185.68 215.446 185.104C215.446 183.904 214.446 183.304 212.446 183.304ZM220.712 184L220.376 182.968C221.448 182.312 222.592 181.984 223.808 181.984C225.216 181.984 226.232 182.336 226.856 183.04C227.496 183.744 227.816 184.832 227.816 186.304V193H226.568V191.344C225.688 192.544 224.456 193.144 222.872 193.144C221.864 193.144 221.056 192.856 220.448 192.28C219.84 191.688 219.536 190.904 219.536 189.928C219.536 188.872 219.92 188.048 220.688 187.456C221.44 186.864 222.424 186.568 223.64 186.568C224.856 186.568 225.832 186.84 226.568 187.384C226.568 186.264 226.488 185.408 226.328 184.816C226.2 184.24 225.936 183.832 225.536 183.592C225.152 183.352 224.552 183.208 223.736 183.16C222.76 183.16 221.752 183.44 220.712 184ZM223.256 191.968C224.6 191.968 225.704 191.4 226.568 190.264V188.464C225.784 187.888 224.848 187.6 223.76 187.6C222.944 187.6 222.256 187.8 221.696 188.2C221.136 188.6 220.856 189.152 220.856 189.856C220.856 190.496 221.08 191.008 221.528 191.392C221.976 191.776 222.552 191.968 223.256 191.968ZM232.64 197.8H231.392V182.2H232.64V183.64C233.072 183.16 233.648 182.768 234.368 182.464C235.104 182.144 235.848 181.984 236.6 181.984C238.136 181.984 239.36 182.488 240.272 183.496C241.184 184.504 241.64 185.816 241.64 187.432C241.64 189.112 241.128 190.496 240.104 191.584C239.064 192.672 237.728 193.216 236.096 193.216C234.64 193.216 233.488 192.912 232.64 192.304V197.8ZM236.264 183.16C235.56 183.16 234.872 183.32 234.2 183.64C233.544 183.96 233.024 184.36 232.64 184.84V191.056C233.632 191.712 234.752 192.04 236 192.04C237.28 192.04 238.32 191.616 239.12 190.768C239.92 189.92 240.32 188.832 240.32 187.504C240.32 186.176 239.96 185.12 239.24 184.336C238.52 183.552 237.528 183.16 236.264 183.16ZM250.33 193V182.2C250.858 182.2 251.37 182.192 251.866 182.176C252.89 182.144 253.538 182.128 253.81 182.128C256.786 182.128 258.274 183.056 258.274 184.912C258.274 185.536 258.074 186.08 257.674 186.544C257.29 186.992 256.762 187.272 256.09 187.384V187.432C257.818 187.688 258.682 188.552 258.682 190.024C258.682 192.056 257.074 193.072 253.858 193.072C253.65 193.072 253.018 193.056 251.962 193.024C251.434 193.008 250.89 193 250.33 193ZM254.17 188.032H251.578V191.848C252.826 191.88 253.634 191.896 254.002 191.896C256.242 191.896 257.362 191.232 257.362 189.904C257.362 188.656 256.298 188.032 254.17 188.032ZM253.954 183.304C253.426 183.304 252.634 183.32 251.578 183.352V187H254.434C255.218 187 255.834 186.832 256.282 186.496C256.73 186.144 256.954 185.68 256.954 185.104C256.954 183.904 255.954 183.304 253.954 183.304ZM264.86 193H261.884V182.2H263.132V185.824H265.004C267.852 185.824 269.276 187.008 269.276 189.376C269.276 190.496 268.916 191.384 268.196 192.04C267.476 192.68 266.364 193 264.86 193ZM264.788 187H263.132V191.824H264.764C265.9 191.824 266.716 191.624 267.212 191.224C267.708 190.824 267.956 190.216 267.956 189.4C267.956 187.8 266.9 187 264.788 187ZM272.996 193H271.748V182.2H272.996V193ZM278.039 193H276.791V182.2H283.295V183.376H278.039V193ZM286.499 197.8H285.251V182.2H286.499V183.64C286.931 183.16 287.507 182.768 288.227 182.464C288.963 182.144 289.707 181.984 290.459 181.984C291.995 181.984 293.219 182.488 294.131 183.496C295.043 184.504 295.499 185.816 295.499 187.432C295.499 189.112 294.987 190.496 293.963 191.584C292.923 192.672 291.587 193.216 289.955 193.216C288.499 193.216 287.347 192.912 286.499 192.304V197.8ZM290.123 183.16C289.419 183.16 288.731 183.32 288.059 183.64C287.403 183.96 286.883 184.36 286.499 184.84V191.056C287.491 191.712 288.611 192.04 289.859 192.04C291.139 192.04 292.179 191.616 292.979 190.768C293.779 189.92 294.179 188.832 294.179 187.504C294.179 186.176 293.819 185.12 293.099 184.336C292.379 183.552 291.387 183.16 290.123 183.16ZM306.015 182.2H307.431L303.063 193C302.279 194.904 301.599 196.168 301.023 196.792C300.447 197.464 299.775 197.8 299.007 197.8C298.415 197.8 297.799 197.616 297.159 197.248L297.567 196.288C298.063 196.528 298.487 196.648 298.839 196.648C299.383 196.648 299.871 196.408 300.303 195.928C300.735 195.464 301.183 194.68 301.647 193.576L301.887 193L296.559 182.2H298.047L301.743 189.832L302.511 191.512C302.527 191.448 302.727 190.872 303.111 189.784L306.015 182.2ZM313.009 193.216C312.273 193.216 311.457 193.08 310.561 192.808C309.713 192.552 309.113 192.208 308.761 191.776L309.409 190.816C309.825 191.2 310.345 191.504 310.969 191.728C311.609 191.936 312.225 192.04 312.817 192.04C313.825 192.04 314.633 191.84 315.241 191.44C315.849 191.04 316.153 190.504 316.153 189.832C316.153 189.272 315.929 188.832 315.481 188.512C315.033 188.192 314.425 188.032 313.657 188.032H311.833V187H313.537C314.145 187 314.665 186.808 315.097 186.424C315.529 186.04 315.745 185.576 315.745 185.032C315.745 184.424 315.505 183.96 315.025 183.64C314.545 183.32 313.873 183.16 313.009 183.16C311.745 183.16 310.617 183.56 309.625 184.36L309.121 183.4C310.033 182.456 311.385 181.984 313.177 181.984C314.409 181.984 315.361 182.24 316.033 182.752C316.721 183.248 317.065 183.936 317.065 184.816C317.065 186.08 316.417 186.944 315.121 187.408V187.456C315.857 187.52 316.433 187.792 316.849 188.272C317.265 188.736 317.473 189.312 317.473 190C317.473 190.992 317.065 191.776 316.249 192.352C315.433 192.928 314.353 193.216 313.009 193.216ZM329.114 184L321.914 193H320.666V182.2H321.914V191.2L329.114 182.2H330.362V193H329.114V184ZM342.998 193H341.75V183.448H337.19L337.046 185.8C336.838 188.84 336.334 190.856 335.534 191.848C334.894 192.68 334.102 193.096 333.158 193.096L333.062 191.872C333.478 191.872 333.87 191.68 334.238 191.296C335.118 190.48 335.654 188.568 335.846 185.56L336.014 182.2H342.998V193ZM355.198 190.552L355.822 191.464C355.39 192.024 354.806 192.456 354.07 192.76C353.35 193.064 352.574 193.216 351.742 193.216C350.062 193.216 348.686 192.704 347.614 191.68C346.558 190.656 346.03 189.296 346.03 187.6C346.03 186.016 346.542 184.688 347.566 183.616C348.606 182.528 349.886 181.984 351.406 181.984C353.262 181.984 354.662 182.432 355.606 183.328L355.006 184.336C354.158 183.552 353.022 183.16 351.598 183.16C350.446 183.16 349.446 183.584 348.598 184.432C347.766 185.264 347.35 186.32 347.35 187.6C347.35 188.944 347.774 190.024 348.622 190.84C349.47 191.64 350.542 192.04 351.838 192.04C353.23 192.04 354.35 191.544 355.198 190.552ZM362.465 182.2H365.681V193H364.433V188.968H361.745L358.649 193H357.113L360.521 188.68C359.801 188.568 359.185 188.232 358.673 187.672C358.177 187.096 357.929 186.408 357.929 185.608C357.929 184.568 358.305 183.744 359.057 183.136C359.809 182.512 360.945 182.2 362.465 182.2ZM359.249 185.632C359.249 186.272 359.497 186.792 359.993 187.192C360.489 187.592 361.017 187.792 361.577 187.792H364.433V183.376H362.249C361.257 183.376 360.505 183.584 359.993 184C359.497 184.4 359.249 184.944 359.249 185.632ZM375.111 193V182.2C375.639 182.2 376.151 182.192 376.647 182.176C377.671 182.144 378.319 182.128 378.591 182.128C381.567 182.128 383.055 183.056 383.055 184.912C383.055 185.536 382.855 186.08 382.455 186.544C382.071 186.992 381.543 187.272 380.871 187.384V187.432C382.599 187.688 383.463 188.552 383.463 190.024C383.463 192.056 381.855 193.072 378.639 193.072C378.431 193.072 377.799 193.056 376.743 193.024C376.215 193.008 375.671 193 375.111 193ZM378.951 188.032H376.359V191.848C377.607 191.88 378.415 191.896 378.783 191.896C381.023 191.896 382.143 191.232 382.143 189.904C382.143 188.656 381.079 188.032 378.951 188.032ZM378.735 183.304C378.207 183.304 377.415 183.32 376.359 183.352V187H379.215C379.999 187 380.615 186.832 381.063 186.496C381.511 186.144 381.735 185.68 381.735 185.104C381.735 183.904 380.735 183.304 378.735 183.304ZM405.562 178.36L394.258 193H393.082V176.2H394.402V190.84L405.706 176.2H406.882V193H405.562V178.36ZM413.527 193H412.207V176.2H413.551L420.319 185.416L426.823 176.2H428.095V193H426.775V178.264L420.319 187.336H420.103L413.527 178.336V193Z" fill="#141414"/>
<rect x="245" y="282" width="375" height="89" rx="8" fill="#F6F4F2"/>
<path d="M334.8 317.448H328.584V316.2H342.336V317.448H336.12V333H334.8V317.448ZM346.198 333.216C344.534 333.216 343.174 332.688 342.118 331.632C341.062 330.576 340.534 329.232 340.534 327.6C340.534 325.968 341.062 324.624 342.118 323.568C343.174 322.512 344.534 321.984 346.198 321.984C347.862 321.984 349.222 322.512 350.278 323.568C351.334 324.624 351.862 325.968 351.862 327.6C351.862 329.232 351.334 330.576 350.278 331.632C349.222 332.688 347.862 333.216 346.198 333.216ZM346.198 332.04C347.494 332.04 348.534 331.632 349.318 330.816C350.134 329.984 350.542 328.912 350.542 327.6C350.542 326.304 350.134 325.24 349.318 324.408C348.502 323.576 347.462 323.16 346.198 323.16C344.95 323.16 343.91 323.576 343.078 324.408C342.262 325.24 341.854 326.304 341.854 327.6C341.854 328.896 342.262 329.96 343.078 330.792C343.894 331.624 344.934 332.04 346.198 332.04ZM354.919 333V322.2C355.447 322.2 355.959 322.192 356.455 322.176C357.479 322.144 358.127 322.128 358.399 322.128C361.375 322.128 362.863 323.056 362.863 324.912C362.863 325.536 362.663 326.08 362.263 326.544C361.879 326.992 361.351 327.272 360.679 327.384V327.432C362.407 327.688 363.271 328.552 363.271 330.024C363.271 332.056 361.663 333.072 358.447 333.072C358.239 333.072 357.607 333.056 356.551 333.024C356.023 333.008 355.479 333 354.919 333ZM358.759 328.032H356.167V331.848C357.415 331.88 358.223 331.896 358.591 331.896C360.831 331.896 361.951 331.232 361.951 329.904C361.951 328.656 360.887 328.032 358.759 328.032ZM358.543 323.304C358.015 323.304 357.223 323.32 356.167 323.352V327H359.023C359.807 327 360.423 326.832 360.871 326.496C361.319 326.144 361.543 325.68 361.543 325.104C361.543 323.904 360.543 323.304 358.543 323.304ZM366.81 324L366.474 322.968C367.546 322.312 368.69 321.984 369.906 321.984C371.314 321.984 372.33 322.336 372.954 323.04C373.594 323.744 373.914 324.832 373.914 326.304V333H372.666V331.344C371.786 332.544 370.554 333.144 368.97 333.144C367.962 333.144 367.154 332.856 366.546 332.28C365.938 331.688 365.634 330.904 365.634 329.928C365.634 328.872 366.018 328.048 366.786 327.456C367.538 326.864 368.522 326.568 369.738 326.568C370.954 326.568 371.93 326.84 372.666 327.384C372.666 326.264 372.586 325.408 372.426 324.816C372.298 324.24 372.034 323.832 371.634 323.592C371.25 323.352 370.65 323.208 369.834 323.16C368.858 323.16 367.85 323.44 366.81 324ZM369.354 331.968C370.698 331.968 371.802 331.4 372.666 330.264V328.464C371.882 327.888 370.946 327.6 369.858 327.6C369.042 327.6 368.354 327.8 367.794 328.2C367.234 328.6 366.954 329.152 366.954 329.856C366.954 330.496 367.178 331.008 367.626 331.392C368.074 331.776 368.65 331.968 369.354 331.968ZM378.738 337.8H377.49V322.2H378.738V323.64C379.17 323.16 379.746 322.768 380.466 322.464C381.202 322.144 381.946 321.984 382.698 321.984C384.234 321.984 385.458 322.488 386.37 323.496C387.282 324.504 387.738 325.816 387.738 327.432C387.738 329.112 387.226 330.496 386.202 331.584C385.162 332.672 383.826 333.216 382.194 333.216C380.738 333.216 379.586 332.912 378.738 332.304V337.8ZM382.362 323.16C381.658 323.16 380.97 323.32 380.298 323.64C379.642 323.96 379.122 324.36 378.738 324.84V331.056C379.73 331.712 380.85 332.04 382.098 332.04C383.378 332.04 384.418 331.616 385.218 330.768C386.018 329.92 386.418 328.832 386.418 327.504C386.418 326.176 386.058 325.12 385.338 324.336C384.618 323.552 383.626 323.16 382.362 323.16ZM405.811 333H404.563V323.376H397.675V333H396.427V322.2H405.811V333ZM414.495 333.216C412.831 333.216 411.471 332.688 410.415 331.632C409.359 330.576 408.831 329.232 408.831 327.6C408.831 325.968 409.359 324.624 410.415 323.568C411.471 322.512 412.831 321.984 414.495 321.984C416.159 321.984 417.519 322.512 418.575 323.568C419.631 324.624 420.159 325.968 420.159 327.6C420.159 329.232 419.631 330.576 418.575 331.632C417.519 332.688 416.159 333.216 414.495 333.216ZM414.495 332.04C415.791 332.04 416.831 331.632 417.615 330.816C418.431 329.984 418.839 328.912 418.839 327.6C418.839 326.304 418.431 325.24 417.615 324.408C416.799 323.576 415.759 323.16 414.495 323.16C413.247 323.16 412.207 323.576 411.375 324.408C410.559 325.24 410.151 326.304 410.151 327.6C410.151 328.896 410.559 329.96 411.375 330.792C412.191 331.624 413.231 332.04 414.495 332.04ZM432.6 333H431.352V323.376H424.464V333H423.216V322.2H432.6V333ZM436.724 324L436.388 322.968C437.46 322.312 438.604 321.984 439.82 321.984C441.228 321.984 442.244 322.336 442.868 323.04C443.508 323.744 443.828 324.832 443.828 326.304V333H442.58V331.344C441.7 332.544 440.468 333.144 438.884 333.144C437.876 333.144 437.068 332.856 436.46 332.28C435.852 331.688 435.548 330.904 435.548 329.928C435.548 328.872 435.932 328.048 436.7 327.456C437.452 326.864 438.436 326.568 439.652 326.568C440.868 326.568 441.844 326.84 442.58 327.384C442.58 326.264 442.5 325.408 442.34 324.816C442.212 324.24 441.948 323.832 441.548 323.592C441.164 323.352 440.564 323.208 439.748 323.16C438.772 323.16 437.764 323.44 436.724 324ZM439.268 331.968C440.612 331.968 441.716 331.4 442.58 330.264V328.464C441.796 327.888 440.86 327.6 439.772 327.6C438.956 327.6 438.268 327.8 437.708 328.2C437.148 328.6 436.868 329.152 436.868 329.856C436.868 330.496 437.092 331.008 437.54 331.392C437.988 331.776 438.564 331.968 439.268 331.968ZM456.26 333H455.012V323.448H450.452L450.308 325.8C450.1 328.84 449.596 330.856 448.796 331.848C448.156 332.68 447.364 333.096 446.42 333.096L446.324 331.872C446.74 331.872 447.132 331.68 447.5 331.296C448.38 330.48 448.916 328.568 449.108 325.56L449.276 322.2H456.26V333ZM465.709 333V322.2C466.237 322.2 466.749 322.192 467.245 322.176C468.269 322.144 468.917 322.128 469.189 322.128C472.165 322.128 473.653 323.056 473.653 324.912C473.653 325.536 473.453 326.08 473.053 326.544C472.669 326.992 472.141 327.272 471.469 327.384V327.432C473.197 327.688 474.061 328.552 474.061 330.024C474.061 332.056 472.453 333.072 469.237 333.072C469.029 333.072 468.397 333.056 467.34 333.024C466.813 333.008 466.269 333 465.709 333ZM469.549 328.032H466.957V331.848C468.205 331.88 469.013 331.896 469.381 331.896C471.621 331.896 472.741 331.232 472.741 329.904C472.741 328.656 471.677 328.032 469.549 328.032ZM469.333 323.304C468.805 323.304 468.013 323.32 466.957 323.352V327H469.812C470.597 327 471.213 326.832 471.661 326.496C472.109 326.144 472.333 325.68 472.333 325.104C472.333 323.904 471.333 323.304 469.333 323.304ZM486.248 333.216C485.512 333.216 484.696 333.08 483.8 332.808C482.952 332.552 482.352 332.208 482 331.776L482.648 330.816C483.064 331.2 483.584 331.504 484.208 331.728C484.848 331.936 485.464 332.04 486.056 332.04C487.064 332.04 487.872 331.84 488.48 331.44C489.088 331.04 489.392 330.504 489.392 329.832C489.392 329.272 489.168 328.832 488.72 328.512C488.272 328.192 487.664 328.032 486.896 328.032H485.072V327H486.776C487.384 327 487.904 326.808 488.336 326.424C488.768 326.04 488.984 325.576 488.984 325.032C488.984 324.424 488.744 323.96 488.264 323.64C487.784 323.32 487.112 323.16 486.248 323.16C484.984 323.16 483.856 323.56 482.864 324.36L482.36 323.4C483.272 322.456 484.624 321.984 486.416 321.984C487.648 321.984 488.6 322.24 489.272 322.752C489.96 323.248 490.304 323.936 490.304 324.816C490.304 326.08 489.656 326.944 488.36 327.408V327.456C489.096 327.52 489.672 327.792 490.088 328.272C490.504 328.736 490.712 329.312 490.712 330C490.712 330.992 490.304 331.776 489.488 332.352C488.672 332.928 487.592 333.216 486.248 333.216ZM494.24 324L493.904 322.968C494.976 322.312 496.12 321.984 497.336 321.984C498.744 321.984 499.76 322.336 500.384 323.04C501.024 323.744 501.344 324.832 501.344 326.304V333H500.096V331.344C499.216 332.544 497.984 333.144 496.4 333.144C495.392 333.144 494.584 332.856 493.976 332.28C493.368 331.688 493.064 330.904 493.064 329.928C493.064 328.872 493.448 328.048 494.216 327.456C494.968 326.864 495.952 326.568 497.168 326.568C498.384 326.568 499.36 326.84 500.096 327.384C500.096 326.264 500.016 325.408 499.856 324.816C499.728 324.24 499.464 323.832 499.064 323.592C498.68 323.352 498.08 323.208 497.264 323.16C496.288 323.16 495.28 323.44 494.24 324ZM496.784 331.968C498.128 331.968 499.232 331.4 500.096 330.264V328.464C499.312 327.888 498.376 327.6 497.288 327.6C496.472 327.6 495.784 327.8 495.224 328.2C494.664 328.6 494.384 329.152 494.384 329.856C494.384 330.496 494.608 331.008 495.056 331.392C495.504 331.776 496.08 331.968 496.784 331.968ZM512.119 322.2H513.727L508.399 327.36L514.159 333H512.479L506.887 327.432L512.119 322.2ZM506.167 333H504.919V322.2H506.167V333ZM516.88 324L516.544 322.968C517.616 322.312 518.76 321.984 519.976 321.984C521.384 321.984 522.4 322.336 523.024 323.04C523.664 323.744 523.984 324.832 523.984 326.304V333H522.736V331.344C521.856 332.544 520.624 333.144 519.04 333.144C518.032 333.144 517.224 332.856 516.616 332.28C516.008 331.688 515.704 330.904 515.704 329.928C515.704 328.872 516.088 328.048 516.856 327.456C517.608 326.864 518.592 326.568 519.808 326.568C521.024 326.568 522 326.84 522.736 327.384C522.736 326.264 522.656 325.408 522.496 324.816C522.368 324.24 522.104 323.832 521.704 323.592C521.32 323.352 520.72 323.208 519.904 323.16C518.928 323.16 517.92 323.44 516.88 324ZM519.424 331.968C520.768 331.968 521.872 331.4 522.736 330.264V328.464C521.952 327.888 521.016 327.6 519.928 327.6C519.112 327.6 518.424 327.8 517.864 328.2C517.304 328.6 517.024 329.152 517.024 329.856C517.024 330.496 517.248 331.008 517.696 331.392C518.144 331.776 518.72 331.968 519.424 331.968ZM530.896 333.216C530.16 333.216 529.344 333.08 528.448 332.808C527.6 332.552 527 332.208 526.648 331.776L527.296 330.816C527.712 331.2 528.232 331.504 528.856 331.728C529.496 331.936 530.112 332.04 530.704 332.04C531.712 332.04 532.52 331.84 533.128 331.44C533.736 331.04 534.04 330.504 534.04 329.832C534.04 329.272 533.816 328.832 533.368 328.512C532.92 328.192 532.312 328.032 531.544 328.032H529.72V327H531.424C532.032 327 532.552 326.808 532.984 326.424C533.416 326.04 533.632 325.576 533.632 325.032C533.632 324.424 533.392 323.96 532.912 323.64C532.432 323.32 531.76 323.16 530.896 323.16C529.632 323.16 528.504 323.56 527.512 324.36L527.008 323.4C527.92 322.456 529.272 321.984 531.064 321.984C532.296 321.984 533.248 322.24 533.92 322.752C534.608 323.248 534.952 323.936 534.952 324.816C534.952 326.08 534.304 326.944 533.008 327.408V327.456C533.744 327.52 534.32 327.792 534.736 328.272C535.152 328.736 535.36 329.312 535.36 330C535.36 330.992 534.952 331.776 534.136 332.352C533.32 332.928 532.24 333.216 530.896 333.216Z" fill="#141414"/>
<rect x="1197" y="282" width="375" height="89" rx="8" fill="#F6F4F2"/>
<path d="M1267.35 320.112L1266.68 319.104L1270.5 316.056H1271.36V333H1270.11V317.88L1267.35 320.112ZM1288.93 330.384L1289.46 331.368C1288.88 331.944 1288.12 332.4 1287.18 332.736C1286.25 333.056 1285.28 333.216 1284.25 333.216C1281.76 333.216 1279.72 332.432 1278.16 330.864C1276.6 329.312 1275.83 327.224 1275.83 324.6C1275.83 322.12 1276.58 320.072 1278.08 318.456C1279.59 316.808 1281.58 315.984 1284.06 315.984C1286.19 315.984 1287.88 316.512 1289.15 317.568L1288.52 318.552C1287.39 317.672 1285.91 317.232 1284.08 317.232C1282.04 317.232 1280.38 317.928 1279.12 319.32C1277.85 320.68 1277.22 322.44 1277.22 324.6C1277.22 326.792 1277.88 328.568 1279.19 329.928C1280.5 331.288 1282.22 331.968 1284.35 331.968C1286.11 331.968 1287.64 331.44 1288.93 330.384ZM1305.72 322.2H1307.14L1302.77 333C1301.99 334.904 1301.31 336.168 1300.73 336.792C1300.15 337.464 1299.48 337.8 1298.71 337.8C1298.12 337.8 1297.51 337.616 1296.87 337.248L1297.27 336.288C1297.77 336.528 1298.19 336.648 1298.55 336.648C1299.09 336.648 1299.58 336.408 1300.01 335.928C1300.44 335.464 1300.89 334.68 1301.35 333.576L1301.59 333L1296.27 322.2H1297.75L1301.45 329.832L1302.22 331.512C1302.23 331.448 1302.43 330.872 1302.82 329.784L1305.72 322.2ZM1310.63 333H1309.38V322.2H1310.56L1315.04 328.224L1319.36 322.2H1320.49V333H1319.24V324.096L1315.04 329.928H1314.97L1310.63 324.096V333ZM1332.85 330.72L1333.26 331.68C1332.29 332.704 1330.96 333.216 1329.28 333.216C1327.55 333.216 1326.17 332.704 1325.13 331.68C1324.07 330.656 1323.54 329.296 1323.54 327.6C1323.54 325.968 1324.02 324.624 1324.98 323.568C1325.96 322.512 1327.3 321.984 1329.01 321.984C1330.41 321.984 1331.57 322.432 1332.52 323.328C1333.45 324.208 1333.91 325.384 1333.91 326.856C1333.91 327.24 1333.89 327.576 1333.84 327.864H1324.93C1324.98 329.16 1325.41 330.184 1326.21 330.936C1327.01 331.672 1328.05 332.04 1329.35 332.04C1330.85 332.04 1332.02 331.6 1332.85 330.72ZM1328.89 323.16C1327.74 323.16 1326.81 323.496 1326.09 324.168C1325.38 324.84 1324.97 325.728 1324.86 326.832H1332.64C1332.62 325.696 1332.28 324.8 1331.61 324.144C1330.93 323.488 1330.03 323.16 1328.89 323.16ZM1346.4 333H1345.15V328.104H1338.14V333H1336.9V322.2H1338.14V326.928H1345.15V322.2H1346.4V333ZM1353.35 333H1350.19V322.2H1351.43V325.824H1353.52C1356.37 325.824 1357.79 327.008 1357.79 329.376C1357.79 330.496 1357.43 331.384 1356.69 332.04C1355.97 332.68 1354.86 333 1353.35 333ZM1353.31 327H1351.43V331.824H1353.28C1354.4 331.824 1355.21 331.624 1355.71 331.224C1356.22 330.824 1356.47 330.216 1356.47 329.4C1356.47 327.8 1355.42 327 1353.31 327ZM1373.77 333H1360.66V322.2H1361.91V331.824H1366.59V322.2H1367.84V331.824H1372.52V322.2H1373.77V333ZM1386.03 324L1378.83 333H1377.58V322.2H1378.83V331.2L1386.03 322.2H1387.28V333H1386.03V324ZM1399.92 333H1398.67V323.448H1394.11L1393.96 325.8C1393.76 328.84 1393.25 330.856 1392.45 331.848C1391.81 332.68 1391.02 333.096 1390.08 333.096L1389.98 331.872C1390.4 331.872 1390.79 331.68 1391.16 331.296C1392.04 330.48 1392.57 328.568 1392.76 325.56L1392.93 322.2H1399.92V333ZM1408.61 333.216C1406.95 333.216 1405.59 332.688 1404.53 331.632C1403.48 330.576 1402.95 329.232 1402.95 327.6C1402.95 325.968 1403.48 324.624 1404.53 323.568C1405.59 322.512 1406.95 321.984 1408.61 321.984C1410.28 321.984 1411.64 322.512 1412.69 323.568C1413.75 324.624 1414.28 325.968 1414.28 327.6C1414.28 329.232 1413.75 330.576 1412.69 331.632C1411.64 332.688 1410.28 333.216 1408.61 333.216ZM1408.61 332.04C1409.91 332.04 1410.95 331.632 1411.73 330.816C1412.55 329.984 1412.96 328.912 1412.96 327.6C1412.96 326.304 1412.55 325.24 1411.73 324.408C1410.92 323.576 1409.88 323.16 1408.61 323.16C1407.36 323.16 1406.32 323.576 1405.49 324.408C1404.68 325.24 1404.27 326.304 1404.27 327.6C1404.27 328.896 1404.68 329.96 1405.49 330.792C1406.31 331.624 1407.35 332.04 1408.61 332.04ZM1427.88 333.216C1426.21 333.216 1424.85 332.688 1423.8 331.632C1422.74 330.576 1422.21 329.232 1422.21 327.6C1422.21 325.968 1422.74 324.624 1423.8 323.568C1424.85 322.512 1426.21 321.984 1427.88 321.984C1429.54 321.984 1430.9 322.512 1431.96 323.568C1433.01 324.624 1433.54 325.968 1433.54 327.6C1433.54 329.232 1433.01 330.576 1431.96 331.632C1430.9 332.688 1429.54 333.216 1427.88 333.216ZM1427.88 332.04C1429.17 332.04 1430.21 331.632 1431 330.816C1431.81 329.984 1432.22 328.912 1432.22 327.6C1432.22 326.304 1431.81 325.24 1431 324.408C1430.18 323.576 1429.14 323.16 1427.88 323.16C1426.63 323.16 1425.59 323.576 1424.76 324.408C1423.94 325.24 1423.53 326.304 1423.53 327.6C1423.53 328.896 1423.94 329.96 1424.76 330.792C1425.57 331.624 1426.61 332.04 1427.88 332.04ZM1445 330.552L1445.62 331.464C1445.19 332.024 1444.61 332.456 1443.87 332.76C1443.15 333.064 1442.38 333.216 1441.54 333.216C1439.86 333.216 1438.49 332.704 1437.42 331.68C1436.36 330.656 1435.83 329.296 1435.83 327.6C1435.83 326.016 1436.34 324.688 1437.37 323.616C1438.41 322.528 1439.69 321.984 1441.21 321.984C1443.06 321.984 1444.46 322.432 1445.41 323.328L1444.81 324.336C1443.96 323.552 1442.82 323.16 1441.4 323.16C1440.25 323.16 1439.25 323.584 1438.4 324.432C1437.57 325.264 1437.15 326.32 1437.15 327.6C1437.15 328.944 1437.58 330.024 1438.42 330.84C1439.27 331.64 1440.34 332.04 1441.64 332.04C1443.03 332.04 1444.15 331.544 1445 330.552ZM1450.98 323.448H1446.69V322.2H1456.53V323.448H1452.23V333H1450.98V323.448ZM1459.06 324L1458.72 322.968C1459.8 322.312 1460.94 321.984 1462.16 321.984C1463.56 321.984 1464.58 322.336 1465.2 323.04C1465.84 323.744 1466.16 324.832 1466.16 326.304V333H1464.92V331.344C1464.04 332.544 1462.8 333.144 1461.22 333.144C1460.21 333.144 1459.4 332.856 1458.8 332.28C1458.19 331.688 1457.88 330.904 1457.88 329.928C1457.88 328.872 1458.27 328.048 1459.04 327.456C1459.79 326.864 1460.77 326.568 1461.99 326.568C1463.2 326.568 1464.18 326.84 1464.92 327.384C1464.92 326.264 1464.84 325.408 1464.68 324.816C1464.55 324.24 1464.28 323.832 1463.88 323.592C1463.5 323.352 1462.9 323.208 1462.08 323.16C1461.11 323.16 1460.1 323.44 1459.06 324ZM1461.6 331.968C1462.95 331.968 1464.05 331.4 1464.92 330.264V328.464C1464.13 327.888 1463.2 327.6 1462.11 327.6C1461.29 327.6 1460.6 327.8 1460.04 328.2C1459.48 328.6 1459.2 329.152 1459.2 329.856C1459.2 330.496 1459.43 331.008 1459.88 331.392C1460.32 331.776 1460.9 331.968 1461.6 331.968ZM1472.45 323.448H1468.16V322.2H1478V323.448H1473.7V333H1472.45V323.448ZM1487.39 322.2H1489L1483.67 327.36L1489.43 333H1487.75L1482.16 327.432L1487.39 322.2ZM1481.44 333H1480.19V322.2H1481.44V333ZM1500.27 324L1493.07 333H1491.82V322.2H1493.07V331.2L1500.27 322.2H1501.51V333H1500.27V324Z" fill="#141414"/>
<path d="M29 194.5L29 195.5L29 194.5ZM102.207 195.207C102.598 194.817 102.598 194.183 102.207 193.793L95.8431 187.429C95.4526 187.038 94.8195 187.038 94.4289 187.429C94.0384 187.819 94.0384 188.453 94.4289 188.843L100.086 194.5L94.4289 200.157C94.0384 200.547 94.0384 201.181 94.4289 201.571C94.8195 201.962 95.4526 201.962 95.8431 201.571L102.207 195.207ZM20 114L20 186.5L22 186.5L22 114L20 114ZM29 195.5L101.5 195.5L101.5 193.5L29 193.5L29 195.5ZM20 186.5C20 191.471 24.0294 195.5 29 195.5L29 193.5C25.134 193.5 22 190.366 22 186.5L20 186.5Z" fill="#E4002B"/>
<path d="M160 318L161 318L160 318ZM233.707 326.707C234.098 326.317 234.098 325.683 233.707 325.293L227.343 318.929C226.953 318.538 226.319 318.538 225.929 318.929C225.538 319.319 225.538 319.953 225.929 320.343L231.586 326L225.929 331.657C225.538 332.047 225.538 332.681 225.929 333.071C226.319 333.462 226.953 333.462 227.343 333.071L233.707 326.707ZM159 253L159 318L161 318L161 253L159 253ZM168 327L233 327L233 325L168 325L168 327ZM159 318C159 322.971 163.029 327 168 327L168 325C164.134 325 161 321.866 161 318L159 318Z" fill="#E4002B"/>
<path d="M910.293 423.707C910.683 424.098 911.317 424.098 911.707 423.707L918.071 417.343C918.462 416.953 918.462 416.319 918.071 415.929C917.681 415.538 917.047 415.538 916.657 415.929L911 421.586L905.343 415.929C904.953 415.538 904.319 415.538 903.929 415.929C903.538 416.319 903.538 416.953 903.929 417.343L910.293 423.707ZM910 390L910 423L912 423L912 390L910 390Z" fill="#E4002B"/>
<path d="M720.207 329.207C720.598 328.817 720.598 328.183 720.207 327.793L713.843 321.429C713.453 321.038 712.819 321.038 712.429 321.429C712.038 321.819 712.038 322.453 712.429 322.843L718.086 328.5L712.429 334.157C712.038 334.547 712.038 335.181 712.429 335.571C712.819 335.962 713.453 335.962 713.843 335.571L720.207 329.207ZM637.5 329.5H719.5V327.5H637.5V329.5Z" fill="#E4002B"/>
<path d="M1180.71 329.207C1181.1 328.817 1181.1 328.183 1180.71 327.793L1174.34 321.429C1173.95 321.038 1173.32 321.038 1172.93 321.429C1172.54 321.819 1172.54 322.453 1172.93 322.843L1178.59 328.5L1172.93 334.157C1172.54 334.547 1172.54 335.181 1172.93 335.571C1173.32 335.962 1173.95 335.962 1174.34 335.571L1180.71 329.207ZM1098 329.5H1180V327.5H1098V329.5Z" fill="#E4002B"/>
<path d="M1386.29 423.707C1386.68 424.098 1387.32 424.098 1387.71 423.707L1394.07 417.343C1394.46 416.953 1394.46 416.319 1394.07 415.929C1393.68 415.538 1393.05 415.538 1392.66 415.929L1387 421.586L1381.34 415.929C1380.95 415.538 1380.32 415.538 1379.93 415.929C1379.54 416.319 1379.54 416.953 1379.93 417.343L1386.29 423.707ZM1386 390L1386 423L1388 423L1388 390L1386 390Z" fill="#E4002B"/>
</svg>
