<svg width="1131" height="148" viewBox="0 0 1131 148" fill="none" xmlns="http://www.w3.org/2000/svg">
<path d="M583.707 27.7074C584.098 27.3168 584.098 26.6837 583.707 26.2931L577.343 19.9292C576.953 19.5386 576.319 19.5386 575.929 19.9292C575.538 20.3197 575.538 20.9529 575.929 21.3434L581.586 27.0002L575.929 32.6571C575.538 33.0476 575.538 33.6808 575.929 34.0713C576.319 34.4618 576.953 34.4618 577.343 34.0713L583.707 27.7074ZM198 28L583 28.0002L583 26.0002L198 26L198 28Z" fill="#E4002B"/>
<path d="M880.707 106.707C881.098 106.317 881.098 105.684 880.707 105.293L874.343 98.9292C873.953 98.5386 873.319 98.5386 872.929 98.9292C872.538 99.3197 872.538 99.9529 872.929 100.343L878.586 106L872.929 111.657C872.538 112.048 872.538 112.681 872.929 113.071C873.319 113.462 873.953 113.462 874.343 113.071L880.707 106.707ZM525 107L880 107L880 105L525 105L525 107Z" fill="#E4002B"/>
<path d="M524.293 62.2929C523.902 62.6834 523.902 63.3166 524.293 63.7071L530.657 70.071C531.047 70.4616 531.681 70.4616 532.071 70.071C532.462 69.6805 532.462 69.0473 532.071 68.6568L526.414 63L532.071 57.3431C532.462 56.9526 532.462 56.3194 532.071 55.9289C531.681 55.5384 531.047 55.5384 530.657 55.9289L524.293 62.2929ZM582 61.9998L525 62L525 64L582 63.9998L582 61.9998Z" fill="#E4002B"/>
<rect x="596" width="188" height="89" rx="8" fill="#F6F4F2"/>
<path d="M646.664 51V34.2H655.928V35.448H647.984V41.136C648.96 41.04 649.904 40.992 650.816 40.992C652.752 40.992 654.24 41.416 655.28 42.264C656.336 43.112 656.864 44.304 656.864 45.84C656.864 47.52 656.304 48.816 655.184 49.728C654.064 50.624 652.48 51.072 650.432 51.072C650.16 51.072 649.464 51.056 648.344 51.024C647.784 51.008 647.224 51 646.664 51ZM650.768 42.24C649.744 42.24 648.816 42.288 647.984 42.384V49.752C649.568 49.8 650.448 49.824 650.624 49.824C652.24 49.824 653.464 49.488 654.296 48.816C655.128 48.144 655.544 47.176 655.544 45.912C655.544 44.744 655.136 43.84 654.32 43.2C653.504 42.56 652.32 42.24 650.768 42.24ZM668.992 42L661.792 51H660.544V40.2H661.792V49.2L668.992 40.2H670.24V51H668.992V42ZM676.733 41.448H672.437V40.2H682.277V41.448H677.981V51H676.733V41.448ZM685.722 55.8H684.474V40.2H685.722V41.64C686.154 41.16 686.73 40.768 687.45 40.464C688.186 40.144 688.93 39.984 689.682 39.984C691.218 39.984 692.442 40.488 693.354 41.496C694.266 42.504 694.722 43.816 694.722 45.432C694.722 47.112 694.21 48.496 693.186 49.584C692.146 50.672 690.81 51.216 689.178 51.216C687.722 51.216 686.57 50.912 685.722 50.304V55.8ZM689.346 41.16C688.642 41.16 687.954 41.32 687.282 41.64C686.626 41.96 686.106 42.36 685.722 42.84V49.056C686.714 49.712 687.834 50.04 689.082 50.04C690.362 50.04 691.402 49.616 692.202 48.768C693.002 47.92 693.402 46.832 693.402 45.504C693.402 44.176 693.042 43.12 692.322 42.336C691.602 41.552 690.61 41.16 689.346 41.16ZM706.211 42L699.011 51H697.763V40.2H699.011V49.2L706.211 40.2H707.459V51H706.211V42ZM718.44 40.2H720.048L714.72 45.36L720.48 51H718.8L713.208 45.432L718.44 40.2ZM712.488 51H711.24V40.2H712.488V51ZM730.726 48.552L731.35 49.464C730.918 50.024 730.334 50.456 729.598 50.76C728.878 51.064 728.102 51.216 727.27 51.216C725.59 51.216 724.214 50.704 723.142 49.68C722.086 48.656 721.558 47.296 721.558 45.6C721.558 44.016 722.07 42.688 723.094 41.616C724.134 40.528 725.414 39.984 726.934 39.984C728.79 39.984 730.19 40.432 731.134 41.328L730.534 42.336C729.686 41.552 728.55 41.16 727.126 41.16C725.974 41.16 724.974 41.584 724.126 42.432C723.294 43.264 722.878 44.32 722.878 45.6C722.878 46.944 723.302 48.024 724.15 48.84C724.998 49.64 726.07 50.04 727.366 50.04C728.758 50.04 729.878 49.544 730.726 48.552Z" fill="#141414"/>
<rect x="895" y="59" width="236" height="89" rx="8" fill="#F6F4F2"/>
<path d="M953.584 110.192H952.264V108.008H952.144C949.696 108.008 947.736 107.424 946.264 106.256C944.792 105.072 944.056 103.44 944.056 101.36C944.056 99.28 944.792 97.648 946.264 96.464C947.736 95.296 949.728 94.712 952.24 94.712H952.264V93.008H953.584V94.712H953.632C956.16 94.712 958.16 95.304 959.632 96.488C961.12 97.672 961.864 99.296 961.864 101.36C961.864 103.44 961.12 105.072 959.632 106.256C958.16 107.424 956.2 108.008 953.752 108.008H953.584V110.192ZM953.68 95.936H953.584V106.784H953.752C955.832 106.784 957.472 106.32 958.672 105.392C959.872 104.448 960.472 103.104 960.472 101.36C960.472 99.648 959.864 98.32 958.648 97.376C957.448 96.416 955.792 95.936 953.68 95.936ZM945.448 101.36C945.448 103.104 946.056 104.44 947.272 105.368C948.504 106.312 950.136 106.784 952.168 106.784H952.264V95.936H952.216C950.136 95.936 948.488 96.416 947.272 97.376C946.056 98.304 945.448 99.632 945.448 101.36ZM966.066 114.8H964.818V99.2H966.066V100.64C966.498 100.16 967.074 99.768 967.794 99.464C968.53 99.144 969.274 98.984 970.026 98.984C971.562 98.984 972.786 99.488 973.698 100.496C974.61 101.504 975.066 102.816 975.066 104.432C975.066 106.112 974.554 107.496 973.53 108.584C972.49 109.672 971.154 110.216 969.522 110.216C968.066 110.216 966.914 109.912 966.066 109.304V114.8ZM969.69 100.16C968.986 100.16 968.298 100.32 967.626 100.64C966.97 100.96 966.45 101.36 966.066 101.84V108.056C967.058 108.712 968.178 109.04 969.426 109.04C970.706 109.04 971.746 108.616 972.546 107.768C973.346 106.92 973.746 105.832 973.746 104.504C973.746 103.176 973.386 102.12 972.666 101.336C971.946 100.552 970.954 100.16 969.69 100.16ZM983.003 110.216C981.339 110.216 979.979 109.688 978.923 108.632C977.867 107.576 977.339 106.232 977.339 104.6C977.339 102.968 977.867 101.624 978.923 100.568C979.979 99.512 981.339 98.984 983.003 98.984C984.667 98.984 986.027 99.512 987.083 100.568C988.139 101.624 988.667 102.968 988.667 104.6C988.667 106.232 988.139 107.576 987.083 108.632C986.027 109.688 984.667 110.216 983.003 110.216ZM983.003 109.04C984.299 109.04 985.339 108.632 986.123 107.816C986.939 106.984 987.347 105.912 987.347 104.6C987.347 103.304 986.939 102.24 986.123 101.408C985.307 100.576 984.267 100.16 983.003 100.16C981.755 100.16 980.715 100.576 979.883 101.408C979.067 102.24 978.659 103.304 978.659 104.6C978.659 105.896 979.067 106.96 979.883 107.792C980.699 108.624 981.739 109.04 983.003 109.04ZM1001.23 110H999.98V105.104H992.972V110H991.724V99.2H992.972V103.928H999.98V99.2H1001.23V110ZM1007.73 100.448H1003.43V99.2H1013.27V100.448H1008.97V110H1007.73V100.448ZM1020.78 104.072H1015.28V102.896H1020.78V104.072ZM1033.29 107.552L1033.91 108.464C1033.48 109.024 1032.9 109.456 1032.16 109.76C1031.44 110.064 1030.66 110.216 1029.83 110.216C1028.15 110.216 1026.78 109.704 1025.7 108.68C1024.65 107.656 1024.12 106.296 1024.12 104.6C1024.12 103.016 1024.63 101.688 1025.66 100.616C1026.7 99.528 1027.98 98.984 1029.5 98.984C1031.35 98.984 1032.75 99.432 1033.7 100.328L1033.1 101.336C1032.25 100.552 1031.11 100.16 1029.69 100.16C1028.54 100.16 1027.54 100.584 1026.69 101.432C1025.86 102.264 1025.44 103.32 1025.44 104.6C1025.44 105.944 1025.86 107.024 1026.71 107.84C1027.56 108.64 1028.63 109.04 1029.93 109.04C1031.32 109.04 1032.44 108.544 1033.29 107.552ZM1036.99 101L1036.65 99.968C1037.73 99.312 1038.87 98.984 1040.09 98.984C1041.49 98.984 1042.51 99.336 1043.13 100.04C1043.77 100.744 1044.09 101.832 1044.09 103.304V110H1042.85V108.344C1041.97 109.544 1040.73 110.144 1039.15 110.144C1038.14 110.144 1037.33 109.856 1036.73 109.28C1036.12 108.688 1035.81 107.904 1035.81 106.928C1035.81 105.872 1036.2 105.048 1036.97 104.456C1037.72 103.864 1038.7 103.568 1039.92 103.568C1041.13 103.568 1042.11 103.84 1042.85 104.384C1042.85 103.264 1042.77 102.408 1042.61 101.816C1042.48 101.24 1042.21 100.832 1041.81 100.592C1041.43 100.352 1040.83 100.208 1040.01 100.16C1039.04 100.16 1038.03 100.44 1036.99 101ZM1039.53 108.968C1040.88 108.968 1041.98 108.4 1042.85 107.264V105.464C1042.06 104.888 1041.13 104.6 1040.04 104.6C1039.22 104.6 1038.53 104.8 1037.97 105.2C1037.41 105.6 1037.13 106.152 1037.13 106.856C1037.13 107.496 1037.36 108.008 1037.81 108.392C1038.25 108.776 1038.83 108.968 1039.53 108.968ZM1056.12 101L1048.92 110H1047.67V99.2H1048.92V108.2L1056.12 99.2H1057.37V110H1056.12V101ZM1049.33 93.584H1050.45C1050.45 94.176 1050.66 94.68 1051.08 95.096C1051.49 95.496 1052.03 95.696 1052.69 95.696C1053.31 95.696 1053.82 95.496 1054.22 95.096C1054.62 94.68 1054.82 94.176 1054.82 93.584H1055.95C1055.95 94.464 1055.65 95.2 1055.04 95.792C1054.43 96.368 1053.65 96.656 1052.69 96.656C1051.66 96.656 1050.85 96.376 1050.24 95.816C1049.63 95.24 1049.33 94.496 1049.33 93.584ZM1063.86 100.448H1059.56V99.2H1069.4V100.448H1065.11V110H1063.86V100.448ZM1071.94 101L1071.6 99.968C1072.67 99.312 1073.82 98.984 1075.03 98.984C1076.44 98.984 1077.46 99.336 1078.08 100.04C1078.72 100.744 1079.04 101.832 1079.04 103.304V110H1077.79V108.344C1076.91 109.544 1075.68 110.144 1074.1 110.144C1073.09 110.144 1072.28 109.856 1071.67 109.28C1071.06 108.688 1070.76 107.904 1070.76 106.928C1070.76 105.872 1071.14 105.048 1071.91 104.456C1072.66 103.864 1073.65 103.568 1074.86 103.568C1076.08 103.568 1077.06 103.84 1077.79 104.384C1077.79 103.264 1077.71 102.408 1077.55 101.816C1077.42 101.24 1077.16 100.832 1076.76 100.592C1076.38 100.352 1075.78 100.208 1074.96 100.16C1073.98 100.16 1072.98 100.44 1071.94 101ZM1074.48 108.968C1075.82 108.968 1076.93 108.4 1077.79 107.264V105.464C1077.01 104.888 1076.07 104.6 1074.98 104.6C1074.17 104.6 1073.48 104.8 1072.92 105.2C1072.36 105.6 1072.08 106.152 1072.08 106.856C1072.08 107.496 1072.3 108.008 1072.75 108.392C1073.2 108.776 1073.78 108.968 1074.48 108.968Z" fill="#141414"/>
<rect width="188" height="89" rx="8" fill="#F6F4F2"/>
<path d="M51.984 51H50.664V34.2H52.008L58.776 43.416L65.28 34.2H66.552V51H65.232V36.264L58.776 45.336H58.56L51.984 36.336V51ZM79.0029 40.2H80.4189L76.0509 51C75.2669 52.904 74.5869 54.168 74.0109 54.792C73.4349 55.464 72.7629 55.8 71.9949 55.8C71.4029 55.8 70.7869 55.616 70.1469 55.248L70.5549 54.288C71.0509 54.528 71.4749 54.648 71.8269 54.648C72.3709 54.648 72.8589 54.408 73.2909 53.928C73.7229 53.464 74.1709 52.68 74.6349 51.576L74.8749 51L69.5469 40.2H71.0349L74.7309 47.832L75.4989 49.512C75.5149 49.448 75.7149 48.872 76.0989 47.784L79.0029 40.2ZM91.1816 46.824C91.1816 46.088 90.9656 45.456 90.5336 44.928C90.1016 44.4 89.5656 44 88.9256 43.728C88.2856 43.456 87.5896 43.16 86.8376 42.84C86.0856 42.504 85.3896 42.176 84.7496 41.856C84.1096 41.536 83.5736 41.064 83.1416 40.44C82.7096 39.8 82.4936 39.048 82.4936 38.184C82.4936 36.968 82.9336 35.968 83.8136 35.184C84.7096 34.384 85.9096 33.984 87.4136 33.984C89.3816 33.984 90.8856 34.552 91.9256 35.688L91.2056 36.672C90.2456 35.712 88.9976 35.232 87.4616 35.232C86.3576 35.232 85.4856 35.504 84.8456 36.048C84.2056 36.576 83.8856 37.288 83.8856 38.184C83.8856 38.904 84.1016 39.528 84.5336 40.056C84.9656 40.568 85.5016 40.952 86.1416 41.208C86.7816 41.464 87.4776 41.752 88.2296 42.072C88.9816 42.376 89.6776 42.688 90.3176 43.008C90.9576 43.328 91.4936 43.816 91.9256 44.472C92.3576 45.112 92.5736 45.888 92.5736 46.8C92.5736 48.112 92.0616 49.176 91.0376 49.992C90.0136 50.808 88.7416 51.216 87.2216 51.216C86.1816 51.216 85.1576 51 84.1496 50.568C83.1576 50.104 82.4616 49.512 82.0616 48.792L82.8536 47.88C83.3336 48.504 83.9736 49.008 84.7736 49.392C85.5736 49.776 86.3816 49.968 87.1976 49.968C88.2856 49.968 89.2216 49.688 90.0056 49.128C90.7896 48.584 91.1816 47.816 91.1816 46.824ZM95.1632 42.6C95.1632 40.152 95.9632 38.104 97.5632 36.456C99.1632 34.808 101.171 33.984 103.587 33.984C105.987 33.984 107.987 34.8 109.587 36.432C111.203 38.048 112.011 40.104 112.011 42.6C112.011 45.224 111.115 47.36 109.323 49.008L111.003 51H109.419L108.387 49.776C106.963 50.736 105.363 51.216 103.587 51.216C101.187 51.216 99.1792 50.408 97.5632 48.792C95.9632 47.176 95.1632 45.112 95.1632 42.6ZM96.5552 42.6C96.5552 44.68 97.2272 46.432 98.5712 47.856C99.9312 49.264 101.603 49.968 103.587 49.968C105.059 49.968 106.379 49.576 107.547 48.792L106.059 46.992L106.947 46.2L108.483 48.024C109.907 46.6 110.619 44.792 110.619 42.6C110.619 40.472 109.939 38.72 108.579 37.344C107.235 35.936 105.571 35.232 103.587 35.232C101.587 35.232 99.9152 35.936 98.5712 37.344C97.2272 38.736 96.5552 40.488 96.5552 42.6ZM126.137 51H115.961V34.2H117.281V49.752H126.137V51Z" fill="#141414"/>
<rect x="268" width="245" height="124" rx="8" fill="#F6F4F2"/>
<path d="M328.672 34.2H330.28L322.336 42.144L330.616 51H328.912L320.776 42.24L328.672 34.2ZM319.984 51H318.664V34.2H319.984V51ZM340.643 48.72L341.051 49.68C340.075 50.704 338.747 51.216 337.067 51.216C335.339 51.216 333.955 50.704 332.915 49.68C331.859 48.656 331.331 47.296 331.331 45.6C331.331 43.968 331.811 42.624 332.771 41.568C333.747 40.512 335.091 39.984 336.803 39.984C338.195 39.984 339.363 40.432 340.307 41.328C341.235 42.208 341.699 43.384 341.699 44.856C341.699 45.24 341.675 45.576 341.627 45.864H332.723C332.771 47.16 333.195 48.184 333.995 48.936C334.795 49.672 335.843 50.04 337.139 50.04C338.643 50.04 339.811 49.6 340.643 48.72ZM336.683 41.16C335.531 41.16 334.595 41.496 333.875 42.168C333.171 42.84 332.763 43.728 332.651 44.832H340.427C340.411 43.696 340.067 42.8 339.395 42.144C338.723 41.488 337.819 41.16 336.683 41.16ZM357.789 51H344.685V40.2H345.933V49.824H350.613V40.2H351.861V49.824H356.541V40.2H357.789V51ZM370.055 42L362.855 51H361.607V40.2H362.855V49.2L370.055 40.2H371.303V51H370.055V42ZM376.332 55.8H375.084V40.2H376.332V41.64C376.764 41.16 377.34 40.768 378.06 40.464C378.796 40.144 379.54 39.984 380.292 39.984C381.828 39.984 383.052 40.488 383.964 41.496C384.876 42.504 385.332 43.816 385.332 45.432C385.332 47.112 384.82 48.496 383.796 49.584C382.756 50.672 381.42 51.216 379.788 51.216C378.332 51.216 377.18 50.912 376.332 50.304V55.8ZM379.956 41.16C379.252 41.16 378.564 41.32 377.892 41.64C377.236 41.96 376.716 42.36 376.332 42.84V49.056C377.324 49.712 378.444 50.04 379.692 50.04C380.972 50.04 382.012 49.616 382.812 48.768C383.612 47.92 384.012 46.832 384.012 45.504C384.012 44.176 383.652 43.12 382.932 42.336C382.212 41.552 381.22 41.16 379.956 41.16ZM393.269 51.216C391.605 51.216 390.245 50.688 389.189 49.632C388.133 48.576 387.605 47.232 387.605 45.6C387.605 43.968 388.133 42.624 389.189 41.568C390.245 40.512 391.605 39.984 393.269 39.984C394.933 39.984 396.293 40.512 397.349 41.568C398.405 42.624 398.933 43.968 398.933 45.6C398.933 47.232 398.405 48.576 397.349 49.632C396.293 50.688 394.933 51.216 393.269 51.216ZM393.269 50.04C394.565 50.04 395.605 49.632 396.389 48.816C397.205 47.984 397.613 46.912 397.613 45.6C397.613 44.304 397.205 43.24 396.389 42.408C395.573 41.576 394.533 41.16 393.269 41.16C392.021 41.16 390.981 41.576 390.149 42.408C389.333 43.24 388.925 44.304 388.925 45.6C388.925 46.896 389.333 47.96 390.149 48.792C390.965 49.624 392.005 50.04 393.269 50.04ZM401.99 51V40.2C402.518 40.2 403.03 40.192 403.526 40.176C404.55 40.144 405.198 40.128 405.47 40.128C408.446 40.128 409.934 41.056 409.934 42.912C409.934 43.536 409.734 44.08 409.334 44.544C408.95 44.992 408.422 45.272 407.75 45.384V45.432C409.478 45.688 410.342 46.552 410.342 48.024C410.342 50.056 408.734 51.072 405.518 51.072C405.31 51.072 404.678 51.056 403.622 51.024C403.094 51.008 402.55 51 401.99 51ZM405.83 46.032H403.238V49.848C404.486 49.88 405.294 49.896 405.662 49.896C407.902 49.896 409.022 49.232 409.022 47.904C409.022 46.656 407.958 46.032 405.83 46.032ZM405.614 41.304C405.086 41.304 404.294 41.32 403.238 41.352V45H406.094C406.878 45 407.494 44.832 407.942 44.496C408.39 44.144 408.614 43.68 408.614 43.104C408.614 41.904 407.614 41.304 405.614 41.304ZM413.88 42L413.544 40.968C414.616 40.312 415.76 39.984 416.976 39.984C418.384 39.984 419.4 40.336 420.024 41.04C420.664 41.744 420.984 42.832 420.984 44.304V51H419.736V49.344C418.856 50.544 417.624 51.144 416.04 51.144C415.032 51.144 414.224 50.856 413.616 50.28C413.008 49.688 412.704 48.904 412.704 47.928C412.704 46.872 413.088 46.048 413.856 45.456C414.608 44.864 415.592 44.568 416.808 44.568C418.024 44.568 419 44.84 419.736 45.384C419.736 44.264 419.656 43.408 419.496 42.816C419.368 42.24 419.104 41.832 418.704 41.592C418.32 41.352 417.72 41.208 416.904 41.16C415.928 41.16 414.92 41.44 413.88 42ZM416.424 49.968C417.768 49.968 418.872 49.4 419.736 48.264V46.464C418.952 45.888 418.016 45.6 416.928 45.6C416.112 45.6 415.424 45.8 414.864 46.2C414.304 46.6 414.024 47.152 414.024 47.856C414.024 48.496 414.248 49.008 414.696 49.392C415.144 49.776 415.72 49.968 416.424 49.968ZM434.064 51H432.816V46.104H425.808V51H424.56V40.2H425.808V44.928H432.816V40.2H434.064V51ZM446.297 42L439.097 51H437.849V40.2H439.097V49.2L446.297 40.2H447.545V51H446.297V42ZM459.87 48.72L460.278 49.68C459.302 50.704 457.974 51.216 456.294 51.216C454.566 51.216 453.182 50.704 452.142 49.68C451.086 48.656 450.558 47.296 450.558 45.6C450.558 43.968 451.038 42.624 451.998 41.568C452.974 40.512 454.318 39.984 456.03 39.984C457.422 39.984 458.59 40.432 459.534 41.328C460.462 42.208 460.926 43.384 460.926 44.856C460.926 45.24 460.902 45.576 460.854 45.864H451.95C451.998 47.16 452.422 48.184 453.222 48.936C454.022 49.672 455.07 50.04 456.366 50.04C457.87 50.04 459.038 49.6 459.87 48.72ZM455.91 41.16C454.758 41.16 453.822 41.496 453.102 42.168C452.398 42.84 451.99 43.728 451.878 44.832H459.654C459.638 43.696 459.294 42.8 458.622 42.144C457.95 41.488 457.046 41.16 455.91 41.16ZM317.896 86V75.2C318.424 75.2 318.936 75.192 319.432 75.176C320.456 75.144 321.104 75.128 321.376 75.128C324.352 75.128 325.84 76.056 325.84 77.912C325.84 78.536 325.64 79.08 325.24 79.544C324.856 79.992 324.328 80.272 323.656 80.384V80.432C325.384 80.688 326.248 81.552 326.248 83.024C326.248 85.056 324.64 86.072 321.424 86.072C321.216 86.072 320.584 86.056 319.528 86.024C319 86.008 318.456 86 317.896 86ZM321.736 81.032H319.144V84.848C320.392 84.88 321.2 84.896 321.568 84.896C323.808 84.896 324.928 84.232 324.928 82.904C324.928 81.656 323.864 81.032 321.736 81.032ZM321.52 76.304C320.992 76.304 320.2 76.32 319.144 76.352V80H322C322.784 80 323.4 79.832 323.848 79.496C324.296 79.144 324.52 78.68 324.52 78.104C324.52 76.904 323.52 76.304 321.52 76.304ZM337.187 86H335.867V69.2H337.211L343.979 78.416L350.483 69.2H351.755V86H350.435V71.264L343.979 80.336H343.763L337.187 71.336V86ZM364.854 83.72L365.262 84.68C364.286 85.704 362.958 86.216 361.278 86.216C359.55 86.216 358.166 85.704 357.126 84.68C356.07 83.656 355.542 82.296 355.542 80.6C355.542 78.968 356.022 77.624 356.982 76.568C357.958 75.512 359.302 74.984 361.014 74.984C362.406 74.984 363.574 75.432 364.518 76.328C365.446 77.208 365.91 78.384 365.91 79.856C365.91 80.24 365.886 80.576 365.838 80.864H356.934C356.982 82.16 357.406 83.184 358.206 83.936C359.006 84.672 360.054 85.04 361.35 85.04C362.854 85.04 364.022 84.6 364.854 83.72ZM360.894 76.16C359.742 76.16 358.806 76.496 358.086 77.168C357.382 77.84 356.974 78.728 356.862 79.832H364.638C364.622 78.696 364.278 77.8 363.606 77.144C362.934 76.488 362.03 76.16 360.894 76.16ZM384.64 78.92V86H383.392V79.256C383.392 77.208 382.48 76.184 380.656 76.184C379.168 76.184 378.064 76.784 377.344 77.984C377.376 78.144 377.392 78.4 377.392 78.752V86H376.144V78.704C376.144 77.92 375.904 77.304 375.424 76.856C374.944 76.408 374.28 76.184 373.432 76.184C372.04 76.184 370.944 76.752 370.144 77.888V86H368.896V75.2H370.144V76.712C370.56 76.2 371.104 75.792 371.776 75.488C372.464 75.168 373.168 75.008 373.888 75.008C374.736 75.008 375.448 75.184 376.024 75.536C376.616 75.888 377.008 76.376 377.2 77C377.6 76.392 378.152 75.912 378.856 75.56C379.576 75.192 380.336 75.008 381.136 75.008C383.472 75.008 384.64 76.312 384.64 78.92ZM396.609 83.552L397.233 84.464C396.801 85.024 396.217 85.456 395.481 85.76C394.761 86.064 393.985 86.216 393.153 86.216C391.473 86.216 390.097 85.704 389.025 84.68C387.969 83.656 387.441 82.296 387.441 80.6C387.441 79.016 387.953 77.688 388.977 76.616C390.017 75.528 391.297 74.984 392.817 74.984C394.673 74.984 396.073 75.432 397.017 76.328L396.417 77.336C395.569 76.552 394.433 76.16 393.009 76.16C391.857 76.16 390.857 76.584 390.009 77.432C389.177 78.264 388.761 79.32 388.761 80.6C388.761 81.944 389.185 83.024 390.033 83.84C390.881 84.64 391.953 85.04 393.249 85.04C394.641 85.04 395.761 84.544 396.609 83.552ZM400.31 77L399.974 75.968C401.046 75.312 402.19 74.984 403.406 74.984C404.814 74.984 405.83 75.336 406.454 76.04C407.094 76.744 407.414 77.832 407.414 79.304V86H406.166V84.344C405.286 85.544 404.054 86.144 402.47 86.144C401.462 86.144 400.654 85.856 400.046 85.28C399.438 84.688 399.134 83.904 399.134 82.928C399.134 81.872 399.518 81.048 400.286 80.456C401.038 79.864 402.022 79.568 403.238 79.568C404.454 79.568 405.43 79.84 406.166 80.384C406.166 79.264 406.086 78.408 405.926 77.816C405.798 77.24 405.534 76.832 405.134 76.592C404.75 76.352 404.15 76.208 403.334 76.16C402.358 76.16 401.35 76.44 400.31 77ZM402.854 84.968C404.198 84.968 405.302 84.4 406.166 83.264V81.464C405.382 80.888 404.446 80.6 403.358 80.6C402.542 80.6 401.854 80.8 401.294 81.2C400.734 81.6 400.454 82.152 400.454 82.856C400.454 83.496 400.678 84.008 401.126 84.392C401.574 84.776 402.15 84.968 402.854 84.968ZM419.39 83.552L420.014 84.464C419.582 85.024 418.998 85.456 418.262 85.76C417.542 86.064 416.766 86.216 415.934 86.216C414.254 86.216 412.878 85.704 411.806 84.68C410.75 83.656 410.222 82.296 410.222 80.6C410.222 79.016 410.734 77.688 411.758 76.616C412.798 75.528 414.078 74.984 415.598 74.984C417.454 74.984 418.854 75.432 419.798 76.328L419.198 77.336C418.35 76.552 417.214 76.16 415.79 76.16C414.638 76.16 413.638 76.584 412.79 77.432C411.958 78.264 411.542 79.32 411.542 80.6C411.542 81.944 411.966 83.024 412.814 83.84C413.662 84.64 414.734 85.04 416.03 85.04C417.422 85.04 418.542 84.544 419.39 83.552ZM424.003 86H422.755V69.2H424.003V76.664C424.435 76.184 425.011 75.792 425.731 75.488C426.451 75.168 427.171 75.008 427.891 75.008C430.899 75.008 432.403 76.624 432.403 79.856V86H431.155V80.048C431.155 77.472 429.971 76.184 427.603 76.184C426.915 76.184 426.235 76.344 425.563 76.664C424.907 76.968 424.387 77.36 424.003 77.84V86ZM444.518 83.72L444.926 84.68C443.95 85.704 442.622 86.216 440.942 86.216C439.214 86.216 437.83 85.704 436.79 84.68C435.734 83.656 435.206 82.296 435.206 80.6C435.206 78.968 435.686 77.624 436.646 76.568C437.622 75.512 438.966 74.984 440.678 74.984C442.07 74.984 443.238 75.432 444.182 76.328C445.11 77.208 445.574 78.384 445.574 79.856C445.574 80.24 445.55 80.576 445.502 80.864H436.598C436.646 82.16 437.07 83.184 437.87 83.936C438.67 84.672 439.718 85.04 441.014 85.04C442.518 85.04 443.686 84.6 444.518 83.72ZM440.558 76.16C439.406 76.16 438.47 76.496 437.75 77.168C437.046 77.84 436.638 78.728 436.526 79.832H444.302C444.286 78.696 443.942 77.8 443.27 77.144C442.598 76.488 441.694 76.16 440.558 76.16ZM458.04 86H456.792V84.464C455.784 85.616 454.544 86.192 453.072 86.192C451.472 86.192 450.192 85.688 449.232 84.68C448.272 83.672 447.792 82.328 447.792 80.648C447.792 78.984 448.344 77.624 449.448 76.568C450.568 75.512 451.976 74.984 453.672 74.984C454.92 74.984 455.96 75.296 456.792 75.92V69.2H458.04V86ZM453.312 85.016C453.968 85.016 454.608 84.856 455.232 84.536C455.872 84.216 456.392 83.808 456.792 83.312V77.144C455.8 76.488 454.768 76.16 453.696 76.16C452.4 76.16 451.312 76.576 450.432 77.408C449.552 78.224 449.112 79.288 449.112 80.6C449.112 81.944 449.496 83.016 450.264 83.816C451.032 84.616 452.048 85.016 453.312 85.016Z" fill="#141414"/>
</svg>
