<svg width="1332" height="235" viewBox="0 0 1332 235" fill="none" xmlns="http://www.w3.org/2000/svg">
<path d="M499.207 194.707C499.598 194.317 499.598 193.683 499.207 193.293L492.843 186.929C492.453 186.538 491.819 186.538 491.429 186.929C491.038 187.319 491.038 187.953 491.429 188.343L497.086 194L491.429 199.657C491.038 200.047 491.038 200.681 491.429 201.071C491.819 201.462 492.453 201.462 492.843 201.071L499.207 194.707ZM385 195L498.5 195L498.5 193L385 193L385 195Z" fill="#E4002B"/>
<path d="M875.207 194.707C875.598 194.317 875.598 193.683 875.207 193.293L868.843 186.929C868.453 186.538 867.819 186.538 867.429 186.929C867.038 187.319 867.038 187.953 867.429 188.343L873.086 194L867.429 199.657C867.038 200.047 867.038 200.681 867.429 201.071C867.819 201.462 868.453 201.462 868.843 201.071L875.207 194.707ZM761 195L874.5 195L874.5 193L761 193L761 195Z" fill="#E4002B"/>
<rect x="524" y="146" width="227" height="89" rx="8" fill="#F6F4F2"/>
<path d="M573.752 184.112L573.08 183.104L576.896 180.056H577.76V197H576.512V181.88L573.752 184.112ZM595.33 194.384L595.858 195.368C595.282 195.944 594.522 196.4 593.578 196.736C592.65 197.056 591.674 197.216 590.65 197.216C588.154 197.216 586.122 196.432 584.554 194.864C583.002 193.312 582.226 191.224 582.226 188.6C582.226 186.12 582.978 184.072 584.482 182.456C585.986 180.808 587.978 179.984 590.458 179.984C592.586 179.984 594.282 180.512 595.546 181.568L594.922 182.552C593.786 181.672 592.306 181.232 590.482 181.232C588.434 181.232 586.778 181.928 585.514 183.32C584.25 184.68 583.618 186.44 583.618 188.6C583.618 190.792 584.274 192.568 585.586 193.928C586.898 195.288 588.618 195.968 590.746 195.968C592.506 195.968 594.034 195.44 595.33 194.384ZM603.817 191.072H598.321V189.896H603.817V191.072ZM608.531 197V180.2H617.795V181.448H609.851V187.136C610.827 187.04 611.771 186.992 612.683 186.992C614.619 186.992 616.107 187.416 617.147 188.264C618.203 189.112 618.731 190.304 618.731 191.84C618.731 193.52 618.171 194.816 617.051 195.728C615.931 196.624 614.347 197.072 612.299 197.072C612.027 197.072 611.331 197.056 610.211 197.024C609.651 197.008 609.091 197 608.531 197ZM612.635 188.24C611.611 188.24 610.683 188.288 609.851 188.384V195.752C611.435 195.8 612.315 195.824 612.491 195.824C614.107 195.824 615.331 195.488 616.163 194.816C616.995 194.144 617.411 193.176 617.411 191.912C617.411 190.744 617.003 189.84 616.187 189.2C615.371 188.56 614.187 188.24 612.635 188.24ZM630.86 188L623.66 197H622.412V186.2H623.66V195.2L630.86 186.2H632.108V197H630.86V188ZM638.6 187.448H634.304V186.2H644.144V187.448H639.848V197H638.6V187.448ZM647.589 201.8H646.341V186.2H647.589V187.64C648.021 187.16 648.597 186.768 649.317 186.464C650.053 186.144 650.797 185.984 651.549 185.984C653.085 185.984 654.309 186.488 655.221 187.496C656.133 188.504 656.589 189.816 656.589 191.432C656.589 193.112 656.077 194.496 655.053 195.584C654.013 196.672 652.677 197.216 651.045 197.216C649.589 197.216 648.437 196.912 647.589 196.304V201.8ZM651.213 187.16C650.509 187.16 649.821 187.32 649.149 187.64C648.493 187.96 647.973 188.36 647.589 188.84V195.056C648.581 195.712 649.701 196.04 650.949 196.04C652.229 196.04 653.269 195.616 654.069 194.768C654.869 193.92 655.269 192.832 655.269 191.504C655.269 190.176 654.909 189.12 654.189 188.336C653.469 187.552 652.477 187.16 651.213 187.16ZM668.078 188L660.878 197H659.63V186.2H660.878V195.2L668.078 186.2H669.326V197H668.078V188ZM680.307 186.2H681.915L676.587 191.36L682.347 197H680.667L675.075 191.432L680.307 186.2ZM674.355 197H673.107V186.2H674.355V197ZM692.593 194.552L693.217 195.464C692.785 196.024 692.201 196.456 691.465 196.76C690.745 197.064 689.969 197.216 689.137 197.216C687.457 197.216 686.081 196.704 685.009 195.68C683.953 194.656 683.425 193.296 683.425 191.6C683.425 190.016 683.937 188.688 684.961 187.616C686.001 186.528 687.281 185.984 688.801 185.984C690.657 185.984 692.057 186.432 693.001 187.328L692.401 188.336C691.553 187.552 690.417 187.16 688.993 187.16C687.841 187.16 686.841 187.584 685.993 188.432C685.161 189.264 684.745 190.32 684.745 191.6C684.745 192.944 685.169 194.024 686.017 194.84C686.865 195.64 687.937 196.04 689.233 196.04C690.625 196.04 691.745 195.544 692.593 194.552Z" fill="#141414"/>
<rect width="356" height="116" rx="8" fill="#F6F4F2"/>
<path d="M115.613 36.36L104.309 51H103.133V34.2H104.453V48.84L115.757 34.2H116.933V51H115.613V36.36ZM122.738 51H121.49V40.2H122.666L127.154 46.224L131.474 40.2H132.602V51H131.354V42.096L127.154 47.928H127.082L122.738 42.096V51ZM145.803 51H144.555V41.376H137.667V51H136.419V40.2H145.803V51ZM154.487 51.216C152.823 51.216 151.463 50.688 150.407 49.632C149.351 48.576 148.823 47.232 148.823 45.6C148.823 43.968 149.351 42.624 150.407 41.568C151.463 40.512 152.823 39.984 154.487 39.984C156.151 39.984 157.511 40.512 158.567 41.568C159.623 42.624 160.151 43.968 160.151 45.6C160.151 47.232 159.623 48.576 158.567 49.632C157.511 50.688 156.151 51.216 154.487 51.216ZM154.487 50.04C155.783 50.04 156.823 49.632 157.607 48.816C158.423 47.984 158.831 46.912 158.831 45.6C158.831 44.304 158.423 43.24 157.607 42.408C156.791 41.576 155.751 41.16 154.487 41.16C153.239 41.16 152.199 41.576 151.367 42.408C150.551 43.24 150.143 44.304 150.143 45.6C150.143 46.896 150.551 47.96 151.367 48.792C152.183 49.624 153.223 50.04 154.487 50.04ZM164.457 55.8H163.209V40.2H164.457V41.64C164.889 41.16 165.465 40.768 166.185 40.464C166.921 40.144 167.665 39.984 168.417 39.984C169.953 39.984 171.177 40.488 172.089 41.496C173.001 42.504 173.457 43.816 173.457 45.432C173.457 47.112 172.945 48.496 171.921 49.584C170.881 50.672 169.545 51.216 167.913 51.216C166.457 51.216 165.305 50.912 164.457 50.304V55.8ZM168.081 41.16C167.377 41.16 166.689 41.32 166.017 41.64C165.361 41.96 164.841 42.36 164.457 42.84V49.056C165.449 49.712 166.569 50.04 167.817 50.04C169.097 50.04 170.137 49.616 170.937 48.768C171.737 47.92 172.137 46.832 172.137 45.504C172.137 44.176 171.777 43.12 171.057 42.336C170.337 41.552 169.345 41.16 168.081 41.16ZM178.788 41.448H174.492V40.2H184.332V41.448H180.036V51H178.788V41.448ZM201.681 51H200.433V46.104H193.425V51H192.177V40.2H193.425V44.928H200.433V40.2H201.681V51ZM210.362 51.216C208.698 51.216 207.338 50.688 206.282 49.632C205.226 48.576 204.698 47.232 204.698 45.6C204.698 43.968 205.226 42.624 206.282 41.568C207.338 40.512 208.698 39.984 210.362 39.984C212.026 39.984 213.386 40.512 214.442 41.568C215.498 42.624 216.026 43.968 216.026 45.6C216.026 47.232 215.498 48.576 214.442 49.632C213.386 50.688 212.026 51.216 210.362 51.216ZM210.362 50.04C211.658 50.04 212.698 49.632 213.482 48.816C214.298 47.984 214.706 46.912 214.706 45.6C214.706 44.304 214.298 43.24 213.482 42.408C212.666 41.576 211.626 41.16 210.362 41.16C209.114 41.16 208.074 41.576 207.242 42.408C206.426 43.24 206.018 44.304 206.018 45.6C206.018 46.896 206.426 47.96 207.242 48.792C208.058 49.624 209.098 50.04 210.362 50.04ZM219.084 51V40.2C219.612 40.2 220.124 40.192 220.62 40.176C221.644 40.144 222.292 40.128 222.564 40.128C225.54 40.128 227.028 41.056 227.028 42.912C227.028 43.536 226.828 44.08 226.428 44.544C226.044 44.992 225.516 45.272 224.844 45.384V45.432C226.572 45.688 227.436 46.552 227.436 48.024C227.436 50.056 225.828 51.072 222.612 51.072C222.404 51.072 221.772 51.056 220.715 51.024C220.188 51.008 219.644 51 219.084 51ZM222.924 46.032H220.332V49.848C221.58 49.88 222.388 49.896 222.756 49.896C224.996 49.896 226.116 49.232 226.116 47.904C226.116 46.656 225.052 46.032 222.924 46.032ZM222.708 41.304C222.18 41.304 221.388 41.32 220.332 41.352V45H223.188C223.972 45 224.588 44.832 225.036 44.496C225.484 44.144 225.708 43.68 225.708 43.104C225.708 41.904 224.708 41.304 222.708 41.304ZM233.614 51H230.638V40.2H231.886V43.824H233.758C236.606 43.824 238.03 45.008 238.03 47.376C238.03 48.496 237.67 49.384 236.95 50.04C236.23 50.68 235.118 51 233.614 51ZM233.542 45H231.886V49.824H233.518C234.654 49.824 235.47 49.624 235.966 49.224C236.462 48.824 236.71 48.216 236.71 47.4C236.71 45.8 235.654 45 233.542 45ZM241.75 51H240.502V40.2H241.75V51ZM253.08 40.2H254.544L250.488 45.432L254.784 51H253.248L249.552 46.224L245.856 51H244.392L248.688 45.48L244.632 40.2H246.168L249.6 44.664L253.08 40.2ZM110.072 77L109.736 75.968C110.808 75.312 111.952 74.984 113.168 74.984C114.576 74.984 115.592 75.336 116.216 76.04C116.856 76.744 117.176 77.832 117.176 79.304V86H115.928V84.344C115.048 85.544 113.816 86.144 112.232 86.144C111.224 86.144 110.416 85.856 109.808 85.28C109.2 84.688 108.896 83.904 108.896 82.928C108.896 81.872 109.28 81.048 110.048 80.456C110.8 79.864 111.784 79.568 113 79.568C114.216 79.568 115.192 79.84 115.928 80.384C115.928 79.264 115.848 78.408 115.688 77.816C115.56 77.24 115.296 76.832 114.896 76.592C114.512 76.352 113.912 76.208 113.096 76.16C112.12 76.16 111.112 76.44 110.072 77ZM112.616 84.968C113.96 84.968 115.064 84.4 115.928 83.264V81.464C115.144 80.888 114.208 80.6 113.12 80.6C112.304 80.6 111.616 80.8 111.056 81.2C110.496 81.6 110.216 82.152 110.216 82.856C110.216 83.496 110.44 84.008 110.888 84.392C111.336 84.776 111.912 84.968 112.616 84.968ZM120.751 86V75.2C121.279 75.2 121.791 75.192 122.287 75.176C123.311 75.144 123.959 75.128 124.231 75.128C127.207 75.128 128.695 76.056 128.695 77.912C128.695 78.536 128.495 79.08 128.095 79.544C127.711 79.992 127.183 80.272 126.511 80.384V80.432C128.239 80.688 129.103 81.552 129.103 83.024C129.103 85.056 127.495 86.072 124.279 86.072C124.071 86.072 123.439 86.056 122.383 86.024C121.855 86.008 121.311 86 120.751 86ZM124.591 81.032H121.999V84.848C123.247 84.88 124.055 84.896 124.423 84.896C126.663 84.896 127.783 84.232 127.783 82.904C127.783 81.656 126.719 81.032 124.591 81.032ZM124.375 76.304C123.847 76.304 123.055 76.32 121.999 76.352V80H124.855C125.639 80 126.255 79.832 126.703 79.496C127.151 79.144 127.375 78.68 127.375 78.104C127.375 76.904 126.375 76.304 124.375 76.304ZM135.018 76.448H130.722V75.2H140.562V76.448H136.266V86H135.018V76.448ZM147.28 86.216C145.616 86.216 144.256 85.688 143.2 84.632C142.144 83.576 141.616 82.232 141.616 80.6C141.616 78.968 142.144 77.624 143.2 76.568C144.256 75.512 145.616 74.984 147.28 74.984C148.944 74.984 150.304 75.512 151.36 76.568C152.416 77.624 152.944 78.968 152.944 80.6C152.944 82.232 152.416 83.576 151.36 84.632C150.304 85.688 148.944 86.216 147.28 86.216ZM147.28 85.04C148.576 85.04 149.616 84.632 150.4 83.816C151.216 82.984 151.624 81.912 151.624 80.6C151.624 79.304 151.216 78.24 150.4 77.408C149.584 76.576 148.544 76.16 147.28 76.16C146.032 76.16 144.992 76.576 144.16 77.408C143.344 78.24 142.936 79.304 142.936 80.6C142.936 81.896 143.344 82.96 144.16 83.792C144.976 84.624 146.016 85.04 147.28 85.04ZM157.249 86H156.001V75.2H157.177L161.665 81.224L165.985 75.2H167.113V86H165.865V77.096L161.665 82.928H161.593L157.249 77.096V86ZM175.827 86.216C174.163 86.216 172.803 85.688 171.747 84.632C170.691 83.576 170.163 82.232 170.163 80.6C170.163 78.968 170.691 77.624 171.747 76.568C172.803 75.512 174.163 74.984 175.827 74.984C177.491 74.984 178.851 75.512 179.907 76.568C180.963 77.624 181.491 78.968 181.491 80.6C181.491 82.232 180.963 83.576 179.907 84.632C178.851 85.688 177.491 86.216 175.827 86.216ZM175.827 85.04C177.123 85.04 178.163 84.632 178.947 83.816C179.763 82.984 180.171 81.912 180.171 80.6C180.171 79.304 179.763 78.24 178.947 77.408C178.131 76.576 177.091 76.16 175.827 76.16C174.579 76.16 173.539 76.576 172.707 77.408C171.891 78.24 171.483 79.304 171.483 80.6C171.483 81.896 171.891 82.96 172.707 83.792C173.523 84.624 174.563 85.04 175.827 85.04ZM193.092 68.96L193.788 69.896C193.42 70.424 192.972 70.784 192.444 70.976C191.788 71.168 191.092 71.32 190.356 71.432C189.524 71.544 188.772 71.752 188.1 72.056C186.26 72.84 185.228 74.888 185.004 78.2H185.052C185.42 77.32 186.036 76.616 186.9 76.088C187.764 75.544 188.7 75.272 189.708 75.272C191.276 75.272 192.524 75.768 193.452 76.76C194.38 77.736 194.844 79.048 194.844 80.696C194.844 82.216 194.324 83.52 193.284 84.608C192.26 85.68 190.956 86.216 189.372 86.216C187.676 86.216 186.308 85.624 185.268 84.44C184.26 83.256 183.756 81.632 183.756 79.568C183.756 74.832 185.076 71.928 187.716 70.856C188.388 70.584 189.132 70.384 189.948 70.256C190.908 70.096 191.596 69.944 192.012 69.8C192.428 69.64 192.788 69.36 193.092 68.96ZM185.076 79.784C185.076 81.4 185.468 82.68 186.252 83.624C187.036 84.568 188.06 85.04 189.324 85.04C190.54 85.04 191.54 84.624 192.324 83.792C193.124 82.944 193.524 81.928 193.524 80.744C193.524 79.448 193.156 78.408 192.42 77.624C191.684 76.84 190.684 76.448 189.42 76.448C188.284 76.448 187.316 76.784 186.516 77.456C185.748 78.128 185.268 78.904 185.076 79.784ZM206.309 77L199.109 86H197.861V75.2H199.109V84.2L206.309 75.2H207.557V86H206.309V77ZM220.193 86H218.945V76.448H214.385L214.241 78.8C214.033 81.84 213.529 83.856 212.729 84.848C212.089 85.68 211.297 86.096 210.353 86.096L210.257 84.872C210.673 84.872 211.065 84.68 211.433 84.296C212.313 83.48 212.849 81.568 213.041 78.56L213.209 75.2H220.193V86ZM232.538 83.72L232.946 84.68C231.97 85.704 230.642 86.216 228.962 86.216C227.234 86.216 225.85 85.704 224.81 84.68C223.754 83.656 223.226 82.296 223.226 80.6C223.226 78.968 223.706 77.624 224.666 76.568C225.642 75.512 226.986 74.984 228.698 74.984C230.09 74.984 231.258 75.432 232.202 76.328C233.13 77.208 233.594 78.384 233.594 79.856C233.594 80.24 233.57 80.576 233.522 80.864H224.618C224.666 82.16 225.09 83.184 225.89 83.936C226.69 84.672 227.738 85.04 229.034 85.04C230.538 85.04 231.706 84.6 232.538 83.72ZM228.578 76.16C227.426 76.16 226.49 76.496 225.77 77.168C225.066 77.84 224.658 78.728 224.546 79.832H232.322C232.306 78.696 231.962 77.8 231.29 77.144C230.618 76.488 229.714 76.16 228.578 76.16ZM245.028 77L237.828 86H236.58V75.2H237.828V84.2L245.028 75.2H246.276V86H245.028V77ZM238.236 69.584H239.364C239.364 70.176 239.572 70.68 239.988 71.096C240.404 71.496 240.94 71.696 241.596 71.696C242.22 71.696 242.732 71.496 243.132 71.096C243.532 70.68 243.732 70.176 243.732 69.584H244.86C244.86 70.464 244.556 71.2 243.948 71.792C243.34 72.368 242.556 72.656 241.596 72.656C240.572 72.656 239.756 72.376 239.148 71.816C238.54 71.24 238.236 70.496 238.236 69.584Z" fill="#141414"/>
<path d="M385.674 25.25L385.422 24.476C386.226 23.984 387.084 23.738 387.996 23.738C389.052 23.738 389.814 24.002 390.282 24.53C390.762 25.058 391.002 25.874 391.002 26.978V32H390.066V30.758C389.406 31.658 388.482 32.108 387.294 32.108C386.538 32.108 385.932 31.892 385.476 31.46C385.02 31.016 384.792 30.428 384.792 29.696C384.792 28.904 385.08 28.286 385.656 27.842C386.22 27.398 386.958 27.176 387.87 27.176C388.782 27.176 389.514 27.38 390.066 27.788C390.066 26.948 390.006 26.306 389.886 25.862C389.79 25.43 389.592 25.124 389.292 24.944C389.004 24.764 388.554 24.656 387.942 24.62C387.21 24.62 386.454 24.83 385.674 25.25ZM387.582 31.226C388.59 31.226 389.418 30.8 390.066 29.948V28.598C389.478 28.166 388.776 27.95 387.96 27.95C387.348 27.95 386.832 28.1 386.412 28.4C385.992 28.7 385.782 29.114 385.782 29.642C385.782 30.122 385.95 30.506 386.286 30.794C386.622 31.082 387.054 31.226 387.582 31.226ZM394.62 35.6H393.684V23.9H394.62V24.98C394.944 24.62 395.376 24.326 395.916 24.098C396.468 23.858 397.026 23.738 397.59 23.738C398.742 23.738 399.66 24.116 400.344 24.872C401.028 25.628 401.37 26.612 401.37 27.824C401.37 29.084 400.986 30.122 400.218 30.938C399.438 31.754 398.436 32.162 397.212 32.162C396.12 32.162 395.256 31.934 394.62 31.478V35.6ZM397.338 24.62C396.81 24.62 396.294 24.74 395.79 24.98C395.298 25.22 394.908 25.52 394.62 25.88V30.542C395.364 31.034 396.204 31.28 397.14 31.28C398.1 31.28 398.88 30.962 399.48 30.326C400.08 29.69 400.38 28.874 400.38 27.878C400.38 26.882 400.11 26.09 399.57 25.502C399.03 24.914 398.286 24.62 397.338 24.62ZM405.037 32H404.101V23.9H405.037V32ZM403.939 20.75C403.939 20.57 404.005 20.426 404.137 20.318C404.269 20.21 404.425 20.156 404.605 20.156C404.761 20.156 404.899 20.216 405.019 20.336C405.151 20.444 405.217 20.582 405.217 20.75C405.217 20.954 405.157 21.116 405.037 21.236C404.929 21.356 404.785 21.416 404.605 21.416C404.413 21.416 404.251 21.356 404.119 21.236C403.999 21.116 403.939 20.954 403.939 20.75Z" fill="#141414"/>
<path d="M741.674 25.25L741.422 24.476C742.226 23.984 743.084 23.738 743.996 23.738C745.052 23.738 745.814 24.002 746.282 24.53C746.762 25.058 747.002 25.874 747.002 26.978V32H746.066V30.758C745.406 31.658 744.482 32.108 743.294 32.108C742.538 32.108 741.932 31.892 741.476 31.46C741.02 31.016 740.792 30.428 740.792 29.696C740.792 28.904 741.08 28.286 741.656 27.842C742.22 27.398 742.958 27.176 743.87 27.176C744.782 27.176 745.514 27.38 746.066 27.788C746.066 26.948 746.006 26.306 745.886 25.862C745.79 25.43 745.592 25.124 745.292 24.944C745.004 24.764 744.554 24.656 743.942 24.62C743.21 24.62 742.454 24.83 741.674 25.25ZM743.582 31.226C744.59 31.226 745.418 30.8 746.066 29.948V28.598C745.478 28.166 744.776 27.95 743.96 27.95C743.348 27.95 742.832 28.1 742.412 28.4C741.992 28.7 741.782 29.114 741.782 29.642C741.782 30.122 741.95 30.506 742.286 30.794C742.622 31.082 743.054 31.226 743.582 31.226ZM750.62 35.6H749.684V23.9H750.62V24.98C750.944 24.62 751.376 24.326 751.916 24.098C752.468 23.858 753.026 23.738 753.59 23.738C754.742 23.738 755.66 24.116 756.344 24.872C757.028 25.628 757.37 26.612 757.37 27.824C757.37 29.084 756.986 30.122 756.218 30.938C755.438 31.754 754.436 32.162 753.212 32.162C752.12 32.162 751.256 31.934 750.62 31.478V35.6ZM753.338 24.62C752.81 24.62 752.294 24.74 751.79 24.98C751.298 25.22 750.908 25.52 750.62 25.88V30.542C751.364 31.034 752.204 31.28 753.14 31.28C754.1 31.28 754.88 30.962 755.48 30.326C756.08 29.69 756.38 28.874 756.38 27.878C756.38 26.882 756.11 26.09 755.57 25.502C755.03 24.914 754.286 24.62 753.338 24.62ZM761.037 32H760.101V23.9H761.037V32ZM759.939 20.75C759.939 20.57 760.005 20.426 760.137 20.318C760.269 20.21 760.425 20.156 760.605 20.156C760.761 20.156 760.899 20.216 761.019 20.336C761.151 20.444 761.217 20.582 761.217 20.75C761.217 20.954 761.157 21.116 761.037 21.236C760.929 21.356 760.785 21.416 760.605 21.416C760.413 21.416 760.251 21.356 760.119 21.236C759.999 21.116 759.939 20.954 759.939 20.75ZM763.138 35.744L762.382 35.456L768.43 19.238L769.168 19.508L763.138 35.744ZM776.465 30.29L776.771 31.01C776.039 31.778 775.043 32.162 773.783 32.162C772.487 32.162 771.449 31.778 770.669 31.01C769.877 30.242 769.481 29.222 769.481 27.95C769.481 26.726 769.841 25.718 770.561 24.926C771.293 24.134 772.301 23.738 773.585 23.738C774.629 23.738 775.505 24.074 776.213 24.746C776.909 25.406 777.257 26.288 777.257 27.392C777.257 27.68 777.239 27.932 777.203 28.148H770.525C770.561 29.12 770.879 29.888 771.479 30.452C772.079 31.004 772.865 31.28 773.837 31.28C774.965 31.28 775.841 30.95 776.465 30.29ZM773.495 24.62C772.631 24.62 771.929 24.872 771.389 25.376C770.861 25.88 770.555 26.546 770.471 27.374H776.303C776.291 26.522 776.033 25.85 775.529 25.358C775.025 24.866 774.347 24.62 773.495 24.62ZM791.304 26.69V32H790.368V26.942C790.368 25.406 789.684 24.638 788.316 24.638C787.2 24.638 786.372 25.088 785.832 25.988C785.856 26.108 785.868 26.3 785.868 26.564V32H784.932V26.528C784.932 25.94 784.752 25.478 784.392 25.142C784.032 24.806 783.534 24.638 782.898 24.638C781.854 24.638 781.032 25.064 780.432 25.916V32H779.496V23.9H780.432V25.034C780.744 24.65 781.152 24.344 781.656 24.116C782.172 23.876 782.7 23.756 783.24 23.756C783.876 23.756 784.41 23.888 784.842 24.152C785.286 24.416 785.58 24.782 785.724 25.25C786.024 24.794 786.438 24.434 786.966 24.17C787.506 23.894 788.076 23.756 788.676 23.756C790.428 23.756 791.304 24.734 791.304 26.69ZM794.233 25.25L793.981 24.476C794.785 23.984 795.643 23.738 796.555 23.738C797.611 23.738 798.373 24.002 798.841 24.53C799.321 25.058 799.561 25.874 799.561 26.978V32H798.625V30.758C797.965 31.658 797.041 32.108 795.853 32.108C795.097 32.108 794.491 31.892 794.035 31.46C793.579 31.016 793.351 30.428 793.351 29.696C793.351 28.904 793.639 28.286 794.215 27.842C794.779 27.398 795.517 27.176 796.429 27.176C797.341 27.176 798.073 27.38 798.625 27.788C798.625 26.948 798.565 26.306 798.445 25.862C798.349 25.43 798.151 25.124 797.851 24.944C797.563 24.764 797.113 24.656 796.501 24.62C795.769 24.62 795.013 24.83 794.233 25.25ZM796.141 31.226C797.149 31.226 797.977 30.8 798.625 29.948V28.598C798.037 28.166 797.335 27.95 796.519 27.95C795.907 27.95 795.391 28.1 794.971 28.4C794.551 28.7 794.341 29.114 794.341 29.642C794.341 30.122 794.509 30.506 794.845 30.794C795.181 31.082 795.613 31.226 796.141 31.226ZM803.628 32H802.692V23.9H803.628V32ZM802.53 20.75C802.53 20.57 802.596 20.426 802.728 20.318C802.86 20.21 803.016 20.156 803.196 20.156C803.352 20.156 803.49 20.216 803.61 20.336C803.742 20.444 803.808 20.582 803.808 20.75C803.808 20.954 803.748 21.116 803.628 21.236C803.52 21.356 803.376 21.416 803.196 21.416C803.004 21.416 802.842 21.356 802.71 21.236C802.59 21.116 802.53 20.954 802.53 20.75ZM806.936 29.912V19.4H807.872V29.408C807.872 30.044 807.962 30.506 808.142 30.794C808.322 31.082 808.622 31.226 809.042 31.226C809.45 31.226 809.828 31.094 810.176 30.83L810.41 31.568C809.942 31.928 809.372 32.108 808.7 32.108C807.524 32.108 806.936 31.376 806.936 29.912ZM810.81 35.744L810.054 35.456L816.102 19.238L816.84 19.508L810.81 35.744ZM817.621 22.334L817.117 21.578L819.979 19.292H820.627V32H819.691V20.66L817.621 22.334ZM833.804 30.038L834.2 30.776C833.768 31.208 833.198 31.55 832.49 31.802C831.794 32.042 831.062 32.162 830.294 32.162C828.422 32.162 826.898 31.574 825.722 30.398C824.558 29.234 823.976 27.668 823.976 25.7C823.976 23.84 824.54 22.304 825.668 21.092C826.796 19.856 828.29 19.238 830.15 19.238C831.746 19.238 833.018 19.634 833.966 20.426L833.498 21.164C832.646 20.504 831.536 20.174 830.168 20.174C828.632 20.174 827.39 20.696 826.442 21.74C825.494 22.76 825.02 24.08 825.02 25.7C825.02 27.344 825.512 28.676 826.496 29.696C827.48 30.716 828.77 31.226 830.366 31.226C831.686 31.226 832.832 30.83 833.804 30.038Z" fill="#141414"/>
<path d="M385.674 172.25L385.422 171.476C386.226 170.984 387.084 170.738 387.996 170.738C389.052 170.738 389.814 171.002 390.282 171.53C390.762 172.058 391.002 172.874 391.002 173.978V179H390.066V177.758C389.406 178.658 388.482 179.108 387.294 179.108C386.538 179.108 385.932 178.892 385.476 178.46C385.02 178.016 384.792 177.428 384.792 176.696C384.792 175.904 385.08 175.286 385.656 174.842C386.22 174.398 386.958 174.176 387.87 174.176C388.782 174.176 389.514 174.38 390.066 174.788C390.066 173.948 390.006 173.306 389.886 172.862C389.79 172.43 389.592 172.124 389.292 171.944C389.004 171.764 388.554 171.656 387.942 171.62C387.21 171.62 386.454 171.83 385.674 172.25ZM387.582 178.226C388.59 178.226 389.418 177.8 390.066 176.948V175.598C389.478 175.166 388.776 174.95 387.96 174.95C387.348 174.95 386.832 175.1 386.412 175.4C385.992 175.7 385.782 176.114 385.782 176.642C385.782 177.122 385.95 177.506 386.286 177.794C386.622 178.082 387.054 178.226 387.582 178.226ZM394.62 182.6H393.684V170.9H394.62V171.98C394.944 171.62 395.376 171.326 395.916 171.098C396.468 170.858 397.026 170.738 397.59 170.738C398.742 170.738 399.66 171.116 400.344 171.872C401.028 172.628 401.37 173.612 401.37 174.824C401.37 176.084 400.986 177.122 400.218 177.938C399.438 178.754 398.436 179.162 397.212 179.162C396.12 179.162 395.256 178.934 394.62 178.478V182.6ZM397.338 171.62C396.81 171.62 396.294 171.74 395.79 171.98C395.298 172.22 394.908 172.52 394.62 172.88V177.542C395.364 178.034 396.204 178.28 397.14 178.28C398.1 178.28 398.88 177.962 399.48 177.326C400.08 176.69 400.38 175.874 400.38 174.878C400.38 173.882 400.11 173.09 399.57 172.502C399.03 171.914 398.286 171.62 397.338 171.62ZM405.037 179H404.101V170.9H405.037V179ZM403.939 167.75C403.939 167.57 404.005 167.426 404.137 167.318C404.269 167.21 404.425 167.156 404.605 167.156C404.761 167.156 404.899 167.216 405.019 167.336C405.151 167.444 405.217 167.582 405.217 167.75C405.217 167.954 405.157 168.116 405.037 168.236C404.929 168.356 404.785 168.416 404.605 168.416C404.413 168.416 404.251 168.356 404.119 168.236C403.999 168.116 403.939 167.954 403.939 167.75Z" fill="#141414"/>
<rect y="146" width="357" height="89" rx="8" fill="#F6F4F2"/>
<path d="M63.144 182.36L51.84 197H50.664V180.2H51.984V194.84L63.288 180.2H64.464V197H63.144V182.36ZM70.269 197H69.021V186.2H70.197L74.685 192.224L79.005 186.2H80.133V197H78.885V188.096L74.685 193.928H74.613L70.269 188.096V197ZM93.3347 197H92.0867V187.376H85.1987V197H83.9507V186.2H93.3347V197ZM102.019 197.216C100.355 197.216 98.9946 196.688 97.9386 195.632C96.8826 194.576 96.3546 193.232 96.3546 191.6C96.3546 189.968 96.8826 188.624 97.9386 187.568C98.9946 186.512 100.355 185.984 102.019 185.984C103.683 185.984 105.043 186.512 106.099 187.568C107.155 188.624 107.683 189.968 107.683 191.6C107.683 193.232 107.155 194.576 106.099 195.632C105.043 196.688 103.683 197.216 102.019 197.216ZM102.019 196.04C103.315 196.04 104.355 195.632 105.139 194.816C105.955 193.984 106.363 192.912 106.363 191.6C106.363 190.304 105.955 189.24 105.139 188.408C104.323 187.576 103.283 187.16 102.019 187.16C100.771 187.16 99.7306 187.576 98.8986 188.408C98.0826 189.24 97.6746 190.304 97.6746 191.6C97.6746 192.896 98.0826 193.96 98.8986 194.792C99.7146 195.624 100.755 196.04 102.019 196.04ZM111.988 201.8H110.74V186.2H111.988V187.64C112.42 187.16 112.996 186.768 113.716 186.464C114.452 186.144 115.196 185.984 115.948 185.984C117.484 185.984 118.708 186.488 119.62 187.496C120.532 188.504 120.988 189.816 120.988 191.432C120.988 193.112 120.476 194.496 119.452 195.584C118.412 196.672 117.076 197.216 115.444 197.216C113.988 197.216 112.836 196.912 111.988 196.304V201.8ZM115.612 187.16C114.908 187.16 114.22 187.32 113.548 187.64C112.892 187.96 112.372 188.36 111.988 188.84V195.056C112.98 195.712 114.1 196.04 115.348 196.04C116.628 196.04 117.668 195.616 118.468 194.768C119.268 193.92 119.668 192.832 119.668 191.504C119.668 190.176 119.308 189.12 118.588 188.336C117.868 187.552 116.876 187.16 115.612 187.16ZM126.319 187.448H122.023V186.2H131.863V187.448H127.567V197H126.319V187.448ZM148.253 179.96L148.949 180.896C148.581 181.424 148.133 181.784 147.605 181.976C146.949 182.168 146.253 182.32 145.517 182.432C144.685 182.544 143.933 182.752 143.261 183.056C141.421 183.84 140.389 185.888 140.165 189.2H140.213C140.581 188.32 141.197 187.616 142.061 187.088C142.925 186.544 143.861 186.272 144.868 186.272C146.437 186.272 147.685 186.768 148.613 187.76C149.541 188.736 150.005 190.048 150.005 191.696C150.005 193.216 149.485 194.52 148.445 195.608C147.421 196.68 146.117 197.216 144.533 197.216C142.837 197.216 141.469 196.624 140.429 195.44C139.421 194.256 138.917 192.632 138.917 190.568C138.917 185.832 140.237 182.928 142.877 181.856C143.549 181.584 144.293 181.384 145.109 181.256C146.069 181.096 146.757 180.944 147.173 180.8C147.589 180.64 147.949 180.36 148.253 179.96ZM140.237 190.784C140.237 192.4 140.629 193.68 141.413 194.624C142.197 195.568 143.221 196.04 144.485 196.04C145.701 196.04 146.701 195.624 147.485 194.792C148.285 193.944 148.685 192.928 148.685 191.744C148.685 190.448 148.317 189.408 147.581 188.624C146.845 187.84 145.845 187.448 144.581 187.448C143.445 187.448 142.477 187.784 141.677 188.456C140.909 189.128 140.429 189.904 140.237 190.784ZM160.495 186.2H161.911L157.543 197C156.759 198.904 156.079 200.168 155.503 200.792C154.927 201.464 154.255 201.8 153.487 201.8C152.895 201.8 152.279 201.616 151.639 201.248L152.047 200.288C152.543 200.528 152.967 200.648 153.319 200.648C153.863 200.648 154.351 200.408 154.783 199.928C155.215 199.464 155.663 198.68 156.127 197.576L156.367 197L151.039 186.2H152.527L156.223 193.832L156.991 195.512C157.007 195.448 157.207 194.872 157.591 193.784L160.495 186.2ZM170.138 188L169.802 186.968C170.874 186.312 172.018 185.984 173.234 185.984C174.642 185.984 175.658 186.336 176.282 187.04C176.922 187.744 177.242 188.832 177.242 190.304V197H175.994V195.344C175.114 196.544 173.882 197.144 172.298 197.144C171.29 197.144 170.482 196.856 169.874 196.28C169.266 195.688 168.962 194.904 168.962 193.928C168.962 192.872 169.346 192.048 170.114 191.456C170.866 190.864 171.85 190.568 173.066 190.568C174.282 190.568 175.258 190.84 175.994 191.384C175.994 190.264 175.914 189.408 175.754 188.816C175.626 188.24 175.362 187.832 174.962 187.592C174.578 187.352 173.978 187.208 173.162 187.16C172.186 187.16 171.178 187.44 170.138 188ZM172.682 195.968C174.026 195.968 175.13 195.4 175.994 194.264V192.464C175.21 191.888 174.274 191.6 173.186 191.6C172.37 191.6 171.682 191.8 171.122 192.2C170.562 192.6 170.282 193.152 170.282 193.856C170.282 194.496 170.506 195.008 170.954 195.392C171.402 195.776 171.978 195.968 172.682 195.968ZM180.818 197V186.2C181.346 186.2 181.858 186.192 182.354 186.176C183.378 186.144 184.026 186.128 184.298 186.128C187.274 186.128 188.762 187.056 188.762 188.912C188.762 189.536 188.562 190.08 188.162 190.544C187.778 190.992 187.25 191.272 186.578 191.384V191.432C188.306 191.688 189.17 192.552 189.17 194.024C189.17 196.056 187.562 197.072 184.346 197.072C184.138 197.072 183.506 197.056 182.45 197.024C181.922 197.008 181.378 197 180.818 197ZM184.658 192.032H182.066V195.848C183.314 195.88 184.122 195.896 184.49 195.896C186.73 195.896 187.85 195.232 187.85 193.904C187.85 192.656 186.786 192.032 184.658 192.032ZM184.442 187.304C183.914 187.304 183.122 187.32 182.066 187.352V191H184.922C185.706 191 186.322 190.832 186.77 190.496C187.218 190.144 187.442 189.68 187.442 189.104C187.442 187.904 186.442 187.304 184.442 187.304ZM195.085 187.448H190.789V186.2H200.629V187.448H196.333V197H195.085V187.448ZM207.347 197.216C205.683 197.216 204.323 196.688 203.267 195.632C202.211 194.576 201.683 193.232 201.683 191.6C201.683 189.968 202.211 188.624 203.267 187.568C204.323 186.512 205.683 185.984 207.347 185.984C209.011 185.984 210.371 186.512 211.427 187.568C212.483 188.624 213.011 189.968 213.011 191.6C213.011 193.232 212.483 194.576 211.427 195.632C210.371 196.688 209.011 197.216 207.347 197.216ZM207.347 196.04C208.643 196.04 209.683 195.632 210.467 194.816C211.283 193.984 211.691 192.912 211.691 191.6C211.691 190.304 211.283 189.24 210.467 188.408C209.651 187.576 208.611 187.16 207.347 187.16C206.099 187.16 205.059 187.576 204.227 188.408C203.411 189.24 203.003 190.304 203.003 191.6C203.003 192.896 203.411 193.96 204.227 194.792C205.043 195.624 206.083 196.04 207.347 196.04ZM217.316 197H216.068V186.2H217.244L221.732 192.224L226.052 186.2H227.18V197H225.932V188.096L221.732 193.928H221.66L217.316 188.096V197ZM235.894 197.216C234.23 197.216 232.87 196.688 231.814 195.632C230.758 194.576 230.23 193.232 230.23 191.6C230.23 189.968 230.758 188.624 231.814 187.568C232.87 186.512 234.23 185.984 235.894 185.984C237.558 185.984 238.918 186.512 239.974 187.568C241.03 188.624 241.558 189.968 241.558 191.6C241.558 193.232 241.03 194.576 239.974 195.632C238.918 196.688 237.558 197.216 235.894 197.216ZM235.894 196.04C237.19 196.04 238.23 195.632 239.014 194.816C239.83 193.984 240.238 192.912 240.238 191.6C240.238 190.304 239.83 189.24 239.014 188.408C238.198 187.576 237.158 187.16 235.894 187.16C234.646 187.16 233.606 187.576 232.774 188.408C231.958 189.24 231.55 190.304 231.55 191.6C231.55 192.896 231.958 193.96 232.774 194.792C233.59 195.624 234.63 196.04 235.894 196.04ZM253.159 179.96L253.855 180.896C253.487 181.424 253.039 181.784 252.511 181.976C251.855 182.168 251.159 182.32 250.423 182.432C249.591 182.544 248.839 182.752 248.167 183.056C246.327 183.84 245.295 185.888 245.071 189.2H245.119C245.487 188.32 246.103 187.616 246.967 187.088C247.831 186.544 248.767 186.272 249.775 186.272C251.343 186.272 252.591 186.768 253.519 187.76C254.447 188.736 254.911 190.048 254.911 191.696C254.911 193.216 254.391 194.52 253.351 195.608C252.327 196.68 251.023 197.216 249.439 197.216C247.743 197.216 246.375 196.624 245.335 195.44C244.327 194.256 243.823 192.632 243.823 190.568C243.823 185.832 245.143 182.928 247.783 181.856C248.455 181.584 249.199 181.384 250.015 181.256C250.975 181.096 251.663 180.944 252.079 180.8C252.495 180.64 252.855 180.36 253.159 179.96ZM245.143 190.784C245.143 192.4 245.535 193.68 246.319 194.624C247.103 195.568 248.127 196.04 249.391 196.04C250.607 196.04 251.607 195.624 252.391 194.792C253.191 193.944 253.591 192.928 253.591 191.744C253.591 190.448 253.223 189.408 252.487 188.624C251.751 187.84 250.751 187.448 249.487 187.448C248.351 187.448 247.383 187.784 246.583 188.456C245.815 189.128 245.335 189.904 245.143 190.784ZM266.375 188L259.175 197H257.927V186.2H259.175V195.2L266.375 186.2H267.623V197H266.375V188ZM280.26 197H279.012V187.448H274.452L274.308 189.8C274.1 192.84 273.596 194.856 272.796 195.848C272.156 196.68 271.364 197.096 270.42 197.096L270.324 195.872C270.74 195.872 271.132 195.68 271.5 195.296C272.38 194.48 272.916 192.568 273.108 189.56L273.276 186.2H280.26V197ZM292.604 194.72L293.012 195.68C292.036 196.704 290.708 197.216 289.028 197.216C287.3 197.216 285.916 196.704 284.876 195.68C283.82 194.656 283.292 193.296 283.292 191.6C283.292 189.968 283.772 188.624 284.732 187.568C285.708 186.512 287.052 185.984 288.764 185.984C290.156 185.984 291.324 186.432 292.268 187.328C293.196 188.208 293.66 189.384 293.66 190.856C293.66 191.24 293.636 191.576 293.588 191.864H284.684C284.732 193.16 285.156 194.184 285.956 194.936C286.756 195.672 287.804 196.04 289.1 196.04C290.604 196.04 291.772 195.6 292.604 194.72ZM288.644 187.16C287.492 187.16 286.556 187.496 285.836 188.168C285.132 188.84 284.724 189.728 284.612 190.832H292.388C292.372 189.696 292.028 188.8 291.356 188.144C290.684 187.488 289.78 187.16 288.644 187.16ZM305.094 188L297.894 197H296.646V186.2H297.894V195.2L305.094 186.2H306.342V197H305.094V188ZM298.302 180.584H299.43C299.43 181.176 299.638 181.68 300.054 182.096C300.47 182.496 301.006 182.696 301.662 182.696C302.286 182.696 302.798 182.496 303.198 182.096C303.598 181.68 303.798 181.176 303.798 180.584H304.926C304.926 181.464 304.622 182.2 304.014 182.792C303.406 183.368 302.622 183.656 301.662 183.656C300.638 183.656 299.822 183.376 299.214 182.816C298.606 182.24 298.302 181.496 298.302 180.584Z" fill="#141414"/>
<rect x="900" y="146" width="431" height="89" rx="8" fill="#F6F4F2"/>
<path d="M963.792 197H962.472V189.056H951.984V197H950.664V180.2H951.984V187.808H962.472V180.2H963.792V197ZM972.901 181.448H966.685V180.2H980.437V181.448H974.221V197H972.901V181.448ZM984.656 197H983.336V180.2H984.68L991.448 189.416L997.952 180.2H999.224V197H997.904V182.264L991.448 191.336H991.232L984.656 182.336V197ZM1014.72 197H1004.55V180.2H1005.87V195.752H1014.72V197ZM1021.75 191.072H1016.25V189.896H1021.75V191.072ZM1038.8 197H1025.69V186.2H1026.94V195.824H1031.62V186.2H1032.87V195.824H1037.55V186.2H1038.8V197ZM1042.95 188L1042.61 186.968C1043.69 186.312 1044.83 185.984 1046.05 185.984C1047.45 185.984 1048.47 186.336 1049.09 187.04C1049.73 187.744 1050.05 188.832 1050.05 190.304V197H1048.81V195.344C1047.93 196.544 1046.69 197.144 1045.11 197.144C1044.1 197.144 1043.29 196.856 1042.69 196.28C1042.08 195.688 1041.77 194.904 1041.77 193.928C1041.77 192.872 1042.16 192.048 1042.93 191.456C1043.68 190.864 1044.66 190.568 1045.88 190.568C1047.09 190.568 1048.07 190.84 1048.81 191.384C1048.81 190.264 1048.73 189.408 1048.57 188.816C1048.44 188.24 1048.17 187.832 1047.77 187.592C1047.39 187.352 1046.79 187.208 1045.97 187.16C1045 187.16 1043.99 187.44 1042.95 188ZM1045.49 195.968C1046.84 195.968 1047.94 195.4 1048.81 194.264V192.464C1048.02 191.888 1047.09 191.6 1046 191.6C1045.18 191.6 1044.49 191.8 1043.93 192.2C1043.37 192.6 1043.09 193.152 1043.09 193.856C1043.09 194.496 1043.32 195.008 1043.77 195.392C1044.21 195.776 1044.79 195.968 1045.49 195.968ZM1062.17 179.96L1062.87 180.896C1062.5 181.424 1062.05 181.784 1061.53 181.976C1060.87 182.168 1060.17 182.32 1059.44 182.432C1058.61 182.544 1057.85 182.752 1057.18 183.056C1055.34 183.84 1054.31 185.888 1054.09 189.2H1054.13C1054.5 188.32 1055.12 187.616 1055.98 187.088C1056.85 186.544 1057.78 186.272 1058.79 186.272C1060.36 186.272 1061.61 186.768 1062.53 187.76C1063.46 188.736 1063.93 190.048 1063.93 191.696C1063.93 193.216 1063.41 194.52 1062.37 195.608C1061.34 196.68 1060.04 197.216 1058.45 197.216C1056.76 197.216 1055.39 196.624 1054.35 195.44C1053.34 194.256 1052.84 192.632 1052.84 190.568C1052.84 185.832 1054.16 182.928 1056.8 181.856C1057.47 181.584 1058.21 181.384 1059.03 181.256C1059.99 181.096 1060.68 180.944 1061.09 180.8C1061.51 180.64 1061.87 180.36 1062.17 179.96ZM1054.16 190.784C1054.16 192.4 1054.55 193.68 1055.33 194.624C1056.12 195.568 1057.14 196.04 1058.41 196.04C1059.62 196.04 1060.62 195.624 1061.41 194.792C1062.21 193.944 1062.61 192.928 1062.61 191.744C1062.61 190.448 1062.24 189.408 1061.5 188.624C1060.77 187.84 1059.77 187.448 1058.5 187.448C1057.37 187.448 1056.4 187.784 1055.6 188.456C1054.83 189.128 1054.35 189.904 1054.16 190.784ZM1075.33 197H1074.08V187.448H1069.52L1069.38 189.8C1069.17 192.84 1068.67 194.856 1067.87 195.848C1067.23 196.68 1066.43 197.096 1065.49 197.096L1065.39 195.872C1065.81 195.872 1066.2 195.68 1066.57 195.296C1067.45 194.48 1067.99 192.568 1068.18 189.56L1068.35 186.2H1075.33V197ZM1084.03 197.216C1082.36 197.216 1081 196.688 1079.95 195.632C1078.89 194.576 1078.36 193.232 1078.36 191.6C1078.36 189.968 1078.89 188.624 1079.95 187.568C1081 186.512 1082.36 185.984 1084.03 185.984C1085.69 185.984 1087.05 186.512 1088.11 187.568C1089.16 188.624 1089.69 189.968 1089.69 191.6C1089.69 193.232 1089.16 194.576 1088.11 195.632C1087.05 196.688 1085.69 197.216 1084.03 197.216ZM1084.03 196.04C1085.32 196.04 1086.36 195.632 1087.15 194.816C1087.96 193.984 1088.37 192.912 1088.37 191.6C1088.37 190.304 1087.96 189.24 1087.15 188.408C1086.33 187.576 1085.29 187.16 1084.03 187.16C1082.78 187.16 1081.74 187.576 1080.91 188.408C1080.09 189.24 1079.68 190.304 1079.68 191.6C1079.68 192.896 1080.09 193.96 1080.91 194.792C1081.72 195.624 1082.76 196.04 1084.03 196.04ZM1102.25 197H1101V192.104H1094V197H1092.75V186.2H1094V190.928H1101V186.2H1102.25V197ZM1109.01 197H1106.04V186.2H1107.28V189.824H1109.16C1112 189.824 1113.43 191.008 1113.43 193.376C1113.43 194.496 1113.07 195.384 1112.35 196.04C1111.63 196.68 1110.52 197 1109.01 197ZM1108.94 191H1107.28V195.824H1108.92C1110.05 195.824 1110.87 195.624 1111.36 195.224C1111.86 194.824 1112.11 194.216 1112.11 193.4C1112.11 191.8 1111.05 191 1108.94 191ZM1117.15 197H1115.9V186.2H1117.15V197ZM1126.11 199.736H1124.94V195.824H1126.28C1126.7 195.296 1127.06 194.44 1127.38 193.256C1127.72 192.072 1127.94 190.736 1128.03 189.248L1128.2 186.2H1135.09V195.824H1136.89V199.736H1135.71V197H1126.11V199.736ZM1129.38 187.376L1129.23 189.728C1129.1 191.2 1128.88 192.48 1128.56 193.568C1128.26 194.624 1127.94 195.376 1127.6 195.824H1133.84V187.376H1129.38ZM1148.06 197H1146.81V187.448H1142.25L1142.1 189.8C1141.9 192.84 1141.39 194.856 1140.59 195.848C1139.95 196.68 1139.16 197.096 1138.22 197.096L1138.12 195.872C1138.54 195.872 1138.93 195.68 1139.3 195.296C1140.18 194.48 1140.71 192.568 1140.9 189.56L1141.07 186.2H1148.06V197ZM1156.3 186.2H1159.51V197H1158.26V192.968H1155.58L1152.48 197H1150.94L1154.35 192.68C1153.63 192.568 1153.02 192.232 1152.5 191.672C1152.01 191.096 1151.76 190.408 1151.76 189.608C1151.76 188.568 1152.14 187.744 1152.89 187.136C1153.64 186.512 1154.78 186.2 1156.3 186.2ZM1153.08 189.632C1153.08 190.272 1153.33 190.792 1153.82 191.192C1154.32 191.592 1154.85 191.792 1155.41 191.792H1158.26V187.376H1156.08C1155.09 187.376 1154.34 187.584 1153.82 188C1153.33 188.4 1153.08 188.944 1153.08 189.632ZM1175.64 201.8H1174.39V197.216H1174.03C1172.25 197.216 1170.83 196.696 1169.76 195.656C1168.7 194.6 1168.17 193.248 1168.17 191.6C1168.17 190.064 1168.7 188.744 1169.76 187.64C1170.83 186.536 1172.25 185.984 1174.01 185.984H1174.39V180.2H1175.64V185.984H1176.05C1177.77 185.984 1179.17 186.52 1180.25 187.592C1181.32 188.648 1181.85 189.984 1181.85 191.6C1181.85 193.232 1181.33 194.584 1180.29 195.656C1179.25 196.696 1177.84 197.216 1176.05 197.216H1175.64V201.8ZM1169.49 191.6C1169.49 192.896 1169.9 193.968 1170.72 194.816C1171.57 195.632 1172.69 196.04 1174.1 196.04H1174.39V187.16H1173.98C1172.61 187.16 1171.51 187.584 1170.69 188.432C1169.89 189.28 1169.49 190.336 1169.49 191.6ZM1176.05 187.16H1175.64V196.04H1175.95C1177.37 196.04 1178.49 195.64 1179.31 194.84C1180.13 194.024 1180.53 192.944 1180.53 191.6C1180.53 190.368 1180.13 189.32 1179.31 188.456C1178.51 187.592 1177.42 187.16 1176.05 187.16ZM1186.15 201.8H1184.9V186.2H1186.15V187.64C1186.58 187.16 1187.16 186.768 1187.88 186.464C1188.62 186.144 1189.36 185.984 1190.11 185.984C1191.65 185.984 1192.87 186.488 1193.78 187.496C1194.7 188.504 1195.15 189.816 1195.15 191.432C1195.15 193.112 1194.64 194.496 1193.62 195.584C1192.58 196.672 1191.24 197.216 1189.61 197.216C1188.15 197.216 1187 196.912 1186.15 196.304V201.8ZM1189.78 187.16C1189.07 187.16 1188.38 187.32 1187.71 187.64C1187.06 187.96 1186.54 188.36 1186.15 188.84V195.056C1187.14 195.712 1188.26 196.04 1189.51 196.04C1190.79 196.04 1191.83 195.616 1192.63 194.768C1193.43 193.92 1193.83 192.832 1193.83 191.504C1193.83 190.176 1193.47 189.12 1192.75 188.336C1192.03 187.552 1191.04 187.16 1189.78 187.16ZM1203.09 197.216C1201.42 197.216 1200.06 196.688 1199.01 195.632C1197.95 194.576 1197.42 193.232 1197.42 191.6C1197.42 189.968 1197.95 188.624 1199.01 187.568C1200.06 186.512 1201.42 185.984 1203.09 185.984C1204.75 185.984 1206.11 186.512 1207.17 187.568C1208.22 188.624 1208.75 189.968 1208.75 191.6C1208.75 193.232 1208.22 194.576 1207.17 195.632C1206.11 196.688 1204.75 197.216 1203.09 197.216ZM1203.09 196.04C1204.38 196.04 1205.42 195.632 1206.21 194.816C1207.02 193.984 1207.43 192.912 1207.43 191.6C1207.43 190.304 1207.02 189.24 1206.21 188.408C1205.39 187.576 1204.35 187.16 1203.09 187.16C1201.84 187.16 1200.8 187.576 1199.97 188.408C1199.15 189.24 1198.74 190.304 1198.74 191.6C1198.74 192.896 1199.15 193.96 1199.97 194.792C1200.78 195.624 1201.82 196.04 1203.09 196.04ZM1221.31 197H1220.07V192.104H1213.06V197H1211.81V186.2H1213.06V190.928H1220.07V186.2H1221.31V197ZM1227.81 187.448H1223.52V186.2H1233.36V187.448H1229.06V197H1227.81V187.448ZM1243.72 194.72L1244.13 195.68C1243.15 196.704 1241.83 197.216 1240.15 197.216C1238.42 197.216 1237.03 196.704 1235.99 195.68C1234.94 194.656 1234.41 193.296 1234.41 191.6C1234.41 189.968 1234.89 188.624 1235.85 187.568C1236.83 186.512 1238.17 185.984 1239.88 185.984C1241.27 185.984 1242.44 186.432 1243.39 187.328C1244.31 188.208 1244.78 189.384 1244.78 190.856C1244.78 191.24 1244.75 191.576 1244.71 191.864H1235.8C1235.85 193.16 1236.27 194.184 1237.07 194.936C1237.87 195.672 1238.92 196.04 1240.22 196.04C1241.72 196.04 1242.89 195.6 1243.72 194.72ZM1239.76 187.16C1238.61 187.16 1237.67 187.496 1236.95 188.168C1236.25 188.84 1235.84 189.728 1235.73 190.832H1243.51C1243.49 189.696 1243.15 188.8 1242.47 188.144C1241.8 187.488 1240.9 187.16 1239.76 187.16ZM1257.27 197H1256.02V192.104H1249.01V197H1247.76V186.2H1249.01V190.928H1256.02V186.2H1257.27V197ZM1260.57 199.736H1259.4V195.824H1260.74C1261.16 195.296 1261.52 194.44 1261.84 193.256C1262.18 192.072 1262.4 190.736 1262.49 189.248L1262.66 186.2H1269.55V195.824H1271.35V199.736H1270.17V197H1260.57V199.736ZM1263.84 187.376L1263.69 189.728C1263.56 191.2 1263.34 192.48 1263.02 193.568C1262.72 194.624 1262.4 195.376 1262.06 195.824H1268.3V187.376H1263.84ZM1274 188L1273.66 186.968C1274.73 186.312 1275.88 185.984 1277.09 185.984C1278.5 185.984 1279.52 186.336 1280.14 187.04C1280.78 187.744 1281.1 188.832 1281.1 190.304V197H1279.85V195.344C1278.97 196.544 1277.74 197.144 1276.16 197.144C1275.15 197.144 1274.34 196.856 1273.73 196.28C1273.13 195.688 1272.82 194.904 1272.82 193.928C1272.82 192.872 1273.21 192.048 1273.97 191.456C1274.73 190.864 1275.71 190.568 1276.93 190.568C1278.14 190.568 1279.12 190.84 1279.85 191.384C1279.85 190.264 1279.77 189.408 1279.61 188.816C1279.49 188.24 1279.22 187.832 1278.82 187.592C1278.44 187.352 1277.84 187.208 1277.02 187.16C1276.05 187.16 1275.04 187.44 1274 188ZM1276.54 195.968C1277.89 195.968 1278.99 195.4 1279.85 194.264V192.464C1279.07 191.888 1278.13 191.6 1277.05 191.6C1276.23 191.6 1275.54 191.8 1274.98 192.2C1274.42 192.6 1274.14 193.152 1274.14 193.856C1274.14 194.496 1274.37 195.008 1274.81 195.392C1275.26 195.776 1275.84 195.968 1276.54 195.968Z" fill="#141414"/>
<rect x="900" width="432" height="117" rx="8" fill="#F6F4F2"/>
<path d="M950.664 50.976V34.224C952.888 34.16 954.36 34.128 955.08 34.128C958.616 34.128 960.384 35.512 960.384 38.28C960.384 39.304 960.088 40.16 959.496 40.848C958.904 41.52 958.112 41.976 957.12 42.216V42.264C958.368 42.408 959.328 42.832 960 43.536C960.688 44.224 961.032 45.144 961.032 46.296C961.032 47.864 960.496 49.056 959.424 49.872C958.368 50.672 956.912 51.072 955.056 51.072C953.296 51.072 951.832 51.04 950.664 50.976ZM955.176 43.008H951.984V49.728C953.584 49.792 954.624 49.824 955.104 49.824C956.592 49.824 957.728 49.52 958.512 48.912C959.312 48.304 959.712 47.408 959.712 46.224C959.712 45.2 959.32 44.408 958.536 43.848C957.752 43.288 956.632 43.008 955.176 43.008ZM955.032 35.376C954.344 35.376 953.328 35.4 951.984 35.448V41.832H955.248C956.352 41.832 957.256 41.536 957.96 40.944C958.696 40.352 959.064 39.552 959.064 38.544C959.064 36.432 957.72 35.376 955.032 35.376ZM978.877 46.824C978.877 46.088 978.661 45.456 978.229 44.928C977.797 44.4 977.261 44 976.621 43.728C975.981 43.456 975.285 43.16 974.533 42.84C973.781 42.504 973.085 42.176 972.445 41.856C971.805 41.536 971.269 41.064 970.837 40.44C970.405 39.8 970.189 39.048 970.189 38.184C970.189 36.968 970.629 35.968 971.509 35.184C972.405 34.384 973.605 33.984 975.109 33.984C977.077 33.984 978.581 34.552 979.621 35.688L978.901 36.672C977.941 35.712 976.693 35.232 975.157 35.232C974.053 35.232 973.181 35.504 972.541 36.048C971.901 36.576 971.581 37.288 971.581 38.184C971.581 38.904 971.797 39.528 972.229 40.056C972.661 40.568 973.197 40.952 973.837 41.208C974.477 41.464 975.173 41.752 975.925 42.072C976.677 42.376 977.373 42.688 978.013 43.008C978.653 43.328 979.189 43.816 979.621 44.472C980.053 45.112 980.269 45.888 980.269 46.8C980.269 48.112 979.757 49.176 978.733 49.992C977.709 50.808 976.437 51.216 974.917 51.216C973.877 51.216 972.853 51 971.845 50.568C970.853 50.104 970.157 49.512 969.757 48.792L970.549 47.88C971.029 48.504 971.669 49.008 972.469 49.392C973.269 49.776 974.077 49.968 974.893 49.968C975.981 49.968 976.917 49.688 977.701 49.128C978.485 48.584 978.877 47.816 978.877 46.824ZM983.411 51H982.067L989.387 34.056H990.467L997.787 51H996.371L993.923 45.288H985.859L983.411 51ZM993.371 44.04L989.891 35.88L986.387 44.04H993.371ZM1002.28 44.256V51H1000.96V34.2C1001.62 34.2 1002.3 34.192 1003 34.176C1003.7 34.16 1004.39 34.152 1005.06 34.152C1006.18 34.152 1007.14 34.296 1007.94 34.584C1008.76 34.872 1009.38 35.264 1009.82 35.76C1010.25 36.256 1010.56 36.792 1010.75 37.368C1010.94 37.928 1011.04 38.544 1011.04 39.216C1011.04 40.672 1010.54 41.888 1009.53 42.864C1008.5 43.856 1007.02 44.352 1005.06 44.352C1003.96 44.352 1003.03 44.32 1002.28 44.256ZM1005.18 35.4C1004.66 35.4 1003.69 35.416 1002.28 35.448V42.984C1003.43 43.064 1004.34 43.104 1005.02 43.104C1006.49 43.104 1007.62 42.752 1008.42 42.048C1009.24 41.344 1009.65 40.392 1009.65 39.192C1009.65 38.008 1009.27 37.08 1008.52 36.408C1007.78 35.736 1006.67 35.4 1005.18 35.4ZM1028.28 48.552L1028.9 49.464C1028.47 50.024 1027.89 50.456 1027.15 50.76C1026.43 51.064 1025.66 51.216 1024.82 51.216C1023.14 51.216 1021.77 50.704 1020.7 49.68C1019.64 48.656 1019.11 47.296 1019.11 45.6C1019.11 44.016 1019.62 42.688 1020.65 41.616C1021.69 40.528 1022.97 39.984 1024.49 39.984C1026.34 39.984 1027.74 40.432 1028.69 41.328L1028.09 42.336C1027.24 41.552 1026.1 41.16 1024.68 41.16C1023.53 41.16 1022.53 41.584 1021.68 42.432C1020.85 43.264 1020.43 44.32 1020.43 45.6C1020.43 46.944 1020.86 48.024 1021.7 48.84C1022.55 49.64 1023.62 50.04 1024.92 50.04C1026.31 50.04 1027.43 49.544 1028.28 48.552ZM1043.99 55.8H1042.74V51.216H1042.38C1040.61 51.216 1039.18 50.696 1038.11 49.656C1037.05 48.6 1036.53 47.248 1036.53 45.6C1036.53 44.064 1037.05 42.744 1038.11 41.64C1039.18 40.536 1040.6 39.984 1042.36 39.984H1042.74V34.2H1043.99V39.984H1044.4C1046.13 39.984 1047.53 40.52 1048.6 41.592C1049.67 42.648 1050.21 43.984 1050.21 45.6C1050.21 47.232 1049.69 48.584 1048.65 49.656C1047.61 50.696 1046.19 51.216 1044.4 51.216H1043.99V55.8ZM1037.85 45.6C1037.85 46.896 1038.25 47.968 1039.07 48.816C1039.92 49.632 1041.05 50.04 1042.45 50.04H1042.74V41.16H1042.33C1040.96 41.16 1039.86 41.584 1039.05 42.432C1038.25 43.28 1037.85 44.336 1037.85 45.6ZM1044.4 41.16H1043.99V50.04H1044.3C1045.73 50.04 1046.85 49.64 1047.66 48.84C1048.48 48.024 1048.89 46.944 1048.89 45.6C1048.89 44.368 1048.48 43.32 1047.66 42.456C1046.86 41.592 1045.77 41.16 1044.4 41.16ZM1058.15 51.216C1056.49 51.216 1055.13 50.688 1054.07 49.632C1053.02 48.576 1052.49 47.232 1052.49 45.6C1052.49 43.968 1053.02 42.624 1054.07 41.568C1055.13 40.512 1056.49 39.984 1058.15 39.984C1059.82 39.984 1061.18 40.512 1062.23 41.568C1063.29 42.624 1063.82 43.968 1063.82 45.6C1063.82 47.232 1063.29 48.576 1062.23 49.632C1061.18 50.688 1059.82 51.216 1058.15 51.216ZM1058.15 50.04C1059.45 50.04 1060.49 49.632 1061.27 48.816C1062.09 47.984 1062.5 46.912 1062.5 45.6C1062.5 44.304 1062.09 43.24 1061.27 42.408C1060.46 41.576 1059.42 41.16 1058.15 41.16C1056.9 41.16 1055.86 41.576 1055.03 42.408C1054.22 43.24 1053.81 44.304 1053.81 45.6C1053.81 46.896 1054.22 47.96 1055.03 48.792C1055.85 49.624 1056.89 50.04 1058.15 50.04ZM1068.12 55.8H1066.87V40.2H1068.12V41.64C1068.55 41.16 1069.13 40.768 1069.85 40.464C1070.58 40.144 1071.33 39.984 1072.08 39.984C1073.62 39.984 1074.84 40.488 1075.75 41.496C1076.66 42.504 1077.12 43.816 1077.12 45.432C1077.12 47.112 1076.61 48.496 1075.58 49.584C1074.54 50.672 1073.21 51.216 1071.58 51.216C1070.12 51.216 1068.97 50.912 1068.12 50.304V55.8ZM1071.74 41.16C1071.04 41.16 1070.35 41.32 1069.68 41.64C1069.02 41.96 1068.5 42.36 1068.12 42.84V49.056C1069.11 49.712 1070.23 50.04 1071.48 50.04C1072.76 50.04 1073.8 49.616 1074.6 48.768C1075.4 47.92 1075.8 46.832 1075.8 45.504C1075.8 44.176 1075.44 43.12 1074.72 42.336C1074 41.552 1073.01 41.16 1071.74 41.16ZM1081.41 51H1080.16V40.2H1081.34L1085.83 46.224L1090.15 40.2H1091.27V51H1090.03V42.096L1085.83 47.928H1085.75L1081.41 42.096V51ZM1105.47 55.248L1104.65 55.944C1101.42 53.16 1099.8 49.712 1099.8 45.6C1099.8 41.632 1101.43 38.184 1104.68 35.256L1105.47 35.952C1103.93 37.376 1102.81 38.872 1102.11 40.44C1101.4 42.008 1101.05 43.728 1101.05 45.6C1101.05 47.424 1101.43 49.176 1102.18 50.856C1102.93 52.52 1104.03 53.984 1105.47 55.248ZM1110.08 41.448H1105.79V40.2H1115.63V41.448H1111.33V51H1110.08V41.448ZM1125.99 48.72L1126.4 49.68C1125.43 50.704 1124.1 51.216 1122.42 51.216C1120.69 51.216 1119.31 50.704 1118.27 49.68C1117.21 48.656 1116.68 47.296 1116.68 45.6C1116.68 43.968 1117.16 42.624 1118.12 41.568C1119.1 40.512 1120.44 39.984 1122.15 39.984C1123.55 39.984 1124.71 40.432 1125.66 41.328C1126.59 42.208 1127.05 43.384 1127.05 44.856C1127.05 45.24 1127.03 45.576 1126.98 45.864H1118.07C1118.12 47.16 1118.55 48.184 1119.35 48.936C1120.15 49.672 1121.19 50.04 1122.49 50.04C1123.99 50.04 1125.16 49.6 1125.99 48.72ZM1122.03 41.16C1120.88 41.16 1119.95 41.496 1119.23 42.168C1118.52 42.84 1118.11 43.728 1118 44.832H1125.78C1125.76 43.696 1125.42 42.8 1124.75 42.144C1124.07 41.488 1123.17 41.16 1122.03 41.16ZM1138.25 48.552L1138.87 49.464C1138.44 50.024 1137.86 50.456 1137.12 50.76C1136.4 51.064 1135.63 51.216 1134.79 51.216C1133.11 51.216 1131.74 50.704 1130.67 49.68C1129.61 48.656 1129.08 47.296 1129.08 45.6C1129.08 44.016 1129.59 42.688 1130.62 41.616C1131.66 40.528 1132.94 39.984 1134.46 39.984C1136.31 39.984 1137.71 40.432 1138.66 41.328L1138.06 42.336C1137.21 41.552 1136.07 41.16 1134.65 41.16C1133.5 41.16 1132.5 41.584 1131.65 42.432C1130.82 43.264 1130.4 44.32 1130.4 45.6C1130.4 46.944 1130.83 48.024 1131.67 48.84C1132.52 49.64 1133.59 50.04 1134.89 50.04C1136.28 50.04 1137.4 49.544 1138.25 48.552ZM1144.23 41.448H1139.94V40.2H1149.78V41.448H1145.48V51H1144.23V41.448ZM1157.29 45.072H1151.79V43.896H1157.29V45.072ZM1160 53.736H1158.83V49.824H1160.17C1160.59 49.296 1160.95 48.44 1161.27 47.256C1161.61 46.072 1161.83 44.736 1161.92 43.248L1162.09 40.2H1168.98V49.824H1170.78V53.736H1169.6V51H1160V53.736ZM1163.27 41.376L1163.12 43.728C1162.99 45.2 1162.77 46.48 1162.45 47.568C1162.15 48.624 1161.83 49.376 1161.49 49.824H1167.73V41.376H1163.27ZM1174.34 55.8H1173.09V40.2H1174.34V41.64C1174.77 41.16 1175.35 40.768 1176.07 40.464C1176.8 40.144 1177.55 39.984 1178.3 39.984C1179.84 39.984 1181.06 40.488 1181.97 41.496C1182.88 42.504 1183.34 43.816 1183.34 45.432C1183.34 47.112 1182.83 48.496 1181.8 49.584C1180.76 50.672 1179.43 51.216 1177.8 51.216C1176.34 51.216 1175.19 50.912 1174.34 50.304V55.8ZM1177.96 41.16C1177.26 41.16 1176.57 41.32 1175.9 41.64C1175.24 41.96 1174.72 42.36 1174.34 42.84V49.056C1175.33 49.712 1176.45 50.04 1177.7 50.04C1178.98 50.04 1180.02 49.616 1180.82 48.768C1181.62 47.92 1182.02 46.832 1182.02 45.504C1182.02 44.176 1181.66 43.12 1180.94 42.336C1180.22 41.552 1179.23 41.16 1177.96 41.16ZM1186.72 42L1186.38 40.968C1187.45 40.312 1188.6 39.984 1189.81 39.984C1191.22 39.984 1192.24 40.336 1192.86 41.04C1193.5 41.744 1193.82 42.832 1193.82 44.304V51H1192.57V49.344C1191.69 50.544 1190.46 51.144 1188.88 51.144C1187.87 51.144 1187.06 50.856 1186.45 50.28C1185.84 49.688 1185.54 48.904 1185.54 47.928C1185.54 46.872 1185.92 46.048 1186.69 45.456C1187.44 44.864 1188.43 44.568 1189.64 44.568C1190.86 44.568 1191.84 44.84 1192.57 45.384C1192.57 44.264 1192.49 43.408 1192.33 42.816C1192.2 42.24 1191.94 41.832 1191.54 41.592C1191.16 41.352 1190.56 41.208 1189.74 41.16C1188.76 41.16 1187.76 41.44 1186.72 42ZM1189.26 49.968C1190.6 49.968 1191.71 49.4 1192.57 48.264V46.464C1191.79 45.888 1190.85 45.6 1189.76 45.6C1188.95 45.6 1188.26 45.8 1187.7 46.2C1187.14 46.6 1186.86 47.152 1186.86 47.856C1186.86 48.496 1187.08 49.008 1187.53 49.392C1187.98 49.776 1188.56 49.968 1189.26 49.968ZM1205.84 42L1198.64 51H1197.4V40.2H1198.64V49.2L1205.84 40.2H1207.09V51H1205.84V42ZM1199.05 34.584H1200.18C1200.18 35.176 1200.39 35.68 1200.8 36.096C1201.22 36.496 1201.76 36.696 1202.41 36.696C1203.04 36.696 1203.55 36.496 1203.95 36.096C1204.35 35.68 1204.55 35.176 1204.55 34.584H1205.68C1205.68 35.464 1205.37 36.2 1204.76 36.792C1204.16 37.368 1203.37 37.656 1202.41 37.656C1201.39 37.656 1200.57 37.376 1199.96 36.816C1199.36 36.24 1199.05 35.496 1199.05 34.584ZM1210.87 51V40.2C1211.4 40.2 1211.91 40.192 1212.41 40.176C1213.43 40.144 1214.08 40.128 1214.35 40.128C1217.33 40.128 1218.82 41.056 1218.82 42.912C1218.82 43.536 1218.62 44.08 1218.22 44.544C1217.83 44.992 1217.3 45.272 1216.63 45.384V45.432C1218.36 45.688 1219.22 46.552 1219.22 48.024C1219.22 50.056 1217.62 51.072 1214.4 51.072C1214.19 51.072 1213.56 51.056 1212.5 51.024C1211.98 51.008 1211.43 51 1210.87 51ZM1214.71 46.032H1212.12V49.848C1213.37 49.88 1214.18 49.896 1214.54 49.896C1216.78 49.896 1217.9 49.232 1217.9 47.904C1217.9 46.656 1216.84 46.032 1214.71 46.032ZM1214.5 41.304C1213.97 41.304 1213.18 41.32 1212.12 41.352V45H1214.98C1215.76 45 1216.38 44.832 1216.82 44.496C1217.27 44.144 1217.5 43.68 1217.5 43.104C1217.5 41.904 1216.5 41.304 1214.5 41.304ZM1221.97 50.208C1221.97 49.952 1222.06 49.744 1222.24 49.584C1222.43 49.408 1222.67 49.32 1222.96 49.32C1223.36 49.32 1223.69 49.512 1223.96 49.896C1224.24 50.28 1224.37 50.776 1224.37 51.384C1224.37 52.152 1224.16 52.816 1223.72 53.376C1223.29 53.936 1222.73 54.32 1222.04 54.528L1221.71 53.904C1222.12 53.76 1222.48 53.52 1222.76 53.184C1223.07 52.864 1223.25 52.472 1223.32 52.008C1223.38 51.448 1223.3 51.032 1223.08 50.76C1223.01 50.92 1222.87 51 1222.64 51C1222.47 51 1222.31 50.928 1222.16 50.784C1222.04 50.624 1221.97 50.432 1221.97 50.208ZM953.232 86.216C952.496 86.216 951.68 86.08 950.784 85.808C949.936 85.552 949.336 85.208 948.984 84.776L949.632 83.816C950.048 84.2 950.568 84.504 951.192 84.728C951.832 84.936 952.448 85.04 953.04 85.04C954.048 85.04 954.856 84.84 955.464 84.44C956.072 84.04 956.376 83.504 956.376 82.832C956.376 82.272 956.152 81.832 955.704 81.512C955.256 81.192 954.648 81.032 953.88 81.032H952.056V80H953.76C954.368 80 954.888 79.808 955.32 79.424C955.752 79.04 955.968 78.576 955.968 78.032C955.968 77.424 955.728 76.96 955.248 76.64C954.768 76.32 954.096 76.16 953.232 76.16C951.968 76.16 950.84 76.56 949.848 77.36L949.344 76.4C950.256 75.456 951.608 74.984 953.4 74.984C954.632 74.984 955.584 75.24 956.256 75.752C956.944 76.248 957.288 76.936 957.288 77.816C957.288 79.08 956.64 79.944 955.344 80.408V80.456C956.08 80.52 956.656 80.792 957.072 81.272C957.488 81.736 957.696 82.312 957.696 83C957.696 83.992 957.288 84.776 956.472 85.352C955.656 85.928 954.576 86.216 953.232 86.216ZM961.224 77L960.888 75.968C961.96 75.312 963.104 74.984 964.32 74.984C965.728 74.984 966.744 75.336 967.368 76.04C968.008 76.744 968.328 77.832 968.328 79.304V86H967.08V84.344C966.2 85.544 964.968 86.144 963.384 86.144C962.376 86.144 961.568 85.856 960.96 85.28C960.352 84.688 960.048 83.904 960.048 82.928C960.048 81.872 960.432 81.048 961.2 80.456C961.952 79.864 962.936 79.568 964.152 79.568C965.368 79.568 966.344 79.84 967.08 80.384C967.08 79.264 967 78.408 966.84 77.816C966.712 77.24 966.448 76.832 966.048 76.592C965.664 76.352 965.064 76.208 964.248 76.16C963.272 76.16 962.264 76.44 961.224 77ZM963.768 84.968C965.112 84.968 966.216 84.4 967.08 83.264V81.464C966.296 80.888 965.36 80.6 964.272 80.6C963.456 80.6 962.768 80.8 962.208 81.2C961.648 81.6 961.368 82.152 961.368 82.856C961.368 83.496 961.592 84.008 962.04 84.392C962.488 84.776 963.064 84.968 963.768 84.968ZM979.104 75.2H980.712L975.384 80.36L981.144 86H979.464L973.872 80.432L979.104 75.2ZM973.152 86H971.904V75.2H973.152V86ZM983.865 77L983.529 75.968C984.601 75.312 985.745 74.984 986.961 74.984C988.369 74.984 989.385 75.336 990.009 76.04C990.649 76.744 990.969 77.832 990.969 79.304V86H989.721V84.344C988.841 85.544 987.609 86.144 986.025 86.144C985.017 86.144 984.209 85.856 983.601 85.28C982.993 84.688 982.689 83.904 982.689 82.928C982.689 81.872 983.073 81.048 983.841 80.456C984.593 79.864 985.577 79.568 986.793 79.568C988.009 79.568 988.985 79.84 989.721 80.384C989.721 79.264 989.641 78.408 989.481 77.816C989.353 77.24 989.089 76.832 988.689 76.592C988.305 76.352 987.705 76.208 986.889 76.16C985.913 76.16 984.905 76.44 983.865 77ZM986.409 84.968C987.753 84.968 988.857 84.4 989.721 83.264V81.464C988.937 80.888 988.001 80.6 986.913 80.6C986.097 80.6 985.409 80.8 984.849 81.2C984.289 81.6 984.009 82.152 984.009 82.856C984.009 83.496 984.233 84.008 984.681 84.392C985.129 84.776 985.705 84.968 986.409 84.968ZM997.88 86.216C997.144 86.216 996.328 86.08 995.432 85.808C994.584 85.552 993.984 85.208 993.632 84.776L994.28 83.816C994.696 84.2 995.216 84.504 995.84 84.728C996.48 84.936 997.096 85.04 997.688 85.04C998.696 85.04 999.504 84.84 1000.11 84.44C1000.72 84.04 1001.02 83.504 1001.02 82.832C1001.02 82.272 1000.8 81.832 1000.35 81.512C999.904 81.192 999.296 81.032 998.528 81.032H996.704V80H998.408C999.016 80 999.536 79.808 999.968 79.424C1000.4 79.04 1000.62 78.576 1000.62 78.032C1000.62 77.424 1000.38 76.96 999.896 76.64C999.416 76.32 998.744 76.16 997.88 76.16C996.616 76.16 995.488 76.56 994.496 77.36L993.992 76.4C994.904 75.456 996.256 74.984 998.048 74.984C999.28 74.984 1000.23 75.24 1000.9 75.752C1001.59 76.248 1001.94 76.936 1001.94 77.816C1001.94 79.08 1001.29 79.944 999.992 80.408V80.456C1000.73 80.52 1001.3 80.792 1001.72 81.272C1002.14 81.736 1002.34 82.312 1002.34 83C1002.34 83.992 1001.94 84.776 1001.12 85.352C1000.3 85.928 999.224 86.216 997.88 86.216ZM1005.87 77L1005.54 75.968C1006.61 75.312 1007.75 74.984 1008.97 74.984C1010.38 74.984 1011.39 75.336 1012.02 76.04C1012.66 76.744 1012.98 77.832 1012.98 79.304V86H1011.73V84.344C1010.85 85.544 1009.62 86.144 1008.03 86.144C1007.02 86.144 1006.22 85.856 1005.61 85.28C1005 84.688 1004.7 83.904 1004.7 82.928C1004.7 81.872 1005.08 81.048 1005.85 80.456C1006.6 79.864 1007.58 79.568 1008.8 79.568C1010.02 79.568 1010.99 79.84 1011.73 80.384C1011.73 79.264 1011.65 78.408 1011.49 77.816C1011.36 77.24 1011.1 76.832 1010.7 76.592C1010.31 76.352 1009.71 76.208 1008.9 76.16C1007.92 76.16 1006.91 76.44 1005.87 77ZM1008.42 84.968C1009.76 84.968 1010.86 84.4 1011.73 83.264V81.464C1010.94 80.888 1010.01 80.6 1008.92 80.6C1008.1 80.6 1007.42 80.8 1006.86 81.2C1006.3 81.6 1006.02 82.152 1006.02 82.856C1006.02 83.496 1006.24 84.008 1006.69 84.392C1007.14 84.776 1007.71 84.968 1008.42 84.968ZM1019.26 76.448H1014.97V75.2H1024.81V76.448H1020.51V86H1019.26V76.448ZM1030.17 86H1027.01V75.2H1028.25V78.824H1030.34C1033.19 78.824 1034.61 80.008 1034.61 82.376C1034.61 83.496 1034.25 84.384 1033.51 85.04C1032.79 85.68 1031.68 86 1030.17 86ZM1030.13 80H1028.25V84.824H1030.1C1031.22 84.824 1032.03 84.624 1032.53 84.224C1033.04 83.824 1033.29 83.216 1033.29 82.4C1033.29 80.8 1032.24 80 1030.13 80ZM1043.47 77L1043.13 75.968C1044.2 75.312 1045.35 74.984 1046.56 74.984C1047.97 74.984 1048.99 75.336 1049.61 76.04C1050.25 76.744 1050.57 77.832 1050.57 79.304V86H1049.32V84.344C1048.44 85.544 1047.21 86.144 1045.63 86.144C1044.62 86.144 1043.81 85.856 1043.2 85.28C1042.59 84.688 1042.29 83.904 1042.29 82.928C1042.29 81.872 1042.67 81.048 1043.44 80.456C1044.19 79.864 1045.18 79.568 1046.39 79.568C1047.61 79.568 1048.59 79.84 1049.32 80.384C1049.32 79.264 1049.24 78.408 1049.08 77.816C1048.95 77.24 1048.69 76.832 1048.29 76.592C1047.91 76.352 1047.31 76.208 1046.49 76.16C1045.51 76.16 1044.51 76.44 1043.47 77ZM1046.01 84.968C1047.35 84.968 1048.46 84.4 1049.32 83.264V81.464C1048.54 80.888 1047.6 80.6 1046.51 80.6C1045.7 80.6 1045.01 80.8 1044.45 81.2C1043.89 81.6 1043.61 82.152 1043.61 82.856C1043.61 83.496 1043.83 84.008 1044.28 84.392C1044.73 84.776 1045.31 84.968 1046.01 84.968ZM1054.15 86V75.2C1054.67 75.2 1055.19 75.192 1055.68 75.176C1056.71 75.144 1057.35 75.128 1057.63 75.128C1060.6 75.128 1062.09 76.056 1062.09 77.912C1062.09 78.536 1061.89 79.08 1061.49 79.544C1061.11 79.992 1060.58 80.272 1059.91 80.384V80.432C1061.63 80.688 1062.5 81.552 1062.5 83.024C1062.5 85.056 1060.89 86.072 1057.67 86.072C1057.47 86.072 1056.83 86.056 1055.78 86.024C1055.25 86.008 1054.71 86 1054.15 86ZM1057.99 81.032H1055.39V84.848C1056.64 84.88 1057.45 84.896 1057.82 84.896C1060.06 84.896 1061.18 84.232 1061.18 82.904C1061.18 81.656 1060.11 81.032 1057.99 81.032ZM1057.77 76.304C1057.24 76.304 1056.45 76.32 1055.39 76.352V80H1058.25C1059.03 80 1059.65 79.832 1060.1 79.496C1060.55 79.144 1060.77 78.68 1060.77 78.104C1060.77 76.904 1059.77 76.304 1057.77 76.304ZM1068.41 76.448H1064.12V75.2H1073.96V76.448H1069.66V86H1068.41V76.448ZM1080.67 86.216C1079.01 86.216 1077.65 85.688 1076.59 84.632C1075.54 83.576 1075.01 82.232 1075.01 80.6C1075.01 78.968 1075.54 77.624 1076.59 76.568C1077.65 75.512 1079.01 74.984 1080.67 74.984C1082.34 74.984 1083.7 75.512 1084.75 76.568C1085.81 77.624 1086.34 78.968 1086.34 80.6C1086.34 82.232 1085.81 83.576 1084.75 84.632C1083.7 85.688 1082.34 86.216 1080.67 86.216ZM1080.67 85.04C1081.97 85.04 1083.01 84.632 1083.79 83.816C1084.61 82.984 1085.02 81.912 1085.02 80.6C1085.02 79.304 1084.61 78.24 1083.79 77.408C1082.98 76.576 1081.94 76.16 1080.67 76.16C1079.43 76.16 1078.39 76.576 1077.55 77.408C1076.74 78.24 1076.33 79.304 1076.33 80.6C1076.33 81.896 1076.74 82.96 1077.55 83.792C1078.37 84.624 1079.41 85.04 1080.67 85.04ZM1088.94 85.208C1088.94 84.952 1089.03 84.744 1089.2 84.584C1089.4 84.408 1089.64 84.32 1089.92 84.32C1090.32 84.32 1090.66 84.512 1090.93 84.896C1091.2 85.28 1091.34 85.776 1091.34 86.384C1091.34 87.152 1091.12 87.816 1090.69 88.376C1090.26 88.936 1089.7 89.32 1089.01 89.528L1088.68 88.904C1089.09 88.76 1089.44 88.52 1089.73 88.184C1090.04 87.864 1090.22 87.472 1090.28 87.008C1090.35 86.448 1090.27 86.032 1090.04 85.76C1089.98 85.92 1089.84 86 1089.61 86C1089.44 86 1089.28 85.928 1089.13 85.784C1089 85.624 1088.94 85.432 1088.94 85.208ZM1103.57 86.216C1101.91 86.216 1100.55 85.688 1099.49 84.632C1098.44 83.576 1097.91 82.232 1097.91 80.6C1097.91 78.968 1098.44 77.624 1099.49 76.568C1100.55 75.512 1101.91 74.984 1103.57 74.984C1105.24 74.984 1106.6 75.512 1107.65 76.568C1108.71 77.624 1109.24 78.968 1109.24 80.6C1109.24 82.232 1108.71 83.576 1107.65 84.632C1106.6 85.688 1105.24 86.216 1103.57 86.216ZM1103.57 85.04C1104.87 85.04 1105.91 84.632 1106.69 83.816C1107.51 82.984 1107.92 81.912 1107.92 80.6C1107.92 79.304 1107.51 78.24 1106.69 77.408C1105.88 76.576 1104.84 76.16 1103.57 76.16C1102.33 76.16 1101.29 76.576 1100.45 77.408C1099.64 78.24 1099.23 79.304 1099.23 80.6C1099.23 81.896 1099.64 82.96 1100.45 83.792C1101.27 84.624 1102.31 85.04 1103.57 85.04ZM1120.84 68.96L1121.53 69.896C1121.17 70.424 1120.72 70.784 1120.19 70.976C1119.53 71.168 1118.84 71.32 1118.1 71.432C1117.27 71.544 1116.52 71.752 1115.85 72.056C1114.01 72.84 1112.97 74.888 1112.75 78.2H1112.8C1113.17 77.32 1113.78 76.616 1114.65 76.088C1115.51 75.544 1116.45 75.272 1117.45 75.272C1119.02 75.272 1120.27 75.768 1121.2 76.76C1122.13 77.736 1122.59 79.048 1122.59 80.696C1122.59 82.216 1122.07 83.52 1121.03 84.608C1120.01 85.68 1118.7 86.216 1117.12 86.216C1115.42 86.216 1114.05 85.624 1113.01 84.44C1112.01 83.256 1111.5 81.632 1111.5 79.568C1111.5 74.832 1112.82 71.928 1115.46 70.856C1116.13 70.584 1116.88 70.384 1117.69 70.256C1118.65 70.096 1119.34 69.944 1119.76 69.8C1120.17 69.64 1120.53 69.36 1120.84 68.96ZM1112.82 79.784C1112.82 81.4 1113.21 82.68 1114 83.624C1114.78 84.568 1115.81 85.04 1117.07 85.04C1118.29 85.04 1119.29 84.624 1120.07 83.792C1120.87 82.944 1121.27 81.928 1121.27 80.744C1121.27 79.448 1120.9 78.408 1120.17 77.624C1119.43 76.84 1118.43 76.448 1117.17 76.448C1116.03 76.448 1115.06 76.784 1114.26 77.456C1113.49 78.128 1113.01 78.904 1112.82 79.784ZM1126.85 90.8H1125.61V75.2H1126.85V76.64C1127.29 76.16 1127.86 75.768 1128.58 75.464C1129.32 75.144 1130.06 74.984 1130.81 74.984C1132.35 74.984 1133.57 75.488 1134.49 76.496C1135.4 77.504 1135.85 78.816 1135.85 80.432C1135.85 82.112 1135.34 83.496 1134.32 84.584C1133.28 85.672 1131.94 86.216 1130.31 86.216C1128.85 86.216 1127.7 85.912 1126.85 85.304V90.8ZM1130.48 76.16C1129.77 76.16 1129.09 76.32 1128.41 76.64C1127.76 76.96 1127.24 77.36 1126.85 77.84V84.056C1127.85 84.712 1128.97 85.04 1130.21 85.04C1131.49 85.04 1132.53 84.616 1133.33 83.768C1134.13 82.92 1134.53 81.832 1134.53 80.504C1134.53 79.176 1134.17 78.12 1133.45 77.336C1132.73 76.552 1131.74 76.16 1130.48 76.16ZM1139.23 77L1138.9 75.968C1139.97 75.312 1141.11 74.984 1142.33 74.984C1143.74 74.984 1144.75 75.336 1145.38 76.04C1146.02 76.744 1146.34 77.832 1146.34 79.304V86H1145.09V84.344C1144.21 85.544 1142.98 86.144 1141.39 86.144C1140.38 86.144 1139.58 85.856 1138.97 85.28C1138.36 84.688 1138.06 83.904 1138.06 82.928C1138.06 81.872 1138.44 81.048 1139.21 80.456C1139.96 79.864 1140.94 79.568 1142.16 79.568C1143.38 79.568 1144.35 79.84 1145.09 80.384C1145.09 79.264 1145.01 78.408 1144.85 77.816C1144.72 77.24 1144.46 76.832 1144.06 76.592C1143.67 76.352 1143.07 76.208 1142.26 76.16C1141.28 76.16 1140.27 76.44 1139.23 77ZM1141.78 84.968C1143.12 84.968 1144.22 84.4 1145.09 83.264V81.464C1144.3 80.888 1143.37 80.6 1142.28 80.6C1141.46 80.6 1140.78 80.8 1140.22 81.2C1139.66 81.6 1139.38 82.152 1139.38 82.856C1139.38 83.496 1139.6 84.008 1140.05 84.392C1140.5 84.776 1141.07 84.968 1141.78 84.968ZM1152.62 76.448H1148.33V75.2H1158.17V76.448H1153.87V86H1152.62V76.448ZM1169.87 86H1168.62V81.104H1161.61V86H1160.36V75.2H1161.61V79.928H1168.62V75.2H1169.87V86ZM1173.99 77L1173.65 75.968C1174.73 75.312 1175.87 74.984 1177.09 74.984C1178.49 74.984 1179.51 75.336 1180.13 76.04C1180.77 76.744 1181.09 77.832 1181.09 79.304V86H1179.85V84.344C1178.97 85.544 1177.73 86.144 1176.15 86.144C1175.14 86.144 1174.33 85.856 1173.73 85.28C1173.12 84.688 1172.81 83.904 1172.81 82.928C1172.81 81.872 1173.2 81.048 1173.97 80.456C1174.72 79.864 1175.7 79.568 1176.92 79.568C1178.13 79.568 1179.11 79.84 1179.85 80.384C1179.85 79.264 1179.77 78.408 1179.61 77.816C1179.48 77.24 1179.21 76.832 1178.81 76.592C1178.43 76.352 1177.83 76.208 1177.01 76.16C1176.04 76.16 1175.03 76.44 1173.99 77ZM1176.53 84.968C1177.88 84.968 1178.98 84.4 1179.85 83.264V81.464C1179.06 80.888 1178.13 80.6 1177.04 80.6C1176.22 80.6 1175.53 80.8 1174.97 81.2C1174.41 81.6 1174.13 82.152 1174.13 82.856C1174.13 83.496 1174.36 84.008 1174.81 84.392C1175.25 84.776 1175.83 84.968 1176.53 84.968ZM1189.11 75.2H1192.33V86H1191.08V81.968H1188.39L1185.29 86H1183.76L1187.17 81.68C1186.45 81.568 1185.83 81.232 1185.32 80.672C1184.82 80.096 1184.57 79.408 1184.57 78.608C1184.57 77.568 1184.95 76.744 1185.7 76.136C1186.45 75.512 1187.59 75.2 1189.11 75.2ZM1185.89 78.632C1185.89 79.272 1186.14 79.792 1186.64 80.192C1187.13 80.592 1187.66 80.792 1188.22 80.792H1191.08V76.376H1188.89C1187.9 76.376 1187.15 76.584 1186.64 77C1186.14 77.4 1185.89 77.944 1185.89 78.632ZM1210.16 83.552L1210.78 84.464C1210.35 85.024 1209.76 85.456 1209.03 85.76C1208.31 86.064 1207.53 86.216 1206.7 86.216C1205.02 86.216 1203.64 85.704 1202.57 84.68C1201.52 83.656 1200.99 82.296 1200.99 80.6C1200.99 79.016 1201.5 77.688 1202.52 76.616C1203.56 75.528 1204.84 74.984 1206.36 74.984C1208.22 74.984 1209.62 75.432 1210.56 76.328L1209.96 77.336C1209.12 76.552 1207.98 76.16 1206.56 76.16C1205.4 76.16 1204.4 76.584 1203.56 77.432C1202.72 78.264 1202.31 79.32 1202.31 80.6C1202.31 81.944 1202.73 83.024 1203.58 83.84C1204.43 84.64 1205.5 85.04 1206.8 85.04C1208.19 85.04 1209.31 84.544 1210.16 83.552ZM1213.52 86V75.2C1214.05 75.2 1214.56 75.192 1215.06 75.176C1216.08 75.144 1216.73 75.128 1217 75.128C1219.98 75.128 1221.47 76.056 1221.47 77.912C1221.47 78.536 1221.27 79.08 1220.87 79.544C1220.48 79.992 1219.95 80.272 1219.28 80.384V80.432C1221.01 80.688 1221.87 81.552 1221.87 83.024C1221.87 85.056 1220.27 86.072 1217.05 86.072C1216.84 86.072 1216.21 86.056 1215.15 86.024C1214.63 86.008 1214.08 86 1213.52 86ZM1217.36 81.032H1214.77V84.848C1216.02 84.88 1216.83 84.896 1217.19 84.896C1219.43 84.896 1220.55 84.232 1220.55 82.904C1220.55 81.656 1219.49 81.032 1217.36 81.032ZM1217.15 76.304C1216.62 76.304 1215.83 76.32 1214.77 76.352V80H1217.62C1218.41 80 1219.03 79.832 1219.47 79.496C1219.92 79.144 1220.15 78.68 1220.15 78.104C1220.15 76.904 1219.15 76.304 1217.15 76.304ZM1229.52 75.2H1232.73V86H1231.48V81.968H1228.8L1225.7 86H1224.16L1227.57 81.68C1226.85 81.568 1226.24 81.232 1225.72 80.672C1225.23 80.096 1224.98 79.408 1224.98 78.608C1224.98 77.568 1225.36 76.744 1226.11 76.136C1226.86 75.512 1228 75.2 1229.52 75.2ZM1226.3 78.632C1226.3 79.272 1226.55 79.792 1227.04 80.192C1227.54 80.592 1228.07 80.792 1228.63 80.792H1231.48V76.376H1229.3C1228.31 76.376 1227.56 76.584 1227.04 77C1226.55 77.4 1226.3 77.944 1226.3 78.632ZM1239.85 86.216C1239.11 86.216 1238.3 86.08 1237.4 85.808C1236.55 85.552 1235.95 85.208 1235.6 84.776L1236.25 83.816C1236.67 84.2 1237.19 84.504 1237.81 84.728C1238.45 84.936 1239.07 85.04 1239.66 85.04C1240.67 85.04 1241.47 84.84 1242.08 84.44C1242.69 84.04 1242.99 83.504 1242.99 82.832C1242.99 82.272 1242.77 81.832 1242.32 81.512C1241.87 81.192 1241.27 81.032 1240.5 81.032H1238.67V80H1240.38C1240.99 80 1241.51 79.808 1241.94 79.424C1242.37 79.04 1242.59 78.576 1242.59 78.032C1242.59 77.424 1242.35 76.96 1241.87 76.64C1241.39 76.32 1240.71 76.16 1239.85 76.16C1238.59 76.16 1237.46 76.56 1236.47 77.36L1235.96 76.4C1236.87 75.456 1238.23 74.984 1240.02 74.984C1241.25 74.984 1242.2 75.24 1242.87 75.752C1243.56 76.248 1243.91 76.936 1243.91 77.816C1243.91 79.08 1243.26 79.944 1241.96 80.408V80.456C1242.7 80.52 1243.27 80.792 1243.69 81.272C1244.11 81.736 1244.31 82.312 1244.31 83C1244.31 83.992 1243.91 84.776 1243.09 85.352C1242.27 85.928 1241.19 86.216 1239.85 86.216ZM1250.67 86H1247.51V75.2H1248.75V78.824H1250.84C1253.69 78.824 1255.11 80.008 1255.11 82.376C1255.11 83.496 1254.75 84.384 1254.01 85.04C1253.29 85.68 1252.18 86 1250.67 86ZM1250.63 80H1248.75V84.824H1250.6C1251.72 84.824 1252.53 84.624 1253.03 84.224C1253.54 83.824 1253.79 83.216 1253.79 82.4C1253.79 80.8 1252.74 80 1250.63 80ZM1256.9 90.944L1256.09 90.248C1257.53 88.984 1258.62 87.52 1259.37 85.856C1260.13 84.176 1260.5 82.424 1260.5 80.6C1260.5 78.728 1260.15 77.008 1259.45 75.44C1258.74 73.872 1257.62 72.376 1256.09 70.952L1256.88 70.256C1260.13 73.184 1261.75 76.632 1261.75 80.6C1261.75 84.712 1260.13 88.16 1256.9 90.944Z" fill="#141414"/>
<path d="M384 45H438C442.418 45 446 48.5817 446 53V188" stroke="#E4002B" stroke-width="2"/>
<path d="M700 53L701 53L700 53ZM708 45L708 44L708 45ZM877.207 45.7071C877.598 45.3166 877.598 44.6834 877.207 44.2929L870.843 37.9289C870.453 37.5384 869.819 37.5384 869.429 37.9289C869.038 38.3195 869.038 38.9526 869.429 39.3431L875.086 45L869.429 50.6569C869.038 51.0474 869.038 51.6805 869.429 52.0711C869.819 52.4616 870.453 52.4616 870.843 52.0711L877.207 45.7071ZM701 133.5L701 53L699 53L699 133.5H701ZM708 46L876.5 46L876.5 44L708 44L708 46ZM701 53C701 49.134 704.134 46 708 46L708 44C703.029 44 699 48.0294 699 53L701 53Z" fill="#E4002B"/>
</svg>
