<svg width="87" height="45" viewBox="0 0 87 45" fill="none" xmlns="http://www.w3.org/2000/svg">
<path fill-rule="evenodd" clip-rule="evenodd" d="M45.0369 39.0379C43.2995 38.8959 41.4286 38.612 39.9585 38.1861C39.6912 38.0442 38.4885 37.6183 38.2212 37.4763C32.8756 34.9211 29.2673 29.1009 29.2673 22.571C29.2673 13.4858 36.2166 6.1041 44.7696 6.1041C53.1889 6.1041 60.1382 13.3438 60.2719 22.429H65.8848C65.6175 9.93691 56.2627 0 44.6359 0C33.0092 0 23.5207 10.0789 23.5207 22.429C23.5207 30.9464 28.0645 38.3281 34.6129 42.1609C35.8157 42.8707 37.553 43.5804 38.0876 43.7224C39.9585 44.2902 42.2304 44.7161 44.3687 44.858C45.0369 44.858 47.4424 45 48.2442 45H86.8664V39.0379H48.3779C47.8433 39.0379 45.5714 39.0379 45.0369 39.0379ZM48.3779 29.6688C47.977 29.6688 45.8387 29.6688 45.4378 29.6688C44.7696 29.6688 43.8341 29.5268 43.1659 29.3849C42.4977 29.2429 41.8295 28.959 41.5622 28.817C39.424 27.6814 38.0876 25.2681 38.0876 22.571C38.0876 18.5962 41.0276 15.4732 44.7696 15.4732C48.3779 15.4732 51.318 18.5962 51.4516 22.2871H56.7972C56.6636 15.3312 51.318 9.653 44.7696 9.653C38.0876 9.653 32.7419 15.3312 32.7419 22.429C32.7419 27.3975 35.4147 31.7981 39.424 33.7855C40.0922 34.2114 41.1613 34.4953 41.4286 34.6372C42.4977 34.9211 43.9677 35.205 45.1705 35.205C45.5714 35.205 47.8433 35.205 48.2442 35.205H87V29.5268H48.3779V29.6688ZM20.0461 45H14.4332V5.96214H6.14747V0H20.0461V45ZM0 8.94322V14.7634H6.14747V45H11.6267V8.94322H0Z" fill="#141414"/>
</svg>
