<svg width="164" height="51" viewBox="0 0 164 51" fill="none" xmlns="http://www.w3.org/2000/svg">
<path d="M22.7402 1.13623C23.8043 1.17199 23.8327 1.19788 23.8327 2.14608V34.6351C23.8327 35.6215 23.8006 35.6536 22.8302 35.7547C16.9228 36.3712 11.331 38.0123 6.13503 40.921C5.02531 41.5376 3.97354 42.2355 2.89464 42.8939L2.98219 43.0493C3.16591 42.9432 3.35209 42.8396 3.53212 42.7311C8.69849 39.6165 14.2878 37.7004 20.2556 36.8755C21.4529 36.7103 22.6613 36.6166 23.8672 36.5056C24.5922 36.439 24.7143 36.328 24.7155 35.6141C24.7155 32.5525 24.7229 29.4897 24.7069 26.4281C24.6983 26.2275 24.7319 26.0274 24.8056 25.8407C24.8794 25.654 24.9915 25.4848 25.1347 25.3442C29.6266 20.5626 33.0582 15.0965 35.6031 9.06829C35.6574 8.93882 35.7264 8.81305 35.7819 8.69221C36.7387 8.85744 36.7387 8.85744 36.7387 9.75138V39.127C36.1222 39.1554 35.5119 39.3021 34.9471 39.1923C29.6384 38.1542 24.201 37.9433 18.8278 38.5672C13.4111 39.1899 8.25707 40.6522 3.40388 43.1528C3.25838 43.2276 3.11535 43.3078 2.97479 43.3933C2.94643 43.4105 2.93533 43.4562 2.85149 43.593C3.11905 43.4882 3.30154 43.4216 3.4791 43.3464C8.6898 41.1029 14.2116 39.6656 19.8549 39.0838C25.4245 38.4932 30.9226 38.9112 36.3565 40.233C37.2739 40.4562 37.6351 40.1763 37.6351 39.233C37.6351 34.5685 37.6425 29.904 37.6253 25.2394C37.6163 25.0283 37.6568 24.8181 37.7435 24.6254C37.8302 24.4327 37.9607 24.263 38.1247 24.1297C41.0099 21.4466 43.8755 18.7426 46.8298 15.9683C47.1997 16.0361 47.3834 16.3382 47.3822 16.9177C47.3641 25.8777 47.36 34.8377 47.3699 43.7977C47.3699 44.6226 46.8767 44.9925 46.0814 44.7262C42.439 43.5005 38.7301 42.5067 34.9213 42.0024C32.0162 41.6128 29.0915 41.286 26.1668 41.1529C18.6467 40.823 11.1226 41.7064 3.88353 43.7693C3.07466 43.9962 2.2806 44.2773 1.47666 44.5202C1.25595 44.5868 1.02044 44.6078 0.715886 44.6645C0.715886 43.5018 0.69739 42.4364 0.731915 41.3736C0.731915 41.1861 0.935364 40.9839 1.08456 40.8273C5.71883 35.9565 9.798 30.5863 13.2471 24.8153C17.1928 18.189 20.3752 11.2347 22.1964 3.70709C22.4023 2.85014 22.5614 1.98702 22.7402 1.13623Z" fill="#141414"/>
<path d="M79.1647 1.34214V19.7993C78.5482 19.7993 77.96 19.8301 77.3756 19.7759C77.2523 19.7635 77.055 19.4528 77.0513 19.2753C77.0229 18.0422 77.0353 16.8092 77.0353 15.5762V4.50361C76.5766 5.57141 75.9761 7.00296 75.3485 8.42217C73.7455 12.0436 72.1426 15.6576 70.5397 19.279C70.3831 19.6341 70.2142 19.8215 69.7777 19.8215C69.3412 19.8215 69.1735 19.6378 69.0144 19.2827C67.0206 14.8055 65.0096 10.3358 63.0157 5.85748C62.779 5.32481 62.6199 4.75762 62.3733 4.05973V19.7611H60.3894V1.35323C61.2624 1.35323 62.1156 1.31748 62.9689 1.38159C63.1538 1.39516 63.3709 1.73794 63.4744 1.97221C64.9393 5.27179 66.3938 8.57548 67.8381 11.8833C68.4854 13.3629 69.118 14.8536 69.774 16.3777C69.8278 16.3096 69.8757 16.237 69.917 16.1606C72.0452 11.3617 74.1755 6.56441 76.3078 1.76876C76.3879 1.58874 76.637 1.37789 76.8195 1.36803C77.5753 1.31624 78.3361 1.34214 79.1647 1.34214Z" fill="#141414"/>
<path d="M60.5127 44.4845V26.0421C60.5596 26.0138 60.5941 25.9731 60.6286 25.9743C63.5558 25.9916 66.5027 25.6809 69.3917 26.4034C72.8701 27.2727 74.9403 29.7856 75.2412 33.3774C75.399 35.2824 75.3275 37.1566 74.5704 38.9371C73.2573 42.0197 70.8134 43.7607 67.5829 44.1935C65.2796 44.5092 62.9196 44.4007 60.5127 44.4845ZM62.668 42.4278C64.0355 42.4278 65.3511 42.5018 66.6556 42.4143C69.8825 42.196 72.1549 40.2417 72.8602 37.1184C73.184 35.6485 73.1689 34.1242 72.8158 32.661C72.2671 30.2899 70.7752 28.8312 68.4411 28.2357C67.7661 28.0607 67.0747 27.957 66.3782 27.9262C65.155 27.8769 63.9282 27.9114 62.668 27.9114V42.4278Z" fill="#141414"/>
<path d="M149.355 19.7598H147.278V19.02C147.278 15.7747 147.278 12.5277 147.278 9.27912C147.278 8.25941 147.384 8.38148 146.341 8.37162C145.937 8.37162 145.531 8.37162 145.095 8.37162V6.65525H147.291C147.291 5.74404 147.26 4.91051 147.298 4.07946C147.365 2.61955 147.954 1.42475 149.208 0.613419C150.257 -0.0659781 151.412 -0.0980367 152.589 0.120209C152.674 0.150487 152.75 0.201175 152.811 0.267822C152.872 0.334469 152.916 0.415036 152.938 0.502447C152.981 0.988259 152.954 1.479 152.954 2.00304C152.575 1.91673 152.262 1.82672 151.942 1.77616C150.709 1.58134 149.688 2.22745 149.498 3.45678C149.355 4.38278 149.387 5.33591 149.375 6.27794C149.375 6.40124 149.569 6.61949 149.675 6.62072C151.333 6.64292 152.991 6.63552 154.719 6.63552C154.719 5.67622 154.738 4.79708 154.711 3.92286C154.699 3.52829 154.823 3.32361 155.212 3.22497C155.723 3.09427 156.222 2.91301 156.823 2.72313V6.63305H160.064V8.35929H156.884C156.865 8.64288 156.841 8.8525 156.841 9.07444C156.841 11.3761 156.841 13.6777 156.841 15.9794C156.841 16.062 156.841 16.1446 156.841 16.226C156.894 17.9757 158.006 18.7315 159.676 18.1532C159.79 18.1138 159.903 18.078 160.112 18.0102C160.112 18.5256 160.136 18.9904 160.097 19.4491C160.079 19.5324 160.041 19.6103 159.988 19.6764C159.934 19.7426 159.865 19.7953 159.787 19.8301C158.574 20.2259 157.363 20.2617 156.212 19.6279C155.302 19.1273 154.912 18.2568 154.829 17.2852C154.733 16.1619 154.738 15.03 154.728 13.903C154.715 12.0966 154.728 10.2914 154.728 8.41477C154.466 8.40244 154.249 8.38395 154.03 8.38395C152.737 8.38395 151.441 8.41231 150.149 8.36915C149.548 8.34942 149.343 8.49245 149.35 9.13856C149.387 12.4246 149.367 15.7118 149.367 19.0028L149.355 19.7598Z" fill="#141414"/>
<path d="M125.097 44.4623V43.7225C125.097 41.2983 125.103 38.8742 125.097 36.4476C125.098 35.9967 125.053 35.5468 124.963 35.1049C124.722 33.9594 124.133 33.0778 122.917 32.8201C121.649 32.5525 120.555 32.8694 119.757 33.9569C119.141 34.8015 118.894 35.7621 118.894 36.7929C118.894 39.0937 118.894 41.3933 118.894 43.6978V44.4167H116.852V31.3466H118.872V33.1776C119.936 31.7843 121.233 30.936 122.999 30.9582C124.805 30.9841 126.064 31.841 126.773 33.5932C127.075 33.1986 127.316 32.8533 127.587 32.5328C129 30.8682 131.747 30.4157 133.597 31.5611C134.83 32.3219 135.298 33.5537 135.399 34.9002C135.523 36.4538 135.509 38.0173 135.523 39.577C135.542 41.18 135.523 42.7743 135.523 44.4154H133.471C133.458 44.1614 133.435 43.9222 133.435 43.6867C133.435 41.4266 133.449 39.1664 133.424 36.9051C133.42 36.2286 133.35 35.5542 133.214 34.8915C132.764 32.7707 130.286 31.9804 128.652 33.4279C127.604 34.3601 127.185 35.582 127.172 36.9519C127.159 39.1911 127.172 41.4303 127.172 43.6695C127.172 44.4561 127.172 44.4561 126.359 44.4561L125.097 44.4623Z" fill="#141414"/>
<path d="M113.646 20.1026C110.04 20.0903 107.538 17.7821 107.331 14.1841C107.26 13.1437 107.333 12.0985 107.548 11.0781C108.183 8.27173 110.296 6.49741 113.181 6.34821C114.223 6.28755 115.267 6.39708 116.274 6.6725C118.307 7.25695 119.436 8.79207 119.956 10.7785C120.354 12.2959 120.359 13.89 119.969 15.4097C119.223 18.369 116.862 20.1125 113.646 20.1026ZM118.143 13.3567C118.065 12.6625 118.034 12.0658 117.926 11.4838C117.575 9.59107 116.277 8.30749 114.568 8.1213C112.297 7.8747 110.644 8.72918 109.874 10.6527C109.2 12.2858 109.191 14.1176 109.848 15.7574C110.515 17.4689 112.143 18.4565 113.994 18.353C116.039 18.2383 117.311 17.258 117.825 15.3222C118.002 14.6539 118.049 13.9523 118.143 13.3567Z" fill="#141414"/>
<path d="M137.784 20.1014C134.055 20.0915 131.488 17.5305 131.411 13.7476C131.387 12.5282 131.489 11.326 131.945 10.1829C133.161 7.13243 135.943 5.94872 139.172 6.37535C142.184 6.77239 144.094 8.87593 144.28 11.9314C144.348 13.0633 144.343 14.2458 144.097 15.3444C143.417 18.369 141.022 20.1113 137.784 20.1014ZM142.289 13.3481C142.218 12.6909 142.183 12.1385 142.094 11.5935C141.776 9.6589 140.449 8.3112 138.701 8.12008C136.44 7.87348 134.755 8.75879 134.016 10.6601C133.367 12.2799 133.351 14.0846 133.971 15.7155C134.61 17.4418 136.292 18.4676 138.151 18.353C140.226 18.2297 141.511 17.21 141.994 15.2531C142.151 14.6009 142.202 13.9215 142.289 13.3481Z" fill="#141414"/>
<path d="M113.456 44.4216H111.415V42.3933C111.186 42.6818 111.045 42.8421 110.921 43.0098C109.379 45.1811 106.269 45.1059 104.713 44.1096C103.388 43.2613 103.005 41.9827 103.11 40.4858C103.215 38.9889 103.908 37.7842 105.322 37.2898C106.622 36.8348 108.023 36.6634 109.391 36.3946C110.031 36.2713 110.683 36.2035 111.32 36.1122C111.682 34.1776 110.498 32.7461 108.581 32.7411C107.037 32.7411 105.702 33.2972 104.389 34.3034C104.389 33.5833 104.373 32.9619 104.402 32.3441C104.409 32.2208 104.569 32.0568 104.697 31.9976C106.581 31.1345 108.519 30.6228 110.6 31.1789C112.326 31.6413 113.384 32.9582 113.436 34.9816C113.518 38.1036 113.456 41.2244 113.456 44.4216ZM111.36 37.7102C109.757 38.0136 108.175 38.2429 106.637 38.6264C105.65 38.873 105.208 39.6819 105.215 40.7583C105.205 41.2042 105.337 41.6419 105.592 42.0075C105.848 42.3732 106.213 42.6479 106.635 42.7915C107.777 43.2009 108.872 43.0529 109.85 42.339C111.392 41.2108 111.527 39.5869 111.359 37.7102H111.36Z" fill="#141414"/>
<path d="M75.9539 31.3059C76.6937 31.3059 77.3348 31.2738 77.9649 31.3269C78.1314 31.3404 78.3546 31.587 78.4187 31.7732C79.6357 35.2565 80.8317 38.746 82.0339 42.2342C82.0584 42.2843 82.0873 42.3322 82.1202 42.3772C82.5555 41.1812 82.9833 40.0123 83.4063 38.8446C84.2694 36.5019 85.1399 34.153 85.9858 31.7991C86.1165 31.4292 86.2792 31.2677 86.6812 31.2948C87.1917 31.3293 87.7046 31.3034 88.3174 31.3034C88.1559 31.7399 88.0276 32.1123 87.8821 32.4797C86.0153 37.1874 84.1831 41.9087 82.2509 46.5917C81.8045 47.6453 81.1954 48.6223 80.4458 49.4869C79.3977 50.7063 77.9514 50.8506 76.4101 50.5103V48.7236C76.5963 48.7483 76.7516 48.7594 76.9033 48.7902C78.1622 49.0454 79.1437 48.6336 79.7392 47.4807C80.1951 46.5626 80.6018 45.6209 80.9575 44.6596C81.0364 44.4524 80.9464 44.1454 80.8576 43.9198C79.3196 39.956 77.7763 36.0013 76.2276 32.0556C76.1462 31.8447 76.0747 31.6351 75.9539 31.3059Z" fill="#141414"/>
<path d="M100.883 44.4586C100.267 44.4586 99.6957 44.4586 99.1273 44.4586C98.6883 44.4586 98.7993 44.1133 98.7981 43.8729C98.7907 41.5511 98.7981 39.2306 98.7857 36.9088C98.7768 36.3557 98.719 35.8044 98.6131 35.2615C98.3899 34.0704 97.8055 33.1234 96.5503 32.8386C95.242 32.5426 94.0608 32.8558 93.1286 33.8743C92.3395 34.7374 92.0189 35.7806 92.0189 36.926C92.0103 39.1862 92.0189 41.4463 92.0189 43.7077V44.4216H89.9819V31.3651H91.9979V33.2726L92.1212 33.3318C92.2371 33.185 92.3543 33.042 92.4665 32.894C93.0939 32.057 93.9717 31.4417 94.9725 31.1373C95.9734 30.8329 97.0451 30.8552 98.0324 31.2011C99.7882 31.8053 100.532 33.2072 100.738 34.9088C100.884 36.1258 100.861 37.3662 100.871 38.5968C100.897 40.524 100.883 42.4512 100.883 44.4586Z" fill="#141414"/>
<path d="M154.962 41.7607C156.319 42.7398 157.664 43.1787 159.195 42.9358C160.161 42.7829 160.707 42.3489 160.87 41.5573C161.049 40.6942 160.774 40.0604 159.918 39.5549C159.301 39.1911 158.645 38.8927 158.007 38.5684C157.624 38.3724 157.237 38.1825 156.86 37.9741C155.542 37.2454 154.948 36.1246 155.01 34.6203C155.077 33.1739 155.83 32.1937 157.06 31.5575C158.697 30.7116 160.389 30.8016 162.071 31.4206C162.16 31.4707 162.236 31.5406 162.293 31.6248C162.351 31.709 162.388 31.8054 162.402 31.9064C162.447 32.4354 162.418 32.9705 162.418 33.5167C161.802 33.2923 161.23 32.9717 160.627 32.8928C159.883 32.7872 159.126 32.8059 158.388 32.9483C157.659 33.0987 157.2 33.6881 157.135 34.4588C157.072 35.2047 157.326 35.8484 158.008 36.2331C158.56 36.5438 159.141 36.8064 159.708 37.0962C160.22 37.3551 160.742 37.5956 161.237 37.8829C162.584 38.6609 163.19 39.8335 163.023 41.3847C162.864 42.8643 161.982 43.8347 160.65 44.3439C158.892 45.0184 157.108 44.9358 155.379 44.1861C155.184 44.101 155.002 43.7792 154.977 43.5486C154.923 43.0012 154.962 42.4475 154.962 41.7607Z" fill="#141414"/>
<path d="M121.917 17.1113C123.282 18.0817 124.63 18.5219 126.159 18.2741C127.078 18.1261 127.66 17.6711 127.811 16.9399C127.994 16.0571 127.732 15.4196 126.899 14.9178C126.282 14.5479 125.631 14.2482 124.994 13.9202C124.683 13.7612 124.369 13.612 124.058 13.4554C122.455 12.649 121.749 11.3469 122.005 9.5726C122.242 7.93637 123.334 7.03256 124.816 6.55785C126.191 6.11766 127.568 6.2311 128.927 6.69595C129.271 6.81925 129.412 7.00297 129.387 7.37411C129.355 7.86732 129.38 8.36053 129.38 8.7662C128.507 8.54056 127.654 8.26066 126.79 8.11763C126.302 8.05972 125.807 8.11196 125.342 8.27052C124.624 8.49247 124.159 9.01897 124.094 9.79454C124.031 10.543 124.282 11.1829 124.967 11.5664C125.538 11.8858 126.136 12.157 126.72 12.4542C127.232 12.7131 127.755 12.9474 128.248 13.2458C129.536 14.0115 130.128 15.152 129.988 16.6514C129.854 18.0805 129.055 19.0583 127.781 19.5996C125.974 20.3677 124.137 20.2876 122.343 19.5231C122.148 19.4393 121.966 19.1162 121.941 18.8856C121.878 18.3443 121.917 17.7919 121.917 17.1113Z" fill="#141414"/>
<path d="M153.382 41.9198C153.382 42.5474 153.409 43.0776 153.364 43.6029C153.341 43.696 153.298 43.7831 153.238 43.858C153.178 43.9329 153.103 43.994 153.017 44.0369C149.595 45.7089 144.298 44.7212 143.582 39.2762C143.241 36.6868 143.741 34.28 145.822 32.5143C147.98 30.6845 150.477 30.5747 153.062 31.4822C153.221 31.5377 153.378 31.825 153.394 32.0161C153.44 32.5463 153.41 33.0815 153.41 33.7251C153.184 33.6018 153.019 33.513 152.855 33.4218C149.467 31.5291 145.734 33.6758 145.638 37.5623C145.607 38.8163 145.741 40.0283 146.434 41.106C147.611 42.9432 150.123 43.5425 152.297 42.5055C152.628 42.3489 152.945 42.159 153.382 41.9198Z" fill="#141414"/>
<path d="M97.6477 9.03376C97.2778 8.84881 96.9992 8.69468 96.7082 8.56275C93.4801 7.10284 90.1879 9.02883 89.9389 12.5639C89.8681 13.4013 89.9288 14.2446 90.1189 15.0633C90.8205 17.8388 93.6096 19.094 96.3568 17.9325C96.7476 17.7673 97.1175 17.5515 97.5898 17.316C97.5898 17.9325 97.6305 18.4763 97.5664 19.0126C97.5454 19.1865 97.2803 19.3961 97.0818 19.4763C94.739 20.4294 92.4061 20.4713 90.2903 18.951C88.1744 17.4307 87.5924 15.173 87.7872 12.6823C87.9611 10.4628 88.8143 8.56521 90.7551 7.34945C92.8019 6.06957 95.0054 5.99312 97.2519 6.79582C97.4122 6.85254 97.6218 7.04242 97.6329 7.19039C97.6724 7.77361 97.6477 8.36423 97.6477 9.03376Z" fill="#141414"/>
<path d="M102.239 19.7709H100.192C100.178 19.5243 100.152 19.3123 100.152 19.0965C100.152 15.1767 100.163 11.2557 100.136 7.33588C100.136 6.74526 100.334 6.58744 100.876 6.63552C101.301 6.67251 101.73 6.64292 102.22 6.64292V9.07322L102.343 9.10528C102.453 8.88333 102.56 8.66015 102.675 8.44067C103.47 6.90556 104.684 6.25822 106.402 6.42098C106.799 6.45797 107.001 6.5825 106.977 7.019C106.948 7.527 106.977 8.03871 106.977 8.58001C106.567 8.49246 106.217 8.39875 105.867 8.3445C104.71 8.17064 103.822 8.62563 103.175 9.56519C102.528 10.5048 102.266 11.575 102.26 12.7045C102.248 14.8191 102.26 16.9325 102.26 19.0472L102.239 19.7709Z" fill="#141414"/>
<path d="M83.0965 6.64537C83.6699 6.64537 84.2062 6.61701 84.729 6.66263C84.8745 6.67496 85.1187 6.90924 85.1199 7.03254C85.1359 11.2174 85.1273 15.4035 85.1199 19.5897C85.1071 19.646 85.0877 19.7007 85.062 19.7524H83.0891L83.0965 6.64537Z" fill="#141414"/>
<path d="M140.835 31.3034V44.4574C140.245 44.4574 139.674 44.4795 139.109 44.4376C139.001 44.429 138.839 44.1713 138.826 44.0172C138.786 43.5893 138.811 43.154 138.811 42.7237C138.811 39.1701 138.83 35.6166 138.793 32.063C138.793 31.4107 138.988 31.2282 139.592 31.2948C140.006 31.3196 140.421 31.3224 140.835 31.3034Z" fill="#141414"/>
<path d="M82.7926 2.2595C82.7962 1.89978 82.9425 1.55623 83.1994 1.30441C83.4563 1.05259 83.8027 0.913142 84.1624 0.91674C84.5222 0.920337 84.8657 1.06669 85.1175 1.32359C85.3694 1.58049 85.5088 1.92691 85.5052 2.28663C85.5064 2.46696 85.4714 2.6457 85.4023 2.81226C85.3331 2.97882 85.2313 3.12981 85.1027 3.25628C84.9742 3.38276 84.8216 3.48215 84.6539 3.54857C84.4863 3.61499 84.307 3.64709 84.1267 3.64296C83.3413 3.63063 82.7852 3.05604 82.7926 2.2595Z" fill="#141414"/>
<path d="M141.24 26.904C141.246 27.0836 141.217 27.2627 141.153 27.4307C141.089 27.5987 140.993 27.7523 140.869 27.8825C140.745 28.0126 140.596 28.1167 140.431 28.1886C140.267 28.2604 140.089 28.2987 139.91 28.301C139.553 28.2995 139.212 28.1587 138.958 27.9087C138.705 27.6587 138.559 27.3193 138.552 26.9632C138.545 26.6071 138.678 26.2625 138.922 26.003C139.166 25.7436 139.502 25.5899 139.858 25.5748C140.037 25.5648 140.217 25.5919 140.386 25.6544C140.555 25.717 140.709 25.8137 140.838 25.9384C140.968 26.0631 141.071 26.2132 141.14 26.3794C141.209 26.5455 141.243 26.7241 141.24 26.904Z" fill="#141414"/>
</svg>
