<svg width="153" height="51" viewBox="0 0 153 51" fill="none" xmlns="http://www.w3.org/2000/svg">
<path d="M34.364 25.4567C34.364 28.2915 32.066 30.5896 29.2312 30.5896C26.3964 30.5896 24.0983 28.2915 24.0983 25.4567C24.0983 22.6219 26.3964 20.3239 29.2312 20.3239C32.066 20.3239 34.364 22.6219 34.364 25.4567Z" fill="#141414" stroke="#141414" stroke-width="0.06928"/>
<path fill-rule="evenodd" clip-rule="evenodd" d="M29.2313 14.9501C36.1694 14.9501 42.6147 15.9456 47.4744 17.6187C53.3297 19.6345 56.9297 22.69 56.9297 25.4567C56.9297 28.3398 53.1144 31.5859 46.8266 33.6692C42.0728 35.2441 35.8173 36.0663 29.2313 36.0663C22.4788 36.0663 16.0846 35.2946 11.2773 33.6519C5.19523 31.573 1.53192 28.2849 1.53192 25.4567C1.53192 22.7124 4.96923 19.6805 10.7422 17.6678C15.6201 15.9672 22.2245 14.9501 29.2304 14.9501H29.2313Z" stroke="#141414" stroke-width="1.66272"/>
<path fill-rule="evenodd" clip-rule="evenodd" d="M20.085 20.2337C23.5511 14.2235 27.6333 9.13747 31.5104 5.7634C36.1817 1.69817 40.6272 0.106105 43.0238 1.48814C45.5215 2.92847 46.4273 7.85536 45.0908 14.3429C44.0814 19.2478 41.6675 25.0774 38.3773 30.7827C35.0039 36.6322 31.1411 41.7858 27.3168 45.1285C22.4776 49.3588 17.7991 50.8896 15.3491 49.4767C12.9717 48.1067 12.0625 43.6136 13.203 37.607C14.1666 32.5319 16.5849 26.3026 20.0838 20.2336L20.085 20.2337Z" stroke="#141414" stroke-width="1.66272"/>
<path fill-rule="evenodd" clip-rule="evenodd" d="M20.0936 30.798C16.6177 24.7946 14.2511 18.7167 13.2633 13.6727C12.0742 7.59537 12.9149 2.94877 15.3094 1.56272C17.8046 0.118163 22.5255 1.79387 27.4786 6.19181C31.2235 9.51685 35.0689 14.5185 38.3687 20.2185C41.7518 26.0623 44.2874 31.9828 45.2738 36.9654C46.5219 43.2707 45.5117 48.0884 43.064 49.5054C40.689 50.8803 36.3429 49.4246 31.7086 45.4366C27.793 42.0673 23.6039 36.861 20.0936 30.7979V30.798Z" stroke="#141414" stroke-width="1.66272"/>
<path d="M79.841 29.3662L85.658 38.1545L83.418 38.1429L77.5847 29.0493L77.4372 28.8192H77.1639H72.4849H71.9849V29.3192V38.1415H70.0648V15.6797H78.9912C81.03 15.6797 82.7387 16.3337 83.9337 17.462C85.1255 18.5872 85.8434 20.2188 85.8434 22.2509C85.8434 24.2491 85.1666 25.7595 84.1439 26.8038C83.1158 27.8536 81.7104 28.4601 80.214 28.5922L79.3775 28.666L79.841 29.3662ZM72.4864 27.2693H78.1418V27.2723H78.6418C80.1451 27.2723 81.4446 26.7658 82.3711 25.8686C83.2986 24.9705 83.8207 23.711 83.8207 22.2673C83.8207 20.8233 83.2986 19.5718 82.3696 18.6825C81.4422 17.7948 80.1429 17.2994 78.6418 17.2994H72.4864H71.9864V17.7994V26.7693V27.2693H72.4864ZM104.84 30.5261H91.5874H91.0533L91.0885 31.059C91.3143 34.4812 93.7492 37.399 97.7086 37.399C99.572 37.399 101.47 36.7269 102.881 35.5046L103.552 36.419C102.095 37.7312 100.201 38.4855 97.9084 38.5718L97.9078 38.5667H97.4603C95.0685 38.5667 93.0376 37.711 91.6046 36.2485C90.1713 34.7857 89.3071 32.6858 89.3071 30.1459C89.3071 25.4594 92.6364 21.7459 97.1778 21.7459C99.605 21.7459 101.505 22.6884 102.805 24.2134C104.112 25.7469 104.84 27.9026 104.84 30.357V30.5261ZM102.74 29.5888H103.247L103.24 29.0817C103.221 27.7164 102.758 26.186 101.766 24.9875C100.763 23.7749 99.2327 22.924 97.1466 22.924C93.1591 22.924 91.2393 26.3037 91.0896 29.0617L91.061 29.5888H91.5889H102.74ZM110.802 25.103L110.141 24.1213C111.811 22.5165 113.778 21.7444 116.285 21.7444C118.014 21.7444 119.536 22.1358 120.615 22.9648C121.672 23.7777 122.362 25.0564 122.362 26.979V38.1573L120.726 38.1555V36.722V35.4284L119.856 36.3858C118.554 37.8186 116.758 38.5786 114.597 38.5786C111.901 38.5786 109.15 36.7885 109.15 33.4496C109.15 31.6998 109.849 30.4434 110.859 29.615C111.882 28.776 113.252 28.3562 114.597 28.3562C116.808 28.3562 118.591 29.0553 119.848 30.5061L120.726 31.519V30.1786V27.1187C120.726 25.8279 120.203 24.7855 119.315 24.0767C118.44 23.3777 117.247 23.0311 115.934 23.0311C113.944 23.0311 112.288 23.6959 110.802 25.103ZM120.726 31.8691V31.7068L120.631 31.5755C119.49 30.0029 117.523 29.2578 115.547 29.2578C114.212 29.2578 113.041 29.6784 112.198 30.4313C111.35 31.1877 110.86 32.2567 110.86 33.4867C110.86 35.8081 112.622 37.46 115.047 37.6596V37.6815H115.547C117.523 37.6815 119.492 36.9349 120.631 35.3637L120.726 35.2324V35.0702V31.8691ZM140.148 25.0843C138.986 23.7141 137.511 23.1039 135.775 23.1039C133.827 23.1039 132.219 23.8559 131.104 25.1352C129.995 26.4077 129.402 28.1671 129.402 30.1459C129.402 32.1244 129.994 33.892 131.102 35.1729C132.216 36.4611 133.824 37.2235 135.775 37.2235C137.505 37.2235 138.974 36.5805 140.142 35.2377L141.162 36.1757C140.04 37.486 138.524 38.4514 136.118 38.5682H135.619C130.863 38.5682 127.641 34.9712 127.641 30.1474C127.641 25.3594 130.863 21.7473 135.619 21.7473C138.318 21.7473 139.966 22.7522 141.162 24.1515L140.148 25.0843ZM149.833 38.5801H149.646C148.594 38.5461 147.861 38.2228 147.381 37.7051C146.866 37.1509 146.569 36.2971 146.569 35.1074V23.9905V23.4905H146.069H143.754V22.1681H146.069H146.569V21.6681V17.5248H148.208V21.6681V22.1681H148.708H151.657V23.489H148.708H148.208V23.989V34.5424C148.208 35.2408 148.362 35.9038 148.733 36.4053C149.119 36.9272 149.703 37.2235 150.432 37.2235C151.006 37.2235 151.56 37.0678 152.003 36.8186L152.405 37.8422C151.849 38.27 151.067 38.5801 149.833 38.5801Z" fill="#141414" stroke="#141414"/>
</svg>
