<svg width="184" height="52" viewBox="0 0 184 52" fill="none" xmlns="http://www.w3.org/2000/svg">
<path d="M71.6826 19.9954C71.6826 17.7281 72.2907 16.0921 73.5078 15.0885C74.7231 14.0857 76.6568 13.5844 79.3143 13.5844H91.1319C95.6927 13.5844 98.2973 15.1647 98.9403 18.3263L96.6685 20.0107C96.6685 18.6519 96.2389 17.6429 95.3841 16.9854C94.4164 16.2401 92.8298 15.8679 90.6252 15.8679H79.3475C77.2542 15.8679 75.8344 16.2069 75.0935 16.8832C74.4406 17.4733 74.1141 18.5102 74.1141 19.9963C74.1141 21.3067 74.4738 22.191 75.194 22.6494C76.0496 23.1956 77.6927 23.4682 80.1242 23.4682H90.5902C93.6271 23.4682 95.8397 23.9418 97.2237 24.888C98.6085 25.8352 99.2991 27.3402 99.2991 29.4057V29.8631C99.2991 32.2139 98.7036 33.866 97.5098 34.8212C96.316 35.7773 94.3482 36.2589 91.6019 36.2589H79.5144C77.1062 36.2589 75.2496 35.7369 73.9437 34.6929C72.5723 33.5844 71.8853 31.9511 71.8853 29.7985L74.3159 27.9859C74.3159 29.3564 74.0944 31.926 75.5644 32.8319C76.6165 33.483 78.1188 33.9727 80.3261 33.9727H91.4001C93.245 33.9727 94.6173 33.6418 95.5187 32.9808C96.4191 32.317 96.8694 31.2551 96.8694 29.7977C96.8694 28.3205 96.4694 27.2747 95.6702 26.6666C94.872 26.0576 93.3912 25.7526 91.2297 25.7526H79.448C76.4317 25.7526 74.35 25.2728 73.2011 24.3131C72.1894 23.4637 71.6826 22.0242 71.6826 19.9954Z" fill="#141414"/>
<path d="M137.047 36.2581H134.616V15.4114H133.265L120.639 36.2581H119.389L106.762 15.4114H105.378V36.2581H102.948V13.5853H108.147L120.031 32.9297L131.847 13.5853H137.047V36.2581Z" fill="#141414"/>
<path d="M140.896 19.9954C140.896 17.7281 141.504 16.0921 142.718 15.0885C143.932 14.0857 145.871 13.5844 148.527 13.5844H160.343C165.655 13.5844 168.312 15.7262 168.312 20.0107L165.88 21.3704C165.88 20.0107 166.104 18.4456 164.596 16.9854C163.722 16.1379 162.041 15.8679 159.834 15.8679H148.558C146.465 15.8679 145.048 16.2069 144.307 16.8832C143.651 17.4733 143.326 18.5102 143.326 19.9963C143.326 21.3067 143.685 22.191 144.405 22.6494C145.26 23.1956 146.904 23.4682 149.333 23.4682H159.8C162.839 23.4682 165.052 23.9418 166.434 24.888C167.82 25.8352 168.51 27.3402 168.51 29.4057V29.8631C168.51 32.2139 167.914 33.866 166.723 34.8212C165.529 35.7773 163.561 36.2589 160.814 36.2589H148.725C146.314 36.2589 144.459 35.7369 143.155 34.6929C142.172 33.8992 141.541 32.8417 141.264 31.5134L143.528 29.7985C143.528 31.1681 143.942 32.1807 144.776 32.8328C145.744 33.5951 147.33 33.9745 149.537 33.9745H160.613C162.459 33.9745 163.829 33.6436 164.732 32.9817C165.631 32.318 166.083 31.256 166.083 29.7985C166.083 28.3222 165.682 27.2756 164.882 26.6675C164.085 26.0585 162.604 25.7535 160.442 25.7535H148.661C145.645 25.7535 143.562 25.2737 142.414 24.314C141.401 23.4637 140.896 22.0242 140.896 19.9954Z" fill="#141414"/>
<path d="M73.3299 45.1078H71.9477C71.9477 44.0288 72.2312 43.3355 72.7989 43.0359C73.3666 42.7364 74.2591 42.5857 75.4797 42.5857C76.3955 42.5857 77.1264 42.6556 77.6736 42.7947C78.2198 42.9364 78.6359 43.227 78.9256 43.6682C79.2153 44.1032 79.3579 44.758 79.3579 45.6298V51.2605H78.0888L78.1713 50.3529C77.8305 50.7798 77.4206 51.0605 76.9399 51.1959C76.4574 51.3323 75.8582 51.4013 75.1425 51.4013C74.3398 51.4013 73.6904 51.3314 73.19 51.1959C72.6895 51.056 72.3065 50.7878 72.0383 50.3923C71.7702 49.995 71.6356 49.4165 71.6356 48.6577C71.6356 47.9348 71.7782 47.3841 72.0634 47.0011C72.3487 46.6173 72.7388 46.3634 73.233 46.2388C73.7281 46.1114 74.3568 46.0513 75.121 46.0513C75.8241 46.0513 76.4071 46.1006 76.8681 46.1984C77.3265 46.2953 77.6978 46.5383 77.9803 46.9186V45.915C77.9803 45.1867 77.9157 44.6602 77.7866 44.3284C77.6574 44.0001 77.4197 43.7813 77.0735 43.6727C76.7264 43.5624 76.1659 43.5095 75.3909 43.5095C74.5488 43.5095 73.9774 43.6252 73.6797 43.8548C73.4124 44.0315 73.2823 44.349 73.2823 44.8037C73.2823 44.8387 73.2895 44.8862 73.3048 44.9463C73.3191 45.0082 73.3299 45.0629 73.3299 45.1078ZM73.033 48.5169C73.033 49.2425 73.1819 49.7295 73.4823 49.9779C73.7837 50.2282 74.3165 50.3546 75.0806 50.3546C75.6699 50.3546 76.165 50.325 76.5677 50.2685C76.9704 50.212 77.3184 50.0658 77.6162 49.8309C77.9139 49.5941 78.0619 49.2245 78.0619 48.7187C78.0619 48.0146 77.8565 47.5608 77.4448 47.3626C77.0359 47.1644 76.4125 47.063 75.5793 47.063H75.2439C74.2725 47.063 73.6402 47.1913 73.3469 47.4487C73.1388 47.6101 73.033 47.9653 73.033 48.5169Z" fill="#141414"/>
<path d="M89.3566 48.0936H90.6939C90.6939 48.9797 90.5701 49.6542 90.3199 50.1152C90.0706 50.5789 89.6768 50.8928 89.1441 51.0659C88.6104 51.2345 87.8678 51.3215 86.9162 51.3215C85.9843 51.3215 85.2533 51.2291 84.7197 51.0524C84.1869 50.8731 83.7959 50.5968 83.5447 50.2255C83.2963 49.8506 83.1366 49.4003 83.0721 48.873C83.0048 48.342 82.9707 47.5994 82.9707 46.6415C82.9707 45.6217 83.0828 44.8208 83.3026 44.2306C83.525 43.6404 83.9214 43.2054 84.4937 42.9256C85.0668 42.644 85.874 42.5032 86.9162 42.5032C88.066 42.5032 88.9512 42.6817 89.5746 43.0377C90.197 43.3947 90.5092 44.0979 90.5092 45.1472V45.4307H89.2158C89.2158 44.9069 89.145 44.5131 89.0033 44.2468C88.8616 43.9804 88.64 43.8001 88.336 43.7014C88.0319 43.6037 87.6077 43.5543 87.0642 43.5543C86.2507 43.5543 85.6614 43.6297 85.2901 43.7804C84.9197 43.9328 84.6721 44.2091 84.5501 44.6055C84.4291 45.0046 84.3672 45.6334 84.3672 46.498V47.3644C84.3672 48.1303 84.412 48.7079 84.5017 49.0954C84.5914 49.4838 84.8103 49.7797 85.1618 49.9833C85.5116 50.1887 86.0614 50.2937 86.8112 50.2937C87.5315 50.2937 88.0588 50.2461 88.3987 50.1564C88.7378 50.0658 88.9826 49.8676 89.1333 49.5573C89.284 49.2425 89.3566 48.7573 89.3566 48.0936Z" fill="#141414"/>
<path d="M100.565 48.0936H101.899C101.899 48.9797 101.776 49.6542 101.524 50.1152C101.276 50.5789 100.884 50.8928 100.35 51.0659C99.8181 51.2345 99.0754 51.3215 98.1229 51.3215C97.1919 51.3215 96.4601 51.2291 95.9255 51.0524C95.3936 50.8731 95.0008 50.5968 94.7515 50.2255C94.5012 49.8506 94.3443 49.4003 94.277 48.873C94.2106 48.342 94.1783 47.5994 94.1783 46.6415C94.1783 45.6217 94.2896 44.8208 94.5102 44.2306C94.7308 43.6404 95.1273 43.2054 95.6995 42.9256C96.2726 42.644 97.0789 42.5032 98.1238 42.5032C99.2727 42.5032 100.158 42.6817 100.78 43.0377C101.406 43.3947 101.718 44.0979 101.718 45.1472V45.4307H100.423C100.423 44.9069 100.353 44.5131 100.211 44.2468C100.072 43.9804 99.8477 43.8001 99.5454 43.7014C99.2387 43.6037 98.8144 43.5543 98.2709 43.5543C97.461 43.5543 96.8682 43.6297 96.4968 43.7804C96.1273 43.9328 95.8807 44.2091 95.7578 44.6055C95.6358 45.0046 95.5739 45.6334 95.5739 46.498V47.3644C95.5739 48.1303 95.6206 48.7079 95.7076 49.0954C95.7981 49.4838 96.0197 49.7797 96.3695 49.9833C96.7193 50.1887 97.2682 50.2937 98.0198 50.2937C98.7373 50.2937 99.2665 50.2461 99.6064 50.1564C99.9436 50.0658 100.188 49.8676 100.341 49.5573C100.489 49.2425 100.565 48.7573 100.565 48.0936Z" fill="#141414"/>
<path d="M123.364 48.0936H124.698C124.698 48.9797 124.574 49.6542 124.322 50.1152C124.075 50.5789 123.681 50.8928 123.149 51.0659C122.616 51.2345 121.872 51.3215 120.922 51.3215C119.99 51.3215 119.258 51.2291 118.725 51.0524C118.192 50.8731 117.799 50.5968 117.549 50.2255C117.301 49.8506 117.142 49.4003 117.076 48.873C117.009 48.342 116.978 47.5994 116.978 46.6415C116.978 45.6217 117.087 44.8208 117.308 44.2306C117.527 43.6404 117.925 43.2054 118.497 42.9256C119.071 42.644 119.877 42.5032 120.923 42.5032C122.072 42.5032 122.957 42.6817 123.581 43.0377C124.203 43.3947 124.515 44.0979 124.515 45.1472V45.4307H123.223C123.223 44.9069 123.151 44.5131 123.01 44.2468C122.87 43.9804 122.646 43.8001 122.344 43.7014C122.037 43.6037 121.615 43.5543 121.07 43.5543C120.26 43.5543 119.667 43.6297 119.298 43.7804C118.928 43.9328 118.681 44.2091 118.557 44.6055C118.435 45.0046 118.375 45.6334 118.375 46.498V47.3644C118.375 48.1303 118.421 48.7079 118.509 49.0954C118.598 49.4838 118.821 49.7797 119.17 49.9833C119.519 50.1887 120.069 50.2937 120.821 50.2937C121.538 50.2937 122.067 50.2461 122.407 50.1564C122.745 50.0658 122.991 49.8676 123.141 49.5573C123.288 49.2425 123.364 48.7573 123.364 48.0936Z" fill="#141414"/>
<path d="M144.636 48.6138H146.038C146.038 49.4246 145.887 50.0291 145.581 50.4264C145.278 50.821 144.862 51.0767 144.342 51.1888C143.818 51.3027 143.111 51.3601 142.217 51.3601C141.376 51.3601 140.695 51.2865 140.175 51.143C139.652 50.9995 139.249 50.7627 138.968 50.4407C138.683 50.1197 138.485 49.6927 138.376 49.1654C138.265 48.638 138.21 47.9554 138.21 47.1258C138.21 45.984 138.288 45.0961 138.445 44.4638C138.601 43.8324 138.95 43.3427 139.498 43.001C140.042 42.6574 140.878 42.487 142.006 42.487C143.133 42.487 143.976 42.5991 144.541 42.8234C145.104 43.0494 145.49 43.4368 145.7 43.992C145.908 44.5454 146.022 45.3813 146.038 46.5007V47.1716H139.606C139.606 47.9671 139.645 48.5698 139.719 48.9815C139.797 49.3914 140.009 49.7188 140.353 49.9627C140.699 50.2094 141.247 50.334 142.006 50.334H142.361C143.111 50.334 143.675 50.2461 144.061 50.0748C144.443 49.9044 144.636 49.5107 144.636 48.9026V48.6138ZM144.662 46.1571C144.662 45.3813 144.609 44.81 144.506 44.4495C144.402 44.0889 144.174 43.8342 143.817 43.6889C143.462 43.5454 142.893 43.4736 142.112 43.4736C141.426 43.4736 140.904 43.5525 140.55 43.7122C140.193 43.8718 139.945 44.1418 139.811 44.5176C139.675 44.8943 139.606 45.4405 139.606 46.1571H144.662Z" fill="#141414"/>
<path d="M155.896 46.0137V42.5875H157.211V51.2623H155.856V47.1635H151.011V51.2623H149.68V42.6063H151.011V46.0137H155.896Z" fill="#141414"/>
<path d="M132.179 51.2363H130.863V43.5947H127.591V42.5382H132.179H135.415V43.5947H132.179V51.2363Z" fill="#141414"/>
<path d="M165.416 51.2731H164.102V43.6333H160.825V42.575H165.416H168.652V43.6333H165.416V51.2731Z" fill="#141414"/>
<path d="M105.515 51.2515V42.5561H106.828V50.264L111.193 42.5561H113.385V51.2515H112.07V43.5435L107.759 51.2515H105.515Z" fill="#141414"/>
<path d="M31.989 37.3971L60.3893 14.3979C59.6081 13.9683 58.7112 13.7243 57.756 13.7243H2.75806L31.989 37.3971Z" fill="#141414"/>
<path d="M63.219 50.3439V19.1532C63.219 17.8832 62.7777 16.7182 62.0414 15.7934L39.7642 33.8337L63.219 50.3439Z" fill="#141414"/>
<path d="M24.212 33.8337L0.758057 14.8391V45.7427C0.758057 47.1356 1.28902 48.4003 2.15543 49.3599L24.212 33.8337Z" fill="#141414"/>
<path d="M39.0028 34.4508L31.989 40.1318L24.9744 34.4508L2.8595 50.0147C3.78689 50.7385 4.95197 51.1726 6.22198 51.1726H62.7608L39.0028 34.4508Z" fill="#141414"/>
<path d="M170.874 6.85583C170.874 3.16419 173.876 0.431335 177.413 0.431335C180.92 0.431335 183.923 3.16419 183.923 6.85583C183.923 10.5807 180.922 13.3135 177.413 13.3135C173.875 13.3135 170.874 10.5807 170.874 6.85583ZM177.413 12.2328C180.334 12.2328 182.626 9.95911 182.626 6.85583C182.626 3.80457 180.332 1.5112 177.413 1.5112C174.465 1.5112 172.172 3.80457 172.172 6.85583C172.172 9.95911 174.463 12.2328 177.413 12.2328ZM176.048 10.5807H174.936V3.1633H177.753C179.505 3.1633 180.384 3.80369 180.384 5.27191C180.384 6.60291 179.543 7.17604 178.461 7.30967L180.57 10.5798H179.304L177.349 7.359H176.05L176.048 10.5807ZM176.048 6.41815H177.4C178.36 6.41815 179.202 6.34999 179.202 5.20285C179.202 4.27636 178.377 4.10773 177.585 4.10773H176.051L176.048 6.41815Z" fill="#141414"/>
</svg>
