<svg width="218" height="29" viewBox="0 0 218 29" fill="none" xmlns="http://www.w3.org/2000/svg">
<path d="M22.4791 0.85907V17.0822C22.4791 24.7166 17.6015 28.5338 11.2395 28.5338C4.7715 28.5338 0 24.7166 0 17.0822V0.85907H5.61977V16.7641C5.61977 21.5356 7.9525 23.2321 11.2395 23.2321C14.5266 23.2321 16.8593 21.4295 16.8593 16.7641V0.85907H22.4791Z" fill="#141414"/>
<path d="M50.6841 0.85907V28.1096H44.2161L32.8705 9.8719V28.1096H27.2507V0.85907H33.6127L45.1703 19.2028V0.85907H50.6841Z" fill="#141414"/>
<path d="M138.798 0.85907V28.1096H132.33L120.984 9.8719V28.1096H115.365V0.85907H121.726L133.072 19.2028V0.85907H138.798Z" fill="#141414"/>
<path d="M56.4099 0.85907H62.0297V28.1096H56.4099V0.85907Z" fill="#141414"/>
<path d="M88.6439 20.1571C88.6439 26.5191 82.9181 28.6398 78.2527 28.6398C70.3002 28.6398 67.0132 24.0803 66.377 19.4149H71.9967C72.739 22.0657 74.3294 23.4441 78.2527 23.4441C81.4337 23.4441 83.0242 22.2778 83.0242 20.3692C83.0242 18.3545 81.1156 18.0364 76.3441 16.9761C71.4665 15.9158 67.1192 14.3253 67.1192 9.0236C67.1192 3.2978 72.2088 0.434906 77.4044 0.434906C84.7207 0.434906 87.7957 4.35814 88.4319 8.91757H82.8121C82.1759 7.00897 80.9035 5.63054 77.5104 5.63054C74.2234 5.63054 72.845 7.00897 72.845 8.81154C72.845 10.402 74.2234 10.8262 77.8285 11.5684C84.9328 13.0529 88.6439 14.6434 88.6439 20.1571Z" fill="#141414"/>
<path d="M97.9752 6.16073V11.6745H108.791V16.9761H97.9752V22.808H110.699V28.1096H92.3555V0.85907H110.699V6.16073H97.9752Z" fill="#141414"/>
<path d="M168.381 14.5374C168.381 22.2778 162.337 28.2156 154.491 28.2156H144.629V0.85907H154.491C162.337 0.85907 168.381 6.6909 168.381 14.5374ZM162.761 14.5374C162.761 9.65983 159.262 6.16073 154.384 6.16073H150.143V22.808H154.384C159.262 22.914 162.761 19.4149 162.761 14.5374Z" fill="#141414"/>
<path d="M177.288 6.16073V11.6745H188.103V16.9761H177.288V22.808H190.012V28.1096H171.668V0.85907H190.012V6.16073H177.288Z" fill="#141414"/>
<path d="M203.16 18.3546H200.085V28.2156H194.465V0.85907H206.235C212.066 0.85907 215.565 4.35817 215.565 9.76586C215.565 14.2193 213.233 16.9761 209.416 17.9304L217.05 28.2156H210.158L203.16 18.3546ZM200.085 13.477H205.598C208.567 13.477 209.84 12.0986 209.84 9.8719C209.84 7.6452 208.461 6.16073 205.598 6.16073H200.085V13.477Z" fill="#141414"/>
</svg>
