<svg width="97" height="54" viewBox="0 0 97 54" fill="none" xmlns="http://www.w3.org/2000/svg">
<path fill-rule="evenodd" clip-rule="evenodd" d="M32.8979 14.9426C30.3133 7.83476 37.7442 0.242312 43.802 0C47.4366 1.85773 50.5867 6.70397 50.4252 13.3272C49.9405 21.485 44.0443 28.5121 37.6634 34.9737C37.2595 27.0582 35.5634 22.0504 32.8979 14.9426Z" fill="#141414"/>
<path fill-rule="evenodd" clip-rule="evenodd" d="M96.7875 38.043V14.6195C96.7875 14.2156 96.4645 13.8926 96.0606 13.8926H92.6682C92.2644 13.8926 91.9413 14.2156 91.9413 14.6195V37.9622C91.9413 38.3661 92.2644 38.7699 92.6682 38.7699H96.0606C96.4645 38.7699 96.7875 38.4469 96.7875 38.043ZM78.9372 38.6892V14.0541C76.9987 14.1349 74.091 15.3464 74.091 17.9311V34.8122C73.041 34.9737 71.4255 35.1353 70.5371 35.1353C67.387 35.1353 66.5793 32.8737 66.5793 29.8852V17.7696C66.4178 14.8618 63.0254 13.9733 61.7331 14.0541V29.8852C61.7331 35.6199 64.6408 39.093 70.5371 39.093C71.4255 39.093 73.2833 38.8507 74.091 38.6892V39.0122C74.8179 43.8585 69.0024 42.0008 65.7716 41.6777C63.4292 41.6777 61.8138 43.6162 61.41 45.797C62.7831 46.2008 67.2255 46.7662 70.3755 47.0893C75.9487 47.0085 78.9372 43.9393 78.9372 38.6892ZM87.822 38.043V14.6195C87.822 14.2156 87.4989 13.8926 87.0951 13.8926H83.7027C83.2988 13.8926 82.9757 14.2156 82.9757 14.6195V37.9622C82.9757 38.3661 83.2988 38.7699 83.7027 38.7699H87.0951C87.4989 38.7699 87.822 38.4469 87.822 38.043ZM85.3989 7.26936C86.772 7.26936 87.9028 8.40015 87.9028 9.77326C87.9028 11.1464 86.772 12.2771 85.3989 12.2771C84.0258 12.2771 82.895 11.1464 82.895 9.77326C82.8142 8.40015 83.945 7.26936 85.3989 7.26936ZM94.3644 7.26936C95.7375 7.26936 96.8683 8.40015 96.8683 9.77326C96.8683 11.1464 95.7375 12.2771 94.3644 12.2771C92.9913 12.2771 91.8605 11.1464 91.8605 9.77326C91.8605 8.40015 92.9913 7.26936 94.3644 7.26936Z" fill="#141414"/>
<path fill-rule="evenodd" clip-rule="evenodd" d="M18.5207 53.551C17.4707 45.6354 20.7823 38.8507 24.0939 34.7314C31.2017 25.8466 30.7979 20.5158 30.0709 15.9926C33.7864 21.8081 36.1288 28.8351 36.6941 35.0545C36.9365 40.0623 33.221 51.8548 18.5207 53.551Z" fill="#141414"/>
<path fill-rule="evenodd" clip-rule="evenodd" d="M13.4322 23.3427C2.68968 20.435 0.0242495 11.1463 0.508874 4.92701C10.9283 0.807702 22.2362 5.00778 28.6978 13.8926C33.221 20.1119 36.1287 28.0274 36.6941 34.9737C33.5441 30.9352 29.5863 28.5928 24.5785 26.8159C21.1862 25.5235 17.9553 24.7158 13.4322 23.3427Z" fill="#141414"/>
<path fill-rule="evenodd" clip-rule="evenodd" d="M30.071 15.9118C30.1517 15.9926 30.2325 16.1541 30.3133 16.2349L30.394 16.3965C30.5556 16.6388 30.7171 16.9619 30.8787 17.2042V17.2849L30.9594 17.3657V17.4465L31.0402 17.608L31.2017 17.8503C31.2825 18.0119 31.4441 18.2542 31.5248 18.4965L31.6864 18.7388L31.8479 18.9811V19.0619L31.9287 19.2234L32.0094 19.385L32.0902 19.5465C32.171 19.7081 32.2518 19.8696 32.3325 20.1119V20.1927C32.4941 20.5158 32.6556 20.8388 32.8172 21.1619L32.8979 21.4042L32.9787 21.5658L33.0595 21.7273L33.1402 21.8081L33.221 21.9696L33.3018 22.1312L33.3826 22.3735L33.5441 22.6966C33.7056 23.0197 33.7864 23.3427 33.9479 23.6658L34.0287 23.9081L34.1095 24.0697C34.1903 24.2312 34.271 24.3928 34.271 24.6351V24.7158C34.3518 24.8774 34.4326 25.1197 34.5133 25.2812V25.362C34.5941 25.5235 34.6749 25.7659 34.6749 25.9274V26.0082L34.7557 26.3313L34.8364 26.6543L34.9172 26.9774L34.998 27.2197V27.3005L35.0787 27.462C35.1595 27.6236 35.1595 27.7851 35.2403 28.0274V28.189L35.321 28.4313C35.4018 28.7544 35.4826 29.0775 35.5634 29.4005C35.6441 29.8044 35.7249 30.289 35.8057 30.6929V30.7736C35.9672 31.4198 36.048 32.1467 36.1288 32.7929C36.1288 33.0352 36.2095 33.1968 36.2095 33.4391V33.5198V33.8429V34.0852V34.166V34.4083V34.4891V34.8122C33.8672 31.8237 31.121 29.8044 27.8094 28.189C30.9594 23.0197 30.6363 19.2234 30.071 15.9118Z" fill="#141414"/>
</svg>
