<svg width="165" height="48" viewBox="0 0 165 48" fill="none" xmlns="http://www.w3.org/2000/svg">
<rect width="164.359" height="47.5973" rx="23.7986" fill="#141414"/>
<path d="M33.1188 16.317H27.0413V13.238H42.4896V16.317H36.412V31.9795H33.1188V16.317Z" fill="white"/>
<path d="M55.2139 16.317H49.1363V13.238H64.5846V16.317H58.5071V31.9795H55.2139V16.317Z" fill="white"/>
<path d="M88.8276 13.238V31.9795H86.2038L75.896 18.9943V31.9795H72.817V13.238H75.4408L85.7486 26.2767V13.238H88.8276Z" fill="white"/>
<path d="M111.476 30.9353V13.238H114.555V20.6811C115.43 19.985 116.492 19.6369 117.741 19.6369C119.508 19.6369 120.9 20.2081 121.918 21.3504C122.953 22.457 123.471 23.9296 123.471 25.768C123.471 27.7493 122.846 29.3289 121.596 30.5069C120.365 31.685 118.696 32.274 116.59 32.274C115.662 32.274 114.725 32.149 113.779 31.8991C112.85 31.6493 112.083 31.328 111.476 30.9353ZM117.018 22.5284C116.036 22.5284 115.215 22.9122 114.555 23.6797V28.7934C115.215 29.204 115.947 29.4092 116.75 29.4092C117.768 29.4092 118.589 29.1058 119.214 28.4989C119.856 27.8742 120.177 27.0353 120.177 25.9822C120.177 24.8934 119.883 24.0456 119.294 23.4387C118.705 22.8319 117.946 22.5284 117.018 22.5284Z" fill="white"/>
<path d="M135.124 19.9314H138.632L133.893 31.9795C133.036 34.0678 132.269 35.4779 131.59 36.2097C130.93 36.9593 130.145 37.3342 129.234 37.3342C128.377 37.3342 127.512 37.0218 126.637 36.3971L127.628 34.0678C128.092 34.3534 128.511 34.4962 128.886 34.4962C129.618 34.4962 130.234 33.8715 130.734 32.622L131.001 31.9795L125.432 19.9314H129.127L131.938 26.5177C131.974 26.6069 132.17 27.187 132.527 28.258C132.634 27.5975 132.777 27.0085 132.956 26.4909L135.124 19.9314Z" fill="white"/>
<rect x="97.4258" y="21.5675" width="5.20595" height="5.20595" fill="white"/>
</svg>
