<svg width="78" height="78" viewBox="0 0 78 78" fill="none" xmlns="http://www.w3.org/2000/svg">
<path d="M39 73.4036C20.1964 73.4036 4.73571 57.8036 4.73571 39C4.73571 35.1 5.43214 31.3393 6.68571 27.7179L26.7429 66.7179C27.0214 67.275 27.3 67.6929 27.9964 67.6929C28.6929 67.6929 28.9714 67.275 29.25 66.7179L38.5821 45.9643C38.7214 45.6857 38.8607 45.5464 39 45.5464C39.2786 45.5464 39.2786 45.825 39.4179 45.9643L48.8893 66.7179C49.1679 67.275 49.4464 67.6929 50.1429 67.6929C50.8393 67.6929 51.1179 67.275 51.3964 66.7179L71.4536 27.7179C72.7071 31.2 73.4036 34.9607 73.4036 39C73.2643 57.8036 57.8036 73.4036 39 73.4036ZM39 30.0857C38.7214 30.0857 38.7214 29.8071 38.5821 29.6679L27.8571 6.54643C31.3393 5.29286 35.1 4.59643 39 4.59643C42.9 4.59643 46.6607 5.29286 50.1429 6.54643L39.4179 29.6679C39.2786 29.8071 39.2786 30.0857 39 30.0857ZM27.7179 55.1571C27.4393 55.1571 27.4393 54.8786 27.3 54.7393L9.75 21.0321C12.8143 16.0179 17.2714 11.8393 22.425 8.91429L34.8214 35.6571C35.1 36.2143 35.3786 36.3536 35.7964 36.3536H42.2036C42.6214 36.3536 42.9 36.2143 43.1786 35.6571L55.4357 8.91429C60.5893 11.8393 65.0464 16.0179 68.1107 21.0321L50.7 54.7393C50.5607 55.0179 50.4214 55.1571 50.2821 55.1571C50.0036 55.1571 50.0036 54.8786 49.8643 54.7393L43.1786 39.975C42.9 39.4179 42.6214 39.2786 42.2036 39.2786H35.7964C35.3786 39.2786 35.1 39.4179 34.8214 39.975L28.1357 54.7393C27.9964 54.8786 27.9964 55.1571 27.7179 55.1571ZM39 78C60.5893 78 78 60.5893 78 39C78 17.4107 60.5893 0 39 0C17.4107 0 0 17.4107 0 39C0 60.5893 17.4107 78 39 78Z" fill="#141414"/>
</svg>
