<svg width="79" height="78" viewBox="0 0 79 78" fill="none" xmlns="http://www.w3.org/2000/svg">
<path d="M39.7742 73.4036C20.9707 73.4036 5.50995 57.8036 5.50995 39C5.50995 35.1 6.20637 31.3393 7.45995 27.7179L27.5171 66.7179C27.7957 67.275 28.0742 67.6929 28.7707 67.6929C29.4671 67.6929 29.7457 67.275 30.0242 66.7179L39.3564 45.9643C39.4957 45.6857 39.6349 45.5464 39.7742 45.5464C40.0528 45.5464 40.0528 45.825 40.1921 45.9643L49.6635 66.7179C49.9421 67.275 50.2207 67.6929 50.9171 67.6929C51.6135 67.6929 51.8921 67.275 52.1707 66.7179L72.2278 27.7179C73.4814 31.2 74.1778 34.9607 74.1778 39C74.0385 57.8036 58.5778 73.4036 39.7742 73.4036ZM39.7742 30.0857C39.4957 30.0857 39.4957 29.8071 39.3564 29.6679L28.6314 6.54643C32.1135 5.29286 35.8742 4.59643 39.7742 4.59643C43.6742 4.59643 47.4349 5.29286 50.9171 6.54643L40.1921 29.6679C40.0528 29.8071 40.0528 30.0857 39.7742 30.0857ZM28.4921 55.1571C28.2135 55.1571 28.2135 54.8786 28.0742 54.7393L10.5242 21.0321C13.5885 16.0179 18.0457 11.8393 23.1992 8.91429L35.5957 35.6571C35.8742 36.2143 36.1528 36.3536 36.5707 36.3536H42.9778C43.3957 36.3536 43.6742 36.2143 43.9528 35.6571L56.2099 8.91429C61.3635 11.8393 65.8207 16.0179 68.8849 21.0321L51.4742 54.7393C51.3349 55.0179 51.1957 55.1571 51.0564 55.1571C50.7778 55.1571 50.7778 54.8786 50.6385 54.7393L43.9528 39.975C43.6742 39.4179 43.3957 39.2786 42.9778 39.2786H36.5707C36.1528 39.2786 35.8742 39.4179 35.5957 39.975L28.9099 54.7393C28.7707 54.8786 28.7707 55.1571 28.4921 55.1571ZM39.7742 78C61.3635 78 78.7742 60.5893 78.7742 39C78.7742 17.4107 61.3635 0 39.7742 0C18.1849 0 0.774231 17.4107 0.774231 39C0.774231 60.5893 18.1849 78 39.7742 78Z" fill="#141414"/>
</svg>
