<svg width="1462" height="437" viewBox="0 0 1462 437" fill="none" xmlns="http://www.w3.org/2000/svg"><path d="M81.539 50.976V34.248c1.568-.08 3.184-.12 4.848-.12 1.904 0 3.296.384 4.176 1.152.896.752 1.344 1.752 1.344 3 0 1.792-.8 3.064-2.4 3.816v.048c.88.224 1.592.664 2.136 1.32s.816 1.52.816 2.592c0 1.664-.576 2.92-1.728 3.768-1.136.848-2.64 1.272-4.512 1.272-2.032 0-3.592-.04-4.68-.12zm5.04-7.2H84.49v4.44c.672.08 1.32.12 1.944.12 2.048 0 3.072-.808 3.072-2.424 0-.704-.256-1.232-.768-1.584-.512-.368-1.232-.552-2.16-.552zm-.24-6.888c-.704 0-1.32.024-1.848.072v4.248h1.992c.736 0 1.336-.184 1.8-.552.464-.384.696-.944.696-1.68 0-.672-.24-1.184-.72-1.536-.464-.368-1.104-.552-1.92-.552zm13.298.48l4.296-3.216h1.992V51h-2.76V38.088l-2.064 1.56-1.464-2.28zm22.793 9.792l1.128 2.208c-.528.56-1.288 1.016-2.28 1.368a9.055 9.055 0 01-3.096.528c-2.576 0-4.664-.792-6.264-2.376-1.6-1.584-2.4-3.68-2.4-6.288 0-2.512.76-4.584 2.28-6.216 1.52-1.632 3.624-2.448 6.312-2.448 2.16 0 3.864.568 5.112 1.704l-1.32 2.184c-1.136-.752-2.4-1.128-3.792-1.128-1.584 0-2.896.536-3.936 1.608-1.024 1.072-1.536 2.504-1.536 4.296 0 1.744.536 3.168 1.608 4.272 1.088 1.088 2.488 1.632 4.2 1.632 1.488 0 2.816-.448 3.984-1.344zm12.172 4.104a7.8 7.8 0 01-2.76-.504c-.896-.352-1.544-.784-1.944-1.296l1.416-1.728c.32.368.776.68 1.368.936.608.256 1.168.384 1.68.384.704 0 1.248-.12 1.632-.36.384-.24.576-.56.576-.96a1.07 1.07 0 00-.432-.888c-.288-.224-.688-.336-1.2-.336h-2.016v-1.848h1.896c.432 0 .776-.128 1.032-.384.272-.256.408-.568.408-.936 0-.784-.632-1.176-1.896-1.176-.992 0-1.976.416-2.952 1.248l-1.152-1.656c1.04-1.216 2.584-1.824 4.632-1.824 1.408 0 2.48.272 3.216.816.736.544 1.104 1.296 1.104 2.256 0 .528-.176 1.008-.528 1.44-.352.432-.84.752-1.464.96v.048c.736.144 1.296.448 1.68.912.4.448.6.992.6 1.632 0 1.008-.448 1.808-1.344 2.4-.896.576-2.08.864-3.552.864zm8.344-8.28l-.696-2.016a7.385 7.385 0 013.816-1.032c1.536 0 2.64.376 3.312 1.128.672.752 1.008 1.872 1.008 3.36V51h-2.4v-1.248c-.656.928-1.72 1.392-3.192 1.392-1.008 0-1.824-.296-2.448-.888-.624-.592-.936-1.4-.936-2.424 0-1.136.368-2 1.104-2.592.736-.608 1.68-.912 2.832-.912.992 0 1.808.232 2.448.696.032-.944-.104-1.64-.408-2.088-.304-.464-.84-.696-1.608-.696-.8 0-1.744.248-2.832.744zm2.76 5.832c.928 0 1.624-.328 2.088-.984v-1.104c-.464-.352-1.096-.528-1.896-.528-.496 0-.912.12-1.248.36-.32.224-.48.552-.48.984 0 .4.144.712.432.936.288.224.656.336 1.104.336zm7.51 2.184V40.2c.192 0 .544-.008 1.056-.024a51.715 51.715 0 013.192-.096c3.264 0 4.896.944 4.896 2.832 0 .624-.2 1.16-.6 1.608a2.231 2.231 0 01-1.416.792v.048c1.536.368 2.304 1.2 2.304 2.496 0 2.176-1.712 3.264-5.136 3.264a55.3 55.3 0 01-2.28-.072 86.639 86.639 0 00-2.016-.048zm4.488-4.584h-1.728v2.4c1.088.064 1.696.096 1.824.096.608 0 1.08-.112 1.416-.336.352-.224.528-.528.528-.912 0-.832-.68-1.248-2.04-1.248zm0-4.104c-.768 0-1.344.016-1.728.048v2.376h1.8c.48 0 .872-.104 1.176-.312.32-.224.48-.536.48-.936 0-.784-.576-1.176-1.728-1.176zm16.031 5.664l.792 1.944c-1.056.896-2.432 1.344-4.128 1.344-1.744 0-3.152-.52-4.224-1.56-1.056-1.04-1.584-2.408-1.584-4.104 0-1.616.52-2.96 1.56-4.032 1.04-1.088 2.424-1.632 4.152-1.632 1.424 0 2.632.472 3.624 1.416.992.928 1.488 2.128 1.488 3.6 0 .608-.056 1.104-.168 1.488h-7.8c.112.8.464 1.424 1.056 1.872.592.432 1.32.648 2.184.648 1.216 0 2.232-.328 3.048-.984zm-3.552-5.736c-1.568 0-2.512.784-2.832 2.352h5.304c.016-.672-.2-1.232-.648-1.68-.448-.448-1.056-.672-1.824-.672zM184.39 51v-8.04h-2.856l-.072 1.152c-.176 1.936-.472 3.424-.888 4.464-.4 1.04-.912 1.744-1.536 2.112-.608.352-1.424.528-2.448.528l-.24-2.688a1.4 1.4 0 00.984-.288c.32-.24.624-.752.912-1.536.288-.8.472-1.848.552-3.144l.168-3.36h8.184V51h-2.76zm8.594 0h-2.76V40.2h2.76v6.84l5.04-6.84h2.76V51h-2.76v-6.84l-5.04 6.84zm14.838-8.04V40.2h9.84v2.76h-3.528V51h-2.76v-8.04h-3.552zm12.423 6.72c-1.072-1.072-1.608-2.432-1.608-4.08 0-1.648.536-3 1.608-4.056 1.088-1.072 2.512-1.608 4.272-1.608 1.76 0 3.176.536 4.248 1.608 1.088 1.056 1.632 2.408 1.632 4.056 0 1.648-.544 3.008-1.632 4.08-1.072 1.056-2.488 1.584-4.248 1.584-1.76 0-3.184-.528-4.272-1.584zm1.344-4.08c0 .896.272 1.64.816 2.232.56.576 1.264.864 2.112.864.864 0 1.568-.28 2.112-.84.56-.576.84-1.328.84-2.256 0-.896-.28-1.632-.84-2.208-.56-.576-1.264-.864-2.112-.864-.832 0-1.528.288-2.088.864-.56.56-.84 1.296-.84 2.208zm11.197 5.4V40.2c.192 0 .544-.008 1.056-.024a51.715 51.715 0 013.192-.096c3.264 0 4.896.944 4.896 2.832 0 .624-.2 1.16-.6 1.608a2.231 2.231 0 01-1.416.792v.048c1.536.368 2.304 1.2 2.304 2.496 0 2.176-1.712 3.264-5.136 3.264a55.3 55.3 0 01-2.28-.072 86.639 86.639 0 00-2.016-.048zm4.488-4.584h-1.728v2.4c1.088.064 1.696.096 1.824.096.608 0 1.08-.112 1.416-.336.352-.224.528-.528.528-.912 0-.832-.68-1.248-2.04-1.248zm0-4.104c-.768 0-1.344.016-1.728.048v2.376h1.8c.48 0 .872-.104 1.176-.312.32-.224.48-.536.48-.936 0-.784-.576-1.176-1.728-1.176zm8.399.672l-.696-2.016a7.385 7.385 0 013.816-1.032c1.536 0 2.64.376 3.312 1.128.672.752 1.008 1.872 1.008 3.36V51h-2.4v-1.248c-.656.928-1.72 1.392-3.192 1.392-1.008 0-1.824-.296-2.448-.888-.624-.592-.936-1.4-.936-2.424 0-1.136.368-2 1.104-2.592.736-.608 1.68-.912 2.832-.912.992 0 1.808.232 2.448.696.032-.944-.104-1.64-.408-2.088-.304-.464-.84-.696-1.608-.696-.8 0-1.744.248-2.832.744zm2.76 5.832c.928 0 1.624-.328 2.088-.984v-1.104c-.464-.352-1.096-.528-1.896-.528-.496 0-.912.12-1.248.36-.32.224-.48.552-.48.984 0 .4.144.712.432.936.288.224.656.336 1.104.336zm7.509 6.984V40.2h2.76v1.032c.352-.368.824-.672 1.416-.912a4.898 4.898 0 011.92-.384c1.472 0 2.656.512 3.552 1.536.896 1.024 1.344 2.344 1.344 3.96 0 1.68-.528 3.072-1.584 4.176s-2.432 1.656-4.128 1.656c-1.072 0-1.912-.176-2.52-.528V55.8h-2.76zm5.232-13.272c-.944 0-1.768.392-2.472 1.176v4.368c.64.416 1.4.624 2.28.624.928 0 1.664-.296 2.208-.888.544-.608.816-1.376.816-2.304 0-.88-.248-1.592-.744-2.136-.496-.56-1.192-.84-2.088-.84z" fill="#fff"/><rect x="1.5" y="1.5" width="344" height="86" rx="6.5" stroke="#E4002B" stroke-width="3"/><path d="M47.54 195.96v-2.76h13.85v2.76h-5.45V210h-2.952v-14.04H47.54zm13.389 12.72c-1.072-1.072-1.608-2.432-1.608-4.08 0-1.648.536-3 1.608-4.056 1.088-1.072 2.512-1.608 4.272-1.608 1.76 0 3.176.536 4.248 1.608 1.088 1.056 1.632 2.408 1.632 4.056 0 1.648-.544 3.008-1.632 4.08-1.072 1.056-2.488 1.584-4.248 1.584-1.76 0-3.184-.528-4.272-1.584zm1.344-4.08c0 .896.272 1.64.816 2.232.56.576 1.264.864 2.112.864.864 0 1.568-.28 2.112-.84.56-.576.84-1.328.84-2.256 0-.896-.28-1.632-.84-2.208-.56-.576-1.264-.864-2.112-.864-.832 0-1.528.288-2.088.864-.56.56-.84 1.296-.84 2.208zM73.47 210v-10.8c.192 0 .544-.008 1.056-.024a51.715 51.715 0 013.192-.096c3.264 0 4.896.944 4.896 2.832 0 .624-.2 1.16-.6 1.608a2.231 2.231 0 01-1.416.792v.048c1.536.368 2.304 1.2 2.304 2.496 0 2.176-1.712 3.264-5.136 3.264a55.3 55.3 0 01-2.28-.072A86.639 86.639 0 0073.47 210zm4.488-4.584H76.23v2.4c1.088.064 1.696.096 1.824.096.608 0 1.08-.112 1.416-.336.352-.224.528-.528.528-.912 0-.832-.68-1.248-2.04-1.248zm0-4.104c-.768 0-1.344.016-1.728.048v2.376h1.8c.48 0 .872-.104 1.176-.312.32-.224.48-.536.48-.936 0-.784-.576-1.176-1.728-1.176zm8.398.672l-.695-2.016a7.385 7.385 0 013.816-1.032c1.535 0 2.64.376 3.311 1.128.672.752 1.008 1.872 1.008 3.36V210h-2.4v-1.248c-.656.928-1.72 1.392-3.192 1.392-1.007 0-1.823-.296-2.447-.888-.625-.592-.937-1.4-.937-2.424 0-1.136.369-2 1.105-2.592.736-.608 1.68-.912 2.832-.912.992 0 1.807.232 2.447.696.033-.944-.103-1.64-.407-2.088-.304-.464-.84-.696-1.608-.696-.8 0-1.744.248-2.832.744zm2.76 5.832c.928 0 1.624-.328 2.088-.984v-1.104c-.463-.352-1.095-.528-1.895-.528-.496 0-.912.12-1.248.36-.32.224-.48.552-.48.984 0 .4.144.712.431.936.288.224.656.336 1.105.336zm7.51 6.984v-15.6h2.76v1.032c.352-.368.824-.672 1.416-.912a4.898 4.898 0 011.92-.384c1.472 0 2.656.512 3.552 1.536.896 1.024 1.344 2.344 1.344 3.96 0 1.68-.528 3.072-1.584 4.176s-2.432 1.656-4.128 1.656c-1.072 0-1.912-.176-2.52-.528v5.064h-2.76zm5.232-13.272c-.944 0-1.768.392-2.472 1.176v4.368c.64.416 1.4.624 2.28.624.928 0 1.664-.296 2.208-.888.544-.608.816-1.376.816-2.304 0-.88-.248-1.592-.744-2.136-.496-.56-1.192-.84-2.088-.84zM115.095 210v-10.8c.192 0 .544-.008 1.056-.024a51.715 51.715 0 013.192-.096c3.264 0 4.896.944 4.896 2.832 0 .624-.2 1.16-.6 1.608a2.231 2.231 0 01-1.416.792v.048c1.536.368 2.304 1.2 2.304 2.496 0 2.176-1.712 3.264-5.136 3.264a55.3 55.3 0 01-2.28-.072 86.639 86.639 0 00-2.016-.048zm4.488-4.584h-1.728v2.4c1.088.064 1.696.096 1.824.096.608 0 1.08-.112 1.416-.336.352-.224.528-.528.528-.912 0-.832-.68-1.248-2.04-1.248zm0-4.104c-.768 0-1.344.016-1.728.048v2.376h1.8c.48 0 .872-.104 1.176-.312.32-.224.48-.536.48-.936 0-.784-.576-1.176-1.728-1.176zm7.558 8.688v-10.8h2.76v2.952h1.344c1.696 0 2.912.352 3.648 1.056.736.704 1.104 1.6 1.104 2.688 0 1.168-.4 2.144-1.2 2.928-.8.784-2.056 1.176-3.768 1.176h-3.888zm10.392 0v-10.8h2.76V210h-2.76zm-6.528-5.64h-1.104v3.24h1.08c1.392 0 2.088-.536 2.088-1.608 0-1.088-.688-1.632-2.064-1.632zM143.36 210v-10.8h7.248v2.592h-4.488V210h-2.76zm8.977 4.8v-15.6h2.76v1.032c.352-.368.824-.672 1.416-.912a4.898 4.898 0 011.92-.384c1.472 0 2.656.512 3.552 1.536.896 1.024 1.344 2.344 1.344 3.96 0 1.68-.528 3.072-1.584 4.176s-2.432 1.656-4.128 1.656c-1.072 0-1.912-.176-2.52-.528v5.064h-2.76zm5.232-13.272c-.944 0-1.768.392-2.472 1.176v4.368c.64.416 1.4.624 2.28.624.928 0 1.664-.296 2.208-.888.544-.608.816-1.376.816-2.304 0-.88-.248-1.592-.744-2.136-.496-.56-1.192-.84-2.088-.84zm18.145-2.328l-4.248 10.8c-.768 1.872-1.456 3.136-2.064 3.792-.592.672-1.296 1.008-2.112 1.008-.784 0-1.56-.28-2.328-.84l.888-2.088c.432.256.808.384 1.128.384.656 0 1.208-.56 1.656-1.68l.24-.576-4.992-10.8h3.312l2.52 5.904c.096.24.272.76.528 1.56.128-.704.256-1.232.384-1.584l1.944-5.88h3.144zm5.47 11.064a7.8 7.8 0 01-2.76-.504c-.896-.352-1.544-.784-1.944-1.296l1.416-1.728c.32.368.776.68 1.368.936.608.256 1.168.384 1.68.384.704 0 1.248-.12 1.632-.36.384-.24.576-.56.576-.96a1.07 1.07 0 00-.432-.888c-.288-.224-.688-.336-1.2-.336h-2.016v-1.848h1.896c.432 0 .776-.128 1.032-.384.272-.256.408-.568.408-.936 0-.784-.632-1.176-1.896-1.176-.992 0-1.976.416-2.952 1.248l-1.152-1.656c1.04-1.216 2.584-1.824 4.632-1.824 1.408 0 2.48.272 3.216.816.736.544 1.104 1.296 1.104 2.256 0 .528-.176 1.008-.528 1.44-.352.432-.84.752-1.464.96v.048c.736.144 1.296.448 1.68.912.4.448.6.992.6 1.632 0 1.008-.448 1.808-1.344 2.4-.896.576-2.08.864-3.552.864zm10.264-.264h-2.76v-10.8h2.76v6.84l5.04-6.84h2.76V210h-2.76v-6.84l-5.04 6.84zm17.985 0v-8.04h-2.856l-.072 1.152c-.176 1.936-.472 3.424-.888 4.464-.4 1.04-.912 1.744-1.536 2.112-.608.352-1.424.528-2.448.528l-.24-2.688a1.4 1.4 0 00.984-.288c.32-.24.624-.752.912-1.536.288-.8.472-1.848.552-3.144l.168-3.36h8.184V210h-2.76zm14.017-3.624l1.296 2.016c-.448.608-1.056 1.072-1.824 1.392-.752.32-1.576.48-2.472.48-1.76 0-3.176-.52-4.248-1.56s-1.608-2.408-1.608-4.104c0-1.6.528-2.944 1.584-4.032s2.392-1.632 4.008-1.632c1.92 0 3.368.488 4.344 1.464l-1.296 2.184c-.72-.704-1.616-1.056-2.688-1.056-.8 0-1.504.288-2.112.864-.592.56-.888 1.296-.888 2.208 0 .928.304 1.68.912 2.256.624.56 1.36.84 2.208.84 1.056 0 1.984-.44 2.784-1.32zm8.323-7.176h3.528V210h-2.76v-3.24h-1.536l-2.232 3.24h-3.168l2.88-3.84c-.544-.192-1.032-.552-1.464-1.08-.416-.544-.624-1.224-.624-2.04 0-1.136.432-2.056 1.296-2.76.88-.72 2.24-1.08 4.08-1.08zm-2.424 4.032c0 .432.176.792.528 1.08.368.272.776.408 1.224.408h1.44v-3.12h-1.224c-.624 0-1.112.16-1.464.48-.336.32-.504.704-.504 1.152zM243.462 210v-10.8c.192 0 .544-.008 1.056-.024a51.715 51.715 0 013.192-.096c3.264 0 4.896.944 4.896 2.832 0 .624-.2 1.16-.6 1.608a2.231 2.231 0 01-1.416.792v.048c1.536.368 2.304 1.2 2.304 2.496 0 2.176-1.712 3.264-5.136 3.264a55.3 55.3 0 01-2.28-.072 86.639 86.639 0 00-2.016-.048zm4.488-4.584h-1.728v2.4c1.088.064 1.696.096 1.824.096.608 0 1.08-.112 1.416-.336.352-.224.528-.528.528-.912 0-.832-.68-1.248-2.04-1.248zm0-4.104c-.768 0-1.344.016-1.728.048v2.376h1.8c.48 0 .872-.104 1.176-.312.32-.224.48-.536.48-.936 0-.784-.576-1.176-1.728-1.176zM263.979 210h-2.592v-16.8h2.952v11.952l8.808-11.952h2.592V210h-2.952v-11.928L263.979 210zm16.415 0v-16.8h2.976l5.736 7.848 5.472-7.848h2.784V210h-2.928v-12.144l-5.304 7.464h-.432l-5.352-7.392V210h-2.952z" fill="#fff"/><rect x="1.5" y="160.5" width="344" height="86" rx="6.5" stroke="#E4002B" stroke-width="3"/><path d="M68.94 354.96v-2.76h13.847v2.76H77.34V369h-2.952v-14.04H68.94zm13.388 12.72c-1.073-1.072-1.609-2.432-1.609-4.08 0-1.648.537-3 1.609-4.056 1.087-1.072 2.511-1.608 4.272-1.608 1.76 0 3.175.536 4.248 1.608 1.088 1.056 1.632 2.408 1.632 4.056 0 1.648-.544 3.008-1.633 4.08-1.072 1.056-2.487 1.584-4.247 1.584-1.76 0-3.184-.528-4.272-1.584zm1.343-4.08c0 .896.272 1.64.816 2.232.56.576 1.264.864 2.113.864.864 0 1.568-.28 2.112-.84.56-.576.84-1.328.84-2.256 0-.896-.28-1.632-.84-2.208-.56-.576-1.264-.864-2.112-.864-.832 0-1.528.288-2.088.864-.56.56-.84 1.296-.84 2.208zm11.197 5.4v-10.8c.192 0 .544-.008 1.056-.024a51.715 51.715 0 013.192-.096c3.264 0 4.896.944 4.896 2.832 0 .624-.2 1.16-.6 1.608a2.231 2.231 0 01-1.416.792v.048c1.536.368 2.304 1.2 2.304 2.496 0 2.176-1.712 3.264-5.136 3.264a55.3 55.3 0 01-2.28-.072 86.639 86.639 0 00-2.016-.048zm4.488-4.584h-1.728v2.4c1.088.064 1.696.096 1.824.096.608 0 1.08-.112 1.416-.336.352-.224.528-.528.528-.912 0-.832-.68-1.248-2.04-1.248zm0-4.104c-.768 0-1.344.016-1.728.048v2.376h1.8c.48 0 .872-.104 1.176-.312.32-.224.48-.536.48-.936 0-.784-.576-1.176-1.728-1.176zm8.399.672l-.696-2.016a7.385 7.385 0 013.816-1.032c1.536 0 2.64.376 3.312 1.128.672.752 1.008 1.872 1.008 3.36V369h-2.4v-1.248c-.656.928-1.72 1.392-3.192 1.392-1.008 0-1.824-.296-2.448-.888-.624-.592-.936-1.4-.936-2.424 0-1.136.368-2 1.104-2.592.736-.608 1.68-.912 2.832-.912.992 0 1.808.232 2.448.696.032-.944-.104-1.64-.408-2.088-.304-.464-.84-.696-1.608-.696-.8 0-1.744.248-2.832.744zm2.76 5.832c.928 0 1.624-.328 2.088-.984v-1.104c-.464-.352-1.096-.528-1.896-.528-.496 0-.912.12-1.248.36-.32.224-.48.552-.48.984 0 .4.144.712.432.936.288.224.656.336 1.104.336zm7.509 6.984v-15.6h2.76v1.032c.352-.368.824-.672 1.416-.912a4.898 4.898 0 011.92-.384c1.472 0 2.656.512 3.552 1.536.896 1.024 1.344 2.344 1.344 3.96 0 1.68-.528 3.072-1.584 4.176s-2.432 1.656-4.128 1.656c-1.072 0-1.912-.176-2.52-.528v5.064h-2.76zm5.232-13.272c-.944 0-1.768.392-2.472 1.176v4.368c.64.416 1.4.624 2.28.624.928 0 1.664-.296 2.208-.888.544-.608.816-1.376.816-2.304 0-.88-.248-1.592-.744-2.136-.496-.56-1.192-.84-2.088-.84zM143.861 369v-8.208h-4.608V369h-2.76v-10.8h10.128V369h-2.76zm6.763-1.32c-1.072-1.072-1.608-2.432-1.608-4.08 0-1.648.536-3 1.608-4.056 1.088-1.072 2.512-1.608 4.272-1.608 1.76 0 3.176.536 4.248 1.608 1.088 1.056 1.632 2.408 1.632 4.056 0 1.648-.544 3.008-1.632 4.08-1.072 1.056-2.488 1.584-4.248 1.584-1.76 0-3.184-.528-4.272-1.584zm1.344-4.08c0 .896.272 1.64.816 2.232.56.576 1.264.864 2.112.864.864 0 1.568-.28 2.112-.84.56-.576.84-1.328.84-2.256 0-.896-.28-1.632-.84-2.208-.56-.576-1.264-.864-2.112-.864-.832 0-1.528.288-2.088.864-.56.56-.84 1.296-.84 2.208zm18.565 5.4v-8.208h-4.608V369h-2.76v-10.8h10.128V369h-2.76zm6.667-8.016l-.696-2.016a7.385 7.385 0 013.816-1.032c1.536 0 2.64.376 3.312 1.128.672.752 1.008 1.872 1.008 3.36V369h-2.4v-1.248c-.656.928-1.72 1.392-3.192 1.392-1.008 0-1.824-.296-2.448-.888-.624-.592-.936-1.4-.936-2.424 0-1.136.368-2 1.104-2.592.736-.608 1.68-.912 2.832-.912.992 0 1.808.232 2.448.696.032-.944-.104-1.64-.408-2.088-.304-.464-.84-.696-1.608-.696-.8 0-1.744.248-2.832.744zm2.76 5.832c.928 0 1.624-.328 2.088-.984v-1.104c-.464-.352-1.096-.528-1.896-.528-.496 0-.912.12-1.248.36-.32.224-.48.552-.48.984 0 .4.144.712.432.936.288.224.656.336 1.104.336zM194.574 369v-8.04h-2.856l-.072 1.152c-.176 1.936-.472 3.424-.888 4.464-.4 1.04-.912 1.744-1.536 2.112-.608.352-1.424.528-2.448.528l-.24-2.688a1.4 1.4 0 00.984-.288c.32-.24.624-.752.912-1.536.288-.8.472-1.848.552-3.144l.168-3.36h8.184V369h-2.76zm10.919 0v-10.8c.192 0 .544-.008 1.056-.024a51.715 51.715 0 013.192-.096c3.264 0 4.896.944 4.896 2.832 0 .624-.2 1.16-.6 1.608a2.231 2.231 0 01-1.416.792v.048c1.536.368 2.304 1.2 2.304 2.496 0 2.176-1.712 3.264-5.136 3.264a55.3 55.3 0 01-2.28-.072 86.639 86.639 0 00-2.016-.048zm4.488-4.584h-1.728v2.4c1.088.064 1.696.096 1.824.096.608 0 1.08-.112 1.416-.336.352-.224.528-.528.528-.912 0-.832-.68-1.248-2.04-1.248zm0-4.104c-.768 0-1.344.016-1.728.048v2.376h1.8c.48 0 .872-.104 1.176-.312.32-.224.48-.536.48-.936 0-.784-.576-1.176-1.728-1.176zm16.461 8.952a7.8 7.8 0 01-2.76-.504c-.896-.352-1.544-.784-1.944-1.296l1.416-1.728c.32.368.776.68 1.368.936.608.256 1.168.384 1.68.384.704 0 1.248-.12 1.632-.36.384-.24.576-.56.576-.96a1.07 1.07 0 00-.432-.888c-.288-.224-.688-.336-1.2-.336h-2.016v-1.848h1.896c.432 0 .776-.128 1.032-.384.272-.256.408-.568.408-.936 0-.784-.632-1.176-1.896-1.176-.992 0-1.976.416-2.952 1.248l-1.152-1.656c1.04-1.216 2.584-1.824 4.632-1.824 1.408 0 2.48.272 3.216.816.736.544 1.104 1.296 1.104 2.256 0 .528-.176 1.008-.528 1.44-.352.432-.84.752-1.464.96v.048c.736.144 1.296.448 1.68.912.4.448.6.992.6 1.632 0 1.008-.448 1.808-1.344 2.4-.896.576-2.08.864-3.552.864zm8.344-8.28l-.696-2.016a7.385 7.385 0 013.816-1.032c1.536 0 2.64.376 3.312 1.128.672.752 1.008 1.872 1.008 3.36V369h-2.4v-1.248c-.656.928-1.72 1.392-3.192 1.392-1.008 0-1.824-.296-2.448-.888-.624-.592-.936-1.4-.936-2.424 0-1.136.368-2 1.104-2.592.736-.608 1.68-.912 2.832-.912.992 0 1.808.232 2.448.696.032-.944-.104-1.64-.408-2.088-.304-.464-.84-.696-1.608-.696-.8 0-1.744.248-2.832.744zm2.76 5.832c.928 0 1.624-.328 2.088-.984v-1.104c-.464-.352-1.096-.528-1.896-.528-.496 0-.912.12-1.248.36-.32.224-.48.552-.48.984 0 .4.144.712.432.936.288.224.656.336 1.104.336zm17.734-8.616l-4.152 5.136 4.656 5.664h-3.6l-4.272-5.448 3.888-5.352h3.48zM245.056 369v-10.8h2.76V369h-2.76zm13.191-8.016l-.696-2.016a7.385 7.385 0 013.816-1.032c1.536 0 2.64.376 3.312 1.128.672.752 1.008 1.872 1.008 3.36V369h-2.4v-1.248c-.656.928-1.72 1.392-3.192 1.392-1.008 0-1.824-.296-2.448-.888-.624-.592-.936-1.4-.936-2.424 0-1.136.368-2 1.104-2.592.736-.608 1.68-.912 2.832-.912.992 0 1.808.232 2.448.696.032-.944-.104-1.64-.408-2.088-.304-.464-.84-.696-1.608-.696-.8 0-1.744.248-2.832.744zm2.76 5.832c.928 0 1.624-.328 2.088-.984v-1.104c-.464-.352-1.096-.528-1.896-.528-.496 0-.912.12-1.248.36-.32.224-.48.552-.48.984 0 .4.144.712.432.936.288.224.656.336 1.104.336zm11.325 2.448a7.8 7.8 0 01-2.76-.504c-.896-.352-1.544-.784-1.944-1.296l1.416-1.728c.32.368.776.68 1.368.936.608.256 1.168.384 1.68.384.704 0 1.248-.12 1.632-.36.384-.24.576-.56.576-.96a1.07 1.07 0 00-.432-.888c-.288-.224-.688-.336-1.2-.336h-2.016v-1.848h1.896c.432 0 .776-.128 1.032-.384.272-.256.408-.568.408-.936 0-.784-.632-1.176-1.896-1.176-.992 0-1.976.416-2.952 1.248l-1.152-1.656c1.04-1.216 2.584-1.824 4.632-1.824 1.408 0 2.48.272 3.216.816.736.544 1.104 1.296 1.104 2.256 0 .528-.176 1.008-.528 1.44-.352.432-.84.752-1.464.96v.048c.736.144 1.296.448 1.68.912.4.448.6.992.6 1.632 0 1.008-.448 1.808-1.344 2.4-.896.576-2.08.864-3.552.864z" fill="#fff"/><rect x="1.5" y="319.5" width="344" height="86" rx="6.5" stroke="#E4002B" stroke-width="3"/><path d="M668.461 209.976v-16.728c1.568-.08 3.184-.12 4.848-.12 1.904 0 3.296.384 4.176 1.152.896.752 1.344 1.752 1.344 3 0 1.792-.8 3.064-2.4 3.816v.048c.88.224 1.592.664 2.136 1.32s.816 1.52.816 2.592c0 1.664-.576 2.92-1.728 3.768-1.136.848-2.64 1.272-4.512 1.272-2.032 0-3.592-.04-4.68-.12zm5.04-7.2h-2.088v4.44c.672.08 1.32.12 1.944.12 2.048 0 3.072-.808 3.072-2.424 0-.704-.256-1.232-.768-1.584-.512-.368-1.232-.552-2.16-.552zm-.24-6.888c-.704 0-1.32.024-1.848.072v4.248h1.992c.736 0 1.336-.184 1.8-.552.464-.384.696-.944.696-1.68 0-.672-.24-1.184-.72-1.536-.464-.368-1.104-.552-1.92-.552zm13.298.48l4.296-3.216h1.992V210h-2.76v-12.912l-2.064 1.56-1.464-2.28zm22.792 9.792l1.128 2.208c-.528.56-1.288 1.016-2.28 1.368a9.055 9.055 0 01-3.096.528c-2.576 0-4.664-.792-6.264-2.376-1.6-1.584-2.4-3.68-2.4-6.288 0-2.512.76-4.584 2.28-6.216 1.52-1.632 3.624-2.448 6.312-2.448 2.16 0 3.864.568 5.112 1.704l-1.32 2.184c-1.136-.752-2.4-1.128-3.792-1.128-1.584 0-2.896.536-3.936 1.608-1.024 1.072-1.536 2.504-1.536 4.296 0 1.744.536 3.168 1.608 4.272 1.088 1.088 2.488 1.632 4.2 1.632 1.488 0 2.816-.448 3.984-1.344zm16.541.216l1.296 2.016c-.448.608-1.056 1.072-1.824 1.392-.752.32-1.576.48-2.472.48-1.76 0-3.176-.52-4.248-1.56s-1.608-2.408-1.608-4.104c0-1.6.528-2.944 1.584-4.032s2.392-1.632 4.008-1.632c1.92 0 3.368.488 4.344 1.464l-1.296 2.184c-.72-.704-1.616-1.056-2.688-1.056-.8 0-1.504.288-2.112.864-.592.56-.888 1.296-.888 2.208 0 .928.304 1.68.912 2.256.624.56 1.36.84 2.208.84 1.056 0 1.984-.44 2.784-1.32zm3.861 2.304c-1.072-1.072-1.608-2.432-1.608-4.08 0-1.648.536-3 1.608-4.056 1.088-1.072 2.512-1.608 4.272-1.608 1.76 0 3.176.536 4.248 1.608 1.088 1.056 1.632 2.408 1.632 4.056 0 1.648-.544 3.008-1.632 4.08-1.072 1.056-2.488 1.584-4.248 1.584-1.76 0-3.184-.528-4.272-1.584zm1.344-4.08c0 .896.272 1.64.816 2.232.56.576 1.264.864 2.112.864.864 0 1.568-.28 2.112-.84.56-.576.84-1.328.84-2.256 0-.896-.28-1.632-.84-2.208-.56-.576-1.264-.864-2.112-.864-.832 0-1.528.288-2.088.864-.56.56-.84 1.296-.84 2.208zm15.013 5.664a7.8 7.8 0 01-2.76-.504c-.896-.352-1.544-.784-1.944-1.296l1.416-1.728c.32.368.776.68 1.368.936.608.256 1.168.384 1.68.384.704 0 1.248-.12 1.632-.36.384-.24.576-.56.576-.96a1.07 1.07 0 00-.432-.888c-.288-.224-.688-.336-1.2-.336h-2.016v-1.848h1.896c.432 0 .776-.128 1.032-.384.272-.256.408-.568.408-.936 0-.784-.632-1.176-1.896-1.176-.992 0-1.976.416-2.952 1.248l-1.152-1.656c1.04-1.216 2.584-1.824 4.632-1.824 1.408 0 2.48.272 3.216.816.736.544 1.104 1.296 1.104 2.256 0 .528-.176 1.008-.528 1.44-.352.432-.84.752-1.464.96v.048c.736.144 1.296.448 1.68.912.4.448.6.992.6 1.632 0 1.008-.448 1.808-1.344 2.4-.896.576-2.08.864-3.552.864zm6.208 2.256v-5.088h1.368c.848-1.12 1.352-3 1.512-5.64l.168-2.592h7.968v8.232h1.8v5.088h-2.592V210h-7.656v2.52h-2.568zm5.544-9.624c-.192 2.096-.624 3.608-1.296 4.536h4.008v-5.64h-2.64l-.072 1.104zm9.928-.912l-.696-2.016a7.385 7.385 0 013.816-1.032c1.536 0 2.64.376 3.312 1.128.672.752 1.008 1.872 1.008 3.36V210h-2.4v-1.248c-.656.928-1.72 1.392-3.192 1.392-1.008 0-1.824-.296-2.448-.888-.624-.592-.936-1.4-.936-2.424 0-1.136.368-2 1.104-2.592.736-.608 1.68-.912 2.832-.912.992 0 1.808.232 2.448.696.032-.944-.104-1.64-.408-2.088-.304-.464-.84-.696-1.608-.696-.8 0-1.744.248-2.832.744zm2.76 5.832c.928 0 1.624-.328 2.088-.984v-1.104c-.464-.352-1.096-.528-1.896-.528-.496 0-.912.12-1.248.36-.32.224-.48.552-.48.984 0 .4.144.712.432.936.288.224.656.336 1.104.336zM785.163 210v-8.04h-2.856l-.072 1.152c-.176 1.936-.472 3.424-.888 4.464-.4 1.04-.912 1.744-1.536 2.112-.608.352-1.424.528-2.448.528l-.24-2.688a1.4 1.4 0 00.984-.288c.32-.24.624-.752.912-1.536.288-.8.472-1.848.552-3.144l.168-3.36h8.184V210h-2.76zm14.018-3.624l1.296 2.016c-.448.608-1.056 1.072-1.824 1.392-.752.32-1.576.48-2.472.48-1.76 0-3.176-.52-4.248-1.56s-1.608-2.408-1.608-4.104c0-1.6.528-2.944 1.584-4.032s2.392-1.632 4.008-1.632c1.92 0 3.368.488 4.344 1.464l-1.296 2.184c-.72-.704-1.616-1.056-2.688-1.056-.8 0-1.504.288-2.112.864-.592.56-.888 1.296-.888 2.208 0 .928.304 1.68.912 2.256.624.56 1.36.84 2.208.84 1.056 0 1.984-.44 2.784-1.32zm8.323-7.176h3.528V210h-2.76v-3.24h-1.536l-2.232 3.24h-3.168l2.879-3.84c-.543-.192-1.031-.552-1.463-1.08-.416-.544-.624-1.224-.624-2.04 0-1.136.432-2.056 1.296-2.76.88-.72 2.24-1.08 4.08-1.08zm-2.424 4.032c0 .432.176.792.528 1.08.368.272.776.408 1.224.408h1.44v-3.12h-1.224c-.624 0-1.112.16-1.464.48-.336.32-.504.704-.504 1.152zm17.928 7.032a7.8 7.8 0 01-2.76-.504c-.896-.352-1.544-.784-1.944-1.296l1.416-1.728c.32.368.776.68 1.368.936.608.256 1.168.384 1.68.384.704 0 1.248-.12 1.632-.36.384-.24.576-.56.576-.96a1.07 1.07 0 00-.432-.888c-.288-.224-.688-.336-1.2-.336h-2.016v-1.848h1.896c.432 0 .776-.128 1.032-.384.272-.256.408-.568.408-.936 0-.784-.632-1.176-1.896-1.176-.992 0-1.976.416-2.952 1.248l-1.152-1.656c1.04-1.216 2.584-1.824 4.632-1.824 1.408 0 2.48.272 3.216.816.736.544 1.104 1.296 1.104 2.256 0 .528-.176 1.008-.528 1.44-.352.432-.84.752-1.464.96v.048c.736.144 1.296.448 1.68.912.4.448.6.992.6 1.632 0 1.008-.448 1.808-1.344 2.4-.896.576-2.08.864-3.552.864zm8.345-8.28l-.696-2.016a7.385 7.385 0 013.816-1.032c1.536 0 2.64.376 3.312 1.128.672.752 1.008 1.872 1.008 3.36V210h-2.4v-1.248c-.656.928-1.72 1.392-3.192 1.392-1.008 0-1.824-.296-2.448-.888-.624-.592-.936-1.4-.936-2.424 0-1.136.368-2 1.104-2.592.736-.608 1.68-.912 2.832-.912.992 0 1.808.232 2.448.696.032-.944-.104-1.64-.408-2.088-.304-.464-.84-.696-1.608-.696-.8 0-1.744.248-2.832.744zm2.76 5.832c.928 0 1.624-.328 2.088-.984v-1.104c-.464-.352-1.096-.528-1.896-.528-.496 0-.912.12-1.248.36-.32.224-.48.552-.48.984 0 .4.144.712.432.936.288.224.656.336 1.104.336zm17.733-8.616l-4.152 5.136L852.35 210h-3.6l-4.272-5.448 3.888-5.352h3.48zM841.622 210v-10.8h2.76V210h-2.76zm13.192-8.016l-.696-2.016a7.385 7.385 0 013.816-1.032c1.536 0 2.64.376 3.312 1.128.672.752 1.008 1.872 1.008 3.36V210h-2.4v-1.248c-.656.928-1.72 1.392-3.192 1.392-1.008 0-1.824-.296-2.448-.888-.624-.592-.936-1.4-.936-2.424 0-1.136.368-2 1.104-2.592.736-.608 1.68-.912 2.832-.912.992 0 1.808.232 2.448.696.032-.944-.104-1.64-.408-2.088-.304-.464-.84-.696-1.608-.696-.8 0-1.744.248-2.832.744zm2.76 5.832c.928 0 1.624-.328 2.088-.984v-1.104c-.464-.352-1.096-.528-1.896-.528-.496 0-.912.12-1.248.36-.32.224-.48.552-.48.984 0 .4.144.712.432.936.288.224.656.336 1.104.336zm11.325 2.448a7.8 7.8 0 01-2.76-.504c-.896-.352-1.544-.784-1.944-1.296l1.416-1.728c.32.368.776.68 1.368.936.608.256 1.168.384 1.68.384.704 0 1.248-.12 1.632-.36.384-.24.576-.56.576-.96a1.07 1.07 0 00-.432-.888c-.288-.224-.688-.336-1.2-.336h-2.016v-1.848h1.896c.432 0 .776-.128 1.032-.384.272-.256.408-.568.408-.936 0-.784-.632-1.176-1.896-1.176-.992 0-1.976.416-2.952 1.248l-1.152-1.656c1.04-1.216 2.584-1.824 4.632-1.824 1.408 0 2.48.272 3.216.816.736.544 1.104 1.296 1.104 2.256 0 .528-.176 1.008-.528 1.44-.352.432-.84.752-1.464.96v.048c.736.144 1.296.448 1.68.912.4.448.6.992.6 1.632 0 1.008-.448 1.808-1.344 2.4-.896.576-2.08.864-3.552.864z" fill="#fff"/><rect x="598.5" y="160.5" width="344" height="86" rx="6.5" stroke="#E4002B" stroke-width="3"/><path d="M697.277 363.976v-16.728c1.568-.08 3.184-.12 4.848-.12 1.904 0 3.296.384 4.176 1.152.896.752 1.344 1.752 1.344 3 0 1.792-.8 3.064-2.4 3.816v.048c.88.224 1.592.664 2.136 1.32s.816 1.52.816 2.592c0 1.664-.576 2.92-1.728 3.768-1.136.848-2.64 1.272-4.512 1.272-2.032 0-3.592-.04-4.68-.12zm5.04-7.2h-2.088v4.44c.672.08 1.32.12 1.944.12 2.048 0 3.072-.808 3.072-2.424 0-.704-.256-1.232-.768-1.584-.512-.368-1.232-.552-2.16-.552zm-.24-6.888c-.704 0-1.32.024-1.848.072v4.248h1.992c.736 0 1.336-.184 1.8-.552.464-.384.696-.944.696-1.68 0-.672-.24-1.184-.72-1.536-.464-.368-1.104-.552-1.92-.552zM719.768 364h-2.592v-16.8h2.952v11.952l8.808-11.952h2.592V364h-2.952v-11.928L719.768 364zm16.415 0v-16.8h2.976l5.736 7.848 5.472-7.848h2.784V364h-2.928v-12.144l-5.304 7.464h-.432l-5.352-7.392V364h-2.952zm36.343-10.8l-4.248 10.8c-.768 1.872-1.456 3.136-2.064 3.792-.592.672-1.296 1.008-2.112 1.008-.784 0-1.56-.28-2.328-.84l.888-2.088c.432.256.808.384 1.128.384.656 0 1.208-.56 1.656-1.68l.24-.576-4.992-10.8h3.312l2.52 5.904c.096.24.272.76.528 1.56.128-.704.256-1.232.384-1.584l1.944-5.88h3.144zm10.556 11.064a7.8 7.8 0 01-2.76-.504c-.896-.352-1.544-.784-1.944-1.296l1.416-1.728c.32.368.776.68 1.368.936.608.256 1.168.384 1.68.384.704 0 1.248-.12 1.632-.36.384-.24.576-.56.576-.96a1.07 1.07 0 00-.432-.888c-.288-.224-.688-.336-1.2-.336h-2.016v-1.848h1.896c.432 0 .776-.128 1.032-.384.272-.256.408-.568.408-.936 0-.784-.632-1.176-1.896-1.176-.992 0-1.976.416-2.952 1.248l-1.152-1.656c1.04-1.216 2.584-1.824 4.632-1.824 1.408 0 2.48.272 3.216.816.736.544 1.104 1.296 1.104 2.256 0 .528-.176 1.008-.528 1.44-.352.432-.84.752-1.464.96v.048c.736.144 1.296.448 1.68.912.4.448.6.992.6 1.632 0 1.008-.448 1.808-1.344 2.4-.896.576-2.08.864-3.552.864zm8.345-8.28l-.696-2.016a7.385 7.385 0 013.816-1.032c1.536 0 2.64.376 3.312 1.128.672.752 1.008 1.872 1.008 3.36V364h-2.4v-1.248c-.656.928-1.72 1.392-3.192 1.392-1.008 0-1.824-.296-2.448-.888-.624-.592-.936-1.4-.936-2.424 0-1.136.368-2 1.104-2.592.736-.608 1.68-.912 2.832-.912.992 0 1.808.232 2.448.696.032-.944-.104-1.64-.408-2.088-.304-.464-.84-.696-1.608-.696-.8 0-1.744.248-2.832.744zm2.76 5.832c.928 0 1.624-.328 2.088-.984v-1.104c-.464-.352-1.096-.528-1.896-.528-.496 0-.912.12-1.248.36-.32.224-.48.552-.48.984 0 .4.144.712.432.936.288.224.656.336 1.104.336zm17.733-8.616l-4.152 5.136 4.656 5.664h-3.6l-4.272-5.448 3.888-5.352h3.48zM801.696 364v-10.8h2.76V364h-2.76zm13.192-8.016l-.696-2.016a7.385 7.385 0 013.816-1.032c1.536 0 2.64.376 3.312 1.128.672.752 1.008 1.872 1.008 3.36V364h-2.4v-1.248c-.656.928-1.72 1.392-3.192 1.392-1.008 0-1.824-.296-2.448-.888-.624-.592-.936-1.4-.936-2.424 0-1.136.368-2 1.104-2.592.736-.608 1.68-.912 2.832-.912.992 0 1.808.232 2.448.696.032-.944-.104-1.64-.408-2.088-.304-.464-.84-.696-1.608-.696-.8 0-1.744.248-2.832.744zm2.76 5.832c.928 0 1.624-.328 2.088-.984v-1.104c-.464-.352-1.096-.528-1.896-.528-.496 0-.912.12-1.248.36-.32.224-.48.552-.48.984 0 .4.144.712.432.936.288.224.656.336 1.104.336zm11.325 2.448a7.8 7.8 0 01-2.76-.504c-.896-.352-1.544-.784-1.944-1.296l1.416-1.728c.32.368.776.68 1.368.936.608.256 1.168.384 1.68.384.704 0 1.248-.12 1.632-.36.384-.24.576-.56.576-.96a1.07 1.07 0 00-.432-.888c-.288-.224-.688-.336-1.2-.336h-2.016v-1.848h1.896c.432 0 .776-.128 1.032-.384.272-.256.408-.568.408-.936 0-.784-.632-1.176-1.896-1.176-.992 0-1.976.416-2.952 1.248l-1.152-1.656c1.04-1.216 2.584-1.824 4.632-1.824 1.408 0 2.48.272 3.216.816.736.544 1.104 1.296 1.104 2.256 0 .528-.176 1.008-.528 1.44-.352.432-.84.752-1.464.96v.048c.736.144 1.296.448 1.68.912.4.448.6.992.6 1.632 0 1.008-.448 1.808-1.344 2.4-.896.576-2.08.864-3.552.864zm8.344-8.28l-.696-2.016a7.385 7.385 0 013.816-1.032c1.536 0 2.64.376 3.312 1.128.672.752 1.008 1.872 1.008 3.36V364h-2.4v-1.248c-.656.928-1.72 1.392-3.192 1.392-1.008 0-1.824-.296-2.448-.888-.624-.592-.936-1.4-.936-2.424 0-1.136.368-2 1.104-2.592.736-.608 1.68-.912 2.832-.912.992 0 1.808.232 2.448.696.032-.944-.104-1.64-.408-2.088-.304-.464-.84-.696-1.608-.696-.8 0-1.744.248-2.832.744zm2.76 5.832c.928 0 1.624-.328 2.088-.984v-1.104c-.464-.352-1.096-.528-1.896-.528-.496 0-.912.12-1.248.36-.32.224-.48.552-.48.984 0 .4.144.712.432.936.288.224.656.336 1.104.336zm-147.232 33.56l1.296 2.016c-.448.608-1.056 1.072-1.824 1.392-.752.32-1.576.48-2.472.48-1.76 0-3.176-.52-4.248-1.56s-1.608-2.408-1.608-4.104c0-1.6.528-2.944 1.584-4.032s2.392-1.632 4.008-1.632c1.92 0 3.368.488 4.344 1.464l-1.296 2.184c-.72-.704-1.616-1.056-2.688-1.056-.8 0-1.504.288-2.112.864-.592.56-.888 1.296-.888 2.208 0 .928.304 1.68.912 2.256.624.56 1.36.84 2.208.84 1.056 0 1.984-.44 2.784-1.32zm3.511 3.624v-10.8h2.496l3.672 4.512 3.48-4.512h2.424V399h-2.76v-6.6l-3.192 4.032h-.072l-3.288-4.032v6.6h-2.76zm23.613-3.024l.792 1.944c-1.056.896-2.432 1.344-4.128 1.344-1.744 0-3.152-.52-4.224-1.56-1.056-1.04-1.584-2.408-1.584-4.104 0-1.616.52-2.96 1.56-4.032 1.04-1.088 2.424-1.632 4.152-1.632 1.424 0 2.632.472 3.624 1.416.992.928 1.488 2.128 1.488 3.6 0 .608-.056 1.104-.168 1.488h-7.8c.112.8.464 1.424 1.056 1.872.592.432 1.32.648 2.184.648 1.216 0 2.232-.328 3.048-.984zm-3.552-5.736c-1.568 0-2.512.784-2.832 2.352h5.304c.016-.672-.2-1.232-.648-1.68-.448-.448-1.056-.672-1.824-.672zM731.36 399v-4.128h-4.728V399h-2.76v-10.8h2.76v4.08h4.728v-4.08h2.76V399h-2.76zm8.584 0h-2.76v-10.8h2.76v6.84l5.04-6.84h2.76V399h-2.76v-6.84l-5.04 6.84zm17.985 0v-8.04h-2.856l-.072 1.152c-.176 1.936-.472 3.424-.888 4.464-.4 1.04-.912 1.744-1.536 2.112-.608.352-1.424.528-2.448.528l-.24-2.688a1.4 1.4 0 00.984-.288c.32-.24.624-.752.912-1.536.288-.8.472-1.848.552-3.144l.168-3.36h8.184V399h-2.76zm14.018-3.624l1.296 2.016c-.448.608-1.056 1.072-1.824 1.392-.752.32-1.576.48-2.472.48-1.76 0-3.176-.52-4.248-1.56s-1.608-2.408-1.608-4.104c0-1.6.528-2.944 1.584-4.032s2.392-1.632 4.008-1.632c1.92 0 3.368.488 4.344 1.464l-1.296 2.184c-.72-.704-1.616-1.056-2.688-1.056-.8 0-1.504.288-2.112.864-.592.56-.888 1.296-.888 2.208 0 .928.304 1.68.912 2.256.624.56 1.36.84 2.208.84 1.056 0 1.984-.44 2.784-1.32zm8.322-7.176h3.528V399h-2.76v-3.24h-1.536l-2.232 3.24h-3.168l2.88-3.84c-.544-.192-1.032-.552-1.464-1.08-.416-.544-.624-1.224-.624-2.04 0-1.136.432-2.056 1.296-2.76.88-.72 2.24-1.08 4.08-1.08zm-2.424 4.032c0 .432.176.792.528 1.08.368.272.776.408 1.224.408h1.44v-3.12h-1.224c-.624 0-1.112.16-1.464.48-.336.32-.504.704-.504 1.152zm22.297 3.144l1.296 2.016c-.448.608-1.056 1.072-1.824 1.392-.752.32-1.576.48-2.472.48-1.76 0-3.176-.52-4.248-1.56s-1.608-2.408-1.608-4.104c0-1.6.528-2.944 1.584-4.032s2.392-1.632 4.008-1.632c1.92 0 3.368.488 4.344 1.464l-1.296 2.184c-.72-.704-1.616-1.056-2.688-1.056-.8 0-1.504.288-2.112.864-.592.56-.888 1.296-.888 2.208 0 .928.304 1.68.912 2.256.624.56 1.36.84 2.208.84 1.056 0 1.984-.44 2.784-1.32zm2.172-4.416v-2.76h9.84v2.76h-3.528V399h-2.76v-8.04h-3.552zm12.656.024l-.696-2.016a7.385 7.385 0 013.816-1.032c1.536 0 2.64.376 3.312 1.128.672.752 1.008 1.872 1.008 3.36V399h-2.4v-1.248c-.656.928-1.72 1.392-3.192 1.392-1.008 0-1.824-.296-2.448-.888-.624-.592-.936-1.4-.936-2.424 0-1.136.368-2 1.104-2.592.736-.608 1.68-.912 2.832-.912.992 0 1.808.232 2.448.696.032-.944-.104-1.64-.408-2.088-.304-.464-.84-.696-1.608-.696-.8 0-1.744.248-2.832.744zm2.76 5.832c.928 0 1.624-.328 2.088-.984v-1.104c-.464-.352-1.096-.528-1.896-.528-.496 0-.912.12-1.248.36-.32.224-.48.552-.48.984 0 .4.144.712.432.936.288.224.656.336 1.104.336zm6.381-5.856v-2.76h9.84v2.76h-3.528V399h-2.76v-8.04h-3.552zm22.372-2.76l-4.248 10.8c-.768 1.872-1.456 3.136-2.064 3.792-.592.672-1.296 1.008-2.112 1.008-.784 0-1.56-.28-2.328-.84l.888-2.088c.432.256.808.384 1.128.384.656 0 1.208-.56 1.656-1.68l.24-.576-4.992-10.8h3.312l2.52 5.904c.096.24.272.76.528 1.56.128-.704.256-1.232.384-1.584l1.944-5.88h3.144zm9.417 7.176l1.296 2.016c-.448.608-1.056 1.072-1.824 1.392-.752.32-1.576.48-2.472.48-1.76 0-3.176-.52-4.248-1.56s-1.608-2.408-1.608-4.104c0-1.6.528-2.944 1.584-4.032s2.392-1.632 4.008-1.632c1.92 0 3.368.488 4.344 1.464l-1.296 2.184c-.72-.704-1.616-1.056-2.688-1.056-.8 0-1.504.288-2.112.864-.592.56-.888 1.296-.888 2.208 0 .928.304 1.68.912 2.256.624.56 1.36.84 2.208.84 1.056 0 1.984-.44 2.784-1.32z" fill="#fff"/><rect x="598.5" y="314.5" width="344" height="121" rx="6.5" stroke="#E4002B" stroke-width="3"/><path d="M771 303l5.774-10h-11.548L771 303zm-1-45v36h2v-36h-2zm519 45l5.77-10h-11.54l5.77 10zm-1-45v36h2v-36h-2z" fill="#C5CDCF"/><path d="M1213.7 363.976v-16.728c1.56-.08 3.18-.12 4.84-.12 1.91 0 3.3.384 4.18 1.152.9.752 1.34 1.752 1.34 3 0 1.792-.8 3.064-2.4 3.816v.048c.88.224 1.6.664 2.14 1.32s.82 1.52.82 2.592c0 1.664-.58 2.92-1.73 3.768-1.14.848-2.64 1.272-4.51 1.272-2.04 0-3.6-.04-4.68-.12zm5.04-7.2h-2.09v4.44c.67.08 1.32.12 1.94.12 2.05 0 3.07-.808 3.07-2.424 0-.704-.25-1.232-.76-1.584-.52-.368-1.24-.552-2.16-.552zm-.24-6.888c-.71 0-1.32.024-1.85.072v4.248h1.99c.74 0 1.34-.184 1.8-.552.46-.384.7-.944.7-1.68 0-.672-.24-1.184-.72-1.536-.47-.368-1.11-.552-1.92-.552zM1236.19 364h-2.6v-16.8h2.96v11.952l8.8-11.952h2.6V364h-2.96v-11.928l-8.8 11.928zm16.41 0v-16.8h2.98l5.73 7.848 5.48-7.848h2.78V364h-2.93v-12.144l-5.3 7.464h-.43l-5.36-7.392V364h-2.95zm36.34-10.8l-4.24 10.8c-.77 1.872-1.46 3.136-2.07 3.792-.59.672-1.29 1.008-2.11 1.008-.78 0-1.56-.28-2.33-.84l.89-2.088c.43.256.81.384 1.13.384.65 0 1.21-.56 1.65-1.68l.24-.576-4.99-10.8h3.31l2.52 5.904c.1.24.28.76.53 1.56.13-.704.26-1.232.39-1.584l1.94-5.88h3.14zm5.62 2.76v-2.76h9.84v2.76h-3.53V364h-2.76v-8.04h-3.55zm12.42 6.72c-1.07-1.072-1.61-2.432-1.61-4.08 0-1.648.54-3 1.61-4.056 1.09-1.072 2.51-1.608 4.27-1.608 1.76 0 3.18.536 4.25 1.608 1.09 1.056 1.63 2.408 1.63 4.056 0 1.648-.54 3.008-1.63 4.08-1.07 1.056-2.49 1.584-4.25 1.584-1.76 0-3.18-.528-4.27-1.584zm1.34-4.08c0 .896.28 1.64.82 2.232.56.576 1.26.864 2.11.864.87 0 1.57-.28 2.11-.84.56-.576.84-1.328.84-2.256 0-.896-.28-1.632-.84-2.208-.56-.576-1.26-.864-2.11-.864-.83 0-1.53.288-2.09.864-.56.56-.84 1.296-.84 2.208zm11.2 5.4v-10.8c.19 0 .54-.008 1.06-.024a55.806 55.806 0 013.19-.096c3.26 0 4.89.944 4.89 2.832 0 .624-.2 1.16-.6 1.608-.38.448-.85.712-1.41.792v.048c1.53.368 2.3 1.2 2.3 2.496 0 2.176-1.71 3.264-5.13 3.264a55.3 55.3 0 01-2.28-.072 87.298 87.298 0 00-2.02-.048zm4.49-4.584h-1.73v2.4c1.09.064 1.7.096 1.82.096.61 0 1.08-.112 1.42-.336.35-.224.53-.528.53-.912 0-.832-.68-1.248-2.04-1.248zm0-4.104c-.77 0-1.35.016-1.73.048v2.376h1.8c.48 0 .87-.104 1.18-.312.32-.224.48-.536.48-.936 0-.784-.58-1.176-1.73-1.176zm8.4.672l-.7-2.016a7.394 7.394 0 013.82-1.032c1.53 0 2.64.376 3.31 1.128.67.752 1.01 1.872 1.01 3.36V364h-2.4v-1.248c-.66.928-1.72 1.392-3.19 1.392-1.01 0-1.83-.296-2.45-.888-.63-.592-.94-1.4-.94-2.424 0-1.136.37-2 1.11-2.592.73-.608 1.68-.912 2.83-.912.99 0 1.81.232 2.45.696.03-.944-.11-1.64-.41-2.088-.31-.464-.84-.696-1.61-.696-.8 0-1.74.248-2.83.744zm2.76 5.832c.93 0 1.62-.328 2.09-.984v-1.104c-.47-.352-1.1-.528-1.9-.528-.5 0-.91.12-1.25.36-.32.224-.48.552-.48.984 0 .4.15.712.43.936.29.224.66.336 1.11.336zm7.51 6.984v-15.6h2.76v1.032c.35-.368.82-.672 1.41-.912a4.912 4.912 0 011.92-.384c1.47 0 2.66.512 3.55 1.536.9 1.024 1.35 2.344 1.35 3.96 0 1.68-.53 3.072-1.59 4.176-1.05 1.104-2.43 1.656-4.12 1.656-1.08 0-1.92-.176-2.52-.528v5.064h-2.76zm5.23-13.272c-.95 0-1.77.392-2.47 1.176v4.368c.64.416 1.4.624 2.28.624.92 0 1.66-.296 2.2-.888.55-.608.82-1.376.82-2.304 0-.88-.25-1.592-.74-2.136-.5-.56-1.2-.84-2.09-.84zm8.99.456l-.7-2.016a7.394 7.394 0 013.82-1.032c1.54 0 2.64.376 3.31 1.128.67.752 1.01 1.872 1.01 3.36V364h-2.4v-1.248c-.66.928-1.72 1.392-3.19 1.392-1.01 0-1.83-.296-2.45-.888-.62-.592-.94-1.4-.94-2.424 0-1.136.37-2 1.11-2.592.73-.608 1.68-.912 2.83-.912.99 0 1.81.232 2.45.696.03-.944-.11-1.64-.41-2.088-.3-.464-.84-.696-1.61-.696-.8 0-1.74.248-2.83.744zm2.76 5.832c.93 0 1.62-.328 2.09-.984v-1.104c-.47-.352-1.1-.528-1.9-.528-.49 0-.91.12-1.25.36-.32.224-.48.552-.48.984 0 .4.15.712.44.936.28.224.65.336 1.1.336zm-197.03 35.864c-1.07-1.072-1.61-2.432-1.61-4.08 0-1.648.54-3 1.61-4.056 1.09-1.072 2.51-1.608 4.27-1.608 1.76 0 3.18.536 4.25 1.608 1.09 1.056 1.63 2.408 1.63 4.056 0 1.648-.54 3.008-1.63 4.08-1.07 1.056-2.49 1.584-4.25 1.584-1.76 0-3.18-.528-4.27-1.584zm1.34-4.08c0 .896.27 1.64.82 2.232.56.576 1.26.864 2.11.864.86 0 1.57-.28 2.11-.84.56-.576.84-1.328.84-2.256 0-.896-.28-1.632-.84-2.208-.56-.576-1.26-.864-2.11-.864-.83 0-1.53.288-2.09.864-.56.56-.84 1.296-.84 2.208zm19.31-11.664l1.44 2.256c-.42.496-.9.848-1.44 1.056-.54.192-1.18.368-1.92.528-.72.144-1.34.344-1.87.6-1.35.624-2.12 1.968-2.33 4.032h.05c.33-.592.85-1.072 1.56-1.44.7-.384 1.45-.576 2.23-.576 1.49 0 2.68.48 3.58 1.44.89.96 1.34 2.248 1.34 3.864 0 1.552-.53 2.872-1.58 3.96-1.06 1.072-2.42 1.608-4.08 1.608-1.81 0-3.24-.616-4.3-1.848-1.04-1.232-1.56-2.896-1.56-4.992 0-4.624 1.36-7.52 4.08-8.688a9.328 9.328 0 011.97-.576 14.2 14.2 0 001.68-.432c.43-.144.81-.408 1.15-.792zM1177.35 393c.02 1.072.28 1.96.79 2.664.52.688 1.2 1.032 2.04 1.032.85 0 1.52-.272 2.02-.816.51-.56.77-1.248.77-2.064 0-.832-.23-1.512-.7-2.04-.46-.544-1.12-.816-1.97-.816-.73 0-1.36.192-1.89.576-.51.384-.87.872-1.06 1.464zm18.46 6v-4.128h-4.73V399h-2.76v-10.8h2.76v4.08h4.73v-4.08h2.76V399h-2.76zm6.76-1.32c-1.08-1.072-1.61-2.432-1.61-4.08 0-1.648.53-3 1.61-4.056 1.08-1.072 2.51-1.608 4.27-1.608 1.76 0 3.17.536 4.25 1.608 1.08 1.056 1.63 2.408 1.63 4.056 0 1.648-.55 3.008-1.63 4.08-1.08 1.056-2.49 1.584-4.25 1.584-1.76 0-3.19-.528-4.27-1.584zm1.34-4.08c0 .896.27 1.64.82 2.232.56.576 1.26.864 2.11.864.86 0 1.57-.28 2.11-.84.56-.576.84-1.328.84-2.256 0-.896-.28-1.632-.84-2.208-.56-.576-1.26-.864-2.11-.864-.83 0-1.53.288-2.09.864-.56.56-.84 1.296-.84 2.208zm11.2 5.4v-10.8c.19 0 .54-.008 1.05-.024a52.694 52.694 0 013.19-.096c3.27 0 4.9.944 4.9 2.832 0 .624-.2 1.16-.6 1.608a2.23 2.23 0 01-1.42.792v.048c1.54.368 2.31 1.2 2.31 2.496 0 2.176-1.71 3.264-5.14 3.264a55.3 55.3 0 01-2.28-.072 86.893 86.893 0 00-2.01-.048zm4.48-4.584h-1.72v2.4c1.08.064 1.69.096 1.82.096.61 0 1.08-.112 1.42-.336.35-.224.52-.528.52-.912 0-.832-.68-1.248-2.04-1.248zm0-4.104c-.76 0-1.34.016-1.72.048v2.376h1.8c.48 0 .87-.104 1.17-.312.32-.224.48-.536.48-.936 0-.784-.57-1.176-1.73-1.176zm10.32 8.688h-2.76v-10.8h2.76v6.84l5.04-6.84h2.76V399h-2.76v-6.84l-5.04 6.84zm17.99 0v-8.04h-2.86l-.07 1.152c-.18 1.936-.47 3.424-.89 4.464-.4 1.04-.91 1.744-1.53 2.112-.61.352-1.43.528-2.45.528l-.24-2.688c.35.032.68-.064.98-.288.32-.24.63-.752.91-1.536.29-.8.48-1.848.56-3.144l.16-3.36h8.19V399h-2.76zm6.77-1.32c-1.07-1.072-1.61-2.432-1.61-4.08 0-1.648.54-3 1.61-4.056 1.09-1.072 2.51-1.608 4.27-1.608 1.76 0 3.18.536 4.25 1.608 1.09 1.056 1.63 2.408 1.63 4.056 0 1.648-.54 3.008-1.63 4.08-1.07 1.056-2.49 1.584-4.25 1.584-1.76 0-3.18-.528-4.27-1.584zm1.34-4.08c0 .896.27 1.64.82 2.232.56.576 1.26.864 2.11.864.86 0 1.57-.28 2.11-.84.56-.576.84-1.328.84-2.256 0-.896-.28-1.632-.84-2.208-.56-.576-1.26-.864-2.11-.864-.83 0-1.53.288-2.09.864-.56.56-.84 1.296-.84 2.208zm19.38 1.776l1.3 2.016c-.45.608-1.06 1.072-1.83 1.392-.75.32-1.57.48-2.47.48-1.76 0-3.17-.52-4.25-1.56-1.07-1.04-1.6-2.408-1.6-4.104 0-1.6.52-2.944 1.58-4.032s2.39-1.632 4.01-1.632c1.92 0 3.37.488 4.34 1.464l-1.29 2.184c-.72-.704-1.62-1.056-2.69-1.056-.8 0-1.51.288-2.11.864-.6.56-.89 1.296-.89 2.208 0 .928.3 1.68.91 2.256.62.56 1.36.84 2.21.84 1.05 0 1.98-.44 2.78-1.32zm3.51 3.624v-10.8h2.76v2.952h1.49c1.7 0 2.91.352 3.65 1.056.74.704 1.1 1.6 1.1 2.688 0 1.168-.4 2.144-1.2 2.928-.8.784-2.05 1.176-3.76 1.176h-4.04zm4.01-5.64h-1.25v3.24h1.23c1.39 0 2.09-.536 2.09-1.608 0-1.088-.69-1.632-2.07-1.632zm22.51-5.16l-4.16 5.136 4.66 5.664h-3.6l-4.27-5.448 3.89-5.352h3.48zm-10.23 10.8v-10.8h2.76V399h-2.76zm12.63-1.32c-1.07-1.072-1.6-2.432-1.6-4.08 0-1.648.53-3 1.6-4.056 1.09-1.072 2.52-1.608 4.28-1.608 1.76 0 3.17.536 4.24 1.608 1.09 1.056 1.64 2.408 1.64 4.056 0 1.648-.55 3.008-1.64 4.08-1.07 1.056-2.48 1.584-4.24 1.584-1.76 0-3.19-.528-4.28-1.584zm1.35-4.08c0 .896.27 1.64.81 2.232.56.576 1.27.864 2.12.864.86 0 1.56-.28 2.11-.84.56-.576.84-1.328.84-2.256 0-.896-.28-1.632-.84-2.208-.56-.576-1.27-.864-2.11-.864-.84 0-1.53.288-2.09.864-.56.56-.84 1.296-.84 2.208zm17.95 5.4v-8.04h-2.86l-.07 1.152c-.18 1.936-.47 3.424-.89 4.464-.4 1.04-.91 1.744-1.54 2.112-.6.352-1.42.528-2.44.528l-.24-2.688c.35.032.68-.064.98-.288.32-.24.62-.752.91-1.536.29-.8.47-1.848.55-3.144l.17-3.36h8.19V399h-2.76zm8.59 0h-2.76v-10.8h2.76v6.84l5.04-6.84h2.76V399h-2.76v-6.84l-5.04 6.84zm19.59-10.8V399h-2.76v-3.72c-.78.416-1.68.624-2.69.624-1.36 0-2.35-.352-2.97-1.056-.63-.72-.94-1.784-.94-3.192V388.2h2.95v3.12c0 1.328.59 1.992 1.76 1.992.76 0 1.4-.144 1.89-.432v-4.68h2.76zm11.55 7.776l.79 1.944c-1.05.896-2.43 1.344-4.12 1.344-1.75 0-3.16-.52-4.23-1.56-1.05-1.04-1.58-2.408-1.58-4.104 0-1.616.52-2.96 1.56-4.032 1.04-1.088 2.42-1.632 4.15-1.632 1.42 0 2.63.472 3.62 1.416 1 .928 1.49 2.128 1.49 3.6 0 .608-.05 1.104-.17 1.488h-7.8c.12.8.47 1.424 1.06 1.872.59.432 1.32.648 2.18.648 1.22 0 2.24-.328 3.05-.984zm-3.55-5.736c-1.57 0-2.51.784-2.83 2.352h5.3c.02-.672-.2-1.232-.65-1.68-.44-.448-1.05-.672-1.82-.672zm15.57 5.136l1.29 2.016c-.44.608-1.05 1.072-1.82 1.392-.75.32-1.58.48-2.47.48-1.76 0-3.18-.52-4.25-1.56-1.07-1.04-1.61-2.408-1.61-4.104 0-1.6.53-2.944 1.59-4.032 1.05-1.088 2.39-1.632 4-1.632 1.92 0 3.37.488 4.35 1.464l-1.3 2.184c-.72-.704-1.61-1.056-2.69-1.056-.8 0-1.5.288-2.11.864-.59.56-.89 1.296-.89 2.208 0 .928.31 1.68.92 2.256.62.56 1.36.84 2.2.84 1.06 0 1.99-.44 2.79-1.32zm2.17-4.416v-2.76h9.84v2.76h-3.53V399h-2.76v-8.04h-3.55zm11.82 8.04v-10.8c.19 0 .54-.008 1.05-.024a52.694 52.694 0 013.19-.096c3.27 0 4.9.944 4.9 2.832 0 .624-.2 1.16-.6 1.608a2.23 2.23 0 01-1.42.792v.048c1.54.368 2.31 1.2 2.31 2.496 0 2.176-1.71 3.264-5.14 3.264a55.3 55.3 0 01-2.28-.072 86.893 86.893 0 00-2.01-.048zm4.48-4.584h-1.72v2.4c1.08.064 1.69.096 1.82.096.61 0 1.08-.112 1.42-.336.35-.224.52-.528.52-.912 0-.832-.68-1.248-2.04-1.248zm0-4.104c-.76 0-1.34.016-1.72.048v2.376h1.8c.48 0 .87-.104 1.17-.312.32-.224.48-.536.48-.936 0-.784-.57-1.176-1.73-1.176zm8.5 7.368c-1.07-1.072-1.61-2.432-1.61-4.08 0-1.648.54-3 1.61-4.056 1.09-1.072 2.51-1.608 4.27-1.608 1.76 0 3.18.536 4.25 1.608 1.09 1.056 1.63 2.408 1.63 4.056 0 1.648-.54 3.008-1.63 4.08-1.07 1.056-2.49 1.584-4.25 1.584-1.76 0-3.18-.528-4.27-1.584zm1.34-4.08c0 .896.28 1.64.82 2.232.56.576 1.26.864 2.11.864.87 0 1.57-.28 2.11-.84.56-.576.84-1.328.84-2.256 0-.896-.28-1.632-.84-2.208-.56-.576-1.26-.864-2.11-.864-.83 0-1.53.288-2.09.864-.56.56-.84 1.296-.84 2.208z" fill="#fff"/><rect x="1116.5" y="314.5" width="344" height="121" rx="6.5" stroke="#E4002B" stroke-width="3"/><path d="M1163.89 196.368l4.29-3.216h2V210h-2.76v-12.912l-2.07 1.56-1.46-2.28zm22.79 9.792l1.13 2.208c-.53.56-1.29 1.016-2.28 1.368-.98.352-2.01.528-3.1.528-2.57 0-4.66-.792-6.26-2.376-1.6-1.584-2.4-3.68-2.4-6.288 0-2.512.76-4.584 2.28-6.216 1.52-1.632 3.62-2.448 6.31-2.448 2.16 0 3.86.568 5.11 1.704l-1.32 2.184c-1.13-.752-2.4-1.128-3.79-1.128-1.58 0-2.9.536-3.94 1.608-1.02 1.072-1.53 2.504-1.53 4.296 0 1.744.53 3.168 1.61 4.272 1.08 1.088 2.48 1.632 4.2 1.632 1.48 0 2.81-.448 3.98-1.344zm18.77-6.96l-4.25 10.8c-.76 1.872-1.45 3.136-2.06 3.792-.59.672-1.3 1.008-2.11 1.008-.79 0-1.56-.28-2.33-.84l.89-2.088c.43.256.81.384 1.13.384.65 0 1.2-.56 1.65-1.68l.24-.576-4.99-10.8h3.31l2.52 5.904c.1.24.27.76.53 1.56.13-.704.26-1.232.38-1.584l1.95-5.88h3.14zm1.66 10.8v-10.8h2.49l3.67 4.512 3.48-4.512h2.43V210h-2.76v-6.6l-3.19 4.032h-.08l-3.28-4.032v6.6h-2.76zm23.61-3.024l.79 1.944c-1.06.896-2.43 1.344-4.13 1.344-1.74 0-3.15-.52-4.22-1.56-1.06-1.04-1.59-2.408-1.59-4.104 0-1.616.52-2.96 1.56-4.032 1.04-1.088 2.43-1.632 4.16-1.632 1.42 0 2.63.472 3.62 1.416.99.928 1.49 2.128 1.49 3.6 0 .608-.06 1.104-.17 1.488h-7.8c.11.8.46 1.424 1.06 1.872.59.432 1.32.648 2.18.648 1.22 0 2.23-.328 3.05-.984zm-3.55-5.736c-1.57 0-2.52.784-2.84 2.352h5.31c.01-.672-.2-1.232-.65-1.68-.45-.448-1.06-.672-1.82-.672zm14.94 8.76v-4.128h-4.73V210h-2.76v-10.8h2.76v4.08h4.73v-4.08h2.76V210h-2.76zm5.82 0v-10.8h2.76v2.952h1.49c1.7 0 2.91.352 3.65 1.056.74.704 1.1 1.6 1.1 2.688 0 1.168-.4 2.144-1.2 2.928-.8.784-2.05 1.176-3.76 1.176h-4.04zm4.01-5.64h-1.25v3.24h1.23c1.39 0 2.09-.536 2.09-1.608 0-1.088-.69-1.632-2.07-1.632zm7.2 5.64v-10.8h2.76v8.232h3.05V199.2h2.76v8.232h3.07V199.2h2.76V210h-14.4zm20.22 0h-2.76v-10.8h2.76v6.84l5.04-6.84h2.76V210h-2.76v-6.84l-5.04 6.84zm17.98 0v-8.04h-2.85l-.07 1.152c-.18 1.936-.48 3.424-.89 4.464-.4 1.04-.91 1.744-1.54 2.112-.61.352-1.42.528-2.45.528l-.24-2.688c.36.032.68-.064.99-.288.32-.24.62-.752.91-1.536.29-.8.47-1.848.55-3.144l.17-3.36h8.18V210h-2.76zm6.77-1.32c-1.07-1.072-1.61-2.432-1.61-4.08 0-1.648.54-3 1.61-4.056 1.09-1.072 2.51-1.608 4.27-1.608 1.76 0 3.18.536 4.25 1.608 1.09 1.056 1.63 2.408 1.63 4.056 0 1.648-.54 3.008-1.63 4.08-1.07 1.056-2.49 1.584-4.25 1.584-1.76 0-3.18-.528-4.27-1.584zm1.35-4.08c0 .896.27 1.64.81 2.232.56.576 1.27.864 2.11.864.87 0 1.57-.28 2.12-.84.56-.576.84-1.328.84-2.256 0-.896-.28-1.632-.84-2.208-.56-.576-1.27-.864-2.12-.864-.83 0-1.52.288-2.08.864-.56.56-.84 1.296-.84 2.208zm17.22 4.08c-1.08-1.072-1.61-2.432-1.61-4.08 0-1.648.53-3 1.61-4.056 1.08-1.072 2.51-1.608 4.27-1.608 1.76 0 3.17.536 4.25 1.608 1.08 1.056 1.63 2.408 1.63 4.056 0 1.648-.55 3.008-1.63 4.08-1.08 1.056-2.49 1.584-4.25 1.584-1.76 0-3.19-.528-4.27-1.584zm1.34-4.08c0 .896.27 1.64.82 2.232.56.576 1.26.864 2.11.864.86 0 1.57-.28 2.11-.84.56-.576.84-1.328.84-2.256 0-.896-.28-1.632-.84-2.208-.56-.576-1.26-.864-2.11-.864-.83 0-1.53.288-2.09.864-.56.56-.84 1.296-.84 2.208zm19.38 1.776l1.3 2.016c-.45.608-1.06 1.072-1.83 1.392-.75.32-1.57.48-2.47.48-1.76 0-3.18-.52-4.25-1.56-1.07-1.04-1.61-2.408-1.61-4.104 0-1.6.53-2.944 1.59-4.032 1.05-1.088 2.39-1.632 4.01-1.632 1.92 0 3.36.488 4.34 1.464l-1.3 2.184c-.72-.704-1.61-1.056-2.68-1.056-.8 0-1.51.288-2.12.864-.59.56-.88 1.296-.88 2.208 0 .928.3 1.68.91 2.256.62.56 1.36.84 2.21.84 1.05 0 1.98-.44 2.78-1.32zm2.17-4.416v-2.76h9.84v2.76h-3.53V210h-2.76v-8.04h-3.55zm12.66.024l-.7-2.016a7.394 7.394 0 013.82-1.032c1.53 0 2.64.376 3.31 1.128.67.752 1.01 1.872 1.01 3.36V210h-2.4v-1.248c-.66.928-1.72 1.392-3.19 1.392-1.01 0-1.83-.296-2.45-.888-.63-.592-.94-1.4-.94-2.424 0-1.136.37-2 1.11-2.592.73-.608 1.68-.912 2.83-.912.99 0 1.81.232 2.45.696.03-.944-.11-1.64-.41-2.088-.31-.464-.84-.696-1.61-.696-.8 0-1.74.248-2.83.744zm2.76 5.832c.93 0 1.62-.328 2.09-.984v-1.104c-.47-.352-1.1-.528-1.9-.528-.5 0-.91.12-1.25.36-.32.224-.48.552-.48.984 0 .4.15.712.43.936.29.224.66.336 1.11.336zm6.38-5.856v-2.76h9.84v2.76h-3.53V210h-2.76v-8.04h-3.55zm22.04-2.76l-4.15 5.136 4.65 5.664h-3.6l-4.27-5.448 3.89-5.352h3.48zm-10.23 10.8v-10.8h2.76V210h-2.76zm15.12 0h-2.76v-10.8h2.76v6.84l5.04-6.84h2.76V210h-2.76v-6.84l-5.04 6.84z" fill="#fff"/><rect x="1116.5" y="160.5" width="344" height="86" rx="6.5" stroke="#E4002B" stroke-width="3"/><path d="M174 149l5.774-10h-11.548L174 149zm-1-50v41h2V99h-2zm1 209l5.774-10h-11.548L174 308zm-1-50v41h2v-41h-2zm410.5-56.002l-9.864-6.003-.267 11.544 10.131-5.541zM357.958 364.284c18.085-60.066 44.123-100.761 79.609-126.277 35.488-25.517 80.56-35.951 136.912-35.217l.026-2c-56.598-.737-102.147 9.738-138.106 35.593-35.96 25.857-62.193 67-80.357 127.325l1.916.576zM1105 204l-10-5.773v11.547l10-5.774zm-151 1h142v-2H954v2z" fill="#C5CDCF"/></svg>