<svg width="300" height="435" viewBox="0 0 300 435" fill="none" xmlns="http://www.w3.org/2000/svg"><path d="M118.151 44.264c-1.36 0-2.536-.272-3.528-.816-.976-.56-1.72-1.232-2.232-2.016l1.608-1.992a6.413 6.413 0 001.896 1.488c.736.384 1.44.576 2.112.576.88 0 1.616-.208 2.208-.624.592-.432.888-1.056.888-1.872 0-.672-.256-1.208-.768-1.608-.512-.4-1.248-.6-2.208-.6h-1.728v-2.76h1.632c.656 0 1.224-.2 1.704-.6.48-.4.72-.936.72-1.608 0-.688-.224-1.216-.672-1.584-.448-.368-1.04-.552-1.776-.552-1.36 0-2.496.608-3.408 1.824l-1.704-1.968c.56-.784 1.328-1.416 2.304-1.896a7.028 7.028 0 013.144-.72c1.52 0 2.736.408 3.648 1.224.928.8 1.392 1.928 1.392 3.384 0 .688-.192 1.368-.576 2.04-.384.672-.944 1.224-1.68 1.656v.072c.976.24 1.704.712 2.184 1.416.48.704.72 1.56.72 2.568 0 1.488-.584 2.688-1.752 3.6-1.152.912-2.528 1.368-4.128 1.368zm9.815-8.28l-.696-2.016a7.385 7.385 0 013.816-1.032c1.536 0 2.64.376 3.312 1.128.672.752 1.008 1.872 1.008 3.36V44h-2.4v-1.248c-.656.928-1.72 1.392-3.192 1.392-1.008 0-1.824-.296-2.448-.888-.624-.592-.936-1.4-.936-2.424 0-1.136.368-2 1.104-2.592.736-.608 1.68-.912 2.832-.912.992 0 1.808.232 2.448.696.032-.944-.104-1.64-.408-2.088-.304-.464-.84-.696-1.608-.696-.8 0-1.744.248-2.832.744zm2.76 5.832c.928 0 1.624-.328 2.088-.984v-1.104c-.464-.352-1.096-.528-1.896-.528-.496 0-.912.12-1.248.36-.32.224-.48.552-.48.984 0 .4.144.712.432.936.288.224.656.336 1.104.336zM145.603 44v-8.208h-4.608V44h-2.76V33.2h10.128V44h-2.76zm5.828 4.8V33.2h2.76v1.032c.352-.368.824-.672 1.416-.912a4.898 4.898 0 011.92-.384c1.472 0 2.656.512 3.552 1.536.896 1.024 1.344 2.344 1.344 3.96 0 1.68-.528 3.072-1.584 4.176s-2.432 1.656-4.128 1.656c-1.072 0-1.912-.176-2.52-.528V48.8h-2.76zm5.232-13.272c-.944 0-1.768.392-2.472 1.176v4.368c.64.416 1.4.624 2.28.624.928 0 1.664-.296 2.208-.888.544-.608.816-1.376.816-2.304 0-.88-.248-1.592-.744-2.136-.496-.56-1.192-.84-2.088-.84zm9.086 7.152c-1.072-1.072-1.608-2.432-1.608-4.08 0-1.648.536-3 1.608-4.056 1.088-1.072 2.512-1.608 4.272-1.608 1.76 0 3.176.536 4.248 1.608 1.088 1.056 1.632 2.408 1.632 4.056 0 1.648-.544 3.008-1.632 4.08-1.072 1.056-2.488 1.584-4.248 1.584-1.76 0-3.184-.528-4.272-1.584zm1.344-4.08c0 .896.272 1.64.816 2.232.56.576 1.264.864 2.112.864.864 0 1.568-.28 2.112-.84.56-.576.84-1.328.84-2.256 0-.896-.28-1.632-.84-2.208-.56-.576-1.264-.864-2.112-.864-.832 0-1.528.288-2.088.864-.56.56-.84 1.296-.84 2.208zm19.381 1.776l1.296 2.016c-.448.608-1.056 1.072-1.824 1.392-.752.32-1.576.48-2.472.48-1.76 0-3.176-.52-4.248-1.56s-1.608-2.408-1.608-4.104c0-1.6.528-2.944 1.584-4.032s2.392-1.632 4.008-1.632c1.92 0 3.368.488 4.344 1.464l-1.296 2.184c-.72-.704-1.616-1.056-2.688-1.056-.8 0-1.504.288-2.112.864-.592.56-.888 1.296-.888 2.208 0 .928.304 1.68.912 2.256.624.56 1.36.84 2.208.84 1.056 0 1.984-.44 2.784-1.32z" fill="#141414"/><rect x="1.5" y="1.5" width="297" height="72" rx="6.5" stroke="#E4002B" stroke-width="3"/><path d="M150 135l5.774-10h-11.548L150 135zm-1-50v41h2V85h-2z" fill="#C5CDCF"/><path d="M35.867 188.976v-16.728c1.568-.08 3.184-.12 4.848-.12 1.904 0 3.296.384 4.176 1.152.896.752 1.344 1.752 1.344 3 0 1.792-.8 3.064-2.4 3.816v.048c.88.224 1.592.664 2.136 1.32s.816 1.52.816 2.592c0 1.664-.576 2.92-1.728 3.768-1.136.848-2.64 1.272-4.512 1.272-2.032 0-3.592-.04-4.68-.12zm5.04-7.2H38.82v4.44c.672.08 1.32.12 1.944.12 2.048 0 3.072-.808 3.072-2.424 0-.704-.256-1.232-.768-1.584-.512-.368-1.232-.552-2.16-.552zm-.24-6.888c-.704 0-1.32.024-1.848.072v4.248h1.992c.736 0 1.336-.184 1.8-.552.464-.384.696-.944.696-1.68 0-.672-.24-1.184-.72-1.536-.464-.368-1.104-.552-1.92-.552zm10.06 6.096l-.695-2.016a7.385 7.385 0 013.816-1.032c1.536 0 2.64.376 3.312 1.128.672.752 1.008 1.872 1.008 3.36V189h-2.4v-1.248c-.656.928-1.72 1.392-3.192 1.392-1.008 0-1.824-.296-2.448-.888-.624-.592-.936-1.4-.936-2.424 0-1.136.368-2 1.104-2.592.736-.608 1.68-.912 2.832-.912.992 0 1.808.232 2.448.696.032-.944-.104-1.64-.408-2.088-.304-.464-.84-.696-1.608-.696-.8 0-1.744.248-2.832.744zm2.76 5.832c.929 0 1.625-.328 2.089-.984v-1.104c-.464-.352-1.096-.528-1.896-.528-.496 0-.912.12-1.248.36-.32.224-.48.552-.48.984 0 .4.144.712.432.936.288.224.656.336 1.104.336zM68.102 189v-8.04h-2.856l-.072 1.152c-.176 1.936-.472 3.424-.888 4.464-.4 1.04-.912 1.744-1.536 2.112-.608.352-1.424.528-2.448.528l-.24-2.688a1.4 1.4 0 00.984-.288c.32-.24.624-.752.912-1.536.288-.8.472-1.848.552-3.144l.168-3.36h8.184V189H68.1zm8.593 0h-2.76v-10.8h2.76v6.84l5.04-6.84h2.76V189h-2.76v-6.84l-5.04 6.84zm9.585 2.52v-5.088h1.368c.848-1.12 1.352-3 1.512-5.64l.168-2.592h7.968v8.232h1.8v5.088h-2.592V189h-7.656v2.52H86.28zm5.544-9.624c-.192 2.096-.624 3.608-1.296 4.536h4.008v-5.64h-2.64l-.072 1.104zm9.928-.912l-.696-2.016a7.385 7.385 0 013.816-1.032c1.536 0 2.64.376 3.312 1.128.672.752 1.008 1.872 1.008 3.36V189h-2.4v-1.248c-.656.928-1.72 1.392-3.192 1.392-1.008 0-1.824-.296-2.448-.888-.624-.592-.936-1.4-.936-2.424 0-1.136.368-2 1.104-2.592.736-.608 1.68-.912 2.832-.912.992 0 1.808.232 2.448.696.032-.944-.104-1.64-.408-2.088-.304-.464-.84-.696-1.608-.696-.8 0-1.744.248-2.832.744zm2.76 5.832c.928 0 1.624-.328 2.088-.984v-1.104c-.464-.352-1.096-.528-1.896-.528-.496 0-.912.12-1.248.36-.32.224-.48.552-.48.984 0 .4.144.712.432.936.288.224.656.336 1.104.336zM112.02 189v-10.8h2.76v8.232h4.44V178.2h2.76v8.232h1.8v5.088h-2.592V189h-9.168zm16.354 0h-2.76v-10.8h2.76v6.84l5.04-6.84h2.76V189h-2.76v-6.84l-5.04 6.84zm16.161-10.8h3.528V189h-2.76v-3.24h-1.536l-2.232 3.24h-3.168l2.88-3.84c-.544-.192-1.032-.552-1.464-1.08-.416-.544-.624-1.224-.624-2.04 0-1.136.432-2.056 1.296-2.76.88-.72 2.24-1.08 4.08-1.08zm-2.424 4.032c0 .432.176.792.528 1.08.368.272.776.408 1.224.408h1.44v-3.12h-1.224c-.624 0-1.112.16-1.464.48-.336.32-.504.704-.504 1.152zm14.905 6.744v-16.728c1.568-.08 3.184-.12 4.848-.12 1.904 0 3.296.384 4.176 1.152.896.752 1.344 1.752 1.344 3 0 1.792-.8 3.064-2.4 3.816v.048c.88.224 1.592.664 2.136 1.32s.816 1.52.816 2.592c0 1.664-.576 2.92-1.728 3.768-1.136.848-2.64 1.272-4.512 1.272-2.032 0-3.592-.04-4.68-.12zm5.04-7.2h-2.088v4.44c.672.08 1.32.12 1.944.12 2.048 0 3.072-.808 3.072-2.424 0-.704-.256-1.232-.768-1.584-.512-.368-1.232-.552-2.16-.552zm-.24-6.888c-.704 0-1.32.024-1.848.072v4.248h1.992c.736 0 1.336-.184 1.8-.552.464-.384.696-.944.696-1.68 0-.672-.24-1.184-.72-1.536-.464-.368-1.104-.552-1.92-.552zm10.06 6.096l-.696-2.016a7.385 7.385 0 013.816-1.032c1.536 0 2.64.376 3.312 1.128.672.752 1.008 1.872 1.008 3.36V189h-2.4v-1.248c-.656.928-1.72 1.392-3.192 1.392-1.008 0-1.824-.296-2.448-.888-.624-.592-.936-1.4-.936-2.424 0-1.136.368-2 1.104-2.592.736-.608 1.68-.912 2.832-.912.992 0 1.808.232 2.448.696.032-.944-.104-1.64-.408-2.088-.304-.464-.84-.696-1.608-.696-.8 0-1.744.248-2.832.744zm2.76 5.832c.928 0 1.624-.328 2.088-.984v-1.104c-.464-.352-1.096-.528-1.896-.528-.496 0-.912.12-1.248.36-.32.224-.48.552-.48.984 0 .4.144.712.432.936.288.224.656.336 1.104.336zm12.573-.12a.838.838 0 00.408-.744c0-.32-.2-.576-.6-.768a6.723 6.723 0 00-1.464-.528c-.56-.16-1.128-.344-1.704-.552a3.555 3.555 0 01-1.464-1.056c-.4-.48-.6-1.088-.6-1.824 0-1.024.368-1.824 1.104-2.4.752-.592 1.704-.888 2.856-.888 1.76 0 3.128.456 4.104 1.368l-1.032 1.968c-.88-.688-1.856-1.032-2.928-1.032-.4 0-.728.096-.984.288-.24.176-.36.392-.36.648 0 .32.2.584.6.792.4.208.88.384 1.44.528.576.144 1.152.32 1.728.528a3.364 3.364 0 011.464 1.032c.4.464.6 1.048.6 1.752 0 1.056-.4 1.896-1.2 2.52-.784.624-1.84.936-3.168.936-.928 0-1.848-.2-2.76-.6-.896-.4-1.48-.816-1.752-1.248l1.344-1.8c.32.352.824.664 1.512.936.688.272 1.304.408 1.848.408.416 0 .752-.088 1.008-.264zm6.008 2.304v-10.8h2.76V189h-2.76zm-.288-14.688c0-.48.168-.864.504-1.152a1.76 1.76 0 011.224-.456c.416 0 .784.152 1.104.456.32.288.48.672.48 1.152 0 .528-.16.952-.48 1.272-.32.304-.688.456-1.104.456-.496 0-.912-.152-1.248-.456-.32-.32-.48-.744-.48-1.272zm14.721 11.064l1.296 2.016c-.448.608-1.056 1.072-1.824 1.392-.752.32-1.576.48-2.472.48-1.76 0-3.176-.52-4.248-1.56s-1.608-2.408-1.608-4.104c0-1.6.528-2.944 1.584-4.032s2.392-1.632 4.008-1.632c1.92 0 3.368.488 4.344 1.464l-1.296 2.184c-.72-.704-1.616-1.056-2.688-1.056-.8 0-1.504.288-2.112.864-.592.56-.888 1.296-.888 2.208 0 .928.304 1.68.912 2.256.624.56 1.36.84 2.208.84 1.056 0 1.984-.44 2.784-1.32zm7.229 3.624l7.104-16.848h2.592L231.679 189h-3.144l-1.752-4.296h-7.176L217.855 189h-2.976zm8.328-13.032l-2.472 5.976h4.92l-2.448-5.976zm19.964 2.232V189h-2.76v-1.32c-.864 1.056-2.016 1.584-3.456 1.584-1.12 0-2.032-.376-2.736-1.128-.704-.752-1.056-1.864-1.056-3.336v-6.6h2.76v6.024c0 1.648.688 2.472 2.064 2.472.944 0 1.752-.44 2.424-1.32V178.2h2.76zm2.836 6.696V175.2h2.76v3h3.48v2.592h-3.48v3.936c0 1.296.432 1.944 1.296 1.944.544 0 1.096-.208 1.656-.624l.84 2.136c-.864.704-1.928 1.056-3.192 1.056-1.184 0-2.04-.36-2.568-1.08-.528-.736-.792-1.824-.792-3.264zm8.888 4.104v-16.8h2.76v6.984c.816-.784 1.848-1.176 3.096-1.176 1.392 0 2.48.384 3.264 1.152.784.752 1.176 1.944 1.176 3.576V189h-2.76v-5.904c0-.8-.208-1.416-.624-1.848-.416-.432-1.008-.648-1.776-.648-.928 0-1.72.328-2.376.984V189h-2.76zm-194.39 35v-4.128h-4.729V224h-2.76v-10.8h2.76v4.08h4.728v-4.08h2.76V224h-2.76zm6.664-8.016l-.696-2.016a7.385 7.385 0 013.816-1.032c1.536 0 2.64.376 3.312 1.128.672.752 1.008 1.872 1.008 3.36V224h-2.4v-1.248c-.656.928-1.72 1.392-3.192 1.392-1.008 0-1.824-.296-2.448-.888-.624-.592-.936-1.4-.936-2.424 0-1.136.368-2 1.104-2.592.736-.608 1.68-.912 2.832-.912.992 0 1.808.232 2.448.696.032-.944-.104-1.64-.408-2.088-.304-.464-.84-.696-1.608-.696-.8 0-1.744.248-2.832.744zm2.76 5.832c.928 0 1.624-.328 2.088-.984v-1.104c-.464-.352-1.096-.528-1.896-.528-.496 0-.912.12-1.248.36-.32.224-.48.552-.48.984 0 .4.144.712.432.936.288.224.656.336 1.104.336zM92.94 213.2L88.692 224c-.768 1.872-1.456 3.136-2.064 3.792-.592.672-1.296 1.008-2.112 1.008-.784 0-1.56-.28-2.328-.84l.888-2.088c.432.256.808.384 1.128.384.656 0 1.208-.56 1.656-1.68l.24-.576-4.992-10.8h3.312l2.52 5.904c.096.24.272.76.528 1.56.128-.704.256-1.232.384-1.584l1.944-5.88h3.144zm1.655 15.6v-15.6h2.76v1.032c.352-.368.824-.672 1.416-.912a4.9 4.9 0 011.92-.384c1.472 0 2.656.512 3.552 1.536.896 1.024 1.344 2.344 1.344 3.96 0 1.68-.528 3.072-1.584 4.176s-2.432 1.656-4.128 1.656c-1.072 0-1.912-.176-2.52-.528v5.064h-2.76zm5.232-13.272c-.944 0-1.768.392-2.472 1.176v4.368c.64.416 1.4.624 2.28.624.928 0 1.664-.296 2.208-.888.544-.608.816-1.376.816-2.304 0-.88-.248-1.592-.744-2.136-.496-.56-1.192-.84-2.088-.84zm9.086 7.152c-1.072-1.072-1.608-2.432-1.608-4.08 0-1.648.536-3 1.608-4.056 1.088-1.072 2.512-1.608 4.272-1.608 1.76 0 3.176.536 4.248 1.608 1.088 1.056 1.632 2.408 1.632 4.056 0 1.648-.544 3.008-1.632 4.08-1.072 1.056-2.488 1.584-4.248 1.584-1.76 0-3.184-.528-4.272-1.584zm1.344-4.08c0 .896.272 1.64.816 2.232.56.576 1.264.864 2.112.864.864 0 1.568-.28 2.112-.84.56-.576.84-1.328.84-2.256 0-.896-.28-1.632-.84-2.208-.56-.576-1.264-.864-2.112-.864-.832 0-1.528.288-2.088.864-.56.56-.84 1.296-.84 2.208zm11.197 5.4v-10.8c.192 0 .544-.008 1.056-.024a51.715 51.715 0 013.192-.096c3.264 0 4.896.944 4.896 2.832 0 .624-.2 1.16-.6 1.608a2.231 2.231 0 01-1.416.792v.048c1.536.368 2.304 1.2 2.304 2.496 0 2.176-1.712 3.264-5.136 3.264a55.3 55.3 0 01-2.28-.072 86.639 86.639 0 00-2.016-.048zm4.488-4.584h-1.728v2.4c1.088.064 1.696.096 1.824.096.608 0 1.08-.112 1.416-.336.352-.224.528-.528.528-.912 0-.832-.68-1.248-2.04-1.248zm0-4.104c-.768 0-1.344.016-1.728.048v2.376h1.8c.48 0 .872-.104 1.176-.312.32-.224.48-.536.48-.936 0-.784-.576-1.176-1.728-1.176zM140.989 224v-4.128h-4.728V224h-2.76v-10.8h2.76v4.08h4.728v-4.08h2.76V224h-2.76zm14.296-3.024l.792 1.944c-1.056.896-2.432 1.344-4.128 1.344-1.744 0-3.152-.52-4.224-1.56-1.056-1.04-1.584-2.408-1.584-4.104 0-1.616.52-2.96 1.56-4.032 1.04-1.088 2.424-1.632 4.152-1.632 1.424 0 2.632.472 3.624 1.416.992.928 1.488 2.128 1.488 3.6 0 .608-.056 1.104-.168 1.488h-7.8c.112.8.464 1.424 1.056 1.872.592.432 1.32.648 2.184.648 1.216 0 2.232-.328 3.048-.984zm-3.552-5.736c-1.568 0-2.512.784-2.832 2.352h5.304c.016-.672-.2-1.232-.648-1.68-.448-.448-1.056-.672-1.824-.672zm20.725 5.136l1.296 2.016c-.448.608-1.056 1.072-1.824 1.392-.752.32-1.576.48-2.472.48-1.76 0-3.176-.52-4.248-1.56s-1.608-2.408-1.608-4.104c0-1.6.528-2.944 1.584-4.032s2.392-1.632 4.008-1.632c1.92 0 3.368.488 4.344 1.464l-1.296 2.184c-.72-.704-1.616-1.056-2.688-1.056-.8 0-1.504.288-2.112.864-.592.56-.888 1.296-.888 2.208 0 .928.304 1.68.912 2.256.624.56 1.36.84 2.208.84 1.056 0 1.984-.44 2.784-1.32zm11.398.6l.792 1.944c-1.056.896-2.432 1.344-4.128 1.344-1.744 0-3.152-.52-4.224-1.56-1.056-1.04-1.584-2.408-1.584-4.104 0-1.616.52-2.96 1.56-4.032 1.04-1.088 2.424-1.632 4.152-1.632 1.424 0 2.632.472 3.624 1.416.992.928 1.488 2.128 1.488 3.6 0 .608-.056 1.104-.168 1.488h-7.8c.112.8.464 1.424 1.056 1.872.592.432 1.32.648 2.184.648 1.216 0 2.232-.328 3.048-.984zm-3.552-5.736c-1.568 0-2.512.784-2.832 2.352h5.304c.016-.672-.2-1.232-.648-1.68-.448-.448-1.056-.672-1.824-.672zm7.455 13.56v-15.6h2.76v1.032c.352-.368.824-.672 1.416-.912a4.898 4.898 0 011.92-.384c1.472 0 2.656.512 3.552 1.536.896 1.024 1.344 2.344 1.344 3.96 0 1.68-.528 3.072-1.584 4.176s-2.432 1.656-4.128 1.656c-1.072 0-1.912-.176-2.52-.528v5.064h-2.76zm5.232-13.272c-.944 0-1.768.392-2.472 1.176v4.368c.64.416 1.4.624 2.28.624.928 0 1.664-.296 2.208-.888.544-.608.816-1.376.816-2.304 0-.88-.248-1.592-.744-2.136-.496-.56-1.192-.84-2.088-.84zm8.15 8.472v-10.8c.192 0 .544-.008 1.056-.024a51.715 51.715 0 013.192-.096c3.264 0 4.896.944 4.896 2.832 0 .624-.2 1.16-.6 1.608a2.231 2.231 0 01-1.416.792v.048c1.536.368 2.304 1.2 2.304 2.496 0 2.176-1.712 3.264-5.136 3.264a55.3 55.3 0 01-2.28-.072 86.639 86.639 0 00-2.016-.048zm4.488-4.584h-1.728v2.4c1.088.064 1.696.096 1.824.096.608 0 1.08-.112 1.416-.336.352-.224.528-.528.528-.912 0-.832-.68-1.248-2.04-1.248zm0-4.104c-.768 0-1.344.016-1.728.048v2.376h1.8c.48 0 .872-.104 1.176-.312.32-.224.48-.536.48-.936 0-.784-.576-1.176-1.728-1.176zm16.031 5.664l.792 1.944c-1.056.896-2.432 1.344-4.128 1.344-1.744 0-3.152-.52-4.224-1.56-1.056-1.04-1.584-2.408-1.584-4.104 0-1.616.52-2.96 1.56-4.032 1.04-1.088 2.424-1.632 4.152-1.632 1.424 0 2.632.472 3.624 1.416.992.928 1.488 2.128 1.488 3.6 0 .608-.056 1.104-.168 1.488h-7.8c.112.8.464 1.424 1.056 1.872.592.432 1.32.648 2.184.648 1.216 0 2.232-.328 3.048-.984zm-3.552-5.736c-1.568 0-2.512.784-2.832 2.352h5.304c.016-.672-.2-1.232-.648-1.68-.448-.448-1.056-.672-1.824-.672zm7.455 13.56v-15.6h2.76v1.032c.352-.368.824-.672 1.416-.912a4.898 4.898 0 011.92-.384c1.472 0 2.656.512 3.552 1.536.896 1.024 1.344 2.344 1.344 3.96 0 1.68-.528 3.072-1.584 4.176s-2.432 1.656-4.128 1.656c-1.072 0-1.912-.176-2.52-.528v5.064h-2.76zm5.232-13.272c-.944 0-1.768.392-2.472 1.176v4.368c.64.416 1.4.624 2.28.624.928 0 1.664-.296 2.208-.888.544-.608.816-1.376.816-2.304 0-.88-.248-1.592-.744-2.136-.496-.56-1.192-.84-2.088-.84zm8.991.456l-.696-2.016a7.385 7.385 0 013.816-1.032c1.536 0 2.64.376 3.312 1.128.672.752 1.008 1.872 1.008 3.36V224h-2.4v-1.248c-.656.928-1.72 1.392-3.192 1.392-1.008 0-1.824-.296-2.448-.888-.624-.592-.936-1.4-.936-2.424 0-1.136.368-2 1.104-2.592.736-.608 1.68-.912 2.832-.912.992 0 1.808.232 2.448.696.032-.944-.104-1.64-.408-2.088-.304-.464-.84-.696-1.608-.696-.8 0-1.744.248-2.832.744zm2.76 5.832c.928 0 1.624-.328 2.088-.984v-1.104c-.464-.352-1.096-.528-1.896-.528-.496 0-.912.12-1.248.36-.32.224-.48.552-.48.984 0 .4.144.712.432.936.288.224.656.336 1.104.336z" fill="#141414"/><rect x="1.5" y="146.5" width="297" height="107" rx="6.5" stroke="#E4002B" stroke-width="3"/><path d="M150 315l5.774-10h-11.548L150 315zm-1-50v41h2v-41h-2z" fill="#C5CDCF"/><path d="M26.223 368.976v-16.728c1.568-.08 3.184-.12 4.848-.12 1.903 0 3.296.384 4.175 1.152.896.752 1.344 1.752 1.344 3 0 1.792-.8 3.064-2.4 3.816v.048c.88.224 1.593.664 2.137 1.32s.816 1.52.816 2.592c0 1.664-.577 2.92-1.729 3.768-1.136.848-2.64 1.272-4.512 1.272-2.032 0-3.591-.04-4.68-.12zm5.04-7.2h-2.089v4.44c.672.08 1.32.12 1.945.12 2.047 0 3.072-.808 3.072-2.424 0-.704-.257-1.232-.769-1.584-.511-.368-1.231-.552-2.16-.552zm-.24-6.888c-.704 0-1.32.024-1.849.072v4.248h1.992c.736 0 1.336-.184 1.8-.552.465-.384.697-.944.697-1.68 0-.672-.24-1.184-.72-1.536-.465-.368-1.104-.552-1.92-.552zm10.06 6.096l-.696-2.016a7.385 7.385 0 013.816-1.032c1.536 0 2.64.376 3.312 1.128.672.752 1.008 1.872 1.008 3.36V369h-2.4v-1.248c-.656.928-1.72 1.392-3.192 1.392-1.008 0-1.824-.296-2.448-.888-.624-.592-.936-1.4-.936-2.424 0-1.136.368-2 1.104-2.592.736-.608 1.68-.912 2.832-.912.992 0 1.808.232 2.448.696.032-.944-.104-1.64-.408-2.088-.304-.464-.84-.696-1.608-.696-.8 0-1.744.248-2.832.744zm2.76 5.832c.928 0 1.624-.328 2.088-.984v-1.104c-.464-.352-1.096-.528-1.896-.528-.496 0-.912.12-1.248.36-.32.224-.48.552-.48.984 0 .4.144.712.432.936.288.224.656.336 1.104.336zM58.456 369v-8.04H55.6l-.072 1.152c-.176 1.936-.472 3.424-.888 4.464-.4 1.04-.912 1.744-1.536 2.112-.608.352-1.424.528-2.448.528l-.24-2.688a1.4 1.4 0 00.984-.288c.32-.24.624-.752.912-1.536.288-.8.472-1.848.552-3.144l.168-3.36h8.184V369h-2.76zm8.594 0h-2.76v-10.8h2.76v6.84l5.04-6.84h2.76V369h-2.76v-6.84L67.05 369zm9.585 2.52v-5.088h1.367c.849-1.12 1.353-3 1.513-5.64l.168-2.592h7.967v8.232h1.8v5.088h-2.59V369h-7.656v2.52h-2.569zm5.543-9.624c-.191 2.096-.623 3.608-1.296 4.536h4.008v-5.64h-2.64l-.072 1.104zm9.928-.912l-.695-2.016a7.385 7.385 0 013.816-1.032c1.535 0 2.64.376 3.311 1.128.672.752 1.008 1.872 1.008 3.36V369h-2.4v-1.248c-.656.928-1.72 1.392-3.192 1.392-1.007 0-1.823-.296-2.447-.888-.625-.592-.937-1.4-.937-2.424 0-1.136.369-2 1.105-2.592.736-.608 1.68-.912 2.832-.912.992 0 1.807.232 2.447.696.033-.944-.103-1.64-.407-2.088-.304-.464-.84-.696-1.608-.696-.8 0-1.744.248-2.832.744zm2.76 5.832c.928 0 1.624-.328 2.088-.984v-1.104c-.463-.352-1.095-.528-1.895-.528-.496 0-.912.12-1.248.36-.32.224-.48.552-.48.984 0 .4.144.712.431.936.288.224.656.336 1.105.336zm7.51 2.184v-10.8h2.76v8.232h4.44V358.2h2.76v8.232h1.8v5.088h-2.592V369h-9.168zm16.354 0h-2.76v-10.8h2.76v6.84l5.04-6.84h2.76V369h-2.76v-6.84l-5.04 6.84zm16.16-10.8h3.528V369h-2.76v-3.24h-1.536L131.89 369h-3.168l2.88-3.84c-.544-.192-1.032-.552-1.464-1.08-.416-.544-.624-1.224-.624-2.04 0-1.136.432-2.056 1.296-2.76.88-.72 2.24-1.08 4.08-1.08zm-2.424 4.032c0 .432.176.792.528 1.08.368.272.776.408 1.224.408h1.44v-3.12h-1.224c-.624 0-1.112.16-1.464.48-.336.32-.504.704-.504 1.152zM153.947 369v-8.208h-4.608V369h-2.76v-10.8h10.128V369h-2.76zm6.763-1.32c-1.072-1.072-1.608-2.432-1.608-4.08 0-1.648.536-3 1.608-4.056 1.088-1.072 2.512-1.608 4.272-1.608 1.76 0 3.176.536 4.248 1.608 1.088 1.056 1.632 2.408 1.632 4.056 0 1.648-.544 3.008-1.632 4.08-1.072 1.056-2.488 1.584-4.248 1.584-1.76 0-3.184-.528-4.272-1.584zm1.344-4.08c0 .896.272 1.64.816 2.232.56.576 1.264.864 2.112.864.864 0 1.568-.28 2.112-.84.56-.576.84-1.328.84-2.256 0-.896-.28-1.632-.84-2.208-.56-.576-1.264-.864-2.112-.864-.832 0-1.528.288-2.088.864-.56.56-.84 1.296-.84 2.208zm21.347 3.096a.838.838 0 00.408-.744c0-.32-.2-.576-.6-.768a6.723 6.723 0 00-1.464-.528c-.56-.16-1.128-.344-1.704-.552a3.555 3.555 0 01-1.464-1.056c-.4-.48-.6-1.088-.6-1.824 0-1.024.368-1.824 1.104-2.4.752-.592 1.704-.888 2.856-.888 1.76 0 3.128.456 4.104 1.368l-1.032 1.968c-.88-.688-1.856-1.032-2.928-1.032-.4 0-.728.096-.984.288-.24.176-.36.392-.36.648 0 .32.2.584.6.792.4.208.88.384 1.44.528.576.144 1.152.32 1.728.528a3.364 3.364 0 011.464 1.032c.4.464.6 1.048.6 1.752 0 1.056-.4 1.896-1.2 2.52-.784.624-1.84.936-3.168.936-.928 0-1.848-.2-2.76-.6-.896-.4-1.48-.816-1.752-1.248l1.344-1.8c.32.352.824.664 1.512.936.688.272 1.304.408 1.848.408.416 0 .752-.088 1.008-.264zm16.016-8.496l-4.248 10.8c-.768 1.872-1.456 3.136-2.064 3.792-.592.672-1.296 1.008-2.112 1.008-.784 0-1.56-.28-2.328-.84l.888-2.088c.432.256.808.384 1.128.384.656 0 1.208-.56 1.656-1.68l.24-.576-4.992-10.8h3.312l2.52 5.904c.096.24.272.76.528 1.56.128-.704.256-1.232.384-1.584l1.944-5.88h3.144zm6.718 8.496a.838.838 0 00.408-.744c0-.32-.2-.576-.6-.768a6.723 6.723 0 00-1.464-.528c-.56-.16-1.128-.344-1.704-.552a3.555 3.555 0 01-1.464-1.056c-.4-.48-.6-1.088-.6-1.824 0-1.024.368-1.824 1.104-2.4.752-.592 1.704-.888 2.856-.888 1.76 0 3.128.456 4.104 1.368l-1.032 1.968c-.88-.688-1.856-1.032-2.928-1.032-.4 0-.728.096-.984.288-.24.176-.36.392-.36.648 0 .32.2.584.6.792.4.208.88.384 1.44.528.576.144 1.152.32 1.728.528a3.364 3.364 0 011.464 1.032c.4.464.6 1.048.6 1.752 0 1.056-.4 1.896-1.2 2.52-.784.624-1.84.936-3.168.936-.928 0-1.848-.2-2.76-.6-.896-.4-1.48-.816-1.752-1.248l1.344-1.8c.32.352.824.664 1.512.936.688.272 1.304.408 1.848.408.416 0 .752-.088 1.008-.264zm5.36-1.8V355.2h2.76v3h3.48v2.592h-3.48v3.936c0 1.296.432 1.944 1.296 1.944.544 0 1.096-.208 1.656-.624l.84 2.136c-.864.704-1.928 1.056-3.192 1.056-1.184 0-2.04-.36-2.568-1.08-.528-.736-.792-1.824-.792-3.264zm16.939 1.08l.792 1.944c-1.056.896-2.432 1.344-4.128 1.344-1.744 0-3.152-.52-4.224-1.56-1.056-1.04-1.584-2.408-1.584-4.104 0-1.616.52-2.96 1.56-4.032 1.04-1.088 2.424-1.632 4.152-1.632 1.424 0 2.632.472 3.624 1.416.992.928 1.488 2.128 1.488 3.6 0 .608-.056 1.104-.168 1.488h-7.8c.112.8.464 1.424 1.056 1.872.592.432 1.32.648 2.184.648 1.216 0 2.232-.328 3.048-.984zm-3.552-5.736c-1.568 0-2.512.784-2.832 2.352h5.304c.016-.672-.2-1.232-.648-1.68-.448-.448-1.056-.672-1.824-.672zm23.847 1.704V369h-2.76v-6.336c0-1.376-.616-2.064-1.848-2.064-1.056 0-1.8.416-2.232 1.248v.384c.016.192.024.328.024.408V369h-2.76v-6.528c0-.576-.16-1.032-.48-1.368-.304-.336-.744-.504-1.32-.504-.992 0-1.744.384-2.256 1.152V369h-2.76v-10.8h2.76v1.2c.832-.928 1.96-1.392 3.384-1.392.8 0 1.472.16 2.016.48.544.32.92.736 1.128 1.248.88-1.152 2.096-1.728 3.648-1.728 2.304 0 3.456 1.312 3.456 3.936zm3.955 7.056v-16.8h2.952V369h-2.952zm7.96 0v-16.8h.312c.32 0 1.064-.008 2.232-.024 1.168-.032 1.968-.048 2.4-.048 1.632 0 3.064.224 4.296.672 1.232.432 2.216 1.04 2.952 1.824a7.59 7.59 0 011.632 2.64c.368.96.552 2.016.552 3.168 0 2.496-.84 4.56-2.52 6.192-1.664 1.616-4.032 2.424-7.104 2.424-.288 0-.96-.008-2.016-.024-1.04-.016-1.84-.024-2.4-.024h-.336zm4.896-14.112c-.624 0-1.272.024-1.944.072v11.28a32.75 32.75 0 001.896.048c2 0 3.568-.528 4.704-1.584 1.136-1.056 1.704-2.48 1.704-4.272 0-1.712-.568-3.064-1.704-4.056-1.12-.992-2.672-1.488-4.656-1.488zM68.368 404v-4.128H63.64V404h-2.76v-10.8h2.76v4.08h4.728v-4.08h2.76V404h-2.76zm6.664-8.016l-.696-2.016a7.385 7.385 0 013.816-1.032c1.536 0 2.64.376 3.312 1.128.672.752 1.008 1.872 1.008 3.36V404h-2.4v-1.248c-.656.928-1.72 1.392-3.192 1.392-1.008 0-1.824-.296-2.448-.888-.624-.592-.936-1.4-.936-2.424 0-1.136.368-2 1.104-2.592.736-.608 1.68-.912 2.832-.912.992 0 1.808.232 2.448.696.032-.944-.104-1.64-.408-2.088-.304-.464-.84-.696-1.608-.696-.8 0-1.744.248-2.832.744zm2.76 5.832c.928 0 1.624-.328 2.088-.984v-1.104c-.464-.352-1.096-.528-1.896-.528-.496 0-.912.12-1.248.36-.32.224-.48.552-.48.984 0 .4.144.712.432.936.288.224.656.336 1.104.336zm23.012-8.616L96.556 404c-.768 1.872-1.456 3.136-2.064 3.792-.592.672-1.296 1.008-2.112 1.008-.784 0-1.56-.28-2.328-.84l.888-2.088c.432.256.808.384 1.128.384.656 0 1.208-.56 1.656-1.68l.24-.576-4.992-10.8h3.312l2.52 5.904c.096.24.272.76.528 1.56.128-.704.256-1.232.384-1.584l1.944-5.88h3.144zm1.654 15.6v-15.6h2.76v1.032c.352-.368.824-.672 1.416-.912a4.898 4.898 0 011.92-.384c1.472 0 2.656.512 3.552 1.536.896 1.024 1.344 2.344 1.344 3.96 0 1.68-.528 3.072-1.584 4.176s-2.432 1.656-4.128 1.656c-1.072 0-1.912-.176-2.52-.528v5.064h-2.76zm5.232-13.272c-.944 0-1.768.392-2.472 1.176v4.368c.64.416 1.4.624 2.28.624.928 0 1.664-.296 2.208-.888.544-.608.816-1.376.816-2.304 0-.88-.248-1.592-.744-2.136-.496-.56-1.192-.84-2.088-.84zm9.087 7.152c-1.072-1.072-1.608-2.432-1.608-4.08 0-1.648.536-3 1.608-4.056 1.088-1.072 2.512-1.608 4.272-1.608 1.76 0 3.176.536 4.248 1.608 1.088 1.056 1.632 2.408 1.632 4.056 0 1.648-.544 3.008-1.632 4.08-1.072 1.056-2.488 1.584-4.248 1.584-1.76 0-3.184-.528-4.272-1.584zm1.344-4.08c0 .896.272 1.64.816 2.232.56.576 1.264.864 2.112.864.864 0 1.568-.28 2.112-.84.56-.576.84-1.328.84-2.256 0-.896-.28-1.632-.84-2.208-.56-.576-1.264-.864-2.112-.864-.832 0-1.528.288-2.088.864-.56.56-.84 1.296-.84 2.208zm11.196 5.4v-10.8c.192 0 .544-.008 1.056-.024a51.715 51.715 0 013.192-.096c3.264 0 4.896.944 4.896 2.832 0 .624-.2 1.16-.6 1.608a2.231 2.231 0 01-1.416.792v.048c1.536.368 2.304 1.2 2.304 2.496 0 2.176-1.712 3.264-5.136 3.264a55.3 55.3 0 01-2.28-.072 86.639 86.639 0 00-2.016-.048zm4.488-4.584h-1.728v2.4c1.088.064 1.696.096 1.824.096.608 0 1.08-.112 1.416-.336.352-.224.528-.528.528-.912 0-.832-.68-1.248-2.04-1.248zm0-4.104c-.768 0-1.344.016-1.728.048v2.376h1.8c.48 0 .872-.104 1.176-.312.32-.224.48-.536.48-.936 0-.784-.576-1.176-1.728-1.176zM148.852 404v-4.128h-4.728V404h-2.76v-10.8h2.76v4.08h4.728v-4.08h2.76V404h-2.76zm14.297-3.024l.792 1.944c-1.056.896-2.432 1.344-4.128 1.344-1.744 0-3.152-.52-4.224-1.56-1.056-1.04-1.584-2.408-1.584-4.104 0-1.616.52-2.96 1.56-4.032 1.04-1.088 2.424-1.632 4.152-1.632 1.424 0 2.632.472 3.624 1.416.992.928 1.488 2.128 1.488 3.6 0 .608-.056 1.104-.168 1.488h-7.8c.112.8.464 1.424 1.056 1.872.592.432 1.32.648 2.184.648 1.216 0 2.232-.328 3.048-.984zm-3.552-5.736c-1.568 0-2.512.784-2.832 2.352h5.304c.016-.672-.2-1.232-.648-1.68-.448-.448-1.056-.672-1.824-.672zm19.909 8.76v-8.208h-4.608V404h-2.76v-10.8h10.128V404h-2.76zm6.667-8.016l-.696-2.016a7.385 7.385 0 013.816-1.032c1.536 0 2.64.376 3.312 1.128.672.752 1.008 1.872 1.008 3.36V404h-2.4v-1.248c-.656.928-1.72 1.392-3.192 1.392-1.008 0-1.824-.296-2.448-.888-.624-.592-.936-1.4-.936-2.424 0-1.136.368-2 1.104-2.592.736-.608 1.68-.912 2.832-.912.992 0 1.808.232 2.448.696.032-.944-.104-1.64-.408-2.088-.304-.464-.84-.696-1.608-.696-.8 0-1.744.248-2.832.744zm2.76 5.832c.928 0 1.624-.328 2.088-.984v-1.104c-.464-.352-1.096-.528-1.896-.528-.496 0-.912.12-1.248.36-.32.224-.48.552-.48.984 0 .4.144.712.432.936.288.224.656.336 1.104.336zm17.733-8.616l-4.152 5.136L207.17 404h-3.6l-4.272-5.448 3.888-5.352h3.48zM196.442 404v-10.8h2.76V404h-2.76zm20.168-3.024l.792 1.944c-1.056.896-2.432 1.344-4.128 1.344-1.744 0-3.152-.52-4.224-1.56-1.056-1.04-1.584-2.408-1.584-4.104 0-1.616.52-2.96 1.56-4.032 1.04-1.088 2.424-1.632 4.152-1.632 1.424 0 2.632.472 3.624 1.416.992.928 1.488 2.128 1.488 3.6 0 .608-.056 1.104-.168 1.488h-7.8c.112.8.464 1.424 1.056 1.872.592.432 1.32.648 2.184.648 1.216 0 2.232-.328 3.048-.984zm-3.552-5.736c-1.568 0-2.512.784-2.832 2.352h5.304c.016-.672-.2-1.232-.648-1.68-.448-.448-1.056-.672-1.824-.672zm6.209.72v-2.76h9.84v2.76h-3.528V404h-2.76v-8.04h-3.552zm12.656.024l-.696-2.016a7.385 7.385 0 013.816-1.032c1.536 0 2.64.376 3.312 1.128.672.752 1.008 1.872 1.008 3.36V404h-2.4v-1.248c-.656.928-1.72 1.392-3.192 1.392-1.008 0-1.824-.296-2.448-.888-.624-.592-.936-1.4-.936-2.424 0-1.136.368-2 1.104-2.592.736-.608 1.68-.912 2.832-.912.992 0 1.808.232 2.448.696.032-.944-.104-1.64-.408-2.088-.304-.464-.84-.696-1.608-.696-.8 0-1.744.248-2.832.744zm2.76 5.832c.928 0 1.624-.328 2.088-.984v-1.104c-.464-.352-1.096-.528-1.896-.528-.496 0-.912.12-1.248.36-.32.224-.48.552-.48.984 0 .4.144.712.432.936.288.224.656.336 1.104.336z" fill="#141414"/><rect x="1.5" y="326.5" width="297" height="107" rx="6.5" stroke="#E4002B" stroke-width="3"/></svg>