<svg width="1572" height="110" viewBox="0 0 1572 110" fill="none" xmlns="http://www.w3.org/2000/svg"><path d="M955.965 44.2l-4.8 16.8h-2.76l-4.056-12.144L940.365 61h-2.784l-5.016-16.8h3.312l3.384 11.976 3.744-11.976h2.928l3.84 12 3.36-12h2.832zm9.201 12.336c0-.448-.144-.84-.432-1.176a3.32 3.32 0 00-1.08-.888 12.897 12.897 0 00-1.488-.72 29.757 29.757 0 01-1.608-.792 11.42 11.42 0 01-1.488-.984 4.274 4.274 0 01-1.104-1.416c-.272-.592-.408-1.256-.408-1.992 0-1.312.472-2.408 1.416-3.288.96-.896 2.232-1.344 3.816-1.344 2.112 0 3.712.6 4.8 1.8l-1.584 2.208c-.864-.832-1.856-1.248-2.976-1.248-.72 0-1.296.168-1.728.504-.416.336-.624.784-.624 1.344 0 .544.184 1.016.552 1.416.384.4.856.72 1.416.96.56.224 1.168.496 1.824.816.672.32 1.288.656 1.848 1.008.56.336 1.024.832 1.392 1.488.384.64.576 1.4.576 2.28 0 1.392-.536 2.536-1.608 3.432-1.072.88-2.408 1.32-4.008 1.32a8.315 8.315 0 01-3.336-.696c-1.056-.48-1.776-1.128-2.16-1.944l1.68-2.016a4.735 4.735 0 001.752 1.416c.72.32 1.424.48 2.112.48.72 0 1.304-.168 1.752-.504.464-.352.696-.84.696-1.464zM971.687 61V44.2h.312c.32 0 1.064-.008 2.232-.024 1.168-.032 1.968-.048 2.4-.048 1.632 0 3.064.224 4.296.672 1.232.432 2.216 1.04 2.952 1.824a7.59 7.59 0 011.632 2.64c.368.96.552 2.016.552 3.168 0 2.496-.84 4.56-2.52 6.192-1.664 1.616-4.032 2.424-7.104 2.424-.288 0-.96-.008-2.016-.024-1.04-.016-1.84-.024-2.4-.024h-.336zm4.896-14.112c-.624 0-1.272.024-1.944.072v11.28a32.75 32.75 0 001.896.048c2 0 3.568-.528 4.704-1.584 1.136-1.056 1.704-2.48 1.704-4.272 0-1.712-.568-3.064-1.704-4.056-1.12-.992-2.672-1.488-4.656-1.488zM989.476 61V44.2h2.952v14.04h7.56V61h-10.512zm11.954-5.28v-2.568h6.05v2.568h-6.05zm14.82 10.08v-4.536h-.14c-1.84 0-3.28-.528-4.32-1.584-1.02-1.056-1.54-2.416-1.54-4.08 0-1.552.52-2.88 1.56-3.984 1.06-1.12 2.48-1.68 4.28-1.68h.16V44.2h2.76v5.736h.2c1.8 0 3.22.536 4.24 1.608 1.04 1.056 1.56 2.408 1.56 4.056 0 1.68-.49 3.048-1.48 4.104-1 1.04-2.44 1.56-4.32 1.56h-.2V65.8h-2.76zm2.96-13.272h-.2v6.168h.1c.96 0 1.69-.28 2.18-.84.52-.56.77-1.312.77-2.256 0-.864-.25-1.592-.74-2.184-.48-.592-1.19-.888-2.11-.888zm-6 3.072c0 .928.25 1.68.76 2.256.52.56 1.25.84 2.21.84h.07v-6.168h-.19c-.96 0-1.68.288-2.16.864-.46.576-.69 1.312-.69 2.208zm15.03-2.616l-.69-2.016a7.384 7.384 0 013.81-1.032c1.54 0 2.64.376 3.32 1.128.67.752 1 1.872 1 3.36V61h-2.4v-1.248c-.65.928-1.72 1.392-3.19 1.392-1.01 0-1.82-.296-2.45-.888-.62-.592-.93-1.4-.93-2.424 0-1.136.37-2 1.1-2.592.74-.608 1.68-.912 2.83-.912 1 0 1.81.232 2.45.696.03-.944-.1-1.64-.41-2.088-.3-.464-.84-.696-1.6-.696-.8 0-1.75.248-2.84.744zm2.76 5.832c.93 0 1.63-.328 2.09-.984v-1.104c-.46-.352-1.09-.528-1.89-.528-.5 0-.92.12-1.25.36-.32.224-.48.552-.48.984 0 .4.14.712.43.936.29.224.66.336 1.1.336zM1041.27 61h-2.76V50.2h2.76v6.84l5.04-6.84h2.76V61h-2.76v-6.84l-5.04 6.84zm-1.15-16.2h2.52c0 .496.1.912.29 1.248.21.336.53.504.96.504a.93.93 0 00.86-.504c.19-.336.29-.752.29-1.248h2.52c0 1.088-.32 1.984-.96 2.688-.64.688-1.54 1.032-2.71 1.032-1.28 0-2.23-.336-2.86-1.008-.61-.688-.91-1.592-.91-2.712zm19.14 16.2v-8.04h-2.86l-.07 1.152c-.18 1.936-.47 3.424-.89 4.464-.4 1.04-.91 1.744-1.53 2.112-.61.352-1.43.528-2.45.528l-.24-2.688c.35.032.68-.064.98-.288.32-.24.63-.752.91-1.536.29-.8.48-1.848.56-3.144l.16-3.36h8.19V61h-2.76z" fill="#141414"/><rect x="849.5" y="18.5" width="297" height="72" rx="6.5" stroke="#E4002B" stroke-width="3"/><path d="M1322.3 39.536c0-.448-.15-.84-.43-1.176a3.496 3.496 0 00-1.08-.888 13.43 13.43 0 00-1.49-.72c-.53-.24-1.07-.504-1.61-.792-.54-.304-1.04-.632-1.49-.984-.45-.368-.81-.84-1.1-1.416a4.748 4.748 0 01-.41-1.992c0-1.312.47-2.408 1.42-3.288.96-.896 2.23-1.344 3.81-1.344 2.11 0 3.71.6 4.8 1.8l-1.58 2.208c-.87-.832-1.86-1.248-2.98-1.248-.72 0-1.29.168-1.73.504-.41.336-.62.784-.62 1.344 0 .544.18 1.016.55 1.416.39.4.86.72 1.42.96.56.224 1.17.496 1.82.816.67.32 1.29.656 1.85 1.008.56.336 1.02.832 1.39 1.488.39.64.58 1.4.58 2.28 0 1.392-.54 2.536-1.61 3.432-1.07.88-2.41 1.32-4.01 1.32-1.15 0-2.26-.232-3.33-.696-1.06-.48-1.78-1.128-2.16-1.944l1.68-2.016a4.65 4.65 0 001.75 1.416c.72.32 1.42.48 2.11.48.72 0 1.3-.168 1.75-.504.47-.352.7-.84.7-1.464zm6.66 3.144c-1.07-1.072-1.6-2.432-1.6-4.08 0-1.648.53-3 1.6-4.056 1.09-1.072 2.52-1.608 4.28-1.608 1.76 0 3.17.536 4.24 1.608 1.09 1.056 1.64 2.408 1.64 4.056 0 1.648-.55 3.008-1.64 4.08-1.07 1.056-2.48 1.584-4.24 1.584-1.76 0-3.19-.528-4.28-1.584zm1.35-4.08c0 .896.27 1.64.81 2.232.56.576 1.27.864 2.12.864.86 0 1.56-.28 2.11-.84.56-.576.84-1.328.84-2.256 0-.896-.28-1.632-.84-2.208-.56-.576-1.27-.864-2.11-.864-.84 0-1.53.288-2.09.864-.56.56-.84 1.296-.84 2.208zm12.03-2.616l-.69-2.016a7.384 7.384 0 013.81-1.032c1.54 0 2.64.376 3.32 1.128.67.752 1 1.872 1 3.36V44h-2.4v-1.248c-.65.928-1.72 1.392-3.19 1.392-1.01 0-1.82-.296-2.45-.888-.62-.592-.93-1.4-.93-2.424 0-1.136.37-2 1.1-2.592.74-.608 1.68-.912 2.83-.912 1 0 1.81.232 2.45.696.03-.944-.1-1.64-.41-2.088-.3-.464-.84-.696-1.6-.696-.8 0-1.75.248-2.84.744zm2.76 5.832c.93 0 1.63-.328 2.09-.984v-1.104c-.46-.352-1.09-.528-1.89-.528-.5 0-.92.12-1.25.36-.32.224-.48.552-.48.984 0 .4.14.712.43.936.29.224.66.336 1.1.336zm7.51 6.984V33.2h2.76v1.032c.36-.368.83-.672 1.42-.912a4.912 4.912 0 011.92-.384c1.47 0 2.66.512 3.55 1.536.9 1.024 1.35 2.344 1.35 3.96 0 1.68-.53 3.072-1.59 4.176-1.05 1.104-2.43 1.656-4.13 1.656-1.07 0-1.91-.176-2.52-.528V48.8h-2.76zm5.24-13.272c-.95 0-1.77.392-2.48 1.176v4.368c.64.416 1.4.624 2.28.624.93 0 1.67-.296 2.21-.888.55-.608.82-1.376.82-2.304 0-.88-.25-1.592-.75-2.136-.49-.56-1.19-.84-2.08-.84zm8.52 3.192v-2.568h6.05v2.568h-6.05zm17.68 1.656l1.29 2.016c-.44.608-1.05 1.072-1.82 1.392-.75.32-1.58.48-2.47.48-1.76 0-3.18-.52-4.25-1.56-1.07-1.04-1.61-2.408-1.61-4.104 0-1.6.53-2.944 1.59-4.032 1.05-1.088 2.39-1.632 4-1.632 1.92 0 3.37.488 4.35 1.464l-1.3 2.184c-.72-.704-1.61-1.056-2.69-1.056-.8 0-1.5.288-2.11.864-.59.56-.89 1.296-.89 2.208 0 .928.31 1.68.92 2.256.62.56 1.36.84 2.2.84 1.06 0 1.99-.44 2.79-1.32zm11.4.6l.79 1.944c-1.06.896-2.43 1.344-4.13 1.344-1.74 0-3.15-.52-4.22-1.56-1.06-1.04-1.59-2.408-1.59-4.104 0-1.616.52-2.96 1.56-4.032 1.04-1.088 2.43-1.632 4.15-1.632 1.43 0 2.64.472 3.63 1.416.99.928 1.49 2.128 1.49 3.6 0 .608-.06 1.104-.17 1.488h-7.8c.11.8.46 1.424 1.05 1.872.6.432 1.32.648 2.19.648 1.21 0 2.23-.328 3.05-.984zm-3.56-5.736c-1.56 0-2.51.784-2.83 2.352h5.31c.01-.672-.2-1.232-.65-1.68-.45-.448-1.06-.672-1.83-.672zm7.46 13.56V33.2h2.76v1.032c.35-.368.82-.672 1.41-.912a4.912 4.912 0 011.92-.384c1.48 0 2.66.512 3.56 1.536.89 1.024 1.34 2.344 1.34 3.96 0 1.68-.53 3.072-1.58 4.176-1.06 1.104-2.44 1.656-4.13 1.656-1.07 0-1.91-.176-2.52-.528V48.8h-2.76zm5.23-13.272c-.94 0-1.77.392-2.47 1.176v4.368c.64.416 1.4.624 2.28.624.93 0 1.66-.296 2.21-.888.54-.608.81-1.376.81-2.304 0-.88-.25-1.592-.74-2.136-.5-.56-1.19-.84-2.09-.84zm8.15 8.472V33.2c.19 0 .55-.008 1.06-.024a55.127 55.127 0 013.19-.096c3.26 0 4.9.944 4.9 2.832 0 .624-.2 1.16-.6 1.608-.39.448-.86.712-1.42.792v.048c1.54.368 2.3 1.2 2.3 2.496 0 2.176-1.71 3.264-5.13 3.264a55.3 55.3 0 01-2.28-.072 86.07 86.07 0 00-2.02-.048zm4.49-4.584h-1.73v2.4c1.09.064 1.7.096 1.83.096.6 0 1.08-.112 1.41-.336.35-.224.53-.528.53-.912 0-.832-.68-1.248-2.04-1.248zm0-4.104c-.77 0-1.34.016-1.73.048v2.376h1.8c.48 0 .87-.104 1.18-.312.32-.224.48-.536.48-.936 0-.784-.58-1.176-1.73-1.176zM1427.54 44h-2.76V33.2h2.76v6.84l5.04-6.84h2.76V44h-2.76v-6.84l-5.04 6.84zm19.06-3.624l1.3 2.016c-.45.608-1.06 1.072-1.83 1.392-.75.32-1.57.48-2.47.48-1.76 0-3.17-.52-4.25-1.56-1.07-1.04-1.6-2.408-1.6-4.104 0-1.6.52-2.944 1.58-4.032s2.39-1.632 4.01-1.632c1.92 0 3.37.488 4.34 1.464l-1.29 2.184c-.72-.704-1.62-1.056-2.69-1.056-.8 0-1.51.288-2.11.864-.6.56-.89 1.296-.89 2.208 0 .928.3 1.68.91 2.256.62.56 1.36.84 2.21.84 1.05 0 1.98-.44 2.78-1.32zM1462.69 44v-4.128h-4.73V44h-2.76V33.2h2.76v4.08h4.73V33.2h2.76V44h-2.76zm6.66-8.016l-.69-2.016a7.358 7.358 0 013.81-1.032c1.54 0 2.64.376 3.31 1.128.68.752 1.01 1.872 1.01 3.36V44h-2.4v-1.248c-.65.928-1.72 1.392-3.19 1.392-1.01 0-1.82-.296-2.45-.888-.62-.592-.93-1.4-.93-2.424 0-1.136.36-2 1.1-2.592.74-.608 1.68-.912 2.83-.912.99 0 1.81.232 2.45.696.03-.944-.1-1.64-.41-2.088-.3-.464-.84-.696-1.61-.696-.8 0-1.74.248-2.83.744zm2.76 5.832c.93 0 1.63-.328 2.09-.984v-1.104c-.46-.352-1.1-.528-1.9-.528-.49 0-.91.12-1.24.36-.32.224-.48.552-.48.984 0 .4.14.712.43.936.29.224.65.336 1.1.336zM1488.45 44h-2.95V27.2c.29 0 1.05-.008 2.28-.024 1.25-.016 2.08-.024 2.5-.024 1.18 0 2.2.152 3.07.456.88.288 1.56.696 2.04 1.224.48.512.83 1.08 1.05 1.704.23.608.34 1.28.34 2.016 0 1.52-.54 2.808-1.63 3.864-1.09 1.056-2.59 1.584-4.51 1.584-.98 0-1.71-.024-2.19-.072V44zm2.11-14.088c-.35 0-1.05.016-2.11.048v5.16c.77.08 1.47.12 2.09.12.93 0 1.68-.224 2.26-.672.57-.464.86-1.144.86-2.04 0-1.744-1.03-2.616-3.1-2.616zM1510.83 44v-7.176h-7.68V44h-2.95V27.2h2.95v6.864h7.68V27.2h2.93V44h-2.93zm10.53 0h-2.95V27.2c.28 0 1.04-.008 2.28-.024 1.24-.016 2.08-.024 2.49-.024 1.19 0 2.21.152 3.07.456.88.288 1.56.696 2.04 1.224.48.512.84 1.08 1.06 1.704.22.608.34 1.28.34 2.016 0 1.52-.55 2.808-1.64 3.864-1.08 1.056-2.59 1.584-4.51 1.584-.97 0-1.7-.024-2.18-.072V44zm2.11-14.088c-.35 0-1.06.016-2.11.048v5.16c.77.08 1.46.12 2.09.12.92 0 1.68-.224 2.25-.672.58-.464.87-1.144.87-2.04 0-1.744-1.04-2.616-3.1-2.616zM1317.32 79h-2.76V68.2h2.76v6.84l5.04-6.84h2.76V79h-2.76v-6.84l-5.04 6.84zm17.99 0v-8.04h-2.86l-.07 1.152c-.18 1.936-.47 3.424-.89 4.464-.4 1.04-.91 1.744-1.53 2.112-.61.352-1.43.528-2.45.528l-.24-2.688c.35.032.68-.064.98-.288.32-.24.63-.752.91-1.536.29-.8.48-1.848.56-3.144l.16-3.36h8.19V79h-2.76zm8.59 0h-2.76V68.2h2.76v6.84l5.04-6.84h2.76V79h-2.76v-6.84L1343.9 79zm15.97 0V68.2h2.49l3.68 4.512 3.48-4.512h2.42V79h-2.76v-6.6l-3.19 4.032h-.07l-3.29-4.032V79h-2.76zm16.07-1.32c-1.07-1.072-1.6-2.432-1.6-4.08 0-1.648.53-3 1.6-4.056 1.09-1.072 2.52-1.608 4.28-1.608 1.76 0 3.17.536 4.24 1.608 1.09 1.056 1.64 2.408 1.64 4.056 0 1.648-.55 3.008-1.64 4.08-1.07 1.056-2.48 1.584-4.24 1.584-1.76 0-3.19-.528-4.28-1.584zm1.35-4.08c0 .896.27 1.64.81 2.232.56.576 1.27.864 2.12.864.86 0 1.56-.28 2.11-.84.56-.576.84-1.328.84-2.256 0-.896-.28-1.632-.84-2.208-.56-.576-1.27-.864-2.11-.864-.84 0-1.53.288-2.09.864-.56.56-.84 1.296-.84 2.208zm9.55 7.92v-5.088h1.37c.84-1.12 1.35-3 1.51-5.64l.17-2.592h7.96v8.232h1.8v5.088h-2.59V79h-7.65v2.52h-2.57zm5.54-9.624c-.19 2.096-.62 3.608-1.29 4.536h4v-5.64h-2.64l-.07 1.104zm19.51-3.696l-4.25 10.8c-.77 1.872-1.46 3.136-2.07 3.792-.59.672-1.29 1.008-2.11 1.008-.78 0-1.56-.28-2.33-.84l.89-2.088c.43.256.81.384 1.13.384.66 0 1.21-.56 1.66-1.68l.24-.576-5-10.8h3.32l2.52 5.904c.09.24.27.76.52 1.56.13-.704.26-1.232.39-1.584l1.94-5.88h3.15zm7.84 10.8v-8.04h-2.86l-.07 1.152c-.17 1.936-.47 3.424-.89 4.464-.4 1.04-.91 1.744-1.53 2.112-.61.352-1.43.528-2.45.528l-.24-2.688c.35.032.68-.064.98-.288.32-.24.63-.752.92-1.536.28-.8.47-1.848.55-3.144l.17-3.36h8.18V79h-2.76zm14.31-3.024l.79 1.944c-1.06.896-2.43 1.344-4.13 1.344-1.74 0-3.15-.52-4.22-1.56-1.06-1.04-1.59-2.408-1.59-4.104 0-1.616.52-2.96 1.56-4.032 1.04-1.088 2.43-1.632 4.15-1.632 1.43 0 2.64.472 3.63 1.416.99.928 1.49 2.128 1.49 3.6 0 .608-.06 1.104-.17 1.488h-7.8c.11.8.46 1.424 1.05 1.872.6.432 1.32.648 2.19.648 1.21 0 2.23-.328 3.05-.984zm-3.56-5.736c-1.56 0-2.51.784-2.83 2.352h5.31c.01-.672-.2-1.232-.65-1.68-.45-.448-1.06-.672-1.83-.672zm13.34 8.76V62.2h9.81v2.76h-6.86v3.744a15.66 15.66 0 012.25-.144c1.75 0 3.12.456 4.13 1.368 1.01.912 1.51 2.144 1.51 3.696 0 1.744-.56 3.096-1.7 4.056-1.12.944-2.71 1.416-4.78 1.416-.72 0-1.56-.016-2.54-.048a76.13 76.13 0 00-1.82-.048zm4.96-7.68c-.59 0-1.26.048-2.01.144v4.776c.89.064 1.52.096 1.87.096 2.06 0 3.1-.832 3.1-2.496 0-.768-.25-1.376-.75-1.824-.48-.464-1.21-.696-2.21-.696zm11.75 7.68h-2.76V68.2h2.76v6.84l5.04-6.84h2.76V79h-2.76v-6.84l-5.04 6.84zm9.75-8.04V68.2h9.84v2.76h-3.53V79h-2.76v-8.04h-3.55zm11.81 12.84V68.2h2.76v1.032c.36-.368.83-.672 1.42-.912a4.912 4.912 0 011.92-.384c1.47 0 2.66.512 3.55 1.536.9 1.024 1.35 2.344 1.35 3.96 0 1.68-.53 3.072-1.59 4.176-1.05 1.104-2.43 1.656-4.13 1.656-1.07 0-1.91-.176-2.52-.528V83.8h-2.76zm5.24-13.272c-.95 0-1.77.392-2.48 1.176v4.368c.64.416 1.4.624 2.28.624.93 0 1.67-.296 2.21-.888.55-.608.82-1.376.82-2.304 0-.88-.25-1.592-.75-2.136-.49-.56-1.19-.84-2.08-.84zM1498.24 79h-2.76V68.2h2.76v6.84l5.04-6.84h2.76V79h-2.76v-6.84l-5.04 6.84zm21.1-10.8l-4.15 5.136 4.66 5.664h-3.6l-4.28-5.448 3.89-5.352h3.48zM1509.12 79V68.2h2.76V79h-2.76zm19.88-3.624l1.29 2.016c-.44.608-1.05 1.072-1.82 1.392-.75.32-1.58.48-2.47.48-1.76 0-3.18-.52-4.25-1.56-1.07-1.04-1.61-2.408-1.61-4.104 0-1.6.53-2.944 1.59-4.032 1.05-1.088 2.39-1.632 4-1.632 1.92 0 3.37.488 4.35 1.464l-1.3 2.184c-.72-.704-1.61-1.056-2.69-1.056-.8 0-1.5.288-2.11.864-.59.56-.89 1.296-.89 2.208 0 .928.31 1.68.92 2.256.62.56 1.36.84 2.2.84 1.06 0 1.99-.44 2.79-1.32z" fill="#141414"/><rect x="1273.5" y="1.5" width="297" height="107" rx="6.5" stroke="#E4002B" stroke-width="3"/><path d="M414 54l-10-5.773v11.547L414 54zm-104 1h95v-2h-95v2zm528-1l-10-5.773v11.547L838 54zm-104 1h95v-2h-95v2zm528-1l-10-5.773v11.547L1262 54zm-104 1h95v-2h-95v2z" fill="#C5CDCF"/><path d="M472.406 44V27.2h9.72v2.76h-6.768v4.176h6.048v2.76h-6.048v4.344h7.008V44h-9.96zm11.717 2.52v-5.088h1.368c.848-1.12 1.352-3 1.512-5.64l.168-2.592h7.968v8.232h1.8v5.088h-2.592V44h-7.656v2.52h-2.568zm5.544-9.624c-.192 2.096-.624 3.608-1.296 4.536h4.008v-5.64h-2.64l-.072 1.104zM501.515 44h-2.76V33.2h2.76v6.84l5.04-6.84h2.76V44h-2.76v-6.84l-5.04 6.84zm18.368 0v-4.128h-4.728V44h-2.76V33.2h2.76v4.08h4.728V33.2h2.76V44h-2.76zm6.665-8.016l-.696-2.016a7.385 7.385 0 013.816-1.032c1.536 0 2.64.376 3.312 1.128.672.752 1.008 1.872 1.008 3.36V44h-2.4v-1.248c-.656.928-1.72 1.392-3.192 1.392-1.008 0-1.824-.296-2.448-.888-.624-.592-.936-1.4-.936-2.424 0-1.136.368-2 1.104-2.592.736-.608 1.68-.912 2.832-.912.992 0 1.808.232 2.448.696.032-.944-.104-1.64-.408-2.088-.304-.464-.84-.696-1.608-.696-.8 0-1.744.248-2.832.744zm2.76 5.832c.928 0 1.624-.328 2.088-.984v-1.104c-.464-.352-1.096-.528-1.896-.528-.496 0-.912.12-1.248.36-.32.224-.48.552-.48.984 0 .4.144.712.432.936.288.224.656.336 1.104.336zm12.789-8.616h3.528V44h-2.76v-3.24h-1.536L539.097 44h-3.168l2.88-3.84c-.544-.192-1.032-.552-1.464-1.08-.416-.544-.624-1.224-.624-2.04 0-1.136.432-2.056 1.296-2.76.88-.72 2.24-1.08 4.08-1.08zm-2.424 4.032c0 .432.176.792.528 1.08.368.272.776.408 1.224.408h1.44V35.6h-1.224c-.624 0-1.112.16-1.464.48-.336.32-.504.704-.504 1.152zm12.985-1.272V33.2h9.84v2.76h-3.528V44h-2.76v-8.04h-3.552zm12.423 6.72c-1.072-1.072-1.608-2.432-1.608-4.08 0-1.648.536-3 1.608-4.056 1.088-1.072 2.512-1.608 4.272-1.608 1.76 0 3.176.536 4.248 1.608 1.088 1.056 1.632 2.408 1.632 4.056 0 1.648-.544 3.008-1.632 4.08-1.072 1.056-2.488 1.584-4.248 1.584-1.76 0-3.184-.528-4.272-1.584zm1.344-4.08c0 .896.272 1.64.816 2.232.56.576 1.264.864 2.112.864.864 0 1.568-.28 2.112-.84.56-.576.84-1.328.84-2.256 0-.896-.28-1.632-.84-2.208-.56-.576-1.264-.864-2.112-.864-.832 0-1.528.288-2.088.864-.56.56-.84 1.296-.84 2.208zm19.909-5.4V44h-2.76v-3.72c-.784.416-1.68.624-2.688.624-1.36 0-2.352-.352-2.976-1.056-.624-.72-.936-1.784-.936-3.192V33.2h2.952v3.12c0 1.328.584 1.992 1.752 1.992.768 0 1.4-.144 1.896-.432V33.2h2.76zm13.301 0l-4.152 5.136L600.139 44h-3.6l-4.272-5.448 3.888-5.352h3.48zM589.411 44V33.2h2.76V44h-2.76zm13.192-8.016l-.696-2.016a7.385 7.385 0 013.816-1.032c1.536 0 2.64.376 3.312 1.128.672.752 1.008 1.872 1.008 3.36V44h-2.4v-1.248c-.656.928-1.72 1.392-3.192 1.392-1.008 0-1.824-.296-2.448-.888-.624-.592-.936-1.4-.936-2.424 0-1.136.368-2 1.104-2.592.736-.608 1.68-.912 2.832-.912.992 0 1.808.232 2.448.696.032-.944-.104-1.64-.408-2.088-.304-.464-.84-.696-1.608-.696-.8 0-1.744.248-2.832.744zm2.76 5.832c.928 0 1.624-.328 2.088-.984v-1.104c-.464-.352-1.096-.528-1.896-.528-.496 0-.912.12-1.248.36-.32.224-.48.552-.48.984 0 .4.144.712.432.936.288.224.656.336 1.104.336zM617.958 44V33.2c.192 0 .544-.008 1.056-.024a51.715 51.715 0 013.192-.096c3.264 0 4.896.944 4.896 2.832 0 .624-.2 1.16-.6 1.608a2.231 2.231 0 01-1.416.792v.048c1.536.368 2.304 1.2 2.304 2.496 0 2.176-1.712 3.264-5.136 3.264a55.3 55.3 0 01-2.28-.072 86.639 86.639 0 00-2.016-.048zm4.488-4.584h-1.728v2.4c1.088.064 1.696.096 1.824.096.608 0 1.08-.112 1.416-.336.352-.224.528-.528.528-.912 0-.832-.68-1.248-2.04-1.248zm0-4.104c-.768 0-1.344.016-1.728.048v2.376h1.8c.48 0 .872-.104 1.176-.312.32-.224.48-.536.48-.936 0-.784-.576-1.176-1.728-1.176zm17.879-2.112l-3.6 5.16 3.84 5.64h-3.36l-2.52-3.888L632.069 44h-3.192l3.84-5.496-3.6-5.304h3.384l2.28 3.576 2.352-3.576h3.192zm2.499 9.48c-1.072-1.072-1.608-2.432-1.608-4.08 0-1.648.536-3 1.608-4.056 1.088-1.072 2.512-1.608 4.272-1.608 1.76 0 3.176.536 4.248 1.608 1.088 1.056 1.632 2.408 1.632 4.056 0 1.648-.544 3.008-1.632 4.08-1.072 1.056-2.488 1.584-4.248 1.584-1.76 0-3.184-.528-4.272-1.584zm1.344-4.08c0 .896.272 1.64.816 2.232.56.576 1.264.864 2.112.864.864 0 1.568-.28 2.112-.84.56-.576.84-1.328.84-2.256 0-.896-.28-1.632-.84-2.208-.56-.576-1.264-.864-2.112-.864-.832 0-1.528.288-2.088.864-.56.56-.84 1.296-.84 2.208zm9.549 7.92v-5.088h1.368c.848-1.12 1.352-3 1.512-5.64l.168-2.592h7.968v8.232h1.8v5.088h-2.592V44h-7.656v2.52h-2.568zm5.544-9.624c-.192 2.096-.624 3.608-1.296 4.536h4.008v-5.64h-2.64l-.072 1.104zm9.928-.912l-.696-2.016a7.385 7.385 0 013.816-1.032c1.536 0 2.64.376 3.312 1.128.672.752 1.008 1.872 1.008 3.36V44h-2.4v-1.248c-.656.928-1.72 1.392-3.192 1.392-1.008 0-1.824-.296-2.448-.888-.624-.592-.936-1.4-.936-2.424 0-1.136.368-2 1.104-2.592.736-.608 1.68-.912 2.832-.912.992 0 1.808.232 2.448.696.032-.944-.104-1.64-.408-2.088-.304-.464-.84-.696-1.608-.696-.8 0-1.744.248-2.832.744zm2.76 5.832c.928 0 1.624-.328 2.088-.984v-1.104c-.464-.352-1.096-.528-1.896-.528-.496 0-.912.12-1.248.36-.32.224-.48.552-.48.984 0 .4.144.712.432.936.288.224.656.336 1.104.336zM481.451 81.52v-5.088h1.368c.848-1.12 1.352-3 1.512-5.64l.168-2.592h7.968v8.232h1.8v5.088h-2.592V79h-7.656v2.52h-2.568zm5.544-9.624c-.192 2.096-.624 3.608-1.296 4.536h4.008v-5.64h-2.64l-.072 1.104zM503.187 79v-8.04h-2.856l-.072 1.152c-.176 1.936-.472 3.424-.888 4.464-.4 1.04-.912 1.744-1.536 2.112-.608.352-1.424.528-2.448.528l-.24-2.688a1.4 1.4 0 00.984-.288c.32-.24.624-.752.912-1.536.288-.8.472-1.848.552-3.144l.168-3.36h8.184V79h-2.76zM514.3 68.2h3.528V79h-2.76v-3.24h-1.536L511.3 79h-3.168l2.88-3.84c-.544-.192-1.032-.552-1.464-1.08-.416-.544-.624-1.224-.624-2.04 0-1.136.432-2.056 1.296-2.76.88-.72 2.24-1.08 4.08-1.08zm-2.424 4.032c0 .432.176.792.528 1.08.368.272.776.408 1.224.408h1.44V70.6h-1.224c-.624 0-1.112.16-1.464.48-.336.32-.504.704-.504 1.152zM525.989 79V68.2c.192 0 .544-.008 1.056-.024a51.715 51.715 0 013.192-.096c3.264 0 4.896.944 4.896 2.832 0 .624-.2 1.16-.6 1.608a2.231 2.231 0 01-1.416.792v.048c1.536.368 2.304 1.2 2.304 2.496 0 2.176-1.712 3.264-5.136 3.264a55.3 55.3 0 01-2.28-.072 86.639 86.639 0 00-2.016-.048zm4.488-4.584h-1.728v2.4c1.088.064 1.696.096 1.824.096.608 0 1.08-.112 1.416-.336.352-.224.528-.528.528-.912 0-.832-.68-1.248-2.04-1.248zm0-4.104c-.768 0-1.344.016-1.728.048v2.376h1.8c.48 0 .872-.104 1.176-.312.32-.224.48-.536.48-.936 0-.784-.576-1.176-1.728-1.176zm15.743 5.064l1.296 2.016c-.448.608-1.056 1.072-1.824 1.392-.752.32-1.576.48-2.472.48-1.76 0-3.176-.52-4.248-1.56s-1.608-2.408-1.608-4.104c0-1.6.528-2.944 1.584-4.032s2.392-1.632 4.008-1.632c1.92 0 3.368.488 4.344 1.464l-1.296 2.184c-.72-.704-1.616-1.056-2.688-1.056-.8 0-1.504.288-2.112.864-.592.56-.888 1.296-.888 2.208 0 .928.304 1.68.912 2.256.624.56 1.36.84 2.208.84 1.056 0 1.984-.44 2.784-1.32zm11.397.6l.792 1.944c-1.056.896-2.432 1.344-4.128 1.344-1.744 0-3.152-.52-4.224-1.56-1.056-1.04-1.584-2.408-1.584-4.104 0-1.616.52-2.96 1.56-4.032 1.04-1.088 2.424-1.632 4.152-1.632 1.424 0 2.632.472 3.624 1.416.992.928 1.488 2.128 1.488 3.6 0 .608-.056 1.104-.168 1.488h-7.8c.112.8.464 1.424 1.056 1.872.592.432 1.32.648 2.184.648 1.216 0 2.232-.328 3.048-.984zm-3.552-5.736c-1.568 0-2.512.784-2.832 2.352h5.304c.016-.672-.2-1.232-.648-1.68-.448-.448-1.056-.672-1.824-.672zm17.213-2.04l-3.6 5.16 3.84 5.64h-3.36l-2.52-3.888L563.022 79h-3.192l3.84-5.496-3.6-5.304h3.384l2.28 3.576 2.352-3.576h3.192zm7.305 10.8V68.2h2.496l3.672 4.512 3.48-4.512h2.424V79h-2.76v-6.6l-3.192 4.032h-.072l-3.288-4.032V79h-2.76zm23.613-3.024l.792 1.944c-1.056.896-2.432 1.344-4.128 1.344-1.744 0-3.152-.52-4.224-1.56-1.056-1.04-1.584-2.408-1.584-4.104 0-1.616.52-2.96 1.56-4.032 1.04-1.088 2.424-1.632 4.152-1.632 1.424 0 2.632.472 3.624 1.416.992.928 1.488 2.128 1.488 3.6 0 .608-.056 1.104-.168 1.488h-7.8c.112.8.464 1.424 1.056 1.872.592.432 1.32.648 2.184.648 1.216 0 2.232-.328 3.048-.984zm-3.552-5.736c-1.568 0-2.512.784-2.832 2.352h5.304c.016-.672-.2-1.232-.648-1.68-.448-.448-1.056-.672-1.824-.672zm6.209.72V68.2h9.84v2.76h-3.528V79h-2.76v-8.04h-3.552zm12.424 6.72c-1.072-1.072-1.608-2.432-1.608-4.08 0-1.648.536-3 1.608-4.056 1.088-1.072 2.512-1.608 4.272-1.608 1.76 0 3.176.536 4.248 1.608 1.088 1.056 1.632 2.408 1.632 4.056 0 1.648-.544 3.008-1.632 4.08-1.072 1.056-2.488 1.584-4.248 1.584-1.76 0-3.184-.528-4.272-1.584zm1.344-4.08c0 .896.272 1.64.816 2.232.56.576 1.264.864 2.112.864.864 0 1.568-.28 2.112-.84.56-.576.84-1.328.84-2.256 0-.896-.28-1.632-.84-2.208-.56-.576-1.264-.864-2.112-.864-.832 0-1.528.288-2.088.864-.56.56-.84 1.296-.84 2.208zm9.549 7.92v-5.088h1.368c.848-1.12 1.352-3 1.512-5.64l.168-2.592h7.968v8.232h1.8v5.088h-2.592V79h-7.656v2.52h-2.568zm5.544-9.624c-.192 2.096-.624 3.608-1.296 4.536h4.008v-5.64h-2.64l-.072 1.104zm10.024 5.784c-1.072-1.072-1.608-2.432-1.608-4.08 0-1.648.536-3 1.608-4.056 1.088-1.072 2.512-1.608 4.272-1.608 1.76 0 3.176.536 4.248 1.608 1.088 1.056 1.632 2.408 1.632 4.056 0 1.648-.544 3.008-1.632 4.08-1.072 1.056-2.488 1.584-4.248 1.584-1.76 0-3.184-.528-4.272-1.584zm1.344-4.08c0 .896.272 1.64.816 2.232.56.576 1.264.864 2.112.864.864 0 1.568-.28 2.112-.84.56-.576.84-1.328.84-2.256 0-.896-.28-1.632-.84-2.208-.56-.576-1.264-.864-2.112-.864-.832 0-1.528.288-2.088.864-.56.56-.84 1.296-.84 2.208zm11.196 5.4V68.2c.192 0 .544-.008 1.056-.024a51.715 51.715 0 013.192-.096c3.264 0 4.896.944 4.896 2.832 0 .624-.2 1.16-.6 1.608a2.231 2.231 0 01-1.416.792v.048c1.536.368 2.304 1.2 2.304 2.496 0 2.176-1.712 3.264-5.136 3.264a55.3 55.3 0 01-2.28-.072 86.639 86.639 0 00-2.016-.048zm4.488-4.584h-1.728v2.4c1.088.064 1.696.096 1.824.096.608 0 1.08-.112 1.416-.336.352-.224.528-.528.528-.912 0-.832-.68-1.248-2.04-1.248zm0-4.104c-.768 0-1.344.016-1.728.048v2.376h1.8c.48 0 .872-.104 1.176-.312.32-.224.48-.536.48-.936 0-.784-.576-1.176-1.728-1.176z" fill="#141414"/><rect x="425.5" y="1.5" width="297" height="107" rx="6.5" stroke="#E4002B" stroke-width="3"/><path d="M109.629 57.16l1.128 2.208c-.528.56-1.288 1.016-2.28 1.368a9.055 9.055 0 01-3.096.528c-2.576 0-4.664-.792-6.264-2.376-1.6-1.584-2.4-3.68-2.4-6.288 0-2.512.76-4.584 2.28-6.216 1.52-1.632 3.624-2.448 6.312-2.448 2.16 0 3.864.568 5.112 1.704l-1.32 2.184c-1.136-.752-2.4-1.128-3.792-1.128-1.584 0-2.896.536-3.936 1.608-1.024 1.072-1.536 2.504-1.536 4.296 0 1.744.536 3.168 1.608 4.272 1.088 1.088 2.488 1.632 4.2 1.632 1.488 0 2.816-.448 3.984-1.344zm11.039.816l.792 1.944c-1.056.896-2.432 1.344-4.128 1.344-1.744 0-3.152-.52-4.224-1.56-1.056-1.04-1.584-2.408-1.584-4.104 0-1.616.52-2.96 1.56-4.032 1.04-1.088 2.424-1.632 4.152-1.632 1.424 0 2.632.472 3.624 1.416.992.928 1.488 2.128 1.488 3.6 0 .608-.056 1.104-.168 1.488h-7.8c.112.8.464 1.424 1.056 1.872.592.432 1.32.648 2.184.648 1.216 0 2.232-.328 3.048-.984zm-3.552-5.736c-1.568 0-2.512.784-2.832 2.352h5.304c.016-.672-.2-1.232-.648-1.68-.448-.448-1.056-.672-1.824-.672zm7.455 13.56V50.2h2.76v1.032c.352-.368.824-.672 1.416-.912a4.898 4.898 0 011.92-.384c1.472 0 2.656.512 3.552 1.536.896 1.024 1.344 2.344 1.344 3.96 0 1.68-.528 3.072-1.584 4.176s-2.432 1.656-4.128 1.656c-1.072 0-1.912-.176-2.52-.528V65.8h-2.76zm5.232-13.272c-.944 0-1.768.392-2.472 1.176v4.368c.64.416 1.4.624 2.28.624.928 0 1.664-.296 2.208-.888.544-.608.816-1.376.816-2.304 0-.88-.248-1.592-.744-2.136-.496-.56-1.192-.84-2.088-.84zM137.954 61V50.2c.192 0 .544-.008 1.056-.024a51.715 51.715 0 013.192-.096c3.264 0 4.896.944 4.896 2.832 0 .624-.2 1.16-.6 1.608a2.231 2.231 0 01-1.416.792v.048c1.536.368 2.304 1.2 2.304 2.496 0 2.176-1.712 3.264-5.136 3.264a55.3 55.3 0 01-2.28-.072 86.639 86.639 0 00-2.016-.048zm4.488-4.584h-1.728v2.4c1.088.064 1.696.096 1.824.096.608 0 1.08-.112 1.416-.336.352-.224.528-.528.528-.912 0-.832-.68-1.248-2.04-1.248zm0-4.104c-.768 0-1.344.016-1.728.048v2.376h1.8c.48 0 .872-.104 1.176-.312.32-.224.48-.536.48-.936 0-.784-.576-1.176-1.728-1.176zm16.031 5.664l.792 1.944c-1.056.896-2.432 1.344-4.128 1.344-1.744 0-3.152-.52-4.224-1.56-1.056-1.04-1.584-2.408-1.584-4.104 0-1.616.52-2.96 1.56-4.032 1.04-1.088 2.424-1.632 4.152-1.632 1.424 0 2.632.472 3.624 1.416.992.928 1.488 2.128 1.488 3.6 0 .608-.056 1.104-.168 1.488h-7.8c.112.8.464 1.424 1.056 1.872.592.432 1.32.648 2.184.648 1.216 0 2.232-.328 3.048-.984zm-3.552-5.736c-1.568 0-2.512.784-2.832 2.352h5.304c.016-.672-.2-1.232-.648-1.68-.448-.448-1.056-.672-1.824-.672zm7.455 13.56V50.2h2.76v1.032c.352-.368.824-.672 1.416-.912a4.898 4.898 0 011.92-.384c1.472 0 2.656.512 3.552 1.536.896 1.024 1.344 2.344 1.344 3.96 0 1.68-.528 3.072-1.584 4.176s-2.432 1.656-4.128 1.656c-1.072 0-1.912-.176-2.52-.528V65.8h-2.76zm5.232-13.272c-.944 0-1.768.392-2.472 1.176v4.368c.64.416 1.4.624 2.28.624.928 0 1.664-.296 2.208-.888.544-.608.816-1.376.816-2.304 0-.88-.248-1.592-.744-2.136-.496-.56-1.192-.84-2.088-.84zm12.229-5.16l4.296-3.216h1.992V61h-2.76V48.088l-2.064 1.56-1.464-2.28zm22.792 9.792l1.128 2.208c-.528.56-1.288 1.016-2.28 1.368a9.055 9.055 0 01-3.096.528c-2.576 0-4.664-.792-6.264-2.376-1.6-1.584-2.4-3.68-2.4-6.288 0-2.512.76-4.584 2.28-6.216 1.52-1.632 3.624-2.448 6.312-2.448 2.16 0 3.864.568 5.112 1.704l-1.32 2.184c-1.136-.752-2.4-1.128-3.792-1.128-1.584 0-2.896.536-3.936 1.608-1.024 1.072-1.536 2.504-1.536 4.296 0 1.744.536 3.168 1.608 4.272 1.088 1.088 2.488 1.632 4.2 1.632 1.488 0 2.816-.448 3.984-1.344z" fill="#141414"/><rect x="1.5" y="18.5" width="297" height="72" rx="6.5" stroke="#E4002B" stroke-width="3"/></svg>