<svg width="1572" height="407" viewBox="0 0 1572 407" fill="none" xmlns="http://www.w3.org/2000/svg"><path d="M61.265 51v-7.176h-7.68V51h-2.952V34.2h2.952v6.864h7.68V34.2h2.928V51h-2.928zm7.627-8.016l-.696-2.016a7.385 7.385 0 013.816-1.032c1.536 0 2.64.376 3.312 1.128.672.752 1.008 1.872 1.008 3.36V51h-2.4v-1.248c-.656.928-1.72 1.392-3.192 1.392-1.008 0-1.824-.296-2.448-.888-.624-.592-.936-1.4-.936-2.424 0-1.136.368-2 1.104-2.592.736-.608 1.68-.912 2.832-.912.992 0 1.808.232 2.448.696.032-.944-.104-1.64-.408-2.088-.304-.464-.84-.696-1.608-.696-.8 0-1.744.248-2.832.744zm2.76 5.832c.928 0 1.624-.328 2.088-.984v-1.104c-.464-.352-1.096-.528-1.896-.528-.496 0-.912.12-1.248.36-.32.224-.48.552-.48.984 0 .4.144.712.432.936.288.224.656.336 1.104.336zm20.779-1.44l1.296 2.016c-.448.608-1.056 1.072-1.824 1.392-.752.32-1.576.48-2.472.48-1.76 0-3.176-.52-4.248-1.56s-1.608-2.408-1.608-4.104c0-1.6.528-2.944 1.584-4.032s2.392-1.632 4.008-1.632c1.92 0 3.368.488 4.344 1.464l-1.296 2.184c-.72-.704-1.616-1.056-2.688-1.056-.8 0-1.504.288-2.112.864-.592.56-.888 1.296-.888 2.208 0 .928.304 1.68.912 2.256.624.56 1.36.84 2.208.84 1.056 0 1.984-.44 2.784-1.32zm4.351-4.392l-.696-2.016a7.385 7.385 0 013.816-1.032c1.536 0 2.64.376 3.312 1.128.672.752 1.008 1.872 1.008 3.36V51h-2.4v-1.248c-.656.928-1.72 1.392-3.192 1.392-1.008 0-1.824-.296-2.448-.888-.624-.592-.936-1.4-.936-2.424 0-1.136.368-2 1.104-2.592.736-.608 1.68-.912 2.832-.912.992 0 1.808.232 2.448.696.032-.944-.104-1.64-.408-2.088-.304-.464-.84-.696-1.608-.696-.8 0-1.744.248-2.832.744zm2.76 5.832c.928 0 1.624-.328 2.088-.984v-1.104c-.464-.352-1.096-.528-1.896-.528-.496 0-.912.12-1.248.36-.32.224-.48.552-.48.984 0 .4.144.712.432.936.288.224.656.336 1.104.336zM109.812 51h-2.76V40.2h2.76v6.84l5.04-6.84h2.76V51h-2.76v-6.84l-5.04 6.84zm-1.152-16.2h2.52c0 .496.096.912.288 1.248.208.336.528.504.96.504a.934.934 0 00.864-.504c.192-.336.288-.752.288-1.248h2.52c0 1.088-.32 1.984-.96 2.688-.64.688-1.544 1.032-2.712 1.032-1.28 0-2.232-.336-2.856-1.008-.608-.688-.912-1.592-.912-2.712zm10.904 8.16V40.2h9.84v2.76h-3.528V51h-2.76v-8.04h-3.552zm19.96 5.016l.792 1.944c-1.056.896-2.432 1.344-4.128 1.344-1.744 0-3.152-.52-4.224-1.56-1.056-1.04-1.584-2.408-1.584-4.104 0-1.616.52-2.96 1.56-4.032 1.04-1.088 2.424-1.632 4.152-1.632 1.424 0 2.632.472 3.624 1.416.992.928 1.488 2.128 1.488 3.6 0 .608-.056 1.104-.168 1.488h-7.8c.112.8.464 1.424 1.056 1.872.592.432 1.32.648 2.184.648 1.216 0 2.232-.328 3.048-.984zm-3.552-5.736c-1.568 0-2.512.784-2.832 2.352h5.304c.016-.672-.2-1.232-.648-1.68-.448-.448-1.056-.672-1.824-.672zM156.001 51v-4.128h-4.728V51h-2.76V40.2h2.76v4.08h4.728V40.2h2.76V51h-2.76zm6.76-1.32c-1.072-1.072-1.608-2.432-1.608-4.08 0-1.648.536-3 1.608-4.056 1.088-1.072 2.512-1.608 4.272-1.608 1.76 0 3.176.536 4.248 1.608 1.088 1.056 1.632 2.408 1.632 4.056 0 1.648-.544 3.008-1.632 4.08-1.072 1.056-2.488 1.584-4.248 1.584-1.76 0-3.184-.528-4.272-1.584zm1.344-4.08c0 .896.272 1.64.816 2.232.56.576 1.264.864 2.112.864.864 0 1.568-.28 2.112-.84.56-.576.84-1.328.84-2.256 0-.896-.28-1.632-.84-2.208-.56-.576-1.264-.864-2.112-.864-.832 0-1.528.288-2.088.864-.56.56-.84 1.296-.84 2.208zm11.197 5.4V40.2c.192 0 .544-.008 1.056-.024a51.715 51.715 0 013.192-.096c3.264 0 4.896.944 4.896 2.832 0 .624-.2 1.16-.6 1.608a2.231 2.231 0 01-1.416.792v.048c1.536.368 2.304 1.2 2.304 2.496 0 2.176-1.712 3.264-5.136 3.264a55.3 55.3 0 01-2.28-.072 86.639 86.639 0 00-2.016-.048zm4.488-4.584h-1.728v2.4c1.088.064 1.696.096 1.824.096.608 0 1.08-.112 1.416-.336.352-.224.528-.528.528-.912 0-.832-.68-1.248-2.04-1.248zm0-4.104c-.768 0-1.344.016-1.728.048v2.376h1.8c.48 0 .872-.104 1.176-.312.32-.224.48-.536.48-.936 0-.784-.576-1.176-1.728-1.176zM187.349 51V40.2h2.76v2.952h1.344c1.696 0 2.912.352 3.648 1.056.736.704 1.104 1.6 1.104 2.688 0 1.168-.4 2.144-1.2 2.928-.8.784-2.056 1.176-3.768 1.176h-3.888zm10.392 0V40.2h2.76V51h-2.76zm-6.528-5.64h-1.104v3.24h1.08c1.392 0 2.088-.536 2.088-1.608 0-1.088-.688-1.632-2.064-1.632zM206.327 51h-2.76V40.2h2.76v6.84l5.04-6.84h2.76V51h-2.76v-6.84l-5.04 6.84zm-1.152-16.2h2.52c0 .496.096.912.288 1.248.208.336.528.504.96.504a.934.934 0 00.864-.504c.192-.336.288-.752.288-1.248h2.52c0 1.088-.32 1.984-.96 2.688-.64.688-1.544 1.032-2.712 1.032-1.28 0-2.232-.336-2.856-1.008-.608-.688-.912-1.592-.912-2.712zM229.662 51v-8.208h-4.608V51h-2.76V40.2h10.128V51h-2.76zm6.763-1.32c-1.072-1.072-1.608-2.432-1.608-4.08 0-1.648.536-3 1.608-4.056 1.088-1.072 2.512-1.608 4.272-1.608 1.76 0 3.176.536 4.248 1.608 1.088 1.056 1.632 2.408 1.632 4.056 0 1.648-.544 3.008-1.632 4.08-1.072 1.056-2.488 1.584-4.248 1.584-1.76 0-3.184-.528-4.272-1.584zm1.344-4.08c0 .896.272 1.64.816 2.232.56.576 1.264.864 2.112.864.864 0 1.568-.28 2.112-.84.56-.576.84-1.328.84-2.256 0-.896-.28-1.632-.84-2.208-.56-.576-1.264-.864-2.112-.864-.832 0-1.528.288-2.088.864-.56.56-.84 1.296-.84 2.208zm17.949 5.4v-8.04h-2.856l-.072 1.152c-.176 1.936-.472 3.424-.888 4.464-.4 1.04-.912 1.744-1.536 2.112-.608.352-1.424.528-2.448.528l-.24-2.688a1.4 1.4 0 00.984-.288c.32-.24.624-.752.912-1.536.288-.8.472-1.848.552-3.144l.168-3.36h8.184V51h-2.76zm5.834 0V40.2h2.76v2.952h1.488c1.696 0 2.912.352 3.648 1.056.736.704 1.104 1.6 1.104 2.688 0 1.168-.4 2.144-1.2 2.928-.8.784-2.056 1.176-3.768 1.176h-4.032zm4.008-5.64h-1.248v3.24h1.224c1.392 0 2.088-.536 2.088-1.608 0-1.088-.688-1.632-2.064-1.632zm11.011 5.904a7.8 7.8 0 01-2.76-.504c-.896-.352-1.544-.784-1.944-1.296l1.416-1.728c.32.368.776.68 1.368.936.608.256 1.168.384 1.68.384.704 0 1.248-.12 1.632-.36.384-.24.576-.56.576-.96a1.07 1.07 0 00-.432-.888c-.288-.224-.688-.336-1.2-.336h-2.016v-1.848h1.896c.432 0 .776-.128 1.032-.384.272-.256.408-.568.408-.936 0-.784-.632-1.176-1.896-1.176-.992 0-1.976.416-2.952 1.248l-1.152-1.656c1.04-1.216 2.584-1.824 4.632-1.824 1.408 0 2.48.272 3.216.816.736.544 1.104 1.296 1.104 2.256 0 .528-.176 1.008-.528 1.44-.352.432-.84.752-1.464.96v.048c.736.144 1.296.448 1.68.912.4.448.6.992.6 1.632 0 1.008-.448 1.808-1.344 2.4-.896.576-2.08.864-3.552.864zm8.44-1.584c-1.072-1.072-1.608-2.432-1.608-4.08 0-1.648.536-3 1.608-4.056 1.088-1.072 2.512-1.608 4.272-1.608 1.76 0 3.176.536 4.248 1.608 1.088 1.056 1.632 2.408 1.632 4.056 0 1.648-.544 3.008-1.632 4.08-1.072 1.056-2.488 1.584-4.248 1.584-1.76 0-3.184-.528-4.272-1.584zm1.344-4.08c0 .896.272 1.64.816 2.232.56.576 1.264.864 2.112.864.864 0 1.568-.28 2.112-.84.56-.576.84-1.328.84-2.256 0-.896-.28-1.632-.84-2.208-.56-.576-1.264-.864-2.112-.864-.832 0-1.528.288-2.088.864-.56.56-.84 1.296-.84 2.208zm11.197 5.4V40.2c.192 0 .544-.008 1.056-.024a51.715 51.715 0 013.192-.096c3.264 0 4.896.944 4.896 2.832 0 .624-.2 1.16-.6 1.608a2.231 2.231 0 01-1.416.792v.048c1.536.368 2.304 1.2 2.304 2.496 0 2.176-1.712 3.264-5.136 3.264a55.3 55.3 0 01-2.28-.072 86.639 86.639 0 00-2.016-.048zm4.488-4.584h-1.728v2.4c1.088.064 1.696.096 1.824.096.608 0 1.08-.112 1.416-.336.352-.224.528-.528.528-.912 0-.832-.68-1.248-2.04-1.248zm0-4.104c-.768 0-1.344.016-1.728.048v2.376h1.8c.48 0 .872-.104 1.176-.312.32-.224.48-.536.48-.936 0-.784-.576-1.176-1.728-1.176zm8.399.672l-.696-2.016a7.385 7.385 0 013.816-1.032c1.536 0 2.64.376 3.312 1.128.672.752 1.008 1.872 1.008 3.36V51h-2.4v-1.248c-.656.928-1.72 1.392-3.192 1.392-1.008 0-1.824-.296-2.448-.888-.624-.592-.936-1.4-.936-2.424 0-1.136.368-2 1.104-2.592.736-.608 1.68-.912 2.832-.912.992 0 1.808.232 2.448.696.032-.944-.104-1.64-.408-2.088-.304-.464-.84-.696-1.608-.696-.8 0-1.744.248-2.832.744zm2.76 5.832c.928 0 1.624-.328 2.088-.984v-1.104c-.464-.352-1.096-.528-1.896-.528-.496 0-.912.12-1.248.36-.32.224-.48.552-.48.984 0 .4.144.712.432.936.288.224.656.336 1.104.336zm6.381-5.856V40.2h9.84v2.76h-3.528V51h-2.76v-8.04h-3.552zm19.959 5.016l.792 1.944c-1.056.896-2.432 1.344-4.128 1.344-1.744 0-3.152-.52-4.224-1.56-1.056-1.04-1.584-2.408-1.584-4.104 0-1.616.52-2.96 1.56-4.032 1.04-1.088 2.424-1.632 4.152-1.632 1.424 0 2.632.472 3.624 1.416.992.928 1.488 2.128 1.488 3.6 0 .608-.056 1.104-.168 1.488h-7.8c.112.8.464 1.424 1.056 1.872.592.432 1.32.648 2.184.648 1.216 0 2.232-.328 3.048-.984zm-3.552-5.736c-1.568 0-2.512.784-2.832 2.352h5.304c.016-.672-.2-1.232-.648-1.68-.448-.448-1.056-.672-1.824-.672zM350.195 51v-8.04h-2.856l-.072 1.152c-.176 1.936-.472 3.424-.888 4.464-.4 1.04-.912 1.744-1.536 2.112-.608.352-1.424.528-2.448.528l-.24-2.688a1.4 1.4 0 00.984-.288c.32-.24.624-.752.912-1.536.288-.8.472-1.848.552-3.144l.168-3.36h8.184V51h-2.76zm5.833 0V40.2h2.76v2.952h1.488c1.696 0 2.912.352 3.648 1.056.736.704 1.104 1.6 1.104 2.688 0 1.168-.4 2.144-1.2 2.928-.8.784-2.056 1.176-3.768 1.176h-4.032zm4.008-5.64h-1.248v3.24h1.224c1.392 0 2.088-.536 2.088-1.608 0-1.088-.688-1.632-2.064-1.632z" fill="#fff"/><rect x="1.5" y="1.5" width="413" height="86" rx="6.5" stroke="#E4002B" stroke-width="3"/><path d="M97.769 213v-5.76h1.8c.495-.608 1.015-1.848 1.559-3.72.56-1.888.904-4.208 1.032-6.96l.168-3.36h10.416v14.04h2.28V213h-2.76v-3h-11.736v3h-2.76zm7.151-14.112c-.144 1.968-.44 3.736-.888 5.304s-.856 2.584-1.224 3.048h7.008v-11.28h-4.632l-.264 2.928zm13.077 3.096l-.696-2.016a7.385 7.385 0 013.816-1.032c1.536 0 2.64.376 3.312 1.128.672.752 1.008 1.872 1.008 3.36V210h-2.4v-1.248c-.656.928-1.72 1.392-3.192 1.392-1.008 0-1.824-.296-2.448-.888-.624-.592-.936-1.4-.936-2.424 0-1.136.368-2 1.104-2.592.736-.608 1.68-.912 2.832-.912.992 0 1.808.232 2.448.696.032-.944-.104-1.64-.408-2.088-.304-.464-.84-.696-1.608-.696-.8 0-1.744.248-2.832.744zm2.76 5.832c.928 0 1.624-.328 2.088-.984v-1.104c-.464-.352-1.096-.528-1.896-.528-.496 0-.912.12-1.248.36-.32.224-.48.552-.48.984 0 .4.144.712.432.936.288.224.656.336 1.104.336zM135.754 210v-4.128h-4.728V210h-2.76v-10.8h2.76v4.08h4.728v-4.08h2.76V210h-2.76zm13.313 0v-4.128h-4.728V210h-2.76v-10.8h2.76v4.08h4.728v-4.08h2.76V210h-2.76zm5.824 0v-10.8h2.76v2.952h1.344c1.696 0 2.912.352 3.648 1.056.736.704 1.104 1.6 1.104 2.688 0 1.168-.4 2.144-1.2 2.928-.8.784-2.056 1.176-3.768 1.176h-3.888zm10.392 0v-10.8h2.76V210h-2.76zm-6.528-5.64h-1.104v3.24h1.08c1.392 0 2.088-.536 2.088-1.608 0-1.088-.688-1.632-2.064-1.632zm20.827 2.616l.792 1.944c-1.056.896-2.432 1.344-4.128 1.344-1.744 0-3.152-.52-4.224-1.56-1.056-1.04-1.584-2.408-1.584-4.104 0-1.616.52-2.96 1.56-4.032 1.04-1.088 2.424-1.632 4.152-1.632 1.424 0 2.632.472 3.624 1.416.992.928 1.488 2.128 1.488 3.6 0 .608-.056 1.104-.168 1.488h-7.8c.112.8.464 1.424 1.056 1.872.592.432 1.32.648 2.184.648 1.216 0 2.232-.328 3.048-.984zm-3.552-5.736c-1.568 0-2.512.784-2.832 2.352h5.304c.016-.672-.2-1.232-.648-1.68-.448-.448-1.056-.672-1.824-.672zm22.957-2.04l-4.248 10.8c-.768 1.872-1.456 3.136-2.064 3.792-.592.672-1.296 1.008-2.112 1.008-.784 0-1.56-.28-2.328-.84l.888-2.088c.432.256.808.384 1.128.384.656 0 1.208-.56 1.656-1.68l.24-.576-4.992-10.8h3.312l2.52 5.904c.096.24.272.76.528 1.56.128-.704.256-1.232.384-1.584l1.944-5.88h3.144zm1.654 10.8v-10.8h2.76v8.232h3.048V199.2h2.76v8.232h3.072V199.2h2.76V210h-14.4zm24.565 0v-8.04h-2.856l-.072 1.152c-.176 1.936-.472 3.424-.888 4.464-.4 1.04-.912 1.744-1.536 2.112-.608.352-1.424.528-2.448.528l-.24-2.688a1.4 1.4 0 00.984-.288c.32-.24.624-.752.912-1.536.288-.8.472-1.848.552-3.144l.168-3.36h8.184V210h-2.76zm8.594 0h-2.76v-10.8h2.76v6.84l5.04-6.84h2.76V210h-2.76v-6.84L233.8 210zm15.966 0v-10.8c.192 0 .544-.008 1.056-.024a51.715 51.715 0 013.192-.096c3.264 0 4.896.944 4.896 2.832 0 .624-.2 1.16-.6 1.608a2.231 2.231 0 01-1.416.792v.048c1.536.368 2.304 1.2 2.304 2.496 0 2.176-1.712 3.264-5.136 3.264a55.3 55.3 0 01-2.28-.072 86.639 86.639 0 00-2.016-.048zm4.488-4.584h-1.728v2.4c1.088.064 1.696.096 1.824.096.608 0 1.08-.112 1.416-.336.352-.224.528-.528.528-.912 0-.832-.68-1.248-2.04-1.248zm0-4.104c-.768 0-1.344.016-1.728.048v2.376h1.8c.48 0 .872-.104 1.176-.312.32-.224.48-.536.48-.936 0-.784-.576-1.176-1.728-1.176zm25.101 4.848l1.128 2.208c-.528.56-1.288 1.016-2.28 1.368a9.055 9.055 0 01-3.096.528c-2.576 0-4.664-.792-6.264-2.376-1.6-1.584-2.4-3.68-2.4-6.288 0-2.512.76-4.584 2.28-6.216 1.52-1.632 3.624-2.448 6.312-2.448 2.16 0 3.864.568 5.112 1.704l-1.32 2.184c-1.136-.752-2.4-1.128-3.792-1.128-1.584 0-2.896.536-3.936 1.608-1.024 1.072-1.536 2.504-1.536 4.296 0 1.744.536 3.168 1.608 4.272 1.088 1.088 2.488 1.632 4.2 1.632 1.488 0 2.816-.448 3.984-1.344zm7.015 3.84h-2.952v-16.8c.352 0 1.256-.008 2.712-.024 1.472-.016 2.272-.024 2.4-.024 4.064 0 6.096 1.728 6.096 5.184 0 1.296-.328 2.352-.984 3.168-.656.8-1.408 1.344-2.256 1.632l5.256 6.864h-3.576l-4.632-6.288h-2.064V210zm2.016-14.088c-.288 0-.96.016-2.016.048v4.992h1.92c.912 0 1.672-.224 2.28-.672.624-.464.936-1.104.936-1.92 0-1.632-1.04-2.448-3.12-2.448zM299.215 210v-16.8h2.976l5.736 7.848 5.472-7.848h2.784V210h-2.928v-12.144l-5.304 7.464h-.432l-5.352-7.392V210h-2.952z" fill="#fff"/><rect x="1.5" y="160.5" width="413" height="86" rx="6.5" stroke="#E4002B" stroke-width="3"/><path d="M62.183 365.16l1.128 2.208c-.528.56-1.288 1.016-2.28 1.368a9.055 9.055 0 01-3.096.528c-2.576 0-4.664-.792-6.264-2.376-1.6-1.584-2.4-3.68-2.4-6.288 0-2.512.76-4.584 2.28-6.216 1.52-1.632 3.624-2.448 6.312-2.448 2.16 0 3.864.568 5.112 1.704l-1.32 2.184c-1.136-.752-2.4-1.128-3.792-1.128-1.584 0-2.896.536-3.936 1.608-1.024 1.072-1.536 2.504-1.536 4.296 0 1.744.536 3.168 1.608 4.272 1.088 1.088 2.488 1.632 4.2 1.632 1.488 0 2.816-.448 3.984-1.344zm7.015 3.84h-2.952v-16.8c.352 0 1.256-.008 2.712-.024 1.472-.016 2.272-.024 2.4-.024 4.064 0 6.096 1.728 6.096 5.184 0 1.296-.328 2.352-.984 3.168-.656.8-1.408 1.344-2.256 1.632L79.47 369h-3.576l-4.632-6.288h-2.064V369zm2.016-14.088c-.288 0-.96.016-2.016.048v4.992h1.92c.912 0 1.672-.224 2.28-.672.624-.464.936-1.104.936-1.92 0-1.632-1.04-2.448-3.12-2.448zM82.043 369v-16.8h2.976l5.736 7.848 5.472-7.848h2.784V369h-2.928v-12.144l-5.304 7.464h-.432l-5.352-7.392V369h-2.952zm25.927 0v-10.8c.192 0 .544-.008 1.056-.024a51.715 51.715 0 013.192-.096c3.264 0 4.896.944 4.896 2.832 0 .624-.2 1.16-.6 1.608a2.231 2.231 0 01-1.416.792v.048c1.536.368 2.304 1.2 2.304 2.496 0 2.176-1.712 3.264-5.136 3.264a55.3 55.3 0 01-2.28-.072 86.639 86.639 0 00-2.016-.048zm4.488-4.584h-1.728v2.4c1.088.064 1.696.096 1.824.096.608 0 1.08-.112 1.416-.336.352-.224.528-.528.528-.912 0-.832-.68-1.248-2.04-1.248zm0-4.104c-.768 0-1.344.016-1.728.048v2.376h1.8c.48 0 .872-.104 1.176-.312.32-.224.48-.536.48-.936 0-.784-.576-1.176-1.728-1.176zm16.03 5.664l.792 1.944c-1.056.896-2.432 1.344-4.128 1.344-1.744 0-3.152-.52-4.224-1.56-1.056-1.04-1.584-2.408-1.584-4.104 0-1.616.52-2.96 1.56-4.032 1.04-1.088 2.424-1.632 4.152-1.632 1.424 0 2.632.472 3.624 1.416.992.928 1.488 2.128 1.488 3.6 0 .608-.056 1.104-.168 1.488h-7.8c.112.8.464 1.424 1.056 1.872.592.432 1.32.648 2.184.648 1.216 0 2.232-.328 3.048-.984zm-3.552-5.736c-1.568 0-2.512.784-2.832 2.352h5.304c.016-.672-.2-1.232-.648-1.68-.448-.448-1.056-.672-1.824-.672zm7.455 13.56v-15.6h2.76v1.032c.352-.368.824-.672 1.416-.912a4.898 4.898 0 011.92-.384c1.472 0 2.656.512 3.552 1.536.896 1.024 1.344 2.344 1.344 3.96 0 1.68-.528 3.072-1.584 4.176s-2.432 1.656-4.128 1.656c-1.072 0-1.912-.176-2.52-.528v5.064h-2.76zm5.232-13.272c-.944 0-1.768.392-2.472 1.176v4.368c.64.416 1.4.624 2.28.624.928 0 1.664-.296 2.208-.888.544-.608.816-1.376.816-2.304 0-.88-.248-1.592-.744-2.136-.496-.56-1.192-.84-2.088-.84zM153.262 369v-4.128h-4.728V369h-2.76v-10.8h2.76v4.08h4.728v-4.08h2.76V369h-2.76zm16.241-10.8l-4.248 10.8c-.768 1.872-1.456 3.136-2.064 3.792-.592.672-1.296 1.008-2.112 1.008-.784 0-1.56-.28-2.328-.84l.888-2.088c.432.256.808.384 1.128.384.656 0 1.208-.56 1.656-1.68l.24-.576-4.992-10.8h3.312l2.52 5.904c.096.24.272.76.528 1.56.128-.704.256-1.232.384-1.584l1.944-5.88h3.144zm7.844 10.8v-8.04h-2.856l-.072 1.152c-.176 1.936-.472 3.424-.888 4.464-.4 1.04-.912 1.744-1.536 2.112-.608.352-1.424.528-2.448.528l-.24-2.688a1.4 1.4 0 00.984-.288c.32-.24.624-.752.912-1.536.288-.8.472-1.848.552-3.144l.168-3.36h8.184V369h-2.76zm6.674-8.016l-.696-2.016a7.385 7.385 0 013.816-1.032c1.536 0 2.64.376 3.312 1.128.672.752 1.008 1.872 1.008 3.36V369h-2.4v-1.248c-.656.928-1.72 1.392-3.192 1.392-1.008 0-1.824-.296-2.448-.888-.624-.592-.936-1.4-.936-2.424 0-1.136.368-2 1.104-2.592.736-.608 1.68-.912 2.832-.912.992 0 1.808.232 2.448.696.032-.944-.104-1.64-.408-2.088-.304-.464-.84-.696-1.608-.696-.8 0-1.744.248-2.832.744zm2.76 5.832c.928 0 1.624-.328 2.088-.984v-1.104c-.464-.352-1.096-.528-1.896-.528-.496 0-.912.12-1.248.36-.32.224-.48.552-.48.984 0 .4.144.712.432.936.288.224.656.336 1.104.336zm23.011-8.616l-4.248 10.8c-.768 1.872-1.456 3.136-2.064 3.792-.592.672-1.296 1.008-2.112 1.008-.784 0-1.56-.28-2.328-.84l.888-2.088c.432.256.808.384 1.128.384.656 0 1.208-.56 1.656-1.68l.24-.576-4.992-10.8h3.312l2.52 5.904c.096.24.272.76.528 1.56.128-.704.256-1.232.384-1.584l1.944-5.88h3.144zm1.654 15.6v-15.6h2.76v1.032c.352-.368.824-.672 1.416-.912a4.898 4.898 0 011.92-.384c1.472 0 2.656.512 3.552 1.536.896 1.024 1.344 2.344 1.344 3.96 0 1.68-.528 3.072-1.584 4.176s-2.432 1.656-4.128 1.656c-1.072 0-1.912-.176-2.52-.528v5.064h-2.76zm5.232-13.272c-.944 0-1.768.392-2.472 1.176v4.368c.64.416 1.4.624 2.28.624.928 0 1.664-.296 2.208-.888.544-.608.816-1.376.816-2.304 0-.88-.248-1.592-.744-2.136-.496-.56-1.192-.84-2.088-.84zm9.087 7.152c-1.072-1.072-1.608-2.432-1.608-4.08 0-1.648.536-3 1.608-4.056 1.088-1.072 2.512-1.608 4.272-1.608 1.76 0 3.176.536 4.248 1.608 1.088 1.056 1.632 2.408 1.632 4.056 0 1.648-.544 3.008-1.632 4.08-1.072 1.056-2.488 1.584-4.248 1.584-1.76 0-3.184-.528-4.272-1.584zm1.344-4.08c0 .896.272 1.64.816 2.232.56.576 1.264.864 2.112.864.864 0 1.568-.28 2.112-.84.56-.576.84-1.328.84-2.256 0-.896-.28-1.632-.84-2.208-.56-.576-1.264-.864-2.112-.864-.832 0-1.528.288-2.088.864-.56.56-.84 1.296-.84 2.208zm11.197 5.4v-10.8c.192 0 .544-.008 1.056-.024a51.715 51.715 0 013.192-.096c3.264 0 4.896.944 4.896 2.832 0 .624-.2 1.16-.6 1.608a2.231 2.231 0 01-1.416.792v.048c1.536.368 2.304 1.2 2.304 2.496 0 2.176-1.712 3.264-5.136 3.264a55.3 55.3 0 01-2.28-.072 86.639 86.639 0 00-2.016-.048zm4.488-4.584h-1.728v2.4c1.088.064 1.696.096 1.824.096.608 0 1.08-.112 1.416-.336.352-.224.528-.528.528-.912 0-.832-.68-1.248-2.04-1.248zm0-4.104c-.768 0-1.344.016-1.728.048v2.376h1.8c.48 0 .872-.104 1.176-.312.32-.224.48-.536.48-.936 0-.784-.576-1.176-1.728-1.176zm16.03 5.664l.792 1.944c-1.056.896-2.432 1.344-4.128 1.344-1.744 0-3.152-.52-4.224-1.56-1.056-1.04-1.584-2.408-1.584-4.104 0-1.616.52-2.96 1.56-4.032 1.04-1.088 2.424-1.632 4.152-1.632 1.424 0 2.632.472 3.624 1.416.992.928 1.488 2.128 1.488 3.6 0 .608-.056 1.104-.168 1.488h-7.8c.112.8.464 1.424 1.056 1.872.592.432 1.32.648 2.184.648 1.216 0 2.232-.328 3.048-.984zm-3.552-5.736c-1.568 0-2.512.784-2.832 2.352h5.304c.016-.672-.2-1.232-.648-1.68-.448-.448-1.056-.672-1.824-.672zm14.943 8.76v-4.128h-4.728V369h-2.76v-10.8h2.76v4.08h4.728v-4.08h2.76V369h-2.76zm5.825 0v-10.8h2.76v2.952h1.488c1.696 0 2.912.352 3.648 1.056.736.704 1.104 1.6 1.104 2.688 0 1.168-.4 2.144-1.2 2.928-.8.784-2.056 1.176-3.768 1.176h-4.032zm4.008-5.64H278.8v3.24h1.224c1.392 0 2.088-.536 2.088-1.608 0-1.088-.688-1.632-2.064-1.632zm20.465 2.016l1.296 2.016c-.448.608-1.056 1.072-1.824 1.392-.752.32-1.576.48-2.472.48-1.76 0-3.176-.52-4.248-1.56s-1.608-2.408-1.608-4.104c0-1.6.528-2.944 1.584-4.032s2.392-1.632 4.008-1.632c1.92 0 3.368.488 4.344 1.464l-1.296 2.184c-.72-.704-1.616-1.056-2.688-1.056-.8 0-1.504.288-2.112.864-.592.56-.888 1.296-.888 2.208 0 .928.304 1.68.912 2.256.624.56 1.36.84 2.208.84 1.056 0 1.984-.44 2.784-1.32zm13.735-7.176l-4.152 5.136 4.656 5.664h-3.6l-4.272-5.448 3.888-5.352h3.48zM304.024 369v-10.8h2.76V369h-2.76zm15.112 0h-2.76v-10.8h2.76v6.84l5.04-6.84h2.76V369h-2.76v-6.84l-5.04 6.84zm9.584 2.52v-5.088h1.368c.848-1.12 1.352-3 1.512-5.64l.168-2.592h7.968v8.232h1.8v5.088h-2.592V369h-7.656v2.52h-2.568zm5.544-9.624c-.192 2.096-.624 3.608-1.296 4.536h4.008v-5.64h-2.64l-.072 1.104zm19.312-3.696l-4.152 5.136L354.08 369h-3.6l-4.272-5.448 3.888-5.352h3.48zM343.352 369v-10.8h2.76V369h-2.76zm15.112 0h-2.76v-10.8h2.76v6.84l5.04-6.84h2.76V369h-2.76v-6.84l-5.04 6.84z" fill="#fff"/><rect x="1.5" y="319.5" width="413" height="86" rx="6.5" stroke="#E4002B" stroke-width="3"/><path d="M685.402 209.976v-16.728c1.568-.08 3.184-.12 4.848-.12 1.904 0 3.296.384 4.176 1.152.896.752 1.344 1.752 1.344 3 0 1.792-.8 3.064-2.4 3.816v.048c.88.224 1.592.664 2.136 1.32s.816 1.52.816 2.592c0 1.664-.576 2.92-1.728 3.768-1.136.848-2.64 1.272-4.512 1.272-2.032 0-3.592-.04-4.68-.12zm5.04-7.2h-2.088v4.44c.672.08 1.32.12 1.944.12 2.048 0 3.072-.808 3.072-2.424 0-.704-.256-1.232-.768-1.584-.512-.368-1.232-.552-2.16-.552zm-.24-6.888c-.704 0-1.32.024-1.848.072v4.248h1.992c.736 0 1.336-.184 1.8-.552.464-.384.696-.944.696-1.68 0-.672-.24-1.184-.72-1.536-.464-.368-1.104-.552-1.92-.552zM707.893 210h-2.592v-16.8h2.952v11.952l8.808-11.952h2.592V210h-2.952v-11.928L707.893 210zm16.415 0v-16.8h2.976l5.736 7.848 5.472-7.848h2.784V210h-2.928v-12.144l-5.304 7.464h-.432l-5.352-7.392V210h-2.952zm34.111-3.624l1.296 2.016c-.448.608-1.056 1.072-1.824 1.392-.752.32-1.576.48-2.472.48-1.76 0-3.176-.52-4.248-1.56s-1.608-2.408-1.608-4.104c0-1.6.528-2.944 1.584-4.032s2.392-1.632 4.008-1.632c1.92 0 3.368.488 4.344 1.464l-1.296 2.184c-.72-.704-1.616-1.056-2.688-1.056-.8 0-1.504.288-2.112.864-.592.56-.888 1.296-.888 2.208 0 .928.304 1.68.912 2.256.624.56 1.36.84 2.208.84 1.056 0 1.984-.44 2.784-1.32zm3.862 2.304c-1.072-1.072-1.608-2.432-1.608-4.08 0-1.648.536-3 1.608-4.056 1.088-1.072 2.512-1.608 4.272-1.608 1.76 0 3.176.536 4.248 1.608 1.088 1.056 1.632 2.408 1.632 4.056 0 1.648-.544 3.008-1.632 4.08-1.072 1.056-2.488 1.584-4.248 1.584-1.76 0-3.184-.528-4.272-1.584zm1.344-4.08c0 .896.272 1.64.816 2.232.56.576 1.264.864 2.112.864.864 0 1.568-.28 2.112-.84.56-.576.84-1.328.84-2.256 0-.896-.28-1.632-.84-2.208-.56-.576-1.264-.864-2.112-.864-.832 0-1.528.288-2.088.864-.56.56-.84 1.296-.84 2.208zm15.012 5.664a7.8 7.8 0 01-2.76-.504c-.896-.352-1.544-.784-1.944-1.296l1.416-1.728c.32.368.776.68 1.368.936.608.256 1.168.384 1.68.384.704 0 1.248-.12 1.632-.36.384-.24.576-.56.576-.96a1.07 1.07 0 00-.432-.888c-.288-.224-.688-.336-1.2-.336h-2.016v-1.848h1.896c.432 0 .776-.128 1.032-.384.272-.256.408-.568.408-.936 0-.784-.632-1.176-1.896-1.176-.992 0-1.976.416-2.952 1.248l-1.152-1.656c1.04-1.216 2.584-1.824 4.632-1.824 1.408 0 2.48.272 3.216.816.736.544 1.104 1.296 1.104 2.256 0 .528-.176 1.008-.528 1.44-.352.432-.84.752-1.464.96v.048c.736.144 1.296.448 1.68.912.4.448.6.992.6 1.632 0 1.008-.448 1.808-1.344 2.4-.896.576-2.08.864-3.552.864zm6.208 2.256v-5.088h1.368c.848-1.12 1.352-3 1.512-5.64l.168-2.592h7.968v8.232h1.8v5.088h-2.592V210h-7.656v2.52h-2.568zm5.544-9.624c-.192 2.096-.624 3.608-1.296 4.536h4.008v-5.64h-2.64l-.072 1.104zm9.928-.912l-.696-2.016a7.385 7.385 0 013.816-1.032c1.536 0 2.64.376 3.312 1.128.672.752 1.008 1.872 1.008 3.36V210h-2.4v-1.248c-.656.928-1.72 1.392-3.192 1.392-1.008 0-1.824-.296-2.448-.888-.624-.592-.936-1.4-.936-2.424 0-1.136.368-2 1.104-2.592.736-.608 1.68-.912 2.832-.912.992 0 1.808.232 2.448.696.032-.944-.104-1.64-.408-2.088-.304-.464-.84-.696-1.608-.696-.8 0-1.744.248-2.832.744zm2.76 5.832c.928 0 1.624-.328 2.088-.984v-1.104c-.464-.352-1.096-.528-1.896-.528-.496 0-.912.12-1.248.36-.32.224-.48.552-.48.984 0 .4.144.712.432.936.288.224.656.336 1.104.336zM817.691 210v-8.04h-2.856l-.072 1.152c-.176 1.936-.472 3.424-.888 4.464-.4 1.04-.912 1.744-1.536 2.112-.608.352-1.424.528-2.448.528l-.24-2.688a1.4 1.4 0 00.984-.288c.32-.24.624-.752.912-1.536.288-.8.472-1.848.552-3.144l.168-3.36h8.184V210h-2.76zm8.593 0h-2.76v-10.8h2.76v6.84l5.04-6.84h2.76V210h-2.76v-6.84l-5.04 6.84zm19.783.264a7.8 7.8 0 01-2.76-.504c-.896-.352-1.544-.784-1.944-1.296l1.416-1.728c.32.368.776.68 1.368.936.608.256 1.168.384 1.68.384.704 0 1.248-.12 1.632-.36.384-.24.576-.56.576-.96a1.07 1.07 0 00-.432-.888c-.288-.224-.688-.336-1.2-.336h-2.016v-1.848h1.896c.432 0 .776-.128 1.032-.384.272-.256.408-.568.408-.936 0-.784-.632-1.176-1.896-1.176-.992 0-1.976.416-2.952 1.248l-1.152-1.656c1.04-1.216 2.584-1.824 4.632-1.824 1.408 0 2.48.272 3.216.816.736.544 1.104 1.296 1.104 2.256 0 .528-.176 1.008-.528 1.44-.352.432-.84.752-1.464.96v.048c.736.144 1.296.448 1.68.912.4.448.6.992.6 1.632 0 1.008-.448 1.808-1.344 2.4-.896.576-2.08.864-3.552.864zm8.344-8.28l-.696-2.016a7.385 7.385 0 013.816-1.032c1.536 0 2.64.376 3.312 1.128.672.752 1.008 1.872 1.008 3.36V210h-2.4v-1.248c-.656.928-1.72 1.392-3.192 1.392-1.008 0-1.824-.296-2.448-.888-.624-.592-.936-1.4-.936-2.424 0-1.136.368-2 1.104-2.592.736-.608 1.68-.912 2.832-.912.992 0 1.808.232 2.448.696.032-.944-.104-1.64-.408-2.088-.304-.464-.84-.696-1.608-.696-.8 0-1.744.248-2.832.744zm2.76 5.832c.928 0 1.624-.328 2.088-.984v-1.104c-.464-.352-1.096-.528-1.896-.528-.496 0-.912.12-1.248.36-.32.224-.48.552-.48.984 0 .4.144.712.432.936.288.224.656.336 1.104.336zm17.734-8.616l-4.152 5.136 4.656 5.664h-3.6l-4.272-5.448 3.888-5.352h3.48zM864.681 210v-10.8h2.76V210h-2.76zm13.191-8.016l-.696-2.016a7.385 7.385 0 013.816-1.032c1.536 0 2.64.376 3.312 1.128.672.752 1.008 1.872 1.008 3.36V210h-2.4v-1.248c-.656.928-1.72 1.392-3.192 1.392-1.008 0-1.824-.296-2.448-.888-.624-.592-.936-1.4-.936-2.424 0-1.136.368-2 1.104-2.592.736-.608 1.68-.912 2.832-.912.992 0 1.808.232 2.448.696.032-.944-.104-1.64-.408-2.088-.304-.464-.84-.696-1.608-.696-.8 0-1.744.248-2.832.744zm2.76 5.832c.928 0 1.624-.328 2.088-.984v-1.104c-.464-.352-1.096-.528-1.896-.528-.496 0-.912.12-1.248.36-.32.224-.48.552-.48.984 0 .4.144.712.432.936.288.224.656.336 1.104.336zm11.325 2.448a7.8 7.8 0 01-2.76-.504c-.896-.352-1.544-.784-1.944-1.296l1.416-1.728c.32.368.776.68 1.368.936.608.256 1.168.384 1.68.384.704 0 1.248-.12 1.632-.36.384-.24.576-.56.576-.96a1.07 1.07 0 00-.432-.888c-.288-.224-.688-.336-1.2-.336h-2.016v-1.848h1.896c.432 0 .776-.128 1.032-.384.272-.256.408-.568.408-.936 0-.784-.632-1.176-1.896-1.176-.992 0-1.976.416-2.952 1.248l-1.152-1.656c1.04-1.216 2.584-1.824 4.632-1.824 1.408 0 2.48.272 3.216.816.736.544 1.104 1.296 1.104 2.256 0 .528-.176 1.008-.528 1.44-.352.432-.84.752-1.464.96v.048c.736.144 1.296.448 1.68.912.4.448.6.992.6 1.632 0 1.008-.448 1.808-1.344 2.4-.896.576-2.08.864-3.552.864z" fill="#fff"/><rect x="608.5" y="160.5" width="364" height="86" rx="6.5" stroke="#E4002B" stroke-width="3"/><path d="M1134.46 206.16l1.13 2.208c-.53.56-1.29 1.016-2.28 1.368a9.03 9.03 0 01-3.09.528c-2.58 0-4.67-.792-6.27-2.376-1.6-1.584-2.4-3.68-2.4-6.288 0-2.512.76-4.584 2.28-6.216 1.52-1.632 3.63-2.448 6.31-2.448 2.16 0 3.87.568 5.12 1.704l-1.32 2.184c-1.14-.752-2.4-1.128-3.8-1.128-1.58 0-2.89.536-3.93 1.608-1.03 1.072-1.54 2.504-1.54 4.296 0 1.744.54 3.168 1.61 4.272 1.09 1.088 2.49 1.632 4.2 1.632 1.49 0 2.82-.448 3.98-1.344zm12.73-6.96l-4.25 10.8c-.77 1.872-1.45 3.136-2.06 3.792-.59.672-1.3 1.008-2.11 1.008-.79 0-1.56-.28-2.33-.84l.89-2.088c.43.256.8.384 1.12.384.66 0 1.21-.56 1.66-1.68l.24-.576-4.99-10.8h3.31l2.52 5.904c.1.24.27.76.53 1.56.13-.704.25-1.232.38-1.584l1.95-5.88h3.14zm1.65 10.8v-10.8h2.5l3.67 4.512 3.48-4.512h2.43V210h-2.76v-6.6l-3.2 4.032h-.07l-3.29-4.032v6.6h-2.76zm15.15 0v-10.8h2.49l3.67 4.512 3.48-4.512h2.43V210h-2.76v-6.6l-3.19 4.032h-.08l-3.28-4.032v6.6h-2.76zm15.98-8.016l-.7-2.016a7.394 7.394 0 013.82-1.032c1.53 0 2.64.376 3.31 1.128.67.752 1.01 1.872 1.01 3.36V210h-2.4v-1.248c-.66.928-1.72 1.392-3.2 1.392-1 0-1.82-.296-2.44-.888-.63-.592-.94-1.4-.94-2.424 0-1.136.37-2 1.1-2.592.74-.608 1.68-.912 2.84-.912.99 0 1.8.232 2.44.696.04-.944-.1-1.64-.4-2.088-.31-.464-.84-.696-1.61-.696-.8 0-1.75.248-2.83.744zm2.76 5.832c.92 0 1.62-.328 2.08-.984v-1.104c-.46-.352-1.09-.528-1.89-.528-.5 0-.91.12-1.25.36-.32.224-.48.552-.48.984 0 .4.14.712.43.936.29.224.66.336 1.11.336zm19.96 2.184v-8.208h-4.61V210h-2.76v-10.8h10.13V210h-2.76zm6.76-1.32c-1.07-1.072-1.61-2.432-1.61-4.08 0-1.648.54-3 1.61-4.056 1.09-1.072 2.51-1.608 4.27-1.608 1.76 0 3.18.536 4.25 1.608 1.09 1.056 1.63 2.408 1.63 4.056 0 1.648-.54 3.008-1.63 4.08-1.07 1.056-2.49 1.584-4.25 1.584-1.76 0-3.18-.528-4.27-1.584zm1.35-4.08c0 .896.27 1.64.81 2.232.56.576 1.27.864 2.11.864.87 0 1.57-.28 2.12-.84.56-.576.84-1.328.84-2.256 0-.896-.28-1.632-.84-2.208-.56-.576-1.27-.864-2.12-.864-.83 0-1.52.288-2.08.864-.56.56-.84 1.296-.84 2.208zm21.42-5.4l-4.15 5.136 4.65 5.664h-3.6l-4.27-5.448 3.89-5.352h3.48zm-10.23 10.8v-10.8h2.76V210h-2.76zm22.65-10.8l-4.24 10.8c-.77 1.872-1.46 3.136-2.07 3.792-.59.672-1.29 1.008-2.11 1.008-.78 0-1.56-.28-2.33-.84l.89-2.088c.43.256.81.384 1.13.384.65 0 1.21-.56 1.65-1.68l.24-.576-4.99-10.8h3.31l2.52 5.904c.1.24.28.76.53 1.56.13-.704.26-1.232.39-1.584l1.94-5.88h3.14zm9.03 10.8v-8.208h-4.61V210h-2.76v-10.8h10.13V210h-2.76zm6.76-1.32c-1.07-1.072-1.61-2.432-1.61-4.08 0-1.648.54-3 1.61-4.056 1.09-1.072 2.51-1.608 4.27-1.608 1.76 0 3.18.536 4.25 1.608 1.09 1.056 1.63 2.408 1.63 4.056 0 1.648-.54 3.008-1.63 4.08-1.07 1.056-2.49 1.584-4.25 1.584-1.76 0-3.18-.528-4.27-1.584zm1.34-4.08c0 .896.28 1.64.82 2.232.56.576 1.26.864 2.11.864.87 0 1.57-.28 2.11-.84.56-.576.84-1.328.84-2.256 0-.896-.28-1.632-.84-2.208-.56-.576-1.26-.864-2.11-.864-.83 0-1.53.288-2.09.864-.56.56-.84 1.296-.84 2.208zm21.42-5.4l-4.15 5.136 4.66 5.664h-3.6l-4.27-5.448 3.88-5.352h3.48zm-10.22 10.8v-10.8h2.76V210h-2.76zm27.85-10.8l-4.24 10.8c-.77 1.872-1.46 3.136-2.07 3.792-.59.672-1.29 1.008-2.11 1.008-.78 0-1.56-.28-2.33-.84l.89-2.088c.43.256.81.384 1.13.384.65 0 1.21-.56 1.65-1.68l.24-.576-4.99-10.8h3.31l2.52 5.904c.1.24.28.76.53 1.56.13-.704.26-1.232.39-1.584l1.94-5.88h3.14zm16.97 0l-4.15 5.136 4.65 5.664h-3.6l-4.27-5.448 3.89-5.352h3.48zm-10.23 10.8v-10.8h2.76V210h-2.76zm19.41 0v-8.04h-2.85l-.08 1.152c-.17 1.936-.47 3.424-.88 4.464-.4 1.04-.92 1.744-1.54 2.112-.61.352-1.42.528-2.45.528l-.24-2.688c.35.032.68-.064.99-.288.32-.24.62-.752.91-1.536.29-.8.47-1.848.55-3.144l.17-3.36h8.18V210h-2.76zm8.6 0h-2.76v-10.8h2.76v6.84l5.04-6.84h2.76V210h-2.76v-6.84l-5.04 6.84zm19.35-3.024l.79 1.944c-1.06.896-2.43 1.344-4.13 1.344-1.74 0-3.15-.52-4.22-1.56-1.06-1.04-1.59-2.408-1.59-4.104 0-1.616.52-2.96 1.56-4.032 1.04-1.088 2.43-1.632 4.16-1.632 1.42 0 2.63.472 3.62 1.416.99.928 1.49 2.128 1.49 3.6 0 .608-.06 1.104-.17 1.488h-7.8c.11.8.46 1.424 1.06 1.872.59.432 1.32.648 2.18.648 1.22 0 2.23-.328 3.05-.984zm-3.55-5.736c-1.57 0-2.52.784-2.84 2.352h5.31c.01-.672-.2-1.232-.65-1.68-.45-.448-1.06-.672-1.82-.672zm14.94 8.76v-4.128h-4.73V210h-2.76v-10.8h2.76v4.08h4.73v-4.08h2.76V210h-2.76zm4.7-8.04v-2.76h9.84v2.76h-3.53V210h-2.76v-8.04h-3.55zm12.65.024l-.69-2.016a7.358 7.358 0 013.81-1.032c1.54 0 2.64.376 3.31 1.128.68.752 1.01 1.872 1.01 3.36V210h-2.4v-1.248c-.65.928-1.72 1.392-3.19 1.392-1.01 0-1.82-.296-2.45-.888-.62-.592-.93-1.4-.93-2.424 0-1.136.36-2 1.1-2.592.74-.608 1.68-.912 2.83-.912.99 0 1.81.232 2.45.696.03-.944-.1-1.64-.41-2.088-.3-.464-.84-.696-1.61-.696-.8 0-1.74.248-2.83.744zm2.76 5.832c.93 0 1.63-.328 2.09-.984v-1.104c-.46-.352-1.1-.528-1.9-.528-.49 0-.91.12-1.24.36-.32.224-.48.552-.48.984 0 .4.14.712.43.936.29.224.65.336 1.1.336zm13.53.864c-1.07-1.072-1.61-2.432-1.61-4.08 0-1.648.54-3 1.61-4.056 1.09-1.072 2.51-1.608 4.27-1.608 1.76 0 3.18.536 4.25 1.608 1.09 1.056 1.63 2.408 1.63 4.056 0 1.648-.54 3.008-1.63 4.08-1.07 1.056-2.49 1.584-4.25 1.584-1.76 0-3.18-.528-4.27-1.584zm1.35-4.08c0 .896.27 1.64.81 2.232.56.576 1.27.864 2.11.864.87 0 1.57-.28 2.12-.84.56-.576.84-1.328.84-2.256 0-.896-.28-1.632-.84-2.208-.56-.576-1.27-.864-2.12-.864-.83 0-1.52.288-2.08.864-.56.56-.84 1.296-.84 2.208zm19.31-11.664l1.44 2.256c-.42.496-.9.848-1.44 1.056-.55.192-1.19.368-1.92.528-.72.144-1.35.344-1.88.6-1.34.624-2.12 1.968-2.32 4.032h.04c.34-.592.86-1.072 1.56-1.44a4.624 4.624 0 012.24-.576c1.48 0 2.68.48 3.57 1.44.9.96 1.35 2.248 1.35 3.864 0 1.552-.53 2.872-1.59 3.96-1.05 1.072-2.41 1.608-4.08 1.608-1.81 0-3.24-.616-4.29-1.848-1.04-1.232-1.56-2.896-1.56-4.992 0-4.624 1.36-7.52 4.08-8.688.6-.256 1.26-.448 1.96-.576.71-.144 1.27-.288 1.68-.432.44-.144.82-.408 1.16-.792zM1414.68 204c.01 1.072.28 1.96.79 2.664.51.688 1.19 1.032 2.04 1.032.85 0 1.52-.272 2.02-.816.51-.56.76-1.248.76-2.064 0-.832-.23-1.512-.69-2.04-.47-.544-1.12-.816-1.97-.816-.74 0-1.37.192-1.9.576a2.91 2.91 0 00-1.05 1.464zm18.45 6v-4.128h-4.73V210h-2.76v-10.8h2.76v4.08h4.73v-4.08h2.76V210h-2.76zm6.76-1.32c-1.07-1.072-1.61-2.432-1.61-4.08 0-1.648.54-3 1.61-4.056 1.09-1.072 2.51-1.608 4.27-1.608 1.76 0 3.18.536 4.25 1.608 1.09 1.056 1.63 2.408 1.63 4.056 0 1.648-.54 3.008-1.63 4.08-1.07 1.056-2.49 1.584-4.25 1.584-1.76 0-3.18-.528-4.27-1.584zm1.34-4.08c0 .896.28 1.64.82 2.232.56.576 1.26.864 2.11.864.87 0 1.57-.28 2.11-.84.56-.576.84-1.328.84-2.256 0-.896-.28-1.632-.84-2.208-.56-.576-1.26-.864-2.11-.864-.83 0-1.53.288-2.09.864-.56.56-.84 1.296-.84 2.208zm11.2 5.4v-10.8c.19 0 .54-.008 1.06-.024a55.806 55.806 0 013.19-.096c3.26 0 4.89.944 4.89 2.832 0 .624-.2 1.16-.6 1.608-.38.448-.85.712-1.41.792v.048c1.53.368 2.3 1.2 2.3 2.496 0 2.176-1.71 3.264-5.13 3.264a55.3 55.3 0 01-2.28-.072 87.298 87.298 0 00-2.02-.048zm4.49-4.584h-1.73v2.4c1.09.064 1.7.096 1.82.096.61 0 1.08-.112 1.42-.336.35-.224.53-.528.53-.912 0-.832-.68-1.248-2.04-1.248zm0-4.104c-.77 0-1.35.016-1.73.048v2.376h1.8c.48 0 .87-.104 1.18-.312.32-.224.48-.536.48-.936 0-.784-.58-1.176-1.73-1.176zm10.32 8.688h-2.76v-10.8h2.76v6.84l5.04-6.84h2.76V210h-2.76v-6.84l-5.04 6.84zm17.98 0v-8.04h-2.85l-.08 1.152c-.17 1.936-.47 3.424-.88 4.464-.4 1.04-.92 1.744-1.54 2.112-.61.352-1.42.528-2.45.528l-.24-2.688c.35.032.68-.064.99-.288.32-.24.62-.752.91-1.536.29-.8.47-1.848.55-3.144l.17-3.36h8.18V210h-2.76zm6.68-8.016l-.7-2.016a7.394 7.394 0 013.82-1.032c1.53 0 2.64.376 3.31 1.128.67.752 1.01 1.872 1.01 3.36V210h-2.4v-1.248c-.66.928-1.72 1.392-3.2 1.392-1 0-1.82-.296-2.44-.888-.63-.592-.94-1.4-.94-2.424 0-1.136.37-2 1.1-2.592.74-.608 1.68-.912 2.84-.912.99 0 1.8.232 2.44.696.04-.944-.1-1.64-.4-2.088-.31-.464-.84-.696-1.61-.696-.8 0-1.75.248-2.83.744zm2.76 5.832c.92 0 1.62-.328 2.08-.984v-1.104c-.46-.352-1.09-.528-1.89-.528-.5 0-.91.12-1.25.36-.32.224-.48.552-.48.984 0 .4.14.712.43.936.29.224.66.336 1.11.336zm15.69-1.44l1.29 2.016c-.44.608-1.05 1.072-1.82 1.392-.75.32-1.58.48-2.47.48-1.76 0-3.18-.52-4.25-1.56-1.07-1.04-1.61-2.408-1.61-4.104 0-1.6.53-2.944 1.59-4.032 1.05-1.088 2.39-1.632 4-1.632 1.92 0 3.37.488 4.35 1.464l-1.3 2.184c-.72-.704-1.61-1.056-2.69-1.056-.8 0-1.5.288-2.11.864-.59.56-.89 1.296-.89 2.208 0 .928.31 1.68.92 2.256.62.56 1.36.84 2.2.84 1.06 0 1.99-.44 2.79-1.32zm3.51 3.624v-10.8h2.76v2.952h1.49c1.69 0 2.91.352 3.65 1.056.73.704 1.1 1.6 1.1 2.688 0 1.168-.4 2.144-1.2 2.928-.8.784-2.06 1.176-3.77 1.176h-4.03zm4.01-5.64h-1.25v3.24h1.22c1.4 0 2.09-.536 2.09-1.608 0-1.088-.69-1.632-2.06-1.632z" fill="#fff"/><rect x="1073.5" y="160.5" width="497" height="86" rx="6.5" stroke="#E4002B" stroke-width="3"/><path d="M1168.99 369v-7.176h-7.68V369h-2.95v-16.8h2.95v6.864h7.68V352.2h2.93V369h-2.93zm7.72-1.32c-1.07-1.072-1.6-2.432-1.6-4.08 0-1.648.53-3 1.6-4.056 1.09-1.072 2.52-1.608 4.28-1.608 1.76 0 3.17.536 4.24 1.608 1.09 1.056 1.64 2.408 1.64 4.056 0 1.648-.55 3.008-1.64 4.08-1.07 1.056-2.48 1.584-4.24 1.584-1.76 0-3.19-.528-4.28-1.584zm1.35-4.08c0 .896.27 1.64.81 2.232.56.576 1.27.864 2.12.864.86 0 1.56-.28 2.11-.84.56-.576.84-1.328.84-2.256 0-.896-.28-1.632-.84-2.208-.56-.576-1.27-.864-2.11-.864-.84 0-1.53.288-2.09.864-.56.56-.84 1.296-.84 2.208zm11.19 5.4v-10.8c.2 0 .55-.008 1.06-.024a55.67 55.67 0 013.19-.096c3.27 0 4.9.944 4.9 2.832 0 .624-.2 1.16-.6 1.608-.39.448-.86.712-1.42.792v.048c1.54.368 2.31 1.2 2.31 2.496 0 2.176-1.72 3.264-5.14 3.264a55.3 55.3 0 01-2.28-.072 86.07 86.07 0 00-2.02-.048zm4.49-4.584h-1.73v2.4c1.09.064 1.7.096 1.83.096.61 0 1.08-.112 1.41-.336.36-.224.53-.528.53-.912 0-.832-.68-1.248-2.04-1.248zm0-4.104c-.77 0-1.34.016-1.73.048v2.376h1.8c.48 0 .88-.104 1.18-.312.32-.224.48-.536.48-.936 0-.784-.58-1.176-1.73-1.176zm7.56 8.688v-10.8h2.76v2.952h1.35c1.69 0 2.91.352 3.64 1.056.74.704 1.11 1.6 1.11 2.688 0 1.168-.4 2.144-1.2 2.928-.8.784-2.06 1.176-3.77 1.176h-3.89zm10.39 0v-10.8h2.76V369h-2.76zm-6.52-5.64h-1.11v3.24h1.08c1.39 0 2.09-.536 2.09-1.608 0-1.088-.69-1.632-2.06-1.632zm15.11 5.64h-2.76v-10.8h2.76v6.84l5.04-6.84h2.76V369h-2.76v-6.84l-5.04 6.84zm-1.15-16.2h2.52c0 .496.09.912.29 1.248.2.336.52.504.96.504a.93.93 0 00.86-.504c.19-.336.29-.752.29-1.248h2.52c0 1.088-.32 1.984-.96 2.688-.64.688-1.55 1.032-2.71 1.032-1.28 0-2.24-.336-2.86-1.008-.61-.688-.91-1.592-.91-2.712zm27.53 5.4l-4.25 10.8c-.76 1.872-1.45 3.136-2.06 3.792-.59.672-1.3 1.008-2.11 1.008-.79 0-1.56-.28-2.33-.84l.89-2.088c.43.256.81.384 1.13.384.65 0 1.2-.56 1.65-1.68l.24-.576-4.99-10.8h3.31l2.52 5.904c.1.24.27.76.53 1.56.13-.704.26-1.232.38-1.584l1.95-5.88h3.14zm1.66 15.6v-15.6h2.76v1.032c.35-.368.82-.672 1.41-.912a4.912 4.912 0 011.92-.384c1.48 0 2.66.512 3.56 1.536.89 1.024 1.34 2.344 1.34 3.96 0 1.68-.53 3.072-1.58 4.176-1.06 1.104-2.44 1.656-4.13 1.656-1.07 0-1.91-.176-2.52-.528v5.064h-2.76zm5.23-13.272c-.94 0-1.77.392-2.47 1.176v4.368c.64.416 1.4.624 2.28.624.93 0 1.66-.296 2.21-.888.54-.608.81-1.376.81-2.304 0-.88-.25-1.592-.74-2.136-.5-.56-1.19-.84-2.09-.84zm9.09 7.152c-1.08-1.072-1.61-2.432-1.61-4.08 0-1.648.53-3 1.61-4.056 1.08-1.072 2.51-1.608 4.27-1.608 1.76 0 3.17.536 4.25 1.608 1.08 1.056 1.63 2.408 1.63 4.056 0 1.648-.55 3.008-1.63 4.08-1.08 1.056-2.49 1.584-4.25 1.584-1.76 0-3.19-.528-4.27-1.584zm1.34-4.08c0 .896.27 1.64.82 2.232.56.576 1.26.864 2.11.864.86 0 1.57-.28 2.11-.84.56-.576.84-1.328.84-2.256 0-.896-.28-1.632-.84-2.208-.56-.576-1.26-.864-2.11-.864-.83 0-1.53.288-2.09.864-.56.56-.84 1.296-.84 2.208zm11.2 5.4v-10.8c.19 0 .54-.008 1.05-.024a52.694 52.694 0 013.19-.096c3.27 0 4.9.944 4.9 2.832 0 .624-.2 1.16-.6 1.608a2.23 2.23 0 01-1.42.792v.048c1.54.368 2.31 1.2 2.31 2.496 0 2.176-1.71 3.264-5.14 3.264a55.3 55.3 0 01-2.28-.072 86.893 86.893 0 00-2.01-.048zm4.48-4.584h-1.72v2.4c1.08.064 1.69.096 1.82.096.61 0 1.08-.112 1.42-.336.35-.224.52-.528.52-.912 0-.832-.68-1.248-2.04-1.248zm0-4.104c-.76 0-1.34.016-1.72.048v2.376h1.8c.48 0 .87-.104 1.17-.312.32-.224.48-.536.48-.936 0-.784-.57-1.176-1.73-1.176zm16.04 5.664l.79 1.944c-1.06.896-2.43 1.344-4.13 1.344-1.74 0-3.15-.52-4.22-1.56-1.06-1.04-1.59-2.408-1.59-4.104 0-1.616.52-2.96 1.56-4.032 1.04-1.088 2.43-1.632 4.15-1.632 1.43 0 2.64.472 3.63 1.416.99.928 1.49 2.128 1.49 3.6 0 .608-.06 1.104-.17 1.488h-7.8c.11.8.46 1.424 1.05 1.872.6.432 1.32.648 2.19.648 1.21 0 2.23-.328 3.05-.984zm-3.56-5.736c-1.56 0-2.51.784-2.83 2.352h5.31c.01-.672-.2-1.232-.65-1.68-.45-.448-1.06-.672-1.83-.672zm14.95 8.76v-4.128h-4.73V369h-2.76v-10.8h2.76v4.08h4.73v-4.08h2.76V369h-2.76zm5.82 0v-10.8h2.76v2.952h1.49c1.7 0 2.91.352 3.65 1.056.73.704 1.1 1.6 1.1 2.688 0 1.168-.4 2.144-1.2 2.928-.8.784-2.05 1.176-3.77 1.176h-4.03zm4.01-5.64h-1.25v3.24h1.23c1.39 0 2.08-.536 2.08-1.608 0-1.088-.68-1.632-2.06-1.632zm20.46 2.016l1.3 2.016c-.45.608-1.06 1.072-1.82 1.392-.76.32-1.58.48-2.48.48-1.76 0-3.17-.52-4.24-1.56-1.08-1.04-1.61-2.408-1.61-4.104 0-1.6.53-2.944 1.58-4.032 1.06-1.088 2.39-1.632 4.01-1.632 1.92 0 3.37.488 4.34 1.464l-1.29 2.184c-.72-.704-1.62-1.056-2.69-1.056-.8 0-1.5.288-2.11.864-.59.56-.89 1.296-.89 2.208 0 .928.3 1.68.91 2.256.63.56 1.36.84 2.21.84 1.06 0 1.98-.44 2.78-1.32zm13.74-7.176l-4.15 5.136 4.65 5.664h-3.6l-4.27-5.448 3.89-5.352h3.48zM1340.9 369v-10.8h2.76V369h-2.76zm15.11 0h-2.76v-10.8h2.76v6.84l5.04-6.84h2.76V369h-2.76v-6.84l-5.04 6.84zm9.58 2.52v-5.088h1.37c.85-1.12 1.35-3 1.51-5.64l.17-2.592h7.97v8.232h1.8v5.088h-2.59V369h-7.66v2.52h-2.57zm5.55-9.624c-.2 2.096-.63 3.608-1.3 4.536h4.01v-5.64h-2.64l-.07 1.104zm19.31-3.696l-4.15 5.136 4.65 5.664h-3.6l-4.27-5.448 3.89-5.352h3.48zm-10.23 10.8v-10.8h2.76V369h-2.76zm15.12 0h-2.76v-10.8h2.76v6.84l5.04-6.84h2.76V369h-2.76v-6.84l-5.04 6.84zm18.72 0h-2.76v-10.8h2.76v6.84l5.04-6.84h2.76V369h-2.76v-6.84l-5.04 6.84zm14.7.264c-.95 0-1.87-.168-2.76-.504-.9-.352-1.55-.784-1.95-1.296l1.42-1.728c.32.368.78.68 1.37.936.61.256 1.17.384 1.68.384.7 0 1.25-.12 1.63-.36.38-.24.58-.56.58-.96 0-.368-.15-.664-.44-.888-.28-.224-.68-.336-1.2-.336h-2.01v-1.848h1.89c.44 0 .78-.128 1.04-.384.27-.256.4-.568.4-.936 0-.784-.63-1.176-1.89-1.176-.99 0-1.98.416-2.95 1.248l-1.16-1.656c1.04-1.216 2.59-1.824 4.64-1.824 1.4 0 2.48.272 3.21.816.74.544 1.11 1.296 1.11 2.256 0 .528-.18 1.008-.53 1.44-.35.432-.84.752-1.47.96v.048c.74.144 1.3.448 1.68.912.4.448.6.992.6 1.632 0 1.008-.44 1.808-1.34 2.4-.9.576-2.08.864-3.55.864zm25.04-4.104l1.13 2.208c-.53.56-1.29 1.016-2.28 1.368a9.03 9.03 0 01-3.09.528c-2.58 0-4.67-.792-6.27-2.376-1.6-1.584-2.4-3.68-2.4-6.288 0-2.512.76-4.584 2.28-6.216 1.52-1.632 3.63-2.448 6.31-2.448 2.16 0 3.87.568 5.12 1.704l-1.32 2.184c-1.14-.752-2.4-1.128-3.8-1.128-1.58 0-2.89.536-3.93 1.608-1.03 1.072-1.54 2.504-1.54 4.296 0 1.744.54 3.168 1.61 4.272 1.09 1.088 2.49 1.632 4.2 1.632 1.49 0 2.82-.448 3.98-1.344zm7.02 3.84h-2.95v-16.8c.35 0 1.25-.008 2.71-.024 1.47-.016 2.27-.024 2.4-.024 4.06 0 6.1 1.728 6.1 5.184 0 1.296-.33 2.352-.99 3.168-.65.8-1.41 1.344-2.25 1.632l5.25 6.864h-3.57l-4.64-6.288h-2.06V369zm2.02-14.088c-.29 0-.96.016-2.02.048v4.992h1.92c.91 0 1.67-.224 2.28-.672.62-.464.94-1.104.94-1.92 0-1.632-1.04-2.448-3.12-2.448zM1473.66 369v-16.8h2.98l5.74 7.848 5.47-7.848h2.78V369h-2.93v-12.144l-5.3 7.464h-.43l-5.35-7.392V369h-2.96z" fill="#fff"/><rect x="1078.5" y="319.5" width="492" height="86" rx="6.5" stroke="#E4002B" stroke-width="3"/><path d="M208 149l5.774-10h-11.548L208 149zm-1-50v41h2V99h-2zm1 209l5.774-10h-11.548L208 308zm-1-50v41h2v-41h-2zm390-56l-9.853-6.022-.288 11.544L597 202zM426.958 356.528c9.06-30.093 16.818-54.861 25.077-75.076 8.259-20.213 16.993-35.806 27.976-47.58 21.902-23.479 52.971-32.008 107.973-31.097l.033-2c-55.156-.914-86.969 7.612-109.468 31.733-11.218 12.026-20.064 27.87-28.366 48.188-8.3 20.315-16.083 45.172-25.141 75.256l1.916.576zM1062 204l-10-5.774v11.548l10-5.774zm-78 1h69v-2h-69v2zm338 103l5.77-10h-11.54l5.77 10zm-1-50v41h2v-41h-2z" fill="#C5CDCF"/></svg>