<svg width="260" height="47" viewBox="0 0 260 47" fill="none" xmlns="http://www.w3.org/2000/svg"><path d="M6.824 22.384L0 46.393h11.193l6.824-24.01H6.824zM55.26 38.007h-5.262V22.372h5.263v15.635zm3.15-24.017h-8.411V2.108H39.233v44.273h19.182c4.552 0 7.611-3.015 7.611-7.505v-17.38c0-4.49-3.06-7.505-7.611-7.505h-.006zm27.107 24.849h-4.684V32.84h4.678v5.998h.006zm3.148-24.848H72.07v7.549h13.44v4.672h-7.83c-4.59 0-7.681 2.989-7.681 7.436v5.266c0 4.484 3.085 7.504 7.68 7.504h18.603V21.496c0-4.49-3.06-7.505-7.61-7.505h-.007zm46.994 0h-34.562v32.396h10.766V22.372h5.004v24.015h10.703V22.372h5.004v24.015h10.766v-24.89c0-4.491-3.085-7.506-7.681-7.506zm27.392 13.553h-4.678v-5.998h4.678v5.998zm3.148-13.546h-10.992c-4.552 0-7.611 3.014-7.611 7.504v17.399c0 4.484 3.059 7.505 7.611 7.505h18.087v-7.567h-14.933v-5.867h15.512V21.496c0-4.49-3.085-7.505-7.681-7.505l.007.007zm22.808-7.388h-10.765v32.284c0 4.484 3.059 7.505 7.611 7.505h8.184V38.58h-5.036V22.377h5.036V13.99h-5.036V6.61h.006z" fill="#2F353D"/><path d="M212.784 19.376v27.017h10.766V22.378h6.333V13.99H218.18c-3.287 0-5.414 2.114-5.414 5.379l.018.006zm31.119-5.385h-10.702V38.89c0 2.801.988 7.504 7.611 7.504H260V13.998h-10.765v24.015h-5.326V13.998l-.006-.007zm-44.395 32.401h7.8v-7.748h-7.8v7.748z" fill="#CF1F2D"/><path d="M22.859 0H11.665l13.183 46.392h11.193L22.86 0z" fill="#2F353D"/><path d="M26.258 41.745H8.996v-8.192h17.262v8.193z" fill="#2F353D"/></svg>