<svg width="411" height="74" viewBox="0 0 411 74" fill="none" xmlns="http://www.w3.org/2000/svg"><path d="M10.773 35.335L0 73.237h17.67l10.773-37.902h-17.67zm76.465 24.663H78.93V35.315h8.308v24.683zm4.97-37.912H78.93V3.327H61.935v69.89h30.282c7.186 0 12.015-4.758 12.015-11.847V33.933c0-7.089-4.83-11.847-12.015-11.847h-.01zM135 61.31h-7.394v-9.468h7.384v9.468h.01zm4.969-39.225h-26.197v11.917h21.218v7.375h-12.363c-7.245 0-12.125 4.72-12.125 11.739v8.313c0 7.079 4.87 11.847 12.125 11.847h29.367V33.933c0-7.089-4.83-11.848-12.015-11.848h-.01zm74.189 0h-54.56v51.142h16.994V35.315h7.901v37.912h16.895V35.315h7.901v37.912h16.994V33.933c0-7.089-4.87-11.848-12.125-11.848zm43.24 21.395h-7.384v-9.468h7.384v9.468zm4.969-21.385h-17.352c-7.185 0-12.015 4.759-12.015 11.848v27.466c0 7.079 4.83 11.848 12.015 11.848h28.553V61.31h-23.574v-9.26h24.488V33.933c0-7.089-4.87-11.848-12.125-11.848l.01.01zm36.008-11.66h-16.994V61.4c0 7.08 4.83 11.848 12.015 11.848h12.92V60.906h-7.951v-25.58h7.951v-13.24h-7.951v-11.65h.01z" fill="#2F353D"/><path d="M335.911 30.586v42.65h16.994v-37.91h9.998v-13.24h-18.475c-5.188 0-8.547 3.337-8.547 8.491l.03.01zm49.125-8.501h-16.895V61.39c0 4.423 1.56 11.848 12.015 11.848h30.291V22.095h-16.994v37.912h-8.408V22.095l-.009-.01zm-70.085 51.152h12.314V61.005h-12.314v12.232z" fill="#CF1F2D"/><path d="M36.086 0h-17.67l20.81 73.237h17.67L36.087 0z" fill="#2F353D"/><path d="M41.452 65.902h-27.25V52.968h27.25v12.934z" fill="#2F353D"/></svg>