<svg width="174" height="73" viewBox="0 0 174 73" fill="none" xmlns="http://www.w3.org/2000/svg"><path fill-rule="evenodd" clip-rule="evenodd" d="M173.452 10.635c-.792-.063-4.74-.154-5.495-.168-.757-.016-.817.813-1.088 1.392-.261-.984-2.693-2.578-6.57-1.124-3.35 1.253-5.86 4.562-7.279 8.597-1.308 3.71-.316 7.924 4.771 7.419-9.146 1.188-15.547 6.148-20.047 9.001-3.868 2.456-7.713 1.588-7.868-1.124.049-.184.1-.376.155-.596l-1.04.05c-6.063.28-12.146.734-18.222 1.37.196-.588.35-1.037.595-1.761 1.82-5.428 3.32-9.342 5.181-14.754.866-2.594 2.768-4.213 4.1-3.978 2.236.416 2.164 4.31 1.335 6.314-1.244 3.132-3.225 5.468-4.676 4.679-.704-.4.172-1.519.172-1.519l-1.729.38c-.636 1.214-2 3.383-.066 5.006 1.935 1.677 5.258.589 7.342-1.112 2.289-1.872 3.896-4.739 4.76-8.391 1.06-4.553-1.055-9.136-4.651-8.796-2.721.208-5.032 2.224-5.032 2.224 0 .004.683-1.17-1.367-1.01-2.708.209-4.656.39-4.656.394-1.052.46.474.919.107 1.895l-1.219 3.442c-1.82 5.707-3.656 9.919-5.432 15.638-.128.448-.388 1.22-.677 2.014C74.7 39.84 44.741 48 17.466 61.044c-1.178 4.57-1.766 6.853-2.938 11.421 26.617-16.829 57.635-28.488 89.124-33.27-.856 1.88-1.5 3.193-2.596 4.505-1.823 2.177-3.299 3.127-4.461 3.743-1.648.896 3.672 1.056 6.13-.074 4.03-1.946 4.143-3.873 4.143-3.877.901.675 1.901 1.052 2.784.967 3.923-.474-.888-1.783-.301-4.319.174-.599.344-1.2.516-1.8a210.985 210.985 0 0117.664-1.423c-.431 1.486-.618 3.294.492 4.395 1.853 1.895 6.664 1.74 11.513-1.553 4.845-3.295 10.143-10.263 20.783-12.612.206-.559.576-1.895.778-2.452 0-.003-2.788 1.784-2.632-2.606.115-3.618 3.951-9.721 5.768-9.765 2.31-.056 1.315 2.575 1.315 2.575a2085.85 2085.85 0 00-3.255 8.401c-1.393 3.432 1.076 4.557 3.904 4.108 2.06-.33 3.007-1.215 3.943-1.921l.932-2.303c-1.745.955-3.943 1.741-3.263.04 1.094-2.881 3.411-7.992 4.51-10.844.278-.759 2.169-1.667 1.133-1.745zm-41.476 18.49c2.435.286 5.621-.63 8.216-3.544.471-.501.888-1.069 1.135-1.722 1.773-3.874.489-5.487-.359-6.111-.276-.227-.513-.323-.513-.323.2-.16.426-.292.794-.512.684-.412 1.722-.874 3.115-1.41 1.197-.443 1.637.557 1.099 1.654-.954 2.346-1.542 4.064-2.484 6.43-.894 1.686-.535 4.726 1.926 4.618 2.523-.085 3.464-.518 6.132-2.049a330.36 330.36 0 00-.236-1.64c-1.294.923-2.98.993-2.24-.885 1.26-3.372 2.167-6.088 3.448-9.423.198-.701 2.599-4.76-3.138-2.85-2.716.99-6.411 2.667-7.607 3.437-1.179.758-1.853 1.153-2.895 1.861 0 0 1.815 2.23.444 6.361-1.853 5.387-5.924 5.275-4.673 2.151 1.293-3.535 4.241-11.736 4.489-12.213.25-.476.995-1.118-.792-1.164-1.784-.048-4.786.137-4.789.181-1.372.197.316.916-.065 1.875a786.717 786.717 0 00-3.638 9.454c-.617 1.507-1.242 5.363 2.631 5.824zm-72.605-5.794c.221.361-.203 1.553-.203 1.554a3420.38 3420.38 0 00-3.276 9.936s-.847 2.474-.336 4.095c.464 1.345 2.11 1.659 3.125 1.359 1.396-.414 3.719-1.786 4.787-3.202l.247-2.621c-.604.724-1.747 2.061-2.07 1.356-.266-.636.252-2.436.252-2.436.618-1.93 1.24-3.848 1.86-5.768.479-1.477.96-2.952 1.438-4.427 0 0 1.052-2.885.265-3.844-.281-.365-.753-.549-1.232-.525-2.443-.01-4.828 2.263-5.992 3.327.019.409-.599 1.628-.579 2.04 0 0 1.495-1.207 1.714-.844zm4.972-6.688c.182-.05.432-.228.68-.339 3.596-2.144 2.793-3.643 2.614-4.005-.177-.355-1.084-1.063-3.052-.183a6.7 6.7 0 00-1.114.636c-3.235 2.12-2.232 3.657-2.235 3.653 0 .004.705 1.363 3.107.238zM7.515 41.657c-.927-1.822.593-5.974 5.096-8.734 4.964-3.043 7.81-2.886 7.81-2.886s-2.344 3.686-5.141 7.128c-.513.632-1.019 1.196-1.468 1.767-1.524 1.696-4.764 5.505-6.297 2.725zm20.18-19.217c1.224-2.436 2.976-5.83 3.552-7.293-.287 2.981-2.164 8.548-3.159 12.124-.027.09-.05.184-.073.277-.872-.14-2.052-.26-3.016-.233a78.227 78.227 0 002.696-4.875zM15.668 41.696c2.805-3.776 5.41-7.705 7.65-11.841 1.46.11 2.749.224 4.08.614-1.203 4.346-2.405 8.57-3.657 12.899-1.469 3.892-3.325 7.81-6.865 10.239 0 .005 1.625.88 5.295-2.01.372-.285 3.021-3.022 3.01-2.801 0 0 1.91 2.357 7.362-.024 6.396-2.797 12.417-15.4 14.745-22.86-.019.05.76-.435.58.17-.768 2.558-3.213 9.998-3.723 12.427-.16.69-.237 4.011 2.794 4.324 1.86.271 3.797-1.756 5.502-4.438l-.278-2.618c-1.518 2.263-2.399 1.811-1.904-.173-.002-.01 2.286-8.444 3.05-10.432.843-1.81 1.578-2.832 1.979-3.196.505-.452 1.028-1.477-2.305-.732-3.331.745-5.252 1.201-8.651 2.264-1.237.435-.185.805-.023 1.21.162.407.372 3.185-3.081 9.297-1.56 2.481-4.216 8.036-7.557 9.661-1.894.919-2.867-.292-2.29-2.196.768-2.768 1.538-5.663 2.292-8.39 1.64.991 2.948 1.878 3.474 2.306l1.16-3.627c-.67-.464-2.162-1.382-3.574-1.981 1.25-5.085 2.612-9.963 4.402-14.89 1.174-2.68 2.424-4.253 3.44-5.174.465-.42.46-1.095-.36-.99-1.167.147-2.61.607-4.02.88-3.15.607-10.003 2.563-10.675 2.798-1.472.513-.101 1.092.033 1.435.055.144.107.289.096.5.079.782-.022 1.693-.249 2.593-1.216 4.081-3.079 6.895-5.508 10.38-2.133.23-5.301.727-10.039 2.77-4.44 1.92-7.86 5.154-9.917 8.869C-.119 42.672-2.074 51.06 4.7 50.252c2.837-.732 6.44-2.99 9.37-6.561.505-.499 1.02-1.215 1.598-1.995zM94.458 21c.98-1.852 2.09-2.939 3.109-3.676.822-.564 1.628-.799 2.26-.2.813.679.513 1.653-.015 3.36-.595 1.77-1.103 3.155-2.376 6.24a9.383 9.383 0 01-.344.685c-1.083 1.922-3.05 3.643-4.43 2.392-1.554-1.341.438-6.242 1.795-8.801zm-6.769 1.095c-2.008 4.718-2.057 9.276.679 11.085.925.683 2.185.852 3.401.635 2.131-.335 3.932-2.275 5.17-3.791.196-.245.39-.488.529-.739 0 0-.721 2.952 1.921 3.271 2.355.285 5.035-2.217 5.035-2.21l.997-2.627c0-.002-3.22 2.602-2.805-.158 1.188-3.509 2.688-7.47 3.896-10.946.377-1.124.669-1.664 1.057-2.162.487-.453.719-.868.036-.886-1.148-.188-4.257.209-5.033.308-.771.098-.997 1.21-1.477 2.16-7.288-5.115-12.438 3.778-13.406 6.06zm-8.37-10.392c.568-.834 1.269-1.975 2.276-3.396 2.956-4.071 4.833-5.348 5.761-5.235 1.153.15.957 2.601-.276 4.87-.385.655-.776 1.375-1.333 1.947-2.488 2.895-4.604 4.086-5.899 4.512-1.29.428-1.935.583-2.44.582.19-.364 1.213-2.088 1.91-3.28zm-12 19.933c.214 3.457 2.152 6.252 6.505 5.541 1.581-.386 3.61-1.244 5.33-2.832 1.853-1.576 3.553-3.982 4.993-7.364 1.39-3.838 2.436-11.094-3.955-10.248-.81.472-1.699 1.144-2.803 2.214.167.502-.172 1.014-.002 1.517.948-.603 1.661-.533 2.084.061.669.824.676 2.828-.118 5.247a8.265 8.265 0 00-.232.665c-1.421 4.226-3.593 8.102-5.338 7.299-1.476-.721-.583-6.003 1.06-10.948.858-2.592 2.249-6.103 2.265-6.117 0 0 1.592-.232 2.628-.539 1.219-.361 4.419-1.715 7.156-4.832.185-.17.31-.347.497-.579.251-.353.506-.704.758-1.056 2.98-4.285 3.157-8.301.529-9.35-.23-.094-.456-.187-.685-.216l-.463-.062c-2.09-.205-4.797.391-7.724 2.919-2.016 1.808-5.948 6.832-8.68 13.38-1.623 3.89-3.3 8.947-3.71 12.59-.14.855-.115 1.949-.095 2.71z" fill="#141414"/></svg>