<svg width="175" height="74" viewBox="0 0 175 74" fill="none" xmlns="http://www.w3.org/2000/svg"><path fill-rule="evenodd" clip-rule="evenodd" d="M173.822 11.609c-.792-.063-4.74-.153-5.494-.168-.758-.016-.818.813-1.088 1.392-.262-.984-2.694-2.577-6.571-1.124-3.349 1.253-5.86 4.563-7.279 8.597-1.308 3.71-.316 7.924 4.771 7.419-9.145 1.188-15.547 6.148-20.047 9.001-3.868 2.456-7.713 1.588-7.868-1.124.05-.184.1-.376.155-.596l-1.04.05c-6.063.28-12.145.734-18.221 1.37.196-.588.349-1.037.594-1.761 1.82-5.428 3.32-9.341 5.182-14.753.865-2.595 2.768-4.214 4.1-3.979 2.236.416 2.164 4.31 1.334 6.315-1.244 3.132-3.225 5.468-4.676 4.678-.704-.4.172-1.518.172-1.518-.578.126-1.154.253-1.729.38-.636 1.213-2 3.382-.065 5.005 1.934 1.677 5.257.59 7.341-1.112 2.289-1.872 3.896-4.739 4.76-8.39 1.06-4.554-1.055-9.137-4.651-8.797-2.721.208-5.032 2.224-5.032 2.224 0 .004.683-1.17-1.366-1.01-2.708.209-4.656.39-4.656.394-1.052.46.473.919.106 1.895l-1.218 3.443c-1.82 5.706-3.656 9.918-5.432 15.637a34.44 34.44 0 01-.678 2.015c-30.156 3.722-60.114 11.882-87.39 24.926a9156.632 9156.632 0 00-2.938 11.422c26.618-16.83 57.635-28.488 89.124-33.271-.856 1.88-1.5 3.193-2.596 4.505-1.822 2.178-3.298 3.127-4.461 3.743-1.648.896 3.672 1.056 6.131-.073 4.029-1.947 4.142-3.874 4.142-3.878.902.675 1.902 1.052 2.784.967 3.923-.473-.888-1.783-.301-4.319.175-.598.344-1.2.516-1.8a210.985 210.985 0 0117.664-1.422c-.431 1.485-.617 3.293.492 4.394 1.853 1.895 6.664 1.74 11.513-1.553 4.846-3.295 10.143-10.263 20.783-12.612.207-.559.576-1.895.779-2.452 0-.003-2.788 1.784-2.632-2.605.114-3.619 3.95-9.722 5.768-9.766 2.309-.056 1.314 2.575 1.314 2.575-1.088 2.788-2.172 5.59-3.254 8.401-1.394 3.432 1.076 4.558 3.904 4.108 2.06-.329 3.006-1.214 3.942-1.921l.932-2.303c-1.745.955-3.942 1.742-3.262.04 1.093-2.881 3.41-7.992 4.509-10.844.279-.758 2.169-1.666 1.133-1.745zm-41.476 18.49c2.435.286 5.622-.63 8.216-3.543.471-.502.888-1.07 1.135-1.723 1.773-3.873.489-5.487-.359-6.11-.276-.227-.513-.323-.513-.323.2-.16.427-.292.795-.512.684-.412 1.721-.875 3.114-1.411 1.198-.443 1.638.557 1.099 1.655-.953 2.345-1.541 4.064-2.484 6.429-.893 1.687-.535 4.727 1.927 4.619 2.522-.086 3.464-.519 6.132-2.05-.078-.546-.156-1.092-.236-1.64-1.295.923-2.98.994-2.24-.885 1.26-3.372 2.166-6.088 3.448-9.423.197-.701 2.598-4.76-3.139-2.85-2.716.99-6.411 2.668-7.607 3.437-1.178.759-1.853 1.153-2.894 1.861 0 0 1.814 2.231.444 6.362-1.854 5.386-5.924 5.274-4.674 2.15 1.294-3.534 4.242-11.736 4.49-12.213.249-.476.994-1.117-.792-1.164-1.784-.048-4.787.137-4.79.181-1.372.198.316.916-.065 1.875-1.208 3.052-2.713 7.02-3.637 9.455-.618 1.506-1.243 5.362 2.63 5.824zm-72.605-5.794c.221.361-.203 1.553-.203 1.555a3230.704 3230.704 0 00-3.276 9.936s-.846 2.473-.336 4.094c.464 1.346 2.11 1.659 3.126 1.359 1.396-.413 3.718-1.785 4.786-3.201l.247-2.622c-.604.724-1.747 2.062-2.07 1.356-.266-.636.253-2.436.253-2.436.617-1.929 1.24-3.848 1.86-5.768.478-1.477.96-2.952 1.437-4.426 0 0 1.052-2.886.265-3.844-.28-.366-.753-.55-1.232-.526-2.442-.01-4.828 2.263-5.992 3.327.02.41-.598 1.628-.578 2.04 0 0 1.494-1.207 1.713-.844zm4.972-6.688c.183-.05.432-.228.68-.339 3.596-2.144 2.793-3.642 2.615-4.005-.178-.355-1.084-1.063-3.052-.183-.37.167-.68.339-1.115.636-3.235 2.12-2.232 3.658-2.235 3.654 0 .004.706 1.362 3.107.237zM7.885 42.632c-.927-1.823.593-5.975 5.096-8.735 4.964-3.043 7.81-2.885 7.81-2.885s-2.343 3.685-5.14 7.128c-.514.632-1.02 1.196-1.469 1.766-1.524 1.696-4.764 5.506-6.297 2.726zm20.18-19.218c1.224-2.436 2.976-5.83 3.552-7.293-.287 2.981-2.164 8.548-3.159 12.124-.026.09-.05.184-.073.277-.872-.14-2.052-.26-3.016-.233a78.221 78.221 0 002.696-4.875zM16.038 42.67c2.806-3.776 5.41-7.705 7.651-11.841 1.459.11 2.748.224 4.079.615a1163.14 1163.14 0 01-3.656 12.898c-1.47 3.892-3.326 7.811-6.866 10.239 0 .005 1.626.88 5.295-2.01.372-.285 3.021-3.022 3.01-2.8 0 0 1.91 2.357 7.362-.025 6.396-2.797 12.417-15.4 14.745-22.86-.018.05.76-.434.58.17-.768 2.558-3.213 9.998-3.722 12.428-.16.689-.238 4.01 2.793 4.324 1.86.27 3.797-1.756 5.503-4.439l-.279-2.617c-1.517 2.262-2.399 1.81-1.904-.174-.001-.01 2.287-8.444 3.05-10.432.843-1.809 1.578-2.832 1.98-3.196.505-.452 1.027-1.477-2.306-.732-3.33.746-5.252 1.202-8.65 2.264-1.238.435-.186.806-.023 1.211.161.407.372 3.184-3.082 9.296-1.56 2.481-4.216 8.036-7.557 9.661-1.893.919-2.867-.292-2.29-2.196.769-2.768 1.538-5.662 2.293-8.389 1.64.99 2.948 1.877 3.473 2.305l1.16-3.626c-.67-.464-2.161-1.383-3.573-1.982 1.25-5.085 2.612-9.962 4.401-14.89 1.175-2.679 2.424-4.252 3.44-5.174.465-.42.46-1.094-.36-.99-1.167.148-2.61.608-4.02.881-3.15.607-10.003 2.563-10.675 2.797-1.472.514-.1 1.092.034 1.435.054.144.106.29.096.5.078.783-.023 1.693-.25 2.593-1.216 4.082-3.078 6.895-5.508 10.38-2.133.23-5.3.727-10.038 2.771-4.44 1.919-7.86 5.153-9.918 8.868-2.054 3.713-4.01 12.103 2.764 11.293 2.838-.732 6.44-2.99 9.37-6.561.505-.499 1.021-1.215 1.598-1.995zm78.79-20.696c.981-1.852 2.09-2.938 3.11-3.676.822-.564 1.627-.798 2.259-.2.813.679.513 1.654-.015 3.36-.594 1.771-1.102 3.155-2.376 6.24a9.422 9.422 0 01-.344.686c-1.082 1.921-3.049 3.642-4.429 2.392-1.555-1.342.437-6.243 1.795-8.802zM88.06 23.07c-2.008 4.719-2.058 9.276.678 11.085.926.683 2.186.852 3.402.635 2.13-.335 3.932-2.275 5.17-3.79.195-.246.39-.489.528-.74 0 0-.72 2.953 1.922 3.271 2.354.286 5.034-2.217 5.034-2.209l.998-2.628c0-.001-3.22 2.603-2.806-.157 1.188-3.51 2.688-7.471 3.896-10.947.378-1.124.67-1.664 1.058-2.161.486-.454.718-.868.036-.887-1.148-.188-4.258.21-5.034.308-.77.099-.997 1.21-1.477 2.16-7.288-5.115-12.437 3.779-13.405 6.06zm-8.37-10.392c.567-.833 1.268-1.975 2.275-3.396 2.956-4.07 4.833-5.348 5.761-5.235 1.154.151.958 2.602-.276 4.871-.385.655-.776 1.375-1.333 1.947-2.488 2.894-4.604 4.085-5.899 4.512-1.289.428-1.934.582-2.44.581.19-.364 1.214-2.088 1.911-3.28zm-12 19.933c.214 3.458 2.151 6.252 6.504 5.542 1.582-.387 3.61-1.244 5.331-2.832 1.852-1.576 3.552-3.983 4.992-7.364 1.39-3.839 2.436-11.095-3.955-10.248-.81.472-1.698 1.144-2.802 2.213.166.503-.172 1.015-.003 1.517.948-.602 1.661-.533 2.084.062.67.824.676 2.828-.117 5.246a8.262 8.262 0 00-.232.666c-1.422 4.225-3.594 8.101-5.339 7.298-1.476-.721-.583-6.002 1.06-10.948.859-2.592 2.25-6.102 2.265-6.117 0 0 1.592-.232 2.628-.539 1.22-.361 4.42-1.714 7.156-4.832.186-.169.31-.346.498-.578.25-.354.505-.704.757-1.056 2.98-4.286 3.157-8.302.53-9.351-.23-.093-.457-.187-.686-.216l-.463-.061c-2.089-.206-4.797.39-7.724 2.918-2.016 1.808-5.948 6.832-8.68 13.38-1.622 3.89-3.3 8.947-3.71 12.59-.139.856-.115 1.949-.095 2.71z" fill="#DC0028"/></svg>