<svg width="1499" height="222" viewBox="0 0 1499 222" fill="none" xmlns="http://www.w3.org/2000/svg"><path d="M499.578 195.723v-23.226c0-.468-.311-.78-.777-.78h-3.419c-.466 0-.777.312-.777.78v23.226c0 .468.311.78.777.78h3.419c.466-.156.777-.468.777-.78zm-17.717.624v-24.474c-1.865 0-4.818 1.247-4.818 3.897v16.68c-1.087.156-2.642.312-3.574.312-3.108 0-3.885-2.183-3.885-5.145v-12.002c-.156-2.962-3.419-3.742-4.818-3.742v15.589c0 5.611 2.797 9.197 8.703 9.197.932 0 2.797-.312 3.574-.468v.312c.777 4.832-5.128 2.962-8.236 2.65-2.332 0-3.886 1.87-4.352 4.053 1.399.467 5.75.935 8.859 1.247 5.594.156 8.547-2.962 8.547-8.106zm8.859-.624v-23.226c0-.468-.311-.78-.777-.78h-3.419c-.467 0-.778.312-.778.78v23.226c0 .468.311.78.778.78h3.419c.466-.156.777-.468.777-.78zm-2.487-30.553c1.399 0 2.487 1.092 2.487 2.495 0 1.402-1.088 2.494-2.487 2.494s-2.487-1.092-2.487-2.494c0-1.248 1.088-2.495 2.487-2.495zm9.014 0c1.399 0 2.487 1.092 2.487 2.495 0 1.402-1.088 2.494-2.487 2.494s-2.487-1.092-2.487-2.494c0-1.248 1.088-2.495 2.487-2.495z" fill="#C5CDCF"/><path fill-rule="evenodd" clip-rule="evenodd" d="M435.356 172.881c-2.427-7.028 4.668-14.561 10.505-14.786 3.497 1.83 6.5 6.635 6.35 13.157-.459 8.034-6.126 14.958-12.294 21.338-.344-7.779-1.99-12.738-4.561-19.709z" fill="#9BE400"/><path fill-rule="evenodd" clip-rule="evenodd" d="M421.596 210.934c-.977-7.845 2.198-14.536 5.35-18.617 1.497-1.916 2.648-3.664 3.525-5.274 1.655.719 6.105 3.061 8.557 6.863-.356 5.515-4.42 15.552-17.432 17.028z" fill="#3E7FCA"/><path fill-rule="evenodd" clip-rule="evenodd" d="M416.68 181.14c-10.357-2.905-12.911-12.031-12.449-18.168 10.057-4.089 20.88.099 27.13 8.829 4.381 6.118 7.125 13.963 7.681 20.809-3.006-3.979-6.802-6.285-11.638-8.091-3.308-1.233-6.364-2.051-10.724-3.379z" fill="#E4B200"/><path d="M518.984 173h-1.32v-16.8h1.344l6.768 9.216 6.504-9.216h1.272V173h-1.32v-14.736l-6.456 9.072h-.216l-6.576-9V173zm27.667-2.28l.408.96c-.976 1.024-2.304 1.536-3.984 1.536-1.728 0-3.112-.512-4.152-1.536-1.056-1.024-1.584-2.384-1.584-4.08 0-1.632.48-2.976 1.44-4.032.976-1.056 2.32-1.584 4.032-1.584 1.392 0 2.56.448 3.504 1.344.928.88 1.392 2.056 1.392 3.528 0 .384-.024.72-.072 1.008h-8.904c.048 1.296.472 2.32 1.272 3.072.8.736 1.848 1.104 3.144 1.104 1.504 0 2.672-.44 3.504-1.32zm-3.96-7.56c-1.152 0-2.088.336-2.808 1.008-.704.672-1.112 1.56-1.224 2.664h7.776c-.016-1.136-.36-2.032-1.032-2.688-.672-.656-1.576-.984-2.712-.984zm7.053 12.576h-1.176v-3.912h1.344c.416-.528.784-1.384 1.104-2.568.336-1.184.552-2.52.648-4.008l.168-3.048h6.888v9.624h1.8v3.912h-1.176V173h-9.6v2.736zm3.264-12.36l-.144 2.352c-.128 1.472-.352 2.752-.672 3.84-.304 1.056-.624 1.808-.96 2.256h6.24v-8.448h-4.464zm18.274.624l-7.2 9h-1.248v-10.8h1.248v9l7.2-9h1.248V173h-1.248v-9zm5.364 0l-.336-1.032c1.072-.656 2.216-.984 3.432-.984 1.408 0 2.424.352 3.048 1.056.64.704.96 1.792.96 3.264V173h-1.248v-1.656c-.88 1.2-2.112 1.8-3.696 1.8-1.008 0-1.816-.288-2.424-.864-.608-.592-.912-1.376-.912-2.352 0-1.056.384-1.88 1.152-2.472.752-.592 1.736-.888 2.952-.888s2.192.272 2.928.816c0-1.12-.08-1.976-.24-2.568-.128-.576-.392-.984-.792-1.224-.384-.24-.984-.384-1.8-.432-.976 0-1.984.28-3.024.84zm2.544 7.968c1.344 0 2.448-.568 3.312-1.704v-1.8c-.784-.576-1.72-.864-2.808-.864-.816 0-1.504.2-2.064.6-.56.4-.84.952-.84 1.656 0 .64.224 1.152.672 1.536.448.384 1.024.576 1.728.576zm15.672-9.768h1.464l-4.056 5.232 4.296 5.568h-1.536l-3.696-4.776-3.696 4.776h-1.464l4.296-5.52-4.056-5.28h1.536l3.432 4.464 3.48-4.464zm5.595 15.6h-1.248v-15.6h1.248v1.44c.432-.48 1.008-.872 1.728-1.176.736-.32 1.48-.48 2.232-.48 1.536 0 2.76.504 3.672 1.512.912 1.008 1.368 2.32 1.368 3.936 0 1.68-.512 3.064-1.536 4.152-1.04 1.088-2.376 1.632-4.008 1.632-1.456 0-2.608-.304-3.456-.912v5.496zm3.624-14.64c-.704 0-1.392.16-2.064.48-.656.32-1.176.72-1.56 1.2v6.216c.992.656 2.112.984 3.36.984 1.28 0 2.32-.424 3.12-1.272.8-.848 1.2-1.936 1.2-3.264 0-1.328-.36-2.384-1.08-3.168-.72-.784-1.712-1.176-2.976-1.176zm8.753.84l-.336-1.032c1.072-.656 2.216-.984 3.432-.984 1.408 0 2.424.352 3.048 1.056.64.704.96 1.792.96 3.264V173h-1.248v-1.656c-.88 1.2-2.112 1.8-3.696 1.8-1.008 0-1.816-.288-2.424-.864-.608-.592-.912-1.376-.912-2.352 0-1.056.384-1.88 1.152-2.472.752-.592 1.736-.888 2.952-.888s2.192.272 2.928.816c0-1.12-.08-1.976-.24-2.568-.128-.576-.392-.984-.792-1.224-.384-.24-.984-.384-1.8-.432-.976 0-1.984.28-3.024.84zm2.544 7.968c1.344 0 2.448-.568 3.312-1.704v-1.8c-.784-.576-1.72-.864-2.808-.864-.816 0-1.504.2-2.064.6-.56.4-.84.952-.84 1.656 0 .64.224 1.152.672 1.536.448.384 1.024.576 1.728.576zM633.017 173h-1.248v-4.896h-7.008V173h-1.248v-10.8h1.248v4.728h7.008V162.2h1.248V173zm12.233-9l-7.2 9h-1.248v-10.8h1.248v9l7.2-9h1.248V173h-1.248v-9zm13.885 9h-1.248v-9.552h-4.56l-.144 2.352c-.208 3.04-.712 5.056-1.512 6.048-.64.832-1.432 1.248-2.376 1.248l-.096-1.224c.416 0 .808-.192 1.176-.576.88-.816 1.416-2.728 1.608-5.736l.168-3.36h6.984V173zm12.248-9l-7.2 9h-1.248v-10.8h1.248v9l7.2-9h1.248V173h-1.248v-9zm18.757 9h-13.728v-10.8h1.248v9.624h4.68V162.2h1.248v9.624h4.68V162.2h1.248v9.624h1.8v3.912h-1.176V173zm12.019-2.28l.408.96c-.976 1.024-2.304 1.536-3.984 1.536-1.728 0-3.112-.512-4.152-1.536-1.056-1.024-1.584-2.384-1.584-4.08 0-1.632.48-2.976 1.44-4.032.976-1.056 2.32-1.584 4.032-1.584 1.392 0 2.56.448 3.504 1.344.928.88 1.392 2.056 1.392 3.528 0 .384-.024.72-.072 1.008h-8.904c.048 1.296.472 2.32 1.272 3.072.8.736 1.848 1.104 3.144 1.104 1.504 0 2.672-.44 3.504-1.32zm-3.96-7.56c-1.152 0-2.088.336-2.808 1.008-.704.672-1.112 1.56-1.224 2.664h7.776c-.016-1.136-.36-2.032-1.032-2.688-.672-.656-1.576-.984-2.712-.984zM518.144 208h-1.248v-10.8h1.176l4.488 6.024 4.32-6.024h1.128V208h-1.248v-8.904l-4.2 5.832h-.072l-4.344-5.832V208zm18.578.216c-1.664 0-3.024-.528-4.08-1.584s-1.584-2.4-1.584-4.032c0-1.632.528-2.976 1.584-4.032s2.416-1.584 4.08-1.584c1.664 0 3.024.528 4.08 1.584s1.584 2.4 1.584 4.032c0 1.632-.528 2.976-1.584 4.032s-2.416 1.584-4.08 1.584zm0-1.176c1.296 0 2.336-.408 3.12-1.224.816-.832 1.224-1.904 1.224-3.216 0-1.296-.408-2.36-1.224-3.192-.816-.832-1.856-1.248-3.12-1.248-1.248 0-2.288.416-3.12 1.248-.816.832-1.224 1.896-1.224 3.192 0 1.296.408 2.36 1.224 3.192.816.832 1.856 1.248 3.12 1.248zm7.772 3.696h-1.176v-3.912h1.344c.416-.528.784-1.384 1.104-2.568.336-1.184.552-2.52.648-4.008l.168-3.048h6.888v9.624h1.8v3.912h-1.176V208h-9.6v2.736zm3.264-12.36l-.144 2.352c-.128 1.472-.352 2.752-.672 3.84-.304 1.056-.624 1.808-.96 2.256h6.24v-8.448h-4.464zm18.37 7.344l.408.96c-.976 1.024-2.304 1.536-3.984 1.536-1.728 0-3.112-.512-4.152-1.536-1.056-1.024-1.584-2.384-1.584-4.08 0-1.632.48-2.976 1.44-4.032.976-1.056 2.32-1.584 4.032-1.584 1.392 0 2.56.448 3.504 1.344.928.88 1.392 2.056 1.392 3.528 0 .384-.024.72-.072 1.008h-8.904c.048 1.296.472 2.32 1.272 3.072.8.736 1.848 1.104 3.144 1.104 1.504 0 2.672-.44 3.504-1.32zm-3.96-7.56c-1.152 0-2.088.336-2.808 1.008-.704.672-1.112 1.56-1.224 2.664h7.776c-.016-1.136-.36-2.032-1.032-2.688-.672-.656-1.576-.984-2.712-.984zm16.389 9.84h-1.248v-9.552h-4.56l-.144 2.352c-.208 3.04-.712 5.056-1.512 6.048-.64.832-1.432 1.248-2.376 1.248l-.096-1.224c.416 0 .808-.192 1.176-.576.88-.816 1.416-2.728 1.608-5.736l.168-3.36h6.984V208zm12.344-2.28l.408.96c-.976 1.024-2.304 1.536-3.984 1.536-1.728 0-3.112-.512-4.152-1.536-1.056-1.024-1.584-2.384-1.584-4.08 0-1.632.48-2.976 1.44-4.032.976-1.056 2.32-1.584 4.032-1.584 1.392 0 2.56.448 3.504 1.344.928.88 1.392 2.056 1.392 3.528 0 .384-.024.72-.072 1.008h-8.904c.048 1.296.472 2.32 1.272 3.072.8.736 1.848 1.104 3.144 1.104 1.504 0 2.672-.44 3.504-1.32zm-3.96-7.56c-1.152 0-2.088.336-2.808 1.008-.704.672-1.112 1.56-1.224 2.664h7.776c-.016-1.136-.36-2.032-1.032-2.688-.672-.656-1.576-.984-2.712-.984zm16.45.84l-7.2 9h-1.248v-10.8h1.248v9l7.2-9h1.248V208h-1.248v-9zm-6.792-7.416h1.128c0 .592.208 1.096.624 1.512.416.4.952.6 1.608.6.624 0 1.136-.2 1.536-.6.4-.416.6-.92.6-1.512h1.128c0 .88-.304 1.616-.912 2.208-.608.576-1.392.864-2.352.864-1.024 0-1.84-.28-2.448-.84-.608-.576-.912-1.32-.912-2.232zM1311.72 32h-1.32V16.448h-10.42V32h-1.32V15.2h13.06V32zm5.8 4.8h-1.25V21.2h1.25v1.44c.43-.48 1.01-.872 1.73-1.176.73-.32 1.48-.48 2.23-.48 1.54 0 2.76.504 3.67 1.512.91 1.008 1.37 2.32 1.37 3.936 0 1.68-.51 3.064-1.54 4.152-1.04 1.088-2.37 1.632-4 1.632-1.46 0-2.61-.304-3.46-.912V36.8zm3.62-14.64c-.7 0-1.39.16-2.06.48-.66.32-1.18.72-1.56 1.2v6.216c.99.656 2.11.984 3.36.984 1.28 0 2.32-.424 3.12-1.272.8-.848 1.2-1.936 1.2-3.264 0-1.328-.36-2.384-1.08-3.168-.72-.784-1.71-1.176-2.98-1.176zm16.87.84l-7.2 9h-1.25V21.2h1.25v9l7.2-9h1.25V32h-1.25v-9zm13.88 9h-1.25v-9.552h-4.56l-.14 2.352c-.21 3.04-.71 5.056-1.51 6.048-.64.832-1.43 1.248-2.38 1.248l-.09-1.224c.41 0 .8-.192 1.17-.576.88-.816 1.42-2.728 1.61-5.736l.17-3.36h6.98V32zm8.7.216c-1.67 0-3.03-.528-4.08-1.584-1.06-1.056-1.59-2.4-1.59-4.032 0-1.632.53-2.976 1.59-4.032 1.05-1.056 2.41-1.584 4.08-1.584 1.66 0 3.02.528 4.08 1.584 1.05 1.056 1.58 2.4 1.58 4.032 0 1.632-.53 2.976-1.58 4.032-1.06 1.056-2.42 1.584-4.08 1.584zm0-1.176c1.29 0 2.33-.408 3.12-1.224.81-.832 1.22-1.904 1.22-3.216 0-1.296-.41-2.36-1.22-3.192-.82-.832-1.86-1.248-3.12-1.248-1.25 0-2.29.416-3.12 1.248-.82.832-1.23 1.896-1.23 3.192 0 1.296.41 2.36 1.23 3.192.81.832 1.85 1.248 3.12 1.248zm19.7-9.84h1.51l-4.32 5.184 4.61 5.616h-1.51l-4.49-5.616 4.2-5.184zm-4.97 10.8h-1.24V21.2h1.24V32zm-7.94 0l4.54-5.616-4.32-5.184h1.53l4.18 5.184-4.42 5.616h-1.51zm25.12-2.28l.41.96c-.98 1.024-2.3 1.536-3.98 1.536-1.73 0-3.12-.512-4.16-1.536-1.05-1.024-1.58-2.384-1.58-4.08 0-1.632.48-2.976 1.44-4.032.98-1.056 2.32-1.584 4.03-1.584 1.39 0 2.56.448 3.51 1.344.92.88 1.39 2.056 1.39 3.528 0 .384-.03.72-.07 1.008h-8.91c.05 1.296.47 2.32 1.27 3.072.8.736 1.85 1.104 3.15 1.104 1.5 0 2.67-.44 3.5-1.32zm-3.96-7.56c-1.15 0-2.09.336-2.81 1.008-.7.672-1.11 1.56-1.22 2.664h7.78c-.02-1.136-.36-2.032-1.04-2.688-.67-.656-1.57-.984-2.71-.984zm17.51 9.84h-1.25v-4.896h-7.01V32h-1.25V21.2h1.25v4.728h7.01V21.2h1.25V32zm12.23-9l-7.2 9h-1.25V21.2h1.25v9l7.2-9h1.25V32h-1.25v-9zm13.57 6.72l.41.96c-.97 1.024-2.3 1.536-3.98 1.536-1.73 0-3.11-.512-4.15-1.536-1.06-1.024-1.59-2.384-1.59-4.08 0-1.632.48-2.976 1.44-4.032.98-1.056 2.32-1.584 4.03-1.584 1.4 0 2.56.448 3.51 1.344.93.88 1.39 2.056 1.39 3.528 0 .384-.02.72-.07 1.008h-8.91c.05 1.296.48 2.32 1.28 3.072.8.736 1.84 1.104 3.14 1.104 1.5 0 2.67-.44 3.5-1.32zm-3.96-7.56c-1.15 0-2.08.336-2.8 1.008-.71.672-1.12 1.56-1.23 2.664h7.78c-.02-1.136-.36-2.032-1.03-2.688-.68-.656-1.58-.984-2.72-.984zm23.16 9.84h-1.25v-4.896h-7.01V32h-1.25V21.2h1.25v4.728h7.01V21.2h1.25V32zm4.12-9l-.34-1.032c1.08-.656 2.22-.984 3.44-.984 1.4 0 2.42.352 3.04 1.056.64.704.96 1.792.96 3.264V32h-1.24v-1.656c-.88 1.2-2.12 1.8-3.7 1.8-1.01 0-1.82-.288-2.42-.864-.61-.592-.92-1.376-.92-2.352 0-1.056.39-1.88 1.16-2.472.75-.592 1.73-.888 2.95-.888 1.21 0 2.19.272 2.93.816 0-1.12-.08-1.976-.24-2.568-.13-.576-.4-.984-.8-1.224-.38-.24-.98-.384-1.8-.432-.97 0-1.98.28-3.02.84zm2.54 7.968c1.35 0 2.45-.568 3.32-1.704v-1.8c-.79-.576-1.72-.864-2.81-.864-.82 0-1.51.2-2.07.6-.56.4-.84.952-.84 1.656 0 .64.23 1.152.68 1.536.44.384 1.02.576 1.72.576zm-157.73 28.976V67h-1.32V50.2c.72 0 1.45-.008 2.19-.024.73-.016 1.35-.024 1.85-.024 3.92 0 5.88 1.616 5.88 4.848 0 1.152-.38 2.168-1.13 3.048-.75.848-1.71 1.392-2.86 1.632l5.88 7.32h-1.63l-5.59-7.056h-3.27zm2.64-8.544c-.35 0-1.23.016-2.64.048v7.248h2.91c1.13 0 2.13-.344 2.97-1.032.88-.688 1.32-1.576 1.32-2.664 0-2.4-1.52-3.6-4.56-3.6zm17.91 13.32l.4.96c-.97 1.024-2.3 1.536-3.98 1.536-1.73 0-3.11-.512-4.15-1.536-1.06-1.024-1.59-2.384-1.59-4.08 0-1.632.48-2.976 1.44-4.032.98-1.056 2.32-1.584 4.04-1.584 1.39 0 2.56.448 3.5 1.344.93.88 1.39 2.056 1.39 3.528 0 .384-.02.72-.07 1.008h-8.9c.04 1.296.47 2.32 1.27 3.072.8.736 1.85 1.104 3.14 1.104 1.51 0 2.67-.44 3.51-1.32zm-3.96-7.56c-1.16 0-2.09.336-2.81 1.008-.71.672-1.11 1.56-1.23 2.664h7.78c-.02-1.136-.36-2.032-1.03-2.688-.67-.656-1.58-.984-2.71-.984zm8.33.84l-.33-1.032c1.07-.656 2.21-.984 3.43-.984 1.41 0 2.42.352 3.05 1.056.64.704.96 1.792.96 3.264V67h-1.25v-1.656c-.88 1.2-2.11 1.8-3.7 1.8-1 0-1.81-.288-2.42-.864-.61-.592-.91-1.376-.91-2.352 0-1.056.38-1.88 1.15-2.472.75-.592 1.74-.888 2.95-.888 1.22 0 2.19.272 2.93.816 0-1.12-.08-1.976-.24-2.568-.13-.576-.39-.984-.79-1.224-.39-.24-.99-.384-1.8-.432-.98 0-1.99.28-3.03.84zm2.55 7.968c1.34 0 2.45-.568 3.31-1.704v-1.8c-.78-.576-1.72-.864-2.81-.864-.81 0-1.5.2-2.06.6-.56.4-.84.952-.84 1.656 0 .64.22 1.152.67 1.536.45.384 1.02.576 1.73.576zm16.53-1.416l.63.912c-.43.56-1.02.992-1.75 1.296a5.94 5.94 0 01-2.33.456c-1.68 0-3.06-.512-4.13-1.536-1.06-1.024-1.58-2.384-1.58-4.08 0-1.584.51-2.912 1.53-3.984 1.04-1.088 2.32-1.632 3.84-1.632 1.86 0 3.26.448 4.2 1.344l-.6 1.008c-.85-.784-1.98-1.176-3.41-1.176-1.15 0-2.15.424-3 1.272-.83.832-1.24 1.888-1.24 3.168 0 1.344.42 2.424 1.27 3.24.85.8 1.92 1.2 3.21 1.2 1.4 0 2.52-.496 3.36-1.488zm3.13-1.656V53.2h1.25v3h4.34v1.176h-4.34v5.328c0 2.176.81 3.264 2.42 3.264.64 0 1.22-.192 1.73-.576l.41.984c-.66.512-1.47.768-2.43.768-2.25 0-3.38-1.416-3.38-4.248zm11.37-12.696h1.32v13.104c0 2.608-1.12 3.912-3.36 3.912-.95 0-1.72-.256-2.31-.768l.48-1.032c.51.368 1.07.552 1.66.552.8 0 1.37-.232 1.7-.696.34-.48.51-1.2.51-2.16V50.2zm14.4 12.624c0-.736-.21-1.368-.64-1.896a4.2 4.2 0 00-1.61-1.2c-.64-.272-1.34-.568-2.09-.888-.75-.336-1.45-.664-2.09-.984-.64-.32-1.17-.792-1.61-1.416-.43-.64-.64-1.392-.64-2.256 0-1.216.44-2.216 1.32-3 .89-.8 2.09-1.2 3.6-1.2 1.96 0 3.47.568 4.51 1.704l-.72.984c-.96-.96-2.21-1.44-3.75-1.44-1.1 0-1.97.272-2.61.816-.64.528-.96 1.24-.96 2.136 0 .72.21 1.344.65 1.872.43.512.96.896 1.6 1.152.64.256 1.34.544 2.09.864.75.304 1.45.616 2.09.936.64.32 1.18.808 1.61 1.464.43.64.65 1.416.65 2.328 0 1.312-.52 2.376-1.54 3.192-1.02.816-2.3 1.224-3.82 1.224a7.73 7.73 0 01-3.07-.648c-.99-.464-1.69-1.056-2.09-1.776l.8-.912c.48.624 1.12 1.128 1.92 1.512.8.384 1.6.576 2.42.576 1.09 0 2.02-.28 2.81-.84.78-.544 1.17-1.312 1.17-2.304zM516.656 35.216h-1.248v-4.464h1.8c.544-.704 1.12-2.072 1.728-4.104.624-2.128 1.016-4.824 1.176-8.088l.168-3.36h9.456v15.552h2.28v4.464h-1.248V32h-14.112v3.216zm4.896-18.768l-.192 3.072c-.208 3.04-.592 5.536-1.152 7.488-.544 1.92-1.056 3.168-1.536 3.744h9.744V16.448h-6.864zm17.467 15.768c-1.664 0-3.024-.528-4.08-1.584s-1.584-2.4-1.584-4.032c0-1.632.528-2.976 1.584-4.032s2.416-1.584 4.08-1.584c1.664 0 3.024.528 4.08 1.584s1.584 2.4 1.584 4.032c0 1.632-.528 2.976-1.584 4.032s-2.416 1.584-4.08 1.584zm0-1.176c1.296 0 2.336-.408 3.12-1.224.816-.832 1.224-1.904 1.224-3.216 0-1.296-.408-2.36-1.224-3.192-.816-.832-1.856-1.248-3.12-1.248-1.248 0-2.288.416-3.12 1.248-.816.832-1.224 1.896-1.224 3.192 0 1.296.408 2.36 1.224 3.192.816.832 1.856 1.248 3.12 1.248zm18.105.96h-1.248v-9.624h-6.888V32h-1.248V21.2h9.384V32zm8.684.216c-1.664 0-3.024-.528-4.08-1.584s-1.584-2.4-1.584-4.032c0-1.632.528-2.976 1.584-4.032s2.416-1.584 4.08-1.584c1.664 0 3.024.528 4.08 1.584s1.584 2.4 1.584 4.032c0 1.632-.528 2.976-1.584 4.032s-2.416 1.584-4.08 1.584zm0-1.176c1.296 0 2.336-.408 3.12-1.224.816-.832 1.224-1.904 1.224-3.216 0-1.296-.408-2.36-1.224-3.192-.816-.832-1.856-1.248-3.12-1.248-1.248 0-2.288.416-3.12 1.248-.816.832-1.224 1.896-1.224 3.192 0 1.296.408 2.36 1.224 3.192.816.832 1.856 1.248 3.12 1.248zm17.108.96h-1.248v-9.552h-4.56l-.144 2.352c-.208 3.04-.712 5.056-1.512 6.048-.64.832-1.432 1.248-2.376 1.248l-.096-1.224c.416 0 .808-.192 1.176-.576.88-.816 1.416-2.728 1.608-5.736l.168-3.36h6.984V32zm13.304 0h-1.248v-4.896h-7.008V32h-1.248V21.2h1.248v4.728h7.008V21.2h1.248V32zm12.329-2.28l.408.96c-.976 1.024-2.304 1.536-3.984 1.536-1.728 0-3.112-.512-4.152-1.536-1.056-1.024-1.584-2.384-1.584-4.08 0-1.632.48-2.976 1.44-4.032.976-1.056 2.32-1.584 4.032-1.584 1.392 0 2.56.448 3.504 1.344.928.88 1.392 2.056 1.392 3.528 0 .384-.024.72-.072 1.008h-8.904c.048 1.296.472 2.32 1.272 3.072.8.736 1.848 1.104 3.144 1.104 1.504 0 2.672-.44 3.504-1.32zm-3.96-7.56c-1.152 0-2.088.336-2.808 1.008-.704.672-1.112 1.56-1.224 2.664h7.776c-.016-1.136-.36-2.032-1.032-2.688-.672-.656-1.576-.984-2.712-.984zM622.095 32h-1.248v-4.896h-7.008V32h-1.248V21.2h1.248v4.728h7.008V21.2h1.248V32zm13.289 0h-1.248v-4.896h-7.008V32h-1.248V21.2h1.248v4.728h7.008V21.2h1.248V32zm6.761 0h-2.976V21.2h1.248v3.624h1.872c2.848 0 4.272 1.184 4.272 3.552 0 1.12-.36 2.008-1.08 2.664-.72.64-1.832.96-3.336.96zm-.072-6h-1.656v4.824h1.632c1.136 0 1.952-.2 2.448-.6.496-.4.744-1.008.744-1.824 0-1.6-1.056-2.4-3.168-2.4zm8.208 6h-1.248V21.2h1.248V32zm12.339-2.28l.408.96c-.976 1.024-2.304 1.536-3.984 1.536-1.728 0-3.112-.512-4.152-1.536-1.056-1.024-1.584-2.384-1.584-4.08 0-1.632.48-2.976 1.44-4.032.976-1.056 2.32-1.584 4.032-1.584 1.392 0 2.56.448 3.504 1.344.928.88 1.392 2.056 1.392 3.528 0 .384-.024.72-.072 1.008H654.7c.048 1.296.472 2.32 1.272 3.072.8.736 1.848 1.104 3.144 1.104 1.504 0 2.672-.44 3.504-1.32zm-3.96-7.56c-1.152 0-2.088.336-2.808 1.008-.704.672-1.112 1.56-1.224 2.664h7.776c-.016-1.136-.36-2.032-1.032-2.688-.672-.656-1.576-.984-2.712-.984zM525.296 64.552l.624.912c-.432.56-1.016.992-1.752 1.296a5.923 5.923 0 01-2.328.456c-1.68 0-3.056-.512-4.128-1.536-1.056-1.024-1.584-2.384-1.584-4.08 0-1.584.512-2.912 1.536-3.984 1.04-1.088 2.32-1.632 3.84-1.632 1.856 0 3.256.448 4.2 1.344l-.6 1.008c-.848-.784-1.984-1.176-3.408-1.176-1.152 0-2.152.424-3 1.272-.832.832-1.248 1.888-1.248 3.168 0 1.344.424 2.424 1.272 3.24.848.8 1.92 1.2 3.216 1.2 1.392 0 2.512-.496 3.36-1.488zM538.046 67h-1.248v-9.624h-6.888V67h-1.248V56.2h9.384V67zm5.036 4.8h-1.248V56.2h1.248v1.44c.432-.48 1.008-.872 1.728-1.176.736-.32 1.48-.48 2.232-.48 1.536 0 2.76.504 3.672 1.512.912 1.008 1.368 2.32 1.368 3.936 0 1.68-.512 3.064-1.536 4.152-1.04 1.088-2.376 1.632-4.008 1.632-1.456 0-2.608-.304-3.456-.912V71.8zm3.624-14.64c-.704 0-1.392.16-2.064.48-.656.32-1.176.72-1.56 1.2v6.216c.992.656 2.112.984 3.36.984 1.28 0 2.32-.424 3.12-1.272.8-.848 1.2-1.936 1.2-3.264 0-1.328-.36-2.384-1.08-3.168-.72-.784-1.712-1.176-2.976-1.176zm8.753.84l-.336-1.032c1.072-.656 2.216-.984 3.432-.984 1.408 0 2.424.352 3.048 1.056.64.704.96 1.792.96 3.264V67h-1.248v-1.656c-.88 1.2-2.112 1.8-3.696 1.8-1.008 0-1.816-.288-2.424-.864-.608-.592-.912-1.376-.912-2.352 0-1.056.384-1.88 1.152-2.472.752-.592 1.736-.888 2.952-.888s2.192.272 2.928.816c0-1.12-.08-1.976-.24-2.568-.128-.576-.392-.984-.792-1.224-.384-.24-.984-.384-1.8-.432-.976 0-1.984.28-3.024.84zm2.544 7.968c1.344 0 2.448-.568 3.312-1.704v-1.8c-.784-.576-1.72-.864-2.808-.864-.816 0-1.504.2-2.064.6-.56.4-.84.952-.84 1.656 0 .64.224 1.152.672 1.536.448.384 1.024.576 1.728.576zM566.138 67V56.2c.528 0 1.04-.008 1.536-.024a85.964 85.964 0 011.944-.048c2.976 0 4.464.928 4.464 2.784 0 .624-.2 1.168-.6 1.632-.384.448-.912.728-1.584.84v.048c1.728.256 2.592 1.12 2.592 2.592 0 2.032-1.608 3.048-4.824 3.048-.208 0-.84-.016-1.896-.048a53.912 53.912 0 00-1.632-.024zm3.84-4.968h-2.592v3.816c1.248.032 2.056.048 2.424.048 2.24 0 3.36-.664 3.36-1.992 0-1.248-1.064-1.872-3.192-1.872zm-.216-4.728c-.528 0-1.32.016-2.376.048V61h2.856c.784 0 1.4-.168 1.848-.504.448-.352.672-.816.672-1.392 0-1.2-1-1.8-3-1.8zm12.827 9.912c-1.664 0-3.024-.528-4.08-1.584s-1.584-2.4-1.584-4.032c0-1.632.528-2.976 1.584-4.032s2.416-1.584 4.08-1.584c1.664 0 3.024.528 4.08 1.584s1.584 2.4 1.584 4.032c0 1.632-.528 2.976-1.584 4.032s-2.416 1.584-4.08 1.584zm0-1.176c1.296 0 2.336-.408 3.12-1.224.816-.832 1.224-1.904 1.224-3.216 0-1.296-.408-2.36-1.224-3.192-.816-.832-1.856-1.248-3.12-1.248-1.248 0-2.288.416-3.12 1.248-.816.832-1.224 1.896-1.224 3.192 0 1.296.408 2.36 1.224 3.192.816.832 1.856 1.248 3.12 1.248zm15.081-9.84h1.248V67h-1.248v-4.56c-.896.608-1.976.912-3.24.912-2.528 0-3.792-1.352-3.792-4.056V56.2h1.32v3c0 1.984.936 2.976 2.808 2.976 1.136 0 2.104-.288 2.904-.864V56.2zM612.205 67h-1.248v-4.896h-7.008V67h-1.248V56.2h1.248v4.728h7.008V56.2h1.248V67zm12.233-9l-7.2 9h-1.248V56.2h1.248v9l7.2-9h1.248V67h-1.248v-9zm12.228-1.8h1.608l-5.328 5.16 5.76 5.64h-1.68l-5.592-5.568 5.232-5.232zM630.714 67h-1.248V56.2h1.248V67zm18.825-9l-7.2 9h-1.248V56.2h1.248v9l7.2-9h1.248V67h-1.248v-9z" fill="#141414"/><path fill-rule="evenodd" clip-rule="evenodd" d="M449.499 5c-2.942 0-5.804.331-8.562.943v38.584c0 4.728 3.855 8.585 8.585 8.585 4.727 0 8.581-3.857 8.581-8.582 0-4.542-3.549-8.27-8.01-8.567v-6.871c8.244.299 14.878 7.12 14.878 15.438 0 8.507-6.94 15.45-15.449 15.45-8.512 0-15.451-6.943-15.451-15.453v-36.4a37.34 37.34 0 00-2.862 1.366v35.034c.001 10.084 8.228 18.308 18.313 18.308 10.086 0 18.31-8.224 18.31-18.305 0-9.895-7.915-17.997-17.739-18.302v-6.869c13.605.307 24.603 11.496 24.603 25.17 0 13.869-11.309 25.175-25.174 25.175-13.869 0-25.181-11.306-25.181-25.177V14.05C415.584 21.29 410 32.24 410 44.498 410 66.312 427.684 84 449.501 84 471.32 84 489 66.312 489 44.498 489 22.684 471.32 5 449.499 5z" fill="#D91935"/><rect width="337" height="89" rx="8" fill="#fff"/><path d="M66.075 34.2h1.584l-6.168 8.256L67.875 51h-1.584l-5.664-7.536L54.939 51h-1.56l6.408-8.544-6.144-8.256h1.56l5.448 7.248 5.424-7.248zm6.46 16.8h-1.32V34.2h1.344l6.768 9.216L85.83 34.2h1.272V51h-1.32V36.264l-6.456 9.072h-.216l-6.576-9V51zm30.067 0H92.426V34.2h1.32v15.552h8.856V51zm7.024-5.928h-5.496v-1.176h5.496v1.176zM113.572 51V40.2c.528 0 1.04-.008 1.536-.024a85.964 85.964 0 011.944-.048c2.976 0 4.464.928 4.464 2.784 0 .624-.2 1.168-.6 1.632-.384.448-.912.728-1.584.84v.048c1.728.256 2.592 1.12 2.592 2.592 0 2.032-1.608 3.048-4.824 3.048-.208 0-.84-.016-1.896-.048a53.912 53.912 0 00-1.632-.024zm3.84-4.968h-2.592v3.816c1.248.032 2.056.048 2.424.048 2.24 0 3.36-.664 3.36-1.992 0-1.248-1.064-1.872-3.192-1.872zm-.216-4.728c-.528 0-1.32.016-2.376.048V45h2.856c.784 0 1.4-.168 1.848-.504.448-.352.672-.816.672-1.392 0-1.2-1-1.8-3-1.8zM128.102 51h-2.976V40.2h1.248v3.624h1.872c2.848 0 4.272 1.184 4.272 3.552 0 1.12-.36 2.008-1.08 2.664-.72.64-1.832.96-3.336.96zm-.072-6h-1.656v4.824h1.632c1.136 0 1.952-.2 2.448-.6.496-.4.744-1.008.744-1.824 0-1.6-1.056-2.4-3.168-2.4zm8.208 6h-1.248V40.2h1.248V51zm5.043 0h-1.248V40.2h6.504v1.176h-5.256V51zm8.461 4.8h-1.248V40.2h1.248v1.44c.432-.48 1.008-.872 1.728-1.176.736-.32 1.48-.48 2.232-.48 1.536 0 2.76.504 3.672 1.512.912 1.008 1.368 2.32 1.368 3.936 0 1.68-.512 3.064-1.536 4.152-1.04 1.088-2.376 1.632-4.008 1.632-1.456 0-2.608-.304-3.456-.912V55.8zm3.624-14.64c-.704 0-1.392.16-2.064.48-.656.32-1.176.72-1.56 1.2v6.216c.992.656 2.112.984 3.36.984 1.28 0 2.32-.424 3.12-1.272.8-.848 1.2-1.936 1.2-3.264 0-1.328-.36-2.384-1.08-3.168-.72-.784-1.712-1.176-2.976-1.176zm15.891-.96h1.416L166.305 51c-.784 1.904-1.464 3.168-2.04 3.792-.576.672-1.248 1.008-2.016 1.008-.592 0-1.208-.184-1.848-.552l.408-.96c.496.24.92.36 1.272.36.544 0 1.032-.24 1.464-.72.432-.464.88-1.248 1.344-2.352l.24-.576-5.328-10.8h1.488l3.696 7.632.768 1.68c.016-.064.216-.64.6-1.728l2.904-7.584zm6.995 11.016c-.736 0-1.552-.136-2.448-.408-.848-.256-1.448-.6-1.8-1.032l.648-.96c.416.384.936.688 1.56.912a5.97 5.97 0 001.848.312c1.008 0 1.816-.2 2.424-.6.608-.4.912-.936.912-1.608 0-.56-.224-1-.672-1.32-.448-.32-1.056-.48-1.824-.48h-1.824V45h1.704c.608 0 1.128-.192 1.56-.576.432-.384.648-.848.648-1.392 0-.608-.24-1.072-.72-1.392-.48-.32-1.152-.48-2.016-.48-1.264 0-2.392.4-3.384 1.2l-.504-.96c.912-.944 2.264-1.416 4.056-1.416 1.232 0 2.184.256 2.856.768.688.496 1.032 1.184 1.032 2.064 0 1.264-.648 2.128-1.944 2.592v.048c.736.064 1.312.336 1.728.816.416.464.624 1.04.624 1.728 0 .992-.408 1.776-1.224 2.352-.816.576-1.896.864-3.24.864zM191.108 40.2h1.608l-5.328 5.16 5.76 5.64h-1.68l-5.592-5.568 5.232-5.232zM185.156 51h-1.248V40.2h1.248V51zm10.713-9l-.336-1.032c1.072-.656 2.216-.984 3.432-.984 1.408 0 2.424.352 3.048 1.056.64.704.96 1.792.96 3.264V51h-1.248v-1.656c-.88 1.2-2.112 1.8-3.696 1.8-1.008 0-1.816-.288-2.424-.864-.608-.592-.912-1.376-.912-2.352 0-1.056.384-1.88 1.152-2.472.752-.592 1.736-.888 2.952-.888s2.192.272 2.928.816c0-1.12-.08-1.976-.24-2.568-.128-.576-.392-.984-.792-1.224-.384-.24-.984-.384-1.8-.432-.976 0-1.984.28-3.024.84zm2.544 7.968c1.344 0 2.448-.568 3.312-1.704v-1.8c-.784-.576-1.72-.864-2.808-.864-.816 0-1.504.2-2.064.6-.56.4-.84.952-.84 1.656 0 .64.224 1.152.672 1.536.448.384 1.024.576 1.728.576zM220.645 42l-7.2 9h-1.248V40.2h1.248v9l7.2-9h1.248V51h-1.248v-9zm8.364 9.216c-.736 0-1.552-.136-2.448-.408-.848-.256-1.448-.6-1.8-1.032l.648-.96c.416.384.936.688 1.56.912a5.97 5.97 0 001.848.312c1.008 0 1.816-.2 2.424-.6.608-.4.912-.936.912-1.608 0-.56-.224-1-.672-1.32-.448-.32-1.056-.48-1.824-.48h-1.824V45h1.704c.608 0 1.128-.192 1.56-.576.432-.384.648-.848.648-1.392 0-.608-.24-1.072-.72-1.392-.48-.32-1.152-.48-2.016-.48-1.264 0-2.392.4-3.384 1.2l-.504-.96c.912-.944 2.264-1.416 4.056-1.416 1.232 0 2.184.256 2.856.768.688.496 1.032 1.184 1.032 2.064 0 1.264-.648 2.128-1.944 2.592v.048c.736.064 1.312.336 1.728.816.416.464.624 1.04.624 1.728 0 .992-.408 1.776-1.224 2.352-.816.576-1.896.864-3.24.864zm21.825-4.392c0-.736-.216-1.368-.648-1.896a4.133 4.133 0 00-1.608-1.2l-2.088-.888a53.319 53.319 0 01-2.088-.984 4.253 4.253 0 01-1.608-1.416c-.432-.64-.648-1.392-.648-2.256 0-1.216.44-2.216 1.32-3 .896-.8 2.096-1.2 3.6-1.2 1.968 0 3.472.568 4.512 1.704l-.72.984c-.96-.96-2.208-1.44-3.744-1.44-1.104 0-1.976.272-2.616.816-.64.528-.96 1.24-.96 2.136 0 .72.216 1.344.648 1.872.432.512.968.896 1.608 1.152.64.256 1.336.544 2.088.864.752.304 1.448.616 2.088.936.64.32 1.176.808 1.608 1.464.432.64.648 1.416.648 2.328 0 1.312-.512 2.376-1.536 3.192-1.024.816-2.296 1.224-3.816 1.224a7.733 7.733 0 01-3.072-.648c-.992-.464-1.688-1.056-2.088-1.776l.792-.912c.48.624 1.12 1.128 1.92 1.512.8.384 1.608.576 2.424.576 1.088 0 2.024-.28 2.808-.84.784-.544 1.176-1.312 1.176-2.304zM255.368 51h-1.344l7.32-16.944h1.08L269.744 51h-1.416l-2.448-5.712h-8.064L255.368 51zm9.96-6.96l-3.48-8.16-3.504 8.16h6.984zm8.91.216V51h-1.32V34.2c.656 0 1.336-.008 2.04-.024a90.874 90.874 0 012.064-.024c1.12 0 2.08.144 2.88.432.816.288 1.44.68 1.872 1.176.432.496.744 1.032.936 1.608.192.56.288 1.176.288 1.848 0 1.456-.504 2.672-1.512 3.648-1.024.992-2.512 1.488-4.464 1.488-1.104 0-2.032-.032-2.784-.096zm2.904-8.856c-.528 0-1.496.016-2.904.048v7.536c1.152.08 2.064.12 2.736.12 1.472 0 2.608-.352 3.408-1.056.816-.704 1.224-1.656 1.224-2.856 0-1.184-.376-2.112-1.128-2.784-.736-.672-1.848-1.008-3.336-1.008z" fill="#141414"/><rect x="789" width="337" height="89" rx="8" fill="#fff"/><path d="M911.328 43.944V51h-1.32V34.2c.72 0 1.448-.008 2.184-.024a87.546 87.546 0 011.848-.024c3.92 0 5.88 1.616 5.88 4.848a4.553 4.553 0 01-1.128 3.048c-.752.848-1.704 1.392-2.856 1.632l5.88 7.32h-1.632l-5.592-7.056h-3.264zm2.64-8.544c-.352 0-1.232.016-2.64.048v7.248h2.904c1.136 0 2.128-.344 2.976-1.032.88-.688 1.32-1.576 1.32-2.664 0-2.4-1.52-3.6-4.56-3.6zM934.676 51h-9.528V34.2h9.288v1.248h-7.968v6.408h7.248v1.248h-7.248v6.648h8.208V51zm12.029-4.176c0-.736-.216-1.368-.648-1.896a4.133 4.133 0 00-1.608-1.2l-2.088-.888a53.319 53.319 0 01-2.088-.984 4.253 4.253 0 01-1.608-1.416c-.432-.64-.648-1.392-.648-2.256 0-1.216.44-2.216 1.32-3 .896-.8 2.096-1.2 3.6-1.2 1.968 0 3.472.568 4.512 1.704l-.72.984c-.96-.96-2.208-1.44-3.744-1.44-1.104 0-1.976.272-2.616.816-.64.528-.96 1.24-.96 2.136 0 .72.216 1.344.648 1.872.432.512.968.896 1.608 1.152.64.256 1.336.544 2.088.864.752.304 1.448.616 2.088.936.64.32 1.176.808 1.608 1.464.432.64.648 1.416.648 2.328 0 1.312-.512 2.376-1.536 3.192-1.024.816-2.296 1.224-3.816 1.224a7.733 7.733 0 01-3.072-.648c-.992-.464-1.688-1.056-2.088-1.776l.792-.912c.48.624 1.12 1.128 1.92 1.512.8.384 1.608.576 2.424.576 1.088 0 2.024-.28 2.808-.84.784-.544 1.176-1.312 1.176-2.304zm6.67-2.568V51h-1.32V34.2c.656 0 1.336-.008 2.04-.024a90.874 90.874 0 012.064-.024c1.12 0 2.08.144 2.88.432.816.288 1.44.68 1.872 1.176.432.496.744 1.032.936 1.608.192.56.288 1.176.288 1.848 0 1.456-.504 2.672-1.512 3.648-1.024.992-2.512 1.488-4.464 1.488-1.104 0-2.032-.032-2.784-.096zm2.904-8.856c-.528 0-1.496.016-2.904.048v7.536c1.152.08 2.064.12 2.736.12 1.472 0 2.608-.352 3.408-1.056.816-.704 1.224-1.656 1.224-2.856 0-1.184-.376-2.112-1.128-2.784-.736-.672-1.848-1.008-3.336-1.008zM970.926 51h-1.344l7.32-16.944h1.08L985.302 51h-1.416l-2.448-5.712h-8.064L970.926 51zm9.96-6.96l-3.48-8.16-3.504 8.16h6.984zm8.911.216V51h-1.32V34.2c.656 0 1.336-.008 2.04-.024a90.874 90.874 0 012.064-.024c1.12 0 2.08.144 2.88.432.816.288 1.44.68 1.872 1.176.432.496.744 1.032.936 1.608.192.56.288 1.176.288 1.848 0 1.456-.504 2.672-1.512 3.648-1.024.992-2.512 1.488-4.464 1.488-1.104 0-2.032-.032-2.784-.096zm2.904-8.856c-.528 0-1.496.016-2.904.048v7.536c1.152.08 2.064.12 2.736.12 1.472 0 2.608-.352 3.408-1.056.816-.704 1.224-1.656 1.224-2.856 0-1.184-.376-2.112-1.128-2.784-.736-.672-1.848-1.008-3.336-1.008zM1004.41 51h-1.32V34.2h1.32V51z" fill="#141414"/><g clip-path="url(#clip0)"><path d="M1242 49.212c3.94 0 7.13-3.229 7.13-7.213 0-3.983-3.19-7.212-7.13-7.212s-7.13 3.229-7.13 7.212c0 3.984 3.19 7.213 7.13 7.213z" fill="#61DAFB"/><path d="M1242 56.777c21.13 0 38.26-6.616 38.26-14.777 0-8.162-17.13-14.778-38.26-14.778s-38.26 6.616-38.26 14.778c0 8.161 17.13 14.777 38.26 14.777z" stroke="#61DAFB"/><path d="M1229.35 49.389c10.56 18.511 24.79 30.21 31.78 26.129 6.99-4.081 4.09-22.395-6.48-40.907-10.57-18.511-24.79-30.21-31.78-26.129-6.99 4.08-4.09 22.395 6.48 40.907z" stroke="#61DAFB"/><path d="M1229.35 34.612c-10.57 18.511-13.47 36.826-6.48 40.907 6.98 4.08 21.21-7.618 31.78-26.13 10.56-18.511 13.47-36.826 6.48-40.906-6.99-4.08-21.22 7.617-31.78 26.129z" stroke="#61DAFB"/></g><path d="M961.043 122.543a.999.999 0 011.414 0l6.364 6.364a.999.999 0 11-1.414 1.414l-5.657-5.657-5.657 5.657a.999.999 0 11-1.414-1.414l6.364-6.364zM727.5 190.25h226.25v2H727.5v-2zm233.25-7v-60h2v60h-2zm-7 7a7 7 0 007-7h2a9 9 0 01-9 9v-2zM388.207 45.707a1 1 0 000-1.414l-6.364-6.364a1 1 0 10-1.414 1.414L386.086 45l-5.657 5.657a1 1 0 101.414 1.414l6.364-6.364zM353 46h34.5v-2H353v2zm408.207-.293a1 1 0 000-1.414l-6.364-6.364a1 1 0 10-1.414 1.414L759.086 45l-5.657 5.657a1 1 0 101.414 1.414l6.364-6.364zM726 46h34.5v-2H726v2zm452.21-.293a1 1 0 000-1.414l-6.37-6.364a.995.995 0 00-1.41 0 1 1 0 000 1.414l5.66 5.657-5.66 5.657a1 1 0 000 1.414c.39.39 1.02.39 1.41 0l6.37-6.364zM1143 46h34.5v-2H1143v2z" fill="#E4002B"/><defs><clipPath id="clip0"><path fill="#fff" transform="translate(1202 6)" d="M0 0h80v72H0z"/></clipPath></defs></svg>