<svg width="1571" height="460" viewBox="0 0 1571 460" fill="none" xmlns="http://www.w3.org/2000/svg"><path d="M730.121 219v-16.8h.312c.32 0 1.064-.008 2.232-.024 1.168-.032 1.968-.048 2.4-.048 1.632 0 3.064.224 4.296.672 1.232.432 2.216 1.04 2.952 1.824a7.59 7.59 0 011.632 2.64c.368.96.552 2.016.552 3.168 0 2.496-.84 4.56-2.52 6.192-1.664 1.616-4.032 2.424-7.104 2.424-.288 0-.96-.008-2.016-.024-1.04-.016-1.84-.024-2.4-.024h-.336zm4.896-14.112c-.624 0-1.272.024-1.944.072v11.28a32.75 32.75 0 001.896.048c2 0 3.568-.528 4.704-1.584 1.136-1.056 1.704-2.48 1.704-4.272 0-1.712-.568-3.064-1.704-4.056-1.12-.992-2.672-1.488-4.656-1.488zm12.709 12.792c-1.072-1.072-1.608-2.432-1.608-4.08 0-1.648.536-3 1.608-4.056 1.088-1.072 2.512-1.608 4.272-1.608 1.76 0 3.176.536 4.248 1.608 1.088 1.056 1.632 2.408 1.632 4.056 0 1.648-.544 3.008-1.632 4.08-1.072 1.056-2.488 1.584-4.248 1.584-1.76 0-3.184-.528-4.272-1.584zm1.344-4.08c0 .896.272 1.64.816 2.232.56.576 1.264.864 2.112.864.864 0 1.568-.28 2.112-.84.56-.576.84-1.328.84-2.256 0-.896-.28-1.632-.84-2.208-.56-.576-1.264-.864-2.112-.864-.832 0-1.528.288-2.088.864-.56.56-.84 1.296-.84 2.208zm10.956 1.296V205.2h2.76v3h3.48v2.592h-3.48v3.936c0 1.296.432 1.944 1.296 1.944.544 0 1.096-.208 1.656-.624l.84 2.136c-.864.704-1.928 1.056-3.192 1.056-1.184 0-2.04-.36-2.568-1.08-.528-.736-.792-1.824-.792-3.264zM772.659 219h-2.952v-16.8c.288 0 1.048-.008 2.28-.024 1.248-.016 2.08-.024 2.496-.024 1.184 0 2.208.152 3.072.456.88.288 1.56.696 2.04 1.224.48.512.832 1.08 1.056 1.704.224.608.336 1.28.336 2.016 0 1.52-.544 2.808-1.632 3.864-1.088 1.056-2.592 1.584-4.512 1.584-.976 0-1.704-.024-2.184-.072V219zm2.112-14.088c-.352 0-1.056.016-2.112.048v5.16c.768.08 1.464.12 2.088.12.928 0 1.68-.224 2.256-.672.576-.464.864-1.144.864-2.04 0-1.744-1.032-2.616-3.096-2.616zm8.839 11.112V202.2h2.76v12.696c0 1.168.312 1.752.936 1.752.352 0 .728-.144 1.128-.432l.576 2.112c-.752.608-1.704.912-2.856.912-1.696 0-2.544-1.072-2.544-3.216zm8.012-5.04l-.696-2.016a7.385 7.385 0 013.816-1.032c1.536 0 2.64.376 3.312 1.128.672.752 1.008 1.872 1.008 3.36V219h-2.4v-1.248c-.656.928-1.72 1.392-3.192 1.392-1.008 0-1.824-.296-2.448-.888-.624-.592-.936-1.4-.936-2.424 0-1.136.368-2 1.104-2.592.736-.608 1.68-.912 2.832-.912.992 0 1.808.232 2.448.696.032-.944-.104-1.64-.408-2.088-.304-.464-.84-.696-1.608-.696-.8 0-1.744.248-2.832.744zm2.76 5.832c.928 0 1.624-.328 2.088-.984v-1.104c-.464-.352-1.096-.528-1.896-.528-.496 0-.912.12-1.248.36-.32.224-.48.552-.48.984 0 .4.144.712.432.936.288.224.656.336 1.104.336zm7.509 2.184v-10.8h2.76v1.08c.784-.848 1.816-1.272 3.096-1.272 2.96 0 4.44 1.552 4.44 4.656V219h-2.76v-5.856c0-1.696-.808-2.544-2.424-2.544-.88 0-1.664.344-2.352 1.032V219h-2.76zm12.862-4.104V205.2h2.76v3h3.48v2.592h-3.48v3.936c0 1.296.432 1.944 1.296 1.944.544 0 1.096-.208 1.656-.624l.84 2.136c-.864.704-1.928 1.056-3.192 1.056-1.184 0-2.04-.36-2.568-1.08-.528-.736-.792-1.824-.792-3.264zm24.198-6.696l-4.152 5.136 4.656 5.664h-3.6l-4.272-5.448 3.888-5.352h3.48zM828.727 219v-10.8h2.76V219h-2.76zm13.192-8.016l-.696-2.016a7.385 7.385 0 013.816-1.032c1.536 0 2.64.376 3.312 1.128.672.752 1.008 1.872 1.008 3.36V219h-2.4v-1.248c-.656.928-1.72 1.392-3.192 1.392-1.008 0-1.824-.296-2.448-.888-.624-.592-.936-1.4-.936-2.424 0-1.136.368-2 1.104-2.592.736-.608 1.68-.912 2.832-.912.992 0 1.808.232 2.448.696.032-.944-.104-1.64-.408-2.088-.304-.464-.84-.696-1.608-.696-.8 0-1.744.248-2.832.744zm2.76 5.832c.928 0 1.624-.328 2.088-.984v-1.104c-.464-.352-1.096-.528-1.896-.528-.496 0-.912.12-1.248.36-.32.224-.48.552-.48.984 0 .4.144.712.432.936.288.224.656.336 1.104.336zm17.733-8.616l-4.152 5.136 4.656 5.664h-3.6l-4.272-5.448 3.888-5.352h3.48zM852.188 219v-10.8h2.76V219h-2.76zm18.374-1.32c-1.072-1.072-1.608-2.432-1.608-4.08 0-1.648.536-3 1.608-4.056 1.088-1.072 2.512-1.608 4.272-1.608 1.76 0 3.176.536 4.248 1.608 1.088 1.056 1.632 2.408 1.632 4.056 0 1.648-.544 3.008-1.632 4.08-1.072 1.056-2.488 1.584-4.248 1.584-1.76 0-3.184-.528-4.272-1.584zm1.344-4.08c0 .896.272 1.64.816 2.232.56.576 1.264.864 2.112.864.864 0 1.568-.28 2.112-.84.56-.576.84-1.328.84-2.256 0-.896-.28-1.632-.84-2.208-.56-.576-1.264-.864-2.112-.864-.832 0-1.528.288-2.088.864-.56.56-.84 1.296-.84 2.208zm19.38 1.776l1.296 2.016c-.448.608-1.056 1.072-1.824 1.392-.752.32-1.576.48-2.472.48-1.76 0-3.176-.52-4.248-1.56s-1.608-2.408-1.608-4.104c0-1.6.528-2.944 1.584-4.032s2.392-1.632 4.008-1.632c1.92 0 3.368.488 4.344 1.464l-1.296 2.184c-.72-.704-1.616-1.056-2.688-1.056-.8 0-1.504.288-2.112.864-.592.56-.888 1.296-.888 2.208 0 .928.304 1.68.912 2.256.624.56 1.36.84 2.208.84 1.056 0 1.984-.44 2.784-1.32zm11 3.624v-4.128h-4.728V219h-2.76v-10.8h2.76v4.08h4.728v-4.08h2.76V219h-2.76zm6.76-1.32c-1.072-1.072-1.608-2.432-1.608-4.08 0-1.648.536-3 1.608-4.056 1.088-1.072 2.512-1.608 4.272-1.608 1.76 0 3.176.536 4.248 1.608 1.088 1.056 1.632 2.408 1.632 4.056 0 1.648-.544 3.008-1.632 4.08-1.072 1.056-2.488 1.584-4.248 1.584-1.76 0-3.184-.528-4.272-1.584zm1.344-4.08c0 .896.272 1.64.816 2.232.56.576 1.264.864 2.112.864.864 0 1.568-.28 2.112-.84.56-.576.84-1.328.84-2.256 0-.896-.28-1.632-.84-2.208-.56-.576-1.264-.864-2.112-.864-.832 0-1.528.288-2.088.864-.56.56-.84 1.296-.84 2.208zm11.197 5.4v-10.8c.192 0 .544-.008 1.056-.024a51.715 51.715 0 013.192-.096c3.264 0 4.896.944 4.896 2.832 0 .624-.2 1.16-.6 1.608a2.231 2.231 0 01-1.416.792v.048c1.536.368 2.304 1.2 2.304 2.496 0 2.176-1.712 3.264-5.136 3.264a55.3 55.3 0 01-2.28-.072 86.639 86.639 0 00-2.016-.048zm4.488-4.584h-1.728v2.4c1.088.064 1.696.096 1.824.096.608 0 1.08-.112 1.416-.336.352-.224.528-.528.528-.912 0-.832-.68-1.248-2.04-1.248zm0-4.104c-.768 0-1.344.016-1.728.048v2.376h1.8c.48 0 .872-.104 1.176-.312.32-.224.48-.536.48-.936 0-.784-.576-1.176-1.728-1.176zm8.399.672l-.696-2.016a7.385 7.385 0 013.816-1.032c1.536 0 2.64.376 3.312 1.128.672.752 1.008 1.872 1.008 3.36V219h-2.4v-1.248c-.656.928-1.72 1.392-3.192 1.392-1.008 0-1.824-.296-2.448-.888-.624-.592-.936-1.4-.936-2.424 0-1.136.368-2 1.104-2.592.736-.608 1.68-.912 2.832-.912.992 0 1.808.232 2.448.696.032-.944-.104-1.64-.408-2.088-.304-.464-.84-.696-1.608-.696-.8 0-1.744.248-2.832.744zm2.76 5.832c.928 0 1.624-.328 2.088-.984v-1.104c-.464-.352-1.096-.528-1.896-.528-.496 0-.912.12-1.248.36-.32.224-.48.552-.48.984 0 .4.144.712.432.936.288.224.656.336 1.104.336zM689.736 256.52v-5.088h1.368c.848-1.12 1.352-3 1.512-5.64l.168-2.592h7.968v8.232h1.8v5.088h-2.592V254h-7.656v2.52h-2.568zm5.544-9.624c-.192 2.096-.624 3.608-1.296 4.536h4.008v-5.64h-2.64l-.072 1.104zM711.472 254v-8.04h-2.856l-.072 1.152c-.176 1.936-.472 3.424-.888 4.464-.4 1.04-.912 1.744-1.536 2.112-.608.352-1.424.528-2.448.528l-.24-2.688a1.4 1.4 0 00.984-.288c.32-.24.624-.752.912-1.536.288-.8.472-1.848.552-3.144l.168-3.36h8.184V254h-2.76zm11.114-10.8h3.528V254h-2.76v-3.24h-1.536l-2.232 3.24h-3.168l2.88-3.84c-.544-.192-1.032-.552-1.464-1.08-.416-.544-.624-1.224-.624-2.04 0-1.136.432-2.056 1.296-2.76.88-.72 2.24-1.08 4.08-1.08zm-2.424 4.032c0 .432.176.792.528 1.08.368.272.776.408 1.224.408h1.44v-3.12h-1.224c-.624 0-1.112.16-1.464.48-.336.32-.504.704-.504 1.152zm22.224-10.296l1.44 2.256c-.416.496-.896.848-1.44 1.056-.544.192-1.184.368-1.92.528-.72.144-1.344.344-1.872.6-1.344.624-2.12 1.968-2.328 4.032h.048c.336-.592.856-1.072 1.56-1.44a4.594 4.594 0 012.232-.576c1.488 0 2.68.48 3.576 1.44.896.96 1.344 2.248 1.344 3.864 0 1.552-.528 2.872-1.584 3.96-1.056 1.072-2.416 1.608-4.08 1.608-1.808 0-3.24-.616-4.296-1.848-1.04-1.232-1.56-2.896-1.56-4.992 0-4.624 1.36-7.52 4.08-8.688a9.38 9.38 0 011.968-.576c.704-.144 1.264-.288 1.68-.432a2.628 2.628 0 001.152-.792zM736.458 248c.016 1.072.28 1.96.792 2.664.512.688 1.192 1.032 2.04 1.032.848 0 1.52-.272 2.016-.816.512-.56.768-1.248.768-2.064 0-.832-.232-1.512-.696-2.04-.464-.544-1.12-.816-1.968-.816-.736 0-1.368.192-1.896.576a2.92 2.92 0 00-1.056 1.464zm12.789 1.464v-1.848h4.8c-.176-.752-.544-1.32-1.104-1.704-.56-.384-1.224-.576-1.992-.576-1.04 0-2.072.376-3.096 1.128l-1.128-1.92c.48-.528 1.112-.928 1.896-1.2a6.939 6.939 0 012.28-.408c1.84 0 3.304.512 4.392 1.536 1.088 1.024 1.632 2.4 1.632 4.128 0 1.632-.52 2.984-1.56 4.056-1.024 1.072-2.424 1.608-4.2 1.608-1.952 0-3.448-.536-4.488-1.608l1.296-1.824c.784.688 1.792 1.032 3.024 1.032.832 0 1.512-.2 2.04-.6.544-.416.888-1.016 1.032-1.8h-4.824zm20.306-6.264l-4.152 5.136 4.656 5.664h-3.6l-4.272-5.448 3.888-5.352h3.48zM759.329 254v-10.8h2.76V254h-2.76zm20.167-3.024l.792 1.944c-1.056.896-2.432 1.344-4.128 1.344-1.744 0-3.152-.52-4.224-1.56-1.056-1.04-1.584-2.408-1.584-4.104 0-1.616.52-2.96 1.56-4.032 1.04-1.088 2.424-1.632 4.152-1.632 1.424 0 2.632.472 3.624 1.416.992.928 1.488 2.128 1.488 3.6 0 .608-.056 1.104-.168 1.488h-7.8c.112.8.464 1.424 1.056 1.872.592.432 1.32.648 2.184.648 1.216 0 2.232-.328 3.048-.984zm-3.552-5.736c-1.568 0-2.512.784-2.832 2.352h5.304c.016-.672-.2-1.232-.648-1.68-.448-.448-1.056-.672-1.824-.672zm14.943 8.76v-4.128h-4.728V254h-2.76v-10.8h2.76v4.08h4.728v-4.08h2.76V254h-2.76zm4.529 2.52v-5.088h1.368c.848-1.12 1.352-3 1.512-5.64l.168-2.592h7.968v8.232h1.8v5.088h-2.592V254h-7.656v2.52h-2.568zm5.544-9.624c-.192 2.096-.624 3.608-1.296 4.536h4.008v-5.64h-2.64l-.072 1.104zm9.928-.912l-.696-2.016a7.385 7.385 0 013.816-1.032c1.536 0 2.64.376 3.312 1.128.672.752 1.008 1.872 1.008 3.36V254h-2.4v-1.248c-.656.928-1.72 1.392-3.192 1.392-1.008 0-1.824-.296-2.448-.888-.624-.592-.936-1.4-.936-2.424 0-1.136.368-2 1.104-2.592.736-.608 1.68-.912 2.832-.912.992 0 1.808.232 2.448.696.032-.944-.104-1.64-.408-2.088-.304-.464-.84-.696-1.608-.696-.8 0-1.744.248-2.832.744zm2.76 5.832c.928 0 1.624-.328 2.088-.984v-1.104c-.464-.352-1.096-.528-1.896-.528-.496 0-.912.12-1.248.36-.32.224-.48.552-.48.984 0 .4.144.712.432.936.288.224.656.336 1.104.336zm18.619 5.616l-1.752 1.512c-3.232-2.784-4.848-6.232-4.848-10.344 0-3.968 1.624-7.416 4.872-10.344l1.704 1.512c-1.312 1.296-2.28 2.656-2.904 4.08-.608 1.408-.912 2.992-.912 4.752 0 1.712.344 3.344 1.032 4.896.704 1.536 1.64 2.848 2.808 3.936zm5.29-3.432h-2.952v-16.8c.288 0 1.048-.008 2.28-.024 1.248-.016 2.08-.024 2.496-.024 1.184 0 2.208.152 3.072.456.88.288 1.56.696 2.04 1.224.48.512.832 1.08 1.056 1.704.224.608.336 1.28.336 2.016 0 1.52-.544 2.808-1.632 3.864-1.088 1.056-2.592 1.584-4.512 1.584-.976 0-1.704-.024-2.184-.072V254zm2.112-14.088c-.352 0-1.056.016-2.112.048v5.16c.768.08 1.464.12 2.088.12.928 0 1.68-.224 2.256-.672.576-.464.864-1.144.864-2.04 0-1.744-1.032-2.616-3.096-2.616zM859.933 254v-7.176h-7.68V254h-2.952v-16.8h2.952v6.864h7.68V237.2h2.928V254h-2.928zm10.531 0h-2.952v-16.8c.288 0 1.048-.008 2.28-.024 1.248-.016 2.08-.024 2.496-.024 1.184 0 2.208.152 3.072.456.88.288 1.56.696 2.04 1.224.48.512.832 1.08 1.056 1.704.224.608.336 1.28.336 2.016 0 1.52-.544 2.808-1.632 3.864-1.088 1.056-2.592 1.584-4.512 1.584-.976 0-1.704-.024-2.184-.072V254zm2.112-14.088c-.352 0-1.056.016-2.112.048v5.16c.768.08 1.464.12 2.088.12.928 0 1.68-.224 2.256-.672.576-.464.864-1.144.864-2.04 0-1.744-1.032-2.616-3.096-2.616zm8.887 6.648v-2.4h4.248v-4.344h2.592v4.344h4.296v2.4h-4.296v4.392h-2.592v-4.392h-4.248zm15.041 7.44v-16.8h2.976l5.736 7.848 5.472-7.848h2.784V254h-2.928v-12.144l-5.304 7.464h-.432l-5.352-7.392V254h-2.952zm31.257-10.8l-4.248 10.8c-.768 1.872-1.456 3.136-2.064 3.792-.592.672-1.296 1.008-2.112 1.008-.784 0-1.56-.28-2.328-.84l.888-2.088c.432.256.808.384 1.128.384.656 0 1.208-.56 1.656-1.68l.24-.576-4.992-10.8h3.312l2.52 5.904c.096.24.272.76.528 1.56.128-.704.256-1.232.384-1.584l1.944-5.88h3.144zm9.19 6.336c0-.448-.144-.84-.432-1.176a3.32 3.32 0 00-1.08-.888 12.897 12.897 0 00-1.488-.72 29.757 29.757 0 01-1.608-.792 11.42 11.42 0 01-1.488-.984 4.274 4.274 0 01-1.104-1.416c-.272-.592-.408-1.256-.408-1.992 0-1.312.472-2.408 1.416-3.288.96-.896 2.232-1.344 3.816-1.344 2.112 0 3.712.6 4.8 1.8l-1.584 2.208c-.864-.832-1.856-1.248-2.976-1.248-.72 0-1.296.168-1.728.504-.416.336-.624.784-.624 1.344 0 .544.184 1.016.552 1.416.384.4.856.72 1.416.96.56.224 1.168.496 1.824.816.672.32 1.288.656 1.848 1.008.56.336 1.024.832 1.392 1.488.384.64.576 1.4.576 2.28 0 1.392-.536 2.536-1.608 3.432-1.072.88-2.408 1.32-4.008 1.32a8.315 8.315 0 01-3.336-.696c-1.056-.48-1.776-1.128-2.16-1.944l1.68-2.016a4.735 4.735 0 001.752 1.416c.72.32 1.424.48 2.112.48.72 0 1.304-.168 1.752-.504.464-.352.696-.84.696-1.464zm5.274-3.936c0-2.464.816-4.52 2.448-6.168 1.648-1.664 3.744-2.496 6.288-2.496 2.528 0 4.616.8 6.264 2.4 1.664 1.6 2.496 3.688 2.496 6.264 0 2.384-.768 4.384-2.304 6l2.064 2.4h-3.432l-.696-.792c-1.28.704-2.744 1.056-4.392 1.056-2.528 0-4.616-.8-6.264-2.4-1.648-1.6-2.472-3.688-2.472-6.264zm3.12 0c0 1.68.536 3.088 1.608 4.224 1.088 1.12 2.424 1.68 4.008 1.68.896 0 1.736-.176 2.52-.528l-1.416-1.656 1.92-1.728 1.488 1.752c.752-1.056 1.128-2.304 1.128-3.744 0-1.728-.544-3.144-1.632-4.248-1.072-1.104-2.408-1.656-4.008-1.656-1.616 0-2.96.552-4.032 1.656-1.056 1.104-1.584 2.52-1.584 4.248zm17.792 8.4v-16.8h2.952v14.04h7.56V254h-10.512zm12.549 4.944l-1.752-1.512c1.168-1.088 2.096-2.4 2.784-3.936a11.718 11.718 0 001.056-4.896c0-1.76-.312-3.344-.936-4.752-.608-1.424-1.568-2.784-2.88-4.08l1.704-1.512c3.248 2.928 4.872 6.376 4.872 10.344 0 4.112-1.616 7.56-4.848 10.344z" fill="#fff"/><rect x="630.5" y="176.5" width="410" height="107" rx="6.5" stroke="#F76D09" stroke-width="3"/><path d="M1215.08 236v-7.176h-7.68V236h-2.95v-16.8h2.95v6.864h7.68V219.2h2.93V236h-2.93zm5.49-14.04v-2.76h13.85v2.76h-5.45V236h-2.95v-14.04h-5.45zm16.41 14.04v-16.8h2.97l5.74 7.848 5.47-7.848h2.78V236h-2.92v-12.144l-5.31 7.464h-.43l-5.35-7.392V236h-2.95zm21.63 0v-16.8h2.95v14.04h7.56V236h-10.51zm11.96-5.28v-2.568h6.04v2.568h-6.04zm9.07 5.28v-10.8h2.76v8.232h3.05V225.2h2.76v8.232h3.07V225.2h2.76V236h-14.4zm18.3-8.016l-.7-2.016a7.394 7.394 0 013.82-1.032c1.53 0 2.64.376 3.31 1.128.67.752 1.01 1.872 1.01 3.36V236h-2.4v-1.248c-.66.928-1.72 1.392-3.19 1.392-1.01 0-1.83-.296-2.45-.888-.63-.592-.94-1.4-.94-2.424 0-1.136.37-2 1.11-2.592.73-.608 1.68-.912 2.83-.912.99 0 1.81.232 2.45.696.03-.944-.11-1.64-.41-2.088-.31-.464-.84-.696-1.61-.696-.8 0-1.74.248-2.83.744zm2.76 5.832c.93 0 1.62-.328 2.09-.984v-1.104c-.47-.352-1.1-.528-1.9-.528-.5 0-.91.12-1.25.36-.32.224-.48.552-.48.984 0 .4.15.712.43.936.29.224.66.336 1.11.336zm15.62-14.88l1.44 2.256c-.42.496-.9.848-1.44 1.056-.54.192-1.18.368-1.92.528-.72.144-1.34.344-1.87.6-1.35.624-2.12 1.968-2.33 4.032h.05c.33-.592.85-1.072 1.56-1.44.7-.384 1.45-.576 2.23-.576 1.49 0 2.68.48 3.58 1.44.89.96 1.34 2.248 1.34 3.864 0 1.552-.53 2.872-1.58 3.96-1.06 1.072-2.42 1.608-4.08 1.608-1.81 0-3.24-.616-4.3-1.848-1.04-1.232-1.56-2.896-1.56-4.992 0-4.624 1.36-7.52 4.08-8.688a9.328 9.328 0 011.97-.576 14.2 14.2 0 001.68-.432c.43-.144.81-.408 1.15-.792zM1310.39 230c.02 1.072.28 1.96.79 2.664.52.688 1.2 1.032 2.04 1.032.85 0 1.52-.272 2.02-.816.51-.56.77-1.248.77-2.064 0-.832-.23-1.512-.7-2.04-.46-.544-1.12-.816-1.97-.816-.73 0-1.36.192-1.89.576-.51.384-.87.872-1.06 1.464zm17.72 6v-8.04h-2.86l-.07 1.152c-.18 1.936-.47 3.424-.89 4.464-.4 1.04-.91 1.744-1.53 2.112-.61.352-1.43.528-2.45.528l-.24-2.688c.35.032.68-.064.98-.288.32-.24.63-.752.91-1.536.29-.8.48-1.848.56-3.144l.16-3.36h8.19V236h-2.76zm6.77-1.32c-1.07-1.072-1.61-2.432-1.61-4.08 0-1.648.54-3 1.61-4.056 1.09-1.072 2.51-1.608 4.27-1.608 1.76 0 3.18.536 4.25 1.608 1.09 1.056 1.63 2.408 1.63 4.056 0 1.648-.54 3.008-1.63 4.08-1.07 1.056-2.49 1.584-4.25 1.584-1.76 0-3.18-.528-4.27-1.584zm1.34-4.08c0 .896.27 1.64.82 2.232.56.576 1.26.864 2.11.864.86 0 1.57-.28 2.11-.84.56-.576.84-1.328.84-2.256 0-.896-.28-1.632-.84-2.208-.56-.576-1.26-.864-2.11-.864-.83 0-1.53.288-2.09.864-.56.56-.84 1.296-.84 2.208zm18.69 5.4v-4.128h-4.73V236h-2.76v-10.8h2.76v4.08h4.73v-4.08h2.76V236h-2.76zm5.82 0v-10.8h2.76v2.952h1.35c1.69 0 2.91.352 3.64 1.056.74.704 1.11 1.6 1.11 2.688 0 1.168-.4 2.144-1.2 2.928-.8.784-2.06 1.176-3.77 1.176h-3.89zm10.39 0v-10.8h2.76V236h-2.76zm-6.52-5.64h-1.11v3.24h1.08c1.39 0 2.09-.536 2.09-1.608 0-1.088-.69-1.632-2.06-1.632zm16.14 8.16v-5.088h1.37c.85-1.12 1.35-3 1.51-5.64l.17-2.592h7.97v8.232h1.8v5.088h-2.6V236h-7.65v2.52h-2.57zm5.54-9.624c-.19 2.096-.62 3.608-1.29 4.536h4.01v-5.64h-2.64l-.08 1.104zm16.2 7.104v-8.04h-2.86l-.07 1.152c-.18 1.936-.47 3.424-.89 4.464-.4 1.04-.91 1.744-1.54 2.112-.6.352-1.42.528-2.44.528l-.24-2.688c.35.032.68-.064.98-.288.32-.24.62-.752.91-1.536.29-.8.47-1.848.55-3.144l.17-3.36h8.19V236h-2.76zm11.11-10.8h3.53V236h-2.76v-3.24h-1.54l-2.23 3.24h-3.17l2.88-3.84c-.54-.192-1.03-.552-1.46-1.08-.42-.544-.63-1.224-.63-2.04 0-1.136.44-2.056 1.3-2.76.88-.72 2.24-1.08 4.08-1.08zm-2.42 4.032c0 .432.17.792.52 1.08.37.272.78.408 1.23.408h1.44v-3.12h-1.23c-.62 0-1.11.16-1.46.48-.34.32-.5.704-.5 1.152zm19.44 11.568v-4.536h-.15c-1.84 0-3.28-.528-4.32-1.584-1.02-1.056-1.53-2.416-1.53-4.08 0-1.552.52-2.88 1.56-3.984 1.05-1.12 2.48-1.68 4.27-1.68h.17V219.2h2.76v5.736h.19c1.81 0 3.22.536 4.25 1.608 1.04 1.056 1.56 2.408 1.56 4.056 0 1.68-.5 3.048-1.49 4.104-.99 1.04-2.43 1.56-4.32 1.56h-.19v4.536h-2.76zm2.95-13.272h-.19v6.168h.09c.96 0 1.69-.28 2.19-.84.51-.56.76-1.312.76-2.256 0-.864-.24-1.592-.74-2.184-.48-.592-1.18-.888-2.11-.888zm-6 3.072c0 .928.25 1.68.77 2.256.51.56 1.24.84 2.2.84h.08v-6.168h-.2c-.96 0-1.68.288-2.16.864-.46.576-.69 1.312-.69 2.208zm14.19 10.2v-15.6h2.76v1.032c.36-.368.83-.672 1.42-.912a4.912 4.912 0 011.92-.384c1.47 0 2.66.512 3.55 1.536.9 1.024 1.35 2.344 1.35 3.96 0 1.68-.53 3.072-1.59 4.176-1.05 1.104-2.43 1.656-4.13 1.656-1.07 0-1.91-.176-2.52-.528v5.064h-2.76zm5.24-13.272c-.95 0-1.77.392-2.48 1.176v4.368c.64.416 1.4.624 2.28.624.93 0 1.67-.296 2.21-.888.55-.608.82-1.376.82-2.304 0-.88-.25-1.592-.75-2.136-.49-.56-1.19-.84-2.08-.84zm9.08 7.152c-1.07-1.072-1.6-2.432-1.6-4.08 0-1.648.53-3 1.6-4.056 1.09-1.072 2.52-1.608 4.28-1.608 1.76 0 3.17.536 4.24 1.608 1.09 1.056 1.64 2.408 1.64 4.056 0 1.648-.55 3.008-1.64 4.08-1.07 1.056-2.48 1.584-4.24 1.584-1.76 0-3.19-.528-4.28-1.584zm1.35-4.08c0 .896.27 1.64.81 2.232.56.576 1.27.864 2.12.864.86 0 1.56-.28 2.11-.84.56-.576.84-1.328.84-2.256 0-.896-.28-1.632-.84-2.208-.56-.576-1.27-.864-2.11-.864-.84 0-1.53.288-2.09.864-.56.56-.84 1.296-.84 2.208zm18.68 5.4v-4.128h-4.73V236h-2.76v-10.8h2.76v4.08h4.73v-4.08h2.76V236h-2.76zm4.7-8.04v-2.76h9.84v2.76h-3.53V236h-2.76v-8.04h-3.55zm19.96 5.016l.79 1.944c-1.06.896-2.43 1.344-4.13 1.344-1.74 0-3.15-.52-4.22-1.56-1.06-1.04-1.59-2.408-1.59-4.104 0-1.616.52-2.96 1.56-4.032 1.04-1.088 2.43-1.632 4.16-1.632 1.42 0 2.63.472 3.62 1.416.99.928 1.49 2.128 1.49 3.6 0 .608-.06 1.104-.17 1.488h-7.8c.11.8.46 1.424 1.06 1.872.59.432 1.32.648 2.18.648 1.22 0 2.23-.328 3.05-.984zm-3.55-5.736c-1.57 0-2.52.784-2.84 2.352h5.31c.01-.672-.2-1.232-.65-1.68-.45-.448-1.06-.672-1.82-.672zm14.94 8.76v-4.128h-4.73V236h-2.76v-10.8h2.76v4.08h4.73v-4.08h2.76V236h-2.76zm4.53 2.52v-5.088h1.37c.84-1.12 1.35-3 1.51-5.64l.17-2.592h7.96v8.232h1.8v5.088h-2.59V236h-7.65v2.52h-2.57zm5.54-9.624c-.19 2.096-.62 3.608-1.29 4.536h4v-5.64h-2.64l-.07 1.104zm9.93-.912l-.7-2.016a7.394 7.394 0 013.82-1.032c1.54 0 2.64.376 3.31 1.128.67.752 1.01 1.872 1.01 3.36V236h-2.4v-1.248c-.66.928-1.72 1.392-3.19 1.392-1.01 0-1.83-.296-2.45-.888-.62-.592-.94-1.4-.94-2.424 0-1.136.37-2 1.11-2.592.73-.608 1.68-.912 2.83-.912.99 0 1.81.232 2.45.696.03-.944-.11-1.64-.41-2.088-.3-.464-.84-.696-1.61-.696-.8 0-1.74.248-2.83.744zm2.76 5.832c.93 0 1.62-.328 2.09-.984v-1.104c-.47-.352-1.1-.528-1.9-.528-.49 0-.91.12-1.25.36-.32.224-.48.552-.48.984 0 .4.15.712.44.936.28.224.65.336 1.1.336z" fill="#fff"/><rect x="1173.5" y="193.5" width="396" height="72" rx="6.5" stroke="#F76D09" stroke-width="3"/><path d="M673.119 429h-2.592v-16.8h2.952v11.952l8.808-11.952h2.592V429h-2.952v-11.928L673.119 429zm15.624 0v-10.8h2.496l3.672 4.512 3.48-4.512h2.424V429h-2.76v-6.6l-3.192 4.032h-.072l-3.288-4.032v6.6h-2.76zm22.509 0v-8.208h-4.608V429h-2.76v-10.8h10.128V429h-2.76zm6.763-1.32c-1.072-1.072-1.608-2.432-1.608-4.08 0-1.648.536-3 1.608-4.056 1.088-1.072 2.512-1.608 4.272-1.608 1.76 0 3.176.536 4.248 1.608 1.088 1.056 1.632 2.408 1.632 4.056 0 1.648-.544 3.008-1.632 4.08-1.072 1.056-2.488 1.584-4.248 1.584-1.76 0-3.184-.528-4.272-1.584zm1.344-4.08c0 .896.272 1.64.816 2.232.56.576 1.264.864 2.112.864.864 0 1.568-.28 2.112-.84.56-.576.84-1.328.84-2.256 0-.896-.28-1.632-.84-2.208-.56-.576-1.264-.864-2.112-.864-.832 0-1.528.288-2.088.864-.56.56-.84 1.296-.84 2.208zm11.197 10.2v-15.6h2.76v1.032c.352-.368.824-.672 1.416-.912a4.898 4.898 0 011.92-.384c1.472 0 2.656.512 3.552 1.536.896 1.024 1.344 2.344 1.344 3.96 0 1.68-.528 3.072-1.584 4.176s-2.432 1.656-4.128 1.656c-1.072 0-1.912-.176-2.52-.528v5.064h-2.76zm5.232-13.272c-.944 0-1.768.392-2.472 1.176v4.368c.64.416 1.4.624 2.28.624.928 0 1.664-.296 2.208-.888.544-.608.816-1.376.816-2.304 0-.88-.248-1.592-.744-2.136-.496-.56-1.192-.84-2.088-.84zm6.6.432v-2.76h9.84v2.76H748.7V429h-2.76v-8.04h-3.552zm27.126-2.76l-4.152 5.136 4.656 5.664h-3.6l-4.272-5.448 3.888-5.352h3.48zM759.29 429v-10.8h2.76V429h-2.76zm12.631-1.32c-1.072-1.072-1.608-2.432-1.608-4.08 0-1.648.536-3 1.608-4.056 1.088-1.072 2.512-1.608 4.272-1.608 1.76 0 3.176.536 4.248 1.608 1.088 1.056 1.632 2.408 1.632 4.056 0 1.648-.544 3.008-1.632 4.08-1.072 1.056-2.488 1.584-4.248 1.584-1.76 0-3.184-.528-4.272-1.584zm1.344-4.08c0 .896.272 1.64.816 2.232.56.576 1.264.864 2.112.864.864 0 1.568-.28 2.112-.84.56-.576.84-1.328.84-2.256 0-.896-.28-1.632-.84-2.208-.56-.576-1.264-.864-2.112-.864-.832 0-1.528.288-2.088.864-.56.56-.84 1.296-.84 2.208zm18.685 5.4v-4.128h-4.728V429h-2.76v-10.8h2.76v4.08h4.728v-4.08h2.76V429h-2.76zm11.152 4.8v-4.536h-.144c-1.84 0-3.28-.528-4.32-1.584-1.024-1.056-1.536-2.416-1.536-4.08 0-1.552.52-2.88 1.56-3.984 1.056-1.12 2.48-1.68 4.272-1.68h.168V412.2h2.76v5.736h.192c1.808 0 3.224.536 4.248 1.608 1.04 1.056 1.56 2.408 1.56 4.056 0 1.68-.496 3.048-1.488 4.104-.992 1.04-2.432 1.56-4.32 1.56h-.192v4.536h-2.76zm2.952-13.272h-.192v6.168h.096c.96 0 1.688-.28 2.184-.84.512-.56.768-1.312.768-2.256 0-.864-.248-1.592-.744-2.184-.48-.592-1.184-.888-2.112-.888zm-6 3.072c0 .928.256 1.68.768 2.256.512.56 1.248.84 2.208.84h.072v-6.168h-.192c-.96 0-1.68.288-2.16.864-.464.576-.696 1.312-.696 2.208zm16.957 5.4h-2.76v-10.8h2.76v6.84l5.04-6.84h2.76V429h-2.76v-6.84l-5.04 6.84zm10.88 0v-10.8h7.248v2.592h-4.488V429h-2.76zm19.534-10.8l-4.248 10.8c-.768 1.872-1.456 3.136-2.064 3.792-.592.672-1.296 1.008-2.112 1.008-.784 0-1.56-.28-2.328-.84l.888-2.088c.432.256.808.384 1.128.384.656 0 1.208-.56 1.656-1.68l.24-.576-4.992-10.8h3.312l2.52 5.904c.096.24.272.76.528 1.56.128-.704.256-1.232.384-1.584l1.944-5.88h3.144zm1.654 15.6v-15.6h2.76v1.032c.352-.368.824-.672 1.416-.912a4.898 4.898 0 011.92-.384c1.472 0 2.656.512 3.552 1.536.896 1.024 1.344 2.344 1.344 3.96 0 1.68-.528 3.072-1.584 4.176s-2.432 1.656-4.128 1.656c-1.072 0-1.912-.176-2.52-.528v5.064h-2.76zm5.232-13.272c-.944 0-1.768.392-2.472 1.176v4.368c.64.416 1.4.624 2.28.624.928 0 1.664-.296 2.208-.888.544-.608.816-1.376.816-2.304 0-.88-.248-1.592-.744-2.136-.496-.56-1.192-.84-2.088-.84zm8.991.456l-.696-2.016a7.385 7.385 0 013.816-1.032c1.536 0 2.64.376 3.312 1.128.672.752 1.008 1.872 1.008 3.36V429h-2.4v-1.248c-.656.928-1.72 1.392-3.192 1.392-1.008 0-1.824-.296-2.448-.888-.624-.592-.936-1.4-.936-2.424 0-1.136.368-2 1.104-2.592.736-.608 1.68-.912 2.832-.912.992 0 1.808.232 2.448.696.032-.944-.104-1.64-.408-2.088-.304-.464-.84-.696-1.608-.696-.8 0-1.744.248-2.832.744zm2.76 5.832c.928 0 1.624-.328 2.088-.984v-1.104c-.464-.352-1.096-.528-1.896-.528-.496 0-.912.12-1.248.36-.32.224-.48.552-.48.984 0 .4.144.712.432.936.288.224.656.336 1.104.336zm7.509 2.184v-10.8h2.76v8.232h4.44V418.2h2.76v8.232h1.8v5.088h-2.592V429h-9.168zm16.354 0h-2.76v-10.8h2.76v6.84l5.04-6.84h2.76V429h-2.76v-6.84l-5.04 6.84zm13.641 0h-2.76v-10.8h2.76v6.84l5.04-6.84h2.76V429h-2.76v-6.84l-5.04 6.84zm-1.152-16.2h2.52c0 .496.096.912.288 1.248.208.336.528.504.96.504a.934.934 0 00.864-.504c.192-.336.288-.752.288-1.248h2.52c0 1.088-.32 1.984-.96 2.688-.64.688-1.544 1.032-2.712 1.032-1.28 0-2.232-.336-2.856-1.008-.608-.688-.912-1.592-.912-2.712zm22.446 21v-4.536h-.144c-1.84 0-3.28-.528-4.32-1.584-1.024-1.056-1.536-2.416-1.536-4.08 0-1.552.52-2.88 1.56-3.984 1.056-1.12 2.48-1.68 4.272-1.68h.168V412.2h2.76v5.736h.192c1.808 0 3.224.536 4.248 1.608 1.04 1.056 1.56 2.408 1.56 4.056 0 1.68-.496 3.048-1.488 4.104-.992 1.04-2.432 1.56-4.32 1.56h-.192v4.536h-2.76zm2.952-13.272h-.192v6.168h.096c.96 0 1.688-.28 2.184-.84.512-.56.768-1.312.768-2.256 0-.864-.248-1.592-.744-2.184-.48-.592-1.184-.888-2.112-.888zm-6 3.072c0 .928.256 1.68.768 2.256.512.56 1.248.84 2.208.84h.072v-6.168h-.192c-.96 0-1.68.288-2.16.864-.464.576-.696 1.312-.696 2.208zm16.957 5.4h-2.76v-10.8h2.76v6.84l5.04-6.84h2.76V429h-2.76v-6.84l-5.04 6.84zm17.984 0v-8.04h-2.856l-.072 1.152c-.176 1.936-.472 3.424-.888 4.464-.4 1.04-.912 1.744-1.536 2.112-.608.352-1.424.528-2.448.528l-.24-2.688a1.4 1.4 0 00.984-.288c.32-.24.624-.752.912-1.536.288-.8.472-1.848.552-3.144l.168-3.36h8.184V429h-2.76zm5.834 0v-10.8h2.76v2.952h1.488c1.696 0 2.912.352 3.648 1.056.736.704 1.104 1.6 1.104 2.688 0 1.168-.4 2.144-1.2 2.928-.8.784-2.056 1.176-3.768 1.176h-4.032zm4.008-5.64h-1.248v3.24h1.224c1.392 0 2.088-.536 2.088-1.608 0-1.088-.688-1.632-2.064-1.632zm5.434-2.4v-2.76h9.84v2.76h-3.528V429h-2.76v-8.04h-3.552zm11.816 12.84v-15.6h2.76v1.032c.352-.368.824-.672 1.416-.912a4.898 4.898 0 011.92-.384c1.472 0 2.656.512 3.552 1.536.896 1.024 1.344 2.344 1.344 3.96 0 1.68-.528 3.072-1.584 4.176s-2.432 1.656-4.128 1.656c-1.072 0-1.912-.176-2.52-.528v5.064h-2.76zm5.232-13.272c-.944 0-1.768.392-2.472 1.176v4.368c.64.416 1.4.624 2.28.624.928 0 1.664-.296 2.208-.888.544-.608.816-1.376.816-2.304 0-.88-.248-1.592-.744-2.136-.496-.56-1.192-.84-2.088-.84zm8.99.456l-.696-2.016a7.388 7.388 0 013.819-1.032c1.53 0 2.64.376 3.31 1.128.67.752 1.01 1.872 1.01 3.36V429h-2.4v-1.248c-.66.928-1.72 1.392-3.195 1.392-1.008 0-1.824-.296-2.448-.888-.624-.592-.936-1.4-.936-2.424 0-1.136.368-2 1.104-2.592.736-.608 1.68-.912 2.835-.912.99 0 1.81.232 2.45.696.03-.944-.11-1.64-.41-2.088-.31-.464-.84-.696-1.61-.696-.8 0-1.745.248-2.833.744zm2.763 5.832c.93 0 1.62-.328 2.09-.984v-1.104c-.47-.352-1.1-.528-1.9-.528-.5 0-.91.12-1.249.36-.32.224-.48.552-.48.984 0 .4.144.712.432.936.287.224.657.336 1.107.336z" fill="#fff"/><rect x="628.5" y="386.5" width="418" height="72" rx="6.5" stroke="#F76D09" stroke-width="3"/><path d="M672.069 44V29.96h-7.488V44h-2.952V27.2h13.392V44h-2.952zm7.751-1.32c-1.072-1.072-1.608-2.432-1.608-4.08 0-1.648.536-3 1.608-4.056 1.088-1.072 2.512-1.608 4.272-1.608 1.76 0 3.176.536 4.248 1.608 1.088 1.056 1.632 2.408 1.632 4.056 0 1.648-.544 3.008-1.632 4.08-1.072 1.056-2.488 1.584-4.248 1.584-1.76 0-3.184-.528-4.272-1.584zm1.344-4.08c0 .896.272 1.64.816 2.232.56.576 1.264.864 2.112.864.864 0 1.568-.28 2.112-.84.56-.576.84-1.328.84-2.256 0-.896-.28-1.632-.84-2.208-.56-.576-1.264-.864-2.112-.864-.832 0-1.528.288-2.088.864-.56.56-.84 1.296-.84 2.208zM695.12 44h-2.76V33.2h2.76v6.84l5.04-6.84h2.76V44h-2.76v-6.84L695.12 44zm19.065-3.624l1.296 2.016c-.448.608-1.056 1.072-1.824 1.392-.752.32-1.576.48-2.472.48-1.76 0-3.176-.52-4.248-1.56s-1.608-2.408-1.608-4.104c0-1.6.528-2.944 1.584-4.032s2.392-1.632 4.008-1.632c1.92 0 3.368.488 4.344 1.464l-1.296 2.184c-.72-.704-1.616-1.056-2.688-1.056-.8 0-1.504.288-2.112.864-.592.56-.888 1.296-.888 2.208 0 .928.304 1.68.912 2.256.624.56 1.36.84 2.208.84 1.056 0 1.984-.44 2.784-1.32zM727.92 33.2l-4.152 5.136L728.424 44h-3.6l-4.272-5.448 3.888-5.352h3.48zM717.696 44V33.2h2.76V44h-2.76zm12.631-1.32c-1.072-1.072-1.608-2.432-1.608-4.08 0-1.648.536-3 1.608-4.056 1.088-1.072 2.512-1.608 4.272-1.608 1.76 0 3.176.536 4.248 1.608 1.088 1.056 1.632 2.408 1.632 4.056 0 1.648-.544 3.008-1.632 4.08-1.072 1.056-2.488 1.584-4.248 1.584-1.76 0-3.184-.528-4.272-1.584zm1.344-4.08c0 .896.272 1.64.816 2.232.56.576 1.264.864 2.112.864.864 0 1.568-.28 2.112-.84.56-.576.84-1.328.84-2.256 0-.896-.28-1.632-.84-2.208-.56-.576-1.264-.864-2.112-.864-.832 0-1.528.288-2.088.864-.56.56-.84 1.296-.84 2.208zm11.197 5.4V33.2c.192 0 .544-.008 1.056-.024a51.715 51.715 0 013.192-.096c3.264 0 4.896.944 4.896 2.832 0 .624-.2 1.16-.6 1.608a2.231 2.231 0 01-1.416.792v.048c1.536.368 2.304 1.2 2.304 2.496 0 2.176-1.712 3.264-5.136 3.264a55.3 55.3 0 01-2.28-.072 86.639 86.639 0 00-2.016-.048zm4.488-4.584h-1.728v2.4c1.088.064 1.696.096 1.824.096.608 0 1.08-.112 1.416-.336.352-.224.528-.528.528-.912 0-.832-.68-1.248-2.04-1.248zm0-4.104c-.768 0-1.344.016-1.728.048v2.376h1.8c.48 0 .872-.104 1.176-.312.32-.224.48-.536.48-.936 0-.784-.576-1.176-1.728-1.176zM754.915 44V33.2h2.76v2.952h1.344c1.696 0 2.912.352 3.648 1.056.736.704 1.104 1.6 1.104 2.688 0 1.168-.4 2.144-1.2 2.928-.8.784-2.056 1.176-3.768 1.176h-3.888zm10.392 0V33.2h2.76V44h-2.76zm-6.528-5.64h-1.104v3.24h1.08c1.392 0 2.088-.536 2.088-1.608 0-1.088-.688-1.632-2.064-1.632zM773.894 44h-2.76V33.2h2.76v6.84l5.04-6.84h2.76V44h-2.76v-6.84l-5.04 6.84zm-1.152-16.2h2.52c0 .496.096.912.288 1.248.208.336.528.504.96.504a.934.934 0 00.864-.504c.192-.336.288-.752.288-1.248h2.52c0 1.088-.32 1.984-.96 2.688-.64.688-1.544 1.032-2.712 1.032-1.28 0-2.232-.336-2.856-1.008-.608-.688-.912-1.592-.912-2.712zm15.822 18.72v-5.088h1.368c.848-1.12 1.352-3 1.512-5.64l.168-2.592h7.968v8.232h1.8v5.088h-2.592V44h-7.656v2.52h-2.568zm5.544-9.624c-.192 2.096-.624 3.608-1.296 4.536h4.008v-5.64h-2.64l-.072 1.104zM803.196 44V33.2c.192 0 .544-.008 1.056-.024a51.715 51.715 0 013.192-.096c3.264 0 4.896.944 4.896 2.832 0 .624-.2 1.16-.6 1.608a2.231 2.231 0 01-1.416.792v.048c1.536.368 2.304 1.2 2.304 2.496 0 2.176-1.712 3.264-5.136 3.264a55.3 55.3 0 01-2.28-.072 86.639 86.639 0 00-2.016-.048zm4.488-4.584h-1.728v2.4c1.088.064 1.696.096 1.824.096.608 0 1.08-.112 1.416-.336.352-.224.528-.528.528-.912 0-.832-.68-1.248-2.04-1.248zm0-4.104c-.768 0-1.344.016-1.728.048v2.376h1.8c.48 0 .872-.104 1.176-.312.32-.224.48-.536.48-.936 0-.784-.576-1.176-1.728-1.176zM818.003 44h-2.76V33.2h2.76v6.84l5.04-6.84h2.76V44h-2.76v-6.84l-5.04 6.84zm25.881-10.8l-3.576 5.232L844.172 44h-3.264l-3.6-5.568 3.312-5.232h3.264zM834.428 44V33.2h2.76V44h-2.76zm-3.096-5.568l-3.6-5.232h3.36l3.216 5.232L830.804 44h-3.288l3.816-5.568zm14.847 4.248c-1.072-1.072-1.608-2.432-1.608-4.08 0-1.648.536-3 1.608-4.056 1.088-1.072 2.512-1.608 4.272-1.608 1.76 0 3.176.536 4.248 1.608 1.088 1.056 1.632 2.408 1.632 4.056 0 1.648-.544 3.008-1.632 4.08-1.072 1.056-2.488 1.584-4.248 1.584-1.76 0-3.184-.528-4.272-1.584zm1.344-4.08c0 .896.272 1.64.816 2.232.56.576 1.264.864 2.112.864.864 0 1.568-.28 2.112-.84.56-.576.84-1.328.84-2.256 0-.896-.28-1.632-.84-2.208-.56-.576-1.264-.864-2.112-.864-.832 0-1.528.288-2.088.864-.56.56-.84 1.296-.84 2.208zm21.421-5.4l-4.152 5.136L869.448 44h-3.6l-4.272-5.448 3.888-5.352h3.48zM858.72 44V33.2h2.76V44h-2.76zm24.973-4.464c0-.448-.144-.84-.432-1.176a3.32 3.32 0 00-1.08-.888 12.897 12.897 0 00-1.488-.72 29.757 29.757 0 01-1.608-.792 11.42 11.42 0 01-1.488-.984 4.274 4.274 0 01-1.104-1.416c-.272-.592-.408-1.256-.408-1.992 0-1.312.472-2.408 1.416-3.288.96-.896 2.232-1.344 3.816-1.344 2.112 0 3.712.6 4.8 1.8l-1.584 2.208c-.864-.832-1.856-1.248-2.976-1.248-.72 0-1.296.168-1.728.504-.416.336-.624.784-.624 1.344 0 .544.184 1.016.552 1.416.384.4.856.72 1.416.96.56.224 1.168.496 1.824.816.672.32 1.288.656 1.848 1.008.56.336 1.024.832 1.392 1.488.384.64.576 1.4.576 2.28 0 1.392-.536 2.536-1.608 3.432-1.072.88-2.408 1.32-4.008 1.32a8.315 8.315 0 01-3.336-.696c-1.056-.48-1.776-1.128-2.16-1.944l1.68-2.016a4.735 4.735 0 001.752 1.416c.72.32 1.424.48 2.112.48.72 0 1.304-.168 1.752-.504.464-.352.696-.84.696-1.464zm5.73 9.264V33.2h2.76v1.032c.352-.368.824-.672 1.416-.912a4.898 4.898 0 011.92-.384c1.472 0 2.656.512 3.552 1.536.896 1.024 1.344 2.344 1.344 3.96 0 1.68-.528 3.072-1.584 4.176s-2.432 1.656-4.128 1.656c-1.072 0-1.912-.176-2.52-.528V48.8h-2.76zm5.232-13.272c-.944 0-1.768.392-2.472 1.176v4.368c.64.416 1.4.624 2.28.624.928 0 1.664-.296 2.208-.888.544-.608.816-1.376.816-2.304 0-.88-.248-1.592-.744-2.136-.496-.56-1.192-.84-2.088-.84zM902.806 44V27.2h2.76v6.984c.816-.784 1.848-1.176 3.096-1.176 1.392 0 2.48.384 3.264 1.152.784.752 1.176 1.944 1.176 3.576V44h-2.76v-5.904c0-.8-.208-1.416-.624-1.848-.416-.432-1.008-.648-1.776-.648-.928 0-1.72.328-2.376.984V44h-2.76zm13.509 0V33.2h2.76V44h-2.76zm-.288-14.688c0-.48.168-.864.504-1.152a1.76 1.76 0 011.224-.456c.416 0 .784.152 1.104.456.32.288.48.672.48 1.152 0 .528-.16.952-.48 1.272-.32.304-.688.456-1.104.456-.496 0-.912-.152-1.248-.456-.32-.32-.48-.744-.48-1.272zM922.563 44V33.2h2.76v1.08c.784-.848 1.816-1.272 3.096-1.272 2.96 0 4.44 1.552 4.44 4.656V44h-2.76v-5.856c0-1.696-.808-2.544-2.424-2.544-.88 0-1.664.344-2.352 1.032V44h-2.76zm23.422-10.8l-3.6 5.16 3.84 5.64h-3.36l-2.52-3.888L937.729 44h-3.192l3.84-5.496-3.6-5.304h3.384l2.28 3.576 2.352-3.576h3.192zm9.755 6.336c0-.448-.144-.84-.432-1.176a3.32 3.32 0 00-1.08-.888 12.897 12.897 0 00-1.488-.72 29.757 29.757 0 01-1.608-.792 11.42 11.42 0 01-1.488-.984 4.274 4.274 0 01-1.104-1.416c-.272-.592-.408-1.256-.408-1.992 0-1.312.472-2.408 1.416-3.288.96-.896 2.232-1.344 3.816-1.344 2.112 0 3.712.6 4.8 1.8l-1.584 2.208c-.864-.832-1.856-1.248-2.976-1.248-.72 0-1.296.168-1.728.504-.416.336-.624.784-.624 1.344 0 .544.184 1.016.552 1.416.384.4.856.72 1.416.96.56.224 1.168.496 1.824.816.672.32 1.288.656 1.848 1.008.56.336 1.024.832 1.392 1.488.384.64.576 1.4.576 2.28 0 1.392-.536 2.536-1.608 3.432-1.072.88-2.408 1.32-4.008 1.32a8.315 8.315 0 01-3.336-.696c-1.056-.48-1.776-1.128-2.16-1.944l1.68-2.016a4.735 4.735 0 001.752 1.416c.72.32 1.424.48 2.112.48.72 0 1.304-.168 1.752-.504.464-.352.696-.84.696-1.464zm14.202 1.44l.792 1.944c-1.056.896-2.432 1.344-4.128 1.344-1.744 0-3.152-.52-4.224-1.56-1.056-1.04-1.584-2.408-1.584-4.104 0-1.616.52-2.96 1.56-4.032 1.04-1.088 2.424-1.632 4.152-1.632 1.424 0 2.632.472 3.624 1.416.992.928 1.488 2.128 1.488 3.6 0 .608-.056 1.104-.168 1.488h-7.8c.112.8.464 1.424 1.056 1.872.592.432 1.32.648 2.184.648 1.216 0 2.232-.328 3.048-.984zm-3.552-5.736c-1.568 0-2.512.784-2.832 2.352h5.304c.016-.672-.2-1.232-.648-1.68-.448-.448-1.056-.672-1.824-.672zm8.295.744l-.696-2.016a7.385 7.385 0 013.816-1.032c1.536 0 2.64.376 3.312 1.128.672.752 1.008 1.872 1.008 3.36V44h-2.4v-1.248c-.656.928-1.72 1.392-3.192 1.392-1.008 0-1.824-.296-2.448-.888-.624-.592-.936-1.4-.936-2.424 0-1.136.368-2 1.104-2.592.736-.608 1.68-.912 2.832-.912.992 0 1.808.232 2.448.696.032-.944-.104-1.64-.408-2.088-.304-.464-.84-.696-1.608-.696-.8 0-1.744.248-2.832.744zm2.76 5.832c.928 0 1.624-.328 2.088-.984v-1.104c-.464-.352-1.096-.528-1.896-.528-.496 0-.912.12-1.248.36-.32.224-.48.552-.48.984 0 .4.144.712.432.936.288.224.656.336 1.104.336zM984.954 44V33.2h2.76v1.056c.608-.832 1.432-1.248 2.472-1.248.752 0 1.312.136 1.68.408l-.984 2.592c-.464-.272-.928-.408-1.392-.408-.8 0-1.392.384-1.776 1.152V44h-2.76zm16.666-3.624l1.3 2.016c-.45.608-1.06 1.072-1.83 1.392-.75.32-1.572.48-2.468.48-1.76 0-3.176-.52-4.248-1.56s-1.608-2.408-1.608-4.104c0-1.6.528-2.944 1.584-4.032s2.392-1.632 4.008-1.632c1.922 0 3.372.488 4.342 1.464l-1.29 2.184c-.72-.704-1.62-1.056-2.692-1.056-.8 0-1.504.288-2.112.864-.592.56-.888 1.296-.888 2.208 0 .928.304 1.68.912 2.256.624.56 1.36.84 2.208.84 1.056 0 1.982-.44 2.782-1.32zm3.51 3.624V27.2h2.76v6.984c.82-.784 1.85-1.176 3.1-1.176 1.39 0 2.48.384 3.26 1.152.79.752 1.18 1.944 1.18 3.576V44h-2.76v-5.904c0-.8-.21-1.416-.62-1.848-.42-.432-1.01-.648-1.78-.648-.93 0-1.72.328-2.38.984V44h-2.76z" fill="#fff"/><rect x="630.5" y="1.5" width="415" height="72" rx="6.5" stroke="#F76D09" stroke-width="3"/><path d="M41.1 57h-2.592V40.2h2.952v11.952L50.268 40.2h2.592V57h-2.952V45.072L41.1 57zm15.623 0V46.2h2.496l3.672 4.512 3.48-4.512h2.425V57h-2.76v-6.6l-3.193 4.032h-.072L59.484 50.4V57h-2.76zm22.51 0v-8.208h-4.609V57h-2.76V46.2h10.128V57h-2.76zm6.762-1.32c-1.072-1.072-1.608-2.432-1.608-4.08 0-1.648.536-3 1.608-4.056 1.088-1.072 2.512-1.608 4.272-1.608 1.76 0 3.176.536 4.248 1.608 1.088 1.056 1.632 2.408 1.632 4.056 0 1.648-.544 3.008-1.632 4.08-1.072 1.056-2.488 1.584-4.248 1.584-1.76 0-3.184-.528-4.272-1.584zm1.344-4.08c0 .896.272 1.64.816 2.232.56.576 1.264.864 2.112.864.864 0 1.568-.28 2.112-.84.56-.576.84-1.328.84-2.256 0-.896-.28-1.632-.84-2.208-.56-.576-1.264-.864-2.112-.864-.832 0-1.528.288-2.088.864-.56.56-.84 1.296-.84 2.208zm11.197 10.2V46.2h2.76v1.032c.352-.368.824-.672 1.416-.912a4.898 4.898 0 011.92-.384c1.472 0 2.656.512 3.552 1.536.896 1.024 1.344 2.344 1.344 3.96 0 1.68-.528 3.072-1.584 4.176s-2.432 1.656-4.128 1.656c-1.072 0-1.912-.176-2.52-.528V61.8h-2.76zm5.232-13.272c-.944 0-1.768.392-2.472 1.176v4.368c.64.416 1.4.624 2.28.624.928 0 1.664-.296 2.208-.888.544-.608.816-1.376.816-2.304 0-.88-.248-1.592-.744-2.136-.496-.56-1.192-.84-2.088-.84zm6.601.432V46.2h9.84v2.76h-3.528V57h-2.76v-8.04h-3.552zm15.773 0V46.2h9.84v2.76h-3.528V57h-2.76v-8.04h-3.552zm12.424 6.72c-1.072-1.072-1.608-2.432-1.608-4.08 0-1.648.536-3 1.608-4.056 1.088-1.072 2.512-1.608 4.272-1.608 1.76 0 3.176.536 4.248 1.608 1.088 1.056 1.632 2.408 1.632 4.056 0 1.648-.544 3.008-1.632 4.08-1.072 1.056-2.488 1.584-4.248 1.584-1.76 0-3.184-.528-4.272-1.584zm1.344-4.08c0 .896.272 1.64.816 2.232.56.576 1.264.864 2.112.864.864 0 1.568-.28 2.112-.84.56-.576.84-1.328.84-2.256 0-.896-.28-1.632-.84-2.208-.56-.576-1.264-.864-2.112-.864-.832 0-1.528.288-2.088.864-.56.56-.84 1.296-.84 2.208zm11.196 5.4V46.2c.192 0 .544-.008 1.056-.024a51.715 51.715 0 013.192-.096c3.264 0 4.896.944 4.896 2.832 0 .624-.2 1.16-.6 1.608a2.231 2.231 0 01-1.416.792v.048c1.536.368 2.304 1.2 2.304 2.496 0 2.176-1.712 3.264-5.136 3.264a55.3 55.3 0 01-2.28-.072 86.639 86.639 0 00-2.016-.048zm4.488-4.584h-1.728v2.4c1.088.064 1.696.096 1.824.096.608 0 1.08-.112 1.416-.336.352-.224.528-.528.528-.912 0-.832-.68-1.248-2.04-1.248zm0-4.104c-.768 0-1.344.016-1.728.048v2.376h1.8c.48 0 .872-.104 1.176-.312.32-.224.48-.536.48-.936 0-.784-.576-1.176-1.728-1.176zm8.399.672l-.696-2.016a7.385 7.385 0 013.816-1.032c1.536 0 2.64.376 3.312 1.128.672.752 1.008 1.872 1.008 3.36V57h-2.4v-1.248c-.656.928-1.72 1.392-3.192 1.392-1.008 0-1.824-.296-2.448-.888-.624-.592-.936-1.4-.936-2.424 0-1.136.368-2 1.104-2.592.736-.608 1.68-.912 2.832-.912.992 0 1.808.232 2.448.696.032-.944-.104-1.64-.408-2.088-.304-.464-.84-.696-1.608-.696-.8 0-1.744.248-2.832.744zm2.76 5.832c.928 0 1.624-.328 2.088-.984v-1.104c-.464-.352-1.096-.528-1.896-.528-.496 0-.912.12-1.248.36-.32.224-.48.552-.48.984 0 .4.144.712.432.936.288.224.656.336 1.104.336zm7.51 6.984V46.2h2.76v1.032c.352-.368.824-.672 1.416-.912a4.898 4.898 0 011.92-.384c1.472 0 2.656.512 3.552 1.536.896 1.024 1.344 2.344 1.344 3.96 0 1.68-.528 3.072-1.584 4.176s-2.432 1.656-4.128 1.656c-1.072 0-1.912-.176-2.52-.528V61.8h-2.76zm5.232-13.272c-.944 0-1.768.392-2.472 1.176v4.368c.64.416 1.4.624 2.28.624.928 0 1.664-.296 2.208-.888.544-.608.816-1.376.816-2.304 0-.88-.248-1.592-.744-2.136-.496-.56-1.192-.84-2.088-.84zm9.086 7.152c-1.072-1.072-1.608-2.432-1.608-4.08 0-1.648.536-3 1.608-4.056 1.088-1.072 2.512-1.608 4.272-1.608 1.76 0 3.176.536 4.248 1.608 1.088 1.056 1.632 2.408 1.632 4.056 0 1.648-.544 3.008-1.632 4.08-1.072 1.056-2.488 1.584-4.248 1.584-1.76 0-3.184-.528-4.272-1.584zm1.344-4.08c0 .896.272 1.64.816 2.232.56.576 1.264.864 2.112.864.864 0 1.568-.28 2.112-.84.56-.576.84-1.328.84-2.256 0-.896-.28-1.632-.84-2.208-.56-.576-1.264-.864-2.112-.864-.832 0-1.528.288-2.088.864-.56.56-.84 1.296-.84 2.208zm11.197 5.4V46.2c.192 0 .544-.008 1.056-.024a51.715 51.715 0 013.192-.096c3.264 0 4.896.944 4.896 2.832 0 .624-.2 1.16-.6 1.608a2.231 2.231 0 01-1.416.792v.048c1.536.368 2.304 1.2 2.304 2.496 0 2.176-1.712 3.264-5.136 3.264a55.3 55.3 0 01-2.28-.072 86.639 86.639 0 00-2.016-.048zm4.488-4.584h-1.728v2.4c1.088.064 1.696.096 1.824.096.608 0 1.08-.112 1.416-.336.352-.224.528-.528.528-.912 0-.832-.68-1.248-2.04-1.248zm0-4.104c-.768 0-1.344.016-1.728.048v2.376h1.8c.48 0 .872-.104 1.176-.312.32-.224.48-.536.48-.936 0-.784-.576-1.176-1.728-1.176zM221.015 57h-2.76V46.2h2.76v6.84l5.04-6.84h2.76V57h-2.76v-6.84l-5.04 6.84zm14.696.264a7.8 7.8 0 01-2.76-.504c-.896-.352-1.544-.784-1.944-1.296l1.416-1.728c.32.368.776.68 1.368.936.608.256 1.168.384 1.68.384.704 0 1.248-.12 1.632-.36.384-.24.576-.56.576-.96a1.07 1.07 0 00-.432-.888c-.288-.224-.688-.336-1.2-.336h-2.016v-1.848h1.896c.432 0 .776-.128 1.032-.384.272-.256.408-.568.408-.936 0-.784-.632-1.176-1.896-1.176-.992 0-1.976.416-2.952 1.248l-1.152-1.656c1.04-1.216 2.584-1.824 4.632-1.824 1.408 0 2.48.272 3.216.816.736.544 1.104 1.296 1.104 2.256 0 .528-.176 1.008-.528 1.44-.352.432-.84.752-1.464.96v.048c.736.144 1.296.448 1.68.912.4.448.6.992.6 1.632 0 1.008-.448 1.808-1.344 2.4-.896.576-2.08.864-3.552.864zm11.583-13.896l4.296-3.216h1.992V57h-2.76V44.088l-2.064 1.56-1.464-2.28zm22.792 9.792l1.128 2.208c-.528.56-1.288 1.016-2.28 1.368a9.055 9.055 0 01-3.096.528c-2.576 0-4.664-.792-6.264-2.376-1.6-1.584-2.4-3.68-2.4-6.288 0-2.512.76-4.584 2.28-6.216 1.52-1.632 3.624-2.448 6.312-2.448 2.16 0 3.864.568 5.112 1.704l-1.32 2.184c-1.136-.752-2.4-1.128-3.792-1.128-1.584 0-2.896.536-3.936 1.608-1.024 1.072-1.536 2.504-1.536 4.296 0 1.744.536 3.168 1.608 4.272 1.088 1.088 2.488 1.632 4.2 1.632 1.488 0 2.816-.448 3.984-1.344z" fill="#fff"/><rect x="1.5" y="14.5" width="305" height="72" rx="6.5" stroke="#F76D09" stroke-width="3"/><path d="M35.264 177h-2.592v-16.8h2.952v11.952l8.808-11.952h2.592V177h-2.952v-11.928L35.264 177zm15.624 0v-10.8h2.496l3.672 4.512 3.48-4.512h2.424V177H60.2v-6.6l-3.192 4.032h-.072l-3.288-4.032v6.6h-2.76zm22.508 0v-8.208h-4.608V177h-2.76v-10.8h10.128V177h-2.76zm6.763-1.32c-1.072-1.072-1.608-2.432-1.608-4.08 0-1.648.537-3 1.608-4.056 1.088-1.072 2.512-1.608 4.272-1.608 1.76 0 3.177.536 4.249 1.608 1.087 1.056 1.631 2.408 1.631 4.056 0 1.648-.544 3.008-1.632 4.08-1.072 1.056-2.487 1.584-4.248 1.584-1.76 0-3.183-.528-4.272-1.584zm1.344-4.08c0 .896.272 1.64.817 2.232.56.576 1.264.864 2.112.864.864 0 1.567-.28 2.111-.84.56-.576.84-1.328.84-2.256 0-.896-.28-1.632-.84-2.208-.56-.576-1.264-.864-2.112-.864-.831 0-1.528.288-2.087.864-.56.56-.84 1.296-.84 2.208zM92.7 181.8v-15.6h2.76v1.032c.352-.368.824-.672 1.416-.912a4.898 4.898 0 011.92-.384c1.472 0 2.656.512 3.552 1.536.896 1.024 1.344 2.344 1.344 3.96 0 1.68-.528 3.072-1.584 4.176s-2.432 1.656-4.128 1.656c-1.072 0-1.912-.176-2.52-.528v5.064H92.7zm5.232-13.272c-.944 0-1.768.392-2.472 1.176v4.368c.64.416 1.4.624 2.28.624.928 0 1.664-.296 2.208-.888.544-.608.816-1.376.816-2.304 0-.88-.248-1.592-.744-2.136-.496-.56-1.192-.84-2.088-.84zm6.601.432v-2.76h9.84v2.76h-3.528V177h-2.76v-8.04h-3.552zm16.901 8.04v-10.8h2.76v8.232h4.44V166.2h2.76v8.232h1.8v5.088h-2.592V177h-9.168zm22.066-3.024l.792 1.944c-1.056.896-2.432 1.344-4.128 1.344-1.744 0-3.152-.52-4.224-1.56-1.056-1.04-1.584-2.408-1.584-4.104 0-1.616.52-2.96 1.56-4.032 1.04-1.088 2.424-1.632 4.152-1.632 1.424 0 2.632.472 3.624 1.416.992.928 1.488 2.128 1.488 3.6 0 .608-.056 1.104-.168 1.488h-7.8c.112.8.464 1.424 1.056 1.872.592.432 1.32.648 2.184.648 1.216 0 2.232-.328 3.048-.984zm-3.552-5.736c-1.568 0-2.512.784-2.832 2.352h5.304c.016-.672-.2-1.232-.648-1.68-.448-.448-1.056-.672-1.824-.672zm14.943 8.76v-4.128h-4.728V177h-2.76v-10.8h2.76v4.08h4.728v-4.08h2.76V177h-2.76zm13.671 0h-2.76v-10.8h2.76v6.84l5.04-6.84h2.76V177h-2.76v-6.84l-5.04 6.84zm16.902-1.32c-1.072-1.072-1.608-2.432-1.608-4.08 0-1.648.536-3 1.608-4.056 1.088-1.072 2.512-1.608 4.272-1.608 1.76 0 3.176.536 4.248 1.608 1.088 1.056 1.632 2.408 1.632 4.056 0 1.648-.544 3.008-1.632 4.08-1.072 1.056-2.488 1.584-4.248 1.584-1.76 0-3.184-.528-4.272-1.584zm1.344-4.08c0 .896.272 1.64.816 2.232.56.576 1.264.864 2.112.864.864 0 1.568-.28 2.112-.84.56-.576.84-1.328.84-2.256 0-.896-.28-1.632-.84-2.208-.56-.576-1.264-.864-2.112-.864-.832 0-1.528.288-2.088.864-.56.56-.84 1.296-.84 2.208zm19.381 1.776l1.296 2.016c-.448.608-1.056 1.072-1.824 1.392-.752.32-1.576.48-2.472.48-1.76 0-3.176-.52-4.248-1.56s-1.608-2.408-1.608-4.104c0-1.6.528-2.944 1.584-4.032s2.392-1.632 4.008-1.632c1.92 0 3.368.488 4.344 1.464l-1.296 2.184c-.72-.704-1.616-1.056-2.688-1.056-.8 0-1.504.288-2.112.864-.592.56-.888 1.296-.888 2.208 0 .928.304 1.68.912 2.256.624.56 1.36.84 2.208.84 1.056 0 1.984-.44 2.784-1.32zm2.172-4.416v-2.76h9.84v2.76h-3.528V177h-2.76v-8.04h-3.552zm12.656.024l-.696-2.016a7.385 7.385 0 013.816-1.032c1.536 0 2.64.376 3.312 1.128.672.752 1.008 1.872 1.008 3.36V177h-2.4v-1.248c-.656.928-1.72 1.392-3.192 1.392-1.008 0-1.824-.296-2.448-.888-.624-.592-.936-1.4-.936-2.424 0-1.136.368-2 1.104-2.592.736-.608 1.68-.912 2.832-.912.992 0 1.808.232 2.448.696.032-.944-.104-1.64-.408-2.088-.304-.464-.84-.696-1.608-.696-.8 0-1.744.248-2.832.744zm2.76 5.832c.928 0 1.624-.328 2.088-.984v-1.104c-.464-.352-1.096-.528-1.896-.528-.496 0-.912.12-1.248.36-.32.224-.48.552-.48.984 0 .4.144.712.432.936.288.224.656.336 1.104.336zm6.381-5.856v-2.76h9.84v2.76h-3.528V177h-2.76v-8.04h-3.552zm22.04-2.76l-4.152 5.136 4.656 5.664h-3.6l-4.272-5.448 3.888-5.352h3.48zM241.974 177v-10.8h2.76V177h-2.76zm12.631-1.32c-1.072-1.072-1.608-2.432-1.608-4.08 0-1.648.536-3 1.608-4.056 1.088-1.072 2.512-1.608 4.272-1.608 1.76 0 3.176.536 4.248 1.608 1.088 1.056 1.632 2.408 1.632 4.056 0 1.648-.544 3.008-1.632 4.08-1.072 1.056-2.488 1.584-4.248 1.584-1.76 0-3.184-.528-4.272-1.584zm1.344-4.08c0 .896.272 1.64.816 2.232.56.576 1.264.864 2.112.864.864 0 1.568-.28 2.112-.84.56-.576.84-1.328.84-2.256 0-.896-.28-1.632-.84-2.208-.56-.576-1.264-.864-2.112-.864-.832 0-1.528.288-2.088.864-.56.56-.84 1.296-.84 2.208zm11.196 5.4v-10.8c.192 0 .544-.008 1.056-.024a51.715 51.715 0 013.192-.096c3.264 0 4.896.944 4.896 2.832 0 .624-.2 1.16-.6 1.608a2.231 2.231 0 01-1.416.792v.048c1.536.368 2.304 1.2 2.304 2.496 0 2.176-1.712 3.264-5.136 3.264a55.3 55.3 0 01-2.28-.072 86.639 86.639 0 00-2.016-.048zm4.488-4.584h-1.728v2.4c1.088.064 1.696.096 1.824.096.608 0 1.08-.112 1.416-.336.352-.224.528-.528.528-.912 0-.832-.68-1.248-2.04-1.248zm0-4.104c-.768 0-1.344.016-1.728.048v2.376h1.8c.48 0 .872-.104 1.176-.312.32-.224.48-.536.48-.936 0-.784-.576-1.176-1.728-1.176z" fill="#fff"/><rect x="1.5" y="134.5" width="305" height="72" rx="6.5" stroke="#F76D09" stroke-width="3"/><path d="M69.717 297h-2.592v-16.8h2.952v11.952l8.808-11.952h2.592V297h-2.952v-11.928L69.717 297zm15.624 0v-10.8h2.496l3.672 4.512 3.48-4.512h2.424V297h-2.76v-6.6l-3.192 4.032h-.072L88.1 290.4v6.6h-2.76zm22.508 0v-8.208h-4.608V297h-2.76v-10.8h10.128V297h-2.76zm6.764-1.32c-1.072-1.072-1.608-2.432-1.608-4.08 0-1.648.536-3 1.608-4.056 1.088-1.072 2.512-1.608 4.272-1.608 1.76 0 3.176.536 4.248 1.608 1.088 1.056 1.632 2.408 1.632 4.056 0 1.648-.544 3.008-1.632 4.08-1.072 1.056-2.488 1.584-4.248 1.584-1.76 0-3.184-.528-4.272-1.584zm1.344-4.08c0 .896.272 1.64.816 2.232.56.576 1.264.864 2.112.864.864 0 1.568-.28 2.112-.84.56-.576.84-1.328.84-2.256 0-.896-.28-1.632-.84-2.208-.56-.576-1.264-.864-2.112-.864-.832 0-1.528.288-2.088.864-.56.56-.84 1.296-.84 2.208zm11.196 10.2v-15.6h2.76v1.032c.352-.368.824-.672 1.416-.912a4.898 4.898 0 011.92-.384c1.472 0 2.656.512 3.552 1.536.896 1.024 1.344 2.344 1.344 3.96 0 1.68-.528 3.072-1.584 4.176s-2.432 1.656-4.128 1.656c-1.072 0-1.912-.176-2.52-.528v5.064h-2.76zm5.232-13.272c-.944 0-1.768.392-2.472 1.176v4.368c.64.416 1.4.624 2.28.624.928 0 1.664-.296 2.208-.888.544-.608.816-1.376.816-2.304 0-.88-.248-1.592-.744-2.136-.496-.56-1.192-.84-2.088-.84zm6.601.432v-2.76h9.84v2.76h-3.528V297h-2.76v-8.04h-3.552zm17.838 6.72c-1.072-1.072-1.608-2.432-1.608-4.08 0-1.648.536-3 1.608-4.056 1.088-1.072 2.512-1.608 4.272-1.608 1.76 0 3.176.536 4.248 1.608 1.088 1.056 1.632 2.408 1.632 4.056 0 1.648-.544 3.008-1.632 4.08-1.072 1.056-2.488 1.584-4.248 1.584-1.76 0-3.184-.528-4.272-1.584zm1.344-4.08c0 .896.272 1.64.816 2.232.56.576 1.264.864 2.112.864.864 0 1.568-.28 2.112-.84.56-.576.84-1.328.84-2.256 0-.896-.28-1.632-.84-2.208-.56-.576-1.264-.864-2.112-.864-.832 0-1.528.288-2.088.864-.56.56-.84 1.296-.84 2.208zm9.646-2.64v-2.76h9.84v2.76h-3.528V297h-2.76v-8.04h-3.552zm15.632 8.304a7.8 7.8 0 01-2.76-.504c-.896-.352-1.544-.784-1.944-1.296l1.416-1.728c.32.368.776.68 1.368.936.608.256 1.168.384 1.68.384.704 0 1.248-.12 1.632-.36.384-.24.576-.56.576-.96a1.07 1.07 0 00-.432-.888c-.288-.224-.688-.336-1.2-.336h-2.016v-1.848h1.896c.432 0 .776-.128 1.032-.384.272-.256.408-.568.408-.936 0-.784-.632-1.176-1.896-1.176-.992 0-1.976.416-2.952 1.248l-1.152-1.656c1.04-1.216 2.584-1.824 4.632-1.824 1.408 0 2.48.272 3.216.816.736.544 1.104 1.296 1.104 2.256 0 .528-.176 1.008-.528 1.44-.352.432-.84.752-1.464.96v.048c.736.144 1.296.448 1.68.912.4.448.6.992.6 1.632 0 1.008-.448 1.808-1.344 2.4-.896.576-2.08.864-3.552.864zm7.504-.264v-10.8h2.76v2.952h1.344c1.696 0 2.912.352 3.648 1.056.736.704 1.104 1.6 1.104 2.688 0 1.168-.4 2.144-1.2 2.928-.8.784-2.056 1.176-3.768 1.176h-3.888zm10.392 0v-10.8h2.76V297h-2.76zm-6.528-5.64h-1.104v3.24h1.08c1.392 0 2.088-.536 2.088-1.608 0-1.088-.688-1.632-2.064-1.632zm12.355 5.64v-10.8c.192 0 .544-.008 1.056-.024a51.715 51.715 0 013.192-.096c3.264 0 4.896.944 4.896 2.832 0 .624-.2 1.16-.6 1.608a2.231 2.231 0 01-1.416.792v.048c1.536.368 2.304 1.2 2.304 2.496 0 2.176-1.712 3.264-5.136 3.264a55.3 55.3 0 01-2.28-.072 86.639 86.639 0 00-2.016-.048zm4.488-4.584h-1.728v2.4c1.088.064 1.696.096 1.824.096.608 0 1.08-.112 1.416-.336.352-.224.528-.528.528-.912 0-.832-.68-1.248-2.04-1.248zm0-4.104c-.768 0-1.344.016-1.728.048v2.376h1.8c.48 0 .872-.104 1.176-.312.32-.224.48-.536.48-.936 0-.784-.576-1.176-1.728-1.176zm8.495 7.368c-1.072-1.072-1.608-2.432-1.608-4.08 0-1.648.536-3 1.608-4.056 1.088-1.072 2.512-1.608 4.272-1.608 1.76 0 3.176.536 4.248 1.608 1.088 1.056 1.632 2.408 1.632 4.056 0 1.648-.544 3.008-1.632 4.08-1.072 1.056-2.488 1.584-4.248 1.584-1.76 0-3.184-.528-4.272-1.584zm1.344-4.08c0 .896.272 1.64.816 2.232.56.576 1.264.864 2.112.864.864 0 1.568-.28 2.112-.84.56-.576.84-1.328.84-2.256 0-.896-.28-1.632-.84-2.208-.56-.576-1.264-.864-2.112-.864-.832 0-1.528.288-2.088.864-.56.56-.84 1.296-.84 2.208zm11.196 5.4v-10.8c.192 0 .544-.008 1.056-.024a51.715 51.715 0 013.192-.096c3.264 0 4.896.944 4.896 2.832 0 .624-.2 1.16-.6 1.608a2.231 2.231 0 01-1.416.792v.048c1.536.368 2.304 1.2 2.304 2.496 0 2.176-1.712 3.264-5.136 3.264a55.3 55.3 0 01-2.28-.072 86.639 86.639 0 00-2.016-.048zm4.488-4.584h-1.728v2.4c1.088.064 1.696.096 1.824.096.608 0 1.08-.112 1.416-.336.352-.224.528-.528.528-.912 0-.832-.68-1.248-2.04-1.248zm0-4.104c-.768 0-1.344.016-1.728.048v2.376h1.8c.48 0 .872-.104 1.176-.312.32-.224.48-.536.48-.936 0-.784-.576-1.176-1.728-1.176z" fill="#fff"/><rect x="1.5" y="254.5" width="305" height="72" rx="6.5" stroke="#F76D09" stroke-width="3"/><path d="M71.756 417h-2.592v-16.8h2.952v11.952l8.808-11.952h2.592V417h-2.952v-11.928L71.756 417zm15.624 0v-10.8h2.496l3.672 4.512 3.48-4.512h2.424V417h-2.76v-6.6l-3.192 4.032h-.072L90.14 410.4v6.6h-2.76zm22.508 0v-8.208h-4.608V417h-2.76v-10.8h10.128V417h-2.76zm6.764-1.32c-1.072-1.072-1.608-2.432-1.608-4.08 0-1.648.536-3 1.608-4.056 1.088-1.072 2.512-1.608 4.272-1.608 1.76 0 3.176.536 4.248 1.608 1.088 1.056 1.632 2.408 1.632 4.056 0 1.648-.544 3.008-1.632 4.08-1.072 1.056-2.488 1.584-4.248 1.584-1.76 0-3.184-.528-4.272-1.584zm1.344-4.08c0 .896.272 1.64.816 2.232.56.576 1.264.864 2.112.864.864 0 1.568-.28 2.112-.84.56-.576.84-1.328.84-2.256 0-.896-.28-1.632-.84-2.208-.56-.576-1.264-.864-2.112-.864-.832 0-1.528.288-2.088.864-.56.56-.84 1.296-.84 2.208zm11.196 10.2v-15.6h2.76v1.032c.352-.368.824-.672 1.416-.912a4.898 4.898 0 011.92-.384c1.472 0 2.656.512 3.552 1.536.896 1.024 1.344 2.344 1.344 3.96 0 1.68-.528 3.072-1.584 4.176s-2.432 1.656-4.128 1.656c-1.072 0-1.912-.176-2.52-.528v5.064h-2.76zm5.232-13.272c-.944 0-1.768.392-2.472 1.176v4.368c.64.416 1.4.624 2.28.624.928 0 1.664-.296 2.208-.888.544-.608.816-1.376.816-2.304 0-.88-.248-1.592-.744-2.136-.496-.56-1.192-.84-2.088-.84zm6.601.432v-2.76h9.84v2.76h-3.528V417h-2.76v-8.04h-3.552zm16.806-6v-2.76h12.768v2.04l-9.312 12h9.552V417h-13.488v-2.016l9.288-12.024h-8.808zm15.516 12.72c-1.072-1.072-1.608-2.432-1.608-4.08 0-1.648.536-3 1.608-4.056 1.088-1.072 2.512-1.608 4.272-1.608 1.76 0 3.176.536 4.248 1.608 1.088 1.056 1.632 2.408 1.632 4.056 0 1.648-.544 3.008-1.632 4.08-1.072 1.056-2.488 1.584-4.248 1.584-1.76 0-3.184-.528-4.272-1.584zm1.344-4.08c0 .896.272 1.64.816 2.232.56.576 1.264.864 2.112.864.864 0 1.568-.28 2.112-.84.56-.576.84-1.328.84-2.256 0-.896-.28-1.632-.84-2.208-.56-.576-1.264-.864-2.112-.864-.832 0-1.528.288-2.088.864-.56.56-.84 1.296-.84 2.208zm12.133 4.08c-1.072-1.072-1.608-2.432-1.608-4.08 0-1.648.536-3 1.608-4.056 1.088-1.072 2.512-1.608 4.272-1.608 1.76 0 3.176.536 4.248 1.608 1.088 1.056 1.632 2.408 1.632 4.056 0 1.648-.544 3.008-1.632 4.08-1.072 1.056-2.488 1.584-4.248 1.584-1.76 0-3.184-.528-4.272-1.584zm1.344-4.08c0 .896.272 1.64.816 2.232.56.576 1.264.864 2.112.864.864 0 1.568-.28 2.112-.84.56-.576.84-1.328.84-2.256 0-.896-.28-1.632-.84-2.208-.56-.576-1.264-.864-2.112-.864-.832 0-1.528.288-2.088.864-.56.56-.84 1.296-.84 2.208zm27.588-1.656V417h-2.76v-6.336c0-1.376-.616-2.064-1.848-2.064-1.056 0-1.8.416-2.232 1.248v.384c.016.192.024.328.024.408V417h-2.76v-6.528c0-.576-.16-1.032-.48-1.368-.304-.336-.744-.504-1.32-.504-.992 0-1.744.384-2.256 1.152V417h-2.76v-10.8h2.76v1.2c.832-.928 1.96-1.392 3.384-1.392.8 0 1.472.16 2.016.48.544.32.92.736 1.128 1.248.88-1.152 2.096-1.728 3.648-1.728 2.304 0 3.456 1.312 3.456 3.936zm3.739 5.736c-1.072-1.072-1.608-2.432-1.608-4.08 0-1.648.536-3 1.608-4.056 1.088-1.072 2.512-1.608 4.272-1.608 1.76 0 3.176.536 4.248 1.608 1.088 1.056 1.632 2.408 1.632 4.056 0 1.648-.544 3.008-1.632 4.08-1.072 1.056-2.488 1.584-4.248 1.584-1.76 0-3.184-.528-4.272-1.584zm1.344-4.08c0 .896.272 1.64.816 2.232.56.576 1.264.864 2.112.864.864 0 1.568-.28 2.112-.84.56-.576.84-1.328.84-2.256 0-.896-.28-1.632-.84-2.208-.56-.576-1.264-.864-2.112-.864-.832 0-1.528.288-2.088.864-.56.56-.84 1.296-.84 2.208zm16.261 3.096a.838.838 0 00.408-.744c0-.32-.2-.576-.6-.768a6.723 6.723 0 00-1.464-.528c-.56-.16-1.128-.344-1.704-.552a3.555 3.555 0 01-1.464-1.056c-.4-.48-.6-1.088-.6-1.824 0-1.024.368-1.824 1.104-2.4.752-.592 1.704-.888 2.856-.888 1.76 0 3.128.456 4.104 1.368l-1.032 1.968c-.88-.688-1.856-1.032-2.928-1.032-.4 0-.728.096-.984.288-.24.176-.36.392-.36.648 0 .32.2.584.6.792.4.208.88.384 1.44.528.576.144 1.152.32 1.728.528a3.364 3.364 0 011.464 1.032c.4.464.6 1.048.6 1.752 0 1.056-.4 1.896-1.2 2.52-.784.624-1.84.936-3.168.936-.928 0-1.848-.2-2.76-.6-.896-.4-1.48-.816-1.752-1.248l1.344-1.8c.32.352.824.664 1.512.936.688.272 1.304.408 1.848.408.416 0 .752-.088 1.008-.264z" fill="#C5CDCF"/><rect x="1.5" y="374.5" width="305" height="72" rx="6.5" stroke="#F76D09" stroke-width="3"/><path d="M323 48h56c11.046 0 20 8.954 20 20v116.125M323 411h56c11.046 0 20-8.954 20-20V274.875" stroke="#C5CDCF" stroke-width="2"/><path d="M317 296.5h62c11.046 0 20-8.954 20-20V269m-76-98h56c11.046 0 20 8.954 20 20v19" stroke="#C5CDCF" stroke-width="2"/><path d="M340.001 385.32l-.58-1.68a6.16 6.16 0 013.18-.86c1.28 0 2.2.313 2.76.94.56.627.84 1.56.84 2.8V392h-2v-1.04c-.546.773-1.433 1.16-2.66 1.16-.84 0-1.52-.247-2.04-.74s-.78-1.167-.78-2.02c0-.947.307-1.667.92-2.16.614-.507 1.4-.76 2.36-.76.827 0 1.507.193 2.04.58.027-.787-.086-1.367-.34-1.74-.253-.387-.7-.58-1.34-.58-.666 0-1.453.207-2.36.62zm2.3 4.86c.774 0 1.354-.273 1.74-.82v-.92c-.386-.293-.913-.44-1.58-.44-.413 0-.76.1-1.04.3-.266.187-.4.46-.4.82 0 .333.12.593.36.78.24.187.547.28.92.28zm6.258 5.82v-13h2.3v.86c.294-.307.687-.56 1.18-.76a4.089 4.089 0 011.6-.32c1.227 0 2.214.427 2.96 1.28.747.853 1.12 1.953 1.12 3.3 0 1.4-.44 2.56-1.32 3.48-.88.92-2.026 1.38-3.44 1.38-.893 0-1.593-.147-2.1-.44V396h-2.3zm4.36-11.06c-.786 0-1.473.327-2.06.98v3.64c.534.347 1.167.52 1.9.52.774 0 1.387-.247 1.84-.74.454-.507.68-1.147.68-1.92 0-.733-.206-1.327-.62-1.78-.413-.467-.993-.7-1.74-.7zm7.133 7.06v-9h2.3v9h-2.3zm-.24-12.24c0-.4.14-.72.42-.96.28-.253.62-.38 1.02-.38a1.3 1.3 0 01.92.38c.266.24.4.56.4.96 0 .44-.134.793-.4 1.06a1.3 1.3 0 01-.92.38c-.414 0-.76-.127-1.04-.38-.267-.267-.4-.62-.4-1.06zm-13.343-98.78l1.08 1.68c-.373.507-.88.893-1.52 1.16-.627.267-1.313.4-2.06.4-1.467 0-2.647-.433-3.54-1.3-.893-.867-1.34-2.007-1.34-3.42 0-1.333.44-2.453 1.32-3.36.88-.907 1.993-1.36 3.34-1.36 1.6 0 2.807.407 3.62 1.22l-1.08 1.82c-.6-.587-1.347-.88-2.24-.88-.667 0-1.253.24-1.76.72-.493.467-.74 1.08-.74 1.84 0 .773.253 1.4.76 1.88.52.467 1.133.7 1.84.7.88 0 1.653-.367 2.32-1.1zm7.146 1.1a.697.697 0 00.34-.62c0-.267-.166-.48-.5-.64a5.614 5.614 0 00-1.22-.44c-.466-.133-.94-.287-1.42-.46a2.97 2.97 0 01-1.22-.88c-.333-.4-.5-.907-.5-1.52 0-.853.307-1.52.92-2 .627-.493 1.42-.74 2.38-.74 1.467 0 2.607.38 3.42 1.14l-.86 1.64c-.733-.573-1.546-.86-2.44-.86-.333 0-.606.08-.82.24-.2.147-.3.327-.3.54 0 .267.167.487.5.66.334.173.734.32 1.2.44.48.12.96.267 1.44.44s.887.46 1.22.86c.334.387.5.873.5 1.46 0 .88-.333 1.58-1 2.1-.653.52-1.533.78-2.64.78-.773 0-1.54-.167-2.3-.5-.746-.333-1.233-.68-1.46-1.04l1.12-1.5c.267.293.687.553 1.26.78.574.227 1.087.34 1.54.34.347 0 .627-.073.84-.22zm13.047-7.08l-3.88 9.04h-1.7l-4.14-9.04h2.74l1.66 3.86c.293.653.52 1.333.68 2.04.173-.747.393-1.44.66-2.08l1.56-3.82h2.42zM348.169 29l-3 4.3 3.2 4.7h-2.8l-2.1-3.24-2.18 3.24h-2.66l3.2-4.58-3-4.42h2.82l1.9 2.98 1.96-2.98h2.66zm15.509 3.12V38h-2.3v-5.28c0-1.147-.513-1.72-1.54-1.72-.88 0-1.5.347-1.86 1.04v.32c.014.16.02.273.02.34V38h-2.3v-5.44c0-.48-.133-.86-.4-1.14-.253-.28-.62-.42-1.1-.42-.826 0-1.453.32-1.88.96V38h-2.3v-9h2.3v1c.694-.773 1.634-1.16 2.82-1.16.667 0 1.227.133 1.68.4.454.267.767.613.94 1.04.734-.96 1.747-1.44 3.04-1.44 1.92 0 2.88 1.093 2.88 3.28zm2.336 3.4V24h2.3v10.58c0 .973.26 1.46.78 1.46.294 0 .607-.12.94-.36l.48 1.76c-.626.507-1.42.76-2.38.76-1.413 0-2.12-.893-2.12-2.68z" fill="#fff"/><path d="M614 231l-10-5.774v11.548L614 231zm-195 1h186v-2H419v2zm-19-21v-32.5h-2V211h2zm19 19c-10.493 0-19-8.507-19-19h-2c0 11.598 9.402 21 21 21v-2z" fill="#C5CDCF"/><path d="M399 270.5V251c0-11.046 8.954-20 20-20h21.5" stroke="#C5CDCF" stroke-width="2"/><path d="M866.1 337.98l1.08 1.68c-.373.507-.88.893-1.52 1.16-.627.267-1.313.4-2.06.4-1.467 0-2.647-.433-3.54-1.3-.893-.867-1.34-2.007-1.34-3.42 0-1.333.44-2.453 1.32-3.36.88-.907 1.993-1.36 3.34-1.36 1.6 0 2.807.407 3.62 1.22l-1.08 1.82c-.6-.587-1.347-.88-2.24-.88-.667 0-1.253.24-1.76.72-.493.467-.74 1.08-.74 1.84 0 .773.253 1.4.76 1.88.52.467 1.133.7 1.84.7.88 0 1.653-.367 2.32-1.1zm7.146 1.1a.697.697 0 00.34-.62c0-.267-.167-.48-.5-.64a5.614 5.614 0 00-1.22-.44c-.467-.133-.94-.287-1.42-.46a2.964 2.964 0 01-1.22-.88c-.333-.4-.5-.907-.5-1.52 0-.853.307-1.52.92-2 .627-.493 1.42-.74 2.38-.74 1.467 0 2.607.38 3.42 1.14l-.86 1.64c-.733-.573-1.547-.86-2.44-.86-.333 0-.607.08-.82.24-.2.147-.3.327-.3.54 0 .267.167.487.5.66.333.173.733.32 1.2.44.48.12.96.267 1.44.44s.887.46 1.22.86c.333.387.5.873.5 1.46 0 .88-.333 1.58-1 2.1-.653.52-1.533.78-2.64.78-.773 0-1.54-.167-2.3-.5-.747-.333-1.233-.68-1.46-1.04l1.12-1.5c.267.293.687.553 1.26.78.573.227 1.087.34 1.54.34.347 0 .627-.073.84-.22zm13.047-7.08l-3.88 9.04h-1.7l-4.14-9.04h2.74l1.66 3.86c.293.653.52 1.333.68 2.04.173-.747.393-1.44.66-2.08l1.56-3.82h2.42z" fill="#fff"/><path d="M838 300l-5.774 10h11.548L838 300zm1 70v-61h-2v61h2z" fill="#C5CDCF"/><path d="M872.94 125.12V131h-2.3v-5.28c0-1.147-.513-1.72-1.54-1.72-.88 0-1.5.347-1.86 1.04v.32c.013.16.02.273.02.34v5.3h-2.3v-5.44c0-.48-.133-.86-.4-1.14-.253-.28-.62-.42-1.1-.42-.827 0-1.453.32-1.88.96V131h-2.3v-9h2.3v1c.693-.773 1.633-1.16 2.82-1.16.667 0 1.227.133 1.68.4.453.267.767.613.94 1.04.733-.96 1.747-1.44 3.04-1.44 1.92 0 2.88 1.093 2.88 3.28zm11.016-3.12l-3.54 9c-.64 1.56-1.213 2.613-1.72 3.16-.493.56-1.08.84-1.76.84-.653 0-1.3-.233-1.94-.7l.74-1.74c.36.213.673.32.94.32.547 0 1.007-.467 1.38-1.4l.2-.48-4.16-9h2.76l2.1 4.92c.08.2.227.633.44 1.3.107-.587.213-1.027.32-1.32l1.62-4.9h2.62zm7.659 5.28c0-.373-.12-.7-.36-.98a2.778 2.778 0 00-.9-.74 10.94 10.94 0 00-1.24-.6c-.44-.2-.887-.42-1.34-.66a9.449 9.449 0 01-1.24-.82c-.374-.307-.68-.7-.92-1.18a3.926 3.926 0 01-.34-1.66c0-1.093.393-2.007 1.18-2.74.8-.747 1.86-1.12 3.18-1.12 1.76 0 3.093.5 4 1.5l-1.32 1.84c-.72-.693-1.547-1.04-2.48-1.04-.6 0-1.08.14-1.44.42-.347.28-.52.653-.52 1.12 0 .453.153.847.46 1.18.32.333.713.6 1.18.8.466.187.973.413 1.52.68.56.267 1.073.547 1.54.84.466.28.853.693 1.16 1.24.32.533.48 1.167.48 1.9 0 1.16-.447 2.113-1.34 2.86-.894.733-2.007 1.1-3.34 1.1-.96 0-1.887-.193-2.78-.58-.88-.4-1.48-.94-1.8-1.62l1.4-1.68c.386.507.873.9 1.46 1.18.6.267 1.186.4 1.76.4.6 0 1.086-.14 1.46-.42.386-.293.58-.7.58-1.22zm4.394-3.28c0-2.053.68-3.767 2.04-5.14 1.374-1.387 3.12-2.08 5.24-2.08 2.107 0 3.847.667 5.22 2 1.387 1.333 2.08 3.073 2.08 5.22 0 1.987-.64 3.653-1.92 5l1.72 2h-2.86l-.58-.66c-1.066.587-2.286.88-3.66.88-2.106 0-3.846-.667-5.22-2-1.373-1.333-2.06-3.073-2.06-5.22zm2.6 0c0 1.4.447 2.573 1.34 3.52.907.933 2.02 1.4 3.34 1.4a5.07 5.07 0 002.1-.44l-1.18-1.38 1.6-1.44 1.24 1.46c.627-.88.94-1.92.94-3.12 0-1.44-.453-2.62-1.36-3.54-.893-.92-2.006-1.38-3.34-1.38-1.346 0-2.466.46-3.36 1.38-.88.92-1.32 2.1-1.32 3.54zm14.827 7v-14h2.46v11.7h6.3v2.3h-8.76zm9.964-4.4v-2.14h5.04v2.14h-5.04zm6.932-2.3V122h8.2v2.3h-2.94v6.7h-2.3v-6.7h-2.96zm10.546.02l-.58-1.68a6.16 6.16 0 013.18-.86c1.28 0 2.2.313 2.76.94.56.627.84 1.56.84 2.8V131h-2v-1.04c-.546.773-1.433 1.16-2.66 1.16-.84 0-1.52-.247-2.04-.74s-.78-1.167-.78-2.02c0-.947.307-1.667.92-2.16.614-.507 1.4-.76 2.36-.76.827 0 1.507.193 2.04.58.027-.787-.086-1.367-.34-1.74-.253-.387-.7-.58-1.34-.58-.666 0-1.453.207-2.36.62zm2.3 4.86c.774 0 1.354-.273 1.74-.82v-.92c-.386-.293-.913-.44-1.58-.44-.413 0-.76.1-1.04.3-.266.187-.4.46-.4.82 0 .333.12.593.36.78.24.187.547.28.92.28zm13.018-12.4l1.2 1.88a2.914 2.914 0 01-1.2.88c-.453.16-.986.307-1.6.44-.6.12-1.12.287-1.56.5-1.12.52-1.766 1.64-1.94 3.36h.04c.28-.493.714-.893 1.3-1.2a3.83 3.83 0 011.86-.48c1.24 0 2.234.4 2.98 1.2.747.8 1.12 1.873 1.12 3.22 0 1.293-.44 2.393-1.32 3.3-.88.893-2.013 1.34-3.4 1.34-1.506 0-2.7-.513-3.58-1.54-.866-1.027-1.3-2.413-1.3-4.16 0-3.853 1.134-6.267 3.4-7.24a7.874 7.874 0 011.64-.48c.587-.12 1.054-.24 1.4-.36.36-.12.68-.34.96-.66zm-4.94 9.22c.014.893.234 1.633.66 2.22.427.573.994.86 1.7.86.707 0 1.267-.227 1.68-.68.427-.467.64-1.04.64-1.72 0-.693-.193-1.26-.58-1.7-.386-.453-.933-.68-1.64-.68-.613 0-1.14.16-1.58.48a2.44 2.44 0 00-.88 1.22zm14.764 5v-6.7h-2.38l-.06.96c-.146 1.613-.393 2.853-.74 3.72-.333.867-.76 1.453-1.28 1.76-.506.293-1.186.44-2.04.44l-.2-2.24c.294.027.567-.053.82-.24.267-.2.52-.627.76-1.28.24-.667.394-1.54.46-2.62l.14-2.8h6.82v9h-2.3zm7.162 0h-2.3v-9h2.3v5.7l4.2-5.7h2.3v9h-2.3v-5.7l-4.2 5.7zm9.067 0v-9h2.3v6.86h3.7V122h2.3v6.86h1.5v4.24h-2.16V131h-7.64zm11.328 0v-9h2.3v2.46h1.12c1.413 0 2.427.293 3.043.88.61.587.92 1.333.92 2.24 0 .973-.34 1.787-1.003 2.44-.667.653-1.713.98-3.14.98h-3.24zm8.663 0v-9h2.3v9h-2.3zm-5.443-4.7h-.92v2.7h.9c1.16 0 1.74-.447 1.74-1.34 0-.907-.573-1.36-1.72-1.36z" fill="#fff"/><path d="M838 90l-5.774 10h11.548L838 90zm1 70V99h-2v61h2zm318 70l-10-5.774v11.548l10-5.774zm-100 1h91v-2h-91v2zm314-58l5.77-10h-11.54l5.77 10zM1059 38h292v-2h-292v2zm311 19v107h2V57h-2zm-19-19c10.49 0 19 8.507 19 19h2c0-11.598-9.4-21-21-21v2z" fill="#C5CDCF"/></svg>