<svg width="1207" height="328" viewBox="0 0 1207 328" fill="none" xmlns="http://www.w3.org/2000/svg"><path d="M499.207 174.707a.999.999 0 000-1.414l-6.364-6.364a.999.999 0 10-1.414 1.414l5.657 5.657-5.657 5.657a.999.999 0 101.414 1.414l6.364-6.364zM385 175h113.5v-2H385v2zm247.293 57.457a.999.999 0 001.414 0l6.364-6.364a.999.999 0 10-1.414-1.414L633 230.336l-5.657-5.657a.999.999 0 10-1.414 1.414l6.364 6.364zM632 212v19.75h2V212h-2zM384.293 33.293a1 1 0 000 1.414l6.364 6.364a1 1 0 101.414-1.414L386.414 34l5.657-5.657a1 1 0 10-1.414-1.414l-6.364 6.364zM498.5 33H385v2h113.5v-2zm383.707 141.707a.999.999 0 000-1.414l-6.364-6.364a.999.999 0 10-1.414 1.414l5.657 5.657-5.657 5.657a.999.999 0 101.414 1.414l6.364-6.364zM768 175h113.5v-2H768v2zm56.75 101.001h1-1zm8 8v1-1zm49.457.707a1 1 0 000-1.415l-6.364-6.364a1 1 0 00-1.414 1.415l5.657 5.656-5.657 5.657a1 1 0 101.414 1.415l6.364-6.364zM823.75 180v96.001h2V180h-2zm9 105.001L881.5 285v-2l-48.75.001v2zm-9-9a9 9 0 009 9v-2a7 7 0 01-7-7h-2zm1-200.001h-1 1zm8-8v1-1zm49.457.707a1 1 0 000-1.414l-6.364-6.364a1 1 0 10-1.414 1.414L880.086 68l-5.657 5.657a1 1 0 101.414 1.414l6.364-6.364zM825.75 169V76h-2v93h2zm7-100h48.75v-2h-48.75v2zm-7 7a7 7 0 017-7v-2a9 9 0 00-9 9h2zM624 51.125v-1 1zm8 8h-1 1zm-.707 49.457a.999.999 0 001.414 0l6.364-6.364a.999.999 0 10-1.414-1.414L632 106.461l-5.657-5.657a.999.999 0 10-1.414 1.414l6.364 6.364zM386 52.125h238v-2H386v2zm245 7v48.75h2v-48.75h-2zm-7-7a7 7 0 017 7h2a9 9 0 00-9-9v2z" fill="#E4002B"/><rect x="539" y="129" width="188" height="89" rx="8" fill="#F6F4F2"/><path d="M589.664 180v-16.8h9.264v1.248h-7.944v5.688c.976-.096 1.92-.144 2.832-.144 1.936 0 3.424.424 4.464 1.272 1.056.848 1.584 2.04 1.584 3.576 0 1.68-.56 2.976-1.68 3.888-1.12.896-2.704 1.344-4.752 1.344-.272 0-.968-.016-2.088-.048-.56-.016-1.12-.024-1.68-.024zm4.104-8.76c-1.024 0-1.952.048-2.784.144v7.368c1.584.048 2.464.072 2.64.072 1.616 0 2.84-.336 3.672-1.008.832-.672 1.248-1.64 1.248-2.904 0-1.168-.408-2.072-1.224-2.712-.816-.64-2-.96-3.552-.96zm18.224-.24l-7.2 9h-1.248v-10.8h1.248v9l7.2-9h1.248V180h-1.248v-9zm7.741-.552h-4.296V169.2h9.84v1.248h-4.296V180h-1.248v-9.552zm8.989 14.352h-1.248v-15.6h1.248v1.44c.432-.48 1.008-.872 1.728-1.176.736-.32 1.48-.48 2.232-.48 1.536 0 2.76.504 3.672 1.512.912 1.008 1.368 2.32 1.368 3.936 0 1.68-.512 3.064-1.536 4.152-1.04 1.088-2.376 1.632-4.008 1.632-1.456 0-2.608-.304-3.456-.912v5.496zm3.624-14.64c-.704 0-1.392.16-2.064.48-.656.32-1.176.72-1.56 1.2v6.216c.992.656 2.112.984 3.36.984 1.28 0 2.32-.424 3.12-1.272.8-.848 1.2-1.936 1.2-3.264 0-1.328-.36-2.384-1.08-3.168-.72-.784-1.712-1.176-2.976-1.176zm16.865.84l-7.2 9h-1.248v-10.8h1.248v9l7.2-9h1.248V180h-1.248v-9zm12.229-1.8h1.608l-5.328 5.16 5.76 5.64h-1.68l-5.592-5.568 5.232-5.232zm-5.952 10.8h-1.248v-10.8h1.248V180zm18.238-2.448l.624.912c-.432.56-1.016.992-1.752 1.296a5.923 5.923 0 01-2.328.456c-1.68 0-3.056-.512-4.128-1.536-1.056-1.024-1.584-2.384-1.584-4.08 0-1.584.512-2.912 1.536-3.984 1.04-1.088 2.32-1.632 3.84-1.632 1.856 0 3.256.448 4.2 1.344l-.6 1.008c-.848-.784-1.984-1.176-3.408-1.176-1.152 0-2.152.424-3 1.272-.832.832-1.248 1.888-1.248 3.168 0 1.344.424 2.424 1.272 3.24.848.8 1.92 1.2 3.216 1.2 1.392 0 2.512-.496 3.36-1.488z" fill="#141414"/><rect y="129" width="344" height="89" rx="8" fill="#F6F4F2"/><path d="M59.589 171.6c0-2.448.8-4.496 2.4-6.144 1.6-1.648 3.608-2.472 6.024-2.472 2.4 0 4.4.816 6 2.448 1.616 1.616 2.424 3.672 2.424 6.168 0 2.448-.808 4.504-2.424 6.168-1.6 1.632-3.6 2.448-6 2.448s-4.408-.808-6.024-2.424c-1.6-1.616-2.4-3.68-2.4-6.192zm1.392 0c0 2.08.672 3.832 2.016 5.256 1.36 1.408 3.032 2.112 5.016 2.112 2.048 0 3.728-.704 5.04-2.112 1.328-1.424 1.992-3.176 1.992-5.256 0-2.128-.68-3.88-2.04-5.256-1.344-1.408-3.008-2.112-4.992-2.112-2 0-3.672.704-5.016 2.112-1.344 1.392-2.016 3.144-2.016 5.256zm26.92 5.952l.624.912c-.431.56-1.016.992-1.752 1.296a5.923 5.923 0 01-2.328.456c-1.68 0-3.055-.512-4.127-1.536-1.056-1.024-1.584-2.384-1.584-4.08 0-1.584.512-2.912 1.535-3.984 1.04-1.088 2.32-1.632 3.84-1.632 1.857 0 3.257.448 4.2 1.344l-.6 1.008c-.847-.784-1.984-1.176-3.407-1.176-1.153 0-2.153.424-3 1.272-.833.832-1.249 1.888-1.249 3.168 0 1.344.425 2.424 1.273 3.24.848.8 1.92 1.2 3.216 1.2 1.391 0 2.511-.496 3.36-1.488zm5.984-7.104H89.59V169.2h9.84v1.248h-4.296V180h-1.248v-9.552zm8.077.552l-.336-1.032c1.072-.656 2.216-.984 3.432-.984 1.408 0 2.424.352 3.048 1.056.64.704.96 1.792.96 3.264V180h-1.248v-1.656c-.88 1.2-2.112 1.8-3.696 1.8-1.008 0-1.816-.288-2.424-.864-.608-.592-.912-1.376-.912-2.352 0-1.056.384-1.88 1.152-2.472.752-.592 1.736-.888 2.952-.888s2.192.272 2.928.816c0-1.12-.08-1.976-.24-2.568-.128-.576-.392-.984-.792-1.224-.384-.24-.984-.384-1.8-.432-.976 0-1.984.28-3.024.84zm2.544 7.968c1.344 0 2.448-.568 3.312-1.704v-1.8c-.784-.576-1.72-.864-2.808-.864-.816 0-1.504.2-2.064.6-.56.4-.84.952-.84 1.656 0 .64.224 1.152.672 1.536.448.384 1.024.576 1.728.576zm10.848-8.52h-4.296V169.2h9.84v1.248h-4.296V180h-1.248v-9.552zm14.941-1.248h1.608l-5.328 5.16 5.76 5.64h-1.68l-5.592-5.568 5.232-5.232zm-5.952 10.8h-1.248v-10.8h1.248V180zm18.825-9l-7.2 9h-1.248v-10.8h1.248v9l7.2-9h1.248V180h-1.248v-9zm19.125 0l-7.2 9h-1.248v-10.8h1.248v9l7.2-9h1.248V180h-1.248v-9zm20.613 9h-9.936v-10.8h1.248v9.624h6.816V169.2h1.248v9.624h1.8v3.912h-1.176V180zm12.014-2.28l.408.96c-.976 1.024-2.304 1.536-3.984 1.536-1.728 0-3.112-.512-4.152-1.536-1.056-1.024-1.584-2.384-1.584-4.08 0-1.632.48-2.976 1.44-4.032.976-1.056 2.32-1.584 4.032-1.584 1.392 0 2.56.448 3.504 1.344.928.88 1.392 2.056 1.392 3.528 0 .384-.024.72-.072 1.008H187c.048 1.296.472 2.32 1.272 3.072.8.736 1.848 1.104 3.144 1.104 1.504 0 2.672-.44 3.504-1.32zm-3.96-7.56c-1.152 0-2.088.336-2.808 1.008-.704.672-1.112 1.56-1.224 2.664h7.776c-.016-1.136-.36-2.032-1.032-2.688-.672-.656-1.576-.984-2.712-.984zm17.506 9.84h-1.248v-4.896h-7.008V180h-1.248v-10.8h1.248v4.728h7.008V169.2h1.248V180zm6.761 0h-2.976v-10.8h1.248v3.624h1.872c2.848 0 4.272 1.184 4.272 3.552 0 1.12-.36 2.008-1.08 2.664-.72.64-1.832.96-3.336.96zm-.072-6h-1.656v4.824h1.632c1.136 0 1.952-.2 2.448-.6.496-.4.744-1.008.744-1.824 0-1.6-1.056-2.4-3.168-2.4zm8.208 6h-1.248v-10.8h1.248V180zm17.891-9l-7.2 9h-1.248v-10.8h1.248v9l7.2-9h1.248V180h-1.248v-9zm8.365 9.216c-.736 0-1.552-.136-2.448-.408-.848-.256-1.448-.6-1.8-1.032l.648-.96c.416.384.936.688 1.56.912a5.97 5.97 0 001.848.312c1.008 0 1.816-.2 2.424-.6.608-.4.912-.936.912-1.608 0-.56-.224-1-.672-1.32-.448-.32-1.056-.48-1.824-.48h-1.824V174h1.704c.608 0 1.128-.192 1.56-.576.432-.384.648-.848.648-1.392 0-.608-.24-1.072-.72-1.392-.48-.32-1.152-.48-2.016-.48-1.264 0-2.392.4-3.384 1.2l-.504-.96c.912-.944 2.264-1.416 4.056-1.416 1.232 0 2.184.256 2.856.768.688.496 1.032 1.184 1.032 2.064 0 1.264-.648 2.128-1.944 2.592v.048c.736.064 1.312.336 1.728.816.416.464.624 1.04.624 1.728 0 .992-.408 1.776-1.224 2.352-.816.576-1.896.864-3.24.864zm13.16-13.104l-.672-1.008 3.816-3.048h.864V180h-1.248v-15.12l-2.76 2.232zm21.578 10.272l.528.984c-.576.576-1.336 1.032-2.28 1.368-.928.32-1.904.48-2.928.48-2.496 0-4.528-.784-6.096-2.352-1.552-1.552-2.328-3.64-2.328-6.264 0-2.48.752-4.528 2.256-6.144 1.504-1.648 3.496-2.472 5.976-2.472 2.128 0 3.824.528 5.088 1.584l-.624.984c-1.136-.88-2.616-1.32-4.44-1.32-2.048 0-3.704.696-4.968 2.088-1.264 1.36-1.896 3.12-1.896 5.28 0 2.192.656 3.968 1.968 5.328 1.312 1.36 3.032 2.04 5.16 2.04 1.76 0 3.288-.528 4.584-1.584z" fill="#141414"/><rect y="7" width="344" height="89" rx="8" fill="#F6F4F2"/><path d="M89.062 49.6c0-2.448.8-4.496 2.4-6.144 1.6-1.648 3.608-2.472 6.024-2.472 2.4 0 4.4.816 6 2.448 1.616 1.616 2.424 3.672 2.424 6.168 0 2.448-.808 4.504-2.424 6.168-1.6 1.632-3.6 2.448-6 2.448s-4.408-.808-6.024-2.424c-1.6-1.616-2.4-3.68-2.4-6.192zm1.392 0c0 2.08.672 3.832 2.016 5.256 1.36 1.408 3.032 2.112 5.016 2.112 2.048 0 3.728-.704 5.04-2.112 1.328-1.424 1.992-3.176 1.992-5.256 0-2.128-.68-3.88-2.04-5.256-1.344-1.408-3.008-2.112-4.992-2.112-2 0-3.672.704-5.016 2.112-1.344 1.392-2.016 3.144-2.016 5.256zm19.885 8.4h-1.248V47.2h1.248v1.512c.448-.496 1.024-.904 1.728-1.224a5.28 5.28 0 012.16-.48c1.504 0 2.632.392 3.384 1.176.752.784 1.128 2 1.128 3.648V58h-1.248v-5.928c0-2.592-1.184-3.888-3.552-3.888-.688 0-1.36.16-2.016.48-.656.304-1.184.696-1.584 1.176V58zm11.971-2.784V41.2h1.248v13.344c0 .848.12 1.464.36 1.848.24.384.64.576 1.2.576.544 0 1.048-.176 1.512-.528l.312.984c-.624.48-1.384.72-2.28.72-1.568 0-2.352-.976-2.352-2.928zM130.932 58h-1.248V47.2h1.248V58zm-1.464-15c0-.24.088-.432.264-.576a.954.954 0 01.623-.216.76.76 0 01.553.24.682.682 0 01.264.552c0 .272-.08.488-.24.648a.74.74 0 01-.577.24.927.927 0 01-.647-.24c-.16-.16-.24-.376-.24-.648zm7.121 15h-1.248V47.2h1.248v1.512c.448-.496 1.024-.904 1.728-1.224a5.28 5.28 0 012.16-.48c1.504 0 2.632.392 3.384 1.176.752.784 1.128 2 1.128 3.648V58h-1.248v-5.928c0-2.592-1.184-3.888-3.552-3.888-.688 0-1.36.16-2.016.48-.656.304-1.184.696-1.584 1.176V58zm20.515-2.28l.408.96c-.976 1.024-2.304 1.536-3.984 1.536-1.728 0-3.112-.512-4.152-1.536-1.056-1.024-1.584-2.384-1.584-4.08 0-1.632.48-2.976 1.44-4.032.976-1.056 2.32-1.584 4.032-1.584 1.392 0 2.56.448 3.504 1.344.928.88 1.392 2.056 1.392 3.528 0 .384-.024.72-.072 1.008h-8.904c.048 1.296.472 2.32 1.272 3.072.8.736 1.848 1.104 3.144 1.104 1.504 0 2.672-.44 3.504-1.32zm-3.96-7.56c-1.152 0-2.088.336-2.808 1.008-.704.672-1.112 1.56-1.224 2.664h7.776c-.016-1.136-.36-2.032-1.032-2.688-.672-.656-1.576-.984-2.712-.984zm9.25 9.84h-1.248V47.2h1.248v1.44c.72-1.088 1.688-1.632 2.904-1.632.752 0 1.312.136 1.68.408l-.432 1.176a2.937 2.937 0 00-1.512-.408c-1.072 0-1.952.584-2.64 1.752V58zm16.767-5.928h-5.496v-1.176h5.496v1.176zm11.759 6.144c-.736 0-1.552-.136-2.448-.408-.848-.256-1.448-.6-1.8-1.032l.648-.96c.416.384.936.688 1.56.912a5.97 5.97 0 001.848.312c1.008 0 1.816-.2 2.424-.6.608-.4.912-.936.912-1.608 0-.56-.224-1-.672-1.32-.448-.32-1.056-.48-1.824-.48h-1.824V52h1.704c.608 0 1.128-.192 1.56-.576.432-.384.648-.848.648-1.392 0-.608-.24-1.072-.72-1.392-.48-.32-1.152-.48-2.016-.48-1.264 0-2.392.4-3.384 1.2l-.504-.96c.912-.944 2.264-1.416 4.056-1.416 1.232 0 2.184.256 2.856.768.688.496 1.032 1.184 1.032 2.064 0 1.264-.648 2.128-1.944 2.592v.048c.736.064 1.312.336 1.728.816.416.464.624 1.04.624 1.728 0 .992-.408 1.776-1.224 2.352-.816.576-1.896.864-3.24.864zM198.912 49l-.336-1.032c1.072-.656 2.216-.984 3.432-.984 1.408 0 2.424.352 3.048 1.056.64.704.96 1.792.96 3.264V58h-1.248v-1.656c-.88 1.2-2.112 1.8-3.696 1.8-1.008 0-1.816-.288-2.424-.864-.608-.592-.912-1.376-.912-2.352 0-1.056.384-1.88 1.152-2.472.752-.592 1.736-.888 2.952-.888s2.192.272 2.928.816c0-1.12-.08-1.976-.24-2.568-.128-.576-.392-.984-.792-1.224-.384-.24-.984-.384-1.8-.432-.976 0-1.984.28-3.024.84zm2.544 7.968c1.344 0 2.448-.568 3.312-1.704v-1.8c-.784-.576-1.72-.864-2.808-.864-.816 0-1.504.2-2.064.6-.56.4-.84.952-.84 1.656 0 .64.224 1.152.672 1.536.448.384 1.024.576 1.728.576zm15.335-9.768h1.608l-5.328 5.16 5.76 5.64h-1.68l-5.592-5.568 5.232-5.232zM210.839 58h-1.248V47.2h1.248V58zm10.713-9l-.336-1.032c1.072-.656 2.216-.984 3.432-.984 1.408 0 2.424.352 3.048 1.056.64.704.96 1.792.96 3.264V58h-1.248v-1.656c-.88 1.2-2.112 1.8-3.696 1.8-1.008 0-1.816-.288-2.424-.864-.608-.592-.912-1.376-.912-2.352 0-1.056.384-1.88 1.152-2.472.752-.592 1.736-.888 2.952-.888s2.192.272 2.928.816c0-1.12-.08-1.976-.24-2.568-.128-.576-.392-.984-.792-1.224-.384-.24-.984-.384-1.8-.432-.976 0-1.984.28-3.024.84zm2.544 7.968c1.344 0 2.448-.568 3.312-1.704v-1.8c-.784-.576-1.72-.864-2.808-.864-.816 0-1.504.2-2.064.6-.56.4-.84.952-.84 1.656 0 .64.224 1.152.672 1.536.448.384 1.024.576 1.728.576zm11.472 1.248c-.736 0-1.552-.136-2.448-.408-.848-.256-1.448-.6-1.8-1.032l.648-.96c.416.384.936.688 1.56.912a5.97 5.97 0 001.848.312c1.008 0 1.816-.2 2.424-.6.608-.4.912-.936.912-1.608 0-.56-.224-1-.672-1.32-.448-.32-1.056-.48-1.824-.48h-1.824V52h1.704c.608 0 1.128-.192 1.56-.576.432-.384.648-.848.648-1.392 0-.608-.24-1.072-.72-1.392-.48-.32-1.152-.48-2.016-.48-1.264 0-2.392.4-3.384 1.2l-.504-.96c.912-.944 2.264-1.416 4.056-1.416 1.232 0 2.184.256 2.856.768.688.496 1.032 1.184 1.032 2.064 0 1.264-.648 2.128-1.944 2.592v.048c.736.064 1.312.336 1.728.816.416.464.624 1.04.624 1.728 0 .992-.408 1.776-1.224 2.352-.816.576-1.896.864-3.24.864zM246.2 58h-2.976V47.2h1.248v3.624h1.872c2.848 0 4.272 1.184 4.272 3.552 0 1.12-.36 2.008-1.08 2.664-.72.64-1.832.96-3.336.96zm-.072-6h-1.656v4.824h1.632c1.136 0 1.952-.2 2.448-.6.496-.4.744-1.008.744-1.824 0-1.6-1.056-2.4-3.168-2.4zm8.208 6h-1.248V47.2h1.248V58zm137.386 101.164l.468.684c-.324.42-.762.744-1.314.972a4.442 4.442 0 01-1.746.342c-1.26 0-2.292-.384-3.096-1.152-.792-.768-1.188-1.788-1.188-3.06 0-1.188.384-2.184 1.152-2.988.78-.816 1.74-1.224 2.88-1.224 1.392 0 2.442.336 3.15 1.008l-.45.756c-.636-.588-1.488-.882-2.556-.882-.864 0-1.614.318-2.25.954-.624.624-.936 1.416-.936 2.376 0 1.008.318 1.818.954 2.43.636.6 1.44.9 2.412.9 1.044 0 1.884-.372 2.52-1.116zm6.718-.288c0-.372-.156-.672-.468-.9a3.454 3.454 0 00-1.116-.54c-.432-.132-.87-.276-1.314-.432a2.858 2.858 0 01-1.134-.774c-.3-.36-.45-.81-.45-1.35 0-.648.24-1.164.72-1.548.48-.396 1.11-.594 1.89-.594 1.116 0 1.962.3 2.538.9l-.396.702c-.552-.516-1.26-.774-2.124-.774-.48 0-.876.126-1.188.378-.3.24-.45.546-.45.918 0 .384.15.702.45.954.312.24.684.432 1.116.576.444.132.888.276 1.332.432.444.156.816.402 1.116.738.312.336.468.762.468 1.278 0 .732-.276 1.302-.828 1.71-.54.408-1.236.612-2.088.612-.528 0-1.08-.12-1.656-.36-.54-.228-.912-.498-1.116-.81l.522-.612c.228.276.57.504 1.026.684.468.18.912.27 1.332.27.528 0 .96-.126 1.296-.378.348-.264.522-.624.522-1.08zm9.216-5.976h.99l-3.654 8.208h-.648l-3.798-8.208h1.098l2.322 5.094c.336.756.582 1.35.738 1.782.204-.576.444-1.188.72-1.836l2.232-5.04zm-21.982-87.65l-.252-.774a4.848 4.848 0 012.574-.738c1.056 0 1.818.264 2.286.792.48.528.72 1.344.72 2.448V72h-.936v-1.242c-.66.9-1.584 1.35-2.772 1.35-.756 0-1.362-.216-1.818-.648-.456-.444-.684-1.032-.684-1.764 0-.792.288-1.41.864-1.854.564-.444 1.302-.666 2.214-.666.912 0 1.644.204 2.196.612 0-.84-.06-1.482-.18-1.926-.096-.432-.294-.738-.594-.918-.288-.18-.738-.288-1.35-.324-.732 0-1.488.21-2.268.63zm1.908 5.976c1.008 0 1.836-.426 2.484-1.278v-1.35c-.588-.432-1.29-.648-2.106-.648-.612 0-1.128.15-1.548.45-.42.3-.63.714-.63 1.242 0 .48.168.864.504 1.152.336.288.768.432 1.296.432zm7.038 4.374h-.936V63.9h.936v1.08c.324-.36.756-.654 1.296-.882.552-.24 1.11-.36 1.674-.36 1.152 0 2.07.378 2.754 1.134.684.756 1.026 1.74 1.026 2.952 0 1.26-.384 2.298-1.152 3.114-.78.816-1.782 1.224-3.006 1.224-1.092 0-1.956-.228-2.592-.684V75.6zm2.718-10.98c-.528 0-1.044.12-1.548.36-.492.24-.882.54-1.17.9v4.662c.744.492 1.584.738 2.52.738.96 0 1.74-.318 2.34-.954.6-.636.9-1.452.9-2.448s-.27-1.788-.81-2.376c-.54-.588-1.284-.882-2.232-.882zm7.699 7.38h-.936v-8.1h.936V72zm-1.098-11.25a.53.53 0 01.198-.432.716.716 0 01.468-.162.57.57 0 01.414.18.511.511 0 01.198.414c0 .204-.06.366-.18.486a.553.553 0 01-.432.18.696.696 0 01-.486-.18.657.657 0 01-.18-.486zm11.992 6.804h-4.122v-.882h4.122v.882zm8.819 4.608c-.552 0-1.164-.102-1.836-.306-.636-.192-1.086-.45-1.35-.774l.486-.72c.312.288.702.516 1.17.684.48.156.942.234 1.386.234.756 0 1.362-.15 1.818-.45.456-.3.684-.702.684-1.206 0-.42-.168-.75-.504-.99-.336-.24-.792-.36-1.368-.36h-1.368V67.5h1.278a1.7 1.7 0 001.17-.432c.324-.288.486-.636.486-1.044 0-.456-.18-.804-.54-1.044-.36-.24-.864-.36-1.512-.36-.948 0-1.794.3-2.538.9l-.378-.72c.684-.708 1.698-1.062 3.042-1.062.924 0 1.638.192 2.142.576.516.372.774.888.774 1.548 0 .948-.486 1.596-1.458 1.944v.036c.552.048.984.252 1.296.612.312.348.468.78.468 1.296 0 .744-.306 1.332-.918 1.764-.612.432-1.422.648-2.43.648zm5.994-6.912l-.252-.774a4.848 4.848 0 012.574-.738c1.056 0 1.818.264 2.286.792.48.528.72 1.344.72 2.448V72h-.936v-1.242c-.66.9-1.584 1.35-2.772 1.35-.756 0-1.362-.216-1.818-.648-.456-.444-.684-1.032-.684-1.764 0-.792.288-1.41.864-1.854.564-.444 1.302-.666 2.214-.666.912 0 1.644.204 2.196.612 0-.84-.06-1.482-.18-1.926-.096-.432-.294-.738-.594-.918-.288-.18-.738-.288-1.35-.324-.732 0-1.488.21-2.268.63zm1.908 5.976c1.008 0 1.836-.426 2.484-1.278v-1.35c-.588-.432-1.29-.648-2.106-.648-.612 0-1.128.15-1.548.45-.42.3-.63.714-.63 1.242 0 .48.168.864.504 1.152.336.288.768.432 1.296.432zm11.502-7.326h1.206l-3.996 3.87 4.32 4.23h-1.26l-4.194-4.176 3.924-3.924zM439.69 72h-.936v-8.1h.936V72zm8.035-6.75l-.252-.774a4.848 4.848 0 012.574-.738c1.056 0 1.818.264 2.286.792.48.528.72 1.344.72 2.448V72h-.936v-1.242c-.66.9-1.584 1.35-2.772 1.35-.756 0-1.362-.216-1.818-.648-.456-.444-.684-1.032-.684-1.764 0-.792.288-1.41.864-1.854.564-.444 1.302-.666 2.214-.666.912 0 1.644.204 2.196.612 0-.84-.06-1.482-.18-1.926-.096-.432-.294-.738-.594-.918-.288-.18-.738-.288-1.35-.324-.732 0-1.488.21-2.268.63zm1.908 5.976c1.008 0 1.836-.426 2.484-1.278v-1.35c-.588-.432-1.29-.648-2.106-.648-.612 0-1.128.15-1.548.45-.42.3-.63.714-.63 1.242 0 .48.168.864.504 1.152.336.288.768.432 1.296.432zm8.604.936c-.552 0-1.164-.102-1.836-.306-.636-.192-1.086-.45-1.35-.774l.486-.72c.312.288.702.516 1.17.684.48.156.942.234 1.386.234.756 0 1.362-.15 1.818-.45.456-.3.684-.702.684-1.206 0-.42-.168-.75-.504-.99-.336-.24-.792-.36-1.368-.36h-1.368V67.5h1.278a1.7 1.7 0 001.17-.432c.324-.288.486-.636.486-1.044 0-.456-.18-.804-.54-1.044-.36-.24-.864-.36-1.512-.36-.948 0-1.794.3-2.538.9l-.378-.72c.684-.708 1.698-1.062 3.042-1.062.924 0 1.638.192 2.142.576.516.372.774.888.774 1.548 0 .948-.486 1.596-1.458 1.944v.036c.552.048.984.252 1.296.612.312.348.468.78.468 1.296 0 .744-.306 1.332-.918 1.764-.612.432-1.422.648-2.43.648zm7.974-.162h-2.232v-8.1h.936v2.718h1.404c2.136 0 3.204.888 3.204 2.664 0 .84-.27 1.506-.81 1.998-.54.48-1.374.72-2.502.72zm-.054-4.5h-1.242v3.618h1.224c.852 0 1.464-.15 1.836-.45.372-.3.558-.756.558-1.368 0-1.2-.792-1.8-2.376-1.8zm6.156 4.5h-.936v-8.1h.936V72zm-86.639-59.75l-.252-.774a4.848 4.848 0 012.574-.738c1.056 0 1.818.264 2.286.792.48.528.72 1.344.72 2.448V19h-.936v-1.242c-.66.9-1.584 1.35-2.772 1.35-.756 0-1.362-.216-1.818-.648-.456-.444-.684-1.032-.684-1.764 0-.792.288-1.41.864-1.854.564-.444 1.302-.666 2.214-.666.912 0 1.644.204 2.196.612 0-.84-.06-1.482-.18-1.926-.096-.432-.294-.738-.594-.918-.288-.18-.738-.288-1.35-.324-.732 0-1.488.21-2.268.63zm1.908 5.976c1.008 0 1.836-.426 2.484-1.278v-1.35c-.588-.432-1.29-.648-2.106-.648-.612 0-1.128.15-1.548.45-.42.3-.63.714-.63 1.242 0 .48.168.864.504 1.152.336.288.768.432 1.296.432zm7.038 4.374h-.936V10.9h.936v1.08c.324-.36.756-.654 1.296-.882.552-.24 1.11-.36 1.674-.36 1.152 0 2.07.378 2.754 1.134.684.756 1.026 1.74 1.026 2.952 0 1.26-.384 2.298-1.152 3.114-.78.816-1.782 1.224-3.006 1.224-1.092 0-1.956-.228-2.592-.684V22.6zm2.718-10.98c-.528 0-1.044.12-1.548.36-.492.24-.882.54-1.17.9v4.662c.744.492 1.584.738 2.52.738.96 0 1.74-.318 2.34-.954.6-.636.9-1.452.9-2.448s-.27-1.788-.81-2.376c-.54-.588-1.284-.882-2.232-.882zm7.699 7.38h-.936v-8.1h.936V19zm-1.098-11.25a.53.53 0 01.198-.432.716.716 0 01.468-.162.57.57 0 01.414.18.511.511 0 01.198.414c0 .204-.06.366-.18.486a.553.553 0 01-.432.18.696.696 0 01-.486-.18.657.657 0 01-.18-.486zm11.992 6.804h-4.122v-.882h4.122v.882zm12.617 2.61l.468.684c-.324.42-.762.744-1.314.972a4.442 4.442 0 01-1.746.342c-1.26 0-2.292-.384-3.096-1.152-.792-.768-1.188-1.788-1.188-3.06 0-1.188.384-2.184 1.152-2.988.78-.816 1.74-1.224 2.88-1.224 1.392 0 2.442.336 3.15 1.008l-.45.756c-.636-.588-1.488-.882-2.556-.882-.864 0-1.614.318-2.25.954-.624.624-.936 1.416-.936 2.376 0 1.008.318 1.818.954 2.43.636.6 1.44.9 2.412.9 1.044 0 1.884-.372 2.52-1.116zm4.488-5.328h-3.222V10.9h7.38v.936h-3.222V19h-.936v-7.164zm6.058.414l-.252-.774a4.848 4.848 0 012.574-.738c1.056 0 1.818.264 2.286.792.48.528.72 1.344.72 2.448V19h-.936v-1.242c-.66.9-1.584 1.35-2.772 1.35-.756 0-1.362-.216-1.818-.648-.456-.444-.684-1.032-.684-1.764 0-.792.288-1.41.864-1.854.564-.444 1.302-.666 2.214-.666.912 0 1.644.204 2.196.612 0-.84-.06-1.482-.18-1.926-.096-.432-.294-.738-.594-.918-.288-.18-.738-.288-1.35-.324-.732 0-1.488.21-2.268.63zm1.908 5.976c1.008 0 1.836-.426 2.484-1.278v-1.35c-.588-.432-1.29-.648-2.106-.648-.612 0-1.128.15-1.548.45-.42.3-.63.714-.63 1.242 0 .48.168.864.504 1.152.336.288.768.432 1.296.432zm8.136-6.39h-3.222V10.9h7.38v.936h-3.222V19h-.936v-7.164zm12.026-.936h1.062L458.95 19c-.588 1.428-1.098 2.376-1.53 2.844-.432.504-.936.756-1.512.756-.444 0-.906-.138-1.386-.414l.306-.72c.372.18.69.27.954.27.408 0 .774-.18 1.098-.54.324-.348.66-.936 1.008-1.764l.18-.432-3.996-8.1h1.116l2.772 5.724.576 1.26c.012-.048.162-.48.45-1.296l2.178-5.688zm8.728 6.264l.468.684c-.324.42-.762.744-1.314.972a4.442 4.442 0 01-1.746.342c-1.26 0-2.292-.384-3.096-1.152-.792-.768-1.188-1.788-1.188-3.06 0-1.188.384-2.184 1.152-2.988.78-.816 1.74-1.224 2.88-1.224 1.392 0 2.442.336 3.15 1.008l-.45.756c-.636-.588-1.488-.882-2.556-.882-.864 0-1.614.318-2.25.954-.624.624-.936 1.416-.936 2.376 0 1.008.318 1.818.954 2.43.636.6 1.44.9 2.412.9 1.044 0 1.884-.372 2.52-1.116zM474.648 19h-2.232v-8.1h.936v2.718h1.404c2.136 0 3.204.888 3.204 2.664 0 .84-.27 1.506-.81 1.998-.54.48-1.374.72-2.502.72zm-.054-4.5h-1.242v3.618h1.224c.852 0 1.464-.15 1.836-.45.372-.3.558-.756.558-1.368 0-1.2-.792-1.8-2.376-1.8zm6.156 4.5h-.936v-8.1h.936V19zm348.866 37.876c0-.372-.156-.672-.468-.9a3.454 3.454 0 00-1.116-.54c-.432-.132-.87-.276-1.314-.432a2.858 2.858 0 01-1.134-.774c-.3-.36-.45-.81-.45-1.35 0-.648.24-1.164.72-1.548.48-.396 1.11-.594 1.89-.594 1.116 0 1.962.3 2.538.9l-.396.702c-.552-.516-1.26-.774-2.124-.774-.48 0-.876.126-1.188.378-.3.24-.45.546-.45.918 0 .384.15.702.45.954.312.24.684.432 1.116.576.444.132.888.276 1.332.432.444.156.816.402 1.116.738.312.336.468.762.468 1.278 0 .732-.276 1.302-.828 1.71-.54.408-1.236.612-2.088.612-.528 0-1.08-.12-1.656-.36-.54-.228-.912-.498-1.116-.81l.522-.612c.228.276.57.504 1.026.684.468.18.912.27 1.332.27.528 0 .96-.126 1.296-.378.348-.264.522-.624.522-1.08zm7.001 2.286c-1.248 0-2.268-.396-3.06-1.188-.792-.792-1.188-1.8-1.188-3.024s.396-2.232 1.188-3.024c.792-.792 1.812-1.188 3.06-1.188s2.268.396 3.06 1.188c.792.792 1.188 1.8 1.188 3.024s-.396 2.232-1.188 3.024c-.792.792-1.812 1.188-3.06 1.188zm0-.882c.972 0 1.752-.306 2.34-.918.612-.624.918-1.428.918-2.412 0-.972-.306-1.77-.918-2.394-.612-.624-1.392-.936-2.34-.936-.936 0-1.716.312-2.34.936-.612.624-.918 1.422-.918 2.394 0 .972.306 1.77.918 2.394.612.624 1.392.936 2.34.936zm6.793-6.03l-.252-.774a4.848 4.848 0 012.574-.738c1.056 0 1.818.264 2.286.792.48.528.72 1.344.72 2.448V59h-.936v-1.242c-.66.9-1.584 1.35-2.772 1.35-.756 0-1.362-.216-1.818-.648-.456-.444-.684-1.032-.684-1.764 0-.792.288-1.41.864-1.854.564-.444 1.302-.666 2.214-.666.912 0 1.644.204 2.196.612 0-.84-.06-1.482-.18-1.926-.096-.432-.294-.738-.594-.918-.288-.18-.738-.288-1.35-.324-.732 0-1.488.21-2.268.63zm1.908 5.976c1.008 0 1.836-.426 2.484-1.278v-1.35c-.588-.432-1.29-.648-2.106-.648-.612 0-1.128.15-1.548.45-.42.3-.63.714-.63 1.242 0 .48.168.864.504 1.152.336.288.768.432 1.296.432zm7.038 4.374h-.936V50.9h.936v1.08c.324-.36.756-.654 1.296-.882.552-.24 1.11-.36 1.674-.36 1.152 0 2.07.378 2.754 1.134.684.756 1.026 1.74 1.026 2.952 0 1.26-.384 2.298-1.152 3.114-.78.816-1.782 1.224-3.006 1.224-1.092 0-1.956-.228-2.592-.684V62.6zm2.718-10.98c-.528 0-1.044.12-1.548.36-.492.24-.882.54-1.17.9v4.662c.744.492 1.584.738 2.52.738.96 0 1.74-.318 2.34-.954.6-.636.9-1.452.9-2.448s-.27-1.788-.81-2.376c-.54-.588-1.284-.882-2.232-.882z" fill="#141414"/><rect x="909" y="128" width="297" height="89" rx="8" fill="#F6F4F2"/><path d="M972.367 182.216h-1.248v-4.464h1.8c.544-.704 1.12-2.072 1.728-4.104.624-2.128 1.016-4.824 1.176-8.088l.168-3.36h9.456v15.552h2.28v4.464h-1.248V179h-14.112v3.216zm4.896-18.768l-.192 3.072c-.208 3.04-.592 5.536-1.152 7.488-.544 1.92-1.056 3.168-1.536 3.744h9.744v-14.304h-6.864zm21.115 13.272l.408.96c-.976 1.024-2.304 1.536-3.984 1.536-1.728 0-3.112-.512-4.152-1.536-1.056-1.024-1.584-2.384-1.584-4.08 0-1.632.48-2.976 1.44-4.032.976-1.056 2.32-1.584 4.032-1.584 1.392 0 2.56.448 3.504 1.344.928.88 1.392 2.056 1.392 3.528 0 .384-.024.72-.072 1.008h-8.904c.048 1.296.472 2.32 1.272 3.072.8.736 1.848 1.104 3.144 1.104 1.504 0 2.672-.44 3.504-1.32zm-3.96-7.56c-1.152 0-2.088.336-2.808 1.008-.704.672-1.112 1.56-1.224 2.664h7.776c-.016-1.136-.36-2.032-1.032-2.688-.672-.656-1.576-.984-2.712-.984zm16.212 7.392l.63.912c-.44.56-1.02.992-1.76 1.296a5.89 5.89 0 01-2.32.456c-1.68 0-3.06-.512-4.13-1.536-1.06-1.024-1.59-2.384-1.59-4.08 0-1.584.52-2.912 1.54-3.984 1.04-1.088 2.32-1.632 3.84-1.632 1.86 0 3.26.448 4.2 1.344l-.6 1.008c-.85-.784-1.98-1.176-3.41-1.176-1.15 0-2.15.424-3 1.272-.83.832-1.25 1.888-1.25 3.168 0 1.344.43 2.424 1.28 3.24.84.8 1.92 1.2 3.21 1.2 1.39 0 2.51-.496 3.36-1.488zm10.57-8.352h1.61l-5.33 5.16 5.76 5.64h-1.68l-5.59-5.568 5.23-5.232zm-5.95 10.8H1014v-10.8h1.25V179zm13.08-9.552h-4.29V168.2h9.84v1.248h-4.3V179h-1.25v-9.552zm12.27 9.768c-1.67 0-3.03-.528-4.08-1.584-1.06-1.056-1.59-2.4-1.59-4.032 0-1.632.53-2.976 1.59-4.032 1.05-1.056 2.41-1.584 4.08-1.584 1.66 0 3.02.528 4.08 1.584 1.05 1.056 1.58 2.4 1.58 4.032 0 1.632-.53 2.976-1.58 4.032-1.06 1.056-2.42 1.584-4.08 1.584zm0-1.176c1.29 0 2.33-.408 3.12-1.224.81-.832 1.22-1.904 1.22-3.216 0-1.296-.41-2.36-1.22-3.192-.82-.832-1.86-1.248-3.12-1.248-1.25 0-2.29.416-3.12 1.248-.82.832-1.23 1.896-1.23 3.192 0 1.296.41 2.36 1.23 3.192.81.832 1.85 1.248 3.12 1.248zm18.1.96h-1.25v-9.624h-6.88V179h-1.25v-10.8h9.38V179zm9.43-5.928h-5.5v-1.176h5.5v1.176zm3.95 5.928v-10.8c.52 0 1.04-.008 1.53-.024 1.03-.032 1.67-.048 1.95-.048 2.97 0 4.46.928 4.46 2.784 0 .624-.2 1.168-.6 1.632-.38.448-.91.728-1.58.84v.048c1.72.256 2.59 1.12 2.59 2.592 0 2.032-1.61 3.048-4.83 3.048-.2 0-.84-.016-1.89-.048-.53-.016-1.07-.024-1.63-.024zm3.84-4.968h-2.6v3.816c1.25.032 2.06.048 2.43.048 2.24 0 3.36-.664 3.36-1.992 0-1.248-1.07-1.872-3.19-1.872zm-.22-4.728c-.53 0-1.32.016-2.38.048V173h2.86c.78 0 1.4-.168 1.85-.504.45-.352.67-.816.67-1.392 0-1.2-1-1.8-3-1.8zm16.47 7.416l.41.96c-.97 1.024-2.3 1.536-3.98 1.536-1.73 0-3.11-.512-4.15-1.536-1.06-1.024-1.59-2.384-1.59-4.08 0-1.632.48-2.976 1.44-4.032.98-1.056 2.32-1.584 4.03-1.584 1.4 0 2.56.448 3.51 1.344.93.88 1.39 2.056 1.39 3.528 0 .384-.02.72-.07 1.008h-8.91c.05 1.296.48 2.32 1.28 3.072.8.736 1.84 1.104 3.14 1.104 1.5 0 2.67-.44 3.5-1.32zm-3.96-7.56c-1.15 0-2.08.336-2.8 1.008-.71.672-1.12 1.56-1.23 2.664h7.78c-.02-1.136-.36-2.032-1.03-2.688-.68-.656-1.58-.984-2.72-.984zm9.25 14.64h-1.24v-15.6h1.24v1.44c.44-.48 1.01-.872 1.73-1.176.74-.32 1.48-.48 2.23-.48 1.54 0 2.76.504 3.68 1.512.91 1.008 1.36 2.32 1.36 3.936 0 1.68-.51 3.064-1.53 4.152-1.04 1.088-2.38 1.632-4.01 1.632-1.46 0-2.61-.304-3.46-.912v5.496zm3.63-14.64c-.71 0-1.39.16-2.07.48-.65.32-1.17.72-1.56 1.2v6.216c1 .656 2.12.984 3.36.984 1.28 0 2.32-.424 3.12-1.272.8-.848 1.2-1.936 1.2-3.264 0-1.328-.36-2.384-1.08-3.168-.72-.784-1.71-1.176-2.97-1.176zm16.82 7.392l.62.912c-.43.56-1.02.992-1.75 1.296a5.94 5.94 0 01-2.33.456c-1.68 0-3.06-.512-4.13-1.536-1.05-1.024-1.58-2.384-1.58-4.08 0-1.584.51-2.912 1.53-3.984 1.04-1.088 2.32-1.632 3.84-1.632 1.86 0 3.26.448 4.2 1.344l-.6 1.008c-.84-.784-1.98-1.176-3.4-1.176-1.16 0-2.16.424-3 1.272-.84.832-1.25 1.888-1.25 3.168 0 1.344.42 2.424 1.27 3.24.85.8 1.92 1.2 3.22 1.2 1.39 0 2.51-.496 3.36-1.488zm11.81-6.552l-7.2 9h-1.25v-10.8h1.25v9l7.2-9h1.25V179h-1.25v-9zm9.47-1.8h3.21V179h-1.24v-4.032h-2.69l-3.1 4.032h-1.53l3.4-4.32c-.72-.112-1.33-.448-1.84-1.008-.5-.576-.75-1.264-.75-2.064 0-1.04.38-1.864 1.13-2.472.75-.624 1.89-.936 3.41-.936zm-3.22 3.432c0 .64.25 1.16.75 1.56.49.4 1.02.6 1.58.6h2.86v-4.416h-2.19c-.99 0-1.74.208-2.25.624-.5.4-.75.944-.75 1.632z" fill="#141414"/><rect x="909" y="17" width="298" height="89" rx="8" fill="#F6F4F2"/><path d="M970.678 55.112l-.672-1.008 3.816-3.048h.864V68h-1.248V52.88l-2.76 2.232zm21.577 10.272l.528.984c-.576.576-1.336 1.032-2.28 1.368-.928.32-1.904.48-2.928.48-2.496 0-4.528-.784-6.096-2.352-1.552-1.552-2.328-3.64-2.328-6.264 0-2.48.752-4.528 2.256-6.144 1.504-1.648 3.496-2.472 5.976-2.472 2.128 0 3.824.528 5.088 1.584l-.624.984c-1.136-.88-2.616-1.32-4.44-1.32-2.048 0-3.704.696-4.968 2.088-1.264 1.36-1.896 3.12-1.896 5.28 0 2.192.656 3.968 1.968 5.328 1.312 1.36 3.032 2.04 5.16 2.04 1.76 0 3.288-.528 4.584-1.584zm8.485-3.312h-5.493v-1.176h5.493v1.176zM1018.51 68h-1.32V52.448h-10.41V68h-1.32V51.2h13.05V68zm5.8 4.8h-1.25V57.2h1.25v1.44c.43-.48 1.01-.872 1.73-1.176.74-.32 1.48-.48 2.23-.48 1.54 0 2.76.504 3.67 1.512.92 1.008 1.37 2.32 1.37 3.936 0 1.68-.51 3.064-1.53 4.152-1.04 1.088-2.38 1.632-4.01 1.632-1.46 0-2.61-.304-3.46-.912V72.8zm3.63-14.64c-.71 0-1.4.16-2.07.48-.65.32-1.17.72-1.56 1.2v6.216c.99.656 2.11.984 3.36.984 1.28 0 2.32-.424 3.12-1.272.8-.848 1.2-1.936 1.2-3.264 0-1.328-.36-2.384-1.08-3.168-.72-.784-1.71-1.176-2.97-1.176zm16.96 7.56l.41.96c-.98 1.024-2.31 1.536-3.99 1.536-1.73 0-3.11-.512-4.15-1.536-1.06-1.024-1.58-2.384-1.58-4.08 0-1.632.48-2.976 1.44-4.032.97-1.056 2.32-1.584 4.03-1.584 1.39 0 2.56.448 3.5 1.344.93.88 1.39 2.056 1.39 3.528 0 .384-.02.72-.07 1.008h-8.9c.05 1.296.47 2.32 1.27 3.072.8.736 1.85 1.104 3.14 1.104 1.51 0 2.68-.44 3.51-1.32zm-3.96-7.56c-1.15 0-2.09.336-2.81 1.008-.7.672-1.11 1.56-1.22 2.664h7.77c-.01-1.136-.36-2.032-1.03-2.688-.67-.656-1.58-.984-2.71-.984zm7.05 12.576h-1.18v-3.912h1.35c.41-.528.78-1.384 1.1-2.568.34-1.184.55-2.52.65-4.008l.17-3.048h6.89v9.624h1.8v3.912h-1.18V68h-9.6v2.736zm3.26-12.36l-.14 2.352c-.13 1.472-.35 2.752-.67 3.84-.31 1.056-.63 1.808-.96 2.256h6.24v-8.448h-4.47zM1070.46 68h-1.24v-9.624h-6.89V68h-1.25V57.2h9.38V68zm5.04 4.8h-1.25V57.2h1.25v1.44c.43-.48 1.01-.872 1.73-1.176.73-.32 1.48-.48 2.23-.48 1.54 0 2.76.504 3.67 1.512.91 1.008 1.37 2.32 1.37 3.936 0 1.68-.51 3.064-1.54 4.152-1.04 1.088-2.37 1.632-4 1.632-1.46 0-2.61-.304-3.46-.912V72.8zm3.62-14.64c-.7 0-1.39.16-2.06.48-.66.32-1.18.72-1.56 1.2v6.216c.99.656 2.11.984 3.36.984 1.28 0 2.32-.424 3.12-1.272.8-.848 1.2-1.936 1.2-3.264 0-1.328-.36-2.384-1.08-3.168-.72-.784-1.71-1.176-2.98-1.176zm16.87.84l-7.2 9h-1.25V57.2h1.25v9l7.2-9h1.25V68h-1.25v-9zm9.47-1.8h3.21V68h-1.24v-4.032h-2.69l-3.1 4.032h-1.53l3.4-4.32c-.72-.112-1.33-.448-1.84-1.008-.5-.576-.75-1.264-.75-2.064 0-1.04.38-1.864 1.13-2.472.75-.624 1.89-.936 3.41-.936zm-3.22 3.432c0 .64.25 1.16.75 1.56.49.4 1.02.6 1.58.6h2.86v-4.416h-2.19c-.99 0-1.74.208-2.25.624-.5.4-.75.944-.75 1.632zm12.93-2.184h-4.3V57.2h9.84v1.248h-4.3V68h-1.24v-9.552zm16.19.552l-7.2 9h-1.25V57.2h1.25v9l7.2-9h1.24V68h-1.24v-9zm13.57 6.72l.41.96c-.98 1.024-2.31 1.536-3.99 1.536-1.73 0-3.11-.512-4.15-1.536-1.06-1.024-1.58-2.384-1.58-4.08 0-1.632.48-2.976 1.44-4.032.97-1.056 2.32-1.584 4.03-1.584 1.39 0 2.56.448 3.5 1.344.93.88 1.39 2.056 1.39 3.528 0 .384-.02.72-.07 1.008h-8.9c.05 1.296.47 2.32 1.27 3.072.8.736 1.85 1.104 3.14 1.104 1.51 0 2.68-.44 3.51-1.32zm-3.96-7.56c-1.15 0-2.09.336-2.81 1.008-.7.672-1.11 1.56-1.22 2.664h7.77c-.01-1.136-.36-2.032-1.03-2.688-.67-.656-1.58-.984-2.71-.984z" fill="#141414"/><rect x="909" y="239" width="297" height="89" rx="8" fill="#F6F4F2"/><path d="M961.359 290h-1.32v-16.8h1.344l6.768 9.216 6.504-9.216h1.272V290h-1.32v-14.736l-6.456 9.072h-.216l-6.576-9V290zm24.019.216c-1.664 0-3.024-.528-4.08-1.584s-1.584-2.4-1.584-4.032c0-1.632.528-2.976 1.584-4.032s2.416-1.584 4.08-1.584c1.664 0 3.024.528 4.08 1.584s1.584 2.4 1.584 4.032c0 1.632-.528 2.976-1.584 4.032s-2.416 1.584-4.08 1.584zm0-1.176c1.296 0 2.336-.408 3.12-1.224.816-.832 1.224-1.904 1.224-3.216 0-1.296-.408-2.36-1.224-3.192-.816-.832-1.856-1.248-3.12-1.248-1.248 0-2.288.416-3.12 1.248-.816.832-1.224 1.896-1.224 3.192 0 1.296.408 2.36 1.224 3.192.816.832 1.856 1.248 3.12 1.248zm17.262-16.08l.7.936c-.37.528-.82.888-1.34 1.08-.66.192-1.36.344-2.093.456a8.055 8.055 0 00-2.256.624c-1.84.784-2.872 2.832-3.096 6.144h.048c.368-.88.984-1.584 1.848-2.112a5.172 5.172 0 012.808-.816c1.571 0 2.821.496 3.741 1.488.93.976 1.4 2.288 1.4 3.936 0 1.52-.52 2.824-1.56 3.912-1.03 1.072-2.33 1.608-3.917 1.608-1.696 0-3.064-.592-4.104-1.776-1.008-1.184-1.512-2.808-1.512-4.872 0-4.736 1.32-7.64 3.96-8.712a10.114 10.114 0 012.232-.6c.961-.16 1.651-.312 2.061-.456.42-.16.78-.44 1.08-.84zm-8.013 10.824c0 1.616.392 2.896 1.176 3.84.784.944 1.808 1.416 3.072 1.416 1.215 0 2.215-.416 3.005-1.248.8-.848 1.2-1.864 1.2-3.048 0-1.296-.37-2.336-1.11-3.12-.73-.784-1.73-1.176-2.999-1.176-1.136 0-2.104.336-2.904 1.008-.768.672-1.248 1.448-1.44 2.328zM1015.86 281l-7.2 9h-1.25v-10.8h1.25v9l7.2-9h1.25V290h-1.25v-9zm13.88 9h-1.24v-9.552h-4.56l-.15 2.352c-.21 3.04-.71 5.056-1.51 6.048-.64.832-1.43 1.248-2.38 1.248l-.09-1.224c.41 0 .81-.192 1.17-.576.88-.816 1.42-2.728 1.61-5.736l.17-3.36h6.98V290zm6.97 0h-3.17v-10.8h1.25v3.624h2.09c2.85 0 4.27 1.184 4.27 3.552 0 1.12-.37 2.008-1.1 2.664-.72.64-1.83.96-3.34.96zm-.05-6h-1.87v4.824h1.85c1.12 0 1.93-.2 2.42-.6.52-.4.77-1.008.77-1.824 0-1.6-1.05-2.4-3.17-2.4zm16.87 6h-1.25v-4.896h-7.01V290h-1.25v-10.8h1.25v4.728h7.01V279.2h1.25V290zm4.12-9l-.34-1.032a6.468 6.468 0 013.43-.984c1.41 0 2.43.352 3.05 1.056.64.704.96 1.792.96 3.264V290h-1.25v-1.656c-.88 1.2-2.11 1.8-3.69 1.8-1.01 0-1.82-.288-2.43-.864-.61-.592-.91-1.376-.91-2.352 0-1.056.38-1.88 1.15-2.472.75-.592 1.74-.888 2.95-.888 1.22 0 2.2.272 2.93.816 0-1.12-.08-1.976-.24-2.568-.13-.576-.39-.984-.79-1.224-.38-.24-.98-.384-1.8-.432-.98 0-1.98.28-3.02.84zm2.54 7.968c1.34 0 2.45-.568 3.31-1.704v-1.8c-.78-.576-1.72-.864-2.81-.864-.81 0-1.5.2-2.06.6-.56.4-.84.952-.84 1.656 0 .64.22 1.152.67 1.536.45.384 1.03.576 1.73.576zm12.58-9.768h3.21V290h-1.25v-4.032h-2.68l-3.1 4.032h-1.54l3.41-4.32c-.72-.112-1.33-.448-1.85-1.008-.49-.576-.74-1.264-.74-2.064 0-1.04.38-1.864 1.13-2.472.75-.624 1.89-.936 3.41-.936zm-3.22 3.432c0 .64.25 1.16.74 1.56.5.4 1.03.6 1.59.6h2.85v-4.416h-2.18c-.99 0-1.74.208-2.26.624-.49.4-.74.944-.74 1.632zm15.86 7.368v-10.8c.53 0 1.04-.008 1.54-.024a85.55 85.55 0 011.94-.048c2.98 0 4.47.928 4.47 2.784 0 .624-.2 1.168-.6 1.632-.39.448-.92.728-1.59.84v.048c1.73.256 2.59 1.12 2.59 2.592 0 2.032-1.6 3.048-4.82 3.048-.21 0-.84-.016-1.9-.048a53.39 53.39 0 00-1.63-.024zm3.84-4.968h-2.59v3.816c1.25.032 2.06.048 2.42.048 2.24 0 3.36-.664 3.36-1.992 0-1.248-1.06-1.872-3.19-1.872zm-.21-4.728c-.53 0-1.32.016-2.38.048V284h2.86c.78 0 1.4-.168 1.84-.504.45-.352.68-.816.68-1.392 0-1.2-1-1.8-3-1.8zm16.47 7.416l.41.96c-.98 1.024-2.31 1.536-3.99 1.536-1.72 0-3.11-.512-4.15-1.536-1.05-1.024-1.58-2.384-1.58-4.08 0-1.632.48-2.976 1.44-4.032.97-1.056 2.32-1.584 4.03-1.584 1.39 0 2.56.448 3.5 1.344.93.88 1.4 2.056 1.4 3.528 0 .384-.03.72-.08 1.008h-8.9c.05 1.296.47 2.32 1.27 3.072.8.736 1.85 1.104 3.15 1.104 1.5 0 2.67-.44 3.5-1.32zm-3.96-7.56c-1.15 0-2.09.336-2.81 1.008-.7.672-1.11 1.56-1.22 2.664h7.77c-.01-1.136-.36-2.032-1.03-2.688-.67-.656-1.57-.984-2.71-.984zm9.25 14.64h-1.25v-15.6h1.25v1.44c.43-.48 1.01-.872 1.73-1.176.73-.32 1.48-.48 2.23-.48 1.54 0 2.76.504 3.67 1.512.91 1.008 1.37 2.32 1.37 3.936 0 1.68-.51 3.064-1.54 4.152-1.04 1.088-2.37 1.632-4 1.632-1.46 0-2.61-.304-3.46-.912v5.496zm3.62-14.64c-.7 0-1.39.16-2.06.48-.66.32-1.18.72-1.56 1.2v6.216c.99.656 2.11.984 3.36.984 1.28 0 2.32-.424 3.12-1.272.8-.848 1.2-1.936 1.2-3.264 0-1.328-.36-2.384-1.08-3.168-.72-.784-1.71-1.176-2.98-1.176zm16.82 7.392l.63.912c-.44.56-1.02.992-1.76 1.296a5.89 5.89 0 01-2.32.456c-1.68 0-3.06-.512-4.13-1.536-1.06-1.024-1.59-2.384-1.59-4.08 0-1.584.52-2.912 1.54-3.984 1.04-1.088 2.32-1.632 3.84-1.632 1.86 0 3.26.448 4.2 1.344l-.6 1.008c-.85-.784-1.98-1.176-3.41-1.176-1.15 0-2.15.424-3 1.272-.83.832-1.25 1.888-1.25 3.168 0 1.344.43 2.424 1.28 3.24.84.8 1.92 1.2 3.21 1.2 1.39 0 2.51-.496 3.36-1.488zm11.81-6.552l-7.2 9h-1.24v-10.8h1.24v9l7.2-9h1.25V290h-1.25v-9zm9.47-1.8h3.22V290h-1.25v-4.032h-2.69l-3.09 4.032h-1.54l3.41-4.32a3.088 3.088 0 01-1.85-1.008c-.49-.576-.74-1.264-.74-2.064 0-1.04.37-1.864 1.13-2.472.75-.624 1.88-.936 3.4-.936zm-3.21 3.432c0 .64.25 1.16.74 1.56.5.4 1.03.6 1.59.6h2.85v-4.416h-2.18c-.99 0-1.75.208-2.26.624-.49.4-.74.944-.74 1.632z" fill="#141414"/><rect x="561" y="239" width="144" height="89" rx="8" fill="#F6F4F2"/><path d="M619.709 285.824c0-.736-.216-1.368-.648-1.896a4.133 4.133 0 00-1.608-1.2l-2.088-.888a53.319 53.319 0 01-2.088-.984 4.253 4.253 0 01-1.608-1.416c-.432-.64-.648-1.392-.648-2.256 0-1.216.44-2.216 1.32-3 .896-.8 2.096-1.2 3.6-1.2 1.968 0 3.472.568 4.512 1.704l-.72.984c-.96-.96-2.208-1.44-3.744-1.44-1.104 0-1.976.272-2.616.816-.64.528-.96 1.24-.96 2.136 0 .72.216 1.344.648 1.872.432.512.968.896 1.608 1.152.64.256 1.336.544 2.088.864.752.304 1.448.616 2.088.936.64.32 1.176.808 1.608 1.464.432.64.648 1.416.648 2.328 0 1.312-.512 2.376-1.536 3.192-1.024.816-2.296 1.224-3.816 1.224a7.733 7.733 0 01-3.072-.648c-.992-.464-1.688-1.056-2.088-1.776l.792-.912c.48.624 1.12 1.128 1.92 1.512.8.384 1.608.576 2.424.576 1.088 0 2.024-.28 2.808-.84.784-.544 1.176-1.312 1.176-2.304zm6.67 4.176h-1.32v-16.8h1.344l6.768 9.216 6.504-9.216h1.272V290h-1.32v-14.736l-6.456 9.072h-.216l-6.576-9V290zm27.642-4.176c0-.736-.216-1.368-.648-1.896a4.133 4.133 0 00-1.608-1.2l-2.088-.888a53.319 53.319 0 01-2.088-.984 4.253 4.253 0 01-1.608-1.416c-.432-.64-.648-1.392-.648-2.256 0-1.216.44-2.216 1.32-3 .896-.8 2.096-1.2 3.6-1.2 1.968 0 3.472.568 4.512 1.704l-.72.984c-.96-.96-2.208-1.44-3.744-1.44-1.104 0-1.976.272-2.616.816-.64.528-.96 1.24-.96 2.136 0 .72.216 1.344.648 1.872.432.512.968.896 1.608 1.152.64.256 1.336.544 2.088.864.752.304 1.448.616 2.088.936.64.32 1.176.808 1.608 1.464.432.64.648 1.416.648 2.328 0 1.312-.512 2.376-1.536 3.192-1.024.816-2.296 1.224-3.816 1.224a7.733 7.733 0 01-3.072-.648c-.992-.464-1.688-1.056-2.088-1.776l.792-.912c.48.624 1.12 1.128 1.92 1.512.8.384 1.608.576 2.424.576 1.088 0 2.024-.28 2.808-.84.784-.544 1.176-1.312 1.176-2.304z" fill="#141414"/></svg>