<svg width="794" height="133" viewBox="0 0 794 133" fill="none" xmlns="http://www.w3.org/2000/svg"><g clip-path="url(#clip0)"><path d="M728.329 22.61c.665 0 1.064 0 1.064.966v24.032c0 1.244.664 1.796 1.994 1.796h23.928c1.064 0 1.064.414.931 1.242v5.525c0 .691 0 .968-.931.968h-25.789c-7.577 0-10.502-2.626-10.502-10.22V23.575c0-.966.266-.966 1.063-.966h8.242zm24.328 0a3.669 3.669 0 011.647.196 3.808 3.808 0 011.41.909l12.628 13.672 12.762-13.672a3.8 3.8 0 011.41-.909 3.674 3.674 0 011.647-.196h9.174c.796 0 1.062.413.133 1.242l-20.073 21.546v10.636c0 .966-.399.966-1.064.966h-7.977c-.796 0-1.195 0-1.195-.966V45.398l-19.94-21.546c-.931-.966-.532-1.242.133-1.242h9.305zm-41.077 0c.931 0 .931.276.931 1.105v5.524c0 .69 0 .966-.931.966h-25.259c-1.062 0-1.727.416-1.727 1.52v4.42h26.321c1.064 0 .931.276.931.966v5.388c0 .69 0 .965-.931.965h-26.321v4.696c0 1.105.532 1.52 1.727 1.52h25.259c1.064 0 .931.277.931.966v5.525c0 .691 0 .829-.931.829h-25.789c-7.046 0-11.3-2.21-11.3-9.392V32.002c0-7.182 4.254-9.392 11.3-9.392h25.789zm-43.736 0c.931 0 .931.276.931 1.105v5.524c0 .69 0 .966-.931.966h-25.258c-1.063 0-1.728.416-1.728 1.52v4.42h26.188c.931 0 .931.276.931.966v5.525c0 .691 0 .828-.931.828h-26.188v4.696c0 1.105.532 1.52 1.728 1.52h25.258c.931 0 .931.277.931.966v5.525c0 .691 0 .829-.931.829h-25.788c-7.046 0-11.301-2.21-11.301-9.392V32.002c0-7.182 4.388-9.392 11.301-9.392h25.788zm-44.799 0c1.064 0 .931.276.931.966V29.1c0 .692 0 .968-.931.968h-29.778c-1.064 0-1.729.413-1.729 1.518V48.16c0 1.105.665 1.52 1.729 1.52h20.606v-6.216h-15.819c-1.064 0-.931-.276-.931-.965v-5.525c0-.692 0-.829.931-.829h24.991c1.064 0 .931.276.931.966v19.06c0 .691 0 .829-.931.829h-30.31c-7.045 0-11.433-2.21-11.433-9.392V32.002c0-7.182 4.388-9.392 11.433-9.392h30.31z" fill="#006FB6"/><path d="M470.302 16.672l-4.519.276a13.606 13.606 0 00-6.646 1.519 6.271 6.271 0 00-2.096 2.381 6.586 6.586 0 00-.698 3.143v2.21l.266 4.005c.133 2.625.798 10.496.798 10.496a32.356 32.356 0 001.198 7.598c1.594 5.109 5.715 8.702 13.293 11.462a247.463 247.463 0 0038.02 9.392h.131a209.9 209.9 0 0032.171-7.456l1.197-.416c7.177-2.348 14.489-4.695 17.413-11.601a28.548 28.548 0 001.596-8.424l.133-2.073c.133-2.347.399-4.696.532-7.182l.133-1.657c.37-2.707.326-5.455-.133-8.148-.798-2.625-2.525-4.006-5.85-4.698-.929-.137-4.519-.413-4.519-.413s-19.94-1.519-26.587-1.934l-14.756-.829h-2.924c-12.721.727-25.439 1.51-38.153 2.35z" fill="url(#paint0_linear)"/><path opacity=".95" d="M509.918 65.287c-4.917-.966-30.839-5.801-40.279-9.944-11.431-5.11-12.096-18.369-12.362-20.165.143 3.376.454 6.74.931 10.083 1.195 9.392 9.438 12.291 13.293 13.949 6.514 2.625 23.663 7.321 38.55 9.53v-3.453h-.133z" fill="url(#paint1_linear)"/><path opacity=".95" d="M509.918 65.286c4.919-.965 30.841-5.8 40.279-9.944 11.433-5.11 12.098-18.368 12.364-20.026a103.16 103.16 0 01-.931 10.082c-1.197 9.53-9.438 12.43-13.293 13.95-6.514 2.624-23.663 7.043-38.552 9.53v-3.592h.133z" fill="url(#paint2_linear)"/><path d="M509.92 18.882c-3.722.137-10.236.414-17.149.829-12.63.69-26.589 1.657-28.582 1.795-3.456.415-4.254 1.794-4.254 4.004-.133 1.796.798 14.088 1.33 19.475a11.633 11.633 0 002.525 6.216c1.995 2.347 4.92 4.142 9.97 5.938a172.099 172.099 0 0019.408 5.388c5.452 1.242 10.768 2.347 16.619 3.175 5.848-.967 11.165-1.933 16.617-3.175a187.613 187.613 0 0019.408-5.388c5.05-1.796 8.107-3.454 9.97-5.938a11.27 11.27 0 002.525-6.216c.665-5.387 1.463-17.679 1.463-19.475-.133-2.347-.931-3.728-4.387-4.005-1.994-.137-15.819-1.104-28.58-1.794-6.516-.415-13.163-.829-16.883-.829z" fill="url(#paint3_linear)"/><path d="M509.918 19.156a811.89 811.89 0 00-17.147.829c-12.497.692-26.323 1.52-28.316 1.797-3.456.413-4.254 1.794-4.254 4.004-.133 1.657.798 13.811 1.463 19.06a11.247 11.247 0 002.525 6.077c1.993 2.349 4.92 4.006 9.97 5.8 8.11 2.763 14.623 4.283 19.275 5.388 5.452 1.242 10.768 2.21 16.617 3.176 5.568-.9 11.11-1.96 16.618-3.176a163.87 163.87 0 0019.275-5.387c4.918-1.658 8.108-3.452 9.97-5.801a10.796 10.796 0 002.526-6.077c.665-5.249 1.596-17.403 1.463-19.197-.133-2.35-.931-3.73-4.255-4.007-1.993-.137-15.818-1.105-28.449-1.794-7.045-.276-13.559-.692-17.281-.692z" fill="url(#paint4_linear)"/><path opacity=".45" d="M464.455 22.747c1.993-.137 15.819-1.105 28.447-1.794 6.78-.416 13.293-.692 17.016-.968a798.48 798.48 0 0117.148.829c12.629.691 26.454 1.52 28.449 1.796 3.324.413 4.12 2.21 4.253 4.28v-1.24c-.133-2.35-.929-3.73-4.253-4.007-1.995-.137-15.82-1.105-28.449-1.794a790.775 790.775 0 00-17.148-.829c-3.723.137-10.236.553-17.149.966-12.495.691-26.321 1.52-28.314 1.796-3.456.414-4.254 1.795-4.254 4.005v1.244c.133-2.21.931-4.007 4.254-4.283z" fill="#636362"/><path d="M558.307 25.925c-.133-1.658-.665-3.315-3.856-3.729-1.993-.139-10.635-1.104-23.263-1.796-6.78-.413-17.548-.69-21.401-.69-3.856 0-14.491.414-21.403.69-12.629.692-21.271 1.52-23.264 1.797a3.545 3.545 0 00-2.535 1.096 3.825 3.825 0 00-1.054 2.632c-.133 1.52.532 12.017 1.062 17.541.091 2.086.784 4.1 1.995 5.801 1.727 2.07 4.388 4.005 9.172 5.662a165.365 165.365 0 0019.541 5.387c5.452 1.242 10.768 2.347 16.617 3.176 5.85-.966 11.167-1.934 16.619-3.176a165.32 165.32 0 0019.541-5.387c4.784-1.657 7.444-3.591 9.171-5.662a10.78 10.78 0 001.994-5.8c.532-5.664 1.33-16.022 1.064-17.542z" fill="url(#paint5_linear)"/><path d="M557.509 25.649c-.133-1.244-.665-2.626-3.457-2.902-1.862-.137-14.889-1.105-27.384-1.794-6.78-.415-13.161-.692-16.75-.692l-16.75.692c-12.364.69-25.392 1.518-27.385 1.794-2.658.276-3.323 1.658-3.456 2.902 0 1.518.665 11.878 1.195 17.263a9.77 9.77 0 002.261 5.525c1.727 2.073 4.255 3.59 8.906 5.248 3.856 1.244 10.635 3.454 17.282 4.972 7.578 1.797 14.89 2.763 17.947 3.178 3.057-.415 10.502-1.52 18.078-3.315 6.646-1.52 13.426-3.73 17.148-4.972 4.654-1.657 7.312-3.178 8.908-5.248a11.271 11.271 0 002.26-5.525c.665-5.248 1.33-15.608 1.197-17.126z" fill="#241D06"/><path d="M485.723 34.625l1.861 1.658-24.461-1.658 1.33-1.38 21.27 1.38z" fill="#3B3A39"/><path d="M486.124 23.3l-21.935 1.104-.532-.413a3.916 3.916 0 011.729-.829c.477-.121.97-.168 1.461-.139 6.115-.415 21.271-1.242 21.271-1.242l-1.994 1.518z" fill="#373939"/><path d="M483.597 32.83l2.128 1.795-21.27-1.381 1.064-1.381 18.078.968z" fill="#25231F"/><path d="M465.517 31.863l-.133-6.49s9.305-.416 18.743-.692l-.397 8.15-18.213-.968z" fill="url(#paint6_linear)"/><path d="M486.122 23.3l1.996-1.519-.532 14.501-1.863-1.657.399-11.326z" fill="#353230"/><path d="M484.129 24.683l1.995-1.381-.399 11.325-2.128-1.796.532-8.148z" fill="#25231F"/><path d="M462.859 25.372c.133-.968.532-1.244.798-1.38l.53.412.266 8.703-1.195 1.518-.532-7.182c-.01-.693.035-1.385.133-2.07z" fill="#2D2D2C"/><path d="M465.386 25.372l.133 6.493-1.064 1.381-.266-8.84 1.197.966z" fill="#535051"/><path opacity=".85" d="M466.049 30.069l-.133-4.005 16.218-.415-.266 5.248-15.819-.828z" fill="url(#paint7_linear)"/><path d="M486.124 23.302l-1.995 1.38-18.743.69-1.197-.965 21.935-1.105z" fill="#565757"/><path d="M535.442 46.366l-2.128-1.796-1.062 11.878 2.392-2.21.798-7.872z" fill="#294A96"/><path d="M554.85 41.81l1.597-1.52-24.727 2.9 1.596 1.382 21.534-2.763z" fill="url(#paint8_linear)"/><path d="M533.314 44.57l-1.596-1.382-1.328 14.78 1.86-1.52 1.064-11.878z" fill="#2C337E"/><path d="M553.786 48.715c2.792-3.178 2.659-8.426 2.659-8.426l-1.462 1.52a12.138 12.138 0 01-1.197 4.28c-1.461 2.902-3.323 4.144-7.843 5.94a105.67 105.67 0 01-13.56 4.42l-1.86 1.519a140.39 140.39 0 0017.149-5.249 15.502 15.502 0 006.114-4.004z" fill="#2356A0"/><path d="M553.387 43.467l1.463-1.657-21.536 2.762 2.128 1.794 17.945-2.899z" fill="#1F5DA5"/><path d="M546.74 50.373a85.241 85.241 0 01-12.096 3.867l-2.392 2.21a131.22 131.22 0 0013.958-4.559c4.386-1.934 5.982-2.9 7.576-5.8a12.098 12.098 0 001.197-4.281l-1.594 1.657c-.133 1.105-1.197 4.42-6.649 6.906z" fill="#293672"/><path d="M535.44 46.366l-.796 7.871c7.709-2.07 10.236-3.038 12.229-4.004 5.45-2.486 6.381-5.664 6.514-6.906l-17.947 3.039z" fill="url(#paint9_linear)"/><path d="M484.395 46.366l2.126-1.796 1.065 11.878-2.393-2.21-.798-7.872z" fill="#294A96"/><path d="M464.987 41.81l-1.596-1.52 24.727 3.038-1.594 1.244-21.537-2.763z" fill="url(#paint10_linear)"/><path d="M486.521 44.57l1.597-1.243 1.328 14.64-1.86-1.52-1.065-11.878z" fill="#2C337E"/><path d="M466.049 48.715c-2.924-3.178-2.658-8.426-2.658-8.426l1.461 1.52c.143 1.51.596 2.97 1.33 4.28 1.461 2.902 3.324 4.144 7.842 5.94a105.756 105.756 0 0013.56 4.42l1.862 1.519a141.267 141.267 0 01-17.016-5.249c-3.19-1.242-4.52-1.933-6.381-4.004z" fill="#2356A0"/><path d="M466.448 43.467l-1.461-1.657 21.534 2.762-2.126 1.794-17.947-2.899z" fill="#1F5DA5"/><path d="M473.095 50.373a92.43 92.43 0 0012.098 3.867l2.26 2.21a131.05 131.05 0 01-13.959-4.559c-4.387-1.934-5.982-2.9-7.578-5.938a12.167 12.167 0 01-1.195-4.283l1.461 1.52c.399 1.382 1.463 4.697 6.913 7.183z" fill="#293672"/><path d="M484.393 46.366l.798 7.872a97.892 97.892 0 01-12.229-3.867c-5.451-2.486-6.383-5.662-6.514-6.906l17.945 2.901z" fill="url(#paint11_linear)"/><path d="M496.361 57.968l-1.996 1.244 15.553 2.623v-1.518l-13.557-2.35z" fill="#1A1A1A"/><path d="M509.917 47.61v-1.797l-15.685-1.794 1.86 1.934 13.825 1.657z" fill="#1F1F1F"/><path d="M509.918 49.405v-1.797l-13.826-1.657 1.86 1.933 11.966 1.519v.002z" fill="#444"/><path d="M498.218 56.863l-1.86 1.105 13.56 2.349v-1.52l-11.7-1.934z" fill="#2D2D2C"/><path d="M498.221 56.863l11.697 1.933v-9.391l-11.963-1.52.266 8.978z" fill="url(#paint12_linear)"/><path d="M497.952 47.884l-1.86-1.933.266 12.015 1.861-1.105-.267-8.977z" fill="#535051"/><path d="M496.092 45.953l-1.86-1.934.133 15.193 1.993-1.244-.266-12.015z" fill="#312F2C"/><path d="M523.61 57.968l1.86 1.244-15.553 2.623v-1.518l13.693-2.35z" fill="#000"/><path d="M509.917 47.61v-1.797l15.819-1.794-1.993 1.934-13.826 1.657z" fill="#0D0D0D"/><path d="M509.917 49.405v-1.797l13.826-1.657-1.862 1.933-11.964 1.519v.002z" fill="#1A1A1A"/><path d="M521.615 56.863l1.995 1.105-13.693 2.349v-1.52l11.698-1.934z" fill="#312F2C"/><path d="M521.615 56.863l-11.698 1.933v-9.391l11.964-1.52-.266 8.978z" fill="#2E2E2E"/><path opacity=".2" d="M509.918 50.648l-10.236-.967.133 6.353 10.103 1.52 10.103-1.52.133-6.353-10.236.968z" fill="url(#paint13_linear)"/><path d="M521.881 47.884l1.862-1.933-.133 12.015-1.993-1.105.264-8.977z" fill="#000"/><path d="M523.743 45.953l1.993-1.934-.264 15.193-1.862-1.244.133-12.015z" fill="#312F2C"/><path d="M495.163 22.749l-1.995-1.105 16.75-.829v1.519l-14.755.415z" fill="#2C408E"/><path d="M497.952 33.244l11.966.553v1.796l-13.56-.692 1.594-1.657z" fill="#2E3D8B"/><path d="M509.918 22.334v1.244l-12.629.553-2.126-1.382 14.755-.415z" fill="#006FB6"/><path d="M497.954 33.244l-1.596 1.658-1.195-12.154 2.126 1.38.665 9.116z" fill="#0085CA"/><path d="M495.163 22.747l1.195 12.155-1.86 1.933-1.33-15.192 1.995 1.104z" fill="#294A96"/><path d="M509.918 35.593v2.21l-15.42-.966 1.86-1.933 13.56.69z" fill="#1F5DA5"/><path d="M497.955 33.244l-.665-9.113 12.628-.553v10.219l-11.963-.553z" fill="url(#paint14_linear)"/><path d="M524.672 22.749l1.995-1.105-16.75-.829v1.519l14.755.415z" fill="#2F3787"/><path d="M521.881 33.244l-11.964.553v1.796l13.56-.692-1.596-1.657z" fill="#293672"/><path d="M509.917 22.334v1.244l12.762.553 1.993-1.382-14.755-.415z" fill="#1F5DA5"/><path d="M521.881 33.244l1.596 1.658 1.197-12.154-1.995 1.38-.798 9.116z" fill="#2E3D8B"/><path d="M524.672 22.747l-1.195 12.155 1.993 1.933 1.197-15.192-1.995 1.104zm-14.755 12.846v2.21l15.553-.966-1.993-1.933-13.56.69z" fill="#294A96"/><path d="M521.881 33.244l.798-9.113-12.762-.553v10.219l11.964-.553z" fill="#4E93D1"/><path d="M534.378 34.625l-2.126 1.658 24.46-1.658-1.197-1.38-21.137 1.38z" fill="#3B3A39"/><path d="M533.846 23.3l21.933 1.104.533-.413a3.922 3.922 0 00-1.728-.829 4.816 4.816 0 00-1.463-.139c-6.114-.415-21.27-1.242-21.27-1.242l1.995 1.518z" fill="#373939"/><path d="M536.238 32.83l-1.86 1.795 21.137-1.381-1.197-1.381-18.08.968z" fill="#312F2C"/><path d="M554.318 31.863l.266-6.354s-9.305-.413-18.743-.69l.399 8.149 18.078-1.105z" fill="url(#paint15_linear)"/><path d="M533.846 23.3l-2.126-1.519.532 14.501 2.126-1.657-.532-11.326z" fill="#353230"/><path d="M535.84 24.683l-1.994-1.381.532 11.325 1.861-1.796-.399-8.148z" fill="#25231F"/><path d="M557.11 25.372a1.897 1.897 0 00-.796-1.38l-.532.412-.266 8.703 1.197 1.518.397-7.182a5.268 5.268 0 000-2.07z" fill="#2D2D2C"/><path d="M554.584 25.372l-.266 6.493 1.198 1.381.266-8.84-1.198.966z" fill="#535051"/><path opacity=".85" d="M553.921 30.069l.131-4.005-16.218-.415.266 5.248 15.821-.828z" fill="url(#paint16_linear)"/><path d="M533.846 23.302l1.994 1.38 18.745.69 1.197-.965-21.936-1.105z" fill="#565757"/><path d="M509.918 43.188l-47.724-4.42a3.06 3.06 0 001.064 1.52c16.351 2.348 43.336 5.11 46.66 5.386 3.323-.413 30.176-3.038 46.66-5.385a2.862 2.862 0 001.197-1.52l-47.857 4.42z" fill="url(#paint17_linear)"/><path opacity=".75" d="M557.908 35.869l-1.197-1.242-46.926 2.762-46.793-2.762-1.197 1.242.133 2.625a2.452 2.452 0 01.714-1.987 2.248 2.248 0 011.944-.638l45.066 3.178 45.066-3.178a2.245 2.245 0 011.944.638 2.518 2.518 0 01.714 1.985l.532-2.623z" fill="url(#paint18_linear)"/><path d="M526.271 36.974l3.057.276 2.392-.413.798-1.105v.413l-.798 1.105-2.392.416-3.057-.277-.932-.691v-.414l.932.69z" fill="url(#paint19_linear)"/><path d="M526.27 37.25l-.931-.69 1.328-15.468h.266l-.663 16.158z" fill="#635C52"/><path d="M529.326 37.526v-16.71l-2.392.276-.665 16.158 3.057.276z" fill="url(#paint20_linear)"/><path d="M529.326 37.526l2.392-.413-.266-15.884-2.126-.414v16.711z" fill="url(#paint21_linear)"/><path d="M529.326 37.526l.266-.137V20.815h-.266v16.711z" fill="url(#paint22_linear)"/><path d="M531.72 37.111l.798-1.105-.798-14.5-.266-.277.266 15.882z" fill="#43402D"/><path opacity=".2" d="M531.718 21.644l-.266-.276-2.126-.415-2.393.139-.399.276.133-.276h.266l2.393-.277 2.126.414.266.276v.14z" fill="url(#paint23_linear)"/><path d="M493.7 36.974l-3.19.276-2.393-.413-.665-1.105v.413l.665 1.105 2.393.416 3.19-.277.931-.691v-.414l-.931.69z" fill="url(#paint24_linear)"/><path d="M493.7 37.25l.929-.69-1.328-15.468h-.266l.665 16.158z" fill="#43402D"/><path d="M490.51 37.526v-16.71l2.527.276.663 16.158-3.19.276z" fill="url(#paint25_linear)"/><path d="M490.51 37.526l-2.395-.413.4-15.884 1.995-.414v16.711z" fill="url(#paint26_linear)"/><path d="M490.51 37.526l-.266-.137.133-16.574h.133v16.711z" fill="url(#paint27_linear)"/><path d="M488.117 37.111l-.665-1.105.665-14.5.4-.277-.4 15.882z" fill="#635C52"/><path opacity=".2" d="M488.115 21.644l.4-.276 1.995-.415 2.525.139.399.276-.133-.276h-.266l-2.525-.277-1.995.414-.4.276v.14z" fill="url(#paint28_linear)"/><path d="M491.572 59.212l-2.126-.83-.532-.828.133.553.399.69 2.126.967h2.261l.397-.415v-.414l-.53.277h-2.128z" fill="url(#paint29_linear)"/><path d="M489.448 58.657l-.399-.828-1.33-14.501.532-.14 1.197 15.47z" fill="#635C52"/><path d="M491.574 59.486l-2.128-.829-1.196-15.468h2.26l1.064 16.297z" fill="url(#paint30_linear)"/><path d="M491.574 59.486h2.259l-.399-15.882-2.924-.416 1.064 16.298z" fill="url(#paint31_linear)"/><path d="M493.833 59.486l.399-.276V44.017l-.798-.413.399 15.882z" fill="#47402B"/><path d="M491.574 59.486l-2.128-.829-1.196-15.468h2.26l1.064 16.297z" fill="url(#paint32_linear)"/><path d="M491.574 59.486h-.266l-.931-16.297h.133l1.064 16.297z" fill="url(#paint33_linear)"/><path d="M491.574 59.486h2.259l-.399-15.882-2.924-.416 1.064 16.298z" fill="url(#paint34_linear)"/><path d="M493.833 59.486l.399-.276V44.017l-.798-.413.399 15.882z" fill="#43402D"/><path d="M487.719 43.327l.532-.137h2.259l2.924.414.798.415v-.14l-.798-.412-2.924-.553h-.133l-2.126.137-.532.14v.136z" fill="url(#paint35_linear)"/><path d="M528.262 59.212l2.128-.83.399-.828-.133.553-.266.69-2.128.967h-2.26l-.532-.415v-.414l.532.277h2.26z" fill="url(#paint36_linear)"/><path d="M530.39 58.657l.397-.828 1.197-14.501-.532-.14-1.062 15.47z" fill="#43402D"/><path d="M528.264 59.486l2.126-.829 1.064-15.468h-2.261l-.929 16.297z" fill="url(#paint37_linear)"/><path d="M528.262 59.486h-2.259l.399-15.882 2.791-.416-.931 16.298z" fill="url(#paint38_linear)"/><path d="M526.002 59.486l-.532-.276V44.017l.931-.413-.399 15.882z" fill="#47402B"/><path d="M528.264 59.486l2.126-.829 1.064-15.468h-2.261l-.929 16.297z" fill="url(#paint39_linear)"/><path d="M528.264 59.486h.264l.798-16.297h-.133l-.929 16.297z" fill="url(#paint40_linear)"/><path d="M528.262 59.486h-2.259l.399-15.882 2.791-.416-.931 16.298z" fill="url(#paint41_linear)"/><path d="M526.002 59.486l-.532-.276V44.017l.931-.413-.399 15.882z" fill="#635C52"/><path d="M531.984 43.327l-.53-.137h-2.261l-2.792.414-.931.415v-.14l.931-.412 2.792-.553h.133l2.128.137.53.14v.136z" fill="url(#paint42_linear)"/><path d="M462.327 39.184a3.18 3.18 0 01.133-2.486 2.64 2.64 0 01.796-.839 2.53 2.53 0 011.066-.405l45.463 2.901 45.065-3.177a4.451 4.451 0 012.259.968 6.32 6.32 0 01.666 2.623l-47.99 5.387-47.458-4.972z" fill="url(#paint43_linear)"/><path fill-rule="evenodd" clip-rule="evenodd" d="M18.397 21.603L4.093 46.913h7.768l3.024-5.677h14.771l3.004 5.676h8.176l-14.161-25.31h-8.278v.001zm-1.203 15.438l4.975-10.34h.102l5.245 10.34H17.194zm16.383-15.438l-.008 4.481h10.324l-.039 20.828h7.257l.039-20.826h10.322l.008-4.483H33.577zm31.39 0l-.017 8.244c-.01 5.995.743 13.233-4.878 13.233-.56 0-1.482-.109-1.942-.18l-.313 4.01c.97.154 2.3.297 3.474.297 10.632 0 10.441-7.563 10.456-16.058l.008-5.063h9.454l-.037 20.826h7.257l.045-25.31H64.967v.001zm39.495 0l-14.304 25.31h7.766l3.029-5.677h14.766l3.007 5.676h8.175l-14.161-25.31h-8.28l.002.001zm-1.205 15.438l4.977-10.34h.102l5.245 10.34h-10.324zm25.383-15.438l-.045 25.31h7.257l.02-10.956h14.513l-.02 10.955h7.256l.047-25.31h-7.258l-.019 10.197H135.88l.019-10.196h-7.259zm32.528 0l-.009 4.481h10.322l-.036 20.828h7.256l.037-20.826h10.324l.008-4.483h-27.902zM301.229 3.777c20.257 0 36.778 16.687 36.778 37.146 0 20.46-16.521 37.146-36.778 37.146-13.12 0-24.671-7.002-31.183-17.495a41.19 41.19 0 01-2.169 3.538c7.322 10.7 19.549 17.734 33.352 17.734 22.316 0 40.518-18.383 40.518-40.923C341.747 18.383 323.545 0 301.229 0c-13.803 0-26.03 7.035-33.352 17.734a41.19 41.19 0 012.169 3.538c6.512-10.493 18.063-17.495 31.183-17.495z" fill="#0060AA"/><path fill-rule="evenodd" clip-rule="evenodd" d="M301.241 4.42c19.906 0 36.14 16.397 36.14 36.503 0 20.103-16.234 36.501-36.14 36.501-13.027 0-24.481-7.024-30.841-17.513a41.559 41.559 0 01-1.226 2.19c6.858 10.546 18.672 17.531 32.055 17.531 21.115 0 38.327-17.382 38.327-38.71 0-21.324-17.212-38.706-38.327-38.706-13.383 0-25.197 6.985-32.055 17.531a40.7 40.7 0 011.224 2.19c6.362-10.491 17.816-17.515 30.843-17.515V4.42z" fill="#0060AA"/><path fill-rule="evenodd" clip-rule="evenodd" d="M301.229 2.216a37.728 37.728 0 0116.65 3.855 38.66 38.66 0 0112.986 10.353 38.68 38.68 0 00-12.911-10.128 37.74 37.74 0 00-16.467-3.767c-10.557 0-20.139 4.346-27.08 11.356a39.041 39.041 0 00-5.016 6.235l-.219-.375a39.04 39.04 0 014.977-6.173c6.942-7.01 16.523-11.356 27.08-11.356zm-32.028 59.837a38.393 38.393 0 002.652 3.684 38.494 38.494 0 01-2.679-3.636l.027-.047zm59.99-44.225a36.544 36.544 0 018.19 23.095c0 10.053-4.058 19.176-10.605 25.79-6.546 6.613-15.581 10.711-25.535 10.711a35.566 35.566 0 01-15.515-3.548 36.463 36.463 0 01-12.174-9.541 36.5 36.5 0 0012.247 9.766 35.573 35.573 0 0015.7 3.636c9.954 0 18.989-4.1 25.535-10.711a36.572 36.572 0 0010.604-25.79 36.587 36.587 0 00-2.246-12.662 36.72 36.72 0 00-6.201-10.746z" fill="#0060AA"/><path fill-rule="evenodd" clip-rule="evenodd" d="M328.18 13.443a38.778 38.778 0 0111.376 27.48c0 10.664-4.304 20.338-11.245 27.35-6.942 7.013-16.523 11.357-27.08 11.357a37.73 37.73 0 01-14.982-3.086 38.538 38.538 0 01-12.227-8.401 38.506 38.506 0 0012.139 8.215 37.746 37.746 0 0014.812 3.012c10.557 0 20.139-4.344 27.08-11.356a38.787 38.787 0 0011.245-27.351 38.806 38.806 0 00-11.118-27.22z" fill="#0060AA"/><path fill-rule="evenodd" clip-rule="evenodd" d="M304.235 53.552l8.695-18.244 1.635-3.648h.156l-.088 3.94.071 17.952h7.324l-.102-25.54h-12.377l-7.162 14.849-1.582 4.526h-.153l-1.617-4.526-7.279-14.85h-12.379l.103 25.54h7.322l-.07-17.95-.119-3.941h.154l1.666 3.648 8.838 18.244h6.964z" fill="#0060AA"/><path fill-rule="evenodd" clip-rule="evenodd" d="M304.233 53.552l8.697-18.244 1.635-3.65h.156l.509-.516h-1.177l-1.635 3.649-8.695 18.243h-6.704l.252.518h6.962zm10.469-.518v.518h7.324l-.1-25.54h-.51l.099 25.024h-6.813v-.002zm-14.05-5.645l-1.619-4.528-7.279-14.85h-.256l7.025 14.332 1.889 5.29h.156l.084-.244zm-21.176 5.647l.002.516h7.324L286.73 35.6l-.117-3.943h.156l.069-.516h-.736l.118 3.941.07 17.951h-6.814v.002z" fill="#0060AA"/><path fill-rule="evenodd" clip-rule="evenodd" d="M314.719 31.662l-.086 3.939.072 17.95.509-.527-.07-16.991.086-4.889-.511.518zm6.667-3.22l.54-.43H309.55l-7.163 14.849-1.58 4.526h-.151l-.088.243h.817l1.514-4.338 7.162-14.85h11.325zm-29.63-.43h-12.378l.102 25.54.51-.495-.101-24.616h11.826l.041-.43zm-4.987 3.65l1.664 3.646 8.838 18.244.047-.47-8.373-17.342-2.104-4.6-.072.522zM234.527 3.777c20.257 0 36.778 16.687 36.778 37.146 0 20.46-16.521 37.146-36.778 37.146-20.255 0-36.778-16.686-36.778-37.146s16.523-37.146 36.778-37.146zm0-3.777c22.318 0 40.518 18.383 40.518 40.923 0 22.538-18.2 40.923-40.518 40.923-22.316 0-40.519-18.385-40.519-40.923C194.008 18.383 212.211 0 234.527 0z" fill="#0060AA"/><path fill-rule="evenodd" clip-rule="evenodd" d="M239.651 73.625c-.772.13-1.49-.432-1.621-1.212 1.109-.15 1.713-.198 2.812-.476a1.491 1.491 0 01-1.191 1.688zm3.994-.909c-.753.221-1.53-.251-1.749-1.013 1.084-.276 1.678-.397 2.738-.802a1.494 1.494 0 01-.989 1.815zm3.698-1.336c-.72.307-1.549-.072-1.854-.798 1.046-.405 1.621-.593 2.626-1.121a1.492 1.492 0 01-.772 1.919zm3.34-1.62c-.679.388-1.547.11-1.934-.578.991-.523 1.541-.777 2.478-1.422a1.497 1.497 0 01-.544 2zm3.172-2.23c-.63.466-1.523.292-1.985-.347.923-.636 1.439-.955 2.296-1.704a1.497 1.497 0 01-.311 2.048v.002zm3.174-2.518c-.573.538-1.48.471-2.014-.108.843-.74 1.32-1.12 2.085-1.964a1.5 1.5 0 01-.071 2.07v.002zm2.595-2.932a1.433 1.433 0 01-.98.484 1.43 1.43 0 01-1.034-.355c.753-.835 1.183-1.266 1.844-2.195.597.511.675 1.463.17 2.066zm2.322-3.075a1.41 1.41 0 01-.913.596 1.424 1.424 0 01-1.068-.228c.649-.92 1.026-1.4 1.576-2.4.653.438.839 1.373.405 2.032zm1.953-3.27a1.427 1.427 0 01-1.392.758 1.422 1.422 0 01-.534-.158c.538-.989.857-1.51 1.289-2.568a1.5 1.5 0 01.637 1.968zm2.492-7.612a1.432 1.432 0 01-1.737 1.032c.298-1.089.489-1.67.665-2.8.761.185 1.254.997 1.072 1.766v.002zm.784-3.893a1.433 1.433 0 01-1.607 1.231c.17-1.117.293-1.716.338-2.86.778.094 1.361.843 1.269 1.629zm.166-3.606c0 .79-.67 1.412-1.453 1.412.041-1.13.094-1.74.004-2.879.784 0 1.451.675 1.449 1.467zm-1.028-7.81a1.446 1.446 0 01-.998 1.768c-.277-1.093-.397-1.692-.8-2.762a1.47 1.47 0 011.798.994zm-1.129-3.734a1.452 1.452 0 01-.788 1.872c-.401-1.054-.592-1.635-1.115-2.65a1.469 1.469 0 011.903.778zm-1.541-3.607a1.454 1.454 0 01-.567 1.954c-.52-.999-.776-1.555-1.412-2.5a1.465 1.465 0 011.979.546zm-2.067-3.217c.464.636.293 1.539-.338 2.007-.632-.93-.949-1.453-1.692-2.318a1.467 1.467 0 012.03.31zM234.537 4.42c19.907 0 36.141 16.395 36.141 36.501 0 20.103-16.234 36.501-36.141 36.501-19.905 0-36.139-16.398-36.139-36.503 0-20.104 16.234-36.5 36.139-36.5zm-.01-2.206c21.114 0 38.325 17.382 38.325 38.709 0 21.325-17.211 38.707-38.325 38.707-21.115 0-38.325-17.382-38.325-38.707 0-21.327 17.21-38.71 38.325-38.71zm9.016 68.063c.499-2.476-.399-4.41-1.657-6.394.309-.389.54-.753.732-1.207 2.081 1.919 2.634 4.878 2.634 7.03-.567.105-1.132.416-1.709.573v-.002zm-7.295 1.273c3.698-.716 5.214-1.195 6.163-3.724.387 1.375.361 1.97.234 2.75-2.133.505-4.175.857-6.397.974zm-1.695-.716l-.014-.802c-3.776-.117-5.484-.663-5.484-2.452 0-1.946 2.21-2.179 5.511-2.077l-.027-.828c3.481.168 5.781.867 5.845 2.93.077 2.206-2.595 3.1-5.831 3.23v-.001zm-.822-6.589c-4.355-.078-7.41.726-7.629 3.386.102 2.464 3.892 3.671 7.629 3.606v-.79c-2.043 0-6.203-.143-6.127-2.932.078-2.466 3.583-2.558 6.127-2.544v-.726zm-2.941 3.374c-.027-.986 1.283-1.674 3.749-1.688v.532c1.516-.09 2.531.389 2.544 1.18.026.962-1.13 1.26-2.544 1.233v.648c-2.4-.129-3.698-.44-3.749-1.905zm15.45 1.633c0-2.296-.937-4.825-2.492-6.834l2.03.323c.964 1.154 1.541 2.206 2.042 5.823-.501.312-1.027.481-1.58.688zm-14.359-1.647c.012-.79 1.09-.856 1.85-.778v1.57c-.862.065-1.863-.04-1.85-.792zm16.864.364c-.065-2.946-.669-3.386-1.49-5.136-.09-.196 1.066-.118 1.836-.337.706 1.516 1.271 2.502 1.207 4.538-.526.364-.925.66-1.553.935zm2.337-1.234c0-1.244-.36-2.944-1.168-4.514.564-.116.834-.245 1.258-.61.565.948 1.181 2.894 1.142 4.269-.372.102-.833.663-1.232.857v-.002zm2.157-1.671c-.051-1.519-.282-2.415-1.31-3.919.18-.117 1.04-.894 1.079-.894 1.002 1.244 1.156 2.271 1.426 3.853-.09.297-.925.829-1.195.96zm1.991-1.662c-.231-2.036-.45-2.736-1.516-4.113.27-.296.591-.466.874-1.076 1.117 1.363 1.54 2.373 1.837 4.01a7.356 7.356 0 01-1.195 1.179zm-23.875.233c-2.556 0-5.175-1.023-4.034-3.423.577-1.53 2.337-1.842 7.155-.454 1.964.116 5.406-.83 7.049.7.604.558.09 1.608-.577 3.192l-9.593-.015zm2.376-.777v-1.115c1.322.194 2.028.66 4.289.077.321.04.219.3.115.455-.551.687-3.404.971-4.404.583zm15.513-1.13c.604-2.983-.616-3.24-.871-4.579.886-.802 1.309-.843 2.247-.79.718 2.296-.078 4.903-1.376 5.37zm8.012-.775c-.063.012-.96-2.35-1.999-3.362.384-.389.513-.544.718-1.076 1.105.947 1.85 1.997 2.312 3.308l-1.031 1.13zm-21.894.282l.039-.75.744.05c-.014.221 0 .35-.038.598-.181.063-.412.078-.745.102zm1.502-.051c.039-.245.039-.401.153-.583.18.026.336.078.54.04 0 .22.09.363-.012.594a1.19 1.19 0 01-.681-.051zm1.541.143c-.283 0-.025-.298-.115-.48.231-.064.397.08.604.184.102.049.012.165.039.27-.09.13-.373.026-.528.026zm-4.687-.209v-.971c.872-.09.899.116.86 1.037l-.86-.066zm11.057-2.308c.694-.116 1.324-.4 1.991-.505.258.518.309 1.674-.372 2.762-.628-.908-.772-1.4-1.619-2.257zm-9.555-1.751c.449.311.899.493 1.374.753-.449 2.777-1.515.09-1.374-.753zm23.735 2.011c-.835-1.725-1.247-2.166-2.505-3.347.282-.544.282-.843.387-1.57 1.669 1.064 2.709 2.906 3.081 3.659-.18.362-.526.7-.963 1.258zm-17.094-.818c-3.7-.452-5.806-3.385-7.347-3.632h-.783v1.985c-1.953-.168-1.003-.7-3.121-.7-2.159 0-2.094.804-4.06 1.698 1.414-2.969 1.825-3.773 3.675-3.955.667 0 4.173 1.089 4.314.09v-4.317c3.031.14 4.021-.702 5.511-2.181.307.493 1.604 1.413 2.106.701-.399-.726-2.274-.17-1.361-2.66 2.349-1.829 4.508 2.036 2.054 3.8-2.261 2.101-4.841 2.09-7.745 2.09-.09 3.075 4.932 6.121 7.643 5.254 4.314-.416 6.948-5.775 9.939-3.906 1.003.624.541 1.479 1.286 2.23.577-.051.577-.413.706-.841-1.926-1.258 1.039-3.634-3.199-4.02-1.772-.17-2.415-3.076-6.587-1.961 1.938-2.75 6.728-2.451 8.449-1.297 4.558 3.044 1.5 11.536.297 10.623-.129-5.46-10.121 1.545-11.779.999h.002zm18.52-1.36c-.616-1.351-1.952-3.152-3.34-4.087v-1.363c1.195.272 3.379 2.44 4.277 3.853a21.978 21.978 0 01-.861 1.62l-.076-.024zm-24.25-4.697c.426.04 1.132-.053 1.594.416.514.49.68 1.115 3.082 2.774.168.131-3.25-.79-4.676-3.192v.002zm2.57-.209c.5 0 1.31.093 1.605.481.501.622 1.066 1.635 3.454 2.646-2.247.194-5.431-2.322-5.059-3.127zm17.955-2.062c0-.649-.309-1.504-.528-2.075 1.67.362 3.623 2.44 5.022 3.647l.015.116c1.745 1.57 1.154 1.75.526 2.957-.631-1.53-3.788-3.892-5.035-4.645zm-16.107 1.48c.399 0 1.478-.013 1.787.376.36.466 1.528 1.74 3.133 2.271-1.298.452-4.494-1.78-4.92-2.648zm2.133-.934c.501-.026.925-.208 1.465.13.448.286.051.842 2.658 2.477-1.027.13-3.892-1.545-4.123-2.607zm2.042-.818c.411-.117.681-.117 1.207.117.989.468.258.986 2.262 1.972-1.106.26-3.16-1.142-3.469-2.087v-.002zm7.412-4.93c.499-1.814 6.28 1.494 6.28 1.857.154-.377.358-.416.436-.688-.591-.442-3.827-2.57-4.764-2.686-.026-.103.68-.778.757-1 .244-.038 2.004.635 2.223.766.73-.92-1.054-.998-1.58-1.712.256-.258.346-.596.499-1.05.438.155.976.83 1.375.544.193-.233.205-.415.129-.634-1.438-.962-1.234-.311-.873-2.077 1.976.194 1.246-.389.219-.933l.204-1.195c.45.143 1.259.299 1.015-.467-.321-.155-.438-.063-.847-.427.141-.377.178-.688.217-1.193.333-.131.514-.053.784-.143.09-.545-.397-.557-.719-.831.064-.375.037-.622.037-1.037l.733.102c.168.014.333-.647.078-.712-.475-.143-1.361-.596-1.683-1.128 2.839.401 3.146-.947 4.56-1.841.153-.104.847.076 1.117.31l.385.868c-.412.131-1.015-.286-1.298-.218-.102.622.205.622.205.726.309.117 1.504.479 1.619.88l.231.806c-.821-.338-1.31-.92-1.707-.092 1.259.442 1.682 1 2.043 1.272.024.246.243.596.282.948-.72 0-1.465-.92-2.12-.598l.012.041-.037.31c.577.143 2.839 1.739 2.53 2.465-.721.039-1.607-1.105-2.133-.702 0 .389.207.598.322.727.976 1.051 2.324.61 2.157 2.504-.872-.233-1.04-.415-2.299-.909-.667.35.475 1.091.964 1.208.604.194 1.4.738 1.412 1.127l.052 1.103c-.913-.286-1.992-1.35-2.878-.7 0 1.36 3.135.416 2.763 3.397-.952.184-1.67-1.05-2.441-1.05l-.193.765c.823.455 1.592 1.402 2.454 1.764l-.207 1.166c-.616-.102-1.823-1.309-2.247-1.309-.333.377-.436.624-.141.947 0 .041 1.412 1.169 2.183 1.494-.501 3.632-3.12-1.35-3.171.816.603.727 1.772 1.22 2.337 2.14-.154.545-.309.87-.451 1.26-3.391-2.947-6.652-5.229-10.825-6.978v-.002zm-2.493 5.683c-.963.078-2.979-.622-3.069-1.764 1.862.143 1.207.855 3.069 1.764zm-2.12-5.889c-1.154-.04-4.854-1.402-6.049-3.257.348 0 3.238 2.322 6.217 2.453 2.337.102 5.163-.43 6.191-1.883h.09c-.758 1.74-4.161 2.763-6.449 2.687zm-12.984-1.557v-9.095c.18-.09 1.003 1.882 1.054 2.14 1.039 5.5.219 6.914-1.054 6.953v.002zm13.383-.311c-2.351-.195-5.304-1.504-6.845-3.826l.039-.015c2.439 1.973 4.828 2.971 7.05 2.984 2.799.014 4.162-.83 7.154-2.593-1.31 1.985-4.649 3.254-7.398 3.45zm-2.504-1.285l-.025-.09.025.09zm2.402-.505c-1.465-.013-5.37-1.35-8.001-4.825.18-.027 4.841 3.748 6.215 3.71 3.276 1.243 8.181-1.014 10.133-3.348-1.246 2.373-4.404 4.528-8.347 4.462zm2.619-1.74c-7.013.716-11.969-6.834-11.969-6.834l.09-.22c4.07 3.5 6.229 6.187 10.261 6.367 4.342.196 6.397-2.102 7.578-6.11h.141c-.09 2.971-1.977 6.37-6.101 6.8v-.003zm-30.632-.569c-3.544-.26-6.563-3.243-5.779-6.357.591-.792 1.772 2.711 3.688 3.166 3.247 1.44 6.524-1.453 7.127-2.673.424-.843 1.322-.998 1.785-.573-.412 2.22-2.595 3.452-3.584 4.076-1.952 1.142-4.16 1.023-5.316.362-.411-.038-.592.273-.117.559 2.313 1.166 3.649.583 5.266.039a1.86 1.86 0 011.246-.43c.669.753-2.929 2.09-4.314 1.831h-.002zm23.157-4.722l1.363-.43c.796 1.506 3.902 3.634 6.524 2.374 2.877-1.36 2.775-3.982 2.607-6.548l1.322.297c.475 1.764.874 5.668-3.442 7.575-3.377 1.493-6.858-.843-8.374-3.268zm7.488 1.127c-2.094.843-3.942-.452-5.034-1.97.309-.221 1.066-.935 1.414-.974.423 1.571 1.668 1.934 2.901 1.53 1.412-.466 2.082-2.346.682-3.877.577-.338.976-.389 1.565-.364 1.169 3.658-.231 5.125-1.526 5.655h-.002zm-30.657-.478c-2.055-.273-2.697-1.39-2.851-2.558.205-1.179.655-1.256 1.478-1.346-1.633 3.073 4.931 3.904 4.379-.041.205-.076.166-.205.205-.336 0-.014-.205-.117-.307-.184-1.736-1.256-2.865-.945-5.19-.4-.129.195-1.926.686-2.298.764v-.024c-1.568-.221-2.132-1.154-2.505-2.466 3.199 1.545 4.559-2.36 7.281-2.865 3.571-.663 5.139 2.374 6.076 5.032.129 1.22-.682 1.023-.989.116-.681-2.75-2.107-3.683-5.009-3.396l.012.984c5.049.117 6.064 6.46-.282 6.72zm19.856-2.478c5.19-.7 5.009-2.415 8.271-4.645 1.169-.479 3.737.04 4.496.962-6.049.556-4.174 2.592-7.694 4.15-2.145.947-3.839.194-5.073-.467zm-5.034-5.112c-.772-6.641 5.881-8.456 10.891-6.914 4.43 1.555 6.961 2.167 11.431 1.103-1.451 4.087-4.586 3.659-5.779 4.138-4.06.286-4.779 3.23-8.503 5.358-3.198 1.208-7.617.013-8.04-3.685zm22.913 2.362a3.729 3.729 0 01-2.108-.856.739.739 0 01.052-.286c1.927.051 4.444-1.142 4.985-3.151.294.323.628.972.949 1.62-.745 1.752-1.926 2.673-3.878 2.673zm-20.306-2.296c-1.13-1.883.757-4.023 2.685-4.708 2.697-.52 6.19-.053 8.091 1.426-.116.43-.423 0-.669.155-3.325-.753-3.827 1.79-4.92 2.894-1.078 1.088-3.98 2.244-5.187.233zm17.943.323c-.721-.09-2.839-.49-2.943-1.375 1.236-1.588 4.922-.045 5.781-4.526.577.83 1.58 2.218 1.965 2.75-1.054 2.415-3.584 3.151-4.803 3.151zm-19.087-2.633c.489-2.906 2.928-4.06 3.919-4.215 3.98-.622 6.511 1.362 10.043 2.075-.014.13-.038.184-.077.298-2.478.051-7.668-2.864-10.597-1.387-1.002.505-1.373.597-3.288 3.229zm-.295-4.072c1.22-1.53 4.752-3.335 5.959-3.593 3.109-.792 4.932-.792 7.809 1.154.668.687.862 1.154.862 1.465-7.785-2.386-9.491-2.114-14.63.974zm-.964-1.31c1.541-4.904 6.989-8.563 12.074-6.396 1.066.61 2.544 1.83 1.066 2.607-3.571-.156-4.856-.063-6.601.48-1.529.48-3.737.96-6.037 4.048l-.064.012c-.745.766-.771-.05-.438-.753v.002zm19.498 1.077c-.45-.508.872-1.39 1.181-1.57l1.259 1.154c-.154.532-1.991.416-2.44.416zm-1.452-.054c-.797-.347.231-2.762.669-3.282l1.103.882c.528.416-.731 1.285-1.425 2.284l-.347.116zm-1.541-1.632c-.565-1.273-.129-2.063.616-2.791l.939.636c-.682.894-.886 1.363-.784 2.4.012.246-.372.156-.771-.245zm-20.857-1.869c.075.737-.334.414-.706.22-5.73-2.464-7.181-.985-11.11-.025-.489-.078-.195-.467.051-.547 3.325-1.827 6.19-2.968 10.171-2.28 0 .038.822.337 1.594 2.632zm19.649.064c-.36-.479-.589-1.36.156-2.18.462.275.718.455 1.064.778-.409.236-.641.585-.577 1.013 0 1.052-.45.493-.643.389zm-14.564-1.193c-.577-.027-.835-.221-1.015-.739v-1.258c.579 0 1.721.739 1.838-.104-.874-.492-1.157-.3-1.838-.661v-.974c1.081.104 1.991.389 3.031.648 1.195-1.207-2.517-1.231-3.031-1.581v-.714c2.646-.117 5.28.286 7.821.986l-.075.245c-2.159.144-4.124 1.637-5.794 3.413-.141.156-.36.766-.937.739zm17.351 51.058l-.038-.09.038.09zm-18.327-25.892l-.051-.103.051-.053v.156zm-.86-33.694l.013 1.808a1.608 1.608 0 011.477-1.141c.784 0 1.424.675 1.424 1.493h-2.093c-.268 0-.526.013-.808.013-5.947.272-13.858 2.23-18.483 7.055-.244.376-.013.558.501.286.544-.282 7.613-5.12 14.617-3.58 1.977 1.064 3.377 4.163 3.377 5.76v3.191c-2.439-2.983-8.272-5.189-11.931-4.45-1.066.221-.552.66-.36.739 3.094-.025 11.753 3.233 12.291 7.771l-.012 20.314c2.427.117 3.378-.61 3.904-1.13.809-.803 1.682-2.788 1.427-4.656l-.913.325h-.051c-.36 2.865-1.169 3.826-3.532 4.526v-1.193c1.643-.155 2.4-1.608 2.247-4.812-.154-3.05-1.04-5.474-2.274-8.003v-2.334c1.207 2.424 2.286 7.08 3.084 7.912.616-.221-.939-4.4-1.492-5.981.604-.726 1.645 1.635 2.274 2.867 1.131 2.84 3.943 12.467-.604 13.983-4.083 1.076-7.152.585-8.36-1.244-1.94-3.23 2.043-7.161.784-8.743l-1.08-9.912c-.784-6.94-10.287-9.338-14.036-4.876-.618.985.216.675.706.285 3.03-1.985 9.695-2.386 11.596 3.425.451 1.166.412 3.554-.898.454-2.3-3.634-5.703-5.32-9.698-2.439-.679.44-3.121 2.62-3.955 1.439-1.49-1.932 1.888-4.67 1.772-5.875l-.526.311c-2.376 2.01-3.995 6.926-2.478 10.792.231.998 1.348 1.894-.796 2.387-4.496 1.66-5.217 6.215-5.241 8.107 0 7.434 6.215 15.917 14.101 11.882a10.682 10.682 0 003.082-2.983l-.448-.364c-12.266 12.96-19.997-12.322-9.761-13.906 1.193 1.402 2.889 3.063 4.713 3.479 3.571.816 6.896-.676 10.725-6.11.604-.61.745-.027.642.284-.386 2.063-2.594 4.968-2.967 5.772-.219.481-.039 1.077.641.52.849-1.18 1.105-1.985 1.862-2.128l-1.695 3.632c-.63.986-1.143 1.555.526 1.336 1.568 0 .85.778 1.093 1.985 1.451 2.128-2.018 3.71-2.312.675.012-1.076.886-1.841.282-2.011-.628.207-1.438 1.764-1.477 3.489l-1.58 2.36.372.39 1.787-2.517c.796 1.805 3.685.777 3.839.74.63.025.976.18 1.324.65.024.66.448.854.589 1.763.925.986-.409 1.375-1.219 1.686-3.224 1.22-3.428 3.192-4.726 4.761-.861 1.064-1.219.7-2.003 1.517-.579 1.025.796 1.467 1.04 1.999.384.804 1.195 1.907 2.324 2.385.733.246 1.181.442.051 1.091-.822.559-1.18 1.985-1.18 2.451 0 1.232.268 2.816 1.848 3.839a18.64 18.64 0 01-2.44-.816c.821-1.038.09-1.351-.065-1.609-.373.09-.385 1.414-2.079.819.564-.987 4.006-5.01 2.324-5.593-1.363 2.31-1.888 4.969-4.829 4.45 1.297-.985 3.301-2.05 4.238-5.11l-.463-.156c-1.129 2.32-3.429 5.15-6.139 3.8 1.181-.571 1.979-1.076 2.607-1.582.565-.466 3.121-2.684 2.196-3.165-1.541 1.555-4.917 5.162-6.935 3.036 1.183-.327 2.454-.83 3.403-1.467.925-.622 2.274-1.946 3.006-2.386l-.309-.624c-.757.156-4.172 2.959-4.893 3.139-1.078.272-1.938 1.025-3.442-.649 1.94-.194 3.725-.75 4.586-1.297.694-.44 3.211-1.672 3.518-1.686l-.346-.622c-1.76.61-3.186 2.711-7.025 2.711-.283 0-1.785-.092-3.006-1.596l.026-.09c2.35.362 4.29.311 6.551-.364 1.091-.401 2.118-1.089 3.223-1.375l-.36-.829c-2.079.921-3.596 1.905-6.152 1.905-2.877 0-3.327.43-5.073-1.88.307-.362 2.415.687 3.866.687 3.16 0 4.586-.09 7.218-1.322l-.322-.623c-.886.388-2.965 1.012-4.866 1.09-4.316.039-7.629-1.895-7.848-3.736 1.232 1.037 3.057 2.322 5.151 2.555 1.604.168 5.92-.012 7.461-.597l-.256-.61c-.81.326-4.277.624-5.318.624-2.209 0-4.65-1.571-5.254-2.05-4.352-3.54-5.611-14.18-3.133-17.59.526-1.726 3.61-4.318 3.559-4.85-.516-5.021-.784-6.838 3.004-12.154-3.274 2.021-5.638 6.51-4.174 10.777.656 1.907-2.157 3.58-2.966 4.931-3.687 6.134-2.017 12.686.577 18.898 3.533 7.434 11.843 17.98 27.831 18.874 1.144.092 1.748.041 2.865 0 0 .806-.616 1.48-1.399 1.48-.577 0-1.234-.336-1.439-.844l-.063 1.545c-18.046-.468-32.495-15.477-32.507-33.819-.027-18.575 14.435-33.025 32.543-33.771h.002zm.821-.027V6.014c-20.01.08-34.471 16.125-34.447 34.87.027 19.496 14.617 34.57 34.447 35.01V74.74c18.444-.012 33.471-15.19 33.471-33.817 0-18.628-15.027-33.819-33.471-33.823v-.002zm4.586.98c.778.092 1.304.9 1.213 1.684-1.105-.17-1.692-.356-2.824-.399a1.48 1.48 0 011.611-1.285zm3.737.778c.763.184 1.217 1.053 1.035 1.823-1.078-.299-1.664-.56-2.783-.737a1.473 1.473 0 011.748-1.084v-.002zm3.519 1.193c.735.272 1.085 1.12.817 1.862-1.038-.424-1.586-.682-2.679-.989a1.473 1.473 0 011.862-.873zm3.596 1.649c.7.356.95 1.238.595 1.944-.98-.543-1.495-.864-2.545-1.298a1.47 1.47 0 011.95-.646zm3.327 2.179c.653.436.799 1.342.367 2.001-.911-.655-1.386-1.033-2.378-1.588a1.465 1.465 0 012.011-.413zm2.966 2.296c.599.511.638 1.428.133 2.032-.829-.757-1.257-1.191-2.178-1.858a1.463 1.463 0 012.045-.174zm2.928 2.789c.536.577.471 1.493-.102 2.034-.735-.852-1.109-1.33-1.948-2.104a1.46 1.46 0 012.05.07zm7.836 17.758a1.447 1.447 0 01-1.197 1.637c-.15-1.117-.199-1.727-.477-2.838a1.48 1.48 0 011.674 1.201zm-1.682 15.1a1.432 1.432 0 01-1.846.82c.421-1.044.679-1.599.984-2.702a1.495 1.495 0 01.862 1.883z" fill="#0060AA"/><path fill-rule="evenodd" clip-rule="evenodd" d="M265.35 51.82c-.109.3-.319.553-.594.713-.272.16-.587.227-.9.192l-.045.113-.047.116a1.458 1.458 0 001.552-.348c.129-.136.229-.297.293-.472.099-.278.112-.58.035-.866a1.526 1.526 0 00-.438-.734c.117.19.191.401.219.622.028.224.002.452-.075.665zm1.684-15.1a1.38 1.38 0 01-.203.978 1.471 1.471 0 01-.786.61c.017.121.034.243.049.364a1.48 1.48 0 00.938-.575 1.392 1.392 0 00.1-1.516 1.537 1.537 0 00-.293-.37c.096.157.162.33.195.511v-.002zm-7.666-17.531c.166.283.23.614.18.939-.05.331-.209.637-.452.867-.322-.37-.575-.67-.827-.957-.263-.3-.539-.589-.827-.866a.668.668 0 00-.018.017l-.019.018c.42.385.723.698 1.013 1.023.291.322.567.655.936 1.079a1.5 1.5 0 00.466-1.003 1.387 1.387 0 00-.407-1.074l-.045-.043zm-2.816-2.68a1.494 1.494 0 01-.149 1.698c-.363-.334-.649-.602-.933-.858-.297-.266-.604-.52-.921-.76a.337.337 0 00-.033.034.346.346 0 00-.033.037c.461.333.798.61 1.124.896.325.286.64.583 1.054.962a1.495 1.495 0 00.219-1.569 1.382 1.382 0 00-.326-.44h-.002zm-2.84-2.2c.14.234.211.504.204.777a1.506 1.506 0 01-.247.794c-.399-.286-.715-.522-1.028-.74-.326-.232-.662-.45-1.006-.653a3.204 3.204 0 00-.084.116c.495.277.861.512 1.219.757.356.246.702.506 1.159.833.191-.294.274-.646.235-.994a1.387 1.387 0 00-.452-.89zm-3.191-2.1c.127.209.199.45.209.698.01.255-.044.508-.158.737-.421-.234-.757-.426-1.086-.604-.342-.186-.692-.36-1.048-.518-.037-.016-.135-.061-.227-.098a1.855 1.855 0 00-.174-.07c-.008.015.057.083.123.152.065.07.133.14.125.153.526.215.916.406 1.299.608.383.203.755.418 1.246.69.146-.291.193-.621.135-.942a1.407 1.407 0 00-.444-.806zm-3.448-1.583a1.488 1.488 0 01.123 1.289c-.458-.19-.823-.346-1.179-.487-.375-.15-.757-.284-1.144-.401l-.174-.051-.174-.052c-.018-.006.023.056.08.125.052.067.11.13.172.186.547.156.956.297 1.361.45.403.158.798.328 1.318.54.101-.279.117-.582.047-.871a1.45 1.45 0 00-.43-.726v-.002zm-3.38-1.146c.223.358.297.79.204 1.2-.481-.134-.863-.259-1.24-.374a11.13 11.13 0 00-1.199-.302l-.174-.03-.174-.028c-.023-.004.033.068.098.143.068.076.143.156.164.168.561.088.986.197 1.408.322.421.124.837.265 1.375.415a1.568 1.568 0 00-.033-.827c-.08-.263-.228-.5-.429-.687zm-3.592-.75c.193.309.276.673.237 1.034-.497-.078-.89-.157-1.274-.225a10.773 10.773 0 00-1.224-.157l-.16-.009-.159-.008c-.023 0 .012.057.067.127a1.1 1.1 0 00.184.184c.565.02.995.08 1.423.154.425.073.849.163 1.401.247a1.61 1.61 0 00-.495-1.346zm20.327 10.798a33.802 33.802 0 00-11.233-8.999 32.968 32.968 0 00-14.398-3.427l-.135-.002-.137-.004.137.158.135.16a32.92 32.92 0 0114.363 3.285 33.781 33.781 0 0111.268 8.83zM234.539 6.016c-10.005.04-18.622 4.072-24.737 10.435-6.112 6.363-9.72 15.062-9.71 24.435.006 4.42.761 8.61 2.155 12.457a33.985 33.985 0 005.994 10.38 34.024 34.024 0 01-5.806-10.263 36.623 36.623 0 01-2.085-12.26c-.012-9.27 3.52-17.88 9.512-24.225 5.991-6.343 14.445-10.507 24.28-10.634l.149-.012.248-.313zm-.54 67.527a1.06 1.06 0 01-.256-.37l-.033.77-.03.772a32.796 32.796 0 01-13.73-3.392 33.597 33.597 0 01-10.811-8.51 33.632 33.632 0 0010.887 8.73 32.796 32.796 0 0013.911 3.485l.031-.743.031-.742zm2.548-.684c-.067.32-.236.608-.481.823a1.344 1.344 0 01-.884.333 1.74 1.74 0 01-1.128-.421c.14.23.343.416.585.534.248.129.522.197.8.2a1.359 1.359 0 00.995-.437c.262-.284.407-.656.405-1.042l-.149.006-.143.004zm-24.776-52.827c.221-.33.447-.655.677-.978a10.062 10.062 0 00-3.863 4.548c-.819 1.907-1.042 4.097-.311 6.23.327.954-.211 1.848-.934 2.675-.722.825-1.628 1.58-2.032 2.255-1.843 3.07-2.347 6.24-2.066 9.42.28 3.182 1.346 6.374 2.643 9.48a35.44 35.44 0 004.812 7.506 35.497 35.497 0 01-4.554-7.193c-1.297-3.108-2.363-6.298-2.644-9.48-.28-3.181.225-6.353 2.067-9.42.403-.675 1.31-1.43 2.032-2.255.723-.826 1.263-1.72.933-2.674-.659-1.924-.54-3.894.088-5.662a10.194 10.194 0 013.152-4.452zm7.966 35.396l-.073-.176-.074-.176c-.405.164-1.475.317-2.572.434-1.099.115-2.227.188-2.746.188-1.103 0-2.266-.39-3.228-.845a11.553 11.553 0 01-2.026-1.203 8.181 8.181 0 01-.91-.892c.18.227.368.444.563.646.196.201.397.39.607.557.301.242 1.062.753 2.024 1.207.962.45 2.124.843 3.227.843.502 0 1.56-.067 2.616-.176 1.054-.106 2.105-.253 2.592-.409v.002zm.391 1.293l-.09-.174-.09-.173a13.55 13.55 0 01-2.052.66c-.922.235-1.864.379-2.814.43a12.785 12.785 0 01-4.332-.683c-1.228-.434-2.204-1.036-2.814-1.699.532.73 1.508 1.412 2.789 1.907 1.281.494 2.865.803 4.615.786.923-.037 1.889-.204 2.74-.41.849-.204 1.586-.45 2.048-.644zm.438 1.244l-.077-.18-.078-.18c-1.04.46-1.938.937-2.898 1.3a8.875 8.875 0 01-3.254.607c-1.285 0-2.085.086-2.734-.024-.648-.113-1.144-.422-1.821-1.207.769.965 1.291 1.35 1.96 1.495.672.145 1.49.05 2.853.05a8.85 8.85 0 003.207-.59c.945-.352 1.829-.818 2.842-1.27zm.624 1.523l-.094-.17-.094-.168c-.88.303-1.676.982-2.732 1.584-1.056.601-2.374 1.125-4.293 1.125a3.37 3.37 0 01-1.034-.19 4.25 4.25 0 01-1.71-1.105v.006l-.002.008c.609.751 1.289 1.15 1.854 1.361.562.21 1.009.235 1.15.235a8.226 8.226 0 004.25-1.105c1.05-.589 1.842-1.262 2.705-1.581zm.559 1.117l-.084-.17-.086-.17c-.378.078-1.422.819-2.46 1.56-1.039.742-2.073 1.49-2.433 1.58-.501.126-.957.357-1.453.398-.495.041-1.029-.106-1.69-.739l-.02.002h-.021c.753.84 1.343 1.069 1.881 1.056.538-.012 1.023-.268 1.561-.405.348-.088 1.322-.786 2.323-1.5 1-.716 2.03-1.45 2.482-1.612zm.864 1.473a.35.35 0 00-.197-.374c-.73.736-1.87 1.933-3.084 2.762-1.213.83-2.498 1.295-3.517.567-.013.004-.299-.256-.312-.252-.012.002.248.268.234.272.996 1.05 2.322.704 3.597-.102 1.273-.808 2.495-2.077 3.279-2.87v-.003zm1.534.933l.033-.102.033-.102-.231-.078-.232-.078c-.53 1.09-1.319 2.292-2.287 3.122-.968.83-2.114 1.284-3.363.88-.043 0-.476-.22-.515-.204-.039.02.151.209.284.317 1.355.675 2.607.305 3.663-.524 1.054-.829 1.911-2.116 2.476-3.278l.07.025.069.022zm1.069.843a.582.582 0 00-.148-.231.729.729 0 00-.264-.153c-.632 1.072-1.084 2.218-1.682 3.09-.585.85-1.309 1.436-2.478 1.423-.059 0-.188 0-.315-.016-.168-.02-.338-.053-.358-.039-.056.041.053.213.262.303 1.471.26 2.337-.274 3.008-1.164.669-.888 1.14-2.13 1.821-3.284a.862.862 0 01.154.071zm-.293 4.83a1.308 1.308 0 00-.196-.252c-.07-.07-.133-.132-.166-.189-.172.041-.266.342-.483.6-.217.255-.557.466-1.214.327-.075-.01-.409-.143-.388-.098.147.315.427.376.738.43.541.09.852-.068 1.06-.28.262-.267.358-.62.545-.666.03.046.065.089.104.127zm1.903 1.92a16.892 16.892 0 01-1.823-.603 1.313 1.313 0 01-.057.08l-.064.081a17.67 17.67 0 002.441.819 3.982 3.982 0 01-.497-.376zm.252-6.821c-.014.073-.072.157-.182.255-.155.13-.322.243-.5.338-.411.28-.706.778-.898 1.26a3.78 3.78 0 00-.282 1.193c0 .496.043 1.05.198 1.603.158.552.424 1.098.874 1.585a3.995 3.995 0 01-.661-1.446 6.073 6.073 0 01-.153-1.429c0-.233.09-.708.282-1.192.192-.485.487-.983.898-1.26.424-.242.626-.422.674-.566.049-.143-.058-.245-.25-.341zM230.34 49.2c.018.319.131.532.256.773.126.244.264.518.335.966.463.491.358.837.039 1.095-.319.26-.855.435-1.26.591-1.611.61-2.468 1.408-3.084 2.25-.618.84-.993 1.726-1.642 2.511-.431.532-.736.706-1.031.852-.295.143-.581.257-.972.665-.149.266-.17.49-.111.691.072.202.194.382.355.524a.808.808 0 01-.127-.407.952.952 0 01.141-.495c.391-.41.677-.522.972-.665.297-.146.602-.322 1.031-.854.649-.783 1.023-1.67 1.641-2.51.616-.841 1.474-1.64 3.086-2.251.404-.154.94-.327 1.259-.59.321-.26.424-.6-.039-1.094a2.898 2.898 0 00-.34-.976c-.127-.246-.239-.458-.251-.79a2.426 2.426 0 00-.256-.286h-.002zm-4.062-4.803c.016-.081.014-.153-.017-.208-.03-.058-.09-.099-.186-.125-.315.102-.673.544-.96 1.174a6.049 6.049 0 00-.515 2.313l-.79 1.182-.79 1.18.137.144.137.143.782-1.166.782-1.168a6.094 6.094 0 01.491-2.26c.274-.621.62-1.07.929-1.207v-.002zm1.756-.548c.049.174.032.393.02.655-.02.3-.003.6.051.896.563.825.385 1.57-.061 1.993-.446.423-1.161.526-1.668.07.454.732 1.258.746 1.797.351.536-.395.806-1.199.19-2.101-.094-.464-.045-.863-.039-1.18.006-.318-.029-.553-.29-.684zm-.115-4.837l-.716 1.535-.717 1.532c-.237.373-.46.685-.552.92-.092.234-.057.39.219.44.044-.158.114-.309.207-.445.106-.176.243-.379.384-.602l.848-1.817.849-1.815a1.083 1.083 0 00-.522.252zm.755-4.966a.793.793 0 01-.029.237c-.194 1.032-.843 2.271-1.489 3.356-.647 1.086-1.292 2.013-1.478 2.414a.868.868 0 00-.078.5c.027.143.109.245.25.245a.859.859 0 01.086-.43c.186-.403.831-1.33 1.477-2.414.649-1.084 1.296-2.326 1.49-3.36a.66.66 0 00.006-.368c-.034-.113-.108-.194-.235-.18zm-5.947 16.92l.025-.033.022-.033-.225-.184-.223-.18c-2.433 2.57-4.686 3.636-6.657 3.68-1.97.044-3.659-.932-4.958-2.444 1.289 1.637 3 2.733 5.018 2.758 2.017.024 4.34-1.023 6.855-3.681l.072.06.071.056zm-8.204-30.034c.039-.091.069-.186.09-.282a.811.811 0 00.019-.246l-.262.154-.264.155c-1.189 1.007-2.188 2.738-2.699 4.702-.512 1.965-.539 4.158.221 6.092.114.499.452.971.493 1.383.039.409-.217.757-1.291 1.002-2.247.831-3.551 2.384-4.296 3.968-.596 1.3-.917 2.71-.943 4.14 0 1.698.323 3.45.919 5.094.593 1.645 1.457 3.184 2.537 4.453a14.726 14.726 0 01-2.351-4.338 15.096 15.096 0 01-.847-4.897c.026-1.43.347-2.84.943-4.141.745-1.582 2.048-3.135 4.297-3.965 1.073-.246 1.329-.594 1.29-1.003-.041-.41-.379-.884-.494-1.385-.759-1.932-.732-4.128-.221-6.092.512-1.964 1.511-3.695 2.7-4.7l.079-.047.082-.047h-.002zm11.21 5.244c-1.129-1.42-2.468-2.396-3.968-2.696-1.502-.301-3.167.073-4.95 1.358-.321.209-1.031.802-1.782 1.248-.751.446-1.539.745-2.014.363l.047.071.051.072c.418.589 1.236.34 2.037-.113.8-.45 1.579-1.107 1.919-1.328 1.717-1.236 3.323-1.63 4.78-1.391 1.455.241 2.763 1.115 3.88 2.416zm.532-1.557c.236.303.451.637.643 1.003a7.8 7.8 0 01.503 1.201c.16.415.258.986.26 1.408 0 .423-.096.695-.325.52.366.57.54.409.575-.019a4.134 4.134 0 00-.252-1.596 7.774 7.774 0 00-.607-1.393 6.506 6.506 0 00-.797-1.126v.002zm1.324-.43c-1.512-1.923-3.896-3.069-6.27-3.296-2.373-.227-4.737.465-6.21 2.22-.191.303-.244.483-.211.577.032.094.149.1.299.055a2.63 2.63 0 01.169-.319c1.433-1.706 3.708-2.408 6.017-2.238 2.306.17 4.645 1.213 6.206 3.002zm9.485 7.275c.236.327.477.759.707 1.2.229.44.444.889.624 1.243.567 1.42 1.551 4.536 1.827 7.489.276 2.948-.157 5.735-2.431 6.494-1.872.493-3.534.657-4.899.512-1.365-.144-2.435-.596-3.127-1.334.628.87 1.701 1.416 3.115 1.616 1.414.197 3.169.045 5.169-.48 2.273-.76 2.707-3.547 2.431-6.497-.276-2.95-1.261-6.067-1.828-7.49-.212-.419-.474-.97-.751-1.483-.276-.515-.566-.994-.837-1.27zm-2.277-1.801c.552 1.258 1.072 2.906 1.549 4.334.477 1.428.907 2.637 1.277 3.022l.014-.006.015-.008c-.385-.676-.825-2.022-1.306-3.475-.479-1.453-1.001-3.012-1.549-4.113v.246zm4.301 11.327l-.014-.196-.022-.194-.457.163-.456.16h-.051c-.174 1.381-.451 2.318-.956 3-.503.679-1.469 1.178-2.55 1.526l.231.315c1.181-.35 1.975-.765 2.518-1.453.542-.683.834-1.64 1.015-3.075h.051l.346-.123.345-.123zm-6.421-17.32c.283.357.522.748.712 1.162a4.2 4.2 0 01.354 1.24l-.006 10.155-.006 10.157c.086.006.172.01.258.01l.006-10.005.006-10.006a4.27 4.27 0 00-.434-1.408 6.338 6.338 0 00-.89-1.305zm-.676-9.155c.537.688.97 1.486 1.273 2.253.301.765.469 1.5.469 2.052v3.192c-1.22-1.493-3.287-2.79-5.507-3.621-2.22-.833-4.594-1.2-6.423-.829-.504.102-.655.258-.655.397.002.143.153.27.26.327-.007-.073.028-.149.128-.22.161-.098.339-.163.524-.19 1.83-.37 4.204-.005 6.424.828 2.22.83 4.287 2.128 5.507 3.622V19.13c0-.597-.195-1.401-.542-2.232a8.947 8.947 0 00-1.458-2.386v.002zm4.404-6.036c.149.243.228.522.227.806h-2.093c-.135 0-.266.004-.399.007a27.89 27.89 0 01-.409.006 35.904 35.904 0 00-9.737 1.82c-3.301 1.128-6.434 2.824-8.746 5.239-.094.145-.117.264-.08.335.039.072.139.099.288.064l.023-.041.027-.047c2.312-2.415 5.447-4.109 8.746-5.236a35.916 35.916 0 019.737-1.821c.141 0 .276-.002.409-.006.133-.002.264-.007.399-.007h2.093a1.542 1.542 0 00-.487-1.119h.002zm-2.674.456c.023-.09.056-.177.098-.26.044-.084.095-.165.153-.24l-.002-.498-.004-.497c-.051-.088-.204-.242-.253-.31-.009.284-.011.568-.005.852l.013.953zm4.07 3.14c-.061-.32-.61-.512-1.244-.651-.637-.14-1.357-.227-1.76-.338v.213c.18.123.753.204 1.371.313.616.108 1.277.241 1.633.462zm-1.465 1.636a.97.97 0 00.041-.16 3.201 3.201 0 00-.882-.351c-.236-.058-.442-.086-.698-.189v.193c.299.16.52.213.749.262.229.049.464.096.79.245zm-.782 1.944a1.699 1.699 0 01-.374-.053.851.851 0 01-.279-.13.834.834 0 00.344.367c.177.085.371.13.567.13a.764.764 0 00.632-.302c.146-.17.236-.36.305-.438.835-.89 1.744-1.706 2.714-2.32.97-.614 2.001-1.02 3.079-1.093l.039-.122.039-.123-.166-.045a13.995 13.995 0 00-.163-.043l-.004.01-.002.01c-1.081.072-2.11.481-3.08 1.093-.97.614-1.879 1.432-2.714 2.32-.069.078-.159.268-.305.438a.755.755 0 01-.632.301zm15.725-.172c-.175.103-.32.249-.422.424a.857.857 0 00-.096.552c0 .44-.08.598-.184.626-.107.027-.24-.075-.348-.16.043.083.092.162.147.236.096.051.258.217.395.24.135.02.248-.103.248-.629a.869.869 0 01.11-.579c.116-.183.278-.332.469-.434a9.353 9.353 0 00-.319-.276zm-32.593 1.488c-.007 0-.013 0-.017.004l-.016.002c-.246-.037-.293-.156-.25-.272a.512.512 0 01.301-.272c1.662-.915 3.211-1.658 4.84-2.085a12.206 12.206 0 015.331-.197c0 .01.067.041.18.135.112.092.27.246.454.497a1.96 1.96 0 00-.272-.245c-.066-.047-.102-.068-.102-.076a12.221 12.221 0 00-5.333.199c-1.629.43-3.176 1.17-4.84 2.087a.475.475 0 00-.156.086.49.49 0 00-.12.135v.002zm34.125-.38c-.313.417-.515.744-.63 1.09-.113.348-.135.716-.084 1.217.004.102-.057.146-.162.135a.91.91 0 01-.407-.202l.027.067.028.066c.149.164.334.29.541.368.145.04.237.002.231-.123-.051-.517-.027-.894.098-1.252.123-.358.344-.698.686-1.146l-.164-.11-.164-.11zm1.95 1.499c.029.231-.21.536-.53.892-.319.354-.72.757-1.017 1.187l-.172.057-.169.058c.02.073.053.139.094.192a.415.415 0 00.159.123l.172-.058.174-.06c.346-.498.835-.965 1.171-1.36.335-.393.518-.716.256-.92l-.07-.056-.068-.055zm1.975 1.887c-.118.21-.528.306-.986.345-.456.041-.958.025-1.259.019a.377.377 0 00.004.163c.015.05.041.1.082.146.223 0 .796.03 1.33-.008.535-.037 1.034-.14 1.11-.406l-.142-.13-.139-.13zm-8.365-5.887c.163.241.247.489.198.724-.049.237-.235.463-.608.659-1.786-.078-3-.094-3.984-.02-.89.059-1.769.227-2.617.5-.766.24-1.699.48-2.73 1.044-1.032.57-2.157 1.46-3.307 3.004l-.033.006-.031.006a1.9 1.9 0 01-.215.195.69.69 0 01-.167.096c-.009.178.032.307.137.327.28.058.843-.732 1.05-.93 1.101-1.063 1.94-1.904 2.824-2.389 1.031-.566 1.966-.806 2.729-1.045a10.894 10.894 0 012.618-.503c.984-.072 2.2-.056 3.984.022.456-.24.63-.522.622-.814-.008-.293-.198-.598-.47-.882zm1.626 4.555c.158.208.262.39.326.548.057.128.088.265.092.405-3.428-1.052-5.679-1.586-7.561-1.592-1.883-.006-3.4.516-5.362 1.582-.431.3-.833.64-1.201 1.015-.087.09-.17.184-.248.282 2.568-1.545 4.281-2.384 6.323-2.54 2.043-.155 4.415.373 8.307 1.566a1.182 1.182 0 00-.143-.52 3.473 3.473 0 00-.533-.746zm-13.917 5.999c.246-1.453.976-2.468 1.772-3.139.794-.671 1.652-.998 2.147-1.076 1.989-.311 3.618.028 5.189.536 1.572.507 3.088 1.183 4.852 1.538a.664.664 0 01-.022.134c-.01.037-.022.075-.035.112-1.684-.38-3.151-1.033-4.68-1.516-1.527-.483-3.117-.794-5.046-.491-.432.067-1.136.325-1.836.833a5.131 5.131 0 00-1.803 2.342l-.258.346-.28.38zm19.087 2.633a9.45 9.45 0 01-1.285-.26c-.506-.14-1.022-.34-1.341-.607.18.374.735.648 1.328.839.592.192 1.224.3 1.555.341.61 0 1.548-.184 2.464-.67a5.11 5.11 0 002.339-2.48l-.91-1.265c-.355-.493-.706-.988-1.054-1.486l-.004.02a.049.049 0 00-.004.021c.29.415.636.898.949 1.336l.766 1.06c-.526 1.207-1.423 1.995-2.34 2.48-.916.487-1.854.671-2.463.671zm-17.943-.323c-.565-.941-.375-1.946.196-2.803a5.2 5.2 0 012.489-1.907 12.75 12.75 0 014.344-.035c1.447.237 2.796.724 3.747 1.463a.903.903 0 01-.039.1c-.974-.655-2.283-1.082-3.667-1.283a12.71 12.71 0 00-4.127.07 5.198 5.198 0 00-2.489 1.905c-.571.857-.761 1.862-.196 2.803.014.024.029.047.045.07l.045.067a2.105 2.105 0 01-.348-.45zm20.306 2.296a4.156 4.156 0 01-1.007-.22 3.603 3.603 0 01-.837-.44l-.004.058-.002.06c.309.245.614.435.954.577.338.143.71.233 1.154.278.976 0 1.76-.232 2.392-.68.633-.45 1.114-1.117 1.486-1.992a18.157 18.157 0 00-.485-.934 3.925 3.925 0 00-.465-.69.048.048 0 00-.004.013l-.004.01c.115.174.232.379.348.598.117.219.235.454.352.69-.372.875-.853 1.542-1.488 1.992-.632.45-1.414.68-2.39.68zm-.749-7.763c-.755 1.823-1.872 2.64-2.945 3.059-1.072.417-2.101.438-2.676.669-2.03.143-3.223.951-4.377 1.988-1.153 1.038-2.264 2.307-4.126 3.37a7.37 7.37 0 01-3.769.35c-1.247-.21-2.401-.752-3.199-1.63.755 1.008 1.938 1.64 3.246 1.905a7.359 7.359 0 003.98-.311c1.862-1.064 2.973-2.333 4.125-3.37 1.155-1.038 2.348-1.846 4.378-1.99.597-.239 1.678-.25 2.793-.715 1.113-.465 2.261-1.378 2.986-3.422l-.209.05-.207.047zm-4.44 6.836c-2.978.284-4.005.933-4.728 1.704-.722.772-1.137 1.664-2.889 2.44-.925.409-1.766.5-2.523.42a6.14 6.14 0 01-2.014-.613l-.137.02-.141.019c.618.331 1.348.683 2.196.837.845.151 1.804.102 2.877-.369 1.76-.78 2.171-1.677 2.899-2.45.727-.774 1.771-1.423 4.795-1.703a2.032 2.032 0 00-.335-.307v.002zM224.19 28.1a3.106 3.106 0 00-1.629-1.167c-.679-.212-1.5-.26-2.496-.161l.006.493.006.493.129.004.127.008-.006-.343-.004-.342c.898-.088 1.655-.062 2.294.102.636.164 1.154.463 1.573.913zm.215-1.347a8.91 8.91 0 01.956 1.582c.272.565.501 1.15.702 1.719.045.415-.021.667-.139.782-.117.114-.287.094-.45-.04.18.312.419.471.601.418.18-.053.301-.317.246-.847a16.222 16.222 0 00-.794-1.907 8.053 8.053 0 00-1.122-1.707zm-1.426 3.59l.012-.072.015-.074a.597.597 0 00-.115-.072 3.737 3.737 0 01-.192-.11c-.868-.63-1.584-.866-2.374-.878-.79-.01-1.654.205-2.816.475-.063.098-.546.27-1.058.428-.512.157-1.054.3-1.24.337v-.024a3.266 3.266 0 01-.956-.273 2.32 2.32 0 01-.683-.486c.196.28.438.515.747.695.311.184.685.311 1.15.375v.028c.186-.039.728-.18 1.24-.337.513-.158.994-.33 1.058-.428 1.162-.272 2.026-.485 2.816-.475.79.012 1.506.248 2.373.878l.011.006.012.008v-.002zm-4.774 1.515c.08.287.206.504.421.696a1.363 1.363 0 01-.208-.743c.011-.325.101-.643.261-.926-.04-.174-.178-.326-.247-.316-.199.025-.36.825-.227 1.29zm1.59 2.62a4.537 4.537 0 01-1.271-.342 2.734 2.734 0 01-.843-.577c.207.3.491.567.88.78.387.212.876.368 1.492.45 2.267-.09 3.593-.96 4.133-2.042.541-1.085.293-2.384-.589-3.336.706.964.831 2.19.239 3.192-.591 1.003-1.895 1.787-4.041 1.875zm27.153-2.112c.066.164.142.311.225.442.081.126.175.243.281.348a2.49 2.49 0 01-.207-.379 2.985 2.985 0 01-.157-.45.7.7 0 00-.142.041v-.002zm3.504 2.59a3.447 3.447 0 01-2.585.031c-.786-.297-1.479-.845-2.036-1.481.553.712 1.273 1.354 2.106 1.718a3.475 3.475 0 002.775.046c.648-.267 1.322-.766 1.688-1.656.366-.89.424-2.169-.16-4l-.084-.002-.081-.002c.497 1.716.407 2.924.034 3.767a2.998 2.998 0 01-1.655 1.58h-.002zm4.397-5.164c.217.933.367 2.306-.051 3.673-.419 1.365-1.406 2.725-3.46 3.634-1.455.642-2.931.573-4.261.094a8.335 8.335 0 01-3.38-2.378 8.464 8.464 0 003.436 2.613c1.381.549 2.932.659 4.465-.018 2.157-.954 3.137-2.404 3.517-3.84.381-1.435.162-2.853-.075-3.735l-.096-.02-.095-.021v-.002zm-28.25 2.463c-.235 1.064-.884 1.897-1.592 2.538-.708.64-1.478 1.092-1.963 1.397a6.287 6.287 0 01-2.957.858c-.939.03-1.782-.164-2.359-.496-.203-.02-.348.047-.389.152-.039.106.027.252.25.393-.008-.076.03-.14.1-.18a.498.498 0 01.297-.052c.577.332 1.42.526 2.359.496a6.258 6.258 0 002.957-.86c.496-.309 1.29-.773 2.01-1.436.72-.663 1.369-1.527 1.574-2.636a.84.84 0 00-.287-.174zm-6.79 6.296a7.078 7.078 0 01-2.599-.71 6.618 6.618 0 01-2.042-1.538 6.477 6.477 0 002.106 1.753 7.063 7.063 0 002.793.806c.694.131 1.94-.139 2.928-.534.989-.394 1.721-.916 1.388-1.293a1.003 1.003 0 00-.199 0c-.139.377-.931.813-1.837 1.126-.909.313-1.934.503-2.538.389v.002zm36.856-6.07l-.129-.176a7.27 7.27 0 01-.088 1 7.286 7.286 0 01-1.789 3.775c-.988 1.07-2.382 1.85-4.22 2.04-2.562.262-4.852-.58-6.722-1.755-1.872-1.175-3.329-2.68-4.228-3.749.823 1.02 2.347 2.51 4.201 3.878 5.196 3.834 12.453 2.216 12.975-5.013zm-8.845 8.379c-.692-.007-1.926-.307-3.315-.989a13.304 13.304 0 01-4.234-3.274 13.252 13.252 0 004.353 3.518c1.444.73 2.74 1.051 3.454 1.058 2.851.081 5.57-.968 7.416-3.444.538-.722.686-1.334.602-1.187-.225.389-.905 1.349-1.21 1.57a9.265 9.265 0 01-3.026 1.992 10.145 10.145 0 01-4.04.756zm.102 1.79a9.909 9.909 0 01-3.313-.913 9.027 9.027 0 01-2.969-2.177c.802 1.03 1.887 1.834 3.045 2.404a9.968 9.968 0 003.495.999 13.195 13.195 0 004.05-.974c.064-.027.129-.05.19-.082 1.746-.927 2.736-2.02 3.127-2.893.086-.197-.9 1.048-1.072 1.146-.8.716-1.87 1.297-3.023 1.72a13.183 13.183 0 01-3.53.77zm-13.119-8.471c.313.587.577 1.199.79 1.83.485 2.557.565 4.233.385 5.295-.18 1.064-.62 1.514-1.179 1.628l-.256.019.256.323c.634-.02 1.158-.383 1.394-1.428.233-1.046.178-2.775-.342-5.525a9.588 9.588 0 00-.473-1.189c-.231-.511-.481-.982-.575-.953zm12.722 10.34c-.528-.02-1.579-.312-2.684-.799-1.103-.487-2.26-1.17-2.988-1.972.653.882 1.854 1.643 3.035 2.189 1.178.546 2.335.876 2.895.894 1.142.039 2.601-.112 3.796-.663.821-.376 1.953-.992 2.638-2.733-.022 0-.747 1.287-1.981 2.013a9.519 9.519 0 01-2.335.827 9.762 9.762 0 01-2.376.243zm1.818 5.89a4.262 4.262 0 01-1.222-.28 3.34 3.34 0 01-1.113-.667c.262.42.781.748 1.338.967.559.217 1.15.324 1.555.291a4.797 4.797 0 01-.558-.311zm13.976-.102l.048.067.045.072a7.259 7.259 0 01-.23.687c-.075.199-.149.377-.221.571a48.284 48.284 0 00-4.979-3.845 34.646 34.646 0 00-5.517-2.993.963.963 0 00-.071.172 34.595 34.595 0 015.707 3.042c1.76 1.159 3.424 2.464 5.12 3.937.07-.194.143-.372.219-.573a6.91 6.91 0 00.229-.685 2.83 2.83 0 00-.35-.454v.002zm.901-2.644c-.28 1.645-1.054 1.275-1.764.757-.71-.518-1.357-1.18-1.381-.114.08.096.167.187.259.272.043-1.03.711-.322 1.431.192.72.514 1.492.835 1.739-.97a2.626 2.626 0 01-.284-.139v.002zm.407-2.302l-.088.5-.086.499c-.309-.051-.765-.379-1.197-.696-.432-.313-.839-.614-1.052-.614-.166.186-.276.344-.307.491-.03.15.019.293.166.457l.033.032.088.08a.428.428 0 01.002-.352c.071-.146.164-.28.276-.397.213 0 .62.303 1.052.618.432.313.888.64 1.197.694l.102-.586.103-.583a2.712 2.712 0 01-.146-.065l-.143-.078zm-.029-3.192c.119.196.199.413.236.639.043.253.047.552.004.906-.475.09-.892-.172-1.287-.458-.395-.287-.768-.594-1.154-.594l-.097.383-.096.383c.101.055.199.115.293.182l.08-.318.079-.317c.385 0 .758.307 1.153.594.395.286.812.548 1.287.458.06-.384.039-.776-.062-1.152a1.578 1.578 0 00-.433-.704h-.003v-.002zm.25-2.437c.016.03.029.062.039.092a.329.329 0 01.014.088l.027.553.025.55c-.457-.143-.954-.48-1.447-.7-.496-.22-.987-.325-1.431 0a.681.681 0 00.307.577.778.778 0 01-.047-.266c.442-.323.933-.219 1.429 0 .493.221.992.559 1.446.702l-.024-.552-.027-.55a.471.471 0 00-.088-.24 1.426 1.426 0 00-.223-.254zm-.178-2.332c.068.12.119.266.145.446.027.178.031.388.011.64a6.132 6.132 0 01-1.007-.358c-.307-.135-.663-.305-1.294-.55-.176.092-.225.21-.196.337.055.155.154.29.284.389a.298.298 0 01-.02-.225c.025-.07.086-.133.19-.188.631.245.987.415 1.296.552.307.135.567.24 1.004.356a2.277 2.277 0 00-.067-.892 1.11 1.11 0 00-.346-.51v.003zm-.383-2.124c.083.112.148.236.193.368.036.1.035.21-.002.31-.36.021-.762-.255-1.138-.484-.379-.231-.731-.415-.995-.215a.92.92 0 00.117.46c.068.117.147.203.205.266l.032.035.035.035a.932.932 0 01-.131-.483c.264-.2.618-.016.995.215.376.23.777.505 1.138.487.055-.129.028-.286-.054-.454a2.42 2.42 0 00-.395-.54zm-.456-2.372c.033.117.09.252.143.393.058.141.098.289.119.44-.36 0-.726-.23-1.085-.42-.358-.188-.708-.337-1.035-.175l.006.02.006.018-.018.156-.019.155c.043.011.085.025.125.041l.158.074.006-.057.008-.056-.008-.02-.006-.02c.327-.162.677-.013 1.035.177.358.19.725.42 1.085.42a2.163 2.163 0 00-.145-.512c-.064-.163-.125-.31-.138-.433a2.376 2.376 0 01-.235-.2h-.002zm-.577-2.07l.111.388.112.389c-.411-.17-.739-.399-1.013-.483-.276-.084-.497-.022-.696.39.12.044.239.09.356.14.191-.28.406-.293.665-.194.26.098.567.305.946.46l-.117-.403-.114-.401a.387.387 0 00-.088-.147 1.016 1.016 0 00-.162-.14zm-.833-2.086l.15.336.147.334c-.205.065-.459-.007-.696-.087-.237-.08-.46-.165-.602-.133-.051.312 0 .467.066.557.063.09.141.117.141.168l.027.012.03.01a.714.714 0 01-.026-.178 1.391 1.391 0 01.02-.257c.141-.031.365.055.602.135.237.08.491.151.696.085l-.193-.433-.192-.436a1.178 1.178 0 00-.17-.113zm-3.949 2.732a.46.46 0 00-.029-.176.156.156 0 00-.104-.096 3.911 3.911 0 01-.7-.303 3.439 3.439 0 01-.723-.512c.148.246.414.471.704.661.267.173.553.316.852.426zm-.94 8.813l-.014-.086-.027-.086a10.47 10.47 0 00-.53-.332c-.145-.081-.26-.145-.348-.198.007.123.066.19.209.282.145.092.371.205.71.42zm-.305 2.193c-.053-.202-.284-.35-.566-.49-.283-.144-.619-.281-.878-.461l-.019.02-.018.02c.155.211.425.369.706.506.28.14.571.262.775.405zm1.586 3.51l.021-.05a.247.247 0 00.018-.053 33.125 33.125 0 00-1.925-1.267c-.876-.538-1.838-1.084-2.454-1.313a1.147 1.147 0 00-.096.13c-.025.036-.035.062-.031.077.415.05 1.281.499 2.169 1.019.888.52 1.797 1.11 2.298 1.456zm-10.886 5.778c-.424.008-.938-.164-1.431-.426a5.198 5.198 0 01-1.299-.978c.315.446.89.923 1.504 1.26.616.34 1.273.537 1.749.426a6.965 6.965 0 01-.523-.282zm-1.341 1.31c-.45-.036-1.105-.285-1.75-.635a7.19 7.19 0 01-1.694-1.242c.36.516 1.115 1.09 1.893 1.522.778.43 1.58.718 2.028.663a24.8 24.8 0 01-.477-.31v.001zM245.1 54.11c-.613.013-1.452-.327-2.246-.785a9.428 9.428 0 01-1.973-1.482c.317.47 1.219 1.208 2.196 1.774.978.57 2.032.964 2.65.747a5.127 5.127 0 01-.627-.252v-.002zm16.079-.372c-.522-.669-1.308-1.402-2.104-2.056a24.268 24.268 0 00-2.167-1.596l.004.077.002.076c.481.29 1.249.823 2.045 1.453.796.628 1.62 1.359 2.22 2.046zm.872-1.199c.276.383.313.655.223.941-.09.283-.307.577-.536 1.003.079.128.15.262.21.4.268-.513.53-.842.606-1.17.076-.327-.033-.658-.503-1.174zm-18.702 2.582c-.759-.037-1.59-.33-2.337-.73a7.294 7.294 0 01-1.84-1.371c.377.526 1.148 1.166 2.044 1.655.899.491 1.922.829 2.804.753-.226-.096-.45-.199-.671-.307zm-2.779.23a9.078 9.078 0 01-1.701-.713 7.863 7.863 0 01-2.151-1.645c.782 1.021 1.908 1.727 2.818 2.165.911.436 1.607.604 1.529.542l-.256-.178-.239-.172zm20.177-.84c.205.252.396.515.571.788-.155.313-.295.59-.43.847a15.65 15.65 0 01-.407.733l.082.166.076.161.039.013.038.012c.148-.246.283-.491.42-.751.139-.264.28-.546.44-.87a8.167 8.167 0 00-.37-.532 11.45 11.45 0 00-.459-.569v.002zm-1.758.17a11.04 11.04 0 00-.81-.916 8.163 8.163 0 00-.88-.774v.13c.295.198.587.435.872.699.284.266.558.556.818.86v.001zm-4.457-6.932c1.277 1.676 1.406 4.025 1.071 5.979-.336 1.952-1.138 3.507-1.719 3.593l.008.123.004.124c.554.42 1.504-1.158 1.919-3.28.416-2.121.297-4.785-1.283-6.539zm-.767 3.075a1.448 1.448 0 00-.71-.591c-.362-.16-.868-.28-1.574-.346-.841-.08-1.426-.773-2.255-1.362-.827-.59-1.897-1.075-3.704-.74a4.332 4.332 0 00-.372.457c2.087-.558 3.29-.11 4.195.497.904.608 1.508 1.377 2.394 1.461.534.05.954.131 1.283.238.329.106.569.237.743.388v-.002zm-.557 2.208c.162.268.215.559.295.851.076.328.24.628.475.868h.006c-.176-.295-.231-.598-.311-.89a1.607 1.607 0 00-.465-.829zm-9.704-7.388a2.48 2.48 0 01-.655 3.442 7.218 7.218 0 01-3.632 1.83c-1.289.26-2.66.256-4.111.256a3.23 3.23 0 00.299 1.412c.204.462.503.908.869 1.324a4.858 4.858 0 01-.683-1.18 3.18 3.18 0 01-.227-1.243c1.451 0 2.822.002 4.113-.255a7.211 7.211 0 003.63-1.834 2.465 2.465 0 00.951-2.843 2.462 2.462 0 00-.554-.91zm-1.381 2.34l.016-.02.017-.02c-.107-.195-.317-.297-.553-.39-.235-.093-.495-.18-.698-.335.12.222.315.393.551.483.227.104.473.176.667.282zm-.262 10.272c-1.85-.23-3.301-1.074-4.484-1.895-1.18-.82-2.093-1.616-2.863-1.739h-.783v1.985c-.976-.084-1.226-.26-1.498-.414-.272-.153-.563-.286-1.623-.286-.97 0-1.492.164-1.95.424-.459.26-.854.617-1.574 1.008-.094.068-.825.332-.892.424-.064.088.393.153.616.155.982-.446 1.457-.871 1.956-1.186.499-.311 1.023-.512 2.102-.512 1.06 0 1.35.133 1.623.287.272.153.521.327 1.498.413v-1.985h.783c.77.123 1.682.919 2.863 1.74 1.183.818 2.634 1.665 4.484 1.892.712.233 2.959-.923 5.304-1.889 2.343-.965 4.785-1.739 5.879-.732-.882-1.394-3.372-.694-5.826.293-2.453.986-4.872 2.26-5.615 2.015v.002zm16.84-2.365c.469.599.877 1.243 1.217 1.923a2.884 2.884 0 01-.362.526c-.151.188-.333.397-.538.65l.096.193.098.202c.219-.28.416-.503.579-.701.164-.2.295-.375.385-.557a10.846 10.846 0 00-1.475-2.236zm-.849 1.289a7.959 7.959 0 00-.498-.573 16.99 16.99 0 00-.622-.614.144.144 0 00-.01.02l-.012.025c.239.225.448.424.636.61.186.184.352.358.506.532zm-21.285.798c-.092.49-.205.785-.325.937-.121.15-.252.155-.377.07.158.272.344.435.52.341.178-.092.346-.444.468-1.199a6.598 6.598 0 00-.286-.151v.002zm10.316.667c.065.292.084.669.018 1.082a3.608 3.608 0 01-.483 1.304c.075.119.153.236.234.352a3.55 3.55 0 00.538-1.597 2.316 2.316 0 00-.166-1.166l-.072.013-.069.012zm-13.165 2.476v-.972c.204-.036.413-.03.614.02.131.051.199.147.232.307a.878.878 0 00-.242-.035c-.115 0-.231.007-.346.02v.68l-.129-.01-.129-.01zm4.687.208c-.142 0-.148-.075-.129-.172.018-.098.059-.216.014-.306a.45.45 0 01.311.026c.096.041.19.102.293.154.039.02.049.047.051.081 0 .033-.01.072-.014.11a.72.72 0 00-.183-.069.423.423 0 00-.2.008c.014.03.02.058.02.09a.595.595 0 01-.008.095 3.54 3.54 0 00-.155-.017zm-1.541-.143c.02-.123.028-.225.049-.315a.763.763 0 01.106-.268c.09.012.172.033.26.043a.86.86 0 00.278-.004c0 .061.009.116.017.168.006.053.016.102.018.155a1.71 1.71 0 01-.157-.02l-.158-.029a.743.743 0 00-.08.168 1.15 1.15 0 00-.041.174 2.497 2.497 0 01-.292-.072zm-1.502.053l.02-.376.019-.377.372.027.372.024a2.018 2.018 0 00-.006.156l-.004.14-.237-.017-.24-.017-.01.209-.012.209-.131.01-.143.012zm21.786-3.507a7.28 7.28 0 011.139 2.093l-.485.53-.483.532.133.28c.033.066.054.103.062.1l.516-.566.515-.565a7.309 7.309 0 00-1.397-2.406v.002zm-6.442-1.066c.253 1 .233 2.04.02 2.92-.213.88-.618 1.6-1.136 1.964a4.59 4.59 0 01-.039.24l-.047.253c.649-.233 1.171-1.002 1.443-1.999a6.147 6.147 0 00-.07-3.37l-.088-.006-.083-.004v.002zm-16.975 6.194v-1.115c.661.096 1.168.262 1.792.33.624.069 1.367.04 2.497-.253.123.015.184.062.207.123.022.062.006.137-.025.209-1.099.276-1.825.3-2.441.231-.614-.07-1.118-.231-1.772-.327v.88a2.58 2.58 0 01-.258-.078zm-2.376.777a8.198 8.198 0 01-2.159-.27c-.661-.184-1.232-.462-1.621-.845.323.491.913.85 1.631 1.085.78.237 1.592.353 2.407.343l4.796.007 4.797.006c.334-.79.63-1.449.768-1.979.135-.532.112-.933-.189-1.211l-.039-.035-.038-.035c.143.301.098.692-.056 1.183-.151.49-.413 1.076-.704 1.766l-4.796-.007-4.797-.008zm23.488-5.1c.465.603.792 1.15 1.038 1.732.245.584.409 1.203.544 1.955a7.4 7.4 0 01-.994 1.016l.028.232.029.245a7.22 7.22 0 001.195-1.18 8.792 8.792 0 00-.61-2.108 8.47 8.47 0 00-1.226-1.9l-.002.003-.002.004zm-1.592 2.035c.393.555.626 1.076.794 1.641.166.563.266 1.169.389 1.893-.035.117-.186.27-.372.421-.187.152-.41.3-.586.408l.013.216.01.226a5 5 0 00.663-.416c.254-.186.485-.395.53-.542-.135-.792-.242-1.445-.438-2.054a5.45 5.45 0 00-.986-1.801c-.002 0-.004 0-.007.004l-.01.006v-.002zm-1.882 1.408c.251.512.495 1.183.673 1.878.178.696.29 1.416.272 2.024a1.52 1.52 0 00-.481.29c-.168.136-.342.291-.507.414l.01.237.004.227c.198-.096.415-.286.626-.462.213-.176.422-.342.608-.393.018-.688-.127-1.518-.346-2.294a8.688 8.688 0 00-.798-1.974l-.031.026-.03.027zm-2.118.855c.315.667.591 1.248.781 1.897.191.647.297 1.365.266 2.304-.227.158-.432.303-.638.438-.216.142-.44.27-.671.385l.008.206.006.22c.315-.138.571-.281.814-.435.246-.153.477-.319.739-.5a6.97 6.97 0 00-.315-2.465c-.221-.691-.538-1.317-.892-2.076l-.049.014a2.513 2.513 0 01-.049.012zm-15.52 4.287v1.277a4.58 4.58 0 01-.854-.008 1.612 1.612 0 01-.697-.22c.098.262.362.412.695.488.334.077.737.081 1.114.053v-1.57a4.48 4.48 0 00-.258-.02zm12.299-4.068c.407.526.74 1.083 1.029 1.918.288.834.534 1.95.761 3.595a4.59 4.59 0 01-.653.333c-.224.093-.45.18-.679.262l.008.205.002.2c.276-.102.547-.196.81-.305a4.81 4.81 0 00.77-.382c-.25-1.81-.52-2.978-.847-3.837-.328-.86-.712-1.412-1.195-1.987h-.004l-.002-.002zm-11.233 3.4c.559-.007 1.037.062 1.412.201.372.14.64.344.775.602a2.068 2.068 0 00-.882-.395 4.75 4.75 0 00-1.305-.082v-.325zm-4.007 1.167c-.014-.493.307-.912.939-1.207.635-.299 1.578-.473 2.81-.48v.316c-1.148.029-2.028.213-2.617.508-.588.294-.886.7-.874 1.174.004.151.025.302.063.448.035.13.086.253.154.369a1.343 1.343 0 01-.342-.48 1.794 1.794 0 01-.133-.65v.002zm-2.57 1.506a2.097 2.097 0 01-.616-1.61c.039-1.232.935-1.872 2.138-2.202 1.206-.327 2.718-.348 3.989-.341v-.418l.129.002.129.002v.727c-1.271-.007-2.784.012-3.989.341-1.203.33-2.099.968-2.138 2.202-.008.24.02.48.084.712.061.215.155.41.274.585zm-1.398.13c.645.685 1.674 1.192 2.89 1.521a14.69 14.69 0 004.019.46v-.478h.258v.792c-1.5.026-3.009-.154-4.284-.534-1.274-.385-2.316-.972-2.883-1.76v-.002zm13.191-2.843c.115.168.203.35.266.548.062.199.098.414.105.645.036 1.074-.578 1.837-1.591 2.353-1.012.516-2.427.782-3.988.866l.004.163.002.162c1.619-.066 3.094-.321 4.158-.84 1.063-.513 1.711-1.288 1.672-2.393a2.26 2.26 0 00-.176-.835 2.096 2.096 0 00-.452-.669zm-5.468 3.922l-.002-.151-.004-.151c-1.285-.041-2.331-.13-3.151-.301-.821-.172-1.417-.426-1.799-.792.301.47.851.794 1.67 1.013.82.219 1.909.331 3.286.383zm8.018-1.923c.112.49.16.866.166 1.203a5.23 5.23 0 01-.084.962c-.583.139-1.161.266-1.736.379-.573.113-1.15.213-1.729.298-.368.11-.773.21-1.217.311a48.71 48.71 0 01-1.457.297 31.404 31.404 0 003.233-.34 40.149 40.149 0 003.164-.634c.063-.389.102-.733.075-1.15a7.626 7.626 0 00-.307-1.598l-.053.137-.055.135zm.818-4.902c.729.937 1.196 2.019 1.482 3.104.285 1.082.389 2.162.389 3.093a4.092 4.092 0 00-.688.205c-.229.086-.46.182-.691.264l-.033.204-.039.211c.289-.078.575-.194.859-.305.285-.11.567-.215.85-.266 0-.982-.117-2.136-.44-3.278-.324-1.145-.856-2.281-1.689-3.232zm-8.854-61.295a37.72 37.72 0 0116.649 3.855 38.713 38.713 0 0112.987 10.353A38.677 38.677 0 00251.25 6.296a37.73 37.73 0 00-16.465-3.767c-10.558 0-20.139 4.346-27.08 11.356a38.783 38.783 0 00-11.245 27.351c0 4.645.816 9.1 2.31 13.228a38.878 38.878 0 006.379 11.275 38.798 38.798 0 01-8.947-24.816c0-10.665 4.303-20.34 11.245-27.353 6.941-7.01 16.522-11.356 27.08-11.356v.002zm27.962 15.612a36.588 36.588 0 018.189 23.095c0 10.05-4.058 19.177-10.604 25.79-6.549 6.613-15.583 10.711-25.535 10.711a35.57 35.57 0 01-15.516-3.548 36.474 36.474 0 01-12.174-9.54 36.512 36.512 0 0012.248 9.765 35.569 35.569 0 0015.7 3.636c9.951 0 18.988-4.1 25.535-10.711a36.572 36.572 0 0010.604-25.79 36.565 36.565 0 00-2.247-12.661 36.718 36.718 0 00-6.2-10.747zm-.848 4.53c.181.301.241.66.168 1.003-.07.348-.261.66-.54.88l.11.163.117.174c.306-.228.514-.565.579-.94a1.392 1.392 0 00-.434-1.28zm2.002 3.116c.18.32.226.697.129 1.05a1.5 1.5 0 01-.622.86l.09.174.094.184c.331-.191.576-.502.685-.868a1.392 1.392 0 00-.397-1.436.081.081 0 00.011.02l.01.017zm1.541 3.606c.14.33.145.703.014 1.037-.127.334-.369.61-.683.78l.067.18.072.19c.35-.15.629-.43.779-.78a1.397 1.397 0 00-.343-1.591l.051.09c.014.03.03.061.043.094zm1.131 3.736c.097.338.062.7-.096 1.013a1.492 1.492 0 01-.739.696l.045.184.048.188c.365-.107.674-.351.863-.681a1.396 1.396 0 00-.274-1.744c.065.108.117.224.153.344zm1.028 7.81a1.393 1.393 0 01-.344.909 1.483 1.483 0 01-.839.477l-.012.337a1.47 1.47 0 001.019-.41 1.39 1.39 0 00.303-1.595 1.489 1.489 0 00-.35-.483c.071.112.127.234.163.362.04.13.06.267.06.403zm-.168 3.606a1.384 1.384 0 01-.434.85 1.47 1.47 0 01-.868.386l-.022.149-.025.157a1.47 1.47 0 001.431-.701 1.38 1.38 0 00.176-.528 1.436 1.436 0 00-.09-.69 1.515 1.515 0 00-.385-.565c.18.28.256.612.217.942zm-.784 3.891a1.375 1.375 0 01-.518.786 1.47 1.47 0 01-.886.289l-.037.133-.038.139c.369.089.758.031 1.086-.16a1.383 1.383 0 00.651-.873c.062-.26.05-.53-.035-.782a1.522 1.522 0 00-.413-.649c.206.334.274.734.19 1.117zm-2.49 7.614a1.371 1.371 0 01-.665.634c-.284.127-.601.16-.905.095l-.049.09-.051.094c.35.178.743.204 1.093.098a1.379 1.379 0 00.835-.696 1.52 1.52 0 00-.336-1.76c.132.216.208.46.221.713.014.252-.035.504-.143.732zm-1.953 3.27a1.353 1.353 0 01-.726.548c-.294.093-.61.091-.903-.006l-.047.068-.049.07c.315.21.699.292 1.073.226a1.363 1.363 0 00.91-.593c.192-.297.269-.653.219-1.003a1.485 1.485 0 00-.466-.904c.145.24.222.514.223.794.002.283-.08.56-.234.798v.002zm-2.324 3.073a1.35 1.35 0 01-.78.46 1.45 1.45 0 01-.89-.108l-.043.045-.041.047c.288.248.66.375 1.039.354a1.362 1.362 0 00.973-.485c.241-.293.36-.668.331-1.047a1.474 1.474 0 00-.473-.993 1.516 1.516 0 01-.116 1.73v-.003zm-2.595 2.932a1.353 1.353 0 01-.827.365 1.462 1.462 0 01-.87-.211.32.32 0 01-.028.026l-.031.027c.258.279.613.448.993.47a1.352 1.352 0 001.021-.364 1.46 1.46 0 00.45-1.02 1.466 1.466 0 00-.379-1.05.09.09 0 01-.014.014l-.012.014a1.518 1.518 0 01-.303 1.73zm-3.172 2.517c-.249.185-.554.28-.864.266a1.467 1.467 0 01-.841-.315l-.012.01-.012.008c.223.31.556.52.931.588a1.356 1.356 0 001.056-.246c.307-.233.51-.578.565-.96a1.478 1.478 0 00-.256-1.086l-.033.029-.033.028a1.51 1.51 0 01-.501 1.678zm-3.174 2.23c-.259.15-.561.208-.857.166a1.462 1.462 0 01-.786-.372c.195.313.499.544.853.646a1.35 1.35 0 001.048-.126 1.46 1.46 0 00.673-.888 1.466 1.466 0 00-.129-1.11l-.055.04-.055.036c.067.306.037.626-.084.915a1.445 1.445 0 01-.608.695v-.002zm-3.338 1.623a1.341 1.341 0 01-.792.082 1.435 1.435 0 01-.695-.358c.175.288.446.507.765.618.319.113.669.103.98-.029.353-.155.629-.444.77-.802a1.48 1.48 0 00.002-1.12l-.08.042-.078.04c.032.314-.034.629-.188.903a1.428 1.428 0 01-.686.624h.002zm-3.7 1.336a1.334 1.334 0 01-.712.013 1.44 1.44 0 01-.612-.336c.164.266.406.47.682.585.278.115.591.143.9.051a1.437 1.437 0 00.858-.706 1.48 1.48 0 00.131-1.11l-.103.04-.1.037a1.51 1.51 0 01-.288.882c-.184.26-.45.452-.756.544zm-3.994.909c-.209.035-.424.02-.626-.045a1.41 1.41 0 01-.53-.307c.145.235.354.424.601.546.246.119.526.166.813.117a1.452 1.452 0 00.935-.6c.224-.314.316-.705.256-1.086l-.125.03-.121.031a1.52 1.52 0 01-.382.855 1.441 1.441 0 01-.821.459z" fill="#0060AA"/><path d="M399.046 0v81.846" stroke="#828282"/><path fill-rule="evenodd" clip-rule="evenodd" d="M343.794 133H0V96.17h343.794V133z" fill="#DC4E25"/><path d="M142.466 119.475a4.544 4.544 0 00-.152-1.222 2.217 2.217 0 00-.628-1.053 3.389 3.389 0 00-1.351-.751c-.573-.189-1.363-.281-2.373-.281h-4.433v6.599h4.433c.765 0 1.459-.09 2.075-.282.611-.184 1.076-.42 1.403-.706a2.89 2.89 0 00.764-1.007c.18-.408.27-.851.262-1.297zm7.225-.188c0 1.264-.243 2.424-.751 3.484a6.979 6.979 0 01-2.073 2.603c-1.103.849-2.249 1.436-3.45 1.756-1.187.321-2.646.474-4.338.474h-12.504v-25.918h21.058v5.015h-14.102v4.649h5.66c1.897 0 3.436.127 4.638.388a8.197 8.197 0 013.19 1.433 6.14 6.14 0 012.032 2.637 9.358 9.358 0 01.643 3.479h-.003zm22.232 1.927a7.875 7.875 0 001.519-2.789c.323-1.076.491-2.334.491-3.785 0-1.555-.19-2.879-.577-3.974-.368-1.092-.86-1.972-1.473-2.645a5.59 5.59 0 00-2.141-1.519 6.99 6.99 0 00-5.018-.01c-.792.297-1.502.798-2.157 1.49-.611.652-1.103 1.555-1.483 2.694-.387 1.146-.575 2.464-.575 3.976 0 1.547.178 2.857.56 3.939.367 1.095.848 1.977 1.459 2.66a5.592 5.592 0 002.129 1.516 6.93 6.93 0 005.142-.004 5.763 5.763 0 002.124-1.549zm9.262-6.56c0 4.133-1.242 7.418-3.708 9.842-2.484 2.431-5.906 3.653-10.273 3.653-4.348 0-7.772-1.222-10.242-3.653-2.48-2.424-3.724-5.709-3.724-9.842 0-4.164 1.244-7.46 3.724-9.883 2.47-2.416 5.894-3.625 10.242-3.625 4.353 0 7.76 1.207 10.245 3.627 2.496 2.421 3.736 5.717 3.736 9.881zm20.487-4.634c0-.737-.211-1.363-.614-1.889a3.454 3.454 0 00-1.451-1.105 6.648 6.648 0 00-2.124-.458 60.77 60.77 0 00-2.767-.041h-1.201v7.747h2.003c1.187 0 2.167-.072 2.935-.211.773-.137 1.416-.42 1.934-.833.452-.376.775-.814.982-1.326.203-.513.301-1.148.301-1.884h.002zm7.222-.148a9.394 9.394 0 01-.639 3.399 7.61 7.61 0 01-1.815 2.791 11.184 11.184 0 01-3.61 2.314c-1.338.526-2.992.784-4.966.784h-4.349v8.444h-6.999v-25.918h11.509c1.721 0 3.182.143 4.365.421 1.109.256 2.168.69 3.137 1.285 1.091.686 1.924 1.555 2.495 2.627.591 1.062.872 2.349.872 3.853zm22.045 11.342c.682-.788 1.185-1.721 1.513-2.789.323-1.076.491-2.334.491-3.785 0-1.555-.191-2.879-.561-3.974-.383-1.092-.872-1.972-1.471-2.645a5.712 5.712 0 00-2.143-1.519 7.029 7.029 0 00-5.032-.01 5.855 5.855 0 00-2.153 1.49c-.601.652-1.109 1.555-1.492 2.694-.378 1.146-.57 2.464-.57 3.976 0 1.547.192 2.857.56 3.939.369 1.095.86 1.977 1.459 2.66a5.696 5.696 0 002.137 1.516 6.8 6.8 0 002.566.491c.9 0 1.75-.17 2.564-.495a5.56 5.56 0 002.13-1.549h.002zm9.271-6.56c0 4.133-1.239 7.418-3.721 9.842-2.472 2.431-5.891 3.653-10.258 3.653-4.365 0-7.773-1.222-10.257-3.653-2.482-2.424-3.706-5.709-3.706-9.842 0-4.164 1.224-7.46 3.706-9.883 2.484-2.416 5.892-3.625 10.257-3.625 4.338 0 7.762 1.207 10.24 3.627 2.482 2.421 3.736 5.717 3.736 9.881h.003zm21.266 4.909c0-.829-.164-1.457-.504-1.911-.329-.442-.902-.774-1.692-.995-.549-.147-1.293-.237-2.263-.247-.954-.004-1.955-.017-2.986-.017H252.5v6.456h.508c1.962 0 3.366-.004 4.211-.01.803 0 1.599-.155 2.343-.459.729-.288 1.23-.675 1.502-1.156.272-.478.412-1.031.412-1.661zm-1.695-10.548c0-.43-.121-.861-.34-1.293-.233-.426-.624-.745-1.184-.95-.52-.192-1.15-.292-1.912-.309-1.062-.02-2.125-.029-3.188-.026h-.657v5.488h1.091c1.101 0 2.044-.021 2.824-.054.78-.038 1.391-.151 1.842-.354.624-.266 1.035-.613 1.223-1.033.209-.419.301-.917.301-1.469zm8.947 10.654c0 1.253-.254 2.374-.792 3.356a6.875 6.875 0 01-2.165 2.455 10.516 10.516 0 01-3.516 1.637c-1.283.328-2.908.487-4.887.487h-11.822v-25.918h10.517c2.194 0 3.786.071 4.799.21 1.011.131 2.015.447 3.014.921 1.036.497 1.799 1.171 2.304 2.012.504.839.751 1.8.751 2.883 0 1.248-.339 2.353-1.039 3.312-.694.956-1.664 1.701-2.935 2.237v.143c1.772.331 3.182 1.029 4.216 2.083 1.039 1.06 1.555 2.453 1.555 4.18v.002zm19.48-2.056l-3.344-9.283-3.338 9.285h6.682v-.002zm10.788 9.991h-7.23l-1.884-5.242h-10.038l-1.883 5.242h-7.049l10.015-25.918h8.044l10.025 25.918zm19.652-14.169v-6.982h-3.455c-1.062 0-1.864.033-2.441.1-.573.062-1.134.287-1.664.668a2.81 2.81 0 00-.941 1.145c-.22.489-.33 1.02-.323 1.555 0 .586.108 1.122.339 1.592.234.469.555.854.964 1.154a3.374 3.374 0 001.625.647c.63.082 1.459.123 2.47.123h3.426v-.002zm6.953 14.171h-6.953v-9.504h-3.794l-6.831 9.504h-8.294l8.101-10.736c-1.639-.675-2.922-1.624-3.845-2.86-.931-1.232-1.393-2.838-1.393-4.839 0-1.32.301-2.476.912-3.463.6-.964 1.4-1.789 2.346-2.418.82-.548 1.831-.952 3.014-1.209 1.189-.266 2.542-.393 4.066-.393h12.671v25.918z" fill="#FEFEFE"/><path d="M142.472 119.475a4.504 4.504 0 00-.152-1.222 2.217 2.217 0 00-.628-1.053 3.389 3.389 0 00-1.351-.751c-.573-.188-1.36-.283-2.373-.283h-4.431v6.599h4.433c.765 0 1.457-.088 2.073-.28.612-.184 1.076-.42 1.404-.708.329-.28.585-.614.765-1.005.176-.386.26-.822.26-1.297zm7.228-.188c0 1.264-.246 2.422-.751 3.484-.504 1.064-1.202 1.934-2.073 2.603-1.105.849-2.251 1.437-3.451 1.756-1.187.321-2.646.474-4.338.474h-12.505v-25.92h21.059v5.015h-14.104v4.649h5.661c1.897 0 3.437.129 4.637.388 1.201.266 2.263.741 3.192 1.435a6.163 6.163 0 012.034 2.635 9.442 9.442 0 01.641 3.481h-.002zm22.232 1.927a7.92 7.92 0 001.518-2.789c.323-1.076.491-2.336.491-3.787 0-1.555-.19-2.879-.577-3.974-.368-1.092-.859-1.97-1.473-2.645a5.59 5.59 0 00-2.141-1.519 6.986 6.986 0 00-5.018-.01c-.792.299-1.502.8-2.156 1.492-.614.65-1.106 1.553-1.486 2.695-.385 1.143-.573 2.463-.573 3.975 0 1.547.178 2.857.559 3.939.368 1.095.847 1.977 1.461 2.66a5.542 5.542 0 002.128 1.516 6.924 6.924 0 005.142-.004 5.736 5.736 0 002.125-1.549zm9.262-6.562c0 4.133-1.243 7.418-3.708 9.844-2.483 2.431-5.908 3.651-10.273 3.651-4.351 0-7.775-1.22-10.245-3.651-2.48-2.426-3.724-5.711-3.724-9.842 0-4.166 1.244-7.462 3.724-9.883 2.47-2.418 5.894-3.627 10.245-3.627 4.352 0 7.76 1.207 10.244 3.627 2.496 2.421 3.737 5.717 3.737 9.883v-.002zm20.488-4.632c0-.737-.211-1.365-.614-1.889a3.454 3.454 0 00-1.451-1.105 6.685 6.685 0 00-2.122-.458 62.32 62.32 0 00-2.769-.043h-1.201v7.747h2.006c1.182 0 2.165-.07 2.932-.209.776-.139 1.416-.419 1.936-.833.45-.376.774-.814.982-1.326.201-.513.301-1.15.301-1.884zm7.224-.148a9.35 9.35 0 01-.641 3.399 7.555 7.555 0 01-1.815 2.791 11.163 11.163 0 01-3.61 2.314c-1.338.526-2.991.784-4.966.784h-4.347v8.444h-6.998v-25.92h11.51c1.719 0 3.183.143 4.363.421a10.53 10.53 0 013.138 1.285c1.092.686 1.923 1.557 2.496 2.63.589 1.059.872 2.346.872 3.85l-.002.002zm22.046 11.342a7.683 7.683 0 001.514-2.789c.323-1.076.491-2.336.491-3.787 0-1.555-.192-2.879-.561-3.974-.382-1.092-.871-1.97-1.473-2.645a5.682 5.682 0 00-2.143-1.519 7.04 7.04 0 00-5.032-.01c-.777.299-1.5.8-2.152 1.49-.602.655-1.11 1.555-1.49 2.697-.381 1.143-.573 2.463-.573 3.975 0 1.547.192 2.857.563 3.939.368 1.095.857 1.977 1.459 2.66a5.667 5.667 0 002.136 1.516 6.797 6.797 0 002.566.491c.901 0 1.75-.169 2.564-.495a5.548 5.548 0 002.131-1.549zm9.272-6.562c0 4.133-1.238 7.418-3.721 9.844-2.472 2.431-5.893 3.651-10.258 3.651-4.367 0-7.774-1.22-10.259-3.651-2.482-2.426-3.708-5.711-3.708-9.842 0-4.166 1.226-7.462 3.708-9.883 2.485-2.418 5.892-3.627 10.259-3.627 4.338 0 7.762 1.207 10.24 3.627 2.482 2.421 3.739 5.717 3.739 9.883v-.002zm21.264 4.911c0-.829-.164-1.457-.504-1.911-.329-.442-.9-.774-1.692-.995-.548-.147-1.293-.237-2.263-.247-.954-.006-1.955-.016-2.986-.016h-1.531v6.457h.508a618.2 618.2 0 004.211-.012c.804.001 1.6-.155 2.343-.458.729-.289 1.232-.676 1.505-1.156.27-.479.409-1.032.409-1.662zm-1.692-10.55c0-.43-.123-.859-.342-1.293-.231-.426-.624-.745-1.185-.95-.52-.19-1.148-.29-1.911-.306a147.41 147.41 0 00-3.189-.029h-.657v5.49h1.091c1.101 0 2.044-.021 2.824-.056.78-.038 1.392-.149 1.842-.353.624-.266 1.035-.614 1.224-1.032.208-.419.303-.918.303-1.469v-.002zm8.946 10.654c0 1.255-.253 2.374-.792 3.36a6.886 6.886 0 01-2.167 2.451 10.453 10.453 0 01-3.515 1.641c-1.284.328-2.908.485-4.887.485h-11.822v-25.92h10.516c2.194 0 3.788.071 4.801.21 1.009.131 2.016.447 3.014.921 1.034.497 1.797 1.171 2.303 2.012.503.839.751 1.8.751 2.883 0 1.248-.34 2.353-1.04 3.314-.692.956-1.662 1.701-2.932 2.237v.143c1.772.332 3.182 1.027 4.215 2.083 1.04 1.06 1.555 2.451 1.555 4.18zm19.482-2.054l-3.344-9.283-3.34 9.283h6.684zm10.789 9.991h-7.23l-1.885-5.242H279.86l-1.884 5.242h-7.05l10.015-25.92h8.044l10.028 25.92zm19.655-14.171v-6.982h-3.456c-1.062 0-1.864.033-2.442.098a3.475 3.475 0 00-1.663.67c-.41.286-.723.673-.942 1.143a3.73 3.73 0 00-.323 1.558c0 .585.111 1.121.34 1.589.233.471.554.856.966 1.156a3.383 3.383 0 001.622.647c.631.082 1.462.121 2.47.121h3.428zm6.954 14.171h-6.954V118.1h-3.794l-6.833 9.504h-8.294l8.104-10.738c-1.641-.673-2.924-1.622-3.847-2.86-.931-1.232-1.394-2.838-1.394-4.837 0-1.32.301-2.476.913-3.465.6-.964 1.4-1.788 2.345-2.418.821-.546 1.831-.952 3.014-1.209 1.191-.266 2.542-.393 4.069-.393h12.671v25.92z" fill="#FEFEFE"/></g><defs><linearGradient id="paint0_linear" x1="511.16" y1="13.118" x2="511.16" y2="67.91" gradientUnits="userSpaceOnUse"><stop stop-color="#E3D09A"/><stop offset=".08" stop-color="#F1E7CB"/><stop offset="1"/></linearGradient><linearGradient id="paint1_linear" x1="452.105" y1="48.294" x2="505.901" y2="70.906" gradientUnits="userSpaceOnUse"><stop offset=".4" stop-color="#504831"/><stop offset=".65" stop-color="#403D33"/><stop offset=".89" stop-color="#232321"/><stop offset="1"/></linearGradient><linearGradient id="paint2_linear" x1="560.738" y1="53.431" x2="508.002" y2="53.431" gradientUnits="userSpaceOnUse"><stop/><stop offset=".23" stop-color="#282417"/><stop offset=".4" stop-color="#322D1C"/><stop offset=".65" stop-color="#292721"/><stop offset=".89" stop-color="#171716"/><stop offset="1"/></linearGradient><linearGradient id="paint3_linear" x1="509.504" y1="20.124" x2="509.504" y2="67.456" gradientUnits="userSpaceOnUse"><stop stop-color="#fff"/><stop offset=".52" stop-color="#F0E4C0"/><stop offset="1" stop-color="#D6BF8E"/></linearGradient><linearGradient id="paint4_linear" x1="507.034" y1="64.526" x2="507.034" y2="20.701" gradientUnits="userSpaceOnUse"><stop stop-color="#F0E4D0"/><stop offset=".18" stop-color="#D3BE98"/><stop offset=".34" stop-color="#938066"/><stop offset=".59" stop-color="#6F5E4A"/><stop offset=".68" stop-color="#CEB58B"/><stop offset=".76" stop-color="#E8D8B2"/><stop offset=".85" stop-color="#ECDDAB"/><stop offset=".95" stop-color="#D3B78B"/><stop offset="1" stop-color="#362A21"/></linearGradient><linearGradient id="paint5_linear" x1="507.949" y1="64.444" x2="507.949" y2="21.057" gradientUnits="userSpaceOnUse"><stop stop-color="#7D6D58"/><stop offset="1" stop-color="#282319"/></linearGradient><linearGradient id="paint6_linear" x1="482.306" y1="30.193" x2="467.006" y2="23.503" gradientUnits="userSpaceOnUse"><stop stop-color="#6D6D75"/><stop offset="1" stop-color="#889095"/></linearGradient><linearGradient id="paint7_linear" x1="480.924" y1="28.245" x2="471.575" y2="24.691" gradientUnits="userSpaceOnUse"><stop stop-color="#878C83"/><stop offset="1" stop-color="#C1C8CF"/></linearGradient><linearGradient id="paint8_linear" x1="546.798" y1="41.627" x2="546.79" y2="41.488" gradientUnits="userSpaceOnUse"><stop offset=".13" stop-color="#3F80C2"/><stop offset="1" stop-color="#006EB5"/></linearGradient><linearGradient id="paint9_linear" x1="542.265" y1="45.49" x2="546.083" y2="51.923" gradientUnits="userSpaceOnUse"><stop offset=".12" stop-color="#ADD3F3"/><stop offset=".34" stop-color="#8FC2EC"/><stop offset=".83" stop-color="#319CDB"/><stop offset="1" stop-color="#0090D4"/></linearGradient><linearGradient id="paint10_linear" x1="-191962" y1="-1551.06" x2="-191962" y2="-1551.39" gradientUnits="userSpaceOnUse"><stop offset=".13" stop-color="#3F80C2"/><stop offset="1" stop-color="#006EB5"/></linearGradient><linearGradient id="paint11_linear" x1="477.677" y1="47.254" x2="482.786" y2="53.125" gradientUnits="userSpaceOnUse"><stop stop-color="#ADD3F3"/><stop offset=".25" stop-color="#8FC2EC"/><stop offset=".8" stop-color="#319CDB"/><stop offset="1" stop-color="#0090D4"/></linearGradient><linearGradient id="paint12_linear" x1="509.453" y1="56.192" x2="497.612" y2="44.846" gradientUnits="userSpaceOnUse"><stop stop-color="#777780"/><stop offset="1" stop-color="#A2ABB1"/></linearGradient><linearGradient id="paint13_linear" x1="499.692" y1="52.521" x2="520.164" y2="52.521" gradientUnits="userSpaceOnUse"><stop stop-color="#9EA399"/><stop offset="1" stop-color="#CAD2D9"/></linearGradient><linearGradient id="paint14_linear" x1="499.135" y1="29.897" x2="511.805" y2="29.897" gradientUnits="userSpaceOnUse"><stop stop-color="#BBD7F3"/><stop offset="1" stop-color="#8FC3ED"/></linearGradient><linearGradient id="paint15_linear" x1="-105069" y1="-9788.65" x2="-105247" y2="-9921.02" gradientUnits="userSpaceOnUse"><stop stop-color="#6D6D75"/><stop offset="1" stop-color="#889095"/></linearGradient><linearGradient id="paint16_linear" x1="-77136.3" y1="-2976.97" x2="-77236.9" y2="-3077.47" gradientUnits="userSpaceOnUse"><stop stop-color="#878C83"/><stop offset="1" stop-color="#C1C8CF"/></linearGradient><linearGradient id="paint17_linear" x1="509.349" y1="41.136" x2="555.163" y2="41.136" gradientUnits="userSpaceOnUse"><stop stop-color="#635437"/><stop offset=".16" stop-color="#5E523B"/><stop offset=".49" stop-color="#504C41"/><stop offset=".5" stop-color="#504C41"/><stop offset="1" stop-color="#322D1C"/></linearGradient><linearGradient id="paint18_linear" x1="461.957" y1="37.684" x2="557.937" y2="37.684" gradientUnits="userSpaceOnUse"><stop stop-color="#332E1D"/><stop offset=".03" stop-color="#60563B"/><stop offset=".05" stop-color="#7A6D4C"/><stop offset=".07" stop-color="#847652"/><stop offset=".43" stop-color="#5A543F"/><stop offset=".95" stop-color="#443F2F"/><stop offset="1" stop-color="#252320"/></linearGradient><linearGradient id="paint19_linear" x1="532.428" y1="36.694" x2="525.321" y2="36.694" gradientUnits="userSpaceOnUse"><stop stop-color="#3C392A"/><stop offset=".09" stop-color="#69634E"/><stop offset=".2" stop-color="#9D9277"/><stop offset=".31" stop-color="#C4B595"/><stop offset=".41" stop-color="#DFCCAB"/><stop offset=".48" stop-color="#F0DAB8"/><stop offset=".53" stop-color="#F5DFBC"/><stop offset=".61" stop-color="#DDCAAB"/><stop offset=".79" stop-color="#9B917B"/><stop offset="1" stop-color="#423E33"/></linearGradient><linearGradient id="paint20_linear" x1="528.972" y1="37.594" x2="528.972" y2="19.424" gradientUnits="userSpaceOnUse"><stop offset=".25" stop-color="#DAC9AD"/><stop offset=".44" stop-color="#FBEFD6"/><stop offset=".7" stop-color="#DFCFB7"/><stop offset="1" stop-color="#BAA791"/></linearGradient><linearGradient id="paint21_linear" x1="530.513" y1="35.761" x2="530.513" y2="19.424" gradientUnits="userSpaceOnUse"><stop offset=".06" stop-color="#AF9C83"/><stop offset=".44" stop-color="#C1A983"/><stop offset=".59" stop-color="#AA967A"/><stop offset=".91" stop-color="#6E6258"/><stop offset="1" stop-color="#5C524B"/></linearGradient><linearGradient id="paint22_linear" x1="529.453" y1="20.423" x2="529.453" y2="34.093" gradientUnits="userSpaceOnUse"><stop offset=".06" stop-color="#E2CAA7"/><stop offset=".14" stop-color="#E9D4B4"/><stop offset=".32" stop-color="#F6E8CD"/><stop offset=".44" stop-color="#FBEFD6"/><stop offset="1" stop-color="#E5D1B4"/></linearGradient><linearGradient id="paint23_linear" x1="533.296" y1="21.235" x2="528.122" y2="21.235" gradientUnits="userSpaceOnUse"><stop stop-color="#3C392A"/><stop offset=".09" stop-color="#66604B"/><stop offset=".2" stop-color="#91886D"/><stop offset=".31" stop-color="#AEA285"/><stop offset=".41" stop-color="#C0B294"/><stop offset=".48" stop-color="#CABA9D"/><stop offset=".53" stop-color="#CEBDA0"/><stop offset=".61" stop-color="#BFB195"/><stop offset=".79" stop-color="#908772"/><stop offset="1" stop-color="#423E33"/></linearGradient><linearGradient id="paint24_linear" x1="-11440.5" y1="49.177" x2="-11401.7" y2="49.177" gradientUnits="userSpaceOnUse"><stop stop-color="#3C392A"/><stop offset=".09" stop-color="#69634E"/><stop offset=".2" stop-color="#9D9277"/><stop offset=".31" stop-color="#C4B595"/><stop offset=".41" stop-color="#DFCCAB"/><stop offset=".48" stop-color="#F0DAB8"/><stop offset=".53" stop-color="#F5DFBC"/><stop offset=".61" stop-color="#DDCAAB"/><stop offset=".79" stop-color="#9B917B"/><stop offset="1" stop-color="#423E33"/></linearGradient><linearGradient id="paint25_linear" x1="-648.249" y1="-51858.9" x2="-598.039" y2="-52066.6" gradientUnits="userSpaceOnUse"><stop offset=".06" stop-color="#AF9C83"/><stop offset=".44" stop-color="#C1A983"/><stop offset=".59" stop-color="#AA967A"/><stop offset=".91" stop-color="#6E6258"/><stop offset="1" stop-color="#5C524B"/></linearGradient><linearGradient id="paint26_linear" x1="147.542" y1="-51881" x2="147.542" y2="-52078.7" gradientUnits="userSpaceOnUse"><stop offset=".25" stop-color="#DAC9AD"/><stop offset=".44" stop-color="#FBEFD6"/><stop offset=".7" stop-color="#DFCFB7"/><stop offset="1" stop-color="#BAA791"/></linearGradient><linearGradient id="paint27_linear" x1="97.176" y1="-52066.6" x2="97.176" y2="-51901.3" gradientUnits="userSpaceOnUse"><stop offset=".06" stop-color="#E2CAA7"/><stop offset=".14" stop-color="#E9D4B4"/><stop offset=".32" stop-color="#F6E8CD"/><stop offset=".44" stop-color="#FBEFD6"/><stop offset="1" stop-color="#E5D1B4"/></linearGradient><linearGradient id="paint28_linear" x1="-4878.96" y1="-96.802" x2="-4858.27" y2="-96.802" gradientUnits="userSpaceOnUse"><stop stop-color="#3C392A"/><stop offset=".09" stop-color="#66604B"/><stop offset=".2" stop-color="#91886D"/><stop offset=".31" stop-color="#AEA285"/><stop offset=".41" stop-color="#C0B294"/><stop offset=".48" stop-color="#CABA9D"/><stop offset=".53" stop-color="#CEBDA0"/><stop offset=".61" stop-color="#BFB195"/><stop offset=".79" stop-color="#908772"/><stop offset="1" stop-color="#423E33"/></linearGradient><linearGradient id="paint29_linear" x1="494.165" y1="59.011" x2="488.902" y2="57.855" gradientUnits="userSpaceOnUse"><stop stop-color="#3C392A"/><stop offset=".09" stop-color="#66604B"/><stop offset=".2" stop-color="#91886D"/><stop offset=".31" stop-color="#AEA285"/><stop offset=".41" stop-color="#C0B294"/><stop offset=".48" stop-color="#CABA9D"/><stop offset=".53" stop-color="#CEBDA0"/><stop offset=".65" stop-color="#C2B294"/><stop offset=".9" stop-color="#978B6F"/><stop offset="1" stop-color="#80765C"/></linearGradient><linearGradient id="paint30_linear" x1="488.693" y1="58.232" x2="488.693" y2="41.836" gradientUnits="userSpaceOnUse"><stop offset=".06" stop-color="#BAA68A"/><stop offset=".1" stop-color="#C4B195"/><stop offset=".25" stop-color="#E2D2B7"/><stop offset=".36" stop-color="#F4E7CD"/><stop offset=".44" stop-color="#FBEFD6"/><stop offset=".7" stop-color="#DFCFB7"/><stop offset="1" stop-color="#BAA791"/></linearGradient><linearGradient id="paint31_linear" x1="-798.586" y1="-49252.4" x2="-798.586" y2="-49436.1" gradientUnits="userSpaceOnUse"><stop offset=".06" stop-color="#AF9C83"/><stop offset=".44" stop-color="#C1A983"/><stop offset=".59" stop-color="#AA967A"/><stop offset=".91" stop-color="#6E6258"/><stop offset="1" stop-color="#5C524B"/></linearGradient><linearGradient id="paint32_linear" x1="-806.395" y1="-49244.6" x2="-806.395" y2="-49437.9" gradientUnits="userSpaceOnUse"><stop offset=".25" stop-color="#DAC9AD"/><stop offset=".44" stop-color="#FBEFD6"/><stop offset=".7" stop-color="#DFCFB7"/><stop offset="1" stop-color="#BAA791"/></linearGradient><linearGradient id="paint33_linear" x1="512.484" y1="-49244.6" x2="512.484" y2="-49437.9" gradientUnits="userSpaceOnUse"><stop offset=".06" stop-color="#E2CAA7"/><stop offset=".14" stop-color="#E9D4B4"/><stop offset=".32" stop-color="#F6E8CD"/><stop offset=".44" stop-color="#FBEFD6"/><stop offset="1" stop-color="#E5D1B4"/></linearGradient><linearGradient id="paint34_linear" x1="-798.586" y1="-49252.4" x2="-798.586" y2="-49436.1" gradientUnits="userSpaceOnUse"><stop offset=".06" stop-color="#AF9C83"/><stop offset=".44" stop-color="#C1A983"/><stop offset=".59" stop-color="#AA967A"/><stop offset=".91" stop-color="#6E6258"/><stop offset="1" stop-color="#5C524B"/></linearGradient><linearGradient id="paint35_linear" x1="489.368" y1="43.475" x2="495.923" y2="43.475" gradientUnits="userSpaceOnUse"><stop stop-color="#333024"/><stop offset=".53" stop-color="#57492A"/><stop offset=".75" stop-color="#48402C"/><stop offset="1" stop-color="#2F2C21"/></linearGradient><linearGradient id="paint36_linear" x1="-4801.42" y1="64.036" x2="-4810.48" y2="71.86" gradientUnits="userSpaceOnUse"><stop stop-color="#3C392A"/><stop offset=".09" stop-color="#66604B"/><stop offset=".2" stop-color="#91886D"/><stop offset=".31" stop-color="#AEA285"/><stop offset=".41" stop-color="#C0B294"/><stop offset=".48" stop-color="#CABA9D"/><stop offset=".53" stop-color="#CEBDA0"/><stop offset=".65" stop-color="#C2B294"/><stop offset=".9" stop-color="#978B6F"/><stop offset="1" stop-color="#80765C"/></linearGradient><linearGradient id="paint37_linear" x1="-576.088" y1="-49244.6" x2="-576.088" y2="-49437.9" gradientUnits="userSpaceOnUse"><stop offset=".06" stop-color="#BAA68A"/><stop offset=".1" stop-color="#C4B195"/><stop offset=".25" stop-color="#E2D2B7"/><stop offset=".36" stop-color="#F4E7CD"/><stop offset=".44" stop-color="#FBEFD6"/><stop offset=".7" stop-color="#DFCFB7"/><stop offset="1" stop-color="#BAA791"/></linearGradient><linearGradient id="paint38_linear" x1="-527.603" y1="-49252.4" x2="-527.603" y2="-49436.1" gradientUnits="userSpaceOnUse"><stop offset=".06" stop-color="#AF9C83"/><stop offset=".44" stop-color="#C1A983"/><stop offset=".59" stop-color="#AA967A"/><stop offset=".91" stop-color="#6E6258"/><stop offset="1" stop-color="#5C524B"/></linearGradient><linearGradient id="paint39_linear" x1="-576.088" y1="-49244.6" x2="-576.088" y2="-49437.9" gradientUnits="userSpaceOnUse"><stop offset=".06" stop-color="#AF9C83"/><stop offset=".44" stop-color="#C1A983"/><stop offset=".59" stop-color="#AA967A"/><stop offset=".91" stop-color="#6E6258"/><stop offset="1" stop-color="#5C524B"/></linearGradient><linearGradient id="paint40_linear" x1="574.835" y1="-49244.6" x2="574.835" y2="-49437.9" gradientUnits="userSpaceOnUse"><stop offset=".06" stop-color="#E2CAA7"/><stop offset=".14" stop-color="#E9D4B4"/><stop offset=".32" stop-color="#F6E8CD"/><stop offset=".44" stop-color="#FBEFD6"/><stop offset="1" stop-color="#E5D1B4"/></linearGradient><linearGradient id="paint41_linear" x1="-527.603" y1="-49252.4" x2="-527.603" y2="-49436.1" gradientUnits="userSpaceOnUse"><stop offset=".25" stop-color="#DAC9AD"/><stop offset=".44" stop-color="#FBEFD6"/><stop offset=".7" stop-color="#DFCFB7"/><stop offset="1" stop-color="#BAA791"/></linearGradient><linearGradient id="paint42_linear" x1="-8677.92" y1="22.808" x2="-8710.05" y2="22.808" gradientUnits="userSpaceOnUse"><stop stop-color="#333024"/><stop offset=".53" stop-color="#57492A"/><stop offset=".75" stop-color="#48402C"/><stop offset="1" stop-color="#2F2C21"/></linearGradient><linearGradient id="paint43_linear" x1="512.611" y1="35.372" x2="512.611" y2="44.171" gradientUnits="userSpaceOnUse"><stop stop-color="#DEC4A0"/><stop offset="1" stop-color="#FDE9D5"/></linearGradient><clipPath id="clip0"><path fill="#fff" d="M0 0h794v133H0z"/></clipPath></defs></svg>