<svg width="635" height="108" viewBox="0 0 635 108" fill="none" xmlns="http://www.w3.org/2000/svg"><path d="M269.321 26.02c-1.253.201-4.361 1.658-5.012 5.325 2.456-3.315 2.907-3.466 4.21-4.069 3.759-1.858 10.376 1.809 13.534 1.759.05-.151.1-.201.1-.352-4.511-.954-7.719-3.466-12.832-2.662zm-.1 2.261c-2.456.854-4.862 3.567-3.409 5.978 1.554 2.562 5.263 1.105 6.617-.302 1.403-1.406 2.055-4.621 6.265-3.667.301-.2.702.352.853-.2-2.406-1.86-6.868-2.462-10.326-1.809zm36.591 1.105c-.501-.954-1.053-1.909-1.604-2.863a75.803 75.803 0 00-1.704-2.562c-8.872-12.709-23.559-21.047-40.15-21.047-26.968 0-48.922 22.001-48.922 49.027 0 27.025 21.954 49.027 48.922 49.027 16.591 0 31.278-8.34 40.15-21.048a75.803 75.803 0 001.704-2.562 38.743 38.743 0 001.604-2.863c3.509-6.781 5.514-14.417 5.514-22.554 0-8.138-2.005-15.774-5.514-22.555zM262.354 51.69V43c.25-.1 1.303 2.361 1.353 2.713 1.303 6.982.301 8.74-1.353 8.79V51.69zm-1.103 43.05c-23.058-.603-41.504-19.591-41.504-42.798-.05-23.51 18.446-41.794 41.554-42.748v2.762s-13.283.151-23.609 8.942c-.301.452 0 .703.652.352.702-.352 9.724-6.48 18.646-4.521 2.507 1.356 4.311 5.274 4.311 7.283v4.019c-3.108-3.768-10.576-6.58-15.238-5.626-1.353.301-.702.854-.451.954 3.96-.05 14.987 4.07 15.689 9.846v25.719c3.108.15 4.311-.754 4.962-1.407 1.053-1.004 2.156-3.516 1.805-5.877l-1.153.402h-.05c-.451 3.617-1.504 4.822-4.511 5.727V56.26c2.105-.201 3.057-2.06 2.857-6.079-.201-3.867-1.303-6.932-2.907-10.147v-2.963c1.553 3.064 2.907 8.991 3.959 9.996.802-.301-1.203-5.576-1.904-7.585.752-.904 2.105 2.06 2.907 3.617 1.454 3.616 5.012 15.773-.752 17.681-5.213 1.357-9.123.754-10.677-1.557-2.456-4.069 2.607-9.092 1.003-11.05l-1.353-12.559c-1.003-8.79-13.133-11.805-17.945-6.179-.802 1.256.301.854.902.352 3.86-2.512 12.381-3.014 14.787 4.32.551 1.457.501 4.52-1.153.553-2.957-4.622-7.268-6.732-12.381-3.065-.852.553-4.01 3.316-5.062 1.809-1.905-2.462 2.406-5.928 2.255-7.435l-.651.402c-3.058 2.562-5.113 8.79-3.158 13.663.3 1.256 1.704 2.412-1.003 3.014-5.764 2.11-6.666 7.887-6.666 10.248 0 9.393 7.919 20.143 17.994 15.07 2.106-1.306 3.208-2.813 3.96-3.768l-.551-.452c-15.689 16.426-25.564-15.622-12.481-17.632 1.504 1.759 3.709 3.868 6.015 4.42 4.561 1.056 8.822-.853 13.684-7.735.752-.753.952-.05.802.352-.501 2.612-3.308 6.279-3.81 7.334-.3.602-.05 1.356.802.653 1.103-1.507 1.404-2.512 2.356-2.713l-2.155 4.621c-.802 1.256-1.454 1.96.652 1.708 2.005 0 1.102 1.005 1.403 2.512 1.855 2.713-2.556 4.722-2.957.854 0-1.356 1.153-2.31.351-2.562-.802.251-1.855 2.21-1.905 4.42l-2.005 3.015.451.502 2.256-3.165c1.002 2.26 4.711 1.005 4.912.955.802.05 1.253.25 1.704.803.05.854.551 1.105.752 2.21 1.203 1.256-.501 1.759-1.554 2.16-4.11 1.558-4.361 4.02-6.015 6.029-1.103 1.356-1.554.904-2.556 1.908-.752 1.306 1.002 1.859 1.353 2.512.501 1.005 1.504 2.411 2.957 3.014.953.301 1.504.552.051 1.356-1.053.704-1.504 2.512-1.504 3.115 0 1.557.351 3.566 2.356 4.872a17.443 17.443 0 01-3.108-1.055c1.053-1.306.1-1.708-.1-2.06-.451.101-.502 1.81-2.657 1.056.702-1.256 5.113-6.33 2.957-7.083-1.754 2.913-2.406 6.279-6.165 5.626 1.654-1.256 4.211-2.612 5.414-6.48l-.602-.201c-1.454 2.964-4.361 6.53-7.819 4.822 1.503-.703 2.506-1.356 3.308-2.009.702-.603 4.01-3.416 2.807-4.019-1.955 1.96-6.266 6.53-8.872 3.868 1.503-.401 3.107-1.055 4.361-1.858 1.203-.804 2.907-2.462 3.859-3.014l-.401-.804c-.952.201-5.313 3.768-6.265 3.968-1.354.352-2.457 1.306-4.411-.803 2.456-.251 4.761-.955 5.864-1.658.902-.552 4.11-2.11 4.511-2.16l-.451-.804c-2.255.754-4.06 3.416-8.972 3.416-.351 0-2.256-.1-3.86-2.01l.05-.1c3.008.452 5.464.402 8.371-.452 1.404-.502 2.707-1.356 4.111-1.758l-.452-1.055c-2.656 1.156-4.611 2.411-7.869 2.411-3.659 0-4.261.553-6.466-2.36.401-.453 3.107.853 4.912.853 4.01 0 5.865-.1 9.223-1.657l-.401-.804c-1.153.502-3.81 1.306-6.216 1.356-5.513.05-9.724-2.41-10.025-4.722 1.554 1.306 3.91 2.964 6.567 3.215 2.055.201 7.569 0 9.524-.753l-.351-.754c-1.053.402-5.464.804-6.767.804-2.807 0-5.915-2.01-6.717-2.612-5.564-4.47-7.168-17.933-4.01-22.253.652-2.16 4.612-5.475 4.561-6.128-.651-6.38-1.002-8.64 3.86-15.372-4.16 2.562-7.218 8.239-5.313 13.664.852 2.41-2.757 4.52-3.81 6.228-4.711 7.787-2.556 16.075.752 23.911 11.579 24.664 35.539 23.91 35.539 23.91l.05 2.764zm1.103-78.263v-1.255c1.403.15 2.556.502 3.859.803 1.504-1.507-3.208-1.557-3.859-2.009v-.904c3.358-.15 6.716.351 9.975 1.256l-.101.301c-2.757.2-5.263 2.06-7.418 4.32-.201.2-.451.954-1.203.954-.752-.05-1.053-.301-1.303-.954v-1.607c.751 0 2.205.954 2.355-.151-1.052-.553-1.403-.302-2.305-.754zm34.586 21.55c.351.1 1.403.452 1.855.854.1.1.15.15.2.251l.301 1.005c-.251-.1-.501-.251-.752-.352-.602-.351-1.053-.552-1.454.251.502.201.903.402 1.253.553.702.402 1.053.804 1.354 1.055.05.301.301.753.351 1.206-.702 0-1.404-.654-2.055-.804-.251-.05-.452-.05-.652.05v.05l-.05.402c.15.05.351.15.551.251.802.452 1.955 1.306 2.456 2.06.201.301.301.552.201.803-.1 0-.201 0-.301-.05-.852-.2-1.804-1.306-2.406-.854 0 .503.251.754.401.904.602.654 1.303.854 1.855 1.156.601.352 1.002.753.902 2.01-.451-.101-.752-.202-1.053-.352-.451-.201-.902-.402-1.904-.804-.853.452.601 1.356 1.253 1.507.2.05.401.15.601.25.602.302 1.203.805 1.203 1.156l.05 1.407a10.86 10.86 0 01-1.353-.653c-.802-.402-1.604-.754-2.356-.251 0 1.004 1.303 1.004 2.356 1.557.752.402 1.403 1.105 1.203 2.712a1.81 1.81 0 01-1.053-.2c-.752-.402-1.353-1.106-2.055-1.106l-.25.955c.802.452 1.604 1.255 2.456 1.858.25.151.451.302.701.402l-.25 1.457c-.05 0-.151-.05-.201-.05-.802-.302-2.155-1.608-2.656-1.608a1.186 1.186 0 00-.301.452c-.1.252-.1.453.1.704 0 0 0 .05.05.05 0 .05 1.805 1.457 2.807 1.909-.351 2.36-1.403 1.858-2.305 1.155-.903-.653-1.705-1.457-1.705-.1.502.602 1.354 1.105 2.055 1.707.351.302.652.603.903 1.005-.151.452-.251.754-.401 1.105-.05.15-.151.352-.201.503a72.618 72.618 0 00-3.208-2.613c-3.258-2.511-6.616-4.52-10.626-6.228.651-2.311 8.02 1.908 8.02 2.36.2-.452.451-.502.551-.853-.752-.553-4.912-3.265-6.065-3.416-.05-.15.852-1.005.952-1.256.301-.05 2.557.804 2.857.954.953-1.155-1.353-1.255-2.005-2.16.351-.351.452-.753.652-1.306.551.201 1.253 1.055 1.754.704.251-.302.251-.503.151-.804-1.855-1.206-1.554-.402-1.103-2.612 2.506.251 1.604-.502.301-1.206l.25-1.507c.552.201 1.604.402 1.304-.602-.401-.202-.552-.101-1.103-.553.2-.452.251-.854.301-1.507.401-.15.651-.05 1.002-.201.1-.703-.501-.703-.902-1.055.1-.452.05-.804.05-1.306l.952.15c.201 0 .452-.803.101-.903-.602-.201-1.755-.754-2.156-1.407 3.609.502 4.01-1.205 5.815-2.31.05-.05.2-.05.401 0 .351.05.802.2 1.052.401l.502 1.105c-.502.151-1.304-.351-1.654-.301-.201.753.15.753.15.904zm-25.213 43c.401-.503.702-.955.952-1.508 2.657 2.411 3.359 6.179 3.359 8.891-.702.151-1.454.503-2.206.704.652-3.115-.451-5.576-2.105-8.088zm-9.373 1.004c4.461.2 7.368 1.105 7.468 3.717.101 2.813-3.308 3.918-7.468 4.069V88.81c-4.812-.15-7.018-.854-7.018-3.114 0-2.462 2.807-2.763 7.018-2.612V82.03zm8.02-24.564c3.007-2.31 5.764 2.562 2.606 4.822-2.907 2.663-6.165 2.663-9.874 2.663-.101 3.868 6.315 7.736 9.774 6.63 5.514-.502 8.872-7.334 12.682-4.922 1.303.803.701 1.858 1.654 2.813.752-.05.752-.503.902-1.055-2.456-1.608 1.303-4.622-4.06-5.074-2.256-.2-3.108-3.868-8.421-2.461 2.456-3.466 8.571-3.114 10.777-1.658 5.814 3.868 1.904 14.618.401 13.463-.151-6.933-12.933 1.959-15.038 1.255-4.712-.552-7.418-4.27-9.373-4.621h-1.003v2.512c-2.506-.201-1.303-.904-4.01-.904-2.757 0-2.656 1.004-5.163 2.16 1.805-3.768 2.306-4.773 4.712-5.024.852 0 5.313 1.356 5.514.1V62.69c3.86.201 5.113-.904 7.017-2.762.401.602 2.056 1.808 2.707.904-.601-.904-3.007-.201-1.804-3.366zm16.14-20.344l1.704.352c.602 2.21 1.103 7.183-4.411 9.594-4.311 1.909-8.772-1.055-10.676-4.12l1.754-.552c1.002 1.91 4.962 4.622 8.321 3.014 3.659-1.708 3.559-5.023 3.308-8.288zm-3.86.553c.752-.453 1.253-.503 2.005-.453 1.504 4.622-.3 6.48-1.955 7.184-2.656 1.055-5.012-.553-6.416-2.512.401-.301 1.354-1.206 1.805-1.256.551 2.01 2.155 2.462 3.709 1.96 1.755-.603 2.607-2.964.852-4.923zm-7.268 3.566c-2.757 1.206-4.912.251-6.466-.603 6.617-.904 6.416-3.064 10.576-5.877 1.504-.603 4.762.05 5.765 1.206-7.77.753-5.414 3.315-9.875 5.274zm5.213 7.585c5.564.251 8.171-2.662 9.674-7.736h.201c-.1 3.768-2.506 8.088-7.77 8.59-8.972.904-15.288-8.64-15.288-8.64l.101-.301c5.162 4.42 7.919 7.836 13.082 8.087zm-3.559 1.658c4.161 1.557 10.426-1.306 12.933-4.22-1.604 3.014-5.614 5.727-10.677 5.626-1.855 0-6.867-1.708-10.226-6.128.251-.05 6.216 4.772 7.97 4.722zm2.757 15.17c-1.403.352-4.01-1.457-4.411-2.662.501-.151.852-.151 1.554.15 1.253.603.301 1.256 2.857 2.512zm-2.055-3.918c2.356.2 1.554 1.105 3.91 2.21-1.203.1-3.81-.753-3.91-2.21zm-10.075 4.22c.652 0 1.654.1 2.055.602.652.804 1.353 2.06 4.411 3.366-2.857.251-6.917-2.964-6.466-3.969zm2.707 4.32c.2.15-4.161-1.005-5.965-4.02.551.051 1.453-.05 2.055.503.652.603.852 1.407 3.91 3.516zm-.351-5.074c.501 0 1.905 0 2.255.452.452.603 1.955 2.21 4.01 2.863-1.604.653-5.714-2.21-6.265-3.315zm2.757-1.155c.651-.05 1.203-.252 1.854.15.552.352.05 1.055 3.409 3.115-1.303.2-4.963-1.91-5.263-3.265zm-1.554-11.654c.451 0 4.11 2.963 7.92 3.114 3.007.15 6.616-.552 7.919-2.36h.101c-.953 2.21-5.314 3.515-8.221 3.415-1.454-.1-6.215-1.808-7.719-4.17zm8.22 1.758c-3.007-.251-6.767-1.91-8.721-4.823h.05c3.107 2.512 6.165 3.768 9.022 3.768 3.559 0 5.313-1.055 9.123-3.265-1.704 2.461-5.965 4.069-9.474 4.32zm.602 18.335c1.153-1.005 1.654-1.055 2.857-1.005.902 2.913-.1 6.229-1.754 6.781.751-3.717-.802-4.068-1.103-5.776zm-2.557 4.973c-.802-1.156-1.002-1.758-2.055-2.864.903-.15 1.705-.502 2.557-.653.3.704.401 2.16-.502 3.517zm-12.481-4.12c-.551 3.517-1.955.101-1.754-.954.551.402 1.153.603 1.754.955zm-11.879 3.065c.752-1.96 3.007-2.31 9.122-.553 2.507.15 6.918-1.055 9.023.904.752.704.1 2.06-.752 4.019h-12.23c-3.259-.05-6.617-1.356-5.163-4.37zm19.298 9.594c.501 1.758.451 2.512.301 3.466-2.707.653-5.314 1.105-8.171 1.256 4.712-.904 6.667-1.507 7.87-4.722zm1.704-6.831l2.607.401c1.253 1.457 1.954 2.814 2.606 7.385-.652.401-1.303.602-2.005.854-.05-2.864-1.203-6.079-3.208-8.64zm4.461.552c-.1-.251 1.354-.15 2.356-.402.902 1.91 1.604 3.165 1.554 5.727-.652.452-1.203.854-2.005 1.205-.05-3.767-.852-4.32-1.905-6.53zm3.409-.804c.701-.15 1.052-.301 1.604-.753.701 1.206 1.503 3.667 1.453 5.425-.501.15-1.052.854-1.554 1.105 0-1.607-.451-3.767-1.503-5.777zm2.556-1.356c.251-.15 1.303-1.155 1.353-1.155 1.304 1.557 1.454 2.863 1.805 4.872-.1.402-1.203 1.055-1.504 1.206-.05-1.859-.301-3.014-1.654-4.923zm2.306-2.36c.351-.403.752-.604 1.103-1.357 1.403 1.708 1.954 3.014 2.355 5.073a10.667 10.667 0 01-1.503 1.507c-.301-2.561-.602-3.466-1.955-5.224zm1.955-2.16c.501-.503.651-.704.902-1.357 1.403 1.206 2.356 2.512 2.957 4.17l-1.303 1.456c-.1.05-1.203-2.964-2.556-4.27zm1.554-2.362c.35-.703.35-1.055.501-2.009 2.155 1.356 3.458 3.667 3.96 4.621-.251.453-.652.905-1.253 1.608-1.103-2.16-1.604-2.713-3.208-4.22zm.751-3.667v-1.708c1.504.352 4.311 3.065 5.464 4.873-.401.804-.702 1.407-1.103 2.06l-.1-.05c-.802-1.709-2.506-4.02-4.261-5.175zm-.501-3.667c0-.803-.401-1.909-.651-2.612 1.954.402 4.21 2.663 5.964 4.22.151.15.301.251.452.402v.15c2.105 1.91 1.553 2.21.802 3.517a.376.376 0 00-.101.2c-.852-1.908-4.862-4.922-6.466-5.877zm1.103-26.17c-1.153-.101-1.905-.453-2.707-1.106 0-.15 0-.251.05-.352 2.456.05 5.664-1.456 6.366-3.968.401.402.802 1.256 1.203 2.06-.902 2.21-2.406 3.365-4.912 3.365zm-3.008-2.512c-.902-.1-3.609-.603-3.759-1.759 1.554-2.009 6.266-.05 7.368-5.726.752 1.055 2.005 2.813 2.507 3.466-1.354 3.114-4.562 4.019-6.116 4.019zm-5.112-2.613c-5.163.352-6.116 4.07-10.877 6.782-4.061 1.507-9.725 0-10.276-4.672-1.003-8.389 7.519-10.7 13.885-8.74 5.664 1.959 8.872 2.763 14.586 1.406-1.805 5.174-5.815 4.622-7.318 5.224zm4.01-6.178c-.552-.653 1.102-1.758 1.503-2.01l1.604 1.457c-.2.704-2.506.553-3.107.553zm-1.404-.201l-.451.15c-1.002-.451.301-3.516.852-4.169l1.404 1.105c.701.553-.903 1.658-1.805 2.914zm-1.403-1.608c0 .302-.451.201-1.003-.3-.702-1.608-.15-2.613.802-3.517l1.203.803c-.902 1.106-1.153 1.708-1.002 3.014zm-1.705-3.064c0 1.306-.551.603-.802.503-.451-.603-.751-1.708.201-2.763.601.352.902.552 1.353 1.005-.551.25-.852.703-.752 1.255zm-.451 3.969c-9.924-3.014-12.13-2.663-18.696 1.255 1.554-1.959 6.065-4.22 7.619-4.57 3.96-1.005 6.315-1.005 9.975 1.456.852.854 1.102 1.457 1.102 1.859zm-3.158-5.225c-4.561-.2-6.215-.1-8.421.603-1.954.603-4.761 1.206-7.719 5.124h-.1c-.952.954-1.003-.05-.551-.954 1.954-6.23 8.922-10.85 15.438-8.088 1.353.754 3.258 2.31 1.353 3.316zM240.75 47.118c2.957 1.457 4.661.754 6.717.05.551-.452 1.253-.552 1.604-.552.852.954-3.76 2.662-5.514 2.31-4.511-.351-8.371-4.119-7.369-8.037.752-1.004 2.256 3.416 4.712 4.019 4.161 1.808 8.321-1.859 9.123-3.366.551-1.055 1.704-1.255 2.256-.703-.502 2.813-3.309 4.37-4.562 5.174-2.506 1.457-5.313 1.306-6.767.452-.551-.1-.802.302-.2.653zm3.158-11.855c6.466.151 7.719 8.188-.351 8.49-2.607-.352-3.459-1.758-3.659-3.215.25-1.507.852-1.608 1.904-1.708-2.105 3.918 6.316 4.923 5.614-.05.251-.1.201-.252.251-.453 0 0-.251-.15-.401-.25-2.205-1.608-3.659-1.206-6.616-.503-.151.251-2.457.854-2.958.955v-.05c-2.005-.302-2.707-1.457-3.208-3.115 4.06 1.959 5.815-3.014 9.323-3.617 4.562-.854 6.567 3.014 7.77 6.38.15 1.557-.852 1.306-1.253.15-.852-3.466-2.707-4.671-6.416-4.32v1.306zm17.443 55.055c-4.762.1-9.624-1.456-9.724-4.57.301-3.367 4.16-4.371 9.724-4.27v.904c-3.258 0-7.719.1-7.819 3.214-.101 3.517 5.213 3.718 7.819 3.718v1.004zm42.857-18.887c-.501 1.055-1.002 2.11-1.604 3.114a50.981 50.981 0 01-1.704 2.763c-8.271 12.558-22.456 20.846-38.546 20.846V94.74c15.589 0 29.273-8.44 36.741-20.998.602-1.004 1.153-2.06 1.705-3.114.601-1.206 1.102-2.461 1.604-3.717a42.69 42.69 0 002.706-15.02c0-5.274-.952-10.348-2.706-15.02-.502-1.255-1.003-2.51-1.604-3.716-.502-1.055-1.103-2.11-1.705-3.115-7.468-12.558-21.152-20.997-36.741-20.997V5.676c16.09 0 30.275 8.339 38.546 20.847a50.942 50.942 0 011.704 2.763 60.632 60.632 0 011.604 3.114 46.195 46.195 0 014.311 19.49 46.083 46.083 0 01-4.311 19.54zm41.854-68.467c-16.39 0-30.877 8.137-39.749 20.545a52.191 52.191 0 018.421 28.482 52.19 52.19 0 01-8.421 28.482c8.872 12.407 23.409 20.545 39.749 20.545 26.968 0 48.922-22.002 48.922-49.027 0-27.025-21.954-49.027-48.922-49.027zM242.103 21.65c5.013-1.205 6.867-3.064 14.186.05.451.252 1.002.654.902-.3-1.003-2.914-2.055-3.266-2.055-3.316-5.063-.854-8.722.552-12.983 2.913-.3.05-.701.553-.05.653zm15.489 64.097c.05 1.859 1.704 2.26 4.812 2.411v-.803c1.804.05 3.258-.352 3.258-1.558 0-1.004-1.303-1.607-3.258-1.507v-.653c-3.208 0-4.862.854-4.812 2.11zm3.759 1.005c-1.103.1-2.356-.05-2.356-1.005 0-1.005 1.404-1.105 2.356-1.005v2.01z" fill="#005DED"/><path d="M334.484 35.163l12.23 30.541 12.231-30.541h6.366v37.473h-4.913V58.07l.451-15.723-12.28 30.34h-3.76l-12.23-30.24.501 15.673v14.567h-4.912V35.163h6.316z" fill="#fff"/><path d="M26.266 63.092h-15.99l-3.61 9.996H1.505L16.04 34.912h4.411l14.587 38.176h-5.163l-3.61-9.996zM11.78 58.973h12.982L18.246 41.09 11.78 58.973zm51.328-19.942H50.877v34.057h-5.013V39.031h-12.23v-4.12h29.474v4.12zm10.726 29.938H91.88v4.12H68.772V34.911h5.062v34.057zm45.363-5.877h-15.989l-3.61 9.996h-5.162l14.536-38.176h4.411l14.586 38.176h-5.163l-3.609-9.996zm-14.486-4.119h12.983l-6.517-17.883-6.466 17.883zm57.694 14.115h-5.062l-19.198-29.436v29.436h-5.063V34.912h5.063l19.248 29.587V34.912h5.012v38.176zm34.486-34.057h-12.23v34.057h-5.013V39.031h-12.23v-4.12h29.473v4.12zM584.5 99.048c-24.348 0-44.368-20.2-44.368-44.548 0-5.05.902-9.92 2.525-14.609l25.972 50.5c.36.721.721 1.263 1.623 1.263s1.262-.541 1.623-1.263l12.084-26.873c.18-.36.361-.541.541-.541.361 0 .361.36.541.54l12.264 26.874c.361.721.722 1.263 1.624 1.263.901 0 1.262-.541 1.623-1.263l25.971-50.5c1.623 4.509 2.525 9.379 2.525 14.609-.18 24.348-20.2 44.548-44.548 44.548zm0-56.09c-.361 0-.361-.362-.541-.542l-13.888-29.94A42.578 42.578 0 01584.5 9.953c5.05 0 9.92.902 14.429 2.525l-13.888 29.94c-.18.18-.18.54-.541.54zM569.891 75.42c-.361 0-.361-.36-.541-.54l-22.725-43.647c3.968-6.493 9.739-11.904 16.413-15.691l16.051 34.628c.361.722.722.902 1.263.902h8.296c.541 0 .902-.18 1.263-.902l15.871-34.628c6.673 3.787 12.445 9.198 16.413 15.69L599.65 74.88c-.18.361-.361.541-.541.541-.361 0-.361-.36-.541-.54l-8.657-19.118c-.361-.722-.722-.902-1.263-.902h-8.296c-.541 0-.902.18-1.263.902l-8.657 19.117c-.18.18-.18.541-.541.541zM584.5 105c27.955 0 50.5-22.545 50.5-50.5S612.455 4 584.5 4 534 26.545 534 54.5s22.545 50.5 50.5 50.5z" fill="#005DED"/><path d="M457 28a4 4 0 014-4h4a4 4 0 014 4v52a4 4 0 01-4 4h-4a4 4 0 01-4-4V28z" fill="#fff"/><path d="M489 48a4 4 0 014 4v4a4 4 0 01-4 4h-52a4 4 0 01-4-4v-4a4 4 0 014-4h52z" fill="#fff"/></svg>