<svg width="344" height="67" viewBox="0 0 344 67" fill="none" xmlns="http://www.w3.org/2000/svg"><path fill-rule="evenodd" clip-rule="evenodd" d="M134.95 31.543a4.957 4.957 0 00-4.957 4.953 4.957 4.957 0 109.913 0 4.955 4.955 0 00-4.956-4.953zm201.687-3.637c3.25 0 5.627 1.819 7.185 3.637V22.76c-2.553-1.731-5.629-2.424-8.304-2.424-8.216 0-15.355 5.883-15.355 16.004 0 9.69 6.488 16.008 15.483 16.008 2.595 0 5.449-.393 8.176-2.25v-8.614c-1.558 1.604-4.02 3.293-7.185 3.293-4.841 0-7.741-3.59-7.741-8.177 0-4.975 3.072-8.694 7.741-8.694zm-15.545-6.703h-9.949l-9.129 12.715V21.203h-8.476l.003 30.279h8.473V38.459l8.778 13.023h10.604l-11.811-15.617 11.507-14.662zM268.504 39.37V21.203h-8.175v30.279h8.305l11.723-18.17v18.17h8.175v-30.28h-8.307l-11.721 18.169zm-24.566-4.545h-2.418v-6.961h2.418c3.634 0 4.151 1.944 4.151 3.459 0 1.297-.388 3.502-4.151 3.502zm1.858-13.623h-12.758v30.279h8.482v-9.998h4.276c8.567 0 11.033-5.962 11.033-10.16 0-4.154-2.423-10.121-11.033-10.121zm-38.016 7.264h6.657v23.015h8.481V28.467h6.659v-7.264H207.78v7.264zM184.289 39.37V21.203h-8.173v30.279h8.307l11.717-18.17v18.17h8.177v-30.28h-8.303l-11.725 18.169zm-25.259 6.05h-3.632v-6.355h3.632c2.683 0 4.241.78 4.241 3.16 0 2.42-1.6 3.196-4.241 3.196zm.824-12.411h-4.456v-4.543h13.884v-7.264h-22.361l-.001 30.279h12.934c2.203 0 11.894.084 11.894-9.386 0-9.13-9.602-9.086-11.894-9.086zm-60.383 3.33c0 9.69 6.488 16.008 15.484 16.008 2.598 0 5.452-.393 8.178-2.25v-8.614c-1.562 1.604-4.027 3.293-7.183 3.293-4.846 0-7.742-3.59-7.742-8.177 0-4.975 3.07-8.694 7.742-8.694 3.243 0 5.621 1.819 7.183 3.637V22.76c-2.558-1.731-5.626-2.424-8.308-2.424-8.219 0-15.354 5.883-15.354 16.004zm-17.75-8.174h4.631v23.316h7.83v-30.28h-12.46v6.964z" fill="#231F20"/><path fill-rule="evenodd" clip-rule="evenodd" d="M33.289 0c-2.48 0-4.892.279-7.216.795v32.519c0 3.985 3.249 7.235 7.235 7.235 3.984 0 7.232-3.25 7.232-7.233 0-3.828-2.991-6.97-6.751-7.22v-5.791c6.948.252 12.539 6 12.539 13.011 0 7.17-5.849 13.022-13.02 13.022-7.174 0-13.022-5.852-13.022-13.024V2.635c-.822.349-1.625.736-2.412 1.152v29.527c.001 8.499 6.935 15.43 15.434 15.43 8.5 0 15.431-6.931 15.431-15.428 0-8.339-6.67-15.168-14.95-15.425v-5.789c11.466.259 20.735 9.689 20.735 21.214 0 11.688-9.531 21.217-21.216 21.217-11.688 0-21.222-9.529-21.222-21.219V7.627C4.706 13.73 0 22.959 0 33.289c0 18.385 14.904 33.293 33.29 33.293 18.389 0 33.289-14.908 33.289-33.293C66.579 14.904 51.679 0 33.289 0z" fill="#D91935"/></svg>