<svg width="165" height="44" viewBox="0 0 165 44" fill="none" xmlns="http://www.w3.org/2000/svg"><path d="M15.731 25.575l-1.656-13.248c-.092-.643-.46-1.195-1.104-1.38-.644-.183-1.288-.091-1.748.369l-9.567 9.291c-.184.184-.368.46-.46.736-.276.92.184 1.84 1.012 2.208.184.092.368.092.552.092h3.312c.276.092.46.46.368.736l-.552 1.472L0 42.686h1.196l6.348-17.847a1.825 1.825 0 00-1.012-2.208c-.184-.092-.368-.092-.552-.092H2.76c-.276-.092-.46-.46-.368-.736 0-.092.092-.184.184-.276l1.104-1.104 7.268-6.992 1.195-1.196c.184-.092.368-.184.552-.092.184.092.368.276.368.46l.184 1.748 1.104 9.844.184 1.564v.276c-.092.276-.46.46-.736.368-.092 0-.092-.092-.184-.092l-.644-.552-.552-.46-1.196-.92c-.184-.092-.276-.184-.552-.276a1.825 1.825 0 00-2.207 1.012v.092L2.3 42.686h1.196l5.52-15.64.552-1.471c.092-.276.46-.46.736-.368.091 0 .091.092.184.092l1.195 1.012 1.196 1.012c.184.092.276.184.46.276.92.276 1.84-.184 2.208-1.012.184-.46.184-.736.184-1.012zm35.234 17.019h12.972L79.117 0H66.052L50.966 42.594zm51.978 0h12.879l6.716-18.767c2.668-4.508 8.095-3.496 7.084.46l-6.44 18.307h13.431l6.348-17.94c1.656-4.507 8.739-4.783 7.176.553l-5.98 17.387h12.971l7.268-20.607c2.392-6.992-6.164-16.375-20.883-6.072-1.748-4.692-9.016-7.635-18.675-.828l.644-2.76H113.43l-10.487 30.267zM89.787 12.327H77.644l-7.176 20.147c-3.587 11.316 7.82 15.088 18.767 7.268l-.736 2.852h11.592l10.671-30.267H98.343l-6.348 17.295c-1.472 4.232-9.751 6.624-8.463.093l6.255-17.388zm-54.001 1.656L40.662 0H27.599L12.603 42.594H24.84l1.38-3.404c.736 5.152 17.663 9.384 26.678-8.74 7.084-13.063-1.012-26.034-17.11-16.467zm4.508 16.191c-2.392 2.944-6.256 4.508-8.556 3.036-2.391-1.656-2.3-5.335.092-8.831.552-.828 1.196-1.656 1.84-2.208 2.3-2.116 4.876-2.852 6.992-1.472 2.576 1.564 2.116 6.256-.368 9.475z" fill="#141414"/></svg>