<svg width="166" height="45" viewBox="0 0 166 45" fill="none" xmlns="http://www.w3.org/2000/svg"><path d="M16.334 25.85l-1.656-13.247c-.092-.644-.46-1.196-1.104-1.38-.644-.184-1.288-.092-1.748.368L2.26 20.883c-.184.184-.368.46-.46.735-.276.92.184 1.84 1.012 2.208.184.092.368.092.552.092h3.311c.276.092.46.46.368.736l-.552 1.472L.603 42.961h1.196l6.348-17.847a1.825 1.825 0 00-1.012-2.208c-.184-.092-.368-.092-.552-.092h-3.22c-.276-.092-.46-.46-.368-.736 0-.092.092-.184.184-.276l1.104-1.104 7.267-6.991 1.196-1.196c.184-.092.368-.184.552-.092.184.092.368.276.368.46l.184 1.748 1.104 9.843.184 1.564v.276c-.092.276-.46.46-.736.368-.092 0-.092-.092-.184-.092l-.644-.552-.552-.46-1.196-.92c-.184-.092-.276-.184-.552-.276a1.825 1.825 0 00-2.208 1.012v.092l-6.163 17.48h1.196l5.52-15.64.551-1.472c.092-.276.46-.46.736-.368.092 0 .092.092.184.092l1.196 1.012 1.196 1.012c.184.092.276.184.46.276.92.276 1.84-.184 2.208-1.012.184-.46.184-.736.184-1.012zm35.234 17.02H64.54L79.719.275H66.656L51.568 42.869zm51.978 0h12.879l6.716-18.768c2.668-4.508 8.095-3.495 7.083.46l-6.439 18.307h13.431l6.348-17.939c1.656-4.508 8.739-4.784 7.175.552L144.76 42.87h12.971l7.268-20.607c2.392-6.991-6.164-16.375-20.883-6.071-1.748-4.692-9.016-7.636-18.675-.828l.644-2.76h-12.052L103.546 42.87zM90.39 12.603H78.247L71.071 32.75c-3.587 11.315 7.82 15.087 18.767 7.267l-.735 2.852h11.591l10.671-30.266H98.946l-6.348 17.295c-1.472 4.232-9.751 6.624-8.463.092l6.255-17.387zm-54 1.656L41.264.276H28.2L13.207 42.869h12.236l1.38-3.403c.736 5.151 17.663 9.383 26.678-8.74 7.084-13.063-1.012-26.035-17.11-16.467zm4.507 16.191c-2.392 2.944-6.256 4.508-8.556 3.036-2.392-1.656-2.3-5.336.092-8.832.552-.828 1.196-1.656 1.84-2.208 2.3-2.116 4.876-2.851 6.992-1.472 2.576 1.564 2.116 6.256-.368 9.476z" fill="#fff"/></svg>