<svg width="329" height="186" viewBox="0 0 329 186" fill="none" xmlns="http://www.w3.org/2000/svg"><path d="M25.5 10.485a8 8 0 018-8h259a8 8 0 018 8v164.869a8 8 0 01-8 8h-259a8 8 0 01-8-8V10.485z" stroke="#C5CDCF" stroke-width="4"/><path d="M.372 29.46v4.873h.94v-4.107h1.88v4.107h.94V29.46H.371zm4.493 1.74v4.873h.905v-1.81c.195.091.417.14.661.14.954 0 1.601-.662 1.601-1.636 0-.975-.578-1.636-1.44-1.636a1.3 1.3 0 00-.822.279v-.21h-.905zm2.227 1.567c0 .494-.313.835-.758.835-.244 0-.439-.07-.564-.195v-1.253c.125-.139.32-.222.564-.222.445 0 .758.34.758.835zm1.421 0c0 .974.668 1.636 1.656 1.636.982 0 1.657-.662 1.657-1.636 0-.975-.675-1.636-1.657-1.636-.988 0-1.656.661-1.656 1.636zm.94 0c0-.494.292-.835.716-.835.418 0 .717.34.717.835 0 .494-.299.835-.717.835-.424 0-.717-.34-.717-.835zm3.793 0c0-.494.313-.835.758-.835.244 0 .446.09.571.236l.55-.55a1.588 1.588 0 00-1.176-.487c-.982 0-1.643.661-1.643 1.636 0 .974.661 1.636 1.643 1.636.48 0 .884-.174 1.176-.48l-.55-.55c-.125.146-.327.23-.57.23-.446 0-.76-.342-.76-.836zm2.4 1.566h.835v-1.761l.676 1.204h.445l.675-1.204v1.761h.836v-3.132h-.857l-.877 1.455-.877-1.455h-.856v3.132zm4.049-1.566c0 .974.668 1.636 1.657 1.636.981 0 1.656-.662 1.656-1.636 0-.975-.675-1.636-1.656-1.636-.989 0-1.657.661-1.657 1.636zm.94 0c0-.494.292-.835.717-.835.417 0 .717.34.717.835 0 .494-.3.835-.717.835-.425 0-.717-.34-.717-.835zm4.388-.87h.87V31.2h-2.645v.696h.87v2.436h.905v-2.436zm1.364-.697v4.873h.904v-1.81c.195.091.418.14.662.14.953 0 1.6-.662 1.6-1.636 0-.975-.577-1.636-1.44-1.636-.313 0-.592.098-.822.279v-.21h-.904zm2.227 1.567c0 .494-.313.835-.759.835-.243 0-.438-.07-.564-.195v-1.253c.126-.139.32-.222.564-.222.446 0 .76.34.76.835zm1.532 1.566h1.336c.752 0 1.156-.425 1.156-.988 0-.571-.404-.996-1.156-.996h-.431v-1.148h-.905v3.132zm1.301-1.322c.154 0 .286.153.286.334 0 .174-.132.327-.286.327h-.396v-.661h.396zm1.504 1.322h.905v-3.132h-.905v3.132zm4.039-1.566c0-.494.313-.835.759-.835.244 0 .445.09.57.236l.55-.55a1.588 1.588 0 00-1.176-.487c-.981 0-1.642.661-1.642 1.636 0 .974.66 1.636 1.642 1.636.48 0 .884-.174 1.177-.48l-.55-.55c-.126.146-.327.23-.571.23-.446 0-.759-.342-.759-.836zm3.974-.87h.87V31.2h-2.645v.696h.87v2.436h.905v-2.436zm1.363-.697v4.873h.905v-1.81c.195.091.418.14.662.14.953 0 1.6-.662 1.6-1.636 0-.975-.577-1.636-1.44-1.636-.314 0-.592.098-.822.279v-.21h-.905zm2.228 1.567c0 .494-.313.835-.759.835-.244 0-.438-.07-.564-.195v-1.253c.126-.139.32-.222.564-.222.446 0 .759.34.759.835zm4.225.988c-.153 0-.257-.104-.257-.23V32.28c0-.683-.474-1.149-1.323-1.149-.508 0-.835.167-1.155.487l.445.446c.146-.146.404-.202.613-.202.383 0 .515.188.515.418v.174s-.14-.035-.362-.035c-.71 0-1.302.348-1.302 1.044 0 .522.341.94.912.94.348 0 .648-.153.863-.397.126.23.37.383.731.383.111 0 .244-.014.32-.042v-.592zm-1.6-.083c-.216 0-.314-.146-.314-.313 0-.23.174-.342.467-.342.174 0 .285.042.285.042v.41a.598.598 0 01-.439.203zm3.047-2.472h-.905v3.133h.905v-1.218h1.114v1.218h.905v-3.132h-.905v1.218h-1.114V31.2zm3.616 0h-.904v3.133h.696l1.322-1.67v1.67h.905v-3.132h-.696l-1.322 1.67v-1.67zm2.712 3.133h2.471v.975h.835v-1.671h-.452v-2.436h-.905v2.436H57.46v-2.436h-.905v3.132zM.303 41.661c0 .961.654 1.615 1.622 1.615.96 0 1.615-.654 1.615-1.615 0-.96-.655-1.615-1.615-1.615-.968 0-1.622.655-1.622 1.615zm.529 0c0-.689.438-1.162 1.093-1.162.647 0 1.092.473 1.092 1.162 0 .69-.445 1.163-1.092 1.163-.655 0-1.093-.474-1.093-1.163zm6.04-3.689c-.717.877-2.632.258-2.632 3.133 0 1.733.69 2.171 1.553 2.171 1.044 0 1.677-.654 1.677-1.6 0-.982-.689-1.63-1.545-1.63-.508 0-.884.237-1.128.69h-.041c.083-2.068 1.447-1.393 2.401-2.478l-.285-.286zm-2.06 3.696c0-.71.389-1.17 1.036-1.17.655 0 1.1.474 1.1 1.156 0 .696-.452 1.17-1.107 1.17-.675 0-1.03-.494-1.03-1.156zm3.483 1.56h3.828v.835h.474v-1.24h-.376v-2.728h-.508v2.729h-1.205v-2.729h-.5v2.729H8.802v-2.729h-.508v3.133zm7.602-1.434c0-1.072-.522-1.748-1.427-1.748-.89 0-1.496.655-1.496 1.602 0 .98.654 1.628 1.622 1.628.487 0 .884-.167 1.17-.466l-.307-.313c-.195.209-.48.327-.835.327-.648 0-1.066-.41-1.107-1.03h2.38zm-1.413-1.302c.53 0 .842.369.905.94h-1.872c.055-.578.438-.94.967-.94zm4.948 1.302c0-1.072-.522-1.748-1.427-1.748-.89 0-1.496.655-1.496 1.602 0 .98.654 1.628 1.622 1.628.487 0 .884-.167 1.169-.466l-.306-.313c-.195.209-.48.327-.836.327-.647 0-1.065-.41-1.107-1.03h2.381zm-1.413-1.302c.53 0 .842.369.905.94h-1.872c.055-.578.438-.94.967-.94zm4.331 2.736v-1.615l1.407 1.615h.605l-1.447-1.65 1.33-1.483h-.607l-1.287 1.455v-1.455h-.508v3.133h.508zm2.255-1.567c0 .961.654 1.615 1.622 1.615.96 0 1.615-.654 1.615-1.615 0-.96-.655-1.615-1.615-1.615-.968 0-1.622.655-1.622 1.615zm.529 0c0-.689.438-1.162 1.093-1.162.647 0 1.093.473 1.093 1.162 0 .69-.446 1.163-1.093 1.163-.655 0-1.093-.474-1.093-1.163zm3.072 1.567c.056.02.188.027.279.027.48 0 .807-.34.807-.94V40.5h1.114v2.729h.501v-3.133h-2.123v2.2c0 .397-.236.591-.578.591v.342zm4.233-3.133h-.509v3.133h.411l1.775-2.318v2.318h.508v-3.133h-.41l-1.775 2.318v-2.318zm5.493 3.133v-3.133h-.508v1.385c-.16.09-.425.14-.605.14-.488 0-.683-.314-.683-.683v-.842h-.508v.863c0 .648.376 1.08 1.08 1.08.201 0 .486-.035.716-.12v1.31h.508zm3.743-1.434c0-1.072-.523-1.748-1.427-1.748-.892 0-1.497.655-1.497 1.602 0 .98.654 1.628 1.622 1.628.487 0 .884-.167 1.17-.466l-.307-.313c-.195.209-.48.327-.835.327-.648 0-1.065-.41-1.107-1.03h2.38zm-1.414-1.302c.53 0 .843.369.905.94h-1.872c.056-.578.438-.94.967-.94zm2.554 1.169c0-.689.445-1.162 1.107-1.162.34 0 .626.125.814.334l.313-.313c-.278-.3-.682-.474-1.155-.474-.96 0-1.608.655-1.608 1.615 0 .961.647 1.615 1.608 1.615.473 0 .877-.167 1.155-.466l-.313-.313c-.188.209-.473.327-.814.327-.662 0-1.107-.474-1.107-1.163zm4.114-1.162h.974v-.404H45.44v.404h.981v2.729h.509v-2.73zm1.758 2.729h1.267c.605 0 .953-.355.953-.864 0-.382-.201-.675-.556-.793a.756.756 0 00.376-.682c0-.467-.328-.794-.884-.794h-1.156v3.133zm1.183-1.448c.314 0 .53.215.53.529a.505.505 0 01-.53.529h-.675V41.78h.675zm-.675-.355v-.94h.57c.28 0 .467.195.467.466 0 .279-.188.474-.466.474h-.57zm2.376.236c0 .961.655 1.615 1.622 1.615.96 0 1.615-.654 1.615-1.615 0-.96-.654-1.615-1.615-1.615-.967 0-1.622.655-1.622 1.615zm.53 0c0-.689.438-1.162 1.092-1.162.648 0 1.093.473 1.093 1.162 0 .69-.445 1.163-1.093 1.163-.654 0-1.093-.474-1.093-1.163z" fill="#020E1A"/><g filter="url(#filter0_d)"><rect x="94.735" y="23.505" width="225.456" height="27.07" rx="8" fill="#6D302E"/></g><path d="M261.417 36.768h.427c.547 0 .928.427.928 1.011 0 .585-.381.993-.928.993-.548 0-.928-.408-.928-.993h-1.253c0 1.216.881 2.06 2.181 2.06 1.299 0 2.181-.844 2.181-2.06 0-.705-.297-1.206-.798-1.531.38-.279.612-.696.612-1.262 0-1.077-.807-1.829-1.995-1.829-1.188 0-1.996.752-1.996 1.829h1.253c0-.446.306-.761.743-.761.436 0 .742.315.742.76 0 .446-.306.78-.742.78h-.427v1.003zm5.443-2.497h2.701l-1.819 5.476h1.281l2.116-6.172v-.325h-4.279v1.021zm4.929.186l1.021-.158v5.448h1.206v-6.543l-2.227.325v.928zm3.245 0l1.02-.158v5.448h1.207v-6.543l-2.227.325v.928zm5.615.529c0 .566.223.983.594 1.262-.492.325-.779.826-.779 1.531 0 1.216.881 2.06 2.181 2.06 1.299 0 2.181-.844 2.181-2.06 0-.705-.297-1.206-.798-1.531.38-.279.612-.696.612-1.262 0-1.077-.807-1.829-1.995-1.829-1.188 0-1.996.752-1.996 1.829zm1.068 2.793c0-.584.38-.993.928-.993.547 0 .928.409.928.993 0 .585-.381.993-.928.993-.548 0-.928-.408-.928-.993zm.185-2.793c0-.446.307-.761.743-.761s.742.315.742.76c0 .446-.306.762-.742.762s-.743-.316-.743-.761zm7.561 2.719c0-1.327-.9-2.227-2.237-2.227a1.85 1.85 0 00-.454.055l.13-1.262h2.051V33.25h-3.119l-.352 3.35.881.27c.177-.195.455-.325.789-.325.622 0 1.058.473 1.058 1.16 0 .622-.362 1.058-.881 1.058-.548 0-.929-.418-.929-1.012h-1.206c0 1.244.863 2.089 2.135 2.089 1.271 0 2.134-.864 2.134-2.135zm.635 1.067v.975h4.242v-1.021h-2.497l1.865-1.866c.399-.399.632-.918.632-1.568 0-1.272-.864-2.135-2.135-2.135-1.272 0-2.135.863-2.135 2.135h1.253c0-.622.362-1.058.882-1.058s.882.436.882 1.058c0 .297-.075.566-.26.752l-2.729 2.728z" fill="#fff"/><path d="M.414 78.126c0 .195.146.341.341.341a.342.342 0 10-.341-.341zm1.524 0c0 .195.154.341.342.341a.333.333 0 00.34-.34.342.342 0 00-.682 0zm1.532 0c0 .195.153.341.341.341a.342.342 0 10-.341-.341zm1.477.641h.515l2.569-5.569h-.516l-2.568 5.569zm5.393-1.079c-.445 0-.758-.341-.758-.835 0-.495.313-.836.758-.836.244 0 .439.077.571.237l.55-.55c-.313-.327-.703-.487-1.176-.487-.495 0-.891.153-1.19.452-.3.3-.453.696-.453 1.184 0 .487.153.884.452 1.183.3.3.696.452 1.19.452.481 0 .87-.16 1.177-.48l-.55-.55c-.132.153-.32.23-.57.23zm4.266.139c-.111 0-.188-.084-.188-.216v-1.246c0-.327-.118-.605-.348-.821-.23-.216-.543-.327-.925-.327-.432 0-.815.16-1.142.48l.48.48c.119-.132.376-.23.578-.23.285 0 .453.202.453.418v.153a1.612 1.612 0 00-.202-.014c-.404 0-.752.09-1.038.279a.883.883 0 00-.424.786c0 .509.362.92.919.92a1.1 1.1 0 00.849-.39c.132.243.362.361.689.361a.83.83 0 00.3-.041v-.592zm-1.524-.07c-.216 0-.32-.146-.32-.292 0-.23.271-.376.598-.376.049 0 .105.007.154.021v.445a.555.555 0 01-.432.202zm2.208-1.775v1.288c0 .752.453 1.218 1.177 1.218.16 0 .292-.02.39-.07v-.737a.42.42 0 01-.209.049c-.25 0-.418-.181-.418-.46v-1.288h.627v-.696h-.627v-.696h-.94v.696h-.347v.696h.348zm4.782 1.845c-.112 0-.188-.084-.188-.216v-1.246a1.09 1.09 0 00-.348-.821c-.23-.216-.543-.327-.926-.327-.432 0-.814.16-1.142.48l.48.48c.119-.132.377-.23.578-.23.286 0 .453.202.453.418v.153a1.612 1.612 0 00-.202-.014c-.404 0-.752.09-1.037.279a.883.883 0 00-.425.786c0 .509.362.92.919.92a1.1 1.1 0 00.85-.39c.131.243.361.361.688.361a.83.83 0 00.3-.041v-.592zm-1.525-.07c-.216 0-.32-.146-.32-.292 0-.23.272-.376.599-.376.048 0 .104.007.153.021v.445a.555.555 0 01-.432.202zm3.368.07c-.195 0-.327-.111-.327-.3v-4.329h-.905v4.358c0 .55.306.904.87.904.16 0 .286-.013.362-.041v-.592zm.829.209c.314.3.717.452 1.212.452.494 0 .898-.153 1.204-.452.313-.3.466-.696.466-1.183 0-.488-.153-.885-.466-1.184-.306-.3-.71-.452-1.204-.452-.495 0-.898.153-1.212.452-.306.3-.459.696-.459 1.184 0 .487.153.884.46 1.183zm.683-1.782a.655.655 0 01.529-.237c.215 0 .396.077.529.237a.89.89 0 01.201.599c0 .243-.07.445-.201.605a.67.67 0 01-.53.23.67.67 0 01-.528-.23.921.921 0 01-.202-.605.89.89 0 01.202-.6zm2.443 2.93c0 .62.62 1.044 1.566 1.044.495 0 .905-.104 1.226-.313.32-.202.48-.473.48-.8 0-.313-.146-.564-.446-.752-.292-.195-.675-.292-1.155-.292-.306 0-.488-.098-.488-.244 0-.16.126-.244.376-.244.815 0 1.365-.48 1.365-1.183 0-.104-.014-.223-.049-.341.077-.097.16-.146.25-.146.056 0 .105.007.147.028v-.71a1.324 1.324 0 00-.195-.014c-.216 0-.404.097-.57.292-.244-.195-.558-.292-.934-.292-.814 0-1.364.48-1.364 1.204 0 .41.146.717.432.919-.216.132-.328.3-.328.515 0 .216.105.383.314.515-.418.188-.627.46-.627.814zm.94 0c0-.25.306-.424.73-.424.398 0 .662.146.662.369 0 .25-.334.424-.773.424-.39 0-.62-.146-.62-.369zm.306-3.132a.466.466 0 01.668 0c.174.174.174.515 0 .703a.493.493 0 01-.668 0c-.174-.188-.174-.529 0-.703zm2.711 2.715h.515l2.568-5.569h-.515l-2.568 5.569zm7.843-3.481l-.598 2.019-.606-2.019h-.905l-.605 2.019-.599-2.019h-1.044l1.176 3.133h.94l.585-1.845.584 1.845h.94l1.177-3.133H37.67zm1.573 2.75c.313.3.717.452 1.21.452.495 0 .899-.153 1.205-.452.313-.3.466-.696.466-1.183 0-.488-.153-.885-.466-1.184-.306-.3-.71-.452-1.204-.452s-.898.153-1.211.452c-.307.3-.46.696-.46 1.184 0 .487.153.884.46 1.183zm.682-1.782a.655.655 0 01.529-.237c.216 0 .397.077.529.237a.89.89 0 01.202.599c0 .243-.07.445-.202.605a.67.67 0 01-.53.23.67.67 0 01-.528-.23.921.921 0 01-.202-.605.89.89 0 01.202-.6zm7.37 2.165v-1.984c0-.731-.397-1.218-1.03-1.218-.418 0-.759.139-1.023.41-.188-.271-.46-.41-.815-.41-.313 0-.578.09-.807.278v-.209h-.905v3.133h.905v-2.18c.132-.145.32-.222.564-.222.222 0 .368.174.368.418v1.984h.905v-1.984a1.61 1.61 0 00-.02-.25c.139-.112.334-.168.584-.168.223 0 .37.174.37.418v1.984h.904zm3.319-.592c-.111 0-.188-.084-.188-.216v-1.246c0-.327-.118-.605-.348-.821-.23-.216-.543-.327-.926-.327-.431 0-.814.16-1.141.48l.48.48c.118-.132.376-.23.578-.23.285 0 .452.202.452.418v.153a1.612 1.612 0 00-.202-.014c-.403 0-.751.09-1.037.279a.883.883 0 00-.424.786c0 .509.361.92.918.92a1.1 1.1 0 00.85-.39c.132.243.362.361.689.361.132 0 .23-.013.3-.041v-.592zm-1.524-.07c-.216 0-.32-.146-.32-.292 0-.23.27-.376.598-.376a.58.58 0 01.153.021v.445a.554.554 0 01-.431.202zm2.135.662h.905v-2.18c.133-.145.32-.222.564-.222.307 0 .508.23.508.557v1.845h.905v-1.845c0-.814-.452-1.357-1.17-1.357-.312 0-.577.09-.807.278v-.209h-.905v3.133zm3.597.348h.515l2.569-5.569h-.515l-2.569 5.569z" fill="#020E1A"/><g filter="url(#filter1_d)"><rect x="94.735" y="62.95" width="134.964" height="27.07" rx="8" fill="#7C267B"/></g><path d="M166.971 78.218v.974h4.241v-1.02h-2.496l1.865-1.866c.399-.4.631-.92.631-1.569 0-1.271-.863-2.134-2.134-2.134-1.272 0-2.135.863-2.135 2.134h1.253c0-.622.362-1.058.882-1.058.519 0 .881.436.881 1.058 0 .297-.074.566-.26.752l-2.728 2.729zm4.848-4.316l1.021-.158v5.448h1.207V72.65l-2.228.325v.928zm3.245 0l1.021-.158v5.448h1.206V72.65l-2.227.325v.928zm7.732-1.299c-1.197 1.188-2.302 2.914-2.302 4.492 0 1.392.863 2.19 2.126 2.19 1.29 0 2.144-.845 2.144-2.079 0-1.253-.873-2.051-2.117-2.051-.13 0-.222.01-.315.028.362-.669.984-1.457 1.503-1.987l-1.039-.593zm-1.049 4.594c0-.603.362-1.021.882-1.021s.882.418.882 1.02c0 .604-.362 1.022-.882 1.022s-.882-.418-.882-1.021zm3.622-3.295l1.021-.158v5.448h1.207V72.65l-2.228.325v.928zm3.477.528c0 .567.223.985.594 1.263-.492.325-.779.826-.779 1.532 0 1.215.881 2.06 2.181 2.06 1.299 0 2.181-.845 2.181-2.06 0-.706-.297-1.207-.798-1.532.38-.278.612-.696.612-1.262 0-1.077-.807-1.828-1.995-1.828-1.188 0-1.996.751-1.996 1.828zm1.068 2.795c0-.585.38-.993.928-.993.547 0 .928.408.928.993 0 .584-.381.993-.928.993-.548 0-.928-.409-.928-.993zm.185-2.794c0-.446.306-.761.743-.761.436 0 .742.315.742.76 0 .446-.306.762-.742.762-.437 0-.743-.316-.743-.761z" fill="#fff"/><path d="M205.435 77.206c0-1.3-.854-2.181-2.107-2.181-.334 0-.649.074-.881.213l.278-1.958h2.228v-.585h-2.831l-.399 3.147.492.195c.25-.251.622-.4 1.076-.4.854 0 1.448.64 1.448 1.569 0 .854-.529 1.439-1.281 1.439-.77 0-1.299-.539-1.299-1.31h-.678c0 1.143.799 1.922 1.977 1.922 1.179 0 1.977-.826 1.977-2.051zm1.081 1.596c0 .26.195.455.454.455a.455.455 0 10-.454-.455zm1.33-5.522h3.053l-2.199 5.912h.723l2.349-6.246v-.25h-3.926v.584zm6.315 5.912h.687l3.415-6.497h-.687l-3.415 6.497zm-1.55-4.993c0 .937.64 1.568 1.578 1.568.928 0 1.568-.63 1.568-1.568 0-.938-.64-1.569-1.568-1.569-.938 0-1.578.632-1.578 1.569zm.613 0c0-.622.389-1.049.965-1.049.566 0 .956.427.956 1.049 0 .622-.39 1.049-.956 1.049-.576 0-.965-.427-.965-1.05zm3.434 3.49c0 .937.64 1.568 1.568 1.568.938 0 1.578-.631 1.578-1.568 0-.938-.64-1.569-1.578-1.569-.928 0-1.568.631-1.568 1.569zm.612 0c0-.622.39-1.05.956-1.05.576 0 .965.428.965 1.05 0 .622-.389 1.048-.965 1.048-.566 0-.956-.426-.956-1.048z" opacity=".7" fill="#fff"/><path d="M3.122 109.743h1.211l-1.928-2.513 1.754-2.36H2.976l-1.664 2.242v-2.242h-.94v4.873h.94v-2.395l1.81 2.395zm4.253-.578c-.153 0-.257-.104-.257-.23v-1.246c0-.682-.474-1.148-1.323-1.148-.508 0-.835.167-1.155.487l.445.445c.146-.146.404-.201.613-.201.383 0 .515.188.515.417v.174s-.14-.034-.362-.034c-.71 0-1.302.348-1.302 1.044 0 .522.341.939.912.939.348 0 .647-.153.863-.396.126.229.37.382.731.382.112 0 .244-.013.32-.041v-.592zm-1.6-.084c-.216 0-.314-.146-.314-.313 0-.229.174-.341.466-.341.174 0 .286.042.286.042v.411a.598.598 0 01-.439.201zm2.142-2.471v4.873h.905v-1.81c.195.091.418.139.661.139.954 0 1.601-.661 1.601-1.635 0-.975-.577-1.636-1.44-1.636-.314 0-.592.097-.822.278v-.209h-.905zm2.228 1.567c0 .494-.314.835-.76.835-.243 0-.438-.07-.563-.195v-1.253c.125-.139.32-.223.564-.223.445 0 .759.341.759.836zm2.962-.871h.87v-.696h-2.645v.696h.87v2.437h.905v-2.437zm1.075.871c0 .974.668 1.635 1.657 1.635.981 0 1.656-.661 1.656-1.635 0-.975-.675-1.636-1.656-1.636-.989 0-1.657.661-1.657 1.636zm.94 0c0-.495.292-.836.717-.836.417 0 .717.341.717.836 0 .494-.3.835-.717.835-.425 0-.717-.341-.717-.835zm5.526 1.566v-3.133h-.904v1.219c-.098.069-.272.104-.418.104-.279 0-.41-.146-.41-.404v-.919h-.906v.954c0 .675.37 1.1 1.086 1.1.181 0 .425-.028.648-.098v1.177h.904zm1.6 0v-1.448l1.065 1.448h1.058l-1.26-1.678 1.134-1.455H23.18l-.932 1.239v-1.239h-.905v3.133h.905zm5.167-.578c-.153 0-.257-.104-.257-.23v-1.246c0-.682-.474-1.148-1.323-1.148-.508 0-.835.167-1.155.487l.445.445c.146-.146.404-.201.613-.201.382 0 .515.188.515.417v.174s-.14-.034-.362-.034c-.71 0-1.302.348-1.302 1.044 0 .522.341.939.912.939.348 0 .647-.153.863-.396.125.229.369.382.73.382.112 0 .245-.013.321-.041v-.592zm-1.6-.084c-.217 0-.314-.146-.314-.313 0-.229.174-.341.466-.341.174 0 .286.042.286.042v.411a.598.598 0 01-.439.201zm5.313-1.775h.87v-.696h-2.646v.696h.87v2.437h.905v-2.437zm1.075.871c0 .974.668 1.635 1.657 1.635.981 0 1.656-.661 1.656-1.635 0-.975-.675-1.636-1.656-1.636-.989 0-1.657.661-1.657 1.636zm.94 0c0-.495.292-.836.717-.836.417 0 .717.341.717.836 0 .494-.3.835-.717.835-.425 0-.717-.341-.717-.835zm2.957 1.566h1.602c.668 0 1.03-.362 1.03-.87a.803.803 0 00-.53-.787.754.754 0 00.342-.661c0-.474-.341-.815-.968-.815h-1.475v3.133zm1.428-1.323c.16 0 .299.146.299.334 0 .181-.14.327-.3.327h-.521v-.661h.522zm-.522-.591v-.557h.417c.133 0 .25.125.25.278 0 .153-.117.279-.25.279h-.417zm4.95 1.336c-.154 0-.258-.104-.258-.23v-1.246c0-.682-.473-1.148-1.323-1.148-.508 0-.835.167-1.155.487l.445.445c.147-.146.404-.201.613-.201.383 0 .515.188.515.417v.174s-.14-.034-.362-.034c-.71 0-1.302.348-1.302 1.044 0 .522.342.939.912.939.348 0 .648-.153.863-.396.126.229.37.382.731.382.112 0 .244-.013.32-.041v-.592zm-1.602-.084c-.215 0-.313-.146-.313-.313 0-.229.174-.341.467-.341.174 0 .285.042.285.042v.411a.598.598 0 01-.438.201zm2.143-2.471v4.873h.905v-1.81c.195.091.418.139.662.139.953 0 1.6-.661 1.6-1.635 0-.975-.577-1.636-1.44-1.636-.313 0-.592.097-.822.278v-.209h-.905zm2.228 1.567c0 .494-.313.835-.759.835-.244 0-.438-.07-.564-.195v-1.253c.126-.139.32-.223.564-.223.446 0 .759.341.759.836zm4.225.988c-.153 0-.257-.104-.257-.23v-1.246c0-.682-.474-1.148-1.323-1.148-.508 0-.835.167-1.155.487l.445.445c.147-.146.404-.201.613-.201.383 0 .515.188.515.417v.174s-.14-.034-.362-.034c-.71 0-1.302.348-1.302 1.044 0 .522.341.939.912.939.348 0 .648-.153.863-.396.126.229.37.382.731.382.112 0 .244-.013.32-.041v-.592zm-1.6-.084c-.216 0-.314-.146-.314-.313 0-.229.174-.341.467-.341.174 0 .285.042.285.042v.411a.598.598 0 01-.439.201zM.498 118.637h1.267c.605 0 .953-.355.953-.863 0-.383-.202-.675-.557-.793a.757.757 0 00.376-.683c0-.466-.327-.793-.884-.793H.498v3.132zm1.183-1.448c.313 0 .53.216.53.529a.504.504 0 01-.53.529h-.675v-1.058h.675zm-.675-.355v-.939h.57c.28 0 .467.195.467.466 0 .278-.188.473-.466.473h-.571zm3.079 1.803v-1.615l1.406 1.615h.606l-1.448-1.649 1.33-1.483h-.606l-1.288 1.455v-1.455h-.508v3.132h.508zm2.485 0c.055.021.187.028.278.028.48 0 .807-.341.807-.94v-1.816H8.77v2.728h.501v-3.132H7.147v2.199c0 .397-.237.592-.578.592v.341zm4.232-3.132h-.509v3.132h.509v-1.378h.786c.077.856.675 1.427 1.539 1.427.918 0 1.545-.654 1.545-1.615s-.627-1.615-1.546-1.615c-.849 0-1.447.557-1.538 1.392h-.786v-1.343zm1.301 1.566c0-.689.418-1.162 1.024-1.162.605 0 1.023.473 1.023 1.162s-.418 1.163-1.024 1.163c-.605 0-1.023-.474-1.023-1.163zm5.579 1.566v-3.132h-.508v1.385c-.16.091-.425.139-.606.139-.487 0-.682-.313-.682-.682v-.842h-.508v.863c0 .647.376 1.079 1.079 1.079.202 0 .487-.035.717-.118v1.308h.508zm3.345-.341c-.153 0-.264-.09-.264-.257v-1.587c0-.523-.37-.996-1.1-.996a1.39 1.39 0 00-1.002.397l.278.278c.146-.153.439-.257.682-.257.446 0 .634.313.634.578v.382a.933.933 0 00-.237-.021c-.842 0-1.51.369-1.51 1.017 0 .417.27.856.897.856.334 0 .655-.132.898-.355.084.209.265.334.522.334.07 0 .154-.007.202-.028v-.341zm-1.469-.028c-.417 0-.542-.292-.542-.487 0-.383.445-.613 1.03-.613.097 0 .16.007.209.014v.787a.983.983 0 01-.697.299zm4.389-2.763h-1.232c-.647 0-1.023.383-1.023.926 0 .445.258.779.71.884l-.78 1.322h.536l.71-1.288h.571v1.288h.508v-3.132zm-1.218 1.455c-.313 0-.529-.223-.529-.536 0-.314.216-.529.53-.529h.71v1.065h-.71zm5.905 1.677h.509v-3.132h-2.569v3.132h.508v-2.728h1.552v2.728zm4.251-1.434c0-1.072-.522-1.747-1.427-1.747-.89 0-1.496.654-1.496 1.601 0 .982.654 1.629 1.621 1.629.488 0 .884-.167 1.17-.466l-.306-.314c-.195.209-.48.328-.836.328-.647 0-1.065-.411-1.107-1.031h2.381zm-1.413-1.301c.53 0 .842.369.905.939h-1.873c.056-.577.439-.939.968-.939zm2.219-.397v4.872h.508v-1.921c.237.146.53.23.85.23.946 0 1.587-.654 1.587-1.615s-.613-1.615-1.51-1.615a1.43 1.43 0 00-.927.313v-.264h-.508zm2.416 1.566c0 .689-.446 1.163-1.1 1.163-.341 0-.613-.112-.808-.3v-1.712c.195-.195.467-.313.808-.313.654 0 1.1.473 1.1 1.162zm4.079.132c0-1.072-.522-1.747-1.427-1.747-.891 0-1.497.654-1.497 1.601 0 .982.655 1.629 1.622 1.629.487 0 .884-.167 1.17-.466l-.307-.314c-.195.209-.48.328-.835.328-.647 0-1.065-.411-1.107-1.031h2.38zm-1.413-1.301c.529 0 .842.369.905.939h-1.873c.056-.577.439-.939.968-.939zm4.196 2.735h.591l-1.246-1.594 1.198-1.538h-.592l-.933 1.204-.926-1.204h-.591l1.19 1.538-1.239 1.594h.585l.981-1.274.982 1.274zm.84-1.566c0 .961.654 1.615 1.621 1.615.961 0 1.615-.654 1.615-1.615s-.654-1.615-1.615-1.615c-.967 0-1.621.654-1.621 1.615zm.529 0c0-.689.438-1.162 1.092-1.162.648 0 1.093.473 1.093 1.162s-.445 1.163-1.093 1.163c-.654 0-1.092-.474-1.092-1.163zm6.253 1.163h-.417v-2.729h-2.158v2.032c0 .404-.265.697-.613.697v1.239h.474v-.836h2.241v.836h.473v-1.239zm-2.067-.738v-1.587h1.148v2.325h-1.447a.992.992 0 00.299-.738zm2.848 1.141h1.135c.633 0 1.002-.376 1.002-.905s-.369-.905-1.002-.905h-.627v-1.322h-.508v3.132zm1.12-1.42c.3 0 .51.216.51.515 0 .307-.21.515-.51.515h-.612v-1.03h.613zm1.525 1.42h.508v-3.132h-.508v3.132zm3.461-1.566c0-.689.445-1.162 1.106-1.162.341 0 .627.125.815.334l.313-.314c-.278-.299-.682-.473-1.155-.473-.961 0-1.608.654-1.608 1.615s.647 1.615 1.608 1.615c.473 0 .877-.167 1.155-.466l-.313-.314c-.188.209-.474.328-.815.328-.66 0-1.106-.474-1.106-1.163zm7.107-3.689c-.717.877-2.631.257-2.631 3.132 0 1.733.689 2.172 1.552 2.172 1.044 0 1.677-.654 1.677-1.601 0-.982-.689-1.629-1.545-1.629-.508 0-.884.237-1.128.689h-.041c.083-2.067 1.447-1.392 2.401-2.478l-.285-.285zm-2.06 3.696c0-.71.39-1.169 1.037-1.169.654 0 1.1.473 1.1 1.155 0 .696-.453 1.17-1.107 1.17-.676 0-1.03-.495-1.03-1.156zm3.028 1.559c.056.021.188.028.279.028.48 0 .807-.341.807-.94v-1.816h1.114v2.728h.501v-3.132h-2.123v2.199c0 .397-.237.592-.578.592v.341zm3.53-1.566c0 .961.654 1.615 1.621 1.615.961 0 1.616-.654 1.616-1.615s-.655-1.615-1.615-1.615c-.968 0-1.622.654-1.622 1.615zm.529 0c0-.689.438-1.162 1.093-1.162.647 0 1.092.473 1.092 1.162s-.445 1.163-1.093 1.163c-.654 0-1.092-.474-1.092-1.163zm4.035 1.566v-1.615l1.406 1.615h.606l-1.448-1.649 1.33-1.483h-.606l-1.288 1.455v-1.455h-.508v3.132h.508zm4.957-.341c-.153 0-.264-.09-.264-.257v-1.587c0-.523-.37-.996-1.1-.996a1.39 1.39 0 00-1.002.397l.278.278c.146-.153.439-.257.682-.257.446 0 .634.313.634.578v.382a.934.934 0 00-.237-.021c-.842 0-1.51.369-1.51 1.017 0 .417.271.856.897.856.335 0 .655-.132.898-.355.084.209.265.334.523.334.07 0 .153-.007.201-.028v-.341zm-1.468-.028c-.418 0-.543-.292-.543-.487 0-.383.445-.613 1.03-.613.097 0 .16.007.209.014v.787a.983.983 0 01-.696.299zm-75.712 8.714l.264-.265-.919-.925.92-.926-.265-.265-1.184 1.191 1.184 1.19zm1.183 0l.264-.265-.925-.925.925-.926-.264-.265-1.19 1.191 1.19 1.19zm1.543-1.887c0-1.197.787-2.011 1.935-2.011.592 0 1.086.209 1.42.564l.342-.335c-.432-.445-1.051-.703-1.782-.703-1.462 0-2.458 1.01-2.458 2.485 0 1.476.996 2.485 2.458 2.485.73 0 1.35-.257 1.782-.703l-.341-.327c-.342.355-.829.557-1.42.557-1.15 0-1.936-.814-1.936-2.012zm4.485 2.437h.473V125.2l.954 1.705h.299l.954-1.705v2.332h.473v-3.133h-.487l-1.086 1.887-1.093-1.887h-.487v3.133zm3.972-1.566c0 .96.654 1.614 1.622 1.614.96 0 1.615-.654 1.615-1.614 0-.961-.655-1.615-1.615-1.615-.968 0-1.622.654-1.622 1.615zm.529 0c0-.69.438-1.163 1.093-1.163.647 0 1.093.473 1.093 1.163 0 .689-.446 1.162-1.093 1.162-.655 0-1.093-.473-1.093-1.162zm4.576-1.163h.975v-.404h-2.465v.404h.982v2.729h.508v-2.729zm1.758-.404v4.873h.509v-1.921c.236.146.529.229.849.229.946 0 1.587-.654 1.587-1.614 0-.961-.613-1.615-1.51-1.615a1.43 1.43 0 00-.927.313v-.265h-.508zm2.416 1.567c0 .689-.446 1.162-1.1 1.162-.341 0-.613-.111-.808-.299v-1.713c.195-.195.467-.313.808-.313.654 0 1.1.473 1.1 1.163zm4.079.132c0-1.072-.522-1.747-1.427-1.747-.891 0-1.497.654-1.497 1.601 0 .981.655 1.628 1.622 1.628.488 0 .884-.167 1.17-.466l-.307-.313c-.195.209-.48.327-.835.327-.647 0-1.065-.411-1.107-1.03h2.381zm-1.413-1.302c.529 0 .842.369.905.94h-1.873c.056-.578.439-.94.968-.94zm3.268.007h.975v-.404H26.33v.404h.981v2.729h.508v-2.729zm1.759 2.729h1.134c.634 0 1.003-.376 1.003-.905s-.37-.905-1.003-.905h-.626v-1.323h-.508v3.133zm1.12-1.42c.3 0 .508.216.508.515 0 .306-.208.515-.508.515h-.612v-1.03h.612zm4.701-1.309h.974v-.404H33.91v.404h.982v2.729h.508v-2.729zm3.845 2.388c-.153 0-.264-.091-.264-.258v-1.587c0-.522-.37-.995-1.1-.995-.397 0-.759.146-1.002.396l.278.279c.146-.153.439-.258.682-.258.446 0 .634.313.634.578v.383a.933.933 0 00-.237-.021c-.842 0-1.51.369-1.51 1.016 0 .418.27.856.897.856.335 0 .655-.132.898-.355.084.209.265.335.522.335.07 0 .154-.007.202-.028v-.341zm-1.468-.028c-.418 0-.543-.293-.543-.487 0-.383.445-.613 1.03-.613.097 0 .16.007.209.014v.786a.984.984 0 01-.697.3zm2.799.369v-1.615l1.406 1.615h.605l-1.448-1.65 1.33-1.483h-.605l-1.288 1.455v-1.455h-.508v3.133h.508zm6.041 0h.584l-1.287-1.65 1.176-1.483h-.585l-1.148 1.469v-1.469h-.501v1.476l-1.149-1.476h-.585l1.177 1.483-1.288 1.65h.578l1.267-1.636v1.636h.5v-1.629l1.26 1.629zm3.759-1.434c0-1.072-.522-1.747-1.427-1.747-.891 0-1.497.654-1.497 1.601 0 .981.654 1.628 1.622 1.628.487 0 .884-.167 1.17-.466l-.307-.313c-.195.209-.48.327-.835.327-.647 0-1.065-.411-1.107-1.03h2.38zm-1.413-1.302c.529 0 .842.369.905.94h-1.873c.056-.578.439-.94.968-.94zm4.697.996l-1.19-1.191-.265.265.926.926-.926.925.265.265 1.19-1.19zm-1.176 0l-1.19-1.191-.265.265.926.926-.926.925.264.265 1.19-1.19z" fill="#020E1A"/><g filter="url(#filter2_d)"><rect x="94.735" y="102.395" width="72.703" height="27.07" rx="8" fill="#DC40B1"/></g><path d="M104.608 113.876c0 .566.223.984.594 1.262-.491.325-.779.826-.779 1.532 0 1.215.882 2.06 2.181 2.06s2.181-.845 2.181-2.06c0-.706-.297-1.207-.798-1.532.38-.278.612-.696.612-1.262 0-1.077-.807-1.828-1.995-1.828-1.188 0-1.996.751-1.996 1.828zm1.068 2.794c0-.585.38-.993.928-.993s.928.408.928.993c0 .584-.38.993-.928.993s-.928-.409-.928-.993zm.185-2.794c0-.445.307-.761.743-.761s.742.316.742.761c0 .446-.306.761-.742.761s-.743-.315-.743-.761zm5.093 1.782h.426c.548 0 .929.427.929 1.012 0 .584-.381.993-.929.993-.547 0-.928-.409-.928-.993h-1.253c0 1.215.882 2.06 2.181 2.06 1.3 0 2.182-.845 2.182-2.06 0-.706-.297-1.207-.799-1.532.381-.278.613-.696.613-1.262 0-1.077-.808-1.828-1.996-1.828-1.187 0-1.995.751-1.995 1.828h1.253c0-.445.306-.761.742-.761.437 0 .743.316.743.761 0 .446-.306.78-.743.78h-.426v1.002zm7.364 3.072c1.198-1.188 2.302-2.914 2.302-4.492 0-1.392-.863-2.19-2.125-2.19-1.29 0-2.144.844-2.144 2.079 0 1.253.872 2.051 2.116 2.051.13 0 .223-.01.315-.028-.362.668-.983 1.457-1.503 1.986l1.039.594zm1.049-4.594c0 .603-.362 1.021-.882 1.021-.519 0-.881-.418-.881-1.021s.362-1.021.881-1.021c.52 0 .882.418.882 1.021zm4.274 4.501h1.206v-1.113h.474v-1.021h-.52v-4.363h-1.207l-2.83 4.873v.511h2.877v1.113zm-1.365-2.134l1.411-2.562v2.562h-1.411zm5.795 2.227c1.197-1.188 2.302-2.914 2.302-4.492 0-1.392-.864-2.19-2.126-2.19-1.29 0-2.144.844-2.144 2.079 0 1.253.873 2.051 2.116 2.051.13 0 .223-.01.316-.028-.362.668-.984 1.457-1.504 1.986l1.04.594zm1.049-4.594c0 .603-.362 1.021-.882 1.021s-.882-.418-.882-1.021.362-1.021.882-1.021.882.418.882 1.021z" fill="#fff"/><path d="M138.898 118.034v.603h3.889v-.584h-2.97l2.376-2.376c.362-.372.594-.91.594-1.55 0-1.226-.798-2.052-1.977-2.052-1.178 0-1.977.826-1.977 2.052h.697c0-.854.519-1.439 1.28-1.439.752 0 1.281.585 1.281 1.439 0 .454-.13.844-.371 1.095l-2.822 2.812zm4.897.213c0 .26.195.455.455.455a.455.455 0 10-.455-.455zm1.521-2.858c0 1.967.872 3.313 2.162 3.313 1.281 0 2.153-1.346 2.153-3.313 0-1.968-.872-3.314-2.153-3.314-1.29 0-2.162 1.346-2.162 3.314zm.705 0c0-1.606.585-2.71 1.457-2.71.863 0 1.457 1.104 1.457 2.71 0 1.605-.594 2.71-1.457 2.71-.872 0-1.457-1.105-1.457-2.71zm6 3.248h.686l3.416-6.497h-.687l-3.415 6.497zm-1.55-4.993c0 .937.64 1.568 1.577 1.568.929 0 1.569-.631 1.569-1.568s-.64-1.569-1.569-1.569c-.937 0-1.577.632-1.577 1.569zm.612 0c0-.622.39-1.049.965-1.049.567 0 .956.427.956 1.049 0 .622-.389 1.049-.956 1.049-.575 0-.965-.427-.965-1.049zm3.434 3.49c0 .937.641 1.568 1.569 1.568.937 0 1.578-.631 1.578-1.568 0-.938-.641-1.569-1.578-1.569-.928 0-1.569.631-1.569 1.569zm.613 0c0-.622.39-1.049.956-1.049.575 0 .965.427.965 1.049 0 .622-.39 1.048-.965 1.048-.566 0-.956-.426-.956-1.048z" opacity=".7" fill="#fff"/><path d="M.373 144.315v4.873h.94v-4.107h1.879v4.107h.94v-4.873H.371zm4.381 3.307c0 .974.668 1.635 1.656 1.635.982 0 1.657-.661 1.657-1.635 0-.975-.675-1.636-1.657-1.636-.988 0-1.656.661-1.656 1.636zm.94 0c0-.495.292-.836.716-.836.418 0 .717.341.717.836 0 .494-.299.835-.717.835-.424 0-.717-.341-.717-.835zm3.862-1.567h-.905v3.133h.697l1.322-1.671v1.671h.905v-3.133h-.696l-1.323 1.671v-1.671zm3.547 1.567c0-.495.313-.836.759-.836.243 0 .445.091.57.237l.55-.55a1.589 1.589 0 00-1.176-.487c-.981 0-1.643.661-1.643 1.636 0 .974.662 1.635 1.643 1.635.48 0 .884-.174 1.177-.48l-.55-.55c-.126.146-.328.23-.571.23-.446 0-.759-.341-.759-.835zm3.306 1.566v-1.448l1.065 1.448h1.058l-1.26-1.678 1.134-1.455h-1.065l-.933 1.239v-1.239h-.904v3.133h.905zm4.111 0h.836v-1.761l.675 1.204h.445l.675-1.204v1.761h.836v-3.133h-.856l-.877 1.455-.878-1.455h-.856v3.133zm6.854-.578c-.153 0-.257-.104-.257-.23v-1.246c0-.682-.474-1.148-1.323-1.148-.508 0-.835.167-1.155.487l.445.446c.146-.147.404-.202.613-.202.383 0 .515.188.515.417v.174s-.14-.034-.362-.034c-.71 0-1.302.348-1.302 1.044 0 .522.341.939.912.939.348 0 .648-.153.863-.396.126.229.37.383.731.383.112 0 .244-.014.32-.042v-.592zm-1.6-.083c-.216 0-.314-.147-.314-.314 0-.229.174-.341.466-.341.175 0 .286.042.286.042v.411a.599.599 0 01-.439.202zm3.047-1.775h1.08v-.697h-1.985v3.133h.905v-2.436zm4.263 1.858c-.153 0-.257-.104-.257-.23v-1.246c0-.682-.473-1.148-1.323-1.148-.508 0-.835.167-1.155.487l.445.446c.147-.147.404-.202.613-.202.383 0 .515.188.515.417v.174s-.14-.034-.362-.034c-.71 0-1.302.348-1.302 1.044 0 .522.341.939.912.939.348 0 .648-.153.863-.396.126.229.37.383.731.383.112 0 .244-.014.32-.042v-.592zm-1.6-.083c-.216 0-.314-.147-.314-.314 0-.229.174-.341.467-.341.174 0 .285.042.285.042v.411a.6.6 0 01-.439.202zm3.076-2.541c-.481 0-.815.16-1.129.487l.495.494a.719.719 0 01.543-.25c.306 0 .369.222.369.32 0 .118-.105.257-.3.257h-.417v.62h.556c.16 0 .286.097.286.278 0 .174-.119.335-.46.335-.23 0-.459-.07-.612-.244l-.494.494c.32.32.605.48 1.183.48.891 0 1.288-.375 1.288-.904 0-.349-.167-.641-.515-.787a.864.864 0 00.376-.71c0-.487-.425-.87-1.17-.87zm2.8.069h-.906v3.133h.696l1.323-1.671v1.671h.905v-3.133h-.696l-1.323 1.671v-1.671zm3.616 0h-.905v3.133h.905v-1.218h1.113v1.218h.905v-3.133h-.905v1.219h-1.113v-1.219zm5.404 2.555c-.152 0-.257-.104-.257-.23v-1.246c0-.682-.473-1.148-1.322-1.148-.508 0-.836.167-1.156.487l.446.446c.146-.147.404-.202.612-.202.383 0 .515.188.515.417v.174s-.139-.034-.362-.034c-.71 0-1.301.348-1.301 1.044 0 .522.34.939.912.939.348 0 .647-.153.863-.396.125.229.369.383.73.383.112 0 .244-.014.32-.042v-.592zm-1.6-.083c-.216 0-.313-.147-.313-.314 0-.229.174-.341.466-.341.174 0 .285.042.285.042v.411a.6.6 0 01-.438.202zM.498 158.082h1.267c.605 0 .953-.355.953-.863 0-.383-.201-.675-.556-.793a.757.757 0 00.375-.683c0-.466-.327-.793-.884-.793H.498v3.132zm1.183-1.448c.313 0 .53.216.53.529 0 .314-.217.53-.53.53h-.675v-1.059h.675zm-.675-.355v-.939h.57c.28 0 .467.195.467.466 0 .279-.188.473-.466.473h-.571zm3.079 1.803v-1.615l1.406 1.615h.606l-1.448-1.649 1.33-1.483h-.606l-1.288 1.455v-1.455h-.508v3.132h.508zm2.485 0c.055.021.187.028.278.028.48 0 .807-.341.807-.94v-1.816H8.77v2.728h.501v-3.132H7.147v2.2c0 .396-.237.591-.578.591v.341zm4.232-3.132h-.509v3.132h.509v-1.378h.786c.077.856.675 1.427 1.539 1.427.918 0 1.545-.654 1.545-1.615 0-.96-.627-1.615-1.546-1.615-.849 0-1.447.557-1.538 1.392h-.786v-1.343zm1.301 1.566c0-.689.418-1.162 1.024-1.162.605 0 1.023.473 1.023 1.162s-.418 1.163-1.024 1.163c-.605 0-1.023-.474-1.023-1.163zm5.579 1.566v-3.132h-.508v1.385c-.16.091-.425.139-.606.139-.487 0-.682-.313-.682-.682v-.842h-.508v.863c0 .647.376 1.079 1.079 1.079.202 0 .487-.035.717-.118v1.308h.508zm3.345-.341c-.153 0-.264-.09-.264-.257v-1.587c0-.522-.37-.996-1.1-.996a1.39 1.39 0 00-1.002.397l.278.278c.146-.153.439-.257.682-.257.446 0 .634.313.634.578v.382a.997.997 0 00-.237-.02c-.842 0-1.51.368-1.51 1.016 0 .418.271.856.898.856.334 0 .654-.132.897-.355.084.209.265.334.523.334.07 0 .153-.007.201-.028v-.341zm-1.468-.028c-.418 0-.543-.292-.543-.487 0-.383.445-.612 1.03-.612.097 0 .16.007.209.013v.787a.983.983 0 01-.696.299zm4.388-2.763h-1.232c-.647 0-1.023.383-1.023.926 0 .445.258.779.71.884l-.78 1.322h.536l.71-1.287h.571v1.287h.508v-3.132zm-1.218 1.455c-.313 0-.529-.223-.529-.536 0-.313.216-.529.53-.529h.71v1.065h-.71zm5.905 1.677h.509v-3.132h-2.569v3.132h.508v-2.728h1.552v2.728zm4.251-1.434c0-1.072-.522-1.747-1.427-1.747-.89 0-1.496.655-1.496 1.601 0 .982.654 1.629 1.622 1.629.487 0 .884-.167 1.169-.466l-.306-.314c-.195.209-.48.328-.836.328-.647 0-1.065-.411-1.107-1.031h2.381zm-1.413-1.301c.53 0 .842.369.905.939h-1.873c.056-.577.44-.939.968-.939zm2.219-.397v4.873h.508v-1.922c.237.147.53.23.85.23.946 0 1.587-.654 1.587-1.615 0-.96-.613-1.615-1.51-1.615-.363 0-.683.112-.926.313v-.264h-.509zm2.416 1.566c0 .689-.446 1.163-1.1 1.163-.341 0-.613-.112-.807-.3v-1.712c.194-.195.466-.313.807-.313.654 0 1.1.473 1.1 1.162zm4.079.132c0-1.072-.522-1.747-1.427-1.747-.891 0-1.497.655-1.497 1.601 0 .982.655 1.629 1.622 1.629.487 0 .884-.167 1.17-.466l-.307-.314c-.194.209-.48.328-.835.328-.647 0-1.065-.411-1.107-1.031h2.381zm-1.413-1.301c.529 0 .842.369.905.939h-1.873c.056-.577.439-.939.968-.939zm4.196 2.735h.591l-1.246-1.594 1.198-1.538h-.592l-.933 1.204-.925-1.204h-.592l1.19 1.538-1.239 1.594h.585l.981-1.274.982 1.274zm.84-1.566c0 .961.654 1.615 1.622 1.615.96 0 1.614-.654 1.614-1.615 0-.96-.654-1.615-1.614-1.615-.968 0-1.622.655-1.622 1.615zm.529 0c0-.689.438-1.162 1.093-1.162.647 0 1.092.473 1.092 1.162s-.445 1.163-1.093 1.163c-.654 0-1.092-.474-1.092-1.163zm6.253 1.163h-.417v-2.729h-2.158v2.032c0 .404-.265.697-.613.697v1.239h.474v-.836h2.241v.836h.473v-1.239zm-2.067-.738v-1.587h1.149v2.325h-1.448a.992.992 0 00.299-.738zm2.848 1.141h1.135c.633 0 1.002-.376 1.002-.905s-.369-.905-1.002-.905h-.627v-1.322h-.508v3.132zm1.121-1.42c.3 0 .508.216.508.515 0 .307-.209.516-.508.516h-.613v-1.031h.613zm1.524 1.42h.509v-3.132h-.509v3.132zm-53.011 5.762H.498v3.133h.508v-1.378h1.643v1.378h.501v-3.133h-.501v1.344H1.006v-1.344zm5.501 2.792c-.153 0-.264-.091-.264-.258v-1.587c0-.522-.37-.995-1.1-.995-.397 0-.759.146-1.002.396l.278.279c.146-.153.439-.258.682-.258.446 0 .634.314.634.578v.383a.934.934 0 00-.237-.021c-.842 0-1.51.369-1.51 1.016 0 .418.271.857.897.857.335 0 .655-.133.898-.355.084.208.265.334.522.334.07 0 .154-.007.202-.028v-.341zm-1.468-.028c-.418 0-.543-.292-.543-.487 0-.383.445-.613 1.03-.613.097 0 .16.007.209.014v.787a.987.987 0 01-.696.299zm4.229-1.197c0-.69.445-1.163 1.107-1.163.34 0 .626.125.814.334l.313-.313c-.278-.299-.682-.473-1.155-.473-.96 0-1.608.654-1.608 1.615 0 .96.647 1.615 1.608 1.615.473 0 .877-.168 1.155-.467l-.313-.313c-.188.209-.473.327-.814.327-.662 0-1.107-.473-1.107-1.162zm4.114-1.163h.975v-.404h-2.465v.404h.982v2.729h.508v-2.729zm1.758-.404v4.873h.508v-1.921c.237.146.53.23.85.23.946 0 1.587-.655 1.587-1.615 0-.961-.613-1.615-1.51-1.615a1.43 1.43 0 00-.927.313v-.265h-.508zm2.416 1.567c0 .689-.446 1.162-1.1 1.162-.341 0-.613-.111-.808-.299v-1.713c.195-.195.467-.313.808-.313.654 0 1.1.473 1.1 1.163zm3.682 1.225c-.153 0-.264-.091-.264-.258v-1.587c0-.522-.37-.995-1.1-.995-.397 0-.759.146-1.003.396l.279.279c.146-.153.438-.258.682-.258.445 0 .633.314.633.578v.383a.933.933 0 00-.236-.021c-.842 0-1.51.369-1.51 1.016 0 .418.27.857.897.857.334 0 .654-.133.898-.355.084.208.265.334.522.334.07 0 .153-.007.202-.028v-.341zm-1.469-.028c-.417 0-.543-.292-.543-.487 0-.383.446-.613 1.03-.613.098 0 .16.007.21.014v.787a.987.987 0 01-.697.299zm2.8-2.764h-.509v3.133h.509v-1.378h1.642v1.378h.502v-3.133h-.502v1.344H22.57v-1.344zm3.677 0h-.508v3.133h.41l1.776-2.318v2.318h.508v-3.133h-.41l-1.776 2.318v-2.318zm3.204 3.133h2.478v.835h.473v-1.239h-.383v-2.729h-.508v2.729h-1.552v-2.729h-.508v3.133zm6.507-3.133h-.564l-1.093 2.527-1.1-2.527h-.563l1.42 3.133-.898 1.74h.564l2.234-4.873zm3.221 2.583l.265-.265-.919-.925.919-.926-.265-.265-1.183 1.191 1.183 1.19zm1.184 0l.264-.265-.925-.925.925-.926-.264-.265-1.19 1.191 1.19 1.19zm5.232.55h.523v-4.873h-.404l-1.887 3.014-1.886-3.014h-.397v4.873h.522v-3.794l1.65 2.673h.23l1.65-2.673v3.794zm3.889-.341c-.153 0-.265-.091-.265-.258v-1.587c0-.522-.369-.995-1.1-.995-.396 0-.758.146-1.002.396l.279.279c.146-.153.438-.258.682-.258.445 0 .633.314.633.578v.383a.933.933 0 00-.236-.021c-.843 0-1.511.369-1.511 1.016 0 .418.271.857.898.857.334 0 .654-.133.898-.355.083.208.264.334.522.334.07 0 .153-.007.202-.028v-.341zm-1.469-.028c-.418 0-.543-.292-.543-.487 0-.383.446-.613 1.03-.613.098 0 .16.007.21.014v.787a.987.987 0 01-.697.299zm2.799-2.36h1.26v-.404h-1.768v3.133h.508v-2.729zm4.142 2.388c-.153 0-.264-.091-.264-.258v-1.587c0-.522-.37-.995-1.1-.995-.397 0-.76.146-1.003.396l.279.279c.146-.153.438-.258.682-.258.445 0 .633.314.633.578v.383a.933.933 0 00-.236-.021c-.843 0-1.51.369-1.51 1.016 0 .418.27.857.897.857.334 0 .654-.133.898-.355.084.208.265.334.522.334.07 0 .153-.007.202-.028v-.341zm-1.469-.028c-.417 0-.543-.292-.543-.487 0-.383.446-.613 1.03-.613.098 0 .16.007.21.014v.787a.987.987 0 01-.697.299zm3.106-2.812c-.439 0-.766.167-1.024.431l.286.293a.976.976 0 01.696-.307c.376 0 .55.251.55.488a.474.474 0 01-.494.487h-.362v.355h.48c.32 0 .529.202.529.515 0 .32-.237.55-.661.55-.314 0-.585-.125-.787-.334l-.292.285c.278.279.605.467 1.12.467.724 0 1.128-.355 1.128-.885 0-.375-.18-.682-.557-.807.258-.139.397-.397.397-.71 0-.487-.376-.828-1.01-.828zm2.535.048h-.508v3.133h.41l1.775-2.318v2.318h.509v-3.133h-.411l-1.775 2.318v-2.318zm3.711 0h-.508v3.133h.508v-1.378h1.643v1.378h.501v-3.133h-.5v1.344h-1.644v-1.344zm3.17 3.133h1.135c.633 0 1.002-.376 1.002-.905s-.37-.905-1.002-.905h-.627v-1.323h-.508v3.133zm1.12-1.42c.3 0 .509.216.509.515 0 .306-.21.515-.508.515h-.613v-1.03h.613zm1.525 1.42h.508v-3.133h-.508v3.133zm4-1.74l-1.19-1.191-.265.265.926.926-.926.925.265.265 1.19-1.19zm-1.176 0l-1.19-1.191-.265.265.926.926-.926.925.264.265 1.19-1.19z" fill="#020E1A"/><g filter="url(#filter3_d)"><rect x="94.735" y="142.614" width="9.281" height="27.07" rx="4.641" fill="#59BFC4"/></g><path d="M110.864 157.881v.975h4.241v-1.021h-2.496l1.865-1.866c.399-.399.631-.919.631-1.568 0-1.272-.863-2.135-2.134-2.135-1.272 0-2.135.863-2.135 2.135h1.253c0-.622.362-1.058.882-1.058.519 0 .881.436.881 1.058 0 .297-.074.566-.26.752l-2.728 2.728zm7.015 0v.975h4.242v-1.021h-2.497l1.865-1.866c.4-.399.632-.919.632-1.568 0-1.272-.864-2.135-2.135-2.135-1.272 0-2.135.863-2.135 2.135h1.253c0-.622.362-1.058.882-1.058s.882.436.882 1.058c0 .297-.075.566-.26.752l-2.729 2.728zm7.197-5.615c-1.198 1.188-2.302 2.914-2.302 4.492 0 1.392.863 2.191 2.125 2.191 1.29 0 2.144-.845 2.144-2.079 0-1.253-.872-2.052-2.116-2.052-.13 0-.223.01-.315.028.362-.668.983-1.457 1.503-1.986l-1.039-.594zm-1.049 4.594c0-.603.362-1.021.882-1.021.519 0 .881.418.881 1.021 0 .604-.362 1.021-.881 1.021-.52 0-.882-.417-.882-1.021zm3.65 1.021v.975h4.241v-1.021h-2.496l1.865-1.866c.399-.399.631-.919.631-1.568 0-1.272-.863-2.135-2.134-2.135-1.272 0-2.135.863-2.135 2.135h1.253c0-.622.362-1.058.882-1.058.519 0 .881.436.881 1.058 0 .297-.074.566-.259.752l-2.729 2.728z" fill="#020E1A"/><path d="M140.445 155.607c0 1.968.873 3.314 2.163 3.314 1.281 0 2.153-1.346 2.153-3.314 0-1.967-.872-3.313-2.153-3.313-1.29 0-2.163 1.346-2.163 3.313zm.706 0c0-1.605.584-2.71 1.457-2.71.863 0 1.457 1.105 1.457 2.71 0 1.606-.594 2.71-1.457 2.71-.873 0-1.457-1.104-1.457-2.71zm4.409 2.859c0 .26.195.455.454.455a.455.455 0 10-.454-.455zm1.52-2.859c0 1.968.872 3.314 2.162 3.314 1.281 0 2.154-1.346 2.154-3.314 0-1.967-.873-3.313-2.154-3.313-1.29 0-2.162 1.346-2.162 3.313zm.705 0c0-1.605.585-2.71 1.457-2.71.864 0 1.458 1.105 1.458 2.71 0 1.606-.594 2.71-1.458 2.71-.872 0-1.457-1.104-1.457-2.71zm6.798-3.313c-1.689 2.478-2.302 3.323-2.302 4.538 0 1.291.826 2.089 2.042 2.089 1.216 0 2.042-.826 2.042-2.033 0-1.216-.835-2.023-2.032-2.023-.288 0-.539.065-.743.185a29.472 29.472 0 011.569-2.422l-.576-.334zm-1.596 4.594c0-.854.538-1.438 1.336-1.438s1.337.584 1.337 1.438c0 .845-.539 1.429-1.337 1.429-.798 0-1.336-.584-1.336-1.429zm5.72 1.968h.686l3.416-6.497h-.687l-3.415 6.497zm-1.55-4.994c0 .938.64 1.569 1.577 1.569.928 0 1.569-.631 1.569-1.569 0-.937-.641-1.568-1.569-1.568-.937 0-1.577.631-1.577 1.568zm.612 0c0-.621.39-1.048.965-1.048.567 0 .956.427.956 1.048 0 .622-.389 1.049-.956 1.049-.575 0-.965-.427-.965-1.049zm3.434 3.49c0 .938.641 1.569 1.569 1.569.937 0 1.578-.631 1.578-1.569 0-.937-.641-1.568-1.578-1.568-.928 0-1.569.631-1.569 1.568zm.613 0c0-.622.39-1.049.956-1.049.575 0 .965.427.965 1.049 0 .622-.39 1.049-.965 1.049-.566 0-.956-.427-.956-1.049z" opacity=".7" fill="#020E1A"/><path d="M141.375 183.25L184 147l28.5 10 23-40 31 5L300 60" stroke="#C5CDCF" stroke-width="4"/><defs><filter id="filter0_d" x="92.735" y="21.505" width="235.456" height="37.07" filterUnits="userSpaceOnUse" color-interpolation-filters="sRGB"><feFlood flood-opacity="0" result="BackgroundImageFix"/><feColorMatrix in="SourceAlpha" values="0 0 0 0 0 0 0 0 0 0 0 0 0 0 0 0 0 0 127 0"/><feOffset dx="3" dy="3"/><feGaussianBlur stdDeviation="2.5"/><feColorMatrix values="0 0 0 0 0.4125 0 0 0 0 0.172688 0 0 0 0 0.163281 0 0 0 0.5 0"/><feBlend in2="BackgroundImageFix" result="effect1_dropShadow"/><feBlend in="SourceGraphic" in2="effect1_dropShadow" result="shape"/></filter><filter id="filter1_d" x="92.735" y="60.95" width="144.964" height="37.07" filterUnits="userSpaceOnUse" color-interpolation-filters="sRGB"><feFlood flood-opacity="0" result="BackgroundImageFix"/><feColorMatrix in="SourceAlpha" values="0 0 0 0 0 0 0 0 0 0 0 0 0 0 0 0 0 0 127 0"/><feOffset dx="3" dy="3"/><feGaussianBlur stdDeviation="2.5"/><feColorMatrix values="0 0 0 0 0.441667 0 0 0 0 0.182187 0 0 0 0 0.438297 0 0 0 0.4 0"/><feBlend in2="BackgroundImageFix" result="effect1_dropShadow"/><feBlend in="SourceGraphic" in2="effect1_dropShadow" result="shape"/></filter><filter id="filter2_d" x="92.735" y="100.395" width="82.703" height="37.07" filterUnits="userSpaceOnUse" color-interpolation-filters="sRGB"><feFlood flood-opacity="0" result="BackgroundImageFix"/><feColorMatrix in="SourceAlpha" values="0 0 0 0 0 0 0 0 0 0 0 0 0 0 0 0 0 0 127 0"/><feOffset dx="3" dy="3"/><feGaussianBlur stdDeviation="2.5"/><feColorMatrix values="0 0 0 0 0.7125 0 0 0 0 0.175156 0 0 0 0 0.564386 0 0 0 0.4 0"/><feBlend in2="BackgroundImageFix" result="effect1_dropShadow"/><feBlend in="SourceGraphic" in2="effect1_dropShadow" result="shape"/></filter><filter id="filter3_d" x="92.735" y="140.614" width="19.281" height="37.07" filterUnits="userSpaceOnUse" color-interpolation-filters="sRGB"><feFlood flood-opacity="0" result="BackgroundImageFix"/><feColorMatrix in="SourceAlpha" values="0 0 0 0 0 0 0 0 0 0 0 0 0 0 0 0 0 0 127 0"/><feOffset dx="3" dy="3"/><feGaussianBlur stdDeviation="2.5"/><feColorMatrix values="0 0 0 0 0.421076 0 0 0 0 0.738602 0 0 0 0 0.754167 0 0 0 0.7 0"/><feBlend in2="BackgroundImageFix" result="effect1_dropShadow"/><feBlend in="SourceGraphic" in2="effect1_dropShadow" result="shape"/></filter></defs></svg>