<svg width="187" height="144" viewBox="0 0 187 144" fill="none" xmlns="http://www.w3.org/2000/svg"><path fill-rule="evenodd" clip-rule="evenodd" d="M112.804 23.924H27.67c-6.628 0-12 5.373-12 12v2.429h4v-2.429a8 8 0 018-8h85.134v-4zM15.67 126.667V75.638h4v51.029h8.861V75.638h4v51.029h39.596a9.339 9.339 0 017.486 3.755 5.338 5.338 0 004.28 2.146h14.32a4.686 4.686 0 003.885-2.067 8.681 8.681 0 017.203-3.834h39.669V109.61h4v17.057h8.863V109.61h4v17.057h7.356v3.257c0 7.732-6.268 14-14 14h-138c-7.732 0-14-6.268-14-14v-3.257h8.48zm150.163-51.029v-5.8h-4v5.8h4zm-12.863 0v-5.8h-4v5.8h4zM36.65 38.353h-5.87a11.985 11.985 0 019.75-5.003h72.273v4H40.531a7.964 7.964 0 00-3.881 1.003zM21.189 139.924c-5.273 0-9.593-4.081-9.973-9.257h60.911c1.686 0 3.272.795 4.28 2.146a9.339 9.339 0 007.485 3.755h14.32c2.89 0 5.59-1.437 7.204-3.833a4.682 4.682 0 013.885-2.068h59.861c-.38 5.176-4.7 9.257-9.973 9.257h-138z" fill="#C5CDCF"/><g filter="url(#filter0_d)" fill="#DC40B1"><path d="M171.916 25.584l2.25-7.096a1.88 1.88 0 00-.161-1.507 1.88 1.88 0 00-1.222-.896l-7.271-1.591-1.582-7.269a1.878 1.878 0 00-.889-1.224 1.87 1.87 0 00-1.504-.169l-7.091 2.25-5.02-5.497a1.93 1.93 0 00-2.77 0l-5.012 5.508-7.099-2.26a1.87 1.87 0 00-2.4 1.385l-1.59 7.276-7.256 1.591a1.876 1.876 0 00-1.385 2.403l2.25 7.096-5.503 5.017a1.875 1.875 0 000 2.771l5.503 5.017-2.25 7.095a1.876 1.876 0 001.385 2.403l7.271 1.591 1.589 7.276a1.877 1.877 0 002.402 1.386l7.09-2.26 5.013 5.507a1.87 1.87 0 002.77 0l5.012-5.507 7.091 2.26a1.87 1.87 0 002.4-1.386l1.59-7.276 7.271-1.59a1.872 1.872 0 001.222-.895 1.871 1.871 0 00.162-1.509l-2.248-7.096 5.503-5.016a1.877 1.877 0 000-2.771l-5.521-5.017zm-3.412 10.84a1.876 1.876 0 00-.523 1.957l1.991 6.282-6.435 1.408a1.877 1.877 0 00-1.429 1.43l-1.4 6.433-6.277-2a1.884 1.884 0 00-1.955.523l-4.435 4.881-4.435-4.877a1.872 1.872 0 00-1.947-.523l-6.285 1.995-1.407-6.44a1.879 1.879 0 00-1.429-1.43l-6.427-1.4 1.998-6.282a1.874 1.874 0 00-.523-1.956l-4.877-4.439 4.873-4.438a1.874 1.874 0 00.523-1.957l-1.994-6.281 6.434-1.409a1.877 1.877 0 001.429-1.43l1.4-6.432 6.277 2a1.873 1.873 0 001.955-.524l4.435-4.88 4.435 4.877a1.87 1.87 0 001.955.523l6.277-1.996 1.407 6.44a1.878 1.878 0 001.429 1.43l6.435 1.408-1.998 6.283a1.877 1.877 0 00.523 1.956l4.869 4.43-4.869 4.439z"/><path d="M137.508 39.929l18.468-18.47 2.613 2.612-18.47 18.47-2.611-2.612zm6.487-14.415a5.676 5.676 0 10-11.353.001 5.676 5.676 0 0011.353-.001zm-7.568 0a1.892 1.892 0 113.784 0 1.892 1.892 0 01-3.784 0zm21.351 5.676a5.676 5.676 0 10.001 11.35 5.676 5.676 0 00-.001-11.35zm0 7.567a1.892 1.892 0 11.001-3.784 1.892 1.892 0 01-.001 3.784z"/></g><path fill-rule="evenodd" clip-rule="evenodd" d="M102.385 54.641a4 4 0 00-5.297-1.985l-7.045 3.204a4 4 0 00-1.985 5.297l1.019 2.24L76.5 74.317l.014.016a5.972 5.972 0 00-3.328.48l-14.472 6.582a6 6 0 00-2.977 7.946l5.367 11.8a6 6 0 007.832 3.028c.025.065.053.13.082.194l5.287 11.625a4 4 0 005.297 1.985l5.9-2.683a4 4 0 001.986-5.297L82.2 98.367a4.17 4.17 0 00-.091-.19l1.413-.642a5.973 5.973 0 002.782-2.586l.081.715 16.518-1.868.857 1.885a4 4 0 005.297 1.985l7.045-3.204a4 4 0 001.985-5.297L102.385 54.64zm-1.224 35.327L90.804 67.195l-10.572 9.178c.356.418.661.891.9 1.416l5.367 11.8a5.99 5.99 0 01.519 1.978l14.143-1.6zM91.699 59.5l7.045-3.204 15.702 34.524-7.045 3.204L91.699 59.5zM60.37 85.035a2 2 0 00-.993 2.648l5.367 11.8a2 2 0 002.649.993l14.471-6.582a2 2 0 00.993-2.648l-5.367-11.8a2 2 0 00-2.649-.993L60.37 85.035zm17.575 29.296l5.9-2.683-5.287-11.625-5.9 2.683 5.287 11.625z" fill="#7C267B"/><rect x="2" y="45" width="49" height="23" rx="5" stroke="#C5CDCF" stroke-width="4"/><path d="M11 53h30m-30 7h30" stroke="#DC40B1" stroke-width="3" stroke-linecap="round"/><rect x="131.594" y="79.868" width="49" height="23" rx="5" stroke="#C5CDCF" stroke-width="4"/><path d="M141 88h13m7.755 7.186h10" stroke="#7C267B" stroke-width="3" stroke-linecap="round"/><path d="M141 95h17.318M158 88h14" stroke="#C5CDCF" stroke-width="3" stroke-linecap="round"/><defs><filter id="filter0_d" x="116.048" y="0" width="70" height="70" filterUnits="userSpaceOnUse" color-interpolation-filters="sRGB"><feFlood flood-opacity="0" result="BackgroundImageFix"/><feColorMatrix in="SourceAlpha" values="0 0 0 0 0 0 0 0 0 0 0 0 0 0 0 0 0 0 127 0"/><feOffset dx="3" dy="3"/><feGaussianBlur stdDeviation="2.5"/><feColorMatrix values="0 0 0 0 0.7125 0 0 0 0 0.175156 0 0 0 0 0.564386 0 0 0 0.4 0"/><feBlend in2="BackgroundImageFix" result="effect1_dropShadow"/><feBlend in="SourceGraphic" in2="effect1_dropShadow" result="shape"/></filter></defs></svg>