<svg width="326" height="156" viewBox="0 0 326 156" fill="none" xmlns="http://www.w3.org/2000/svg"><path d="M164.293 59.062a38.5 38.5 0 11-75.522-14.359l4.744 1.186a33.61 33.61 0 1065.93 12.536l4.848.637z" fill="#DC40B1"/><g filter="url(#filter0_d)"><path d="M146.844 34.371a27.508 27.508 0 016.278 20.597 27.5 27.5 0 01-49.701 13.094l11.179-8.007a13.75 13.75 0 1021.711-16.846l10.533-8.838z" fill="#DC40B1"/></g><path d="M104.434 69.177a27.5 27.5 0 1142.132-35.354l-10.533 8.839a13.75 13.75 0 00-21.066 17.676l-10.533 8.839z" fill="#7C267B"/><g filter="url(#filter1_d)"><path d="M65.96 25.515a38.501 38.501 0 01-45.965 60.746A38.502 38.502 0 018.142 76.178l3.856-3.007a33.61 33.61 0 1050.475-44.229l3.487-3.427z" fill="#DC40B1"/><path d="M29.126 26.072A27.502 27.502 0 0165.18 46.995a27.5 27.5 0 01-26.057 32.538l-.487-13.742a13.75 13.75 0 10-4.998-26.73l-4.512-12.989z" fill="#DC40B1"/><path d="M17.128 69.78a27.5 27.5 0 0111.99-43.705l4.516 12.988a13.75 13.75 0 00-5.996 21.852l-10.51 8.865z" fill="#C5CDCF"/><path d="M16.479 69.23a27.5 27.5 0 0022.027 9.752l-.503-13.741a13.75 13.75 0 01-11.014-4.876L16.48 69.23z" fill="#7C267B"/></g><path d="M203.469 48.289a2 2 0 012-2h21v36a2 2 0 01-2 2h-19a2 2 0 01-2-2v-34z" fill="#F6F4F2" stroke="#C5CDCF" stroke-width="4"/><g filter="url(#filter2_d)"><path d="M229 26a4 4 0 014-4h16a4 4 0 014 4v54a1 1 0 01-1 1h-22a1 1 0 01-1-1V26z" fill="#7C267B"/></g><path d="M255 54h20v28a2 2 0 01-2 2h-16a2 2 0 01-2-2V54z" fill="#F6F4F2" stroke="#C5CDCF" stroke-width="4"/><g filter="url(#filter3_d)"><path d="M277 24a4 4 0 014-4h16a4 4 0 014 4v57h-24V24z" fill="#DC40B1"/></g><path d="M176 84h146" stroke="#C5CDCF" stroke-width="7" stroke-linecap="round"/><path d="M84 153h53.125c.635 0 1.232-.302 1.609-.812l19.342-26.211a2 2 0 013.028-.222l17.033 17.147a2 2 0 002.838 0l33.182-33.403a2 2 0 012.904.069l37.803 41.898a2 2 0 002.871.102L303 108" stroke="#C5CDCF" stroke-width="6" stroke-linecap="round"/><path fill="#C4C4C4" d="M66.846 151h5v5h-5zm-13.923 0h5v5h-5zM39 151h5v5h-5z"/><g filter="url(#filter4_d)"><circle cx="160.839" cy="126.38" r="8" fill="#7C267B"/></g><circle cx="214.891" cy="110" r="5.5" fill="#F6F4F2" stroke="#C5CDCF" stroke-width="5"/><g filter="url(#filter5_d)"><circle cx="303.342" cy="110" r="8" fill="#DC40B1"/></g><defs><filter id="filter0_d" x="101.421" y="32.371" width="59.856" height="55.177" filterUnits="userSpaceOnUse" color-interpolation-filters="sRGB"><feFlood flood-opacity="0" result="BackgroundImageFix"/><feColorMatrix in="SourceAlpha" values="0 0 0 0 0 0 0 0 0 0 0 0 0 0 0 0 0 0 127 0"/><feOffset dx="3" dy="3"/><feGaussianBlur stdDeviation="2.5"/><feColorMatrix values="0 0 0 0 0.7125 0 0 0 0 0.175156 0 0 0 0 0.564386 0 0 0 0.4 0"/><feBlend in2="BackgroundImageFix" result="effect1_dropShadow"/><feBlend in="SourceGraphic" in2="effect1_dropShadow" result="shape"/></filter><filter id="filter1_d" x="6.142" y="22.55" width="78.858" height="76.45" filterUnits="userSpaceOnUse" color-interpolation-filters="sRGB"><feFlood flood-opacity="0" result="BackgroundImageFix"/><feColorMatrix in="SourceAlpha" values="0 0 0 0 0 0 0 0 0 0 0 0 0 0 0 0 0 0 127 0"/><feOffset dx="3" dy="3"/><feGaussianBlur stdDeviation="2.5"/><feColorMatrix values="0 0 0 0 0.7125 0 0 0 0 0.175156 0 0 0 0 0.564386 0 0 0 0.4 0"/><feBlend in2="BackgroundImageFix" result="effect1_dropShadow"/><feBlend in="SourceGraphic" in2="effect1_dropShadow" result="shape"/></filter><filter id="filter2_d" x="227" y="20" width="34" height="69" filterUnits="userSpaceOnUse" color-interpolation-filters="sRGB"><feFlood flood-opacity="0" result="BackgroundImageFix"/><feColorMatrix in="SourceAlpha" values="0 0 0 0 0 0 0 0 0 0 0 0 0 0 0 0 0 0 127 0"/><feOffset dx="3" dy="3"/><feGaussianBlur stdDeviation="2.5"/><feColorMatrix values="0 0 0 0 0.441667 0 0 0 0 0.182187 0 0 0 0 0.438297 0 0 0 0.4 0"/><feBlend in2="BackgroundImageFix" result="effect1_dropShadow"/><feBlend in="SourceGraphic" in2="effect1_dropShadow" result="shape"/></filter><filter id="filter3_d" x="275" y="18" width="34" height="71" filterUnits="userSpaceOnUse" color-interpolation-filters="sRGB"><feFlood flood-opacity="0" result="BackgroundImageFix"/><feColorMatrix in="SourceAlpha" values="0 0 0 0 0 0 0 0 0 0 0 0 0 0 0 0 0 0 127 0"/><feOffset dx="3" dy="3"/><feGaussianBlur stdDeviation="2.5"/><feColorMatrix values="0 0 0 0 0.7125 0 0 0 0 0.175156 0 0 0 0 0.564386 0 0 0 0.4 0"/><feBlend in2="BackgroundImageFix" result="effect1_dropShadow"/><feBlend in="SourceGraphic" in2="effect1_dropShadow" result="shape"/></filter><filter id="filter4_d" x="150.839" y="116.38" width="26" height="26" filterUnits="userSpaceOnUse" color-interpolation-filters="sRGB"><feFlood flood-opacity="0" result="BackgroundImageFix"/><feColorMatrix in="SourceAlpha" values="0 0 0 0 0 0 0 0 0 0 0 0 0 0 0 0 0 0 127 0"/><feOffset dx="3" dy="3"/><feGaussianBlur stdDeviation="2.5"/><feColorMatrix values="0 0 0 0 0.441667 0 0 0 0 0.182187 0 0 0 0 0.438297 0 0 0 0.4 0"/><feBlend in2="BackgroundImageFix" result="effect1_dropShadow"/><feBlend in="SourceGraphic" in2="effect1_dropShadow" result="shape"/></filter><filter id="filter5_d" x="293.342" y="100" width="26" height="26" filterUnits="userSpaceOnUse" color-interpolation-filters="sRGB"><feFlood flood-opacity="0" result="BackgroundImageFix"/><feColorMatrix in="SourceAlpha" values="0 0 0 0 0 0 0 0 0 0 0 0 0 0 0 0 0 0 127 0"/><feOffset dx="3" dy="3"/><feGaussianBlur stdDeviation="2.5"/><feColorMatrix values="0 0 0 0 0.7125 0 0 0 0 0.175156 0 0 0 0 0.564386 0 0 0 0.4 0"/><feBlend in2="BackgroundImageFix" result="effect1_dropShadow"/><feBlend in="SourceGraphic" in2="effect1_dropShadow" result="shape"/></filter></defs></svg>