<svg width="265" height="164" viewBox="0 0 265 164" fill="none" xmlns="http://www.w3.org/2000/svg"><path d="M2 10a8 8 0 018-8h245a8 8 0 018 8v155.593a8 8 0 01-8 8H10a8 8 0 01-8-8V10z" stroke="#C5CDCF" stroke-width="4"/><path d="M0 19.304a4 4 0 014-4h257a4 4 0 014 4H0z" fill="#C5CDCF"/><path d="M20.526 103.173a3.713 3.713 0 013.715-3.711h45.717a3.713 3.713 0 013.715 3.711v42.829a3.713 3.713 0 01-3.715 3.711H24.24a3.713 3.713 0 01-3.714-3.711v-42.829z" stroke="#C5CDCF" stroke-width="4"/><path d="M180.426 103.1h62.826m-145.79 0h62.827m20.137 16.11h62.826m-145.79 0h62.827m20.137 16.109h62.826m-145.79 0h62.827" stroke="#C5CDCF" stroke-width="4" stroke-linecap="round"/><path d="M20.526 37.9c0-2.163 1.607-3.681 3.31-3.681h144.03c1.703 0 3.31 1.518 3.31 3.68v42.606c0 2.162-1.607 3.68-3.31 3.68H23.836c-1.703 0-3.31-1.518-3.31-3.68V37.899z" fill="#C5CDCF" stroke="#C5CDCF" stroke-width="4"/><path d="M182.426 37.9c0-1.375.231-2.527.531-3.26.078-.19.15-.327.207-.421h62.182c.058.094.13.23.208.42.3.734.531 1.886.531 3.26v42.606c0 1.374-.231 2.526-.531 3.26a2.95 2.95 0 01-.208.42h-62.182a3.08 3.08 0 01-.207-.42c-.3-.734-.531-1.886-.531-3.26V37.899z" stroke="#C5CDCF" stroke-width="4"/></svg>