<svg width="280" height="226" viewBox="0 0 280 226" fill="none" xmlns="http://www.w3.org/2000/svg"><path d="M2.715 50.485a8 8 0 018-8h259a8 8 0 018 8v164.869a8 8 0 01-8 8h-259a8 8 0 01-8-8V50.485z" stroke="#C5CDCF" stroke-width="4"/><g filter="url(#filter0_dd)"><path fill-rule="evenodd" clip-rule="evenodd" d="M141.357 176.546c33.187 0 60.091-26.903 60.091-60.091s-26.904-60.091-60.091-60.091c-33.188 0-60.092 26.903-60.092 60.091s26.904 60.091 60.092 60.091zm0-34.612c14.071 0 25.478-11.408 25.478-25.479 0-14.072-11.407-25.48-25.478-25.48-14.072 0-25.479 11.408-25.479 25.48 0 14.071 11.407 25.479 25.479 25.479z" fill="#7C267B"/></g><path fill-rule="evenodd" clip-rule="evenodd" d="M108.577 66.091a60.089 60.089 0 0132.779-9.728v34.613c-10.399 0-19.342 6.23-23.303 15.161L86.41 92.126a60.09 60.09 0 0122.167-26.035z" fill="#D93436"/><path d="M131.819 112.096l-.894-.512c.548-.559.98-1.128 1.294-1.709-.08.016-.171.024-.272.024-.537 0-.977-.159-1.317-.479-.336-.324-.504-.753-.504-1.285 0-.533.168-.964.504-1.294.34-.33.788-.495 1.341-.495.554 0 .996.167 1.326.503.335.33.503.79.503 1.381 0 .639-.189 1.305-.567 1.997a8.13 8.13 0 01-1.414 1.869zm.687-3.315c.144-.165.216-.378.216-.638 0-.261-.072-.472-.216-.631a.674.674 0 00-.543-.248.7.7 0 00-.551.248c-.138.159-.207.37-.207.631 0 .26.069.473.207.638.144.16.328.24.551.24.224 0 .405-.08.543-.24zm1.536-1.477v-.878h3.682v.279l-1.821 5.311h-1.102l1.565-4.712h-2.324zm8.102-.958l.894.511c-.548.559-.979 1.128-1.293 1.709.08-.016.17-.024.271-.024.538 0 .975.162 1.31.487.341.319.511.745.511 1.278 0 .532-.17.963-.511 1.293-.335.331-.78.496-1.334.496-.553 0-.998-.165-1.333-.496-.33-.335-.496-.798-.496-1.389 0-.639.189-1.302.567-1.989a8.09 8.09 0 011.414-1.876zm-.695 3.322c-.138.16-.207.37-.207.631s.069.474.207.639a.711.711 0 00.551.239c.224 0 .405-.08.543-.239.144-.165.216-.378.216-.639s-.072-.471-.216-.631a.674.674 0 00-.543-.248.7.7 0 00-.551.248zm6.38.591c0 .548-.17.993-.511 1.333-.335.336-.777.504-1.326.504-.548 0-.993-.165-1.333-.496-.336-.33-.503-.764-.503-1.301h1.038c0 .255.074.466.223.631a.754.754 0 00.575.239.666.666 0 00.543-.255c.144-.171.216-.389.216-.655 0-.293-.085-.533-.256-.719a.846.846 0 00-.654-.279c-.283 0-.509.093-.679.279l-.759-.232.304-2.882h2.683v.878h-1.765l-.112 1.086c.112-.032.242-.048.391-.048.575 0 1.039.179 1.39.535.357.352.535.812.535 1.382zm.683-2.34c0-.463.157-.841.471-1.134.32-.293.735-.439 1.246-.439s.924.146 1.238.439c.319.293.479.671.479 1.134 0 .468-.176.83-.527 1.086.458.298.687.737.687 1.318 0 .521-.173.947-.52 1.277-.346.331-.798.496-1.357.496-.559 0-1.012-.165-1.358-.496-.346-.33-.519-.756-.519-1.277 0-.586.224-1.025.671-1.318-.341-.256-.511-.618-.511-1.086zm1.142 1.789a.865.865 0 00-.224.615c0 .25.075.455.224.615a.754.754 0 00.575.239c.234 0 .426-.08.575-.239a.866.866 0 00.223-.615.865.865 0 00-.223-.615.75.75 0 00-.575-.24.75.75 0 00-.575.24zm.112-2.26a.653.653 0 00-.176.471c0 .192.059.349.176.471a.625.625 0 00.463.184.6.6 0 00.455-.184.634.634 0 00.184-.471.634.634 0 00-.184-.471.6.6 0 00-.455-.184.625.625 0 00-.463.184z" fill="#020E1A"/><path d="M131.148 120.928v-.639h-1.65v-.292l1.624-2.796h.692v2.503h.298v.585h-.271v.639h-.693zm-.782-1.224h.809v-1.47l-.809 1.47zm2.168-1.81v-.533l1.278-.186v3.753h-.692v-3.125l-.586.091zm2.032 2.97a.384.384 0 01-.117-.282c0-.11.039-.204.117-.282a.384.384 0 01.282-.117c.11 0 .204.039.282.117a.385.385 0 01.118.282c0 .11-.04.204-.118.282a.384.384 0 01-.282.117.384.384 0 01-.282-.117zm2.164-3.716l.597.341a5.141 5.141 0 00-.863 1.139.99.99 0 01.181-.016c.359 0 .65.109.873.325.228.213.341.497.341.852s-.113.642-.341.862c-.223.22-.52.33-.889.33s-.665-.11-.889-.33c-.22-.223-.33-.532-.33-.926 0-.426.126-.868.378-1.326.252-.461.566-.878.942-1.251zm-.463 2.215a.62.62 0 00-.138.421.64.64 0 00.138.425c.096.107.219.16.368.16a.456.456 0 00.362-.16.623.623 0 00.143-.425.604.604 0 00-.143-.421.45.45 0 00-.362-.165.467.467 0 00-.368.165zm3.287-2.215l.596.341a5.141 5.141 0 00-.863 1.139.99.99 0 01.181-.016c.359 0 .65.109.874.325.227.213.34.497.34.852s-.113.642-.34.862c-.224.22-.52.33-.89.33-.369 0-.665-.11-.889-.33-.22-.223-.33-.532-.33-.926 0-.426.126-.868.378-1.326.252-.461.566-.878.943-1.251zm-.464 2.215a.62.62 0 00-.138.421.64.64 0 00.138.425c.096.107.219.16.368.16s.27-.053.362-.16a.623.623 0 00.144-.425.604.604 0 00-.144-.421.45.45 0 00-.362-.165.467.467 0 00-.368.165zm2.866 1.565l2.023-3.727h.692l-2.023 3.727h-.692zm-.649-2.081c-.185-.181-.277-.419-.277-.714 0-.294.092-.532.277-.713.188-.181.433-.272.734-.272.302 0 .545.091.73.272.188.181.282.419.282.713 0 .295-.094.533-.282.714-.185.181-.428.271-.73.271-.301 0-.546-.09-.734-.271zm.447-1.06a.518.518 0 00-.112.346c0 .142.037.257.112.346.074.089.17.133.287.133a.358.358 0 00.288-.133.523.523 0 00.112-.346.523.523 0 00-.112-.346.358.358 0 00-.288-.133.356.356 0 00-.287.133zm2.098 2.923c-.185-.181-.277-.419-.277-.713 0-.295.092-.533.277-.714.188-.181.433-.271.734-.271.302 0 .545.09.73.271.188.181.282.419.282.714 0 .294-.094.532-.282.713-.185.181-.428.271-.73.271-.301 0-.546-.09-.734-.271zm.447-1.06a.52.52 0 00-.112.347.52.52 0 00.112.346c.074.088.17.133.287.133a.362.362 0 00.288-.133.525.525 0 00.112-.346.526.526 0 00-.112-.347.362.362 0 00-.288-.133.359.359 0 00-.287.133zm-14.183 4.206h-.389v2.396h.314l1.358-1.773v1.773h.388v-2.396h-.314l-1.357 1.773v-1.773zm3.073-.037c-.336 0-.586.128-.783.33l.218.224a.746.746 0 01.533-.234c.287 0 .42.191.42.372a.362.362 0 01-.378.373h-.277v.271h.368c.245 0 .404.155.404.394 0 .245-.181.421-.505.421a.822.822 0 01-.602-.256l-.224.219c.213.213.464.356.858.356.553 0 .862-.271.862-.676 0-.287-.138-.521-.426-.617a.59.59 0 00.304-.543c0-.373-.288-.634-.772-.634zm2.655 2.087v.346h2.23v-.335h-1.703l1.363-1.363a1.26 1.26 0 00.34-.889c0-.703-.458-1.177-1.134-1.177-.676 0-1.134.474-1.134 1.177h.4c0-.49.298-.825.734-.825.432 0 .735.335.735.825 0 .261-.075.484-.213.628l-1.618 1.613zm3.65-1.512h.245c.452 0 .766.32.766.777 0 .458-.314.772-.766.772-.458 0-.767-.314-.767-.772h-.405c0 .666.474 1.118 1.172 1.118.692 0 1.166-.452 1.166-1.118 0-.463-.24-.798-.618-.953.277-.138.458-.41.458-.772 0-.569-.41-.958-1.006-.958-.602 0-1.007.389-1.007.958h.4c0-.362.25-.612.607-.612.356 0 .606.25.606.612s-.25.618-.606.618h-.245v.33zm3.449 1.858h.388v-.724h.32v-.335h-.336v-2.668h-.399l-1.677 2.811v.192h1.704v.724zm-1.219-1.059l1.229-2.077v2.077h-1.229zm5.362 1.059h.389v-.724h.32v-.335h-.336v-2.668h-.399l-1.677 2.811v.192h1.703v.724zm-1.219-1.059l1.23-2.077v2.077h-1.23zm3.386-.799h.244c.453 0 .767.32.767.777 0 .458-.314.772-.767.772-.457 0-.766-.314-.766-.772h-.405c0 .666.474 1.118 1.171 1.118.693 0 1.166-.452 1.166-1.118 0-.463-.239-.798-.617-.953.277-.138.458-.41.458-.772 0-.569-.41-.958-1.007-.958-.601 0-1.006.389-1.006.958h.399c0-.362.251-.612.607-.612.357 0 .607.25.607.612s-.25.618-.607.618h-.244v.33zm1.978-.948c0 .362.176.634.453.772-.378.155-.612.49-.612.953 0 .666.474 1.118 1.166 1.118.697 0 1.171-.452 1.171-1.118 0-.463-.24-.798-.618-.953.277-.138.453-.41.453-.772 0-.569-.405-.958-1.006-.958-.597 0-1.007.389-1.007.958zm.24 1.725c0-.457.314-.772.767-.772.457 0 .772.315.772.772 0 .458-.315.772-.772.772-.453 0-.767-.314-.767-.772zm.165-1.725c0-.362.245-.612.602-.612.362 0 .607.25.607.612s-.245.613-.607.613c-.357 0-.602-.251-.602-.613z" fill="#8D97A0"/><path d="M176.416 196.625h.599v-5.591h-.463l-2.164 3.458-2.164-3.458h-.455v5.591h.599v-4.353l1.892 3.067h.264l1.892-3.067v4.353zm5.22-3.594h-.647l-1.254 2.899-1.262-2.899h-.646l1.629 3.594-1.03 1.996h.646l2.564-5.59zm4.477 3.594h.671l-1.477-1.893 1.349-1.701h-.671l-1.317 1.685v-1.685h-.575v1.693l-1.318-1.693h-.671l1.35 1.701-1.477 1.893h.662l1.454-1.877v1.877h.575v-1.869l1.445 1.869zm4.012 0v-3.594h-.582v1.589c-.184.104-.488.16-.695.16-.559 0-.783-.36-.783-.783v-.966h-.583v.99c0 .743.431 1.238 1.238 1.238.232 0 .559-.04.823-.136v1.502h.582zm1.746-3.594h-.583v3.594h.471l2.037-2.66v2.66h.583v-3.594h-.471l-2.037 2.659v-2.659zm4.258 0h-.583v3.594h.583v-1.582h1.885v1.582h.575v-3.594h-.575v1.541h-1.885v-1.541zm3.637 3.594h1.301c.727 0 1.15-.432 1.15-1.039s-.423-1.038-1.15-1.038h-.718v-1.517h-.583v3.594zm1.285-1.63c.344 0 .583.248.583.591 0 .352-.239.591-.583.591h-.702v-1.182h.702zm1.749 1.63h.583v-3.594h-.583v3.594z" fill="#020E1A"/><circle cx="161.547" cy="193.853" r="5.769" fill="#D93436"/><path d="M91.302 196.625h.598v-5.591h-.599v5.591zm2.954 0h.711l-2.284-2.867 2.148-2.724h-.695l-2.148 2.724 2.268 2.867zm-3.034-2.867l-2.149-2.724h-.694l2.14 2.724-2.284 2.867h.719l2.268-2.867zm7.233 1.221c0-1.229-.6-2.004-1.637-2.004-1.023 0-1.717.751-1.717 1.837 0 1.126.75 1.868 1.86 1.868.56 0 1.014-.191 1.342-.535l-.351-.359c-.224.24-.552.375-.959.375-.742 0-1.222-.471-1.27-1.182h2.732zm-1.621-1.493c.606 0 .966.423 1.038 1.078h-2.148c.063-.663.503-1.078 1.11-1.078zm3.129-.455h-.583v3.594h.583v-1.582h1.884v1.582h.575v-3.594h-.575v1.541h-1.884v-1.541zm3.636 3.594h4.392v.958h.543v-1.422h-.431v-3.13h-.583v3.13h-1.382v-3.13h-.575v3.13h-1.381v-3.13h-.583v3.594zm6.416-3.594h-.583v3.594h.471l2.037-2.66v2.66h.583v-3.594h-.471l-2.037 2.659v-2.659zm4.258 0h-.583v3.594h.583v-1.582h1.885v1.582h.575v-3.594h-.575v1.541h-1.885v-1.541zm3.636 3.594h1.302c.727 0 1.15-.432 1.15-1.039s-.423-1.038-1.15-1.038h-.719v-1.517h-.583v3.594zm1.286-1.63c.344 0 .583.248.583.591 0 .352-.239.591-.583.591h-.703v-1.182h.703zm1.749 1.63h.583v-3.594h-.583v3.594z" fill="#020E1A"/><path d="M116.02 205.396c0 .543.263.95.679 1.158-.567.231-.919.734-.919 1.429 0 .998.711 1.677 1.749 1.677 1.046 0 1.757-.679 1.757-1.677 0-.695-.359-1.198-.926-1.429.415-.208.679-.615.679-1.158 0-.855-.607-1.438-1.51-1.438-.894 0-1.509.583-1.509 1.438zm.359 2.587c0-.687.471-1.158 1.15-1.158.687 0 1.158.471 1.158 1.158 0 .687-.471 1.158-1.158 1.158-.679 0-1.15-.471-1.15-1.158zm.248-2.587c0-.543.367-.919.902-.919.543 0 .911.376.911.919s-.368.918-.911.918c-.535 0-.902-.375-.902-.918zm3.307-.695l.879-.168v5.071h.575v-5.622l-1.454.248v.471zm2.751 4.568c0 .224.167.391.391.391a.386.386 0 00.391-.391.39.39 0 00-.391-.391.386.386 0 00-.391.391zm1.666-.184v.519h3.347v-.503h-2.556l2.045-2.044c.311-.32.511-.783.511-1.334 0-1.054-.687-1.765-1.701-1.765-1.015 0-1.701.711-1.701 1.765h.599c0-.735.447-1.238 1.102-1.238.646 0 1.102.503 1.102 1.238 0 .391-.112.727-.32.942l-2.428 2.42zm4.35-3.689c0 .543.263.95.678 1.158-.567.231-.918.734-.918 1.429 0 .998.711 1.677 1.749 1.677 1.046 0 1.757-.679 1.757-1.677 0-.695-.359-1.198-.926-1.429.415-.208.678-.615.678-1.158 0-.855-.607-1.438-1.509-1.438-.894 0-1.509.583-1.509 1.438zm.359 2.587c0-.687.471-1.158 1.15-1.158.687 0 1.158.471 1.158 1.158 0 .687-.471 1.158-1.158 1.158-.679 0-1.15-.471-1.15-1.158zm.248-2.587c0-.543.367-.919.902-.919.543 0 .91.376.91.919s-.367.918-.91.918c-.535 0-.902-.375-.902-.918zm4.697 4.208h.591l2.938-5.59h-.591l-2.938 5.59zm-1.334-4.296c0 .806.551 1.349 1.358 1.349.798 0 1.349-.543 1.349-1.349 0-.807-.551-1.35-1.349-1.35-.807 0-1.358.543-1.358 1.35zm.527 0c0-.535.335-.903.831-.903.487 0 .822.368.822.903s-.335.902-.822.902c-.496 0-.831-.367-.831-.902zm2.955 3.003c0 .806.551 1.349 1.349 1.349.807 0 1.358-.543 1.358-1.349 0-.807-.551-1.35-1.358-1.35-.798 0-1.349.543-1.349 1.35zm.527 0c0-.535.335-.903.822-.903.496 0 .831.368.831.903s-.335.902-.831.902c-.487 0-.822-.367-.822-.902zm62.147-3.61l.879-.168v5.071h.575v-5.622l-1.454.248v.471zm2.886.695c0 .543.264.95.679 1.158-.567.231-.918.734-.918 1.429 0 .998.71 1.677 1.749 1.677 1.046 0 1.757-.679 1.757-1.677 0-.695-.36-1.198-.927-1.429.415-.208.679-.615.679-1.158 0-.855-.607-1.438-1.509-1.438-.895 0-1.51.583-1.51 1.438zm.36 2.587c0-.687.471-1.158 1.15-1.158.686 0 1.158.471 1.158 1.158 0 .687-.472 1.158-1.158 1.158-.679 0-1.15-.471-1.15-1.158zm.247-2.587c0-.543.368-.919.903-.919.543 0 .91.376.91.919s-.367.918-.91.918c-.535 0-.903-.375-.903-.918zm3.531 3.873c0 .224.168.391.392.391a.392.392 0 10-.392-.391zm1.145-4.752h2.627l-1.893 5.087h.623l2.021-5.374v-.216h-3.378v.503zm4.18 4.568v.519h3.346v-.503h-2.556l2.045-2.044c.311-.32.511-.783.511-1.334 0-1.054-.687-1.765-1.701-1.765s-1.701.711-1.701 1.765h.599c0-.735.447-1.238 1.102-1.238.647 0 1.102.503 1.102 1.238 0 .391-.112.727-.319.942l-2.428 2.42zm5.379.519h.591l2.939-5.59h-.591l-2.939 5.59zm-1.334-4.296c0 .806.551 1.349 1.358 1.349.799 0 1.35-.543 1.35-1.349 0-.807-.551-1.35-1.35-1.35-.807 0-1.358.543-1.358 1.35zm.528 0c0-.535.335-.903.83-.903.487 0 .823.368.823.903s-.336.902-.823.902c-.495 0-.83-.367-.83-.902zm2.954 3.003c0 .806.551 1.349 1.35 1.349.807 0 1.358-.543 1.358-1.349 0-.807-.551-1.35-1.358-1.35-.799 0-1.35.543-1.35 1.35zm.527 0c0-.535.336-.903.823-.903.495 0 .831.368.831.903s-.336.902-.831.902c-.487 0-.823-.367-.823-.902z" fill="#8D97A0"/><path d="M88.314 204.892v-.878h3.682v.279l-1.82 5.311h-1.103l1.565-4.712h-2.324zm5.974 4.792l-.894-.511a7.704 7.704 0 001.293-1.709 1.39 1.39 0 01-.271.024c-.538 0-.977-.16-1.318-.479-.335-.325-.503-.754-.503-1.286s.168-.964.503-1.294c.34-.33.788-.495 1.342-.495.553 0 .995.168 1.326.503.335.33.503.791.503 1.382 0 .639-.19 1.304-.567 1.996a8.148 8.148 0 01-1.414 1.869zm.687-3.314c.144-.165.216-.378.216-.639s-.072-.471-.216-.631a.675.675 0 00-.543-.248.698.698 0 00-.551.248c-.139.16-.208.37-.208.631s.07.474.208.639c.144.16.327.239.55.239a.683.683 0 00.544-.239zm5.676-2.436l.894.511a7.742 7.742 0 00-1.294 1.709c.08-.016.171-.024.272-.024.538 0 .974.163 1.31.487.34.32.511.746.511 1.278 0 .533-.171.964-.511 1.294-.336.33-.78.495-1.334.495s-.998-.165-1.334-.495c-.33-.336-.495-.799-.495-1.39 0-.639.19-1.301.567-1.988a8.067 8.067 0 011.414-1.877zm-.695 3.322c-.138.16-.208.37-.208.631s.07.474.208.639c.144.16.327.24.551.24.224 0 .405-.08.543-.24.144-.165.216-.378.216-.639s-.072-.471-.216-.631a.673.673 0 00-.543-.247.697.697 0 00-.551.247zm2.906-1.749c0-.463.157-.841.471-1.134.32-.293.735-.439 1.246-.439s.924.146 1.238.439c.319.293.479.671.479 1.134 0 .469-.176.831-.527 1.086.458.299.687.738.687 1.318 0 .522-.173.948-.519 1.278-.347.33-.799.495-1.358.495s-1.012-.165-1.358-.495c-.346-.33-.519-.756-.519-1.278 0-.586.224-1.025.671-1.318-.341-.255-.511-.617-.511-1.086zm1.142 1.789a.867.867 0 00-.224.615c0 .25.075.455.224.615a.75.75 0 00.575.24.75.75 0 00.575-.24.867.867 0 00.224-.615.867.867 0 00-.224-.615.75.75 0 00-.575-.239.75.75 0 00-.575.239zm.112-2.26a.656.656 0 00-.176.471c0 .192.059.349.176.471a.625.625 0 00.463.184.6.6 0 00.455-.184.634.634 0 00.184-.471.638.638 0 00-.184-.471.603.603 0 00-.455-.184.63.63 0 00-.463.184zm2.859.016v-.798l1.917-.28v5.63h-1.039v-4.688l-.878.136zm64.426 0v-.798l1.917-.28v5.63h-1.038v-4.688l-.879.136zm2.992.455c0-.463.157-.841.471-1.134.32-.293.735-.439 1.246-.439s.924.146 1.238.439c.319.293.479.671.479 1.134 0 .469-.176.831-.527 1.086.458.299.687.738.687 1.318 0 .522-.173.948-.519 1.278-.346.33-.799.495-1.358.495s-1.012-.165-1.358-.495c-.346-.33-.519-.756-.519-1.278 0-.586.224-1.025.671-1.318-.341-.255-.511-.617-.511-1.086zm1.142 1.789a.867.867 0 00-.224.615c0 .25.075.455.224.615a.75.75 0 00.575.24.75.75 0 00.575-.24.867.867 0 00.224-.615.867.867 0 00-.224-.615.75.75 0 00-.575-.239.75.75 0 00-.575.239zm.112-2.26a.656.656 0 00-.176.471c0 .192.059.349.176.471a.625.625 0 00.463.184.6.6 0 00.455-.184.634.634 0 00.184-.471.638.638 0 00-.184-.471.603.603 0 00-.455-.184.63.63 0 00-.463.184zm6.249 2.005v-.863h.367a.587.587 0 00.455-.192.66.66 0 00.184-.479.638.638 0 00-.184-.471.602.602 0 00-.455-.184.63.63 0 00-.463.184.656.656 0 00-.176.471h-1.078c0-.463.157-.841.471-1.134.32-.293.735-.439 1.246-.439s.924.146 1.238.439c.319.293.479.671.479 1.134 0 .469-.176.831-.527 1.086.458.299.687.738.687 1.318 0 .522-.173.948-.519 1.278-.346.33-.799.495-1.358.495s-1.011-.165-1.357-.495c-.346-.33-.52-.756-.52-1.278h1.079c0 .25.074.455.223.615a.75.75 0 00.575.24.75.75 0 00.575-.24.867.867 0 00.224-.615.895.895 0 00-.224-.623.74.74 0 00-.575-.247h-.367zm6.281.806c0 .549-.171.993-.511 1.334-.336.335-.778.503-1.326.503s-.993-.165-1.334-.495c-.335-.33-.503-.764-.503-1.302h1.038c0 .256.075.466.224.631a.75.75 0 00.575.24.666.666 0 00.543-.256c.144-.17.216-.389.216-.655 0-.293-.085-.532-.256-.719a.847.847 0 00-.655-.279c-.282 0-.508.093-.678.279l-.759-.231.303-2.883h2.684v.878h-1.765l-.112 1.086a1.47 1.47 0 01.391-.047c.575 0 1.038.178 1.39.535.356.351.535.812.535 1.381zm.663.919l2.348-2.348c.149-.149.223-.365.223-.647 0-.266-.071-.485-.215-.655a.67.67 0 00-.543-.256.69.69 0 00-.551.256c-.139.17-.208.389-.208.655h-1.078c0-.549.168-.99.503-1.326.341-.341.785-.511 1.334-.511.548 0 .99.17 1.325.511.341.336.512.777.512 1.326 0 .511-.195.961-.583 1.349l-1.606 1.606h2.189v.878h-3.65v-.838z" fill="#020E1A"/><circle cx="78.381" cy="193.853" r="5.769" fill="#7C267B"/><defs><filter id="filter0_dd" x="25.265" y=".364" width="224.183" height="218.183" filterUnits="userSpaceOnUse" color-interpolation-filters="sRGB"><feFlood flood-opacity="0" result="BackgroundImageFix"/><feColorMatrix in="SourceAlpha" values="0 0 0 0 0 0 0 0 0 0 0 0 0 0 0 0 0 0 127 0"/><feOffset dx="16" dy="10"/><feGaussianBlur stdDeviation="16"/><feColorMatrix values="0 0 0 0 0.441667 0 0 0 0 0.182187 0 0 0 0 0.438297 0 0 0 0.4 0"/><feBlend in2="BackgroundImageFix" result="effect1_dropShadow"/><feColorMatrix in="SourceAlpha" values="0 0 0 0 0 0 0 0 0 0 0 0 0 0 0 0 0 0 127 0"/><feOffset dx="-16" dy="-16"/><feGaussianBlur stdDeviation="20"/><feColorMatrix values="0 0 0 0 1 0 0 0 0 1 0 0 0 0 1 0 0 0 0.8 0"/><feBlend in2="effect1_dropShadow" result="effect2_dropShadow"/><feBlend in="SourceGraphic" in2="effect2_dropShadow" result="shape"/></filter></defs></svg>