<svg width="315" height="167" viewBox="0 0 315 167" fill="none" xmlns="http://www.w3.org/2000/svg"><path d="M174.848 129.985l-.331 4.653c.473 0 .678-.203.924-.448l2.219-2.12 4.598 3.367c.844.47 1.438.223 1.665-.776l3.019-14.143.001-.001c.267-1.247-.451-1.734-1.273-1.428l-17.742 6.792c-1.21.47-1.192 1.145-.205 1.451l4.535 1.411 10.536-6.593c.496-.328.947-.146.576.182l-8.522 7.653z" fill="#08C"/><mask id="a" fill="#fff"><path fill-rule="evenodd" clip-rule="evenodd" d="M204.755 128c0 14.777-11.978 26.755-26.755 26.755S151.244 142.777 151.244 128s11.979-26.756 26.756-26.756c14.777 0 26.755 11.979 26.755 26.756zM178 151.644c13.058 0 23.644-10.586 23.644-23.644 0-13.058-10.586-23.644-23.644-23.644-13.058 0-23.644 10.586-23.644 23.644 0 13.058 10.586 23.644 23.644 23.644z"/></mask><path d="M178 158.755c16.986 0 30.755-13.769 30.755-30.755h-8c0 12.567-10.188 22.755-22.755 22.755v8zM147.244 128c0 16.986 13.77 30.755 30.756 30.755v-8c-12.568 0-22.756-10.188-22.756-22.755h-8zM178 97.244c-16.986 0-30.756 13.77-30.756 30.756h8c0-12.568 10.188-22.756 22.756-22.756v-8zM208.755 128c0-16.986-13.769-30.756-30.755-30.756v8c12.567 0 22.755 10.188 22.755 22.756h8zm-11.111 0c0 10.849-8.795 19.644-19.644 19.644v8c15.268 0 27.644-12.376 27.644-27.644h-8zM178 108.356c10.849 0 19.644 8.795 19.644 19.644h8c0-15.268-12.376-27.644-27.644-27.644v8zM158.356 128c0-10.849 8.795-19.644 19.644-19.644v-8c-15.268 0-27.644 12.376-27.644 27.644h8zM178 147.644c-10.849 0-19.644-8.795-19.644-19.644h-8c0 15.268 12.376 27.644 27.644 27.644v-8z" fill="#C5CDCF" mask="url(#a)"/><g filter="url(#filter0_d)"><path d="M178 97a30.996 30.996 0 00-29.362 21.055 30.998 30.998 0 0010.523 34.564 30.996 30.996 0 0036.114 1.122 31.01 31.01 0 0011.764-14.889 31.008 31.008 0 00.883-18.956l-10.598 2.871a20.023 20.023 0 01-19.945 25.243 20.016 20.016 0 01-18.341-26.433A20.021 20.021 0 01178 107.98V97z" fill="#08C"/></g><mask id="b" fill="#fff"><path fill-rule="evenodd" clip-rule="evenodd" d="M64.755 128c0 14.777-11.978 26.755-26.755 26.755S11.244 142.777 11.244 128 23.224 101.244 38 101.244c14.777 0 26.755 11.979 26.755 26.756zM38 151.644c13.059 0 23.644-10.586 23.644-23.644 0-13.058-10.585-23.644-23.644-23.644-13.058 0-23.644 10.586-23.644 23.644 0 13.058 10.586 23.644 23.644 23.644z"/></mask><path d="M38 158.755c16.986 0 30.755-13.769 30.755-30.755h-8c0 12.567-10.188 22.755-22.755 22.755v8zM7.244 128c0 16.986 13.77 30.755 30.756 30.755v-8c-12.568 0-22.756-10.188-22.756-22.755h-8zM38 97.244c-16.986 0-30.756 13.77-30.756 30.756h8c0-12.568 10.188-22.756 22.756-22.756v-8zM68.755 128c0-16.986-13.77-30.756-30.755-30.756v8c12.568 0 22.755 10.188 22.755 22.756h8zm-11.11 0c0 10.849-8.796 19.644-19.645 19.644v8c15.268 0 27.644-12.376 27.644-27.644h-8zM38 108.356c10.85 0 19.644 8.795 19.644 19.644h8c0-15.268-12.376-27.644-27.644-27.644v8zM18.356 128c0-10.849 8.795-19.644 19.644-19.644v-8c-15.268 0-27.644 12.376-27.644 27.644h8zM38 147.644c-10.85 0-19.644-8.795-19.644-19.644h-8c0 15.268 12.376 27.644 27.644 27.644v-8z" fill="#C5CDCF" mask="url(#b)"/><g filter="url(#filter1_d)"><path d="M38 97a30.997 30.997 0 00-29.299 20.872 31 31 0 0010.155 34.51l6.78-8.636a20.017 20.017 0 01-6.558-22.287A20.022 20.022 0 0138 107.98V97z" fill="#3B5999"/></g><path d="M41 118v4h-2c-.69 0-1 .81-1 1.5v2.5h3v4h-3v8h-4v-8h-3v-4h3v-4a3.998 3.998 0 014-4h3z" fill="#3B5999"/><mask id="c" fill="#fff"><path fill-rule="evenodd" clip-rule="evenodd" d="M134.755 128c0 14.777-11.978 26.755-26.755 26.755S81.244 142.777 81.244 128s11.98-26.756 26.756-26.756c14.777 0 26.755 11.979 26.755 26.756zM108 151.644c13.058 0 23.644-10.586 23.644-23.644 0-13.058-10.586-23.644-23.644-23.644-13.058 0-23.644 10.586-23.644 23.644 0 13.058 10.586 23.644 23.644 23.644z"/></mask><path d="M108 158.755c16.986 0 30.755-13.769 30.755-30.755h-8c0 12.567-10.188 22.755-22.755 22.755v8zM77.244 128c0 16.986 13.77 30.755 30.756 30.755v-8c-12.568 0-22.756-10.188-22.756-22.755h-8zM108 97.244c-16.986 0-30.756 13.77-30.756 30.756h8c0-12.568 10.188-22.756 22.756-22.756v-8zM138.755 128c0-16.986-13.769-30.756-30.755-30.756v8c12.567 0 22.755 10.188 22.755 22.756h8zm-11.111 0c0 10.849-8.795 19.644-19.644 19.644v8c15.268 0 27.644-12.376 27.644-27.644h-8zM108 108.356c10.849 0 19.644 8.795 19.644 19.644h8c0-15.268-12.376-27.644-27.644-27.644v8zM88.356 128c0-10.849 8.795-19.644 19.644-19.644v-8c-15.268 0-27.644 12.376-27.644 27.644h8zM108 147.644c-10.85 0-19.644-8.795-19.644-19.644h-8c0 15.268 12.376 27.644 27.644 27.644v-8z" fill="#C5CDCF" mask="url(#c)"/><g filter="url(#filter2_d)"><path d="M108 97a31.001 31.001 0 00-30.325 24.567l10.74 2.279A20.018 20.018 0 01108 107.98V97z" fill="#4680C2"/></g><path d="M115.2 129.6c1.55 1.44 1.87 2.13 1.92 2.22.64 1.06-.7 1.14-.7 1.14l-2.58.04s-.56.11-1.28-.39c-.97-.66-1.9-2.39-2.59-2.16-.71.23-.69 1.78-.69 1.78s0 .22-.16.39c-.18.19-.53.12-.53.12h-1.15s-2.55.26-4.78-2.07c-2.45-2.54-4.61-7.54-4.61-7.54s-.12-.3.01-.47c.15-.16.57-.16.57-.16h2.76s.27 0 .44.16c.15.11.24.34.24.34s.44 1.11 1.04 2.13c1.15 1.99 1.68 2.42 2.05 2.21.6-.31.43-2.81.43-2.81s.01-.91-.29-1.31c-.23-.31-.67-.41-.86-.43-.16-.02.1-.38.43-.55.5-.24 1.37-.24 2.41-.24.81 0 1.04.06 1.35.13.96.23.63 1.12.63 3.24 0 .69-.1 1.63.37 1.96.21.14.73.02 2.03-2.17.6-1.04 1.06-2.27 1.06-2.27s.1-.21.25-.31c.16-.08.38-.08.38-.08h2.9s.88-.1 1.02.29c.15.41-.33 1.38-1.52 2.95-1.94 2.6-2.16 2.36-.55 3.86z" fill="#4680C2"/><path d="M2 50.883a8 8 0 018-8h259a8 8 0 018 8v9a8 8 0 01-8 8H10a8 8 0 01-8-8v-9z" stroke="#C5CDCF" stroke-width="4"/><circle cx="271.883" cy="43.883" r="31.419" transform="rotate(-60 271.883 43.883)" fill="#F6F4F2"/><path fill-rule="evenodd" clip-rule="evenodd" d="M295.265 57.383c7.456-12.914 3.032-29.427-9.882-36.883-12.914-7.456-29.427-3.031-36.883 9.883-7.456 12.914-3.031 29.427 9.883 36.882 12.914 7.456 29.427 3.032 36.882-9.882zm-12.379-7.147c3.509-6.078 1.427-13.848-4.65-17.357-6.078-3.509-13.848-1.426-17.357 4.65-3.509 6.078-1.426 13.849 4.651 17.357 6.077 3.509 13.848 1.427 17.356-4.65z" fill="#7C267B"/><g filter="url(#filter3_d)"><path d="M285.383 20.5a27.003 27.003 0 00-35.447 7.656 26.997 26.997 0 00-3.323 25.237 27.002 27.002 0 0032.258 16.57l-3.7-13.808a12.703 12.703 0 01-15.179-7.797 12.714 12.714 0 011.563-11.876 12.705 12.705 0 0116.68-3.602l7.148-12.38z" fill="#DC40B1"/></g><circle cx="14.5" cy="54.383" r="3.5" stroke="#C5CDCF" stroke-width="4"/><rect x="16.733" y="57.736" width="1.584" height="7.109" rx=".792" transform="rotate(-45 16.733 57.736)" stroke="#C5CDCF" stroke-width="1.584"/><mask id="d" fill="#fff"><path fill-rule="evenodd" clip-rule="evenodd" d="M286.755 128c0 14.777-11.978 26.755-26.755 26.755S233.244 142.777 233.244 128s11.979-26.756 26.756-26.756c14.777 0 26.755 11.979 26.755 26.756zM260 151.644c13.058 0 23.644-10.586 23.644-23.644 0-13.058-10.586-23.644-23.644-23.644-13.058 0-23.644 10.586-23.644 23.644 0 13.058 10.586 23.644 23.644 23.644z"/></mask><path d="M260 158.755c16.986 0 30.755-13.769 30.755-30.755h-8c0 12.567-10.188 22.755-22.755 22.755v8zM229.244 128c0 16.986 13.77 30.755 30.756 30.755v-8c-12.568 0-22.756-10.188-22.756-22.755h-8zM260 97.244c-16.986 0-30.756 13.77-30.756 30.756h8c0-12.568 10.188-22.756 22.756-22.756v-8zM290.755 128c0-16.986-13.769-30.756-30.755-30.756v8c12.567 0 22.755 10.188 22.755 22.756h8zm-11.111 0c0 10.849-8.795 19.644-19.644 19.644v8c15.268 0 27.644-12.376 27.644-27.644h-8zM260 108.356c10.849 0 19.644 8.795 19.644 19.644h8c0-15.268-12.376-27.644-27.644-27.644v8zM240.356 128c0-10.849 8.795-19.644 19.644-19.644v-8c-15.268 0-27.644 12.376-27.644 27.644h8zM260 147.644c-10.849 0-19.644-8.795-19.644-19.644h-8c0 15.268 12.376 27.644 27.644 27.644v-8z" fill="#C5CDCF" mask="url(#d)"/><g filter="url(#filter4_d)"><path d="M260 97a31.005 31.005 0 00-24.582 12.112 30.995 30.995 0 00-5.372 26.872 30.993 30.993 0 0018.035 20.633 30.998 30.998 0 0027.349-1.73l-5.465-9.523a20.033 20.033 0 01-17.663 1.117 20.024 20.024 0 01-11.934-22.406A20.02 20.02 0 01260 107.98V97z" fill="#833AB4"/></g><path fill-rule="evenodd" clip-rule="evenodd" d="M268.983 123.998c-.04-.903-.186-1.524-.395-2.062a4.145 4.145 0 00-.983-1.508 4.19 4.19 0 00-1.504-.98c-.542-.209-1.159-.355-2.063-.395-.91-.043-1.198-.053-3.507-.053-2.308 0-2.597.01-3.503.05-.903.04-1.524.186-2.062.395a4.145 4.145 0 00-1.508.983 4.19 4.19 0 00-.98 1.504c-.209.542-.355 1.159-.395 2.063-.043.91-.053 1.199-.053 3.507s.01 2.597.05 3.503c.039.904.186 1.525.395 2.063.216.571.551 1.082.983 1.507.425.432.94.768 1.504.98.542.209 1.159.355 2.063.395.906.04 1.195.05 3.503.05s2.597-.01 3.504-.05c.903-.04 1.524-.186 2.062-.395a4.35 4.35 0 002.488-2.487c.209-.542.355-1.159.395-2.063.039-.906.049-1.195.049-3.503s-.003-2.597-.043-3.504zm-8.451-.863a4.368 4.368 0 000 8.734 4.368 4.368 0 000-8.734zm0 7.2a2.834 2.834 0 010-5.666 2.833 2.833 0 010 5.666zm4.539-6.354a1.02 1.02 0 100-2.04 1.02 1.02 0 000 2.04z" fill="#833AB4"/><defs><filter id="filter0_d" x="145" y="95" width="72" height="72" filterUnits="userSpaceOnUse" color-interpolation-filters="sRGB"><feFlood flood-opacity="0" result="BackgroundImageFix"/><feColorMatrix in="SourceAlpha" values="0 0 0 0 0 0 0 0 0 0 0 0 0 0 0 0 0 0 127 0"/><feOffset dx="3" dy="3"/><feGaussianBlur stdDeviation="2.5"/><feColorMatrix values="0 0 0 0 0.570833 0 0 0 0 0.856945 0 0 0 0 1 0 0 0 1 0"/><feBlend in2="BackgroundImageFix" result="effect1_dropShadow"/><feBlend in="SourceGraphic" in2="effect1_dropShadow" result="shape"/></filter><filter id="filter1_d" x="5" y="95" width="41" height="65.382" filterUnits="userSpaceOnUse" color-interpolation-filters="sRGB"><feFlood flood-opacity="0" result="BackgroundImageFix"/><feColorMatrix in="SourceAlpha" values="0 0 0 0 0 0 0 0 0 0 0 0 0 0 0 0 0 0 127 0"/><feOffset dx="3" dy="3"/><feGaussianBlur stdDeviation="2.5"/><feColorMatrix values="0 0 0 0 0.517344 0 0 0 0 0.659415 0 0 0 0 0.9625 0 0 0 1 0"/><feBlend in2="BackgroundImageFix" result="effect1_dropShadow"/><feBlend in="SourceGraphic" in2="effect1_dropShadow" result="shape"/></filter><filter id="filter2_d" x="75.675" y="95" width="40.325" height="36.846" filterUnits="userSpaceOnUse" color-interpolation-filters="sRGB"><feFlood flood-opacity="0" result="BackgroundImageFix"/><feColorMatrix in="SourceAlpha" values="0 0 0 0 0 0 0 0 0 0 0 0 0 0 0 0 0 0 127 0"/><feOffset dx="3" dy="3"/><feGaussianBlur stdDeviation="2.5"/><feColorMatrix values="0 0 0 0 0.583333 0 0 0 0 0.778226 0 0 0 0 1 0 0 0 1 0"/><feBlend in2="BackgroundImageFix" result="effect1_dropShadow"/><feBlend in="SourceGraphic" in2="effect1_dropShadow" result="shape"/></filter><filter id="filter3_d" x="242.883" y="14.883" width="50.5" height="64" filterUnits="userSpaceOnUse" color-interpolation-filters="sRGB"><feFlood flood-opacity="0" result="BackgroundImageFix"/><feColorMatrix in="SourceAlpha" values="0 0 0 0 0 0 0 0 0 0 0 0 0 0 0 0 0 0 127 0"/><feOffset dx="3" dy="3"/><feGaussianBlur stdDeviation="2.5"/><feColorMatrix values="0 0 0 0 0.7125 0 0 0 0 0.175156 0 0 0 0 0.564386 0 0 0 0.4 0"/><feBlend in2="BackgroundImageFix" result="effect1_dropShadow"/><feBlend in="SourceGraphic" in2="effect1_dropShadow" result="shape"/></filter><filter id="filter4_d" x="227" y="95" width="56.43" height="72" filterUnits="userSpaceOnUse" color-interpolation-filters="sRGB"><feFlood flood-opacity="0" result="BackgroundImageFix"/><feColorMatrix in="SourceAlpha" values="0 0 0 0 0 0 0 0 0 0 0 0 0 0 0 0 0 0 127 0"/><feOffset dx="3" dy="3"/><feGaussianBlur stdDeviation="2.5"/><feColorMatrix values="0 0 0 0 0.89457 0 0 0 0 0.7375 0 0 0 0 1 0 0 0 1 0"/><feBlend in2="BackgroundImageFix" result="effect1_dropShadow"/><feBlend in="SourceGraphic" in2="effect1_dropShadow" result="shape"/></filter></defs></svg>