<svg width="286" height="190" viewBox="0 0 286 190" fill="none" xmlns="http://www.w3.org/2000/svg"><mask id="a" maskUnits="userSpaceOnUse" x="0" y="6" width="180" height="184"><path d="M178.543 13.956L179.5 189.5H8a8 8 0 01-8-8V14a8 8 0 018-8h162.543a8 8 0 018 7.956z" fill="#F6F4F2"/></mask><g mask="url(#a)"><path d="M14 33a8 8 0 018-8h185a8 8 0 018 8v120a8 8 0 01-8 8H22a8 8 0 01-8-8V33z" stroke="#C5CDCF" stroke-width="4"/><rect x="28" y="102" width="68" height="34" rx="3" stroke="#C5CDCF" stroke-width="4"/><path d="M113 103h83m-83 10h83m-83 10h83m-83 10h83" stroke="#C5CDCF" stroke-width="4" stroke-linecap="round"/><rect x="26" y="37" width="116" height="53" rx="5" fill="#C5CDCF"/><rect x="150" y="39" width="51" height="49" rx="3" stroke="#C5CDCF" stroke-width="4"/><g filter="url(#filter0_f)"><rect x="159" y="2" width="138" height="178" rx="10" fill="#F6F4F2"/></g></g><rect x="180" y="4" width="96" height="174" rx="8" stroke="#C5CDCF" stroke-width="4"/><g filter="url(#filter1_d)"><path d="M178 18c0-5.6 0-8.4 1.09-10.54a10 10 0 014.37-4.37C185.599 2 188.399 2 194 2h68c5.601 0 8.401 0 10.54 1.09a10 10 0 014.37 4.37C278 9.6 278 12.4 278 18v146c0 5.601 0 8.401-1.09 10.54a9.998 9.998 0 01-4.37 4.37C270.401 180 267.601 180 262 180h-68c-5.601 0-8.401 0-10.54-1.09a9.998 9.998 0 01-4.37-4.37C178 172.401 178 169.601 178 164V18z" fill="#7C267B"/></g><path d="M192 84h65m-66 58h30m-29-48h65m-66 58h30" stroke="#963195" stroke-width="4" stroke-linecap="round"/><rect x="190" y="23" width="47" height="23" rx="5" fill="#963195"/><rect x="192" y="56" width="72" height="16" rx="3" stroke="#963195" stroke-width="4"/><rect x="192" y="112" width="28" height="19" rx="3" stroke="#963195" stroke-width="4"/><rect x="236" y="112" width="28" height="41" rx="3" stroke="#963195" stroke-width="4"/><rect x="244.419" y="25.19" width="19.733" height="18.886" rx="3" stroke="#963195" stroke-width="4"/><path d="M209.362 2h38.99l-3.053 8.548a4.999 4.999 0 01-4.708 3.319h-23.467a4.999 4.999 0 01-4.709-3.319L209.362 2z" fill="#F6F4F2"/><path d="M211.2 98h-4.14v-5.832h-11.52v-3.06l9.72-16.308h4.752l-9.108 15.228h6.156V81.8h4.14v6.228h3.24v4.14h-3.24V98zm14.127-25.488c2.808 0 4.908 1.152 6.3 3.456 1.416 2.328 2.124 5.472 2.124 9.432 0 4.08-.708 7.248-2.124 9.504-1.416 2.256-3.492 3.384-6.228 3.384-2.76 0-4.872-1.14-6.336-3.42-1.464-2.28-2.196-5.436-2.196-9.468 0-4.056.72-7.212 2.16-9.468 1.44-2.28 3.54-3.42 6.3-3.42zM221.295 85.4c0 6.024 1.368 9.036 4.104 9.036 1.416 0 2.424-.708 3.024-2.124.624-1.416.936-3.72.936-6.912 0-3.168-.312-5.46-.936-6.876-.624-1.416-1.656-2.124-3.096-2.124-1.416 0-2.448.732-3.096 2.196-.624 1.44-.936 3.708-.936 6.804zm22.418-.072c-2.088 0-3.792-.588-5.112-1.764-1.32-1.176-1.98-2.736-1.98-4.68 0-1.92.66-3.468 1.98-4.644 1.32-1.176 3.024-1.764 5.112-1.764 2.064 0 3.756.588 5.076 1.764 1.344 1.2 2.016 2.748 2.016 4.644 0 1.92-.672 3.48-2.016 4.68-1.32 1.176-3.012 1.764-5.076 1.764zm-3.204-6.444c0 .936.3 1.692.9 2.268.6.552 1.368.828 2.304.828.96 0 1.74-.276 2.34-.828.6-.576.9-1.332.9-2.268 0-.912-.312-1.644-.936-2.196-.6-.576-1.368-.864-2.304-.864-.936 0-1.704.288-2.304.864-.6.552-.9 1.284-.9 2.196zm19.116 19.476c-2.088 0-3.792-.588-5.112-1.764-1.32-1.176-1.98-2.736-1.98-4.68 0-1.92.66-3.468 1.98-4.644 1.32-1.176 3.024-1.764 5.112-1.764 2.064 0 3.756.588 5.076 1.764 1.344 1.2 2.016 2.748 2.016 4.644 0 1.92-.672 3.48-2.016 4.68-1.32 1.176-3.012 1.764-5.076 1.764zm-3.204-6.444c0 .936.3 1.692.9 2.268.6.552 1.368.828 2.304.828.96 0 1.74-.276 2.34-.828.6-.576.9-1.332.9-2.268 0-.912-.312-1.644-.936-2.196-.6-.576-1.368-.864-2.304-.864-.936 0-1.704.288-2.304.864-.6.552-.9 1.284-.9 2.196zm-12.636 6.48l-2.376-1.656 18.18-24.336 2.34 1.764-18.144 24.228z" fill="#fff"/><defs><filter id="filter0_f" x="135" y="-22" width="186" height="226" filterUnits="userSpaceOnUse" color-interpolation-filters="sRGB"><feFlood flood-opacity="0" result="BackgroundImageFix"/><feBlend in="SourceGraphic" in2="BackgroundImageFix" result="shape"/><feGaussianBlur stdDeviation="12" result="effect1_foregroundBlur"/></filter><filter id="filter1_d" x="176" y="0" width="110" height="188" filterUnits="userSpaceOnUse" color-interpolation-filters="sRGB"><feFlood flood-opacity="0" result="BackgroundImageFix"/><feColorMatrix in="SourceAlpha" values="0 0 0 0 0 0 0 0 0 0 0 0 0 0 0 0 0 0 127 0"/><feOffset dx="3" dy="3"/><feGaussianBlur stdDeviation="2.5"/><feColorMatrix values="0 0 0 0 0.441667 0 0 0 0 0.182187 0 0 0 0 0.438297 0 0 0 0.4 0"/><feBlend in2="BackgroundImageFix" result="effect1_dropShadow"/><feBlend in="SourceGraphic" in2="effect1_dropShadow" result="shape"/></filter></defs></svg>