<svg width="216" height="167" viewBox="0 0 216 167" fill="none" xmlns="http://www.w3.org/2000/svg"><path fill-rule="evenodd" clip-rule="evenodd" d="M30.093 16c0-6.627 5.372-12 12-12H170.09c6.628 0 12 5.373 12 12v42.5h4V16c0-8.837-7.163-16-16-16H42.092c-8.836 0-16 7.163-16 16v43h4V16zm9.058 5a8 8 0 018-8h119.91a8 8 0 018 8v36h4V21c0-6.627-5.373-12-12-12H47.151c-6.628 0-12 5.373-12 12v36h4V21z" fill="#C5CDCF"/><circle cx="64" cy="39" r="16" fill="#F6F4F2"/><g filter="url(#filter0_d)"><path d="M75.249 36.356a11.355 11.355 0 11-4.4-6.28" stroke="#DC40B1" stroke-width="3" stroke-linecap="round"/><g filter="url(#filter1_d)"><path d="M59.482 38.723l3.76 3.66 10.37-10.094" stroke="#7C267B" stroke-width="3" stroke-linecap="round"/></g></g><path d="M70 151.063H3c.56-29.709 8.858-40.897 32.626-44 22.512 3.653 30.42 14.54 34.374 44z" fill="#F6F4F2" stroke="#C5CDCF" stroke-width="5"/><circle cx="35.576" cy="92.5" r="15" stroke="#C5CDCF" stroke-width="5"/><path d="M23 86.09l6.5 3 5-3H39l9 3" stroke="#C5CDCF" stroke-width="3"/><g filter="url(#filter2_d)"><path d="M17.66 126.589v-3a3 3 0 013-3h5a3 3 0 013 3v3a3 3 0 01-3 3h-5a3 3 0 01-3-3z" stroke="#7C267B" stroke-width="2"/></g><path d="M213 151.473h-67c.56-29.762 8.858-40.969 32.626-44.078 22.511 3.659 30.42 14.566 34.374 44.078z" stroke="#C5CDCF" stroke-width="5"/><circle cx="178.596" cy="92.973" r="15" stroke="#C5CDCF" stroke-width="5"/><g filter="url(#filter3_d)"><path d="M161.128 126.063v-3.309a3 3 0 013-3h4.473a3 3 0 013 3v3.309a3 3 0 01-3 3h-4.473a3 3 0 01-3-3z" stroke="#7C267B" stroke-width="2"/></g><path d="M174.589 79.5c4.153 10.017 8.15 12.648 17.5 13.5m-27.501 2.5c-2 1.5 6.509-10.354 12.001-11m-6-6c2.151-11.138 11.687-10.192 14.5 0" stroke="#C5CDCF" stroke-width="3"/><circle cx="104.163" cy="87.5" r="20" stroke="#C5CDCF" stroke-width="5"/><path d="M149 164H62c.727-38.933 12.066-52.933 42.929-57 29.231 4.787 38.936 18.394 44.071 57z" fill="#F6F4F2" stroke="#C5CDCF" stroke-width="5"/><g filter="url(#filter4_d)"><path d="M79.454 134.51v-5a4 4 0 014-4h7a4 4 0 014 4v5a4 4 0 01-4 4h-7a4 4 0 01-4-4z" fill="#DC40B1"/><path d="M79.454 134.51v-5a4 4 0 014-4h7a4 4 0 014 4v5a4 4 0 01-4 4h-7a4 4 0 01-4-4z" stroke="#DC40B1" stroke-width="3"/></g><path d="M85.436 83l8.5-5.5h6.5l10.36 2.224L121.436 76" stroke="#C5CDCF" stroke-width="3"/><path d="M82 84v7m44-7v7" stroke="#C5CDCF" stroke-width="6" stroke-linecap="round"/><path d="M91 51h63m-36-9h24m-51-9h24m-24 9h14m25-9h24" stroke="#C5CDCF" stroke-width="4" stroke-linecap="round"/><defs><filter id="filter0_d" x="49.44" y="24.493" width="35.711" height="35.711" filterUnits="userSpaceOnUse" color-interpolation-filters="sRGB"><feFlood flood-opacity="0" result="BackgroundImageFix"/><feColorMatrix in="SourceAlpha" values="0 0 0 0 0 0 0 0 0 0 0 0 0 0 0 0 0 0 127 0"/><feOffset dx="3" dy="3"/><feGaussianBlur stdDeviation="2.5"/><feColorMatrix values="0 0 0 0 0.7125 0 0 0 0 0.175156 0 0 0 0 0.564386 0 0 0 0.4 0"/><feBlend in2="BackgroundImageFix" result="effect1_dropShadow"/><feBlend in="SourceGraphic" in2="effect1_dropShadow" result="shape"/></filter><filter id="filter1_d" x="55.982" y="28.789" width="27.131" height="23.687" filterUnits="userSpaceOnUse" color-interpolation-filters="sRGB"><feFlood flood-opacity="0" result="BackgroundImageFix"/><feColorMatrix in="SourceAlpha" values="0 0 0 0 0 0 0 0 0 0 0 0 0 0 0 0 0 0 127 0"/><feOffset dx="3" dy="3"/><feGaussianBlur stdDeviation="2.5"/><feColorMatrix values="0 0 0 0 0.441667 0 0 0 0 0.182187 0 0 0 0 0.438297 0 0 0 0.4 0"/><feBlend in2="BackgroundImageFix" result="effect1_dropShadow"/><feBlend in="SourceGraphic" in2="effect1_dropShadow" result="shape"/></filter><filter id="filter2_d" x="14.66" y="117.589" width="23" height="21" filterUnits="userSpaceOnUse" color-interpolation-filters="sRGB"><feFlood flood-opacity="0" result="BackgroundImageFix"/><feColorMatrix in="SourceAlpha" values="0 0 0 0 0 0 0 0 0 0 0 0 0 0 0 0 0 0 127 0"/><feOffset dx="3" dy="3"/><feGaussianBlur stdDeviation="2.5"/><feColorMatrix values="0 0 0 0 0.441667 0 0 0 0 0.182187 0 0 0 0 0.438297 0 0 0 0.4 0"/><feBlend in2="BackgroundImageFix" result="effect1_dropShadow"/><feBlend in="SourceGraphic" in2="effect1_dropShadow" result="shape"/></filter><filter id="filter3_d" x="158.128" y="116.754" width="22.473" height="21.309" filterUnits="userSpaceOnUse" color-interpolation-filters="sRGB"><feFlood flood-opacity="0" result="BackgroundImageFix"/><feColorMatrix in="SourceAlpha" values="0 0 0 0 0 0 0 0 0 0 0 0 0 0 0 0 0 0 127 0"/><feOffset dx="3" dy="3"/><feGaussianBlur stdDeviation="2.5"/><feColorMatrix values="0 0 0 0 0.441667 0 0 0 0 0.182187 0 0 0 0 0.438297 0 0 0 0.4 0"/><feBlend in2="BackgroundImageFix" result="effect1_dropShadow"/><feBlend in="SourceGraphic" in2="effect1_dropShadow" result="shape"/></filter><filter id="filter4_d" x="75.954" y="122.01" width="28" height="26" filterUnits="userSpaceOnUse" color-interpolation-filters="sRGB"><feFlood flood-opacity="0" result="BackgroundImageFix"/><feColorMatrix in="SourceAlpha" values="0 0 0 0 0 0 0 0 0 0 0 0 0 0 0 0 0 0 127 0"/><feOffset dx="3" dy="3"/><feGaussianBlur stdDeviation="2.5"/><feColorMatrix values="0 0 0 0 0.7125 0 0 0 0 0.175156 0 0 0 0 0.564386 0 0 0 0.4 0"/><feBlend in2="BackgroundImageFix" result="effect1_dropShadow"/><feBlend in="SourceGraphic" in2="effect1_dropShadow" result="shape"/></filter></defs></svg>