<svg width="132" height="154" viewBox="0 0 132 154" fill="none" xmlns="http://www.w3.org/2000/svg"><path d="M89.539 2h-51c-11.046 0-20 8.954-20 20v110c0 11.046 8.954 20 20 20h51c11.045 0 20-8.954 20-20V22c0-11.046-8.955-20-20-20z" stroke="#C5CDCF" stroke-width="4"/><path d="M91 142H38c-5.523 0-10-4.477-10-10V19.5a7.5 7.5 0 017.5-7.5h5.484c1.114 0 2.016.902 2.016 2.015a5.039 5.039 0 005.039 5.04H81.46a5.039 5.039 0 005.039-5.04c0-1.113.902-2.015 2.016-2.015h5.234a7.25 7.25 0 017.25 7.25V132c0 5.523-4.477 10-10 10z" stroke="#C5CDCF" stroke-width="4"/><path d="M51.402 12.112h26" stroke="#C5CDCF" stroke-width="4" stroke-linecap="round"/><circle cx="23" cy="49" r="21" fill="#F6F4F2" stroke="#C5CDCF" stroke-width="4"/><circle cx="109" cy="49" r="21" fill="#F6F4F2" stroke="#C5CDCF" stroke-width="4"/><circle cx="109" cy="118" r="21" fill="#F6F4F2" stroke="#C5CDCF" stroke-width="4"/><circle cx="23" cy="118" r="21" fill="#F6F4F2" stroke="#C5CDCF" stroke-width="4"/><path fill-rule="evenodd" clip-rule="evenodd" d="M115.902 36.703a9.098 9.098 0 00-9.098 9.097v.398H104.9a2 2 0 000 4h1.904V59.7a2 2 0 004 0v-9.503h2.259a2 2 0 000-4h-2.259V45.8a5.098 5.098 0 015.098-5.097v-4z" fill="#3B5999"/><path d="M117.25 118.067a.5.5 0 010 .866L106 125.428a.5.5 0 01-.75-.433v-12.99a.5.5 0 01.75-.433l11.25 6.495z" fill="#F6F4F2" stroke="#EC1940" stroke-width="3"/><rect x="12.5" y="37.5" width="22" height="22" rx="4.5" stroke="#833AB4" stroke-width="3"/><circle cx="23.207" cy="48.623" r="3.5" stroke="#833AB4" stroke-width="3"/><g filter="url(#filter0_d)"><path fill-rule="evenodd" clip-rule="evenodd" d="M65.137 95.064c7.332 0 13.275-5.943 13.275-13.275 0-7.331-5.944-13.274-13.275-13.274s-13.274 5.943-13.274 13.274c0 1.515.254 2.971.721 4.328.075.217.08.454.007.672l-.43 1.276-1.326 4.27a.307.307 0 00.345.394l.508-.087a.005.005 0 00.003-.007.005.005 0 01.002-.007l3.633-1.134c.35-.11.73-.016 1.004.227a13.225 13.225 0 008.807 3.343zm-9.395 1.224a1.03 1.03 0 00-.736-.156l-6.86 1.176-1.608.275a1 1 0 01-1.124-1.282l.484-1.558L48.4 86.69a1.02 1.02 0 00.011-.564 17.306 17.306 0 01-.548-4.336c0-9.54 7.734-17.274 17.274-17.274 9.54 0 17.275 7.734 17.275 17.274 0 9.54-7.734 17.275-17.275 17.275-3.465 0-6.69-1.02-9.395-2.776z" fill="#DC40B1"/></g><path d="M20.025 121.522l-.38 5.305c.544 0 .78-.232 1.062-.51l2.552-2.418 5.289 3.839c.97.536 1.653.254 1.915-.884l3.47-16.124.002-.001c.307-1.421-.519-1.977-1.464-1.628l-20.403 7.743c-1.393.536-1.372 1.306-.237 1.654l5.216 1.609 12.117-7.516c.57-.374 1.089-.167.662.207l-9.801 8.724z" fill="#08C"/><defs><filter id="filter0_d" x="43" y="62" width="48" height="46" filterUnits="userSpaceOnUse" color-interpolation-filters="sRGB"><feFlood flood-opacity="0" result="BackgroundImageFix"/><feColorMatrix in="SourceAlpha" values="0 0 0 0 0 0 0 0 0 0 0 0 0 0 0 0 0 0 127 0"/><feOffset dx="3" dy="3"/><feGaussianBlur stdDeviation="2.5"/><feColorMatrix values="0 0 0 0 0.7125 0 0 0 0 0.175156 0 0 0 0 0.564386 0 0 0 0.4 0"/><feBlend in2="BackgroundImageFix" result="effect1_dropShadow"/><feBlend in="SourceGraphic" in2="effect1_dropShadow" result="shape"/></filter></defs></svg>