<svg width="208" height="210" viewBox="0 0 208 210" fill="none" xmlns="http://www.w3.org/2000/svg"><rect opacity=".4" x="27" y="32" width="178.667" height="321.085" rx="8" stroke="#C5CDCF" stroke-width="4"/><path opacity=".4" d="M50.983 160.034H179.47m-128.487 15.48H179.47m-128.487 15.48H179.47" stroke="#C5CDCF" stroke-width="4" stroke-linecap="round"/><rect opacity=".4" x="46.339" y="68.701" width="91.333" height="41.797" rx="5" fill="#C5CDCF"/><g filter="url(#filter0_d)"><rect x="46" y="121" width="139" height="23" rx="8" fill="#DC40B1"/></g><rect opacity=".4" x="144.317" y="70.701" width="39.345" height="37.797" rx="3" stroke="#C5CDCF" stroke-width="4"/><path opacity=".4" d="M81.944 34h71.209l-6.429 14.678a5 5 0 01-4.58 2.994H92.952a5 5 0 01-4.58-2.994L81.944 34z" fill="#C5CDCF"/><path d="M2 29.42l7.938-5.044a5 5 0 016.226.694l19.201 19.298a5 5 0 006.226.694l16.282-10.345a5 5 0 002.191-5.345l-3.935-17.057-23.152 14.71" stroke="#7C267B" stroke-width="4" stroke-linecap="round"/><g filter="url(#filter1_d)"><circle cx="49.698" cy="54.431" r="4.669" transform="rotate(-32.43 49.698 54.431)" fill="#7C267B"/></g><g filter="url(#filter2_d)"><circle cx="64.476" cy="45.042" r="4.669" transform="rotate(-32.43 64.476 45.042)" fill="#7C267B"/></g><path d="M145.356 10l8.732 2.418a5 5 0 013.658 5.085l-1.402 26.28a5 5 0 003.658 5.085l17.926 4.965a5 5 0 005.434-1.956l9.712-13.91-25.756-7.133" stroke="#7C267B" stroke-width="4" stroke-linecap="round"/><g filter="url(#filter3_d)"><circle cx="158.422" cy="60.822" r="4.549" transform="rotate(15.481 158.422 60.822)" fill="#7C267B"/></g><g filter="url(#filter4_d)"><circle cx="174.862" cy="65.375" r="4.549" transform="rotate(15.481 174.862 65.375)" fill="#7C267B"/></g><path d="M76 72.929l7.385-.942a5 5 0 015.34 3.274l7.44 20.783a5 5 0 005.34 3.274l15.247-1.945a5 5 0 004.255-3.906l3.042-14.108-23.236 2.965" stroke="#7C267B" stroke-width="4" stroke-linecap="round"/><g filter="url(#filter5_d)"><circle cx="103.788" cy="109.578" r="3.987" transform="rotate(-7.27 103.788 109.578)" fill="#7C267B"/></g><g filter="url(#filter6_d)"><circle cx="118.619" cy="107.686" r="3.987" transform="rotate(-7.27 118.619 107.686)" fill="#7C267B"/></g><g filter="url(#filter7_d)"><path d="M131.534 177.591c-.1.958-.885 1.681-1.812 1.782l-10.849.602c-1.781.074-3.447-1.047-3.973-2.808-1.531-5.184-5.11-9.213-5.357-9.487a.32.32 0 01-.021-.023l-.007-.008c-.956-1.04-1.713-2.113-2.188-3.568-.305-.997-.948-2.237-1.295-3.184-.938-2.488-2.109-4.89-3.647-7.038-.694-.939-.508-1.664.481-2.317.494-.327 1.413-.519 2.029-.42 1.382.235 2.405 1.071 3.291 1.974.578.505 2.288 3.818 3.194 5.173.78 1.172 1.642.336 2.351-.87.35-.606.499-1.267.644-1.942.832-6.105 1.518-12.232 2.235-18.415.139-1.364 1.092-2.209 2.394-2.217 1.255.052 2.25 1.043 2.312 2.376.092 1.877.134 3.712.194 5.644.023 1.739.143 3.461.167 5.2.048 1.266.913 2.359 2.091 2.825 2.766 1.094 7.869 3.597 11.946 8.352.308.398.489.87.363 1.384-.279 2.03-1.149 7.587-3.452 11.936-.458 1.217-.682 2.348-.868 3.073l-.223 1.976z" fill="#7C267B"/></g><path fill-rule="evenodd" clip-rule="evenodd" d="M118.503 132.019a6.294 6.294 0 011 0V123h-1v9.019zm4.154 1.12c.276.195.533.411.768.647l3.357-3.357-.707-.707-3.418 3.417zm2.319 3.861a5.167 5.167 0 010 1h7.527v-1h-7.527zm-11.952 1a5.167 5.167 0 010-1h-7.521v1h7.521zm2.323-4.864a5.9 5.9 0 00-.768.646l-3.354-3.353.707-.707 3.415 3.414z" fill="#fff"/><defs><filter id="filter0_d" x="44" y="119" width="149" height="33" filterUnits="userSpaceOnUse" color-interpolation-filters="sRGB"><feFlood flood-opacity="0" result="BackgroundImageFix"/><feColorMatrix in="SourceAlpha" values="0 0 0 0 0 0 0 0 0 0 0 0 0 0 0 0 0 0 127 0"/><feOffset dx="3" dy="3"/><feGaussianBlur stdDeviation="2.5"/><feColorMatrix values="0 0 0 0 0.7125 0 0 0 0 0.175156 0 0 0 0 0.564386 0 0 0 0.4 0"/><feBlend in2="BackgroundImageFix" result="effect1_dropShadow"/><feBlend in="SourceGraphic" in2="effect1_dropShadow" result="shape"/></filter><filter id="filter1_d" x="43.029" y="47.761" width="19.339" height="19.339" filterUnits="userSpaceOnUse" color-interpolation-filters="sRGB"><feFlood flood-opacity="0" result="BackgroundImageFix"/><feColorMatrix in="SourceAlpha" values="0 0 0 0 0 0 0 0 0 0 0 0 0 0 0 0 0 0 127 0"/><feOffset dx="3" dy="3"/><feGaussianBlur stdDeviation="2.5"/><feColorMatrix values="0 0 0 0 0.441667 0 0 0 0 0.182187 0 0 0 0 0.438297 0 0 0 0.4 0"/><feBlend in2="BackgroundImageFix" result="effect1_dropShadow"/><feBlend in="SourceGraphic" in2="effect1_dropShadow" result="shape"/></filter><filter id="filter2_d" x="57.807" y="38.372" width="19.339" height="19.339" filterUnits="userSpaceOnUse" color-interpolation-filters="sRGB"><feFlood flood-opacity="0" result="BackgroundImageFix"/><feColorMatrix in="SourceAlpha" values="0 0 0 0 0 0 0 0 0 0 0 0 0 0 0 0 0 0 127 0"/><feOffset dx="3" dy="3"/><feGaussianBlur stdDeviation="2.5"/><feColorMatrix values="0 0 0 0 0.441667 0 0 0 0 0.182187 0 0 0 0 0.438297 0 0 0 0.4 0"/><feBlend in2="BackgroundImageFix" result="effect1_dropShadow"/><feBlend in="SourceGraphic" in2="effect1_dropShadow" result="shape"/></filter><filter id="filter3_d" x="151.872" y="54.272" width="19.1" height="19.1" filterUnits="userSpaceOnUse" color-interpolation-filters="sRGB"><feFlood flood-opacity="0" result="BackgroundImageFix"/><feColorMatrix in="SourceAlpha" values="0 0 0 0 0 0 0 0 0 0 0 0 0 0 0 0 0 0 127 0"/><feOffset dx="3" dy="3"/><feGaussianBlur stdDeviation="2.5"/><feColorMatrix values="0 0 0 0 0.441667 0 0 0 0 0.182187 0 0 0 0 0.438297 0 0 0 0.4 0"/><feBlend in2="BackgroundImageFix" result="effect1_dropShadow"/><feBlend in="SourceGraphic" in2="effect1_dropShadow" result="shape"/></filter><filter id="filter4_d" x="168.312" y="58.825" width="19.1" height="19.1" filterUnits="userSpaceOnUse" color-interpolation-filters="sRGB"><feFlood flood-opacity="0" result="BackgroundImageFix"/><feColorMatrix in="SourceAlpha" values="0 0 0 0 0 0 0 0 0 0 0 0 0 0 0 0 0 0 127 0"/><feOffset dx="3" dy="3"/><feGaussianBlur stdDeviation="2.5"/><feColorMatrix values="0 0 0 0 0.441667 0 0 0 0 0.182187 0 0 0 0 0.438297 0 0 0 0.4 0"/><feBlend in2="BackgroundImageFix" result="effect1_dropShadow"/><feBlend in="SourceGraphic" in2="effect1_dropShadow" result="shape"/></filter><filter id="filter5_d" x="97.8" y="103.591" width="17.975" height="17.975" filterUnits="userSpaceOnUse" color-interpolation-filters="sRGB"><feFlood flood-opacity="0" result="BackgroundImageFix"/><feColorMatrix in="SourceAlpha" values="0 0 0 0 0 0 0 0 0 0 0 0 0 0 0 0 0 0 127 0"/><feOffset dx="3" dy="3"/><feGaussianBlur stdDeviation="2.5"/><feColorMatrix values="0 0 0 0 0.441667 0 0 0 0 0.182187 0 0 0 0 0.438297 0 0 0 0.4 0"/><feBlend in2="BackgroundImageFix" result="effect1_dropShadow"/><feBlend in="SourceGraphic" in2="effect1_dropShadow" result="shape"/></filter><filter id="filter6_d" x="112.632" y="101.698" width="17.975" height="17.975" filterUnits="userSpaceOnUse" color-interpolation-filters="sRGB"><feFlood flood-opacity="0" result="BackgroundImageFix"/><feColorMatrix in="SourceAlpha" values="0 0 0 0 0 0 0 0 0 0 0 0 0 0 0 0 0 0 127 0"/><feOffset dx="3" dy="3"/><feGaussianBlur stdDeviation="2.5"/><feColorMatrix values="0 0 0 0 0.441667 0 0 0 0 0.182187 0 0 0 0 0.438297 0 0 0 0.4 0"/><feBlend in2="BackgroundImageFix" result="effect1_dropShadow"/><feBlend in="SourceGraphic" in2="effect1_dropShadow" result="shape"/></filter><filter id="filter7_d" x="99.969" y="132.825" width="44.148" height="55.153" filterUnits="userSpaceOnUse" color-interpolation-filters="sRGB"><feFlood flood-opacity="0" result="BackgroundImageFix"/><feColorMatrix in="SourceAlpha" values="0 0 0 0 0 0 0 0 0 0 0 0 0 0 0 0 0 0 127 0"/><feOffset dx="3" dy="3"/><feGaussianBlur stdDeviation="2.5"/><feColorMatrix values="0 0 0 0 0.441667 0 0 0 0 0.182187 0 0 0 0 0.438297 0 0 0 0.4 0"/><feBlend in2="BackgroundImageFix" result="effect1_dropShadow"/><feBlend in="SourceGraphic" in2="effect1_dropShadow" result="shape"/></filter></defs></svg>