<svg width="272" height="179" viewBox="0 0 272 179" fill="none" xmlns="http://www.w3.org/2000/svg"><rect x="2.731" y=".732" width="114.016" height="206.084" rx="8" transform="rotate(-30.013 133.915 35.898) skewX(-.026)" stroke="#C5CDCF" stroke-width="4"/><path d="M60.722 141.546l71.881-41.523M65.722 150.21l71.881-41.522m-66.881 50.187l71.881-41.522M75.722 167.54l71.881-41.522m-66.881 50.187l71.881-41.522" stroke="#C5CDCF" stroke-width="4" stroke-linecap="round"/><rect width="59.008" height="27.011" rx="5" transform="rotate(-30.013 170.836 -3.432) skewX(-.026)" fill="#C5CDCF"/><rect x="2.731" y=".732" width="86.012" height="23.011" rx="3" transform="rotate(-30.013 231.417 -18.18) skewX(-.026)" stroke="#C5CDCF" stroke-width="4"/><rect x="2.731" y=".732" width="86.012" height="38.017" rx="3" transform="rotate(-30.013 404.97 -64.619) skewX(-.026)" stroke="#C5CDCF" stroke-width="4"/><rect x="2.731" y=".732" width="24.004" height="23.011" rx="3" transform="rotate(-30.013 142.563 -118.357) skewX(-.026)" stroke="#C5CDCF" stroke-width="4"/><path d="M32.043 51.824L71.88 28.81l2.037 11.165a5.003 5.003 0 01-2.418 5.23L46.425 59.69a4.997 4.997 0 01-5.737-.519l-8.645-7.347z" fill="#C5CDCF"/><path d="M134 11.441l6.191-.915a5 5 0 015.404 3.168l6.742 17.731a5 5 0 005.404 3.169l12.857-1.901a5 5 0 004.177-3.99l2.407-12.348-20.775 3.071" stroke="#C5CDCF" stroke-width="4" stroke-linecap="round"/><ellipse rx="3.575" ry="3.576" transform="rotate(-8.41 377.747 -1063.185) skewX(-.009)" fill="#C5CDCF"/><ellipse rx="3.575" ry="3.576" transform="rotate(-8.41 371.045 -1154.341) skewX(-.009)" fill="#C5CDCF"/><path d="M190.718 45.236l8.919 2.472a5.002 5.002 0 013.659 5.086l-1.43 26.81a5.002 5.002 0 003.659 5.085l18.301 5.072a4.998 4.998 0 005.434-1.956l9.887-14.17-26.14-7.243" stroke="#C5CDCF" stroke-width="4" stroke-linecap="round"/><ellipse rx="4.617" ry="4.619" transform="rotate(15.489 -254.063 798.37) skewX(.016)" fill="#C5CDCF"/><ellipse rx="4.617" ry="4.619" transform="rotate(15.489 -262.72 862.025) skewX(.016)" fill="#C5CDCF"/><path d="M237.641 0l4.57 1.324a5.001 5.001 0 013.599 5.128l-.975 14.995a5.002 5.002 0 003.599 5.129l9.601 2.781a4.999 4.999 0 005.457-1.893l5.948-8.316-17.226-4.99" stroke="#C5CDCF" stroke-width="4" stroke-linecap="round"/><ellipse rx="3.053" ry="3.054" transform="rotate(16.156 2.452 883.766) skewX(.016)" fill="#C5CDCF"/><ellipse rx="3.053" ry="3.054" transform="rotate(16.156 -3.272 924.093) skewX(.016)" fill="#C5CDCF"/></svg>