<svg width="137" height="180" viewBox="0 0 137 180" fill="none" xmlns="http://www.w3.org/2000/svg"><path d="M92.432 153H12.63c-5.523 0-10-4.477-10-10V13c0-5.523 4.477-10 10-10h79.802c5.522 0 10 4.477 10 10v130c0 5.523-4.478 10-10 10z" fill="#F6F4F2" stroke="#C5CDCF" stroke-width="5"/><g filter="url(#filter0_d)"><rect x="56.523" y="11" width="38.923" height="27" rx="8" fill="#7C267B"/><rect x="58.523" y="13" width="34.923" height="23" rx="6" stroke="#7C267B" stroke-width="4"/></g><rect x="10.618" y="13" width="34.923" height="23" rx="6" fill="#C5CDCF" stroke="#C5CDCF" stroke-width="4"/><path d="M12.61 58h43.912M12.61 49h43.912" stroke="#C5CDCF" stroke-width="3" stroke-linecap="round"/><path d="M12.61 88V73a5 5 0 015-5h41.897a5 5 0 015 5v15a5 5 0 01-5 5H17.61a5 5 0 01-5-5z" stroke="#C5CDCF" stroke-width="3"/><path d="M25.183 85.04l-5.974 6.27c-.606.637-.155 1.69.724 1.69h16.291c.88 0 1.33-1.053.724-1.69l-5.973-6.27a4 4 0 00-5.792 0z" stroke="#C5CDCF" stroke-width="2"/><path d="M41.425 78.128L29.283 90.294c-.629.63-.183 1.706.708 1.706h27.115c.89 0 1.337-1.076.708-1.706L45.672 78.128a3 3 0 00-4.247 0z" fill="#F6F4F2" stroke="#C5CDCF" stroke-width="2"/><path d="M12.237 104.997l3.96 3.778 3.026-6m-6.986 16.222l3.96 3.778 3.026-6m-6.986 16.222l3.96 3.778 3.026-6" stroke="#C5CDCF" stroke-width="3" stroke-linecap="round"/><rect x="28.578" y="21" width="99.802" height="150" rx="10" fill="#F6F4F2"/><path d="M104.428 150v20" stroke="#7C267B" stroke-width="2"/><path d="M124.368 177H44.566c-5.522 0-10-4.477-10-10V37c0-5.523 4.478-10 10-10h79.802c5.523 0 10 4.477 10 10v130c0 5.523-4.477 10-10 10z" fill="#F6F4F2" stroke="#C5CDCF" stroke-width="5"/><g filter="url(#filter1_d)"><rect x="40.554" y="35" width="38.923" height="27" rx="8" fill="#DC40B1"/><rect x="42.554" y="37" width="34.923" height="23" rx="6" stroke="#DC40B1" stroke-width="4"/></g><rect x="90.459" y="37" width="34.923" height="23" rx="6" fill="#C5CDCF" stroke="#C5CDCF" stroke-width="4"/><path d="M74.487 82H118.4M65.505 94H118.4m-47.905 12H118.4m-36.927 12H118.4m-47.905 12H118.4" stroke="#C5CDCF" stroke-width="3" stroke-linecap="round"/><g filter="url(#filter2_d)"><path d="M115.318 160.907c0-.388-.143-.727-.427-1.018-.269-.305-.625-.561-1.067-.769a13.801 13.801 0 00-1.47-.623 31.472 31.472 0 01-1.589-.685 11.656 11.656 0 01-1.47-.852 3.821 3.821 0 01-1.091-1.226 3.65 3.65 0 01-.403-1.724c0-1.136.466-2.085 1.399-2.847.949-.775 2.205-1.163 3.77-1.163 2.087 0 3.667.519 4.742 1.558l-1.565 1.912a4.422 4.422 0 00-2.94-1.081c-.711 0-1.28.146-1.707.436-.411.291-.616.679-.616 1.164 0 .471.181.879.545 1.226.379.346.846.623 1.399.831.553.194 1.154.429 1.802.706.664.277 1.272.568 1.826.873.553.291 1.011.72 1.375 1.288.379.554.569 1.212.569 1.973 0 1.205-.53 2.196-1.589 2.971-1.059.762-2.379 1.143-3.959 1.143a9.23 9.23 0 01-3.296-.602c-1.044-.416-1.755-.977-2.134-1.683l1.66-1.745a4.616 4.616 0 001.73 1.225 5.732 5.732 0 002.087.416c.711 0 1.288-.146 1.731-.436.458-.305.688-.728.688-1.268z" fill="#DC40B1"/></g><g filter="url(#filter3_d)"><path d="M113.41 148v19" stroke="#DC40B1" stroke-width="2"/></g><path d="M77.98 163h12.974m-21.459-5.5c0 5.249-4.246 9.5-9.48 9.5-5.233 0-9.478-4.251-9.478-9.5s4.245-9.5 9.479-9.5c5.233 0 9.479 4.251 9.479 9.5z" stroke="#C5CDCF" stroke-width="2"/><path d="M56.523 154.5h6.986m-6.986 4.083h6.986m-6.986 4.084h6.986" stroke="#C5CDCF" stroke-width="2" stroke-linecap="round"/><path d="M47.686 79.997l3.96 3.778 3.026-6m-6.986 15.222l3.96 3.778 3.026-6m-6.986 15.222l3.96 3.778 3.026-6m-6.986 13.222l3.96 3.778 3.026-6m-6.986 13.222l3.96 3.778 3.026-6m26.731 25.378l2.9 4.644 4.418-5.06" stroke="#C5CDCF" stroke-width="3" stroke-linecap="round"/><defs><filter id="filter0_d" x="54.523" y="9" width="48.923" height="37" filterUnits="userSpaceOnUse" color-interpolation-filters="sRGB"><feFlood flood-opacity="0" result="BackgroundImageFix"/><feColorMatrix in="SourceAlpha" values="0 0 0 0 0 0 0 0 0 0 0 0 0 0 0 0 0 0 127 0"/><feOffset dx="3" dy="3"/><feGaussianBlur stdDeviation="2.5"/><feColorMatrix values="0 0 0 0 0.441667 0 0 0 0 0.182187 0 0 0 0 0.438297 0 0 0 0.4 0"/><feBlend in2="BackgroundImageFix" result="effect1_dropShadow"/><feBlend in="SourceGraphic" in2="effect1_dropShadow" result="shape"/></filter><filter id="filter1_d" x="38.554" y="33" width="48.923" height="37" filterUnits="userSpaceOnUse" color-interpolation-filters="sRGB"><feFlood flood-opacity="0" result="BackgroundImageFix"/><feColorMatrix in="SourceAlpha" values="0 0 0 0 0 0 0 0 0 0 0 0 0 0 0 0 0 0 127 0"/><feOffset dx="3" dy="3"/><feGaussianBlur stdDeviation="2.5"/><feColorMatrix values="0 0 0 0 0.7125 0 0 0 0 0.175156 0 0 0 0 0.564386 0 0 0 0.4 0"/><feBlend in2="BackgroundImageFix" result="effect1_dropShadow"/><feBlend in="SourceGraphic" in2="effect1_dropShadow" result="shape"/></filter><filter id="filter2_d" x="105.422" y="148" width="20.978" height="25" filterUnits="userSpaceOnUse" color-interpolation-filters="sRGB"><feFlood flood-opacity="0" result="BackgroundImageFix"/><feColorMatrix in="SourceAlpha" values="0 0 0 0 0 0 0 0 0 0 0 0 0 0 0 0 0 0 127 0"/><feOffset dx="3" dy="3"/><feGaussianBlur stdDeviation="2.5"/><feColorMatrix values="0 0 0 0 0.7125 0 0 0 0 0.175156 0 0 0 0 0.564386 0 0 0 0.4 0"/><feBlend in2="BackgroundImageFix" result="effect1_dropShadow"/><feBlend in="SourceGraphic" in2="effect1_dropShadow" result="shape"/></filter><filter id="filter3_d" x="110.41" y="146" width="12" height="29" filterUnits="userSpaceOnUse" color-interpolation-filters="sRGB"><feFlood flood-opacity="0" result="BackgroundImageFix"/><feColorMatrix in="SourceAlpha" values="0 0 0 0 0 0 0 0 0 0 0 0 0 0 0 0 0 0 127 0"/><feOffset dx="3" dy="3"/><feGaussianBlur stdDeviation="2.5"/><feColorMatrix values="0 0 0 0 0.441667 0 0 0 0 0.182187 0 0 0 0 0.438297 0 0 0 0.4 0"/><feBlend in2="BackgroundImageFix" result="effect1_dropShadow"/><feBlend in="SourceGraphic" in2="effect1_dropShadow" result="shape"/></filter></defs></svg>