<svg width="311" height="212" viewBox="0 0 311 212" fill="none" xmlns="http://www.w3.org/2000/svg"><path opacity=".4" d="M120 41a8 8 0 018-8h173a8 8 0 018 8v80a8 8 0 01-8 8H128a8 8 0 01-8-8V41zm0 109a8 8 0 018-8h173a8 8 0 018 8v19a8 8 0 01-8 8H128a8 8 0 01-8-8v-19z" fill="#F6F4F2" stroke="#C5CDCF" stroke-width="4"/><path opacity=".4" d="M193 159.5a5.5 5.5 0 005.5 5.5h92a5.5 5.5 0 100-11h-92a5.5 5.5 0 00-5.5 5.5zM2 41a8 8 0 018-8h73a8 8 0 018 8v131a8 8 0 01-8 8H10a8 8 0 01-8-8V41z" fill="#F6F4F2" stroke="#C5CDCF" stroke-width="4"/><path opacity=".4" d="M57.5 130L20 167.5m0-37.5l37.5 37.5" stroke="#C5CDCF" stroke-width="4" stroke-linecap="round"/><rect opacity=".4" x="18" y="50" width="69" height="38" rx="3" stroke="#C5CDCF" stroke-width="4"/><path opacity=".4" d="M236 101h55m-273 0h55m163 13h55m-273 0h55m216.5-65L252 86.5m0-37.5l37.5 37.5" stroke="#C5CDCF" stroke-width="4" stroke-linecap="round"/><g filter="url(#filter0_f)"><path d="M38 30c0-5.523 4.477-10 10-10h215c5.523 0 10 4.477 10 10v156c0 5.523-4.477 10-10 10H48c-5.523 0-10-4.477-10-10V30z" fill="#F6F4F2"/></g><path d="M61 30a8 8 0 018-8h173a8 8 0 018 8v151a8 8 0 01-8 8H69a8 8 0 01-8-8V30z" fill="#F6F4F2" stroke="#C5CDCF" stroke-width="4"/><g filter="url(#filter1_d)"><rect x="131" y="102" width="48" height="14" rx="7" fill="#DC40B1"/></g><rect x="130" y="38" width="27" height="8" rx="3" stroke="#C5CDCF" stroke-width="4"/><rect x="209" y="38" width="27" height="8" rx="3" stroke="#C5CDCF" stroke-width="4"/><rect x="130" y="58" width="106" height="33" rx="3" stroke="#C5CDCF" stroke-width="4"/><g filter="url(#filter2_d)"><rect x="59" y="20" width="61" height="172" rx="8" fill="#7C267B"/></g><rect x="130" y="126" width="47" height="19" rx="3" stroke="#C5CDCF" stroke-width="4"/><rect x="189" y="126" width="47" height="19" rx="3" stroke="#C5CDCF" stroke-width="4"/><path d="M130 155h41m18 0h41m-100 10h41m18 0h41" stroke="#C5CDCF" stroke-width="4" stroke-linecap="round"/><rect x="170" y="38" width="27" height="8" rx="3" stroke="#C5CDCF" stroke-width="4"/><rect x="187" y="105" width="29" height="8" rx="3" stroke="#C5CDCF" stroke-width="4"/><defs><filter id="filter0_f" x="18" y="0" width="275" height="216" filterUnits="userSpaceOnUse" color-interpolation-filters="sRGB"><feFlood flood-opacity="0" result="BackgroundImageFix"/><feBlend in="SourceGraphic" in2="BackgroundImageFix" result="shape"/><feGaussianBlur stdDeviation="10" result="effect1_foregroundBlur"/></filter><filter id="filter1_d" x="129" y="100" width="58" height="24" filterUnits="userSpaceOnUse" color-interpolation-filters="sRGB"><feFlood flood-opacity="0" result="BackgroundImageFix"/><feColorMatrix in="SourceAlpha" values="0 0 0 0 0 0 0 0 0 0 0 0 0 0 0 0 0 0 127 0"/><feOffset dx="3" dy="3"/><feGaussianBlur stdDeviation="2.5"/><feColorMatrix values="0 0 0 0 0.7125 0 0 0 0 0.175156 0 0 0 0 0.564386 0 0 0 0.4 0"/><feBlend in2="BackgroundImageFix" result="effect1_dropShadow"/><feBlend in="SourceGraphic" in2="effect1_dropShadow" result="shape"/></filter><filter id="filter2_d" x="57" y="18" width="71" height="182" filterUnits="userSpaceOnUse" color-interpolation-filters="sRGB"><feFlood flood-opacity="0" result="BackgroundImageFix"/><feColorMatrix in="SourceAlpha" values="0 0 0 0 0 0 0 0 0 0 0 0 0 0 0 0 0 0 127 0"/><feOffset dx="3" dy="3"/><feGaussianBlur stdDeviation="2.5"/><feColorMatrix values="0 0 0 0 0.441667 0 0 0 0 0.182187 0 0 0 0 0.438297 0 0 0 0.4 0"/><feBlend in2="BackgroundImageFix" result="effect1_dropShadow"/><feBlend in="SourceGraphic" in2="effect1_dropShadow" result="shape"/></filter></defs></svg>