<svg width="305" height="185" viewBox="0 0 305 185" fill="none" xmlns="http://www.w3.org/2000/svg"><path d="M2 10a8 8 0 018-8h285a8 8 0 018 8v165a8 8 0 01-8 8H10a8 8 0 01-8-8V10z" stroke="#C5CDCF" stroke-width="4"/><path d="M243 71h14m-7 7V64m31-25h10m-5 5V34m-30-6h10m-5 5V23" stroke="#C5CDCF" stroke-width="4" stroke-linecap="round"/><path d="M247 41h4.828a5 5 0 014.883 3.924l3.27 14.844a5 5 0 004.883 3.924H275a5 5 0 004.715-3.336l3.438-9.74h-18.076" stroke="#7C267B" stroke-width="4" stroke-linecap="round"/><g filter="url(#filter0_d)"><circle cx="264.692" cy="71.769" r="3.077" fill="#7C267B"/></g><g filter="url(#filter1_d)"><circle cx="276.23" cy="71.769" r="3.077" fill="#7C267B"/></g><path d="M212 182V39c0-5.523-4.477-10-10-10h-98c-5.523 0-10 4.477-10 10v143" stroke="#C5CDCF" stroke-width="4"/><path d="M111 110h83m-83 10h83M59.527 131.527L35 107m0 24.527L59.527 107M111 130h83" stroke="#C5CDCF" stroke-width="4" stroke-linecap="round"/><rect x="108" y="45" width="59" height="27" rx="5" fill="#C5CDCF"/><g filter="url(#filter2_d)"><rect x="108" y="82" width="90" height="18" rx="8" fill="#DC40B1"/></g><rect x="172" y="47" width="24" height="23" rx="3" stroke="#C5CDCF" stroke-width="4"/><rect x="111" y="141" width="85" height="14" rx="3" stroke="#C5CDCF" stroke-width="4"/><path d="M247.354 59.354a.5.5 0 000-.708l-3.182-3.181a.501.501 0 00-.708.707L246.293 59l-2.829 2.828a.5.5 0 00.708.707l3.182-3.181zM198 91.5h10.788v-1H198v1zM219.288 81V69h-1v12h1zm9.5-21.5H247v-1h-18.212v1zm-9.5 9.5a9.5 9.5 0 019.5-9.5v-1c-5.799 0-10.5 4.701-10.5 10.5h1zm-10.5 22.5c5.799 0 10.5-4.701 10.5-10.5h-1a9.5 9.5 0 01-9.5 9.5v1zM63.646 120.354a.501.501 0 010-.708l3.182-3.182a.5.5 0 01.707.708L64.707 120l2.829 2.828a.501.501 0 01-.708.708l-3.182-3.182zM64 119.5h12.696v1H64v-1zM87.196 130v7h-1v-7h1zm9.5 16.5H109v1H96.696v-1zm-9.5-9.5a9.5 9.5 0 009.5 9.5v1c-5.8 0-10.5-4.701-10.5-10.5h1zm-10.5-17.5c5.799 0 10.5 4.701 10.5 10.5h-1a9.5 9.5 0 00-9.5-9.5v-1z" fill="#7C267B"/><defs><filter id="filter0_d" x="259.615" y="66.692" width="16.154" height="16.154" filterUnits="userSpaceOnUse" color-interpolation-filters="sRGB"><feFlood flood-opacity="0" result="BackgroundImageFix"/><feColorMatrix in="SourceAlpha" values="0 0 0 0 0 0 0 0 0 0 0 0 0 0 0 0 0 0 127 0"/><feOffset dx="3" dy="3"/><feGaussianBlur stdDeviation="2.5"/><feColorMatrix values="0 0 0 0 0.441667 0 0 0 0 0.182187 0 0 0 0 0.438297 0 0 0 0.4 0"/><feBlend in2="BackgroundImageFix" result="effect1_dropShadow"/><feBlend in="SourceGraphic" in2="effect1_dropShadow" result="shape"/></filter><filter id="filter1_d" x="271.153" y="66.692" width="16.154" height="16.154" filterUnits="userSpaceOnUse" color-interpolation-filters="sRGB"><feFlood flood-opacity="0" result="BackgroundImageFix"/><feColorMatrix in="SourceAlpha" values="0 0 0 0 0 0 0 0 0 0 0 0 0 0 0 0 0 0 127 0"/><feOffset dx="3" dy="3"/><feGaussianBlur stdDeviation="2.5"/><feColorMatrix values="0 0 0 0 0.441667 0 0 0 0 0.182187 0 0 0 0 0.438297 0 0 0 0.4 0"/><feBlend in2="BackgroundImageFix" result="effect1_dropShadow"/><feBlend in="SourceGraphic" in2="effect1_dropShadow" result="shape"/></filter><filter id="filter2_d" x="106" y="80" width="100" height="28" filterUnits="userSpaceOnUse" color-interpolation-filters="sRGB"><feFlood flood-opacity="0" result="BackgroundImageFix"/><feColorMatrix in="SourceAlpha" values="0 0 0 0 0 0 0 0 0 0 0 0 0 0 0 0 0 0 127 0"/><feOffset dx="3" dy="3"/><feGaussianBlur stdDeviation="2.5"/><feColorMatrix values="0 0 0 0 0.7125 0 0 0 0 0.175156 0 0 0 0 0.564386 0 0 0 0.4 0"/><feBlend in2="BackgroundImageFix" result="effect1_dropShadow"/><feBlend in="SourceGraphic" in2="effect1_dropShadow" result="shape"/></filter></defs></svg>