<svg width="258" height="169" viewBox="0 0 258 169" fill="none" xmlns="http://www.w3.org/2000/svg"><path fill-rule="evenodd" clip-rule="evenodd" d="M10 15h164.862a6 6 0 016 6v4.333H4V21a6 6 0 016-6zM4 29.333V123.5a6 6 0 006 6h164.862a6 6 0 006-6V29.333H4zM0 21c0-5.523 4.477-10 10-10h164.862c5.523 0 10 4.477 10 10v102.499c0 5.523-4.477 10-10 10H10c-5.523 0-10-4.477-10-10V21z" fill="#C5CDCF"/><path fill="#C5CDCF" d="M11.136 16.939h5.939v5.939h-5.939zm13.364 0h5.939v5.939H24.5zm13.362 0h5.939v5.939h-5.939z"/><path d="M17 44h44M11 74h44M25 54h44M39 84h44M17 64h44M22 94h44" stroke="#C5CDCF" stroke-width="3" stroke-linecap="round"/><circle cx="173.5" cy="23.5" r="23.5" fill="#F6F4F2"/><g filter="url(#filter0_d)"><path d="M163.068 15.81l-1.912 3.544a1.212 1.212 0 00.386 1.576l1.472 1.023c.334.232.532.606.532 1.004v1.461c0 .376-.177.732-.48.966l-1.586 1.225a1.21 1.21 0 00-.324 1.557l1.817 3.23a1.293 1.293 0 001.656.526l2.007-.908c.39-.177.845-.15 1.211.07l1.665 1.005c.337.204.557.549.595.933l.18 1.86c.062.633.611 1.118 1.267 1.118h4.301c.657 0 1.206-.485 1.267-1.119l.182-1.874c.037-.375.248-.714.574-.92l1.525-.96a1.306 1.306 0 011.292-.053l1.512.782a1.295 1.295 0 001.696-.462l1.886-3.103a1.213 1.213 0 00-.421-1.674l-1.488-.904a1.227 1.227 0 01-.597-1.046v-1.682c0-.413.214-.8.569-1.028l1.579-1.017a1.212 1.212 0 00.404-1.636l-2.042-3.505a1.29 1.29 0 00-1.496-.569l-1.713.531c-.35.11-.732.066-1.047-.12l-1.632-.958a1.232 1.232 0 01-.607-.933l-.169-1.639c-.066-.63-.613-1.111-1.267-1.111h-4.193c-.703 0-1.273.553-1.273 1.235v1.376c0 .462-.266.885-.689 1.097l-2.001 1.002a1.308 1.308 0 01-.927.092l-2.24-.609a1.288 1.288 0 00-1.471.617z" stroke="#7C267B" stroke-width="3"/></g><circle cx="173.439" cy="23.842" r="4.5" stroke="#DC40B1" stroke-width="3"/><path d="M32.464 116.529a1 1 0 01-1.503.864l-8.486-4.937a.956.956 0 01.002-1.653l8.486-4.901a1 1 0 011.5.866v.462a.998.998 0 01-.518.876l-6.382 3.512 6.387 3.556a1 1 0 01.514.873v.482zM61 111.63c0 .34-.181.655-.475.826l-8.509 4.94a1 1 0 01-1.502-.865v-.483a1 1 0 01.515-.874l6.408-3.556-6.404-3.512a1.001 1.001 0 01-.519-.877v-.463a1 1 0 011.5-.866l8.508 4.904c.296.17.478.485.478.826z" fill="#C5CDCF"/><path d="M44.286 101.553l-6.268 20.893" stroke="#C5CDCF" stroke-width="2" stroke-linecap="round"/><rect x="53" y="41" width="184" height="122" rx="12" fill="#F6F4F2"/><path fill-rule="evenodd" clip-rule="evenodd" d="M71 50h164.862a6 6 0 016 6v4.333H65V56a6 6 0 016-6zm-6 14.333V158.5a6 6 0 006 6h164.862a6 6 0 006-6V64.333H65zM61 56c0-5.523 4.477-10 10-10h164.862c5.523 0 10 4.477 10 10v102.499c0 5.523-4.477 10-10 10H71c-5.523 0-10-4.477-10-10V56z" fill="#C5CDCF"/><path fill="#C5CDCF" d="M72.136 51.939h5.939v5.939h-5.939zm13.364 0h5.939v5.939H85.5zm13.362 0h5.939v5.939h-5.939z"/><path d="M72.5 79h18m-18 6h18m-18 6h18m-18 6h18m-18 6h18m-18 6h18m-18 6h18m-18 6h18m-18 6h18m-18 6h18m-18 6h18" stroke="#C5CDCF" stroke-width="2" stroke-linecap="round"/><path d="M105 98V83a5 5 0 015-5h42a5 5 0 015 5v15a5 5 0 01-5 5h-42a5 5 0 01-5-5z" stroke="#C5CDCF" stroke-width="3"/><path d="M117.607 95.031l-5.993 6.279c-.608.636-.157 1.69.723 1.69h16.326c.88 0 1.331-1.054.723-1.69l-5.993-6.279a3.999 3.999 0 00-5.786 0z" stroke="#C5CDCF" stroke-width="2"/><path d="M133.879 88.121l-12.172 12.172c-.63.63-.184 1.707.707 1.707h27.172c.891 0 1.337-1.077.707-1.707l-12.172-12.172a3 3 0 00-4.242 0z" fill="#F6F4F2" stroke="#C5CDCF" stroke-width="2"/><path d="M105 155v-15a5 5 0 015-5h42a5 5 0 015 5v15a5 5 0 01-5 5h-42a5 5 0 01-5-5z" stroke="#C5CDCF" stroke-width="3"/><path d="M117.607 152.031l-5.993 6.279c-.608.636-.157 1.69.723 1.69h16.326c.88 0 1.331-1.054.723-1.69l-5.993-6.279a3.999 3.999 0 00-5.786 0z" stroke="#C5CDCF" stroke-width="2"/><path d="M133.879 145.121l-12.172 12.172c-.63.63-.184 1.707.707 1.707h27.172c.891 0 1.337-1.077.707-1.707l-12.172-12.172a3 3 0 00-4.242 0z" fill="#F6F4F2" stroke="#C5CDCF" stroke-width="2"/><path d="M170 155v-15a5 5 0 015-5h42a5 5 0 015 5v15a5 5 0 01-5 5h-42a5 5 0 01-5-5z" stroke="#C5CDCF" stroke-width="3"/><path d="M182.607 152.031l-5.993 6.279c-.608.636-.157 1.69.723 1.69h16.326c.88 0 1.331-1.054.723-1.69l-5.993-6.279a3.999 3.999 0 00-5.786 0z" stroke="#C5CDCF" stroke-width="2"/><path d="M198.879 145.121l-12.172 12.172c-.63.63-.184 1.707.707 1.707h27.172c.891 0 1.337-1.077.707-1.707l-12.172-12.172a3 3 0 00-4.242 0z" fill="#F6F4F2" stroke="#C5CDCF" stroke-width="2"/><path d="M167 98V83a5 5 0 015-5h42a5 5 0 015 5v15a5 5 0 01-5 5h-42a5 5 0 01-5-5z" stroke="#C5CDCF" stroke-width="3"/><path d="M179.607 95.031l-5.993 6.279c-.608.636-.157 1.69.723 1.69h16.326c.88 0 1.331-1.054.723-1.69l-5.993-6.279a3.999 3.999 0 00-5.786 0z" stroke="#C5CDCF" stroke-width="2"/><path d="M195.879 88.121l-12.172 12.172c-.63.63-.184 1.707.707 1.707h27.172c.891 0 1.337-1.077.707-1.707l-12.172-12.172a3 3 0 00-4.242 0z" fill="#F6F4F2" stroke="#C5CDCF" stroke-width="2"/><path d="M97 62v103" stroke="#C5CDCF" stroke-width="3"/><path d="M108 115h44m21 0h44m-109 6h44m21 0h44m-109 6h44m21 0h44" stroke="#C5CDCF" stroke-width="3" stroke-linecap="round"/><circle cx="234.5" cy="58.5" r="23.5" fill="#F6F4F2"/><path d="M228.568 49.838l-2.332 2.332" stroke="#141414"/><g filter="url(#filter1_d)" stroke="#7C267B"><path d="M238.714 69.087l-16.299-16.3a2 2 0 010-2.828l1.788-1.79a2 2 0 012.829 0l16.299 16.3a1.998 1.998 0 010 2.829l-1.788 1.789a2 2 0 01-2.829 0z" fill="#fff" stroke-width="3"/><path d="M224.371 53.57l1.399-1.4m.467 3.265l1.399-1.399m8.861 11.66l1.4-1.4m.466 3.266l1.399-1.4" stroke-width="2"/></g><path d="M222.414 64.47l16.273-16.273a2.01 2.01 0 01.577-.402l4.369-2.014c.792-.365 1.639.388 1.37 1.217l-1.616 4.978a1.995 1.995 0 01-.47.779L227.031 69.05a2 2 0 01-2.846.019l-1.771-1.77a2 2 0 010-2.83z" fill="#fff" stroke="#DC40B1" stroke-width="3"/><path d="M221.198 65.335l17.737-17.737a2 2 0 01.572-.4l4.891-2.271c.794-.369 1.644.388 1.371 1.219l-1.826 5.56a2.01 2.01 0 01-.468.772l-17.328 17.77a2 2 0 01-2.846.018l-2.103-2.103a2 2 0 010-2.828z" fill="#fff" stroke="#DC40B1" stroke-width="3"/><defs><filter id="filter0_d" x="157.5" y="7.5" width="38.001" height="38" filterUnits="userSpaceOnUse" color-interpolation-filters="sRGB"><feFlood flood-opacity="0" result="BackgroundImageFix"/><feColorMatrix in="SourceAlpha" values="0 0 0 0 0 0 0 0 0 0 0 0 0 0 0 0 0 0 127 0"/><feOffset dx="3" dy="3"/><feGaussianBlur stdDeviation="2.5"/><feColorMatrix values="0 0 0 0 0.441667 0 0 0 0 0.182187 0 0 0 0 0.438297 0 0 0 0.4 0"/><feBlend in2="BackgroundImageFix" result="effect1_dropShadow"/><feBlend in="SourceGraphic" in2="effect1_dropShadow" result="shape"/></filter><filter id="filter1_d" x="218.329" y="44.084" width="35.088" height="35.088" filterUnits="userSpaceOnUse" color-interpolation-filters="sRGB"><feFlood flood-opacity="0" result="BackgroundImageFix"/><feColorMatrix in="SourceAlpha" values="0 0 0 0 0 0 0 0 0 0 0 0 0 0 0 0 0 0 127 0"/><feOffset dx="3" dy="3"/><feGaussianBlur stdDeviation="2.5"/><feColorMatrix values="0 0 0 0 0.441667 0 0 0 0 0.182187 0 0 0 0 0.438297 0 0 0 0.4 0"/><feBlend in2="BackgroundImageFix" result="effect1_dropShadow"/><feBlend in="SourceGraphic" in2="effect1_dropShadow" result="shape"/></filter></defs></svg>