<svg width="279" height="164" viewBox="0 0 279 164" fill="none" xmlns="http://www.w3.org/2000/svg"><path d="M2 10a8 8 0 018-8h259a8 8 0 018 8v164.869a8 8 0 01-8 8H10a8 8 0 01-8-8V10z" stroke="#C5CDCF" stroke-width="4"/><path d="M0 20.113a4 4 0 014-4h271a4 4 0 014 4H0z" fill="#C5CDCF"/><path d="M89.655 38.237a4.014 4.014 0 014.017-4.012H256.87a4.014 4.014 0 014.016 4.012V83.33a4.014 4.014 0 01-4.016 4.012H93.67a4.014 4.014 0 01-4.016-4.012V38.237zm-70.695 0a4.014 4.014 0 014.017-4.012h48.132a4.014 4.014 0 014.017 4.012v12.776a4.015 4.015 0 01-4.017 4.013H22.977a4.015 4.015 0 01-4.017-4.013V38.237zm0 32.316a4.014 4.014 0 014.017-4.012h48.132a4.014 4.014 0 014.017 4.013V83.33a4.014 4.014 0 01-4.017 4.012H22.977a4.014 4.014 0 01-4.017-4.012V70.554zm0 36.075a4.015 4.015 0 014.017-4.013h48.132a4.015 4.015 0 014.017 4.013v45.092a4.014 4.014 0 01-4.017 4.012H22.977a4.014 4.014 0 01-4.017-4.012v-45.092zm70.695 0a4.015 4.015 0 014.017-4.013h43.62a4.015 4.015 0 014.016 4.013v45.092a4.014 4.014 0 01-4.016 4.012h-43.62a4.014 4.014 0 01-4.017-4.012v-45.092zm70.695-1.128a2.887 2.887 0 012.888-2.885h79.797a2.887 2.887 0 012.889 2.885 2.887 2.887 0 01-2.889 2.885h-79.797a2.887 2.887 0 01-2.888-2.885zm0 18.789a2.887 2.887 0 012.888-2.885h79.797a2.887 2.887 0 012.889 2.885 2.887 2.887 0 01-2.889 2.885h-79.797a2.887 2.887 0 01-2.888-2.885zm0 18.788a2.887 2.887 0 012.888-2.885h45.876a2.887 2.887 0 012.889 2.885 2.887 2.887 0 01-2.889 2.885h-45.876a2.887 2.887 0 01-2.888-2.885z" stroke="#C5CDCF" stroke-width="4"/></svg>