<svg width="304" height="161" viewBox="0 0 304 161" fill="none" xmlns="http://www.w3.org/2000/svg"><path d="M10 12h78a8 8 0 018 8v131a8 8 0 01-8 8H10a8 8 0 01-8-8V20a8 8 0 018-8z" stroke="#C5CDCF" stroke-width="4"/><path d="M86 97H56m30-10H56m0 58H15m71-68H56m0 58H15" stroke="#C5CDCF" stroke-width="4" stroke-linecap="round"/><rect x="12" y="22" width="33" height="18" rx="5" fill="#C5CDCF"/><rect x="53" y="22" width="33" height="18" rx="5" fill="#C5CDCF"/><rect x="84.373" y="65" width="69.915" height="14" rx="3" transform="rotate(180 84.373 65)" stroke="#C5CDCF" stroke-width="4"/><rect x="84.373" y="124" width="69.915" height="14" rx="3" transform="rotate(180 84.373 124)" stroke="#C5CDCF" stroke-width="4"/><rect x="43" y="98" width="29" height="21" rx="3" transform="rotate(180 43 98)" stroke="#C5CDCF" stroke-width="4"/><path d="M173.229 94.076l-20.153 20.153m0-20.153l20.153 20.153" stroke="#7C267B" stroke-width="4" stroke-linecap="round"/><path d="M180 104h12a5 5 0 015 5v12a5 5 0 01-5 5h-58a5 5 0 01-5-5v-12a5 5 0 015-5h12m34-83h12a5 5 0 015 5v12a5 5 0 01-5 5h-58a5 5 0 01-5-5V26a5 5 0 015-5h12m139 83h12a5 5 0 015 5v12a5 5 0 01-5 5h-58a5 5 0 01-5-5v-12a5 5 0 015-5h12" stroke="#C5CDCF" stroke-width="4" stroke-linecap="round"/><path d="M181.082 6.992l-17.59 17.59-6.992-6.991m129.582 72.401l-17.59 17.591-6.992-6.992" stroke="#DC40B1" stroke-width="4" stroke-linecap="round"/><path d="M126.354 32.354a.5.5 0 000-.708l-3.182-3.181a.501.501 0 00-.708.707L125.293 32l-2.829 2.828a.5.5 0 00.708.707l3.182-3.181zM86 32.5h40v-1H86v1zm146.354 84.854a.502.502 0 000-.708l-3.182-3.182a.5.5 0 00-.707.708l2.828 2.828-2.828 2.828a.5.5 0 10.707.708l3.182-3.182zM127.5 137h72.426v-1H127.5v1zm91.926-19.5H232v-1h-12.574v1zM87 117h20.5v-1H87v1zm20.5 0a9.5 9.5 0 019.5 9.5h1c0-5.799-4.701-10.5-10.5-10.5v1zm102.676 9.75a9.25 9.25 0 019.25-9.25v-1c-5.661 0-10.25 4.589-10.25 10.25h1zM199.926 137c5.66 0 10.25-4.589 10.25-10.25h-1a9.25 9.25 0 01-9.25 9.25v1zm-72.426-1a9.5 9.5 0 01-9.5-9.5h-1c0 5.799 4.701 10.5 10.5 10.5v-1z" fill="#7C267B"/></svg>