<svg width="156" height="150" viewBox="0 0 156 150" fill="none" xmlns="http://www.w3.org/2000/svg"><path d="M81.09 73.79H17.346c-5.523 0-10 4.476-10 10v39.222c0 5.523 4.477 10 10 10h20.052a4 4 0 012.532.903l12.558 10.263c2.612 2.135 6.53.277 6.53-3.097v-4.069a4 4 0 014-4h18.074c5.523 0 10-4.477 10-10V83.789c0-5.523-4.477-10-10-10z" fill="#F6F4F2" stroke="#C5CDCF" stroke-width="4"/><g filter="url(#filter0_d)"><path fill-rule="evenodd" clip-rule="evenodd" d="M53.102 95.808a3.797 3.797 0 11-7.595 0 3.797 3.797 0 017.595 0zm.361 6.597a7.797 7.797 0 10-8.596-.185c-2.94.832-5.625 2.59-7.757 5.187-.798-1.275-1.947-2.29-3.29-3.001a6.226 6.226 0 10-9.04-.352c-5.151 2.141-9.188 8.297-9.188 19.145h4c0-11.021 4.4-14.989 7.82-15.808 3.825-.916 6.888 1.488 6.888 4.262h.185c-1.64 3.591-2.493 8.086-2.196 13.377l3.993-.224c-.737-13.151 6.212-19.031 12.398-19.136 6.184-.105 13.496 5.536 13.496 19.248h4c0-5.144-.972-9.494-2.613-12.99.689-1.096 1.824-2.099 3.276-2.795 1.822-.872 3.977-1.177 6.008-.661 3.794.963 8.247 5.206 8.247 17.29h4c0-12.002-4.215-18.548-9.885-20.729a6.768 6.768 0 10-9.731.324c-.123.054-.246.111-.367.169-1.405.673-2.698 1.598-3.742 2.724-2.164-2.888-4.906-4.858-7.906-5.845zm-26.223-2.45a2.226 2.226 0 104.453 0 2.226 2.226 0 00-4.453 0zm45.715.541a2.768 2.768 0 11-5.536 0 2.768 2.768 0 015.536 0z" fill="#7C267B"/></g><path d="M65.055 2.517H12c-5.523 0-10 4.477-10 10V55.92c0 5.523 4.477 10 10 10h15.8a4 4 0 012.832 1.175l9.611 9.64c2.519 2.526 6.833.743 6.833-2.823V69.92a4 4 0 014-4h13.979c5.522 0 10-4.477 10-10V12.517c0-5.523-4.478-10-10-10z" fill="#F6F4F2" stroke="#C5CDCF" stroke-width="4"/><g filter="url(#filter1_d)"><path d="M51.123 46.6c22.42-16.085 4.707-40.405-12.005-23.947C23.98 4.759 3.884 31.863 29.2 48.44l9.918 8.421L51.123 46.6z" fill="#F6F4F2"/><path d="M51.123 46.6c22.42-16.085 4.707-40.405-12.005-23.947C23.98 4.759 3.884 31.863 29.2 48.44l9.918 8.421L51.123 46.6z" stroke="#DC40B1" stroke-width="4"/></g><path d="M143.455 17.662H80.6c-5.523 0-10 4.477-10 10v45.571c0 5.523 4.477 10 10 10h22.216a4 4 0 014 4v2.745c0 3.562 4.306 5.348 6.827 2.83l8.417-8.405a3.999 3.999 0 012.826-1.17h18.569c5.522 0 10-4.477 10-10v-45.57c0-5.524-4.478-10-10-10z" fill="#F6F4F2" stroke="#C5CDCF" stroke-width="4"/><g filter="url(#filter2_d)"><path fill-rule="evenodd" clip-rule="evenodd" d="M114.231 38.459c1.357-2.778 4.029-4.696 6.268-5.16 1.099-.228 1.888-.07 2.377.24.435.275.942.867 1.101 2.239.189 1.624-.054 3.984-1.038 7.643-.48 1.782.99 3.591 2.922 3.32 6.813-.959 12.784 4.593 12.322 11.458l-.215 3.205c-.193 2.867-1.26 5.314-2.859 6.943-1.566 1.596-3.711 2.487-6.348 2.212-5.473-.57-12.905-1.46-22.17-2.834V48.243c3.768-2.911 6.033-6.495 7.64-9.784zm-8.888 5.613c2.425-2.207 4.037-4.796 5.294-7.369 1.875-3.838 5.544-6.594 9.049-7.32 1.774-.369 3.708-.252 5.331.777 1.676 1.062 2.668 2.871 2.934 5.156.23 1.983-.008 4.36-.691 7.316 8.483-.082 15.501 7.1 14.914 15.836l-.215 3.204c-.247 3.668-1.628 7.065-3.995 9.477-2.4 2.445-5.74 3.792-9.617 3.388-5.413-.563-12.704-1.436-21.756-2.769v.54a5 5 0 01-5 5h-8.295a5 5 0 01-5-5v-24.93a5 5 0 015-5h8.295c1.494 0 2.836.655 3.752 1.694zm-13.047 3.306a1 1 0 011-1h8.295a1 1 0 011 1v24.93a1 1 0 01-1 1h-8.295a1 1 0 01-1-1v-24.93z" fill="#3B5999"/></g><defs><filter id="filter0_d" x="13.592" y="86.01" width="79.502" height="47.752" filterUnits="userSpaceOnUse" color-interpolation-filters="sRGB"><feFlood flood-opacity="0" result="BackgroundImageFix"/><feColorMatrix in="SourceAlpha" values="0 0 0 0 0 0 0 0 0 0 0 0 0 0 0 0 0 0 127 0"/><feOffset dx="3" dy="3"/><feGaussianBlur stdDeviation="2.5"/><feColorMatrix values="0 0 0 0 0.441667 0 0 0 0 0.182187 0 0 0 0 0.438297 0 0 0 0.4 0"/><feBlend in2="BackgroundImageFix" result="effect1_dropShadow"/><feBlend in="SourceGraphic" in2="effect1_dropShadow" result="shape"/></filter><filter id="filter1_d" x="13.137" y="12.771" width="58.562" height="54.719" filterUnits="userSpaceOnUse" color-interpolation-filters="sRGB"><feFlood flood-opacity="0" result="BackgroundImageFix"/><feColorMatrix in="SourceAlpha" values="0 0 0 0 0 0 0 0 0 0 0 0 0 0 0 0 0 0 127 0"/><feOffset dx="3" dy="3"/><feGaussianBlur stdDeviation="2.5"/><feColorMatrix values="0 0 0 0 0.7125 0 0 0 0 0.175156 0 0 0 0 0.564386 0 0 0 0.4 0"/><feBlend in2="BackgroundImageFix" result="effect1_dropShadow"/><feBlend in="SourceGraphic" in2="effect1_dropShadow" result="shape"/></filter><filter id="filter2_d" x="86.296" y="27.192" width="63.912" height="58.116" filterUnits="userSpaceOnUse" color-interpolation-filters="sRGB"><feFlood flood-opacity="0" result="BackgroundImageFix"/><feColorMatrix in="SourceAlpha" values="0 0 0 0 0 0 0 0 0 0 0 0 0 0 0 0 0 0 127 0"/><feOffset dx="3" dy="3"/><feGaussianBlur stdDeviation="2.5"/><feColorMatrix values="0 0 0 0 0.231373 0 0 0 0 0.34902 0 0 0 0 0.6 0 0 0 0.4 0"/><feBlend in2="BackgroundImageFix" result="effect1_dropShadow"/><feBlend in="SourceGraphic" in2="effect1_dropShadow" result="shape"/></filter></defs></svg>