<svg width="331" height="199" viewBox="0 0 331 199" fill="none" xmlns="http://www.w3.org/2000/svg"><path d="M37 196.625L94 146l28.5 9.5 36-47.5 33 25 46-49.5L267 102l62-51" stroke="#C5CDCF" stroke-width="4"/><path opacity=".4" d="M2 10C2 4.477 6.477 0 12 0h5c5.523 0 10 4.477 10 10v25c0 5.523-4.477 10-10 10h-5C6.477 45 2 40.523 2 35V10z" fill="#C5CDCF"/><g filter="url(#filter0_d)"><path d="M2 24.5c0-4.198 0-6.297.768-7.92a8 8 0 013.812-3.812C8.204 12 10.302 12 14.5 12s6.297 0 7.92.768a8 8 0 013.812 3.812C27 18.203 27 20.302 27 24.5v8c0 4.198 0 6.297-.768 7.92a8 8 0 01-3.812 3.812C20.797 45 18.698 45 14.5 45s-6.296 0-7.92-.768a8 8 0 01-3.812-3.812C2 38.797 2 36.698 2 32.5v-8z" fill="#7C267B"/></g><path opacity=".4" d="M33 10c0-5.523 4.477-10 10-10h5c5.523 0 10 4.477 10 10v25c0 5.523-4.477 10-10 10h-5c-5.523 0-10-4.477-10-10V10z" fill="#C5CDCF"/><g filter="url(#filter1_d)"><path d="M33 33.5c0-3.259 0-4.888.468-6.195a8 8 0 014.837-4.837C39.612 22 41.24 22 44.5 22h2c3.259 0 4.888 0 6.195.468a8 8 0 014.837 4.837C58 28.612 58 30.24 58 33.5c0 3.259 0 4.888-.468 6.195a8 8 0 01-4.837 4.837C51.388 45 49.76 45 46.5 45h-2c-3.259 0-4.888 0-6.195-.468a8 8 0 01-4.837-4.837C33 38.388 33 36.76 33 33.5z" fill="#DC40B1"/></g><path d="M198 21a8 8 0 018-8h62a8 8 0 018 8v35a8 8 0 01-8 8h-14.166a12.003 12.003 0 00-8.401 3.431l-7.033 6.895a2 2 0 01-2.8 0l-7.033-6.895A12.003 12.003 0 00220.166 64H206a8 8 0 01-8-8V21z" fill="#F6F4F2" stroke="#C5CDCF" stroke-width="4"/><path fill-rule="evenodd" clip-rule="evenodd" d="M237 56c9.389 0 17-7.611 17-17s-7.611-17-17-17-17 7.611-17 17 7.611 17 17 17zm0-9a8 8 0 100-16 8 8 0 000 16z" fill="#7C267B"/><g filter="url(#filter2_d)"><path d="M254 39a17.002 17.002 0 00-21.473-16.401 16.999 16.999 0 007.624 33.106l-1.668-8.844A8 8 0 11245 39h9z" fill="#DC40B1"/></g><path d="M54 85a8 8 0 018-8h62a8 8 0 018 8v35a8 8 0 01-8 8h-14.166a12.003 12.003 0 00-8.401 3.431l-7.033 6.895a1.999 1.999 0 01-2.8 0l-7.033-6.895A12 12 0 0076.166 128H62a8 8 0 01-8-8V85z" fill="#F6F4F2" stroke="#C5CDCF" stroke-width="4"/><path fill-rule="evenodd" clip-rule="evenodd" d="M93 119c9.389 0 17-7.611 17-17s-7.611-17-17-17-17 7.611-17 17 7.611 17 17 17zm0-9a8 8 0 100-16 8 8 0 000 16z" fill="#7C267B"/><g filter="url(#filter3_d)"><path d="M93 85a17 17 0 00-12.02 29.021l6.362-6.363A8.002 8.002 0 0193 93.998V85z" fill="#DC40B1"/></g><g filter="url(#filter4_d)"><circle cx="93.5" cy="147.5" r="5.5" fill="#DC40B1"/></g><g filter="url(#filter5_d)"><circle cx="237.5" cy="84.5" r="5.5" fill="#DC40B1"/></g><defs><filter id="filter0_d" x="0" y="10" width="35" height="43" filterUnits="userSpaceOnUse" color-interpolation-filters="sRGB"><feFlood flood-opacity="0" result="BackgroundImageFix"/><feColorMatrix in="SourceAlpha" values="0 0 0 0 0 0 0 0 0 0 0 0 0 0 0 0 0 0 127 0"/><feOffset dx="3" dy="3"/><feGaussianBlur stdDeviation="2.5"/><feColorMatrix values="0 0 0 0 0.441667 0 0 0 0 0.182187 0 0 0 0 0.438297 0 0 0 0.4 0"/><feBlend in2="BackgroundImageFix" result="effect1_dropShadow"/><feBlend in="SourceGraphic" in2="effect1_dropShadow" result="shape"/></filter><filter id="filter1_d" x="31" y="20" width="35" height="33" filterUnits="userSpaceOnUse" color-interpolation-filters="sRGB"><feFlood flood-opacity="0" result="BackgroundImageFix"/><feColorMatrix in="SourceAlpha" values="0 0 0 0 0 0 0 0 0 0 0 0 0 0 0 0 0 0 127 0"/><feOffset dx="3" dy="3"/><feGaussianBlur stdDeviation="2.5"/><feColorMatrix values="0 0 0 0 0.7125 0 0 0 0 0.175156 0 0 0 0 0.564386 0 0 0 0.4 0"/><feBlend in2="BackgroundImageFix" result="effect1_dropShadow"/><feBlend in="SourceGraphic" in2="effect1_dropShadow" result="shape"/></filter><filter id="filter2_d" x="218" y="20" width="44" height="44" filterUnits="userSpaceOnUse" color-interpolation-filters="sRGB"><feFlood flood-opacity="0" result="BackgroundImageFix"/><feColorMatrix in="SourceAlpha" values="0 0 0 0 0 0 0 0 0 0 0 0 0 0 0 0 0 0 127 0"/><feOffset dx="3" dy="3"/><feGaussianBlur stdDeviation="2.5"/><feColorMatrix values="0 0 0 0 0.7125 0 0 0 0 0.175156 0 0 0 0 0.564386 0 0 0 0.4 0"/><feBlend in2="BackgroundImageFix" result="effect1_dropShadow"/><feBlend in="SourceGraphic" in2="effect1_dropShadow" result="shape"/></filter><filter id="filter3_d" x="74" y="83" width="27" height="39.021" filterUnits="userSpaceOnUse" color-interpolation-filters="sRGB"><feFlood flood-opacity="0" result="BackgroundImageFix"/><feColorMatrix in="SourceAlpha" values="0 0 0 0 0 0 0 0 0 0 0 0 0 0 0 0 0 0 127 0"/><feOffset dx="3" dy="3"/><feGaussianBlur stdDeviation="2.5"/><feColorMatrix values="0 0 0 0 0.7125 0 0 0 0 0.175156 0 0 0 0 0.564386 0 0 0 0.4 0"/><feBlend in2="BackgroundImageFix" result="effect1_dropShadow"/><feBlend in="SourceGraphic" in2="effect1_dropShadow" result="shape"/></filter><filter id="filter4_d" x="86" y="140" width="21" height="21" filterUnits="userSpaceOnUse" color-interpolation-filters="sRGB"><feFlood flood-opacity="0" result="BackgroundImageFix"/><feColorMatrix in="SourceAlpha" values="0 0 0 0 0 0 0 0 0 0 0 0 0 0 0 0 0 0 127 0"/><feOffset dx="3" dy="3"/><feGaussianBlur stdDeviation="2.5"/><feColorMatrix values="0 0 0 0 0.7125 0 0 0 0 0.175156 0 0 0 0 0.564386 0 0 0 0.4 0"/><feBlend in2="BackgroundImageFix" result="effect1_dropShadow"/><feBlend in="SourceGraphic" in2="effect1_dropShadow" result="shape"/></filter><filter id="filter5_d" x="230" y="77" width="21" height="21" filterUnits="userSpaceOnUse" color-interpolation-filters="sRGB"><feFlood flood-opacity="0" result="BackgroundImageFix"/><feColorMatrix in="SourceAlpha" values="0 0 0 0 0 0 0 0 0 0 0 0 0 0 0 0 0 0 127 0"/><feOffset dx="3" dy="3"/><feGaussianBlur stdDeviation="2.5"/><feColorMatrix values="0 0 0 0 0.7125 0 0 0 0 0.175156 0 0 0 0 0.564386 0 0 0 0.4 0"/><feBlend in2="BackgroundImageFix" result="effect1_dropShadow"/><feBlend in="SourceGraphic" in2="effect1_dropShadow" result="shape"/></filter></defs></svg>