<svg width="293" height="189" viewBox="0 0 293 189" fill="none" xmlns="http://www.w3.org/2000/svg"><path d="M2 10a8 8 0 018-8h65a8 8 0 018 8v95a8 8 0 01-8 8H10a8 8 0 01-8-8V10z" stroke="#C5CDCF" stroke-width="4"/><g filter="url(#filter0_d)"><rect x="18" y="17" width="48" height="48" rx="8" fill="#7C267B"/></g><path d="M18 81h48M18 95h48" stroke="#C5CDCF" stroke-width="4" stroke-linecap="round"/><path d="M2 135a8 8 0 018-8h65a8 8 0 018 8v61a8 8 0 01-8 8H10a8 8 0 01-8-8v-61z" stroke="#C5CDCF" stroke-width="4"/><g filter="url(#filter1_d)"><rect x="18" y="167" width="48" height="15" rx="7.5" fill="#DC40B1"/></g><path d="M18 143h48m-48 14h48" stroke="#C5CDCF" stroke-width="4" stroke-linecap="round"/><path d="M210 10a8 8 0 018-8h65a8 8 0 018 8v99a8 8 0 01-8 8h-65a8 8 0 01-8-8V10z" stroke="#C5CDCF" stroke-width="4"/><path d="M255 51h24m-24 14h24" stroke="#C5CDCF" stroke-width="4" stroke-linecap="round"/><rect x="224" y="48" width="20" height="20" rx="8" stroke="#C5CDCF" stroke-width="4"/><g filter="url(#filter2_d)"><rect x="223" y="14" width="56" height="24" rx="8" fill="#7C267B"/></g><rect x="225" y="80" width="52" height="14" rx="7" stroke="#C5CDCF" stroke-width="4"/><rect x="225" y="48" width="20" height="20" rx="8" stroke="#C5CDCF" stroke-width="4"/><path d="M106 10a8 8 0 018-8h65a8 8 0 018 8v140a8 8 0 01-8 8h-65a8 8 0 01-8-8V10z" stroke="#C5CDCF" stroke-width="4"/><rect x="126" y="20" width="42" height="42" rx="8" stroke="#C5CDCF" stroke-width="4"/><path d="M122 78h48m-48 14h48" stroke="#C5CDCF" stroke-width="4" stroke-linecap="round"/><g filter="url(#filter3_d)"><rect x="122" y="105" width="48" height="14" rx="7" fill="#DC40B1"/></g><rect x="124" y="130" width="44" height="10" rx="5" stroke="#C5CDCF" stroke-width="4"/><path d="M41.646 140.354a.5.5 0 00.708 0l3.181-3.182a.501.501 0 00-.707-.708L42 139.293l-2.828-2.829a.5.5 0 00-.707.708l3.181 3.182zM41.5 65v75h1V65h-1zm207.854 3.854a.5.5 0 000-.708l-3.182-3.181a.501.501 0 00-.708.707l2.829 2.828-2.829 2.828a.5.5 0 00.708.707l3.182-3.181zM170 112h11v-1h-11v1zm31.5-20.5v-3h-1v3h1zM221 69h28v-1h-28v1zm-19.5 19.5c0-10.77 8.73-19.5 19.5-19.5v-1c-11.322 0-20.5 9.178-20.5 20.5h1zM181 112c11.322 0 20.5-9.178 20.5-20.5h-1c0 10.77-8.73 19.5-19.5 19.5v1zM66.146 28.646a.5.5 0 000 .708l3.182 3.181a.5.5 0 10.707-.707L67.207 29l2.829-2.828a.5.5 0 10-.708-.707l-3.182 3.181zM122.5 134h-10v1h10v-1zM93 114.5V49h-1v65.5h1zm-20.5-86h-6v1h6v-1zM93 49c0-11.322-9.178-20.5-20.5-20.5v1C83.27 29.5 92 38.23 92 49h1zm19.5 85c-10.77 0-19.5-8.73-19.5-19.5h-1c0 11.322 9.178 20.5 20.5 20.5v-1z" fill="#E4002B"/><defs><filter id="filter0_d" x="16" y="15" width="58" height="58" filterUnits="userSpaceOnUse" color-interpolation-filters="sRGB"><feFlood flood-opacity="0" result="BackgroundImageFix"/><feColorMatrix in="SourceAlpha" values="0 0 0 0 0 0 0 0 0 0 0 0 0 0 0 0 0 0 127 0"/><feOffset dx="3" dy="3"/><feGaussianBlur stdDeviation="2.5"/><feColorMatrix values="0 0 0 0 0.441667 0 0 0 0 0.182187 0 0 0 0 0.438297 0 0 0 0.4 0"/><feBlend in2="BackgroundImageFix" result="effect1_dropShadow"/><feBlend in="SourceGraphic" in2="effect1_dropShadow" result="shape"/></filter><filter id="filter1_d" x="16" y="165" width="58" height="25" filterUnits="userSpaceOnUse" color-interpolation-filters="sRGB"><feFlood flood-opacity="0" result="BackgroundImageFix"/><feColorMatrix in="SourceAlpha" values="0 0 0 0 0 0 0 0 0 0 0 0 0 0 0 0 0 0 127 0"/><feOffset dx="3" dy="3"/><feGaussianBlur stdDeviation="2.5"/><feColorMatrix values="0 0 0 0 0.7125 0 0 0 0 0.175156 0 0 0 0 0.564386 0 0 0 0.4 0"/><feBlend in2="BackgroundImageFix" result="effect1_dropShadow"/><feBlend in="SourceGraphic" in2="effect1_dropShadow" result="shape"/></filter><filter id="filter2_d" x="221" y="12" width="66" height="34" filterUnits="userSpaceOnUse" color-interpolation-filters="sRGB"><feFlood flood-opacity="0" result="BackgroundImageFix"/><feColorMatrix in="SourceAlpha" values="0 0 0 0 0 0 0 0 0 0 0 0 0 0 0 0 0 0 127 0"/><feOffset dx="3" dy="3"/><feGaussianBlur stdDeviation="2.5"/><feColorMatrix values="0 0 0 0 0.441667 0 0 0 0 0.182187 0 0 0 0 0.438297 0 0 0 0.4 0"/><feBlend in2="BackgroundImageFix" result="effect1_dropShadow"/><feBlend in="SourceGraphic" in2="effect1_dropShadow" result="shape"/></filter><filter id="filter3_d" x="120" y="103" width="58" height="24" filterUnits="userSpaceOnUse" color-interpolation-filters="sRGB"><feFlood flood-opacity="0" result="BackgroundImageFix"/><feColorMatrix in="SourceAlpha" values="0 0 0 0 0 0 0 0 0 0 0 0 0 0 0 0 0 0 127 0"/><feOffset dx="3" dy="3"/><feGaussianBlur stdDeviation="2.5"/><feColorMatrix values="0 0 0 0 0.7125 0 0 0 0 0.175156 0 0 0 0 0.564386 0 0 0 0.4 0"/><feBlend in2="BackgroundImageFix" result="effect1_dropShadow"/><feBlend in="SourceGraphic" in2="effect1_dropShadow" result="shape"/></filter></defs></svg>