<svg width="357" height="158" viewBox="0 0 357 158" fill="none" xmlns="http://www.w3.org/2000/svg"><path fill-rule="evenodd" clip-rule="evenodd" d="M179 17.008V0h-2v17.008H49a6 6 0 00-6 6v15.82h2v-15.82a4 4 0 014-4h128V39.5h2V19.007h129.5a4 4 0 014 4v15.821h2v-15.82a6 6 0 00-6-6H179z" fill="#7C267B"/><rect x="2" y="58" width="84" height="98" rx="8" stroke="#C5CDCF" stroke-width="4"/><rect x="16.5" y="66.5" width="35" height="35" rx="3.5" stroke="#C5CDCF" stroke-width="3"/><rect x="1.5" y="-1.5" width="17" height="17" rx="3.5" transform="matrix(1 0 0 -1 59 84)" stroke="#7C267B" stroke-width="3"/><rect x="1.5" y="-1.5" width="17" height="17" rx="3.5" transform="matrix(1 0 0 -1 59 108)" stroke="#C5CDCF" stroke-width="3"/><rect x="1.5" y="-1.5" width="17" height="17" rx="3.5" transform="matrix(1 0 0 -1 59 132)" stroke="#C5CDCF" stroke-width="3"/><path d="M21 109h32m-32 11h32" stroke="#7C267B" stroke-width="3" stroke-linecap="round"/><path d="M25 132h28" stroke="#C5CDCF" stroke-width="3" stroke-linecap="round"/><circle cx="44.227" cy="57" r="18" fill="#F6F4F2" stroke="#C5CDCF" stroke-width="4"/><path d="M47.1 62.263h-5.955l-1.132 3.396H36.4l6.137-16.485h3.147l6.171 16.485h-3.612L47.1 62.263zm-5.038-2.752h4.122l-2.072-6.17-2.05 6.17z" fill="#7C267B"/><rect x="271" y="58" width="84" height="98" rx="8" stroke="#C5CDCF" stroke-width="4"/><rect x="285.5" y="66.5" width="35" height="35" rx="3.5" stroke="#C5CDCF" stroke-width="3"/><rect x="1.5" y="-1.5" width="17" height="17" rx="3.5" transform="matrix(1 0 0 -1 328 84)" stroke="#7C267B" stroke-width="3"/><rect x="1.5" y="-1.5" width="17" height="17" rx="3.5" transform="matrix(1 0 0 -1 328 108)" stroke="#C5CDCF" stroke-width="3"/><rect x="1.5" y="-1.5" width="17" height="17" rx="3.5" transform="matrix(1 0 0 -1 328 132)" stroke="#C5CDCF" stroke-width="3"/><g filter="url(#filter0_d)"><path d="M290 109h32" stroke="#DC40B1" stroke-width="3" stroke-linecap="round"/></g><g filter="url(#filter1_d)"><path d="M290 120h32" stroke="#DC40B1" stroke-width="3" stroke-linecap="round"/></g><path d="M294 132h28" stroke="#C5CDCF" stroke-width="3" stroke-linecap="round"/><circle cx="313.786" cy="57" r="18" fill="#F6F4F2" stroke="#C5CDCF" stroke-width="4"/><path d="M321.162 60.27c-.137 1.891-.838 3.38-2.101 4.467-1.256 1.087-2.914 1.63-4.975 1.63-2.254 0-4.029-.756-5.325-2.27-1.287-1.52-1.931-3.606-1.931-6.254v-1.075c0-1.69.297-3.18.893-4.467.596-1.288 1.445-2.274 2.548-2.958 1.111-.692 2.398-1.039 3.863-1.039 2.029 0 3.663.544 4.903 1.63 1.239 1.087 1.956 2.613 2.149 4.577h-3.623c-.088-1.135-.406-1.957-.953-2.464-.54-.515-1.365-.772-2.476-.772-1.207 0-2.113.434-2.716 1.304-.596.861-.902 2.201-.918 4.02v1.329c0 1.9.286 3.288.857 4.165.58.877 1.49 1.316 2.729 1.316 1.119 0 1.952-.253 2.499-.76.556-.516.874-1.309.954-2.38h3.623z" fill="#7C267B"/><path d="M196 80h25m-25 7h20m-20 7h25m-25 7h20" stroke="#C5CDCF" stroke-width="3" stroke-linecap="round"/><rect x="-1.5" y="1.5" width="40" height="76" rx="3.5" transform="matrix(-1 0 0 1 227 66)" stroke="#C5CDCF" stroke-width="3"/><rect x="-2" y="2" width="136" height="98" rx="8" transform="matrix(-1 0 0 1 243 56)" stroke="#C5CDCF" stroke-width="4"/><rect x="123.5" y="67.5" width="51" height="28" rx="3.5" stroke="#C5CDCF" stroke-width="3"/><path d="M129 144h38" stroke="#C5CDCF" stroke-width="3" stroke-linecap="round"/><path d="M133 138h38" stroke="#7C267B" stroke-width="3" stroke-linecap="round"/><path d="M125.513 131.832h38" stroke="#DC40B1" stroke-width="3" stroke-linecap="round"/><circle cx="177.843" cy="57" r="18" fill="#F6F4F2" stroke="#C5CDCF" stroke-width="4"/><path d="M172 64.455V49h5.342c1.851 0 3.254.36 4.211 1.083.957.714 1.435 1.765 1.435 3.152 0 .757-.192 1.426-.576 2.006-.384.574-.918.995-1.603 1.264.782.198 1.397.597 1.844 1.199.454.602.681 1.337.681 2.208 0 1.486-.468 2.611-1.404 3.375-.936.765-2.27 1.154-4.001 1.168H172zm3.142-6.73v4.172h2.692c.741 0 1.317-.177 1.729-.531.419-.36.628-.856.628-1.486 0-1.415-.723-2.134-2.168-2.155h-2.881zm0-2.25h2.326c1.585-.028 2.378-.669 2.378-1.921 0-.7-.203-1.203-.608-1.508-.398-.311-1.03-.467-1.896-.467h-2.2v3.896z" fill="#DC40B1"/><g filter="url(#filter2_d)"><circle cx="139" cy="114" r="8" fill="#7C267B"/><circle cx="139" cy="114" r="6.5" stroke="#7C267B" stroke-width="3"/></g><path d="M164.22 122a8.112 8.112 0 003.526-3.156 8.639 8.639 0 001.252-4.67 8.607 8.607 0 00-1.443-4.61 8.068 8.068 0 00-3.653-2.995 7.686 7.686 0 00-4.631-.372 7.918 7.918 0 00-4.048 2.378 8.485 8.485 0 00-2.101 4.325 8.7 8.7 0 00.554 4.815l6.496-1.164L164.22 122z" fill="#C5CDCF"/><defs><filter id="filter0_d" x="286.5" y="105.5" width="45" height="13" filterUnits="userSpaceOnUse" color-interpolation-filters="sRGB"><feFlood flood-opacity="0" result="BackgroundImageFix"/><feColorMatrix in="SourceAlpha" values="0 0 0 0 0 0 0 0 0 0 0 0 0 0 0 0 0 0 127 0"/><feOffset dx="3" dy="3"/><feGaussianBlur stdDeviation="2.5"/><feColorMatrix values="0 0 0 0 0.7125 0 0 0 0 0.175156 0 0 0 0 0.564386 0 0 0 0.4 0"/><feBlend in2="BackgroundImageFix" result="effect1_dropShadow"/><feBlend in="SourceGraphic" in2="effect1_dropShadow" result="shape"/></filter><filter id="filter1_d" x="286.5" y="116.5" width="45" height="13" filterUnits="userSpaceOnUse" color-interpolation-filters="sRGB"><feFlood flood-opacity="0" result="BackgroundImageFix"/><feColorMatrix in="SourceAlpha" values="0 0 0 0 0 0 0 0 0 0 0 0 0 0 0 0 0 0 127 0"/><feOffset dx="3" dy="3"/><feGaussianBlur stdDeviation="2.5"/><feColorMatrix values="0 0 0 0 0.7125 0 0 0 0 0.175156 0 0 0 0 0.564386 0 0 0 0.4 0"/><feBlend in2="BackgroundImageFix" result="effect1_dropShadow"/><feBlend in="SourceGraphic" in2="effect1_dropShadow" result="shape"/></filter><filter id="filter2_d" x="129" y="104" width="26" height="26" filterUnits="userSpaceOnUse" color-interpolation-filters="sRGB"><feFlood flood-opacity="0" result="BackgroundImageFix"/><feColorMatrix in="SourceAlpha" values="0 0 0 0 0 0 0 0 0 0 0 0 0 0 0 0 0 0 127 0"/><feOffset dx="3" dy="3"/><feGaussianBlur stdDeviation="2.5"/><feColorMatrix values="0 0 0 0 0.441667 0 0 0 0 0.182187 0 0 0 0 0.438297 0 0 0 0.4 0"/><feBlend in2="BackgroundImageFix" result="effect1_dropShadow"/><feBlend in="SourceGraphic" in2="effect1_dropShadow" result="shape"/></filter></defs></svg>