<svg width="371" height="218" viewBox="0 0 371 218" fill="none" xmlns="http://www.w3.org/2000/svg"><mask id="a" maskUnits="userSpaceOnUse" x="0" y="0" width="371" height="218"><rect width="371" height="218" rx="8" fill="#F6F4F2"/></mask><g mask="url(#a)"><path d="M112 35a8 8 0 018-8h130a8 8 0 018 8v146a8 8 0 01-8 8H120a8 8 0 01-8-8V35z" stroke="#C5CDCF" stroke-width="4"/><path opacity=".4" d="M278 96c0-5.523 4.477-10 10-10h5c5.523 0 10 4.477 10 10v85c0 5.523-4.477 10-10 10h-5c-5.523 0-10-4.477-10-10V96z" fill="#C5CDCF"/><g filter="url(#filter0_d)"><path d="M278 109.5c0-4.198 0-6.296.768-7.92a7.995 7.995 0 013.812-3.812C284.204 97 286.302 97 290.5 97s6.296 0 7.92.768a7.995 7.995 0 013.812 3.812c.768 1.624.768 3.722.768 7.92v69c0 4.198 0 6.296-.768 7.92a7.992 7.992 0 01-3.812 3.812c-1.624.768-3.722.768-7.92.768s-6.296 0-7.92-.768a7.992 7.992 0 01-3.812-3.812c-.768-1.624-.768-3.722-.768-7.92v-69z" fill="#7C267B"/></g><path opacity=".4" d="M33 96c0-5.523 4.477-10 10-10h5c5.523 0 10 4.477 10 10v85c0 5.523-4.477 10-10 10h-5c-5.523 0-10-4.477-10-10V96z" fill="#C5CDCF"/><g filter="url(#filter1_d)"><path d="M33 127.5c0-4.198 0-6.296.768-7.92a7.996 7.996 0 013.812-3.812C39.203 115 41.302 115 45.5 115s6.297 0 7.92.768a7.996 7.996 0 013.812 3.812c.768 1.624.768 3.722.768 7.92v51c0 4.198 0 6.296-.768 7.92a7.996 7.996 0 01-3.812 3.812c-1.623.768-3.722.768-7.92.768s-6.297 0-7.92-.768a7.996 7.996 0 01-3.812-3.812C33 184.796 33 182.698 33 178.5v-51z" fill="#7C267B"/></g><path opacity=".4" d="M312 96c0-5.523 4.477-10 10-10h5c5.523 0 10 4.477 10 10v85c0 5.523-4.477 10-10 10h-5c-5.523 0-10-4.477-10-10V96z" fill="#C5CDCF"/><g filter="url(#filter2_d)"><path d="M312 122.5c0-4.198 0-6.296.768-7.92a7.992 7.992 0 013.812-3.812c1.624-.768 3.722-.768 7.92-.768s6.296 0 7.92.768a7.992 7.992 0 013.812 3.812c.768 1.624.768 3.722.768 7.92v56c0 4.198 0 6.296-.768 7.92a7.992 7.992 0 01-3.812 3.812c-1.624.768-3.722.768-7.92.768s-6.296 0-7.92-.768a7.992 7.992 0 01-3.812-3.812c-.768-1.624-.768-3.722-.768-7.92v-56z" fill="#DC40B1"/></g><path opacity=".4" d="M67 96c0-5.523 4.477-10 10-10h5c5.523 0 10 4.477 10 10v85c0 5.523-4.477 10-10 10h-5c-5.523 0-10-4.477-10-10V96z" fill="#C5CDCF"/><g filter="url(#filter3_d)"><path d="M67 150.5c0-4.198 0-6.296.768-7.92a7.996 7.996 0 013.812-3.812C73.204 138 75.302 138 79.5 138s6.296 0 7.92.768a7.996 7.996 0 013.812 3.812c.768 1.624.768 3.722.768 7.92v28c0 4.198 0 6.296-.768 7.92a7.996 7.996 0 01-3.812 3.812c-1.624.768-3.722.768-7.92.768s-6.296 0-7.92-.768a7.996 7.996 0 01-3.812-3.812C67 184.796 67 182.698 67 178.5v-28z" fill="#DC40B1"/></g><path d="M126 43h83m-83 106h58m-15-36h16m9-37h52M126 53h83m-83 106h58m-15-36h16m9-37h52" stroke="#C5CDCF" stroke-width="4" stroke-linecap="round"/><path d="M184 39h28a5 5 0 015 5v17a5 5 0 01-5 5h-28V39z" fill="#C5CDCF"/><rect x="222" y="41" width="24" height="23" rx="3" stroke="#C5CDCF" stroke-width="4"/><rect x="226" y="98" width="20" height="18" rx="3" stroke="#C5CDCF" stroke-width="4"/><rect x="226" y="127" width="20" height="18" rx="3" stroke="#C5CDCF" stroke-width="4"/><rect x="226" y="156" width="20" height="18" rx="3" stroke="#C5CDCF" stroke-width="4"/><rect x="195" y="98" width="20" height="18" rx="3" stroke="#C5CDCF" stroke-width="4"/><rect x="195" y="127" width="20" height="18" rx="3" stroke="#C5CDCF" stroke-width="4"/><rect x="195" y="156" width="20" height="18" rx="3" stroke="#C5CDCF" stroke-width="4"/><rect x="127" y="111" width="32" height="23" rx="3" stroke="#C5CDCF" stroke-width="4"/><path d="M127 68a3 3 0 013-3h55v33h-55a3 3 0 01-3-3V68z" stroke="#C5CDCF" stroke-width="4"/><path d="M185 13v191" stroke="#C5CDCF" stroke-width="4" stroke-linecap="round"/></g><defs><filter id="filter0_d" x="276" y="95" width="35" height="104" filterUnits="userSpaceOnUse" color-interpolation-filters="sRGB"><feFlood flood-opacity="0" result="BackgroundImageFix"/><feColorMatrix in="SourceAlpha" values="0 0 0 0 0 0 0 0 0 0 0 0 0 0 0 0 0 0 127 0"/><feOffset dx="3" dy="3"/><feGaussianBlur stdDeviation="2.5"/><feColorMatrix values="0 0 0 0 0.441667 0 0 0 0 0.182187 0 0 0 0 0.438297 0 0 0 0.4 0"/><feBlend in2="BackgroundImageFix" result="effect1_dropShadow"/><feBlend in="SourceGraphic" in2="effect1_dropShadow" result="shape"/></filter><filter id="filter1_d" x="31" y="113" width="35" height="86" filterUnits="userSpaceOnUse" color-interpolation-filters="sRGB"><feFlood flood-opacity="0" result="BackgroundImageFix"/><feColorMatrix in="SourceAlpha" values="0 0 0 0 0 0 0 0 0 0 0 0 0 0 0 0 0 0 127 0"/><feOffset dx="3" dy="3"/><feGaussianBlur stdDeviation="2.5"/><feColorMatrix values="0 0 0 0 0.441667 0 0 0 0 0.182187 0 0 0 0 0.438297 0 0 0 0.4 0"/><feBlend in2="BackgroundImageFix" result="effect1_dropShadow"/><feBlend in="SourceGraphic" in2="effect1_dropShadow" result="shape"/></filter><filter id="filter2_d" x="310" y="108" width="35" height="91" filterUnits="userSpaceOnUse" color-interpolation-filters="sRGB"><feFlood flood-opacity="0" result="BackgroundImageFix"/><feColorMatrix in="SourceAlpha" values="0 0 0 0 0 0 0 0 0 0 0 0 0 0 0 0 0 0 127 0"/><feOffset dx="3" dy="3"/><feGaussianBlur stdDeviation="2.5"/><feColorMatrix values="0 0 0 0 0.7125 0 0 0 0 0.175156 0 0 0 0 0.564386 0 0 0 0.4 0"/><feBlend in2="BackgroundImageFix" result="effect1_dropShadow"/><feBlend in="SourceGraphic" in2="effect1_dropShadow" result="shape"/></filter><filter id="filter3_d" x="65" y="136" width="35" height="63" filterUnits="userSpaceOnUse" color-interpolation-filters="sRGB"><feFlood flood-opacity="0" result="BackgroundImageFix"/><feColorMatrix in="SourceAlpha" values="0 0 0 0 0 0 0 0 0 0 0 0 0 0 0 0 0 0 127 0"/><feOffset dx="3" dy="3"/><feGaussianBlur stdDeviation="2.5"/><feColorMatrix values="0 0 0 0 0.7125 0 0 0 0 0.175156 0 0 0 0 0.564386 0 0 0 0.4 0"/><feBlend in2="BackgroundImageFix" result="effect1_dropShadow"/><feBlend in="SourceGraphic" in2="effect1_dropShadow" result="shape"/></filter></defs></svg>