<svg width="196" height="132" viewBox="0 0 196 132" fill="none" xmlns="http://www.w3.org/2000/svg"><path fill-rule="evenodd" clip-rule="evenodd" d="M174 4H10a6 6 0 00-6 6v4.267h176V10a6 6 0 00-6-6zM4 112V18.267h176v63.806h4V10c0-5.523-4.477-10-10-10H10C4.477 0 0 4.477 0 10v102c0 5.523 4.477 10 10 10h128.185v-4H10a6 6 0 01-6-6z" fill="#C5CDCF"/><path fill="#C5CDCF" d="M11.136 5.939h6v6h-6zm13.364 0h6v6h-6zm13.363 0h6v6h-6z"/><path d="M15.962 28.583h65.704M16.333 40.09h46.772m14.849 0h-9.652" stroke="#C5CDCF" stroke-width="4" stroke-linecap="round"/><g filter="url(#filter0_d)"><path fill-rule="evenodd" clip-rule="evenodd" d="M84.342 64.485l-6.099-6.077 2.824-2.834 8.941 8.911h4.825a3 3 0 013 3V75.8a3 3 0 01-3 3H93.67L82.886 99.45a4 4 0 01-3.546 2.149H58.92a4 4 0 01-3.605-2.265L45.434 78.8h-1.602a3 3 0 01-3-3v-8.314a3 3 0 013-3h6.17l8.941-8.91 2.824 2.833-6.098 6.077h28.672zM44.832 74.8v-6.314h49V74.8h-49zm10.31 14.946l3.779 7.853h8.636v-7.853H55.14zm-1.926-4h14.34V78.8H49.875l3.342 6.946zm18.34 4v7.853h7.785l4.101-7.853H71.557zm13.975-4H71.557V78.8h17.601l-3.627 6.946z" fill="#7C267B"/></g><path fill="#C5CDCF" d="M17.075 51.227h8v8h-8zm0 15.591h8v8h-8zm0 15.59h8v8h-8zm0 15.591h8v8h-8z"/><path fill-rule="evenodd" clip-rule="evenodd" d="M195.987 90.014a4 4 0 00-4-4h-6.217a4 4 0 00-4 4v1.69l-13.71 4.064.052.177a5.973 5.973 0 00-3.301-.99h-12.798a6 6 0 00-6 6.001v10.248a6.002 6.002 0 005.116 5.936 4.048 4.048 0 00-.008.247v10.599a4 4 0 004 4h5.122a4 4 0 004-4v-10.599c0-.061-.001-.122-.004-.183h.572a5.97 5.97 0 003.627-1.22l-.246.758 13.578 4.414v1.355a4 4 0 004 4h6.217a4 4 0 004-4V90.014zM181.77 116.95V95.876l-11.22 3.325c.17.555.261 1.144.261 1.755v10.248c0 .726-.129 1.421-.365 2.064l11.324 3.682zm4-26.936h6.217v32.497h-6.217V90.014zm-33.757 8.942a2 2 0 00-2 2v10.248a2 2 0 002 2h12.798a2 2 0 002-2v-10.248a2 2 0 00-2-2h-12.798zm3.108 29.03h5.122v-10.599h-5.122v10.599z" fill="#DC40B1"/><rect x="132.553" y="28.714" width="31.005" height="26" rx="2" stroke="#C5CDCF" stroke-width="4"/><path d="M130.553 63.561h35.005" stroke="#C5CDCF" stroke-width="4" stroke-linecap="round"/><defs><filter id="filter0_d" x="38.833" y="53.575" width="67" height="56.024" filterUnits="userSpaceOnUse" color-interpolation-filters="sRGB"><feFlood flood-opacity="0" result="BackgroundImageFix"/><feColorMatrix in="SourceAlpha" values="0 0 0 0 0 0 0 0 0 0 0 0 0 0 0 0 0 0 127 0"/><feOffset dx="3" dy="3"/><feGaussianBlur stdDeviation="2.5"/><feColorMatrix values="0 0 0 0 0.441667 0 0 0 0 0.182187 0 0 0 0 0.438297 0 0 0 0.4 0"/><feBlend in2="BackgroundImageFix" result="effect1_dropShadow"/><feBlend in="SourceGraphic" in2="effect1_dropShadow" result="shape"/></filter></defs></svg>