<svg width="340" height="164" viewBox="0 0 340 164" fill="none" xmlns="http://www.w3.org/2000/svg"><path d="M137 12a8 8 0 018-8h185a8 8 0 018 8v120a8 8 0 01-8 8H145a8 8 0 01-8-8V12z" stroke="#C5CDCF" stroke-width="4"/><rect x="151" y="81" width="68" height="34" rx="3" stroke="#C5CDCF" stroke-width="4"/><path d="M236 82h83m-83 10h83m-83 10h83m-83 10h83" stroke="#C5CDCF" stroke-width="4" stroke-linecap="round"/><rect x="149" y="16" width="116" height="53" rx="5" fill="#C5CDCF"/><rect x="273" y="18" width="51" height="49" rx="3" stroke="#C5CDCF" stroke-width="4"/><rect x="2" y="2" width="114" height="206" rx="8" stroke="#C5CDCF" stroke-width="4"/><path d="M17 92h83m-83 10h83m-83 10h83m-83 10h83m-83 10h83" stroke="#C5CDCF" stroke-width="4" stroke-linecap="round"/><rect x="14" y="25" width="59" height="27" rx="5" fill="#C5CDCF"/><rect x="16" y="58" width="86" height="23" rx="3" stroke="#C5CDCF" stroke-width="4"/><rect x="16" y="151" width="86" height="38" rx="3" stroke="#C5CDCF" stroke-width="4"/><rect x="78" y="27" width="24" height="23" rx="3" stroke="#C5CDCF" stroke-width="4"/><path d="M37 0h46l-3.815 10.682A5 5 0 0174.476 14H45.524a5 5 0 01-4.71-3.318L37 0z" fill="#C5CDCF"/></svg>