<svg width="163" height="39" viewBox="0 0 163 39" fill="none" xmlns="http://www.w3.org/2000/svg"><path d="M94.604 3.486a.4.4 0 01.761 0l1.323 4.07a.4.4 0 00.38.276h4.28a.4.4 0 01.235.724l-3.462 2.515a.4.4 0 00-.146.448l1.323 4.07a.4.4 0 01-.616.447L95.22 13.52a.4.4 0 00-.47 0l-3.463 2.516a.4.4 0 01-.615-.447l1.322-4.07a.4.4 0 00-.145-.448l-3.462-2.515a.4.4 0 01.235-.724h4.28a.4.4 0 00.38-.276l1.322-4.07zm15.008 0a.4.4 0 01.761 0l1.323 4.07a.4.4 0 00.38.276h4.28a.4.4 0 01.235.724l-3.463 2.515a.401.401 0 00-.145.448l1.323 4.07a.4.4 0 01-.616.447l-3.462-2.516a.4.4 0 00-.47 0l-3.463 2.516a.4.4 0 01-.615-.447l1.322-4.07a.4.4 0 00-.145-.448l-3.462-2.515a.4.4 0 01.235-.724h4.279a.4.4 0 00.381-.276l1.322-4.07zm15.008 0a.4.4 0 01.761 0l1.322 4.07a.401.401 0 00.381.276h4.279a.4.4 0 01.236.724l-3.463 2.515a.4.4 0 00-.145.448l1.322 4.07a.4.4 0 01-.615.447l-3.462-2.516a.401.401 0 00-.471 0l-3.462 2.516a.4.4 0 01-.615-.447l1.322-4.07a.4.4 0 00-.145-.448l-3.463-2.515a.4.4 0 01.236-.724h4.279a.401.401 0 00.381-.276l1.322-4.07zm15.008 0a.4.4 0 01.761 0l1.322 4.07a.4.4 0 00.381.276h4.279a.4.4 0 01.235.724l-3.462 2.515a.4.4 0 00-.145.448l1.322 4.07a.4.4 0 01-.615.447l-3.463-2.516a.4.4 0 00-.47 0l-3.462 2.516a.4.4 0 01-.616-.447l1.323-4.07a.401.401 0 00-.145-.448l-3.463-2.515a.4.4 0 01.235-.724h4.28a.4.4 0 00.38-.276l1.323-4.07zm15.008 0a.4.4 0 01.761 0l1.322 4.07a.4.4 0 00.38.276h4.28a.4.4 0 01.235.724l-3.462 2.515a.4.4 0 00-.145.448l1.322 4.07a.4.4 0 01-.615.447l-3.463-2.516a.4.4 0 00-.47 0l-3.462 2.516a.4.4 0 01-.616-.447l1.323-4.07a.4.4 0 00-.146-.448l-3.462-2.515a.4.4 0 01.235-.724h4.28a.4.4 0 00.38-.276l1.323-4.07z" fill="#EF4335"/><path d="M20.07 18h3.374v20.83H20.07V18zm15.113 14.23c0 3.226-2.64 3.52-3.52 3.52-2.054 0-2.348-1.907-2.348-2.934v-8.068h-3.374v7.921c0 1.907.587 3.668 1.76 4.694 1.027 1.027 2.348 1.467 3.961 1.467 1.174 0 2.64-.293 3.52-1.173v1.173h3.375V24.748h-3.374v7.481zm9.97-12.617h-3.374v5.134h-2.494v3.227h2.494V38.83h3.374V27.975h2.494v-3.228h-2.494v-5.134zM58.21 34.576c-.734.587-1.761 1.027-2.788 1.027-2.347 0-3.96-1.76-3.96-4.108 0-2.347 1.613-3.96 3.96-3.96 1.027 0 2.054.293 2.787 1.026l.44.44 2.347-2.2-.586-.44a7.521 7.521 0 00-4.988-1.907c-4.107 0-7.188 3.08-7.188 7.188 0 4.107 3.08 7.188 7.188 7.188a7.521 7.521 0 004.988-1.907l.586-.44-2.347-2.347-.44.44zm14.668-8.655c-1.027-1.027-2.054-1.467-3.668-1.467-1.173 0-2.347.294-3.227 1.174V18H62.61v20.83h3.374v-7.775c0-3.227 2.2-3.52 3.08-3.52 2.054 0 1.908 1.907 1.908 2.934v8.214h3.374v-8.068c0-1.907-.44-3.667-1.467-4.694z" fill="#fff"/><path d="M55.277 33.99a2.347 2.347 0 100-4.695 2.347 2.347 0 000 4.694z" fill="#EF4335"/><path d="M15.376 33.696c-1.174 1.174-2.934 1.907-4.841 1.907-3.667 0-6.308-2.934-6.308-6.894s2.64-6.895 6.454-6.895c1.76 0 3.521.734 4.841 2.054l.44.44 2.2-2.2-.44-.44c-1.906-1.907-4.4-2.934-7.04-2.934C5.106 18.587 1 22.988 1 28.709c0 5.72 4.107 10.121 9.535 10.121 2.64 0 5.28-1.026 7.041-2.933l.44-.44-2.2-2.2-.44.44zM2.64 12H1.164V3.6c.176 0 .628-.004 1.356-.012l1.2-.012c2.032 0 3.048.864 3.048 2.592 0 .648-.164 1.176-.492 1.584-.328.4-.704.672-1.128.816L7.776 12H5.988L3.672 8.856H2.64V12zm1.008-7.044c-.144 0-.48.008-1.008.024v2.496h.96c.456 0 .836-.112 1.14-.336.312-.232.468-.552.468-.96 0-.816-.52-1.224-1.56-1.224zM8.702 12V3.6h4.86v1.38h-3.384v2.088h3.024v1.38h-3.024v2.172h3.504V12h-4.98zm13.275-8.4l-3.36 8.424H17.5L14.045 3.6h1.572l2.496 6.228L20.5 3.6h1.476zm.963 8.4V3.6h1.476V12H22.94zm3.62 0V3.6h4.86v1.38h-3.384v2.088h3.024v1.38h-3.024v2.172h3.504V12h-4.98zm13.274-8.4l-3.36 8.424h-1.116L31.902 3.6h1.572l2.496 6.228L38.358 3.6h1.476zm.783 8.4V3.6h4.86v1.38h-3.384v2.088h3.024v1.38h-3.024v2.172h3.504V12h-4.98zm6.543 0V3.6h.156c.16 0 .532-.004 1.116-.012.584-.016.984-.024 1.2-.024.816 0 1.532.112 2.148.336.616.216 1.108.52 1.476.912.368.392.64.832.816 1.32.184.48.276 1.008.276 1.584 0 1.248-.42 2.28-1.26 3.096-.832.808-2.016 1.212-3.552 1.212-.144 0-.48-.004-1.008-.012-.52-.008-.92-.012-1.2-.012h-.168zm2.448-7.056c-.312 0-.636.012-.972.036v5.64c.272.016.588.024.948.024 1 0 1.784-.264 2.352-.792.568-.528.852-1.24.852-2.136 0-.856-.284-1.532-.852-2.028-.56-.496-1.336-.744-2.328-.744zM57.253 7.8c0-1.232.408-2.26 1.224-3.084.824-.832 1.872-1.248 3.144-1.248 1.264 0 2.308.4 3.132 1.2.832.8 1.248 1.844 1.248 3.132 0 1.256-.416 2.292-1.248 3.108-.832.816-1.876 1.224-3.132 1.224-1.264 0-2.308-.4-3.132-1.2-.824-.8-1.236-1.844-1.236-3.132zm1.56 0c0 .84.268 1.544.804 2.112.544.56 1.212.84 2.004.84.864 0 1.548-.28 2.052-.84.512-.56.768-1.264.768-2.112 0-.864-.272-1.572-.816-2.124-.536-.552-1.204-.828-2.004-.828-.808 0-1.48.276-2.016.828-.528.552-.792 1.26-.792 2.124zM74.525 12H73.35l-4.62-5.82V12h-1.38V3.6h1.176l4.62 5.844V3.6h1.38V12z" fill="#fff"/></svg>