<svg width="200" height="55" viewBox="0 0 200 55" fill="none" xmlns="http://www.w3.org/2000/svg"><path d="M96.187 16.554c0-.316-.211-.422-.422-.422h-6.642c-.317 0-.528.211-.633.422L78.263 42.175c-.211.317.105.738.421.738h6.01c.316 0 .527-.21.633-.527l4.955-14.972.317 14.972c0 .316.21.527.421.527h5.694c.316 0 .738-.316.738-.738l-1.265-25.621zM71.515 32.58h-6.01c-.317 0-.422-.316-.317-.632l.844-5.167c0-.316.316-.632.527-.632h6.115v-1.16c0-.316-.105-.527-.21-.844-.106-.316-.211-.421-.317-.738-.105-.21-.316-.421-.316-.632-.211-.211-.317-.317-.527-.422-.211-.106-.422-.316-.739-.316-.316-.106-.527-.106-.843-.106h-.843c-.317 0-.528.106-.844.106-.316.105-.422.105-.738.21-.316.106-.422.211-.633.317h-.105c-.316.105-.527-.106-.527-.422l-.211-4.534c-.106-.316.105-.632.316-.738.211-.105.422-.21.738-.316.317-.106.527-.211.844-.316.316-.106.632-.211.843-.317a2.53 2.53 0 01.95-.21c.316-.106.737-.106 1.053-.212.317 0 .739-.105 1.16-.105.633 0 1.266.105 1.793.21.527.106 1.054.317 1.476.423.422.21.843.421 1.265.738.317.316.738.632 1.055.949.316.316.527.738.843 1.16.316.421.422.843.633 1.37.21.422.316.844.316 1.476.105.422.21.95.316 1.476.106.528.106 1.055.106 1.477v1.476c0 .527-.106 1.054-.211 1.581-.106.527-.211.95-.316 1.476v.106c-.211 1.054-.422 2.003-.739 3.058-.316.949-.632 1.897-1.054 2.636a16.777 16.777 0 01-1.37 2.32c-.528.737-.95 1.37-1.582 1.897a12.137 12.137 0 01-1.793 1.476c-.632.422-1.265.844-2.003 1.055-.738.316-1.37.527-2.003.632-.633.527-1.265.527-2.003.527-.317 0-.739 0-1.055-.105-.316 0-.738-.106-.949-.106-.316-.105-.633-.105-.843-.21a5.127 5.127 0 01-.738-.317l-.633-.316c-.21-.105-.316-.211-.527-.316-.211-.106-.317-.422-.211-.739l1.898-4.85v-.105c.21-.316.422-.422.738-.316.21.105.316.21.527.316.21.105.316.105.633.21.21.106.421.106.738.106h.738c.316 0 .843 0 1.054-.105.317-.106.633-.211.844-.317.316-.21.527-.316.843-.421.317-.211.422-.317.633-.633.21-.316.316-.422.527-.738.21-.316.316-.527.422-.843.21-.317.316-.633.316-.844l.105.316zm38.801-6.642h5.061c.316 0 .421.316.316.632l-.844 4.85c0 .317-.316.633-.527.633h-5.061l-.843 4.64h5.693c.317 0 .422.316.317.632l-.844 5.061c0 .316-.316.633-.527.633h-12.125c-.317 0-.422-.317-.317-.633l4.534-25.621c0-.317.316-.633.527-.633h11.809c.317 0 .422.316.317.633l-.844 5.06c0 .317-.316.633-.527.633h-5.377l-.738 3.48zm28.468 16.975h-5.167c-.316 0-.421-.316-.421-.632l.948-8.014a7.306 7.306 0 00.211-1.687l.106-.632.105-.738-.105.316-.422 1.16-.105.316c-.211.422-.317.844-.422 1.16l-3.163 7.802c-.106.317-.317.422-.527.422h-4.323c-.317 0-.422-.21-.422-.422l-.316-7.802v-3.269l-.317 1.16-.316 1.266-.316 1.054-1.898 8.013c-.106.316-.317.527-.527.527h-5.061c-.317-.105-.422-.316-.317-.738l6.537-25.621c.106-.316.317-.527.528-.527h6.115c.316 0 .422.21.422.421l.211 8.225c0 1.476.105 2.636.105 3.69v2.425c.211-.422.316-.949.527-1.476.316-.738.527-1.476.844-2.32.316-.843.527-1.581.843-2.32l3.163-8.224c.106-.316.317-.421.527-.421h6.116c.316 0 .422.316.422.632l-2.953 25.622c-.105.316-.316.632-.632.632zm13.707-16.975h5.061c.316 0 .421.316.316.632l-.844 4.85c0 .317-.316.633-.527.633h-5.061l-.843 4.64h5.693c.317 0 .422.316.317.632l-.844 5.061c0 .316-.316.633-.527.633h-12.125c-.317 0-.422-.317-.317-.633l4.534-25.621c0-.317.317-.633.527-.633h11.809c.317 0 .422.316.317.633l-.844 5.06c0 .317-.316.633-.527.633h-5.377l-.738 3.48zm6.748 16.237l4.533-25.621c0-.316.317-.633.528-.633h5.904c.316 0 .422.317.316.633l-1.476 9.49h3.269L174 16.658c0-.316.316-.632.527-.632h5.905c.316 0 .421.316.316.632l-4.534 25.622c0 .316-.316.632-.527.632h-5.905c-.316 0-.421-.316-.316-.632l1.687-9.49h-3.268l-1.687 9.595c0 .316-.317.633-.528.633h-5.904c-.316-.211-.527-.422-.527-.844zm30.366.738H183.7c-.316 0-.422-.316-.316-.632l3.479-19.506h-3.901c-.316 0-.422-.317-.316-.633l.949-5.483c0-.316.316-.632.527-.632h14.761c.317 0 .422.316.317.632l-.949 5.483c0 .316-.317.633-.528.633h-4.006l-3.48 19.506c-.105.316-.421.632-.632.632z" fill="#141414"/><path fill-rule="evenodd" clip-rule="evenodd" d="M24.7 54.617C9.623 54.617-1.343 42.49.133 27.308 1.715 12.125 15 0 30.183 0h29.522l-4.85 27.308C52.114 42.281 39.778 54.617 24.7 54.617zm6.643-37.852l-.844 3.163c2.215 0 4.745 1.16 6.221 2.53 1.793 2.004 2.32 4.745 1.793 8.119-1.477 8.54-8.435 12.442-16.238 12.23h-6.01l1.37-7.485h6.538c2.741 0 4.534-1.477 4.956-4.007.632-4.323-3.48-4.85-6.643-4.428-.21 0-.422 0-.527-.211-.106-.106-.211-.317-.106-.527l3.163-16.976c.106-.316.528-.633.844-.633h17.608l-1.476 8.225h-10.65z" fill="#141414"/></svg>