<svg width="221" height="41" viewBox="0 0 221 41" fill="none" xmlns="http://www.w3.org/2000/svg"><path d="M5.8 19.848L0 40.255h9.514l5.8-20.407H5.802zm41.172 13.279h-4.474v-13.29h4.474v13.29zm2.676-20.414h-7.15v-10.1h-9.15v37.632h16.305c3.869 0 6.47-2.563 6.47-6.38V19.094c0-3.817-2.601-6.38-6.47-6.38h-.005zM72.69 33.834h-3.982v-5.098h3.976v5.098h.005zm2.675-21.12H61.259v6.416h11.425v3.97h-6.657c-3.9 0-6.528 2.542-6.528 6.321v4.476c0 3.812 2.622 6.38 6.528 6.38H81.84V19.092c0-3.817-2.601-6.38-6.47-6.38h-.005zm39.946-.001H85.933V40.25h9.15V19.837h4.255V40.25h9.096V19.837h4.255V40.25h9.15V19.093c0-3.817-2.622-6.38-6.528-6.38zm23.282 11.52h-3.976v-5.098h3.976v5.098zm2.676-11.514h-9.343c-3.869 0-6.47 2.562-6.47 6.379v14.789c0 3.811 2.601 6.379 6.47 6.379h15.373v-6.432h-12.692v-4.987h13.185v-9.755c0-3.816-2.622-6.379-6.529-6.379l.006.006zm19.387-6.279h-9.151v27.442c0 3.811 2.601 6.379 6.47 6.379h6.956v-6.645h-4.281V19.842h4.281v-7.128h-4.281V6.44h.006zm20.211 10.85v22.965h9.15V19.842h5.383v-7.129h-9.947c-2.793 0-4.602 1.797-4.602 4.572l.016.005zm26.45-4.577h-9.097v21.163c0 2.382.841 6.38 6.47 6.38H221V12.718h-9.15v20.413h-4.527V12.719l-.006-.006zm-37.736 27.542h6.63V33.67h-6.63v6.586zM19.43.822H9.916L21.12 40.255h9.514L19.43.822z" fill="#141414"/><path d="M22.32 36.306H7.646v-6.964h14.672v6.964z" fill="#141414"/></svg>