<svg width="241" height="73" viewBox="0 0 241 73" fill="none" xmlns="http://www.w3.org/2000/svg"><path fill-rule="evenodd" clip-rule="evenodd" d="M49.74 10.61H39.644c-.792-.015-2.058.798-3.657 2.554L24.302 29.599c-5.296-.189-7.766.167-11.447 1.516-6.758 3.27-10.718 6.932-12.64 14.2-1.67 11.01 6.678 13.245 14.945 5.506 2.943-2.953 4.414-4.76 6.836-8.138l5.326-8.696 6.2 1.915-3.1 12.685c-.715 4.867 1.67 8.138 7.632 7.898 4.28-1.123 6.568-2.618 10.334-7.579 3.03-5.248 4.497-8.35 5.962-14.68h.875L52.6 44.36c-2.038 6.905-2.45 9.823-.238 11.169 2.305 1.117 4.849.878 7.71-1.197.382-1.416.572-2.228.796-3.75-2.385 1.995-3.816 1.835-3.26-.638l3.737-14.999c.5-1.706.981-2.492 2.384-3.43.405-.343.3-.924-.238-1.117H49.74c-.613.084-.735.305-.398 1.117 1.512.942 1.702 1.843 1.51 3.75-1.325 4.938-2.433 7.477-4.849 11.727-4.054 4.309-8.029 5.984-6.916-.319l1.59-6.701c1.89 1.503 2.83 2.483 4.372 4.388l.954-3.75c-1.362-1.638-2.361-2.59-4.292-4.308l4.53-18.43c1.032-3.442 1.846-4.89 3.976-6.063.225-.812.19-1.131-.477-1.197zM9.038 46.194c3.093.242 6.014-3.722 11.608-12.046-10.098-.32-15.583 11.01-11.608 12.046zM38.672 15.11L29.15 30.477l5.326 1.755c.647-2.463 1.31-4.839 1.928-7.055 1.109-3.976 2.075-7.437 2.548-9.961.032-.171-.188-.255-.28-.107z" fill="#141414"/><path d="M64.445 35.822l.874-3.43c5.724-3.75 10.573-3.272 9.301 2.153-1.986 7.904-3.805 14.544-3.895 16.515-.135 1.643 1.192 1.277 3.418-.479l-1.033 3.91c-5.167 3.75-10.652 1.675-8.665-4.867l3.18-12.605c.477-2.154-.636-2.873-3.18-1.197zm9.572-8.923c-2.037.909-4.222.44-4.881-1.048-.66-1.488.458-3.43 2.494-4.34 2.037-.909 4.223-.44 4.882 1.048.66 1.488-.458 3.43-2.495 4.34z" fill="#141414"/><path fill-rule="evenodd" clip-rule="evenodd" d="M91.154 29.838l-3.418 2.713-.556 2.952c3.02-1.915 5.071-.24 4.054 5.584-.683 3.912-1.35 5.96-3.26 9.255-3.1 4.149-5.802 3.111-4.769-3.67 1.204-6.526 2.147-10.419 4.213-17.711 6.598-1.436 12.56-5.266 14.468-12.925 1.51-7.739-5.723-8.776-11.844-3.67-4.613 4.976-6.848 8.614-9.858 17.472-3.181 11.663-4.199 17.232-2.702 22.977 2.146 4.07 8.108 5.453 13.752.639 6.36-5.426 10.334-23.935-.08-23.616zm-2.781-3.27c3.47-9.179 5.534-13 8.65-13.745.715-.17 1.51.083 1.83.748 1.71 3.543-3.527 11.979-10.48 12.996zm27.504 5.903c.238-1.476.551-2.013 1.669-2.074h5.962c.875 0 .557.957 0 1.516-.801.44-1.114.827-1.589 1.595l-4.293 16.914c-.239 2.074 1.272 2.074 3.418.16l-.795 3.829c-4.372 2.952-8.903 2.553-9.142-1.995-4.372 5.346-10.175 4.867-11.685 0-1.192-5.273-.08-8.696 2.385-14.68 3.497-7.34 11.129-9.653 14.07-5.265zm-3.777 13.61c.649-1.7 1.204-3.442 1.748-5.178 1.256-4.006 1.078-7.075-.769-7.124-1.636-.603-4.369 2.758-6.105 7.506-1.736 4.749-1.817 9.086-.181 9.688 1.759.881 3.911-1.23 5.307-4.892z" fill="#141414"/><path d="M133.762 30.476h-6.439c-.722.2-.686.478-.238 1.117.671.5.841.865.795 1.676-3.017 13.134-4.795 19.804-7.949 31.833-1.124 3.605-2.097 4.865-4.293 5.824-.635.319-.794.957 0 .957h13.037c.716 0 .478-.32 0-.718-2.832-1.737-2.054-4.32-1.59-8.297l.123-.524c2.913-12.401 4.58-19.501 6.554-23.65 3.022-4.707 5.327-4.468 5.803-.878-.34 4.691-.996 7.125-2.861 11.09-2.225 3.032-3.497 1.755-2.703-1.037l-2.544.718c-2.702 8.457 5.089 9.972 10.096 3.51 3.841-5.975 4.532-9.653 4.61-16.275-.794-6.941-7.948-7.66-12.003-1.676.659-2.339.915-3.526-.398-3.67zm23.531-.159h-6.359c-1.113 0-.716 1.037-.318 1.197.664.52.981.848.715 1.994-1.239 6.057-2.055 9.082-3.498 14.52-.522 2.059-.638 3.212-.238 5.266 2.067 5.026 9.539 2.952 11.924-.32 3.816-5.743 3.577-11.168.318-13.96 4.531-3.67 7.393-4.07 6.359.318-1.907 7.5-3.241 11.568-2.861 14.281.795 3.271 5.485 3.35 8.982.798l.795-3.83c-3.02 2.474-3.815 1.596-3.02-1.196l3.815-15.717c.477-2.633-1.589-4.149-6.28-2.793-5.035 2.638-7.198 4.382-10.095 7.899 2.25 3.17 1.712 8.166-.412 12.417-.386.772-.928 1.474-1.659 1.93-1.66 1.037-2.385.234-1.983-1.981l4.61-18.59c.286-1.511.132-2.03-.795-2.233z" fill="#141414"/><path d="M195.768 30.397c-2.7-.126-3.865.094-4.213 1.915-1.476-1.813-2.851-2.168-6.041-1.915-9.778 2.313-14.627 24.014-7.075 25.45-12.481 12.366-18.602 11.488-17.727 4.308-8.824 1.516-3.736 21.382 11.765 8.058 5.332-5.304 7.775-8.042 12.321-13.802l.716-3.35c-5.803 4.387-5.088-9.096.636-15.957 2.384-2.473 5.008-.718 4.372 1.596l-3.26 13.004c-.528 1.945-.537 2.975 0 4.707 1.352 2.393 5.009 2.553 8.904 0l.636-3.83c-2.703 2.154-3.657 1.596-3.339-.239 1.778-7.14 3.657-15.876 4.611-17.233 0-.957 3.895-2.712 1.033-2.712h-3.339z" fill="#141414"/><path d="M182.413 6.542c10.016 9.973 19.397 15.159 21.225 13.563.716 1.596-3.657.558-3.657 1.596-2.018-.088-2.357.494-1.748 2.473 3.306-3.167 10.385 6.36 12.321 6.701-2.337-1.73-3.416-2.718-3.418-4.627 1.811-.27 2.081-1.663 1.749-5.505C222.34 17.14 229.632 11.887 241 0c-.874 4.627-2.191 7.444-6.2 10.61l.02-.005c2.435-.69 3.806-1.077 6.18-2.388-1.643 3.814-3.386 5.443-8.347 7.18 2.292.143 3.528.084 5.485-.717-6.2 13.483-21.145 10.371-25.597 13.802 3.407 2.542 5.765 3.484 7.155 5.425-5.644-1.117-9.062-1.442-15.342.24l1.589-5.426c-.795-3.43-16.375-.638-20.27-12.206.997.425 1.604.577 2.861.558-2.626-1.822-3.962-2.856-4.61-4.866.836.644 1.331.985 2.623 1.276-2.113-2.445-2.99-4.036-4.134-6.94z" fill="#141414"/><path d="M203.521 21.646c-.83.175-1.328.202-2.167.136a.05.05 0 00-.037.014c-.242.24-.218.395.141.676a.049.049 0 00.064-.004c.257-.256.414-.258.666.083a.049.049 0 00.052.019c.752-.206 1.028-.426 1.33-.85a.048.048 0 00-.049-.074zM10.07 68.325c.24 0 .45-.03.63-.093a1.32 1.32 0 00.463-.258c.127-.113.222-.247.285-.402.063-.155.095-.326.095-.512 0-.386-.122-.688-.367-.905-.242-.218-.61-.326-1.106-.326h-.993v2.496h.993zm0-3.144c.392 0 .732.046 1.02.136.29.087.53.213.72.376.191.164.332.362.424.593.095.231.143.49.143.774 0 .282-.05.54-.151.774-.101.234-.25.436-.445.605-.193.17-.434.302-.722.398-.285.093-.614.14-.989.14h-.993v2.268h-.834V65.18h1.827z" fill="#141414"/><path fill-rule="evenodd" clip-rule="evenodd" d="M16.463 67.118v4.292a.048.048 0 01-.048.048h-.48a.048.048 0 01-.042-.027l-.124-.25a.05.05 0 00-.066-.02c-3.992 1.906-3.602-5.939.003-3.876.022.013.052.008.066-.013l.12-.18a.048.048 0 01.04-.022h.483c.027 0 .048.021.048.048zm-.668.936v2.367h-.049c-3.1 2.154-2.891-4.601.049-2.367zm41.845-.936v4.292a.048.048 0 01-.047.048h-.48a.048.048 0 01-.042-.027l-.125-.25c-.011-.023-.042-.032-.066-.02-3.991 1.906-3.601-5.939.004-3.876.022.013.052.008.066-.013l.12-.18a.048.048 0 01.04-.022h.483c.026 0 .047.021.047.048zm-.667.936v2.313l-.049.054c-3.1 2.154-2.892-4.601.049-2.367z" fill="#141414"/><path d="M18.139 66.847v.73c.239-.533.889-.73 1.472-.73v.568c-.375 0-.913.048-1.137.294-.224.24-.335.604-.335 1.09v2.446h-.516v-4.398h.516zm41.177 0v.73c.24-.533.89-.73 1.472-.73v.568c-.374 0-.912.048-1.136.294-.224.24-.336.604-.336 1.09v2.446h-.515v-4.398h.515zm17.489 0v.73c.24-.533.889-.73 1.472-.73v.568c-.375 0-.913.048-1.136.294-.224.24-.336.604-.336 1.09v2.446h-.516v-4.398h.516zm15.104 0v.73c.239-.533.889-.73 1.472-.73v.568c-.375 0-.913.048-1.137.294-.224.24-.335.604-.335 1.09v2.446h-.516v-4.398h.516zm-69.437.184v.554h-1.156v2.622c0 .236.046.406.138.51.091.098.229.15.412.156.183 0 .411-.006.686-.018v.502c-.612.093-1.067.05-1.364-.13a1.172 1.172 0 01-.544-1.02v-2.622h-.636v-.554h.636v-1.038h.672v1.038h1.156zm14.945 0v.554h-.997v2.622c0 .236.046.406.137.51.092.098.23.15.412.156.183 0 .412-.006.687-.018v.502c-.612.093-1.067.05-1.365-.13a1.172 1.172 0 01-.543-1.02v-2.622h-.716v-.554h.716v-1.038h.672v1.038h.997zm-10.012-.254c.305 0 .579.055.823.164.244.11.453.265.625.466.173.201.305.445.395.732.094.284.14.602.14.954 0 .355-.046.674-.14.958-.09.284-.222.527-.395.728a1.769 1.769 0 01-.625.466 2.04 2.04 0 01-.823.16 2.08 2.08 0 01-.831-.16 1.769 1.769 0 01-.625-.466 2.112 2.112 0 01-.4-.728 3.148 3.148 0 01-.135-.958c0-.352.045-.67.135-.954.094-.287.227-.53.4-.732a1.76 1.76 0 01.625-.466 2.03 2.03 0 01.831-.164zm0 4.01c.412 0 .719-.147.922-.443.203-.299.304-.714.304-1.247 0-.535-.101-.952-.304-1.25-.203-.3-.51-.449-.922-.449-.208 0-.39.039-.547.115a1.052 1.052 0 00-.387.333 1.583 1.583 0 00-.23.537c-.05.21-.074.448-.074.714 0 .533.101.948.304 1.247.206.296.517.444.934.444zm68.047-4.01c.304 0 .578.055.823.164.244.11.452.265.625.466s.304.445.395.732c.093.284.14.602.14.954 0 .355-.047.674-.14.958-.09.284-.222.527-.395.728a1.769 1.769 0 01-.626.466 2.04 2.04 0 01-.822.16 2.08 2.08 0 01-.832-.16 1.769 1.769 0 01-.625-.466 2.114 2.114 0 01-.4-.728 3.148 3.148 0 01-.135-.958c0-.352.045-.67.136-.954a2.11 2.11 0 01.399-.732c.173-.201.381-.356.625-.466a2.03 2.03 0 01.832-.164zm0 4.01c.411 0 .718-.147.921-.443.203-.299.305-.714.305-1.247 0-.535-.102-.952-.305-1.25-.203-.3-.51-.449-.921-.449-.209 0-.391.039-.548.115a1.052 1.052 0 00-.386.333 1.587 1.587 0 00-.23.537c-.05.21-.075.448-.075.714 0 .533.102.948.305 1.247.205.296.517.444.934.444zm-64.922.617v-3.83h-.665v-.637h.665v-.3c0-.464.048-.883.29-1.136.24-.254.654-.32 1.095-.32.166 0 .33.023.494.068v.564c-.122-.024-.29 0-.428 0-.233 0-.413.07-.54.212-.127.138-.191.338-.191.6v.312h1.08v.638h-1.08v3.83h-.72zm8.398-4.05c.352-.429.81-.643 1.375-.643.982 0 1.478.55 1.486 1.648v3.045h-.795v-3.05c-.002-.331-.08-.577-.232-.736-.149-.159-.382-.239-.7-.239-.258 0-.484.069-.679.205a1.391 1.391 0 00-.455.537v3.283h-.795v-6.542h.795v2.492z" fill="#141414"/><path fill-rule="evenodd" clip-rule="evenodd" d="M46.003 70.766v.479c-2.468.361-3.18-.08-3.339-2.075-.271-1.905 1.309-2.51 2.466-2.195.998.271 1.301 1.82.396 2.322-.423.234-1.087.319-2.147.272.16 1.038.636 1.516 2.624 1.197zm-.675-2.17c.695-1.434-2.38-1.74-1.949.495h.979c.39 0 .8-.143.97-.495zm30.039 2.17v.479c-2.468.361-3.18-.08-3.34-2.075-.27-1.905 1.31-2.51 2.466-2.195.998.271 1.302 1.82.396 2.322-.422.234-1.087.319-2.146.272.159 1.038.636 1.516 2.624 1.197zm-.675-2.17c.695-1.434-2.38-1.74-1.95.495h.98c.39 0 .799-.143.97-.495z" fill="#141414"/><path d="M62.22 65.261h-.637v5.346c.16.558.39.848 1.51.718v-.4c-.658-.041-.792-.192-.874-.558v-5.106zm2.691 6.143c-.299 0-.586-.051-.862-.155a1.802 1.802 0 01-.637-.407l.224-.484c.154.15.348.274.582.372.233.092.476.138.728.138.337 0 .585-.063.743-.19.164-.133.246-.317.246-.554 0-.167-.045-.297-.133-.389a.787.787 0 00-.337-.216 3.566 3.566 0 00-.54-.147 5.842 5.842 0 01-.721-.208 1.118 1.118 0 01-.47-.372c-.126-.173-.19-.412-.19-.718 0-.38.13-.692.386-.934.257-.242.615-.363 1.072-.363.239 0 .477.04.715.121.239.075.243.071.397.198v.559c-.303-.26-.69-.35-1.112-.35-.317 0-.558.069-.721.207a.688.688 0 00-.239.545.62.62 0 00.133.415.877.877 0 00.344.234 5.4 5.4 0 00.56.147c.295.07.531.138.709.207.177.07.329.188.455.355.126.167.19.398.19.692 0 .398-.136.715-.407.951-.266.231-.638.346-1.115.346zm4.269-4.429c.357 0 .677.09.96.268.282.18.502.429.66.75.162.32.243.692.243 1.113 0 .42-.081.794-.243 1.12a1.802 1.802 0 01-.66.75 1.755 1.755 0 01-.96.269 1.503 1.503 0 01-1.314-.71v.663h-.639V65.34h.667v2.305c.149-.221.334-.387.556-.498.223-.115.466-.173.73-.173zm-.055 3.607c.236 0 .447-.06.632-.182.19-.126.338-.3.445-.52a1.73 1.73 0 00.167-.774c0-.29-.056-.545-.167-.766a1.211 1.211 0 00-.445-.52 1.13 1.13 0 00-.632-.182c-.232 0-.443.06-.633.181s-.338.295-.445.521c-.106.221-.104.461-.104.75 0 .29-.002.563.104.79.107.22.255.394.445.52.19.121.401.182.633.182zm31.947-1.337v-2.308h.655v4.354h-.655v-.627c-.262.494-.668.74-1.221.74-.442 0-.797-.16-1.063-.479-.266-.325-.4-.763-.4-1.315v-2.673h.656v2.63c0 .348.083.621.25.818.165.198.394.296.685.296.337 0 .603-.118.799-.357.196-.243.294-.603.294-1.08zm3.752-2.308c.463 0 .858.206 1.184.62.326.413.489.913.489 1.498 0 .591-.163 1.093-.489 1.507-.322.408-.717.612-1.184.612-.546 0-.963-.266-1.249-.797v2.304h-.576v-5.64h.576v.693c.286-.531.703-.797 1.249-.797zm-.073 3.56c.331 0 .609-.136.834-.41a1.62 1.62 0 00.337-1.032c0-.408-.113-.749-.337-1.023-.225-.279-.503-.419-.834-.419-.335 0-.614.14-.839.42-.225.273-.337.614-.337 1.022 0 .403.112.747.337 1.032.225.274.504.41.839.41zm-51.301-.223l.263.581c-.18.218-.425.39-.734.518-.309.127-.634.19-.974.19-.814 0-1.476-.296-1.986-.89-.505-.6-.757-1.393-.757-2.38 0-.939.242-1.717.726-2.335.49-.624 1.147-.936 1.971-.936.69 0 1.24.206 1.646.618l-.301.581c-.36-.315-.807-.472-1.337-.472-.588 0-1.07.236-1.445.709-.377.472-.565 1.084-.565 1.835 0 .757.194 1.372.58 1.844.392.467.902.7 1.53.7.53 0 .992-.188 1.384-.563zm35.935-1.981h.577v2.251a2.214 2.214 0 01-.858.63c-.356.153-.7.23-1.032.23-.784 0-1.463-.218-1.925-.797-.462-.58-.636-1.425-.636-2.394 0-.91.228-1.67.685-2.278.457-.609 1.056-.913 1.797-.913.644 0 1.173.2 1.587.603l-.267.602c-.298-.33-.714-.496-1.248-.496-.568 0-1.027.228-1.378.683-.351.455-.527 1.055-.527 1.8 0 .75.033 1.379.384 1.834.356.45.965.807 1.543.807.24 0 .483-.05.728-.15.246-.107.436-.24.57-.4v-2.012z" fill="#141414"/><path d="M89.382 69.33h.572v1.915h-.572V69.33zm-10.708-.214c0-.67.15-1.2.45-1.59.302-.393.71-.59 1.227-.59.591 0 1.04.233 1.348.697l.024-.617h.449v4.192c0 .551-.156.988-.47 1.31-.312.321-.736.482-1.27.482a1.95 1.95 0 01-.867-.202 1.661 1.661 0 01-.646-.53l.269-.284c.34.41.743.617 1.211.617.401 0 .714-.118.939-.352.224-.233.34-.555.349-.97v-.537c-.308.421-.756.632-1.344.632a1.45 1.45 0 01-1.211-.593c-.305-.395-.458-.93-.458-1.602v-.063zm.486.083c0 .546.11.977.333 1.293.222.314.534.471.938.471.591 0 1.01-.261 1.256-.783v-1.99a1.34 1.34 0 00-.486-.624 1.314 1.314 0 00-.762-.218c-.404 0-.718.157-.942.47-.225.312-.337.772-.337 1.381z" fill="#141414"/></svg>