<svg width="334" height="36" viewBox="0 0 334 36" fill="none" xmlns="http://www.w3.org/2000/svg"><path d="M.559 35.044V8.664a6.961 6.961 0 016.96-6.96h34.623c-.864 4.967-6.622 6.51-13.628 8.39C17.693 12.996 3.894 16.696.56 35.044z" fill="#141414"/><path d="M32.8 17.091c6.777 9.71-6.595 19.052-22.166 18.136 2.323-16.367 13.472-19.16 24.359-21.89 8-2.004 15.86-3.973 19.972-11.267v26.196a6.961 6.961 0 01-6.961 6.96H32.799c19.968-9.708 11.907-21.249 0-18.135z" fill="#141414"/><path fill-rule="evenodd" clip-rule="evenodd" d="M268.708 14.267c-1.449-1.945-3.384-2.918-5.806-2.918-2.505 0-4.63 1.207-6.376 3.62.297-2.186.932-3.932 1.906-5.238.985-1.32 2.458-2.257 4.417-2.81l2.457-.66c1.473-.412 2.541-1.115 3.206-2.109.677-.994 1.015-2.378 1.015-4.152h-2.707c0 .894-.291 1.597-.873 2.108-.581.511-1.703.944-3.365 1.299-2.933.625-5.153 2.363-6.661 5.217-1.496 2.853-2.244 6.7-2.244 11.54v1.917c0 3.478.79 6.253 2.369 8.326 1.579 2.058 3.662 3.087 6.251 3.087 1.709 0 3.217-.468 4.523-1.405 1.318-.951 2.327-2.278 3.028-3.982.7-1.718 1.05-3.662 1.05-5.834v-.362c0-3.166-.73-5.714-2.19-7.645zm-10.294 2.278c.95-1.306 2.232-1.96 3.847-1.96 1.65 0 2.95.661 3.9 1.981.962 1.306 1.443 3.045 1.443 5.217 0 2.782-.475 4.897-1.425 6.345-.95 1.448-2.244 2.172-3.882 2.172-1.627 0-2.921-.717-3.883-2.15-.95-1.448-1.425-3.407-1.425-5.877v-.341c0-2.3.475-4.095 1.425-5.387zM98.057 30.428c1.638 2.044 3.763 3.066 6.375 3.066 3.23 0 5.652-1.483 7.266-4.45l-2.012-1.874c-.606.937-1.312 1.69-2.119 2.257-.808.568-1.793.852-2.957.852-1.638 0-2.992-.696-4.06-2.087-1.057-1.405-1.609-3.243-1.656-5.515h13.054v-1.64c0-3.676-.695-6.5-2.084-8.474-1.389-1.973-3.336-2.96-5.841-2.96-1.532 0-2.957.511-4.274 1.533-1.306 1.008-2.328 2.414-3.064 4.216-.724 1.79-1.086 3.826-1.086 6.112v.724c0 3.435.82 6.182 2.458 8.24zm2.618-15.842c.902-1.164 2.018-1.746 3.348-1.746 1.377 0 2.469.553 3.277 1.66.807 1.094 1.258 2.641 1.353 4.643v.298H99c.214-2.087.772-3.705 1.675-4.855zm30.898 18.482V10.03h-13.018l-.356 9.859c-.131 3.606-.428 6.076-.891 7.41-.463 1.334-1.229 2.073-2.297 2.214l-.944.086v3.47h1.318c1.947-.07 3.366-.958 4.256-2.661.903-1.704 1.461-4.536 1.674-8.496l.392-8.624h6.554v19.781h3.312zm18.741-23.039h3.295v23.04h-3.295V16.267l-8.887 16.8h-3.294V10.03h3.294v16.822l8.887-16.822zm22.346 23.04h3.295v-23.04h-3.295v9.987h-8.851v-9.987h-3.312v23.04h3.312V23.23h8.851v9.837zm9.466 0v-23.04h5.641c2.564 0 4.529.54 5.895 1.618 1.377 1.065 2.065 2.634 2.065 4.706 0 1.065-.267 2.03-.801 2.896-.534.852-1.324 1.505-2.369 1.96 1.164.326 2.096.964 2.796 1.916.713.95 1.069 2.086 1.069 3.406 0 2.116-.653 3.734-1.959 4.855-1.294 1.122-3.129 1.682-5.503 1.682h-6.834zm3.448-10.115l-.329 6.928 3.751.014c1.377 0 2.404-.306 3.081-.916.688-.61 1.032-1.47 1.032-2.576 0-2.3-1.412-3.45-4.238-3.45h-3.297zm0-2.938l2.228-.213c3.087 0 4.631-1.08 4.631-3.237 0-2.158-1.461-3.272-4.381-3.343h-2.478v6.793zm17.489 10.412c1.638 2.044 3.763 3.066 6.375 3.066 3.23 0 5.652-1.483 7.266-4.45l-2.012-1.874c-.606.937-1.312 1.69-2.119 2.257-.808.568-1.793.852-2.957.852-1.638 0-2.992-.696-4.06-2.087-1.057-1.405-1.609-3.243-1.656-5.515h13.054v-1.64c0-3.676-.695-6.5-2.084-8.474-1.389-1.973-3.336-2.96-5.841-2.96-1.532 0-2.957.511-4.275 1.533-1.306 1.008-2.327 2.414-3.063 4.216-.724 1.79-1.086 3.826-1.086 6.112v.724c0 3.435.819 6.182 2.458 8.24zm2.617-15.842c.903-1.164 2.019-1.746 3.349-1.746 1.377 0 2.469.553 3.276 1.66.808 1.094 1.259 2.641 1.354 4.643v.298h-9.653c.214-2.087.772-3.705 1.674-4.855zm46.871-1.363h-6.465v19.845h-3.295V13.223h-6.34V10.03h16.1v3.194zm34.605 19.845c-.19-.454-.344-1.263-.463-2.427-1.532 1.902-3.36 2.853-5.485 2.853-1.9 0-3.461-.639-4.684-1.916-1.211-1.292-1.817-2.924-1.817-4.898 0-2.399.76-4.258 2.28-5.578 1.532-1.335 3.68-2.002 6.447-2.002h3.205v-1.81c0-1.377-.344-2.47-1.032-3.279-.689-.823-1.704-1.235-3.046-1.235-1.175 0-2.161.355-2.956 1.065-.796.71-1.193 1.568-1.193 2.576h-3.313c0-1.15.339-2.257 1.015-3.322a7.366 7.366 0 012.779-2.555c1.175-.624 2.463-.937 3.864-.937 2.22 0 3.96.667 5.218 2.002 1.259 1.32 1.912 3.144 1.959 5.472v10.604c0 2.115.226 3.797.677 5.047v.34h-3.455zm-5.467-3.002c1.032 0 2.012-.32 2.938-.958a5.475 5.475 0 002.012-2.491V21.89h-2.582c-4.037 0-6.055 1.412-6.055 4.237 0 1.235.344 2.2 1.033 2.896.689.695 1.573 1.043 2.654 1.043zm25.858 3.002h3.295V10.03h-3.295v9.987h-8.851V10.03h-3.312v23.04h3.312v-9.84h8.851v9.837zm15.589-9.816h-2.404v9.816h-3.313V10.03h3.313v9.752h2.155l6.482-9.752h3.989l-7.622 11.073 8.263 11.966h-4.185l-6.678-9.816zM90.51 3.12l-.493 3.283L78.36 5.254v9.359c16.583-7.225 19.046 17.404 5.583 18.881h-9.195V3.12H90.51zM78.526 17.076V31.36c7.191-.029 10.118-1.099 9.523-8.538-.953-6.61-2.802-8.236-9.523-5.746zm156.305-6.732l-.657 3.776c-4.761-3.776-9.687-1.718-9.687 6.24-.833 8.56 1.598 12.278 11.493 9.03l.657 1.477c-3.636 3.26-8.802 4.222-12.505 1.133-2.578-2.151-3.181-5.804-3.023-9.158.688-14.576 10.303-14.282 13.722-12.498z" fill="#141414"/></svg>