<svg width="374" height="39" viewBox="0 0 374 39" fill="none" xmlns="http://www.w3.org/2000/svg"><path d="M.559 38.022V10.917A7.153 7.153 0 017.71 3.765h35.575c-.888 5.104-6.804 6.69-14.003 8.62C18.164 15.367 3.986 19.17.56 38.023z" fill="#141414"/><path d="M33.686 19.576c6.965 9.976-6.776 19.575-22.775 18.634 2.387-16.817 13.842-19.688 25.03-22.491 8.22-2.06 16.295-4.083 20.52-11.578v26.917a7.153 7.153 0 01-7.152 7.152H33.686c20.517-9.976 12.235-21.834 0-18.634z" fill="#141414"/><path fill-rule="evenodd" clip-rule="evenodd" d="M299.148 16.355c-1.661-2.23-3.879-3.344-6.656-3.344-2.872 0-5.308 1.383-7.309 4.15.34-2.506 1.068-4.508 2.185-6.005 1.129-1.514 2.817-2.588 5.063-3.223l2.817-.756c1.688-.472 2.913-1.278 3.675-2.417.776-1.14 1.164-2.726 1.164-4.76h-3.103c0 1.025-.334 1.83-1.001 2.417-.667.586-1.953 1.082-3.858 1.489-3.362.716-5.908 2.71-7.636 5.98-1.715 3.271-2.573 7.682-2.573 13.231v2.197c0 3.987.905 7.169 2.716 9.545 1.81 2.36 4.199 3.54 7.166 3.54 1.96 0 3.689-.538 5.186-1.612 1.511-1.09 2.667-2.612 3.471-4.565.803-1.969 1.204-4.198 1.204-6.688v-.415c0-3.63-.837-6.55-2.511-8.764zm-11.801 2.612c1.089-1.497 2.559-2.246 4.41-2.246 1.892 0 3.382.757 4.471 2.27 1.103 1.498 1.654 3.491 1.654 5.981 0 3.19-.544 5.615-1.633 7.275-1.089 1.66-2.573 2.49-4.451 2.49-1.865 0-3.348-.822-4.451-2.466-1.089-1.66-1.633-3.906-1.633-6.737v-.39c0-2.637.544-4.696 1.633-6.177zM103.512 34.883c1.878 2.343 4.314 3.515 7.309 3.515 3.702 0 6.479-1.7 8.33-5.102l-2.307-2.148c-.694 1.074-1.504 1.937-2.43 2.588-.925.65-2.055.976-3.389.976-1.878 0-3.43-.797-4.655-2.392-1.211-1.611-1.844-3.719-1.899-6.323h14.966v-1.88c0-4.214-.797-7.453-2.389-9.715-1.593-2.262-3.825-3.393-6.697-3.393-1.755 0-3.389.586-4.9 1.758-1.497 1.155-2.667 2.766-3.511 4.833-.831 2.05-1.246 4.386-1.246 7.006v.83c0 3.938.939 7.087 2.818 9.447zm3.001-18.162c1.034-1.334 2.314-2.001 3.838-2.001 1.579 0 2.831.634 3.757 1.904.926 1.253 1.443 3.027 1.552 5.321v.342h-11.066c.245-2.392.885-4.247 1.919-5.566zm35.423 21.189V11.498h-14.925l-.408 11.302c-.15 4.133-.49 6.965-1.021 8.495-.531 1.53-1.409 2.376-2.634 2.538l-1.082.098v3.979h1.511c2.232-.081 3.859-1.099 4.88-3.051 1.034-1.953 1.674-5.2 1.919-9.74l.449-9.887h7.513V37.91h3.798zm21.484-26.412h3.777V37.91h-3.777V18.65l-10.188 19.26h-3.777V11.498h3.777v19.284l10.188-19.285zm25.618 26.412h3.777V11.498h-3.777v11.448h-10.147V11.497h-3.797V37.91h3.797V26.632h10.147V37.91zm10.852 0V11.498h6.466c2.94 0 5.193.618 6.758 1.855 1.579 1.22 2.368 3.019 2.368 5.394 0 1.221-.306 2.328-.918 3.32-.613.977-1.518 1.725-2.716 2.246 1.334.374 2.403 1.107 3.206 2.197.816 1.09 1.225 2.392 1.225 3.906 0 2.425-.749 4.28-2.246 5.565-1.484 1.286-3.587 1.929-6.309 1.929h-7.834zm3.952-11.595l-.376 7.942 4.299.016c1.579 0 2.756-.35 3.532-1.05.789-.7 1.184-1.684 1.184-2.954 0-2.636-1.62-3.954-4.859-3.954h-3.78zm0-3.369l2.555-.244c3.539 0 5.308-1.237 5.308-3.71 0-2.474-1.674-3.752-5.022-3.833h-2.841v7.787zm20.05 11.937c1.878 2.343 4.314 3.515 7.309 3.515 3.702 0 6.479-1.7 8.33-5.102l-2.307-2.148c-.695 1.074-1.505 1.937-2.43 2.588-.926.65-2.055.976-3.389.976-1.879 0-3.43-.797-4.655-2.392-1.212-1.611-1.844-3.719-1.899-6.323h14.965v-1.88c0-4.214-.796-7.453-2.388-9.715-1.593-2.262-3.825-3.393-6.697-3.393-1.756 0-3.389.586-4.9 1.758-1.497 1.155-2.668 2.766-3.512 4.833-.83 2.05-1.245 4.386-1.245 7.006v.83c0 3.938.939 7.087 2.818 9.447zm3.001-18.162c1.034-1.334 2.314-2.001 3.838-2.001 1.579 0 2.831.634 3.757 1.904.925 1.253 1.442 3.027 1.551 5.321v.342h-11.065c.245-2.392.884-4.247 1.919-5.566zm53.732-1.562h-7.411v22.75h-3.777V15.16h-7.268v-3.662h18.456v3.662zm39.672 22.75c-.218-.52-.395-1.447-.531-2.782-1.756 2.18-3.852 3.271-6.288 3.271-2.178 0-3.968-.732-5.37-2.197-1.388-1.48-2.082-3.352-2.082-5.614 0-2.75.871-4.883 2.613-6.396 1.756-1.53 4.219-2.294 7.391-2.294h3.675v-2.075c0-1.579-.395-2.832-1.184-3.76-.79-.944-1.954-1.416-3.492-1.416-1.347 0-2.477.407-3.389 1.221-.912.814-1.368 1.798-1.368 2.954h-3.797c0-1.319.388-2.588 1.164-3.808.789-1.237 1.851-2.214 3.185-2.93 1.347-.716 2.824-1.074 4.43-1.074 2.545 0 4.539.765 5.982 2.295 1.443 1.513 2.191 3.604 2.246 6.273v12.157c0 2.425.258 4.353.776 5.785v.39h-3.961zm-6.268-3.441c1.184 0 2.307-.366 3.369-1.099a6.288 6.288 0 002.307-2.855v-5.42h-2.961c-4.627 0-6.941 1.62-6.941 4.858 0 1.416.395 2.522 1.184 3.32.789.797 1.803 1.196 3.042 1.196zm29.645 3.442h3.777V11.498h-3.777v11.448h-10.147V11.497h-3.798V37.91h3.798V26.632h10.147V37.91zm17.871-11.253h-2.757V37.91h-3.797V11.498h3.797v11.18h2.471l7.431-11.18h4.574l-8.738 12.693 9.473 13.719h-4.798l-7.656-11.253zM94.859 3.577l-.564 3.764L80.93 6.023v10.73c19.01-8.283 21.834 19.951 6.4 21.645H76.79V3.576h18.07zM81.12 19.575V35.95c8.245-.033 11.6-1.26 10.917-9.787-1.092-7.578-3.212-9.442-10.917-6.588zm179.192-7.718l-.753 4.33c-5.459-4.33-11.106-1.97-11.106 7.152-.954 9.815 1.833 14.077 13.176 10.353l.753 1.694c-4.352 3.901-10.617 4.931-14.887.802-2.413-2.334-3.037-5.917-2.941-9.273.498-17.45 11.782-17.132 15.758-15.058z" fill="#141414"/></svg>