<svg width="179" height="59" viewBox="0 0 179 59" fill="none" xmlns="http://www.w3.org/2000/svg"><path d="M167.841 24.641a.62.62 0 00-.603.607V31h-7.241v-5.752a.626.626 0 00-.608-.607h-1.982c-.32 0-.569.286-.569.607v14.777c0 .328.249.611.569.611h1.982a.624.624 0 00.608-.611v-6.142h7.241v6.142c0 .328.278.611.603.611h1.989c.274 0 .557-.283.557-.611V25.248c0-.321-.283-.607-.557-.607h-1.989zm-15.364-6.598c.364 0 .644.283.644.6v1.83c0 .324-.28.609-.644.609h-12.332a.618.618 0 01-.602-.609v-1.83c0-.317.277-.6.602-.6h12.332zm-79.916 0a.623.623 0 00-.602.6v15.24c0 4.084 1.291 6.796 6.389 6.796h.607c7.274 0 8.369-4.817 8.369-7.288 0-2.19-.809-7.376-8.044-7.376h-4.047v-4.933h9.34c.326 0 .61-.285.61-.609v-1.83c0-.317-.284-.6-.61-.6H72.56zm6.834 10.972c2.957 0 4.612 1.615 4.612 4.376 0 2.753-1.655 4.255-4.612 4.255h-1.047c-2.22 0-3.116-.933-3.116-3.447v-5.184h4.163zm45.877-4.088c-.203.083-.366.321-.366.524v1.828c0 .156.121.365.237.44.171.084.33.12.489.084 1.09-.368 2.349-.732 4.405-.732 2.546 0 2.998.769 2.998 2.587v.332l-3.518.245c-5.667.395-5.947 4.085-5.947 5.22 0 3.359 1.78 5.421 6.028 5.421 1.334 0 2.829-.4 4.12-1.215l.286.611a.565.565 0 00.52.364h1.181a.575.575 0 00.563-.563V29.702c0-3.802-2.021-5.628-6.231-5.628-1.777 0-3.513.328-4.765.853zm1.653 10.528c0-1.135.207-2.313 2.545-2.51l3.518-.327.047 4.246c-1.132.692-2.025 1.058-3.399 1.058-1.341 0-2.711-.524-2.711-2.467zm-26.104 4.817a.557.557 0 00.515.364h1.423a.575.575 0 00.561-.563V25.248a.596.596 0 00-.607-.607h-1.939a.6.6 0 00-.608.607v10.41c-1.05 1.134-2.948 2.099-4.367 2.099-1.979 0-2.95-1.089-2.95-3.875v-8.634a.627.627 0 00-.61-.607h-1.936a.627.627 0 00-.611.607v9.642c0 3.522 1.904 5.986 5.584 5.986 2.266 0 4.247-1.215 5.216-2.062l.329 1.458zm49.836 0a.571.571 0 00.53.364h1.412a.575.575 0 00.561-.575V25.248a.593.593 0 00-.6-.607h-1.939a.595.595 0 00-.608.607v10.41c-1.049 1.134-2.954 2.099-4.374 2.099-1.974 0-2.948-1.089-2.948-3.875v-8.634a.624.624 0 00-.601-.607h-1.945a.62.62 0 00-.603.607v9.642c0 3.522 1.9 5.986 5.576 5.986 2.26 0 4.253-1.215 5.218-2.062l.321 1.458zm-42.329-5.262c-.205 2.14-.763 2.672-2.586 2.875a.678.678 0 00-.565.643v1.621c0 .327.276.609.565.609 3.555 0 5.336-1.698 5.705-5.905l.361-3.774c.241-2.627.767-3.435 3.149-3.435h2.624v12.38c0 .33.29.612.613.612h1.938c.282 0 .607-.283.607-.611V25.248c0-.321-.325-.607-.607-.607h-5.338c-4.406 0-5.693 2.552-6.061 6.157l-.405 4.212zm67.95-11.198c1.445 0 2.722.454 2.722 2.684 0 2.21-1.277 2.684-2.722 2.684-1.443 0-2.723-.475-2.723-2.683.001-2.23 1.28-2.685 2.723-2.685zm0 .455c-1.299 0-2.227.308-2.227 2.23 0 1.92.928 2.228 2.227 2.228 1.3 0 2.227-.308 2.227-2.228 0-1.922-.927-2.23-2.227-2.23zm-.598 3.623v-1.104h.785l.575 1.114a.166.166 0 00.136.082h.35c.051 0 .072-.034.048-.08l-.655-1.18c.349-.123.473-.411.473-.805 0-.556-.226-.91-.99-.91H175.3a.096.096 0 00-.095.094v2.79c0 .05.043.09.095.09h.289a.09.09 0 00.091-.09zm0-2.426h.785c.411 0 .473.206.473.454 0 .185-.062.393-.473.393h-.785v-.847zM57.329 35.719c.492-2.122.752-4.332.752-6.603 0-2.026-.207-4.004-.601-5.913H.6a29.233 29.233 0 00-.6 5.7v.425c.016 2.197.275 4.335.751 6.39h56.578zm-6.407 12.517H7.158c5.324 6.105 13.153 9.961 21.882 9.961 8.729 0 16.558-3.856 21.882-9.96zM6.575 10.685h44.93C46.794 4.933 39.923 1.023 32.134.197h-6.188c-7.79.826-14.66 4.736-19.371 10.488z" fill="#141414"/></svg>