<svg width="196" height="64" viewBox="0 0 196 64" fill="none" xmlns="http://www.w3.org/2000/svg"><path d="M183.781 26.972a.682.682 0 00-.66.67v6.347h-7.929v-6.347a.687.687 0 00-.665-.67h-2.171c-.35 0-.623.316-.623.67v16.306c0 .362.273.674.623.674h2.171a.686.686 0 00.665-.674V37.17h7.929v6.778a.68.68 0 00.66.674h2.178c.3 0 .61-.312.61-.674V27.642c0-.354-.31-.67-.61-.67h-2.178zm-16.823-7.28c.398 0 .705.312.705.662v2.02c0 .357-.307.67-.705.67h-13.503a.681.681 0 01-.66-.67v-2.02c0-.35.305-.662.66-.662h13.503zm-87.506 0a.685.685 0 00-.66.662V37.17c0 4.507 1.415 7.5 6.997 7.5h.664c7.966 0 9.164-5.316 9.164-8.043 0-2.416-.885-8.139-8.808-8.139h-4.431v-5.443h10.227a.687.687 0 00.668-.672v-2.019a.685.685 0 00-.668-.662H79.452zm7.484 12.107c3.237 0 5.05 1.782 5.05 4.828 0 3.038-1.813 4.696-5.05 4.696h-1.148c-2.43 0-3.411-1.03-3.411-3.804v-5.72h4.559zm50.234-4.511c-.223.092-.401.354-.401.578v2.017c0 .172.132.403.26.487.186.092.361.132.534.092 1.194-.407 2.572-.808 4.824-.808 2.788 0 3.282.848 3.282 2.855v.366l-3.852.27c-6.205.436-6.511 4.508-6.511 5.76 0 3.706 1.949 5.982 6.6 5.982 1.461 0 3.098-.441 4.512-1.34l.313.673a.62.62 0 00.57.402h1.292a.633.633 0 00.617-.621V32.557c0-4.196-2.214-6.21-6.823-6.21-1.946 0-3.847.362-5.217.94zm1.81 11.617c0-1.252.226-2.552 2.786-2.77l3.852-.36.052 4.685c-1.24.763-2.218 1.167-3.722 1.167-1.469 0-2.968-.578-2.968-2.722zm-28.584 5.315a.61.61 0 00.564.402h1.558a.631.631 0 00.614-.621V27.642a.656.656 0 00-.664-.67h-2.123a.66.66 0 00-.666.67V39.13c-1.149 1.251-3.228 2.316-4.781 2.316-2.167 0-3.232-1.201-3.232-4.275v-9.528a.69.69 0 00-.667-.67h-2.12a.689.689 0 00-.67.67v10.64c0 3.886 2.086 6.605 6.116 6.605 2.481 0 4.65-1.34 5.711-2.276l.36 1.61zm54.569 0a.626.626 0 00.58.402h1.547a.632.632 0 00.614-.634V27.642c0-.354-.26-.67-.657-.67h-2.124a.654.654 0 00-.665.67V39.13c-1.149 1.251-3.234 2.316-4.789 2.316-2.162 0-3.229-1.201-3.229-4.275v-9.528c0-.354-.311-.67-.658-.67h-2.129a.681.681 0 00-.66.67v10.64c0 3.886 2.08 6.605 6.105 6.605 2.475 0 4.657-1.34 5.714-2.276l.351 1.61zm-46.349-5.806c-.224 2.362-.836 2.949-2.832 3.172a.747.747 0 00-.618.71v1.789c0 .36.303.672.618.672 3.893 0 5.844-1.873 6.247-6.517l.395-4.163c.265-2.9.841-3.79 3.449-3.79h2.873v13.66c0 .363.318.675.671.675h2.123c.308 0 .664-.312.664-.674V27.642c0-.354-.355-.67-.664-.67h-5.846c-4.824 0-6.234 2.816-6.636 6.795l-.444 4.647zm74.404-12.356c1.582 0 2.98.501 2.98 2.962 0 2.437-1.398 2.961-2.98 2.961-1.581 0-2.982-.524-2.982-2.961 0-2.46 1.402-2.962 2.982-2.962zm0 .502c-1.422 0-2.439.34-2.439 2.46 0 2.119 1.017 2.46 2.439 2.46 1.423 0 2.438-.341 2.438-2.46 0-2.12-1.015-2.46-2.438-2.46zm-.655 3.998V29.34h.859l.63 1.229a.18.18 0 00.148.09h.384c.056 0 .079-.038.053-.088l-.717-1.302c.382-.136.517-.454.517-.888 0-.615-.247-1.004-1.084-1.004h-1.206a.105.105 0 00-.104.103v3.078c0 .056.047.1.104.1h.316a.1.1 0 00.1-.1zm0-2.678h.859c.451 0 .518.228.518.501 0 .204-.067.434-.518.434h-.859v-.935zM62.773 39.196c.539-2.34.824-4.78.824-7.286a32.52 32.52 0 00-.658-6.524H.657A32.498 32.498 0 000 31.675v.469c.017 2.423.3 4.783.822 7.05h61.952zm-7.015 13.812H7.838C13.667 59.744 22.24 64 31.798 64c9.558 0 18.13-4.256 23.96-10.992zM7.2 11.573h49.197C51.238 5.226 43.715.912 35.186 0H28.41C19.88.912 12.358 5.226 7.2 11.573z" fill="#141414"/></svg>