<svg width="165" height="44" viewBox="0 0 165 44" fill="none" xmlns="http://www.w3.org/2000/svg"><path d="M15.731 25.575l-1.656-13.248c-.092-.644-.46-1.196-1.104-1.38-.644-.184-1.288-.092-1.748.368l-9.567 9.292c-.184.184-.368.46-.46.736-.276.92.184 1.84 1.012 2.208.184.092.368.092.552.092h3.312c.276.092.46.46.368.736l-.552 1.471L0 42.686h1.196l6.348-17.847a1.825 1.825 0 00-1.012-2.208c-.184-.092-.368-.092-.552-.092H2.76c-.276-.092-.46-.46-.368-.736 0-.092.092-.184.184-.276l1.104-1.104 7.268-6.992 1.195-1.196c.184-.092.368-.184.552-.092.184.092.368.276.368.46l.184 1.748 1.104 9.844.184 1.564v.276c-.092.276-.46.46-.736.367-.092 0-.092-.091-.184-.091l-.644-.552-.552-.46-1.196-.92c-.184-.092-.276-.184-.552-.276a1.825 1.825 0 00-2.207 1.011v.092L2.3 42.686h1.196l5.52-15.64.552-1.471c.092-.276.46-.46.736-.369.091 0 .091.093.184.093l1.195 1.012 1.196 1.011c.184.092.276.184.46.276.92.276 1.84-.184 2.208-1.011.184-.46.184-.736.184-1.012zm35.234 17.019h12.972L79.116 0H66.053L50.965 42.594zm51.978 0h12.879l6.716-18.767c2.668-4.508 8.095-3.496 7.084.46l-6.44 18.307h13.431l6.348-17.94c1.656-4.507 8.739-4.783 7.176.553l-5.98 17.387h12.971l7.268-20.607c2.392-6.992-6.164-16.375-20.883-6.072-1.748-4.691-9.016-7.635-18.675-.828l.644-2.76H113.43l-10.487 30.267zM89.787 12.327H77.644L70.47 32.474c-3.588 11.316 7.82 15.087 18.767 7.268l-.736 2.852h11.591l10.672-30.267h-12.42l-6.348 17.295c-1.472 4.232-9.751 6.624-8.463.092l6.255-17.387zm-54.001 1.656L40.662 0H27.6L12.604 42.594h12.235l1.38-3.404c.736 5.152 17.663 9.384 26.678-8.74 7.084-13.063-1.011-26.034-17.11-16.467zm4.508 16.191c-2.392 2.944-6.255 4.508-8.555 3.036-2.392-1.656-2.3-5.335.092-8.831.552-.828 1.195-1.656 1.84-2.208 2.3-2.116 4.875-2.852 6.991-1.472 2.576 1.564 2.116 6.256-.368 9.475z" fill="#141414"/></svg>