<svg width="169" height="68" viewBox="0 0 169 68" fill="none" xmlns="http://www.w3.org/2000/svg"><path fill-rule="evenodd" clip-rule="evenodd" d="M58.49 68V57.611h29.246V0h-58.49v10.389H0V68h58.49zM10.379 27.79h9.032v-2.705H6.972v19.304h7.498c2.145-.018 3.836-.575 5.075-1.67 1.247-1.097 1.87-2.546 1.87-4.35 0-1.175-.278-2.21-.834-3.102-.556-.893-1.368-1.582-2.436-2.068-1.068-.486-2.32-.73-3.756-.73h-4.011v-4.68zm0 13.92v-6.549h4.092c1.113.018 1.983.31 2.611.875.628.566.943 1.335.943 2.307 0 1.017-.323 1.834-.97 2.453-.637.61-1.53.915-2.678.915h-3.998zM51.15 28.027h-6.11v16.599h-3.38v-16.6h-6.057v-2.704H51.15v2.705zm16.156 16.599l1.589-4.495h7.591l1.602 4.495h3.554l-7.417-19.304H71.17l-7.404 19.304h3.54zm5.385-15.207l2.84 8.008h-5.68l2.84-8.008z" fill="#141414"/><path d="M112.991 26.943h-9.449v5.781h4.872c2.046.027 3.644.544 4.792 1.551 1.149 1.008 1.723 2.378 1.723 4.11 0 1.741-.578 3.13-1.736 4.163-1.158 1.034-2.737 1.57-4.738 1.605h-7.511V24.849h12.047v2.094zm-9.449 7.876v7.252h4.725c1.283 0 2.279-.336 2.988-1.007.718-.672 1.077-1.574 1.077-2.705 0-1.087-.346-1.945-1.037-2.572-.682-.628-1.656-.95-2.921-.968h-4.832zm24.882 4.295h-8.211l-1.844 5.039h-2.665l7.484-19.304h2.261l7.498 19.304h-2.652l-1.871-5.038zm-7.43-2.094h6.663l-3.338-9.03-3.325 9.03zm28.827 7.133h-2.598V35.23h-9.88v8.923h-2.584V24.849h2.584v8.3h9.88v-8.3h2.598v19.304zm8.851-8.671h-2.383v8.67h-2.584V24.85h2.584v8.511h2.02l6.851-8.511h3.217l-7.484 9.36 8.036 9.944h-3.163l-7.094-8.671z" fill="#000"/></svg>