<svg width="148" height="59" viewBox="0 0 148 59" fill="none" xmlns="http://www.w3.org/2000/svg"><path fill-rule="evenodd" clip-rule="evenodd" d="M51.223 59v-9.014h25.611V0H25.611v9.014H0V59h51.223zM9.088 24.111h7.91v-2.346H6.106v16.749h6.566c1.878-.016 3.36-.498 4.444-1.45 1.092-.95 1.639-2.208 1.639-3.773 0-1.02-.244-1.917-.731-2.691-.488-.775-1.199-1.373-2.134-1.795-.935-.422-2.031-.633-3.289-.633H9.088v-4.06zm0 12.08v-5.684h3.584c.974.016 1.737.269 2.287.76.55.49.825 1.158.825 2.001 0 .882-.283 1.592-.849 2.129-.558.529-1.34.793-2.346.793h-3.5zm35.707-11.875h-5.351V38.72h-2.96V24.316H31.18V21.97h13.615v2.346zM58.944 38.72l1.39-3.9h6.65l1.402 3.9h3.112l-6.495-16.75h-2.676l-6.484 16.75h3.1zm4.715-13.195l2.487 6.948h-4.974l2.487-6.948z" fill="#141414"/><path d="M98.95 23.378h-8.274v5.015h4.267c1.792.023 3.19.472 4.197 1.346 1.005.874 1.508 2.063 1.508 3.566 0 1.51-.507 2.715-1.52 3.612-1.014.897-2.397 1.361-4.15 1.392h-6.577V21.56h10.55v1.818zm-8.274 6.833v6.292h4.138c1.123 0 1.996-.291 2.616-.874.629-.583.943-1.365.943-2.347 0-.943-.302-1.687-.907-2.231-.597-.545-1.45-.825-2.558-.84h-4.232zm21.791 3.727h-7.191l-1.615 4.371h-2.334l6.554-16.749h1.98l6.566 16.75h-2.322l-1.638-4.372zm-6.507-1.818h5.835l-2.924-7.834-2.911 7.834zm25.245 6.19h-2.276v-7.743h-8.652v7.742h-2.263V21.56h2.263v7.201h8.652v-7.2h2.276v16.748zm7.75-7.524h-2.086v7.523h-2.264V21.56h2.264v7.385h1.768l6-7.385h2.817l-6.554 8.122 7.038 8.627h-2.771l-6.212-7.523z" fill="#000"/></svg>