<svg width="115" height="115" viewBox="0 0 115 115" fill="none" xmlns="http://www.w3.org/2000/svg"><path d="M11.3 93.396L0 70.795 114.335 0v41.546L11.301 93.396zM21.936 115l-9.638-19.942 94.725-47.53v33.57L21.936 115z" fill="#141414"/><path d="M14.278 88.74L9.312 78.545l3.284-1.6c.901-.439 1.811-.628 2.73-.567a4.74 4.74 0 012.524.911c.768.545 1.379 1.278 1.834 2.2l.228.47c.455.933.665 1.868.63 2.804a4.81 4.81 0 01-.821 2.548c-.512.764-1.208 1.363-2.088 1.797l-3.355 1.634zm-1.584-9.495l3.121 6.408.855-.416c.705-.344 1.124-.857 1.26-1.541.132-.689-.043-1.528-.525-2.517l-.215-.442c-.48-.985-1.03-1.635-1.652-1.95-.621-.316-1.294-.297-2.018.055l-.826.403zm12.892-.465l-1.33.648 1.753 3.6-2.459 1.197-4.966-10.197 4.013-1.955c1.21-.589 2.285-.78 3.229-.576.943.205 1.653.798 2.13 1.778.346.71.488 1.369.426 1.977-.057.605-.321 1.202-.792 1.79l4.131 3.073.052.105-2.634 1.283-3.553-2.723zm-2.255-1.25l1.555-.757c.467-.228.758-.52.873-.876.117-.364.07-.765-.144-1.204-.214-.439-.5-.724-.859-.855-.36-.136-.772-.092-1.235.133l-1.554.757 1.364 2.802zm13.796-5.264L33.26 74.15l1.183 2.43 4.566-2.223.922 1.89-7.025 3.422-4.966-10.197 7.038-3.428.925 1.898-4.58 2.23 1.046 2.15 3.866-1.882.89 1.828zm8.67-1.233l-3.369 1.64.34 2.192-2.626 1.28-1.227-12.02L41.226 63l8.734 8.362-2.64 1.286-1.523-1.615zm-3.705-.544l2.192-1.068-2.822-3 .63 4.068zm6.88-11.262l5.731 5.986-1.186-8.2 3.236-1.575 4.966 10.197-2.465 1.2-1.16-2.38-2.136-4.99 1.069 8.455-1.625.792-6.01-6.059 2.616 4.766 1.16 2.38-2.458 1.198L45.743 60.8l3.229-1.572zM20.69 93.705l5.732 5.986-1.187-8.2 3.236-1.576 4.966 10.197-2.465 1.201-1.16-2.381-2.136-4.99 1.069 8.456-1.625.791-6.01-6.058 2.616 4.765 1.16 2.381-2.458 1.197-4.966-10.197 3.228-1.572zm19.306.856l-3.369 1.64.34 2.192-2.626 1.28-1.227-12.02 2.311-1.125 8.735 8.362-2.64 1.286-1.524-1.615zm-3.705-.544l2.193-1.067-2.823-3.002.63 4.07zm10.236-4.977l-.47 1.599 1.31 2.689-2.458 1.197-4.966-10.197 2.458-1.197 2.19 4.496.223-1.712.64-4.271 3.04-1.48-1.25 6.188 6.216 4.008-2.913 1.42-4.02-2.74zm11.776-6.384l-3.866 1.882 1.184 2.43 4.566-2.223.92 1.89-7.024 3.422-4.966-10.197 7.039-3.428.924 1.898-4.58 2.23 1.047 2.15 3.866-1.882.89 1.828zm5.842-1.953l-1.33.648 1.752 3.6-2.458 1.197-4.966-10.197 4.013-1.955c1.21-.589 2.285-.78 3.229-.576.943.205 1.653.798 2.13 1.778.346.71.488 1.369.426 1.977-.057.605-.321 1.202-.792 1.79l4.131 3.073.051.105-2.633 1.283-3.553-2.723zm-2.255-1.25l1.555-.757c.467-.228.758-.52.873-.876.117-.364.07-.765-.144-1.204-.214-.439-.5-.724-.859-.855-.36-.136-.773-.092-1.235.133l-1.554.757 1.364 2.802zm13.515-3.134c-.175-.36-.44-.577-.794-.653-.35-.078-.897-.069-1.641.028-.745.097-1.369.144-1.873.14-1.637-.005-2.732-.575-3.285-1.71a2.664 2.664 0 01-.236-1.73c.12-.595.423-1.159.91-1.69.484-.536 1.102-.987 1.853-1.354.733-.357 1.453-.545 2.16-.566.71-.023 1.345.13 1.904.459.556.324.985.796 1.288 1.417l-2.451 1.194c-.203-.415-.488-.675-.856-.779-.364-.106-.763-.053-1.197.159-.439.213-.739.48-.9.802-.159.314-.166.62-.02.92.127.261.383.43.768.51.382.073.982.052 1.798-.062.814-.12 1.512-.159 2.092-.118 1.411.099 2.388.706 2.932 1.822.434.891.44 1.755.015 2.592-.425.836-1.223 1.54-2.395 2.11-.826.403-1.647.62-2.463.654-.813.026-1.515-.134-2.106-.482-.589-.354-1.047-.868-1.374-1.54l2.465-1.2c.266.546.603.881 1.01 1.006.41.118.933.023 1.568-.286.406-.198.683-.44.833-.727.151-.293.15-.599-.005-.916z" fill="#fff"/></svg>