<svg width="101" height="60" viewBox="0 0 101 60" fill="none" xmlns="http://www.w3.org/2000/svg"><path d="M101 0H.268v59.791H101V0z" fill="#141414"/><path d="M6.468 52.166v2.29h75.601V7.867l11.03 4.31v42.28h2.028V10.579L82.069 5.364l-20.301 5.003v41.679l-55.3.12zm.388-26.67v-9.132h1.818v3.617h3.578v-3.617h1.818v9.132h-1.818v-3.978H8.674v3.978H6.856zm8.765-4.491c0-.934.15-1.718.418-2.35.208-.453.477-.875.834-1.266a3.713 3.713 0 011.163-.814c.566-.241 1.222-.362 1.938-.362 1.341 0 2.385.422 3.19 1.266.804.844 1.192 1.99 1.192 3.496 0 1.477-.388 2.622-1.193 3.466-.804.844-1.848 1.235-3.19 1.235-1.34 0-2.414-.422-3.19-1.235-.774-.814-1.162-1.99-1.162-3.436zm1.878-.06c0 1.024.239 1.808.716 2.35a2.283 2.283 0 001.788.814 2.36 2.36 0 001.79-.783c.476-.543.685-1.326.685-2.381 0-1.055-.239-1.838-.686-2.35-.447-.513-1.043-.784-1.818-.784-.746 0-1.372.27-1.819.783-.447.512-.656 1.296-.656 2.35zm8.257 4.551v-9.132H28.5l1.64 6.238 1.61-6.238h2.742v9.132h-1.7v-7.203l-1.788 7.203h-1.759l-1.788-7.203v7.203h-1.7z" fill="#fff"/><path d="M36.31 25.496v-9.132h6.707v1.537h-4.86v2.02h4.532v1.536h-4.531v2.472h5.038v1.537h-6.887v.03zm-23.67 8.83l1.758.572c-.268.995-.715 1.748-1.341 2.23-.626.483-1.431.724-2.385.724-1.193 0-2.176-.422-2.952-1.236-.775-.814-1.162-1.959-1.162-3.405 0-1.507.387-2.713 1.162-3.526.776-.814 1.79-1.266 3.071-1.266 1.103 0 1.997.331 2.683.994.417.392.716.965.924 1.688l-1.818.422c-.12-.482-.328-.844-.656-1.115a1.883 1.883 0 00-1.222-.422c-.656 0-1.223.241-1.64.723-.417.483-.626 1.266-.626 2.351 0 1.145.209 1.989.626 2.471.417.482.954.724 1.61.724.477 0 .894-.151 1.252-.483.328-.301.566-.783.715-1.446zm3.337 3.344v-9.13h3.846c.954 0 1.67.09 2.116.24.448.15.776.452 1.044.874s.387.904.387 1.447c0 .693-.208 1.266-.596 1.687-.387.452-.983.724-1.788.844.387.241.715.482.983.754.269.27.597.783 1.044 1.476l1.103 1.778h-2.177l-1.311-1.989c-.477-.723-.775-1.145-.954-1.356-.179-.21-.358-.301-.537-.392-.179-.06-.506-.09-.924-.09h-.417v3.797h-1.819v.06zm1.819-5.273h1.341c.865 0 1.431-.03 1.64-.121a.94.94 0 00.507-.392c.119-.18.178-.422.178-.693 0-.301-.089-.542-.238-.753-.149-.181-.387-.302-.686-.362-.149-.03-.596-.03-1.341-.03h-1.401v2.35zM25.1 37.67v-9.13h6.708v1.536h-4.86v2.02h4.532v1.536h-4.53v2.471h5.038v1.537h-6.886v.03zm8.406-9.13h3.34c.744 0 1.31.06 1.728.18.537.15.984.452 1.372.844.387.392.655.904.864 1.476.209.573.298 1.296.298 2.17 0 .754-.09 1.387-.268 1.929-.239.663-.537 1.205-.954 1.627-.328.302-.745.543-1.282.724-.417.12-.954.18-1.61.18h-3.428v-9.13h-.06zm1.819 1.566v6.058h1.371c.507 0 .865-.03 1.103-.09.298-.061.537-.212.745-.392.21-.181.358-.483.477-.875.12-.421.18-.964.18-1.657 0-.693-.06-1.236-.18-1.627a2.044 2.044 0 00-.506-.874 1.583 1.583 0 00-.835-.422c-.268-.06-.745-.09-1.49-.09h-.865v-.03zm7.245 7.564v-9.13h1.818v9.13H42.57zm5.574 0v-7.594H45.46v-1.537h7.184v1.537h-2.683v7.595h-1.818zM6.856 40.202h3.607c.715 0 1.252.03 1.61.09.357.06.656.181.954.392.268.181.507.452.685.754.18.331.269.663.269 1.054 0 .422-.12.814-.328 1.176a2.202 2.202 0 01-.924.813c.536.151.983.453 1.282.814.298.392.447.844.447 1.386 0 .422-.09.814-.299 1.206a2.367 2.367 0 01-.775.934 2.29 2.29 0 01-1.222.422c-.298.03-1.043.06-2.206.06h-3.07v-9.1h-.03zm1.848 1.507v2.11h1.192c.716 0 1.163 0 1.312-.03a1.22 1.22 0 00.745-.332c.18-.18.269-.422.269-.723 0-.272-.09-.513-.239-.694-.149-.18-.387-.27-.685-.331-.18-.03-.686-.03-1.55-.03H8.703v.03zm0 3.646v2.442h1.7c.655 0 1.072-.03 1.251-.06.269-.061.477-.181.656-.362.18-.181.268-.452.268-.784 0-.271-.06-.512-.208-.693a1.187 1.187 0 00-.567-.422c-.238-.09-.775-.12-1.61-.12h-1.49zm15.412 3.979H22.12l-.775-2.08h-3.608l-.745 2.08h-1.938l3.518-9.132h1.938l3.607 9.132zm-3.339-3.617l-1.252-3.375-1.222 3.375h2.474zm4.323 3.617v-9.132h1.79l3.696 6.088v-6.088h1.7v9.132h-1.82l-3.636-5.968v5.968H25.1zm9.122 0v-9.132h1.819v4.069l3.696-4.069h2.445l-3.399 3.556 3.578 5.576h-2.356l-2.474-4.28-1.49 1.537v2.773h-1.819v-.03z" fill="#fff"/></svg>