<svg width="106" height="63" viewBox="0 0 106 63" fill="none" xmlns="http://www.w3.org/2000/svg"><path d="M105.266 0H.268v62.324h104.998V0z" fill="#141414"/><path d="M6.73 54.376v2.387h78.804V8.2l11.496 4.49v44.072h2.113V11.026L85.534 5.59l-21.161 5.215V54.25l-57.643.126zm.405-27.8v-9.518H9.03v3.77h3.73v-3.77h1.895v9.518h-1.896v-4.147H9.03v4.147H7.135zm9.135-4.681c0-.974.156-1.79.436-2.45.217-.471.497-.911.87-1.32.373-.377.776-.66 1.212-.848.59-.251 1.274-.377 2.02-.377 1.398 0 2.485.44 3.324 1.32.84.88 1.243 2.073 1.243 3.644 0 1.539-.404 2.733-1.243 3.612-.839.88-1.926 1.288-3.325 1.288-1.398 0-2.517-.44-3.324-1.288-.809-.848-1.212-2.073-1.212-3.58zm1.958-.063c0 1.068.249 1.885.746 2.45.497.566 1.119.849 1.864.849.746 0 1.368-.283 1.865-.817.497-.566.715-1.382.715-2.482 0-1.1-.249-1.916-.715-2.45-.466-.534-1.088-.817-1.896-.817-.776 0-1.429.283-1.895.817-.466.534-.684 1.35-.684 2.45zm8.608 4.744v-9.518h2.859l1.709 6.502 1.678-6.502h2.859v9.518h-1.772v-7.508l-1.864 7.508h-1.833l-1.865-7.508v7.508h-1.771z" fill="#fff"/><path d="M37.836 26.576v-9.518h6.992v1.602h-5.066v2.104h4.724v1.602h-4.723v2.576h5.251v1.602h-7.178v.032zM13.163 35.78l1.834.597c-.28 1.036-.746 1.822-1.399 2.324-.652.503-1.491.754-2.486.754-1.243 0-2.268-.44-3.076-1.288-.808-.848-1.212-2.041-1.212-3.55 0-1.57.404-2.826 1.212-3.675.808-.848 1.865-1.319 3.2-1.319 1.15 0 2.083.346 2.797 1.037.435.408.746 1.005.964 1.759l-1.896.44c-.124-.503-.342-.88-.683-1.163a1.963 1.963 0 00-1.274-.44c-.684 0-1.275.252-1.71.754-.435.503-.652 1.32-.652 2.45 0 1.194.217 2.074.652 2.576.435.503.995.754 1.678.754.498 0 .933-.157 1.306-.502.341-.314.59-.817.745-1.508zm3.48 3.486v-9.518h4.008c.994 0 1.74.094 2.206.251.466.157.808.472 1.088.911.28.44.404.943.404 1.508 0 .723-.218 1.32-.622 1.76-.404.47-1.025.753-1.864.879.404.251.746.502 1.026.785.28.283.62.817 1.087 1.54l1.15 1.853h-2.269l-1.367-2.073c-.497-.754-.808-1.194-.994-1.414-.187-.22-.373-.314-.56-.408-.186-.063-.528-.095-.963-.095h-.435v3.959h-1.895v.062zm1.895-5.497h1.398c.902 0 1.492-.032 1.71-.126a.98.98 0 00.528-.408c.124-.189.186-.44.186-.723 0-.314-.093-.565-.248-.785-.156-.188-.404-.314-.715-.377-.155-.031-.622-.031-1.398-.031h-1.46v2.45zm7.614 5.497v-9.518h6.992v1.602h-5.065v2.105h4.723v1.602H28.08v2.576h5.251v1.602h-7.178v.031zm8.762-9.518h3.48c.777 0 1.368.063 1.803.188.559.158 1.025.472 1.429.88.404.409.684.943.901 1.54.218.596.31 1.35.31 2.261 0 .785-.092 1.445-.279 2.01-.248.692-.56 1.257-.994 1.697-.342.314-.777.565-1.336.754-.435.125-.995.188-1.678.188h-3.574v-9.518h-.062zm1.896 1.633v6.315h1.429c.528 0 .901-.032 1.15-.095.31-.062.559-.22.776-.408.218-.188.373-.503.498-.911.124-.44.186-1.005.186-1.728 0-.722-.062-1.288-.186-1.696a2.129 2.129 0 00-.528-.911 1.65 1.65 0 00-.87-.44c-.28-.063-.777-.094-1.554-.094h-.901v-.032zm7.551 7.885v-9.518h1.896v9.518H44.36zm5.811 0V31.35h-2.797v-1.602h7.489v1.602h-2.797v7.916h-1.895zM7.135 41.905h3.76c.745 0 1.305.032 1.678.094.373.063.683.189.994.409.28.188.528.471.715.785.186.346.28.691.28 1.1 0 .44-.125.848-.342 1.225-.249.377-.56.66-.964.848.56.157 1.026.471 1.336.848.311.408.467.88.467 1.445 0 .44-.094.848-.311 1.257a2.468 2.468 0 01-.808.973 2.387 2.387 0 01-1.274.44c-.31.032-1.088.063-2.3.063h-3.2v-9.487h-.031zm1.926 1.57v2.2h1.243c.746 0 1.212 0 1.368-.032.31-.031.59-.157.776-.345.187-.189.28-.44.28-.754 0-.283-.093-.534-.248-.722-.156-.189-.405-.283-.715-.346-.187-.032-.715-.032-1.616-.032H9.06v.032zm0 3.802v2.544h1.772c.683 0 1.118-.031 1.305-.063a1.33 1.33 0 00.683-.376c.187-.189.28-.472.28-.817 0-.283-.062-.534-.218-.723-.124-.188-.341-.345-.59-.44-.248-.094-.808-.125-1.678-.125H9.061zm16.065 4.146h-2.082l-.808-2.167h-3.76l-.776 2.167h-2.02l3.666-9.518h2.02l3.76 9.518zm-3.48-3.77l-1.305-3.517-1.274 3.518h2.579zm4.506 3.77v-9.518h1.865l3.853 6.346v-6.346h1.771v9.518h-1.895l-3.791-6.22v6.22h-1.803zm9.508 0v-9.518h1.896v4.241l3.853-4.24h2.548l-3.543 3.706 3.73 5.811h-2.456l-2.579-4.46-1.553 1.602v2.89H35.66v-.032z" fill="#fff"/></svg>