<svg width="27" height="28" viewBox="0 0 27 28" fill="none" xmlns="http://www.w3.org/2000/svg">
<path d="M8.73623 27.8747C7.02866 27.8747 5.3211 27.2238 4.01925 25.9244C1.41788 23.323 1.41788 19.0914 4.01925 16.4901L14.0191 6.49302C14.8248 5.68726 15.8974 5.24169 17.0367 5.24169C18.1759 5.24169 19.2485 5.68459 20.0542 6.49302C21.7191 8.1579 21.7191 10.8661 20.0542 12.531L10.2463 22.3416C9.83009 22.7578 9.15243 22.7578 8.73619 22.3416C8.31996 21.9254 8.31996 21.2504 8.73619 20.8315L18.5468 11.0208C18.9497 10.6179 19.1711 10.0817 19.1711 9.5107C19.1711 8.93972 18.9497 8.40345 18.5468 8.00056C18.1439 7.59768 17.6077 7.37624 17.0367 7.37624C16.4657 7.37624 15.9294 7.59769 15.5266 8.00056L5.52946 18.0004C3.76052 19.7693 3.76052 22.6456 5.52946 24.4143C7.29839 26.1833 10.1747 26.1833 11.9434 24.4143L22.3196 14.0382C25.025 11.3327 25.025 6.93299 22.3196 4.22753C19.6142 1.5221 15.2144 1.5221 12.5089 4.22753L2.32231 14.4169C1.90608 14.8331 1.22841 14.8331 0.812177 14.4169C0.395941 14.0007 0.395941 13.3257 0.812177 12.9068L10.9988 2.72013C12.7144 1.00724 14.9928 0.0627518 17.4155 0.0627518C19.8382 0.0627518 22.1168 1.00724 23.8294 2.72013C25.5421 4.43302 26.4868 6.71173 26.4868 9.13408C26.4868 11.5564 25.5423 13.8353 23.8294 15.548L13.4533 25.9242C12.1512 27.2262 10.4436 27.8747 8.73623 27.8747Z" fill="black"/>
</svg>
