<svg width="210" height="33" viewBox="0 0 210 33" fill="none" xmlns="http://www.w3.org/2000/svg"><circle cx="7.079" cy="7.079" r="7.079" fill="#141414"/><circle cx="24.331" cy="7.079" r="7.079" fill="#141414"/><circle cx="7.079" cy="24.776" r="7.079" fill="#141414"/><circle cx="24.331" cy="24.776" r="7.079" fill="#141414"/><path d="M43.117 31.855H37.89V1.66h5.227v30.196zM47.71 20.47c0-3.457.803-6.23 2.406-8.317 1.604-2.101 3.754-3.152 6.45-3.152 2.378 0 4.3.83 5.766 2.488V0h5.04v31.855h-4.563l-.25-2.323c-1.506 1.826-3.518 2.738-6.034 2.738-2.627 0-4.756-1.058-6.388-3.173-1.617-2.116-2.426-4.991-2.426-8.628zm5.04.435c0 2.281.436 4.065 1.307 5.35.885 1.273 2.136 1.909 3.754 1.909 2.06 0 3.567-.92 4.52-2.759v-9.581c-.926-1.797-2.419-2.696-4.479-2.696-1.631 0-2.89.65-3.774 1.95-.885 1.285-1.328 3.228-1.328 5.827zM82.086 32.27c-3.194 0-5.786-1.002-7.777-3.007-1.977-2.019-2.966-4.701-2.966-8.047v-.622c0-2.24.429-4.238 1.286-5.994.871-1.77 2.088-3.145 3.65-4.127 1.563-.981 3.305-1.472 5.226-1.472 3.056 0 5.413.975 7.072 2.924 1.673 1.95 2.51 4.708 2.51 8.275v2.032H76.424c.152 1.853.768 3.319 1.846 4.397 1.092 1.078 2.461 1.618 4.106 1.618 2.31 0 4.19-.934 5.641-2.8l2.717 2.592c-.898 1.341-2.101 2.385-3.608 3.132-1.494.733-3.173 1.099-5.04 1.099zm-.601-19.225c-1.383 0-2.503.484-3.36 1.452-.844.967-1.383 2.316-1.618 4.044h9.602v-.374c-.11-1.686-.56-2.958-1.348-3.816-.788-.87-1.88-1.306-3.276-1.306zM108 31.855c-.221-.428-.415-1.127-.581-2.094-1.604 1.672-3.567 2.509-5.89 2.509-2.253 0-4.092-.643-5.516-1.929-1.424-1.286-2.136-2.876-2.136-4.77 0-2.392.885-4.224 2.654-5.496 1.784-1.285 4.328-1.928 7.632-1.928h3.09v-1.473c0-1.161-.325-2.088-.974-2.779-.65-.705-1.639-1.057-2.966-1.057-1.148 0-2.088.29-2.821.87-.732.567-1.099 1.293-1.099 2.178h-5.04c0-1.23.409-2.378 1.224-3.443.816-1.078 1.922-1.921 3.319-2.53 1.41-.608 2.979-.912 4.707-.912 2.627 0 4.722.663 6.284 1.99 1.563 1.314 2.364 3.167 2.406 5.559v10.12c0 2.02.283 3.63.85 4.833v.352H108zm-5.537-3.63c.995 0 1.928-.241 2.799-.725.885-.484 1.549-1.134 1.991-1.95v-4.23h-2.716c-1.867 0-3.27.325-4.21.974-.94.65-1.41 1.57-1.41 2.759 0 .968.317 1.742.953 2.323.65.566 1.514.85 2.593.85zm15.171 3.63V1.66h10.348c3.416 0 6.015.685 7.798 2.053 1.784 1.37 2.676 3.408 2.676 6.118 0 1.383-.374 2.627-1.12 3.733-.747 1.106-1.839 1.964-3.277 2.572 1.631.442 2.89 1.279 3.775 2.51.898 1.216 1.348 2.682 1.348 4.396 0 2.834-.913 5.012-2.738 6.533-1.811 1.52-4.41 2.281-7.798 2.281h-11.012zm5.247-13.625v9.436h5.827c1.646 0 2.931-.408 3.858-1.224.926-.815 1.389-1.95 1.389-3.4 0-3.14-1.603-4.743-4.811-4.812h-6.263zm0-3.858h5.143c1.631 0 2.903-.366 3.816-1.099.926-.747 1.389-1.797 1.389-3.152 0-1.494-.428-2.572-1.285-3.236-.844-.663-2.164-.995-3.962-.995h-5.101v8.482zm34.043 17.483c-.221-.428-.415-1.127-.58-2.094-1.604 1.672-3.568 2.509-5.89 2.509-2.254 0-4.093-.643-5.517-1.929-1.424-1.286-2.136-2.876-2.136-4.77 0-2.392.885-4.224 2.655-5.496 1.783-1.285 4.327-1.928 7.632-1.928h3.09v-1.473c0-1.161-.325-2.088-.975-2.779-.65-.705-1.638-1.057-2.966-1.057-1.147 0-2.087.29-2.82.87-.733.567-1.099 1.293-1.099 2.178h-5.04c0-1.23.408-2.378 1.224-3.443.815-1.078 1.921-1.921 3.318-2.53 1.41-.608 2.979-.912 4.708-.912 2.627 0 4.721.663 6.284 1.99 1.562 1.314 2.364 3.167 2.405 5.559v10.12c0 2.02.284 3.63.851 4.833v.352h-5.144zm-5.537-3.63c.995 0 1.929-.241 2.8-.725.885-.484 1.548-1.134 1.991-1.95v-4.23h-2.717c-1.867 0-3.27.325-4.21.974-.94.65-1.41 1.57-1.41 2.759 0 .968.318 1.742.954 2.323.649.566 1.514.85 2.592.85zm19.36-18.809l.145 2.592c1.66-2.005 3.837-3.007 6.533-3.007 4.673 0 7.052 2.675 7.134 8.026v14.828h-5.039V17.317c0-1.424-.311-2.475-.933-3.152-.609-.691-1.611-1.037-3.008-1.037-2.032 0-3.546.92-4.541 2.758v15.97h-5.04V9.415h4.749zm25.831 12.816l-2.24 2.302v7.321h-5.039V0h5.039v18.375l1.577-1.97 6.201-6.99h6.055l-8.337 9.354 9.229 13.086h-5.828l-6.657-9.623z" fill="#141414"/></svg>