<svg width="238" height="37" viewBox="0 0 238 37" fill="none" xmlns="http://www.w3.org/2000/svg"><circle cx="8.059" cy="8.059" r="8.059" fill="#141414"/><circle cx="27.702" cy="8.059" r="8.059" fill="#141414"/><circle cx="8.059" cy="28.206" r="8.059" fill="#141414"/><circle cx="27.702" cy="28.206" r="8.059" fill="#141414"/><path d="M49.084 36.264h-5.95V1.89h5.95v34.375zm5.23-12.961c0-3.935.913-7.091 2.74-9.468 1.825-2.392 4.272-3.588 7.342-3.588 2.707 0 4.895.944 6.563 2.833V0h5.737v36.264h-5.194l-.283-2.644c-1.716 2.078-4.006 3.117-6.87 3.117-2.991 0-5.415-1.205-7.272-3.613-1.842-2.408-2.763-5.682-2.763-9.821zm5.737.495c0 2.598.496 4.628 1.488 6.092 1.007 1.448 2.432 2.172 4.273 2.172 2.346 0 4.061-1.047 5.147-3.14V18.014c-1.054-2.046-2.754-3.07-5.1-3.07-1.857 0-3.29.74-4.296 2.22-1.008 1.464-1.512 3.675-1.512 6.634zm33.397 12.939c-3.636 0-6.587-1.142-8.854-3.424-2.25-2.298-3.376-5.351-3.376-9.16v-.709c0-2.55.488-4.824 1.464-6.823.991-2.014 2.376-3.58 4.155-4.698 1.779-1.118 3.762-1.676 5.95-1.676 3.478 0 6.162 1.11 8.051 3.329 1.904 2.219 2.856 5.359 2.856 9.42v2.314H87.002c.174 2.109.874 3.777 2.102 5.005 1.243 1.227 2.801 1.841 4.674 1.841 2.629 0 4.77-1.062 6.422-3.187l3.093 2.951c-1.023 1.527-2.392 2.715-4.108 3.565-1.7.834-3.612 1.252-5.737 1.252zm-.685-21.887c-1.574 0-2.849.551-3.825 1.653-.96 1.102-1.574 2.637-1.841 4.604h10.931v-.425c-.126-1.92-.637-3.368-1.535-4.344-.897-.992-2.14-1.488-3.73-1.488zm30.185 21.414c-.251-.488-.472-1.282-.661-2.384-1.825 1.904-4.06 2.857-6.705 2.857-2.565 0-4.659-.732-6.28-2.196-1.621-1.464-2.432-3.274-2.432-5.43 0-2.723 1.008-4.809 3.022-6.257 2.031-1.464 4.927-2.196 8.689-2.196h3.518v-1.676c0-1.322-.37-2.377-1.11-3.164-.74-.802-1.865-1.204-3.376-1.204-1.307 0-2.377.33-3.211.992-.834.645-1.252 1.472-1.252 2.479h-5.737c0-1.4.465-2.707 1.393-3.92.929-1.227 2.188-2.187 3.778-2.88 1.605-.692 3.392-1.038 5.359-1.038 2.991 0 5.375.755 7.154 2.266 1.779 1.495 2.691 3.604 2.739 6.327v11.522c0 2.298.322 4.132.968 5.501v.401h-5.856zm-6.303-4.131a6.46 6.46 0 003.187-.827c1.007-.55 1.763-1.29 2.267-2.219v-4.816h-3.093c-2.125 0-3.723.37-4.793 1.11-1.07.74-1.606 1.786-1.606 3.14 0 1.101.362 1.983 1.087 2.644.739.645 1.723.968 2.951.968zm17.271 4.131V1.89h11.781c3.888 0 6.847.779 8.877 2.337 2.03 1.558 3.046 3.88 3.046 6.965 0 1.574-.425 2.99-1.275 4.25-.85 1.259-2.094 2.235-3.731 2.927 1.858.504 3.29 1.456 4.297 2.857 1.023 1.385 1.535 3.054 1.535 5.005 0 3.227-1.039 5.706-3.116 7.437-2.062 1.732-5.021 2.597-8.878 2.597h-12.536zm5.973-15.511v10.742h6.634c1.873 0 3.337-.464 4.392-1.393 1.054-.928 1.581-2.219 1.581-3.872 0-3.573-1.825-5.399-5.477-5.477h-7.13zm0-4.392h5.855c1.857 0 3.305-.417 4.344-1.25 1.055-.85 1.582-2.047 1.582-3.59 0-1.7-.488-2.927-1.464-3.683-.96-.755-2.463-1.133-4.509-1.133h-5.808v9.656zm38.756 19.903c-.252-.488-.473-1.282-.662-2.384-1.825 1.904-4.06 2.857-6.705 2.857-2.565 0-4.659-.732-6.28-2.196-1.621-1.464-2.432-3.274-2.432-5.43 0-2.723 1.008-4.809 3.022-6.257 2.031-1.464 4.927-2.196 8.689-2.196h3.518v-1.676c0-1.322-.37-2.377-1.11-3.164-.74-.802-1.865-1.204-3.376-1.204-1.307 0-2.377.33-3.211.992-.834.645-1.252 1.472-1.252 2.479h-5.737c0-1.4.465-2.707 1.393-3.92.929-1.227 2.188-2.187 3.778-2.88 1.605-.692 3.392-1.038 5.359-1.038 2.991 0 5.375.755 7.154 2.266 1.779 1.495 2.691 3.604 2.739 6.327v11.522c0 2.298.322 4.132.968 5.501v.401h-5.855zm-6.304-4.131a6.46 6.46 0 003.187-.827c1.007-.55 1.763-1.29 2.267-2.219v-4.816h-3.093c-2.125 0-3.723.37-4.793 1.11-1.07.74-1.606 1.786-1.606 3.14 0 1.101.362 1.983 1.087 2.644.739.645 1.723.968 2.951.968zm22.04-21.414l.165 2.951c1.889-2.282 4.368-3.423 7.437-3.423 5.32 0 8.027 3.045 8.122 9.137v16.88h-5.737v-16.55c0-1.621-.355-2.817-1.063-3.589-.692-.787-1.833-1.18-3.423-1.18-2.314 0-4.037 1.047-5.171 3.14v18.18h-5.737V10.718h5.407zm29.406 14.591l-2.55 2.62v8.334H215.5V0h5.737v20.918l1.795-2.243 7.059-7.956h6.894l-9.491 10.648L238 36.264h-6.634l-7.579-10.955z" fill="#141414"/></svg>