<svg width="249" height="27" viewBox="0 0 249 27" fill="none" xmlns="http://www.w3.org/2000/svg"><path d="M28.002 0H0v26.99h28.002V0z" fill="#141414"/><path d="M28.002 20.639c-3.345-.38-8.246-1.49-10.034-5.338-.789-1.704-.506-3.876.788-5.143 1.93-1.88 5.871-2.64 9.246-2.561V4.733c-3.547.205-11.095 1.276-11.944 7.89-.586 4.558 3.658 6.915 4.395 7.47 1.991 1.062 4.639 1.705 7.55 1.832v-1.286zm-20.08-7.47c1.153-.38 2.911-.975 3.881-.079 1.324 1.228 1 3.76.334 6.331-.708 2.757-2.183 5.562-3.234 7.578h.182c.94-1.149 1.94-2.649 2.91-4.441.677-1.257 1.991-4.88 1.97-7.89-.01-1.266-.09-2.542-.747-3.273-.89-.993-2.658-.925-3.739-.75-3.436.556-6.912 3-9.479 6.137v2.113c1.758-2.522 5.912-5.074 7.923-5.727zM12.966.534c.04.03.071.058.101.107.101.137.172.38.233.76.253 1.734.94 5.416-1.354 7.217-1.789 1.403-5.316.614-6.963-.39C4.214 7.773 1.607 5.825.768 3.72c-.303-.76.394-1.237.758-1.052.475.234 1.01.964 1.354 1.393 2.112 2.718 4.517 4.218 6.7 4.227 3.668.01 3.143-4.178 3.042-7.558 0-.03 0-.175.162-.234.03 0 .151.02.181.04z" fill="#fff"/><path d="M246.201 11.299c0-.974-1.627-2.026-4.083-2.026h-18.614v4.052h18.614c2.456 0 4.083-1.062 4.083-2.026zm2.799 0c0 2.61-3.082 4.724-6.882 4.724h-18.614v4.918h-2.799V6.574h21.413c3.8 0 6.882 2.104 6.882 4.725zm-34.227 2.454c0-2.415-4.518-4.86-13.148-4.86-8.63 0-13.147 2.444-13.147 4.86 0 1.919 5.245 4.812 13.147 4.812 7.903 0 13.148-2.893 13.148-4.812zm-13.148-7.558c10.54 0 15.947 3.399 15.947 7.558 0 4.16-7.145 7.51-15.947 7.51-8.811 0-15.946-3.35-15.946-7.51s5.416-7.558 15.946-7.558zm-15.946.38h-28.376v2.698h12.793V20.94h2.799V9.273h12.794V6.574h-.01zm-31.994 8.444l-6.376-5.63-6.377 5.63h12.753zm3.061 2.698H137.88l-3.658 3.224h-4.144l17.231-15.214 17.229 15.214h-4.143l-3.649-3.224zm-27.335-5.026h-16.734v2.698h13.935v1.354c-2.283 1.043-5.993 1.822-10.6 1.822-7.902 0-13.148-2.893-13.148-4.812 0-2.415 4.518-4.86 13.148-4.86 5.507 0 9.337.993 11.389 2.347L128.957 9c-2.628-1.705-6.953-2.805-12.945-2.805-10.54 0-15.947 3.399-15.947 7.558 0 4.16 7.145 7.51 15.947 7.51 5.618 0 10.56-1.13 13.399-3.03v-5.542zM65.838 6.574L53.68 17.747 41.514 6.574h-3.456v14.367h2.799V9.876l12.046 11.065h1.546L66.495 9.876v11.065h2.799V6.574h-3.456zm10.398 2.699v2.824h20.322v2.698H76.236v3.448h21.212v2.698h-24.01V6.574h24.01v2.699H76.236z" fill="#000"/></svg>