<svg width="138" height="35" viewBox="0 0 138 35" fill="none" xmlns="http://www.w3.org/2000/svg"><path d="M12.263.409c-2.55 0-5.61 2.432-8.09 6.515C1.53 11.191 0 16.422 0 20.988c0 6.699 3.779 13.42 12.263 13.42s12.263-6.721 12.263-13.42c0-4.566-1.53-9.82-4.173-14.04-2.48-4.107-5.54-6.54-8.09-6.54zm66.23 10.002h8.577v22.14h9.203V10.41h8.577V2.22H78.493v8.19zm46.015 0H138v-8.19h-13.492c-12.402 0-19.009 6.103-19.009 15.188s6.63 15.187 19.009 15.187H138v-8.213h-13.492c-5.749 0-9.481-2.042-9.481-6.974 0-4.933 3.732-6.998 9.481-6.998zM59.785 2.244l-4.914 18.124-4.915-18.124h-16.25V32.62h9.203V7.888l6.7 24.685h10.547l6.7-24.708v24.708h9.203V2.244H59.785z" fill="#141414"/></svg>