<svg width="108" height="80" viewBox="0 0 108 80" fill="none" xmlns="http://www.w3.org/2000/svg"><path fill-rule="evenodd" clip-rule="evenodd" d="M91.807 0c3.557 1.085 7.055 1.764 10.254 3.324 2.007.98 3.698 2.3 4.776 4.262 1.042 1.894.954 3.746-.287 5.53-.982 1.411-2.335 2.407-3.834 3.241-3.175 1.768-6.363 3.516-9.351 5.58-1.195.825-2.382 1.67-3.267 2.831-.199.26-.353.228-.605.121-2.632-1.119-5.33-2.066-8.071-2.922.061-.342.377-.282.572-.354 5.237-1.957 10.458-3.946 15.346-6.663a17.934 17.934 0 002.737-1.845c2.486-2.056.973-4.917-1.064-5.798-.47-.203-.91-.209-1.371.118-10.555 7.468-22.431 11.72-35.257 13.556-15.296 2.19-30.394 1.218-45.24-3.035-4.928-1.412-9.686-3.237-14.008-6.003C1.992 11.21.919 10.387 0 9.378c1.81 1.051 3.65 2.033 5.567 2.877 5.573 2.454 11.43 3.967 17.454 4.855 16.904 2.494 33.579 1.32 50.013-3.176 5.727-1.566 11.239-3.693 16.415-6.587.73-.408 1.444-.838 2.06-1.402 1.688-1.546 1.942-3.267.772-5.207-.123-.203-.256-.4-.474-.738z" fill="#141414"/><path fill-rule="evenodd" clip-rule="evenodd" d="M0 46.084c28.893-26.392 77.017-26.959 106.595-1.146-.159.118-.249-.035-.34-.1-11.61-8.327-24.566-13.183-38.797-14.684-15.076-1.59-29.55.652-43.363 6.9A76.103 76.103 0 009.65 45.62c-.43.324-.854.481-1.403.476-2.703-.024-5.405-.01-8.246-.01zm64.341 33.622c-2.76-.577-5.118-1.866-7.324-3.412-4.414-3.092-7.701-7.064-10.162-11.654-.296-.552-.604-.775-1.288-.754-2.06.065-2.075.033-2.027 2.002.046 1.902.104 3.805.197 5.705.024.503-.111.669-.662.647a37.04 37.04 0 00-3.046 0c-.571.024-.674-.173-.649-.66.22-4.317.292-8.637.175-12.957-.038-1.414-.11-2.827-.166-4.24-.01-.276-.116-.583.39-.57 3.482.082 6.977-.23 10.444.19 2.1.254 3.876 1.103 4.447 3.231.798 2.972-.822 5.605-3.358 6.19-.436.1-.325.284-.188.542 1.996 3.77 4.404 7.284 7.374 10.451 1.795 1.914 3.761 3.657 5.843 5.29zM43.628 56.69c.011.77-.116 3.804-.116 4.55 0 .231-.033.48.351.469 1.53-.045 3.08.15 4.58-.288 1.56-.457 2.195-1.458 1.998-3.104-.156-1.297-1.095-2.107-2.64-2.171-1.204-.05-2.414.013-3.62-.01-.46-.008-.558.189-.553.554zm-8.096 6.174c-.035 1.77-.17 3.425-.661 5.033-.905 2.962-2.86 4.536-5.737 4.927-1.756.239-3.505.228-5.245-.148-2.497-.54-4.156-2.113-4.908-4.66-.955-3.238-.96-6.53-.127-9.797.759-2.975 2.62-4.71 5.515-5.183 1.829-.3 3.66-.306 5.474.073 2.756.576 4.409 2.406 5.155 5.218.402 1.516.51 3.07.534 4.537zm-4.01.117c-.007-1.59-.045-3.178-.515-4.71-.453-1.475-1.35-2.483-2.835-2.714-3.509-.548-4.983.776-5.5 3.226-.584 2.765-.597 5.562.028 8.322.535 2.358 1.853 3.294 4.34 3.263 2.303-.028 3.598-1.088 4.122-3.38.3-1.317.36-2.66.36-4.007zm-18.924 4.24a98.873 98.873 0 00-.003-12.485c-.048-.75.152-.92.886-.9 1.903.054 1.906.017 1.818 1.886-.244 5.152-.201 10.303.062 15.452.033.645-.132.826-.771.786-.988-.062-2.116.252-2.935-.126-.823-.381-1.13-1.552-1.657-2.38-2.242-3.52-4.503-7.026-6.886-10.453a1.028 1.028 0 00-.519-.426c0 1.652-.025 3.305.006 4.957.05 2.576.116 5.152.226 7.725.026.594-.14.764-.702.696-.671-.082-1.577.295-1.958-.162-.321-.386-.079-1.251-.05-1.903.219-5.076.227-10.152-.062-15.225-.04-.683.141-.905.814-.817.4.052.827.076 1.218-.003 1.423-.288 2.156.406 2.851 1.569 2.22 3.71 4.57 7.342 7.03 10.901.209.304.421.606.632.908zm94.509-10.501c-1.845-.863-3.678-1.272-5.588-1.218a8.947 8.947 0 00-1.574.17c-1.61.336-2.763 1.305-3.247 3.02-.717 2.539-.841 5.12-.134 7.683.647 2.346 2.235 3.618 4.506 3.728.728.036 1.458.049 2.187.044.501-.003.743-.225.727-.848-.05-1.842-.082-3.685-.353-5.508-.073-.489-.04-.684.481-.663 1.005.039 2.012.015 3.018.009.293-.002.465.036.418.448-.32 2.75-.268 5.515-.21 8.277.012.562-.118.752-.658.727-1.387-.065-2.754.252-4.134.336-1.359.083-2.716.115-4.063-.152-2.927-.582-4.836-2.42-5.686-5.472-.777-2.786-.8-5.623-.111-8.427.912-3.708 3.21-5.616 7.116-5.973 2.265-.207 4.525.008 6.782.221.356.034.544.128.531.573-.028.972-.008 1.946-.008 3.026zM77.05 62.866c.04-2.801-.067-5.6-.214-8.395-.028-.523.085-.696.68-.693 4.126.024 8.252.023 12.379 0 .576-.003.725.151.72.68-.014 1.631.01 1.634-1.723 1.621-2.362-.017-4.724-.018-7.085-.074-.617-.015-.79.154-.784.718.01 1.119-.03 2.24-.107 3.357-.037.535.189.621.693.619 2.389-.011 4.779.009 7.163-.15.644-.043.897.072.876.748-.05 1.543-.009 1.555-1.654 1.504a154.39 154.39 0 00-6.35-.083c-.531.006-.768.096-.744.667.082 1.932.125 3.866.14 5.8.003.545.209.666.759.654 2.877-.062 5.754-.065 8.63-.14.663-.016.812.17.8.757-.03 1.552-.002 1.553-1.648 1.553-3.99 0-7.981-.014-11.972.015-.65.004-.812-.16-.78-.763.148-2.796.252-5.594.222-8.395zM65.061 68.55c.927-2.761 1.866-5.52 2.775-8.287.627-1.905 1.225-3.82 1.805-5.738.137-.45.313-.683.86-.64.661.052 1.331.035 1.996.006.496-.02.58.097.4.55a503.467 503.467 0 00-2.667 6.902c-1.263 3.328-2.48 6.671-3.518 10.07-.148.484-.382.625-.89.604-.93-.04-1.867-.05-2.796.003-.622.036-.867-.196-1.055-.733-1.875-5.344-3.802-10.671-5.918-15.935-.585-1.454-.583-1.472 1.064-1.448.978.013 2.2-.378 2.863.154.618.496.658 1.647.943 2.513 1.312 4.001 2.621 8.004 3.932 12.005l.206-.025z" fill="#141414"/></svg>