<svg width="362" height="67" viewBox="0 0 362 67" fill="none" xmlns="http://www.w3.org/2000/svg"><path fill-rule="evenodd" clip-rule="evenodd" d="M.173.17h60.654v55.578H24.02l2.246-4.944-15.898 15.855V55.748H.173V.17zm14.399 16.551c-2.918 3.048-4.377 6.851-4.377 11.409 0 4.764 1.474 8.627 4.42 11.586 2.946 2.96 6.679 4.44 11.198 4.44 4.49 0 8.223-1.51 11.198-4.529 2.975-3.019 4.462-6.85 4.462-11.497 0-4.765-1.487-8.627-4.462-11.587-2.946-2.959-6.679-4.439-11.198-4.439-4.548 0-8.295 1.54-11.241 4.617zm4.076 19.222c-1.917-2.102-2.875-4.706-2.875-7.813 0-3.197.944-5.816 2.832-7.858 1.916-2.042 4.319-3.063 7.208-3.063 2.86 0 5.248 1.021 7.165 3.063 1.945 2.042 2.917 4.662 2.917 7.858 0 3.137-.915 5.741-2.745 7.813-1.802 2.071-4.248 3.107-7.337 3.107-2.832 0-5.22-1.036-7.165-3.107zm27.664-.359l-.519-23.48h6.339l-.895 23.48h-4.925zm-.173 2.945v5.37h5.53v-5.37h-5.53z" fill="#141414"/><path d="M60.827.17h.087V.086h-.087v.086zM.173.17V.086H.086v.086h.087zm60.654 55.578v.086h.087v-.086h-.087zm-36.807 0l-.079-.035-.055.12h.134v-.085zm2.246-4.944l.08.035-.141-.095.061.06zM10.368 66.66h-.086v.208l.148-.148-.062-.06zm0-10.91h.087v-.086h-.087v.085zm-10.195 0H.086v.084h.087v-.085zm14.399-39.03l-.063-.058.063.058zm.043 22.995l.061-.06-.061.06zm22.396-.089l-.062-.059.062.06zm0-23.083l-.062.06.062-.06zm-18.363 19.4l-.065.057h.001l.064-.057zm-.043-15.67l-.064-.058.064.058zm14.373 0l-.063.058.063-.058zm.172 15.67l-.066-.056.066.056zm12.643-23.838v-.086h-.088l.002.087.086-.002zm.519 23.48l-.087.001.002.084h.085v-.086zm5.82-23.48l.086.003.003-.089h-.09v.085zm-.895 23.48v.085h.083l.003-.082-.086-.004zM46.139 43.9h-.087v.085h.087V43.9zm0-5.37v-.086h-.087v.085h.087zm5.53 5.37v.085h.086V43.9h-.086zm0-5.37h.086v-.086h-.086v.085zM60.827.084H.173v.17h60.654v-.17zm.087 55.663V.171h-.173v55.577h.173zm-36.894.086h36.807v-.17H24.02v.17zm2.168-5.065l-2.247 4.944.158.07 2.246-4.944-.157-.07zM10.43 66.72l15.898-15.855-.123-.12L10.307 66.6l.123.12zm-.148-10.97v10.91h.173V55.75h-.173zm-10.11.084h10.196v-.17H.173v.17zM.087.172v55.577H.26V.171H.086zM10.282 28.13c0-4.538 1.452-8.32 4.353-11.35l-.126-.117c-2.934 3.065-4.4 6.89-4.4 11.467h.173zm4.394 11.527c-2.928-2.942-4.394-6.781-4.394-11.527h-.173c0 4.783 1.48 8.668 4.444 11.646l.123-.12zm11.137 4.413c-4.498 0-8.208-1.472-11.137-4.413l-.123.119c2.964 2.977 6.72 4.465 11.26 4.465v-.17zm11.136-4.502c-2.957 3.001-6.667 4.502-11.136 4.502v.17c4.513 0 8.268-1.517 11.26-4.553l-.124-.119zm4.438-11.438c0 4.627-1.48 8.437-4.438 11.438l.124.119c2.992-3.036 4.486-6.891 4.486-11.557h-.172zM36.95 16.604c2.956 2.94 4.437 6.78 4.437 11.526h.172c0-4.784-1.494-8.669-4.487-11.646l-.122.12zM25.813 12.19c4.498 0 8.208 1.472 11.136 4.413l.124-.119c-2.964-2.977-6.72-4.465-11.26-4.465v.17zm-11.178 4.59c2.928-3.06 6.652-4.59 11.178-4.59v-.17c-4.57 0-8.34 1.547-11.304 4.643l.126.117zm1.052 11.35c0 3.126.964 5.751 2.897 7.87l.128-.114c-1.9-2.084-2.852-4.667-2.852-7.756h-.173zm2.854-7.915c-1.905 2.06-2.854 4.701-2.854 7.915h.173c0-3.178.938-5.776 2.809-7.8l-.128-.115zm7.272-3.09c-2.912 0-5.338 1.03-7.272 3.09l.127.116c1.9-2.025 4.28-3.036 7.145-3.036v-.17zm7.228 3.09c-1.933-2.06-4.344-3.09-7.228-3.09v.17c2.837 0 5.202 1.011 7.102 3.035l.126-.115zm2.94 7.915c0-3.215-.978-5.856-2.94-7.916l-.126.117c1.928 2.024 2.894 4.621 2.894 7.799h.173zm-2.766 7.869c1.846-2.09 2.767-4.715 2.767-7.869h-.173c0 3.12-.91 5.703-2.724 7.757l.13.112zm-7.402 3.136c3.11 0 5.582-1.044 7.402-3.136l-.131-.111c-1.784 2.05-4.204 3.077-7.271 3.077v.17zm-7.229-3.134c1.961 2.089 4.373 3.135 7.229 3.135v-.17c-2.807 0-5.173-1.027-7.102-3.081l-.127.116zm27.123-23.895l.518 23.48.173-.003-.518-23.48-.173.003zm6.425-.087h-6.339v.17h6.339v-.17zm-.809 23.569l.895-23.48-.173-.007-.895 23.48.173.007zm-5.011.082h4.925v-.17h-4.925v.17zm-.087 8.23v-5.37h-.173v5.37h.173zm5.444-.085h-5.53v.17h5.53v-.17zm-.087-5.285v5.37h.173v-5.37h-.173zm-5.443.085h5.53v-.17h-5.53v.17zm67.154 12.87h-8.694L91.744 28.16v23.325H83V14h8.744l12.83 23.325V14h8.719v37.485zM147.273 14v24.535c0 2.78-.573 5.192-1.719 7.235-1.146 2.025-2.79 3.57-4.933 4.634-2.142 1.064-4.675 1.596-7.598 1.596-4.418 0-7.897-1.184-10.438-3.553-2.541-2.368-3.836-5.612-3.886-9.732V14h8.794v24.896c.099 4.102 1.943 6.153 5.53 6.153 1.81 0 3.181-.515 4.111-1.545.93-1.03 1.395-2.703 1.395-5.02V14h8.744zm18.958 24.252h-4.734v13.233h-8.744V14h14.275c4.301 0 7.664.987 10.089 2.96 2.425 1.974 3.637 4.764 3.637 8.368 0 2.609-.514 4.771-1.544 6.488-1.013 1.716-2.608 3.106-4.783 4.17L182 51.1v.386h-9.367l-6.402-13.233zm-4.734-6.977h5.531c1.661 0 2.906-.446 3.737-1.339.847-.91 1.27-2.17 1.27-3.784 0-1.614-.423-2.875-1.27-3.785-.847-.927-2.093-1.39-3.737-1.39h-5.531v10.298zm55.911-10.339h-9.987v30.576h-5.522V20.936H192v-4.982h25.408v4.982zM229.616 52c-3.387 0-6.137-1.18-8.249-3.541-2.097-2.377-3.145-5.536-3.145-9.476v-.732c0-2.638.454-4.99 1.363-7.058.924-2.084 2.215-3.704 3.872-4.86 1.657-1.156 3.505-1.734 5.544-1.734 3.241 0 5.741 1.148 7.501 3.443 1.774 2.296 2.662 5.544 2.662 9.745v2.393h-15.553c.161 2.182.814 3.907 1.958 5.177 1.158 1.27 2.61 1.905 4.355 1.905 2.45 0 4.444-1.099 5.984-3.297l2.882 3.053a10.081 10.081 0 01-3.828 3.688c-1.584.863-3.366 1.294-5.346 1.294zm-.637-22.639c-1.467 0-2.655.57-3.564 1.71-.895 1.14-1.467 2.727-1.716 4.762h10.185v-.44c-.117-1.986-.594-3.484-1.43-4.493-.836-1.026-1.994-1.539-3.475-1.539zm20.04 22.151h-5.346V14h5.346v37.512zm16.322.488c-3.388 0-6.137-1.18-8.249-3.541-2.097-2.377-3.146-5.536-3.146-9.476v-.732c0-2.638.455-4.99 1.364-7.058.924-2.084 2.215-3.704 3.872-4.86 1.657-1.156 3.505-1.734 5.543-1.734 3.241 0 5.742 1.148 7.501 3.443 1.775 2.296 2.662 5.544 2.662 9.745v2.393h-15.552c.161 2.182.814 3.907 1.957 5.177 1.159 1.27 2.611 1.905 4.356 1.905 2.449 0 4.444-1.099 5.984-3.297l2.881 3.053a10.071 10.071 0 01-3.827 3.688c-1.584.863-3.366 1.294-5.346 1.294zm-.638-22.639c-1.466 0-2.654.57-3.564 1.71-.894 1.14-1.466 2.727-1.715 4.762h10.185v-.44c-.118-1.986-.594-3.484-1.43-4.493-.836-1.026-1.995-1.539-3.476-1.539zm24.132 17.901c1.334 0 2.442-.431 3.322-1.294.879-.863 1.349-1.93 1.407-3.2h5.038a9.452 9.452 0 01-1.386 4.616 9.471 9.471 0 01-3.52 3.37A9.645 9.645 0 01288.901 52c-3.329 0-5.969-1.197-7.919-3.59-1.951-2.393-2.926-5.698-2.926-9.915v-.61c0-4.022.968-7.238 2.904-9.647 1.935-2.426 4.575-3.639 7.919-3.639 2.83 0 5.133.92 6.907 2.76 1.789 1.823 2.728 4.224 2.816 7.204h-5.038c-.058-1.514-.528-2.76-1.407-3.737-.866-.976-1.973-1.465-3.322-1.465-1.731 0-3.065.7-4.004 2.1-.938 1.384-1.415 3.493-1.43 6.326v.952c0 2.866.462 5.007 1.386 6.423.939 1.4 2.288 2.1 4.048 2.1zm12.803-9.207c0-2.588.462-4.917 1.386-6.984.923-2.084 2.221-3.68 3.893-4.787 1.672-1.123 3.593-1.685 5.764-1.685 3.211 0 5.814 1.148 7.809 3.443 2.009 2.296 3.094 5.34 3.256 9.134l.022 1.392c0 2.605-.455 4.933-1.364 6.985-.895 2.051-2.185 3.639-3.872 4.762-1.672 1.123-3.608 1.685-5.807 1.685-3.359 0-6.05-1.237-8.074-3.712-2.009-2.491-3.013-5.804-3.013-9.94v-.293zm5.345.513c0 2.72.506 4.852 1.518 6.399 1.012 1.53 2.42 2.295 4.224 2.295 1.803 0 3.204-.781 4.201-2.344 1.012-1.563 1.518-3.85 1.518-6.863 0-2.67-.521-4.786-1.562-6.35-1.026-1.562-2.427-2.344-4.201-2.344-1.746 0-3.131.773-4.158 2.32-1.027 1.53-1.54 3.826-1.54 6.887zm26.332-13.481l.154 2.76c1.672-2.165 3.959-3.248 6.863-3.248 3.182 0 5.36 1.351 6.533 4.054 1.731-2.703 4.165-4.054 7.304-4.054 2.625 0 4.575.806 5.851 2.418 1.291 1.611 1.951 3.989 1.98 7.13v17.365h-5.345V34.319c0-1.677-.33-2.906-.99-3.688-.66-.781-1.753-1.172-3.278-1.172-1.217 0-2.215.366-2.992 1.099-.762.716-1.298 1.66-1.606 2.833l.022 18.12h-5.345V34.124c-.073-3.11-1.503-4.664-4.29-4.664-2.141 0-3.659.969-4.553 2.906v19.147h-5.346V25.087h5.038z" fill="#000"/></svg>