<svg width="308" height="58" viewBox="0 0 308 58" fill="none" xmlns="http://www.w3.org/2000/svg"><g clip-path="url(#clip0)"><path fill-rule="evenodd" clip-rule="evenodd" d="M.145.948h50.71V48.23H20.083l1.878-4.206L8.67 57.513V48.23H.145V.948zm12.038 14.08c-2.44 2.593-3.659 5.829-3.659 9.706 0 4.053 1.232 7.34 3.695 9.857 2.463 2.518 5.584 3.777 9.362 3.777 3.755 0 6.876-1.284 9.363-3.853 2.487-2.568 3.73-5.828 3.73-9.781 0-4.054-1.243-7.34-3.73-9.857C28.48 12.359 25.36 11.1 21.58 11.1c-3.802 0-6.935 1.31-9.398 3.928zm3.408 16.353c-1.602-1.788-2.403-4.003-2.403-6.647 0-2.72.789-4.947 2.367-6.685 1.602-1.737 3.611-2.605 6.026-2.605 2.392 0 4.389.868 5.991 2.605 1.626 1.738 2.44 3.966 2.44 6.685 0 2.669-.766 4.884-2.297 6.647-1.506 1.762-3.55 2.643-6.134 2.643-2.367 0-4.364-.88-5.99-2.643zm23.129-.305L38.286 11.1h5.3l-.749 19.976H38.72zm-.145 2.505v4.569h4.623v-4.569h-4.623z" fill="#141414"/><path d="M50.856.948h.073V.876h-.073v.072zm-50.71 0V.876H.072v.072h.072zm50.71 47.283v.072h.073v-.072h-.073zm-30.773 0l-.066-.03-.045.102h.111v-.072zm1.878-4.206l.066.03-.117-.081.051.05zM8.67 57.513h-.073v.177l.124-.126-.051-.05zm0-9.282h.072v-.073H8.67v.073zm-8.525 0H.073v.072h.072v-.072zm12.039-33.202l-.053-.05.053.05zm.036 19.563l.051-.051-.051.05zm18.725-.076l-.052-.05.052.05zm0-19.638l-.052.05.052-.05zM15.592 31.382l-.054.048.054-.048zm-.036-13.332l-.053-.05v.001l.053.05zm12.017 0l-.053.05.053-.05zm.143 13.332l-.054-.048.054.048zm10.571-20.28v-.073h-.074l.002.074.072-.002zm.434 19.974l-.073.002.002.071h.07v-.073zm4.866-19.975l.072.003.002-.075h-.075v.072zm-.749 19.975v.073h.07l.002-.07-.072-.003zm-4.262 7.075h-.072v.072h.072v-.072zm0-4.569v-.072h-.072v.072h.072zm4.623 4.569v.072h.073v-.072h-.073zm0-4.569h.073v-.072h-.073v.072zM50.856.876H.146v.145h50.71V.876zm.073 47.355V.948h-.145v47.283h.145zm-30.846.072h30.773v-.145H20.083v.145zm1.813-4.308l-1.879 4.206.132.06 1.878-4.206-.132-.06zM8.72 57.565l13.292-13.49-.103-.101L8.618 57.462l.103.102zm-.124-9.334v9.282h.145v-9.282h-.145zm-8.452.072H8.67v-.145H.145v.145zM.073.949v47.283h.145V.948H.073zm8.524 23.787c0-3.86 1.214-7.078 3.64-9.656l-.106-.1c-2.453 2.608-3.678 5.862-3.678 9.756h.144zm3.674 9.806c-2.448-2.502-3.674-5.769-3.674-9.806h-.144c0 4.07 1.237 7.374 3.715 9.908l.103-.102zm9.311 3.755c-3.76 0-6.862-1.252-9.31-3.755l-.104.102c2.478 2.532 5.618 3.798 9.414 3.798v-.145zm9.31-3.83c-2.472 2.553-5.574 3.83-9.31 3.83v.145c3.773 0 6.913-1.291 9.414-3.874l-.103-.101zm3.711-9.731c0 3.936-1.238 7.178-3.71 9.73l.103.102c2.502-2.583 3.752-5.863 3.752-9.832h-.145zm-3.71-9.806c2.472 2.502 3.71 5.768 3.71 9.806h.145c0-4.07-1.25-7.375-3.752-9.908l-.103.102zm-9.31-3.755c3.76 0 6.862 1.252 9.31 3.755l.103-.102c-2.478-2.533-5.617-3.798-9.414-3.798v.145zm-9.346 3.905c2.448-2.603 5.561-3.905 9.345-3.905v-.145c-3.82 0-6.973 1.316-9.45 3.95l.104.1zm.88 9.656c0 2.66.806 4.893 2.421 6.695l.107-.097c-1.589-1.773-2.384-3.97-2.384-6.598h-.145zM15.501 18c-1.592 1.753-2.386 4-2.386 6.734h.145c0-2.704.784-4.914 2.348-6.636L15.501 18zm6.08-2.63c-2.435 0-4.463.877-6.08 2.63l.107.098c1.588-1.722 3.577-2.582 5.973-2.582v-.145zM27.625 18c-1.616-1.752-3.633-2.63-6.044-2.63v.146c2.372 0 4.35.86 5.938 2.582l.106-.098zm2.458 6.734c0-2.735-.818-4.982-2.459-6.735l-.105.1c1.612 1.722 2.42 3.931 2.42 6.635h.144zm-2.313 6.694c1.543-1.777 2.313-4.01 2.313-6.694h-.144c0 2.654-.76 4.852-2.278 6.599l.109.095zm-6.189 2.669c2.601 0 4.667-.889 6.189-2.67l-.11-.094c-1.49 1.745-3.514 2.619-6.079 2.619v.145zM15.54 31.43c1.64 1.777 3.655 2.667 6.043 2.667v-.145c-2.347 0-4.325-.873-5.937-2.62l-.106.098zm22.676-20.328l.433 19.975.145-.003-.434-19.975-.144.003zm5.371-.074h-5.299v.145h5.3v-.145zm-.676 20.05l.749-19.975-.145-.006-.748 19.976.144.005zm-4.19.07h4.118v-.145h-4.117v.145zm-.072 7.002v-4.569h-.144v4.569h.144zm4.551-.073h-4.623v.145H43.2v-.145zm-.072-4.496v4.569h.145v-4.569h-.145zm-4.55.073H43.2v-.145h-4.623v.145z" fill="#000"/></g><path d="M98.48 42.396h-7.027L81.066 23.982v18.414H74V12.803h7.066l10.367 18.414V12.803h7.046v29.593zm27.458-29.593v19.37c0 2.195-.463 4.099-1.389 5.711-.926 1.599-2.255 2.819-3.986 3.659-1.732.84-3.778 1.26-6.14 1.26-3.57 0-6.382-.935-8.435-2.805-2.053-1.87-3.1-4.431-3.14-7.683V12.803h7.106v19.654c.08 3.239 1.57 4.858 4.469 4.858 1.463 0 2.57-.407 3.321-1.22.752-.813 1.128-2.134 1.128-3.963v-19.33h7.066zm15.319 19.147h-3.825v10.446h-7.066V12.803h11.535c3.476 0 6.194.779 8.153 2.337 1.96 1.558 2.939 3.76 2.939 6.606 0 2.06-.416 3.767-1.248 5.122-.818 1.355-2.107 2.452-3.865 3.293L154 42.09v.305h-7.569l-5.174-10.447zm-3.825-5.51h4.469c1.342 0 2.349-.351 3.02-1.056.684-.718 1.027-1.714 1.027-2.988s-.343-2.27-1.027-2.988c-.684-.731-1.691-1.097-3.02-1.097h-4.469v8.13zm45.538-8.797h-8.636v25.748h-4.774V17.643H161v-4.195h21.97v4.195zm10.557 26.16c-2.929 0-5.307-.994-7.133-2.982-1.813-2.002-2.72-4.662-2.72-7.98v-.617c0-2.22.393-4.202 1.179-5.943.799-1.755 1.915-3.12 3.348-4.093 1.433-.973 3.031-1.46 4.794-1.46 2.802 0 4.964.967 6.486 2.9 1.534 1.933 2.302 4.668 2.302 8.206v2.015h-13.449c.14 1.837.704 3.29 1.693 4.36 1.002 1.07 2.257 1.604 3.766 1.604 2.118 0 3.843-.925 5.174-2.776l2.492 2.57a8.605 8.605 0 01-3.31 3.106c-1.369.726-2.91 1.09-4.622 1.09zm-.551-19.064c-1.269 0-2.296.48-3.082 1.44-.774.959-1.268 2.296-1.484 4.01h8.807v-.37c-.101-1.674-.513-2.935-1.236-3.785-.723-.864-1.725-1.296-3.005-1.296zm17.328 18.652h-4.622V11.803h4.622V43.39zm14.114.412c-2.929 0-5.307-.994-7.133-2.982-1.813-2.002-2.72-4.662-2.72-7.98v-.617c0-2.22.393-4.202 1.18-5.943.798-1.755 1.914-3.12 3.347-4.093 1.433-.973 3.031-1.46 4.794-1.46 2.802 0 4.965.967 6.486 2.9 1.535 1.933 2.302 4.668 2.302 8.206v2.015h-13.448c.139 1.837.703 3.29 1.692 4.36 1.002 1.07 2.258 1.604 3.767 1.604 2.118 0 3.842-.925 5.174-2.776l2.492 2.57a8.619 8.619 0 01-3.31 3.106c-1.37.726-2.911 1.09-4.623 1.09zm-.551-19.064c-1.268 0-2.295.48-3.082 1.44-.773.959-1.268 2.296-1.483 4.01h8.807v-.37c-.102-1.674-.514-2.935-1.237-3.785-.723-.864-1.724-1.296-3.005-1.296zm20.867 15.074c1.154 0 2.111-.363 2.872-1.09.761-.727 1.167-1.625 1.217-2.694h4.356a7.798 7.798 0 01-1.198 3.887c-.748 1.193-1.763 2.139-3.043 2.838a8.521 8.521 0 01-4.147 1.049c-2.879 0-5.161-1.008-6.848-3.023-1.687-2.016-2.53-4.799-2.53-8.35v-.514c0-3.387.837-6.094 2.511-8.123 1.674-2.043 3.956-3.065 6.848-3.065 2.447 0 4.438.775 5.973 2.324 1.547 1.536 2.358 3.558 2.434 6.067h-4.356c-.05-1.275-.456-2.324-1.217-3.147-.748-.822-1.706-1.234-2.872-1.234-1.497 0-2.651.59-3.462 1.77-.812 1.165-1.224 2.94-1.237 5.326v.802c0 2.413.4 4.216 1.199 5.408.811 1.18 1.978 1.769 3.5 1.769zm11.07-7.753c0-2.18.4-4.14 1.199-5.882.799-1.755 1.921-3.099 3.367-4.03 1.445-.947 3.106-1.42 4.983-1.42 2.777 0 5.028.967 6.753 2.9 1.737 1.933 2.676 4.497 2.815 7.691l.019 1.173c0 2.193-.393 4.154-1.179 5.881-.774 1.728-1.89 3.065-3.348 4.01-1.446.947-3.12 1.42-5.022 1.42-2.904 0-5.231-1.042-6.981-3.126-1.737-2.098-2.606-4.888-2.606-8.37v-.247zm4.623.432c0 2.29.437 4.085 1.312 5.388.875 1.289 2.093 1.933 3.652 1.933 1.56 0 2.771-.658 3.633-1.974.875-1.316 1.313-3.243 1.313-5.78 0-2.248-.45-4.03-1.351-5.346-.887-1.316-2.098-1.975-3.633-1.975-1.509 0-2.707.652-3.595 1.954-.888 1.289-1.331 3.222-1.331 5.8zm22.769-11.352l.133 2.323c1.445-1.823 3.424-2.735 5.935-2.735 2.751 0 4.635 1.138 5.649 3.414 1.496-2.276 3.601-3.414 6.315-3.414 2.27 0 3.957.679 5.06 2.036 1.116 1.358 1.687 3.36 1.712 6.005v14.622h-4.622V28.913c0-1.412-.286-2.447-.856-3.105-.571-.658-1.516-.987-2.834-.987-1.053 0-1.915.308-2.587.925-.66.603-1.123 1.399-1.389 2.386l.019 15.26h-4.622V28.748c-.064-2.619-1.3-3.928-3.71-3.928-1.851 0-3.163.816-3.937 2.447V43.39h-4.622V21.14h4.356z" fill="#000"/><defs><clipPath id="clip0"><path fill="#fff" transform="translate(0 .803)" d="M0 0h51v57H0z"/></clipPath></defs></svg>