<svg width="246" height="61" viewBox="0 0 246 61" fill="none" xmlns="http://www.w3.org/2000/svg"><path fill-rule="evenodd" clip-rule="evenodd" d="M43.537 0L29.194 15.113l-7.473 7.873 6.965 7.339 14.342-15.113 14.343 15.113-6.87 7.238 7.379 7.776 14.342-15.113L43.537 0z" fill="#141414"/><path fill-rule="evenodd" clip-rule="evenodd" d="M43.537 30.226L29.194 45.337 14.85 30.225l6.87-7.24-7.378-7.773L0 30.325l28.686 30.224 14.342-15.113 7.472-7.874-6.963-7.338v.002zm41.39 3.242c.8 0 1.459-.12 1.958-.377.969-.466 1.411-1.458 1.411-2.797 0-1.11-.414-2.092-1.327-2.677-.527-.316-1.186-.436-2.1-.436h-.798v6.288h.856v-.001zm-4.64-9.52h4.753c1.656 0 3.04.238 4.113.813 1.985.993 3.068 2.886 3.068 5.534 0 2.242-.913 4.631-3.624 5.732-1.026.407-2.286.664-3.896.664h-.64v6.436h-3.784V23.948h.01zM104.4 35.243l-1.075-3.232a54.822 54.822 0 01-.828-2.858h-.057c-.14.676-.412 1.489-.912 2.888l-1.1 3.203h3.972zm-3.53-11.384h3.068l7.435 19.268h-4.066l-1.77-4.69h-6.183l-1.684 4.69h-3.896l7.096-19.268zm17.947 8.796c.829 0 1.355-.148 1.826-.407.715-.466 1.214-1.249 1.214-2.33 0-1.021-.443-1.894-1.242-2.33-.415-.268-.932-.407-1.77-.407h-1.44v5.475h1.412v-.001zm-5.195-8.707h5.439c1.628 0 2.842.259 3.812.724 2.099.962 2.899 2.797 2.899 4.83 0 2.498-1.487 4.254-3.538 4.919v.06c.554.316 1.354 1.367 2.324 3.143l2.955 5.503h-4.339l-2.399-4.601c-.914-1.805-1.554-2.529-1.986-2.648h-1.384v7.25h-3.783v-19.18z" fill="#141414"/><path d="M134.148 23.948h-3.783v19.179h3.783V23.948z" fill="#141414"/><path fill-rule="evenodd" clip-rule="evenodd" d="M141.913 27.33h-5.308v-3.382h14.861l-.999 3.382h-4.77v15.797h-3.784V27.33zm11.679-3.382h10.523l-.999 3.382h-5.741v4.424h5.77v3.34h-5.77v4.662h6.711v3.371h-10.494V23.948zm17.703 3.382h-5.298v-3.382h14.85l-.989 3.382h-4.78v15.797h-3.783V27.33zm16.686 13.992c2.456 0 4.084-1.021 4.084-3.58 0-2.151-1.515-3.52-3.839-3.52h-2.956v7.101h2.711v-.001zm-.724-8.905c2.428 0 3.726-1.25 3.726-3.382 0-1.913-1.054-3.292-3.651-3.292h-2.071v6.664h1.996v.01zm-4.029-8.469h4.226c3.868 0 5.581 2.242 5.581 4.86 0 1.953-.913 3.49-2.4 4.165v.06c2.043.466 3.539 2.24 3.539 4.66 0 3.232-2.156 5.444-6.193 5.444h-4.753V23.948zm23.171 12.227l-1.883-5.533c-.583-1.686-.856-2.588-1.082-3.312h-.057c-.225.734-.526 1.626-1.1 3.312l-1.911 5.534h6.033zM202.7 23.89h1.411l6.965 19.238h-2.212l-1.797-5.146h-7.322l-1.798 5.146h-2.155L202.7 23.89zm24.244 19.238l-8.725-12.167a107.172 107.172 0 01-2.569-3.699h-.056c.056.961.084 1.774.084 3.282v12.575h-2.042v-19.17h1.958l8.394 11.702a139.05 139.05 0 012.654 3.867h.057c-.057-1.021-.057-1.864-.057-3.371V23.948h2.014v19.179h-1.712zm6.192-19.179h2.042v8.787h.057l6.907-8.787h2.429l-7.567 9.49 8.056 9.689h-2.559l-7.266-8.757h-.057v8.757h-2.042v-19.18z" fill="#141414"/></svg>