<svg width="239" height="60" viewBox="0 0 239 60" fill="none" xmlns="http://www.w3.org/2000/svg"><path fill-rule="evenodd" clip-rule="evenodd" d="M42.46 0L28.472 14.74l-7.288 7.678 6.792 7.157 13.988-14.74 13.989 14.74-6.701 7.06 7.196 7.582 13.988-14.739L42.46 0z" fill="#141414"/><path fill-rule="evenodd" clip-rule="evenodd" d="M42.46 29.478l-13.988 14.74-13.988-14.74 6.7-7.06-7.196-7.582L0 29.575l27.976 29.477 13.988-14.739 7.288-7.68-6.792-7.156v.001zm40.366 3.162c.78 0 1.423-.117 1.91-.367.945-.455 1.377-1.423 1.377-2.729 0-1.081-.404-2.04-1.295-2.61-.513-.309-1.156-.425-2.047-.425h-.779v6.132h.834v-.001zm-4.525-9.284h4.636c1.616 0 2.966.232 4.011.793 1.937.967 2.992 2.814 2.992 5.397 0 2.186-.89 4.516-3.534 5.59-1 .396-2.23.647-3.8.647h-.624v6.277h-3.69V23.356h.01-.001zm23.517 11.015l-1.048-3.152a54.304 54.304 0 01-.807-2.787h-.056c-.137.659-.403 1.452-.89 2.816l-1.073 3.125h3.873l.001-.002zM98.376 23.27h2.992l7.251 18.791h-3.966l-1.726-4.575h-6.03l-1.643 4.575h-3.8l6.922-18.791zm17.503 8.578c.808 0 1.321-.144 1.781-.396.697-.455 1.183-1.219 1.183-2.274 0-.995-.431-1.846-1.211-2.272-.404-.261-.909-.396-1.726-.396h-1.404v5.34h1.377v-.002zm-5.066-8.491h5.304c1.588 0 2.772.252 3.718.705 2.047.939 2.827 2.729 2.827 4.71 0 2.437-1.451 4.15-3.451 4.798v.058c.541.31 1.321 1.334 2.267 3.067l2.881 5.366h-4.231l-2.34-4.487c-.891-1.76-1.515-2.466-1.936-2.583h-1.35v7.07h-3.689V23.356z" fill="#141414"/><path d="M130.83 23.356h-3.689V42.06h3.689V23.356z" fill="#141414"/><path fill-rule="evenodd" clip-rule="evenodd" d="M138.403 26.654h-5.176v-3.298h14.493l-.974 3.298h-4.652V42.06h-3.691V26.654zm11.39-3.298h10.263l-.974 3.298h-5.598v4.314h5.626v3.259h-5.626v4.546h6.544v3.287h-10.235V23.356zm17.266 3.298h-5.167v-3.298h14.482l-.963 3.298h-4.663V42.06h-3.689V26.654zM183.332 40.3c2.395 0 3.983-.996 3.983-3.49 0-2.1-1.477-3.434-3.744-3.434h-2.882V40.3h2.643zm-.706-8.685c2.368 0 3.634-1.218 3.634-3.298 0-1.865-1.028-3.21-3.561-3.21h-2.019v6.499h1.946v.01zm-3.929-8.259h4.122c3.772 0 5.442 2.186 5.442 4.74 0 1.904-.89 3.404-2.34 4.061v.059c1.992.454 3.451 2.185 3.451 4.544 0 3.153-2.102 5.31-6.04 5.31h-4.635V23.356zm22.598 11.925l-1.836-5.397c-.569-1.644-.836-2.524-1.056-3.23h-.055c-.22.716-.513 1.586-1.073 3.23l-1.864 5.397h5.884zm-3.608-11.983h1.377l6.793 18.762h-2.158l-1.753-5.019h-7.141l-1.753 5.02h-2.102l6.737-18.763zm23.645 18.762l-8.509-11.866a104.153 104.153 0 01-2.506-3.607h-.054c.054.937.081 1.73.081 3.2v12.264h-1.991V23.356h1.91l8.186 11.412c.883 1.242 1.746 2.5 2.588 3.771h.056c-.056-.995-.056-1.817-.056-3.287V23.356h1.964V42.06h-1.669zm6.039-18.704h1.992v8.57h.055l6.736-8.57h2.369l-7.38 9.255L239 42.06h-2.496l-7.086-8.54h-.055v8.54h-1.992V23.355z" fill="#141414"/></svg>