<svg width="237" height="28" viewBox="0 0 237 28" fill="none" xmlns="http://www.w3.org/2000/svg"><path d="M14.759 25.38c-1.716 1.373-3.433 2.059-5.492 2.059-4.118 0-6.864-2.23-8.237-6.86C.343 18.521 0 16.12 0 13.548c0-4.116.858-7.203 2.574-9.604C4.29 1.544 6.693.171 9.61.171c1.888 0 4.12.686 6.007 1.715l-.858 6.346s-.515-1.372-.687-1.887c-1.03-2.744-2.745-3.773-4.633-3.601-2.06.171-5.32 3.087-4.462 10.118 1.373 13.72 9.095 10.804 10.468 9.603l-.686 2.916z" fill="#000"/><path fill-rule="evenodd" clip-rule="evenodd" d="M214.519 23.666c1.888-2.572 2.917-6.174 2.917-10.632 0-3.945-.858-7.203-2.746-9.604C212.975 1.2 210.57 0 207.482 0c-2.231 0-3.946.515-5.492 1.544-3.259 2.4-4.976 6.516-4.976 12.347 0 4.287.858 7.546 2.573 9.947 1.717 2.4 4.12 3.601 7.209 3.601 3.26 0 5.835-1.2 7.723-3.773zm-5.149-18.35c1.373 1.544 2.232 3.945 2.917 7.032.515 1.886.688 3.772.515 5.659-.171 3.258-1.2 5.145-3.432 5.83-1.717.515-3.261 0-4.634-1.714-1.2-1.715-2.23-4.288-2.917-7.546-.515-1.886-.515-3.601-.515-5.145.171-3.087 1.373-4.973 3.605-5.66 1.715-.513 3.259 0 4.461 1.544zM90.956.515l6.006 22.465c1.106 3 1.922 3.238 2.446 3.391.045.013.088.026.128.04.344 0 .515.17.515.17h-8.066s0-1.543-.171-2.743c-.343-1.2-1.202-4.63-1.202-4.63h-.343c-.172-.172-.343-.172-.515-.172-.686-.172-1.373-.172-2.23-.172-.859 0-1.545 0-2.232.172-.171.171-.343.171-.515.171-.098.099-.14.141-.19.159-.038.013-.08.013-.153.013l-.515 1.715c-.343 1.715-.343 2.23-.343 2.572-.171 1.887 1.545 2.916 1.545 2.916l.514.171c-1.372-.171-3.088-.171-3.432-.171h-3.26s1.2-2.401 3.604-12.69l2.059-7.89.067-.29c.463-2.001.62-2.679.62-3.825L90.955.515zm-1.202 15.434l-2.403-8.918-2.06 8.918c.325 0 .688-.038 1.07-.079.428-.045.88-.092 1.334-.092.858 0 1.373 0 2.059.171zM28.488.515l6.007 22.465c1.029 2.792 1.932 3.318 2.278 3.519.057.034.1.058.124.083.172 0 .343.171.343.171-1.716-.171-4.29-.171-4.633-.171h-3.432s0-1.544-.172-2.744c-.343-1.2-1.201-4.63-1.201-4.63h-.343c-.172-.172-.344-.172-.515-.172-.687-.172-1.373-.172-2.231-.172-.858 0-1.545 0-2.231.172-.172.171-.344.171-.515.171-.099.099-.14.141-.191.159-.038.013-.08.013-.152.013l-.344 1.715c-.08.486-.2 1.01-.304 1.465-.115.507-.21.926-.21 1.107-.148 1.623 1.1 2.484 1.562 2.802.075.052.13.09.154.114.343 0 .515.171.515.171-1.373-.171-2.918-.171-3.261-.171h-3.26s1.2-2.401 3.603-12.69l2.06-7.89c.022-.1.045-.196.067-.29.462-2.001.619-2.679.619-3.825L28.488.515zm-1.202 15.434l-2.402-8.918-2.06 8.918a10.6 10.6 0 001.07-.079c.427-.045.88-.092 1.333-.092.858 0 1.373 0 2.06.171z" fill="#000"/><path d="M79.972.514c-.515.172-3.26.172-6.178.172h-6.006c-2.918 0-5.835 0-6.179-.172h-.171c0 1.03.171 2.401.171 3.259v2.229c.687-1.543 3.261-2.572 5.492-2.915h.687v.171c0 .343 0 .686.171 1.372v19.893c-.171.858-.343 1.544-.858 2.058h7.551a5.721 5.721 0 01-.858-2.058V3.087h.687c2.23.171 4.976 1.372 5.491 2.915v-2.4c0-.858.172-2.402.172-3.43l-.172.342zM58.177 22.98V4.287c0-.514.172-2.915.687-3.772h-9.096c2.918 1.372 3.09 4.116 3.09 4.287v6.345c-1.202-.171-2.403-.343-3.776-.343h-.687c-1.373 0-2.574.172-3.775.343v-6.86c0-.514.171-2.915.686-3.772H36.04c2.917 1.372 3.09 4.116 3.09 4.287 0 .343 0 .686.17 1.372v17.15c0 .342-.17 2.915-.514 3.43h9.094c-.686-.172-2.402-1.716-2.917-3.774v-8.917c1.201-.172 2.403-.343 3.776-.343h.343c1.373 0 2.574.171 3.775.343v9.089c0 .343-.171 2.915-.514 3.43h9.095c-1.201-.172-2.918-1.715-3.26-3.602z" fill="#000"/><path fill-rule="evenodd" clip-rule="evenodd" d="M116.355 10.976c3.604-.172 5.492 0 6.693.342 2.574.858 4.119 3.773 4.462 7.718 0 2.572-.687 4.802-2.06 6.174-1.201 1.2-2.574 1.886-4.462 1.886-.213 0-.809-.03-1.507-.064-.988-.049-2.18-.108-2.783-.108h-5.835c.344-.514.515-3.086.515-3.43V6.346c-.171-.686-.171-1.029-.171-1.372 0-.171-.172-2.915-3.09-4.287h17.333c-.171 1.029-.171 3.944-.171 3.944v1.544c-.858-1.544-3.432-3.087-7.208-2.916h-1.544v.172c-.172.343-.172.857-.172 1.372v6.173zm3.775 12.862c.515-.343.858-.686 1.201-1.372.344-.858.515-2.058.515-3.259 0-1.886-.343-3.258-.858-3.944-.858-1.029-2.746-1.715-4.633-1.2v7.373c0 3.601 3.432 2.744 3.775 2.4z" fill="#000"/><path d="M166.123 22.637v-2.058c-1.029 1.715-3.605 3.43-7.723 3.258h-1.373c-.343-.514-.686-1.2-.686-2.4v-7.375h1.201c2.231 0 3.604.515 4.634 1.372V9.603c-.858.858-2.403 1.544-4.462 1.372h-1.202V4.802c0-.515 0-1.03.172-1.372v-.172h1.545c3.775-.171 6.006 1.372 7.036 2.916V4.287s.171-2.744.343-3.773H154.11c-1.888 0-5.663 0-5.835-.171 2.917 1.372 3.089 4.287 3.089 4.287 0 .343 0 .686.172 1.372v17.15c0 .342-.172 2.915-.515 3.43h15.96c-.858-1.201-.858-3.945-.858-3.945zm27.288.343V4.287c0-.514.171-2.915.686-3.772h-9.61c2.573 1.372 1.373 3.601 1.373 4.116 0 .343-.173.685-.344 1.371 0 .172-.171.343-.171.686-.515 1.372-.344.858-.687 1.887l-2.059 5.316-.688-1.886-1.029-3.259c-.515-1.543-1.03-2.744-1.373-3.772 0-.172-.171-.343-.171-.687-.171-.514-.859-2.915-.515-3.772h-10.639c.685.171 1.2.514 1.887 1.029 1.545 1.372 1.201 4.115 1.372 4.801v16.979c0 .342-.171 2.915-.515 3.43h6.866c-.688-.172-2.403-1.716-2.918-3.774V7.203c0 .171 0 .171.171.343.344 1.029.515 1.2 1.03 2.744l2.917 8.403c.515 1.543 1.029 2.744 1.202 3.773.171.343.171.686.344 1.029.171.343 1.029 3.43 1.029 3.43.171-.686.686-2.23.686-2.23.344-1.372 6.007-16.635 6.178-17.15v15.95c0 .343-.171 2.915-.515 3.43h9.096c-1.373-.515-3.088-2.058-3.603-3.945z" fill="#000"/><path fill-rule="evenodd" clip-rule="evenodd" d="M139.008 16.12h-2.06v6.86c.515 2.058 2.231 3.602 2.918 3.773h-9.096c.343-.514.515-3.087.515-3.43V6.174c-.172-.686-.172-1.029-.172-1.372 0-.171-.171-2.915-3.089-4.287h13.215c2.746 0 4.805 1.029 5.663 2.744.343.857.686 2.058.686 3.258 0 3.087-.343 5.145-2.574 7.031-1.373 1.372-3.947 2.401-6.006 2.573zm-2.574-10.632v7.718c.069 0 .148 0 .238.002 1.024.014 3.29.045 4.395-1.375.858-1.029 1.03-2.572 1.03-4.116 0-3.43-1.544-4.973-3.604-4.63-.515 0-1.888.514-2.059 2.23v.17zm91.985 10.632h-2.573l.514 2.573v4.459c.171 1.543 2.23 3.43 2.918 3.601h-9.096c.342-.514.515-3.087.515-3.43V6.174c-.173-.686-.173-1.029-.173-1.372 0-.171-.171-2.915-3.088-4.287h13.215c2.744 0 4.805 1.029 5.663 2.744.342.857.686 2.058.686 3.258 0 3.087-.344 5.145-2.574 7.031-1.373 1.372-3.775 2.401-6.007 2.573zm-2.573-10.632v7.718c.069 0 .148 0 .237.002 1.003.014 3.134.044 4.397-1.375.856-1.029 1.029-2.572 1.029-4.116 0-3.43-1.546-4.973-3.604-4.63-.515 0-1.888.514-2.059 2.23v.17z" fill="#000"/></svg>