<svg width="256" height="60" viewBox="0 0 256 60" fill="none" xmlns="http://www.w3.org/2000/svg"><path d="M112.045 15.868h-.686c-.467-1.454-.995-2.534-1.583-3.242-1.177-1.406-2.737-2.11-4.68-2.11-2.298 0-4.035.916-5.212 2.747-1 1.548-1.5 3.548-1.5 6.002 0 2.473.538 4.492 1.612 6.059 1.242 1.802 3.031 2.704 5.366 2.704 1.336 0 2.527-.246 3.573-.736.897-.425 1.887-1.147 2.97-2.166l.49.58c-2.222 2.416-4.777 3.624-7.663 3.624s-5.222-.92-7.006-2.76c-1.775-1.84-2.662-4.219-2.662-7.135 0-2.916.902-5.327 2.704-7.234 1.803-1.915 4.143-2.873 7.02-2.873 1.233 0 2.503.24 3.811.722.616.226 1.116.34 1.499.34.42 0 .784-.345 1.093-1.034h.602l.252 6.512zm21.237 13.052h-7.986v-.552c1.691-.057 2.536-.647 2.536-1.77V12.654c0-1.18-.845-1.77-2.536-1.77h-3.642c-1.682 0-2.523.59-2.523 1.77v13.944c0 1.123.841 1.713 2.523 1.77v.552h-7.973v-.552c1.682-.057 2.522-.647 2.522-1.77V12.046c0-1.123-.84-1.713-2.522-1.77v-.552h19.601v.552c-1.681.057-2.521.647-2.521 1.77v14.552c0 1.123.84 1.713 2.521 1.77v.552zm8.964 0h-7.972v-.552c1.681-.057 2.522-.647 2.522-1.77V12.046c0-1.123-.841-1.713-2.522-1.77v-.552h7.972v.552c-1.681.057-2.522.647-2.522 1.77V23.78l9.205-11.735c0-1.123-.84-1.713-2.522-1.77v-.552h7.986v.552c-1.69.057-2.535.647-2.535 1.77v14.552c0 1.123.845 1.713 2.535 1.77v.552h-7.986v-.552c1.682-.057 2.522-.647 2.522-1.77V14.084l-9.205 11.665v.85c0 1.122.841 1.712 2.522 1.769v.552zm23.54-17.979v15.657c0 1.123.841 1.713 2.522 1.77v.552h-7.972v-.552c1.682-.057 2.522-.647 2.522-1.77V10.941h-.939c-2.241 0-3.638.359-4.189 1.076-.215.274-.406.652-.574 1.133-.094.255-.22.755-.378 1.5l-1.082-1.5.395-3.822h16.565v4.162l-.733 1.16c-.234-1.16-.472-1.963-.715-2.406a2.265 2.265 0 00-1.429-1.147c-.373-.104-1.013-.156-1.919-.156h-2.074zm15.525-1.613l6.991 16.194c.411.963.733 1.595.967 1.897.457.613 1.046.93 1.765.949v.552h-7.313v-.552c1.354-.076 2.031-.392 2.031-.949 0-.396-.238-1.16-.715-2.293l-1.036-2.463h-7.51c-.177.471-.35.906-.519 1.302-.691 1.642-1.036 2.713-1.036 3.213 0 .765.649 1.161 1.947 1.19v.552h-5.674v-.552c.644-.123 1.14-.373 1.485-.75.504-.548 1.242-1.987 2.214-4.318l5.828-13.972h.575zm-4.344 12.146h6.627l-3.32-7.985-3.307 7.985zm40.814-11.198c-1.662.057-2.494.647-2.494 1.77v14.552c0 1.123.841 1.713 2.522 1.77v.552h-7.986v-.552c1.691-.057 2.536-.647 2.536-1.77v-14.17l-7.356 16.492h-.392l-7.201-15.827v13.505c0 1.123.925 1.713 2.774 1.77v.552h-6.823v-.552c1.858-.057 2.788-.647 2.788-1.77V12.046c0-1.123-.911-1.713-2.732-1.77v-.552h5.688l6.627 14.637 6.333-14.637h5.716v.552zm.767 18.644v-.552c1.681-.057 2.522-.647 2.522-1.77V12.046c0-1.123-.841-1.713-2.522-1.77v-.552h15.23v4.148h-.63c-.187-.784-.444-1.383-.771-1.798-.607-.774-1.439-1.16-2.494-1.16h-4.624c-.84 0-1.261.377-1.261 1.132v6.228h4.036c1.139 0 1.975-.174 2.507-.523.664-.425 1.014-1.175 1.051-2.251h.603v6.78h-.603c-.037-1.075-.387-1.83-1.051-2.264-.541-.368-1.377-.552-2.507-.552h-4.036v7.134c0 .755.248 1.133.743 1.133h3.783c1.42 0 2.475-.137 3.166-.41 1.084-.435 2.027-1.535 2.831-3.3h.812l-1.303 4.899h-15.482zm31.773-10.405v-6.47c0-1.122-.845-1.712-2.536-1.769v-.552h7.988v.552c-1.682.057-2.523.647-2.523 1.77v14.552c0 1.123.841 1.713 2.523 1.77v.552h-7.988v-.552c1.691-.057 2.536-.647 2.536-1.77v-6.894h-8.701v6.894c0 1.123.841 1.713 2.523 1.77v.552h-7.973v-.552c1.682-.057 2.522-.647 2.522-1.77V12.046c0-1.123-.84-1.713-2.522-1.77v-.552h7.973v.552c-1.682.057-2.523.647-2.523 1.77v6.469h8.701zM202.575 42.2c3.794 0 5.692 1.217 5.692 3.653 0 1.267-.494 2.242-1.482 2.925-.858.59-1.943.886-3.255.886h-6.667v-.384c1.17-.04 1.754-.45 1.754-1.23V37.925c0-.782-.584-1.192-1.754-1.231v-.385h10.38l.117 3.349h-.438a48.794 48.794 0 00-.312-1.064c-.15-.42-.328-.742-.536-.965-.299-.328-.952-.492-1.959-.492h-2.583c-.585 0-.877.262-.877.788V42.2h1.92zm-1.92.827v4.766c0 .42.068.703.204.847.176.184.634.276 1.375.276 2.54 0 3.811-.975 3.811-2.925 0-.847-.238-1.51-.712-1.99a2.35 2.35 0 00-.887-.57c-.76-.27-1.962-.404-3.606-.404h-.185zm16.654-6.992l4.864 11.265c.286.67.51 1.11.672 1.32.319.427.728.646 1.228.66v.384h-5.087v-.384c.942-.053 1.413-.273 1.413-.66 0-.276-.166-.808-.497-1.595l-.722-1.714h-5.224c-.123.328-.243.63-.36.906-.481 1.142-.721 1.888-.721 2.235 0 .532.451.808 1.354.828v.384h-3.947v-.384c.448-.086.793-.26 1.033-.522.351-.381.864-1.382 1.54-3.004l4.055-9.72h.399zm-3.021 8.449h4.61l-2.31-5.554-2.3 5.554zm20.66-2.058v-4.5c0-.782-.588-1.192-1.765-1.231v-.385h5.556v.385c-1.17.04-1.754.45-1.754 1.23V48.05c0 .781.584 1.191 1.754 1.231v.384h-5.556v-.384c1.177-.04 1.765-.45 1.765-1.23v-4.797h-6.053v4.796c0 .781.585 1.191 1.754 1.231v.384h-5.546v-.384c1.17-.04 1.755-.45 1.755-1.23V37.925c0-.782-.585-1.192-1.755-1.231v-.385h5.546v.385c-1.169.04-1.754.45-1.754 1.23v4.501h6.053zm18.535 7.238h-5.789v-.384c1.026 0 1.54-.16 1.54-.483 0-.177-.147-.42-.439-.728l-4.571-4.776h-.565v4.756c0 .781.597 1.191 1.793 1.231v.384h-5.624v-.384c1.196-.04 1.793-.45 1.793-1.23V37.925c0-.782-.597-1.192-1.793-1.231v-.385h5.673v.385c-1.228.04-1.842.45-1.842 1.23v4.797h.321l4.035-4.107c.572-.584.858-1.001.858-1.25 0-.428-.439-.65-1.316-.67v-.385h5.185v.385c-.572.032-1.043.134-1.413.305-.713.328-1.666 1.106-2.856 2.334l-2.68 2.767 5.389 5.83c.509.545.968.922 1.385 1.132.13.066.437.138.916.217v.384zm-147.392 0h-2.855v-.207c.465-.038.697-.118.697-.238 0-.113-.182-.391-.545-.836l-1.844-2.255h-.021v2.668c0 .42.315.64.943.661v.207H99.48v-.207c.632-.02.948-.241.948-.661v-2.668h-.021l-1.849 2.255c-.363.445-.545.723-.545.836 0 .113.12.182.362.207.063.007.174.017.335.031v.207h-2.855v-.207c.202-.003.358-.035.466-.095.098-.053.215-.162.351-.328l2.808-3.446-1.907-1.953c-.363-.374-.693-.633-.99-.778a1.979 1.979 0 00-.576-.164v-.207h2.457v.207c-.479.042-.718.152-.718.328 0 .13.253.455.76.974l1.922 1.964v-2.604c0-.42-.316-.641-.948-.662v-.207h2.986v.207c-.628.021-.943.242-.943.662v2.604l1.917-1.964c.511-.522.766-.847.766-.974 0-.176-.242-.286-.724-.328v-.207h2.457v.207a2.15 2.15 0 00-.586.164c-.28.138-.606.397-.98.778l-1.907 1.953 2.808 3.446c.136.166.255.277.356.333.105.057.259.087.461.09v.207zm3.184 0h-2.981v-.207c.629-.02.943-.241.943-.661v-5.441c0-.42-.314-.641-.943-.662v-.207h2.981v.207c-.628.021-.943.242-.943.662v4.387l3.442-4.387c0-.42-.314-.641-.943-.662v-.207h2.986v.207c-.632.021-.948.242-.948.662v5.44c0 .42.316.641.948.662v.207h-2.986v-.207c.629-.02.943-.241.943-.661v-4.68l-3.442 4.362v.318c0 .42.315.64.943.661v.207zm4.918-.207c.689-.02 1.032-.241 1.032-.661v-5.441c0-.42-.343-.641-1.032-.662v-.207h2.877c1.959 0 2.939.607 2.939 1.821 0 .498-.172.888-.514 1.17-.203.166-.506.304-.911.413.398.102.708.222.932.36.573.346.859.833.859 1.46 0 .7-.311 1.218-.932 1.557-.489.264-1.113.397-1.87.397h-3.38v-.207zm2.122-3.329v2.562c0 .261.098.43.293.508.112.042.327.063.645.063 1.257 0 1.886-.523 1.886-1.572 0-1.04-.762-1.56-2.284-1.56h-.54zm0-.434h.88c1.146 0 1.719-.448 1.719-1.344 0-.505-.192-.884-.577-1.138-.325-.216-.75-.323-1.278-.323-.496 0-.744.116-.744.35v2.455zm7.962 3.97h-2.981v-.207c.628-.02.943-.241.943-.661v-5.441c0-.42-.315-.641-.943-.662v-.207h2.981v.207c-.629.021-.943.242-.943.662v4.387l3.442-4.387c0-.42-.315-.641-.943-.662v-.207h2.986v.207c-.632.021-.948.242-.948.662v5.44c0 .42.316.641.948.662v.207h-2.986v-.207c.628-.02.943-.241.943-.661v-4.68l-3.442 4.362v.318c0 .42.314.64.943.661v.207zm14.403 1.974h-.204l-.293-.878c-.147-.434-.299-.72-.456-.858-.182-.159-.487-.238-.917-.238h-3.153c-.476 0-.797.108-.965.323-.209.268-.431.818-.665 1.651h-.204v-2.191h.131c.342 0 .635-.212.88-.635.216-.37.344-.794.382-1.27.109-1.3.163-2.326.163-3.081v-.89c0-.331-.098-.564-.294-.698-.153-.106-.407-.166-.759-.18v-.207h6.203v.207c-.629.021-.943.242-.943.662v5.06c0 .416.08.693.24.83.14.124.425.191.854.202v2.191zm-2.21-3.382v-4.24c0-.47-.068-.77-.205-.9-.167-.158-.553-.238-1.157-.238-.479 0-.809.083-.991.249-.16.145-.253.552-.277 1.223l-.073 1.921c-.028.734-.067 1.253-.116 1.556a4.24 4.24 0 01-.508 1.445h2.447c.366 0 .609-.078.728-.233.101-.134.152-.395.152-.783zM146.239 46c0 1.095-.307 1.996-.922 2.706-.642.74-1.498 1.111-2.567 1.111-1.047 0-1.903-.361-2.567-1.085-.646-.702-.969-1.588-.969-2.657 0-1.073.318-1.959.954-2.657.656-.72 1.51-1.08 2.561-1.08 1.013 0 1.855.356 2.525 1.07.657.701.985 1.566.985 2.593zm-1.21.117c0-.78-.133-1.48-.398-2.101-.367-.861-.981-1.292-1.844-1.292-.842 0-1.463.346-1.865 1.038-.325.557-.487 1.293-.487 2.207v.106c0 .872.146 1.604.44 2.197.384.769.964 1.154 1.739 1.154.81 0 1.434-.362 1.87-1.086.363-.607.545-1.348.545-2.223zm8.234-1.334h-.256c-.175-.543-.372-.947-.592-1.212-.44-.526-1.024-.788-1.75-.788-.859 0-1.509.342-1.949 1.026-.373.58-.56 1.327-.56 2.245 0 .924.2 1.68.602 2.265.465.674 1.133 1.011 2.007 1.011.499 0 .944-.092 1.335-.275.336-.159.706-.429 1.111-.81l.183.217c-.831.903-1.786 1.355-2.865 1.355-1.079 0-1.953-.344-2.62-1.032-.663-.688-.995-1.577-.995-2.668 0-1.09.337-1.992 1.011-2.704.674-.717 1.549-1.075 2.625-1.075.461 0 .936.09 1.425.27.23.085.417.127.56.127.157 0 .293-.129.409-.386h.225l.094 2.434zm4.216-1.841v5.854c0 .42.314.64.943.661v.207h-2.981v-.207c.629-.02.943-.241.943-.661v-5.854h-.351c-.838 0-1.36.134-1.566.402-.08.102-.152.243-.215.423a4.906 4.906 0 00-.141.561h-.257l.063-1.842h6.051l.068 1.842h-.262c-.088-.434-.177-.734-.267-.9a.849.849 0 00-.535-.428c-.139-.039-.379-.058-.717-.058h-.776zM167.547 46c0 1.095-.308 1.996-.922 2.706-.643.74-1.499 1.111-2.567 1.111-1.048 0-1.904-.361-2.567-1.085-.646-.702-.97-1.588-.97-2.657 0-1.073.318-1.959.954-2.657.657-.72 1.511-1.08 2.562-1.08 1.013 0 1.854.356 2.525 1.07.656.701.985 1.566.985 2.593zm-1.21.117c0-.78-.133-1.48-.399-2.101-.366-.861-.981-1.292-1.844-1.292-.841 0-1.463.346-1.865 1.038-.324.557-.487 1.293-.487 2.207v.106c0 .872.147 1.604.44 2.197.384.769.964 1.154 1.74 1.154.81 0 1.433-.362 1.87-1.086.363-.607.545-1.348.545-2.223zm4.608-6.071c.206 0 .309.1.309.297 0 .134-.101.23-.303.286-.133.035-.199.102-.199.2 0 .283.364.424 1.094.424.73 0 1.095-.145 1.095-.434 0-.088-.075-.153-.225-.196-.189-.049-.283-.142-.283-.28 0-.198.101-.297.304-.297.161 0 .288.089.382.265.074.145.11.307.11.487 0 .342-.15.617-.45.826-.269.187-.58.28-.933.28-.352 0-.663-.093-.932-.28-.3-.209-.451-.484-.451-.826 0-.176.037-.337.11-.482.088-.18.212-.27.372-.27zm.115 9.618h-2.98v-.206c.628-.022.943-.242.943-.662v-5.441c0-.42-.315-.64-.943-.662v-.206h2.98v.206c-.628.021-.942.242-.942.662v4.388l3.442-4.388c0-.42-.315-.64-.944-.662v-.206h2.987v.206c-.632.021-.949.242-.949.662v5.441c0 .42.317.64.949.662v.206h-2.987v-.206c.629-.022.944-.242.944-.662v-4.68l-3.442 4.362v.318c0 .42.314.64.942.662v.206zm10.21-3.891v-2.418c0-.42-.316-.641-.948-.662v-.207h2.986v.207c-.629.021-.943.242-.943.662v5.44c0 .42.314.641.943.662v.207h-2.986v-.207c.632-.02.948-.241.948-.661v-2.578h-3.254v2.578c0 .42.315.64.944.661v.207h-2.981v-.207c.628-.02.943-.241.943-.661v-5.441c0-.42-.315-.641-.943-.662v-.207h2.981v.207c-.629.021-.944.242-.944.662v2.419h3.254zm9.575.227c0 1.095-.307 1.996-.922 2.706-.643.74-1.498 1.111-2.567 1.111-1.048 0-1.903-.361-2.567-1.085-.646-.702-.969-1.588-.969-2.657 0-1.073.318-1.959.953-2.657.657-.72 1.511-1.08 2.562-1.08 1.013 0 1.855.356 2.525 1.07.657.701.985 1.566.985 2.593zm-1.21.117c0-.78-.133-1.48-.398-2.101-.367-.861-.982-1.292-1.844-1.292-.842 0-1.464.346-1.865 1.038-.325.557-.488 1.293-.488 2.207v.106c0 .872.147 1.604.441 2.197.384.769.963 1.154 1.739 1.154.81 0 1.433-.362 1.87-1.086.363-.607.545-1.348.545-2.223zm3.132-3.271a3.033 3.033 0 01-.026.408l-.115 1.998-.005 2.152-.746-.01V46.26c-.028-.331.044-.986-.082-1.921-.112-.815-.168-1.308-.168-1.477 0-.219.042-.42.126-.604.084-.183.239-.275.467-.275.233 0 .394.126.481.376.046.13.068.293.068.487zm.106 5.557h-1.248v1.26h1.248v-1.26zM41.044 26.723L21.333 39.075C12.476 5.798 49.777-12.352 70.861 9.832L49.777 21.428 65.372 8.32c-20.21-15.882-43.54 2.017-39.423 23.572l15.095-5.168zm30.691-3.783C42.476 35.625 26.927 43.967 0 60 31.682 35.056 65.73 17.329 94.316 1.26l-18.34 13.614c14.348 26.47-20.335 62.269-48.78 32.395l2.62-1.26c19.214 21.553 50.403 4.914 41.92-23.069zm121.138 13.11h-97.06v1.513h97.06V36.05z" fill="#141414"/></svg>