<svg width="337" height="80" viewBox="0 0 337 80" fill="none" xmlns="http://www.w3.org/2000/svg"><path d="M147.497 21.157h-.904c-.615-1.938-1.309-3.378-2.084-4.322-1.549-1.875-3.602-2.813-6.16-2.813-3.025 0-5.312 1.221-6.861 3.662-1.316 2.064-1.974 4.732-1.974 8.003 0 3.297.707 5.99 2.121 8.078 1.636 2.404 3.99 3.605 7.064 3.605 1.759 0 3.326-.327 4.704-.981 1.18-.566 2.483-1.529 3.91-2.888l.645.774c-2.926 3.221-6.289 4.832-10.089 4.832-3.799 0-6.873-1.227-9.222-3.68-2.336-2.454-3.504-5.625-3.504-9.513 0-3.889 1.187-7.104 3.56-9.645 2.373-2.555 5.453-3.832 9.24-3.832 1.623 0 3.295.32 5.017.963.811.302 1.469.453 1.973.453.554 0 1.033-.46 1.439-1.378h.793l.332 8.682zm27.957 17.403h-10.513v-.737c2.225-.075 3.338-.861 3.338-2.359V16.872c0-1.572-1.113-2.359-3.338-2.359h-4.796c-2.213 0-3.32.787-3.32 2.36v18.591c0 1.498 1.107 2.284 3.32 2.36v.736h-10.494v-.737c2.213-.075 3.32-.861 3.32-2.359V16.061c0-1.498-1.107-2.284-3.32-2.36v-.736h25.803v.736c-2.214.076-3.32.862-3.32 2.36v19.403c0 1.498 1.106 2.284 3.32 2.36v.736zm11.799 0h-10.494v-.737c2.213-.075 3.32-.861 3.32-2.359V16.061c0-1.498-1.107-2.284-3.32-2.36v-.736h10.494v.736c-2.213.076-3.319.862-3.319 2.36v15.647l12.117-15.647c0-1.498-1.106-2.284-3.32-2.36v-.736h10.513v.736c-2.225.076-3.338.862-3.338 2.36v19.403c0 1.498 1.113 2.284 3.338 2.36v.736h-10.513v-.737c2.214-.075 3.32-.861 3.32-2.359V18.78l-12.117 15.553v1.132c0 1.498 1.106 2.284 3.319 2.36v.736zm30.989-23.971v20.875c0 1.498 1.107 2.284 3.32 2.36v.736h-10.495v-.736c2.214-.076 3.32-.862 3.32-2.36V14.59h-1.236c-2.95 0-4.789.478-5.514 1.434-.283.365-.535.869-.756 1.51-.123.34-.289 1.007-.498 2l-1.424-2 .52-5.096h21.807v5.55l-.966 1.547c-.307-1.548-.62-2.617-.94-3.209-.418-.78-1.045-1.29-1.881-1.529-.492-.138-1.335-.207-2.527-.207h-2.73zm20.436-2.152l9.203 21.593c.541 1.283.966 2.126 1.273 2.529.603.818 1.377 1.24 2.324 1.265v.736h-9.628v-.736c1.783-.101 2.675-.523 2.675-1.265 0-.529-.314-1.548-.941-3.058l-1.365-3.284h-9.886c-.233.63-.461 1.208-.682 1.736-.91 2.19-1.365 3.618-1.365 4.285 0 1.02.855 1.548 2.564 1.586v.736h-7.47v-.736c.848-.164 1.5-.498 1.955-1 .664-.73 1.635-2.65 2.914-5.758l7.673-18.629h.756zm-5.718 16.194h8.724l-4.371-10.645-4.353 10.645zm53.729-14.93c-2.189.076-3.283.862-3.283 2.36v19.403c0 1.498 1.106 2.284 3.319 2.36v.736h-10.512v-.737c2.225-.075 3.338-.861 3.338-2.359V16.57l-9.683 21.99h-.516l-9.48-21.103v18.007c0 1.498 1.217 2.284 3.651 2.36v.736h-8.982v-.737c2.447-.075 3.67-.861 3.67-2.359V16.061c0-1.498-1.198-2.284-3.596-2.36v-.736h7.488l8.724 19.517 8.337-19.517h7.525v.736zm1.009 24.859v-.737c2.214-.075 3.32-.861 3.32-2.359V16.061c0-1.498-1.106-2.284-3.32-2.36v-.736h20.049v5.53h-.83c-.246-1.044-.584-1.843-1.015-2.396-.799-1.032-1.893-1.548-3.283-1.548h-6.086c-1.106 0-1.66.503-1.66 1.51v8.305h5.312c1.5 0 2.601-.233 3.301-.699.873-.566 1.334-1.566 1.384-3h.793v9.04h-.793c-.05-1.434-.511-2.44-1.384-3.02-.713-.49-1.813-.736-3.301-.736h-5.312v9.513c0 1.007.326 1.51.978 1.51h4.98c1.869 0 3.258-.183 4.168-.547 1.426-.58 2.668-2.045 3.726-4.398h1.069l-1.715 6.53h-20.381zm41.826-13.874v-8.625c0-1.498-1.112-2.284-3.338-2.36v-.736h10.515v.736c-2.214.076-3.321.862-3.321 2.36v19.403c0 1.498 1.107 2.284 3.321 2.36v.736h-10.515v-.737c2.226-.075 3.338-.861 3.338-2.359v-9.192h-11.453v9.192c0 1.498 1.107 2.284 3.32 2.36v.736h-10.495v-.737c2.214-.075 3.32-.861 3.32-2.359V16.061c0-1.498-1.106-2.284-3.32-2.36v-.736h10.495v.736c-2.213.076-3.32.862-3.32 2.36v8.625h11.453zm-62.853 31.58c4.995 0 7.493 1.623 7.493 4.87 0 1.69-.65 2.99-1.95 3.9-1.13.788-2.558 1.182-4.286 1.182h-8.776v-.512c1.54-.052 2.31-.6 2.31-1.641V50.567c0-1.041-.77-1.589-2.31-1.641v-.512h13.665l.153 4.464h-.577a61.975 61.975 0 00-.41-1.418c-.197-.56-.432-.99-.706-1.287-.394-.437-1.253-.657-2.579-.657h-3.4c-.77 0-1.155.35-1.155 1.051v5.699h2.528zm-2.528 1.102v6.355c0 .56.09.937.27 1.13.231.245.834.367 1.809.367 3.344 0 5.016-1.3 5.016-3.9 0-1.129-.312-2.013-.936-2.652a3.078 3.078 0 00-1.168-.761c-1-.359-2.583-.538-4.747-.538h-.244zm21.924-9.322l6.403 15.021c.376.893.671 1.48.885 1.76.419.569.958.862 1.617.88v.512h-6.698v-.512c1.24-.07 1.86-.364 1.86-.88 0-.368-.218-1.077-.654-2.127l-.949-2.285h-6.877c-.163.437-.321.84-.475 1.208-.633 1.523-.95 2.517-.95 2.98 0 .71.595 1.077 1.784 1.104v.512h-5.197v-.512c.591-.114 1.044-.346 1.361-.697.461-.507 1.137-1.842 2.027-4.004l5.337-12.96h.526zm-3.977 11.266h6.069l-3.041-7.405-3.028 7.405zm27.197-2.744v-6c0-1.042-.774-1.59-2.323-1.642v-.512h7.314v.512c-1.54.052-2.31.6-2.31 1.641v13.498c0 1.042.77 1.589 2.31 1.641v.512h-7.314v-.512c1.549-.052 2.323-.6 2.323-1.641V57.67h-7.968v6.395c0 1.042.77 1.589 2.309 1.641v.512h-7.3v-.512c1.54-.052 2.31-.6 2.31-1.641V50.567c0-1.041-.77-1.589-2.31-1.641v-.512h7.3v.512c-1.539.052-2.309.6-2.309 1.641v6h7.968zm24.399 9.65h-7.621v-.512c1.352 0 2.028-.214 2.028-.643 0-.237-.193-.56-.578-.972l-6.017-6.368h-.744v6.342c0 1.042.787 1.589 2.361 1.641v.512h-7.404v-.512c1.574-.052 2.361-.6 2.361-1.641V50.567c0-1.041-.787-1.589-2.361-1.641v-.512h7.468v.512c-1.617.052-2.425.6-2.425 1.641v6.395h.423l5.312-5.476c.753-.779 1.129-1.335 1.129-1.667 0-.57-.577-.867-1.732-.893v-.512h6.825v.512c-.753.043-1.373.18-1.859.407-.94.438-2.195 1.475-3.76 3.111l-3.528 3.69 7.094 7.773c.67.727 1.274 1.23 1.823 1.51.17.088.574.184 1.205.29v.511zm-194.027.001h-3.758v-.276c.611-.052.917-.157.917-.317 0-.151-.239-.522-.717-1.115l-2.427-3.007h-.028v3.557c0 .56.414.854 1.241.882v.276h-3.931v-.276c.832-.028 1.249-.322 1.249-.882v-3.557h-.028l-2.434 3.007c-.479.593-.718.964-.718 1.115 0 .15.159.242.476.275.083.01.23.023.442.042v.276h-3.759v-.276c.267-.004.471-.047.614-.127.129-.07.282-.216.462-.438l3.696-4.594-2.51-2.604c-.478-.499-.913-.844-1.304-1.037a2.571 2.571 0 00-.758-.22v-.275h3.234v.276c-.63.056-.944.202-.944.437 0 .175.333.607 1 1.299l2.531 2.618v-3.472c0-.56-.417-.854-1.249-.882v-.276h3.931v.276c-.827.028-1.241.322-1.241.882v3.472l2.524-2.618c.671-.696 1.007-1.13 1.007-1.299 0-.235-.317-.38-.952-.437v-.276h3.234v.276a2.819 2.819 0 00-.772.219c-.368.183-.798.529-1.289 1.037l-2.511 2.604 3.697 4.595c.179.22.335.369.469.444.138.076.34.116.606.12v.276zm4.192 0h-3.924v-.276c.827-.028 1.241-.322 1.241-.882v-7.255c0-.56-.414-.854-1.241-.882v-.276h3.924v.276c-.828.028-1.241.322-1.241.882v5.85l4.53-5.85c0-.56-.413-.854-1.241-.882v-.276h3.931v.276c-.832.028-1.248.322-1.248.882v7.255c0 .56.416.854 1.248.882v.276h-3.931v-.276c.828-.028 1.241-.322 1.241-.882v-6.239l-4.53 5.816v.423c0 .56.413.854 1.241.882v.276zm6.474-.276c.905-.028 1.358-.322 1.358-.882v-7.255c0-.56-.453-.854-1.358-.882v-.276h3.786c2.579 0 3.869.81 3.869 2.428 0 .664-.226 1.184-.676 1.56-.267.221-.667.405-1.2.55.524.137.933.297 1.227.48.754.461 1.131 1.11 1.131 1.948 0 .932-.409 1.624-1.227 2.075-.644.353-1.465.53-2.462.53h-4.448v-.276zm2.793-4.439v3.416c0 .348.129.574.386.677.147.057.43.085.848.085 1.655 0 2.483-.698 2.483-2.096 0-1.388-1.002-2.082-3.007-2.082h-.71zm0-.579h1.158c1.508 0 2.262-.597 2.262-1.792 0-.673-.253-1.179-.758-1.518-.428-.287-.989-.43-1.683-.43-.653 0-.979.155-.979.466v3.274zm10.481 5.294h-3.924v-.276c.827-.028 1.241-.322 1.241-.882v-7.255c0-.56-.414-.854-1.241-.882v-.276h3.924v.276c-.828.028-1.242.322-1.242.882v5.85l4.531-5.85c0-.56-.414-.854-1.241-.882v-.276h3.931v.276c-.832.028-1.248.322-1.248.882v7.255c0 .56.416.854 1.248.882v.276h-3.931v-.276c.827-.028 1.241-.322 1.241-.882v-6.239l-4.531 5.816v.423c0 .56.414.854 1.242.882v.276zm18.961 2.632h-.269l-.386-1.172c-.193-.578-.393-.96-.6-1.143-.239-.212-.642-.317-1.207-.317h-4.152c-.625 0-1.048.143-1.269.43-.276.358-.567 1.091-.875 2.202h-.269V65.93h.172c.451 0 .837-.282 1.159-.847a3.982 3.982 0 00.503-1.693c.143-1.732.214-3.101.214-4.108v-1.186c0-.442-.129-.752-.386-.931-.203-.141-.536-.221-1-.24v-.276h8.165v.276c-.828.028-1.241.322-1.241.882v6.747c0 .555.105.924.317 1.108.184.165.558.254 1.124.268v2.922zm-2.91-4.51v-5.653c0-.625-.09-1.025-.269-1.2-.221-.211-.729-.317-1.524-.317-.63 0-1.065.11-1.304.332-.211.193-.333.736-.365 1.63l-.097 2.562c-.036.978-.087 1.67-.151 2.074a5.705 5.705 0 01-.67 1.927h3.221c.483 0 .802-.103.959-.31.133-.179.2-.527.2-1.045zm12.86-3.006c0 1.458-.405 2.66-1.214 3.606-.846.988-1.972 1.482-3.379 1.482-1.379 0-2.506-.482-3.379-1.447-.851-.936-1.276-2.117-1.276-3.542 0-1.431.418-2.612 1.255-3.543.865-.96 1.989-1.44 3.373-1.44 1.333 0 2.441.475 3.324 1.426.864.936 1.296 2.088 1.296 3.458zm-1.593.155c0-1.04-.175-1.974-.524-2.802-.483-1.148-1.292-1.722-2.427-1.722-1.109 0-1.927.461-2.456 1.383-.427.744-.641 1.725-.641 2.943v.142c0 1.162.193 2.138.579 2.928.506 1.026 1.269 1.539 2.29 1.539 1.066 0 1.887-.483 2.462-1.447.478-.81.717-1.797.717-2.964zm10.84-1.778h-.338c-.23-.725-.49-1.264-.779-1.617-.58-.7-1.348-1.051-2.304-1.051-1.131 0-1.986.456-2.565 1.369-.492.772-.738 1.769-.738 2.992 0 1.233.264 2.24.793 3.02.611.9 1.492 1.349 2.641 1.349.658 0 1.244-.123 1.759-.367.441-.212.928-.572 1.462-1.08l.241.29c-1.094 1.204-2.351 1.806-3.772 1.806-1.421 0-2.57-.459-3.448-1.376-.874-.918-1.31-2.103-1.31-3.557 0-1.454.443-2.656 1.33-3.606.888-.956 2.04-1.433 3.456-1.433.607 0 1.232.12 1.875.36.304.113.55.17.738.17.207 0 .386-.173.538-.516h.297l.124 3.246zm5.55-2.457v7.806c0 .56.413.854 1.241.882v.276h-3.924v-.276c.828-.028 1.242-.322 1.242-.882v-7.806h-.463c-1.103 0-1.79.18-2.062.537a1.97 1.97 0 00-.282.564 6.62 6.62 0 00-.187.749h-.338l.083-2.457h7.966l.089 2.457h-.345c-.115-.58-.232-.98-.351-1.2a1.122 1.122 0 00-.704-.572c-.184-.052-.499-.078-.945-.078h-1.02zm13.253 4.08c0 1.458-.405 2.66-1.214 3.606-.846.988-1.972 1.482-3.379 1.482-1.379 0-2.506-.482-3.379-1.447-.851-.936-1.276-2.117-1.276-3.542 0-1.431.418-2.612 1.255-3.543.864-.96 1.988-1.44 3.372-1.44 1.333 0 2.441.475 3.324 1.426.864.936 1.297 2.088 1.297 3.458zm-1.593.155c0-1.04-.175-1.974-.525-2.802-.482-1.148-1.291-1.722-2.427-1.722-1.108 0-1.926.461-2.455 1.383-.428.744-.642 1.725-.642 2.943v.142c0 1.162.193 2.138.58 2.928.506 1.026 1.269 1.539 2.289 1.539 1.067 0 1.888-.483 2.462-1.447.478-.81.718-1.797.718-2.964zm6.067-8.095c.271 0 .406.132.406.395 0 .18-.133.306-.399.382-.175.047-.262.136-.262.268 0 .376.48.564 1.441.564.961 0 1.441-.193 1.441-.578 0-.118-.099-.205-.297-.262-.248-.066-.372-.19-.372-.374 0-.263.133-.395.4-.395.212 0 .379.118.504.353.096.193.144.41.144.65 0 .455-.197.823-.593 1.1-.354.25-.763.374-1.227.374-.465 0-.874-.124-1.228-.374-.395-.277-.593-.645-.593-1.1 0-.236.048-.45.145-.643.115-.24.278-.36.49-.36zm.151 12.824h-3.924v-.276c.828-.028 1.242-.322 1.242-.882v-7.255c0-.56-.414-.854-1.242-.882v-.276h3.924v.276c-.827.028-1.241.322-1.241.882v5.85l4.531-5.85c0-.56-.414-.854-1.242-.882v-.276h3.931v.276c-.832.028-1.248.322-1.248.882v7.255c0 .56.416.854 1.248.882v.276h-3.931v-.276c.828-.028 1.242-.322 1.242-.882v-6.239l-4.531 5.816v.423c0 .56.414.854 1.241.882v.276zm13.44-5.188v-3.225c0-.56-.416-.854-1.248-.882v-.276h3.93v.276c-.827.028-1.241.322-1.241.882v7.255c0 .56.414.854 1.241.882v.276h-3.93v-.276c.832-.028 1.248-.322 1.248-.882v-3.437h-4.283v3.437c0 .56.414.854 1.242.882v.276h-3.924v-.276c.827-.028 1.241-.322 1.241-.882v-7.255c0-.56-.414-.854-1.241-.882v-.276h3.924v.276c-.828.028-1.242.322-1.242.882v3.225h4.283zm12.605.304c0 1.458-.405 2.66-1.214 3.606-.846.988-1.973 1.482-3.379 1.482-1.38 0-2.506-.482-3.38-1.447-.85-.936-1.275-2.117-1.275-3.542 0-1.431.418-2.612 1.255-3.543.864-.96 1.988-1.44 3.372-1.44 1.334 0 2.441.475 3.324 1.426.865.936 1.297 2.088 1.297 3.458zm-1.593.155c0-1.04-.175-1.974-.524-2.802-.483-1.148-1.292-1.722-2.428-1.722-1.108 0-1.927.461-2.455 1.383-.428.744-.641 1.725-.641 2.943v.142c0 1.162.193 2.138.579 2.928.505 1.026 1.269 1.539 2.289 1.539 1.067 0 1.888-.483 2.462-1.447.479-.81.718-1.797.718-2.964zm4.123-4.362c0 .085-.002.17-.006.254-.005.08-.014.177-.028.29l-.152 2.664-.007 2.869-.981-.012v-1.512c-.037-.443.057-1.316-.108-2.563-.147-1.086-.221-1.743-.221-1.968 0-.292.055-.56.166-.805.11-.245.315-.367.614-.367.307 0 .519.167.634.5.06.175.089.392.089.65zm.139 7.41h-1.642v1.68h1.642v-1.68zM54.031 35.63L28.083 52.1C16.423 7.731 65.527-16.47 93.282 13.11L65.527 28.57l20.529-17.48C59.451-10.085 28.74 13.78 34.159 42.52l19.872-6.891zm40.401-5.042C55.916 47.498 35.446 58.622 0 80 41.706 46.742 86.527 23.105 124.158 1.68l-24.142 18.152c18.887 35.294-26.77 83.025-64.214 43.193l3.449-1.68c25.291 28.739 66.349 6.554 55.181-30.757zm159.467 17.479H126.128v2.017h127.771v-2.017z" fill="#141414"/></svg>