<svg width="53" height="53" viewBox="0 0 53 53" fill="none" xmlns="http://www.w3.org/2000/svg"><path d="M26.5 49.877c-12.777 0-23.282-10.6-23.282-23.377 0-2.65.473-5.205 1.325-7.666l13.628 26.5c.19.378.379.662.852.662s.663-.284.852-.662l6.341-14.102c.095-.19.19-.284.284-.284.19 0 .19.19.284.284l6.436 14.102c.189.378.378.662.851.662.474 0 .663-.284.852-.662l13.629-26.5a22.48 22.48 0 011.325 7.666c-.095 12.777-10.6 23.377-23.377 23.377zm0-29.434c-.19 0-.19-.19-.284-.284L18.93 4.449a22.341 22.341 0 017.57-1.327c2.65 0 5.205.473 7.571 1.325l-7.287 15.71c-.095.096-.095.285-.284.285zm-7.666 17.036c-.19 0-.19-.19-.284-.284L6.625 14.29c2.082-3.407 5.11-6.246 8.613-8.234L23.66 24.23c.189.378.378.473.662.473h4.354c.284 0 .473-.095.662-.473l8.329-18.172c3.502 1.988 6.53 4.827 8.612 8.234L34.45 37.195c-.095.189-.19.284-.284.284-.19 0-.19-.19-.284-.284L29.34 27.163c-.189-.38-.378-.474-.662-.474h-4.354c-.284 0-.473.095-.662.474l-4.543 10.032c-.095.094-.095.284-.284.284zM26.5 53C41.17 53 53 41.17 53 26.5S41.17 0 26.5 0 0 11.83 0 26.5 11.83 53 26.5 53z" fill="#fff"/></svg>