<svg width="87" height="49" viewBox="0 0 87 49" fill="none" xmlns="http://www.w3.org/2000/svg"><path d="M8.496 35.947v4.778H3.08v-4.778H.096v12.537H3.08v-5.04h5.416v5.04h2.984V35.947H8.496zm13.919 0l-3.122 4.965-3.118-4.965h-3.521l5.152 8.195v4.342h2.981v-4.342l5.153-8.195h-3.525zm13.12 0v9.189c0 .349-.263.63-.634.63H30.12v-9.819h-2.985v12.537h8.817c.785 0 1.415-.234 1.876-.691.457-.461.688-1.091.688-1.873v-9.973h-2.981zm14.564 0H41.28v12.537h2.981v-9.822h4.789c.385 0 .63.303.63.627v9.195h2.981v-9.973c0-.785-.234-1.415-.688-1.872-.464-.461-1.09-.692-1.875-.692zm14.146 0h-8.818v12.537h8.818c.784 0 1.41-.234 1.868-.691.461-.461.691-1.091.691-1.873v-7.41c0-.784-.23-1.414-.69-1.871-.458-.461-1.088-.692-1.87-.692zm-.422 3.363v5.808c0 .338-.245.648-.633.648h-4.785v-7.104h4.763c.392 0 .655.274.655.648zm8.18-3.363c-.78 0-1.415.23-1.872.692-.46.46-.688 1.09-.688 1.872v9.973h2.974v-3.878h5.42v3.878h2.98V35.947h-8.814zm5.833 2.715v3.23h-5.419v-2.593c0-.31.242-.637.638-.637h4.781zm5.884 9.822h2.984V35.947h-2.985v12.537zM41.638 27.26c14.318 0 25.926-5.881 25.926-13.132C67.564 6.872 55.956.99 41.638.99c-14.312 0-25.92 5.88-25.92 13.137 0 7.25 11.608 13.131 25.92 13.131zm4.882-6.444c-.432.99-1.176 3.108-2.884 3.953-.52.254-1.16.373-1.73.395h-.262c-4.784 0-9.239-.66-12.966-1.782-.028-.012-.115-.043-.142-.054-.345-.113-.52-.27-.52-.466 0-.167.093-.297.213-.417.055-.048.131-.113.236-.206.864-.709 3.453-2.566 8.335-4.418 1.713-.645 3.858-1.451 6.102-1.923 1.314-.27 6.196-1.012 3.618 4.917zm13.097-13.24c.093-.158.214-.293.438-.304.12-.012.285.016.536.173 3.043 1.852 4.85 4.17 4.85 6.677 0 4.527-5.884 8.42-14.302 10.12-.536.11-.897.104-1.018-.03-.087-.082-.109-.228 0-.407.05-.091.11-.173.225-.308 4.58-5.345 8.073-13.23 9.063-15.504.077-.157.148-.314.208-.417zM36.84 7.407c.432-.99 1.176-3.108 2.884-3.947.52-.255 1.16-.38 1.73-.396.13-.003.224 0 .257 0 4.788 0 9.238.656 12.97 1.782l.143.054c.345.114.52.27.52.466 0 .168-.093.292-.214.411a4.05 4.05 0 01-.235.206c-.86.715-3.453 2.567-8.335 4.42-1.719.649-3.859 1.45-6.097 1.921-1.32.277-6.201 1.013-3.623-4.916zm-4.702-3.406c.542-.103.898-.103 1.03.032.076.086.097.227-.005.406a1.91 1.91 0 01-.224.303c-4.581 5.35-8.073 13.23-9.07 15.51a4.916 4.916 0 01-.207.416c-.088.157-.213.293-.433.304-.12.011-.29-.024-.541-.174-3.044-1.852-4.85-4.17-4.85-6.677 0-4.527 5.884-8.42 14.302-10.12" fill="#fff"/></svg>