<svg width="82" height="21" viewBox="0 0 82 21" fill="none" xmlns="http://www.w3.org/2000/svg"><path d="M7.287 0C5.772 0 3.953 1.502 2.479 4.024.91 6.66 0 9.891 0 12.71 0 16.849 2.245 21 7.287 21c5.041 0 7.286-4.152 7.286-8.29 0-2.82-.909-6.064-2.479-8.672C10.62 1.502 8.802 0 7.287 0zM46.64 6.178h5.096v13.674h5.469V6.178h5.096V1.12h-15.66v5.06zm27.342 0H82V1.12h-8.017c-7.37 0-11.295 3.77-11.295 9.381 0 5.611 3.94 9.38 11.295 9.38H82v-5.072h-8.017c-3.416 0-5.634-1.261-5.634-4.308 0-3.047 2.218-4.322 5.634-4.322zM35.525 1.134l-2.92 11.194-2.92-11.194h-9.657v18.76h5.469V4.62l3.98 15.247h6.268l3.98-15.26v15.26h5.47V1.134h-9.67z" fill="#141414"/></svg>