<svg width="115" height="115" viewBox="0 0 115 115" fill="none" xmlns="http://www.w3.org/2000/svg"><path d="M11.3 93.396L0 70.795 114.335 0v41.546L11.301 93.396zM21.936 115l-9.638-19.942 94.725-47.53v33.57L21.936 115z" fill="#141414"/><path d="M14.278 88.74L9.31 78.545l3.285-1.6c.901-.439 1.811-.628 2.73-.567a4.74 4.74 0 012.524.911c.767.544 1.379 1.278 1.834 2.2l.228.47c.455.933.665 1.868.63 2.803a4.81 4.81 0 01-.821 2.55c-.512.763-1.208 1.361-2.089 1.796l-3.354 1.634zm-1.584-9.495l3.121 6.408.854-.416c.706-.344 1.125-.857 1.26-1.541.133-.689-.042-1.528-.524-2.518l-.215-.44c-.48-.986-1.03-1.636-1.652-1.952-.621-.315-1.294-.296-2.018.056l-.826.403zm12.892-.465l-1.33.648 1.753 3.6-2.459 1.197-4.966-10.197 4.013-1.955c1.21-.589 2.285-.78 3.229-.576.943.205 1.653.798 2.13 1.778.346.71.488 1.369.426 1.977-.057.605-.321 1.202-.792 1.79l4.131 3.073.051.105-2.633 1.283-3.553-2.723zm-2.255-1.25l1.555-.758c.467-.227.758-.519.873-.875.117-.364.07-.765-.144-1.204-.214-.439-.5-.724-.859-.855-.36-.136-.773-.092-1.235.133l-1.555.757 1.365 2.802zm13.795-5.264l-3.865 1.883 1.183 2.43 4.566-2.223.921 1.89-7.024 3.422L27.94 69.47l7.038-3.428.924 1.897-4.58 2.231 1.047 2.15 3.866-1.882.89 1.827zm8.671-1.233l-3.369 1.64.34 2.192-2.627 1.28-1.226-12.02L41.226 63l8.734 8.362-2.64 1.286-1.523-1.615zm-3.705-.544l2.192-1.068-2.822-3 .63 4.068zm6.88-11.262l5.731 5.986-1.186-8.2 3.236-1.575 4.966 10.197-2.465 1.2-1.16-2.38-2.136-4.991 1.069 8.456-1.625.791-6.01-6.058 2.616 4.765 1.16 2.382-2.458 1.197L45.743 60.8l3.229-1.573zM20.69 93.705l5.731 5.986-1.186-8.2 3.236-1.576 4.966 10.197-2.465 1.201-1.16-2.381-2.136-4.99 1.069 8.456-1.625.791-6.01-6.058 2.616 4.765 1.16 2.381-2.458 1.197-4.967-10.197 3.229-1.572zm19.306.856l-3.369 1.64.34 2.192-2.626 1.28-1.227-12.02 2.311-1.125 8.734 8.362-2.64 1.286-1.523-1.615zm-3.705-.544l2.192-1.067-2.822-3.002.63 4.07zm10.236-4.977l-.47 1.598 1.31 2.69-2.458 1.197-4.967-10.197 2.459-1.197 2.19 4.496.223-1.712.64-4.271 3.04-1.48-1.25 6.188 6.216 4.008-2.913 1.42-4.02-2.74zm11.776-6.384l-3.866 1.882 1.184 2.43 4.566-2.223.92 1.89-7.024 3.422-4.966-10.197 7.038-3.428.925 1.898-4.58 2.23 1.047 2.15 3.866-1.882.89 1.828zm5.842-1.953l-1.33.648 1.752 3.6-2.458 1.197-4.966-10.197 4.013-1.955c1.21-.589 2.285-.78 3.228-.576.944.205 1.654.798 2.132 1.778.345.71.487 1.369.425 1.977-.058.605-.322 1.202-.792 1.79l4.131 3.073.051.105-2.633 1.283-3.553-2.723zm-2.255-1.25l1.555-.758c.466-.227.758-.519.873-.875.117-.364.07-.765-.144-1.204-.214-.439-.5-.724-.86-.855-.36-.136-.772-.092-1.234.133l-1.555.757 1.365 2.802zm13.515-3.134c-.175-.36-.44-.577-.794-.653-.35-.078-.897-.069-1.641.028-.745.097-1.369.144-1.873.14-1.637-.005-2.732-.575-3.285-1.71a2.664 2.664 0 01-.236-1.73c.12-.595.423-1.159.91-1.69.483-.536 1.101-.988 1.853-1.354.733-.357 1.453-.545 2.16-.566.71-.023 1.345.13 1.904.459.556.324.985.796 1.288 1.417l-2.451 1.194c-.203-.415-.488-.675-.856-.779-.364-.106-.763-.053-1.197.159-.439.213-.739.48-.9.802-.16.314-.166.62-.02.92.127.26.383.43.768.51.382.073.982.052 1.798-.062.814-.12 1.512-.159 2.092-.118 1.41.098 2.388.706 2.932 1.821.434.892.439 1.756.014 2.593-.424.836-1.222 1.54-2.394 2.11-.827.403-1.648.62-2.463.654-.813.026-1.515-.134-2.106-.482-.589-.354-1.047-.868-1.374-1.54l2.465-1.2c.266.545.603.881 1.01 1.006.41.118.933.023 1.567-.287.407-.197.684-.44.834-.726.151-.293.15-.599-.005-.916z" fill="#fff"/></svg>