<svg width="145" height="61" viewBox="0 0 145 61" fill="none" xmlns="http://www.w3.org/2000/svg"><path fill-rule="evenodd" clip-rule="evenodd" d="M144.726 9.339c-.657-.052-3.929-.127-4.554-.14-.628-.013-.677.674-.902 1.153-.216-.815-2.232-2.134-5.445-.93-2.776 1.037-4.856 3.777-6.032 7.118-1.084 3.071-.262 6.56 3.954 6.142-7.579.984-12.884 5.09-16.614 7.453-3.205 2.034-6.392 1.315-6.52-.93.041-.153.083-.312.128-.494l-.862.04c-5.024.233-10.065.61-15.1 1.136.162-.487.289-.86.492-1.459 1.509-4.494 2.752-7.734 4.294-12.215.717-2.148 2.294-3.489 3.398-3.294 1.853.344 1.793 3.569 1.106 5.228-1.031 2.593-2.673 4.528-3.875 3.874-.583-.331.142-1.257.142-1.257l-1.433.314c-.527 1.005-1.657 2.801-.054 4.145 1.604 1.388 4.357.488 6.084-.921 1.897-1.55 3.229-3.924 3.945-6.947.878-3.77-.874-7.565-3.854-7.283-2.255.172-4.17 1.841-4.17 1.841 0 .003.565-.97-1.133-.837-2.244.173-3.859.324-3.859.327-.871.38.393.76.089 1.569l-1.01 2.85c-1.508 4.725-3.03 8.213-4.502 12.948-.106.37-.321 1.01-.561 1.668-24.991 3.082-49.819 9.838-72.423 20.639a9417.13 9417.13 0 00-2.435 9.456C35.08 46.6 60.784 36.946 86.88 32.986c-.71 1.556-1.243 2.644-2.151 3.73-1.51 1.803-2.734 2.589-3.698 3.099-1.365.742 3.044.874 5.081-.06 3.34-1.613 3.433-3.208 3.433-3.211.747.558 1.576.87 2.308.8 3.25-.392-.736-1.476-.25-3.576.145-.495.285-.993.427-1.49 4.88-.6 9.767-.991 14.639-1.178-.357 1.23-.511 2.727.408 3.639 1.536 1.569 5.523 1.44 9.541-1.286 4.016-2.728 8.406-8.498 17.224-10.443.171-.462.477-1.569.645-2.03 0-.002-2.311 1.477-2.181-2.157.095-2.996 3.274-8.05 4.78-8.086 1.914-.046 1.089 2.132 1.089 2.132-.901 2.309-1.8 4.629-2.697 6.956-1.155 2.842.892 3.774 3.235 3.402 1.708-.273 2.492-1.006 3.268-1.591l.772-1.907c-1.446.79-3.267 1.442-2.704.033.906-2.385 2.827-6.617 3.737-8.978.231-.629 1.798-1.38.94-1.445zm-34.373 15.31c2.018.236 4.659-.523 6.809-2.935.39-.415.736-.885.94-1.426 1.47-3.207.406-4.543-.297-5.06a1.844 1.844 0 00-.425-.267c.165-.132.353-.242.658-.424.567-.341 1.427-.724 2.581-1.168.993-.366 1.357.462.911 1.37-.79 1.942-1.277 3.365-2.059 5.324-.74 1.396-.443 3.913 1.597 3.824 2.091-.07 2.871-.43 5.082-1.697-.064-.453-.129-.904-.196-1.358-1.073.764-2.469.822-1.856-.733 1.044-2.792 1.796-5.04 2.857-7.802.164-.58 2.154-3.941-2.601-2.36-2.251.82-5.312 2.209-6.304 2.846-.976.628-1.536.955-2.399 1.541 0 0 1.504 1.847.368 5.267-1.535 4.46-4.909 4.367-3.872 1.78 1.071-2.926 3.514-9.716 3.72-10.111.207-.395.824-.926-.656-.964-1.479-.04-3.967.113-3.969.15-1.137.163.261.758-.055 1.552-1.001 2.527-2.248 5.812-3.014 7.828-.512 1.248-1.03 4.44 2.18 4.822zm-60.17-4.798c.183.299-.168 1.286-.168 1.287a2552.99 2552.99 0 00-2.715 8.227s-.702 2.048-.278 3.39c.384 1.114 1.748 1.373 2.59 1.125 1.157-.342 3.081-1.478 3.966-2.65l.205-2.171c-.5.6-1.448 1.707-1.715 1.123-.221-.527.209-2.017.209-2.017.511-1.598 1.027-3.186 1.541-4.776.397-1.223.796-2.444 1.191-3.665 0 0 .872-2.39.22-3.183-.233-.303-.624-.455-1.02-.435-2.025-.009-4.002 1.873-4.967 2.754.016.34-.496 1.348-.48 1.69 0 0 1.24-1 1.42-.7zm4.12-5.538c.152-.04.358-.189.564-.28 2.98-1.776 2.315-3.016 2.167-3.317-.147-.293-.899-.88-2.53-.15a5.48 5.48 0 00-.923.526c-2.681 1.755-1.85 3.028-1.852 3.024 0 .004.584 1.129 2.574.197zM7.208 35.025c-.768-1.51.492-4.947 4.223-7.232 4.114-2.52 6.473-2.39 6.473-2.39s-1.942 3.052-4.26 5.902c-.426.524-.845.99-1.217 1.463-1.263 1.404-3.948 4.559-5.219 2.257zm16.724-15.912c1.014-2.017 2.466-4.828 2.944-6.039-.238 2.469-1.794 7.078-2.618 10.039a5.015 5.015 0 00-.06.23c-.724-.116-1.701-.216-2.5-.194a64.728 64.728 0 002.234-4.036zm-9.967 15.944c2.325-3.127 4.483-6.38 6.34-9.805 1.21.092 2.278.186 3.38.51a956.455 956.455 0 01-3.03 10.68c-1.217 3.222-2.755 6.466-5.689 8.477 0 .004 1.347.728 4.388-1.664.308-.236 2.504-2.503 2.495-2.32 0 0 1.582 1.952 6.1-.02C33.25 38.6 38.24 28.166 40.17 21.989c-.015.04.63-.36.481.14-.636 2.119-2.663 8.279-3.085 10.29-.133.571-.197 3.321 2.315 3.58 1.541.225 3.147-1.453 4.56-3.675l-.23-2.167c-1.258 1.874-1.989 1.5-1.579-.143 0-.01 1.895-6.992 2.529-8.638.698-1.498 1.307-2.345 1.64-2.646.418-.374.851-1.223-1.911-.606-2.76.617-4.353.994-7.17 1.874-1.025.36-.153.667-.018 1.003.134.337.308 2.636-2.554 7.697-1.292 2.054-3.493 6.653-6.263 8-1.569.76-2.375-.243-1.897-1.82.637-2.29 1.274-4.688 1.9-6.945 1.359.82 2.443 1.554 2.878 1.909l.961-3.003c-.554-.385-1.79-1.145-2.96-1.64 1.035-4.211 2.164-8.25 3.647-12.33.973-2.218 2.009-3.52 2.85-4.283.386-.348.382-.907-.298-.82-.967.122-2.162.503-3.331.729-2.61.502-8.29 2.122-8.847 2.316-1.22.425-.084.904.028 1.188.045.12.088.24.08.414.065.648-.02 1.402-.207 2.147-1.008 3.38-2.552 5.709-4.565 8.595-1.768.19-4.393.601-8.32 2.294-3.679 1.588-6.513 4.267-8.218 7.342-1.703 3.075-3.324 10.021 2.29 9.351 2.352-.606 5.338-2.476 7.765-5.433.419-.413.847-1.005 1.325-1.651zM79.26 17.92c.813-1.534 1.733-2.433 2.577-3.044.682-.467 1.35-.661 1.873-.165.674.562.425 1.369-.012 2.782-.493 1.466-.914 2.612-1.97 5.166a7.829 7.829 0 01-.284.568c-.898 1.59-2.527 3.016-3.671 1.98-1.288-1.11.362-5.169 1.487-7.287zm-5.609.906c-1.664 3.907-1.705 7.68.563 9.179.767.565 1.81.705 2.819.525 1.765-.277 3.258-1.883 4.284-3.139.162-.203.323-.404.438-.611 0 0-.597 2.444 1.593 2.708 1.95.236 4.172-1.836 4.172-1.83l.827-2.175c0-.001-2.67 2.155-2.325-.13.984-2.906 2.227-6.186 3.228-9.064.313-.93.555-1.378.877-1.79.403-.375.595-.718.03-.734-.952-.155-3.529.174-4.172.255-.638.082-.826 1.003-1.224 1.789-6.04-4.235-10.307 3.128-11.11 5.017zm-6.937-8.604c.471-.69 1.052-1.635 1.887-2.812 2.45-3.37 4.005-4.428 4.774-4.334.956.125.793 2.154-.229 4.033-.319.542-.643 1.138-1.105 1.611-2.061 2.397-3.815 3.383-4.888 3.736-1.069.355-1.603.483-2.022.482.157-.302 1.005-1.73 1.583-2.716zM56.77 26.727c.177 2.863 1.783 5.177 5.39 4.588 1.311-.32 2.992-1.03 4.419-2.345 1.534-1.304 2.943-3.297 4.137-6.097 1.152-3.178 2.018-9.186-3.278-8.485-.672.39-1.408.947-2.323 1.833.139.416-.142.84-.002 1.256.786-.499 1.377-.442 1.727.05.555.683.56 2.342-.097 4.345a6.833 6.833 0 00-.192.55c-1.178 3.5-2.978 6.709-4.425 6.044-1.223-.597-.482-4.97.879-9.065a101.241 101.241 0 011.877-5.065s1.32-.192 2.178-.446c1.01-.299 3.662-1.42 5.93-4 .154-.14.257-.288.413-.48.207-.292.419-.583.627-.874 2.47-3.548 2.617-6.873.44-7.742-.191-.078-.379-.155-.569-.18l-.383-.05c-1.732-.17-3.976.324-6.401 2.417-1.671 1.497-4.93 5.657-7.194 11.078-1.345 3.22-2.735 7.408-3.075 10.424-.115.709-.095 1.614-.078 2.244z" fill="#fff"/></svg>