<svg width="148" height="49" viewBox="0 0 148 49" fill="none" xmlns="http://www.w3.org/2000/svg"><path d="M138.183 20.688a.51.51 0 00-.494.503v4.76h-5.947v-4.76a.516.516 0 00-.499-.503h-1.628c-.263 0-.467.237-.467.503V33.42c0 .272.204.506.467.506h1.628a.515.515 0 00.499-.506v-5.083h5.947v5.083a.51.51 0 00.494.506h1.634c.225 0 .457-.234.457-.506V21.19c0-.265-.232-.502-.457-.502h-1.634zm-12.617-5.46c.299 0 .529.234.529.497v1.514a.52.52 0 01-.529.504h-10.127a.51.51 0 01-.495-.504v-1.514c0-.263.228-.497.495-.497h10.127zm-65.63 0a.514.514 0 00-.494.497v12.611c0 3.38 1.061 5.625 5.247 5.625h.499c5.974 0 6.873-3.986 6.873-6.032 0-1.812-.665-6.104-6.607-6.104h-3.323v-4.082h7.67a.515.515 0 00.501-.504v-1.514a.513.513 0 00-.5-.497h-9.865zm5.613 9.08c2.429 0 3.788 1.337 3.788 3.621 0 2.279-1.36 3.522-3.788 3.522h-.86c-1.823 0-2.559-.772-2.559-2.853v-4.29h3.42zm37.676-3.383a.516.516 0 00-.301.433v1.513c0 .13.099.302.195.365.14.07.271.1.401.07.896-.305 1.929-.607 3.618-.607 2.091 0 2.462.637 2.462 2.141v.275l-2.89.202c-4.653.328-4.883 3.382-4.883 4.32 0 2.78 1.462 4.487 4.95 4.487 1.096 0 2.324-.33 3.384-1.005l.235.505a.464.464 0 00.427.302h.969a.474.474 0 00.463-.467v-8.582c0-3.147-1.66-4.658-5.117-4.658-1.46 0-2.885.272-3.913.706zm1.357 8.713c0-.94.17-1.914 2.09-2.078l2.889-.27.039 3.514c-.93.572-1.663.875-2.791.875-1.102 0-2.227-.433-2.227-2.041zm-21.438 3.986a.459.459 0 00.423.302h1.17c.23 0 .46-.202.46-.467V21.191a.492.492 0 00-.498-.503h-1.593a.495.495 0 00-.499.503v8.615c-.862.938-2.42 1.736-3.586 1.736-1.625 0-2.424-.9-2.424-3.206v-7.145a.517.517 0 00-.5-.503h-1.59a.517.517 0 00-.502.503v7.98c0 2.914 1.564 4.953 4.586 4.953 1.861 0 3.488-1.005 4.284-1.707l.27 1.207zm40.927 0a.471.471 0 00.436.302h1.16c.234 0 .46-.202.46-.476V21.19a.489.489 0 00-.493-.502h-1.592a.49.49 0 00-.499.503v8.615c-.862.938-2.426 1.736-3.592 1.736-1.622 0-2.422-.9-2.422-3.206v-7.145a.514.514 0 00-.493-.503h-1.597a.51.51 0 00-.495.503v7.98c0 2.914 1.56 4.953 4.579 4.953 1.856 0 3.493-1.005 4.285-1.707l.263 1.207zM89.31 29.27c-.168 1.772-.627 2.212-2.124 2.38a.56.56 0 00-.464.532v1.342c0 .27.227.503.464.503 2.92 0 4.382-1.404 4.685-4.887l.297-3.123c.198-2.174.63-2.842 2.586-2.842h2.155V33.42c0 .272.238.506.503.506h1.592c.231 0 .498-.234.498-.506V21.19c0-.265-.266-.502-.498-.502H94.62c-3.618 0-4.676 2.112-4.978 5.096l-.332 3.485zm55.802-9.268c1.187 0 2.236.376 2.236 2.222 0 1.828-1.049 2.221-2.236 2.221-1.185 0-2.236-.394-2.236-2.221.001-1.845 1.051-2.222 2.236-2.222zm0 .377c-1.066 0-1.828.255-1.828 1.845 0 1.59.762 1.844 1.828 1.844 1.068 0 1.829-.255 1.829-1.844 0-1.59-.761-1.845-1.829-1.845zm-.491 2.998v-.913h.644l.473.922c.02.038.069.067.111.067h.288c.042 0 .059-.028.04-.066l-.538-.976c.286-.102.388-.34.388-.666 0-.461-.185-.753-.813-.753h-.905a.079.079 0 00-.078.077v2.308c0 .042.035.076.078.076h.237a.075.075 0 00.075-.076zm0-2.008h.644c.339 0 .389.171.389.376 0 .153-.05.325-.389.325h-.644v-.7zm-97.193 8.487c.404-1.756.617-3.585.617-5.465 0-1.676-.17-3.313-.493-4.893H.84a24.373 24.373 0 00-.492 4.718v.351c.013 1.818.225 3.588.616 5.289h46.464zm-5.262 10.359H6.226c4.372 5.052 10.802 8.244 17.97 8.244 7.169 0 13.598-3.192 17.97-8.244zM5.747 9.139h36.898c-3.869-4.76-9.511-7.996-15.908-8.68h-5.082c-6.397.684-12.04 3.92-15.908 8.68z" fill="#fff"/></svg>