<svg width="165" height="45" viewBox="0 0 165 45" fill="none" xmlns="http://www.w3.org/2000/svg"><path d="M15.919 26.173l-1.656-13.247c-.092-.644-.46-1.196-1.104-1.38-.644-.184-1.288-.092-1.748.368l-9.568 9.291c-.184.184-.368.46-.46.736-.276.92.184 1.84 1.012 2.208.184.092.368.092.552.092H6.26c.276.092.46.46.368.736l-.552 1.472L.187 43.284h1.196l6.348-17.847A1.825 1.825 0 006.72 23.23c-.184-.092-.368-.092-.552-.092h-3.22c-.276-.092-.46-.46-.368-.736 0-.092.092-.184.184-.276l1.104-1.104 7.268-6.991 1.196-1.196c.184-.092.368-.184.552-.092.184.092.368.276.368.46l.184 1.748 1.104 9.843.184 1.564v.276c-.092.276-.46.46-.736.368-.092 0-.092-.092-.184-.092l-.644-.552-.552-.46-1.196-.92c-.184-.092-.276-.184-.552-.276a1.825 1.825 0 00-2.208 1.012v.092l-6.164 17.48h1.196l5.52-15.64.552-1.472c.092-.276.46-.46.736-.368.092 0 .092.092.184.092l1.196 1.012 1.196 1.012c.184.092.276.184.46.276.92.276 1.84-.184 2.208-1.012.184-.46.184-.736.184-1.012zm35.233 17.02h12.972L79.303.599H66.24L51.152 43.193zm51.977 0h12.879l6.716-18.767c2.668-4.508 8.096-3.496 7.084.46l-6.44 18.307h13.431l6.348-17.94c1.656-4.507 8.739-4.783 7.176.552l-5.98 17.388h12.971l7.268-20.607c2.392-6.992-6.164-16.376-20.883-6.072-1.748-4.692-9.016-7.636-18.675-.828l.644-2.76h-12.052l-10.487 30.267zM89.977 12.926H77.832l-7.175 20.147c-3.588 11.315 7.82 15.087 18.766 7.267l-.735 2.852h11.591l10.671-30.266H98.532L92.184 30.22c-1.471 4.232-9.751 6.624-8.463.092l6.255-17.387zm-54.005 1.656L40.848.599H27.784L12.79 43.193h12.236l1.38-3.404c.735 5.151 17.663 9.383 26.678-8.74 7.084-13.063-1.012-26.035-17.111-16.467zm4.508 16.191c-2.392 2.944-6.256 4.508-8.556 3.036-2.392-1.656-2.3-5.336.092-8.832.552-.828 1.196-1.655 1.84-2.207 2.3-2.116 4.876-2.852 6.992-1.472 2.575 1.564 2.116 6.255-.368 9.475z" fill="#fff"/></svg>