<svg width="135" height="65" viewBox="0 0 135 65" fill="none" xmlns="http://www.w3.org/2000/svg"><path d="M41.512 42.029h8.53v2.762h-4.058v19.406h-4.472V42.03zm13.589 13.846l.766-11.084h.257l.767 11.084H55.1zm-4.953 8.322h4.379l.414-5.887h2.11l.415 5.887h4.377L59.511 42.03h-7.03l-2.333 22.168zm18.099-7.759v4.18c0 .563.44.727.697.727a.716.716 0 00.715-.727v-5.16c0-.691-.128-1.454-1.797-1.454h-1.815v-2.435h1.889c1.265 0 1.723-.291 1.723-1.654v-4.397a.716.716 0 00-.715-.727c-.257 0-.697.145-.697.727v3.616h-4.474V45.99c0-1.544.184-3.961 3.32-3.961h3.703c3.135 0 3.337 2.417 3.337 3.961v3.543c0 2.417-1.705 3.071-3.043 3.017v.218c3.007-.073 3.043 2.217 3.043 2.998v4.47c0 1.563-.201 3.961-3.337 3.961h-3.704c-3.135 0-3.319-2.398-3.319-3.96v-3.799h4.474zm8.819-14.409h10.36v22.168h-4.474V44.791H81.54v19.406h-4.474V42.03zm17.767 12.193V44.79h.587c.477 0 .825.4.825 1.108v7.214c0 .709-.348 1.109-.825 1.109h-.587zm-4.474 9.975h4.474v-7.54H97.4c3.117 0 3.319-2.4 3.319-3.962V45.99c0-1.544-.202-3.961-3.319-3.961h-7.04v22.168zm19.179-3.579a.716.716 0 01-.715.727c-.257 0-.697-.164-.697-.727v-15.1c0-.582.44-.727.697-.727.422 0 .715.345.715.727v15.1zm-5.886-.382c0 1.563.202 3.961 3.319 3.961h3.722c3.117 0 3.319-2.398 3.319-3.96V45.99c0-1.544-.202-3.961-3.319-3.961h-3.722c-3.117 0-3.319 2.417-3.319 3.961v14.246zm24.918-18.207h5.831v22.168h-4.474v-13.9h-.165l-2.31 13.9h-3.576l-2.292-13.9h-.165v13.9h-4.474V42.03h5.813l2.915 15.59 2.897-15.59zM35.714 11.72C34.344 5.776 30.91.943 30.438.162c-.748 1.108-3.485 5.378-4.877 10.103-1.52 5.287-1.744 9.975-1.22 14.573.521 4.615 2.489 9.358 2.489 9.358 1.045 2.471 2.61 5.142 3.63 6.45 1.495-1.925 4.93-7.668 6-15.154.596-4.18.621-7.832-.746-13.774zm-5.276 27.438c-.673-1.254-1.718-3.635-1.817-7.341-.025-3.562 1.418-6.633 1.84-7.269.375.636 1.618 3.307 1.767 6.96.1 3.561-1.095 6.378-1.79 7.65zm4.878-17.354c-.052 2.272-.325 4.67-.673 6.106.124-2.471-.174-5.942-.746-8.668-.573-2.707-2.192-7.25-3.484-9.34-1.194 2-2.665 5.924-3.435 9.322-.773 3.398-.795 7.523-.795 8.758-.206-1.035-.72-4.76-.574-8.485.12-3.071.847-6.251 1.245-7.705 1.518-4.852 3.236-7.959 3.559-8.45.322.491 2.486 4.325 3.608 8.341 1.117 4.016 1.342 7.868 1.295 10.121z" fill="#fff"/><path d="M32.763 42.029H22.35v6.923c.009 0 .016-.018.025-.018a6.32 6.32 0 018.888 0c2.453 2.416 2.453 6.36 0 8.794-.011.019-.022.019-.033.037-.013 0-.026.018-.037.036A12.599 12.599 0 0122.35 61.4c-3.213 0-6.425-1.2-8.875-3.634a12.35 12.35 0 01-1.538-15.736 12.61 12.61 0 011.538-1.854c2.45-2.435 5.662-3.634 8.875-3.634V19.897C10.006 19.896 0 29.8 0 42.029c0 12.229 10.006 22.15 22.35 22.15a22.41 22.41 0 0016.311-7.014V42.03h-5.898z" fill="#fff"/></svg>