<svg width="101" height="59" viewBox="0 0 101 59" fill="none" xmlns="http://www.w3.org/2000/svg"><path fill-rule="evenodd" clip-rule="evenodd" d="M.98.313h99.533v58.44H.98V.314zM7.105 53.54V51.3l54.642-.118V10.445l20.06-4.89 12.901 5.097V53.54h-2.003V12.213L81.807 8v45.54H7.105zm.383-28.307v-8.925h1.797v3.534h3.535v-3.534h1.797v8.925H12.82v-3.888H9.285v3.888H7.488zm9.073-6.687c-.265.619-.413 1.385-.413 2.298 0 1.414.383 2.562 1.15 3.358.765.795 1.826 1.207 3.151 1.207 1.326 0 2.357-.383 3.152-1.207.795-.825 1.178-1.944 1.178-3.388 0-1.473-.383-2.592-1.178-3.417-.795-.824-1.826-1.237-3.152-1.237-.707 0-1.355.118-1.915.354a3.672 3.672 0 00-1.148.795 4.777 4.777 0 00-.825 1.237zm2.15 4.536c-.471-.53-.707-1.296-.707-2.297 0-1.031.206-1.797.648-2.298.442-.5 1.06-.766 1.797-.766.766 0 1.355.265 1.797.766.442.501.677 1.267.677 2.298 0 1.03-.206 1.797-.677 2.327a2.34 2.34 0 01-1.767.766 2.267 2.267 0 01-1.768-.796zm7.453 2.15v-8.924h2.71l1.62 6.097 1.59-6.097h2.71v8.925h-1.678v-7.04l-1.768 7.04H29.61l-1.767-7.04v7.04h-1.679zm10.43-8.924v8.895h6.804v-1.502H38.42v-2.415h4.477v-1.503H38.42V17.81h4.801v-1.502h-6.627zm-23.39 17.555l1.738.56c-.265.972-.707 1.709-1.325 2.18-.619.471-1.414.707-2.357.707-1.178 0-2.15-.413-2.916-1.208-.766-.795-1.149-1.915-1.149-3.328 0-1.473.383-2.652 1.15-3.447.765-.795 1.767-1.237 3.033-1.237 1.09 0 1.974.324 2.651.972.413.383.707.943.913 1.65l-1.796.412c-.118-.471-.325-.825-.649-1.09a1.873 1.873 0 00-1.207-.412c-.648 0-1.208.235-1.62.707-.413.47-.619 1.237-.619 2.297 0 1.12.206 1.944.619 2.416.412.471.942.707 1.59.707a1.76 1.76 0 001.238-.472c.324-.294.56-.766.707-1.414zm3.3-5.655v8.866H18.3v-3.711h.413c.412 0 .736.03.913.088.177.088.353.177.53.383.177.206.471.618.943 1.325l1.296 1.945h2.15l-1.09-1.738-.035-.054c-.424-.65-.738-1.132-.996-1.39a5.258 5.258 0 00-.972-.736c.795-.118 1.385-.383 1.768-.825.383-.412.589-.972.589-1.65 0-.53-.118-1.001-.383-1.413-.265-.413-.59-.707-1.031-.855-.442-.147-1.149-.235-2.092-.235h-3.8zm3.122 3.77H18.3v-2.297h1.385c.736 0 1.178 0 1.325.029.295.059.53.177.678.354.147.206.236.441.236.736 0 .265-.06.5-.177.677a.927.927 0 01-.501.383c-.206.089-.766.118-1.62.118zm5.89 5.126v-8.896h6.627v1.502h-4.801v1.974h4.477v1.502h-4.477v2.416h4.978v1.502h-6.804zm11.607-8.896h-3.24v8.925h3.387c.648 0 1.178-.059 1.59-.177.531-.177.944-.412 1.267-.707.413-.412.707-.942.943-1.59.177-.53.265-1.15.265-1.886 0-.854-.088-1.56-.294-2.12-.207-.56-.472-1.06-.855-1.444-.383-.383-.824-.677-1.355-.825-.412-.117-.972-.176-1.708-.176zM35.62 35.66v-5.89h.854c.736 0 1.208.03 1.473.088.324.06.618.207.825.413.206.206.382.471.5.854s.177.913.177 1.59c0 .678-.059 1.208-.177 1.62-.118.384-.265.678-.471.855a1.607 1.607 0 01-.736.383c-.236.059-.59.088-1.09.088H35.62zm7.156 1.473v-8.925h1.797v8.925h-1.797zm5.51-7.423v7.423h1.797V29.71h2.65v-1.502h-7.098v1.502h2.65zm-37.234 9.897c.706 0 1.237.03 1.59.089.354.059.648.177.943.383.265.176.5.442.677.736.177.324.265.648.265 1.031 0 .413-.117.795-.324 1.149-.235.353-.53.619-.913.795.53.148.972.442 1.267.796.294.383.442.824.442 1.355 0 .412-.089.795-.295 1.178a2.32 2.32 0 01-.766.913 2.278 2.278 0 01-1.207.412c-.295.03-1.031.06-2.18.06H7.518v-8.897h3.535zM9.315 41.08v2.062h1.178c.707 0 1.149 0 1.296-.03.295-.029.56-.147.736-.323.177-.177.265-.413.265-.707 0-.265-.088-.501-.235-.678-.147-.177-.383-.265-.678-.324-.177-.03-.677-.03-1.532-.03h-1.03v.03zm0 3.564v2.386h1.679c.648 0 1.06-.03 1.237-.059.265-.058.471-.176.648-.353.177-.177.265-.442.265-.766 0-.265-.059-.5-.206-.677-.118-.177-.324-.324-.56-.413-.236-.088-.766-.118-1.59-.118H9.314zm13.257 3.889h1.973l-3.564-8.926h-1.915l-3.476 8.926h1.915l.736-2.033h3.565l.765 2.033zm-2.563-6.834l1.237 3.299h-2.445l1.208-3.3zm5.507 6.834v-8.926h1.767l3.653 5.95v-5.95h1.679v8.926h-1.797L27.224 42.7v5.833h-1.708zm9.015-8.926v8.955h1.797v-2.71L37.8 44.35l2.445 4.183h2.327l-3.535-5.45 3.359-3.476H39.98l-3.652 3.977v-3.977H34.53z" fill="#fff"/></svg>