<svg width="121" height="67" viewBox="0 0 121 67" fill="none" xmlns="http://www.w3.org/2000/svg"><path d="M12.267 48.965v6.61h-7.49v-6.61H.648v17.342h4.13v-6.973h7.49v6.973h4.128V48.965h-4.129zm19.254 0l-4.318 6.868-4.313-6.868h-4.87L25.146 60.3v6.007h4.124V60.3l7.127-11.335H31.52zm18.149 0v12.71a.855.855 0 01-.877.872H42.18V48.965h-4.128v17.342h12.196c1.086 0 1.958-.324 2.595-.957.633-.637.951-1.509.951-2.59V48.966H49.67zm20.144 0H57.617v17.342h4.124V52.72h6.624c.532 0 .871.419.871.867v12.72h4.124V52.51c0-1.085-.324-1.957-.951-2.59-.643-.637-1.51-.956-2.595-.956zm19.566 0H77.184v17.342H89.38c1.086 0 1.953-.324 2.585-.957.638-.637.956-1.509.956-2.59V52.512c0-1.085-.319-1.957-.956-2.59-.632-.637-1.504-.956-2.585-.956zm-.582 4.652v8.033c0 .468-.339.897-.877.897h-6.619V52.72h6.59c.542 0 .906.379.906.897zm11.317-4.652c-1.08 0-1.957.32-2.59.957-.637.637-.95 1.509-.95 2.59v13.795h4.113v-5.364h7.495v5.364h4.124V48.965h-12.192zm8.068 3.755v4.468h-7.495v-3.586a.88.88 0 01.881-.882h6.614zm8.137 13.587h4.129V48.965h-4.129v17.342zM58.112 36.948c19.805 0 35.862-8.135 35.862-18.164C93.974 8.747 77.917.612 58.112.612c-19.797 0-35.854 8.135-35.854 18.172 0 10.03 16.057 18.164 35.854 18.164zm6.753-8.914c-.598 1.371-1.628 4.3-3.99 5.468-.719.352-1.605.517-2.392.547h-.364c-6.616 0-12.779-.914-17.934-2.464-.039-.017-.16-.06-.197-.075-.477-.157-.72-.375-.72-.644 0-.232.13-.412.296-.577.076-.068.182-.157.325-.285 1.197-.981 4.778-3.55 11.53-6.112 2.37-.892 5.338-2.008 8.442-2.66 1.817-.374 8.57-1.4 5.004 6.802zM82.981 9.72c.129-.217.296-.404.606-.42.166-.016.394.022.742.24 4.209 2.562 6.707 5.768 6.707 9.236 0 6.262-8.138 11.647-19.782 14-.742.15-1.241.142-1.408-.044-.12-.113-.15-.315 0-.562.068-.127.152-.24.31-.427 6.337-7.393 11.167-18.3 12.537-21.445.106-.218.205-.435.288-.577V9.72zm-31.508-.231c.598-1.37 1.627-4.3 3.99-5.46.719-.353 1.604-.525 2.392-.547.181-.006.31 0 .356 0 6.624 0 12.779.906 17.942 2.464.038.016.159.06.197.075.476.157.719.374.719.644 0 .232-.129.404-.295.57a5.604 5.604 0 01-.326.284c-1.189.989-4.777 3.55-11.53 6.112-2.377.9-5.337 2.008-8.434 2.66-1.824.381-8.577 1.4-5.011-6.802zm-6.504-4.711c.75-.143 1.242-.143 1.424.043.106.12.136.315-.006.562a2.632 2.632 0 01-.31.42c-6.337 7.4-11.167 18.299-12.544 21.452a6.811 6.811 0 01-.288.577c-.122.217-.295.404-.598.42-.167.016-.401-.033-.75-.24-4.21-2.562-6.707-5.768-6.707-9.236 0-6.262 8.138-11.647 19.781-14" fill="#fff"/></svg>