<svg width="179" height="56" viewBox="0 0 179 56" fill="none" xmlns="http://www.w3.org/2000/svg"><path d="M129.771 4.481h-4.154v27.217h4.154V4.48zm7.031 22.301c-1.554 0-2.806 1.206-2.806 2.703 0 1.497 1.252 2.703 2.806 2.703s2.806-1.206 2.806-2.703c0-1.497-1.252-2.703-2.806-2.703zm10.918-4.558c0-3.247 2.022-6.03 5.942-6.03h2.475v-3.789h-2.475c-3.068 0-4.471.941-5.901 2.505l-.027.04v-2.545h-4.113v19.28h4.099v-9.461zm-26.613-9.819h-4.154v19.28h4.154v-19.28zm-2.079-3.193c1.555 0 2.806-1.206 2.806-2.703 0-1.498-1.265-2.703-2.806-2.703-1.554 0-2.805 1.205-2.805 2.703 0 1.497 1.265 2.703 2.805 2.703zm-10.657 5.141c-1.595-1.563-4.044-2.438-6.478-2.438-5.804 0-10.522 4.545-10.522 10.137 0 5.591 4.718 10.136 10.522 10.136 2.434 0 5.006-1.007 6.478-2.597v2.107h4.085V12.405h-4.085v1.948zM102.03 28.16c-3.576 0-6.299-2.65-6.299-6.108 0-3.459 2.723-6.082 6.299-6.082 3.576 0 6.396 2.464 6.396 6.082 0 3.617-2.82 6.108-6.396 6.108zm65.606 4.028c1.857 0 4.222-.967 5.708-2.61.014.729 0 1.391 0 2.107h4.085v-19.28h-4.099v10.587c0 2.743-2.173 5.3-5.433 5.3-2.847 0-4.869-1.987-4.869-4.836V12.42h-4.098v11.368c.013 5.088 2.861 8.401 8.706 8.401zM79.377 11.915c-2.723 0-5.391 1.193-7.014 3.074-1.486-1.895-3.645-3.074-6.547-3.074-2.366 0-4.058 1.02-4.965 1.842v-1.352h-4.085v19.28h4.085V20.409c0-2.518 2.131-4.559 4.73-4.559 2.6 0 4.732 2.054 4.732 4.559v11.276h4.085V20.409c0-2.518 2.132-4.559 4.732-4.559s4.731 2.054 4.731 4.559v11.276h4.085V20.409c.027-5.168-3.452-8.494-8.569-8.494zm53.943 28.687l-.027.026v-1.497h-2.613v11.316h2.613v-5.3c0-1.908 1.183-3.538 3.48-3.538h1.444V39.13h-1.444c-1.788 0-2.614.556-3.453 1.47zm28.098 4.73c0 1.816-1.512 2.902-2.984 2.902-1.554 0-2.655-1.086-2.655-2.637v-6.453h-2.627v6.639c0 3.14 1.871 4.956 5.117 4.956 1.059 0 2.31-.517 3.136-1.299v1.02h2.613V39.144h-2.627l.027 6.188zm-16.393-6.479c-3.397 0-6.162 2.663-6.162 5.936s2.765 5.936 6.162 5.936 6.162-2.663 6.162-5.936-2.751-5.936-6.162-5.936zm0 9.355c-1.953 0-3.548-1.537-3.548-3.419 0-1.881 1.595-3.418 3.548-3.418s3.549 1.537 3.549 3.418c0 1.882-1.582 3.419-3.549 3.419zm27.809-9.355c-1.348 0-2.655.45-3.576 1.22v-.942h-2.613v15.212h2.613V49.44c.88.795 2.242 1.299 3.576 1.299 3.397 0 6.162-2.664 6.162-5.937 0-3.286-2.765-5.949-6.162-5.949zm-.083 9.302c-2.049 0-3.534-1.418-3.534-3.366 0-1.948 1.485-3.352 3.534-3.352 1.981 0 3.48 1.444 3.48 3.352 0 1.922-1.499 3.366-3.48 3.366zm-47.283-8.083c-.921-.769-2.228-1.219-3.576-1.219-3.397 0-6.162 2.663-6.162 5.936s2.765 5.936 6.162 5.936c1.334 0 2.696-.503 3.576-1.298v.225c-.041 2.319-1.21 3.498-3.493 3.498h-.028c-1.293 0-2.434-.477-3.493-1.47l-.097-.093-1.898 1.749.083.092c.976 1.1 2.957 2.359 5.337 2.359h.123c2.228-.04 5.97-.874 6.08-6.042V39.118h-2.614v.954zm-3.493 8.083c-1.981 0-3.48-1.444-3.48-3.366 0-1.908 1.499-3.352 3.48-3.352 2.049 0 3.535 1.404 3.535 3.352-.014 1.948-1.486 3.366-3.535 3.366zM29.256 21.707c0 3.511-2.957 6.36-6.602 6.36-3.644 0-6.601-2.849-6.601-6.36s2.957-6.36 6.601-6.36c3.645 0 6.602 2.862 6.602 6.36zM22.654.573C10.551.573.704 10.06.704 21.72c0 11.66 9.847 21.135 21.95 21.135 4.43 0 8.707-1.272 12.365-3.684l.07-.04-2.958-3.312-.055.026a17.933 17.933 0 01-9.422 2.663c-9.614 0-17.44-7.539-17.44-16.8 0-9.263 7.826-16.802 17.44-16.802 9.615 0 17.44 7.54 17.44 16.801 0 1.206-.137 2.412-.412 3.617-.55 2.187-2.132 2.85-3.329 2.756-1.196-.092-2.599-.914-2.613-2.928v-3.445c0-5.896-4.979-10.693-11.1-10.693-6.12 0-11.099 4.797-11.099 10.693s4.98 10.693 11.1 10.693c2.97 0 5.763-1.126 7.867-3.153 1.224 1.828 3.219 2.98 5.488 3.153.192.013.399.027.591.027a7.649 7.649 0 004.457-1.445c1.32-.967 2.297-2.358 2.833-4.028.082-.265.247-.888.247-.888v-.026c.317-1.338.468-2.677.468-4.333C44.606 10.06 34.758.573 22.654.573z" fill="#fff"/></svg>