<svg width="118" height="31" viewBox="0 0 118 31" fill="none" xmlns="http://www.w3.org/2000/svg"><path d="M10.486.18c-2.18 0-4.797 2.145-6.918 5.749C1.308 9.694 0 14.309 0 18.338c0 5.91 3.231 11.842 10.486 11.842 7.255 0 10.486-5.931 10.486-11.842 0-4.029-1.309-8.664-3.568-12.39C15.283 2.326 12.666.18 10.486.18zm56.631 8.826h7.334V28.54h7.87V9.006h7.334V1.779H67.117v7.227zm39.347 0H118V1.779h-11.536c-10.605 0-16.254 5.384-16.254 13.4 0 8.017 5.669 13.402 16.254 13.402H118v-7.247h-11.536c-4.916 0-8.108-1.802-8.108-6.154s3.192-6.174 8.108-6.174zM51.121 1.799l-4.203 15.992-4.202-15.992H28.821v26.802h7.87V6.779l5.728 21.781h9.019l5.728-21.8v21.8h7.87V1.8H51.12z" fill="#fff"/></svg>