<svg width="92" height="77" viewBox="0 0 92 77" fill="none" xmlns="http://www.w3.org/2000/svg"><path fill-rule="evenodd" clip-rule="evenodd" d="M17.402 28.195c9.36-.346 21.33-.717 28.497-.717 7.271 0 19.486.382 28.903.732l-.043-.015s-.045-.045-.045-.09C70.35 17.035 59.17 9.145 46.08 9.145c-13.134 0-24.315 7.934-28.678 19.05zm67.326.431c1.792.208 2.7.34 3.484.555 2.59.583 3.136 1.48 3.136 3.317v12.416c0 1.792-1.954 3.047-3.318 3.271-1.28.253-2.119.347-3.382.47C79.99 64.89 64.463 76.826 46.035 76.826c-18.435 0-33.922-11.9-38.619-28.148h-.013c-1.409-.135-2.272-.225-3.636-.494C2.404 47.96.449 46.705.449 44.912V32.498c0-1.838.546-2.734 3.136-3.317.818-.224 1.773-.358 3.727-.583C11.857 12.194 27.492.092 46.035.092c18.498 0 34.087 12.012 38.677 28.417a.4.4 0 00.005.086.18.18 0 00.01.031zM78.316 49.03h.006c-.122.342-.25.683-.384 1.02.132-.337.258-.677.378-1.02zm-32.417 1.038c9.59 0 20.372-.425 28.633-.84-.005.024-.025.062-.044.1a.375.375 0 00-.045.113c-4.545 10.757-15.544 18.376-28.406 18.376-12.953 0-23.997-7.709-28.497-18.556a8.193 8.193 0 01-.087-.023c8.233.412 18.935.83 28.446.83zm17.683-16.31c.25.158.37.524.77 1.384.182.419.858 1.864 1.592 3.435.918 1.964 1.928 4.125 2.18 4.723.12.275.065.274-.196.27l-.121-.001h-2.5c-.136 0-.273-.045-.318-.18 0-.04-.266-.643-.659-1.534l-.114-.258h-5.863c-.454 1.03-.818 1.792-.818 1.792-.045.09-.136.18-.318.18h-2.409c-.363 0-.5 0-.273-.448l.046-.09c1.136-2.465 3.818-8.382 3.818-8.382.259-.532.333-.79.505-.916.19-.14.5-.115 1.313-.115.409-.044.5-.044 1-.044s.863 0 1 .044c.787.022 1.132-.008 1.365.14zm-2.82 2.236c0 .045-.727 1.748-1.5 3.496h4.045a83.051 83.051 0 00-.97-2.301c-.225-.52-.404-.932-.484-1.15-.046-.135-.136-.18-.227-.18-.046-.044-.182-.044-.273-.044-.136 0-.273 0-.318.044-.137 0-.227.045-.273.135zm-33.36-2.241c0-.18-.045-.27-.273-.27h-2.454c-.182 0-.227.09-.227.27v9.412c0 .27.045.314.318.314h2.318c.273 0 .318-.09.318-.314v-9.412zm-4.908.134c0-.224-.046-.313-.319-.313h-2c-.272 0-.317.09-.317.313v7.486s-4.045-6.141-4.545-6.948c-.607-.854-.841-.854-2.356-.852h-2.553c-.273 0-.318.09-.318.314v9.368c0 .269.045.314.318.314h2c.273 0 .318-.045.318-.314v-7.35s3.363 5.064 4.454 6.767c.545.897.682.897 2.273.897h2.726c.273 0 .319-.045.319-.314v-9.368zm59.538 0c0-.224-.045-.313-.318-.313h-2c-.272 0-.318.09-.318.313v7.486s-4-6.141-4.545-6.948c-.606-.854-.84-.854-2.355-.852h-2.553c-.273 0-.318.09-.318.314v9.368c0 .269.045.314.318.314h2c.272 0 .318-.045.318-.314v-7.35s3.318 5.064 4.454 6.767c.545.897.682.897 2.272.897h2.727c.273 0 .318-.045.318-.314v-9.368zM40.81 39.535c-.364-1.659-1.682-1.972-3.454-2.152-.285-.025-.701-.058-1.17-.095-1.182-.093-2.699-.212-3.284-.308-.319-.045-.455-.224-.455-.448v-.404c.045-.313.182-.448.5-.448h7.136c.272.045.363-.045.363-.269v-1.613c0-.224-.09-.27-.363-.27H32.81c-1.91 0-2.954.673-3.273 2.063-.045.313-.045.717-.045.986 0 .313 0 .672.045.94.091.808.637 1.704 2.818 1.928 1.682.18 4.181.404 5.045.448.389.043.45.288.493.466l.007.027v.673c-.045.224-.136.314-.455.314h-7.59c-.272 0-.318.044-.318.313v1.569c0 .269.046.314.319.314h7.499c1.908 0 3.09-.314 3.408-1.883.091-.358.091-.762.091-1.075 0-.324-.02-.629-.033-.838a4.777 4.777 0 01-.012-.238zm12.862 0c-.364-1.659-1.682-1.972-3.454-2.152-.293-.027-.745-.063-1.254-.104-1.148-.091-2.588-.206-3.155-.299-.363-.045-.454-.224-.454-.448v-.404c.045-.313.181-.448.5-.448h7.135c.273.045.364-.045.364-.269v-1.613c0-.224-.091-.27-.364-.27h-7.272c-1.909 0-2.954.673-3.272 2.063-.045.313-.045.717-.045.986 0 .313 0 .672.045.94.136.808.636 1.704 2.818 1.928 1.681.18 4.181.404 5.045.448.363.045.454.314.5.493v.673c-.046.224-.137.314-.455.314h-7.59c-.273 0-.318.044-.318.313v1.569c0 .269.045.314.318.314h7.454c1.909 0 3.09-.314 3.408-1.883.091-.358.091-.762.091-1.075 0-.324-.02-.629-.033-.838a4.87 4.87 0 01-.012-.238z" fill="#fff"/></svg>