<svg width="115" height="86" viewBox="0 0 115 86" fill="none" xmlns="http://www.w3.org/2000/svg"><path fill-rule="evenodd" clip-rule="evenodd" d="M97.968.827c3.78 1.153 7.498 1.874 10.897 3.532 2.133 1.04 3.93 2.445 5.076 4.53 1.108 2.013 1.014 3.981-.305 5.877-1.043 1.499-2.481 2.557-4.074 3.444-3.374 1.879-6.763 3.736-9.938 5.93-1.27.877-2.531 1.774-3.472 3.009-.21.276-.375.242-.642.128-2.797-1.19-5.665-2.196-8.579-3.105.066-.363.402-.3.609-.377 5.565-2.08 11.114-4.193 16.309-7.08a19.077 19.077 0 002.908-1.96c2.642-2.186 1.034-5.227-1.131-6.163-.5-.216-.966-.222-1.457.126C92.953 16.654 80.331 21.172 66.7 23.124c-16.255 2.327-32.3 1.295-48.077-3.225-5.237-1.5-10.293-3.44-14.887-6.38-1.217-.78-2.357-1.654-3.334-2.726 1.923 1.117 3.88 2.16 5.917 3.058 5.922 2.608 12.146 4.215 18.548 5.16 17.965 2.65 35.686 1.401 53.15-3.376 6.087-1.665 11.945-3.925 17.445-7 .776-.435 1.535-.891 2.19-1.49 1.794-1.644 2.064-3.472.82-5.534-.13-.216-.272-.425-.504-.784z" fill="#fff"/><path fill-rule="evenodd" clip-rule="evenodd" d="M.402 49.802c30.706-28.049 81.848-28.65 113.282-1.219-.169.126-.265-.036-.362-.105-12.339-8.85-26.106-14.01-41.23-15.605-16.021-1.69-31.403.692-46.083 7.332a80.88 80.88 0 00-15.352 9.102c-.458.345-.908.512-1.492.506-2.872-.026-5.744-.011-8.763-.011zM68.78 85.533c-2.934-.613-5.438-1.984-7.783-3.626-4.691-3.287-8.184-7.508-10.8-12.385-.315-.587-.642-.824-1.368-.802-2.19.07-2.205.035-2.155 2.127.05 2.022.11 4.044.21 6.064.025.534-.119.71-.704.687a39.337 39.337 0 00-3.237 0c-.607.026-.716-.184-.69-.701.234-4.588.31-9.178.187-13.77-.041-1.503-.116-3.004-.176-4.506-.012-.293-.124-.619.414-.606 3.7.088 7.415-.244 11.099.202 2.232.27 4.118 1.172 4.726 3.434.847 3.158-.874 5.957-3.569 6.578-.463.107-.345.302-.2.576 2.122 4.007 4.68 7.74 7.837 11.107 1.907 2.033 3.997 3.887 6.21 5.621zM46.769 61.072c.012.819-.124 4.043-.123 4.835 0 .246-.036.51.373.498 1.627-.048 3.274.16 4.868-.306 1.658-.485 2.332-1.549 2.122-3.299-.165-1.377-1.163-2.238-2.805-2.306-1.28-.054-2.566.014-3.848-.01-.489-.01-.592.2-.587.588zm-8.606 6.562c-.037 1.881-.181 3.64-.703 5.35-.96 3.147-3.04 4.82-6.096 5.235-1.866.254-3.725.242-5.574-.157-2.654-.574-4.417-2.245-5.216-4.952-1.015-3.442-1.02-6.94-.135-10.412.806-3.162 2.785-5.005 5.86-5.508 1.944-.319 3.89-.325 5.818.078 2.93.611 4.686 2.557 5.479 5.545.427 1.61.54 3.262.567 4.821zm-4.261.124c-.008-1.69-.048-3.376-.547-5.005-.481-1.567-1.435-2.638-3.013-2.884-3.73-.582-5.296.825-5.846 3.429-.62 2.938-.634 5.91.03 8.843.57 2.507 1.97 3.5 4.612 3.469 2.448-.03 3.824-1.158 4.38-3.593.32-1.4.384-2.826.384-4.259zM13.79 72.265c.282-4.477.275-8.876-.003-13.268-.05-.798.162-.98.942-.957 2.023.057 2.026.018 1.932 2.004-.26 5.475-.214 10.95.066 16.421.035.686-.14.878-.82.836-1.05-.066-2.248.268-3.118-.135-.875-.404-1.202-1.648-1.762-2.528-2.382-3.74-4.785-7.467-7.317-11.109a1.092 1.092 0 00-.552-.453c0 1.756-.027 3.513.007 5.268.052 2.738.122 5.475.24 8.21.027.63-.15.812-.746.739-.714-.087-1.677.314-2.082-.172-.34-.41-.083-1.33-.053-2.022.233-5.395.242-10.789-.065-16.18-.042-.727.15-.962.865-.869.425.055.879.081 1.294-.003 1.512-.306 2.291.432 3.03 1.667a210.566 210.566 0 007.47 11.586c.223.322.448.643.673.965zm100.437-11.159c-1.96-.918-3.908-1.352-5.938-1.296a9.494 9.494 0 00-1.673.181c-1.711.357-2.936 1.387-3.451 3.21-.761 2.698-.893 5.441-.142 8.165.688 2.493 2.376 3.845 4.788 3.962.774.037 1.55.051 2.325.047.533-.004.79-.24.772-.902-.052-1.958-.086-3.916-.375-5.853-.077-.52-.042-.727.511-.706 1.068.042 2.139.017 3.208.01.311-.002.494.04.444.476-.34 2.924-.285 5.862-.223 8.797.013.597-.125.799-.7.772-1.474-.068-2.926.268-4.393.357-1.444.089-2.887.123-4.318-.161-3.11-.618-5.139-2.572-6.043-5.816-.825-2.96-.85-5.975-.118-8.955.97-3.94 3.412-5.968 7.563-6.347 2.407-.22 4.809.008 7.207.234.379.036.578.136.565.609-.03 1.033-.009 2.068-.009 3.216zm-31.941 6.53c.042-2.976-.072-5.95-.228-8.922-.03-.555.09-.74.722-.736 4.386.026 8.771.025 13.156 0 .612-.003.77.16.766.723-.015 1.733.011 1.736-1.831 1.723-2.51-.018-5.02-.02-7.53-.079-.656-.016-.839.163-.833.763a46.018 46.018 0 01-.114 3.567c-.038.57.2.66.737.658 2.539-.011 5.079.01 7.612-.16.684-.045.953.078.93.796-.051 1.64-.008 1.652-1.756 1.598-2.25-.07-4.499-.11-6.75-.088-.564.006-.815.102-.79.709.088 2.053.133 4.109.148 6.164.005.58.223.708.807.695 3.058-.066 6.116-.07 9.173-.149.703-.018.862.18.85.804-.033 1.65-.003 1.651-1.752 1.651-4.24 0-8.482-.015-12.723.016-.692.004-.863-.17-.83-.81.158-2.972.269-5.946.236-8.923zm-12.742 6.042c.984-2.936 1.983-5.867 2.95-8.808.665-2.025 1.3-4.06 1.918-6.098.144-.478.332-.726.912-.68.704.055 1.416.037 2.122.007.528-.023.617.102.425.585a535.927 535.927 0 00-2.834 7.334c-1.342 3.537-2.636 7.09-3.739 10.701-.157.515-.406.665-.946.642a29.834 29.834 0 00-2.971.004c-.66.038-.921-.209-1.121-.78-1.993-5.679-4.04-11.34-6.29-16.934-.621-1.545-.618-1.564 1.132-1.54 1.038.015 2.338-.4 3.042.165.657.527.7 1.75 1.002 2.67 1.395 4.252 2.786 8.506 4.178 12.759.073-.01.147-.018.22-.027z" fill="#fff"/></svg>