<svg width="233" height="55" viewBox="0 0 233 55" fill="none" xmlns="http://www.w3.org/2000/svg"><path fill-rule="evenodd" clip-rule="evenodd" d="M41.782.257L28.186 13.873l-7.084 7.094 6.602 6.611L41.3 13.963l13.596 13.615-6.513 6.522 6.995 7.005 13.596-13.616L41.782.257z" fill="#fff"/><path fill-rule="evenodd" clip-rule="evenodd" d="M41.782 27.489L28.186 41.105 14.59 27.489l6.512-6.523-6.994-7.004L.512 27.578l27.192 27.23L41.3 41.194l7.083-7.094-6.601-6.611zm39.235 2.921c.758 0 1.383-.108 1.856-.34.918-.42 1.338-1.313 1.338-2.52 0-.999-.393-1.884-1.258-2.41-.5-.286-1.124-.394-1.99-.394h-.757v5.665h.81zm-4.399-8.576h4.506c1.57 0 2.883.214 3.899.732 1.882.894 2.908 2.6 2.908 4.986 0 2.02-.865 4.172-3.435 5.164-.972.366-2.167.598-3.693.598h-.607v5.798H76.61V21.834h.01-.001zM99.476 32.01l-1.018-2.913a47.336 47.336 0 01-.785-2.574h-.054c-.134.609-.392 1.341-.865 2.601l-1.043 2.887h3.764l.001-.002zM96.13 21.753h2.908l7.048 17.36h-3.855l-1.677-4.227h-5.86l-1.598 4.226h-3.693l6.727-17.36zm17.013 7.925c.785 0 1.284-.134 1.731-.367.677-.42 1.15-1.125 1.15-2.1 0-.92-.419-1.706-1.177-2.099-.393-.241-.883-.366-1.678-.366h-1.365v4.933h1.339v-.001zm-4.924-7.844h5.155c1.544 0 2.694.232 3.614.651 1.99.867 2.748 2.52 2.748 4.352 0 2.25-1.41 3.833-3.355 4.431v.054c.526.286 1.285 1.232 2.204 2.833l2.801 4.957h-4.113l-2.275-4.145c-.865-1.626-1.472-2.278-1.882-2.386h-1.312v6.531h-3.585V21.834z" fill="#fff"/><path d="M127.675 21.834h-3.585v17.278h3.585V21.833z" fill="#fff"/><path fill-rule="evenodd" clip-rule="evenodd" d="M135.035 24.88h-5.031v-3.046h14.086l-.946 3.047h-4.522v14.231h-3.587V24.881zm11.071-3.046h9.975l-.947 3.047h-5.441v3.985h5.468v3.01h-5.468v4.2h6.361v3.036h-9.948V21.834zm16.782 3.047h-5.023v-3.047h14.077l-.937 3.047h-4.532v14.231h-3.585V24.881zm15.817 12.605c2.328 0 3.871-.92 3.871-3.224 0-1.94-1.435-3.172-3.639-3.172h-2.802v6.397h2.57zm-.687-8.023c2.302 0 3.532-1.125 3.532-3.047 0-1.723-.999-2.966-3.461-2.966h-1.962v6.005h1.891v.008zm-3.819-7.63h4.007c3.666 0 5.29 2.02 5.29 4.379 0 1.76-.866 3.145-2.275 3.752v.054c1.936.42 3.355 2.018 3.355 4.198 0 2.913-2.044 4.905-5.871 4.905h-4.506V21.834zm21.965 11.017l-1.784-4.986c-.553-1.519-.812-2.332-1.026-2.983h-.054c-.214.66-.499 1.464-1.043 2.983l-1.811 4.985h5.718zm-3.506-11.07h1.338l6.602 17.332h-2.097l-1.704-4.636h-6.941l-1.703 4.636h-2.044l6.549-17.332zm22.982 17.332l-8.271-10.962a97.03 97.03 0 01-2.436-3.332h-.052c.052.866.079 1.598.079 2.956v11.33h-1.936v-17.27h1.857l7.957 10.542a125.78 125.78 0 012.515 3.484h.054c-.054-.92-.054-1.68-.054-3.037v-10.99h1.909v17.28h-1.622zm5.869-17.278h1.936v7.916h.054l6.548-7.916h2.302l-7.173 8.55 7.637 8.728h-2.427l-6.887-7.889h-.054v7.89h-1.936v-17.28z" fill="#fff"/></svg>