<svg width="121" height="61" viewBox="0 0 121 61" fill="none" xmlns="http://www.w3.org/2000/svg"><g clip-path="url(#clip0)"><path fill-rule="evenodd" clip-rule="evenodd" d="M36.829 8.714l51.202.04v-.001c16.29 0 32.227 8.442 32.227 28.813 0 11.845-6.973 18.814-11.054 21.967-1.338 1.033-2.778.8-3.755-.678-1.81-2.736-6.936-6.665-21.673-6.665l-51.202-.04C16.284 52.15.348 43.71.348 23.336c0-11.843 6.972-18.813 11.054-21.965 1.337-1.033 2.777-.799 3.755.678 1.809 2.736 6.935 6.665 21.672 6.665zm-7.283 15.111V36.85c0 .455.137.816.414 1.085.276.267.648.4 1.115.4h7.318c.414 0 .754-.127 1.018-.383.264-.257.398-.586.398-.989 0-.402-.134-.732-.398-.988s-.604-.384-1.017-.384h-5.79v-3.885h4.356c.413 0 .752-.128 1.017-.386.265-.256.396-.585.396-.987s-.131-.732-.396-.988c-.264-.257-.604-.385-1.017-.385h-4.357v-3.884h5.56c.415 0 .754-.13 1.018-.386s.396-.586.396-.987c0-.402-.133-.733-.395-.989-.265-.256-.605-.384-1.019-.384h-7.089c-.468 0-.839.134-1.115.401-.276.268-.413.633-.413 1.094zm-4.284-1.486c.475 0 .848.133 1.12.402.272.267.409.628.409 1.082V36.92c0 .453-.137.814-.409 1.082-.271.269-.645.402-1.12.402-.475 0-.85-.133-1.122-.402-.272-.268-.408-.629-.408-1.082V25.075h-5.299V36.92c0 .453-.138.814-.414 1.082-.276.269-.648.402-1.115.402-.468 0-.839-.133-1.115-.402-.276-.268-.414-.629-.414-1.082V23.823c0-.454.137-.815.414-1.083.276-.268.647-.401 1.115-.401h8.358zm15.544 1.364c0 .402.134.731.398.987v.002c.264.257.603.385 1.016.385h2.943v11.845c0 .455.135.815.408 1.083.272.267.645.402 1.12.402.475 0 .85-.135 1.121-.403.272-.267.408-.629.408-1.083V25.075h2.945c.413 0 .752-.129 1.016-.385.265-.256.398-.585.398-.987s-.133-.732-.398-.988c-.264-.256-.603-.384-1.016-.384H42.22c-.414 0-.753.128-1.017.384-.264.257-.398.586-.398.988zm18.265 6.864h-2.114v-5.492h2.115c.89 0 1.582.242 2.081.726.497.484.746 1.156.746 2.02 0 .863-.25 1.536-.747 2.02-.498.485-1.19.726-2.08.726zM53.9 23.825v13.059c0 .455.138.814.414 1.084.276.267.648.401 1.116.401.466 0 .838-.134 1.115-.401.276-.27.413-.63.413-1.084v-3.581h2.113c1.749 0 3.187-.526 4.317-1.575 1.13-1.049 1.696-2.351 1.696-3.907 0-1.555-.565-2.86-1.695-3.912-1.13-1.054-2.57-1.58-4.317-1.58h-3.643c-.468 0-.84.134-1.116.401-.275.269-.413.633-.413 1.095zM79.517 35.59c-.345.557-.518 1.015-.518 1.373l-.001-.003c0 .402.15.75.454 1.044a1.49 1.49 0 001.075.441c.322 0 .607-.08.856-.24.248-.16.436-.343.558-.552l3.012-4.812h.092l3.012 4.812c.122.209.308.392.558.553.25.159.534.24.856.24.414 0 .771-.147 1.075-.441.302-.294.453-.642.453-1.044 0-.357-.172-.815-.517-1.373l-3.598-5.481 3.24-5.034c.347-.557.52-1.016.52-1.373a1.4 1.4 0 00-.454-1.043 1.491 1.491 0 00-1.076-.441 1.524 1.524 0 00-.856.246 1.72 1.72 0 00-.557.558l-2.656 4.342h-.09l-2.668-4.342a1.76 1.76 0 00-.551-.557 1.504 1.504 0 00-.852-.246 1.508 1.508 0 00-1.08.442c-.306.294-.46.642-.46 1.044 0 .357.174.815.518 1.373l3.252 5.033-3.597 5.481zm20.831-3.71h-3.539l1.701-5.838h.138l1.7 5.838zm-7.914 3.873c-.16.52-.242.9-.242 1.138h.002c0 .403.153.75.46 1.044.305.294.666.441 1.08.441.782 0 1.33-.495 1.643-1.485l.616-2.154h5.173l.725 2.191c.315.99.861 1.485 1.643 1.485a1.49 1.49 0 001.074-.44c.303-.294.454-.642.454-1.044 0-.261-.077-.64-.229-1.14l-4.025-11.912a2.376 2.376 0 00-.816-1.166c-.382-.293-.853-.44-1.413-.44-.559 0-1.033.147-1.42.44a2.37 2.37 0 00-.822 1.166l-3.903 11.876zM104.95 25.47c.973 0 1.618-.645 1.618-1.611 0-.968-.645-1.612-1.618-1.612-.968 0-1.618.644-1.618 1.612 0 .966.65 1.61 1.618 1.61zm0-.286c-.793 0-1.324-.533-1.324-1.325 0-.794.531-1.326 1.324-1.326.798 0 1.328.533 1.328 1.326 0 .792-.53 1.325-1.328 1.325zm.655-1.657c0-.3-.202-.484-.563-.484h-.64c-.032 0-.05.018-.05.05v1.526c0 .032.018.05.05.05h.203c.032 0 .05-.018.05-.05v-.555h.148c.259 0 .355.099.448.3l.11.264c.013.027.032.04.061.04h.215c.038 0 .057-.022.038-.058l-.162-.358a.516.516 0 00-.23-.273c-.032-.017-.032-.027.004-.04.175-.055.318-.193.318-.412zm-.664.273h-.286v-.475h.387c.158 0 .273.067.273.224 0 .166-.144.251-.374.251zm-27.427-1.121c.316.256.494.583.53.972.033.359-.063.765-.284 1.206l-5.05 10.782a5.527 5.527 0 01-1.319 1.874c-.357.328-1.295.883-2.545.883-.537 0-2.168 0-2.532-1.155a1.34 1.34 0 01.128-1.101c.2-.345.627-.757 1.534-.758l.728.022c.305-.011.558-.083.728-.21.21-.157.392-.415.542-.765l.478-1.07-4.25-8.502c-.221-.44-.317-.847-.283-1.207.035-.388.213-.716.53-.972a1.459 1.459 0 011.079-.334c.404.036.968.245 1.341 1.047l3.22 6.594 3.002-6.59c.376-.805.939-1.015 1.345-1.05a1.458 1.458 0 011.078.334z" fill="#fff"/></g><defs><clipPath id="clip0"><path fill="#fff" transform="translate(.348 .459)" d="M0 0h120v60H0z"/></clipPath></defs></svg>