<svg width="160" height="39" viewBox="0 0 160 39" fill="none" xmlns="http://www.w3.org/2000/svg"><g clip-path="url(#clip0)"><path d="M34.958 2H2.04C.913 2 0 2.915 0 4.042V36.96C0 38.086.915 39 2.042 39h32.916A2.042 2.042 0 0037 36.959V4.04C37 2.913 36.085 2 34.958 2z" fill="#fff"/><path d="M13.02 39V24.692h4.824l.723-5.601H13.02v-3.567c0-1.618.449-2.72 2.768-2.72h2.94V7.808c-.511-.068-2.266-.22-4.308-.22-4.264 0-7.182 2.602-7.182 7.381v4.122H2.434v5.6h4.805v14.31h5.782z" fill="#3B5998"/></g><path d="M107.601 28.2c-.892 0-1.535.287-2.187.58v6.622c.625.059.983.059 1.575.059 2.14 0 2.434-.963 2.434-2.308V29.99c0-.993-.336-1.79-1.822-1.79zm-14.215-.362c-1.486 0-1.824.801-1.824 1.793v.557h3.646v-.557c0-.992-.34-1.793-1.822-1.793zm-27.538 6.893c0 .785.377 1.193 1.209 1.193.892 0 1.42-.286 2.072-.58v-1.57h-1.952c-.923 0-1.33.168-1.33.957zm55.581-6.532c-1.488 0-2.003.798-2.003 1.791v3.624c0 .995.515 1.795 2.003 1.795 1.483 0 2.003-.8 2.003-1.795V29.99c-.001-.993-.52-1.79-2.003-1.79zM58.558 38.796h-4.373v-10.4H52v-3.583h2.185v-2.152c0-2.923 1.234-4.661 4.739-4.661h2.918v3.584h-1.824c-1.365 0-1.455.5-1.455 1.435l-.005 1.794h3.304l-.387 3.583h-2.917v10.399zm14.944.027h-3.644l-.158-.906a8.474 8.474 0 01-4.129 1.053c-2.672 0-4.095-1.755-4.095-4.18 0-2.863 1.66-3.884 4.63-3.884h3.023v-.619c0-1.46-.171-1.89-2.458-1.89h-3.739l.365-3.583h4.087c5.018 0 6.118 1.558 6.118 5.502v8.507zM85.896 28.66c-2.268-.382-2.92-.466-4.01-.466-1.96 0-2.553.425-2.553 2.06v3.094c0 1.635.592 2.062 2.552 2.062 1.091 0 1.743-.086 4.01-.47v3.496c-1.986.437-3.28.552-4.374.552-4.695 0-6.56-2.425-6.56-5.93v-2.51c0-3.506 1.865-5.936 6.56-5.936 1.094 0 2.388.116 4.375.555v3.493zm13.684 4.399h-8.02v.289c0 1.635.593 2.062 2.552 2.062 1.762 0 2.837-.086 5.101-.47v3.496c-2.183.437-3.321.552-5.463.552-4.695 0-6.562-2.425-6.562-5.93v-2.87c0-3.065 1.385-5.576 6.196-5.576s6.195 2.482 6.195 5.577v2.87zm14.215.066c0 3.387-.986 5.857-6.954 5.857-2.155 0-3.42-.186-5.798-.546v-19.36l4.371-.716v6.772c.945-.345 2.167-.52 3.28-.52 4.372 0 5.1 1.925 5.1 5.02v3.492h.001zm14.012.074c0 2.921-1.227 5.755-6.364 5.755-5.139 0-6.39-2.834-6.39-5.755v-2.821c0-2.923 1.251-5.757 6.39-5.757 5.137 0 6.364 2.834 6.364 5.757v2.82zm14.004 0c0 2.921-1.229 5.755-6.365 5.755-5.139 0-6.39-2.834-6.39-5.755v-2.821c0-2.923 1.251-5.757 6.39-5.757 5.136 0 6.365 2.834 6.365 5.757v2.82zm14.371 5.597h-4.739l-4.007-6.573v6.573h-4.373v-19.72l4.373-.716v12.694l4.007-6.24h4.739l-4.375 6.81 4.375 7.17zM135.431 28.2c-1.485 0-2 .798-2 1.791v3.624c0 .995.515 1.795 2 1.795 1.483 0 2.008-.8 2.008-1.795V29.99c0-.993-.525-1.79-2.008-1.79zm23.246 8.143c.737 0 1.323.59 1.323 1.327 0 .748-.587 1.331-1.328 1.331a1.329 1.329 0 110-2.658h.005zm-.005.206c-.594 0-1.079.502-1.079 1.12 0 .63.486 1.126 1.084 1.126.599.006 1.078-.495 1.078-1.12 0-.624-.479-1.126-1.078-1.126h-.005zm-.252 1.893h-.24v-1.48c.126-.018.246-.035.426-.035.228 0 .377.047.469.112.088.065.136.165.136.306 0 .195-.131.312-.293.36v.011c.132.024.221.141.252.359.035.23.071.318.095.366h-.252c-.035-.048-.072-.183-.102-.378-.035-.188-.132-.259-.324-.259h-.166v.638h-.001zm0-.82h.174c.197 0 .365-.07.365-.254 0-.13-.095-.259-.365-.259a1.27 1.27 0 00-.174.012v.502zM52.54 7.8c0-1.232.408-2.26 1.224-3.084.824-.832 1.872-1.248 3.144-1.248 1.264 0 2.308.4 3.132 1.2.832.8 1.248 1.844 1.248 3.132 0 1.256-.416 2.292-1.248 3.108-.832.816-1.876 1.224-3.132 1.224-1.264 0-2.308-.4-3.132-1.2-.824-.8-1.236-1.844-1.236-3.132zm1.56 0c0 .84.268 1.544.804 2.112.544.56 1.212.84 2.004.84.864 0 1.548-.28 2.052-.84.512-.56.768-1.264.768-2.112 0-.864-.272-1.572-.816-2.124-.536-.552-1.204-.828-2.004-.828-.808 0-1.48.276-2.016.828-.528.552-.792 1.26-.792 2.124zm7.105-2.82V3.6h6.924v1.38h-2.724V12H63.93V4.98h-2.724zm9.98 7.152c-.68 0-1.267-.136-1.764-.408-.488-.28-.86-.616-1.116-1.008l.804-.996c.265.304.58.552.949.744.367.192.72.288 1.055.288.44 0 .808-.104 1.105-.312.295-.216.444-.528.444-.936a.968.968 0 00-.385-.804c-.255-.2-.624-.3-1.103-.3h-.865V7.02h.817c.328 0 .611-.1.852-.3.24-.2.36-.468.36-.804 0-.344-.112-.608-.337-.792-.224-.184-.52-.276-.888-.276-.68 0-1.248.304-1.704.912l-.852-.984c.28-.392.665-.708 1.153-.948a3.514 3.514 0 011.572-.36c.76 0 1.368.204 1.824.612.464.4.696.964.696 1.692 0 .344-.097.684-.289 1.02a2.256 2.256 0 01-.84.828v.036c.489.12.852.356 1.093.708.24.352.36.78.36 1.284 0 .744-.293 1.344-.877 1.8-.575.456-1.263.684-2.063.684zm11.1-.132V3.6h1.464V12h-1.464zm-4.284-4.2c-.168 0-.44.02-.816.06v2.748c.056 0 .136.004.24.012l.288.024h.264c1.104 0 1.656-.492 1.656-1.476 0-.448-.144-.788-.432-1.02-.28-.232-.68-.348-1.2-.348zm-.816-4.2v2.88c.312-.04.624-.06.936-.06 1.016 0 1.78.24 2.292.72.52.48.78 1.144.78 1.992 0 .896-.3 1.604-.9 2.124-.6.512-1.432.768-2.496.768-.288 0-.676-.004-1.164-.012-.48-.008-.788-.012-.924-.012V3.6h1.476zm8.535 8.388V3.624c.784-.04 1.592-.06 2.424-.06.952 0 1.648.192 2.088.576.448.376.672.876.672 1.5 0 .896-.4 1.532-1.2 1.908v.024c.44.112.796.332 1.068.66s.408.76.408 1.296c0 .832-.288 1.46-.864 1.884-.568.424-1.32.636-2.256.636-1.016 0-1.796-.02-2.34-.06zm2.52-3.6h-1.044v2.22c.336.04.66.06.972.06 1.024 0 1.536-.404 1.536-1.212 0-.352-.128-.616-.384-.792-.256-.184-.616-.276-1.08-.276zm-.12-3.444c-.352 0-.66.012-.924.036v2.124h.996c.368 0 .668-.092.9-.276.232-.192.348-.472.348-.84 0-.336-.12-.592-.36-.768-.232-.184-.552-.276-.96-.276zM99.342 12V3.6h1.464V12h-1.464zm-4.284-4.2c-.168 0-.44.02-.816.06v2.748c.056 0 .136.004.24.012l.288.024h.264c1.104 0 1.656-.492 1.656-1.476 0-.448-.144-.788-.432-1.02-.28-.232-.68-.348-1.2-.348zm-.816-4.2v2.88c.312-.04.624-.06.936-.06 1.016 0 1.78.24 2.292.72.52.48.78 1.144.78 1.992 0 .896-.3 1.604-.9 2.124-.6.512-1.432.768-2.496.768-.288 0-.676-.004-1.164-.012-.48-.008-.788-.012-.924-.012V3.6h1.476zm16.034 8.4V8.412h-3.84V12h-1.476V3.6h1.476v3.432h3.84V3.6h1.464V12h-1.464zm2.35 0l3.552-8.424h1.296L121.026 12h-1.572l-.876-2.148h-3.588L114.114 12h-1.488zm4.164-6.516l-1.236 2.988h2.46l-1.224-2.988z" fill="#fff"/><defs><clipPath id="clip0"><path fill="#fff" transform="translate(0 2)" d="M0 0h37v37H0z"/></clipPath></defs></svg>