<svg width="257" height="43" viewBox="0 0 257 43" fill="none" xmlns="http://www.w3.org/2000/svg"><path d="M234.827 7.31c.214 0 .343 0 .343.312v7.77c0 .402.214.58.643.58h7.715c.343 0 .343.134.3.402v1.786c0 .224 0 .313-.3.313h-8.315c-2.443 0-3.386-.848-3.386-3.304V7.622c0-.312.086-.312.342-.312h2.658zm7.843 0a1.184 1.184 0 01.986.357l4.072 4.42 4.114-4.42a1.186 1.186 0 01.986-.357h2.958c.256 0 .342.133.043.401l-6.472 6.966v3.44c0 .311-.129.311-.343.311h-2.572c-.257 0-.386 0-.386-.312v-3.439l-6.429-6.966c-.3-.312-.171-.401.043-.401h3zm-13.244 0c.301 0 .301.09.301.357v1.786c0 .223 0 .312-.301.312h-8.143c-.343 0-.557.135-.557.492v1.429h8.486c.343 0 .3.09.3.312v1.742c0 .223 0 .312-.3.312h-8.486v1.518c0 .358.171.492.557.492h8.143c.343 0 .301.09.301.312v1.786c0 .224 0 .268-.301.268h-8.314c-2.272 0-3.644-.714-3.644-3.036v-5.046c0-2.322 1.372-3.036 3.644-3.036h8.314zm-14.101 0c.3 0 .3.09.3.357v1.786c0 .223 0 .312-.3.312h-8.144c-.342 0-.556.135-.556.492v1.429h8.443c.3 0 .3.09.3.312v1.786c0 .224 0 .268-.3.268h-8.443v1.518c0 .358.171.492.556.492h8.144c.3 0 .3.09.3.312v1.786c0 .224 0 .268-.3.268h-8.314c-2.272 0-3.644-.714-3.644-3.036v-5.046c0-2.322 1.415-3.036 3.644-3.036h8.314zm-14.444 0c.343 0 .3.09.3.312v1.786c0 .224 0 .313-.3.313h-9.601c-.343 0-.557.134-.557.491v5.358c0 .358.214.492.557.492h6.644v-2.01h-5.1c-.343 0-.301-.09-.301-.312v-1.786c0-.224 0-.268.301-.268h8.057c.343 0 .3.09.3.312v6.162c0 .224 0 .268-.3.268h-9.772c-2.272 0-3.686-.714-3.686-3.036v-5.046c0-2.322 1.414-3.036 3.686-3.036h9.772z" fill="#006FB6"/><path d="M151.634 5.39l-1.457.09a4.38 4.38 0 00-2.143.49 2.018 2.018 0 00-.675.77 2.13 2.13 0 00-.225 1.017v.714l.085 1.295c.043.848.258 3.393.258 3.393.031.833.16 1.658.386 2.457.514 1.652 1.843 2.813 4.286 3.706a79.58 79.58 0 0012.258 3.036h.042a67.518 67.518 0 0010.373-2.41l.386-.135c2.314-.76 4.671-1.518 5.614-3.75.307-.875.48-1.794.515-2.724l.043-.67c.042-.76.128-1.519.171-2.322l.043-.536a8.714 8.714 0 00-.043-2.635c-.257-.848-.814-1.295-1.886-1.518a41.59 41.59 0 00-1.457-.134s-6.429-.49-8.572-.625l-4.758-.268h-.943c-4.101.235-8.202.488-12.301.76z" fill="url(#paint0_linear)"/><path opacity=".95" d="M164.407 21.108c-1.585-.313-9.943-1.876-12.987-3.216-3.685-1.651-3.9-5.938-3.985-6.519.046 1.092.146 2.18.3 3.26.385 3.037 3.043 3.974 4.286 4.51 2.1.849 7.629 2.367 12.429 3.081v-1.116h-.043z" fill="url(#paint1_linear)"/><path opacity=".95" d="M164.407 21.108c1.586-.313 9.944-1.876 12.987-3.216 3.686-1.651 3.9-5.938 3.986-6.474a33.568 33.568 0 01-.3 3.26c-.386 3.08-3.043 4.018-4.286 4.51-2.1.848-7.629 2.277-12.43 3.08v-1.16h.043z" fill="url(#paint2_linear)"/><path d="M164.407 6.104c-1.2.045-3.3.134-5.529.268-4.072.223-8.572.536-9.215.58-1.114.135-1.372.58-1.372 1.295-.043.581.258 4.555.429 6.297.069.735.352 1.434.814 2.01.644.758 1.586 1.338 3.215 1.92a55.35 55.35 0 006.257 1.741c1.758.402 3.472.759 5.358 1.027 1.886-.313 3.6-.625 5.358-1.027a60.43 60.43 0 006.258-1.742c1.628-.58 2.614-1.116 3.214-1.92a3.641 3.641 0 00.814-2.01c.215-1.741.472-5.715.472-6.296-.043-.759-.3-1.205-1.415-1.294-.642-.045-5.1-.358-9.214-.58-2.101-.135-4.244-.269-5.444-.269z" fill="url(#paint3_linear)"/><path d="M164.407 6.193a263 263 0 00-5.529.268c-4.029.224-8.486.492-9.129.581-1.115.134-1.372.58-1.372 1.295-.043.536.257 4.465.472 6.162.07.722.354 1.406.814 1.965.643.76 1.586 1.295 3.215 1.875 2.614.893 4.715 1.385 6.214 1.742 1.758.402 3.472.715 5.358 1.027a95.548 95.548 0 005.358-1.027 52.776 52.776 0 006.215-1.742c1.585-.536 2.614-1.116 3.214-1.875a3.495 3.495 0 00.814-1.965c.215-1.697.515-5.626.472-6.207-.043-.759-.3-1.206-1.372-1.295-.642-.044-5.1-.357-9.172-.58-2.272-.09-4.372-.224-5.572-.224z" fill="url(#paint4_linear)"/><path opacity=".45" d="M149.749 7.354c.643-.045 5.1-.357 9.172-.58 2.186-.135 4.286-.224 5.486-.313 1.2.045 3.3.134 5.529.268 4.072.223 8.529.491 9.172.58 1.072.134 1.329.715 1.371 1.384v-.401c-.042-.76-.299-1.206-1.371-1.295-.643-.045-5.1-.358-9.172-.58-1.842-.11-3.685-.2-5.529-.269-1.2.045-3.3.18-5.529.313-4.029.223-8.486.491-9.129.58-1.114.134-1.372.58-1.372 1.295v.402c.043-.714.3-1.295 1.372-1.384z" fill="#636362"/><path d="M180.008 8.382c-.042-.536-.214-1.072-1.243-1.205-.642-.045-3.429-.357-7.5-.581a152.496 152.496 0 00-6.9-.223c-1.243 0-4.672.134-6.901.223-4.072.224-6.858.492-7.501.58a1.134 1.134 0 00-.817.355 1.24 1.24 0 00-.34.851c-.043.492.172 3.885.343 5.671.029.675.252 1.326.643 1.876.557.67 1.414 1.295 2.957 1.83a53.247 53.247 0 006.3 1.742c1.758.402 3.472.76 5.358 1.027 1.886-.312 3.6-.625 5.358-1.027a53.153 53.153 0 006.3-1.742c1.543-.535 2.401-1.16 2.958-1.83a3.493 3.493 0 00.642-1.876c.172-1.83.429-5.18.343-5.67z" fill="url(#paint5_linear)"/><path d="M179.751 8.293c-.043-.403-.214-.85-1.114-.938-.6-.045-4.801-.358-8.829-.58-2.186-.135-4.244-.224-5.401-.224l-5.4.223c-3.987.223-8.187.491-8.83.58-.857.09-1.071.536-1.114.939 0 .49.214 3.84.385 5.581.053.662.309 1.288.729 1.786.557.67 1.372 1.161 2.872 1.697 1.243.402 3.429 1.117 5.572 1.608 2.443.58 4.8.893 5.786 1.027a64.455 64.455 0 005.829-1.072c2.143-.491 4.329-1.206 5.529-1.607 1.5-.536 2.357-1.028 2.872-1.697a3.64 3.64 0 00.728-1.786c.215-1.697.429-5.047.386-5.537z" fill="#241D06"/><path d="M156.607 11.195l.599.535-7.886-.535.429-.447 6.858.447z" fill="#3B3A39"/><path d="M156.736 7.533l-7.073.357-.171-.134c.162-.135.353-.226.557-.267.154-.04.313-.055.471-.045 1.972-.135 6.858-.402 6.858-.402l-.642.49z" fill="#373939"/><path d="M155.921 10.615l.686.58-6.858-.447.343-.446 5.829.313z" fill="#25231F"/><path d="M150.091 10.302l-.042-2.099s3-.134 6.043-.224l-.128 2.635-5.873-.313z" fill="url(#paint6_linear)"/><path d="M156.735 7.533l.643-.491-.171 4.688-.601-.536.129-3.661z" fill="#353230"/><path d="M156.092 7.98l.644-.446-.129 3.662-.686-.581.171-2.634z" fill="#25231F"/><path d="M149.234 8.203c.043-.313.172-.402.258-.446l.171.133.085 2.814-.385.49-.171-2.321a4.283 4.283 0 01.042-.67z" fill="#2D2D2C"/><path d="M150.049 8.203l.043 2.099-.343.447-.086-2.858.386.312z" fill="#535051"/><path opacity=".85" d="M150.263 9.722l-.043-1.295 5.229-.134-.086 1.697-5.1-.268z" fill="url(#paint7_linear)"/><path d="M156.736 7.534l-.644.447-6.043.223-.386-.313 7.073-.357z" fill="#565757"/><path d="M172.637 14.991l-.687-.58-.342 3.84.771-.715.258-2.545z" fill="#294A96"/><path d="M178.894 13.517l.515-.492-7.972.938.514.447 6.943-.893z" fill="url(#paint8_linear)"/><path d="M171.95 14.41l-.514-.447-.428 4.778.599-.491.343-3.84z" fill="#2C337E"/><path d="M178.551 15.75c.9-1.028.857-2.725.857-2.725l-.471.492a3.91 3.91 0 01-.386 1.384c-.471.938-1.071 1.34-2.529 1.92a33.993 33.993 0 01-4.371 1.43l-.6.49a45.165 45.165 0 005.529-1.697 4.994 4.994 0 001.971-1.294z" fill="#2356A0"/><path d="M178.423 14.053l.471-.535-6.943.893.686.58 5.786-.938z" fill="#1F5DA5"/><path d="M176.279 16.286a27.44 27.44 0 01-3.9 1.25l-.771.715a42.223 42.223 0 004.5-1.474c1.414-.625 1.929-.937 2.443-1.876.212-.43.343-.901.386-1.383l-.514.535c-.043.358-.386 1.43-2.144 2.233z" fill="#293672"/><path d="M172.636 14.99l-.257 2.545c2.486-.67 3.3-.982 3.943-1.294 1.757-.804 2.057-1.832 2.1-2.233l-5.786.982z" fill="url(#paint9_linear)"/><path d="M156.178 14.991l.686-.58.343 3.84-.771-.715-.258-2.545z" fill="#294A96"/><path d="M149.92 13.517l-.514-.492 7.972.983-.514.402-6.944-.893z" fill="url(#paint10_linear)"/><path d="M156.864 14.41l.514-.402.428 4.733-.599-.491-.343-3.84z" fill="#2C337E"/><path d="M150.263 15.75c-.943-1.028-.857-2.725-.857-2.725l.471.492c.046.488.192.96.429 1.384.471.938 1.071 1.34 2.528 1.92a34.053 34.053 0 004.372 1.43l.6.49a45.458 45.458 0 01-5.486-1.697c-1.028-.401-1.457-.625-2.057-1.294z" fill="#2356A0"/><path d="M150.391 14.053l-.471-.535 6.943.893-.685.58-5.787-.938z" fill="#1F5DA5"/><path d="M152.535 16.286c1.27.506 2.573.924 3.901 1.25l.728.715a42.133 42.133 0 01-4.5-1.474c-1.415-.625-1.929-.937-2.443-1.92a3.935 3.935 0 01-.386-1.384l.471.491c.129.447.472 1.518 2.229 2.322z" fill="#293672"/><path d="M156.178 14.99l.257 2.546a31.505 31.505 0 01-3.943-1.25c-1.758-.804-2.058-1.831-2.1-2.233l5.786.938z" fill="url(#paint11_linear)"/><path d="M160.036 18.741l-.643.402 5.014.848v-.49l-4.371-.76z" fill="#1A1A1A"/><path d="M164.407 15.392v-.58l-5.058-.58.6.625 4.458.535z" fill="#1F1F1F"/><path d="M164.407 15.973v-.58l-4.458-.537.6.626 3.858.49v.001z" fill="#444"/><path d="M160.635 18.384l-.6.357 4.372.76v-.492l-3.772-.625z" fill="#2D2D2C"/><path d="M160.636 18.384l3.771.625v-3.036l-3.857-.492.086 2.903z" fill="url(#paint12_linear)"/><path d="M160.549 15.482l-.6-.626.086 3.885.6-.357-.086-2.902z" fill="#535051"/><path d="M159.949 14.857l-.6-.626.043 4.912.643-.402-.086-3.884z" fill="#312F2C"/><path d="M168.822 18.741l.599.402-5.014.848v-.49l4.415-.76z" fill="#000"/><path d="M164.407 15.392v-.58l5.1-.58-.642.625-4.458.535z" fill="#0D0D0D"/><path d="M164.407 15.973v-.58l4.458-.537-.601.626-3.857.49v.001z" fill="#1A1A1A"/><path d="M168.178 18.384l.644.357-4.415.76v-.492l3.771-.625z" fill="#312F2C"/><path d="M168.178 18.384l-3.771.625v-3.036l3.857-.492-.086 2.903z" fill="#2E2E2E"/><path opacity=".2" d="M164.407 16.374l-3.3-.313.043 2.055 3.257.491 3.258-.491.043-2.055-3.301.313z" fill="url(#paint13_linear)"/><path d="M168.265 15.482l.6-.626-.043 3.885-.643-.357.086-2.902z" fill="#000"/><path d="M168.865 14.857l.642-.626-.085 4.912-.6-.402.043-3.884z" fill="#312F2C"/><path d="M159.65 7.356l-.643-.358 5.4-.268v.491l-4.757.135z" fill="#2C408E"/><path d="M160.549 10.748l3.858.179v.58l-4.372-.223.514-.536z" fill="#2E3D8B"/><path d="M164.407 7.22v.403l-4.072.179-.685-.447 4.757-.134z" fill="#006FB6"/><path d="M160.55 10.748l-.515.536-.385-3.93.685.447.215 2.947z" fill="#0085CA"/><path d="M159.65 7.354l.385 3.93-.599.625-.429-4.912.643.357z" fill="#294A96"/><path d="M164.407 11.508v.715l-4.971-.313.599-.625 4.372.223z" fill="#1F5DA5"/><path d="M160.55 10.748l-.214-2.946 4.071-.179v3.304l-3.857-.179z" fill="url(#paint14_linear)"/><path d="M169.164 7.356l.643-.358-5.4-.268v.491l4.757.135z" fill="#2F3787"/><path d="M168.264 10.748l-3.857.179v.58l4.372-.223-.515-.536z" fill="#293672"/><path d="M164.407 7.22v.403l4.114.179.643-.447-4.757-.134z" fill="#1F5DA5"/><path d="M168.264 10.748l.515.536.386-3.93-.644.447-.257 2.947z" fill="#2E3D8B"/><path d="M169.164 7.354l-.385 3.93.642.625.386-4.912-.643.357zm-4.757 4.153v.715l5.014-.312-.642-.626-4.372.223z" fill="#294A96"/><path d="M168.264 10.748l.257-2.946-4.114-.179v3.304l3.857-.179z" fill="#4E93D1"/><path d="M172.293 11.195l-.685.535 7.886-.535-.386-.447-6.815.447z" fill="#3B3A39"/><path d="M172.122 7.533l7.072.357.171-.134a1.259 1.259 0 00-.557-.267 1.547 1.547 0 00-.471-.045c-1.972-.135-6.858-.402-6.858-.402l.643.49z" fill="#373939"/><path d="M172.893 10.615l-.6.58 6.815-.447-.386-.446-5.829.313z" fill="#312F2C"/><path d="M178.723 10.301l.085-2.054s-3-.133-6.043-.223l.129 2.635 5.829-.358z" fill="url(#paint15_linear)"/><path d="M172.122 7.533l-.685-.491.171 4.688.686-.536-.172-3.661z" fill="#353230"/><path d="M172.765 7.98l-.643-.446.172 3.662.6-.581-.129-2.634z" fill="#25231F"/><path d="M179.623 8.203a.621.621 0 00-.257-.446l-.172.133-.085 2.814.386.49.128-2.321a1.714 1.714 0 000-.67z" fill="#2D2D2C"/><path d="M178.808 8.203l-.086 2.099.386.447.086-2.858-.386.312z" fill="#535051"/><path opacity=".85" d="M178.595 9.722l.042-1.295-5.229-.134.086 1.697 5.101-.268z" fill="url(#paint16_linear)"/><path d="M172.122 7.534l.643.447 6.044.223.386-.313-7.073-.357z" fill="#565757"/><path d="M164.407 13.963l-15.387-1.429a.99.99 0 00.343.492c5.272.758 13.972 1.652 15.044 1.74 1.071-.133 9.729-.982 15.044-1.74a.928.928 0 00.386-.492l-15.43 1.43z" fill="url(#paint17_linear)"/><path opacity=".75" d="M179.88 11.597l-.386-.402-15.13.893-15.087-.893-.386.402.043.849a.81.81 0 01.23-.643.727.727 0 01.627-.206l14.53 1.027 14.53-1.027a.72.72 0 01.627.206.806.806 0 01.23.642l.172-.848z" fill="url(#paint18_linear)"/><path d="M169.68 11.954l.985.09.772-.134.257-.357v.133l-.257.358-.772.134-.985-.09-.301-.223v-.134l.301.223z" fill="url(#paint19_linear)"/><path d="M169.68 12.043l-.301-.222.429-5.002h.085l-.213 5.224z" fill="#635C52"/><path d="M170.664 12.133V6.73l-.771.09-.214 5.224.985.09z" fill="url(#paint20_linear)"/><path d="M170.665 12.133l.771-.133-.086-5.136-.685-.134v5.403z" fill="url(#paint21_linear)"/><path d="M170.665 12.133l.085-.044V6.73h-.085v5.403z" fill="url(#paint22_linear)"/><path d="M171.436 11.998l.258-.357-.258-4.688-.085-.09.085 5.135z" fill="#43402D"/><path opacity=".2" d="M171.436 6.998l-.086-.089-.685-.134-.772.045-.128.09.043-.09h.085l.772-.09.685.134.086.09v.044z" fill="url(#paint23_linear)"/><path d="M159.178 11.954l-1.028.09-.772-.134-.214-.357v.133l.214.358.772.134 1.028-.09.301-.223v-.134l-.301.223z" fill="url(#paint24_linear)"/><path d="M159.178 12.043l.299-.222-.428-5.002h-.086l.215 5.224z" fill="#43402D"/><path d="M158.149 12.133V6.73l.815.09.214 5.224-1.029.09z" fill="url(#paint25_linear)"/><path d="M158.15 12.133l-.772-.133.128-5.136.644-.134v5.403z" fill="url(#paint26_linear)"/><path d="M158.149 12.133l-.085-.044.043-5.359h.042v5.403z" fill="url(#paint27_linear)"/><path d="M157.378 11.998l-.214-.357.214-4.688.129-.09-.129 5.135z" fill="#635C52"/><path opacity=".2" d="M157.378 6.998l.128-.089.644-.134.814.045.128.09-.042-.09h-.086l-.814-.09-.644.134-.128.09v.044z" fill="url(#paint28_linear)"/><path d="M158.492 19.143l-.685-.268-.172-.268.043.179.129.223.685.313h.729l.128-.134v-.134l-.171.09h-.686z" fill="url(#paint29_linear)"/><path d="M157.807 18.964l-.128-.268-.429-4.688.171-.045.386 5.001z" fill="#635C52"/><path d="M158.493 19.232l-.686-.268-.386-5.001h.729l.343 5.269z" fill="url(#paint30_linear)"/><path d="M158.492 19.232h.729l-.129-5.135-.943-.134.343 5.269z" fill="url(#paint31_linear)"/><path d="M159.221 19.233l.129-.09v-4.912l-.258-.133.129 5.135z" fill="#47402B"/><path d="M158.493 19.232l-.686-.268-.386-5.001h.729l.343 5.269z" fill="url(#paint32_linear)"/><path d="M158.493 19.232h-.086l-.3-5.27h.043l.343 5.27z" fill="url(#paint33_linear)"/><path d="M158.492 19.232h.729l-.129-5.135-.943-.134.343 5.269z" fill="url(#paint34_linear)"/><path d="M159.221 19.233l.129-.09v-4.912l-.258-.133.129 5.135z" fill="#43402D"/><path d="M157.25 14.008l.171-.045h.729l.943.134.257.134v-.045l-.257-.133-.943-.179h-.043l-.686.044-.171.045v.045z" fill="url(#paint35_linear)"/><path d="M170.321 19.143l.687-.268.128-.268-.043.179-.085.223-.687.313h-.728l-.172-.134v-.134l.172.09h.728z" fill="url(#paint36_linear)"/><path d="M171.008 18.964l.128-.268.385-4.688-.171-.045-.342 5.001z" fill="#43402D"/><path d="M170.322 19.232l.686-.268.343-5.001h-.729l-.3 5.269z" fill="url(#paint37_linear)"/><path d="M170.321 19.232h-.728l.128-5.135.9-.134-.3 5.269z" fill="url(#paint38_linear)"/><path d="M169.593 19.233l-.172-.09v-4.912l.301-.133-.129 5.135z" fill="#47402B"/><path d="M170.322 19.232l.686-.268.343-5.001h-.729l-.3 5.269z" fill="url(#paint39_linear)"/><path d="M170.322 19.232h.085l.257-5.27h-.042l-.3 5.27z" fill="url(#paint40_linear)"/><path d="M170.321 19.232h-.728l.128-5.135.9-.134-.3 5.269z" fill="url(#paint41_linear)"/><path d="M169.593 19.233l-.172-.09v-4.912l.301-.133-.129 5.135z" fill="#635C52"/><path d="M171.522 14.008l-.171-.045h-.729l-.9.134-.301.134v-.045l.301-.133.9-.179h.042l.687.044.171.045v.045z" fill="url(#paint42_linear)"/><path d="M149.063 12.668a1.04 1.04 0 01.043-.803.847.847 0 01.257-.272.815.815 0 01.343-.13l14.658.937 14.53-1.027c.266.033.518.142.729.313.131.263.204.552.214.848l-15.473 1.742-15.301-1.608z" fill="url(#paint43_linear)"/><path fill-rule="evenodd" clip-rule="evenodd" d="M5.932 6.985L1.32 15.167h2.504l.976-1.835h4.762l.969 1.835h2.635L8.601 6.984H5.93zm-.388 4.99l1.604-3.343h.033l1.69 3.344H5.545zm5.282-4.99l-.003 1.448h3.33l-.013 6.734h2.34l.012-6.733h3.328l.002-1.45h-8.996zm10.12 0l-.005 2.665c-.003 1.938.24 4.278-1.572 4.278-.181 0-.478-.035-.627-.058l-.1 1.296c.312.05.741.096 1.12.096 3.427 0 3.366-2.445 3.37-5.191l.003-1.637h3.048l-.011 6.733h2.34l.014-8.183h-7.58zm12.735 0l-4.612 8.182h2.504l.976-1.835h4.761l.97 1.835h2.635L36.35 6.984h-2.67zm-.389 4.99l1.605-3.343h.033l1.69 3.344h-3.328zm8.184-4.99l-.014 8.182h2.34l.006-3.542h4.68l-.007 3.542h2.34l.014-8.183h-2.34l-.006 3.297h-4.678l.005-3.296h-2.34zm10.488 0l-.003 1.448h3.328l-.012 6.734h2.34l.012-6.733h3.328l.003-1.45h-8.996zM97.122 1.22c6.531 0 11.858 5.395 11.858 12.01s-5.327 12.01-11.858 12.01c-4.23 0-7.955-2.264-10.054-5.657-.214.393-.447.775-.7 1.144 2.361 3.46 6.304 5.733 10.754 5.733 7.195 0 13.064-5.943 13.064-13.23 0-7.287-5.869-13.23-13.064-13.23-4.45 0-8.393 2.274-10.753 5.734.252.369.485.75.699 1.143 2.1-3.392 5.824-5.656 10.054-5.656z" fill="#005DED"/><path fill-rule="evenodd" clip-rule="evenodd" d="M97.126 1.43c6.418 0 11.652 5.3 11.652 11.801 0 6.5-5.234 11.801-11.652 11.801-4.2 0-7.893-2.27-9.944-5.662-.125.24-.256.476-.395.708 2.21 3.41 6.02 5.668 10.335 5.668 6.808 0 12.357-5.62 12.357-12.515 0-6.894-5.549-12.514-12.357-12.514-4.315 0-8.124 2.258-10.335 5.668.138.231.27.467.394.708C89.233 3.7 92.926 1.43 97.126 1.43z" fill="#005DED"/><path fill-rule="evenodd" clip-rule="evenodd" d="M97.122.717c1.922 0 3.743.448 5.368 1.246 1.621.799 3.05 1.94 4.187 3.348a12.48 12.48 0 00-4.163-3.275 12.138 12.138 0 00-5.31-1.218c-3.403 0-6.492 1.405-8.73 3.672a12.607 12.607 0 00-1.617 2.015l-.07-.12a12.615 12.615 0 011.604-1.997C90.629 2.122 93.718.717 97.12.717zM86.795 20.063c.262.414.548.812.855 1.19a12.27 12.27 0 01-.863-1.175l.008-.015zm19.342-14.299a11.835 11.835 0 012.641 7.467c0 3.25-1.309 6.2-3.419 8.338-2.111 2.138-5.024 3.463-8.233 3.463a11.442 11.442 0 01-5.003-1.147 11.762 11.762 0 01-3.925-3.085 11.777 11.777 0 003.949 3.158 11.443 11.443 0 005.062 1.176c3.209 0 6.122-1.326 8.233-3.464a11.842 11.842 0 003.419-8.338 11.86 11.86 0 00-.725-4.093 11.88 11.88 0 00-1.999-3.475z" fill="#0060AA"/><path fill-rule="evenodd" clip-rule="evenodd" d="M105.811 4.347a12.552 12.552 0 013.668 8.884c0 3.448-1.388 6.576-3.626 8.843-2.238 2.267-5.327 3.671-8.73 3.671a12.14 12.14 0 01-4.831-.997 12.424 12.424 0 01-3.942-2.716 12.413 12.413 0 003.913 2.656c1.51.644 3.135.975 4.776.973 3.404 0 6.493-1.404 8.731-3.671a12.559 12.559 0 003.626-8.843 12.566 12.566 0 00-3.585-8.8z" fill="#0060AA"/><path fill-rule="evenodd" clip-rule="evenodd" d="M98.091 17.314l2.804-5.898.527-1.18h.05l-.028 1.274.023 5.804h2.361l-.033-8.257h-3.99l-2.31 4.8-.51 1.464h-.05l-.52-1.464-2.347-4.8h-3.991l.033 8.257h2.36l-.022-5.804-.038-1.274h.05l.536 1.18 2.85 5.898h2.245z" fill="#005DED"/><path fill-rule="evenodd" clip-rule="evenodd" d="M98.09 17.314l2.804-5.898.527-1.18h.051l.164-.167h-.38l-.527 1.18-2.803 5.898h-2.162l.082.167h2.244zm3.376-.167v.167h2.361l-.032-8.257h-.165l.032 8.09h-2.196zm-4.53-1.826l-.522-1.464-2.347-4.8h-.083l2.265 4.633.61 1.71h.05l.026-.079zm-6.828 1.826v.167h2.362l-.023-5.804-.038-1.274h.05l.023-.167h-.238l.039 1.274.022 5.804h-2.197z" fill="#0060AA"/><path fill-rule="evenodd" clip-rule="evenodd" d="M101.471 10.237l-.028 1.273.023 5.804.165-.17-.023-5.494.028-1.58-.165.167zm2.15-1.042l.174-.139h-3.99l-2.31 4.801-.51 1.464h-.048l-.028.078h.263l.488-1.402 2.31-4.802h3.651zm-9.553-.139h-3.992l.033 8.258.165-.16-.033-7.959h3.813l.013-.139zm-1.608 1.18l.536 1.18 2.85 5.898.015-.152-2.7-5.607-.678-1.487-.023.169zM75.616 1.222c6.531 0 11.858 5.395 11.858 12.01s-5.327 12.01-11.858 12.01c-6.531 0-11.858-5.395-11.858-12.01S69.085 1.22 75.616 1.22zm0-1.221C82.81 0 88.68 5.943 88.68 13.23c0 7.288-5.869 13.232-13.064 13.232S62.552 20.518 62.552 13.23C62.552 5.943 68.42 0 75.616 0z" fill="#005DED"/><path fill-rule="evenodd" clip-rule="evenodd" d="M77.268 23.803a.463.463 0 01-.522-.391c.357-.048.552-.064.906-.154a.483.483 0 01-.384.546zm1.288-.293a.46.46 0 01-.564-.328c.35-.089.541-.128.883-.259a.485.485 0 01-.319.587zm1.192-.432a.46.46 0 01-.597-.258c.337-.131.522-.192.846-.363a.484.484 0 01-.249.62zm1.077-.524a.46.46 0 01-.623-.187c.32-.169.496-.251.799-.46a.485.485 0 01-.176.647zm1.023-.721a.457.457 0 01-.64-.112c.297-.206.464-.309.74-.551a.486.486 0 01-.1.662zm1.023-.814a.458.458 0 01-.649-.035c.272-.24.426-.362.672-.635a.486.486 0 01-.023.67zm.837-.948a.457.457 0 01-.65.042c.243-.27.382-.41.595-.71a.487.487 0 01.055.668zm.749-.994a.458.458 0 01-.639.119c.21-.298.33-.453.508-.776.21.141.27.444.13.657zm.63-1.057a.46.46 0 01-.622.194c.174-.32.277-.489.416-.83a.484.484 0 01.205.636zm.803-2.461a.462.462 0 01-.56.333c.096-.352.157-.54.214-.905.246.06.404.322.346.571zm.252-1.26a.463.463 0 01-.517.4c.054-.362.094-.556.108-.926a.48.48 0 01.41.527zm.054-1.165a.464.464 0 01-.468.457c.013-.365.03-.563 0-.931.254 0 .469.218.468.474zm-.331-2.525a.468.468 0 01-.322.572c-.09-.354-.128-.547-.258-.893a.473.473 0 01.58.321zM85.5 9.402a.47.47 0 01-.255.605c-.129-.34-.19-.528-.36-.857a.473.473 0 01.615.252zm-.497-1.166a.47.47 0 01-.183.631c-.168-.323-.25-.502-.455-.808a.471.471 0 01.638.177zm-.667-1.04a.471.471 0 01-.109.649c-.203-.301-.306-.47-.545-.75a.472.472 0 01.654.1zM75.62 1.429c6.419 0 11.653 5.3 11.653 11.801 0 6.5-5.234 11.801-11.653 11.801-6.417 0-11.651-5.301-11.651-11.801S69.201 1.428 75.618 1.428zm-.003-.713c6.808 0 12.357 5.62 12.357 12.515 0 6.894-5.55 12.514-12.357 12.514-6.808 0-12.356-5.62-12.356-12.514C63.26 6.336 68.808.716 75.615.716zm2.907 22.005c.161-.8-.129-1.425-.534-2.067.1-.126.174-.244.236-.39.671.62.85 1.577.85 2.273-.184.033-.366.134-.552.185zm-2.352.412c1.192-.232 1.681-.387 1.987-1.204.125.444.117.637.076.889a11.37 11.37 0 01-2.063.315zm-.546-.232l-.005-.26c-1.217-.037-1.768-.213-1.768-.792 0-.629.712-.704 1.777-.671l-.009-.268c1.122.054 1.864.28 1.884.947.025.713-.836 1.003-1.88 1.045zm-.266-2.13c-1.404-.025-2.389.235-2.46 1.095.034.796 1.256 1.187 2.46 1.166v-.256c-.658 0-2-.046-1.975-.948.025-.797 1.155-.827 1.975-.822v-.235zm-.948 1.09c-.008-.318.414-.54 1.21-.545v.172c.488-.029.815.126.82.382.008.31-.365.407-.82.398v.21c-.775-.042-1.193-.142-1.21-.616zm4.982.529c0-.742-.302-1.56-.804-2.21l.655.105c.31.373.496.713.658 1.883-.162.1-.331.155-.51.222zm-4.63-.533c.004-.255.352-.276.596-.251v.507c-.277.021-.6-.012-.596-.256zm5.437.118c-.02-.953-.215-1.095-.48-1.66-.029-.064.344-.039.592-.11.228.49.41.81.39 1.468-.17.118-.299.213-.502.302zm.754-.399c0-.402-.116-.952-.377-1.46a.755.755 0 00.406-.196c.182.306.38.935.368 1.38-.12.033-.269.214-.397.277zm.695-.54c-.016-.491-.09-.781-.422-1.267.058-.038.335-.29.348-.29.323.403.373.735.46 1.246-.03.096-.299.268-.386.31zm.642-.538c-.074-.658-.145-.884-.489-1.33.087-.095.191-.15.282-.347.36.44.497.767.593 1.296-.114.142-.243.27-.386.381zm-7.697.076c-.825 0-1.67-.33-1.301-1.107.186-.495.753-.595 2.307-.147.633.038 1.743-.268 2.273.227.194.18.029.52-.186 1.031l-3.093-.004zm.766-.252v-.36c.426.063.653.214 1.382.025.104.013.071.097.037.147-.177.222-1.097.314-1.42.189zm5.001-.365c.195-.964-.198-1.047-.28-1.48.285-.26.422-.273.724-.256.231.743-.025 1.585-.444 1.736zm2.584-.25c-.021.004-.31-.76-.645-1.087a.8.8 0 00.231-.348c.357.306.597.645.746 1.07l-.332.365zm-7.06.09l.013-.242.24.017c-.005.071 0 .113-.013.193-.058.02-.132.025-.24.033zm.485-.016c.012-.079.012-.13.05-.188.057.008.107.025.173.013 0 .07.03.117-.004.192a.385.385 0 01-.22-.017zm.496.047c-.09 0-.007-.097-.037-.156.075-.02.129.026.195.06.033.016.004.053.013.087-.03.042-.12.009-.17.009zm-1.51-.068v-.314c.28-.03.29.038.277.335l-.277-.02zm3.564-.746c.224-.038.427-.13.642-.163.084.167.1.54-.12.893-.202-.294-.248-.453-.522-.73zm-3.08-.566c.144.1.29.16.442.243-.144.898-.488.03-.442-.243zm7.652.65c-.27-.558-.402-.7-.808-1.082.092-.176.092-.273.125-.508.539.344.874.94.994 1.183-.058.117-.17.226-.31.407zm-5.511-.265c-1.193-.146-1.872-1.094-2.369-1.174h-.252v.642c-.63-.054-.324-.226-1.007-.226-.696 0-.675.26-1.309.549.456-.96.589-1.22 1.185-1.28.215 0 1.346.353 1.391.03v-1.396c.977.046 1.297-.227 1.777-.705.099.16.517.457.679.227-.129-.235-.733-.055-.439-.86.757-.591 1.454.658.662 1.228-.729.68-1.56.676-2.497.676-.029.994 1.59 1.98 2.464 1.699 1.391-.135 2.24-1.867 3.205-1.263.323.201.174.478.414.72.187-.016.187-.133.228-.271-.62-.407.335-1.175-1.031-1.3-.572-.055-.779-.994-2.124-.634.625-.889 2.17-.792 2.724-.42 1.47.985.484 3.73.096 3.436-.042-1.766-3.263.499-3.798.322zm5.971-.44c-.199-.436-.63-1.018-1.077-1.32v-.441c.385.088 1.09.788 1.38 1.245a7.086 7.086 0 01-.279.524l-.024-.008zm-7.819-1.518c.138.013.365-.017.514.134.166.16.22.361.994.898.054.042-1.048-.256-1.508-1.032zm.83-.067c.16 0 .421.03.516.155.162.201.344.529 1.114.856-.724.062-1.751-.751-1.63-1.011zm5.788-.667c0-.21-.1-.486-.17-.67.538.116 1.168.788 1.62 1.178l.004.038c.563.507.372.565.17.956-.204-.495-1.222-1.259-1.624-1.502zm-5.193.478c.129 0 .476-.004.576.122.116.15.493.562 1.01.734-.418.146-1.449-.575-1.586-.856zm.687-.302c.162-.008.299-.067.473.042.144.093.016.273.857.801-.331.042-1.255-.5-1.33-.843zm.659-.264c.133-.038.22-.038.39.038.318.151.082.319.728.637-.356.084-1.019-.369-1.118-.674v-.001zm2.39-1.594c.16-.586 2.025.483 2.025.6.05-.121.115-.134.14-.222-.19-.143-1.234-.83-1.536-.869-.008-.033.22-.251.244-.322.079-.013.646.205.717.247.235-.298-.34-.323-.51-.554.083-.083.112-.192.161-.34.142.051.315.27.444.177.062-.075.066-.134.041-.205-.463-.311-.397-.1-.281-.672.637.063.401-.125.07-.301l.066-.387c.145.047.406.097.328-.15-.104-.05-.142-.021-.274-.139.046-.121.058-.222.07-.385.108-.043.166-.018.253-.047.029-.176-.128-.18-.232-.268.02-.121.012-.201.012-.336l.236.033c.055.005.108-.209.025-.23-.153-.046-.438-.192-.542-.364.915.13 1.014-.307 1.47-.596.05-.033.273.025.36.1l.124.281c-.132.043-.327-.092-.418-.07-.033.2.066.2.066.234.1.038.485.155.522.285l.075.26c-.265-.109-.423-.297-.55-.03.405.144.542.324.658.412.008.08.078.193.09.306-.231 0-.472-.297-.683-.193l.004.013-.012.1c.186.047.916.563.816.798-.232.012-.518-.358-.688-.227 0 .125.067.193.104.235.315.34.75.197.695.81-.28-.076-.335-.135-.74-.294-.216.113.152.352.31.39.195.063.452.239.456.364l.016.357c-.294-.093-.642-.437-.928-.226 0 .44 1.011.134.891 1.098-.307.06-.538-.34-.787-.34l-.062.248c.265.147.513.453.79.57l-.066.377c-.198-.033-.588-.423-.724-.423-.108.121-.14.202-.046.306 0 .013.456.378.704.483-.161 1.174-1.006-.437-1.022.264.194.235.571.394.753.692-.05.176-.1.281-.145.407-1.093-.953-2.145-1.69-3.49-2.256zm-.804 1.837c-.31.026-.96-.2-.99-.57.6.046.39.277.99.57zm-.683-1.903c-.373-.014-1.566-.454-1.95-1.054.111 0 1.043.751 2.004.793.753.034 1.664-.138 1.995-.608h.03c-.245.562-1.342.893-2.08.869zm-4.187-.504v-2.94c.058-.03.323.608.34.691.335 1.779.07 2.236-.34 2.248v.001zm4.315-.1c-.758-.063-1.71-.487-2.207-1.238l.013-.004c.786.637 1.556.96 2.273.964.902.005 1.342-.268 2.306-.838-.422.642-1.499 1.052-2.385 1.116zm-.807-.416l-.008-.03.008.03zm.774-.163c-.472-.004-1.731-.437-2.58-1.56.058-.009 1.561 1.212 2.004 1.2 1.056.401 2.638-.328 3.268-1.083-.402.767-1.42 1.464-2.692 1.443zm.845-.563c-2.261.232-3.86-2.21-3.86-2.21l.03-.07c1.312 1.131 2.008 2 3.308 2.058 1.4.064 2.062-.68 2.443-1.975h.045c-.028.96-.637 2.06-1.966 2.198zm-9.877-.184c-1.142-.084-2.116-1.048-1.863-2.055.19-.256.571.877 1.189 1.023 1.047.466 2.103-.47 2.298-.863.137-.273.426-.323.575-.186-.132.718-.836 1.116-1.155 1.318-.63.37-1.341.33-1.714.117-.133-.012-.19.088-.038.18.746.378 1.177.19 1.698.013a.599.599 0 01.402-.139c.216.244-.944.676-1.391.592zm7.466-1.526l.44-.14c.257.488 1.258 1.176 2.103.768.928-.44.895-1.287.84-2.117l.427.096c.153.57.282 1.832-1.11 2.45-1.088.482-2.21-.274-2.7-1.057zm2.415.364c-.675.273-1.271-.146-1.623-.637.1-.071.343-.302.456-.315.136.508.537.625.935.495.455-.15.671-.759.22-1.254a.8.8 0 01.504-.117c.377 1.182-.074 1.657-.492 1.828zm-9.885-.155c-.662-.088-.87-.449-.919-.827.066-.38.211-.406.477-.435-.527.994 1.59 1.262 1.411-.013.067-.025.054-.066.067-.109 0-.004-.067-.037-.1-.06-.559-.405-.923-.305-1.673-.128-.041.063-.62.221-.74.247v-.008c-.506-.072-.688-.373-.808-.798 1.031.5 1.47-.762 2.347-.926 1.152-.214 1.657.768 1.96 1.627.04.394-.22.33-.32.038-.22-.89-.679-1.191-1.615-1.098l.004.318c1.628.038 1.955 2.088-.09 2.172zm6.402-.8c1.674-.227 1.615-.781 2.667-1.503.377-.154 1.205.014 1.45.311-1.95.18-1.346.839-2.481 1.342-.692.306-1.238.063-1.636-.15zm-1.623-1.653c-.249-2.148 1.896-2.734 3.512-2.236 1.428.503 2.244.7 3.685.357-.468 1.321-1.478 1.183-1.863 1.338-1.31.092-1.54 1.044-2.742 1.732-1.03.39-2.455.004-2.592-1.191zm7.388.763a1.199 1.199 0 01-.68-.276c0-.032.005-.064.017-.093.621.016 1.433-.37 1.607-1.019.095.105.203.314.306.524-.24.566-.62.864-1.25.864zm-6.547-.742c-.365-.609.244-1.3.865-1.522.87-.168 1.996-.018 2.61.46-.038.14-.137 0-.216.051-1.073-.243-1.234.579-1.587.935-.347.352-1.283.726-1.672.076zm5.785.104c-.232-.029-.915-.158-.949-.444.399-.514 1.587-.015 1.864-1.464.186.269.51.718.633.89-.34.78-1.155 1.018-1.548 1.018zm-6.154-.851c.158-.94.944-1.313 1.263-1.363 1.284-.2 2.1.44 3.239.671-.005.042-.013.06-.025.097-.8.016-2.473-.927-3.417-.449-.323.163-.443.193-1.06 1.044zm-.095-1.317c.393-.494 1.532-1.078 1.921-1.161 1.002-.256 1.59-.256 2.518.373.215.222.278.373.278.474-2.51-.772-3.06-.684-4.717.314zm-.31-.423c.496-1.586 2.252-2.768 3.892-2.068.344.197.82.592.344.843-1.152-.05-1.566-.02-2.129.155-.493.155-1.205.31-1.946 1.309l-.02.004c-.24.247-.25-.017-.142-.244v.001zm6.286.348c-.145-.164.28-.45.38-.507l.406.373c-.05.172-.642.134-.786.134zm-.469-.017c-.256-.113.075-.893.216-1.061l.356.285c.17.134-.236.415-.46.738l-.112.038zm-.497-.528c-.182-.412-.041-.667.199-.902l.303.205c-.22.29-.286.44-.253.776.004.08-.12.05-.249-.079zm-6.724-.604c.024.238-.108.134-.228.07-1.847-.796-2.315-.317-3.582-.007-.158-.025-.063-.151.017-.177 1.072-.59 1.995-.96 3.279-.737 0 .012.265.109.514.851zm6.335.02a.536.536 0 01.05-.704c.15.089.232.147.343.251-.132.076-.206.19-.186.328 0 .34-.145.16-.207.125zm-4.696-.385c-.186-.009-.269-.072-.327-.239v-.407c.187 0 .555.239.593-.034-.282-.158-.373-.096-.593-.213v-.315c.349.034.642.126.977.21.386-.39-.811-.399-.977-.512v-.23c.853-.038 1.702.092 2.522.318l-.025.08c-.696.046-1.33.529-1.868 1.103-.045.05-.116.247-.302.239zm5.595 16.507l-.013-.029.013.03zm-5.91-8.37l-.016-.034.017-.017v.05zm-.276-10.894l.004.584a.52.52 0 01.476-.369c.253 0 .46.218.46.483h-.676c-.086 0-.17.004-.26.004-1.918.088-4.469.721-5.96 2.281-.078.122-.004.18.162.093.175-.092 2.454-1.655 4.713-1.158.637.344 1.088 1.346 1.088 1.862v1.032c-.786-.964-2.666-1.677-3.846-1.439-.344.072-.178.214-.116.24.997-.009 3.789 1.044 3.962 2.512l-.004 6.567c.783.038 1.09-.197 1.26-.365.26-.26.542-.901.46-1.505l-.295.105h-.017c-.116.926-.376 1.237-1.138 1.463v-.386c.53-.05.774-.52.724-1.556-.05-.985-.335-1.77-.733-2.587V9.41c.39.784.737 2.29.994 2.559.199-.072-.302-1.423-.48-1.934.194-.235.53.528.733.927.364.918 1.27 4.03-.195 4.52-1.316.349-2.306.19-2.695-.401-.626-1.045.658-2.316.252-2.827l-.348-3.205c-.253-2.244-3.317-3.019-4.526-1.576-.199.318.07.218.228.092.977-.642 3.126-.772 3.739 1.107.145.377.133 1.15-.29.147-.741-1.175-1.838-1.72-3.126-.789-.22.143-1.007.847-1.276.466-.48-.625.61-1.51.572-1.9l-.17.1c-.766.65-1.288 2.24-.799 3.49.075.323.435.612-.257.772-1.45.536-1.681 2.009-1.69 2.62 0 2.404 2.004 5.147 4.547 3.842.393-.25.731-.579.994-.964l-.144-.118c-3.955 4.19-6.448-3.984-3.148-4.496.385.453.932.99 1.52 1.125 1.151.264 2.223-.219 3.458-1.976.194-.197.24-.008.207.093-.125.666-.837 1.606-.957 1.866-.07.155-.012.348.207.168.273-.382.356-.642.6-.688l-.546 1.174c-.203.319-.369.503.17.432.505 0 .273.251.352.642.467.688-.65 1.199-.746.218.004-.348.286-.596.091-.65-.202.066-.464.57-.476 1.127l-.51.764.12.126.576-.814c.257.583 1.189.251 1.238.24.204.007.315.058.427.21.008.213.145.276.19.57.298.318-.132.444-.393.544-1.04.395-1.105 1.032-1.523 1.54-.278.344-.394.226-.646.49-.187.332.256.474.335.646.124.26.385.617.75.772.236.08.38.143.016.352-.266.181-.38.642-.38.793 0 .398.086.91.595 1.24a5.973 5.973 0 01-.787-.263c.265-.335.03-.437-.02-.52-.12.03-.125.457-.671.265.182-.32 1.292-1.62.75-1.808-.44.747-.61 1.606-1.558 1.439.419-.32 1.065-.663 1.367-1.653l-.15-.05c-.364.75-1.105 1.665-1.979 1.228.381-.184.638-.348.84-.511.183-.151 1.007-.868.709-1.024-.497.503-1.586 1.67-2.236.982.381-.106.79-.268 1.097-.474.298-.201.733-.63.97-.772l-.1-.201c-.244.05-1.346.956-1.578 1.014-.348.088-.625.332-1.11-.21.626-.062 1.201-.242 1.479-.419.224-.142 1.035-.54 1.134-.545l-.111-.2c-.568.196-1.028.876-2.266.876-.09 0-.575-.03-.969-.516l.009-.03c.757.118 1.383.101 2.112-.117.352-.13.683-.352 1.039-.445l-.116-.268c-.67.298-1.16.616-1.983.616-.928 0-1.073.14-1.636-.608.099-.117.779.223 1.246.223 1.019 0 1.479-.03 2.327-.428l-.103-.202a5.01 5.01 0 01-1.57.353c-1.39.013-2.459-.613-2.53-1.208.398.335.986.75 1.661.826.517.055 1.909-.004 2.406-.193l-.083-.197c-.261.105-1.379.202-1.715.202-.711 0-1.498-.508-1.693-.663-1.404-1.145-1.81-4.585-1.01-5.687.17-.558 1.163-1.396 1.147-1.568-.166-1.624-.253-2.211.969-3.93-1.056.654-1.818 2.105-1.346 3.485.211.616-.696 1.157-.956 1.594-1.19 1.983-.651 4.101.186 6.11 1.138 2.403 3.818 5.813 8.973 6.102.369.03.563.013.924 0 0 .26-.199.478-.452.478-.186 0-.398-.108-.464-.272l-.02.5c-5.818-.152-10.477-5.005-10.48-10.935-.01-6.005 4.653-10.677 10.492-10.918zm.264-.01v-.35c-6.451.026-11.114 5.214-11.106 11.274.008 6.303 4.713 11.177 11.106 11.32v-.374c5.947-.004 10.792-4.911 10.792-10.933 0-6.023-4.845-10.934-10.792-10.935v-.001zm1.479.318c.25.03.42.29.391.544-.356-.055-.546-.115-.91-.129a.478.478 0 01.519-.415zm1.204.251c.247.06.393.34.334.59-.347-.097-.536-.182-.897-.239a.477.477 0 01.564-.35zm1.135.386a.47.47 0 01.264.602c-.335-.137-.512-.22-.864-.32a.476.476 0 01.6-.282zm1.16.533a.47.47 0 01.192.629c-.317-.176-.483-.28-.821-.42a.474.474 0 01.629-.209zm1.072.705a.47.47 0 01.118.647c-.293-.212-.446-.335-.766-.514a.473.473 0 01.648-.133zm.956.742a.471.471 0 01.043.657c-.267-.245-.405-.385-.702-.6a.471.471 0 01.66-.057zm.945.902a.47.47 0 01-.033.657c-.237-.275-.358-.43-.629-.68a.471.471 0 01.662.023zm2.526 5.741a.468.468 0 01-.386.53c-.048-.362-.064-.56-.154-.918a.475.475 0 01.54.388zm-.542 4.882a.461.461 0 01-.596.265c.136-.338.22-.517.318-.873a.482.482 0 01.278.608z" fill="#005DED"/><path fill-rule="evenodd" clip-rule="evenodd" d="M85.554 16.754a.439.439 0 01-.192.23.471.471 0 01-.29.063l-.014.036-.016.038a.469.469 0 00.5-.113.447.447 0 00.107-.432.494.494 0 00-.142-.238.5.5 0 01.071.201.463.463 0 01-.024.215zm.543-4.882a.447.447 0 01-.066.316.475.475 0 01-.253.197l.016.118a.477.477 0 00.302-.186.451.451 0 00-.062-.61.492.492 0 01.063.166v-.001zm-2.472-5.668a.462.462 0 01.058.304.487.487 0 01-.146.28l-.266-.31a4.551 4.551 0 00-.267-.28l-.006.006-.006.006c.136.124.233.225.327.33.094.105.183.212.302.35a.485.485 0 00.122-.513.45.45 0 00-.103-.16l-.015-.013zm-.908-.867a.484.484 0 01-.048.55l-.3-.278a4.803 4.803 0 00-.298-.246.143.143 0 00-.01.011.129.129 0 00-.01.012c.148.108.257.197.361.29.105.093.207.189.34.311a.485.485 0 00.07-.507.445.445 0 00-.104-.143zm-.915-.71a.47.47 0 01.066.25.488.488 0 01-.08.257c-.129-.092-.23-.168-.332-.24a4.51 4.51 0 00-.324-.21.433.433 0 00-.027.037c.16.09.277.166.393.245.115.08.226.164.373.27a.49.49 0 00.076-.322.45.45 0 00-.145-.288zm-1.03-.68a.49.49 0 01.016.464c-.135-.075-.243-.137-.349-.195a4.693 4.693 0 00-.338-.167 1.185 1.185 0 00-.073-.032.592.592 0 00-.056-.023c-.003.005.018.027.04.05.02.022.042.044.04.049.17.07.295.131.419.196.123.066.243.135.401.223a.49.49 0 00.044-.304.456.456 0 00-.143-.26zm-1.11-.512a.482.482 0 01.039.417c-.148-.061-.266-.112-.38-.157a4.629 4.629 0 00-.37-.13l-.055-.016-.056-.017c-.006-.002.007.018.025.04a.494.494 0 00.056.06c.176.05.308.096.439.146.13.051.257.106.424.175a.492.492 0 00.016-.282.47.47 0 00-.139-.235zm-1.09-.37a.52.52 0 01.065.388c-.155-.043-.278-.084-.4-.12a3.579 3.579 0 00-.386-.099l-.056-.009-.056-.01c-.008 0 .01.023.031.047.022.025.046.05.053.054.18.029.318.064.454.104.136.04.27.086.443.134a.508.508 0 00-.149-.49zm-1.159-.242c.062.1.09.217.077.334-.16-.025-.287-.051-.411-.073a3.454 3.454 0 00-.395-.05l-.051-.003-.052-.003c-.007 0 .004.018.022.04a.341.341 0 00.06.06c.181.007.32.026.458.05.137.024.274.053.452.08a.525.525 0 00-.16-.435zm6.554 3.49a10.901 10.901 0 00-3.622-2.909 10.606 10.606 0 00-4.642-1.108h-.044l-.044-.002.044.051.044.052a10.6 10.6 0 014.631 1.062c1.4.68 2.64 1.654 3.633 2.855zM75.62 1.946c-3.226.013-6.004 1.316-7.976 3.374-1.97 2.057-3.134 4.87-3.13 7.9a11.87 11.87 0 00.694 4.027 10.992 10.992 0 001.933 3.356 11.012 11.012 0 01-1.872-3.318 11.87 11.87 0 01-.672-3.964c-.004-2.997 1.135-5.78 3.066-7.832a10.852 10.852 0 017.829-3.438l.048-.004.08-.101zm-.174 21.832a.342.342 0 01-.083-.12l-.01.25-.01.25a10.549 10.549 0 01-4.427-1.098 10.835 10.835 0 01-3.486-2.751 10.848 10.848 0 003.51 2.823 10.55 10.55 0 004.486 1.126l.01-.24.01-.24zm.821-.22a.485.485 0 01-.155.265.433.433 0 01-.285.108.56.56 0 01-.364-.136.457.457 0 00.19.172.56.56 0 00.257.065.44.44 0 00.32-.141.494.494 0 00.132-.337l-.049.002-.046.001zM68.28 6.476c.071-.107.144-.212.218-.317a3.252 3.252 0 00-1.245 1.47c-.264.617-.336 1.325-.1 2.015.105.309-.069.598-.302.865-.232.267-.525.51-.655.729-.594.992-.756 2.018-.666 3.046.09 1.028.434 2.06.852 3.064a11.47 11.47 0 001.552 2.427 11.48 11.48 0 01-1.468-2.325c-.419-1.005-.763-2.037-.853-3.065-.09-1.029.073-2.054.666-3.046.13-.218.423-.462.656-.729.233-.267.407-.556.3-.865a2.765 2.765 0 01.029-1.83 3.295 3.295 0 011.016-1.44zm2.569 11.444l-.024-.057-.024-.057c-.13.053-.476.102-.83.14-.354.037-.717.06-.885.06-.355 0-.73-.126-1.04-.272a3.704 3.704 0 01-.653-.39 2.606 2.606 0 01-.294-.288c.058.074.119.144.181.21.064.064.128.125.196.18.097.077.343.243.653.39.31.145.685.272 1.04.272.162 0 .503-.022.844-.057.34-.034.678-.082.836-.132zm.126.418l-.03-.057-.029-.056c-.214.089-.435.16-.661.214a4.701 4.701 0 01-.907.139 4.11 4.11 0 01-1.397-.221c-.396-.14-.71-.335-.907-.55.171.237.486.457.899.617.413.16.924.26 1.488.254.297-.012.609-.066.883-.132s.511-.146.66-.209zm.14.402l-.024-.058-.025-.059c-.335.15-.625.303-.935.42-.334.131-.69.198-1.049.197-.414 0-.672.028-.881-.008-.21-.036-.369-.136-.587-.39.248.312.416.436.632.483.216.047.48.016.92.016.405 0 .73-.077 1.033-.19.305-.114.59-.265.917-.411zm.202.492l-.03-.055-.03-.054c-.284.098-.541.317-.882.512-.34.194-.765.364-1.384.364-.042 0-.17-.006-.333-.062a1.37 1.37 0 01-.551-.357v.002l-.001.003c.196.242.415.371.598.44.181.068.325.076.37.076.481.007.955-.116 1.37-.358.34-.19.595-.408.873-.511zm.18.361l-.027-.055-.028-.055c-.122.025-.458.265-.793.504-.335.24-.668.482-.784.511-.162.041-.309.116-.469.13-.16.012-.331-.035-.545-.24l-.006.001h-.007c.243.271.433.345.606.341.174-.004.33-.086.504-.13.112-.03.426-.255.749-.486.323-.231.654-.469.8-.52zm.279.476a.114.114 0 00-.064-.12c-.235.238-.603.625-.994.893s-.806.418-1.134.183c-.004.001-.097-.083-.1-.082-.005.001.08.087.075.088.321.34.748.228 1.16-.033.41-.261.804-.671 1.057-.928zm.494.302a.531.531 0 00.011-.033l.01-.033-.074-.025-.075-.025c-.17.352-.425.74-.737 1.01-.312.267-.682.414-1.084.284-.014 0-.154-.072-.166-.067-.013.007.048.068.091.103.437.218.84.099 1.181-.17.34-.267.617-.683.799-1.06l.022.009.022.007zm.345.273a.187.187 0 00-.048-.075.236.236 0 00-.085-.05c-.204.347-.35.717-.542 1-.189.274-.422.464-.8.46-.018 0-.06 0-.1-.006-.055-.006-.11-.017-.116-.012-.018.013.017.069.084.098.475.084.754-.089.97-.377.216-.287.368-.688.587-1.061a.275.275 0 01.05.023zm-.095 1.56a.413.413 0 00-.063-.08c-.022-.023-.043-.043-.053-.061-.056.013-.086.11-.156.194-.07.082-.18.15-.391.105-.025-.003-.132-.046-.126-.031.048.101.138.121.239.139.174.029.274-.022.341-.091.085-.086.116-.2.176-.215.01.015.02.029.033.04zm.614.622a5.448 5.448 0 01-.588-.195l-.018.026-.02.026a5.7 5.7 0 00.786.265 1.255 1.255 0 01-.16-.122zm.081-2.206c-.004.024-.023.051-.058.083a.966.966 0 01-.162.11c-.132.09-.227.25-.29.407a1.224 1.224 0 00-.09.386c0 .16.014.339.064.518.05.178.136.355.282.512a1.284 1.284 0 01-.213-.468 1.975 1.975 0 01-.05-.461c0-.076.029-.23.091-.386.062-.157.157-.317.29-.407.136-.078.202-.137.217-.183.016-.046-.019-.08-.08-.11zm1.052-4.714c.006.103.042.172.082.25a.923.923 0 01.109.312c.149.159.115.27.012.354-.103.084-.276.14-.406.191-.52.197-.796.455-.995.728-.199.271-.32.557-.529.811a.888.888 0 01-.332.276c-.095.046-.188.083-.314.215a.28.28 0 00-.035.223.41.41 0 00.114.17.263.263 0 01-.041-.132.31.31 0 01.046-.16c.126-.132.218-.169.313-.215a.883.883 0 00.332-.276c.21-.253.33-.54.53-.812.198-.271.475-.53.995-.727.13-.05.302-.106.405-.19.104-.085.137-.195-.012-.355a.941.941 0 00-.11-.315c-.04-.08-.077-.148-.08-.256a.78.78 0 00-.083-.092h-.001zm-1.31-1.553c.005-.026.005-.05-.005-.067-.01-.019-.029-.032-.06-.04-.102.032-.217.175-.31.379a1.96 1.96 0 00-.166.748l-.254.382-.255.382.044.046.044.046.252-.377.252-.378c.006-.27.071-.529.159-.73.088-.201.2-.346.3-.39zm.566-.177c.016.056.01.127.007.212-.006.096 0 .194.017.29.18.266.123.507-.02.644-.144.136-.374.17-.538.022.146.237.406.241.58.114.172-.128.26-.388.06-.68-.03-.15-.014-.279-.012-.381.002-.103-.01-.179-.094-.221zm-.037-1.564l-.23.496-.231.496c-.077.12-.149.221-.179.297-.03.076-.018.126.071.143a.492.492 0 01.067-.145c.034-.057.078-.122.124-.194l.273-.588.274-.586a.35.35 0 00-.169.08zm.244-1.606a.265.265 0 01-.01.077c-.062.334-.271.734-.48 1.085-.208.351-.416.651-.476.78a.278.278 0 00-.025.162c.008.046.035.08.08.08a.268.268 0 01.005-.068.326.326 0 01.023-.071c.06-.13.268-.43.477-.781.209-.35.417-.752.48-1.086a.216.216 0 00.002-.12c-.011-.036-.035-.062-.076-.058zm-1.918 5.47l.008-.01.008-.01-.073-.06-.072-.058c-.784.83-1.51 1.175-2.146 1.19-.636.014-1.18-.302-1.599-.79.416.528.968.883 1.618.891.65.008 1.4-.33 2.21-1.19l.023.02.023.018zm-2.645-9.71a.512.512 0 00.03-.09.258.258 0 00.005-.08l-.084.05-.085.05c-.383.325-.706.885-.87 1.52-.165.635-.174 1.344.07 1.97.038.16.147.314.16.447.012.132-.07.244-.416.324a2.422 2.422 0 00-1.385 1.283c-.192.42-.296.876-.305 1.338 0 .549.105 1.115.297 1.647.191.532.47 1.03.818 1.44a4.769 4.769 0 01-.758-1.403 4.899 4.899 0 01-.273-1.583c.008-.463.112-.918.304-1.339.24-.511.66-1.013 1.385-1.282.346-.08.428-.192.416-.324-.013-.133-.122-.286-.16-.448-.244-.625-.235-1.334-.07-1.97.165-.635.487-1.194.87-1.519l.026-.015.026-.015zm3.615 1.696c-.364-.459-.796-.775-1.28-.872-.484-.097-1.02.024-1.596.44-.103.067-.332.259-.574.403-.242.144-.496.24-.65.117l.016.023.016.023c.135.19.399.11.657-.036s.509-.358.618-.43c.554-.399 1.072-.527 1.542-.45.469.079.89.361 1.25.782zm.171-.503c.076.098.145.205.207.324.063.119.117.248.163.388.051.134.083.319.084.455 0 .137-.031.225-.105.168.118.185.174.133.185-.006a1.342 1.342 0 00-.081-.516 2.514 2.514 0 00-.196-.45 2.118 2.118 0 00-.257-.364zm.427-.14c-.487-.621-1.256-.992-2.021-1.065-.766-.073-1.528.15-2.003.718-.061.098-.078.156-.068.186.01.03.048.033.096.018a.838.838 0 01.055-.103c.462-.552 1.196-.779 1.94-.724.744.055 1.498.393 2.001.97zm3.058 2.352a3.3 3.3 0 01.228.389c.074.142.143.287.201.401.183.46.5 1.467.59 2.422.088.953-.051 1.854-.784 2.1-.604.159-1.14.212-1.58.165-.44-.047-.785-.193-1.008-.432.202.282.548.458 1.004.523.456.063 1.022.015 1.667-.155.733-.246.873-1.147.784-2.1-.09-.955-.407-1.962-.59-2.422-.068-.136-.153-.314-.242-.48a1.96 1.96 0 00-.27-.41zm-.734-.582c.178.407.346.94.5 1.402.153.461.292.852.411.977l.005-.002.004-.003c-.124-.218-.266-.654-.42-1.123-.155-.47-.323-.974-.5-1.33v.08zm1.387 3.663l-.005-.064-.007-.063-.147.053-.147.052h-.017c-.056.446-.145.75-.308.97-.162.22-.474.38-.822.493l.075.102c.38-.113.636-.247.811-.47.175-.22.27-.53.327-.994h.017l.111-.04.112-.04zm-2.07-5.6c.09.115.168.242.23.375.058.13.097.264.113.401l-.002 3.284-.002 3.284.083.003.002-3.235.002-3.235a1.375 1.375 0 00-.14-.455 2.04 2.04 0 00-.287-.422zm-.218-2.96c.173.222.313.48.41.728.097.248.151.485.151.664v1.032c-.393-.483-1.06-.902-1.775-1.171-.716-.27-1.481-.388-2.071-.268-.163.033-.212.083-.212.128.001.047.05.088.084.106-.002-.024.01-.048.042-.071a.453.453 0 01.169-.062c.59-.119 1.355-.001 2.07.268.717.269 1.383.688 1.776 1.171V6.185c0-.193-.062-.453-.174-.721a2.891 2.891 0 00-.47-.772v.001zm1.42-1.952a.497.497 0 01.073.261h-.675l-.129.002a5.234 5.234 0 01-.132.002c-1.068.05-2.125.248-3.14.589-1.063.364-2.073.913-2.819 1.693-.03.047-.038.086-.026.109.013.023.045.032.093.02l.008-.013.008-.015c.746-.78 1.757-1.328 2.82-1.693 1.014-.34 2.07-.539 3.14-.589.045 0 .088 0 .131-.002l.129-.002h.675a.5.5 0 00-.157-.362zm-.863.148a.412.412 0 01.081-.162v-.16l-.002-.162c-.016-.028-.066-.078-.081-.1a5.372 5.372 0 00-.002.276l.004.308zm1.313 1.015c-.02-.103-.197-.166-.402-.21-.205-.046-.437-.074-.567-.11v.069c.058.04.243.066.442.101s.412.078.527.15zm-.473.529a.305.305 0 00.013-.052 1.032 1.032 0 00-.284-.113c-.076-.019-.142-.028-.225-.061v.062a.827.827 0 00.242.085c.073.016.15.03.254.079zm-.252.628a.547.547 0 01-.12-.017.274.274 0 01-.09-.041.269.269 0 00.11.118c.058.028.12.042.183.042a.246.246 0 00.204-.098c.047-.054.076-.116.098-.141.27-.288.563-.552.875-.75.313-.199.646-.33.993-.354l.013-.04.012-.039-.053-.015a3.844 3.844 0 00-.053-.013l-.001.003v.003c-.35.023-.681.156-.994.353a4.644 4.644 0 00-.875.75c-.022.026-.051.087-.098.142a.246.246 0 01-.204.097zm5.07-.055a.38.38 0 00-.136.137.279.279 0 00-.031.178c0 .143-.026.194-.06.203-.034.008-.077-.025-.112-.052a.57.57 0 00.048.076c.031.017.083.07.127.078.044.006.08-.033.08-.203a.282.282 0 01.036-.188.404.404 0 01.15-.14 2.73 2.73 0 00-.102-.09zm-10.509.48c-.001 0-.004 0-.005.002h-.005c-.08-.011-.095-.05-.08-.087a.166.166 0 01.096-.088c.536-.296 1.036-.536 1.56-.674a3.925 3.925 0 011.72-.064c0 .004.021.013.058.044.036.03.087.08.146.16a.625.625 0 00-.088-.079c-.02-.015-.033-.022-.033-.024a3.93 3.93 0 00-1.72.064c-.524.139-1.023.378-1.56.675a.152.152 0 00-.05.028.164.164 0 00-.039.043zm11.003-.122c-.1.135-.166.24-.203.352a.93.93 0 00-.027.394c.001.033-.019.047-.052.044a.292.292 0 01-.132-.066l.009.022.01.021a.448.448 0 00.174.12c.046.012.076 0 .074-.04a.911.911 0 01.032-.405c.04-.116.11-.226.22-.37l-.052-.036-.053-.036zm.629.485c.01.074-.068.173-.17.288-.104.115-.233.245-.329.384l-.055.018-.055.019a.182.182 0 00.03.062c.014.017.032.03.052.04l.055-.019.056-.019c.112-.161.27-.312.378-.44.108-.127.167-.231.082-.298l-.022-.017-.022-.018zm.637.61c-.039.068-.17.099-.318.111-.148.014-.31.008-.406.006a.117.117 0 00.001.053.12.12 0 00.027.047c.072 0 .256.01.428-.002.173-.012.334-.045.358-.131l-.046-.043-.044-.041zM80.08 4.554c.053.078.08.159.064.235-.015.076-.076.15-.196.213-.576-.026-.967-.03-1.284-.007-.287.019-.57.073-.844.162-.247.077-.548.155-.88.337-.333.184-.696.472-1.066.972l-.011.002-.01.002a.616.616 0 01-.07.062.225.225 0 01-.053.031c-.003.058.01.1.044.106.09.019.272-.236.338-.3.355-.344.626-.616.91-.773.334-.183.635-.26.881-.338a3.52 3.52 0 01.844-.162c.317-.024.71-.018 1.285.007.147-.078.203-.169.2-.263-.002-.095-.064-.194-.152-.286zm.525 1.473c.05.067.084.126.105.177a.344.344 0 01.03.131c-1.106-.34-1.831-.512-2.438-.514-.607-.002-1.096.166-1.73.51a2.737 2.737 0 00-.386.33 1.142 1.142 0 00-.08.09c.828-.5 1.38-.77 2.039-.82.658-.05 1.423.12 2.678.505a.382.382 0 00-.047-.168 1.114 1.114 0 00-.171-.241zm-4.487 1.94a1.66 1.66 0 01.571-1.015 1.54 1.54 0 01.692-.348c.642-.1 1.167.01 1.673.173.507.164.996.383 1.565.498a.517.517 0 01-.019.08c-.543-.124-1.016-.335-1.509-.491-.492-.156-1.005-.257-1.627-.159a1.473 1.473 0 00-.591.27 1.66 1.66 0 00-.582.757l-.083.112-.09.123zm6.154.851a3.06 3.06 0 01-.415-.084c-.163-.046-.329-.11-.432-.196.058.12.237.21.428.27.191.063.395.098.502.111.196 0 .499-.06.794-.217a1.65 1.65 0 00.754-.802l-.293-.408a44.7 44.7 0 01-.34-.48l-.002.006a.03.03 0 000 .007c.093.134.204.29.305.432l.247.342c-.17.39-.458.645-.754.802a1.793 1.793 0 01-.794.217zm-5.785-.105c-.183-.304-.121-.629.063-.906.198-.283.478-.499.802-.616a4.101 4.101 0 011.4-.012c.467.077.902.235 1.209.473a.312.312 0 01-.013.033c-.314-.212-.736-.35-1.182-.415a4.089 4.089 0 00-1.33.022 1.675 1.675 0 00-.803.616c-.184.278-.246.602-.063.907l.014.022.015.022a.688.688 0 01-.112-.146zm6.547.743a1.154 1.154 0 01-.594-.213l-.002.018v.02c.099.079.197.14.307.186.109.046.229.075.372.09.314 0 .567-.075.771-.22.204-.145.359-.36.48-.644a5.8 5.8 0 00-.157-.302 1.269 1.269 0 00-.15-.223.01.01 0 00-.001.004l-.002.004c.037.056.075.122.112.193.038.07.076.147.114.223-.12.283-.275.499-.48.644-.204.146-.456.22-.77.22zm-.242-2.51c-.243.59-.604.853-.95.989-.345.135-.677.141-.862.216-.655.046-1.04.308-1.412.643-.371.336-.73.746-1.33 1.09a2.37 2.37 0 01-1.215.113c-.402-.068-.774-.244-1.031-.527.243.326.624.53 1.046.615.429.086.873.051 1.283-.1.6-.344.96-.754 1.33-1.09.373-.335.757-.596 1.412-.643.192-.077.54-.081.9-.231.36-.15.73-.445.963-1.106l-.067.016-.067.015zm-1.432 2.21c-.96.092-1.29.302-1.524.551-.233.25-.367.538-.931.789-.299.132-.57.162-.814.136a1.974 1.974 0 01-.65-.198l-.043.006-.046.006c.2.107.435.221.708.27.273.05.582.034.928-.119.567-.252.7-.542.935-.792.234-.25.57-.46 1.546-.55a.662.662 0 00-.109-.1v.001zm-9.076-.072a1.002 1.002 0 00-.525-.377c-.219-.069-.483-.084-.805-.052l.002.159.002.16H71l.04.003-.001-.11-.002-.111c.29-.029.534-.02.74.033.205.053.372.15.507.295zm.07-.435c.119.154.22.33.308.511.087.183.161.372.226.556.014.134-.007.215-.045.252-.037.038-.092.03-.145-.012.058.1.135.152.194.135.058-.017.097-.103.08-.274a5.222 5.222 0 00-.257-.617 2.61 2.61 0 00-.361-.551zm-.46 1.16l.004-.023.004-.024a.188.188 0 00-.037-.023 1.157 1.157 0 01-.062-.036c-.28-.204-.51-.28-.765-.284-.255-.003-.533.066-.908.154-.02.032-.176.087-.341.138-.165.051-.34.097-.4.11v-.009a1.05 1.05 0 01-.308-.088.748.748 0 01-.22-.157.75.75 0 00.24.225c.1.06.222.1.371.12v.01c.06-.012.235-.058.4-.109.166-.051.32-.107.341-.138.375-.088.653-.157.908-.154.255.004.486.08.765.284l.004.002.004.003zm-1.54.49a.444.444 0 00.136.225.442.442 0 01-.067-.24.654.654 0 01.085-.3c-.014-.056-.058-.105-.08-.102-.064.008-.117.267-.074.417zm.513.847a1.46 1.46 0 01-.41-.11.884.884 0 01-.272-.187.805.805 0 00.284.252c.125.069.283.12.481.146.731-.03 1.159-.31 1.333-.66.174-.351.094-.771-.19-1.079.228.312.268.708.077 1.032-.19.324-.61.577-1.303.606zm8.755-.683a.85.85 0 00.072.143c.026.04.057.079.09.113a.957.957 0 01-.117-.268.224.224 0 00-.045.013zm1.13.838c-.298.12-.581.106-.834.01a1.688 1.688 0 01-.656-.48c.178.23.41.439.678.556a1.119 1.119 0 00.895.015.969.969 0 00.544-.535c.119-.288.137-.701-.05-1.294h-.054c.16.554.13.944.01 1.217a.97.97 0 01-.533.51zm1.417-1.67c.07.302.118.746-.016 1.188-.135.44-.454.88-1.116 1.174a1.801 1.801 0 01-1.374.03 2.688 2.688 0 01-1.09-.768c.29.373.672.664 1.108.845.446.177.946.213 1.44-.006.695-.308 1.011-.777 1.134-1.242.123-.463.052-.922-.024-1.207l-.031-.007-.03-.006v-.001zm-9.108.796c-.076.345-.285.614-.514.82-.228.208-.476.354-.632.453a2.03 2.03 0 01-.954.277c-.302.01-.574-.053-.76-.16-.066-.007-.112.015-.126.049-.012.034.009.081.08.127-.002-.025.01-.045.033-.059a.16.16 0 01.096-.016c.186.107.458.17.76.16.336-.011.664-.107.954-.278.16-.1.416-.25.648-.464.232-.214.441-.494.507-.852a.268.268 0 00-.092-.056zm-2.19 2.036a2.278 2.278 0 01-.837-.23 2.136 2.136 0 01-.659-.497c.174.228.408.423.68.567.27.144.578.237.9.26.224.043.625-.044.944-.172.319-.128.555-.296.447-.418a.311.311 0 00-.064 0c-.045.122-.3.262-.592.364-.293.1-.624.163-.818.125v.001zM82.754 10.5l-.041-.057a2.357 2.357 0 01-.605 1.544c-.319.346-.768.598-1.36.66-.827.085-1.565-.188-2.168-.568a6.03 6.03 0 01-1.363-1.212c.265.33.757.812 1.355 1.254 1.675 1.24 4.014.716 4.183-1.62zm-2.851 2.71c-.223-.003-.62-.1-1.069-.32a4.292 4.292 0 01-1.365-1.059c.382.475.86.863 1.403 1.137.466.237.884.34 1.114.343.92.026 1.796-.313 2.391-1.114.174-.233.221-.431.194-.384-.072.126-.291.436-.39.508a2.98 2.98 0 01-.976.644c-.413.17-.856.253-1.302.244zm.033.578a3.185 3.185 0 01-1.068-.295 2.91 2.91 0 01-.958-.704c.259.333.609.593.982.778a3.22 3.22 0 001.127.322c.45-.035.89-.14 1.306-.315.02-.008.041-.015.061-.026.563-.3.882-.653 1.008-.935.028-.064-.29.338-.345.37-.258.232-.603.42-.975.556-.366.135-.75.219-1.138.25zm-4.23-2.739c.101.19.186.388.255.592.156.827.182 1.369.124 1.712-.058.344-.2.49-.38.526l-.083.006.083.105c.204-.007.373-.124.449-.462.075-.338.057-.897-.11-1.786a3.125 3.125 0 00-.153-.384c-.074-.166-.155-.318-.185-.309zm4.102 3.343c-.17-.006-.51-.1-.866-.258-.355-.157-.728-.378-.963-.638.21.286.598.532.978.708.38.177.753.283.934.29.368.012.839-.037 1.224-.215.264-.122.63-.32.85-.884-.007 0-.24.416-.638.651a3.063 3.063 0 01-.753.267 3.137 3.137 0 01-.766.08zm.586 1.905a1.372 1.372 0 01-.394-.09 1.075 1.075 0 01-.359-.217c.084.136.252.242.431.313.18.07.371.105.502.094a1.54 1.54 0 01-.18-.1zm4.506-.033l.015.021.015.024c-.025.088-.05.158-.074.222l-.071.184a15.62 15.62 0 00-1.606-1.243 11.18 11.18 0 00-1.778-.967.294.294 0 00-.023.055 11.13 11.13 0 011.84.984c.567.374 1.104.796 1.65 1.273.023-.063.047-.12.071-.186.025-.063.05-.133.074-.221a.924.924 0 00-.113-.147zm.29-.855c-.09.532-.34.412-.568.245-.23-.168-.438-.382-.446-.037.026.03.054.06.084.088.014-.333.23-.104.461.062.233.166.481.27.561-.314a.828.828 0 01-.092-.045zm.132-.744l-.029.161-.027.162c-.1-.017-.247-.123-.386-.225-.14-.102-.27-.199-.34-.199a.385.385 0 00-.098.159c-.01.048.006.095.053.147l.01.011.029.026a.14.14 0 010-.114.5.5 0 01.09-.128c.068 0 .2.098.339.2.14.1.286.207.386.224l.033-.19.033-.188a.818.818 0 01-.047-.021l-.046-.025zm-.01-1.032a.573.573 0 01.076.206c.014.082.016.179.002.293-.153.03-.288-.055-.415-.148-.128-.093-.248-.192-.372-.192l-.031.124-.031.123a.933.933 0 01.094.06l.026-.103.025-.103c.124 0 .245.1.372.192.127.093.262.178.415.148a.906.906 0 00-.02-.372.51.51 0 00-.14-.228zm.081-.788c.005.01.01.02.013.03a.11.11 0 01.004.028l.009.179.008.178c-.147-.047-.308-.156-.467-.227-.16-.071-.318-.105-.461 0a.219.219 0 00.099.187.247.247 0 01-.015-.086c.142-.105.3-.07.46 0 .16.071.32.18.467.227l-.008-.179-.009-.178a.153.153 0 00-.028-.077.457.457 0 00-.072-.082zm-.057-.754a.443.443 0 01.047.144c.008.057.01.125.003.207a1.981 1.981 0 01-.325-.116c-.099-.043-.214-.098-.417-.178-.056.03-.072.068-.063.11a.27.27 0 00.092.125.097.097 0 01-.007-.073c.008-.022.028-.043.061-.06.204.079.318.134.418.178.099.044.183.077.324.115a.737.737 0 00-.022-.288.358.358 0 00-.111-.165zm-.124-.687a.435.435 0 01.062.119.147.147 0 010 .1c-.117.007-.246-.082-.367-.156-.122-.075-.236-.134-.32-.07a.307.307 0 00.103.235l.01.011.011.012a.3.3 0 01-.042-.156c.085-.065.2-.006.32.069.122.074.252.163.368.157.018-.041.009-.092-.017-.146a.778.778 0 00-.128-.175zm-.147-.767c.01.038.03.082.046.127a.594.594 0 01.039.143c-.117 0-.235-.075-.35-.136-.116-.061-.228-.11-.334-.057l.002.007.002.005-.006.05-.006.051a.316.316 0 01.04.013l.051.024.002-.018.003-.018-.003-.007-.002-.006c.106-.053.219-.004.334.057.115.062.234.136.35.136a.685.685 0 00-.047-.166c-.02-.053-.04-.1-.044-.14a.722.722 0 01-.076-.065zm-.186-.67l.036.127.036.125c-.133-.055-.238-.129-.327-.156-.089-.027-.16-.007-.224.126a2.2 2.2 0 01.115.045c.061-.09.13-.094.214-.063.084.032.183.1.305.15l-.037-.131-.037-.13a.126.126 0 00-.029-.047.334.334 0 00-.052-.045zm-.269-.673l.049.108.047.108c-.066.021-.148-.002-.224-.028-.077-.026-.149-.053-.194-.043-.017.1 0 .151.021.18.02.03.046.038.046.054l.008.004.01.004a.229.229 0 01-.009-.058c0-.028.002-.056.007-.083.046-.01.117.018.194.043.077.026.158.05.224.028l-.062-.14-.062-.141a.388.388 0 00-.055-.036zm-1.273.883a.147.147 0 00-.01-.057.05.05 0 00-.034-.031 1.262 1.262 0 01-.457-.263.72.72 0 00.227.213c.086.056.178.102.274.138zm-.303 2.849l-.004-.028-.009-.027a3.47 3.47 0 00-.17-.108 2.732 2.732 0 01-.113-.064c.002.04.021.062.067.091.047.03.12.067.23.136zm-.098.71c-.017-.066-.092-.114-.183-.16-.09-.046-.199-.09-.283-.148l-.006.006-.006.007c.05.068.138.119.228.163.09.045.184.085.25.131zm.511 1.134l.007-.016a.076.076 0 00.006-.017 10.64 10.64 0 00-.621-.41c-.282-.174-.592-.35-.791-.425a.367.367 0 00-.031.043c-.008.011-.011.02-.01.024.134.017.413.162.7.33.286.168.579.359.74.47zm-3.51 1.868c-.136.003-.302-.053-.461-.138a1.676 1.676 0 01-.419-.316c.102.144.287.299.485.408.199.11.41.173.564.137a2.235 2.235 0 01-.169-.091zm-.432.423c-.145-.01-.356-.092-.564-.205a2.314 2.314 0 01-.546-.401c.116.166.36.352.61.492.25.139.51.232.654.214a7.51 7.51 0 01-.154-.1zm-.479.332c-.198.004-.468-.105-.724-.254a3.044 3.044 0 01-.636-.479c.102.153.393.39.707.574.316.184.656.312.855.241a1.657 1.657 0 01-.202-.08v-.002zm5.184-.12a4.621 4.621 0 00-.678-.665 7.835 7.835 0 00-.699-.516l.001.025.001.025c.155.094.403.266.66.47.256.203.522.439.715.661zm.281-.388c.09.124.101.212.072.305-.029.091-.099.186-.173.324a.892.892 0 01.068.13c.087-.167.171-.273.195-.379.025-.106-.01-.213-.162-.38zm-6.03.835c-.244-.012-.512-.106-.753-.236a2.355 2.355 0 01-.593-.443c.121.17.37.377.659.535.29.159.62.268.904.244a4.747 4.747 0 01-.217-.1zm-.896.074a2.923 2.923 0 01-.548-.23 2.534 2.534 0 01-.694-.532c.253.33.615.559.91.7.293.141.517.195.492.175l-.083-.057-.077-.056zm6.506-.27c.066.08.127.166.184.254-.05.101-.095.19-.139.274-.042.082-.085.16-.13.237l.025.053.025.052.012.004.013.004c.047-.08.091-.159.135-.242.045-.086.09-.177.142-.282a3.569 3.569 0 00-.267-.356v.001zm-.567.054a3.586 3.586 0 00-.261-.296 2.63 2.63 0 00-.284-.25v.041c.095.064.19.141.281.227.092.085.18.18.264.277v.001zm-1.437-2.241c.412.541.453 1.3.345 1.933-.108.63-.367 1.134-.554 1.161l.002.04.002.04c.179.136.485-.374.619-1.06s.095-1.547-.414-2.114zm-.247.994a.467.467 0 00-.23-.191 1.655 1.655 0 00-.507-.112c-.27-.026-.46-.25-.727-.44-.266-.191-.611-.348-1.194-.24a1.416 1.416 0 00-.12.148c.673-.18 1.06-.036 1.353.16.291.197.486.446.771.473.173.016.308.043.414.077a.675.675 0 01.24.126v-.001zm-.18.714c.052.086.07.18.095.275a.594.594 0 00.153.28h.002c-.056-.095-.074-.193-.1-.287a.518.518 0 00-.15-.268zm-3.129-2.389a.803.803 0 01-.21 1.113 2.325 2.325 0 01-1.172.592c-.415.084-.858.082-1.325.082-.005.155.03.308.096.457.066.15.162.294.28.428a1.572 1.572 0 01-.22-.382 1.031 1.031 0 01-.073-.401c.468 0 .91 0 1.326-.083a2.324 2.324 0 001.17-.593.798.798 0 00.128-1.213zm-.445.757l.005-.007.006-.006c-.035-.063-.103-.096-.178-.126-.076-.03-.16-.058-.225-.109a.338.338 0 00.177.156c.073.034.152.057.215.092zm-.084 3.32c-.597-.073-1.065-.347-1.446-.612-.38-.265-.675-.523-.923-.562h-.253v.642c-.314-.028-.395-.084-.483-.134-.088-.05-.181-.093-.523-.093-.313 0-.48.053-.629.137-.148.084-.275.2-.507.326-.03.022-.266.107-.288.137-.02.029.127.05.199.05.317-.144.47-.281.63-.383.162-.1.33-.165.678-.165.342 0 .436.043.523.092.088.05.169.106.483.134v-.642h.253c.248.04.542.297.923.562.382.265.85.539 1.446.612.23.076.954-.298 1.71-.61.755-.313 1.543-.563 1.895-.237-.284-.45-1.087-.224-1.878.094-.791.32-1.57.731-1.81.652zm5.429-.764c.151.194.283.402.393.622a.929.929 0 01-.117.17c-.049.06-.108.128-.174.21l.031.062.032.066c.07-.09.134-.163.187-.227a.988.988 0 00.124-.18 3.512 3.512 0 00-.476-.723zm-.274.417a2.52 2.52 0 00-.16-.185 5.69 5.69 0 00-.2-.199.04.04 0 00-.004.007l-.004.008c.077.072.145.137.205.197s.114.115.163.172zm-6.862.258c-.03.159-.066.254-.105.303-.04.048-.081.05-.122.022.051.088.111.141.168.11.057-.03.111-.143.151-.387a2.26 2.26 0 00-.092-.049zm3.326.215a.954.954 0 01.006.35c-.024.15-.077.293-.156.422l.075.114c.099-.156.158-.333.174-.517a.75.75 0 00-.054-.377l-.023.004-.022.004zm-4.245.8v-.313a.478.478 0 01.198.006c.043.017.064.048.075.1a.281.281 0 00-.078-.012.99.99 0 00-.112.007v.22l-.041-.004-.042-.003zm1.511.068c-.045 0-.047-.024-.041-.055.006-.032.019-.07.004-.1a.145.145 0 01.1.01c.032.012.062.032.095.049a.027.027 0 01.016.026c0 .01-.003.023-.004.036a.23.23 0 00-.059-.023.136.136 0 00-.065.003c.005.01.007.019.007.03l-.003.03a1.202 1.202 0 00-.05-.006zm-.497-.046c.007-.04.01-.073.016-.102a.246.246 0 01.034-.087c.03.005.056.011.084.014.03.005.06.004.09-.001 0 .02.003.038.005.054.002.017.006.033.006.05a.613.613 0 01-.05-.006l-.051-.01a.237.237 0 00-.026.055.387.387 0 00-.013.056.806.806 0 01-.095-.023zm-.484.017l.007-.122.006-.121.12.008.12.008a.702.702 0 00-.002.05l-.001.046-.077-.006-.077-.005-.003.067-.004.068-.043.003-.046.004zm7.024-1.134c.16.204.283.433.368.677l-.157.171-.155.172.043.091c.01.021.017.033.02.032l.166-.183.166-.182c-.1-.286-.252-.55-.45-.778zm-2.077-.344c.082.323.076.66.007.944-.069.284-.2.517-.366.635l-.013.077-.015.082c.21-.075.377-.324.465-.646a1.996 1.996 0 00-.022-1.09l-.029-.002-.027-.001zm-5.473 2.002v-.36c.213.03.377.084.578.106.201.023.441.013.805-.081.04.004.06.02.067.04.007.02.002.044-.008.067-.354.09-.589.097-.787.075-.198-.023-.36-.075-.572-.106v.284a.894.894 0 01-.083-.025zm-.766.252c-.24 0-.483-.028-.696-.088a1.202 1.202 0 01-.522-.273c.104.159.294.274.525.35.252.077.514.115.776.112l1.547.002 1.546.002c.108-.256.204-.469.248-.64.043-.172.036-.302-.06-.392l-.013-.01-.013-.012c.046.097.032.223-.018.382-.048.159-.133.348-.227.571l-1.546-.002-1.547-.003zm7.573-1.65c.15.195.256.372.335.56.079.19.132.39.175.632-.096.12-.203.23-.32.33l.009.074.01.08c.142-.112.271-.24.385-.382a2.85 2.85 0 00-.197-.682 2.741 2.741 0 00-.395-.614l-.001.001v.001zm-.513.659c.127.179.202.348.256.53.053.182.086.378.125.612-.01.038-.06.087-.12.136-.06.05-.132.097-.188.132l.004.07.003.073a1.57 1.57 0 00.214-.134c.081-.06.156-.128.17-.176-.043-.256-.077-.467-.14-.664a1.76 1.76 0 00-.319-.582l-.002.001-.003.002zm-.607.455c.081.165.16.382.217.607.057.225.094.458.088.654a.489.489 0 00-.155.094c-.054.044-.11.094-.164.134l.003.077.002.073c.064-.031.134-.093.202-.15a.622.622 0 01.196-.127 2.63 2.63 0 00-.112-.741 2.818 2.818 0 00-.257-.639l-.01.01-.01.008zm-.683.276c.102.216.19.404.252.613.062.21.096.442.086.745-.073.051-.14.098-.206.142-.07.046-.142.087-.216.124l.002.067.002.07c.102-.043.184-.09.263-.14.08-.049.154-.102.238-.161a2.24 2.24 0 00-.102-.797c-.07-.224-.173-.426-.287-.671l-.016.004a.308.308 0 01-.016.004zM75.36 21.7v.413a1.462 1.462 0 01-.275-.003.521.521 0 01-.225-.07c.032.084.117.133.224.157.108.025.238.026.36.017v-.507a1.45 1.45 0 00-.084-.007zm3.966-1.315c.13.17.238.35.331.62.093.27.173.63.246 1.162a1.463 1.463 0 01-.21.108 5.87 5.87 0 01-.22.085l.003.066v.065c.09-.033.177-.064.262-.099.086-.034.17-.075.248-.124-.08-.584-.168-.962-.273-1.24a2.083 2.083 0 00-.385-.642h-.002v-.001zm-3.622 1.1c.18-.003.334.02.455.064.12.045.207.111.25.195a.668.668 0 00-.284-.128 1.528 1.528 0 00-.421-.026v-.106zm-1.292.377c-.005-.16.1-.296.303-.39.204-.097.509-.154.906-.156v.102c-.37.01-.654.07-.844.164-.19.096-.286.227-.282.38a.65.65 0 00.02.145.485.485 0 00.05.12.437.437 0 01-.11-.156.582.582 0 01-.043-.21zm-.829.486a.679.679 0 01-.198-.52c.012-.398.301-.605.69-.712.388-.106.876-.113 1.285-.11v-.135h.083v.236c-.41-.002-.897.004-1.286.11-.388.107-.677.313-.689.712a.774.774 0 00.027.23c.02.07.05.133.088.19zm-.45.042c.208.222.54.386.931.492.423.11.86.16 1.296.15v-.156h.083v.256c-.483.009-.97-.05-1.38-.172-.412-.125-.748-.314-.93-.57zm4.253-.919a.68.68 0 01.12.386c.011.347-.187.594-.513.76-.327.167-.783.253-1.286.28l.001.053v.053c.523-.021.998-.104 1.341-.271.343-.167.552-.417.54-.774a.736.736 0 00-.057-.27.683.683 0 00-.146-.217zm-1.763 1.268v-.048l-.002-.05a6.102 6.102 0 01-1.016-.097c-.265-.055-.457-.137-.58-.256.097.152.274.257.538.328.265.07.616.107 1.06.123zm2.585-.621c.036.158.051.28.053.389a1.69 1.69 0 01-.027.31 13.937 13.937 0 01-1.117.22 5.91 5.91 0 01-.392.1c-.144.032-.3.063-.47.096.35-.019.697-.055 1.042-.11.343-.055.683-.123 1.02-.205.02-.126.033-.237.025-.372a2.482 2.482 0 00-.1-.516l-.016.044-.018.044zm.264-1.585c.235.303.385.652.477 1.003.092.35.126.7.126 1a1.32 1.32 0 00-.222.067c-.074.027-.148.058-.223.085l-.01.066-.013.068c.093-.025.186-.063.277-.099a1.54 1.54 0 01.274-.085c0-.318-.038-.691-.142-1.06a2.681 2.681 0 00-.544-1.046zM75.616.715c1.922 0 3.744.448 5.368 1.247a12.48 12.48 0 014.187 3.347 12.473 12.473 0 00-4.163-3.274A12.137 12.137 0 0075.699.818c-3.404 0-6.493 1.405-8.731 3.671a12.557 12.557 0 00-3.626 8.843 12.575 12.575 0 002.802 7.922 12.565 12.565 0 01-2.885-8.023 12.56 12.56 0 013.626-8.844c2.238-2.266 5.327-3.671 8.73-3.671zm9.015 5.048a11.85 11.85 0 012.64 7.467c0 3.25-1.308 6.2-3.418 8.338-2.112 2.138-5.025 3.463-8.233 3.463a11.444 11.444 0 01-5.003-1.147 11.762 11.762 0 01-3.925-3.085 11.773 11.773 0 003.95 3.158 11.441 11.441 0 005.061 1.175c3.209 0 6.122-1.325 8.233-3.463a11.841 11.841 0 003.419-8.338 11.859 11.859 0 00-.725-4.094 11.876 11.876 0 00-1.999-3.474zm-.273 1.465a.451.451 0 01.054.324.483.483 0 01-.174.284l.036.053.037.056a.483.483 0 00.17-.529.45.45 0 00-.123-.188zm.645 1.007a.448.448 0 01.042.34.482.482 0 01-.2.277l.029.057.03.06a.483.483 0 00.22-.281.453.453 0 00-.127-.465c0 .003.002.005.003.007l.003.005zm.497 1.166a.446.446 0 01.005.335.48.48 0 01-.22.252l.021.058.023.062a.481.481 0 00.252-.252.453.453 0 00-.111-.515l.016.03.014.03zm.365 1.208a.457.457 0 01-.03.327.49.49 0 01-.24.225l.016.06.015.06a.476.476 0 00.278-.22.452.452 0 00-.088-.563c.02.034.037.072.05.11zm.331 2.525a.45.45 0 01-.11.294.477.477 0 01-.271.154l-.004.109c.122 0 .24-.047.329-.132a.45.45 0 00.097-.516.478.478 0 00-.113-.157.449.449 0 01.072.247zm-.054 1.165a.447.447 0 01-.14.276.473.473 0 01-.28.124l-.007.048-.008.051a.473.473 0 00.462-.227.447.447 0 00.027-.393.489.489 0 00-.124-.183.46.46 0 01.07.304zm-.252 1.259a.445.445 0 01-.167.254.473.473 0 01-.286.093 5.393 5.393 0 00-.012.043l-.013.045a.474.474 0 00.485-.171.461.461 0 00.065-.416.492.492 0 00-.134-.21.49.49 0 01.061.362zm-.803 2.461a.443.443 0 01-.215.205.47.47 0 01-.291.03l-.016.03-.017.03a.473.473 0 00.51-.053.443.443 0 00.112-.14.49.49 0 00-.109-.569.493.493 0 01.026.467zm-.63 1.058a.437.437 0 01-.234.177.47.47 0 01-.291-.002l-.015.022a.908.908 0 00-.016.022.472.472 0 00.512.008.442.442 0 00.127-.126.476.476 0 00.07-.324.481.481 0 00-.15-.293.496.496 0 01.072.257.47.47 0 01-.075.258zm-.75.993a.437.437 0 01-.25.149.47.47 0 01-.288-.035l-.014.014-.013.016c.093.08.213.12.335.114a.438.438 0 00.314-.157.477.477 0 00.107-.338.477.477 0 00-.153-.321.494.494 0 01-.037.559zm-.836.948a.435.435 0 01-.267.118.47.47 0 01-.28-.068.106.106 0 01-.01.008l-.01.009a.475.475 0 00.498.128.437.437 0 00.152-.094.474.474 0 00.145-.33.476.476 0 00-.122-.34.03.03 0 01-.004.006l-.004.004a.492.492 0 01-.098.56zm-1.023.814a.435.435 0 01-.278.086.472.472 0 01-.271-.102l-.004.003-.004.003c.072.1.18.168.3.19a.435.435 0 00.34-.08.474.474 0 00.183-.31.477.477 0 00-.083-.351l-.01.01-.011.008a.49.49 0 01-.162.543zm-1.023.72a.431.431 0 01-.276.054.47.47 0 01-.254-.12.49.49 0 00.275.21.434.434 0 00.475-.164.471.471 0 00.08-.165.475.475 0 00-.041-.359l-.018.013-.018.012a.493.493 0 01-.027.296.465.465 0 01-.196.225v-.001zm-1.076.525a.432.432 0 01-.255.027.463.463 0 01-.225-.116.469.469 0 00.247.2.434.434 0 00.316-.01.47.47 0 00.248-.259.479.479 0 000-.362l-.025.014-.025.013a.492.492 0 01-.06.292.461.461 0 01-.222.201zm-1.193.433a.43.43 0 01-.23.003.46.46 0 01-.197-.108c.053.086.13.152.22.19a.432.432 0 00.451-.07.48.48 0 00.158-.501l-.033.013-.033.011a.49.49 0 01-.336.462zm-1.288.293a.455.455 0 01-.373-.114.476.476 0 00.194.177.43.43 0 00.432-.03.477.477 0 00.214-.478l-.04.01-.039.01a.493.493 0 01-.123.277.462.462 0 01-.265.148z" fill="#005DED"/><path d="M128.659 0v26.462" stroke="#828282"/><path fill-rule="evenodd" clip-rule="evenodd" d="M110.845 43H0V31.091h110.845v11.907z" fill="#DC4E25"/><path d="M45.934 38.627a1.462 1.462 0 00-.05-.395.72.72 0 00-.202-.34 1.091 1.091 0 00-.435-.243c-.185-.061-.44-.09-.766-.09h-1.429v2.133h1.43c.246 0 .47-.03.668-.092.198-.06.348-.135.453-.228a.935.935 0 00.33-.745zm2.33-.06c0 .408-.08.783-.243 1.126-.152.33-.381.619-.668.841a3.14 3.14 0 01-1.113.568c-.382.104-.853.154-1.398.154H40.81v-8.38h6.79v1.621h-4.547V36h1.825c.612 0 1.108.041 1.495.126.372.078.723.236 1.029.463.292.218.519.513.655.853.136.344.207.719.207 1.124zm7.167.623c.223-.265.39-.571.49-.902.104-.348.158-.755.158-1.224 0-.503-.061-.93-.186-1.285a2.38 2.38 0 00-.475-.855 1.801 1.801 0 00-.69-.49 2.247 2.247 0 00-1.618-.004 1.854 1.854 0 00-.695.481c-.197.211-.356.503-.479.872a4.02 4.02 0 00-.185 1.285c0 .5.057.924.18 1.273.119.354.274.64.471.86.193.222.426.385.686.49a2.23 2.23 0 001.658 0 1.87 1.87 0 00.685-.502zm2.987-2.121c0 1.336-.4 2.398-1.196 3.182-.801.786-1.904 1.18-3.312 1.18-1.402 0-2.506-.394-3.302-1.18-.8-.784-1.201-1.846-1.201-3.182 0-1.347.4-2.412 1.2-3.196.797-.78 1.9-1.172 3.303-1.172s2.502.39 3.303 1.173c.805.783 1.205 1.848 1.205 3.195zm6.605-1.499a.976.976 0 00-.198-.61 1.113 1.113 0 00-.468-.358 2.144 2.144 0 00-.685-.148 19.804 19.804 0 00-.892-.013h-.387v2.505h.646c.382 0 .698-.024.946-.069a1.36 1.36 0 00.623-.269c.146-.121.25-.263.317-.428a1.69 1.69 0 00.097-.61zm2.328-.047c0 .374-.069.74-.206 1.098-.126.34-.326.649-.585.903a3.606 3.606 0 01-1.164.748c-.431.17-.964.253-1.601.253h-1.402v2.73h-2.257v-8.38h3.711c.555 0 1.026.047 1.407.137a3.38 3.38 0 011.012.416c.352.221.62.502.804.849.19.343.281.76.281 1.246zm7.108 3.666c.22-.254.382-.556.488-.901.104-.348.158-.755.158-1.224 0-.503-.061-.93-.18-1.285a2.527 2.527 0 00-.475-.855 1.84 1.84 0 00-.69-.49 2.26 2.26 0 00-1.623-.004c-.265.106-.502.27-.695.481-.193.211-.357.503-.48.872-.123.37-.184.796-.184 1.285 0 .5.061.924.18 1.273.119.354.277.64.47.86.199.222.428.385.69.49a2.226 2.226 0 001.654 0c.263-.108.492-.277.686-.502h.001zm2.989-2.12c0 1.336-.4 2.398-1.2 3.182-.797.786-1.9 1.18-3.307 1.18s-2.506-.394-3.307-1.18c-.8-.784-1.195-1.846-1.195-3.182 0-1.347.395-2.412 1.195-3.196.801-.78 1.9-1.172 3.307-1.172 1.399 0 2.502.39 3.302 1.173.8.783 1.204 1.848 1.204 3.195h.001zm6.857 1.587c0-.268-.053-.471-.163-.618-.106-.143-.29-.25-.545-.322a3.014 3.014 0 00-.73-.08c-.308-.001-.63-.005-.963-.005h-.493v2.087h.163c.633 0 1.086-.001 1.358-.003.26 0 .516-.05.756-.148.234-.094.396-.219.484-.374a1.07 1.07 0 00.133-.537zm-.547-3.41a.925.925 0 00-.11-.419.678.678 0 00-.381-.307 1.894 1.894 0 00-.617-.1 50.273 50.273 0 00-1.028-.008h-.211v1.774h.351c.355 0 .66-.007.91-.017.252-.013.45-.049.595-.114.2-.087.334-.199.394-.335a1.05 1.05 0 00.097-.475zm2.885 3.444a2.23 2.23 0 01-.954 1.879 3.39 3.39 0 01-1.133.53c-.414.105-.938.157-1.576.157h-3.81v-8.38h3.39c.708 0 1.221.023 1.548.068.326.042.65.144.972.298.333.16.58.378.742.65.163.271.243.582.243.932 0 .404-.11.76-.336 1.071-.223.309-.536.55-.946.723v.046c.572.108 1.026.333 1.36.674.335.343.5.793.5 1.351v.001zm6.28-.665l-1.078-3.001-1.076 3.002h2.154zm3.479 3.23H94.07l-.608-1.694h-3.236l-.607 1.694h-2.273l3.229-8.38h2.594l3.232 8.38zm6.336-4.58v-2.258h-1.114c-.342 0-.601.01-.787.033-.185.02-.366.092-.536.215a.908.908 0 00-.304.37c-.07.159-.106.33-.104.504 0 .189.035.362.109.514.076.152.179.276.311.373.152.114.326.184.524.21.203.026.47.039.796.039h1.105zm2.242 4.581h-2.242v-3.073h-1.223l-2.203 3.073h-2.674l2.612-3.47c-.528-.22-.942-.526-1.24-.926-.3-.398-.449-.917-.449-1.564 0-.427.097-.8.294-1.12a2.59 2.59 0 01.757-.782c.264-.177.59-.307.971-.39a6.02 6.02 0 011.311-.127h4.086v8.38z" fill="#FEFEFE"/><path d="M45.936 38.627a1.458 1.458 0 00-.05-.395.719.719 0 00-.202-.34 1.093 1.093 0 00-.435-.244c-.185-.06-.44-.09-.766-.09h-1.428v2.133h1.429c.247 0 .47-.029.668-.091.198-.06.347-.136.453-.229a.938.938 0 00.247-.325 1.02 1.02 0 00.084-.42zm2.33-.06c0 .408-.08.782-.242 1.126a2.264 2.264 0 01-.669.841 3.15 3.15 0 01-1.112.568c-.383.104-.853.153-1.399.153h-4.032v-8.38h6.79v1.621h-4.547V36h1.825c.611 0 1.108.042 1.495.126.387.086.73.24 1.03.464.298.227.518.511.655.852.14.358.21.74.207 1.125h-.001zm7.168.622a2.56 2.56 0 00.49-.901c.104-.348.158-.756.158-1.225 0-.503-.062-.93-.186-1.285a2.386 2.386 0 00-.475-.855 1.802 1.802 0 00-.69-.49 2.246 2.246 0 00-1.618-.004 1.865 1.865 0 00-.696.482c-.198.21-.356.502-.479.871-.124.37-.184.797-.184 1.286 0 .5.057.923.18 1.273.119.354.273.64.47.86.193.222.426.385.687.49a2.228 2.228 0 001.658-.001c.264-.112.498-.283.685-.5zm2.986-2.121c0 1.336-.4 2.398-1.195 3.182-.8.786-1.905 1.18-3.313 1.18-1.402 0-2.506-.394-3.303-1.18-.8-.784-1.2-1.846-1.2-3.182 0-1.347.4-2.412 1.2-3.195.797-.782 1.9-1.173 3.303-1.173 1.404 0 2.502.39 3.303 1.173.805.783 1.205 1.848 1.205 3.195zm6.606-1.498a.974.974 0 00-.198-.61 1.114 1.114 0 00-.468-.358 2.152 2.152 0 00-.684-.148 19.978 19.978 0 00-.893-.014h-.387v2.505h.647c.381 0 .698-.023.945-.068a1.37 1.37 0 00.624-.27c.145-.12.25-.262.317-.428.065-.166.097-.372.097-.609zm2.33-.048c0 .375-.07.741-.207 1.1a2.44 2.44 0 01-.586.901 3.602 3.602 0 01-1.163.749c-.432.17-.965.253-1.602.253h-1.401v2.73H60.14v-8.38h3.712c.554 0 1.026.046 1.406.136.358.083.7.223 1.012.416.352.221.62.503.805.85.19.342.28.758.28 1.245zm7.107 3.667c.224-.263.39-.57.488-.901.105-.348.159-.756.159-1.225 0-.503-.062-.93-.181-1.285a2.522 2.522 0 00-.475-.855 1.83 1.83 0 00-.691-.49 2.263 2.263 0 00-1.622-.004 1.9 1.9 0 00-.695.481c-.194.212-.357.503-.48.872a4.07 4.07 0 00-.185 1.286c0 .5.062.923.182 1.273.119.354.276.64.47.86.198.222.427.385.69.49a2.198 2.198 0 001.654-.001c.265-.11.5-.281.686-.5zm2.99-2.121c0 1.336-.4 2.398-1.2 3.182-.797.786-1.9 1.18-3.308 1.18-1.407 0-2.506-.394-3.307-1.18-.8-.784-1.196-1.846-1.196-3.182 0-1.347.396-2.412 1.196-3.195.801-.782 1.9-1.173 3.307-1.173 1.4 0 2.503.39 3.302 1.173.8.783 1.206 1.848 1.206 3.195zm6.855 1.587c0-.268-.052-.47-.162-.617-.106-.143-.29-.25-.546-.322a3.008 3.008 0 00-.73-.08c-.307-.002-.63-.005-.962-.005h-.493v2.087h.163c.633 0 1.086-.002 1.358-.004.26 0 .516-.05.756-.148.235-.093.397-.218.485-.373a1.08 1.08 0 00.131-.538zm-.545-3.41a.929.929 0 00-.11-.419.676.676 0 00-.382-.307 1.91 1.91 0 00-.617-.099c-.342-.007-.685-.01-1.028-.01h-.211v1.776h.351c.355 0 .66-.007.91-.018.252-.013.45-.048.595-.114.2-.087.334-.199.394-.334a1.07 1.07 0 00.098-.475zm2.884 3.444a2.232 2.232 0 01-.954 1.879 3.374 3.374 0 01-1.133.53c-.414.106-.938.157-1.576.157h-3.811v-8.38h3.39c.708 0 1.222.023 1.548.068.325.042.65.144.972.298.333.16.58.378.742.65.163.271.242.582.242.932 0 .404-.109.76-.335 1.072-.223.309-.535.55-.945.723v.046c.571.107 1.026.332 1.359.674.335.342.501.792.501 1.351zm6.282-.664l-1.078-3.002-1.077 3.002h2.155zm3.478 3.23h-2.33l-.609-1.695h-3.236l-.608 1.695h-2.272l3.228-8.38h2.594l3.233 8.38zm6.337-4.582v-2.257h-1.114c-.342 0-.601.01-.787.032-.195.024-.38.098-.536.216a.916.916 0 00-.304.37 1.21 1.21 0 00-.104.504c0 .189.035.362.109.514.076.152.179.276.312.373.151.114.326.184.523.21.203.026.471.038.796.038h1.105zm2.242 4.582h-2.242v-3.073h-1.223l-2.203 3.073h-2.674l2.613-3.472c-.53-.217-.943-.524-1.24-.924-.3-.399-.45-.918-.45-1.564 0-.427.097-.8.294-1.12a2.57 2.57 0 01.756-.782 2.82 2.82 0 01.972-.391c.384-.086.82-.127 1.312-.127h4.085v8.38z" fill="#FEFEFE"/><defs><linearGradient id="paint0_linear" x1="164.808" y1="4.241" x2="164.808" y2="21.956" gradientUnits="userSpaceOnUse"><stop stop-color="#E3D09A"/><stop offset=".08" stop-color="#F1E7CB"/><stop offset="1"/></linearGradient><linearGradient id="paint1_linear" x1="145.767" y1="15.614" x2="163.126" y2="22.89" gradientUnits="userSpaceOnUse"><stop offset=".4" stop-color="#504831"/><stop offset=".65" stop-color="#403D33"/><stop offset=".89" stop-color="#232321"/><stop offset="1"/></linearGradient><linearGradient id="paint2_linear" x1="180.792" y1="17.275" x2="163.789" y2="17.275" gradientUnits="userSpaceOnUse"><stop/><stop offset=".23" stop-color="#282417"/><stop offset=".4" stop-color="#322D1C"/><stop offset=".65" stop-color="#292721"/><stop offset=".89" stop-color="#171716"/><stop offset="1"/></linearGradient><linearGradient id="paint3_linear" x1="164.273" y1="6.506" x2="164.273" y2="21.809" gradientUnits="userSpaceOnUse"><stop stop-color="#fff"/><stop offset=".52" stop-color="#F0E4C0"/><stop offset="1" stop-color="#D6BF8E"/></linearGradient><linearGradient id="paint4_linear" x1="163.477" y1="20.862" x2="163.477" y2="6.693" gradientUnits="userSpaceOnUse"><stop stop-color="#F0E4D0"/><stop offset=".18" stop-color="#D3BE98"/><stop offset=".34" stop-color="#938066"/><stop offset=".59" stop-color="#6F5E4A"/><stop offset=".68" stop-color="#CEB58B"/><stop offset=".76" stop-color="#E8D8B2"/><stop offset=".85" stop-color="#ECDDAB"/><stop offset=".95" stop-color="#D3B78B"/><stop offset="1" stop-color="#362A21"/></linearGradient><linearGradient id="paint5_linear" x1="163.772" y1="20.836" x2="163.772" y2="6.808" gradientUnits="userSpaceOnUse"><stop stop-color="#7D6D58"/><stop offset="1" stop-color="#282319"/></linearGradient><linearGradient id="paint6_linear" x1="155.504" y1="9.762" x2="150.567" y2="7.609" gradientUnits="userSpaceOnUse"><stop stop-color="#6D6D75"/><stop offset="1" stop-color="#889095"/></linearGradient><linearGradient id="paint7_linear" x1="155.059" y1="9.132" x2="152.043" y2="7.989" gradientUnits="userSpaceOnUse"><stop stop-color="#878C83"/><stop offset="1" stop-color="#C1C8CF"/></linearGradient><linearGradient id="paint8_linear" x1="176.298" y1="13.458" x2="176.295" y2="13.413" gradientUnits="userSpaceOnUse"><stop offset=".13" stop-color="#3F80C2"/><stop offset="1" stop-color="#006EB5"/></linearGradient><linearGradient id="paint9_linear" x1="174.836" y1="14.707" x2="176.072" y2="16.784" gradientUnits="userSpaceOnUse"><stop offset=".12" stop-color="#ADD3F3"/><stop offset=".34" stop-color="#8FC2EC"/><stop offset=".83" stop-color="#319CDB"/><stop offset="1" stop-color="#0090D4"/></linearGradient><linearGradient id="paint10_linear" x1="-61891.9" y1="-501.47" x2="-61891.9" y2="-501.578" gradientUnits="userSpaceOnUse"><stop offset=".13" stop-color="#3F80C2"/><stop offset="1" stop-color="#006EB5"/></linearGradient><linearGradient id="paint11_linear" x1="154.012" y1="15.278" x2="155.665" y2="17.172" gradientUnits="userSpaceOnUse"><stop stop-color="#ADD3F3"/><stop offset=".25" stop-color="#8FC2EC"/><stop offset=".8" stop-color="#319CDB"/><stop offset="1" stop-color="#0090D4"/></linearGradient><linearGradient id="paint12_linear" x1="164.257" y1="18.167" x2="160.429" y2="14.51" gradientUnits="userSpaceOnUse"><stop stop-color="#777780"/><stop offset="1" stop-color="#A2ABB1"/></linearGradient><linearGradient id="paint13_linear" x1="161.11" y1="16.98" x2="167.711" y2="16.98" gradientUnits="userSpaceOnUse"><stop stop-color="#9EA399"/><stop offset="1" stop-color="#CAD2D9"/></linearGradient><linearGradient id="paint14_linear" x1="160.931" y1="9.666" x2="165.016" y2="9.666" gradientUnits="userSpaceOnUse"><stop stop-color="#BBD7F3"/><stop offset="1" stop-color="#8FC3ED"/></linearGradient><linearGradient id="paint15_linear" x1="-33876.2" y1="-3164.75" x2="-33933.9" y2="-3207.4" gradientUnits="userSpaceOnUse"><stop stop-color="#6D6D75"/><stop offset="1" stop-color="#889095"/></linearGradient><linearGradient id="paint16_linear" x1="-24870.1" y1="-962.479" x2="-24902.7" y2="-994.881" gradientUnits="userSpaceOnUse"><stop stop-color="#878C83"/><stop offset="1" stop-color="#C1C8CF"/></linearGradient><linearGradient id="paint17_linear" x1="164.223" y1="13.3" x2="178.995" y2="13.3" gradientUnits="userSpaceOnUse"><stop stop-color="#635437"/><stop offset=".16" stop-color="#5E523B"/><stop offset=".49" stop-color="#504C41"/><stop offset=".5" stop-color="#504C41"/><stop offset="1" stop-color="#322D1C"/></linearGradient><linearGradient id="paint18_linear" x1="148.943" y1="12.184" x2="179.889" y2="12.184" gradientUnits="userSpaceOnUse"><stop stop-color="#332E1D"/><stop offset=".03" stop-color="#60563B"/><stop offset=".05" stop-color="#7A6D4C"/><stop offset=".07" stop-color="#847652"/><stop offset=".43" stop-color="#5A543F"/><stop offset=".95" stop-color="#443F2F"/><stop offset="1" stop-color="#252320"/></linearGradient><linearGradient id="paint19_linear" x1="171.665" y1="11.864" x2="169.373" y2="11.864" gradientUnits="userSpaceOnUse"><stop stop-color="#3C392A"/><stop offset=".09" stop-color="#69634E"/><stop offset=".2" stop-color="#9D9277"/><stop offset=".31" stop-color="#C4B595"/><stop offset=".41" stop-color="#DFCCAB"/><stop offset=".48" stop-color="#F0DAB8"/><stop offset=".53" stop-color="#F5DFBC"/><stop offset=".61" stop-color="#DDCAAB"/><stop offset=".79" stop-color="#9B917B"/><stop offset="1" stop-color="#423E33"/></linearGradient><linearGradient id="paint20_linear" x1="170.55" y1="12.155" x2="170.55" y2="6.281" gradientUnits="userSpaceOnUse"><stop offset=".25" stop-color="#DAC9AD"/><stop offset=".44" stop-color="#FBEFD6"/><stop offset=".7" stop-color="#DFCFB7"/><stop offset="1" stop-color="#BAA791"/></linearGradient><linearGradient id="paint21_linear" x1="171.047" y1="11.562" x2="171.047" y2="6.281" gradientUnits="userSpaceOnUse"><stop offset=".06" stop-color="#AF9C83"/><stop offset=".44" stop-color="#C1A983"/><stop offset=".59" stop-color="#AA967A"/><stop offset=".91" stop-color="#6E6258"/><stop offset="1" stop-color="#5C524B"/></linearGradient><linearGradient id="paint22_linear" x1="170.705" y1="6.603" x2="170.705" y2="11.023" gradientUnits="userSpaceOnUse"><stop offset=".06" stop-color="#E2CAA7"/><stop offset=".14" stop-color="#E9D4B4"/><stop offset=".32" stop-color="#F6E8CD"/><stop offset=".44" stop-color="#FBEFD6"/><stop offset="1" stop-color="#E5D1B4"/></linearGradient><linearGradient id="paint23_linear" x1="171.945" y1="6.866" x2="170.277" y2="6.866" gradientUnits="userSpaceOnUse"><stop stop-color="#3C392A"/><stop offset=".09" stop-color="#66604B"/><stop offset=".2" stop-color="#91886D"/><stop offset=".31" stop-color="#AEA285"/><stop offset=".41" stop-color="#C0B294"/><stop offset=".48" stop-color="#CABA9D"/><stop offset=".53" stop-color="#CEBDA0"/><stop offset=".61" stop-color="#BFB195"/><stop offset=".79" stop-color="#908772"/><stop offset="1" stop-color="#423E33"/></linearGradient><linearGradient id="paint24_linear" x1="-3688.56" y1="15.9" x2="-3676.07" y2="15.9" gradientUnits="userSpaceOnUse"><stop stop-color="#3C392A"/><stop offset=".09" stop-color="#69634E"/><stop offset=".2" stop-color="#9D9277"/><stop offset=".31" stop-color="#C4B595"/><stop offset=".41" stop-color="#DFCCAB"/><stop offset=".48" stop-color="#F0DAB8"/><stop offset=".53" stop-color="#F5DFBC"/><stop offset=".61" stop-color="#DDCAAB"/><stop offset=".79" stop-color="#9B917B"/><stop offset="1" stop-color="#423E33"/></linearGradient><linearGradient id="paint25_linear" x1="-209.006" y1="-16766.4" x2="-192.733" y2="-16833.6" gradientUnits="userSpaceOnUse"><stop offset=".06" stop-color="#AF9C83"/><stop offset=".44" stop-color="#C1A983"/><stop offset=".59" stop-color="#AA967A"/><stop offset=".91" stop-color="#6E6258"/><stop offset="1" stop-color="#5C524B"/></linearGradient><linearGradient id="paint26_linear" x1="47.574" y1="-16773.6" x2="47.574" y2="-16837.5" gradientUnits="userSpaceOnUse"><stop offset=".25" stop-color="#DAC9AD"/><stop offset=".44" stop-color="#FBEFD6"/><stop offset=".7" stop-color="#DFCFB7"/><stop offset="1" stop-color="#BAA791"/></linearGradient><linearGradient id="paint27_linear" x1="31.392" y1="-16833.6" x2="31.392" y2="-16780.1" gradientUnits="userSpaceOnUse"><stop offset=".06" stop-color="#E2CAA7"/><stop offset=".14" stop-color="#E9D4B4"/><stop offset=".32" stop-color="#F6E8CD"/><stop offset=".44" stop-color="#FBEFD6"/><stop offset="1" stop-color="#E5D1B4"/></linearGradient><linearGradient id="paint28_linear" x1="-1573.02" y1="-31.296" x2="-1566.35" y2="-31.296" gradientUnits="userSpaceOnUse"><stop stop-color="#3C392A"/><stop offset=".09" stop-color="#66604B"/><stop offset=".2" stop-color="#91886D"/><stop offset=".31" stop-color="#AEA285"/><stop offset=".41" stop-color="#C0B294"/><stop offset=".48" stop-color="#CABA9D"/><stop offset=".53" stop-color="#CEBDA0"/><stop offset=".61" stop-color="#BFB195"/><stop offset=".79" stop-color="#908772"/><stop offset="1" stop-color="#423E33"/></linearGradient><linearGradient id="paint29_linear" x1="159.328" y1="19.078" x2="157.631" y2="18.707" gradientUnits="userSpaceOnUse"><stop stop-color="#3C392A"/><stop offset=".09" stop-color="#66604B"/><stop offset=".2" stop-color="#91886D"/><stop offset=".31" stop-color="#AEA285"/><stop offset=".41" stop-color="#C0B294"/><stop offset=".48" stop-color="#CABA9D"/><stop offset=".53" stop-color="#CEBDA0"/><stop offset=".65" stop-color="#C2B294"/><stop offset=".9" stop-color="#978B6F"/><stop offset="1" stop-color="#80765C"/></linearGradient><linearGradient id="paint30_linear" x1="157.564" y1="18.826" x2="157.564" y2="13.526" gradientUnits="userSpaceOnUse"><stop offset=".06" stop-color="#BAA68A"/><stop offset=".1" stop-color="#C4B195"/><stop offset=".25" stop-color="#E2D2B7"/><stop offset=".36" stop-color="#F4E7CD"/><stop offset=".44" stop-color="#FBEFD6"/><stop offset=".7" stop-color="#DFCFB7"/><stop offset="1" stop-color="#BAA791"/></linearGradient><linearGradient id="paint31_linear" x1="-257.476" y1="-15923.7" x2="-257.476" y2="-15983.1" gradientUnits="userSpaceOnUse"><stop offset=".06" stop-color="#AF9C83"/><stop offset=".44" stop-color="#C1A983"/><stop offset=".59" stop-color="#AA967A"/><stop offset=".91" stop-color="#6E6258"/><stop offset="1" stop-color="#5C524B"/></linearGradient><linearGradient id="paint32_linear" x1="-260.001" y1="-15921.2" x2="-260.001" y2="-15983.7" gradientUnits="userSpaceOnUse"><stop offset=".25" stop-color="#DAC9AD"/><stop offset=".44" stop-color="#FBEFD6"/><stop offset=".7" stop-color="#DFCFB7"/><stop offset="1" stop-color="#BAA791"/></linearGradient><linearGradient id="paint33_linear" x1="165.235" y1="-15921.2" x2="165.235" y2="-15983.7" gradientUnits="userSpaceOnUse"><stop offset=".06" stop-color="#E2CAA7"/><stop offset=".14" stop-color="#E9D4B4"/><stop offset=".32" stop-color="#F6E8CD"/><stop offset=".44" stop-color="#FBEFD6"/><stop offset="1" stop-color="#E5D1B4"/></linearGradient><linearGradient id="paint34_linear" x1="-257.476" y1="-15923.7" x2="-257.476" y2="-15983.1" gradientUnits="userSpaceOnUse"><stop offset=".06" stop-color="#AF9C83"/><stop offset=".44" stop-color="#C1A983"/><stop offset=".59" stop-color="#AA967A"/><stop offset=".91" stop-color="#6E6258"/><stop offset="1" stop-color="#5C524B"/></linearGradient><linearGradient id="paint35_linear" x1="157.782" y1="14.055" x2="159.895" y2="14.055" gradientUnits="userSpaceOnUse"><stop stop-color="#333024"/><stop offset=".53" stop-color="#57492A"/><stop offset=".75" stop-color="#48402C"/><stop offset="1" stop-color="#2F2C21"/></linearGradient><linearGradient id="paint36_linear" x1="-1548.06" y1="20.703" x2="-1550.99" y2="23.225" gradientUnits="userSpaceOnUse"><stop stop-color="#3C392A"/><stop offset=".09" stop-color="#66604B"/><stop offset=".2" stop-color="#91886D"/><stop offset=".31" stop-color="#AEA285"/><stop offset=".41" stop-color="#C0B294"/><stop offset=".48" stop-color="#CABA9D"/><stop offset=".53" stop-color="#CEBDA0"/><stop offset=".65" stop-color="#C2B294"/><stop offset=".9" stop-color="#978B6F"/><stop offset="1" stop-color="#80765C"/></linearGradient><linearGradient id="paint37_linear" x1="-185.735" y1="-15921.2" x2="-185.735" y2="-15983.7" gradientUnits="userSpaceOnUse"><stop offset=".06" stop-color="#BAA68A"/><stop offset=".1" stop-color="#C4B195"/><stop offset=".25" stop-color="#E2D2B7"/><stop offset=".36" stop-color="#F4E7CD"/><stop offset=".44" stop-color="#FBEFD6"/><stop offset=".7" stop-color="#DFCFB7"/><stop offset="1" stop-color="#BAA791"/></linearGradient><linearGradient id="paint38_linear" x1="-170.108" y1="-15923.7" x2="-170.108" y2="-15983.1" gradientUnits="userSpaceOnUse"><stop offset=".06" stop-color="#AF9C83"/><stop offset=".44" stop-color="#C1A983"/><stop offset=".59" stop-color="#AA967A"/><stop offset=".91" stop-color="#6E6258"/><stop offset="1" stop-color="#5C524B"/></linearGradient><linearGradient id="paint39_linear" x1="-185.735" y1="-15921.2" x2="-185.735" y2="-15983.7" gradientUnits="userSpaceOnUse"><stop offset=".06" stop-color="#AF9C83"/><stop offset=".44" stop-color="#C1A983"/><stop offset=".59" stop-color="#AA967A"/><stop offset=".91" stop-color="#6E6258"/><stop offset="1" stop-color="#5C524B"/></linearGradient><linearGradient id="paint40_linear" x1="185.336" y1="-15921.2" x2="185.336" y2="-15983.7" gradientUnits="userSpaceOnUse"><stop offset=".06" stop-color="#E2CAA7"/><stop offset=".14" stop-color="#E9D4B4"/><stop offset=".32" stop-color="#F6E8CD"/><stop offset=".44" stop-color="#FBEFD6"/><stop offset="1" stop-color="#E5D1B4"/></linearGradient><linearGradient id="paint41_linear" x1="-170.108" y1="-15923.7" x2="-170.108" y2="-15983.1" gradientUnits="userSpaceOnUse"><stop offset=".25" stop-color="#DAC9AD"/><stop offset=".44" stop-color="#FBEFD6"/><stop offset=".7" stop-color="#DFCFB7"/><stop offset="1" stop-color="#BAA791"/></linearGradient><linearGradient id="paint42_linear" x1="-2797.89" y1="7.374" x2="-2808.25" y2="7.374" gradientUnits="userSpaceOnUse"><stop stop-color="#333024"/><stop offset=".53" stop-color="#57492A"/><stop offset=".75" stop-color="#48402C"/><stop offset="1" stop-color="#2F2C21"/></linearGradient><linearGradient id="paint43_linear" x1="165.275" y1="11.436" x2="165.275" y2="14.28" gradientUnits="userSpaceOnUse"><stop stop-color="#DEC4A0"/><stop offset="1" stop-color="#FDE9D5"/></linearGradient></defs></svg>