<svg width="48" height="64" viewBox="0 0 48 64" fill="none" xmlns="http://www.w3.org/2000/svg"><path d="M13.867 61.046H41.6V64H13.867v-2.954z" fill="#141414"/><path d="M13.867 55.138h3.2V64h-3.2v-8.862z" fill="#141414"/><path d="M11.733 49.231h3.2v6.892h-3.2v-6.892zm-3.2-5.908h3.2v6.892h-3.2v-6.892zm-3.2-3.939h3.2v4.923h-3.2v-4.923zm-3.2-2.954h3.2v2.954h-3.2v-2.953z" fill="#141414"/><path d="M0 26.584h3.2v9.847H0v-9.846zm3.2 0h5.333v2.954H3.2v-2.954zm4.267 2.954h6.4v3.939h-6.4v-3.939z" fill="#141414"/><path d="M10.667 33.477h3.2v5.908h-3.2v-5.908zm0-31.508h3.2v27.57h-3.2V1.968z" fill="#141414"/><path d="M13.867 0H19.2v2.954h-5.333V0zM19.2 1.969h3.2v25.6h-3.2v-25.6zM22.4 12.8h6.4v2.954h-6.4V12.8z" fill="#141414"/><path d="M27.733 14.77h3.2v12.8h-3.2v-12.8zm3.201 0h5.333v2.953h-5.334V14.77zm4.266 2.953h6.4v2.954h-6.4v-2.954zm6.4 2.954h3.2V25.6h-3.2v-4.923z" fill="#141414"/><path d="M44.8 23.63H48v20.677h-3.2V23.631z" fill="#141414"/><path d="M41.6 43.323h3.2v8.862h-3.2v-8.862zM38.4 51.2h3.2v9.846h-3.2V51.2z" fill="#141414"/></svg>