<svg width="260" height="37" viewBox="0 0 260 37" fill="none" xmlns="http://www.w3.org/2000/svg"><g clip-path="url(#clip0_1187_44)"><path d="M99.86 6.062v9.48H88.78V6.067h-6.11V30.95h6.11V20.94h11.085v10.01h6.114V6.062h-6.12zm28.503 0l-6.393 9.853-6.382-9.853h-7.212l10.55 16.263v8.62h6.104v-8.62l10.55-16.263h-7.217zm26.861 0v18.234c0 .695-.535 1.25-1.294 1.25h-9.79V6.066h-6.11V30.95h18.05c1.605 0 2.9-.467 3.841-1.375.937-.912 1.413-2.162 1.413-3.713v-19.8h-6.11zm29.825 0h-18.055v24.883h6.099v-19.5h9.811c.787 0 1.284.601 1.284 1.245v18.255h6.11V11.149c0-1.556-.482-2.81-1.407-3.718-.953-.913-2.237-1.37-3.842-1.37zm28.964 0h-18.055v24.883h18.055c1.605 0 2.889-.467 3.825-1.375.947-.913 1.418-2.162 1.418-3.713V11.149c0-1.556-.471-2.81-1.418-3.718-.936-.913-2.225-1.37-3.825-1.37zm-.861 6.674V24.26c.006.168-.024.335-.087.492a1.248 1.248 0 01-.707.7c-.16.064-.333.096-.506.094h-9.796V11.45h9.753c.803 0 1.337.54 1.337 1.286h.006zm16.75-6.674c-1.605 0-2.9.456-3.836 1.369-.941.918-1.407 2.168-1.407 3.718v19.796h6.088v-7.697h11.096v7.697h6.104V6.062h-18.045zm11.941 5.388v6.41h-11.096v-5.155c0-.612.493-1.26 1.306-1.26l9.79.005zm12.048 19.495H260V6.062h-6.109v24.883zm-218.978 4.89c19.286 0 34.923-7.764 34.923-17.332 0-9.579-15.637-17.337-34.923-17.337C15.633 1.166 0 8.919 0 18.503 0 28.071 15.632 35.83 34.913 35.83v.005zm6.58-8.51c-.589 1.312-1.589 4.107-3.89 5.222a6.094 6.094 0 01-2.332.519h-.353c-6.441 0-12.444-.872-17.462-2.35l-.192-.072c-.466-.15-.701-.358-.701-.617 0-.218.123-.39.289-.55l.316-.27c1.166-.933 4.654-3.386 11.229-5.834 2.306-.85 5.194-1.914 8.217-2.536 1.77-.358 8.346-1.333 4.874 6.493l.005-.005zM59.131 9.853c.123-.208.29-.384.589-.4.16-.015.385.021.722.229 4.098 2.442 6.532 5.502 6.532 8.816 0 5.97-7.923 11.108-19.26 13.354-.727.14-1.214.135-1.374-.041-.118-.104-.15-.301 0-.54.084-.145.185-.28.3-.404 6.173-7.053 10.876-17.462 12.208-20.46.107-.207.203-.414.283-.554zm-30.686-.218c.588-1.307 1.589-4.102 3.89-5.212.695-.337 1.561-.498 2.326-.519h.348c6.452 0 12.444.861 17.472 2.35.038.015.156.051.193.072.46.15.696.358.696.612 0 .223-.123.39-.284.545a4.414 4.414 0 01-.321.27c-1.156.943-4.649 3.391-11.224 5.834-2.316.855-5.2 1.918-8.212 2.536-1.776.363-8.356 1.338-4.884-6.488zM22.12 5.133c.728-.134 1.21-.134 1.386.042.107.114.134.3-.005.534-.088.144-.19.28-.305.405-6.174 7.058-10.876 17.461-12.22 20.469a5.32 5.32 0 01-.283.55c-.118.207-.283.389-.578.404-.16.016-.39-.03-.732-.233-4.098-2.438-6.522-5.497-6.522-8.811 0-5.975 7.918-11.114 19.26-13.354" fill="#002E6B"/></g><defs><clipPath id="clip0_1187_44"><path fill="#fff" d="M0 0h260v37H0z"/></clipPath></defs></svg>