<svg width="166" height="51" viewBox="0 0 166 51" fill="none" xmlns="http://www.w3.org/2000/svg"><path fill-rule="evenodd" clip-rule="evenodd" d="M34.26 7.413h-6.953c-.546-.01-1.418.557-2.52 1.784L16.74 20.679c-3.648-.132-5.349.117-7.885 1.059C4.2 24.023 1.472 26.58.148 31.659c-1.15 7.692 4.6 9.252 10.294 3.846 2.027-2.063 3.04-3.325 4.709-5.685l3.669-6.076 4.27 1.338-2.135 8.862c-.493 3.4 1.15 5.685 5.257 5.518 2.947-.785 4.523-1.83 7.118-5.295 2.087-3.666 3.097-5.833 4.106-10.256h.602l-1.806 7.08c-1.405 4.824-1.689 6.862-.165 7.802 1.588.78 3.34.614 5.312-.836.262-.989.393-1.556.547-2.62-1.643 1.394-2.628 1.283-2.245-.445l2.574-10.479c.344-1.192.676-1.741 1.642-2.397.279-.24.206-.645-.164-.78H34.26c-.421.059-.506.213-.273.78 1.041.659 1.172 1.288 1.04 2.62-.913 3.45-1.676 5.224-3.34 8.194-2.793 3.01-5.53 4.18-4.764-.223l1.095-4.682c1.302 1.05 1.95 1.735 3.012 3.065l.657-2.62c-.938-1.143-1.627-1.808-2.957-3.01l3.121-12.875c.71-2.404 1.27-3.415 2.738-4.236.155-.567.13-.79-.329-.836zM6.226 32.273c2.13.168 4.142-2.602 7.995-8.417-6.956-.223-10.733 7.691-7.995 8.416zm20.411-21.717l-6.559 10.736 3.669 1.226c.445-1.72.902-3.38 1.328-4.928.764-2.778 1.429-5.197 1.755-6.96a.104.104 0 00-.193-.074z" fill="#141414"/><path d="M44.39 25.026l.602-2.396c3.942-2.62 7.282-2.286 6.406 1.505-1.368 5.521-2.62 10.16-2.683 11.537-.093 1.148.821.892 2.354-.334l-.711 2.73c-3.56 2.62-7.337 1.171-5.969-3.4l2.19-8.806c.33-1.505-.437-2.006-2.19-.836zm6.593-6.234c-1.403.635-2.908.308-3.362-.732-.455-1.039.315-2.396 1.718-3.031 1.403-.636 2.908-.308 3.362.732.454 1.039-.315 2.396-1.718 3.031z" fill="#141414"/><path fill-rule="evenodd" clip-rule="evenodd" d="M62.787 20.846l-2.355 1.895-.383 2.062c2.08-1.337 3.493-.167 2.793 3.902-.471 2.733-.93 4.163-2.245 6.465-2.136 2.899-3.997 2.174-3.286-2.564.83-4.559 1.479-7.278 2.902-12.373 4.545-1.003 8.652-3.679 9.966-9.03 1.04-5.406-3.942-6.13-8.159-2.564-3.177 3.477-4.716 6.018-6.79 12.207-2.19 8.148-2.892 12.038-1.86 16.052 1.477 2.843 5.584 3.81 9.472.446 4.38-3.79 7.118-16.721-.055-16.498zM60.87 18.56c2.39-6.412 3.812-9.083 5.958-9.602.493-.12 1.04.058 1.261.522 1.177 2.475-2.43 8.369-7.22 9.08zm18.946 4.125c.163-1.03.38-1.406 1.15-1.449h4.106c.602 0 .383.669 0 1.06-.552.307-.767.577-1.095 1.114L81.02 35.226c-.164 1.45.876 1.45 2.355.112l-.548 2.675c-3.011 2.062-6.132 1.784-6.296-1.393-3.012 3.734-7.01 3.4-8.05 0-.82-3.685-.054-6.076 1.643-10.256 2.41-5.128 7.666-6.744 9.692-3.679zm-2.602 9.509c.447-1.188.83-2.405 1.204-3.618.865-2.799.743-4.943-.53-4.977-1.127-.421-3.01 1.927-4.205 5.244-1.195 3.317-1.251 6.348-.124 6.769 1.212.615 2.694-.86 3.655-3.418z" fill="#141414"/><path d="M92.135 21.292H87.7c-.497.14-.472.333-.164.78.462.35.579.604.547 1.17-2.078 9.176-3.303 13.836-5.475 22.24-.774 2.519-1.444 3.4-2.957 4.069-.437.223-.547.669 0 .669h8.98c.493 0 .329-.223 0-.502-1.95-1.213-1.415-3.018-1.095-5.797l.084-.366c2.007-8.663 3.155-13.624 4.515-16.522 2.081-3.289 3.67-3.122 3.997-.613-.235 3.277-.686 4.977-1.971 7.747-1.532 2.118-2.409 1.226-1.862-.724l-1.752.501c-1.86 5.908 3.505 6.967 6.954 2.453 2.646-4.175 3.122-6.745 3.176-11.37-.547-4.85-5.475-5.352-8.268-1.171.453-1.635.63-2.464-.274-2.564zm16.208-.112h-4.38c-.767 0-.493.725-.219.836.457.363.675.593.492 1.394-.853 4.231-1.415 6.345-2.409 10.144-.36 1.438-.439 2.244-.164 3.679 1.424 3.511 6.571 2.062 8.213-.223 2.628-4.013 2.464-7.803.219-9.754 3.121-2.564 5.093-2.843 4.381.223-1.314 5.239-2.233 8.081-1.972 9.977.548 2.285 3.779 2.34 6.188.557l.547-2.675c-2.08 1.728-2.628 1.114-2.08-.836l2.628-10.98c.328-1.84-1.095-2.9-4.326-1.951-3.468 1.842-4.958 3.06-6.954 5.517 1.551 2.216 1.179 5.706-.283 8.676-.266.54-.639 1.03-1.143 1.348-1.144.725-1.643.164-1.366-1.384l3.176-12.987c.197-1.056.09-1.42-.548-1.56z" fill="#141414"/><path d="M134.845 21.236c-1.86-.088-2.663.066-2.902 1.338-1.017-1.267-1.964-1.514-4.162-1.338-6.735 1.616-10.075 16.777-4.873 17.78-8.597 8.64-12.813 8.027-12.21 3.01-6.078 1.06-2.573 14.938 8.103 5.63 3.673-3.706 5.356-5.62 8.487-9.643l.493-2.34c-3.997 3.065-3.504-6.355.438-11.148 1.643-1.728 3.45-.502 3.012 1.114l-2.245 9.086c-.364 1.359-.371 2.078 0 3.288.931 1.672 3.449 1.784 6.132 0l.438-2.675c-1.861 1.505-2.518 1.114-2.299-.168 1.225-4.988 2.518-11.091 3.175-12.039 0-.669 2.683-1.895.712-1.895h-2.299z" fill="#141414"/><path d="M125.646 4.57c6.899 6.968 13.36 10.59 14.619 9.476.493 1.115-2.518.39-2.518 1.115-1.391-.061-1.624.345-1.205 1.728 2.278-2.213 7.153 4.443 8.487 4.681-1.61-1.209-2.353-1.899-2.355-3.232 1.248-.189 1.434-1.162 1.205-3.846C153.147 11.974 158.17 8.305 166 0c-.602 3.233-1.509 5.2-4.271 7.413l.014-.004c1.678-.481 2.622-.753 4.257-1.668-1.132 2.664-2.332 3.802-5.749 5.016 1.578.1 2.43.059 3.778-.501-4.271 9.42-14.565 7.246-17.631 9.642 2.346 1.776 3.971 2.435 4.928 3.79-3.888-.78-6.242-1.007-10.568.168l1.095-3.79c-.547-2.397-11.279-.446-13.962-8.528.686.297 1.105.403 1.971.39-1.809-1.273-2.729-1.996-3.176-3.4.576.45.917.688 1.807.892-1.456-1.709-2.06-2.82-2.847-4.85z" fill="#141414"/><path d="M140.185 15.123a4.453 4.453 0 01-1.493.095.031.031 0 00-.025.009c-.167.168-.15.276.097.473.013.01.032.009.043-.003.178-.179.286-.18.459.058a.034.034 0 00.036.013c.518-.144.708-.298.916-.594a.033.033 0 00-.033-.051zM6.936 47.734c.165 0 .31-.022.435-.065a.904.904 0 00.318-.18.752.752 0 00.196-.281.95.95 0 00.066-.358c0-.27-.084-.48-.253-.632-.167-.152-.42-.228-.762-.228h-.684v1.744h.684zm0-2.196c.27 0 .504.031.702.094.2.061.366.15.497.263.131.115.228.253.292.414.065.162.098.342.098.541 0 .197-.035.378-.104.541-.07.164-.172.305-.306.423-.133.118-.299.21-.497.278a2.168 2.168 0 01-.682.097h-.684v1.585h-.574v-4.236h1.258z" fill="#141414"/><path fill-rule="evenodd" clip-rule="evenodd" d="M11.34 46.89v3a.033.033 0 01-.033.032h-.33a.033.033 0 01-.03-.018l-.086-.175c-.008-.016-.029-.022-.045-.014-2.75 1.332-2.48-4.149.002-2.708.016.01.036.006.046-.01l.082-.125a.033.033 0 01.028-.015h.333c.018 0 .032.015.032.033zm-.46.654v1.654h-.034c-2.135 1.505-1.992-3.214.034-1.654zm28.823-.654v3a.033.033 0 01-.033.032h-.33a.033.033 0 01-.03-.018l-.086-.175c-.008-.016-.029-.022-.045-.014-2.75 1.332-2.48-4.149.002-2.708.016.01.036.006.046-.01l.083-.125a.033.033 0 01.027-.015h.333c.018 0 .032.015.032.033zm-.46.654v1.617l-.034.037c-2.135 1.505-1.992-3.214.034-1.654z" fill="#141414"/><path d="M12.494 46.702v.51c.165-.373.612-.51 1.014-.51v.396c-.258 0-.629.034-.783.206-.154.168-.231.422-.231.762v1.708h-.355v-3.072h.355zm28.363 0v.51c.165-.373.612-.51 1.014-.51v.396c-.258 0-.629.034-.783.206-.154.168-.231.422-.231.762v1.708h-.355v-3.072h.355zm12.046 0v.51c.165-.373.612-.51 1.014-.51v.396c-.258 0-.629.034-.783.206-.154.168-.231.422-.231.762v1.708h-.355v-3.072h.355zm10.403 0v.51c.165-.373.613-.51 1.014-.51v.396c-.258 0-.628.034-.782.206-.155.168-.232.422-.232.762v1.708h-.355v-3.072h.355zm-47.827.128v.387h-.796v1.831c0 .166.031.285.094.357.063.069.158.105.284.109.126 0 .284-.004.473-.012v.35c-.422.065-.735.035-.94-.09a.822.822 0 01-.374-.714v-1.831h-.439v-.387h.439v-.725h.463v.725h.796zm10.294 0v.387h-.687v1.831c0 .166.032.285.095.357.063.069.157.105.283.109.126 0 .284-.004.473-.012v.35c-.422.065-.735.035-.94-.09a.822.822 0 01-.374-.714v-1.831h-.493v-.387h.493v-.725h.463v.725h.687zm-6.896-.177c.21 0 .398.038.566.114.168.077.312.185.431.326.12.14.21.31.272.511.064.198.097.42.097.666 0 .248-.032.471-.097.67a1.446 1.446 0 01-.272.508 1.22 1.22 0 01-.43.326 1.387 1.387 0 01-.567.111c-.212 0-.403-.037-.573-.111a1.219 1.219 0 01-.43-.326c-.12-.14-.211-.31-.276-.508a2.227 2.227 0 01-.093-.67c0-.245.031-.468.093-.666.065-.2.156-.37.275-.511.12-.14.263-.25.431-.326a1.39 1.39 0 01.573-.114zm0 2.801c.283 0 .495-.103.634-.31.14-.208.21-.499.21-.87 0-.374-.07-.666-.21-.875-.14-.208-.351-.313-.634-.313a.835.835 0 00-.377.081.727.727 0 00-.267.232c-.07.102-.123.227-.159.376a2.218 2.218 0 00-.05.498c0 .372.07.663.21.871.14.207.355.31.643.31zm46.87-2.801c.21 0 .398.038.567.114.168.077.311.185.43.326.12.14.21.31.272.511.065.198.097.42.097.666 0 .248-.032.471-.097.67a1.448 1.448 0 01-.272.508 1.22 1.22 0 01-.43.326 1.386 1.386 0 01-.567.111c-.212 0-.403-.037-.573-.111a1.22 1.22 0 01-.43-.326 1.46 1.46 0 01-.275-.508 2.23 2.23 0 01-.094-.67c0-.245.031-.468.094-.666.064-.2.155-.37.274-.511.12-.14.263-.25.431-.326a1.39 1.39 0 01.573-.114zm0 2.801c.283 0 .495-.103.635-.31.14-.208.21-.499.21-.87 0-.374-.07-.666-.21-.875-.14-.208-.352-.313-.635-.313a.835.835 0 00-.377.081.727.727 0 00-.267.232c-.07.102-.122.227-.158.376a2.218 2.218 0 00-.051.498c0 .372.07.663.21.871.141.207.356.31.643.31zm-44.717.431V47.21h-.459v-.446h.458v-.21c0-.324.033-.617.2-.793.165-.177.45-.223.754-.223.114 0 .228.016.34.047v.394c-.084-.017-.2 0-.294 0a.476.476 0 00-.373.148c-.087.097-.131.236-.131.419v.218h.744v.446h-.744v2.675h-.496zm5.783-2.829c.243-.3.559-.45.947-.45.677 0 1.018.384 1.024 1.152v2.127h-.547v-2.13c-.002-.232-.055-.404-.16-.515-.103-.111-.263-.167-.482-.167a.788.788 0 00-.468.143.969.969 0 00-.314.375v2.294h-.547v-4.57h.547v1.74z" fill="#141414"/><path fill-rule="evenodd" clip-rule="evenodd" d="M31.687 49.44v.334c-1.7.252-2.19-.056-2.3-1.45-.187-1.33.901-1.753 1.698-1.533.688.19.896 1.272.273 1.622-.291.164-.749.223-1.479.19.11.725.438 1.06 1.808.836zm-.465-1.517c.479-1.002-1.64-1.216-1.343.346h.674c.27 0 .551-.1.669-.346zm20.69 1.517v.334c-1.7.252-2.19-.056-2.3-1.45-.187-1.33.902-1.753 1.699-1.533.687.19.896 1.272.273 1.622-.292.164-.75.223-1.479.19.11.725.438 1.06 1.807.836zm-.465-1.517c.48-1.002-1.639-1.216-1.342.346h.674c.269 0 .55-.1.668-.346z" fill="#141414"/><path d="M42.856 45.593h-.438v3.735c.11.39.269.593 1.04.502v-.28c-.453-.028-.545-.134-.602-.39v-3.567zm1.854 4.292a1.65 1.65 0 01-.593-.108 1.24 1.24 0 01-.44-.285l.155-.338a1.282 1.282 0 00.903.357c.232 0 .402-.045.512-.133a.473.473 0 00.169-.387.38.38 0 00-.092-.272.54.54 0 00-.232-.151 2.436 2.436 0 00-.372-.103 3.91 3.91 0 01-.497-.145.774.774 0 01-.323-.26c-.087-.12-.13-.288-.13-.501 0-.266.088-.484.265-.653.177-.169.423-.253.739-.253.164 0 .328.028.492.084.164.052.167.05.273.138v.39c-.209-.18-.476-.244-.766-.244-.218 0-.384.048-.497.145a.484.484 0 00-.164.38c0 .122.03.218.092.29a.604.604 0 00.236.164c.094.032.223.066.387.103.202.048.365.096.487.145a.71.71 0 01.314.247c.087.117.13.278.13.484 0 .278-.093.5-.28.665-.183.16-.439.241-.767.241zm2.941-3.095c.246 0 .466.063.66.188.196.125.347.3.456.524.111.224.167.483.167.777 0 .294-.056.555-.167.783-.109.225-.26.4-.455.524a1.196 1.196 0 01-.66.188 1.042 1.042 0 01-.905-.496v.463h-.441v-4.092h.46v1.61a.99.99 0 01.383-.347c.153-.081.32-.121.502-.121zm-.038 2.52a.772.772 0 00.435-.126.888.888 0 00.307-.364c.077-.158.115-.338.115-.54a1.18 1.18 0 00-.115-.535.843.843 0 00-.306-.364.772.772 0 00-.436-.127.786.786 0 00-.436.127.843.843 0 00-.306.364c-.074.154-.072.322-.072.524s-.002.393.072.55a.888.888 0 00.306.365.791.791 0 00.436.127zm22.005-.934v-1.612h.452v3.042h-.452v-.438c-.18.345-.46.517-.841.517a.9.9 0 01-.732-.334c-.183-.228-.275-.534-.275-.92v-1.867h.451V48.6c0 .244.057.434.172.572a.58.58 0 00.472.207.67.67 0 00.55-.25c.135-.17.203-.421.203-.754zm2.585-1.612c.318 0 .59.144.815.433.225.29.337.638.337 1.047 0 .413-.112.764-.337 1.053-.222.285-.494.428-.815.428-.377 0-.664-.186-.861-.558v1.61h-.396v-3.94h.396v.484c.197-.371.484-.557.86-.557zm-.05 2.488a.711.711 0 00.573-.287c.155-.2.233-.44.233-.72a1.1 1.1 0 00-.233-.716.71.71 0 00-1.152 0 1.1 1.1 0 00-.232.715c0 .282.077.522.232.72a.716.716 0 00.579.288zm-35.336-.157l.18.407a1.266 1.266 0 01-.505.361 1.724 1.724 0 01-.67.134c-.562 0-1.018-.208-1.369-.622-.348-.42-.522-.974-.522-1.663 0-.657.167-1.2.5-1.632.338-.436.79-.654 1.358-.654.476 0 .854.144 1.134.432l-.208.406a1.339 1.339 0 00-.92-.33 1.21 1.21 0 00-.996.495c-.259.33-.389.758-.389 1.282 0 .53.134.959.4 1.29.27.325.62.488 1.054.488.365 0 .683-.131.953-.394zm24.751-1.383h.398v1.572c-.15.186-.346.333-.592.44a1.767 1.767 0 01-.71.161c-.54 0-1.008-.152-1.326-.557-.319-.405-.438-.995-.438-1.672 0-.636.157-1.167.472-1.592.314-.425.727-.638 1.237-.638.444 0 .808.14 1.093.421l-.183.422c-.206-.232-.492-.347-.86-.347-.391 0-.708.159-.95.477-.241.318-.362.736-.362 1.257 0 .524.023.964.264 1.282.245.313.665.563 1.063.563a1.3 1.3 0 00.502-.105c.169-.074.3-.167.392-.279v-1.405z" fill="#141414"/><path d="M61.566 48.436h.394v1.338h-.394v-1.338zm-7.376-.15c0-.467.104-.838.31-1.11.208-.275.49-.412.846-.412.407 0 .716.162.928.486l.016-.43h.31v2.928c0 .385-.108.69-.323.915-.216.225-.508.337-.876.337-.208 0-.407-.047-.597-.14a1.148 1.148 0 01-.445-.371l.185-.2c.234.288.512.432.835.432.276 0 .491-.082.646-.246.155-.162.235-.388.24-.677v-.376c-.211.295-.52.442-.925.442a.997.997 0 01-.834-.414c-.21-.277-.315-.65-.315-1.12v-.044zm.335.058c0 .382.076.683.23.904a.74.74 0 00.646.329c.407 0 .695-.182.864-.547v-1.39a.934.934 0 00-.334-.437.896.896 0 00-.525-.152.75.75 0 00-.649.33c-.155.216-.232.538-.232.963z" fill="#141414"/></svg>