<svg width="179" height="58" viewBox="0 0 179 58" fill="none" xmlns="http://www.w3.org/2000/svg"><path d="M167.841 24.444a.62.62 0 00-.603.607v5.752h-7.241V25.05a.626.626 0 00-.608-.607h-1.982c-.32 0-.569.286-.569.607v14.777c0 .328.249.61.569.61h1.982a.624.624 0 00.608-.61v-6.142h7.241v6.142c0 .328.278.61.603.61h1.989c.274 0 .557-.282.557-.61V25.05c0-.321-.283-.607-.557-.607h-1.989zm-15.364-6.599c.364 0 .644.284.644.601v1.83c0 .324-.28.608-.644.608h-12.332a.618.618 0 01-.602-.608v-1.83c0-.317.277-.6.602-.6h12.332zm-79.916 0a.623.623 0 00-.602.601v15.24c0 4.084 1.291 6.796 6.389 6.796h.607c7.274 0 8.369-4.817 8.369-7.289 0-2.19-.809-7.375-8.044-7.375h-4.047v-4.934h9.34c.326 0 .61-.284.61-.608v-1.83c0-.317-.284-.6-.61-.6H72.56zm6.834 10.973c2.957 0 4.612 1.615 4.612 4.375 0 2.754-1.655 4.256-4.612 4.256h-1.047c-2.22 0-3.116-.933-3.116-3.447v-5.184h4.163zm45.877-4.088c-.203.083-.366.32-.366.523v1.828c0 .157.121.366.237.442.171.083.33.12.489.083 1.09-.368 2.349-.732 4.405-.732 2.546 0 2.998.769 2.998 2.587v.332l-3.518.244c-5.667.396-5.947 4.086-5.947 5.22 0 3.36 1.78 5.422 6.028 5.422 1.334 0 2.829-.4 4.12-1.215l.286.61a.565.565 0 00.52.365h1.181a.575.575 0 00.563-.563V29.505c0-3.803-2.021-5.628-6.231-5.628-1.777 0-3.513.328-4.765.853zm1.653 10.527c0-1.134.207-2.312 2.545-2.51l3.518-.327.047 4.247c-1.132.691-2.025 1.057-3.399 1.057-1.341 0-2.711-.524-2.711-2.466zm-26.104 4.818a.557.557 0 00.515.364h1.423a.575.575 0 00.561-.563V25.05a.596.596 0 00-.607-.607h-1.939a.6.6 0 00-.608.607v10.41c-1.05 1.133-2.948 2.098-4.367 2.098-1.979 0-2.95-1.088-2.95-3.874V25.05a.627.627 0 00-.61-.607h-1.936a.627.627 0 00-.611.607v9.642c0 3.522 1.904 5.986 5.584 5.986 2.266 0 4.247-1.215 5.216-2.063l.329 1.459zm49.836 0a.571.571 0 00.53.364h1.412a.575.575 0 00.561-.575V25.05a.593.593 0 00-.6-.607h-1.939a.595.595 0 00-.608.607v10.41c-1.049 1.133-2.954 2.098-4.374 2.098-1.974 0-2.948-1.088-2.948-3.874V25.05a.624.624 0 00-.601-.607h-1.945a.62.62 0 00-.603.607v9.642c0 3.522 1.9 5.986 5.576 5.986 2.26 0 4.253-1.215 5.218-2.063l.321 1.459zm-42.329-5.263c-.205 2.14-.763 2.673-2.586 2.875a.678.678 0 00-.565.643v1.622c0 .327.276.609.565.609 3.555 0 5.336-1.698 5.705-5.906l.361-3.773c.241-2.628.767-3.435 3.149-3.435h2.624v12.38c0 .33.29.612.613.612h1.938c.282 0 .607-.283.607-.611V25.05c0-.321-.325-.607-.607-.607h-5.338c-4.406 0-5.693 2.551-6.061 6.157l-.405 4.211zm67.95-11.197c1.445 0 2.722.454 2.722 2.684 0 2.209-1.277 2.684-2.722 2.684-1.443 0-2.723-.476-2.723-2.684.001-2.23 1.28-2.684 2.723-2.684zm0 .455c-1.299 0-2.227.308-2.227 2.23 0 1.92.928 2.228 2.227 2.228 1.3 0 2.227-.308 2.227-2.228 0-1.922-.927-2.23-2.227-2.23zm-.598 3.623v-1.104h.785l.575 1.114a.167.167 0 00.136.082h.35c.051 0 .072-.035.048-.08l-.655-1.18c.349-.123.473-.411.473-.805 0-.557-.226-.91-.99-.91H175.3a.096.096 0 00-.095.094v2.789c0 .05.043.091.095.091h.289a.09.09 0 00.091-.091zm0-2.427h.785c.411 0 .473.207.473.454 0 .185-.062.394-.473.394h-.785v-.848zM57.329 35.521c.492-2.121.752-4.331.752-6.602 0-2.027-.207-4.004-.601-5.913H.6a29.233 29.233 0 00-.6 5.7v.425c.016 2.197.275 4.335.751 6.39h56.578zm-6.407 12.518H7.158C12.482 54.143 20.311 58 29.04 58c8.729 0 16.558-3.857 21.882-9.961zM6.575 10.488h44.93C46.794 4.736 39.923.826 32.134 0h-6.188c-7.79.826-14.66 4.736-19.371 10.488z" fill="#141414"/></svg>