<svg width="129" height="52" viewBox="0 0 129 52" fill="none" xmlns="http://www.w3.org/2000/svg"><g clip-path="url(#clip0)"><path fill-rule="evenodd" clip-rule="evenodd" d="M44.351 51.859v-7.8h22.176V.81H22.176v7.799H0v43.25h44.351zM7.87 21.67h6.849v-2.03H5.287v14.492h5.685c1.626-.013 2.909-.431 3.848-1.254.946-.823 1.419-1.911 1.419-3.265 0-.882-.211-1.659-.633-2.329-.422-.67-1.038-1.188-1.848-1.553-.81-.364-1.758-.547-2.847-.547H7.869V21.67zm0 10.451v-4.916h3.103c.844.013 1.504.232 1.98.656.476.425.715 1.002.715 1.732 0 .764-.245 1.377-.735 1.842-.483.458-1.16.686-2.031.686H7.869zM38.786 21.85h-4.634v12.46H31.59V21.85h-4.593v-2.03h11.79v2.03zm12.25 12.461l1.205-3.374h5.757l1.214 3.374h2.695l-5.624-14.492h-2.317L48.352 34.31h2.685zm4.083-11.416l2.154 6.012h-4.307l2.153-6.012z" fill="#141414"/><path d="M85.678 21.037h-7.165v4.34h3.695c1.551.02 2.762.407 3.633 1.164.871.756 1.307 1.785 1.307 3.085 0 1.307-.44 2.35-1.317 3.126-.878.776-2.075 1.177-3.593 1.204h-5.695V19.464h9.135v1.573zm-7.165 5.912v5.444h3.582c.973 0 1.729-.252 2.266-.756.545-.504.817-1.181.817-2.03 0-.817-.262-1.46-.786-1.931-.517-.472-1.256-.714-2.215-.727h-3.664zm18.867 3.225h-6.226l-1.399 3.782h-2.02l5.674-14.492h1.715l5.685 14.492h-2.01l-1.42-3.782zM91.746 28.6h5.052l-2.531-6.778-2.521 6.778zm21.859 5.356h-1.97v-6.699h-7.492v6.7h-1.959V19.463h1.959v6.23h7.492v-6.23h1.97v14.492zm6.712-6.509h-1.807v6.51h-1.959V19.463h1.959v6.39h1.531l5.196-6.39h2.439l-5.675 7.027 6.093 7.465h-2.398l-5.379-6.51z" fill="#000"/></g><defs><clipPath id="clip0"><path fill="#fff" transform="translate(0 .809)" d="M0 0h128.147v51.05H0z"/></clipPath></defs></svg>