<svg width="170" height="47" viewBox="0 0 170 47" fill="none" xmlns="http://www.w3.org/2000/svg"><path d="M81.655 14.054c0-.269-.18-.358-.358-.358h-5.64c-.268 0-.447.179-.536.358l-8.682 21.75c-.18.269.09.627.358.627h5.102c.268 0 .447-.18.537-.448l4.206-12.71.269 12.71c0 .269.179.448.358.448h4.833c.269 0 .627-.269.627-.627l-1.074-21.75zM60.71 27.659h-5.102c-.268 0-.358-.269-.268-.537l.716-4.386c0-.268.268-.537.447-.537h5.192v-.985c0-.268-.09-.447-.18-.716-.089-.268-.178-.358-.268-.626-.09-.18-.268-.358-.268-.537-.18-.18-.269-.269-.448-.358-.179-.09-.358-.269-.626-.269-.269-.09-.448-.09-.717-.09h-.716c-.268 0-.447.09-.716.09-.268.09-.358.09-.626.18-.269.089-.358.178-.537.268h-.09c-.268.09-.447-.09-.447-.358l-.18-3.849c-.089-.268.09-.537.27-.627a4.18 4.18 0 01.626-.268c.268-.09.447-.18.716-.269.268-.09.537-.179.716-.268.179-.09.537-.18.806-.18.268-.089.626-.089.895-.178.268 0 .626-.09.984-.09.537 0 1.074.09 1.522.18.447.089.895.268 1.253.357.358.18.716.358 1.074.627.268.268.627.537.895.806.269.268.448.626.716.984.269.358.358.716.537 1.164.18.358.269.716.269 1.253.09.358.179.805.268 1.253.09.447.09.895.09 1.253v1.253c0 .448-.09.895-.18 1.343-.089.447-.178.805-.268 1.253v.09c-.179.894-.358 1.7-.626 2.595-.269.805-.537 1.611-.895 2.238a14.247 14.247 0 01-1.164 1.969c-.448.626-.806 1.163-1.343 1.61-.447.448-.984.896-1.521 1.254-.537.358-1.074.716-1.7.895-.628.269-1.165.448-1.702.537-.537.448-1.074.448-1.7.448-.269 0-.627 0-.895-.09-.269 0-.627-.09-.806-.09-.268-.089-.537-.089-.716-.178-.268-.09-.447-.18-.626-.269l-.538-.269c-.178-.089-.268-.178-.447-.268-.179-.09-.269-.358-.179-.627l1.611-4.117v-.09c.18-.268.358-.357.627-.268.179.09.268.18.447.269.18.09.269.09.537.179.18.09.358.09.627.09h.626c.269 0 .716 0 .895-.09.269-.09.537-.18.716-.269a2.7 2.7 0 01.717-.358c.268-.179.358-.268.537-.537.179-.269.268-.358.447-.627a2.68 2.68 0 00.358-.715c.18-.27.269-.538.269-.717l.09.269zm32.94-5.639h4.296c.268 0 .358.268.268.537l-.716 4.117c0 .269-.268.537-.447.537h-4.296l-.717 3.939h4.834c.268 0 .358.268.268.537l-.716 4.296c0 .269-.268.537-.447.537H85.683c-.269 0-.359-.268-.269-.537l3.849-21.75c0-.269.268-.537.447-.537h10.025c.269 0 .358.268.269.537l-.717 4.296c0 .269-.268.537-.447.537h-4.565l-.626 2.954zm24.166 14.41h-4.385c-.269 0-.358-.268-.358-.536l.805-6.803a6.2 6.2 0 00.179-1.432l.09-.537.089-.627-.089.269-.358.984-.09.269c-.179.358-.268.716-.358.985l-2.685 6.623c-.09.269-.269.358-.448.358h-3.669c-.269 0-.358-.179-.358-.358l-.269-6.623v-2.775l-.268.984-.269 1.075-.269.894-1.611 6.803c-.089.269-.268.448-.447.448H98.75c-.268-.09-.358-.269-.268-.627l5.549-21.75c.09-.269.269-.448.448-.448h5.191c.269 0 .358.18.358.358l.179 6.982c0 1.253.09 2.238.09 3.133v2.058c.179-.358.268-.805.447-1.253.269-.626.448-1.253.716-1.969.269-.716.448-1.342.716-1.97l2.686-6.98c.089-.27.268-.359.447-.359h5.192c.268 0 .358.269.358.537l-2.507 21.75c-.089.27-.268.538-.537.538zm11.636-14.41h4.297c.268 0 .358.268.268.537l-.716 4.117c0 .269-.268.537-.447.537h-4.297l-.716 3.939h4.834c.268 0 .358.268.268.537l-.716 4.296c0 .269-.269.537-.448.537h-10.293c-.268 0-.358-.268-.268-.537l3.848-21.75c0-.269.269-.537.448-.537h10.025c.268 0 .358.268.268.537l-.716 4.296c0 .269-.268.537-.447.537h-4.565l-.627 2.954zm5.729 13.784l3.849-21.75c0-.269.268-.537.447-.537h5.012c.269 0 .358.268.269.537l-1.253 8.056h2.775l1.432-7.967c0-.268.268-.537.447-.537h5.013c.268 0 .358.269.268.537l-3.849 21.75c0 .27-.268.538-.447.538h-5.013c-.268 0-.358-.269-.268-.537l1.432-8.056h-2.775l-1.432 8.145c0 .269-.268.537-.447.537h-5.013c-.268-.179-.447-.358-.447-.716zm25.778.627h-5.013c-.268 0-.358-.269-.268-.537l2.953-16.56h-3.311c-.269 0-.358-.268-.269-.536l.806-4.655c0-.268.268-.537.447-.537h12.531c.269 0 .358.269.269.537l-.806 4.655c0 .268-.268.537-.447.537h-3.402l-2.953 16.559c-.09.268-.358.537-.537.537z" fill="#141414"/><path fill-rule="evenodd" clip-rule="evenodd" d="M20.968 46.364c-12.8 0-22.108-10.293-20.855-23.182C1.456 10.293 12.733 0 25.623 0h25.061l-4.117 23.182c-2.327 12.71-12.8 23.183-25.599 23.183zm5.638-32.133l-.716 2.685c1.88 0 4.027.985 5.28 2.148 1.522 1.701 1.97 4.028 1.522 6.892-1.253 7.25-7.16 10.562-13.784 10.383h-5.102l1.164-6.355h5.55c2.326 0 3.848-1.253 4.206-3.4.537-3.67-2.954-4.118-5.639-3.76-.179 0-.358 0-.447-.18-.09-.089-.18-.268-.09-.447l2.685-14.41c.09-.269.448-.537.716-.537H36.9l-1.253 6.981h-9.04z" fill="#141414"/></svg>