<svg width="116" height="20" viewBox="0 0 116 20" fill="none" xmlns="http://www.w3.org/2000/svg"><path fill-rule="evenodd" clip-rule="evenodd" d="M22.976 19.214H5.266c0-.074-.046-.057-.11-.032a.378.378 0 01-.13.032 9.3 9.3 0 00-.598-.093c-.4-.053-.798-.107-1.197-.266-1.077-.36-2.034-.957-2.633-2.035-.12-.239-.239-.598-.358-.956a3.72 3.72 0 01-.12-.48c-.03-.15-.06-.299-.12-.478V4.854c.12-.12.12-.36.12-.479.239-1.555 1.077-2.752 2.513-3.35.957-.36 2.034-.48 3.111-.48h16.993c.239 0 .359.12.359.36v3.23c0 .36-.12.36-.36.36H6.583c-.718 0-.958.24-.958.957v8.736c0 .598.24.957.838.957h10.89c.12 0 .239 0 .239-.24v-2.871c0-.24 0-.24-.24-.24H9.096c-.479 0-.599 0-.599-.598V8.205c0-.24 0-.36.06-.42s.18-.06.419-.06h13.522c.479 0 .479.12.479.48v10.411c.24.239.24.478 0 .598zm47.866 0H55.405c-.599 0-1.197-.12-1.915-.36-1.555-.358-2.393-1.435-2.872-2.871-.12-.479-.24-1.077-.24-1.676V5.333c0-.718.12-1.436.36-2.035.479-1.077 1.197-1.914 2.393-2.273.958-.36 1.915-.48 2.992-.48h14.6c.358 0 .358.12.358.36v3.111c0 .36-.12.479-.478.479H56.72c-.598.12-.837.24-.837.838v2.034c0 .12 0 .18.03.21s.09.03.209.03h13.882c.478 0 .598 0 .598.598v2.752c0 .359 0 .538-.09.628-.09.09-.27.09-.628.09H55.883c-.12 0-.12 0-.12.12v2.512c0 .36.12.48.48.599.12 0 .209.03.299.06s.18.06.299.06h13.642c.359 0 .359.12.359.358v3.232c.24.358.12.478 0 .598zm-39.011 0h15.317c.187-.094.228-.187.294-.337.018-.043.039-.09.065-.142v-3.23c0-.36-.12-.48-.479-.48H33.027c-.478 0-.718-.239-.718-.718v-2.393c0-.12 0-.12.12-.12H46.31c.718 0 .718-.12.718-.718V8.325c0-.299 0-.449-.075-.523-.074-.075-.224-.075-.523-.075H32.668c-.09 0-.157.007-.207.013-.152.017-.152.017-.152-.252V5.572c0-.718.24-.957.958-.957h13.402c.718 0 .718-.12.718-.718V1.025c0-.36 0-.48-.359-.48h-14.48c-.957 0-2.034.12-2.991.48-1.556.598-2.393 1.795-2.633 3.35-.12.36-.12.838-.12 1.197v8.735c0 .838.24 1.556.48 2.274.478 1.197 1.435 1.915 2.632 2.274.598.24 1.197.359 1.795.359 0 0 .12-.12.12 0zm66.894 0c-.24-.12-.24-.36-.24-.598V13.11c0-.12 0-.24-.12-.36l-3.59-3.948c-.957-.957-1.794-1.915-2.632-2.872a33.07 33.07 0 01-1.376-1.496 32.597 32.597 0 00-1.376-1.496c-.24-.299-.509-.568-.778-.837-.27-.27-.538-.539-.778-.838a.668.668 0 01-.098-.13c-.039-.064-.067-.11-.141-.11-.12-.239-.12-.358.24-.478h5.385c.717 0 1.196.479 1.674.957.48.479.928.987 1.377 1.496.448.509.897 1.017 1.376 1.496 1.077 1.077 2.153 2.273 3.23 3.47h.001l.478.479c.06.06.09.09.12.09s.06-.03.12-.09c.239-.3.508-.569.778-.838.269-.269.538-.538.777-.837h.001c.957-1.078 1.914-2.155 2.991-3.112.359-.359.718-.748 1.077-1.137s.718-.777 1.077-1.136c.359-.48.957-.718 1.556-.718h5.385c.296-.1.266.128.247.277-.004.032-.008.06-.008.082-.12.239-.359.478-.598.718-.12.18-.27.329-.419.478-.15.15-.299.3-.419.479-.479.478-.927.987-1.376 1.495-.449.51-.898 1.018-1.376 1.497-.479.478-.928.987-1.376 1.495a32.006 32.006 0 01-1.377 1.496c-.386.387-.754.793-1.117 1.196-.536.593-1.064 1.177-1.635 1.676-.239.24-.449.479-.658.718-.209.24-.419.479-.658.718-.12.12-.12.12-.12.24v5.625c0 .24 0 .479-.239.598-2.034-.24-3.71-.24-5.385-.24zm-20.583-.12c.36 0 .718 0 1.077.12 5.026 0 10.172 0 14.959.119.239-.12.358-.24.358-.479v-2.872c0-.718 0-.718-.718-.718H80.656c-.359-.12-.598-.359-.598-.718V1.024c0-.24-.12-.359-.36-.359h-4.666c-.24 0-.36.12-.36.359v12.565c0 .718 0 1.316.12 1.915.12.718.24 1.436.719 2.034.598.957 1.555 1.316 2.632 1.556z" fill="#141414"/></svg>