<svg width="89" height="53" viewBox="0 0 89 53" fill="none" xmlns="http://www.w3.org/2000/svg"><path d="M88.565.917H.973v51.992h87.592V.917z" fill="#141414"/><path d="M6.36 46.28v1.99h65.739V7.758l9.591 3.748V48.27h1.763V10.116L72.099 5.582l-17.653 4.35v36.242l-48.087.105zm.34-23.192v-7.94h1.58v3.144h3.111v-3.145h1.582v7.94H11.39V19.63H8.28v3.459H6.698zm7.62-3.905c0-.812.13-1.493.363-2.044.182-.393.415-.76.726-1.1.311-.315.648-.55 1.011-.708.493-.21 1.063-.314 1.685-.314 1.166 0 2.074.367 2.774 1.1.7.734 1.037 1.73 1.037 3.04 0 1.284-.337 2.28-1.037 3.014-.7.733-1.608 1.074-2.774 1.074s-2.1-.367-2.774-1.074c-.674-.708-1.01-1.73-1.01-2.988zm1.633-.052c0 .89.208 1.572.623 2.044.414.472.933.707 1.555.707.622 0 1.14-.235 1.555-.68.415-.473.596-1.154.596-2.071 0-.917-.207-1.599-.596-2.044-.389-.446-.907-.681-1.581-.681-.648 0-1.192.235-1.581.68-.39.446-.57 1.128-.57 2.045zm7.184 3.957v-7.94h2.385l1.425 5.424 1.4-5.424h2.385v7.94h-1.478v-6.263L27.7 23.088h-1.53l-1.555-6.263v6.263h-1.477z" fill="#fff"/><path d="M32.313 23.087v-7.94h5.832v1.336H33.92v1.756h3.94v1.336h-3.94v2.149h4.38v1.337h-5.987v.026zM11.73 30.766l1.53.498c-.234.865-.623 1.52-1.168 1.94-.544.419-1.244.628-2.073.628-1.037 0-1.893-.367-2.567-1.074-.674-.708-1.01-1.704-1.01-2.962 0-1.31.336-2.358 1.01-3.066.674-.707 1.556-1.1 2.67-1.1.96 0 1.737.288 2.334.865.362.34.622.838.803 1.467l-1.581.367c-.104-.42-.285-.734-.57-.97a1.638 1.638 0 00-1.063-.366c-.57 0-1.063.21-1.426.629-.363.419-.544 1.1-.544 2.044 0 .995.181 1.73.544 2.148.363.42.83.63 1.4.63.415 0 .777-.132 1.088-.42.286-.262.493-.681.623-1.258zm2.903 2.909v-7.94h3.344c.83 0 1.451.078 1.84.209.39.131.674.393.908.76.233.367.337.786.337 1.258 0 .603-.182 1.1-.519 1.467-.337.394-.855.63-1.555.734.337.21.622.42.855.655.234.236.519.682.908 1.284l.959 1.547h-1.893l-1.14-1.73c-.415-.629-.674-.996-.83-1.18-.155-.183-.31-.261-.466-.34-.156-.052-.441-.079-.804-.079h-.363v3.302h-1.581v.053zm1.581-4.586h1.167c.751 0 1.244-.026 1.425-.105a.817.817 0 00.441-.34c.104-.158.156-.368.156-.603 0-.263-.078-.472-.208-.656-.13-.157-.337-.262-.596-.314-.13-.026-.518-.026-1.166-.026h-1.219v2.044zm6.352 4.586v-7.94H28.4v1.336h-4.225v1.756h3.94v1.336h-3.94v2.149h4.38v1.337h-5.988v.026zm7.309-7.941h2.903c.648 0 1.14.053 1.504.158.466.13.855.393 1.192.733.337.341.57.787.752 1.285.181.497.26 1.126.26 1.886 0 .655-.078 1.206-.234 1.677-.208.577-.467 1.049-.83 1.416-.285.262-.648.471-1.114.628-.363.105-.83.158-1.4.158h-2.981v-7.94h-.052zm1.581 1.363v5.267h1.193c.44 0 .752-.026.959-.078.26-.053.466-.184.648-.34.181-.158.311-.42.415-.76.103-.368.155-.84.155-1.442 0-.603-.052-1.075-.155-1.415a1.777 1.777 0 00-.441-.76 1.376 1.376 0 00-.726-.367c-.233-.053-.648-.079-1.296-.079h-.752v-.026zm6.298 6.578v-7.94h1.581v7.94h-1.581zm4.848 0V27.07H40.27v-1.337h6.247v1.337h-2.333v6.604h-1.581zM6.7 35.876h3.136c.622 0 1.089.026 1.4.079.31.052.57.157.83.34.232.157.44.393.595.655.156.289.234.577.234.918 0 .366-.104.707-.285 1.022a1.92 1.92 0 01-.804.707 2.23 2.23 0 011.115.708c.259.34.389.733.389 1.205 0 .367-.078.708-.26 1.048a2.06 2.06 0 01-.674.813 1.99 1.99 0 01-1.063.367c-.259.026-.907.052-1.918.052h-2.67v-7.914H6.7zm1.606 1.31v1.835h1.037c.622 0 1.011 0 1.14-.027.26-.026.493-.13.649-.288.155-.157.233-.367.233-.629a.94.94 0 00-.207-.602c-.13-.158-.337-.236-.596-.289-.156-.026-.597-.026-1.348-.026h-.908v.026zm0 3.171v2.123h1.478c.57 0 .933-.026 1.089-.053.233-.052.415-.157.57-.314.156-.157.233-.393.233-.681 0-.236-.052-.446-.181-.603a1.027 1.027 0 00-.493-.367c-.207-.079-.674-.105-1.4-.105H8.307zm13.403 3.459h-1.737l-.674-1.808H16.16l-.648 1.808h-1.685l3.059-7.94h1.685l3.137 7.94zm-2.904-3.144l-1.088-2.935-1.063 2.935h2.151zm3.761 3.144v-7.94h1.556l3.214 5.294v-5.294h1.478v7.94h-1.582l-3.162-5.189v5.19h-1.504zm7.93 0v-7.94h1.581v3.538l3.215-3.538h2.125l-2.955 3.092 3.11 4.848h-2.047l-2.151-3.72-1.297 1.336v2.41h-1.58v-.026z" fill="#fff"/></svg>