<svg width="122" height="68" viewBox="0 0 122 68" fill="none" xmlns="http://www.w3.org/2000/svg"><path d="M12.213 49.637V56.3H4.66v-6.664H.496v17.487H4.66v-7.031h7.553v7.031h4.163V49.637h-4.163zm19.414 0l-4.354 6.925-4.35-6.925h-4.911l7.186 11.43v6.057h4.159v-6.057l7.187-11.43h-4.917zm18.305 0v12.816a.862.862 0 01-.884.88h-6.67V49.636h-4.163v17.487h12.3c1.094 0 1.973-.327 2.616-.964.638-.643.959-1.522.959-2.612v-13.91h-4.158zm20.313 0h-12.3v17.487h4.159v-13.7h6.68c.537 0 .878.421.878.873v12.827h4.158V53.213c0-1.095-.326-1.974-.959-2.612-.648-.643-1.521-.964-2.616-.964zm19.73 0h-12.3v17.487h12.3c1.095 0 1.969-.327 2.607-.964.643-.643.964-1.522.964-2.612V53.213c0-1.095-.322-1.974-.964-2.612-.638-.643-1.517-.964-2.607-.964zm-.587 4.69v8.101c0 .472-.342.904-.884.904h-6.675v-9.909h6.645c.547 0 .914.382.914.904zm11.413-4.691c-1.09 0-1.973.321-2.611.964-.643.643-.96 1.522-.96 2.612v13.911h4.149v-5.409h7.558v5.41h4.159V49.635h-12.295zm8.136 3.786v4.505h-7.558v-3.616c0-.431.336-.889.889-.889h6.669zm8.208 13.701h4.163V49.636h-4.163v17.487zM58.441 37.518c19.971 0 36.164-8.203 36.164-18.317C94.605 9.079 78.412.876 58.44.876c-19.964 0-36.156 8.203-36.156 18.325 0 10.114 16.192 18.317 36.156 18.317zm6.81-8.989c-.603 1.383-1.641 4.336-4.023 5.514-.726.355-1.619.522-2.413.552h-.366c-6.673 0-12.887-.922-18.086-2.485-.039-.017-.16-.06-.198-.076-.481-.158-.726-.378-.726-.65 0-.234.13-.415.298-.581.076-.068.183-.159.328-.287 1.207-.99 4.818-3.58 11.627-6.164 2.39-.899 5.383-2.024 8.513-2.681 1.832-.378 8.642-1.413 5.046 6.858zM83.52 10.061c.13-.22.298-.408.61-.423.168-.017.398.022.749.241 4.244 2.584 6.764 5.816 6.764 9.314 0 6.314-8.207 11.745-19.949 14.117-.748.151-1.252.144-1.42-.044-.122-.113-.152-.317 0-.566.069-.128.153-.242.313-.431 6.39-7.455 11.26-18.453 12.643-21.626.106-.219.206-.438.29-.581v-.001zm-31.774-.233c.603-1.382 1.641-4.336 4.023-5.507.726-.355 1.619-.529 2.413-.551.183-.006.313 0 .359 0 6.68 0 12.886.914 18.093 2.485.039.016.16.06.198.076.481.158.726.377.726.65 0 .233-.13.407-.298.573a5.638 5.638 0 01-.329.287c-1.198.997-4.817 3.58-11.626 6.164-2.398.906-5.383 2.024-8.505 2.681-1.84.386-8.65 1.413-5.054-6.858zm-6.558-4.751c.756-.144 1.252-.144 1.435.044.107.12.138.317-.005.566a2.66 2.66 0 01-.313.423c-6.39 7.463-11.26 18.453-12.65 21.634-.1.219-.206.438-.29.581-.123.22-.298.408-.604.423-.168.017-.404-.033-.755-.241-4.245-2.584-6.764-5.817-6.764-9.314 0-6.315 8.206-11.745 19.948-14.117" fill="#141414"/></svg>