<svg width="183" height="29" viewBox="0 0 183 29" fill="none" xmlns="http://www.w3.org/2000/svg"><circle cx="6.722" cy="6.985" r="6.156" fill="#141414"/><circle cx="21.722" cy="6.985" r="6.156" fill="#141414"/><circle cx="6.722" cy="22.373" r="6.156" fill="#141414"/><circle cx="21.722" cy="22.373" r="6.156" fill="#141414"/><path d="M38.06 28.53h-4.544V2.273h4.544V28.53zm3.995-9.9c0-3.006.697-5.417 2.092-7.232 1.395-1.828 3.264-2.741 5.608-2.741 2.068 0 3.74.721 5.014 2.164V.83h4.382v27.7h-3.968l-.216-2.02c-1.31 1.587-3.06 2.38-5.248 2.38-2.284 0-4.135-.92-5.554-2.759-1.407-1.839-2.11-4.34-2.11-7.502zm4.382.378c0 1.984.379 3.535 1.136 4.653.77 1.106 1.858 1.659 3.264 1.659 1.792 0 3.102-.8 3.932-2.399V14.59c-.806-1.563-2.104-2.345-3.895-2.345-1.42 0-2.513.566-3.283 1.696-.77 1.118-1.154 2.807-1.154 5.067zm25.509 9.882c-2.777 0-5.031-.871-6.762-2.614-1.72-1.756-2.58-4.088-2.58-6.997v-.541c0-1.948.373-3.685 1.119-5.212.757-1.54 1.815-2.735 3.174-3.589 1.358-.853 2.873-1.28 4.544-1.28 2.657 0 4.707.847 6.15 2.543 1.455 1.695 2.182 4.093 2.182 7.195v1.767h-12.75c.132 1.611.667 2.886 1.605 3.823.95.938 2.14 1.407 3.57 1.407 2.009 0 3.644-.811 4.906-2.434l2.362 2.254c-.781 1.166-1.827 2.074-3.138 2.723-1.298.637-2.759.956-4.382.956zm-.523-16.717c-1.202 0-2.176.421-2.921 1.263-.734.841-1.203 2.013-1.407 3.516h8.35v-.324c-.096-1.467-.487-2.573-1.172-3.319-.686-.757-1.635-1.136-2.85-1.136zM94.48 28.53c-.193-.373-.36-.98-.505-1.822-1.395 1.455-3.102 2.183-5.122 2.183-1.96 0-3.558-.56-4.797-1.678-1.238-1.118-1.857-2.5-1.857-4.147 0-2.08.77-3.673 2.308-4.78 1.551-1.117 3.763-1.676 6.636-1.676h2.688v-1.28c0-1.01-.283-1.816-.848-2.417-.565-.614-1.425-.92-2.579-.92-.998 0-1.815.252-2.453.757-.637.493-.955 1.124-.955 1.894h-4.382c0-1.07.354-2.068 1.063-2.994.71-.937 1.672-1.67 2.886-2.2 1.226-.529 2.59-.793 4.094-.793 2.284 0 4.105.577 5.464 1.731 1.358 1.142 2.056 2.753 2.092 4.833v8.8c0 1.756.246 3.156.74 4.202v.307H94.48zm-4.815-3.156a4.93 4.93 0 002.434-.631c.77-.421 1.347-.986 1.731-1.695v-3.68h-2.362c-1.623 0-2.843.283-3.66.848-.818.565-1.227 1.365-1.227 2.399 0 .841.276 1.515.83 2.02.565.492 1.316.739 2.254.739zm13.192 3.156V2.273h8.999c2.969 0 5.229.595 6.78 1.785 1.551 1.19 2.327 2.964 2.327 5.32 0 1.202-.325 2.284-.974 3.246-.649.962-1.599 1.707-2.85 2.236 1.419.385 2.513 1.112 3.283 2.182.781 1.058 1.172 2.333 1.172 3.824 0 2.464-.794 4.358-2.381 5.68-1.575 1.323-3.835 1.984-6.78 1.984h-9.576zm4.562-11.848v8.205h5.068c1.43 0 2.549-.355 3.354-1.064.806-.71 1.208-1.695 1.208-2.957 0-2.73-1.394-4.124-4.184-4.184h-5.446zm0-3.354h4.473c1.418 0 2.524-.32 3.318-.956.805-.65 1.208-1.563 1.208-2.741 0-1.299-.373-2.237-1.118-2.814-.733-.577-1.881-.865-3.444-.865h-4.437v7.376zm29.603 15.202c-.192-.373-.361-.98-.505-1.822-1.395 1.455-3.102 2.183-5.121 2.183-1.96 0-3.559-.56-4.797-1.678-1.239-1.118-1.858-2.5-1.858-4.147 0-2.08.769-3.673 2.308-4.78 1.551-1.117 3.763-1.676 6.637-1.676h2.687v-1.28c0-1.01-.283-1.816-.848-2.417-.565-.614-1.424-.92-2.579-.92-.997 0-1.815.252-2.452.757-.637.493-.956 1.124-.956 1.894h-4.382c0-1.07.354-2.068 1.064-2.994.709-.937 1.671-1.67 2.885-2.2 1.227-.529 2.591-.793 4.094-.793 2.284 0 4.106.577 5.464 1.731 1.359 1.142 2.056 2.753 2.092 4.833v8.8c0 1.756.246 3.156.739 4.202v.307h-4.472zm-4.815-3.156c.866 0 1.677-.21 2.435-.631.769-.421 1.346-.986 1.731-1.695v-3.68h-2.363c-1.623 0-2.843.283-3.66.848-.818.565-1.227 1.365-1.227 2.399 0 .841.277 1.515.83 2.02.565.492 1.316.739 2.254.739zm16.835-16.357l.126 2.255c1.443-1.744 3.336-2.615 5.681-2.615 4.063 0 6.131 2.326 6.203 6.979V28.53h-4.382V15.888c0-1.238-.27-2.152-.811-2.74-.529-.602-1.401-.903-2.615-.903-1.768 0-3.084.8-3.95 2.399V28.53h-4.382V9.017h4.13zm22.461 11.145l-1.947 2.002v6.366h-4.383V.83h4.383v15.978l1.37-1.713 5.392-6.078h5.266l-7.249 8.134 8.025 11.379h-5.068l-5.789-8.368z" fill="#141414"/></svg>