<svg width="138" height="35" viewBox="0 0 138 35" fill="none" xmlns="http://www.w3.org/2000/svg"><path d="M12.263.21c-2.55 0-5.61 2.433-8.09 6.516C1.53 10.994 0 16.224 0 20.79c0 6.699 3.779 13.42 12.263 13.42s12.263-6.721 12.263-13.42c0-4.566-1.53-9.82-4.173-14.04-2.48-4.107-5.54-6.54-8.09-6.54zm66.23 10.004h8.577v22.139h9.203v-22.14h8.577v-8.19H78.493v8.19zm46.015 0H138v-8.19h-13.492c-12.402 0-19.009 6.102-19.009 15.187 0 9.085 6.63 15.188 19.009 15.188H138v-8.214h-13.492c-5.749 0-9.481-2.041-9.481-6.974s3.732-6.997 9.481-6.997zM59.785 2.046l-4.914 18.125-4.915-18.125h-16.25v30.376h9.203V7.69l6.7 24.686h10.547l6.7-24.709v24.709h9.203V2.046H59.785z" fill="#141414"/></svg>