<svg width="82" height="70" viewBox="0 0 82 70" fill="none" xmlns="http://www.w3.org/2000/svg"><path fill-rule="evenodd" clip-rule="evenodd" d="M15.522 25.778c8.415-.311 19.184-.645 25.63-.645 6.536 0 17.515.343 25.978.658l-.048-.017s-.04-.04-.04-.08c-3.922-9.95-13.97-17.039-25.733-17.039-11.804 0-21.851 7.13-25.772 17.119l-.015.004zm60.523.387c1.612.186 2.429.306 3.133.498 2.329.524 2.819 1.33 2.819 2.981v11.158c0 1.61-1.757 2.739-2.982 2.94-1.15.227-1.904.312-3.039.421-4.186 14.592-18.14 25.318-34.7 25.318-16.568 0-30.485-10.694-34.706-25.295h-.012c-1.266-.122-2.042-.202-3.268-.444-1.225-.201-2.981-1.33-2.981-2.94V29.644c0-1.651.49-2.457 2.818-2.98.735-.202 1.593-.323 3.349-.524h.005l-.008-.003C10.557 11.395 24.607.52 41.272.52c16.623 0 30.633 10.795 34.758 25.537 0 .038 0 .058.004.077.002.01.006.02.01.03zM70.282 44.5h.009c-.176.492-.365.978-.566 1.458.199-.48.385-.966.557-1.458zm-29.13.933c8.619 0 18.306-.382 25.73-.755a.456.456 0 01-.04.09c-.02.04-.04.08-.04.1-4.084 9.667-13.969 16.515-25.528 16.515-11.64 0-21.565-6.928-25.609-16.676a7.393 7.393 0 01-.073-.02c7.399.37 17.015.746 25.56.746zm15.892-14.66c.225.144.332.473.693 1.246.163.376.77 1.674 1.43 3.086.825 1.765 1.733 3.707 1.96 4.245.107.247.057.246-.178.242h-2.355c-.122 0-.245-.041-.286-.162 0-.037-.239-.578-.592-1.379l-.102-.232h-5.269a64.786 64.786 0 01-.735 1.611c-.04.08-.123.161-.286.161h-2.165c-.326 0-.449 0-.245-.402l.041-.081c1.021-2.215 3.431-7.532 3.431-7.532.233-.478.3-.711.454-.824.171-.125.45-.103 1.18-.103.367-.04.449-.04.898-.04.45 0 .776 0 .899.04.707.02 1.018-.008 1.227.125zm-2.534 2.011c0 .04-.654 1.57-1.348 3.142h3.635c-.296-.74-.617-1.48-.871-2.068a27.127 27.127 0 01-.436-1.034c-.04-.12-.122-.16-.204-.16-.04-.041-.163-.041-.245-.041-.123 0-.245 0-.286.04-.123 0-.204.04-.245.121zM24.53 30.77c0-.161-.04-.242-.245-.242H22.08c-.164 0-.204.08-.204.242v8.459c0 .241.04.282.285.282h2.083c.245 0 .286-.08.286-.282V30.77zm-4.41.12c0-.2-.042-.281-.287-.281h-1.797c-.245 0-.286.08-.286.282v6.727s-3.635-5.519-4.084-6.244c-.545-.767-.756-.767-2.117-.765H9.255c-.245 0-.286.08-.286.282v8.418c0 .242.04.282.286.282h1.797c.245 0 .286-.04.286-.282v-6.606s3.022 4.552 4.002 6.083c.49.805.613.805 2.043.805h2.45c.245 0 .286-.04.286-.282v-8.418zm53.505 0c0-.2-.041-.281-.286-.281h-1.797c-.245 0-.286.08-.286.282v6.727s-3.594-5.519-4.085-6.244c-.544-.767-.755-.767-2.116-.765H62.76c-.245 0-.286.08-.286.282v8.418c0 .242.041.282.286.282h1.798c.245 0 .285-.04.285-.282v-6.606s2.982 4.552 4.003 6.083c.49.805.613.805 2.042.805h2.451c.245 0 .286-.04.286-.282v-8.418zm-37.046 5.076c-.326-1.49-1.51-1.772-3.104-1.933-.255-.023-.63-.053-1.051-.086-1.062-.083-2.425-.19-2.951-.277-.286-.04-.409-.201-.409-.403v-.362c.04-.282.163-.403.45-.403h6.412c.245.04.327-.04.327-.242v-1.45c0-.201-.082-.241-.327-.241H29.39c-1.716 0-2.655.604-2.941 1.852-.04.282-.04.645-.04.887 0 .282 0 .604.04.846.082.724.572 1.53 2.532 1.731 1.512.162 3.758.363 4.534.403.35.039.404.258.443.419l.006.024v.605c-.04.201-.122.282-.408.282h-6.821c-.245 0-.286.04-.286.282v1.41c0 .241.04.281.286.281h6.74c1.715 0 2.777-.282 3.063-1.691.081-.323.081-.685.081-.967 0-.291-.017-.565-.03-.753a4.379 4.379 0 01-.01-.214zm11.56 0c-.328-1.49-1.512-1.772-3.105-1.933-.263-.025-.67-.057-1.127-.094-1.031-.082-2.325-.185-2.835-.269-.327-.04-.408-.201-.408-.403v-.362c.04-.282.163-.403.449-.403h6.413c.245.04.326-.04.326-.242v-1.45c0-.201-.081-.241-.326-.241H40.99c-1.715 0-2.654.604-2.94 1.852-.041.282-.041.645-.041.887 0 .282 0 .604.04.846.123.724.572 1.53 2.533 1.731 1.511.162 3.758.363 4.534.403.327.04.408.282.449.443v.605c-.04.201-.122.282-.408.282h-6.821c-.245 0-.286.04-.286.282v1.41c0 .241.04.281.286.281h6.698c1.715 0 2.777-.282 3.063-1.691.082-.323.082-.685.082-.967 0-.291-.018-.565-.03-.753a4.379 4.379 0 01-.01-.214z" fill="#141414"/></svg>