<svg width="308" height="58" viewBox="0 0 308 58" fill="none" xmlns="http://www.w3.org/2000/svg"><g clip-path="url(#clip0)"><path fill-rule="evenodd" clip-rule="evenodd" d="M.145.751h50.71v47.282H20.083l1.878-4.206L8.67 57.316v-9.283H.145V.751zm12.038 14.08c-2.44 2.594-3.659 5.829-3.659 9.706 0 4.054 1.232 7.34 3.695 9.857 2.463 2.518 5.584 3.777 9.362 3.777 3.755 0 6.876-1.284 9.363-3.852 2.487-2.568 3.73-5.829 3.73-9.782 0-4.053-1.243-7.339-3.73-9.857-2.464-2.518-5.584-3.776-9.363-3.776-3.802 0-6.935 1.309-9.398 3.927zm3.408 16.353c-1.602-1.788-2.404-4.003-2.404-6.647 0-2.719.79-4.947 2.368-6.684 1.602-1.738 3.61-2.606 6.026-2.606 2.392 0 4.389.869 5.99 2.606 1.627 1.737 2.44 3.965 2.44 6.684 0 2.67-.765 4.885-2.296 6.647-1.506 1.763-3.551 2.644-6.134 2.644-2.367 0-4.364-.881-5.99-2.644zm23.129-.305l-.434-19.975h5.3l-.749 19.975H38.72zm-.145 2.506v4.568h4.623v-4.568h-4.623z" fill="#141414"/><path d="M50.858.751h.072V.68h-.072v.07zM.145.751V.68H.074v.07h.072zm50.712 47.283v.072h.072v-.072h-.072zm-30.774 0l-.066-.03-.045.102h.111v-.072zm1.878-4.206l.066.03-.117-.081.051.05zM8.671 57.316h-.073v.176l.124-.125-.051-.05zm0-9.282h.072v-.073H8.67v.073zm-8.525 0H.074v.072h.072v-.072zm12.039-33.202l-.053-.05.053.05zm.036 19.562l.051-.05-.051.05zm18.724-.075l-.051-.05.052.05zm0-19.639l-.05.051.05-.05zM15.593 31.185l-.054.049.054-.049zm-.036-13.331l-.053-.05.053.05zm12.017 0l-.053.05.053-.05zm.143 13.331l-.054-.047.054.047zm10.571-20.28v-.073h-.074l.002.075.072-.002zm.434 19.975l-.073.002.002.07h.07v-.072zm4.865-19.975l.073.003.003-.076h-.075v.073zm-.748 19.975v.073h.07l.002-.07-.072-.003zm-4.262 7.074h-.072v.073h.072v-.073zm0-4.568v-.073h-.072v.073h.072zm4.623 4.569v.072h.072v-.073H43.2zm0-4.57h.072v-.072H43.2v.073zM50.857.68H.148v.145h50.71V.679zm.073 47.355V.75h-.145v47.283h.145zm-30.846.072h30.774v-.145H20.084v.145zm1.812-4.308l-1.878 4.206.132.06 1.878-4.207-.132-.06zM8.722 57.368l13.292-13.49-.103-.102-13.292 13.49.103.101zm-.124-9.334v9.282h.145v-9.282h-.145zm-8.452.072h8.525v-.145H.146v.145zM.074.751v47.283H.22V.75H.074zm8.524 23.787c0-3.861 1.214-7.078 3.64-9.657l-.106-.1c-2.453 2.609-3.678 5.862-3.678 9.757h.144zm3.674 9.806c-2.448-2.503-3.674-5.769-3.674-9.806h-.144c0 4.069 1.237 7.374 3.715 9.907l.103-.101zm9.311 3.755c-3.76 0-6.862-1.253-9.31-3.755l-.104.101c2.478 2.533 5.618 3.799 9.414 3.799v-.145zm9.31-3.83c-2.472 2.553-5.574 3.83-9.31 3.83v.145c3.773 0 6.913-1.291 9.414-3.874l-.103-.102zm3.711-9.731c0 3.936-1.238 7.177-3.71 9.73l.103.102c2.502-2.584 3.751-5.863 3.751-9.832h-.144zm-3.71-9.806c2.472 2.502 3.71 5.768 3.71 9.806h.144c0-4.07-1.249-7.375-3.751-9.909l-.103.103zm-9.31-3.756c3.76 0 6.861 1.253 9.31 3.755l.103-.101c-2.478-2.533-5.617-3.799-9.414-3.799v.145zm-9.347 3.905c2.45-2.603 5.562-3.905 9.346-3.905v-.145c-3.82 0-6.973 1.317-9.45 3.95l.104.1zm.88 9.657c0 2.66.807 4.892 2.422 6.695l.107-.097c-1.589-1.773-2.384-3.97-2.384-6.598h-.145zm2.386-6.734c-1.592 1.753-2.386 4-2.386 6.734h.145c0-2.705.784-4.914 2.348-6.636l-.106-.098zm6.08-2.63c-2.435 0-4.463.877-6.08 2.63l.107.098c1.588-1.722 3.577-2.582 5.973-2.582v-.146zm6.044 2.63c-1.616-1.753-3.633-2.63-6.044-2.63v.146c2.372 0 4.35.86 5.938 2.582l.106-.098zm2.458 6.734c0-2.735-.818-4.982-2.459-6.735l-.105.1c1.612 1.722 2.42 3.931 2.42 6.635h.144zm-2.313 6.694c1.543-1.778 2.313-4.01 2.313-6.694h-.144c0 2.653-.76 4.851-2.278 6.599l.109.095zM21.583 33.9c2.601 0 4.667-.888 6.189-2.668l-.11-.095c-1.49 1.745-3.514 2.618-6.079 2.618v.145zm-6.043-2.666c1.64 1.777 3.655 2.666 6.043 2.666v-.145c-2.347 0-4.325-.872-5.937-2.62l-.106.099zm22.676-20.329l.433 19.976.145-.003-.434-19.976-.144.004zm5.371-.074h-5.299v.145h5.3v-.145zm-.676 20.051l.749-19.975-.145-.006-.748 19.976.144.005zm-4.19.07h4.118v-.145h-4.117v.145zm-.072 7.001v-4.568h-.144v4.569h.144zm4.551-.072h-4.623v.145H43.2v-.145zm-.072-4.496v4.569h.145v-4.57h-.145zm-4.55.072H43.2v-.145h-4.623v.145z" fill="#000"/></g><path d="M98.48 42.199h-7.027L81.066 23.784V42.2H74V12.606h7.066L91.433 31.02V12.605h7.046V42.2zm27.458-29.594v19.37c0 2.195-.463 4.1-1.389 5.712-.926 1.599-2.255 2.818-3.986 3.658-1.732.84-3.778 1.26-6.14 1.26-3.57 0-6.382-.934-8.435-2.804-2.053-1.87-3.1-4.431-3.14-7.683V12.605h7.106V32.26c.08 3.238 1.57 4.858 4.469 4.858 1.463 0 2.57-.407 3.321-1.22.752-.813 1.128-2.134 1.128-3.963v-19.33h7.066zm15.319 19.147h-3.825v10.447h-7.066V12.606h11.535c3.476 0 6.194.779 8.153 2.337 1.96 1.558 2.939 3.76 2.939 6.606 0 2.06-.416 3.767-1.248 5.122-.818 1.355-2.107 2.452-3.865 3.292L154 41.894v.305h-7.569l-5.174-10.447zm-3.825-5.508h4.469c1.342 0 2.349-.353 3.02-1.057.684-.718 1.027-1.714 1.027-2.988s-.343-2.27-1.027-2.988c-.684-.731-1.691-1.097-3.02-1.097h-4.469v8.13zm45.538-8.798h-8.636v25.748h-4.774V17.446H161v-4.195h21.97v4.195zm10.557 26.159c-2.929 0-5.307-.993-7.133-2.981-1.813-2.002-2.72-4.662-2.72-7.98v-.617c0-2.221.393-4.202 1.179-5.943.799-1.755 1.915-3.12 3.348-4.093 1.433-.973 3.031-1.46 4.794-1.46 2.802 0 4.964.966 6.486 2.9 1.534 1.933 2.302 4.668 2.302 8.205v2.016h-13.449c.14 1.837.704 3.29 1.693 4.36 1.002 1.069 2.257 1.604 3.766 1.604 2.118 0 3.843-.926 5.174-2.777l2.492 2.571a8.605 8.605 0 01-3.31 3.106c-1.369.726-2.91 1.09-4.622 1.09zm-.551-19.064c-1.269 0-2.296.48-3.082 1.44-.774.96-1.268 2.296-1.484 4.01h8.807v-.37c-.101-1.673-.513-2.934-1.236-3.784-.723-.864-1.725-1.296-3.005-1.296zm17.328 18.653h-4.622V11.605h4.622v31.59zm14.114.411c-2.929 0-5.307-.993-7.133-2.981-1.813-2.002-2.72-4.662-2.72-7.98v-.617c0-2.221.393-4.202 1.18-5.943.798-1.755 1.914-3.12 3.347-4.093 1.433-.973 3.031-1.46 4.794-1.46 2.802 0 4.965.966 6.486 2.9 1.535 1.933 2.302 4.668 2.302 8.205v2.016h-13.448c.139 1.837.703 3.29 1.692 4.36 1.002 1.069 2.258 1.604 3.767 1.604 2.118 0 3.842-.926 5.174-2.777l2.492 2.571a8.619 8.619 0 01-3.31 3.106c-1.37.726-2.911 1.09-4.623 1.09zm-.551-19.064c-1.268 0-2.295.48-3.082 1.44-.773.96-1.268 2.296-1.483 4.01h8.807v-.37c-.102-1.673-.514-2.934-1.237-3.784-.723-.864-1.724-1.296-3.005-1.296zm20.867 15.075c1.154 0 2.111-.364 2.872-1.09.761-.727 1.167-1.625 1.217-2.694h4.356a7.799 7.799 0 01-1.198 3.887c-.748 1.192-1.763 2.138-3.043 2.838a8.52 8.52 0 01-4.147 1.048c-2.879 0-5.161-1.007-6.848-3.023-1.687-2.015-2.53-4.798-2.53-8.35v-.513c0-3.387.837-6.095 2.511-8.124 1.674-2.043 3.956-3.064 6.848-3.064 2.447 0 4.438.775 5.973 2.324 1.547 1.535 2.358 3.558 2.434 6.067h-4.356c-.05-1.275-.456-2.324-1.217-3.147-.748-.822-1.706-1.234-2.872-1.234-1.497 0-2.651.59-3.462 1.769-.812 1.165-1.224 2.94-1.237 5.326v.802c0 2.413.4 4.216 1.199 5.41.811 1.178 1.978 1.768 3.5 1.768zm11.07-7.753c0-2.18.4-4.141 1.199-5.882.799-1.755 1.921-3.099 3.367-4.031 1.445-.946 3.106-1.42 4.983-1.42 2.777 0 5.028.967 6.753 2.9 1.737 1.934 2.676 4.498 2.815 7.692l.019 1.172c0 2.194-.393 4.155-1.179 5.882-.774 1.728-1.89 3.064-3.348 4.01-1.446.947-3.12 1.42-5.022 1.42-2.904 0-5.231-1.043-6.981-3.127-1.737-2.097-2.606-4.887-2.606-8.37v-.247zm4.623.431c0 2.29.437 4.086 1.312 5.389.875 1.288 2.093 1.933 3.652 1.933 1.56 0 2.771-.658 3.633-1.974.875-1.317 1.313-3.243 1.313-5.78 0-2.248-.45-4.03-1.351-5.346-.887-1.317-2.098-1.975-3.633-1.975-1.509 0-2.707.651-3.595 1.954-.888 1.289-1.331 3.222-1.331 5.8zm22.769-11.352l.133 2.324c1.445-1.823 3.424-2.735 5.935-2.735 2.751 0 4.635 1.138 5.649 3.414 1.496-2.276 3.601-3.414 6.315-3.414 2.27 0 3.957.679 5.06 2.036 1.116 1.357 1.687 3.359 1.712 6.005v14.622h-4.622V28.716c0-1.412-.286-2.447-.856-3.105-.571-.659-1.516-.988-2.834-.988-1.053 0-1.915.309-2.587.926-.66.603-1.123 1.398-1.389 2.386l.019 15.26h-4.622V28.551c-.064-2.62-1.3-3.928-3.71-3.928-1.851 0-3.163.815-3.937 2.447v16.123h-4.622V20.942h4.356z" fill="#000"/><defs><clipPath id="clip0"><path fill="#fff" transform="translate(0 .605)" d="M0 0h51v57H0z"/></clipPath></defs></svg>