<svg width="208" height="53" viewBox="0 0 208 53" fill="none" xmlns="http://www.w3.org/2000/svg"><path fill-rule="evenodd" clip-rule="evenodd" d="M37.068.786L24.904 13.603l-6.338 6.676 5.907 6.224 12.163-12.816L48.8 26.503l-5.827 6.139 6.258 6.593L61.394 26.42 37.068.786z" fill="#141414"/><path fill-rule="evenodd" clip-rule="evenodd" d="M37.07 26.417L24.906 39.233 12.743 26.417l5.826-6.14-6.257-6.592L.148 26.5l24.327 25.632L36.64 39.316l6.336-6.678-5.905-6.222zm35.103 2.751c.679 0 1.238-.102 1.661-.32.822-.395 1.197-1.237 1.197-2.372 0-.941-.351-1.774-1.126-2.27-.446-.269-1.005-.37-1.78-.37h-.677v5.333h.725v-.002zm-3.935-8.073h4.031c1.405 0 2.58.201 3.488.689 1.684.841 2.602 2.447 2.602 4.693 0 1.9-.774 3.927-3.073 4.861-.87.345-1.939.563-3.304.563h-.543v5.458h-3.208V21.095h.008zm20.45 9.578l-.912-2.741a46.359 46.359 0 01-.702-2.423h-.048c-.12.572-.35 1.262-.774 2.448l-.933 2.717h3.368v-.001zm-2.994-9.654h2.602l6.305 16.34h-3.448l-1.501-3.978h-5.243l-1.429 3.978h-3.304l6.018-16.34zm15.22 7.46c.703 0 1.149-.127 1.549-.346.606-.395 1.029-1.059 1.029-1.976 0-.866-.375-1.606-1.054-1.976-.351-.228-.789-.345-1.5-.345h-1.221v4.643h1.197zm-4.405-7.384h4.612c1.381 0 2.41.219 3.233.613 1.78.816 2.458 2.372 2.458 4.096 0 2.119-1.261 3.608-3.001 4.172v.05c.471.269 1.149 1.16 1.972 2.667l2.505 4.666h-3.679l-2.035-3.902c-.774-1.531-1.317-2.144-1.684-2.246h-1.173v6.148h-3.208V21.095z" fill="#141414"/><path d="M113.915 21.097h-3.208V37.36h3.208V21.097z" fill="#141414"/><path fill-rule="evenodd" clip-rule="evenodd" d="M120.497 23.964h-4.501v-2.868h12.602l-.846 2.868h-4.046V37.36h-3.209V23.964zm9.904-2.868h8.924l-.847 2.868h-4.868v3.75h4.893v2.834h-4.893v3.953h5.691v2.859h-8.9V21.096zm15.014 2.868h-4.494v-2.868h12.594l-.838 2.868h-4.055V37.36h-3.207V23.964zm14.15 11.865c2.083 0 3.463-.866 3.463-3.035 0-1.825-1.284-2.986-3.255-2.986h-2.507v6.022h2.299zm-.614-7.552c2.059 0 3.16-1.059 3.16-2.868 0-1.622-.894-2.792-3.097-2.792h-1.755v5.652h1.692v.008zm-3.417-7.181h3.584c3.28 0 4.733 1.9 4.733 4.12 0 1.657-.774 2.961-2.035 3.533v.05c1.732.396 3.001 1.9 3.001 3.952 0 2.742-1.828 4.617-5.252 4.617h-4.031V21.096zm19.65 10.369l-1.596-4.693c-.495-1.43-.726-2.195-.918-2.808h-.048c-.191.622-.446 1.378-.933 2.808l-1.621 4.693h5.116zm-3.136-10.42h1.197l5.906 16.315h-1.876l-1.524-4.364h-6.21l-1.524 4.364h-1.828l5.859-16.315zm20.56 16.315l-7.399-10.318a91.52 91.52 0 01-2.18-3.137h-.047c.047.815.072 1.504.072 2.783v10.664h-1.732V21.096h1.66l7.119 9.923c.768 1.08 1.518 2.173 2.251 3.28h.048c-.048-.867-.048-1.581-.048-2.86V21.096h1.707V37.36h-1.451zm5.251-16.264h1.732v7.451h.048l5.857-7.451h2.06l-6.417 8.047 6.832 8.217h-2.17l-6.162-7.426h-.048v7.426h-1.732V21.096z" fill="#141414"/></svg>