<svg width="151" height="44" viewBox="0 0 151 44" fill="none" xmlns="http://www.w3.org/2000/svg"><rect width="151" height="43.728" rx="21.864" fill="#141414"/><path d="M30.427 14.99h-5.583v-2.828h14.192v2.829h-5.583v14.39h-3.026V14.99zm20.3 0h-5.584v-2.828h14.193v2.829h-5.584v14.39h-3.026V14.99zm30.881-2.828V29.38h-2.41l-9.47-11.93v11.93h-2.83V12.162h2.411l9.47 11.979V12.162h2.829zm20.808 16.258V12.163h2.828V19c.804-.64 1.779-.96 2.927-.96 1.624 0 2.903.526 3.838 1.575.951 1.017 1.426 2.37 1.426 4.059 0 1.82-.574 3.271-1.722 4.353-1.131 1.083-2.664 1.624-4.599 1.624a10.08 10.08 0 01-2.583-.345c-.853-.23-1.558-.524-2.115-.885zm5.091-7.723c-.902 0-1.656.353-2.263 1.058v4.698a3.745 3.745 0 002.017.566c.935 0 1.689-.279 2.263-.836.591-.574.886-1.345.886-2.313 0-1-.271-1.779-.812-2.336-.541-.558-1.238-.837-2.091-.837zm16.635-2.386h3.222l-4.354 11.07c-.787 1.918-1.492 3.213-2.115 3.886-.607.688-1.328 1.033-2.165 1.033-.787 0-1.582-.287-2.386-.861l.91-2.14c.427.262.812.393 1.157.393.672 0 1.238-.574 1.697-1.721l.246-.59-5.117-11.07h3.395l2.583 6.051c.032.082.213.615.541 1.6a9.78 9.78 0 01.393-1.624l1.993-6.027zm-34.634 1.504h4.783v4.783h-4.783z" fill="#fff"/></svg>