<svg width="76" height="74" viewBox="0 0 76 74" fill="none" xmlns="http://www.w3.org/2000/svg"><path d="M37.996 69.64C19.916 69.64 5.05 54.84 5.05 37c0-3.7.67-7.268 1.875-10.704l19.285 37c.268.529.536.925 1.206.925.67 0 .937-.396 1.205-.925l8.973-19.689c.134-.264.268-.396.402-.396.268 0 .268.264.402.396l9.107 19.69c.268.528.536.924 1.205.924.67 0 .938-.396 1.206-.925l19.285-37A31.014 31.014 0 0171.076 37c-.133 17.84-15 32.64-33.08 32.64zm0-41.097c-.268 0-.268-.264-.402-.397L27.282 6.211a31.998 31.998 0 0110.714-1.85c3.75 0 7.366.66 10.714 1.85L38.398 28.146c-.134.133-.134.397-.402.397zM27.148 52.329c-.268 0-.268-.265-.402-.397L9.871 19.954c2.947-4.758 7.232-8.722 12.188-11.497l11.92 25.372c.267.528.535.66.937.66h6.16c.402 0 .67-.132.938-.66L53.8 8.457c4.955 2.775 9.24 6.74 12.187 11.497l-16.74 31.978c-.135.264-.269.397-.403.397-.267 0-.267-.265-.401-.397l-6.429-14.007c-.268-.529-.536-.66-.938-.66h-6.16c-.402 0-.67.131-.938.66L27.55 51.932c-.134.132-.134.397-.402.397zM37.996 74c20.759 0 37.5-16.518 37.5-37S58.755 0 37.996 0 .496 16.518.496 37s16.741 37 37.5 37z" fill="#141414"/></svg>