<svg width="17" height="17" viewBox="0 0 17 17" fill="none" xmlns="http://www.w3.org/2000/svg"><path d="M7.048 12.957L5.044 14.96a2.124 2.124 0 11-3.005-3.004l4.007-4.007c.83-.83 2.175-.83 3.005 0a.708.708 0 101.001-1.002 3.541 3.541 0 00-5.008 0l-4.007 4.007a3.541 3.541 0 105.01 5.008l2.002-2.003a.708.708 0 10-1.001-1.002z" fill="#E4002B"/><path d="M15.962 1.037a3.542 3.542 0 00-5.008 0L8.55 3.441a.708.708 0 001.002 1.001l2.403-2.403a2.125 2.125 0 013.006 3.005L10.553 9.45c-.83.83-2.175.83-3.004 0a.708.708 0 00-1.002 1.002 3.541 3.541 0 005.008 0l4.407-4.408a3.541 3.541 0 000-5.008z" fill="#E4002B"/></svg>