<svg width="237" height="28" viewBox="0 0 237 28" fill="none" xmlns="http://www.w3.org/2000/svg"><path d="M26.612 0H0v27.22h26.612V0z" fill="#E7131E"/><path d="M12.32.527c.045.023.067.069.09.115.09.137.157.39.224.779.246 1.741.896 5.453-1.277 7.286-1.702 1.42-5.04.618-6.608-.39C4.032 7.86 1.546 5.89.739 3.781c-.313-.802.359-1.26.717-1.1.448.23.963.962 1.277 1.398C4.727 6.805 7.01 8.34 9.095 8.34c3.494 0 2.979-4.216 2.89-7.63 0-.022 0-.183.156-.229a.518.518 0 00.18.046zm-4.793 12.74c1.097-.39 2.755-.986 3.696-.07 1.254 1.238.94 3.78.313 6.37-.672 2.772-2.06 5.613-3.069 7.652h.18c.896-1.168 1.836-2.68 2.755-4.467.65-1.26 1.882-4.926 1.882-7.95 0-1.284-.09-2.567-.717-3.3-.851-1.008-2.531-.94-3.54-.756-3.292.55-6.585 3.024-9.027 6.163v2.13c1.68-2.542 5.623-5.108 7.527-5.773zm19.085 7.537c-3.18-.39-7.84-1.512-9.543-5.384-.761-1.719-.493-3.895.762-5.178 1.837-1.902 5.578-2.658 8.78-2.59V4.767c-3.36.206-10.527 1.283-11.334 7.95-.56 4.606 3.472 6.966 4.167 7.538 1.904 1.077 4.413 1.719 7.168 1.856v-1.306z" fill="#fff"/><path d="M72.019 9.76v2.842h19.309v2.726h-19.31v3.483H92.18v2.726H69.353V7.034h22.804v2.727H72.019zm-9.88-2.726L50.582 18.307 39.022 7.034H35.73v14.48h2.665V10.357l11.447 11.159h1.456l11.469-11.159v11.159h2.666V7.035H62.14zm60.393 6.163h-15.905v2.727h13.239v1.375c-2.173 1.054-5.69 1.833-10.058 1.833-7.504 0-12.5-2.933-12.5-4.858 0-2.428 4.302-4.903 12.5-4.903 5.242 0 8.871 1.008 10.82 2.36l1.478-2.245c-2.486-1.719-6.608-2.818-12.298-2.818-10.013 0-15.142 3.413-15.142 7.63 0 4.192 6.787 7.583 15.142 7.583 5.332 0 10.036-1.146 12.724-3.047v-5.636zm25.962 5.064h-17.921l-3.471 3.254h-3.943l16.375-15.328 16.374 15.328h-3.941l-3.473-3.254zm-2.89-2.704l-6.047-5.682-6.048 5.682h12.095zm30.376-8.523h-26.949v2.727h12.142v11.754h2.665V9.76h12.142V7.034zm15.165-.366c10.013 0 15.143 3.413 15.143 7.63 0 4.215-6.787 7.583-15.143 7.583-8.378 0-15.142-3.368-15.142-7.584 0-4.216 5.129-7.63 15.142-7.63zm12.478 7.606c0-2.428-4.302-4.903-12.501-4.903-8.198 0-12.499 2.475-12.499 4.903 0 1.925 4.972 4.858 12.499 4.858s12.501-2.91 12.501-4.858zm32.524-2.474c0 2.635-2.934 4.765-6.541 4.765h-17.673v4.95h-2.666V7.035h20.339c3.607 0 6.541 2.13 6.541 4.765zm-2.665 0c0-.985-1.545-2.04-3.876-2.04h-17.673v4.08h17.673c2.331 0 3.876-1.055 3.876-2.04z" fill="#000"/></svg>