<svg width="1054" height="124" viewBox="0 0 1054 124" fill="none" xmlns="http://www.w3.org/2000/svg"><path d="M118.35 0H0v120.542h118.35V0z" fill="#E7131E"/><path d="M54.792 2.333c.199.101.299.304.398.507.399.609.698 1.725.996 3.45 1.096 7.711 3.986 24.149-5.678 32.266-7.571 6.291-22.415 2.74-29.388-1.725-3.188-2.029-14.246-10.755-17.832-20.09-1.395-3.551 1.593-5.58 3.187-4.87 1.993 1.014 4.284 4.261 5.679 6.19C21.02 30.134 31.18 36.932 40.446 36.932c15.541 0 13.25-18.67 12.851-33.788 0-.102 0-.812.698-1.015.1.101.697.203.797.203zm-21.32 56.415c4.882-1.725 12.254-4.363 16.438-.304 5.58 5.479 4.184 16.741 1.395 28.207-2.989 12.278-9.165 24.859-13.648 33.89h.797c3.985-5.175 8.169-11.872 12.253-19.786 2.89-5.58 8.368-21.815 8.368-35.209 0-5.682-.398-11.364-3.188-14.61-3.785-4.465-11.257-4.161-15.74-3.35C25.503 50.023 10.86 60.98 0 74.882v9.436c7.472-11.263 25.005-22.628 33.473-25.57zm84.878 33.383c-14.146-1.726-34.868-6.698-42.438-23.845-3.388-7.61-2.192-17.25 3.387-22.931 8.168-8.422 24.805-11.77 39.051-11.466V21.104c-14.943.913-46.822 5.682-50.408 35.209-2.49 20.394 15.441 30.846 18.53 33.382 8.467 4.77 19.625 7.61 31.878 8.22V92.13z" fill="#fff"/><path d="M320.284 43.226v12.582h85.873v12.074h-85.873v15.423h89.659V95.38H308.429V31.152h101.414v12.074h-89.559zM276.35 31.152l-51.404 49.921-51.405-49.921h-14.644v64.126h11.855V45.864l50.907 49.414h6.475l51.006-49.414v49.414h11.855V31.152H276.35zm268.58 27.294h-70.731V70.52h58.876v6.088c-9.664 4.667-25.304 8.117-44.73 8.117-33.373 0-55.589-12.988-55.589-21.511 0-10.755 19.128-21.714 55.589-21.714 23.311 0 39.45 4.465 48.117 10.451l6.575-9.943c-11.058-7.61-29.388-12.48-54.692-12.48-44.531 0-67.344 15.118-67.344 33.787 0 18.569 30.185 33.586 67.344 33.586 23.71 0 44.63-5.074 56.585-13.495v-24.96zM660.39 80.87h-79.698l-15.438 14.408h-17.535l72.822-67.88 72.822 67.88h-17.529L660.39 80.87zm-12.851-11.973l-26.896-25.164-26.897 25.164h53.793zm135.087-37.745H662.78v12.074h53.996v52.052h11.854V43.226h53.996V31.152zm67.445-1.624c44.527 0 67.343 15.119 67.343 33.788 0 18.67-30.183 33.586-67.343 33.586-37.262 0-67.343-14.916-67.343-33.586 0-18.67 22.81-33.788 67.343-33.788zm55.49 33.687c0-10.755-19.13-21.714-55.592-21.714-36.461 0-55.585 10.959-55.585 21.714 0 8.523 22.111 21.511 55.585 21.511 33.475 0 55.592-12.886 55.592-21.511zm144.649-10.958c0 11.668-13.05 21.104-29.09 21.104h-78.602v21.917h-11.853V31.152h90.455c16.04 0 29.09 9.436 29.09 21.105zm-11.86 0c0-4.363-6.87-9.03-17.23-9.03h-78.602v18.06h78.602c10.36 0 17.23-4.667 17.23-9.03z" fill="#000"/></svg>