<svg width="662" height="440" viewBox="0 0 662 440" fill="none" xmlns="http://www.w3.org/2000/svg"><rect x="166.5" y="182.5" width="295" height="75" rx="7.5" stroke="#C5CDCF" stroke-width="5"/><g filter="url(#filter0_d)"><path d="M231.564 210.964l-2.371 4.395c-.364.676-.16 1.51.479 1.954l1.826 1.269c.413.288.659.751.659 1.245v1.812c0 .466-.219.907-.595 1.197l-1.967 1.519a1.5 1.5 0 00-.402 1.931l2.254 4.004c.399.709 1.297.995 2.052.654l2.49-1.127a1.618 1.618 0 011.501.088l2.065 1.246c.418.252.691.68.737 1.156l.224 2.306c.076.786.757 1.387 1.571 1.387h5.333c.815 0 1.495-.601 1.572-1.387l.225-2.324c.045-.466.308-.886.712-1.141l1.89-1.19a1.623 1.623 0 011.603-.067l1.875.97c.746.386 1.673.133 2.102-.573l2.339-3.848a1.504 1.504 0 00-.521-2.074l-1.846-1.122c-.46-.28-.74-.77-.74-1.297v-2.085c0-.513.265-.992.706-1.276l1.957-1.26c.69-.444.909-1.329.502-2.029l-2.533-4.347a1.6 1.6 0 00-1.855-.705l-2.123.659a1.619 1.619 0 01-1.299-.149l-2.023-1.189a1.525 1.525 0 01-.753-1.156l-.21-2.032c-.081-.782-.76-1.378-1.571-1.378h-5.2c-.872 0-1.578.685-1.578 1.531v1.707c0 .573-.33 1.097-.855 1.36l-2.481 1.242a1.615 1.615 0 01-1.149.114l-2.778-.754a1.597 1.597 0 00-1.824.764z" stroke="#7C267B" stroke-width="3"/></g><circle cx="243.873" cy="220.365" r="5.5" stroke="#DC40B1" stroke-width="3"/><path d="M279.28 227h-2.952v-16.8c.288 0 1.048-.008 2.28-.024 1.248-.016 2.08-.024 2.496-.024 1.184 0 2.208.152 3.072.456.88.288 1.56.696 2.04 1.224.48.512.832 1.08 1.056 1.704.224.608.336 1.28.336 2.016 0 1.52-.544 2.808-1.632 3.864-1.088 1.056-2.592 1.584-4.512 1.584-.976 0-1.704-.024-2.184-.072V227zm2.112-14.088c-.352 0-1.056.016-2.112.048v5.16c.768.08 1.464.12 2.088.12.928 0 1.68-.224 2.256-.672.576-.464.864-1.144.864-2.04 0-1.744-1.032-2.616-3.096-2.616zm15.882 11.064l.792 1.944c-1.056.896-2.432 1.344-4.128 1.344-1.744 0-3.152-.52-4.224-1.56-1.056-1.04-1.584-2.408-1.584-4.104 0-1.616.52-2.96 1.56-4.032 1.04-1.088 2.424-1.632 4.152-1.632 1.424 0 2.632.472 3.624 1.416.992.928 1.488 2.128 1.488 3.6 0 .608-.056 1.104-.168 1.488h-7.8c.112.8.464 1.424 1.056 1.872.592.432 1.32.648 2.184.648 1.216 0 2.232-.328 3.048-.984zm-3.552-5.736c-1.568 0-2.512.784-2.832 2.352h5.304c.016-.672-.2-1.232-.648-1.68-.448-.448-1.056-.672-1.824-.672zm8.295.744l-.696-2.016a7.385 7.385 0 013.816-1.032c1.536 0 2.64.376 3.312 1.128.672.752 1.008 1.872 1.008 3.36V227h-2.4v-1.248c-.656.928-1.72 1.392-3.192 1.392-1.008 0-1.824-.296-2.448-.888-.624-.592-.936-1.4-.936-2.424 0-1.136.368-2 1.104-2.592.736-.608 1.68-.912 2.832-.912.992 0 1.808.232 2.448.696.032-.944-.104-1.64-.408-2.088-.304-.464-.84-.696-1.608-.696-.8 0-1.744.248-2.832.744zm2.76 5.832c.928 0 1.624-.328 2.088-.984v-1.104c-.464-.352-1.096-.528-1.896-.528-.496 0-.912.12-1.248.36-.32.224-.48.552-.48.984 0 .4.144.712.432.936.288.224.656.336 1.104.336zM319.39 227v-8.04h-2.856l-.072 1.152c-.176 1.936-.472 3.424-.888 4.464-.4 1.04-.912 1.744-1.536 2.112-.608.352-1.424.528-2.448.528l-.24-2.688a1.4 1.4 0 00.984-.288c.32-.24.624-.752.912-1.536.288-.8.472-1.848.552-3.144l.168-3.36h8.184V227h-2.76zm8.594 0h-2.76v-10.8h2.76v6.84l5.04-6.84h2.76V227h-2.76v-6.84l-5.04 6.84zm14.696.264a7.8 7.8 0 01-2.76-.504c-.896-.352-1.544-.784-1.944-1.296l1.416-1.728c.32.368.776.68 1.368.936.608.256 1.168.384 1.68.384.704 0 1.248-.12 1.632-.36.384-.24.576-.56.576-.96a1.07 1.07 0 00-.432-.888c-.288-.224-.688-.336-1.2-.336H341v-1.848h1.896c.432 0 .776-.128 1.032-.384.272-.256.408-.568.408-.936 0-.784-.632-1.176-1.896-1.176-.992 0-1.976.416-2.952 1.248l-1.152-1.656c1.04-1.216 2.584-1.824 4.632-1.824 1.408 0 2.48.272 3.216.816.736.544 1.104 1.296 1.104 2.256 0 .528-.176 1.008-.528 1.44-.352.432-.84.752-1.464.96v.048c.736.144 1.296.448 1.68.912.4.448.6.992.6 1.632 0 1.008-.448 1.808-1.344 2.4-.896.576-2.08.864-3.552.864zm8.344-8.28l-.696-2.016a7.385 7.385 0 013.816-1.032c1.536 0 2.64.376 3.312 1.128.672.752 1.008 1.872 1.008 3.36V227h-2.4v-1.248c-.656.928-1.72 1.392-3.192 1.392-1.008 0-1.824-.296-2.448-.888-.624-.592-.936-1.4-.936-2.424 0-1.136.368-2 1.104-2.592.736-.608 1.68-.912 2.832-.912.992 0 1.808.232 2.448.696.032-.944-.104-1.64-.408-2.088-.304-.464-.84-.696-1.608-.696-.8 0-1.744.248-2.832.744zm2.76 5.832c.928 0 1.624-.328 2.088-.984v-1.104c-.464-.352-1.096-.528-1.896-.528-.496 0-.912.12-1.248.36-.32.224-.48.552-.48.984 0 .4.144.712.432.936.288.224.656.336 1.104.336zm7.51 2.184v-10.8h2.76v8.232h4.44V216.2h2.76v8.232h1.8v5.088h-2.592V227h-9.168zm16.354 0h-2.76v-10.8h2.76v6.84l5.04-6.84h2.76V227h-2.76v-6.84l-5.04 6.84zm16.16-10.8h3.528V227h-2.76v-3.24h-1.536l-2.232 3.24h-3.168l2.88-3.84c-.544-.192-1.032-.552-1.464-1.08-.416-.544-.624-1.224-.624-2.04 0-1.136.432-2.056 1.296-2.76.88-.72 2.24-1.08 4.08-1.08zm-2.424 4.032c0 .432.176.792.528 1.08.368.272.776.408 1.224.408h1.44v-3.12h-1.224c-.624 0-1.112.16-1.464.48-.336.32-.504.704-.504 1.152z" fill="#141414"/><path d="M310 37h23c5.523 0 10 4.477 10 10v31" stroke="#C5CDCF" stroke-width="4" stroke-linecap="round"/><path d="M334.5 66l7.182 12.569a1 1 0 001.709.044L351.5 66m37.5 61h23c5.523 0 10 4.477 10 10v31" stroke="#C5CDCF" stroke-width="4" stroke-linecap="round"/><path d="M413.5 156l7.182 12.569a1 1 0 001.709.044L430.5 156m43.5 61h23c5.523 0 10 4.477 10 10v31" stroke="#C5CDCF" stroke-width="4" stroke-linecap="round"/><path d="M498.5 246l7.182 12.569a1 1 0 001.709.044L515.5 246m42.5 61h23c5.523 0 10 4.477 10 10v31" stroke="#C5CDCF" stroke-width="4" stroke-linecap="round"/><path d="M582.5 336l7.182 12.569a1 1 0 001.709.044L599.5 336" stroke="#C5CDCF" stroke-width="4" stroke-linecap="round"/><rect x="364.5" y="362.5" width="295" height="75" rx="7.5" stroke="#C5CDCF" stroke-width="5"/><path d="M467.488 399.824v-2.76h7.488c-.288-1.392-.968-2.464-2.04-3.216-1.072-.768-2.408-1.152-4.008-1.152-1.472 0-2.784.432-3.936 1.296l-1.152-2.208c1.44-1.232 3.368-1.848 5.784-1.848 2.496 0 4.528.792 6.096 2.376 1.568 1.584 2.352 3.672 2.352 6.264 0 2.64-.792 4.752-2.376 6.336-1.584 1.568-3.72 2.352-6.408 2.352-1.136 0-2.208-.16-3.216-.48-1.008-.336-1.816-.76-2.424-1.272l1.272-2.472c1.264.976 2.704 1.464 4.32 1.464 1.504 0 2.784-.4 3.84-1.2 1.072-.816 1.728-1.976 1.968-3.48h-7.56zm23.42-3.624l-4.152 5.136 4.656 5.664h-3.6l-4.272-5.448 3.888-5.352h3.48zM480.684 407v-10.8h2.76V407h-2.76zm19.88-3.624l1.296 2.016c-.448.608-1.056 1.072-1.824 1.392-.752.32-1.576.48-2.472.48-1.76 0-3.176-.52-4.248-1.56s-1.608-2.408-1.608-4.104c0-1.6.528-2.944 1.584-4.032s2.392-1.632 4.008-1.632c1.92 0 3.368.488 4.344 1.464l-1.296 2.184c-.72-.704-1.616-1.056-2.688-1.056-.8 0-1.504.288-2.112.864-.592.56-.888 1.296-.888 2.208 0 .928.304 1.68.912 2.256.624.56 1.36.84 2.208.84 1.056 0 1.984-.44 2.784-1.32zM511.443 407v-8.208h-4.608V407h-2.76v-10.8h10.128V407h-2.76zm12.931 0v-8.04h-2.856l-.072 1.152c-.176 1.936-.472 3.424-.888 4.464-.4 1.04-.912 1.744-1.536 2.112-.608.352-1.424.528-2.448.528l-.24-2.688a1.4 1.4 0 00.984-.288c.32-.24.624-.752.912-1.536.288-.8.472-1.848.552-3.144l.168-3.36h8.184V407h-2.76zm16.25-10.8l-4.248 10.8c-.768 1.872-1.456 3.136-2.064 3.792-.592.672-1.296 1.008-2.112 1.008-.784 0-1.56-.28-2.328-.84l.888-2.088c.432.256.808.384 1.128.384.656 0 1.208-.56 1.656-1.68l.24-.576-4.992-10.8h3.312l2.52 5.904c.096.24.272.76.528 1.56.128-.704.256-1.232.384-1.584l1.944-5.88h3.144zm2.494 2.784l-.696-2.016a7.385 7.385 0 013.816-1.032c1.536 0 2.64.376 3.312 1.128.672.752 1.008 1.872 1.008 3.36V407h-2.4v-1.248c-.656.928-1.72 1.392-3.192 1.392-1.008 0-1.824-.296-2.448-.888-.624-.592-.936-1.4-.936-2.424 0-1.136.368-2 1.104-2.592.736-.608 1.68-.912 2.832-.912.992 0 1.808.232 2.448.696.032-.944-.104-1.64-.408-2.088-.304-.464-.84-.696-1.608-.696-.8 0-1.744.248-2.832.744zm2.76 5.832c.928 0 1.624-.328 2.088-.984v-1.104c-.464-.352-1.096-.528-1.896-.528-.496 0-.912.12-1.248.36-.32.224-.48.552-.48.984 0 .4.144.712.432.936.288.224.656.336 1.104.336zm6.382-5.856v-2.76h9.84v2.76h-3.528V407h-2.76v-8.04h-3.552zm12.655.024l-.696-2.016a7.385 7.385 0 013.816-1.032c1.536 0 2.64.376 3.312 1.128.672.752 1.008 1.872 1.008 3.36V407h-2.4v-1.248c-.656.928-1.72 1.392-3.192 1.392-1.008 0-1.824-.296-2.448-.888-.624-.592-.936-1.4-.936-2.424 0-1.136.368-2 1.104-2.592.736-.608 1.68-.912 2.832-.912.992 0 1.808.232 2.448.696.032-.944-.104-1.64-.408-2.088-.304-.464-.84-.696-1.608-.696-.8 0-1.744.248-2.832.744zm2.76 5.832c.928 0 1.624-.328 2.088-.984v-1.104c-.464-.352-1.096-.528-1.896-.528-.496 0-.912.12-1.248.36-.32.224-.48.552-.48.984 0 .4.144.712.432.936.288.224.656.336 1.104.336zm7.509 2.184v-10.8h2.76v8.232h4.44V396.2h2.76v8.232h1.8v5.088h-2.592V407h-9.168zm16.354 0h-2.76v-10.8h2.76v6.84l5.04-6.84h2.76V407h-2.76v-6.84l-5.04 6.84zm16.161-10.8h3.528V407h-2.76v-3.24h-1.536l-2.232 3.24h-3.168l2.88-3.84c-.544-.192-1.032-.552-1.464-1.08-.416-.544-.624-1.224-.624-2.04 0-1.136.432-2.056 1.296-2.76.88-.72 2.24-1.08 4.08-1.08zm-2.424 4.032c0 .432.176.792.528 1.08.368.272.776.408 1.224.408h1.44v-3.12h-1.224c-.624 0-1.112.16-1.464.48-.336.32-.504.704-.504 1.152z" fill="#141414"/><g filter="url(#filter1_d)"><path fill-rule="evenodd" clip-rule="evenodd" d="M424.575 386.078l-10.736 6.253 10.736 5.78 10.835-5.78-10.835-6.253zM437 394.883l-10.929 5.83v12.03l3.578-1.971c.308.968.758 1.874 1.327 2.694l-5.681 3.13-.727.4-.726-.403-13.801-7.674.145-.261a1.496 1.496 0 01-.186-.724v-15.856a1.5 1.5 0 01.946-1.394c.169-.189.373-.357.612-.496l11.757-6.848a2.5 2.5 0 012.508-.005l13.427 7.749.75.433v6.035a10.49 10.49 0 00-3 .285v-2.954zm-13.929 17.848L413 407.132v-11.845l10.071 5.422v12.022z" fill="#7C267B"/></g><g filter="url(#filter2_d)"><path d="M433.033 406.23l5.007 5.458a1 1 0 001.474 0l7.519-8.197" stroke="#DC40B1" stroke-width="4"/></g><rect x="2.5" y="2.5" width="295" height="75" rx="7.5" fill="#F6F4F2" stroke="#C5CDCF" stroke-width="5"/><path d="M135.168 47l7.104-16.848h2.592L151.968 47h-3.144l-1.752-4.296h-7.176L138.144 47h-2.976zm8.328-13.032l-2.472 5.976h4.92l-2.448-5.976zM161.18 47v-4.128h-4.728V47h-2.76V36.2h2.76v4.08h4.728V36.2h2.76V47h-2.76zm6.665-8.016l-.696-2.016a7.385 7.385 0 013.816-1.032c1.536 0 2.64.376 3.312 1.128.672.752 1.008 1.872 1.008 3.36V47h-2.4v-1.248c-.656.928-1.72 1.392-3.192 1.392-1.008 0-1.824-.296-2.448-.888-.624-.592-.936-1.4-.936-2.424 0-1.136.368-2 1.104-2.592.736-.608 1.68-.912 2.832-.912.992 0 1.808.232 2.448.696.032-.944-.104-1.64-.408-2.088-.304-.464-.84-.696-1.608-.696-.8 0-1.744.248-2.832.744zm2.76 5.832c.928 0 1.624-.328 2.088-.984v-1.104c-.464-.352-1.096-.528-1.896-.528-.496 0-.912.12-1.248.36-.32.224-.48.552-.48.984 0 .4.144.712.432.936.288.224.656.336 1.104.336zM185.218 47v-8.04h-2.856l-.072 1.152c-.176 1.936-.472 3.424-.888 4.464-.4 1.04-.912 1.744-1.536 2.112-.608.352-1.424.528-2.448.528l-.24-2.688a1.4 1.4 0 00.984-.288c.32-.24.624-.752.912-1.536.288-.8.472-1.848.552-3.144l.168-3.36h8.184V47h-2.76zm8.594 0h-2.76V36.2h2.76v6.84l5.04-6.84h2.76V47h-2.76v-6.84l-5.04 6.84zm14.696.264a7.8 7.8 0 01-2.76-.504c-.896-.352-1.544-.784-1.944-1.296l1.416-1.728c.32.368.776.68 1.368.936.608.256 1.168.384 1.68.384.704 0 1.248-.12 1.632-.36.384-.24.576-.56.576-.96a1.07 1.07 0 00-.432-.888c-.288-.224-.688-.336-1.2-.336h-2.016v-1.848h1.896c.432 0 .776-.128 1.032-.384.272-.256.408-.568.408-.936 0-.784-.632-1.176-1.896-1.176-.992 0-1.976.416-2.952 1.248l-1.152-1.656c1.04-1.216 2.584-1.824 4.632-1.824 1.408 0 2.48.272 3.216.816.736.544 1.104 1.296 1.104 2.256 0 .528-.176 1.008-.528 1.44-.352.432-.84.752-1.464.96v.048c.736.144 1.296.448 1.68.912.4.448.6.992.6 1.632 0 1.008-.448 1.808-1.344 2.4-.896.576-2.08.864-3.552.864z" fill="#141414"/><g filter="url(#filter3_d)"><path d="M86 50V37a2 2 0 012-2h5a2 2 0 012 2v13a2 2 0 01-2 2h-5a2 2 0 01-2-2zm11 0v-7a2 2 0 012-2h4a2 2 0 012 2v7a2 2 0 01-2 2h-4a2 2 0 01-2-2z" fill="#7C267B"/><path d="M87 57.5h28" stroke="#7C267B" stroke-width="3" stroke-linecap="round"/><path d="M107 50V26a2 2 0 012-2h4a2 2 0 012 2v24a2 2 0 01-2 2h-4a2 2 0 01-2-2z" fill="#DC40B1"/></g><rect x="81.5" y="92.5" width="295" height="75" rx="7.5" stroke="#C5CDCF" stroke-width="5"/><path d="M176.768 135v-14.04h-7.488V135h-2.952v-16.8h13.392V135h-2.952zm6.815 4.8v-15.6h2.76v1.032c.352-.368.824-.672 1.416-.912a4.898 4.898 0 011.92-.384c1.472 0 2.656.512 3.552 1.536.896 1.024 1.344 2.344 1.344 3.96 0 1.68-.528 3.072-1.584 4.176s-2.432 1.656-4.128 1.656c-1.072 0-1.912-.176-2.52-.528v5.064h-2.76zm5.232-13.272c-.944 0-1.768.392-2.472 1.176v4.368c.64.416 1.4.624 2.28.624.928 0 1.664-.296 2.208-.888.544-.608.816-1.376.816-2.304 0-.88-.248-1.592-.744-2.136-.496-.56-1.192-.84-2.088-.84zm9.087 7.152c-1.072-1.072-1.608-2.432-1.608-4.08 0-1.648.536-3 1.608-4.056 1.088-1.072 2.512-1.608 4.272-1.608 1.76 0 3.176.536 4.248 1.608 1.088 1.056 1.632 2.408 1.632 4.056 0 1.648-.544 3.008-1.632 4.08-1.072 1.056-2.488 1.584-4.248 1.584-1.76 0-3.184-.528-4.272-1.584zm1.344-4.08c0 .896.272 1.64.816 2.232.56.576 1.264.864 2.112.864.864 0 1.568-.28 2.112-.84.56-.576.84-1.328.84-2.256 0-.896-.28-1.632-.84-2.208-.56-.576-1.264-.864-2.112-.864-.832 0-1.528.288-2.088.864-.56.56-.84 1.296-.84 2.208zm19.668 2.376l.792 1.944c-1.056.896-2.432 1.344-4.128 1.344-1.744 0-3.152-.52-4.224-1.56-1.056-1.04-1.584-2.408-1.584-4.104 0-1.616.52-2.96 1.56-4.032 1.04-1.088 2.424-1.632 4.152-1.632 1.424 0 2.632.472 3.624 1.416.992.928 1.488 2.128 1.488 3.6 0 .608-.056 1.104-.168 1.488h-7.8c.112.8.464 1.424 1.056 1.872.592.432 1.32.648 2.184.648 1.216 0 2.232-.328 3.048-.984zm-3.552-5.736c-1.568 0-2.512.784-2.832 2.352h5.304c.016-.672-.2-1.232-.648-1.68-.448-.448-1.056-.672-1.824-.672zm17.679-2.04l-4.152 5.136 4.656 5.664h-3.6l-4.272-5.448 3.888-5.352h3.48zM222.817 135v-10.8h2.76V135h-2.76zm11.224-8.04v-2.76h9.84v2.76h-3.528V135h-2.76v-8.04h-3.552zm14.575 8.04h-2.76v-10.8h2.76v6.84l5.04-6.84h2.76V135h-2.76v-6.84l-5.04 6.84zm10.881 4.8v-15.6h2.76v1.032c.352-.368.824-.672 1.416-.912a4.898 4.898 0 011.92-.384c1.472 0 2.656.512 3.552 1.536.896 1.024 1.344 2.344 1.344 3.96 0 1.68-.528 3.072-1.584 4.176s-2.432 1.656-4.128 1.656c-1.072 0-1.912-.176-2.52-.528v5.064h-2.76zm5.232-13.272c-.944 0-1.768.392-2.472 1.176v4.368c.64.416 1.4.624 2.28.624.928 0 1.664-.296 2.208-.888.544-.608.816-1.376.816-2.304 0-.88-.248-1.592-.744-2.136-.496-.56-1.192-.84-2.088-.84zm9.087 7.152c-1.072-1.072-1.608-2.432-1.608-4.08 0-1.648.536-3 1.608-4.056 1.088-1.072 2.512-1.608 4.272-1.608 1.76 0 3.176.536 4.248 1.608 1.088 1.056 1.632 2.408 1.632 4.056 0 1.648-.544 3.008-1.632 4.08-1.072 1.056-2.488 1.584-4.248 1.584-1.76 0-3.184-.528-4.272-1.584zm1.344-4.08c0 .896.272 1.64.816 2.232.56.576 1.264.864 2.112.864.864 0 1.568-.28 2.112-.84.56-.576.84-1.328.84-2.256 0-.896-.28-1.632-.84-2.208-.56-.576-1.264-.864-2.112-.864-.832 0-1.528.288-2.088.864-.56.56-.84 1.296-.84 2.208zm11.196 5.4v-10.8c.192 0 .544-.008 1.056-.024a51.715 51.715 0 013.192-.096c3.264 0 4.896.944 4.896 2.832 0 .624-.2 1.16-.6 1.608a2.231 2.231 0 01-1.416.792v.048c1.536.368 2.304 1.2 2.304 2.496 0 2.176-1.712 3.264-5.136 3.264a55.3 55.3 0 01-2.28-.072 86.639 86.639 0 00-2.016-.048zm4.488-4.584h-1.728v2.4c1.088.064 1.696.096 1.824.096.608 0 1.08-.112 1.416-.336.352-.224.528-.528.528-.912 0-.832-.68-1.248-2.04-1.248zm0-4.104c-.768 0-1.344.016-1.728.048v2.376h1.8c.48 0 .872-.104 1.176-.312.32-.224.48-.536.48-.936 0-.784-.576-1.176-1.728-1.176zm8.399.672l-.696-2.016a7.385 7.385 0 013.816-1.032c1.536 0 2.64.376 3.312 1.128.672.752 1.008 1.872 1.008 3.36V135h-2.4v-1.248c-.656.928-1.72 1.392-3.192 1.392-1.008 0-1.824-.296-2.448-.888-.624-.592-.936-1.4-.936-2.424 0-1.136.368-2 1.104-2.592.736-.608 1.68-.912 2.832-.912.992 0 1.808.232 2.448.696.032-.944-.104-1.64-.408-2.088-.304-.464-.84-.696-1.608-.696-.8 0-1.744.248-2.832.744zm2.76 5.832c.928 0 1.624-.328 2.088-.984v-1.104c-.464-.352-1.096-.528-1.896-.528-.496 0-.912.12-1.248.36-.32.224-.48.552-.48.984 0 .4.144.712.432.936.288.224.656.336 1.104.336zM317.001 135v-4.128h-4.728V135h-2.76v-10.8h2.76v4.08h4.728v-4.08h2.76V135h-2.76zm8.584 0h-2.76v-10.8h2.76v6.84l5.04-6.84h2.76V135h-2.76v-6.84l-5.04 6.84zm19.353-3.024l.792 1.944c-1.056.896-2.432 1.344-4.128 1.344-1.744 0-3.152-.52-4.224-1.56-1.056-1.04-1.584-2.408-1.584-4.104 0-1.616.52-2.96 1.56-4.032 1.04-1.088 2.424-1.632 4.152-1.632 1.424 0 2.632.472 3.624 1.416.992.928 1.488 2.128 1.488 3.6 0 .608-.056 1.104-.168 1.488h-7.8c.112.8.464 1.424 1.056 1.872.592.432 1.32.648 2.184.648 1.216 0 2.232-.328 3.048-.984zm-3.552-5.736c-1.568 0-2.512.784-2.832 2.352h5.304c.016-.672-.2-1.232-.648-1.68-.448-.448-1.056-.672-1.824-.672z" fill="#141414"/><g filter="url(#filter4_d)" stroke="#7C267B"><path d="M139.092 141.068l-17.678-17.678a2 2 0 010-2.828l2.122-2.122a2 2 0 012.828 0l17.678 17.678a2 2 0 010 2.829l-2.121 2.121a2 2 0 01-2.829 0z" fill="#fff" stroke-width="3"/><path d="M123.614 124.831l2-2m0 4l2-2m9 13l2-2m0 4l2-2" stroke-width="2"/></g><path d="M121.198 136.335l17.737-17.737a1.98 1.98 0 01.572-.4l4.891-2.271c.794-.369 1.644.388 1.371 1.219l-1.826 5.56c-.095.29-.256.554-.468.772l-17.328 17.77a2 2 0 01-2.846.018l-2.103-2.103a2 2 0 010-2.828z" fill="#fff" stroke="#DC40B1" stroke-width="3"/><rect x="250.5" y="272.5" width="295" height="75" rx="7.5" stroke="#C5CDCF" stroke-width="5"/><path d="M361.328 316.976v-16.728c1.568-.08 3.184-.12 4.848-.12 1.904 0 3.296.384 4.176 1.152.896.752 1.344 1.752 1.344 3 0 1.792-.8 3.064-2.4 3.816v.048c.88.224 1.592.664 2.136 1.32s.816 1.52.816 2.592c0 1.664-.576 2.92-1.728 3.768-1.136.848-2.64 1.272-4.512 1.272-2.032 0-3.592-.04-4.68-.12zm5.04-7.2h-2.088v4.44c.672.08 1.32.12 1.944.12 2.048 0 3.072-.808 3.072-2.424 0-.704-.256-1.232-.768-1.584-.512-.368-1.232-.552-2.16-.552zm-.24-6.888c-.704 0-1.32.024-1.848.072v4.248h1.992c.736 0 1.336-.184 1.8-.552.464-.384.696-.944.696-1.68 0-.672-.24-1.184-.72-1.536-.464-.368-1.104-.552-1.92-.552zM382.837 317v-4.128h-4.728V317h-2.76v-10.8h2.76v4.08h4.728v-4.08h2.76V317h-2.76zm14.296-3.024l.792 1.944c-1.056.896-2.432 1.344-4.128 1.344-1.744 0-3.152-.52-4.224-1.56-1.056-1.04-1.584-2.408-1.584-4.104 0-1.616.52-2.96 1.56-4.032 1.04-1.088 2.424-1.632 4.152-1.632 1.424 0 2.632.472 3.624 1.416.992.928 1.488 2.128 1.488 3.6 0 .608-.056 1.104-.168 1.488h-7.8c.112.8.464 1.424 1.056 1.872.592.432 1.32.648 2.184.648 1.216 0 2.232-.328 3.048-.984zm-3.552-5.736c-1.568 0-2.512.784-2.832 2.352h5.304c.016-.672-.2-1.232-.648-1.68-.448-.448-1.056-.672-1.824-.672zm5.807 11.28v-5.088h1.368c.848-1.12 1.352-3 1.512-5.64l.168-2.592h7.968v8.232h1.8v5.088h-2.592V317h-7.656v2.52h-2.568zm5.544-9.624c-.192 2.096-.624 3.608-1.296 4.536h4.008v-5.64h-2.64l-.072 1.104zm9.088 11.904v-15.6h2.76v1.032c.352-.368.824-.672 1.416-.912a4.898 4.898 0 011.92-.384c1.472 0 2.656.512 3.552 1.536.896 1.024 1.344 2.344 1.344 3.96 0 1.68-.528 3.072-1.584 4.176s-2.432 1.656-4.128 1.656c-1.072 0-1.912-.176-2.52-.528v5.064h-2.76zm5.232-13.272c-.944 0-1.768.392-2.472 1.176v4.368c.64.416 1.4.624 2.28.624.928 0 1.664-.296 2.208-.888.544-.608.816-1.376.816-2.304 0-.88-.248-1.592-.744-2.136-.496-.56-1.192-.84-2.088-.84zm16.623 5.448l.792 1.944c-1.056.896-2.432 1.344-4.128 1.344-1.744 0-3.152-.52-4.224-1.56-1.056-1.04-1.584-2.408-1.584-4.104 0-1.616.52-2.96 1.56-4.032 1.04-1.088 2.424-1.632 4.152-1.632 1.424 0 2.632.472 3.624 1.416.992.928 1.488 2.128 1.488 3.6 0 .608-.056 1.104-.168 1.488h-7.8c.112.8.464 1.424 1.056 1.872.592.432 1.32.648 2.184.648 1.216 0 2.232-.328 3.048-.984zm-3.552-5.736c-1.568 0-2.512.784-2.832 2.352h5.304c.016-.672-.2-1.232-.648-1.68-.448-.448-1.056-.672-1.824-.672zm14.943 8.76v-4.128h-4.728V317h-2.76v-10.8h2.76v4.08h4.728v-4.08h2.76V317h-2.76zm8.585 0h-2.76v-10.8h2.76v6.84l5.04-6.84h2.76V317h-2.76v-6.84l-5.04 6.84zm19.352-3.024l.792 1.944c-1.056.896-2.432 1.344-4.128 1.344-1.744 0-3.152-.52-4.224-1.56-1.056-1.04-1.584-2.408-1.584-4.104 0-1.616.52-2.96 1.56-4.032 1.04-1.088 2.424-1.632 4.152-1.632 1.424 0 2.632.472 3.624 1.416.992.928 1.488 2.128 1.488 3.6 0 .608-.056 1.104-.168 1.488h-7.8c.112.8.464 1.424 1.056 1.872.592.432 1.32.648 2.184.648 1.216 0 2.232-.328 3.048-.984zm-3.552-5.736c-1.568 0-2.512.784-2.832 2.352h5.304c.016-.672-.2-1.232-.648-1.68-.448-.448-1.056-.672-1.824-.672z" fill="#141414"/><g filter="url(#filter5_d)"><path d="M324 325v-24a3 3 0 013-3h14a3 3 0 013 3v24a3 3 0 01-3 3h-14a3 3 0 01-3-3z" fill="#F6F4F2"/><path d="M324 325v-24a3 3 0 013-3h14a3 3 0 013 3v24a3 3 0 01-3 3h-14a3 3 0 01-3-3z" stroke="#DC40B1" stroke-width="4"/></g><path d="M318 319v-24a3 3 0 013-3h14a3 3 0 013 3v24a3 3 0 01-3 3h-14a3 3 0 01-3-3z" fill="#F6F4F2" stroke="#7C267B" stroke-width="4"/><defs><filter id="filter0_d" x="225.5" y="201.5" width="44.001" height="44" filterUnits="userSpaceOnUse" color-interpolation-filters="sRGB"><feFlood flood-opacity="0" result="BackgroundImageFix"/><feColorMatrix in="SourceAlpha" values="0 0 0 0 0 0 0 0 0 0 0 0 0 0 0 0 0 0 127 0"/><feOffset dx="3" dy="3"/><feGaussianBlur stdDeviation="2.5"/><feColorMatrix values="0 0 0 0 0.441667 0 0 0 0 0.182187 0 0 0 0 0.438297 0 0 0 0.4 0"/><feBlend in2="BackgroundImageFix" result="effect1_dropShadow"/><feBlend in="SourceGraphic" in2="effect1_dropShadow" result="shape"/></filter><filter id="filter1_d" x="408" y="381" width="40.001" height="43.996" filterUnits="userSpaceOnUse" color-interpolation-filters="sRGB"><feFlood flood-opacity="0" result="BackgroundImageFix"/><feColorMatrix in="SourceAlpha" values="0 0 0 0 0 0 0 0 0 0 0 0 0 0 0 0 0 0 127 0"/><feOffset dx="3" dy="3"/><feGaussianBlur stdDeviation="2.5"/><feColorMatrix values="0 0 0 0 0.441667 0 0 0 0 0.182187 0 0 0 0 0.438297 0 0 0 0.4 0"/><feBlend in2="BackgroundImageFix" result="effect1_dropShadow"/><feBlend in="SourceGraphic" in2="effect1_dropShadow" result="shape"/></filter><filter id="filter2_d" x="429.559" y="400.139" width="26.948" height="21.873" filterUnits="userSpaceOnUse" color-interpolation-filters="sRGB"><feFlood flood-opacity="0" result="BackgroundImageFix"/><feColorMatrix in="SourceAlpha" values="0 0 0 0 0 0 0 0 0 0 0 0 0 0 0 0 0 0 127 0"/><feOffset dx="3" dy="3"/><feGaussianBlur stdDeviation="2.5"/><feColorMatrix values="0 0 0 0 0.7125 0 0 0 0 0.175156 0 0 0 0 0.564386 0 0 0 0.4 0"/><feBlend in2="BackgroundImageFix" result="effect1_dropShadow"/><feBlend in="SourceGraphic" in2="effect1_dropShadow" result="shape"/></filter><filter id="filter3_d" x="83.5" y="22" width="41" height="45" filterUnits="userSpaceOnUse" color-interpolation-filters="sRGB"><feFlood flood-opacity="0" result="BackgroundImageFix"/><feColorMatrix in="SourceAlpha" values="0 0 0 0 0 0 0 0 0 0 0 0 0 0 0 0 0 0 127 0"/><feOffset dx="3" dy="3"/><feGaussianBlur stdDeviation="2.5"/><feColorMatrix values="0 0 0 0 0.441667 0 0 0 0 0.182187 0 0 0 0 0.438297 0 0 0 0.4 0"/><feBlend in2="BackgroundImageFix" result="effect1_dropShadow"/><feBlend in="SourceGraphic" in2="effect1_dropShadow" result="shape"/></filter><filter id="filter4_d" x="117.329" y="114.355" width="36.799" height="36.799" filterUnits="userSpaceOnUse" color-interpolation-filters="sRGB"><feFlood flood-opacity="0" result="BackgroundImageFix"/><feColorMatrix in="SourceAlpha" values="0 0 0 0 0 0 0 0 0 0 0 0 0 0 0 0 0 0 127 0"/><feOffset dx="3" dy="3"/><feGaussianBlur stdDeviation="2.5"/><feColorMatrix values="0 0 0 0 0.441667 0 0 0 0 0.182187 0 0 0 0 0.438297 0 0 0 0.4 0"/><feBlend in2="BackgroundImageFix" result="effect1_dropShadow"/><feBlend in="SourceGraphic" in2="effect1_dropShadow" result="shape"/></filter><filter id="filter5_d" x="320" y="294" width="34" height="44" filterUnits="userSpaceOnUse" color-interpolation-filters="sRGB"><feFlood flood-opacity="0" result="BackgroundImageFix"/><feColorMatrix in="SourceAlpha" values="0 0 0 0 0 0 0 0 0 0 0 0 0 0 0 0 0 0 127 0"/><feOffset dx="3" dy="3"/><feGaussianBlur stdDeviation="2.5"/><feColorMatrix values="0 0 0 0 0.7125 0 0 0 0 0.175156 0 0 0 0 0.564386 0 0 0 0.4 0"/><feBlend in2="BackgroundImageFix" result="effect1_dropShadow"/><feBlend in="SourceGraphic" in2="effect1_dropShadow" result="shape"/></filter></defs></svg>