<svg width="724" height="515" viewBox="0 0 724 515" fill="none" xmlns="http://www.w3.org/2000/svg"><path d="M291.308 261.696l-3.059 5.671a1.94 1.94 0 00.618 2.521l2.356 1.638c.534.371.85.968.85 1.605v2.338c0 .602-.283 1.171-.768 1.546l-2.537 1.96a1.936 1.936 0 00-.519 2.491l2.908 5.166c.515.915 1.675 1.285 2.649.844l3.211-1.454a2.094 2.094 0 011.938.113l2.664 1.608c.54.326.892.878.952 1.492l.288 2.975c.099 1.015.977 1.79 2.028 1.79h6.881c1.051 0 1.929-.775 2.028-1.79l.291-2.999a1.963 1.963 0 01.918-1.471l2.439-1.536a2.089 2.089 0 012.068-.086l2.42 1.252c.962.497 2.158.171 2.712-.74l3.018-4.965c.561-.922.262-2.109-.672-2.677l-2.382-1.448a1.962 1.962 0 01-.955-1.673v-2.691c0-.662.342-1.279.911-1.645l2.525-1.626c.89-.573 1.173-1.716.647-2.618l-3.268-5.609c-.474-.816-1.474-1.195-2.393-.91l-2.74.85a2.092 2.092 0 01-1.676-.192l-2.611-1.534a1.97 1.97 0 01-.97-1.492l-.272-2.622c-.105-1.01-.98-1.778-2.026-1.778h-6.71c-1.125 0-2.037.884-2.037 1.975v2.203c0 .739-.425 1.416-1.102 1.755l-3.202 1.603a2.09 2.09 0 01-1.483.147l-3.584-.974c-.926-.251-1.908.16-2.354.987z" stroke="#C5CDCF" stroke-width="4"/><circle cx="308.728" cy="275.398" r="8" stroke="#C5CDCF" stroke-width="4"/><path d="M641 463H75" stroke="#C5CDCF" stroke-width="25" stroke-linecap="round"/><path d="M336.332 465.01c-.458 2.747 1.416 5.343 4.175 5.715 37.425 5.049 75.361 1.728 107.914-17.509a170.73 170.73 0 0074.246-203.503 170.734 170.734 0 10-301.766 153.29c1.565 2.275 4.701 2.755 6.929 1.124l12.554-9.19c2.229-1.631 2.705-4.756 1.151-7.039a145.174 145.174 0 11193.883 43.314c-27.496 16.249-60.323 25.036-92.02 21.444-2.721-.309-5.26 1.517-5.71 4.219l-1.356 8.135z" fill="#C5CDCF"/><path d="M306.154 74.59c2.397-1.372 3.24-4.437 1.726-6.746a83.084 83.084 0 00-81.659-36.648 83.09 83.09 0 00-65.211 112.459 83.088 83.088 0 00119.995 41.058c2.37-1.417 2.951-4.542 1.394-6.823l-8.647-12.673c-1.556-2.281-4.658-2.847-7.065-1.494a57.743 57.743 0 01-82.077-29.299 57.749 57.749 0 0114.591-63.45 57.746 57.746 0 0186.631 9.496c1.574 2.27 4.612 3.115 7.008 1.743l13.314-7.623z" fill="#C5CDCF"/><g filter="url(#filter0_d)"><path d="M256.962 275.907l-4.588 8.506c-.706 1.309-.31 2.922.927 3.782l3.533 2.456a2.937 2.937 0 011.276 2.409v3.507a2.93 2.93 0 01-1.152 2.318l-3.806 2.94c-1.161.897-1.49 2.474-.778 3.737l4.361 7.75c.773 1.372 2.512 1.926 3.973 1.265l4.818-2.181a3.14 3.14 0 012.906.169l3.996 2.412a2.956 2.956 0 011.428 2.238l.433 4.463c.148 1.522 1.465 2.685 3.041 2.685h10.322c1.576 0 2.894-1.163 3.041-2.685l.437-4.498a2.952 2.952 0 011.378-2.207l3.658-2.304a3.135 3.135 0 013.101-.129l3.63 1.877c1.444.747 3.238.258 4.069-1.109l4.527-7.448c.841-1.382.393-3.163-1.009-4.015l-3.572-2.172a2.943 2.943 0 01-1.432-2.51v-4.036a2.94 2.94 0 011.365-2.468l3.789-2.439c1.335-.86 1.759-2.573.97-3.926l-4.901-8.415c-.713-1.222-2.212-1.792-3.591-1.364l-4.11 1.275a3.13 3.13 0 01-2.514-.288l-3.915-2.301a2.955 2.955 0 01-1.457-2.238l-.407-3.933c-.157-1.514-1.471-2.667-3.04-2.667h-10.064c-1.687 0-3.055 1.326-3.055 2.963v3.304c0 1.108-.638 2.124-1.654 2.633l-4.802 2.404a3.143 3.143 0 01-2.225.22l-5.376-1.46c-1.39-.377-2.862.24-3.531 1.48z" fill="#F6F4F2"/><path d="M256.962 275.907l-4.588 8.506c-.706 1.309-.31 2.922.927 3.782l3.533 2.456a2.937 2.937 0 011.276 2.409v3.507a2.93 2.93 0 01-1.152 2.318l-3.806 2.94c-1.161.897-1.49 2.474-.778 3.737l4.361 7.75c.773 1.372 2.512 1.926 3.973 1.265l4.818-2.181a3.14 3.14 0 012.906.169l3.996 2.412a2.956 2.956 0 011.428 2.238l.433 4.463c.148 1.522 1.465 2.685 3.041 2.685h10.322c1.576 0 2.894-1.163 3.041-2.685l.437-4.498a2.952 2.952 0 011.378-2.207l3.658-2.304a3.135 3.135 0 013.101-.129l3.63 1.877c1.444.747 3.238.258 4.069-1.109l4.527-7.448c.841-1.382.393-3.163-1.009-4.015l-3.572-2.172a2.943 2.943 0 01-1.432-2.51v-4.036a2.94 2.94 0 011.365-2.468l3.789-2.439c1.335-.86 1.759-2.573.97-3.926l-4.901-8.415c-.713-1.222-2.212-1.792-3.591-1.364l-4.11 1.275a3.13 3.13 0 01-2.514-.288l-3.915-2.301a2.955 2.955 0 01-1.457-2.238l-.407-3.933c-.157-1.514-1.471-2.667-3.04-2.667h-10.064c-1.687 0-3.055 1.326-3.055 2.963v3.304c0 1.108-.638 2.124-1.654 2.633l-4.802 2.404a3.143 3.143 0 01-2.225.22l-5.376-1.46c-1.39-.377-2.862.24-3.531 1.48z" stroke="#7C267B" stroke-width="5"/></g><circle cx="282.5" cy="294.5" r="12" stroke="#DC40B1" stroke-width="5"/><g filter="url(#filter1_d)"><path d="M11 421.345l5.45-5.586L26.44 426 44 408" stroke="#DC40B1" stroke-width="4" stroke-linecap="round"/></g><path fill-rule="evenodd" clip-rule="evenodd" d="M4 405a2 2 0 10-4 0v29.273a2 2 0 002.203 1.989c.067.007.135.011.203.011h47.162a2 2 0 000-4H4V405z" fill="#7C267B"/><path d="M69.328 427v-16.8h9.816v2.76H72.28v3.744a15.728 15.728 0 012.256-.144c1.744 0 3.12.456 4.128 1.368 1.008.912 1.512 2.144 1.512 3.696 0 1.744-.568 3.096-1.704 4.056-1.12.944-2.712 1.416-4.776 1.416-.72 0-1.568-.016-2.544-.048a75.485 75.485 0 00-1.824-.048zm4.968-7.68c-.592 0-1.264.048-2.016.144v4.776c.896.064 1.52.096 1.872.096 2.064 0 3.096-.832 3.096-2.496 0-.768-.248-1.376-.744-1.824-.48-.464-1.216-.696-2.208-.696zm10.806 3.144v-1.848h4.8c-.176-.752-.544-1.32-1.104-1.704-.56-.384-1.224-.576-1.992-.576-1.04 0-2.072.376-3.096 1.128l-1.128-1.92c.48-.528 1.112-.928 1.896-1.2a6.939 6.939 0 012.28-.408c1.84 0 3.304.512 4.392 1.536 1.088 1.024 1.632 2.4 1.632 4.128 0 1.632-.52 2.984-1.56 4.056-1.024 1.072-2.424 1.608-4.2 1.608-1.952 0-3.448-.536-4.488-1.608l1.296-1.824c.784.688 1.792 1.032 3.024 1.032.832 0 1.512-.2 2.04-.6.544-.416.888-1.016 1.032-1.8h-4.824zm20.306-6.264l-4.152 5.136 4.656 5.664h-3.6l-4.272-5.448 3.888-5.352h3.48zM95.184 427v-10.8h2.76V427h-2.76zm19.409 0v-8.04h-2.856l-.072 1.152c-.176 1.936-.472 3.424-.888 4.464-.4 1.04-.912 1.744-1.536 2.112-.608.352-1.424.528-2.448.528l-.24-2.688a1.4 1.4 0 00.984-.288c.32-.24.624-.752.912-1.536.288-.8.472-1.848.552-3.144l.168-3.36h8.184V427h-2.76zm6.77-1.32c-1.072-1.072-1.608-2.432-1.608-4.08 0-1.648.536-3 1.608-4.056 1.088-1.072 2.512-1.608 4.272-1.608 1.76 0 3.176.536 4.248 1.608 1.088 1.056 1.632 2.408 1.632 4.056 0 1.648-.544 3.008-1.632 4.08-1.072 1.056-2.488 1.584-4.248 1.584-1.76 0-3.184-.528-4.272-1.584zm1.344-4.08c0 .896.272 1.64.816 2.232.56.576 1.264.864 2.112.864.864 0 1.568-.28 2.112-.84.56-.576.84-1.328.84-2.256 0-.896-.28-1.632-.84-2.208-.56-.576-1.264-.864-2.112-.864-.832 0-1.528.288-2.088.864-.56.56-.84 1.296-.84 2.208zm11.196 5.4v-10.8h7.248v2.592h-4.488V427h-2.76zm22.247-3.624l1.296 2.016c-.448.608-1.056 1.072-1.824 1.392-.752.32-1.576.48-2.472.48-1.76 0-3.176-.52-4.248-1.56s-1.608-2.408-1.608-4.104c0-1.6.528-2.944 1.584-4.032s2.392-1.632 4.008-1.632c1.92 0 3.368.488 4.344 1.464l-1.296 2.184c-.72-.704-1.616-1.056-2.688-1.056-.8 0-1.504.288-2.112.864-.592.56-.888 1.296-.888 2.208 0 .928.304 1.68.912 2.256.624.56 1.36.84 2.208.84 1.056 0 1.984-.44 2.784-1.32zM167.029 427v-8.208h-4.608V427h-2.76v-10.8h10.128V427h-2.76zm5.827 4.8v-15.6h2.76v1.032c.352-.368.824-.672 1.416-.912a4.898 4.898 0 011.92-.384c1.472 0 2.656.512 3.552 1.536.896 1.024 1.344 2.344 1.344 3.96 0 1.68-.528 3.072-1.584 4.176s-2.432 1.656-4.128 1.656c-1.072 0-1.912-.176-2.52-.528v5.064h-2.76zm5.232-13.272c-.944 0-1.768.392-2.472 1.176v4.368c.64.416 1.4.624 2.28.624.928 0 1.664-.296 2.208-.888.544-.608.816-1.376.816-2.304 0-.88-.248-1.592-.744-2.136-.496-.56-1.192-.84-2.088-.84zM188.999 427h-2.76v-10.8h2.76v6.84l5.04-6.84h2.76V427h-2.76v-6.84l-5.04 6.84zm18.369 0v-4.128h-4.728V427h-2.76v-10.8h2.76v4.08h4.728v-4.08h2.76V427h-2.76zm4.696-8.04v-2.76h9.84v2.76h-3.528V427h-2.76v-8.04h-3.552zm12.656.024l-.696-2.016a7.385 7.385 0 013.816-1.032c1.536 0 2.64.376 3.312 1.128.672.752 1.008 1.872 1.008 3.36V427h-2.4v-1.248c-.656.928-1.72 1.392-3.192 1.392-1.008 0-1.824-.296-2.448-.888-.624-.592-.936-1.4-.936-2.424 0-1.136.368-2 1.104-2.592.736-.608 1.68-.912 2.832-.912.992 0 1.808.232 2.448.696.032-.944-.104-1.64-.408-2.088-.304-.464-.84-.696-1.608-.696-.8 0-1.744.248-2.832.744zm2.76 5.832c.928 0 1.624-.328 2.088-.984v-1.104c-.464-.352-1.096-.528-1.896-.528-.496 0-.912.12-1.248.36-.32.224-.48.552-.48.984 0 .4.144.712.432.936.288.224.656.336 1.104.336zM361.992 276.16l1.128 2.208c-.528.56-1.288 1.016-2.28 1.368a9.055 9.055 0 01-3.096.528c-2.576 0-4.664-.792-6.264-2.376-1.6-1.584-2.4-3.68-2.4-6.288 0-2.512.76-4.584 2.28-6.216 1.52-1.632 3.624-2.448 6.312-2.448 2.16 0 3.864.568 5.112 1.704l-1.32 2.184c-1.136-.752-2.4-1.128-3.792-1.128-1.584 0-2.896.536-3.936 1.608-1.024 1.072-1.536 2.504-1.536 4.296 0 1.744.536 3.168 1.608 4.272 1.088 1.088 2.488 1.632 4.2 1.632 1.488 0 2.816-.448 3.984-1.344zm10.639 3.84v-8.208h-4.608V280h-2.76v-10.8h10.128V280h-2.76zm5.827 4.8v-15.6h2.76v1.032c.352-.368.824-.672 1.416-.912a4.898 4.898 0 011.92-.384c1.472 0 2.656.512 3.552 1.536.896 1.024 1.344 2.344 1.344 3.96 0 1.68-.528 3.072-1.584 4.176s-2.432 1.656-4.128 1.656c-1.072 0-1.912-.176-2.52-.528v5.064h-2.76zm5.232-13.272c-.944 0-1.768.392-2.472 1.176v4.368c.64.416 1.4.624 2.28.624.928 0 1.664-.296 2.208-.888.544-.608.816-1.376.816-2.304 0-.88-.248-1.592-.744-2.136-.496-.56-1.192-.84-2.088-.84zM394.601 280h-2.76v-10.8h2.76v6.84l5.04-6.84h2.76V280h-2.76v-6.84l-5.04 6.84zm18.368 0v-4.128h-4.728V280h-2.76v-10.8h2.76v4.08h4.728v-4.08h2.76V280h-2.76zm4.697-8.04v-2.76h9.84v2.76h-3.528V280h-2.76v-8.04h-3.552zM348.888 315v-2.208c2.032-2 3.368-3.368 4.008-4.104 1.984-2.272 2.976-4.184 2.976-5.736 0-.688-.184-1.224-.552-1.608-.368-.384-.896-.576-1.584-.576-.592 0-1.104.2-1.536.6-.416.384-.712.936-.888 1.656l-2.304-1.032c.224-1.232.784-2.2 1.68-2.904.912-.72 2.032-1.08 3.36-1.08 1.504 0 2.672.432 3.504 1.296a4.308 4.308 0 011.248 3.096c0 .88-.184 1.8-.552 2.76-.368.944-.792 1.768-1.272 2.472a18.231 18.231 0 01-1.752 2.16c-.672.736-1.2 1.28-1.584 1.632-.368.336-.76.672-1.176 1.008h6.984V315h-10.56zm13.186-5.28v-2.568h6.048v2.568h-6.048zm15.575 5.28v-3.888h-7.68v-2.04l6.48-10.872h3.168l-6.072 10.152h4.104V304.2h2.76v4.152h2.16v2.76h-2.16V315h-2.76zm19.641 0v-4.128h-4.728V315h-2.76v-10.8h2.76v4.08h4.728v-4.08h2.76V315h-2.76zm14.296-3.024l.792 1.944c-1.056.896-2.432 1.344-4.128 1.344-1.744 0-3.152-.52-4.224-1.56-1.056-1.04-1.584-2.408-1.584-4.104 0-1.616.52-2.96 1.56-4.032 1.04-1.088 2.424-1.632 4.152-1.632 1.424 0 2.632.472 3.624 1.416.992.928 1.488 2.128 1.488 3.6 0 .608-.056 1.104-.168 1.488h-7.8c.112.8.464 1.424 1.056 1.872.592.432 1.32.648 2.184.648 1.216 0 2.232-.328 3.048-.984zm-3.552-5.736c-1.568 0-2.512.784-2.832 2.352h5.304c.016-.672-.2-1.232-.648-1.68-.448-.448-1.056-.672-1.824-.672zm5.808 11.28v-5.088h1.368c.848-1.12 1.352-3 1.512-5.64l.168-2.592h7.968v8.232h1.8v5.088h-2.592V315h-7.656v2.52h-2.568zm5.544-9.624c-.192 2.096-.624 3.608-1.296 4.536h4.008v-5.64h-2.64l-.072 1.104zm17.56 4.08l.792 1.944c-1.056.896-2.432 1.344-4.128 1.344-1.744 0-3.152-.52-4.224-1.56-1.056-1.04-1.584-2.408-1.584-4.104 0-1.616.52-2.96 1.56-4.032 1.04-1.088 2.424-1.632 4.152-1.632 1.424 0 2.632.472 3.624 1.416.992.928 1.488 2.128 1.488 3.6 0 .608-.056 1.104-.168 1.488h-7.8c.112.8.464 1.424 1.056 1.872.592.432 1.32.648 2.184.648 1.216 0 2.232-.328 3.048-.984zm-3.552-5.736c-1.568 0-2.512.784-2.832 2.352h5.304c.016-.672-.2-1.232-.648-1.68-.448-.448-1.056-.672-1.824-.672zm14.207 8.76v-8.04h-2.856l-.072 1.152c-.176 1.936-.472 3.424-.888 4.464-.4 1.04-.912 1.744-1.536 2.112-.608.352-1.424.528-2.448.528l-.24-2.688a1.4 1.4 0 00.984-.288c.32-.24.624-.752.912-1.536.288-.8.472-1.848.552-3.144l.168-3.36h8.184V315h-2.76zm8.593 0h-2.76v-10.8h2.76v6.84l5.04-6.84h2.76V315h-2.76v-6.84l-5.04 6.84zM261.888 121v-2.208c2.032-2 3.368-3.368 4.008-4.104 1.984-2.272 2.976-4.184 2.976-5.736 0-.688-.184-1.224-.552-1.608-.368-.384-.896-.576-1.584-.576-.592 0-1.104.2-1.536.6-.416.384-.712.936-.888 1.656l-2.304-1.032c.224-1.232.784-2.2 1.68-2.904.912-.72 2.032-1.08 3.36-1.08 1.504 0 2.672.432 3.504 1.296a4.308 4.308 0 011.248 3.096c0 .88-.184 1.8-.552 2.76-.368.944-.792 1.768-1.272 2.472a18.231 18.231 0 01-1.752 2.16c-.672.736-1.2 1.28-1.584 1.632-.368.336-.76.672-1.176 1.008h6.984V121h-10.56zm19.738 0v-3.888h-7.68v-2.04l6.48-10.872h3.168l-6.072 10.152h4.104V110.2h2.76v4.152h2.16v2.76h-2.16V121h-2.76zm20.864-10.8V121h-2.76v-3.72c-.784.416-1.68.624-2.688.624-1.36 0-2.352-.352-2.976-1.056-.624-.72-.936-1.784-.936-3.192V110.2h2.952v3.12c0 1.328.584 1.992 1.752 1.992.768 0 1.4-.144 1.896-.432v-4.68h2.76zm3.917 2.784l-.696-2.016a7.385 7.385 0 013.816-1.032c1.536 0 2.64.376 3.312 1.128.672.752 1.008 1.872 1.008 3.36V121h-2.4v-1.248c-.656.928-1.72 1.392-3.192 1.392-1.008 0-1.824-.296-2.448-.888-.624-.592-.936-1.4-.936-2.424 0-1.136.368-2 1.104-2.592.736-.608 1.68-.912 2.832-.912.992 0 1.808.232 2.448.696.032-.944-.104-1.64-.408-2.088-.304-.464-.84-.696-1.608-.696-.8 0-1.744.248-2.832.744zm2.76 5.832c.928 0 1.624-.328 2.088-.984v-1.104c-.464-.352-1.096-.528-1.896-.528-.496 0-.912.12-1.248.36-.32.224-.48.552-.48.984 0 .4.144.712.432.936.288.224.656.336 1.104.336zm15.694-1.44l1.296 2.016c-.448.608-1.056 1.072-1.824 1.392-.752.32-1.576.48-2.472.48-1.76 0-3.176-.52-4.248-1.56s-1.608-2.408-1.608-4.104c0-1.6.528-2.944 1.584-4.032s2.392-1.632 4.008-1.632c1.92 0 3.368.488 4.344 1.464l-1.296 2.184c-.72-.704-1.616-1.056-2.688-1.056-.8 0-1.504.288-2.112.864-.592.56-.888 1.296-.888 2.208 0 .928.304 1.68.912 2.256.624.56 1.36.84 2.208.84 1.056 0 1.984-.44 2.784-1.32zm4.351-4.392l-.696-2.016a7.385 7.385 0 013.816-1.032c1.536 0 2.64.376 3.312 1.128.672.752 1.008 1.872 1.008 3.36V121h-2.4v-1.248c-.656.928-1.72 1.392-3.192 1.392-1.008 0-1.824-.296-2.448-.888-.624-.592-.936-1.4-.936-2.424 0-1.136.368-2 1.104-2.592.736-.608 1.68-.912 2.832-.912.992 0 1.808.232 2.448.696.032-.944-.104-1.64-.408-2.088-.304-.464-.84-.696-1.608-.696-.8 0-1.744.248-2.832.744zm2.76 5.832c.928 0 1.624-.328 2.088-.984v-1.104c-.464-.352-1.096-.528-1.896-.528-.496 0-.912.12-1.248.36-.32.224-.48.552-.48.984 0 .4.144.712.432.936.288.224.656.336 1.104.336z" fill="#141414"/><g filter="url(#filter2_d)"><circle cx="228.5" cy="114.5" r="16" stroke="#7C267B" stroke-width="3"/></g><g filter="url(#filter3_d)"><path d="M227.333 105.167v9.761a1 1 0 00.706.956l6.877 2.116" stroke="#DC40B1" stroke-width="3" stroke-linecap="round"/></g><path d="M642.778 423.851v-14.04h-7.488v14.04h-2.952v-16.8h13.392v16.8h-2.952zm6.815 4.8v-15.6h2.76v1.032c.352-.368.824-.672 1.416-.912a4.898 4.898 0 011.92-.384c1.472 0 2.656.512 3.552 1.536.896 1.024 1.344 2.344 1.344 3.96 0 1.68-.528 3.072-1.584 4.176s-2.432 1.656-4.128 1.656c-1.072 0-1.912-.176-2.52-.528v5.064h-2.76zm5.232-13.272c-.944 0-1.768.392-2.472 1.176v4.368c.64.416 1.4.624 2.28.624.928 0 1.664-.296 2.208-.888.544-.608.816-1.376.816-2.304 0-.88-.248-1.592-.744-2.136-.496-.56-1.192-.84-2.088-.84zm9.087 7.152c-1.072-1.072-1.608-2.432-1.608-4.08 0-1.648.536-3 1.608-4.056 1.088-1.072 2.512-1.608 4.272-1.608 1.76 0 3.176.536 4.248 1.608 1.088 1.056 1.632 2.408 1.632 4.056 0 1.648-.544 3.008-1.632 4.08-1.072 1.056-2.488 1.584-4.248 1.584-1.76 0-3.184-.528-4.272-1.584zm1.344-4.08c0 .896.272 1.64.816 2.232.56.576 1.264.864 2.112.864.864 0 1.568-.28 2.112-.84.56-.576.84-1.328.84-2.256 0-.896-.28-1.632-.84-2.208-.56-.576-1.264-.864-2.112-.864-.832 0-1.528.288-2.088.864-.56.56-.84 1.296-.84 2.208zm9.549 7.92v-5.088h1.368c.848-1.12 1.352-3 1.512-5.64l.168-2.592h7.968v8.232h1.8v5.088h-2.592v-2.52h-7.656v2.52h-2.568zm5.544-9.624c-.192 2.096-.624 3.608-1.296 4.536h4.008v-5.64h-2.64l-.072 1.104zm19.504-3.696l-4.248 10.8c-.768 1.872-1.456 3.136-2.064 3.792-.592.672-1.296 1.008-2.112 1.008-.784 0-1.56-.28-2.328-.84l.888-2.088c.432.256.808.384 1.128.384.656 0 1.208-.56 1.656-1.68l.24-.576-4.992-10.8h3.312l2.52 5.904c.096.24.272.76.528 1.56.128-.704.256-1.232.384-1.584l1.944-5.88h3.144zm11.878 0l-4.152 5.136 4.656 5.664h-3.6l-4.272-5.448 3.888-5.352h3.48zm-10.224 10.8v-10.8h2.76v10.8h-2.76zm11.224-8.04v-2.76h9.84v2.76h-3.528v8.04h-2.76v-8.04h-3.552z" fill="#141414"/><g filter="url(#filter4_d)"><path fill-rule="evenodd" clip-rule="evenodd" d="M585.759 397.149l-14.582 8.293 14.582 7.664 14.717-7.664-14.717-8.293zm16.914 11.658l-14.918 7.769v15.953l4.895-2.633a13.257 13.257 0 001.802 3.572l-7.75 4.169-.952.512-.949-.516-18.745-10.175.194-.357a1.996 1.996 0 01-.25-.969v-21.025c0-.685.344-1.29.869-1.65.206-.225.453-.425.742-.589l16.663-9.476a3 3 0 012.956-.006l18.425 10.382 1.018.574v8.021a14.6 14.6 0 00-4 .371v-3.927zm-18.918 23.707L570 425.047v-15.705l13.755 7.229v15.943z" fill="#7C267B"/></g><g filter="url(#filter5_d)"><path d="M597.01 423.351l7.293 7.293a1 1 0 001.414 0l10.793-10.793" stroke="#DC40B1" stroke-width="4"/></g><path d="M317.99 85.997c.491 1.459-.781 2.903-2.29 2.6l-46.696-9.395c-1.509-.304-2.124-2.127-1.106-3.283l31.484-35.742c1.017-1.155 2.904-.776 3.396.683l15.212 45.137zM247.268 419.78c.022 1.539-1.631 2.525-2.975 1.774l-41.579-23.237c-1.344-.751-1.371-2.675-.049-3.463l40.913-24.391c1.322-.788 3.002.151 3.024 1.69l.666 47.627zm442.782 40.994c1.32.772 1.32 2.68 0 3.452l-49.54 28.989c-1.333.78-3.01-.182-3.01-1.727v-57.976c0-1.545 1.677-2.507 3.01-1.727l49.54 28.989z" fill="#C5CDCF"/><defs><filter id="filter0_d" x="247.499" y="259.863" width="75.002" height="75" filterUnits="userSpaceOnUse" color-interpolation-filters="sRGB"><feFlood flood-opacity="0" result="BackgroundImageFix"/><feColorMatrix in="SourceAlpha" values="0 0 0 0 0 0 0 0 0 0 0 0 0 0 0 0 0 0 127 0"/><feOffset dx="3" dy="3"/><feGaussianBlur stdDeviation="2.5"/><feColorMatrix values="0 0 0 0 0.441667 0 0 0 0 0.182187 0 0 0 0 0.438297 0 0 0 0.4 0"/><feBlend in2="BackgroundImageFix" result="effect1_dropShadow"/><feBlend in="SourceGraphic" in2="effect1_dropShadow" result="shape"/></filter><filter id="filter1_d" x="7" y="404" width="47" height="32.864" filterUnits="userSpaceOnUse" color-interpolation-filters="sRGB"><feFlood flood-opacity="0" result="BackgroundImageFix"/><feColorMatrix in="SourceAlpha" values="0 0 0 0 0 0 0 0 0 0 0 0 0 0 0 0 0 0 127 0"/><feOffset dx="3" dy="3"/><feGaussianBlur stdDeviation="2.5"/><feColorMatrix values="0 0 0 0 0.7125 0 0 0 0 0.175156 0 0 0 0 0.564386 0 0 0 0.4 0"/><feBlend in2="BackgroundImageFix" result="effect1_dropShadow"/><feBlend in="SourceGraphic" in2="effect1_dropShadow" result="shape"/></filter><filter id="filter2_d" x="209" y="95" width="45" height="45" filterUnits="userSpaceOnUse" color-interpolation-filters="sRGB"><feFlood flood-opacity="0" result="BackgroundImageFix"/><feColorMatrix in="SourceAlpha" values="0 0 0 0 0 0 0 0 0 0 0 0 0 0 0 0 0 0 127 0"/><feOffset dx="3" dy="3"/><feGaussianBlur stdDeviation="2.5"/><feColorMatrix values="0 0 0 0 0.441667 0 0 0 0 0.182187 0 0 0 0 0.438297 0 0 0 0.4 0"/><feBlend in2="BackgroundImageFix" result="effect1_dropShadow"/><feBlend in="SourceGraphic" in2="effect1_dropShadow" result="shape"/></filter><filter id="filter3_d" x="223.833" y="101.667" width="20.584" height="25.834" filterUnits="userSpaceOnUse" color-interpolation-filters="sRGB"><feFlood flood-opacity="0" result="BackgroundImageFix"/><feColorMatrix in="SourceAlpha" values="0 0 0 0 0 0 0 0 0 0 0 0 0 0 0 0 0 0 127 0"/><feOffset dx="3" dy="3"/><feGaussianBlur stdDeviation="2.5"/><feColorMatrix values="0 0 0 0 0.7125 0 0 0 0 0.175156 0 0 0 0 0.564386 0 0 0 0.4 0"/><feBlend in2="BackgroundImageFix" result="effect1_dropShadow"/><feBlend in="SourceGraphic" in2="effect1_dropShadow" result="shape"/></filter><filter id="filter4_d" x="564" y="391" width="50.673" height="55.149" filterUnits="userSpaceOnUse" color-interpolation-filters="sRGB"><feFlood flood-opacity="0" result="BackgroundImageFix"/><feColorMatrix in="SourceAlpha" values="0 0 0 0 0 0 0 0 0 0 0 0 0 0 0 0 0 0 127 0"/><feOffset dx="3" dy="3"/><feGaussianBlur stdDeviation="2.5"/><feColorMatrix values="0 0 0 0 0.441667 0 0 0 0 0.182187 0 0 0 0 0.438297 0 0 0 0.4 0"/><feBlend in2="BackgroundImageFix" result="effect1_dropShadow"/><feBlend in="SourceGraphic" in2="effect1_dropShadow" result="shape"/></filter><filter id="filter5_d" x="593.596" y="416.437" width="32.328" height="24.5" filterUnits="userSpaceOnUse" color-interpolation-filters="sRGB"><feFlood flood-opacity="0" result="BackgroundImageFix"/><feColorMatrix in="SourceAlpha" values="0 0 0 0 0 0 0 0 0 0 0 0 0 0 0 0 0 0 127 0"/><feOffset dx="3" dy="3"/><feGaussianBlur stdDeviation="2.5"/><feColorMatrix values="0 0 0 0 0.7125 0 0 0 0 0.175156 0 0 0 0 0.564386 0 0 0 0.4 0"/><feBlend in2="BackgroundImageFix" result="effect1_dropShadow"/><feBlend in="SourceGraphic" in2="effect1_dropShadow" result="shape"/></filter></defs></svg>