<svg width="1572" height="702" viewBox="0 0 1572 702" fill="none" xmlns="http://www.w3.org/2000/svg"><rect x="1418.5" y="303.5" width="151" height="95" rx="7.5" stroke="#C5CDCF" stroke-width="5"/><g clip-path="url(#clip0)" filter="url(#filter0_d)" stroke="#7C267B"><path d="M1453 363.5c5.89 3.126 9.28 3.21 15.5 0m.5-21.5c3.38 3.034 4.49 5.199 5 10" stroke-width="3" stroke-linecap="round"/><path d="M1461 343.421a3.212 3.212 0 000-6.421 3.212 3.212 0 000 6.421zm-11.79 17.684a3.212 3.212 0 000-6.421 3.212 3.212 0 000 6.421zm23.58 0a3.212 3.212 0 000-6.421 3.212 3.212 0 000 6.421z" stroke-width="2"/><path d="M1453.5 341c-4.33 3.091-5.86 5.423-6.5 11" stroke-width="3" stroke-linecap="round"/></g><path d="M1500.99 354.16l1.13 2.208c-.53.56-1.29 1.016-2.28 1.368-.98.352-2.01.528-3.1.528-2.57 0-4.66-.792-6.26-2.376-1.6-1.584-2.4-3.68-2.4-6.288 0-2.512.76-4.584 2.28-6.216 1.52-1.632 3.62-2.448 6.31-2.448 2.16 0 3.87.568 5.11 1.704l-1.32 2.184c-1.13-.752-2.4-1.128-3.79-1.128-1.58 0-2.89.536-3.93 1.608-1.03 1.072-1.54 2.504-1.54 4.296 0 1.744.54 3.168 1.61 4.272 1.09 1.088 2.49 1.632 4.2 1.632 1.49 0 2.81-.448 3.98-1.344zm8.22 3.84h-2.96v-16.8c.36 0 1.26-.008 2.72-.024 1.47-.016 2.27-.024 2.4-.024 4.06 0 6.09 1.728 6.09 5.184 0 1.296-.33 2.352-.98 3.168-.66.8-1.41 1.344-2.26 1.632l5.26 6.864h-3.58l-4.63-6.288h-2.06V358zm2.01-14.088c-.29 0-.96.016-2.01.048v4.992h1.92c.91 0 1.67-.224 2.28-.672.62-.464.93-1.104.93-1.92 0-1.632-1.04-2.448-3.12-2.448zM1523.25 358v-16.8h2.98l5.73 7.848 5.48-7.848h2.78V358h-2.93v-12.144l-5.3 7.464h-.43l-5.36-7.392V358h-2.95z" fill="#141414"/><path d="M215 351h80m5 13l11.586-11.586a2 2 0 000-2.828L300 338m419 13h80m5 13l11.586-11.586a2 2 0 000-2.828L804 338m249 136v80m-13 5l11.59 11.586a1.99 1.99 0 002.82 0L1066 559" stroke="#C5CDCF" stroke-width="3" stroke-linecap="round"/><rect x="2.5" y="303.5" width="180" height="95" rx="7.5" stroke="#C5CDCF" stroke-width="5"/><path d="M70.24 343.96v-2.76h13.848v2.76H78.64V358h-2.952v-14.04H70.24zm13.91 18.84v-15.6h2.76v1.032c.352-.368.824-.672 1.416-.912a4.898 4.898 0 011.92-.384c1.472 0 2.656.512 3.552 1.536.896 1.024 1.344 2.344 1.344 3.96 0 1.68-.528 3.072-1.584 4.176s-2.432 1.656-4.128 1.656c-1.072 0-1.912-.176-2.52-.528v5.064h-2.76zm5.232-13.272c-.944 0-1.768.392-2.472 1.176v4.368c.64.416 1.4.624 2.28.624.928 0 1.664-.296 2.208-.888.544-.608.816-1.376.816-2.304 0-.88-.248-1.592-.744-2.136-.496-.56-1.192-.84-2.088-.84zm10.19.456l-.695-2.016a7.386 7.386 0 013.816-1.032c1.536 0 2.64.376 3.312 1.128.672.752 1.008 1.872 1.008 3.36V358h-2.4v-1.248c-.656.928-1.72 1.392-3.192 1.392-1.008 0-1.824-.296-2.448-.888-.624-.592-.936-1.4-.936-2.424 0-1.136.368-2 1.104-2.592.736-.608 1.68-.912 2.832-.912.992 0 1.808.232 2.448.696.032-.944-.104-1.64-.408-2.088-.304-.464-.84-.696-1.608-.696-.8 0-1.744.248-2.832.744zm2.761 5.832c.928 0 1.624-.328 2.088-.984v-1.104c-.464-.352-1.096-.528-1.896-.528-.496 0-.912.12-1.248.36-.32.224-.48.552-.48.984 0 .4.144.712.432.936.288.224.656.336 1.104.336zm14.037 6.984v-4.536h-.144c-1.84 0-3.28-.528-4.32-1.584-1.024-1.056-1.536-2.416-1.536-4.08 0-1.552.52-2.88 1.56-3.984 1.056-1.12 2.48-1.68 4.272-1.68h.168V341.2h2.76v5.736h.192c1.808 0 3.224.536 4.248 1.608 1.04 1.056 1.56 2.408 1.56 4.056 0 1.68-.496 3.048-1.488 4.104-.992 1.04-2.432 1.56-4.32 1.56h-.192v4.536h-2.76zm2.952-13.272h-.192v6.168h.096c.96 0 1.688-.28 2.184-.84.512-.56.768-1.312.768-2.256 0-.864-.248-1.592-.744-2.184-.48-.592-1.184-.888-2.112-.888zm-6 3.072c0 .928.256 1.68.768 2.256.512.56 1.248.84 2.208.84h.072v-6.168h-.192c-.96 0-1.68.288-2.16.864-.464.576-.696 1.312-.696 2.208zm18.157 5.4h-2.76v-10.8h2.76v6.84l5.04-6.84h2.76V358h-2.76v-6.84l-5.04 6.84zm22.304-10.8l-4.152 5.136 4.656 5.664h-3.6l-4.272-5.448 3.888-5.352h3.48zM143.559 358v-10.8h2.76V358h-2.76z" fill="#141414"/><g clip-path="url(#clip1)" filter="url(#filter1_d)"><path d="M39.44 339.441l11.496 23.901m-12.032-25.015c-5.47 12.71-1.838 22.773 11.362 24.704m-17.939-5.936c10.39-2.603 17.257-5.48 25.346-12.19" stroke="#7C267B" stroke-width="2"/><path d="M38.905 338.327c13.605 3.669 19.171 13.617 11.784 24.501" stroke="#7C267B" stroke-width="2" stroke-linecap="round"/><path d="M58.517 344.498c3.591 7.466.45 16.429-7.016 20.02-7.465 3.59-16.428.449-20.019-7.016-3.59-7.466-.45-16.429 7.016-20.02 7.466-3.59 16.429-.449 20.02 7.016zM33.51 356.526c3.052 6.346 10.67 9.016 17.016 5.964 6.346-3.052 9.016-10.671 5.964-17.016-3.052-6.346-10.67-9.016-17.017-5.964-6.345 3.052-9.015 10.671-5.963 17.016z" fill="#7C267B"/></g><path d="M211.04 302h-1.36v-11.2c.203 0 .677-.005 1.424-.016.757-.011 1.259-.016 1.504-.016 1.472 0 2.528.331 3.168.992.651.651.976 1.477.976 2.48 0 .981-.352 1.813-1.056 2.496-.693.683-1.685 1.024-2.976 1.024-.619 0-1.179-.021-1.68-.064V302zm1.696-9.952c-.427 0-.992.011-1.696.032v4.32c.608.053 1.152.08 1.632.08.821 0 1.467-.197 1.936-.592.469-.405.704-.96.704-1.664 0-.683-.213-1.216-.64-1.6-.427-.384-1.072-.576-1.936-.576zm6.475 4.272l-.336-1.024c.704-.437 1.504-.656 2.4-.656.992 0 1.701.245 2.128.736.427.491.64 1.227.64 2.208V302h-1.216v-.928c-.555.693-1.323 1.04-2.304 1.04-.661 0-1.195-.197-1.6-.592-.405-.405-.608-.949-.608-1.632 0-.715.251-1.275.752-1.68.512-.405 1.168-.608 1.968-.608.768 0 1.365.155 1.792.464 0-.768-.107-1.339-.32-1.712-.213-.373-.651-.56-1.312-.56-.651 0-1.312.176-1.984.528zm1.76 4.64c.715 0 1.333-.309 1.856-.928v-.912c-.448-.32-.987-.48-1.616-.48-.427 0-.789.101-1.088.304-.299.203-.448.496-.448.88 0 .352.112.629.336.832.235.203.555.304.96.304zm11.551-.928l.608.928a2.952 2.952 0 01-1.184.896 4.097 4.097 0 01-1.584.304c-1.152 0-2.085-.341-2.8-1.024-.704-.693-1.056-1.605-1.056-2.736 0-1.056.347-1.947 1.04-2.672.694-.725 1.563-1.088 2.608-1.088 1.259 0 2.203.315 2.832.944l-.592 1.008c-.544-.501-1.232-.752-2.064-.752-.672 0-1.253.245-1.744.736-.48.48-.72 1.088-.72 1.824 0 .768.246 1.387.736 1.856.502.469 1.12.704 1.856.704.832 0 1.52-.309 2.064-.928zm8.277 1.968v-6h-3.92v6h-1.28v-7.2h6.48v7.2h-1.28zm4.397 3.2v-10.4h1.28v.848c.256-.299.602-.539 1.04-.72a3.537 3.537 0 011.408-.288c1.013 0 1.818.341 2.416 1.024.608.672.912 1.547.912 2.624 0 1.109-.347 2.032-1.04 2.768-.694.736-1.595 1.104-2.704 1.104-.854 0-1.531-.165-2.032-.496v3.536h-1.28zm3.36-9.36c-.854 0-1.547.331-2.08.992v3.568c.554.373 1.194.56 1.92.56.757 0 1.36-.245 1.808-.736.458-.491.688-1.12.688-1.888 0-.747-.208-1.349-.624-1.808-.416-.459-.987-.688-1.712-.688zm12.01 4.368l.4 1.008c-.693.629-1.594.944-2.704.944-1.162 0-2.096-.341-2.8-1.024-.704-.683-1.056-1.595-1.056-2.736 0-1.088.331-1.984.992-2.688.662-.715 1.568-1.072 2.72-1.072.95 0 1.744.309 2.384.928.64.608.96 1.397.96 2.368 0 .331-.026.619-.08.864h-5.536c.054.672.304 1.2.752 1.584.459.384 1.046.576 1.76.576.939 0 1.675-.251 2.208-.752zm-2.512-4.368c-.64 0-1.162.181-1.568.544-.405.352-.645.811-.72 1.376h4.368c-.032-.597-.234-1.067-.608-1.408-.362-.341-.853-.512-1.472-.512zm4.672 7.92v-2.96h.896c.256-.32.485-.848.688-1.584.213-.736.352-1.573.416-2.512l.112-1.904h4.912v6h1.2v2.96h-1.2V302h-5.824v1.76h-1.2zm3.232-6.56a11.58 11.58 0 01-.4 2.24c-.192.651-.384 1.104-.576 1.36h3.488V296h-2.432l-.08 1.2zm12.865 3.008l.4 1.008c-.694.629-1.595.944-2.704.944-1.163 0-2.096-.341-2.8-1.024-.704-.683-1.056-1.595-1.056-2.736 0-1.088.33-1.984.992-2.688.661-.715 1.568-1.072 2.72-1.072.949 0 1.744.309 2.384.928.64.608.96 1.397.96 2.368 0 .331-.027.619-.08.864h-5.536c.053.672.304 1.2.752 1.584.458.384 1.045.576 1.76.576.938 0 1.674-.251 2.208-.752zm-2.512-4.368c-.64 0-1.163.181-1.568.544-.406.352-.646.811-.72 1.376h4.368c-.032-.597-.235-1.067-.608-1.408-.363-.341-.854-.512-1.472-.512zm10.591 6.16v-5.92h-2.528l-.08 1.216c-.064.8-.16 1.493-.288 2.08-.128.576-.277 1.04-.448 1.392a2.41 2.41 0 01-.592.816 2.007 2.007 0 01-.72.416 3.372 3.372 0 01-.848.096l-.096-1.248a.845.845 0 00.368-.048c.128-.053.267-.16.416-.32.16-.16.299-.373.416-.64.128-.267.24-.64.336-1.12.107-.491.176-1.051.208-1.68l.128-2.24h5.008v7.2h-1.28zm10.067-1.792l.4 1.008c-.693.629-1.594.944-2.704.944-1.162 0-2.096-.341-2.8-1.024-.704-.683-1.056-1.595-1.056-2.736 0-1.088.331-1.984.992-2.688.662-.715 1.568-1.072 2.72-1.072.95 0 1.744.309 2.384.928.64.608.96 1.397.96 2.368 0 .331-.026.619-.08.864h-5.536c.054.672.304 1.2.752 1.584.459.384 1.046.576 1.76.576.939 0 1.675-.251 2.208-.752zm-2.512-4.368c-.64 0-1.162.181-1.568.544-.405.352-.645.811-.72 1.376h4.368c-.032-.597-.234-1.067-.608-1.408-.362-.341-.853-.512-1.472-.512zm11.225 6.16v-3.04h-4V302h-1.28v-7.2h1.28v2.96h4v-2.96h1.28v7.2h-1.28zm5.675 0h-1.28v-7.2h1.28v5.36l4.16-5.36h1.28v7.2h-1.28v-5.36l-4.16 5.36zm14.247-1.792l.4 1.008c-.693.629-1.595.944-2.704.944-1.163 0-2.096-.341-2.8-1.024-.704-.683-1.056-1.595-1.056-2.736 0-1.088.331-1.984.992-2.688.661-.715 1.568-1.072 2.72-1.072.949 0 1.744.309 2.384.928.64.608.96 1.397.96 2.368 0 .331-.027.619-.08.864h-5.536c.053.672.304 1.2.752 1.584.459.384 1.045.576 1.76.576.939 0 1.675-.251 2.208-.752zm-2.512-4.368c-.64 0-1.163.181-1.568.544-.405.352-.645.811-.72 1.376h4.368c-.032-.597-.235-1.067-.608-1.408-.363-.341-.853-.512-1.472-.512zM214.352 320v-6h-3.92v6h-1.28v-7.2h6.48v7.2h-1.28zm4.973-.896c-.704-.715-1.056-1.616-1.056-2.704s.352-1.984 1.056-2.688c.715-.715 1.643-1.072 2.784-1.072 1.141 0 2.064.357 2.768 1.072.715.704 1.072 1.6 1.072 2.688s-.357 1.989-1.072 2.704c-.704.704-1.627 1.056-2.768 1.056-1.141 0-2.069-.352-2.784-1.056zm.304-2.704c0 .747.229 1.36.688 1.84.469.48 1.067.72 1.792.72.725 0 1.317-.235 1.776-.704.469-.48.704-1.099.704-1.856 0-.747-.235-1.36-.704-1.84-.459-.48-1.051-.72-1.776-.72-.715 0-1.307.24-1.776.72-.469.469-.704 1.083-.704 1.84zm19.664-3.6l-3.152 3.44 3.456 3.76h-1.776l-3.248-3.68 3.041-3.52h1.679zm-6.304 7.2v-7.2h1.28v7.2h-1.28zm9.153-5.68l-.336-1.024c.704-.437 1.504-.656 2.4-.656.992 0 1.702.245 2.128.736.427.491.64 1.227.64 2.208V320h-1.216v-.928c-.554.693-1.322 1.04-2.304 1.04-.661 0-1.194-.197-1.6-.592-.405-.405-.608-.949-.608-1.632 0-.715.251-1.275.752-1.68.512-.405 1.168-.608 1.968-.608.768 0 1.366.155 1.792.464 0-.768-.106-1.339-.32-1.712-.213-.373-.65-.56-1.312-.56-.65 0-1.312.176-1.984.528zm1.76 4.64c.715 0 1.334-.309 1.856-.928v-.912c-.448-.32-.986-.48-1.616-.48-.426 0-.789.101-1.088.304-.298.203-.448.496-.448.88 0 .352.112.629.336.832.235.203.555.304.96.304zm11.296 1.04v-3.04h-4V320h-1.28v-7.2h1.28v2.96h4v-2.96h1.28v7.2h-1.28zm4.779-5.68l-.336-1.024c.704-.437 1.504-.656 2.4-.656.992 0 1.701.245 2.128.736.426.491.64 1.227.64 2.208V320h-1.216v-.928c-.555.693-1.323 1.04-2.304 1.04-.662 0-1.195-.197-1.6-.592-.406-.405-.608-.949-.608-1.632 0-.715.25-1.275.752-1.68.512-.405 1.168-.608 1.968-.608.768 0 1.365.155 1.792.464 0-.768-.107-1.339-.32-1.712-.214-.373-.651-.56-1.312-.56-.651 0-1.312.176-1.984.528zm1.76 4.64c.714 0 1.333-.309 1.856-.928v-.912c-.448-.32-.987-.48-1.616-.48-.427 0-.79.101-1.088.304-.299.203-.448.496-.448.88 0 .352.112.629.336.832.234.203.554.304.96.304zM272.68 320v-5.92h-2.528l-.08 1.216c-.064.8-.16 1.493-.288 2.08-.128.576-.277 1.04-.448 1.392a2.41 2.41 0 01-.592.816 2.007 2.007 0 01-.72.416 3.372 3.372 0 01-.848.096l-.096-1.248a.845.845 0 00.368-.048c.128-.053.267-.16.416-.32.16-.16.299-.373.416-.64.128-.267.24-.64.336-1.12.107-.491.176-1.051.208-1.68l.128-2.24h5.008v7.2h-1.28zm4.772-5.68l-.336-1.024c.704-.437 1.504-.656 2.4-.656.992 0 1.701.245 2.128.736.426.491.64 1.227.64 2.208V320h-1.216v-.928c-.555.693-1.323 1.04-2.304 1.04-.662 0-1.195-.197-1.6-.592-.406-.405-.608-.949-.608-1.632 0-.715.25-1.275.752-1.68.512-.405 1.168-.608 1.968-.608.768 0 1.365.155 1.792.464 0-.768-.107-1.339-.32-1.712-.214-.373-.651-.56-1.312-.56-.651 0-1.312.176-1.984.528zm1.76 4.64c.714 0 1.333-.309 1.856-.928v-.912c-.448-.32-.987-.48-1.616-.48-.427 0-.79.101-1.088.304-.299.203-.448.496-.448.88 0 .352.112.629.336.832.234.203.554.304.96.304zm6.015 1.04v-7.2h1.168l2.768 3.568 2.624-3.568h1.136v7.2h-1.28v-5.248l-2.496 3.344h-.048l-2.592-3.344V320h-1.28z" fill="#141414"/><path d="M1032 130v80m-13 5l11.59 11.586a1.99 1.99 0 002.82 0L1045 215m-39 13v-80m13-5l-11.59-11.586a1.99 1.99 0 00-2.82 0L993 143" stroke="#C5CDCF" stroke-width="3" stroke-linecap="round"/><path d="M919.8 178.4c0-1.632.539-2.997 1.616-4.096 1.077-1.109 2.443-1.664 4.096-1.664 1.643 0 3.003.539 4.08 1.616 1.088 1.077 1.632 2.459 1.632 4.144 0 1.653-.544 3.029-1.632 4.128-1.088 1.088-2.448 1.632-4.08 1.632-1.643 0-3.008-.539-4.096-1.616-1.077-1.077-1.616-2.459-1.616-4.144zm1.44 0c0 1.269.411 2.336 1.232 3.2.821.853 1.835 1.28 3.04 1.28 1.259 0 2.283-.427 3.072-1.28.8-.853 1.2-1.92 1.2-3.2 0-1.291-.411-2.357-1.232-3.2-.821-.853-1.835-1.28-3.04-1.28-1.227 0-2.245.421-3.056 1.264-.811.843-1.216 1.915-1.216 3.216zm18.139 3.632l.608.928a2.966 2.966 0 01-1.184.896 4.104 4.104 0 01-1.584.304c-1.152 0-2.086-.341-2.8-1.024-.704-.693-1.056-1.605-1.056-2.736 0-1.056.346-1.947 1.04-2.672.693-.725 1.562-1.088 2.608-1.088 1.258 0 2.202.315 2.832.944l-.592 1.008c-.544-.501-1.232-.752-2.064-.752-.672 0-1.254.245-1.744.736-.48.48-.72 1.088-.72 1.824 0 .768.245 1.387.736 1.856.501.469 1.12.704 1.856.704.832 0 1.52-.309 2.064-.928zm2.07-3.952v-1.28h6.56v1.28h-2.64V184h-1.28v-5.92h-2.64zm9.143.24l-.336-1.024c.704-.437 1.504-.656 2.4-.656.992 0 1.702.245 2.128.736.427.491.64 1.227.64 2.208V184h-1.216v-.928c-.554.693-1.322 1.04-2.304 1.04-.661 0-1.194-.197-1.6-.592-.405-.405-.608-.949-.608-1.632 0-.715.251-1.275.752-1.68.512-.405 1.168-.608 1.968-.608.768 0 1.366.155 1.792.464 0-.768-.106-1.339-.32-1.712-.213-.373-.65-.56-1.312-.56-.65 0-1.312.176-1.984.528zm1.76 4.64c.715 0 1.334-.309 1.856-.928v-.912c-.448-.32-.986-.48-1.616-.48-.426 0-.789.101-1.088.304-.298.203-.448.496-.448.88 0 .352.112.629.336.832.235.203.555.304.96.304zm5.104-4.88v-1.28h6.56v1.28h-2.64V184h-1.28v-5.92h-2.64zm15.063-1.28l-3.152 3.44 3.456 3.76h-1.776l-3.248-3.68 3.04-3.52h1.68zm-6.304 7.2v-7.2h1.28v7.2h-1.28zm10.048 0h-1.28v-7.2h1.28v5.36l4.16-5.36h1.28v7.2h-1.28v-5.36l-4.16 5.36zm78.897-18.92v-1.28h9.2v1.28h-3.92V175h-1.36v-9.92h-3.92zm9.77 9.024c-.7-.715-1.05-1.616-1.05-2.704s.35-1.984 1.05-2.688c.72-.715 1.65-1.072 2.79-1.072 1.14 0 2.06.357 2.77 1.072.71.704 1.07 1.6 1.07 2.688s-.36 1.989-1.07 2.704c-.71.704-1.63 1.056-2.77 1.056-1.14 0-2.07-.352-2.79-1.056zm.31-2.704c0 .747.23 1.36.69 1.84.47.48 1.06.72 1.79.72.72 0 1.32-.235 1.77-.704.47-.48.71-1.099.71-1.856 0-.747-.24-1.36-.71-1.84-.45-.48-1.05-.72-1.77-.72s-1.31.24-1.78.72c-.47.469-.7 1.083-.7 1.84zm8.97 6.8v-10.4h1.28v.848c.25-.299.6-.539 1.04-.72.44-.192.91-.288 1.4-.288 1.02 0 1.82.341 2.42 1.024.61.672.91 1.547.91 2.624 0 1.109-.35 2.032-1.04 2.768-.69.736-1.59 1.104-2.7 1.104-.86 0-1.53-.165-2.03-.496v3.536h-1.28zm3.36-9.36c-.86 0-1.55.331-2.08.992v3.568c.55.373 1.19.56 1.92.56.75 0 1.36-.245 1.8-.736.46-.491.69-1.12.69-1.888 0-.747-.21-1.349-.62-1.808-.42-.459-.99-.688-1.71-.688zm6.33 6.16v-7.2h4.56v1.2h-3.28v6h-1.28zm6.93-.896c-.7-.715-1.05-1.616-1.05-2.704s.35-1.984 1.05-2.688c.72-.715 1.65-1.072 2.79-1.072 1.14 0 2.06.357 2.77 1.072.71.704 1.07 1.6 1.07 2.688s-.36 1.989-1.07 2.704c-.71.704-1.63 1.056-2.77 1.056-1.14 0-2.07-.352-2.79-1.056zm.31-2.704c0 .747.23 1.36.69 1.84.47.48 1.06.72 1.79.72.72 0 1.32-.235 1.77-.704.47-.48.71-1.099.71-1.856 0-.747-.24-1.36-.71-1.84-.45-.48-1.05-.72-1.77-.72s-1.31.24-1.78.72c-.47.469-.7 1.083-.7 1.84zm8.97 3.6v-7.2c.17 0 .54-.011 1.13-.032.6-.021 1.09-.032 1.47-.032 2.07 0 3.11.619 3.11 1.856 0 .427-.14.795-.4 1.104-.27.299-.62.48-1.04.544v.032c1.12.203 1.68.768 1.68 1.696 0 1.397-1.11 2.096-3.31 2.096-.32 0-.79-.011-1.41-.032-.62-.021-1.03-.032-1.23-.032zm2.81-3.232h-1.53v2.208a46.4 46.4 0 001.47.048c1.22 0 1.84-.384 1.84-1.152 0-.736-.59-1.104-1.78-1.104zm-.11-2.992c-.31 0-.78.016-1.42.048v2.144h1.61c.44 0 .79-.101 1.06-.304a.99.99 0 00.4-.816c0-.715-.55-1.072-1.65-1.072zm6 6.224v-7.2h1.28v2.16h1.19c1.02 0 1.75.235 2.19.704.43.459.65 1.051.65 1.776 0 .725-.24 1.333-.72 1.824-.47.491-1.22.736-2.27.736h-2.32zm6.69 0v-7.2h1.28v7.2h-1.28zm-4.46-3.84h-.95v2.64h.93c.62 0 1.06-.107 1.33-.32.27-.224.41-.555.41-.992 0-.885-.57-1.328-1.72-1.328zm10.12 3.84h-1.28v-7.2h1.28v5.36l4.16-5.36h1.28v7.2h-1.28v-5.36l-4.16 5.36zm-.26-10.88h1.2c.06.843.48 1.264 1.23 1.264.72 0 1.11-.421 1.17-1.264h1.2c0 .64-.22 1.173-.66 1.6-.43.427-1 .64-1.71.64-.77 0-1.36-.208-1.79-.624-.43-.416-.64-.955-.64-1.616zm-58.44 21.68l-3.16 3.44 3.46 3.76h-1.78l-3.24-3.68 3.04-3.52h1.68zm-6.31 7.2v-7.2h1.28v7.2h-1.28zm9.15-5.68l-.33-1.024c.7-.437 1.5-.656 2.4-.656.99 0 1.7.245 2.13.736.42.491.64 1.227.64 2.208V193h-1.22v-.928c-.55.693-1.32 1.04-2.3 1.04-.66 0-1.2-.197-1.6-.592-.41-.405-.61-.949-.61-1.632 0-.715.25-1.275.75-1.68.51-.405 1.17-.608 1.97-.608.77 0 1.36.155 1.79.464 0-.768-.11-1.339-.32-1.712-.21-.373-.65-.56-1.31-.56-.65 0-1.31.176-1.99.528zm1.76 4.64c.72 0 1.34-.309 1.86-.928v-.912c-.45-.32-.99-.48-1.62-.48-.42 0-.78.101-1.08.304-.3.203-.45.496-.45.88 0 .352.11.629.33.832.24.203.56.304.96.304zm5.11-4.88v-1.28h6.56v1.28h-2.64V193h-1.28v-5.92h-2.64zm9.14.24l-.34-1.024c.71-.437 1.51-.656 2.4-.656 1 0 1.71.245 2.13.736.43.491.64 1.227.64 2.208V193h-1.21v-.928c-.56.693-1.33 1.04-2.31 1.04-.66 0-1.19-.197-1.6-.592-.4-.405-.61-.949-.61-1.632 0-.715.26-1.275.76-1.68.51-.405 1.16-.608 1.96-.608.77 0 1.37.155 1.8.464 0-.768-.11-1.339-.32-1.712-.22-.373-.65-.56-1.32-.56-.65 0-1.31.176-1.98.528zm1.76 4.64c.72 0 1.33-.309 1.86-.928v-.912c-.45-.32-.99-.48-1.62-.48-.43 0-.79.101-1.09.304-.3.203-.45.496-.45.88 0 .352.12.629.34.832.24.203.56.304.96.304zm10.94 1.04v-5.92h-2.52l-.08 1.216c-.07.8-.16 1.493-.29 2.08-.13.576-.28 1.04-.45 1.392-.16.341-.36.613-.59.816-.24.203-.48.341-.72.416-.25.064-.53.096-.85.096l-.1-1.248c.13.011.26-.005.37-.048.13-.053.27-.16.42-.32.16-.16.3-.373.41-.64.13-.267.24-.64.34-1.12.11-.491.18-1.051.21-1.68l.13-2.24h5v7.2h-1.28zm4.97-.896c-.71-.715-1.06-1.616-1.06-2.704s.35-1.984 1.06-2.688c.71-.715 1.64-1.072 2.78-1.072s2.07.357 2.77 1.072c.71.704 1.07 1.6 1.07 2.688s-.36 1.989-1.07 2.704c-.7.704-1.63 1.056-2.77 1.056-1.14 0-2.07-.352-2.78-1.056zm.3-2.704c0 .747.23 1.36.69 1.84.47.48 1.07.72 1.79.72.73 0 1.32-.235 1.78-.704.47-.48.7-1.099.7-1.856 0-.747-.23-1.36-.7-1.84-.46-.48-1.05-.72-1.78-.72-.71 0-1.3.24-1.77.72-.47.469-.71 1.083-.71 1.84zm8.97 3.6v-7.2h4.56v1.2h-3.28v6h-1.28zm189.33 96v-9.92h-4.07l-.19 2.112c-.13 1.387-.29 2.576-.5 3.568-.2.981-.42 1.755-.65 2.32-.24.565-.51 1.003-.83 1.312-.31.309-.62.501-.92.576-.29.075-.64.085-1.02.032l.02-1.36c.2.021.38.005.54-.048.16-.053.35-.219.58-.496.23-.288.43-.688.6-1.2.19-.512.36-1.269.53-2.272.17-1.003.31-2.197.4-3.584l.16-2.24h6.71V289h-1.36zm6.26 0h-1.28v-7.2h1.28v5.36l4.16-5.36h1.28v7.2H1308v-5.36l-4.16 5.36zm7.58 1.76v-2.96h.89c.26-.32.49-.848.69-1.584.21-.736.35-1.573.42-2.512l.11-1.904h4.91v6h1.2v2.96h-1.2V289h-5.82v1.76h-1.2zm3.23-6.56c-.08.843-.21 1.589-.4 2.24-.19.651-.39 1.104-.58 1.36h3.49V283h-2.43l-.08 1.2zm7.76 3.904c-.7-.715-1.06-1.616-1.06-2.704s.36-1.984 1.06-2.688c.71-.715 1.64-1.072 2.78-1.072s2.07.357 2.77 1.072c.72.704 1.07 1.6 1.07 2.688s-.35 1.989-1.07 2.704c-.7.704-1.63 1.056-2.77 1.056-1.14 0-2.07-.352-2.78-1.056zm.3-2.704c0 .747.23 1.36.69 1.84.47.48 1.07.72 1.79.72.73 0 1.32-.235 1.78-.704.47-.48.7-1.099.7-1.856 0-.747-.23-1.36-.7-1.84-.46-.48-1.05-.72-1.78-.72-.71 0-1.3.24-1.77.72-.47.469-.71 1.083-.71 1.84zm9.21-.16v-1.2h3.82v1.2h-3.82zM1290.15 307v-7.2h4.56v1.2h-3.28v6h-1.28zm12.04-1.792l.4 1.008c-.69.629-1.59.944-2.7.944-1.16 0-2.1-.341-2.8-1.024-.7-.683-1.06-1.595-1.06-2.736 0-1.088.34-1.984 1-2.688.66-.715 1.56-1.072 2.72-1.072.95 0 1.74.309 2.38.928.64.608.96 1.397.96 2.368 0 .331-.03.619-.08.864h-5.54c.06.672.31 1.2.76 1.584.46.384 1.04.576 1.76.576.94 0 1.67-.251 2.2-.752zm-2.51-4.368c-.64 0-1.16.181-1.57.544-.4.352-.64.811-.72 1.376h4.37c-.03-.597-.23-1.067-.61-1.408-.36-.341-.85-.512-1.47-.512zm11.23 6.16v-3.04h-4V307h-1.28v-7.2h1.28v2.96h4v-2.96h1.28v7.2h-1.28zm10.07-1.792l.4 1.008c-.69.629-1.59.944-2.7.944-1.16 0-2.1-.341-2.8-1.024-.71-.683-1.06-1.595-1.06-2.736 0-1.088.33-1.984.99-2.688.67-.715 1.57-1.072 2.72-1.072.95 0 1.75.309 2.39.928.64.608.96 1.397.96 2.368 0 .331-.03.619-.08.864h-5.54c.06.672.31 1.2.75 1.584.46.384 1.05.576 1.76.576.94 0 1.68-.251 2.21-.752zm-2.51-4.368c-.64 0-1.16.181-1.57.544-.4.352-.64.811-.72 1.376h4.37c-.03-.597-.23-1.067-.61-1.408-.36-.341-.85-.512-1.47-.512zm5.94 9.36v-10.4h1.28v.848c.26-.299.61-.539 1.04-.72.45-.192.92-.288 1.41-.288 1.02 0 1.82.341 2.42 1.024.61.672.91 1.547.91 2.624 0 1.109-.35 2.032-1.04 2.768-.69.736-1.59 1.104-2.7 1.104-.86 0-1.53-.165-2.04-.496v3.536h-1.28zm3.36-9.36c-.85 0-1.54.331-2.08.992v3.568c.56.373 1.2.56 1.92.56.76 0 1.36-.245 1.81-.736.46-.491.69-1.12.69-1.888 0-.747-.21-1.349-.62-1.808-.42-.459-.99-.688-1.72-.688zm6.72.48l-.34-1.024c.71-.437 1.51-.656 2.4-.656 1 0 1.7.245 2.13.736.43.491.64 1.227.64 2.208V307h-1.21v-.928c-.56.693-1.33 1.04-2.31 1.04-.66 0-1.19-.197-1.6-.592-.4-.405-.61-.949-.61-1.632 0-.715.25-1.275.76-1.68s1.16-.608 1.96-.608c.77 0 1.37.155 1.8.464 0-.768-.11-1.339-.32-1.712-.22-.373-.66-.56-1.32-.56-.65 0-1.31.176-1.98.528zm1.76 4.64c.71 0 1.33-.309 1.86-.928v-.912c-.45-.32-.99-.48-1.62-.48-.43 0-.79.101-1.09.304-.3.203-.45.496-.45.88 0 .352.12.629.34.832.23.203.55.304.96.304zm6.01 1.04v-7.2h1.28v6h3.84v-6h1.28v6h1.2v2.96h-1.2V307h-6.4zm11.07 0h-1.28v-7.2h1.28v5.36l4.16-5.36h1.28v7.2h-1.28v-5.36l-4.16 5.36zm11.72-7.2h2.24v7.2h-1.28v-2.4h-1.39l-1.76 2.4h-1.56l2.08-2.72c-.41-.096-.77-.325-1.08-.688-.31-.373-.47-.837-.47-1.392 0-.693.26-1.264.77-1.712.51-.459 1.33-.688 2.45-.688zm-1.86 2.432c0 .352.14.635.42.848.28.213.58.32.93.32h1.47V301h-1.17c-.57 0-.98.117-1.25.352-.26.224-.4.517-.4.88zm30.97-115.152v-1.28h9.2v1.28h-3.92V197h-1.36v-9.92h-3.92zm9.77 9.024c-.7-.715-1.05-1.616-1.05-2.704s.35-1.984 1.05-2.688c.72-.715 1.65-1.072 2.79-1.072 1.14 0 2.06.357 2.77 1.072.71.704 1.07 1.6 1.07 2.688s-.36 1.989-1.07 2.704c-.71.704-1.63 1.056-2.77 1.056-1.14 0-2.07-.352-2.79-1.056zm.31-2.704c0 .747.23 1.36.69 1.84.47.48 1.06.72 1.79.72.72 0 1.32-.235 1.77-.704.47-.48.71-1.099.71-1.856 0-.747-.24-1.36-.71-1.84-.45-.48-1.05-.72-1.77-.72s-1.31.24-1.78.72c-.47.469-.7 1.083-.7 1.84zm8.97 6.8v-10.4h1.28v.848c.25-.299.6-.539 1.04-.72.44-.192.91-.288 1.4-.288 1.02 0 1.82.341 2.42 1.024.61.672.91 1.547.91 2.624 0 1.109-.35 2.032-1.04 2.768-.69.736-1.59 1.104-2.7 1.104-.86 0-1.53-.165-2.03-.496v3.536h-1.28zm3.36-9.36c-.86 0-1.55.331-2.08.992v3.568c.55.373 1.19.56 1.92.56.75 0 1.36-.245 1.8-.736.46-.491.69-1.12.69-1.888 0-.747-.21-1.349-.62-1.808-.42-.459-.99-.688-1.71-.688zm6.33 6.16v-7.2h4.56v1.2h-3.28v6h-1.28zm6.93-.896c-.7-.715-1.05-1.616-1.05-2.704s.35-1.984 1.05-2.688c.72-.715 1.65-1.072 2.79-1.072 1.14 0 2.06.357 2.77 1.072.71.704 1.07 1.6 1.07 2.688s-.36 1.989-1.07 2.704c-.71.704-1.63 1.056-2.77 1.056-1.14 0-2.07-.352-2.79-1.056zm.31-2.704c0 .747.23 1.36.69 1.84.47.48 1.06.72 1.79.72.72 0 1.32-.235 1.77-.704.47-.48.71-1.099.71-1.856 0-.747-.24-1.36-.71-1.84-.45-.48-1.05-.72-1.77-.72s-1.31.24-1.78.72c-.47.469-.7 1.083-.7 1.84zm8.97 3.6v-7.2c.17 0 .54-.011 1.13-.032.6-.021 1.09-.032 1.47-.032 2.07 0 3.11.619 3.11 1.856 0 .427-.14.795-.4 1.104-.27.299-.62.48-1.04.544v.032c1.12.203 1.68.768 1.68 1.696 0 1.397-1.11 2.096-3.31 2.096-.32 0-.79-.011-1.41-.032-.62-.021-1.03-.032-1.23-.032zm2.81-3.232h-1.53v2.208a46.4 46.4 0 001.47.048c1.22 0 1.84-.384 1.84-1.152 0-.736-.59-1.104-1.78-1.104zm-.11-2.992c-.31 0-.78.016-1.42.048v2.144h1.61c.44 0 .79-.101 1.06-.304a.99.99 0 00.4-.816c0-.715-.55-1.072-1.65-1.072zm6 6.224v-7.2h1.28v2.16h1.19c1.02 0 1.75.235 2.19.704.43.459.65 1.051.65 1.776 0 .725-.24 1.333-.72 1.824-.47.491-1.22.736-2.27.736h-2.32zm6.69 0v-7.2h1.28v7.2h-1.28zm-4.46-3.84h-.95v2.64h.93c.62 0 1.06-.107 1.33-.32.27-.224.41-.555.41-.992 0-.885-.57-1.328-1.72-1.328zm10.12 3.84h-1.28v-7.2h1.28v5.36l4.16-5.36h1.28v7.2h-1.28v-5.36l-4.16 5.36zm-.26-10.88h1.2c.06.843.48 1.264 1.23 1.264.72 0 1.11-.421 1.17-1.264h1.2c0 .64-.22 1.173-.66 1.6-.43.427-1 .64-1.71.64-.77 0-1.36-.208-1.79-.624-.43-.416-.64-.955-.64-1.616zm-58.44 21.68l-3.16 3.44 3.46 3.76h-1.78l-3.24-3.68 3.04-3.52h1.68zm-6.31 7.2v-7.2h1.28v7.2h-1.28zm9.15-5.68l-.33-1.024c.7-.437 1.5-.656 2.4-.656.99 0 1.7.245 2.13.736.42.491.64 1.227.64 2.208V215h-1.22v-.928c-.55.693-1.32 1.04-2.3 1.04-.66 0-1.2-.197-1.6-.592-.41-.405-.61-.949-.61-1.632 0-.715.25-1.275.75-1.68.51-.405 1.17-.608 1.97-.608.77 0 1.36.155 1.79.464 0-.768-.11-1.339-.32-1.712-.21-.373-.65-.56-1.31-.56-.65 0-1.31.176-1.99.528zm1.76 4.64c.72 0 1.34-.309 1.86-.928v-.912c-.45-.32-.99-.48-1.62-.48-.42 0-.78.101-1.08.304-.3.203-.45.496-.45.88 0 .352.11.629.33.832.24.203.56.304.96.304zm5.11-4.88v-1.28h6.56v1.28h-2.64V215h-1.28v-5.92h-2.64zm9.14.24l-.34-1.024c.71-.437 1.51-.656 2.4-.656 1 0 1.71.245 2.13.736.43.491.64 1.227.64 2.208V215h-1.21v-.928c-.56.693-1.33 1.04-2.31 1.04-.66 0-1.19-.197-1.6-.592-.4-.405-.61-.949-.61-1.632 0-.715.26-1.275.76-1.68.51-.405 1.16-.608 1.96-.608.77 0 1.37.155 1.8.464 0-.768-.11-1.339-.32-1.712-.22-.373-.65-.56-1.32-.56-.65 0-1.31.176-1.98.528zm1.76 4.64c.72 0 1.33-.309 1.86-.928v-.912c-.45-.32-.99-.48-1.62-.48-.43 0-.79.101-1.09.304-.3.203-.45.496-.45.88 0 .352.12.629.34.832.24.203.56.304.96.304zm10.94 1.04v-5.92h-2.52l-.08 1.216c-.07.8-.16 1.493-.29 2.08-.13.576-.28 1.04-.45 1.392-.16.341-.36.613-.59.816-.24.203-.48.341-.72.416-.25.064-.53.096-.85.096l-.1-1.248c.13.011.26-.005.37-.048.13-.053.27-.16.42-.32.16-.16.3-.373.41-.64.13-.267.24-.64.34-1.12.11-.491.18-1.051.21-1.68l.13-2.24h5v7.2h-1.28zm4.97-.896c-.71-.715-1.06-1.616-1.06-2.704s.35-1.984 1.06-2.688c.71-.715 1.64-1.072 2.78-1.072s2.07.357 2.77 1.072c.71.704 1.07 1.6 1.07 2.688s-.36 1.989-1.07 2.704c-.7.704-1.63 1.056-2.77 1.056-1.14 0-2.07-.352-2.78-1.056zm.3-2.704c0 .747.23 1.36.69 1.84.47.48 1.07.72 1.79.72.73 0 1.32-.235 1.78-.704.47-.48.7-1.099.7-1.856 0-.747-.23-1.36-.7-1.84-.46-.48-1.05-.72-1.78-.72-.71 0-1.3.24-1.77.72-.47.469-.71 1.083-.71 1.84zm8.97 3.6v-7.2h4.56v1.2h-3.28v6h-1.28z" fill="#141414"/><path d="M1494 130v123m-13 5l11.59 11.586a1.99 1.99 0 002.82 0L1507 258" stroke="#C5CDCF" stroke-width="3" stroke-linecap="round"/><path d="M958.304 519.16c-.811 0-1.547-.171-2.208-.512-.651-.341-1.136-.757-1.456-1.248l.752-.912c.352.416.795.752 1.328 1.008s1.035.384 1.504.384c.757 0 1.371-.187 1.84-.56.469-.384.704-.912.704-1.584 0-.555-.192-.997-.576-1.328-.384-.331-.923-.496-1.616-.496h-1.296v-1.28h1.2c.491 0 .923-.176 1.296-.528.373-.363.56-.816.56-1.36 0-.587-.192-1.035-.576-1.344-.373-.32-.859-.48-1.456-.48-.992 0-1.84.416-2.544 1.248l-.8-.896c.384-.501.88-.896 1.488-1.184a4.535 4.535 0 012-.448c.981 0 1.765.261 2.352.784.597.523.896 1.253.896 2.192 0 .501-.139.987-.416 1.456a2.87 2.87 0 01-1.2 1.104v.048c.661.128 1.168.432 1.52.912.352.48.528 1.056.528 1.728 0 1.003-.373 1.803-1.12 2.4-.736.597-1.637.896-2.704.896zm7.282-5.84l-.336-1.024c.704-.437 1.504-.656 2.4-.656.992 0 1.701.245 2.128.736.427.491.64 1.227.64 2.208V519h-1.216v-.928c-.555.693-1.323 1.04-2.304 1.04-.661 0-1.195-.197-1.6-.592-.405-.405-.608-.949-.608-1.632 0-.715.251-1.275.752-1.68.512-.405 1.168-.608 1.968-.608.768 0 1.365.155 1.792.464 0-.768-.107-1.339-.32-1.712-.213-.373-.651-.56-1.312-.56-.651 0-1.312.176-1.984.528zm1.76 4.64c.715 0 1.333-.309 1.856-.928v-.912c-.448-.32-.987-.48-1.616-.48-.427 0-.789.101-1.088.304-.299.203-.448.496-.448.88 0 .352.112.629.336.832.235.203.555.304.96.304zm12.319-6.16l-3.152 3.44 3.456 3.76h-1.776l-3.248-3.68 3.04-3.52h1.68zm-6.304 7.2v-7.2h1.28v7.2h-1.28zm9.153-5.68l-.336-1.024c.704-.437 1.504-.656 2.4-.656.992 0 1.701.245 2.128.736.427.491.64 1.227.64 2.208V519h-1.216v-.928c-.555.693-1.323 1.04-2.304 1.04-.661 0-1.195-.197-1.6-.592-.405-.405-.608-.949-.608-1.632 0-.715.251-1.275.752-1.68.512-.405 1.168-.608 1.968-.608.768 0 1.365.155 1.792.464 0-.768-.107-1.339-.32-1.712-.213-.373-.651-.56-1.312-.56-.651 0-1.312.176-1.984.528zm1.76 4.64c.715 0 1.333-.309 1.856-.928v-.912c-.448-.32-.987-.48-1.616-.48-.427 0-.789.101-1.088.304-.299.203-.448.496-.448.88 0 .352.112.629.336.832.235.203.555.304.96.304zm8.4 1.2a5.948 5.948 0 01-1.728-.272c-.598-.192-1.014-.427-1.248-.704l.656-.96c.288.235.629.427 1.024.576.405.139.773.208 1.104.208.554 0 1.008-.107 1.36-.32.352-.224.528-.512.528-.864a.765.765 0 00-.384-.688c-.246-.16-.587-.24-1.024-.24h-1.216v-1.04h1.136c.362 0 .661-.096.896-.288a.941.941 0 00.352-.736.853.853 0 00-.416-.752c-.278-.192-.651-.288-1.12-.288-.768 0-1.488.267-2.16.8l-.496-.992c.288-.299.688-.533 1.2-.704a5.263 5.263 0 011.648-.256c.864 0 1.53.176 2 .528.469.341.704.811.704 1.408 0 .832-.422 1.397-1.264 1.696v.032c.48.053.848.24 1.104.56.266.32.4.699.4 1.136 0 .661-.283 1.189-.848 1.584-.566.384-1.302.576-2.208.576zm5.806-.16v-7.2h1.28v2.16h1.18c1.03 0 1.76.235 2.2.704.43.459.65 1.051.65 1.776 0 .725-.24 1.333-.72 1.824-.47.491-1.22.736-2.27.736h-2.32zm6.69 0v-7.2h1.28v7.2h-1.28zm-4.47-3.84h-.94v2.64h.93c.62 0 1.06-.107 1.33-.32.27-.224.41-.555.41-.992 0-.885-.57-1.328-1.73-1.328zM960.432 537v-3.04h-4V537h-1.28v-7.2h1.28v2.96h4v-2.96h1.28v7.2h-1.28zm4.779-5.68l-.336-1.024c.704-.437 1.504-.656 2.4-.656.992 0 1.701.245 2.128.736.427.491.64 1.227.64 2.208V537h-1.216v-.928c-.555.693-1.323 1.04-2.304 1.04-.661 0-1.195-.197-1.6-.592-.405-.405-.608-.949-.608-1.632 0-.715.251-1.275.752-1.68.512-.405 1.168-.608 1.968-.608.768 0 1.365.155 1.792.464 0-.768-.107-1.339-.32-1.712-.213-.373-.651-.56-1.312-.56-.651 0-1.312.176-1.984.528zm1.76 4.64c.715 0 1.333-.309 1.856-.928v-.912c-.448-.32-.987-.48-1.616-.48-.427 0-.789.101-1.088.304-.299.203-.448.496-.448.88 0 .352.112.629.336.832.235.203.555.304.96.304zm10.985.144c-.704-.715-1.056-1.616-1.056-2.704s.352-1.984 1.056-2.688c.715-.715 1.643-1.072 2.784-1.072 1.141 0 2.064.357 2.768 1.072.715.704 1.072 1.6 1.072 2.688s-.357 1.989-1.072 2.704c-.704.704-1.627 1.056-2.768 1.056-1.141 0-2.069-.352-2.784-1.056zm.304-2.704c0 .747.229 1.36.688 1.84.469.48 1.067.72 1.792.72.725 0 1.317-.235 1.776-.704.469-.48.704-1.099.704-1.856 0-.747-.235-1.36-.704-1.84-.459-.48-1.051-.72-1.776-.72-.715 0-1.307.24-1.776.72-.469.469-.704 1.083-.704 1.84zm14.167 3.6v-6h-3.92v6h-1.28v-7.2h6.48v7.2h-1.28zm9.323 0v-5.92h-2.526l-.08 1.216c-.064.8-.16 1.493-.288 2.08-.128.576-.277 1.04-.448 1.392a2.41 2.41 0 01-.592.816 2.007 2.007 0 01-.72.416 3.372 3.372 0 01-.848.096l-.096-1.248a.845.845 0 00.368-.048c.128-.053.267-.16.416-.32.16-.16.299-.373.416-.64.128-.267.24-.64.336-1.12.107-.491.176-1.051.208-1.68l.128-2.24h5.006v7.2h-1.28zm4.77-5.68l-.33-1.024c.7-.437 1.5-.656 2.4-.656.99 0 1.7.245 2.13.736.42.491.64 1.227.64 2.208V537h-1.22v-.928c-.56.693-1.32 1.04-2.3 1.04-.67 0-1.2-.197-1.6-.592-.41-.405-.61-.949-.61-1.632 0-.715.25-1.275.75-1.68.51-.405 1.17-.608 1.97-.608.77 0 1.36.155 1.79.464 0-.768-.11-1.339-.32-1.712-.21-.373-.65-.56-1.31-.56-.65 0-1.31.176-1.99.528zm1.76 4.64c.72 0 1.34-.309 1.86-.928v-.912c-.45-.32-.99-.48-1.62-.48-.42 0-.79.101-1.08.304-.3.203-.45.496-.45.88 0 .352.11.629.33.832.24.203.56.304.96.304zm5.11-4.88v-1.28h6.56v1.28h-2.64V537h-1.28v-5.92h-2.64zm15.49-1.28L1026 537c-.51 1.248-.97 2.091-1.36 2.528-.4.448-.86.672-1.39.672-.46 0-.92-.149-1.36-.448l.41-.976c.34.16.61.24.8.24.3 0 .57-.128.8-.384.25-.256.49-.672.74-1.248l.16-.384-3.46-7.2h1.54l2.11 4.576c.04.096.19.459.43 1.088.1-.352.21-.72.34-1.104l1.66-4.56h1.46zm368.16-62.8h-1.36v-11.2c.2 0 .68-.005 1.42-.016.76-.011 1.26-.016 1.51-.016 1.47 0 2.53.331 3.17.992.65.651.97 1.477.97 2.48 0 .981-.35 1.813-1.05 2.496-.7.683-1.69 1.024-2.98 1.024-.62 0-1.18-.021-1.68-.064V467zm1.7-9.952c-.43 0-1 .011-1.7.032v4.32c.61.053 1.15.08 1.63.08.82 0 1.47-.197 1.94-.592.47-.405.7-.96.7-1.664 0-.683-.21-1.216-.64-1.6-.42-.384-1.07-.576-1.93-.576zm6.47 4.272l-.33-1.024c.7-.437 1.5-.656 2.4-.656.99 0 1.7.245 2.12.736.43.491.64 1.227.64 2.208V467h-1.21v-.928c-.56.693-1.33 1.04-2.31 1.04-.66 0-1.19-.197-1.6-.592-.4-.405-.6-.949-.6-1.632 0-.715.25-1.275.75-1.68.51-.405 1.17-.608 1.97-.608.76 0 1.36.155 1.79.464 0-.768-.11-1.339-.32-1.712-.22-.373-.65-.56-1.31-.56s-1.32.176-1.99.528zm1.76 4.64c.72 0 1.33-.309 1.86-.928v-.912c-.45-.32-.99-.48-1.62-.48-.43 0-.79.101-1.09.304-.3.203-.44.496-.44.88 0 .352.11.629.33.832.24.203.56.304.96.304zm11.58-10.32l.69 1.008c-.25.352-.56.592-.93.72a7.74 7.74 0 01-1.34.32c-.53.085-1 .219-1.39.4-1.09.491-1.7 1.648-1.83 3.472h.04c.23-.501.61-.907 1.13-1.216a3.392 3.392 0 011.71-.464c1.03 0 1.84.325 2.44.976.6.651.91 1.52.91 2.608 0 1.024-.35 1.899-1.04 2.624-.69.715-1.58 1.072-2.66 1.072-1.17 0-2.1-.4-2.78-1.2-.68-.8-1.03-1.893-1.03-3.28 0-3.125.9-5.061 2.68-5.808.43-.192.9-.325 1.4-.4a9.48 9.48 0 001.22-.272c.31-.096.57-.283.78-.56zm-4.72 7.28c0 .917.23 1.653.68 2.208.44.555 1.03.832 1.74.832.69 0 1.26-.235 1.7-.704.44-.469.67-1.045.67-1.728 0-.725-.2-1.312-.61-1.76-.4-.459-.97-.688-1.7-.688-.64 0-1.18.181-1.63.544-.45.363-.73.795-.85 1.296zm9.36 3.184c-.7-.715-1.06-1.616-1.06-2.704s.36-1.984 1.06-2.688c.72-.715 1.64-1.072 2.78-1.072 1.15 0 2.07.357 2.77 1.072.72.704 1.07 1.6 1.07 2.688s-.35 1.989-1.07 2.704c-.7.704-1.62 1.056-2.77 1.056-1.14 0-2.06-.352-2.78-1.056zm.3-2.704c0 .747.23 1.36.69 1.84.47.48 1.07.72 1.79.72.73 0 1.32-.235 1.78-.704.47-.48.7-1.099.7-1.856 0-.747-.23-1.36-.7-1.84-.46-.48-1.05-.72-1.78-.72-.71 0-1.3.24-1.77.72-.47.469-.71 1.083-.71 1.84zm7.78-2.32v-1.28h6.56v1.28h-2.64V467h-1.28v-5.92h-2.64zm9.14.24l-.33-1.024c.7-.437 1.5-.656 2.4-.656.99 0 1.7.245 2.12.736.43.491.64 1.227.64 2.208V467h-1.21v-.928c-.56.693-1.33 1.04-2.31 1.04-.66 0-1.19-.197-1.6-.592-.4-.405-.6-.949-.6-1.632 0-.715.25-1.275.75-1.68.51-.405 1.17-.608 1.97-.608.76 0 1.36.155 1.79.464 0-.768-.11-1.339-.32-1.712-.22-.373-.65-.56-1.31-.56s-1.32.176-1.99.528zm1.76 4.64c.72 0 1.33-.309 1.86-.928v-.912c-.45-.32-.99-.48-1.62-.48-.43 0-.79.101-1.09.304-.3.203-.44.496-.44.88 0 .352.11.629.33.832.24.203.56.304.96.304zm-41.48 17.072l.61.928c-.3.384-.7.683-1.19.896-.49.203-1.02.304-1.58.304-1.15 0-2.09-.341-2.8-1.024-.71-.693-1.06-1.605-1.06-2.736 0-1.056.35-1.947 1.04-2.672.7-.725 1.56-1.088 2.61-1.088 1.26 0 2.2.315 2.83.944l-.59 1.008c-.54-.501-1.23-.752-2.06-.752-.68 0-1.26.245-1.75.736-.48.48-.72 1.088-.72 1.824 0 .768.25 1.387.74 1.856.5.469 1.12.704 1.85.704.84 0 1.52-.309 2.07-.928zm13.04-9.392l.68 1.008c-.25.352-.56.592-.92.72-.37.128-.81.235-1.35.32-.53.085-1 .219-1.39.4-1.09.491-1.7 1.648-1.82 3.472h.03c.23-.501.61-.907 1.13-1.216a3.401 3.401 0 011.72-.464c1.02 0 1.83.325 2.43.976.61.651.91 1.52.91 2.608 0 1.024-.35 1.899-1.04 2.624-.69.715-1.58 1.072-2.66 1.072-1.17 0-2.1-.4-2.78-1.2-.68-.8-1.02-1.893-1.02-3.28 0-3.125.89-5.061 2.67-5.808.44-.192.9-.325 1.41-.4.5-.085.9-.176 1.21-.272.31-.096.57-.283.79-.56zm-4.72 7.28c0 .917.22 1.653.67 2.208.45.555 1.03.832 1.74.832.7 0 1.26-.235 1.7-.704.45-.469.67-1.045.67-1.728 0-.725-.2-1.312-.61-1.76-.4-.459-.97-.688-1.69-.688-.64 0-1.19.181-1.64.544-.44.363-.73.795-.84 1.296zm9.16-1.6l-.34-1.024c.71-.437 1.51-.656 2.4-.656 1 0 1.71.245 2.13.736.43.491.64 1.227.64 2.208V485h-1.21v-.928c-.56.693-1.33 1.04-2.31 1.04-.66 0-1.19-.197-1.6-.592-.4-.405-.61-.949-.61-1.632 0-.715.26-1.275.76-1.68.51-.405 1.16-.608 1.96-.608.77 0 1.37.155 1.8.464 0-.768-.11-1.339-.32-1.712-.22-.373-.65-.56-1.32-.56-.65 0-1.31.176-1.98.528zm1.76 4.64c.72 0 1.33-.309 1.86-.928v-.912c-.45-.32-.99-.48-1.62-.48-.43 0-.79.101-1.09.304-.3.203-.45.496-.45.88 0 .352.12.629.34.832.24.203.56.304.96.304zm8.4 1.2c-.55 0-1.13-.091-1.73-.272-.6-.192-1.01-.427-1.25-.704l.66-.96c.29.235.63.427 1.02.576.41.139.78.208 1.11.208.55 0 1.01-.107 1.36-.32.35-.224.53-.512.53-.864a.763.763 0 00-.39-.688c-.24-.16-.58-.24-1.02-.24h-1.22v-1.04h1.14c.36 0 .66-.096.89-.288.24-.203.36-.448.36-.736 0-.32-.14-.571-.42-.752-.28-.192-.65-.288-1.12-.288-.77 0-1.49.267-2.16.8l-.5-.992c.29-.299.69-.533 1.2-.704a5.34 5.34 0 011.65-.256c.87 0 1.53.176 2 .528.47.341.71.811.71 1.408 0 .832-.43 1.397-1.27 1.696v.032c.48.053.85.24 1.11.56.26.32.4.699.4 1.136 0 .661-.29 1.189-.85 1.584-.57.384-1.3.576-2.21.576zm6.38-1.056c-.7-.715-1.05-1.616-1.05-2.704s.35-1.984 1.05-2.688c.72-.715 1.65-1.072 2.79-1.072 1.14 0 2.06.357 2.76 1.072.72.704 1.08 1.6 1.08 2.688s-.36 1.989-1.08 2.704c-.7.704-1.62 1.056-2.76 1.056-1.14 0-2.07-.352-2.79-1.056zm.31-2.704c0 .747.23 1.36.68 1.84.47.48 1.07.72 1.8.72.72 0 1.31-.235 1.77-.704.47-.48.71-1.099.71-1.856 0-.747-.24-1.36-.71-1.84-.46-.48-1.05-.72-1.77-.72s-1.31.24-1.78.72c-.47.469-.7 1.083-.7 1.84zm10.24 3.6h-1.28v-7.2h1.28v5.36l4.16-5.36h1.28v7.2h-1.28v-5.36l-4.16 5.36zm-.25-10.88h1.2c.06.843.47 1.264 1.23 1.264.71 0 1.1-.421 1.17-1.264h1.2c0 .64-.22 1.173-.66 1.6-.44.427-1.01.64-1.71.64-.77 0-1.37-.208-1.79-.624-.43-.416-.64-.955-.64-1.616zM1400.08 503v-5.92h-2.53l-.08 1.216c-.06.8-.16 1.493-.29 2.08-.12.576-.27 1.04-.44 1.392-.16.341-.36.613-.6.816-.23.203-.47.341-.72.416a3.28 3.28 0 01-.84.096l-.1-1.248c.13.011.25-.005.37-.048.13-.053.26-.16.41-.32.16-.16.3-.373.42-.64.13-.267.24-.64.34-1.12.1-.491.17-1.051.2-1.68l.13-2.24h5.01v7.2h-1.28zm5.67 0h-1.28v-7.2h1.28v5.36l4.16-5.36h1.28v7.2h-1.28v-5.36l-4.16 5.36zm7.57 1.76v-2.96h.9c.25-.32.48-.848.69-1.584.21-.736.35-1.573.41-2.512l.11-1.904h4.92v6h1.2v2.96h-1.2V503h-5.83v1.76h-1.2zm3.23-6.56c-.07.843-.2 1.589-.4 2.24-.19.651-.38 1.104-.57 1.36h3.49V497h-2.44l-.08 1.2zm7.77 3.904c-.71-.715-1.06-1.616-1.06-2.704s.35-1.984 1.06-2.688c.71-.715 1.64-1.072 2.78-1.072s2.06.357 2.77 1.072c.71.704 1.07 1.6 1.07 2.688s-.36 1.989-1.07 2.704c-.71.704-1.63 1.056-2.77 1.056-1.14 0-2.07-.352-2.78-1.056zm.3-2.704c0 .747.23 1.36.69 1.84.47.48 1.06.72 1.79.72.72 0 1.32-.235 1.78-.704.46-.48.7-1.099.7-1.856 0-.747-.24-1.36-.7-1.84-.46-.48-1.06-.72-1.78-.72s-1.31.24-1.78.72c-.47.469-.7 1.083-.7 1.84zm8.97 3.6v-7.2c.17 0 .55-.011 1.13-.032.6-.021 1.09-.032 1.47-.032 2.07 0 3.11.619 3.11 1.856 0 .427-.13.795-.4 1.104-.27.299-.61.48-1.04.544v.032c1.12.203 1.68.768 1.68 1.696 0 1.397-1.11 2.096-3.31 2.096-.32 0-.79-.011-1.41-.032-.62-.021-1.03-.032-1.23-.032zm2.81-3.232h-1.53v2.208c.76.032 1.26.048 1.47.048 1.23 0 1.84-.384 1.84-1.152 0-.736-.59-1.104-1.78-1.104zm-.11-2.992c-.31 0-.78.016-1.42.048v2.144h1.61c.44 0 .79-.101 1.06-.304.27-.203.4-.475.4-.816 0-.715-.55-1.072-1.65-1.072zM1289.8 405.4c0-1.632.54-2.997 1.62-4.096 1.07-1.109 2.44-1.664 4.09-1.664 1.64 0 3 .539 4.08 1.616 1.09 1.077 1.63 2.459 1.63 4.144 0 1.653-.54 3.029-1.63 4.128-1.09 1.088-2.45 1.632-4.08 1.632-1.64 0-3.01-.539-4.09-1.616s-1.62-2.459-1.62-4.144zm1.44 0c0 1.269.41 2.336 1.23 3.2.82.853 1.84 1.28 3.04 1.28 1.26 0 2.28-.427 3.07-1.28.8-.853 1.2-1.92 1.2-3.2 0-1.291-.41-2.357-1.23-3.2-.82-.853-1.83-1.28-3.04-1.28-1.22 0-2.24.421-3.05 1.264-.81.843-1.22 1.915-1.22 3.216zm18.31-5.76l.69 1.008c-.26.352-.57.592-.93.72a7.74 7.74 0 01-1.34.32c-.54.085-1 .219-1.39.4-1.09.491-1.7 1.648-1.83 3.472h.03c.24-.501.62-.907 1.14-1.216.53-.309 1.1-.464 1.71-.464 1.03 0 1.84.325 2.43.976.61.651.92 1.52.92 2.608 0 1.024-.35 1.899-1.04 2.624-.7.715-1.58 1.072-2.66 1.072-1.17 0-2.1-.4-2.78-1.2-.69-.8-1.03-1.893-1.03-3.28 0-3.125.89-5.061 2.67-5.808.44-.192.91-.325 1.41-.4.5-.085.91-.176 1.22-.272.31-.096.57-.283.78-.56zm-4.72 7.28c0 .917.23 1.653.67 2.208.45.555 1.03.832 1.75.832.69 0 1.26-.235 1.69-.704.45-.469.68-1.045.68-1.728 0-.725-.21-1.312-.61-1.76-.41-.459-.97-.688-1.7-.688-.64 0-1.18.181-1.63.544-.45.363-.73.795-.85 1.296zm14.06 4.08v-3.04h-4V411h-1.28v-7.2h1.28v2.96h4v-2.96h1.28v7.2h-1.28zm4.97-.896c-.7-.715-1.05-1.616-1.05-2.704s.35-1.984 1.05-2.688c.72-.715 1.65-1.072 2.79-1.072 1.14 0 2.06.357 2.76 1.072.72.704 1.08 1.6 1.08 2.688s-.36 1.989-1.08 2.704c-.7.704-1.62 1.056-2.76 1.056-1.14 0-2.07-.352-2.79-1.056zm.31-2.704c0 .747.23 1.36.68 1.84.47.48 1.07.72 1.8.72.72 0 1.31-.235 1.77-.704.47-.48.71-1.099.71-1.856 0-.747-.24-1.36-.71-1.84-.46-.48-1.05-.72-1.77-.72s-1.31.24-1.78.72c-.47.469-.7 1.083-.7 1.84zm8.96 3.6v-7.2c.17 0 .55-.011 1.14-.032.6-.021 1.09-.032 1.47-.032 2.07 0 3.11.619 3.11 1.856 0 .427-.14.795-.4 1.104-.27.299-.62.48-1.04.544v.032c1.12.203 1.68.768 1.68 1.696 0 1.397-1.11 2.096-3.32 2.096-.32 0-.79-.011-1.4-.032a46.21 46.21 0 00-1.24-.032zm2.82-3.232h-1.54v2.208c.77.032 1.26.048 1.48.048 1.22 0 1.84-.384 1.84-1.152 0-.736-.6-1.104-1.78-1.104zm-.11-2.992c-.31 0-.79.016-1.43.048v2.144h1.62c.44 0 .79-.101 1.06-.304a.99.99 0 00.4-.816c0-.715-.55-1.072-1.65-1.072zm10.93 6.224v-5.92h-2.53l-.08 1.216c-.06.8-.16 1.493-.29 2.08-.13.576-.28 1.04-.45 1.392-.16.341-.35.613-.59.816-.23.203-.47.341-.72.416-.24.064-.53.096-.85.096l-.09-1.248c.13.011.25-.005.37-.048.12-.053.26-.16.41-.32.16-.16.3-.373.42-.64.13-.267.24-.64.33-1.12.11-.491.18-1.051.21-1.68l.13-2.24h5.01v7.2h-1.28zm10.07-1.792l.4 1.008c-.7.629-1.6.944-2.71.944-1.16 0-2.09-.341-2.8-1.024-.7-.683-1.05-1.595-1.05-2.736 0-1.088.33-1.984.99-2.688.66-.715 1.57-1.072 2.72-1.072.95 0 1.74.309 2.38.928.64.608.96 1.397.96 2.368 0 .331-.03.619-.08.864h-5.53c.05.672.3 1.2.75 1.584.46.384 1.04.576 1.76.576.94 0 1.67-.251 2.21-.752zm-2.52-4.368c-.64 0-1.16.181-1.56.544-.41.352-.65.811-.72 1.376h4.36c-.03-.597-.23-1.067-.6-1.408-.37-.341-.86-.512-1.48-.512zm11.23 6.16v-3.04h-4V411h-1.28v-7.2h1.28v2.96h4v-2.96h1.28v7.2h-1.28zm5.67 0h-1.28v-7.2h1.28v5.36l4.16-5.36h1.28v7.2h-1.28v-5.36l-4.16 5.36zm11.72-7.2h2.24v7.2h-1.28v-2.4h-1.39l-1.76 2.4h-1.55l2.08-2.72c-.42-.096-.78-.325-1.09-.688-.31-.373-.46-.837-.46-1.392 0-.693.25-1.264.76-1.712.52-.459 1.33-.688 2.45-.688zm-1.85 2.432c0 .352.13.635.41.848.28.213.59.32.93.32h1.47V405h-1.17c-.56 0-.98.117-1.24.352-.27.224-.4.517-.4.88zM1295.35 429v-6h-3.92v6h-1.28v-7.2h6.48v7.2h-1.28zm4.97-.896c-.7-.715-1.05-1.616-1.05-2.704s.35-1.984 1.05-2.688c.72-.715 1.65-1.072 2.79-1.072 1.14 0 2.06.357 2.77 1.072.71.704 1.07 1.6 1.07 2.688s-.36 1.989-1.07 2.704c-.71.704-1.63 1.056-2.77 1.056-1.14 0-2.07-.352-2.79-1.056zm.31-2.704c0 .747.23 1.36.69 1.84.47.48 1.06.72 1.79.72.72 0 1.32-.235 1.77-.704.47-.48.71-1.099.71-1.856 0-.747-.24-1.36-.71-1.84-.45-.48-1.05-.72-1.77-.72s-1.31.24-1.78.72c-.47.469-.7 1.083-.7 1.84zm15.74 3.76c-.55 0-1.13-.091-1.72-.272-.6-.192-1.02-.427-1.25-.704l.65-.96c.29.235.63.427 1.03.576.4.139.77.208 1.1.208.56 0 1.01-.107 1.36-.32.35-.224.53-.512.53-.864a.774.774 0 00-.38-.688c-.25-.16-.59-.24-1.03-.24h-1.21v-1.04h1.13c.36 0 .66-.096.9-.288.23-.203.35-.448.35-.736 0-.32-.14-.571-.42-.752-.27-.192-.65-.288-1.12-.288-.76 0-1.48.267-2.16.8l-.49-.992c.29-.299.69-.533 1.2-.704a5.248 5.248 0 011.65-.256c.86 0 1.53.176 2 .528.46.341.7.811.7 1.408 0 .832-.42 1.397-1.26 1.696v.032c.48.053.84.24 1.1.56.27.32.4.699.4 1.136 0 .661-.28 1.189-.85 1.584-.56.384-1.3.576-2.21.576zm6.19-5.84l-.33-1.024c.7-.437 1.5-.656 2.4-.656.99 0 1.7.245 2.13.736.42.491.64 1.227.64 2.208V429h-1.22v-.928c-.55.693-1.32 1.04-2.3 1.04-.67 0-1.2-.197-1.6-.592-.41-.405-.61-.949-.61-1.632 0-.715.25-1.275.75-1.68.51-.405 1.17-.608 1.97-.608.77 0 1.36.155 1.79.464 0-.768-.11-1.339-.32-1.712-.21-.373-.65-.56-1.31-.56-.65 0-1.31.176-1.99.528zm1.76 4.64c.72 0 1.34-.309 1.86-.928v-.912c-.45-.32-.99-.48-1.62-.48-.42 0-.79.101-1.08.304-.3.203-.45.496-.45.88 0 .352.11.629.33.832.24.203.56.304.96.304zm12.32-6.16l-3.15 3.44 3.46 3.76h-1.78l-3.25-3.68 3.04-3.52h1.68zm-6.3 7.2v-7.2h1.28v7.2h-1.28zm9.15-5.68l-.33-1.024c.7-.437 1.5-.656 2.4-.656.99 0 1.7.245 2.12.736.43.491.64 1.227.64 2.208V429h-1.21v-.928c-.56.693-1.32 1.04-2.31 1.04-.66 0-1.19-.197-1.6-.592-.4-.405-.6-.949-.6-1.632 0-.715.25-1.275.75-1.68.51-.405 1.17-.608 1.97-.608.76 0 1.36.155 1.79.464 0-.768-.11-1.339-.32-1.712-.22-.373-.65-.56-1.31-.56-.65 0-1.32.176-1.99.528zm1.76 4.64c.72 0 1.34-.309 1.86-.928v-.912c-.45-.32-.99-.48-1.62-.48-.42 0-.79.101-1.09.304-.29.203-.44.496-.44.88 0 .352.11.629.33.832.24.203.56.304.96.304zm8.4 1.2c-.55 0-1.13-.091-1.73-.272-.59-.192-1.01-.427-1.24-.704l.65-.96c.29.235.63.427 1.03.576.4.139.77.208 1.1.208.55 0 1.01-.107 1.36-.32.35-.224.53-.512.53-.864a.763.763 0 00-.39-.688c-.24-.16-.58-.24-1.02-.24h-1.22v-1.04h1.14c.36 0 .66-.096.9-.288.23-.203.35-.448.35-.736 0-.32-.14-.571-.42-.752-.28-.192-.65-.288-1.12-.288-.77 0-1.49.267-2.16.8l-.49-.992c.28-.299.68-.533 1.2-.704a5.231 5.231 0 011.64-.256c.87 0 1.53.176 2 .528.47.341.71.811.71 1.408 0 .832-.42 1.397-1.27 1.696v.032c.48.053.85.24 1.11.56.26.32.4.699.4 1.136 0 .661-.29 1.189-.85 1.584-.57.384-1.3.576-2.21.576zm6.19-5.84l-.33-1.024c.7-.437 1.5-.656 2.4-.656.99 0 1.7.245 2.12.736.43.491.64 1.227.64 2.208V429h-1.21v-.928c-.56.693-1.32 1.04-2.31 1.04-.66 0-1.19-.197-1.6-.592-.4-.405-.6-.949-.6-1.632 0-.715.25-1.275.75-1.68.51-.405 1.17-.608 1.97-.608.76 0 1.36.155 1.79.464 0-.768-.11-1.339-.32-1.712-.22-.373-.65-.56-1.31-.56-.65 0-1.32.176-1.99.528zm1.76 4.64c.72 0 1.34-.309 1.86-.928v-.912c-.45-.32-.99-.48-1.62-.48-.42 0-.79.101-1.09.304-.29.203-.44.496-.44.88 0 .352.11.629.33.832.24.203.56.304.96.304zm6.02 1.04v-7.2h1.17l2.76 3.568 2.63-3.568h1.13v7.2h-1.28v-5.248l-2.49 3.344h-.05l-2.59-3.344V429h-1.28z" fill="#141414"/><rect x="849.5" y="260.5" width="406" height="181" rx="7.5" stroke="#C5CDCF" stroke-width="5"/><path d="M1086.92 351h-2.59v-16.8h2.95v11.952l8.81-11.952h2.59V351h-2.95v-11.928L1086.92 351zm24.31 0v-4.128h-4.73V351h-2.76v-10.8h2.76v4.08h4.73v-4.08h2.76V351h-2.76zm5.9-8.04v-2.76h9.84v2.76h-3.53V351h-2.76v-8.04h-3.55zm21.16 5.016l.79 1.944c-1.06.896-2.43 1.344-4.13 1.344-1.74 0-3.15-.52-4.22-1.56-1.06-1.04-1.59-2.408-1.59-4.104 0-1.616.52-2.96 1.56-4.032 1.04-1.088 2.43-1.632 4.16-1.632 1.42 0 2.63.472 3.62 1.416.99.928 1.49 2.128 1.49 3.6 0 .608-.06 1.104-.17 1.488h-7.8c.11.8.46 1.424 1.06 1.872.59.432 1.32.648 2.18.648 1.22 0 2.23-.328 3.05-.984zm-3.55-5.736c-1.57 0-2.52.784-2.84 2.352h5.31c.01-.672-.2-1.232-.65-1.68-.45-.448-1.06-.672-1.82-.672zm8.65 13.56v-15.6h2.76v1.032c.35-.368.82-.672 1.42-.912a4.84 4.84 0 011.92-.384c1.47 0 2.65.512 3.55 1.536.89 1.024 1.34 2.344 1.34 3.96 0 1.68-.53 3.072-1.58 4.176-1.06 1.104-2.43 1.656-4.13 1.656-1.07 0-1.91-.176-2.52-.528v5.064h-2.76zm5.23-13.272c-.94 0-1.77.392-2.47 1.176v4.368c.64.416 1.4.624 2.28.624.93 0 1.66-.296 2.21-.888.54-.608.81-1.376.81-2.304 0-.88-.24-1.592-.74-2.136-.5-.56-1.19-.84-2.09-.84zm16.84 8.472v-4.128h-4.73V351h-2.76v-10.8h2.76v4.08h4.73v-4.08h2.76V351h-2.76zm15.5-3.024l.79 1.944c-1.06.896-2.43 1.344-4.13 1.344-1.74 0-3.15-.52-4.22-1.56-1.06-1.04-1.59-2.408-1.59-4.104 0-1.616.52-2.96 1.56-4.032 1.04-1.088 2.43-1.632 4.16-1.632 1.42 0 2.63.472 3.62 1.416.99.928 1.49 2.128 1.49 3.6 0 .608-.06 1.104-.17 1.488h-7.8c.11.8.46 1.424 1.06 1.872.59.432 1.32.648 2.18.648 1.22 0 2.23-.328 3.05-.984zm-3.55-5.736c-1.57 0-2.52.784-2.84 2.352h5.31c.01-.672-.2-1.232-.65-1.68-.45-.448-1.06-.672-1.82-.672zm7.41.72v-2.76h9.84v2.76h-3.53V351h-2.76v-8.04h-3.55zm13.2 2.76v-2.568h6.05v2.568h-6.05zM1083.54 377v-10.8h2.49l3.67 4.512 3.48-4.512h2.43V377h-2.76v-6.6l-3.19 4.032h-.08l-3.28-4.032v6.6h-2.76zm17.18-8.016l-.7-2.016a7.394 7.394 0 013.82-1.032c1.53 0 2.64.376 3.31 1.128.67.752 1.01 1.872 1.01 3.36V377h-2.4v-1.248c-.66.928-1.72 1.392-3.2 1.392-1 0-1.82-.296-2.44-.888-.63-.592-.94-1.4-.94-2.424 0-1.136.37-2 1.1-2.592.74-.608 1.68-.912 2.84-.912.99 0 1.8.232 2.44.696.04-.944-.1-1.64-.4-2.088-.31-.464-.84-.696-1.61-.696-.8 0-1.75.248-2.83.744zm2.76 5.832c.92 0 1.62-.328 2.08-.984v-1.104c-.46-.352-1.09-.528-1.89-.528-.5 0-.91.12-1.25.36-.32.224-.48.552-.48.984 0 .4.14.712.43.936.29.224.66.336 1.11.336zm8.71 2.184v-10.8h7.24v2.592h-4.48V377h-2.76zm11.01-8.016l-.69-2.016a7.358 7.358 0 013.81-1.032c1.54 0 2.64.376 3.31 1.128.68.752 1.01 1.872 1.01 3.36V377h-2.4v-1.248c-.65.928-1.72 1.392-3.19 1.392-1.01 0-1.82-.296-2.45-.888-.62-.592-.93-1.4-.93-2.424 0-1.136.36-2 1.1-2.592.74-.608 1.68-.912 2.83-.912.99 0 1.81.232 2.45.696.03-.944-.1-1.64-.41-2.088-.3-.464-.84-.696-1.61-.696-.8 0-1.74.248-2.83.744zm2.76 5.832c.93 0 1.63-.328 2.09-.984v-1.104c-.46-.352-1.1-.528-1.9-.528-.49 0-.91.12-1.24.36-.32.224-.48.552-.48.984 0 .4.14.712.43.936.29.224.65.336 1.1.336zm12.53 2.448c-.95 0-1.87-.168-2.76-.504-.9-.352-1.55-.784-1.95-1.296l1.42-1.728c.32.368.78.68 1.37.936.61.256 1.17.384 1.68.384.7 0 1.25-.12 1.63-.36.38-.24.58-.56.58-.96 0-.368-.15-.664-.44-.888-.28-.224-.68-.336-1.2-.336h-2.01v-1.848h1.89c.44 0 .78-.128 1.04-.384.27-.256.4-.568.4-.936 0-.784-.63-1.176-1.89-1.176-.99 0-1.98.416-2.95 1.248l-1.16-1.656c1.04-1.216 2.59-1.824 4.64-1.824 1.4 0 2.48.272 3.21.816.74.544 1.11 1.296 1.11 2.256 0 .528-.18 1.008-.53 1.44-.35.432-.84.752-1.47.96v.048c.74.144 1.3.448 1.68.912.4.448.6.992.6 1.632 0 1.008-.44 1.808-1.34 2.4-.9.576-2.08.864-3.55.864zm11.46-.264h-2.76v-10.8h2.76v6.84l5.04-6.84h2.76V377h-2.76v-6.84l-5.04 6.84zm19.57 0v-4.128h-4.73V377h-2.76v-10.8h2.76v4.08h4.73v-4.08h2.76V377h-2.76z" fill="#141414"/><path fill-rule="evenodd" clip-rule="evenodd" d="M901 304.745h129c3.87 0 7 3.134 7 7v1.834H894v-1.834a7 7 0 017-7zm-7 11.834v75.166a7 7 0 007 7h129c3.87 0 7-3.134 7-7v-75.166H894zm-3-4.834c0-5.522 4.477-10 10-10h129c5.52 0 10 4.478 10 10v80c0 5.523-4.48 10-10 10H901c-5.523 0-10-4.477-10-10v-80z" fill="#C5CDCF"/><g filter="url(#filter2_d)" stroke-width="3"><path d="M969.672 340.245h-35.051c-7.256 0-12.31 7.38-9.842 14.371l5.138 14.553c1.499 4.247 5.434 7.076 9.842 7.076h25.38c4.554 0 8.586-3.018 9.97-7.463l4.534-14.554c2.155-6.917-2.884-13.983-9.971-13.983z" stroke="#7C267B"/><path d="M942.408 349.459c-1.229-20.742-.461-23.393 9.023-23.919 10.659-.84 10.248 4.765 10.527 23.919" stroke="#DC40B1"/></g><path fill="#C4C4C4" d="M900.164 306.649h5v5h-5zm10.309 0h5v5h-5zm11.454 0h5v5h-5z"/><path fill="#fff" d="M963 288h93v126h-93z"/><g filter="url(#filter3_d)" stroke-width="3"><path d="M1022.42 339.91h-28.789c-5.96 0-10.112 5.945-8.085 11.577l4.22 11.723a8.6 8.6 0 008.085 5.7h20.849c3.74 0 7.05-2.431 8.19-6.012l3.72-11.723c1.77-5.573-2.37-11.265-8.19-11.265z" stroke="#7C267B"/><path d="M999.859 347.029c-.984-16.421-.369-18.519 7.221-18.936 8.52-.665 8.2 3.773 8.42 18.936" stroke="#DC40B1"/></g><path d="M1032 292h-49c-6.075 0-11 4.925-11 11v95c0 6.075 4.925 11 11 11h49c6.08 0 11-4.925 11-11v-95c0-6.075-4.92-11-11-11z" stroke="#C5CDCF" stroke-width="3"/><path d="M1026.02 401.8h-36.998c-5.523 0-10-4.477-10-10v-86.143a5.856 5.856 0 015.856-5.857h4.275c.873 0 1.581.708 1.581 1.582a3.953 3.953 0 003.954 3.953h26.062c2.18 0 3.95-1.77 3.95-3.953 0-.874.71-1.582 1.58-1.582h4.08c3.13 0 5.66 2.535 5.66 5.661V391.8c0 5.523-4.48 10-10 10z" stroke="#C5CDCF" stroke-width="3"/><path d="M997.673 299.887h19.997" stroke="#C5CDCF" stroke-width="3" stroke-linecap="round"/><rect x="896.5" y="604.5" width="312" height="95" rx="7.5" stroke="#C5CDCF" stroke-width="5"/><path d="M982.08 651.6c0-2.464.816-4.52 2.448-6.168 1.648-1.664 3.744-2.496 6.288-2.496 2.528 0 4.616.8 6.264 2.4 1.664 1.6 2.496 3.688 2.496 6.264 0 2.512-.832 4.584-2.496 6.216-1.664 1.632-3.752 2.448-6.264 2.448-2.528 0-4.616-.8-6.264-2.4-1.648-1.6-2.472-3.688-2.472-6.264zm3.12 0c0 1.68.536 3.088 1.608 4.224 1.088 1.12 2.424 1.68 4.008 1.68 1.728 0 3.096-.56 4.104-1.68 1.024-1.12 1.536-2.528 1.536-4.224 0-1.728-.544-3.144-1.632-4.248-1.072-1.104-2.408-1.656-4.008-1.656-1.616 0-2.96.552-4.032 1.656-1.056 1.104-1.584 2.52-1.584 4.248zm25.69 8.4v-4.128h-4.73V660h-2.76v-10.8h2.76v4.08h4.73v-4.08h2.76V660h-2.76zm14.13 0v-8.04h-2.86l-.07 1.152c-.18 1.936-.47 3.424-.89 4.464-.4 1.04-.91 1.744-1.54 2.112-.6.352-1.42.528-2.44.528l-.24-2.688c.35.032.68-.064.98-.288.32-.24.62-.752.91-1.536.29-.8.47-1.848.55-3.144l.17-3.36h8.19V660h-2.76zm7.87-8.016l-.7-2.016a7.394 7.394 0 013.82-1.032c1.54 0 2.64.376 3.31 1.128.67.752 1.01 1.872 1.01 3.36V660h-2.4v-1.248c-.66.928-1.72 1.392-3.19 1.392-1.01 0-1.83-.296-2.45-.888-.62-.592-.94-1.4-.94-2.424 0-1.136.37-2 1.11-2.592.73-.608 1.68-.912 2.83-.912.99 0 1.81.232 2.45.696.03-.944-.11-1.64-.41-2.088-.3-.464-.84-.696-1.61-.696-.8 0-1.74.248-2.83.744zm2.76 5.832c.93 0 1.62-.328 2.09-.984v-1.104c-.47-.352-1.1-.528-1.9-.528-.49 0-.91.12-1.25.36-.32.224-.48.552-.48.984 0 .4.15.712.44.936.28.224.65.336 1.1.336zm11.47 2.184h-2.76v-10.8h2.76v6.84l5.04-6.84h2.76V660h-2.76v-6.84l-5.04 6.84zm-1.15-16.2h2.52c0 .496.09.912.29 1.248.2.336.52.504.96.504a.93.93 0 00.86-.504c.19-.336.29-.752.29-1.248h2.52c0 1.088-.32 1.984-.96 2.688-.64.688-1.55 1.032-2.71 1.032-1.28 0-2.24-.336-2.86-1.008-.61-.688-.91-1.592-.91-2.712zm20.72 16.2v-4.128h-4.73V660h-2.76v-10.8h2.76v4.08h4.73v-4.08h2.76V660h-2.76zm20.68 0v-8.208h-4.61V660H1080v-10.8h10.13V660h-2.76zm14.13 0v-8.04h-2.86l-.07 1.152c-.18 1.936-.47 3.424-.89 4.464-.4 1.04-.91 1.744-1.53 2.112-.61.352-1.43.528-2.45.528l-.24-2.688c.35.032.68-.064.98-.288.32-.24.63-.752.91-1.536.29-.8.48-1.848.56-3.144l.16-3.36h8.19V660h-2.76zm7.87-8.016l-.69-2.016a7.358 7.358 0 013.81-1.032c1.54 0 2.64.376 3.31 1.128.68.752 1.01 1.872 1.01 3.36V660h-2.4v-1.248c-.65.928-1.72 1.392-3.19 1.392-1.01 0-1.82-.296-2.45-.888-.62-.592-.93-1.4-.93-2.424 0-1.136.36-2 1.1-2.592.74-.608 1.68-.912 2.83-.912.99 0 1.81.232 2.45.696.03-.944-.1-1.64-.41-2.088-.3-.464-.84-.696-1.61-.696-.8 0-1.74.248-2.83.744zm2.76 5.832c.93 0 1.63-.328 2.09-.984v-1.104c-.46-.352-1.1-.528-1.9-.528-.49 0-.91.12-1.24.36-.32.224-.48.552-.48.984 0 .4.14.712.43.936.29.224.65.336 1.1.336zm7.58-5.856v-2.76h9.84v2.76h-3.53V660h-2.76v-8.04h-3.55zm21.16 5.016l.79 1.944c-1.05.896-2.43 1.344-4.12 1.344-1.75 0-3.16-.52-4.23-1.56-1.05-1.04-1.58-2.408-1.58-4.104 0-1.616.52-2.96 1.56-4.032 1.04-1.088 2.42-1.632 4.15-1.632 1.42 0 2.63.472 3.62 1.416 1 .928 1.49 2.128 1.49 3.6 0 .608-.05 1.104-.17 1.488h-7.8c.12.8.47 1.424 1.06 1.872.59.432 1.32.648 2.18.648 1.22 0 2.24-.328 3.05-.984zm-3.55-5.736c-1.57 0-2.51.784-2.83 2.352h5.3c.02-.672-.2-1.232-.65-1.68-.44-.448-1.05-.672-1.82-.672zm23.09-2.04l-3.57 5.232 3.86 5.568h-3.26l-3.6-5.568 3.31-5.232h3.26zm-9.45 10.8v-10.8h2.76V660h-2.76zm-3.1-5.568l-3.6-5.232h3.36l3.22 5.232-3.51 5.568h-3.29l3.82-5.568zm18.53 5.568h-2.76v-10.8h2.76v6.84l5.04-6.84h2.76V660h-2.76v-6.84l-5.04 6.84z" fill="#141414"/><g filter="url(#filter4_d)" stroke="#7C267B" stroke-width="3"><path d="M930 645.448h36M930.947 660v-17a5 5 0 015-5h25a5 5 0 015 5v17a5 5 0 01-5 5h-25a5 5 0 01-5-5z"/></g><rect x="1259.5" y="604.5" width="310" height="95" rx="7.5" stroke="#C5CDCF" stroke-width="5"/><path d="M1340.33 659v-16.8h9.72v2.76h-6.77v4.176h6.05v2.76h-6.05v4.344h7.01V659h-9.96zm14.21 0v-10.8h2.5l3.67 4.512 3.48-4.512h2.42V659h-2.76v-6.6l-3.19 4.032h-.07l-3.29-4.032v6.6h-2.76zm24.81-3.024l.8 1.944c-1.06.896-2.44 1.344-4.13 1.344-1.75 0-3.15-.52-4.23-1.56-1.05-1.04-1.58-2.408-1.58-4.104 0-1.616.52-2.96 1.56-4.032 1.04-1.088 2.42-1.632 4.15-1.632 1.43 0 2.63.472 3.63 1.416.99.928 1.48 2.128 1.48 3.6 0 .608-.05 1.104-.16 1.488h-7.8c.11.8.46 1.424 1.05 1.872.59.432 1.32.648 2.19.648 1.21 0 2.23-.328 3.04-.984zm-3.55-5.736c-1.57 0-2.51.784-2.83 2.352h5.3c.02-.672-.2-1.232-.64-1.68-.45-.448-1.06-.672-1.83-.672zm11.42 8.76h-2.76v-10.8h2.76v6.84l5.04-6.84h2.76V659h-2.76v-6.84l-5.04 6.84zm-1.16-16.2h2.52c0 .496.1.912.29 1.248.21.336.53.504.96.504.39 0 .67-.168.87-.504.19-.336.28-.752.28-1.248h2.52c0 1.088-.32 1.984-.96 2.688-.64.688-1.54 1.032-2.71 1.032-1.28 0-2.23-.336-2.85-1.008-.61-.688-.92-1.592-.92-2.712zm20.34 16.2v-8.04h-2.86l-.07 1.152c-.17 1.936-.47 3.424-.89 4.464-.4 1.04-.91 1.744-1.53 2.112-.61.352-1.43.528-2.45.528l-.24-2.688c.35.032.68-.064.98-.288.32-.24.63-.752.92-1.536.28-.8.47-1.848.55-3.144l.17-3.36h8.18V659h-2.76zm6.99-5.28v-2.568h6.04v2.568h-6.04zm10.27 5.28v-10.8h2.49l3.68 4.512 3.48-4.512h2.42V659h-2.76v-6.6l-3.19 4.032h-.07l-3.29-4.032v6.6h-2.76zm17.18-8.016l-.7-2.016a7.394 7.394 0 013.82-1.032c1.53 0 2.64.376 3.31 1.128.67.752 1.01 1.872 1.01 3.36V659h-2.4v-1.248c-.66.928-1.72 1.392-3.19 1.392-1.01 0-1.83-.296-2.45-.888-.63-.592-.94-1.4-.94-2.424 0-1.136.37-2 1.11-2.592.73-.608 1.68-.912 2.83-.912.99 0 1.81.232 2.45.696.03-.944-.11-1.64-.41-2.088-.31-.464-.84-.696-1.61-.696-.8 0-1.74.248-2.83.744zm2.76 5.832c.93 0 1.62-.328 2.09-.984v-1.104c-.47-.352-1.1-.528-1.9-.528-.5 0-.91.12-1.25.36-.32.224-.48.552-.48.984 0 .4.15.712.43.936.29.224.66.336 1.11.336zm8.71 6.984v-15.6h2.76v1.032c.35-.368.82-.672 1.41-.912a4.912 4.912 0 011.92-.384c1.48 0 2.66.512 3.56 1.536.89 1.024 1.34 2.344 1.34 3.96 0 1.68-.53 3.072-1.58 4.176-1.06 1.104-2.44 1.656-4.13 1.656-1.07 0-1.91-.176-2.52-.528v5.064h-2.76zm5.23-13.272c-.94 0-1.77.392-2.47 1.176v4.368c.64.416 1.4.624 2.28.624.93 0 1.66-.296 2.21-.888.54-.608.81-1.376.81-2.304 0-.88-.25-1.592-.74-2.136-.5-.56-1.19-.84-2.09-.84zm19.57-2.328l-4.15 5.136 4.66 5.664h-3.6l-4.27-5.448 3.88-5.352h3.48zm-10.22 10.8v-10.8h2.76V659h-2.76zm21.37-3.024l.79 1.944c-1.06.896-2.43 1.344-4.13 1.344-1.74 0-3.15-.52-4.22-1.56-1.06-1.04-1.59-2.408-1.59-4.104 0-1.616.52-2.96 1.56-4.032 1.04-1.088 2.43-1.632 4.16-1.632 1.42 0 2.63.472 3.62 1.416.99.928 1.49 2.128 1.49 3.6 0 .608-.06 1.104-.17 1.488h-7.8c.11.8.46 1.424 1.06 1.872.59.432 1.32.648 2.18.648 1.22 0 2.23-.328 3.05-.984zm-3.55-5.736c-1.57 0-2.52.784-2.84 2.352h5.31c.01-.672-.2-1.232-.65-1.68-.45-.448-1.06-.672-1.82-.672zm7.41.72v-2.76h9.84v2.76h-3.53V659h-2.76v-8.04h-3.55zm15.77 8.04h-2.76v-10.8h2.76v6.84l5.04-6.84h2.76V659h-2.76v-6.84l-5.04 6.84zm19.57 0v-4.128h-4.73V659h-2.76v-10.8h2.76v4.08h4.73v-4.08h2.76V659h-2.76zm7.02 0v-10.8h7.25v2.592h-4.49V659h-2.76z" fill="#141414"/><g filter="url(#filter5_d)" stroke="#7C267B" stroke-width="3"><path d="M1316 638h-23c-3.31 0-6 2.686-6 6v16c0 3.314 2.69 6 6 6h23c3.31 0 6-2.686 6-6v-16c0-3.314-2.69-6-6-6z"/><path d="M1287.76 638.824l13.92 13.864a3.993 3.993 0 005.64 0l13.92-13.864"/></g><rect x="849.5" y="2.5" width="720" height="95" rx="7.5" stroke="#C5CDCF" stroke-width="5"/><path d="M1008.33 57V40.2h9.72v2.76h-6.77v4.176h6.05v2.76h-6.05v4.344h7.01V57h-9.96zm17.95 0h-2.95V40.2c.35 0 1.26-.008 2.71-.024 1.48-.016 2.28-.024 2.4-.024 4.07 0 6.1 1.728 6.1 5.184 0 1.296-.33 2.352-.98 3.168-.66.8-1.41 1.344-2.26 1.632l5.26 6.864h-3.58l-4.63-6.288h-2.07V57zm2.02-14.088c-.29 0-.96.016-2.02.048v4.992h1.92c.92 0 1.68-.224 2.28-.672.63-.464.94-1.104.94-1.92 0-1.632-1.04-2.448-3.12-2.448zM1043.28 57h-2.95V40.2c.29 0 1.05-.008 2.28-.024 1.25-.016 2.08-.024 2.5-.024 1.18 0 2.2.152 3.07.456.88.288 1.56.696 2.04 1.224.48.512.83 1.08 1.05 1.704.23.608.34 1.28.34 2.016 0 1.52-.54 2.808-1.63 3.864-1.09 1.056-2.59 1.584-4.51 1.584-.98 0-1.71-.024-2.19-.072V57zm2.11-14.088c-.35 0-1.05.016-2.11.048v5.16c.77.08 1.47.12 2.09.12.93 0 1.68-.224 2.26-.672.57-.464.86-1.144.86-2.04 0-1.744-1.03-2.616-3.1-2.616zm7.97 12.552c0-.512.16-.928.48-1.248.34-.336.79-.504 1.37-.504.64 0 1.15.256 1.53.768.39.496.58 1.136.58 1.92 0 1.008-.27 1.872-.82 2.592-.52.72-1.27 1.216-2.23 1.488l-.74-1.296c.7-.256 1.19-.68 1.46-1.272.24-.496.31-.864.22-1.104-.1.128-.31.192-.63.192s-.6-.144-.86-.432c-.24-.304-.36-.672-.36-1.104zm23.37-9.264l-4.24 10.8c-.77 1.872-1.46 3.136-2.07 3.792-.59.672-1.29 1.008-2.11 1.008-.78 0-1.56-.28-2.33-.84l.89-2.088c.43.256.81.384 1.13.384.65 0 1.21-.56 1.65-1.68l.24-.576-4.99-10.8h3.31l2.52 5.904c.1.24.28.76.53 1.56.13-.704.26-1.232.39-1.584l1.94-5.88h3.14zm10.23 10.8v-8.208h-4.61V57h-2.76V46.2h10.13V57h-2.76zm7.02 4.8V46.2h2.76v1.032c.35-.368.83-.672 1.42-.912a4.912 4.912 0 011.92-.384c1.47 0 2.65.512 3.55 1.536.9 1.024 1.34 2.344 1.34 3.96 0 1.68-.52 3.072-1.58 4.176s-2.43 1.656-4.13 1.656c-1.07 0-1.91-.176-2.52-.528V61.8h-2.76zm5.23-13.272c-.94 0-1.76.392-2.47 1.176v4.368c.64.416 1.4.624 2.28.624.93 0 1.67-.296 2.21-.888.54-.608.82-1.376.82-2.304 0-.88-.25-1.592-.75-2.136-.49-.56-1.19-.84-2.09-.84zm10.2.456l-.7-2.016a7.394 7.394 0 013.82-1.032c1.53 0 2.64.376 3.31 1.128.67.752 1.01 1.872 1.01 3.36V57h-2.4v-1.248c-.66.928-1.72 1.392-3.2 1.392-1 0-1.82-.296-2.44-.888-.63-.592-.94-1.4-.94-2.424 0-1.136.37-2 1.1-2.592.74-.608 1.68-.912 2.84-.912.99 0 1.8.232 2.44.696.04-.944-.1-1.64-.4-2.088-.31-.464-.84-.696-1.61-.696-.8 0-1.75.248-2.83.744zm2.76 5.832c.92 0 1.62-.328 2.08-.984v-1.104c-.46-.352-1.09-.528-1.89-.528-.5 0-.91.12-1.25.36-.32.224-.48.552-.48.984 0 .4.14.712.43.936.29.224.66.336 1.11.336zm8.71 2.184V46.2c.19 0 .54-.008 1.05-.024a52.694 52.694 0 013.19-.096c3.27 0 4.9.944 4.9 2.832 0 .624-.2 1.16-.6 1.608a2.23 2.23 0 01-1.42.792v.048c1.54.368 2.31 1.2 2.31 2.496 0 2.176-1.71 3.264-5.14 3.264a55.3 55.3 0 01-2.28-.072 86.893 86.893 0 00-2.01-.048zm4.48-4.584h-1.72v2.4c1.08.064 1.69.096 1.82.096.61 0 1.08-.112 1.42-.336.35-.224.52-.528.52-.912 0-.832-.68-1.248-2.04-1.248zm0-4.104c-.76 0-1.34.016-1.72.048v2.376h1.8c.48 0 .87-.104 1.17-.312.32-.224.48-.536.48-.936 0-.784-.57-1.176-1.73-1.176zM1141.23 57v-8.04h-2.86l-.07 1.152c-.18 1.936-.47 3.424-.89 4.464-.4 1.04-.91 1.744-1.54 2.112-.6.352-1.42.528-2.44.528l-.24-2.688c.35.032.68-.064.98-.288.32-.24.62-.752.91-1.536.29-.8.47-1.848.55-3.144l.17-3.36h8.19V57h-2.76zm15.5-3.024l.79 1.944c-1.05.896-2.43 1.344-4.12 1.344-1.75 0-3.16-.52-4.23-1.56-1.05-1.04-1.58-2.408-1.58-4.104 0-1.616.52-2.96 1.56-4.032 1.04-1.088 2.42-1.632 4.15-1.632 1.42 0 2.63.472 3.62 1.416 1 .928 1.49 2.128 1.49 3.6 0 .608-.05 1.104-.17 1.488h-7.8c.12.8.47 1.424 1.06 1.872.59.432 1.32.648 2.18.648 1.22 0 2.24-.328 3.05-.984zm-3.55-5.736c-1.57 0-2.51.784-2.83 2.352h5.3c.02-.672-.2-1.232-.65-1.68-.44-.448-1.05-.672-1.82-.672zm16.14 8.76v-4.128h-4.73V57h-2.76V46.2h2.76v4.08h4.73V46.2h2.76V57h-2.76zm9.79 0h-2.76V46.2h2.76v6.84l5.04-6.84h2.76V57h-2.76v-6.84l-5.04 6.84zm20.55-3.024l.79 1.944c-1.05.896-2.43 1.344-4.13 1.344-1.74 0-3.15-.52-4.22-1.56-1.06-1.04-1.58-2.408-1.58-4.104 0-1.616.52-2.96 1.56-4.032 1.04-1.088 2.42-1.632 4.15-1.632 1.42 0 2.63.472 3.62 1.416.99.928 1.49 2.128 1.49 3.6 0 .608-.06 1.104-.17 1.488h-7.8c.11.8.47 1.424 1.06 1.872.59.432 1.32.648 2.18.648 1.22 0 2.23-.328 3.05-.984zm-3.55-5.736c-1.57 0-2.51.784-2.83 2.352h5.3c.02-.672-.2-1.232-.65-1.68-.45-.448-1.05-.672-1.82-.672zm23.12 5.136l1.3 2.016c-.45.608-1.06 1.072-1.83 1.392-.75.32-1.57.48-2.47.48-1.76 0-3.17-.52-4.25-1.56-1.07-1.04-1.6-2.408-1.6-4.104 0-1.6.52-2.944 1.58-4.032s2.39-1.632 4.01-1.632c1.92 0 3.37.488 4.34 1.464l-1.29 2.184c-.72-.704-1.62-1.056-2.69-1.056-.8 0-1.51.288-2.11.864-.6.56-.89 1.296-.89 2.208 0 .928.3 1.68.91 2.256.62.56 1.36.84 2.21.84 1.05 0 1.98-.44 2.78-1.32zm14.94-7.176l-4.15 5.136 4.65 5.664h-3.6l-4.27-5.448 3.89-5.352h3.48zM1223.94 57V46.2h2.76V57h-2.76zm20.61 0v-8.04h-2.85l-.08 1.152c-.17 1.936-.47 3.424-.88 4.464-.4 1.04-.92 1.744-1.54 2.112-.61.352-1.42.528-2.45.528l-.24-2.688c.35.032.68-.064.99-.288.32-.24.62-.752.91-1.536.29-.8.47-1.848.55-3.144l.17-3.36h8.18V57h-2.76zm7.88-8.016l-.7-2.016a7.394 7.394 0 013.82-1.032c1.53 0 2.64.376 3.31 1.128.67.752 1.01 1.872 1.01 3.36V57h-2.4v-1.248c-.66.928-1.72 1.392-3.2 1.392-1 0-1.82-.296-2.44-.888-.63-.592-.94-1.4-.94-2.424 0-1.136.37-2 1.1-2.592.74-.608 1.68-.912 2.84-.912.99 0 1.8.232 2.44.696.04-.944-.1-1.64-.4-2.088-.31-.464-.84-.696-1.61-.696-.8 0-1.75.248-2.83.744zm2.76 5.832c.92 0 1.62-.328 2.08-.984v-1.104c-.46-.352-1.09-.528-1.89-.528-.5 0-.91.12-1.25.36-.32.224-.48.552-.48.984 0 .4.14.712.43.936.29.224.66.336 1.11.336zm7.41 4.704v-5.088h1.37c.85-1.12 1.35-3 1.51-5.64l.17-2.592h7.97v8.232h1.8v5.088h-2.6V57h-7.65v2.52h-2.57zm5.54-9.624c-.19 2.096-.62 3.608-1.29 4.536h4.01v-5.64h-2.64l-.08 1.104zm11.13-.912l-.69-2.016a7.358 7.358 0 013.81-1.032c1.54 0 2.64.376 3.31 1.128.68.752 1.01 1.872 1.01 3.36V57h-2.4v-1.248c-.65.928-1.72 1.392-3.19 1.392-1.01 0-1.82-.296-2.45-.888-.62-.592-.93-1.4-.93-2.424 0-1.136.36-2 1.1-2.592.74-.608 1.68-.912 2.83-.912.99 0 1.81.232 2.45.696.03-.944-.1-1.64-.41-2.088-.3-.464-.84-.696-1.61-.696-.8 0-1.74.248-2.83.744zm2.76 5.832c.93 0 1.63-.328 2.09-.984v-1.104c-.46-.352-1.1-.528-1.9-.528-.49 0-.91.12-1.24.36-.32.224-.48.552-.48.984 0 .4.14.712.43.936.29.224.65.336 1.1.336zm8.71 2.184V46.2h2.5l3.67 4.512 3.48-4.512h2.42V57h-2.76v-6.6l-3.19 4.032h-.07l-3.29-4.032V57h-2.76zm19.1 0h-2.76V46.2h2.76v6.84l5.04-6.84h2.76V57h-2.76v-6.84l-5.04 6.84zm9.83 4.2l7.92-21.264 2.13.792-7.92 21.264-2.13-.792zm10.95-12.24V46.2h9.84v2.76h-3.53V57h-2.76v-8.04h-3.55zm13.62 6.72c-1.07-1.072-1.61-2.432-1.61-4.08 0-1.648.54-3 1.61-4.056 1.09-1.072 2.51-1.608 4.27-1.608 1.76 0 3.18.536 4.25 1.608 1.09 1.056 1.63 2.408 1.63 4.056 0 1.648-.54 3.008-1.63 4.08-1.07 1.056-2.49 1.584-4.25 1.584-1.76 0-3.18-.528-4.27-1.584zm1.35-4.08c0 .896.27 1.64.81 2.232.56.576 1.27.864 2.11.864.87 0 1.57-.28 2.12-.84.56-.576.84-1.328.84-2.256 0-.896-.28-1.632-.84-2.208-.56-.576-1.27-.864-2.12-.864-.83 0-1.52.288-2.08.864-.56.56-.84 1.296-.84 2.208zm12.39 5.4V46.2c.19 0 .55-.008 1.06-.024a55.127 55.127 0 013.19-.096c3.26 0 4.9.944 4.9 2.832 0 .624-.2 1.16-.6 1.608-.39.448-.86.712-1.42.792v.048c1.54.368 2.3 1.2 2.3 2.496 0 2.176-1.71 3.264-5.13 3.264a55.3 55.3 0 01-2.28-.072 86.07 86.07 0 00-2.02-.048zm4.49-4.584h-1.73v2.4c1.09.064 1.7.096 1.83.096.6 0 1.08-.112 1.41-.336.35-.224.53-.528.53-.912 0-.832-.68-1.248-2.04-1.248zm0-4.104c-.77 0-1.34.016-1.73.048v2.376h1.8c.48 0 .87-.104 1.18-.312.32-.224.48-.536.48-.936 0-.784-.58-1.176-1.73-1.176zm9.6.672l-.7-2.016a7.394 7.394 0 013.82-1.032c1.54 0 2.64.376 3.31 1.128.67.752 1.01 1.872 1.01 3.36V57h-2.4v-1.248c-.66.928-1.72 1.392-3.19 1.392-1.01 0-1.83-.296-2.45-.888-.62-.592-.94-1.4-.94-2.424 0-1.136.37-2 1.11-2.592.73-.608 1.68-.912 2.83-.912.99 0 1.81.232 2.45.696.03-.944-.11-1.64-.41-2.088-.3-.464-.84-.696-1.61-.696-.8 0-1.74.248-2.83.744zm2.76 5.832c.93 0 1.62-.328 2.09-.984v-1.104c-.47-.352-1.1-.528-1.9-.528-.49 0-.91.12-1.25.36-.32.224-.48.552-.48.984 0 .4.15.712.44.936.28.224.65.336 1.1.336zm8.71 6.984V46.2h2.76v1.032c.35-.368.82-.672 1.42-.912a4.84 4.84 0 011.92-.384c1.47 0 2.65.512 3.55 1.536.89 1.024 1.34 2.344 1.34 3.96 0 1.68-.53 3.072-1.58 4.176-1.06 1.104-2.43 1.656-4.13 1.656-1.07 0-1.91-.176-2.52-.528V61.8h-2.76zm5.23-13.272c-.94 0-1.77.392-2.47 1.176v4.368c.64.416 1.4.624 2.28.624.93 0 1.66-.296 2.21-.888.54-.608.81-1.376.81-2.304 0-.88-.24-1.592-.74-2.136-.5-.56-1.19-.84-2.09-.84zm10.19.456l-.69-2.016a7.358 7.358 0 013.81-1.032c1.54 0 2.64.376 3.31 1.128.68.752 1.01 1.872 1.01 3.36V57h-2.4v-1.248c-.65.928-1.72 1.392-3.19 1.392-1.01 0-1.82-.296-2.45-.888-.62-.592-.93-1.4-.93-2.424 0-1.136.36-2 1.1-2.592.74-.608 1.68-.912 2.83-.912.99 0 1.81.232 2.45.696.03-.944-.1-1.64-.41-2.088-.3-.464-.84-.696-1.61-.696-.8 0-1.74.248-2.83.744zm2.76 5.832c.93 0 1.63-.328 2.09-.984v-1.104c-.46-.352-1.1-.528-1.9-.528-.49 0-.91.12-1.24.36-.32.224-.48.552-.48.984 0 .4.14.712.43.936.29.224.65.336 1.1.336zm8.71 2.184V46.2h2.5l3.67 4.512 3.48-4.512h2.42V57h-2.76v-6.6l-3.19 4.032h-.07l-3.29-4.032V57h-2.76zm19.1 0h-2.76V46.2h2.76v6.84l5.04-6.84h2.76V57h-2.76v-6.84l-5.04 6.84z" fill="#141414"/><g filter="url(#filter6_d)"><path d="M958 40.88l15.986-9.572a.998.998 0 011.028 0L991 40.88m-33 0l16.5 8.36M958 40.88v17.673a1 1 0 00.486.858L974.5 69M991 40.88l-16.5 8.36m16.5-8.36v19.146a1 1 0 01-.548.892L974.5 69m0-19.76V69" stroke="#7C267B" stroke-width="3"/></g><path d="M1288 338h80m5 13l11.59-11.586c.78-.781.78-2.047 0-2.828L1373 325m13 39h-80m-5-13l-11.59 11.586a2.001 2.001 0 000 2.828L1301 377m206 55v122m-13 5l11.59 11.586a1.99 1.99 0 002.82 0L1520 559m-39 13V449m13-5l-11.59-11.586a1.99 1.99 0 00-2.82 0L1468 444" stroke="#C5CDCF" stroke-width="3" stroke-linecap="round"/><rect x="473.5" y="604.5" width="310" height="95" rx="7.5" stroke="#C5CDCF" stroke-width="5"/><path d="M582.328 659v-16.8h2.952v7.968l6.624-7.968h3.552l-6.912 7.824 7.344 8.976h-3.744l-6.864-8.664V659h-2.952zm16.391-1.32c-1.072-1.072-1.608-2.432-1.608-4.08 0-1.648.536-3 1.608-4.056 1.088-1.072 2.512-1.608 4.272-1.608 1.76 0 3.176.536 4.248 1.608 1.088 1.056 1.632 2.408 1.632 4.056 0 1.648-.544 3.008-1.632 4.08-1.072 1.056-2.488 1.584-4.248 1.584-1.76 0-3.184-.528-4.272-1.584zm1.344-4.08c0 .896.272 1.64.816 2.232.56.576 1.264.864 2.112.864.864 0 1.568-.28 2.112-.84.56-.576.84-1.328.84-2.256 0-.896-.28-1.632-.84-2.208-.56-.576-1.264-.864-2.112-.864-.832 0-1.528.288-2.088.864-.56.56-.84 1.296-.84 2.208zm19.149 5.4v-8.04h-2.856l-.072 1.152c-.176 1.936-.472 3.424-.888 4.464-.4 1.04-.912 1.744-1.536 2.112-.608.352-1.424.528-2.448.528l-.24-2.688a1.4 1.4 0 00.984-.288c.32-.24.624-.752.912-1.536.288-.8.472-1.848.552-3.144l.168-3.36h8.184V659h-2.76zm14.137 0v-8.04h-2.856l-.072 1.152c-.176 1.936-.472 3.424-.888 4.464-.4 1.04-.912 1.744-1.536 2.112-.608.352-1.424.528-2.448.528l-.24-2.688a1.4 1.4 0 00.984-.288c.32-.24.624-.752.912-1.536.288-.8.472-1.848.552-3.144l.168-3.36h8.184V659h-2.76zm5.906-8.04v-2.76h9.84v2.76h-3.528V659h-2.76v-8.04h-3.552zm13.015 12.84v-15.6h2.76v1.032c.352-.368.824-.672 1.416-.912a4.898 4.898 0 011.92-.384c1.472 0 2.656.512 3.552 1.536.896 1.024 1.344 2.344 1.344 3.96 0 1.68-.528 3.072-1.584 4.176s-2.432 1.656-4.128 1.656c-1.072 0-1.912-.176-2.52-.528v5.064h-2.76zm5.232-13.272c-.944 0-1.768.392-2.472 1.176v4.368c.64.416 1.4.624 2.28.624.928 0 1.664-.296 2.208-.888.544-.608.816-1.376.816-2.304 0-.88-.248-1.592-.744-2.136-.496-.56-1.192-.84-2.088-.84zm11.175 3.936v-1.848h4.8c-.176-.752-.544-1.32-1.104-1.704-.56-.384-1.224-.576-1.992-.576-1.04 0-2.072.376-3.096 1.128l-1.128-1.92c.48-.528 1.112-.928 1.896-1.2a6.939 6.939 0 012.28-.408c1.84 0 3.304.512 4.392 1.536 1.088 1.024 1.632 2.4 1.632 4.128 0 1.632-.52 2.984-1.56 4.056-1.024 1.072-2.424 1.608-4.2 1.608-1.952 0-3.448-.536-4.488-1.608l1.296-1.824c.784.688 1.792 1.032 3.024 1.032.832 0 1.512-.2 2.04-.6.544-.416.888-1.016 1.032-1.8h-4.824zm21.506-6.264l-4.152 5.136 4.656 5.664h-3.6l-4.272-5.448 3.888-5.352h3.48zM679.959 659v-10.8h2.76V659h-2.76zm16.312 0h-2.76v-10.8h2.76v6.84l5.04-6.84h2.76V659h-2.76v-6.84l-5.04 6.84zm19.569 0v-4.128h-4.728V659h-2.76v-10.8h2.76v4.08h4.728v-4.08h2.76V659h-2.76zm7.024 0v-10.8h7.248v2.592h-4.488V659h-2.76z" fill="#141414"/><path fill="#fff" d="M526 632h39v39h-39z"/><g filter="url(#filter7_d)"><path d="M540.765 643.433c-.146-2.069-.159-3.559-1.129-6.865a1.96 1.96 0 00-1.41-1.339l-.679-.169a1.976 1.976 0 00-.485-.06h-6.045c-.984 0-1.831.717-1.919 1.697-1.553 17.352 15.6 30.136 30.257 30.351 1.087.016 1.917-.916 1.899-2.003-.036-2.255-.006-4.812.021-6.426a2.006 2.006 0 00-1.544-1.993c-2.301-.536-4.175-.897-7.293-1.09a1.974 1.974 0 00-1.164.297l-3.294 2.056a1.962 1.962 0 01-1.996.056c-3.73-2.095-4.776-3.438-7.367-7.48a1.993 1.993 0 01-.096-1.984l2.029-3.975c.169-.331.242-.703.215-1.073z" stroke="#7C267B" stroke-width="3"/></g><rect x="345.5" y="303.5" width="341" height="95" rx="7.5" stroke="#C5CDCF" stroke-width="5"/><path d="M452.312 351.712v-2.76h6.816v6.96c-.72.72-1.68 1.296-2.88 1.728-1.184.416-2.32.624-3.408.624-2.72 0-4.864-.784-6.432-2.352-1.552-1.568-2.328-3.672-2.328-6.312 0-2.464.768-4.52 2.304-6.168 1.536-1.664 3.56-2.496 6.072-2.496 2.16 0 3.96.568 5.4 1.704l-1.248 2.352c-.416-.4-.968-.712-1.656-.936-.688-.24-1.4-.36-2.136-.36-1.664 0-3.016.528-4.056 1.584-1.04 1.04-1.56 2.48-1.56 4.32 0 1.776.52 3.208 1.56 4.296 1.04 1.072 2.416 1.608 4.128 1.608.64 0 1.296-.112 1.968-.336.688-.24 1.192-.512 1.512-.816v-2.64h-4.056zm11.798 4.968c-1.072-1.072-1.608-2.432-1.608-4.08 0-1.648.536-3 1.608-4.056 1.088-1.072 2.512-1.608 4.272-1.608 1.76 0 3.176.536 4.248 1.608 1.088 1.056 1.632 2.408 1.632 4.056 0 1.648-.544 3.008-1.632 4.08-1.072 1.056-2.488 1.584-4.248 1.584-1.76 0-3.184-.528-4.272-1.584zm1.344-4.08c0 .896.272 1.64.816 2.232.56.576 1.264.864 2.112.864.864 0 1.568-.28 2.112-.84.56-.576.84-1.328.84-2.256 0-.896-.28-1.632-.84-2.208-.56-.576-1.264-.864-2.112-.864-.832 0-1.528.288-2.088.864-.56.56-.84 1.296-.84 2.208zm13.332 4.08c-1.072-1.072-1.608-2.432-1.608-4.08 0-1.648.536-3 1.608-4.056 1.088-1.072 2.512-1.608 4.272-1.608 1.76 0 3.176.536 4.248 1.608 1.088 1.056 1.632 2.408 1.632 4.056 0 1.648-.544 3.008-1.632 4.08-1.072 1.056-2.488 1.584-4.248 1.584-1.76 0-3.184-.528-4.272-1.584zm1.344-4.08c0 .896.272 1.64.816 2.232.56.576 1.264.864 2.112.864.864 0 1.568-.28 2.112-.84.56-.576.84-1.328.84-2.256 0-.896-.28-1.632-.84-2.208-.56-.576-1.264-.864-2.112-.864-.832 0-1.528.288-2.088.864-.56.56-.84 1.296-.84 2.208zm10.981 6.864c0-.864.312-1.576.936-2.136.64-.576 1.496-.976 2.568-1.2a1.473 1.473 0 01-.192-.744c0-.304.08-.56.24-.768-.8-.32-1.432-.8-1.896-1.44a3.787 3.787 0 01-.672-2.184c0-1.12.424-2.072 1.272-2.856.848-.8 1.96-1.2 3.336-1.2 1.04 0 1.96.256 2.76.768l3.264-.72.096 2.208-1.8.408c.176.448.264.912.264 1.392 0 1.104-.424 2.048-1.272 2.832-.848.768-1.952 1.152-3.312 1.152h-.192a1.35 1.35 0 00-.048.408c0 .208.048.392.144.552h.12c1.664 0 3.016.296 4.056.888 1.04.592 1.56 1.472 1.56 2.64 0 1.168-.52 2.048-1.56 2.64-1.04.592-2.392.888-4.056.888-1.68 0-3.04-.296-4.08-.888-1.024-.576-1.536-1.456-1.536-2.64zm2.568 0c0 .416.272.736.816.96.544.24 1.288.36 2.232.36 2.016 0 3.024-.44 3.024-1.32 0-.4-.264-.72-.792-.96-.512-.24-1.256-.36-2.232-.36-.96 0-1.712.12-2.256.36-.528.24-.792.56-.792.96zm1.56-9.768a1.724 1.724 0 00-.552 1.296c0 .512.184.936.552 1.272.368.32.856.48 1.464.48.592 0 1.072-.16 1.44-.48.384-.32.576-.744.576-1.272s-.184-.96-.552-1.296c-.352-.352-.84-.528-1.464-.528-.608 0-1.096.176-1.464.528zm10.464 5.328V341.2h2.76v12.696c0 1.168.312 1.752.936 1.752.352 0 .728-.144 1.128-.432l.576 2.112c-.752.608-1.704.912-2.856.912-1.696 0-2.544-1.072-2.544-3.216zm16.844-.048l.792 1.944c-1.056.896-2.432 1.344-4.128 1.344-1.744 0-3.152-.52-4.224-1.56-1.056-1.04-1.584-2.408-1.584-4.104 0-1.616.52-2.96 1.56-4.032 1.04-1.088 2.424-1.632 4.152-1.632 1.424 0 2.632.472 3.624 1.416.992.928 1.488 2.128 1.488 3.6 0 .608-.056 1.104-.168 1.488h-7.8c.112.8.464 1.424 1.056 1.872.592.432 1.32.648 2.184.648 1.216 0 2.232-.328 3.048-.984zm-3.552-5.736c-1.568 0-2.512.784-2.832 2.352h5.304c.016-.672-.2-1.232-.648-1.68-.448-.448-1.056-.672-1.824-.672zm13.573 8.76l7.104-16.848h2.592L549.368 358h-3.144l-1.752-4.296h-7.176L535.544 358h-2.976zm8.328-13.032l-2.472 5.976h4.92l-2.448-5.976zM552.292 358v-10.8h2.76v1.08c.784-.848 1.816-1.272 3.096-1.272 2.96 0 4.44 1.552 4.44 4.656V358h-2.76v-5.856c0-1.696-.808-2.544-2.424-2.544-.88 0-1.664.344-2.352 1.032V358h-2.76zm15.142-8.016l-.696-2.016a7.385 7.385 0 013.816-1.032c1.536 0 2.64.376 3.312 1.128.672.752 1.008 1.872 1.008 3.36V358h-2.4v-1.248c-.656.928-1.72 1.392-3.192 1.392-1.008 0-1.824-.296-2.448-.888-.624-.592-.936-1.4-.936-2.424 0-1.136.368-2 1.104-2.592.736-.608 1.68-.912 2.832-.912.992 0 1.808.232 2.448.696.032-.944-.104-1.64-.408-2.088-.304-.464-.84-.696-1.608-.696-.8 0-1.744.248-2.832.744zm2.76 5.832c.928 0 1.624-.328 2.088-.984v-1.104c-.464-.352-1.096-.528-1.896-.528-.496 0-.912.12-1.248.36-.32.224-.48.552-.48.984 0 .4.144.712.432.936.288.224.656.336 1.104.336zm8.709-.792V341.2h2.76v12.696c0 1.168.312 1.752.936 1.752.352 0 .728-.144 1.128-.432l.576 2.112c-.752.608-1.704.912-2.856.912-1.696 0-2.544-1.072-2.544-3.216zm18.788-7.824l-4.248 10.8c-.768 1.872-1.456 3.136-2.064 3.792-.592.672-1.296 1.008-2.112 1.008-.784 0-1.56-.28-2.328-.84l.888-2.088c.432.256.808.384 1.128.384.656 0 1.208-.56 1.656-1.68l.24-.576-4.992-10.8h3.312l2.52 5.904c.096.24.272.76.528 1.56.128-.704.256-1.232.384-1.584l1.944-5.88h3.144zm2.614 6.696V344.2h2.76v3h3.48v2.592h-3.48v3.936c0 1.296.432 1.944 1.296 1.944.544 0 1.096-.208 1.656-.624l.84 2.136c-.864.704-1.928 1.056-3.192 1.056-1.184 0-2.04-.36-2.568-1.08-.528-.736-.792-1.824-.792-3.264zM610.802 358v-10.8h2.76V358h-2.76zm-.288-14.688c0-.48.168-.864.504-1.152a1.76 1.76 0 011.224-.456c.416 0 .784.152 1.104.456.32.288.48.672.48 1.152 0 .528-.16.952-.48 1.272-.32.304-.688.456-1.104.456-.496 0-.912-.152-1.248-.456-.32-.32-.48-.744-.48-1.272zm15.92 11.064l1.296 2.016c-.448.608-1.056 1.072-1.824 1.392-.752.32-1.576.48-2.472.48-1.76 0-3.176-.52-4.248-1.56s-1.608-2.408-1.608-4.104c0-1.6.528-2.944 1.584-4.032s2.392-1.632 4.008-1.632c1.92 0 3.368.488 4.344 1.464l-1.296 2.184c-.72-.704-1.616-1.056-2.688-1.056-.8 0-1.504.288-2.112.864-.592.56-.888 1.296-.888 2.208 0 .928.304 1.68.912 2.256.624.56 1.36.84 2.208.84 1.056 0 1.984-.44 2.784-1.32zm9.775 1.32a.838.838 0 00.408-.744c0-.32-.2-.576-.6-.768a6.723 6.723 0 00-1.464-.528c-.56-.16-1.128-.344-1.704-.552a3.555 3.555 0 01-1.464-1.056c-.4-.48-.6-1.088-.6-1.824 0-1.024.368-1.824 1.104-2.4.752-.592 1.704-.888 2.856-.888 1.76 0 3.128.456 4.104 1.368l-1.032 1.968c-.88-.688-1.856-1.032-2.928-1.032-.4 0-.728.096-.984.288-.24.176-.36.392-.36.648 0 .32.2.584.6.792.4.208.88.384 1.44.528.576.144 1.152.32 1.728.528a3.364 3.364 0 011.464 1.032c.4.464.6 1.048.6 1.752 0 1.056-.4 1.896-1.2 2.52-.784.624-1.84.936-3.168.936-.928 0-1.848-.2-2.76-.6-.896-.4-1.48-.816-1.752-1.248l1.344-1.8c.32.352.824.664 1.512.936.688.272 1.304.408 1.848.408.416 0 .752-.088 1.008-.264z" fill="#141414"/><circle cx="396" cy="364" r="5" fill="#E27332"/><rect x="405" y="345.932" width="10" height="23" rx="5" fill="#E37432"/><rect x="419" y="332" width="10" height="37" rx="5" fill="#F5AA30"/><path d="M93 431v48c0 95.545 77.455 173 173 173h146m5 13l11.586-11.586a2 2 0 000-2.828L417 639" stroke="#C5CDCF" stroke-width="3" stroke-linecap="round"/><defs><filter id="filter0_d" x="1443" y="333" width="42" height="42" filterUnits="userSpaceOnUse" color-interpolation-filters="sRGB"><feFlood flood-opacity="0" result="BackgroundImageFix"/><feColorMatrix in="SourceAlpha" values="0 0 0 0 0 0 0 0 0 0 0 0 0 0 0 0 0 0 127 0"/><feOffset dx="3" dy="3"/><feGaussianBlur stdDeviation="2.5"/><feColorMatrix values="0 0 0 0 0.441667 0 0 0 0 0.182187 0 0 0 0 0.438297 0 0 0 0.4 0"/><feBlend in2="BackgroundImageFix" result="effect1_dropShadow"/><feBlend in="SourceGraphic" in2="effect1_dropShadow" result="shape"/></filter><filter id="filter1_d" x="22.98" y="328.981" width="50.039" height="50.039" filterUnits="userSpaceOnUse" color-interpolation-filters="sRGB"><feFlood flood-opacity="0" result="BackgroundImageFix"/><feColorMatrix in="SourceAlpha" values="0 0 0 0 0 0 0 0 0 0 0 0 0 0 0 0 0 0 127 0"/><feOffset dx="3" dy="3"/><feGaussianBlur stdDeviation="2.5"/><feColorMatrix values="0 0 0 0 0.441667 0 0 0 0 0.182187 0 0 0 0 0.438297 0 0 0 0.4 0"/><feBlend in2="BackgroundImageFix" result="effect1_dropShadow"/><feBlend in="SourceGraphic" in2="effect1_dropShadow" result="shape"/></filter><filter id="filter2_d" x="917.636" y="320.364" width="75.291" height="67.273" filterUnits="userSpaceOnUse" color-interpolation-filters="sRGB"><feFlood flood-opacity="0" result="BackgroundImageFix"/><feColorMatrix in="SourceAlpha" values="0 0 0 0 0 0 0 0 0 0 0 0 0 0 0 0 0 0 127 0"/><feOffset dx="3" dy="3"/><feGaussianBlur stdDeviation="2.5"/><feColorMatrix values="0 0 0 0 0.441667 0 0 0 0 0.182187 0 0 0 0 0.438297 0 0 0 0.4 0"/><feBlend in2="BackgroundImageFix" result="effect1_dropShadow"/><feBlend in="SourceGraphic" in2="effect1_dropShadow" result="shape"/></filter><filter id="filter3_d" x="979.362" y="323.542" width="63.051" height="56.022" filterUnits="userSpaceOnUse" color-interpolation-filters="sRGB"><feFlood flood-opacity="0" result="BackgroundImageFix"/><feColorMatrix in="SourceAlpha" values="0 0 0 0 0 0 0 0 0 0 0 0 0 0 0 0 0 0 127 0"/><feOffset dx="3" dy="3"/><feGaussianBlur stdDeviation="2.5"/><feColorMatrix values="0 0 0 0 0.441667 0 0 0 0 0.182187 0 0 0 0 0.438297 0 0 0 0.4 0"/><feBlend in2="BackgroundImageFix" result="effect1_dropShadow"/><feBlend in="SourceGraphic" in2="effect1_dropShadow" result="shape"/></filter><filter id="filter4_d" x="927.447" y="634.5" width="48" height="40" filterUnits="userSpaceOnUse" color-interpolation-filters="sRGB"><feFlood flood-opacity="0" result="BackgroundImageFix"/><feColorMatrix in="SourceAlpha" values="0 0 0 0 0 0 0 0 0 0 0 0 0 0 0 0 0 0 127 0"/><feOffset dx="3" dy="3"/><feGaussianBlur stdDeviation="2.5"/><feColorMatrix values="0 0 0 0 0.441667 0 0 0 0 0.182187 0 0 0 0 0.438297 0 0 0 0.4 0"/><feBlend in2="BackgroundImageFix" result="effect1_dropShadow"/><feBlend in="SourceGraphic" in2="effect1_dropShadow" result="shape"/></filter><filter id="filter5_d" x="1283.5" y="634.5" width="48" height="41" filterUnits="userSpaceOnUse" color-interpolation-filters="sRGB"><feFlood flood-opacity="0" result="BackgroundImageFix"/><feColorMatrix in="SourceAlpha" values="0 0 0 0 0 0 0 0 0 0 0 0 0 0 0 0 0 0 127 0"/><feOffset dx="3" dy="3"/><feGaussianBlur stdDeviation="2.5"/><feColorMatrix values="0 0 0 0 0.441667 0 0 0 0 0.182187 0 0 0 0 0.438297 0 0 0 0.4 0"/><feBlend in2="BackgroundImageFix" result="effect1_dropShadow"/><feBlend in="SourceGraphic" in2="effect1_dropShadow" result="shape"/></filter><filter id="filter6_d" x="954.5" y="27.666" width="46" height="51.047" filterUnits="userSpaceOnUse" color-interpolation-filters="sRGB"><feFlood flood-opacity="0" result="BackgroundImageFix"/><feColorMatrix in="SourceAlpha" values="0 0 0 0 0 0 0 0 0 0 0 0 0 0 0 0 0 0 127 0"/><feOffset dx="3" dy="3"/><feGaussianBlur stdDeviation="2.5"/><feColorMatrix values="0 0 0 0 0.441667 0 0 0 0 0.182187 0 0 0 0 0.438297 0 0 0 0.4 0"/><feBlend in2="BackgroundImageFix" result="effect1_dropShadow"/><feBlend in="SourceGraphic" in2="effect1_dropShadow" result="shape"/></filter><filter id="filter7_d" x="525.5" y="631.5" width="45.276" height="45.048" filterUnits="userSpaceOnUse" color-interpolation-filters="sRGB"><feFlood flood-opacity="0" result="BackgroundImageFix"/><feColorMatrix in="SourceAlpha" values="0 0 0 0 0 0 0 0 0 0 0 0 0 0 0 0 0 0 127 0"/><feOffset dx="3" dy="3"/><feGaussianBlur stdDeviation="2.5"/><feColorMatrix values="0 0 0 0 0.441667 0 0 0 0 0.182187 0 0 0 0 0.438297 0 0 0 0.4 0"/><feBlend in2="BackgroundImageFix" result="effect1_dropShadow"/><feBlend in="SourceGraphic" in2="effect1_dropShadow" result="shape"/></filter><clipPath id="clip0"><path fill="#fff" transform="translate(1445 335)" d="M0 0h32v32H0z"/></clipPath><clipPath id="clip1"><path fill="#fff" transform="rotate(-25.686 766.895 117.206)" d="M0 0h30v30H0z"/></clipPath></defs></svg>