<svg width="1057" height="154" viewBox="0 0 1057 154" fill="none" xmlns="http://www.w3.org/2000/svg"><path fill-rule="evenodd" clip-rule="evenodd" d="M159.892 121.986H125.2c-.652 0-.775-.628-.775-.628l-13.878-33.931c-12.335 8.739-5.535 22.622-3.085 25.18 1.035 1.674-5.537 12.211-17.367 12.211-11.164 0-19.264-9.129-18.651-20.445.785-13.222 15.06-26.713 33.302-31.978L83.932 30.903S83.69 30 84.713 30h32.497c.664 0 .912.766.912.766l13.381 34.055c13.245-7.728 5.636-25.45 2.946-28.013-.908-.893 2.69-8.872 14.528-9.897 12.842-1.173 20.945 7.709 20.701 19.147-.243 13.479-13.263 27.113-31.877 32.63l22.498 42.67s.37.628-.407.628zm81.171-7.317c1.677-3.471-7.601.901-5.134-19.537 1.145-8.852 5.66-38.151 5.66-38.151 0-.507-.374-.644-.374-.644h-25.738s-.754.137-.754.756c0 0-.529 3.494-1.175 8.882-3.076-7.2-8.722-12.21-17.603-12.21-16.834 0-27.877 15.681-30.073 33.288-2.193 17.204 4.618 36.602 20.843 36.602 8.977 0 16.697-6.154 22.072-14.507.517 9.111 6.854 14.654 15.69 14.654 7.215 0 14.763-5.016 16.586-9.133zM211.63 88.596c-1.157 9.617-5.531 17.336-11.826 17.336-6.308 0-8.608-7.719-7.453-17.336 1.145-9.657 5.396-17.474 11.706-17.474 6.293 0 8.72 7.817 7.573 17.474zm104.67 32.763s7.458-60.4 7.83-63.342c0-.393-.243-.53-.372-.53h.129c-20.039-4.119-38.169-3.855-55.914 0-.15 0-.522.137-.522.648 0 0-2.463 20.688-6.301 30.7-7.324 18.501-15.299 19.404-15.557 21.834-.374 2.717 2.829 14.149 14.79 14.149 10.408 0 17.617-6.677 21.466-22.096 2.594-10.156 4.125-21.462 4.652-33.416h10.4c-2.314 19.018-6.431 52.053-6.431 52.053 0 .627.514.627.514.627h24.817s.499 0 .499-.627zm78.463-32c-1.403-18.237-22.122-22.097-36.775-17.083l.656-2.58c52.456-5.77 43.955-44.469 17.985-43.684-30.059.776-46.646 37.914-46.646 65.904 0 17.737 10.515 32.387 29.969 32.387 19.894 0 36.356-14.135 34.811-34.943zm-31.368-6.44c6.42 1.174 8.504 5.677 8.092 12.597-.119 3.725-3.318 14.262-10.028 14.262-9.37 0-6.553-20.418-5.517-26.078 0 0 4.131-1.285 7.453-.78zm-1.934-22.99c1.306-4.511 5.028-17.09 10.553-17.09 3.217 0 3.338 1.813 3.217 3.47-1.026 7.846-13.77 13.62-13.77 13.62zm115.357 54.74c1.659-3.471-7.598.901-5.173-19.537 1.173-8.852 5.663-38.151 5.663-38.151 0-.507-.38-.644-.38-.644h-25.696s-.775.137-.775.756c0 0-.513 3.494-1.163 8.882-3.093-7.2-8.742-12.21-17.599-12.21-16.85 0-27.893 15.681-30.068 33.288-2.202 17.204 4.613 36.602 20.789 36.602 9.018 0 16.723-6.154 22.138-14.507.495 9.111 6.796 14.654 15.679 14.654 7.207 0 14.766-5.016 16.585-9.133zm-29.454-26.073c-1.163 9.617-5.516 17.336-11.808 17.336-6.316 0-8.642-7.719-7.466-17.336 1.15-9.657 5.408-17.474 11.675-17.474 6.32 0 8.752 7.817 7.599 17.474zm80.943 7.684c24.935.776 24.415-22.224 21.715-20.81-1.013.388-4.621 5.909-13.872 5.4-9.38-.396-13.876-4.37-25.57-4.877-20.059-.9-23.679 22.22-20.84 21.2 1.29-.271 4.501-5.149 13.903-5.149 6.937-.14 15.397 3.607 24.664 4.236zm-488.875 0c24.93.776 24.41-22.224 21.7-20.81-1.021.388-4.633 5.909-13.871 5.4-9.39-.396-13.875-4.37-25.583-4.877-20.057-.9-23.658 22.22-20.832 21.2 1.31-.271 4.503-5.149 13.912-5.149 6.92-.14 15.393 3.607 24.674 4.236z" fill="url(#paint0_linear)"/><path d="M754.274 87.505v-2.708c4.095-.551 5.723-1.72 6.499-6.499V19.54c.242-5.095-1.388-6.208-7.041-7.04V9.25h20.579l13.539 50.365L800.577 8.98h20.578v3.25h-1.895c-3.359.006-4.443 1.028-4.874 4.873v60.383c.2 4.908 1.354 7.04 7.04 7.04v2.979h-25.994v-3.25h2.978c2.708 0 3.791-1.895 3.791-5.957V23.06l-16.788 64.445h-2.437l-17.871-65.257v54.967c.539 4.956 1.867 6.806 7.311 7.311v2.979h-18.142zm74.192-57.134V8.71h44.137V30.1h-3.52v-4.332c.27-6.77-3.791-12.456-7.582-12.456h-4.603v66.07l4.603 4.603h1.895v3.249h-25.723v-3.25h2.166l4.603-4.603V13.312h-3.52c-5.416 0-8.628 4.183-9.206 11.914v5.145h-3.25z" fill="#004EA3"/><path fill-rule="evenodd" clip-rule="evenodd" d="M879.643 8.71h40.345v21.12h-2.978c-.362-12.087-2.089-16.207-9.207-16.518h-9.747v18.955h5.415c16.345 1.51 20.522 6.756 21.662 21.661V65.03c-1.083 16.518-10.289 21.933-17.6 21.933h-27.349v-2.978c3.944-.282 6.228-1.625 6.228-5.145V19.27c0-4.333-1.354-7.312-4.874-7.312h-1.895V8.71zm18.413 27.889v40.887c.109 2.643.499 3.944 3.249 5.145h1.624c4.874-.813 9.478-8.394 9.478-16.517V55.011c0-11.102-3.425-18.528-14.351-18.413zm43.052 5.415v-2.707c2.166-5.145 9.206-4.874 9.206 2.166v11.102c-7.446 5.793-11.474 9.45-15.364 15.53a11.433 11.433 0 00-1.732 5.065c-.721 7.542.247 11.314 5.724 14.335 6.497.456 9.116-1.303 11.914-8.124 1.009 4.772 1.684 7.294 5.415 8.124h3.791c3.883-2.394 5.095-4.224 5.957-8.124-.337-.9-.703-1.328-1.557-1.742a.527.527 0 00-.598.109c-1.241 1.22-1.709 1.247-2.719-.262V45.017c0-1.456-.125-2.917-.487-4.328-1.478-5.751-3.728-8.147-9.802-9.506h-4.333c-6.337 1.823-8.935 3.85-11.914 9.207-1.644 5.78-2.054 8.636 0 11.643 2.898 2.066 4.584 2.577 7.853.542 3.52-2.437 1.624-6.228-1.354-10.56zm9.478 15.71v16.783c0 3.25-8.394 2.437-8.394-1.083v-1.863c0-.558.107-1.113.321-1.628 2.31-5.577 4.114-8.482 7.7-12.356a.215.215 0 01.373.147z" fill="#004EA3"/><path d="M989.036 32.537h-17.33v2.437c1.083 0 3.791 2.167 3.791 3.791v41.429c0 1.624-1.354 3.52-3.52 3.52v2.978h17.059v-2.978c-1.354 0-3.249-2.166-3.249-3.25V60.97h10.289v19.495c0 1.354-2.166 3.25-3.249 3.25v2.707h17.063v-2.978c-1.36 0-3.25-1.625-3.25-3.25V38.766c0-1.895 1.35-3.25 3.25-3.25v-3.248h-17.063v3.249c2.166 0 3.249 2.166 3.249 3.25v18.412h-10.289V38.765c0-1.624 1.354-3.25 3.249-3.25v-2.978zm41.974-24.369h-14.63v3.249c2.44 0 4.07 1.895 4.07 4.062v64.173c0 1.625-1.36 3.791-3.25 3.791v2.978h17.33v-2.978c-1.63 0-3.52-1.625-3.52-3.79V64.488l1.89-2.708 8.12 18.684c0 2.166-.27 2.978-2.43 2.978v2.978h17.87v-2.978c-5.46-2.454-9.85-17.671-16.52-32.764 5.39-8.97 8.43-14.292 13.54-15.434v-3.25h-15.16v3.25c2.35.415 3.04.963 3.79 2.166l.27 2.437-11.37 18.142V8.168zM715.011 145.629h-3.791v-9.228h-9.916v9.228h-3.443v-20.704h3.443v8.394h9.916v-8.394h3.791v20.704zm12.266-9.209h-2.499v9.209h-3.443v-20.704h3.443v8.478h1.064l7.311-8.478h4.749l-8.27 9.206c4.798.935 6.137 5.723 8.665 11.498h-4.061c-1.223-4.34-2.417-7.116-6.959-9.209z" fill="#004EA3"/><path fill-rule="evenodd" clip-rule="evenodd" d="M676.828 126.603l1.354 2.437c3.25-2.437 9.477-2.437 9.477 1.354v1.895c-5.404.414-8.323 1.134-10.472 3.487a6.298 6.298 0 00-1.639 4.458c.021.537.087 1.105.197 1.803 1.083 4.603 9.207 6.228 12.456 1.181v2.465h3.52v-14.748c-.271-6.227-9.206-8.123-14.893-4.332zm11.102 9.137v3.068c0 .658-.188 1.31-.609 1.815-2.511 3.008-5.705 3.266-7.363 1.052-.585-.781-.63-1.833-.322-2.759.983-2.954 3.025-3.796 7.769-3.714a.536.536 0 01.525.538z" fill="#004EA3"/><path d="M913.489 135.098c0 3.172-.804 5.728-2.411 7.667-1.606 1.94-3.782 2.909-6.527 2.909-2.801 0-5.005-.803-6.612-2.408v10.037h-3.946v-28.858h3.605l.192 2.311c1.607-1.798 3.839-2.697 6.697-2.697 2.773 0 4.963.944 6.57 2.832 1.621 1.888 2.432 4.515 2.432 7.879v.328zm-3.946-.405c0-2.35-.555-4.206-1.664-5.567-1.109-1.361-2.631-2.042-4.565-2.042-2.389 0-4.181.957-5.375 2.87v9.96c1.18 1.901 2.986 2.851 5.418 2.851 1.891 0 3.391-.674 4.501-2.023 1.123-1.361 1.685-3.377 1.685-6.049z" fill="#004EA3"/><path fill-rule="evenodd" clip-rule="evenodd" d="M670.062 117.29h-16.247v29.244h9.207c11.643-.542 12.455-18.955 0-18.413h-5.416v-7.311h12.456v-3.52zm-12.456 14.08v12.185h5.145c6.769 0 7.582-12.185 0-12.185h-5.145z" fill="#004EA3"/><path d="M769.707 146.013v-21.12h7.626c2.742 0 4.843.482 6.302 1.447 1.472.952 2.209 2.354 2.209 4.207 0 .952-.286 1.815-.857 2.59-.571.761-1.415 1.345-2.532 1.751 1.244.292 2.24.863 2.989 1.714.761.85 1.142 1.865 1.142 3.046.412 3.436-3.333 6.071-6.785 6.325-.361.026-.756.04-1.192.04h-8.902zm4.083-9.811v7.395h1.164c2.427 0 5.153.139 6.938-1.506.812-1.083 1.153-1.567 1.153-2.557-.094-1.49-1.594-2.569-4.531-3.085l-4.724-.247zm0-2.57h3.581c3.3 0 4.95-.965 4.95-2.894 0-1.93-1.561-2.926-4.683-2.989h-3.848v5.883zm54.276 2.621h-2.476v8.948h-3.522v-8.948h-2.475c-3.597 2.4-4.615 4.815-5.75 9.219h-4.061c1.889-5.789 3.52-10.019 8.123-11.373l-7.831-9.498h4.265l6.815 9.227h.914v-9.227h3.522v9.227h.709l7.04-9.227h4.265l-7.785 9.498c5.003 1.623 5.698 4.813 7.785 11.102h-3.77c-1.146-4.408-2.31-6.452-5.768-8.948zm26.392-11.652h4.605v20.6h-3.791v-16.247l-9.477 16.247h-4.36v-20.6h3.522v15.041l9.501-15.041zm17.376 7.52l4.569-7.52h4.112l-6.739 10.186 7.49 10.414h-4.615l-4.76-7.711-4.976 7.711h-4.332l7.404-10.414-6.949-10.186h4.284l4.512 7.52zm-107.001-3.416l1.083-2.708c-20.849-9.189-23.827 27.366 0 18.683l-1.083-2.437c-15.975 5.163-15.299-19.229 0-13.538zm161.853 16.475c-2.941 0-5.335-.927-7.18-2.78-1.845-1.867-2.768-4.357-2.768-7.472v-.656c0-2.073.408-3.92 1.223-5.541.83-1.635 1.979-2.909 3.45-3.823a8.922 8.922 0 014.814-1.39c2.822 0 5.015.894 6.579 2.683 1.564 1.789 2.347 4.351 2.347 7.684v1.487h-14.702c.053 2.059.675 3.726 1.865 5 1.203 1.262 2.728 1.892 4.573 1.892 1.31 0 2.751.181 3.661-.334 1.414-.347 1.353-.785 1.353-.785l2.437 1.598c-1.818 2.69-4.014 2.437-7.652 2.437zm-.461-18.728c-1.497 0-2.754.528-3.771 1.583-1.016 1.043-1.644 2.51-1.885 4.402h10.871v-.27c-.107-1.815-.615-3.218-1.524-4.209-.91-1.004-2.14-1.506-3.691-1.506zm-126.261 19.811c-2.942 0-5.336-.927-7.181-2.78-1.845-1.867-2.768-4.357-2.768-7.472v-.656c0-2.073.408-3.92 1.224-5.541.829-1.635 1.979-2.909 3.45-3.823a8.92 8.92 0 014.813-1.39c2.822 0 5.015.894 6.579 2.683 1.565 1.79 2.347 4.351 2.347 7.684v1.487h-14.702c.053 2.059.675 3.726 1.865 5 1.204 1.262 2.728 1.893 4.573 1.893 1.311 0 2.752.18 3.661-.334 1.414-.348 1.354-.786 1.354-.786l2.437 1.598c-1.819 2.69-4.015 2.437-7.652 2.437zm-.462-18.728c-1.497 0-2.754.528-3.77 1.584-1.017 1.042-1.645 2.509-1.886 4.401h10.871v-.27c-.107-1.815-.615-3.218-1.524-4.209-.909-1.004-2.139-1.506-3.691-1.506zm180.256 17.645c-2.941 0-5.335-.927-7.18-2.78-1.845-1.867-2.768-4.357-2.768-7.472v-.656c0-2.073.408-3.92 1.223-5.541.829-1.635 1.979-2.909 3.45-3.823a8.922 8.922 0 014.814-1.39c2.821 0 5.014.894 6.579 2.683 1.564 1.789 2.347 4.351 2.347 7.684v1.487h-14.702c.053 2.059.675 3.726 1.865 5 1.203 1.262 2.728 1.892 4.573 1.892 1.31 0 2.751.181 3.66-.334 1.415-.347 1.354-.785 1.354-.785l2.437 1.598c-1.818 2.69-4.015 2.437-7.652 2.437zm-.461-18.728c-1.498 0-2.754.528-3.771 1.583-1.016 1.043-1.644 2.51-1.885 4.402h10.871v-.27c-.107-1.815-.615-3.218-1.524-4.209-.91-1.004-2.14-1.506-3.691-1.506zm-36.01-1.872v17.725h7.539V124.58h3.522v17.725h7.521V124.58h3.541v20.6h-25.665v-20.6h3.542zm67.143 20.058h-3.81v-8.787h-10.235v8.787h-3.83v-20.579h3.83v8.92h10.235v-8.92h3.81v20.579zm19.59-21.12h3.69v20.579h-3.69V129.09l-9.95 15.007h-3.69v-20.579h3.69v15.025l9.95-15.025zm23.29 0h3.69v20.579h-3.69V129.09l-9.95 15.007h-3.69v-20.579h3.69v15.025l9.95-15.025zm1.45-8.124c0 1.54-.56 2.78-1.7 3.721-1.13.928-2.61 1.393-4.44 1.393-1.84 0-3.33-.471-4.47-1.412-1.13-.941-1.7-2.175-1.7-3.702h3.1c0 .891.26 1.59.78 2.099.52.496 1.29.744 2.29.744.96 0 1.7-.248 2.24-.744.55-.496.82-1.195.82-2.099h3.08zM725.4 74.522c-7.45 8.771-18.56 14.337-30.969 14.337-21.619 0-39.292-16.89-40.545-38.195 1.719-1.531 20.791 5.758 38.884 12.673 15.15 5.79 29.615 11.318 32.63 11.185zm-54.88-59.115a40.432 40.432 0 0123.911-7.781c20.302 0 37.125 14.895 40.136 34.353-3.958 2.803-22.56-6.541-48.719-19.682a3904.363 3904.363 0 00-14.163-7.09c-.392.067-.781.133-1.165.2z" fill="#004EA3"/><path d="M655.709 44.315c-4.46-1.933-5.044-1.19-2.707 3.25-6.542-7.135-8.374-10.194-6.836-11.239 2.004-1.362 4.73.063 6.973.98L725.84 67.06c2.642 1.112 3.918-.2 6.228-2.166-2.897 5.047-4.504 8.036-8.123 6.498l-68.236-27.077z" fill="#FF140A"/><path d="M643.796 27.75c-4.157-1.214-3.649 1.128-1.624 6.5-6.074-8.636-9.015-13.508-6.79-15.001 1.993-1.338 4.661.058 6.859 1.023l85.496 37.535c3.483 1.633 4.981 1.143 7.04-1.625-.971 6.075-2.212 8.438-8.394 6.77L643.796 27.75z" fill="#FF140A"/><path d="M634.862 11.775c-5.031-2.419-4.312.15-2.166 5.686-8.066-10.647-10.6-15.46-7.27-16.6 2.363-.81 4.911.34 7.186 1.372l96.75 43.93c3.571 1.96 4.709.929 6.228-2.166.432 7.254.01 10.29-5.145 8.936l-95.583-41.158z" fill="#FF140A"/><defs><linearGradient id="paint0_linear" x1="275.639" y1="26" x2="275.639" y2="124.818" gradientUnits="userSpaceOnUse"><stop stop-color="#FD6C50"/><stop offset="1" stop-color="#E52E4E"/></linearGradient></defs></svg>