<svg width="1164" height="346" viewBox="0 0 1164 346" fill="none" xmlns="http://www.w3.org/2000/svg"><path d="M59.974 46.6c0-2.464.817-4.52 2.449-6.168 1.647-1.664 3.743-2.496 6.287-2.496 2.529 0 4.617.8 6.265 2.4 1.663 1.6 2.496 3.688 2.496 6.264 0 2.512-.833 4.584-2.496 6.216-1.664 1.632-3.752 2.448-6.264 2.448-2.528 0-4.617-.8-6.264-2.4-1.649-1.6-2.473-3.688-2.473-6.264zm3.12 0c0 1.68.536 3.088 1.608 4.224 1.088 1.12 2.424 1.68 4.008 1.68 1.729 0 3.097-.56 4.105-1.68 1.023-1.12 1.535-2.528 1.535-4.224 0-1.728-.543-3.144-1.631-4.248-1.072-1.104-2.408-1.656-4.008-1.656-1.617 0-2.96.552-4.032 1.656-1.056 1.104-1.585 2.52-1.585 4.248zm17 8.4V44.2h2.76v1.08c.785-.848 1.817-1.272 3.097-1.272 2.96 0 4.44 1.552 4.44 4.656V55h-2.76v-5.856c0-1.696-.808-2.544-2.424-2.544-.88 0-1.664.344-2.352 1.032V55h-2.76zm13.102-2.976V38.2h2.76v12.696c0 1.168.312 1.752.936 1.752.352 0 .728-.144 1.128-.432l.576 2.112c-.752.608-1.704.912-2.856.912-1.696 0-2.544-1.072-2.544-3.216zm7.58 2.976V44.2h2.76V55h-2.76zm-.288-14.688c0-.48.168-.864.504-1.152a1.76 1.76 0 011.224-.456c.416 0 .784.152 1.104.456.32.288.48.672.48 1.152 0 .528-.16.952-.48 1.272-.32.304-.688.456-1.104.456-.496 0-.912-.152-1.248-.456-.32-.32-.48-.744-.48-1.272zM107.024 55V44.2h2.76v1.08c.784-.848 1.816-1.272 3.096-1.272 2.96 0 4.44 1.552 4.44 4.656V55h-2.76v-5.856c0-1.696-.808-2.544-2.424-2.544-.88 0-1.664.344-2.352 1.032V55h-2.76zm21.574-3.024l.792 1.944c-1.056.896-2.432 1.344-4.128 1.344-1.744 0-3.152-.52-4.224-1.56-1.056-1.04-1.584-2.408-1.584-4.104 0-1.616.52-2.96 1.56-4.032 1.04-1.088 2.424-1.632 4.152-1.632 1.424 0 2.632.472 3.624 1.416.992.928 1.488 2.128 1.488 3.6 0 .608-.056 1.104-.168 1.488h-7.8c.112.8.464 1.424 1.056 1.872.592.432 1.32.648 2.184.648 1.216 0 2.232-.328 3.048-.984zm-3.552-5.736c-1.568 0-2.512.784-2.832 2.352h5.304c.016-.672-.2-1.232-.648-1.68-.448-.448-1.056-.672-1.824-.672zm7.455 8.76V44.2h2.76v1.056c.608-.832 1.432-1.248 2.472-1.248.752 0 1.312.136 1.68.408l-.984 2.592c-.464-.272-.928-.408-1.392-.408-.8 0-1.392.384-1.776 1.152V55h-2.76zm12.538-5.28v-2.568h6.048v2.568h-6.048zm16.989 5.544a7.8 7.8 0 01-2.76-.504c-.896-.352-1.544-.784-1.944-1.296l1.416-1.728c.32.368.776.68 1.368.936.608.256 1.168.384 1.68.384.704 0 1.248-.12 1.632-.36.384-.24.576-.56.576-.96a1.07 1.07 0 00-.432-.888c-.288-.224-.688-.336-1.2-.336h-2.016v-1.848h1.896c.432 0 .776-.128 1.032-.384.272-.256.408-.568.408-.936 0-.784-.632-1.176-1.896-1.176-.992 0-1.976.416-2.952 1.248l-1.152-1.656c1.04-1.216 2.584-1.824 4.632-1.824 1.408 0 2.48.272 3.216.816.736.544 1.104 1.296 1.104 2.256 0 .528-.176 1.008-.528 1.44-.352.432-.84.752-1.464.96v.048c.736.144 1.296.448 1.68.912.4.448.6.992.6 1.632 0 1.008-.448 1.808-1.344 2.4-.896.576-2.08.864-3.552.864zm8.344-8.28l-.696-2.016a7.385 7.385 0 013.816-1.032c1.536 0 2.64.376 3.312 1.128.672.752 1.008 1.872 1.008 3.36V55h-2.4v-1.248c-.656.928-1.72 1.392-3.192 1.392-1.008 0-1.824-.296-2.448-.888-.624-.592-.936-1.4-.936-2.424 0-1.136.368-2 1.104-2.592.736-.608 1.68-.912 2.832-.912.992 0 1.808.232 2.448.696.032-.944-.104-1.64-.408-2.088-.304-.464-.84-.696-1.608-.696-.8 0-1.744.248-2.832.744zm2.76 5.832c.928 0 1.624-.328 2.088-.984v-1.104c-.464-.352-1.096-.528-1.896-.528-.496 0-.912.12-1.248.36-.32.224-.48.552-.48.984 0 .4.144.712.432.936.288.224.656.336 1.104.336zm17.733-8.616l-4.152 5.136L191.369 55h-3.6l-4.272-5.448 3.888-5.352h3.48zM180.641 55V44.2h2.76V55h-2.76zm13.192-8.016l-.696-2.016a7.385 7.385 0 013.816-1.032c1.536 0 2.64.376 3.312 1.128.672.752 1.008 1.872 1.008 3.36V55h-2.4v-1.248c-.656.928-1.72 1.392-3.192 1.392-1.008 0-1.824-.296-2.448-.888-.624-.592-.936-1.4-.936-2.424 0-1.136.368-2 1.104-2.592.736-.608 1.68-.912 2.832-.912.992 0 1.808.232 2.448.696.032-.944-.104-1.64-.408-2.088-.304-.464-.84-.696-1.608-.696-.8 0-1.744.248-2.832.744zm2.76 5.832c.928 0 1.624-.328 2.088-.984v-1.104c-.464-.352-1.096-.528-1.896-.528-.496 0-.912.12-1.248.36-.32.224-.48.552-.48.984 0 .4.144.712.432.936.288.224.656.336 1.104.336zm11.325 2.448a7.8 7.8 0 01-2.76-.504c-.896-.352-1.544-.784-1.944-1.296l1.416-1.728c.32.368.776.68 1.368.936.608.256 1.168.384 1.68.384.704 0 1.248-.12 1.632-.36.384-.24.576-.56.576-.96a1.07 1.07 0 00-.432-.888c-.288-.224-.688-.336-1.2-.336h-2.016v-1.848h1.896c.432 0 .776-.128 1.032-.384.272-.256.408-.568.408-.936 0-.784-.632-1.176-1.896-1.176-.992 0-1.976.416-2.952 1.248l-1.152-1.656c1.04-1.216 2.584-1.824 4.632-1.824 1.408 0 2.48.272 3.216.816.736.544 1.104 1.296 1.104 2.256 0 .528-.176 1.008-.528 1.44-.352.432-.84.752-1.464.96v.048c.736.144 1.296.448 1.68.912.4.448.6.992.6 1.632 0 1.008-.448 1.808-1.344 2.4-.896.576-2.08.864-3.552.864zm7.505-.264V44.2h2.76v2.952h1.344c1.696 0 2.912.352 3.648 1.056.736.704 1.104 1.6 1.104 2.688 0 1.168-.4 2.144-1.2 2.928-.8.784-2.056 1.176-3.768 1.176h-3.888zm10.392 0V44.2h2.76V55h-2.76zm-6.528-5.64h-1.104v3.24h1.08c1.392 0 2.088-.536 2.088-1.608 0-1.088-.688-1.632-2.064-1.632z" fill="#fff"/><path stroke="#E4002B" stroke-width="3" d="M1.5 12.5h286v72H1.5z"/><path d="M31.182 171.6c0-2.464.816-4.52 2.448-6.168 1.648-1.664 3.744-2.496 6.288-2.496 2.528 0 4.616.8 6.264 2.4 1.664 1.6 2.496 3.688 2.496 6.264 0 2.512-.832 4.584-2.496 6.216-1.664 1.632-3.752 2.448-6.264 2.448-2.528 0-4.616-.8-6.264-2.4-1.648-1.6-2.472-3.688-2.472-6.264zm3.12 0c0 1.68.536 3.088 1.608 4.224 1.088 1.12 2.424 1.68 4.008 1.68 1.728 0 3.096-.56 4.104-1.68 1.024-1.12 1.536-2.528 1.536-4.224 0-1.728-.544-3.144-1.632-4.248-1.072-1.104-2.408-1.656-4.008-1.656-1.616 0-2.96.552-4.032 1.656-1.056 1.104-1.584 2.52-1.584 4.248zm24.855 4.776l1.297 2.016c-.449.608-1.056 1.072-1.825 1.392-.752.32-1.575.48-2.471.48-1.76 0-3.177-.52-4.248-1.56-1.072-1.04-1.608-2.408-1.608-4.104 0-1.6.528-2.944 1.584-4.032 1.055-1.088 2.392-1.632 4.008-1.632 1.92 0 3.367.488 4.343 1.464l-1.296 2.184c-.72-.704-1.616-1.056-2.688-1.056-.8 0-1.504.288-2.111.864-.593.56-.889 1.296-.889 2.208 0 .928.304 1.68.913 2.256.623.56 1.36.84 2.208.84 1.055 0 1.983-.44 2.783-1.32zm2.173-4.416v-2.76h9.84v2.76h-3.528V180h-2.76v-8.04H61.33zm12.655.024l-.696-2.016a7.385 7.385 0 013.816-1.032c1.536 0 2.64.376 3.312 1.128.672.752 1.008 1.872 1.008 3.36V180h-2.4v-1.248c-.656.928-1.72 1.392-3.192 1.392-1.008 0-1.824-.296-2.448-.888-.624-.592-.936-1.4-.936-2.424 0-1.136.368-2 1.104-2.592.736-.608 1.68-.912 2.832-.912.992 0 1.808.232 2.448.696.032-.944-.104-1.64-.408-2.088-.304-.464-.84-.696-1.608-.696-.8 0-1.744.248-2.832.744zm2.76 5.832c.928 0 1.624-.328 2.088-.984v-1.104c-.464-.352-1.096-.528-1.896-.528-.496 0-.912.12-1.248.36-.32.224-.48.552-.48.984 0 .4.144.712.432.936.288.224.656.336 1.104.336zm6.382-5.856v-2.76h9.84v2.76h-3.528V180h-2.76v-8.04h-3.552zm22.039-2.76l-4.152 5.136L105.67 180h-3.6l-4.272-5.448 3.888-5.352h3.48zM94.942 180v-10.8h2.76V180h-2.76zm15.112 0h-2.76v-10.8h2.76v6.84l5.04-6.84h2.76V180h-2.76v-6.84l-5.04 6.84zm18.726 0h-2.76v-10.8h2.76v6.84l5.04-6.84h2.76V180h-2.76v-6.84l-5.04 6.84zm15.967 0v-10.8h2.76v8.232h4.44V169.2h2.76v8.232h1.8v5.088h-2.592V180h-9.168zm22.066-3.024l.792 1.944c-1.056.896-2.432 1.344-4.128 1.344-1.744 0-3.152-.52-4.224-1.56-1.056-1.04-1.584-2.408-1.584-4.104 0-1.616.52-2.96 1.56-4.032 1.04-1.088 2.424-1.632 4.152-1.632 1.424 0 2.632.472 3.624 1.416.992.928 1.488 2.128 1.488 3.6 0 .608-.056 1.104-.168 1.488h-7.8c.112.8.464 1.424 1.056 1.872.592.432 1.32.648 2.184.648 1.216 0 2.232-.328 3.048-.984zm-3.552-5.736c-1.568 0-2.512.784-2.832 2.352h5.304c.016-.672-.2-1.232-.648-1.68-.448-.448-1.056-.672-1.824-.672zm14.943 8.76v-4.128h-4.728V180h-2.76v-10.8h2.76v4.08h4.728v-4.08h2.76V180h-2.76zm5.824 0v-10.8h2.76v2.952h1.344c1.696 0 2.912.352 3.648 1.056.736.704 1.104 1.6 1.104 2.688 0 1.168-.4 2.144-1.2 2.928-.8.784-2.056 1.176-3.768 1.176h-3.888zm10.392 0v-10.8h2.76V180h-2.76zm-6.528-5.64h-1.104v3.24h1.08c1.392 0 2.088-.536 2.088-1.608 0-1.088-.688-1.632-2.064-1.632zm20.201 5.64h-2.76v-10.8h2.76v6.84l5.04-6.84h2.76V180h-2.76v-6.84l-5.04 6.84zm14.697.264a7.8 7.8 0 01-2.76-.504c-.896-.352-1.544-.784-1.944-1.296l1.416-1.728c.32.368.776.68 1.368.936.608.256 1.168.384 1.68.384.704 0 1.248-.12 1.632-.36.384-.24.576-.56.576-.96a1.07 1.07 0 00-.432-.888c-.288-.224-.688-.336-1.2-.336h-2.016v-1.848h1.896c.432 0 .776-.128 1.032-.384.272-.256.408-.568.408-.936 0-.784-.632-1.176-1.896-1.176-.992 0-1.976.416-2.952 1.248l-1.152-1.656c1.04-1.216 2.584-1.824 4.632-1.824 1.408 0 2.48.272 3.216.816.736.544 1.104 1.296 1.104 2.256 0 .528-.176 1.008-.528 1.44-.352.432-.84.752-1.464.96v.048c.736.144 1.296.448 1.68.912.4.448.6.992.6 1.632 0 1.008-.448 1.808-1.344 2.4-.896.576-2.08.864-3.552.864zm11.582-13.896l4.296-3.216h1.992V180h-2.76v-12.912l-2.064 1.56-1.464-2.28zm22.792 9.792l1.128 2.208c-.528.56-1.288 1.016-2.28 1.368a9.055 9.055 0 01-3.096.528c-2.576 0-4.664-.792-6.264-2.376-1.6-1.584-2.4-3.68-2.4-6.288 0-2.512.76-4.584 2.28-6.216 1.52-1.632 3.624-2.448 6.312-2.448 2.16 0 3.864.568 5.112 1.704l-1.32 2.184c-1.136-.752-2.4-1.128-3.792-1.128-1.584 0-2.896.536-3.936 1.608-1.024 1.072-1.536 2.504-1.536 4.296 0 1.744.536 3.168 1.608 4.272 1.088 1.088 2.488 1.632 4.2 1.632 1.488 0 2.816-.448 3.984-1.344z" fill="#fff"/><path stroke="#E4002B" stroke-width="3" d="M1.5 137.5h286v72H1.5z"/><path d="M552.586 180v-16.8h9.816v2.76h-6.864v3.744a15.728 15.728 0 012.256-.144c1.744 0 3.12.456 4.128 1.368 1.008.912 1.512 2.144 1.512 3.696 0 1.744-.568 3.096-1.704 4.056-1.12.944-2.712 1.416-4.776 1.416-.72 0-1.568-.016-2.544-.048a75.485 75.485 0 00-1.824-.048zm4.968-7.68c-.592 0-1.264.048-2.016.144v4.776c.896.064 1.52.096 1.872.096 2.064 0 3.096-.832 3.096-2.496 0-.768-.248-1.376-.744-1.824-.48-.464-1.216-.696-2.208-.696zm11.742 7.68h-2.76v-10.8h2.76v6.84l5.04-6.84h2.76V180h-2.76v-6.84l-5.04 6.84zm9.753-8.04v-2.76h9.84v2.76h-3.528V180h-2.76v-8.04h-3.552zm11.815 12.84v-15.6h2.76v1.032c.352-.368.824-.672 1.416-.912a4.898 4.898 0 011.92-.384c1.472 0 2.656.512 3.552 1.536.896 1.024 1.344 2.344 1.344 3.96 0 1.68-.528 3.072-1.584 4.176s-2.432 1.656-4.128 1.656c-1.072 0-1.912-.176-2.52-.528v5.064h-2.76zm5.232-13.272c-.944 0-1.768.392-2.472 1.176v4.368c.64.416 1.4.624 2.28.624.928 0 1.664-.296 2.208-.888.544-.608.816-1.376.816-2.304 0-.88-.248-1.592-.744-2.136-.496-.56-1.192-.84-2.088-.84zM607.007 180h-2.76v-10.8h2.76v6.84l5.04-6.84h2.76V180h-2.76v-6.84l-5.04 6.84zm21.105-10.8l-4.152 5.136 4.656 5.664h-3.6l-4.272-5.448 3.888-5.352h3.48zM617.888 180v-10.8h2.76V180h-2.76zm19.879-3.624l1.296 2.016c-.448.608-1.056 1.072-1.824 1.392-.752.32-1.576.48-2.472.48-1.76 0-3.176-.52-4.248-1.56s-1.608-2.408-1.608-4.104c0-1.6.528-2.944 1.584-4.032s2.392-1.632 4.008-1.632c1.92 0 3.368.488 4.344 1.464l-1.296 2.184c-.72-.704-1.616-1.056-2.688-1.056-.8 0-1.504.288-2.112.864-.592.56-.888 1.296-.888 2.208 0 .928.304 1.68.912 2.256.624.56 1.36.84 2.208.84 1.056 0 1.984-.44 2.784-1.32z" fill="#fff"/><path stroke="#E4002B" stroke-width="3" d="M521.5 137.5h147v72h-147z"/><path d="M943.262 31.368l4.296-3.216h1.992V45h-2.76V32.088l-2.064 1.56-1.464-2.28zm22.793 9.792l1.128 2.208c-.528.56-1.288 1.016-2.28 1.368a9.055 9.055 0 01-3.096.528c-2.576 0-4.664-.792-6.264-2.376-1.6-1.584-2.4-3.68-2.4-6.288 0-2.512.76-4.584 2.28-6.216 1.52-1.632 3.624-2.448 6.312-2.448 2.16 0 3.864.568 5.112 1.704l-1.32 2.184c-1.136-.752-2.4-1.128-3.792-1.128-1.584 0-2.896.536-3.936 1.608-1.024 1.072-1.536 2.504-1.536 4.296 0 1.744.536 3.168 1.608 4.272 1.088 1.088 2.488 1.632 4.2 1.632 1.488 0 2.816-.448 3.984-1.344zm3.081-1.44v-2.568h6.048v2.568h-6.048zM989.44 45V30.96h-7.488V45H979V28.2h13.392V45h-2.952zm6.815 4.8V34.2h2.76v1.032c.352-.368.824-.672 1.415-.912a4.912 4.912 0 011.92-.384c1.47 0 2.66.512 3.55 1.536.9 1.024 1.35 2.344 1.35 3.96 0 1.68-.53 3.072-1.59 4.176-1.05 1.104-2.43 1.656-4.13 1.656-1.07 0-1.907-.176-2.515-.528V49.8h-2.76zm5.235-13.272c-.95 0-1.771.392-2.475 1.176v4.368c.64.416 1.395.624 2.275.624.93 0 1.67-.296 2.21-.888.55-.608.82-1.376.82-2.304 0-.88-.25-1.592-.75-2.136-.49-.56-1.19-.84-2.08-.84zm16.62 5.448l.79 1.944c-1.05.896-2.43 1.344-4.13 1.344-1.74 0-3.15-.52-4.22-1.56-1.06-1.04-1.58-2.408-1.58-4.104 0-1.616.52-2.96 1.56-4.032 1.04-1.088 2.42-1.632 4.15-1.632 1.42 0 2.63.472 3.62 1.416.99.928 1.49 2.128 1.49 3.6 0 .608-.06 1.104-.17 1.488h-7.8c.11.8.47 1.424 1.06 1.872.59.432 1.32.648 2.18.648 1.22 0 2.23-.328 3.05-.984zm-3.55-5.736c-1.57 0-2.51.784-2.83 2.352h5.3c.02-.672-.2-1.232-.65-1.68-.45-.448-1.05-.672-1.82-.672zm5.81 11.28v-5.088h1.36c.85-1.12 1.36-3 1.52-5.64l.16-2.592h7.97v8.232h1.8v5.088h-2.59V45h-7.66v2.52h-2.56zm5.54-9.624c-.19 2.096-.62 3.608-1.3 4.536h4.01v-5.64h-2.64l-.07 1.104zM1042.36 45v-8.208h-4.6V45H1035V34.2h10.12V45h-2.76zm5.83 4.8V34.2h2.76v1.032c.35-.368.83-.672 1.42-.912a4.912 4.912 0 011.92-.384c1.47 0 2.65.512 3.55 1.536.9 1.024 1.34 2.344 1.34 3.96 0 1.68-.52 3.072-1.58 4.176s-2.43 1.656-4.13 1.656c-1.07 0-1.91-.176-2.52-.528V49.8h-2.76zm5.23-13.272c-.94 0-1.76.392-2.47 1.176v4.368c.64.416 1.4.624 2.28.624.93 0 1.67-.296 2.21-.888.54-.608.82-1.376.82-2.304 0-.88-.25-1.592-.75-2.136-.49-.56-1.19-.84-2.09-.84zM1064.34 45h-2.76V34.2h2.76v6.84l5.04-6.84h2.76V45h-2.76v-6.84l-5.04 6.84zm16.16-10.8h3.52V45h-2.76v-3.24h-1.53L1077.5 45h-3.17l2.88-3.84c-.55-.192-1.03-.552-1.47-1.08-.41-.544-.62-1.224-.62-2.04 0-1.136.43-2.056 1.3-2.76.88-.72 2.24-1.08 4.08-1.08zm-2.43 4.032c0 .432.18.792.53 1.08.37.272.78.408 1.22.408h1.44V36.6h-1.22c-.62 0-1.11.16-1.46.48-.34.32-.51.704-.51 1.152zm7.9-1.272V34.2h9.84v2.76h-3.53V45h-2.76v-8.04h-3.55zm14.58 8.04h-2.76V34.2h2.76v6.84l5.04-6.84h2.76V45h-2.76v-6.84l-5.04 6.84zm19.35-3.024l.79 1.944c-1.06.896-2.43 1.344-4.13 1.344-1.74 0-3.15-.52-4.22-1.56-1.06-1.04-1.59-2.408-1.59-4.104 0-1.616.52-2.96 1.56-4.032 1.04-1.088 2.43-1.632 4.16-1.632 1.42 0 2.63.472 3.62 1.416.99.928 1.49 2.128 1.49 3.6 0 .608-.06 1.104-.17 1.488h-7.8c.11.8.46 1.424 1.06 1.872.59.432 1.32.648 2.18.648 1.22 0 2.23-.328 3.05-.984zm-3.55-5.736c-1.57 0-2.52.784-2.84 2.352h5.31c.01-.672-.2-1.232-.65-1.68-.45-.448-1.06-.672-1.82-.672z" fill="#fff"/><path stroke="#E4002B" stroke-width="3" d="M902.5 2.5h260v72h-260z"/><path d="M945.202 183v-5.76h1.8c.496-.608 1.016-1.848 1.56-3.72.56-1.888.904-4.208 1.032-6.96l.168-3.36h10.416v14.04h2.28V183h-2.76v-3h-11.736v3h-2.76zm7.152-14.112c-.144 1.968-.44 3.736-.888 5.304s-.856 2.584-1.224 3.048h7.008v-11.28h-4.632l-.264 2.928zm20.31 8.088l.792 1.944c-1.056.896-2.432 1.344-4.128 1.344-1.744 0-3.152-.52-4.224-1.56-1.056-1.04-1.584-2.408-1.584-4.104 0-1.616.52-2.96 1.56-4.032 1.04-1.088 2.424-1.632 4.152-1.632 1.424 0 2.632.472 3.624 1.416.992.928 1.488 2.128 1.488 3.6 0 .608-.056 1.104-.168 1.488h-7.8c.112.8.464 1.424 1.056 1.872.592.432 1.32.648 2.184.648 1.216 0 2.232-.328 3.048-.984zm-3.552-5.736c-1.568 0-2.512.784-2.832 2.352h5.304c.016-.672-.2-1.232-.648-1.68-.448-.448-1.056-.672-1.824-.672zm15.569 5.136l1.296 2.016c-.448.608-1.056 1.072-1.824 1.392-.752.32-1.576.48-2.472.48-1.76 0-3.176-.52-4.248-1.56s-1.608-2.408-1.608-4.104c0-1.6.528-2.944 1.584-4.032s2.392-1.632 4.008-1.632c1.92 0 3.368.488 4.344 1.464l-1.296 2.184c-.72-.704-1.616-1.056-2.688-1.056-.8 0-1.504.288-2.112.864-.592.56-.888 1.296-.888 2.208 0 .928.304 1.68.912 2.256.624.56 1.36.84 2.208.84 1.056 0 1.984-.44 2.784-1.32zm13.735-7.176l-4.152 5.136L998.92 180h-3.6l-4.272-5.448 3.888-5.352h3.48zM988.192 180v-10.8h2.76V180h-2.76zm11.224-8.04v-2.76h9.844v2.76h-3.53V180h-2.76v-8.04h-3.554zm12.424 6.72c-1.07-1.072-1.61-2.432-1.61-4.08 0-1.648.54-3 1.61-4.056 1.09-1.072 2.51-1.608 4.27-1.608 1.76 0 3.18.536 4.25 1.608 1.09 1.056 1.63 2.408 1.63 4.056 0 1.648-.54 3.008-1.63 4.08-1.07 1.056-2.49 1.584-4.25 1.584-1.76 0-3.18-.528-4.27-1.584zm1.34-4.08c0 .896.28 1.64.82 2.232.56.576 1.26.864 2.11.864.87 0 1.57-.28 2.11-.84.56-.576.84-1.328.84-2.256 0-.896-.28-1.632-.84-2.208-.56-.576-1.26-.864-2.11-.864-.83 0-1.53.288-2.09.864-.56.56-.84 1.296-.84 2.208zm18.57 5.4v-8.208h-4.61V180h-2.76v-10.8h10.13V180h-2.76zm5.78-5.28v-2.568h6.05v2.568h-6.05zm9.07 5.28v-10.8c.19 0 .54-.008 1.05-.024a52.694 52.694 0 013.2-.096c3.26 0 4.89.944 4.89 2.832 0 .624-.2 1.16-.6 1.608-.38.448-.85.712-1.41.792v.048c1.53.368 2.3 1.2 2.3 2.496 0 2.176-1.71 3.264-5.14 3.264a55.3 55.3 0 01-2.28-.072 86.893 86.893 0 00-2.01-.048zm4.49-4.584h-1.73v2.4c1.09.064 1.69.096 1.82.096.61 0 1.08-.112 1.42-.336.35-.224.53-.528.53-.912 0-.832-.68-1.248-2.04-1.248zm0-4.104c-.77 0-1.35.016-1.73.048v2.376h1.8c.48 0 .87-.104 1.17-.312.32-.224.48-.536.48-.936 0-.784-.57-1.176-1.72-1.176zm16.03 5.664l.79 1.944c-1.06.896-2.43 1.344-4.13 1.344-1.74 0-3.15-.52-4.22-1.56-1.06-1.04-1.59-2.408-1.59-4.104 0-1.616.52-2.96 1.56-4.032 1.04-1.088 2.43-1.632 4.16-1.632 1.42 0 2.63.472 3.62 1.416.99.928 1.49 2.128 1.49 3.6 0 .608-.06 1.104-.17 1.488h-7.8c.11.8.46 1.424 1.06 1.872.59.432 1.32.648 2.18.648 1.22 0 2.23-.328 3.05-.984zm-3.55-5.736c-1.57 0-2.52.784-2.84 2.352h5.31c.01-.672-.2-1.232-.65-1.68-.45-.448-1.06-.672-1.82-.672zm7.45 13.56v-15.6h2.76v1.032c.35-.368.82-.672 1.42-.912a4.84 4.84 0 011.92-.384c1.47 0 2.65.512 3.55 1.536.89 1.024 1.34 2.344 1.34 3.96 0 1.68-.53 3.072-1.58 4.176-1.06 1.104-2.43 1.656-4.13 1.656-1.07 0-1.91-.176-2.52-.528v5.064h-2.76zm5.23-13.272c-.94 0-1.77.392-2.47 1.176v4.368c.64.416 1.4.624 2.28.624.93 0 1.66-.296 2.21-.888.54-.608.81-1.376.81-2.304 0-.88-.24-1.592-.74-2.136-.5-.56-1.19-.84-2.09-.84zm16.34 4.848l1.29 2.016c-.44.608-1.05 1.072-1.82 1.392-.75.32-1.58.48-2.47.48-1.76 0-3.18-.52-4.25-1.56-1.07-1.04-1.61-2.408-1.61-4.104 0-1.6.53-2.944 1.59-4.032 1.05-1.088 2.39-1.632 4-1.632 1.92 0 3.37.488 4.35 1.464l-1.3 2.184c-.72-.704-1.61-1.056-2.69-1.056-.8 0-1.5.288-2.11.864-.59.56-.89 1.296-.89 2.208 0 .928.31 1.68.92 2.256.62.56 1.36.84 2.2.84 1.06 0 1.99-.44 2.79-1.32zm6.27 3.624h-2.76v-10.8h2.76v6.84l5.04-6.84h2.76V180h-2.76v-6.84l-5.04 6.84zm16.16-10.8h3.53V180h-2.76v-3.24h-1.54l-2.23 3.24h-3.17l2.88-3.84c-.54-.192-1.03-.552-1.46-1.08-.42-.544-.63-1.224-.63-2.04 0-1.136.44-2.056 1.3-2.76.88-.72 2.24-1.08 4.08-1.08zm-2.42 4.032c0 .432.17.792.52 1.08.37.272.78.408 1.23.408h1.44v-3.12h-1.23c-.62 0-1.11.16-1.46.48-.34.32-.5.704-.5 1.152z" fill="#fff"/><path stroke="#E4002B" stroke-width="3" d="M902.5 137.5h260v72h-260z"/><path d="M933.601 315v-16.8h2.976l5.736 7.848 5.472-7.848h2.784V315h-2.928v-12.144l-5.304 7.464h-.432l-5.352-7.392V315h-2.952zm21.777-1.32c-1.072-1.072-1.608-2.432-1.608-4.08 0-1.648.536-3 1.608-4.056 1.088-1.072 2.512-1.608 4.272-1.608 1.76 0 3.176.536 4.248 1.608 1.088 1.056 1.632 2.408 1.632 4.056 0 1.648-.544 3.008-1.632 4.08-1.072 1.056-2.488 1.584-4.248 1.584-1.76 0-3.184-.528-4.272-1.584zm1.344-4.08c0 .896.272 1.64.816 2.232.56.576 1.264.864 2.112.864.864 0 1.568-.28 2.112-.84.56-.576.84-1.328.84-2.256 0-.896-.28-1.632-.84-2.208-.56-.576-1.264-.864-2.112-.864-.832 0-1.528.288-2.088.864-.56.56-.84 1.296-.84 2.208zm19.309-11.664l1.44 2.256c-.416.496-.896.848-1.44 1.056-.544.192-1.184.368-1.92.528-.72.144-1.344.344-1.872.6-1.344.624-2.12 1.968-2.328 4.032h.048c.336-.592.856-1.072 1.56-1.44a4.594 4.594 0 012.232-.576c1.488 0 2.68.48 3.576 1.44.896.96 1.344 2.248 1.344 3.864 0 1.552-.528 2.872-1.584 3.96-1.056 1.072-2.416 1.608-4.08 1.608-1.808 0-3.24-.616-4.296-1.848-1.04-1.232-1.56-2.896-1.56-4.992 0-4.624 1.36-7.52 4.08-8.688a9.38 9.38 0 011.968-.576c.704-.144 1.264-.288 1.68-.432a2.628 2.628 0 001.152-.792zM970.103 309c.016 1.072.28 1.96.792 2.664.512.688 1.192 1.032 2.04 1.032.848 0 1.52-.272 2.016-.816.512-.56.768-1.248.768-2.064 0-.832-.232-1.512-.696-2.04-.464-.544-1.12-.816-1.968-.816-.736 0-1.368.192-1.896.576a2.92 2.92 0 00-1.056 1.464zm13.724 6h-2.76v-10.8h2.76v6.84l5.04-6.84h2.76V315h-2.76v-6.84l-5.04 6.84zm17.983 0v-8.04h-2.854l-.072 1.152c-.176 1.936-.472 3.424-.888 4.464-.4 1.04-.912 1.744-1.536 2.112-.608.352-1.424.528-2.448.528l-.24-2.688a1.4 1.4 0 00.984-.288c.32-.24.624-.752.912-1.536.288-.8.472-1.848.552-3.144l.168-3.36h8.182V315h-2.76zm5.84 0v-10.8h2.76v2.952h1.48c1.7 0 2.92.352 3.65 1.056.74.704 1.11 1.6 1.11 2.688 0 1.168-.4 2.144-1.2 2.928-.8.784-2.06 1.176-3.77 1.176h-4.03zm4-5.64h-1.24v3.24h1.22c1.39 0 2.09-.536 2.09-1.608 0-1.088-.69-1.632-2.07-1.632zm14.69 5.64v-4.128h-4.73V315h-2.76v-10.8h2.76v4.08h4.73v-4.08h2.76V315h-2.76zm6.66-8.016l-.69-2.016a7.358 7.358 0 013.81-1.032c1.54 0 2.64.376 3.31 1.128.68.752 1.01 1.872 1.01 3.36V315h-2.4v-1.248c-.65.928-1.72 1.392-3.19 1.392-1.01 0-1.82-.296-2.45-.888-.62-.592-.93-1.4-.93-2.424 0-1.136.36-2 1.1-2.592.74-.608 1.68-.912 2.83-.912.99 0 1.81.232 2.45.696.03-.944-.1-1.64-.41-2.088-.3-.464-.84-.696-1.61-.696-.8 0-1.74.248-2.83.744zm2.76 5.832c.93 0 1.63-.328 2.09-.984v-1.104c-.46-.352-1.1-.528-1.9-.528-.49 0-.91.12-1.24.36-.32.224-.48.552-.48.984 0 .4.14.712.43.936.29.224.65.336 1.1.336zm12.79-8.616h3.53V315h-2.76v-3.24h-1.54l-2.23 3.24h-3.17l2.88-3.84c-.54-.192-1.03-.552-1.46-1.08-.42-.544-.63-1.224-.63-2.04 0-1.136.44-2.056 1.3-2.76.88-.72 2.24-1.08 4.08-1.08zm-2.42 4.032c0 .432.17.792.52 1.08.37.272.78.408 1.23.408h1.44v-3.12h-1.23c-.62 0-1.11.16-1.46.48-.34.32-.5.704-.5 1.152zm14.11 6.768v-10.8c.19 0 .54-.008 1.06-.024a55.806 55.806 0 013.19-.096c3.26 0 4.89.944 4.89 2.832 0 .624-.2 1.16-.6 1.608-.38.448-.85.712-1.41.792v.048c1.53.368 2.3 1.2 2.3 2.496 0 2.176-1.71 3.264-5.13 3.264a55.3 55.3 0 01-2.28-.072 87.298 87.298 0 00-2.02-.048zm4.49-4.584H1063v2.4c1.09.064 1.7.096 1.82.096.61 0 1.08-.112 1.42-.336.35-.224.53-.528.53-.912 0-.832-.68-1.248-2.04-1.248zm0-4.104c-.77 0-1.35.016-1.73.048v2.376h1.8c.48 0 .87-.104 1.18-.312.32-.224.48-.536.48-.936 0-.784-.58-1.176-1.73-1.176zm16.03 5.664l.79 1.944c-1.06.896-2.43 1.344-4.13 1.344-1.74 0-3.15-.52-4.22-1.56-1.06-1.04-1.59-2.408-1.59-4.104 0-1.616.52-2.96 1.56-4.032 1.04-1.088 2.43-1.632 4.16-1.632 1.42 0 2.63.472 3.62 1.416.99.928 1.49 2.128 1.49 3.6 0 .608-.06 1.104-.17 1.488h-7.8c.11.8.46 1.424 1.06 1.872.59.432 1.32.648 2.18.648 1.22 0 2.23-.328 3.05-.984zm-3.55-5.736c-1.57 0-2.52.784-2.84 2.352h5.31c.01-.672-.2-1.232-.65-1.68-.45-.448-1.06-.672-1.82-.672zm7.45 13.56v-15.6h2.76v1.032c.35-.368.83-.672 1.42-.912a4.912 4.912 0 011.92-.384c1.47 0 2.65.512 3.55 1.536.9 1.024 1.34 2.344 1.34 3.96 0 1.68-.52 3.072-1.58 4.176s-2.43 1.656-4.13 1.656c-1.07 0-1.91-.176-2.52-.528v5.064h-2.76zm5.23-13.272c-.94 0-1.76.392-2.47 1.176v4.368c.64.416 1.4.624 2.28.624.93 0 1.67-.296 2.21-.888.54-.608.82-1.376.82-2.304 0-.88-.25-1.592-.75-2.136-.49-.56-1.19-.84-2.09-.84zm16.34 4.848l1.29 2.016c-.44.608-1.05 1.072-1.82 1.392-.75.32-1.58.48-2.47.48-1.76 0-3.18-.52-4.25-1.56-1.07-1.04-1.61-2.408-1.61-4.104 0-1.6.53-2.944 1.59-4.032 1.05-1.088 2.39-1.632 4-1.632 1.92 0 3.37.488 4.35 1.464l-1.3 2.184c-.72-.704-1.61-1.056-2.69-1.056-.8 0-1.5.288-2.11.864-.59.56-.89 1.296-.89 2.208 0 .928.31 1.68.92 2.256.62.56 1.36.84 2.2.84 1.06 0 1.99-.44 2.79-1.32zm6.27 3.624h-2.76v-10.8h2.76v6.84l5.04-6.84h2.76V315h-2.76v-6.84l-5.04 6.84zm16.16-10.8h3.53V315h-2.76v-3.24h-1.54l-2.23 3.24h-3.17l2.88-3.84c-.54-.192-1.03-.552-1.46-1.08-.42-.544-.63-1.224-.63-2.04 0-1.136.44-2.056 1.3-2.76.88-.72 2.24-1.08 4.08-1.08zm-2.42 4.032c0 .432.17.792.52 1.08.37.272.78.408 1.23.408h1.44v-3.12h-1.23c-.62 0-1.11.16-1.46.48-.34.32-.5.704-.5 1.152z" fill="#fff"/><path stroke="#E4002B" stroke-width="3" d="M902.5 272.5h260v72h-260z"/><path d="M579.99 310.536c0-.448-.144-.84-.432-1.176a3.32 3.32 0 00-1.08-.888 12.897 12.897 0 00-1.488-.72 29.757 29.757 0 01-1.608-.792 11.42 11.42 0 01-1.488-.984 4.274 4.274 0 01-1.104-1.416c-.272-.592-.408-1.256-.408-1.992 0-1.312.472-2.408 1.416-3.288.96-.896 2.232-1.344 3.816-1.344 2.112 0 3.712.6 4.8 1.8l-1.584 2.208c-.864-.832-1.856-1.248-2.976-1.248-.72 0-1.296.168-1.728.504-.416.336-.624.784-.624 1.344 0 .544.184 1.016.552 1.416.384.4.856.72 1.416.96.56.224 1.168.496 1.824.816.672.32 1.288.656 1.848 1.008.56.336 1.024.832 1.392 1.488.384.64.576 1.4.576 2.28 0 1.392-.536 2.536-1.608 3.432-1.072.88-2.408 1.32-4.008 1.32a8.315 8.315 0 01-3.336-.696c-1.056-.48-1.776-1.128-2.16-1.944l1.68-2.016a4.735 4.735 0 001.752 1.416c.72.32 1.424.48 2.112.48.72 0 1.304-.168 1.752-.504.464-.352.696-.84.696-1.464zm6.522 4.464v-16.8h2.976l5.736 7.848 5.472-7.848h2.784V315h-2.928v-12.144l-5.304 7.464h-.432l-5.352-7.392V315h-2.952zm28.376-4.464c0-.448-.144-.84-.432-1.176a3.32 3.32 0 00-1.08-.888 12.897 12.897 0 00-1.488-.72 29.757 29.757 0 01-1.608-.792 11.42 11.42 0 01-1.488-.984 4.274 4.274 0 01-1.104-1.416c-.272-.592-.408-1.256-.408-1.992 0-1.312.472-2.408 1.416-3.288.96-.896 2.232-1.344 3.816-1.344 2.112 0 3.712.6 4.8 1.8l-1.584 2.208c-.864-.832-1.856-1.248-2.976-1.248-.72 0-1.296.168-1.728.504-.416.336-.624.784-.624 1.344 0 .544.184 1.016.552 1.416.384.4.856.72 1.416.96.56.224 1.168.496 1.824.816.672.32 1.288.656 1.848 1.008.56.336 1.024.832 1.392 1.488.384.64.576 1.4.576 2.28 0 1.392-.536 2.536-1.608 3.432-1.072.88-2.408 1.32-4.008 1.32a8.315 8.315 0 01-3.336-.696c-1.056-.48-1.776-1.128-2.16-1.944l1.68-2.016a4.735 4.735 0 001.752 1.416c.72.32 1.424.48 2.112.48.72 0 1.304-.168 1.752-.504.464-.352.696-.84.696-1.464z" fill="#fff"/><path stroke="#E4002B" stroke-width="3" d="M521.5 272.5h147v72h-147z"/><path d="M595 261l5.774-10h-11.548L595 261zm-1-40v31h2v-31h-2zm-84-50l-10-5.774v11.548L510 171zm-211 1h202v-2H299v2zm592-1l-10-5.774v11.548L891 171zm-145.5 1H882v-2H745.5v2zm-159-46l5.773-10h-11.546l5.773 10zM299 60.5h262.5v-2H299v2zm286.5 24V117h2V84.5h-2zm-24-24c13.255 0 24 10.745 24 24h2c0-14.36-11.641-26-26-26v2z" fill="#C5CDCF"/><path d="M891 39l-10-5.773v11.547L891 39zM682 172h77v-2h-77v2zm98-21V59h-2v92h2zm19-111h83v-2h-83v2zm-19 19c0-10.493 8.507-19 19-19v-2c-11.598 0-21 9.402-21 21h2zm-21 113c11.598 0 21-9.402 21-21h-2c0 10.493-8.507 19-19 19v2z" fill="#C5CDCF"/><path d="M891 302l-10 5.774v-11.548L891 302zM682 170h77v2h-77v-2zm98 21v91h-2v-91h2zm19 110h83v2h-83v-2zm-19-19c0 10.493 8.507 19 19 19v2c-11.598 0-21-9.402-21-21h2zm-21-112c11.598 0 21 9.402 21 21h-2c0-10.493-8.507-19-19-19v-2zM299 42l10 5.773V36.227L299 42zm9 1h126v-2H308v2z" fill="#C5CDCF"/><path d="M318.86 81.5l-.28-.86a5.319 5.319 0 012.86-.82c1.2 0 2.053.3 2.56.9.52.6.78 1.5.78 2.7V89h-1.04v-1.38c-.733 1-1.76 1.5-3.08 1.5-.84 0-1.513-.24-2.02-.72-.507-.493-.76-1.147-.76-1.96 0-.88.32-1.567.96-2.06.64-.493 1.46-.74 2.46-.74s1.813.227 2.44.68c0-.507-.013-.907-.04-1.2a4.207 4.207 0 00-.16-.94c-.08-.347-.2-.607-.36-.78-.16-.173-.393-.313-.7-.42-.293-.12-.66-.18-1.1-.18-.827 0-1.667.233-2.52.7zm2.12 6.64c1.12 0 2.04-.473 2.76-1.42v-1.5c-.653-.48-1.433-.72-2.34-.72-.653 0-1.22.16-1.7.48-.48.32-.72.787-.72 1.4 0 .547.187.98.56 1.3.387.307.867.46 1.44.46zm6.78 4.86V80h1.04v1.2c.346-.4.82-.727 1.42-.98a4.67 4.67 0 011.88-.4c1.28 0 2.3.42 3.06 1.26.76.84 1.14 1.933 1.14 3.28 0 1.387-.427 2.54-1.28 3.46-.854.907-1.967 1.36-3.34 1.36-1.227 0-2.187-.253-2.88-.76V93h-1.04zm4.06-12.2c-.6 0-1.18.14-1.74.42-.547.267-.974.593-1.28.98v5.18c.826.547 1.76.82 2.8.82 1.08 0 1.946-.353 2.6-1.06.666-.707 1-1.613 1-2.72 0-1.093-.3-1.967-.9-2.62-.587-.667-1.414-1-2.48-1zm7.514 8.2v-9h1.04v9h-1.04zm-.18-12.5c0-.2.073-.36.22-.48.147-.12.32-.18.52-.18.173 0 .327.067.46.2.147.12.22.273.22.46 0 .227-.067.407-.2.54a.654.654 0 01-.48.2.775.775 0 01-.54-.2c-.133-.133-.2-.313-.2-.54zm8.745 7.56v-.98h4.58v.98h-4.58zm14.379 5.12c-.64 0-1.32-.113-2.04-.34-.72-.227-1.22-.513-1.5-.86l.54-.8c.36.333.807.587 1.34.76.533.173 1.033.26 1.5.26.84 0 1.513-.16 2.02-.48.507-.333.76-.787.76-1.36a1.28 1.28 0 00-.56-1.1c-.373-.267-.88-.4-1.52-.4h-1.52V84h1.42c.507 0 .94-.16 1.3-.48.36-.32.54-.707.54-1.16 0-.507-.207-.893-.62-1.16-.4-.267-.953-.4-1.66-.4a4.318 4.318 0 00-2.82 1l-.42-.8c.76-.787 1.887-1.18 3.38-1.18 1.04 0 1.84.213 2.4.64.56.413.84.987.84 1.72 0 1.053-.54 1.773-1.62 2.16v.04c.627.053 1.107.287 1.44.7.347.4.52.873.52 1.42 0 .827-.347 1.48-1.04 1.96-.68.48-1.573.72-2.68.72zm6.66-7.68l-.28-.86a5.319 5.319 0 012.86-.82c1.2 0 2.053.3 2.56.9.52.6.78 1.5.78 2.7V89h-1.04v-1.38c-.733 1-1.76 1.5-3.08 1.5-.84 0-1.513-.24-2.02-.72-.507-.493-.76-1.147-.76-1.96 0-.88.32-1.567.96-2.06.64-.493 1.46-.74 2.46-.74s1.813.227 2.44.68c0-.507-.013-.907-.04-1.2a4.207 4.207 0 00-.16-.94c-.08-.347-.2-.607-.36-.78-.16-.173-.393-.313-.7-.42-.293-.12-.66-.18-1.1-.18-.827 0-1.667.233-2.52.7zm2.12 6.64c1.12 0 2.04-.473 2.76-1.42v-1.5c-.653-.48-1.433-.72-2.34-.72-.653 0-1.22.16-1.7.48-.48.32-.72.787-.72 1.4 0 .547.187.98.56 1.3.387.307.867.46 1.44.46zm14.12-8.14l-4.44 4.3 4.8 4.7h-1.4l-4.66-4.64 4.36-4.36h1.34zm-7.34 9v-9h1.04v9h-1.04zm9.967-7.5l-.28-.86a5.321 5.321 0 012.86-.82c1.2 0 2.054.3 2.56.9.52.6.78 1.5.78 2.7V89h-1.04v-1.38c-.733 1-1.76 1.5-3.08 1.5-.84 0-1.513-.24-2.02-.72-.506-.493-.76-1.147-.76-1.96 0-.88.32-1.567.96-2.06.64-.493 1.46-.74 2.46-.74s1.814.227 2.44.68c0-.507-.013-.907-.04-1.2a4.15 4.15 0 00-.16-.94c-.08-.347-.2-.607-.36-.78-.16-.173-.393-.313-.7-.42-.293-.12-.66-.18-1.1-.18-.826 0-1.666.233-2.52.7zm2.12 6.64c1.12 0 2.04-.473 2.76-1.42v-1.5c-.653-.48-1.433-.72-2.34-.72-.653 0-1.22.16-1.7.48-.48.32-.72.787-.72 1.4 0 .547.187.98.56 1.3.387.307.867.46 1.44.46zm9.56 1.04c-.64 0-1.32-.113-2.04-.34-.72-.227-1.22-.513-1.5-.86l.54-.8c.36.333.807.587 1.34.76.533.173 1.033.26 1.5.26.84 0 1.513-.16 2.02-.48.507-.333.76-.787.76-1.36a1.28 1.28 0 00-.56-1.1c-.373-.267-.88-.4-1.52-.4h-1.52V84h1.42c.507 0 .94-.16 1.3-.48.36-.32.54-.707.54-1.16 0-.507-.207-.893-.62-1.16-.4-.267-.953-.4-1.66-.4a4.318 4.318 0 00-2.82 1l-.42-.8c.76-.787 1.887-1.18 3.38-1.18 1.04 0 1.84.213 2.4.64.56.413.84.987.84 1.72 0 1.053-.54 1.773-1.62 2.16v.04c.627.053 1.107.287 1.44.7.347.4.52.873.52 1.42 0 .827-.347 1.48-1.04 1.96-.68.48-1.573.72-2.68.72zm6.38-.18v-9h1.04v3.02h1.56c2.373 0 3.56.987 3.56 2.96 0 .88-.287 1.607-.86 2.18-.573.56-1.513.84-2.82.84h-2.48zm2.42-5h-1.38v4.02h1.36c.96 0 1.64-.167 2.04-.5.413-.347.62-.853.62-1.52 0-1.333-.88-2-2.64-2zm5.8 5v-9h1.04v9h-1.04zM318.86 19.5l-.28-.86a5.319 5.319 0 012.86-.82c1.2 0 2.053.3 2.56.9.52.6.78 1.5.78 2.7V27h-1.04v-1.38c-.733 1-1.76 1.5-3.08 1.5-.84 0-1.513-.24-2.02-.72-.507-.493-.76-1.147-.76-1.96 0-.88.32-1.567.96-2.06.64-.493 1.46-.74 2.46-.74s1.813.227 2.44.68c0-.507-.013-.907-.04-1.2a4.207 4.207 0 00-.16-.94c-.08-.347-.2-.607-.36-.78-.16-.173-.393-.313-.7-.42-.293-.12-.66-.18-1.1-.18-.827 0-1.667.233-2.52.7zm2.12 6.64c1.12 0 2.04-.473 2.76-1.42v-1.5c-.653-.48-1.433-.72-2.34-.72-.653 0-1.22.16-1.7.48-.48.32-.72.787-.72 1.4 0 .547.187.98.56 1.3.387.307.867.46 1.44.46zm6.78 4.86V18h1.04v1.2c.346-.4.82-.727 1.42-.98a4.67 4.67 0 011.88-.4c1.28 0 2.3.42 3.06 1.26.76.84 1.14 1.933 1.14 3.28 0 1.387-.427 2.54-1.28 3.46-.854.907-1.967 1.36-3.34 1.36-1.227 0-2.187-.253-2.88-.76V31h-1.04zm4.06-12.2c-.6 0-1.18.14-1.74.42-.547.267-.974.593-1.28.98v5.18c.826.547 1.76.82 2.8.82 1.08 0 1.946-.353 2.6-1.06.666-.707 1-1.613 1-2.72 0-1.093-.3-1.967-.9-2.62-.587-.667-1.414-1-2.48-1zm7.514 8.2v-9h1.04v9h-1.04zm-.18-12.5c0-.2.073-.36.22-.48.147-.12.32-.18.52-.18.173 0 .327.067.46.2.147.12.22.273.22.46 0 .227-.067.407-.2.54a.654.654 0 01-.48.2.775.775 0 01-.54-.2c-.133-.133-.2-.313-.2-.54zm8.745 7.56v-.98h4.58v.98h-4.58zm18.599 2.9l.52.76c-.373.467-.867.827-1.48 1.08-.6.253-1.24.38-1.92.38-1.4 0-2.547-.427-3.44-1.28-.88-.853-1.32-1.987-1.32-3.4 0-1.32.427-2.427 1.28-3.32.853-.907 1.92-1.36 3.2-1.36 1.547 0 2.713.373 3.5 1.12l-.5.84c-.72-.653-1.667-.98-2.84-.98-.973 0-1.807.353-2.5 1.06-.693.707-1.04 1.587-1.04 2.64 0 1.12.353 2.02 1.06 2.7.707.667 1.6 1 2.68 1 1.16 0 2.093-.413 2.8-1.24zm1.407-5.92V18h8.2v1.04h-3.58V27h-1.04v-7.96h-3.58zm10.31.46l-.28-.86a5.321 5.321 0 012.86-.82c1.2 0 2.054.3 2.56.9.52.6.78 1.5.78 2.7V27h-1.04v-1.38c-.733 1-1.76 1.5-3.08 1.5-.84 0-1.513-.24-2.02-.72-.506-.493-.76-1.147-.76-1.96 0-.88.32-1.567.96-2.06.64-.493 1.46-.74 2.46-.74s1.814.227 2.44.68c0-.507-.013-.907-.04-1.2a4.15 4.15 0 00-.16-.94c-.08-.347-.2-.607-.36-.78-.16-.173-.393-.313-.7-.42-.293-.12-.66-.18-1.1-.18-.826 0-1.666.233-2.52.7zm2.12 6.64c1.12 0 2.04-.473 2.76-1.42v-1.5c-.653-.48-1.433-.72-2.34-.72-.653 0-1.22.16-1.7.48-.48.32-.72.787-.72 1.4 0 .547.187.98.56 1.3.387.307.867.46 1.44.46zm5.46-7.1V18h8.2v1.04h-3.58V27h-1.04v-7.96h-3.58zM403.918 18l-3.64 9c-.64 1.56-1.207 2.613-1.7 3.16-.48.56-1.04.84-1.68.84-.507 0-1.02-.153-1.54-.46l.34-.8c.427.2.78.3 1.06.3.453 0 .86-.2 1.22-.6.36-.387.733-1.04 1.12-1.96l.2-.48-4.44-9h1.24l3.08 6.36.64 1.4c.067-.227.233-.707.5-1.44l2.42-6.32h1.18zm8.517 6.96l.52.76c-.373.467-.866.827-1.48 1.08-.6.253-1.24.38-1.92.38-1.4 0-2.546-.427-3.44-1.28-.88-.853-1.32-1.987-1.32-3.4 0-1.32.427-2.427 1.28-3.32.854-.907 1.92-1.36 3.2-1.36 1.547 0 2.714.373 3.5 1.12l-.5.84c-.72-.653-1.666-.98-2.84-.98-.973 0-1.806.353-2.5 1.06-.693.707-1.04 1.587-1.04 2.64 0 1.12.354 2.02 1.06 2.7.707.667 1.6 1 2.68 1 1.16 0 2.094-.413 2.8-1.24zM415.24 27v-9h1.04v3.02h1.56c2.373 0 3.56.987 3.56 2.96 0 .88-.287 1.607-.86 2.18-.573.56-1.513.84-2.82.84h-2.48zm2.42-5h-1.38v4.02h1.36c.96 0 1.64-.167 2.04-.5.413-.347.62-.853.62-1.52 0-1.333-.88-2-2.64-2zm5.8 5v-9h1.04v9h-1.04zm-97.88 122.96l.52.76c-.373.467-.867.827-1.48 1.08-.6.253-1.24.38-1.92.38-1.4 0-2.547-.427-3.44-1.28-.88-.853-1.32-1.987-1.32-3.4 0-1.32.427-2.427 1.28-3.32.853-.907 1.92-1.36 3.2-1.36 1.547 0 2.713.373 3.5 1.12l-.5.84c-.72-.653-1.667-.98-2.84-.98-.973 0-1.807.353-2.5 1.06-.693.707-1.04 1.587-1.04 2.64 0 1.12.353 2.02 1.06 2.7.707.667 1.6 1 2.68 1 1.16 0 2.093-.413 2.8-1.24zm7.465-.32c0-.413-.174-.747-.52-1-.334-.253-.747-.453-1.24-.6-.48-.147-.967-.307-1.46-.48a3.167 3.167 0 01-1.26-.86c-.334-.387-.5-.887-.5-1.5 0-.72.266-1.293.8-1.72.533-.44 1.233-.66 2.1-.66 1.24 0 2.18.333 2.82 1l-.44.78c-.614-.573-1.4-.86-2.36-.86-.547 0-.987.14-1.32.42-.334.28-.5.62-.5 1.02 0 .44.166.793.5 1.06.346.267.76.48 1.24.64.493.147.986.307 1.48.48.493.173.906.447 1.24.82.346.36.52.833.52 1.42 0 .84-.314 1.48-.94 1.92-.614.44-1.38.66-2.3.66a4.573 4.573 0 01-1.84-.4c-.614-.267-1.027-.567-1.24-.9l.58-.68c.24.307.62.56 1.14.76.52.2 1.013.3 1.48.3.56 0 1.033-.14 1.42-.42.4-.28.6-.68.6-1.2zm11.339-6.64l-4.06 9.12h-.72l-4.22-9.12h1.22l2.58 5.66c.347.76.62 1.42.82 1.98.307-.84.573-1.52.8-2.04l2.48-5.6h1.1zM823.24 17.64c0-.413-.173-.747-.52-1-.333-.253-.747-.453-1.24-.6-.48-.147-.967-.307-1.46-.48a3.18 3.18 0 01-1.26-.86c-.333-.387-.5-.887-.5-1.5 0-.72.267-1.293.8-1.72.533-.44 1.233-.66 2.1-.66 1.24 0 2.18.333 2.82 1l-.44.78c-.613-.573-1.4-.86-2.36-.86-.547 0-.987.14-1.32.42-.333.28-.5.62-.5 1.02 0 .44.167.793.5 1.06.347.267.76.48 1.24.64.493.147.987.307 1.48.48s.907.447 1.24.82c.347.36.52.833.52 1.42 0 .84-.313 1.48-.94 1.92-.613.44-1.38.66-2.3.66a4.582 4.582 0 01-1.84-.4c-.613-.267-1.027-.567-1.24-.9l.58-.68c.24.307.62.56 1.14.76.52.2 1.013.3 1.48.3.56 0 1.033-.14 1.42-.42.4-.28.6-.68.6-1.2zm4.379 1.22c-.88-.88-1.32-2-1.32-3.36 0-1.36.44-2.48 1.32-3.36.88-.88 2.014-1.32 3.4-1.32 1.387 0 2.52.44 3.4 1.32.88.88 1.32 2 1.32 3.36 0 1.36-.44 2.48-1.32 3.36-.88.88-2.013 1.32-3.4 1.32-1.386 0-2.52-.44-3.4-1.32zm.8-6.02c-.68.693-1.02 1.58-1.02 2.66s.34 1.967 1.02 2.66c.68.693 1.547 1.04 2.6 1.04 1.067 0 1.934-.34 2.6-1.02.68-.693 1.02-1.587 1.02-2.68 0-1.08-.34-1.967-1.02-2.66-.68-.693-1.546-1.04-2.6-1.04-1.04 0-1.906.347-2.6 1.04zm10.148-.34l-.28-.86a5.319 5.319 0 012.86-.82c1.2 0 2.053.3 2.56.9.52.6.78 1.5.78 2.7V20h-1.04v-1.38c-.733 1-1.76 1.5-3.08 1.5-.84 0-1.513-.24-2.02-.72-.507-.493-.76-1.147-.76-1.96 0-.88.32-1.567.96-2.06.64-.493 1.46-.74 2.46-.74s1.813.227 2.44.68c0-.507-.013-.907-.04-1.2a4.207 4.207 0 00-.16-.94c-.08-.347-.2-.607-.36-.78-.16-.173-.393-.313-.7-.42-.293-.12-.66-.18-1.1-.18-.827 0-1.667.233-2.52.7zm2.12 6.64c1.12 0 2.04-.473 2.76-1.42v-1.5c-.653-.48-1.433-.72-2.34-.72-.653 0-1.22.16-1.7.48-.48.32-.72.787-.72 1.4 0 .547.187.98.56 1.3.387.307.867.46 1.44.46zm6.78 4.86V11h1.04v1.2c.346-.4.82-.727 1.42-.98a4.67 4.67 0 011.88-.4c1.28 0 2.3.42 3.06 1.26.76.84 1.14 1.933 1.14 3.28 0 1.387-.427 2.54-1.28 3.46-.854.907-1.967 1.36-3.34 1.36-1.227 0-2.187-.253-2.88-.76V24h-1.04zm4.06-12.2c-.6 0-1.18.14-1.74.42-.547.267-.974.593-1.28.98v5.18c.826.547 1.76.82 2.8.82 1.08 0 1.946-.353 2.6-1.06.666-.707 1-1.613 1-2.72 0-1.093-.3-1.967-.9-2.62-.587-.667-1.414-1-2.48-1z" fill="#fff"/></svg>