<svg width="182" height="47" viewBox="0 0 182 47" fill="none" xmlns="http://www.w3.org/2000/svg"><path d="M16.173 0C12.81 0 8.774 3.362 5.503 9.007 2.018 14.906 0 22.137 0 28.447 0 37.707 4.983 47 16.173 47c11.19 0 16.173-9.292 16.173-18.553 0-6.31-2.018-13.573-5.503-19.409C23.572 3.362 19.536 0 16.173 0zm87.347 13.827h11.312v30.604h12.137V13.827h11.312V2.505H103.52v11.322zm60.687 0H182V2.505h-17.793c-16.357 0-25.07 8.436-25.07 20.995 0 12.559 8.744 20.995 25.07 20.995H182V33.14h-17.793c-7.582 0-12.505-2.822-12.505-9.641s4.923-9.673 12.505-9.673zm-85.36-11.29l-6.481 25.054-6.482-25.054H44.453v41.99H56.59V10.338l8.836 34.124h13.91l8.836-34.156v34.156h12.137V2.537H78.847z" fill="#FF0109"/></svg>