<svg width="916" height="273" viewBox="0 0 916 273" fill="none" xmlns="http://www.w3.org/2000/svg"><path d="M382.264 242.192v-2.184h-.12c-2.432 0-4.392-.584-5.88-1.752-1.472-1.184-2.208-2.816-2.208-4.896 0-2.096.736-3.728 2.208-4.896 1.488-1.168 3.48-1.752 5.976-1.752h.024v-1.704h1.32v1.704h.048c2.528 0 4.528.592 6 1.776 1.488 1.168 2.232 2.792 2.232 4.872s-.744 3.712-2.232 4.896c-1.488 1.168-3.448 1.752-5.88 1.752h-.168v2.184h-1.32zm1.416-14.256h-.096v10.848h.168c2.048 0 3.68-.464 4.896-1.392 1.216-.928 1.824-2.272 1.824-4.032 0-1.728-.608-3.064-1.824-4.008-1.216-.944-2.872-1.416-4.968-1.416zm-8.232 5.424c0 1.728.608 3.064 1.824 4.008 1.232.944 2.864 1.416 4.896 1.416h.096v-10.848h-.048c-2.064 0-3.712.48-4.944 1.44-1.216.944-1.824 2.272-1.824 3.984zm19.37 13.44v-15.6h1.248v1.44c.416-.48.984-.872 1.704-1.176a5.607 5.607 0 012.256-.48c1.536 0 2.76.504 3.672 1.512.912 1.008 1.368 2.32 1.368 3.936 0 1.664-.512 3.048-1.536 4.152-1.024 1.088-2.36 1.632-4.008 1.632-1.472 0-2.624-.304-3.456-.912v5.496h-1.248zm4.872-14.64c-.72 0-1.416.168-2.088.504-.656.32-1.168.712-1.536 1.176v6.216c.992.656 2.112.984 3.36.984 1.296 0 2.336-.424 3.12-1.272.8-.848 1.2-1.936 1.2-3.264 0-1.312-.36-2.36-1.08-3.144-.704-.8-1.696-1.2-2.976-1.2zm9.233 8.472c-1.056-1.056-1.584-2.4-1.584-4.032 0-1.632.528-2.976 1.584-4.032s2.416-1.584 4.08-1.584c1.664 0 3.024.528 4.08 1.584s1.584 2.4 1.584 4.032c0 1.632-.528 2.976-1.584 4.032s-2.416 1.584-4.08 1.584c-1.664 0-3.024-.528-4.08-1.584zm.96-7.224c-.816.832-1.224 1.896-1.224 3.192 0 1.296.408 2.36 1.224 3.192.816.832 1.856 1.248 3.12 1.248 1.28 0 2.32-.408 3.12-1.224.816-.832 1.224-1.904 1.224-3.216 0-1.296-.408-2.36-1.224-3.192-.816-.832-1.856-1.248-3.12-1.248-1.248 0-2.288.416-3.12 1.248zM429.98 242v-4.896h-7.008V242h-1.248v-10.8h1.248v4.728h7.008V231.2h1.248V242h-1.248zm3.449-9.552V231.2h9.84v1.248h-4.296V242h-1.248v-9.552h-4.296zm11.853 3.624v-1.176h5.496v1.176h-5.496zm18.006 3.48l.624.912c-.448.56-1.04.992-1.776 1.296a5.862 5.862 0 01-2.304.456c-1.68 0-3.056-.512-4.128-1.536-1.056-1.024-1.584-2.384-1.584-4.08 0-1.584.512-2.912 1.536-3.984 1.024-1.088 2.304-1.632 3.84-1.632 1.856 0 3.256.448 4.2 1.344l-.6 1.008c-.864-.784-2-1.176-3.408-1.176-1.168 0-2.168.424-3 1.272-.832.848-1.248 1.904-1.248 3.168 0 1.344.424 2.424 1.272 3.24.848.8 1.92 1.2 3.216 1.2 1.392 0 2.512-.496 3.36-1.488zM466.99 233l-.336-1.032a6.384 6.384 0 013.432-.984c1.44 0 2.464.36 3.072 1.08.624.72.936 1.8.936 3.24V242h-1.248v-1.656c-.88 1.2-2.112 1.8-3.696 1.8-1.008 0-1.816-.288-2.424-.864-.608-.592-.912-1.376-.912-2.352 0-1.056.384-1.88 1.152-2.472.768-.592 1.752-.888 2.952-.888s2.176.272 2.928.816c0-.608-.016-1.088-.048-1.44a5.048 5.048 0 00-.192-1.128c-.096-.416-.24-.728-.432-.936-.192-.208-.472-.376-.84-.504-.352-.144-.792-.216-1.32-.216-.992 0-2 .28-3.024.84zm2.544 7.968c1.344 0 2.448-.568 3.312-1.704v-1.8c-.784-.576-1.72-.864-2.808-.864-.784 0-1.464.192-2.04.576-.576.384-.864.944-.864 1.68 0 .656.224 1.176.672 1.56.464.368 1.04.552 1.728.552zm9.383 1.032h-1.248v-10.8h1.248v9l7.2-9h1.248V242h-1.248v-9l-7.2 9zm.408-16.416h1.128c0 .592.208 1.096.624 1.512.416.4.952.6 1.608.6.624 0 1.136-.2 1.536-.6.4-.416.6-.92.6-1.512h1.128c0 .88-.304 1.616-.912 2.208-.608.576-1.392.864-2.352.864-1.04 0-1.864-.288-2.472-.864-.592-.576-.888-1.312-.888-2.208zm10.237 6.864V231.2h9.84v1.248h-4.296V242h-1.248v-9.552h-4.296zm12.373.552l-.336-1.032a6.384 6.384 0 013.432-.984c1.44 0 2.464.36 3.072 1.08.624.72.936 1.8.936 3.24V242h-1.248v-1.656c-.88 1.2-2.112 1.8-3.696 1.8-1.008 0-1.816-.288-2.424-.864-.608-.592-.912-1.376-.912-2.352 0-1.056.384-1.88 1.152-2.472.768-.592 1.752-.888 2.952-.888s2.176.272 2.928.816c0-.608-.016-1.088-.048-1.44a5.048 5.048 0 00-.192-1.128c-.096-.416-.24-.728-.432-.936-.192-.208-.472-.376-.84-.504-.352-.144-.792-.216-1.32-.216-.992 0-2 .28-3.024.84zm2.544 7.968c1.344 0 2.448-.568 3.312-1.704v-1.8c-.784-.576-1.72-.864-2.808-.864-.784 0-1.464.192-2.04.576-.576.384-.864.944-.864 1.68 0 .656.224 1.176.672 1.56.464.368 1.04.552 1.728.552z" fill="#fff"/><rect x="337.5" y="199.5" width="209" height="72" rx="6.5" stroke="#E4002B" stroke-width="3"/><path d="M53.164 67V50.2h1.344l6.768 9.216L67.78 50.2h1.272V67h-1.32V52.264l-6.456 9.072h-.216l-6.576-9V67h-1.32zm29.755-10.8L78.55 67c-.768 1.872-1.448 3.136-2.04 3.792-.576.672-1.248 1.008-2.016 1.008-.608 0-1.224-.184-1.848-.552l.408-.96c.512.24.936.36 1.272.36.544 0 1.032-.24 1.464-.72.432-.464.88-1.248 1.344-2.352l.24-.576-5.328-10.8h1.488l3.696 7.632.768 1.68c.08-.272.28-.848.6-1.728l2.904-7.584h1.416zm10.763 6.624c0-.64-.16-1.192-.48-1.656a3.595 3.595 0 00-1.248-1.152 12.975 12.975 0 00-1.704-.792 217.41 217.41 0 00-1.848-.768 11.95 11.95 0 01-1.68-.912 4.105 4.105 0 01-1.248-1.368c-.32-.576-.48-1.24-.48-1.992 0-1.216.44-2.216 1.32-3 .88-.8 2.08-1.2 3.6-1.2.928 0 1.792.152 2.592.456.8.304 1.44.72 1.92 1.248l-.72.984c-.96-.96-2.208-1.44-3.744-1.44-1.104 0-1.976.272-2.616.816-.64.528-.96 1.24-.96 2.136 0 .64.16 1.192.48 1.656.32.448.736.816 1.248 1.104.512.272 1.072.528 1.68.768.624.224 1.24.472 1.848.744.624.256 1.192.56 1.704.912.512.336.928.8 1.248 1.392.32.576.48 1.256.48 2.04 0 1.312-.512 2.376-1.536 3.192-1.024.816-2.296 1.224-3.816 1.224a7.733 7.733 0 01-3.072-.648c-.992-.448-1.688-1.04-2.088-1.776l.792-.912c.48.64 1.12 1.152 1.92 1.536.816.368 1.624.552 2.424.552 1.104 0 2.04-.28 2.808-.84.784-.56 1.176-1.328 1.176-2.304zm3.981-4.224c0-2.448.8-4.496 2.4-6.144 1.6-1.648 3.608-2.472 6.024-2.472 2.4 0 4.4.816 6 2.448 1.616 1.616 2.424 3.672 2.424 6.168 0 2.608-.896 4.744-2.688 6.408l1.68 1.992h-1.584l-1.032-1.224c-1.408.96-3.008 1.44-4.8 1.44-2.4 0-4.408-.808-6.024-2.424-1.6-1.632-2.4-3.696-2.4-6.192zm1.392 0c0 2.096.672 3.848 2.016 5.256 1.36 1.408 3.032 2.112 5.016 2.112 1.472 0 2.792-.392 3.96-1.176l-1.488-1.8.888-.792 1.536 1.824c1.424-1.424 2.136-3.232 2.136-5.424 0-2.112-.68-3.864-2.04-5.256-1.344-1.408-3.008-2.112-4.992-2.112-2 0-3.672.704-5.016 2.112-1.344 1.392-2.016 3.144-2.016 5.256zm19.406 8.4V50.2h1.32v15.552h8.856V67h-10.176z" fill="#fff"/><rect x="1.5" y="24.5" width="177" height="72" rx="6.5" stroke="#E4002B" stroke-width="3"/><path d="M381.78 32.2l-7.944 7.944 8.28 8.856h-1.704l-8.136-8.76 7.896-8.04h1.608zM370.164 49V32.2h1.32V49h-1.32zm21.979-2.28l.408.96c-.976 1.024-2.304 1.536-3.984 1.536-1.712 0-3.096-.512-4.152-1.536s-1.584-2.384-1.584-4.08c0-1.632.48-2.976 1.44-4.032.976-1.056 2.32-1.584 4.032-1.584 1.408 0 2.576.448 3.504 1.344.928.896 1.392 2.072 1.392 3.528 0 .384-.024.72-.072 1.008h-8.904c.048 1.296.472 2.32 1.272 3.072.8.736 1.848 1.104 3.144 1.104 1.488 0 2.656-.44 3.504-1.32zm-3.96-7.56c-1.168 0-2.104.344-2.808 1.032-.704.672-1.112 1.552-1.224 2.64h7.776c-.016-1.136-.36-2.032-1.032-2.688-.672-.656-1.576-.984-2.712-.984zm8.002 9.84V38.2h1.248v9.624h4.68V38.2h1.248v9.624h4.68V38.2h1.248V49h-13.104zm18.17 0h-1.248V38.2h1.248v9l7.2-9h1.248V49h-1.248v-9l-7.2 9zm12.229 4.8V38.2h1.248v1.44c.416-.48.984-.872 1.704-1.176a5.607 5.607 0 012.256-.48c1.536 0 2.76.504 3.672 1.512.912 1.008 1.368 2.32 1.368 3.936 0 1.664-.512 3.048-1.536 4.152-1.024 1.088-2.36 1.632-4.008 1.632-1.472 0-2.624-.304-3.456-.912V53.8h-1.248zm4.872-14.64c-.72 0-1.416.168-2.088.504-.656.32-1.168.712-1.536 1.176v6.216c.992.656 2.112.984 3.36.984 1.296 0 2.336-.424 3.12-1.272.8-.848 1.2-1.936 1.2-3.264 0-1.312-.36-2.36-1.08-3.144-.704-.8-1.696-1.2-2.976-1.2zm9.233 8.472c-1.056-1.056-1.584-2.4-1.584-4.032 0-1.632.528-2.976 1.584-4.032s2.416-1.584 4.08-1.584c1.664 0 3.024.528 4.08 1.584s1.584 2.4 1.584 4.032c0 1.632-.528 2.976-1.584 4.032s-2.416 1.584-4.08 1.584c-1.664 0-3.024-.528-4.08-1.584zm.96-7.224c-.816.832-1.224 1.896-1.224 3.192 0 1.296.408 2.36 1.224 3.192.816.832 1.856 1.248 3.12 1.248 1.28 0 2.32-.408 3.12-1.224.816-.832 1.224-1.904 1.224-3.216 0-1.296-.408-2.36-1.224-3.192-.816-.832-1.856-1.248-3.12-1.248-1.248 0-2.288.416-3.12 1.248zM453.49 49V38.2c.272 0 .784-.008 1.536-.024a47.945 47.945 0 011.944-.048c1.488 0 2.6.224 3.336.672.752.448 1.128 1.152 1.128 2.112 0 .608-.192 1.144-.576 1.608-.384.464-.92.752-1.608.864v.048c1.728.272 2.592 1.136 2.592 2.592 0 2.032-1.608 3.048-4.824 3.048-.48 0-1.112-.016-1.896-.048A94.493 94.493 0 00453.49 49zm3.84-4.968h-2.592v3.816a71.53 71.53 0 002.424.048c2.24 0 3.36-.664 3.36-1.992 0-1.248-1.064-1.872-3.192-1.872zm-.216-4.728c-.784 0-1.576.016-2.376.048V43h2.856c.784 0 1.4-.168 1.848-.504.448-.352.672-.816.672-1.392 0-1.2-1-1.8-3-1.8zm8.266.696l-.336-1.032a6.384 6.384 0 013.432-.984c1.44 0 2.464.36 3.072 1.08.624.72.936 1.8.936 3.24V49h-1.248v-1.656c-.88 1.2-2.112 1.8-3.696 1.8-1.008 0-1.816-.288-2.424-.864-.608-.592-.912-1.376-.912-2.352 0-1.056.384-1.88 1.152-2.472.768-.592 1.752-.888 2.952-.888s2.176.272 2.928.816c0-.608-.016-1.088-.048-1.44a5.048 5.048 0 00-.192-1.128c-.096-.416-.24-.728-.432-.936-.192-.208-.472-.376-.84-.504-.352-.144-.792-.216-1.32-.216-.992 0-2 .28-3.024.84zm2.544 7.968c1.344 0 2.448-.568 3.312-1.704v-1.8c-.784-.576-1.72-.864-2.808-.864-.784 0-1.464.192-2.04.576-.576.384-.864.944-.864 1.68 0 .656.224 1.176.672 1.56.464.368 1.04.552 1.728.552zM484.316 49v-4.896h-7.008V49h-1.248V38.2h1.248v4.728h7.008V38.2h1.248V49h-1.248zm6.281 0h-1.248V38.2h1.248v9l7.2-9h1.248V49h-1.248v-9l-7.2 9zm20.773-2.28l.408.96c-.976 1.024-2.304 1.536-3.984 1.536-1.712 0-3.096-.512-4.152-1.536s-1.584-2.384-1.584-4.08c0-1.632.48-2.976 1.44-4.032.976-1.056 2.32-1.584 4.032-1.584 1.408 0 2.576.448 3.504 1.344.928.896 1.392 2.072 1.392 3.528 0 .384-.024.72-.072 1.008h-8.904c.048 1.296.472 2.32 1.272 3.072.8.736 1.848 1.104 3.144 1.104 1.488 0 2.656-.44 3.504-1.32zm-3.96-7.56c-1.168 0-2.104.344-2.808 1.032-.704.672-1.112 1.552-1.224 2.64h7.776c-.016-1.136-.36-2.032-1.032-2.688-.672-.656-1.576-.984-2.712-.984zM369.396 84V73.2c.272 0 .784-.008 1.536-.024a47.945 47.945 0 011.944-.048c1.488 0 2.6.224 3.336.672.752.448 1.128 1.152 1.128 2.112 0 .608-.192 1.144-.576 1.608-.384.464-.92.752-1.608.864v.048c1.728.272 2.592 1.136 2.592 2.592 0 2.032-1.608 3.048-4.824 3.048-.48 0-1.112-.016-1.896-.048a94.493 94.493 0 00-1.632-.024zm3.84-4.968h-2.592v3.816a71.53 71.53 0 002.424.048c2.24 0 3.36-.664 3.36-1.992 0-1.248-1.064-1.872-3.192-1.872zm-.216-4.728c-.784 0-1.576.016-2.376.048V78h2.856c.784 0 1.4-.168 1.848-.504.448-.352.672-.816.672-1.392 0-1.2-1-1.8-3-1.8zM387.367 84V67.2h1.344l6.768 9.216 6.504-9.216h1.272V84h-1.32V69.264l-6.456 9.072h-.216l-6.576-9V84h-1.32zm28.987-2.28l.408.96c-.976 1.024-2.304 1.536-3.984 1.536-1.712 0-3.096-.512-4.152-1.536s-1.584-2.384-1.584-4.08c0-1.632.48-2.976 1.44-4.032.976-1.056 2.32-1.584 4.032-1.584 1.408 0 2.576.448 3.504 1.344.928.896 1.392 2.072 1.392 3.528 0 .384-.024.72-.072 1.008h-8.904c.048 1.296.472 2.32 1.272 3.072.8.736 1.848 1.104 3.144 1.104 1.488 0 2.656-.44 3.504-1.32zm-3.96-7.56c-1.168 0-2.104.344-2.808 1.032-.704.672-1.112 1.552-1.224 2.64h7.776c-.016-1.136-.36-2.032-1.032-2.688-.672-.656-1.576-.984-2.712-.984zm23.746 2.76V84h-1.248v-6.744c0-2.048-.912-3.072-2.736-3.072-.736 0-1.392.168-1.968.504a3.491 3.491 0 00-1.344 1.296c.032.128.048.384.048.768V84h-1.248v-7.296c0-.768-.24-1.376-.72-1.824-.464-.464-1.128-.696-1.992-.696a3.74 3.74 0 00-1.92.504c-.576.32-1.032.72-1.368 1.2V84h-1.248V73.2h1.248v1.512c.416-.512.96-.92 1.632-1.224a4.959 4.959 0 012.112-.48c.848 0 1.56.176 2.136.528.592.352.984.84 1.176 1.464.4-.608.952-1.088 1.656-1.44a4.943 4.943 0 012.28-.552c2.336 0 3.504 1.304 3.504 3.912zm11.969 4.632l.624.912c-.448.56-1.04.992-1.776 1.296a5.862 5.862 0 01-2.304.456c-1.68 0-3.056-.512-4.128-1.536-1.056-1.024-1.584-2.384-1.584-4.08 0-1.584.512-2.912 1.536-3.984 1.024-1.088 2.304-1.632 3.84-1.632 1.856 0 3.256.448 4.2 1.344l-.6 1.008c-.864-.784-2-1.176-3.408-1.176-1.168 0-2.168.424-3 1.272-.832.848-1.248 1.904-1.248 3.168 0 1.344.424 2.424 1.272 3.24.848.8 1.92 1.2 3.216 1.2 1.392 0 2.512-.496 3.36-1.488zM451.81 75l-.336-1.032a6.384 6.384 0 013.432-.984c1.44 0 2.464.36 3.072 1.08.624.72.936 1.8.936 3.24V84h-1.248v-1.656c-.88 1.2-2.112 1.8-3.696 1.8-1.008 0-1.816-.288-2.424-.864-.608-.592-.912-1.376-.912-2.352 0-1.056.384-1.88 1.152-2.472.768-.592 1.752-.888 2.952-.888s2.176.272 2.928.816c0-.608-.016-1.088-.048-1.44a5.048 5.048 0 00-.192-1.128c-.096-.416-.24-.728-.432-.936-.192-.208-.472-.376-.84-.504-.352-.144-.792-.216-1.32-.216-.992 0-2 .28-3.024.84zm2.544 7.968c1.344 0 2.448-.568 3.312-1.704v-1.8c-.784-.576-1.72-.864-2.808-.864-.784 0-1.464.192-2.04.576-.576.384-.864.944-.864 1.68 0 .656.224 1.176.672 1.56.464.368 1.04.552 1.728.552zm16.536-1.416l.624.912c-.448.56-1.04.992-1.776 1.296a5.862 5.862 0 01-2.304.456c-1.68 0-3.056-.512-4.128-1.536-1.056-1.024-1.584-2.384-1.584-4.08 0-1.584.512-2.912 1.536-3.984 1.024-1.088 2.304-1.632 3.84-1.632 1.856 0 3.256.448 4.2 1.344l-.6 1.008c-.864-.784-2-1.176-3.408-1.176-1.168 0-2.168.424-3 1.272-.832.848-1.248 1.904-1.248 3.168 0 1.344.424 2.424 1.272 3.24.848.8 1.92 1.2 3.216 1.2 1.392 0 2.512-.496 3.36-1.488zM474.255 84V67.2h1.248v7.464c.432-.48 1-.872 1.704-1.176.72-.32 1.448-.48 2.184-.48 3.008 0 4.512 1.616 4.512 4.848V84h-1.248v-5.952c0-2.576-1.184-3.864-3.552-3.864-.704 0-1.392.16-2.064.48-.656.32-1.168.712-1.536 1.176V84h-1.248zm21.763-2.28l.408.96c-.976 1.024-2.304 1.536-3.984 1.536-1.712 0-3.096-.512-4.152-1.536s-1.584-2.384-1.584-4.08c0-1.632.48-2.976 1.44-4.032.976-1.056 2.32-1.584 4.032-1.584 1.408 0 2.576.448 3.504 1.344.928.896 1.392 2.072 1.392 3.528 0 .384-.024.72-.072 1.008h-8.904c.048 1.296.472 2.32 1.272 3.072.8.736 1.848 1.104 3.144 1.104 1.488 0 2.656-.44 3.504-1.32zm-3.96-7.56c-1.168 0-2.104.344-2.808 1.032-.704.672-1.112 1.552-1.224 2.64h7.776c-.016-1.136-.36-2.032-1.032-2.688-.672-.656-1.576-.984-2.712-.984zM508.292 84v-1.536c-1.008 1.152-2.248 1.728-3.72 1.728-1.6 0-2.88-.504-3.84-1.512s-1.44-2.352-1.44-4.032c0-1.664.552-3.024 1.656-4.08 1.12-1.056 2.528-1.584 4.224-1.584 1.232 0 2.272.312 3.12.936V67.2h1.248V84h-1.248zm-3.48-.984c.672 0 1.32-.168 1.944-.504.64-.336 1.152-.736 1.536-1.2v-6.168c-.976-.656-2.008-.984-3.096-.984-1.28 0-2.368.416-3.264 1.248-.88.816-1.32 1.88-1.32 3.192 0 1.36.384 2.44 1.152 3.24.784.784 1.8 1.176 3.048 1.176z" fill="#fff"/><rect x="310.5" y="1.5" width="263" height="117" rx="6.5" stroke="#E4002B" stroke-width="3"/><path d="M299 60l-10-5.773v11.547L299 60zm-109 1h100v-2H190v2z" fill="#C5CDCF"/><path d="M768.164 67V50.2h9.264v1.248h-7.944v5.688c.976-.096 1.92-.144 2.832-.144 1.952 0 3.448.432 4.488 1.296 1.04.848 1.56 2.032 1.56 3.552 0 1.696-.568 2.992-1.704 3.888-1.12.896-2.696 1.344-4.728 1.344-.544 0-1.24-.016-2.088-.048-.832-.016-1.392-.024-1.68-.024zm4.104-8.76c-1.024 0-1.952.048-2.784.144v7.368c1.584.048 2.464.072 2.64.072 1.616 0 2.84-.336 3.672-1.008.832-.672 1.248-1.64 1.248-2.904 0-1.152-.408-2.048-1.224-2.688-.8-.656-1.984-.984-3.552-.984zM783.292 67h-1.248V56.2h1.248v9l7.2-9h1.248V67h-1.248v-9l-7.2 9zm10.645-9.552V56.2h9.84v1.248h-4.296V67h-1.248v-9.552h-4.296zM805.974 71.8V56.2h1.248v1.44c.416-.48.984-.872 1.704-1.176a5.607 5.607 0 012.256-.48c1.536 0 2.76.504 3.672 1.512.912 1.008 1.368 2.32 1.368 3.936 0 1.664-.512 3.048-1.536 4.152-1.024 1.088-2.36 1.632-4.008 1.632-1.472 0-2.624-.304-3.456-.912V71.8h-1.248zm4.872-14.64c-.72 0-1.416.168-2.088.504-.656.32-1.168.712-1.536 1.176v6.216c.992.656 2.112.984 3.36.984 1.296 0 2.336-.424 3.12-1.272.8-.848 1.2-1.936 1.2-3.264 0-1.312-.36-2.36-1.08-3.144-.704-.8-1.696-1.2-2.976-1.2zm9.665 9.84h-1.248V56.2h1.248v9l7.2-9h1.248V67h-1.248v-9l-7.2 9zm21.037-10.8l-5.328 5.16 5.76 5.64h-1.68l-5.592-5.568 5.232-5.232h1.608zM832.74 67V56.2h1.248V67h-1.248zm19.486-2.448l.624.912c-.448.56-1.04.992-1.776 1.296a5.862 5.862 0 01-2.304.456c-1.68 0-3.056-.512-4.128-1.536-1.056-1.024-1.584-2.384-1.584-4.08 0-1.584.512-2.912 1.536-3.984 1.024-1.088 2.304-1.632 3.84-1.632 1.856 0 3.256.448 4.2 1.344l-.6 1.008c-.864-.784-2-1.176-3.408-1.176-1.168 0-2.168.424-3 1.272-.832.848-1.248 1.904-1.248 3.168 0 1.344.424 2.424 1.272 3.24.848.8 1.92 1.2 3.216 1.2 1.392 0 2.512-.496 3.36-1.488z" fill="#fff"/><rect x="705.5" y="24.5" width="209" height="72" rx="6.5" stroke="#E4002B" stroke-width="3"/><path d="M694 51l-10-5.773v11.547L694 51zm-109 1h100v-2H585v2zm0 19l10 5.773V65.227L585 71zm109-1H594v2h100v-2zM442 188l5.774-10h-11.548L442 188zm-1-58v49h2v-49h-2z" fill="#C5CDCF"/></svg>