<svg width="635" height="457" viewBox="0 0 635 457" fill="none" xmlns="http://www.w3.org/2000/svg"><path fill-rule="evenodd" clip-rule="evenodd" d="M66 27c-1.341 0-2.645.15-3.902.43v17.582a3.919 3.919 0 003.912 3.912 3.918 3.918 0 003.91-3.91 3.919 3.919 0 00-3.65-3.904v-3.131c3.757.136 6.78 3.244 6.78 7.035 0 3.876-3.163 7.04-7.04 7.04-3.88 0-7.041-3.164-7.041-7.042V28.425a16.58 16.58 0 00-1.304.623v15.964c0 4.596 3.75 8.343 8.345 8.343 4.596 0 8.344-3.747 8.344-8.341 0-4.51-3.607-8.202-8.084-8.34v-3.13c6.2.14 11.212 5.238 11.212 11.47 0 6.32-5.154 11.471-11.472 11.471-6.32 0-11.475-5.152-11.475-11.473V31.124A17.96 17.96 0 0048 44.999C48 54.939 56.059 63 66 63c9.943 0 18-8.06 18-18.001C84 35.059 75.943 27 66 27z" fill="#D91935"/><path d="M101.332 51.5V34.7h9.72v2.76h-6.768v4.176h6.048v2.76h-6.048v4.344h7.008v2.76h-9.96zm11.717 2.52v-5.088h1.368c.848-1.12 1.352-3 1.512-5.64l.168-2.592h7.968v8.232h1.8v5.088h-2.592V51.5h-7.656v2.52h-2.568zm5.544-9.624c-.192 2.096-.624 3.608-1.296 4.536h4.008v-5.64h-2.64l-.072 1.104zm11.848 7.104h-2.76V40.7h2.76v6.84l5.04-6.84h2.76v10.8h-2.76v-6.84l-5.04 6.84zm18.368 0v-4.128h-4.728V51.5h-2.76V40.7h2.76v4.08h4.728V40.7h2.76v10.8h-2.76zm6.665-8.016l-.696-2.016a7.385 7.385 0 013.816-1.032c1.536 0 2.64.376 3.312 1.128.672.752 1.008 1.872 1.008 3.36V51.5h-2.4v-1.248c-.656.928-1.72 1.392-3.192 1.392-1.008 0-1.824-.296-2.448-.888-.624-.592-.936-1.4-.936-2.424 0-1.136.368-2 1.104-2.592.736-.608 1.68-.912 2.832-.912.992 0 1.808.232 2.448.696.032-.944-.104-1.64-.408-2.088-.304-.464-.84-.696-1.608-.696-.8 0-1.744.248-2.832.744zm2.76 5.832c.928 0 1.624-.328 2.088-.984v-1.104c-.464-.352-1.096-.528-1.896-.528-.496 0-.912.12-1.248.36-.32.224-.48.552-.48.984 0 .4.144.712.432.936.288.224.656.336 1.104.336zm12.789-8.616h3.528v10.8h-2.76v-3.24h-1.536l-2.232 3.24h-3.168l2.88-3.84c-.544-.192-1.032-.552-1.464-1.08-.416-.544-.624-1.224-.624-2.04 0-1.136.432-2.056 1.296-2.76.88-.72 2.24-1.08 4.08-1.08zm-2.424 4.032c0 .432.176.792.528 1.08.368.272.776.408 1.224.408h1.44V43.1h-1.224c-.624 0-1.112.16-1.464.48-.336.32-.504.704-.504 1.152zM190.08 51.5v-8.208h-4.608V51.5h-2.76V40.7h10.128v10.8h-2.76zm6.667-8.016l-.696-2.016a7.385 7.385 0 013.816-1.032c1.536 0 2.64.376 3.312 1.128.672.752 1.008 1.872 1.008 3.36V51.5h-2.4v-1.248c-.656.928-1.72 1.392-3.192 1.392-1.008 0-1.824-.296-2.448-.888-.624-.592-.936-1.4-.936-2.424 0-1.136.368-2 1.104-2.592.736-.608 1.68-.912 2.832-.912.992 0 1.808.232 2.448.696.032-.944-.104-1.64-.408-2.088-.304-.464-.84-.696-1.608-.696-.8 0-1.744.248-2.832.744zm2.76 5.832c.928 0 1.624-.328 2.088-.984v-1.104c-.464-.352-1.096-.528-1.896-.528-.496 0-.912.12-1.248.36-.32.224-.48.552-.48.984 0 .4.144.712.432.936.288.224.656.336 1.104.336zm14.997 2.184v-4.128h-4.728V51.5h-2.76V40.7h2.76v4.08h4.728V40.7h2.76v10.8h-2.76zm14.297-3.024l.792 1.944c-1.056.896-2.432 1.344-4.128 1.344-1.744 0-3.152-.52-4.224-1.56-1.056-1.04-1.584-2.408-1.584-4.104 0-1.616.52-2.96 1.56-4.032 1.04-1.088 2.424-1.632 4.152-1.632 1.424 0 2.632.472 3.624 1.416.992.928 1.488 2.128 1.488 3.6 0 .608-.056 1.104-.168 1.488h-7.8c.112.8.464 1.424 1.056 1.872.592.432 1.32.648 2.184.648 1.216 0 2.232-.328 3.048-.984zm-3.552-5.736c-1.568 0-2.512.784-2.832 2.352h5.304c.016-.672-.2-1.232-.648-1.68-.448-.448-1.056-.672-1.824-.672zm14.207 8.76v-8.04H236.6l-.072 1.152c-.176 1.936-.472 3.424-.888 4.464-.4 1.04-.912 1.744-1.536 2.112-.608.352-1.424.528-2.448.528l-.24-2.688a1.4 1.4 0 00.984-.288c.32-.24.624-.752.912-1.536.288-.8.472-1.848.552-3.144l.168-3.36h8.184v10.8h-2.76zm5.834 0V40.7h2.76v2.952h1.488c1.696 0 2.912.352 3.648 1.056.736.704 1.104 1.6 1.104 2.688 0 1.168-.4 2.144-1.2 2.928-.8.784-2.056 1.176-3.768 1.176h-4.032zm4.008-5.64h-1.248v3.24h1.224c1.392 0 2.088-.536 2.088-1.608 0-1.088-.688-1.632-2.064-1.632zm22.697-5.16l-4.248 10.8c-.768 1.872-1.456 3.136-2.064 3.792-.592.672-1.296 1.008-2.112 1.008-.784 0-1.56-.28-2.328-.84l.888-2.088c.432.256.808.384 1.128.384.656 0 1.208-.56 1.656-1.68l.24-.576-4.992-10.8h3.312l2.52 5.904c.096.24.272.76.528 1.56.128-.704.256-1.232.384-1.584l1.944-5.88h3.144zm9.022 10.8v-8.208h-4.608V51.5h-2.76V40.7h10.128v10.8h-2.76zm5.828 4.8V40.7h2.76v1.032c.352-.368.824-.672 1.416-.912a4.898 4.898 0 011.92-.384c1.472 0 2.656.512 3.552 1.536.896 1.024 1.344 2.344 1.344 3.96 0 1.68-.528 3.072-1.584 4.176s-2.432 1.656-4.128 1.656c-1.072 0-1.912-.176-2.52-.528V56.3h-2.76zm5.232-13.272c-.944 0-1.768.392-2.472 1.176v4.368c.64.416 1.4.624 2.28.624.928 0 1.664-.296 2.208-.888.544-.608.816-1.376.816-2.304 0-.88-.248-1.592-.744-2.136-.496-.56-1.192-.84-2.088-.84zm8.99.456l-.696-2.016a7.385 7.385 0 013.816-1.032c1.536 0 2.64.376 3.312 1.128.672.752 1.008 1.872 1.008 3.36V51.5h-2.4v-1.248c-.656.928-1.72 1.392-3.192 1.392-1.008 0-1.824-.296-2.448-.888-.624-.592-.936-1.4-.936-2.424 0-1.136.368-2 1.104-2.592.736-.608 1.68-.912 2.832-.912.992 0 1.808.232 2.448.696.032-.944-.104-1.64-.408-2.088-.304-.464-.84-.696-1.608-.696-.8 0-1.744.248-2.832.744zm2.76 5.832c.928 0 1.624-.328 2.088-.984v-1.104c-.464-.352-1.096-.528-1.896-.528-.496 0-.912.12-1.248.36-.32.224-.48.552-.48.984 0 .4.144.712.432.936.288.224.656.336 1.104.336zm7.51 2.184V40.7c.192 0 .544-.008 1.056-.024a51.715 51.715 0 013.192-.096c3.264 0 4.896.944 4.896 2.832 0 .624-.2 1.16-.6 1.608a2.231 2.231 0 01-1.416.792v.048c1.536.368 2.304 1.2 2.304 2.496 0 2.176-1.712 3.264-5.136 3.264a55.3 55.3 0 01-2.28-.072 86.639 86.639 0 00-2.016-.048zm4.488-4.584h-1.728v2.4c1.088.064 1.696.096 1.824.096.608 0 1.08-.112 1.416-.336.352-.224.528-.528.528-.912 0-.832-.68-1.248-2.04-1.248zm0-4.104c-.768 0-1.344.016-1.728.048v2.376h1.8c.48 0 .872-.104 1.176-.312.32-.224.48-.536.48-.936 0-.784-.576-1.176-1.728-1.176zm14.663 8.688v-8.04h-2.856l-.072 1.152c-.176 1.936-.472 3.424-.888 4.464-.4 1.04-.912 1.744-1.536 2.112-.608.352-1.424.528-2.448.528l-.24-2.688a1.4 1.4 0 00.984-.288c.32-.24.624-.752.912-1.536.288-.8.472-1.848.552-3.144l.168-3.36h8.184v10.8h-2.76zm14.305-3.024l.792 1.944c-1.056.896-2.432 1.344-4.128 1.344-1.744 0-3.152-.52-4.224-1.56-1.056-1.04-1.584-2.408-1.584-4.104 0-1.616.52-2.96 1.56-4.032 1.04-1.088 2.424-1.632 4.152-1.632 1.424 0 2.632.472 3.624 1.416.992.928 1.488 2.128 1.488 3.6 0 .608-.056 1.104-.168 1.488h-7.8c.112.8.464 1.424 1.056 1.872.592.432 1.32.648 2.184.648 1.216 0 2.232-.328 3.048-.984zm-3.552-5.736c-1.568 0-2.512.784-2.832 2.352h5.304c.016-.672-.2-1.232-.648-1.68-.448-.448-1.056-.672-1.824-.672zm14.943 8.76v-4.128h-4.728V51.5h-2.76V40.7h2.76v4.08h4.728V40.7h2.76v10.8h-2.76zm8.585 0h-2.76V40.7h2.76v6.84l5.04-6.84h2.76v10.8h-2.76v-6.84l-5.04 6.84zm16.16-10.8h3.528v10.8h-2.76v-3.24h-1.536l-2.232 3.24h-3.168l2.88-3.84c-.544-.192-1.032-.552-1.464-1.08-.416-.544-.624-1.224-.624-2.04 0-1.136.432-2.056 1.296-2.76.88-.72 2.24-1.08 4.08-1.08zm-2.424 4.032c0 .432.176.792.528 1.08.368.272.776.408 1.224.408h1.44V43.1h-1.224c-.624 0-1.112.16-1.464.48-.336.32-.504.704-.504 1.152z" fill="#fff"/><rect x="2" y="2" width="430" height="86" rx="6" stroke="#E4002B" stroke-width="4"/><path d="M195.403 174.2V191h-2.952v-6.888c-1.056.768-2.392 1.152-4.008 1.152-1.44 0-2.656-.432-3.648-1.296-.976-.864-1.464-2.224-1.464-4.08V174.2h2.952v4.848c0 2.304.984 3.456 2.952 3.456 1.088 0 2.16-.36 3.216-1.08V174.2h2.952zm4.703 8.784l-.696-2.016a7.385 7.385 0 013.816-1.032c1.536 0 2.64.376 3.312 1.128.672.752 1.008 1.872 1.008 3.36V191h-2.4v-1.248c-.656.928-1.72 1.392-3.192 1.392-1.008 0-1.824-.296-2.448-.888-.624-.592-.936-1.4-.936-2.424 0-1.136.368-2 1.104-2.592.736-.608 1.68-.912 2.832-.912.992 0 1.808.232 2.448.696.032-.944-.104-1.64-.408-2.088-.304-.464-.84-.696-1.608-.696-.8 0-1.744.248-2.832.744zm2.76 5.832c.928 0 1.624-.328 2.088-.984v-1.104c-.464-.352-1.096-.528-1.896-.528-.496 0-.912.12-1.248.36-.32.224-.48.552-.48.984 0 .4.144.712.432.936.288.224.656.336 1.104.336zm15.694-1.44l1.296 2.016c-.448.608-1.056 1.072-1.824 1.392-.752.32-1.576.48-2.472.48-1.76 0-3.176-.52-4.248-1.56s-1.608-2.408-1.608-4.104c0-1.6.528-2.944 1.584-4.032s2.392-1.632 4.008-1.632c1.92 0 3.368.488 4.344 1.464l-1.296 2.184c-.72-.704-1.616-1.056-2.688-1.056-.8 0-1.504.288-2.112.864-.592.56-.888 1.296-.888 2.208 0 .928.304 1.68.912 2.256.624.56 1.36.84 2.208.84 1.056 0 1.984-.44 2.784-1.32zm2.172-4.416v-2.76h9.84v2.76h-3.528V191h-2.76v-8.04h-3.552zm19.304 8.04v-4.128h-4.728V191h-2.76v-10.8h2.76v4.08h4.728v-4.08h2.76V191h-2.76zm5.824 0v-10.8h2.76v2.952h1.344c1.696 0 2.912.352 3.648 1.056.736.704 1.104 1.6 1.104 2.688 0 1.168-.4 2.144-1.2 2.928-.8.784-2.056 1.176-3.768 1.176h-3.888zm10.392 0v-10.8h2.76V191h-2.76zm-6.528-5.64h-1.104v3.24h1.08c1.392 0 2.088-.536 2.088-1.608 0-1.088-.688-1.632-2.064-1.632zm12.355 5.64v-10.8h2.496l3.672 4.512 3.48-4.512h2.424V191h-2.76v-6.6l-3.192 4.032h-.072l-3.288-4.032v6.6h-2.76zm30.451-10.8l-4.152 5.136 4.656 5.664h-3.6l-4.272-5.448 3.888-5.352h3.48zM282.306 191v-10.8h2.76V191h-2.76zm19.408 0v-8.04h-2.856l-.072 1.152c-.176 1.936-.472 3.424-.888 4.464-.4 1.04-.912 1.744-1.536 2.112-.608.352-1.424.528-2.448.528l-.24-2.688a1.4 1.4 0 00.984-.288c.32-.24.624-.752.912-1.536.288-.8.472-1.848.552-3.144l.168-3.36h8.184V191h-2.76zm8.594 0h-2.76v-10.8h2.76v6.84l5.04-6.84h2.76V191h-2.76v-6.84l-5.04 6.84zm19.352-3.024l.792 1.944c-1.056.896-2.432 1.344-4.128 1.344-1.744 0-3.152-.52-4.224-1.56-1.056-1.04-1.584-2.408-1.584-4.104 0-1.616.52-2.96 1.56-4.032 1.04-1.088 2.424-1.632 4.152-1.632 1.424 0 2.632.472 3.624 1.416.992.928 1.488 2.128 1.488 3.6 0 .608-.056 1.104-.168 1.488h-7.8c.112.8.464 1.424 1.056 1.872.592.432 1.32.648 2.184.648 1.216 0 2.232-.328 3.048-.984zm-3.552-5.736c-1.568 0-2.512.784-2.832 2.352h5.304c.016-.672-.2-1.232-.648-1.68-.448-.448-1.056-.672-1.824-.672zm14.943 8.76v-4.128h-4.728V191h-2.76v-10.8h2.76v4.08h4.728v-4.08h2.76V191h-2.76zm4.697-8.04v-2.76h9.84v2.76h-3.528V191h-2.76v-8.04h-3.552zm12.655.024l-.696-2.016a7.385 7.385 0 013.816-1.032c1.536 0 2.64.376 3.312 1.128.672.752 1.008 1.872 1.008 3.36V191h-2.4v-1.248c-.656.928-1.72 1.392-3.192 1.392-1.008 0-1.824-.296-2.448-.888-.624-.592-.936-1.4-.936-2.424 0-1.136.368-2 1.104-2.592.736-.608 1.68-.912 2.832-.912.992 0 1.808.232 2.448.696.032-.944-.104-1.64-.408-2.088-.304-.464-.84-.696-1.608-.696-.8 0-1.744.248-2.832.744zm2.76 5.832c.928 0 1.624-.328 2.088-.984v-1.104c-.464-.352-1.096-.528-1.896-.528-.496 0-.912.12-1.248.36-.32.224-.48.552-.48.984 0 .4.144.712.432.936.288.224.656.336 1.104.336zm7.51 2.184v-10.8h2.496l3.672 4.512 3.48-4.512h2.424V191h-2.76v-6.6l-3.192 4.032h-.072l-3.288-4.032v6.6h-2.76z" fill="#fff"/><rect x="140.5" y="141.5" width="283" height="86" rx="6.5" stroke="#E4002B" stroke-width="3"/><path d="M239.949 305v-16.8h9.816v2.76h-6.864v3.744a15.728 15.728 0 012.256-.144c1.744 0 3.12.456 4.128 1.368 1.008.912 1.512 2.144 1.512 3.696 0 1.744-.568 3.096-1.704 4.056-1.12.944-2.712 1.416-4.776 1.416-.72 0-1.568-.016-2.544-.048a75.485 75.485 0 00-1.824-.048zm4.968-7.68c-.592 0-1.264.048-2.016.144v4.776c.896.064 1.52.096 1.872.096 2.064 0 3.096-.832 3.096-2.496 0-.768-.248-1.376-.744-1.824-.48-.464-1.216-.696-2.208-.696zm11.742 7.68h-2.76v-10.8h2.76v6.84l5.04-6.84h2.76V305h-2.76v-6.84l-5.04 6.84zm14.697.264a7.8 7.8 0 01-2.76-.504c-.896-.352-1.544-.784-1.944-1.296l1.416-1.728c.32.368.776.68 1.368.936.608.256 1.168.384 1.68.384.704 0 1.248-.12 1.632-.36.384-.24.576-.56.576-.96a1.07 1.07 0 00-.432-.888c-.288-.224-.688-.336-1.2-.336h-2.016v-1.848h1.896c.432 0 .776-.128 1.032-.384.272-.256.408-.568.408-.936 0-.784-.632-1.176-1.896-1.176-.992 0-1.976.416-2.952 1.248l-1.152-1.656c1.04-1.216 2.584-1.824 4.632-1.824 1.408 0 2.48.272 3.216.816.736.544 1.104 1.296 1.104 2.256 0 .528-.176 1.008-.528 1.44-.352.432-.84.752-1.464.96v.048c.736.144 1.296.448 1.68.912.4.448.6.992.6 1.632 0 1.008-.448 1.808-1.344 2.4-.896.576-2.08.864-3.552.864zm14.992-.264v-4.128h-4.728V305h-2.76v-10.8h2.76v4.08h4.728v-4.08h2.76V305h-2.76zm14.297-3.024l.792 1.944c-1.056.896-2.432 1.344-4.128 1.344-1.744 0-3.152-.52-4.224-1.56-1.056-1.04-1.584-2.408-1.584-4.104 0-1.616.52-2.96 1.56-4.032 1.04-1.088 2.424-1.632 4.152-1.632 1.424 0 2.632.472 3.624 1.416.992.928 1.488 2.128 1.488 3.6 0 .608-.056 1.104-.168 1.488h-7.8c.112.8.464 1.424 1.056 1.872.592.432 1.32.648 2.184.648 1.216 0 2.232-.328 3.048-.984zm-3.552-5.736c-1.568 0-2.512.784-2.832 2.352h5.304c.016-.672-.2-1.232-.648-1.68-.448-.448-1.056-.672-1.824-.672zm15.568 5.136l1.296 2.016c-.448.608-1.056 1.072-1.824 1.392-.752.32-1.576.48-2.472.48-1.76 0-3.176-.52-4.248-1.56s-1.608-2.408-1.608-4.104c0-1.6.528-2.944 1.584-4.032s2.392-1.632 4.008-1.632c1.92 0 3.368.488 4.344 1.464l-1.296 2.184c-.72-.704-1.616-1.056-2.688-1.056-.8 0-1.504.288-2.112.864-.592.56-.888 1.296-.888 2.208 0 .928.304 1.68.912 2.256.624.56 1.36.84 2.208.84 1.056 0 1.984-.44 2.784-1.32zm13.6-7.176l-4.248 10.8c-.768 1.872-1.456 3.136-2.064 3.792-.592.672-1.296 1.008-2.112 1.008-.784 0-1.56-.28-2.328-.84l.888-2.088c.432.256.808.384 1.128.384.656 0 1.208-.56 1.656-1.68l.24-.576-4.992-10.8h3.312l2.52 5.904c.096.24.272.76.528 1.56.128-.704.256-1.232.384-1.584l1.944-5.88h3.144z" fill="#fff"/><rect x="140.5" y="255.5" width="283" height="86" rx="6.5" stroke="#E4002B" stroke-width="3"/><path d="M218.1 410.6c0-2.464.816-4.52 2.448-6.168 1.648-1.664 3.744-2.496 6.288-2.496 2.528 0 4.616.8 6.264 2.4 1.664 1.6 2.496 3.688 2.496 6.264 0 2.512-.832 4.584-2.496 6.216-1.664 1.632-3.752 2.448-6.264 2.448-2.528 0-4.616-.8-6.264-2.4-1.648-1.6-2.472-3.688-2.472-6.264zm3.12 0c0 1.68.536 3.088 1.608 4.224 1.088 1.12 2.424 1.68 4.008 1.68 1.728 0 3.096-.56 4.104-1.68 1.024-1.12 1.536-2.528 1.536-4.224 0-1.728-.544-3.144-1.632-4.248-1.072-1.104-2.408-1.656-4.008-1.656-1.616 0-2.96.552-4.032 1.656-1.056 1.104-1.584 2.52-1.584 4.248zm32.31-2.4l-4.152 5.136 4.656 5.664h-3.6l-4.272-5.448 3.888-5.352h3.48zM243.306 419v-10.8h2.76V419h-2.76zm12.631-1.32c-1.072-1.072-1.608-2.432-1.608-4.08 0-1.648.536-3 1.608-4.056 1.088-1.072 2.512-1.608 4.272-1.608 1.76 0 3.176.536 4.248 1.608 1.088 1.056 1.632 2.408 1.632 4.056 0 1.648-.544 3.008-1.632 4.08-1.072 1.056-2.488 1.584-4.248 1.584-1.76 0-3.184-.528-4.272-1.584zm1.344-4.08c0 .896.272 1.64.816 2.232.56.576 1.264.864 2.112.864.864 0 1.568-.28 2.112-.84.56-.576.84-1.328.84-2.256 0-.896-.28-1.632-.84-2.208-.56-.576-1.264-.864-2.112-.864-.832 0-1.528.288-2.088.864-.56.56-.84 1.296-.84 2.208zm11.196 5.4v-10.8h2.496l3.672 4.512 3.48-4.512h2.424V419h-2.76v-6.6l-3.192 4.032h-.072l-3.288-4.032v6.6h-2.76zm22.509 0v-8.208h-4.608V419h-2.76v-10.8h10.128V419h-2.76zm6.667-8.016l-.696-2.016a7.385 7.385 0 013.816-1.032c1.536 0 2.64.376 3.312 1.128.672.752 1.008 1.872 1.008 3.36V419h-2.4v-1.248c-.656.928-1.72 1.392-3.192 1.392-1.008 0-1.824-.296-2.448-.888-.624-.592-.936-1.4-.936-2.424 0-1.136.368-2 1.104-2.592.736-.608 1.68-.912 2.832-.912.992 0 1.808.232 2.448.696.032-.944-.104-1.64-.408-2.088-.304-.464-.84-.696-1.608-.696-.8 0-1.744.248-2.832.744zm2.76 5.832c.928 0 1.624-.328 2.088-.984v-1.104c-.464-.352-1.096-.528-1.896-.528-.496 0-.912.12-1.248.36-.32.224-.48.552-.48.984 0 .4.144.712.432.936.288.224.656.336 1.104.336zM315.411 419v-4.128h-4.728V419h-2.76v-10.8h2.76v4.08h4.728v-4.08h2.76V419h-2.76zm8.584 0h-2.76v-10.8h2.76v6.84l5.04-6.84h2.76V419h-2.76v-6.84l-5.04 6.84zm13.641 0h-2.76v-10.8h2.76v6.84l5.04-6.84h2.76V419h-2.76v-6.84l-5.04 6.84z" fill="#fff"/><rect x="140.5" y="369.5" width="283" height="86" rx="6.5" stroke="#E4002B" stroke-width="3"/><path d="M126 413l-10-5.773v11.546L126 413zM65 105v288h2V105h-2zm21 309h31v-2H86v2zm-21-21c0 11.598 9.402 21 21 21v-2c-10.493 0-19-8.507-19-19h-2z" fill="#C5CDCF"/><path d="M126 299l-10-5.774v11.547L126 299zM65 105v174h2V105h-2zm21 195h31v-2H86v2zm-21-21c0 11.598 9.402 21 21 21v-2c-10.493 0-19-8.507-19-19h-2z" fill="#C5CDCF"/><path d="M126 184l-10-5.773v11.547L126 184zm-61-79v59h2v-59h-2zm21 80h31v-2H86v2zm-21-21c0 11.598 9.402 21 21 21v-2c-10.493 0-19-8.507-19-19h-2z" fill="#C5CDCF"/><rect x="412" y="146" width="108" height="36" rx="3" fill="#141414"/><path d="M424.836 169l4.88-11.296h.72l4.88 11.296h-.944l-1.632-3.808h-5.376L425.732 169h-.896zm5.216-10.08l-2.336 5.44h4.656l-2.32-5.44zM442.424 169v-3.264h-4.672V169h-.832v-7.2h.832v3.152h4.672V161.8h.832v7.2h-.832zm3.356 0v-7.2h4.336v.784h-3.504V169h-.832zm10.228 0v-6.368h-3.04l-.096 1.568c-.075 1.013-.197 1.861-.368 2.544-.171.672-.384 1.168-.64 1.488-.245.32-.491.539-.736.656a1.947 1.947 0 01-.848.176l-.064-.816c.117 0 .235-.021.352-.064.128-.043.272-.149.432-.32.171-.181.325-.416.464-.704s.261-.699.368-1.232a12.68 12.68 0 00.24-1.888l.112-2.24h4.656v7.2h-.832zm4.197 0h-.832v-7.2h.832v6l4.8-6h.832v7.2h-.832v-6l-4.8 6zm8.985 0h-.832v-7.2h.832v6l4.8-6h.832v7.2h-.832v-6l-4.8 6zm.272-10.944h.752c0 .395.138.731.416 1.008.277.267.634.4 1.072.4.416 0 .757-.133 1.024-.4.266-.277.4-.613.4-1.008h.752c0 .587-.203 1.077-.608 1.472-.406.384-.928.576-1.568.576-.694 0-1.243-.192-1.648-.576-.395-.384-.592-.875-.592-1.472zm13.48 9.312l.416.608a2.904 2.904 0 01-1.184.864c-.48.203-.992.304-1.536.304-1.12 0-2.037-.341-2.752-1.024-.704-.683-1.056-1.589-1.056-2.72 0-1.056.341-1.941 1.024-2.656.683-.725 1.536-1.088 2.56-1.088 1.237 0 2.171.299 2.8.896l-.4.672c-.576-.523-1.333-.784-2.272-.784-.779 0-1.445.283-2 .848-.555.565-.832 1.269-.832 2.112 0 .896.283 1.616.848 2.16.565.533 1.28.8 2.144.8.928 0 1.675-.331 2.24-.992zm8.116-5.568l-3.552 3.44 3.84 3.76h-1.12l-3.728-3.712 3.488-3.488h1.072zm-5.872 7.2v-7.2h.832v7.2h-.832zm7.974-6l-.224-.688a4.26 4.26 0 012.288-.656c.96 0 1.643.24 2.048.72.416.48.624 1.2.624 2.16V169h-.832v-1.104c-.587.8-1.408 1.2-2.464 1.2-.672 0-1.211-.192-1.616-.576-.405-.395-.608-.917-.608-1.568 0-.704.256-1.253.768-1.648s1.168-.592 1.968-.592 1.451.181 1.952.544c0-.405-.011-.725-.032-.96a3.365 3.365 0 00-.128-.752c-.064-.277-.16-.485-.288-.624-.128-.139-.315-.251-.56-.336-.235-.096-.528-.144-.88-.144-.661 0-1.333.187-2.016.56zm1.696 5.312c.896 0 1.632-.379 2.208-1.136v-1.2c-.523-.384-1.147-.576-1.872-.576-.523 0-.976.128-1.36.384-.384.256-.576.629-.576 1.12 0 .437.149.784.448 1.04.309.245.693.368 1.152.368zm8.384-6.512h2.144v7.2h-.832v-2.688h-1.792L500.696 169h-1.024l2.272-2.88a2.147 2.147 0 01-1.216-.656c-.342-.373-.512-.837-.512-1.392 0-.661.24-1.205.72-1.632.48-.427 1.248-.64 2.304-.64zm-2.144 2.288c0 .427.165.773.496 1.04.33.267.682.4 1.056.4h1.904v-2.944h-1.456c-.683 0-1.19.139-1.52.416-.32.277-.48.64-.48 1.088z" fill="#fff"/><rect x="412" y="146" width="108" height="36" rx="3" stroke="#E4002B" stroke-width="2"/><rect x="412" y="188" width="108" height="36" rx="3" fill="#141414"/><path d="M422.776 211v-11.2h6.176v.832h-5.296v3.792c.651-.064 1.28-.096 1.888-.096 1.301 0 2.299.288 2.992.864.693.565 1.04 1.355 1.04 2.368 0 1.131-.379 1.995-1.136 2.592-.747.597-1.797.896-3.152.896-.363 0-.827-.011-1.392-.032a67.686 67.686 0 00-1.12-.016zm2.736-5.84c-.683 0-1.301.032-1.856.096v4.912c1.056.032 1.643.048 1.76.048 1.077 0 1.893-.224 2.448-.672.555-.448.832-1.093.832-1.936 0-.768-.272-1.365-.816-1.792-.533-.437-1.323-.656-2.368-.656zm12.214 4.32l.272.64c-.651.683-1.536 1.024-2.656 1.024-1.142 0-2.064-.341-2.768-1.024-.704-.683-1.056-1.589-1.056-2.72 0-1.088.32-1.984.96-2.688.65-.704 1.546-1.056 2.688-1.056.938 0 1.717.299 2.336.896.618.597.928 1.381.928 2.352 0 .256-.016.48-.048.672h-5.936c.032.864.314 1.547.848 2.048.533.491 1.232.736 2.096.736.992 0 1.77-.293 2.336-.88zm-2.64-5.04c-.779 0-1.403.229-1.872.688-.47.448-.742 1.035-.816 1.76h5.184c-.011-.757-.24-1.355-.688-1.792-.448-.437-1.051-.656-1.808-.656zM445.18 211v-6.368h-3.04l-.096 1.568c-.075 1.013-.198 1.861-.368 2.544-.171.672-.384 1.168-.64 1.488-.246.32-.491.539-.736.656a1.95 1.95 0 01-.848.176l-.064-.816c.117 0 .234-.021.352-.064.128-.043.272-.149.432-.32a2.8 2.8 0 00.464-.704c.138-.288.261-.699.368-1.232a12.68 12.68 0 00.24-1.888l.112-2.24h4.656v7.2h-.832zm3.909-.912c-.704-.704-1.056-1.6-1.056-2.688s.352-1.984 1.056-2.688c.704-.704 1.611-1.056 2.72-1.056 1.11 0 2.016.352 2.72 1.056.704.704 1.056 1.6 1.056 2.688s-.352 1.984-1.056 2.688c-.704.704-1.61 1.056-2.72 1.056-1.109 0-2.016-.352-2.72-1.056zm.64-4.816c-.544.555-.816 1.264-.816 2.128 0 .864.272 1.573.816 2.128.544.555 1.238.832 2.08.832.854 0 1.547-.272 2.08-.816.544-.555.816-1.269.816-2.144 0-.864-.272-1.573-.816-2.128-.544-.555-1.237-.832-2.08-.832-.832 0-1.525.277-2.08.832zm7.894 8.928v-10.4h.832v.96c.278-.32.656-.581 1.136-.784.491-.213.992-.32 1.504-.32 1.024 0 1.84.336 2.448 1.008.608.672.912 1.547.912 2.624 0 1.109-.341 2.032-1.024 2.768-.682.725-1.573 1.088-2.672 1.088-.981 0-1.749-.203-2.304-.608v3.664h-.832zm3.248-9.76c-.48 0-.944.112-1.392.336-.437.213-.778.475-1.024.784v4.144a3.974 3.974 0 002.24.656c.864 0 1.558-.283 2.08-.848.534-.565.8-1.291.8-2.176 0-.875-.24-1.573-.72-2.096-.469-.533-1.13-.8-1.984-.8zm11.539-.64l-2.912 7.2c-.512 1.248-.966 2.091-1.36 2.528-.384.448-.832.672-1.344.672-.406 0-.816-.123-1.232-.368l.272-.64c.341.16.624.24.848.24.362 0 .688-.16.976-.48.288-.309.586-.832.896-1.568l.16-.384-3.552-7.2h.992l2.464 5.088.512 1.12c.053-.181.186-.565.4-1.152l1.936-5.056h.944zm6.813 5.568l.416.608a2.897 2.897 0 01-1.184.864c-.48.203-.992.304-1.536.304-1.12 0-2.037-.341-2.752-1.024-.704-.683-1.056-1.589-1.056-2.72 0-1.056.342-1.941 1.024-2.656.683-.725 1.536-1.088 2.56-1.088 1.238 0 2.171.299 2.8.896l-.4.672c-.576-.523-1.333-.784-2.272-.784-.778 0-1.445.283-2 .848-.554.565-.832 1.269-.832 2.112 0 .896.283 1.616.848 2.16.566.533 1.28.8 2.144.8.928 0 1.675-.331 2.24-.992zm7.454 0l.416.608a2.91 2.91 0 01-1.184.864c-.48.203-.992.304-1.536.304-1.12 0-2.038-.341-2.752-1.024-.704-.683-1.056-1.589-1.056-2.72 0-1.056.341-1.941 1.024-2.656.682-.725 1.536-1.088 2.56-1.088 1.237 0 2.17.299 2.8.896l-.4.672c-.576-.523-1.334-.784-2.272-.784-.779 0-1.446.283-2 .848-.555.565-.832 1.269-.832 2.112 0 .896.282 1.616.848 2.16.565.533 1.28.8 2.144.8.928 0 1.674-.331 2.24-.992zm8.115-5.568l-3.552 3.44 3.84 3.76h-1.12l-3.728-3.712 3.488-3.488h1.072zm-5.872 7.2v-7.2h.832v7.2h-.832zm7.974-6l-.224-.688a4.26 4.26 0 012.288-.656c.96 0 1.643.24 2.048.72.416.48.624 1.2.624 2.16V211h-.832v-1.104c-.586.8-1.408 1.2-2.464 1.2-.672 0-1.21-.192-1.616-.576-.405-.395-.608-.917-.608-1.568 0-.704.256-1.253.768-1.648s1.168-.592 1.968-.592 1.451.181 1.952.544c0-.405-.01-.725-.032-.96a3.31 3.31 0 00-.128-.752c-.064-.277-.16-.485-.288-.624-.128-.139-.314-.251-.56-.336-.234-.096-.528-.144-.88-.144-.661 0-1.333.187-2.016.56zm1.696 5.312c.896 0 1.632-.379 2.208-1.136v-1.2c-.522-.384-1.146-.576-1.872-.576-.522 0-.976.128-1.36.384-.384.256-.576.629-.576 1.12 0 .437.15.784.448 1.04.31.245.694.368 1.152.368zm8.384-6.512h2.144v7.2h-.832v-2.688h-1.792L504.43 211h-1.024l2.272-2.88a2.147 2.147 0 01-1.216-.656c-.341-.373-.512-.837-.512-1.392 0-.661.24-1.205.72-1.632.48-.427 1.248-.64 2.304-.64zm-2.144 2.288c0 .427.165.773.496 1.04.331.267.683.4 1.056.4h1.904v-2.944h-1.456c-.683 0-1.189.139-1.52.416-.32.277-.48.64-.48 1.088z" fill="#fff"/><rect x="412" y="188" width="108" height="36" rx="3" stroke="#E4002B" stroke-width="2"/><rect x="412" y="260" width="108" height="36" rx="3" fill="#141414"/><path d="M424.836 283l4.88-11.296h.72l4.88 11.296h-.944l-1.632-3.808h-5.376L425.732 283h-.896zm5.216-10.08l-2.336 5.44h4.656l-2.32-5.44zM442.424 283v-3.264h-4.672V283h-.832v-7.2h.832v3.152h4.672V275.8h.832v7.2h-.832zm3.356 0v-7.2h4.336v.784h-3.504V283h-.832zm10.228 0v-6.368h-3.04l-.096 1.568c-.075 1.013-.197 1.861-.368 2.544-.171.672-.384 1.168-.64 1.488-.245.32-.491.539-.736.656a1.947 1.947 0 01-.848.176l-.064-.816c.117 0 .235-.021.352-.064.128-.043.272-.149.432-.32.171-.181.325-.416.464-.704s.261-.699.368-1.232a12.68 12.68 0 00.24-1.888l.112-2.24h4.656v7.2h-.832zm4.197 0h-.832v-7.2h.832v6l4.8-6h.832v7.2h-.832v-6l-4.8 6zm8.985 0h-.832v-7.2h.832v6l4.8-6h.832v7.2h-.832v-6l-4.8 6zm.272-10.944h.752c0 .395.138.731.416 1.008.277.267.634.4 1.072.4.416 0 .757-.133 1.024-.4.266-.277.4-.613.4-1.008h.752c0 .587-.203 1.077-.608 1.472-.406.384-.928.576-1.568.576-.694 0-1.243-.192-1.648-.576-.395-.384-.592-.875-.592-1.472zm13.48 9.312l.416.608a2.904 2.904 0 01-1.184.864c-.48.203-.992.304-1.536.304-1.12 0-2.037-.341-2.752-1.024-.704-.683-1.056-1.589-1.056-2.72 0-1.056.341-1.941 1.024-2.656.683-.725 1.536-1.088 2.56-1.088 1.237 0 2.171.299 2.8.896l-.4.672c-.576-.523-1.333-.784-2.272-.784-.779 0-1.445.283-2 .848-.555.565-.832 1.269-.832 2.112 0 .896.283 1.616.848 2.16.565.533 1.28.8 2.144.8.928 0 1.675-.331 2.24-.992zm8.116-5.568l-3.552 3.44 3.84 3.76h-1.12l-3.728-3.712 3.488-3.488h1.072zm-5.872 7.2v-7.2h.832v7.2h-.832zm7.974-6l-.224-.688a4.26 4.26 0 012.288-.656c.96 0 1.643.24 2.048.72.416.48.624 1.2.624 2.16V283h-.832v-1.104c-.587.8-1.408 1.2-2.464 1.2-.672 0-1.211-.192-1.616-.576-.405-.395-.608-.917-.608-1.568 0-.704.256-1.253.768-1.648s1.168-.592 1.968-.592 1.451.181 1.952.544c0-.405-.011-.725-.032-.96a3.365 3.365 0 00-.128-.752c-.064-.277-.16-.485-.288-.624-.128-.139-.315-.251-.56-.336-.235-.096-.528-.144-.88-.144-.661 0-1.333.187-2.016.56zm1.696 5.312c.896 0 1.632-.379 2.208-1.136v-1.2c-.523-.384-1.147-.576-1.872-.576-.523 0-.976.128-1.36.384-.384.256-.576.629-.576 1.12 0 .437.149.784.448 1.04.309.245.693.368 1.152.368zm8.384-6.512h2.144v7.2h-.832v-2.688h-1.792L500.696 283h-1.024l2.272-2.88a2.147 2.147 0 01-1.216-.656c-.342-.373-.512-.837-.512-1.392 0-.661.24-1.205.72-1.632.48-.427 1.248-.64 2.304-.64zm-2.144 2.288c0 .427.165.773.496 1.04.33.267.682.4 1.056.4h1.904v-2.944h-1.456c-.683 0-1.19.139-1.52.416-.32.277-.48.64-.48 1.088z" fill="#fff"/><rect x="412" y="260" width="108" height="36" rx="3" stroke="#E4002B" stroke-width="2"/><rect x="412" y="302" width="108" height="36" rx="3" fill="#141414"/><path d="M430.52 313.8l-5.296 5.296 5.52 5.904h-1.136l-5.424-5.84 5.264-5.36h1.072zm-7.744 11.2v-11.2h.88V325h-.88zm9.501-.912c-.704-.704-1.056-1.6-1.056-2.688s.352-1.984 1.056-2.688c.704-.704 1.61-1.056 2.72-1.056 1.109 0 2.016.352 2.72 1.056.704.704 1.056 1.6 1.056 2.688s-.352 1.984-1.056 2.688c-.704.704-1.611 1.056-2.72 1.056-1.11 0-2.016-.352-2.72-1.056zm.64-4.816c-.544.555-.816 1.264-.816 2.128 0 .864.272 1.573.816 2.128.544.555 1.237.832 2.08.832.853 0 1.546-.272 2.08-.816.544-.555.816-1.269.816-2.144 0-.864-.272-1.573-.816-2.128-.544-.555-1.238-.832-2.08-.832-.832 0-1.526.277-2.08.832zM446.315 325v-3.264h-4.672V325h-.832v-7.2h.832v3.152h4.672V317.8h.832v7.2h-.832zm2.299-6.368v-.832h6.56v.832h-2.864V325h-.832v-6.368h-2.864zm8.025 9.568v-10.4h.832v.96c.277-.32.656-.581 1.136-.784.491-.213.992-.32 1.504-.32 1.024 0 1.84.336 2.448 1.008.608.672.912 1.547.912 2.624 0 1.109-.341 2.032-1.024 2.768-.683.725-1.573 1.088-2.672 1.088-.981 0-1.749-.203-2.304-.608v3.664h-.832zm3.248-9.76c-.48 0-.944.112-1.392.336-.437.213-.779.475-1.024.784v4.144a3.972 3.972 0 002.24.656c.864 0 1.557-.283 2.08-.848.533-.565.8-1.291.8-2.176 0-.875-.24-1.573-.72-2.096-.469-.533-1.131-.8-1.984-.8zm5.835.56l-.224-.688a4.26 4.26 0 012.288-.656c.96 0 1.643.24 2.048.72.416.48.624 1.2.624 2.16V325h-.832v-1.104c-.586.8-1.408 1.2-2.464 1.2-.672 0-1.21-.192-1.616-.576-.405-.395-.608-.917-.608-1.568 0-.704.256-1.253.768-1.648s1.168-.592 1.968-.592 1.451.181 1.952.544c0-.405-.01-.725-.032-.96a3.31 3.31 0 00-.128-.752c-.064-.277-.16-.485-.288-.624-.128-.139-.314-.251-.56-.336-.234-.096-.528-.144-.88-.144-.661 0-1.333.187-2.016.56zm1.696 5.312c.896 0 1.632-.379 2.208-1.136v-1.2c-.522-.384-1.146-.576-1.872-.576-.522 0-.976.128-1.36.384-.384.256-.576.629-.576 1.12 0 .437.15.784.448 1.04.31.245.694.368 1.152.368zm11.024-.944l.416.608a2.904 2.904 0 01-1.184.864c-.48.203-.992.304-1.536.304-1.12 0-2.037-.341-2.752-1.024-.704-.683-1.056-1.589-1.056-2.72 0-1.056.341-1.941 1.024-2.656.683-.725 1.536-1.088 2.56-1.088 1.237 0 2.171.299 2.8.896l-.4.672c-.576-.523-1.333-.784-2.272-.784-.779 0-1.445.283-2 .848-.555.565-.832 1.269-.832 2.112 0 .896.283 1.616.848 2.16.565.533 1.28.8 2.144.8.928 0 1.675-.331 2.24-.992zm1.125-4.736v-.832h6.56v.832h-2.864V325h-.832v-6.368h-2.864zM493.096 325v-3.264h-4.672V325h-.832v-7.2h.832v3.152h4.672V317.8h.832v7.2h-.832zm3.58-6l-.224-.688a4.257 4.257 0 012.288-.656c.96 0 1.642.24 2.048.72.416.48.624 1.2.624 2.16V325h-.832v-1.104c-.587.8-1.408 1.2-2.464 1.2-.672 0-1.211-.192-1.616-.576-.406-.395-.608-.917-.608-1.568 0-.704.256-1.253.768-1.648s1.168-.592 1.968-.592 1.45.181 1.952.544c0-.405-.011-.725-.032-.96a3.423 3.423 0 00-.128-.752c-.064-.277-.16-.485-.288-.624-.128-.139-.315-.251-.56-.336-.235-.096-.528-.144-.88-.144-.662 0-1.334.187-2.016.56zm1.696 5.312c.896 0 1.632-.379 2.208-1.136v-1.2c-.523-.384-1.147-.576-1.872-.576-.523 0-.976.128-1.36.384-.384.256-.576.629-.576 1.12 0 .437.149.784.448 1.04.309.245.693.368 1.152.368zm8.383-6.512h2.144v7.2h-.832v-2.688h-1.792L504.211 325h-1.024l2.272-2.88a2.15 2.15 0 01-1.216-.656c-.341-.373-.512-.837-.512-1.392 0-.661.24-1.205.72-1.632.48-.427 1.248-.64 2.304-.64zm-2.144 2.288c0 .427.166.773.496 1.04.331.267.683.4 1.056.4h1.904v-2.944h-1.456c-.682 0-1.189.139-1.52.416-.32.277-.48.64-.48 1.088z" fill="#fff"/><rect x="412" y="302" width="108" height="36" rx="3" stroke="#E4002B" stroke-width="2"/><rect x="412" y="374" width="108" height="36" rx="3" fill="#141414"/><path d="M424.836 397l4.88-11.296h.72l4.88 11.296h-.944l-1.632-3.808h-5.376L425.732 397h-.896zm5.216-10.08l-2.336 5.44h4.656l-2.32-5.44zM442.424 397v-3.264h-4.672V397h-.832v-7.2h.832v3.152h4.672V389.8h.832v7.2h-.832zm3.356 0v-7.2h4.336v.784h-3.504V397h-.832zm10.228 0v-6.368h-3.04l-.096 1.568c-.075 1.013-.197 1.861-.368 2.544-.171.672-.384 1.168-.64 1.488-.245.32-.491.539-.736.656a1.947 1.947 0 01-.848.176l-.064-.816c.117 0 .235-.021.352-.064.128-.043.272-.149.432-.32.171-.181.325-.416.464-.704s.261-.699.368-1.232a12.68 12.68 0 00.24-1.888l.112-2.24h4.656v7.2h-.832zm4.197 0h-.832v-7.2h.832v6l4.8-6h.832v7.2h-.832v-6l-4.8 6zm8.985 0h-.832v-7.2h.832v6l4.8-6h.832v7.2h-.832v-6l-4.8 6zm.272-10.944h.752c0 .395.138.731.416 1.008.277.267.634.4 1.072.4.416 0 .757-.133 1.024-.4.266-.277.4-.613.4-1.008h.752c0 .587-.203 1.077-.608 1.472-.406.384-.928.576-1.568.576-.694 0-1.243-.192-1.648-.576-.395-.384-.592-.875-.592-1.472zm13.48 9.312l.416.608a2.904 2.904 0 01-1.184.864c-.48.203-.992.304-1.536.304-1.12 0-2.037-.341-2.752-1.024-.704-.683-1.056-1.589-1.056-2.72 0-1.056.341-1.941 1.024-2.656.683-.725 1.536-1.088 2.56-1.088 1.237 0 2.171.299 2.8.896l-.4.672c-.576-.523-1.333-.784-2.272-.784-.779 0-1.445.283-2 .848-.555.565-.832 1.269-.832 2.112 0 .896.283 1.616.848 2.16.565.533 1.28.8 2.144.8.928 0 1.675-.331 2.24-.992zm8.116-5.568l-3.552 3.44 3.84 3.76h-1.12l-3.728-3.712 3.488-3.488h1.072zm-5.872 7.2v-7.2h.832v7.2h-.832zm7.974-6l-.224-.688a4.26 4.26 0 012.288-.656c.96 0 1.643.24 2.048.72.416.48.624 1.2.624 2.16V397h-.832v-1.104c-.587.8-1.408 1.2-2.464 1.2-.672 0-1.211-.192-1.616-.576-.405-.395-.608-.917-.608-1.568 0-.704.256-1.253.768-1.648s1.168-.592 1.968-.592 1.451.181 1.952.544c0-.405-.011-.725-.032-.96a3.365 3.365 0 00-.128-.752c-.064-.277-.16-.485-.288-.624-.128-.139-.315-.251-.56-.336-.235-.096-.528-.144-.88-.144-.661 0-1.333.187-2.016.56zm1.696 5.312c.896 0 1.632-.379 2.208-1.136v-1.2c-.523-.384-1.147-.576-1.872-.576-.523 0-.976.128-1.36.384-.384.256-.576.629-.576 1.12 0 .437.149.784.448 1.04.309.245.693.368 1.152.368zm8.384-6.512h2.144v7.2h-.832v-2.688h-1.792L500.696 397h-1.024l2.272-2.88a2.147 2.147 0 01-1.216-.656c-.342-.373-.512-.837-.512-1.392 0-.661.24-1.205.72-1.632.48-.427 1.248-.64 2.304-.64zm-2.144 2.288c0 .427.165.773.496 1.04.33.267.682.4 1.056.4h1.904v-2.944h-1.456c-.683 0-1.19.139-1.52.416-.32.277-.48.64-.48 1.088z" fill="#fff"/><rect x="412" y="374" width="108" height="36" rx="3" stroke="#E4002B" stroke-width="2"/><rect x="412" y="416" width="108" height="36" rx="3" fill="#141414"/><path d="M430.52 427.8l-5.296 5.296 5.52 5.904h-1.136l-5.424-5.84 5.264-5.36h1.072zm-7.744 11.2v-11.2h.88V439h-.88zm9.501-.912c-.704-.704-1.056-1.6-1.056-2.688s.352-1.984 1.056-2.688c.704-.704 1.61-1.056 2.72-1.056 1.109 0 2.016.352 2.72 1.056.704.704 1.056 1.6 1.056 2.688s-.352 1.984-1.056 2.688c-.704.704-1.611 1.056-2.72 1.056-1.11 0-2.016-.352-2.72-1.056zm.64-4.816c-.544.555-.816 1.264-.816 2.128 0 .864.272 1.573.816 2.128.544.555 1.237.832 2.08.832.853 0 1.546-.272 2.08-.816.544-.555.816-1.269.816-2.144 0-.864-.272-1.573-.816-2.128-.544-.555-1.238-.832-2.08-.832-.832 0-1.526.277-2.08.832zM446.315 439v-3.264h-4.672V439h-.832v-7.2h.832v3.152h4.672V431.8h.832v7.2h-.832zm2.299-6.368v-.832h6.56v.832h-2.864V439h-.832v-6.368h-2.864zm8.025 9.568v-10.4h.832v.96c.277-.32.656-.581 1.136-.784.491-.213.992-.32 1.504-.32 1.024 0 1.84.336 2.448 1.008.608.672.912 1.547.912 2.624 0 1.109-.341 2.032-1.024 2.768-.683.725-1.573 1.088-2.672 1.088-.981 0-1.749-.203-2.304-.608v3.664h-.832zm3.248-9.76c-.48 0-.944.112-1.392.336-.437.213-.779.475-1.024.784v4.144a3.972 3.972 0 002.24.656c.864 0 1.557-.283 2.08-.848.533-.565.8-1.291.8-2.176 0-.875-.24-1.573-.72-2.096-.469-.533-1.131-.8-1.984-.8zm5.835.56l-.224-.688a4.26 4.26 0 012.288-.656c.96 0 1.643.24 2.048.72.416.48.624 1.2.624 2.16V439h-.832v-1.104c-.586.8-1.408 1.2-2.464 1.2-.672 0-1.21-.192-1.616-.576-.405-.395-.608-.917-.608-1.568 0-.704.256-1.253.768-1.648s1.168-.592 1.968-.592 1.451.181 1.952.544c0-.405-.01-.725-.032-.96a3.31 3.31 0 00-.128-.752c-.064-.277-.16-.485-.288-.624-.128-.139-.314-.251-.56-.336-.234-.096-.528-.144-.88-.144-.661 0-1.333.187-2.016.56zm1.696 5.312c.896 0 1.632-.379 2.208-1.136v-1.2c-.522-.384-1.146-.576-1.872-.576-.522 0-.976.128-1.36.384-.384.256-.576.629-.576 1.12 0 .437.15.784.448 1.04.31.245.694.368 1.152.368zm11.024-.944l.416.608a2.904 2.904 0 01-1.184.864c-.48.203-.992.304-1.536.304-1.12 0-2.037-.341-2.752-1.024-.704-.683-1.056-1.589-1.056-2.72 0-1.056.341-1.941 1.024-2.656.683-.725 1.536-1.088 2.56-1.088 1.237 0 2.171.299 2.8.896l-.4.672c-.576-.523-1.333-.784-2.272-.784-.779 0-1.445.283-2 .848-.555.565-.832 1.269-.832 2.112 0 .896.283 1.616.848 2.16.565.533 1.28.8 2.144.8.928 0 1.675-.331 2.24-.992zm1.125-4.736v-.832h6.56v.832h-2.864V439h-.832v-6.368h-2.864zM493.096 439v-3.264h-4.672V439h-.832v-7.2h.832v3.152h4.672V431.8h.832v7.2h-.832zm3.58-6l-.224-.688a4.257 4.257 0 012.288-.656c.96 0 1.642.24 2.048.72.416.48.624 1.2.624 2.16V439h-.832v-1.104c-.587.8-1.408 1.2-2.464 1.2-.672 0-1.211-.192-1.616-.576-.406-.395-.608-.917-.608-1.568 0-.704.256-1.253.768-1.648s1.168-.592 1.968-.592 1.45.181 1.952.544c0-.405-.011-.725-.032-.96a3.423 3.423 0 00-.128-.752c-.064-.277-.16-.485-.288-.624-.128-.139-.315-.251-.56-.336-.235-.096-.528-.144-.88-.144-.662 0-1.334.187-2.016.56zm1.696 5.312c.896 0 1.632-.379 2.208-1.136v-1.2c-.523-.384-1.147-.576-1.872-.576-.523 0-.976.128-1.36.384-.384.256-.576.629-.576 1.12 0 .437.149.784.448 1.04.309.245.693.368 1.152.368zm8.383-6.512h2.144v7.2h-.832v-2.688h-1.792L504.211 439h-1.024l2.272-2.88a2.15 2.15 0 01-1.216-.656c-.341-.373-.512-.837-.512-1.392 0-.661.24-1.205.72-1.632.48-.427 1.248-.64 2.304-.64zm-2.144 2.288c0 .427.166.773.496 1.04.331.267.683.4 1.056.4h1.904v-2.944h-1.456c-.682 0-1.189.139-1.52.416-.32.277-.48.64-.48 1.088z" fill="#fff"/><rect x="412" y="416" width="108" height="36" rx="3" stroke="#E4002B" stroke-width="2"/><rect x="526" y="146" width="108" height="36" rx="3" fill="#141414"/><path d="M544.52 157.8l-5.296 5.296 5.52 5.904h-1.136l-5.424-5.84 5.264-5.36h1.072zm-7.744 11.2v-11.2h.88V169h-.88zm9.501-.912c-.704-.704-1.056-1.6-1.056-2.688s.352-1.984 1.056-2.688c.704-.704 1.61-1.056 2.72-1.056 1.109 0 2.016.352 2.72 1.056.704.704 1.056 1.6 1.056 2.688s-.352 1.984-1.056 2.688c-.704.704-1.611 1.056-2.72 1.056-1.11 0-2.016-.352-2.72-1.056zm.64-4.816c-.544.555-.816 1.264-.816 2.128 0 .864.272 1.573.816 2.128.544.555 1.237.832 2.08.832.853 0 1.546-.272 2.08-.816.544-.555.816-1.269.816-2.144 0-.864-.272-1.573-.816-2.128-.544-.555-1.238-.832-2.08-.832-.832 0-1.526.277-2.08.832zM560.315 169v-3.264h-4.672V169h-.832v-7.2h.832v3.152h4.672V161.8h.832v7.2h-.832zm2.299-6.368v-.832h6.56v.832h-2.864V169h-.832v-6.368h-2.864zm8.025 9.568v-10.4h.832v.96c.277-.32.656-.581 1.136-.784.491-.213.992-.32 1.504-.32 1.024 0 1.84.336 2.448 1.008.608.672.912 1.547.912 2.624 0 1.109-.341 2.032-1.024 2.768-.683.725-1.573 1.088-2.672 1.088-.981 0-1.749-.203-2.304-.608v3.664h-.832zm3.248-9.76c-.48 0-.944.112-1.392.336-.437.213-.779.475-1.024.784v4.144a3.972 3.972 0 002.24.656c.864 0 1.557-.283 2.08-.848.533-.565.8-1.291.8-2.176 0-.875-.24-1.573-.72-2.096-.469-.533-1.131-.8-1.984-.8zm5.835.56l-.224-.688a4.26 4.26 0 012.288-.656c.96 0 1.643.24 2.048.72.416.48.624 1.2.624 2.16V169h-.832v-1.104c-.586.8-1.408 1.2-2.464 1.2-.672 0-1.21-.192-1.616-.576-.405-.395-.608-.917-.608-1.568 0-.704.256-1.253.768-1.648s1.168-.592 1.968-.592 1.451.181 1.952.544c0-.405-.01-.725-.032-.96a3.31 3.31 0 00-.128-.752c-.064-.277-.16-.485-.288-.624-.128-.139-.314-.251-.56-.336-.234-.096-.528-.144-.88-.144-.661 0-1.333.187-2.016.56zm1.696 5.312c.896 0 1.632-.379 2.208-1.136v-1.2c-.522-.384-1.146-.576-1.872-.576-.522 0-.976.128-1.36.384-.384.256-.576.629-.576 1.12 0 .437.15.784.448 1.04.31.245.694.368 1.152.368zm11.024-.944l.416.608a2.904 2.904 0 01-1.184.864c-.48.203-.992.304-1.536.304-1.12 0-2.037-.341-2.752-1.024-.704-.683-1.056-1.589-1.056-2.72 0-1.056.341-1.941 1.024-2.656.683-.725 1.536-1.088 2.56-1.088 1.237 0 2.171.299 2.8.896l-.4.672c-.576-.523-1.333-.784-2.272-.784-.779 0-1.445.283-2 .848-.555.565-.832 1.269-.832 2.112 0 .896.283 1.616.848 2.16.565.533 1.28.8 2.144.8.928 0 1.675-.331 2.24-.992zm1.125-4.736v-.832h6.56v.832h-2.864V169h-.832v-6.368h-2.864zM607.096 169v-3.264h-4.672V169h-.832v-7.2h.832v3.152h4.672V161.8h.832v7.2h-.832zm3.58-6l-.224-.688a4.257 4.257 0 012.288-.656c.96 0 1.642.24 2.048.72.416.48.624 1.2.624 2.16V169h-.832v-1.104c-.587.8-1.408 1.2-2.464 1.2-.672 0-1.211-.192-1.616-.576-.406-.395-.608-.917-.608-1.568 0-.704.256-1.253.768-1.648s1.168-.592 1.968-.592 1.45.181 1.952.544c0-.405-.011-.725-.032-.96a3.423 3.423 0 00-.128-.752c-.064-.277-.16-.485-.288-.624-.128-.139-.315-.251-.56-.336-.235-.096-.528-.144-.88-.144-.662 0-1.334.187-2.016.56zm1.696 5.312c.896 0 1.632-.379 2.208-1.136v-1.2c-.523-.384-1.147-.576-1.872-.576-.523 0-.976.128-1.36.384-.384.256-.576.629-.576 1.12 0 .437.149.784.448 1.04.309.245.693.368 1.152.368zm8.383-6.512h2.144v7.2h-.832v-2.688h-1.792L618.211 169h-1.024l2.272-2.88a2.15 2.15 0 01-1.216-.656c-.341-.373-.512-.837-.512-1.392 0-.661.24-1.205.72-1.632.48-.427 1.248-.64 2.304-.64zm-2.144 2.288c0 .427.166.773.496 1.04.331.267.683.4 1.056.4h1.904v-2.944h-1.456c-.682 0-1.189.139-1.52.416-.32.277-.48.64-.48 1.088z" fill="#fff"/><rect x="526" y="146" width="108" height="36" rx="3" stroke="#E4002B" stroke-width="2"/></svg>