<svg width="256" height="65" viewBox="0 0 256 65" fill="none" xmlns="http://www.w3.org/2000/svg"><path d="M22.749 0C18.019 0 12.342 4.65 7.74 12.456 2.838 20.614 0 30.614 0 39.342 0 52.15 7.01 65 22.749 65c15.74 0 22.749-12.85 22.749-25.658 0-8.728-2.838-18.772-7.74-26.842C33.155 4.65 27.478 0 22.747 0zM145.61 19.123h15.911v42.324h17.073V19.123h15.911V3.465H145.61v15.658zm85.362 0H256V3.465h-25.028c-23.007 0-35.263 11.667-35.263 29.035 0 17.368 12.299 29.035 35.263 29.035H256V45.833h-25.028c-10.665 0-17.588-3.903-17.588-13.333s6.923-13.377 17.588-13.377zM110.906 3.509l-9.117 34.649-9.116-34.65H62.527v58.07H79.6v-47.28l12.428 47.193h19.566l12.428-47.237v47.237h17.073V3.51h-30.189z" fill="#FF0109"/></svg>