<svg width="189" height="48" viewBox="0 0 189 48" fill="none" xmlns="http://www.w3.org/2000/svg"><path d="M16.795 0c-3.492 0-7.683 3.433-11.08 9.198C2.095 15.223 0 22.608 0 29.053 0 38.51 5.175 48 16.795 48c11.62 0 16.795-9.49 16.795-18.947 0-6.446-2.095-13.863-5.715-19.822C24.478 3.433 20.287 0 16.795 0zm90.706 14.121h11.747v31.256h12.604V14.12h11.747V2.56h-36.098v11.563zm63.021 0H189V2.56h-18.478c-16.985 0-26.034 8.615-26.034 21.441 0 12.826 9.08 21.441 26.034 21.441H189V33.846h-18.478c-7.873 0-12.985-2.882-12.985-9.846s5.112-9.879 12.985-9.879zM81.88 2.591l-6.73 25.587-6.732-25.587H46.163v42.883h12.604V10.559l9.175 34.85h14.446l9.175-34.883V45.41h12.604V2.59H81.88z" fill="#E4002B"/></svg>