<svg width="21" height="22" viewBox="0 0 21 22" fill="none" xmlns="http://www.w3.org/2000/svg"><path fill-rule="evenodd" clip-rule="evenodd" d="M2.445 4.66C2.636 3.634 3.58.002 7.548 0c3.969-.002 3.564 3.63 3.375 4.656L8.655 16.903C8.373 18.426 7.53 22 3.473 22c-4.057.001-3.575-3.572-3.293-5.095l.25-1.347h3.245c-.537 2.9-.623 3.69.308 3.688.811 0 1.123-.703 1.426-2.342l.749-4.042a3.657 3.657 0 01-1.72.527c-3.336 0-2.988-3.337-2.765-4.537l.772-4.192zm5.403-.94a.82.82 0 00-.462-.896.8.8 0 00-.35-.07 1.336 1.336 0 00-.734.3 1.355 1.355 0 00-.438.667L4.71 9.96a.856.856 0 00.47.883c.107.052.224.08.342.083.26-.008.51-.098.716-.255.207-.158.36-.376.44-.625L7.847 3.72zm9.265-.354h-4.869l.581-3.134H21l-.586 3.164-6.646 18.368H10.4l6.712-18.398z" fill="#141414"/></svg>