<svg width="91" height="16" viewBox="0 0 91 16" fill="none" xmlns="http://www.w3.org/2000/svg"><path fill-rule="evenodd" clip-rule="evenodd" d="M18.103 15.26H4.149c0-.058-.036-.045-.086-.025-.031.011-.067.025-.103.025-.157-.031-.314-.052-.471-.073-.315-.042-.629-.084-.943-.21-.849-.283-1.603-.754-2.075-1.603a6.385 6.385 0 01-.282-.754 2.934 2.934 0 01-.095-.377A2.834 2.834 0 000 11.866v-7.92c.094-.095.094-.283.094-.377C.283 2.343.943 1.4 2.074.929 2.83.646 3.677.552 4.526.552h13.388c.189 0 .283.094.283.282V3.38c0 .283-.094.283-.283.283H5.186c-.566 0-.755.188-.755.754V11.3c0 .471.189.754.66.754h8.58c.095 0 .189 0 .189-.188V9.603c0-.189 0-.189-.189-.189H7.166c-.377 0-.472 0-.472-.471V6.586c0-.189 0-.283.047-.33.048-.047.142-.047.33-.047h10.655c.377 0 .377.094.377.377v8.203c.188.188.188.377 0 .471zm37.714 0H43.654c-.472 0-.943-.094-1.509-.283-1.225-.283-1.885-1.131-2.263-2.263-.094-.377-.188-.848-.188-1.32V4.323c0-.566.094-1.132.283-1.603.377-.849.943-1.509 1.885-1.791.755-.283 1.509-.377 2.357-.377h11.503c.283 0 .283.094.283.282v2.452c0 .283-.094.377-.377.377H44.691c-.472.094-.66.188-.66.66v1.603c0 .094 0 .141.023.165.024.023.071.023.165.023h10.938c.377 0 .471 0 .471.472v2.168c0 .283 0 .425-.07.495-.071.071-.213.071-.496.071H44.031c-.094 0-.094 0-.094.094v1.98c0 .283.094.377.377.472.094 0 .165.023.236.047.07.023.141.047.235.047h10.749c.283 0 .283.094.283.283v2.546c.188.282.094.377 0 .471zm-30.737 0h12.07c.147-.074.18-.147.231-.266.015-.033.03-.07.051-.111v-2.546c0-.283-.094-.377-.377-.377H26.023c-.377 0-.566-.189-.566-.566V9.51c0-.095 0-.095.095-.095h10.937c.565 0 .565-.094.565-.565V6.68c0-.236 0-.354-.059-.412-.058-.06-.176-.06-.412-.06H25.74c-.07 0-.124.006-.163.01-.12.014-.12.014-.12-.198V4.511c0-.565.189-.754.755-.754h10.56c.565 0 .565-.094.565-.566V.93c0-.283 0-.377-.283-.377H25.646c-.754 0-1.603.094-2.357.377-1.226.471-1.886 1.414-2.075 2.64-.094.282-.094.66-.094.942v6.883c0 .66.189 1.226.377 1.792.378.943 1.132 1.508 2.075 1.791.471.189.943.283 1.414.283 0 0 .094-.094.094 0zm52.705 0c-.189-.094-.189-.283-.189-.471V10.45c0-.094 0-.188-.094-.282l-2.828-3.112c-.755-.754-1.415-1.508-2.075-2.263-.377-.377-.73-.778-1.084-1.178-.353-.4-.707-.802-1.084-1.179a8.119 8.119 0 00-.613-.66c-.212-.212-.424-.424-.613-.66-.036-.036-.058-.072-.077-.103-.031-.05-.053-.085-.112-.085-.094-.189-.094-.283.19-.377h4.242c.566 0 .943.377 1.32.754.377.377.73.778 1.084 1.178.354.401.707.802 1.084 1.179.849.848 1.697 1.79 2.545 2.733l.001.001.377.377c.047.047.071.071.095.071.023 0 .047-.024.094-.07.188-.236.4-.449.613-.66.212-.213.424-.425.612-.66.755-.85 1.51-1.698 2.358-2.452.282-.283.565-.59.848-.896.283-.306.566-.613.849-.895.283-.378.754-.566 1.225-.566h4.243c.233-.078.21.1.195.219-.003.025-.006.047-.006.064-.094.188-.283.377-.472.565a2.43 2.43 0 01-.33.377c-.117.118-.235.236-.33.378-.377.377-.73.777-1.084 1.178-.353.4-.707.802-1.084 1.179-.377.377-.73.778-1.084 1.178-.354.401-.707.802-1.085 1.179-.305.305-.594.625-.88.942-.423.467-.839.927-1.288 1.32a11.29 11.29 0 00-.519.566c-.165.189-.33.378-.518.566-.095.094-.095.094-.095.189v4.431c0 .189 0 .377-.188.471-1.603-.188-2.923-.188-4.243-.188zm-16.217-.095c.283 0 .566 0 .849.095 3.96 0 8.014 0 11.785.094.189-.094.283-.188.283-.377v-2.263c0-.566 0-.566-.566-.566H63.548c-.283-.094-.471-.282-.471-.565V.929c0-.189-.095-.283-.283-.283h-3.677c-.189 0-.283.094-.283.283v9.899c0 .566 0 1.038.094 1.509.094.566.189 1.131.566 1.603.471.754 1.225 1.037 2.074 1.226z" fill="#141414"/></svg>