<svg width="62" height="16" viewBox="0 0 62 16" fill="none" xmlns="http://www.w3.org/2000/svg"><path d="M5.51 0C4.363 0 2.99 1.144 1.874 3.066.687 5.074 0 7.536 0 9.684 0 12.837 1.698 16 5.51 16c3.811 0 5.509-3.163 5.509-6.316 0-2.148-.687-4.62-1.875-6.607C8.03 1.144 6.655 0 5.51 0zm29.755 4.707h3.853v10.419h4.135V4.707h3.854V.853H35.265v3.854zm20.673 0H62V.853h-6.062c-5.572 0-8.54 2.872-8.54 7.147s2.979 7.147 8.54 7.147H62v-3.865h-6.062c-2.582 0-4.26-.96-4.26-3.282 0-2.321 1.678-3.293 4.26-3.293zM26.86.864l-2.208 8.529-2.208-8.53h-7.3v14.295h4.134V3.52l3.01 11.616h4.739l3.01-11.627v11.627h4.134V.864h-7.31z" fill="#141414"/></svg>