<svg width="35" height="35" viewBox="0 0 35 35" fill="none" xmlns="http://www.w3.org/2000/svg"><path d="M17.5 32.938c-8.438 0-15.375-7-15.375-15.438 0-1.75.313-3.438.875-5.063l9 17.5c.125.25.25.438.563.438.312 0 .437-.188.562-.438l4.188-9.312c.062-.125.125-.188.187-.188.125 0 .125.125.188.188l4.25 9.313c.125.25.25.437.562.437.313 0 .438-.188.563-.438l9-17.5a14.86 14.86 0 01.874 5.063c-.062 8.438-7 15.438-15.437 15.438zm0-19.438c-.125 0-.125-.125-.188-.188L12.5 2.938a14.754 14.754 0 015-.876c1.75 0 3.438.313 5 .876l-4.813 10.374c-.062.063-.062.188-.187.188zm-5.063 11.25c-.124 0-.124-.125-.187-.188L4.375 9.438C5.75 7.188 7.75 5.314 10.063 4l5.562 12c.125.25.25.313.438.313h2.875c.187 0 .312-.063.437-.313l5.5-12c2.313 1.313 4.313 3.188 5.688 5.438L22.75 24.562c-.063.125-.125.188-.188.188-.125 0-.125-.125-.187-.188l-3-6.625c-.125-.25-.25-.312-.438-.312h-2.875c-.187 0-.312.063-.437.313l-3 6.625c-.063.062-.063.187-.188.187zM17.5 35C27.188 35 35 27.187 35 17.5 35 7.812 27.187 0 17.5 0 7.812 0 0 7.813 0 17.5 0 27.188 7.813 35 17.5 35z" fill="#000"/></svg>