<svg width="398" height="82" viewBox="0 0 398 82" fill="none" xmlns="http://www.w3.org/2000/svg"><path d="M171.744 20.017v-1.93c0-.482-.241-.964-1.206-.964-.965-.241-3.136-.241-5.065-.241-5.307 0-8.684 1.93-8.684 7.959v34.005c0 .724.482 1.206 1.206 1.206h2.653c.724 0 1.207-.482 1.207-1.206V32.558h8.924c.724 0 .965-.482.965-.964v-1.93c0-.723-.482-.965-.965-.965h-9.166v-3.858c0-3.377.724-3.86 3.86-3.86h5.065c.724-.24 1.206-.482 1.206-.964zm18.09 11.577v-2.653c0-.723-.482-.964-1.206-.964-4.824 0-8.684.24-11.819 1.688-.724.241-.965.723-.965 1.206v27.494c0 .723.482 1.206.965 1.206h2.894c.724 0 .965-.483.965-1.206V33.04c2.171-.482 4.101-.482 7.96-.482 1.206 0 1.206-.241 1.206-.965zm24.845 26.046V30.87c0-.724-.241-.965-1.206-1.206a49.288 49.288 0 00-10.614-1.206c-8.442 0-12.543 5.547-12.543 13.988v3.86c0 8.44 3.86 13.987 12.543 13.987 3.377 0 7.478-.482 10.614-1.206.965-.482 1.206-.723 1.206-1.447zm-5.066-2.17a52.052 52.052 0 01-6.754.482c-5.547 0-7.477-3.859-7.477-9.888v-3.859c0-6.03 1.688-9.888 7.477-9.888 2.413 0 5.066.241 6.754.482v22.67zm46.313 3.135v-20.5c0-5.788-3.377-9.888-10.131-9.888h-1.206c-3.377 0-5.789.482-7.478 1.93-1.688-1.689-4.1-1.93-7.477-1.93h-1.206c-6.754 0-10.131 4.1-10.131 9.888v20.5c0 .724.482 1.206.965 1.206h2.894c.724 0 .965-.482.965-1.206v-20.5c0-4.823 2.171-5.547 5.066-5.547h1.206c3.618 0 4.824.724 4.824 3.859v22.188c0 .724.482 1.206.965 1.206h2.894c.724 0 .965-.482.965-1.206V36.417c0-3.136 1.206-3.859 4.824-3.859h1.206c3.136 0 5.066.724 5.066 5.547v20.5c0 .724.482 1.206.965 1.206h2.894c1.689 0 1.93-.482 1.93-1.206zm27.979-13.988V41.48c0-7.958-4.341-13.264-12.543-13.264-8.201 0-12.784 5.065-12.784 13.264v5.065c0 10.612 6.272 13.747 13.026 13.747 3.859 0 6.995-.24 10.131-.964.964-.242 1.206-.483 1.206-1.206v-1.93c0-.482-.483-.723-.965-.723h-.241c-2.654.482-6.754.723-10.131.723-5.307 0-7.96-2.411-7.96-9.164v-1.206h19.055c.724 0 1.206-.483 1.206-1.206zm-5.065-2.653h-15.196v-.483c0-6.029 2.653-8.923 7.718-8.923 5.066 0 7.478 2.412 7.478 8.923v.483zm46.555 5.547V29.664c0-.724-.483-1.206-1.206-1.206h-2.654c-.723 0-1.206.482-1.206 1.206V47.51c0 6.27-2.412 8.441-6.995 8.441-1.447 0-2.894-.241-4.583-.723V29.664c0-.724-.482-1.206-1.206-1.206h-2.895c-.723 0-1.206.482-1.206 1.206v25.565c-1.688.482-3.135.723-4.583.723-4.824 0-6.995-2.17-6.995-8.441V29.664c0-.724-.482-1.206-1.206-1.206h-2.653c-.724 0-1.206.482-1.206 1.206V47.51c0 10.13 5.548 12.782 11.578 12.782 2.895 0 5.307-.482 7.478-1.447 2.412.965 4.583 1.447 7.477 1.447 6.513 0 12.061-2.653 12.061-12.782zm29.189-1.206v-4.341c0-8.441-4.342-13.747-12.784-13.747-8.443 0-12.784 5.547-12.784 13.747v4.341c0 8.441 4.341 13.747 12.784 13.747 8.442.241 12.784-5.306 12.784-13.747zm-5.065 0c0 5.788-2.412 9.406-7.719 9.406s-7.719-3.618-7.719-9.406v-4.341c0-5.788 2.412-9.406 7.719-9.406s7.719 3.618 7.719 9.406v4.341zm22.913-14.711v-2.653c0-.723-.483-.964-1.206-.964-4.825 0-8.684.24-11.82 1.688-.723.241-.965.723-.965 1.206v27.494c0 .723.483 1.206.965 1.206h2.895c.723 0 .965-.483.965-1.206V33.04c2.171-.482 4.1-.482 7.96-.482 1.206 0 1.206-.241 1.206-.965zm25.567 27.494c0-.241 0-.483-.241-.483l-12.784-15.194 12.543-13.506c.241-.24.241-.482.241-.723s-.241-.724-.965-.724h-3.618c-.483 0-.724 0-1.206.483l-11.337 12.782V18.329c0-.724-.483-1.206-1.206-1.206h-2.654c-.723 0-1.206.482-1.206 1.206v40.518c0 .723.483 1.206 1.206 1.206h2.654c.723 0 1.206-.483 1.206-1.206V45.34l11.337 13.988c.482.482.723.724 1.206.724h4.101c.482-.242.723-.483.723-.965z" fill="#555557"/><path d="M148.346 58.364V22.43c0-.723-.482-1.206-1.206-1.206h-5.307c-.723 0-1.206.483-1.206 1.206v35.935c0 .724.483 1.206 1.206 1.206h5.307c.724-.241 1.206-.723 1.206-1.206zm-27.498.965V21.464c-2.895 0-7.478 1.93-7.478 6.03V53.3c-1.688.24-4.1.482-5.548.482-4.824 0-6.03-3.376-6.03-7.959v-18.57c-.241-4.583-5.307-5.789-7.478-5.789v24.118c0 8.682 4.342 14.23 13.508 14.23 1.448 0 4.342-.483 5.548-.724v.482c1.206 7.477-7.96 4.583-12.784 4.1-3.618 0-6.03 2.894-6.754 6.27 2.17.724 8.925 1.448 13.749 1.93 8.684.241 13.267-4.582 13.267-12.541zm13.749-.965V22.43c0-.723-.483-1.206-1.206-1.206h-5.307c-.723 0-1.206.483-1.206 1.206v35.935c0 .724.483 1.206 1.206 1.206h5.307c.723-.241 1.206-.723 1.206-1.206zm-3.86-47.27c2.171 0 3.86 1.688 3.86 3.859 0 2.17-1.689 3.858-3.86 3.858-2.17 0-3.859-1.688-3.859-3.858 0-1.93 1.689-3.86 3.859-3.86zm13.991 0c2.171 0 3.859 1.688 3.859 3.859 0 2.17-1.688 3.858-3.859 3.858-2.171 0-3.86-1.688-3.86-3.858 0-1.93 1.689-3.86 3.86-3.86z" fill="#2584C4"/><path fill-rule="evenodd" clip-rule="evenodd" d="M48.67 23.023C44.901 12.15 55.913.495 64.972.147c5.428 2.831 10.089 10.266 9.856 20.356-.711 12.43-9.508 23.144-19.08 33.014-.535-12.036-3.09-19.708-7.08-30.494z" fill="#9BE400"/><path fill-rule="evenodd" clip-rule="evenodd" d="M27.31 81.897c-1.515-12.136 3.413-22.49 8.304-28.802 2.324-2.964 4.11-5.669 5.47-8.16 2.57 1.113 9.477 4.736 13.282 10.618-.553 8.533-6.859 24.062-27.056 26.344z" fill="#3E7FCA"/><path fill-rule="evenodd" clip-rule="evenodd" d="M19.679 35.802C3.604 31.307-.361 17.188.357 7.692c15.61-6.326 32.408.154 42.108 13.66 6.8 9.467 11.058 21.604 11.922 32.196-4.666-6.157-10.558-9.724-18.064-12.517-5.134-1.91-9.877-3.174-16.644-5.229z" fill="#E4B200"/></svg>