<svg width="1202" height="289" viewBox="0 0 1202 289" fill="none" xmlns="http://www.w3.org/2000/svg"><path opacity=".1" fill-rule="evenodd" clip-rule="evenodd" d="M72.896 138.691l-1.138-13.051h-2.374l-2.454 13.078-27.517 147.373H0L52.82 3.265h38.231l14.226 147.364 1.147 13.087h2.382l2.445-13.078 27.518-147.39h39.404l-52.812 282.807h-38.23L72.895 138.691zM210.011 3.203h42.978L200.178 286.02H157.19L210.011 3.203zm94.901 135.408l-1.147-13.078h-2.383l-2.445 13.078-27.517 147.364h-39.404L284.837 3.149h38.23l14.226 147.374 1.147 13.068h2.391l2.436-13.068L370.829 3.131h39.404l-52.82 282.818h-38.231l-14.27-147.338zm121.512-77.397C428.949 47.737 441.431.027 493.994 0c52.563-.027 47.21 47.692 44.703 61.161l-30.042 160.887c-3.734 20.007-14.892 66.934-68.62 66.952-53.727.018-47.343-46.918-43.609-66.926l3.307-17.694h42.979c-7.113 38.093-8.251 48.466 4.072 48.448 10.749 0 14.874-9.243 18.893-30.771l9.913-53.102a48.71 48.71 0 01-22.787 6.931c-44.17 0-39.565-43.841-36.613-59.605l10.234-55.067zm71.553-12.347c.303-1.57.25-3.186-.156-4.732a10.666 10.666 0 00-10.611-7.963 17.782 17.782 0 00-15.505 12.704l-15.302 81.96a11.16 11.16 0 002.535 8.76 11.14 11.14 0 008.223 3.934 16.628 16.628 0 009.479-3.357 16.649 16.649 0 005.814-8.208l15.523-83.099zm122.694-4.653h-64.477l7.691-41.171h108.264l-7.762 41.562-88.019 241.29h-44.579l88.882-241.681zm72.185-41.207h98.288l-8.001 42.701h-55.319l-13.87 74.265h39.795l-8.481 45.371H705.49l-14.483 77.788h55.31l-8.002 42.701h-98.306L692.856 3.007zm200.204-.062h41.787L837.448 285.77H794.47l8.241-282.809h41.787l-7.548 155.452-.622 11.92h2.391l3.806-11.929L893.06 2.945zm61.294 0h98.316l-8 42.701h-55.331l-13.869 74.265h39.8l-8.46 45.37h-39.804l-14.51 77.788h55.324l-7.998 42.702h-98.307L954.354 2.945zm142.256 135.39l-1.14-13.077h-2.38l-2.45 13.077-27.56 147.373h-39.41l52.87-282.835h38.23l14.27 147.374 1.18 13.095h2.39l2.43-13.086L1162.6 2.882h39.4l-52.8 282.826h-38.23l-14.36-147.373z" fill="#fff"/></svg>