<svg width="116" height="85" viewBox="0 0 116 85" fill="none" xmlns="http://www.w3.org/2000/svg"><path fill-rule="evenodd" clip-rule="evenodd" d="M98.397.294c3.78 1.153 7.497 1.874 10.897 3.532 2.133 1.04 3.93 2.445 5.076 4.53 1.108 2.013 1.014 3.98-.305 5.877-1.043 1.499-2.481 2.557-4.074 3.444-3.375 1.879-6.763 3.736-9.939 5.93-1.269.877-2.53 1.774-3.471 3.009-.211.276-.376.242-.642.128-2.798-1.19-5.666-2.196-8.579-3.105.066-.363.402-.3.608-.377 5.566-2.08 11.114-4.193 16.309-7.081a19.078 19.078 0 002.909-1.96c2.641-2.185 1.034-5.226-1.131-6.162-.5-.216-.966-.222-1.457.126C93.381 16.12 80.76 20.639 67.129 22.59c-16.255 2.327-32.3 1.295-48.077-3.226-5.237-1.5-10.294-3.44-14.887-6.38-1.217-.778-2.357-1.653-3.334-2.725 1.923 1.117 3.88 2.16 5.917 3.058 5.922 2.608 12.145 4.215 18.548 5.16 17.965 2.65 35.686 1.401 53.15-3.376 6.087-1.665 11.945-3.925 17.445-7.001.775-.434 1.535-.89 2.19-1.49 1.794-1.643 2.063-3.471.82-5.533-.13-.216-.272-.425-.504-.784z" fill="#fff"/><path fill-rule="evenodd" clip-rule="evenodd" d="M.831 49.269C31.536 21.22 82.68 20.619 114.113 48.05c-.169.126-.265-.036-.362-.106-12.339-8.849-26.107-14.01-41.23-15.605-16.022-1.689-31.403.693-46.083 7.333a80.865 80.865 0 00-15.352 9.102c-.458.345-.909.512-1.492.506-2.872-.026-5.744-.011-8.763-.011zM69.209 85c-2.935-.613-5.44-1.984-7.784-3.626-4.691-3.287-8.185-7.508-10.8-12.385-.315-.587-.642-.825-1.368-.802-2.19.07-2.205.035-2.155 2.127.049 2.022.11 4.044.21 6.064.025.534-.119.71-.704.687a39.335 39.335 0 00-3.237 0c-.607.026-.716-.184-.69-.701.234-4.588.31-9.178.187-13.77-.041-1.503-.117-3.005-.177-4.507-.011-.292-.123-.618.415-.605 3.7.088 7.414-.244 11.099.202 2.232.27 4.118 1.172 4.726 3.434.847 3.158-.874 5.957-3.569 6.578-.464.107-.345.302-.2.576 2.122 4.007 4.68 7.74 7.837 11.107 1.907 2.033 3.997 3.886 6.21 5.621zM47.196 60.538c.012.82-.124 4.044-.123 4.836 0 .246-.036.51.373.498 1.627-.048 3.274.16 4.867-.306 1.659-.486 2.332-1.549 2.123-3.299-.166-1.377-1.163-2.239-2.805-2.307-1.28-.053-2.566.014-3.848-.01-.489-.009-.592.2-.587.588zm-8.604 6.563c-.038 1.881-.181 3.64-.703 5.35-.96 3.147-3.04 4.819-6.096 5.235-1.867.253-3.725.242-5.574-.158-2.654-.573-4.418-2.245-5.216-4.951-1.015-3.442-1.02-6.94-.135-10.412.806-3.162 2.785-5.005 5.86-5.509 1.944-.318 3.89-.324 5.818.078 2.93.612 4.686 2.558 5.479 5.546.427 1.61.54 3.262.567 4.821zm-4.261.124c-.009-1.69-.048-3.376-.548-5.005-.48-1.567-1.434-2.638-3.012-2.884-3.73-.582-5.297.825-5.846 3.429-.62 2.938-.635 5.91.03 8.843.569 2.507 1.97 3.5 4.612 3.468 2.448-.03 3.824-1.157 4.38-3.592.32-1.4.384-2.826.384-4.259zM14.22 71.732c.28-4.477.274-8.876-.004-13.268-.05-.799.162-.98.942-.957 2.022.057 2.025.018 1.932 2.004-.26 5.475-.214 10.95.066 16.421.035.686-.14.878-.82.835-1.05-.065-2.248.269-3.118-.134-.876-.404-1.202-1.648-1.762-2.528-2.382-3.74-4.785-7.467-7.318-11.109a1.092 1.092 0 00-.551-.453c0 1.756-.027 3.513.006 5.268a347 347 0 00.24 8.21c.028.63-.149.812-.745.739-.714-.087-1.677.314-2.082-.172-.341-.41-.083-1.33-.053-2.022.233-5.395.241-10.789-.066-16.18-.041-.727.15-.963.866-.87.425.056.878.082 1.294-.002 1.512-.306 2.291.432 3.03 1.667a210.623 210.623 0 007.47 11.586c.223.322.448.643.672.965zm100.437-11.16c-1.96-.917-3.908-1.352-5.939-1.295a9.515 9.515 0 00-1.673.181c-1.711.357-2.936 1.386-3.45 3.21-.762 2.698-.894 5.44-.142 8.164.687 2.494 2.375 3.846 4.788 3.963.774.037 1.55.051 2.325.047.533-.004.79-.24.772-.902-.053-1.958-.086-3.916-.375-5.853-.077-.52-.042-.727.511-.706 1.068.042 2.138.017 3.208.01.311-.002.494.039.443.476-.339 2.923-.284 5.862-.222 8.797.013.597-.125.799-.7.772-1.474-.068-2.926.268-4.393.357-1.444.088-2.887.122-4.318-.162-3.11-.617-5.139-2.571-6.043-5.815-.825-2.96-.85-5.975-.118-8.955.969-3.941 3.412-5.968 7.563-6.347 2.407-.22 4.808.008 7.207.234.378.036.578.136.565.609-.03 1.033-.009 2.068-.009 3.215zm-31.942 6.531c.042-2.977-.072-5.95-.228-8.922-.03-.555.09-.74.723-.736 4.385.026 8.77.025 13.155 0 .612-.003.77.16.766.723-.015 1.733.011 1.736-1.831 1.723-2.51-.019-5.02-.02-7.53-.079-.656-.016-.839.163-.833.763a46.068 46.068 0 01-.114 3.567c-.038.57.2.66.737.658 2.539-.011 5.078.01 7.612-.16.684-.045.953.078.93.796-.051 1.64-.008 1.652-1.756 1.598-2.25-.07-4.499-.11-6.75-.088-.564.006-.815.102-.79.708.088 2.054.133 4.11.148 6.165.005.58.223.707.808.695 3.057-.066 6.115-.07 9.172-.149.703-.018.862.18.85.804-.033 1.65-.003 1.651-1.752 1.651-4.24 0-8.482-.015-12.723.015-.692.005-.863-.17-.83-.81.158-2.971.269-5.945.236-8.922zm-12.741 6.042c.984-2.936 1.982-5.867 2.949-8.808a268.98 268.98 0 001.918-6.098c.145-.478.333-.726.913-.68.703.055 1.416.037 2.122.007.527-.023.617.102.425.585a537.226 537.226 0 00-2.834 7.334c-1.342 3.536-2.636 7.09-3.74 10.701-.156.514-.405.665-.945.642a29.834 29.834 0 00-2.971.004c-.66.038-.921-.209-1.122-.78-1.992-5.679-4.04-11.34-6.289-16.934-.621-1.545-.619-1.564 1.131-1.54 1.04.015 2.338-.4 3.043.165.657.527.7 1.75 1.002 2.67 1.395 4.252 2.786 8.506 4.178 12.759.073-.01.146-.018.22-.027z" fill="#fff"/></svg>