<svg width="201" height="149" viewBox="0 0 201 149" fill="none" xmlns="http://www.w3.org/2000/svg"><path fill-rule="evenodd" clip-rule="evenodd" d="M170.715 0c6.614 2.017 13.118 3.28 19.067 6.181 3.732 1.82 6.876 4.277 8.882 7.924 1.938 3.524 1.774 6.968-.535 10.286-1.824 2.622-4.341 4.473-7.128 6.025-5.904 3.288-11.833 6.538-17.389 10.376-2.222 1.534-4.429 3.105-6.075 5.265-.369.483-.657.423-1.124.224-4.894-2.08-9.912-3.842-15.009-5.434.114-.634.702-.523 1.063-.658 9.738-3.64 19.447-7.338 28.537-12.39 1.798-1 3.508-2.122 5.089-3.43 4.622-3.823 1.809-9.143-1.979-10.78-.875-.38-1.69-.39-2.549.218-19.626 13.887-41.711 21.793-65.561 25.207-28.442 4.072-56.517 2.266-84.123-5.643-9.163-2.625-18.01-6.019-26.048-11.163-2.13-1.363-4.124-2.894-5.833-4.77 3.365 1.955 6.789 3.781 10.353 5.35 10.362 4.564 21.252 7.376 32.454 9.029 31.433 4.637 62.441 2.453 93-5.906 10.649-2.913 20.899-6.867 30.523-12.25 1.357-.759 2.686-1.558 3.832-2.607 3.139-2.875 3.611-6.074 1.435-9.681-.228-.378-.477-.744-.882-1.373z" fill="#FE663D"/><path fill-rule="evenodd" clip-rule="evenodd" d="M0 85.694c53.726-49.078 143.213-50.131 198.214-2.132-.296.22-.464-.064-.633-.185-21.59-15.484-45.68-24.514-72.142-27.305-28.034-2.956-54.948 1.212-80.634 12.83a141.507 141.507 0 00-26.862 15.926c-.801.604-1.59.895-2.61.886-5.025-.045-10.05-.02-15.333-.02zm119.643 62.52c-5.134-1.073-9.516-3.471-13.619-6.344-8.209-5.751-14.32-13.137-18.897-21.671-.55-1.028-1.123-1.442-2.394-1.403-3.832.121-3.858.061-3.77 3.722.086 3.538.194 7.076.366 10.61.045.935-.207 1.243-1.231 1.202a68.552 68.552 0 00-5.663.001c-1.063.045-1.253-.323-1.207-1.228.408-8.027.543-16.06.325-24.094-.07-2.629-.203-5.256-.308-7.885-.02-.511-.215-1.082.726-1.059 6.474.154 12.973-.427 19.42.354 3.905.473 7.206 2.05 8.268 6.008 1.484 5.525-1.528 10.422-6.244 11.51-.81.187-.603.528-.35 1.007 3.713 7.011 8.19 13.545 13.714 19.435 3.336 3.558 6.992 6.8 10.864 9.835zm-38.516-42.801c.02 1.433-.216 7.074-.215 8.461 0 .43-.063.892.652.871 2.847-.083 5.729.282 8.518-.535 2.9-.85 4.08-2.711 3.713-5.772-.29-2.41-2.035-3.917-4.907-4.037-2.24-.093-4.49.025-6.734-.017-.855-.016-1.036.35-1.027 1.029zM66.07 116.896c-.065 3.291-.316 6.369-1.23 9.359-1.68 5.508-5.317 8.434-10.666 9.161-3.266.444-6.517.424-9.753-.275-4.643-1.003-7.73-3.928-9.127-8.664-1.776-6.022-1.784-12.142-.236-18.218 1.41-5.533 4.873-8.757 10.255-9.639 3.4-.557 6.805-.568 10.179.137 5.125 1.07 8.199 4.474 9.586 9.703.748 2.818.947 5.708.993 8.436zm-7.455.217c-.015-2.956-.084-5.908-.958-8.758-.842-2.742-2.51-4.616-5.271-5.047-6.526-1.018-9.267 1.444-10.23 6-1.084 5.141-1.109 10.343.054 15.473.995 4.387 3.446 6.126 8.07 6.07 4.282-.053 6.69-2.025 7.664-6.286.56-2.449.67-4.945.67-7.452zm-35.189 7.885c.492-7.833.48-15.529-.006-23.216-.088-1.396.284-1.712 1.649-1.674 3.538.1 3.543.031 3.379 3.507-.453 9.58-.373 19.158.116 28.733.061 1.199-.246 1.536-1.434 1.461-1.837-.114-3.935.47-5.457-.234-1.531-.709-2.102-2.885-3.082-4.424-4.168-6.545-8.373-13.065-12.804-19.438-.203-.292-.419-.575-.965-.793 0 3.073-.048 6.147.011 9.219.092 4.789.215 9.579.42 14.364.048 1.103-.26 1.42-1.305 1.293-1.248-.152-2.933.55-3.642-.301-.597-.717-.146-2.327-.093-3.538.408-9.439.423-18.877-.115-28.31-.072-1.272.263-1.685 1.515-1.521.744.097 1.537.142 2.264-.005 2.646-.535 4.01.756 5.302 2.917a368.054 368.054 0 0013.07 20.271c.39.565.785 1.126 1.177 1.689zm175.74-19.525c-3.429-1.606-6.838-2.366-10.39-2.267-.979.027-1.968.116-2.927.317-2.994.625-5.138 2.425-6.038 5.615-1.332 4.721-1.563 9.521-.249 14.287 1.203 4.362 4.157 6.728 8.379 6.933 1.354.065 2.711.09 4.068.082.931-.006 1.381-.419 1.35-1.578-.092-3.426-.151-6.853-.656-10.241-.135-.91-.074-1.273.894-1.235 1.869.073 3.742.029 5.614.017.543-.003.864.068.775.833-.594 5.115-.497 10.257-.389 15.393.022 1.045-.219 1.397-1.224 1.351-2.58-.12-5.121.468-7.688.624-2.526.154-5.05.214-7.555-.283-5.441-1.081-8.992-4.5-10.573-10.175-1.443-5.18-1.488-10.454-.206-15.669 1.696-6.896 5.97-10.443 13.233-11.106 4.211-.385 8.413.013 12.61.41.662.062 1.012.237.988 1.065-.051 1.808-.016 3.619-.016 5.627zm-55.89 11.426c.073-5.208-.126-10.411-.399-15.611-.051-.972.159-1.294 1.264-1.288 7.673.045 15.346.044 23.019 0 1.071-.006 1.348.281 1.34 1.265-.026 3.033.019 3.038-3.204 3.015-4.392-.032-8.785-.034-13.174-.138-1.149-.028-1.469.286-1.459 1.334a80.26 80.26 0 01-.199 6.242c-.068.996.351 1.156 1.289 1.152 4.442-.021 8.887.016 13.32-.279 1.197-.08 1.668.135 1.628 1.392-.091 2.869-.016 2.89-3.074 2.795-3.936-.122-7.872-.193-11.81-.153-.987.01-1.427.178-1.382 1.239.153 3.593.231 7.19.259 10.786.007 1.014.389 1.238 1.412 1.216 5.349-.115 10.701-.122 16.049-.26 1.231-.031 1.509.316 1.487 1.407-.058 2.887-.004 2.888-3.065 2.888-7.42.001-14.841-.026-22.261.027-1.211.009-1.511-.298-1.452-1.417.275-5.2.469-10.403.412-15.612zm-22.294 10.571c1.723-5.136 3.47-10.265 5.161-15.411a465.78 465.78 0 003.356-10.67c.254-.837.583-1.269 1.598-1.19 1.23.097 2.477.065 3.713.012.922-.039 1.078.179.744 1.024a940.837 940.837 0 00-4.96 12.832c-2.348 6.189-4.613 12.406-6.542 18.725-.275.9-.71 1.163-1.655 1.124-1.73-.073-3.472-.094-5.199.006-1.156.067-1.612-.365-1.962-1.364-3.487-9.937-7.069-19.843-11.005-29.631-1.087-2.704-1.083-2.737 1.98-2.693 1.817.025 4.09-.702 5.323.287 1.15.923 1.224 3.063 1.753 4.673 2.441 7.44 4.875 14.882 7.311 22.324l.384-.048z" fill="#FE663D"/></svg>