<svg width="120" height="89" viewBox="0 0 120 89" fill="none" xmlns="http://www.w3.org/2000/svg"><path fill-rule="evenodd" clip-rule="evenodd" d="M102.428 0c3.969 1.21 7.871 1.968 11.44 3.709 2.239 1.092 4.126 2.566 5.329 4.754 1.163 2.114 1.065 4.18-.32 6.171-1.095 1.574-2.605 2.684-4.277 3.616-3.543 1.972-7.1 3.922-10.434 6.225-1.333.92-2.657 1.863-3.645 3.159-.221.29-.394.254-.674.135-2.936-1.249-5.947-2.306-9.005-3.26.068-.382.42-.315.638-.396 5.842-2.183 11.668-4.402 17.122-7.434a19.993 19.993 0 003.053-2.057c2.773-2.295 1.085-5.487-1.187-6.47-.525-.226-1.014-.233-1.53.132-11.776 8.332-25.026 13.076-39.336 15.124-17.066 2.443-33.91 1.36-50.473-3.386-5.498-1.575-10.807-3.61-15.63-6.697-1.277-.818-2.473-1.736-3.499-2.862 2.019 1.173 4.073 2.268 6.211 3.21 6.218 2.738 12.752 4.425 19.473 5.417 18.86 2.782 37.464 1.472 55.8-3.544 6.39-1.747 12.539-4.12 18.313-7.35.814-.455 1.612-.934 2.299-1.564 1.883-1.724 2.167-3.644.861-5.808-.136-.227-.286-.447-.529-.824z" fill="#FE663D"/><path fill-rule="evenodd" clip-rule="evenodd" d="M0 51.416c32.236-29.446 85.927-30.078 118.928-1.279-.178.132-.279-.038-.38-.111-12.954-9.29-27.408-14.709-43.285-16.383-16.82-1.773-32.969.727-48.38 7.699a84.899 84.899 0 00-16.117 9.555c-.481.362-.954.537-1.566.531-3.015-.027-6.03-.012-9.2-.012zm71.787 37.511c-3.08-.643-5.71-2.082-8.172-3.806-4.925-3.451-8.592-7.882-11.338-13.003-.33-.616-.674-.865-1.437-.841-2.299.072-2.314.036-2.262 2.233.052 2.122.117 4.245.22 6.365.027.561-.124.746-.739.722a41.306 41.306 0 00-3.397 0c-.638.027-.752-.193-.725-.736.245-4.817.326-9.636.196-14.457-.043-1.577-.122-3.153-.185-4.73-.012-.307-.13-.65.435-.636 3.885.092 7.784-.256 11.652.212 2.344.284 4.324 1.23 4.961 3.605.89 3.316-.917 6.254-3.746 6.906-.487.113-.362.317-.21.605 2.227 4.206 4.914 8.126 8.228 11.66 2.002 2.135 4.195 4.08 6.519 5.901zm-23.11-25.68c.012.86-.13 4.244-.13 5.076.001.259-.037.536.392.523 1.708-.05 3.438.169 5.11-.321 1.741-.51 2.449-1.626 2.229-3.463-.174-1.446-1.221-2.35-2.945-2.422-1.344-.056-2.694.015-4.04-.01-.513-.01-.621.21-.616.617zm-9.032 6.889c-.04 1.975-.19 3.822-.738 5.616-1.009 3.305-3.19 5.06-6.4 5.497-1.96.266-3.91.254-5.851-.165-2.787-.603-4.638-2.357-5.477-5.2-1.066-3.612-1.07-7.284-.141-10.93.846-3.32 2.924-5.254 6.152-5.783 2.04-.334 4.083-.34 6.108.082 3.075.642 4.92 2.685 5.751 5.822.449 1.69.568 3.425.596 5.061zm-4.474.13c-.008-1.773-.05-3.544-.574-5.254-.505-1.645-1.506-2.77-3.163-3.028-3.915-.611-5.56.866-6.137 3.6-.651 3.085-.666 6.205.032 9.284.597 2.632 2.067 3.675 4.841 3.641 2.57-.031 4.015-1.215 4.599-3.771.336-1.47.403-2.967.403-4.471zm-21.115 4.732c.295-4.7.288-9.318-.004-13.93-.053-.837.17-1.027.99-1.004 2.122.06 2.125.019 2.027 2.104-.272 5.748-.224 11.495.07 17.24.036.72-.148.921-.861.876-1.102-.068-2.36.282-3.274-.14-.92-.425-1.262-1.731-1.85-2.655-2.5-3.926-5.023-7.839-7.682-11.662a1.146 1.146 0 00-.579-.476c0 1.844-.028 3.688.007 5.531.055 2.874.129 5.748.252 8.619.029.662-.157.852-.783.775-.75-.09-1.76.33-2.185-.18-.359-.43-.088-1.396-.056-2.123C.373 72.31.38 66.647.059 60.987c-.044-.763.158-1.01.909-.912.446.058.922.085 1.358-.004 1.588-.32 2.406.454 3.182 1.75a221.158 221.158 0 007.841 12.164l.707 1.013zm105.441-11.715c-2.057-.964-4.103-1.42-6.234-1.36a9.972 9.972 0 00-1.756.19c-1.797.375-3.083 1.455-3.623 3.369-.799 2.833-.938 5.713-.149 8.572.722 2.617 2.494 4.037 5.027 4.16.813.039 1.627.054 2.441.049.559-.004.829-.252.81-.947-.055-2.055-.091-4.112-.393-6.145-.082-.546-.045-.763.536-.74 1.121.044 2.245.017 3.368.01.326-.002.519.04.465.5-.356 3.069-.298 6.153-.233 9.235.013.627-.132.839-.735.81-1.548-.071-3.072.281-4.612.376-1.516.092-3.031.128-4.533-.17-3.265-.649-5.395-2.7-6.344-6.105-.866-3.109-.893-6.273-.124-9.402 1.018-4.137 3.582-6.266 7.94-6.663 2.527-.231 5.048.008 7.566.246.397.037.607.142.593.639-.031 1.085-.01 2.171-.01 3.376zm-33.535 6.856c.044-3.125-.075-6.247-.24-9.367-.03-.583.096-.776.76-.773 4.603.027 9.207.026 13.811 0 .642-.004.808.169.803.759-.015 1.82.012 1.823-1.922 1.809-2.635-.02-5.27-.02-7.905-.083-.689-.016-.88.172-.875.8.012 1.249-.034 2.5-.119 3.746-.04.597.21.694.773.69 2.665-.011 5.332.01 7.992-.167.718-.047 1.001.081.977.835-.055 1.722-.01 1.735-1.845 1.678a172.388 172.388 0 00-7.086-.092c-.592.006-.855.107-.828.743.091 2.156.138 4.314.155 6.472.004.608.233.743.847.73 3.21-.07 6.42-.073 9.629-.156.739-.02.905.189.893.844-.035 1.732-.003 1.733-1.84 1.733-4.451 0-8.904-.016-13.356.016-.727.005-.906-.179-.87-.85.164-3.12.28-6.243.246-9.367zM72.59 76.481c1.034-3.082 2.082-6.159 3.097-9.246a281.297 281.297 0 002.014-6.402c.152-.503.35-.762.958-.715.738.058 1.486.04 2.228.008.553-.024.647.107.446.614-1.014 2.558-2 5.127-2.975 7.7-1.41 3.713-2.768 7.442-3.926 11.234-.165.54-.426.698-.993.674a31.327 31.327 0 00-3.12.004c-.693.04-.966-.219-1.177-.818-2.091-5.963-4.24-11.906-6.602-17.779-.652-1.622-.65-1.642 1.188-1.616 1.09.016 2.454-.42 3.193.173.69.553.735 1.837 1.052 2.803 1.465 4.464 2.925 8.93 4.387 13.395l.23-.029z" fill="#FE663D"/></svg>