<svg width="115" height="85" viewBox="0 0 115 85" fill="none" xmlns="http://www.w3.org/2000/svg"><path fill-rule="evenodd" clip-rule="evenodd" d="M97.566 0c3.78 1.153 7.497 1.874 10.897 3.533 2.133 1.04 3.93 2.444 5.076 4.529 1.108 2.013 1.014 3.981-.305 5.878-1.043 1.498-2.482 2.556-4.075 3.443-3.374 1.879-6.762 3.737-9.938 5.93-1.27.877-2.53 1.775-3.472 3.009-.21.276-.375.242-.641.128-2.798-1.189-5.666-2.195-8.579-3.105.065-.363.401-.3.608-.377 5.566-2.08 11.114-4.193 16.309-7.08a19.027 19.027 0 002.908-1.96c2.642-2.186 1.034-5.226-1.13-6.162-.5-.216-.966-.223-1.457.125-11.217 7.937-23.838 12.455-37.47 14.406-16.254 2.327-32.3 1.295-48.076-3.225-5.237-1.5-10.294-3.44-14.887-6.38C2.117 11.913.977 11.038 0 9.966c1.923 1.117 3.88 2.161 5.917 3.058 5.922 2.608 12.145 4.215 18.548 5.16 17.964 2.65 35.686 1.401 53.15-3.376 6.087-1.664 11.944-3.924 17.445-7 .775-.434 1.535-.89 2.19-1.49 1.793-1.643 2.063-3.472.82-5.533-.13-.217-.272-.425-.504-.785z" fill="#141414"/><path fill-rule="evenodd" clip-rule="evenodd" d="M0 48.975c30.705-28.048 81.848-28.65 113.282-1.218-.169.125-.265-.037-.362-.106-12.339-8.85-26.107-14.01-41.23-15.605-16.022-1.69-31.403.693-46.083 7.333a80.862 80.862 0 00-15.352 9.102c-.458.344-.909.511-1.492.506-2.872-.026-5.744-.012-8.763-.012zm68.377 35.731c-2.934-.613-5.439-1.983-7.783-3.626-4.692-3.286-8.185-7.507-10.8-12.385-.315-.587-.642-.824-1.368-.801-2.19.069-2.205.034-2.155 2.127.049 2.022.11 4.043.21 6.063.025.534-.119.71-.704.688a39.381 39.381 0 00-3.237 0c-.607.025-.716-.185-.69-.702.233-4.587.31-9.178.186-13.77-.04-1.502-.116-3.004-.176-4.506-.011-.292-.123-.618.415-.606 3.7.088 7.414-.244 11.099.203 2.232.27 4.118 1.172 4.725 3.434.848 3.157-.873 5.956-3.568 6.578-.464.107-.345.302-.2.575 2.121 4.007 4.68 7.741 7.837 11.107 1.907 2.034 3.997 3.887 6.21 5.621zM46.365 60.245c.011.82-.124 4.043-.123 4.835 0 .246-.036.51.373.499 1.626-.048 3.274.16 4.867-.306 1.659-.486 2.332-1.55 2.123-3.3-.166-1.377-1.163-2.238-2.805-2.306-1.28-.053-2.566.014-3.848-.01-.489-.01-.592.2-.587.588zm-8.605 6.562c-.037 1.881-.18 3.64-.702 5.35-.96 3.148-3.04 4.82-6.096 5.235-1.867.254-3.725.242-5.574-.157-2.654-.574-4.418-2.245-5.216-4.952-1.016-3.442-1.02-6.939-.135-10.412.806-3.162 2.785-5.004 5.86-5.508 1.944-.319 3.89-.325 5.818.078 2.93.612 4.686 2.557 5.478 5.545.428 1.61.541 3.263.568 4.821zm-4.26.125c-.009-1.69-.048-3.377-.548-5.006-.48-1.567-1.434-2.638-3.012-2.884-3.73-.582-5.297.825-5.847 3.43-.62 2.937-.634 5.91.031 8.842.569 2.507 1.97 3.501 4.612 3.469 2.448-.03 3.824-1.157 4.38-3.592.32-1.4.384-2.827.384-4.26zm-20.112 4.506c.281-4.477.275-8.875-.003-13.268-.05-.798.162-.979.942-.957 2.022.057 2.025.018 1.931 2.004-.258 5.475-.213 10.95.067 16.421.035.686-.141.878-.82.836-1.05-.066-2.249.268-3.119-.134-.875-.405-1.201-1.649-1.761-2.529-2.382-3.74-4.785-7.467-7.318-11.109a1.092 1.092 0 00-.551-.453c0 1.757-.027 3.513.006 5.269.053 2.737.123 5.475.24 8.21.028.63-.149.811-.746.738-.713-.087-1.676.315-2.081-.172-.341-.41-.084-1.33-.053-2.022.233-5.395.241-10.789-.066-16.18-.041-.726.15-.962.866-.869.425.056.878.081 1.294-.003 1.512-.305 2.291.432 3.03 1.668a210.562 210.562 0 007.47 11.585c.223.323.448.643.672.965zm100.437-11.159c-1.96-.918-3.908-1.352-5.938-1.296a9.515 9.515 0 00-1.673.182c-1.711.357-2.936 1.386-3.45 3.209-.762 2.698-.894 5.441-.142 8.165.687 2.493 2.375 3.845 4.788 3.962.774.038 1.55.052 2.325.047.532-.003.789-.24.772-.902-.053-1.958-.087-3.916-.375-5.853-.077-.52-.042-.727.511-.705 1.068.041 2.138.016 3.208.01.31-.002.494.038.443.476-.34 2.923-.284 5.861-.222 8.797.012.597-.125.798-.7.772-1.474-.069-2.927.267-4.394.357-1.443.088-2.886.122-4.317-.162-3.11-.618-5.14-2.572-6.043-5.815-.825-2.961-.85-5.975-.118-8.955.97-3.941 3.412-5.969 7.563-6.348 2.407-.22 4.808.008 7.207.235.378.035.578.135.565.608-.03 1.034-.01 2.069-.01 3.216zM81.884 66.81c.041-2.977-.072-5.95-.228-8.923-.03-.555.09-.739.722-.735 4.385.025 8.77.024 13.156 0 .612-.004.77.16.766.722-.015 1.734.01 1.737-1.831 1.723-2.51-.018-5.02-.019-7.53-.078-.656-.016-.84.163-.833.762a46.068 46.068 0 01-.114 3.568c-.039.569.2.66.737.658 2.538-.012 5.078.01 7.612-.16.684-.045.953.077.93.796-.052 1.64-.009 1.651-1.756 1.597-2.25-.07-4.499-.11-6.75-.087-.564.005-.815.102-.79.708a173.6 173.6 0 01.148 6.164c.005.58.223.708.807.695 3.057-.066 6.116-.07 9.173-.148.703-.018.862.18.85.804-.033 1.65-.003 1.65-1.752 1.65-4.24 0-8.482-.015-12.723.016-.692.005-.863-.17-.83-.81.157-2.972.269-5.946.236-8.922zm-12.742 6.041c.985-2.935 1.983-5.867 2.95-8.808a268.93 268.93 0 001.918-6.098c.145-.478.333-.725.913-.68.703.055 1.416.037 2.122.007.527-.023.616.102.425.585a535.408 535.408 0 00-2.834 7.334c-1.342 3.537-2.637 7.09-3.74 10.701-.156.515-.405.665-.945.642a29.834 29.834 0 00-2.971.004c-.661.038-.922-.208-1.122-.78-1.993-5.678-4.04-11.34-6.29-16.934-.62-1.545-.618-1.564 1.132-1.54 1.039.016 2.338-.4 3.043.165.657.528.7 1.75 1.001 2.67 1.395 4.253 2.787 8.506 4.18 12.76l.218-.028z" fill="#141414"/></svg>