<svg width="17" height="18" viewBox="0 0 17 18" fill="none" xmlns="http://www.w3.org/2000/svg"><path d="M7.048 13.178l-2.004 2.004a2.124 2.124 0 11-3.005-3.005L6.046 8.17c.83-.83 2.175-.83 3.005 0a.708.708 0 101.001-1.002 3.541 3.541 0 00-5.008 0l-4.007 4.007a3.541 3.541 0 105.01 5.008l2.002-2.003a.708.708 0 00-1.001-1.002z" fill="#141414"/><path d="M15.963 1.258a3.542 3.542 0 00-5.01 0L8.55 3.661a.708.708 0 001.002 1.002l2.404-2.403a2.125 2.125 0 013.005 3.004l-4.407 4.408c-.83.83-2.175.83-3.005 0a.708.708 0 00-1.002 1.001 3.541 3.541 0 005.008 0l4.408-4.407a3.541 3.541 0 000-5.008z" fill="#141414"/></svg>