<svg width="1570" height="75" viewBox="0 0 1570 75" fill="none" xmlns="http://www.w3.org/2000/svg"><path d="M33.2 44V27.2h2.975l5.736 7.848 5.472-7.848h2.784V44H47.24V31.856l-5.304 7.464h-.432l-5.352-7.392V44H33.2zm21.776-1.32c-1.072-1.072-1.608-2.432-1.608-4.08 0-1.648.536-3 1.608-4.056 1.088-1.072 2.512-1.608 4.272-1.608 1.76 0 3.176.536 4.248 1.608 1.088 1.056 1.632 2.408 1.632 4.056 0 1.648-.544 3.008-1.632 4.08-1.072 1.056-2.488 1.584-4.248 1.584-1.76 0-3.184-.528-4.272-1.584zm1.344-4.08c0 .896.272 1.64.816 2.232.56.576 1.264.864 2.112.864.864 0 1.568-.28 2.112-.84.56-.576.84-1.328.84-2.256 0-.896-.28-1.632-.84-2.208-.56-.576-1.264-.864-2.112-.864-.832 0-1.528.288-2.088.864-.56.56-.84 1.296-.84 2.208zm9.549 7.92v-5.088h1.368c.848-1.12 1.352-3 1.512-5.64l.168-2.592h7.968v8.232h1.8v5.088h-2.592V44h-7.656v2.52h-2.568zm5.544-9.624c-.192 2.096-.624 3.608-1.296 4.536h4.008v-5.64h-2.64l-.072 1.104zm17.56 4.08l.792 1.944c-1.056.896-2.432 1.344-4.128 1.344-1.744 0-3.152-.52-4.224-1.56-1.056-1.04-1.584-2.408-1.584-4.104 0-1.616.52-2.96 1.56-4.032 1.04-1.088 2.424-1.632 4.152-1.632 1.424 0 2.632.472 3.624 1.416.992.928 1.488 2.128 1.488 3.6 0 .608-.056 1.104-.168 1.488h-7.8c.112.8.464 1.424 1.056 1.872.592.432 1.32.648 2.184.648 1.216 0 2.232-.328 3.048-.984zM85.42 35.24c-1.568 0-2.512.784-2.832 2.352h5.304c.016-.672-.2-1.232-.648-1.68-.448-.448-1.056-.672-1.824-.672zM99.628 44v-8.04h-2.856l-.072 1.152c-.176 1.936-.472 3.424-.888 4.464-.4 1.04-.912 1.744-1.536 2.112-.608.352-1.424.528-2.448.528l-.24-2.688a1.4 1.4 0 00.984-.288c.32-.24.624-.752.912-1.536.288-.8.472-1.848.552-3.144l.168-3.36h8.184V44h-2.76zm5.834 0V33.2h2.76v2.952h1.488c1.696 0 2.912.352 3.648 1.056.736.704 1.104 1.6 1.104 2.688 0 1.168-.4 2.144-1.2 2.928-.8.784-2.056 1.176-3.768 1.176h-4.032zm4.008-5.64h-1.248v3.24h1.224c1.392 0 2.088-.536 2.088-1.608 0-1.088-.688-1.632-2.064-1.632z" fill="#fff"/><rect x="1.5" y="1.5" width="143" height="72" rx="6.5" stroke="#005DED" stroke-width="3"/><path d="M270.609 44V27.2h2.952v7.968l6.624-7.968h3.552l-6.912 7.824L284.169 44h-3.744l-6.864-8.664V44h-2.952zm15.191-1.32c-1.072-1.072-1.608-2.432-1.608-4.08 0-1.648.536-3 1.608-4.056 1.088-1.072 2.512-1.608 4.272-1.608 1.76 0 3.176.536 4.248 1.608 1.088 1.056 1.632 2.408 1.632 4.056 0 1.648-.544 3.008-1.632 4.08-1.072 1.056-2.488 1.584-4.248 1.584-1.76 0-3.184-.528-4.272-1.584zm1.344-4.08c0 .896.272 1.64.816 2.232.56.576 1.264.864 2.112.864.864 0 1.568-.28 2.112-.84.56-.576.84-1.328.84-2.256 0-.896-.28-1.632-.84-2.208-.56-.576-1.264-.864-2.112-.864-.832 0-1.528.288-2.088.864-.56.56-.84 1.296-.84 2.208zm11.197 5.4V33.2h2.496l3.672 4.512 3.48-4.512h2.424V44h-2.76v-6.6l-3.192 4.032h-.072l-3.288-4.032V44h-2.76zm22.508 0v-8.208h-4.608V44h-2.76V33.2h10.128V44h-2.76zm12.932 0v-8.04h-2.856l-.072 1.152c-.176 1.936-.472 3.424-.888 4.464-.4 1.04-.912 1.744-1.536 2.112-.608.352-1.424.528-2.448.528l-.24-2.688a1.4 1.4 0 00.984-.288c.32-.24.624-.752.912-1.536.288-.8.472-1.848.552-3.144l.168-3.36h8.184V44h-2.76zm14.305-3.024l.792 1.944c-1.056.896-2.432 1.344-4.128 1.344-1.744 0-3.152-.52-4.224-1.56-1.056-1.04-1.584-2.408-1.584-4.104 0-1.616.52-2.96 1.56-4.032 1.04-1.088 2.424-1.632 4.152-1.632 1.424 0 2.632.472 3.624 1.416.992.928 1.488 2.128 1.488 3.6 0 .608-.056 1.104-.168 1.488h-7.8c.112.8.464 1.424 1.056 1.872.592.432 1.32.648 2.184.648 1.216 0 2.232-.328 3.048-.984zm-3.552-5.736c-1.568 0-2.512.784-2.832 2.352h5.304c.016-.672-.2-1.232-.648-1.68-.448-.448-1.056-.672-1.824-.672zm17.679-2.04l-4.152 5.136L362.717 44h-3.6l-4.272-5.448 3.888-5.352h3.48zM351.989 44V33.2h2.76V44h-2.76zm11.224-8.04V33.2h9.84v2.76h-3.528V44h-2.76v-8.04h-3.552zm12.655.024l-.696-2.016a7.385 7.385 0 013.816-1.032c1.536 0 2.64.376 3.312 1.128.672.752 1.008 1.872 1.008 3.36V44h-2.4v-1.248c-.656.928-1.72 1.392-3.192 1.392-1.008 0-1.824-.296-2.448-.888-.624-.592-.936-1.4-.936-2.424 0-1.136.368-2 1.104-2.592.736-.608 1.68-.912 2.832-.912.992 0 1.808.232 2.448.696.032-.944-.104-1.64-.408-2.088-.304-.464-.84-.696-1.608-.696-.8 0-1.744.248-2.832.744zm2.76 5.832c.928 0 1.624-.328 2.088-.984v-1.104c-.464-.352-1.096-.528-1.896-.528-.496 0-.912.12-1.248.36-.32.224-.48.552-.48.984 0 .4.144.712.432.936.288.224.656.336 1.104.336zm7.51 2.184V33.2h2.76v8.232h4.44V33.2h2.76v8.232h1.8v5.088h-2.592V44h-9.168zm16.353 0h-2.76V33.2h2.76v6.84l5.04-6.84h2.76V44h-2.76v-6.84l-5.04 6.84zm16.161-10.8h3.528V44h-2.76v-3.24h-1.536L415.652 44h-3.168l2.88-3.84c-.544-.192-1.032-.552-1.464-1.08-.416-.544-.624-1.224-.624-2.04 0-1.136.432-2.056 1.296-2.76.88-.72 2.24-1.08 4.08-1.08zm-2.424 4.032c0 .432.176.792.528 1.08.368.272.776.408 1.224.408h1.44V35.6h-1.224c-.624 0-1.112.16-1.464.48-.336.32-.504.704-.504 1.152z" fill="#fff"/><rect x="237.5" y="1.5" width="217" height="72" rx="6.5" stroke="#005DED" stroke-width="3"/><path d="M583.098 44V27.2h2.952v14.04h7.368V27.2h2.952v14.04h2.28V47h-2.76v-3h-12.792zm17.676 0V33.2c.192 0 .544-.008 1.056-.024a51.715 51.715 0 013.192-.096c3.264 0 4.896.944 4.896 2.832 0 .624-.2 1.16-.6 1.608a2.231 2.231 0 01-1.416.792v.048c1.536.368 2.304 1.2 2.304 2.496 0 2.176-1.712 3.264-5.136 3.264a55.3 55.3 0 01-2.28-.072 86.639 86.639 0 00-2.016-.048zm4.488-4.584h-1.728v2.4c1.088.064 1.696.096 1.824.096.608 0 1.08-.112 1.416-.336.352-.224.528-.528.528-.912 0-.832-.68-1.248-2.04-1.248zm0-4.104c-.768 0-1.344.016-1.728.048v2.376h1.8c.48 0 .872-.104 1.176-.312.32-.224.48-.536.48-.936 0-.784-.576-1.176-1.728-1.176zm16.031 5.664l.792 1.944c-1.056.896-2.432 1.344-4.128 1.344-1.744 0-3.152-.52-4.224-1.56-1.056-1.04-1.584-2.408-1.584-4.104 0-1.616.52-2.96 1.56-4.032 1.04-1.088 2.424-1.632 4.152-1.632 1.424 0 2.632.472 3.624 1.416.992.928 1.488 2.128 1.488 3.6 0 .608-.056 1.104-.168 1.488h-7.8c.112.8.464 1.424 1.056 1.872.592.432 1.32.648 2.184.648 1.216 0 2.232-.328 3.048-.984zm-3.552-5.736c-1.568 0-2.512.784-2.832 2.352h5.304c.016-.672-.2-1.232-.648-1.68-.448-.448-1.056-.672-1.824-.672zm6.21.72V33.2h9.84v2.76h-3.528V44h-2.76v-8.04h-3.552z" fill="#fff"/><rect x="547.5" y="1.5" width="120" height="72" rx="6.5" stroke="#005DED" stroke-width="3"/><path d="M797.719 44V27.2h2.952v7.968l6.624-7.968h3.552l-6.912 7.824L811.279 44h-3.744l-6.864-8.664V44h-2.952zm15.191-1.32c-1.072-1.072-1.608-2.432-1.608-4.08 0-1.648.536-3 1.608-4.056 1.088-1.072 2.512-1.608 4.272-1.608 1.76 0 3.176.536 4.248 1.608 1.088 1.056 1.632 2.408 1.632 4.056 0 1.648-.544 3.008-1.632 4.08-1.072 1.056-2.488 1.584-4.248 1.584-1.76 0-3.184-.528-4.272-1.584zm1.344-4.08c0 .896.272 1.64.816 2.232.56.576 1.264.864 2.112.864.864 0 1.568-.28 2.112-.84.56-.576.84-1.328.84-2.256 0-.896-.28-1.632-.84-2.208-.56-.576-1.264-.864-2.112-.864-.832 0-1.528.288-2.088.864-.56.56-.84 1.296-.84 2.208zm17.949 5.4v-8.04h-2.856l-.072 1.152c-.176 1.936-.472 3.424-.888 4.464-.4 1.04-.912 1.744-1.536 2.112-.608.352-1.424.528-2.448.528l-.24-2.688c.352.032.68-.064.983-.288.321-.24.625-.752.913-1.536.288-.8.472-1.848.552-3.144l.168-3.36h8.184V44h-2.76zm14.305-3.024l.792 1.944c-1.056.896-2.432 1.344-4.128 1.344-1.744 0-3.152-.52-4.224-1.56-1.056-1.04-1.584-2.408-1.584-4.104 0-1.616.52-2.96 1.56-4.032 1.04-1.088 2.424-1.632 4.152-1.632 1.424 0 2.632.472 3.624 1.416.992.928 1.488 2.128 1.488 3.6 0 .608-.056 1.104-.168 1.488h-7.8c.112.8.464 1.424 1.056 1.872.592.432 1.32.648 2.184.648 1.216 0 2.232-.328 3.048-.984zm-3.552-5.736c-1.568 0-2.512.784-2.832 2.352h5.304c.016-.672-.2-1.232-.648-1.68-.448-.448-1.056-.672-1.824-.672zm15.569 5.136l1.296 2.016c-.448.608-1.056 1.072-1.824 1.392-.752.32-1.576.48-2.472.48-1.76 0-3.176-.52-4.248-1.56s-1.608-2.408-1.608-4.104c0-1.6.528-2.944 1.584-4.032s2.392-1.632 4.008-1.632c1.92 0 3.368.488 4.344 1.464l-1.296 2.184c-.72-.704-1.616-1.056-2.688-1.056-.8 0-1.504.288-2.112.864-.592.56-.888 1.296-.888 2.208 0 .928.304 1.68.912 2.256.624.56 1.36.84 2.208.84 1.056 0 1.984-.44 2.784-1.32zm4.351-4.392l-.696-2.016a7.385 7.385 0 013.816-1.032c1.536 0 2.64.376 3.312 1.128.672.752 1.008 1.872 1.008 3.36V44h-2.4v-1.248c-.656.928-1.72 1.392-3.192 1.392-1.008 0-1.824-.296-2.448-.888-.624-.592-.936-1.4-.936-2.424 0-1.136.368-2 1.104-2.592.736-.608 1.68-.912 2.832-.912.992 0 1.808.232 2.448.696.032-.944-.104-1.64-.408-2.088-.304-.464-.84-.696-1.608-.696-.8 0-1.744.248-2.832.744zm2.76 5.832c.928 0 1.624-.328 2.088-.984v-1.104c-.464-.352-1.096-.528-1.896-.528-.496 0-.912.12-1.248.36-.32.224-.48.552-.48.984 0 .4.144.712.432.936.288.224.656.336 1.104.336z" fill="#fff"/><rect x="760.5" y="1.5" width="146" height="72" rx="6.5" stroke="#005DED" stroke-width="3"/><path d="M1045.21 40.16l1.13 2.208c-.53.56-1.29 1.016-2.28 1.368-.98.352-2.01.528-3.1.528-2.57 0-4.66-.792-6.26-2.376-1.6-1.584-2.4-3.68-2.4-6.288 0-2.512.76-4.584 2.28-6.216 1.52-1.632 3.62-2.448 6.31-2.448 2.16 0 3.86.568 5.11 1.704l-1.32 2.184c-1.13-.752-2.4-1.128-3.79-1.128-1.58 0-2.9.536-3.94 1.608-1.02 1.072-1.53 2.504-1.53 4.296 0 1.744.53 3.168 1.61 4.272 1.08 1.088 2.48 1.632 4.2 1.632 1.48 0 2.81-.448 3.98-1.344zm4.11-4.176l-.69-2.016a7.358 7.358 0 013.81-1.032c1.54 0 2.64.376 3.31 1.128.68.752 1.01 1.872 1.01 3.36V44h-2.4v-1.248c-.65.928-1.72 1.392-3.19 1.392-1.01 0-1.82-.296-2.45-.888-.62-.592-.93-1.4-.93-2.424 0-1.136.36-2 1.1-2.592.74-.608 1.68-.912 2.83-.912.99 0 1.81.232 2.45.696.03-.944-.1-1.64-.41-2.088-.3-.464-.84-.696-1.61-.696-.8 0-1.74.248-2.83.744zm2.76 5.832c.93 0 1.63-.328 2.09-.984v-1.104c-.46-.352-1.1-.528-1.9-.528-.49 0-.91.12-1.24.36-.32.224-.48.552-.48.984 0 .4.14.712.43.936.29.224.65.336 1.1.336zM1066.69 44v-8.04h-2.85l-.07 1.152c-.18 1.936-.48 3.424-.89 4.464-.4 1.04-.91 1.744-1.54 2.112-.61.352-1.42.528-2.45.528l-.24-2.688c.36.032.68-.064.99-.288.32-.24.62-.752.91-1.536.29-.8.47-1.848.55-3.144l.17-3.36h8.18V44h-2.76zm6.77-1.32c-1.07-1.072-1.6-2.432-1.6-4.08 0-1.648.53-3 1.6-4.056 1.09-1.072 2.52-1.608 4.28-1.608 1.76 0 3.17.536 4.24 1.608 1.09 1.056 1.64 2.408 1.64 4.056 0 1.648-.55 3.008-1.64 4.08-1.07 1.056-2.48 1.584-4.24 1.584-1.76 0-3.19-.528-4.28-1.584zm1.35-4.08c0 .896.27 1.64.81 2.232.56.576 1.27.864 2.12.864.86 0 1.56-.28 2.11-.84.56-.576.84-1.328.84-2.256 0-.896-.28-1.632-.84-2.208-.56-.576-1.27-.864-2.11-.864-.84 0-1.53.288-2.09.864-.56.56-.84 1.296-.84 2.208zm18.68 5.4v-4.128h-4.73V44H1086V33.2h2.76v4.08h4.73V33.2h2.76V44h-2.76z" fill="#fff"/><rect x="999.5" y="1.5" width="130" height="72" rx="6.5" stroke="#005DED" stroke-width="3"/><path d="M1253.21 35.6c0-2.464.82-4.52 2.45-6.168 1.65-1.664 3.74-2.496 6.29-2.496 2.53 0 4.61.8 6.26 2.4 1.67 1.6 2.5 3.688 2.5 6.264 0 2.512-.83 4.584-2.5 6.216-1.66 1.632-3.75 2.448-6.26 2.448-2.53 0-4.62-.8-6.27-2.4-1.64-1.6-2.47-3.688-2.47-6.264zm3.12 0c0 1.68.54 3.088 1.61 4.224 1.09 1.12 2.42 1.68 4.01 1.68 1.73 0 3.09-.56 4.1-1.68 1.03-1.12 1.54-2.528 1.54-4.224 0-1.728-.55-3.144-1.63-4.248-1.08-1.104-2.41-1.656-4.01-1.656-1.62 0-2.96.552-4.03 1.656-1.06 1.104-1.59 2.52-1.59 4.248zm24.37 8.4v-8.208h-4.61V44h-2.76V33.2h10.13V44h-2.76zm5.83 0V33.2h2.76v8.232h4.44V33.2h2.76v8.232h1.8v5.088h-2.59V44h-9.17zm16.35 0h-2.76V33.2h2.76v6.84l5.04-6.84h2.76V44h-2.76v-6.84l-5.04 6.84zm13.64 0h-2.76V33.2h2.76v6.84l5.04-6.84h2.76V44h-2.76v-6.84l-5.04 6.84z" fill="#fff"/><rect x="1222.5" y="1.5" width="133" height="72" rx="6.5" stroke="#005DED" stroke-width="3"/><path d="M1487.51 44h-2.59V27.2h2.95v11.952l8.81-11.952h2.59V44h-2.95V32.072L1487.51 44zm14.5-8.04V33.2h9.84v2.76h-3.53V44h-2.76v-8.04h-3.55zm12.42 6.72c-1.07-1.072-1.61-2.432-1.61-4.08 0-1.648.54-3 1.61-4.056 1.09-1.072 2.51-1.608 4.27-1.608 1.76 0 3.18.536 4.25 1.608 1.09 1.056 1.63 2.408 1.63 4.056 0 1.648-.54 3.008-1.63 4.08-1.07 1.056-2.49 1.584-4.25 1.584-1.76 0-3.18-.528-4.27-1.584zm1.34-4.08c0 .896.28 1.64.82 2.232.56.576 1.26.864 2.11.864.87 0 1.57-.28 2.11-.84.56-.576.84-1.328.84-2.256 0-.896-.28-1.632-.84-2.208-.56-.576-1.26-.864-2.11-.864-.83 0-1.53.288-2.09.864-.56.56-.84 1.296-.84 2.208zm11.2 5.4V33.2h7.25v2.592h-4.49V44h-2.76z" fill="#fff"/><rect x="1448.5" y="1.5" width="120" height="72" rx="6.5" stroke="#005DED" stroke-width="3"/><path d="M226 38l-10-5.773v11.547L226 38zm-70 1h61v-2h-61v2zm380-1l-10-5.773v11.547L536 38zm-70 1h61v-2h-61v2zm283-1l-10-5.773v11.547L749 38zm-70 1h61v-2h-61v2zm309-1l-10-5.773v11.547L988 38zm-70 1h61v-2h-61v2zm293-1l-10-5.773v11.547L1211 38zm-70 1h61v-2h-61v2zm296-1l-10-5.773v11.547L1437 38zm-70 1h61v-2h-61v2z" fill="#C5CDCF"/></svg>