<svg width="1541" height="248" viewBox="0 0 1541 248" fill="none" xmlns="http://www.w3.org/2000/svg"><path d="M45.694 37.2l-5.664 8.232L45.91 54h-3.456l-4.344-6.312L33.79 54h-3.456l5.88-8.568-5.616-8.232h3.456l4.128 6.072 4.056-6.072h3.456zM48.476 54V37.2h2.976l5.736 7.848L62.66 37.2h2.784V54h-2.928V41.856l-5.304 7.464h-.432l-5.352-7.392V54h-2.952zm21.633 0V37.2h2.952v14.04h7.56V54H70.11zm11.957-5.28v-2.568h6.048v2.568h-6.048zM91.138 54V43.2c.192 0 .544-.008 1.056-.024a51.715 51.715 0 013.192-.096c3.264 0 4.896.944 4.896 2.832 0 .624-.2 1.16-.6 1.608a2.231 2.231 0 01-1.416.792v.048c1.536.368 2.304 1.2 2.304 2.496 0 2.176-1.712 3.264-5.136 3.264a55.3 55.3 0 01-2.28-.072A86.639 86.639 0 0091.138 54zm4.488-4.584h-1.728v2.4c1.088.064 1.696.096 1.824.096.608 0 1.08-.112 1.416-.336.352-.224.528-.528.528-.912 0-.832-.68-1.248-2.04-1.248zm0-4.104c-.768 0-1.344.016-1.728.048v2.376h1.8c.48 0 .872-.104 1.176-.312.32-.224.48-.536.48-.936 0-.784-.576-1.176-1.728-1.176zM103.184 54V43.2h2.76v2.952h1.344c1.696 0 2.912.352 3.648 1.056.736.704 1.104 1.6 1.104 2.688 0 1.168-.4 2.144-1.2 2.928-.8.784-2.056 1.176-3.768 1.176h-3.888zm10.392 0V43.2h2.76V54h-2.76zm-6.528-5.64h-1.104v3.24h1.08c1.392 0 2.088-.536 2.088-1.608 0-1.088-.688-1.632-2.064-1.632zM119.403 54V43.2h7.248v2.592h-4.488V54h-2.76zm8.977 4.8V43.2h2.76v1.032c.352-.368.824-.672 1.416-.912a4.898 4.898 0 011.92-.384c1.472 0 2.656.512 3.552 1.536.896 1.024 1.344 2.344 1.344 3.96 0 1.68-.528 3.072-1.584 4.176s-2.432 1.656-4.128 1.656c-1.072 0-1.912-.176-2.52-.528V58.8h-2.76zm5.232-13.272c-.944 0-1.768.392-2.472 1.176v4.368c.64.416 1.4.624 2.28.624.928 0 1.664-.296 2.208-.888.544-.608.816-1.376.816-2.304 0-.88-.248-1.592-.744-2.136-.496-.56-1.192-.84-2.088-.84zm18.145-2.328L147.509 54c-.768 1.872-1.456 3.136-2.064 3.792-.592.672-1.296 1.008-2.112 1.008-.784 0-1.56-.28-2.328-.84l.888-2.088c.432.256.808.384 1.128.384.656 0 1.208-.56 1.656-1.68l.24-.576-4.992-10.8h3.312l2.52 5.904c.096.24.272.76.528 1.56.128-.704.256-1.232.384-1.584l1.944-5.88h3.144zm5.47 11.064a7.8 7.8 0 01-2.76-.504c-.896-.352-1.544-.784-1.944-1.296l1.416-1.728c.32.368.776.68 1.368.936.608.256 1.168.384 1.68.384.704 0 1.248-.12 1.632-.36.384-.24.576-.56.576-.96a1.07 1.07 0 00-.432-.888c-.288-.224-.688-.336-1.2-.336h-2.016v-1.848h1.896c.432 0 .776-.128 1.032-.384.272-.256.408-.568.408-.936 0-.784-.632-1.176-1.896-1.176-.992 0-1.976.416-2.952 1.248l-1.152-1.656c1.04-1.216 2.584-1.824 4.632-1.824 1.408 0 2.48.272 3.216.816.736.544 1.104 1.296 1.104 2.256 0 .528-.176 1.008-.528 1.44-.352.432-.84.752-1.464.96v.048c.736.144 1.296.448 1.68.912.4.448.6.992.6 1.632 0 1.008-.448 1.808-1.344 2.4-.896.576-2.08.864-3.552.864zM174.955 43.2l-4.152 5.136L175.459 54h-3.6l-4.272-5.448 3.888-5.352h3.48zM164.731 54V43.2h2.76V54h-2.76zm13.192-8.016l-.696-2.016a7.385 7.385 0 013.816-1.032c1.536 0 2.64.376 3.312 1.128.672.752 1.008 1.872 1.008 3.36V54h-2.4v-1.248c-.656.928-1.72 1.392-3.192 1.392-1.008 0-1.824-.296-2.448-.888-.624-.592-.936-1.4-.936-2.424 0-1.136.368-2 1.104-2.592.736-.608 1.68-.912 2.832-.912.992 0 1.808.232 2.448.696.032-.944-.104-1.64-.408-2.088-.304-.464-.84-.696-1.608-.696-.8 0-1.744.248-2.832.744zm2.76 5.832c.928 0 1.624-.328 2.088-.984v-1.104c-.464-.352-1.096-.528-1.896-.528-.496 0-.912.12-1.248.36-.32.224-.48.552-.48.984 0 .4.144.712.432.936.288.224.656.336 1.104.336zM196.038 54h-2.76V43.2h2.76v6.84l5.04-6.84h2.76V54h-2.76v-6.84l-5.04 6.84zm14.697.264a7.8 7.8 0 01-2.76-.504c-.896-.352-1.544-.784-1.944-1.296l1.416-1.728c.32.368.776.68 1.368.936.608.256 1.168.384 1.68.384.704 0 1.248-.12 1.632-.36.384-.24.576-.56.576-.96a1.07 1.07 0 00-.432-.888c-.288-.224-.688-.336-1.2-.336h-2.016v-1.848h1.896c.432 0 .776-.128 1.032-.384.272-.256.408-.568.408-.936 0-.784-.632-1.176-1.896-1.176-.992 0-1.976.416-2.952 1.248l-1.152-1.656c1.04-1.216 2.584-1.824 4.632-1.824 1.408 0 2.48.272 3.216.816.736.544 1.104 1.296 1.104 2.256 0 .528-.176 1.008-.528 1.44-.352.432-.84.752-1.464.96v.048c.736.144 1.296.448 1.68.912.4.448.6.992.6 1.632 0 1.008-.448 1.808-1.344 2.4-.896.576-2.08.864-3.552.864zm20.126-4.728c0-.448-.144-.84-.432-1.176a3.32 3.32 0 00-1.08-.888 12.897 12.897 0 00-1.488-.72 29.757 29.757 0 01-1.608-.792 11.42 11.42 0 01-1.488-.984 4.274 4.274 0 01-1.104-1.416c-.272-.592-.408-1.256-.408-1.992 0-1.312.472-2.408 1.416-3.288.96-.896 2.232-1.344 3.816-1.344 2.112 0 3.712.6 4.8 1.8l-1.584 2.208c-.864-.832-1.856-1.248-2.976-1.248-.72 0-1.296.168-1.728.504-.416.336-.624.784-.624 1.344 0 .544.184 1.016.552 1.416.384.4.856.72 1.416.96.56.224 1.168.496 1.824.816.672.32 1.288.656 1.848 1.008.56.336 1.024.832 1.392 1.488.384.64.576 1.4.576 2.28 0 1.392-.536 2.536-1.608 3.432-1.072.88-2.408 1.32-4.008 1.32a8.315 8.315 0 01-3.336-.696c-1.056-.48-1.776-1.128-2.16-1.944l1.68-2.016a4.735 4.735 0 001.752 1.416c.72.32 1.424.48 2.112.48.72 0 1.304-.168 1.752-.504.464-.352.696-.84.696-1.464zM235.223 54l7.104-16.848h2.592L252.023 54h-3.144l-1.752-4.296h-7.176L238.199 54h-2.976zm8.328-13.032l-2.472 5.976h4.92l-2.448-5.976zM257.491 54h-2.952V37.2c.288 0 1.048-.008 2.28-.024 1.248-.016 2.08-.024 2.496-.024 1.184 0 2.208.152 3.072.456.88.288 1.56.696 2.04 1.224.48.512.832 1.08 1.056 1.704.224.608.336 1.28.336 2.016 0 1.52-.544 2.808-1.632 3.864-1.088 1.056-2.592 1.584-4.512 1.584-.976 0-1.704-.024-2.184-.072V54zm2.112-14.088c-.352 0-1.056.016-2.112.048v5.16c.768.08 1.464.12 2.088.12.928 0 1.68-.224 2.256-.672.576-.464.864-1.144.864-2.04 0-1.744-1.032-2.616-3.096-2.616z" fill="#141414"/><rect x="1.5" y="11.5" width="294" height="72" rx="6.5" stroke="#005DED" stroke-width="3"/><path d="M943.37 53h-2.952V36.2c.352 0 1.256-.008 2.712-.024 1.472-.016 2.272-.024 2.4-.024 4.064 0 6.096 1.728 6.096 5.184 0 1.296-.328 2.352-.984 3.168-.656.8-1.408 1.344-2.256 1.632L953.642 53h-3.576l-4.632-6.288h-2.064V53zm2.016-14.088c-.288 0-.96.016-2.016.048v4.992h1.92c.912 0 1.672-.224 2.28-.672.624-.464.936-1.104.936-1.92 0-1.632-1.04-2.448-3.12-2.448zM956.215 53V36.2h9.72v2.76h-6.768v4.176h6.048v2.76h-6.048v4.344h7.008V53h-9.96zm20.548-4.464c0-.448-.144-.84-.432-1.176a3.32 3.32 0 00-1.08-.888 12.897 12.897 0 00-1.488-.72 29.757 29.757 0 01-1.608-.792 11.42 11.42 0 01-1.488-.984 4.274 4.274 0 01-1.104-1.416c-.272-.592-.408-1.256-.408-1.992 0-1.312.472-2.408 1.416-3.288.96-.896 2.232-1.344 3.816-1.344 2.112 0 3.712.6 4.8 1.8l-1.584 2.208c-.864-.832-1.856-1.248-2.976-1.248-.72 0-1.296.168-1.728.504-.416.336-.624.784-.624 1.344 0 .544.184 1.016.552 1.416.384.4.856.72 1.416.96.56.224 1.168.496 1.824.816.672.32 1.288.656 1.848 1.008.56.336 1.024.832 1.392 1.488.384.64.576 1.4.576 2.28 0 1.392-.536 2.536-1.608 3.432-1.072.88-2.408 1.32-4.008 1.32a8.315 8.315 0 01-3.336-.696c-1.056-.48-1.776-1.128-2.16-1.944l1.68-2.016a4.735 4.735 0 001.752 1.416c.72.32 1.424.48 2.112.48.72 0 1.304-.168 1.752-.504.464-.352.696-.84.696-1.464zM986.237 53h-2.952V36.2c.288 0 1.048-.008 2.28-.024 1.248-.016 2.08-.024 2.496-.024 1.184 0 2.208.152 3.072.456.88.288 1.56.696 2.04 1.224.48.512.832 1.08 1.056 1.704.224.608.336 1.28.336 2.016 0 1.52-.544 2.808-1.632 3.864-1.088 1.056-2.592 1.584-4.512 1.584-.976 0-1.704-.024-2.184-.072V53zm2.112-14.088c-.352 0-1.056.016-2.112.048v5.16c.768.08 1.464.12 2.088.12.928 0 1.68-.224 2.256-.672.576-.464.864-1.144.864-2.04 0-1.744-1.032-2.616-3.096-2.616zM1000.91 53l7.1-16.848h2.59L1017.71 53h-3.15l-1.75-4.296h-7.18L1003.88 53h-2.97zm8.32-13.032l-2.47 5.976h4.92l-2.45-5.976zM1023.17 53h-2.95V36.2c.29 0 1.05-.008 2.28-.024 1.25-.016 2.08-.024 2.5-.024 1.18 0 2.21.152 3.07.456.88.288 1.56.696 2.04 1.224.48.512.83 1.08 1.06 1.704.22.608.33 1.28.33 2.016 0 1.52-.54 2.808-1.63 3.864-1.09 1.056-2.59 1.584-4.51 1.584-.98 0-1.71-.024-2.19-.072V53zm2.12-14.088c-.36 0-1.06.016-2.12.048v5.16c.77.08 1.47.12 2.09.12.93 0 1.68-.224 2.26-.672.57-.464.86-1.144.86-2.04 0-1.744-1.03-2.616-3.09-2.616zM1035.28 53V36.2h2.95V53h-2.95z" fill="#141414"/><rect x="894.5" y="10.5" width="190" height="72" rx="6.5" stroke="#005DED" stroke-width="3"/><path fill-rule="evenodd" clip-rule="evenodd" d="M438.5 20c-2.012 0-3.968.226-5.853.645v26.374a5.879 5.879 0 005.868 5.867 5.878 5.878 0 005.866-5.866 5.879 5.879 0 00-5.476-5.855v-4.697c5.635.204 10.17 4.866 10.17 10.552 0 5.815-4.744 10.561-10.56 10.561-5.819 0-10.562-4.746-10.562-10.562V22.137c-.666.283-1.318.597-1.956.934V47.02c.001 6.893 5.625 12.514 12.518 12.514 6.894 0 12.516-5.621 12.516-12.513 0-6.763-5.41-12.301-12.126-12.51v-4.695c9.3.21 16.818 7.858 16.818 17.205 0 9.48-7.731 17.208-17.208 17.208-9.48 0-17.212-7.728-17.212-17.21V26.187c-5.986 4.95-9.803 12.434-9.803 20.812C411.5 61.91 423.588 74 438.5 74c14.915 0 27-12.09 27-27.002 0-14.91-12.085-26.998-27-26.998z" fill="#D91935"/><path d="M482.233 56.5v-5.76h1.8c.496-.608 1.016-1.848 1.56-3.72.56-1.888.904-4.208 1.032-6.96l.168-3.36h10.416v14.04h2.28v5.76h-2.76v-3h-11.736v3h-2.76zm7.152-14.112c-.144 1.968-.44 3.736-.888 5.304s-.856 2.584-1.224 3.048h7.008V39.46h-4.632l-.264 2.928zm12.775 9.792c-1.072-1.072-1.608-2.432-1.608-4.08 0-1.648.536-3 1.608-4.056 1.088-1.072 2.512-1.608 4.272-1.608 1.76 0 3.176.536 4.248 1.608 1.088 1.056 1.632 2.408 1.632 4.056 0 1.648-.544 3.008-1.632 4.08-1.072 1.056-2.488 1.584-4.248 1.584-1.76 0-3.184-.528-4.272-1.584zm1.344-4.08c0 .896.272 1.64.816 2.232.56.576 1.264.864 2.112.864.864 0 1.568-.28 2.112-.84.56-.576.84-1.328.84-2.256 0-.896-.28-1.632-.84-2.208-.56-.576-1.264-.864-2.112-.864-.832 0-1.528.288-2.088.864-.56.56-.84 1.296-.84 2.208zm18.564 5.4v-8.208h-4.608V53.5h-2.76V42.7h10.128v10.8h-2.76zm6.763-1.32c-1.072-1.072-1.608-2.432-1.608-4.08 0-1.648.536-3 1.608-4.056 1.088-1.072 2.512-1.608 4.272-1.608 1.76 0 3.176.536 4.248 1.608 1.088 1.056 1.632 2.408 1.632 4.056 0 1.648-.544 3.008-1.632 4.08-1.072 1.056-2.488 1.584-4.248 1.584-1.76 0-3.184-.528-4.272-1.584zm1.344-4.08c0 .896.272 1.64.816 2.232.56.576 1.264.864 2.112.864.864 0 1.568-.28 2.112-.84.56-.576.84-1.328.84-2.256 0-.896-.28-1.632-.84-2.208-.56-.576-1.264-.864-2.112-.864-.832 0-1.528.288-2.088.864-.56.56-.84 1.296-.84 2.208zm17.949 5.4v-8.04h-2.856l-.072 1.152c-.176 1.936-.472 3.424-.888 4.464-.4 1.04-.912 1.744-1.536 2.112-.608.352-1.424.528-2.448.528l-.24-2.688a1.4 1.4 0 00.984-.288c.32-.24.624-.752.912-1.536.288-.8.472-1.848.552-3.144l.168-3.36h8.184v10.8h-2.76zm13.322 0v-4.128h-4.728V53.5h-2.76V42.7h2.76v4.08h4.728V42.7h2.76v10.8h-2.76zm14.296-3.024l.792 1.944c-1.056.896-2.432 1.344-4.128 1.344-1.744 0-3.152-.52-4.224-1.56-1.056-1.04-1.584-2.408-1.584-4.104 0-1.616.52-2.96 1.56-4.032 1.04-1.088 2.424-1.632 4.152-1.632 1.424 0 2.632.472 3.624 1.416.992.928 1.488 2.128 1.488 3.6 0 .608-.056 1.104-.168 1.488h-7.8c.112.8.464 1.424 1.056 1.872.592.432 1.32.648 2.184.648 1.216 0 2.232-.328 3.048-.984zm-3.552-5.736c-1.568 0-2.512.784-2.832 2.352h5.304c.016-.672-.2-1.232-.648-1.68-.448-.448-1.056-.672-1.824-.672zm14.943 8.76v-4.128h-4.728V53.5h-2.76V42.7h2.76v4.08h4.728V42.7h2.76v10.8h-2.76zm13.313 0v-4.128h-4.728V53.5h-2.76V42.7h2.76v4.08h4.728V42.7h2.76v10.8h-2.76zm5.824 0V42.7h2.76v2.952h1.344c1.696 0 2.912.352 3.648 1.056.736.704 1.104 1.6 1.104 2.688 0 1.168-.4 2.144-1.2 2.928-.8.784-2.056 1.176-3.768 1.176h-3.888zm10.392 0V42.7h2.76v10.8h-2.76zm-6.528-5.64h-1.104v3.24h1.08c1.392 0 2.088-.536 2.088-1.608 0-1.088-.688-1.632-2.064-1.632zm20.827 2.616l.792 1.944c-1.056.896-2.432 1.344-4.128 1.344-1.744 0-3.152-.52-4.224-1.56-1.056-1.04-1.584-2.408-1.584-4.104 0-1.616.52-2.96 1.56-4.032 1.04-1.088 2.424-1.632 4.152-1.632 1.424 0 2.632.472 3.624 1.416.992.928 1.488 2.128 1.488 3.6 0 .608-.056 1.104-.168 1.488h-7.8c.112.8.464 1.424 1.056 1.872.592.432 1.32.648 2.184.648 1.216 0 2.232-.328 3.048-.984zm-3.552-5.736c-1.568 0-2.512.784-2.832 2.352h5.304c.016-.672-.2-1.232-.648-1.68-.448-.448-1.056-.672-1.824-.672zm20.725 5.136l1.296 2.016c-.448.608-1.056 1.072-1.824 1.392-.752.32-1.576.48-2.472.48-1.76 0-3.176-.52-4.248-1.56s-1.608-2.408-1.608-4.104c0-1.6.528-2.944 1.584-4.032s2.392-1.632 4.008-1.632c1.92 0 3.368.488 4.344 1.464l-1.296 2.184c-.72-.704-1.616-1.056-2.688-1.056-.8 0-1.504.288-2.112.864-.592.56-.888 1.296-.888 2.208 0 .928.304 1.68.912 2.256.624.56 1.36.84 2.208.84 1.056 0 1.984-.44 2.784-1.32zm10.879 3.624v-8.208h-4.608V53.5h-2.76V42.7h10.128v10.8h-2.76zm5.828 4.8V42.7h2.76v1.032c.352-.368.824-.672 1.416-.912a4.898 4.898 0 011.92-.384c1.472 0 2.656.512 3.552 1.536.896 1.024 1.344 2.344 1.344 3.96 0 1.68-.528 3.072-1.584 4.176s-2.432 1.656-4.128 1.656c-1.072 0-1.912-.176-2.52-.528V58.3h-2.76zm5.232-13.272c-.944 0-1.768.392-2.472 1.176v4.368c.64.416 1.4.624 2.28.624.928 0 1.664-.296 2.208-.888.544-.608.816-1.376.816-2.304 0-.88-.248-1.592-.744-2.136-.496-.56-1.192-.84-2.088-.84zm8.991.456l-.696-2.016a7.385 7.385 0 013.816-1.032c1.536 0 2.64.376 3.312 1.128.672.752 1.008 1.872 1.008 3.36V53.5h-2.4v-1.248c-.656.928-1.72 1.392-3.192 1.392-1.008 0-1.824-.296-2.448-.888-.624-.592-.936-1.4-.936-2.424 0-1.136.368-2 1.104-2.592.736-.608 1.68-.912 2.832-.912.992 0 1.808.232 2.448.696.032-.944-.104-1.64-.408-2.088-.304-.464-.84-.696-1.608-.696-.8 0-1.744.248-2.832.744zm2.76 5.832c.928 0 1.624-.328 2.088-.984v-1.104c-.464-.352-1.096-.528-1.896-.528-.496 0-.912.12-1.248.36-.32.224-.48.552-.48.984 0 .4.144.712.432.936.288.224.656.336 1.104.336zm7.509 2.184V42.7c.192 0 .544-.008 1.056-.024a51.715 51.715 0 013.192-.096c3.264 0 4.896.944 4.896 2.832 0 .624-.2 1.16-.6 1.608a2.231 2.231 0 01-1.416.792v.048c1.536.368 2.304 1.2 2.304 2.496 0 2.176-1.712 3.264-5.136 3.264a55.3 55.3 0 01-2.28-.072 86.639 86.639 0 00-2.016-.048zm4.488-4.584h-1.728v2.4c1.088.064 1.696.096 1.824.096.608 0 1.08-.112 1.416-.336.352-.224.528-.528.528-.912 0-.832-.68-1.248-2.04-1.248zm0-4.104c-.768 0-1.344.016-1.728.048v2.376h1.8c.48 0 .872-.104 1.176-.312.32-.224.48-.536.48-.936 0-.784-.576-1.176-1.728-1.176zm8.495 7.368c-1.072-1.072-1.608-2.432-1.608-4.08 0-1.648.536-3 1.608-4.056 1.088-1.072 2.512-1.608 4.272-1.608 1.76 0 3.176.536 4.248 1.608 1.088 1.056 1.632 2.408 1.632 4.056 0 1.648-.544 3.008-1.632 4.08-1.072 1.056-2.488 1.584-4.248 1.584-1.76 0-3.184-.528-4.272-1.584zm1.344-4.08c0 .896.272 1.64.816 2.232.56.576 1.264.864 2.112.864.864 0 1.568-.28 2.112-.84.56-.576.84-1.328.84-2.256 0-.896-.28-1.632-.84-2.208-.56-.576-1.264-.864-2.112-.864-.832 0-1.528.288-2.088.864-.56.56-.84 1.296-.84 2.208zm19.908-5.4v10.8h-2.76v-3.72c-.784.416-1.68.624-2.688.624-1.36 0-2.352-.352-2.976-1.056-.624-.72-.936-1.784-.936-3.192V42.7h2.952v3.12c0 1.328.584 1.992 1.752 1.992.768 0 1.4-.144 1.896-.432V42.7h2.76zm10.565 10.8v-4.128h-4.728V53.5h-2.76V42.7h2.76v4.08h4.728V42.7h2.76v10.8h-2.76zm8.585 0h-2.76V42.7h2.76v6.84l5.04-6.84h2.76v10.8h-2.76v-6.84l-5.04 6.84zm21.105-10.8l-4.152 5.136 4.656 5.664h-3.6l-4.272-5.448 3.888-5.352h3.48zm-10.224 10.8V42.7h2.76v10.8h-2.76zm15.111 0h-2.76V42.7h2.76v6.84l5.04-6.84h2.76v10.8h-2.76v-6.84l-5.04 6.84z" fill="#141414"/><rect x="368.5" y="1.5" width="453" height="91" rx="6.5" stroke="#005DED" stroke-width="3"/><path d="M485.609 213.876v-21.473c0-.432-.288-.721-.721-.721h-3.169c-.432 0-.721.289-.721.721v21.473c0 .433.289.721.721.721h3.169c.433-.144.721-.432.721-.721zm-16.425.577v-22.627c-1.729 0-4.467 1.153-4.467 3.603v15.421c-1.008.144-2.449.288-3.314.288-2.881 0-3.601-2.017-3.601-4.756v-11.097c-.145-2.738-3.17-3.459-4.467-3.459v14.412c0 5.188 2.593 8.503 8.068 8.503.865 0 2.594-.288 3.314-.432v.288c.721 4.468-4.754 2.738-7.636 2.45-2.161 0-3.602 1.729-4.034 3.747 1.297.432 5.331.865 8.212 1.153 5.187.144 7.925-2.738 7.925-7.494zm8.212-.577v-21.473c0-.432-.288-.721-.72-.721h-3.17c-.432 0-.72.289-.72.721v21.473c0 .433.288.721.72.721h3.17c.432-.144.72-.432.72-.721zm-2.305-28.247a2.276 2.276 0 012.305 2.306 2.276 2.276 0 01-2.305 2.306 2.276 2.276 0 01-2.305-2.306c0-1.153 1.008-2.306 2.305-2.306zm8.357 0a2.276 2.276 0 012.305 2.306 2.276 2.276 0 01-2.305 2.306 2.277 2.277 0 01-2.306-2.306c0-1.153 1.009-2.306 2.306-2.306z" fill="#C5CDCF"/><path fill-rule="evenodd" clip-rule="evenodd" d="M426.071 192.757c-2.251-6.497 4.327-13.462 9.738-13.67 3.242 1.692 6.026 6.135 5.887 12.164-.425 7.428-5.679 13.83-11.397 19.728-.319-7.192-1.845-11.777-4.228-18.222z" fill="#9BE400"/><path fill-rule="evenodd" clip-rule="evenodd" d="M413.315 227.938c-.905-7.252 2.038-13.438 4.96-17.211 1.388-1.771 2.455-3.387 3.268-4.876 1.534.665 5.66 2.83 7.933 6.345-.33 5.099-4.097 14.379-16.161 15.742z" fill="#3E7FCA"/><path fill-rule="evenodd" clip-rule="evenodd" d="M408.757 200.394c-9.602-2.687-11.97-11.124-11.542-16.798 9.324-3.78 19.358.092 25.152 8.163 4.062 5.657 6.606 12.909 7.121 19.239-2.786-3.679-6.306-5.811-10.79-7.48-3.066-1.141-5.899-1.897-9.941-3.124z" fill="#E4B200"/><path d="M504.644 210v-16.8h2.976l5.736 7.848 5.472-7.848h2.784V210h-2.928v-12.144l-5.304 7.464h-.432l-5.352-7.392V210h-2.952zm29.313-3.024l.792 1.944c-1.056.896-2.432 1.344-4.128 1.344-1.744 0-3.152-.52-4.224-1.56-1.056-1.04-1.584-2.408-1.584-4.104 0-1.616.52-2.96 1.56-4.032 1.04-1.088 2.424-1.632 4.152-1.632 1.424 0 2.632.472 3.624 1.416.992.928 1.488 2.128 1.488 3.6 0 .608-.056 1.104-.168 1.488h-7.8c.112.8.464 1.424 1.056 1.872.592.432 1.32.648 2.184.648 1.216 0 2.232-.328 3.048-.984zm-3.552-5.736c-1.568 0-2.512.784-2.832 2.352h5.304c.016-.672-.2-1.232-.648-1.68-.448-.448-1.056-.672-1.824-.672zm5.808 11.28v-5.088h1.368c.848-1.12 1.352-3 1.512-5.64l.168-2.592h7.968v8.232h1.8v5.088h-2.592V210h-7.656v2.52h-2.568zm5.544-9.624c-.192 2.096-.624 3.608-1.296 4.536h4.008v-5.64h-2.64l-.072 1.104zM553.605 210h-2.76v-10.8h2.76v6.84l5.04-6.84h2.76V210h-2.76v-6.84l-5.04 6.84zm11.72-8.016l-.696-2.016a7.385 7.385 0 013.816-1.032c1.536 0 2.64.376 3.312 1.128.672.752 1.008 1.872 1.008 3.36V210h-2.4v-1.248c-.656.928-1.72 1.392-3.192 1.392-1.008 0-1.824-.296-2.448-.888-.624-.592-.936-1.4-.936-2.424 0-1.136.368-2 1.104-2.592.736-.608 1.68-.912 2.832-.912.992 0 1.808.232 2.448.696.032-.944-.104-1.64-.408-2.088-.304-.464-.84-.696-1.608-.696-.8 0-1.744.248-2.832.744zm2.76 5.832c.928 0 1.624-.328 2.088-.984v-1.104c-.464-.352-1.096-.528-1.896-.528-.496 0-.912.12-1.248.36-.32.224-.48.552-.48.984 0 .4.144.712.432.936.288.224.656.336 1.104.336zm17.83-8.616l-3.6 5.16 3.84 5.64h-3.36l-2.52-3.888-2.616 3.888h-3.192l3.84-5.496-3.6-5.304h3.384l2.28 3.576 2.352-3.576h3.192zm2.219 15.6v-15.6h2.76v1.032c.352-.368.824-.672 1.416-.912a4.898 4.898 0 011.92-.384c1.472 0 2.656.512 3.552 1.536.896 1.024 1.344 2.344 1.344 3.96 0 1.68-.528 3.072-1.584 4.176s-2.432 1.656-4.128 1.656c-1.072 0-1.912-.176-2.52-.528v5.064h-2.76zm5.232-13.272c-.944 0-1.768.392-2.472 1.176v4.368c.64.416 1.4.624 2.28.624.928 0 1.664-.296 2.208-.888.544-.608.816-1.376.816-2.304 0-.88-.248-1.592-.744-2.136-.496-.56-1.192-.84-2.088-.84zm8.99.456l-.696-2.016a7.385 7.385 0 013.816-1.032c1.536 0 2.64.376 3.312 1.128.672.752 1.008 1.872 1.008 3.36V210h-2.4v-1.248c-.656.928-1.72 1.392-3.192 1.392-1.008 0-1.824-.296-2.448-.888-.624-.592-.936-1.4-.936-2.424 0-1.136.368-2 1.104-2.592.736-.608 1.68-.912 2.832-.912.992 0 1.808.232 2.448.696.032-.944-.104-1.64-.408-2.088-.304-.464-.84-.696-1.608-.696-.8 0-1.744.248-2.832.744zm2.76 5.832c.928 0 1.624-.328 2.088-.984v-1.104c-.464-.352-1.096-.528-1.896-.528-.496 0-.912.12-1.248.36-.32.224-.48.552-.48.984 0 .4.144.712.432.936.288.224.656.336 1.104.336zM620.114 210v-4.128h-4.728V210h-2.76v-10.8h2.76v4.08h4.728v-4.08h2.76V210h-2.76zm8.584 0h-2.76v-10.8h2.76v6.84l5.04-6.84h2.76V210h-2.76v-6.84l-5.04 6.84zm17.985 0v-8.04h-2.856l-.072 1.152c-.176 1.936-.472 3.424-.888 4.464-.4 1.04-.912 1.744-1.536 2.112-.608.352-1.424.528-2.448.528l-.24-2.688a1.4 1.4 0 00.984-.288c.32-.24.624-.752.912-1.536.288-.8.472-1.848.552-3.144l.168-3.36h8.184V210h-2.76zm8.593 0h-2.76v-10.8h2.76v6.84l5.04-6.84h2.76V210h-2.76v-6.84l-5.04 6.84zm10.881 0v-10.8h2.76v8.232h3.048V199.2h2.76v8.232h3.072V199.2h2.76v8.232h1.8v5.088h-2.592V210h-13.608zm26.496-3.024l.792 1.944c-1.056.896-2.432 1.344-4.128 1.344-1.744 0-3.152-.52-4.224-1.56-1.056-1.04-1.584-2.408-1.584-4.104 0-1.616.52-2.96 1.56-4.032 1.04-1.088 2.424-1.632 4.152-1.632 1.424 0 2.632.472 3.624 1.416.992.928 1.488 2.128 1.488 3.6 0 .608-.056 1.104-.168 1.488h-7.8c.112.8.464 1.424 1.056 1.872.592.432 1.32.648 2.184.648 1.216 0 2.232-.328 3.048-.984zm-3.552-5.736c-1.568 0-2.512.784-2.832 2.352h5.304c.016-.672-.2-1.232-.648-1.68-.448-.448-1.056-.672-1.824-.672zm12.54 8.76v-10.8h2.496l3.672 4.512 3.48-4.512h2.424V210h-2.76v-6.6l-3.192 4.032h-.072l-3.288-4.032v6.6h-2.76zm16.077-1.32c-1.072-1.072-1.608-2.432-1.608-4.08 0-1.648.536-3 1.608-4.056 1.088-1.072 2.512-1.608 4.272-1.608 1.76 0 3.176.536 4.248 1.608 1.088 1.056 1.632 2.408 1.632 4.056 0 1.648-.544 3.008-1.632 4.08-1.072 1.056-2.488 1.584-4.248 1.584-1.76 0-3.184-.528-4.272-1.584zm1.344-4.08c0 .896.272 1.64.816 2.232.56.576 1.264.864 2.112.864.864 0 1.568-.28 2.112-.84.56-.576.84-1.328.84-2.256 0-.896-.28-1.632-.84-2.208-.56-.576-1.264-.864-2.112-.864-.832 0-1.528.288-2.088.864-.56.56-.84 1.296-.84 2.208zm9.549 7.92v-5.088h1.368c.848-1.12 1.352-3 1.512-5.64l.168-2.592h7.968v8.232h1.8v5.088h-2.592V210h-7.656v2.52h-2.568zm5.544-9.624c-.192 2.096-.624 3.608-1.296 4.536h4.008v-5.64h-2.64l-.072 1.104zm17.56 4.08l.792 1.944c-1.056.896-2.432 1.344-4.128 1.344-1.744 0-3.152-.52-4.224-1.56-1.056-1.04-1.584-2.408-1.584-4.104 0-1.616.52-2.96 1.56-4.032 1.04-1.088 2.424-1.632 4.152-1.632 1.424 0 2.632.472 3.624 1.416.992.928 1.488 2.128 1.488 3.6 0 .608-.056 1.104-.168 1.488h-7.8c.112.8.464 1.424 1.056 1.872.592.432 1.32.648 2.184.648 1.216 0 2.232-.328 3.048-.984zm-3.552-5.736c-1.568 0-2.512.784-2.832 2.352h5.304c.016-.672-.2-1.232-.648-1.68-.448-.448-1.056-.672-1.824-.672zM762.37 210v-8.04h-2.856l-.072 1.152c-.176 1.936-.472 3.424-.888 4.464-.4 1.04-.912 1.744-1.536 2.112-.608.352-1.424.528-2.448.528l-.24-2.688a1.4 1.4 0 00.984-.288c.32-.24.624-.752.912-1.536.288-.8.472-1.848.552-3.144l.168-3.36h8.184V210h-2.76zm14.306-3.024l.792 1.944c-1.056.896-2.432 1.344-4.128 1.344-1.744 0-3.152-.52-4.224-1.56-1.056-1.04-1.584-2.408-1.584-4.104 0-1.616.52-2.96 1.56-4.032 1.04-1.088 2.424-1.632 4.152-1.632 1.424 0 2.632.472 3.624 1.416.992.928 1.488 2.128 1.488 3.6 0 .608-.056 1.104-.168 1.488h-7.8c.112.8.464 1.424 1.056 1.872.592.432 1.32.648 2.184.648 1.216 0 2.232-.328 3.048-.984zm-3.552-5.736c-1.568 0-2.512.784-2.832 2.352h5.304c.016-.672-.2-1.232-.648-1.68-.448-.448-1.056-.672-1.824-.672zm10.215 8.76h-2.76v-10.8h2.76v6.84l5.04-6.84h2.76V210h-2.76v-6.84l-5.04 6.84zm-1.152-16.2h2.52c0 .496.096.912.288 1.248.208.336.528.504.96.504a.934.934 0 00.864-.504c.192-.336.288-.752.288-1.248h2.52c0 1.088-.32 1.984-.96 2.688-.64.688-1.544 1.032-2.712 1.032-1.28 0-2.232-.336-2.856-1.008-.608-.688-.912-1.592-.912-2.712z" fill="#141414"/><rect x="368.5" y="160.5" width="453" height="86" rx="6.5" stroke="#005DED" stroke-width="3"/><g clip-path="url(#clip0_1216_4213)"><path d="M1213 51.809c2.65 0 4.81-2.153 4.81-4.809a4.816 4.816 0 00-9.63 0 4.816 4.816 0 004.82 4.809z" fill="#61DAFB"/><path d="M1213 56.851c14.27 0 25.83-4.41 25.83-9.851 0-5.441-11.56-9.852-25.83-9.852-14.26 0-25.82 4.41-25.82 9.852 0 5.44 11.56 9.851 25.82 9.851z" stroke="#61DAFB"/><path d="M1204.46 51.925c7.13 12.341 16.74 20.14 21.46 17.42 4.71-2.72 2.75-14.93-4.38-27.271-7.13-12.341-16.73-20.14-21.45-17.42-4.72 2.72-2.76 14.93 4.37 27.271z" stroke="#61DAFB"/><path d="M1204.46 42.074c-7.13 12.341-9.09 24.55-4.37 27.271 4.71 2.72 14.32-5.078 21.45-17.42 7.13-12.34 9.09-24.55 4.37-27.27-4.71-2.72-14.32 5.078-21.45 17.42z" stroke="#61DAFB"/></g><path d="M1268.9 53.5V39.46h-7.49V53.5h-2.95V36.7h13.39v16.8h-2.95zm6.81 4.8V42.7h2.76v1.032c.35-.368.83-.672 1.42-.912a4.912 4.912 0 011.92-.384c1.47 0 2.65.512 3.55 1.536.9 1.024 1.34 2.344 1.34 3.96 0 1.68-.52 3.072-1.58 4.176s-2.43 1.656-4.13 1.656c-1.07 0-1.91-.176-2.52-.528V58.3h-2.76zm5.23-13.272c-.94 0-1.76.392-2.47 1.176v4.368c.64.416 1.4.624 2.28.624.93 0 1.67-.296 2.21-.888.54-.608.82-1.376.82-2.304 0-.88-.25-1.592-.75-2.136-.49-.56-1.19-.84-2.09-.84zm10.91 8.472h-2.76V42.7h2.76v6.84l5.04-6.84h2.76v10.8h-2.76v-6.84l-5.04 6.84zm17.99 0v-8.04h-2.86l-.07 1.152c-.17 1.936-.47 3.424-.89 4.464-.4 1.04-.91 1.744-1.53 2.112-.61.352-1.43.528-2.45.528l-.24-2.688c.35.032.68-.064.98-.288.32-.24.63-.752.92-1.536.28-.8.47-1.848.55-3.144l.17-3.36h8.18v10.8h-2.76zm6.77-1.32c-1.07-1.072-1.61-2.432-1.61-4.08 0-1.648.54-3 1.61-4.056 1.09-1.072 2.51-1.608 4.27-1.608 1.76 0 3.18.536 4.25 1.608 1.09 1.056 1.63 2.408 1.63 4.056 0 1.648-.54 3.008-1.63 4.08-1.07 1.056-2.49 1.584-4.25 1.584-1.76 0-3.18-.528-4.27-1.584zm1.34-4.08c0 .896.27 1.64.82 2.232.56.576 1.26.864 2.11.864.86 0 1.57-.28 2.11-.84.56-.576.84-1.328.84-2.256 0-.896-.28-1.632-.84-2.208-.56-.576-1.26-.864-2.11-.864-.83 0-1.53.288-2.09.864-.56.56-.84 1.296-.84 2.208zm25.54-5.4l-3.57 5.232 3.86 5.568h-3.26l-3.6-5.568 3.31-5.232h3.26zm-9.45 10.8V42.7h2.76v10.8h-2.76zm-3.1-5.568l-3.6-5.232h3.36l3.22 5.232-3.51 5.568h-3.28l3.81-5.568zm22.38 2.544l.8 1.944c-1.06.896-2.44 1.344-4.13 1.344-1.75 0-3.15-.52-4.23-1.56-1.05-1.04-1.58-2.408-1.58-4.104 0-1.616.52-2.96 1.56-4.032 1.04-1.088 2.42-1.632 4.15-1.632 1.43 0 2.63.472 3.63 1.416.99.928 1.48 2.128 1.48 3.6 0 .608-.05 1.104-.16 1.488h-7.8c.11.8.46 1.424 1.05 1.872.59.432 1.32.648 2.19.648 1.21 0 2.23-.328 3.04-.984zm-3.55-5.736c-1.57 0-2.51.784-2.83 2.352h5.3c.02-.672-.2-1.232-.64-1.68-.45-.448-1.06-.672-1.83-.672zm14.95 8.76v-4.128h-4.73V53.5h-2.76V42.7h2.76v4.08h4.73V42.7h2.76v10.8h-2.76zm8.58 0h-2.76V42.7h2.76v6.84l5.04-6.84h2.76v10.8h-2.76v-6.84l-5.04 6.84zm19.35-3.024l.79 1.944c-1.05.896-2.43 1.344-4.12 1.344-1.75 0-3.16-.52-4.23-1.56-1.05-1.04-1.58-2.408-1.58-4.104 0-1.616.52-2.96 1.56-4.032 1.04-1.088 2.42-1.632 4.15-1.632 1.42 0 2.63.472 3.62 1.416 1 .928 1.49 2.128 1.49 3.6 0 .608-.05 1.104-.17 1.488h-7.8c.12.8.47 1.424 1.06 1.872.59.432 1.32.648 2.18.648 1.22 0 2.24-.328 3.05-.984zm-3.55-5.736c-1.57 0-2.51.784-2.83 2.352h5.3c.02-.672-.2-1.232-.65-1.68-.44-.448-1.05-.672-1.82-.672zm20.03 8.76v-4.128h-4.73V53.5h-2.76V42.7h2.76v4.08h4.73V42.7h2.76v10.8h-2.76zm6.66-8.016l-.69-2.016a7.384 7.384 0 013.81-1.032c1.54 0 2.64.376 3.32 1.128.67.752 1 1.872 1 3.36V53.5h-2.4v-1.248c-.65.928-1.72 1.392-3.19 1.392-1.01 0-1.82-.296-2.45-.888-.62-.592-.93-1.4-.93-2.424 0-1.136.37-2 1.1-2.592.74-.608 1.68-.912 2.83-.912 1 0 1.81.232 2.45.696.03-.944-.1-1.64-.41-2.088-.3-.464-.84-.696-1.6-.696-.8 0-1.75.248-2.84.744zm2.76 5.832c.93 0 1.63-.328 2.09-.984v-1.104c-.46-.352-1.09-.528-1.89-.528-.5 0-.92.12-1.25.36-.32.224-.48.552-.48.984 0 .4.14.712.43.936.29.224.66.336 1.1.336zm16.34 2.184h-2.95V36.7c.35 0 1.26-.008 2.71-.024 1.48-.016 2.28-.024 2.4-.024 4.07 0 6.1 1.728 6.1 5.184 0 1.296-.33 2.352-.98 3.168-.66.8-1.41 1.344-2.26 1.632l5.26 6.864h-3.58l-4.63-6.288h-2.07V53.5zm2.02-14.088c-.29 0-.96.016-2.02.048v4.992h1.92c.92 0 1.68-.224 2.28-.672.63-.464.94-1.104.94-1.92 0-1.632-1.04-2.448-3.12-2.448zm17.52 11.064l.8 1.944c-1.06.896-2.44 1.344-4.13 1.344-1.75 0-3.15-.52-4.23-1.56-1.05-1.04-1.58-2.408-1.58-4.104 0-1.616.52-2.96 1.56-4.032 1.04-1.088 2.42-1.632 4.15-1.632 1.43 0 2.63.472 3.63 1.416.99.928 1.48 2.128 1.48 3.6 0 .608-.05 1.104-.16 1.488h-7.8c.11.8.46 1.424 1.05 1.872.59.432 1.32.648 2.19.648 1.21 0 2.23-.328 3.04-.984zm-3.55-5.736c-1.57 0-2.51.784-2.83 2.352h5.3c.02-.672-.2-1.232-.64-1.68-.45-.448-1.06-.672-1.83-.672zm8.3.744l-.7-2.016a7.394 7.394 0 013.82-1.032c1.53 0 2.64.376 3.31 1.128.67.752 1.01 1.872 1.01 3.36V53.5h-2.4v-1.248c-.66.928-1.72 1.392-3.2 1.392-1 0-1.82-.296-2.44-.888-.63-.592-.94-1.4-.94-2.424 0-1.136.37-2 1.1-2.592.74-.608 1.68-.912 2.84-.912.99 0 1.8.232 2.44.696.04-.944-.1-1.64-.4-2.088-.31-.464-.84-.696-1.61-.696-.8 0-1.75.248-2.83.744zm2.76 5.832c.92 0 1.62-.328 2.08-.984v-1.104c-.46-.352-1.09-.528-1.89-.528-.5 0-.91.12-1.25.36-.32.224-.48.552-.48.984 0 .4.14.712.43.936.29.224.66.336 1.11.336zm15.69-1.44l1.3 2.016c-.45.608-1.06 1.072-1.83 1.392-.75.32-1.57.48-2.47.48-1.76 0-3.18-.52-4.25-1.56-1.07-1.04-1.61-2.408-1.61-4.104 0-1.6.53-2.944 1.59-4.032 1.05-1.088 2.39-1.632 4.01-1.632 1.92 0 3.36.488 4.34 1.464l-1.3 2.184c-.72-.704-1.61-1.056-2.68-1.056-.8 0-1.51.288-2.12.864-.59.56-.88 1.296-.88 2.208 0 .928.3 1.68.91 2.256.62.56 1.36.84 2.21.84 1.05 0 1.98-.44 2.78-1.32zm3.27-.48V39.7h2.76v3h3.48v2.592h-3.48v3.936c0 1.296.43 1.944 1.3 1.944.54 0 1.09-.208 1.65-.624l.84 2.136c-.86.704-1.92 1.056-3.19 1.056-1.18 0-2.04-.36-2.57-1.08-.52-.736-.79-1.824-.79-3.264zm14.39-12.696v12.84c0 1.36-.35 2.408-1.04 3.144-.67.72-1.68 1.08-3.02 1.08-.61 0-1.18-.104-1.7-.312-.53-.208-.92-.448-1.16-.72l.96-2.256c.47.352.96.528 1.49.528 1.01 0 1.51-.656 1.51-1.968V36.7h2.96zm11.39 12.336c0-.448-.15-.84-.43-1.176a3.496 3.496 0 00-1.08-.888 13.43 13.43 0 00-1.49-.72c-.53-.24-1.07-.504-1.61-.792-.54-.304-1.04-.632-1.49-.984-.45-.368-.81-.84-1.1-1.416a4.748 4.748 0 01-.41-1.992c0-1.312.47-2.408 1.42-3.288.96-.896 2.23-1.344 3.81-1.344 2.11 0 3.71.6 4.8 1.8l-1.58 2.208c-.87-.832-1.86-1.248-2.98-1.248-.72 0-1.29.168-1.73.504-.41.336-.62.784-.62 1.344 0 .544.18 1.016.55 1.416.39.4.86.72 1.42.96.56.224 1.17.496 1.82.816.67.32 1.29.656 1.85 1.008.56.336 1.02.832 1.39 1.488.39.64.58 1.4.58 2.28 0 1.392-.54 2.536-1.61 3.432-1.07.88-2.41 1.32-4.01 1.32-1.15 0-2.26-.232-3.33-.696-1.06-.48-1.78-1.128-2.16-1.944l1.68-2.016a4.65 4.65 0 001.75 1.416c.72.32 1.42.48 2.11.48.72 0 1.3-.168 1.75-.504.47-.352.7-.84.7-1.464z" fill="#141414"/><rect x="1157.5" y="4.5" width="382" height="85" rx="6.5" stroke="#005DED" stroke-width="3"/><path d="M357 48l-10-5.773v11.547L357 48zm-50 1h41v-2h-41v2zm576-1l-10-5.773v11.547L883 48zm-50 1h41v-2h-41v2zm153.5 45l-5.774 10h11.547L986.5 94zm0 90h-1 1zM833 205h133.5v-2H833v2zm154.5-21v-81h-2v81h2zm-21 21c11.598 0 21-9.402 21-21h-2c0 10.493-8.507 19-19 19v2zM1146 48l-10-5.773v11.547L1146 48zm-50 1h41v-2h-41v2z" fill="#C5CDCF"/><defs><clipPath id="clip0_1216_4213"><path fill="#fff" transform="translate(1186 23)" d="M0 0h54v48H0z"/></clipPath></defs></svg>