<svg width="991" height="261" viewBox="0 0 991 261" fill="none" xmlns="http://www.w3.org/2000/svg"><path fill-rule="evenodd" clip-rule="evenodd" d="M345 27c-1.341 0-2.645.15-3.902.43v17.582a3.92 3.92 0 003.912 3.912 3.918 3.918 0 003.91-3.91 3.919 3.919 0 00-3.65-3.904v-3.131c3.757.136 6.78 3.244 6.78 7.035 0 3.876-3.163 7.04-7.04 7.04-3.879 0-7.041-3.164-7.041-7.042V28.425a16.87 16.87 0 00-1.304.623v15.964c0 4.596 3.75 8.343 8.345 8.343 4.596 0 8.344-3.747 8.344-8.341 0-4.51-3.607-8.202-8.084-8.34v-3.13c6.2.14 11.212 5.238 11.212 11.47 0 6.32-5.154 11.471-11.472 11.471-6.32 0-11.475-5.152-11.475-11.473V31.124A17.961 17.961 0 00327 44.999C327 54.939 335.059 63 345 63c9.943 0 18-8.06 18-18.001C363 35.059 354.943 27 345 27z" fill="#D91935"/><path d="M380.332 51.5V34.7h9.72v2.76h-6.768v4.176h6.048v2.76h-6.048v4.344h7.008v2.76h-9.96zm11.717 2.52v-5.088h1.368c.848-1.12 1.352-3 1.512-5.64l.168-2.592h7.968v8.232h1.8v5.088h-2.592V51.5h-7.656v2.52h-2.568zm5.544-9.624c-.192 2.096-.624 3.608-1.296 4.536h4.008v-5.64h-2.64l-.072 1.104zm11.848 7.104h-2.76V40.7h2.76v6.84l5.04-6.84h2.76v10.8h-2.76v-6.84l-5.04 6.84zm18.368 0v-4.128h-4.728V51.5h-2.76V40.7h2.76v4.08h4.728V40.7h2.76v10.8h-2.76zm6.665-8.016l-.696-2.016a7.385 7.385 0 013.816-1.032c1.536 0 2.64.376 3.312 1.128.672.752 1.008 1.872 1.008 3.36V51.5h-2.4v-1.248c-.656.928-1.72 1.392-3.192 1.392-1.008 0-1.824-.296-2.448-.888-.624-.592-.936-1.4-.936-2.424 0-1.136.368-2 1.104-2.592.736-.608 1.68-.912 2.832-.912.992 0 1.808.232 2.448.696.032-.944-.104-1.64-.408-2.088-.304-.464-.84-.696-1.608-.696-.8 0-1.744.248-2.832.744zm2.76 5.832c.928 0 1.624-.328 2.088-.984v-1.104c-.464-.352-1.096-.528-1.896-.528-.496 0-.912.12-1.248.36-.32.224-.48.552-.48.984 0 .4.144.712.432.936.288.224.656.336 1.104.336zm12.789-8.616h3.528v10.8h-2.76v-3.24h-1.536l-2.232 3.24h-3.168l2.88-3.84c-.544-.192-1.032-.552-1.464-1.08-.416-.544-.624-1.224-.624-2.04 0-1.136.432-2.056 1.296-2.76.88-.72 2.24-1.08 4.08-1.08zm-2.424 4.032c0 .432.176.792.528 1.08.368.272.776.408 1.224.408h1.44V43.1h-1.224c-.624 0-1.112.16-1.464.48-.336.32-.504.704-.504 1.152zM469.08 51.5v-8.208h-4.608V51.5h-2.76V40.7h10.128v10.8h-2.76zm6.667-8.016l-.696-2.016a7.385 7.385 0 013.816-1.032c1.536 0 2.64.376 3.312 1.128.672.752 1.008 1.872 1.008 3.36V51.5h-2.4v-1.248c-.656.928-1.72 1.392-3.192 1.392-1.008 0-1.824-.296-2.448-.888-.624-.592-.936-1.4-.936-2.424 0-1.136.368-2 1.104-2.592.736-.608 1.68-.912 2.832-.912.992 0 1.808.232 2.448.696.032-.944-.104-1.64-.408-2.088-.304-.464-.84-.696-1.608-.696-.8 0-1.744.248-2.832.744zm2.76 5.832c.928 0 1.624-.328 2.088-.984v-1.104c-.464-.352-1.096-.528-1.896-.528-.496 0-.912.12-1.248.36-.32.224-.48.552-.48.984 0 .4.144.712.432.936.288.224.656.336 1.104.336zm14.997 2.184v-4.128h-4.728V51.5h-2.76V40.7h2.76v4.08h4.728V40.7h2.76v10.8h-2.76zm14.297-3.024l.792 1.944c-1.056.896-2.432 1.344-4.128 1.344-1.744 0-3.152-.52-4.224-1.56-1.056-1.04-1.584-2.408-1.584-4.104 0-1.616.52-2.96 1.56-4.032 1.04-1.088 2.424-1.632 4.152-1.632 1.424 0 2.632.472 3.624 1.416.992.928 1.488 2.128 1.488 3.6 0 .608-.056 1.104-.168 1.488h-7.8c.112.8.464 1.424 1.056 1.872.592.432 1.32.648 2.184.648 1.216 0 2.232-.328 3.048-.984zm-3.552-5.736c-1.568 0-2.512.784-2.832 2.352h5.304c.016-.672-.2-1.232-.648-1.68-.448-.448-1.056-.672-1.824-.672zm14.207 8.76v-8.04H515.6l-.072 1.152c-.176 1.936-.472 3.424-.888 4.464-.4 1.04-.912 1.744-1.536 2.112-.608.352-1.424.528-2.448.528l-.24-2.688a1.4 1.4 0 00.984-.288c.32-.24.624-.752.912-1.536.288-.8.472-1.848.552-3.144l.168-3.36h8.184v10.8h-2.76zm5.834 0V40.7h2.76v2.952h1.488c1.696 0 2.912.352 3.648 1.056.736.704 1.104 1.6 1.104 2.688 0 1.168-.4 2.144-1.2 2.928-.8.784-2.056 1.176-3.768 1.176h-4.032zm4.008-5.64h-1.248v3.24h1.224c1.392 0 2.088-.536 2.088-1.608 0-1.088-.688-1.632-2.064-1.632zm22.697-5.16l-4.248 10.8c-.768 1.872-1.456 3.136-2.064 3.792-.592.672-1.296 1.008-2.112 1.008-.784 0-1.56-.28-2.328-.84l.888-2.088c.432.256.808.384 1.128.384.656 0 1.208-.56 1.656-1.68l.24-.576-4.992-10.8h3.312l2.52 5.904c.096.24.272.76.528 1.56.128-.704.256-1.232.384-1.584l1.944-5.88h3.144zm9.022 10.8v-8.208h-4.608V51.5h-2.76V40.7h10.128v10.8h-2.76zm5.828 4.8V40.7h2.76v1.032c.352-.368.824-.672 1.416-.912a4.898 4.898 0 011.92-.384c1.472 0 2.656.512 3.552 1.536.896 1.024 1.344 2.344 1.344 3.96 0 1.68-.528 3.072-1.584 4.176s-2.432 1.656-4.128 1.656c-1.072 0-1.912-.176-2.52-.528V56.3h-2.76zm5.232-13.272c-.944 0-1.768.392-2.472 1.176v4.368c.64.416 1.4.624 2.28.624.928 0 1.664-.296 2.208-.888.544-.608.816-1.376.816-2.304 0-.88-.248-1.592-.744-2.136-.496-.56-1.192-.84-2.088-.84zm8.99.456l-.696-2.016a7.385 7.385 0 013.816-1.032c1.536 0 2.64.376 3.312 1.128.672.752 1.008 1.872 1.008 3.36V51.5h-2.4v-1.248c-.656.928-1.72 1.392-3.192 1.392-1.008 0-1.824-.296-2.448-.888-.624-.592-.936-1.4-.936-2.424 0-1.136.368-2 1.104-2.592.736-.608 1.68-.912 2.832-.912.992 0 1.808.232 2.448.696.032-.944-.104-1.64-.408-2.088-.304-.464-.84-.696-1.608-.696-.8 0-1.744.248-2.832.744zm2.76 5.832c.928 0 1.624-.328 2.088-.984v-1.104c-.464-.352-1.096-.528-1.896-.528-.496 0-.912.12-1.248.36-.32.224-.48.552-.48.984 0 .4.144.712.432.936.288.224.656.336 1.104.336zm7.51 2.184V40.7c.192 0 .544-.008 1.056-.024a51.715 51.715 0 013.192-.096c3.264 0 4.896.944 4.896 2.832 0 .624-.2 1.16-.6 1.608a2.231 2.231 0 01-1.416.792v.048c1.536.368 2.304 1.2 2.304 2.496 0 2.176-1.712 3.264-5.136 3.264a55.3 55.3 0 01-2.28-.072 86.639 86.639 0 00-2.016-.048zm4.488-4.584h-1.728v2.4c1.088.064 1.696.096 1.824.096.608 0 1.08-.112 1.416-.336.352-.224.528-.528.528-.912 0-.832-.68-1.248-2.04-1.248zm0-4.104c-.768 0-1.344.016-1.728.048v2.376h1.8c.48 0 .872-.104 1.176-.312.32-.224.48-.536.48-.936 0-.784-.576-1.176-1.728-1.176zm14.663 8.688v-8.04h-2.856l-.072 1.152c-.176 1.936-.472 3.424-.888 4.464-.4 1.04-.912 1.744-1.536 2.112-.608.352-1.424.528-2.448.528l-.24-2.688a1.4 1.4 0 00.984-.288c.32-.24.624-.752.912-1.536.288-.8.472-1.848.552-3.144l.168-3.36h8.184v10.8h-2.76zm14.305-3.024l.792 1.944c-1.056.896-2.432 1.344-4.128 1.344-1.744 0-3.152-.52-4.224-1.56-1.056-1.04-1.584-2.408-1.584-4.104 0-1.616.52-2.96 1.56-4.032 1.04-1.088 2.424-1.632 4.152-1.632 1.424 0 2.632.472 3.624 1.416.992.928 1.488 2.128 1.488 3.6 0 .608-.056 1.104-.168 1.488h-7.8c.112.8.464 1.424 1.056 1.872.592.432 1.32.648 2.184.648 1.216 0 2.232-.328 3.048-.984zm-3.552-5.736c-1.568 0-2.512.784-2.832 2.352h5.304c.016-.672-.2-1.232-.648-1.68-.448-.448-1.056-.672-1.824-.672zm14.943 8.76v-4.128h-4.728V51.5h-2.76V40.7h2.76v4.08h4.728V40.7h2.76v10.8h-2.76zm8.585 0h-2.76V40.7h2.76v6.84l5.04-6.84h2.76v10.8h-2.76v-6.84l-5.04 6.84zm16.16-10.8h3.528v10.8h-2.76v-3.24h-1.536l-2.232 3.24h-3.168l2.88-3.84c-.544-.192-1.032-.552-1.464-1.08-.416-.544-.624-1.224-.624-2.04 0-1.136.432-2.056 1.296-2.76.88-.72 2.24-1.08 4.08-1.08zm-2.424 4.032c0 .432.176.792.528 1.08.368.272.776.408 1.224.408h1.44V43.1h-1.224c-.624 0-1.112.16-1.464.48-.336.32-.504.704-.504 1.152z" fill="#141414"/><rect x="281" y="2" width="430" height="86" rx="6" stroke="#274BB8" stroke-width="4"/><path d="M78.96 212.2l-4.657 10.848h-2.04L67.295 212.2h3.288l1.992 4.632c.352.784.624 1.6.816 2.448a15.73 15.73 0 01.792-2.496l1.872-4.584h2.904zm2.012 9.48c-1.072-1.072-1.608-2.432-1.608-4.08 0-1.648.536-3 1.608-4.056 1.088-1.072 2.512-1.608 4.272-1.608 1.76 0 3.176.536 4.248 1.608 1.088 1.056 1.632 2.408 1.632 4.056 0 1.648-.544 3.008-1.632 4.08-1.072 1.056-2.488 1.584-4.248 1.584-1.76 0-3.184-.528-4.272-1.584zm1.344-4.08c0 .896.272 1.64.816 2.232.56.576 1.264.864 2.112.864.864 0 1.568-.28 2.112-.84.56-.576.84-1.328.84-2.256 0-.896-.28-1.632-.84-2.208-.56-.576-1.264-.864-2.112-.864-.832 0-1.528.288-2.088.864-.56.56-.84 1.296-.84 2.208zm11.197 2.424V206.2h2.76v12.696c0 1.168.312 1.752.936 1.752.352 0 .728-.144 1.128-.432l.576 2.112c-.752.608-1.704.912-2.856.912-1.696 0-2.544-1.072-2.544-3.216zm17.323-7.824l-4.056 4.944 4.536 5.856h-3.552l-4.272-5.64 3.864-5.16h3.48zM100.684 223v-16.8h2.76V223h-2.76zm17.393-2.304a.838.838 0 00.408-.744c0-.32-.2-.576-.6-.768a6.723 6.723 0 00-1.464-.528c-.56-.16-1.128-.344-1.704-.552a3.555 3.555 0 01-1.464-1.056c-.4-.48-.6-1.088-.6-1.824 0-1.024.368-1.824 1.104-2.4.752-.592 1.704-.888 2.856-.888 1.76 0 3.128.456 4.104 1.368l-1.032 1.968c-.88-.688-1.856-1.032-2.928-1.032-.4 0-.728.096-.984.288-.24.176-.36.392-.36.648 0 .32.2.584.6.792.4.208.88.384 1.44.528.576.144 1.152.32 1.728.528a3.364 3.364 0 011.464 1.032c.4.464.6 1.048.6 1.752 0 1.056-.4 1.896-1.2 2.52-.784.624-1.84.936-3.168.936-.928 0-1.848-.2-2.76-.6-.896-.4-1.48-.816-1.752-1.248l1.344-1.8c.32.352.824.664 1.512.936.688.272 1.304.408 1.848.408.416 0 .752-.088 1.008-.264zm21.248-8.496l-3.408 10.848h-2.472l-2.304-6c-.064-.16-.136-.4-.216-.72-.08-.32-.128-.504-.144-.552a8.427 8.427 0 01-.384 1.32l-2.28 5.952h-2.352l-3.504-10.848h2.952l1.728 5.88c.064.192.168.672.312 1.44.192-.752.328-1.232.408-1.44l2.016-5.88h2.448l2.088 5.856c.112.32.248.816.408 1.488.064-.336.176-.856.336-1.56l1.584-5.784h2.784zm2.489 2.784l-.696-2.016a7.385 7.385 0 013.816-1.032c1.536 0 2.64.376 3.312 1.128.672.752 1.008 1.872 1.008 3.36V223h-2.4v-1.248c-.656.928-1.72 1.392-3.192 1.392-1.008 0-1.824-.296-2.448-.888-.624-.592-.936-1.4-.936-2.424 0-1.136.368-2 1.104-2.592.736-.608 1.68-.912 2.832-.912.992 0 1.808.232 2.448.696.032-.944-.104-1.64-.408-2.088-.304-.464-.84-.696-1.608-.696-.8 0-1.744.248-2.832.744zm2.76 5.832c.928 0 1.624-.328 2.088-.984v-1.104c-.464-.352-1.096-.528-1.896-.528-.496 0-.912.12-1.248.36-.32.224-.48.552-.48.984 0 .4.144.712.432.936.288.224.656.336 1.104.336zm6.093 3.648c0-.864.312-1.576.936-2.136.64-.576 1.496-.976 2.568-1.2a1.473 1.473 0 01-.192-.744c0-.304.08-.56.24-.768-.8-.32-1.432-.8-1.896-1.44a3.787 3.787 0 01-.672-2.184c0-1.12.424-2.072 1.272-2.856.848-.8 1.96-1.2 3.336-1.2 1.04 0 1.96.256 2.76.768l3.264-.72.096 2.208-1.8.408c.176.448.264.912.264 1.392 0 1.104-.424 2.048-1.272 2.832-.848.768-1.952 1.152-3.312 1.152h-.192a1.35 1.35 0 00-.048.408c0 .208.048.392.144.552h.12c1.664 0 3.016.296 4.056.888 1.04.592 1.56 1.472 1.56 2.64 0 1.168-.52 2.048-1.56 2.64-1.04.592-2.392.888-4.056.888-1.68 0-3.04-.296-4.08-.888-1.024-.576-1.536-1.456-1.536-2.64zm2.568 0c0 .416.272.736.816.96.544.24 1.288.36 2.232.36 2.016 0 3.024-.44 3.024-1.32 0-.4-.264-.72-.792-.96-.512-.24-1.256-.36-2.232-.36-.96 0-1.712.12-2.256.36-.528.24-.792.56-.792.96zm1.56-9.768a1.724 1.724 0 00-.552 1.296c0 .512.184.936.552 1.272.368.32.856.48 1.464.48.592 0 1.072-.16 1.44-.48.384-.32.576-.744.576-1.272s-.184-.96-.552-1.296c-.352-.352-.84-.528-1.464-.528-.608 0-1.096.176-1.464.528zm17.736 5.28l.792 1.944c-1.056.896-2.432 1.344-4.128 1.344-1.744 0-3.152-.52-4.224-1.56-1.056-1.04-1.584-2.408-1.584-4.104 0-1.616.52-2.96 1.56-4.032 1.04-1.088 2.424-1.632 4.152-1.632 1.424 0 2.632.472 3.624 1.416.992.928 1.488 2.128 1.488 3.6 0 .608-.056 1.104-.168 1.488h-7.8c.112.8.464 1.424 1.056 1.872.592.432 1.32.648 2.184.648 1.216 0 2.232-.328 3.048-.984zm-3.552-5.736c-1.568 0-2.512.784-2.832 2.352h5.304c.016-.672-.2-1.232-.648-1.68-.448-.448-1.056-.672-1.824-.672zm7.455 8.76v-10.8h2.76v1.08c.784-.848 1.816-1.272 3.096-1.272 2.96 0 4.44 1.552 4.44 4.656V223h-2.76v-5.856c0-1.696-.808-2.544-2.424-2.544-.88 0-1.664.344-2.352 1.032V223h-2.76zm12.646-1.8c0-.448.176-.856.528-1.224.352-.368.816-.552 1.392-.552.496 0 .912.184 1.248.552.336.368.504.776.504 1.224 0 .512-.168.96-.504 1.344a1.593 1.593 0 01-1.248.576c-.576 0-1.04-.192-1.392-.576a1.926 1.926 0 01-.528-1.344zm6.292.864V206.2h2.76v6.672c.8-.624 1.752-.936 2.856-.936 1.584 0 2.832.512 3.744 1.536.928 1.008 1.392 2.328 1.392 3.96 0 1.776-.56 3.192-1.68 4.248-1.104 1.056-2.6 1.584-4.488 1.584a9.925 9.925 0 01-2.544-.336c-.832-.24-1.512-.528-2.04-.864zm4.968-7.536c-.88 0-1.616.344-2.208 1.032v4.584c.576.368 1.232.552 1.968.552.896 0 1.632-.272 2.208-.816.576-.56.864-1.312.864-2.256 0-.992-.272-1.752-.816-2.28-.528-.544-1.2-.816-2.016-.816zm18.175-2.328l-4.248 10.8c-.768 1.872-1.456 3.136-2.064 3.792-.592.672-1.296 1.008-2.113 1.008-.783 0-1.559-.28-2.327-.84l.888-2.088c.432.256.808.384 1.128.384.656 0 1.208-.56 1.656-1.68l.24-.576-4.992-10.8h3.312l2.52 5.904c.096.24.272.76.528 1.56.128-.704.256-1.232.384-1.584l1.944-5.88h3.144z" fill="#141414"/><rect x="1.5" y="173.5" width="283" height="86" rx="6.5" stroke="#274BB8" stroke-width="3"/><path d="M395.834 212.2l-4.656 10.848h-2.04L384.17 212.2h3.288l1.992 4.632c.352.784.624 1.6.816 2.448a15.73 15.73 0 01.792-2.496l1.872-4.584h2.904zm2.013 9.48c-1.072-1.072-1.608-2.432-1.608-4.08 0-1.648.536-3 1.608-4.056 1.088-1.072 2.512-1.608 4.272-1.608 1.76 0 3.176.536 4.248 1.608 1.088 1.056 1.632 2.408 1.632 4.056 0 1.648-.544 3.008-1.632 4.08-1.072 1.056-2.488 1.584-4.248 1.584-1.76 0-3.184-.528-4.272-1.584zm1.344-4.08c0 .896.272 1.64.816 2.232.56.576 1.264.864 2.112.864.864 0 1.568-.28 2.112-.84.56-.576.84-1.328.84-2.256 0-.896-.28-1.632-.84-2.208-.56-.576-1.264-.864-2.112-.864-.832 0-1.528.288-2.088.864-.56.56-.84 1.296-.84 2.208zm11.197 2.424V206.2h2.76v12.696c0 1.168.312 1.752.936 1.752.352 0 .728-.144 1.128-.432l.576 2.112c-.752.608-1.704.912-2.856.912-1.696 0-2.544-1.072-2.544-3.216zm17.323-7.824l-4.056 4.944 4.536 5.856h-3.552l-4.272-5.64 3.864-5.16h3.48zM417.559 223v-16.8h2.76V223h-2.76zm17.393-2.304a.838.838 0 00.408-.744c0-.32-.2-.576-.6-.768a6.723 6.723 0 00-1.464-.528c-.56-.16-1.128-.344-1.704-.552a3.555 3.555 0 01-1.464-1.056c-.4-.48-.6-1.088-.6-1.824 0-1.024.368-1.824 1.104-2.4.752-.592 1.704-.888 2.856-.888 1.76 0 3.128.456 4.104 1.368l-1.032 1.968c-.88-.688-1.856-1.032-2.928-1.032-.4 0-.728.096-.984.288-.24.176-.36.392-.36.648 0 .32.2.584.6.792.4.208.88.384 1.44.528.576.144 1.152.32 1.728.528a3.364 3.364 0 011.464 1.032c.4.464.6 1.048.6 1.752 0 1.056-.4 1.896-1.2 2.52-.784.624-1.84.936-3.168.936-.928 0-1.848-.2-2.76-.6-.896-.4-1.48-.816-1.752-1.248l1.344-1.8c.32.352.824.664 1.512.936.688.272 1.304.408 1.848.408.416 0 .752-.088 1.008-.264zM456.2 212.2l-3.408 10.848h-2.472l-2.304-6c-.064-.16-.136-.4-.216-.72-.08-.32-.128-.504-.144-.552a8.427 8.427 0 01-.384 1.32l-2.28 5.952h-2.352l-3.504-10.848h2.952l1.728 5.88c.064.192.168.672.312 1.44.192-.752.328-1.232.408-1.44l2.016-5.88H449l2.088 5.856c.112.32.248.816.408 1.488.064-.336.176-.856.336-1.56l1.584-5.784h2.784zm2.489 2.784l-.696-2.016a7.385 7.385 0 013.816-1.032c1.536 0 2.64.376 3.312 1.128.672.752 1.008 1.872 1.008 3.36V223h-2.4v-1.248c-.656.928-1.72 1.392-3.192 1.392-1.008 0-1.824-.296-2.448-.888-.624-.592-.936-1.4-.936-2.424 0-1.136.368-2 1.104-2.592.736-.608 1.68-.912 2.832-.912.992 0 1.808.232 2.448.696.032-.944-.104-1.64-.408-2.088-.304-.464-.84-.696-1.608-.696-.8 0-1.744.248-2.832.744zm2.76 5.832c.928 0 1.624-.328 2.088-.984v-1.104c-.464-.352-1.096-.528-1.896-.528-.496 0-.912.12-1.248.36-.32.224-.48.552-.48.984 0 .4.144.712.432.936.288.224.656.336 1.104.336zm6.093 3.648c0-.864.312-1.576.936-2.136.64-.576 1.496-.976 2.568-1.2a1.473 1.473 0 01-.192-.744c0-.304.08-.56.24-.768-.8-.32-1.432-.8-1.896-1.44a3.787 3.787 0 01-.672-2.184c0-1.12.424-2.072 1.272-2.856.848-.8 1.96-1.2 3.336-1.2 1.04 0 1.96.256 2.76.768l3.264-.72.096 2.208-1.8.408c.176.448.264.912.264 1.392 0 1.104-.424 2.048-1.272 2.832-.848.768-1.952 1.152-3.312 1.152h-.192a1.35 1.35 0 00-.048.408c0 .208.048.392.144.552h.12c1.664 0 3.016.296 4.056.888 1.04.592 1.56 1.472 1.56 2.64 0 1.168-.52 2.048-1.56 2.64-1.04.592-2.392.888-4.056.888-1.68 0-3.04-.296-4.08-.888-1.024-.576-1.536-1.456-1.536-2.64zm2.568 0c0 .416.272.736.816.96.544.24 1.288.36 2.232.36 2.016 0 3.024-.44 3.024-1.32 0-.4-.264-.72-.792-.96-.512-.24-1.256-.36-2.232-.36-.96 0-1.712.12-2.256.36-.528.24-.792.56-.792.96zm1.56-9.768a1.724 1.724 0 00-.552 1.296c0 .512.184.936.552 1.272.368.32.856.48 1.464.48.592 0 1.072-.16 1.44-.48.384-.32.576-.744.576-1.272s-.184-.96-.552-1.296c-.352-.352-.84-.528-1.464-.528-.608 0-1.096.176-1.464.528zm17.736 5.28l.792 1.944c-1.056.896-2.432 1.344-4.128 1.344-1.744 0-3.152-.52-4.224-1.56-1.056-1.04-1.584-2.408-1.584-4.104 0-1.616.52-2.96 1.56-4.032 1.04-1.088 2.424-1.632 4.152-1.632 1.424 0 2.632.472 3.624 1.416.992.928 1.488 2.128 1.488 3.6 0 .608-.056 1.104-.168 1.488h-7.8c.112.8.464 1.424 1.056 1.872.592.432 1.32.648 2.184.648 1.216 0 2.232-.328 3.048-.984zm-3.552-5.736c-1.568 0-2.512.784-2.832 2.352h5.304c.016-.672-.2-1.232-.648-1.68-.448-.448-1.056-.672-1.824-.672zm7.455 8.76v-10.8h2.76v1.08c.784-.848 1.816-1.272 3.096-1.272 2.96 0 4.44 1.552 4.44 4.656V223h-2.76v-5.856c0-1.696-.808-2.544-2.424-2.544-.88 0-1.664.344-2.352 1.032V223h-2.76zm13.054-5.28v-2.568h6.048v2.568h-6.048zm25.463-1.776V223h-2.76v-6.336c0-1.376-.616-2.064-1.848-2.064-1.056 0-1.8.416-2.232 1.248v.384c.016.192.024.328.024.408V223h-2.76v-6.528c0-.576-.16-1.032-.48-1.368-.304-.336-.744-.504-1.32-.504-.992 0-1.744.384-2.256 1.152V223h-2.76v-10.8h2.76v1.2c.832-.928 1.96-1.392 3.384-1.392.8 0 1.472.16 2.016.48.544.32.92.736 1.128 1.248.88-1.152 2.096-1.728 3.648-1.728 2.304 0 3.456 1.312 3.456 3.936zm3.212 7.056v-10.8h2.76V223h-2.76zm-.288-14.688c0-.48.168-.864.504-1.152a1.76 1.76 0 011.224-.456c.416 0 .784.152 1.104.456.32.288.48.672.48 1.152 0 .528-.16.952-.48 1.272-.32.304-.688.456-1.104.456-.496 0-.912-.152-1.248-.456-.32-.32-.48-.744-.48-1.272zM541.286 223v-10.8h2.76v1.08c.784-.848 1.816-1.272 3.096-1.272 2.96 0 4.44 1.552 4.44 4.656V223h-2.76v-5.856c0-1.696-.808-2.544-2.424-2.544-.88 0-1.664.344-2.352 1.032V223h-2.76zm18.166-2.304a.838.838 0 00.408-.744c0-.32-.2-.576-.6-.768a6.723 6.723 0 00-1.464-.528c-.56-.16-1.128-.344-1.704-.552a3.555 3.555 0 01-1.464-1.056c-.4-.48-.6-1.088-.6-1.824 0-1.024.368-1.824 1.104-2.4.752-.592 1.704-.888 2.856-.888 1.76 0 3.128.456 4.104 1.368l-1.032 1.968c-.88-.688-1.856-1.032-2.928-1.032-.4 0-.728.096-.984.288-.24.176-.36.392-.36.648 0 .32.2.584.6.792.4.208.88.384 1.44.528.576.144 1.152.32 1.728.528a3.364 3.364 0 011.464 1.032c.4.464.6 1.048.6 1.752 0 1.056-.4 1.896-1.2 2.52-.784.624-1.84.936-3.168.936-.928 0-1.848-.2-2.76-.6-.896-.4-1.48-.816-1.752-1.248l1.344-1.8c.32.352.824.664 1.512.936.688.272 1.304.408 1.848.408.416 0 .752-.088 1.008-.264zm15.752-8.496l-4.056 4.944 4.536 5.856h-3.552l-4.272-5.64 3.864-5.16h3.48zM565.052 223v-16.8h2.76V223h-2.76zm12.153-1.8c0-.448.176-.856.528-1.224.352-.368.816-.552 1.392-.552.496 0 .912.184 1.248.552.336.368.504.776.504 1.224 0 .512-.168.96-.504 1.344a1.593 1.593 0 01-1.248.576c-.576 0-1.04-.192-1.392-.576a1.926 1.926 0 01-.528-1.344zm6.292.864V206.2h2.76v6.672c.8-.624 1.752-.936 2.856-.936 1.584 0 2.832.512 3.744 1.536.928 1.008 1.392 2.328 1.392 3.96 0 1.776-.56 3.192-1.68 4.248-1.104 1.056-2.6 1.584-4.488 1.584a9.925 9.925 0 01-2.544-.336c-.832-.24-1.512-.528-2.04-.864zm4.968-7.536c-.88 0-1.616.344-2.208 1.032v4.584c.576.368 1.232.552 1.968.552.896 0 1.632-.272 2.208-.816.576-.56.864-1.312.864-2.256 0-.992-.272-1.752-.816-2.28-.528-.544-1.2-.816-2.016-.816zm18.175-2.328l-4.248 10.8c-.768 1.872-1.456 3.136-2.064 3.792-.592.672-1.296 1.008-2.113 1.008-.783 0-1.559-.28-2.327-.84l.888-2.088c.432.256.808.384 1.128.384.656 0 1.208-.56 1.656-1.68l.24-.576-4.992-10.8h3.312l2.52 5.904c.096.24.272.76.528 1.56.128-.704.256-1.232.384-1.584l1.944-5.88h3.144z" fill="#141414"/><rect x="337.5" y="173.5" width="316" height="86" rx="6.5" stroke="#274BB8" stroke-width="3"/><path d="M764.893 212.2l-4.656 10.848h-2.04l-4.968-10.848h3.288l1.992 4.632c.352.784.624 1.6.816 2.448a15.73 15.73 0 01.792-2.496l1.872-4.584h2.904zm17.146 0l-3.408 10.848h-2.472l-2.304-6c-.064-.16-.136-.4-.216-.72-.08-.32-.128-.504-.144-.552a8.427 8.427 0 01-.384 1.32l-2.28 5.952h-2.352l-3.504-10.848h2.952l1.728 5.88c.064.192.168.672.312 1.44.192-.752.328-1.232.408-1.44l2.016-5.88h2.448l2.088 5.856c.112.32.248.816.408 1.488.064-.336.176-.856.336-1.56l1.584-5.784h2.784zm1.601 5.52v-2.568h6.048v2.568h-6.048zm17.678 1.656l1.296 2.016c-.448.608-1.056 1.072-1.824 1.392-.752.32-1.576.48-2.472.48-1.76 0-3.176-.52-4.248-1.56s-1.608-2.408-1.608-4.104c0-1.6.528-2.944 1.584-4.032s2.392-1.632 4.008-1.632c1.92 0 3.368.488 4.344 1.464l-1.296 2.184c-.72-.704-1.616-1.056-2.688-1.056-.8 0-1.504.288-2.112.864-.592.56-.888 1.296-.888 2.208 0 .928.304 1.68.912 2.256.624.56 1.36.84 2.208.84 1.056 0 1.984-.44 2.784-1.32zm3.861 2.304c-1.072-1.072-1.608-2.432-1.608-4.08 0-1.648.536-3 1.608-4.056 1.088-1.072 2.512-1.608 4.272-1.608 1.76 0 3.176.536 4.248 1.608 1.088 1.056 1.632 2.408 1.632 4.056 0 1.648-.544 3.008-1.632 4.08-1.072 1.056-2.488 1.584-4.248 1.584-1.76 0-3.184-.528-4.272-1.584zm1.344-4.08c0 .896.272 1.64.816 2.232.56.576 1.264.864 2.112.864.864 0 1.568-.28 2.112-.84.56-.576.84-1.328.84-2.256 0-.896-.28-1.632-.84-2.208-.56-.576-1.264-.864-2.112-.864-.832 0-1.528.288-2.088.864-.56.56-.84 1.296-.84 2.208zm27.589-1.656V223h-2.76v-6.336c0-1.376-.616-2.064-1.848-2.064-1.056 0-1.8.416-2.232 1.248v.384c.016.192.024.328.024.408V223h-2.76v-6.528c0-.576-.16-1.032-.48-1.368-.304-.336-.744-.504-1.32-.504-.992 0-1.744.384-2.256 1.152V223h-2.76v-10.8h2.76v1.2c.832-.928 1.96-1.392 3.384-1.392.8 0 1.472.16 2.016.48.544.32.92.736 1.128 1.248.88-1.152 2.096-1.728 3.648-1.728 2.304 0 3.456 1.312 3.456 3.936zm19.195 0V223h-2.76v-6.336c0-1.376-.616-2.064-1.848-2.064-1.056 0-1.8.416-2.232 1.248v.384c.016.192.024.328.024.408V223h-2.76v-6.528c0-.576-.16-1.032-.48-1.368-.304-.336-.744-.504-1.32-.504-.992 0-1.744.384-2.256 1.152V223h-2.76v-10.8h2.76v1.2c.832-.928 1.96-1.392 3.384-1.392.8 0 1.472.16 2.016.48.544.32.92.736 1.128 1.248.88-1.152 2.096-1.728 3.648-1.728 2.304 0 3.456 1.312 3.456 3.936zm11.275 4.032l.792 1.944c-1.056.896-2.432 1.344-4.128 1.344-1.744 0-3.152-.52-4.224-1.56-1.056-1.04-1.584-2.408-1.584-4.104 0-1.616.52-2.96 1.56-4.032 1.04-1.088 2.424-1.632 4.152-1.632 1.424 0 2.632.472 3.624 1.416.992.928 1.488 2.128 1.488 3.6 0 .608-.056 1.104-.168 1.488h-7.8c.112.8.464 1.424 1.056 1.872.592.432 1.32.648 2.184.648 1.216 0 2.232-.328 3.048-.984zm-3.552-5.736c-1.568 0-2.512.784-2.832 2.352h5.304c.016-.672-.2-1.232-.648-1.68-.448-.448-1.056-.672-1.824-.672zm7.455 8.76v-10.8h2.76v1.056c.608-.832 1.432-1.248 2.472-1.248.752 0 1.312.136 1.68.408l-.984 2.592c-.464-.272-.928-.408-1.392-.408-.8 0-1.392.384-1.776 1.152V223h-2.76zm16.669-3.624l1.296 2.016c-.448.608-1.056 1.072-1.824 1.392-.752.32-1.576.48-2.472.48-1.76 0-3.176-.52-4.248-1.56s-1.608-2.408-1.608-4.104c0-1.6.528-2.944 1.584-4.032s2.392-1.632 4.008-1.632c1.92 0 3.368.488 4.344 1.464l-1.296 2.184c-.72-.704-1.616-1.056-2.688-1.056-.8 0-1.504.288-2.112.864-.592.56-.888 1.296-.888 2.208 0 .928.304 1.68.912 2.256.624.56 1.36.84 2.208.84 1.056 0 1.984-.44 2.784-1.32zm3.919 3.624v-10.8h2.76V223h-2.76zm-.288-14.688c0-.48.168-.864.504-1.152a1.76 1.76 0 011.224-.456c.416 0 .784.152 1.104.456.32.288.48.672.48 1.152 0 .528-.16.952-.48 1.272-.32.304-.688.456-1.104.456-.496 0-.912-.152-1.248-.456-.32-.32-.48-.744-.48-1.272zm7.376 6.672l-.696-2.016a7.385 7.385 0 013.816-1.032c1.536 0 2.64.376 3.312 1.128.672.752 1.008 1.872 1.008 3.36V223h-2.4v-1.248c-.656.928-1.72 1.392-3.192 1.392-1.008 0-1.824-.296-2.448-.888-.624-.592-.936-1.4-.936-2.424 0-1.136.368-2 1.104-2.592.736-.608 1.68-.912 2.832-.912.992 0 1.808.232 2.448.696.032-.944-.104-1.64-.408-2.088-.304-.464-.84-.696-1.608-.696-.8 0-1.744.248-2.832.744zm2.76 5.832c.928 0 1.624-.328 2.088-.984v-1.104c-.464-.352-1.096-.528-1.896-.528-.496 0-.912.12-1.248.36-.32.224-.48.552-.48.984 0 .4.144.712.432.936.288.224.656.336 1.104.336zm7.51-.792V206.2h2.76v12.696c0 1.168.312 1.752.936 1.752.352 0 .728-.144 1.128-.432l.576 2.112c-.752.608-1.704.912-2.856.912-1.696 0-2.544-1.072-2.544-3.216zm6.715 1.176c0-.448.176-.856.528-1.224.352-.368.816-.552 1.392-.552.496 0 .912.184 1.248.552.336.368.504.776.504 1.224 0 .512-.168.96-.504 1.344a1.593 1.593 0 01-1.248.576c-.576 0-1.04-.192-1.392-.576a1.926 1.926 0 01-.528-1.344zm6.292.864V206.2h2.76v6.672c.8-.624 1.752-.936 2.856-.936 1.584 0 2.832.512 3.744 1.536.928 1.008 1.392 2.328 1.392 3.96 0 1.776-.56 3.192-1.68 4.248-1.104 1.056-2.6 1.584-4.488 1.584a9.925 9.925 0 01-2.544-.336c-.832-.24-1.512-.528-2.04-.864zm4.968-7.536c-.88 0-1.616.344-2.208 1.032v4.584c.576.368 1.232.552 1.968.552.896 0 1.632-.272 2.208-.816.576-.56.864-1.312.864-2.256 0-.992-.272-1.752-.816-2.28-.528-.544-1.2-.816-2.016-.816zm18.175-2.328l-4.248 10.8c-.768 1.872-1.456 3.136-2.064 3.792-.592.672-1.296 1.008-2.112 1.008-.784 0-1.56-.28-2.328-.84l.888-2.088c.432.256.808.384 1.128.384.656 0 1.208-.56 1.656-1.68l.24-.576-4.992-10.8h3.312l2.52 5.904c.096.24.272.76.528 1.56.128-.704.256-1.232.384-1.584l1.944-5.88h3.144z" fill="#141414"/><rect x="706.5" y="173.5" width="283" height="86" rx="6.5" stroke="#274BB8" stroke-width="3"/><path d="M495.531 161.996l5.774-10h-11.547l5.773 10zm-1-60v51h2v-51h-2z" fill="#C5CDCF"/><path d="M142.486 164.738l5.774-10h-11.547l5.773 10zm-1-11.738v2.738h2V153h-2zm21-19h313v-2h-313v2zm334-21V99.738h-2V113h2zm-21 21c11.598 0 21-9.402 21-21h-2c0 10.493-8.506 19-19 19v2zm-332 19c0-10.493 8.507-19 19-19v-2c-11.598 0-21 9.402-21 21h2z" fill="#C5CDCF"/><path d="M849 165l-5.774-10h11.547L849 165zm1-10v1h-2v-1h2zm-21-19H516v-2h313v2zm-334-21v-15h2v15h-2zm21 21c-11.598 0-21-9.402-21-21h2c0 10.493 8.507 19 19 19v2zm332 19c0-10.493-8.507-19-19-19v-2c11.598 0 21 9.402 21 21h-2z" fill="#C5CDCF"/></svg>