<svg width="262" height="62" viewBox="0 0 262 62" fill="none" xmlns="http://www.w3.org/2000/svg"><path fill-rule="evenodd" clip-rule="evenodd" d="M46.418 0L31.126 15.314l-7.968 7.978 7.426 7.437 15.292-15.314 15.292 15.314-7.325 7.335 7.867 7.878 15.292-15.314L46.418 0z" fill="#141414"/><path fill-rule="evenodd" clip-rule="evenodd" d="M46.418 30.628L31.126 45.942 15.834 30.628l7.324-7.336-7.866-7.877L0 30.729l30.584 30.627 15.292-15.314 7.967-7.98-7.425-7.435v.001zm44.129 3.286c.853 0 1.556-.122 2.088-.382 1.033-.472 1.505-1.478 1.505-2.835 0-1.124-.442-2.12-1.415-2.712-.562-.32-1.265-.442-2.238-.442h-.852v6.372h.912v-.001zM85.6 24.267h5.068c1.766 0 3.242.242 4.385.824 2.117 1.006 3.27 2.924 3.27 5.608 0 2.271-.972 4.692-3.863 5.808-1.093.412-2.437.672-4.154.672h-.682v6.523H85.59V24.268h.011-.001zm25.709 11.445l-1.145-3.275a52.604 52.604 0 01-.883-2.895h-.061c-.15.684-.44 1.508-.973 2.925l-1.173 3.247h4.234l.001-.002zm-3.763-11.535h3.271l7.926 19.525h-4.335l-1.887-4.754h-6.591l-1.796 4.754H99.98l7.566-19.525zm19.135 8.913c.883 0 1.444-.15 1.946-.412.762-.472 1.294-1.266 1.294-2.362 0-1.035-.471-1.919-1.324-2.361-.442-.271-.993-.412-1.887-.412h-1.535v5.548h1.506v-.001zm-5.539-8.823h5.799c1.736 0 3.03.262 4.064.733 2.238.976 3.091 2.835 3.091 4.894 0 2.532-1.586 4.312-3.773 4.985v.06c.592.322 1.444 1.386 2.479 3.187l3.149 5.576h-4.625l-2.559-4.663c-.973-1.83-1.656-2.562-2.116-2.683h-1.476v7.346h-4.033V24.268z" fill="#141414"/><path d="M143.025 24.267h-4.033v19.435h4.033V24.267z" fill="#141414"/><path fill-rule="evenodd" clip-rule="evenodd" d="M151.304 27.694h-5.659v-3.427h15.844l-1.065 3.427h-5.086v16.007h-4.034V27.694zm12.452-3.427h11.219l-1.065 3.427h-6.12v4.482h6.151v3.386h-6.151v4.723h7.155v3.416h-11.189V24.267zm18.875 3.427h-5.649v-3.427h15.832l-1.053 3.427h-5.098v16.007h-4.032V27.694zm17.789 14.178c2.619 0 4.355-1.034 4.355-3.627 0-2.18-1.615-3.567-4.093-3.567h-3.151v7.195h2.889zm-.771-9.023c2.588 0 3.972-1.266 3.972-3.427 0-1.939-1.124-3.336-3.892-3.336h-2.208v6.753h2.128v.01zm-4.296-8.582h4.506c4.124 0 5.95 2.272 5.95 4.925 0 1.979-.973 3.537-2.558 4.22v.06c2.177.473 3.773 2.27 3.773 4.722 0 3.276-2.299 5.517-6.604 5.517h-5.067V24.267zm24.704 12.39l-2.006-5.607c-.622-1.708-.914-2.623-1.154-3.356h-.061c-.241.744-.561 1.648-1.173 3.356l-2.037 5.607h6.431zm-3.943-12.45h1.505l7.426 19.494h-2.359l-1.916-5.215h-7.807l-1.916 5.215h-2.298l7.365-19.494zM241.962 43.7l-9.302-12.329c-.939-1.23-1.853-2.48-2.739-3.748h-.06c.06.974.09 1.798.09 3.325v12.743h-2.177V24.267h2.087l8.95 11.857c.965 1.29 1.908 2.597 2.83 3.919h.06c-.06-1.035-.06-1.889-.06-3.416v-12.36h2.147v19.434h-1.826zm6.602-19.434h2.178v8.904h.06l7.364-8.904h2.59l-8.068 9.616 8.59 9.818h-2.729l-7.747-8.873h-.06V43.7h-2.178V24.267z" fill="#141414"/></svg>