<svg width="218" height="70" viewBox="0 0 218 70" fill="none" xmlns="http://www.w3.org/2000/svg">
<g clip-path="url(#clip0_9783_28)">
<path d="M27.274 31.0375C18.6306 31.0375 11.5947 24.0712 11.5947 15.5123C11.5947 6.95695 18.6306 0 27.274 0C35.9185 0 42.9544 6.96636 42.9544 15.5241C42.9544 24.0818 35.9185 31.0481 27.2752 31.0481V31.0364L27.274 31.0375ZM27.274 8.47066C23.344 8.47066 20.1614 11.6322 20.1614 15.5135C20.1614 19.3948 23.3547 22.5551 27.2752 22.5551C31.1944 22.5551 34.3877 19.3936 34.3877 15.5135C34.3877 11.6322 31.1932 8.47066 27.274 8.47066ZM13.4118 26.8834H0V70H13.4118V26.8834ZM39.9587 49.9513C38.7154 49.3197 37.1079 49.0574 35.1806 49.0574H29.6648V70H34.0571V62.9784H34.795C36.6563 62.9784 38.132 62.6961 39.3214 62.2491C42.4597 61.0377 43.5269 58.4325 43.5269 55.992C43.5269 53.1022 42.2704 51.0416 39.9587 49.9513ZM37.3283 59.043C36.7558 59.3264 35.9736 59.4581 35.0489 59.4581H34.0571V52.6012H34.983C36.0395 52.6012 36.8216 52.7305 37.4265 53.0798C38.4842 53.7126 38.9681 54.7923 38.9681 56.0014C38.9681 57.4622 38.4626 58.5419 37.3391 59.0547L37.3283 59.043ZM50.9485 49.0574L42.7016 70H47.2269L49.1865 64.8873H56.377L58.4372 70H63.1493L54.5168 49.0574H50.9485ZM50.4418 61.387L51.7199 57.888C52.2925 56.3613 52.6111 55.4674 52.7764 54.7371H52.8422C53.0303 55.4345 53.2938 56.3284 53.8005 57.8444L55.0558 61.3764H50.4323L50.4418 61.387ZM75.7251 60.559V60.4931C78.1027 59.7639 79.8311 57.855 79.8311 55.1181C79.8311 52.8952 78.9064 50.8887 76.4617 49.8419C75.3382 49.3303 73.9295 49.0468 72.0358 49.0468H65.715V69.9882H70.1086V62.0739H71.716C72.2335 62.2045 72.9713 63.0007 74.0278 64.9625L76.8246 69.9777H81.8578L78.4321 63.971C77.3098 62.0304 76.3743 60.886 75.7346 60.5367L75.7251 60.559ZM73.8637 58.1173C73.3247 58.3996 72.7066 58.5643 71.7495 58.5643H70.1086V52.5894H71.7711C72.7401 52.5894 73.3462 52.7423 73.8301 53.0363C74.7656 53.5162 75.2723 54.4642 75.2723 55.5768C75.2723 56.7542 74.689 57.6151 73.8637 58.1173ZM126.123 52.7423H132.278V70H136.682V52.7423H142.232L143.388 49.0574H126.123V52.7423ZM122.786 52.7423L123.943 49.0574H111.72V70H123.909V66.3151H116.114V61.2341H122.819V57.5728H116.114V52.7435H122.786V52.7423ZM89.1141 49.0574H84.7206V70H89.1141V49.0574ZM91.9768 52.7423H98.1323V70H102.537V52.7423H108.086L109.242 49.0574H91.9768V52.7423ZM208.63 59.4146L217.427 49.0574H214.609L206.581 58.6619H206.515V49.0574H204.137V70H206.515V60.4379H206.581L215.016 70H218L208.63 59.4146ZM154.751 58.9783V58.9124C156.492 58.1832 157.548 56.493 157.548 54.3666C157.548 51.5109 155.566 49.0574 151.063 49.0574H146.152V70H151.679C156.359 70 158.869 67.5901 158.869 64.0581C158.869 61.42 157.13 59.4793 154.762 58.9771L154.751 58.9783ZM148.53 51.0416H150.941C153.958 51.0416 155.17 52.5353 155.17 54.6288C155.17 56.9506 153.661 58.3137 150.843 58.3137H148.53V51.0416ZM151.679 68.037H148.53V60.2861H151.965C154.664 60.2861 156.426 61.7799 156.426 64.1345C156.426 66.9255 154.531 68.037 151.679 68.037ZM196.594 62.3691C196.594 64.0157 196.594 64.9414 196.66 66.0528H196.594C195.856 65.0061 194.866 63.6111 193.511 61.8234L183.755 49.0468H181.475V69.9882H183.854V56.2625C183.854 54.6171 183.821 53.7232 183.755 52.6764H183.821C184.559 53.7232 185.517 55.064 186.806 56.7106L196.935 69.9894H198.929V49.0456H196.583V62.3562L196.594 62.3691ZM168.78 49.0574L160.752 70H163.252L165.334 64.3745H173.833L175.926 70H178.502L170.409 49.0574H168.78ZM173.085 62.4009H166.082L168.295 56.3613C168.967 54.5195 169.319 53.5268 169.584 52.7423H169.65C169.903 53.5385 170.222 54.5183 170.894 56.3613L173.074 62.4009H173.085Z" fill="#141414"/>
</g>
<defs>
<clipPath id="clip0_9783_28">
<rect width="218" height="70" fill="white"/>
</clipPath>
</defs>
</svg>
