<svg width="474" height="111" viewBox="0 0 474 111" fill="none" xmlns="http://www.w3.org/2000/svg"><path fill-rule="evenodd" clip-rule="evenodd" d="M84.096 0L56.39 27.705 41.957 42.139 55.409 55.59l27.705-27.705 27.704 27.705-13.27 13.27L111.8 83.115l27.705-27.705L84.095 0z" fill="#244EA2"/><path fill-rule="evenodd" clip-rule="evenodd" d="M84.095 55.41L56.391 83.114 28.686 55.409l13.27-13.27-14.251-14.252L0 55.59 55.41 111l27.704-27.704 14.434-14.434L84.095 55.41z" fill="#244EA2"/><path fill-rule="evenodd" clip-rule="evenodd" d="M55.41 55.591L41.956 42.14l-13.27 13.27L56.39 83.114l27.705-27.705 13.452 13.453 13.271-13.27-27.705-27.705L55.409 55.59z" fill="#0083CA"/><path fill-rule="evenodd" clip-rule="evenodd" d="M164.047 61.354c1.545 0 2.817-.218 3.781-.69 1.872-.855 2.727-2.673 2.727-5.127 0-2.036-.8-3.836-2.563-4.908-1.018-.582-2.291-.8-4.054-.8h-1.546v11.525h1.655zm-8.962-17.452h9.18c3.199 0 5.872.437 7.944 1.491 3.836 1.818 5.926 5.29 5.926 10.144 0 4.108-1.763 8.49-6.999 10.507-1.981.746-4.417 1.218-7.526 1.218h-1.236V79.06h-7.308V43.902h.019zm46.574 20.706l-2.073-5.926a95.394 95.394 0 01-1.599-5.236h-.11c-.272 1.236-.799 2.727-1.763 5.29l-2.127 5.872h7.672zm-6.817-20.87h5.926l14.361 35.322h-7.853l-3.418-8.598h-11.943l-3.254 8.598h-7.526l13.707-35.321zm34.665 16.125c1.6 0 2.618-.272 3.527-.745 1.382-.854 2.345-2.29 2.345-4.272 0-1.872-.854-3.472-2.399-4.272-.8-.49-1.8-.745-3.418-.745h-2.781v10.034h2.726zm-10.034-15.96h10.507c3.145 0 5.49.472 7.362 1.326 4.054 1.764 5.6 5.127 5.6 8.854 0 4.58-2.873 7.798-6.836 9.016v.11c1.073.581 2.618 2.508 4.49 5.762l5.709 10.09h-8.381l-4.635-8.436c-1.764-3.308-3-4.635-3.836-4.853h-2.672V79.06h-7.308V43.902z" fill="#000"/><path d="M259.122 43.902h-7.308V79.06h7.308V43.902z" fill="#000"/><path fill-rule="evenodd" clip-rule="evenodd" d="M274.118 50.101h-10.253v-6.199h28.705l-1.927 6.2h-9.217V79.06h-7.308V50.101zm22.562-6.199h20.324l-1.927 6.2h-11.089v8.107h11.143v6.126h-11.143v8.544h12.961v6.181H296.68V43.902zm34.193 6.199h-10.234v-6.199h28.686l-1.909 6.2h-9.235V79.06h-7.308V50.101zm32.231 25.651c4.745 0 7.89-1.873 7.89-6.563 0-3.945-2.927-6.453-7.417-6.453h-5.708v13.016h5.235zm-1.4-16.325c4.691 0 7.199-2.29 7.199-6.199 0-3.508-2.036-6.035-7.053-6.035h-4v12.216h3.854v.018zm-7.78-15.525h8.162c7.472 0 10.78 4.109 10.78 8.908 0 3.581-1.763 6.399-4.635 7.635v.11c3.944.854 6.835 4.108 6.835 8.543 0 5.927-4.163 9.98-11.962 9.98h-9.18V43.902zm44.756 22.415l-3.636-10.144c-1.127-3.09-1.654-4.745-2.09-6.072h-.109c-.437 1.345-1.018 2.981-2.127 6.072l-3.691 10.144h11.653zm-7.144-22.524h2.727l13.452 35.267h-4.272l-3.472-9.435h-14.143l-3.473 9.435h-4.163l13.344-35.267zm46.828 35.267l-16.852-22.305a198.512 198.512 0 01-4.963-6.78h-.109c.109 1.762.164 3.253.164 6.016v23.051h-3.945v-35.14h3.781l16.216 21.451a258.99 258.99 0 015.126 7.09h.109c-.109-1.872-.109-3.418-.109-6.18v-22.36h3.891V79.06h-3.309zm11.963-35.158h3.945V60.01h.109l13.343-16.107h4.69L457.799 61.3l15.561 17.76h-4.945l-14.034-16.052h-.109V79.06h-3.945V43.902z" fill="#000"/></svg>