<svg width="237" height="56" viewBox="0 0 237 56" fill="none" xmlns="http://www.w3.org/2000/svg"><path fill-rule="evenodd" clip-rule="evenodd" d="M42.105 0L28.234 13.871l-7.227 7.227 6.735 6.735 13.871-13.871 13.871 13.871-6.644 6.644 7.136 7.136 13.87-13.871L42.106 0z" fill="#244EA2"/><path fill-rule="evenodd" clip-rule="evenodd" d="M42.105 27.742l-13.871 13.87-13.872-13.87 6.645-6.644-7.136-7.136L0 27.832l27.742 27.743 13.871-13.871 7.227-7.227-6.736-6.735z" fill="#244EA2"/><path fill-rule="evenodd" clip-rule="evenodd" d="M27.742 27.833l-6.735-6.735-6.645 6.644 13.871 13.87 13.871-13.87 6.736 6.735 6.644-6.644-13.871-13.871-13.871 13.87z" fill="#0083CA"/><path fill-rule="evenodd" clip-rule="evenodd" d="M82.134 30.718c.774 0 1.41-.11 1.893-.346.938-.427 1.365-1.338 1.365-2.566 0-1.02-.4-1.92-1.283-2.458-.51-.291-1.147-.4-2.03-.4h-.773v5.77h.828zm-4.487-8.738h4.596c1.602 0 2.94.219 3.978.747 1.92.91 2.967 2.648 2.967 5.079 0 2.057-.883 4.25-3.504 5.26-.992.373-2.212.61-3.769.61h-.618v5.907h-3.66V21.981h.01zm23.319 10.367l-1.037-2.967a47.823 47.823 0 01-.801-2.621h-.055c-.136.619-.4 1.365-.883 2.648l-1.065 2.94h3.841zm-3.413-10.449h2.967l7.191 17.685h-3.932l-1.711-4.305h-5.98l-1.63 4.305H90.69l6.863-17.685zm17.356 8.074c.801 0 1.311-.137 1.766-.373.691-.428 1.174-1.147 1.174-2.14 0-.937-.428-1.738-1.202-2.138-.4-.246-.901-.373-1.711-.373h-1.392v5.024h1.365zm-5.024-7.992h5.261c1.574 0 2.748.237 3.686.665 2.029.883 2.803 2.567 2.803 4.432 0 2.294-1.438 3.905-3.422 4.515v.055c.537.29 1.31 1.256 2.248 2.885l2.858 5.051h-4.196l-2.321-4.223c-.883-1.657-1.502-2.32-1.92-2.43h-1.338v6.653h-3.659V21.981z" fill="#000"/><path d="M129.736 21.98h-3.659v17.603h3.659V21.981z" fill="#000"/><path fill-rule="evenodd" clip-rule="evenodd" d="M137.244 25.084h-5.134V21.98h14.372l-.965 3.104h-4.614v14.5h-3.659v-14.5zm11.296-3.104h10.176l-.965 3.104h-5.552v4.06h5.579v3.067h-5.579v4.278h6.489v3.094H148.54V21.981zm17.12 3.104h-5.124V21.98h14.363l-.956 3.104h-4.624v14.5h-3.659v-14.5zm16.137 12.843c2.375 0 3.95-.938 3.95-3.286 0-1.975-1.466-3.231-3.714-3.231h-2.858v6.517h2.622zm-.701-8.174c2.348 0 3.604-1.146 3.604-3.103 0-1.757-1.019-3.022-3.531-3.022h-2.003v6.116h1.93v.01zM177.2 21.98h4.087c3.741 0 5.397 2.058 5.397 4.46 0 1.793-.883 3.204-2.321 3.823v.055c1.975.427 3.422 2.057 3.422 4.277 0 2.968-2.084 4.997-5.988 4.997H177.2V21.981zm22.41 11.223l-1.82-5.079c-.564-1.547-.828-2.375-1.047-3.04h-.054c-.219.674-.51 1.493-1.065 3.04l-1.848 5.079h5.834zm-3.577-11.277h1.365l6.736 17.657h-2.139l-1.739-4.724h-7.081l-1.738 4.724h-2.084l6.68-17.657zm23.445 17.657l-8.437-11.168a98.836 98.836 0 01-2.485-3.395h-.054c.054.883.081 1.63.081 3.013v11.541h-1.975V21.981h1.894l8.118 10.74a129.145 129.145 0 012.567 3.55h.055c-.055-.938-.055-1.712-.055-3.095V21.98h1.948v17.603h-1.657zm5.99-17.603h1.975v8.065h.054l6.681-8.065h2.348l-7.317 8.71L237 39.584h-2.476l-7.027-8.037h-.054v8.037h-1.975V21.981z" fill="#000"/></svg>