<svg width="40" height="49" viewBox="0 0 40 49" fill="none" xmlns="http://www.w3.org/2000/svg"><path d="M7.237 40c-.509 0-.921-.432-.921-.965v-9.649c0-.533.412-.965.92-.965H10c2.032 0 3.684 1.731 3.684 3.86 0 2.128-1.652 3.86-3.684 3.86H8.158v2.894c0 .533-.413.965-.921.965zm.921-5.79H10c1.015 0 1.842-.866 1.842-1.93 0-1.063-.827-1.929-1.842-1.929H8.158v3.86z" fill="#141414"/><path d="M35 48.421H5c-2.756 0-5-2.264-5-5.044V5.044C0 2.264 2.244 0 5 0h30c2.756 0 5 2.264 5 5.044v38.333c0 2.78-2.244 5.044-5 5.044zM5 2.018c-1.654 0-3 1.357-3 3.026v38.333c0 1.669 1.346 3.026 3 3.026h30c1.654 0 3-1.357 3-3.026V5.044c0-1.669-1.346-3.026-3-3.026H5z" fill="#141414"/><path d="M21.053 40h-4.21c-.582 0-1.053-.432-1.053-.965v-9.649c0-.533.471-.965 1.052-.965h4.21c1.742 0 3.159 1.299 3.159 2.895v5.79C24.21 38.7 22.794 40 21.053 40zm-3.158-1.93h3.158c.58 0 1.052-.432 1.052-.965v-5.79c0-.532-.471-.964-1.052-.964h-3.158v7.72zM27.369 40c-.582 0-1.053-.432-1.053-.965v-7.72c0-1.595 1.417-2.894 3.158-2.894h4.21c.581 0 1.053.432 1.053.965 0 .533-.472.965-1.053.965h-4.21c-.581 0-1.053.432-1.053.965v7.72c0 .532-.471.964-1.052.964z" fill="#141414"/><path d="M33.684 35.79H27.37a1.053 1.053 0 010-2.106h6.315a1.053 1.053 0 010 2.105z" fill="#141414"/></svg>