<svg width="40" height="51" viewBox="0 0 40 51" fill="none" xmlns="http://www.w3.org/2000/svg"><path d="M1 43.5V7a6 6 0 016-6h20.343a4 4 0 012.829 1.172l7.656 7.656A4 4 0 0139 12.657V43.5a6 6 0 01-6 6H7a6 6 0 01-6-6z" stroke="#E4002B" stroke-width="2"/><path d="M11.545 38.566V42H9.94v-9.242h3.536c1.033 0 1.851.268 2.457.806.609.537.914 1.248.914 2.133 0 .905-.299 1.61-.895 2.113-.593.504-1.424.756-2.495.756h-1.91zm0-1.289h1.93c.571 0 1.007-.133 1.308-.4.3-.27.45-.66.45-1.168 0-.499-.152-.897-.457-1.193-.304-.3-.723-.455-1.256-.463h-1.975v3.224zM17.67 42v-9.242h2.73c.816 0 1.54.182 2.17.546.635.364 1.126.88 1.473 1.548.347.67.52 1.435.52 2.298v.464c0 .876-.175 1.646-.526 2.31a3.653 3.653 0 01-1.492 1.536c-.643.36-1.382.54-2.215.54h-2.66zm1.606-7.947v6.665h1.047c.842 0 1.488-.263 1.936-.787.453-.53.684-1.287.692-2.273v-.514c0-1.003-.218-1.769-.654-2.298-.436-.529-1.068-.793-1.898-.793h-1.123zm11.628 4.03h-3.72V42h-1.606v-9.242h5.872v1.295h-4.266V36.8h3.72v1.282z" fill="#fff"/></svg>