<svg width="156" height="144" viewBox="0 0 156 144" fill="none" xmlns="http://www.w3.org/2000/svg"><path d="M45 142h97c6.627 0 12-5.373 12-12V60c0-6.627-5.373-12-12-12H45c-6.627 0-12 5.373-12 12v70c0 6.627 5.373 12 12 12z" fill="#F6F4F2" stroke="#C5CDCF" stroke-width="4"/><path d="M29 92h97c6.627 0 12-5.373 12-12V50c0-6.627-5.373-12-12-12H29c-6.627 0-12 5.373-12 12v30c0 6.627 5.373 12 12 12z" fill="#F6F4F2" stroke="#C5CDCF" stroke-width="4"/><path d="M14 117h97c6.627 0 12-5.373 12-12V75c0-6.627-5.373-12-12-12H14C7.373 63 2 68.373 2 75v30c0 6.627 5.373 12 12 12z" fill="#F6F4F2" stroke="#C5CDCF" stroke-width="4"/><path d="M102.325 88.287l-6 6-6-6M17 79.231h58M46 90.875h29m-58 11.644h29.325M59 102.95h16M17 90.875h16" stroke="#C5CDCF" stroke-width="4" stroke-linecap="round"/><path d="M14 56h97c6.627 0 12-5.373 12-12V14c0-6.627-5.373-12-12-12H14C7.373 2 2 7.373 2 14v30c0 6.627 5.373 12 12 12z" fill="#F6F4F2" stroke="#E4002B" stroke-width="4"/><path d="M102.325 27.287l-6 6-6-6M17 18.231h58M46 29.875h29M17 41.519h29.325M59 41.95h16M17 29.875h16" stroke="#E4002B" stroke-width="4" stroke-linecap="round"/></svg>