<svg width="346" height="163" viewBox="0 0 346 163" fill="none" xmlns="http://www.w3.org/2000/svg"><path fill-rule="evenodd" clip-rule="evenodd" d="M4.207 46.168A8.003 8.003 0 0112 39.982h115.002a8.003 8.003 0 017.793 6.186H4.207zm-.207 4v73.85a8 8 0 008 8h115.002a8 8 0 008-8v-73.85H4zm8-14.186c-6.627 0-12 5.373-12 12v76.036c0 6.627 5.373 12 12 12h115.002c6.627 0 12-5.373 12-12V47.982c0-6.627-5.373-12-12-12H12z" fill="#C5CDCF"/><path d="M96 73h29M96 86h29M96 99h29" stroke="#C5CDCF" stroke-width="3" stroke-linecap="round"/><path d="M14 98V74a5 5 0 015-5h60a5 5 0 015 5v24a5 5 0 01-5 5H19a5 5 0 01-5-5z" stroke="#C5CDCF" stroke-width="3"/><path d="M31.807 90.173L22.3 100.358c-.596.639-.143 1.682.731 1.682H46.43c.874 0 1.327-1.043.73-1.682l-9.505-10.185a4 4 0 00-5.848 0z" stroke="#C5CDCF" stroke-width="2"/><path d="M53.547 81.075L35.853 99.181c-.62.633-.17 1.699.715 1.699h38.249c.885 0 1.334-1.066.715-1.699L57.838 81.075a3 3 0 00-4.291 0z" fill="#F6F4F2" stroke="#C5CDCF" stroke-width="2"/><path d="M100 65.5l92-38" stroke="#E4002B" stroke-width="2" stroke-linecap="round"/><path d="M100 95l92 38" stroke="#C5CDCF" stroke-width="2" stroke-linecap="round"/><path d="M298 17h29m-29 13h29m-29 13h29" stroke="#E4002B" stroke-width="3" stroke-linecap="round"/><path d="M216 42V18a5 5 0 015-5h60a5 5 0 015 5v24a5 5 0 01-5 5h-60a5 5 0 01-5-5z" stroke="#E4002B" stroke-width="3"/><path d="M233.807 34.173l-9.506 10.185c-.596.639-.143 1.682.731 1.682h23.398c.874 0 1.327-1.043.731-1.682l-9.506-10.185a4 4 0 00-5.848 0z" stroke="#E4002B" stroke-width="2"/><path d="M255.547 25.075l-17.694 18.106c-.619.633-.17 1.699.715 1.699h38.249c.885 0 1.334-1.066.715-1.699l-17.694-18.106a3 3 0 00-4.291 0z" fill="#F6F4F2" stroke="#E4002B" stroke-width="2"/><path d="M199 53.5v-47a5 5 0 015-5h135a5 5 0 015 5v47a5 5 0 01-5 5H204a5 5 0 01-5-5z" stroke="#E4002B" stroke-width="3"/><path d="M257 120h29m-29 13h29m-29 13h29" stroke="#C5CDCF" stroke-width="3" stroke-linecap="round"/><path d="M205 145v-24a5 5 0 015-5h34a5 5 0 015 5v24a5 5 0 01-5 5h-34a5 5 0 01-5-5z" stroke="#C5CDCF" stroke-width="3"/><path d="M214.801 139.757l-4.661 7.769a1 1 0 00.857 1.514h14.468a1 1 0 00.857-1.514l-4.661-7.769c-1.554-2.59-5.306-2.59-6.86 0z" stroke="#C5CDCF" stroke-width="2"/><path d="M228.635 130.047l-10.008 16.31a1 1 0 00.852 1.523h23.426a1 1 0 00.853-1.523l-10.009-16.31c-1.17-1.908-3.943-1.908-5.114 0z" fill="#F6F4F2" stroke="#C5CDCF" stroke-width="2"/><path d="M294 145v-24a5 5 0 015-5h34a5 5 0 015 5v24a5 5 0 01-5 5h-34a5 5 0 01-5-5z" stroke="#C5CDCF" stroke-width="3"/><path d="M303.801 139.757l-4.661 7.769a1 1 0 00.857 1.514h14.468a1 1 0 00.857-1.514l-4.661-7.769c-1.554-2.59-5.306-2.59-6.86 0z" stroke="#C5CDCF" stroke-width="2"/><path d="M317.635 130.047l-10.008 16.31a1 1 0 00.852 1.523h23.426a1 1 0 00.853-1.523l-10.009-16.31c-1.17-1.908-3.943-1.908-5.114 0z" fill="#F6F4F2" stroke="#C5CDCF" stroke-width="2"/><path d="M199 156v-47a5 5 0 015-5h135a5 5 0 015 5v47a5 5 0 01-5 5H204a5 5 0 01-5-5z" stroke="#C5CDCF" stroke-width="3"/></svg>