<svg width="215" height="141" viewBox="0 0 215 141" fill="none" xmlns="http://www.w3.org/2000/svg"><path fill-rule="evenodd" clip-rule="evenodd" d="M10 30h155a6 6 0 016 6v3.333H4V36a6 6 0 016-6zM4 43.333V131a6 6 0 006 6h155a6 6 0 006-6V43.333H4zM0 36c0-5.523 4.477-10 10-10h155c5.523 0 10 4.477 10 10v95c0 5.523-4.477 10-10 10H10c-5.523 0-10-4.477-10-10V36z" fill="#C5CDCF"/><path fill="#C5CDCF" d="M10.51 31.605h5v5h-5zm12.613 0h5v5h-5zm12.611 0h5v5h-5z"/><path d="M23 69.946v-13a5 5 0 015-5h39a5 5 0 015 5v13a5 5 0 01-5 5H28a5 5 0 01-5-5z" stroke="#C5CDCF" stroke-width="3"/><path d="M34.89 66.987l-5.464 5.465c-.63.63-.183 1.707.708 1.707h15.171c.89 0 1.337-1.077.707-1.707l-5.464-5.465a4 4 0 00-5.657 0z" stroke="#C5CDCF" stroke-width="2"/><path d="M50.036 60.617L38.864 71.79c-.63.63-.183 1.707.707 1.707h25.172c.89 0 1.337-1.077.707-1.707L54.278 60.617a3 3 0 00-4.242 0z" fill="#F6F4F2" stroke="#C5CDCF" stroke-width="2"/><path d="M23 124.946v-13a5 5 0 015-5h39a5 5 0 015 5v13a5 5 0 01-5 5H28a5 5 0 01-5-5z" stroke="#C5CDCF" stroke-width="3"/><path d="M34.89 121.987l-5.464 5.465c-.63.63-.183 1.707.708 1.707h15.171c.89 0 1.337-1.077.707-1.707l-5.464-5.465a4 4 0 00-5.657 0z" stroke="#C5CDCF" stroke-width="2"/><path d="M50.036 115.617l-11.172 11.172c-.63.63-.183 1.707.707 1.707h25.172c.89 0 1.337-1.077.707-1.707l-11.172-11.172a3.001 3.001 0 00-4.242 0z" fill="#F6F4F2" stroke="#C5CDCF" stroke-width="2"/><path d="M84.5 128.946v-67a5 5 0 015-5h39a5 5 0 015 5v67a5 5 0 01-5 5h-39a5 5 0 01-5-5z" stroke="#C5CDCF" stroke-width="3"/><path d="M85 121.946l18.895-10.185a5.002 5.002 0 016.001.961l5.988 6.315a4.999 4.999 0 006.197.849l9.919-5.94" stroke="#C5CDCF" stroke-width="3"/><path d="M23 87.946h42m-35 10h42" stroke="#C5CDCF" stroke-width="3" stroke-linecap="round"/><circle cx="167" cy="48" r="48" fill="#F6F4F2"/><path d="M149.15 37.65A6.15 6.15 0 00143 43.8v11.7c0 12.98 10.521 23.5 23.5 23.5S190 68.48 190 55.5V43.8a6.15 6.15 0 00-6.15-6.15h-34.7z" stroke="#E4002B" stroke-width="4"/><path d="M162.475 56.807a4.14 4.14 0 00.694 1.628v3.183c0 1.766 1.392 3.3 3.231 3.3s3.231-1.534 3.231-3.3v-3.183a4.192 4.192 0 00.472-3.968 4.084 4.084 0 00-1.458-1.843 3.934 3.934 0 00-2.245-.706 3.93 3.93 0 00-2.245.706 4.078 4.078 0 00-1.458 1.844 4.192 4.192 0 00-.222 2.339z" stroke="#E4002B" stroke-width="3"/><path d="M178.133 39v-8c0-6.627-5.373-12-12-12v0c-6.628 0-12 5.373-12 12v8" stroke="#E4002B" stroke-width="4"/></svg>