<svg width="90" height="119" viewBox="0 0 90 119" fill="none" xmlns="http://www.w3.org/2000/svg"><path d="M73.315 26H78c5.523 0 10 4.477 10 10v71c0 5.523-4.477 10-10 10H37c-5.523 0-10-4.477-10-10V67.77" stroke="#E4002B" stroke-width="4" stroke-linecap="round"/><path d="M36.356 4.655c-1.913-3.394-6.8-3.394-8.712 0l-5.6 9.934a1 1 0 01-.673.49l-11.179 2.255c-3.818.77-5.328 5.418-2.692 8.285l7.718 8.396a1 1 0 01.258.792l-1.31 11.328c-.447 3.87 3.506 6.742 7.048 5.121l10.37-4.746a1 1 0 01.832 0l10.37 4.746c3.542 1.621 7.495-1.251 7.048-5.12l-1.31-11.33a1 1 0 01.258-.79l7.718-8.397c2.636-2.867 1.126-7.514-2.692-8.285l-11.18-2.255a1 1 0 01-.673-.49l-5.6-9.934z" stroke="#E4002B" stroke-width="4"/><path d="M9.734 64.511l-1.774-.923c.859-1.65 3.221-1.65 4.08 0l1.206 2.318 2.4.525c1.695.37 2.385 2.412 1.262 3.735l-1.747 2.059.296 2.778-1.988.212 1.989-.212c.192 1.805-1.683 3.11-3.31 2.305L10 76.242l-2.149 1.066c-1.626.806-3.501-.5-3.308-2.305l.296-2.778-1.747-2.059m6.642-5.654l-6.642 5.654m6.642-5.654l-1.774-.924-1.206 2.318-2.4.525c-1.695.37-2.385 2.412-1.262 3.735m6.642-5.654l-5.117 4.36-1.525 1.294" stroke="#E4002B" stroke-width="4" stroke-linecap="round"/></svg>