<svg width="95" height="121" viewBox="0 0 95 121" fill="none" xmlns="http://www.w3.org/2000/svg"><path d="M12.208 41.126C6.57 41.126 2 45.696 2 51.334V73.97C2 98.84 22.16 119 47.03 119s45.03-20.16 45.03-45.03V51.334c0-5.638-4.57-10.208-10.209-10.208H12.208z" stroke="#E4002B" stroke-width="4"/><path d="M41.708 74.963c.157.773.483 1.498.949 2.125v4.072c0 2.425 1.992 4.33 4.373 4.33 2.38 0 4.372-1.905 4.372-4.33v-4.072a5.31 5.31 0 00.637-5.244 5.38 5.38 0 00-2.008-2.406 5.471 5.471 0 00-3.001-.895c-1.066 0-2.11.31-3.002.895a5.38 5.38 0 00-2.007 2.406 5.31 5.31 0 00-.313 3.119zm29.312-33.36V26.37C71.02 12.91 60.109 2 46.649 2v0c-13.46 0-24.37 10.911-24.37 24.37v15.233" stroke="#E4002B" stroke-width="4"/></svg>