<svg width="137" height="27" viewBox="0 0 137 27" fill="none" xmlns="http://www.w3.org/2000/svg"><path fill-rule="evenodd" clip-rule="evenodd" d="M53.746 12.563a1.974 1.974 0 100 3.948 1.974 1.974 0 000-3.948zm80.327-1.449c1.294 0 2.241.725 2.861 1.449V9.065c-1.017-.69-2.242-.966-3.307-.966-3.272 0-6.116 2.343-6.116 6.374 0 3.86 2.584 6.376 6.167 6.376 1.033 0 2.17-.157 3.256-.896v-3.431c-.62.639-1.601 1.311-2.861 1.311-1.928 0-3.083-1.429-3.083-3.256 0-1.982 1.223-3.463 3.083-3.463zm-6.192-2.67h-3.962l-3.636 5.065V8.445h-3.376l.002 12.059h3.374v-5.187l3.496 5.187h4.223l-4.703-6.22 4.582-5.84zm-20.944 7.236V8.445h-3.256v12.059h3.308l4.669-7.236v7.236h3.256V8.444h-3.309l-4.668 7.236zm-9.784-1.81h-.963v-2.772h.963c1.447 0 1.653.774 1.653 1.377 0 .517-.154 1.395-1.653 1.395zm.74-5.425h-5.08v12.059h3.377v-3.982h1.703c3.412 0 4.394-2.375 4.394-4.047 0-1.654-.965-4.03-4.394-4.03zm-15.14 2.893h2.65v9.166h3.379v-9.166h2.652V8.445h-8.681v2.893zm-9.356 4.342V8.445h-3.255v12.059h3.308l4.667-7.236v7.236h3.256V8.444h-3.306l-4.67 7.236zm-10.06 2.41H61.89v-2.53h1.447c1.068 0 1.689.31 1.689 1.259 0 .964-.637 1.272-1.69 1.272zm.328-4.943H61.89v-1.81h5.53V8.446h-8.906v12.059h5.151c.877 0 4.737.033 4.737-3.738 0-3.636-3.824-3.62-4.737-3.62zm-24.049 1.326c0 3.86 2.584 6.376 6.167 6.376 1.035 0 2.171-.157 3.257-.896v-3.431c-.622.639-1.604 1.311-2.86 1.311-1.93 0-3.084-1.429-3.084-3.256 0-1.982 1.223-3.463 3.083-3.463 1.292 0 2.239.725 2.861 1.449V9.065c-1.019-.69-2.24-.966-3.309-.966-3.273 0-6.115 2.343-6.115 6.374zm-7.07-3.255h1.845v9.286h3.119V8.444h-4.963v2.774zM13.258 0c-.988 0-1.948.111-2.874.317v12.951a2.887 2.887 0 002.882 2.881 2.886 2.886 0 002.88-2.88 2.887 2.887 0 00-2.689-2.876V8.087a5.196 5.196 0 014.994 5.182 5.197 5.197 0 01-5.185 5.186 5.197 5.197 0 01-5.187-5.187V1.049c-.327.14-.647.294-.96.46v11.759c0 3.385 2.762 6.145 6.147 6.145 3.385 0 6.145-2.76 6.145-6.144 0-3.321-2.656-6.041-5.954-6.144V4.82c4.567.103 8.258 3.859 8.258 8.449 0 4.655-3.796 8.45-8.45 8.45s-8.451-3.795-8.451-8.451V3.038A13.23 13.23 0 000 13.258c0 7.322 5.936 13.26 13.258 13.26 7.324 0 13.259-5.938 13.259-13.26S20.582 0 13.258 0z" fill="#e4002b"/></svg>