<svg width="51" height="25" viewBox="0 0 51 25" fill="none" xmlns="http://www.w3.org/2000/svg"><path fill-rule="evenodd" clip-rule="evenodd" d="M26.401 21.688c-1.018-.08-2.115-.237-2.977-.474-.157-.078-.861-.315-1.019-.394-3.133-1.42-5.248-4.653-5.248-8.28 0-5.048 4.074-9.149 9.087-9.149 4.936 0 9.01 4.022 9.088 9.07h3.29C38.466 5.52 32.982 0 26.165 0 19.351 0 13.79 5.6 13.79 12.46c0 4.732 2.663 8.834 6.502 10.963.705.394 1.723.789 2.037.867 1.2.337 2.434.55 3.681.631.393 0 1.802.079 2.273.079h22.64v-3.312H26.401zm1.958-5.206h-1.724c-.39 0-.94-.078-1.33-.157a4.273 4.273 0 01-.941-.316c-1.253-.63-2.037-1.971-2.037-3.47 0-2.208 1.724-3.943 3.917-3.943 2.116 0 3.839 1.735 3.918 3.786h3.133c-.078-3.865-3.212-7.02-7.05-7.02-3.918 0-7.051 3.155-7.051 7.099 0 2.76 1.567 5.205 3.917 6.309.391.236 1.018.394 1.175.473.627.158 1.488.315 2.193.315H51v-3.154H28.36v.079h-.001zM11.752 25h-3.29V3.312h-4.86V0h8.149v25zM0 4.968v3.234h3.603V25h3.213V4.968H0z" fill="#e4002b"/></svg>