<svg width="95" height="17" viewBox="0 0 95 17" fill="none" xmlns="http://www.w3.org/2000/svg"><path d="M3.357 8.089L.89 16.765h4.045L7.402 8.09H3.357zm17.502 5.646h-1.902v-5.65h1.902v5.65zm1.137-8.68h-3.04V.763h-3.89V16.76h6.932c1.645 0 2.751-1.09 2.751-2.712v-6.28c0-1.623-1.106-2.712-2.75-2.712h-.003zm9.8 8.98h-1.693v-2.167h1.69v2.167h.003zm1.137-8.98h-5.997v2.729h4.857v1.688h-2.83c-1.659 0-2.776 1.08-2.776 2.687v1.903c0 1.62 1.115 2.712 2.776 2.712h6.723V7.768c0-1.623-1.106-2.712-2.75-2.712h-.003zm16.983.001h-12.49v11.707h3.89V8.084h1.809v8.68h3.867v-8.68h1.809v8.68h3.89V7.767c0-1.623-1.114-2.712-2.775-2.712zm9.9 4.897h-1.69V7.786h1.69v2.167zm1.137-4.895h-3.972c-1.645 0-2.75 1.09-2.75 2.712v6.288c0 1.62 1.105 2.712 2.75 2.712h6.536v-2.735h-5.396v-2.12h5.605V7.768c0-1.623-1.114-2.712-2.775-2.712l.002.002zm8.242-2.669h-3.89v11.667c0 1.62 1.105 2.712 2.75 2.712h2.958v-2.825h-1.82V8.087h1.82V5.056h-1.82V2.389h.002zm8.593 4.613v9.763h3.89V8.087h2.29V5.056h-4.23c-1.188 0-1.957.764-1.957 1.943l.007.003zm11.244-1.946h-3.868v8.997c0 1.013.357 2.712 2.75 2.712h6.935V5.058h-3.89v8.679h-1.925V5.058l-.002-.002zM72.988 16.765h2.82v-2.8h-2.82v2.8zM9.15 0H5.105L9.87 16.765h4.045L9.15 0z" fill="#141414"/><path d="M10.379 15.086H4.14v-2.96h6.238v2.96z" fill="#141414"/></svg>