<svg width="125" height="22" viewBox="0 0 125 22" fill="none" xmlns="http://www.w3.org/2000/svg"><path d="M84.278 16.177h11.13v-2.472h-7.336c1.012-4.058 7.21-4.945 7.21-9.446 0-2.409-1.645-4.183-5.123-4.183-2.15 0-4.047.633-5.312 1.267l.758 2.282c1.139-.57 2.467-1.077 4.111-1.077 1.265 0 2.467.57 2.467 2.028 0 3.296-7.273 3.55-7.905 11.6v.001zm11.446-3.93h7.146v3.93h2.846v-3.93h2.403V9.839h-2.403V.076h-2.087l-7.905 10.269v1.902zm3.225-2.282l4.047-5.452c0 .444-.126 1.838-.126 3.107V9.9h-1.897c-.569 0-1.644.064-2.024.064zM3.457 13.768V8.761h1.202c1.074 0 1.96.126 2.592.507.633.38 1.012 1.014 1.012 2.028 0 1.712-1.012 2.473-3.415 2.473H3.457v-.001zm-2.91 2.41h4.238c4.743 0 6.45-2.092 6.45-5.008 0-1.965-.822-3.296-2.276-4.057C7.82 6.48 6.366 6.29 4.595 6.29H3.457V2.485h6.387l.76-2.346H.483v16.038h.064zm12.649 0h2.783l3.604-5.198c.696-.95 1.202-1.902 1.518-2.41h.063a27.932 27.932 0 00-.126 2.473v5.072h2.846V4.704H21.1L17.496 9.9c-.633.951-1.202 1.902-1.517 2.41h-.064c.064-.698.127-1.585.127-2.473v-5.07h-2.846v11.41zm15.557 0h2.909V7.112h3.415l.76-2.408H25.273v2.408h3.478v9.065zm8.095 5.768h2.846v-5.769c.57.19 1.137.253 1.77.253 3.605 0 5.945-2.471 5.945-6.021 0-3.677-2.15-6.022-6.261-6.022-1.581 0-3.099.316-4.364.697v16.862h.064zm2.846-8.24v-6.72c.43-.13.878-.194 1.327-.191 2.087 0 3.415 1.14 3.415 3.613 0 2.22-1.074 3.614-3.225 3.614-.57 0-1.012-.127-1.517-.317zm9.422 2.472H51.9l3.605-5.198c.695-.95 1.2-1.902 1.517-2.41h.063a27.932 27.932 0 00-.126 2.473v5.072h2.846V4.704H57.02L53.416 9.9c-.632.951-1.2 1.902-1.517 2.41h-.063c.063-.698.126-1.585.126-2.473v-5.07h-2.846v11.41zm12.964 0h2.91v-4.754h1.707c.316 0 .632.316 1.012 1.077l1.454 3.677h3.1l-2.088-4.374c-.38-.76-.759-1.205-1.328-1.395v-.063c.948-.57 1.075-2.219 1.645-3.043.189-.253.442-.38.822-.38.189 0 .442 0 .632.127V4.577c-.317-.127-.885-.19-1.202-.19-1.012 0-1.644.38-2.087 1.014-.948 1.395-.948 3.803-2.34 3.803H64.99v-4.5h-2.91v11.473zm16.632.253c1.581 0 3.036-.506 3.921-1.14l-.822-1.965c-.822.442-1.58.76-2.656.76-1.96 0-3.225-1.268-3.225-3.613 0-2.092 1.265-3.74 3.415-3.74 1.138 0 1.96.316 2.782.887V5.147c-.632-.38-1.644-.76-3.098-.76-3.415 0-6.071 2.535-6.071 6.148 0 3.297 2.023 5.896 5.754 5.896z" fill="#141414"/><path d="M117.539 12.247c3.098 0 5.628-2.535 5.628-5.642 0-3.106-2.53-5.642-5.628-5.642-3.099 0-5.629 2.536-5.629 5.642.063 3.107 2.53 5.642 5.629 5.642z" stroke="#141414" stroke-width="1.769"/><path d="M121.085 6.606h-3.099V3.499h-.822v3.93h3.921v-.824z" fill="#141414"/></svg>