<svg width="68" height="19" viewBox="0 0 68 19" fill="none" xmlns="http://www.w3.org/2000/svg"><path d="M6.478 10.53l-.682-5.454c-.038-.265-.19-.492-.455-.568-.265-.076-.53-.038-.72.151L.681 8.485a.825.825 0 00-.189.303.752.752 0 00.417.91.48.48 0 00.227.037H2.5c.114.038.19.19.152.303l-.228.607L0 17.577h.492l2.614-7.35a.752.752 0 00-.416-.908c-.076-.038-.152-.038-.228-.038H1.136a.258.258 0 01-.151-.303c0-.038.038-.076.076-.114l.454-.454 2.993-2.88L5 5.039c.076-.038.152-.076.228-.038.075.038.151.114.151.19l.076.72.454 4.053.076.644v.113a.258.258 0 01-.303.152c-.038 0-.038-.038-.076-.038l-.265-.227-.227-.19-.493-.379c-.075-.037-.113-.075-.227-.113a.752.752 0 00-.909.416v.038L.947 17.577h.492l2.273-6.44.228-.606a.258.258 0 01.303-.152c.038 0 .038.038.075.038l.493.417.492.417c.076.038.114.075.19.113a.752.752 0 00.909-.416c.076-.19.076-.303.076-.417zm14.506 7.009h5.342L32.576 0h-5.38l-6.212 17.539zm21.403 0h5.303l2.765-7.728c1.099-1.856 3.334-1.44 2.917.19l-2.651 7.538h5.53l2.614-7.387c.682-1.856 3.599-1.97 2.955.227l-2.463 7.16H64.7l2.992-8.485c.985-2.88-2.538-6.743-8.599-2.5-.72-1.933-3.712-3.145-7.69-.342l.265-1.136h-4.962l-4.318 12.463zM36.97 5.076h-5l-2.955 8.296c-1.477 4.66 3.22 6.212 7.728 2.993l-.303 1.174h4.773l4.394-12.463h-5.114l-2.613 7.122c-.607 1.742-4.016 2.727-3.486.037l2.576-7.159zm-22.237.682L16.741 0h-5.379L5.187 17.539h5.039l.568-1.402c.303 2.122 7.273 3.864 10.985-3.598 2.917-5.38-.416-10.72-7.046-6.781zm1.857 6.667c-.985 1.212-2.576 1.856-3.523 1.25-.985-.682-.947-2.197.038-3.637.227-.34.492-.681.757-.909.947-.871 2.008-1.174 2.88-.606 1.06.644.87 2.576-.152 3.902z" fill="#141414"/></svg>