<svg width="88" height="25" viewBox="0 0 88 25" fill="none" xmlns="http://www.w3.org/2000/svg"><path d="M42.484 7.311c0-.14-.093-.186-.186-.186h-2.934a.314.314 0 00-.28.186l-4.517 11.317c-.093.14.047.326.187.326h2.654c.14 0 .233-.093.28-.233l2.188-6.613.14 6.613c0 .14.093.233.186.233h2.515c.14 0 .326-.14.326-.326L42.484 7.31zm-10.897 7.08h-2.654c-.14 0-.187-.14-.14-.28l.372-2.282c0-.14.14-.28.233-.28H32.1v-.512c0-.14-.046-.233-.093-.373-.047-.14-.093-.186-.14-.325-.046-.094-.14-.187-.14-.28a.817.817 0 00-.232-.186c-.093-.047-.186-.14-.326-.14-.14-.046-.233-.046-.373-.046h-.372c-.14 0-.233.046-.373.046-.14.047-.186.047-.326.093-.14.047-.186.093-.28.14h-.046c-.14.046-.233-.047-.233-.186l-.093-2.003c-.046-.14.047-.28.14-.326.093-.046.186-.093.326-.14.14-.046.233-.093.372-.14.14-.046.28-.092.373-.139.093-.047.28-.093.42-.093.139-.047.325-.047.465-.093.14 0 .326-.047.512-.047.28 0 .559.047.792.093.233.047.465.14.652.187.186.093.372.186.559.326.14.14.326.279.465.419.14.14.233.326.373.512.14.186.186.373.28.605.092.187.139.373.139.652.047.187.093.42.14.652.046.233.046.466.046.652v.652c0 .233-.046.466-.093.699-.047.233-.093.419-.14.652v.046c-.093.466-.186.885-.326 1.35-.14.42-.279.84-.465 1.165a7.423 7.423 0 01-.606 1.025c-.233.326-.419.605-.698.838a5.356 5.356 0 01-.792.652c-.28.186-.559.373-.885.466a3.84 3.84 0 01-.885.28c-.279.232-.558.232-.884.232-.14 0-.326 0-.466-.047-.14 0-.326-.046-.42-.046-.139-.047-.279-.047-.372-.093a2.258 2.258 0 01-.326-.14l-.28-.14c-.092-.046-.139-.093-.232-.14-.093-.046-.14-.186-.093-.325L28 15.88v-.046c.093-.14.186-.187.326-.14.093.047.14.093.233.14.093.046.14.046.28.093.093.046.186.046.325.046h.326c.14 0 .373 0 .466-.046.14-.047.28-.093.372-.14.14-.093.233-.14.373-.186a.803.803 0 00.28-.28c.093-.14.14-.186.232-.325.094-.14.14-.233.187-.373.093-.14.14-.28.14-.373l.046.14zm17.138-2.935h2.235c.14 0 .186.14.14.28l-.373 2.142c0 .14-.14.28-.233.28H48.26l-.373 2.048h2.515c.14 0 .186.14.14.28l-.373 2.235c0 .14-.14.28-.233.28H44.58c-.14 0-.186-.14-.14-.28l2.003-11.316c0-.14.14-.28.233-.28h5.215c.14 0 .187.14.14.28l-.373 2.235c0 .14-.14.28-.232.28H49.05l-.326 1.536zm12.573 7.498h-2.282c-.14 0-.186-.14-.186-.28l.42-3.539c.046-.186.093-.466.093-.745l.046-.28.047-.325-.047.14-.186.512-.047.14c-.093.186-.14.372-.186.512l-1.397 3.446c-.047.14-.14.186-.233.186h-1.91c-.14 0-.186-.093-.186-.186l-.14-3.446v-1.444l-.139.512-.14.56-.14.465-.838 3.54c-.046.139-.14.232-.233.232H51.38c-.14-.047-.186-.14-.14-.326L54.127 7.31c.046-.14.14-.232.232-.232h2.702c.14 0 .186.093.186.186l.093 3.632c0 .652.047 1.165.047 1.63v1.071c.093-.186.14-.419.232-.652.14-.326.233-.652.373-1.024.14-.373.233-.699.373-1.025l1.397-3.632c.046-.14.14-.186.233-.186h2.7c.14 0 .187.14.187.279l-1.304 11.316c-.047.14-.14.28-.28.28zm6.055-7.498h2.235c.14 0 .186.14.14.28l-.373 2.142c0 .14-.14.28-.233.28h-2.235l-.373 2.048h2.515c.14 0 .186.14.14.28l-.373 2.235c0 .14-.14.28-.233.28h-5.355c-.14 0-.186-.14-.14-.28l2.003-11.316c0-.14.14-.28.232-.28h5.216c.14 0 .186.14.14.28l-.373 2.235c0 .14-.14.28-.232.28h-2.376l-.325 1.536zm2.98 7.172L72.335 7.31c0-.14.14-.279.233-.279h2.608c.14 0 .186.14.14.28l-.652 4.19h1.444l.745-4.144c0-.14.14-.28.233-.28h2.608c.14 0 .186.14.14.28L77.83 18.674c0 .14-.14.28-.233.28H74.99c-.14 0-.186-.14-.14-.28l.745-4.19h-1.443l-.745 4.237c0 .14-.14.28-.233.28h-2.608c-.14-.094-.233-.187-.233-.373zm13.412.326h-2.608c-.14 0-.186-.14-.14-.28l1.537-8.615h-1.723c-.14 0-.186-.14-.14-.28l.42-2.421c0-.14.14-.28.232-.28h6.52c.14 0 .186.14.14.28l-.42 2.422c0 .14-.139.28-.232.28h-1.77l-1.537 8.614c-.046.14-.186.28-.279.28z" fill="#141414"/><path fill-rule="evenodd" clip-rule="evenodd" d="M10.91 24.123c-6.66 0-11.503-5.355-10.851-12.061C.757 5.356 6.625 0 13.33 0h13.04l-2.142 12.062c-1.211 6.612-6.66 12.061-13.32 12.061zm2.934-16.718l-.373 1.397c.978 0 2.096.512 2.748 1.117.791.885 1.024 2.096.791 3.586-.652 3.772-3.725 5.495-7.171 5.402H7.184l.606-3.306h2.887c1.21 0 2.002-.652 2.189-1.77.28-1.91-1.537-2.142-2.934-1.956-.093 0-.186 0-.233-.093-.047-.046-.093-.14-.047-.233l1.398-7.497c.046-.14.232-.28.372-.28H19.2l-.652 3.633h-4.703z" fill="#141414"/></svg>