<svg width="80" height="14" viewBox="0 0 80 14" fill="none" xmlns="http://www.w3.org/2000/svg"><path fill-rule="evenodd" clip-rule="evenodd" d="M16.215 12.87H4.005c0-.051-.032-.04-.075-.022a.26.26 0 01-.09.022 6.39 6.39 0 00-.412-.064c-.276-.037-.55-.074-.826-.184-.742-.247-1.402-.66-1.815-1.402-.082-.165-.164-.412-.247-.66a2.56 2.56 0 01-.082-.33 2.566 2.566 0 00-.083-.33V2.97c.082-.083.083-.248.083-.33C.623 1.567 1.2.742 2.19.33 2.85.082 3.592 0 4.335 0H16.05c.165 0 .247.082.247.247v2.228c0 .247-.082.247-.247.247H4.912c-.495 0-.66.165-.66.66v6.023c0 .412.165.66.578.66h7.507c.083 0 .165 0 .165-.165V7.92c0-.165 0-.165-.165-.165H6.645c-.33 0-.413 0-.413-.413V5.28c0-.165 0-.248.042-.289.04-.041.123-.041.288-.041h9.323c.33 0 .33.082.33.33v7.177c.165.165.165.33 0 .413zm32.998 0H38.57c-.412 0-.825-.083-1.32-.248-1.072-.247-1.65-.99-1.98-1.98a4.869 4.869 0 01-.165-1.155V3.3c0-.495.083-.99.248-1.403.33-.742.825-1.32 1.65-1.567.66-.248 1.32-.33 2.062-.33H49.13c.248 0 .248.082.248.247v2.145c0 .248-.083.33-.33.33h-9.57c-.413.083-.578.165-.578.578v1.402c0 .083 0 .124.021.145.02.02.062.02.144.02h9.57c.33 0 .413 0 .413.413v1.897c0 .248 0 .372-.062.434-.062.061-.186.061-.433.061H38.9c-.082 0-.082 0-.082.083v1.732c0 .248.082.33.33.413a.61.61 0 01.206.041c.062.02.124.041.206.041h9.405c.248 0 .248.083.248.248v2.227c.165.248.082.33 0 .413zm-26.893 0h10.56c.13-.065.157-.129.203-.233a2.02 2.02 0 01.045-.097v-2.228c0-.247-.083-.33-.33-.33h-9.653c-.33 0-.495-.165-.495-.495v-1.65c0-.082 0-.082.083-.082h9.57c.495 0 .495-.083.495-.495V5.362c0-.206 0-.309-.052-.36-.051-.052-.154-.052-.36-.052h-9.488a1.18 1.18 0 00-.143.009c-.105.012-.105.012-.105-.174v-1.32c0-.495.165-.66.66-.66h9.24c.495 0 .495-.083.495-.495V.33c0-.248 0-.33-.247-.33h-9.983c-.66 0-1.402.082-2.062.33-1.073.412-1.65 1.237-1.815 2.31-.082.247-.082.577-.082.825v6.022c0 .578.164 1.073.33 1.568.33.825.99 1.32 1.814 1.567a3.31 3.31 0 001.238.248s.082-.083.082 0zm46.116 0c-.165-.083-.165-.248-.165-.413V8.662c0-.082 0-.165-.082-.247l-2.475-2.723c-.66-.66-1.238-1.32-1.815-1.98-.33-.33-.64-.68-.949-1.03-.31-.351-.619-.702-.949-1.032a7.148 7.148 0 00-.536-.578 6.816 6.816 0 01-.536-.577c-.032-.032-.051-.063-.068-.09-.027-.043-.046-.075-.097-.075-.083-.165-.083-.248.165-.33h3.712c.495 0 .825.33 1.155.66.33.33.64.68.949 1.031.31.351.619.702.949 1.031.742.743 1.484 1.567 2.226 2.392h.001l.33.33c.041.042.062.063.083.063.02 0 .04-.02.082-.062.165-.206.35-.392.536-.578.186-.185.372-.37.537-.577.66-.743 1.32-1.485 2.062-2.145.248-.248.495-.516.743-.784.247-.268.495-.536.742-.783.248-.33.66-.495 1.073-.495h3.712c.204-.069.184.088.17.191-.002.022-.005.042-.005.056-.083.165-.248.33-.413.495a2.209 2.209 0 01-.288.33 2.203 2.203 0 00-.289.33c-.33.33-.64.68-.949 1.031-.31.35-.618.701-.948 1.031-.33.33-.64.68-.949 1.031-.31.351-.619.702-.949 1.032-.267.267-.52.547-.77.824-.37.409-.734.812-1.127 1.156-.165.165-.31.33-.454.495-.144.165-.289.33-.454.495-.082.082-.082.082-.082.165v3.877c0 .165 0 .33-.165.413-1.403-.165-2.558-.165-3.713-.165zm-14.189-.083c.248 0 .495 0 .743.083 3.465 0 7.012 0 10.312.082.165-.082.247-.165.247-.33v-1.98c0-.495 0-.495-.495-.495H55.98c-.248-.082-.413-.247-.413-.495V.33c0-.165-.082-.247-.247-.247h-3.218c-.165 0-.247.082-.247.247v8.662c0 .495 0 .908.082 1.32.083.495.165.99.495 1.403.413.66 1.073.907 1.815 1.072z" fill="#141414"/></svg>