<svg width="90" height="29" viewBox="0 0 90 29" fill="none" xmlns="http://www.w3.org/2000/svg"><g clip-path="url(#clip0)" fill="#141414"><path d="M43.673 6.732H38.54v1.584h3.665c-.146 2.187-1.979 3.168-3.665 3.168-.53.004-1.057-.1-1.548-.308a3.997 3.997 0 01-1.312-.898 4.13 4.13 0 01-.873-1.35 4.222 4.222 0 01-.3-1.592V7.26a3.967 3.967 0 01.28-1.6 3.86 3.86 0 01.894-1.34 4.12 4.12 0 012.859-1.207 3.403 3.403 0 011.477.259c.468.195.89.493 1.235.872l1.1-1.131a5.411 5.411 0 00-1.788-1.193 5.292 5.292 0 00-2.098-.391 5.54 5.54 0 00-3.989 1.617 5.863 5.863 0 00-1.722 4.039 5.726 5.726 0 00.8 3.092 5.666 5.666 0 002.123 2.094c.876.49 1.864.73 2.862.696a4.824 4.824 0 002.017-.324 4.934 4.934 0 001.717-1.134 5.105 5.105 0 001.127-1.751 5.22 5.22 0 00.344-2.07 5.489 5.489 0 00-.073-1.056zm4.26-1.13a3.495 3.495 0 00-1.381.252 3.58 3.58 0 00-1.182.776 3.759 3.759 0 00-1.103 2.591v.076c.115.9.542 1.727 1.203 2.33a3.613 3.613 0 002.394.947c.883.01 1.739-.31 2.412-.898a3.8 3.8 0 001.249-2.304 3.76 3.76 0 00-.244-1.442 3.679 3.679 0 00-.773-1.229 3.56 3.56 0 00-1.179-.82 3.477 3.477 0 00-1.397-.28zm0 1.508c.28.003.558.065.815.182.257.117.489.286.68.498a2.19 2.19 0 01.557 1.582 2.169 2.169 0 01-.557 1.579 2.06 2.06 0 01-.683.493 2.01 2.01 0 01-1.633 0 2.06 2.06 0 01-.683-.493 2.129 2.129 0 01-.437-.73 2.173 2.173 0 01-.12-.849 2.162 2.162 0 01.55-1.594c.193-.213.427-.382.687-.497.26-.115.54-.173.823-.171zM55.77 5.6a3.455 3.455 0 00-1.366.26c-.434.179-.83.444-1.164.78-.334.337-.6.738-.782 1.18a3.73 3.73 0 00-.28 1.4v.076a3.8 3.8 0 001.203 2.33c.66.601 1.51.938 2.393.947.883.01 1.74-.31 2.412-.898a3.8 3.8 0 001.25-2.304 3.811 3.811 0 00-.266-1.451 3.727 3.727 0 00-.793-1.231 3.61 3.61 0 00-1.197-.816 3.527 3.527 0 00-1.41-.273zm0 1.509c.28.003.559.065.816.182.258.117.49.286.682.497a2.175 2.175 0 01.562 1.583 2.143 2.143 0 01-.557 1.579c-.193.21-.425.378-.683.493a2.01 2.01 0 01-1.634 0 2.059 2.059 0 01-.682-.493 2.13 2.13 0 01-.438-.73 2.177 2.177 0 01-.12-.849 2.16 2.16 0 01.11-.856c.094-.274.242-.525.435-.738.193-.213.426-.382.686-.497.26-.115.54-.173.822-.171zM63.467 5.6c-.952 0-1.866.39-2.54 1.083a3.75 3.75 0 00-1.052 2.613c0 .98.379 1.92 1.052 2.612a3.542 3.542 0 002.54 1.083c.376.02.752-.051 1.096-.209.344-.157.647-.396.884-.696v.754a1.869 1.869 0 01-.492 1.474 1.8 1.8 0 01-.647.442 1.748 1.748 0 01-.767.12 1.92 1.92 0 01-1.126-.38 2.01 2.01 0 01-.707-.977l-1.393.603c.269.65.718 1.206 1.292 1.595a3.42 3.42 0 001.934.592c1.906 0 3.373-1.282 3.373-3.846V5.828h-1.54v.603a2.426 2.426 0 00-.863-.634 2.367 2.367 0 00-1.043-.196zm.154 1.433a2.01 2.01 0 011.42.715 2.133 2.133 0 01.486 1.547 2.09 2.09 0 01-.515 1.558 1.996 1.996 0 01-.664.489 1.94 1.94 0 01-1.6 0 1.99 1.99 0 01-.664-.49 2.056 2.056 0 01-.417-.722 2.098 2.098 0 01-.098-.834 2.299 2.299 0 01.591-1.55c.381-.42.904-.674 1.462-.713zM73.658 5.6a3.34 3.34 0 00-1.333.3 3.4 3.4 0 00-1.114.812 3.54 3.54 0 00-.715 1.195 3.611 3.611 0 00-.203 1.389 3.665 3.665 0 00.945 2.557c.63.692 1.5 1.1 2.42 1.138h.147a3.426 3.426 0 001.712-.428 3.54 3.54 0 001.293-1.231l-1.246-.83a2.02 2.02 0 01-.747.784 1.944 1.944 0 01-2.057-.044 2.025 2.025 0 01-.715-.815l4.839-2.036-.22-.604A3.247 3.247 0 0075.5 6.2a3.106 3.106 0 00-1.843-.598zm.073 1.433c.277-.013.55.06.787.207.236.148.424.365.54.623l-3.211 1.433a2.162 2.162 0 01.498-1.537 2.04 2.04 0 011.409-.726h-.023zm-5.71 5.807h1.627V1.906H68.02v10.935zm-32.269 6.6v6.674h-.945v-6.637h-2.053v-.965h5.051v.928h-2.053zm4.011 1.29a2.312 2.312 0 011.657.58c.204.203.363.449.467.72.104.273.15.564.134.856v3.228h-.902v-.754h-.066a1.82 1.82 0 01-.664.652c-.272.155-.58.234-.89.23a1.99 1.99 0 01-1.379-.505 1.617 1.617 0 01-.42-.568 1.662 1.662 0 01-.144-.7c-.01-.245.04-.49.143-.712.103-.223.258-.415.45-.562a2.436 2.436 0 011.577-.475c.48-.02.958.09 1.386.317v-.226a1.136 1.136 0 00-.1-.475 1.106 1.106 0 00-.289-.385 1.335 1.335 0 00-.909-.362 1.434 1.434 0 00-.713.177c-.22.12-.405.295-.54.51l-.83-.536c.227-.333.533-.6.888-.778a2.26 2.26 0 011.144-.233zm-1.217 3.77a.774.774 0 00.077.356c.053.11.133.206.23.277.214.158.472.237.734.227a1.431 1.431 0 001.063-.46 1.435 1.435 0 00.47-1.048 1.882 1.882 0 00-1.233-.363 1.588 1.588 0 00-.96.287.836.836 0 00-.28.308.864.864 0 00-.101.409v.007zm6.724 4.027a2.717 2.717 0 01-.792-.113 2.303 2.303 0 01-1.188-.784 1.885 1.885 0 01-.33-.611l.895-.385a1.44 1.44 0 001.415 1.026c.221.013.443-.022.65-.104.208-.082.396-.209.552-.371a1.88 1.88 0 00.447-1.328v-.497h-.044a1.86 1.86 0 01-.733.648 2.084 2.084 0 01-.99.234 2.146 2.146 0 01-.932-.203 2.207 2.207 0 01-.761-.589 3.068 3.068 0 01-.701-1.957c0-.717.248-1.41.7-1.957.208-.254.468-.458.76-.597a2.15 2.15 0 01.934-.21c.344-.002.684.08.99.242.296.145.55.369.733.648h.044v-.716h.902v4.954c.02.357-.03.714-.15 1.05a2.646 2.646 0 01-.54.904 2.493 2.493 0 01-.858.556c-.32.124-.662.178-1.004.16zm0-3.167c.216.005.43-.039.628-.129s.374-.224.515-.392a1.94 1.94 0 00.506-1.35 1.972 1.972 0 00-.462-1.342 1.528 1.528 0 00-.515-.389 1.49 1.49 0 00-1.765.39 1.97 1.97 0 00-.462 1.341c-.02.492.146.973.462 1.343a1.44 1.44 0 001.122.528h-.03zm7.055.754h-.946v-7.541h.946l2.558 4.524h.044l2.552-4.608h.945v7.625h-.945v-4.525l.044-1.267h-.044l-2.295 4.148h-.557l-2.302-4.148h-.037l.037 1.267v4.525zm9.169-5.384a2.312 2.312 0 011.657.58c.21.2.374.445.483.717.109.272.159.565.147.86v3.227h-.931v-.754h-.044a1.826 1.826 0 01-.668.653 1.763 1.763 0 01-.894.23 1.982 1.982 0 01-1.385-.506 1.619 1.619 0 01-.422-.568 1.662 1.662 0 01-.143-.7c-.01-.245.04-.49.143-.712a1.5 1.5 0 01.451-.562 2.436 2.436 0 011.576-.475c.48-.018.958.091 1.386.317v-.226a1.135 1.135 0 00-.389-.86 1.336 1.336 0 00-.88-.362 1.434 1.434 0 00-.712.177 1.47 1.47 0 00-.541.51l-.829-.536a2.33 2.33 0 01.872-.768c.348-.177.734-.26 1.123-.243zm-1.225 3.77a.772.772 0 00.316.634c.209.167.467.258.733.256a1.43 1.43 0 00.577-.118c.183-.08.348-.195.486-.342a1.434 1.434 0 00.469-1.078 1.882 1.882 0 00-1.232-.363 1.588 1.588 0 00-.96.287.843.843 0 00-.284.307.871.871 0 00-.105.41v.007zm4.555-3.597h.902v.686h.044c.156-.272.385-.493.66-.633.284-.165.604-.253.93-.257a1.835 1.835 0 011.423.543c.354.433.532.99.499 1.554v3.318h-.946v-3.228a1.176 1.176 0 00-.311-.966 1.087 1.087 0 00-.936-.331 1.158 1.158 0 00-.938.468c-.254.315-.39.714-.381 1.123v2.934h-.946v-5.211zm7.426-.173a2.29 2.29 0 011.65.58 2.082 2.082 0 01.608 1.576v3.228H73.6v-.754a1.824 1.824 0 01-.667.653 1.764 1.764 0 01-.895.229 1.99 1.99 0 01-1.393-.505 1.61 1.61 0 01-.417-.569 1.66 1.66 0 01-.14-.698c-.01-.246.038-.49.14-.712a1.51 1.51 0 01.447-.563 2.45 2.45 0 011.576-.475c.48-.02.959.09 1.386.317v-.226a1.114 1.114 0 00-.098-.476 1.082 1.082 0 00-.29-.384 1.32 1.32 0 00-.946-.362 1.434 1.434 0 00-.713.177 1.48 1.48 0 00-.54.51l-.837-.536c.228-.333.535-.6.891-.778a2.27 2.27 0 011.147-.233zm-1.224 3.77a.769.769 0 00.308.634c.21.167.468.257.733.256a1.43 1.43 0 00.577-.118c.183-.08.348-.195.486-.342a1.447 1.447 0 00.461-1.063 1.88 1.88 0 00-1.23-.362 1.586 1.586 0 00-.961.286.834.834 0 00-.273.302.864.864 0 00-.101.4v.007zm6.719 4.027a2.721 2.721 0 01-.792-.113 2.258 2.258 0 01-.667-.31 2.268 2.268 0 01-.52-.474 1.897 1.897 0 01-.33-.611l.894-.385a1.438 1.438 0 001.415 1.026c.222.013.444-.022.65-.104.208-.082.396-.209.552-.371.302-.361.458-.829.433-1.305v-.52h-.044a1.892 1.892 0 01-.734.648 2.146 2.146 0 01-.989.234 2.191 2.191 0 01-.934-.205 2.254 2.254 0 01-.767-.587 3.071 3.071 0 01-.701-1.957c0-.717.249-1.41.7-1.957a2.21 2.21 0 01.764-.599c.294-.14.614-.21.938-.208.344 0 .683.083.99.242.295.146.548.37.733.648h.044v-.716h.901v4.954c.02.357-.03.714-.149 1.05a2.648 2.648 0 01-.54.904c-.244.242-.534.43-.851.553a2.438 2.438 0 01-.996.163zm0-3.167a1.443 1.443 0 001.144-.521c.317-.371.483-.855.461-1.35a1.974 1.974 0 00-.461-1.342 1.475 1.475 0 00-.515-.396 1.43 1.43 0 00-.63-.132 1.432 1.432 0 00-.625.134 1.46 1.46 0 00-.51.394c-.314.371-.48.85-.463 1.342-.02.492.146.973.463 1.343a1.453 1.453 0 001.165.528h-.03zm5.897.882a2.336 2.336 0 01-.991-.175 2.394 2.394 0 01-.834-.58 2.82 2.82 0 01-.733-1.975 2.862 2.862 0 01.696-1.968c.223-.263.5-.472.81-.613.31-.14.647-.21.986-.202a2.24 2.24 0 01.972.175c.308.13.584.328.81.58.467.586.703 1.331.66 2.088v.106h-3.952a1.67 1.67 0 00.491 1.222c.18.181.4.316.642.392a1.548 1.548 0 001.43-.258c.2-.157.362-.36.472-.594l.843.422a2.603 2.603 0 01-.902 1.018c-.425.251-.91.376-1.4.362zm-1.532-3.379h2.932a1.312 1.312 0 00-.424-.89 1.479 1.479 0 00-1.042-.384 1.341 1.341 0 00-.916.34 1.66 1.66 0 00-.55.934zm5.723 3.251h-.946v-5.211h.902v.844h.044c.11-.296.317-.544.586-.7.26-.184.566-.286.88-.295.25-.01.5.033.733.128l-.286.943a1.43 1.43 0 00-.557-.076c-.176 0-.35.04-.51.117-.16.077-.3.19-.414.328-.255.28-.396.65-.396 1.034l-.036 2.888zM16.178 27.75l-4.787-4.924L21.655 12.14l4.875 5.015L16.178 27.75z"/><path d="M16.215 6.506L11.34 1.514 1.01 12.14c-.32.328-.574.718-.748 1.148a3.625 3.625 0 000 2.71c.174.43.428.82.748 1.15L11.34 27.78l4.787-4.94-7.815-8.19 7.903-8.145z"/><path d="M26.545 12.14L16.215 1.514a3.39 3.39 0 00-2.387-.897 3.4 3.4 0 00-2.337 1.03 3.594 3.594 0 00-1.013 2.4c-.028.902.28 1.782.862 2.46L21.677 17.14a3.4 3.4 0 002.438 1.038 3.4 3.4 0 002.438-1.038 3.598 3.598 0 001.01-2.508 3.6 3.6 0 00-1.01-2.507l-.008.015zM13.737 28.829c1.887 0 3.416-1.574 3.416-3.515 0-1.94-1.53-3.514-3.416-3.514-1.887 0-3.417 1.573-3.417 3.514 0 1.941 1.53 3.515 3.417 3.515z"/></g><defs><clipPath id="clip0"><path fill="#fff" d="M0 0h90v29H0z"/></clipPath></defs></svg>