<svg width="61" height="34" viewBox="0 0 61 34" fill="none" xmlns="http://www.w3.org/2000/svg"><path d="M5.88 24.47v3.345H2.09v-3.344H0v8.776h2.09v-3.529h3.79v3.529h2.09V24.47H5.88zm9.742 0l-2.185 3.476-2.183-3.475H8.789l3.607 5.736v3.04h2.087v-3.04l3.606-5.736h-2.467zm9.188 0v6.433a.433.433 0 01-.444.44H21.02v-6.872h-2.09v8.776h6.173c.55 0 .99-.164 1.313-.484.32-.323.482-.764.482-1.31V24.47H24.81zm10.195 0h-6.173v8.777h2.087V26.37h3.352c.27 0 .441.212.441.439v6.437H36.8v-6.982c0-.55-.164-.99-.481-1.31-.325-.323-.764-.484-1.313-.484zm9.898 0H38.73v8.777h6.172c.55 0 .988-.164 1.308-.484.323-.323.484-.764.484-1.31v-5.188c0-.55-.161-.99-.484-1.31-.32-.323-.761-.484-1.308-.484zm-.295 2.355v4.065a.44.44 0 01-.444.454h-3.35V26.37h3.335c.275 0 .46.192.46.454zm5.727-2.355c-.547 0-.99.162-1.31.485-.323.322-.482.763-.482 1.31v6.982h2.082v-2.715h3.793v2.715h2.087V24.47h-6.17zm4.083 1.901v2.26h-3.793v-1.814c0-.217.169-.446.446-.446h3.347zm4.122 6.876h2.089V24.47h-2.09v8.776zM29.079 18.389c10.022 0 18.148-4.117 18.148-9.193C47.227 4.116 39.102 0 29.08 0 19.06 0 10.935 4.117 10.935 9.196c0 5.076 8.126 9.193 18.145 9.193zm3.417-4.511c-.303.694-.824 2.176-2.019 2.767-.364.178-.812.262-1.21.277h-.185c-3.348 0-6.467-.463-9.076-1.247-.02-.009-.08-.03-.1-.038-.24-.08-.364-.19-.364-.326 0-.118.066-.209.15-.292l.165-.144c.605-.497 2.417-1.797 5.835-3.094 1.199-.45 2.7-1.015 4.271-1.345.92-.19 4.338-.71 2.533 3.442zm9.168-9.269c.065-.11.15-.204.307-.212.084-.008.2.011.375.121 2.13 1.297 3.395 2.92 3.395 4.674 0 3.17-4.119 5.895-10.011 7.085-.376.076-.629.072-.713-.022-.061-.057-.076-.159 0-.284a1.22 1.22 0 01.157-.216c3.207-3.742 5.651-9.261 6.345-10.853.053-.11.103-.22.145-.292zM25.72 4.492c.302-.693.823-2.175 2.019-2.763a3.048 3.048 0 011.21-.277c.092-.002.157 0 .18 0 3.353 0 6.468.459 9.08 1.247.02.009.081.03.1.038.242.08.364.19.364.326 0 .118-.065.205-.15.288a2.843 2.843 0 01-.164.145c-.601.5-2.417 1.796-5.835 3.093-1.203.455-2.701 1.016-4.268 1.346-.923.193-4.341.708-2.536-3.442zm-3.292-2.384c.38-.072.629-.072.72.022.054.06.07.16-.002.285a1.33 1.33 0 01-.157.212c-3.207 3.745-5.651 9.26-6.348 10.856-.05.11-.104.22-.146.292-.062.11-.15.205-.303.213-.084.008-.203-.017-.38-.121-2.13-1.297-3.394-2.92-3.394-4.674 0-3.17 4.119-5.895 10.011-7.085" fill="#141414"/></svg>