<svg width="119" height="25" viewBox="0 0 119 25" fill="none" xmlns="http://www.w3.org/2000/svg"><path d="M26.11 8.432h1.73l3.338 4.565 3.182-4.565h1.62v9.773h-1.703V11.14l-3.085 4.342h-.252l-3.113-4.3v7.023h-1.718V8.432zM40.836 14.1h2.862l-1.424-3.476-1.438 3.476zm.726-5.696h1.508l4.133 9.8h-1.83l-1.019-2.498H40.18l-1.02 2.499h-1.73l4.132-9.8zm6.603 2.569c0-1.466 1.146-2.695 3.043-2.695 1.2 0 2.206.405 2.793 1.047l-.92 1.285c-.477-.461-.953-.726-1.733-.726-.85 0-1.368.432-1.368 1.075 0 2.024 4.427 1.382 4.427 4.635 0 1.647-1.44 2.764-3.268 2.764-1.257 0-2.723-.544-3.198-1.536l.978-1.172c.573.74 1.493 1.103 2.248 1.103.81 0 1.425-.405 1.425-1.145 0-1.927-4.427-1.452-4.427-4.635zm7.007-2.541h8.056v1.605h-3.17v8.168h-1.716v-8.168h-3.17V8.432zm9.551 0h5.654v1.605h-3.938v2.43h3.52v1.605h-3.52V16.6h4.078v1.606h-5.794V8.432zm9.743 1.605v2.904h1.117c.99 0 1.869-.502 1.869-1.508 0-.767-.42-1.423-1.815-1.423-.32 0-.711.013-1.171.027zm-1.72 8.168V8.432c.546 0 2.697-.028 2.976-.028 2.666 0 3.545 1.326 3.545 3.015 0 1.676-1.076 2.513-1.885 2.793l3.059 3.993h-2.082l-2.694-3.658h-1.2v3.658h-1.719zm9.188-9.773h1.732l3.338 4.565 3.182-4.565h1.619v9.773H90.1V11.14l-3.084 4.342h-.25l-3.114-4.3v7.023h-1.72V8.432zm12.785 0h1.72v9.773h-1.72V8.432zm11.617 9.773l-5.375-6.772v6.772h-1.605V8.432h1.367l5.375 6.799v-6.8h1.606v9.774h-1.368zm5.794-8.168V16.6c.473.028.863.028 1.101.028 2.361 0 3.728-1.34 3.728-3.407 0-1.968-1.367-3.225-3.699-3.225-.407 0-.74.015-1.13.042zm-1.72-1.605h.184c.584 0 1.98-.042 2.694-.042 3.909 0 5.486 2.248 5.486 4.83 0 2.75-1.872 5.013-5.597 5.013-.587 0-1.675-.028-2.57-.028h-.197V8.432zM4.256 8.41h11.253v1.417H4.256V8.41zm4.57-2.532l.023.013a1.907 1.907 0 001.832-.022l4.828-3.398v4.803H4.256V2.818l4.57 3.06zM19.554 22.65l-4.494-1.465v-2.108l.06.018h.106c.94 0 1.702-.762 1.702-1.702v-2.907c.312.165.664.26 1.037.26 1.22 0 2.221-1.001 2.312-2.27h-3.349v-1.23h3.31V9.827h-3.31V2.221c0-.458-.236-.87-.631-1.102a1.266 1.266 0 00-1.27-.013L9.98 4.636a.494.494 0 01-.458.006L4.735 1.457l-.022-.012c-.4-.212-.87-.2-1.257.034a1.27 1.27 0 00-.619 1.095v7.253H0v1.419h2.837v.875a2.18 2.18 0 00-1.466 2.056v.662c0 1.2.976 2.176 2.175 2.176h.946v-1.419h-.946a.758.758 0 01-.756-.757v-.662c0-.416.34-.756.756-.756h.71v-2.175h11.253v6.147c0 .131-.09.242-.21.274l-2.707-.812a.71.71 0 00-.408 1.36l1.457.437v2.07L2.557 17.509l-.026-.008a1.718 1.718 0 00-1.493.27 1.775 1.775 0 00-.707 1.433v2.35a.71.71 0 101.419 0v-2.386c0-.136.077-.215.123-.25a.306.306 0 01.264-.054l16.967 5.158a.722.722 0 10.449-1.372z" fill="#141414"/><path d="M14.886 12.475H9.984a2.458 2.458 0 004.902 0zM10.42 16.75a.623.623 0 11-1.248 0 .623.623 0 011.247 0z" fill="#141414"/></svg>