<svg width="101" height="32" viewBox="0 0 101 32" fill="none" xmlns="http://www.w3.org/2000/svg"><g clip-path="url(#clip0)"><path d="M6.151 16.503a2.72 2.72 0 00-.63.043 2.64 2.64 0 00-2.18 3.072c.151 1.423 1.669 2.624 3.073 2.66.144.003.289-.006.431-.03 1.52-.245 1.918-1.812 1.667-3.35-.283-1.738-1.52-2.351-2.361-2.395zm1.49 4.117a.637.637 0 01-.594.28.8.8 0 01-.735-.806c-.004-.27.048-.538.153-.788a.715.715 0 00-.294-.885.828.828 0 00-.604-.107.777.777 0 00-.495.324c-.078.126-.14.262-.181.405a1.372 1.372 0 01-.02.057c-.069.176-.179.227-.253.218a.144.144 0 01-.115-.108 1.491 1.491 0 01.42-1.3 1.363 1.363 0 011.735-.16c.18.124.326.29.427.483a1.555 1.555 0 01-.126 1.44l-.046.1a.568.568 0 00-.015.55.406.406 0 00.337.162.78.78 0 00.185-.024c.078-.018.158-.035.208.023a.116.116 0 01.012.136z" fill="#fff"/><path d="M25.573 23.54c.317-.806.5-1.657.543-2.521 0-1.063-.602-1.503-.985-1.503a19.797 19.797 0 00-.191-.652 5.23 5.23 0 00-.212-.568 2.06 2.06 0 00.37-1.5 1.898 1.898 0 00-.553-1.072 4.494 4.494 0 00-1.95-.966 48.15 48.15 0 01-.498-.138c-.003-.02-.026-1.17-.048-1.664a5.693 5.693 0 00-.22-1.462 3.916 3.916 0 00-1.013-1.809c1.238-1.282 2.01-2.694 2.008-3.905-.003-2.33-2.867-3.034-6.396-1.574l-.748.317a805.382 805.382 0 00-1.372-1.343C10.284-.325-2.297 13.643 1.725 17.035l.88.744a4.311 4.311 0 00-.245 1.993c.12.981.604 1.881 1.358 2.52a4.133 4.133 0 002.663 1.072c1.566 3.603 5.142 5.813 9.335 5.938 4.499.133 8.275-1.975 9.857-5.763zm.923-4.265a2.68 2.68 0 01.56 1.744 8.764 8.764 0 01-.606 2.86l-.009.022a9.923 9.923 0 01-4.065 4.705 12.108 12.108 0 01-6.258 1.641c-.142 0-.287-.002-.43-.006a12.143 12.143 0 01-6.127-1.81 10.491 10.491 0 01-3.8-4.172 5.198 5.198 0 01-2.667-1.263 4.861 4.861 0 01-1.67-3.13 5.415 5.415 0 01.101-1.768l-.408-.345a3.2 3.2 0 01-1.105-2.286 6.491 6.491 0 01.46-2.65c.837-2.287 2.764-5.011 5.155-7.287a19.201 19.201 0 013.527-2.706 7.32 7.32 0 013.548-1.143 3.281 3.281 0 012.224.791c.035.03.564.548.964.94l.175-.073c1.186-.517 2.46-.8 3.753-.833 2.395 0 3.944 1.284 3.947 3.273.002 1.227-.6 2.602-1.71 3.933.302.468.53.979.677 1.515a6.66 6.66 0 01.257 1.688c.011.246.022.64.03.988.82.208 1.577.61 2.207 1.172.428.425.708.975.8 1.57a2.887 2.887 0 01-.26 1.723 7.254 7.254 0 01.131.41c.23.125.434.294.6.497z" fill="#fff"/><path d="M23.645 18.112a1.422 1.422 0 00.445-1.127.98.98 0 00-.28-.555 3.492 3.492 0 00-1.535-.736c-.258-.073-.433-.12-.622-.183-.335-.111-.5-.201-.538-.839a149.09 149.09 0 01-.082-1.652c-.03-.703-.114-1.664-.704-2.061a.983.983 0 00-.505-.163.944.944 0 00-.299.03c-.3.07-.572.225-.784.447a2.683 2.683 0 01-2.048.692c-.413-.018-.85-.083-1.352-.113l-.293-.017a2.703 2.703 0 00-2.604 2.386c-.287 1.998 1.143 3.03 1.556 3.636a.508.508 0 01.114.272.436.436 0 01-.147.286 5.156 5.156 0 00-1.113 4.804 4 4 0 00.21.582c1.043 2.467 4.28 3.616 7.444 2.571a7.705 7.705 0 001.202-.514 6.318 6.318 0 001.84-1.39 5.558 5.558 0 001.532-3.04c.095-.635-.044-.881-.234-1a.693.693 0 00-.442-.081 6.19 6.19 0 00-.42-1.451l-.34-.784zM18.46 8.585c.05.012.083-.077.038-.102a5.722 5.722 0 00-2.44-.639.044.044 0 01-.035-.07c.132-.174.286-.328.459-.461a.045.045 0 00.016-.024.046.046 0 00-.047-.058 6.48 6.48 0 00-2.918 1.03.045.045 0 01-.05-.001.045.045 0 01-.02-.047c.071-.263.175-.516.31-.753a.043.043 0 00-.058-.059 11.843 11.843 0 00-3.325 2.714.045.045 0 00.06.066 10.161 10.161 0 013.59-1.584 9.945 9.945 0 014.42-.012m-3.725-3.568s-1.095-1.268-1.426-1.362c-2.034-.549-6.427 2.478-9.232 6.476-1.135 1.618-2.76 4.483-1.983 5.957.276.33.587.63.928.894a3.46 3.46 0 012.185-1.392 17.77 17.77 0 015.61-7.876 28.646 28.646 0 013.918-2.697z" fill="#fff"/><path d="M7.565 20.565a.123.123 0 01.013.138.604.604 0 01-.57.285.793.793 0 01-.707-.82 2.107 2.107 0 01.147-.799.748.748 0 00-.561-1.013.76.76 0 00-.777.334c-.076.13-.134.267-.175.411a1.272 1.272 0 01-.018.059c-.067.178-.172.23-.244.22-.034-.004-.08-.027-.11-.108a1.574 1.574 0 01.404-1.32 1.268 1.268 0 011.089-.395 1.291 1.291 0 01.988.722 1.658 1.658 0 01-.12 1.462 4.336 4.336 0 00-.045.102.605.605 0 00-.014.559.384.384 0 00.324.164c.06 0 .119-.009.177-.025.075-.017.152-.035.2.024zm18.51.462a7.949 7.949 0 01-.54 2.516c-1.571 3.779-5.322 5.883-9.791 5.75-4.166-.124-7.719-2.33-9.274-5.926a4.095 4.095 0 01-2.646-1.069 3.921 3.921 0 01-1.35-2.514 4.32 4.32 0 01.244-1.99l-.874-.742c-3.996-3.385 8.503-17.324 12.5-13.826.02.018 1.36 1.337 1.364 1.34l.743-.316c3.506-1.457 6.35-.754 6.354 1.57.002 1.21-.765 2.618-1.995 3.897.491.5.84 1.124 1.007 1.805.136.475.21.966.218 1.46.022.492.045 1.64.048 1.66.03.01.386.108.493.138a4.457 4.457 0 011.939.963c.294.288.486.663.548 1.07a2.06 2.06 0 01-.367 1.497c.081.185.151.375.21.568.104.332.18.609.191.65.38 0 .978.44.978 1.5zm-17.66-2.073c-.271-1.765-1.461-2.387-2.268-2.431a2.445 2.445 0 00-.605.043c-1.441.291-2.255 1.521-2.095 3.12a3.229 3.229 0 002.953 2.7c.138.004.277-.005.413-.028 1.46-.25 1.843-1.841 1.603-3.404zM10.88 7.75a28.454 28.454 0 013.892-2.692S13.683 3.793 13.355 3.7c-2.02-.548-6.386 2.472-9.172 6.463-1.128 1.614-2.742 4.473-1.97 5.944.274.33.583.63.922.892a3.436 3.436 0 012.171-1.39 17.731 17.731 0 015.573-7.858zm4.391 13.965a1.337 1.337 0 00.943.99c.241.09.49.157.743.202 3.196.551 6.184-1.282 6.857-1.744.05-.035.084 0 .043.06-.02.033-.042.064-.066.095-.823 1.065-3.037 2.3-5.916 2.299-1.256 0-2.512-.444-2.973-1.127-.715-1.058-.035-2.603 1.156-2.442l.522.059c1.853.178 3.72-.122 5.423-.87 1.626-.758 2.24-1.591 2.148-2.266a.97.97 0 00-.28-.551 3.506 3.506 0 00-1.538-.73c-.258-.074-.433-.12-.622-.182-.335-.111-.501-.2-.539-.834-.016-.277-.064-1.241-.082-1.64-.03-.698-.114-1.653-.704-2.047a.987.987 0 00-.505-.162.952.952 0 00-.3.03 1.578 1.578 0 00-.784.444 2.702 2.702 0 01-2.05.687c-.413-.017-.851-.082-1.353-.112l-.294-.017a2.697 2.697 0 00-2.607 2.37c-.287 1.983 1.145 3.008 1.558 3.61.064.076.104.17.114.27a.432.432 0 01-.147.284 5.09 5.09 0 00-1.114 4.77c.054.198.124.392.21.579 1.044 2.45 4.285 3.59 7.451 2.553a7.76 7.76 0 001.203-.51 6.322 6.322 0 001.842-1.381 5.504 5.504 0 001.534-3.018c.095-.632-.044-.876-.235-.994a.7.7 0 00-.442-.08 6.114 6.114 0 00-.421-1.442 9.225 9.225 0 01-3.016 1.505c-1.31.37-2.673.518-4.032.438-.875-.071-1.453-.327-1.67.382a9.422 9.422 0 004.111.42.075.075 0 01.073.039.075.075 0 01-.002.075.079.079 0 01-.036.032s-1.624.757-4.203-.044zm-4.756-11.503A10.074 10.074 0 0114.08 8.63a9.837 9.837 0 014.391-.011c.05.011.083-.077.038-.102a5.666 5.666 0 00-2.424-.638.044.044 0 01-.035-.07c.131-.173.285-.327.457-.46a.046.046 0 00-.003-.074.046.046 0 00-.028-.008 6.421 6.421 0 00-2.9 1.027.045.045 0 01-.068-.046c.07-.263.173-.515.307-.752a.044.044 0 00-.007-.05.043.043 0 00-.05-.009 11.78 11.78 0 00-3.304 2.709.045.045 0 000 .06.045.045 0 00.06.006zm8.416 6.733a.421.421 0 00.554-.092c.08-.156-.037-.367-.262-.473a.421.421 0 00-.553.093c-.081.156.036.367.261.472zm.69-2.53c.055.28.171.546.342.775.176-.021.354-.021.53 0 .103-.308.112-.64.026-.954-.128-.578-.3-.928-.656-.874-.355.055-.368.474-.241 1.052zm.758 1.329a.446.446 0 10.323.437.393.393 0 00-.323-.437z" fill="#e4002b"/><path d="M14.47 15.693c-.058-.008-.082-.032-.089-.065-.022-.1.131-.264.293-.382a1.705 1.705 0 011.659-.2c.252.105.47.28.625.504.058.094.069.168.032.206-.059.062-.207-.009-.45-.115a1.978 1.978 0 00-.934-.201c-.384.063-.763.147-1.137.253zm2.41.496a.916.916 0 00-.826-.27 1.14 1.14 0 00-.6.25.385.385 0 00-.154.24.074.074 0 00.024.057c.015.013.033.02.052.02a.96.96 0 00.23-.064 2.007 2.007 0 011.015-.105c.158.017.233.027.268-.027a.09.09 0 00-.01-.1z" fill="#e4002b"/><path d="M16.433 16.334c.1-.355.106-.73.017-1.089-.13-.58-.324-.91-.685-.856-.36.054-.37.522-.253 1.103.053.267.157.521.306.748.287.401.482.298.615.094zM96.12 18.75c-.663 0-1.15-.841-1.15-2.013 0-1.138.501-2.012 1.127-2.012.805 0 1.148.738 1.148 2.012 0 1.325-.316 2.013-1.125 2.013zm.794-6.438a2.7 2.7 0 00-2.463 1.749c-.195.419-.185.542-.328.542-.207 0-.035-.337.057-.733.111-.45.126-.919.044-1.375h-2.117v10.163h2.89v-3.222a2.262 2.262 0 001.952 1.2c2.09 0 3.141-1.77 3.141-4.159 0-2.709-1.258-4.166-3.177-4.166zm-21.578.194v7.955h2.89v-7.955c-.45.21-.945.308-1.442.284a3.096 3.096 0 01-1.448-.284zm-3.582-.193c-1.674 0-2.31 1.586-2.438 1.862-.129.275-.193.433-.298.43-.182-.006-.055-.338.016-.553.28-.9.421-1.839.42-2.782.025-.4-.016-.8-.12-1.186h-2.495v10.377h2.89V16.5c0-.646.257-1.773.986-1.773.602 0 .791.446.791 1.347v4.389h2.89v-4.216c0-2.044-.338-3.931-2.642-3.931v-.002zM61.373 16.48c0-.716.665-1.368 1.886-1.368a5.294 5.294 0 012.64.787v-2.77s-.845-.815-2.923-.815c-2.19 0-4.015 1.283-4.015 4.042 0 2.76 1.656 4.29 4.009 4.29a4.576 4.576 0 002.934-1.01v-2.632a5.06 5.06 0 01-2.632.865c-1.397 0-1.9-.643-1.9-1.389zm-6.071-6.395h2.89v10.377h-2.89V10.084zm-8.953 8.514c-.691.16-1.05-.053-1.05-.512 0-.627.65-.879 1.576-.879.408 0 .792.036.792.036a2.056 2.056 0 01-1.318 1.355zm.703-6.284a9.104 9.104 0 00-3.802.813v2.394s1.754-1.01 3.177-1.01c1.136 0 1.276.614 1.224 1.122a6.19 6.19 0 00-1.327-.086c-2.356 0-3.545 1.07-3.545 2.788 0 1.629 1.336 2.31 2.463 2.31a2.709 2.709 0 002.587-1.629c.154-.363.182-.608.32-.608.158 0 .105.175.097.537a5.82 5.82 0 00.117 1.516h2.178v-3.92c0-2.447-.865-4.228-3.488-4.228zm41.47-.002a2.443 2.443 0 00-2.19 1.646c-.16.36-.205.646-.336.646-.184 0-.061-.315-.203-.797a1.96 1.96 0 00-2.067-1.495c-1.335 0-1.907 1.129-2.178 1.749-.186.424-.186.542-.33.542-.206 0-.034-.337.058-.733.112-.45.126-.919.044-1.375h-2.117v7.964h2.89v-3.963c0-.781.327-1.773.887-1.773.647 0 .777.497.777 1.418v4.32h2.902v-3.965c0-.695.284-1.773.891-1.773.656 0 .773.698.773 1.418v4.318h2.85v-4.684c0-2.079-.733-3.464-2.65-3.464h-.001zm-49.055 0a2.444 2.444 0 00-2.188 1.646c-.162.36-.207.646-.338.646-.184 0-.052-.248-.202-.797a1.991 1.991 0 00-2.067-1.495c-1.336 0-1.908 1.129-2.179 1.749-.185.424-.186.542-.328.542-.207 0-.035-.337.057-.733.111-.45.126-.919.044-1.375h-2.118v7.964h2.89v-3.963c0-.781.328-1.773.888-1.773.647 0 .777.497.777 1.418v4.32h2.901v-3.965c0-.695.284-1.773.892-1.773.656 0 .773.698.773 1.418v4.318h2.85v-4.684c0-2.079-.733-3.464-2.651-3.464zm35.537-1.153c0-.638.792-1.155 1.769-1.155.977 0 1.769.517 1.769 1.155 0 .637-.792 1.154-1.77 1.154-.976 0-1.768-.517-1.768-1.154zm-22.08 1.631a3.05 3.05 0 001.442-.284v7.955h-2.89v-7.955l1.448.284zm-1.78-1.631c0-.638.792-1.155 1.769-1.155.977 0 1.769.517 1.769 1.155 0 .637-.792 1.154-1.77 1.154-.976 0-1.768-.517-1.768-1.154z" fill="#e4002b"/></g><defs><clipPath id="clip0"><path fill="#fff" d="M0 0h100.117v31.962H0z"/></clipPath></defs></svg>