<svg width="160" height="15" viewBox="0 0 160 15" fill="none" xmlns="http://www.w3.org/2000/svg"><g clip-path="url(#clip0)"><path fill-rule="evenodd" clip-rule="evenodd" d="M.89 0h17.882v2.63c-2.265.113-7.086.708-7.628 4.383-.338 2.291 1.848 3.581 2.617 4.034.08.048.146.087.19.116 1.271.59 2.962.947 4.82 1.017v2.815H6.697c.6-.638 1.236-1.47 1.854-2.463.433-.698 1.271-2.711 1.259-4.383-.007-.703-.059-1.412-.478-1.818-.568-.552-1.697-.514-2.388-.417C4.75 6.223 2.53 7.581.891 9.324V0zm0 10.497v4.498h5.69l.032-.054c.668-1.115 1.586-2.646 2.03-4.151.425-1.429.632-2.836-.213-3.518-.613-.492-1.717-.175-2.453.036l-.025.008c-1.284.362-3.937 1.78-5.06 3.181zm17.882.97V4.22c-2.156-.043-4.672.38-5.905 1.424-.826.703-1.006 1.91-.503 2.857 1.142 2.137 4.272 2.754 6.408 2.965zM9.234.356a.21.21 0 00-.064-.06.44.44 0 00-.116-.021c-.104.032-.104.113-.104.13.006.166.014.336.022.508.081 1.764.17 3.696-1.964 3.69-1.394-.005-2.93-.838-4.278-2.348l-.086-.094c-.217-.24-.513-.566-.779-.68-.232-.102-.678.163-.484.585.536 1.169 2.2 2.25 2.69 2.505 1.053.558 3.305.996 4.447.217 1.391-.951 1.065-2.844.89-3.857L9.384.779C9.344.568 9.3.433 9.235.357z" fill="#141414"/><path d="M158.102 6.277c0-.541-1.039-1.125-2.607-1.125h-11.886v2.25h11.886c1.568 0 2.607-.59 2.607-1.125zm1.788 0c0 1.45-1.969 2.625-4.395 2.625h-11.886v2.732h-1.787V3.653h13.673c2.426 0 4.395 1.168 4.395 2.624zm-21.856 1.364c0-1.342-2.885-2.7-8.396-2.7-5.511 0-8.395 1.358-8.395 2.7 0 1.066 3.349 2.673 8.395 2.673 5.047 0 8.396-1.607 8.396-2.673zm-8.396-4.2c6.731 0 10.183 1.89 10.183 4.2 0 2.31-4.562 4.172-10.183 4.172-5.626 0-10.182-1.862-10.182-4.172 0-2.31 3.458-4.2 10.182-4.2zm-10.182.212h-18.12v1.499h8.169v6.482h1.787V5.152h8.17v-1.5h-.006zm-20.43 4.691l-4.072-3.128-4.072 3.128h8.143zm1.955 1.5H88.934l-2.336 1.79H83.95l11.003-8.452 11.002 8.452h-2.645l-2.33-1.79zM83.526 7.05H72.84v1.5h8.898v.752c-1.458.579-3.826 1.012-6.769 1.012-5.046 0-8.395-1.607-8.395-2.673 0-1.342 2.885-2.7 8.395-2.7 3.517 0 5.963.551 7.273 1.304L83.235 5c-1.677-.947-4.44-1.558-8.266-1.558-6.73 0-10.182 1.888-10.182 4.199 0 2.31 4.562 4.172 10.182 4.172 3.588 0 6.744-.628 8.557-1.683V7.05zM42.93 3.653l-7.763 6.206-7.77-6.206H25.19v7.981h1.788V5.487l7.692 6.147h.987l7.692-6.147v6.147h1.787V3.653H42.93zm6.64 1.499V6.72h12.976v1.5H49.571v1.915h13.544v1.5H47.783V3.652h15.332v1.499H49.571z" fill="#000"/></g><defs><clipPath id="clip0"><path fill="#fff" transform="translate(.89)" d="M0 0h159v15H0z"/></clipPath></defs></svg>