<svg width="90" height="28" viewBox="0 0 90 28" fill="none" xmlns="http://www.w3.org/2000/svg"><path d="M12.241.628c.584.02.6.034.6.558V19.14c0 .544-.018.562-.55.618-3.239.34-6.305 1.247-9.153 2.855-.609.34-1.185.726-1.777 1.09l.048.086c.101-.059.203-.116.302-.176 2.832-1.72 5.897-2.78 9.168-3.235.657-.092 1.319-.144 1.98-.205.398-.037.464-.098.465-.493 0-1.691.004-3.384-.004-5.076a.796.796 0 01.234-.599c2.463-2.642 4.344-5.663 5.74-8.994.029-.072.067-.141.097-.208.525.091.525.091.525.586V21.62c-.338.016-.673.097-.983.036a28.539 28.539 0 00-8.837-.345c-2.97.344-5.795 1.152-8.455 2.534-.08.041-.16.086-.236.133-.016.01-.022.035-.068.11.147-.058.247-.094.345-.136a30.46 30.46 0 018.978-2.355c3.053-.326 6.067-.096 9.046.635.503.123.702-.032.702-.553 0-2.577.003-5.155-.006-7.733a.755.755 0 01.274-.613c1.582-1.482 3.152-2.977 4.772-4.51.203.037.303.205.303.525-.01 4.951-.012 9.902-.007 14.854 0 .456-.27.66-.706.512-1.997-.677-4.03-1.226-6.119-1.505-1.592-.215-3.196-.396-4.799-.47a38.144 38.144 0 00-12.216 1.447c-.444.125-.88.28-1.32.415-.121.037-.25.049-.417.08 0-.642-.01-1.231.009-1.818 0-.104.11-.216.193-.303a50.158 50.158 0 006.668-8.848C9.2 10.052 10.945 6.21 11.944 2.05c.112-.474.2-.95.297-1.42V.628zm30.934.114v10.2c-.338 0-.66.017-.981-.013-.067-.007-.175-.179-.178-.277-.015-.681-.008-1.363-.008-2.044v-6.12c-.252.59-.581 1.382-.925 2.166-.878 2.001-1.757 3.999-2.637 6-.085.196-.178.3-.417.3-.24 0-.332-.102-.419-.299-1.092-2.473-2.195-4.943-3.288-7.418-.13-.294-.217-.608-.353-.993v8.675h-1.087V.748c.479 0 .947-.02 1.415.016.101.007.22.196.277.326a959.93 959.93 0 012.392 5.477c.355.817.702 1.64 1.061 2.483a.82.82 0 00.079-.12c1.166-2.652 2.334-5.303 3.503-7.952.044-.1.181-.216.281-.222.414-.029.831-.014 1.286-.014zM32.95 24.582V14.39c.025-.016.044-.038.063-.038 1.605.01 3.22-.162 4.804.238 1.907.48 3.042 1.869 3.208 3.853.086 1.053.046 2.089-.369 3.072-.72 1.704-2.06 2.666-3.83 2.905-1.263.175-2.557.115-3.876.16zm1.181-1.137c.75 0 1.471.041 2.187-.007 1.768-.12 3.014-1.2 3.4-2.927a5.518 5.518 0 00-.023-2.463c-.301-1.31-1.119-2.116-2.399-2.445a5.429 5.429 0 00-1.13-.171c-.671-.028-1.344-.008-2.035-.008v8.021zM81.656 10.92h-1.139V5.13c0-.565.058-.498-.513-.503h-.684v-.948h1.204c0-.504-.017-.964.004-1.424.037-.807.36-1.467 1.047-1.915.575-.375 1.209-.393 1.854-.273a.303.303 0 01.191.211c.024.269.009.54.009.83-.208-.048-.38-.097-.555-.126-.676-.107-1.236.25-1.34.929-.078.512-.06 1.039-.067 1.56 0 .067.106.188.164.189.91.012 1.818.008 2.766.008 0-.53.01-1.016-.005-1.5-.006-.217.062-.33.275-.385.28-.072.554-.172.883-.277v2.16h1.777v.955h-1.743c-.01.157-.024.272-.024.395v3.952c.03.967.639 1.385 1.554 1.065l.24-.08c0 .286.013.542-.009.797a.305.305 0 01-.17.21c-.665.218-1.329.238-1.96-.112-.499-.276-.713-.758-.758-1.295-.053-.62-.05-1.246-.055-1.869-.008-.998 0-1.996 0-3.032-.144-.008-.263-.017-.383-.017-.709 0-1.42.015-2.128-.009-.33-.01-.442.068-.438.426.02 1.816.01 3.632.01 5.45l-.007.419zm-13.3 13.65v-.408c0-1.34.004-2.68 0-4.02a3.619 3.619 0 00-.073-.742c-.132-.633-.455-1.12-1.121-1.263-.696-.147-1.295.028-1.733.629-.337.466-.473.997-.473 1.567v4.213h-1.12v-7.223h1.108v1.012c.583-.77 1.294-1.239 2.263-1.227.99.015 1.68.488 2.069 1.456.165-.217.297-.409.446-.585.775-.92 2.28-1.17 3.295-.538.676.42.932 1.102.988 1.846.068.858.06 1.722.068 2.584.01.886 0 1.767 0 2.674h-1.125c-.007-.14-.02-.273-.02-.403 0-1.249.008-2.497-.006-3.747a5.746 5.746 0 00-.115-1.113c-.247-1.172-1.605-1.608-2.501-.809-.575.515-.804 1.19-.812 1.947-.007 1.238 0 2.475 0 3.713 0 .434 0 .434-.445.434l-.692.004zM62.08 11.11c-1.977-.007-3.349-1.282-3.462-3.271a6.308 6.308 0 01.119-1.716c.348-1.55 1.506-2.531 3.088-2.614a5.226 5.226 0 011.696.18c1.114.322 1.733 1.171 2.018 2.268.219.839.221 1.72.008 2.56-.41 1.635-1.704 2.598-3.467 2.593zm2.465-3.728c-.042-.383-.06-.713-.118-1.035-.193-1.046-.905-1.756-1.842-1.858-1.245-.136-2.15.336-2.573 1.399a3.772 3.772 0 00-.014 2.82c.365.946 1.258 1.492 2.273 1.435 1.12-.064 1.818-.605 2.1-1.675.097-.37.123-.757.174-1.086zm10.768 3.727c-2.044-.006-3.451-1.42-3.494-3.51-.013-.675.043-1.34.293-1.97.667-1.686 2.192-2.34 3.962-2.105 1.652.22 2.699 1.381 2.8 3.07.038.626.035 1.28-.1 1.886-.373 1.672-1.685 2.634-3.46 2.629zm2.47-3.732c-.039-.363-.058-.669-.107-.97-.174-1.068-.902-1.813-1.86-1.919-1.24-.136-2.163.353-2.568 1.404a3.87 3.87 0 00-.025 2.794c.35.953 1.272 1.52 2.291 1.457 1.138-.068 1.843-.632 2.107-1.713.087-.36.114-.736.162-1.053zm-15.808 17.17h-1.12v-1.12c-.125.159-.202.248-.27.34-.845 1.2-2.55 1.158-3.403.608-.727-.47-.937-1.175-.88-2.003.058-.827.438-1.493 1.214-1.766.712-.251 1.48-.346 2.23-.494.351-.069.709-.106 1.058-.157.198-1.068-.45-1.86-1.502-1.862-.846 0-1.578.307-2.298.863 0-.398-.009-.741.007-1.083.004-.068.092-.158.162-.191 1.033-.477 2.095-.76 3.236-.453.946.256 1.526.983 1.555 2.102.045 1.725.01 3.45.01 5.216zm-1.15-3.709c-.878.168-1.745.295-2.589.506-.54.137-.783.584-.78 1.179a1.159 1.159 0 00.779 1.123c.626.227 1.227.145 1.763-.25.845-.623.92-1.52.827-2.558zM41.416 17.3c.406 0 .757-.018 1.102.01.091.008.214.145.25.248.667 1.925 1.322 3.853 1.981 5.78.013.028.03.054.047.08.239-.662.474-1.308.705-1.952.474-1.295.951-2.593 1.415-3.894.071-.204.16-.293.38-.278.28.018.562.004.898.004-.088.241-.16.448-.239.65-1.023 2.601-2.028 5.21-3.087 7.799a6.044 6.044 0 01-.99 1.6c-.574.673-1.367.753-2.212.565v-.987c.102.013.188.019.27.036.691.141 1.228-.086 1.555-.724.25-.506.473-1.028.668-1.558.044-.115-.006-.285-.055-.409-.842-2.187-1.688-4.372-2.538-6.556-.044-.117-.084-.232-.15-.414zm13.667 7.268h-.963c-.24 0-.18-.191-.18-.324-.004-1.283 0-2.565-.007-3.848a5.233 5.233 0 00-.095-.91c-.122-.659-.443-1.182-1.13-1.34-.718-.163-1.366.01-1.876.573-.433.476-.609 1.053-.609 1.686-.005 1.249 0 2.498 0 3.748v.394h-1.116v-7.215h1.105v1.055l.067.032c.064-.081.128-.16.19-.242a2.699 2.699 0 011.374-.97 2.679 2.679 0 011.677.034c.963.334 1.37 1.109 1.483 2.05.08.672.068 1.357.073 2.037.015 1.065.007 2.13.007 3.24zm29.648-1.492c.744.542 1.481.784 2.32.65.53-.084.83-.324.919-.762.098-.477-.053-.827-.522-1.106-.338-.201-.698-.366-1.048-.546-.21-.108-.422-.213-.629-.328-.722-.403-1.048-1.022-1.014-1.853.037-.8.45-1.34 1.124-1.692.898-.468 1.825-.418 2.747-.076a.361.361 0 01.182.268c.024.293.008.589.008.89-.337-.124-.65-.3-.981-.345a3.693 3.693 0 00-1.228.03c-.4.084-.651.41-.687.835-.034.413.105.768.479.981.302.172.621.317.932.477.28.144.567.276.838.435.739.43 1.07 1.078.98 1.935-.088.818-.572 1.354-1.302 1.635-.964.373-1.942.327-2.89-.087-.106-.047-.206-.225-.22-.352-.03-.303-.008-.609-.008-.988zM66.613 9.456c.749.536 1.488.779 2.326.642.504-.082.823-.333.906-.737.1-.488-.043-.84-.5-1.117-.338-.205-.695-.37-1.045-.552-.17-.088-.342-.17-.513-.257-.879-.445-1.266-1.165-1.125-2.145.13-.905.728-1.404 1.54-1.666.755-.243 1.51-.18 2.255.076.188.068.266.17.252.375-.018.272-.004.545-.004.77-.479-.125-.946-.28-1.42-.359a1.789 1.789 0 00-.794.085c-.394.122-.648.413-.684.842-.035.413.103.767.479.978.313.177.64.327.96.491.281.144.568.272.838.438.706.422 1.031 1.053.954 1.881-.073.79-.511 1.33-1.21 1.63-.99.424-1.997.38-2.981-.043-.107-.046-.207-.225-.22-.352-.035-.3-.013-.604-.013-.98zm17.25 13.709c0 .346.016.64-.01.93a.368.368 0 01-.19.24c-1.876.924-4.78.378-5.172-2.63-.187-1.432.087-2.762 1.228-3.738 1.183-1.011 2.552-1.072 3.97-.57.086.03.173.19.181.295.025.293.009.589.009.945l-.304-.168c-1.858-1.046-3.904.14-3.957 2.288-.017.692.057 1.362.437 1.958.645 1.015 2.022 1.346 3.214.774.181-.087.355-.192.595-.324zM53.309 4.992c-.203-.102-.355-.188-.515-.26-1.77-.807-3.575.257-3.712 2.21a4.49 4.49 0 00.1 1.382c.385 1.534 1.914 2.227 3.42 1.586.213-.092.416-.21.676-.341 0 .34.021.64-.014.938-.01.095-.156.211-.265.255-1.284.527-2.563.55-3.723-.29-1.16-.84-1.48-2.087-1.373-3.464.096-1.227.563-2.275 1.627-2.947 1.123-.707 2.33-.75 3.562-.306.088.032.203.136.209.218.022.323.008.649.008 1.02zm2.517 5.933h-1.122c-.008-.136-.022-.253-.022-.373 0-2.166.006-4.332-.009-6.498 0-.326.109-.414.406-.387.233.02.468.004.737.004v1.343l.067.017c.06-.122.12-.245.182-.367.436-.848 1.102-1.206 2.044-1.116.217.02.328.09.315.33-.016.281 0 .564 0 .863-.225-.048-.417-.1-.609-.13-.634-.096-1.12.156-1.475.675s-.499 1.11-.502 1.735c-.007 1.168 0 2.336 0 3.504l-.012.4zM45.331 3.672c.314 0 .608-.015.895.01.08.007.214.136.214.204.009 2.312.004 4.626 0 6.94a.401.401 0 01-.032.089h-1.081l.004-7.243zm31.654 13.626v7.269c-.323 0-.636.012-.946-.011-.06-.005-.148-.147-.155-.232-.022-.237-.009-.477-.009-.715 0-1.964.01-3.927-.01-5.891 0-.36.107-.462.439-.424.227.013.454.014.681.004zm-31.82-16.05a.754.754 0 01.465-.687.738.738 0 01.967.415.753.753 0 01.054.288.748.748 0 01-.466.697.734.734 0 01-.29.052c-.43-.006-.735-.324-.73-.764zm32.042 13.619a.751.751 0 01-.443.71.735.735 0 01-.286.062.741.741 0 01-.569-.273.754.754 0 01-.036-.914.751.751 0 01.546-.318.712.712 0 01.733.442.73.73 0 01.055.291z" fill="#141414"/></svg>