<svg width="71" height="19" viewBox="0 0 71 19" fill="none" xmlns="http://www.w3.org/2000/svg"><path d="M6.3 0C4.99 0 3.418 1.288 2.144 3.45.786 5.71 0 8.48 0 10.897c0 3.548 1.941 7.107 6.3 7.107 4.358 0 6.3-3.56 6.3-7.107 0-2.417-.787-5.2-2.144-7.435C9.18 1.288 7.61 0 6.3 0zm34.022 5.297h4.406V17.02h4.728V5.297h4.406V.96h-13.54v4.337zm23.639 0h6.93V.96h-6.93c-6.371 0-9.765 3.231-9.765 8.042 0 4.81 3.405 8.042 9.765 8.042h6.93v-4.349h-6.93c-2.954 0-4.871-1.081-4.871-3.693s1.917-3.705 4.87-3.705zM30.712.972l-2.525 9.597L25.663.972h-8.348v16.085h4.728V3.96l3.441 13.072h5.418l3.442-13.084v13.084h4.728V.972h-8.36z" fill="#141414"/></svg>