<svg width="44" height="32" viewBox="0 0 44 32" fill="none" xmlns="http://www.w3.org/2000/svg"><path fill-rule="evenodd" clip-rule="evenodd" d="M36.956 0c1.398.427 2.774.693 4.032 1.307.789.385 1.454.905 1.878 1.676.41.745.375 1.473-.113 2.175-.386.554-.918.946-1.508 1.274-1.248.695-2.502 1.382-3.677 2.194-.47.324-.936.657-1.285 1.113-.077.103-.138.09-.237.048a33.97 33.97 0 00-3.174-1.15c.024-.133.148-.11.225-.139 2.06-.769 4.112-1.551 6.035-2.62.38-.21.741-.448 1.076-.725.977-.808.382-1.933-.419-2.28-.185-.08-.357-.082-.539.047-4.15 2.936-8.82 4.608-13.864 5.33-6.014.861-11.951.48-17.789-1.193C5.66 6.502 3.79 5.784 2.09 4.697a6.06 6.06 0 01-1.234-1.01c.712.414 1.436.8 2.19 1.132 2.19.965 4.494 1.56 6.863 1.91 6.647.98 13.204.518 19.666-1.25 2.252-.616 4.42-1.452 6.454-2.59.287-.16.568-.33.81-.551.664-.608.764-1.285.304-2.048-.048-.08-.1-.157-.186-.29z" fill="#141414"/><path fill-rule="evenodd" clip-rule="evenodd" d="M.855 18.121c11.362-10.378 30.285-10.6 41.916-.45-.063.046-.099-.014-.134-.04-4.566-3.274-9.66-5.184-15.256-5.774-5.928-.625-11.62.257-17.05 2.713a29.917 29.917 0 00-5.681 3.368.849.849 0 01-.552.188c-1.063-.01-2.125-.005-3.243-.005zm25.299 13.221c-1.086-.227-2.012-.734-2.88-1.342-1.736-1.216-3.028-2.778-3.996-4.582-.117-.217-.237-.305-.506-.297-.81.026-.816.013-.798.787.018.748.041 1.496.078 2.244.01.197-.044.263-.26.254a14.58 14.58 0 00-1.198 0c-.225.01-.265-.068-.255-.26.086-1.697.114-3.395.069-5.095-.016-.555-.043-1.111-.066-1.667-.004-.108-.045-.229.154-.224 1.369.033 2.743-.09 4.107.075.825.1 1.523.434 1.748 1.27.314 1.169-.323 2.204-1.32 2.435-.172.04-.128.111-.074.212.785 1.483 1.732 2.865 2.9 4.11a20.279 20.279 0 002.297 2.08zm-8.145-9.05c.004.302-.046 1.495-.046 1.788 0 .091-.013.189.139.185.601-.018 1.21.06 1.8-.114.614-.18.863-.573.786-1.22-.061-.51-.43-.829-1.038-.854-.474-.02-.95.005-1.424-.003-.18-.004-.219.074-.217.217zm-3.181 2.428c-.013.695-.067 1.346-.26 1.979-.355 1.164-1.124 1.783-2.255 1.937a5.91 5.91 0 01-2.063-.058c-.982-.213-1.634-.831-1.93-1.833-.375-1.273-.377-2.567-.05-3.852.299-1.17 1.03-1.852 2.169-2.038a5.839 5.839 0 012.152.029c1.084.226 1.734.946 2.027 2.051.159.596.2 1.207.21 1.784zm-1.576.045c-.003-.625-.018-1.25-.203-1.852-.178-.58-.53-.976-1.115-1.067-1.38-.215-1.96.305-2.163 1.269a7.595 7.595 0 00.012 3.272c.21.927.728 1.295 1.706 1.283.906-.01 1.415-.428 1.62-1.329.12-.518.143-1.046.143-1.576zM5.81 26.433a38.884 38.884 0 00-.002-4.91c-.019-.295.06-.362.349-.354.748.021.749.007.714.742a61.803 61.803 0 00.025 6.076c.013.254-.052.325-.303.309-.389-.024-.833.1-1.154-.05-.324-.15-.445-.61-.652-.935a121.228 121.228 0 00-2.708-4.11.404.404 0 00-.204-.168c0 .65-.01 1.3.003 1.95.019 1.012.045 2.025.088 3.037.01.233-.055.3-.276.273-.264-.032-.62.116-.77-.064-.126-.151-.03-.491-.02-.748a59.46 59.46 0 00-.024-5.986c-.015-.27.056-.357.32-.322.158.02.326.03.48-.001.559-.113.847.16 1.12.617a77.913 77.913 0 002.764 4.287l.25.357zm37.16-4.129c-.724-.34-1.445-.5-2.197-.48a3.515 3.515 0 00-.618.067c-.633.133-1.087.513-1.277 1.188-.282.998-.33 2.013-.053 3.02.255.923.88 1.424 1.772 1.467.286.014.573.019.86.017.197 0 .292-.088.286-.333-.02-.725-.032-1.45-.139-2.166-.029-.192-.016-.269.19-.261.394.015.79.006 1.186.004.115-.001.183.014.164.176-.125 1.081-.105 2.169-.082 3.255.005.22-.046.295-.259.285-.545-.025-1.083.1-1.626.132-.534.033-1.068.046-1.597-.06-1.15-.228-1.902-.951-2.236-2.151a6.459 6.459 0 01-.044-3.313c.359-1.459 1.263-2.209 2.799-2.35.89-.08 1.779.004 2.666.088.14.013.214.05.21.225-.012.382-.004.765-.004 1.19zM31.155 24.72a49.725 49.725 0 00-.084-3.301c-.011-.206.033-.274.267-.272 1.622.009 3.245.009 4.868 0 .226-.002.285.059.283.267-.006.641.004.642-.678.637-.928-.006-1.857-.007-2.785-.029-.243-.005-.311.06-.309.283.004.44-.012.88-.042 1.32-.014.21.074.244.273.243.939-.004 1.879.004 2.816-.059.253-.017.353.028.344.294-.019.607-.003.611-.65.591a60.623 60.623 0 00-2.497-.032c-.209.002-.302.038-.292.262.032.76.049 1.52.055 2.281.001.214.082.262.298.257 1.131-.024 2.263-.026 3.394-.055.26-.006.319.067.314.298-.012.61 0 .61-.648.61-1.569 0-3.138-.005-4.707.006-.256.002-.32-.063-.307-.3.058-1.1.099-2.2.087-3.3zm-4.715 2.236c.364-1.087.733-2.171 1.09-3.26.247-.749.482-1.501.71-2.256.054-.177.124-.268.338-.251.26.02.524.013.785.002.195-.008.229.038.158.217-.358.901-.705 1.807-1.049 2.713-.497 1.309-.976 2.623-1.384 3.96-.058.19-.15.246-.35.237-.365-.015-.733-.02-1.099.002-.244.014-.34-.077-.415-.289-.737-2.101-1.495-4.196-2.327-6.265-.23-.572-.229-.58.419-.57.384.005.865-.148 1.125.06.244.196.26.648.371.989l1.546 4.72.081-.01z" fill="#141414"/></svg>