<svg width="54" height="28" viewBox="0 0 54 28" fill="none" xmlns="http://www.w3.org/2000/svg"><path fill-rule="evenodd" clip-rule="evenodd" d="M0 27.382h27.04L53.486.64H0v26.742z" fill="#e4002b"/><path fill-rule="evenodd" clip-rule="evenodd" d="M31.747 5.66h-5.27v12.645L21.885 5.66h-4.56l-3.916 10.593c-.419-2.673-3.142-3.585-5.302-4.27-1.418-.456-2.916-1.14-2.9-1.89.016-.62.805-1.19 2.384-1.092 1.048.049 1.982.146 3.852 1.043l1.837-3.227c-1.708-.864-4.045-1.418-5.963-1.418h-.016c-2.24 0-4.109.733-5.27 1.94a4.518 4.518 0 00-1.256 3.096c-.032 1.63.564 2.787 1.805 3.715 1.047.783 2.385 1.288 3.578 1.663 1.466.456 2.658.847 2.642 1.711 0 .31-.129.602-.338.831-.371.375-.92.522-1.692.537-1.5.033-2.595-.21-4.367-1.254L.775 20.896c1.756 1.01 3.835 1.614 5.962 1.614h.274c1.837-.033 3.336-.571 4.529-1.533.064-.048.128-.113.193-.162l-.532 1.418h4.786l.806-2.461a9.111 9.111 0 005.543.016l.773 2.445h7.8v-5.134H32.6c4.11 0 6.543-2.119 6.543-5.672 0-3.943-2.369-5.768-7.396-5.768zM19.58 16.495a4.67 4.67 0 01-1.692-.31l1.676-5.328h.032l1.644 5.345a4.51 4.51 0 01-1.66.293zm12.473-3.063h-1.16V9.146h1.16c1.547 0 2.772.522 2.772 2.119.017 1.662-1.225 2.168-2.772 2.168z" fill="#fff"/><path d="M33.55 25.639c0-.815.612-1.435 1.402-1.435.773 0 1.385.62 1.385 1.435 0 .847-.612 1.466-1.386 1.466-.789 0-1.401-.619-1.401-1.466zm1.402 1.743c.934 0 1.724-.733 1.724-1.743 0-.994-.806-1.728-1.724-1.728-.95 0-1.741.733-1.741 1.727 0 1.01.79 1.744 1.74 1.744zm-.371-1.597h.338l.532.864h.338l-.564-.88c.29-.033.516-.195.516-.555 0-.39-.225-.57-.693-.57h-.741v2.005h.29v-.864h-.016zm0-.26v-.62h.403c.21 0 .418.05.418.293 0 .31-.225.326-.467.326h-.354z" fill="#e4002b"/></svg>