<svg width="117" height="29" viewBox="0 0 117 29" fill="none" xmlns="http://www.w3.org/2000/svg"><path d="M15.135 28.902c7.981 0 14.451-6.47 14.451-14.45C29.586 6.47 23.116 0 15.135 0 7.154 0 .684 6.47.684 14.451c0 7.981 6.47 14.451 14.45 14.451z" fill="#e4002b"/><path d="M21.453 5.347c-1.468.052-2.75.86-3.703 1.98-1.057 1.227-1.76 2.684-2.266 4.17-.905-.743-1.604-1.704-3.057-2.123-1.123-.322-2.302-.19-3.387.619-.514.384-.868.964-1.036 1.509-.437 1.418.457 2.68.864 3.133l.888.95c.183.187.624.674.409 1.372-.233.759-1.148 1.25-2.086.96-.419-.129-1.021-.44-.886-.879.056-.18.184-.316.254-.47.063-.133.093-.233.112-.292.171-.56-.063-1.288-.662-1.473-.56-.17-1.131-.035-1.353.684-.252.82.14 2.303 2.236 2.95 2.457.755 4.535-.584 4.83-2.328.186-1.092-.309-1.904-1.212-2.949l-.736-.814c-.447-.446-.6-1.205-.138-1.789.39-.492.944-.702 1.854-.456 1.326.36 1.918 1.28 2.904 2.023-.407 1.336-.674 2.677-.914 3.88l-.148.897c-.706 3.699-1.244 5.73-2.643 6.896-.282.201-.685.5-1.292.522-.319.01-.421-.21-.426-.305-.008-.223.181-.326.306-.426.187-.103.47-.272.45-.813-.02-.641-.55-1.196-1.316-1.17-.575.02-1.45.56-1.417 1.55.034 1.021.986 1.788 2.422 1.738.768-.025 2.483-.338 4.172-2.346 1.966-2.302 2.516-4.942 2.93-6.873l.461-2.55c.257.03.531.051.83.058 2.448.053 3.673-1.216 3.692-2.139.012-.558-.366-1.108-.897-1.095-.379.01-.855.263-.97.787-.111.515.78.979.083 1.43-.494.321-1.381.547-2.63.363l.227-1.255c.463-2.38 1.036-5.309 3.204-5.38.159-.007.737.008.75.39.004.128-.027.16-.177.453-.152.228-.21.422-.203.645.022.607.483 1.007 1.152.983.894-.03 1.152-.9 1.137-1.347-.037-1.053-1.146-1.717-2.612-1.67z" fill="#fff"/><path d="M88.31 10.385c3.332 0 5.566 2.408 5.566 5.739 0 3.139-2.278 5.738-5.567 5.738-3.309 0-5.586-2.6-5.586-5.738 0-3.33 2.233-5.739 5.586-5.739zm0 9.846c2.364 0 3.416-2.15 3.416-4.107 0-2.084-1.268-4.104-3.417-4.104-2.17 0-3.439 2.02-3.439 4.104 0 1.957 1.054 4.107 3.44 4.107zm-5.868-8.825v-.763h-2.903V9.601c0-1.483.216-2.602 1.955-2.602.032 0 .066.003.1.005.003 0 .002-.006.006-.006.483.035.886-.358.913-.84l.035-.663a8.248 8.248 0 00-1.354-.128c-2.988 0-3.675 1.74-3.675 4.406v.87h-2.582v.851a.916.916 0 00.906.782l.007.002h1.67v9.327h1.115a.92.92 0 00.904-.793v-8.534h2.02a.916.916 0 00.883-.872zm-26.905-.763c-.003 0-.005.003-.01.003-.426 0-.838.292-1.018.688l-2.78 8.38h-.043l-2.718-8.376c-.179-.398-.593-.693-1.02-.693l-.012-.002h-1.409l3.719 10.23c.13.367.388.926.388 1.161 0 .216-.602 2.708-2.409 2.708-.044 0-.09-.005-.133-.008-.46-.026-.809.296-.886.792l-.055.7c.366.064.732.15 1.377.15 2.664 0 3.46-2.43 4.213-4.535l4.04-11.199h-1.244v.001zM42.691 12.87c-1.667-.854-3.493-1.434-3.525-3.151.005-1.824 1.681-2.303 2.972-2.302h.015c.56 0 1.009.055 1.447.151.006 0 .005-.007.011-.007.464.034.852-.328.907-.784l.036-.663a10.696 10.696 0 00-2.501-.317c-2.808.017-4.894 1.43-4.9 4.127.002 2.358 1.591 3.272 3.301 4.1 1.676.806 3.512 1.47 3.528 3.417-.01 2.03-1.969 2.778-3.32 2.781-.789-.003-1.646-.2-2.369-.427-.452-.075-.824.325-.883.853l-.06.59c.992.321 2.01.602 3.034.602h.012c3.146-.024 5.591-1.278 5.601-4.536-.004-2.513-1.604-3.57-3.306-4.434zm30.557 8.735h.002c.436 0 .8-.307.891-.715v-6.313c0-2.386-1.008-4.192-3.804-4.192-.988 0-2.643.56-3.395 2.129-.58-1.484-1.848-2.13-3.115-2.13-1.613 0-2.71.581-3.483 1.85h-.043v-.682a.916.916 0 00-.915-.907l-.01-.002h-.966v10.962h1.096a.917.917 0 00.916-.917c0-.014.005-.02.01-.028v-4.58c0-2.04.816-4.06 2.878-4.06 1.633 0 1.958 1.697 1.958 3.051v6.533h1.111a.913.913 0 00.907-.835V16.08c0-2.042.818-4.062 2.88-4.062 1.634 0 1.957 1.698 1.957 3.052v6.533h1.124v.001zm31.223 0h.003a.915.915 0 00.912-.876v-5.636c0-2.944-1.269-4.708-4.106-4.708-1.526 0-2.986.753-3.59 2h-.042v-.819s-.002 0-.002-.003a.917.917 0 00-.916-.918l-.01-.002h-1.029v10.962h1.113c.48 0 .87-.375.907-.846v-4.227c0-2.665 1.033-4.513 3.333-4.513 1.764.107 2.32 1.353 2.32 3.911v5.674h1.107v.001zm10.872-10.962c-.005 0-.007.003-.011.003-.426 0-.839.292-1.019.688l-2.778 8.38h-.045l-2.719-8.376c-.179-.398-.592-.693-1.02-.693l-.01-.002h-1.409l3.719 10.23c.129.367.389.926.389 1.161 0 .216-.603 2.708-2.41 2.708-.044 0-.088-.005-.134-.008-.46-.026-.807.296-.886.792l-.054.7c.365.064.732.15 1.377.15 2.665 0 3.459-2.43 4.213-4.535l4.041-11.199h-1.244v.001z" fill="#e4002b"/></svg>