<svg width="103" height="14" viewBox="0 0 103 14" fill="none" xmlns="http://www.w3.org/2000/svg"><path d="M10.922.6v7.626c0 3.588-2.293 5.383-5.283 5.383-3.041 0-5.284-1.794-5.284-5.383V.6h2.642v7.476c0 2.243 1.096 3.04 2.642 3.04 1.545 0 2.641-.847 2.641-3.04V.6h2.642zm13.257 0v12.81h-3.04l-5.333-8.573v8.572h-2.642V.601h2.99l5.433 8.621V.6h2.592zm41.416 0v12.81h-3.04l-5.333-8.573v8.572h-2.641V.601h2.99l5.333 8.622V.6h2.691zM26.87.6h2.642v12.81H26.87V.6zm15.151 9.071c0 2.99-2.691 3.988-4.884 3.988-3.738 0-5.283-2.144-5.582-4.337h2.642c.348 1.246 1.096 1.895 2.94 1.895 1.495 0 2.243-.549 2.243-1.446 0-.947-.897-1.097-3.14-1.595-2.293-.498-4.336-1.246-4.336-3.738 0-2.691 2.392-4.037 4.834-4.037 3.44 0 4.885 1.844 5.184 3.987H39.28c-.299-.897-.897-1.545-2.492-1.545-1.545 0-2.193.648-2.193 1.495 0 .748.648.947 2.343 1.296 3.339.698 5.083 1.445 5.083 4.038zm4.386-6.579v2.592h5.084v2.492h-5.084v2.741h5.981v2.492h-8.622V.601h8.622v2.491h-5.98zM79.5 7.03c0 3.638-2.84 6.43-6.528 6.43h-4.636V.6h4.636C76.659.6 79.5 3.342 79.5 7.03zm-2.641 0c0-2.293-1.645-3.937-3.938-3.937h-1.993v7.824h1.993c2.293.05 3.938-1.595 3.938-3.887zm6.828-3.938v2.592h5.083v2.492h-5.083v2.741h5.98v2.492h-8.622V.601h8.623v2.491h-5.981zm12.16 5.732h-1.445v4.635h-2.641V.6h5.532c2.741 0 4.385 1.645 4.385 4.187 0 2.093-1.096 3.388-2.89 3.837l3.588 4.835h-3.24l-3.288-4.635zm-1.445-2.293h2.591c1.396 0 1.994-.647 1.994-1.694s-.648-1.744-1.993-1.744h-2.592V6.53z" fill="#141414"/></svg>