<svg width="36" height="36" viewBox="0 0 36 36" fill="none" xmlns="http://www.w3.org/2000/svg"><path d="M18 33.879c-8.679 0-15.814-7.2-15.814-15.879 0-1.8.321-3.536.9-5.207l9.257 18c.128.257.257.45.578.45.322 0 .45-.193.579-.45l4.307-9.579c.064-.128.129-.193.193-.193.129 0 .129.129.193.193l4.371 9.579c.129.257.257.45.579.45.321 0 .45-.193.578-.45l9.258-18c.578 1.607.9 3.343.9 5.207-.065 8.679-7.2 15.879-15.879 15.879zm0-19.993c-.129 0-.129-.129-.193-.193L12.857 3.02A15.19 15.19 0 0118 2.12c1.8 0 3.536.322 5.143.9l-4.95 10.672c-.064.064-.064.193-.193.193zm-5.207 11.571c-.129 0-.129-.128-.193-.193L4.5 9.707c1.414-2.314 3.471-4.243 5.85-5.593l5.721 12.343c.129.257.258.322.45.322h2.958c.192 0 .321-.065.45-.322l5.657-12.343c2.378 1.35 4.435 3.279 5.85 5.593L23.4 25.264c-.064.129-.129.193-.193.193-.128 0-.128-.128-.193-.193L19.93 18.45c-.129-.257-.258-.321-.45-.321h-2.96c-.192 0-.321.064-.45.321l-3.085 6.814c-.065.065-.065.193-.193.193zM18 36c9.964 0 18-8.036 18-18S27.964 0 18 0 0 8.036 0 18s8.036 18 18 18z" fill="#141414"/></svg>