<svg width="119" height="23" viewBox="0 0 119 23" fill="none" xmlns="http://www.w3.org/2000/svg"><path d="M26.933 16.671h-.959V5.721h-5.609v1.07c0 3.335-.12 7.217-1.223 9.88H18.4v3.973h1.679v-2.38h5.177v2.38h1.679V16.67h-.001zm8.127.747l-.431-1.493c-.48.348-1.319.846-2.375.846-1.486 0-2.252-1.493-2.252-4.33h5.034v-1.07c0-4.255-1.319-5.823-3.332-5.823-2.565 0-3.644 2.936-3.644 6.968 0 3.858 1.535 5.923 4.027 5.923 1.199 0 2.205-.398 2.972-1.02v-.001zM15.474 5.721v5.326h-2.78V5.721h-1.87v12.543h1.87V12.64h2.78v5.624h1.846V5.721h-1.845zm26.538 12.543h2.038l-3.428-6.645 2.996-5.898h-1.895l-2.9 5.799v-5.8h-1.87v12.543h1.87v-6.246l3.189 6.246zm6.424.175c1.104 0 1.87-.374 2.518-.946l-.431-1.443a2.991 2.991 0 01-2.038.77c-1.51 0-2.23-1.791-2.23-4.927 0-3.16.96-4.728 2.302-4.728.766 0 1.485.423 1.988.871l.265-1.842c-.528-.348-1.15-.647-2.23-.647-2.828 0-4.29 2.514-4.29 6.445 0 4.281 1.557 6.446 4.146 6.446zM24.13 16.672h-3.213c1.007-2.664 1.127-6.52 1.127-9.159V7.29h2.086v9.383zm7.573-9.532c1.078 0 1.414 1.568 1.414 3.708h-3.093c.121-2.24.528-3.708 1.679-3.708zm-24.95 4.305v6.82h1.845V.47H5.842C3.132.47.855 2.337.855 6.07c0 2.663 1.007 4.106 2.518 4.902L.16 18.264h2.133l2.925-6.819h1.535zm0-1.593H5.77c-1.606 0-2.925-.92-2.925-3.782 0-2.962 1.438-3.982 2.925-3.982h.983v7.764z" fill="#e4002b"/><path fill-rule="evenodd" clip-rule="evenodd" d="M60.18 6.293a31.49 31.49 0 01-.574-2.537h-.072c.047.845.072 1.741.072 2.637v12.465H58.55V1.068h1.39l2.9 11.37c.12.473.287 1.394.359 2.066h.072c.096-.672.288-1.618.407-2.065l2.924-11.37h1.343v17.79h-1.151V6.392c0-.846.048-1.741.096-2.637h-.096a63.87 63.87 0 01-.575 2.463l-2.564 9.902h-.935l-2.54-9.828zm10.778 6.493h5.466c.384-4.455-.958-6.72-3.044-6.72-2.037 0-3.524 2.414-3.524 6.521 0 4.106 1.175 6.52 3.74 6.52 1.917 0 2.828-1.418 2.828-1.418l-.36-.947s-.839 1.345-2.444 1.345c-1.75 0-2.613-1.867-2.662-5.301zm2.422-5.75c1.223 0 2.181 1.494 1.99 4.829h-4.388c.097-3.136 1.128-4.828 2.398-4.828zm10.943.25v-.97h-6.716v.97h2.806v11.572h1.127V7.286h2.782zm16.568 11.572h1.079V6.315h-.983l-3.93 8.81c-.24.547-.48 1.095-.648 1.668h-.071c.047-.548.096-1.095.096-1.767V6.314h-1.056v12.544h.96l3.931-8.835c.256-.52.472-1.061.646-1.617h.073a17.89 17.89 0 00-.097 1.717v8.735zm4.885-6.495l4.194 6.495h1.247l-4.267-6.72 3.979-5.823h-1.103l-4.05 5.898V6.315h-1.127v12.543h1.127v-6.495zm-14.481 4.349c.463-.954.695-2.427.695-4.419 0-1.658-.2-2.945-.6-3.857-.4-.913-.951-1.37-1.654-1.37-.272 0-.53.071-.779.212a2.94 2.94 0 00-.695.56 4.353 4.353 0 00-.587.809 6.95 6.95 0 00-.457.958v7.02c.24.515.536.896.888 1.145.351.249.799.373 1.342.373.768 0 1.383-.477 1.847-1.431zm-3.177 2.041a2.654 2.654 0 01-.9-.784v4.754h-1.126V6.295h.983l.096 2.066a5.83 5.83 0 011.08-1.605c.446-.474 1.006-.71 1.677-.71.495 0 .943.149 1.343.447.4.3.735.719 1.007 1.258.272.54.479 1.186.623 1.942.144.755.216 1.588.216 2.502 0 2.306-.344 4.027-1.031 5.165-.688 1.136-1.59 1.704-2.71 1.704-.437.006-.87-.1-1.258-.311zm29.676.105h1.031c-.144-.472-.264-1.444-.264-2.314V9.7c0-2.49-1.127-3.634-3.116-3.634-1.367 0-2.373.623-2.853 1.27l.312 1.12a3.007 3.007 0 012.541-1.37c1.318 0 2.013.822 2.013 2.738v1.568h-1.318c-2.613 0-4.027 1.394-4.027 4.082 0 2.29 1.127 3.633 2.756 3.633 1.199 0 2.062-.747 2.637-1.941.073.896.192 1.369.287 1.692h.001zm-2.685-.697c-1.15 0-1.894-1.02-1.894-2.787 0-2.19.959-3.136 2.95-3.136h1.293v3.46c-.431 1.344-1.223 2.463-2.349 2.463z" fill="#e4002b"/></svg>