<svg width="56" height="31" viewBox="0 0 56 31" fill="none" xmlns="http://www.w3.org/2000/svg"><path fill-rule="evenodd" clip-rule="evenodd" d="M19.358 8.486C17.891 4.449 22.11.138 25.551 0c2.064 1.055 3.853 3.807 3.76 7.568-.274 4.633-3.623 8.624-7.246 12.293-.23-4.495-1.193-7.339-2.707-11.375zm36.279 13.118V8.302a.411.411 0 00-.413-.413h-1.926a.411.411 0 00-.413.413v13.256c0 .23.184.459.413.459h1.926a.41.41 0 00.413-.413zm-10.137.367V7.981c-1.1.046-2.752.734-2.752 2.202v9.586c-.596.092-1.513.184-2.018.184-1.789 0-2.247-1.284-2.247-2.982v-6.88c-.092-1.651-2.019-2.156-2.753-2.11v8.99c0 3.257 1.652 5.23 5 5.23.505 0 1.56-.138 2.018-.23v.183c.413 2.753-2.89 1.698-4.724 1.514-1.33 0-2.248 1.101-2.477 2.34.78.229 3.302.55 5.091.733 3.165-.046 4.862-1.788 4.862-4.77zm5.046-.367V8.302a.411.411 0 00-.413-.413h-1.926a.411.411 0 00-.413.413v13.256c0 .23.183.459.413.459h1.926a.41.41 0 00.413-.413zM49.17 4.128c.78 0 1.422.642 1.422 1.422a1.43 1.43 0 01-1.422 1.422 1.43 1.43 0 01-1.422-1.422c-.046-.78.596-1.422 1.422-1.422zm5.091 0c.78 0 1.422.642 1.422 1.422a1.43 1.43 0 01-1.422 1.422A1.43 1.43 0 0152.84 5.55c0-.78.642-1.422 1.422-1.422zM11.194 30.41c-.596-4.494 1.285-8.347 3.165-10.686 4.037-5.046 3.807-8.073 3.395-10.642 2.11 3.302 3.44 7.293 3.76 10.825.139 2.844-1.971 9.54-10.32 10.504z" fill="#141414"/><path fill-rule="evenodd" clip-rule="evenodd" d="M8.303 13.256C2.203 11.605.69 6.33.964 2.798c5.917-2.34 12.339.046 16.008 5.091 2.569 3.532 4.22 8.027 4.541 11.972-1.789-2.293-4.036-3.623-6.88-4.633-1.926-.733-3.761-1.192-6.33-1.972z" fill="#141414"/><path fill-rule="evenodd" clip-rule="evenodd" d="M17.75 9.036c.045.046.09.138.137.184l.046.091c.091.138.183.321.275.459v.046l.046.046v.046l.046.091.091.138c.046.092.138.23.184.367l.091.138.092.137v.046l.046.092.046.091.046.092c.046.092.092.184.137.321v.046l.276.55.046.138.045.092.046.092.046.045.046.092.046.092.046.138.091.183c.092.184.138.367.23.55l.046.138.046.092a.662.662 0 01.091.32v.047c.046.091.092.23.138.32v.047a.85.85 0 01.092.32v.047l.046.183.045.184.046.183.046.138v.046l.046.091c.046.092.046.184.092.321v.092l.046.138.137.55c.046.23.092.505.138.734v.046c.092.367.137.78.183 1.147 0 .137.046.229.046.367v.779c-1.33-1.697-2.89-2.843-4.77-3.76 1.789-2.936 1.605-5.092 1.284-6.973z" fill="#141414"/></svg>