<svg width="1556" height="789" viewBox="0 0 1556 789" fill="none" xmlns="http://www.w3.org/2000/svg"><rect x="914.5" y="303.5" width="151" height="95" rx="7.5" stroke="#C5CDCF" stroke-width="5"/><g clip-path="url(#clip0)" filter="url(#filter0_d)" stroke="#7C267B"><path d="M949 363.5c5.889 3.126 9.278 3.21 15.5 0m.5-21.5c3.377 3.034 4.49 5.199 5 10" stroke-width="3" stroke-linecap="round"/><path d="M957 343.421a3.21 3.21 0 100-6.421 3.21 3.21 0 000 6.421zm-11.789 17.684a3.21 3.21 0 100-6.42 3.21 3.21 0 000 6.42zm23.578 0a3.21 3.21 0 10.002-6.42 3.21 3.21 0 00-.002 6.42z" stroke-width="2"/><path d="M949.5 341c-4.327 3.091-5.865 5.423-6.5 11" stroke-width="3" stroke-linecap="round"/></g><path d="M996.992 354.16l1.128 2.208c-.528.56-1.288 1.016-2.28 1.368a9.055 9.055 0 01-3.096.528c-2.576 0-4.664-.792-6.264-2.376-1.6-1.584-2.4-3.68-2.4-6.288 0-2.512.76-4.584 2.28-6.216 1.52-1.632 3.624-2.448 6.312-2.448 2.16 0 3.864.568 5.112 1.704l-1.32 2.184c-1.136-.752-2.4-1.128-3.792-1.128-1.584 0-2.896.536-3.936 1.608-1.024 1.072-1.536 2.504-1.536 4.296 0 1.744.536 3.168 1.608 4.272 1.088 1.088 2.488 1.632 4.2 1.632 1.488 0 2.816-.448 3.984-1.344zm8.218 3.84h-2.96v-16.8c.36 0 1.26-.008 2.72-.024 1.47-.016 2.27-.024 2.4-.024 4.06 0 6.09 1.728 6.09 5.184 0 1.296-.33 2.352-.98 3.168-.66.8-1.41 1.344-2.26 1.632l5.26 6.864h-3.58l-4.63-6.288h-2.06V358zm2.01-14.088c-.29 0-.96.016-2.01.048v4.992h1.92c.91 0 1.67-.224 2.28-.672.62-.464.93-1.104.93-1.92 0-1.632-1.04-2.448-3.12-2.448zM1019.25 358v-16.8h2.98l5.73 7.848 5.48-7.848h2.78V358h-2.93v-12.144l-5.3 7.464h-.43l-5.36-7.392V358h-2.95z" fill="#141414"/><path d="M215 351h80m5 13l11.586-11.586a2 2 0 000-2.828L300 338m798 13h80m5 13l11.59-11.586c.78-.781.78-2.047 0-2.828L1183 338M549 474v80m-13 5l11.586 11.586a2 2 0 002.828 0L562 559" stroke="#C5CDCF" stroke-width="3" stroke-linecap="round"/><rect x="2.5" y="303.5" width="180" height="95" rx="7.5" stroke="#C5CDCF" stroke-width="5"/><path d="M70.24 343.96v-2.76h13.848v2.76H78.64V358h-2.952v-14.04H70.24zm13.91 18.84v-15.6h2.76v1.032c.352-.368.824-.672 1.416-.912a4.898 4.898 0 011.92-.384c1.472 0 2.656.512 3.552 1.536.896 1.024 1.344 2.344 1.344 3.96 0 1.68-.528 3.072-1.584 4.176s-2.432 1.656-4.128 1.656c-1.072 0-1.912-.176-2.52-.528v5.064h-2.76zm5.232-13.272c-.944 0-1.768.392-2.472 1.176v4.368c.64.416 1.4.624 2.28.624.928 0 1.664-.296 2.208-.888.544-.608.816-1.376.816-2.304 0-.88-.248-1.592-.744-2.136-.496-.56-1.192-.84-2.088-.84zm10.19.456l-.695-2.016a7.386 7.386 0 013.816-1.032c1.536 0 2.64.376 3.312 1.128.672.752 1.008 1.872 1.008 3.36V358h-2.4v-1.248c-.656.928-1.72 1.392-3.192 1.392-1.008 0-1.824-.296-2.448-.888-.624-.592-.936-1.4-.936-2.424 0-1.136.368-2 1.104-2.592.736-.608 1.68-.912 2.832-.912.992 0 1.808.232 2.448.696.032-.944-.104-1.64-.408-2.088-.304-.464-.84-.696-1.608-.696-.8 0-1.744.248-2.832.744zm2.761 5.832c.928 0 1.624-.328 2.088-.984v-1.104c-.464-.352-1.096-.528-1.896-.528-.496 0-.912.12-1.248.36-.32.224-.48.552-.48.984 0 .4.144.712.432.936.288.224.656.336 1.104.336zm14.037 6.984v-4.536h-.144c-1.84 0-3.28-.528-4.32-1.584-1.024-1.056-1.536-2.416-1.536-4.08 0-1.552.52-2.88 1.56-3.984 1.056-1.12 2.48-1.68 4.272-1.68h.168V341.2h2.76v5.736h.192c1.808 0 3.224.536 4.248 1.608 1.04 1.056 1.56 2.408 1.56 4.056 0 1.68-.496 3.048-1.488 4.104-.992 1.04-2.432 1.56-4.32 1.56h-.192v4.536h-2.76zm2.952-13.272h-.192v6.168h.096c.96 0 1.688-.28 2.184-.84.512-.56.768-1.312.768-2.256 0-.864-.248-1.592-.744-2.184-.48-.592-1.184-.888-2.112-.888zm-6 3.072c0 .928.256 1.68.768 2.256.512.56 1.248.84 2.208.84h.072v-6.168h-.192c-.96 0-1.68.288-2.16.864-.464.576-.696 1.312-.696 2.208zm18.157 5.4h-2.76v-10.8h2.76v6.84l5.04-6.84h2.76V358h-2.76v-6.84l-5.04 6.84zm22.304-10.8l-4.152 5.136 4.656 5.664h-3.6l-4.272-5.448 3.888-5.352h3.48zM143.559 358v-10.8h2.76V358h-2.76z" fill="#141414"/><g clip-path="url(#clip1)" filter="url(#filter1_d)"><path d="M39.44 339.441l11.496 23.901m-12.031-25.015c-5.47 12.71-1.838 22.773 11.362 24.704m-17.94-5.936c10.39-2.603 17.257-5.479 25.346-12.19" stroke="#7C267B" stroke-width="2"/><path d="M38.905 338.327c13.605 3.669 19.171 13.617 11.784 24.501" stroke="#7C267B" stroke-width="2" stroke-linecap="round"/><path d="M58.518 344.498c3.59 7.466.45 16.429-7.016 20.02-7.466 3.591-16.429.449-20.02-7.016-3.59-7.466-.45-16.429 7.017-20.02 7.465-3.59 16.428-.449 20.019 7.016zM33.51 356.526c3.052 6.346 10.67 9.016 17.016 5.964 6.346-3.052 9.016-10.671 5.964-17.016-3.052-6.346-10.67-9.016-17.016-5.964-6.346 3.052-9.016 10.671-5.964 17.016z" fill="#7C267B"/></g><path d="M211.04 302h-1.36v-11.2c.203 0 .677-.005 1.424-.016.757-.011 1.259-.016 1.504-.016 1.472 0 2.528.331 3.168.992.651.651.976 1.477.976 2.48 0 .981-.352 1.813-1.056 2.496-.693.683-1.685 1.024-2.976 1.024-.619 0-1.179-.021-1.68-.064V302zm1.696-9.952c-.427 0-.992.011-1.696.032v4.32c.608.053 1.152.08 1.632.08.821 0 1.467-.197 1.936-.592.469-.405.704-.96.704-1.664 0-.683-.213-1.216-.64-1.6-.427-.384-1.072-.576-1.936-.576zm6.475 4.272l-.336-1.024c.704-.437 1.504-.656 2.4-.656.992 0 1.701.245 2.128.736.427.491.64 1.227.64 2.208V302h-1.216v-.928c-.555.693-1.323 1.04-2.304 1.04-.661 0-1.195-.197-1.6-.592-.405-.405-.608-.949-.608-1.632 0-.715.251-1.275.752-1.68.512-.405 1.168-.608 1.968-.608.768 0 1.365.155 1.792.464 0-.768-.107-1.339-.32-1.712-.213-.373-.651-.56-1.312-.56-.651 0-1.312.176-1.984.528zm1.76 4.64c.715 0 1.333-.309 1.856-.928v-.912c-.448-.32-.987-.48-1.616-.48-.427 0-.789.101-1.088.304-.299.203-.448.496-.448.88 0 .352.112.629.336.832.235.203.555.304.96.304zm11.551-.928l.608.928a2.952 2.952 0 01-1.184.896 4.097 4.097 0 01-1.584.304c-1.152 0-2.085-.341-2.8-1.024-.704-.693-1.056-1.605-1.056-2.736 0-1.056.347-1.947 1.04-2.672.694-.725 1.563-1.088 2.608-1.088 1.259 0 2.203.315 2.832.944l-.592 1.008c-.544-.501-1.232-.752-2.064-.752-.672 0-1.253.245-1.744.736-.48.48-.72 1.088-.72 1.824 0 .768.246 1.387.736 1.856.502.469 1.12.704 1.856.704.832 0 1.52-.309 2.064-.928zm8.277 1.968v-6h-3.92v6h-1.28v-7.2h6.48v7.2h-1.28zm4.397 3.2v-10.4h1.28v.848c.256-.299.602-.539 1.04-.72a3.537 3.537 0 011.408-.288c1.013 0 1.818.341 2.416 1.024.608.672.912 1.547.912 2.624 0 1.109-.347 2.032-1.04 2.768-.694.736-1.595 1.104-2.704 1.104-.854 0-1.531-.165-2.032-.496v3.536h-1.28zm3.36-9.36c-.854 0-1.547.331-2.08.992v3.568c.554.373 1.194.56 1.92.56.757 0 1.36-.245 1.808-.736.458-.491.688-1.12.688-1.888 0-.747-.208-1.349-.624-1.808-.416-.459-.987-.688-1.712-.688zm12.01 4.368l.4 1.008c-.693.629-1.594.944-2.704.944-1.162 0-2.096-.341-2.8-1.024-.704-.683-1.056-1.595-1.056-2.736 0-1.088.331-1.984.992-2.688.662-.715 1.568-1.072 2.72-1.072.95 0 1.744.309 2.384.928.64.608.96 1.397.96 2.368 0 .331-.026.619-.08.864h-5.536c.054.672.304 1.2.752 1.584.459.384 1.046.576 1.76.576.939 0 1.675-.251 2.208-.752zm-2.512-4.368c-.64 0-1.162.181-1.568.544-.405.352-.645.811-.72 1.376h4.368c-.032-.597-.234-1.067-.608-1.408-.362-.341-.853-.512-1.472-.512zm4.672 7.92v-2.96h.896c.256-.32.485-.848.688-1.584.213-.736.352-1.573.416-2.512l.112-1.904h4.912v6h1.2v2.96h-1.2V302h-5.824v1.76h-1.2zm3.232-6.56a11.58 11.58 0 01-.4 2.24c-.192.651-.384 1.104-.576 1.36h3.488V296h-2.432l-.08 1.2zm12.865 3.008l.4 1.008c-.694.629-1.595.944-2.704.944-1.163 0-2.096-.341-2.8-1.024-.704-.683-1.056-1.595-1.056-2.736 0-1.088.33-1.984.992-2.688.661-.715 1.568-1.072 2.72-1.072.949 0 1.744.309 2.384.928.64.608.96 1.397.96 2.368 0 .331-.027.619-.08.864h-5.536c.053.672.304 1.2.752 1.584.458.384 1.045.576 1.76.576.938 0 1.674-.251 2.208-.752zm-2.512-4.368c-.64 0-1.163.181-1.568.544-.406.352-.646.811-.72 1.376h4.368c-.032-.597-.235-1.067-.608-1.408-.363-.341-.854-.512-1.472-.512zm10.591 6.16v-5.92h-2.528l-.08 1.216c-.064.8-.16 1.493-.288 2.08-.128.576-.277 1.04-.448 1.392a2.41 2.41 0 01-.592.816 2.007 2.007 0 01-.72.416 3.372 3.372 0 01-.848.096l-.096-1.248a.845.845 0 00.368-.048c.128-.053.267-.16.416-.32.16-.16.299-.373.416-.64.128-.267.24-.64.336-1.12.107-.491.176-1.051.208-1.68l.128-2.24h5.008v7.2h-1.28zm10.067-1.792l.4 1.008c-.693.629-1.594.944-2.704.944-1.162 0-2.096-.341-2.8-1.024-.704-.683-1.056-1.595-1.056-2.736 0-1.088.331-1.984.992-2.688.662-.715 1.568-1.072 2.72-1.072.95 0 1.744.309 2.384.928.64.608.96 1.397.96 2.368 0 .331-.026.619-.08.864h-5.536c.054.672.304 1.2.752 1.584.459.384 1.046.576 1.76.576.939 0 1.675-.251 2.208-.752zm-2.512-4.368c-.64 0-1.162.181-1.568.544-.405.352-.645.811-.72 1.376h4.368c-.032-.597-.234-1.067-.608-1.408-.362-.341-.853-.512-1.472-.512zm11.225 6.16v-3.04h-4V302h-1.28v-7.2h1.28v2.96h4v-2.96h1.28v7.2h-1.28zm5.675 0h-1.28v-7.2h1.28v5.36l4.16-5.36h1.28v7.2h-1.28v-5.36l-4.16 5.36zm14.247-1.792l.4 1.008c-.693.629-1.595.944-2.704.944-1.163 0-2.096-.341-2.8-1.024-.704-.683-1.056-1.595-1.056-2.736 0-1.088.331-1.984.992-2.688.661-.715 1.568-1.072 2.72-1.072.949 0 1.744.309 2.384.928.64.608.96 1.397.96 2.368 0 .331-.027.619-.08.864h-5.536c.053.672.304 1.2.752 1.584.459.384 1.045.576 1.76.576.939 0 1.675-.251 2.208-.752zm-2.512-4.368c-.64 0-1.163.181-1.568.544-.405.352-.645.811-.72 1.376h4.368c-.032-.597-.235-1.067-.608-1.408-.363-.341-.853-.512-1.472-.512zM214.352 320v-6h-3.92v6h-1.28v-7.2h6.48v7.2h-1.28zm4.973-.896c-.704-.715-1.056-1.616-1.056-2.704s.352-1.984 1.056-2.688c.715-.715 1.643-1.072 2.784-1.072 1.141 0 2.064.357 2.768 1.072.715.704 1.072 1.6 1.072 2.688s-.357 1.989-1.072 2.704c-.704.704-1.627 1.056-2.768 1.056-1.141 0-2.069-.352-2.784-1.056zm.304-2.704c0 .747.229 1.36.688 1.84.469.48 1.067.72 1.792.72.725 0 1.317-.235 1.776-.704.469-.48.704-1.099.704-1.856 0-.747-.235-1.36-.704-1.84-.459-.48-1.051-.72-1.776-.72-.715 0-1.307.24-1.776.72-.469.469-.704 1.083-.704 1.84zm19.664-3.6l-3.152 3.44 3.456 3.76h-1.776l-3.248-3.68 3.041-3.52h1.679zm-6.304 7.2v-7.2h1.28v7.2h-1.28zm9.153-5.68l-.336-1.024c.704-.437 1.504-.656 2.4-.656.992 0 1.702.245 2.128.736.427.491.64 1.227.64 2.208V320h-1.216v-.928c-.554.693-1.322 1.04-2.304 1.04-.661 0-1.194-.197-1.6-.592-.405-.405-.608-.949-.608-1.632 0-.715.251-1.275.752-1.68.512-.405 1.168-.608 1.968-.608.768 0 1.366.155 1.792.464 0-.768-.106-1.339-.32-1.712-.213-.373-.65-.56-1.312-.56-.65 0-1.312.176-1.984.528zm1.76 4.64c.715 0 1.334-.309 1.856-.928v-.912c-.448-.32-.986-.48-1.616-.48-.426 0-.789.101-1.088.304-.298.203-.448.496-.448.88 0 .352.112.629.336.832.235.203.555.304.96.304zm11.296 1.04v-3.04h-4V320h-1.28v-7.2h1.28v2.96h4v-2.96h1.28v7.2h-1.28zm4.779-5.68l-.336-1.024c.704-.437 1.504-.656 2.4-.656.992 0 1.701.245 2.128.736.426.491.64 1.227.64 2.208V320h-1.216v-.928c-.555.693-1.323 1.04-2.304 1.04-.662 0-1.195-.197-1.6-.592-.406-.405-.608-.949-.608-1.632 0-.715.25-1.275.752-1.68.512-.405 1.168-.608 1.968-.608.768 0 1.365.155 1.792.464 0-.768-.107-1.339-.32-1.712-.214-.373-.651-.56-1.312-.56-.651 0-1.312.176-1.984.528zm1.76 4.64c.714 0 1.333-.309 1.856-.928v-.912c-.448-.32-.987-.48-1.616-.48-.427 0-.79.101-1.088.304-.299.203-.448.496-.448.88 0 .352.112.629.336.832.234.203.554.304.96.304zM272.68 320v-5.92h-2.528l-.08 1.216c-.064.8-.16 1.493-.288 2.08-.128.576-.277 1.04-.448 1.392a2.41 2.41 0 01-.592.816 2.007 2.007 0 01-.72.416 3.372 3.372 0 01-.848.096l-.096-1.248a.845.845 0 00.368-.048c.128-.053.267-.16.416-.32.16-.16.299-.373.416-.64.128-.267.24-.64.336-1.12.107-.491.176-1.051.208-1.68l.128-2.24h5.008v7.2h-1.28zm4.772-5.68l-.336-1.024c.704-.437 1.504-.656 2.4-.656.992 0 1.701.245 2.128.736.426.491.64 1.227.64 2.208V320h-1.216v-.928c-.555.693-1.323 1.04-2.304 1.04-.662 0-1.195-.197-1.6-.592-.406-.405-.608-.949-.608-1.632 0-.715.25-1.275.752-1.68.512-.405 1.168-.608 1.968-.608.768 0 1.365.155 1.792.464 0-.768-.107-1.339-.32-1.712-.214-.373-.651-.56-1.312-.56-.651 0-1.312.176-1.984.528zm1.76 4.64c.714 0 1.333-.309 1.856-.928v-.912c-.448-.32-.987-.48-1.616-.48-.427 0-.79.101-1.088.304-.299.203-.448.496-.448.88 0 .352.112.629.336.832.234.203.554.304.96.304zm6.015 1.04v-7.2h1.168l2.768 3.568 2.624-3.568h1.136v7.2h-1.28v-5.248l-2.496 3.344h-.048l-2.592-3.344V320h-1.28z" fill="#141414"/><path d="M528 130v80m-13 5l11.586 11.586a2 2 0 002.828 0L541 215m-39 13v-80m13-5l-11.586-11.586a2 2 0 00-2.828 0L489 143" stroke="#C5CDCF" stroke-width="3" stroke-linecap="round"/><path d="M415.8 178.4c0-1.632.539-2.997 1.616-4.096 1.077-1.109 2.443-1.664 4.096-1.664 1.643 0 3.003.539 4.08 1.616 1.088 1.077 1.632 2.459 1.632 4.144 0 1.653-.544 3.029-1.632 4.128-1.088 1.088-2.448 1.632-4.08 1.632-1.643 0-3.008-.539-4.096-1.616-1.077-1.077-1.616-2.459-1.616-4.144zm1.44 0c0 1.269.411 2.336 1.232 3.2.821.853 1.835 1.28 3.04 1.28 1.259 0 2.283-.427 3.072-1.28.8-.853 1.2-1.92 1.2-3.2 0-1.291-.411-2.357-1.232-3.2-.821-.853-1.835-1.28-3.04-1.28-1.227 0-2.245.421-3.056 1.264-.811.843-1.216 1.915-1.216 3.216zm18.139 3.632l.608.928a2.966 2.966 0 01-1.184.896 4.104 4.104 0 01-1.584.304c-1.152 0-2.086-.341-2.8-1.024-.704-.693-1.056-1.605-1.056-2.736 0-1.056.346-1.947 1.04-2.672.693-.725 1.562-1.088 2.608-1.088 1.258 0 2.202.315 2.832.944l-.592 1.008c-.544-.501-1.232-.752-2.064-.752-.672 0-1.254.245-1.744.736-.48.48-.72 1.088-.72 1.824 0 .768.245 1.387.736 1.856.501.469 1.12.704 1.856.704.832 0 1.52-.309 2.064-.928zm2.07-3.952v-1.28h6.56v1.28h-2.64V184h-1.28v-5.92h-2.64zm9.143.24l-.336-1.024c.704-.437 1.504-.656 2.4-.656.992 0 1.702.245 2.128.736.427.491.64 1.227.64 2.208V184h-1.216v-.928c-.554.693-1.322 1.04-2.304 1.04-.661 0-1.194-.197-1.6-.592-.405-.405-.608-.949-.608-1.632 0-.715.251-1.275.752-1.68.512-.405 1.168-.608 1.968-.608.768 0 1.366.155 1.792.464 0-.768-.106-1.339-.32-1.712-.213-.373-.65-.56-1.312-.56-.65 0-1.312.176-1.984.528zm1.76 4.64c.715 0 1.334-.309 1.856-.928v-.912c-.448-.32-.986-.48-1.616-.48-.426 0-.789.101-1.088.304-.298.203-.448.496-.448.88 0 .352.112.629.336.832.235.203.555.304.96.304zm5.104-4.88v-1.28h6.56v1.28h-2.64V184h-1.28v-5.92h-2.64zm15.063-1.28l-3.152 3.44 3.456 3.76h-1.776l-3.248-3.68 3.04-3.52h1.68zm-6.304 7.2v-7.2h1.28v7.2h-1.28zm10.048 0h-1.28v-7.2h1.28v5.36l4.16-5.36h1.28v7.2h-1.28v-5.36l-4.16 5.36zm78.897-18.92v-1.28h9.2v1.28h-3.92V175h-1.36v-9.92h-3.92zm9.774 9.024c-.704-.715-1.056-1.616-1.056-2.704s.352-1.984 1.056-2.688c.715-.715 1.643-1.072 2.784-1.072 1.142 0 2.064.357 2.768 1.072.715.704 1.072 1.6 1.072 2.688s-.357 1.989-1.072 2.704c-.704.704-1.626 1.056-2.768 1.056-1.141 0-2.069-.352-2.784-1.056zm.304-2.704c0 .747.23 1.36.688 1.84.47.48 1.067.72 1.792.72.726 0 1.318-.235 1.776-.704.47-.48.704-1.099.704-1.856 0-.747-.234-1.36-.704-1.84-.458-.48-1.05-.72-1.776-.72-.714 0-1.306.24-1.776.72-.469.469-.704 1.083-.704 1.84zm8.967 6.8v-10.4h1.28v.848c.256-.299.603-.539 1.04-.72a3.537 3.537 0 011.408-.288c1.013 0 1.819.341 2.416 1.024.608.672.912 1.547.912 2.624 0 1.109-.347 2.032-1.04 2.768-.693.736-1.595 1.104-2.704 1.104-.853 0-1.531-.165-2.032-.496v3.536h-1.28zm3.36-9.36c-.853 0-1.547.331-2.08.992v3.568c.555.373 1.195.56 1.92.56.757 0 1.36-.245 1.808-.736.459-.491.688-1.12.688-1.888 0-.747-.208-1.349-.624-1.808-.416-.459-.987-.688-1.712-.688zm6.331 6.16v-7.2h4.56v1.2h-3.28v6h-1.28zm6.938-.896c-.704-.715-1.056-1.616-1.056-2.704s.352-1.984 1.056-2.688c.715-.715 1.643-1.072 2.784-1.072 1.142 0 2.064.357 2.768 1.072.715.704 1.072 1.6 1.072 2.688s-.357 1.989-1.072 2.704c-.704.704-1.626 1.056-2.768 1.056-1.141 0-2.069-.352-2.784-1.056zm.304-2.704c0 .747.23 1.36.688 1.84.47.48 1.067.72 1.792.72.726 0 1.318-.235 1.776-.704.47-.48.704-1.099.704-1.856 0-.747-.234-1.36-.704-1.84-.458-.48-1.05-.72-1.776-.72-.714 0-1.306.24-1.776.72-.469.469-.704 1.083-.704 1.84zm8.967 3.6v-7.2c.171 0 .549-.011 1.136-.032a43.635 43.635 0 011.472-.032c2.069 0 3.104.619 3.104 1.856 0 .427-.133.795-.4 1.104-.267.299-.613.48-1.04.544v.032c1.12.203 1.68.768 1.68 1.696 0 1.397-1.104 2.096-3.312 2.096-.32 0-.789-.011-1.408-.032a46.49 46.49 0 00-1.232-.032zm2.816-3.232h-1.536v2.208c.768.032 1.259.048 1.472.048 1.227 0 1.84-.384 1.84-1.152 0-.736-.592-1.104-1.776-1.104zm-.112-2.992c-.309 0-.784.016-1.424.048v2.144h1.616c.437 0 .789-.101 1.056-.304a.972.972 0 00.4-.816c0-.715-.549-1.072-1.648-1.072zm6.002 6.224v-7.2h1.28v2.16h1.184c1.024 0 1.755.235 2.192.704.438.459.656 1.051.656 1.776 0 .725-.24 1.333-.72 1.824-.469.491-1.226.736-2.272.736h-2.32zm6.688 0v-7.2h1.28v7.2h-1.28zm-4.464-3.84h-.944v2.64h.928c.619 0 1.062-.107 1.328-.32.278-.224.416-.555.416-.992 0-.885-.576-1.328-1.728-1.328zm10.122 3.84h-1.28v-7.2h1.28v5.36l4.16-5.36h1.28v7.2h-1.28v-5.36l-4.16 5.36zm-.256-10.88h1.2c.064.843.475 1.264 1.232 1.264.715 0 1.104-.421 1.168-1.264h1.2c0 .64-.219 1.173-.656 1.6-.437.427-1.008.64-1.712.64-.768 0-1.365-.208-1.792-.624-.427-.416-.64-.955-.64-1.616zm-58.445 21.68l-3.152 3.44 3.456 3.76h-1.776l-3.248-3.68 3.04-3.52h1.68zm-6.304 7.2v-7.2h1.28v7.2h-1.28zm9.153-5.68l-.336-1.024c.704-.437 1.504-.656 2.4-.656.992 0 1.701.245 2.128.736.426.491.64 1.227.64 2.208V193h-1.216v-.928c-.555.693-1.323 1.04-2.304 1.04-.662 0-1.195-.197-1.6-.592-.406-.405-.608-.949-.608-1.632 0-.715.25-1.275.752-1.68.512-.405 1.168-.608 1.968-.608.768 0 1.365.155 1.792.464 0-.768-.107-1.339-.32-1.712-.214-.373-.651-.56-1.312-.56-.651 0-1.312.176-1.984.528zm1.76 4.64c.714 0 1.333-.309 1.856-.928v-.912c-.448-.32-.987-.48-1.616-.48-.427 0-.79.101-1.088.304-.299.203-.448.496-.448.88 0 .352.112.629.336.832.234.203.554.304.96.304zm5.103-4.88v-1.28h6.56v1.28h-2.64V193h-1.28v-5.92h-2.64zm9.143.24l-.336-1.024c.704-.437 1.504-.656 2.4-.656.992 0 1.701.245 2.128.736.427.491.64 1.227.64 2.208V193h-1.216v-.928c-.555.693-1.323 1.04-2.304 1.04-.661 0-1.195-.197-1.6-.592-.405-.405-.608-.949-.608-1.632 0-.715.251-1.275.752-1.68.512-.405 1.168-.608 1.968-.608.768 0 1.365.155 1.792.464 0-.768-.107-1.339-.32-1.712-.213-.373-.651-.56-1.312-.56-.651 0-1.312.176-1.984.528zm1.76 4.64c.715 0 1.333-.309 1.856-.928v-.912c-.448-.32-.987-.48-1.616-.48-.427 0-.789.101-1.088.304-.299.203-.448.496-.448.88 0 .352.112.629.336.832.235.203.555.304.96.304zm10.943 1.04v-5.92h-2.528l-.08 1.216c-.064.8-.16 1.493-.288 2.08-.128.576-.277 1.04-.448 1.392a2.41 2.41 0 01-.592.816 1.99 1.99 0 01-.72.416 3.372 3.372 0 01-.848.096l-.096-1.248a.845.845 0 00.368-.048c.128-.053.267-.16.416-.32.16-.16.299-.373.416-.64.128-.267.24-.64.336-1.12.107-.491.176-1.051.208-1.68l.128-2.24h5.008v7.2h-1.28zm4.964-.896c-.704-.715-1.056-1.616-1.056-2.704s.352-1.984 1.056-2.688c.715-.715 1.643-1.072 2.784-1.072 1.141 0 2.064.357 2.768 1.072.715.704 1.072 1.6 1.072 2.688s-.357 1.989-1.072 2.704c-.704.704-1.627 1.056-2.768 1.056-1.141 0-2.069-.352-2.784-1.056zm.304-2.704c0 .747.229 1.36.688 1.84.469.48 1.067.72 1.792.72.725 0 1.317-.235 1.776-.704.469-.48.704-1.099.704-1.856 0-.747-.235-1.36-.704-1.84-.459-.48-1.051-.72-1.776-.72-.715 0-1.307.24-1.776.72-.469.469-.704 1.083-.704 1.84zm8.967 3.6v-7.2h4.56v1.2h-3.28v6h-1.28zm189.327 96v-9.92h-4.064l-.192 2.112c-.128 1.387-.293 2.576-.496 3.568-.203.981-.421 1.755-.656 2.32-.235.565-.512 1.003-.832 1.312-.309.309-.613.501-.912.576-.299.075-.64.085-1.024.032l.016-1.36c.203.021.384.005.544-.048.16-.053.352-.219.576-.496.235-.288.437-.688.608-1.2.181-.512.357-1.269.528-2.272.171-1.003.304-2.197.4-3.584l.16-2.24h6.704V289h-1.36zm6.265 0h-1.28v-7.2h1.28v5.36l4.16-5.36h1.28v7.2h-1.28v-5.36l-4.16 5.36zm7.575 1.76v-2.96h.896c.256-.32.486-.848.688-1.584.214-.736.352-1.573.416-2.512l.112-1.904h4.912v6h1.2v2.96h-1.2V289h-5.824v1.76h-1.2zm3.232-6.56a11.505 11.505 0 01-.4 2.24c-.192.651-.384 1.104-.576 1.36h3.488V283h-2.432l-.08 1.2zm7.761 3.904c-.704-.715-1.056-1.616-1.056-2.704s.352-1.984 1.056-2.688c.715-.715 1.643-1.072 2.784-1.072 1.142 0 2.064.357 2.768 1.072.715.704 1.072 1.6 1.072 2.688s-.357 1.989-1.072 2.704c-.704.704-1.626 1.056-2.768 1.056-1.141 0-2.069-.352-2.784-1.056zm.304-2.704c0 .747.23 1.36.688 1.84.47.48 1.067.72 1.792.72.726 0 1.318-.235 1.776-.704.47-.48.704-1.099.704-1.856 0-.747-.234-1.36-.704-1.84-.458-.48-1.05-.72-1.776-.72-.714 0-1.306.24-1.776.72-.469.469-.704 1.083-.704 1.84zm9.203-.16v-1.2h3.824v1.2h-3.824zM786.152 307v-7.2h4.56v1.2h-3.28v6h-1.28zm12.043-1.792l.4 1.008c-.694.629-1.595.944-2.704.944-1.163 0-2.096-.341-2.8-1.024-.704-.683-1.056-1.595-1.056-2.736 0-1.088.33-1.984.992-2.688.661-.715 1.568-1.072 2.72-1.072.949 0 1.744.309 2.384.928.64.608.96 1.397.96 2.368 0 .331-.027.619-.08.864h-5.536c.053.672.304 1.2.752 1.584.458.384 1.045.576 1.76.576.938 0 1.674-.251 2.208-.752zm-2.512-4.368c-.64 0-1.163.181-1.568.544-.406.352-.646.811-.72 1.376h4.368c-.032-.597-.235-1.067-.608-1.408-.363-.341-.854-.512-1.472-.512zm11.224 6.16v-3.04h-4V307h-1.28v-7.2h1.28v2.96h4v-2.96h1.28v7.2h-1.28zm10.075-1.792l.4 1.008c-.693.629-1.595.944-2.704.944-1.163 0-2.096-.341-2.8-1.024-.704-.683-1.056-1.595-1.056-2.736 0-1.088.331-1.984.992-2.688.661-.715 1.568-1.072 2.72-1.072.949 0 1.744.309 2.384.928.64.608.96 1.397.96 2.368 0 .331-.027.619-.08.864h-5.536c.053.672.304 1.2.752 1.584.459.384 1.045.576 1.76.576.939 0 1.675-.251 2.208-.752zm-2.512-4.368c-.64 0-1.163.181-1.568.544-.405.352-.645.811-.72 1.376h4.368c-.032-.597-.235-1.067-.608-1.408-.363-.341-.853-.512-1.472-.512zm5.945 9.36v-10.4h1.28v.848c.256-.299.602-.539 1.04-.72a3.537 3.537 0 011.408-.288c1.013 0 1.818.341 2.416 1.024.608.672.912 1.547.912 2.624 0 1.109-.347 2.032-1.04 2.768-.694.736-1.595 1.104-2.704 1.104-.854 0-1.531-.165-2.032-.496v3.536h-1.28zm3.36-9.36c-.854 0-1.547.331-2.08.992v3.568c.554.373 1.194.56 1.92.56.757 0 1.36-.245 1.808-.736.458-.491.688-1.12.688-1.888 0-.747-.208-1.349-.624-1.808-.416-.459-.987-.688-1.712-.688zm6.714.48l-.336-1.024c.704-.437 1.504-.656 2.4-.656.992 0 1.701.245 2.128.736.427.491.64 1.227.64 2.208V307h-1.216v-.928c-.555.693-1.323 1.04-2.304 1.04-.661 0-1.195-.197-1.6-.592-.405-.405-.608-.949-.608-1.632 0-.715.251-1.275.752-1.68.512-.405 1.168-.608 1.968-.608.768 0 1.365.155 1.792.464 0-.768-.107-1.339-.32-1.712-.213-.373-.651-.56-1.312-.56-.651 0-1.312.176-1.984.528zm1.76 4.64c.715 0 1.333-.309 1.856-.928v-.912c-.448-.32-.987-.48-1.616-.48-.427 0-.789.101-1.088.304-.299.203-.448.496-.448.88 0 .352.112.629.336.832.235.203.555.304.96.304zm6.015 1.04v-7.2h1.28v6h3.84v-6h1.28v6h1.201v2.96h-1.201V307h-6.4zm11.065 0h-1.28v-7.2h1.28v5.36l4.16-5.36h1.28v7.2h-1.28v-5.36l-4.16 5.36zm11.719-7.2h2.24v7.2h-1.28v-2.4h-1.392l-1.76 2.4h-1.552l2.08-2.72c-.416-.096-.779-.325-1.088-.688-.31-.373-.464-.837-.464-1.392 0-.693.256-1.264.768-1.712.512-.459 1.328-.688 2.448-.688zm-1.856 2.432c0 .352.138.635.416.848.277.213.586.32.928.32h1.472V301h-1.168c-.566 0-.982.117-1.248.352-.267.224-.4.517-.4.88zM890.16 187.08v-1.28h9.2v1.28h-3.92V197h-1.36v-9.92h-3.92zm9.774 9.024c-.704-.715-1.056-1.616-1.056-2.704s.352-1.984 1.056-2.688c.715-.715 1.643-1.072 2.784-1.072 1.142 0 2.064.357 2.768 1.072.715.704 1.072 1.6 1.072 2.688s-.357 1.989-1.072 2.704c-.704.704-1.626 1.056-2.768 1.056-1.141 0-2.069-.352-2.784-1.056zm.304-2.704c0 .747.23 1.36.688 1.84.47.48 1.067.72 1.792.72.726 0 1.318-.235 1.776-.704.47-.48.704-1.099.704-1.856 0-.747-.234-1.36-.704-1.84-.458-.48-1.05-.72-1.776-.72-.714 0-1.306.24-1.776.72-.469.469-.704 1.083-.704 1.84zm8.967 6.8v-10.4h1.28v.848c.256-.299.603-.539 1.04-.72a3.537 3.537 0 011.408-.288c1.013 0 1.819.341 2.416 1.024.608.672.912 1.547.912 2.624 0 1.109-.347 2.032-1.04 2.768-.693.736-1.595 1.104-2.704 1.104-.853 0-1.531-.165-2.032-.496v3.536h-1.28zm3.36-9.36c-.853 0-1.547.331-2.08.992v3.568c.555.373 1.195.56 1.92.56.757 0 1.36-.245 1.808-.736.459-.491.688-1.12.688-1.888 0-.747-.208-1.349-.624-1.808-.416-.459-.987-.688-1.712-.688zm6.331 6.16v-7.2h4.56v1.2h-3.28v6h-1.28zm6.938-.896c-.704-.715-1.056-1.616-1.056-2.704s.352-1.984 1.056-2.688c.715-.715 1.643-1.072 2.784-1.072 1.142 0 2.064.357 2.768 1.072.715.704 1.072 1.6 1.072 2.688s-.357 1.989-1.072 2.704c-.704.704-1.626 1.056-2.768 1.056-1.141 0-2.069-.352-2.784-1.056zm.304-2.704c0 .747.23 1.36.688 1.84.47.48 1.067.72 1.792.72.726 0 1.318-.235 1.776-.704.47-.48.704-1.099.704-1.856 0-.747-.234-1.36-.704-1.84-.458-.48-1.05-.72-1.776-.72-.714 0-1.306.24-1.776.72-.469.469-.704 1.083-.704 1.84zm8.967 3.6v-7.2c.171 0 .549-.011 1.136-.032a43.635 43.635 0 011.472-.032c2.069 0 3.104.619 3.104 1.856 0 .427-.133.795-.4 1.104-.267.299-.613.48-1.04.544v.032c1.12.203 1.68.768 1.68 1.696 0 1.397-1.104 2.096-3.312 2.096-.32 0-.789-.011-1.408-.032a46.49 46.49 0 00-1.232-.032zm2.816-3.232h-1.536v2.208c.768.032 1.259.048 1.472.048 1.227 0 1.84-.384 1.84-1.152 0-.736-.592-1.104-1.776-1.104zm-.112-2.992c-.309 0-.784.016-1.424.048v2.144h1.616c.437 0 .789-.101 1.056-.304a.972.972 0 00.4-.816c0-.715-.549-1.072-1.648-1.072zm6.002 6.224v-7.2h1.28v2.16h1.184c1.024 0 1.755.235 2.192.704.438.459.656 1.051.656 1.776 0 .725-.24 1.333-.72 1.824-.469.491-1.226.736-2.272.736h-2.32zm6.688 0v-7.2h1.28v7.2h-1.28zm-4.464-3.84h-.944v2.64h.928c.619 0 1.062-.107 1.328-.32.278-.224.416-.555.416-.992 0-.885-.576-1.328-1.728-1.328zm10.122 3.84h-1.28v-7.2h1.28v5.36l4.16-5.36h1.28v7.2h-1.28v-5.36l-4.16 5.36zm-.256-10.88h1.2c.064.843.475 1.264 1.232 1.264.715 0 1.104-.421 1.168-1.264h1.2c0 .64-.219 1.173-.656 1.6-.437.427-1.008.64-1.712.64-.768 0-1.365-.208-1.792-.624-.427-.416-.64-.955-.64-1.616zm-58.445 21.68l-3.152 3.44 3.456 3.76h-1.776l-3.248-3.68 3.04-3.52h1.68zm-6.304 7.2v-7.2h1.28v7.2h-1.28zm9.153-5.68l-.336-1.024c.704-.437 1.504-.656 2.4-.656.992 0 1.701.245 2.128.736.426.491.64 1.227.64 2.208V215h-1.216v-.928c-.555.693-1.323 1.04-2.304 1.04-.662 0-1.195-.197-1.6-.592-.406-.405-.608-.949-.608-1.632 0-.715.25-1.275.752-1.68.512-.405 1.168-.608 1.968-.608.768 0 1.365.155 1.792.464 0-.768-.107-1.339-.32-1.712-.214-.373-.651-.56-1.312-.56-.651 0-1.312.176-1.984.528zm1.76 4.64c.714 0 1.333-.309 1.856-.928v-.912c-.448-.32-.987-.48-1.616-.48-.427 0-.79.101-1.088.304-.299.203-.448.496-.448.88 0 .352.112.629.336.832.234.203.554.304.96.304zm5.103-4.88v-1.28h6.56v1.28h-2.64V215h-1.28v-5.92h-2.64zm9.143.24l-.336-1.024c.704-.437 1.504-.656 2.4-.656.992 0 1.701.245 2.128.736.427.491.64 1.227.64 2.208V215h-1.216v-.928c-.555.693-1.323 1.04-2.304 1.04-.661 0-1.195-.197-1.6-.592-.405-.405-.608-.949-.608-1.632 0-.715.251-1.275.752-1.68.512-.405 1.168-.608 1.968-.608.768 0 1.365.155 1.792.464 0-.768-.107-1.339-.32-1.712-.213-.373-.651-.56-1.312-.56-.651 0-1.312.176-1.984.528zm1.76 4.64c.715 0 1.333-.309 1.856-.928v-.912c-.448-.32-.987-.48-1.616-.48-.427 0-.789.101-1.088.304-.299.203-.448.496-.448.88 0 .352.112.629.336.832.235.203.555.304.96.304zm10.943 1.04v-5.92h-2.528l-.08 1.216c-.064.8-.16 1.493-.288 2.08-.128.576-.277 1.04-.448 1.392a2.41 2.41 0 01-.592.816 1.99 1.99 0 01-.72.416 3.372 3.372 0 01-.848.096l-.096-1.248a.845.845 0 00.368-.048c.128-.053.267-.16.416-.32.16-.16.299-.373.416-.64.128-.267.24-.64.336-1.12.107-.491.176-1.051.208-1.68l.128-2.24h5.008v7.2h-1.28zm4.964-.896c-.704-.715-1.056-1.616-1.056-2.704s.352-1.984 1.056-2.688c.715-.715 1.643-1.072 2.784-1.072 1.141 0 2.064.357 2.768 1.072.715.704 1.072 1.6 1.072 2.688s-.357 1.989-1.072 2.704c-.704.704-1.627 1.056-2.768 1.056-1.141 0-2.069-.352-2.784-1.056zm.304-2.704c0 .747.229 1.36.688 1.84.469.48 1.067.72 1.792.72.725 0 1.317-.235 1.776-.704.469-.48.704-1.099.704-1.856 0-.747-.235-1.36-.704-1.84-.459-.48-1.051-.72-1.776-.72-.715 0-1.307.24-1.776.72-.469.469-.704 1.083-.704 1.84zm8.967 3.6v-7.2h4.56v1.2h-3.28v6h-1.28z" fill="#141414"/><path d="M990 130v123m-13 5l11.586 11.586a2 2 0 002.828 0L1003 258" stroke="#C5CDCF" stroke-width="3" stroke-linecap="round"/><path d="M454.304 519.16c-.811 0-1.547-.171-2.208-.512-.651-.341-1.136-.757-1.456-1.248l.752-.912c.352.416.795.752 1.328 1.008s1.035.384 1.504.384c.757 0 1.371-.187 1.84-.56.469-.384.704-.912.704-1.584 0-.555-.192-.997-.576-1.328-.384-.331-.923-.496-1.616-.496h-1.296v-1.28h1.2c.491 0 .923-.176 1.296-.528.373-.363.56-.816.56-1.36 0-.587-.192-1.035-.576-1.344-.373-.32-.859-.48-1.456-.48-.992 0-1.84.416-2.544 1.248l-.8-.896c.384-.501.88-.896 1.488-1.184a4.535 4.535 0 012-.448c.981 0 1.765.261 2.352.784.597.523.896 1.253.896 2.192 0 .501-.139.987-.416 1.456a2.87 2.87 0 01-1.2 1.104v.048c.661.128 1.168.432 1.52.912.352.48.528 1.056.528 1.728 0 1.003-.373 1.803-1.12 2.4-.736.597-1.637.896-2.704.896zm7.282-5.84l-.336-1.024c.704-.437 1.504-.656 2.4-.656.992 0 1.701.245 2.128.736.427.491.64 1.227.64 2.208V519h-1.216v-.928c-.555.693-1.323 1.04-2.304 1.04-.661 0-1.195-.197-1.6-.592-.405-.405-.608-.949-.608-1.632 0-.715.251-1.275.752-1.68.512-.405 1.168-.608 1.968-.608.768 0 1.365.155 1.792.464 0-.768-.107-1.339-.32-1.712-.213-.373-.651-.56-1.312-.56-.651 0-1.312.176-1.984.528zm1.76 4.64c.715 0 1.333-.309 1.856-.928v-.912c-.448-.32-.987-.48-1.616-.48-.427 0-.789.101-1.088.304-.299.203-.448.496-.448.88 0 .352.112.629.336.832.235.203.555.304.96.304zm12.319-6.16l-3.152 3.44 3.456 3.76h-1.776l-3.248-3.68 3.04-3.52h1.68zm-6.304 7.2v-7.2h1.28v7.2h-1.28zm9.153-5.68l-.336-1.024c.704-.437 1.504-.656 2.4-.656.992 0 1.701.245 2.128.736.427.491.64 1.227.64 2.208V519h-1.216v-.928c-.555.693-1.323 1.04-2.304 1.04-.661 0-1.195-.197-1.6-.592-.405-.405-.608-.949-.608-1.632 0-.715.251-1.275.752-1.68.512-.405 1.168-.608 1.968-.608.768 0 1.365.155 1.792.464 0-.768-.107-1.339-.32-1.712-.213-.373-.651-.56-1.312-.56-.651 0-1.312.176-1.984.528zm1.76 4.64c.715 0 1.333-.309 1.856-.928v-.912c-.448-.32-.987-.48-1.616-.48-.427 0-.789.101-1.088.304-.299.203-.448.496-.448.88 0 .352.112.629.336.832.235.203.555.304.96.304zm8.4 1.2a5.948 5.948 0 01-1.728-.272c-.598-.192-1.014-.427-1.248-.704l.656-.96c.288.235.629.427 1.024.576.405.139.773.208 1.104.208.554 0 1.008-.107 1.36-.32.352-.224.528-.512.528-.864a.765.765 0 00-.384-.688c-.246-.16-.587-.24-1.024-.24h-1.216v-1.04h1.136c.362 0 .661-.096.896-.288a.941.941 0 00.352-.736.853.853 0 00-.416-.752c-.278-.192-.651-.288-1.12-.288-.768 0-1.488.267-2.16.8l-.496-.992c.288-.299.688-.533 1.2-.704a5.263 5.263 0 011.648-.256c.864 0 1.53.176 2 .528.469.341.704.811.704 1.408 0 .832-.422 1.397-1.264 1.696v.032c.48.053.848.24 1.104.56.266.32.4.699.4 1.136 0 .661-.283 1.189-.848 1.584-.566.384-1.302.576-2.208.576zm5.806-.16v-7.2h1.28v2.16h1.184c1.024 0 1.755.235 2.192.704.437.459.656 1.051.656 1.776 0 .725-.24 1.333-.72 1.824-.469.491-1.227.736-2.272.736h-2.32zm6.688 0v-7.2h1.28v7.2h-1.28zm-4.464-3.84h-.944v2.64h.928c.619 0 1.061-.107 1.328-.32.277-.224.416-.555.416-.992 0-.885-.576-1.328-1.728-1.328zM456.432 537v-3.04h-4V537h-1.28v-7.2h1.28v2.96h4v-2.96h1.28v7.2h-1.28zm4.779-5.68l-.336-1.024c.704-.437 1.504-.656 2.4-.656.992 0 1.701.245 2.128.736.427.491.64 1.227.64 2.208V537h-1.216v-.928c-.555.693-1.323 1.04-2.304 1.04-.661 0-1.195-.197-1.6-.592-.405-.405-.608-.949-.608-1.632 0-.715.251-1.275.752-1.68.512-.405 1.168-.608 1.968-.608.768 0 1.365.155 1.792.464 0-.768-.107-1.339-.32-1.712-.213-.373-.651-.56-1.312-.56-.651 0-1.312.176-1.984.528zm1.76 4.64c.715 0 1.333-.309 1.856-.928v-.912c-.448-.32-.987-.48-1.616-.48-.427 0-.789.101-1.088.304-.299.203-.448.496-.448.88 0 .352.112.629.336.832.235.203.555.304.96.304zm10.985.144c-.704-.715-1.056-1.616-1.056-2.704s.352-1.984 1.056-2.688c.715-.715 1.643-1.072 2.784-1.072 1.141 0 2.064.357 2.768 1.072.715.704 1.072 1.6 1.072 2.688s-.357 1.989-1.072 2.704c-.704.704-1.627 1.056-2.768 1.056-1.141 0-2.069-.352-2.784-1.056zm.304-2.704c0 .747.229 1.36.688 1.84.469.48 1.067.72 1.792.72.725 0 1.317-.235 1.776-.704.469-.48.704-1.099.704-1.856 0-.747-.235-1.36-.704-1.84-.459-.48-1.051-.72-1.776-.72-.715 0-1.307.24-1.776.72-.469.469-.704 1.083-.704 1.84zm14.167 3.6v-6h-3.92v6h-1.28v-7.2h6.48v7.2h-1.28zm9.325 0v-5.92h-2.528l-.08 1.216c-.064.8-.16 1.493-.288 2.08-.128.576-.277 1.04-.448 1.392a2.41 2.41 0 01-.592.816 2.007 2.007 0 01-.72.416 3.372 3.372 0 01-.848.096l-.096-1.248a.845.845 0 00.368-.048c.128-.053.267-.16.416-.32.16-.16.299-.373.416-.64.128-.267.24-.64.336-1.12.107-.491.176-1.051.208-1.68l.128-2.24h5.008v7.2h-1.28zm4.771-5.68l-.336-1.024c.704-.437 1.504-.656 2.4-.656.992 0 1.702.245 2.128.736.427.491.64 1.227.64 2.208V537h-1.216v-.928c-.554.693-1.322 1.04-2.304 1.04-.661 0-1.194-.197-1.6-.592-.405-.405-.608-.949-.608-1.632 0-.715.251-1.275.752-1.68.512-.405 1.168-.608 1.968-.608.768 0 1.366.155 1.792.464 0-.768-.106-1.339-.32-1.712-.213-.373-.65-.56-1.312-.56-.65 0-1.312.176-1.984.528zm1.76 4.64c.715 0 1.334-.309 1.856-.928v-.912c-.448-.32-.986-.48-1.616-.48-.426 0-.789.101-1.088.304-.298.203-.448.496-.448.88 0 .352.112.629.336.832.235.203.555.304.96.304zm5.104-4.88v-1.28h6.56v1.28h-2.64V537h-1.28v-5.92h-2.64zm15.49-1.28l-2.88 7.2c-.512 1.248-.965 2.091-1.36 2.528-.394.448-.858.672-1.392.672-.458 0-.912-.149-1.36-.448l.416-.976c.342.16.608.24.8.24.299 0 .566-.128.8-.384.246-.256.491-.672.736-1.248l.16-.384-3.456-7.2h1.536l2.112 4.576c.043.096.187.459.432 1.088.096-.352.208-.72.336-1.104l1.664-4.56h1.456zM893.04 467h-1.36v-11.2c.203 0 .677-.005 1.424-.016.757-.011 1.259-.016 1.504-.016 1.472 0 2.528.331 3.168.992.651.651.976 1.477.976 2.48 0 .981-.352 1.813-1.056 2.496-.693.683-1.685 1.024-2.976 1.024-.619 0-1.179-.021-1.68-.064V467zm1.696-9.952c-.427 0-.992.011-1.696.032v4.32c.608.053 1.152.08 1.632.08.821 0 1.467-.197 1.936-.592.469-.405.704-.96.704-1.664 0-.683-.213-1.216-.64-1.6-.427-.384-1.072-.576-1.936-.576zm6.475 4.272l-.336-1.024c.704-.437 1.504-.656 2.4-.656.992 0 1.701.245 2.128.736.427.491.64 1.227.64 2.208V467h-1.216v-.928c-.555.693-1.323 1.04-2.304 1.04-.661 0-1.195-.197-1.6-.592-.405-.405-.608-.949-.608-1.632 0-.715.251-1.275.752-1.68.512-.405 1.168-.608 1.968-.608.768 0 1.365.155 1.792.464 0-.768-.107-1.339-.32-1.712-.213-.373-.651-.56-1.312-.56-.651 0-1.312.176-1.984.528zm1.76 4.64c.715 0 1.333-.309 1.856-.928v-.912c-.448-.32-.987-.48-1.616-.48-.427 0-.789.101-1.088.304-.299.203-.448.496-.448.88 0 .352.112.629.336.832.235.203.555.304.96.304zm11.583-10.32l.688 1.008c-.256.352-.565.592-.928.72a7.75 7.75 0 01-1.344.32 5.371 5.371 0 00-1.392.4c-1.088.491-1.696 1.648-1.824 3.472h.032c.235-.501.614-.907 1.136-1.216a3.362 3.362 0 011.712-.464c1.024 0 1.835.325 2.432.976.608.651.912 1.52.912 2.608 0 1.024-.346 1.899-1.04 2.624-.693.715-1.578 1.072-2.656 1.072-1.173 0-2.101-.4-2.784-1.2-.682-.8-1.024-1.893-1.024-3.28 0-3.125.891-5.061 2.672-5.808a5.527 5.527 0 011.408-.4 9.678 9.678 0 001.216-.272c.31-.096.571-.283.784-.56zm-4.72 7.28c0 .917.224 1.653.672 2.208.448.555 1.03.832 1.744.832.694 0 1.259-.235 1.696-.704.448-.469.672-1.045.672-1.728 0-.725-.202-1.312-.608-1.76-.405-.459-.97-.688-1.696-.688-.64 0-1.184.181-1.632.544-.448.363-.73.795-.848 1.296zm9.356 3.184c-.704-.715-1.056-1.616-1.056-2.704s.352-1.984 1.056-2.688c.715-.715 1.643-1.072 2.784-1.072 1.142 0 2.064.357 2.768 1.072.715.704 1.072 1.6 1.072 2.688s-.357 1.989-1.072 2.704c-.704.704-1.626 1.056-2.768 1.056-1.141 0-2.069-.352-2.784-1.056zm.304-2.704c0 .747.23 1.36.688 1.84.47.48 1.067.72 1.792.72.726 0 1.318-.235 1.776-.704.47-.48.704-1.099.704-1.856 0-.747-.234-1.36-.704-1.84-.458-.48-1.05-.72-1.776-.72-.714 0-1.306.24-1.776.72-.469.469-.704 1.083-.704 1.84zm7.774-2.32v-1.28h6.56v1.28h-2.64V467h-1.28v-5.92h-2.64zm9.143.24l-.336-1.024c.704-.437 1.504-.656 2.4-.656.992 0 1.701.245 2.128.736.427.491.64 1.227.64 2.208V467h-1.216v-.928c-.555.693-1.323 1.04-2.304 1.04-.661 0-1.195-.197-1.6-.592-.405-.405-.608-.949-.608-1.632 0-.715.251-1.275.752-1.68.512-.405 1.168-.608 1.968-.608.768 0 1.365.155 1.792.464 0-.768-.107-1.339-.32-1.712-.213-.373-.651-.56-1.312-.56-.651 0-1.312.176-1.984.528zm1.76 4.64c.715 0 1.333-.309 1.856-.928v-.912c-.448-.32-.987-.48-1.616-.48-.427 0-.789.101-1.088.304-.299.203-.448.496-.448.88 0 .352.112.629.336.832.235.203.555.304.96.304zm-41.483 17.072l.608.928a2.96 2.96 0 01-1.184.896 4.104 4.104 0 01-1.584.304c-1.152 0-2.085-.341-2.8-1.024-.704-.693-1.056-1.605-1.056-2.736 0-1.056.347-1.947 1.04-2.672.693-.725 1.563-1.088 2.608-1.088 1.259 0 2.203.315 2.832.944l-.592 1.008c-.544-.501-1.232-.752-2.064-.752-.672 0-1.253.245-1.744.736-.48.48-.72 1.088-.72 1.824 0 .768.245 1.387.736 1.856.501.469 1.12.704 1.856.704.832 0 1.52-.309 2.064-.928zm13.038-9.392l.688 1.008c-.256.352-.565.592-.928.72a7.75 7.75 0 01-1.344.32 5.371 5.371 0 00-1.392.4c-1.088.491-1.696 1.648-1.824 3.472h.032c.235-.501.614-.907 1.136-1.216a3.362 3.362 0 011.712-.464c1.024 0 1.835.325 2.432.976.608.651.912 1.52.912 2.608 0 1.024-.346 1.899-1.04 2.624-.693.715-1.578 1.072-2.656 1.072-1.173 0-2.101-.4-2.784-1.2-.682-.8-1.024-1.893-1.024-3.28 0-3.125.891-5.061 2.672-5.808a5.527 5.527 0 011.408-.4 9.678 9.678 0 001.216-.272c.31-.096.571-.283.784-.56zm-4.72 7.28c0 .917.224 1.653.672 2.208.448.555 1.03.832 1.744.832.694 0 1.259-.235 1.696-.704.448-.469.672-1.045.672-1.728 0-.725-.202-1.312-.608-1.76-.405-.459-.97-.688-1.696-.688-.64 0-1.184.181-1.632.544-.448.363-.73.795-.848 1.296zm9.164-1.6l-.336-1.024c.704-.437 1.504-.656 2.4-.656.992 0 1.702.245 2.128.736.427.491.64 1.227.64 2.208V485h-1.216v-.928c-.554.693-1.322 1.04-2.304 1.04-.661 0-1.194-.197-1.6-.592-.405-.405-.608-.949-.608-1.632 0-.715.251-1.275.752-1.68.512-.405 1.168-.608 1.968-.608.768 0 1.366.155 1.792.464 0-.768-.106-1.339-.32-1.712-.213-.373-.65-.56-1.312-.56-.65 0-1.312.176-1.984.528zm1.76 4.64c.715 0 1.334-.309 1.856-.928v-.912c-.448-.32-.986-.48-1.616-.48-.426 0-.789.101-1.088.304-.298.203-.448.496-.448.88 0 .352.112.629.336.832.235.203.555.304.96.304zm8.4 1.2a5.948 5.948 0 01-1.728-.272c-.598-.192-1.014-.427-1.248-.704l.656-.96c.288.235.629.427 1.024.576.405.139.773.208 1.104.208.554 0 1.008-.107 1.36-.32.352-.224.528-.512.528-.864a.765.765 0 00-.384-.688c-.246-.16-.587-.24-1.024-.24h-1.216v-1.04h1.136c.362 0 .661-.096.896-.288a.941.941 0 00.352-.736.853.853 0 00-.416-.752c-.278-.192-.651-.288-1.12-.288-.768 0-1.488.267-2.16.8l-.496-.992c.288-.299.688-.533 1.2-.704a5.263 5.263 0 011.648-.256c.864 0 1.53.176 2 .528.469.341.704.811.704 1.408 0 .832-.422 1.397-1.264 1.696v.032c.48.053.848.24 1.104.56.266.32.4.699.4 1.136 0 .661-.283 1.189-.848 1.584-.566.384-1.302.576-2.208.576zm6.382-1.056c-.704-.715-1.056-1.616-1.056-2.704s.352-1.984 1.056-2.688c.715-.715 1.643-1.072 2.784-1.072 1.142 0 2.064.357 2.768 1.072.715.704 1.072 1.6 1.072 2.688s-.357 1.989-1.072 2.704c-.704.704-1.626 1.056-2.768 1.056-1.141 0-2.069-.352-2.784-1.056zm.304-2.704c0 .747.23 1.36.688 1.84.47.48 1.067.72 1.792.72.726 0 1.318-.235 1.776-.704.47-.48.704-1.099.704-1.856 0-.747-.234-1.36-.704-1.84-.458-.48-1.05-.72-1.776-.72-.714 0-1.306.24-1.776.72-.469.469-.704 1.083-.704 1.84zm10.247 3.6h-1.28v-7.2h1.28v5.36l4.16-5.36h1.28v7.2h-1.28v-5.36l-4.16 5.36zm-.256-10.88h1.2c.064.843.475 1.264 1.232 1.264.715 0 1.104-.421 1.168-1.264h1.2c0 .64-.218 1.173-.656 1.6-.437.427-1.008.64-1.712.64-.768 0-1.365-.208-1.792-.624-.426-.416-.64-.955-.64-1.616zM896.08 503v-5.92h-2.528l-.08 1.216c-.064.8-.16 1.493-.288 2.08-.128.576-.277 1.04-.448 1.392a2.41 2.41 0 01-.592.816 2.007 2.007 0 01-.72.416 3.372 3.372 0 01-.848.096l-.096-1.248a.845.845 0 00.368-.048c.128-.053.267-.16.416-.32.16-.16.299-.373.416-.64.128-.267.24-.64.336-1.12.107-.491.176-1.051.208-1.68l.128-2.24h5.008v7.2h-1.28zm5.668 0h-1.28v-7.2h1.28v5.36l4.16-5.36h1.28v7.2h-1.28v-5.36l-4.16 5.36zm7.575 1.76v-2.96h.896c.256-.32.485-.848.688-1.584.213-.736.352-1.573.416-2.512l.112-1.904h4.912v6h1.2v2.96h-1.2V503h-5.824v1.76h-1.2zm3.232-6.56a11.58 11.58 0 01-.4 2.24c-.192.651-.384 1.104-.576 1.36h3.488V497h-2.432l-.08 1.2zm7.76 3.904c-.704-.715-1.056-1.616-1.056-2.704s.352-1.984 1.056-2.688c.715-.715 1.643-1.072 2.784-1.072 1.142 0 2.064.357 2.768 1.072.715.704 1.072 1.6 1.072 2.688s-.357 1.989-1.072 2.704c-.704.704-1.626 1.056-2.768 1.056-1.141 0-2.069-.352-2.784-1.056zm.304-2.704c0 .747.23 1.36.688 1.84.47.48 1.067.72 1.792.72.726 0 1.318-.235 1.776-.704.47-.48.704-1.099.704-1.856 0-.747-.234-1.36-.704-1.84-.458-.48-1.05-.72-1.776-.72-.714 0-1.306.24-1.776.72-.469.469-.704 1.083-.704 1.84zm8.967 3.6v-7.2c.171 0 .55-.011 1.136-.032a43.688 43.688 0 011.472-.032c2.07 0 3.104.619 3.104 1.856 0 .427-.133.795-.4 1.104-.266.299-.613.48-1.04.544v.032c1.12.203 1.68.768 1.68 1.696 0 1.397-1.104 2.096-3.312 2.096-.32 0-.789-.011-1.408-.032a46.387 46.387 0 00-1.232-.032zm2.816-3.232h-1.536v2.208c.768.032 1.259.048 1.472.048 1.227 0 1.84-.384 1.84-1.152 0-.736-.592-1.104-1.776-1.104zm-.112-2.992c-.309 0-.784.016-1.424.048v2.144h1.616c.438 0 .79-.101 1.056-.304a.972.972 0 00.4-.816c0-.715-.549-1.072-1.648-1.072zM785.8 405.4c0-1.632.539-2.997 1.616-4.096 1.077-1.109 2.443-1.664 4.096-1.664 1.643 0 3.003.539 4.08 1.616 1.088 1.077 1.632 2.459 1.632 4.144 0 1.653-.544 3.029-1.632 4.128-1.088 1.088-2.448 1.632-4.08 1.632-1.643 0-3.008-.539-4.096-1.616-1.077-1.077-1.616-2.459-1.616-4.144zm1.44 0c0 1.269.411 2.336 1.232 3.2.821.853 1.835 1.28 3.04 1.28 1.259 0 2.283-.427 3.072-1.28.8-.853 1.2-1.92 1.2-3.2 0-1.291-.411-2.357-1.232-3.2-.821-.853-1.835-1.28-3.04-1.28-1.227 0-2.245.421-3.056 1.264-.811.843-1.216 1.915-1.216 3.216zm18.311-5.76l.688 1.008c-.256.352-.565.592-.928.72a7.75 7.75 0 01-1.344.32 5.371 5.371 0 00-1.392.4c-1.088.491-1.696 1.648-1.824 3.472h.032c.235-.501.614-.907 1.136-1.216a3.362 3.362 0 011.712-.464c1.024 0 1.835.325 2.432.976.608.651.912 1.52.912 2.608 0 1.024-.346 1.899-1.04 2.624-.693.715-1.578 1.072-2.656 1.072-1.173 0-2.101-.4-2.784-1.2-.682-.8-1.024-1.893-1.024-3.28 0-3.125.891-5.061 2.672-5.808a5.527 5.527 0 011.408-.4 9.678 9.678 0 001.216-.272c.31-.096.571-.283.784-.56zm-4.72 7.28c0 .917.224 1.653.672 2.208.448.555 1.03.832 1.744.832.694 0 1.259-.235 1.696-.704.448-.469.672-1.045.672-1.728 0-.725-.202-1.312-.608-1.76-.405-.459-.97-.688-1.696-.688-.64 0-1.184.181-1.632.544-.448.363-.73.795-.848 1.296zm14.06 4.08v-3.04h-4V411h-1.28v-7.2h1.28v2.96h4v-2.96h1.28v7.2h-1.28zm4.971-.896c-.704-.715-1.056-1.616-1.056-2.704s.352-1.984 1.056-2.688c.715-.715 1.643-1.072 2.784-1.072 1.142 0 2.064.357 2.768 1.072.715.704 1.072 1.6 1.072 2.688s-.357 1.989-1.072 2.704c-.704.704-1.626 1.056-2.768 1.056-1.141 0-2.069-.352-2.784-1.056zm.304-2.704c0 .747.23 1.36.688 1.84.47.48 1.067.72 1.792.72.726 0 1.318-.235 1.776-.704.47-.48.704-1.099.704-1.856 0-.747-.234-1.36-.704-1.84-.458-.48-1.05-.72-1.776-.72-.714 0-1.306.24-1.776.72-.469.469-.704 1.083-.704 1.84zm8.967 3.6v-7.2c.171 0 .55-.011 1.136-.032a43.688 43.688 0 011.472-.032c2.07 0 3.104.619 3.104 1.856 0 .427-.133.795-.4 1.104-.266.299-.613.48-1.04.544v.032c1.12.203 1.68.768 1.68 1.696 0 1.397-1.104 2.096-3.312 2.096-.32 0-.789-.011-1.408-.032a46.387 46.387 0 00-1.232-.032zm2.816-3.232h-1.536v2.208c.768.032 1.259.048 1.472.048 1.227 0 1.84-.384 1.84-1.152 0-.736-.592-1.104-1.776-1.104zm-.112-2.992c-.309 0-.784.016-1.424.048v2.144h1.616c.438 0 .79-.101 1.056-.304a.972.972 0 00.4-.816c0-.715-.549-1.072-1.648-1.072zM842.768 411v-5.92h-2.528l-.08 1.216c-.064.8-.16 1.493-.288 2.08-.128.576-.278 1.04-.448 1.392-.16.341-.358.613-.592.816a2.007 2.007 0 01-.72.416 3.378 3.378 0 01-.848.096l-.096-1.248a.847.847 0 00.368-.048c.128-.053.266-.16.416-.32.16-.16.298-.373.416-.64.128-.267.24-.64.336-1.12a10.55 10.55 0 00.208-1.68l.127-2.24h5.009v7.2h-1.28zm10.067-1.792l.4 1.008c-.693.629-1.595.944-2.704.944-1.163 0-2.096-.341-2.8-1.024-.704-.683-1.056-1.595-1.056-2.736 0-1.088.331-1.984.992-2.688.661-.715 1.568-1.072 2.72-1.072.949 0 1.744.309 2.384.928.64.608.96 1.397.96 2.368 0 .331-.027.619-.08.864h-5.536c.053.672.304 1.2.752 1.584.459.384 1.045.576 1.76.576.939 0 1.675-.251 2.208-.752zm-2.512-4.368c-.64 0-1.163.181-1.568.544-.405.352-.645.811-.72 1.376h4.368c-.032-.597-.235-1.067-.608-1.408-.363-.341-.853-.512-1.472-.512zm11.225 6.16v-3.04h-4V411h-1.28v-7.2h1.28v2.96h4v-2.96h1.28v7.2h-1.28zm5.675 0h-1.28v-7.2h1.28v5.36l4.16-5.36h1.28v7.2h-1.28v-5.36l-4.16 5.36zm11.718-7.2h2.24v7.2h-1.28v-2.4h-1.392l-1.76 2.4h-1.552l2.08-2.72c-.416-.096-.778-.325-1.088-.688-.309-.373-.464-.837-.464-1.392 0-.693.256-1.264.768-1.712.512-.459 1.328-.688 2.448-.688zm-1.856 2.432c0 .352.139.635.416.848.278.213.587.32.928.32h1.472V405h-1.168c-.565 0-.981.117-1.248.352-.266.224-.4.517-.4.88zM791.352 429v-6h-3.92v6h-1.28v-7.2h6.48v7.2h-1.28zm4.973-.896c-.704-.715-1.056-1.616-1.056-2.704s.352-1.984 1.056-2.688c.715-.715 1.643-1.072 2.784-1.072 1.141 0 2.064.357 2.768 1.072.715.704 1.072 1.6 1.072 2.688s-.357 1.989-1.072 2.704c-.704.704-1.627 1.056-2.768 1.056-1.141 0-2.069-.352-2.784-1.056zm.304-2.704c0 .747.229 1.36.688 1.84.469.48 1.067.72 1.792.72.725 0 1.317-.235 1.776-.704.469-.48.704-1.099.704-1.856 0-.747-.235-1.36-.704-1.84-.459-.48-1.051-.72-1.776-.72-.715 0-1.307.24-1.776.72-.469.469-.704 1.083-.704 1.84zm15.744 3.76c-.554 0-1.13-.091-1.728-.272-.597-.192-1.013-.427-1.248-.704l.656-.96c.288.235.63.427 1.024.576.406.139.774.208 1.104.208.555 0 1.008-.107 1.36-.32.352-.224.528-.512.528-.864a.765.765 0 00-.384-.688c-.245-.16-.586-.24-1.024-.24h-1.216v-1.04h1.136c.363 0 .662-.096.896-.288a.938.938 0 00.352-.736.85.85 0 00-.416-.752c-.277-.192-.65-.288-1.12-.288-.768 0-1.488.267-2.16.8l-.496-.992c.288-.299.688-.533 1.2-.704a5.267 5.267 0 011.648-.256c.864 0 1.531.176 2 .528.47.341.704.811.704 1.408 0 .832-.421 1.397-1.264 1.696v.032c.48.053.848.24 1.105.56.266.32.4.699.4 1.136 0 .661-.283 1.189-.848 1.584-.566.384-1.302.576-2.209.576zm6.191-5.84l-.336-1.024c.704-.437 1.504-.656 2.4-.656.992 0 1.701.245 2.128.736.427.491.64 1.227.64 2.208V429h-1.216v-.928c-.555.693-1.323 1.04-2.304 1.04-.661 0-1.195-.197-1.6-.592-.405-.405-.608-.949-.608-1.632 0-.715.251-1.275.752-1.68.512-.405 1.168-.608 1.968-.608.768 0 1.365.155 1.792.464 0-.768-.107-1.339-.32-1.712-.213-.373-.651-.56-1.312-.56-.651 0-1.312.176-1.984.528zm1.76 4.64c.715 0 1.333-.309 1.856-.928v-.912c-.448-.32-.987-.48-1.616-.48-.427 0-.789.101-1.088.304-.299.203-.448.496-.448.88 0 .352.112.629.336.832.235.203.555.304.96.304zm12.32-6.16l-3.152 3.44 3.456 3.76h-1.776l-3.248-3.68 3.04-3.52h1.68zm-6.304 7.2v-7.2h1.28v7.2h-1.28zm9.152-5.68l-.336-1.024c.704-.437 1.504-.656 2.4-.656.992 0 1.702.245 2.128.736.427.491.64 1.227.64 2.208V429h-1.216v-.928c-.554.693-1.322 1.04-2.304 1.04-.661 0-1.194-.197-1.6-.592-.405-.405-.608-.949-.608-1.632 0-.715.251-1.275.752-1.68.512-.405 1.168-.608 1.968-.608.768 0 1.366.155 1.792.464 0-.768-.106-1.339-.32-1.712-.213-.373-.65-.56-1.312-.56-.65 0-1.312.176-1.984.528zm1.76 4.64c.715 0 1.334-.309 1.856-.928v-.912c-.448-.32-.986-.48-1.616-.48-.426 0-.789.101-1.088.304-.298.203-.448.496-.448.88 0 .352.112.629.336.832.235.203.555.304.96.304zm8.4 1.2a5.948 5.948 0 01-1.728-.272c-.598-.192-1.014-.427-1.248-.704l.656-.96c.288.235.629.427 1.024.576.405.139.773.208 1.104.208.554 0 1.008-.107 1.36-.32.352-.224.528-.512.528-.864a.765.765 0 00-.384-.688c-.246-.16-.587-.24-1.024-.24h-1.216v-1.04h1.136c.362 0 .661-.096.896-.288a.941.941 0 00.352-.736.853.853 0 00-.416-.752c-.278-.192-.651-.288-1.12-.288-.768 0-1.488.267-2.16.8l-.496-.992c.288-.299.688-.533 1.2-.704a5.263 5.263 0 011.648-.256c.864 0 1.53.176 2 .528.469.341.704.811.704 1.408 0 .832-.422 1.397-1.264 1.696v.032c.48.053.848.24 1.104.56.266.32.4.699.4 1.136 0 .661-.283 1.189-.848 1.584-.566.384-1.302.576-2.208.576zm6.19-5.84l-.336-1.024c.704-.437 1.504-.656 2.4-.656.992 0 1.702.245 2.128.736.427.491.64 1.227.64 2.208V429h-1.216v-.928c-.554.693-1.322 1.04-2.304 1.04-.661 0-1.194-.197-1.6-.592-.405-.405-.608-.949-.608-1.632 0-.715.251-1.275.752-1.68.512-.405 1.168-.608 1.968-.608.768 0 1.366.155 1.792.464 0-.768-.106-1.339-.32-1.712-.213-.373-.65-.56-1.312-.56-.65 0-1.312.176-1.984.528zm1.76 4.64c.715 0 1.334-.309 1.856-.928v-.912c-.448-.32-.986-.48-1.616-.48-.426 0-.789.101-1.088.304-.298.203-.448.496-.448.88 0 .352.112.629.336.832.235.203.555.304.96.304zm6.016 1.04v-7.2h1.168l2.768 3.568 2.624-3.568h1.136v7.2h-1.28v-5.248l-2.496 3.344h-.048l-2.592-3.344V429h-1.28z" fill="#141414"/><path d="M1165 737.5h23c13.81 0 25-11.193 25-25V515c0-13.255-10.75-24-24-24v0c-13.25 0-24-10.745-24-24v-45m13-5l-11.59-11.586a1.99 1.99 0 00-2.82 0L1152 417m-54-367h19c13.81 0 25 11.193 25 25v205m-13 5l11.59 11.586a1.99 1.99 0 002.82 0L1155 285" stroke="#C5CDCF" stroke-width="3" stroke-linecap="round"/><rect x="1228.5" y="303.5" width="325" height="95" rx="7.5" stroke="#C5CDCF" stroke-width="5"/><path d="M1323.24 341.16l1.13 2.208c-.53.56-1.29 1.016-2.28 1.368a9.03 9.03 0 01-3.09.528c-2.58 0-4.67-.792-6.27-2.376-1.6-1.584-2.4-3.68-2.4-6.288 0-2.512.76-4.584 2.28-6.216 1.52-1.632 3.63-2.448 6.31-2.448 2.16 0 3.87.568 5.12 1.704l-1.32 2.184c-1.14-.752-2.4-1.128-3.8-1.128-1.58 0-2.89.536-3.93 1.608-1.03 1.072-1.54 2.504-1.54 4.296 0 1.744.54 3.168 1.61 4.272 1.09 1.088 2.49 1.632 4.2 1.632 1.49 0 2.82-.448 3.98-1.344zm7.23 3.84h-2.76v-10.8h2.76v6.84l5.04-6.84h2.76V345h-2.76v-6.84l-5.04 6.84zm20.27-3.624l1.3 2.016c-.45.608-1.06 1.072-1.83 1.392-.75.32-1.57.48-2.47.48-1.76 0-3.18-.52-4.25-1.56-1.07-1.04-1.61-2.408-1.61-4.104 0-1.6.53-2.944 1.59-4.032 1.05-1.088 2.39-1.632 4.01-1.632 1.92 0 3.36.488 4.34 1.464l-1.3 2.184c-.72-.704-1.61-1.056-2.68-1.056-.8 0-1.51.288-2.12.864-.59.56-.88 1.296-.88 2.208 0 .928.3 1.68.91 2.256.62.56 1.36.84 2.21.84 1.05 0 1.98-.44 2.78-1.32zm3.37-4.416v-2.76h9.84v2.76h-3.53V345h-2.76v-8.04h-3.55zm21.16 5.016l.79 1.944c-1.05.896-2.43 1.344-4.12 1.344-1.75 0-3.16-.52-4.23-1.56-1.05-1.04-1.58-2.408-1.58-4.104 0-1.616.52-2.96 1.56-4.032 1.04-1.088 2.42-1.632 4.15-1.632 1.42 0 2.63.472 3.62 1.416 1 .928 1.49 2.128 1.49 3.6 0 .608-.05 1.104-.17 1.488h-7.8c.12.8.47 1.424 1.06 1.872.59.432 1.32.648 2.18.648 1.22 0 2.24-.328 3.05-.984zm-3.55-5.736c-1.57 0-2.51.784-2.83 2.352h5.3c.02-.672-.2-1.232-.65-1.68-.44-.448-1.05-.672-1.82-.672zm8.65 8.76v-10.8h2.5l3.67 4.512 3.48-4.512h2.43V345h-2.76v-6.6l-3.2 4.032h-.07l-3.29-4.032v6.6h-2.76zm17.18-8.016l-.69-2.016a7.384 7.384 0 013.81-1.032c1.54 0 2.64.376 3.32 1.128.67.752 1 1.872 1 3.36V345h-2.4v-1.248c-.65.928-1.72 1.392-3.19 1.392-1.01 0-1.82-.296-2.45-.888-.62-.592-.93-1.4-.93-2.424 0-1.136.37-2 1.1-2.592.74-.608 1.68-.912 2.83-.912 1 0 1.81.232 2.45.696.03-.944-.1-1.64-.41-2.088-.3-.464-.84-.696-1.6-.696-.8 0-1.75.248-2.84.744zm2.76 5.832c.93 0 1.63-.328 2.09-.984v-1.104c-.46-.352-1.09-.528-1.89-.528-.5 0-.92.12-1.25.36-.32.224-.48.552-.48.984 0 .4.14.712.43.936.29.224.66.336 1.1.336zm23.18-1.44l1.3 2.016c-.45.608-1.06 1.072-1.82 1.392-.76.32-1.58.48-2.48.48-1.76 0-3.17-.52-4.24-1.56-1.08-1.04-1.61-2.408-1.61-4.104 0-1.6.53-2.944 1.58-4.032 1.06-1.088 2.39-1.632 4.01-1.632 1.92 0 3.37.488 4.34 1.464l-1.29 2.184c-.72-.704-1.62-1.056-2.69-1.056-.8 0-1.5.288-2.11.864-.59.56-.89 1.296-.89 2.208 0 .928.3 1.68.91 2.256.63.56 1.36.84 2.21.84 1.06 0 1.98-.44 2.78-1.32zm14.94-7.176l-4.15 5.136 4.65 5.664h-3.6l-4.27-5.448 3.89-5.352h3.48zm-10.22 10.8v-10.8h2.76V345h-2.76zm13.55 0v-10.8c.19 0 .54-.008 1.05-.024a52.694 52.694 0 013.2-.096c3.26 0 4.89.944 4.89 2.832 0 .624-.2 1.16-.6 1.608-.38.448-.85.712-1.41.792v.048c1.53.368 2.3 1.2 2.3 2.496 0 2.176-1.71 3.264-5.14 3.264a55.3 55.3 0 01-2.28-.072 86.893 86.893 0 00-2.01-.048zm4.49-4.584h-1.73v2.4c1.09.064 1.69.096 1.82.096.61 0 1.08-.112 1.42-.336.35-.224.53-.528.53-.912 0-.832-.68-1.248-2.04-1.248zm0-4.104c-.77 0-1.35.016-1.73.048v2.376h1.8c.48 0 .87-.104 1.17-.312.32-.224.48-.536.48-.936 0-.784-.57-1.176-1.72-1.176zm9.69 7.368c-1.07-1.072-1.61-2.432-1.61-4.08 0-1.648.54-3 1.61-4.056 1.09-1.072 2.51-1.608 4.27-1.608 1.76 0 3.18.536 4.25 1.608 1.09 1.056 1.63 2.408 1.63 4.056 0 1.648-.54 3.008-1.63 4.08-1.07 1.056-2.49 1.584-4.25 1.584-1.76 0-3.18-.528-4.27-1.584zm1.34-4.08c0 .896.28 1.64.82 2.232.56.576 1.26.864 2.11.864.87 0 1.57-.28 2.11-.84.56-.576.84-1.328.84-2.256 0-.896-.28-1.632-.84-2.208-.56-.576-1.26-.864-2.11-.864-.83 0-1.53.288-2.09.864-.56.56-.84 1.296-.84 2.208zm16.22 5.664c-.95 0-1.87-.168-2.76-.504-.9-.352-1.55-.784-1.95-1.296l1.42-1.728c.32.368.77.68 1.37.936.6.256 1.16.384 1.68.384.7 0 1.24-.12 1.63-.36.38-.24.57-.56.57-.96 0-.368-.14-.664-.43-.888-.29-.224-.69-.336-1.2-.336h-2.01v-1.848h1.89c.43 0 .78-.128 1.03-.384.28-.256.41-.568.41-.936 0-.784-.63-1.176-1.89-1.176-1 0-1.98.416-2.96 1.248l-1.15-1.656c1.04-1.216 2.59-1.824 4.63-1.824 1.41 0 2.48.272 3.22.816.74.544 1.1 1.296 1.1 2.256 0 .528-.17 1.008-.52 1.44-.36.432-.84.752-1.47.96v.048c.74.144 1.3.448 1.68.912.4.448.6.992.6 1.632 0 1.008-.45 1.808-1.34 2.4-.9.576-2.08.864-3.55.864zm16.19-.264v-4.128h-4.73V345h-2.76v-10.8h2.76v4.08h4.73v-4.08h2.76V345h-2.76zm7.96-1.32c-1.07-1.072-1.61-2.432-1.61-4.08 0-1.648.54-3 1.61-4.056 1.09-1.072 2.51-1.608 4.27-1.608 1.76 0 3.18.536 4.25 1.608 1.09 1.056 1.63 2.408 1.63 4.056 0 1.648-.54 3.008-1.63 4.08-1.07 1.056-2.49 1.584-4.25 1.584-1.76 0-3.18-.528-4.27-1.584zm1.34-4.08c0 .896.28 1.64.82 2.232.56.576 1.26.864 2.11.864.87 0 1.57-.28 2.11-.84.56-.576.84-1.328.84-2.256 0-.896-.28-1.632-.84-2.208-.56-.576-1.26-.864-2.11-.864-.83 0-1.53.288-2.09.864-.56.56-.84 1.296-.84 2.208zm15.16 5.4h-2.76v-10.8h2.76v6.84l5.04-6.84h2.76V345h-2.76v-6.84l-5.04 6.84zm-1.15-16.2h2.52c0 .496.09.912.29 1.248.2.336.52.504.96.504a.93.93 0 00.86-.504c.19-.336.29-.752.29-1.248h2.52c0 1.088-.32 1.984-.96 2.688-.64.688-1.55 1.032-2.71 1.032-1.28 0-2.24-.336-2.86-1.008-.61-.688-.91-1.592-.91-2.712zm-201.37 34.184l-.7-2.016a7.394 7.394 0 013.82-1.032c1.53 0 2.64.376 3.31 1.128.67.752 1.01 1.872 1.01 3.36V371h-2.4v-1.248c-.66.928-1.72 1.392-3.19 1.392-1.01 0-1.83-.296-2.45-.888-.63-.592-.94-1.4-.94-2.424 0-1.136.37-2 1.11-2.592.73-.608 1.68-.912 2.83-.912.99 0 1.81.232 2.45.696.03-.944-.11-1.64-.41-2.088-.31-.464-.84-.696-1.61-.696-.8 0-1.74.248-2.83.744zm2.76 5.832c.93 0 1.62-.328 2.09-.984v-1.104c-.47-.352-1.1-.528-1.9-.528-.5 0-.91.12-1.25.36-.32.224-.48.552-.48.984 0 .4.15.712.43.936.29.224.66.336 1.11.336zm16.2 2.184v-4.128h-4.73V371h-2.76v-10.8h2.76v4.08h4.73v-4.08h2.76V371h-2.76zm7.86-8.016l-.7-2.016a7.394 7.394 0 013.82-1.032c1.54 0 2.64.376 3.31 1.128.67.752 1.01 1.872 1.01 3.36V371h-2.4v-1.248c-.66.928-1.72 1.392-3.19 1.392-1.01 0-1.83-.296-2.45-.888-.62-.592-.94-1.4-.94-2.424 0-1.136.37-2 1.11-2.592.73-.608 1.68-.912 2.83-.912.99 0 1.81.232 2.45.696.03-.944-.11-1.64-.41-2.088-.3-.464-.84-.696-1.61-.696-.8 0-1.74.248-2.83.744zm2.76 5.832c.93 0 1.62-.328 2.09-.984v-1.104c-.47-.352-1.1-.528-1.9-.528-.49 0-.91.12-1.25.36-.32.224-.48.552-.48.984 0 .4.15.712.44.936.28.224.65.336 1.1.336zm15.81 2.184v-8.04h-2.85l-.07 1.152c-.18 1.936-.48 3.424-.89 4.464-.4 1.04-.91 1.744-1.54 2.112-.61.352-1.42.528-2.45.528l-.24-2.688c.36.032.68-.064.99-.288.32-.24.62-.752.91-1.536.29-.8.47-1.848.55-3.144l.17-3.36h8.18V371h-2.76zm9.8 0h-2.76v-10.8h2.76v6.84l5.04-6.84h2.76V371h-2.76v-6.84l-5.04 6.84zm10.95-8.04v-2.76h9.84v2.76h-3.53V371h-2.76v-8.04h-3.55zm15.78 8.04h-2.76v-10.8h2.76v6.84l5.04-6.84h2.76V371h-2.76v-6.84l-5.04 6.84zm22.3-10.8l-4.15 5.136 4.65 5.664h-3.6l-4.27-5.448 3.89-5.352h3.48zm-10.22 10.8v-10.8h2.76V371h-2.76zm16.31 0h-2.76v-10.8h2.76v6.84l5.04-6.84h2.76V371h-2.76v-6.84l-5.04 6.84z" fill="#141414"/><path d="M1294.21 342.804a21.166 21.166 0 01-2.74 7.989 20.806 20.806 0 01-5.64 6.238 20.54 20.54 0 01-7.61 3.469c-2.74.619-5.58.664-8.34.132a20.483 20.483 0 01-7.72-3.226 20.713 20.713 0 01-5.82-6.058 21.118 21.118 0 01-2.99-7.898c-.45-2.811-.33-5.687.35-8.45l2.54.645a18.518 18.518 0 002.3 14.272 18.316 18.316 0 005.09 5.288 17.842 17.842 0 0014.02 2.701c2.4-.54 4.66-1.571 6.65-3.028a18.332 18.332 0 004.92-5.446 18.55 18.55 0 002.39-6.974l2.6.346z" fill="#7C267B"/><g filter="url(#filter2_d)"><path d="M1283.36 348.976a14.12 14.12 0 01-8.96 4.078c-3.38.241-6.73-.741-9.45-2.767l4.23-5.621a7.04 7.04 0 004.72 1.384 7.068 7.068 0 004.48-2.039l4.98 4.965z" fill="#7C267B"/></g><g filter="url(#filter3_d)"><path d="M1286.01 345.3a13.94 13.94 0 001.47-6.075 14.01 14.01 0 00-1.31-6.11l-6.39 2.965c.45.956.67 2 .66 3.055a6.835 6.835 0 01-.74 3.037l6.31 3.128z" fill="#7C267B"/></g><path d="M1262.61 348.073a14.011 14.011 0 01-3.25-10.252 14.058 14.058 0 014.98-9.535 14.124 14.124 0 0110.29-3.233c3.72.325 7.16 2.111 9.56 4.964l-5.4 4.514a7.056 7.056 0 00-9.92-.866 7.013 7.013 0 00-.87 9.894l-5.39 4.514z" fill="#7C267B"/><rect x="345.5" y="260.5" width="406" height="181" rx="7.5" stroke="#C5CDCF" stroke-width="5"/><path d="M582.92 351h-2.592v-16.8h2.952v11.952l8.808-11.952h2.592V351h-2.952v-11.928L582.92 351zm24.312 0v-4.128h-4.728V351h-2.76v-10.8h2.76v4.08h4.728v-4.08h2.76V351h-2.76zm5.896-8.04v-2.76h9.84v2.76h-3.528V351h-2.76v-8.04h-3.552zm21.16 5.016l.792 1.944c-1.056.896-2.432 1.344-4.128 1.344-1.744 0-3.152-.52-4.224-1.56-1.056-1.04-1.584-2.408-1.584-4.104 0-1.616.52-2.96 1.56-4.032 1.04-1.088 2.424-1.632 4.152-1.632 1.424 0 2.632.472 3.624 1.416.992.928 1.488 2.128 1.488 3.6 0 .608-.056 1.104-.168 1.488H628c.112.8.464 1.424 1.056 1.872.592.432 1.32.648 2.184.648 1.216 0 2.232-.328 3.048-.984zm-3.552-5.736c-1.568 0-2.512.784-2.832 2.352h5.304c.016-.672-.2-1.232-.648-1.68-.448-.448-1.056-.672-1.824-.672zm8.655 13.56v-15.6h2.76v1.032c.352-.368.824-.672 1.416-.912a4.898 4.898 0 011.92-.384c1.472 0 2.656.512 3.552 1.536.896 1.024 1.344 2.344 1.344 3.96 0 1.68-.528 3.072-1.584 4.176s-2.432 1.656-4.128 1.656c-1.072 0-1.912-.176-2.52-.528v5.064h-2.76zm5.232-13.272c-.944 0-1.768.392-2.472 1.176v4.368c.64.416 1.4.624 2.28.624.928 0 1.664-.296 2.208-.888.544-.608.816-1.376.816-2.304 0-.88-.248-1.592-.744-2.136-.496-.56-1.192-.84-2.088-.84zM661.462 351v-4.128h-4.728V351h-2.76v-10.8h2.76v4.08h4.728v-4.08h2.76V351h-2.76zm15.496-3.024l.792 1.944c-1.056.896-2.432 1.344-4.128 1.344-1.744 0-3.152-.52-4.224-1.56-1.056-1.04-1.584-2.408-1.584-4.104 0-1.616.52-2.96 1.56-4.032 1.04-1.088 2.424-1.632 4.152-1.632 1.424 0 2.632.472 3.624 1.416.992.928 1.488 2.128 1.488 3.6 0 .608-.056 1.104-.168 1.488h-7.8c.112.8.464 1.424 1.056 1.872.592.432 1.32.648 2.184.648 1.216 0 2.232-.328 3.048-.984zm-3.552-5.736c-1.568 0-2.512.784-2.832 2.352h5.304c.016-.672-.2-1.232-.648-1.68-.448-.448-1.056-.672-1.824-.672zm7.41.72v-2.76h9.84v2.76h-3.528V351h-2.76v-8.04h-3.552zm13.202 2.76v-2.568h6.048v2.568h-6.048zM579.536 377v-10.8h2.496l3.672 4.512 3.48-4.512h2.424V377h-2.76v-6.6l-3.192 4.032h-.072l-3.288-4.032v6.6h-2.76zm17.181-8.016l-.696-2.016a7.385 7.385 0 013.816-1.032c1.536 0 2.64.376 3.312 1.128.672.752 1.008 1.872 1.008 3.36V377h-2.4v-1.248c-.656.928-1.72 1.392-3.192 1.392-1.008 0-1.824-.296-2.448-.888-.624-.592-.936-1.4-.936-2.424 0-1.136.368-2 1.104-2.592.736-.608 1.68-.912 2.832-.912.992 0 1.808.232 2.448.696.032-.944-.104-1.64-.408-2.088-.304-.464-.84-.696-1.608-.696-.8 0-1.744.248-2.832.744zm2.76 5.832c.928 0 1.624-.328 2.088-.984v-1.104c-.464-.352-1.096-.528-1.896-.528-.496 0-.912.12-1.248.36-.32.224-.48.552-.48.984 0 .4.144.712.432.936.288.224.656.336 1.104.336zm8.709 2.184v-10.8h7.248v2.592h-4.488V377h-2.76zm11.017-8.016l-.696-2.016a7.385 7.385 0 013.816-1.032c1.536 0 2.64.376 3.312 1.128.672.752 1.008 1.872 1.008 3.36V377h-2.4v-1.248c-.656.928-1.72 1.392-3.192 1.392-1.008 0-1.824-.296-2.448-.888-.624-.592-.936-1.4-.936-2.424 0-1.136.368-2 1.104-2.592.736-.608 1.68-.912 2.832-.912.992 0 1.808.232 2.448.696.032-.944-.104-1.64-.408-2.088-.304-.464-.84-.696-1.608-.696-.8 0-1.744.248-2.832.744zm2.76 5.832c.928 0 1.624-.328 2.088-.984v-1.104c-.464-.352-1.096-.528-1.896-.528-.496 0-.912.12-1.248.36-.32.224-.48.552-.48.984 0 .4.144.712.432.936.288.224.656.336 1.104.336zm12.525 2.448a7.8 7.8 0 01-2.76-.504c-.896-.352-1.544-.784-1.944-1.296l1.416-1.728c.32.368.776.68 1.368.936.608.256 1.168.384 1.68.384.704 0 1.248-.12 1.632-.36.384-.24.576-.56.576-.96a1.07 1.07 0 00-.432-.888c-.288-.224-.688-.336-1.2-.336h-2.016v-1.848h1.896c.432 0 .776-.128 1.032-.384.272-.256.408-.568.408-.936 0-.784-.632-1.176-1.896-1.176-.992 0-1.976.416-2.952 1.248l-1.152-1.656c1.04-1.216 2.584-1.824 4.632-1.824 1.408 0 2.48.272 3.216.816.736.544 1.104 1.296 1.104 2.256 0 .528-.176 1.008-.528 1.44-.352.432-.84.752-1.464.96v.048c.736.144 1.296.448 1.68.912.4.448.6.992.6 1.632 0 1.008-.448 1.808-1.344 2.4-.896.576-2.08.864-3.552.864zm11.464-.264h-2.76v-10.8h2.76v6.84l5.04-6.84h2.76V377h-2.76v-6.84l-5.04 6.84zm19.569 0v-4.128h-4.728V377h-2.76v-10.8h2.76v4.08h4.728v-4.08h2.76V377h-2.76z" fill="#141414"/><path fill-rule="evenodd" clip-rule="evenodd" d="M397 304.745h129.144a7 7 0 017 7v1.678H390v-1.678a7 7 0 017-7zm-7 11.678v74.153a7 7 0 007 7h129.144a7 7 0 007-7v-74.153H390zm-3-4.678c0-5.522 4.477-10 10-10h129.144c5.523 0 10 4.478 10 10v78.831c0 5.523-4.477 10-10 10H397c-5.523 0-10-4.477-10-10v-78.831z" fill="#C5CDCF"/><g filter="url(#filter4_d)" stroke-width="3"><path d="M466.378 340.245h-35.594c-7.369 0-12.502 7.457-9.995 14.521l5.217 14.705c1.523 4.291 5.519 7.15 9.995 7.15h25.774c4.625 0 8.719-3.049 10.125-7.541l4.604-14.705c2.188-6.991-2.928-14.13-10.126-14.13z" stroke="#7C267B"/><path d="M438.412 349.49c-1.241-20.768-.465-23.423 9.111-23.95 10.762-.841 10.347 4.772 10.629 23.95" stroke="#DC40B1"/></g><path fill="#C4C4C4" d="M396.164 306.649h3.436v4.582h-3.436zm10.309 0h4.582v4.582h-4.582zm11.454 0h4.582v4.582h-4.582z"/><path fill="#fff" d="M459.164 288h93.927v126h-93.927z"/><g filter="url(#filter5_d)" stroke-width="3"><path d="M518.84 340.425h-28.877c-5.978 0-10.142 5.984-8.109 11.652l4.233 11.8c1.235 3.443 4.477 5.737 8.109 5.737h20.909c3.752 0 7.074-2.447 8.214-6.051l3.735-11.8c1.775-5.609-2.375-11.338-8.214-11.338z" stroke="#7C267B"/><path d="M496.152 347.844c-1.007-16.666-.378-18.796 7.391-19.219 8.731-.675 8.394 3.829 8.623 19.219" stroke="#DC40B1"/></g><path d="M528.217 292.582h-48.89c-6.075 0-11 4.925-11 11v94.836c0 6.075 4.925 11 11 11h48.89c6.075 0 11-4.925 11-11v-94.836c0-6.075-4.925-11-11-11z" stroke="#C5CDCF" stroke-width="3"/><path d="M522.443 401.454h-37.105c-5.523 0-10-4.477-10-10v-85.216a5.867 5.867 0 015.867-5.867h4.3c.865 0 1.567.702 1.567 1.567a3.918 3.918 0 003.918 3.918h26.192a3.918 3.918 0 003.918-3.918c0-.865.702-1.567 1.568-1.567h4.104a5.671 5.671 0 015.671 5.672v85.411c0 5.523-4.477 10-10 10z" stroke="#C5CDCF" stroke-width="3"/><path d="M493.926 300.458h20.348" stroke="#C5CDCF" stroke-width="3" stroke-linecap="round"/><rect x="392.5" y="604.5" width="312" height="95" rx="7.5" stroke="#C5CDCF" stroke-width="5"/><path d="M478.08 651.6c0-2.464.816-4.52 2.448-6.168 1.648-1.664 3.744-2.496 6.288-2.496 2.528 0 4.616.8 6.264 2.4 1.664 1.6 2.496 3.688 2.496 6.264 0 2.512-.832 4.584-2.496 6.216-1.664 1.632-3.752 2.448-6.264 2.448-2.528 0-4.616-.8-6.264-2.4-1.648-1.6-2.472-3.688-2.472-6.264zm3.12 0c0 1.68.536 3.088 1.608 4.224 1.088 1.12 2.424 1.68 4.008 1.68 1.728 0 3.096-.56 4.104-1.68 1.024-1.12 1.536-2.528 1.536-4.224 0-1.728-.544-3.144-1.632-4.248-1.072-1.104-2.408-1.656-4.008-1.656-1.616 0-2.96.552-4.032 1.656-1.056 1.104-1.584 2.52-1.584 4.248zm25.688 8.4v-4.128h-4.728V660h-2.76v-10.8h2.76v4.08h4.728v-4.08h2.76V660h-2.76zm14.129 0v-8.04h-2.856l-.072 1.152c-.176 1.936-.472 3.424-.888 4.464-.4 1.04-.912 1.744-1.536 2.112-.608.352-1.424.528-2.448.528l-.24-2.688a1.4 1.4 0 00.984-.288c.32-.24.624-.752.912-1.536.288-.8.472-1.848.552-3.144l.168-3.36h8.184V660h-2.76zm7.873-8.016l-.696-2.016a7.385 7.385 0 013.816-1.032c1.536 0 2.64.376 3.312 1.128.672.752 1.008 1.872 1.008 3.36V660h-2.4v-1.248c-.656.928-1.72 1.392-3.192 1.392-1.008 0-1.824-.296-2.448-.888-.624-.592-.936-1.4-.936-2.424 0-1.136.368-2 1.104-2.592.736-.608 1.68-.912 2.832-.912.992 0 1.808.232 2.448.696.032-.944-.104-1.64-.408-2.088-.304-.464-.84-.696-1.608-.696-.8 0-1.744.248-2.832.744zm2.76 5.832c.928 0 1.624-.328 2.088-.984v-1.104c-.464-.352-1.096-.528-1.896-.528-.496 0-.912.12-1.248.36-.32.224-.48.552-.48.984 0 .4.144.712.432.936.288.224.656.336 1.104.336zM543.119 660h-2.76v-10.8h2.76v6.84l5.04-6.84h2.76V660h-2.76v-6.84l-5.04 6.84zm-1.152-16.2h2.52c0 .496.096.912.288 1.248.208.336.528.504.96.504a.934.934 0 00.864-.504c.192-.336.288-.752.288-1.248h2.52c0 1.088-.32 1.984-.96 2.688-.64.688-1.544 1.032-2.712 1.032-1.28 0-2.232-.336-2.856-1.008-.608-.688-.912-1.592-.912-2.712zm20.721 16.2v-4.128h-4.728V660h-2.76v-10.8h2.76v4.08h4.728v-4.08h2.76V660h-2.76zm20.679 0v-8.208h-4.608V660h-2.76v-10.8h10.128V660h-2.76zm14.131 0v-8.04h-2.856l-.072 1.152c-.176 1.936-.472 3.424-.888 4.464-.4 1.04-.912 1.744-1.536 2.112-.608.352-1.424.528-2.448.528l-.24-2.688a1.4 1.4 0 00.984-.288c.32-.24.624-.752.912-1.536.288-.8.472-1.848.552-3.144l.168-3.36h8.184V660h-2.76zm7.873-8.016l-.696-2.016a7.385 7.385 0 013.816-1.032c1.536 0 2.64.376 3.312 1.128.672.752 1.008 1.872 1.008 3.36V660h-2.4v-1.248c-.656.928-1.72 1.392-3.192 1.392-1.008 0-1.824-.296-2.448-.888-.624-.592-.936-1.4-.936-2.424 0-1.136.368-2 1.104-2.592.736-.608 1.68-.912 2.832-.912.992 0 1.808.232 2.448.696.032-.944-.104-1.64-.408-2.088-.304-.464-.84-.696-1.608-.696-.8 0-1.744.248-2.832.744zm2.76 5.832c.928 0 1.624-.328 2.088-.984v-1.104c-.464-.352-1.096-.528-1.896-.528-.496 0-.912.12-1.248.36-.32.224-.48.552-.48.984 0 .4.144.712.432.936.288.224.656.336 1.104.336zm7.582-5.856v-2.76h9.84v2.76h-3.528V660h-2.76v-8.04h-3.552zm21.159 5.016l.792 1.944c-1.056.896-2.432 1.344-4.128 1.344-1.744 0-3.152-.52-4.224-1.56-1.056-1.04-1.584-2.408-1.584-4.104 0-1.616.52-2.96 1.56-4.032 1.04-1.088 2.424-1.632 4.152-1.632 1.424 0 2.632.472 3.624 1.416.992.928 1.488 2.128 1.488 3.6 0 .608-.056 1.104-.168 1.488h-7.8c.112.8.464 1.424 1.056 1.872.592.432 1.32.648 2.184.648 1.216 0 2.232-.328 3.048-.984zm-3.552-5.736c-1.568 0-2.512.784-2.832 2.352h5.304c.016-.672-.2-1.232-.648-1.68-.448-.448-1.056-.672-1.824-.672zm23.093-2.04l-3.576 5.232 3.864 5.568h-3.264l-3.6-5.568 3.312-5.232h3.264zm-9.456 10.8v-10.8h2.76V660h-2.76zm-3.096-5.568l-3.6-5.232h3.36l3.216 5.232-3.504 5.568h-3.288l3.816-5.568zM662.388 660h-2.76v-10.8h2.76v6.84l5.04-6.84h2.76V660h-2.76v-6.84l-5.04 6.84z" fill="#141414"/><g filter="url(#filter6_d)" stroke="#7C267B" stroke-width="3"><path d="M426 645.579h36m-35.053 14.895V643a5 5 0 015-5H457a5 5 0 015 5v17.474a5 5 0 01-5 5h-25.053a5 5 0 01-5-5z"/></g><rect x="834.5" y="561.5" width="310" height="95" rx="7.5" stroke="#C5CDCF" stroke-width="5"/><path d="M915.328 616v-16.8h9.72v2.76h-6.768v4.176h6.048v2.76h-6.048v4.344h7.008V616h-9.96zm14.213 0v-10.8h2.496l3.672 4.512 3.48-4.512h2.424V616h-2.76v-6.6l-3.192 4.032h-.072l-3.288-4.032v6.6h-2.76zm24.812-3.024l.792 1.944c-1.056.896-2.432 1.344-4.128 1.344-1.744 0-3.152-.52-4.224-1.56-1.056-1.04-1.584-2.408-1.584-4.104 0-1.616.52-2.96 1.56-4.032 1.04-1.088 2.424-1.632 4.152-1.632 1.424 0 2.632.472 3.624 1.416.992.928 1.488 2.128 1.488 3.6 0 .608-.056 1.104-.168 1.488h-7.8c.112.8.464 1.424 1.056 1.872.592.432 1.32.648 2.184.648 1.216 0 2.232-.328 3.048-.984zm-3.552-5.736c-1.568 0-2.512.784-2.832 2.352h5.304c.016-.672-.2-1.232-.648-1.68-.448-.448-1.056-.672-1.824-.672zm11.415 8.76h-2.76v-10.8h2.76v6.84l5.04-6.84h2.76V616h-2.76v-6.84l-5.04 6.84zm-1.152-16.2h2.52c0 .496.096.912.288 1.248.208.336.528.504.96.504a.934.934 0 00.864-.504c.192-.336.288-.752.288-1.248h2.52c0 1.088-.32 1.984-.96 2.688-.64.688-1.544 1.032-2.712 1.032-1.28 0-2.232-.336-2.856-1.008-.608-.688-.912-1.592-.912-2.712zm20.337 16.2v-8.04h-2.856l-.072 1.152c-.176 1.936-.472 3.424-.888 4.464-.4 1.04-.912 1.744-1.536 2.112-.608.352-1.424.528-2.448.528l-.24-2.688a1.4 1.4 0 00.984-.288c.32-.24.624-.752.912-1.536.288-.8.472-1.848.552-3.144l.168-3.36h8.184V616h-2.76zm6.985-5.28v-2.568h6.048v2.568h-6.048zm10.272 5.28v-10.8h2.492l3.68 4.512 3.48-4.512h2.42V616h-2.76v-6.6l-3.19 4.032h-.07l-3.29-4.032v6.6h-2.762zm17.182-8.016l-.7-2.016a7.394 7.394 0 013.82-1.032c1.53 0 2.64.376 3.31 1.128.67.752 1.01 1.872 1.01 3.36V616h-2.4v-1.248c-.66.928-1.72 1.392-3.19 1.392-1.01 0-1.83-.296-2.45-.888-.63-.592-.94-1.4-.94-2.424 0-1.136.37-2 1.11-2.592.73-.608 1.68-.912 2.83-.912.99 0 1.81.232 2.45.696.03-.944-.11-1.64-.41-2.088-.31-.464-.84-.696-1.61-.696-.8 0-1.74.248-2.83.744zm2.76 5.832c.93 0 1.62-.328 2.09-.984v-1.104c-.47-.352-1.1-.528-1.9-.528-.5 0-.91.12-1.25.36-.32.224-.48.552-.48.984 0 .4.15.712.43.936.29.224.66.336 1.11.336zm8.71 6.984v-15.6h2.76v1.032c.35-.368.82-.672 1.41-.912a4.912 4.912 0 011.92-.384c1.48 0 2.66.512 3.56 1.536.89 1.024 1.34 2.344 1.34 3.96 0 1.68-.53 3.072-1.58 4.176-1.06 1.104-2.44 1.656-4.13 1.656-1.07 0-1.91-.176-2.52-.528v5.064h-2.76zm5.23-13.272c-.94 0-1.77.392-2.47 1.176v4.368c.64.416 1.4.624 2.28.624.93 0 1.66-.296 2.21-.888.54-.608.81-1.376.81-2.304 0-.88-.25-1.592-.74-2.136-.5-.56-1.19-.84-2.09-.84zm19.57-2.328l-4.15 5.136 4.66 5.664h-3.6l-4.27-5.448 3.88-5.352h3.48zm-10.22 10.8v-10.8h2.76V616h-2.76zm21.37-3.024l.79 1.944c-1.06.896-2.43 1.344-4.13 1.344-1.74 0-3.15-.52-4.22-1.56-1.06-1.04-1.59-2.408-1.59-4.104 0-1.616.52-2.96 1.56-4.032 1.04-1.088 2.43-1.632 4.16-1.632 1.42 0 2.63.472 3.62 1.416.99.928 1.49 2.128 1.49 3.6 0 .608-.06 1.104-.17 1.488h-7.8c.11.8.46 1.424 1.06 1.872.59.432 1.32.648 2.18.648 1.22 0 2.23-.328 3.05-.984zm-3.55-5.736c-1.57 0-2.52.784-2.84 2.352h5.31c.01-.672-.2-1.232-.65-1.68-.45-.448-1.06-.672-1.82-.672zm7.41.72v-2.76h9.84v2.76h-3.53V616h-2.76v-8.04h-3.55zm15.77 8.04h-2.76v-10.8h2.76v6.84l5.04-6.84h2.76V616h-2.76v-6.84l-5.04 6.84zm19.57 0v-4.128h-4.73V616h-2.76v-10.8h2.76v4.08h4.73v-4.08h2.76V616h-2.76zm7.02 0v-10.8h7.25v2.592h-4.49V616h-2.76z" fill="#141414"/><g filter="url(#filter7_d)" stroke="#7C267B" stroke-width="3"><path d="M891 595h-23a6 6 0 00-6 6v16a6 6 0 006 6h23a6 6 0 006-6v-16a6 6 0 00-6-6z"/><path d="M862.761 595.823l13.916 13.865a4 4 0 005.646 0l13.916-13.865"/></g><rect x="345.5" y="2.5" width="720" height="95" rx="7.5" stroke="#C5CDCF" stroke-width="5"/><path d="M509.034 57V40.2h9.72v2.76h-6.768v4.176h6.048v2.76h-6.048v4.344h7.008V57h-9.96zm17.957 0h-2.952V40.2c.352 0 1.256-.008 2.712-.024 1.472-.016 2.272-.024 2.4-.024 4.064 0 6.096 1.728 6.096 5.184 0 1.296-.328 2.352-.984 3.168-.656.8-1.408 1.344-2.256 1.632L537.263 57h-3.576l-4.632-6.288h-2.064V57zm2.016-14.088c-.288 0-.96.016-2.016.048v4.992h1.92c.912 0 1.672-.224 2.28-.672.624-.464.936-1.104.936-1.92 0-1.632-1.04-2.448-3.12-2.448zM543.988 57h-2.952V40.2c.288 0 1.048-.008 2.28-.024 1.248-.016 2.08-.024 2.496-.024 1.184 0 2.208.152 3.072.456.88.288 1.56.696 2.04 1.224.48.512.832 1.08 1.056 1.704.224.608.336 1.28.336 2.016 0 1.52-.544 2.808-1.632 3.864-1.088 1.056-2.592 1.584-4.512 1.584-.976 0-1.704-.024-2.184-.072V57zm2.112-14.088c-.352 0-1.056.016-2.112.048v5.16c.768.08 1.464.12 2.088.12.928 0 1.68-.224 2.256-.672.576-.464.864-1.144.864-2.04 0-1.744-1.032-2.616-3.096-2.616zm7.967 12.552c0-.512.16-.928.48-1.248.336-.336.792-.504 1.368-.504.64 0 1.152.256 1.536.768.384.496.576 1.136.576 1.92 0 1.008-.272 1.872-.816 2.592-.528.72-1.272 1.216-2.232 1.488l-.744-1.296c.704-.256 1.192-.68 1.464-1.272.24-.496.312-.864.216-1.104-.096.128-.304.192-.624.192s-.608-.144-.864-.432c-.24-.304-.36-.672-.36-1.104zM577.44 46.2L573.192 57c-.768 1.872-1.456 3.136-2.064 3.792-.592.672-1.296 1.008-2.112 1.008-.784 0-1.56-.28-2.328-.84l.888-2.088c.432.256.808.384 1.128.384.656 0 1.208-.56 1.656-1.68l.24-.576-4.992-10.8h3.312l2.52 5.904c.096.24.272.76.528 1.56.128-.704.256-1.232.384-1.584l1.944-5.88h3.144zM587.662 57v-8.208h-4.608V57h-2.76V46.2h10.128V57h-2.76zm7.027 4.8V46.2h2.76v1.032c.352-.368.824-.672 1.416-.912a4.898 4.898 0 011.92-.384c1.472 0 2.656.512 3.552 1.536.896 1.024 1.344 2.344 1.344 3.96 0 1.68-.528 3.072-1.584 4.176s-2.432 1.656-4.128 1.656c-1.072 0-1.912-.176-2.52-.528V61.8h-2.76zm5.232-13.272c-.944 0-1.768.392-2.472 1.176v4.368c.64.416 1.4.624 2.28.624.928 0 1.664-.296 2.208-.888.544-.608.816-1.376.816-2.304 0-.88-.248-1.592-.744-2.136-.496-.56-1.192-.84-2.088-.84zm10.191.456l-.696-2.016a7.385 7.385 0 013.816-1.032c1.536 0 2.64.376 3.312 1.128.672.752 1.008 1.872 1.008 3.36V57h-2.4v-1.248c-.656.928-1.72 1.392-3.192 1.392-1.008 0-1.824-.296-2.448-.888-.624-.592-.936-1.4-.936-2.424 0-1.136.368-2 1.104-2.592.736-.608 1.68-.912 2.832-.912.992 0 1.808.232 2.448.696.032-.944-.104-1.64-.408-2.088-.304-.464-.84-.696-1.608-.696-.8 0-1.744.248-2.832.744zm2.76 5.832c.928 0 1.624-.328 2.088-.984v-1.104c-.464-.352-1.096-.528-1.896-.528-.496 0-.912.12-1.248.36-.32.224-.48.552-.48.984 0 .4.144.712.432.936.288.224.656.336 1.104.336zM621.581 57V46.2c.192 0 .544-.008 1.056-.024a51.715 51.715 0 013.192-.096c3.264 0 4.896.944 4.896 2.832 0 .624-.2 1.16-.6 1.608a2.231 2.231 0 01-1.416.792v.048c1.536.368 2.304 1.2 2.304 2.496 0 2.176-1.712 3.264-5.136 3.264a55.3 55.3 0 01-2.28-.072 86.639 86.639 0 00-2.016-.048zm4.488-4.584h-1.728v2.4c1.088.064 1.696.096 1.824.096.608 0 1.08-.112 1.416-.336.352-.224.528-.528.528-.912 0-.832-.68-1.248-2.04-1.248zm0-4.104c-.768 0-1.344.016-1.728.048v2.376h1.8c.48 0 .872-.104 1.176-.312.32-.224.48-.536.48-.936 0-.784-.576-1.176-1.728-1.176zM641.932 57v-8.04h-2.856l-.072 1.152c-.176 1.936-.472 3.424-.888 4.464-.4 1.04-.912 1.744-1.536 2.112-.608.352-1.424.528-2.448.528l-.24-2.688a1.4 1.4 0 00.984-.288c.32-.24.624-.752.912-1.536.288-.8.472-1.848.552-3.144l.168-3.36h8.184V57h-2.76zm15.506-3.024l.792 1.944c-1.056.896-2.432 1.344-4.128 1.344-1.744 0-3.152-.52-4.224-1.56-1.056-1.04-1.584-2.408-1.584-4.104 0-1.616.52-2.96 1.56-4.032 1.04-1.088 2.424-1.632 4.152-1.632 1.424 0 2.632.472 3.624 1.416.992.928 1.488 2.128 1.488 3.6 0 .608-.056 1.104-.168 1.488h-7.8c.112.8.464 1.424 1.056 1.872.592.432 1.32.648 2.184.648 1.216 0 2.232-.328 3.048-.984zm-3.552-5.736c-1.568 0-2.512.784-2.832 2.352h5.304c.016-.672-.2-1.232-.648-1.68-.448-.448-1.056-.672-1.824-.672zM670.029 57v-4.128h-4.728V57h-2.76V46.2h2.76v4.08h4.728V46.2h2.76V57h-2.76zm9.784 0h-2.76V46.2h2.76v6.84l5.04-6.84h2.76V57h-2.76v-6.84l-5.04 6.84zm20.553-3.024l.792 1.944c-1.056.896-2.432 1.344-4.128 1.344-1.744 0-3.152-.52-4.224-1.56-1.056-1.04-1.584-2.408-1.584-4.104 0-1.616.52-2.96 1.56-4.032 1.04-1.088 2.424-1.632 4.152-1.632 1.424 0 2.632.472 3.624 1.416.992.928 1.488 2.128 1.488 3.6 0 .608-.056 1.104-.168 1.488h-7.8c.112.8.464 1.424 1.056 1.872.592.432 1.32.648 2.184.648 1.216 0 2.232-.328 3.048-.984zm-3.552-5.736c-1.568 0-2.512.784-2.832 2.352h5.304c.016-.672-.2-1.232-.648-1.68-.448-.448-1.056-.672-1.824-.672zm23.125 5.136l1.296 2.016c-.448.608-1.056 1.072-1.824 1.392-.752.32-1.576.48-2.472.48-1.76 0-3.176-.52-4.248-1.56s-1.608-2.408-1.608-4.104c0-1.6.528-2.944 1.584-4.032s2.392-1.632 4.008-1.632c1.92 0 3.368.488 4.344 1.464l-1.296 2.184c-.72-.704-1.616-1.056-2.688-1.056-.8 0-1.504.288-2.112.864-.592.56-.888 1.296-.888 2.208 0 .928.304 1.68.912 2.256.624.56 1.36.84 2.208.84 1.056 0 1.984-.44 2.784-1.32zm14.935-7.176l-4.152 5.136L735.378 57h-3.6l-4.272-5.448 3.888-5.352h3.48zM724.65 57V46.2h2.76V57h-2.76zm20.609 0v-8.04h-2.856l-.072 1.152c-.176 1.936-.472 3.424-.888 4.464-.4 1.04-.912 1.744-1.536 2.112-.608.352-1.424.528-2.448.528l-.24-2.688a1.4 1.4 0 00.984-.288c.32-.24.624-.752.912-1.536.288-.8.472-1.848.552-3.144l.168-3.36h8.184V57h-2.76zm7.873-8.016l-.696-2.016a7.385 7.385 0 013.816-1.032c1.536 0 2.64.376 3.312 1.128.672.752 1.008 1.872 1.008 3.36V57h-2.4v-1.248c-.656.928-1.72 1.392-3.192 1.392-1.008 0-1.824-.296-2.448-.888-.624-.592-.936-1.4-.936-2.424 0-1.136.368-2 1.104-2.592.736-.608 1.68-.912 2.832-.912.992 0 1.808.232 2.448.696.032-.944-.104-1.64-.408-2.088-.304-.464-.84-.696-1.608-.696-.8 0-1.744.248-2.832.744zm2.76 5.832c.928 0 1.624-.328 2.088-.984v-1.104c-.464-.352-1.096-.528-1.896-.528-.496 0-.912.12-1.248.36-.32.224-.48.552-.48.984 0 .4.144.712.432.936.288.224.656.336 1.104.336zm7.414 4.704v-5.088h1.368c.848-1.12 1.352-3 1.512-5.64l.168-2.592h7.968v8.232h1.8v5.088h-2.592V57h-7.656v2.52h-2.568zm5.544-9.624c-.192 2.096-.624 3.608-1.296 4.536h4.008v-5.64h-2.64l-.072 1.104zm11.128-.912l-.696-2.016a7.385 7.385 0 013.816-1.032c1.536 0 2.64.376 3.312 1.128.672.752 1.008 1.872 1.008 3.36V57h-2.4v-1.248c-.656.928-1.72 1.392-3.192 1.392-1.008 0-1.824-.296-2.448-.888-.624-.592-.936-1.4-.936-2.424 0-1.136.368-2 1.104-2.592.736-.608 1.68-.912 2.832-.912.992 0 1.808.232 2.448.696.032-.944-.104-1.64-.408-2.088-.304-.464-.84-.696-1.608-.696-.8 0-1.744.248-2.832.744zm2.76 5.832c.928 0 1.624-.328 2.088-.984v-1.104c-.464-.352-1.096-.528-1.896-.528-.496 0-.912.12-1.248.36-.32.224-.48.552-.48.984 0 .4.144.712.432.936.288.224.656.336 1.104.336zM791.447 57V46.2h2.496l3.672 4.512 3.48-4.512h2.424V57h-2.76v-6.6l-3.192 4.032h-.072l-3.288-4.032V57h-2.76zm19.101 0h-2.76V46.2h2.76v6.84l5.04-6.84h2.76V57h-2.76v-6.84l-5.04 6.84zm9.824 4.2l7.92-21.264 2.136.792-7.92 21.264-2.136-.792zm10.953-12.24V46.2h9.84v2.76h-3.528V57h-2.76v-8.04h-3.552zm13.624 6.72c-1.072-1.072-1.608-2.432-1.608-4.08 0-1.648.536-3 1.608-4.056 1.088-1.072 2.512-1.608 4.272-1.608 1.76 0 3.176.536 4.248 1.608 1.088 1.056 1.632 2.408 1.632 4.056 0 1.648-.544 3.008-1.632 4.08-1.072 1.056-2.488 1.584-4.248 1.584-1.76 0-3.184-.528-4.272-1.584zm1.344-4.08c0 .896.272 1.64.816 2.232.56.576 1.264.864 2.112.864.864 0 1.568-.28 2.112-.84.56-.576.84-1.328.84-2.256 0-.896-.28-1.632-.84-2.208-.56-.576-1.264-.864-2.112-.864-.832 0-1.528.288-2.088.864-.56.56-.84 1.296-.84 2.208zm12.396 5.4V46.2c.192 0 .544-.008 1.056-.024a51.715 51.715 0 013.192-.096c3.264 0 4.896.944 4.896 2.832 0 .624-.2 1.16-.6 1.608a2.231 2.231 0 01-1.416.792v.048c1.536.368 2.304 1.2 2.304 2.496 0 2.176-1.712 3.264-5.136 3.264a55.3 55.3 0 01-2.28-.072 86.639 86.639 0 00-2.016-.048zm4.488-4.584h-1.728v2.4c1.088.064 1.696.096 1.824.096.608 0 1.08-.112 1.416-.336.352-.224.528-.528.528-.912 0-.832-.68-1.248-2.04-1.248zm0-4.104c-.768 0-1.344.016-1.728.048v2.376h1.8c.48 0 .872-.104 1.176-.312.32-.224.48-.536.48-.936 0-.784-.576-1.176-1.728-1.176zm9.599.672l-.696-2.016a7.385 7.385 0 013.816-1.032c1.536 0 2.64.376 3.312 1.128.672.752 1.008 1.872 1.008 3.36V57h-2.4v-1.248c-.656.928-1.72 1.392-3.192 1.392-1.008 0-1.824-.296-2.448-.888-.624-.592-.936-1.4-.936-2.424 0-1.136.368-2 1.104-2.592.736-.608 1.68-.912 2.832-.912.992 0 1.808.232 2.448.696.032-.944-.104-1.64-.408-2.088-.304-.464-.84-.696-1.608-.696-.8 0-1.744.248-2.832.744zm2.76 5.832c.928 0 1.624-.328 2.088-.984v-1.104c-.464-.352-1.096-.528-1.896-.528-.496 0-.912.12-1.248.36-.32.224-.48.552-.48.984 0 .4.144.712.432.936.288.224.656.336 1.104.336zm8.709 6.984V46.2h2.76v1.032c.352-.368.824-.672 1.416-.912a4.898 4.898 0 011.92-.384c1.472 0 2.656.512 3.552 1.536.896 1.024 1.344 2.344 1.344 3.96 0 1.68-.528 3.072-1.584 4.176s-2.432 1.656-4.128 1.656c-1.072 0-1.912-.176-2.52-.528V61.8h-2.76zm5.232-13.272c-.944 0-1.768.392-2.472 1.176v4.368c.64.416 1.4.624 2.28.624.928 0 1.664-.296 2.208-.888.544-.608.816-1.376.816-2.304 0-.88-.248-1.592-.744-2.136-.496-.56-1.192-.84-2.088-.84zm10.191.456l-.696-2.016a7.385 7.385 0 013.816-1.032c1.536 0 2.64.376 3.312 1.128.672.752 1.008 1.872 1.008 3.36V57h-2.4v-1.248c-.656.928-1.72 1.392-3.192 1.392-1.008 0-1.824-.296-2.448-.888-.624-.592-.936-1.4-.936-2.424 0-1.136.368-2 1.104-2.592.736-.608 1.68-.912 2.832-.912.992 0 1.808.232 2.448.696.032-.944-.104-1.64-.408-2.088-.304-.464-.84-.696-1.608-.696-.8 0-1.744.248-2.832.744zm2.76 5.832c.928 0 1.624-.328 2.088-.984v-1.104c-.464-.352-1.096-.528-1.896-.528-.496 0-.912.12-1.248.36-.32.224-.48.552-.48.984 0 .4.144.712.432.936.288.224.656.336 1.104.336zm8.71 2.184V46.2h2.496l3.672 4.512 3.48-4.512h2.424V57h-2.76v-6.6l-3.192 4.032h-.072l-3.288-4.032V57h-2.76zm19.1 0h-2.76V46.2h2.76v6.84l5.04-6.84h2.76V57h-2.76v-6.84l-5.04 6.84z" fill="#141414"/><g filter="url(#filter8_d)"><path d="M485.722 40.394L467.77 30.278a1.001 1.001 0 00-.986.002l-16.195 9.21a1 1 0 00.029 1.754L467.276 50m18.446-9.606L467.276 50m18.446-9.606V59.48a1 1 0 01-.526.88L467.276 70m0-20v20M449 60.079L467.276 70" stroke="#7C267B" stroke-width="3"/></g><path d="M449.965 40v20.5" stroke="#7C267B" stroke-width="3" stroke-linecap="round"/><path d="M784 338h80m5 13l11.586-11.586a2 2 0 000-2.828L869 325m13 39h-80m-5-13l-11.586 11.586a2 2 0 000 2.828L797 377m206 54v80m-13 5l11.59 11.586a1.99 1.99 0 002.82 0L1016 516m-39 13v-80m13-5l-11.586-11.586a2 2 0 00-2.828 0L964 444m181-27l-11.59-11.586a1.99 1.99 0 00-2.82 0L1119 417m47 187h2c7.18 0 13-5.82 13-13v-58c0-7.18-5.82-13-13-13h-23c-7.18 0-13-5.82-13-13v-85" stroke="#C5CDCF" stroke-width="3" stroke-linecap="round"/><rect x="834.5" y="691.5" width="310" height="95" rx="7.5" stroke="#C5CDCF" stroke-width="5"/><path d="M943.328 746v-16.8h2.952v7.968l6.624-7.968h3.552l-6.912 7.824 7.344 8.976h-3.744l-6.864-8.664V746h-2.952zm16.391-1.32c-1.072-1.072-1.608-2.432-1.608-4.08 0-1.648.536-3 1.608-4.056 1.088-1.072 2.512-1.608 4.272-1.608 1.76 0 3.176.536 4.248 1.608 1.088 1.056 1.632 2.408 1.632 4.056 0 1.648-.544 3.008-1.632 4.08-1.072 1.056-2.488 1.584-4.248 1.584-1.76 0-3.184-.528-4.272-1.584zm1.344-4.08c0 .896.272 1.64.816 2.232.56.576 1.264.864 2.112.864.864 0 1.568-.28 2.112-.84.56-.576.84-1.328.84-2.256 0-.896-.28-1.632-.84-2.208-.56-.576-1.264-.864-2.112-.864-.832 0-1.528.288-2.088.864-.56.56-.84 1.296-.84 2.208zm19.149 5.4v-8.04h-2.856l-.072 1.152c-.176 1.936-.472 3.424-.888 4.464-.4 1.04-.912 1.744-1.536 2.112-.608.352-1.424.528-2.448.528l-.24-2.688a1.4 1.4 0 00.984-.288c.32-.24.624-.752.912-1.536.288-.8.472-1.848.552-3.144l.168-3.36h8.184V746h-2.76zm14.137 0v-8.04h-2.856l-.072 1.152c-.176 1.936-.472 3.424-.888 4.464-.4 1.04-.912 1.744-1.536 2.112-.608.352-1.424.528-2.448.528l-.24-2.688a1.4 1.4 0 00.984-.288c.32-.24.624-.752.912-1.536.288-.8.472-1.848.552-3.144l.168-3.36h8.184V746h-2.76zm5.901-8.04v-2.76h9.84v2.76h-3.52V746h-2.76v-8.04h-3.56zm13.02 12.84v-15.6h2.76v1.032c.35-.368.82-.672 1.42-.912a4.84 4.84 0 011.92-.384c1.47 0 2.65.512 3.55 1.536.89 1.024 1.34 2.344 1.34 3.96 0 1.68-.53 3.072-1.58 4.176-1.06 1.104-2.43 1.656-4.13 1.656-1.07 0-1.91-.176-2.52-.528v5.064h-2.76zm5.23-13.272c-.94 0-1.77.392-2.47 1.176v4.368c.64.416 1.4.624 2.28.624.93 0 1.66-.296 2.21-.888.54-.608.81-1.376.81-2.304 0-.88-.24-1.592-.74-2.136-.5-.56-1.19-.84-2.09-.84zm11.18 3.936v-1.848h4.8c-.18-.752-.55-1.32-1.11-1.704-.56-.384-1.22-.576-1.99-.576-1.04 0-2.07.376-3.09 1.128l-1.13-1.92c.48-.528 1.11-.928 1.89-1.2.79-.272 1.55-.408 2.28-.408 1.84 0 3.31.512 4.4 1.536 1.08 1.024 1.63 2.4 1.63 4.128 0 1.632-.52 2.984-1.56 4.056-1.03 1.072-2.43 1.608-4.2 1.608-1.95 0-3.45-.536-4.49-1.608l1.3-1.824c.78.688 1.79 1.032 3.02 1.032.83 0 1.51-.2 2.04-.6.54-.416.89-1.016 1.03-1.8h-4.82zm21.5-6.264l-4.15 5.136 4.66 5.664h-3.6l-4.27-5.448 3.88-5.352h3.48zm-10.22 10.8v-10.8h2.76V746h-2.76zm16.31 0h-2.76v-10.8h2.76v6.84l5.04-6.84h2.76V746h-2.76v-6.84l-5.04 6.84zm19.57 0v-4.128h-4.73V746h-2.76v-10.8h2.76v4.08h4.73v-4.08h2.76V746h-2.76zm7.02 0v-10.8h7.25v2.592h-4.49V746h-2.76z" fill="#141414"/><path fill="#fff" d="M887 719h39v39h-39z"/><g filter="url(#filter9_d)"><path d="M901.765 730.433c-.146-2.069-.159-3.559-1.129-6.865a1.96 1.96 0 00-1.41-1.339l-.679-.169a1.976 1.976 0 00-.485-.06h-6.045c-.984 0-1.831.717-1.919 1.697-1.553 17.352 15.6 30.136 30.257 30.351 1.087.016 1.917-.916 1.899-2.003-.036-2.255-.006-4.812.021-6.426a2.006 2.006 0 00-1.544-1.993c-2.301-.536-4.175-.897-7.293-1.09a1.974 1.974 0 00-1.164.297l-3.294 2.056a1.962 1.962 0 01-1.996.056c-3.73-2.095-4.776-3.438-7.367-7.48a1.993 1.993 0 01-.096-1.984l2.029-3.975c.169-.331.242-.703.215-1.073z" stroke="#7C267B" stroke-width="3"/></g><defs><filter id="filter0_d" x="939" y="333" width="42" height="42" filterUnits="userSpaceOnUse" color-interpolation-filters="sRGB"><feFlood flood-opacity="0" result="BackgroundImageFix"/><feColorMatrix in="SourceAlpha" values="0 0 0 0 0 0 0 0 0 0 0 0 0 0 0 0 0 0 127 0"/><feOffset dx="3" dy="3"/><feGaussianBlur stdDeviation="2.5"/><feColorMatrix values="0 0 0 0 0.441667 0 0 0 0 0.182187 0 0 0 0 0.438297 0 0 0 0.4 0"/><feBlend in2="BackgroundImageFix" result="effect1_dropShadow"/><feBlend in="SourceGraphic" in2="effect1_dropShadow" result="shape"/></filter><filter id="filter1_d" x="22.981" y="328.981" width="50.039" height="50.039" filterUnits="userSpaceOnUse" color-interpolation-filters="sRGB"><feFlood flood-opacity="0" result="BackgroundImageFix"/><feColorMatrix in="SourceAlpha" values="0 0 0 0 0 0 0 0 0 0 0 0 0 0 0 0 0 0 127 0"/><feOffset dx="3" dy="3"/><feGaussianBlur stdDeviation="2.5"/><feColorMatrix values="0 0 0 0 0.441667 0 0 0 0 0.182187 0 0 0 0 0.438297 0 0 0 0.4 0"/><feBlend in2="BackgroundImageFix" result="effect1_dropShadow"/><feBlend in="SourceGraphic" in2="effect1_dropShadow" result="shape"/></filter><filter id="filter2_d" x="1262.95" y="342.011" width="28.405" height="19.079" filterUnits="userSpaceOnUse" color-interpolation-filters="sRGB"><feFlood flood-opacity="0" result="BackgroundImageFix"/><feColorMatrix in="SourceAlpha" values="0 0 0 0 0 0 0 0 0 0 0 0 0 0 0 0 0 0 127 0"/><feOffset dx="3" dy="3"/><feGaussianBlur stdDeviation="2.5"/><feColorMatrix values="0 0 0 0 0.441667 0 0 0 0 0.182187 0 0 0 0 0.438297 0 0 0 0.4 0"/><feBlend in2="BackgroundImageFix" result="effect1_dropShadow"/><feBlend in="SourceGraphic" in2="effect1_dropShadow" result="shape"/></filter><filter id="filter3_d" x="1277.7" y="331.115" width="17.781" height="22.185" filterUnits="userSpaceOnUse" color-interpolation-filters="sRGB"><feFlood flood-opacity="0" result="BackgroundImageFix"/><feColorMatrix in="SourceAlpha" values="0 0 0 0 0 0 0 0 0 0 0 0 0 0 0 0 0 0 127 0"/><feOffset dx="3" dy="3"/><feGaussianBlur stdDeviation="2.5"/><feColorMatrix values="0 0 0 0 0.441667 0 0 0 0 0.182187 0 0 0 0 0.438297 0 0 0 0.4 0"/><feBlend in2="BackgroundImageFix" result="effect1_dropShadow"/><feBlend in="SourceGraphic" in2="effect1_dropShadow" result="shape"/></filter><filter id="filter4_d" x="413.636" y="320.364" width="75.291" height="67.273" filterUnits="userSpaceOnUse" color-interpolation-filters="sRGB"><feFlood flood-opacity="0" result="BackgroundImageFix"/><feColorMatrix in="SourceAlpha" values="0 0 0 0 0 0 0 0 0 0 0 0 0 0 0 0 0 0 127 0"/><feOffset dx="3" dy="3"/><feGaussianBlur stdDeviation="2.5"/><feColorMatrix values="0 0 0 0 0.441667 0 0 0 0 0.182187 0 0 0 0 0.438297 0 0 0 0.4 0"/><feBlend in2="BackgroundImageFix" result="effect1_dropShadow"/><feBlend in="SourceGraphic" in2="effect1_dropShadow" result="shape"/></filter><filter id="filter5_d" x="475.675" y="324.076" width="62.968" height="55.958" filterUnits="userSpaceOnUse" color-interpolation-filters="sRGB"><feFlood flood-opacity="0" result="BackgroundImageFix"/><feColorMatrix in="SourceAlpha" values="0 0 0 0 0 0 0 0 0 0 0 0 0 0 0 0 0 0 127 0"/><feOffset dx="3" dy="3"/><feGaussianBlur stdDeviation="2.5"/><feColorMatrix values="0 0 0 0 0.441667 0 0 0 0 0.182187 0 0 0 0 0.438297 0 0 0 0.4 0"/><feBlend in2="BackgroundImageFix" result="effect1_dropShadow"/><feBlend in="SourceGraphic" in2="effect1_dropShadow" result="shape"/></filter><filter id="filter6_d" x="423.447" y="634.5" width="48.053" height="40.474" filterUnits="userSpaceOnUse" color-interpolation-filters="sRGB"><feFlood flood-opacity="0" result="BackgroundImageFix"/><feColorMatrix in="SourceAlpha" values="0 0 0 0 0 0 0 0 0 0 0 0 0 0 0 0 0 0 127 0"/><feOffset dx="3" dy="3"/><feGaussianBlur stdDeviation="2.5"/><feColorMatrix values="0 0 0 0 0.441667 0 0 0 0 0.182187 0 0 0 0 0.438297 0 0 0 0.4 0"/><feBlend in2="BackgroundImageFix" result="effect1_dropShadow"/><feBlend in="SourceGraphic" in2="effect1_dropShadow" result="shape"/></filter><filter id="filter7_d" x="858.5" y="591.5" width="48" height="41" filterUnits="userSpaceOnUse" color-interpolation-filters="sRGB"><feFlood flood-opacity="0" result="BackgroundImageFix"/><feColorMatrix in="SourceAlpha" values="0 0 0 0 0 0 0 0 0 0 0 0 0 0 0 0 0 0 127 0"/><feOffset dx="3" dy="3"/><feGaussianBlur stdDeviation="2.5"/><feColorMatrix values="0 0 0 0 0.441667 0 0 0 0 0.182187 0 0 0 0 0.438297 0 0 0 0.4 0"/><feBlend in2="BackgroundImageFix" result="effect1_dropShadow"/><feBlend in="SourceGraphic" in2="effect1_dropShadow" result="shape"/></filter><filter id="filter8_d" x="446.284" y="26.649" width="48.938" height="53.056" filterUnits="userSpaceOnUse" color-interpolation-filters="sRGB"><feFlood flood-opacity="0" result="BackgroundImageFix"/><feColorMatrix in="SourceAlpha" values="0 0 0 0 0 0 0 0 0 0 0 0 0 0 0 0 0 0 127 0"/><feOffset dx="3" dy="3"/><feGaussianBlur stdDeviation="2.5"/><feColorMatrix values="0 0 0 0 0.441667 0 0 0 0 0.182187 0 0 0 0 0.438297 0 0 0 0.4 0"/><feBlend in2="BackgroundImageFix" result="effect1_dropShadow"/><feBlend in="SourceGraphic" in2="effect1_dropShadow" result="shape"/></filter><filter id="filter9_d" x="886.5" y="718.5" width="45.276" height="45.048" filterUnits="userSpaceOnUse" color-interpolation-filters="sRGB"><feFlood flood-opacity="0" result="BackgroundImageFix"/><feColorMatrix in="SourceAlpha" values="0 0 0 0 0 0 0 0 0 0 0 0 0 0 0 0 0 0 127 0"/><feOffset dx="3" dy="3"/><feGaussianBlur stdDeviation="2.5"/><feColorMatrix values="0 0 0 0 0.441667 0 0 0 0 0.182187 0 0 0 0 0.438297 0 0 0 0.4 0"/><feBlend in2="BackgroundImageFix" result="effect1_dropShadow"/><feBlend in="SourceGraphic" in2="effect1_dropShadow" result="shape"/></filter><clipPath id="clip0"><path fill="#fff" transform="translate(941 335)" d="M0 0h32v32H0z"/></clipPath><clipPath id="clip1"><path fill="#fff" transform="rotate(-25.686 766.895 117.206)" d="M0 0h30v30H0z"/></clipPath></defs></svg>