<svg width="1411" height="381" viewBox="0 0 1411 381" fill="none" xmlns="http://www.w3.org/2000/svg"><path fill-rule="evenodd" clip-rule="evenodd" d="M842 189.867h106a6 6 0 016 6v4.533H836v-4.533a6 6 0 016-6zm-6 14.533v165.733a6 6 0 006 6h106a6 6 0 006-6V204.4H836zm-4-8.533c0-5.523 4.477-10 10-10h106c5.523 0 10 4.477 10 10v174.266c0 5.523-4.477 10-10 10H842c-5.523 0-10-4.477-10-10V195.867z" fill="#7C267B"/><path fill="#7C267B" d="M844 193.1h4v4.133h-4zm10 0h4v4.133h-4zm10 0h4v4.133h-4z"/><path d="M849 320.602v-7.735a5 5 0 015-5h26.889a5 5 0 015 5v7.735a5 5 0 01-5 5H854a5 5 0 01-5-5z" stroke="#C5CDCF" stroke-width="2"/><path d="M857.102 320.83l-2.941 3.081c-.608.637-.157 1.691.723 1.691h10.223c.88 0 1.331-1.054.724-1.691l-2.942-3.081a4 4 0 00-5.787 0z" stroke="#C5CDCF" stroke-width="2"/><path d="M868.87 315.663l-7.522 7.522c-.63.63-.184 1.707.707 1.707h17.872c.891 0 1.337-1.077.707-1.707l-7.522-7.522a3 3 0 00-4.242 0z" fill="#F6F4F2" stroke="#C5CDCF" stroke-width="2"/><path d="M849 354.602v-11.735a3 3 0 013-3h17a3 3 0 013 3v11.735a3 3 0 01-3 3h-17a3 3 0 01-3-3z" stroke="#C5CDCF" stroke-width="2"/><path d="M854.997 351.242l-2.886 4.848a1 1 0 00.86 1.512h5.771a1 1 0 00.859-1.512l-2.886-4.848a1 1 0 00-1.718 0z" stroke="#C5CDCF" stroke-width="2"/><path d="M861.863 346.903l-5.275 8.46a1 1 0 00.849 1.529h10.55a1 1 0 00.848-1.529l-5.275-8.46a1 1 0 00-1.697 0z" fill="#F6F4F2" stroke="#C5CDCF" stroke-width="2"/><path d="M881 354.602v-11.735a3 3 0 013-3h17a3 3 0 013 3v11.735a3 3 0 01-3 3h-17a3 3 0 01-3-3z" stroke="#C5CDCF" stroke-width="2"/><path d="M886.997 351.242l-2.886 4.848a1 1 0 00.86 1.512h5.771a1 1 0 00.859-1.512l-2.886-4.848a1 1 0 00-1.718 0z" stroke="#C5CDCF" stroke-width="2"/><path d="M893.863 346.903l-5.275 8.46a1 1 0 00.849 1.529h10.55a1 1 0 00.848-1.529l-5.275-8.46a1 1 0 00-1.697 0z" fill="#F6F4F2" stroke="#C5CDCF" stroke-width="2"/><path d="M913 354.602v-11.735a3 3 0 013-3h17a3 3 0 013 3v11.735a3 3 0 01-3 3h-17a3 3 0 01-3-3z" stroke="#C5CDCF" stroke-width="2"/><path d="M918.997 351.242l-2.886 4.848a1 1 0 00.86 1.512h5.771a1 1 0 00.859-1.512l-2.886-4.848a1 1 0 00-1.718 0z" stroke="#C5CDCF" stroke-width="2"/><path d="M925.863 346.903l-5.275 8.46a1 1 0 00.849 1.529h10.55a1 1 0 00.848-1.529l-5.275-8.46a1 1 0 00-1.697 0z" fill="#F6F4F2" stroke="#C5CDCF" stroke-width="2"/><path d="M901 290.602v-7.735a5 5 0 015-5h26.889a5 5 0 015 5v7.735a5 5 0 01-5 5H906a5 5 0 01-5-5z" stroke="#C5CDCF" stroke-width="2"/><path d="M909.102 290.83l-2.941 3.081c-.608.637-.157 1.691.723 1.691h10.223c.88 0 1.331-1.054.724-1.691l-2.942-3.081a4 4 0 00-5.787 0z" stroke="#C5CDCF" stroke-width="2"/><path d="M920.87 285.663l-7.522 7.522c-.63.63-.184 1.707.707 1.707h17.872c.891 0 1.337-1.077.707-1.707l-7.522-7.522a3 3 0 00-4.242 0z" fill="#F6F4F2" stroke="#C5CDCF" stroke-width="2"/><path d="M852 277.867h31m-31 5h31m-31 10h31m-31-5h31m-31 10h31m21 7.735h31m-31 5h31m-31 10h31m-31-5h31m-31 10h31" stroke="#C5CDCF" stroke-width="2" stroke-linecap="round"/><path d="M920 267.367c0-1.248-.427-2.483-1.256-3.636-.829-1.152-2.045-2.2-3.577-3.082-1.532-.882-3.351-1.582-5.353-2.059a27.36 27.36 0 00-6.314-.723 27.36 27.36 0 00-6.314.723c-2.002.477-3.821 1.177-5.353 2.059-1.532.882-2.748 1.93-3.577 3.082-.829 1.153-1.256 2.388-1.256 3.636h33z" fill="#DC40B1"/><path fill-rule="evenodd" clip-rule="evenodd" d="M904.355 227.345l-1.861-.478.676 1.798c.912 2.426 1.442 4.309 1.664 6.251.111.966.147 1.959.111 3.053-.629-1.291-1.274-2.39-1.933-3.3-1.041-1.438-2.157-2.462-3.356-3-1.232-.553-2.49-.562-3.688-.072-1.165.477-2.214 1.397-3.151 2.602l-.783 1.006 1.163.521c2.738 1.226 4.556 2.08 6.052 3.098.191.13.377.263.56.401-2.091-.079-4.019.177-5.608.799-1.431.56-2.636 1.439-3.389 2.691-.759 1.262-.994 2.795-.671 4.531l.208 1.119 1.083-.351 11.782-3.813c-1.693 5.848-2.108 9.924-2.108 15.112l5 1c-.898-5.321-.653-9.298.222-15.944 4.192 3.34 6.136 5.392 8.406 9.434l.726 1.293.927-1.158c1.105-1.382 1.697-2.849 1.731-4.299.033-1.459-.501-2.807-1.477-3.926-.859-.984-2.051-1.786-3.51-2.363 1.986.107 3.843.456 6.128 1.118l1.425.413-.152-1.475c-.18-1.761-.786-3.221-1.779-4.279-.999-1.064-2.325-1.651-3.806-1.764-1.561-.119-3.278.284-5.023 1.181.79-2.618 1.008-4.767.486-6.511-.761-2.545-2.962-3.894-6.055-4.688zm-2.189 14.121c.206.241.415.497.627.769L892 245.728c.008-.796.205-1.448.526-1.982.47-.782 1.272-1.417 2.404-1.86 1.824-.714 4.373-.875 7.236-.42zm3.285.385l.056.023.064-.065-.102-.014-.018.056zm-1.912-2.168c-.718-1.592-1.438-2.862-2.147-3.841-.924-1.276-1.789-2.005-2.554-2.348-.732-.328-1.42-.329-2.113-.045-.468.191-.961.522-1.469 1.011 2.093.954 3.717 1.757 5.118 2.71a15.985 15.985 0 012.824 2.446c.113.021.227.044.341.067zm3.64.673c1.445-3.746 1.792-6.155 1.315-7.75-.343-1.146-1.173-2.029-2.768-2.709.55 1.684.914 3.207 1.095 4.791.212 1.848.172 3.742-.076 6.03.144-.124.289-.244.434-.362zm2.442 4.133c2.603 2.232 4.313 4.138 6.026 6.919.313-.644.458-1.254.471-1.815.021-.913-.304-1.786-.984-2.565-1.029-1.179-2.895-2.152-5.513-2.539zm8.611-2.368c-3.172-.782-5.728-.943-9.149-.709 2.139-1.559 4.151-2.174 5.712-2.055 1.031.079 1.875.473 2.5 1.139.384.409.708.946.937 1.625z" fill="#DC40B1"/><circle cx="870.5" cy="235.367" r="6.5" fill="#DC40B1"/><path d="M845 261.935v-40.068a5 5 0 015-5h91a5 5 0 015 5v40.068a5 5 0 01-5 5h-91a5 5 0 01-5-5z" stroke="#C5CDCF" stroke-width="3"/><path fill-rule="evenodd" clip-rule="evenodd" d="M993 189.867h106c3.31 0 6 2.686 6 6v4.533H987v-4.533a6 6 0 016-6zm-6 14.533v165.733a6 6 0 006 6h106c3.31 0 6-2.686 6-6V204.4H987zm-4-8.533c0-5.523 4.477-10 10-10h106c5.52 0 10 4.477 10 10v174.266c0 5.523-4.48 10-10 10H993c-5.523 0-10-4.477-10-10V195.867z" fill="#C5CDCF"/><path fill="#C5CDCF" d="M995 193.1h4v4.133h-4zm10 0h4v4.133h-4zm10 0h4v4.133h-4z"/><path d="M1000 320.602v-7.735a5 5 0 015-5h26.89a5 5 0 015 5v7.735c0 2.761-2.24 5-5 5H1005c-2.76 0-5-2.239-5-5z" stroke="#C5CDCF" stroke-width="2"/><path d="M1008.1 320.83l-2.94 3.081c-.61.637-.16 1.691.72 1.691h10.23c.88 0 1.33-1.054.72-1.691l-2.94-3.081a4.003 4.003 0 00-5.79 0z" stroke="#C5CDCF" stroke-width="2"/><path d="M1019.87 315.663l-7.52 7.522c-.63.63-.19 1.707.7 1.707h17.88c.89 0 1.33-1.077.7-1.707l-7.52-7.522a2.998 2.998 0 00-4.24 0z" fill="#F6F4F2" stroke="#C5CDCF" stroke-width="2"/><path d="M1000 354.602v-11.735c0-1.657 1.34-3 3-3h17c1.66 0 3 1.343 3 3v11.735c0 1.657-1.34 3-3 3h-17c-1.66 0-3-1.343-3-3z" stroke="#C5CDCF" stroke-width="2"/><path d="M1006 351.242l-2.89 4.848c-.4.667.09 1.512.86 1.512h5.77c.78 0 1.26-.845.86-1.512l-2.88-4.848c-.39-.651-1.34-.651-1.72 0z" stroke="#C5CDCF" stroke-width="2"/><path d="M1012.86 346.903l-5.27 8.46a.998.998 0 00.85 1.529h10.55c.78 0 1.26-.863.85-1.529l-5.28-8.46a1.002 1.002 0 00-1.7 0z" fill="#F6F4F2" stroke="#C5CDCF" stroke-width="2"/><path d="M1032 354.602v-11.735c0-1.657 1.34-3 3-3h17c1.66 0 3 1.343 3 3v11.735c0 1.657-1.34 3-3 3h-17c-1.66 0-3-1.343-3-3z" stroke="#C5CDCF" stroke-width="2"/><path d="M1038 351.242l-2.89 4.848c-.4.667.09 1.512.86 1.512h5.77c.78 0 1.26-.845.86-1.512l-2.88-4.848c-.39-.651-1.34-.651-1.72 0z" stroke="#C5CDCF" stroke-width="2"/><path d="M1044.86 346.903l-5.27 8.46a.998.998 0 00.85 1.529h10.55c.78 0 1.26-.863.85-1.529l-5.28-8.46a1.002 1.002 0 00-1.7 0z" fill="#F6F4F2" stroke="#C5CDCF" stroke-width="2"/><path d="M1064 354.602v-11.735c0-1.657 1.34-3 3-3h17c1.66 0 3 1.343 3 3v11.735c0 1.657-1.34 3-3 3h-17c-1.66 0-3-1.343-3-3z" stroke="#C5CDCF" stroke-width="2"/><path d="M1070 351.242l-2.89 4.848c-.4.667.09 1.512.86 1.512h5.77c.78 0 1.26-.845.86-1.512l-2.88-4.848c-.39-.651-1.34-.651-1.72 0z" stroke="#C5CDCF" stroke-width="2"/><path d="M1076.86 346.903l-5.27 8.46a.998.998 0 00.85 1.529h10.55c.78 0 1.26-.863.85-1.529l-5.28-8.46a1.002 1.002 0 00-1.7 0z" fill="#F6F4F2" stroke="#C5CDCF" stroke-width="2"/><path d="M1052 290.602v-7.735a5 5 0 015-5h26.89a5 5 0 015 5v7.735c0 2.761-2.24 5-5 5H1057c-2.76 0-5-2.239-5-5z" stroke="#C5CDCF" stroke-width="2"/><path d="M1060.1 290.83l-2.94 3.081c-.61.637-.16 1.691.72 1.691h10.23c.88 0 1.33-1.054.72-1.691l-2.94-3.081a4.003 4.003 0 00-5.79 0z" stroke="#C5CDCF" stroke-width="2"/><path d="M1071.87 285.663l-7.52 7.522c-.63.63-.19 1.707.7 1.707h17.88c.89 0 1.33-1.077.7-1.707l-7.52-7.522a2.998 2.998 0 00-4.24 0z" fill="#F6F4F2" stroke="#C5CDCF" stroke-width="2"/><path d="M1003 277.867h31m-31 5h31m-31 10h31m-31-5h31m-31 10h31m21 7.735h31m-31 5h31m-31 10h31m-31-5h31m-31 10h31" stroke="#C5CDCF" stroke-width="2" stroke-linecap="round"/><path d="M996 261.935v-40.068a5 5 0 015-5h91a5 5 0 015 5v40.068c0 2.761-2.24 5-5 5h-91a5 5 0 01-5-5z" stroke="#C5CDCF" stroke-width="3"/><path d="M1068.14 245.867h-23.21c-1.64 0-2.58 1.858-1.57 3.148 4.41 5.665 7.64 8.156 13.24 7.822 7.09-.239 10.52-2.137 13.32-8.316.58-1.266-.39-2.654-1.78-2.654zm-13.14-3v-7.935a.988.988 0 011.07-.987c7.69.646 10.97 2.842 14.15 8.476.37.651-.11 1.446-.86 1.446H1056c-.55 0-1-.448-1-1z" fill="#C5CDCF"/><circle cx="1050" cy="258.867" r="2" fill="#C5CDCF"/><circle cx="1065" cy="258.867" r="2" fill="#C5CDCF"/><path d="M1046.5 246.867l-4.5-4.5h-5" stroke="#C5CDCF" stroke-width="2" stroke-linecap="round"/><path d="M1045 234.867h5l-3.82 4h3.82m-24-20h5l-3.82 4h3.82m10.75 0l3.12 3.906-8.14 1.605 2.39 2.988m-10.13-4.499l.42 6.582-4.31-4.782.31 5.034" stroke="#C5CDCF"/><path fill-rule="evenodd" clip-rule="evenodd" d="M1144 189.867h106c3.31 0 6 2.686 6 6v4.533h-118v-4.533c0-3.314 2.69-6 6-6zm-6 14.533v165.733c0 3.314 2.69 6 6 6h106c3.31 0 6-2.686 6-6V204.4h-118zm-4-8.533c0-5.523 4.48-10 10-10h106c5.52 0 10 4.477 10 10v174.266c0 5.523-4.48 10-10 10h-106c-5.52 0-10-4.477-10-10V195.867z" fill="#C5CDCF"/><path fill="#C5CDCF" d="M1146 193.1h4v4.133h-4zm10 0h4v4.133h-4zm10 0h4v4.133h-4z"/><path d="M1151 320.602v-7.735a5 5 0 015-5h26.89a5 5 0 015 5v7.735c0 2.761-2.24 5-5 5H1156c-2.76 0-5-2.239-5-5z" stroke="#C5CDCF" stroke-width="2"/><path d="M1159.1 320.83l-2.94 3.081c-.61.637-.16 1.691.72 1.691h10.23c.88 0 1.33-1.054.72-1.691l-2.94-3.081a4.003 4.003 0 00-5.79 0z" stroke="#C5CDCF" stroke-width="2"/><path d="M1170.87 315.663l-7.52 7.522c-.63.63-.19 1.707.7 1.707h17.88c.89 0 1.33-1.077.7-1.707l-7.52-7.522a2.998 2.998 0 00-4.24 0z" fill="#F6F4F2" stroke="#C5CDCF" stroke-width="2"/><path d="M1151 354.602v-11.735c0-1.657 1.34-3 3-3h17c1.66 0 3 1.343 3 3v11.735c0 1.657-1.34 3-3 3h-17c-1.66 0-3-1.343-3-3z" stroke="#C5CDCF" stroke-width="2"/><path d="M1157 351.242l-2.89 4.848c-.4.667.09 1.512.86 1.512h5.77c.78 0 1.26-.845.86-1.512l-2.88-4.848c-.39-.651-1.34-.651-1.72 0z" stroke="#C5CDCF" stroke-width="2"/><path d="M1163.86 346.903l-5.27 8.46a.998.998 0 00.85 1.529h10.55c.78 0 1.26-.863.85-1.529l-5.28-8.46a1.002 1.002 0 00-1.7 0z" fill="#F6F4F2" stroke="#C5CDCF" stroke-width="2"/><path d="M1183 354.602v-11.735c0-1.657 1.34-3 3-3h17c1.66 0 3 1.343 3 3v11.735c0 1.657-1.34 3-3 3h-17c-1.66 0-3-1.343-3-3z" stroke="#C5CDCF" stroke-width="2"/><path d="M1189 351.242l-2.89 4.848c-.4.667.09 1.512.86 1.512h5.77c.78 0 1.26-.845.86-1.512l-2.88-4.848c-.39-.651-1.34-.651-1.72 0z" stroke="#C5CDCF" stroke-width="2"/><path d="M1195.86 346.903l-5.27 8.46a.998.998 0 00.85 1.529h10.55c.78 0 1.26-.863.85-1.529l-5.28-8.46a1.002 1.002 0 00-1.7 0z" fill="#F6F4F2" stroke="#C5CDCF" stroke-width="2"/><path d="M1215 354.602v-11.735c0-1.657 1.34-3 3-3h17c1.66 0 3 1.343 3 3v11.735c0 1.657-1.34 3-3 3h-17c-1.66 0-3-1.343-3-3z" stroke="#C5CDCF" stroke-width="2"/><path d="M1221 351.242l-2.89 4.848c-.4.667.09 1.512.86 1.512h5.77c.78 0 1.26-.845.86-1.512l-2.88-4.848c-.39-.651-1.34-.651-1.72 0z" stroke="#C5CDCF" stroke-width="2"/><path d="M1227.86 346.903l-5.27 8.46a.998.998 0 00.85 1.529h10.55c.78 0 1.26-.863.85-1.529l-5.28-8.46a1.002 1.002 0 00-1.7 0z" fill="#F6F4F2" stroke="#C5CDCF" stroke-width="2"/><path d="M1203 290.602v-7.735a5 5 0 015-5h26.89a5 5 0 015 5v7.735c0 2.761-2.24 5-5 5H1208c-2.76 0-5-2.239-5-5z" stroke="#C5CDCF" stroke-width="2"/><path d="M1211.1 290.83l-2.94 3.081c-.61.637-.16 1.691.72 1.691h10.23c.88 0 1.33-1.054.72-1.691l-2.94-3.081a4.003 4.003 0 00-5.79 0z" stroke="#C5CDCF" stroke-width="2"/><path d="M1222.87 285.663l-7.52 7.522c-.63.63-.19 1.707.7 1.707h17.88c.89 0 1.33-1.077.7-1.707l-7.52-7.522a2.998 2.998 0 00-4.24 0z" fill="#F6F4F2" stroke="#C5CDCF" stroke-width="2"/><path d="M1154 277.867h31m-31 5h31m-31 10h31m-31-5h31m-31 10h31m21 7.735h31m-31 5h31m-31 10h31m-31-5h31m-31 10h31" stroke="#C5CDCF" stroke-width="2" stroke-linecap="round"/><path d="M1147 261.935v-40.068a5 5 0 015-5h91a5 5 0 015 5v40.068c0 2.761-2.24 5-5 5h-91c-2.76 0-5-2.239-5-5z" stroke="#C5CDCF" stroke-width="3"/><path d="M1182.19 254.201c2.32 0 4.19-1.88 4.19-4.2 0-2.32-1.87-4.201-4.19-4.201a4.198 4.198 0 00-4.19 4.201c0 2.32 1.88 4.2 4.19 4.2zm36 0c2.32 0 4.19-1.88 4.19-4.2 0-2.32-1.87-4.201-4.19-4.201a4.198 4.198 0 00-4.19 4.201c0 2.32 1.88 4.2 4.19 4.2z" fill="#C5CDCF"/><path fill-rule="evenodd" clip-rule="evenodd" d="M1171.55 244.014l.47-1.372a.52.52 0 01.25-.287c.11-.062.2-.172.25-.305l.03-.113a.773.773 0 01.48-.514l1.84-.67-.96-.902c-.01-.017-.04-.027-.06-.027h-2.02a.093.093 0 01-.09-.068l-.35-.988a.1.1 0 01.09-.142h5.64c.07 0 .12.086.08.156l-.31.589a.102.102 0 01-.09.054h-1.04c-.08 0-.13.086-.09.156l-.8 1.172c6.91.48 14.01-4.783 20.94-4.657 1.37.024 2.93.191 4.7.519 4.27 1.034 6.62 2.116 10.36 4.766a.99.99 0 00.53.18c4.98.121 9.98.342 11.74 1.646 2.68 1.446 4.85 2.686 4.86 3.855l-.35 3.108c0 .077.02.153.07.207l.17.183c.07.071.11.168.11.269 0 .236-.16.437-.39.47l-4.57.691a.824.824 0 01-.14.01l-.32-.001c.36-.738.57-1.577.57-2.468 0-2.937-2.25-5.318-5.03-5.318-2.78 0-5.03 2.381-5.03 5.318 0 .872.2 1.694.55 2.42l-25.92-.14c.31-.691.4-.327.4-2.28-.59-3.019-3.96-5.369-6.12-5.281-2.78 0-5.11 2.344-5.11 5.281 0 .816 0 1.589.31 2.28h-.31c-2.19.013-2.47-.328-4.11-1.445a1 1 0 00-.23-.118l-1.14-.393-.22-.95c.44-.114.16-.641-.08-1.113a10.7 10.7 0 00-.06-.109c-.13-.255.01-.388.18-.559.08-.07.15-.145.22-.238.23-.306.15-.967.04-1.804a54.47 54.47 0 01-.03-.268c-.03-.27 0-.544.09-.8z" fill="#C5CDCF"/><path d="M1188 240.365l18.5.001c-7.17-4.221-14.49-4.503-18.5-.001z" fill="#F6F4F2"/><path fill-rule="evenodd" clip-rule="evenodd" d="M1295 189.867h106c3.31 0 6 2.686 6 6v4.533h-118v-4.533c0-3.314 2.69-6 6-6zm-6 14.533v165.733c0 3.314 2.69 6 6 6h106c3.31 0 6-2.686 6-6V204.4h-118zm-4-8.533c0-5.523 4.48-10 10-10h106c5.52 0 10 4.477 10 10v174.266c0 5.523-4.48 10-10 10h-106c-5.52 0-10-4.477-10-10V195.867z" fill="#C5CDCF"/><path fill="#C5CDCF" d="M1297 193.1h4v4.133h-4zm10 0h4v4.133h-4zm10 0h4v4.133h-4z"/><path d="M1302 320.602v-7.735a5 5 0 015-5h26.89a5 5 0 015 5v7.735c0 2.761-2.24 5-5 5H1307c-2.76 0-5-2.239-5-5z" stroke="#C5CDCF" stroke-width="2"/><path d="M1310.1 320.83l-2.94 3.081c-.61.637-.16 1.691.72 1.691h10.23c.88 0 1.33-1.054.72-1.691l-2.94-3.081a4.003 4.003 0 00-5.79 0z" stroke="#C5CDCF" stroke-width="2"/><path d="M1321.87 315.663l-7.52 7.522c-.63.63-.19 1.707.7 1.707h17.88c.89 0 1.33-1.077.7-1.707l-7.52-7.522a2.998 2.998 0 00-4.24 0z" fill="#F6F4F2" stroke="#C5CDCF" stroke-width="2"/><path d="M1302 354.602v-11.735c0-1.657 1.34-3 3-3h17c1.66 0 3 1.343 3 3v11.735c0 1.657-1.34 3-3 3h-17c-1.66 0-3-1.343-3-3z" stroke="#C5CDCF" stroke-width="2"/><path d="M1308 351.242l-2.89 4.848c-.4.667.09 1.512.86 1.512h5.77c.78 0 1.26-.845.86-1.512l-2.88-4.848c-.39-.651-1.34-.651-1.72 0z" stroke="#C5CDCF" stroke-width="2"/><path d="M1314.86 346.903l-5.27 8.46a.998.998 0 00.85 1.529h10.55c.78 0 1.26-.863.85-1.529l-5.28-8.46a1.002 1.002 0 00-1.7 0z" fill="#F6F4F2" stroke="#C5CDCF" stroke-width="2"/><path d="M1334 354.602v-11.735c0-1.657 1.34-3 3-3h17c1.66 0 3 1.343 3 3v11.735c0 1.657-1.34 3-3 3h-17c-1.66 0-3-1.343-3-3z" stroke="#C5CDCF" stroke-width="2"/><path d="M1340 351.242l-2.89 4.848c-.4.667.09 1.512.86 1.512h5.77c.78 0 1.26-.845.86-1.512l-2.88-4.848c-.39-.651-1.34-.651-1.72 0z" stroke="#C5CDCF" stroke-width="2"/><path d="M1346.86 346.903l-5.27 8.46a.998.998 0 00.85 1.529h10.55c.78 0 1.26-.863.85-1.529l-5.28-8.46a1.002 1.002 0 00-1.7 0z" fill="#F6F4F2" stroke="#C5CDCF" stroke-width="2"/><path d="M1366 354.602v-11.735c0-1.657 1.34-3 3-3h17c1.66 0 3 1.343 3 3v11.735c0 1.657-1.34 3-3 3h-17c-1.66 0-3-1.343-3-3z" stroke="#C5CDCF" stroke-width="2"/><path d="M1372 351.242l-2.89 4.848c-.4.667.09 1.512.86 1.512h5.77c.78 0 1.26-.845.86-1.512l-2.88-4.848c-.39-.651-1.34-.651-1.72 0z" stroke="#C5CDCF" stroke-width="2"/><path d="M1378.86 346.903l-5.27 8.46a.998.998 0 00.85 1.529h10.55c.78 0 1.26-.863.85-1.529l-5.28-8.46a1.002 1.002 0 00-1.7 0z" fill="#F6F4F2" stroke="#C5CDCF" stroke-width="2"/><path d="M1354 290.602v-7.735a5 5 0 015-5h26.89a5 5 0 015 5v7.735c0 2.761-2.24 5-5 5H1359c-2.76 0-5-2.239-5-5z" stroke="#C5CDCF" stroke-width="2"/><path d="M1362.1 290.83l-2.94 3.081c-.61.637-.16 1.691.72 1.691h10.23c.88 0 1.33-1.054.72-1.691l-2.94-3.081a4.003 4.003 0 00-5.79 0z" stroke="#C5CDCF" stroke-width="2"/><path d="M1373.87 285.663l-7.52 7.522c-.63.63-.19 1.707.7 1.707h17.88c.89 0 1.33-1.077.7-1.707l-7.52-7.522a2.998 2.998 0 00-4.24 0z" fill="#F6F4F2" stroke="#C5CDCF" stroke-width="2"/><path d="M1305 277.867h31m-31 5h31m-31 10h31m-31-5h31m-31 10h31m21 7.735h31m-31 5h31m-31 10h31m-31-5h31m-31 10h31" stroke="#C5CDCF" stroke-width="2" stroke-linecap="round"/><path d="M1298 261.935v-40.068a5 5 0 015-5h91a5 5 0 015 5v40.068c0 2.761-2.24 5-5 5h-91c-2.76 0-5-2.239-5-5z" stroke="#C5CDCF" stroke-width="3"/><path d="M1334 256.867v-15c0-1.105.9-2 2-2h26c1.1 0 2 .895 2 2v15c0 1.104-.9 2-2 2h-26c-1.1 0-2-.896-2-2zm-4-18.863c.01-.636.03-1.316.04-1.946.02-1.177 1.01-2.191 2.18-2.191h32.81c1.11 0 2 .895 2 2v2c0 1.104-.89 2-2 2h-33.13c-1.05 0-1.91-.813-1.9-1.863z" stroke="#C5CDCF" stroke-width="3"/><path d="M1346 240.867v17.5m6-17.5v17.5" stroke="#C5CDCF" stroke-width="2"/><path d="M1338.2 230.761c-.49-.256-.68-.869-.33-1.298.2-.249.42-.478.67-.685a5.125 5.125 0 011.71-.935 5.047 5.047 0 013.82.341c.58.305 1.09.72 1.51 1.224.43.504.74 1.086.94 1.712.2.627.27 1.286.21 1.94-.03.321-.09.638-.18.946-.15.53-.77.719-1.26.463l-.41-.219c-.49-.254-.66-.862-.61-1.409a2.45 2.45 0 00-.58-1.851 2.44 2.44 0 00-.77-.621 2.462 2.462 0 00-.95-.278 2.562 2.562 0 00-1.85.579c-.42.353-1.01.564-1.5.309l-.42-.218zm21.05-.206c.45-.313.58-.945.18-1.329a5 5 0 00-6.31-.529 5.02 5.02 0 00-1.77 6.077c.22.508.85.621 1.3.309l.26-.174c.45-.313.55-.938.42-1.476a2.744 2.744 0 01-.02-1.106 2.682 2.682 0 013.13-2.155c.37.068.72.213 1.03.421.45.311 1.07.448 1.53.136l.25-.174zm-41.2 5.037l1.87 1.717 2.21-1.253-1.05 2.314 1.88 1.717-2.53-.287-1.05 2.315-.51-2.492-2.53-.287 2.21-1.253-.5-2.491zm7-14l1.87 1.717 2.21-1.253-1.05 2.314 1.88 1.717-2.53-.287-1.05 2.315-.51-2.492-2.53-.287 2.21-1.253-.5-2.491zm49-2l1.87 1.717 2.21-1.253-1.05 2.314 1.88 1.717-2.53-.287-1.05 2.315-.51-2.492-2.53-.287 2.21-1.253-.5-2.491zm3 23l1.87 1.717 2.21-1.253-1.05 2.314 1.88 1.717-2.53-.287-1.05 2.315-.51-2.492-2.53-.287 2.21-1.253-.5-2.491zm-30-23l1.87 1.717 2.21-1.253-1.05 2.314 1.88 1.717-2.53-.287-1.05 2.315-.51-2.492-2.53-.287 2.21-1.253-.5-2.491zm19 5l1.87 1.717 2.21-1.253-1.05 2.314 1.88 1.717-2.53-.287-1.05 2.315-.51-2.492-2.53-.287 2.21-1.253-.5-2.491z" fill="#C5CDCF"/><rect x="535" y=".9" width="215" height="51.667" rx="8" fill="#7C267B"/><path d="M570.512 32.663l1.416-3.816h-3.672l-1.704 4.584-2.136-.744 1.416-3.84h-1.872v-2.4h2.76l1.248-3.36h-4.008v-2.4h4.92l1.704-4.584 2.136.768-1.416 3.816h3.624l1.704-4.584 2.136.744-1.416 3.84h2.064v2.4h-2.952l-1.248 3.36h4.2v2.4h-5.088l-1.68 4.584-2.136-.768zm-.12-9.576l-1.248 3.36h3.672l1.224-3.36h-3.648zm22.743 10.08v-14.04h-7.488v14.04h-2.952v-16.8h13.392v16.8h-2.952zm17.231-10.8l-4.248 10.8c-.768 1.872-1.456 3.136-2.064 3.792-.592.672-1.296 1.008-2.112 1.008-.784 0-1.56-.28-2.328-.84l.888-2.088c.432.256.808.384 1.128.384.656 0 1.208-.56 1.656-1.68l.24-.576-4.992-10.8h3.312l2.52 5.904c.096.24.272.76.528 1.56.128-.704.256-1.232.384-1.584l1.944-5.88h3.144zm.62 2.76v-2.76h9.84v2.76h-3.528v8.04h-2.76v-8.04h-3.552zm19.96 5.016l.792 1.944c-1.056.896-2.432 1.344-4.128 1.344-1.744 0-3.152-.52-4.224-1.56-1.056-1.04-1.584-2.408-1.584-4.104 0-1.616.52-2.96 1.56-4.032 1.04-1.088 2.424-1.632 4.152-1.632 1.424 0 2.632.472 3.624 1.416.992.928 1.488 2.128 1.488 3.6 0 .608-.056 1.104-.168 1.488h-7.8c.112.8.464 1.424 1.056 1.872.592.432 1.32.648 2.184.648 1.216 0 2.232-.328 3.048-.984zm-3.552-5.736c-1.568 0-2.512.784-2.832 2.352h5.304c.016-.672-.2-1.232-.648-1.68-.448-.448-1.056-.672-1.824-.672zm7.455 8.76v-10.8h2.76v8.232h3.048v-8.232h2.76v8.232h3.072v-8.232h2.76v10.8h-14.4zm25.932-3.024l.792 1.944c-1.056.896-2.432 1.344-4.128 1.344-1.744 0-3.152-.52-4.224-1.56-1.056-1.04-1.584-2.408-1.584-4.104 0-1.616.52-2.96 1.56-4.032 1.04-1.088 2.424-1.632 4.152-1.632 1.424 0 2.632.472 3.624 1.416.992.928 1.488 2.128 1.488 3.6 0 .608-.056 1.104-.168 1.488h-7.8c.112.8.464 1.424 1.056 1.872.592.432 1.32.648 2.184.648 1.216 0 2.232-.328 3.048-.984zm-3.552-5.736c-1.568 0-2.512.784-2.832 2.352h5.304c.016-.672-.2-1.232-.648-1.68-.448-.448-1.056-.672-1.824-.672zm15.569 5.136l1.296 2.016c-.448.608-1.056 1.072-1.824 1.392-.752.32-1.576.48-2.472.48-1.76 0-3.176-.52-4.248-1.56s-1.608-2.408-1.608-4.104c0-1.6.528-2.944 1.584-4.032s2.392-1.632 4.008-1.632c1.92 0 3.368.488 4.344 1.464l-1.296 2.184c-.72-.704-1.616-1.056-2.688-1.056-.8 0-1.504.288-2.112.864-.592.56-.888 1.296-.888 2.208 0 .928.304 1.68.912 2.256.624.56 1.36.84 2.208.84 1.056 0 1.984-.44 2.784-1.32zm2.173-4.416v-2.76h9.84v2.76h-3.528v8.04h-2.76v-8.04h-3.552zm11.815 8.04v-10.8c.192 0 .544-.008 1.056-.024a51.715 51.715 0 013.192-.096c3.264 0 4.896.944 4.896 2.832 0 .624-.2 1.16-.6 1.608a2.231 2.231 0 01-1.416.792v.048c1.536.368 2.304 1.2 2.304 2.496 0 2.176-1.712 3.264-5.136 3.264a55.3 55.3 0 01-2.28-.072 86.639 86.639 0 00-2.016-.048zm4.488-4.584h-1.728v2.4c1.088.064 1.696.096 1.824.096.608 0 1.08-.112 1.416-.336.352-.224.528-.528.528-.912 0-.832-.68-1.248-2.04-1.248zm0-4.104c-.768 0-1.344.016-1.728.048v2.376h1.8c.48 0 .872-.104 1.176-.312.32-.224.48-.536.48-.936 0-.784-.576-1.176-1.728-1.176zm10.319 8.688h-2.76v-10.8h2.76v6.84l5.04-6.84h2.76v10.8h-2.76v-6.84l-5.04 6.84zm16.161-10.8h3.528v10.8h-2.76v-3.24h-1.536l-2.232 3.24h-3.168l2.879-3.84c-.543-.192-1.031-.552-1.463-1.08-.416-.544-.624-1.224-.624-2.04 0-1.136.432-2.056 1.296-2.76.88-.72 2.24-1.08 4.08-1.08zm-2.424 4.032c0 .432.176.792.528 1.08.368.272.776.408 1.224.408h1.44v-3.12h-1.224c-.624 0-1.112.16-1.464.48-.336.32-.504.704-.504 1.152z" fill="#fff"/><path d="M431 129.033L411 149.7m0-20.667l20 20.667" stroke="#C5CDCF" stroke-width="3" stroke-linecap="round"/><path d="M3 167.433V111.3a5 5 0 015-5h440a5 5 0 015 5v56.133a5 5 0 01-5 5H8a5 5 0 01-5-5z" stroke="#C5CDCF" stroke-width="5"/><path d="M79.2 133.2v-2.3h11.54v2.3H86.2v11.7h-2.46v-11.7H79.2zm19.194 2.7l-3.54 9c-.64 1.56-1.214 2.613-1.72 3.16-.494.56-1.08.84-1.76.84-.654 0-1.3-.233-1.94-.7l.74-1.74c.36.213.673.32.94.32.546 0 1.006-.467 1.38-1.4l.2-.48-4.16-9h2.76l2.1 4.92c.08.2.226.633.44 1.3.106-.587.213-1.027.32-1.32l1.62-4.9h2.62zm1.378 13v-13h2.3v.86c.294-.307.687-.56 1.18-.76a4.089 4.089 0 011.6-.32c1.227 0 2.214.427 2.96 1.28.747.853 1.12 1.953 1.12 3.3 0 1.4-.44 2.56-1.32 3.48-.88.92-2.026 1.38-3.44 1.38-.893 0-1.593-.147-2.1-.44v4.22h-2.3zm4.36-11.06c-.786 0-1.473.327-2.06.98v3.64c.534.347 1.167.52 1.9.52.774 0 1.387-.247 1.84-.74.454-.507.68-1.147.68-1.92 0-.733-.206-1.327-.62-1.78-.413-.467-.993-.7-1.74-.7zm6.793 7.06v-9h2.3v6.86h3.7v-6.86h2.3v6.86h1.5V147h-2.16v-2.1h-7.64zm13.628 0h-2.3v-9h2.3v5.7l4.2-5.7h2.3v9h-2.3v-5.7l-4.2 5.7zm13.467-9h2.94v9h-2.3v-2.7h-1.28l-1.86 2.7h-2.64l2.4-3.2c-.453-.16-.86-.46-1.22-.9-.347-.453-.52-1.02-.52-1.7 0-.947.36-1.713 1.08-2.3.733-.6 1.867-.9 3.4-.9zm-2.02 3.36c0 .36.147.66.44.9.307.227.647.34 1.02.34h1.2v-2.6h-1.02c-.52 0-.927.133-1.22.4a1.28 1.28 0 00-.42.96zm10.62 5.64l5.92-14.04h2.16l5.92 14.04H158l-1.46-3.58h-5.98l-1.46 3.58h-2.48zm6.94-10.86l-2.06 4.98h4.1l-2.04-4.98zm8.497 8.38V130.9h2.3v10.58c0 .973.26 1.46.78 1.46.294 0 .607-.12.94-.36l.48 1.76c-.626.507-1.42.76-2.38.76-1.413 0-2.12-.893-2.12-2.68zm5.977 0V130.9h2.3v10.58c0 .973.26 1.46.78 1.46.293 0 .607-.12.94-.36l.48 1.76c-.627.507-1.42.76-2.38.76-1.413 0-2.12-.893-2.12-2.68zm10.555 2.48v-9h2.3v9h-2.3zm-.24-12.24c0-.4.14-.72.42-.96.28-.253.62-.38 1.02-.38a1.3 1.3 0 01.92.38c.266.24.4.56.4.96 0 .44-.134.793-.4 1.06a1.3 1.3 0 01-.92.38c-.414 0-.76-.127-1.04-.38-.267-.267-.4-.62-.4-1.06zm5.447 12.24v-9h2.3v.9c.653-.707 1.513-1.06 2.58-1.06 2.466 0 3.7 1.293 3.7 3.88v5.28h-2.3v-4.88c0-1.413-.674-2.12-2.02-2.12-.734 0-1.387.287-1.96.86v6.14h-2.3zm17.738-3.02l1.08 1.68c-.374.507-.88.893-1.52 1.16-.627.267-1.314.4-2.06.4-1.467 0-2.647-.433-3.54-1.3-.894-.867-1.34-2.007-1.34-3.42 0-1.333.44-2.453 1.32-3.36.88-.907 1.993-1.36 3.34-1.36 1.6 0 2.806.407 3.62 1.22l-1.08 1.82c-.6-.587-1.347-.88-2.24-.88-.667 0-1.254.24-1.76.72-.494.467-.74 1.08-.74 1.84 0 .773.253 1.4.76 1.88.52.467 1.133.7 1.84.7.88 0 1.653-.367 2.32-1.1zm2.926.54V130.9h2.3v10.58c0 .973.26 1.46.78 1.46.293 0 .606-.12.94-.36l.48 1.76c-.627.507-1.42.76-2.38.76-1.414 0-2.12-.893-2.12-2.68zm14.116-6.52v9h-2.3v-1.1c-.72.88-1.68 1.32-2.88 1.32-.933 0-1.693-.313-2.28-.94-.586-.627-.88-1.553-.88-2.78v-5.5h2.3v5.02c0 1.373.574 2.06 1.72 2.06.787 0 1.46-.367 2.02-1.1v-5.98h2.3zm6.783 7.08a.697.697 0 00.34-.62c0-.267-.166-.48-.5-.64a5.614 5.614 0 00-1.22-.44c-.466-.133-.94-.287-1.42-.46a2.97 2.97 0 01-1.22-.88c-.333-.4-.5-.907-.5-1.52 0-.853.307-1.52.92-2 .627-.493 1.42-.74 2.38-.74 1.467 0 2.607.38 3.42 1.14l-.86 1.64c-.733-.573-1.546-.86-2.44-.86-.333 0-.606.08-.82.24-.2.147-.3.327-.3.54 0 .267.167.487.5.66.334.173.734.32 1.2.44.48.12.96.267 1.44.44s.887.46 1.22.86c.334.387.5.873.5 1.46 0 .88-.333 1.58-1 2.1-.653.52-1.533.78-2.64.78-.773 0-1.54-.167-2.3-.5-.746-.333-1.233-.68-1.46-1.04l1.12-1.5c.267.293.687.553 1.26.78.574.227 1.087.34 1.54.34.347 0 .627-.073.84-.22zm5.007 1.92v-9h2.3v9h-2.3zm-.24-12.24c0-.4.14-.72.42-.96.28-.253.62-.38 1.02-.38.347 0 .653.127.92.38.267.24.4.56.4.96 0 .44-.133.793-.4 1.06-.267.253-.573.38-.92.38-.413 0-.76-.127-1.04-.38-.267-.267-.4-.62-.4-1.06zm13.827 3.24l-3.88 9.04h-1.7l-4.14-9.04h2.74l1.66 3.86c.293.653.52 1.333.68 2.04.173-.747.393-1.44.66-2.08l1.56-3.82h2.42zm7.957 6.48l.66 1.62c-.88.747-2.026 1.12-3.44 1.12-1.453 0-2.626-.433-3.52-1.3-.88-.867-1.32-2.007-1.32-3.42 0-1.347.434-2.467 1.3-3.36.867-.907 2.02-1.36 3.46-1.36 1.187 0 2.194.393 3.02 1.18.827.773 1.24 1.773 1.24 3 0 .507-.046.92-.14 1.24h-6.5c.094.667.387 1.187.88 1.56.494.36 1.1.54 1.82.54 1.014 0 1.86-.273 2.54-.82zm-2.96-4.78c-1.306 0-2.093.653-2.36 1.96h4.42c.014-.56-.166-1.027-.54-1.4-.373-.373-.88-.56-1.52-.56zm10.451 7.3v-9c.16 0 .453-.007.88-.02a47.651 47.651 0 012.66-.08c2.72 0 4.08.787 4.08 2.36 0 .52-.167.967-.5 1.34-.32.373-.713.593-1.18.66v.04c1.28.307 1.92 1 1.92 2.08 0 1.813-1.427 2.72-4.28 2.72-.4 0-1.033-.02-1.9-.06a70.335 70.335 0 00-1.68-.04zm3.74-3.82h-1.44v2c.907.053 1.413.08 1.52.08.507 0 .9-.093 1.18-.28.293-.187.44-.44.44-.76 0-.693-.567-1.04-1.7-1.04zm0-3.42c-.64 0-1.12.013-1.44.04v1.98h1.5c.4 0 .727-.087.98-.26a.899.899 0 00.4-.78c0-.653-.48-.98-1.44-.98zm10.537 11.24v-13h2.3v.86c.294-.307.687-.56 1.18-.76a4.089 4.089 0 011.6-.32c1.227 0 2.214.427 2.96 1.28.747.853 1.12 1.953 1.12 3.3 0 1.4-.44 2.56-1.32 3.48-.88.92-2.026 1.38-3.44 1.38-.893 0-1.593-.147-2.1-.44v4.22h-2.3zm4.36-11.06c-.786 0-1.473.327-2.06.98v3.64c.534.347 1.167.52 1.9.52.774 0 1.387-.247 1.84-.74.454-.507.68-1.147.68-1.92 0-.733-.206-1.327-.62-1.78-.413-.467-.993-.7-1.74-.7zm7.493.38l-.58-1.68a6.156 6.156 0 013.18-.86c1.28 0 2.2.313 2.76.94.56.627.84 1.56.84 2.8v5.48h-2v-1.04c-.547.773-1.434 1.16-2.66 1.16-.84 0-1.52-.247-2.04-.74s-.78-1.167-.78-2.02c0-.947.306-1.667.92-2.16.613-.507 1.4-.76 2.36-.76.826 0 1.506.193 2.04.58.026-.787-.087-1.367-.34-1.74-.254-.387-.7-.58-1.34-.58-.667 0-1.454.207-2.36.62zm2.3 4.86c.773 0 1.353-.273 1.74-.82v-.92c-.387-.293-.914-.44-1.58-.44-.414 0-.76.1-1.04.3-.267.187-.4.46-.4.82 0 .333.12.593.36.78.24.187.546.28.92.28zm13.078-1.2l1.08 1.68c-.374.507-.88.893-1.52 1.16-.627.267-1.314.4-2.06.4-1.467 0-2.647-.433-3.54-1.3-.894-.867-1.34-2.007-1.34-3.42 0-1.333.44-2.453 1.32-3.36.88-.907 1.993-1.36 3.34-1.36 1.6 0 2.806.407 3.62 1.22l-1.08 1.82c-.6-.587-1.347-.88-2.24-.88-.667 0-1.254.24-1.76.72-.494.467-.74 1.08-.74 1.84 0 .773.253 1.4.76 1.88.52.467 1.133.7 1.84.7.88 0 1.653-.367 2.32-1.1zm9.257 0l1.08 1.68c-.373.507-.88.893-1.52 1.16-.626.267-1.313.4-2.06.4-1.466 0-2.646-.433-3.54-1.3-.893-.867-1.34-2.007-1.34-3.42 0-1.333.44-2.453 1.32-3.36.88-.907 1.994-1.36 3.34-1.36 1.6 0 2.807.407 3.62 1.22l-1.08 1.82c-.6-.587-1.346-.88-2.24-.88-.666 0-1.253.24-1.76.72-.493.467-.74 1.08-.74 1.84 0 .773.254 1.4.76 1.88.52.467 1.134.7 1.84.7.88 0 1.654-.367 2.32-1.1zm2.927 7.02v-13h2.3v.86c.293-.307.686-.56 1.18-.76a4.085 4.085 0 011.6-.32c1.226 0 2.213.427 2.96 1.28.746.853 1.12 1.953 1.12 3.3 0 1.4-.44 2.56-1.32 3.48-.88.92-2.027 1.38-3.44 1.38-.894 0-1.594-.147-2.1-.44v4.22h-2.3zm4.36-11.06c-.787 0-1.474.327-2.06.98v3.64c.533.347 1.166.52 1.9.52.773 0 1.386-.247 1.84-.74.453-.507.68-1.147.68-1.92 0-.733-.207-1.327-.62-1.78-.414-.467-.994-.7-1.74-.7zm7.572 5.96c-.893-.893-1.34-2.027-1.34-3.4 0-1.373.447-2.5 1.34-3.38.907-.893 2.093-1.34 3.56-1.34s2.647.447 3.54 1.34c.907.88 1.36 2.007 1.36 3.38 0 1.373-.453 2.507-1.36 3.4-.893.88-2.073 1.32-3.54 1.32s-2.653-.44-3.56-1.32zm1.12-3.4c0 .747.227 1.367.68 1.86.467.48 1.053.72 1.76.72.72 0 1.307-.233 1.76-.7.467-.48.7-1.107.7-1.88 0-.747-.233-1.36-.7-1.84-.467-.48-1.053-.72-1.76-.72-.693 0-1.273.24-1.74.72-.467.467-.7 1.08-.7 1.84zm16.59-4.5v9h-2.3v-3.1c-.653.347-1.4.52-2.24.52-1.133 0-1.96-.293-2.48-.88-.52-.6-.78-1.487-.78-2.66v-2.88h2.46v2.6c0 1.107.487 1.66 1.46 1.66.64 0 1.167-.12 1.58-.36v-3.9h2.3zm11.085 0l-3.46 4.28 3.88 4.72h-3l-3.56-4.54 3.24-4.46h2.9zm-8.52 9v-9h2.3v9h-2.3zm18.875-9l-3.54 9c-.64 1.56-1.213 2.613-1.72 3.16-.493.56-1.08.84-1.76.84-.653 0-1.3-.233-1.94-.7l.74-1.74c.36.213.673.32.94.32.547 0 1.007-.467 1.38-1.4l.2-.48-4.16-9h2.76l2.1 4.92c.08.2.227.633.44 1.3.107-.587.213-1.027.32-1.32l1.62-4.9h2.62z" fill="#141414"/><path d="M47 147.117l8 8.266" stroke="#7C267B" stroke-width="3" stroke-linecap="round"/><path d="M50.5 137.3c0 7.208-5.642 12.967-12.5 12.967s-12.5-5.759-12.5-12.967 5.642-12.967 12.5-12.967 12.5 5.759 12.5 12.967z" stroke="#7C267B" stroke-width="3"/><path d="M497 145.05v92.267a9 9 0 009 9h58" stroke="#C5CDCF" stroke-width="5" stroke-linecap="round"/><path d="M564.5 175.017H507c-5.523 0-10-4.478-10-10v-21m64.5-43.917H508c-5.523 0-10 4.477-10 10v24.617" stroke="#C5CDCF" stroke-width="5" stroke-linecap="round"/><path d="M562.5 27.767h-54c-5.523 0-10 4.477-10 10v94.7c0 5.522-4.477 10-10 10H454" stroke="#7C267B" stroke-width="5" stroke-linecap="round"/><rect x="536.5" y="75.767" width="212" height="48.667" rx="6.5" fill="#F6F4F2" stroke="#C5CDCF" stroke-width="3"/><path d="M570.68 106.389l1.776-4.824h-5.04l-1.92 5.184-.984-.36 1.776-4.824h-2.328v-1.104h2.736l1.728-4.656h-4.464v-1.104h4.872l1.944-5.184.984.36-1.8 4.824H575l1.944-5.184.984.336-1.8 4.848h2.424v1.104h-2.832l-1.704 4.656h4.536v1.104h-4.944l-1.92 5.184-1.008-.36zm-1.128-10.584l-1.728 4.656h5.04l1.728-4.656h-5.04zm10.211-4.824v-1.248h13.752v1.248h-6.216v15.552h-1.32V90.981h-6.216zm13.535 14.184c-1.056-1.056-1.584-2.4-1.584-4.032 0-1.632.528-2.976 1.584-4.032s2.416-1.584 4.08-1.584c1.664 0 3.024.528 4.08 1.584s1.584 2.4 1.584 4.032c0 1.632-.528 2.976-1.584 4.032s-2.416 1.584-4.08 1.584c-1.664 0-3.024-.528-4.08-1.584zm.96-7.224c-.816.832-1.224 1.896-1.224 3.192 0 1.296.408 2.36 1.224 3.192.816.832 1.856 1.248 3.12 1.248 1.28 0 2.32-.408 3.12-1.224.816-.832 1.224-1.904 1.224-3.216 0-1.296-.408-2.36-1.224-3.192-.816-.832-1.856-1.248-3.12-1.248-1.248 0-2.288.416-3.12 1.248zm11.841 8.592v-10.8c.272 0 .784-.008 1.536-.024a47.945 47.945 0 011.944-.048c1.488 0 2.6.224 3.336.672.752.448 1.128 1.152 1.128 2.112 0 .608-.192 1.144-.576 1.608-.384.464-.92.752-1.608.864v.048c1.728.272 2.592 1.136 2.592 2.592 0 2.032-1.608 3.048-4.824 3.048-.48 0-1.112-.016-1.896-.048a94.493 94.493 0 00-1.632-.024zm3.84-4.968h-2.592v3.816a71.53 71.53 0 002.424.048c2.24 0 3.36-.664 3.36-1.992 0-1.248-1.064-1.872-3.192-1.872zm-.216-4.728c-.784 0-1.576.016-2.376.048v3.648h2.856c.784 0 1.4-.168 1.848-.504.448-.352.672-.816.672-1.392 0-1.2-1-1.8-3-1.8zm8.267.696l-.336-1.032a6.384 6.384 0 013.432-.984c1.44 0 2.464.36 3.072 1.08.624.72.936 1.8.936 3.24v6.696h-1.248v-1.656c-.88 1.2-2.112 1.8-3.696 1.8-1.008 0-1.816-.288-2.424-.864-.608-.592-.912-1.376-.912-2.352 0-1.056.384-1.88 1.152-2.472.768-.592 1.752-.888 2.952-.888s2.176.272 2.928.816c0-.608-.016-1.088-.048-1.44a5.048 5.048 0 00-.192-1.128c-.096-.416-.24-.728-.432-.936-.192-.208-.472-.376-.84-.504-.352-.144-.792-.216-1.32-.216-.992 0-2 .28-3.024.84zm2.544 7.968c1.344 0 2.448-.568 3.312-1.704v-1.8c-.784-.576-1.72-.864-2.808-.864-.784 0-1.464.192-2.04.576-.576.384-.864.944-.864 1.68 0 .656.224 1.176.672 1.56.464.368 1.04.552 1.728.552zm8.135 5.832v-15.6h1.248v1.44c.416-.48.984-.872 1.704-1.176a5.607 5.607 0 012.256-.48c1.536 0 2.76.504 3.672 1.512.912 1.008 1.368 2.32 1.368 3.936 0 1.664-.512 3.048-1.536 4.152-1.024 1.088-2.36 1.632-4.008 1.632-1.472 0-2.624-.304-3.456-.912v5.496h-1.248zm4.872-14.64c-.72 0-1.416.168-2.088.504-.656.32-1.168.712-1.536 1.176v6.216c.992.656 2.112.984 3.36.984 1.296 0 2.336-.424 3.12-1.272.8-.848 1.2-1.936 1.2-3.264 0-1.312-.36-2.36-1.08-3.144-.704-.8-1.696-1.2-2.976-1.2zm8.418 9.84v-10.8h1.248v3.624h1.872c2.848 0 4.272 1.184 4.272 3.552 0 1.056-.344 1.928-1.032 2.616-.688.672-1.816 1.008-3.384 1.008h-2.976zm2.904-6h-1.656v4.824h1.632c1.152 0 1.968-.2 2.448-.6.496-.416.744-1.024.744-1.824 0-1.6-1.056-2.4-3.168-2.4zm6.96 6v-10.8h1.248v10.8h-1.248zm9.034 2.736v-3.912h1.344c.384-.496.744-1.32 1.08-2.472.352-1.168.576-2.536.672-4.104l.168-3.048h6.888v9.624h1.8v3.912h-1.176v-2.736h-9.6v2.736h-1.176zm4.296-10.008c-.112 1.44-.336 2.72-.672 3.84-.32 1.104-.64 1.856-.96 2.256h6.24v-8.448h-4.464l-.144 2.352zm18.514 4.992l.408.96c-.976 1.024-2.304 1.536-3.984 1.536-1.712 0-3.096-.512-4.152-1.536s-1.584-2.384-1.584-4.08c0-1.632.48-2.976 1.44-4.032.976-1.056 2.32-1.584 4.032-1.584 1.408 0 2.576.448 3.504 1.344.928.896 1.392 2.072 1.392 3.528 0 .384-.024.72-.072 1.008h-8.904c.048 1.296.472 2.32 1.272 3.072.8.736 1.848 1.104 3.144 1.104 1.488 0 2.656-.44 3.504-1.32zm-3.96-7.56c-1.168 0-2.104.344-2.808 1.032-.704.672-1.112 1.552-1.224 2.64h7.776c-.016-1.136-.36-2.032-1.032-2.688-.672-.656-1.576-.984-2.712-.984zm6.113.288v-1.248h9.84v1.248h-4.296v9.552h-1.248v-9.552h-4.296zm16.149-1.248h3.216v10.8h-1.248v-4.032h-2.688l-3.096 4.032h-1.536l3.408-4.32c-.688-.112-1.296-.44-1.824-.984-.512-.56-.768-1.256-.768-2.088 0-.992.36-1.808 1.08-2.448.72-.64 1.872-.96 3.456-.96zm-3.216 3.432c0 .64.248 1.16.744 1.56.496.4 1.024.6 1.584.6h2.856v-4.416h-2.184c-1.024 0-1.784.208-2.28.624-.48.416-.72.96-.72 1.632zm10.213 7.368v-10.8h1.176l4.488 6.024 4.32-6.024h1.128v10.8h-1.248v-8.904l-4.2 5.832h-.072l-4.344-5.832v8.904h-1.248z" fill="#141414"/><rect x="536.5" y="148.1" width="212" height="48.667" rx="6.5" fill="#F6F4F2" stroke="#C5CDCF" stroke-width="3"/><path d="M573.68 178.723l1.776-4.824h-5.04l-1.92 5.184-.984-.36 1.776-4.824h-2.328v-1.104h2.736l1.728-4.656h-4.464v-1.104h4.872l1.944-5.184.984.36-1.8 4.824H578l1.944-5.184.984.336-1.8 4.848h2.424v1.104h-2.832l-1.704 4.656h4.536v1.104h-4.944l-1.92 5.184-1.008-.36zm-1.128-10.584l-1.728 4.656h5.04l1.728-4.656h-5.04zm10.475 10.728l7.32-16.944h1.08l7.32 16.944h-1.416l-2.448-5.712h-8.064l-2.448 5.712h-1.344zm7.824-15.12l-3.504 8.16h6.984l-3.48-8.16zm10.303 15.12v-10.8c.272 0 .784-.008 1.536-.024a47.945 47.945 0 011.944-.048c1.488 0 2.6.224 3.336.672.752.448 1.128 1.152 1.128 2.112 0 .608-.192 1.144-.576 1.608-.384.464-.92.752-1.608.864v.048c1.728.272 2.592 1.136 2.592 2.592 0 2.032-1.608 3.048-4.824 3.048-.48 0-1.112-.016-1.896-.048a94.493 94.493 0 00-1.632-.024zm3.84-4.968h-2.592v3.816a71.53 71.53 0 002.424.048c2.24 0 3.36-.664 3.36-1.992 0-1.248-1.064-1.872-3.192-1.872zm-.216-4.728c-.784 0-1.576.016-2.376.048v3.648h2.856c.784 0 1.4-.168 1.848-.504.448-.352.672-.816.672-1.392 0-1.2-1-1.8-3-1.8zm6.347.144v-1.248h9.84v1.248h-4.296v9.552h-1.248v-9.552h-4.296zm12.478 8.184c-1.056-1.056-1.584-2.4-1.584-4.032 0-1.632.528-2.976 1.584-4.032s2.416-1.584 4.08-1.584c1.664 0 3.024.528 4.08 1.584s1.584 2.4 1.584 4.032c0 1.632-.528 2.976-1.584 4.032s-2.416 1.584-4.08 1.584c-1.664 0-3.024-.528-4.08-1.584zm.96-7.224c-.816.832-1.224 1.896-1.224 3.192 0 1.296.408 2.36 1.224 3.192.816.832 1.856 1.248 3.12 1.248 1.28 0 2.32-.408 3.12-1.224.816-.832 1.224-1.904 1.224-3.216 0-1.296-.408-2.36-1.224-3.192-.816-.832-1.856-1.248-3.12-1.248-1.248 0-2.288.416-3.12 1.248zm12.149 2.664v-1.176h5.496v1.176h-5.496zm7.67-3.624v-1.248h9.84v1.248h-4.296v9.552h-1.248v-9.552h-4.296zm12.478 8.184c-1.056-1.056-1.584-2.4-1.584-4.032 0-1.632.528-2.976 1.584-4.032s2.416-1.584 4.08-1.584c1.664 0 3.024.528 4.08 1.584s1.584 2.4 1.584 4.032c0 1.632-.528 2.976-1.584 4.032s-2.416 1.584-4.08 1.584c-1.664 0-3.024-.528-4.08-1.584zm.96-7.224c-.816.832-1.224 1.896-1.224 3.192 0 1.296.408 2.36 1.224 3.192.816.832 1.856 1.248 3.12 1.248 1.28 0 2.32-.408 3.12-1.224.816-.832 1.224-1.904 1.224-3.216 0-1.296-.408-2.36-1.224-3.192-.816-.832-1.856-1.248-3.12-1.248-1.248 0-2.288.416-3.12 1.248zm11.842 8.592v-10.8c.272 0 .784-.008 1.536-.024a47.945 47.945 0 011.944-.048c1.488 0 2.6.224 3.336.672.752.448 1.128 1.152 1.128 2.112 0 .608-.192 1.144-.576 1.608-.384.464-.92.752-1.608.864v.048c1.728.272 2.592 1.136 2.592 2.592 0 2.032-1.608 3.048-4.824 3.048-.48 0-1.112-.016-1.896-.048a94.493 94.493 0 00-1.632-.024zm3.84-4.968h-2.592v3.816a71.53 71.53 0 002.424.048c2.24 0 3.36-.664 3.36-1.992 0-1.248-1.064-1.872-3.192-1.872zm-.216-4.728c-.784 0-1.576.016-2.376.048v3.648h2.856c.784 0 1.4-.168 1.848-.504.448-.352.672-.816.672-1.392 0-1.2-1-1.8-3-1.8zm8.266.696l-.336-1.032a6.384 6.384 0 013.432-.984c1.44 0 2.464.36 3.072 1.08.624.72.936 1.8.936 3.24v6.696h-1.248v-1.656c-.88 1.2-2.112 1.8-3.696 1.8-1.008 0-1.816-.288-2.424-.864-.608-.592-.912-1.376-.912-2.352 0-1.056.384-1.88 1.152-2.472.768-.592 1.752-.888 2.952-.888s2.176.272 2.928.816c0-.608-.016-1.088-.048-1.44a5.048 5.048 0 00-.192-1.128c-.096-.416-.24-.728-.432-.936-.192-.208-.472-.376-.84-.504-.352-.144-.792-.216-1.32-.216-.992 0-2 .28-3.024.84zm2.544 7.968c1.344 0 2.448-.568 3.312-1.704v-1.8c-.784-.576-1.72-.864-2.808-.864-.784 0-1.464.192-2.04.576-.576.384-.864.944-.864 1.68 0 .656.224 1.176.672 1.56.464.368 1.04.552 1.728.552zm8.136 5.832v-15.6h1.248v1.44c.416-.48.984-.872 1.704-1.176a5.607 5.607 0 012.256-.48c1.536 0 2.76.504 3.672 1.512.912 1.008 1.368 2.32 1.368 3.936 0 1.664-.512 3.048-1.536 4.152-1.024 1.088-2.36 1.632-4.008 1.632-1.472 0-2.624-.304-3.456-.912v5.496h-1.248zm4.872-14.64c-.72 0-1.416.168-2.088.504-.656.32-1.168.712-1.536 1.176v6.216c.992.656 2.112.984 3.36.984 1.296 0 2.336-.424 3.12-1.272.8-.848 1.2-1.936 1.2-3.264 0-1.312-.36-2.36-1.08-3.144-.704-.8-1.696-1.2-2.976-1.2zm8.417 9.84v-10.8h1.248v3.624h1.872c2.848 0 4.272 1.184 4.272 3.552 0 1.056-.344 1.928-1.032 2.616-.688.672-1.816 1.008-3.384 1.008h-2.976zm2.904-6h-1.656v4.824h1.632c1.152 0 1.968-.2 2.448-.6.496-.416.744-1.024.744-1.824 0-1.6-1.056-2.4-3.168-2.4zm6.96 6v-10.8h1.248v10.8h-1.248z" fill="#141414"/><rect x="536.5" y="220.433" width="212" height="48.667" rx="6.5" fill="#F6F4F2" stroke="#C5CDCF" stroke-width="3"/><path d="M594.68 251.056l1.776-4.824h-5.04l-1.92 5.184-.984-.36 1.776-4.824h-2.328v-1.104h2.736l1.728-4.656h-4.464v-1.104h4.872l1.944-5.184.984.36-1.8 4.824H599l1.944-5.184.984.336-1.8 4.848h2.424v1.104h-2.832l-1.704 4.656h4.536v1.104h-4.944l-1.92 5.184-1.008-.36zm-1.128-10.584l-1.728 4.656h5.04l1.728-4.656h-5.04zm24.371 10.728v-15.552h-10.416V251.2h-1.32v-16.8h13.056v16.8h-1.32zm6.687-1.368c-1.056-1.056-1.584-2.4-1.584-4.032 0-1.632.528-2.976 1.584-4.032s2.416-1.584 4.08-1.584c1.664 0 3.024.528 4.08 1.584s1.584 2.4 1.584 4.032c0 1.632-.528 2.976-1.584 4.032s-2.416 1.584-4.08 1.584c-1.664 0-3.024-.528-4.08-1.584zm.96-7.224c-.816.832-1.224 1.896-1.224 3.192 0 1.296.408 2.36 1.224 3.192.816.832 1.856 1.248 3.12 1.248 1.28 0 2.32-.408 3.12-1.224.816-.832 1.224-1.904 1.224-3.216 0-1.296-.408-2.36-1.224-3.192-.816-.832-1.856-1.248-3.12-1.248-1.248 0-2.288.416-3.12 1.248zm9.717 11.328v-3.912h1.344c.384-.496.744-1.32 1.08-2.472.352-1.168.576-2.536.672-4.104l.168-3.048h6.888v9.624h1.8v3.912h-1.176V251.2h-9.6v2.736h-1.176zm4.296-10.008c-.112 1.44-.336 2.72-.672 3.84-.32 1.104-.64 1.856-.96 2.256h6.24v-8.448h-4.464l-.144 2.352zm10.305-1.728l-.336-1.032a6.384 6.384 0 013.432-.984c1.44 0 2.464.36 3.072 1.08.624.72.936 1.8.936 3.24v6.696h-1.248v-1.656c-.88 1.2-2.112 1.8-3.696 1.8-1.008 0-1.816-.288-2.424-.864-.608-.592-.912-1.376-.912-2.352 0-1.056.384-1.88 1.152-2.472.768-.592 1.752-.888 2.952-.888s2.176.272 2.928.816c0-.608-.016-1.088-.048-1.44a5.048 5.048 0 00-.192-1.128c-.096-.416-.24-.728-.432-.936-.192-.208-.472-.376-.84-.504-.352-.144-.792-.216-1.32-.216-.992 0-2 .28-3.024.84zm2.544 7.968c1.344 0 2.448-.568 3.312-1.704v-1.8c-.784-.576-1.72-.864-2.808-.864-.784 0-1.464.192-2.04.576-.576.384-.864.944-.864 1.68 0 .656.224 1.176.672 1.56.464.368 1.04.552 1.728.552zm8.136 5.832v-15.6h1.248v1.44c.416-.48.984-.872 1.704-1.176a5.607 5.607 0 012.256-.48c1.536 0 2.76.504 3.672 1.512.912 1.008 1.368 2.32 1.368 3.936 0 1.664-.512 3.048-1.536 4.152-1.024 1.088-2.36 1.632-4.008 1.632-1.472 0-2.624-.304-3.456-.912V256h-1.248zm4.872-14.64c-.72 0-1.416.168-2.088.504-.656.32-1.168.712-1.536 1.176v6.216c.992.656 2.112.984 3.36.984 1.296 0 2.336-.424 3.12-1.272.8-.848 1.2-1.936 1.2-3.264 0-1.312-.36-2.36-1.08-3.144-.704-.8-1.696-1.2-2.976-1.2zm17.225-.96l-5.328 5.16 5.76 5.64h-1.68l-5.592-5.568 5.232-5.232h1.608zm-8.808 10.8v-10.8h1.248v10.8h-1.248zm12.873 0h-1.248v-10.8h1.248v9l7.2-9h1.248v10.8h-1.248v-9l-7.2 9z" fill="#141414"/><path d="M750 243.733h33c5.523 0 10-4.477 10-10V159m0 0v-51 0c0-4.934-4-8.933-8.933-8.933H750M793 159v1.367c0 5.523-4.477 10-10 10h-33m45-38.234h545.5" stroke="#C5CDCF" stroke-width="5"/><path d="M1046 169.333V142c0-5.523-4.48-10-10-10h-2m163 37.333V142c0-5.523-4.48-10-10-10h-2m163 37.333V142c0-5.523-4.48-10-10-10h-2" stroke="#C5CDCF" stroke-width="5" stroke-linecap="round"/><path d="M895 168.817V142.65c0-5.523-4.477-10-10-10h-81.908c-5.559 0-10.05-4.533-9.999-10.092l.814-88.833c.051-5.558-4.44-10.092-9.999-10.092H750" stroke="#7C267B" stroke-width="5"/></svg>