<svg width="1572" height="569" viewBox="0 0 1572 569" fill="none" xmlns="http://www.w3.org/2000/svg"><rect width="344" height="89" rx="8" fill="#F6F4F2"/><path d="M80.762 50.976V34.224c2.224-.064 3.696-.096 4.416-.096 3.536 0 5.304 1.384 5.304 4.152 0 1.024-.296 1.88-.888 2.568-.592.672-1.384 1.128-2.376 1.368v.048c1.248.144 2.208.568 2.88 1.272.688.688 1.032 1.608 1.032 2.76 0 1.568-.536 2.76-1.608 3.576-1.056.8-2.512 1.2-4.368 1.2-1.76 0-3.224-.032-4.392-.096zm4.512-7.968h-3.192v6.72c1.6.064 2.64.096 3.12.096 1.488 0 2.624-.304 3.408-.912.8-.608 1.2-1.504 1.2-2.688 0-1.024-.392-1.816-1.176-2.376-.784-.56-1.904-.84-3.36-.84zm-.144-7.632c-.688 0-1.704.024-3.048.072v6.384h3.264c1.104 0 2.008-.296 2.712-.888.736-.592 1.104-1.392 1.104-2.4 0-2.112-1.344-3.168-4.032-3.168zm15.181 2.736l-.672-1.008 3.816-3.048h.864V51h-1.248V35.88l-2.76 2.232zm21.577 10.272l.528.984c-.576.576-1.336 1.032-2.28 1.368-.928.32-1.904.48-2.928.48-2.496 0-4.528-.784-6.096-2.352-1.552-1.552-2.328-3.64-2.328-6.264 0-2.48.752-4.528 2.256-6.144 1.504-1.648 3.496-2.472 5.976-2.472 2.128 0 3.824.528 5.088 1.584l-.624.984c-1.136-.88-2.616-1.32-4.44-1.32-2.048 0-3.704.696-4.968 2.088-1.264 1.36-1.896 3.12-1.896 5.28 0 2.192.656 3.968 1.968 5.328 1.312 1.36 3.032 2.04 5.16 2.04 1.76 0 3.288-.528 4.584-1.584zm12.231 2.832c-.736 0-1.552-.136-2.448-.408-.848-.256-1.448-.6-1.8-1.032l.648-.96c.416.384.936.688 1.56.912a5.97 5.97 0 001.848.312c1.008 0 1.816-.2 2.424-.6.608-.4.912-.936.912-1.608 0-.56-.224-1-.672-1.32-.448-.32-1.056-.48-1.824-.48h-1.824V45h1.704c.608 0 1.128-.192 1.56-.576.432-.384.648-.848.648-1.392 0-.608-.24-1.072-.72-1.392-.48-.32-1.152-.48-2.016-.48-1.264 0-2.392.4-3.384 1.2l-.504-.96c.912-.944 2.264-1.416 4.056-1.416 1.232 0 2.184.256 2.856.768.688.496 1.032 1.184 1.032 2.064 0 1.264-.648 2.128-1.944 2.592v.048c.736.064 1.312.336 1.728.816.416.464.624 1.04.624 1.728 0 .992-.408 1.776-1.224 2.352-.816.576-1.896.864-3.24.864zM142.111 42l-.336-1.032c1.072-.656 2.216-.984 3.432-.984 1.408 0 2.424.352 3.048 1.056.64.704.96 1.792.96 3.264V51h-1.248v-1.656c-.88 1.2-2.112 1.8-3.696 1.8-1.008 0-1.816-.288-2.424-.864-.608-.592-.912-1.376-.912-2.352 0-1.056.384-1.88 1.152-2.472.752-.592 1.736-.888 2.952-.888s2.192.272 2.928.816c0-1.12-.08-1.976-.24-2.568-.128-.576-.392-.984-.792-1.224-.384-.24-.984-.384-1.8-.432-.976 0-1.984.28-3.024.84zm2.544 7.968c1.344 0 2.448-.568 3.312-1.704v-1.8c-.784-.576-1.72-.864-2.808-.864-.816 0-1.504.2-2.064.6-.56.4-.84.952-.84 1.656 0 .64.224 1.152.672 1.536.448.384 1.024.576 1.728.576zM152.791 51V40.2c.528 0 1.04-.008 1.536-.024a85.964 85.964 0 011.944-.048c2.976 0 4.464.928 4.464 2.784 0 .624-.2 1.168-.6 1.632-.384.448-.912.728-1.584.84v.048c1.728.256 2.592 1.12 2.592 2.592 0 2.032-1.608 3.048-4.824 3.048-.208 0-.84-.016-1.896-.048a53.912 53.912 0 00-1.632-.024zm3.84-4.968h-2.592v3.816c1.248.032 2.056.048 2.424.048 2.24 0 3.36-.664 3.36-1.992 0-1.248-1.064-1.872-3.192-1.872zm-.216-4.728c-.528 0-1.32.016-2.376.048V45h2.856c.784 0 1.4-.168 1.848-.504.448-.352.672-.816.672-1.392 0-1.2-1-1.8-3-1.8zm16.474 7.416l.408.96c-.976 1.024-2.304 1.536-3.984 1.536-1.728 0-3.112-.512-4.152-1.536-1.056-1.024-1.584-2.384-1.584-4.08 0-1.632.48-2.976 1.44-4.032.976-1.056 2.32-1.584 4.032-1.584 1.392 0 2.56.448 3.504 1.344.928.88 1.392 2.056 1.392 3.528 0 .384-.024.72-.072 1.008h-8.904c.048 1.296.472 2.32 1.272 3.072.8.736 1.848 1.104 3.144 1.104 1.504 0 2.672-.44 3.504-1.32zm-3.96-7.56c-1.152 0-2.088.336-2.808 1.008-.704.672-1.112 1.56-1.224 2.664h7.776c-.016-1.136-.36-2.032-1.032-2.688-.672-.656-1.576-.984-2.712-.984zM185.318 51h-1.248v-9.552h-4.56l-.144 2.352c-.208 3.04-.712 5.056-1.512 6.048-.64.832-1.432 1.248-2.376 1.248l-.096-1.224c.416 0 .808-.192 1.176-.576.88-.816 1.416-2.728 1.608-5.736l.168-3.36h6.984V51zm12.249-9l-7.2 9h-1.248V40.2h1.248v9l7.2-9h1.248V51h-1.248v-9zm13.389-.552h-4.296V40.2h9.84v1.248h-4.296V51h-1.248v-9.552zm12.262 9.768c-1.664 0-3.024-.528-4.08-1.584s-1.584-2.4-1.584-4.032c0-1.632.528-2.976 1.584-4.032s2.416-1.584 4.08-1.584c1.664 0 3.024.528 4.08 1.584s1.584 2.4 1.584 4.032c0 1.632-.528 2.976-1.584 4.032s-2.416 1.584-4.08 1.584zm0-1.176c1.296 0 2.336-.408 3.12-1.224.816-.832 1.224-1.904 1.224-3.216 0-1.296-.408-2.36-1.224-3.192-.816-.832-1.856-1.248-3.12-1.248-1.248 0-2.288.416-3.12 1.248-.816.832-1.224 1.896-1.224 3.192 0 1.296.408 2.36 1.224 3.192.816.832 1.856 1.248 3.12 1.248zm8.721.96V40.2c.528 0 1.04-.008 1.536-.024a85.964 85.964 0 011.944-.048c2.976 0 4.464.928 4.464 2.784 0 .624-.2 1.168-.6 1.632-.384.448-.912.728-1.584.84v.048c1.728.256 2.592 1.12 2.592 2.592 0 2.032-1.608 3.048-4.824 3.048-.208 0-.84-.016-1.896-.048a53.912 53.912 0 00-1.632-.024zm3.84-4.968h-2.592v3.816c1.248.032 2.056.048 2.424.048 2.24 0 3.36-.664 3.36-1.992 0-1.248-1.064-1.872-3.192-1.872zm-.216-4.728c-.528 0-1.32.016-2.376.048V45h2.856c.784 0 1.4-.168 1.848-.504.448-.352.672-.816.672-1.392 0-1.2-1-1.8-3-1.8zm8.267.696l-.336-1.032c1.072-.656 2.216-.984 3.432-.984 1.408 0 2.424.352 3.048 1.056.64.704.96 1.792.96 3.264V51h-1.248v-1.656c-.88 1.2-2.112 1.8-3.696 1.8-1.008 0-1.816-.288-2.424-.864-.608-.592-.912-1.376-.912-2.352 0-1.056.384-1.88 1.152-2.472.752-.592 1.736-.888 2.952-.888s2.192.272 2.928.816c0-1.12-.08-1.976-.24-2.568-.128-.576-.392-.984-.792-1.224-.384-.24-.984-.384-1.8-.432-.976 0-1.984.28-3.024.84zm2.544 7.968c1.344 0 2.448-.568 3.312-1.704v-1.8c-.784-.576-1.72-.864-2.808-.864-.816 0-1.504.2-2.064.6-.56.4-.84.952-.84 1.656 0 .64.224 1.152.672 1.536.448.384 1.024.576 1.728.576zm9.383 5.832h-1.248V40.2h1.248v1.44c.432-.48 1.008-.872 1.728-1.176.736-.32 1.48-.48 2.232-.48 1.536 0 2.76.504 3.672 1.512.912 1.008 1.368 2.32 1.368 3.936 0 1.68-.512 3.064-1.536 4.152-1.04 1.088-2.376 1.632-4.008 1.632-1.456 0-2.608-.304-3.456-.912V55.8zm3.624-14.64c-.704 0-1.392.16-2.064.48-.656.32-1.176.72-1.56 1.2v6.216c.992.656 2.112.984 3.36.984 1.28 0 2.32-.424 3.12-1.272.8-.848 1.2-1.936 1.2-3.264 0-1.328-.36-2.384-1.08-3.168-.72-.784-1.712-1.176-2.976-1.176z" fill="#141414"/><rect x="737" y="281" width="344" height="89" rx="8" fill="#F6F4F2"/><path d="M808.258 331.976v-16.752c2.224-.064 3.696-.096 4.416-.096 3.536 0 5.304 1.384 5.304 4.152 0 1.024-.296 1.88-.888 2.568-.592.672-1.384 1.128-2.376 1.368v.048c1.248.144 2.208.568 2.88 1.272.688.688 1.032 1.608 1.032 2.76 0 1.568-.536 2.76-1.608 3.576-1.056.8-2.512 1.2-4.368 1.2-1.76 0-3.224-.032-4.392-.096zm4.512-7.968h-3.192v6.72c1.6.064 2.64.096 3.12.096 1.488 0 2.624-.304 3.408-.912.8-.608 1.2-1.504 1.2-2.688 0-1.024-.392-1.816-1.176-2.376-.784-.56-1.904-.84-3.36-.84zm-.144-7.632c-.688 0-1.704.024-3.048.072v6.384h3.264c1.104 0 2.008-.296 2.712-.888.736-.592 1.104-1.392 1.104-2.4 0-2.112-1.344-3.168-4.032-3.168zm15.181 2.736l-.672-1.008 3.816-3.048h.864V332h-1.248v-15.12l-2.76 2.232zm21.577 10.272l.528.984c-.576.576-1.336 1.032-2.28 1.368-.928.32-1.904.48-2.928.48-2.496 0-4.528-.784-6.096-2.352-1.552-1.552-2.328-3.64-2.328-6.264 0-2.48.752-4.528 2.256-6.144 1.504-1.648 3.496-2.472 5.976-2.472 2.128 0 3.824.528 5.088 1.584l-.624.984c-1.136-.88-2.616-1.32-4.44-1.32-2.048 0-3.704.696-4.968 2.088-1.264 1.36-1.896 3.12-1.896 5.28 0 2.192.656 3.968 1.968 5.328 1.312 1.36 3.032 2.04 5.16 2.04 1.76 0 3.288-.528 4.584-1.584zm17.295.168l.624.912c-.432.56-1.016.992-1.752 1.296a5.923 5.923 0 01-2.328.456c-1.68 0-3.056-.512-4.128-1.536-1.056-1.024-1.584-2.384-1.584-4.08 0-1.584.512-2.912 1.536-3.984 1.04-1.088 2.32-1.632 3.84-1.632 1.856 0 3.256.448 4.2 1.344l-.6 1.008c-.848-.784-1.984-1.176-3.408-1.176-1.152 0-2.152.424-3 1.272-.832.832-1.248 1.888-1.248 3.168 0 1.344.424 2.424 1.272 3.24.848.8 1.92 1.2 3.216 1.2 1.392 0 2.512-.496 3.36-1.488zm7.676 2.664c-1.664 0-3.024-.528-4.08-1.584s-1.584-2.4-1.584-4.032c0-1.632.528-2.976 1.584-4.032s2.416-1.584 4.08-1.584c1.664 0 3.024.528 4.08 1.584s1.584 2.4 1.584 4.032c0 1.632-.528 2.976-1.584 4.032s-2.416 1.584-4.08 1.584zm0-1.176c1.296 0 2.336-.408 3.12-1.224.816-.832 1.224-1.904 1.224-3.216 0-1.296-.408-2.36-1.224-3.192-.816-.832-1.856-1.248-3.12-1.248-1.248 0-2.288.416-3.12 1.248-.816.832-1.224 1.896-1.224 3.192 0 1.296.408 2.36 1.224 3.192.816.832 1.856 1.248 3.12 1.248zm12.057 1.176c-.736 0-1.552-.136-2.448-.408-.848-.256-1.448-.6-1.8-1.032l.648-.96c.416.384.936.688 1.56.912a5.97 5.97 0 001.848.312c1.008 0 1.816-.2 2.424-.6.608-.4.912-.936.912-1.608 0-.56-.224-1-.672-1.32-.448-.32-1.056-.48-1.824-.48h-1.824V326h1.704c.608 0 1.128-.192 1.56-.576.432-.384.648-.848.648-1.392 0-.608-.24-1.072-.72-1.392-.48-.32-1.152-.48-2.016-.48-1.264 0-2.392.4-3.384 1.2l-.504-.96c.912-.944 2.264-1.416 4.056-1.416 1.232 0 2.184.256 2.856.768.688.496 1.032 1.184 1.032 2.064 0 1.264-.648 2.128-1.944 2.592v.048c.736.064 1.312.336 1.728.816.416.464.624 1.04.624 1.728 0 .992-.408 1.776-1.224 2.352-.816.576-1.896.864-3.24.864zm7.176 2.52h-1.176v-3.912h1.344c.416-.528.784-1.384 1.104-2.568.336-1.184.552-2.52.648-4.008l.168-3.048h6.888v9.624h1.8v3.912h-1.176V332h-9.6v2.736zm3.264-12.36l-.144 2.352c-.128 1.472-.352 2.752-.672 3.84-.304 1.056-.624 1.808-.96 2.256h6.24v-8.448h-4.464zm10.161.624l-.336-1.032c1.072-.656 2.216-.984 3.432-.984 1.408 0 2.424.352 3.048 1.056.64.704.96 1.792.96 3.264V332h-1.248v-1.656c-.88 1.2-2.112 1.8-3.696 1.8-1.008 0-1.816-.288-2.424-.864-.608-.592-.912-1.376-.912-2.352 0-1.056.384-1.88 1.152-2.472.752-.592 1.736-.888 2.952-.888s2.192.272 2.928.816c0-1.12-.08-1.976-.24-2.568-.128-.576-.392-.984-.792-1.224-.384-.24-.984-.384-1.8-.432-.976 0-1.984.28-3.024.84zm2.544 7.968c1.344 0 2.448-.568 3.312-1.704v-1.8c-.784-.576-1.72-.864-2.808-.864-.816 0-1.504.2-2.064.6-.56.4-.84.952-.84 1.656 0 .64.224 1.152.672 1.536.448.384 1.024.576 1.728.576zM926.549 332h-1.248v-9.552h-4.56l-.144 2.352c-.208 3.04-.712 5.056-1.512 6.048-.64.832-1.432 1.248-2.376 1.248l-.096-1.224c.416 0 .808-.192 1.176-.576.88-.816 1.416-2.728 1.608-5.736l.168-3.36h6.984V332zm12.2-2.448l.624.912c-.432.56-1.016.992-1.752 1.296a5.923 5.923 0 01-2.328.456c-1.68 0-3.056-.512-4.128-1.536-1.056-1.024-1.584-2.384-1.584-4.08 0-1.584.512-2.912 1.536-3.984 1.04-1.088 2.32-1.632 3.84-1.632 1.856 0 3.256.448 4.2 1.344l-.6 1.008c-.848-.784-1.984-1.176-3.408-1.176-1.152 0-2.152.424-3 1.272-.832.832-1.248 1.888-1.248 3.168 0 1.344.424 2.424 1.272 3.24.848.8 1.92 1.2 3.216 1.2 1.392 0 2.512-.496 3.36-1.488zm7.267-8.352h3.216V332h-1.248v-4.032h-2.688L942.2 332h-1.536l3.408-4.32c-.72-.112-1.336-.448-1.848-1.008-.496-.576-.744-1.264-.744-2.064 0-1.04.376-1.864 1.128-2.472.752-.624 1.888-.936 3.408-.936zm-3.216 3.432c0 .64.248 1.16.744 1.56.496.4 1.024.6 1.584.6h2.856v-4.416H945.8c-.992 0-1.744.208-2.256.624-.496.4-.744.944-.744 1.632zm19.198 7.584c-.736 0-1.552-.136-2.448-.408-.848-.256-1.448-.6-1.8-1.032l.648-.96c.416.384.936.688 1.56.912a5.97 5.97 0 001.848.312c1.008 0 1.816-.2 2.424-.6.608-.4.912-.936.912-1.608 0-.56-.224-1-.672-1.32-.448-.32-1.056-.48-1.824-.48h-1.824V326h1.704c.608 0 1.128-.192 1.56-.576.432-.384.648-.848.648-1.392 0-.608-.24-1.072-.72-1.392-.48-.32-1.152-.48-2.016-.48-1.264 0-2.392.4-3.384 1.2l-.504-.96c.912-.944 2.264-1.416 4.056-1.416 1.232 0 2.184.256 2.856.768.688.496 1.032 1.184 1.032 2.064 0 1.264-.648 2.128-1.944 2.592v.048c.736.064 1.312.336 1.728.816.416.464.624 1.04.624 1.728 0 .992-.408 1.776-1.224 2.352-.816.576-1.896.864-3.24.864zM969.99 323l-.336-1.032c1.072-.656 2.216-.984 3.432-.984 1.408 0 2.424.352 3.048 1.056.64.704.96 1.792.96 3.264V332h-1.248v-1.656c-.88 1.2-2.112 1.8-3.696 1.8-1.008 0-1.816-.288-2.424-.864-.608-.592-.912-1.376-.912-2.352 0-1.056.384-1.88 1.152-2.472.752-.592 1.736-.888 2.952-.888s2.192.272 2.928.816c0-1.12-.08-1.976-.24-2.568-.128-.576-.392-.984-.792-1.224-.384-.24-.984-.384-1.8-.432-.976 0-1.984.28-3.024.84zm2.544 7.968c1.344 0 2.448-.568 3.312-1.704v-1.8c-.784-.576-1.72-.864-2.808-.864-.816 0-1.504.2-2.064.6-.56.4-.84.952-.84 1.656 0 .64.224 1.152.672 1.536.448.384 1.024.576 1.728.576zm15.335-9.768h1.608l-5.328 5.16 5.76 5.64h-1.68l-5.592-5.568 5.232-5.232zm-5.952 10.8h-1.248v-10.8h1.248V332zm10.713-9l-.336-1.032c1.072-.656 2.216-.984 3.432-.984 1.408 0 2.424.352 3.048 1.056.64.704.96 1.792.96 3.264V332h-1.248v-1.656c-.88 1.2-2.112 1.8-3.696 1.8-1.008 0-1.816-.288-2.424-.864-.608-.592-.912-1.376-.912-2.352 0-1.056.384-1.88 1.152-2.472.752-.592 1.736-.888 2.952-.888s2.192.272 2.928.816c0-1.12-.08-1.976-.24-2.568-.128-.576-.392-.984-.792-1.224-.384-.24-.984-.384-1.8-.432-.976 0-1.984.28-3.024.84zm2.544 7.968c1.344 0 2.448-.568 3.312-1.704v-1.8c-.784-.576-1.72-.864-2.808-.864-.816 0-1.504.2-2.064.6-.56.4-.84.952-.84 1.656 0 .64.224 1.152.672 1.536.448.384 1.024.576 1.728.576zm11.476 1.248c-.74 0-1.56-.136-2.45-.408-.85-.256-1.45-.6-1.8-1.032l.65-.96c.41.384.93.688 1.56.912.64.208 1.25.312 1.84.312 1.01 0 1.82-.2 2.43-.6.61-.4.91-.936.91-1.608 0-.56-.22-1-.67-1.32-.45-.32-1.06-.48-1.83-.48h-1.82V326h1.7c.61 0 1.13-.192 1.56-.576.44-.384.65-.848.65-1.392 0-.608-.24-1.072-.72-1.392-.48-.32-1.15-.48-2.01-.48-1.27 0-2.4.4-3.39 1.2l-.5-.96c.91-.944 2.26-1.416 4.05-1.416 1.24 0 2.19.256 2.86.768.69.496 1.03 1.184 1.03 2.064 0 1.264-.65 2.128-1.94 2.592v.048c.73.064 1.31.336 1.73.816.41.464.62 1.04.62 1.728 0 .992-.41 1.776-1.22 2.352-.82.576-1.9.864-3.24.864z" fill="#141414"/><rect x="737" y="445" width="344" height="124" rx="8" fill="#F6F4F2"/><path d="M836.512 495.976v-16.752c2.224-.064 3.696-.096 4.416-.096 3.536 0 5.304 1.384 5.304 4.152 0 1.024-.296 1.88-.888 2.568-.592.672-1.384 1.128-2.376 1.368v.048c1.248.144 2.208.568 2.88 1.272.688.688 1.032 1.608 1.032 2.76 0 1.568-.536 2.76-1.608 3.576-1.056.8-2.512 1.2-4.368 1.2-1.76 0-3.224-.032-4.392-.096zm4.512-7.968h-3.192v6.72c1.6.064 2.64.096 3.12.096 1.488 0 2.624-.304 3.408-.912.8-.608 1.2-1.504 1.2-2.688 0-1.024-.392-1.816-1.176-2.376-.784-.56-1.904-.84-3.36-.84zm-.144-7.632c-.688 0-1.704.024-3.048.072v6.384h3.264c1.104 0 2.008-.296 2.712-.888.736-.592 1.104-1.392 1.104-2.4 0-2.112-1.344-3.168-4.032-3.168zm28.573.984L858.149 496h-1.176v-16.8h1.32v14.64l11.304-14.64h1.176V496h-1.32v-14.64zm7.965 14.64h-1.32v-16.8h1.344l6.768 9.216 6.504-9.216h1.272V496h-1.32v-14.736l-6.456 9.072h-.216l-6.576-9V496zm32.667-10.8h1.416l-4.368 10.8c-.784 1.904-1.464 3.168-2.04 3.792-.576.672-1.248 1.008-2.016 1.008-.592 0-1.208-.184-1.848-.552l.408-.96c.496.24.92.36 1.272.36.544 0 1.032-.24 1.464-.72.432-.464.88-1.248 1.344-2.352l.24-.576-5.328-10.8h1.488l3.696 7.632.768 1.68c.016-.064.216-.64.6-1.728l2.904-7.584zm12.643 11.016c-.736 0-1.552-.136-2.448-.408-.848-.256-1.448-.6-1.8-1.032l.648-.96c.416.384.936.688 1.56.912a5.97 5.97 0 001.848.312c1.008 0 1.816-.2 2.424-.6.608-.4.912-.936.912-1.608 0-.56-.224-1-.672-1.32-.448-.32-1.056-.48-1.824-.48h-1.824V490h1.704c.608 0 1.128-.192 1.56-.576.432-.384.648-.848.648-1.392 0-.608-.24-1.072-.72-1.392-.48-.32-1.152-.48-2.016-.48-1.264 0-2.392.4-3.384 1.2l-.504-.96c.912-.944 2.264-1.416 4.056-1.416 1.232 0 2.184.256 2.856.768.688.496 1.032 1.184 1.032 2.064 0 1.264-.648 2.128-1.944 2.592v.048c.736.064 1.312.336 1.728.816.416.464.624 1.04.624 1.728 0 .992-.408 1.776-1.224 2.352-.816.576-1.896.864-3.24.864zM930.72 487l-.336-1.032c1.072-.656 2.216-.984 3.432-.984 1.408 0 2.424.352 3.048 1.056.64.704.96 1.792.96 3.264V496h-1.248v-1.656c-.88 1.2-2.112 1.8-3.696 1.8-1.008 0-1.816-.288-2.424-.864-.608-.592-.912-1.376-.912-2.352 0-1.056.384-1.88 1.152-2.472.752-.592 1.736-.888 2.952-.888s2.192.272 2.928.816c0-1.12-.08-1.976-.24-2.568-.128-.576-.392-.984-.792-1.224-.384-.24-.984-.384-1.8-.432-.976 0-1.984.28-3.024.84zm2.544 7.968c1.344 0 2.448-.568 3.312-1.704v-1.8c-.784-.576-1.72-.864-2.808-.864-.816 0-1.504.2-2.064.6-.56.4-.84.952-.84 1.656 0 .64.224 1.152.672 1.536.448.384 1.024.576 1.728.576zM948.6 485.2h1.608l-5.328 5.16 5.76 5.64h-1.68l-5.592-5.568 5.232-5.232zm-5.952 10.8H941.4v-10.8h1.248V496zm10.713-9l-.336-1.032c1.072-.656 2.216-.984 3.432-.984 1.408 0 2.424.352 3.048 1.056.64.704.96 1.792.96 3.264V496h-1.248v-1.656c-.88 1.2-2.112 1.8-3.696 1.8-1.008 0-1.816-.288-2.424-.864-.608-.592-.912-1.376-.912-2.352 0-1.056.384-1.88 1.152-2.472.752-.592 1.736-.888 2.952-.888s2.192.272 2.928.816c0-1.12-.08-1.976-.24-2.568-.128-.576-.392-.984-.792-1.224-.384-.24-.984-.384-1.8-.432-.976 0-1.984.28-3.024.84zm2.544 7.968c1.344 0 2.448-.568 3.312-1.704v-1.8c-.784-.576-1.72-.864-2.808-.864-.816 0-1.504.2-2.064.6-.56.4-.84.952-.84 1.656 0 .64.224 1.152.672 1.536.448.384 1.024.576 1.728.576zm11.472 1.248c-.736 0-1.552-.136-2.448-.408-.848-.256-1.448-.6-1.8-1.032l.648-.96c.416.384.936.688 1.56.912a5.97 5.97 0 001.848.312c1.008 0 1.816-.2 2.424-.6.608-.4.912-.936.912-1.608 0-.56-.224-1-.672-1.32-.448-.32-1.056-.48-1.824-.48h-1.824V490h1.704c.608 0 1.128-.192 1.56-.576.432-.384.648-.848.648-1.392 0-.608-.24-1.072-.72-1.392-.48-.32-1.152-.48-2.016-.48-1.264 0-2.392.4-3.384 1.2l-.504-.96c.912-.944 2.264-1.416 4.056-1.416 1.232 0 2.184.256 2.856.768.688.496 1.032 1.184 1.032 2.064 0 1.264-.648 2.128-1.944 2.592v.048c.736.064 1.312.336 1.728.816.416.464.624 1.04.624 1.728 0 .992-.408 1.776-1.224 2.352-.816.576-1.896.864-3.24.864zm7.992-9.216l-.336-1.032c1.072-.656 2.216-.984 3.432-.984 1.408 0 2.424.352 3.048 1.056.64.704.96 1.792.96 3.264V496h-1.248v-1.656c-.88 1.2-2.112 1.8-3.696 1.8-1.008 0-1.816-.288-2.424-.864-.608-.592-.912-1.376-.912-2.352 0-1.056.384-1.88 1.152-2.472.752-.592 1.736-.888 2.952-.888s2.192.272 2.928.816c0-1.12-.08-1.976-.24-2.568-.128-.576-.392-.984-.792-1.224-.384-.24-.984-.384-1.8-.432-.976 0-1.984.28-3.024.84zm2.544 7.968c1.344 0 2.448-.568 3.312-1.704v-1.8c-.784-.576-1.72-.864-2.808-.864-.816 0-1.504.2-2.064.6-.56.4-.84.952-.84 1.656 0 .64.224 1.152.672 1.536.448.384 1.024.576 1.728.576zm-145.57 33.584l.624.912c-.432.56-1.016.992-1.752 1.296a5.923 5.923 0 01-2.328.456c-1.68 0-3.056-.512-4.128-1.536-1.056-1.024-1.584-2.384-1.584-4.08 0-1.584.512-2.912 1.536-3.984 1.04-1.088 2.32-1.632 3.84-1.632 1.856 0 3.256.448 4.2 1.344l-.6 1.008c-.848-.784-1.984-1.176-3.408-1.176-1.152 0-2.152.424-3 1.272-.832.832-1.248 1.888-1.248 3.168 0 1.344.424 2.424 1.272 3.24.848.8 1.92 1.2 3.216 1.2 1.392 0 2.512-.496 3.36-1.488zm4.614 2.448h-1.248v-10.8h1.176l4.488 6.024 4.32-6.024h1.128V531h-1.248v-8.904l-4.2 5.832h-.072l-4.344-5.832V531zm22.225-2.28l.408.96c-.976 1.024-2.304 1.536-3.984 1.536-1.728 0-3.112-.512-4.152-1.536-1.056-1.024-1.584-2.384-1.584-4.08 0-1.632.48-2.976 1.44-4.032.976-1.056 2.32-1.584 4.032-1.584 1.392 0 2.56.448 3.504 1.344.928.88 1.392 2.056 1.392 3.528 0 .384-.024.72-.072 1.008h-8.904c.048 1.296.472 2.32 1.272 3.072.8.736 1.848 1.104 3.144 1.104 1.504 0 2.672-.44 3.504-1.32zm-3.96-7.56c-1.152 0-2.088.336-2.808 1.008-.704.672-1.112 1.56-1.224 2.664h7.776c-.016-1.136-.36-2.032-1.032-2.688-.672-.656-1.576-.984-2.712-.984zm17.506 9.84h-1.248v-4.896h-7.008V531h-1.248v-10.8h1.248v4.728h7.008V520.2h1.248V531zm12.233-9l-7.2 9h-1.248v-10.8h1.248v9l7.2-9h1.248V531h-1.248v-9zm13.885 9h-1.248v-9.552h-4.56l-.144 2.352c-.208 3.04-.712 5.056-1.512 6.048-.64.832-1.432 1.248-2.376 1.248l-.096-1.224c.416 0 .808-.192 1.176-.576.88-.816 1.416-2.728 1.608-5.736l.168-3.36h6.984V531zm12.2-2.448l.624.912c-.432.56-1.016.992-1.752 1.296a5.923 5.923 0 01-2.328.456c-1.68 0-3.056-.512-4.128-1.536-1.056-1.024-1.584-2.384-1.584-4.08 0-1.584.512-2.912 1.536-3.984 1.04-1.088 2.32-1.632 3.84-1.632 1.856 0 3.256.448 4.2 1.344l-.6 1.008c-.848-.784-1.984-1.176-3.408-1.176-1.152 0-2.152.424-3 1.272-.832.832-1.248 1.888-1.248 3.168 0 1.344.424 2.424 1.272 3.24.848.8 1.92 1.2 3.216 1.2 1.392 0 2.512-.496 3.36-1.488zm7.267-8.352h3.216V531h-1.248v-4.032h-2.688L914.497 531h-1.536l3.408-4.32c-.72-.112-1.336-.448-1.848-1.008-.496-.576-.744-1.264-.744-2.064 0-1.04.376-1.864 1.128-2.472.752-.624 1.888-.936 3.408-.936zm-3.216 3.432c0 .64.248 1.16.744 1.56.496.4 1.024.6 1.584.6h2.856v-4.416h-2.184c-.992 0-1.744.208-2.256.624-.496.4-.744.944-.744 1.632zm24.262 4.92l.624.912c-.432.56-1.016.992-1.752 1.296a5.923 5.923 0 01-2.328.456c-1.68 0-3.056-.512-4.128-1.536-1.056-1.024-1.584-2.384-1.584-4.08 0-1.584.512-2.912 1.536-3.984 1.04-1.088 2.32-1.632 3.84-1.632 1.856 0 3.256.448 4.2 1.344l-.6 1.008c-.848-.784-1.984-1.176-3.408-1.176-1.152 0-2.152.424-3 1.272-.832.832-1.248 1.888-1.248 3.168 0 1.344.424 2.424 1.272 3.24.848.8 1.92 1.2 3.216 1.2 1.392 0 2.512-.496 3.36-1.488zm5.983-7.104h-4.296V520.2h9.84v1.248h-4.296V531h-1.248v-9.552zm8.078.552l-.336-1.032c1.072-.656 2.216-.984 3.432-.984 1.408 0 2.424.352 3.048 1.056.64.704.96 1.792.96 3.264V531h-1.248v-1.656c-.88 1.2-2.112 1.8-3.696 1.8-1.008 0-1.816-.288-2.424-.864-.608-.592-.912-1.376-.912-2.352 0-1.056.384-1.88 1.152-2.472.752-.592 1.736-.888 2.952-.888s2.192.272 2.928.816c0-1.12-.08-1.976-.24-2.568-.128-.576-.392-.984-.793-1.224-.383-.24-.983-.384-1.799-.432-.976 0-1.984.28-3.024.84zm2.544 7.968c1.344 0 2.448-.568 3.312-1.704v-1.8c-.784-.576-1.72-.864-2.808-.864-.816 0-1.504.2-2.064.6-.56.4-.84.952-.84 1.656 0 .64.224 1.152.672 1.536.448.384 1.024.576 1.728.576zm10.847-8.52h-4.296V520.2h9.84v1.248h-4.296V531h-1.248v-9.552zm16.036-1.248h1.416l-4.368 10.8c-.784 1.904-1.464 3.168-2.04 3.792-.576.672-1.248 1.008-2.016 1.008-.592 0-1.208-.184-1.848-.552l.408-.96c.496.24.92.36 1.272.36.544 0 1.032-.24 1.464-.72.432-.464.88-1.248 1.344-2.352l.24-.576-5.328-10.8h1.488l3.696 7.632.768 1.68c.016-.064.216-.64.6-1.728l2.904-7.584zm11.637 8.352l.624.912c-.432.56-1.016.992-1.752 1.296a5.923 5.923 0 01-2.328.456c-1.68 0-3.056-.512-4.128-1.536-1.056-1.024-1.584-2.384-1.584-4.08 0-1.584.512-2.912 1.536-3.984 1.04-1.088 2.32-1.632 3.84-1.632 1.856 0 3.256.448 4.2 1.344l-.6 1.008c-.848-.784-1.984-1.176-3.408-1.176-1.152 0-2.152.424-3 1.272-.832.832-1.248 1.888-1.248 3.168 0 1.344.424 2.424 1.272 3.24.848.8 1.92 1.2 3.216 1.2 1.392 0 2.512-.496 3.36-1.488z" fill="#141414"/><rect x="1198" y="445" width="374" height="124" rx="8" fill="#F6F4F2"/><path d="M1310.55 495.976v-16.752c2.23-.064 3.7-.096 4.42-.096 3.54 0 5.3 1.384 5.3 4.152 0 1.024-.29 1.88-.88 2.568-.6.672-1.39 1.128-2.38 1.368v.048c1.25.144 2.21.568 2.88 1.272.69.688 1.03 1.608 1.03 2.76 0 1.568-.53 2.76-1.61 3.576-1.05.8-2.51 1.2-4.36 1.2-1.76 0-3.23-.032-4.4-.096zm4.52-7.968h-3.2v6.72c1.6.064 2.64.096 3.12.096 1.49 0 2.63-.304 3.41-.912.8-.608 1.2-1.504 1.2-2.688 0-1.024-.39-1.816-1.17-2.376-.79-.56-1.91-.84-3.36-.84zm-.15-7.632c-.69 0-1.7.024-3.05.072v6.384h3.27c1.1 0 2.01-.296 2.71-.888.74-.592 1.1-1.392 1.1-2.4 0-2.112-1.34-3.168-4.03-3.168zm28.58.984L1332.19 496h-1.17v-16.8h1.32v14.64l11.3-14.64h1.18V496h-1.32v-14.64zm7.96 14.64h-1.32v-16.8h1.34l6.77 9.216 6.51-9.216h1.27V496h-1.32v-14.736l-6.46 9.072h-.21l-6.58-9V496zm32.67-10.8h1.41l-4.36 10.8c-.79 1.904-1.47 3.168-2.04 3.792-.58.672-1.25 1.008-2.02 1.008-.59 0-1.21-.184-1.85-.552l.41-.96c.5.24.92.36 1.27.36.55 0 1.03-.24 1.47-.72.43-.464.88-1.248 1.34-2.352l.24-.576-5.33-10.8h1.49l3.7 7.632.76 1.68c.02-.064.22-.64.6-1.728l2.91-7.584zm12.02 1.248h-4.3V485.2h9.84v1.248h-4.29V496h-1.25v-9.552zm12.26 9.768c-1.66 0-3.02-.528-4.08-1.584s-1.58-2.4-1.58-4.032c0-1.632.52-2.976 1.58-4.032s2.42-1.584 4.08-1.584c1.66 0 3.02.528 4.08 1.584s1.58 2.4 1.58 4.032c0 1.632-.52 2.976-1.58 4.032s-2.42 1.584-4.08 1.584zm0-1.176c1.3 0 2.34-.408 3.12-1.224.82-.832 1.22-1.904 1.22-3.216 0-1.296-.4-2.36-1.22-3.192-.82-.832-1.86-1.248-3.12-1.248-1.25 0-2.29.416-3.12 1.248-.82.832-1.22 1.896-1.22 3.192 0 1.296.4 2.36 1.22 3.192.82.832 1.86 1.248 3.12 1.248zm8.72.96v-10.8c.53 0 1.04-.008 1.54-.024a85.55 85.55 0 011.94-.048c2.98 0 4.46.928 4.46 2.784 0 .624-.2 1.168-.6 1.632-.38.448-.91.728-1.58.84v.048c1.73.256 2.59 1.12 2.59 2.592 0 2.032-1.61 3.048-4.82 3.048-.21 0-.84-.016-1.9-.048-.53-.016-1.07-.024-1.63-.024zm3.84-4.968h-2.59v3.816c1.25.032 2.05.048 2.42.048 2.24 0 3.36-.664 3.36-1.992 0-1.248-1.06-1.872-3.19-1.872zm-.22-4.728c-.52 0-1.32.016-2.37.048V490h2.85c.79 0 1.4-.168 1.85-.504.45-.352.67-.816.67-1.392 0-1.2-1-1.8-3-1.8zm8.27.696l-.33-1.032c1.07-.656 2.21-.984 3.43-.984 1.41 0 2.42.352 3.05 1.056.64.704.96 1.792.96 3.264V496h-1.25v-1.656c-.88 1.2-2.11 1.8-3.7 1.8-1.01 0-1.81-.288-2.42-.864-.61-.592-.91-1.376-.91-2.352 0-1.056.38-1.88 1.15-2.472.75-.592 1.73-.888 2.95-.888 1.22 0 2.19.272 2.93.816 0-1.12-.08-1.976-.24-2.568-.13-.576-.39-.984-.79-1.224-.39-.24-.99-.384-1.8-.432-.98 0-1.99.28-3.03.84zm2.55 7.968c1.34 0 2.44-.568 3.31-1.704v-1.8c-.79-.576-1.72-.864-2.81-.864-.82 0-1.5.2-2.06.6-.56.4-.84.952-.84 1.656 0 .64.22 1.152.67 1.536.45.384 1.02.576 1.73.576zm9.38 5.832h-1.25v-15.6h1.25v1.44c.43-.48 1.01-.872 1.73-1.176.73-.32 1.48-.48 2.23-.48 1.53 0 2.76.504 3.67 1.512.91 1.008 1.37 2.32 1.37 3.936 0 1.68-.51 3.064-1.54 4.152-1.04 1.088-2.37 1.632-4.01 1.632-1.45 0-2.6-.304-3.45-.912v5.496zm3.62-14.64c-.7 0-1.39.16-2.06.48-.66.32-1.18.72-1.56 1.2v6.216c.99.656 2.11.984 3.36.984 1.28 0 2.32-.424 3.12-1.272.8-.848 1.2-1.936 1.2-3.264 0-1.328-.36-2.384-1.08-3.168-.72-.784-1.71-1.176-2.98-1.176zm8.76.84l-.34-1.032a6.468 6.468 0 013.43-.984c1.41 0 2.43.352 3.05 1.056.64.704.96 1.792.96 3.264V496h-1.25v-1.656c-.88 1.2-2.11 1.8-3.69 1.8-1.01 0-1.82-.288-2.43-.864-.61-.592-.91-1.376-.91-2.352 0-1.056.38-1.88 1.15-2.472.75-.592 1.74-.888 2.95-.888 1.22 0 2.2.272 2.93.816 0-1.12-.08-1.976-.24-2.568-.13-.576-.39-.984-.79-1.224-.38-.24-.98-.384-1.8-.432-.98 0-1.98.28-3.02.84zm2.54 7.968c1.34 0 2.45-.568 3.31-1.704v-1.8c-.78-.576-1.72-.864-2.81-.864-.81 0-1.5.2-2.06.6-.56.4-.84.952-.84 1.656 0 .64.22 1.152.67 1.536.45.384 1.03.576 1.73.576zm-191.32 36.248c-1.66 0-3.02-.528-4.08-1.584s-1.58-2.4-1.58-4.032c0-1.632.52-2.976 1.58-4.032s2.42-1.584 4.08-1.584c1.66 0 3.02.528 4.08 1.584s1.58 2.4 1.58 4.032c0 1.632-.52 2.976-1.58 4.032s-2.42 1.584-4.08 1.584zm0-1.176c1.3 0 2.34-.408 3.12-1.224.82-.832 1.22-1.904 1.22-3.216 0-1.296-.4-2.36-1.22-3.192-.82-.832-1.86-1.248-3.12-1.248-1.25 0-2.29.416-3.12 1.248-.82.832-1.22 1.896-1.22 3.192 0 1.296.4 2.36 1.22 3.192.82.832 1.86 1.248 3.12 1.248zm17.27-16.08l.69.936c-.37.528-.81.888-1.34 1.08-.66.192-1.35.344-2.09.456-.83.112-1.58.32-2.26.624-1.84.784-2.87 2.832-3.09 6.144h.05c.36-.88.98-1.584 1.84-2.112.87-.544 1.8-.816 2.81-.816 1.57 0 2.82.496 3.75 1.488.92.976 1.39 2.288 1.39 3.936 0 1.52-.52 2.824-1.56 3.912-1.03 1.072-2.33 1.608-3.91 1.608-1.7 0-3.07-.592-4.11-1.776-1.01-1.184-1.51-2.808-1.51-4.872 0-4.736 1.32-7.64 3.96-8.712.67-.272 1.42-.472 2.23-.6.96-.16 1.65-.312 2.07-.456.41-.16.77-.44 1.08-.84zm-8.02 10.824c0 1.616.39 2.896 1.18 3.84.78.944 1.8 1.416 3.07 1.416 1.21 0 2.21-.416 3-1.248.8-.848 1.2-1.864 1.2-3.048 0-1.296-.37-2.336-1.11-3.12-.73-.784-1.73-1.176-3-1.176-1.13 0-2.1.336-2.9 1.008-.77.672-1.25 1.448-1.44 2.328zm22.29 6.216h-1.25v-4.896h-7.01V531h-1.25v-10.8h1.25v4.728h7.01V520.2h1.25V531zm8.68.216c-1.67 0-3.03-.528-4.08-1.584-1.06-1.056-1.59-2.4-1.59-4.032 0-1.632.53-2.976 1.59-4.032 1.05-1.056 2.41-1.584 4.08-1.584 1.66 0 3.02.528 4.08 1.584 1.05 1.056 1.58 2.4 1.58 4.032 0 1.632-.53 2.976-1.58 4.032-1.06 1.056-2.42 1.584-4.08 1.584zm0-1.176c1.29 0 2.33-.408 3.12-1.224.81-.832 1.22-1.904 1.22-3.216 0-1.296-.41-2.36-1.22-3.192-.82-.832-1.86-1.248-3.12-1.248-1.25 0-2.29.416-3.12 1.248-.82.832-1.23 1.896-1.23 3.192 0 1.296.41 2.36 1.23 3.192.81.832 1.85 1.248 3.12 1.248zm8.72.96v-10.8c.53 0 1.04-.008 1.54-.024a85.55 85.55 0 011.94-.048c2.98 0 4.46.928 4.46 2.784 0 .624-.2 1.168-.6 1.632-.38.448-.91.728-1.58.84v.048c1.73.256 2.59 1.12 2.59 2.592 0 2.032-1.61 3.048-4.82 3.048-.21 0-.84-.016-1.9-.048-.53-.016-1.07-.024-1.63-.024zm3.84-4.968h-2.59v3.816c1.25.032 2.05.048 2.42.048 2.24 0 3.36-.664 3.36-1.992 0-1.248-1.06-1.872-3.19-1.872zm-.22-4.728c-.52 0-1.32.016-2.37.048V525h2.85c.79 0 1.4-.168 1.85-.504.45-.352.67-.816.67-1.392 0-1.2-1-1.8-3-1.8zm16.38.696l-7.2 9h-1.25v-10.8h1.25v9l7.2-9h1.25V531h-1.25v-9zm13.89 9h-1.25v-9.552h-4.56l-.14 2.352c-.21 3.04-.72 5.056-1.52 6.048-.64.832-1.43 1.248-2.37 1.248l-.1-1.224c.42 0 .81-.192 1.18-.576.88-.816 1.41-2.728 1.61-5.736l.16-3.36h6.99V531zm8.69.216c-1.66 0-3.02-.528-4.08-1.584-1.05-1.056-1.58-2.4-1.58-4.032 0-1.632.53-2.976 1.58-4.032 1.06-1.056 2.42-1.584 4.08-1.584 1.67 0 3.03.528 4.08 1.584 1.06 1.056 1.59 2.4 1.59 4.032 0 1.632-.53 2.976-1.59 4.032-1.05 1.056-2.41 1.584-4.08 1.584zm0-1.176c1.3 0 2.34-.408 3.12-1.224.82-.832 1.23-1.904 1.23-3.216 0-1.296-.41-2.36-1.23-3.192-.81-.832-1.85-1.248-3.12-1.248-1.24 0-2.28.416-3.12 1.248-.81.832-1.22 1.896-1.22 3.192 0 1.296.41 2.36 1.22 3.192.82.832 1.86 1.248 3.12 1.248zm17.12-1.488l.63.912c-.43.56-1.02.992-1.75 1.296a5.94 5.94 0 01-2.33.456c-1.68 0-3.06-.512-4.13-1.536-1.06-1.024-1.58-2.384-1.58-4.08 0-1.584.51-2.912 1.53-3.984 1.04-1.088 2.32-1.632 3.84-1.632 1.86 0 3.26.448 4.2 1.344l-.6 1.008c-.85-.784-1.98-1.176-3.41-1.176-1.15 0-2.15.424-3 1.272-.83.832-1.24 1.888-1.24 3.168 0 1.344.42 2.424 1.27 3.24.85.8 1.92 1.2 3.21 1.2 1.4 0 2.52-.496 3.36-1.488zm6.54 2.448h-3.17v-10.8h1.25v3.624h2.09c2.84 0 4.27 1.184 4.27 3.552 0 1.12-.37 2.008-1.11 2.664-.72.64-1.83.96-3.33.96zm-.05-6h-1.87v4.824h1.85c1.12 0 1.92-.2 2.42-.6.51-.4.77-1.008.77-1.824 0-1.6-1.06-2.4-3.17-2.4zm20.21-4.8h1.6l-5.32 5.16 5.76 5.64h-1.68l-5.6-5.568 5.24-5.232zm-5.96 10.8h-1.24v-10.8h1.24V531zm14.74.216c-1.67 0-3.03-.528-4.08-1.584-1.06-1.056-1.59-2.4-1.59-4.032 0-1.632.53-2.976 1.59-4.032 1.05-1.056 2.41-1.584 4.08-1.584 1.66 0 3.02.528 4.08 1.584 1.05 1.056 1.58 2.4 1.58 4.032 0 1.632-.53 2.976-1.58 4.032-1.06 1.056-2.42 1.584-4.08 1.584zm0-1.176c1.29 0 2.33-.408 3.12-1.224.81-.832 1.22-1.904 1.22-3.216 0-1.296-.41-2.36-1.22-3.192-.82-.832-1.86-1.248-3.12-1.248-1.25 0-2.29.416-3.12 1.248-.82.832-1.23 1.896-1.23 3.192 0 1.296.41 2.36 1.23 3.192.81.832 1.85 1.248 3.12 1.248zm17.11.96h-1.25v-9.552h-4.56l-.15 2.352c-.2 3.04-.71 5.056-1.51 6.048-.64.832-1.43 1.248-2.37 1.248l-.1-1.224c.42 0 .81-.192 1.18-.576.88-.816 1.41-2.728 1.6-5.736l.17-3.36h6.99V531zm12.24-9l-7.2 9h-1.24v-10.8h1.24v9l7.2-9h1.25V531h-1.25v-9zm11.39-1.8h1.25V531h-1.25v-4.56c-.89.608-1.97.912-3.24.912-2.53 0-3.79-1.352-3.79-4.056V520.2h1.32v3c0 1.984.94 2.976 2.81 2.976 1.13 0 2.1-.288 2.9-.864V520.2zm13.58 8.52l.4.96c-.97 1.024-2.3 1.536-3.98 1.536-1.73 0-3.11-.512-4.15-1.536-1.06-1.024-1.59-2.384-1.59-4.08 0-1.632.48-2.976 1.44-4.032.98-1.056 2.32-1.584 4.04-1.584 1.39 0 2.56.448 3.5 1.344.93.88 1.39 2.056 1.39 3.528 0 .384-.02.72-.07 1.008h-8.9c.04 1.296.47 2.32 1.27 3.072.8.736 1.85 1.104 3.14 1.104 1.51 0 2.67-.44 3.51-1.32zm-3.96-7.56c-1.16 0-2.09.336-2.81 1.008-.71.672-1.11 1.56-1.23 2.664h7.78c-.02-1.136-.36-2.032-1.03-2.688-.67-.656-1.58-.984-2.71-.984zm16.21 7.392l.63.912c-.44.56-1.02.992-1.76 1.296a5.89 5.89 0 01-2.32.456c-1.68 0-3.06-.512-4.13-1.536-1.06-1.024-1.59-2.384-1.59-4.08 0-1.584.52-2.912 1.54-3.984 1.04-1.088 2.32-1.632 3.84-1.632 1.86 0 3.26.448 4.2 1.344l-.6 1.008c-.85-.784-1.98-1.176-3.41-1.176-1.15 0-2.15.424-3 1.272-.83.832-1.25 1.888-1.25 3.168 0 1.344.43 2.424 1.28 3.24.84.8 1.92 1.2 3.21 1.2 1.39 0 2.51-.496 3.36-1.488zm5.99-7.104h-4.3V520.2h9.84v1.248h-4.3V531h-1.24v-9.552zm7.74 9.552v-10.8c.52 0 1.04-.008 1.53-.024 1.03-.032 1.67-.048 1.95-.048 2.97 0 4.46.928 4.46 2.784 0 .624-.2 1.168-.6 1.632-.38.448-.91.728-1.58.84v.048c1.72.256 2.59 1.12 2.59 2.592 0 2.032-1.61 3.048-4.83 3.048-.2 0-.84-.016-1.89-.048-.53-.016-1.07-.024-1.63-.024zm3.84-4.968h-2.6v3.816c1.25.032 2.06.048 2.43.048 2.24 0 3.36-.664 3.36-1.992 0-1.248-1.07-1.872-3.19-1.872zm-.22-4.728c-.53 0-1.32.016-2.38.048V525h2.86c.78 0 1.4-.168 1.85-.504.45-.352.67-.816.67-1.392 0-1.2-1-1.8-3-1.8zm12.83 9.912c-1.67 0-3.03-.528-4.08-1.584-1.06-1.056-1.59-2.4-1.59-4.032 0-1.632.53-2.976 1.59-4.032 1.05-1.056 2.41-1.584 4.08-1.584 1.66 0 3.02.528 4.08 1.584 1.05 1.056 1.58 2.4 1.58 4.032 0 1.632-.53 2.976-1.58 4.032-1.06 1.056-2.42 1.584-4.08 1.584zm0-1.176c1.29 0 2.33-.408 3.12-1.224.81-.832 1.22-1.904 1.22-3.216 0-1.296-.41-2.36-1.22-3.192-.82-.832-1.86-1.248-3.12-1.248-1.25 0-2.29.416-3.12 1.248-.82.832-1.23 1.896-1.23 3.192 0 1.296.41 2.36 1.23 3.192.81.832 1.85 1.248 3.12 1.248z" fill="#141414"/><rect x="119" y="142" width="375" height="89" rx="8" fill="#F6F4F2"/><path d="M188.702 177.448h-6.216V176.2h13.752v1.248h-6.216V193h-1.32v-15.552zm11.399 15.768c-1.664 0-3.024-.528-4.08-1.584s-1.584-2.4-1.584-4.032c0-1.632.528-2.976 1.584-4.032s2.416-1.584 4.08-1.584c1.664 0 3.024.528 4.08 1.584s1.584 2.4 1.584 4.032c0 1.632-.528 2.976-1.584 4.032s-2.416 1.584-4.08 1.584zm0-1.176c1.296 0 2.336-.408 3.12-1.224.816-.832 1.224-1.904 1.224-3.216 0-1.296-.408-2.36-1.224-3.192-.816-.832-1.856-1.248-3.12-1.248-1.248 0-2.288.416-3.12 1.248-.816.832-1.224 1.896-1.224 3.192 0 1.296.408 2.36 1.224 3.192.816.832 1.856 1.248 3.12 1.248zm8.721.96v-10.8c.528 0 1.04-.008 1.536-.024a85.964 85.964 0 011.944-.048c2.976 0 4.464.928 4.464 2.784 0 .624-.2 1.168-.6 1.632-.384.448-.912.728-1.584.84v.048c1.728.256 2.592 1.12 2.592 2.592 0 2.032-1.608 3.048-4.824 3.048-.208 0-.84-.016-1.896-.048a53.912 53.912 0 00-1.632-.024zm3.84-4.968h-2.592v3.816c1.248.032 2.056.048 2.424.048 2.24 0 3.36-.664 3.36-1.992 0-1.248-1.064-1.872-3.192-1.872zm-.216-4.728c-.528 0-1.32.016-2.376.048V187h2.856c.784 0 1.4-.168 1.848-.504.448-.352.672-.816.672-1.392 0-1.2-1-1.8-3-1.8zm8.266.696l-.336-1.032c1.072-.656 2.216-.984 3.432-.984 1.408 0 2.424.352 3.048 1.056.64.704.96 1.792.96 3.264V193h-1.248v-1.656c-.88 1.2-2.112 1.8-3.696 1.8-1.008 0-1.816-.288-2.424-.864-.608-.592-.912-1.376-.912-2.352 0-1.056.384-1.88 1.152-2.472.752-.592 1.736-.888 2.952-.888s2.192.272 2.928.816c0-1.12-.08-1.976-.24-2.568-.128-.576-.392-.984-.792-1.224-.384-.24-.984-.384-1.8-.432-.976 0-1.984.28-3.024.84zm2.544 7.968c1.344 0 2.448-.568 3.312-1.704v-1.8c-.784-.576-1.72-.864-2.808-.864-.816 0-1.504.2-2.064.6-.56.4-.84.952-.84 1.656 0 .64.224 1.152.672 1.536.448.384 1.024.576 1.728.576zm9.384 5.832h-1.248v-15.6h1.248v1.44c.432-.48 1.008-.872 1.728-1.176.736-.32 1.48-.48 2.232-.48 1.536 0 2.76.504 3.672 1.512.912 1.008 1.368 2.32 1.368 3.936 0 1.68-.512 3.064-1.536 4.152-1.04 1.088-2.376 1.632-4.008 1.632-1.456 0-2.608-.304-3.456-.912v5.496zm3.624-14.64c-.704 0-1.392.16-2.064.48-.656.32-1.176.72-1.56 1.2v6.216c.992.656 2.112.984 3.36.984 1.28 0 2.32-.424 3.12-1.272.8-.848 1.2-1.936 1.2-3.264 0-1.328-.36-2.384-1.08-3.168-.72-.784-1.712-1.176-2.976-1.176zM250.33 193v-10.8c.528 0 1.04-.008 1.536-.024a85.964 85.964 0 011.944-.048c2.976 0 4.464.928 4.464 2.784 0 .624-.2 1.168-.6 1.632-.384.448-.912.728-1.584.84v.048c1.728.256 2.592 1.12 2.592 2.592 0 2.032-1.608 3.048-4.824 3.048-.208 0-.84-.016-1.896-.048a53.912 53.912 0 00-1.632-.024zm3.84-4.968h-2.592v3.816c1.248.032 2.056.048 2.424.048 2.24 0 3.36-.664 3.36-1.992 0-1.248-1.064-1.872-3.192-1.872zm-.216-4.728c-.528 0-1.32.016-2.376.048V187h2.856c.784 0 1.4-.168 1.848-.504.448-.352.672-.816.672-1.392 0-1.2-1-1.8-3-1.8zM264.86 193h-2.976v-10.8h1.248v3.624h1.872c2.848 0 4.272 1.184 4.272 3.552 0 1.12-.36 2.008-1.08 2.664-.72.64-1.832.96-3.336.96zm-.072-6h-1.656v4.824h1.632c1.136 0 1.952-.2 2.448-.6.496-.4.744-1.008.744-1.824 0-1.6-1.056-2.4-3.168-2.4zm8.208 6h-1.248v-10.8h1.248V193zm5.043 0h-1.248v-10.8h6.504v1.176h-5.256V193zm8.46 4.8h-1.248v-15.6h1.248v1.44c.432-.48 1.008-.872 1.728-1.176.736-.32 1.48-.48 2.232-.48 1.536 0 2.76.504 3.672 1.512.912 1.008 1.368 2.32 1.368 3.936 0 1.68-.512 3.064-1.536 4.152-1.04 1.088-2.376 1.632-4.008 1.632-1.456 0-2.608-.304-3.456-.912v5.496zm3.624-14.64c-.704 0-1.392.16-2.064.48-.656.32-1.176.72-1.56 1.2v6.216c.992.656 2.112.984 3.36.984 1.28 0 2.32-.424 3.12-1.272.8-.848 1.2-1.936 1.2-3.264 0-1.328-.36-2.384-1.08-3.168-.72-.784-1.712-1.176-2.976-1.176zm15.892-.96h1.416l-4.368 10.8c-.784 1.904-1.464 3.168-2.04 3.792-.576.672-1.248 1.008-2.016 1.008-.592 0-1.208-.184-1.848-.552l.408-.96c.496.24.92.36 1.272.36.544 0 1.032-.24 1.464-.72.432-.464.88-1.248 1.344-2.352l.24-.576-5.328-10.8h1.488l3.696 7.632.768 1.68c.016-.064.216-.64.6-1.728l2.904-7.584zm6.994 11.016c-.736 0-1.552-.136-2.448-.408-.848-.256-1.448-.6-1.8-1.032l.648-.96c.416.384.936.688 1.56.912a5.97 5.97 0 001.848.312c1.008 0 1.816-.2 2.424-.6.608-.4.912-.936.912-1.608 0-.56-.224-1-.672-1.32-.448-.32-1.056-.48-1.824-.48h-1.824V187h1.704c.608 0 1.128-.192 1.56-.576.432-.384.648-.848.648-1.392 0-.608-.24-1.072-.72-1.392-.48-.32-1.152-.48-2.016-.48-1.264 0-2.392.4-3.384 1.2l-.504-.96c.912-.944 2.264-1.416 4.056-1.416 1.232 0 2.184.256 2.856.768.688.496 1.032 1.184 1.032 2.064 0 1.264-.648 2.128-1.944 2.592v.048c.736.064 1.312.336 1.728.816.416.464.624 1.04.624 1.728 0 .992-.408 1.776-1.224 2.352-.816.576-1.896.864-3.24.864zM329.114 184l-7.2 9h-1.248v-10.8h1.248v9l7.2-9h1.248V193h-1.248v-9zm13.884 9h-1.248v-9.552h-4.56l-.144 2.352c-.208 3.04-.712 5.056-1.512 6.048-.64.832-1.432 1.248-2.376 1.248l-.096-1.224c.416 0 .808-.192 1.176-.576.88-.816 1.416-2.728 1.608-5.736l.168-3.36h6.984V193zm12.2-2.448l.624.912c-.432.56-1.016.992-1.752 1.296a5.923 5.923 0 01-2.328.456c-1.68 0-3.056-.512-4.128-1.536-1.056-1.024-1.584-2.384-1.584-4.08 0-1.584.512-2.912 1.536-3.984 1.04-1.088 2.32-1.632 3.84-1.632 1.856 0 3.256.448 4.2 1.344l-.6 1.008c-.848-.784-1.984-1.176-3.408-1.176-1.152 0-2.152.424-3 1.272-.832.832-1.248 1.888-1.248 3.168 0 1.344.424 2.424 1.272 3.24.848.8 1.92 1.2 3.216 1.2 1.392 0 2.512-.496 3.36-1.488zm7.267-8.352h3.216V193h-1.248v-4.032h-2.688L358.649 193h-1.536l3.408-4.32c-.72-.112-1.336-.448-1.848-1.008-.496-.576-.744-1.264-.744-2.064 0-1.04.376-1.864 1.128-2.472.752-.624 1.888-.936 3.408-.936zm-3.216 3.432c0 .64.248 1.16.744 1.56.496.4 1.024.6 1.584.6h2.856v-4.416h-2.184c-.992 0-1.744.208-2.256.624-.496.4-.744.944-.744 1.632zM375.111 193v-10.8c.528 0 1.04-.008 1.536-.024a85.964 85.964 0 011.944-.048c2.976 0 4.464.928 4.464 2.784 0 .624-.2 1.168-.6 1.632-.384.448-.912.728-1.584.84v.048c1.728.256 2.592 1.12 2.592 2.592 0 2.032-1.608 3.048-4.824 3.048-.208 0-.84-.016-1.896-.048a53.912 53.912 0 00-1.632-.024zm3.84-4.968h-2.592v3.816c1.248.032 2.056.048 2.424.048 2.24 0 3.36-.664 3.36-1.992 0-1.248-1.064-1.872-3.192-1.872zm-.216-4.728c-.528 0-1.32.016-2.376.048V187h2.856c.784 0 1.4-.168 1.848-.504.448-.352.672-.816.672-1.392 0-1.2-1-1.8-3-1.8zm26.827-4.944L394.258 193h-1.176v-16.8h1.32v14.64l11.304-14.64h1.176V193h-1.32v-14.64zm7.965 14.64h-1.32v-16.8h1.344l6.768 9.216 6.504-9.216h1.272V193h-1.32v-14.736l-6.456 9.072h-.216l-6.576-9V193z" fill="#141414"/><rect x="245" y="282" width="375" height="89" rx="8" fill="#F6F4F2"/><path d="M334.8 317.448h-6.216V316.2h13.752v1.248h-6.216V333h-1.32v-15.552zm11.398 15.768c-1.664 0-3.024-.528-4.08-1.584s-1.584-2.4-1.584-4.032c0-1.632.528-2.976 1.584-4.032s2.416-1.584 4.08-1.584c1.664 0 3.024.528 4.08 1.584s1.584 2.4 1.584 4.032c0 1.632-.528 2.976-1.584 4.032s-2.416 1.584-4.08 1.584zm0-1.176c1.296 0 2.336-.408 3.12-1.224.816-.832 1.224-1.904 1.224-3.216 0-1.296-.408-2.36-1.224-3.192-.816-.832-1.856-1.248-3.12-1.248-1.248 0-2.288.416-3.12 1.248-.816.832-1.224 1.896-1.224 3.192 0 1.296.408 2.36 1.224 3.192.816.832 1.856 1.248 3.12 1.248zm8.721.96v-10.8c.528 0 1.04-.008 1.536-.024a85.964 85.964 0 011.944-.048c2.976 0 4.464.928 4.464 2.784 0 .624-.2 1.168-.6 1.632-.384.448-.912.728-1.584.84v.048c1.728.256 2.592 1.12 2.592 2.592 0 2.032-1.608 3.048-4.824 3.048-.208 0-.84-.016-1.896-.048a53.912 53.912 0 00-1.632-.024zm3.84-4.968h-2.592v3.816c1.248.032 2.056.048 2.424.048 2.24 0 3.36-.664 3.36-1.992 0-1.248-1.064-1.872-3.192-1.872zm-.216-4.728c-.528 0-1.32.016-2.376.048V327h2.856c.784 0 1.4-.168 1.848-.504.448-.352.672-.816.672-1.392 0-1.2-1-1.8-3-1.8zm8.267.696l-.336-1.032c1.072-.656 2.216-.984 3.432-.984 1.408 0 2.424.352 3.048 1.056.64.704.96 1.792.96 3.264V333h-1.248v-1.656c-.88 1.2-2.112 1.8-3.696 1.8-1.008 0-1.816-.288-2.424-.864-.608-.592-.912-1.376-.912-2.352 0-1.056.384-1.88 1.152-2.472.752-.592 1.736-.888 2.952-.888s2.192.272 2.928.816c0-1.12-.08-1.976-.24-2.568-.128-.576-.392-.984-.792-1.224-.384-.24-.984-.384-1.8-.432-.976 0-1.984.28-3.024.84zm2.544 7.968c1.344 0 2.448-.568 3.312-1.704v-1.8c-.784-.576-1.72-.864-2.808-.864-.816 0-1.504.2-2.064.6-.56.4-.84.952-.84 1.656 0 .64.224 1.152.672 1.536.448.384 1.024.576 1.728.576zm9.384 5.832h-1.248v-15.6h1.248v1.44c.432-.48 1.008-.872 1.728-1.176.736-.32 1.48-.48 2.232-.48 1.536 0 2.76.504 3.672 1.512.912 1.008 1.368 2.32 1.368 3.936 0 1.68-.512 3.064-1.536 4.152-1.04 1.088-2.376 1.632-4.008 1.632-1.456 0-2.608-.304-3.456-.912v5.496zm3.624-14.64c-.704 0-1.392.16-2.064.48-.656.32-1.176.72-1.56 1.2v6.216c.992.656 2.112.984 3.36.984 1.28 0 2.32-.424 3.12-1.272.8-.848 1.2-1.936 1.2-3.264 0-1.328-.36-2.384-1.08-3.168-.72-.784-1.712-1.176-2.976-1.176zm23.449 9.84h-1.248v-9.624h-6.888V333h-1.248v-10.8h9.384V333zm8.684.216c-1.664 0-3.024-.528-4.08-1.584s-1.584-2.4-1.584-4.032c0-1.632.528-2.976 1.584-4.032s2.416-1.584 4.08-1.584c1.664 0 3.024.528 4.08 1.584s1.584 2.4 1.584 4.032c0 1.632-.528 2.976-1.584 4.032s-2.416 1.584-4.08 1.584zm0-1.176c1.296 0 2.336-.408 3.12-1.224.816-.832 1.224-1.904 1.224-3.216 0-1.296-.408-2.36-1.224-3.192-.816-.832-1.856-1.248-3.12-1.248-1.248 0-2.288.416-3.12 1.248-.816.832-1.224 1.896-1.224 3.192 0 1.296.408 2.36 1.224 3.192.816.832 1.856 1.248 3.12 1.248zm18.105.96h-1.248v-9.624h-6.888V333h-1.248v-10.8h9.384V333zm4.124-9l-.336-1.032c1.072-.656 2.216-.984 3.432-.984 1.408 0 2.424.352 3.048 1.056.64.704.96 1.792.96 3.264V333h-1.248v-1.656c-.88 1.2-2.112 1.8-3.696 1.8-1.008 0-1.816-.288-2.424-.864-.608-.592-.912-1.376-.912-2.352 0-1.056.384-1.88 1.152-2.472.752-.592 1.736-.888 2.952-.888s2.192.272 2.928.816c0-1.12-.08-1.976-.24-2.568-.128-.576-.392-.984-.792-1.224-.384-.24-.984-.384-1.8-.432-.976 0-1.984.28-3.024.84zm2.544 7.968c1.344 0 2.448-.568 3.312-1.704v-1.8c-.784-.576-1.72-.864-2.808-.864-.816 0-1.504.2-2.064.6-.56.4-.84.952-.84 1.656 0 .64.224 1.152.672 1.536.448.384 1.024.576 1.728.576zM456.26 333h-1.248v-9.552h-4.56l-.144 2.352c-.208 3.04-.712 5.056-1.512 6.048-.64.832-1.432 1.248-2.376 1.248l-.096-1.224c.416 0 .808-.192 1.176-.576.88-.816 1.416-2.728 1.608-5.736l.168-3.36h6.984V333zm9.449 0v-10.8c.528 0 1.04-.008 1.536-.024a85.964 85.964 0 011.944-.048c2.976 0 4.464.928 4.464 2.784 0 .624-.2 1.168-.6 1.632-.384.448-.912.728-1.584.84v.048c1.728.256 2.592 1.12 2.592 2.592 0 2.032-1.608 3.048-4.824 3.048-.208 0-.84-.016-1.897-.048a53.796 53.796 0 00-1.631-.024zm3.84-4.968h-2.592v3.816c1.248.032 2.056.048 2.424.048 2.24 0 3.36-.664 3.36-1.992 0-1.248-1.064-1.872-3.192-1.872zm-.216-4.728c-.528 0-1.32.016-2.376.048V327h2.855c.785 0 1.401-.168 1.849-.504.448-.352.672-.816.672-1.392 0-1.2-1-1.8-3-1.8zm16.915 9.912c-.736 0-1.552-.136-2.448-.408-.848-.256-1.448-.6-1.8-1.032l.648-.96c.416.384.936.688 1.56.912a5.97 5.97 0 001.848.312c1.008 0 1.816-.2 2.424-.6.608-.4.912-.936.912-1.608 0-.56-.224-1-.672-1.32-.448-.32-1.056-.48-1.824-.48h-1.824V327h1.704c.608 0 1.128-.192 1.56-.576.432-.384.648-.848.648-1.392 0-.608-.24-1.072-.72-1.392-.48-.32-1.152-.48-2.016-.48-1.264 0-2.392.4-3.384 1.2l-.504-.96c.912-.944 2.264-1.416 4.056-1.416 1.232 0 2.184.256 2.856.768.688.496 1.032 1.184 1.032 2.064 0 1.264-.648 2.128-1.944 2.592v.048c.736.064 1.312.336 1.728.816.416.464.624 1.04.624 1.728 0 .992-.408 1.776-1.224 2.352-.816.576-1.896.864-3.24.864zM494.24 324l-.336-1.032c1.072-.656 2.216-.984 3.432-.984 1.408 0 2.424.352 3.048 1.056.64.704.96 1.792.96 3.264V333h-1.248v-1.656c-.88 1.2-2.112 1.8-3.696 1.8-1.008 0-1.816-.288-2.424-.864-.608-.592-.912-1.376-.912-2.352 0-1.056.384-1.88 1.152-2.472.752-.592 1.736-.888 2.952-.888s2.192.272 2.928.816c0-1.12-.08-1.976-.24-2.568-.128-.576-.392-.984-.792-1.224-.384-.24-.984-.384-1.8-.432-.976 0-1.984.28-3.024.84zm2.544 7.968c1.344 0 2.448-.568 3.312-1.704v-1.8c-.784-.576-1.72-.864-2.808-.864-.816 0-1.504.2-2.064.6-.56.4-.84.952-.84 1.656 0 .64.224 1.152.672 1.536.448.384 1.024.576 1.728.576zm15.335-9.768h1.608l-5.328 5.16 5.76 5.64h-1.68l-5.592-5.568 5.232-5.232zm-5.952 10.8h-1.248v-10.8h1.248V333zm10.713-9l-.336-1.032c1.072-.656 2.216-.984 3.432-.984 1.408 0 2.424.352 3.048 1.056.64.704.96 1.792.96 3.264V333h-1.248v-1.656c-.88 1.2-2.112 1.8-3.696 1.8-1.008 0-1.816-.288-2.424-.864-.608-.592-.912-1.376-.912-2.352 0-1.056.384-1.88 1.152-2.472.752-.592 1.736-.888 2.952-.888s2.192.272 2.928.816c0-1.12-.08-1.976-.24-2.568-.128-.576-.392-.984-.792-1.224-.384-.24-.984-.384-1.8-.432-.976 0-1.984.28-3.024.84zm2.544 7.968c1.344 0 2.448-.568 3.312-1.704v-1.8c-.784-.576-1.72-.864-2.808-.864-.816 0-1.504.2-2.064.6-.56.4-.84.952-.84 1.656 0 .64.224 1.152.672 1.536.448.384 1.024.576 1.728.576zm11.472 1.248c-.736 0-1.552-.136-2.448-.408-.848-.256-1.448-.6-1.8-1.032l.648-.96c.416.384.936.688 1.56.912a5.97 5.97 0 001.848.312c1.008 0 1.816-.2 2.424-.6.608-.4.912-.936.912-1.608 0-.56-.224-1-.672-1.32-.448-.32-1.056-.48-1.824-.48h-1.824V327h1.704c.608 0 1.128-.192 1.56-.576.432-.384.648-.848.648-1.392 0-.608-.24-1.072-.72-1.392-.48-.32-1.152-.48-2.016-.48-1.264 0-2.392.4-3.384 1.2l-.504-.96c.912-.944 2.264-1.416 4.056-1.416 1.232 0 2.184.256 2.856.768.688.496 1.032 1.184 1.032 2.064 0 1.264-.648 2.128-1.944 2.592v.048c.736.064 1.312.336 1.728.816.416.464.624 1.04.624 1.728 0 .992-.408 1.776-1.224 2.352-.816.576-1.896.864-3.24.864z" fill="#141414"/><rect x="1197" y="282" width="375" height="89" rx="8" fill="#F6F4F2"/><path d="M1267.35 320.112l-.67-1.008 3.82-3.048h.86V333h-1.25v-15.12l-2.76 2.232zm21.58 10.272l.53.984c-.58.576-1.34 1.032-2.28 1.368-.93.32-1.9.48-2.93.48-2.49 0-4.53-.784-6.09-2.352-1.56-1.552-2.33-3.64-2.33-6.264 0-2.48.75-4.528 2.25-6.144 1.51-1.648 3.5-2.472 5.98-2.472 2.13 0 3.82.528 5.09 1.584l-.63.984c-1.13-.88-2.61-1.32-4.44-1.32-2.04 0-3.7.696-4.96 2.088-1.27 1.36-1.9 3.12-1.9 5.28 0 2.192.66 3.968 1.97 5.328 1.31 1.36 3.03 2.04 5.16 2.04 1.76 0 3.29-.528 4.58-1.584zm16.79-8.184h1.42l-4.37 10.8c-.78 1.904-1.46 3.168-2.04 3.792-.58.672-1.25 1.008-2.02 1.008-.59 0-1.2-.184-1.84-.552l.4-.96c.5.24.92.36 1.28.36.54 0 1.03-.24 1.46-.72.43-.464.88-1.248 1.34-2.352l.24-.576-5.32-10.8h1.48l3.7 7.632.77 1.68c.01-.064.21-.64.6-1.728l2.9-7.584zm4.91 10.8h-1.25v-10.8h1.18l4.48 6.024 4.32-6.024h1.13V333h-1.25v-8.904l-4.2 5.832h-.07l-4.34-5.832V333zm22.22-2.28l.41.96c-.97 1.024-2.3 1.536-3.98 1.536-1.73 0-3.11-.512-4.15-1.536-1.06-1.024-1.59-2.384-1.59-4.08 0-1.632.48-2.976 1.44-4.032.98-1.056 2.32-1.584 4.03-1.584 1.4 0 2.56.448 3.51 1.344.93.88 1.39 2.056 1.39 3.528 0 .384-.02.72-.07 1.008h-8.91c.05 1.296.48 2.32 1.28 3.072.8.736 1.84 1.104 3.14 1.104 1.5 0 2.67-.44 3.5-1.32zm-3.96-7.56c-1.15 0-2.08.336-2.8 1.008-.71.672-1.12 1.56-1.23 2.664h7.78c-.02-1.136-.36-2.032-1.03-2.688-.68-.656-1.58-.984-2.72-.984zm17.51 9.84h-1.25v-4.896h-7.01V333h-1.24v-10.8h1.24v4.728h7.01V322.2h1.25V333zm6.95 0h-3.16v-10.8h1.24v3.624h2.09c2.85 0 4.27 1.184 4.27 3.552 0 1.12-.36 2.008-1.1 2.664-.72.64-1.83.96-3.34.96zm-.04-6h-1.88v4.824h1.85c1.12 0 1.93-.2 2.43-.6.51-.4.76-1.008.76-1.824 0-1.6-1.05-2.4-3.16-2.4zm20.46 6h-13.11v-10.8h1.25v9.624h4.68V322.2h1.25v9.624h4.68V322.2h1.25V333zm12.26-9l-7.2 9h-1.25v-10.8h1.25v9l7.2-9h1.25V333h-1.25v-9zm13.89 9h-1.25v-9.552h-4.56l-.15 2.352c-.2 3.04-.71 5.056-1.51 6.048-.64.832-1.43 1.248-2.37 1.248l-.1-1.224c.42 0 .81-.192 1.18-.576.88-.816 1.41-2.728 1.6-5.736l.17-3.36h6.99V333zm8.69.216c-1.66 0-3.02-.528-4.08-1.584-1.05-1.056-1.58-2.4-1.58-4.032 0-1.632.53-2.976 1.58-4.032 1.06-1.056 2.42-1.584 4.08-1.584 1.67 0 3.03.528 4.08 1.584 1.06 1.056 1.59 2.4 1.59 4.032 0 1.632-.53 2.976-1.59 4.032-1.05 1.056-2.41 1.584-4.08 1.584zm0-1.176c1.3 0 2.34-.408 3.12-1.224.82-.832 1.23-1.904 1.23-3.216 0-1.296-.41-2.36-1.23-3.192-.81-.832-1.85-1.248-3.12-1.248-1.25 0-2.29.416-3.12 1.248-.81.832-1.22 1.896-1.22 3.192 0 1.296.41 2.36 1.22 3.192.82.832 1.86 1.248 3.12 1.248zm19.27 1.176c-1.67 0-3.03-.528-4.08-1.584-1.06-1.056-1.59-2.4-1.59-4.032 0-1.632.53-2.976 1.59-4.032 1.05-1.056 2.41-1.584 4.08-1.584 1.66 0 3.02.528 4.08 1.584 1.05 1.056 1.58 2.4 1.58 4.032 0 1.632-.53 2.976-1.58 4.032-1.06 1.056-2.42 1.584-4.08 1.584zm0-1.176c1.29 0 2.33-.408 3.12-1.224.81-.832 1.22-1.904 1.22-3.216 0-1.296-.41-2.36-1.22-3.192-.82-.832-1.86-1.248-3.12-1.248-1.25 0-2.29.416-3.12 1.248-.82.832-1.23 1.896-1.23 3.192 0 1.296.41 2.36 1.23 3.192.81.832 1.85 1.248 3.12 1.248zm17.12-1.488l.62.912c-.43.56-1.01.992-1.75 1.296-.72.304-1.49.456-2.33.456-1.68 0-3.05-.512-4.12-1.536-1.06-1.024-1.59-2.384-1.59-4.08 0-1.584.51-2.912 1.54-3.984 1.04-1.088 2.32-1.632 3.84-1.632 1.85 0 3.25.448 4.2 1.344l-.6 1.008c-.85-.784-1.99-1.176-3.41-1.176-1.15 0-2.15.424-3 1.272-.83.832-1.25 1.888-1.25 3.168 0 1.344.43 2.424 1.27 3.24.85.8 1.92 1.2 3.22 1.2 1.39 0 2.51-.496 3.36-1.488zm5.98-7.104h-4.29V322.2h9.84v1.248h-4.3V333h-1.25v-9.552zm8.08.552l-.34-1.032c1.08-.656 2.22-.984 3.44-.984 1.4 0 2.42.352 3.04 1.056.64.704.96 1.792.96 3.264V333h-1.24v-1.656c-.88 1.2-2.12 1.8-3.7 1.8-1.01 0-1.82-.288-2.42-.864-.61-.592-.92-1.376-.92-2.352 0-1.056.39-1.88 1.16-2.472.75-.592 1.73-.888 2.95-.888 1.21 0 2.19.272 2.93.816 0-1.12-.08-1.976-.24-2.568-.13-.576-.4-.984-.8-1.224-.38-.24-.98-.384-1.8-.432-.97 0-1.98.28-3.02.84zm2.54 7.968c1.35 0 2.45-.568 3.32-1.704v-1.8c-.79-.576-1.72-.864-2.81-.864-.82 0-1.51.2-2.07.6-.56.4-.84.952-.84 1.656 0 .64.23 1.152.68 1.536.44.384 1.02.576 1.72.576zm10.85-8.52h-4.29V322.2h9.84v1.248h-4.3V333h-1.25v-9.552zm14.94-1.248h1.61l-5.33 5.16 5.76 5.64h-1.68l-5.59-5.568 5.23-5.232zm-5.95 10.8h-1.25v-10.8h1.25V333zm18.83-9l-7.2 9h-1.25v-10.8h1.25v9l7.2-9h1.24V333h-1.24v-9z" fill="#141414"/><path d="M29 194.5v1-1zm73.207.707a.999.999 0 000-1.414l-6.364-6.364a1 1 0 10-1.414 1.414l5.657 5.657-5.657 5.657a1 1 0 101.414 1.414l6.364-6.364zM20 114v72.5h2V114h-2zm9 81.5h72.5v-2H29v2zm-9-9a9 9 0 009 9v-2a7 7 0 01-7-7h-2zM160 318h1-1zm73.707 8.707a.999.999 0 000-1.414l-6.364-6.364a.999.999 0 10-1.414 1.414l5.657 5.657-5.657 5.657a.999.999 0 101.414 1.414l6.364-6.364zM159 253v65h2v-65h-2zm9 74h65v-2h-65v2zm-9-9a9 9 0 009 9v-2a7 7 0 01-7-7h-2zm751.293 105.707a.999.999 0 001.414 0l6.364-6.364a.999.999 0 10-1.414-1.414L911 421.586l-5.657-5.657a.999.999 0 10-1.414 1.414l6.364 6.364zM910 390v33h2v-33h-2zm-189.793-60.793a.999.999 0 000-1.414l-6.364-6.364a.999.999 0 10-1.414 1.414l5.657 5.657-5.657 5.657a.999.999 0 101.414 1.414l6.364-6.364zm-82.707.293h82v-2h-82v2zm543.21-.293a1 1 0 000-1.414l-6.37-6.364a.994.994 0 00-1.41 0 1 1 0 000 1.414l5.66 5.657-5.66 5.657a1 1 0 000 1.414.994.994 0 001.41 0l6.37-6.364zm-82.71.293h82v-2h-82v2zm288.29 94.207c.39.391 1.03.391 1.42 0l6.36-6.364a1 1 0 000-1.414.994.994 0 00-1.41 0l-5.66 5.657-5.66-5.657a.994.994 0 00-1.41 0 1 1 0 000 1.414l6.36 6.364zM1386 390v33h2v-33h-2z" fill="#E4002B"/></svg>