<svg width="1131" height="148" viewBox="0 0 1131 148" fill="none" xmlns="http://www.w3.org/2000/svg"><path d="M583.707 27.707a1 1 0 000-1.414l-6.364-6.364a1 1 0 10-1.414 1.414L581.586 27l-5.657 5.657a1 1 0 101.414 1.414l6.364-6.364zM198 28h385v-2H198v2zm682.707 78.707a.999.999 0 000-1.414l-6.364-6.364a1 1 0 10-1.414 1.414l5.657 5.657-5.657 5.657a.999.999 0 101.414 1.414l6.364-6.364zM525 107h355v-2H525v2zm-.707-44.707a1 1 0 000 1.414l6.364 6.364a1 1 0 101.414-1.414L526.414 63l5.657-5.657a1 1 0 10-1.414-1.414l-6.364 6.364zM582 62h-57v2h57v-2z" fill="#E4002B"/><rect x="596" width="188" height="89" rx="8" fill="#F6F4F2"/><path d="M646.664 51V34.2h9.264v1.248h-7.944v5.688c.976-.096 1.92-.144 2.832-.144 1.936 0 3.424.424 4.464 1.272 1.056.848 1.584 2.04 1.584 3.576 0 1.68-.56 2.976-1.68 3.888-1.12.896-2.704 1.344-4.752 1.344-.272 0-.968-.016-2.088-.048-.56-.016-1.12-.024-1.68-.024zm4.104-8.76c-1.024 0-1.952.048-2.784.144v7.368c1.584.048 2.464.072 2.64.072 1.616 0 2.84-.336 3.672-1.008.832-.672 1.248-1.64 1.248-2.904 0-1.168-.408-2.072-1.224-2.712-.816-.64-2-.96-3.552-.96zm18.224-.24l-7.2 9h-1.248V40.2h1.248v9l7.2-9h1.248V51h-1.248v-9zm7.741-.552h-4.296V40.2h9.84v1.248h-4.296V51h-1.248v-9.552zm8.989 14.352h-1.248V40.2h1.248v1.44c.432-.48 1.008-.872 1.728-1.176.736-.32 1.48-.48 2.232-.48 1.536 0 2.76.504 3.672 1.512.912 1.008 1.368 2.32 1.368 3.936 0 1.68-.512 3.064-1.536 4.152-1.04 1.088-2.376 1.632-4.008 1.632-1.456 0-2.608-.304-3.456-.912V55.8zm3.624-14.64c-.704 0-1.392.16-2.064.48-.656.32-1.176.72-1.56 1.2v6.216c.992.656 2.112.984 3.36.984 1.28 0 2.32-.424 3.12-1.272.8-.848 1.2-1.936 1.2-3.264 0-1.328-.36-2.384-1.08-3.168-.72-.784-1.712-1.176-2.976-1.176zm16.865.84l-7.2 9h-1.248V40.2h1.248v9l7.2-9h1.248V51h-1.248v-9zm12.229-1.8h1.608l-5.328 5.16 5.76 5.64h-1.68l-5.592-5.568 5.232-5.232zM712.488 51h-1.248V40.2h1.248V51zm18.238-2.448l.624.912c-.432.56-1.016.992-1.752 1.296a5.923 5.923 0 01-2.328.456c-1.68 0-3.056-.512-4.128-1.536-1.056-1.024-1.584-2.384-1.584-4.08 0-1.584.512-2.912 1.536-3.984 1.04-1.088 2.32-1.632 3.84-1.632 1.856 0 3.256.448 4.2 1.344l-.6 1.008c-.848-.784-1.984-1.176-3.408-1.176-1.152 0-2.152.424-3 1.272-.832.832-1.248 1.888-1.248 3.168 0 1.344.424 2.424 1.272 3.24.848.8 1.92 1.2 3.216 1.2 1.392 0 2.512-.496 3.36-1.488z" fill="#141414"/><rect x="895" y="59" width="236" height="89" rx="8" fill="#F6F4F2"/><path d="M953.584 110.192h-1.32v-2.184h-.12c-2.448 0-4.408-.584-5.88-1.752-1.472-1.184-2.208-2.816-2.208-4.896s.736-3.712 2.208-4.896c1.472-1.168 3.464-1.752 5.976-1.752h.024v-1.704h1.32v1.704h.048c2.528 0 4.528.592 6 1.776 1.488 1.184 2.232 2.808 2.232 4.872 0 2.08-.744 3.712-2.232 4.896-1.472 1.168-3.432 1.752-5.88 1.752h-.168v2.184zm.096-14.256h-.096v10.848h.168c2.08 0 3.72-.464 4.92-1.392 1.2-.944 1.8-2.288 1.8-4.032 0-1.712-.608-3.04-1.824-3.984-1.2-.96-2.856-1.44-4.968-1.44zm-8.232 5.424c0 1.744.608 3.08 1.824 4.008 1.232.944 2.864 1.416 4.896 1.416h.096V95.936h-.048c-2.08 0-3.728.48-4.944 1.44-1.216.928-1.824 2.256-1.824 3.984zm20.618 13.44h-1.248V99.2h1.248v1.44c.432-.48 1.008-.872 1.728-1.176.736-.32 1.48-.48 2.232-.48 1.536 0 2.76.504 3.672 1.512.912 1.008 1.368 2.32 1.368 3.936 0 1.68-.512 3.064-1.536 4.152-1.04 1.088-2.376 1.632-4.008 1.632-1.456 0-2.608-.304-3.456-.912v5.496zm3.624-14.64c-.704 0-1.392.16-2.064.48-.656.32-1.176.72-1.56 1.2v6.216c.992.656 2.112.984 3.36.984 1.28 0 2.32-.424 3.12-1.272.8-.848 1.2-1.936 1.2-3.264 0-1.328-.36-2.384-1.08-3.168-.72-.784-1.712-1.176-2.976-1.176zm13.313 10.056c-1.664 0-3.024-.528-4.08-1.584s-1.584-2.4-1.584-4.032c0-1.632.528-2.976 1.584-4.032s2.416-1.584 4.08-1.584c1.664 0 3.024.528 4.08 1.584s1.584 2.4 1.584 4.032c0 1.632-.528 2.976-1.584 4.032s-2.416 1.584-4.08 1.584zm0-1.176c1.296 0 2.336-.408 3.12-1.224.816-.832 1.224-1.904 1.224-3.216 0-1.296-.408-2.36-1.224-3.192-.816-.832-1.856-1.248-3.12-1.248-1.248 0-2.288.416-3.12 1.248-.816.832-1.224 1.896-1.224 3.192 0 1.296.408 2.36 1.224 3.192.816.832 1.856 1.248 3.12 1.248zm18.227.96h-1.25v-4.896h-7.008V110h-1.248V99.2h1.248v4.728h7.008V99.2h1.25V110zm6.5-9.552h-4.3V99.2h9.84v1.248h-4.3V110h-1.24v-9.552zm13.05 3.624h-5.5v-1.176h5.5v1.176zm12.51 3.48l.62.912c-.43.56-1.01.992-1.75 1.296a5.94 5.94 0 01-2.33.456c-1.68 0-3.05-.512-4.13-1.536-1.05-1.024-1.58-2.384-1.58-4.08 0-1.584.51-2.912 1.54-3.984 1.04-1.088 2.32-1.632 3.84-1.632 1.85 0 3.25.448 4.2 1.344l-.6 1.008c-.85-.784-1.99-1.176-3.41-1.176-1.15 0-2.15.424-3 1.272-.83.832-1.25 1.888-1.25 3.168 0 1.344.42 2.424 1.27 3.24.85.8 1.92 1.2 3.22 1.2 1.39 0 2.51-.496 3.36-1.488zm3.7-6.552l-.34-1.032c1.08-.656 2.22-.984 3.44-.984 1.4 0 2.42.352 3.04 1.056.64.704.96 1.792.96 3.264V110h-1.24v-1.656c-.88 1.2-2.12 1.8-3.7 1.8-1.01 0-1.82-.288-2.42-.864-.61-.592-.92-1.376-.92-2.352 0-1.056.39-1.88 1.16-2.472.75-.592 1.73-.888 2.95-.888 1.21 0 2.19.272 2.93.816 0-1.12-.08-1.976-.24-2.568-.13-.576-.4-.984-.8-1.224-.38-.24-.98-.384-1.8-.432-.97 0-1.98.28-3.02.84zm2.54 7.968c1.35 0 2.45-.568 3.32-1.704v-1.8c-.79-.576-1.72-.864-2.81-.864-.82 0-1.51.2-2.07.6-.56.4-.84.952-.84 1.656 0 .64.23 1.152.68 1.536.44.384 1.02.576 1.72.576zm16.59-7.968l-7.2 9h-1.25V99.2h1.25v9l7.2-9h1.25V110h-1.25v-9zm-6.79-7.416h1.12c0 .592.21 1.096.63 1.512.41.4.95.6 1.61.6.62 0 1.13-.2 1.53-.6.4-.416.6-.92.6-1.512h1.13c0 .88-.3 1.616-.91 2.208-.61.576-1.39.864-2.35.864-1.03 0-1.84-.28-2.45-.84-.61-.576-.91-1.32-.91-2.232zm14.53 6.864h-4.3V99.2h9.84v1.248h-4.29V110h-1.25v-9.552zm8.08.552l-.34-1.032a6.468 6.468 0 013.43-.984c1.41 0 2.43.352 3.05 1.056.64.704.96 1.792.96 3.264V110h-1.25v-1.656c-.88 1.2-2.11 1.8-3.69 1.8-1.01 0-1.82-.288-2.43-.864-.61-.592-.91-1.376-.91-2.352 0-1.056.38-1.88 1.15-2.472.75-.592 1.74-.888 2.95-.888 1.22 0 2.2.272 2.93.816 0-1.12-.08-1.976-.24-2.568-.13-.576-.39-.984-.79-1.224-.38-.24-.98-.384-1.8-.432-.98 0-1.98.28-3.02.84zm2.54 7.968c1.34 0 2.45-.568 3.31-1.704v-1.8c-.78-.576-1.72-.864-2.81-.864-.81 0-1.5.2-2.06.6-.56.4-.84.952-.84 1.656 0 .64.22 1.152.67 1.536.45.384 1.03.576 1.73.576z" fill="#141414"/><rect width="188" height="89" rx="8" fill="#F6F4F2"/><path d="M51.984 51h-1.32V34.2h1.344l6.768 9.216L65.28 34.2h1.272V51h-1.32V36.264l-6.456 9.072h-.216l-6.576-9V51zm27.019-10.8h1.416L76.05 51c-.784 1.904-1.464 3.168-2.04 3.792-.576.672-1.248 1.008-2.016 1.008-.592 0-1.208-.184-1.848-.552l.408-.96c.496.24.92.36 1.272.36.544 0 1.032-.24 1.464-.72.432-.464.88-1.248 1.344-2.352l.24-.576-5.328-10.8h1.488l3.696 7.632.768 1.68c.016-.064.216-.64.6-1.728l2.904-7.584zm12.179 6.624c0-.736-.216-1.368-.648-1.896a4.133 4.133 0 00-1.608-1.2l-2.088-.888a53.319 53.319 0 01-2.088-.984 4.253 4.253 0 01-1.608-1.416c-.432-.64-.648-1.392-.648-2.256 0-1.216.44-2.216 1.32-3 .896-.8 2.096-1.2 3.6-1.2 1.968 0 3.472.568 4.512 1.704l-.72.984c-.96-.96-2.208-1.44-3.744-1.44-1.104 0-1.976.272-2.616.816-.64.528-.96 1.24-.96 2.136 0 .72.216 1.344.648 1.872.432.512.968.896 1.608 1.152.64.256 1.336.544 2.088.864.752.304 1.448.616 2.088.936.64.32 1.176.808 1.608 1.464.432.64.648 1.416.648 2.328 0 1.312-.512 2.376-1.536 3.192-1.024.816-2.296 1.224-3.816 1.224a7.733 7.733 0 01-3.072-.648c-.992-.464-1.688-1.056-2.088-1.776l.792-.912c.48.624 1.12 1.128 1.92 1.512.8.384 1.608.576 2.424.576 1.088 0 2.024-.28 2.808-.84.784-.544 1.176-1.312 1.176-2.304zm3.981-4.224c0-2.448.8-4.496 2.4-6.144 1.6-1.648 3.608-2.472 6.024-2.472 2.4 0 4.4.816 6 2.448 1.616 1.616 2.424 3.672 2.424 6.168 0 2.624-.896 4.76-2.688 6.408l1.68 1.992h-1.584l-1.032-1.224c-1.424.96-3.024 1.44-4.8 1.44-2.4 0-4.408-.808-6.024-2.424-1.6-1.616-2.4-3.68-2.4-6.192zm1.392 0c0 2.08.672 3.832 2.016 5.256 1.36 1.408 3.032 2.112 5.016 2.112 1.472 0 2.792-.392 3.96-1.176l-1.488-1.8.888-.792 1.536 1.824c1.424-1.424 2.136-3.232 2.136-5.424 0-2.128-.68-3.88-2.04-5.256-1.344-1.408-3.008-2.112-4.992-2.112-2 0-3.672.704-5.016 2.112-1.344 1.392-2.016 3.144-2.016 5.256zm29.582 8.4h-10.176V34.2h1.32v15.552h8.856V51z" fill="#141414"/><rect x="268" width="245" height="124" rx="8" fill="#F6F4F2"/><path d="M328.672 34.2h1.608l-7.944 7.944 8.28 8.856h-1.704l-8.136-8.76 7.896-8.04zM319.984 51h-1.32V34.2h1.32V51zm20.659-2.28l.408.96c-.976 1.024-2.304 1.536-3.984 1.536-1.728 0-3.112-.512-4.152-1.536-1.056-1.024-1.584-2.384-1.584-4.08 0-1.632.48-2.976 1.44-4.032.976-1.056 2.32-1.584 4.032-1.584 1.392 0 2.56.448 3.504 1.344.928.88 1.392 2.056 1.392 3.528 0 .384-.024.72-.072 1.008h-8.904c.048 1.296.472 2.32 1.272 3.072.8.736 1.848 1.104 3.144 1.104 1.504 0 2.672-.44 3.504-1.32zm-3.96-7.56c-1.152 0-2.088.336-2.808 1.008-.704.672-1.112 1.56-1.224 2.664h7.776c-.016-1.136-.36-2.032-1.032-2.688-.672-.656-1.576-.984-2.712-.984zM357.789 51h-13.104V40.2h1.248v9.624h4.68V40.2h1.248v9.624h4.68V40.2h1.248V51zm12.266-9l-7.2 9h-1.248V40.2h1.248v9l7.2-9h1.248V51h-1.248v-9zm6.277 13.8h-1.248V40.2h1.248v1.44c.432-.48 1.008-.872 1.728-1.176.736-.32 1.48-.48 2.232-.48 1.536 0 2.76.504 3.672 1.512.912 1.008 1.368 2.32 1.368 3.936 0 1.68-.512 3.064-1.536 4.152-1.04 1.088-2.376 1.632-4.008 1.632-1.456 0-2.608-.304-3.456-.912V55.8zm3.624-14.64c-.704 0-1.392.16-2.064.48-.656.32-1.176.72-1.56 1.2v6.216c.992.656 2.112.984 3.36.984 1.28 0 2.32-.424 3.12-1.272.8-.848 1.2-1.936 1.2-3.264 0-1.328-.36-2.384-1.08-3.168-.72-.784-1.712-1.176-2.976-1.176zm13.313 10.056c-1.664 0-3.024-.528-4.08-1.584s-1.584-2.4-1.584-4.032c0-1.632.528-2.976 1.584-4.032s2.416-1.584 4.08-1.584c1.664 0 3.024.528 4.08 1.584s1.584 2.4 1.584 4.032c0 1.632-.528 2.976-1.584 4.032s-2.416 1.584-4.08 1.584zm0-1.176c1.296 0 2.336-.408 3.12-1.224.816-.832 1.224-1.904 1.224-3.216 0-1.296-.408-2.36-1.224-3.192-.816-.832-1.856-1.248-3.12-1.248-1.248 0-2.288.416-3.12 1.248-.816.832-1.224 1.896-1.224 3.192 0 1.296.408 2.36 1.224 3.192.816.832 1.856 1.248 3.12 1.248zm8.721.96V40.2c.528 0 1.04-.008 1.536-.024a85.964 85.964 0 011.944-.048c2.976 0 4.464.928 4.464 2.784 0 .624-.2 1.168-.6 1.632-.384.448-.912.728-1.584.84v.048c1.728.256 2.592 1.12 2.592 2.592 0 2.032-1.608 3.048-4.824 3.048-.208 0-.84-.016-1.896-.048A53.912 53.912 0 00401.99 51zm3.84-4.968h-2.592v3.816c1.248.032 2.056.048 2.424.048 2.24 0 3.36-.664 3.36-1.992 0-1.248-1.064-1.872-3.192-1.872zm-.216-4.728c-.528 0-1.32.016-2.376.048V45h2.856c.784 0 1.4-.168 1.848-.504.448-.352.672-.816.672-1.392 0-1.2-1-1.8-3-1.8zm8.266.696l-.336-1.032c1.072-.656 2.216-.984 3.432-.984 1.408 0 2.424.352 3.048 1.056.64.704.96 1.792.96 3.264V51h-1.248v-1.656c-.88 1.2-2.112 1.8-3.696 1.8-1.008 0-1.816-.288-2.424-.864-.608-.592-.912-1.376-.912-2.352 0-1.056.384-1.88 1.152-2.472.752-.592 1.736-.888 2.952-.888s2.192.272 2.928.816c0-1.12-.08-1.976-.24-2.568-.128-.576-.392-.984-.792-1.224-.384-.24-.984-.384-1.8-.432-.976 0-1.984.28-3.024.84zm2.544 7.968c1.344 0 2.448-.568 3.312-1.704v-1.8c-.784-.576-1.72-.864-2.808-.864-.816 0-1.504.2-2.064.6-.56.4-.84.952-.84 1.656 0 .64.224 1.152.672 1.536.448.384 1.024.576 1.728.576zM434.064 51h-1.248v-4.896h-7.008V51h-1.248V40.2h1.248v4.728h7.008V40.2h1.248V51zm12.233-9l-7.2 9h-1.248V40.2h1.248v9l7.2-9h1.248V51h-1.248v-9zm13.573 6.72l.408.96c-.976 1.024-2.304 1.536-3.984 1.536-1.728 0-3.112-.512-4.152-1.536-1.056-1.024-1.584-2.384-1.584-4.08 0-1.632.48-2.976 1.44-4.032.976-1.056 2.32-1.584 4.032-1.584 1.392 0 2.56.448 3.504 1.344.928.88 1.392 2.056 1.392 3.528 0 .384-.024.72-.072 1.008h-8.904c.048 1.296.472 2.32 1.272 3.072.8.736 1.848 1.104 3.144 1.104 1.504 0 2.672-.44 3.504-1.32zm-3.96-7.56c-1.152 0-2.088.336-2.808 1.008-.704.672-1.112 1.56-1.224 2.664h7.776c-.016-1.136-.36-2.032-1.032-2.688-.672-.656-1.576-.984-2.712-.984zM317.896 86V75.2c.528 0 1.04-.008 1.536-.024a85.964 85.964 0 011.944-.048c2.976 0 4.464.928 4.464 2.784 0 .624-.2 1.168-.6 1.632-.384.448-.912.728-1.584.84v.048c1.728.256 2.592 1.12 2.592 2.592 0 2.032-1.608 3.048-4.824 3.048-.208 0-.84-.016-1.896-.048a53.912 53.912 0 00-1.632-.024zm3.84-4.968h-2.592v3.816c1.248.032 2.056.048 2.424.048 2.24 0 3.36-.664 3.36-1.992 0-1.248-1.064-1.872-3.192-1.872zm-.216-4.728c-.528 0-1.32.016-2.376.048V80H322c.784 0 1.4-.168 1.848-.504.448-.352.672-.816.672-1.392 0-1.2-1-1.8-3-1.8zM337.187 86h-1.32V69.2h1.344l6.768 9.216 6.504-9.216h1.272V86h-1.32V71.264l-6.456 9.072h-.216l-6.576-9V86zm27.667-2.28l.408.96c-.976 1.024-2.304 1.536-3.984 1.536-1.728 0-3.112-.512-4.152-1.536-1.056-1.024-1.584-2.384-1.584-4.08 0-1.632.48-2.976 1.44-4.032.976-1.056 2.32-1.584 4.032-1.584 1.392 0 2.56.448 3.504 1.344.928.88 1.392 2.056 1.392 3.528 0 .384-.024.72-.072 1.008h-8.904c.048 1.296.472 2.32 1.272 3.072.8.736 1.848 1.104 3.144 1.104 1.504 0 2.672-.44 3.504-1.32zm-3.96-7.56c-1.152 0-2.088.336-2.808 1.008-.704.672-1.112 1.56-1.224 2.664h7.776c-.016-1.136-.36-2.032-1.032-2.688-.672-.656-1.576-.984-2.712-.984zm23.746 2.76V86h-1.248v-6.744c0-2.048-.912-3.072-2.736-3.072-1.488 0-2.592.6-3.312 1.8.032.16.048.416.048.768V86h-1.248v-7.296c0-.784-.24-1.4-.72-1.848-.48-.448-1.144-.672-1.992-.672-1.392 0-2.488.568-3.288 1.704V86h-1.248V75.2h1.248v1.512c.416-.512.96-.92 1.632-1.224a4.959 4.959 0 012.112-.48c.848 0 1.56.176 2.136.528.592.352.984.84 1.176 1.464.4-.608.952-1.088 1.656-1.44a4.943 4.943 0 012.28-.552c2.336 0 3.504 1.304 3.504 3.912zm11.969 4.632l.624.912c-.432.56-1.016.992-1.752 1.296a5.923 5.923 0 01-2.328.456c-1.68 0-3.056-.512-4.128-1.536-1.056-1.024-1.584-2.384-1.584-4.08 0-1.584.512-2.912 1.536-3.984 1.04-1.088 2.32-1.632 3.84-1.632 1.856 0 3.256.448 4.2 1.344l-.6 1.008c-.848-.784-1.984-1.176-3.408-1.176-1.152 0-2.152.424-3 1.272-.832.832-1.248 1.888-1.248 3.168 0 1.344.424 2.424 1.272 3.24.848.8 1.92 1.2 3.216 1.2 1.392 0 2.512-.496 3.36-1.488zM400.31 77l-.336-1.032c1.072-.656 2.216-.984 3.432-.984 1.408 0 2.424.352 3.048 1.056.64.704.96 1.792.96 3.264V86h-1.248v-1.656c-.88 1.2-2.112 1.8-3.696 1.8-1.008 0-1.816-.288-2.424-.864-.608-.592-.912-1.376-.912-2.352 0-1.056.384-1.88 1.152-2.472.752-.592 1.736-.888 2.952-.888s2.192.272 2.928.816c0-1.12-.08-1.976-.24-2.568-.128-.576-.392-.984-.792-1.224-.384-.24-.984-.384-1.8-.432-.976 0-1.984.28-3.024.84zm2.544 7.968c1.344 0 2.448-.568 3.312-1.704v-1.8c-.784-.576-1.72-.864-2.808-.864-.816 0-1.504.2-2.064.6-.56.4-.84.952-.84 1.656 0 .64.224 1.152.672 1.536.448.384 1.024.576 1.728.576zm16.536-1.416l.624.912c-.432.56-1.016.992-1.752 1.296a5.923 5.923 0 01-2.328.456c-1.68 0-3.056-.512-4.128-1.536-1.056-1.024-1.584-2.384-1.584-4.08 0-1.584.512-2.912 1.536-3.984 1.04-1.088 2.32-1.632 3.84-1.632 1.856 0 3.256.448 4.2 1.344l-.6 1.008c-.848-.784-1.984-1.176-3.408-1.176-1.152 0-2.152.424-3 1.272-.832.832-1.248 1.888-1.248 3.168 0 1.344.424 2.424 1.272 3.24.848.8 1.92 1.2 3.216 1.2 1.392 0 2.512-.496 3.36-1.488zM424.003 86h-1.248V69.2h1.248v7.464c.432-.48 1.008-.872 1.728-1.176a5.28 5.28 0 012.16-.48c3.008 0 4.512 1.616 4.512 4.848V86h-1.248v-5.952c0-2.576-1.184-3.864-3.552-3.864-.688 0-1.368.16-2.04.48-.656.304-1.176.696-1.56 1.176V86zm20.515-2.28l.408.96c-.976 1.024-2.304 1.536-3.984 1.536-1.728 0-3.112-.512-4.152-1.536-1.056-1.024-1.584-2.384-1.584-4.08 0-1.632.48-2.976 1.44-4.032.976-1.056 2.32-1.584 4.032-1.584 1.392 0 2.56.448 3.504 1.344.928.88 1.392 2.056 1.392 3.528 0 .384-.024.72-.072 1.008h-8.904c.048 1.296.472 2.32 1.272 3.072.8.736 1.848 1.104 3.144 1.104 1.504 0 2.672-.44 3.504-1.32zm-3.96-7.56c-1.152 0-2.088.336-2.808 1.008-.704.672-1.112 1.56-1.224 2.664h7.776c-.016-1.136-.36-2.032-1.032-2.688-.672-.656-1.576-.984-2.712-.984zM458.04 86h-1.248v-1.536c-1.008 1.152-2.248 1.728-3.72 1.728-1.6 0-2.88-.504-3.84-1.512s-1.44-2.352-1.44-4.032c0-1.664.552-3.024 1.656-4.08 1.12-1.056 2.528-1.584 4.224-1.584 1.248 0 2.288.312 3.12.936V69.2h1.248V86zm-4.728-.984c.656 0 1.296-.16 1.92-.48.64-.32 1.16-.728 1.56-1.224v-6.168c-.992-.656-2.024-.984-3.096-.984-1.296 0-2.384.416-3.264 1.248-.88.816-1.32 1.88-1.32 3.192 0 1.344.384 2.416 1.152 3.216.768.8 1.784 1.2 3.048 1.2z" fill="#141414"/></svg>