<svg width="592" height="60" viewBox="0 0 592 60" fill="none" xmlns="http://www.w3.org/2000/svg"><path fill-rule="evenodd" clip-rule="evenodd" d="M528.064 17.86c-2.555-7.025 4.789-14.529 10.776-14.768 3.592 1.836 6.706 6.625 6.546 13.17-.479 8.063-6.306 15.008-12.613 21.394-.399-7.823-2.075-12.772-4.709-19.797z" fill="#9BE400"/><path fill-rule="evenodd" clip-rule="evenodd" d="M591.206 40.69V17.54c0-.4-.319-.718-.718-.718h-3.353a.716.716 0 00-.719.718v23.07c0 .399.32.798.719.798h3.353c.399 0 .718-.32.718-.718zm-17.642.638V16.981c-1.915.08-4.789 1.277-4.789 3.832v16.684c-1.038.16-2.634.319-3.512.319-3.114 0-3.912-2.235-3.912-5.189V20.653c-.16-2.873-3.512-3.752-4.79-3.672v15.646c0 5.668 2.874 9.1 8.702 9.1.878 0 2.714-.24 3.512-.399v.32c.718 4.79-5.029 2.953-8.222 2.634-2.315 0-3.912 1.916-4.311 4.071 1.357.4 5.748.958 8.861 1.277 5.508-.08 8.461-3.113 8.461-8.302zm8.781-.638V17.54c0-.4-.319-.718-.718-.718h-3.353a.715.715 0 00-.718.718v23.07c0 .399.319.798.718.798h3.353c.399 0 .718-.32.718-.718zm-2.394-30.414a2.487 2.487 0 012.474 2.475 2.487 2.487 0 01-2.474 2.474 2.487 2.487 0 01-2.475-2.474c-.08-1.358 1.038-2.475 2.475-2.475zm8.86 0a2.487 2.487 0 012.475 2.475 2.487 2.487 0 01-2.475 2.474 2.487 2.487 0 01-2.474-2.474 2.487 2.487 0 012.474-2.475z" fill="#C5CDCF"/><path fill-rule="evenodd" clip-rule="evenodd" d="M513.854 56.016c-1.037-7.823 2.235-14.528 5.508-18.6 7.025-8.78 6.626-14.048 5.907-18.519 3.673 5.748 5.987 12.693 6.546 18.84.24 4.948-3.432 16.603-17.961 18.28z" fill="#3E7FCA"/><path d="M508.971 25.683l-.008-.002-.007-.002c-10.128-2.742-12.781-11.375-12.426-17.367 9.975-3.783 20.767.264 26.978 8.804 4.07 5.596 6.801 12.602 7.636 18.964-3.002-3.324-6.668-5.372-11.13-6.955-2.358-.898-4.647-1.564-7.328-2.344a321.15 321.15 0 01-3.715-1.098z" fill="#E4B200" stroke="#F6F4F2"/><g clip-path="url(#clip0)"><path fill-rule="evenodd" clip-rule="evenodd" d="M325.689 12.158c.019.07.029.14.029.213v11.17a.813.813 0 01-.409.706l-9.375 5.397v10.698c0 .292-.155.56-.407.707l-19.569 11.265c-.045.026-.094.042-.143.06-.018.005-.036.017-.055.021a.816.816 0 01-.417 0c-.023-.006-.043-.018-.065-.026-.044-.016-.091-.03-.134-.055L275.579 41.05a.818.818 0 01-.409-.707V6.834c0-.073.01-.145.028-.214.007-.023.021-.045.029-.068.015-.043.029-.087.052-.126.015-.027.038-.048.056-.073.023-.032.045-.066.072-.094.024-.024.054-.041.081-.061.029-.025.056-.051.089-.07h.001l9.783-5.633a.816.816 0 01.815 0l9.783 5.632h.002c.032.02.06.046.089.07.027.02.056.038.08.06.028.03.048.064.073.096.017.025.041.046.055.073.023.04.036.083.053.126.008.023.022.045.028.07.019.068.029.14.029.212v20.929l8.152-4.694v-10.7c0-.07.01-.143.028-.211.008-.024.021-.046.029-.07.016-.042.03-.086.053-.125.015-.027.038-.048.055-.073.024-.032.045-.066.073-.094.024-.024.053-.041.08-.061.03-.025.057-.051.089-.07h.001l9.784-5.633a.815.815 0 01.815 0l9.783 5.632c.034.02.061.046.091.07.026.02.055.038.079.06.028.03.048.064.073.096.018.025.041.046.055.073.023.04.036.083.053.126.009.023.022.045.028.069zm-1.602 10.911v-9.288l-3.424 1.97-4.729 2.724v9.288l8.154-4.694h-.001zm-9.783 16.802v-9.294l-4.652 2.657-13.285 7.582v9.382l17.937-10.327zM276.801 8.244V39.87l17.935 10.326v-9.38l-9.37-5.303-.003-.002-.004-.002c-.031-.018-.058-.045-.087-.067-.026-.02-.055-.037-.078-.06l-.002-.002c-.026-.026-.045-.057-.067-.086-.02-.027-.045-.05-.061-.08l-.001-.002c-.018-.03-.03-.068-.043-.102-.013-.03-.03-.06-.039-.092-.01-.04-.012-.08-.016-.12-.004-.03-.012-.06-.012-.092V12.938l-4.729-2.724-3.423-1.97zm8.968-6.102l-8.151 4.692 8.149 4.692 8.15-4.693-8.15-4.691h.002zm4.239 29.282l4.729-2.722V8.244l-3.424 1.97-4.729 2.724v20.458l3.424-1.972zm25.111-23.745l-8.15 4.692 8.15 4.692 8.149-4.693-8.149-4.691zm-.815 10.796l-4.73-2.723-3.423-1.971v9.288l4.728 2.722 3.425 1.972v-9.288zm-18.754 20.93l11.955-6.824 5.975-3.41-8.144-4.69-9.376 5.4-8.547 4.92 8.137 4.605z" fill="#FF2D20"/></g><path fill-rule="evenodd" clip-rule="evenodd" d="M344.842 15.571v23.461h8.488v4.048h-13.008V15.57h4.52zm24.442 11.672v-2.476h4.284V43.08h-4.283v-2.477c-.577.917-1.395 1.638-2.457 2.161-1.06.524-2.128.786-3.202.786-1.39 0-2.66-.254-3.813-.766a8.913 8.913 0 01-2.967-2.103 9.78 9.78 0 01-1.924-3.064 9.88 9.88 0 01-.689-3.695 9.95 9.95 0 01.688-3.675 9.723 9.723 0 011.925-3.085 8.917 8.917 0 012.967-2.102c1.153-.51 2.423-.765 3.813-.765 1.074 0 2.142.261 3.202.785 1.061.525 1.88 1.245 2.457 2.162h-.001zm-.393 8.92a6.408 6.408 0 00.394-2.24 6.39 6.39 0 00-.394-2.239 5.7 5.7 0 00-1.099-1.848 5.329 5.329 0 00-1.711-1.258 5.167 5.167 0 00-2.219-.471c-.813 0-1.547.158-2.202.471a5.384 5.384 0 00-1.69 1.259 5.405 5.405 0 00-1.079 1.846 6.67 6.67 0 00-.374 2.24c0 .786.124 1.533.373 2.24a5.403 5.403 0 001.081 1.847 5.375 5.375 0 001.69 1.258c.654.315 1.388.472 2.2.472.812 0 1.552-.157 2.22-.472a5.321 5.321 0 001.711-1.258c.48-.54.853-1.167 1.099-1.847zm8.056 6.917V24.767h11.633v4.215h-7.35v14.1h-4.283v-.002zm27.156-15.837v-2.476h4.283V43.08h-4.283v-2.477c-.577.917-1.395 1.638-2.457 2.161-1.061.524-2.127.786-3.202.786-1.389 0-2.659-.254-3.812-.766a8.913 8.913 0 01-2.967-2.103 9.762 9.762 0 01-1.925-3.064 9.9 9.9 0 01-.689-3.695c0-1.283.23-2.509.689-3.675a9.723 9.723 0 011.924-3.085 8.919 8.919 0 012.968-2.102c1.153-.51 2.423-.765 3.812-.765 1.074 0 2.141.261 3.202.785 1.062.525 1.88 1.245 2.457 2.162zm-.393 8.92a6.431 6.431 0 00.393-2.24c0-.786-.133-1.532-.393-2.239a5.686 5.686 0 00-1.1-1.848 5.325 5.325 0 00-1.71-1.258 5.171 5.171 0 00-2.22-.471c-.813 0-1.547.158-2.201.471a5.384 5.384 0 00-1.69 1.259 5.39 5.39 0 00-1.08 1.846 6.67 6.67 0 00-.374 2.24c0 .786.123 1.533.374 2.24a5.4 5.4 0 001.08 1.847 5.375 5.375 0 001.69 1.258c.654.315 1.388.472 2.201.472.811 0 1.552-.157 2.22-.472a5.307 5.307 0 001.71-1.258 5.68 5.68 0 001.1-1.847zm21.849-11.396h4.339l-7.03 18.314h-5.385l-7.03-18.314h4.339l5.384 14.024 5.383-14.024zm13.682-.471c5.832 0 9.809 5.169 9.062 11.219h-14.21c0 1.58 1.595 4.634 5.383 4.634 3.258 0 5.441-2.866 5.442-2.868l2.895 2.24c-2.588 2.762-4.707 4.031-8.024 4.031-5.928 0-9.946-3.75-9.946-9.628 0-5.317 4.152-9.628 9.397-9.628h.001zm-5.137 8.036h10.266c-.032-.353-.589-4.634-5.164-4.634-4.576 0-5.069 4.281-5.102 4.634zm16.989 10.748V15.57h4.283v27.51h-4.283z" fill="#FF2D20"/><path d="M29.272 59.12c16.167 0 29.273-13.106 29.273-29.272C58.545 13.68 45.439.575 29.272.575 13.106.575 0 13.681 0 29.848 0 46.014 13.106 59.12 29.272 59.12z" fill="#1A171B"/><path d="M42.07 11.407c-2.974.103-5.57 1.742-7.501 4.01-2.14 2.485-3.563 5.434-4.588 8.443-1.835-1.503-3.25-3.45-6.193-4.298-2.275-.653-4.664-.383-6.861 1.254-1.041.777-1.758 1.952-2.099 3.057-.883 2.871.928 5.426 1.75 6.343l1.8 1.928c.37.378 1.263 1.364.826 2.777-.471 1.537-2.324 2.532-4.224 1.946-.85-.26-2.069-.892-1.795-1.782.112-.364.373-.637.513-.951.128-.271.19-.474.228-.593.347-1.134-.127-2.608-1.341-2.983-1.133-.347-2.292-.072-2.741 1.387-.51 1.657.283 4.663 4.53 5.973 4.976 1.529 9.186-1.18 9.783-4.714.376-2.214-.623-3.858-2.454-5.973l-1.492-1.65c-.904-.902-1.214-2.441-.279-3.624.79-.997 1.913-1.423 3.754-.922 2.687.73 3.885 2.594 5.883 4.097-.825 2.707-1.364 5.424-1.852 7.86l-.298 1.816c-1.429 7.494-2.519 11.608-5.353 13.97-.57.406-1.387 1.014-2.617 1.057-.645.02-.854-.424-.863-.617-.015-.453.367-.66.62-.864.379-.207.952-.55.913-1.647-.042-1.297-1.116-2.422-2.669-2.37-1.163.039-2.937 1.134-2.87 3.138.07 2.07 1.999 3.621 4.908 3.523 1.554-.053 5.027-.686 8.449-4.754 3.983-4.663 5.097-10.009 5.935-13.922l.935-5.165c.52.062 1.075.104 1.68.118 4.96.105 7.441-2.465 7.478-4.333.024-1.132-.742-2.245-1.815-2.22-.769.022-1.734.534-1.966 1.596-.226 1.043 1.579 1.984.168 2.897-1.002.649-2.799 1.106-5.329.734l.46-2.542c.94-4.822 2.097-10.753 6.49-10.897.32-.017 1.492.014 1.52.789.008.259-.056.325-.36.917-.308.462-.424.855-.41 1.307.043 1.231.979 2.04 2.333 1.992 1.813-.06 2.334-1.824 2.304-2.73-.073-2.13-2.318-3.476-5.29-3.378z" fill="#fff"/><path d="M177.485 21.612c6.747 0 11.274 4.877 11.274 11.623 0 6.357-4.614 11.623-11.274 11.623-6.705 0-11.319-5.266-11.319-11.623 0-6.746 4.526-11.623 11.319-11.623zm0 19.94c4.786 0 6.919-4.353 6.919-8.317 0-4.22-2.568-8.313-6.919-8.313-4.398 0-6.966 4.092-6.966 8.313.001 3.963 2.133 8.318 6.966 8.318zm-11.88-17.874v-1.545h-5.879v-2.111c0-3.004.436-5.27 3.961-5.27.065 0 .134.005.202.008.007 0 .006-.01.014-.01.979.071 1.792-.726 1.847-1.703l.073-1.34c-.826-.132-1.7-.262-2.741-.262-6.052 0-7.446 3.527-7.446 8.926v1.763h-5.227v1.726c.135.893.899 1.58 1.832 1.58.006 0 .008.004.015.004h3.38v18.893h2.26c.938 0 1.707-.703 1.831-1.605V25.444h4.093a1.852 1.852 0 001.785-1.766zm-54.509-1.545c-.007 0-.011.006-.021.006-.862 0-1.698.592-2.062 1.393l-5.632 16.975h-.086L97.787 23.54c-.36-.805-1.198-1.402-2.066-1.402-.01 0-.013-.006-.022-.006h-2.853l7.532 20.724c.262.74.785 1.873.785 2.35 0 .436-1.22 5.484-4.878 5.484-.09 0-.181-.008-.27-.015-.933-.051-1.638.6-1.795 1.605l-.111 1.416c.74.13 1.483.304 2.788.304 5.397 0 7.007-4.92 8.533-9.186l8.183-22.683h-2.517v.001zm-26.014 4.51c-3.38-1.729-7.078-2.902-7.142-6.382.011-3.695 3.406-4.665 6.023-4.662.01-.002.021-.002.028-.002 1.136 0 2.045.113 2.932.307.011 0 .01-.015.024-.015.937.069 1.724-.665 1.835-1.59l.075-1.341c-1.716-.427-3.508-.642-5.069-.642-5.69.035-9.914 2.898-9.927 8.359.008 4.776 3.227 6.628 6.689 8.304 3.395 1.633 7.114 2.98 7.147 6.922-.021 4.112-3.99 5.628-6.724 5.634-1.6-.005-3.336-.405-4.799-.866-.917-.151-1.67.658-1.787 1.73l-.125 1.196c2.011.65 4.074 1.216 6.147 1.216h.024c6.372-.046 11.326-2.588 11.345-9.187-.01-5.091-3.25-7.23-6.696-8.981zm61.894 17.693h.005c.884 0 1.62-.62 1.808-1.447V30.102c0-4.833-2.045-8.49-7.708-8.49-2.002 0-5.353 1.134-6.876 4.31-1.178-3.004-3.743-4.31-6.314-4.31-3.264 0-5.485 1.175-7.049 3.745h-.089v-1.382a1.86 1.86 0 00-1.854-1.836c-.007 0-.012-.006-.02-.006h-1.956v22.203h2.221a1.856 1.856 0 001.857-1.858c0-.027.01-.038.014-.056V33.15c0-4.136 1.654-8.228 5.833-8.228 3.309 0 3.965 3.437 3.965 6.181v13.234h2.252a1.85 1.85 0 001.837-1.69V33.15c0-4.136 1.655-8.228 5.834-8.228 3.307 0 3.962 3.437 3.962 6.181v13.234h2.278zm63.237 0h.007a1.856 1.856 0 001.849-1.772V31.145c0-5.962-2.571-9.534-8.318-9.534-3.09 0-6.048 1.525-7.269 4.05h-.087v-1.658s-.004 0-.004-.005a1.847 1.847 0 00-.542-1.315 1.867 1.867 0 00-1.314-.544c-.01 0-.014-.006-.02-.006h-2.084v22.203h2.254a1.85 1.85 0 001.839-1.71v-8.564c0-5.397 2.091-9.14 6.748-9.14 3.572.216 4.7 2.74 4.7 7.92v11.493h2.241v.001zm22.033-22.203c-.01 0-.013.006-.024.006-.86 0-1.698.592-2.059 1.393l-5.63 16.975h-.092l-5.505-16.966c-.362-.805-1.201-1.402-2.068-1.402-.007 0-.014-.006-.019-.006h-2.854l7.532 20.724c.263.74.788 1.873.788 2.35 0 .436-1.223 5.484-4.88 5.484-.092 0-.181-.008-.271-.015-.932-.051-1.637.6-1.795 1.605l-.11 1.416c.739.13 1.483.304 2.788.304 5.397 0 7.009-4.92 8.534-9.186l8.184-22.683h-2.519v.001z" fill="#1A171B"/><defs><clipPath id="clip0"><path fill="#fff" transform="translate(275.17 .386)" d="M0 0h50.9v52.936H0z"/></clipPath></defs></svg>