<svg width="87" height="45" viewBox="0 0 87 45" fill="none" xmlns="http://www.w3.org/2000/svg"><path fill-rule="evenodd" clip-rule="evenodd" d="M45.037 39.038c-1.737-.142-3.608-.426-5.078-.852-.268-.142-1.47-.568-1.738-.71-5.345-2.555-8.954-8.375-8.954-14.905 0-9.085 6.95-16.467 15.503-16.467 8.419 0 15.368 7.24 15.502 16.325h5.613C65.618 9.937 56.263 0 44.635 0 33.01 0 23.522 10.079 23.522 22.429c0 8.517 4.543 15.9 11.092 19.732 1.203.71 2.94 1.42 3.475 1.561a29.15 29.15 0 006.28 1.136c.669 0 3.074.142 3.876.142h38.622v-5.962h-41.83zm3.34-9.37h-2.94c-.667 0-1.603-.141-2.271-.283a7.036 7.036 0 01-1.604-.568c-2.138-1.136-3.474-3.549-3.474-6.246 0-3.975 2.94-7.098 6.682-7.098 3.608 0 6.548 3.123 6.682 6.814h5.345c-.133-6.956-5.479-12.634-12.027-12.634-6.682 0-12.028 5.678-12.028 12.776 0 4.969 2.673 9.37 6.682 11.357.668.425 1.737.71 2.005.851 1.069.284 2.539.568 3.741.568H87v-5.678H48.378v.142zM20.048 45h-5.614V5.962H6.147V0h13.9v45zM0 8.943v5.82h6.147V45h5.48V8.943H0z" fill="#141414"/></svg>