<svg width="93" height="56" viewBox="0 0 93 56" fill="none" xmlns="http://www.w3.org/2000/svg"><g clip-path="url(#clip0)" fill="#141414"><path d="M26.21 20.338c-.023.936.091 1.87.341 2.772.275.771.606 1.52.99 2.243.137.213.212.461.216.716a1.25 1.25 0 01-.587.934l-1.95 1.308a1.464 1.464 0 01-.803.28 1.419 1.419 0 01-.928-.435 9.624 9.624 0 01-1.114-1.464 24.55 24.55 0 01-.959-1.838c-2.412 2.866-5.443 4.298-9.093 4.298-2.598 0-4.67-.747-6.186-2.242s-2.29-3.488-2.29-5.98c0-2.648.929-4.796 2.815-6.416 1.887-1.62 4.393-2.43 7.578-2.43 1.098.01 2.193.093 3.28.25 1.144.155 2.319.405 3.556.685v-2.274c0-2.367-.495-4.018-1.454-4.983-.958-.966-2.66-1.433-5.041-1.433-1.126 0-2.247.136-3.34.405A24.523 24.523 0 007.9 5.794a8.835 8.835 0 01-1.083.404c-.16.053-.327.085-.495.093-.433 0-.65-.311-.65-.965V3.8a1.983 1.983 0 01.217-1.09c.233-.284.53-.508.866-.654A17.726 17.726 0 0110.652.654a18.63 18.63 0 014.826-.592c3.68 0 6.371.841 8.104 2.523 1.732 1.682 2.567 4.236 2.567 7.662v10.091h.062zm-12.557 4.734a9.96 9.96 0 003.186-.56 6.89 6.89 0 002.938-1.994 4.953 4.953 0 001.052-1.993c.212-.887.316-1.797.309-2.71v-1.308a25.665 25.665 0 00-2.846-.53 23.15 23.15 0 00-2.907-.186c-2.072 0-3.588.405-4.609 1.246-1.02.84-1.515 2.024-1.515 3.582 0 1.463.37 2.553 1.144 3.3.773.748 1.825 1.153 3.248 1.153zm24.837 3.364a1.717 1.717 0 01-1.175-.311 2.544 2.544 0 01-.65-1.215L29.397 2.834a5.491 5.491 0 01-.279-1.246.688.688 0 01.182-.572.677.677 0 01.56-.206h3.032c.587 0 .99.093 1.206.311.217.218.433.623.619 1.215l5.196 20.618 4.825-20.618c.155-.623.34-1.028.588-1.215A2.117 2.117 0 0146.563.81h2.475c.587 0 .99.093 1.237.311.324.329.53.756.588 1.215l4.887 20.868L61.1 2.336c.1-.452.312-.87.62-1.215.359-.23.781-.338 1.206-.311h2.876a.682.682 0 01.744.464.696.696 0 01.03.314 3.14 3.14 0 01-.062.499 4.468 4.468 0 01-.217.778l-7.454 24.076c-.186.623-.402 1.028-.65 1.215a1.97 1.97 0 01-1.175.311h-2.66c-.588 0-.99-.093-1.237-.311a2.214 2.214 0 01-.588-1.246L47.739 6.82l-4.764 20.06a2.441 2.441 0 01-.587 1.246 1.907 1.907 0 01-1.238.311h-2.66zm39.747.841a20.338 20.338 0 01-4.764-.56c-1.546-.374-2.753-.78-3.557-1.246a2.236 2.236 0 01-.959-.873 2.212 2.212 0 01-.185-.872v-1.588c0-.654.247-.966.711-.966.19.001.377.033.557.094.185.062.464.187.773.311 1.093.484 2.233.85 3.403 1.09 1.211.248 2.444.373 3.68.374 1.949 0 3.465-.342 4.516-1.028a3.345 3.345 0 001.2-1.26c.283-.52.424-1.106.409-1.698a3.054 3.054 0 00-.835-2.18c-.557-.593-1.609-1.122-3.125-1.62l-4.485-1.402c-2.257-.716-3.928-1.775-4.948-3.177A7.454 7.454 0 0169.08 8.16a6.97 6.97 0 01.835-3.457 7.99 7.99 0 012.227-2.554A9.792 9.792 0 0175.36.53 13.393 13.393 0 0179.257 0c.693-.005 1.385.037 2.073.125.711.093 1.36.218 2.01.342.65.125 1.206.312 1.763.499.452.14.887.328 1.3.56.363.185.68.451.927.779.201.303.3.664.279 1.028v1.463c0 .654-.248.997-.712.997a3.2 3.2 0 01-1.175-.374 14.067 14.067 0 00-5.939-1.214c-1.763 0-3.155.28-4.114.872-.959.592-1.453 1.495-1.453 2.772a2.958 2.958 0 00.927 2.211c.619.592 1.763 1.184 3.403 1.713l4.392 1.402c2.227.716 3.835 1.713 4.794 2.99a7.08 7.08 0 011.423 4.36 8.054 8.054 0 01-.804 3.613 8.363 8.363 0 01-2.258 2.74 9.944 9.944 0 01-3.433 1.745 14.613 14.613 0 01-4.423.654zm5.846 15.137C73.906 51.982 59.12 56 46.409 56 28.593 56 12.539 49.366.414 38.34c-.958-.872-.092-2.055 1.052-1.37 13.115 7.662 29.292 12.303 46.025 12.303a91.301 91.301 0 0035.107-7.226c1.701-.779 3.155 1.121 1.485 2.367zm4.237-4.859c-1.299-1.682-8.599-.81-11.908-.405-.99.125-1.145-.747-.248-1.401 5.815-4.112 15.373-2.928 16.486-1.558 1.114 1.37-.309 11.026-5.753 15.636-.835.716-1.639.342-1.268-.592 1.237-3.084 3.99-10.03 2.691-11.68z"/></g><defs><clipPath id="clip0"><path fill="#fff" d="M0 0h93v56H0z"/></clipPath></defs></svg>