<svg width="242" height="48" viewBox="0 0 242 48" fill="none" xmlns="http://www.w3.org/2000/svg"><path fill-rule="evenodd" clip-rule="evenodd" d="M94.643 22.536a3.476 3.476 0 100 6.948 3.476 3.476 0 000-6.948zm141.448-2.55c2.279 0 3.946 1.275 5.039 2.55v-6.16c-1.791-1.214-3.948-1.7-5.824-1.7-5.762 0-10.769 4.126-10.769 11.224 0 6.797 4.55 11.227 10.859 11.227 1.82 0 3.821-.276 5.734-1.578v-6.041c-1.093 1.125-2.819 2.31-5.039 2.31-3.395 0-5.429-2.518-5.429-5.735 0-3.49 2.154-6.098 5.429-6.098zm-10.902-4.702h-6.978l-6.402 8.918v-8.918h-5.944l.002 21.236h5.942v-9.134l6.156 9.134h7.437l-8.283-10.953 8.07-10.283zm-36.881 12.742V15.284h-5.734V36.52h5.825l8.221-12.743V36.52h5.734V15.284h-5.826l-8.22 12.742zm-17.229-3.188h-1.696v-4.882h1.696c2.549 0 2.911 1.364 2.911 2.426 0 .91-.272 2.456-2.911 2.456zm1.303-9.554h-8.947V36.52h5.948v-7.012h2.999c6.008 0 7.738-4.181 7.738-7.126 0-2.913-1.7-7.098-7.738-7.098zm-26.661 5.095h4.668v16.14h5.948V20.38h4.67v-5.095h-15.286v5.095zm-16.475 7.647V15.284h-5.732V36.52h5.826l8.217-12.743V36.52h5.735V15.284h-5.823l-8.223 12.742zm-17.715 4.244h-2.547v-4.458h2.547c1.882 0 2.975.547 2.975 2.217 0 1.697-1.123 2.24-2.975 2.24zm.578-8.705h-3.125v-3.186h9.737v-5.095h-15.682l-.001 21.236h9.071c1.545 0 8.342.058 8.342-6.583 0-6.402-6.734-6.372-8.342-6.372zM69.761 25.9c0 6.797 4.55 11.227 10.86 11.227 1.822 0 3.823-.276 5.735-1.578v-6.041c-1.096 1.125-2.824 2.31-5.038 2.31-3.398 0-5.43-2.518-5.43-5.735 0-3.49 2.154-6.098 5.43-6.098 2.275 0 3.942 1.276 5.038 2.551v-6.16c-1.794-1.214-3.946-1.7-5.827-1.7-5.764 0-10.768 4.126-10.768 11.224zm-12.448-5.732h3.248V36.52h5.49V15.284h-8.738v4.884zM23.346.414c-1.739 0-3.43.196-5.06.558v22.806a5.083 5.083 0 005.074 5.074 5.082 5.082 0 005.072-5.073 5.083 5.083 0 00-4.735-5.063v-4.062c4.873.177 8.794 4.208 8.794 9.125 0 5.029-4.102 9.133-9.131 9.133-5.032 0-9.133-4.104-9.133-9.134V2.262c-.577.245-1.14.516-1.692.808v20.708c.001 5.96 4.864 10.821 10.825 10.821 5.96 0 10.822-4.86 10.822-10.82 0-5.848-4.678-10.637-10.485-10.818v-4.06c8.041.182 14.542 6.796 14.542 14.878 0 8.198-6.684 14.88-14.88 14.88-8.196 0-14.883-6.682-14.883-14.881V5.763C3.3 10.043 0 16.516 0 23.761 0 36.654 10.453 47.11 23.347 47.11c12.897 0 23.346-10.456 23.346-23.35 0-12.893-10.45-23.346-23.347-23.346z" fill="#141414"/></svg>