<svg width="265" height="53" viewBox="0 0 265 53" fill="none" xmlns="http://www.w3.org/2000/svg"><path fill-rule="evenodd" clip-rule="evenodd" d="M103.707 25.173a3.809 3.809 0 10-.001 7.613 3.809 3.809 0 00.001-7.613zm154.992-2.795c2.497 0 4.324 1.398 5.521 2.795v-6.75c-1.962-1.33-4.326-1.863-6.381-1.863-6.314 0-11.8 4.521-11.8 12.3 0 7.447 4.986 12.301 11.898 12.301 1.994 0 4.188-.302 6.283-1.73v-6.619c-1.197 1.233-3.089 2.53-5.521 2.53-3.721 0-5.949-2.757-5.949-6.283 0-3.823 2.361-6.681 5.949-6.681zm-11.946-5.151h-7.646l-7.015 9.77v-9.77h-6.514l.002 23.268h6.512V30.488l6.745 10.007h8.149l-9.076-12 8.843-11.268zM206.34 31.188V17.227h-6.282v23.268h6.382l9.009-13.962v13.962h6.282V17.227h-6.384l-9.007 13.961zm-18.878-3.492h-1.859v-5.35h1.859c2.792 0 3.189 1.494 3.189 2.659 0 .996-.298 2.69-3.189 2.69zm1.427-10.47h-9.804v23.27h6.518v-7.684h3.286c6.584 0 8.479-4.581 8.479-7.807 0-3.193-1.862-7.778-8.479-7.778zm-29.214 5.583h5.116v17.686h6.517V22.81h5.117v-5.582h-16.75v5.582zm-18.052 8.38V17.226h-6.281v23.268h6.384l9.004-13.962v13.962h6.284V17.227h-6.381l-9.01 13.961zm-19.411 4.65h-2.792v-4.885h2.792c2.061 0 3.259.6 3.259 2.43 0 1.859-1.23 2.455-3.259 2.455zm.633-9.539h-3.425v-3.49h10.67v-5.582h-17.184l-.001 23.268h9.94c1.693 0 9.14.065 9.14-7.212 0-7.016-7.379-6.983-9.14-6.983zm-46.403 2.56c0 7.447 4.986 12.301 11.899 12.301 1.996 0 4.19-.302 6.285-1.73v-6.619c-1.2 1.233-3.095 2.53-5.52 2.53-3.724 0-5.95-2.757-5.95-6.283 0-3.823 2.36-6.681 5.95-6.681 2.492 0 4.32 1.398 5.52 2.795v-6.75c-1.966-1.33-4.324-1.863-6.385-1.863-6.316 0-11.8 4.521-11.8 12.3zm-13.64-6.282h3.558v17.917h6.017V17.227h-9.576v5.35zM25.582.933c-1.906 0-3.76.214-5.546.61v24.99a5.57 5.57 0 005.56 5.56 5.569 5.569 0 005.558-5.558 5.57 5.57 0 00-5.188-5.548v-4.45c5.34.193 9.636 4.61 9.636 9.998 0 5.51-4.495 10.007-10.005 10.007-5.514 0-10.008-4.497-10.008-10.008V2.958c-.631.268-1.248.565-1.853.885v22.69c0 6.532 5.33 11.858 11.86 11.858 6.533 0 11.859-5.326 11.859-11.856 0-6.408-5.126-11.656-11.489-11.854v-4.448c8.812.199 15.934 7.445 15.934 16.302 0 8.982-7.324 16.305-16.303 16.305-8.983 0-16.31-7.323-16.31-16.306V6.794C3.618 11.484 0 18.576 0 26.514 0 40.644 11.453 52.1 25.583 52.1c14.131 0 25.581-11.456 25.581-25.584 0-14.129-11.45-25.582-25.582-25.582z" fill="#141414"/></svg>