<svg width="256" height="64" viewBox="0 0 256 64" fill="none" xmlns="http://www.w3.org/2000/svg"><path d="M37.247 23.142H25.995v2.926h11.252v-2.926z" fill="#141414"/><path d="M37.246.638h-2.925v22.504h2.925V.638z" fill="#141414"/><path d="M11.82 23.142V16.84c0-2.729 2.22-4.95 4.95-4.95h17.552v2.925H16.769a2.028 2.028 0 00-2.025 2.025v6.302h-2.925zm2.924 2.926h-2.925v12.489h2.925V26.068z" fill="#141414"/><path d="M25.996 14.815H23.07v34.993h2.925V14.815z" fill="#141414"/><path d="M5.519 41.481a4.955 4.955 0 01-4.951-4.95v-8.438a4.958 4.958 0 014.95-4.952h17.553v2.927H5.519a2.028 2.028 0 00-2.026 2.024v8.438a2.03 2.03 0 002.026 2.026H23.07v2.925H5.519zM23.071 11.89v-6.3a4.957 4.957 0 014.95-4.952h6.301v2.925h-6.3a2.029 2.029 0 00-2.026 2.027v6.3H23.07zm14.176 26.667H25.995v2.924h11.252v-2.924zm-.001 2.924h-2.925v22.504h2.925V41.481z" fill="#141414"/><path d="M16.77 52.733a4.957 4.957 0 01-4.95-4.95V41.48h2.924v6.302c0 1.117.909 2.025 2.025 2.025h17.553v2.925H16.769zm11.252 11.252c-2.73 0-4.95-2.22-4.95-4.95v-6.302h2.924v6.301c0 1.116.909 2.025 2.026 2.025h6.3v2.926h-6.3zM81.778 26.23c-.128-.84-.432-1.553-.907-2.135-.478-.586-1.171-1.043-2.078-1.374-.906-.331-2.123-.494-3.649-.494-.458 0-.973.011-1.545.037-.572.024-1.148.07-1.734.133-.594.064-2.286.315-3.505.799l.644 2.247c.878-.272 3.383-.612 5.57-.624 1.678-.01 2.84.266 3.488.8.649.533.973 1.5.973 2.9v1.295h-5.263c-2.544 0-4.361.528-5.456 1.585-1.093 1.055-1.639 2.663-1.639 4.822 0 1.732.394 3.041 1.182 3.928.79.892 1.941 1.337 3.798 1.337 2.508 0 5.38-1.13 7.34-2.364l.077 2.059h2.897V29.014a18.55 18.55 0 00-.193-2.784zm-2.743 10.45c-.432.256-.923.51-1.468.763-1.223.572-5.923 2.516-7.322.88-.437-.51-.63-1.148-.63-2.215 0-1.525.366-2.528 1.029-3.088.709-.6 1.616-.803 2.784-.803h5.607v4.463zm59.021-10.45c-.129-.84-.432-1.553-.908-2.135-.479-.586-1.171-1.043-2.078-1.374-.906-.331-2.123-.494-3.649-.494-.458 0-.973.011-1.546.037-.572.024-1.149.07-1.734.133-.593.064-2.285.315-3.506.799l.645 2.247c.877-.272 3.384-.612 5.568-.624 1.679-.01 2.843.266 3.49.8.65.533.973 1.5.973 2.9v1.295h-5.264c-2.542 0-4.36.528-5.455 1.585-1.093 1.055-1.639 2.663-1.639 4.822 0 1.732.394 3.041 1.182 3.928.79.892 1.941 1.337 3.798 1.337 2.508 0 5.38-1.13 7.34-2.364l.078 2.059h2.897V29.014c0-1.016-.064-1.944-.192-2.784zm-2.744 10.45c-.432.256-.922.51-1.469.763-1.222.572-5.922 2.516-7.321.88-.437-.51-.63-1.148-.63-2.215 0-1.525.366-2.528 1.028-3.088.71-.6 1.616-.803 2.784-.803h5.608v4.463zm-70.795 1.528c-3.325.777-5.551.686-5.89.686-.838 0-1.55-.116-2.135-.346a2.921 2.921 0 01-1.411-1.163c-.356-.545-.611-1.277-.762-2.191-.153-.916-.23-2.072-.23-3.471 0-1.297.076-2.383.23-3.261.151-.876.4-1.585.744-2.119a2.975 2.975 0 011.392-1.163c.584-.24 1.309-.36 2.173-.36.687 0 1.507.044 2.461.134.925.085 1.77.165 3.329.458l.573-2.19c-2.13-.698-5.352-.995-6.325-.995-1.678 0-3.019.264-4.024.8-1.005.532-1.78 1.246-2.326 2.136-.547.889-.903 1.907-1.069 3.05a24.81 24.81 0 00-.246 3.546c0 1.35.081 2.607.247 3.778.166 1.168.521 2.198 1.068 3.089.546.891 1.321 1.588 2.326 2.096 1.005.51 2.346.765 4.024.765 1.734 0 4.195-.306 6.497-1.182l-.646-2.097zm90.535 0c-3.325.777-5.553.686-5.89.686-.838 0-1.551-.116-2.135-.346a2.922 2.922 0 01-1.412-1.163c-.355-.545-.61-1.277-.762-2.191-.153-.916-.229-2.072-.229-3.471 0-1.297.076-2.383.229-3.261.152-.876.401-1.585.744-2.119a2.98 2.98 0 011.392-1.163c.583-.24 1.309-.36 2.173-.36.687 0 1.507.044 2.462.134.924.085 1.769.165 3.328.458l.574-2.19c-2.13-.698-5.352-.995-6.326-.995-1.678 0-3.019.264-4.024.8-1.005.532-1.779 1.246-2.327 2.136-.546.889-.901 1.907-1.067 3.05a24.81 24.81 0 00-.247 3.546c0 1.35.082 2.607.247 3.778.166 1.168.521 2.198 1.067 3.089.549.891 1.322 1.588 2.327 2.096 1.005.51 2.346.765 4.024.765 1.734 0 4.196-.306 6.499-1.182l-.647-2.097zM89.019 14.291h-2.86v26.89h2.86V14.29zm7.253 0h-2.86v26.89h2.86V14.29zm11.53 24.575c-1.017.184-2.269.263-2.927.14-.342-.061-.615-.182-.82-.36-.203-.178-.336-.495-.399-.775-.066-.278-.132-.888-.132-1.343V25.005h4.56V22.6h-4.56v-5.966l-2.859 1.302v19.502c0 .609.062 1.162.191 1.658.126.495.342.922.647 1.279.306.355.724.629 1.26.818a5.27 5.27 0 002.02.288c1.746-.077 2.86-.415 3.472-.587l-.453-2.028zm13.917-13.963l.013-2.54c-.53.057-1.836.3-2.395.491a18.58 18.58 0 00-1.639.65c-.535.243-1.024.483-1.47.725a7.145 7.145 0 00-1.048.667l-.078-.076v-2.212h-2.935v18.573h2.935V27.07c2.62-1.386 5.461-1.924 6.617-2.168zm115.435 0l.012-2.54c-.53.057-1.836.3-2.395.491a18.58 18.58 0 00-1.639.65c-.535.243-1.024.483-1.47.725a7.145 7.145 0 00-1.048.667l-.078-.076v-2.212h-2.935v18.573h2.935V27.07c2.62-1.386 5.461-1.924 6.618-2.168zM173.179 41.18l-6.907-11.06 6.248-7.512h-3.358l-5.751 6.902-1.983 2.554-.075-.038V15.292h-2.937V41.18h2.937v-5.15l3.051-3.698 5.441 8.848h3.334zm5.705-18.572h-2.863v18.573h2.863V22.608zm-1.431-3.244c.711 0 1.162-.165 1.352-.496.193-.33.289-.736.289-1.22 0-.51-.104-.908-.307-1.203-.202-.29-.647-.435-1.334-.435-.662 0-1.101.151-1.317.456-.215.307-.325.7-.325 1.183 0 .457.09.857.27 1.2.178.344.636.515 1.372.515zm45.353 21.816c.711 0 1.163-.164 1.353-.495.193-.33.288-.736.288-1.22 0-.51-.104-.908-.307-1.203-.202-.29-.646-.436-1.334-.436-.662 0-1.1.152-1.316.457-.215.306-.326.7-.326 1.182 0 .457.091.857.27 1.2.179.345.637.516 1.372.516zM194.86 25.735c.538.737.628 2.081.628 3.508V41.18h2.937v-11.9c0-1.018-.057-1.957-.172-2.823-.114-.864-.361-1.607-.743-2.23-.382-.625-.934-1.113-1.658-1.469-.726-.354-1.71-.533-2.957-.533-.685 0-1.361.09-2.022.265a14.872 14.872 0 00-3.507 1.45c-.484.28-.879.522-1.182.724l-.115-.036v-2.021h-2.86V41.18h2.86V27.032c.279-.155.685-.349 1.221-.593a28.385 28.385 0 013.546-1.316c.611-.177 1.144-.266 1.602-.266.585 0 1.075.064 1.468.19.392.129.712.357.954.688zm48.848 11.938c-.538-.738-.629-2.082-.629-3.508V22.226h-2.936v11.9c0 1.019.057 1.957.171 2.824.115.863.362 1.607.743 2.229.383.625.934 1.113 1.659 1.47.726.353 1.71.532 2.956.532.686 0 1.361-.089 2.023-.264a14.872 14.872 0 003.507-1.45c.484-.28.879-.523 1.182-.725l.115.037v2.02h2.86V22.226h-2.86v14.149c-.279.155-.685.35-1.222.593-.532.24-1.104.476-1.714.705-.612.23-1.222.431-1.831.611-.611.178-1.144.266-1.602.266-.586 0-1.075-.064-1.468-.19a1.876 1.876 0 01-.954-.687zm-34.156-15.446c.585 0 1.192.023 1.827.076.633.049 1.254.113 1.864.188.609.076 3.23.538 4.224.811v17.955a16.09 16.09 0 01-.228 2.804c-.153.852-.482 1.59-.991 2.213-.506.622-1.24 1.106-2.203 1.448-.965.344-2.259.514-3.882.514-.479 0-.998-.01-1.558-.037a23.654 23.654 0 01-1.655-.133 16.116 16.116 0 01-1.596-.268c-.519-.113-1.463-.372-1.957-.57l.427-2.102c.218.07.548.123.828.174a26.5 26.5 0 002.708.267c.99.05 1.881.077 2.668.077.891 0 1.621-.072 2.193-.21.571-.14 1.03-.362 1.374-.667a2.46 2.46 0 00.725-1.164c.139-.471.209-1.036.209-1.698v-1.524c-1.17.432-2.194.73-3.071.895-.875.165-1.657.247-2.345.247-1.474 0-2.687-.222-3.643-.668a5.365 5.365 0 01-2.266-1.925c-.561-.838-.95-1.842-1.166-3.012-.215-1.169-.323-2.48-.323-3.93 0-1.55.127-2.93.379-4.138.254-1.207.685-2.23 1.295-3.07.609-.84 1.414-1.473 2.416-1.907 1.001-.431 2.25-.646 3.747-.646zm-4.786 9.418c0 1.349.076 2.481.23 3.394.151.916.399 1.666.741 2.252.344.586.783 1.005 1.316 1.257.536.256 1.196.382 1.986.382.709 0 1.563-.075 2.555-.227.991-.155 1.969-.37 2.936-.65v-12.7a76.11 76.11 0 00-2.383-.285 23.588 23.588 0 00-2.499-.133 7.69 7.69 0 00-1.925.228 3.208 3.208 0 00-1.564.935c-.446.47-.789 1.142-1.032 2.021-.24.875-.361 2.052-.361 3.526z" fill="#141414"/></svg>