<svg width="171" height="67" viewBox="0 0 171 67" fill="none" xmlns="http://www.w3.org/2000/svg"><g clip-path="url(#clip0)"><path d="M64.868.436H0v66.128h64.868V.436z" fill="#fff"/><path fill-rule="evenodd" clip-rule="evenodd" d="M62.614 13.1a3.543 3.543 0 00-1.225-.217H3.769c-.467 0-.914.09-1.323.254l20.33 20.124 5.991-4.938a5.336 5.336 0 016.755-.045l5.107 4.096L62.614 13.1zm-20.25 20.666l22.426 17.99a3.74 3.74 0 00.21-1.24V16.564c0-.774-.234-1.493-.635-2.086l-22 19.288zM.157 16.564c0-.748.219-1.444.595-2.025l20.326 20.12L.359 51.733a3.74 3.74 0 01-.202-1.217V16.564zm63.325 36.952l-29.3-23.502a3.202 3.202 0 00-4.053.027L1.657 53.503a3.549 3.549 0 002.111.694H61.39c.78 0 1.503-.252 2.093-.68z" fill="#141414"/></g><path d="M99.313 35.54h-9.411v6.267h11.045v3.872H85V22.285h15.914v3.905H89.902v5.575h9.41v3.776zm10.3-7.246l.147 1.944c1.252-1.51 2.946-2.265 5.081-2.265 2.276 0 3.839.884 4.689 2.651 1.242-1.767 3.012-2.651 5.31-2.651 1.917 0 3.344.552 4.281 1.655.937 1.092 1.405 2.742 1.405 4.949v11.102h-4.738V34.592c0-.985-.196-1.703-.588-2.152-.393-.461-1.084-.691-2.075-.691-1.416 0-2.397.664-2.941 1.992l.016 11.938h-4.722v-11.07c0-1.007-.201-1.736-.604-2.186-.403-.45-1.09-.674-2.059-.674-1.34 0-2.309.546-2.908 1.639v12.29h-4.722V28.295h4.428zm36.474 17.385c-.218-.418-.376-.938-.474-1.559-1.144 1.253-2.63 1.88-4.46 1.88-1.732 0-3.17-.493-4.314-1.478-1.133-.986-1.699-2.228-1.699-3.728 0-1.842.692-3.256 2.075-4.241 1.394-.986 3.404-1.484 6.029-1.494h2.173v-.997c0-.803-.212-1.446-.637-1.928-.414-.482-1.073-.723-1.977-.723-.795 0-1.422.188-1.879.563-.447.375-.67.889-.67 1.542h-4.722c0-1.007.316-1.939.948-2.796.632-.857 1.525-1.526 2.679-2.008 1.155-.493 2.451-.739 3.889-.739 2.178 0 3.905.54 5.179 1.623 1.286 1.07 1.928 2.581 1.928 4.53v7.536c.011 1.65.245 2.897.703 3.744v.273h-4.771zm-3.905-3.23c.697 0 1.34-.15 1.928-.45.588-.31 1.024-.723 1.307-1.237v-2.988h-1.765c-2.363 0-3.621.803-3.774 2.41l-.016.273c0 .578.207 1.055.621 1.43.414.375.98.562 1.699.562zm18.257 3.23h-4.738V28.294h4.738V45.68zm-5.016-21.883c0-.697.234-1.27.702-1.72.48-.45 1.128-.674 1.945-.674.806 0 1.448.225 1.928.674.479.45.718 1.023.718 1.72 0 .707-.245 1.285-.735 1.735-.479.45-1.116.675-1.911.675-.796 0-1.438-.225-1.928-.675-.48-.45-.719-1.028-.719-1.735zM171 45.679h-4.738V21H171v24.679z" fill="#141414"/><defs><clipPath id="clip0"><path fill="#fff" d="M0 0h65v67H0z"/></clipPath></defs></svg>