<svg width="142" height="54" viewBox="0 0 142 54" fill="none" xmlns="http://www.w3.org/2000/svg"><g clip-path="url(#clip0)" fill="#141414"><path d="M53.693 32.889l3.104 8.15h-6.015l2.912-8.15h-.001zm-1.165-2.73l-6.791 17.849h2.522l1.746-4.85h7.566l1.746 4.85h2.522l-6.792-17.85h-2.522.003zm36.66 17.864h2.34V30.171h-2.34v17.852zm-23.855-10.49c.776-1.166 2.34-2.136 3.88-2.136 3.105 0 4.657 2.135 4.657 5.24v7.566h-2.34v-7.18c0-2.521-1.358-3.492-3.104-3.492-1.941 0-3.298 1.94-3.298 3.687v6.79h-2.34v-12.4h2.34l.195 1.941.01-.017zm10.478 6.803c0-2.73 2.522-4.269 5.434-4.269 1.746 0 2.912.39 3.298.776v-.39c0-1.94-1.552-2.912-3.104-2.912-1.359 0-2.522.583-2.912 1.746l-2.135-.97c.39-1.164 1.941-2.912 5.044-2.912 2.912 0 5.434 1.746 5.434 5.24v7.373h-2.135v-1.746h-.195c-.582.97-1.94 2.135-4.074 2.135-2.522 0-4.656-1.553-4.656-4.075l.001.004zm8.73-1.556s-.97-.776-2.912-.776c-2.34 0-3.299 1.359-3.299 2.34 0 1.359 1.359 1.941 2.522 1.941 1.746 0 3.687-1.552 3.687-3.493"/><path fill-rule="evenodd" clip-rule="evenodd" d="M94.828 53.457l2.73-6.402-4.85-11.255h2.34l3.687 8.538 3.687-8.538h2.34l-7.566 17.657h-2.368zm34.151-13.585c-.583-1.552-1.941-2.522-3.299-2.522-1.94 0-3.686 1.746-3.686 4.27 0 2.523 1.746 4.269 3.686 4.269 1.359 0 2.73-.97 3.299-2.34l1.94 1.164c-.969 2.135-2.912 3.493-5.239 3.493-3.298 0-6.015-2.912-6.015-6.597 0-3.88 2.73-6.598 6.015-6.598 2.34 0 4.27 1.359 5.239 3.493l-1.94 1.359v.01z"/><path d="M137.321 48.41c3.104 0 4.656-1.745 4.656-3.88 0-4.657-6.791-2.912-6.791-5.626 0-.97.776-1.553 2.135-1.553 1.358 0 2.73.583 3.298 1.553l1.358-1.359c-.776-.97-2.912-2.34-4.849-2.34-2.912 0-4.463 1.746-4.463 3.88 0 4.463 6.985 2.913 6.985 5.24 0 1.164-.776 1.94-2.34 1.94-1.564 0-2.34-.97-3.104-1.94l-1.724 1.371c1.165 1.165 2.912 2.73 4.849 2.73l-.01-.016zm-22.12-.387h2.34V35.605h-2.34v12.418z"/><path fill-rule="evenodd" clip-rule="evenodd" d="M116.171 29.602c.97 0 1.552.776 1.552 1.552 0 .97-.776 1.552-1.552 1.552s-1.552-.776-1.552-1.552.776-1.552 1.552-1.552zm-3.298 16.493l.39 1.746h-2.34c-2.135 0-3.105-1.552-3.105-3.88v-6.039h-2.34v-2.34h2.34V31.92h2.34v3.686h2.73v2.34h-2.73v6.403c0 1.746 1.359 1.746 2.73 1.746l-.015.001z"/><path d="M57.535 10.438v2.912h6.79c-.194 1.552-.775 2.73-1.551 3.493-.97.97-2.522 2.134-5.24 2.134-4.074 0-7.373-3.298-7.373-7.566 0-4.074 3.298-7.566 7.374-7.566 2.34 0 3.88.97 5.044 1.941l1.94-1.94C62.774 2.292 60.64.932 57.535.932c-5.627 0-10.478 4.657-10.478 10.27 0 5.614 4.849 10.27 10.478 10.27 3.104 0 5.434-.97 7.178-2.912 1.941-1.94 2.522-4.463 2.522-6.597 0-.583 0-1.359-.195-1.746h-9.507l.002.22zM74.8 8.098c-3.687 0-6.597 2.73-6.597 6.597 0 3.867 2.912 6.598 6.597 6.598a6.54 6.54 0 006.598-6.598c0-3.88-2.912-6.597-6.598-6.597zm0 10.66c-1.94 0-3.687-1.746-3.687-4.075 0-2.328 1.746-4.06 3.687-4.06 1.941 0 3.688 1.56 3.688 4.068 0 2.51-1.746 4.074-3.687 4.074v-.008zm31.811-9.303c-.776-.776-1.941-1.552-3.687-1.552-3.298 0-6.208 2.912-6.208 6.597 0 3.686 2.912 6.598 6.208 6.598 1.552 0 2.912-.777 3.493-1.553h.195v.97c0 2.522-1.358 3.88-3.493 3.88-1.746 0-2.912-1.358-3.298-2.34l-2.522.97c.776 1.746 2.73 3.88 5.822 3.88 3.493 0 6.402-1.94 6.402-6.984V7.892h-2.73v1.552l-.182.01zm-3.298 9.313c-1.941 0-3.493-1.746-3.493-4.074 0-2.329 1.552-4.075 3.493-4.075 1.941 0 3.493 1.746 3.493 4.075 0 2.328-1.552 4.074-3.493 4.074zM89.148 8.108c-3.687 0-6.597 2.73-6.597 6.597 0 3.868 2.912 6.598 6.597 6.598a6.54 6.54 0 006.598-6.598c.195-3.88-2.912-6.597-6.598-6.597zm0 10.66c-1.94 0-3.687-1.746-3.687-4.074 0-2.329 1.746-4.075 3.687-4.075 1.94 0 3.687 1.553 3.687 4.075 0 2.522-1.746 4.074-3.687 4.074zm22.534-17.644h2.912v20.179h-2.912V1.124zm10.865 17.657c-1.552 0-2.522-.776-3.298-1.941l8.926-3.687-.39-.776c-.582-1.552-2.34-4.27-5.626-4.27-3.493 0-6.209 2.73-6.209 6.598a6.532 6.532 0 001.915 4.683 6.534 6.534 0 004.682 1.915c3.105 0 4.849-1.941 5.627-2.912l-2.34-1.552c-.776 1.165-1.746 1.94-3.298 1.94l.011.002zm-.195-8.151c1.165 0 2.135.582 2.522 1.552l-6.015 2.522c0-2.912 1.941-4.074 3.493-4.074zM28.805 7.466v34.082c0 3.814 2.634 5.939 5.422 5.939 2.583 0 5.423-1.807 5.423-5.939V7.724c0-3.496-2.582-5.68-5.423-5.68-2.84 0-5.422 2.409-5.422 5.422zM14.604 24.765v16.783c0 3.814 2.634 5.939 5.422 5.939 2.582 0 5.422-1.807 5.422-5.939V25.023c0-3.495-2.582-5.68-5.422-5.68s-5.422 2.41-5.422 5.422zM5.825 47.487a5.422 5.422 0 100-10.845 5.422 5.422 0 000 10.845z"/></g><defs><clipPath id="clip0"><path fill="#fff" transform="translate(0 .5)" d="M0 0h142v53H0z"/></clipPath></defs></svg>