<svg width="142" height="45" viewBox="0 0 142 45" fill="none" xmlns="http://www.w3.org/2000/svg"><g clip-path="url(#clip0)" fill="#141414"><path d="M68.906 10.447H60.81v2.458h5.784c-.232 3.393-3.123 4.914-5.784 4.914a6.252 6.252 0 01-2.442-.477 6.31 6.31 0 01-2.07-1.394 6.397 6.397 0 01-1.378-2.094 6.455 6.455 0 01-.472-2.47v-.118a6.065 6.065 0 01.44-2.483c.32-.787.8-1.496 1.41-2.08A6.554 6.554 0 0160.81 4.83a5.45 5.45 0 012.33.402 5.505 5.505 0 011.95 1.353l1.735-1.755a8.55 8.55 0 00-2.822-1.85 8.473 8.473 0 00-3.309-.607A8.817 8.817 0 0054.4 4.88a9.025 9.025 0 00-2.717 6.268 8.772 8.772 0 001.261 4.798 8.872 8.872 0 003.35 3.25 8.744 8.744 0 004.516 1.08 7.726 7.726 0 003.182-.504 7.798 7.798 0 002.71-1.76 7.908 7.908 0 001.778-2.716 7.98 7.98 0 00.543-3.212 8.378 8.378 0 00-.116-1.638zm6.72-1.755a5.61 5.61 0 00-2.177.391 5.66 5.66 0 00-1.864 1.205 5.734 5.734 0 00-1.266 1.835 5.789 5.789 0 00-.476 2.186v.117a5.872 5.872 0 001.9 3.615 5.746 5.746 0 003.776 1.47 5.743 5.743 0 003.805-1.393 5.87 5.87 0 001.97-3.575 5.748 5.748 0 00-.384-2.238 5.696 5.696 0 00-1.22-1.907 5.618 5.618 0 00-1.86-1.272 5.565 5.565 0 00-2.203-.434zm0 2.34a3.286 3.286 0 012.36 1.056 3.332 3.332 0 01.88 2.455 3.323 3.323 0 01-.88 2.45 3.25 3.25 0 01-1.077.765 3.217 3.217 0 01-2.577 0 3.25 3.25 0 01-1.077-.764 3.324 3.324 0 01-.879-2.45 3.311 3.311 0 01.867-2.475 3.207 3.207 0 012.384-1.037zm12.366-2.34a5.53 5.53 0 00-2.155.403 5.58 5.58 0 00-1.836 1.21 5.653 5.653 0 00-1.234 1.832 5.708 5.708 0 00-.443 2.172v.117a5.872 5.872 0 001.9 3.615A5.746 5.746 0 0088 19.51a5.743 5.743 0 003.805-1.393 5.87 5.87 0 001.97-3.575 5.828 5.828 0 00-.417-2.252 5.775 5.775 0 00-1.252-1.91 5.698 5.698 0 00-1.888-1.266 5.645 5.645 0 00-2.226-.423zm0 2.34a3.297 3.297 0 012.364 1.055 3.344 3.344 0 01.887 2.456 3.323 3.323 0 01-.88 2.45 3.25 3.25 0 01-1.076.765 3.217 3.217 0 01-2.578 0 3.25 3.25 0 01-1.077-.764 3.324 3.324 0 01-.879-2.45 3.3 3.3 0 01.86-2.475c.303-.33.672-.592 1.082-.77.41-.18.851-.27 1.297-.267zm12.146-2.34a5.635 5.635 0 00-4.008 1.68 5.768 5.768 0 00-1.66 4.054c0 1.52.597 2.979 1.66 4.054a5.635 5.635 0 004.008 1.68 3.735 3.735 0 001.728-.324 3.77 3.77 0 001.395-1.08v1.17a2.89 2.89 0 01-.777 2.288 2.809 2.809 0 01-2.23.871 3.065 3.065 0 01-1.777-.588 3.122 3.122 0 01-1.115-1.518l-2.198.936a5.556 5.556 0 002.038 2.474 5.46 5.46 0 003.052.92c3.007 0 5.321-1.99 5.321-5.968V9.043h-2.43v.936a3.824 3.824 0 00-1.361-.984 3.79 3.79 0 00-1.646-.303zm.243 2.223c.428.024.847.134 1.231.325a3.202 3.202 0 011.634 1.906c.132.413.18.848.142 1.28a3.193 3.193 0 01-.813 2.416 3.106 3.106 0 01-4.62 0 3.18 3.18 0 01-.813-2.416 3.533 3.533 0 01.933-2.403 3.454 3.454 0 012.306-1.108zm15.835-2.223c-.725.01-1.44.168-2.103.464a5.39 5.39 0 00-1.757 1.26 5.474 5.474 0 00-1.128 1.856 5.52 5.52 0 00-.321 2.154 5.632 5.632 0 001.492 3.969 5.503 5.503 0 003.817 1.765h.232a5.478 5.478 0 002.702-.664 5.55 5.55 0 002.04-1.91l-1.966-1.288a3.157 3.157 0 01-1.179 1.217 3.108 3.108 0 01-3.245-.068 3.16 3.16 0 01-1.128-1.266l7.634-3.16-.347-.936a5.044 5.044 0 00-1.834-2.465 4.956 4.956 0 00-2.909-.928zm.116 2.223a2.18 2.18 0 011.241.321c.373.23.67.566.853.966l-5.067 2.224a3.319 3.319 0 01.786-2.385 3.238 3.238 0 012.222-1.126h-.035zm-9.011 9.01h2.568V2.959h-2.568v16.968zm-50.907 10.24v10.357h-1.492V30.224h-3.24v-1.498h7.97v1.44h-3.238zm6.327 2.001a3.69 3.69 0 012.614.901 3.192 3.192 0 01.949 2.446v5.009H64.88v-1.17h-.104a2.849 2.849 0 01-1.047 1.012 2.8 2.8 0 01-1.405.356 3.17 3.17 0 01-2.175-.784 2.514 2.514 0 01-.665-.88 2.543 2.543 0 01-.226-1.086 2.364 2.364 0 01.226-1.106c.163-.345.407-.644.711-.871a3.889 3.889 0 012.487-.738 4.332 4.332 0 012.186.492v-.351a1.739 1.739 0 00-.613-1.334 2.126 2.126 0 00-1.434-.562 2.293 2.293 0 00-1.125.274 2.33 2.33 0 00-.853.791l-1.307-.83a3.654 3.654 0 011.4-1.207 3.606 3.606 0 011.804-.362zm-1.92 5.851a1.183 1.183 0 00.486.983c.336.244.743.367 1.156.351a2.29 2.29 0 001.678-.714 2.173 2.173 0 00.74-1.626 3.005 3.005 0 00-1.943-.562 2.535 2.535 0 00-1.516.445 1.305 1.305 0 00-.601 1.111v.012zm10.607 6.249a4.36 4.36 0 01-1.25-.175 3.668 3.668 0 01-1.064-.48 3.48 3.48 0 01-.81-.737 2.91 2.91 0 01-.52-.948l1.411-.597c.146.474.443.886.845 1.17.406.287.892.435 1.388.421a2.438 2.438 0 001.897-.737 2.888 2.888 0 00.705-2.06v-.772h-.069c-.29.434-.69.781-1.157 1.007-.484.246-1.02.37-1.561.362a3.435 3.435 0 01-1.471-.314 3.475 3.475 0 01-1.201-.914 4.713 4.713 0 01-1.106-3.037c0-1.113.392-2.19 1.106-3.037.327-.394.736-.71 1.198-.927a3.436 3.436 0 011.474-.325 3.346 3.346 0 011.561.375 2.92 2.92 0 011.157 1.006h.07v-1.112h1.422v7.689a4.13 4.13 0 01-.235 1.628 4.093 4.093 0 01-.852 1.402 3.904 3.904 0 01-2.938 1.112zm0-4.915a2.29 2.29 0 001.804-.807 2.992 2.992 0 00.798-2.095 3.029 3.029 0 00-.728-2.083 2.407 2.407 0 00-1.8-.817 2.382 2.382 0 00-1.798.817 3.028 3.028 0 00-.728 2.083c-.032.764.229 1.51.728 2.083a2.316 2.316 0 001.77.82h-.046zm11.128 1.171h-1.492V28.819h1.492l4.037 7.022h.069l4.025-7.15h1.493v11.83h-1.493v-7.02l.07-1.967h-.07l-3.62 6.436h-.88l-3.631-6.436h-.058l.058 1.966v7.022zm14.47-8.356c.954-.05 1.89.272 2.615.901a3.164 3.164 0 01.994 2.446v5.009h-1.469v-1.17h-.07a2.86 2.86 0 01-1.052 1.013 2.81 2.81 0 01-1.411.355 3.158 3.158 0 01-2.186-.784 2.514 2.514 0 01-.665-.88 2.543 2.543 0 01-.226-1.086 2.364 2.364 0 01.225-1.106c.164-.345.408-.644.712-.871a3.889 3.889 0 012.487-.738 4.388 4.388 0 012.186.492v-.351a1.737 1.737 0 00-.613-1.334c-.38-.35-.873-.55-1.388-.562a2.293 2.293 0 00-1.125.274 2.33 2.33 0 00-.853.791l-1.307-.83a3.656 3.656 0 011.374-1.193 3.608 3.608 0 011.772-.376zm-1.931 5.851a1.18 1.18 0 00.497.983c.33.26.738.4 1.157.398a2.29 2.29 0 001.677-.714 2.176 2.176 0 00.74-1.673 3.005 3.005 0 00-1.943-.562 2.535 2.535 0 00-1.515.445 1.316 1.316 0 00-.613 1.111v.012zm7.183-5.582h1.423V33.5h.069a2.513 2.513 0 011.041-.983 3.048 3.048 0 011.469-.398 2.907 2.907 0 012.244.843c.559.671.84 1.535.787 2.41v5.15h-1.492v-5.009a1.797 1.797 0 00-.491-1.5 1.751 1.751 0 00-1.476-.513 1.833 1.833 0 00-1.48.726 2.666 2.666 0 00-.602 1.743v4.553h-1.492v-8.087zm11.718-.269a3.651 3.651 0 012.602.901 3.189 3.189 0 01.96 2.446v5.009h-1.434v-1.17a2.856 2.856 0 01-1.053 1.013 2.82 2.82 0 01-1.411.355 3.17 3.17 0 01-2.198-.784 2.5 2.5 0 01-.659-.882 2.54 2.54 0 01-.22-1.084 2.342 2.342 0 01.926-1.978 3.91 3.91 0 012.487-.737 4.332 4.332 0 012.186.492v-.351a1.683 1.683 0 00-.613-1.334 2.104 2.104 0 00-1.492-.562 2.293 2.293 0 00-1.125.274 2.32 2.32 0 00-.853.791l-1.319-.83a3.678 3.678 0 011.406-1.207 3.634 3.634 0 011.81-.362zm-1.932 5.851a1.175 1.175 0 00.486.983c.33.26.738.4 1.156.398a2.289 2.289 0 001.678-.714 2.213 2.213 0 00.728-1.65 3.004 3.004 0 00-1.943-.561 2.533 2.533 0 00-1.515.444 1.303 1.303 0 00-.59 1.088v.012zm10.607 6.249a4.36 4.36 0 01-1.249-.175 3.597 3.597 0 01-1.053-.48 3.56 3.56 0 01-.821-.737 2.926 2.926 0 01-.521-.948l1.412-.597c.145.474.442.886.844 1.17.406.287.893.435 1.388.421a2.437 2.437 0 001.897-.737 2.89 2.89 0 00.683-2.024v-.808h-.07a2.97 2.97 0 01-1.157 1.007 3.434 3.434 0 01-1.561.362 3.504 3.504 0 01-1.474-.318 3.547 3.547 0 01-1.21-.91 4.718 4.718 0 010-6.074c.329-.395.74-.713 1.204-.93a3.435 3.435 0 011.48-.322c.542 0 1.077.128 1.561.375a2.97 2.97 0 011.157 1.006h.07v-1.112h1.422v7.689a4.119 4.119 0 01-1.087 3.03 3.906 3.906 0 01-2.915 1.112zm0-4.915a2.293 2.293 0 001.805-.807 2.993 2.993 0 00.728-2.095 3.03 3.03 0 00-.728-2.083 2.325 2.325 0 00-.812-.614 2.289 2.289 0 00-.993-.205 2.292 2.292 0 00-1.793.82 3.031 3.031 0 00-.729 2.082c-.031.764.23 1.51.729 2.083a2.295 2.295 0 001.839.82h-.046zm9.3 1.369a3.743 3.743 0 01-1.564-.272 3.778 3.778 0 01-1.316-.898 4.335 4.335 0 01-1.157-3.066 4.397 4.397 0 011.099-3.054 3.654 3.654 0 011.278-.95 3.62 3.62 0 011.556-.314 3.572 3.572 0 011.533.271c.486.202.922.51 1.278.9a4.718 4.718 0 011.041 3.24v.165h-6.235a2.593 2.593 0 00.775 1.895 2.501 2.501 0 002.188.684 2.5 2.5 0 001.08-.476c.317-.243.573-.559.746-.921l1.33.655a4.061 4.061 0 01-1.423 1.58 4.158 4.158 0 01-2.209.561zm-2.417-5.242h4.626a2.023 2.023 0 00-.67-1.381 2.356 2.356 0 00-1.643-.597 2.137 2.137 0 00-1.446.527c-.443.37-.749.882-.867 1.45zm9.034 5.044h-1.493v-8.087h1.423v1.311h.07c.174-.46.501-.845.925-1.088.41-.284.892-.442 1.388-.457.395-.016.789.052 1.157.2l-.451 1.462a2.29 2.29 0 00-.879-.117 1.877 1.877 0 00-1.458.69 2.361 2.361 0 00-.625 1.604l-.057 4.482zM25.529 43.06l-7.553-7.64L34.17 18.836l7.692 7.782L25.529 43.06z"/><path d="M25.587 10.096l-7.692-7.747L1.596 18.837A5.493 5.493 0 00.417 20.62a5.544 5.544 0 001.18 5.989l16.298 16.5 7.553-7.665-12.33-12.709 12.469-12.638z"/><path d="M41.885 18.837L25.587 2.35A5.4 5.4 0 0021.819.957a5.406 5.406 0 00-3.686 1.6 5.53 5.53 0 00-1.598 3.721 5.539 5.539 0 001.36 3.818l16.31 16.5a5.408 5.408 0 003.845 1.612c1.443 0 2.827-.58 3.847-1.612a5.536 5.536 0 001.593-3.891c0-1.46-.573-2.859-1.593-3.891l-.012.023zM21.677 44.734c2.977 0 5.39-2.441 5.39-5.453 0-3.012-2.413-5.453-5.39-5.453s-5.39 2.441-5.39 5.453c0 3.012 2.413 5.453 5.39 5.453z"/></g><defs><clipPath id="clip0"><path fill="#fff" d="M0 0h142v45H0z"/></clipPath></defs></svg>