<svg width="29" height="27" viewBox="0 0 29 27" fill="none" xmlns="http://www.w3.org/2000/svg">
<path fill-rule="evenodd" clip-rule="evenodd" d="M26.0584 1.21418C21.0204 3.93318 7.03042 11.4822 2.01142 14.1902C1.33542 14.5552 0.928425 15.2732 0.962425 16.0402C0.997425 16.8062 1.46742 17.4862 2.17242 17.7882L8.95042 20.6972L8.91743 24.9482C8.91043 25.7752 9.41442 26.5222 10.1854 26.8242C10.9554 27.1272 11.8334 26.9242 12.3924 26.3142L15.2554 23.1862L22.5524 25.6012C23.1004 25.7832 23.7014 25.7182 24.1984 25.4232C24.6964 25.1292 25.0424 24.6342 25.1474 24.0652L28.9744 3.33817C29.1144 2.58117 28.8074 1.81119 28.1854 1.35719C27.5624 0.904186 26.7354 0.84918 26.0584 1.21418ZM26.6984 4.65318L23.1804 23.7022L15.2694 21.0842C14.8954 20.9602 14.4834 21.0682 14.2174 21.3582L10.9174 24.9632L10.9524 20.4562L26.6984 4.65318ZM2.96043 15.9502L9.72642 18.8532L23.8484 4.67918L2.96043 15.9502Z" fill="black"/>
</svg>
