<svg width="159" height="48" viewBox="0 0 159 48" fill="none" xmlns="http://www.w3.org/2000/svg"><g clip-path="url(#clip0)" fill="#141414"><path d="M19.919 17.733h-2.97c-.525 0-1.049.523-1.049 1.045v19.148c0 .522.524 1.044 1.048 1.044h3.145c.525 0 1.049-.522 1.049-1.044V18.778c-.175-.697-.524-1.045-1.223-1.045zm38.265-.696c-6.116.174-11.008 5.048-11.008 11.14v.349c.174 6.092 5.242 10.967 11.532 10.967 6.115-.175 11.007-5.223 11.007-11.49-.174-6.092-5.416-10.966-11.532-10.966zm0 17.756c-3.495-.175-6.29-3.134-6.116-6.615v-.697c.175-3.307 3.145-5.918 6.465-5.744 3.32.174 5.94 3.133 5.766 6.44.175 3.482-2.621 6.616-6.116 6.616zM8.562 16.689H1.048c-.524 0-1.048.348-1.048 1.044v2.96c0 .522.524 1.044 1.048 1.044h3.495v17.582a3.126 3.126 0 01-3.145 3.133h-.35c-.524 0-1.048.522-1.048 1.044v2.96c0 .522.524 1.044 1.048 1.044h.175c4.543 0 8.387-3.656 8.387-8.181V17.733c0-.697-.524-1.045-1.048-1.045zm36.168 1.044h-2.447c-.524-.174-1.223.174-1.397.523l-5.941 12.533-5.591-12.533c-.175-.349-.524-.697-1.049-.523H25.16c-.174 0-.35 0-.524.174-.35.174-.524.697-.174 1.045l9.61 20.018a.961.961 0 00.873.523h.35a.962.962 0 00.873-.523l9.61-20.018c.175-.174.175-.348.175-.522-.35-.523-.7-.87-1.223-.697zm86.838-.696c-2.621 0-5.067.348-7.513 1.219-.524.174-.699.696-.699 1.218l.35 1.915v.174c.174.522.698.87 1.223.696 1.922-.522 4.018-.87 6.115-.87 2.796 0 3.494 1.393 3.32 4.7-1.398-.348-2.796-.696-4.194-.696-5.591 0-8.736 2.959-8.736 6.788v.87c.175 3.656 3.32 6.442 6.989 6.267 2.446 0 4.892-1.044 6.64-2.785l.524 1.393c0 .522.524.696.873.696h1.573c.524 0 1.048-.522 1.048-1.044V26.61c0-5.396-.524-9.574-7.513-9.574zm2.796 16.015c-1.223 1.566-2.971 2.611-4.893 2.611h-.349c-1.747-.174-3.145-1.567-2.97-3.307 0-2.263 1.747-3.482 4.368-3.482 1.398 0 2.621.348 3.844.87v3.308zm24.461 3.481l-1.048-2.263c0-.174 0-.174-.175-.174-.175-.348-.699-.522-1.048-.174-1.048.523-2.097.87-3.32.87-1.048 0-1.747-.348-1.747-2.088V22.259h5.591c.524 0 1.048-.522 1.048-1.044v-2.437c0-.522-.524-1.045-1.048-.87h-5.591V11.64c0-.523-.35-1.045-1.049-1.045h-3.145c-.524 0-1.048.522-1.048 1.045v5.918h-2.271c-.525 0-1.049.522-1.049 1.045v2.437c0 .522.524 1.044 1.049 1.044h2.271v10.967c0 3.83 1.223 6.267 5.591 6.267 2.272-.175 4.368-.697 6.29-1.567h.175c.699-.348.874-.87.524-1.219zm-50.67-19.496c-2.271 0-4.543.87-6.465 2.263V6.767c0-.523-.524-1.045-1.048-1.045h-3.145c-.525 0-1.049.522-1.049 1.045v30.985c0 .522.525 1.044 1.049 1.044h3.319c.525 0 .874-.522.874-1.044V25.044c1.223-2.088 3.495-3.307 5.766-3.307 2.796 0 4.543 1.915 4.543 5.396v10.793c0 .522.524 1.044 1.048 1.044h2.971c.524 0 1.048-.522 1.048-1.044V27.307c0-5.918-2.796-10.27-8.911-10.27zM91.381 33.4l-1.397-1.218c-.35-.349-1.049-.349-1.398.174-1.223 1.566-3.145 2.437-5.067 2.437-3.32-.175-6.116-2.96-6.29-6.267-.175-3.656 2.62-6.615 6.29-6.789 1.572 0 3.145.87 4.368 2.089.35.348.873.87 1.398.174l1.747-1.567c.524-.348.524-1.044.175-1.392-1.922-2.437-4.718-3.83-7.863-3.83-6.29 0-11.182 5.048-11.357 11.14 0 6.093 5.067 11.142 11.357 10.968 3.32 0 6.64-1.567 8.387-4.526v-.175c.35-.348.175-.87-.35-1.218zM.35.5c-.525 11.489 8.736 13.056 8.736 13.056C8.562 1.022.349.5.349.5z"/></g><defs><clipPath id="clip0"><path fill="#fff" transform="translate(0 .5)" d="M0 0h159v47H0z"/></clipPath></defs></svg>