<svg width="201" height="59" viewBox="0 0 201 59" fill="none" xmlns="http://www.w3.org/2000/svg"><g clip-path="url(#clip0)"><path fill-rule="evenodd" clip-rule="evenodd" d="M56.39 13.052c.02.077.03.156.031.236v12.384a.904.904 0 01-.454.783L45.573 32.44v11.862c0 .322-.171.62-.451.783l-21.697 12.49c-.05.028-.104.046-.158.066-.02.006-.04.019-.06.024a.91.91 0 01-.464 0c-.024-.007-.047-.02-.07-.029-.05-.018-.102-.034-.15-.061L.831 45.084a.903.903 0 01-.454-.783V7.149a.94.94 0 01.032-.237c.007-.026.023-.05.032-.076.017-.047.032-.096.057-.14.017-.029.042-.053.062-.08.026-.036.05-.073.08-.105.026-.026.06-.045.09-.067.032-.027.062-.057.099-.078H.83L11.677.12a.905.905 0 01.903 0l10.846 6.245h.003c.036.022.066.05.099.077.03.022.062.042.088.067.032.033.054.07.081.106.02.027.045.051.061.08.026.046.04.093.059.14.009.026.025.05.031.077a.895.895 0 01.032.236v23.205l9.038-5.205V13.287c0-.08.012-.16.032-.235.008-.027.023-.05.032-.077.018-.047.034-.096.058-.14.017-.029.042-.053.061-.08.027-.036.05-.073.082-.105.026-.026.058-.045.088-.068.033-.027.063-.056.099-.077h.001L44.219 6.26a.904.904 0 01.903 0l10.846 6.245c.039.022.068.05.102.076.028.023.06.043.087.068.032.033.054.07.081.106.02.027.045.051.061.08.026.044.04.093.059.14.01.026.025.05.031.077zM54.612 25.15V14.851l-3.796 2.185-5.244 3.02v10.298l9.04-5.205zM43.766 43.78V33.472l-5.158 2.946-14.73 8.407v10.401l19.888-11.449zM2.186 8.711v35.066L22.07 55.226v-10.4l-10.389-5.879-.003-.002-.005-.002c-.035-.02-.064-.05-.097-.075-.028-.022-.06-.04-.085-.065l-.003-.003c-.029-.029-.05-.064-.074-.095-.023-.03-.05-.057-.068-.088l-.001-.004c-.02-.034-.033-.074-.047-.113-.015-.033-.034-.065-.043-.101v-.001c-.012-.043-.014-.088-.018-.132-.005-.034-.014-.068-.014-.102V13.917l-5.243-3.02-3.795-2.184zm9.943-6.765L3.092 7.149l9.035 5.202 9.036-5.203-9.036-5.201h.002zm4.7 32.465l5.243-3.018V8.712l-3.796 2.185-5.244 3.02v22.682l3.797-2.187zM44.67 8.086l-9.036 5.202 9.036 5.202 9.035-5.203-9.035-5.201zm-.904 11.97l-5.244-3.02-3.795-2.185V25.15l5.242 3.018 3.797 2.187v-10.3zM22.974 43.261l13.254-7.566 6.625-3.781-9.03-5.2L23.427 32.7l-9.475 5.455 9.022 5.106z" fill="#141414"/></g><path fill-rule="evenodd" clip-rule="evenodd" d="M77.624 16.837v26.011h9.411v4.488H72.613v-30.5h5.011zm27.1 12.94v-2.745h4.749v20.305h-4.748V44.59c-.64 1.017-1.546 1.816-2.724 2.396-1.176.581-2.36.871-3.55.871-1.541 0-2.95-.282-4.227-.848a9.888 9.888 0 01-3.29-2.332A10.836 10.836 0 0188.8 41.28a10.968 10.968 0 01-.764-4.097c0-1.422.254-2.78.763-4.074a10.792 10.792 0 012.134-3.42 9.895 9.895 0 013.29-2.33c1.278-.568 2.687-.85 4.228-.85 1.19 0 2.374.29 3.55.872 1.176.581 2.084 1.379 2.724 2.396h-.001zm-.436 9.89a7.084 7.084 0 00.437-2.483c0-.872-.147-1.7-.437-2.483a6.295 6.295 0 00-1.219-2.048 5.908 5.908 0 00-1.896-1.395c-.74-.348-1.561-.523-2.46-.523-.902 0-1.716.175-2.442.523a5.97 5.97 0 00-1.874 1.395 5.988 5.988 0 00-1.196 2.047 7.404 7.404 0 00-.415 2.483c0 .872.137 1.7.414 2.483a5.972 5.972 0 001.199 2.049 5.959 5.959 0 001.873 1.395c.725.349 1.539.523 2.44.523.9 0 1.721-.174 2.461-.523a5.9 5.9 0 001.896-1.395 6.289 6.289 0 001.219-2.048zm8.932 7.669V27.032h12.898v4.674h-8.149v15.632h-4.749v-.002zm30.108-17.56v-2.744h4.75v20.305h-4.75V44.59c-.639 1.017-1.546 1.816-2.723 2.396-1.177.581-2.359.871-3.551.871-1.54 0-2.948-.282-4.226-.848a9.89 9.89 0 01-3.29-2.332 10.837 10.837 0 01-2.135-3.398 11.002 11.002 0 01-.763-4.097c0-1.422.254-2.78.763-4.074a10.786 10.786 0 012.134-3.42 9.884 9.884 0 013.291-2.33c1.278-.568 2.686-.85 4.226-.85 1.19 0 2.374.29 3.551.872 1.177.581 2.084 1.379 2.723 2.396zm-.436 9.891c.292-.795.44-1.636.436-2.483 0-.872-.147-1.7-.436-2.483a6.295 6.295 0 00-1.219-2.048 5.908 5.908 0 00-1.896-1.395c-.74-.348-1.562-.523-2.461-.523-.901 0-1.715.175-2.441.523a5.964 5.964 0 00-1.873 1.395 5.99 5.99 0 00-1.198 2.047 7.39 7.39 0 00-.414 2.483c0 .872.137 1.7.414 2.483a5.992 5.992 0 001.198 2.049 5.958 5.958 0 001.873 1.395c.726.349 1.54.523 2.441.523.899 0 1.721-.174 2.461-.523a5.879 5.879 0 001.896-1.395 6.289 6.289 0 001.219-2.048zm24.225-12.635h4.811l-7.794 20.305h-5.971l-7.794-20.305h4.81l5.97 15.549 5.968-15.55zm15.17-.523c6.466 0 10.876 5.732 10.047 12.44h-15.755c0 1.751 1.769 5.137 5.968 5.137 3.612 0 6.033-3.177 6.034-3.18l3.209 2.484c-2.869 3.062-5.218 4.47-8.896 4.47-6.572 0-11.027-4.159-11.027-10.676 0-5.895 4.604-10.675 10.419-10.675h.001zm-5.696 8.91h11.382c-.035-.39-.652-5.138-5.725-5.138-5.073 0-5.62 4.748-5.657 5.138zm18.836 11.917v-30.5h4.749v30.5h-4.749z" fill="#141414"/><defs><clipPath id="clip0"><path fill="#fff" transform="translate(.377)" d="M0 0h56.434v58.691H0z"/></clipPath></defs></svg>