<svg width="213" height="68" viewBox="0 0 213 68" fill="none" xmlns="http://www.w3.org/2000/svg"><path d="M13.081 35.111a5.71 5.71 0 00-1.34.09 5.617 5.617 0 00-4.588 4.32 5.624 5.624 0 00-.049 2.216c.32 3.029 3.549 5.582 6.537 5.658a5.02 5.02 0 00.916-.06c3.234-.524 4.08-3.857 3.548-7.131-.602-3.697-3.236-5-5.024-5.093zm3.168 8.758a1.356 1.356 0 01-1.261.597 1.7 1.7 0 01-1.566-1.716 4.192 4.192 0 01.326-1.675 1.523 1.523 0 00-.624-1.885 1.762 1.762 0 00-1.286-.228c-.428.082-.807.33-1.053.69a3.57 3.57 0 00-.386.862 2.751 2.751 0 01-.042.121c-.146.374-.38.483-.538.463a.309.309 0 01-.244-.228 3.173 3.173 0 01.895-2.766 2.9 2.9 0 013.69-.34c.382.263.693.615.908 1.026a3.308 3.308 0 01-.268 3.063l-.099.213a1.209 1.209 0 00-.03 1.171.865.865 0 00.717.346c.132-.002.264-.02.392-.053.166-.037.338-.074.442.05a.246.246 0 01.027.29z" fill="#fff"/><path d="M54.403 50.08a16.882 16.882 0 001.155-5.362c0-2.26-1.28-3.198-2.094-3.198-.025-.087-.186-.676-.408-1.386a11.144 11.144 0 00-.451-1.21 4.38 4.38 0 00.787-3.19 4.039 4.039 0 00-1.176-2.282 9.562 9.562 0 00-4.15-2.054c-.23-.064-.991-.273-1.058-.293-.005-.044-.055-2.49-.101-3.54-.02-1.054-.177-2.1-.467-3.112a8.332 8.332 0 00-2.158-3.848c2.634-2.727 4.278-5.73 4.274-8.308-.008-4.955-6.1-6.455-13.61-3.35-.007.004-1.579.67-1.59.676-.007-.007-2.876-2.82-2.92-2.857C21.877-.692-4.89 29.026 3.669 36.243l1.87 1.582a9.172 9.172 0 00-.52 4.24 8.35 8.35 0 002.888 5.362 8.793 8.793 0 005.667 2.28c3.33 7.665 10.94 12.368 19.86 12.632 9.57.284 17.604-4.201 20.97-12.259zm1.965-9.072a5.71 5.71 0 011.191 3.71 18.639 18.639 0 01-1.29 6.087l-.018.045a21.111 21.111 0 01-8.65 10.01 25.759 25.759 0 01-13.313 3.492 31.3 31.3 0 01-.913-.014 25.836 25.836 0 01-13.037-3.85 22.321 22.321 0 01-8.083-8.878 11.06 11.06 0 01-5.676-2.686 10.341 10.341 0 01-3.553-6.659 11.52 11.52 0 01.216-3.762l-.868-.734a6.806 6.806 0 01-2.351-4.863A13.811 13.811 0 011 27.27c1.782-4.868 5.882-10.663 10.968-15.505a40.854 40.854 0 017.503-5.757 15.574 15.574 0 017.55-2.432 6.98 6.98 0 014.731 1.683c.075.066 1.2 1.165 2.052 2l.372-.156A21.374 21.374 0 0142.16 5.33c5.095 0 8.392 2.733 8.398 6.963.004 2.61-1.277 5.537-3.639 8.37a11.54 11.54 0 011.442 3.222c.335 1.168.519 2.375.546 3.59.023.524.047 1.363.066 2.103a11.166 11.166 0 014.694 2.494 5.995 5.995 0 011.701 3.339 6.154 6.154 0 01-.553 3.666c.05.142.101.297.153.46l.126.412c.49.265.923.625 1.275 1.058z" fill="#fff"/><path d="M50.301 38.533a3.024 3.024 0 00.947-2.397 2.085 2.085 0 00-.596-1.181 7.43 7.43 0 00-3.267-1.565c-.549-.156-.921-.256-1.322-.39-.714-.237-1.066-.428-1.146-1.785a377.02 377.02 0 01-.174-3.514c-.065-1.496-.243-3.542-1.498-4.386a2.09 2.09 0 00-1.073-.347 2.01 2.01 0 00-.637.063 3.363 3.363 0 00-1.668.954 5.708 5.708 0 01-4.357 1.47c-.878-.037-1.808-.175-2.875-.239l-.624-.036a5.749 5.749 0 00-5.54 5.076c-.612 4.25 2.432 6.446 3.31 7.735.136.165.22.365.242.578a.927.927 0 01-.313.608v.002a10.972 10.972 0 00-2.368 10.219c.116.424.265.838.445 1.24 2.22 5.248 9.11 7.692 15.84 5.469a16.43 16.43 0 002.556-1.093 13.445 13.445 0 003.915-2.959 11.825 11.825 0 003.26-6.465c.203-1.353-.094-1.876-.498-2.128a1.475 1.475 0 00-.94-.174 13.17 13.17 0 00-.896-3.087l-.723-1.668zM39.272 18.265c.109.025.178-.163.08-.218a12.174 12.174 0 00-5.19-1.358.095.095 0 01-.093-.104.094.094 0 01.019-.047 5.28 5.28 0 01.976-.98.098.098 0 00-.065-.174 13.787 13.787 0 00-6.209 2.19.095.095 0 01-.147-.1c.15-.56.371-1.099.657-1.602a.092.092 0 00-.123-.126 25.197 25.197 0 00-7.073 5.774.096.096 0 00.129.141 21.62 21.62 0 017.636-3.371 21.157 21.157 0 019.403-.025m-7.922-7.592s-2.33-2.698-3.032-2.897C23.99 6.608 14.643 13.047 8.675 21.555c-2.415 3.442-5.872 9.537-4.219 12.672.588.704 1.25 1.342 1.975 1.903a7.36 7.36 0 014.65-2.963 37.808 37.808 0 0111.933-16.755 60.95 60.95 0 018.337-5.739z" fill="#fff"/><path d="M16.093 43.752a.26.26 0 01.026.295 1.285 1.285 0 01-1.212.605 1.686 1.686 0 01-1.505-1.743c-.007-.582.1-1.16.313-1.701a1.59 1.59 0 00-1.194-2.155 1.619 1.619 0 00-1.653.71 3.74 3.74 0 00-.37.875l-.04.124c-.142.38-.366.49-.518.47-.072-.01-.171-.058-.235-.232a3.35 3.35 0 01.86-2.809 2.697 2.697 0 012.316-.837 2.745 2.745 0 012.102 1.534 3.526 3.526 0 01-.257 3.11 9.255 9.255 0 00-.095.217 1.289 1.289 0 00-.03 1.19.815.815 0 00.69.35 1.51 1.51 0 00.377-.053c.16-.038.324-.076.425.05zm39.379.984a16.912 16.912 0 01-1.147 5.351C50.98 58.127 43 62.604 33.493 62.321c-8.864-.264-16.423-4.957-19.731-12.607a8.712 8.712 0 01-5.63-2.274 8.343 8.343 0 01-2.87-5.35 9.19 9.19 0 01.517-4.232l-1.858-1.58c-8.501-7.2 18.09-36.856 26.594-29.413.043.038 2.893 2.844 2.9 2.85l1.58-.673c7.46-3.1 13.513-1.603 13.52 3.342.005 2.572-1.629 5.57-4.245 8.29a8.326 8.326 0 012.144 3.84 12.14 12.14 0 01.463 3.106c.046 1.048.096 3.49.101 3.533.067.02.822.228 1.05.293a9.483 9.483 0 014.124 2.049 4.035 4.035 0 011.168 2.276 4.385 4.385 0 01-.782 3.185c.173.394.322.797.449 1.207.22.708.38 1.296.404 1.383.81 0 2.08.935 2.08 3.19zm-37.57-4.412c-.579-3.755-3.11-5.078-4.828-5.172a5.203 5.203 0 00-1.287.091c-3.065.621-4.797 3.238-4.456 6.638a6.87 6.87 0 006.281 5.747c.295.008.59-.013.88-.062 3.108-.532 3.922-3.917 3.41-7.242zm5.24-23.834a60.55 60.55 0 018.281-5.727S29.11 8.07 28.41 7.872c-4.299-1.166-13.585 5.26-19.514 13.75-2.4 3.434-5.833 9.517-4.191 12.646a12.57 12.57 0 001.962 1.898 7.31 7.31 0 014.62-2.957A37.723 37.723 0 0123.14 16.49zm9.341 29.71a2.84 2.84 0 002.006 2.105 9.027 9.027 0 001.581.43c6.8 1.174 13.157-2.727 14.588-3.71.108-.073.179-.001.092.129-.043.07-.09.136-.14.2-1.751 2.267-6.46 4.893-12.588 4.892-2.672 0-5.343-.945-6.323-2.397-1.522-2.252-.076-5.539 2.46-5.196l1.11.126c3.94.379 7.913-.26 11.537-1.853 3.458-1.61 4.765-3.384 4.569-4.819a2.065 2.065 0 00-.596-1.173 7.457 7.457 0 00-3.27-1.554c-.55-.155-.922-.254-1.324-.386-.714-.236-1.067-.426-1.147-1.773-.035-.59-.137-2.642-.174-3.49-.065-1.486-.243-3.517-1.5-4.356a2.1 2.1 0 00-1.073-.344 2.024 2.024 0 00-.638.063 3.373 3.373 0 00-1.67.947 5.744 5.744 0 01-4.36 1.46c-.88-.037-1.81-.174-2.879-.238-.207-.012-.416-.025-.624-.035a5.738 5.738 0 00-5.546 5.04c-.611 4.22 2.435 6.401 3.314 7.681.136.163.22.363.242.574a.92.92 0 01-.313.604v.002a10.832 10.832 0 00-2.37 10.148c.116.421.265.833.445 1.23 2.223 5.212 9.118 7.639 15.854 5.431a16.52 16.52 0 002.56-1.084 13.455 13.455 0 003.919-2.939 11.711 11.711 0 003.263-6.42c.202-1.343-.094-1.863-.5-2.113a1.489 1.489 0 00-.94-.172 13 13 0 00-.896-3.066 19.624 19.624 0 01-6.416 3.201 25.898 25.898 0 01-8.58.931c-1.86-.15-3.09-.696-3.553.814a20.048 20.048 0 008.748.893.158.158 0 01.173.142.17.17 0 01-.098.169s-3.455 1.61-8.943-.094zm-10.12-24.473a21.428 21.428 0 017.587-3.365 20.927 20.927 0 019.342-.025c.108.025.176-.162.08-.216a12.055 12.055 0 00-5.157-1.357.095.095 0 01-.074-.15 5.31 5.31 0 01.97-.977.097.097 0 00-.065-.174 13.66 13.66 0 00-6.168 2.185.096.096 0 01-.107 0 .095.095 0 01-.039-.1 6.809 6.809 0 01.653-1.598.092.092 0 00-.122-.126 25.062 25.062 0 00-7.027 5.762.096.096 0 00.001.127.096.096 0 00.127.014zM40.27 36.053a.895.895 0 001.178-.196c.172-.332-.077-.783-.556-1.006a.896.896 0 00-1.178.196c-.172.332.077.782.556 1.006zm1.47-5.385c.114.598.362 1.162.725 1.65a4.627 4.627 0 011.128 0 3.493 3.493 0 00.055-2.03c-.271-1.23-.637-1.975-1.394-1.86-.757.117-.785 1.009-.515 2.24zm1.61 2.828a.95.95 0 10.688.93.836.836 0 00-.688-.93z" fill="#141414"/><path d="M30.782 33.387c-.12-.017-.172-.07-.187-.138-.047-.212.28-.562.624-.814a3.628 3.628 0 013.528-.423c.537.221.999.593 1.33 1.07.123.202.147.357.068.439-.124.13-.44-.02-.955-.245a4.212 4.212 0 00-1.99-.429c-.815.135-1.622.315-2.418.54zm5.13 1.056a1.95 1.95 0 00-1.757-.576c-.468.05-.912.235-1.277.532a.82.82 0 00-.327.51.156.156 0 00.051.123c.03.027.07.042.11.042.169-.025.334-.07.49-.136a4.267 4.267 0 012.159-.224c.336.038.495.059.57-.057a.19.19 0 00-.02-.214z" fill="#141414"/><path d="M34.958 34.752a4.533 4.533 0 00.035-2.318c-.274-1.233-.688-1.938-1.456-1.822-.767.117-.787 1.11-.54 2.348.114.568.336 1.108.653 1.592.61.852 1.025.632 1.307.2zm169.536 5.138c-1.411 0-2.448-1.788-2.448-4.282 0-2.42 1.067-4.28 2.399-4.28 1.711 0 2.44 1.57 2.44 4.28 0 2.82-.672 4.282-2.391 4.282zm1.688-13.696a5.74 5.74 0 00-5.239 3.72c-.416.892-.396 1.154-.699 1.154-.44 0-.075-.716.122-1.56a7.026 7.026 0 00.093-2.926h-4.505v21.623h6.149V41.35a4.806 4.806 0 004.154 2.553c4.445 0 6.683-3.764 6.683-8.848 0-5.763-2.678-8.864-6.759-8.864l.001.003zm-45.907.412V43.53h6.148V26.606a6.494 6.494 0 01-3.068.605 6.584 6.584 0 01-3.08-.605zm-7.622-.409c-3.56 0-4.914 3.374-5.187 3.96-.273.586-.409.922-.632.916-.389-.013-.118-.72.034-1.177a19.93 19.93 0 00.893-5.92 7.834 7.834 0 00-.256-2.522h-5.308v22.077h6.148v-8.43c0-1.373.548-3.772 2.098-3.772 1.282 0 1.684.95 1.684 2.866v9.337h6.149v-8.968c0-4.35-.721-8.365-5.623-8.365v-.002zm-22.085 8.862c0-1.524 1.415-2.91 4.012-2.91 1.987.052 3.925.63 5.617 1.673V27.93s-1.798-1.732-6.219-1.732c-4.66 0-8.54 2.728-8.54 8.599 0 5.87 3.521 9.125 8.528 9.125a9.735 9.735 0 006.241-2.149v-5.597a10.766 10.766 0 01-5.599 1.84c-2.972 0-4.041-1.369-4.041-2.955l.001-.002zm-12.916-13.605h6.149v22.077h-6.149V21.454zM98.604 39.567c-1.47.34-2.232-.113-2.232-1.088 0-1.335 1.381-1.87 3.352-1.87.869 0 1.686.075 1.686.075a4.38 4.38 0 01-2.806 2.883zm1.497-13.37c-2.79-.012-5.55.579-8.09 1.732v5.092s3.733-2.147 6.76-2.147c2.416 0 2.713 1.304 2.603 2.386a13.187 13.187 0 00-2.823-.185c-5.011 0-7.541 2.278-7.541 5.932 0 3.466 2.843 4.914 5.239 4.914a5.761 5.761 0 005.504-3.464c.327-.773.387-1.295.682-1.295.335 0 .222.374.206 1.144a12.43 12.43 0 00.249 3.225h4.634v-8.339c0-5.206-1.841-8.995-7.422-8.995h-.001zm88.226-.003a5.2 5.2 0 00-4.656 3.502c-.344.767-.439 1.373-.718 1.373-.392 0-.13-.67-.431-1.695a4.166 4.166 0 00-4.397-3.18c-2.842 0-4.059 2.401-4.635 3.72-.395.902-.396 1.154-.699 1.154-.44 0-.075-.716.122-1.56a7.026 7.026 0 00.093-2.926h-4.505v16.944h6.149v-8.43c0-1.663.695-3.773 1.887-3.773 1.377 0 1.653 1.059 1.653 3.017v9.19h6.174v-8.434c0-1.48.604-3.773 1.897-3.773 1.395 0 1.644 1.486 1.644 3.017v9.186h6.062V33.56c0-4.422-1.558-7.37-5.639-7.37l-.001.003zm-104.363 0a5.201 5.201 0 00-4.657 3.502c-.343.767-.438 1.373-.717 1.373-.392 0-.11-.527-.431-1.695a4.237 4.237 0 00-4.398-3.18c-2.841 0-4.058 2.401-4.635 3.72-.394.902-.395 1.154-.699 1.154-.44 0-.074-.716.123-1.56a7.02 7.02 0 00.093-2.926h-4.505v16.944h6.149v-8.43c0-1.663.695-3.773 1.887-3.773 1.377 0 1.653 1.059 1.653 3.017v9.19h6.174v-8.434c0-1.48.604-3.773 1.896-3.773 1.396 0 1.644 1.486 1.644 3.017v9.186h6.063V33.56c0-4.422-1.558-7.37-5.639-7.37l-.001.003zm75.604-2.454c0-1.357 1.685-2.457 3.763-2.457 2.079 0 3.764 1.1 3.764 2.457 0 1.357-1.685 2.457-3.764 2.457-2.078 0-3.763-1.1-3.763-2.457zm-46.975 3.471a6.494 6.494 0 003.068-.605V43.53h-6.148V26.606l3.08.605zm-3.787-3.471c0-1.357 1.685-2.457 3.763-2.457 2.079 0 3.764 1.1 3.764 2.457 0 1.357-1.685 2.457-3.764 2.457-2.078 0-3.763-1.1-3.763-2.457z" fill="#141414"/></svg>