<svg width="127" height="45" viewBox="0 0 127 45" fill="none" xmlns="http://www.w3.org/2000/svg"><path d="M52.342 15.105h3.147v2.772h.075c.074-.25.268-.562.58-.937.312-.374.712-.73 1.199-1.067a7.4 7.4 0 011.723-.862 6.461 6.461 0 012.192-.356c1.323 0 2.435.275 3.334.824.899.55 1.636 1.374 2.21 2.473.574-1.1 1.386-1.923 2.435-2.473 1.049-.55 2.11-.824 3.184-.824 1.374 0 2.497.225 3.372.674.874.45 1.56 1.043 2.06 1.78a6.78 6.78 0 011.03 2.51c.188.936.281 1.904.281 2.903v10.34h-3.371v-9.89c0-.675-.044-1.324-.132-1.949a4.503 4.503 0 00-.543-1.648 3.093 3.093 0 00-1.161-1.142c-.5-.288-1.161-.431-1.985-.431-1.624 0-2.785.5-3.484 1.498-.7 1-1.05 2.285-1.05 3.859v9.702h-3.37v-9.29c0-.85-.044-1.623-.132-2.323-.087-.699-.262-1.305-.524-1.817a2.893 2.893 0 00-1.124-1.198c-.487-.288-1.143-.431-1.967-.431-.6 0-1.18.119-1.742.356a4.12 4.12 0 00-1.48 1.067c-.424.475-.761 1.08-1.011 1.817-.25.737-.375 1.605-.375 2.604v9.215h-3.371V15.105zm30.478 0h3.371V32.86H82.82V15.105zm-.787-6.369c0-.674.243-1.255.73-1.742a2.378 2.378 0 011.742-.73c.675 0 1.255.243 1.742.73.487.487.73 1.068.73 1.742 0 .675-.243 1.255-.73 1.742a2.378 2.378 0 01-1.742.73 2.378 2.378 0 01-1.742-.73 2.378 2.378 0 01-.73-1.742zm7.814 6.369h3.371v2.734h.075c.425-.949 1.162-1.717 2.21-2.304 1.05-.587 2.26-.88 3.634-.88.85 0 1.667.131 2.454.393a5.54 5.54 0 012.061 1.218c.586.55 1.055 1.255 1.404 2.117.35.861.525 1.879.525 3.053V32.86h-3.372V22.372c0-.824-.112-1.53-.337-2.116-.225-.587-.524-1.062-.899-1.424a3.374 3.374 0 00-1.293-.787 4.767 4.767 0 00-1.517-.243c-.699 0-1.348.112-1.948.337-.6.225-1.124.58-1.573 1.068-.45.487-.8 1.105-1.049 1.854-.25.75-.375 1.636-.375 2.66v9.14h-3.371V15.105zm36.921 17.756h-3.371v-2.547h-.075c-.649.949-1.542 1.686-2.679 2.21a8.272 8.272 0 01-3.502.787c-1.374 0-2.616-.237-3.728-.712a8.245 8.245 0 01-2.847-1.985 8.99 8.99 0 01-1.817-2.96c-.424-1.124-.636-2.347-.636-3.671 0-1.324.212-2.554.636-3.69a8.74 8.74 0 011.817-2.96 8.367 8.367 0 012.847-1.966c1.112-.475 2.354-.712 3.728-.712 1.273 0 2.472.269 3.596.806s1.985 1.267 2.585 2.191h.075V4.541h3.371v28.32zm-9.215-2.697c.899 0 1.711-.156 2.435-.468a5.371 5.371 0 001.835-1.274c.5-.537.887-1.186 1.162-1.948a7.31 7.31 0 00.412-2.491c0-.9-.138-1.73-.412-2.491a5.615 5.615 0 00-1.162-1.948 5.371 5.371 0 00-1.835-1.274c-.724-.312-1.536-.468-2.435-.468s-1.711.156-2.435.468a5.385 5.385 0 00-1.836 1.274 5.629 5.629 0 00-1.161 1.948 7.285 7.285 0 00-.412 2.491c0 .899.137 1.73.412 2.491a5.628 5.628 0 001.161 1.948c.5.537 1.112.962 1.836 1.274.724.312 1.536.468 2.435.468z" fill="#141414"/><path fill-rule="evenodd" clip-rule="evenodd" d="M52.48 38.678h1.325c.077 0 .139.062.139.138v.603c.074-.105.148-.21.244-.315a1.63 1.63 0 01.345-.28 1.96 1.96 0 01.456-.203c.17-.052.356-.078.557-.078.378 0 .713.078 1.006.236.293.157.514.404.662.74.193-.351.427-.602.701-.752.274-.15.612-.224 1.012-.224.364 0 .67.062.918.185.248.124.445.292.59.505.144.214.248.465.311.753s.095.597.095.926v3.085a.139.139 0 01-.14.139h-1.39a.139.139 0 01-.139-.14v-3.039c0-.254-.054-.473-.161-.657-.108-.183-.299-.275-.573-.275a1.09 1.09 0 00-.484.096.8.8 0 00-.312.264 1.103 1.103 0 00-.166.393c-.034.15-.05.307-.05.471v2.748a.139.139 0 01-.14.139h-1.39a.139.139 0 01-.14-.14V41.25a7.49 7.49 0 00-.01-.36 1.446 1.446 0 00-.078-.403.774.774 0 00-.217-.326c-.1-.09-.247-.135-.44-.135-.215 0-.389.04-.522.118a.8.8 0 00-.306.315c-.07.13-.117.278-.14.443a3.866 3.866 0 00-.033.517v2.579a.139.139 0 01-.138.139H52.48a.139.139 0 01-.14-.14v-5.18a.14.14 0 01.14-.139zm14.232 4.628a2.777 2.777 0 01-.168.181 2.704 2.704 0 01-.747.502c-.408.188-.83.281-1.268.281a3.37 3.37 0 01-1.173-.202 2.715 2.715 0 01-1.596-1.482 2.883 2.883 0 01-.234-1.18c0-.434.078-.827.233-1.179a2.716 2.716 0 011.597-1.482 3.378 3.378 0 011.173-.202c.386 0 .736.067 1.051.202.316.135.583.327.801.578.22.251.388.552.507.904.118.352.177.745.177 1.18v.342a.185.185 0 01-.184.185h-3.687c.067.322.212.579.434.77.223.19.497.286.823.286.275 0 .507-.062.696-.185a1.817 1.817 0 00.412-.374.139.139 0 01.19-.024l.941.696a.14.14 0 01.022.203zm17.667 0a2.777 2.777 0 01-.168.181 2.704 2.704 0 01-.747.502c-.408.188-.83.281-1.268.281a3.38 3.38 0 01-1.174-.202 2.713 2.713 0 01-1.596-1.482 2.883 2.883 0 01-.234-1.18c0-.434.078-.827.234-1.179a2.714 2.714 0 011.596-1.482 3.378 3.378 0 011.174-.202c.386 0 .736.067 1.051.202.315.135.582.327.801.578.219.251.388.552.506.904.119.352.178.745.178 1.18v.342a.185.185 0 01-.185.185h-3.686c.067.322.211.579.434.77.222.19.497.286.823.286.275 0 .506-.062.695-.185a1.82 1.82 0 00.413-.374.139.139 0 01.19-.024l.94.696a.14.14 0 01.023.203zM65.397 40.79a.98.98 0 00-.278-.73.984.984 0 00-.745-.303c-.186 0-.35.03-.49.09s-.261.136-.361.23a1 1 0 00-.234.325 1.079 1.079 0 00-.095.388h2.203zm2.515-2.111h1.39a.14.14 0 01.14.138v5.18a.139.139 0 01-.14.14h-1.39a.139.139 0 01-.14-.14v-5.18a.14.14 0 01.14-.139zm.699-.504a.979.979 0 01-.974-.983c0-.544.436-.984.974-.984.537 0 .973.44.973.984a.979.979 0 01-.973.983zm4.764 2.11a1.177 1.177 0 00-.968-.461.903.903 0 00-.412.101c-.133.068-.2.184-.2.348 0 .135.069.234.206.298.137.063.311.12.523.168l.678.157c.241.057.468.145.679.264.211.12.385.283.523.489.137.206.206.481.206.825 0 .352-.076.642-.228.87a1.757 1.757 0 01-.585.551 2.499 2.499 0 01-.8.292 4.72 4.72 0 01-.88.084c-.377 0-.76-.054-1.145-.163a2.136 2.136 0 01-.979-.578l1.012-1.134c.156.194.329.342.518.443.189.102.41.152.662.152.192 0 .367-.028.522-.084.156-.056.234-.16.234-.31 0-.141-.069-.248-.206-.32a2.233 2.233 0 00-.523-.179c-.211-.049-.437-.1-.678-.157a2.788 2.788 0 01-.679-.253 1.424 1.424 0 01-.523-.477c-.137-.206-.206-.481-.206-.825 0-.322.065-.6.195-.831.13-.233.3-.424.512-.573.211-.15.454-.26.728-.332.275-.07.553-.106.835-.106.356 0 .716.052 1.079.157.363.105.671.292.923.561l-1.023 1.022zm5.307-.259h-1.33v1.82c0 .15.008.286.023.41.015.123.048.23.1.32.052.09.132.159.24.207.107.049.25.073.427.073.09 0 .206-.01.35-.028a.636.636 0 00.141-.036.14.14 0 01.188.13v1.077a.139.139 0 01-.101.133 3.195 3.195 0 01-.477.106c-.2.022-.397.033-.59.033-.282 0-.541-.03-.779-.09a1.768 1.768 0 01-.623-.286 1.34 1.34 0 01-.417-.51c-.1-.21-.15-.465-.15-.765v-2.594h-.93a.139.139 0 01-.138-.139v-1.07a.14.14 0 01.139-.139h.929V37.2c0-.077.062-.139.139-.139h1.39a.14.14 0 01.14.139v1.479h1.33c.076 0 .138.062.138.138v1.07a.139.139 0 01-.139.14zm4.361.764a.98.98 0 00-.278-.73.984.984 0 00-.745-.303c-.185 0-.349.03-.49.09-.14.06-.26.136-.36.23a.985.985 0 00-.234.325 1.08 1.08 0 00-.095.388h2.203zm2.493-2.111h1.391c.077 0 .139.062.139.138v.737h.022c.178-.336.39-.59.634-.758.245-.168.553-.252.923-.252.097 0 .193.004.29.011.04.003.092.01.153.022a.14.14 0 01.114.136v1.245a.139.139 0 01-.173.135 2.312 2.312 0 00-.178-.039 2.25 2.25 0 00-.361-.028c-.32 0-.571.045-.757.135-.185.09-.328.215-.428.376-.1.161-.165.354-.195.578-.03.225-.044.472-.044.742v2.14a.139.139 0 01-.139.14h-1.391a.139.139 0 01-.139-.14v-5.18a.14.14 0 01.139-.139zM26.92 2.165C42.437 6.33 45.196 13.824 41.533 27.52c-3.664 13.695-9.793 18.802-25.31 14.638C.704 37.992-2.055 30.498 1.608 16.803 5.273 3.108 11.402-2 26.92 2.165z" fill="#141414"/><path fill-rule="evenodd" clip-rule="evenodd" d="M10.888 22.39c-1.97-4.124-2.059-8.167.347-10.572 2.405-2.406 6.449-2.317 10.571-.348 4.123-1.969 8.167-2.058 10.572.348 2.406 2.405 2.316 6.448.347 10.571 1.97 4.123 2.059 8.166-.347 10.572-2.405 2.405-6.449 2.316-10.572.347-4.122 1.969-8.166 2.058-10.571-.347-2.406-2.406-2.316-6.449-.347-10.572zm1.932-3.242a25.197 25.197 0 012.643-3.102 25.196 25.196 0 013.102-2.643c-2.239-.679-4.157-.53-5.216.529-1.059 1.059-1.207 2.977-.529 5.216zm17.973 6.482a25.197 25.197 0 01-2.644 3.102 25.186 25.186 0 01-3.101 2.643c2.238.679 4.157.53 5.216-.529 1.059-1.059 1.207-2.977.529-5.216zm-17.973 0c-.678 2.24-.53 4.157.53 5.216 1.058 1.06 2.976 1.208 5.215.53a25.179 25.179 0 01-3.102-2.644 25.197 25.197 0 01-2.643-3.102zm1.454-3.24c.835 1.42 1.942 2.866 3.304 4.228 1.362 1.362 2.808 2.469 4.228 3.304 1.421-.835 2.867-1.942 4.23-3.304 1.361-1.362 2.468-2.808 3.303-4.229a21.34 21.34 0 00-3.304-4.229c-1.362-1.361-2.808-2.468-4.229-3.303-1.42.835-2.866 1.942-4.228 3.303-1.362 1.362-2.469 2.808-3.304 4.23zm10.774-8.987a25.204 25.204 0 013.101 2.643 25.197 25.197 0 012.644 3.102c.678-2.239.53-4.157-.53-5.216-1.058-1.06-2.977-1.208-5.215-.53z" fill="#fff"/></svg>