<svg width="208" height="33" viewBox="0 0 208 33" fill="none" xmlns="http://www.w3.org/2000/svg"><g clip-path="url(#clip0)" fill="#141414"><path d="M207.548 27.975l-1.471 4.574h-.452l-1.479-4.574v4.574h-.396v-4.968h.72l1.397 4.356 1.398-4.357h.703v4.969h-.396v-4.574h-.024zm-4.274-.395h-4.492v.395h2.044v4.574h.396v-4.574h2.052v-.395zm-47.434 4.897h-2.924L143.301 3.1v29.377h-2.561V.547h4.597l8.952 27.951h.097L163.37.549h4.492v31.929h-2.537V3.1l-9.485 29.377zM37.722.54v31.937h2.78V18.038h3.845a8.493 8.493 0 012.99.483c2.835 1.071 3.158 4.349 3.667 6.442l1.616 7.554h2.796L53.598 23.9c-.533-2.592-.889-3.704-1.616-4.831-.961-1.49-3.708-2.295-3.708-2.295 4.508-.878 6.463-3.89 6.463-7.997 0-3.768-1.834-8.173-10.253-8.173h-6.762V.54zm2.78 2.544h3.667c7.328 0 7.757 3.882 7.757 5.637 0 1.458-.267 6.772-8.888 6.772h-2.537V3.084zM58.72 15.727h2.844c.258-1.289.808-3.575 4.597-3.575 4.96 0 4.799 4.284 4.799 5.942v1.933s-1.616 0-2.618.097c-3.789.29-9.978 1.272-9.978 6.965 0 5.694 4.735 5.887 5.656 5.887a8.15 8.15 0 003.91-.926 8.32 8.32 0 002.957-2.69h.097v3.117h2.303V17.434c0-2.247.21-7.489-6.908-7.489s-7.66 4.735-7.66 5.782zm12.232 6.506a20.426 20.426 0 01-.162 2.545 6.38 6.38 0 01-2.166 3.885 6.419 6.419 0 01-4.184 1.535 3.006 3.006 0 01-2.305-.77 2.988 2.988 0 01-.975-2.218c0-1.168.452-3.897 4.952-4.759.946-.177 4.84-.218 4.84-.218zM77.1.54v22.917c0 1.24.04 9.527 7.7 9.527 1.842 0 8.564-.644 8.564-11.274 0-10.63-5.898-11.749-7.675-11.749a6.388 6.388 0 00-3.876 1.287 6.352 6.352 0 00-2.297 3.368h-.08V.54h-2.344.008zm13.47 21.106c0 8.914-4.993 9.1-5.77 9.1-.775 0-5.275 0-5.275-8.738 0-7.247 3.498-9.864 5.906-9.864 2.408 0 5.138 2.472 5.138 9.51v-.008zM96.967.54v22.917c0 1.24.04 9.527 7.7 9.527 1.842 0 8.564-.644 8.564-11.274 0-10.63-5.898-11.749-7.676-11.749a6.39 6.39 0 00-3.876 1.287 6.355 6.355 0 00-2.296 3.368h-.097V.54h-2.343.024zm13.468 21.106c0 8.914-4.993 9.1-5.768 9.1-.776 0-5.276 0-5.276-8.738 0-7.247 3.498-9.864 5.906-9.864 2.407 0 5.13 2.472 5.13 9.51l.008-.008zm9.049-11.202v22.033h-2.319V10.444h2.319zm.533-9.896v3.744h-3.426V.548h3.426zm15.625 32.235c-.782.107-1.57.175-2.359.2a6.867 6.867 0 01-4.403-1.263c-.97-.806-1.446-2.223-1.446-4.164V12.651h-3.539v-2.207h3.539V5.355l2.302-1.538v6.62h5.906v2.206h-5.898v14.172c0 .637-.153 3.922 3.345 3.922a9.053 9.053 0 002.553-.394v2.44zM30.952 13.198H20.634a1.288 1.288 0 01-1.196-.794 1.278 1.278 0 01-.096-.494V1.627A1.278 1.278 0 0018.543.44a1.288 1.288 0 00-.494-.095h-3.862a1.288 1.288 0 00-1.194.789 1.278 1.278 0 00-.098.492V11.91a1.276 1.276 0 01-.797 1.192 1.288 1.288 0 01-.496.096H7.74a1.287 1.287 0 01-1.197-.794 1.277 1.277 0 01-.096-.494V1.627A1.277 1.277 0 005.651.434a1.288 1.288 0 00-.496-.096h-3.87a1.288 1.288 0 00-1.19.796A1.277 1.277 0 000 1.627v29.57a1.277 1.277 0 00.797 1.192c.157.064.326.097.496.096h29.659a1.287 1.287 0 001.196-.794 1.28 1.28 0 00.096-.495V14.511a1.278 1.278 0 00-.79-1.214c-.16-.066-.33-.1-.502-.099zm-5.187 10.92a1.919 1.919 0 01-1.19 1.785 1.935 1.935 0 01-.741.148h-2.586a1.935 1.935 0 01-1.786-1.194 1.919 1.919 0 01-.145-.74V21.55a1.919 1.919 0 011.19-1.785c.235-.098.487-.148.741-.148h2.586a1.935 1.935 0 011.786 1.194c.097.235.146.486.145.739v2.569zm163.41 6.192c2.965-2.528 4.549-7.247 4.549-14.052 0-9.912-3.757-16.266-10.77-16.266-6.576 0-11.157 5.323-11.157 16.266 0 10.944 3.894 16.235 10.963 16.235h13.226V29.81l-6.811.5zm-14.332-14.043c0-9.1 2.609-13.521 8.079-13.521 5.47 0 7.724 5.283 7.724 13.52 0 8.238-1.988 13.545-7.861 13.545-5.874 0-7.942-4.445-7.942-13.544z"/></g><defs><clipPath id="clip0"><path fill="#fff" d="M0 0h208v33H0z"/></clipPath></defs></svg>