<svg width="313" height="65" viewBox="0 0 313 65" fill="none" xmlns="http://www.w3.org/2000/svg"><g clip-path="url(#clip0)" fill="#141414"><path d="M0 40.391h13.726l.98-11.766-12.746-2.94L0 40.39zm2.451-16.668l12.255 2.942 2.942-10.295-10.295-5.392-4.902 12.745zM8.333 9.017l9.804 5.392 7.844-5.392L18.628.683 8.333 9.017zm54.904 31.374H49.51l-.98-11.766 12.745-2.94 1.96 14.706zm-2.451-16.668L48.53 26.665 45.59 16.37l10.293-5.392 4.903 12.745zM54.903 9.017l-9.804 5.392-7.843-5.392L44.61.683l10.294 8.334zM21.079-.787l7.353 8.824h6.863l6.373-8.824-6.373-1.961H28.26l-7.18 1.96z"/><path d="M0 40.391h13.726l.98-11.766-12.746-2.94L0 40.39zm2.452-16.668l12.255 2.942 2.941-10.295-10.294-5.392-4.902 12.745zM8.333 9.017l9.804 5.392 7.844-5.392L18.628.683 8.333 9.017zm54.904 31.374H49.51l-.98-11.766 12.745-2.94 1.96 14.706zm-2.451-16.668L48.53 26.665 45.59 16.37l10.294-5.392 4.902 12.745zM54.903 9.017l-9.804 5.392-7.843-5.392L44.609.683l10.294 8.334zM21.08-.787l7.353 8.824h6.862l6.373-8.824-6.373-1.961H28.26l-7.18 1.96zM79.986 9.487V40.37h5.33V29.34l10.05 11.03h4.8v-2.165l-8.762-9.109c2.283-.289 4.085-1.396 5.412-3.31 1.328-1.912 2.014-4.073 2.043-6.494.043-2.81-.864-5.135-2.696-6.966-1.832-1.83-4.847-2.773-9.07-2.838l-7.107-.001zm24.654 0V40.37h17.157v-4.862H109.97v-8.824h8.681v-4.8h-8.681v-7.638h11.337V9.487H104.64zm22.304 0V40.37h8.824c2.894-.048 5.227-.808 6.985-2.287 1.758-1.48 3.031-3.39 3.82-5.72.788-2.328 1.157-4.796 1.144-7.394.022-2.567-.302-5.007-1.001-7.353-.699-2.346-1.89-4.273-3.575-5.78-1.684-1.508-4.009-2.297-6.944-2.349h-9.253zm-41.628 4.615h1.777c2.215.016 3.813.465 4.82 1.369 1.008.904 1.507 2.17 1.492 3.778-.004 1.669-.436 3.083-1.328 4.249-.891 1.167-2.219 1.767-3.963 1.818-.673-.027-1.303-.12-1.879-.307-.575-.186-.882-.3-.919-.327v-10.58zm46.917 0h3.779c1.868.057 3.257.69 4.167 1.9.909 1.21 1.499 2.647 1.777 4.33.278 1.683.395 3.26.368 4.74a22.975 22.975 0 01-.429 4.738c-.317 1.633-.951 3.023-1.899 4.166-.95 1.144-2.357 1.727-4.229 1.778h-3.533l-.001-21.652zm21.816-4.615V40.37h5.351V23.356l-.408-3.575 7.169 20.589h4.412l7.149-20.59-.388 3.576V40.37h5.351V9.486h-6.291l-7.353 20.937a16.404 16.404 0 00-.51 1.9c-.109.533-.166.811-.164.837.002-.023-.055-.292-.163-.817a19.253 19.253 0 00-.532-1.92l-7.353-20.936h-6.27zm35.683 0V40.37h5.29V9.487h-5.29zm12.112 0V40.37h5.352V22.825a25.792 25.792 0 00-.184-2.82c-.1-.8-.149-1.204-.163-1.245l9.743 21.61h5.147V9.487h-5.331v20.057c-.011-.075-.162-.602-.429-1.572a23.947 23.947 0 00-1.001-2.9l-6.863-15.585h-6.271zm27.064 0V40.37h17.158v-4.862h-11.827v-8.824h8.681v-4.8h-8.681v-7.638h11.337V9.487h-16.668zM85.297 48.929c-.047-.019-.37.026-.98.142-.61.117-1.23.412-1.839.879-.61.466-.933 1.215-.98 2.247v1.144H80.19v1.531l1.308.225v8.252h2.145v-8.212h1.859V53.34h-1.86V52.3c.026-.557.207-.966.532-1.226.324-.261.635-.418.96-.49.325-.072.506-.112.531-.102l-.368-1.553zm1.716.224v10.01c.01 1.165.074 2.083.204 2.757.131.673.265 1.152.388 1.43h2.206a19.503 19.503 0 01-.51-2.043 11.634 11.634 0 01-.184-2.145v-10.01h-2.104zm28.289 0v13.174a7.019 7.019 0 001.695.96 5.28 5.28 0 001.9.368c1.082-.023 1.946-.324 2.574-.919.627-.595 1.063-1.35 1.327-2.247a9.36 9.36 0 00.389-2.737c.004-1.18-.294-2.252-.899-3.207-.606-.954-1.547-1.455-2.819-1.511a2.46 2.46 0 00-1.103.327 3.422 3.422 0 00-.919.715v-4.923h-2.145zm9.947 0v10.01c.011 1.165.074 2.083.205 2.757.131.673.265 1.152.388 1.43h2.205a19.542 19.542 0 01-.51-2.043 11.693 11.693 0 01-.184-2.145v-10.01h-2.104zm-13.909.306a1.455 1.455 0 00-1.001.409 1.403 1.403 0 00-.45 1c.012.386.147.7.409.94.261.24.582.36.96.368a1.455 1.455 0 001.001-.409c.281-.265.436-.602.449-1-.011-.386-.147-.7-.408-.94a1.416 1.416 0 00-.961-.368h.001zm62.727 0a1.458 1.458 0 00-1.002.409 1.398 1.398 0 00-.449 1c.011.386.147.7.409.94.261.24.581.36.96.368a1.455 1.455 0 001-.409c.282-.265.437-.602.45-1-.012-.386-.147-.7-.409-.94a1.414 1.414 0 00-.96-.368h.001zm22.141 2.084v1.798h-1.369v1.531l1.287.225v6.046c-.008.694.154 1.276.469 1.757.317.48.836.734 1.573.755.475.002.859-.045 1.144-.143a8.24 8.24 0 001.042-.47l-.511-1.511c-.33.166-.693.256-1.062.265-.235-.009-.372-.077-.429-.224a1.19 1.19 0 01-.081-.49v-5.924h1.777v-1.817h-1.819v-1.798h-2.021zm112.646 0v1.798h-1.369v1.531l1.288.225v6.046c-.009.694.153 1.276.469 1.757.316.48.835.734 1.573.755.473.002.858-.045 1.143-.143a8.24 8.24 0 001.042-.47l-.51-1.511c-.33.166-.693.256-1.062.265-.236-.009-.373-.077-.429-.224a1.207 1.207 0 01-.082-.49v-5.924h1.777v-1.817h-1.818v-1.798h-2.022zm-213.017 1.49c-1.389.054-2.47.591-3.228 1.594-.757 1.002-1.134 2.154-1.144 3.472a8.8 8.8 0 00.368 2.574c.25.845.66 1.54 1.246 2.104.587.563 1.389.856 2.39.878.592-.018 1.214-.181 1.859-.49a7.775 7.775 0 001.654-1.042l-.715-1.389a6.39 6.39 0 01-1.266.756 3.668 3.668 0 01-1.41.347c-.725-.064-1.235-.451-1.531-1.184-.297-.733-.44-1.428-.43-2.063a2.23 2.23 0 01.021-.368h5.842c0-.224.006-.45 0-.674-.006-.225-.02-.45-.02-.674-.055-.99-.426-1.871-1.104-2.635-.677-.764-1.518-1.164-2.532-1.205zm38.236 0c-1.388.054-2.469.591-3.227 1.594-.758 1.002-1.134 2.154-1.144 3.472a8.763 8.763 0 00.368 2.574c.25.845.659 1.54 1.246 2.104.587.563 1.388.856 2.389.878.592-.018 1.214-.181 1.859-.49a7.742 7.742 0 001.654-1.042l-.714-1.389a6.4 6.4 0 01-1.267.756 3.668 3.668 0 01-1.409.347c-.725-.064-1.235-.451-1.532-1.184-.296-.733-.439-1.428-.429-2.063a2.382 2.382 0 01.02-.368h5.842c0-.224.006-.45 0-.674-.006-.225-.019-.45-.02-.674-.055-.99-.426-1.871-1.103-2.635-.677-.764-1.518-1.164-2.533-1.205zm16.443 0c-.579.03-1.064.172-1.451.43-.386.258-.636.462-.755.613v-.736h-2.165v13.583h2.165v-4.29c.199.35.508.622.878.777.378.164.777.247 1.205.245 1.025-.026 1.811-.333 2.37-.94.558-.606.95-1.367 1.164-2.246.21-.842.313-1.707.306-2.574a6.151 6.151 0 00-.898-3.268c-.606-1-1.548-1.53-2.819-1.593zm9.804 0c-.351.044-.691.228-1.021.532-.33.304-.507.467-.532.51v-.734h-2.164v10.008h2.144v-7.455c.02-.038.174-.188.45-.45.275-.262.551-.412.836-.45.263.016.515.077.757.184.242.108.371.17.388.184l.347-2.022c-.002-.013-.101-.053-.307-.143-.205-.09-.508-.15-.898-.163zm6.291 0c-1.377.066-2.41.634-3.085 1.717-.674 1.081-1.002 2.283-1 3.595-.002 1.32.326 2.516 1 3.595.675 1.077 1.708 1.65 3.085 1.715 1.376-.064 2.41-.638 3.084-1.715.675-1.079 1.003-2.275 1.001-3.595.002-1.312-.327-2.514-1.001-3.595-.674-1.082-1.708-1.65-3.084-1.716zm15.094 0c-1.388.054-2.469.591-3.227 1.594-.758 1.002-1.134 2.154-1.144 3.472a8.796 8.796 0 00.368 2.574c.25.845.659 1.54 1.246 2.104.587.563 1.389.856 2.389.878.593-.018 1.214-.181 1.859-.49a7.775 7.775 0 001.655-1.042l-.715-1.389c-.391.3-.817.554-1.267.756a3.664 3.664 0 01-1.409.347c-.725-.064-1.235-.451-1.532-1.184-.296-.733-.439-1.428-.429-2.063a2.264 2.264 0 01.021-.368h5.842c-.001-.224.006-.45 0-.674-.007-.225-.02-.45-.021-.674-.054-.99-.426-1.871-1.103-2.635-.677-.764-1.518-1.164-2.533-1.205zm9.356 0c-.952.022-1.74.31-2.35.859-.609.549-1.056 1.24-1.348 2.062a7.344 7.344 0 00-.429 2.493c0 .817.152 1.618.45 2.41a4.84 4.84 0 001.348 1.98c.601.527 1.355.798 2.267.818.566-.01 1.134-.15 1.716-.408a5.511 5.511 0 001.511-.96l-.735-1.471c-.341.272-.71.505-1.103.695a3.133 3.133 0 01-1.246.327c-.521-.023-.924-.234-1.225-.654a4.068 4.068 0 01-.654-1.47 6.487 6.487 0 01-.184-1.471c-.002-.403.068-.863.204-1.39.127-.5.349-.972.654-1.388.294-.4.669-.613 1.144-.634.315.004.647.078.98.204.334.127.615.283.858.49l1.082-1.265a3.187 3.187 0 00-1.348-.92 4.514 4.514 0 00-1.593-.307h.001zm22.018 0c-.438.022-.902.156-1.409.389-.508.233-.88.439-1.104.634v-.715h-2.144v10.008h2.144v-7.353c.202-.172.539-.386 1.022-.654.482-.268.942-.422 1.369-.45.34.007.568.137.694.368.126.232.191.524.183.899v7.19h2.145v-7.537a6.93 6.93 0 01.899-.572c.375-.211.795-.33 1.225-.347.341-.006.569.076.695.224.126.149.191.394.184.756v7.476h2.144v-7.476c.021-.806-.171-1.468-.592-2.002-.421-.533-1.195-.817-2.308-.837-.515.025-1.022.177-1.532.45-.51.272-.935.515-1.266.734-.214-.29-.509-.554-.899-.796s-.879-.373-1.45-.388zm14.318 0c-.658.013-1.31.198-1.941.532a5.198 5.198 0 00-1.572 1.246l.735 1.287c.329-.32.736-.595 1.205-.838.47-.242.928-.375 1.389-.388.353-.007.643.058.859.205.215.146.32.415.326.796v1l-4.392 1.9a6.93 6.93 0 00-.408.98 3.496 3.496 0 00-.204 1.043c0 .896.222 1.602.673 2.104.452.5 1.135.747 2.043.755.577-.002 1.065-.135 1.471-.388.405-.253.761-.61 1.062-1.082.089.453.294.807.613 1.062s.707.383 1.164.388c.256-.004.511-.045.756-.123.244-.071.477-.174.694-.306l-.551-1.083a2.02 2.02 0 01-.184.082.529.529 0 01-.184.041c-.15-.007-.251-.055-.306-.163a.782.782 0 01-.082-.368v-5.821c-.017-.978-.32-1.7-.899-2.166-.578-.466-1.33-.697-2.267-.694zm11.153 0c-.457.01-.944.123-1.451.327-.507.205-.932.44-1.287.715v-.734h-2.144v10.008h2.144v-7.395c.262-.213.637-.436 1.104-.673.466-.237.922-.368 1.389-.388.328-.005.547.08.653.244.106.165.152.434.143.817v7.395h2.144v-7.395c.032-.791-.132-1.477-.49-2.041-.357-.565-1.092-.853-2.205-.879zm8.967 0c-.659.013-1.311.198-1.942.532a5.21 5.21 0 00-1.572 1.246l.735 1.287c.329-.32.736-.595 1.205-.838.47-.242.928-.375 1.389-.388.353-.007.643.058.858.205.216.146.321.415.327.796v1l-4.391 1.9a6.813 6.813 0 00-.409.98 3.528 3.528 0 00-.204 1.043c0 .896.222 1.602.674 2.104.451.5 1.134.747 2.043.755.576-.002 1.065-.135 1.47-.388s.761-.61 1.062-1.082c.089.453.294.807.613 1.062s.707.383 1.164.388c.257-.004.511-.045.756-.123.244-.071.477-.175.694-.306l-.551-1.083a2.04 2.04 0 01-.183.082.535.535 0 01-.185.041c-.15-.007-.25-.055-.306-.163a.782.782 0 01-.082-.368v-5.821c-.017-.978-.32-1.7-.899-2.166-.578-.466-1.33-.697-2.267-.694h.001zm9.395 0c-1.098.013-1.966.343-2.614.98-.649.64-.986 1.51-1.002 2.615a3.845 3.845 0 00.409 1.737c.278.563.718.978 1.307 1.246-.367.13-.702.34-.98.613a1.46 1.46 0 00-.449 1.02c.012.36.13.684.367.96.237.278.52.439.837.491-.407.167-.81.436-1.204.797-.395.36-.604.793-.634 1.307.045.957.438 1.63 1.165 2.022a4.772 4.772 0 002.389.572 5.367 5.367 0 003.085-.96c.922-.633 1.416-1.548 1.471-2.758-.022-.737-.283-1.289-.777-1.675-.494-.385-1.091-.59-1.797-.592h-.654c-.293.018-.706.03-1.225.02-.52-.009-.801-.15-.858-.407a.757.757 0 01.49-.675c.296-.126.541-.213.735-.245.122-.03.233-.044.347-.062.115-.016.235-.041.348-.06.832-.211 1.473-.596 1.92-1.164.446-.569.669-1.28.673-2.125 0-.26-.028-.52-.081-.776a8.508 8.508 0 00-.204-.736h1.164V53.34h-2.553a3.528 3.528 0 00-.817-.245 5.096 5.096 0 00-.858-.061zm9.886 0c-1.389.054-2.47.591-3.227 1.594-.759 1.002-1.134 2.154-1.144 3.472a8.763 8.763 0 00.368 2.574c.25.845.659 1.54 1.246 2.104.586.563 1.388.856 2.389.878.592-.018 1.213-.181 1.859-.49a7.767 7.767 0 001.654-1.042l-.715-1.389a6.37 6.37 0 01-1.266.756 3.668 3.668 0 01-1.409.347c-.725-.064-1.236-.451-1.532-1.184-.296-.733-.439-1.428-.429-2.063a2.264 2.264 0 01.02-.368h5.842c0-.224.006-.45 0-.674-.006-.225-.02-.45-.02-.674-.055-.99-.426-1.871-1.104-2.635-.677-.764-1.517-1.164-2.532-1.205zm10.58 0c-.438.022-.902.156-1.409.389s-.88.439-1.103.634v-.715h-2.145v10.008h2.145v-7.353c.202-.172.538-.386 1.021-.654.483-.268.942-.422 1.369-.45.34.007.569.137.694.368.126.232.191.524.184.899v7.19h2.144v-7.537a7 7 0 01.899-.572c.375-.211.795-.33 1.226-.347.34-.006.568.076.694.224.127.149.191.394.184.756v7.476h2.145v-7.476c.021-.806-.172-1.468-.593-2.002-.421-.533-1.195-.817-2.308-.837-.515.025-1.022.177-1.532.45-.509.272-.934.515-1.266.734-.214-.29-.508-.554-.898-.796-.391-.242-.879-.373-1.451-.388zm14.788 0c-1.388.054-2.469.591-3.227 1.594-.758 1.002-1.134 2.154-1.144 3.472a8.796 8.796 0 00.368 2.574c.25.845.659 1.54 1.246 2.104.587.563 1.389.856 2.389.878.593-.018 1.214-.181 1.859-.49a7.775 7.775 0 001.655-1.042l-.715-1.389a6.4 6.4 0 01-1.267.756 3.664 3.664 0 01-1.409.347c-.725-.064-1.235-.451-1.532-1.184-.296-.733-.439-1.428-.429-2.063a2.264 2.264 0 01.021-.368h5.842c-.001-.224.006-.45 0-.674-.007-.225-.02-.45-.021-.674-.055-.99-.426-1.871-1.103-2.635-.677-.764-1.518-1.164-2.533-1.205zm10.785 0c-.456.01-.943.123-1.45.327-.508.205-.933.44-1.287.715v-.734h-2.144v10.008h2.144v-7.395c.262-.213.636-.436 1.103-.673.467-.237.922-.368 1.389-.388.328-.005.548.08.653.244.106.165.152.434.144.817v7.395h2.144v-7.395c.031-.791-.133-1.477-.49-2.041-.358-.565-1.093-.853-2.206-.879zm-202.355.308l2.716 4.84-2.9 5.168h2.349l1.736-3.391 1.798 3.39h2.451l-3.065-5.29c.131-.219.408-.702.838-1.45s.85-1.474 1.246-2.165l.633-1.103h-2.349l-1.532 3.003-1.511-3.003h-2.41zm9.64 0v10.008h2.104v-10.01l-2.104.002zm62.748 0v10.743c-.016.43-.161.795-.45 1.082a2.53 2.53 0 01-1 .614l.449 1.532a6.612 6.612 0 002.022-.94c.676-.458 1.03-1.185 1.083-2.166V53.341h-2.104zm83.805 1.245c.532.026.896.25 1.104.654.208.403.315.832.306 1.307.015.44-.084.876-.286 1.266-.2.378-.561.57-1.082.592-.587-.02-.974-.22-1.165-.612-.191-.392-.281-.859-.266-1.389a2.39 2.39 0 01.307-1.246c.206-.362.56-.552 1.082-.572zm-161.095.04c.52.018.913.198 1.184.553.272.354.43.78.47 1.266h-3.411a3.12 3.12 0 01.572-1.246c.275-.358.67-.554 1.184-.572zm38.236 0c.52.018.913.198 1.185.553.272.354.43.78.47 1.266h-3.412a3.12 3.12 0 01.573-1.246c.274-.358.669-.554 1.184-.572zm47.632 0c.52.018.913.198 1.185.553.272.354.43.78.47 1.266h-3.412a3.12 3.12 0 01.573-1.246c.274-.358.669-.554 1.184-.572zm85.093 0c.52.018.913.198 1.184.553.272.354.431.78.47 1.266h-3.411c.096-.453.291-.878.572-1.246.275-.358.67-.554 1.185-.572zm25.368 0c.52.018.913.198 1.185.553.272.354.43.78.47 1.266h-3.412a3.12 3.12 0 01.573-1.246c.274-.358.669-.554 1.184-.572zm-125.412.246c.608.033 1.09.386 1.43 1.062.34.676.505 1.48.51 2.41-.005.94-.17 1.74-.51 2.41-.34.672-.822 1.032-1.43 1.063-.608-.031-1.09-.39-1.43-1.063-.34-.671-.505-1.47-.51-2.41.005-.93.17-1.734.51-2.41.34-.676.822-1.03 1.43-1.062zm-47.326.082c.715.056 1.184.413 1.409 1.082.225.67.327 1.313.307 1.92.006.435-.043.963-.143 1.573-.1.61-.288 1.14-.572 1.614-.284.474-.701.73-1.246.755a2.448 2.448 0 01-.817-.163 3.89 3.89 0 01-.777-.388v-5.372c.22-.212.506-.428.859-.653.352-.226.679-.35.98-.368zm31.027 0c.732.06 1.212.44 1.429 1.143.217.704.309 1.371.286 2.002.008.387-.028.877-.102 1.45-.074.574-.223 1.08-.47 1.532-.247.453-.634.69-1.144.715-.833-.06-1.371-.45-1.634-1.185-.262-.733-.391-1.45-.367-2.143v-2.493c.259-.256.547-.483.858-.674a2.262 2.262 0 011.144-.347zm78.127 3.738v.368a3.632 3.632 0 01-.552 1.878c-.362.599-.873.918-1.532.961-.307-.012-.535-.127-.694-.348a1.295 1.295 0 01-.245-.776c.002-.144.029-.294.061-.45.033-.154.059-.304.102-.449l2.86-1.184zm20.119 0v.368a3.622 3.622 0 01-.552 1.878c-.362.599-.872.918-1.531.961-.307-.012-.536-.127-.695-.348a1.295 1.295 0 01-.245-.776c.002-.144.029-.294.061-.45.033-.154.06-.304.102-.449l2.86-1.184zm7.7 4.371h1.185c.306-.016.631.021.98.102.349.08.542.302.572.674-.026.637-.274 1.124-.755 1.47a2.805 2.805 0 01-1.655.532 1.807 1.807 0 01-1.041-.266c-.306-.192-.474-.551-.491-1.062.051-.427.262-.776.613-1.042.351-.265.542-.4.592-.408z"/></g><defs><clipPath id="clip0"><path fill="#fff" d="M0 0h312.981v64.941H0z"/></clipPath></defs></svg>