<svg width="153" height="51" viewBox="0 0 153 51" fill="none" xmlns="http://www.w3.org/2000/svg"><path d="M34.364 25.457a5.133 5.133 0 11-10.266 0 5.133 5.133 0 0110.266 0z" fill="#141414" stroke="#141414" stroke-width=".069"/><path clip-rule="evenodd" d="M29.231 14.95c6.938 0 13.384.996 18.243 2.669 5.856 2.015 9.456 5.071 9.456 7.838 0 2.883-3.816 6.129-10.103 8.212-4.754 1.575-11.01 2.397-17.596 2.397-6.752 0-13.146-.771-17.954-2.414-6.082-2.079-9.745-5.367-9.745-8.195 0-2.745 3.437-5.777 9.21-7.79 4.878-1.7 11.482-2.717 18.488-2.717h.001z" stroke="#141414" stroke-width="1.663"/><path clip-rule="evenodd" d="M20.085 20.234c3.466-6.01 7.548-11.097 11.425-14.47 4.672-4.066 9.117-5.658 11.514-4.276 2.498 1.44 3.403 6.367 2.067 12.855-1.01 4.905-3.424 10.734-6.714 16.44-3.373 5.85-7.236 11.003-11.06 14.346-4.84 4.23-9.518 5.76-11.968 4.348-2.377-1.37-3.287-5.863-2.146-11.87.964-5.075 3.382-11.304 6.88-17.373h.002z" stroke="#141414" stroke-width="1.663"/><path clip-rule="evenodd" d="M20.094 30.798c-3.476-6.003-5.843-12.081-6.83-17.125-1.19-6.078-.35-10.724 2.045-12.11 2.496-1.445 7.217.23 12.17 4.629 3.745 3.325 7.59 8.326 10.89 14.026 3.383 5.844 5.918 11.765 6.905 16.747 1.248 6.306.238 11.123-2.21 12.54-2.375 1.375-6.721-.08-11.355-4.068-3.916-3.37-8.105-8.576-11.615-14.64v.001z" stroke="#141414" stroke-width="1.663"/><path d="M79.841 29.366l5.817 8.788-2.24-.011-5.833-9.094-.148-.23h-5.453v9.323h-1.92V15.68h8.927c2.039 0 3.748.654 4.943 1.782 1.192 1.125 1.91 2.757 1.91 4.789 0 1.998-.677 3.508-1.7 4.553-1.028 1.05-2.434 1.656-3.93 1.788l-.837.074.464.7zm-7.355-2.097h5.656v.003h.5c1.503 0 2.803-.506 3.73-1.403.927-.898 1.449-2.158 1.449-3.602s-.522-2.695-1.451-3.584c-.928-.888-2.227-1.384-3.728-1.384h-6.656v9.97h.5zm32.354 3.257H91.053l.035.533c.226 3.422 2.661 6.34 6.62 6.34 1.864 0 3.762-.672 5.173-1.894l.671.914c-1.457 1.312-3.351 2.067-5.644 2.153v-.005h-.448c-2.391 0-4.422-.856-5.855-2.319-1.434-1.462-2.298-3.562-2.298-6.102 0-4.687 3.33-8.4 7.87-8.4 2.428 0 4.328.942 5.628 2.467 1.307 1.534 2.035 3.69 2.035 6.144v.17zm-2.1-.937h.507l-.007-.507c-.019-1.366-.482-2.896-1.474-4.095-1.003-1.212-2.533-2.063-4.62-2.063-3.987 0-5.907 3.38-6.056 6.138l-.029.527h11.679zm8.062-4.486l-.661-.982c1.67-1.604 3.637-2.377 6.144-2.377 1.729 0 3.251.392 4.33 1.22 1.057.814 1.747 2.092 1.747 4.015v11.178l-1.636-.001v-2.728l-.87.958c-1.302 1.433-3.098 2.193-5.259 2.193-2.696 0-5.447-1.79-5.447-5.13 0-1.75.699-3.006 1.709-3.834 1.023-.839 2.393-1.259 3.738-1.259 2.211 0 3.994.7 5.251 2.15l.878 1.013v-4.4c0-1.291-.523-2.334-1.411-3.042-.875-.7-2.068-1.046-3.381-1.046-1.99 0-3.646.665-5.132 2.072zm9.924 6.766v-.162l-.095-.131c-1.141-1.573-3.108-2.318-5.084-2.318-1.335 0-2.506.42-3.349 1.173-.848.757-1.338 1.826-1.338 3.056 0 2.321 1.762 3.973 4.187 4.173v.022h.5c1.976 0 3.945-.747 5.084-2.318l.095-.132V31.87zm19.422-6.785c-1.162-1.37-2.637-1.98-4.373-1.98-1.948 0-3.556.752-4.671 2.031-1.109 1.273-1.702 3.032-1.702 5.01 0 1.98.592 3.747 1.7 5.028 1.114 1.288 2.722 2.05 4.673 2.05 1.73 0 3.199-.642 4.367-1.985l1.02.938c-1.122 1.31-2.638 2.275-5.044 2.392h-.499c-4.756 0-7.978-3.597-7.978-8.42 0-4.789 3.222-8.4 7.978-8.4 2.699 0 4.347 1.004 5.543 2.403l-1.014.933zm9.685 13.496h-.187c-1.052-.034-1.785-.357-2.265-.875-.515-.554-.812-1.408-.812-2.598V23.491h-2.815v-1.323h2.815v-4.643h1.639v4.643h3.449v1.321h-3.449v11.053c0 .699.154 1.362.525 1.863.386.522.97.819 1.699.819a3.25 3.25 0 001.571-.405l.402 1.023c-.556.428-1.338.738-2.572.738z" fill="#141414" stroke="#141414"/></svg>