<svg width="167" height="54" viewBox="0 0 167 54" fill="none" xmlns="http://www.w3.org/2000/svg"><path d="M90.905 16.68c0 1.338-1.08 2.531-2.488 2.531-1.08 0-2.018.287-2.816.908-.891.573-1.596 1.384-2.159 2.291-1.126 1.528-1.688 3.342-1.924 4.01v9.071c0 1.385-1.173 2.53-2.58 2.53a2.485 2.485 0 01-1.754-.746 2.571 2.571 0 01-.734-1.784v-18.81a2.484 2.484 0 012.487-2.482c1.408 0 2.581 1.098 2.581 2.482v.335c.282-.335.654-.716.986-.955 1.549-1.05 3.566-1.91 5.913-1.862a2.456 2.456 0 012.488 2.482zm-1.378 9.406c.047-6.493 5.022-11.935 11.45-11.935 6.102 0 10.932 4.63 11.311 11.075v.239c0 .096 0 .334-.047.43-.145 1.145-1.127 1.91-2.441 1.91H94.877c.234 1.098.75 2.339 1.595 3.15.986 1.147 2.863 2.005 4.505 2.148 1.69.143 3.705-.286 4.881-1.193.986-1.05 2.91-.907 3.52-.148.61.665 1.079 2.102 0 3.104-2.3 2.148-5.069 3.151-8.401 3.151-6.429-.047-11.403-5.442-11.45-11.935v.004zm5.115-2.34h13.281c-.469-1.91-2.863-4.726-6.946-5.06-3.988.19-5.956 3.103-6.335 5.06zM136.2 35.444c0 1.384-1.126 2.578-2.535 2.578-1.271 0-2.252-.907-2.487-2.053-1.78 1.242-4.036 2.053-6.383 2.053-6.335 0-11.404-5.442-11.404-11.887 0-6.541 5.069-11.984 11.404-11.984 2.3 0 4.552.764 6.289 2.005V7.18a2.586 2.586 0 012.581-2.578c1.408 0 2.534 1.193 2.534 2.578v28.263h.001zm-11.404-16.09c-1.689 0-3.238.717-4.411 1.958-1.173 1.194-1.877 2.912-1.877 4.822 0 1.81.703 3.533 1.877 4.726 1.173 1.241 2.722 1.958 4.411 1.958 1.736 0 3.238-.716 4.411-1.958 1.173-1.193 1.878-2.912 1.878-4.726 0-1.91-.704-3.628-1.878-4.822-1.173-1.241-2.675-1.957-4.411-1.957zm20.337-11.17c0 1.432-1.079 2.625-2.535 2.625-1.408 0-2.534-1.193-2.534-2.626V7.18a2.583 2.583 0 01.739-1.826 2.485 2.485 0 011.795-.752c1.456 0 2.535 1.145 2.535 2.578v1.003zm0 8.644v18.62c0 1.432-1.079 2.578-2.535 2.578a2.484 2.484 0 01-.971-.193 2.529 2.529 0 01-.824-.56 2.582 2.582 0 01-.739-1.825v-18.62c0-1.527 1.126-2.626 2.534-2.626 1.456 0 2.535 1.099 2.535 2.626zm3.223 14.367c.844-1.145 2.487-1.288 3.519-.381 1.221 1.05 3.333 2.148 5.163 2.1 1.271 0 2.44-.429 3.191-.907.654-.572.845-1.05.845-1.432a.728.728 0 00-.141-.478c-.047-.143-.235-.334-.61-.572-.654-.478-2.065-1.003-3.754-1.338h-.048c-1.455-.286-2.863-.665-4.083-1.241-1.271-.62-2.397-1.48-3.238-2.768-.516-.86-.798-1.91-.798-3.008 0-2.196 1.221-4.058 2.769-5.252 1.643-1.145 3.614-1.765 5.773-1.765 3.238 0 5.538 1.575 7.04 2.625 1.126.764 1.454 2.34.75 3.533a2.453 2.453 0 01-3.472.665c-1.502-1.003-2.816-1.767-4.322-1.767-1.173 0-2.206.382-2.816.86-.61.43-.751.859-.751 1.098 0 .19 0 .238.094.381.047.096.188.287.517.478.61.43 1.83.859 3.426 1.146l.047.048h.047c1.549.285 3.003.715 4.365 1.384 1.271.572 2.534 1.48 3.332 2.816.563.955.891 2.053.891 3.152 0 2.339-1.271 4.296-2.956 5.541a10.557 10.557 0 01-6.102 1.91c-3.66-.048-6.476-1.766-8.353-3.294-1.033-.859-1.173-2.482-.329-3.533h.004zM59.359 41.531c-3.297 1.748-20.376 8.892-24.012 10.82-3.636 1.928-5.656 1.91-8.528.514C23.947 51.468 5.772 44 2.498 42.407.86 41.612 0 40.94 0 40.306v-6.352s23.66-5.24 27.481-6.634c3.82-1.395 5.145-1.441 8.396-.233 3.25 1.208 22.688 4.779 25.9 5.976v6.262c0 .628-.742 1.317-2.42 2.206z" fill="#141414"/><path d="M59.358 35.178c-3.296 1.747-20.375 8.891-24.011 10.82-3.636 1.927-5.656 1.91-8.528.513-2.873-1.397-21.048-8.866-24.321-10.457-3.274-1.591-3.343-2.688-.127-3.969l25.111-9.89c3.82-1.393 5.145-1.44 8.396-.233 3.25 1.209 20.228 8.086 23.44 9.283 3.212 1.197 3.337 2.184.036 3.933h.004z" fill="#fff"/><path d="M59.359 31.173c-3.297 1.748-20.376 8.891-24.012 10.82-3.636 1.93-5.656 1.91-8.528.513-2.872-1.397-21.047-8.865-24.321-10.457C.86 31.253 0 30.583 0 29.95v-6.354s23.66-5.24 27.481-6.634c3.82-1.394 5.145-1.44 8.396-.233 3.25 1.208 22.688 4.779 25.9 5.976v6.263c0 .628-.742 1.317-2.42 2.206z" fill="#141414"/><path d="M59.358 24.819c-3.296 1.748-20.375 8.892-24.011 10.82-3.636 1.93-5.656 1.91-8.528.513-2.873-1.397-21.048-8.865-24.321-10.457-3.274-1.591-3.343-2.687-.127-3.968l25.111-9.89c3.82-1.394 5.145-1.44 8.396-.233 3.25 1.208 20.228 8.085 23.44 9.283 3.212 1.197 3.337 2.184.036 3.932h.004z" fill="#fff"/><path d="M59.359 20.431c-3.297 1.748-20.376 8.892-24.012 10.825-3.636 1.932-5.656 1.909-8.528.512-2.872-1.397-21.047-8.865-24.321-10.457C.86 20.515 0 19.845 0 19.211v-6.353S23.66 7.614 27.481 6.22c3.82-1.394 5.145-1.44 8.396-.233 3.25 1.208 22.688 4.778 25.9 5.976v6.262c0 .628-.742 1.317-2.42 2.206z" fill="#141414"/><path d="M59.358 14.077c-3.296 1.748-20.375 8.892-24.011 10.82-3.636 1.93-5.656 1.91-8.528.513-2.873-1.396-21.048-8.865-24.321-10.456-3.274-1.592-3.343-2.688-.127-3.97l25.111-9.889c3.82-1.394 5.145-1.44 8.396-.233 3.25 1.208 20.228 8.085 23.44 9.283 3.212 1.197 3.337 2.184.036 3.932h.004z" fill="#141414"/><path d="M33.631 8.523l-1.199 2.935-1.937-3.274-6.181-.565 4.612-1.693-1.38-2.597 4.317 1.719 4.073-1.356-1.102 2.685 4.15 1.58-5.353.566zm-11.51 9.451l14.315-2.235-4.323 6.45-9.993-4.215zm-3.859-2.35c4.226 0 7.652-1.35 7.652-3.017 0-1.666-3.426-3.017-7.652-3.017s-7.651 1.35-7.651 3.017c0 1.666 3.425 3.017 7.651 3.017zm35.521-3.456l-8.467 3.4-.005-6.808 8.472 3.408z" fill="#fff"/><path d="M45.312 8.76l.004 6.808-.917.368-8.462-3.405 9.375-3.772z" fill="#fff"/></svg>