<svg width="87" height="44" viewBox="0 0 87 44" fill="none" xmlns="http://www.w3.org/2000/svg"><path fill-rule="evenodd" clip-rule="evenodd" d="M.858 43.105H44.39L86.961.053H.858v43.052z" fill="#141414"/><path fill-rule="evenodd" clip-rule="evenodd" d="M51.965 8.134H43.48v20.358L36.088 8.134h-7.342l-6.304 17.052c-.674-4.302-5.058-5.771-8.535-6.873-2.283-.735-4.695-1.837-4.67-3.043.027-.997 1.298-1.915 3.84-1.758 1.686.079 3.19.236 6.2 1.679l2.958-5.195c-2.75-1.39-6.512-2.282-9.599-2.282h-.026c-3.606 0-6.615 1.18-8.483 3.122a7.273 7.273 0 00-2.024 4.985c-.051 2.623.908 4.486 2.906 5.981 1.686 1.26 3.84 2.073 5.76 2.676 2.36.735 4.28 1.364 4.254 2.755 0 .498-.208.97-.545 1.338-.597.603-1.479.84-2.724.865-2.413.053-4.177-.34-7.03-2.02l-2.62 5.247c2.827 1.627 6.174 2.598 9.598 2.598h.441c2.957-.053 5.37-.919 7.29-2.467.104-.078.207-.183.311-.262l-.856 2.283h7.705l1.297-3.962c1.35.446 2.88.708 4.514.708a14.67 14.67 0 004.41-.682l1.245 3.936h12.556V26.55h2.724c6.616 0 10.533-3.41 10.533-9.13 0-6.349-3.813-9.287-11.907-9.287zM32.377 25.58c-.986 0-1.92-.184-2.724-.499l2.698-8.578h.052l2.646 8.605c-.804.314-1.686.472-2.672.472zm20.08-4.932H50.59v-6.9h1.867c2.49 0 4.462.84 4.462 3.41.027 2.676-1.971 3.49-4.462 3.49z" fill="#fff"/><path d="M54.87 40.298c0-1.312.986-2.309 2.257-2.309 1.245 0 2.231.997 2.231 2.309 0 1.364-.986 2.36-2.231 2.36-1.271 0-2.257-.996-2.257-2.36zm2.257 2.807c1.505 0 2.776-1.18 2.776-2.807 0-1.6-1.297-2.781-2.776-2.781-1.53 0-2.802 1.18-2.802 2.78 0 1.627 1.271 2.808 2.802 2.808zm-.597-2.571h.545l.856 1.39h.545l-.908-1.416c.467-.053.83-.315.83-.893 0-.63-.363-.918-1.115-.918h-1.194v3.227h.467v-1.39h-.026zm0-.42v-.997h.649c.337 0 .674.079.674.472 0 .499-.363.525-.752.525h-.57z" fill="#141414"/></svg>