<svg width="197" height="50" viewBox="0 0 197 50" fill="none" xmlns="http://www.w3.org/2000/svg"><path d="M41.505 14.688v6.439c-3.768-2.453-5.898-3.8-9.938-5.835 1.559 11.57-14.614 11.972-13.056-.604-4.01.598-6.173 1.212-9.84 2.918 9.132 8.027 14.925 10.998 29.91 5.734v1.61c-3.124 2.059-5.104 2.857-8.865 3.923-4.322 1.18-4.538 3.291-2.339 8.753h-2.533c-2.193-2.698-3.015-4.471-3.8-8.15C10.432 25.749 4.992 23.157 0 13.884c1.134.19 1.757.217 2.825 0 11.692-3.42 22.02-10.16 38.68.805z" fill="#141414"/><path fill-rule="evenodd" clip-rule="evenodd" d="M79.696 12.475c.687.87.84 1.723.877 3.622V50l5.067-1.107V37.726C107.755 50 107.269-.1 85.64 14.084v-2.917l-5.944 1.308zm5.944 7.378v12.071a.84.84 0 00.289.622c15.016 12.833 14.72-27.869-.041-13.278a.85.85 0 00-.249.585z" fill="#141414"/><path d="M108.438 4.427c-.194-1.456-.415-2.231-1.072-3.522L112.725 0c.67 1.117.848 1.812.974 3.119v11.267c5.456-5.03 14.029-3.118 15.004 2.717v22.132h-5.359V18.612c0-3.119-4.481-3.622-9.645 1.71v18.913h-5.261V4.427zm27.474 34.607v-26.76l5.846-1.107v27.867h-5.846zm6.82-34.507c0 2.167-1.701 3.924-3.799 3.924-2.099 0-3.8-1.757-3.8-3.924s1.701-3.923 3.8-3.923c2.098 0 3.799 1.756 3.799 3.923zm6.431 13.28c.106-2.718-.124-3.786-1.072-4.83l5.359-1.609c.432.566.682 1.072 1.169 3.018 5.456-5.835 14.517-1.81 14.517 3.42v21.329h-5.456V18.712c0-3.219-3.8-3.923-9.061.704v19.719h-5.456V17.807zm30.3-5.735h-6.235l7.794 11.972-9.646 14.89h6.625l6.138-10.06 6.236 10.06H197l-9.743-14.89 7.405-11.972h-6.138l-4.385 7.445-4.676-7.445zM71.707 8.964L74.24 4.94C66.154-.996 51.734-.593 51.15 11.58c0 5.053 1.41 8.244 9.996 10.59 2.146.587 4.49.982 6.049 2.615 4.83 5.06-1.34 14.725-14.876 6.11l-2.533 5.031c6.004 3.26 12.002 4.235 17.18 2.521 3.385-1.12 6.208-3.854 7.33-7.337 2.072-6.44-1.693-12.523-13.403-15.506-8.574-2.917-2.923-15.09 10.814-6.64z" fill="#141414"/></svg>