<svg width="225" height="56" viewBox="0 0 225 56" fill="none" xmlns="http://www.w3.org/2000/svg"><path d="M28.672 55.768c15.4 0 27.884-12.484 27.884-27.884S44.072 0 28.672 0 .788 12.484.788 27.884s12.484 27.884 27.884 27.884z" fill="#141414"/><path d="M40.863 10.318c-2.832.099-5.306 1.66-7.145 3.82-2.04 2.368-3.394 5.178-4.372 8.045-1.747-1.433-3.095-3.286-5.898-4.095-2.168-.623-4.443-.366-6.536 1.193-.992.741-1.675 1.86-2 2.913-.842 2.735.884 5.17 1.668 6.045l1.714 1.833c.353.361 1.203 1.3.788 2.647-.45 1.465-2.214 2.411-4.024 1.854-.809-.25-1.971-.851-1.71-1.697.107-.348.356-.61.49-.906.122-.259.18-.451.216-.565.331-1.08-.12-2.485-1.277-2.841-1.08-.33-2.182-.068-2.61 1.32-.487 1.58.269 4.442 4.315 5.69 4.74 1.458 8.75-1.125 9.318-4.49.358-2.108-.595-3.676-2.338-5.691l-1.421-1.57c-.861-.862-1.156-2.327-.266-3.452.752-.95 1.822-1.356 3.577-.88 2.56.693 3.7 2.47 5.604 3.903-.786 2.578-1.3 5.166-1.764 7.488l-.285 1.728c-1.362 7.138-2.4 11.057-5.1 13.307-.543.388-1.322.966-2.493 1.007-.615.02-.813-.403-.823-.588-.013-.431.351-.629.593-.823.36-.197.905-.523.869-1.567-.041-1.238-1.064-2.308-2.542-2.258-1.11.037-2.797 1.079-2.734 2.99.066 1.97 1.903 3.45 4.675 3.354 1.482-.048 4.79-.651 8.049-4.526 3.793-4.443 4.855-9.536 5.653-13.263l.89-4.92c.496.059 1.024.1 1.6.113 4.726.1 7.089-2.348 7.126-4.128.022-1.077-.708-2.137-1.73-2.113-.732.02-1.652.507-1.872 1.518-.216.994 1.504 1.89.16 2.76-.955.62-2.666 1.055-5.076.701l.439-2.423c.893-4.593 1.998-10.243 6.182-10.379.305-.015 1.422.014 1.448.751.007.247-.054.31-.342.874-.295.44-.405.814-.392 1.245.041 1.172.932 1.943 2.223 1.897 1.725-.056 2.222-1.736 2.194-2.6-.072-2.031-2.211-3.313-5.041-3.221z" fill="#fff"/><path d="M169.855 20.039c6.43 0 10.74 4.646 10.74 11.072 0 6.057-4.394 11.072-10.74 11.072-6.385 0-10.78-5.015-10.78-11.072 0-6.426 4.309-11.072 10.78-11.072zm0 18.997c4.562 0 6.592-4.148 6.592-7.925 0-4.02-2.446-7.918-6.592-7.918-4.188 0-6.636 3.897-6.636 7.918 0 3.777 2.034 7.925 6.636 7.925zM158.54 22.008v-1.471h-5.6v-2.01c0-2.863.416-5.022 3.773-5.022.061 0 .127.006.191.009.007 0 .005-.011.013-.011.932.068 1.709-.69 1.761-1.622l.067-1.277c-.788-.126-1.619-.249-2.612-.249-5.764 0-7.091 3.36-7.091 8.503v1.679h-4.981v1.642a1.768 1.768 0 001.746 1.507c.004 0 .009.004.014.004h3.221v17.998h2.153c.894 0 1.623-.673 1.744-1.53V23.69h3.9a1.767 1.767 0 001.701-1.682zm-51.926-1.471c-.006 0-.011.005-.02.005-.821 0-1.617.564-1.964 1.328l-5.363 16.169h-.084l-5.245-16.161c-.344-.768-1.142-1.337-1.969-1.337-.01 0-.013-.005-.02-.005h-2.72l7.175 19.74c.25.707.75 1.786.75 2.24 0 .417-1.163 5.224-4.649 5.224-.085 0-.172-.01-.257-.016-.889-.048-1.56.573-1.708 1.53l-.107 1.35c.706.123 1.413.29 2.656.29 5.142 0 6.677-4.69 8.13-8.752l7.794-21.607h-2.399v.002zm-24.78 4.296c-3.219-1.647-6.742-2.767-6.804-6.08.01-3.52 3.245-4.444 5.736-4.441.012-.002.021-.002.027-.002 1.083 0 1.948.107 2.794.293.01 0 .009-.014.022-.014.894.065 1.644-.633 1.748-1.513l.071-1.279c-1.634-.405-3.341-.612-4.827-.612-5.419.033-9.443 2.76-9.456 7.964.007 4.55 3.072 6.313 6.372 7.91 3.234 1.555 6.775 2.839 6.806 6.594-.018 3.917-3.799 5.36-6.404 5.366-1.524-.006-3.178-.384-4.572-.824-.873-.144-1.59.627-1.704 1.647l-.117 1.138c1.916.619 3.88 1.16 5.856 1.16h.021c6.071-.045 10.79-2.465 10.808-8.752-.006-4.85-3.095-6.886-6.377-8.555zm58.959 16.855h.005c.841 0 1.544-.592 1.72-1.38V28.127c0-4.604-1.945-8.089-7.34-8.089-1.907 0-5.1 1.08-6.552 4.107-1.118-2.861-3.566-4.107-6.01-4.107-3.112 0-5.228 1.12-6.72 3.568h-.084v-1.315a1.767 1.767 0 00-1.765-1.75c-.009 0-.013-.005-.019-.005h-1.864v21.151h2.115a1.77 1.77 0 001.768-1.769c0-.027.009-.037.018-.055v-8.835c0-3.938 1.574-7.836 5.554-7.836 3.15 0 3.777 3.275 3.777 5.888v12.606h2.144c.924 0 1.668-.71 1.751-1.612v-9.046c0-3.938 1.577-7.836 5.557-7.836 3.152 0 3.775 3.275 3.775 5.888v12.606h2.17v.002zm60.243 0h.005c.95 0 1.716-.75 1.761-1.692V29.122c0-5.68-2.45-9.084-7.924-9.084-2.944 0-5.762 1.453-6.926 3.86h-.082v-1.58c0-.002-.004-.002-.004-.006 0-.98-.793-1.771-1.767-1.771-.011 0-.013-.005-.02-.005h-1.984v21.151h2.146c.928 0 1.68-.722 1.751-1.632V31.9c0-5.141 1.993-8.707 6.43-8.707 3.404.205 4.477 2.61 4.477 7.546v10.948h2.137v.002zm20.986-21.151c-.01 0-.014.005-.022.005-.821 0-1.618.564-1.965 1.328l-5.361 16.169h-.087l-5.247-16.161c-.343-.768-1.142-1.337-1.966-1.337-.008 0-.013-.005-.02-.005h-2.719l7.176 19.74c.248.707.75 1.786.75 2.24 0 .417-1.164 5.224-4.65 5.224-.084 0-.17-.01-.257-.016-.889-.048-1.558.573-1.711 1.53l-.104 1.35c.704.123 1.412.29 2.657.29 5.141 0 6.675-4.69 8.129-8.752l7.797-21.607h-2.4v.002z" fill="#141414"/></svg>