<svg width="205" height="51" viewBox="0 0 205 51" fill="none" xmlns="http://www.w3.org/2000/svg"><path d="M25.569 50.895c14.054 0 25.447-11.394 25.447-25.448S39.623 0 25.57 0C11.515 0 .122 11.393.122 25.447c0 14.055 11.393 25.448 25.447 25.448z" fill="#141414"/><path d="M36.694 9.416c-2.584.09-4.842 1.515-6.52 3.486-1.861 2.161-3.098 4.726-3.99 7.342-1.594-1.307-2.824-2.999-5.382-3.737-1.98-.568-4.055-.334-5.965 1.09-.906.675-1.528 1.697-1.825 2.657-.769 2.496.806 4.718 1.522 5.517l1.564 1.673c.323.33 1.098 1.187.72 2.415-.411 1.337-2.021 2.201-3.674 1.693-.738-.229-1.798-.777-1.56-1.55.098-.317.325-.555.447-.826.112-.236.164-.412.198-.515.302-.986-.11-2.268-1.166-2.594-.985-.3-1.992-.061-2.382 1.205-.444 1.442.245 4.054 3.938 5.194 4.326 1.33 7.985-1.028 8.503-4.099.328-1.923-.543-3.354-2.133-5.193l-1.297-1.433c-.786-.786-1.055-2.123-.243-3.15.687-.868 1.663-1.238 3.265-.804 2.336.633 3.377 2.255 5.114 3.563-.717 2.352-1.186 4.714-1.61 6.833l-.26 1.578c-1.243 6.514-2.19 10.09-4.654 12.143-.496.354-1.206.882-2.275.92-.561.017-.742-.369-.75-.537-.014-.394.32-.574.54-.751.329-.18.826-.478.793-1.43-.037-1.13-.971-2.107-2.32-2.061-1.013.034-2.553.984-2.495 2.729.06 1.798 1.737 3.148 4.266 3.06 1.353-.044 4.371-.594 7.346-4.13 3.462-4.055 4.43-8.703 5.16-12.104l.812-4.49c.452.054.934.091 1.46.103 4.312.092 6.469-2.142 6.502-3.767.021-.983-.645-1.95-1.579-1.929-.667.02-1.506.463-1.708 1.386-.196.907 1.373 1.725.146 2.52-.87.564-2.433.961-4.632.639l.4-2.211c.816-4.192 1.824-9.348 5.643-9.472.278-.015 1.297.012 1.32.685.007.225-.048.283-.311.798-.27.4-.37.742-.358 1.135.038 1.07.85 1.774 2.028 1.732 1.575-.052 2.028-1.585 2.003-2.373-.065-1.854-2.018-3.024-4.6-2.94z" fill="#fff"/><path d="M154.414 18.288c5.869 0 9.802 4.24 9.802 10.105 0 5.527-4.01 10.103-9.802 10.103-5.827 0-9.837-4.576-9.837-10.103 0-5.866 3.932-10.105 9.837-10.105zm0 17.337c4.163 0 6.016-3.786 6.016-7.232 0-3.67-2.232-7.227-6.016-7.227-3.822 0-6.056 3.557-6.056 7.227 0 3.446 1.856 7.232 6.056 7.232zm-10.325-15.541v-1.342h-5.111v-1.835c0-2.611.38-4.582 3.443-4.582.056 0 .116.005.175.008.006 0 .004-.01.012-.01.85.062 1.559-.63 1.606-1.48l.062-1.166c-.719-.114-1.478-.227-2.385-.227-5.26 0-6.47 3.066-6.47 7.76v1.532h-4.546v1.498a1.613 1.613 0 001.593 1.377l.013.003h2.94v16.425h1.964c.816 0 1.481-.615 1.592-1.397V21.62h3.559a1.613 1.613 0 001.553-1.536zM96.7 18.742c-.005 0-.01.005-.019.005-.748 0-1.474.514-1.792 1.212l-4.894 14.756h-.076l-4.787-14.75c-.314-.7-1.043-1.22-1.797-1.22-.01 0-.012-.004-.02-.004h-2.48l6.547 18.016c.229.644.684 1.629.684 2.043 0 .38-1.06 4.768-4.242 4.768-.078 0-.157-.009-.234-.014-.812-.045-1.424.522-1.56 1.395l-.097 1.232c.644.113 1.29.266 2.424.266 4.692 0 6.093-4.28 7.42-7.988L98.89 18.74H96.7v.002zm-22.615 3.921c-2.937-1.503-6.152-2.525-6.209-5.55.01-3.21 2.961-4.055 5.234-4.052.011-.002.02-.002.026-.002.988 0 1.778.098 2.549.268.01 0 .008-.013.02-.013.816.06 1.5-.578 1.595-1.38l.066-1.167c-1.492-.37-3.05-.56-4.406-.56-4.945.031-8.617 2.52-8.629 7.269.005 4.151 2.803 5.76 5.814 7.218 2.952 1.42 6.184 2.59 6.212 6.018-.017 3.575-3.467 4.892-5.844 4.897-1.391-.005-2.9-.35-4.173-.752-.797-.132-1.45.572-1.555 1.503l-.107 1.039c1.749.565 3.541 1.059 5.344 1.059h.02c5.54-.041 9.846-2.25 9.864-7.988-.007-4.425-2.825-6.284-5.821-7.807zm53.807 15.382h.005a1.61 1.61 0 001.569-1.26V25.67c0-4.202-1.775-7.382-6.698-7.382-1.741 0-4.654.986-5.979 3.748-1.021-2.611-3.255-3.748-5.486-3.748-2.84 0-4.771 1.021-6.132 3.256h-.076v-1.2a1.613 1.613 0 00-1.611-1.597c-.008 0-.012-.005-.017-.005h-1.702v19.303h1.93c.892 0 1.614-.724 1.614-1.614 0-.025.008-.034.016-.05v-8.064c0-3.594 1.437-7.151 5.069-7.151 2.875 0 3.447 2.989 3.447 5.374v11.504h1.957c.843 0 1.522-.648 1.597-1.471v-8.256c0-3.594 1.44-7.151 5.072-7.151 2.876 0 3.445 2.989 3.445 5.374v11.504h1.98v.002zm54.978 0h.004c.868 0 1.567-.685 1.608-1.544v-9.924c0-5.184-2.236-8.29-7.232-8.29-2.686 0-5.258 1.326-6.321 3.523h-.074v-1.443c0-.002-.004-.002-.004-.005 0-.895-.724-1.616-1.612-1.616-.01 0-.012-.005-.018-.005h-1.812v19.303h1.959a1.61 1.61 0 001.599-1.49v-7.443c0-4.692 1.818-7.946 5.867-7.946 3.107.188 4.086 2.381 4.086 6.887v9.991h1.95v.002zm19.153-19.303c-.01 0-.013.005-.02.005-.75 0-1.477.514-1.793 1.212l-4.893 14.756h-.08l-4.788-14.75c-.313-.7-1.042-1.22-1.795-1.22-.007 0-.011-.004-.018-.004h-2.481l6.549 18.016c.226.644.684 1.629.684 2.043 0 .38-1.061 4.768-4.243 4.768-.077 0-.155-.009-.235-.014-.811-.045-1.421.522-1.561 1.395l-.095 1.232c.642.113 1.289.266 2.425.266 4.692 0 6.091-4.28 7.418-7.988l7.116-19.719h-2.19v.002z" fill="#141414"/></svg>