<svg width="237" height="65" viewBox="0 0 237 65" fill="none" xmlns="http://www.w3.org/2000/svg"><circle cx="33.481" cy="32.5" r="32.5" fill="#141414"/><path d="M28.929 37.258l-.605 8.507c.865 0 1.24-.372 1.69-.819l4.057-3.877 8.406 6.157c1.542.859 2.628.406 3.044-1.419l5.517-25.856.002-.001c.49-2.28-.824-3.17-2.326-2.611L16.28 29.756c-2.214.86-2.18 2.093-.377 2.653l8.293 2.579 19.26-12.052c.907-.6 1.731-.268 1.053.332l-15.58 13.99z" fill="#fff"/><path d="M105.409 23.367h-8.283v23.817h-3.38V23.367H85.48v-2.9h19.928v2.9zm10.03 24.183c-2.596 0-4.708-.88-6.336-2.642-1.628-1.773-2.442-4.14-2.442-7.1v-.624c0-1.97.359-3.725 1.079-5.267.732-1.553 1.746-2.764 3.044-3.633 1.31-.88 2.726-1.32 4.248-1.32 2.489 0 4.424.85 5.805 2.55 1.38 1.7 2.07 4.134 2.07 7.302v1.413h-12.972c.047 1.958.595 3.542 1.646 4.753 1.061 1.198 2.406 1.798 4.035 1.798 1.156 0 2.135-.245 2.938-.734a7.483 7.483 0 002.106-1.945l1.999 1.615c-1.604 2.556-4.011 3.834-7.22 3.834zm-.407-17.798c-1.322 0-2.431.502-3.328 1.505-.896.99-1.451 2.385-1.663 4.183h9.592v-.256c-.094-1.725-.543-3.059-1.345-4-.802-.955-1.888-1.432-3.256-1.432zm15.781 17.432h-3.274V19h3.274v28.184zm13.747.366c-2.596 0-4.708-.88-6.336-2.642-1.628-1.773-2.443-4.14-2.443-7.1v-.624c0-1.97.36-3.725 1.08-5.267.732-1.553 1.746-2.764 3.044-3.633 1.31-.88 2.726-1.32 4.248-1.32 2.489 0 4.424.85 5.805 2.55 1.38 1.7 2.07 4.134 2.07 7.302v1.413h-12.972c.047 1.958.595 3.542 1.646 4.753 1.061 1.198 2.406 1.798 4.035 1.798 1.156 0 2.135-.245 2.938-.734a7.483 7.483 0 002.106-1.945l1.999 1.615c-1.604 2.556-4.011 3.834-7.22 3.834zm-.407-17.798c-1.322 0-2.431.502-3.328 1.505-.896.99-1.451 2.385-1.663 4.183h9.592v-.256c-.094-1.725-.543-3.059-1.345-4-.802-.955-1.888-1.432-3.256-1.432zm11.445 7.34c0-3.095.691-5.554 2.071-7.376 1.38-1.835 3.209-2.753 5.486-2.753 2.336 0 4.159.857 5.469 2.57l.159-2.203h2.991v19.376c0 2.57-.737 4.594-2.212 6.074-1.463 1.48-3.433 2.22-5.911 2.22-1.381 0-2.732-.306-4.053-.917-1.321-.612-2.33-1.45-3.026-2.514l1.699-2.037c1.404 1.798 3.12 2.697 5.15 2.697 1.593 0 2.831-.465 3.716-1.394.897-.93 1.345-2.239 1.345-3.927v-1.706c-1.309 1.566-3.097 2.349-5.362 2.349-2.242 0-4.059-.936-5.451-2.808-1.38-1.871-2.071-4.422-2.071-7.651zm3.292.385c0 2.239.443 4 1.327 5.285.885 1.272 2.124 1.908 3.717 1.908 2.065 0 3.581-.973 4.548-2.918v-9.064c-1.002-1.896-2.507-2.844-4.513-2.844-1.592 0-2.837.642-3.734 1.927-.897 1.284-1.345 3.186-1.345 5.706zm27.639-7.101a9.464 9.464 0 00-1.61-.128c-2.147 0-3.605.948-4.371 2.844v14.092h-3.275V27.33h3.186l.053 2.294c1.074-1.774 2.596-2.66 4.566-2.66.637 0 1.121.085 1.451.256v3.156zm14.685 16.808c-.189-.392-.342-1.09-.46-2.092-1.522 1.639-3.339 2.459-5.451 2.459-1.888 0-3.44-.551-4.655-1.652-1.203-1.113-1.805-2.52-1.805-4.22 0-2.067.755-3.67 2.265-4.807 1.522-1.15 3.658-1.725 6.407-1.725h3.186v-1.56c0-1.186-.343-2.128-1.027-2.826-.684-.709-1.693-1.064-3.026-1.064-1.168 0-2.148.306-2.938.918-.791.611-1.186 1.351-1.186 2.22h-3.292c0-.991.337-1.945 1.009-2.863.684-.93 1.605-1.663 2.761-2.201 1.168-.539 2.448-.808 3.84-.808 2.207 0 3.935.575 5.186 1.725 1.251 1.138 1.899 2.71 1.947 4.716v9.137c0 1.823.224 3.273.672 4.349v.294h-3.433zm-5.433-2.588c1.026 0 1.999-.275 2.92-.825.92-.55 1.587-1.266 2-2.147V37.55h-2.567c-4.011 0-6.017 1.218-6.017 3.652 0 1.064.342 1.896 1.027 2.495.684.6 1.563.9 2.637.9zM212.73 27.33l.089 2.202c1.404-1.712 3.297-2.569 5.681-2.569 2.678 0 4.501 1.064 5.468 3.193a7.393 7.393 0 012.478-2.312c1.027-.587 2.236-.88 3.628-.88 4.201 0 6.336 2.305 6.407 6.917v13.303h-3.274V34.083c0-1.42-.313-2.477-.938-3.175-.625-.71-1.676-1.064-3.15-1.064-1.216 0-2.224.38-3.027 1.138-.802.746-1.268 1.755-1.398 3.027v13.175h-3.292v-13.01c0-2.886-1.362-4.33-4.088-4.33-2.147 0-3.616.948-4.407 2.844v14.495h-3.274V27.33h3.097z" fill="#141414"/></svg>