<svg width="188" height="66" viewBox="0 0 188 66" fill="none" xmlns="http://www.w3.org/2000/svg"><path d="M75.5 1L38 66 0 1h22l16.5 26.5L53.5 1h22z" fill="#141414"/><path d="M37.567 40.25L38 41l.433-.75 22.5-39 .433-.75H46.209l-.144.253L38 14.986 29.935.753 29.791.5H14.634l.433.75 22.5 39z" fill="#141414" stroke="#fff"/><path d="M104.26 20.8h4.428l-10.08 25.272H95.26L84.892 20.8h4.716l7.488 18.684L104.26 20.8zm16.45 9h4.14V46h-4.14v-1.98c-1.296 1.584-3.024 2.376-5.184 2.376-1.728 0-3.108-.576-4.14-1.728-1.032-1.152-1.548-2.808-1.548-4.968v-9.9h4.14v9.036c0 2.472 1.032 3.708 3.096 3.708 1.416 0 2.628-.66 3.636-1.98V29.8zm23.261 11.664l1.188 2.916c-1.608 1.344-3.672 2.016-6.192 2.016-2.592 0-4.704-.78-6.336-2.34-1.584-1.536-2.376-3.588-2.376-6.156 0-2.4.78-4.416 2.34-6.048 1.56-1.632 3.636-2.448 6.228-2.448 2.136 0 3.948.708 5.436 2.124 1.488 1.416 2.232 3.216 2.232 5.4 0 .96-.084 1.704-.252 2.232h-11.7c.168 1.176.684 2.1 1.548 2.772.888.672 1.992 1.008 3.312 1.008 1.8 0 3.324-.492 4.572-1.476zm-5.328-8.604c-2.352 0-3.768 1.176-4.248 3.528h7.956c.024-1.032-.312-1.872-1.008-2.52-.672-.672-1.572-1.008-2.7-1.008zm12.299 10.44c0-.696.264-1.308.792-1.836.552-.552 1.248-.828 2.088-.828.72 0 1.332.276 1.836.828.528.528.792 1.14.792 1.836 0 .792-.264 1.476-.792 2.052-.504.552-1.116.828-1.836.828-.84 0-1.536-.276-2.088-.828a2.934 2.934 0 01-.792-2.052zm12.066-13.5h4.14v17.388c0 4.2-1.692 6.3-5.076 6.3-1.752 0-3.072-.384-3.96-1.152l1.116-3.276c.6.384 1.212.576 1.836.576 1.296 0 1.944-.936 1.944-2.808V29.8zm-.396-5.832c0-.72.24-1.296.72-1.728.504-.456 1.128-.684 1.872-.684.648 0 1.2.228 1.656.684.48.456.72 1.032.72 1.728 0 .768-.24 1.392-.72 1.872a2.2 2.2 0 01-1.656.72c-.744 0-1.368-.24-1.872-.72-.48-.48-.72-1.104-.72-1.872zm11.058 10.368c0-1.512.552-2.712 1.656-3.6 1.104-.888 2.532-1.332 4.284-1.332 2.64 0 4.692.684 6.156 2.052l-1.548 2.952c-1.32-1.032-2.784-1.548-4.392-1.548-.576 0-1.056.144-1.44.432-.384.264-.576.588-.576.972 0 .792 1.02 1.452 3.06 1.98.744.168 1.404.36 1.98.576.576.192 1.164.48 1.764.864.624.36 1.104.84 1.44 1.44.336.6.504 1.296.504 2.088 0 1.584-.6 2.844-1.8 3.78-1.176.936-2.76 1.404-4.752 1.404-1.416 0-2.796-.3-4.14-.9-1.368-.624-2.244-1.248-2.628-1.872l2.016-2.7c.456.552 1.212 1.02 2.268 1.404 1.08.408 2.004.612 2.772.612.936.096 1.596-.204 1.98-.9.384-.72.132-1.308-.756-1.764-.36-.192-.924-.396-1.692-.612a55.942 55.942 0 01-2.088-.648c-.624-.24-1.272-.54-1.944-.9a4.156 4.156 0 01-1.548-1.476c-.384-.648-.576-1.416-.576-2.304z" fill="#141414"/></svg>