<svg width="217" height="74" viewBox="0 0 217 74" fill="none" xmlns="http://www.w3.org/2000/svg"><path d="M92.586 37.266h-8.08c9.934 4.106 8.345 3.178 10.464 15.63h3.841l4.636-9.14 1.722 9.14h3.974l7.682-15.63c-5.563 0-4.371 0-9.007 9.271l-1.722-9.271c-4.901-.53-3.974 1.986-7.947 9.271-1.06-6.622-1.562-8.615-5.563-9.271z" fill="#141414"/><path fill-rule="evenodd" clip-rule="evenodd" d="M121.196 46.14c.53 3.444 4.768 4.239 9.934 2.12l-.53 3.576c-5.695 3.443-14.57.662-13.643-6.756 1.855-12.318 18.412-9.934 15.498 1.192l-11.259-.132zm.265-2.65h7.02c.927-2.78-4.768-5.43-7.02 0zm21.06-12.317c-3.596-.285-4.629.418-4.901 3.046l-3.046 18.544h4.503l.265-1.855c5.828 4.901 11.789 1.457 13.511-5.033.927-7.682-6.358-11.656-11.656-6.888l1.324-7.814zm-2.103 12.642l-.382 2.367c-.102.633.13 1.288.644 1.671 9.297 6.937 10.756-12.514.456-5.207a1.801 1.801 0 00-.718 1.169zm16.806-6.549l-3.312 21.59c2.762.3 4.105.176 4.769-2.517l.794-5.563c15.499 12.025 19.43-22.548 1.987-11.789l.397-1.721h-4.635zm3.324 6.65l-.253 2.021c-.098.79.196 1.592.84 2.057 9.262 6.684 10.038-12.523.31-5.623-.504.357-.82.932-.897 1.545z" fill="#141414"/><path fill-rule="evenodd" clip-rule="evenodd" d="M177.886 37.928l-.529 3.709c5.563-2.252 9.404-.928 8.609 2.516-4.636-2.252-11.259-1.457-11.523 4.239 0 5.43 7.417 6.093 10.861 2.781.53 1.987 3.444 2.384 5.695 1.325l.53-3.047c-1.744.337-2.094-.159-1.854-1.986 3.046-9.537-2.649-12.451-11.789-9.537zm7.517 9.137l-.08.966a.534.534 0 01-.206.374c-6.919 5.286-9.461-5.258-.063-1.878.221.08.369.304.349.538z" fill="#141414"/><path d="M198.284 37.398h-4.768l4.636 14.835c-1.987 3.444-3.784 3.59-6.358 2.517l-.53 3.84c3.841 1.325 6.888.398 9.537-3.31L211 37.397h-3.444c-.989.137-1.46.41-2.119 1.324l-4.504 8.61-2.649-9.934zm-173.78-5.49L14.437 14.69l17.485 9.802-7.418 7.417zm17.484-12.45L36.822.384l-5.298 19.074h10.464zm7.152 12.45l-7.417-7.285 17.352-9.934-9.934 17.22zm5.034 10.067V31.378l24.504 5.299-24.504 5.298zm-5.034-.53l-7.417 7.285 17.352 10.2-9.934-17.485zm-7.152 12.451H31.524l5.43 19.073 5.034-19.073zm-10.066-4.901l-7.285-7.285-9.935 17.087 17.22-9.802zm-12.452-7.02V31.51L0 36.677l19.47 5.298z" fill="#141414"/></svg>