<svg width="107" height="59" viewBox="0 0 107 59" fill="none" xmlns="http://www.w3.org/2000/svg"><path fill-rule="evenodd" clip-rule="evenodd" d="M36.435 16.373C33.603 8.585 41.745.266 48.383 0c3.983 2.036 7.434 7.346 7.258 14.603-.532 8.94-6.992 16.64-13.984 23.72-.443-8.674-2.301-14.161-5.222-21.95zm70.007 25.313V16.019a.793.793 0 00-.796-.796h-3.717a.793.793 0 00-.797.796v25.578c0 .443.354.885.797.885h3.717a.793.793 0 00.796-.796zm-19.56.708V15.4c-2.123.088-5.31 1.416-5.31 4.248v18.498c-1.15.177-2.92.354-3.894.354-3.451 0-4.336-2.478-4.336-5.753V19.47c-.177-3.186-3.895-4.16-5.31-4.071v17.347c0 6.284 3.186 10.09 9.646 10.09.974 0 3.01-.266 3.895-.443v.354c.796 5.31-5.576 3.275-9.116 2.92-2.567 0-4.337 2.125-4.78 4.514 1.505.443 6.373 1.062 9.824 1.416 6.107-.088 9.382-3.451 9.382-9.204zm9.736-.708V16.019a.793.793 0 00-.796-.796h-3.717a.793.793 0 00-.797.796v25.578c0 .443.354.885.797.885h3.717a.793.793 0 00.796-.796zm-2.655-33.72a2.757 2.757 0 012.744 2.743 2.758 2.758 0 01-2.744 2.744 2.758 2.758 0 01-2.743-2.744c-.089-1.504 1.15-2.744 2.743-2.744zm9.824 0a2.757 2.757 0 012.744 2.743 2.758 2.758 0 01-2.744 2.744 2.757 2.757 0 01-2.743-2.744 2.757 2.757 0 012.743-2.744zM20.68 58.679c-1.15-8.674 2.479-16.108 6.108-20.622 7.788-9.735 7.346-15.577 6.549-20.533 4.071 6.372 6.638 14.072 7.257 20.887.266 5.487-3.805 18.41-19.913 20.268z" fill="#141414"/><path fill-rule="evenodd" clip-rule="evenodd" d="M15.105 25.578C3.334 22.392.413 12.214.945 5.398c11.416-4.513 23.807.09 30.888 9.825 4.956 6.815 8.142 15.488 8.762 23.1-3.452-4.425-7.789-6.992-13.276-8.94-3.717-1.415-7.258-2.3-12.214-3.805z" fill="#141414"/><path fill-rule="evenodd" clip-rule="evenodd" d="M33.337 17.436c.089.088.177.265.266.354l.088.177c.177.265.355.62.532.885v.088l.088.089v.088l.089.177.177.266c.088.177.265.442.354.708l.177.265.177.266v.088l.088.177.089.177.088.177c.089.177.177.354.266.62v.088l.53 1.062.09.266.088.177.088.177.089.088.088.177.089.177.088.266.177.354c.177.354.266.708.443 1.062l.088.266.089.177c.088.177.177.354.177.62v.088c.088.177.177.442.265.62v.088c.089.177.177.442.177.62v.088l.089.354.088.354.089.354.088.265v.089l.089.177c.088.177.088.354.177.62v.176l.088.266.266 1.062c.088.442.177.973.265 1.416v.089c.177.708.266 1.504.354 2.212 0 .266.089.443.089.708v1.505c-2.567-3.275-5.576-5.488-9.205-7.258 3.452-5.664 3.098-9.824 2.478-13.453z" fill="#141414"/></svg>