<svg width="188" height="35" viewBox="0 0 188 35" fill="none" xmlns="http://www.w3.org/2000/svg"><path d="M42.549 25.37h-1.515V8.705h-8.861v1.628c0 5.075-.19 10.983-1.932 15.035h-1.174v6.046h2.652v-3.622h8.179v3.622h2.652v-6.046h-.001zm12.839 1.136l-.681-2.273c-.759.53-2.084 1.288-3.752 1.288-2.347 0-3.558-2.272-3.558-6.59h7.953v-1.627c0-6.475-2.083-8.862-5.264-8.862-4.053 0-5.757 4.468-5.757 10.604 0 5.87 2.425 9.014 6.362 9.014 1.894 0 3.484-.606 4.696-1.553v-.001zm-30.942-17.8v8.105h-4.392V8.706H17.1v19.087h2.954v-8.558h4.393v8.558h2.915V8.706h-2.916zm41.926 19.087h3.218l-5.415-10.111 4.734-8.976h-2.995l-4.581 8.824V8.706h-2.955v19.087h2.955v-9.506l5.038 9.506zm10.148.266c1.743 0 2.955-.569 3.978-1.44l-.681-2.196c-.683.606-1.78 1.173-3.22 1.173-2.386 0-3.522-2.726-3.522-7.497 0-4.81 1.515-7.196 3.635-7.196 1.212 0 2.348.644 3.142 1.326l.418-2.804c-.833-.529-1.818-.984-3.521-.984-4.47 0-6.78 3.825-6.78 9.808 0 6.515 2.46 9.809 6.551 9.809zm-38.4-2.688h-5.075c1.59-4.054 1.78-9.923 1.78-13.937v-.342h3.295V25.37zm11.965-14.506c1.703 0 2.234 2.386 2.234 5.642h-4.887c.192-3.408.834-5.642 2.653-5.642zM10.67 17.416v10.378h2.915V.714H9.23c-4.28 0-7.878 2.842-7.878 8.523 0 4.052 1.592 6.248 3.977 7.46L.254 27.794h3.37l4.622-10.378h2.424zm0-2.424H9.117c-2.538 0-4.622-1.4-4.622-5.755 0-4.507 2.273-6.06 4.622-6.06h1.553v11.816z" fill="#141414"/><path fill-rule="evenodd" clip-rule="evenodd" d="M95.075 9.577c-.38-1.4-.681-2.613-.908-3.862h-.114a69.47 69.47 0 01.114 4.013v18.97H92.5V1.625h2.196l4.581 17.302c.19.72.454 2.121.568 3.142h.113c.152-1.021.456-2.46.644-3.142l4.62-17.302h2.121v27.071h-1.819V9.728c0-1.288.077-2.65.152-4.013h-.152a94.51 94.51 0 01-.908 3.748l-4.051 15.07h-1.478L95.074 9.577zm17.027 9.88h8.635c.606-6.78-1.514-10.226-4.809-10.226-3.219 0-5.568 3.674-5.568 9.923 0 6.248 1.856 9.922 5.908 9.922 3.03 0 4.468-2.159 4.468-2.159l-.567-1.44s-1.326 2.046-3.863 2.046c-2.764 0-4.127-2.84-4.204-8.067zm3.826-8.75c1.931 0 3.446 2.273 3.143 7.348h-6.931c.152-4.771 1.781-7.347 3.788-7.347zm17.287.38V9.61h-10.609v1.477h4.432v17.61h1.781v-17.61h4.396zm26.176 17.61h1.704V9.61h-1.553l-6.209 13.407c-.379.832-.757 1.666-1.023 2.537h-.113c.075-.834.152-1.666.152-2.688V9.61h-1.668v19.088h1.515l6.211-13.445c.405-.792.747-1.615 1.022-2.46h.114c-.094.867-.145 1.74-.152 2.612v13.293zm7.717-9.884l6.626 9.884h1.97l-6.741-10.225 6.286-8.862h-1.742l-6.399 8.976V9.61h-1.78v19.087h1.78v-9.884zM144.23 25.43c.732-1.451 1.099-3.693 1.099-6.724 0-2.524-.316-4.482-.948-5.87-.631-1.39-1.503-2.084-2.614-2.084a2.52 2.52 0 00-1.23.323 4.602 4.602 0 00-1.099.852 6.642 6.642 0 00-.927 1.23 10.46 10.46 0 00-.721 1.459v10.681c.379.784.846 1.365 1.402 1.744.555.378 1.262.567 2.121.567 1.213 0 2.184-.725 2.917-2.178zm-5.018 3.106a4.15 4.15 0 01-1.422-1.193v7.235h-1.78v-25h1.553l.152 3.144a8.857 8.857 0 011.705-2.443c.706-.72 1.59-1.08 2.651-1.08a3.55 3.55 0 012.121.681c.631.455 1.162 1.093 1.591 1.914.43.82.757 1.805.985 2.954.227 1.15.341 2.418.341 3.808 0 3.51-.543 6.129-1.629 7.86-1.087 1.73-2.513 2.593-4.28 2.593a4.164 4.164 0 01-1.989-.473h.001zm46.883.16h1.628c-.227-.719-.417-2.197-.417-3.522V14.76c0-3.787-1.78-5.529-4.922-5.529-2.16 0-3.75.948-4.508 1.932l.493 1.704c.908-1.326 2.385-2.083 4.014-2.083 2.083 0 3.181 1.25 3.181 4.166v2.386h-2.082c-4.129 0-6.363 2.12-6.363 6.211 0 3.484 1.78 5.529 4.355 5.529 1.893 0 3.257-1.136 4.165-2.954.115 1.364.304 2.083.454 2.575h.002zm-4.242-1.06c-1.818 0-2.992-1.554-2.992-4.242 0-3.333 1.515-4.771 4.659-4.771h2.044v5.264c-.681 2.045-1.932 3.748-3.712 3.748h.001z" fill="#141414"/></svg>