<svg width="187" height="187" viewBox="0 0 187 187" fill="none" xmlns="http://www.w3.org/2000/svg"><path d="M93.5 187c51.639 0 93.5-41.861 93.5-93.5S145.139 0 93.5 0 0 41.861 0 93.5 41.861 187 93.5 187z" fill="#34AADF"/><path d="M38.914 92.69s46.75-19.187 62.963-25.943c6.216-2.702 27.294-11.35 27.294-11.35s9.728-3.783 8.917 5.405c-.27 3.783-2.432 17.024-4.594 31.347-3.243 20.267-6.756 42.426-6.756 42.426s-.54 6.215-5.134 7.296c-4.594 1.081-12.16-3.783-13.511-4.864-1.082-.81-20.268-12.971-27.294-18.916-1.891-1.621-4.053-4.864.27-8.647 9.729-8.918 21.349-19.997 28.375-27.023 3.242-3.243 6.485-10.81-7.026-1.622C83.231 94.04 64.315 106.47 64.315 106.47s-4.324 2.702-12.43.27c-8.108-2.432-17.566-5.675-17.566-5.675s-6.485-4.053 4.595-8.377z" fill="#fff"/></svg>