<svg width="1045" height="647" viewBox="0 0 1045 647" fill="none" xmlns="http://www.w3.org/2000/svg"><path d="M792.316 239.04a5 5 0 015-5H1041V643H792.316V239.04z" fill="#F6F4F2"/><path d="M83.618 140.563V91.578a5 5 0 015-5h192.485a5 5 0 015 5v48.985a5 5 0 01-5 5H88.618a5 5 0 01-5-5z" stroke="#C5CDCF" stroke-width="5"/><path d="M159.462 122.952v-16.515h3.774v12.976h6.724v3.539h-10.498zm14.223-1.297c-1.069-1.054-1.604-2.391-1.604-4.011 0-1.621.535-2.957 1.604-4.011 1.085-1.054 2.516-1.581 4.294-1.581 1.777 0 3.2.527 4.27 1.581 1.085 1.054 1.627 2.39 1.627 4.011 0 1.62-.542 2.957-1.627 4.011-1.07 1.053-2.493 1.58-4.27 1.58-1.778 0-3.209-.527-4.294-1.58zm2.17-4.011c0 .66.197 1.211.59 1.651.409.425.92.637 1.534.637.613 0 1.116-.204 1.509-.613.409-.409.614-.968.614-1.675 0-.677-.205-1.227-.614-1.652a2.01 2.01 0 00-1.509-.637c-.598 0-1.101.212-1.51.637-.409.409-.614.96-.614 1.652zm9.898 6.677c0-.881.315-1.605.944-2.171.629-.566 1.486-.959 2.571-1.18a1.304 1.304 0 01-.141-.59c0-.235.055-.44.165-.613-.818-.33-1.463-.818-1.934-1.463a3.732 3.732 0 01-.685-2.17c0-1.117.425-2.077 1.274-2.879.865-.802 2.005-1.203 3.421-1.203 1.038 0 1.942.236 2.713.708l3.326-.661.118 2.831-1.581.307c.079.346.118.645.118.897 0 1.053-.401 1.966-1.203 2.736-.786.755-1.824 1.172-3.114 1.251a1.255 1.255 0 00.048.661c1.541.047 2.799.369 3.774.967.975.598 1.463 1.455 1.463 2.572 0 1.164-.527 2.044-1.581 2.642-1.054.598-2.406.897-4.058.897-1.667 0-3.027-.291-4.081-.873-1.038-.582-1.557-1.471-1.557-2.666zm3.303 0c0 .472.779.707 2.335.707 1.557 0 2.336-.235 2.336-.707 0-.488-.779-.732-2.336-.732-1.556 0-2.335.244-2.335.732zm1.298-9.06a1.149 1.149 0 00-.378.873c0 .346.118.629.354.849.252.204.598.307 1.038.307.409 0 .739-.103.991-.307.267-.205.401-.488.401-.849 0-.362-.118-.661-.354-.897s-.582-.354-1.038-.354c-.425 0-.763.126-1.014.378zm10.778 6.394c-1.069-1.054-1.604-2.391-1.604-4.011 0-1.621.535-2.957 1.604-4.011 1.085-1.054 2.516-1.581 4.294-1.581 1.777 0 3.2.527 4.27 1.581 1.085 1.054 1.627 2.39 1.627 4.011 0 1.62-.542 2.957-1.627 4.011-1.07 1.053-2.493 1.58-4.27 1.58-1.778 0-3.209-.527-4.294-1.58zm2.171-4.011c0 .66.196 1.211.589 1.651.409.425.92.637 1.534.637.613 0 1.116-.204 1.509-.613.409-.409.614-.968.614-1.675 0-.677-.205-1.227-.614-1.652a2.01 2.01 0 00-1.509-.637c-.598 0-1.101.212-1.51.637-.409.409-.613.96-.613 1.652z" fill="#C5CDCF"/><path d="M97.379 229.125h-6.291v-27.526c.472 0 1.796-.014 3.971-.04 2.202-.026 3.683-.039 4.443-.039 3.906 0 6.736.865 8.493 2.595 1.756 1.704 2.634 3.88 2.634 6.528 0 2.569-.931 4.758-2.792 6.567-1.861 1.782-4.325 2.674-7.391 2.674-1.39 0-2.412-.04-3.067-.118v9.359zm2.752-21.707c-.105 0-1.022.027-2.752.079v6.292c.996.131 1.953.196 2.87.196.996 0 1.861-.262 2.595-.786.734-.524 1.101-1.39 1.101-2.595 0-2.124-1.271-3.186-3.814-3.186zm16.203 9.556l-1.455-4.286c.76-.472 1.743-.879 2.949-1.219a13.527 13.527 0 013.617-.512c2.621 0 4.495.63 5.623 1.888 1.153 1.258 1.73 3.133 1.73 5.623v10.657h-5.112v-1.613c-.865 1.233-2.411 1.849-4.639 1.849-1.652 0-3.001-.485-4.05-1.455-1.022-.996-1.533-2.373-1.533-4.129 0-1.914.589-3.369 1.769-4.365 1.206-.996 2.739-1.494 4.6-1.494 1.468 0 2.621.327 3.46.983.105-2.019-.708-3.028-2.438-3.028-1.153 0-2.66.367-4.521 1.101zm4.718 7.471c1.048 0 1.795-.301 2.241-.904v-1.101c-.55-.393-1.297-.59-2.241-.59-.498 0-.904.118-1.219.354-.314.236-.472.564-.472.983 0 .393.158.708.472.944.315.209.721.314 1.219.314zm26.848-2.32l2.752 4.326c-1.52 2.097-3.932 3.146-7.234 3.146-2.936 0-5.295-.852-7.078-2.556-1.756-1.704-2.634-3.959-2.634-6.764 0-2.621.865-4.824 2.595-6.606 1.756-1.809 4.01-2.714 6.763-2.714 3.224 0 5.635.839 7.234 2.517l-2.713 4.64c-1.101-1.101-2.359-1.651-3.774-1.651-.996 0-1.888.341-2.674 1.022-.76.682-1.14 1.612-1.14 2.792 0 1.127.393 2.045 1.179 2.753.813.707 1.717 1.061 2.713 1.061 1.442 0 2.779-.655 4.011-1.966zm20.089 0l2.752 4.326c-1.521 2.097-3.932 3.146-7.235 3.146-2.935 0-5.294-.852-7.077-2.556-1.756-1.704-2.634-3.959-2.634-6.764 0-2.621.865-4.824 2.595-6.606 1.756-1.809 4.01-2.714 6.762-2.714 3.225 0 5.636.839 7.235 2.517l-2.713 4.64c-1.101-1.101-2.359-1.651-3.775-1.651-.996 0-1.887.341-2.673 1.022-.76.682-1.14 1.612-1.14 2.792 0 1.127.393 2.045 1.179 2.753.813.707 1.717 1.061 2.713 1.061 1.442 0 2.779-.655 4.011-1.966zm7.838 14.864v-25.56h5.897v1.337c1.206-1.206 2.844-1.809 4.915-1.809 2.359 0 4.259.852 5.701 2.556 1.468 1.678 2.202 3.841 2.202 6.489 0 2.752-.878 5.046-2.635 6.881-1.756 1.809-4.049 2.714-6.88 2.714-1.337 0-2.438-.184-3.303-.551v7.943h-5.897zm8.964-20.526c-1.101 0-2.123.524-3.067 1.573v5.387c.76.446 1.678.668 2.752.668 1.232 0 2.163-.367 2.792-1.101.655-.76.983-1.717.983-2.87 0-1.075-.315-1.953-.944-2.635-.603-.681-1.441-1.022-2.516-1.022zm16.731 10.499c-1.782-1.756-2.673-3.985-2.673-6.685 0-2.7.891-4.928 2.673-6.685 1.809-1.756 4.194-2.635 7.156-2.635 2.962 0 5.334.879 7.117 2.635 1.808 1.757 2.713 3.985 2.713 6.685 0 2.7-.905 4.929-2.713 6.685-1.783 1.756-4.155 2.635-7.117 2.635-2.962 0-5.347-.879-7.156-2.635zm3.618-6.685c0 1.101.327 2.019.983 2.753.681.707 1.533 1.061 2.555 1.061 1.022 0 1.861-.34 2.516-1.022.682-.682 1.023-1.612 1.023-2.792 0-1.127-.341-2.045-1.023-2.753-.681-.707-1.52-1.061-2.516-1.061s-1.835.354-2.516 1.061c-.682.682-1.022 1.6-1.022 2.753zm33.992-8.848v17.696h-5.897v-5.348c-1.127.498-2.438.747-3.932.747-2.307 0-3.971-.603-4.993-1.809-.996-1.206-1.494-2.975-1.494-5.309v-5.977h6.29v5.191c0 1.599.629 2.399 1.888 2.399.969 0 1.717-.131 2.241-.394v-7.196h5.897zm6.291 17.696v-17.696h5.898v8.18l4.797-8.18h7.391l-5.74 8.415 6.605 9.281h-7.627l-5.426-8.258v8.258h-5.898zm24.818-12.151l-1.455-4.286c.76-.472 1.743-.879 2.949-1.219a13.522 13.522 0 013.617-.512c2.621 0 4.495.63 5.622 1.888 1.154 1.258 1.73 3.133 1.73 5.623v10.657h-5.111v-1.613c-.865 1.233-2.412 1.849-4.64 1.849-1.651 0-3.001-.485-4.049-1.455-1.023-.996-1.534-2.373-1.534-4.129 0-1.914.59-3.369 1.77-4.365 1.205-.996 2.739-1.494 4.6-1.494 1.468 0 2.621.327 3.46.983.105-2.019-.708-3.028-2.438-3.028-1.153 0-2.66.367-4.521 1.101zm4.718 7.471c1.048 0 1.795-.301 2.241-.904v-1.101c-.551-.393-1.298-.59-2.241-.59-.498 0-.905.118-1.219.354-.315.236-.472.564-.472.983 0 .393.157.708.472.944.314.209.721.314 1.219.314zm36.37-23.318l3.067 4.876c-.734.786-1.547 1.363-2.438 1.73-.891.341-1.887.642-2.988.904-1.101.263-2.018.59-2.752.983-1.783.944-2.805 2.504-3.067 4.68h.078c.525-.708 1.285-1.298 2.281-1.77a7.442 7.442 0 013.145-.707c2.333 0 4.22.786 5.662 2.359 1.442 1.547 2.162 3.631 2.162 6.252 0 2.569-.864 4.745-2.594 6.528-1.73 1.756-4.011 2.635-6.842 2.635-3.066 0-5.465-1.023-7.195-3.068-1.73-2.044-2.595-4.81-2.595-8.297 0-7.497 2.268-12.242 6.802-14.235a16.84 16.84 0 012.949-.943c1.048-.263 1.887-.512 2.516-.748.656-.236 1.258-.629 1.809-1.179zm-7.785 18.364c.026 1.258.328 2.346.904 3.263.577.892 1.39 1.337 2.438 1.337 1.075 0 1.887-.314 2.438-.943.576-.656.865-1.468.865-2.438 0-.97-.262-1.77-.787-2.399-.524-.655-1.284-.983-2.28-.983-1.73 0-2.923.721-3.578 2.163zm32.12 3.932l1.612 4.168c-1.782 1.337-4.076 2.006-6.88 2.006-2.91 0-5.243-.852-6.999-2.556-1.73-1.704-2.595-3.959-2.595-6.764 0-2.648.878-4.863 2.635-6.646 1.782-1.782 4.102-2.674 6.959-2.674 2.359 0 4.377.787 6.055 2.36 1.677 1.547 2.516 3.539 2.516 5.977 0 1.18-.118 2.163-.354 2.949h-11.717c.525 1.626 1.901 2.438 4.129 2.438 1.756 0 3.302-.419 4.639-1.258zm-5.465-7.55c-1.756 0-2.922.813-3.499 2.438h6.369c0-.655-.262-1.219-.786-1.691-.498-.498-1.193-.747-2.084-.747zm20.395 13.724c-1.704 0-3.316-.302-4.836-.905-1.52-.629-2.608-1.389-3.264-2.281l2.989-3.617c.471.55 1.153 1.035 2.044 1.455.918.419 1.783.629 2.595.629 1.704 0 2.556-.42 2.556-1.258 0-.892-.629-1.337-1.888-1.337h-3.381v-3.933h3.185c.577 0 .996-.131 1.258-.393.288-.288.433-.629.433-1.022 0-.839-.761-1.259-2.281-1.259-1.415 0-2.922.682-4.521 2.045l-2.438-3.539c1.782-2.15 4.482-3.225 8.099-3.225 2.412 0 4.247.459 5.505 1.377 1.284.917 1.926 2.189 1.926 3.814 0 .839-.301 1.612-.904 2.32-.577.682-1.35 1.18-2.32 1.494v.079c2.412.551 3.618 1.94 3.618 4.168 0 1.652-.761 2.963-2.281 3.933-1.52.97-3.552 1.455-6.094 1.455zm35.296-.472v-12.19h-5.505v12.19h-5.897v-17.696h17.299v17.696h-5.897zm12.18 7.864v-25.56h5.898v1.337c1.206-1.206 2.844-1.809 4.915-1.809 2.359 0 4.259.852 5.701 2.556 1.468 1.678 2.202 3.841 2.202 6.489 0 2.752-.879 5.046-2.635 6.881-1.756 1.809-4.049 2.714-6.88 2.714-1.337 0-2.438-.184-3.303-.551v7.943h-5.898zm8.965-20.526c-1.101 0-2.123.524-3.067 1.573v5.387c.76.446 1.678.668 2.752.668 1.232 0 2.163-.367 2.792-1.101.655-.76.983-1.717.983-2.87 0-1.075-.315-1.953-.944-2.635-.603-.681-1.441-1.022-2.516-1.022zm16.731 10.499c-1.782-1.756-2.673-3.985-2.673-6.685 0-2.7.891-4.928 2.673-6.685 1.809-1.756 4.194-2.635 7.156-2.635 2.962 0 5.334.879 7.117 2.635 1.808 1.757 2.712 3.985 2.712 6.685 0 2.7-.904 4.929-2.712 6.685-1.783 1.756-4.155 2.635-7.117 2.635-2.962 0-5.347-.879-7.156-2.635zm3.618-6.685c0 1.101.327 2.019.982 2.753.682.707 1.534 1.061 2.556 1.061s1.861-.34 2.516-1.022c.682-.682 1.023-1.612 1.023-2.792 0-1.127-.341-2.045-1.023-2.753-.681-.707-1.52-1.061-2.516-1.061s-1.835.354-2.516 1.061c-.682.682-1.022 1.6-1.022 2.753zm18.658 8.848v-17.696h5.898v12.191h5.111v-12.191h5.898v12.191h2.949v9.437h-5.505v-3.932h-14.351zm38.269-5.702l1.612 4.168c-1.783 1.337-4.076 2.006-6.881 2.006-2.909 0-5.242-.852-6.998-2.556-1.73-1.704-2.595-3.959-2.595-6.764 0-2.648.878-4.863 2.634-6.646 1.782-1.782 4.102-2.674 6.959-2.674 2.359 0 4.378.787 6.055 2.36 1.678 1.547 2.516 3.539 2.516 5.977 0 1.18-.118 2.163-.354 2.949h-11.716c.524 1.626 1.9 2.438 4.128 2.438 1.756 0 3.303-.419 4.64-1.258zm-5.465-7.55c-1.757 0-2.923.813-3.5 2.438h6.37c0-.655-.262-1.219-.787-1.691-.498-.498-1.192-.747-2.083-.747zm25.27 13.252v-6.095h-5.701v6.095h-5.898v-17.696h5.898v6.095h5.701v-6.095h5.897v17.696h-5.897zm10.8-11.797v-5.899h16.12v5.899h-5.111v11.797h-5.898v-11.797h-5.111zm22.272 9.634c-1.782-1.756-2.673-3.985-2.673-6.685 0-2.7.891-4.928 2.673-6.685 1.809-1.756 4.194-2.635 7.156-2.635 2.962 0 5.334.879 7.116 2.635 1.809 1.757 2.713 3.985 2.713 6.685 0 2.7-.904 4.929-2.713 6.685-1.782 1.756-4.154 2.635-7.116 2.635-2.962 0-5.347-.879-7.156-2.635zm3.617-6.685c0 1.101.328 2.019.983 2.753.682.707 1.534 1.061 2.556 1.061s1.861-.34 2.516-1.022c.682-.682 1.023-1.612 1.023-2.792 0-1.127-.341-2.045-1.023-2.753-.681-.707-1.52-1.061-2.516-1.061s-1.835.354-2.516 1.061c-.682.682-1.023 1.6-1.023 2.753zm18.659 8.848v-17.696c.315 0 .931-.026 1.848-.078a91.094 91.094 0 012.87-.118c1.023-.026 1.979-.04 2.871-.04 5.583 0 8.374 1.573 8.374 4.719 0 1.023-.314 1.888-.943 2.596-.629.707-1.35 1.127-2.163 1.258v.078c1.101.315 1.953.826 2.556 1.534.629.682.943 1.494.943 2.438 0 3.696-2.909 5.545-8.728 5.545-.786 0-2.136-.04-4.05-.118-1.887-.079-3.08-.118-3.578-.118zm7.785-7.078h-1.887v2.438c1.153.104 1.953.157 2.398.157.525 0 .957-.118 1.298-.354.341-.262.511-.564.511-.904 0-.892-.773-1.337-2.32-1.337zm.354-6.135c-1.022 0-1.769.04-2.241.118v2.478h1.966c1.232 0 1.848-.446 1.848-1.337 0-.341-.144-.63-.433-.866-.262-.262-.642-.393-1.14-.393zM95.61 272.38h-5.898v-17.695h5.897v9.241l6.291-9.241h5.898v17.695H101.9v-9.241l-6.29 9.241zm39.73 0v-12.19h-5.504v12.19h-5.898v-17.695h17.3v17.695h-5.898zm26.06-5.702l1.612 4.169c-1.782 1.337-4.076 2.005-6.88 2.005-2.91 0-5.243-.852-6.999-2.556-1.73-1.704-2.595-3.959-2.595-6.764 0-2.647.878-4.863 2.634-6.645 1.783-1.783 4.102-2.674 6.96-2.674 2.359 0 4.377.786 6.054 2.359 1.678 1.547 2.517 3.539 2.517 5.977 0 1.18-.118 2.163-.354 2.95h-11.717c.524 1.625 1.901 2.438 4.129 2.438 1.756 0 3.302-.42 4.639-1.259zm-5.465-7.55c-1.756 0-2.923.813-3.499 2.438h6.369c0-.655-.262-1.219-.786-1.691-.498-.498-1.193-.747-2.084-.747zm13.671 21.117v-25.56h5.898v1.337c1.206-1.206 2.844-1.809 4.915-1.809 2.359 0 4.259.852 5.701 2.556 1.468 1.678 2.202 3.84 2.202 6.488 0 2.753-.879 5.047-2.635 6.882-1.756 1.809-4.049 2.713-6.88 2.713-1.337 0-2.438-.184-3.303-.551v7.944h-5.898zm8.965-20.527c-1.101 0-2.123.524-3.067 1.573v5.387c.76.446 1.678.669 2.752.669 1.232 0 2.163-.367 2.792-1.101.655-.761.983-1.717.983-2.871 0-1.075-.315-1.953-.944-2.635-.603-.681-1.442-1.022-2.516-1.022zm15.041 12.662v-17.695c.314 0 .93-.026 1.847-.079a94.281 94.281 0 012.871-.118c1.022-.026 1.979-.039 2.87-.039 5.583 0 8.374 1.573 8.374 4.719 0 1.022-.314 1.887-.943 2.595-.629.708-1.35 1.127-2.163 1.258v.079c1.101.314 1.953.826 2.556 1.533.629.682.944 1.495.944 2.439 0 3.696-2.91 5.544-8.729 5.544-.786 0-2.136-.039-4.05-.118-1.887-.079-3.079-.118-3.577-.118zm7.784-7.078h-1.887v2.438c1.154.105 1.953.157 2.399.157.524 0 .956-.118 1.297-.354.341-.262.511-.563.511-.904 0-.891-.773-1.337-2.32-1.337zm.354-6.134c-1.022 0-1.769.039-2.241.118v2.477h1.966c1.232 0 1.848-.446 1.848-1.337 0-.341-.144-.629-.432-.865-.263-.262-.643-.393-1.141-.393zm15.599 11.049c-1.782-1.756-2.673-3.984-2.673-6.685 0-2.7.891-4.928 2.673-6.684 1.809-1.757 4.194-2.635 7.156-2.635 2.962 0 5.334.878 7.117 2.635 1.808 1.756 2.712 3.984 2.712 6.684 0 2.701-.904 4.929-2.712 6.685-1.783 1.757-4.155 2.635-7.117 2.635-2.962 0-5.347-.878-7.156-2.635zm3.617-6.685c0 1.101.328 2.019.983 2.753.682.708 1.534 1.062 2.556 1.062s1.861-.341 2.516-1.023c.682-.681 1.023-1.612 1.023-2.792 0-1.127-.341-2.044-1.023-2.752-.681-.708-1.52-1.062-2.516-1.062s-1.835.354-2.516 1.062c-.682.681-1.023 1.599-1.023 2.752zm18.659 8.848v-17.695h12.582v5.505h-6.684v12.19h-5.898zm18.324-2.163c-1.782-1.756-2.673-3.984-2.673-6.685 0-2.7.891-4.928 2.673-6.684 1.809-1.757 4.194-2.635 7.156-2.635 2.962 0 5.334.878 7.116 2.635 1.809 1.756 2.713 3.984 2.713 6.684 0 2.701-.904 4.929-2.713 6.685-1.782 1.757-4.154 2.635-7.116 2.635-2.962 0-5.347-.878-7.156-2.635zm3.617-6.685c0 1.101.328 2.019.983 2.753.682.708 1.534 1.062 2.556 1.062s1.861-.341 2.516-1.023c.682-.681 1.023-1.612 1.023-2.792 0-1.127-.341-2.044-1.023-2.752-.681-.708-1.52-1.062-2.516-1.062s-1.835.354-2.516 1.062c-.682.681-1.023 1.599-1.023 2.752zm28.496 8.848v-17.695c.315 0 .931-.026 1.848-.079a94.148 94.148 0 012.871-.118c1.022-.026 1.978-.039 2.87-.039 5.583 0 8.374 1.573 8.374 4.719 0 1.022-.314 1.887-.943 2.595-.629.708-1.35 1.127-2.163 1.258v.079c1.101.314 1.953.826 2.556 1.533.629.682.944 1.495.944 2.439 0 3.696-2.91 5.544-8.729 5.544-.786 0-2.136-.039-4.05-.118-1.887-.079-3.08-.118-3.578-.118zm7.785-7.078h-1.887v2.438c1.153.105 1.953.157 2.398.157.525 0 .957-.118 1.298-.354.341-.262.511-.563.511-.904 0-.891-.773-1.337-2.32-1.337zm.354-6.134c-1.022 0-1.769.039-2.241.118v2.477h1.966c1.232 0 1.848-.446 1.848-1.337 0-.341-.144-.629-.433-.865-.262-.262-.642-.393-1.14-.393zm20.632 13.684c-1.704 0-3.316-.301-4.836-.904-1.521-.63-2.608-1.39-3.264-2.281l2.988-3.618c.472.551 1.154 1.036 2.045 1.455.917.42 1.782.629 2.595.629 1.704 0 2.556-.419 2.556-1.258 0-.891-.63-1.337-1.888-1.337h-3.381v-3.932h3.185c.576 0 .996-.131 1.258-.394.288-.288.432-.629.432-1.022 0-.839-.76-1.258-2.28-1.258-1.415 0-2.923.681-4.522 2.044l-2.437-3.539c1.782-2.149 4.482-3.224 8.099-3.224 2.412 0 4.246.459 5.505 1.376 1.284.918 1.926 2.189 1.926 3.814 0 .839-.301 1.613-.904 2.321-.577.681-1.35 1.179-2.32 1.494v.078c2.412.551 3.617 1.94 3.617 4.169 0 1.651-.76 2.962-2.28 3.932-1.52.97-3.552 1.455-6.094 1.455zm25.655-.472v-6.095h-5.701v6.095h-5.898v-17.695h5.898v6.095h5.701v-6.095h5.898v17.695h-5.898zm13.867-2.163c-1.783-1.756-2.674-3.984-2.674-6.685 0-2.7.891-4.928 2.674-6.684 1.808-1.757 4.194-2.635 7.156-2.635 2.962 0 5.334.878 7.116 2.635 1.809 1.756 2.713 3.984 2.713 6.684 0 2.701-.904 4.929-2.713 6.685-1.782 1.757-4.154 2.635-7.116 2.635-2.962 0-5.348-.878-7.156-2.635zm3.617-6.685c0 1.101.328 2.019.983 2.753.681.708 1.533 1.062 2.556 1.062 1.022 0 1.861-.341 2.516-1.023.681-.681 1.022-1.612 1.022-2.792 0-1.127-.341-2.044-1.022-2.752-.682-.708-1.52-1.062-2.516-1.062s-1.835.354-2.517 1.062c-.681.681-1.022 1.599-1.022 2.752zm31.87 1.849l2.752 4.325c-1.52 2.097-3.932 3.146-7.235 3.146-2.935 0-5.294-.852-7.077-2.556-1.756-1.704-2.634-3.959-2.634-6.764 0-2.621.865-4.823 2.595-6.606 1.756-1.809 4.01-2.713 6.763-2.713 3.224 0 5.635.839 7.234 2.517l-2.713 4.64c-1.101-1.101-2.359-1.652-3.774-1.652-.996 0-1.888.341-2.674 1.022-.76.682-1.14 1.613-1.14 2.792 0 1.128.393 2.045 1.179 2.753.813.708 1.717 1.062 2.713 1.062 1.442 0 2.779-.656 4.011-1.966zm9.725-5.152l-1.455-4.286c.76-.472 1.743-.878 2.949-1.219a13.525 13.525 0 013.617-.511c2.621 0 4.495.629 5.623 1.887 1.153 1.259 1.73 3.133 1.73 5.624v10.656h-5.112v-1.612c-.865 1.232-2.411 1.848-4.639 1.848-1.652 0-3.001-.485-4.05-1.455-1.022-.996-1.533-2.372-1.533-4.129 0-1.914.589-3.368 1.769-4.365 1.206-.996 2.739-1.494 4.6-1.494 1.468 0 2.621.328 3.46.983.105-2.018-.708-3.028-2.438-3.028-1.153 0-2.66.367-4.521 1.101zm4.718 7.472c1.048 0 1.796-.302 2.241-.905v-1.101c-.55-.393-1.297-.59-2.241-.59-.498 0-.904.118-1.219.354-.314.236-.472.564-.472.983 0 .394.158.708.472.944.315.21.721.315 1.219.315z" fill="#141414"/><path d="M86.566 316.534v-8.679a5 5 0 015-5h197.4a5 5 0 015 5v8.679a5 5 0 01-5 5h-197.4a5 5 0 01-5-5zm0 31.458v-8.678a5 5 0 015-5h160.049a5 5 0 015 5v8.678a5 5 0 01-5 5H91.566a5 5 0 01-5-5z" stroke="#C5CDCF" stroke-width="5"/><path d="M105.479 379.056l4.483-3.256h2.547v16.515h-3.538v-11.49l-1.651 1.156-1.841-2.925zm-18.912 22.107h50.13v3.932h-50.13zm86.224-8.847v-2.831c.142-.126.527-.496 1.156-1.109a47.85 47.85 0 001.297-1.298c.221-.236.598-.629 1.133-1.18.534-.566.912-1.014 1.132-1.345.22-.33.48-.731.779-1.203.314-.487.526-.936.637-1.345a4.18 4.18 0 00.188-1.227c0-1.085-.503-1.628-1.51-1.628-.471 0-.841.158-1.108.472-.268.299-.504.732-.708 1.298l-2.949-1.345c.268-1.211.842-2.171 1.722-2.878.897-.724 2.053-1.086 3.468-1.086 1.526 0 2.713.433 3.562 1.298.865.865 1.298 1.919 1.298 3.162 0 3.13-1.84 6.11-5.52 8.942h6.086v3.303h-10.663zm-21.35 8.847h50.13v3.932h-50.13z" fill="#C5CDCF"/><path d="M243.624 392.599c-1.305 0-2.422-.252-3.35-.755-.928-.52-1.627-1.18-2.099-1.982l1.958-2.619c1.054 1.211 2.139 1.816 3.255 1.816.677 0 1.188-.149 1.534-.448.361-.314.542-.7.542-1.156 0-1.211-.935-1.817-2.807-1.817h-1.038v-3.539h.944c.66 0 1.203-.141 1.627-.424.425-.284.637-.692.637-1.227 0-.394-.125-.724-.377-.991-.236-.268-.613-.401-1.132-.401-1.101 0-2.053.495-2.855 1.486l-1.934-2.548c1.022-1.652 2.728-2.477 5.119-2.477 1.462 0 2.65.385 3.562 1.156.928.755 1.392 1.777 1.392 3.067 0 .959-.205 1.754-.614 2.383-.393.613-1.006 1.109-1.84 1.486v.071c.991.189 1.754.637 2.289 1.345.534.708.802 1.565.802 2.572 0 1.525-.535 2.744-1.604 3.657-1.054.896-2.391 1.345-4.011 1.345zm-27.311 8.564h50.13v3.932h-50.13v-3.932z" fill="#141414"/><path d="M307.602 392.315v-3.539h-7.501v-2.642l5.897-10.334h4.058l-5.402 9.437h2.948v-3.539h3.539v3.539h1.934v3.539h-1.934v3.539h-3.539zm-26.414 8.848h50.13v3.932h-50.13z" fill="#C5CDCF"/><path d="M4 633V14C4 8.477 8.477 4 14 4h1017c5.52 0 10 4.477 10 10v619c0 5.523-4.48 10-10 10H14c-5.523 0-10-4.477-10-10z" stroke="#C5CDCF" stroke-width="7"/><path d="M292.984 610.474v-94.206a5 5 0 015-5h200.18a5 5 0 015 5v94.206a5 5 0 01-5 5h-200.18a5 5 0 01-5-5z" fill="#fff" stroke="#C5CDCF" stroke-width="5"/><path d="M367.898 594.6v-35.544a2 2 0 012-2h58.43a2 2 0 012 2V594.6a2 2 0 01-2 2h-58.43a2 2 0 01-2-2zm-8.32-39.405c-.028-2.554.097-6.047.113-8.438.007-1.177.967-2.189 2.143-2.189h72.805a2 2 0 012 2v8.488a2 2 0 01-2 2h-73.133c-1.05 0-1.916-.811-1.928-1.861zm33.437 2.278v38.34m12.34-37.849v37.596" stroke="#C5CDCF" stroke-width="3"/><path d="M375.687 537.603c-.489-.256-.682-.863-.38-1.326a10.404 10.404 0 0118.874 7.93c-.119.54-.688.827-1.213.657l-2.979-.966c-.526-.171-.803-.735-.735-1.284a5.276 5.276 0 00-3.19-5.514 5.272 5.272 0 00-6.171 1.581c-.344.433-.941.63-1.43.374l-2.776-1.452zm45.646-.54c.455-.313.574-.939.219-1.362a10.399 10.399 0 00-12.488-2.689 10.403 10.403 0 00-5.682 11.442c.11.542.673.839 1.202.678l2.68-.818c.528-.161.816-.721.751-1.269a5.604 5.604 0 019.547-4.599c.388.392 1.005.516 1.461.203l2.31-1.586zm-90.796 12.899l3.903 3.574 4.604-2.609-2.192 4.817 3.903 3.574-5.258-.597-2.192 4.817-1.058-5.185-5.257-.597 4.604-2.608-1.057-5.186zm14.566-29.138l3.903 3.574 4.605-2.608-2.193 4.817 3.903 3.574-5.257-.597-2.193 4.817-1.057-5.186-5.258-.597 4.604-2.608-1.057-5.186zm101.969-4.163l3.903 3.574 4.605-2.608-2.193 4.817 3.903 3.574-5.258-.597-2.192 4.817-1.057-5.186-5.258-.597 4.604-2.608-1.057-5.186zm6.242 47.87l3.903 3.574 4.605-2.608-2.193 4.817 3.903 3.574-5.258-.597-2.192 4.817-1.057-5.186-5.258-.597 4.604-2.608-1.057-5.186zm-62.429-47.87l3.903 3.574 4.604-2.608-2.192 4.817 3.903 3.574-5.258-.597-2.193 4.817-1.057-5.186-5.258-.597 4.605-2.608-1.057-5.186zm39.539 10.407l3.903 3.574 4.604-2.609-2.192 4.817 3.903 3.574-5.258-.597-2.193 4.817-1.057-5.186-5.258-.596 4.605-2.609-1.057-5.185z" fill="#C5CDCF"/><path d="M230.075 589.829v-94.206a5 5 0 015-5h200.18a5 5 0 015 5v94.206a5 5 0 01-5 5h-200.18a5 5 0 01-5-5z" fill="#fff" stroke="#C5CDCF" stroke-width="5"/><path d="M303.309 467.472c4.817 0 8.722-3.782 8.722-8.448 0-4.665-3.905-8.447-8.722-8.447-4.818 0-8.723 3.782-8.723 8.447 0 4.666 3.905 8.448 8.723 8.448zm74.915 0c4.817 0 8.723-3.782 8.723-8.448 0-4.665-3.906-8.447-8.723-8.447-4.818 0-8.723 3.782-8.723 8.447 0 4.666 3.905 8.448 8.723 8.448z" fill="#C5CDCF"/><path fill-rule="evenodd" clip-rule="evenodd" d="M281.157 446.985l.994-2.761c.09-.25.271-.456.504-.576a1.04 1.04 0 00.517-.612l.074-.229a1.61 1.61 0 01.995-1.033l3.839-1.348-1.997-1.814a.202.202 0 00-.137-.054h-4.201a.206.206 0 01-.193-.136l-.73-1.988a.211.211 0 01.194-.285h11.731c.158 0 .257.173.18.314l-.653 1.185a.205.205 0 01-.18.107h-2.179a.21.21 0 00-.18.314l-1.655 2.357c14.419.968 29.375-9.697 43.823-9.36 2.789.065 5.949.399 9.535 1.039 8.871 2.08 13.765 4.254 21.551 9.584.401.275.857.359 1.112.362 10.349.244 20.752.688 24.419 3.311 5.569 2.907 10.085 5.401 10.116 7.753l-.72 6.251a.511.511 0 00.141.415l.359.367c.141.144.22.338.22.541a.951.951 0 01-.804.947l-9.514 1.388c-.1.015-.201.022-.302.021l-.666-.003a10.84 10.84 0 001.192-4.962c0-5.907-4.687-10.695-10.468-10.695s-10.468 4.788-10.468 10.695c0 1.753.413 3.406 1.144 4.866l-53.939-.282c.646-1.389.83-.658.83-4.584-1.224-6.072-8.238-10.798-12.731-10.62-5.781 0-10.636 4.713-10.636 10.62 0 1.641.007 3.195.653 4.584h-.653c-4.547.027-5.128-.659-8.554-2.905a2.097 2.097 0 00-.485-.237l-2.36-.791-.453-1.909c.9-.23.331-1.29-.178-2.24l-.117-.218c-.272-.514.014-.782.381-1.126.149-.139.311-.291.455-.477.476-.617.302-1.946.082-3.628a52.01 52.01 0 01-.07-.539 3.44 3.44 0 01.182-1.609z" fill="#C5CDCF"/><path d="M315.396 539.53h38.499c-14.922-8.783-30.161-9.369-38.499 0z" fill="#F6F4F2"/><path d="M173.065 559.354v-94.206a5 5 0 015-5h200.18a5 5 0 015 5v94.206a5 5 0 01-5 5h-200.18a5 5 0 01-5-5z" fill="#fff" stroke="#C5CDCF" stroke-width="5"/><path d="M326.277 520.505h-55.639c-1.635 0-2.576 1.856-1.599 3.167 10.568 14.183 17.409 20.422 30.133 19.665 15.785-.532 22.865-5.019 28.941-20.154.518-1.29-.446-2.678-1.836-2.678zm-30.435-5.163v-18.747a1 1 0 011.071-.993c17.535 1.275 24.392 6.115 31.461 19.287a.988.988 0 01-.877 1.453h-30.655a1 1 0 01-1-1z" fill="#C5CDCF"/><ellipse cx="285.437" cy="547.561" rx="4.162" ry="4.163" fill="#C5CDCF"/><ellipse cx="316.652" cy="547.561" rx="4.162" ry="4.163" fill="#C5CDCF"/><path d="M278.154 522.586l-9.364-9.366h-10.405" stroke="#C5CDCF" stroke-width="2" stroke-linecap="round"/><path d="M275.033 497.611h10.405l-7.957 8.325h7.957m-49.944-41.626h10.405l-7.957 8.325h7.957m22.37 0l6.493 8.131-16.929 3.34 4.965 6.217m-21.077-9.362l.862 13.7-8.967-9.954.66 10.477" stroke="#C5CDCF" stroke-width="3"/><path d="M86.566 537.323V443.52a5 5 0 015-5h199.366a5 5 0 015 5v93.803a5 5 0 01-5 5H91.566a5 5 0 01-5-5z" fill="#fff" stroke="#C5CDCF" stroke-width="5"/><path d="M242.037 543.218c0-2.587-.885-5.148-2.604-7.537-1.719-2.39-4.238-4.561-7.414-6.39-3.176-1.829-6.947-3.28-11.097-4.27-4.149-.989-8.597-1.499-13.089-1.499-4.491 0-8.939.51-13.089 1.499-4.15.99-7.92 2.441-11.096 4.27-3.176 1.829-5.696 4-7.415 6.39-1.718 2.389-2.603 4.95-2.603 7.537h68.407z" fill="#C5CDCF"/><path fill-rule="evenodd" clip-rule="evenodd" d="M209.462 460.798l-2.791-.716 1.014 2.697c1.899 5.052 3.014 9.005 3.483 13.096.309 2.695.341 5.483.111 8.719-1.598-3.574-3.242-6.508-4.922-8.829-2.125-2.936-4.367-4.974-6.727-6.033-2.411-1.082-4.855-1.098-7.195-.141-2.288.936-4.389 2.763-6.297 5.216l-1.173 1.508 1.744.781c5.668 2.539 9.483 4.328 12.633 6.472a29.72 29.72 0 012.598 1.982c-4.96-.393-9.526.085-13.175 1.514-2.881 1.128-5.263 2.881-6.743 5.341-1.488 2.475-1.966 5.506-1.319 8.993l.312 1.679 1.625-.526 24.793-8.026c-3.671 12.482-4.564 21.045-4.564 31.996l10.365 2.074c-1.891-11.207-1.336-19.54.548-33.719 8.913 7.081 13.037 11.389 17.837 19.94l1.09 1.941 1.39-1.738c2.231-2.79 3.396-5.712 3.462-8.567.066-2.869-.981-5.528-2.919-7.749-2.39-2.739-6.105-4.798-10.817-5.916 5.816-.1 10.558.587 16.835 2.407l2.137.62-.227-2.214c-.365-3.554-1.583-6.454-3.537-8.536-1.964-2.092-4.575-3.254-7.514-3.479-3.473-.265-7.377.768-11.343 3.061 1.967-6.002 2.555-10.764 1.432-14.518-1.491-4.985-5.803-7.7-12.146-9.33zm-4.097 28.19a48.65 48.65 0 011.951 2.421l-23.876 7.73c-.122-2.097.322-3.806 1.153-5.188 1.056-1.755 2.834-3.141 5.266-4.094 3.947-1.545 9.419-1.863 15.506-.869zm3.526-2.37c-1.65-3.811-3.316-6.816-4.964-9.094-1.949-2.692-3.815-4.288-5.525-5.055-1.66-.745-3.249-.748-4.831-.101-1.237.506-2.517 1.431-3.813 2.81 4.702 2.128 8.245 3.851 11.272 5.911 2.153 1.465 4.028 3.089 5.883 5.124.656.121 1.316.256 1.978.405zm3.955 3.707l-.275.272-1.146-.459 1.421.187zm3.091-2.756c-.709.57-1.417 1.18-2.12 1.83.662-5.404.809-9.699.332-13.865-.412-3.595-1.282-7.044-2.635-10.979 4.149 1.497 6.36 3.559 7.22 6.432 1.054 3.525.253 8.72-2.797 16.582zm1.608 2.557c.185-.151.369-.299.553-.444l.199.08.136-.34c4.744-3.638 9.289-5.118 12.857-4.845 2.266.173 4.153 1.046 5.556 2.54 1.042 1.111 1.869 2.621 2.356 4.563-7.545-1.968-13.261-2.26-21.657-1.554zm14.836 10.549c-2.499-2.864-7.171-5.092-13.691-5.681 6.482 5.384 10.353 9.6 14.353 16.294 1.014-1.726 1.483-3.383 1.519-4.906.047-2.049-.686-3.994-2.181-5.707z" fill="#C5CDCF"/><ellipse cx="139.426" cy="476.875" rx="13.474" ry="13.476" fill="#C5CDCF"/><path d="M828.872 280.245c-2.715 0-4.743-.97-6.085-2.909l2.109-2.516c1.229 1.308 2.497 1.962 3.807 1.962.63 0 1.179-.131 1.648-.392.485-.277.727-.716.727-1.316 0-.492-.218-.885-.654-1.177-.436-.308-1.099-.462-1.988-.462h-1.552v-3.462h1.455c.598 0 1.091-.123 1.479-.37.404-.261.606-.631.606-1.108 0-.492-.17-.861-.509-1.108-.34-.261-.792-.392-1.358-.392-1.164 0-2.166.562-3.006 1.685l-2.231-2.493c.566-.785 1.358-1.423 2.376-1.916a7.748 7.748 0 013.37-.739c1.568 0 2.829.401 3.782 1.201.97.785 1.455 1.9 1.455 3.347 0 1.385-.711 2.531-2.134 3.439v.07c1.859.554 2.788 1.839 2.788 3.854 0 1.432-.614 2.593-1.842 3.486-1.228.877-2.643 1.316-4.243 1.316zm11.244-7.41l-.897-2.516c.469-.277 1.075-.516 1.819-.716.759-.2 1.503-.3 2.23-.3 1.616 0 2.772.37 3.467 1.108.711.739 1.067 1.839 1.067 3.301v6.256h-3.152v-.947c-.533.724-1.487 1.085-2.861 1.085-1.018 0-1.85-.284-2.497-.854-.63-.585-.945-1.392-.945-2.424 0-1.123.363-1.977 1.091-2.562.743-.585 1.689-.877 2.836-.877.905 0 1.616.192 2.134.577.064-1.185-.437-1.777-1.503-1.777-.712 0-1.641.215-2.789.646zm2.91 4.386c.646 0 1.107-.177 1.382-.531v-.646c-.34-.231-.8-.347-1.382-.347-.307 0-.558.07-.752.208a.67.67 0 00-.291.577c0 .231.097.416.291.554.194.123.445.185.752.185zm14.179-7.641h3.757v10.388h-3.636v-2.655h-.873l-1.721 2.655h-4.146l2.594-3.417c-1.212-.615-1.818-1.638-1.818-3.07 0-1.154.477-2.093 1.43-2.816.97-.723 2.441-1.085 4.413-1.085zm-1.964 4.178c0 .277.137.516.412.716.275.2.614.3 1.018.3h.655v-2.193h-.703c-.404 0-.736.123-.994.369-.259.247-.388.516-.388.808zm9.599 6.21V269.58c.194 0 .573-.015 1.139-.046a69.744 69.744 0 013.54-.092c3.442 0 5.164.923 5.164 2.77 0 .6-.194 1.108-.582 1.523-.388.416-.833.662-1.334.739v.046c.679.185 1.204.485 1.576.9.388.4.582.878.582 1.432 0 2.169-1.794 3.254-5.382 3.254-.485 0-1.317-.023-2.497-.069a77.444 77.444 0 00-2.206-.069zm4.8-4.155h-1.164v1.431c.711.062 1.204.092 1.479.092.323 0 .59-.069.8-.207.21-.154.315-.331.315-.531 0-.524-.476-.785-1.43-.785zm.218-3.601c-.63 0-1.091.023-1.382.069v1.454h1.212c.76 0 1.14-.261 1.14-.785 0-.2-.089-.369-.267-.507-.161-.154-.396-.231-.703-.231zm8.576 7.756V269.58h3.637v4.802l2.957-4.802h4.558l-3.539 4.94 4.073 5.448h-4.704l-3.345-4.848v4.848h-3.637zm15.303-7.133l-.897-2.516c.469-.277 1.075-.516 1.818-.716.76-.2 1.503-.3 2.231-.3 1.616 0 2.771.37 3.466 1.108.712.739 1.067 1.839 1.067 3.301v6.256h-3.152v-.947c-.533.724-1.486 1.085-2.86 1.085-1.019 0-1.851-.284-2.497-.854-.631-.585-.946-1.392-.946-2.424 0-1.123.364-1.977 1.091-2.562.744-.585 1.689-.877 2.837-.877.905 0 1.616.192 2.133.577.065-1.185-.436-1.777-1.503-1.777-.711 0-1.641.215-2.788.646zm2.909 4.386c.647 0 1.107-.177 1.382-.531v-.646c-.339-.231-.8-.347-1.382-.347-.307 0-.557.07-.751.208a.67.67 0 00-.291.577c0 .231.097.416.291.554.194.123.444.185.751.185z" fill="#C5CDCF"/><path fill="#fff" d="M823.771 309.737h193.639v44.239H823.771zm0 68.815h193.639v44.239H823.771zm0 68.816h193.639v44.239H823.771zm0 71.764h25.556v25.56h-25.556z"/><rect x="862.105" y="521.099" width="81.584" height="5.898" rx="2.949" fill="#C5CDCF"/><rect x="951.553" y="521.099" width="52.096" height="5.898" rx="2.949" fill="#C5CDCF"/><rect x="921.082" y="536.828" width="52.096" height="5.898" rx="2.949" fill="#C5CDCF"/><rect x="863.088" y="536.828" width="52.096" height="5.898" rx="2.949" fill="#C5CDCF"/><path stroke="#141414" stroke-width="3" d="M826.254 571.752h189.656v41.239H826.254z"/><path d="M5 34.455h1034" stroke="#C5CDCF" stroke-width="7"/><rect x="22" y="12.455" width="12" height="12" rx="1" fill="#C5CDCF"/><rect x="49" y="12.455" width="12" height="12" rx="1" fill="#C5CDCF"/><rect x="76" y="12.455" width="12" height="12" rx="1" fill="#C5CDCF"/></svg>