<svg width="1041" height="1261" viewBox="0 0 1041 1261" fill="none" xmlns="http://www.w3.org/2000/svg"><path d="M798 1070V495c0-5.523 4.477-10 10-10h191c5.52 0 10 4.477 10 10v575c0 5.52-4.48 10-10 10H808c-5.523 0-10-4.48-10-10z" fill="#fff" stroke="#C5CDCF" stroke-width="5"/><path d="M996 4H811c-19.882 0-36 16.118-36 36v410c0 19.882 16.118 36 36 36h185c19.88 0 36-16.118 36-36V40c0-19.882-16.12-36-36-36z" fill="#fff" stroke="#C5CDCF" stroke-width="7"/><path d="M992 470H816c-13.807 0-25-11.193-25-25V40.22C791 27.395 801.396 17 814.219 17h16.818a6.401 6.401 0 016.401 6.401c0 10.04 8.14 18.18 18.18 18.18h98.312c10.04 0 18.18-8.14 18.18-18.18A6.401 6.401 0 01978.511 17h16.044C1006.95 17 1017 27.05 1017 39.445V445c0 13.807-11.19 25-25 25z" fill="#fff" stroke="#C5CDCF" stroke-width="7"/><path d="M878 24h54" stroke="#C5CDCF" stroke-width="7" stroke-linecap="round"/><path d="M794 400h220v45c0 11.598-9.4 21-21 21H815c-11.598 0-21-9.402-21-21v-45z" fill="#F6F4F2"/><path fill="#F6F4F2" stroke="#C5CDCF" d="M807.5 716.5h193v109h-193z"/><path d="M805 95.175V78.96a5 5 0 015-5h80a5 5 0 015 5v16.214a5 5 0 01-5 5h-80a5 5 0 01-5-5z" stroke="#C5CDCF" stroke-width="3"/><path d="M838.711 90.126v-7.34h1.678v5.767h2.988v1.573h-4.666zm6.322-.576c-.476-.469-.713-1.063-.713-1.783s.237-1.314.713-1.783c.482-.468 1.118-.702 1.908-.702.79 0 1.423.234 1.898.702.482.469.724 1.063.724 1.783s-.242 1.314-.724 1.782c-.475.469-1.108.703-1.898.703-.79 0-1.426-.234-1.908-.703zm.964-1.783c0 .294.088.538.263.734a.905.905 0 00.681.283.89.89 0 00.671-.273c.182-.181.273-.43.273-.744 0-.3-.091-.545-.273-.734a.893.893 0 00-.671-.283.896.896 0 00-.671.283c-.182.182-.273.426-.273.734zm4.4 2.967c0-.391.14-.713.419-.964.28-.252.661-.427 1.143-.525a.579.579 0 01-.063-.262c0-.105.025-.196.074-.272a1.932 1.932 0 01-.86-.65 1.66 1.66 0 01-.304-.965c0-.496.189-.923.566-1.28.384-.356.891-.534 1.52-.534.462 0 .864.105 1.206.315l1.479-.294.052 1.258-.702.136c.035.154.052.287.052.399 0 .468-.178.874-.535 1.216-.349.336-.811.521-1.384.556a.562.562 0 00.021.294c.685.02 1.244.164 1.678.43.433.265.65.646.65 1.142 0 .518-.234.91-.703 1.175-.468.265-1.069.398-1.803.398-.741 0-1.346-.13-1.814-.388-.461-.258-.692-.653-.692-1.185zm1.468 0c0 .21.346.315 1.038.315.692 0 1.038-.105 1.038-.315 0-.216-.346-.325-1.038-.325-.692 0-1.038.109-1.038.325zm.577-4.026a.51.51 0 00-.168.388c0 .154.052.28.157.377.112.091.266.137.461.137a.679.679 0 00.441-.137.448.448 0 00.178-.377.54.54 0 00-.157-.399c-.105-.104-.259-.157-.462-.157a.607.607 0 00-.45.168zm4.79 2.842c-.475-.469-.713-1.063-.713-1.783s.238-1.314.713-1.783c.483-.468 1.119-.702 1.909-.702s1.422.234 1.898.702c.482.469.723 1.063.723 1.783s-.241 1.314-.723 1.782c-.476.469-1.108.703-1.898.703-.79 0-1.426-.234-1.909-.703zm.965-1.783c0 .294.087.538.262.734a.908.908 0 00.682.283c.272 0 .496-.09.671-.273.182-.181.272-.43.272-.744 0-.3-.09-.545-.272-.734a.896.896 0 00-.671-.283.893.893 0 00-.671.283c-.182.182-.273.426-.273.734z" fill="#C5CDCF"/><path d="M808.107 133.678h-2.549v-11.481c.191 0 .727-.006 1.609-.017.892-.011 1.492-.016 1.801-.016 1.582 0 2.73.361 3.441 1.083.712.71 1.068 1.618 1.068 2.722 0 1.072-.377 1.985-1.132 2.739-.754.744-1.752 1.116-2.995 1.116-.563 0-.977-.017-1.243-.05v3.904zm1.115-9.054c-.042 0-.414.011-1.115.033v2.624c.404.055.791.082 1.163.082.404 0 .754-.109 1.052-.328.297-.218.446-.579.446-1.082 0-.886-.515-1.329-1.546-1.329zm6.567 3.986l-.59-1.788c.308-.197.707-.366 1.195-.508.5-.143.988-.214 1.466-.214 1.062 0 1.822.263 2.279.788.467.525.701 1.306.701 2.345v4.445h-2.072v-.673c-.35.514-.977.771-1.88.771-.669 0-1.216-.202-1.641-.607-.414-.415-.621-.989-.621-1.722 0-.798.239-1.405.717-1.82.488-.416 1.11-.624 1.864-.624.595 0 1.062.137 1.402.411.043-.842-.287-1.263-.988-1.263-.467 0-1.078.153-1.832.459zm1.912 3.116c.425 0 .727-.126.908-.377v-.459c-.223-.164-.526-.246-.908-.246a.787.787 0 00-.494.147.488.488 0 00-.191.41.47.47 0 00.191.394.858.858 0 00.494.131zm10.88-.968l1.116 1.805c-.617.874-1.594 1.312-2.932 1.312-1.19 0-2.146-.356-2.868-1.066-.712-.711-1.068-1.651-1.068-2.821 0-1.094.351-2.012 1.052-2.756.711-.754 1.625-1.132 2.74-1.132 1.307 0 2.284.35 2.932 1.05l-1.099 1.935c-.446-.459-.956-.688-1.53-.688-.404 0-.765.142-1.083.426-.309.284-.463.673-.463 1.165 0 .47.16.852.478 1.148.33.295.696.443 1.1.443.584 0 1.126-.274 1.625-.821zm8.141 0l1.116 1.805c-.616.874-1.594 1.312-2.932 1.312-1.19 0-2.146-.356-2.868-1.066-.712-.711-1.068-1.651-1.068-2.821 0-1.094.351-2.012 1.052-2.756.712-.754 1.625-1.132 2.74-1.132 1.307 0 2.284.35 2.932 1.05l-1.099 1.935c-.446-.459-.956-.688-1.53-.688-.403 0-.765.142-1.083.426-.308.284-.462.673-.462 1.165 0 .47.159.852.478 1.148.329.295.695.443 1.099.443.584 0 1.126-.274 1.625-.821zm3.177 6.2v-10.661h2.39v.558c.488-.503 1.152-.755 1.992-.755.956 0 1.726.356 2.31 1.067.595.699.892 1.601.892 2.706 0 1.148-.356 2.105-1.067 2.87-.712.755-1.642 1.132-2.789 1.132-.541 0-.988-.077-1.338-.23v3.313h-2.39zm3.633-8.561c-.446 0-.861.218-1.243.656v2.247c.308.186.68.279 1.115.279.499 0 .877-.154 1.131-.46.266-.317.399-.716.399-1.197 0-.448-.128-.815-.383-1.099-.244-.284-.584-.426-1.019-.426zm6.78 4.379c-.722-.733-1.083-1.662-1.083-2.788 0-1.127.361-2.056 1.083-2.789.733-.732 1.7-1.099 2.9-1.099 1.201 0 2.162.367 2.884 1.099.733.733 1.1 1.662 1.1 2.789 0 1.126-.367 2.055-1.1 2.788-.722.732-1.683 1.099-2.884 1.099-1.2 0-2.167-.367-2.9-1.099zm1.466-2.788c0 .459.133.842.398 1.148.277.295.622.443 1.036.443.414 0 .754-.143 1.02-.427.276-.284.414-.672.414-1.164 0-.471-.138-.853-.414-1.149a1.341 1.341 0 00-1.02-.442c-.403 0-.743.147-1.02.442-.276.285-.414.667-.414 1.149zm13.776-3.691v7.381h-2.39v-2.231c-.457.208-.988.312-1.593.312-.935 0-1.61-.252-2.024-.755-.404-.503-.605-1.241-.605-2.214v-2.493h2.549v2.165c0 .667.255 1.001.765 1.001.393 0 .696-.055.908-.164v-3.002h2.39zm2.549 7.381v-7.381h2.391v3.412l1.943-3.412h2.996l-2.326 3.51 2.677 3.871h-3.092l-2.198-3.444v3.444h-2.391zm10.058-5.068l-.59-1.788c.308-.197.707-.366 1.195-.508.5-.143.988-.214 1.466-.214 1.063 0 1.822.263 2.279.788.467.525.701 1.306.701 2.345v4.445h-2.071v-.673c-.351.514-.978.771-1.881.771-.669 0-1.216-.202-1.641-.607-.414-.415-.621-.989-.621-1.722 0-.798.239-1.405.717-1.82.488-.416 1.11-.624 1.864-.624.595 0 1.062.137 1.402.411.043-.842-.287-1.263-.988-1.263-.467 0-1.078.153-1.832.459zm1.912 3.116c.425 0 .728-.126.908-.377v-.459c-.223-.164-.526-.246-.908-.246a.787.787 0 00-.494.147.49.49 0 00-.191.41c0 .164.064.296.191.394a.858.858 0 00.494.131zM894.812 122l1.243 2.034a2.815 2.815 0 01-.988.721 9.434 9.434 0 01-1.211.378 4.558 4.558 0 00-1.115.41c-.722.393-1.137 1.044-1.243 1.952h.032c.212-.296.52-.542.924-.739a2.95 2.95 0 011.275-.295c.945 0 1.71.328 2.294.984.585.645.877 1.515.877 2.608 0 1.072-.351 1.979-1.052 2.723-.701.732-1.625 1.099-2.772 1.099-1.243 0-2.215-.427-2.916-1.28-.701-.852-1.052-2.006-1.052-3.46 0-3.128.919-5.107 2.757-5.938.371-.164.77-.295 1.195-.393.425-.11.764-.214 1.019-.312.266-.098.51-.262.733-.492zm-3.155 7.66c.011.524.133.978.367 1.361.234.372.563.558.988.558.435 0 .765-.132.988-.394.233-.273.35-.612.35-1.017 0-.405-.106-.738-.318-1.001-.213-.273-.521-.41-.925-.41-.701 0-1.184.301-1.45.903zm13.017 1.64l.654 1.738c-.723.558-1.652.837-2.789.837-1.179 0-2.124-.356-2.836-1.066-.701-.711-1.051-1.651-1.051-2.821 0-1.105.355-2.029 1.067-2.772.722-.744 1.663-1.116 2.82-1.116.956 0 1.774.328 2.454.984.68.646 1.02 1.477 1.02 2.494 0 .492-.048.902-.143 1.23h-4.749c.213.678.77 1.017 1.673 1.017.712 0 1.339-.175 1.88-.525zm-2.214-3.149c-.712 0-1.185.339-1.418 1.016h2.581a.928.928 0 00-.319-.705c-.202-.208-.483-.311-.844-.311zm8.265 5.724a5.143 5.143 0 01-1.96-.377c-.616-.263-1.057-.58-1.323-.952l1.211-1.509c.192.23.468.432.829.607.372.175.722.263 1.052.263.69 0 1.035-.175 1.035-.525 0-.372-.255-.558-.764-.558h-1.371v-1.64h1.291c.234 0 .404-.055.51-.164a.592.592 0 00.175-.427c0-.349-.308-.524-.924-.524-.574 0-1.185.284-1.833.852l-.987-1.476c.722-.896 1.816-1.345 3.282-1.345.977 0 1.721.192 2.231.574.52.383.78.913.78 1.591 0 .35-.122.673-.366.968a2.007 2.007 0 01-.94.623v.033c.977.23 1.466.809 1.466 1.739 0 .689-.308 1.235-.924 1.64-.617.404-1.44.607-2.47.607zm14.304-.197v-5.085h-2.231v5.085h-2.39v-7.381h7.011v7.381h-2.39zm4.936 3.28v-10.661h2.39v.558c.489-.503 1.153-.755 1.992-.755.956 0 1.726.356 2.31 1.067.595.699.893 1.601.893 2.706 0 1.148-.356 2.105-1.068 2.87-.712.755-1.641 1.132-2.788 1.132-.542 0-.988-.077-1.339-.23v3.313h-2.39zm3.633-8.561c-.446 0-.86.218-1.243.656v2.247c.308.186.68.279 1.116.279.499 0 .876-.154 1.131-.46.265-.317.398-.716.398-1.197 0-.448-.127-.815-.382-1.099-.244-.284-.584-.426-1.02-.426zm6.781 4.379c-.723-.733-1.084-1.662-1.084-2.788 0-1.127.361-2.056 1.084-2.789.733-.732 1.699-1.099 2.9-1.099 1.2 0 2.161.367 2.884 1.099.733.733 1.099 1.662 1.099 2.789 0 1.126-.366 2.055-1.099 2.788-.723.732-1.684 1.099-2.884 1.099-1.201 0-2.167-.367-2.9-1.099zm1.466-2.788c0 .459.132.842.398 1.148a1.36 1.36 0 001.036.443c.414 0 .754-.143 1.019-.427.277-.284.415-.672.415-1.164 0-.471-.138-.853-.415-1.149a1.34 1.34 0 00-1.019-.442c-.404 0-.744.147-1.02.442-.276.285-.414.667-.414 1.149zm7.561 3.69v-7.381h2.39v5.085h2.072v-5.085h2.39v5.085h1.195v3.936h-2.231v-1.64h-5.816zm15.509-2.378l.653 1.738c-.722.558-1.652.837-2.788.837-1.179 0-2.125-.356-2.837-1.066-.701-.711-1.051-1.651-1.051-2.821 0-1.105.356-2.029 1.067-2.772.723-.744 1.663-1.116 2.821-1.116.956 0 1.774.328 2.454.984.679.646 1.019 1.477 1.019 2.494 0 .492-.048.902-.143 1.23h-4.748c.212.678.77 1.017 1.673 1.017.711 0 1.338-.175 1.88-.525zm-2.215-3.149c-.712 0-1.184.339-1.418 1.016h2.581a.93.93 0 00-.318-.705c-.202-.208-.484-.311-.845-.311zm10.241 5.527v-2.542h-2.31v2.542h-2.39v-7.381h2.39v2.542h2.31v-2.542h2.39v7.381h-2.39zm4.377-4.921v-2.46h6.533v2.46h-2.072v4.921h-2.39v-4.921h-2.071zm9.026 4.019c-.722-.733-1.084-1.662-1.084-2.788 0-1.127.362-2.056 1.084-2.789.733-.732 1.7-1.099 2.9-1.099s2.162.367 2.884 1.099c.733.733 1.099 1.662 1.099 2.789 0 1.126-.366 2.055-1.099 2.788-.722.732-1.684 1.099-2.884 1.099s-2.167-.367-2.9-1.099zm1.466-2.788c0 .459.133.842.398 1.148.276.295.622.443 1.036.443.414 0 .754-.143 1.02-.427.276-.284.414-.672.414-1.164 0-.471-.138-.853-.414-1.149a1.343 1.343 0 00-1.02-.442c-.404 0-.744.147-1.02.442-.276.285-.414.667-.414 1.149zm7.562 3.69v-7.381c.127 0 .377-.011.748-.033a39.893 39.893 0 012.327-.065c2.263 0 3.393.656 3.393 1.968 0 .426-.13.787-.38 1.083-.26.295-.55.47-.88.524v.033c.45.131.79.345 1.04.64.25.284.38.623.38 1.017 0 1.541-1.18 2.312-3.537 2.312-.319 0-.866-.016-1.641-.049a46.069 46.069 0 00-1.45-.049zm3.154-2.952h-.764v1.017c.467.043.791.065.972.065a.885.885 0 00.525-.147c.138-.11.208-.236.208-.378 0-.371-.314-.557-.941-.557zm.144-2.559c-.414 0-.717.016-.908.049v1.034h.796c.5 0 .749-.186.749-.558a.454.454 0 00-.175-.361c-.106-.109-.26-.164-.462-.164zM807.39 151.72H805v-7.381h2.39v3.854l2.549-3.854h2.391v7.381h-2.391v-3.855l-2.549 3.855zm16.101 0v-5.085h-2.23v5.085h-2.391v-7.381h7.011v7.381h-2.39zm10.561-2.379l.654 1.739c-.723.558-1.652.837-2.789.837-1.179 0-2.124-.356-2.836-1.067-.701-.71-1.052-1.651-1.052-2.821 0-1.104.356-2.028 1.068-2.772.722-.743 1.662-1.115 2.82-1.115.956 0 1.774.328 2.454.984.68.645 1.02 1.476 1.02 2.493 0 .492-.048.902-.144 1.23h-4.748c.213.678.77 1.017 1.673 1.017.712 0 1.339-.175 1.88-.525zm-2.215-3.149c-.711 0-1.184.339-1.418 1.017h2.582a.931.931 0 00-.319-.705c-.202-.208-.483-.312-.845-.312zm5.541 8.808v-10.661h2.39v.558c.489-.503 1.153-.755 1.992-.755.956 0 1.726.356 2.31 1.066.595.7.892 1.602.892 2.707 0 1.148-.355 2.104-1.067 2.87-.712.754-1.641 1.132-2.789 1.132-.541 0-.987-.077-1.338-.23V155h-2.39zm3.633-8.562c-.446 0-.861.219-1.243.656v2.247c.308.186.68.279 1.115.279.5 0 .877-.153 1.132-.459.265-.317.398-.716.398-1.197 0-.449-.127-.815-.382-1.099-.245-.284-.585-.427-1.02-.427zm6.095 5.282v-7.381c.128 0 .377-.011.749-.033a43.932 43.932 0 012.327-.065c2.262 0 3.393.656 3.393 1.968 0 .426-.127.787-.382 1.082-.255.295-.547.47-.876.525v.033c.446.131.791.344 1.035.64.255.284.383.623.383 1.016 0 1.542-1.179 2.313-3.538 2.313-.318 0-.865-.016-1.641-.049a45.973 45.973 0 00-1.45-.049zm3.155-2.953h-.765v1.017c.468.044.792.066.972.066a.88.88 0 00.526-.148c.138-.109.207-.235.207-.377 0-.372-.313-.558-.94-.558zm.144-2.558c-.415 0-.717.016-.909.049v1.033h.797c.499 0 .749-.186.749-.557a.453.453 0 00-.175-.361c-.107-.11-.261-.164-.462-.164zm6.321 4.609c-.722-.733-1.083-1.662-1.083-2.789 0-1.126.361-2.055 1.083-2.788.733-.733 1.7-1.099 2.9-1.099 1.201 0 2.162.366 2.884 1.099.733.733 1.1 1.662 1.1 2.788 0 1.127-.367 2.056-1.1 2.789-.722.732-1.683 1.099-2.884 1.099-1.2 0-2.167-.367-2.9-1.099zm1.466-2.789c0 .46.133.842.398 1.148a1.36 1.36 0 001.036.443c.414 0 .754-.142 1.02-.426.276-.284.414-.673.414-1.165 0-.47-.138-.853-.414-1.148a1.342 1.342 0 00-1.02-.443c-.403 0-.743.148-1.02.443-.276.285-.414.667-.414 1.148zm7.562 3.691v-7.381h5.099v2.296h-2.709v5.085h-2.39zm7.426-.902c-.723-.733-1.084-1.662-1.084-2.789 0-1.126.361-2.055 1.084-2.788.733-.733 1.699-1.099 2.9-1.099 1.2 0 2.161.366 2.884 1.099.733.733 1.099 1.662 1.099 2.788 0 1.127-.366 2.056-1.099 2.789-.723.732-1.684 1.099-2.884 1.099-1.201 0-2.167-.367-2.9-1.099zm1.466-2.789c0 .46.132.842.398 1.148.276.296.621.443 1.036.443.414 0 .754-.142 1.019-.426.277-.284.415-.673.415-1.165 0-.47-.138-.853-.415-1.148a1.342 1.342 0 00-1.019-.443c-.404 0-.744.148-1.02.443-.276.285-.414.667-.414 1.148zm11.548 3.691v-7.381c.127 0 .377-.011.749-.033a43.86 43.86 0 012.326-.065c2.263 0 3.394.656 3.394 1.968 0 .426-.127.787-.382 1.082-.255.295-.547.47-.877.525v.033c.446.131.792.344 1.036.64.255.284.382.623.382 1.016 0 1.542-1.179 2.313-3.537 2.313-.319 0-.866-.016-1.641-.049a45.973 45.973 0 00-1.45-.049zm3.155-2.953h-.765v1.017c.467.044.791.066.972.066a.881.881 0 00.526-.148c.138-.109.207-.235.207-.377 0-.372-.313-.558-.94-.558zm.143-2.558c-.414 0-.717.016-.908.049v1.033h.797c.499 0 .749-.186.749-.557a.454.454 0 00-.176-.361c-.106-.11-.26-.164-.462-.164zm8.361 5.708c-.69 0-1.343-.126-1.96-.378-.616-.262-1.056-.579-1.322-.951l1.211-1.509c.191.23.467.432.828.607.372.175.723.262 1.052.262.691 0 1.036-.175 1.036-.525 0-.371-.255-.557-.765-.557h-1.37v-1.64h1.29c.234 0 .404-.055.51-.164a.593.593 0 00.175-.427c0-.35-.308-.525-.924-.525-.573 0-1.184.285-1.832.853l-.988-1.476c.722-.897 1.816-1.345 3.282-1.345.978 0 1.721.191 2.231.574.521.383.781.913.781 1.591 0 .35-.122.673-.367.968a2.002 2.002 0 01-.94.623v.033c.978.23 1.466.809 1.466 1.738 0 .689-.308 1.236-.924 1.641-.616.404-1.439.607-2.47.607zm10.397-.197v-2.543h-2.31v2.543h-2.39v-7.381h2.39v2.542h2.31v-2.542h2.39v7.381h-2.39zm5.62-.902c-.722-.733-1.083-1.662-1.083-2.789 0-1.126.361-2.055 1.083-2.788.733-.733 1.7-1.099 2.9-1.099s2.162.366 2.884 1.099c.733.733 1.099 1.662 1.099 2.788 0 1.127-.366 2.056-1.099 2.789-.722.732-1.684 1.099-2.884 1.099s-2.167-.367-2.9-1.099zm1.466-2.789c0 .46.133.842.398 1.148.276.296.622.443 1.036.443.414 0 .754-.142 1.02-.426.276-.284.414-.673.414-1.165 0-.47-.138-.853-.414-1.148a1.342 1.342 0 00-1.02-.443c-.404 0-.744.148-1.02.443-.276.285-.414.667-.414 1.148zm12.915.771l1.116 1.804c-.616.875-1.594 1.313-2.932 1.313-1.19 0-2.146-.356-2.868-1.067-.712-.71-1.068-1.651-1.068-2.821 0-1.093.351-2.012 1.052-2.755.712-.755 1.625-1.132 2.741-1.132 1.306 0 2.283.35 2.931 1.05l-1.099 1.935c-.446-.459-.956-.689-1.53-.689-.403 0-.765.143-1.083.427-.308.284-.462.672-.462 1.164 0 .471.159.853.478 1.148.329.296.695.443 1.099.443.584 0 1.126-.273 1.625-.82zm3.942-2.148l-.59-1.788c.308-.197.707-.366 1.195-.509a5.343 5.343 0 011.466-.213c1.062 0 1.822.263 2.279.787.467.525.701 1.307.701 2.346v4.445h-2.072v-.673c-.35.514-.977.771-1.88.771-.669 0-1.216-.202-1.641-.607-.414-.415-.622-.989-.622-1.722 0-.798.239-1.405.718-1.821.488-.415 1.11-.623 1.864-.623.595 0 1.062.137 1.402.41.042-.842-.287-1.263-.988-1.263-.467 0-1.078.153-1.832.46zm1.912 3.116c.425 0 .727-.126.908-.377v-.46c-.223-.164-.526-.246-.908-.246a.787.787 0 00-.494.148.487.487 0 00-.191.41c0 .164.063.295.191.394a.858.858 0 00.494.131z" fill="#141414"/><path d="M805 184.084V182a5 5 0 015-5h124.2a5 5 0 015 5v2.084a5 5 0 01-5 5H810a5 5 0 01-5-5zm0 20.353v-2.084a5 5 0 015-5h100.031a5 5 0 015 5v2.084a5 5 0 01-5 5H810a5 5 0 01-5-5z" stroke="#C5CDCF" stroke-width="3"/><path d="M814.586 232.98l2.509-1.822h1.426v9.244h-1.981v-6.431l-.924.647-1.03-1.638zM804 245.354h28.06v2.201H804zm48.263-4.952v-1.585c.079-.07.295-.277.647-.62.361-.353.603-.595.726-.727s.335-.352.634-.66c.299-.317.51-.568.634-.753.123-.185.268-.409.435-.673.176-.273.295-.524.357-.753a2.34 2.34 0 00.106-.686c0-.608-.282-.912-.846-.912-.264 0-.47.088-.62.265-.15.167-.282.409-.396.726l-1.651-.753c.15-.678.471-1.215.964-1.611.502-.405 1.149-.607 1.941-.607.854 0 1.519.242 1.994.726.484.484.726 1.074.726 1.769 0 1.752-1.03 3.42-3.09 5.005h3.407v1.849h-5.968zm-11.951 4.952h28.06v2.201h-28.06z" fill="#C5CDCF"/><path d="M891.914 240.56c-.731 0-1.356-.141-1.875-.422-.52-.291-.912-.66-1.176-1.109l1.096-1.466c.59.678 1.198 1.017 1.823 1.017.378 0 .664-.084.858-.251a.828.828 0 00.304-.647c0-.678-.524-1.017-1.572-1.017h-.581v-1.981h.528c.37 0 .674-.079.912-.238a.775.775 0 00.356-.686.78.78 0 00-.211-.555c-.132-.149-.344-.224-.634-.224-.616 0-1.149.277-1.598.832l-1.083-1.426c.573-.925 1.528-1.387 2.866-1.387.819 0 1.483.216 1.994.647.519.423.779.995.779 1.717 0 .537-.115.981-.344 1.333-.22.344-.563.621-1.029.832v.04c.554.106.981.356 1.28.753.3.396.449.875.449 1.439 0 .854-.299 1.536-.898 2.047-.589.501-1.338.752-2.244.752zm-15.288 4.794h28.06v2.2h-28.06v-2.2z" fill="#141414"/><path d="M927.725 240.402v-1.981h-4.2v-1.479l3.302-5.784h2.271l-3.024 5.282h1.651v-1.981h1.98v1.981h1.083v1.981h-1.083v1.981h-1.98zm-14.786 4.952h28.06v2.201h-28.06z" fill="#C5CDCF"/><path d="M898.931 361.512V324.1a5 5 0 015-5h85.643a5 5 0 015 5v37.412a5 5 0 01-5 5h-85.643a5 5 0 01-5-5z" fill="#fff" stroke="#C5CDCF" stroke-width="5"/><path d="M870.305 352.119v-37.413a5 5 0 015-5h85.643a5 5 0 015 5v37.413a5 5 0 01-5 5h-85.643a5 5 0 01-5-5z" fill="#fff" stroke="#C5CDCF" stroke-width="5"/><path d="M844.361 338.253V300.84a5 5 0 015-5h85.644a5 5 0 015 5v37.413a5 5 0 01-5 5h-85.644a5 5 0 01-5-5z" fill="#fff" stroke="#C5CDCF" stroke-width="5"/><path d="M805 328.229V291a5 5 0 015-5h85.273a5 5 0 015 5v37.229a5 5 0 01-5 5H810a5 5 0 01-5-5z" fill="#fff" stroke="#C5CDCF" stroke-width="5"/><path stroke="#141414" stroke-width="3" d="M843.5 420.5h121.66v25.621H843.5z"/><rect x="820" y="750" width="100" height="7" rx="2" stroke="#C5CDCF" stroke-width="2"/><rect x="933" y="750" width="45" height="7" rx="2" stroke="#C5CDCF" stroke-width="2"/><rect x="820" y="767" width="44" height="7" rx="2" stroke="#C5CDCF" stroke-width="2"/><rect x="936" y="767" width="27" height="7" rx="2" stroke="#C5CDCF" stroke-width="2"/><rect x="878" y="767" width="44" height="7" rx="2" stroke="#C5CDCF" stroke-width="2"/><path stroke="#141414" stroke-width="3" d="M818.5 788.5h92v19h-92z"/><path d="M819 734.889V724h2.428v4.744l3.476-4.744h2.914l-3.992 5.024 4.311 5.865h-3.081l-3.628-5.18v5.18H819zm10.706-4.807l-.562-1.695c.294-.187.673-.348 1.139-.483a5.133 5.133 0 011.396-.202c1.012 0 1.735.249 2.17.747.446.498.668 1.239.668 2.224v4.216h-1.973v-.638c-.334.488-.931.731-1.791.731-.637 0-1.158-.192-1.563-.575-.395-.394-.592-.939-.592-1.634 0-.757.228-1.332.683-1.726.465-.394 1.057-.591 1.776-.591.566 0 1.011.129 1.335.388.041-.798-.273-1.197-.941-1.197-.445 0-1.027.145-1.745.435zm1.821 2.956c.405 0 .693-.119.865-.358v-.436c-.212-.155-.501-.233-.865-.233a.75.75 0 00-.47.14.461.461 0 00-.182.389c0 .156.06.28.182.373a.815.815 0 00.47.125zm4.505 1.851v-7h2.277v3.235l1.852-3.235h2.853l-2.216 3.329 2.55 3.671h-2.944l-2.095-3.267v3.267h-2.277zm11.784-.856c-.688-.694-1.032-1.576-1.032-2.644s.344-1.95 1.032-2.645c.698-.694 1.619-1.042 2.762-1.042 1.144 0 2.06.348 2.748 1.042.698.695 1.047 1.577 1.047 2.645s-.349 1.95-1.047 2.644c-.688.695-1.604 1.043-2.748 1.043-1.143 0-2.064-.348-2.762-1.043zm1.396-2.644c0 .435.127.798.38 1.089.263.28.592.42.986.42.395 0 .719-.135.972-.405.263-.269.394-.637.394-1.104 0-.446-.131-.809-.394-1.089a1.28 1.28 0 00-.972-.42c-.384 0-.708.14-.971.42-.263.27-.395.633-.395 1.089zm9.783 6.611v-2.924h-.015c-1.174 0-2.084-.343-2.732-1.027-.647-.695-.971-1.582-.971-2.66 0-1.016.324-1.882.971-2.598.658-.726 1.564-1.089 2.717-1.089h.03V724h2.277v3.702h.046c1.173 0 2.079.348 2.716 1.042.638.685.956 1.566.956 2.645 0 1.099-.308 1.991-.925 2.675-.607.675-1.523 1.012-2.747 1.012h-.046V738h-2.277zm-1.29-6.611c0 .995.43 1.498 1.29 1.509v-3.018h-.045c-.83 0-1.245.503-1.245 1.509zm3.613-1.509h-.046v3.018c.86 0 1.29-.503 1.29-1.509 0-.436-.101-.793-.303-1.073-.203-.291-.517-.436-.941-.436zm5.618 4.153c-.688-.694-1.032-1.576-1.032-2.644s.344-1.95 1.032-2.645c.698-.694 1.619-1.042 2.762-1.042 1.144 0 2.059.348 2.748 1.042.698.695 1.047 1.577 1.047 2.645s-.349 1.95-1.047 2.644c-.689.695-1.604 1.043-2.748 1.043-1.143 0-2.064-.348-2.762-1.043zm1.396-2.644c0 .435.127.798.38 1.089.263.28.592.42.986.42.395 0 .719-.135.972-.405.263-.269.394-.637.394-1.104 0-.446-.131-.809-.394-1.089a1.28 1.28 0 00-.972-.42c-.384 0-.708.14-.971.42-.263.27-.395.633-.395 1.089zm6.444 6.611v-10.111h2.277v.529c.465-.477 1.098-.716 1.897-.716.911 0 1.644.337 2.201 1.011.566.664.85 1.52.85 2.567 0 1.089-.339 1.996-1.017 2.722-.678.716-1.563 1.074-2.656 1.074-.516 0-.941-.073-1.275-.218V738h-2.277zm3.461-8.12c-.425 0-.82.207-1.184.622v2.131c.293.177.647.265 1.062.265.476 0 .835-.145 1.078-.436.253-.301.379-.679.379-1.135 0-.426-.121-.773-.364-1.043-.233-.269-.556-.404-.971-.404zm5.047 5.009v-7h2.049l2.049 2.38 1.897-2.38h1.988v7h-2.276v-3.438l-1.655 1.945h-.045l-1.73-1.945v3.438h-2.277zm11.925 0h-2.276v-7h2.276v3.655l2.429-3.655h2.276v7h-2.276v-3.656l-2.429 3.656zm5.848-4.667v-2.333h6.223v2.333h-1.973v4.667h-2.276v-4.667h-1.974zm7.365 4.667v-7h2.276v1.633h.789c1.103 0 1.898.244 2.383.731.486.477.729 1.074.729 1.789 0 .788-.268 1.462-.805 2.022-.536.55-1.361.825-2.474.825h-2.898zm2.868-3.5h-.592v1.478h.577c.597 0 .895-.244.895-.731 0-.498-.293-.747-.88-.747zm7.492 3.5v-7h2.276v3.235l1.852-3.235h2.853l-2.215 3.329 2.549 3.671h-2.944l-2.095-3.267v3.267h-2.276zm8.821-4.807l-.562-1.695c.294-.187.673-.348 1.139-.483a5.133 5.133 0 011.396-.202c1.012 0 1.735.249 2.17.747.446.498.668 1.239.668 2.224v4.216h-1.973v-.638c-.334.488-.931.731-1.791.731-.637 0-1.158-.192-1.563-.575-.395-.394-.592-.939-.592-1.634 0-.757.228-1.332.683-1.726.465-.394 1.057-.591 1.776-.591.566 0 1.012.129 1.335.388.041-.798-.273-1.197-.941-1.197-.445 0-1.027.145-1.745.435zm1.821 2.956c.405 0 .693-.119.865-.358v-.436c-.212-.155-.5-.233-.865-.233a.75.75 0 00-.47.14.461.461 0 00-.182.389c0 .156.06.28.182.373a.815.815 0 00.47.125zM933.93 738v-10.111h2.276v.529c.466-.477 1.098-.716 1.897-.716.911 0 1.645.337 2.201 1.011.567.664.85 1.52.85 2.567 0 1.089-.339 1.996-1.017 2.722-.678.716-1.563 1.074-2.656 1.074-.516 0-.941-.073-1.275-.218V738h-2.276zm3.46-8.12c-.425 0-.82.207-1.184.622v2.131c.294.177.648.265 1.063.265.475 0 .834-.145 1.077-.436.253-.301.38-.679.38-1.135 0-.426-.122-.773-.365-1.043-.232-.269-.556-.404-.971-.404zm4.249.342v-2.333h6.223v2.333h-1.973v4.667h-2.277v-4.667h-1.973zM956 727.889l-2.656 7c-.486 1.224-.921 2.048-1.305 2.473-.385.425-.845.638-1.381.638-.577 0-1.119-.218-1.624-.653l.728-1.758c.243.166.46.249.653.249.283 0 .501-.192.652-.576l.152-.373-3.051-7h2.748l1.168 3.204c.061.166.147.488.258.965.041-.415.096-.742.167-.98l.896-3.189H956z" fill="#141414"/><circle cx="830.75" cy="554.75" r="12.75" stroke="#C5CDCF" stroke-width="2"/><path d="M828.55 552.172l2.508-1.822h1.425v9.24h-1.98v-6.428l-.924.646-1.029-1.636z" fill="#141414"/><rect x="853.75" y="544.75" width="138.25" height="6.25" rx="1" stroke="#C5CDCF" stroke-width="2"/><rect x="853.75" y="558.5" width="64.55" height="6.25" rx="1" stroke="#C5CDCF" stroke-width="2"/><circle cx="830.75" cy="599.75" r="12.75" stroke="#C5CDCF" stroke-width="2"/><path d="M828 604.207v-1.584c.079-.07.295-.277.647-.62.361-.352.603-.594.726-.726s.334-.352.633-.66c.3-.317.511-.568.634-.752.123-.185.268-.41.436-.674.176-.272.294-.523.356-.752a2.34 2.34 0 00.106-.686c0-.608-.282-.911-.845-.911-.264 0-.471.088-.621.264-.149.167-.281.409-.396.726l-1.65-.753c.15-.677.471-1.214.964-1.61.502-.405 1.148-.607 1.94-.607.854 0 1.518.242 1.994.726.484.484.726 1.073.726 1.769 0 1.751-1.03 3.418-3.089 5.002h3.405v1.848H828z" fill="#141414"/><rect x="853.75" y="589.75" width="138.25" height="6.25" rx="2" stroke="#C5CDCF" stroke-width="2"/><rect x="853.75" y="603.5" width="64.55" height="6.25" rx="2" stroke="#C5CDCF" stroke-width="2"/><circle cx="830.75" cy="643.812" r="12.75" stroke="#C5CDCF" stroke-width="2"/><path d="M830.499 648.419c-.73 0-1.355-.141-1.874-.423-.519-.29-.911-.66-1.175-1.109l1.096-1.465c.589.678 1.197 1.017 1.821 1.017.379 0 .665-.084.858-.251a.824.824 0 00.304-.647c0-.678-.524-1.016-1.571-1.016h-.581v-1.98h.528c.37 0 .674-.08.911-.238a.773.773 0 00.357-.686.78.78 0 00-.212-.555c-.132-.149-.343-.224-.633-.224-.616 0-1.149.277-1.597.831l-1.083-1.425c.572-.924 1.527-1.386 2.865-1.386.818 0 1.482.215 1.993.647.519.422.779.994.779 1.716 0 .536-.115.981-.344 1.333-.22.343-.563.62-1.029.831v.04c.554.106.981.356 1.28.752.299.396.449.876.449 1.439 0 .854-.299 1.536-.898 2.046-.589.502-1.337.753-2.244.753z" fill="#141414"/><rect x="853.75" y="633.812" width="138.25" height="6.25" rx="2" stroke="#C5CDCF" stroke-width="2"/><rect x="853.75" y="647.562" width="64.55" height="6.25" rx="2" stroke="#C5CDCF" stroke-width="2"/><circle cx="830.75" cy="687.812" r="12.75" stroke="#C5CDCF" stroke-width="2"/><path d="M831.098 692.652v-1.98H826.9v-1.479l3.3-5.781h2.271l-3.023 5.28h1.65v-1.98h1.98v1.98h1.082v1.98h-1.082v1.98h-1.98z" fill="#141414"/><rect x="853.75" y="677.812" width="138.25" height="6.25" rx="2" stroke="#C5CDCF" stroke-width="2"/><rect x="853.75" y="691.562" width="64.55" height="6.25" rx="2" stroke="#C5CDCF" stroke-width="2"/><path d="M819 529.711v-11.514h2.6v5.017l3.722-5.017h3.12l-4.274 5.313 4.615 6.201h-3.299l-3.884-5.477v5.477H819zm11.464-5.083l-.602-1.792c.314-.198.721-.368 1.219-.51a5.515 5.515 0 011.495-.214c1.084 0 1.858.263 2.324.789.477.527.715 1.311.715 2.352v4.458h-2.112v-.675c-.358.516-.997.773-1.918.773-.683 0-1.241-.203-1.674-.608-.423-.417-.634-.993-.634-1.727 0-.801.244-1.409.731-1.826.499-.417 1.133-.625 1.902-.625.607 0 1.083.137 1.43.411.043-.844-.292-1.266-1.008-1.266-.476 0-1.099.153-1.868.46zm1.95 3.125c.433 0 .742-.126.926-.378v-.461c-.227-.164-.536-.246-.926-.246a.809.809 0 00-.504.148.486.486 0 00-.195.411c0 .164.065.296.195.395a.89.89 0 00.504.131zm4.824 1.958v-7.402h2.438v3.421l1.982-3.421h3.056l-2.373 3.52 2.73 3.882h-3.153l-2.242-3.454v3.454h-2.438zm13.121-2.912v-1.644h2.877c-.249-.603-.759-.905-1.528-.905-.596 0-1.246.219-1.95.658l-.991-1.711c.346-.351.791-.619 1.332-.806a4.801 4.801 0 011.56-.279c1.301 0 2.319.351 3.056 1.052.747.702 1.121 1.651 1.121 2.846 0 1.129-.357 2.061-1.073 2.796-.704.735-1.69 1.102-2.957 1.102-1.344 0-2.389-.395-3.137-1.184l1.138-1.612c.487.438 1.105.658 1.852.658.889 0 1.431-.324 1.626-.971h-2.926zm6.005-2.023v-2.467h6.664v2.467h-2.113v4.935h-2.438v-4.935h-2.113zm8.394 4.03c-.737-.735-1.105-1.667-1.105-2.796 0-1.13.368-2.062 1.105-2.796.748-.735 1.733-1.102 2.958-1.102 1.224 0 2.205.367 2.941 1.102.748.734 1.122 1.666 1.122 2.796 0 1.129-.374 2.061-1.122 2.796-.736.735-1.717 1.102-2.941 1.102-1.225 0-2.21-.367-2.958-1.102zm1.495-2.796c0 .46.136.844.406 1.151a1.4 1.4 0 001.057.444c.422 0 .769-.142 1.04-.427.282-.285.422-.675.422-1.168 0-.472-.14-.855-.422-1.151a1.378 1.378 0 00-1.04-.445c-.412 0-.759.148-1.04.445-.282.285-.423.668-.423 1.151zm10.154 6.99v-10.691h2.437v.559c.499-.504 1.176-.756 2.032-.756.975 0 1.76.356 2.356 1.069.607.702.91 1.606.91 2.714 0 1.151-.363 2.11-1.089 2.878-.726.757-1.674 1.135-2.844 1.135-.552 0-1.007-.077-1.365-.23V533h-2.437zm3.705-8.586c-.455 0-.878.22-1.268.658v2.254c.314.186.694.279 1.138.279.509 0 .894-.153 1.154-.46.271-.318.406-.718.406-1.201 0-.449-.13-.817-.39-1.102-.249-.285-.596-.428-1.04-.428zm6.184.214l-.601-1.792c.314-.198.72-.368 1.219-.51a5.51 5.51 0 011.495-.214c1.083 0 1.858.263 2.324.789.477.527.715 1.311.715 2.352v4.458h-2.113v-.675c-.357.516-.996.773-1.917.773-.683 0-1.241-.203-1.674-.608-.423-.417-.634-.993-.634-1.727 0-.801.244-1.409.731-1.826.499-.417 1.132-.625 1.902-.625.606 0 1.083.137 1.43.411.043-.844-.293-1.266-1.008-1.266-.476 0-1.099.153-1.869.46zm1.95 3.125c.434 0 .743-.126.927-.378v-.461c-.228-.164-.536-.246-.927-.246a.808.808 0 00-.503.148.486.486 0 00-.195.411c0 .164.065.296.195.395.13.087.298.131.503.131zM898.401 518l1.268 2.039a2.87 2.87 0 01-1.008.724c-.368.143-.78.269-1.235.378-.455.11-.834.247-1.138.412-.736.394-1.159 1.047-1.267 1.957h.032c.217-.296.531-.543.943-.74a3.03 3.03 0 011.3-.296c.964 0 1.744.329 2.34.987.596.646.894 1.518.894 2.615 0 1.074-.357 1.984-1.073 2.73-.715.735-1.657 1.102-2.827 1.102-1.268 0-2.259-.428-2.974-1.283-.715-.855-1.073-2.012-1.073-3.47 0-3.136.937-5.121 2.812-5.954a6.892 6.892 0 011.218-.395c.434-.11.781-.214 1.041-.313.27-.098.52-.263.747-.493zm-3.218 7.681c.011.526.136.981.374 1.365.238.373.574.559 1.008.559.444 0 .78-.131 1.007-.394.239-.275.358-.615.358-1.02 0-.406-.109-.74-.325-1.003-.217-.275-.531-.412-.943-.412-.715 0-1.208.302-1.479.905zm7.426 3.125c-.736-.735-1.105-1.667-1.105-2.796 0-1.13.369-2.062 1.105-2.796.748-.735 1.734-1.102 2.958-1.102 1.224 0 2.205.367 2.942 1.102.747.734 1.121 1.666 1.121 2.796 0 1.129-.374 2.061-1.121 2.796-.737.735-1.718 1.102-2.942 1.102-1.224 0-2.21-.367-2.958-1.102zm1.496-2.796c0 .46.135.844.406 1.151.281.296.634.444 1.056.444.423 0 .769-.142 1.04-.427.282-.285.423-.675.423-1.168 0-.472-.141-.855-.423-1.151a1.375 1.375 0 00-1.04-.445c-.412 0-.758.148-1.04.445-.282.285-.422.668-.422 1.151zm6.045-1.234v-2.467h6.663v2.467H914.7v4.935h-2.437v-4.935h-2.113zm8.665-.148l-.601-1.792c.314-.198.72-.368 1.219-.51a5.51 5.51 0 011.495-.214c1.083 0 1.858.263 2.324.789.477.527.715 1.311.715 2.352v4.458h-2.113v-.675c-.357.516-.997.773-1.917.773-.683 0-1.241-.203-1.674-.608-.423-.417-.634-.993-.634-1.727 0-.801.244-1.409.731-1.826.498-.417 1.132-.625 1.902-.625.606 0 1.083.137 1.43.411.043-.844-.293-1.266-1.008-1.266-.477 0-1.1.153-1.869.46zm1.95 3.125c.434 0 .742-.126.927-.378v-.461c-.228-.164-.537-.246-.927-.246a.806.806 0 00-.503.148.486.486 0 00-.195.411c0 .164.065.296.195.395.13.087.297.131.503.131zm10.561-.427l.667 1.743c-.737.559-1.685.839-2.844.839-1.203 0-2.167-.356-2.893-1.069-.715-.713-1.073-1.656-1.073-2.829 0-1.108.363-2.034 1.089-2.78.737-.745 1.696-1.118 2.877-1.118.975 0 1.809.329 2.502.987.694.647 1.04 1.48 1.04 2.5 0 .493-.048.904-.146 1.233h-4.843c.217.68.786 1.02 1.707 1.02.725 0 1.365-.175 1.917-.526zm-2.259-3.158c-.726 0-1.208.34-1.446 1.02h2.633a.928.928 0 00-.325-.708c-.206-.208-.493-.312-.862-.312zm4.27.608v-2.467H940v2.467h-2.113v4.935h-2.437v-4.935h-2.113z" fill="#141414"/><rect x="807" y="873" width="53" height="44" rx="5" fill="#F6F4F2"/><rect x="871" y="873" width="53" height="44" rx="5" fill="#F6F4F2"/><rect x="935" y="873" width="53" height="44" rx="5" fill="#F6F4F2"/><path d="M817 857.889V847h2.265l3.039 4.589 2.871-4.589h2.124v10.889h-2.251v-6.938l-2.744 4.247h-.323l-2.73-4.2v6.891H817zm13.016-4.807l-.52-1.695c.272-.187.623-.348 1.055-.483a4.438 4.438 0 011.294-.202c.938 0 1.609.249 2.012.747.413.498.619 1.239.619 2.224v4.216h-1.829v-.638c-.309.488-.863.731-1.66.731-.591 0-1.074-.192-1.449-.575-.366-.394-.549-.939-.549-1.634 0-.757.211-1.332.633-1.726.432-.394.98-.591 1.646-.591.526 0 .938.129 1.239.388.037-.798-.254-1.197-.873-1.197-.413 0-.952.145-1.618.435zm1.689 2.956c.375 0 .642-.119.802-.358v-.436c-.197-.155-.465-.233-.802-.233a.664.664 0 00-.437.14.478.478 0 00-.168.389c0 .156.056.28.168.373a.718.718 0 00.437.125zm4.176 1.851v-7h4.502v2.178h-2.391v4.822h-2.111zm6.089-4.807l-.521-1.695c.272-.187.624-.348 1.056-.483a4.438 4.438 0 011.294-.202c.938 0 1.609.249 2.012.747.413.498.619 1.239.619 2.224v4.216h-1.829v-.638c-.309.488-.863.731-1.66.731-.591 0-1.074-.192-1.449-.575-.366-.394-.549-.939-.549-1.634 0-.757.211-1.332.633-1.726.432-.394.98-.591 1.646-.591.526 0 .938.129 1.238.388.038-.798-.253-1.197-.872-1.197-.413 0-.952.145-1.618.435zm1.688 2.956c.376 0 .643-.119.802-.358v-.436c-.197-.155-.464-.233-.802-.233a.663.663 0 00-.436.14.479.479 0 00-.169.389c0 .156.057.28.169.373a.717.717 0 00.436.125zm6.583 2.038c-.61 0-1.187-.12-1.731-.358-.544-.249-.933-.55-1.167-.902l1.069-1.432c.169.218.413.41.731.576.329.166.638.249.929.249.61 0 .915-.166.915-.498 0-.352-.226-.529-.676-.529h-1.21v-1.555h1.14c.206 0 .356-.052.45-.156a.584.584 0 00.155-.404c0-.332-.272-.498-.816-.498-.507 0-1.046.27-1.618.809l-.873-1.4c.638-.851 1.604-1.276 2.899-1.276.863 0 1.519.182 1.97.545.459.363.689.866.689 1.509 0 .331-.108.637-.324.917-.206.27-.483.467-.83.591v.032c.863.217 1.295.767 1.295 1.648 0 .654-.272 1.172-.816 1.556-.544.384-1.271.576-2.181.576zm6.437-.187h-2.11v-7h2.11v3.655l2.251-3.655h2.111v7h-2.111v-3.656l-2.251 3.656zm10.064 0v-2.411h-2.04v2.411h-2.11v-7h2.11v2.411h2.04v-2.411h2.111v7h-2.111zm3.654 0v-7h2.111v1.633h.661c1.022 0 1.759.244 2.209.731.45.477.675 1.074.675 1.789 0 .788-.248 1.462-.745 2.022-.498.55-1.262.825-2.294.825h-2.617zm6.261 0v-7h2.111v7h-2.111zm-3.672-3.5h-.478v1.478h.464c.553 0 .83-.244.83-.731 0-.498-.272-.747-.816-.747zm14.229 3.5v-4.822h-1.97v4.822h-2.111v-7h6.191v7h-2.11zm4.33-4.807l-.52-1.695c.272-.187.623-.348 1.055-.483a4.438 4.438 0 011.294-.202c.938 0 1.609.249 2.012.747.413.498.619 1.239.619 2.224v4.216h-1.829v-.638c-.309.488-.863.731-1.66.731-.591 0-1.074-.192-1.449-.575-.366-.394-.549-.939-.549-1.634 0-.757.211-1.332.633-1.726.432-.394.981-.591 1.646-.591.526 0 .938.129 1.239.388.037-.798-.254-1.197-.873-1.197-.412 0-.952.145-1.618.435zm1.689 2.956c.375 0 .642-.119.802-.358v-.436c-.197-.155-.465-.233-.802-.233a.664.664 0 00-.437.14.478.478 0 00-.168.389c0 .156.056.28.168.373a.718.718 0 00.437.125zm4.176 4.962v-10.111h2.111v.529c.431-.477 1.017-.716 1.758-.716.845 0 1.525.337 2.041 1.011.525.664.787 1.52.787 2.567 0 1.089-.314 1.996-.942 2.722-.629.716-1.449 1.074-2.462 1.074-.479 0-.873-.073-1.182-.218V861h-2.111zm3.208-8.12c-.394 0-.76.207-1.097.622v2.131c.272.177.6.265.985.265.44 0 .773-.145.999-.436.234-.301.351-.679.351-1.135 0-.426-.112-.773-.337-1.043-.216-.269-.516-.404-.901-.404zm3.939.342v-2.333h5.769v2.333h-1.829v4.667h-2.111v-4.667h-1.829zm10.977 4.667v-2.411h-2.04v2.411h-2.11v-7h2.11v2.411h2.04v-2.411h2.111v7h-2.111zm8.621-2.256l.577 1.649c-.638.529-1.459.794-2.462.794-1.042 0-1.876-.337-2.505-1.012-.619-.674-.928-1.565-.928-2.675 0-1.048.314-1.924.942-2.629.638-.705 1.468-1.058 2.491-1.058.844 0 1.566.311 2.166.934.601.611.901 1.4.901 2.364 0 .467-.042.856-.127 1.167h-4.193c.188.643.68.964 1.478.964.628 0 1.182-.166 1.66-.498zm-1.956-2.986c-.628 0-1.046.321-1.252.964h2.279a.91.91 0 00-.281-.669c-.178-.197-.427-.295-.746-.295zm4.189 8.353v-10.111h2.111v.529c.431-.477 1.017-.716 1.758-.716.844 0 1.525.337 2.04 1.011.526.664.788 1.52.788 2.567 0 1.089-.314 1.996-.942 2.722-.629.716-1.45 1.074-2.463 1.074-.478 0-.872-.073-1.181-.218V861h-2.111zm3.208-8.12c-.394 0-.76.207-1.097.622v2.131c.272.177.6.265.984.265.441 0 .774-.145.999-.436.235-.301.352-.679.352-1.135 0-.426-.112-.773-.338-1.043-.215-.269-.515-.404-.9-.404zm5.284 4.153c-.638-.694-.957-1.576-.957-2.644s.319-1.95.957-2.645c.647-.694 1.501-1.042 2.561-1.042s1.908.348 2.546 1.042c.647.695.971 1.577.971 2.645s-.324 1.95-.971 2.644c-.638.695-1.486 1.043-2.546 1.043-1.06 0-1.914-.348-2.561-1.043zm1.294-2.644c0 .435.118.798.352 1.089.244.28.549.42.915.42.365 0 .666-.135.9-.405.244-.269.366-.637.366-1.104 0-.446-.122-.809-.366-1.089a1.148 1.148 0 00-.9-.42c-.357 0-.657.14-.901.42-.244.27-.366.633-.366 1.089zm5.974 3.5v-7c.113 0 .333-.01.661-.031.329-.021.671-.037 1.027-.047.366-.01.709-.015 1.027-.015 1.998 0 2.997.622 2.997 1.866 0 .405-.112.747-.337 1.027-.225.28-.483.446-.774.498v.031c.394.124.699.326.914.606.225.27.338.592.338.965 0 1.462-1.041 2.193-3.124 2.193-.281 0-.764-.015-1.449-.046a36.418 36.418 0 00-1.28-.047zm2.786-2.8h-.676v.964c.413.042.699.063.859.063a.744.744 0 00.464-.14.461.461 0 00.183-.358c0-.353-.277-.529-.83-.529zm.126-2.427c-.365 0-.633.016-.802.047v.98h.704c.441 0 .661-.176.661-.529a.44.44 0 00-.155-.342c-.093-.104-.229-.156-.408-.156z" fill="#141414"/><path d="M807 945h194" stroke="#C5CDCF" stroke-width="2"/><path d="M807 993.33V971a5 5 0 015-5h101a5 5 0 015 5v22.33a5 5 0 01-5 5H812a5 5 0 01-5-5z" stroke="#C5CDCF" stroke-width="3"/><path d="M848.576 985.937v-9.053h2.069v7.113h3.686v1.94h-5.755zm7.797-.712c-.586-.577-.879-1.31-.879-2.198 0-.888.293-1.621.879-2.198.595-.578 1.38-.867 2.354-.867.974 0 1.754.289 2.341.867.594.577.892 1.31.892 2.198 0 .888-.298 1.621-.892 2.198-.587.578-1.367.867-2.341.867-.974 0-1.759-.289-2.354-.867zm1.19-2.198c0 .362.108.664.323.905.224.233.505.349.841.349.336 0 .612-.112.827-.336.225-.224.337-.53.337-.918 0-.371-.112-.672-.337-.905a1.102 1.102 0 00-.827-.349c-.328 0-.604.116-.828.349-.224.224-.336.526-.336.905zm5.426 3.66c0-.483.172-.88.517-1.19.345-.31.815-.526 1.41-.647a.709.709 0 01-.078-.323c0-.129.03-.241.091-.336a2.38 2.38 0 01-1.061-.802 2.05 2.05 0 01-.375-1.19c0-.612.233-1.138.699-1.577.474-.44 1.099-.66 1.875-.66.569 0 1.064.129 1.487.388l1.823-.362.065 1.552-.867.168c.044.19.065.353.065.491 0 .578-.22 1.078-.659 1.5-.431.414-1 .643-1.707.686a.722.722 0 00.025.362c.845.026 1.535.203 2.07.53.534.328.801.798.801 1.41 0 .638-.288 1.121-.866 1.448-.578.328-1.319.492-2.224.492-.914 0-1.66-.16-2.238-.479-.569-.319-.853-.806-.853-1.461zm1.81 0c0 .258.427.388 1.281.388.853 0 1.28-.13 1.28-.388 0-.267-.427-.401-1.28-.401-.854 0-1.281.134-1.281.401zm.712-4.966a.63.63 0 00-.207.478c0 .19.064.345.194.466.138.112.327.168.569.168.224 0 .405-.056.543-.168a.555.555 0 00.22-.466.666.666 0 00-.194-.491c-.13-.129-.319-.194-.569-.194-.233 0-.418.069-.556.207zm5.908 3.504c-.586-.577-.879-1.31-.879-2.198 0-.888.293-1.621.879-2.198.595-.578 1.38-.867 2.354-.867.974 0 1.754.289 2.341.867.595.577.892 1.31.892 2.198 0 .888-.297 1.621-.892 2.198-.587.578-1.367.867-2.341.867-.974 0-1.759-.289-2.354-.867zm1.19-2.198c0 .362.108.664.323.905.225.233.505.349.841.349a1.1 1.1 0 00.828-.336c.224-.224.336-.53.336-.918 0-.371-.112-.672-.336-.905a1.104 1.104 0 00-.828-.349c-.328 0-.604.116-.828.349-.224.224-.336.526-.336.905z" fill="#C5CDCF"/><rect x="806" y="1011" width="148" height="12" rx="2" stroke="#C5CDCF" stroke-width="2"/><rect x="806" y="1031" width="53" height="12" rx="2" stroke="#C5CDCF" stroke-width="2"/><rect x="876" y="1031" width="53" height="12" rx="2" stroke="#C5CDCF" stroke-width="2"/><path d="M19 1248V429c0-5.523 4.477-10 10-10h622c5.523 0 10 4.477 10 10v819c0 5.52-4.477 10-10 10H29c-5.523 0-10-4.48-10-10z" fill="#fff" stroke="#C5CDCF" stroke-width="5"/><path d="M4 407.412V14C4 8.477 8.477 4 14 4h651c5.523 0 10 4.477 10 10v393.412c0 5.523-4.477 10-10 10H14c-5.523 0-10-4.477-10-10z" fill="#fff" stroke="#C5CDCF" stroke-width="7"/><path d="M519 158a5 5 0 015-5h148v253a8 8 0 01-8 8H519V158z" fill="#F6F4F2"/><path d="M55.518 90.587V62.425a5 5 0 015-5h121.019a5 5 0 015 5v28.162a5 5 0 01-5 5H60.517a5 5 0 01-5-5z" stroke="#C5CDCF" stroke-width="5"/><path d="M104.593 80.958V70.273h2.442v8.395h4.35v2.29h-6.792zm9.203-.84c-.692-.681-1.038-1.546-1.038-2.594 0-1.049.346-1.914 1.038-2.595.702-.682 1.628-1.023 2.778-1.023 1.15 0 2.071.34 2.763 1.023.702.681 1.053 1.546 1.053 2.595 0 1.048-.351 1.913-1.053 2.594-.692.682-1.613 1.023-2.763 1.023s-2.076-.34-2.778-1.023zm1.404-2.594c0 .427.128.783.382 1.068.265.275.595.412.992.412s.723-.132.977-.397c.265-.264.397-.626.397-1.083 0-.438-.132-.794-.397-1.069a1.302 1.302 0 00-.977-.412c-.387 0-.712.137-.977.412-.264.265-.397.62-.397 1.069zm6.405 4.319c0-.57.203-1.038.61-1.404.408-.366.962-.62 1.664-.763a.844.844 0 01-.091-.382.72.72 0 01.107-.397c-.53-.213-.947-.529-1.252-.946a2.42 2.42 0 01-.443-1.404c0-.723.275-1.344.824-1.863.56-.519 1.298-.778 2.214-.778.671 0 1.257.152 1.755.458l2.153-.428.076 1.832-1.023.199c.051.224.076.417.076.58 0 .681-.259 1.272-.778 1.77-.509.489-1.18.759-2.015.81a.808.808 0 00.031.427c.997.03 1.811.239 2.442.626.631.386.946.94.946 1.663 0 .754-.341 1.323-1.022 1.71-.682.387-1.557.58-2.626.58-1.079 0-1.959-.188-2.641-.565-.671-.376-1.007-.951-1.007-1.725zm2.137 0c0 .306.504.458 1.511.458 1.008 0 1.511-.152 1.511-.458 0-.315-.503-.473-1.511-.473-1.007 0-1.511.158-1.511.473zm.839-5.861a.746.746 0 00-.244.565.72.72 0 00.229.55c.163.132.387.198.672.198.264 0 .478-.067.641-.199a.653.653 0 00.259-.55.785.785 0 00-.229-.58c-.152-.152-.376-.228-.671-.228-.275 0-.494.081-.657.244zm6.975 4.136c-.692-.681-1.038-1.546-1.038-2.594 0-1.049.346-1.914 1.038-2.595.702-.682 1.628-1.023 2.778-1.023 1.15 0 2.071.34 2.763 1.023.702.681 1.053 1.546 1.053 2.595 0 1.048-.351 1.913-1.053 2.594-.692.682-1.613 1.023-2.763 1.023s-2.076-.34-2.778-1.023zm1.404-2.594c0 .427.127.783.382 1.068.264.275.595.412.992.412s.723-.132.977-.397c.265-.264.397-.626.397-1.083 0-.438-.132-.794-.397-1.069a1.303 1.303 0 00-.977-.412c-.387 0-.712.137-.977.412-.264.265-.397.62-.397 1.069z" fill="#C5CDCF"/><path d="M64.422 149.648h-4.07V131.84c.305 0 1.161-.009 2.569-.026a291.62 291.62 0 012.875-.025c2.527 0 4.358.56 5.495 1.679 1.136 1.102 1.704 2.51 1.704 4.223 0 1.662-.602 3.078-1.806 4.249-1.204 1.153-2.798 1.73-4.783 1.73-.899 0-1.56-.026-1.984-.077v6.055zm1.78-14.043c-.067 0-.66.017-1.78.051v4.07c.644.085 1.263.128 1.857.128.645 0 1.204-.17 1.68-.509.474-.339.712-.899.712-1.679 0-1.374-.823-2.061-2.468-2.061zm10.485 6.182l-.941-2.773c.492-.305 1.128-.568 1.908-.789a8.775 8.775 0 012.34-.33c1.696 0 2.909.407 3.638 1.221.746.814 1.12 2.027 1.12 3.638v6.894h-3.308v-1.043c-.56.797-1.56 1.196-3.002 1.196-1.068 0-1.942-.314-2.62-.941-.662-.645-.992-1.535-.992-2.672 0-1.238.381-2.179 1.145-2.824.78-.644 1.772-.966 2.976-.966.95 0 1.696.212 2.239.636.068-1.306-.458-1.959-1.577-1.959-.747 0-1.722.237-2.926.712zm3.053 4.834c.678 0 1.162-.195 1.45-.585v-.713c-.356-.254-.84-.381-1.45-.381-.322 0-.585.076-.789.229a.749.749 0 00-.305.636c0 .254.102.458.305.61.204.136.467.204.789.204zm17.372-1.501l1.78 2.798c-.983 1.357-2.543 2.036-4.68 2.036-1.9 0-3.426-.552-4.58-1.654-1.136-1.103-1.704-2.561-1.704-4.376 0-1.696.56-3.121 1.679-4.274 1.136-1.17 2.595-1.755 4.376-1.755 2.086 0 3.646.542 4.68 1.628l-1.755 3.002c-.712-.713-1.526-1.069-2.442-1.069-.644 0-1.221.221-1.73.662-.492.441-.738 1.043-.738 1.806 0 .729.255 1.323.763 1.781.526.458 1.111.687 1.756.687.933 0 1.798-.424 2.595-1.272zm12.999 0l1.78 2.798c-.983 1.357-2.544 2.036-4.681 2.036-1.899 0-3.426-.552-4.579-1.654-1.136-1.103-1.705-2.561-1.705-4.376 0-1.696.56-3.121 1.679-4.274 1.137-1.17 2.595-1.755 4.376-1.755 2.086 0 3.647.542 4.681 1.628l-1.755 3.002c-.712-.713-1.526-1.069-2.442-1.069-.645 0-1.221.221-1.73.662-.492.441-.738 1.043-.738 1.806 0 .729.254 1.323.763 1.781.526.458 1.111.687 1.756.687.932 0 1.797-.424 2.595-1.272zm5.071 9.616V138.2h3.816v.865c.78-.78 1.84-1.17 3.18-1.17 1.527 0 2.756.551 3.689 1.653.95 1.086 1.425 2.485 1.425 4.198 0 1.781-.568 3.265-1.705 4.452-1.136 1.17-2.62 1.756-4.452 1.756-.865 0-1.577-.119-2.137-.357v5.139h-3.816zm5.801-13.28c-.713 0-1.374.34-1.985 1.018v3.485c.492.289 1.086.433 1.781.433.797 0 1.399-.238 1.806-.713.424-.491.636-1.11.636-1.857 0-.695-.203-1.263-.61-1.704-.39-.441-.933-.662-1.628-.662zm10.826 6.793c-1.153-1.136-1.73-2.578-1.73-4.325 0-1.747.577-3.189 1.73-4.325 1.17-1.136 2.714-1.704 4.63-1.704 1.917 0 3.452.568 4.605 1.704 1.17 1.136 1.755 2.578 1.755 4.325 0 1.747-.585 3.189-1.755 4.325-1.153 1.136-2.688 1.705-4.605 1.705-1.916 0-3.46-.569-4.63-1.705zm2.34-4.325c0 .712.212 1.306.636 1.781.441.458.993.687 1.654.687.662 0 1.204-.221 1.628-.662.441-.441.662-1.043.662-1.806 0-.729-.221-1.323-.662-1.781a2.17 2.17 0 00-1.628-.687c-.644 0-1.187.229-1.628.687-.441.441-.662 1.035-.662 1.781zm21.996-5.724v11.448h-3.816v-3.46c-.73.323-1.578.484-2.544.484-1.493 0-2.57-.39-3.231-1.171-.645-.78-.967-1.925-.967-3.434V138.2h4.07v3.358c0 1.035.407 1.552 1.222 1.552.627 0 1.11-.085 1.45-.254V138.2h3.816zm4.07 11.448V138.2h3.816v5.292l3.104-5.292h4.783l-3.714 5.444 4.274 6.004h-4.936l-3.511-5.342v5.342h-3.816zm16.059-7.861l-.942-2.773c.492-.305 1.128-.568 1.908-.789a8.779 8.779 0 012.341-.33c1.696 0 2.909.407 3.638 1.221.746.814 1.119 2.027 1.119 3.638v6.894h-3.307v-1.043c-.56.797-1.56 1.196-3.002 1.196-1.069 0-1.942-.314-2.62-.941-.662-.645-.993-1.535-.993-2.672 0-1.238.382-2.179 1.145-2.824.78-.644 1.773-.966 2.977-.966.95 0 1.696.212 2.239.636.067-1.306-.458-1.959-1.578-1.959-.746 0-1.721.237-2.925.712zm3.052 4.834c.679 0 1.162-.195 1.451-.585v-.713c-.357-.254-.84-.381-1.451-.381-.322 0-.585.076-.788.229a.747.747 0 00-.305.636c0 .254.101.458.305.61.203.136.466.204.788.204zm23.534-15.087l1.985 3.155a4.49 4.49 0 01-1.578 1.119c-.576.221-1.221.416-1.933.586-.713.169-1.306.381-1.781.636-1.153.61-1.815 1.619-1.985 3.027h.051c.34-.458.831-.839 1.476-1.145a4.811 4.811 0 012.035-.458c1.51 0 2.731.509 3.664 1.527.932 1 1.399 2.349 1.399 4.045 0 1.662-.56 3.07-1.679 4.223-1.12 1.136-2.595 1.705-4.427 1.705-1.984 0-3.536-.662-4.656-1.985-1.119-1.323-1.679-3.112-1.679-5.368 0-4.851 1.467-7.92 4.402-9.209a10.864 10.864 0 011.908-.611 15.86 15.86 0 001.628-.483 3.166 3.166 0 001.17-.764zm-5.037 11.881c.017.814.212 1.518.585 2.112.373.576.899.865 1.577.865.696 0 1.222-.204 1.578-.611.373-.424.559-.95.559-1.577 0-.628-.169-1.145-.508-1.552-.34-.424-.831-.636-1.476-.636-1.119 0-1.891.466-2.315 1.399zm20.784 2.544l1.043 2.697c-1.154.865-2.638 1.298-4.452 1.298-1.883 0-3.393-.552-4.529-1.654-1.119-1.103-1.679-2.561-1.679-4.376 0-1.713.568-3.146 1.705-4.299 1.153-1.154 2.654-1.73 4.503-1.73 1.526 0 2.832.508 3.917 1.526 1.086 1.001 1.629 2.29 1.629 3.867 0 .763-.077 1.399-.229 1.908h-7.582c.34 1.052 1.23 1.577 2.672 1.577 1.136 0 2.137-.271 3.002-.814zm-3.537-4.884c-1.136 0-1.891.525-2.264 1.577h4.122c0-.424-.17-.789-.509-1.094-.323-.322-.772-.483-1.349-.483zm13.197 8.879a8.41 8.41 0 01-3.129-.586c-.984-.407-1.688-.899-2.112-1.475l1.934-2.341c.305.356.746.67 1.323.942.593.271 1.153.407 1.679.407 1.102 0 1.653-.272 1.653-.814 0-.577-.407-.865-1.221-.865h-2.188v-2.545h2.061c.373 0 .644-.084.814-.254a.902.902 0 00.28-.661c0-.543-.492-.814-1.476-.814-.916 0-1.891.44-2.925 1.322l-1.578-2.289c1.154-1.391 2.901-2.086 5.241-2.086 1.56 0 2.748.296 3.562.89.831.594 1.246 1.416 1.246 2.468 0 .543-.195 1.043-.585 1.501-.373.441-.873.763-1.501.967v.05c1.561.357 2.341 1.256 2.341 2.697 0 1.069-.492 1.917-1.476 2.544-.983.628-2.298.942-3.943.942zm22.838-.306v-7.886h-3.561v7.886h-3.816V138.2h11.194v11.448h-3.817zm7.882 5.088V138.2h3.816v.865c.78-.78 1.84-1.17 3.18-1.17 1.527 0 2.756.551 3.689 1.653.95 1.086 1.425 2.485 1.425 4.198 0 1.781-.568 3.265-1.705 4.452-1.136 1.17-2.62 1.756-4.452 1.756-.865 0-1.577-.119-2.137-.357v5.139h-3.816zm5.801-13.28c-.713 0-1.374.34-1.985 1.018v3.485c.492.289 1.086.433 1.781.433.797 0 1.399-.238 1.806-.713.424-.491.636-1.11.636-1.857 0-.695-.203-1.263-.61-1.704-.39-.441-.933-.662-1.628-.662zm10.826 6.793c-1.154-1.136-1.73-2.578-1.73-4.325 0-1.747.576-3.189 1.73-4.325 1.17-1.136 2.713-1.704 4.63-1.704 1.917 0 3.451.568 4.605 1.704 1.17 1.136 1.755 2.578 1.755 4.325 0 1.747-.585 3.189-1.755 4.325-1.154 1.136-2.688 1.705-4.605 1.705-1.917 0-3.46-.569-4.63-1.705zm2.34-4.325c0 .712.212 1.306.636 1.781.441.458.993.687 1.654.687.661 0 1.204-.221 1.628-.662.441-.441.662-1.043.662-1.806 0-.729-.221-1.323-.662-1.781a2.17 2.17 0 00-1.628-.687c-.644 0-1.187.229-1.628.687-.441.441-.662 1.035-.662 1.781zm12.074 5.724V138.2h3.816v7.887h3.307V138.2h3.816v7.887h1.908v6.105h-3.561v-2.544h-9.286zm24.762-3.689l1.043 2.697c-1.154.865-2.638 1.298-4.452 1.298-1.883 0-3.393-.552-4.529-1.654-1.119-1.103-1.679-2.561-1.679-4.376 0-1.713.568-3.146 1.704-4.299 1.154-1.154 2.655-1.73 4.504-1.73 1.526 0 2.832.508 3.917 1.526 1.086 1.001 1.629 2.29 1.629 3.867 0 .763-.077 1.399-.229 1.908h-7.582c.34 1.052 1.23 1.577 2.672 1.577 1.136 0 2.137-.271 3.002-.814zm-3.537-4.884c-1.136 0-1.891.525-2.264 1.577h4.121c0-.424-.169-.789-.508-1.094-.323-.322-.772-.483-1.349-.483zm16.352 8.573v-3.943h-3.689v3.943H320.1V138.2h3.816v3.943h3.689V138.2h3.816v11.448h-3.816zm6.988-7.632V138.2h10.431v3.816h-3.308v7.632H337.9v-7.632h-3.307zm14.411 6.233c-1.153-1.136-1.73-2.578-1.73-4.325 0-1.747.577-3.189 1.73-4.325 1.171-1.136 2.714-1.704 4.631-1.704 1.916 0 3.451.568 4.604 1.704 1.171 1.136 1.756 2.578 1.756 4.325 0 1.747-.585 3.189-1.756 4.325-1.153 1.136-2.688 1.705-4.604 1.705-1.917 0-3.46-.569-4.631-1.705zm2.341-4.325c0 .712.212 1.306.636 1.781.441.458.992.687 1.654.687.661 0 1.204-.221 1.628-.662.441-.441.661-1.043.661-1.806 0-.729-.22-1.323-.661-1.781a2.172 2.172 0 00-1.628-.687c-.645 0-1.188.229-1.629.687-.441.441-.661 1.035-.661 1.781zm12.073 5.724V138.2c.204 0 .602-.017 1.196-.051a60.483 60.483 0 011.857-.076 72.707 72.707 0 011.857-.026c3.613 0 5.419 1.018 5.419 3.053 0 .662-.203 1.221-.61 1.679-.407.458-.874.73-1.399.814v.051c.712.204 1.263.534 1.653.992.407.441.611.967.611 1.578 0 2.391-1.883 3.587-5.648 3.587-.509 0-1.382-.026-2.62-.076a77.637 77.637 0 00-2.316-.077zm5.038-4.579h-1.222v1.577c.747.068 1.264.102 1.552.102.34 0 .619-.076.84-.229.22-.17.331-.365.331-.585 0-.577-.501-.865-1.501-.865zm.229-3.969c-.662 0-1.145.026-1.451.076v1.603h1.273c.797 0 1.195-.288 1.195-.865a.696.696 0 00-.28-.559c-.169-.17-.415-.255-.737-.255zM63.277 177.633h-3.816v-11.448h3.816v5.978l4.07-5.978h3.817v11.448h-3.816v-5.978l-4.07 5.978zm25.708 0v-7.887h-3.562v7.887h-3.816v-11.448h11.194v11.448h-3.816zm16.862-3.689l1.043 2.697c-1.153.865-2.637 1.297-4.452 1.297-1.882 0-3.392-.551-4.528-1.653-1.12-1.103-1.68-2.561-1.68-4.376 0-1.713.569-3.146 1.705-4.3 1.154-1.153 2.655-1.73 4.503-1.73 1.527 0 2.833.509 3.918 1.527 1.086 1.001 1.628 2.29 1.628 3.867 0 .763-.076 1.399-.229 1.908h-7.581c.339 1.052 1.23 1.577 2.671 1.577 1.137 0 2.137-.271 3.002-.814zm-3.536-4.884c-1.136 0-1.891.525-2.264 1.577h4.121c0-.424-.169-.789-.509-1.094-.322-.322-.771-.483-1.348-.483zm8.846 13.661v-16.536h3.816v.865c.781-.78 1.841-1.171 3.181-1.171 1.526 0 2.756.552 3.688 1.654.95 1.086 1.425 2.485 1.425 4.198 0 1.781-.568 3.265-1.704 4.452-1.137 1.17-2.621 1.755-4.453 1.755-.864 0-1.577-.118-2.137-.356v5.139h-3.816zm5.801-13.28c-.712 0-1.374.339-1.985 1.018v3.485c.492.288 1.086.433 1.781.433.797 0 1.4-.238 1.807-.713.424-.492.636-1.111.636-1.857 0-.695-.204-1.263-.611-1.704-.39-.441-.933-.662-1.628-.662zm9.732 8.192v-11.448c.204 0 .602-.017 1.196-.051a72.645 72.645 0 013.714-.102c3.613 0 5.419 1.018 5.419 3.053 0 .661-.203 1.221-.61 1.679-.408.458-.874.729-1.4.814v.051c.713.204 1.264.534 1.654.992.407.441.61.967.61 1.578 0 2.391-1.882 3.587-5.647 3.587a74.13 74.13 0 01-2.621-.077 79.925 79.925 0 00-2.315-.076zm5.037-4.579h-1.221v1.577c.747.068 1.264.102 1.552.102.339 0 .619-.076.84-.229.22-.17.33-.365.33-.585 0-.577-.5-.865-1.501-.865zm.229-3.969c-.661 0-1.144.025-1.45.076v1.603h1.272c.797 0 1.196-.288 1.196-.865a.699.699 0 00-.28-.56c-.169-.169-.415-.254-.738-.254zm10.094 7.149c-1.154-1.137-1.73-2.578-1.73-4.325 0-1.747.576-3.189 1.73-4.325 1.17-1.136 2.713-1.705 4.63-1.705 1.917 0 3.451.569 4.605 1.705 1.17 1.136 1.755 2.578 1.755 4.325 0 1.747-.585 3.188-1.755 4.325-1.154 1.136-2.688 1.704-4.605 1.704-1.917 0-3.46-.568-4.63-1.704zm2.34-4.325c0 .712.212 1.306.636 1.781.441.458.993.687 1.654.687.661 0 1.204-.221 1.628-.662.441-.441.662-1.043.662-1.806 0-.729-.221-1.323-.662-1.781a2.17 2.17 0 00-1.628-.687c-.644 0-1.187.229-1.628.687-.441.441-.662 1.035-.662 1.781zm12.074 5.724v-11.448h8.141v3.561h-4.325v7.887h-3.816zm11.856-1.399c-1.153-1.137-1.73-2.578-1.73-4.325 0-1.747.577-3.189 1.73-4.325 1.171-1.136 2.714-1.705 4.631-1.705 1.916 0 3.451.569 4.604 1.705 1.171 1.136 1.756 2.578 1.756 4.325 0 1.747-.585 3.188-1.756 4.325-1.153 1.136-2.688 1.704-4.604 1.704-1.917 0-3.46-.568-4.631-1.704zm2.341-4.325c0 .712.212 1.306.636 1.781.441.458.992.687 1.654.687.661 0 1.204-.221 1.628-.662.441-.441.661-1.043.661-1.806 0-.729-.22-1.323-.661-1.781a2.172 2.172 0 00-1.628-.687c-.645 0-1.188.229-1.629.687-.441.441-.661 1.035-.661 1.781zm18.439 5.724v-11.448c.203 0 .602-.017 1.195-.051.594-.034 1.213-.06 1.857-.076a72.72 72.72 0 011.858-.026c3.612 0 5.418 1.018 5.418 3.053 0 .661-.203 1.221-.61 1.679-.407.458-.874.729-1.399.814v.051c.712.204 1.263.534 1.653.992.407.441.611.967.611 1.578 0 2.391-1.883 3.587-5.648 3.587-.509 0-1.382-.026-2.62-.077a80.037 80.037 0 00-2.315-.076zm5.037-4.579h-1.221v1.577c.746.068 1.263.102 1.551.102.34 0 .62-.076.84-.229.221-.17.331-.365.331-.585 0-.577-.501-.865-1.501-.865zm.229-3.969c-.662 0-1.145.025-1.45.076v1.603h1.272c.797 0 1.195-.288 1.195-.865a.7.7 0 00-.279-.56c-.17-.169-.416-.254-.738-.254zm13.35 8.853a8.415 8.415 0 01-3.13-.585c-.983-.407-1.687-.899-2.111-1.475l1.933-2.341c.306.356.747.67 1.323.941.594.272 1.154.407 1.679.407 1.103 0 1.654-.271 1.654-.814 0-.576-.407-.865-1.221-.865h-2.188v-2.544h2.061c.373 0 .644-.084.814-.254a.908.908 0 00.28-.662c0-.542-.492-.814-1.476-.814-.916 0-1.891.441-2.926 1.323l-1.577-2.289c1.153-1.391 2.9-2.087 5.241-2.087 1.56 0 2.747.297 3.561.891.832.593 1.247 1.416 1.247 2.468 0 .542-.195 1.043-.585 1.501-.373.441-.874.763-1.501.966v.051c1.56.356 2.34 1.255 2.34 2.697 0 1.068-.491 1.917-1.475 2.544-.984.628-2.298.941-3.943.941zm16.6-.305v-3.943h-3.689v3.943h-3.816v-11.448h3.816v3.943h3.689v-3.943h3.816v11.448h-3.816zm8.973-1.399c-1.154-1.137-1.73-2.578-1.73-4.325 0-1.747.576-3.189 1.73-4.325 1.17-1.136 2.713-1.705 4.63-1.705 1.916 0 3.451.569 4.605 1.705 1.17 1.136 1.755 2.578 1.755 4.325 0 1.747-.585 3.188-1.755 4.325-1.154 1.136-2.689 1.704-4.605 1.704-1.917 0-3.46-.568-4.63-1.704zm2.34-4.325c0 .712.212 1.306.636 1.781.441.458.992.687 1.654.687.661 0 1.204-.221 1.628-.662.441-.441.662-1.043.662-1.806 0-.729-.221-1.323-.662-1.781a2.172 2.172 0 00-1.628-.687 2.17 2.17 0 00-1.628.687c-.441.441-.662 1.035-.662 1.781zm20.622 1.196l1.781 2.798c-.984 1.357-2.544 2.035-4.681 2.035-1.9 0-3.427-.551-4.58-1.653-1.136-1.103-1.704-2.561-1.704-4.376 0-1.696.559-3.121 1.679-4.274 1.136-1.17 2.595-1.756 4.376-1.756 2.086 0 3.646.543 4.681 1.629l-1.756 3.002c-.712-.713-1.526-1.069-2.442-1.069-.645 0-1.221.221-1.73.662-.492.441-.738 1.043-.738 1.806 0 .729.255 1.323.763 1.781.526.458 1.111.687 1.756.687.933 0 1.798-.424 2.595-1.272zm6.293-3.333l-.942-2.773c.492-.305 1.128-.568 1.908-.789a8.781 8.781 0 012.341-.331c1.696 0 2.909.407 3.638 1.222.746.814 1.119 2.026 1.119 3.638v6.894h-3.307v-1.043c-.56.797-1.56 1.196-3.002 1.196-1.069 0-1.942-.314-2.62-.942-.662-.644-.993-1.535-.993-2.671 0-1.238.382-2.179 1.145-2.824.78-.644 1.773-.967 2.977-.967.95 0 1.696.212 2.239.636.067-1.305-.458-1.958-1.578-1.958-.746 0-1.721.237-2.925.712zm3.052 4.834c.679 0 1.162-.195 1.451-.586v-.712c-.357-.254-.84-.381-1.451-.381-.322 0-.585.076-.788.229a.747.747 0 00-.305.636c0 .254.101.457.305.61.203.136.466.204.788.204z" fill="#141414"/><path d="M57.426 204.434v-2.084a5 5 0 015-5h124.2a5 5 0 015 5v2.084a5 5 0 01-5 5h-124.2a5 5 0 01-5-5zm0 20.353v-2.085a5 5 0 015-5h100.031a5 5 0 015 5v2.085a5 5 0 01-5 5H62.426a5 5 0 01-5-5z" stroke="#C5CDCF" stroke-width="3"/><path d="M69.663 246.649l2.9-2.107h1.649v10.685h-2.29v-7.433l-1.068.748-1.19-1.893zm-12.237 14.303h32.437v2.544H57.426zm55.791-5.724v-1.832c.091-.082.341-.321.748-.718.417-.407.697-.686.839-.839.143-.153.387-.407.733-.763.346-.367.59-.657.733-.87.142-.214.31-.474.503-.779a3.16 3.16 0 00.413-.87c.081-.265.122-.529.122-.794 0-.702-.326-1.053-.977-1.053-.306 0-.545.102-.718.305-.173.194-.325.474-.458.84l-1.908-.87c.173-.784.545-1.404 1.115-1.862.58-.469 1.328-.703 2.244-.703.987 0 1.755.28 2.304.84.56.56.84 1.241.84 2.045 0 2.025-1.191 3.954-3.572 5.786h3.938v2.137h-6.899zm-13.815 5.724h32.437v2.544H99.402z" fill="#C5CDCF"/><path d="M159.051 255.411c-.844 0-1.567-.163-2.167-.489-.6-.335-1.053-.763-1.359-1.282l1.267-1.694c.682.783 1.384 1.175 2.107 1.175.437 0 .768-.097.992-.29a.954.954 0 00.351-.748c0-.783-.605-1.175-1.816-1.175h-.672v-2.29h.611c.427 0 .778-.091 1.053-.275.275-.183.412-.447.412-.793a.898.898 0 00-.244-.641c-.153-.173-.397-.26-.733-.26-.712 0-1.328.321-1.847.962l-1.252-1.649c.662-1.068 1.766-1.603 3.313-1.603.946 0 1.714.25 2.305.748.6.489.9 1.15.9 1.985 0 .62-.132 1.134-.397 1.541-.254.397-.651.718-1.19.962v.046c.641.122 1.134.412 1.48.87.346.458.519 1.012.519 1.664 0 .987-.346 1.776-1.038 2.366-.681.58-1.546.87-2.595.87zm-17.671 5.541h32.437v2.544H141.38v-2.544z" fill="#141414"/><path d="M200.449 255.227v-2.289h-4.854v-1.71l3.816-6.686h2.625l-3.495 6.106h1.908v-2.29h2.289v2.29h1.252v2.29h-1.252v2.289h-2.289zm-17.092 5.725h32.437v2.544h-32.437z" fill="#C5CDCF"/><path d="M190.989 394.604v-57.418a5 5 0 015-5h125.999a5 5 0 015 5v57.418a5 5 0 01-5 5H195.989a5 5 0 01-5-5z" fill="#fff" stroke="#C5CDCF" stroke-width="5"/><path d="M150.284 381.247v-57.418a5 5 0 015-5h125.999a5 5 0 015 5v57.418a5 5 0 01-5 5H155.284a5 5 0 01-5-5z" fill="#fff" stroke="#C5CDCF" stroke-width="5"/><path d="M113.396 361.531v-57.418a5 5 0 015-5h125.998a5 5 0 015 5v57.418a5 5 0 01-5 5H118.396a5 5 0 01-5-5z" fill="#fff" stroke="#C5CDCF" stroke-width="5"/><path d="M57.426 347.277V290.12a5 5 0 015-5h125.472a5 5 0 015 5v57.157a5 5 0 01-5 5H62.426a5 5 0 01-5-5z" fill="#fff" stroke="#C5CDCF" stroke-width="5"/><path d="M537.741 182.721c-1.757 0-3.069-.627-3.937-1.881l1.364-1.628c.795.846 1.616 1.269 2.463 1.269.408 0 .764-.084 1.067-.254.314-.179.471-.463.471-.851 0-.319-.141-.572-.424-.762-.282-.199-.711-.298-1.286-.298h-1.004v-2.24h.941c.387 0 .706-.08.957-.239a.81.81 0 00.392-.717c0-.319-.11-.558-.329-.717-.22-.169-.513-.254-.879-.254-.753 0-1.401.363-1.945 1.09l-1.443-1.613c.366-.507.878-.921 1.537-1.239a5.001 5.001 0 012.181-.478c1.014 0 1.83.259 2.447.777.627.507.941 1.229.941 2.165 0 .896-.46 1.638-1.38 2.225v.045c1.202.358 1.804 1.19 1.804 2.494 0 .926-.398 1.678-1.193 2.255-.794.568-1.709.851-2.745.851zm7.276-4.794l-.581-1.627c.304-.18.696-.334 1.177-.463a5.63 5.63 0 011.443-.195c1.046 0 1.794.239 2.243.717.461.478.691 1.19.691 2.136v4.047h-2.04v-.612c-.345.468-.962.702-1.851.702-.659 0-1.197-.185-1.616-.553-.407-.378-.611-.901-.611-1.568 0-.727.235-1.279.706-1.658.481-.378 1.092-.567 1.835-.567.586 0 1.046.124 1.38.373.042-.766-.282-1.15-.972-1.15-.46 0-1.062.14-1.804.418zm1.882 2.838c.419 0 .717-.115.894-.344v-.418c-.219-.149-.517-.224-.894-.224a.814.814 0 00-.486.135.43.43 0 00-.188.373c0 .149.062.269.188.358a.89.89 0 00.486.12zm9.175-4.943h2.431v6.72h-2.353v-1.717h-.564l-1.114 1.717h-2.683l1.679-2.21c-.785-.398-1.177-1.061-1.177-1.986 0-.747.309-1.354.926-1.822.627-.468 1.579-.702 2.855-.702zm-1.271 2.703c0 .179.089.333.267.463.178.129.397.194.659.194h.423v-1.419h-.455a.896.896 0 00-.643.239c-.167.159-.251.334-.251.523zm6.211 4.017v-6.72c.126 0 .371-.01.737-.03a46.79 46.79 0 012.291-.06c2.227 0 3.341.597 3.341 1.792 0 .388-.125.717-.376.986a1.47 1.47 0 01-.863.478v.03c.439.119.779.313 1.02.582.251.259.376.568.376.926 0 1.404-1.161 2.106-3.483 2.106-.313 0-.852-.015-1.615-.045a49.678 49.678 0 00-1.428-.045zm3.106-2.688h-.753v.926c.46.04.779.06.957.06a.921.921 0 00.518-.135c.136-.099.204-.214.204-.343 0-.339-.309-.508-.926-.508zm.141-2.33c-.407 0-.706.015-.894.045v.941h.785c.491 0 .737-.169.737-.508a.403.403 0 00-.173-.328c-.104-.1-.256-.15-.455-.15zm5.55 5.018v-6.72h2.353v3.106l1.914-3.106h2.949l-2.291 3.196 2.636 3.524h-3.043l-2.165-3.136v3.136h-2.353zm9.901-4.615l-.58-1.627c.303-.18.695-.334 1.177-.463.491-.13.972-.195 1.443-.195 1.046 0 1.793.239 2.243.717.46.478.69 1.19.69 2.136v4.047h-2.039v-.612c-.345.468-.962.702-1.851.702-.659 0-1.198-.185-1.616-.553-.408-.378-.612-.901-.612-1.568 0-.727.236-1.279.706-1.658.481-.378 1.093-.567 1.836-.567.585 0 1.045.124 1.38.373.042-.766-.282-1.15-.973-1.15-.46 0-1.061.14-1.804.418zm1.883 2.838c.418 0 .716-.115.894-.344v-.418c-.22-.149-.518-.224-.894-.224a.812.812 0 00-.486.135.432.432 0 00-.189.373c0 .149.063.269.189.358.125.08.287.12.486.12z" fill="#C5CDCF"/><path fill="#fff" d="M534.439 201.802h125.296v28.621H534.439zm0 44.521h125.296v28.621H534.439zm0 44.521h125.296v28.621H534.439zm0 46.43h16.537v16.537h-16.537z"/><rect x="559.244" y="338.546" width="52.79" height="3.816" rx="1.908" fill="#C5CDCF"/><rect x="617.122" y="338.546" width="33.709" height="3.816" rx="1.908" fill="#C5CDCF"/><rect x="597.406" y="348.722" width="33.709" height="3.816" rx="1.908" fill="#C5CDCF"/><rect x="559.881" y="348.722" width="33.709" height="3.816" rx="1.908" fill="#C5CDCF"/><path stroke="#141414" stroke-width="3" d="M536.576 371.847h121.66v25.621h-121.66z"/><path d="M107 490.24v-14h3.2v6.1l4.58-6.1h3.84l-5.26 6.46 5.68 7.54h-4.06l-4.78-6.66v6.66H107zm14.108-6.18l-.74-2.18c.386-.24.886-.447 1.5-.62a6.894 6.894 0 011.84-.26c1.333 0 2.286.32 2.86.96.586.64.88 1.593.88 2.86v5.42h-2.6v-.82c-.44.627-1.227.94-2.36.94-.84 0-1.527-.247-2.06-.74-.52-.507-.78-1.207-.78-2.1 0-.973.3-1.713.9-2.22.613-.507 1.393-.76 2.34-.76.746 0 1.333.167 1.76.5.053-1.027-.36-1.54-1.24-1.54-.587 0-1.354.187-2.3.56zm2.4 3.8c.533 0 .913-.153 1.14-.46v-.56c-.28-.2-.66-.3-1.14-.3-.254 0-.46.06-.62.18a.59.59 0 00-.24.5c0 .2.08.36.24.48.16.107.366.16.62.16zm5.937 2.38v-9h3v4.16l2.44-4.16h3.76l-2.92 4.28 3.36 4.72h-3.88l-2.76-4.2v4.2h-3zm16.147-3.54v-2h3.54c-.306-.733-.933-1.1-1.88-1.1-.733 0-1.533.267-2.399.8l-1.221-2.08c.427-.427.974-.753 1.64-.98a5.953 5.953 0 011.921-.34c1.599 0 2.853.427 3.759 1.28.92.853 1.381 2.007 1.381 3.46 0 1.373-.44 2.507-1.32 3.4-.867.893-2.08 1.34-3.64 1.34-1.654 0-2.94-.48-3.86-1.44l1.399-1.96c.6.533 1.36.8 2.281.8 1.093 0 1.759-.393 2-1.18h-3.601zm7.391-2.46v-3h8.2v3h-2.6v6h-3v-6h-2.6zm10.329 4.9c-.906-.893-1.36-2.027-1.36-3.4 0-1.373.454-2.507 1.36-3.4.92-.893 2.134-1.34 3.64-1.34 1.507 0 2.714.447 3.62 1.34.92.893 1.38 2.027 1.38 3.4 0 1.373-.46 2.507-1.38 3.4-.906.893-2.113 1.34-3.62 1.34-1.506 0-2.72-.447-3.64-1.34zm1.84-3.4c0 .56.167 1.027.5 1.4.347.36.78.54 1.3.54s.947-.173 1.28-.52c.347-.347.52-.82.52-1.42 0-.573-.173-1.04-.52-1.4a1.706 1.706 0 00-1.28-.54c-.506 0-.933.18-1.28.54-.346.347-.52.813-.52 1.4zm12.496 8.5v-13h3v.68c.613-.613 1.446-.92 2.5-.92 1.2 0 2.166.433 2.9 1.3.746.853 1.12 1.953 1.12 3.3 0 1.4-.447 2.567-1.34 3.5-.894.92-2.06 1.38-3.5 1.38-.68 0-1.24-.093-1.68-.28v4.04h-3zm4.56-10.44c-.56 0-1.08.267-1.56.8v2.74c.386.227.853.34 1.4.34.626 0 1.1-.187 1.42-.56.333-.387.5-.873.5-1.46 0-.547-.16-.993-.48-1.34-.307-.347-.734-.52-1.28-.52zm7.611.26l-.74-2.18c.386-.24.886-.447 1.5-.62a6.894 6.894 0 011.84-.26c1.333 0 2.286.32 2.86.96.586.64.88 1.593.88 2.86v5.42h-2.6v-.82c-.44.627-1.227.94-2.36.94-.84 0-1.527-.247-2.06-.74-.52-.507-.78-1.207-.78-2.1 0-.973.3-1.713.9-2.22.613-.507 1.393-.76 2.34-.76.746 0 1.333.167 1.76.5.053-1.027-.36-1.54-1.24-1.54-.587 0-1.354.187-2.3.56zm2.4 3.8c.533 0 .913-.153 1.14-.46v-.56c-.28-.2-.66-.3-1.14-.3-.254 0-.46.06-.62.18a.59.59 0 00-.24.5c0 .2.08.36.24.48.16.107.366.16.62.16zM204.715 476l1.56 2.48c-.373.4-.786.693-1.24.88-.453.173-.96.327-1.52.46s-1.026.3-1.4.5c-.906.48-1.426 1.273-1.56 2.38h.04c.267-.36.654-.66 1.16-.9.52-.24 1.054-.36 1.6-.36 1.187 0 2.147.4 2.88 1.2.734.787 1.1 1.847 1.1 3.18 0 1.307-.44 2.413-1.32 3.32-.88.893-2.04 1.34-3.48 1.34-1.56 0-2.78-.52-3.66-1.56-.88-1.04-1.32-2.447-1.32-4.22 0-3.813 1.154-6.227 3.46-7.24a8.6 8.6 0 011.5-.48c.534-.133.96-.26 1.28-.38.334-.12.64-.32.92-.6zm-3.96 9.34c.014.64.167 1.193.46 1.66.294.453.707.68 1.24.68.547 0 .96-.16 1.24-.48.294-.333.44-.747.44-1.24s-.133-.9-.4-1.22c-.266-.333-.653-.5-1.16-.5-.88 0-1.486.367-1.82 1.1zm9.139 3.8c-.906-.893-1.36-2.027-1.36-3.4 0-1.373.454-2.507 1.36-3.4.92-.893 2.134-1.34 3.64-1.34 1.507 0 2.714.447 3.62 1.34.92.893 1.38 2.027 1.38 3.4 0 1.373-.46 2.507-1.38 3.4-.906.893-2.113 1.34-3.62 1.34-1.506 0-2.72-.447-3.64-1.34zm1.84-3.4c0 .56.167 1.027.5 1.4.347.36.78.54 1.3.54s.947-.173 1.28-.52c.347-.347.52-.82.52-1.42 0-.573-.173-1.04-.52-1.4a1.706 1.706 0 00-1.28-.54c-.506 0-.933.18-1.28.54-.346.347-.52.813-.52 1.4zm7.44-1.5v-3h8.2v3h-2.6v6h-3v-6h-2.6zm10.664-.18l-.74-2.18c.387-.24.887-.447 1.5-.62a6.9 6.9 0 011.84-.26c1.333 0 2.287.32 2.86.96.587.64.88 1.593.88 2.86v5.42h-2.6v-.82c-.44.627-1.227.94-2.36.94-.84 0-1.527-.247-2.06-.74-.52-.507-.78-1.207-.78-2.1 0-.973.3-1.713.9-2.22.613-.507 1.393-.76 2.34-.76.747 0 1.333.167 1.76.5.053-1.027-.36-1.54-1.24-1.54-.587 0-1.353.187-2.3.56zm2.4 3.8c.533 0 .913-.153 1.14-.46v-.56c-.28-.2-.66-.3-1.14-.3-.253 0-.46.06-.62.18a.59.59 0 00-.24.5c0 .2.08.36.24.48.16.107.367.16.62.16zm12.997-.52l.82 2.12c-.907.68-2.073 1.02-3.5 1.02-1.48 0-2.667-.433-3.56-1.3-.88-.867-1.32-2.013-1.32-3.44 0-1.347.447-2.473 1.34-3.38.907-.907 2.087-1.36 3.54-1.36 1.2 0 2.227.4 3.08 1.2.853.787 1.28 1.8 1.28 3.04 0 .6-.06 1.1-.18 1.5h-5.96c.267.827.967 1.24 2.1 1.24.893 0 1.68-.213 2.36-.64zm-2.78-3.84c-.893 0-1.487.413-1.78 1.24h3.24c0-.333-.133-.62-.4-.86-.253-.253-.607-.38-1.06-.38zm5.254.74v-3h8.2v3h-2.6v6h-3v-6h-2.6z" fill="#141414"/><circle cx="110" cy="539.888" r="23.5" stroke="#C5CDCF" stroke-width="3"/><path d="M106 535.2l4.56-3.312h2.592v16.8h-3.6V537l-1.68 1.176L106 535.2z" fill="#141414"/><rect x="151.5" y="521.388" width="252" height="12" rx="3.5" stroke="#C5CDCF" stroke-width="3"/><rect x="151.5" y="546.388" width="118" height="12" rx="3.5" stroke="#C5CDCF" stroke-width="3"/><circle cx="110" cy="619.888" r="23.5" stroke="#C5CDCF" stroke-width="3"/><path d="M105 627.992v-2.88c.144-.128.536-.504 1.176-1.128.656-.64 1.096-1.08 1.32-1.32.224-.24.608-.64 1.152-1.2.544-.576.928-1.032 1.152-1.368.224-.336.488-.744.792-1.224.32-.496.536-.952.648-1.368.128-.416.192-.832.192-1.248 0-1.104-.512-1.656-1.536-1.656-.48 0-.856.16-1.128.48-.272.304-.512.744-.72 1.32l-3-1.368c.272-1.232.856-2.208 1.752-2.928.912-.736 2.088-1.104 3.528-1.104 1.552 0 2.76.44 3.624 1.32.88.88 1.32 1.952 1.32 3.216 0 3.184-1.872 6.216-5.616 9.096h6.192v3.36H105z" fill="#141414"/><rect x="151.5" y="601.388" width="252" height="12" rx="3.5" stroke="#C5CDCF" stroke-width="3"/><rect x="151.5" y="626.388" width="118" height="12" rx="3.5" stroke="#C5CDCF" stroke-width="3"/><circle cx="110" cy="700" r="23.5" stroke="#C5CDCF" stroke-width="3"/><path d="M109.544 708.376c-1.328 0-2.464-.256-3.408-.768-.944-.528-1.656-1.2-2.136-2.016l1.992-2.664c1.072 1.232 2.176 1.848 3.312 1.848.688 0 1.208-.152 1.56-.456.368-.32.552-.712.552-1.176 0-1.232-.952-1.848-2.856-1.848h-1.056v-3.6h.96c.672 0 1.224-.144 1.656-.432.432-.288.648-.704.648-1.248 0-.4-.128-.736-.384-1.008-.24-.272-.624-.408-1.152-.408-1.12 0-2.088.504-2.904 1.512l-1.968-2.592c1.04-1.68 2.776-2.52 5.208-2.52 1.488 0 2.696.392 3.624 1.176.944.768 1.416 1.808 1.416 3.12 0 .976-.208 1.784-.624 2.424-.4.624-1.024 1.128-1.872 1.512v.072c1.008.192 1.784.648 2.328 1.368.544.72.816 1.592.816 2.616 0 1.552-.544 2.792-1.632 3.72-1.072.912-2.432 1.368-4.08 1.368z" fill="#141414"/><rect x="151.5" y="681.5" width="252" height="12" rx="3.5" stroke="#C5CDCF" stroke-width="3"/><rect x="151.5" y="706.5" width="118" height="12" rx="3.5" stroke="#C5CDCF" stroke-width="3"/><circle cx="110" cy="780" r="23.5" stroke="#C5CDCF" stroke-width="3"/><path d="M110.632 788.8v-3.6H103v-2.688L109 772h4.128l-5.496 9.6h3V778h3.6v3.6h1.968v3.6h-1.968v3.6h-3.6z" fill="#141414"/><rect x="151.5" y="761.5" width="252" height="12" rx="3.5" stroke="#C5CDCF" stroke-width="3"/><rect x="151.5" y="786.5" width="118" height="12" rx="3.5" stroke="#C5CDCF" stroke-width="3"/><path d="M51 982V826h588v156H51z" fill="#F6F4F2" stroke="#C5CDCF" stroke-width="2"/><rect x="108.5" y="885.5" width="131" height="9" rx="3.5" stroke="#C5CDCF" stroke-width="3"/><rect x="257.5" y="885.5" width="58" height="9" rx="3.5" stroke="#C5CDCF" stroke-width="3"/><rect x="108.5" y="907.5" width="58" height="9" rx="3.5" stroke="#C5CDCF" stroke-width="3"/><rect x="260.5" y="907.5" width="35" height="9" rx="3.5" stroke="#C5CDCF" stroke-width="3"/><rect x="308.5" y="907.5" width="35" height="9" rx="3.5" stroke="#C5CDCF" stroke-width="3"/><rect x="356.5" y="907.5" width="35" height="9" rx="3.5" stroke="#C5CDCF" stroke-width="3"/><rect x="333.5" y="885.5" width="58" height="9" rx="3.5" stroke="#C5CDCF" stroke-width="3"/><rect x="184.5" y="907.5" width="58" height="9" rx="3.5" stroke="#C5CDCF" stroke-width="3"/><path stroke="#141414" stroke-width="3" d="M106.5 934.5h121.66v25.621H106.5z"/><path d="M465 941v-74a5 5 0 015-5h133a5 5 0 015 5v74a5 5 0 01-5 5H470a5 5 0 01-5-5z" stroke="#C5CDCF" stroke-width="4"/><circle opacity=".5" cx="572" cy="925" r="10" fill="#C5CDCF"/><circle opacity=".5" cx="582" cy="925" r="10" fill="#C5CDCF"/><rect x="52" y="1063" width="140" height="70" rx="5" fill="#F6F4F2"/><rect x="202" y="1063" width="140" height="70" rx="5" fill="#F6F4F2"/><rect x="352" y="1063" width="140" height="70" rx="5" fill="#F6F4F2"/><rect x="502" y="1063" width="140" height="70" rx="5" fill="#F6F4F2"/><path d="M107 865v-14h3.2v6.1l4.58-6.1h3.84l-5.26 6.46 5.68 7.54h-4.06l-4.78-6.66V865H107zm14.108-6.18l-.74-2.18c.386-.24.886-.447 1.5-.62a6.894 6.894 0 011.84-.26c1.333 0 2.286.32 2.86.96.586.64.88 1.593.88 2.86V865h-2.6v-.82c-.44.627-1.227.94-2.36.94-.84 0-1.527-.247-2.06-.74-.52-.507-.78-1.207-.78-2.1 0-.973.3-1.713.9-2.22.613-.507 1.393-.76 2.34-.76.746 0 1.333.167 1.76.5.053-1.027-.36-1.54-1.24-1.54-.587 0-1.354.187-2.3.56zm2.4 3.8c.533 0 .913-.153 1.14-.46v-.56c-.28-.2-.66-.3-1.14-.3-.254 0-.46.06-.62.18a.59.59 0 00-.24.5c0 .2.08.36.24.48.16.107.366.16.62.16zm5.937 2.38v-9h3v4.16l2.44-4.16h3.76l-2.92 4.28 3.36 4.72h-3.88l-2.76-4.2v4.2h-3zm15.527-1.1c-.906-.893-1.36-2.027-1.36-3.4 0-1.373.454-2.507 1.36-3.4.921-.893 2.134-1.34 3.64-1.34 1.507 0 2.714.447 3.621 1.34.92.893 1.379 2.027 1.379 3.4 0 1.373-.459 2.507-1.379 3.4-.907.893-2.114 1.34-3.621 1.34-1.506 0-2.719-.447-3.64-1.34zm1.84-3.4c0 .56.167 1.027.5 1.4.347.36.78.54 1.3.54s.947-.173 1.281-.52c.346-.347.519-.82.519-1.42 0-.573-.173-1.04-.519-1.4a1.71 1.71 0 00-1.281-.54c-.506 0-.933.18-1.279.54-.347.347-.521.813-.521 1.4zm12.892 8.5v-3.76h-.02c-1.547 0-2.747-.44-3.6-1.32-.853-.893-1.28-2.033-1.28-3.42 0-1.307.427-2.42 1.28-3.34.867-.933 2.06-1.4 3.58-1.4h.04V851h3v4.76h.06c1.547 0 2.74.447 3.58 1.34.84.88 1.26 2.013 1.26 3.4 0 1.413-.407 2.56-1.22 3.44-.8.867-2.007 1.3-3.62 1.3h-.06V869h-3zm-1.7-8.5c0 1.28.567 1.927 1.7 1.94v-3.88h-.06c-1.093 0-1.64.647-1.64 1.94zm4.76-1.94h-.06v3.88c1.133 0 1.7-.647 1.7-1.94 0-.56-.133-1.02-.4-1.38-.267-.373-.68-.56-1.24-.56zm7.404 5.34c-.907-.893-1.36-2.027-1.36-3.4 0-1.373.453-2.507 1.36-3.4.92-.893 2.133-1.34 3.64-1.34 1.506 0 2.713.447 3.62 1.34.92.893 1.38 2.027 1.38 3.4 0 1.373-.46 2.507-1.38 3.4-.907.893-2.114 1.34-3.62 1.34-1.507 0-2.72-.447-3.64-1.34zm1.84-3.4c0 .56.166 1.027.5 1.4.346.36.78.54 1.3.54s.946-.173 1.28-.52c.346-.347.52-.82.52-1.42 0-.573-.174-1.04-.52-1.4a1.709 1.709 0 00-1.28-.54c-.507 0-.934.18-1.28.54-.347.347-.52.813-.52 1.4zm8.491 8.5v-13h3v.68c.614-.613 1.447-.92 2.5-.92 1.2 0 2.167.433 2.9 1.3.747.853 1.12 1.953 1.12 3.3 0 1.4-.446 2.567-1.34 3.5-.893.92-2.06 1.38-3.5 1.38-.68 0-1.24-.093-1.68-.28V869h-3zm4.56-10.44c-.56 0-1.08.267-1.56.8v2.74c.387.227.854.34 1.4.34.627 0 1.1-.187 1.42-.56.334-.387.5-.873.5-1.46 0-.547-.16-.993-.48-1.34-.306-.347-.733-.52-1.28-.52zm6.651 6.44v-9h2.7l2.7 3.06 2.5-3.06h2.62v9h-3v-4.42l-2.18 2.5h-.06l-2.28-2.5V865h-3zm15.715 0h-3v-9h3v4.7l3.2-4.7h3v9h-3v-4.7l-3.2 4.7zm7.706-6v-3h8.2v3h-2.6v6h-3v-6h-2.6zm9.704 6v-9h3v2.1h1.04c1.453 0 2.5.313 3.14.94.64.613.96 1.38.96 2.3 0 1.013-.353 1.88-1.06 2.6-.707.707-1.793 1.06-3.26 1.06h-3.82zm3.78-4.5h-.78v1.9h.76c.787 0 1.18-.313 1.18-.94 0-.64-.387-.96-1.16-.96zm9.873 4.5v-9h3v4.16l2.44-4.16h3.76l-2.92 4.28 3.36 4.72h-3.881l-2.759-4.2v4.2h-3zm11.624-6.18l-.74-2.18c.386-.24.886-.447 1.5-.62a6.894 6.894 0 011.84-.26c1.333 0 2.286.32 2.86.96.586.64.88 1.593.88 2.86V865h-2.6v-.82c-.44.627-1.227.94-2.36.94-.84 0-1.527-.247-2.06-.74-.52-.507-.78-1.207-.78-2.1 0-.973.3-1.713.9-2.22.613-.507 1.393-.76 2.34-.76.746 0 1.333.167 1.76.5.053-1.027-.36-1.54-1.24-1.54-.587 0-1.354.187-2.3.56zm2.4 3.8c.533 0 .913-.153 1.14-.46v-.56c-.28-.2-.66-.3-1.14-.3-.254 0-.46.06-.62.18a.59.59 0 00-.24.5c0 .2.08.36.24.48.16.107.366.16.62.16zm5.936 6.38v-13h3v.68c.614-.613 1.447-.92 2.5-.92 1.2 0 2.167.433 2.9 1.3.747.853 1.12 1.953 1.12 3.3 0 1.4-.446 2.567-1.34 3.5-.893.92-2.06 1.38-3.5 1.38-.68 0-1.24-.093-1.68-.28V869h-3zm4.56-10.44c-.56 0-1.08.267-1.56.8v2.74c.387.227.854.34 1.4.34.627 0 1.1-.187 1.42-.56.334-.387.5-.873.5-1.46 0-.547-.16-.993-.48-1.34-.306-.347-.733-.52-1.28-.52zm5.6.44v-3h8.2v3h-2.6v6h-3v-6h-2.6zm18.924-3l-3.5 9c-.64 1.573-1.214 2.633-1.72 3.18-.507.547-1.114.82-1.82.82-.76 0-1.474-.28-2.14-.84l.96-2.26c.32.213.606.32.86.32.373 0 .66-.247.86-.74l.2-.48-4.02-9h3.62l1.54 4.12c.08.213.193.627.34 1.24.053-.533.126-.953.22-1.26l1.18-4.1h3.42zM109 1038v-14h3.22l4.32 5.9 4.08-5.9h3.02v14h-3.2v-8.92l-3.9 5.46h-.46l-3.88-5.4v8.86H109zm18.502-6.18l-.74-2.18c.387-.24.887-.45 1.5-.62.627-.17 1.24-.26 1.84-.26 1.334 0 2.287.32 2.86.96.587.64.88 1.59.88 2.86v5.42h-2.6v-.82c-.44.63-1.226.94-2.36.94-.84 0-1.526-.25-2.06-.74-.52-.51-.78-1.21-.78-2.1 0-.97.3-1.71.9-2.22.614-.51 1.394-.76 2.34-.76.747 0 1.334.17 1.76.5.054-1.03-.36-1.54-1.24-1.54-.586 0-1.353.19-2.3.56zm2.4 3.8c.534 0 .914-.15 1.14-.46v-.56c-.28-.2-.66-.3-1.14-.3-.253 0-.46.06-.62.18-.16.12-.24.29-.24.5 0 .2.08.36.24.48.16.11.367.16.62.16zm5.937 2.38v-9h6.4v2.8h-3.4v6.2h-3zm8.655-6.18l-.74-2.18c.387-.24.887-.45 1.5-.62.627-.17 1.24-.26 1.84-.26 1.334 0 2.287.32 2.86.96.587.64.88 1.59.88 2.86v5.42h-2.6v-.82c-.44.63-1.226.94-2.36.94-.84 0-1.526-.25-2.06-.74-.52-.51-.78-1.21-.78-2.1 0-.97.3-1.71.9-2.22.614-.51 1.394-.76 2.34-.76.747 0 1.334.17 1.76.5.054-1.03-.36-1.54-1.24-1.54-.586 0-1.353.19-2.3.56zm2.4 3.8c.534 0 .914-.15 1.14-.46v-.56c-.28-.2-.66-.3-1.14-.3-.253 0-.46.06-.62.18-.16.12-.24.29-.24.5 0 .2.08.36.24.48.16.11.367.16.62.16zm9.357 2.62a6.55 6.55 0 01-2.46-.46c-.773-.32-1.326-.71-1.66-1.16l1.52-1.84c.24.28.587.53 1.04.74.467.21.907.32 1.32.32.867 0 1.3-.21 1.3-.64 0-.45-.32-.68-.96-.68h-1.72v-2h1.62c.294 0 .507-.07.64-.2.147-.15.22-.32.22-.52 0-.43-.386-.64-1.16-.64-.72 0-1.486.35-2.3 1.04l-1.24-1.8c.907-1.09 2.28-1.64 4.12-1.64 1.227 0 2.16.23 2.8.7.654.47.98 1.11.98 1.94 0 .43-.153.82-.46 1.18-.293.35-.686.6-1.18.76v.04c1.227.28 1.84.99 1.84 2.12 0 .84-.386 1.51-1.16 2-.773.49-1.806.74-3.1.74zm9.151-.24h-3v-9h3v4.7l3.2-4.7h3v9h-3v-4.7l-3.2 4.7zm14.306 0v-3.1h-2.9v3.1h-3v-9h3v3.1h2.9v-3.1h3v9h-3zm5.194 0v-9h3v2.1h.94c1.453 0 2.5.31 3.14.94.64.61.96 1.38.96 2.3 0 1.01-.354 1.88-1.06 2.6-.707.71-1.794 1.06-3.26 1.06h-3.72zm8.9 0v-9h3v9h-3zm-5.22-4.5h-.68v1.9h.66c.786 0 1.18-.31 1.18-.94 0-.64-.387-.96-1.16-.96zm20.225 4.5v-6.2h-2.8v6.2h-3v-9h8.8v9h-3zm6.156-6.18l-.74-2.18c.387-.24.887-.45 1.5-.62.627-.17 1.24-.26 1.84-.26 1.333 0 2.287.32 2.86.96.587.64.88 1.59.88 2.86v5.42h-2.6v-.82c-.44.63-1.227.94-2.36.94-.84 0-1.527-.25-2.06-.74-.52-.51-.78-1.21-.78-2.1 0-.97.3-1.71.9-2.22.613-.51 1.393-.76 2.34-.76.747 0 1.333.17 1.76.5.053-1.03-.36-1.54-1.24-1.54-.587 0-1.353.19-2.3.56zm2.4 3.8c.533 0 .913-.15 1.14-.46v-.56c-.28-.2-.66-.3-1.14-.3-.253 0-.46.06-.62.18-.16.12-.24.29-.24.5 0 .2.08.36.24.48.16.11.367.16.62.16zm5.937 6.38v-13h3v.68c.613-.61 1.447-.92 2.5-.92 1.2 0 2.167.43 2.9 1.3.747.85 1.12 1.95 1.12 3.3 0 1.4-.447 2.57-1.34 3.5-.893.92-2.06 1.38-3.5 1.38-.68 0-1.24-.09-1.68-.28v4.04h-3zm4.56-10.44c-.56 0-1.08.27-1.56.8v2.74c.387.23.853.34 1.4.34.627 0 1.1-.19 1.42-.56.333-.39.5-.87.5-1.46 0-.55-.16-.99-.48-1.34-.307-.35-.733-.52-1.28-.52zm5.599.44v-3h8.2v3h-2.6v6h-3v-6h-2.6zm15.604 6v-3.1h-2.9v3.1h-3v-9h3v3.1h2.9v-3.1h3v9h-3zm12.254-2.9l.82 2.12c-.907.68-2.073 1.02-3.5 1.02-1.48 0-2.667-.43-3.56-1.3-.88-.87-1.32-2.01-1.32-3.44 0-1.35.447-2.47 1.34-3.38.907-.91 2.087-1.36 3.54-1.36 1.2 0 2.227.4 3.08 1.2.853.79 1.28 1.8 1.28 3.04 0 .6-.06 1.1-.18 1.5h-5.96c.267.83.967 1.24 2.1 1.24.893 0 1.68-.21 2.36-.64zm-2.78-3.84c-.893 0-1.487.41-1.78 1.24h3.24c0-.33-.133-.62-.4-.86-.253-.25-.607-.38-1.06-.38zm5.954 10.74v-13h3v.68c.614-.61 1.447-.92 2.5-.92 1.2 0 2.167.43 2.9 1.3.747.85 1.12 1.95 1.12 3.3 0 1.4-.446 2.57-1.34 3.5-.893.92-2.06 1.38-3.5 1.38-.68 0-1.24-.09-1.68-.28v4.04h-3zm4.56-10.44c-.56 0-1.08.27-1.56.8v2.74c.387.23.854.34 1.4.34.627 0 1.1-.19 1.42-.56.334-.39.5-.87.5-1.46 0-.55-.16-.99-.48-1.34-.306-.35-.733-.52-1.28-.52zm7.511 5.34c-.906-.89-1.36-2.03-1.36-3.4s.454-2.51 1.36-3.4c.92-.89 2.134-1.34 3.64-1.34 1.507 0 2.714.45 3.62 1.34.92.89 1.38 2.03 1.38 3.4s-.46 2.51-1.38 3.4c-.906.89-2.113 1.34-3.62 1.34-1.506 0-2.72-.45-3.64-1.34zm1.84-3.4c0 .56.167 1.03.5 1.4.347.36.78.54 1.3.54s.947-.17 1.28-.52c.347-.35.52-.82.52-1.42 0-.57-.173-1.04-.52-1.4a1.706 1.706 0 00-1.28-.54c-.506 0-.933.18-1.28.54-.346.35-.52.81-.52 1.4zm8.492 4.5v-9c.16 0 .473-.01.94-.04.466-.03.953-.05 1.46-.06.52-.01 1.006-.02 1.46-.02 2.84 0 4.26.8 4.26 2.4 0 .52-.16.96-.48 1.32-.32.36-.687.57-1.1.64v.04c.56.16.993.42 1.3.78.32.35.48.76.48 1.24 0 1.88-1.48 2.82-4.44 2.82-.4 0-1.087-.02-2.06-.06-.96-.04-1.567-.06-1.82-.06zm3.96-3.6h-.96v1.24c.586.05.993.08 1.22.08.266 0 .486-.06.66-.18.173-.13.26-.29.26-.46 0-.45-.394-.68-1.18-.68zm.18-3.12c-.52 0-.9.02-1.14.06v1.26h1c.626 0 .94-.23.94-.68 0-.17-.074-.32-.22-.44-.134-.13-.327-.2-.58-.2z" fill="#141414"/><path d="M57 1172h584" stroke="#C5CDCF" stroke-width="2"/><path d="M57 1220.33V1198a5 5 0 015-5h101c2.761 0 5 2.24 5 5v22.33c0 2.76-2.239 5-5 5H62a5 5 0 01-5-5z" stroke="#C5CDCF" stroke-width="4"/><path d="M98.576 1212.94v-9.06h2.069v7.12h3.686v1.94h-5.755zm7.797-.71c-.586-.58-.879-1.32-.879-2.2 0-.89.293-1.62.879-2.2.595-.58 1.38-.87 2.354-.87.974 0 1.754.29 2.341.87.594.58.892 1.31.892 2.2 0 .88-.298 1.62-.892 2.2-.587.57-1.367.86-2.341.86-.974 0-1.759-.29-2.354-.86zm1.19-2.2c0 .36.108.66.323.9.224.24.505.35.841.35.336 0 .612-.11.827-.33.225-.23.337-.54.337-.92 0-.37-.112-.68-.337-.91-.224-.23-.5-.35-.827-.35-.328 0-.604.12-.828.35-.224.23-.336.53-.336.91zm5.426 3.66c0-.49.172-.88.517-1.19.345-.31.815-.53 1.41-.65a.694.694 0 01.013-.66 2.398 2.398 0 01-1.061-.8c-.25-.36-.375-.76-.375-1.19 0-.61.233-1.14.699-1.58.474-.44 1.099-.66 1.875-.66.569 0 1.064.13 1.487.39l1.823-.36.065 1.55-.867.17c.044.19.065.35.065.49 0 .58-.22 1.08-.659 1.5-.431.41-1 .64-1.707.68a.702.702 0 00.025.37c.845.02 1.535.2 2.07.53.534.32.801.79.801 1.41 0 .63-.288 1.12-.866 1.45-.578.32-1.319.49-2.224.49-.914 0-1.66-.16-2.238-.48-.569-.32-.853-.81-.853-1.46zm1.81 0c0 .26.427.38 1.281.38.853 0 1.28-.12 1.28-.38 0-.27-.427-.4-1.28-.4-.854 0-1.281.13-1.281.4zm.712-4.97a.634.634 0 00-.207.48c0 .19.064.34.194.46.138.12.327.17.569.17.224 0 .405-.05.543-.17a.54.54 0 00.22-.46c0-.2-.065-.36-.194-.49-.13-.13-.319-.2-.569-.2-.233 0-.418.07-.556.21zm5.908 3.51c-.586-.58-.879-1.32-.879-2.2 0-.89.293-1.62.879-2.2.595-.58 1.38-.87 2.354-.87.974 0 1.754.29 2.341.87.595.58.892 1.31.892 2.2 0 .88-.297 1.62-.892 2.2-.587.57-1.367.86-2.341.86-.974 0-1.759-.29-2.354-.86zm1.19-2.2c0 .36.108.66.323.9.225.24.505.35.841.35.336 0 .612-.11.828-.33.224-.23.336-.54.336-.92 0-.37-.112-.68-.336-.91-.225-.23-.5-.35-.828-.35-.328 0-.604.12-.828.35-.224.23-.336.53-.336.91z" fill="#C5CDCF"/><rect x="187.5" y="1192.5" width="185" height="11" rx="3.5" stroke="#C5CDCF" stroke-width="3"/><rect x="187.5" y="1212.5" width="52" height="11" rx="3.5" stroke="#C5CDCF" stroke-width="3"/><rect x="257.5" y="1212.5" width="52" height="11" rx="3.5" stroke="#C5CDCF" stroke-width="3"/><rect x="539.5" y="1212.5" width="52" height="11" rx="3.5" stroke="#C5CDCF" stroke-width="3"/><rect x="327.5" y="1212.5" width="93" height="11" rx="3.5" stroke="#C5CDCF" stroke-width="3"/><rect x="539.5" y="1192.5" width="93" height="11" rx="3.5" stroke="#C5CDCF" stroke-width="3"/><path d="M4 31h670" stroke="#C5CDCF" stroke-width="7"/><rect x="21" y="12" width="10" height="10" rx="1" fill="#C5CDCF"/><rect x="41" y="12" width="10" height="10" rx="1" fill="#C5CDCF"/><rect x="61" y="12" width="10" height="10" rx="1" fill="#C5CDCF"/></svg>