<svg width="157" height="43" viewBox="0 0 157 43" fill="none" xmlns="http://www.w3.org/2000/svg"><path d="M75.4 12.976c0-.248-.164-.33-.33-.33h-5.207c-.248 0-.413.165-.496.33L61.35 33.061c-.165.248.083.579.33.579h4.712c.248 0 .413-.166.496-.414l3.884-11.736.248 11.736c0 .248.166.414.33.414h4.464c.248 0 .579-.248.579-.579L75.4 12.976zM56.06 25.54h-4.71c-.248 0-.33-.248-.248-.496l.661-4.05c0-.248.248-.496.413-.496h4.794v-.909c0-.248-.082-.414-.165-.662-.083-.248-.165-.33-.248-.578-.082-.166-.248-.33-.248-.496-.165-.165-.248-.248-.413-.33-.165-.083-.33-.249-.579-.249-.248-.082-.413-.082-.66-.082h-.662c-.248 0-.413.082-.661.082-.248.083-.33.083-.579.166-.248.082-.33.165-.496.248h-.083c-.247.082-.413-.083-.413-.331l-.165-3.554c-.083-.248.083-.496.248-.579.165-.082.33-.165.578-.248.248-.082.414-.165.662-.248.248-.082.496-.165.66-.248.166-.082.497-.165.745-.165.248-.082.578-.082.826-.165.248 0 .579-.083.91-.083.495 0 .991.083 1.405.165.413.083.826.248 1.157.331.33.165.661.33.992.579.248.248.578.496.826.744s.413.578.661.909c.248.33.33.661.496 1.074.166.33.248.662.248 1.157.083.331.165.744.248 1.157.083.414.083.827.083 1.158v1.157c0 .413-.083.826-.166 1.24-.082.413-.165.744-.248 1.157v.082a25.13 25.13 0 01-.578 2.397c-.248.744-.496 1.488-.827 2.067-.33.66-.66 1.24-1.074 1.818-.413.578-.744 1.075-1.24 1.488a9.536 9.536 0 01-1.405 1.157c-.496.33-.992.661-1.57.826-.579.248-1.075.414-1.57.496-.497.414-.992.414-1.571.414-.248 0-.579 0-.827-.083-.248 0-.578-.083-.743-.083-.248-.082-.496-.082-.662-.165a4.027 4.027 0 01-.578-.248l-.496-.248c-.166-.083-.248-.165-.413-.248-.166-.083-.248-.33-.166-.578l1.488-3.802v-.083c.165-.248.33-.33.579-.248.165.082.248.165.413.248.165.082.248.082.496.165.165.083.33.083.578.083h.579c.248 0 .661 0 .826-.083.248-.082.496-.165.662-.248a2.47 2.47 0 01.66-.33 1.43 1.43 0 00.497-.496c.165-.248.248-.33.413-.579a2.46 2.46 0 00.33-.661c.166-.248.249-.496.249-.661l.082.248zm30.416-5.207h3.968c.248 0 .33.248.248.495l-.662 3.802c0 .248-.248.496-.413.496H85.65l-.661 3.637h4.463c.248 0 .33.248.248.496l-.661 3.967c0 .248-.248.496-.414.496H79.12c-.248 0-.33-.248-.248-.496l3.554-20.084c0-.248.248-.496.414-.496h9.257c.248 0 .33.248.248.496l-.662 3.967c0 .248-.248.496-.413.496h-4.215l-.579 2.727zm22.317 13.307h-4.05c-.248 0-.331-.248-.331-.496l.744-6.282c.083-.33.165-.826.165-1.322l.083-.496.082-.579-.082.248-.331.91-.082.247c-.166.33-.248.661-.331.91l-2.48 6.116c-.082.248-.248.33-.413.33h-3.389c-.248 0-.33-.165-.33-.33l-.248-6.117v-2.561l-.248.908-.248.992-.248.827-1.488 6.281c-.082.248-.248.414-.413.414h-3.967c-.248-.083-.331-.248-.248-.579l5.124-20.085c.083-.248.248-.413.413-.413h4.794c.248 0 .331.165.331.33l.165 6.448c0 1.157.083 2.066.083 2.892v1.901c.165-.33.248-.743.413-1.157.248-.578.413-1.157.661-1.818.248-.661.414-1.24.661-1.818l2.48-6.447c.083-.248.248-.33.413-.33h4.794c.248 0 .331.247.331.495l-2.314 20.085c-.083.248-.248.496-.496.496zm10.744-13.308h3.968c.248 0 .33.248.248.496l-.661 3.802c0 .248-.248.496-.414.496h-3.967l-.661 3.637h4.463c.248 0 .331.248.248.496l-.661 3.967c0 .248-.248.496-.414.496h-9.505c-.248 0-.33-.248-.248-.496l3.554-20.084c0-.248.248-.496.414-.496h9.257c.248 0 .33.248.248.496l-.661 3.967c0 .248-.248.496-.414.496h-4.215l-.579 2.727zm5.29 12.729l3.554-20.085c0-.248.248-.496.414-.496h4.628c.248 0 .331.248.248.496l-1.157 7.44h2.562l1.323-7.357c0-.248.248-.496.413-.496h4.628c.248 0 .331.248.248.496l-3.554 20.085c0 .248-.248.496-.413.496h-4.629c-.247 0-.33-.248-.247-.496l1.322-7.44h-2.562l-1.323 7.522c0 .248-.248.496-.413.496h-4.629c-.247-.165-.413-.33-.413-.661zm23.804.579h-4.628c-.248 0-.331-.248-.248-.496l2.727-15.291h-3.058c-.248 0-.331-.248-.248-.496l.744-4.298c0-.248.248-.496.413-.496h11.572c.248 0 .33.248.248.496l-.744 4.298c0 .248-.248.496-.414.496h-3.14l-2.728 15.29c-.083.249-.331.497-.496.497z" fill="#fff"/><path fill-rule="evenodd" clip-rule="evenodd" d="M19.362 42.814C7.543 42.814-1.053 33.31.104 21.407 1.344 9.505 11.758 0 23.66 0h23.143l-3.802 21.407c-2.149 11.737-11.82 21.407-23.639 21.407zm5.208-29.672l-.662 2.48c1.736 0 3.72.909 4.877 1.983 1.405 1.57 1.818 3.72 1.405 6.364-1.157 6.695-6.612 9.753-12.729 9.588H12.75l1.075-5.868h5.124c2.15 0 3.554-1.157 3.885-3.141.496-3.389-2.728-3.802-5.207-3.472-.165 0-.33 0-.413-.165-.083-.083-.166-.248-.083-.413L19.61 7.19c.082-.248.413-.496.66-.496h13.804l-1.158 6.447H24.57z" fill="#fff"/></svg>