<svg width="146" height="43" viewBox="0 0 146 43" fill="none" xmlns="http://www.w3.org/2000/svg"><path fill-rule="evenodd" clip-rule="evenodd" d="M21.072 0C9.434 0 0 9.434 0 21.072s9.434 21.073 21.072 21.073H124.46c11.638 0 21.072-9.435 21.072-21.073S136.097 0 124.459 0H21.072zm2.872 14.448h5.38v13.868h2.917V14.448h5.381v-2.726H23.944v2.726zm19.564 0h5.38v13.868h2.917V14.448h5.381v-2.726H43.508v2.726zm35.144-2.726v16.594h-2.323l-9.127-11.498v11.498h-2.727V11.722H66.8l9.127 11.545V11.722h2.726zm20.054 0v15.67c.537.347 1.217.632 2.039.853a9.708 9.708 0 002.489.332c1.865 0 3.342-.522 4.433-1.565 1.106-1.043 1.659-2.442 1.659-4.196 0-1.628-.458-2.932-1.375-3.911-.9-1.012-2.133-1.518-3.698-1.518-1.106 0-2.046.309-2.821.925v-6.59h-2.726zm2.726 9.245c.585-.68 1.312-1.02 2.181-1.02.822 0 1.494.27 2.015.807.522.537.783 1.288.783 2.252 0 .932-.285 1.675-.854 2.228-.553.537-1.28.806-2.181.806a3.61 3.61 0 01-1.944-.545v-4.528zm18.213-3.319h3.106l-4.196 10.668c-.759 1.85-1.438 3.098-2.039 3.746-.585.663-1.28.995-2.086.995-.759 0-1.525-.276-2.3-.83l.877-2.062c.411.253.783.38 1.115.38.648 0 1.193-.554 1.635-1.66l.237-.569-4.931-10.668h3.272l2.489 5.832c.032.079.206.593.522 1.54a9.388 9.388 0 01.379-1.564l1.92-5.808zm-33.38 1.449h4.61v4.61h-4.61v-4.61z" fill="#fff"/></svg>