<svg width="207" height="53" viewBox="0 0 207 53" fill="none" xmlns="http://www.w3.org/2000/svg"><path d="M18.395 0C14.57 0 9.98 3.79 6.259 10.156 2.295 16.808 0 24.962 0 32.08 0 42.522 5.668 53 18.395 53c12.726 0 18.394-10.478 18.394-20.921 0-7.117-2.295-15.306-6.259-21.887C26.81 3.791 22.22 0 18.395 0zm99.344 15.592h12.866v34.511h13.805v-34.51h12.865V2.824h-39.536v12.767zm69.023 0H207V2.825h-20.238c-18.603 0-28.513 9.513-28.513 23.675s9.945 23.675 28.513 23.675H207V37.372h-20.238c-8.623 0-14.221-3.183-14.221-10.872s5.598-10.908 14.221-10.908zM89.678 2.861l-7.372 28.252-7.371-28.252H50.558v47.35h13.805V11.659l10.049 38.48h15.821l10.05-38.516v38.516h13.804V2.861h-24.41z" fill="#fff"/></svg>