<svg width="279" height="31" viewBox="0 0 279 31" fill="none" xmlns="http://www.w3.org/2000/svg"><path fill-rule="evenodd" clip-rule="evenodd" d="M0 0h31.376v5.434c-3.974.235-12.433 1.465-13.384 9.059-.594 4.735 3.243 7.402 4.59 8.339.143.098.257.178.336.238 2.23 1.22 5.197 1.957 8.458 2.103v5.816H10.188c1.05-1.318 2.168-3.037 3.252-5.09.76-1.442 2.231-5.602 2.209-9.058-.012-1.454-.102-2.919-.838-3.757-.997-1.141-2.979-1.063-4.19-.861-3.85.637-7.745 3.444-10.621 7.045V0zm0 21.695v9.294h9.98l.057-.11c1.173-2.306 2.783-5.47 3.562-8.58.747-2.953 1.11-5.86-.374-7.27-1.074-1.017-3.012-.362-4.303.075l-.045.015c-2.253.75-6.907 3.68-8.877 6.576zm31.376 2.002V8.722c-3.782-.09-8.198.783-10.36 2.941-1.45 1.454-1.767 3.948-.884 5.905 2.005 4.417 7.496 5.692 11.244 6.129zM14.641.737a.4.4 0 00-.114-.123.669.669 0 00-.203-.044c-.181.067-.181.234-.181.268.01.344.023.696.037 1.05.143 3.646.3 7.638-3.446 7.628-2.446-.011-5.14-1.733-7.507-4.853l-.15-.195c-.38-.494-.9-1.169-1.367-1.405C1.302 2.851.52 3.4.86 4.271 1.8 6.687 4.723 8.923 5.583 9.45c1.846 1.152 5.798 2.058 7.802.447 2.441-1.965 1.869-5.877 1.563-7.97L14.9 1.61c-.068-.437-.147-.716-.26-.873z" fill="#fff"/><path d="M275.864 12.973c0-1.119-1.824-2.327-4.575-2.327h-20.857V15.3h20.857c2.751 0 4.575-1.22 4.575-2.326zm3.136 0c0 2.997-3.454 5.423-7.711 5.423h-20.857v5.648h-3.136V7.55h23.993c4.257 0 7.711 2.415 7.711 5.424zm-38.351 2.818c0-2.774-5.062-5.58-14.732-5.58-9.669 0-14.731 2.806-14.731 5.58 0 2.203 5.877 5.524 14.731 5.524 8.856 0 14.732-3.321 14.732-5.524zm-14.732-8.678c11.81 0 17.869 3.902 17.869 8.678 0 4.775-8.006 8.622-17.869 8.622-9.872 0-17.867-3.847-17.867-8.622 0-4.776 6.069-8.678 17.867-8.678zm-17.867.436h-31.795v3.097h14.335v13.398h3.136V10.646h14.335V7.55h-.011zm-35.849 9.696l-7.144-6.464-7.145 6.464h14.289zm3.431 3.097h-21.14l-4.099 3.702h-4.643l19.307-17.468 19.305 17.468h-4.642l-4.088-3.702zm-30.629-5.77h-18.751v3.098h15.615v1.554c-2.559 1.197-6.715 2.091-11.878 2.091-8.854 0-14.731-3.321-14.731-5.524 0-2.774 5.061-5.58 14.731-5.58 6.171 0 10.463 1.14 12.761 2.694l1.744-2.572c-2.945-1.957-7.791-3.22-14.505-3.22-11.81 0-17.868 3.902-17.868 8.678 0 4.775 8.005 8.622 17.868 8.622 6.296 0 11.833-1.297 15.014-3.478v-6.363zM73.77 7.549L60.148 20.376 46.515 7.549h-3.872v16.495h3.136V11.34l13.497 12.704h1.733L74.506 11.34v12.704h3.136V7.55H73.77zm11.651 3.097v3.244h22.771v3.097h-22.77v3.96h23.766v3.097H82.285V7.55h26.903v3.097H85.421z" fill="#fff"/></svg>