<svg width="241" height="67" viewBox="0 0 241 67" fill="none" xmlns="http://www.w3.org/2000/svg"><rect width="241" height="66.442" rx="33.221" fill="url(#paint0_linear)"/><mask id="a" maskUnits="userSpaceOnUse" x="0" y="0" width="241" height="67"><rect width="241" height="66.442" rx="33.221" fill="#141414"/></mask><g mask="url(#a)"><path transform="rotate(39.466 37.672 -32.63)" fill="url(#paint1_linear)" d="M37.672-32.631H81.63v90.813H37.672z"/><path transform="rotate(38.939 88.008 -28.7)" fill="url(#paint2_linear)" d="M88.008-28.7h30.985V89.435H88.008z"/><path transform="rotate(38.939 124.57 -25.554)" fill="url(#paint3_linear)" d="M124.57-25.554h33.065V92.581H124.57z"/></g><path d="M47.206 22.798h-9.464v-4.32H61.8v4.32h-9.465v21.977h-5.128V22.798zm34.407 0H72.15v-4.32h24.057v4.32h-9.464v21.977h-5.129V22.798zm52.344-4.321v26.298h-4.085l-16.052-18.22v18.22h-4.795V18.478h4.086l16.052 18.295V18.477h4.794zm35.269 24.833V18.477h4.795v10.444c1.362-.976 3.016-1.465 4.961-1.465 2.752 0 4.92.802 6.504 2.404 1.612 1.553 2.419 3.62 2.419 6.2 0 2.78-.973 4.996-2.919 6.649-1.918 1.653-4.517 2.479-7.796 2.479-1.446 0-2.905-.175-4.378-.526-1.445-.35-2.641-.801-3.586-1.352zm8.631-11.797c-1.529 0-2.808.539-3.836 1.616v7.175c1.028.576 2.168.864 3.419.864 1.584 0 2.863-.425 3.835-1.277 1.001-.877 1.501-2.054 1.501-3.531 0-1.528-.458-2.718-1.376-3.57-.917-.85-2.098-1.276-3.543-1.276zm28.195-3.643h5.462l-7.38 16.905c-1.334 2.93-2.529 4.909-3.585 5.936-1.029 1.051-2.252 1.577-3.669 1.577-1.334 0-2.682-.438-4.044-1.315l1.542-3.268c.723.4 1.376.601 1.96.601 1.139 0 2.098-.876 2.877-2.63l.416-.901-8.672-16.906h5.754l4.378 9.242c.055.125.361.94.917 2.442a13.8 13.8 0 01.667-2.48l3.377-9.204zm-63.193 2.237h7.633v7.267h-7.633z" fill="#141414"/><defs><linearGradient id="paint0_linear" x1="195.395" y1="0" x2="143.106" y2="66.442" gradientUnits="userSpaceOnUse"><stop stop-color="#FEDA32"/><stop offset="1" stop-color="#FD8E40"/></linearGradient><linearGradient id="paint1_linear" x1="59.651" y1="-32.631" x2="59.651" y2="58.182" gradientUnits="userSpaceOnUse"><stop stop-color="#FD8640"/><stop offset="1" stop-color="#FD6B24"/></linearGradient><linearGradient id="paint2_linear" x1="103.501" y1="-28.7" x2="103.501" y2="89.434" gradientUnits="userSpaceOnUse"><stop stop-color="#FDB338"/><stop offset="1" stop-color="#FD6B22"/></linearGradient><linearGradient id="paint3_linear" x1="141.103" y1="-25.554" x2="141.103" y2="92.581" gradientUnits="userSpaceOnUse"><stop stop-color="#FEDC32"/><stop offset=".948" stop-color="#FDB839"/></linearGradient></defs></svg>