<svg width="78" height="78" viewBox="0 0 78 78" fill="none" xmlns="http://www.w3.org/2000/svg"><path d="M39 73.404c-18.804 0-34.264-15.6-34.264-34.404 0-3.9.696-7.66 1.95-11.282l20.057 39c.278.557.557.975 1.253.975.697 0 .975-.418 1.254-.975l9.332-20.754c.14-.278.279-.418.418-.418.279 0 .279.279.418.418l9.471 20.754c.279.557.557.975 1.254.975.696 0 .975-.418 1.253-.975l20.058-39A33.086 33.086 0 0173.404 39c-.14 18.804-15.6 34.404-34.404 34.404zm0-43.318c-.279 0-.279-.279-.418-.418L27.857 6.546A32.88 32.88 0 0139 4.596c3.9 0 7.66.697 11.143 1.95L39.418 29.668c-.14.14-.14.418-.418.418zM27.718 55.157c-.279 0-.279-.278-.418-.418L9.75 21.032c3.064-5.014 7.521-9.193 12.675-12.118l12.396 26.743c.279.557.558.697.975.697h6.408c.417 0 .696-.14.975-.697L55.436 8.914c5.153 2.925 9.61 7.104 12.675 12.118L50.7 54.74c-.14.279-.279.418-.418.418-.278 0-.278-.278-.418-.418L43.18 39.975c-.279-.557-.558-.696-.975-.696h-6.408c-.417 0-.696.139-.975.696l-6.685 14.764c-.14.14-.14.418-.418.418zM39 78c21.59 0 39-17.41 39-39S60.59 0 39 0 0 17.41 0 39s17.41 39 39 39z" fill="#141414"/></svg>