<svg width="260" height="45" viewBox="0 0 260 45" fill="none" xmlns="http://www.w3.org/2000/svg"><path d="M110.273 10.655c-.514.082-1.786.678-2.053 2.18 1.006-1.358 1.191-1.42 1.724-1.666 1.539-.761 4.249.74 5.542.72.02-.062.041-.083.041-.144-1.848-.391-3.161-1.42-5.254-1.09zm-.042.925c-1.005.35-1.99 1.46-1.395 2.448.636 1.048 2.155.452 2.709-.124.575-.576.841-1.892 2.565-1.501.124-.083.288.144.349-.083-.985-.76-2.811-1.007-4.228-.74zm14.983.453a34.41 34.41 0 00-.657-1.173c-.226-.35-.452-.7-.698-1.049-3.633-5.203-9.646-8.618-16.439-8.618-11.042 0-20.031 9.009-20.031 20.074 0 11.066 8.989 20.074 20.031 20.074 6.793 0 12.806-3.414 16.439-8.617.246-.35.472-.7.698-1.05.226-.37.451-.76.657-1.172a20.013 20.013 0 000-18.47zm-17.794 9.132v-3.559c.102-.04.533.967.554 1.111.533 2.859.123 3.579-.554 3.6v-1.152zm-.452 17.626c-9.44-.247-16.993-8.021-16.993-17.524-.02-9.625 7.552-17.112 17.014-17.503v1.132s-5.439.061-9.667 3.66c-.123.186 0 .289.267.145.287-.144 3.982-2.654 7.635-1.852 1.026.556 1.765 2.16 1.765 2.983v1.645c-1.273-1.542-4.331-2.694-6.239-2.303-.555.123-.288.35-.185.39 1.621-.02 6.136 1.666 6.424 4.032v10.53c1.272.062 1.765-.308 2.032-.576.431-.41.882-1.44.738-2.406l-.472.165h-.02c-.185 1.48-.616 1.974-1.847 2.344v-.617c.862-.082 1.252-.843 1.17-2.489-.083-1.583-.534-2.838-1.191-4.154v-1.214c.636 1.255 1.191 3.682 1.622 4.093.328-.123-.493-2.283-.78-3.105.308-.37.862.843 1.19 1.48.595 1.481 2.052 6.459-.308 7.24-2.134.556-3.735.309-4.371-.637-1.006-1.666 1.067-3.723.41-4.525l-.554-5.142c-.41-3.6-5.377-4.833-7.348-2.53-.328.514.124.35.37.144 1.58-1.028 5.069-1.234 6.054 1.769.226.596.206 1.851-.472.226-1.21-1.892-2.976-2.756-5.069-1.255-.349.227-1.642 1.358-2.073.74-.78-1.007.985-2.426.924-3.043l-.267.165c-1.252 1.048-2.094 3.599-1.293 5.594.123.514.698.987-.41 1.234-2.36.864-2.73 3.229-2.73 4.196 0 3.846 3.243 8.247 7.368 6.17.862-.535 1.313-1.152 1.621-1.543l-.226-.185c-6.424 6.726-10.467-6.396-5.11-7.219.616.72 1.519 1.584 2.463 1.81 1.868.432 3.612-.35 5.603-3.167.308-.309.39-.02.328.144-.205 1.07-1.354 2.57-1.56 3.003-.123.246-.02.555.329.267.451-.617.574-1.029.964-1.11l-.882 1.891c-.329.515-.595.803.267.7.821 0 .451.411.574 1.028.76 1.11-1.046 1.934-1.211.35 0-.556.472-.946.144-1.05-.328.104-.759.906-.78 1.81l-.821 1.235.185.206.924-1.296c.41.925 1.929.411 2.011.39.328.021.513.103.698.33.02.35.225.452.308.905.492.514-.206.72-.637.884-1.683.638-1.785 1.645-2.463 2.468-.451.555-.636.37-1.046.782-.308.534.41.76.554 1.028.205.411.616.987 1.211 1.234.39.123.615.226.02.556-.431.287-.615 1.028-.615 1.275 0 .637.143 1.46.964 1.995a7.146 7.146 0 01-1.272-.432c.431-.535.041-.7-.041-.843-.185.04-.206.74-1.088.431.287-.514 2.093-2.591 1.211-2.9-.718 1.193-.985 2.571-2.525 2.304.678-.514 1.724-1.07 2.217-2.653l-.246-.083c-.595 1.214-1.786 2.674-3.202 1.975.616-.288 1.026-.555 1.355-.823.287-.246 1.641-1.398 1.149-1.645-.801.802-2.566 2.674-3.633 1.584.616-.165 1.273-.432 1.786-.761.492-.33 1.19-1.008 1.58-1.235l-.164-.329c-.39.083-2.176 1.543-2.566 1.625-.554.144-1.005.535-1.806-.329 1.006-.103 1.95-.39 2.402-.679.37-.226 1.683-.863 1.847-.884l-.185-.329c-.924.309-1.662 1.399-3.674 1.399-.143 0-.923-.042-1.58-.823l.02-.041c1.232.185 2.238.164 3.428-.185.575-.206 1.108-.556 1.683-.72l-.185-.432c-1.088.473-1.888.987-3.222.987-1.498 0-1.745.226-2.648-.967.165-.185 1.273.35 2.012.35 1.642 0 2.401-.041 3.776-.679l-.164-.329c-.472.206-1.56.535-2.545.555-2.258.021-3.982-.987-4.105-1.933.637.535 1.601 1.214 2.689 1.316.841.083 3.099 0 3.9-.308l-.144-.308c-.431.164-2.237.329-2.771.329-1.15 0-2.422-.823-2.75-1.07-2.278-1.83-2.935-7.343-1.642-9.111.267-.885 1.888-2.242 1.868-2.51-.267-2.612-.41-3.537 1.58-6.293-1.704 1.049-2.956 3.373-2.176 5.594.35.987-1.128 1.851-1.56 2.55-1.929 3.188-1.046 6.582.308 9.79 4.741 10.1 14.552 9.79 14.552 9.79l.02 1.132zm.452-32.044v-.515c.574.062 1.046.206 1.58.33.616-.618-1.313-.638-1.58-.823v-.37c1.375-.062 2.75.144 4.084.514l-.041.123c-1.129.082-2.155.843-3.038 1.769-.082.082-.184.39-.492.39-.308-.02-.431-.123-.534-.39v-.658c.308 0 .903.39.965-.062-.431-.226-.575-.123-.944-.308zm14.161 8.823c.144.041.575.185.759.35.041.04.062.062.083.103l.123.411c-.103-.041-.206-.103-.308-.144-.246-.144-.431-.226-.595.103.205.082.369.164.513.226.287.165.431.33.554.432.02.123.123.309.144.494-.288 0-.575-.268-.842-.33-.103-.02-.185-.02-.267.021v.02l-.02.165c.061.02.143.062.225.103.329.185.801.535 1.006.843.082.124.123.227.082.33-.041 0-.082 0-.123-.021-.349-.082-.739-.535-.985-.35 0 .206.103.309.164.37.246.268.534.35.76.473.246.145.41.309.369.823a1.751 1.751 0 01-.431-.144c-.185-.082-.369-.164-.78-.329-.349.185.246.556.513.617.082.02.164.062.246.103.247.123.493.33.493.473l.021.576a4.46 4.46 0 01-.555-.267c-.328-.165-.656-.309-.964-.103 0 .411.533.411.964.637.308.165.575.453.493 1.111a.74.74 0 01-.431-.082c-.308-.165-.554-.453-.842-.453l-.102.391c.328.185.657.514 1.006.761.102.062.184.123.287.165l-.103.596c-.02 0-.061-.02-.082-.02-.328-.124-.882-.659-1.088-.659a.498.498 0 00-.123.185c-.041.103-.041.185.041.288 0 0 0 .02.021.02 0 .021.739.597 1.149.782-.144.967-.575.761-.944.473-.369-.267-.698-.596-.698-.04.205.246.554.452.842.699.143.123.267.247.369.411a5.151 5.151 0 01-.164.453c-.021.061-.062.143-.082.205-.431-.37-.883-.74-1.314-1.07a19.362 19.362 0 00-4.351-2.55c.267-.946 3.284.782 3.284.967.082-.185.185-.206.226-.35-.308-.226-2.011-1.337-2.483-1.398-.021-.062.348-.412.389-.514.124-.021 1.047.329 1.17.39.39-.473-.554-.514-.821-.884.144-.144.185-.309.267-.535.226.082.513.432.718.288.103-.123.103-.205.062-.329-.759-.494-.636-.165-.451-1.07 1.026.103.656-.205.123-.493l.102-.617c.226.082.657.164.534-.247-.164-.082-.226-.041-.452-.226.082-.185.103-.35.124-.617.164-.062.266-.02.41-.082.041-.288-.205-.288-.369-.432.041-.185.02-.33.02-.535l.39.062c.082 0 .185-.33.041-.37-.246-.083-.718-.31-.882-.577 1.477.206 1.641-.493 2.38-.946.021-.02.082-.02.165 0a1 1 0 01.431.165l.205.452c-.205.062-.534-.144-.678-.123-.082.309.062.309.062.37zm-10.323 17.606a2.85 2.85 0 00.39-.617c1.087.987 1.375 2.53 1.375 3.64-.288.062-.595.206-.903.288.266-1.275-.185-2.282-.862-3.31zm-3.838.411c1.826.083 3.017.453 3.058 1.522.041 1.152-1.355 1.605-3.058 1.666v-.41c-1.971-.063-2.874-.35-2.874-1.276 0-1.008 1.15-1.131 2.874-1.07v-.432zm3.284-10.057c1.231-.946 2.36 1.049 1.067 1.974-1.191 1.09-2.525 1.09-4.043 1.09-.041 1.584 2.586 3.168 4.002 2.715 2.257-.205 3.632-3.003 5.192-2.015.534.329.288.76.677 1.151.308-.02.308-.205.37-.431-1.006-.659.534-1.893-1.663-2.078-.923-.082-1.272-1.584-3.447-1.008 1.005-1.419 3.509-1.275 4.412-.678 2.381 1.583.78 5.985.164 5.512-.061-2.838-5.295.802-6.157.514-1.929-.226-3.037-1.748-3.838-1.892h-.41v1.028c-1.026-.082-.534-.37-1.642-.37-1.129 0-1.088.411-2.114.884.739-1.542.944-1.953 1.929-2.056.349 0 2.176.555 2.258.04v-2.24c1.58.082 2.093-.37 2.873-1.131.164.247.842.74 1.108.37-.246-.37-1.231-.082-.738-1.378zm6.608-8.33l.698.144c.246.905.451 2.941-1.806 3.928-1.765.782-3.592-.432-4.372-1.686l.719-.226c.41.781 2.031 1.892 3.407 1.234 1.498-.7 1.457-2.057 1.354-3.394zm-1.58.226c.308-.185.513-.206.821-.185.615 1.892-.123 2.653-.801 2.941-1.087.432-2.052-.226-2.627-1.028.165-.123.554-.494.739-.514.226.822.883 1.008 1.519.802.718-.247 1.067-1.214.349-2.016zm-2.976 1.46c-1.129.494-2.011.103-2.648-.246 2.709-.37 2.627-1.255 4.331-2.407.616-.247 1.95.02 2.36.494-3.181.308-2.217 1.357-4.043 2.16zm2.134 3.106c2.278.103 3.346-1.09 3.961-3.167h.082c-.041 1.542-1.026 3.311-3.181 3.517-3.673.37-6.259-3.538-6.259-3.538l.041-.123c2.114 1.81 3.242 3.208 5.356 3.311zm-1.457.679c1.704.637 4.269-.535 5.295-1.728-.656 1.234-2.298 2.345-4.371 2.304-.76 0-2.812-.7-4.187-2.51.103-.02 2.545 1.955 3.263 1.934zm1.129 6.211c-.575.144-1.642-.596-1.806-1.09.205-.061.349-.061.636.062.513.247.123.514 1.17 1.028zm-.842-1.604c.965.082.637.453 1.601.905-.492.041-1.559-.308-1.601-.905zm-4.125 1.728c.267 0 .678.04.842.247.267.329.554.843 1.806 1.378-1.17.102-2.832-1.214-2.648-1.625zm1.109 1.769c.082.061-1.704-.412-2.443-1.646.226.02.595-.02.842.206.266.247.349.576 1.601 1.44zm-.144-2.078c.205 0 .78 0 .923.185.185.247.801.905 1.642 1.173-.656.267-2.339-.905-2.565-1.358zm1.129-.473c.266-.02.492-.103.759.062.226.144.021.432 1.396 1.275-.534.082-2.032-.782-2.155-1.337zm-.637-4.771c.185 0 1.683 1.213 3.243 1.275 1.232.061 2.709-.227 3.243-.967h.041c-.39.905-2.176 1.44-3.366 1.399-.595-.041-2.545-.74-3.161-1.707zm3.366.72c-1.231-.103-2.77-.782-3.571-1.975h.021c1.272 1.028 2.524 1.543 3.694 1.543 1.457 0 2.175-.433 3.735-1.337-.698 1.007-2.442 1.666-3.879 1.768zm.247 7.507c.472-.412.677-.432 1.169-.412.37 1.193-.041 2.55-.718 2.777.308-1.522-.328-1.666-.451-2.365zm-1.047 2.036c-.329-.473-.411-.72-.842-1.173.37-.061.698-.205 1.047-.267.123.288.164.884-.205 1.44zm-5.111-1.687c-.225 1.44-.8.041-.718-.39.226.164.472.246.718.39zm-4.864 1.255c.308-.802 1.232-.946 3.736-.226 1.026.061 2.832-.432 3.694.37.308.288.041.843-.308 1.645h-5.008c-1.334-.02-2.709-.555-2.114-1.79zm7.902 3.928c.205.72.185 1.029.123 1.42-1.108.267-2.175.452-3.345.514 1.929-.37 2.729-.617 3.222-1.934zm.698-2.797l1.067.165c.513.596.8 1.151 1.067 3.023-.267.165-.533.247-.821.35-.02-1.173-.492-2.489-1.313-3.538zm1.826.226c-.041-.102.555-.061.965-.164.369.781.657 1.296.636 2.345-.267.185-.492.35-.821.493-.02-1.542-.349-1.769-.78-2.674zm1.396-.329c.287-.061.431-.123.657-.308.287.493.615 1.501.595 2.221-.205.062-.431.35-.636.453 0-.659-.185-1.543-.616-2.366zm1.047-.555c.102-.062.533-.473.554-.473.533.637.595 1.172.739 1.995-.041.164-.493.432-.616.493-.021-.76-.123-1.233-.677-2.015zm.944-.967c.143-.164.308-.247.451-.555.575.7.801 1.234.965 2.077-.205.247-.39.432-.616.617-.123-1.049-.246-1.419-.8-2.139zm.8-.884c.205-.206.267-.288.37-.555.574.493.964 1.028 1.211 1.707l-.534.596c-.041.02-.493-1.213-1.047-1.748zm.636-.967c.144-.288.144-.432.206-.823.882.556 1.416 1.502 1.621 1.893-.103.185-.267.37-.513.658-.452-.885-.657-1.11-1.314-1.728zm.308-1.501v-.7c.616.144 1.765 1.255 2.237 1.995-.164.33-.287.576-.451.844l-.041-.02c-.329-.7-1.026-1.646-1.745-2.12zm-.205-1.502c0-.329-.164-.781-.267-1.07.801.165 1.724 1.09 2.443 1.728.061.062.123.103.184.165v.062c.862.781.637.905.329 1.44a.153.153 0 00-.041.082c-.349-.782-1.991-2.016-2.648-2.407zm.452-10.716a1.862 1.862 0 01-1.109-.452c0-.062 0-.103.021-.144 1.005.02 2.319-.596 2.606-1.625.165.165.329.514.493.843-.37.905-.985 1.378-2.011 1.378zm-1.232-1.028c-.369-.041-1.478-.247-1.539-.72.636-.822 2.565-.02 3.017-2.345.308.432.821 1.152 1.026 1.42-.554 1.275-1.868 1.645-2.504 1.645zm-2.093-1.07c-2.114.145-2.504 1.667-4.454 2.777-1.662.617-3.981 0-4.207-1.913-.411-3.434 3.078-4.38 5.685-3.578 2.319.802 3.633 1.13 5.972.576-.739 2.118-2.381 1.892-2.996 2.139zm1.642-2.53c-.226-.267.451-.72.615-.822l.657.597c-.082.287-1.026.226-1.272.226zm-.575-.082l-.185.062c-.41-.185.123-1.44.349-1.707l.575.453c.287.226-.37.678-.739 1.193zm-.575-.658c0 .124-.184.083-.41-.123-.287-.658-.062-1.07.328-1.44l.493.33c-.37.452-.472.699-.411 1.233zm-.697-1.254c0 .534-.226.247-.329.205-.185-.246-.308-.699.082-1.13.247.143.37.225.554.41-.225.103-.349.288-.307.515zm-.185 1.625c-4.064-1.235-4.967-1.09-7.656.514.637-.802 2.484-1.728 3.12-1.872 1.621-.411 2.586-.411 4.084.597.349.35.452.596.452.76zm-1.293-2.14c-1.868-.082-2.545-.04-3.448.247-.801.247-1.95.494-3.161 2.098h-.041c-.39.391-.41-.02-.226-.39.801-2.55 3.654-4.443 6.322-3.312.554.309 1.334.946.554 1.358zm-15.865 11.21c1.21.596 1.909.308 2.75.02a1.09 1.09 0 01.657-.226c.349.391-1.539 1.09-2.258.946-1.847-.144-3.427-1.686-3.017-3.29.308-.412.924 1.398 1.93 1.645 1.703.74 3.407-.761 3.735-1.378.226-.432.698-.514.923-.288-.205 1.152-1.354 1.79-1.867 2.118-1.026.597-2.176.535-2.77.186-.227-.042-.33.123-.083.267zm1.293-4.854c2.648.062 3.161 3.352-.144 3.476-1.067-.144-1.416-.72-1.498-1.316.103-.617.35-.659.78-.7-.862 1.604 2.586 2.016 2.299-.02.102-.041.082-.103.102-.185 0 0-.102-.062-.164-.103-.903-.658-1.498-.494-2.709-.206-.062.103-1.006.35-1.21.39v-.02c-.822-.123-1.11-.596-1.314-1.275 1.662.802 2.38-1.234 3.817-1.48 1.868-.35 2.689 1.233 3.181 2.611.062.638-.349.535-.513.062-.349-1.42-1.108-1.913-2.627-1.769v.535zm7.142 22.542c-1.949.041-3.94-.596-3.981-1.872.123-1.378 1.703-1.789 3.981-1.748v.37c-1.334 0-3.16.041-3.201 1.317-.041 1.44 2.134 1.522 3.201 1.522v.411zm17.548-7.733c-.205.432-.41.863-.657 1.275-.226.39-.451.76-.698 1.131-3.386 5.142-9.194 8.536-15.782 8.536v-1.4c6.383 0 11.986-3.455 15.044-8.597.246-.412.472-.843.697-1.275a19.63 19.63 0 00.657-1.522 17.483 17.483 0 001.108-6.15c0-2.16-.39-4.237-1.108-6.15-.205-.514-.41-1.028-.657-1.522a15.376 15.376 0 00-.697-1.275c-3.058-5.142-8.661-8.597-15.044-8.597V2.325c6.588 0 12.396 3.414 15.782 8.535.247.37.472.74.698 1.131.226.412.452.844.657 1.276a18.912 18.912 0 011.765 7.98c0 2.88-.636 5.574-1.765 8zm17.137-28.034c-6.711 0-12.642 3.332-16.275 8.412a21.376 21.376 0 013.448 11.662c0 4.299-1.273 8.31-3.448 11.662 3.633 5.08 9.585 8.412 16.275 8.412 11.042 0 20.031-9.009 20.031-20.074 0-11.065-8.989-20.074-20.031-20.074zM99.128 8.865c2.053-.494 2.812-1.255 5.808.02.185.104.411.268.37-.123-.411-1.193-.842-1.337-.842-1.357-2.073-.35-3.571.226-5.315 1.193-.123.02-.288.226-.02.267zm6.342 26.244c.021.761.698.926 1.97.988v-.33c.739.021 1.334-.143 1.334-.637 0-.411-.533-.658-1.334-.617v-.267c-1.313 0-1.991.35-1.97.863zm1.539.412c-.451.04-.964-.02-.964-.412 0-.41.574-.452.964-.41v.822z" fill="#005DED"/><path d="M136.953 14.398l5.008 12.505 5.008-12.505h2.606V29.74h-2.011v-5.965l.185-6.437-5.029 12.423h-1.539l-5.008-12.382.205 6.417v5.965h-2.011V14.398h2.586z" fill="#fff"/><path d="M10.754 25.833H4.207l-1.478 4.093H.615l5.952-15.631h1.806l5.973 15.631h-2.114l-1.478-4.093zm-5.931-1.686h5.315L7.47 16.825l-2.647 7.322zm21.016-8.165H20.83v13.944h-2.052V15.982H13.77v-1.687h12.068v1.687zM30.23 28.24h7.388v1.686h-9.461V14.295h2.073V28.24zm18.574-2.407h-6.547l-1.478 4.093h-2.114l5.952-15.631h1.806l5.972 15.631h-2.114l-1.477-4.093zm-5.932-1.686h5.316l-2.668-7.322-2.648 7.322zm23.623 5.78h-2.073l-7.86-12.053v12.052H54.49V14.295h2.073l7.88 12.114V14.295h2.053v15.631zm14.12-13.945H75.61v13.944h-2.053V15.982h-5.008v-1.687h12.068v1.687z" fill="#005DED"/><path d="M239.323 40.555c-9.97 0-18.167-8.27-18.167-18.24 0-2.068.37-4.062 1.034-5.982l10.634 20.677c.148.296.296.517.665.517.369 0 .517-.221.664-.517l4.948-11.003c.074-.148.148-.221.222-.221.147 0 .147.147.221.221l5.022 11.003c.148.296.295.517.664.517.37 0 .517-.221.665-.517l10.634-20.677a17.531 17.531 0 011.034 5.982c-.074 9.97-8.271 18.24-18.24 18.24zm0-22.966c-.148 0-.148-.148-.222-.222L233.415 5.11a17.432 17.432 0 015.908-1.034c2.067 0 4.061.369 5.907 1.034l-5.686 12.258c-.074.074-.074.222-.221.222zm-5.982 13.292c-.148 0-.148-.148-.221-.221l-9.305-17.871c1.624-2.659 3.988-4.874 6.72-6.425l6.572 14.178c.148.296.296.37.517.37h3.397c.222 0 .369-.074.517-.37l6.499-14.178c2.732 1.55 5.095 3.766 6.72 6.425l-9.231 17.87c-.074.148-.148.222-.222.222-.147 0-.147-.148-.221-.221l-3.545-7.828c-.148-.296-.295-.37-.517-.37h-3.397c-.221 0-.369.074-.517.37l-3.544 7.828c-.074.073-.074.221-.222.221zm5.982 12.111c11.446 0 20.677-9.23 20.677-20.677 0-11.446-9.231-20.677-20.677-20.677-11.447 0-20.677 9.23-20.677 20.677 0 11.446 9.23 20.677 20.677 20.677z" fill="#001E50"/><path d="M187.118 11.465c0-.905.733-1.638 1.638-1.638h1.637c.905 0 1.638.733 1.638 1.638v21.291c0 .905-.733 1.638-1.638 1.638h-1.637a1.638 1.638 0 01-1.638-1.638V11.465z" fill="#C5CDCF"/><path d="M200.22 19.654c.905 0 1.638.733 1.638 1.638v1.637c0 .905-.733 1.638-1.638 1.638h-21.291a1.638 1.638 0 01-1.638-1.637v-1.638c0-.905.733-1.638 1.638-1.638h21.291z" fill="#C5CDCF"/></svg>