<svg width="1568" height="261" viewBox="0 0 1568 261" fill="none" xmlns="http://www.w3.org/2000/svg"><path d="M39.627 44h-2.592V27.2h2.952v11.952L48.795 27.2h2.592V44h-2.952V32.072L39.627 44zm15.624 0V33.2h2.496l3.672 4.512 3.48-4.512h2.424V44h-2.76v-6.6l-3.192 4.032h-.072L58.01 37.4V44h-2.76zm22.509 0v-8.208h-4.61V44h-2.76V33.2h10.13V44h-2.76zm6.763-1.32c-1.072-1.072-1.608-2.432-1.608-4.08 0-1.648.536-3 1.608-4.056 1.088-1.072 2.512-1.608 4.272-1.608 1.76 0 3.176.536 4.248 1.608 1.088 1.056 1.632 2.408 1.632 4.056 0 1.648-.544 3.008-1.632 4.08-1.072 1.056-2.488 1.584-4.248 1.584-1.76 0-3.184-.528-4.272-1.584zm1.344-4.08c0 .896.272 1.64.816 2.232.56.576 1.264.864 2.112.864.864 0 1.568-.28 2.112-.84.56-.576.84-1.328.84-2.256 0-.896-.28-1.632-.84-2.208-.56-.576-1.264-.864-2.112-.864-.832 0-1.528.288-2.088.864-.56.56-.84 1.296-.84 2.208zm11.196 10.2V33.2h2.76v1.032c.352-.368.824-.672 1.416-.912a4.898 4.898 0 011.92-.384c1.472 0 2.656.512 3.552 1.536.896 1.024 1.344 2.344 1.344 3.96 0 1.68-.528 3.072-1.584 4.176s-2.432 1.656-4.128 1.656c-1.072 0-1.912-.176-2.52-.528V48.8h-2.76zm5.232-13.272c-.944 0-1.768.392-2.472 1.176v4.368c.64.416 1.4.624 2.28.624.928 0 1.664-.296 2.208-.888.544-.608.816-1.376.816-2.304 0-.88-.248-1.592-.744-2.136-.496-.56-1.192-.84-2.088-.84zm6.601.432V33.2h9.84v2.76h-3.528V44h-2.76v-8.04h-3.552zm24.39 8.04v-4.128h-4.728V44h-2.76V33.2h2.76v4.08h4.728V33.2h2.76V44h-2.76zm6.76-1.32c-1.072-1.072-1.608-2.432-1.608-4.08 0-1.648.536-3 1.608-4.056 1.088-1.072 2.512-1.608 4.272-1.608 1.76 0 3.176.536 4.248 1.608 1.088 1.056 1.632 2.408 1.632 4.056 0 1.648-.544 3.008-1.632 4.08-1.072 1.056-2.488 1.584-4.248 1.584-1.76 0-3.184-.528-4.272-1.584zm1.344-4.08c0 .896.272 1.64.816 2.232.56.576 1.264.864 2.112.864.864 0 1.568-.28 2.112-.84.56-.576.84-1.328.84-2.256 0-.896-.28-1.632-.84-2.208-.56-.576-1.264-.864-2.112-.864-.832 0-1.528.288-2.088.864-.56.56-.84 1.296-.84 2.208zm11.197 5.4V33.2c.192 0 .544-.008 1.056-.024a51.715 51.715 0 013.192-.096c3.264 0 4.896.944 4.896 2.832 0 .624-.2 1.16-.6 1.608a2.231 2.231 0 01-1.416.792v.048c1.536.368 2.304 1.2 2.304 2.496 0 2.176-1.712 3.264-5.136 3.264a55.3 55.3 0 01-2.28-.072 86.639 86.639 0 00-2.016-.048zm4.488-4.584h-1.728v2.4c1.088.064 1.696.096 1.824.096.608 0 1.08-.112 1.416-.336.352-.224.528-.528.528-.912 0-.832-.68-1.248-2.04-1.248zm0-4.104c-.768 0-1.344.016-1.728.048v2.376h1.8c.48 0 .872-.104 1.176-.312.32-.224.48-.536.48-.936 0-.784-.576-1.176-1.728-1.176zM164.634 44V33.2h2.76v2.952h1.344c1.696 0 2.912.352 3.648 1.056.736.704 1.104 1.6 1.104 2.688 0 1.168-.4 2.144-1.2 2.928-.8.784-2.056 1.176-3.768 1.176h-3.888zm10.392 0V33.2h2.76V44h-2.76zm-6.528-5.64h-1.104v3.24h1.08c1.392 0 2.088-.536 2.088-1.608 0-1.088-.688-1.632-2.064-1.632zm22.674-5.16l-3.6 5.16 3.84 5.64h-3.36l-2.52-3.888L182.916 44h-3.192l3.84-5.496-3.6-5.304h3.384l2.28 3.576 2.352-3.576h3.192zm8.145 2.784l-.696-2.016a7.385 7.385 0 013.816-1.032c1.536 0 2.64.376 3.312 1.128.672.752 1.008 1.872 1.008 3.36V44h-2.4v-1.248c-.656.928-1.72 1.392-3.192 1.392-1.008 0-1.824-.296-2.448-.888-.624-.592-.936-1.4-.936-2.424 0-1.136.368-2 1.104-2.592.736-.608 1.68-.912 2.832-.912.992 0 1.808.232 2.448.696.032-.944-.104-1.64-.408-2.088-.304-.464-.84-.696-1.608-.696-.8 0-1.744.248-2.832.744zm2.76 5.832c.928 0 1.624-.328 2.088-.984v-1.104c-.464-.352-1.096-.528-1.896-.528-.496 0-.912.12-1.248.36-.32.224-.48.552-.48.984 0 .4.144.712.432.936.288.224.656.336 1.104.336zm7.51 2.184V33.2c.192 0 .544-.008 1.056-.024a51.715 51.715 0 013.192-.096c3.264 0 4.896.944 4.896 2.832 0 .624-.2 1.16-.6 1.608a2.231 2.231 0 01-1.416.792v.048c1.536.368 2.304 1.2 2.304 2.496 0 2.176-1.712 3.264-5.136 3.264a55.3 55.3 0 01-2.28-.072 86.639 86.639 0 00-2.016-.048zm4.488-4.584h-1.728v2.4c1.088.064 1.696.096 1.824.096.608 0 1.08-.112 1.416-.336.352-.224.528-.528.528-.912 0-.832-.68-1.248-2.04-1.248zm0-4.104c-.768 0-1.344.016-1.728.048v2.376h1.8c.48 0 .872-.104 1.176-.312.32-.224.48-.536.48-.936 0-.784-.576-1.176-1.728-1.176zm6.431.648V33.2h9.84v2.76h-3.528V44h-2.76v-8.04h-3.552zm12.423 6.72c-1.072-1.072-1.608-2.432-1.608-4.08 0-1.648.536-3 1.608-4.056 1.088-1.072 2.512-1.608 4.272-1.608 1.76 0 3.176.536 4.248 1.608 1.088 1.056 1.632 2.408 1.632 4.056 0 1.648-.544 3.008-1.632 4.08-1.072 1.056-2.488 1.584-4.248 1.584-1.76 0-3.184-.528-4.272-1.584zm1.344-4.08c0 .896.272 1.64.816 2.232.56.576 1.264.864 2.112.864.864 0 1.568-.28 2.112-.84.56-.576.84-1.328.84-2.256 0-.896-.28-1.632-.84-2.208-.56-.576-1.264-.864-2.112-.864-.832 0-1.528.288-2.088.864-.56.56-.84 1.296-.84 2.208zM245.47 44V33.2h2.496l3.672 4.512 3.48-4.512h2.424V44h-2.76v-6.6l-3.192 4.032h-.072L248.23 37.4V44h-2.76zm16.076-1.32c-1.072-1.072-1.608-2.432-1.608-4.08 0-1.648.536-3 1.608-4.056 1.088-1.072 2.512-1.608 4.272-1.608 1.76 0 3.176.536 4.248 1.608 1.088 1.056 1.632 2.408 1.632 4.056 0 1.648-.544 3.008-1.632 4.08-1.072 1.056-2.488 1.584-4.248 1.584-1.76 0-3.184-.528-4.272-1.584zm1.344-4.08c0 .896.272 1.64.816 2.232.56.576 1.264.864 2.112.864.864 0 1.568-.28 2.112-.84.56-.576.84-1.328.84-2.256 0-.896-.28-1.632-.84-2.208-.56-.576-1.264-.864-2.112-.864-.832 0-1.528.288-2.088.864-.56.56-.84 1.296-.84 2.208zm19.309-11.664l1.44 2.256c-.416.496-.896.848-1.44 1.056-.544.192-1.184.368-1.92.528-.72.144-1.344.344-1.872.6-1.344.624-2.12 1.968-2.328 4.032h.048c.336-.592.856-1.072 1.56-1.44a4.594 4.594 0 012.232-.576c1.488 0 2.68.48 3.576 1.44.896.96 1.344 2.248 1.344 3.864 0 1.552-.528 2.872-1.584 3.96-1.056 1.072-2.416 1.608-4.08 1.608-1.808 0-3.24-.616-4.296-1.848-1.04-1.232-1.56-2.896-1.56-4.992 0-4.624 1.36-7.52 4.08-8.688a9.38 9.38 0 011.968-.576c.704-.144 1.264-.288 1.68-.432a2.628 2.628 0 001.152-.792zM276.271 38c.016 1.072.28 1.96.792 2.664.512.688 1.192 1.032 2.04 1.032.848 0 1.52-.272 2.016-.816.512-.56.768-1.248.768-2.064 0-.832-.232-1.512-.696-2.04-.464-.544-1.12-.816-1.968-.816-.736 0-1.368.192-1.896.576A2.92 2.92 0 00276.271 38zm13.724 6h-2.76V33.2h2.76v6.84l5.04-6.84h2.76V44h-2.76v-6.84l-5.04 6.84zm17.985 0v-8.04h-2.856l-.072 1.152c-.176 1.936-.472 3.424-.888 4.464-.4 1.04-.912 1.744-1.536 2.112-.608.352-1.424.528-2.448.528l-.24-2.688a1.4 1.4 0 00.984-.288c.32-.24.624-.752.912-1.536.288-.8.472-1.848.552-3.144l.168-3.36h8.184V44h-2.76zm14.305-3.024l.792 1.944c-1.056.896-2.432 1.344-4.128 1.344-1.744 0-3.152-.52-4.224-1.56-1.056-1.04-1.584-2.408-1.584-4.104 0-1.616.52-2.96 1.56-4.032 1.04-1.088 2.424-1.632 4.152-1.632 1.424 0 2.632.472 3.624 1.416.992.928 1.488 2.128 1.488 3.6 0 .608-.056 1.104-.168 1.488h-7.8c.112.8.464 1.424 1.056 1.872.592.432 1.32.648 2.184.648 1.216 0 2.232-.328 3.048-.984zm-3.552-5.736c-1.568 0-2.512.784-2.832 2.352h5.304c.016-.672-.2-1.232-.648-1.68-.448-.448-1.056-.672-1.824-.672zM328.948 44h-2.76V33.2h2.76v6.84l5.04-6.84h2.76V44h-2.76v-6.84l-5.04 6.84zm-1.152-16.2h2.52c0 .496.096.912.288 1.248.208.336.528.504.96.504a.934.934 0 00.864-.504c.192-.336.288-.752.288-1.248h2.52c0 1.088-.32 1.984-.96 2.688-.64.688-1.544 1.032-2.712 1.032-1.28 0-2.232-.336-2.856-1.008-.608-.688-.912-1.592-.912-2.712z" fill="#fff"/><rect x="1.5" y="1.5" width="370" height="72" rx="6.5" stroke="#005DED" stroke-width="3"/><path d="M56.502 230H53.91v-16.8h2.952v11.952L65.67 213.2h2.592V230H65.31v-11.928L56.502 230zm15.624 0v-10.8h2.496l3.672 4.512 3.48-4.512h2.424V230h-2.76v-6.6l-3.192 4.032h-.072l-3.288-4.032v6.6h-2.76zm22.508 0v-8.208h-4.608V230h-2.76v-10.8h10.128V230h-2.76zm6.764-1.32c-1.072-1.072-1.608-2.432-1.608-4.08 0-1.648.536-3 1.608-4.056 1.088-1.072 2.512-1.608 4.272-1.608 1.76 0 3.176.536 4.248 1.608 1.088 1.056 1.632 2.408 1.632 4.056 0 1.648-.544 3.008-1.632 4.08-1.072 1.056-2.488 1.584-4.248 1.584-1.76 0-3.184-.528-4.272-1.584zm1.344-4.08c0 .896.272 1.64.816 2.232.56.576 1.264.864 2.112.864.864 0 1.568-.28 2.112-.84.56-.576.84-1.328.84-2.256 0-.896-.28-1.632-.84-2.208-.56-.576-1.264-.864-2.112-.864-.832 0-1.528.288-2.088.864-.56.56-.84 1.296-.84 2.208zm11.196 10.2v-15.6h2.76v1.032c.352-.368.824-.672 1.416-.912a4.898 4.898 0 011.92-.384c1.472 0 2.656.512 3.552 1.536.896 1.024 1.344 2.344 1.344 3.96 0 1.68-.528 3.072-1.584 4.176s-2.432 1.656-4.128 1.656c-1.072 0-1.912-.176-2.52-.528v5.064h-2.76zm5.232-13.272c-.944 0-1.768.392-2.472 1.176v4.368c.64.416 1.4.624 2.28.624.928 0 1.664-.296 2.208-.888.544-.608.816-1.376.816-2.304 0-.88-.248-1.592-.744-2.136-.496-.56-1.192-.84-2.088-.84zm6.601.432v-2.76h9.84v2.76h-3.528V230h-2.76v-8.04h-3.552zm25.014-9.024l1.44 2.256c-.416.496-.896.848-1.44 1.056-.544.192-1.184.368-1.92.528-.72.144-1.344.344-1.872.6-1.344.624-2.12 1.968-2.328 4.032h.048c.336-.592.856-1.072 1.56-1.44a4.594 4.594 0 012.232-.576c1.488 0 2.68.48 3.576 1.44.896.96 1.344 2.248 1.344 3.864 0 1.552-.528 2.872-1.584 3.96-1.056 1.072-2.416 1.608-4.08 1.608-1.808 0-3.24-.616-4.296-1.848-1.04-1.232-1.56-2.896-1.56-4.992 0-4.624 1.36-7.52 4.08-8.688a9.38 9.38 0 011.968-.576c.704-.144 1.264-.288 1.68-.432a2.628 2.628 0 001.152-.792zM144.857 224c.016 1.072.28 1.96.792 2.664.512.688 1.192 1.032 2.04 1.032.848 0 1.52-.272 2.016-.816.512-.56.768-1.248.768-2.064 0-.832-.232-1.512-.696-2.04-.464-.544-1.12-.816-1.968-.816-.736 0-1.368.192-1.896.576a2.92 2.92 0 00-1.056 1.464zm8.708 10.2l7.92-21.264 2.136.792-7.92 21.264-2.136-.792zm21.297-15l-4.248 10.8c-.768 1.872-1.456 3.136-2.064 3.792-.592.672-1.296 1.008-2.112 1.008-.784 0-1.56-.28-2.328-.84l.888-2.088c.432.256.808.384 1.128.384.656 0 1.208-.56 1.656-1.68l.24-.576-4.992-10.8h3.312l2.52 5.904c.096.24.272.76.528 1.56.128-.704.256-1.232.384-1.584l1.944-5.88h3.144zm7.58 2.784l-.696-2.016a7.385 7.385 0 013.816-1.032c1.536 0 2.64.376 3.312 1.128.672.752 1.008 1.872 1.008 3.36V230h-2.4v-1.248c-.656.928-1.72 1.392-3.192 1.392-1.008 0-1.824-.296-2.448-.888-.624-.592-.936-1.4-.936-2.424 0-1.136.368-2 1.104-2.592.736-.608 1.68-.912 2.832-.912.992 0 1.808.232 2.448.696.032-.944-.104-1.64-.408-2.088-.304-.464-.84-.696-1.608-.696-.8 0-1.744.248-2.832.744zm2.76 5.832c.928 0 1.624-.328 2.088-.984v-1.104c-.464-.352-1.096-.528-1.896-.528-.496 0-.912.12-1.248.36-.32.224-.48.552-.48.984 0 .4.144.712.432.936.288.224.656.336 1.104.336zm7.51 2.184v-10.8c.192 0 .544-.008 1.056-.024a51.715 51.715 0 013.192-.096c3.264 0 4.896.944 4.896 2.832 0 .624-.2 1.16-.6 1.608a2.231 2.231 0 01-1.416.792v.048c1.536.368 2.304 1.2 2.304 2.496 0 2.176-1.712 3.264-5.136 3.264a55.3 55.3 0 01-2.28-.072 86.639 86.639 0 00-2.016-.048zm4.488-4.584h-1.728v2.4c1.088.064 1.696.096 1.824.096.608 0 1.08-.112 1.416-.336.352-.224.528-.528.528-.912 0-.832-.68-1.248-2.04-1.248zm0-4.104c-.768 0-1.344.016-1.728.048v2.376h1.8c.48 0 .872-.104 1.176-.312.32-.224.48-.536.48-.936 0-.784-.576-1.176-1.728-1.176zm6.431.648v-2.76h9.84v2.76h-3.528V230h-2.76v-8.04h-3.552zm12.423 6.72c-1.072-1.072-1.608-2.432-1.608-4.08 0-1.648.536-3 1.608-4.056 1.088-1.072 2.512-1.608 4.272-1.608 1.76 0 3.176.536 4.248 1.608 1.088 1.056 1.632 2.408 1.632 4.056 0 1.648-.544 3.008-1.632 4.08-1.072 1.056-2.488 1.584-4.248 1.584-1.76 0-3.184-.528-4.272-1.584zm1.344-4.08c0 .896.272 1.64.816 2.232.56.576 1.264.864 2.112.864.864 0 1.568-.28 2.112-.84.56-.576.84-1.328.84-2.256 0-.896-.28-1.632-.84-2.208-.56-.576-1.264-.864-2.112-.864-.832 0-1.528.288-2.088.864-.56.56-.84 1.296-.84 2.208zm11.197 5.4v-10.8h2.496l3.672 4.512 3.48-4.512h2.424V230h-2.76v-6.6l-3.192 4.032h-.072l-3.288-4.032v6.6h-2.76zm16.076-1.32c-1.072-1.072-1.608-2.432-1.608-4.08 0-1.648.536-3 1.608-4.056 1.088-1.072 2.512-1.608 4.272-1.608 1.76 0 3.176.536 4.248 1.608 1.088 1.056 1.632 2.408 1.632 4.056 0 1.648-.544 3.008-1.632 4.08-1.072 1.056-2.488 1.584-4.248 1.584-1.76 0-3.184-.528-4.272-1.584zm1.344-4.08c0 .896.272 1.64.816 2.232.56.576 1.264.864 2.112.864.864 0 1.568-.28 2.112-.84.56-.576.84-1.328.84-2.256 0-.896-.28-1.632-.84-2.208-.56-.576-1.264-.864-2.112-.864-.832 0-1.528.288-2.088.864-.56.56-.84 1.296-.84 2.208zm19.309-11.664l1.44 2.256c-.416.496-.896.848-1.44 1.056-.544.192-1.184.368-1.92.528-.72.144-1.344.344-1.872.6-1.344.624-2.12 1.968-2.328 4.032h.048c.336-.592.856-1.072 1.56-1.44a4.594 4.594 0 012.232-.576c1.488 0 2.68.48 3.576 1.44.896.96 1.344 2.248 1.344 3.864 0 1.552-.528 2.872-1.584 3.96-1.056 1.072-2.416 1.608-4.08 1.608-1.808 0-3.24-.616-4.296-1.848-1.04-1.232-1.56-2.896-1.56-4.992 0-4.624 1.36-7.52 4.08-8.688a9.38 9.38 0 011.968-.576c.704-.144 1.264-.288 1.68-.432a2.628 2.628 0 001.152-.792zM259.396 224c.016 1.072.28 1.96.792 2.664.512.688 1.192 1.032 2.04 1.032.848 0 1.52-.272 2.016-.816.512-.56.768-1.248.768-2.064 0-.832-.232-1.512-.696-2.04-.464-.544-1.12-.816-1.968-.816-.736 0-1.368.192-1.896.576a2.92 2.92 0 00-1.056 1.464zm13.724 6h-2.76v-10.8h2.76v6.84l5.04-6.84h2.76V230h-2.76v-6.84l-5.04 6.84zm17.985 0v-8.04h-2.856l-.072 1.152c-.176 1.936-.472 3.424-.888 4.464-.4 1.04-.912 1.744-1.536 2.112-.608.352-1.424.528-2.448.528l-.24-2.688a1.4 1.4 0 00.984-.288c.32-.24.624-.752.912-1.536.288-.8.472-1.848.552-3.144l.168-3.36h8.184V230h-2.76zm14.305-3.024l.792 1.944c-1.056.896-2.432 1.344-4.128 1.344-1.744 0-3.152-.52-4.224-1.56-1.056-1.04-1.584-2.408-1.584-4.104 0-1.616.52-2.96 1.56-4.032 1.04-1.088 2.424-1.632 4.152-1.632 1.424 0 2.632.472 3.624 1.416.992.928 1.488 2.128 1.488 3.6 0 .608-.056 1.104-.168 1.488h-7.8c.112.8.464 1.424 1.056 1.872.592.432 1.32.648 2.184.648 1.216 0 2.232-.328 3.048-.984zm-3.552-5.736c-1.568 0-2.512.784-2.832 2.352h5.304c.016-.672-.2-1.232-.648-1.68-.448-.448-1.056-.672-1.824-.672zm10.215 8.76h-2.76v-10.8h2.76v6.84l5.04-6.84h2.76V230h-2.76v-6.84l-5.04 6.84zm-1.152-16.2h2.52c0 .496.096.912.288 1.248.208.336.528.504.96.504a.934.934 0 00.864-.504c.192-.336.288-.752.288-1.248h2.52c0 1.088-.32 1.984-.96 2.688-.64.688-1.544 1.032-2.712 1.032-1.28 0-2.232-.336-2.856-1.008-.608-.688-.912-1.592-.912-2.712z" fill="#fff"/><rect x="1.5" y="187.5" width="370" height="72" rx="6.5" stroke="#005DED" stroke-width="3"/><path d="M718.317 216.368l4.296-3.216h1.992V230h-2.76v-12.912l-2.064 1.56-1.464-2.28zm22.792 9.792l1.128 2.208c-.528.56-1.288 1.016-2.28 1.368a9.055 9.055 0 01-3.096.528c-2.576 0-4.664-.792-6.264-2.376-1.6-1.584-2.4-3.68-2.4-6.288 0-2.512.76-4.584 2.28-6.216 1.52-1.632 3.624-2.448 6.312-2.448 2.16 0 3.864.568 5.112 1.704l-1.32 2.184c-1.136-.752-2.4-1.128-3.792-1.128-1.584 0-2.896.536-3.936 1.608-1.024 1.072-1.536 2.504-1.536 4.296 0 1.744.536 3.168 1.608 4.272 1.088 1.088 2.488 1.632 4.2 1.632 1.488 0 2.816-.448 3.984-1.344zm3.082-1.44v-2.568h6.048v2.568h-6.048zm9.864 5.28v-16.8h9.816v2.76h-6.864v3.744a15.728 15.728 0 012.256-.144c1.744 0 3.12.456 4.128 1.368 1.008.912 1.512 2.144 1.512 3.696 0 1.744-.568 3.096-1.704 4.056-1.12.944-2.712 1.416-4.776 1.416-.72 0-1.568-.016-2.544-.048a75.485 75.485 0 00-1.824-.048zm4.968-7.68c-.592 0-1.264.048-2.016.144v4.776c.896.064 1.52.096 1.872.096 2.064 0 3.096-.832 3.096-2.496 0-.768-.248-1.376-.744-1.824-.48-.464-1.216-.696-2.208-.696zm11.742 7.68h-2.76v-10.8h2.76v6.84l5.04-6.84h2.76V230h-2.76v-6.84l-5.04 6.84zm9.752-8.04v-2.76h9.84v2.76h-3.528V230h-2.76v-8.04h-3.552zm11.816 12.84v-15.6h2.76v1.032c.352-.368.824-.672 1.416-.912a4.898 4.898 0 011.92-.384c1.472 0 2.656.512 3.552 1.536.896 1.024 1.344 2.344 1.344 3.96 0 1.68-.528 3.072-1.584 4.176s-2.432 1.656-4.128 1.656c-1.072 0-1.912-.176-2.52-.528v5.064h-2.76zm5.232-13.272c-.944 0-1.768.392-2.472 1.176v4.368c.64.416 1.4.624 2.28.624.928 0 1.664-.296 2.208-.888.544-.608.816-1.376.816-2.304 0-.88-.248-1.592-.744-2.136-.496-.56-1.192-.84-2.088-.84zM808.476 230h-2.76v-10.8h2.76v6.84l5.04-6.84h2.76V230h-2.76v-6.84l-5.04 6.84zm21.104-10.8l-4.152 5.136 4.656 5.664h-3.6l-4.272-5.448 3.888-5.352h3.48zM819.356 230v-10.8h2.76V230h-2.76zm19.88-3.624l1.296 2.016c-.448.608-1.056 1.072-1.824 1.392-.752.32-1.576.48-2.472.48-1.76 0-3.176-.52-4.248-1.56s-1.608-2.408-1.608-4.104c0-1.6.528-2.944 1.584-4.032s2.392-1.632 4.008-1.632c1.92 0 3.368.488 4.344 1.464l-1.296 2.184c-.72-.704-1.616-1.056-2.688-1.056-.8 0-1.504.288-2.112.864-.592.56-.888 1.296-.888 2.208 0 .928.304 1.68.912 2.256.624.56 1.36.84 2.208.84 1.056 0 1.984-.44 2.784-1.32z" fill="#fff"/><rect x="594.5" y="187.5" width="370" height="72" rx="6.5" stroke="#005DED" stroke-width="3"/><path d="M1220.58 230v-7.176h-7.68V230h-2.95v-16.8h2.95v6.864h7.68V213.2h2.93V230h-2.93zm5.49-14.04v-2.76h13.85v2.76h-5.45V230h-2.95v-14.04h-5.45zm16.41 14.04v-16.8h2.97l5.74 7.848 5.47-7.848h2.78V230h-2.92v-12.144l-5.31 7.464h-.43l-5.35-7.392V230h-2.95zm21.63 0v-16.8h2.95v14.04h7.56V230h-10.51zm11.96-5.28v-2.568h6.04v2.568h-6.04zm9.07 5.28v-10.8h2.76v8.232h3.05V219.2h2.76v8.232h3.07V219.2h2.76V230h-14.4zm18.3-8.016l-.7-2.016a7.394 7.394 0 013.82-1.032c1.53 0 2.64.376 3.31 1.128.67.752 1.01 1.872 1.01 3.36V230h-2.4v-1.248c-.66.928-1.72 1.392-3.19 1.392-1.01 0-1.83-.296-2.45-.888-.63-.592-.94-1.4-.94-2.424 0-1.136.37-2 1.11-2.592.73-.608 1.68-.912 2.83-.912.99 0 1.81.232 2.45.696.03-.944-.11-1.64-.41-2.088-.31-.464-.84-.696-1.61-.696-.8 0-1.74.248-2.83.744zm2.76 5.832c.93 0 1.62-.328 2.09-.984v-1.104c-.47-.352-1.1-.528-1.9-.528-.5 0-.91.12-1.25.36-.32.224-.48.552-.48.984 0 .4.15.712.43.936.29.224.66.336 1.11.336zm15.62-14.88l1.44 2.256c-.42.496-.9.848-1.44 1.056-.54.192-1.18.368-1.92.528-.72.144-1.34.344-1.87.6-1.35.624-2.12 1.968-2.33 4.032h.05c.33-.592.85-1.072 1.56-1.44.7-.384 1.45-.576 2.23-.576 1.49 0 2.68.48 3.58 1.44.89.96 1.34 2.248 1.34 3.864 0 1.552-.53 2.872-1.58 3.96-1.06 1.072-2.42 1.608-4.08 1.608-1.81 0-3.24-.616-4.3-1.848-1.04-1.232-1.56-2.896-1.56-4.992 0-4.624 1.36-7.52 4.08-8.688a9.328 9.328 0 011.97-.576 14.2 14.2 0 001.68-.432c.43-.144.81-.408 1.15-.792zM1315.89 224c.02 1.072.28 1.96.79 2.664.52.688 1.2 1.032 2.04 1.032.85 0 1.52-.272 2.02-.816.51-.56.77-1.248.77-2.064 0-.832-.23-1.512-.7-2.04-.46-.544-1.12-.816-1.97-.816-.73 0-1.36.192-1.89.576-.51.384-.87.872-1.06 1.464zm17.72 6v-8.04h-2.86l-.07 1.152c-.18 1.936-.47 3.424-.89 4.464-.4 1.04-.91 1.744-1.53 2.112-.61.352-1.43.528-2.45.528l-.24-2.688c.35.032.68-.064.98-.288.32-.24.63-.752.91-1.536.29-.8.48-1.848.56-3.144l.16-3.36h8.19V230h-2.76zm6.77-1.32c-1.07-1.072-1.61-2.432-1.61-4.08 0-1.648.54-3 1.61-4.056 1.09-1.072 2.51-1.608 4.27-1.608 1.76 0 3.18.536 4.25 1.608 1.09 1.056 1.63 2.408 1.63 4.056 0 1.648-.54 3.008-1.63 4.08-1.07 1.056-2.49 1.584-4.25 1.584-1.76 0-3.18-.528-4.27-1.584zm1.34-4.08c0 .896.27 1.64.82 2.232.56.576 1.26.864 2.11.864.86 0 1.57-.28 2.11-.84.56-.576.84-1.328.84-2.256 0-.896-.28-1.632-.84-2.208-.56-.576-1.26-.864-2.11-.864-.83 0-1.53.288-2.09.864-.56.56-.84 1.296-.84 2.208zm18.69 5.4v-4.128h-4.73V230h-2.76v-10.8h2.76v4.08h4.73v-4.08h2.76V230h-2.76zm5.82 0v-10.8h2.76v2.952h1.35c1.69 0 2.91.352 3.64 1.056.74.704 1.11 1.6 1.11 2.688 0 1.168-.4 2.144-1.2 2.928-.8.784-2.06 1.176-3.77 1.176h-3.89zm10.39 0v-10.8h2.76V230h-2.76zm-6.52-5.64h-1.11v3.24h1.08c1.39 0 2.09-.536 2.09-1.608 0-1.088-.69-1.632-2.06-1.632zm16.14 8.16v-5.088h1.37c.85-1.12 1.35-3 1.51-5.64l.17-2.592h7.97v8.232h1.8v5.088h-2.6V230h-7.65v2.52h-2.57zm5.54-9.624c-.19 2.096-.62 3.608-1.29 4.536h4.01v-5.64h-2.64l-.08 1.104zm16.2 7.104v-8.04h-2.86l-.07 1.152c-.18 1.936-.47 3.424-.89 4.464-.4 1.04-.91 1.744-1.54 2.112-.6.352-1.42.528-2.44.528l-.24-2.688c.35.032.68-.064.98-.288.32-.24.62-.752.91-1.536.29-.8.47-1.848.55-3.144l.17-3.36h8.19V230h-2.76zm11.11-10.8h3.53V230h-2.76v-3.24h-1.54l-2.23 3.24h-3.17l2.88-3.84c-.54-.192-1.03-.552-1.46-1.08-.42-.544-.63-1.224-.63-2.04 0-1.136.44-2.056 1.3-2.76.88-.72 2.24-1.08 4.08-1.08zm-2.42 4.032c0 .432.17.792.52 1.08.37.272.78.408 1.23.408h1.44v-3.12h-1.23c-.62 0-1.11.16-1.46.48-.34.32-.5.704-.5 1.152zm19.44 11.568v-4.536h-.15c-1.84 0-3.28-.528-4.32-1.584-1.02-1.056-1.53-2.416-1.53-4.08 0-1.552.52-2.88 1.56-3.984 1.05-1.12 2.48-1.68 4.27-1.68h.17V213.2h2.76v5.736h.19c1.81 0 3.22.536 4.25 1.608 1.04 1.056 1.56 2.408 1.56 4.056 0 1.68-.5 3.048-1.49 4.104-.99 1.04-2.43 1.56-4.32 1.56h-.19v4.536h-2.76zm2.95-13.272h-.19v6.168h.09c.96 0 1.69-.28 2.19-.84.51-.56.76-1.312.76-2.256 0-.864-.24-1.592-.74-2.184-.48-.592-1.18-.888-2.11-.888zm-6 3.072c0 .928.25 1.68.77 2.256.51.56 1.24.84 2.2.84h.08v-6.168h-.2c-.96 0-1.68.288-2.16.864-.46.576-.69 1.312-.69 2.208zm14.19 10.2v-15.6h2.76v1.032c.36-.368.83-.672 1.42-.912a4.912 4.912 0 011.92-.384c1.47 0 2.66.512 3.55 1.536.9 1.024 1.35 2.344 1.35 3.96 0 1.68-.53 3.072-1.59 4.176-1.05 1.104-2.43 1.656-4.13 1.656-1.07 0-1.91-.176-2.52-.528v5.064h-2.76zm5.24-13.272c-.95 0-1.77.392-2.48 1.176v4.368c.64.416 1.4.624 2.28.624.93 0 1.67-.296 2.21-.888.55-.608.82-1.376.82-2.304 0-.88-.25-1.592-.75-2.136-.49-.56-1.19-.84-2.08-.84zm9.08 7.152c-1.07-1.072-1.6-2.432-1.6-4.08 0-1.648.53-3 1.6-4.056 1.09-1.072 2.52-1.608 4.28-1.608 1.76 0 3.17.536 4.24 1.608 1.09 1.056 1.64 2.408 1.64 4.056 0 1.648-.55 3.008-1.64 4.08-1.07 1.056-2.48 1.584-4.24 1.584-1.76 0-3.19-.528-4.28-1.584zm1.35-4.08c0 .896.27 1.64.81 2.232.56.576 1.27.864 2.12.864.86 0 1.56-.28 2.11-.84.56-.576.84-1.328.84-2.256 0-.896-.28-1.632-.84-2.208-.56-.576-1.27-.864-2.11-.864-.84 0-1.53.288-2.09.864-.56.56-.84 1.296-.84 2.208zm18.68 5.4v-4.128h-4.73V230h-2.76v-10.8h2.76v4.08h4.73v-4.08h2.76V230h-2.76zm4.7-8.04v-2.76h9.84v2.76h-3.53V230h-2.76v-8.04h-3.55zm19.96 5.016l.79 1.944c-1.06.896-2.43 1.344-4.13 1.344-1.74 0-3.15-.52-4.22-1.56-1.06-1.04-1.59-2.408-1.59-4.104 0-1.616.52-2.96 1.56-4.032 1.04-1.088 2.43-1.632 4.16-1.632 1.42 0 2.63.472 3.62 1.416.99.928 1.49 2.128 1.49 3.6 0 .608-.06 1.104-.17 1.488h-7.8c.11.8.46 1.424 1.06 1.872.59.432 1.32.648 2.18.648 1.22 0 2.23-.328 3.05-.984zm-3.55-5.736c-1.57 0-2.52.784-2.84 2.352h5.31c.01-.672-.2-1.232-.65-1.68-.45-.448-1.06-.672-1.82-.672zm14.94 8.76v-4.128h-4.73V230h-2.76v-10.8h2.76v4.08h4.73v-4.08h2.76V230h-2.76zm4.53 2.52v-5.088h1.37c.84-1.12 1.35-3 1.51-5.64l.17-2.592h7.96v8.232h1.8v5.088h-2.59V230h-7.65v2.52h-2.57zm5.54-9.624c-.19 2.096-.62 3.608-1.29 4.536h4v-5.64h-2.64l-.07 1.104zm9.93-.912l-.7-2.016a7.394 7.394 0 013.82-1.032c1.54 0 2.64.376 3.31 1.128.67.752 1.01 1.872 1.01 3.36V230h-2.4v-1.248c-.66.928-1.72 1.392-3.19 1.392-1.01 0-1.83-.296-2.45-.888-.62-.592-.94-1.4-.94-2.424 0-1.136.37-2 1.11-2.592.73-.608 1.68-.912 2.83-.912.99 0 1.81.232 2.45.696.03-.944-.11-1.64-.41-2.088-.3-.464-.84-.696-1.61-.696-.8 0-1.74.248-2.83.744zm2.76 5.832c.93 0 1.62-.328 2.09-.984v-1.104c-.47-.352-1.1-.528-1.9-.528-.49 0-.91.12-1.25.36-.32.224-.48.552-.48.984 0 .4.15.712.44.936.28.224.65.336 1.1.336z" fill="#fff"/><rect x="1187.5" y="187.5" width="379" height="72" rx="6.5" stroke="#005DED" stroke-width="3"/><path d="M1218.33 43.976V27.248c1.57-.08 3.18-.12 4.85-.12 1.9 0 3.29.384 4.17 1.152.9.752 1.35 1.752 1.35 3 0 1.792-.8 3.064-2.4 3.816v.048c.88.224 1.59.664 2.13 1.32.55.656.82 1.52.82 2.592 0 1.664-.58 2.92-1.73 3.768-1.14.848-2.64 1.272-4.51 1.272-2.03 0-3.59-.04-4.68-.12zm5.04-7.2h-2.09v4.44c.67.08 1.32.12 1.94.12 2.05 0 3.08-.808 3.08-2.424 0-.704-.26-1.232-.77-1.584-.51-.368-1.23-.552-2.16-.552zm-.24-6.888c-.71 0-1.32.024-1.85.072v4.248h1.99c.74 0 1.34-.184 1.8-.552.47-.384.7-.944.7-1.68 0-.672-.24-1.184-.72-1.536-.47-.368-1.11-.552-1.92-.552zm21.84 9.648c0-.448-.14-.84-.43-1.176a3.278 3.278 0 00-1.08-.888 13.43 13.43 0 00-1.49-.72c-.53-.24-1.06-.504-1.61-.792-.54-.304-1.04-.632-1.49-.984-.44-.368-.81-.84-1.1-1.416a4.748 4.748 0 01-.41-1.992c0-1.312.47-2.408 1.42-3.288.96-.896 2.23-1.344 3.81-1.344 2.12 0 3.72.6 4.8 1.8l-1.58 2.208c-.86-.832-1.86-1.248-2.98-1.248-.72 0-1.29.168-1.72.504-.42.336-.63.784-.63 1.344 0 .544.19 1.016.55 1.416.39.4.86.72 1.42.96.56.224 1.17.496 1.82.816.68.32 1.29.656 1.85 1.008.56.336 1.03.832 1.39 1.488.39.64.58 1.4.58 2.28 0 1.392-.54 2.536-1.61 3.432-1.07.88-2.41 1.32-4.01 1.32-1.15 0-2.26-.232-3.33-.696-1.06-.48-1.78-1.128-2.16-1.944l1.68-2.016c.46.608 1.05 1.08 1.75 1.416.72.32 1.42.48 2.11.48.72 0 1.31-.168 1.75-.504.47-.352.7-.84.7-1.464zm4.36 4.464l7.11-16.848h2.59l7.1 16.848h-3.14l-1.75-4.296h-7.18L1252.31 44h-2.98zm8.33-13.032l-2.47 5.976h4.92l-2.45-5.976zM1271.6 44h-2.95V27.2c.29 0 1.05-.008 2.28-.024 1.25-.016 2.08-.024 2.49-.024 1.19 0 2.21.152 3.08.456.88.288 1.56.696 2.04 1.224.48.512.83 1.08 1.05 1.704.23.608.34 1.28.34 2.016 0 1.52-.55 2.808-1.63 3.864-1.09 1.056-2.6 1.584-4.52 1.584-.97 0-1.7-.024-2.18-.072V44zm2.11-14.088c-.35 0-1.05.016-2.11.048v5.16c.77.08 1.46.12 2.09.12.93 0 1.68-.224 2.25-.672.58-.464.87-1.144.87-2.04 0-1.744-1.03-2.616-3.1-2.616zm22.11 10.464l1.3 2.016c-.45.608-1.06 1.072-1.83 1.392-.75.32-1.57.48-2.47.48-1.76 0-3.17-.52-4.25-1.56-1.07-1.04-1.6-2.408-1.6-4.104 0-1.6.52-2.944 1.58-4.032s2.39-1.632 4.01-1.632c1.92 0 3.37.488 4.34 1.464l-1.29 2.184c-.72-.704-1.62-1.056-2.69-1.056-.8 0-1.51.288-2.11.864-.6.56-.89 1.296-.89 2.208 0 .928.3 1.68.91 2.256.62.56 1.36.84 2.21.84 1.05 0 1.98-.44 2.78-1.32zm13.93 8.424v-4.536h-.15c-1.84 0-3.28-.528-4.32-1.584-1.02-1.056-1.53-2.416-1.53-4.08 0-1.552.52-2.88 1.56-3.984 1.05-1.12 2.48-1.68 4.27-1.68h.17V27.2h2.76v5.736h.19c1.81 0 3.22.536 4.25 1.608 1.04 1.056 1.56 2.408 1.56 4.056 0 1.68-.5 3.048-1.49 4.104-.99 1.04-2.43 1.56-4.32 1.56h-.19V48.8h-2.76zm2.95-13.272h-.19v6.168h.09c.96 0 1.69-.28 2.19-.84.51-.56.76-1.312.76-2.256 0-.864-.24-1.592-.74-2.184-.48-.592-1.18-.888-2.11-.888zm-6 3.072c0 .928.25 1.68.77 2.256.51.56 1.24.84 2.2.84h.08v-6.168h-.2c-.96 0-1.68.288-2.16.864-.46.576-.69 1.312-.69 2.208zm15.13 4.08c-1.07-1.072-1.61-2.432-1.61-4.08 0-1.648.54-3 1.61-4.056 1.09-1.072 2.51-1.608 4.27-1.608 1.76 0 3.18.536 4.25 1.608 1.09 1.056 1.63 2.408 1.63 4.056 0 1.648-.54 3.008-1.63 4.08-1.07 1.056-2.49 1.584-4.25 1.584-1.76 0-3.18-.528-4.27-1.584zm1.35-4.08c0 .896.27 1.64.81 2.232.56.576 1.27.864 2.11.864.87 0 1.57-.28 2.12-.84.56-.576.84-1.328.84-2.256 0-.896-.28-1.632-.84-2.208-.56-.576-1.27-.864-2.12-.864-.83 0-1.52.288-2.08.864-.56.56-.84 1.296-.84 2.208zm11.19 10.2V33.2h2.76v1.032c.35-.368.83-.672 1.42-.912a4.912 4.912 0 011.92-.384c1.47 0 2.65.512 3.55 1.536.9 1.024 1.34 2.344 1.34 3.96 0 1.68-.52 3.072-1.58 4.176s-2.43 1.656-4.13 1.656c-1.07 0-1.91-.176-2.52-.528V48.8h-2.76zm5.23-13.272c-.94 0-1.76.392-2.47 1.176v4.368c.64.416 1.4.624 2.28.624.93 0 1.67-.296 2.21-.888.54-.608.82-1.376.82-2.304 0-.88-.25-1.592-.75-2.136-.49-.56-1.19-.84-2.09-.84zm8.15 8.472V33.2h2.5l3.67 4.512 3.48-4.512h2.43V44h-2.76v-6.6l-3.2 4.032h-.07l-3.29-4.032V44h-2.76zm26.26 3.432l-1.76 1.512c-3.23-2.784-4.84-6.232-4.84-10.344 0-3.968 1.62-7.416 4.87-10.344l1.7 1.512c-1.31 1.296-2.28 2.656-2.9 4.08-.61 1.408-.91 2.992-.91 4.752 0 1.712.34 3.344 1.03 4.896.7 1.536 1.64 2.848 2.81 3.936zm.41-11.472V33.2h9.84v2.76h-3.52V44h-2.76v-8.04h-3.56zm19.96 5.016l.8 1.944c-1.06.896-2.44 1.344-4.13 1.344-1.75 0-3.15-.52-4.23-1.56-1.05-1.04-1.58-2.408-1.58-4.104 0-1.616.52-2.96 1.56-4.032 1.04-1.088 2.42-1.632 4.15-1.632 1.43 0 2.63.472 3.63 1.416.99.928 1.48 2.128 1.48 3.6 0 .608-.05 1.104-.16 1.488h-7.8c.11.8.46 1.424 1.05 1.872.59.432 1.32.648 2.19.648 1.21 0 2.23-.328 3.04-.984zm-3.55-5.736c-1.57 0-2.51.784-2.83 2.352h5.3c.02-.672-.2-1.232-.64-1.68-.45-.448-1.06-.672-1.83-.672zm15.57 5.136l1.3 2.016c-.45.608-1.06 1.072-1.83 1.392-.75.32-1.57.48-2.47.48-1.76 0-3.18-.52-4.25-1.56-1.07-1.04-1.61-2.408-1.61-4.104 0-1.6.53-2.944 1.59-4.032 1.05-1.088 2.39-1.632 4.01-1.632 1.92 0 3.36.488 4.34 1.464l-1.3 2.184c-.72-.704-1.61-1.056-2.68-1.056-.8 0-1.51.288-2.12.864-.59.56-.88 1.296-.88 2.208 0 .928.3 1.68.91 2.256.62.56 1.36.84 2.21.84 1.05 0 1.98-.44 2.78-1.32zm2.17-4.416V33.2h9.84v2.76h-3.53V44h-2.76v-8.04h-3.55zm12 2.76v-2.568h6.05v2.568h-6.05zm7.52 7.8v-5.088h1.37c.85-1.12 1.35-3 1.51-5.64l.17-2.592h7.97v8.232h1.8v5.088h-2.59V44h-7.66v2.52h-2.57zm5.55-9.624c-.2 2.096-.63 3.608-1.3 4.536h4.01v-5.64h-2.64l-.07 1.104zm9.08 11.904V33.2h2.76v1.032c.36-.368.83-.672 1.42-.912a4.912 4.912 0 011.92-.384c1.47 0 2.66.512 3.55 1.536.9 1.024 1.35 2.344 1.35 3.96 0 1.68-.53 3.072-1.59 4.176-1.05 1.104-2.43 1.656-4.13 1.656-1.07 0-1.91-.176-2.52-.528V48.8h-2.76zm5.24-13.272c-.95 0-1.77.392-2.48 1.176v4.368c.64.416 1.4.624 2.28.624.93 0 1.67-.296 2.21-.888.55-.608.82-1.376.82-2.304 0-.88-.25-1.592-.75-2.136-.49-.56-1.19-.84-2.08-.84zm8.99.456l-.7-2.016a7.394 7.394 0 013.82-1.032c1.53 0 2.64.376 3.31 1.128.67.752 1.01 1.872 1.01 3.36V44h-2.4v-1.248c-.66.928-1.72 1.392-3.2 1.392-1 0-1.82-.296-2.44-.888-.63-.592-.94-1.4-.94-2.424 0-1.136.37-2 1.1-2.592.74-.608 1.68-.912 2.84-.912.99 0 1.8.232 2.44.696.04-.944-.1-1.64-.4-2.088-.31-.464-.84-.696-1.61-.696-.8 0-1.75.248-2.83.744zm2.76 5.832c.92 0 1.62-.328 2.08-.984v-1.104c-.46-.352-1.09-.528-1.89-.528-.5 0-.91.12-1.25.36-.32.224-.48.552-.48.984 0 .4.14.712.43.936.29.224.66.336 1.11.336zM1469.98 44h-2.76V33.2h2.76v6.84l5.04-6.84h2.76V44h-2.76v-6.84l-5.04 6.84zm-1.16-16.2h2.52c0 .496.1.912.29 1.248.21.336.53.504.96.504.39 0 .67-.168.87-.504.19-.336.28-.752.28-1.248h2.52c0 1.088-.32 1.984-.96 2.688-.64.688-1.54 1.032-2.71 1.032-1.28 0-2.23-.336-2.85-1.008-.61-.688-.92-1.592-.92-2.712zm12.04 16.2V33.2c.19 0 .54-.008 1.05-.024a52.694 52.694 0 013.19-.096c3.27 0 4.9.944 4.9 2.832 0 .624-.2 1.16-.6 1.608a2.23 2.23 0 01-1.42.792v.048c1.54.368 2.31 1.2 2.31 2.496 0 2.176-1.71 3.264-5.14 3.264a55.3 55.3 0 01-2.28-.072 86.893 86.893 0 00-2.01-.048zm4.48-4.584h-1.72v2.4c1.08.064 1.69.096 1.82.096.61 0 1.08-.112 1.42-.336.35-.224.52-.528.52-.912 0-.832-.68-1.248-2.04-1.248zm0-4.104c-.76 0-1.34.016-1.72.048v2.376h1.8c.48 0 .87-.104 1.17-.312.32-.224.48-.536.48-.936 0-.784-.57-1.176-1.73-1.176zm7.16 7.152c0-.512.16-.928.48-1.248.33-.336.79-.504 1.36-.504.64 0 1.16.256 1.54.768.38.496.58 1.136.58 1.92 0 1.008-.28 1.872-.82 2.592-.53.72-1.27 1.216-2.23 1.488l-.75-1.296c.71-.256 1.2-.68 1.47-1.272.24-.496.31-.864.21-1.104-.09.128-.3.192-.62.192s-.61-.144-.86-.432c-.24-.304-.36-.672-.36-1.104zm-271.15 36.8c-.94 0-1.86-.168-2.76-.504-.89-.352-1.54-.784-1.94-1.296l1.41-1.728c.32.368.78.68 1.37.936.61.256 1.17.384 1.68.384.71 0 1.25-.12 1.63-.36.39-.24.58-.56.58-.96 0-.368-.14-.664-.43-.888-.29-.224-.69-.336-1.2-.336h-2.02v-1.848h1.9c.43 0 .77-.128 1.03-.384.27-.256.41-.568.41-.936 0-.784-.63-1.176-1.9-1.176-.99 0-1.97.416-2.95 1.248l-1.15-1.656c1.04-1.216 2.58-1.824 4.63-1.824 1.41 0 2.48.272 3.22.816.73.544 1.1 1.296 1.1 2.256 0 .528-.18 1.008-.53 1.44-.35.432-.84.752-1.46.96v.048c.73.144 1.29.448 1.68.912.4.448.6.992.6 1.632 0 1.008-.45 1.808-1.35 2.4-.89.576-2.08.864-3.55.864zm8.35-8.28l-.7-2.016a7.394 7.394 0 013.82-1.032c1.53 0 2.64.376 3.31 1.128.67.752 1.01 1.872 1.01 3.36V79h-2.4v-1.248c-.66.928-1.72 1.392-3.2 1.392-1 0-1.82-.296-2.44-.888-.63-.592-.94-1.4-.94-2.424 0-1.136.37-2 1.1-2.592.74-.608 1.68-.912 2.84-.912.99 0 1.8.232 2.44.696.04-.944-.1-1.64-.4-2.088-.31-.464-.84-.696-1.61-.696-.8 0-1.75.248-2.83.744zm2.76 5.832c.92 0 1.62-.328 2.08-.984v-1.104c-.46-.352-1.09-.528-1.89-.528-.5 0-.91.12-1.25.36-.32.224-.48.552-.48.984 0 .4.14.712.43.936.29.224.66.336 1.11.336zm17.73-8.616l-4.15 5.136 4.65 5.664h-3.6l-4.27-5.448 3.89-5.352h3.48zM1239.97 79V68.2h2.76V79h-2.76zm13.19-8.016l-.7-2.016a7.394 7.394 0 013.82-1.032c1.53 0 2.64.376 3.31 1.128.67.752 1.01 1.872 1.01 3.36V79h-2.4v-1.248c-.66.928-1.72 1.392-3.19 1.392-1.01 0-1.83-.296-2.45-.888-.63-.592-.94-1.4-.94-2.424 0-1.136.37-2 1.11-2.592.73-.608 1.68-.912 2.83-.912.99 0 1.81.232 2.45.696.03-.944-.11-1.64-.41-2.088-.31-.464-.84-.696-1.61-.696-.8 0-1.74.248-2.83.744zm2.76 5.832c.93 0 1.62-.328 2.09-.984v-1.104c-.47-.352-1.1-.528-1.9-.528-.5 0-.91.12-1.25.36-.32.224-.48.552-.48.984 0 .4.15.712.43.936.29.224.66.336 1.11.336zm11.32 2.448c-.94 0-1.86-.168-2.76-.504-.89-.352-1.54-.784-1.94-1.296l1.41-1.728c.32.368.78.68 1.37.936.61.256 1.17.384 1.68.384.71 0 1.25-.12 1.63-.36.39-.24.58-.56.58-.96 0-.368-.14-.664-.43-.888-.29-.224-.69-.336-1.2-.336h-2.02v-1.848h1.9c.43 0 .77-.128 1.03-.384.27-.256.41-.568.41-.936 0-.784-.63-1.176-1.9-1.176-.99 0-1.97.416-2.95 1.248l-1.15-1.656c1.04-1.216 2.58-1.824 4.63-1.824 1.41 0 2.48.272 3.22.816.73.544 1.1 1.296 1.1 2.256 0 .528-.18 1.008-.53 1.44-.35.432-.84.752-1.46.96v.048c.73.144 1.29.448 1.68.912.4.448.6.992.6 1.632 0 1.008-.45 1.808-1.35 2.4-.89.576-2.08.864-3.55.864zm8.35-8.28l-.7-2.016a7.394 7.394 0 013.82-1.032c1.53 0 2.64.376 3.31 1.128.67.752 1.01 1.872 1.01 3.36V79h-2.4v-1.248c-.66.928-1.72 1.392-3.2 1.392-1 0-1.82-.296-2.44-.888-.63-.592-.94-1.4-.94-2.424 0-1.136.37-2 1.1-2.592.74-.608 1.68-.912 2.84-.912.99 0 1.8.232 2.44.696.04-.944-.1-1.64-.4-2.088-.31-.464-.84-.696-1.61-.696-.8 0-1.75.248-2.83.744zm2.76 5.832c.92 0 1.62-.328 2.08-.984v-1.104c-.46-.352-1.09-.528-1.89-.528-.5 0-.91.12-1.25.36-.32.224-.48.552-.48.984 0 .4.14.712.43.936.29.224.66.336 1.11.336zm6.38-5.856V68.2h9.84v2.76h-3.53V79h-2.76v-8.04h-3.55zm11.81 8.04V68.2h2.76v2.952h1.49c1.7 0 2.91.352 3.65 1.056.74.704 1.1 1.6 1.1 2.688 0 1.168-.4 2.144-1.2 2.928-.8.784-2.05 1.176-3.76 1.176h-4.04zm4.01-5.64h-1.25v3.24h1.23c1.39 0 2.09-.536 2.09-1.608 0-1.088-.69-1.632-2.07-1.632zm13.12-2.376l-.69-2.016a7.358 7.358 0 013.81-1.032c1.54 0 2.64.376 3.31 1.128.68.752 1.01 1.872 1.01 3.36V79h-2.4v-1.248c-.65.928-1.72 1.392-3.19 1.392-1.01 0-1.82-.296-2.45-.888-.62-.592-.93-1.4-.93-2.424 0-1.136.36-2 1.1-2.592.74-.608 1.68-.912 2.83-.912.99 0 1.81.232 2.45.696.03-.944-.1-1.64-.41-2.088-.3-.464-.84-.696-1.61-.696-.8 0-1.74.248-2.83.744zm2.76 5.832c.93 0 1.63-.328 2.09-.984v-1.104c-.46-.352-1.1-.528-1.9-.528-.49 0-.91.12-1.24.36-.32.224-.48.552-.48.984 0 .4.14.712.43.936.29.224.65.336 1.1.336zm7.51 2.184V68.2c.19 0 .55-.008 1.06-.024a55.127 55.127 0 013.19-.096c3.26 0 4.9.944 4.9 2.832 0 .624-.2 1.16-.6 1.608-.39.448-.86.712-1.42.792v.048c1.54.368 2.3 1.2 2.3 2.496 0 2.176-1.71 3.264-5.13 3.264a55.3 55.3 0 01-2.28-.072 86.07 86.07 0 00-2.02-.048zm4.49-4.584h-1.73v2.4c1.09.064 1.7.096 1.83.096.6 0 1.08-.112 1.41-.336.35-.224.53-.528.53-.912 0-.832-.68-1.248-2.04-1.248zm0-4.104c-.77 0-1.34.016-1.73.048v2.376h1.8c.48 0 .87-.104 1.18-.312.32-.224.48-.536.48-.936 0-.784-.58-1.176-1.73-1.176zm6.43.648V68.2h9.84v2.76h-3.53V79h-2.76v-8.04h-3.55zm12.42 6.72c-1.07-1.072-1.6-2.432-1.6-4.08 0-1.648.53-3 1.6-4.056 1.09-1.072 2.52-1.608 4.28-1.608 1.76 0 3.17.536 4.24 1.608 1.09 1.056 1.64 2.408 1.64 4.056 0 1.648-.55 3.008-1.64 4.08-1.07 1.056-2.48 1.584-4.24 1.584-1.76 0-3.19-.528-4.28-1.584zm1.35-4.08c0 .896.27 1.64.81 2.232.56.576 1.27.864 2.12.864.86 0 1.56-.28 2.11-.84.56-.576.84-1.328.84-2.256 0-.896-.28-1.632-.84-2.208-.56-.576-1.27-.864-2.11-.864-.84 0-1.53.288-2.09.864-.56.56-.84 1.296-.84 2.208zm10.79 3.864c0-.512.16-.928.48-1.248.33-.336.79-.504 1.37-.504.64 0 1.15.256 1.53.768.39.496.58 1.136.58 1.92 0 1.008-.27 1.872-.82 2.592-.53.72-1.27 1.216-2.23 1.488l-.74-1.296c.7-.256 1.19-.68 1.46-1.272.24-.496.31-.864.22-1.104-.1.128-.31.192-.63.192s-.61-.144-.86-.432c-.24-.304-.36-.672-.36-1.104zm11.49.216c-1.07-1.072-1.61-2.432-1.61-4.08 0-1.648.54-3 1.61-4.056 1.09-1.072 2.51-1.608 4.27-1.608 1.76 0 3.18.536 4.25 1.608 1.09 1.056 1.63 2.408 1.63 4.056 0 1.648-.54 3.008-1.63 4.08-1.07 1.056-2.49 1.584-4.25 1.584-1.76 0-3.18-.528-4.27-1.584zm1.34-4.08c0 .896.28 1.64.82 2.232.56.576 1.26.864 2.11.864.87 0 1.57-.28 2.11-.84.56-.576.84-1.328.84-2.256 0-.896-.28-1.632-.84-2.208-.56-.576-1.26-.864-2.11-.864-.83 0-1.53.288-2.09.864-.56.56-.84 1.296-.84 2.208zm19.31-11.664l1.44 2.256c-.41.496-.89.848-1.44 1.056-.54.192-1.18.368-1.92.528-.72.144-1.34.344-1.87.6-1.34.624-2.12 1.968-2.33 4.032h.05c.34-.592.86-1.072 1.56-1.44.7-.384 1.45-.576 2.23-.576 1.49 0 2.68.48 3.58 1.44.89.96 1.34 2.248 1.34 3.864 0 1.552-.53 2.872-1.58 3.96-1.06 1.072-2.42 1.608-4.08 1.608-1.81 0-3.24-.616-4.3-1.848-1.04-1.232-1.56-2.896-1.56-4.992 0-4.624 1.36-7.52 4.08-8.688a9.505 9.505 0 011.97-.576 14.2 14.2 0 001.68-.432 2.6 2.6 0 001.15-.792zM1385.63 73c.02 1.072.28 1.96.8 2.664.51.688 1.19 1.032 2.04 1.032.84 0 1.52-.272 2.01-.816.51-.56.77-1.248.77-2.064 0-.832-.23-1.512-.7-2.04-.46-.544-1.12-.816-1.96-.816-.74 0-1.37.192-1.9.576-.51.384-.86.872-1.06 1.464zm10.97 10.8V68.2h2.76v1.032c.35-.368.82-.672 1.41-.912a4.912 4.912 0 011.92-.384c1.48 0 2.66.512 3.56 1.536.89 1.024 1.34 2.344 1.34 3.96 0 1.68-.53 3.072-1.58 4.176-1.06 1.104-2.44 1.656-4.13 1.656-1.07 0-1.91-.176-2.52-.528V83.8h-2.76zm5.23-13.272c-.94 0-1.77.392-2.47 1.176v4.368c.64.416 1.4.624 2.28.624.93 0 1.66-.296 2.21-.888.54-.608.81-1.376.81-2.304 0-.88-.25-1.592-.74-2.136-.5-.56-1.19-.84-2.09-.84zm8.99.456l-.69-2.016a7.358 7.358 0 013.81-1.032c1.54 0 2.64.376 3.31 1.128.68.752 1.01 1.872 1.01 3.36V79h-2.4v-1.248c-.65.928-1.72 1.392-3.19 1.392-1.01 0-1.82-.296-2.45-.888-.62-.592-.93-1.4-.93-2.424 0-1.136.36-2 1.1-2.592.74-.608 1.68-.912 2.83-.912.99 0 1.81.232 2.45.696.03-.944-.1-1.64-.41-2.088-.3-.464-.84-.696-1.61-.696-.8 0-1.74.248-2.83.744zm2.76 5.832c.93 0 1.63-.328 2.09-.984v-1.104c-.46-.352-1.1-.528-1.9-.528-.49 0-.91.12-1.24.36-.32.224-.48.552-.48.984 0 .4.14.712.43.936.29.224.65.336 1.1.336zm6.38-5.856V68.2h9.84v2.76h-3.53V79h-2.76v-8.04h-3.55zm19.31 8.04v-4.128h-4.73V79h-2.76V68.2h2.76v4.08h4.73V68.2h2.76V79h-2.76zm6.66-8.016l-.7-2.016a7.394 7.394 0 013.82-1.032c1.54 0 2.64.376 3.31 1.128.67.752 1.01 1.872 1.01 3.36V79h-2.4v-1.248c-.66.928-1.72 1.392-3.19 1.392-1.01 0-1.83-.296-2.45-.888-.62-.592-.94-1.4-.94-2.424 0-1.136.37-2 1.11-2.592.73-.608 1.68-.912 2.83-.912.99 0 1.81.232 2.45.696.03-.944-.11-1.64-.41-2.088-.3-.464-.84-.696-1.61-.696-.8 0-1.74.248-2.83.744zm2.76 5.832c.93 0 1.62-.328 2.09-.984v-1.104c-.47-.352-1.1-.528-1.9-.528-.49 0-.91.12-1.25.36-.32.224-.48.552-.48.984 0 .4.15.712.44.936.28.224.65.336 1.1.336zm12.79-8.616h3.53V79h-2.76v-3.24h-1.54l-2.23 3.24h-3.17l2.88-3.84c-.54-.192-1.03-.552-1.46-1.08-.42-.544-.63-1.224-.63-2.04 0-1.136.44-2.056 1.3-2.76.88-.72 2.24-1.08 4.08-1.08zm-2.42 4.032c0 .432.17.792.52 1.08.37.272.78.408 1.23.408h1.44V70.6h-1.23c-.62 0-1.11.16-1.46.48-.34.32-.5.704-.5 1.152zm22.29 3.144l1.3 2.016c-.45.608-1.06 1.072-1.83 1.392-.75.32-1.57.48-2.47.48-1.76 0-3.17-.52-4.25-1.56-1.07-1.04-1.6-2.408-1.6-4.104 0-1.6.52-2.944 1.58-4.032s2.39-1.632 4.01-1.632c1.92 0 3.37.488 4.34 1.464l-1.29 2.184c-.72-.704-1.62-1.056-2.69-1.056-.8 0-1.51.288-2.11.864-.6.56-.89 1.296-.89 2.208 0 .928.3 1.68.91 2.256.62.56 1.36.84 2.21.84 1.05 0 1.98-.44 2.78-1.32zm3.51 3.624V68.2c.2 0 .55-.008 1.06-.024a55.67 55.67 0 013.19-.096c3.27 0 4.9.944 4.9 2.832 0 .624-.2 1.16-.6 1.608-.39.448-.86.712-1.42.792v.048c1.54.368 2.31 1.2 2.31 2.496 0 2.176-1.72 3.264-5.14 3.264a55.3 55.3 0 01-2.28-.072 86.07 86.07 0 00-2.02-.048zm4.49-4.584h-1.73v2.4c1.09.064 1.7.096 1.83.096.61 0 1.08-.112 1.41-.336.36-.224.53-.528.53-.912 0-.832-.68-1.248-2.04-1.248zm0-4.104c-.77 0-1.34.016-1.73.048v2.376h1.8c.48 0 .88-.104 1.18-.312.32-.224.48-.536.48-.936 0-.784-.58-1.176-1.73-1.176zm12.84-2.112h3.53V79h-2.76v-3.24h-1.54l-2.23 3.24h-3.17l2.88-3.84c-.54-.192-1.03-.552-1.46-1.08-.42-.544-.62-1.224-.62-2.04 0-1.136.43-2.056 1.29-2.76.88-.72 2.24-1.08 4.08-1.08zm-2.42 4.032c0 .432.17.792.53 1.08.36.272.77.408 1.22.408h1.44V70.6h-1.22c-.63 0-1.12.16-1.47.48-.33.32-.5.704-.5 1.152zm12.84 7.032c-.94 0-1.86-.168-2.76-.504-.9-.352-1.54-.784-1.94-1.296l1.41-1.728c.32.368.78.68 1.37.936.61.256 1.17.384 1.68.384.7 0 1.25-.12 1.63-.36.39-.24.58-.56.58-.96 0-.368-.15-.664-.43-.888-.29-.224-.69-.336-1.2-.336h-2.02v-1.848h1.9c.43 0 .77-.128 1.03-.384.27-.256.41-.568.41-.936 0-.784-.64-1.176-1.9-1.176-.99 0-1.98.416-2.95 1.248l-1.15-1.656c1.04-1.216 2.58-1.824 4.63-1.824 1.41 0 2.48.272 3.21.816.74.544 1.11 1.296 1.11 2.256 0 .528-.18 1.008-.53 1.44-.35.432-.84.752-1.46.96v.048c.73.144 1.29.448 1.68.912.4.448.6.992.6 1.632 0 1.008-.45 1.808-1.35 2.4-.89.576-2.08.864-3.55.864zm7.5-.264V68.2h2.76v2.952h1.49c1.7 0 2.91.352 3.65 1.056.74.704 1.1 1.6 1.1 2.688 0 1.168-.4 2.144-1.2 2.928-.8.784-2.05 1.176-3.76 1.176h-4.04zm4.01-5.64h-1.25v3.24h1.23c1.39 0 2.09-.536 2.09-1.608 0-1.088-.69-1.632-2.07-1.632zm7.41 10.584l-1.75-1.512c1.17-1.088 2.1-2.4 2.79-3.936.7-1.552 1.05-3.184 1.05-4.896 0-1.76-.31-3.344-.93-4.752-.61-1.424-1.57-2.784-2.88-4.08l1.7-1.512c3.25 2.928 4.87 6.376 4.87 10.344 0 4.112-1.61 7.56-4.85 10.344z" fill="#fff"/><rect x="1187.5" y="1.5" width="379" height="107" rx="6.5" stroke="#005DED" stroke-width="3"/><path d="M451.001 199.32l-.58-1.68a6.16 6.16 0 013.18-.86c1.28 0 2.2.313 2.76.94.56.627.84 1.56.84 2.8V206h-2v-1.04c-.546.773-1.433 1.16-2.66 1.16-.84 0-1.52-.247-2.04-.74s-.78-1.167-.78-2.02c0-.947.307-1.667.92-2.16.614-.507 1.4-.76 2.36-.76.827 0 1.507.193 2.04.58.027-.787-.086-1.367-.34-1.74-.253-.387-.7-.58-1.34-.58-.666 0-1.453.207-2.36.62zm2.3 4.86c.774 0 1.354-.273 1.74-.82v-.92c-.386-.293-.913-.44-1.58-.44-.413 0-.76.1-1.04.3-.266.187-.4.46-.4.82 0 .333.12.593.36.78.24.187.547.28.92.28zm6.258 5.82v-13h2.3v.86c.294-.307.687-.56 1.18-.76a4.089 4.089 0 011.6-.32c1.227 0 2.214.427 2.96 1.28.747.853 1.12 1.953 1.12 3.3 0 1.4-.44 2.56-1.32 3.48-.88.92-2.026 1.38-3.44 1.38-.893 0-1.593-.147-2.1-.44V210h-2.3zm4.36-11.06c-.786 0-1.473.327-2.06.98v3.64c.534.347 1.167.52 1.9.52.774 0 1.387-.247 1.84-.74.454-.507.68-1.147.68-1.92 0-.733-.206-1.327-.62-1.78-.413-.467-.993-.7-1.74-.7zm7.133 7.06v-9h2.3v9h-2.3zm-.24-12.24c0-.4.14-.72.42-.96.28-.253.62-.38 1.02-.38a1.3 1.3 0 01.92.38c.266.24.4.56.4.96 0 .44-.134.793-.4 1.06a1.3 1.3 0 01-.92.38c-.414 0-.76-.127-1.04-.38-.267-.267-.4-.62-.4-1.06zM1009.33 13.32l-.58-1.68a6.14 6.14 0 013.18-.86c1.28 0 2.2.313 2.76.94.56.627.84 1.56.84 2.8V20h-2v-1.04c-.55.773-1.43 1.16-2.66 1.16-.84 0-1.52-.247-2.04-.74s-.78-1.167-.78-2.02c0-.947.31-1.667.92-2.16.61-.507 1.4-.76 2.36-.76.83 0 1.51.193 2.04.58.03-.787-.09-1.367-.34-1.74-.25-.387-.7-.58-1.34-.58-.67 0-1.45.207-2.36.62zm2.3 4.86c.77 0 1.35-.273 1.74-.82v-.92c-.39-.293-.91-.44-1.58-.44-.41 0-.76.1-1.04.3-.27.187-.4.46-.4.82 0 .333.12.593.36.78.24.187.55.28.92.28zm6.26 5.82V11h2.3v.86c.29-.307.68-.56 1.18-.76.5-.213 1.04-.32 1.6-.32 1.22 0 2.21.427 2.96 1.28.74.853 1.12 1.953 1.12 3.3 0 1.4-.44 2.56-1.32 3.48-.88.92-2.03 1.38-3.44 1.38-.9 0-1.6-.147-2.1-.44V24h-2.3zm4.36-11.06c-.79 0-1.48.327-2.06.98v3.64c.53.347 1.16.52 1.9.52.77 0 1.38-.247 1.84-.74.45-.507.68-1.147.68-1.92 0-.733-.21-1.327-.62-1.78-.42-.467-1-.7-1.74-.7zm7.13 7.06v-9h2.3v9h-2.3zm-.24-12.24c0-.4.14-.72.42-.96.28-.253.62-.38 1.02-.38.35 0 .65.127.92.38.27.24.4.56.4.96 0 .44-.13.793-.4 1.06-.27.253-.57.38-.92.38-.41 0-.76-.127-1.04-.38-.27-.267-.4-.62-.4-1.06zm3.57 15.74l6.6-17.72 1.78.66-6.6 17.72-1.78-.66zm16.12-6.02l.66 1.62c-.88.747-2.02 1.12-3.44 1.12-1.45 0-2.62-.433-3.52-1.3-.88-.867-1.32-2.007-1.32-3.42 0-1.347.44-2.467 1.3-3.36.87-.907 2.02-1.36 3.46-1.36 1.19 0 2.2.393 3.02 1.18.83.773 1.24 1.773 1.24 3 0 .507-.04.92-.14 1.24h-6.5c.1.667.39 1.187.88 1.56.5.36 1.1.54 1.82.54 1.02 0 1.86-.273 2.54-.82zm-2.96-4.78c-1.3 0-2.09.653-2.36 1.96h4.42c.02-.56-.16-1.027-.54-1.4-.37-.373-.88-.56-1.52-.56zm19.88 1.42V20h-2.3v-5.28c0-1.147-.52-1.72-1.54-1.72-.88 0-1.5.347-1.86 1.04v.32c.01.16.02.273.02.34V20h-2.3v-5.44c0-.48-.14-.86-.4-1.14-.26-.28-.62-.42-1.1-.42-.83 0-1.46.32-1.88.96V20h-2.3v-9h2.3v1c.69-.773 1.63-1.16 2.82-1.16.66 0 1.22.133 1.68.4.45.267.76.613.94 1.04.73-.96 1.74-1.44 3.04-1.44 1.92 0 2.88 1.093 2.88 3.28zm3.03-.8l-.58-1.68a6.19 6.19 0 013.18-.86c1.28 0 2.2.313 2.76.94.56.627.84 1.56.84 2.8V20h-2v-1.04c-.54.773-1.43 1.16-2.66 1.16-.84 0-1.52-.247-2.04-.74s-.78-1.167-.78-2.02c0-.947.31-1.667.92-2.16.62-.507 1.4-.76 2.36-.76.83 0 1.51.193 2.04.58.03-.787-.08-1.367-.34-1.74-.25-.387-.7-.58-1.34-.58-.66 0-1.45.207-2.36.62zm2.3 4.86c.78 0 1.36-.273 1.74-.82v-.92c-.38-.293-.91-.44-1.58-.44-.41 0-.76.1-1.04.3-.26.187-.4.46-.4.82 0 .333.12.593.36.78.24.187.55.28.92.28zm6.6 1.82v-9h2.3v9h-2.3zm-.24-12.24c0-.4.14-.72.42-.96.28-.253.62-.38 1.02-.38.35 0 .65.127.92.38.27.24.4.56.4.96 0 .44-.13.793-.4 1.06-.27.253-.57.38-.92.38-.41 0-.76-.127-1.04-.38-.27-.267-.4-.62-.4-1.06zm5.45 9.76V6h2.3v10.58c0 .973.26 1.46.78 1.46.29 0 .6-.12.94-.36l.48 1.76c-.63.507-1.42.76-2.38.76-1.42 0-2.12-.893-2.12-2.68zm4.09 5.98l6.6-17.72 1.78.66-6.6 17.72-1.78-.66zm8.23-14.86l3.58-2.68h1.66V20h-2.3V9.24l-1.72 1.3-1.22-1.9zm18.99 8.16l.94 1.84c-.44.467-1.07.847-1.9 1.14a7.52 7.52 0 01-2.58.44c-2.14 0-3.88-.66-5.22-1.98-1.33-1.32-2-3.067-2-5.24 0-2.093.64-3.82 1.9-5.18 1.27-1.36 3.02-2.04 5.26-2.04 1.8 0 3.22.473 4.26 1.42l-1.1 1.82c-.94-.627-2-.94-3.16-.94-1.32 0-2.41.447-3.28 1.34-.85.893-1.28 2.087-1.28 3.58 0 1.453.45 2.64 1.34 3.56.91.907 2.08 1.36 3.5 1.36 1.24 0 2.35-.373 3.32-1.12zm-663.199-3.48l-.58-1.68a6.158 6.158 0 013.18-.86c1.28 0 2.2.313 2.76.94.56.627.84 1.56.84 2.8V20h-2v-1.04c-.546.773-1.433 1.16-2.66 1.16-.84 0-1.52-.247-2.04-.74s-.78-1.167-.78-2.02c0-.947.307-1.667.92-2.16.614-.507 1.4-.76 2.36-.76.827 0 1.507.193 2.04.58.027-.787-.086-1.367-.34-1.74-.253-.387-.7-.58-1.34-.58-.666 0-1.453.207-2.36.62zm2.3 4.86c.774 0 1.354-.273 1.74-.82v-.92c-.386-.293-.913-.44-1.58-.44-.413 0-.76.1-1.04.3-.266.187-.4.46-.4.82 0 .333.12.593.36.78.24.187.547.28.92.28zm6.258 5.82V11h2.3v.86c.294-.307.687-.56 1.18-.76a4.083 4.083 0 011.6-.32c1.227 0 2.214.427 2.96 1.28.747.853 1.12 1.953 1.12 3.3 0 1.4-.44 2.56-1.32 3.48-.88.92-2.026 1.38-3.44 1.38-.893 0-1.593-.147-2.1-.44V24h-2.3zm4.36-11.06c-.786 0-1.473.327-2.06.98v3.64c.534.347 1.167.52 1.9.52.774 0 1.387-.247 1.84-.74.454-.507.68-1.147.68-1.92 0-.733-.206-1.327-.62-1.78-.413-.467-.993-.7-1.74-.7zm7.133 7.06v-9h2.3v9h-2.3zm-.24-12.24c0-.4.14-.72.42-.96.28-.253.62-.38 1.02-.38a1.3 1.3 0 01.92.38c.266.24.4.56.4.96 0 .44-.134.793-.4 1.06a1.3 1.3 0 01-.92.38c-.414 0-.76-.127-1.04-.38-.267-.267-.4-.62-.4-1.06z" fill="#fff"/><path d="M583 222l-10-5.774v11.548L583 222zm-200 1h191v-2H383v2zm793-1l-10-5.774v11.548l10-5.774zm-200 1h191v-2H976v2zm-435-22l5.773-10h-11.546L541 201zM383 37h138v-2H383v2zm157 19v136h2V56h-2zm-19-19c10.493 0 19 8.507 19 19h2c0-11.598-9.402-21-21-21v2zm651 7l-10-5.773v11.547L1172 44zM935 176V64h-2v112h2zm19-131h209v-2H954v2zm-19 19c0-10.493 8.507-19 19-19v-2c-11.598 0-21 9.402-21 21h2z" fill="#C5CDCF"/></svg>