<svg width="778" height="575" viewBox="0 0 778 575" fill="none" xmlns="http://www.w3.org/2000/svg"><path d="M391 130l5.774-10h-11.548L391 130zm-1-40v31h2V90h-2z" fill="#C5CDCF"/><path d="M177.732 159.236v-4.14h11.232c-.432-2.088-1.452-3.696-3.06-4.824-1.608-1.152-3.612-1.728-6.012-1.728-2.208 0-4.176.648-5.904 1.944l-1.728-3.312c2.16-1.848 5.052-2.772 8.676-2.772 3.744 0 6.792 1.188 9.144 3.564 2.352 2.376 3.528 5.508 3.528 9.396 0 3.96-1.188 7.128-3.564 9.504-2.376 2.352-5.58 3.528-9.612 3.528-1.704 0-3.312-.24-4.824-.72-1.512-.504-2.724-1.14-3.636-1.908l1.908-3.708c1.896 1.464 4.056 2.196 6.48 2.196 2.256 0 4.176-.6 5.76-1.8 1.608-1.224 2.592-2.964 2.952-5.22h-11.34zm35.131-5.436l-6.228 7.704 6.984 8.496h-5.4l-6.408-8.172 5.832-8.028h5.22zM197.527 170v-16.2h4.14V170h-4.14zm18.947-1.98c-1.608-1.608-2.412-3.648-2.412-6.12s.804-4.5 2.412-6.084c1.632-1.608 3.768-2.412 6.408-2.412 2.64 0 4.764.804 6.372 2.412 1.632 1.584 2.448 3.612 2.448 6.084 0 2.472-.816 4.512-2.448 6.12-1.608 1.584-3.732 2.376-6.372 2.376-2.64 0-4.776-.792-6.408-2.376zm2.016-6.12c0 1.344.408 2.46 1.224 3.348.84.864 1.896 1.296 3.168 1.296 1.296 0 2.352-.42 3.168-1.26.84-.864 1.26-1.992 1.26-3.384 0-1.344-.42-2.448-1.26-3.312-.84-.864-1.896-1.296-3.168-1.296-1.248 0-2.292.432-3.132 1.296-.84.84-1.26 1.944-1.26 3.312zm29.07 2.664l1.944 3.024c-.672.912-1.584 1.608-2.736 2.088-1.128.48-2.364.72-3.708.72-2.64 0-4.764-.78-6.372-2.34-1.608-1.56-2.412-3.612-2.412-6.156 0-2.4.792-4.416 2.376-6.048 1.584-1.632 3.588-2.448 6.012-2.448 2.88 0 5.052.732 6.516 2.196l-1.944 3.276c-1.08-1.056-2.424-1.584-4.032-1.584-1.2 0-2.256.432-3.168 1.296-.888.84-1.332 1.944-1.332 3.312 0 1.392.456 2.52 1.368 3.384.936.84 2.04 1.26 3.312 1.26 1.584 0 2.976-.66 4.176-1.98zm9.407 5.436h-4.14v-16.2h4.14v10.26l7.56-10.26h4.14V170h-4.14v-10.26l-7.56 10.26zm28.597-5.436l1.944 3.024c-.672.912-1.584 1.608-2.736 2.088-1.128.48-2.364.72-3.708.72-2.64 0-4.764-.78-6.372-2.34-1.608-1.56-2.412-3.612-2.412-6.156 0-2.4.792-4.416 2.376-6.048 1.584-1.632 3.588-2.448 6.012-2.448 2.88 0 5.052.732 6.516 2.196l-1.944 3.276c-1.08-1.056-2.424-1.584-4.032-1.584-1.2 0-2.256.432-3.168 1.296-.888.84-1.332 1.944-1.332 3.312 0 1.392.456 2.52 1.368 3.384.936.84 2.04 1.26 3.312 1.26 1.584 0 2.976-.66 4.176-1.98zm3.259-6.624v-4.14h14.76v4.14h-5.292V170h-4.14v-12.06h-5.328zm29.939 7.524l1.188 2.916c-1.584 1.344-3.648 2.016-6.192 2.016-2.616 0-4.728-.78-6.336-2.34-1.584-1.56-2.376-3.612-2.376-6.156 0-2.424.78-4.44 2.34-6.048 1.56-1.632 3.636-2.448 6.228-2.448 2.136 0 3.948.708 5.436 2.124 1.488 1.392 2.232 3.192 2.232 5.4 0 .912-.084 1.656-.252 2.232h-11.7c.168 1.2.696 2.136 1.584 2.808.888.648 1.98.972 3.276.972 1.824 0 3.348-.492 4.572-1.476zm-5.328-8.604c-2.352 0-3.768 1.176-4.248 3.528h7.956c.024-1.008-.3-1.848-.972-2.52-.672-.672-1.584-1.008-2.736-1.008zM324.617 170v-16.2h3.744l5.508 6.768 5.22-6.768h3.636V170h-4.14v-9.9l-4.788 6.048h-.108l-4.932-6.048v9.9h-4.14zm23.97-12.024l-1.044-3.024c1.752-1.032 3.66-1.548 5.724-1.548 2.304 0 3.96.564 4.968 1.692 1.008 1.128 1.512 2.808 1.512 5.04V170h-3.6v-1.872c-.984 1.392-2.58 2.088-4.788 2.088-1.512 0-2.736-.444-3.672-1.332-.936-.888-1.404-2.1-1.404-3.636 0-1.704.552-3 1.656-3.888 1.104-.912 2.52-1.368 4.248-1.368 1.488 0 2.712.348 3.672 1.044.048-1.416-.156-2.46-.612-3.132-.456-.696-1.26-1.044-2.412-1.044-1.2 0-2.616.372-4.248 1.116zm4.14 8.748c1.392 0 2.436-.492 3.132-1.476v-1.656c-.696-.528-1.644-.792-2.844-.792-.744 0-1.368.18-1.872.54-.48.336-.72.828-.72 1.476 0 .6.216 1.068.648 1.404.432.336.984.504 1.656.504zm31.169-2.16l1.944 3.024c-.672.912-1.584 1.608-2.736 2.088-1.128.48-2.364.72-3.708.72-2.64 0-4.764-.78-6.372-2.34-1.608-1.56-2.412-3.612-2.412-6.156 0-2.4.792-4.416 2.376-6.048 1.584-1.632 3.588-2.448 6.012-2.448 2.88 0 5.052.732 6.516 2.196l-1.944 3.276c-1.08-1.056-2.424-1.584-4.032-1.584-1.2 0-2.256.432-3.168 1.296-.888.84-1.332 1.944-1.332 3.312 0 1.392.456 2.52 1.368 3.384.936.84 2.04 1.26 3.312 1.26 1.584 0 2.976-.66 4.176-1.98zm6.527-6.588l-1.044-3.024c1.752-1.032 3.66-1.548 5.724-1.548 2.304 0 3.96.564 4.968 1.692 1.008 1.128 1.512 2.808 1.512 5.04V170h-3.6v-1.872c-.984 1.392-2.58 2.088-4.788 2.088-1.512 0-2.736-.444-3.672-1.332-.936-.888-1.404-2.1-1.404-3.636 0-1.704.552-3 1.656-3.888 1.104-.912 2.52-1.368 4.248-1.368 1.488 0 2.712.348 3.672 1.044.048-1.416-.156-2.46-.612-3.132-.456-.696-1.26-1.044-2.412-1.044-1.2 0-2.616.372-4.248 1.116zm4.14 8.748c1.392 0 2.436-.492 3.132-1.476v-1.656c-.696-.528-1.644-.792-2.844-.792-.744 0-1.368.18-1.872.54-.48.336-.72.828-.72 1.476 0 .6.216 1.068.648 1.404.432.336.984.504 1.656.504zM409.967 170h-4.14v-16.2h4.14v10.26l7.56-10.26h4.14V170h-4.14v-10.26l-7.56 10.26zm-1.728-24.3h3.78c0 .744.144 1.368.432 1.872.312.504.792.756 1.44.756.576 0 1.008-.252 1.296-.756.288-.504.432-1.128.432-1.872h3.78c0 1.632-.48 2.976-1.44 4.032-.96 1.032-2.316 1.548-4.068 1.548-1.92 0-3.348-.504-4.284-1.512-.912-1.032-1.368-2.388-1.368-4.068zm16.357 12.24v-4.14h14.76v4.14h-5.292V170h-4.14v-12.06h-5.328zm18.635 10.08c-1.608-1.608-2.412-3.648-2.412-6.12s.804-4.5 2.412-6.084c1.632-1.608 3.768-2.412 6.408-2.412 2.64 0 4.764.804 6.372 2.412 1.632 1.584 2.448 3.612 2.448 6.084 0 2.472-.816 4.512-2.448 6.12-1.608 1.584-3.732 2.376-6.372 2.376-2.64 0-4.776-.792-6.408-2.376zm2.016-6.12c0 1.344.408 2.46 1.224 3.348.84.864 1.896 1.296 3.168 1.296 1.296 0 2.352-.42 3.168-1.26.84-.864 1.26-1.992 1.26-3.384 0-1.344-.42-2.448-1.26-3.312-.84-.864-1.896-1.296-3.168-1.296-1.248 0-2.292.432-3.132 1.296-.84.84-1.26 1.944-1.26 3.312zm16.795 8.1v-16.2c.288 0 .816-.012 1.584-.036a83.422 83.422 0 014.788-.144c4.896 0 7.344 1.416 7.344 4.248 0 .936-.3 1.74-.9 2.412-.576.672-1.284 1.068-2.124 1.188v.072c2.304.552 3.456 1.8 3.456 3.744 0 3.264-2.568 4.896-7.704 4.896-.72 0-1.86-.036-3.42-.108-1.56-.048-2.568-.072-3.024-.072zm6.732-6.876h-2.592v3.6c1.632.096 2.544.144 2.736.144.912 0 1.62-.168 2.124-.504.528-.336.792-.792.792-1.368 0-1.248-1.02-1.872-3.06-1.872zm0-6.156c-1.152 0-2.016.024-2.592.072v3.564h2.7c.72 0 1.308-.156 1.764-.468.48-.336.72-.804.72-1.404 0-1.176-.864-1.764-2.592-1.764zm17.024 16.812v-7.632h2.052c1.272-1.68 2.028-4.5 2.268-8.46l.252-3.888h11.952v12.348h2.7v7.632h-3.888V170H489.65v3.78h-3.852zm8.316-14.436c-.288 3.144-.936 5.412-1.944 6.804h6.012v-8.46h-3.96l-.108 1.656zM511.885 170h-4.14v-16.2h4.14v10.26l7.56-10.26h4.14V170h-4.14v-10.26l-7.56 10.26zm26.977 0v-12.06h-4.284l-.108 1.728c-.264 2.904-.708 5.136-1.332 6.696-.6 1.56-1.368 2.616-2.304 3.168-.912.528-2.136.792-3.672.792l-.36-4.032c.528.048 1.02-.096 1.476-.432.48-.36.936-1.128 1.368-2.304.432-1.2.708-2.772.828-4.716l.252-5.04h12.276V170h-4.14zm21.459-4.536l1.188 2.916c-1.584 1.344-3.648 2.016-6.192 2.016-2.616 0-4.728-.78-6.336-2.34-1.584-1.56-2.376-3.612-2.376-6.156 0-2.424.78-4.44 2.34-6.048 1.56-1.632 3.636-2.448 6.228-2.448 2.136 0 3.948.708 5.436 2.124 1.488 1.392 2.232 3.192 2.232 5.4 0 .912-.084 1.656-.252 2.232h-11.7c.168 1.2.696 2.136 1.584 2.808.888.648 1.98.972 3.276.972 1.824 0 3.348-.492 4.572-1.476zm-5.328-8.604c-2.352 0-3.768 1.176-4.248 3.528h7.956c.024-1.008-.3-1.848-.972-2.52-.672-.672-1.584-1.008-2.736-1.008zm11.182 20.34v-23.4h4.14v1.548c.528-.552 1.236-1.008 2.124-1.368a7.347 7.347 0 012.88-.576c2.208 0 3.984.768 5.328 2.304 1.344 1.536 2.016 3.516 2.016 5.94 0 2.52-.792 4.608-2.376 6.264-1.584 1.656-3.648 2.484-6.192 2.484-1.608 0-2.868-.264-3.78-.792v7.596h-4.14zm7.848-19.908c-1.416 0-2.652.588-3.708 1.764v6.552c.96.624 2.1.936 3.42.936 1.392 0 2.496-.444 3.312-1.332.816-.912 1.224-2.064 1.224-3.456 0-1.32-.372-2.388-1.116-3.204-.744-.84-1.788-1.26-3.132-1.26zm13.63 10.728c-1.608-1.608-2.412-3.648-2.412-6.12s.804-4.5 2.412-6.084c1.632-1.608 3.768-2.412 6.408-2.412 2.64 0 4.764.804 6.372 2.412 1.632 1.584 2.448 3.612 2.448 6.084 0 2.472-.816 4.512-2.448 6.12-1.608 1.584-3.732 2.376-6.372 2.376-2.64 0-4.776-.792-6.408-2.376zm2.016-6.12c0 1.344.408 2.46 1.224 3.348.84.864 1.896 1.296 3.168 1.296 1.296 0 2.352-.42 3.168-1.26.84-.864 1.26-1.992 1.26-3.384 0-1.344-.42-2.448-1.26-3.312-.84-.864-1.896-1.296-3.168-1.296-1.248 0-2.292.432-3.132 1.296-.84.84-1.26 1.944-1.26 3.312zm16.795 8.1v-16.2c.288 0 .816-.012 1.584-.036a83.422 83.422 0 014.788-.144c4.896 0 7.344 1.416 7.344 4.248 0 .936-.3 1.74-.9 2.412-.576.672-1.284 1.068-2.124 1.188v.072c2.304.552 3.456 1.8 3.456 3.744 0 3.264-2.568 4.896-7.704 4.896-.72 0-1.86-.036-3.42-.108-1.56-.048-2.568-.072-3.024-.072zm6.732-6.876h-2.592v3.6c1.632.096 2.544.144 2.736.144.912 0 1.62-.168 2.124-.504.528-.336.792-.792.792-1.368 0-1.248-1.02-1.872-3.06-1.872zm0-6.156c-1.152 0-2.016.024-2.592.072v3.564h2.7c.72 0 1.308-.156 1.764-.468.48-.336.72-.804.72-1.404 0-1.176-.864-1.764-2.592-1.764z" fill="#274BB8"/><path d="M218.625 54.5v-8.64h2.7c.744-.912 1.524-2.772 2.34-5.58.84-2.832 1.356-6.312 1.548-10.44l.252-5.04h15.624v21.06h3.42v8.64h-4.14V50h-17.604v4.5h-4.14zm10.728-21.168c-.216 2.952-.66 5.604-1.332 7.956-.672 2.352-1.284 3.876-1.836 4.572h10.512V28.94h-6.948l-.396 4.392zm19.162 14.688c-1.608-1.608-2.412-3.648-2.412-6.12s.804-4.5 2.412-6.084c1.632-1.608 3.768-2.412 6.408-2.412 2.64 0 4.764.804 6.372 2.412 1.632 1.584 2.448 3.612 2.448 6.084 0 2.472-.816 4.512-2.448 6.12-1.608 1.584-3.732 2.376-6.372 2.376-2.64 0-4.776-.792-6.408-2.376zm2.016-6.12c0 1.344.408 2.46 1.224 3.348.84.864 1.896 1.296 3.168 1.296 1.296 0 2.352-.42 3.168-1.26.84-.864 1.26-1.992 1.26-3.384 0-1.344-.42-2.448-1.26-3.312-.84-.864-1.896-1.296-3.168-1.296-1.248 0-2.292.432-3.132 1.296-.84.84-1.26 1.944-1.26 3.312zm28.026 8.1v-6.192h-7.092V50h-4.14V33.8h4.14v6.12h7.092V33.8h4.14V50h-4.14zm10.141-1.98c-1.608-1.608-2.412-3.648-2.412-6.12s.804-4.5 2.412-6.084c1.632-1.608 3.768-2.412 6.408-2.412 2.64 0 4.764.804 6.372 2.412 1.632 1.584 2.448 3.612 2.448 6.084 0 2.472-.816 4.512-2.448 6.12-1.608 1.584-3.732 2.376-6.372 2.376-2.64 0-4.776-.792-6.408-2.376zm2.016-6.12c0 1.344.408 2.46 1.224 3.348.84.864 1.896 1.296 3.168 1.296 1.296 0 2.352-.42 3.168-1.26.84-.864 1.26-1.992 1.26-3.384 0-1.344-.42-2.448-1.26-3.312-.84-.864-1.896-1.296-3.168-1.296-1.248 0-2.292.432-3.132 1.296-.84.84-1.26 1.944-1.26 3.312zm16.795 15.3V33.8h4.14v1.548c.528-.552 1.236-1.008 2.124-1.368a7.347 7.347 0 012.88-.576c2.208 0 3.984.768 5.328 2.304 1.344 1.536 2.016 3.516 2.016 5.94 0 2.52-.792 4.608-2.376 6.264-1.584 1.656-3.648 2.484-6.192 2.484-1.608 0-2.868-.264-3.78-.792V57.2h-4.14zm7.848-19.908c-1.416 0-2.652.588-3.708 1.764v6.552c.96.624 2.1.936 3.42.936 1.392 0 2.496-.444 3.312-1.332.816-.912 1.224-2.064 1.224-3.456 0-1.32-.372-2.388-1.116-3.204-.744-.84-1.788-1.26-3.132-1.26zm34.939-3.492l-6.984 16.272h-3.06L332.8 33.8h4.932l2.988 6.948c.528 1.176.936 2.4 1.224 3.672a23.596 23.596 0 011.188-3.744l2.808-6.876h4.356zm3.019 14.22c-1.608-1.608-2.412-3.648-2.412-6.12s.804-4.5 2.412-6.084c1.632-1.608 3.768-2.412 6.408-2.412 2.64 0 4.764.804 6.372 2.412 1.632 1.584 2.448 3.612 2.448 6.084 0 2.472-.816 4.512-2.448 6.12-1.608 1.584-3.732 2.376-6.372 2.376-2.64 0-4.776-.792-6.408-2.376zm2.016-6.12c0 1.344.408 2.46 1.224 3.348.84.864 1.896 1.296 3.168 1.296 1.296 0 2.352-.42 3.168-1.26.84-.864 1.26-1.992 1.26-3.384 0-1.344-.42-2.448-1.26-3.312-.84-.864-1.896-1.296-3.168-1.296-1.248 0-2.292.432-3.132 1.296-.84.84-1.26 1.944-1.26 3.312zm16.795 3.636V24.8h4.14v19.044c0 1.752.468 2.628 1.404 2.628.528 0 1.092-.216 1.692-.648l.864 3.168c-1.128.912-2.556 1.368-4.284 1.368-2.544 0-3.816-1.608-3.816-4.824zM398.112 33.8l-6.084 7.416L398.832 50h-5.328l-6.408-8.46 5.796-7.74h5.22zM382.884 50V24.8h4.14V50h-4.14zm26.088-3.456c.408-.264.612-.636.612-1.116 0-.48-.3-.864-.9-1.152-.6-.312-1.332-.576-2.196-.792-.84-.24-1.692-.516-2.556-.828a5.333 5.333 0 01-2.196-1.584c-.6-.72-.9-1.632-.9-2.736 0-1.536.552-2.736 1.656-3.6 1.128-.888 2.556-1.332 4.284-1.332 2.64 0 4.692.684 6.156 2.052l-1.548 2.952c-1.32-1.032-2.784-1.548-4.392-1.548-.6 0-1.092.144-1.476.432-.36.264-.54.588-.54.972 0 .48.3.876.9 1.188.6.312 1.32.576 2.16.792.864.216 1.728.48 2.592.792a5.046 5.046 0 012.196 1.548c.6.696.9 1.572.9 2.628 0 1.584-.6 2.844-1.8 3.78-1.176.936-2.76 1.404-4.752 1.404-1.392 0-2.772-.3-4.14-.9-1.344-.6-2.22-1.224-2.628-1.872l2.016-2.7c.48.528 1.236.996 2.268 1.404 1.032.408 1.956.612 2.772.612.624 0 1.128-.132 1.512-.396zM440.844 33.8l-5.112 16.272h-3.708l-3.456-9c-.096-.24-.204-.6-.324-1.08-.12-.48-.192-.756-.216-.828a12.64 12.64 0 01-.576 1.98l-3.42 8.928h-3.528L415.248 33.8h4.428l2.592 8.82c.096.288.252 1.008.468 2.16.288-1.128.492-1.848.612-2.16l3.024-8.82h3.672l3.132 8.784c.168.48.372 1.224.612 2.232.096-.504.264-1.284.504-2.34l2.376-8.676h4.176zm3.734 4.176l-1.044-3.024c1.752-1.032 3.66-1.548 5.724-1.548 2.304 0 3.96.564 4.968 1.692 1.008 1.128 1.512 2.808 1.512 5.04V50h-3.6v-1.872c-.984 1.392-2.58 2.088-4.788 2.088-1.512 0-2.736-.444-3.672-1.332-.936-.888-1.404-2.1-1.404-3.636 0-1.704.552-3 1.656-3.888 1.104-.912 2.52-1.368 4.248-1.368 1.488 0 2.712.348 3.672 1.044.048-1.416-.156-2.46-.612-3.132-.456-.696-1.26-1.044-2.412-1.044-1.2 0-2.616.372-4.248 1.116zm4.14 8.748c1.392 0 2.436-.492 3.132-1.476v-1.656c-.696-.528-1.644-.792-2.844-.792-.744 0-1.368.18-1.872.54-.48.336-.72.828-.72 1.476 0 .6.216 1.068.648 1.404.432.336.984.504 1.656.504zm9.14 5.472c0-1.296.468-2.364 1.404-3.204.96-.864 2.244-1.464 3.852-1.8a2.21 2.21 0 01-.288-1.116c0-.456.12-.84.36-1.152-1.2-.48-2.148-1.2-2.844-2.16a5.68 5.68 0 01-1.008-3.276c0-1.68.636-3.108 1.908-4.284 1.272-1.2 2.94-1.8 5.004-1.8 1.56 0 2.94.384 4.14 1.152l4.896-1.08.144 3.312-2.7.612c.264.672.396 1.368.396 2.088 0 1.656-.636 3.072-1.908 4.248-1.272 1.152-2.928 1.728-4.968 1.728h-.288c-.048.144-.072.348-.072.612 0 .312.072.588.216.828h.18c2.496 0 4.524.444 6.084 1.332 1.56.888 2.34 2.208 2.34 3.96 0 1.752-.78 3.072-2.34 3.96-1.56.888-3.588 1.332-6.084 1.332-2.52 0-4.56-.444-6.12-1.332-1.536-.864-2.304-2.184-2.304-3.96zm3.852 0c0 .624.408 1.104 1.224 1.44.816.36 1.932.54 3.348.54 3.024 0 4.536-.66 4.536-1.98 0-.6-.396-1.08-1.188-1.44-.768-.36-1.884-.54-3.348-.54-1.44 0-2.568.18-3.384.54-.792.36-1.188.84-1.188 1.44zm2.34-14.652a2.585 2.585 0 00-.828 1.944c0 .768.276 1.404.828 1.908.552.48 1.284.72 2.196.72.888 0 1.608-.24 2.16-.72.576-.48.864-1.116.864-1.908 0-.792-.276-1.44-.828-1.944-.528-.528-1.26-.792-2.196-.792-.912 0-1.644.264-2.196.792zm26.605 7.92l1.188 2.916c-1.584 1.344-3.648 2.016-6.192 2.016-2.616 0-4.728-.78-6.336-2.34-1.584-1.56-2.376-3.612-2.376-6.156 0-2.424.78-4.44 2.34-6.048 1.56-1.632 3.636-2.448 6.228-2.448 2.136 0 3.948.708 5.436 2.124 1.488 1.392 2.232 3.192 2.232 5.4 0 .912-.084 1.656-.252 2.232h-11.7c.168 1.2.696 2.136 1.584 2.808.888.648 1.98.972 3.276.972 1.824 0 3.348-.492 4.572-1.476zm-5.328-8.604c-2.352 0-3.768 1.176-4.248 3.528h7.956c.024-1.008-.3-1.848-.972-2.52-.672-.672-1.584-1.008-2.736-1.008zM496.509 50V33.8h4.14v1.62c1.176-1.272 2.724-1.908 4.644-1.908 4.44 0 6.66 2.328 6.66 6.984V50h-4.14v-8.784c0-2.544-1.212-3.816-3.636-3.816-1.32 0-2.496.516-3.528 1.548V50h-4.14zm18.968-2.7c0-.672.264-1.284.792-1.836s1.224-.828 2.088-.828c.744 0 1.368.276 1.872.828.504.552.756 1.164.756 1.836 0 .768-.252 1.44-.756 2.016-.504.576-1.128.864-1.872.864-.864 0-1.56-.288-2.088-.864a2.89 2.89 0 01-.792-2.016zm9.438 1.296V24.8h4.14v10.008c1.2-.936 2.628-1.404 4.284-1.404 2.376 0 4.248.768 5.616 2.304 1.392 1.512 2.088 3.492 2.088 5.94 0 2.664-.84 4.788-2.52 6.372-1.656 1.584-3.9 2.376-6.732 2.376-1.272 0-2.544-.168-3.816-.504-1.248-.36-2.268-.792-3.06-1.296zm7.452-11.304c-1.32 0-2.424.516-3.312 1.548v6.876c.864.552 1.848.828 2.952.828 1.344 0 2.448-.408 3.312-1.224.864-.84 1.296-1.968 1.296-3.384 0-1.488-.408-2.628-1.224-3.42-.792-.816-1.8-1.224-3.024-1.224zm27.262-3.492L553.257 50c-1.152 2.808-2.184 4.704-3.096 5.688-.888 1.008-1.944 1.512-3.168 1.512-1.176 0-2.34-.42-3.492-1.26l1.332-3.132c.648.384 1.212.576 1.692.576.984 0 1.812-.84 2.484-2.52l.36-.864-7.488-16.2h4.968l3.78 8.856c.144.36.408 1.14.792 2.34.192-1.056.384-1.848.576-2.376l2.916-8.82h4.716z" fill="#141414"/><rect x="190.5" y="2.5" width="397" height="75" rx="5.5" stroke="#274BB8" stroke-width="5"/><path d="M277.241 487.2l-6.72 16.848h-2.232l-6.912-16.848h3.144l4.992 12.456 4.776-12.456h2.952zm23.9 0l-4.8 16.8h-2.76l-4.056-12.144L285.541 504h-2.784l-5.016-16.8h3.312l3.384 11.976 3.744-11.976h2.928l3.84 12 3.36-12h2.832zm1.429 11.52v-2.568h6.048v2.568h-6.048zm19.295-5.52l-4.152 5.136 4.656 5.664h-3.6l-4.272-5.448 3.888-5.352h3.48zM311.641 504v-10.8h2.76V504h-2.76zm12.632-1.32c-1.072-1.072-1.608-2.432-1.608-4.08 0-1.648.536-3 1.608-4.056 1.088-1.072 2.512-1.608 4.272-1.608 1.76 0 3.176.536 4.248 1.608 1.088 1.056 1.632 2.408 1.632 4.056 0 1.648-.544 3.008-1.632 4.08-1.072 1.056-2.488 1.584-4.248 1.584-1.76 0-3.184-.528-4.272-1.584zm1.344-4.08c0 .896.272 1.64.816 2.232.56.576 1.264.864 2.112.864.864 0 1.568-.28 2.112-.84.56-.576.84-1.328.84-2.256 0-.896-.28-1.632-.84-2.208-.56-.576-1.264-.864-2.112-.864-.832 0-1.528.288-2.088.864-.56.56-.84 1.296-.84 2.208zm11.196 5.4v-10.8h2.496l3.672 4.512 3.48-4.512h2.424V504h-2.76v-6.6l-3.192 4.032h-.072l-3.288-4.032v6.6h-2.76zm15.141 0v-10.8h2.496l3.672 4.512 3.48-4.512h2.424V504h-2.76v-6.6l-3.192 4.032h-.072l-3.288-4.032v6.6h-2.76zm23.613-3.024l.792 1.944c-1.056.896-2.432 1.344-4.128 1.344-1.744 0-3.152-.52-4.224-1.56-1.056-1.04-1.584-2.408-1.584-4.104 0-1.616.52-2.96 1.56-4.032 1.04-1.088 2.424-1.632 4.152-1.632 1.424 0 2.632.472 3.624 1.416.992.928 1.488 2.128 1.488 3.6 0 .608-.056 1.104-.168 1.488h-7.8c.112.8.464 1.424 1.056 1.872.592.432 1.32.648 2.184.648 1.216 0 2.232-.328 3.048-.984zm-3.552-5.736c-1.568 0-2.512.784-2.832 2.352h5.304c.016-.672-.2-1.232-.648-1.68-.448-.448-1.056-.672-1.824-.672zm7.455 13.56v-15.6h2.76v1.032c.352-.368.824-.672 1.416-.912a4.898 4.898 0 011.92-.384c1.472 0 2.656.512 3.552 1.536.896 1.024 1.344 2.344 1.344 3.96 0 1.68-.528 3.072-1.584 4.176s-2.432 1.656-4.128 1.656c-1.072 0-1.912-.176-2.52-.528v5.064h-2.76zm5.232-13.272c-.944 0-1.768.392-2.472 1.176v4.368c.64.416 1.4.624 2.28.624.928 0 1.664-.296 2.208-.888.544-.608.816-1.376.816-2.304 0-.88-.248-1.592-.744-2.136-.496-.56-1.192-.84-2.088-.84zm16.862-2.328V504h-2.76v-3.72c-.784.416-1.68.624-2.688.624-1.36 0-2.352-.352-2.976-1.056-.624-.72-.936-1.784-.936-3.192V493.2h2.952v3.12c0 1.328.584 1.992 1.752 1.992.768 0 1.4-.144 1.896-.432v-4.68h2.76zm11.549 7.776l.792 1.944c-1.056.896-2.432 1.344-4.128 1.344-1.744 0-3.152-.52-4.224-1.56-1.056-1.04-1.584-2.408-1.584-4.104 0-1.616.52-2.96 1.56-4.032 1.04-1.088 2.424-1.632 4.152-1.632 1.424 0 2.632.472 3.624 1.416.992.928 1.488 2.128 1.488 3.6 0 .608-.056 1.104-.168 1.488h-7.8c.112.8.464 1.424 1.056 1.872.592.432 1.32.648 2.184.648 1.216 0 2.232-.328 3.048-.984zm-3.552-5.736c-1.568 0-2.512.784-2.832 2.352h5.304c.016-.672-.2-1.232-.648-1.68-.448-.448-1.056-.672-1.824-.672zm15.569 5.136l1.296 2.016c-.448.608-1.056 1.072-1.824 1.392-.752.32-1.576.48-2.472.48-1.76 0-3.176-.52-4.248-1.56s-1.608-2.408-1.608-4.104c0-1.6.528-2.944 1.584-4.032s2.392-1.632 4.008-1.632c1.92 0 3.368.488 4.344 1.464l-1.296 2.184c-.72-.704-1.616-1.056-2.688-1.056-.8 0-1.504.288-2.112.864-.592.56-.888 1.296-.888 2.208 0 .928.304 1.68.912 2.256.624.56 1.36.84 2.208.84 1.056 0 1.984-.44 2.784-1.32zm13.735-7.176l-4.152 5.136 4.656 5.664h-3.6l-4.272-5.448 3.888-5.352h3.48zM428.641 504v-10.8h2.76V504h-2.76zm15.112 0h-2.76v-10.8h2.76v6.84l5.04-6.84h2.76V504h-2.76v-6.84l-5.04 6.84zm19.353-3.024l.792 1.944c-1.056.896-2.432 1.344-4.128 1.344-1.744 0-3.152-.52-4.224-1.56-1.056-1.04-1.584-2.408-1.584-4.104 0-1.616.52-2.96 1.56-4.032 1.04-1.088 2.424-1.632 4.152-1.632 1.424 0 2.632.472 3.624 1.416.992.928 1.488 2.128 1.488 3.6 0 .608-.056 1.104-.168 1.488h-7.8c.112.8.464 1.424 1.056 1.872.592.432 1.32.648 2.184.648 1.216 0 2.232-.328 3.048-.984zm-3.552-5.736c-1.568 0-2.512.784-2.832 2.352h5.304c.016-.672-.2-1.232-.648-1.68-.448-.448-1.056-.672-1.824-.672zm13.381.744l-.696-2.016a7.385 7.385 0 013.816-1.032c1.536 0 2.64.376 3.312 1.128.672.752 1.008 1.872 1.008 3.36V504h-2.4v-1.248c-.656.928-1.72 1.392-3.192 1.392-1.008 0-1.824-.296-2.448-.888-.624-.592-.936-1.4-.936-2.424 0-1.136.368-2 1.104-2.592.736-.608 1.68-.912 2.832-.912.992 0 1.808.232 2.448.696.032-.944-.104-1.64-.408-2.088-.304-.464-.84-.696-1.608-.696-.8 0-1.744.248-2.832.744zm2.76 5.832c.928 0 1.624-.328 2.088-.984v-1.104c-.464-.352-1.096-.528-1.896-.528-.496 0-.912.12-1.248.36-.32.224-.48.552-.48.984 0 .4.144.712.432.936.288.224.656.336 1.104.336zm7.509 2.184v-10.8c.192 0 .544-.008 1.056-.024a51.715 51.715 0 013.192-.096c3.264 0 4.896.944 4.896 2.832 0 .624-.2 1.16-.6 1.608a2.231 2.231 0 01-1.416.792v.048c1.536.368 2.304 1.2 2.304 2.496 0 2.176-1.712 3.264-5.136 3.264a55.3 55.3 0 01-2.28-.072 86.639 86.639 0 00-2.016-.048zm4.488-4.584h-1.728v2.4c1.088.064 1.696.096 1.824.096.608 0 1.08-.112 1.416-.336.352-.224.528-.528.528-.912 0-.832-.68-1.248-2.04-1.248zm0-4.104c-.768 0-1.344.016-1.728.048v2.376h1.8c.48 0 .872-.104 1.176-.312.32-.224.48-.536.48-.936 0-.784-.576-1.176-1.728-1.176zm6.431.648v-2.76h9.84v2.76h-3.528V504h-2.76v-8.04h-3.552zm12.423 6.72c-1.072-1.072-1.608-2.432-1.608-4.08 0-1.648.536-3 1.608-4.056 1.088-1.072 2.512-1.608 4.272-1.608 1.76 0 3.176.536 4.248 1.608 1.088 1.056 1.632 2.408 1.632 4.056 0 1.648-.544 3.008-1.632 4.08-1.072 1.056-2.488 1.584-4.248 1.584-1.76 0-3.184-.528-4.272-1.584zm1.344-4.08c0 .896.272 1.64.816 2.232.56.576 1.264.864 2.112.864.864 0 1.568-.28 2.112-.84.56-.576.84-1.328.84-2.256 0-.896-.28-1.632-.84-2.208-.56-.576-1.264-.864-2.112-.864-.832 0-1.528.288-2.088.864-.56.56-.84 1.296-.84 2.208z" fill="#141414"/><rect x="232.5" y="461.5" width="314" height="72" rx="6.5" stroke="#005DED" stroke-width="3"/><path d="M93.272 362.2l-6.72 16.848H84.32L77.41 362.2h3.143l4.992 12.456L90.32 362.2h2.953zm23.9 0l-4.8 16.8h-2.76l-4.056-12.144L101.572 379h-2.784l-5.016-16.8h3.312l3.384 11.976 3.744-11.976h2.928l3.84 12 3.36-12h2.832zm1.429 11.52v-2.568h6.048v2.568h-6.048zm9.864 5.256v-16.728c1.568-.08 3.184-.12 4.848-.12 1.904 0 3.296.384 4.176 1.152.896.752 1.344 1.752 1.344 3 0 1.792-.8 3.064-2.4 3.816v.048c.88.224 1.592.664 2.136 1.32s.816 1.52.816 2.592c0 1.664-.576 2.92-1.728 3.768-1.136.848-2.64 1.272-4.512 1.272-2.032 0-3.592-.04-4.68-.12zm5.04-7.2h-2.088v4.44c.672.08 1.32.12 1.944.12 2.048 0 3.072-.808 3.072-2.424 0-.704-.256-1.232-.768-1.584-.512-.368-1.232-.552-2.16-.552zm-.24-6.888c-.704 0-1.32.024-1.848.072v4.248h1.992c.736 0 1.336-.184 1.8-.552.464-.384.696-.944.696-1.68 0-.672-.24-1.184-.72-1.536-.464-.368-1.104-.552-1.92-.552zM145.245 379h-2.76v-10.8h2.76v6.84l5.04-6.84h2.76V379h-2.76v-6.84l-5.04 6.84zm9.753-8.04v-2.76h9.84v2.76h-3.528V379h-2.76v-8.04h-3.552zm19.959 5.016l.792 1.944c-1.056.896-2.432 1.344-4.128 1.344-1.744 0-3.152-.52-4.224-1.56-1.056-1.04-1.584-2.408-1.584-4.104 0-1.616.52-2.96 1.56-4.032 1.04-1.088 2.424-1.632 4.152-1.632 1.424 0 2.632.472 3.624 1.416.992.928 1.488 2.128 1.488 3.6 0 .608-.056 1.104-.168 1.488h-7.8c.112.8.464 1.424 1.056 1.872.592.432 1.32.648 2.184.648 1.216 0 2.232-.328 3.048-.984zm-3.552-5.736c-1.568 0-2.512.784-2.832 2.352h5.304c.016-.672-.2-1.232-.648-1.68-.448-.448-1.056-.672-1.824-.672zm15.567-8.304l1.44 2.256c-.416.496-.896.848-1.44 1.056-.544.192-1.184.368-1.92.528-.72.144-1.344.344-1.872.6-1.344.624-2.12 1.968-2.328 4.032h.048c.336-.592.856-1.072 1.56-1.44a4.594 4.594 0 012.232-.576c1.488 0 2.68.48 3.576 1.44.896.96 1.344 2.248 1.344 3.864 0 1.552-.528 2.872-1.584 3.96-1.056 1.072-2.416 1.608-4.08 1.608-1.808 0-3.24-.616-4.296-1.848-1.04-1.232-1.56-2.896-1.56-4.992 0-4.624 1.36-7.52 4.08-8.688a9.38 9.38 0 011.968-.576c.704-.144 1.264-.288 1.68-.432a2.628 2.628 0 001.152-.792zM181.044 373c.016 1.072.28 1.96.792 2.664.512.688 1.192 1.032 2.04 1.032.848 0 1.52-.272 2.016-.816.512-.56.768-1.248.768-2.064 0-.832-.232-1.512-.696-2.04-.464-.544-1.12-.816-1.968-.816-.736 0-1.368.192-1.896.576a2.92 2.92 0 00-1.056 1.464zm19.149 2.376l1.296 2.016c-.448.608-1.056 1.072-1.824 1.392-.752.32-1.576.48-2.472.48-1.76 0-3.176-.52-4.248-1.56s-1.608-2.408-1.608-4.104c0-1.6.528-2.944 1.584-4.032s2.392-1.632 4.008-1.632c1.92 0 3.368.488 4.344 1.464l-1.296 2.184c-.72-.704-1.616-1.056-2.688-1.056-.8 0-1.504.288-2.112.864-.592.56-.888 1.296-.888 2.208 0 .928.304 1.68.912 2.256.624.56 1.36.84 2.208.84 1.056 0 1.984-.44 2.784-1.32zm13.735-7.176l-4.152 5.136 4.656 5.664h-3.6l-4.272-5.448 3.888-5.352h3.48zM203.704 379v-10.8h2.76V379h-2.76z" fill="#141414"/><rect x="48.5" y="336.5" width="195" height="72" rx="6.5" stroke="#005DED" stroke-width="3"/><path d="M340.921 362.2l-6.72 16.848h-2.232l-6.912-16.848h3.144l4.992 12.456 4.776-12.456h2.952zm23.9 0l-4.8 16.8h-2.76l-4.056-12.144L349.221 379h-2.784l-5.016-16.8h3.312l3.384 11.976 3.744-11.976h2.928l3.84 12 3.36-12h2.832zm1.429 11.52v-2.568h6.048v2.568h-6.048zm9.863 5.28v-16.8h2.976l5.736 7.848 5.472-7.848h2.784V379h-2.928v-12.144l-5.304 7.464h-.432l-5.352-7.392V379h-2.952zm21.777-1.32c-1.072-1.072-1.608-2.432-1.608-4.08 0-1.648.536-3 1.608-4.056 1.088-1.072 2.512-1.608 4.272-1.608 1.76 0 3.176.536 4.248 1.608 1.088 1.056 1.632 2.408 1.632 4.056 0 1.648-.544 3.008-1.632 4.08-1.072 1.056-2.488 1.584-4.248 1.584-1.76 0-3.184-.528-4.272-1.584zm1.344-4.08c0 .896.272 1.64.816 2.232.56.576 1.264.864 2.112.864.864 0 1.568-.28 2.112-.84.56-.576.84-1.328.84-2.256 0-.896-.28-1.632-.84-2.208-.56-.576-1.264-.864-2.112-.864-.832 0-1.528.288-2.088.864-.56.56-.84 1.296-.84 2.208zm11.197 5.4v-10.8h7.248v2.592h-4.488V379h-2.76zm11.736 0h-2.76v-10.8h2.76v6.84l5.04-6.84h2.76V379h-2.76v-6.84l-5.04 6.84zm17.985 0v-8.04h-2.856l-.072 1.152c-.176 1.936-.472 3.424-.888 4.464-.4 1.04-.912 1.744-1.536 2.112-.608.352-1.424.528-2.448.528l-.24-2.688a1.4 1.4 0 00.984-.288c.32-.24.624-.752.912-1.536.288-.8.472-1.848.552-3.144l.168-3.36h8.184V379h-2.76zm14.305-3.024l.792 1.944c-1.056.896-2.432 1.344-4.128 1.344-1.744 0-3.152-.52-4.224-1.56-1.056-1.04-1.584-2.408-1.584-4.104 0-1.616.52-2.96 1.56-4.032 1.04-1.088 2.424-1.632 4.152-1.632 1.424 0 2.632.472 3.624 1.416.992.928 1.488 2.128 1.488 3.6 0 .608-.056 1.104-.168 1.488h-7.8c.112.8.464 1.424 1.056 1.872.592.432 1.32.648 2.184.648 1.216 0 2.232-.328 3.048-.984zm-3.552-5.736c-1.568 0-2.512.784-2.832 2.352h5.304c.016-.672-.2-1.232-.648-1.68-.448-.448-1.056-.672-1.824-.672zm7.455 8.76v-10.8c.192 0 .544-.008 1.056-.024a51.715 51.715 0 013.192-.096c3.264 0 4.896.944 4.896 2.832 0 .624-.2 1.16-.6 1.608a2.231 2.231 0 01-1.416.792v.048c1.536.368 2.304 1.2 2.304 2.496 0 2.176-1.712 3.264-5.136 3.264a55.3 55.3 0 01-2.28-.072 86.639 86.639 0 00-2.016-.048zm4.488-4.584h-1.728v2.4c1.088.064 1.696.096 1.824.096.608 0 1.08-.112 1.416-.336.352-.224.528-.528.528-.912 0-.832-.68-1.248-2.04-1.248zm0-4.104c-.768 0-1.344.016-1.728.048v2.376h1.8c.48 0 .872-.104 1.176-.312.32-.224.48-.536.48-.936 0-.784-.576-1.176-1.728-1.176z" fill="#141414"/><rect x="296.5" y="336.5" width="201" height="72" rx="6.5" stroke="#005DED" stroke-width="3"/><path d="M595.147 362.2l-6.72 16.848h-2.232l-6.912-16.848h3.144l4.992 12.456 4.776-12.456h2.952zm23.9 0l-4.8 16.8h-2.76l-4.056-12.144L603.447 379h-2.784l-5.016-16.8h3.312l3.384 11.976 3.744-11.976h2.928l3.84 12 3.36-12h2.832zm1.429 11.52v-2.568h6.048v2.568h-6.048zm9.864 5.28v-16.8h2.976l5.736 7.848 5.472-7.848h2.784V379h-2.928v-12.144l-5.304 7.464h-.432l-5.352-7.392V379h-2.952zm23.601 0h-2.76v-10.8h2.76v6.84l5.04-6.84h2.76V379h-2.76v-6.84l-5.04 6.84zm18.368 0v-4.128h-4.728V379h-2.76v-10.8h2.76v4.08h4.728v-4.08h2.76V379h-2.76zm14.009-3.624l1.296 2.016c-.448.608-1.056 1.072-1.824 1.392-.752.32-1.576.48-2.472.48-1.76 0-3.176-.52-4.248-1.56s-1.608-2.408-1.608-4.104c0-1.6.528-2.944 1.584-4.032s2.392-1.632 4.008-1.632c1.92 0 3.368.488 4.344 1.464l-1.296 2.184c-.72-.704-1.616-1.056-2.688-1.056-.8 0-1.504.288-2.112.864-.592.56-.888 1.296-.888 2.208 0 .928.304 1.68.912 2.256.624.56 1.36.84 2.208.84 1.056 0 1.984-.44 2.784-1.32zm13.735-7.176l-4.152 5.136 4.656 5.664h-3.6l-4.272-5.448 3.888-5.352h3.48zM689.829 379v-10.8h2.76V379h-2.76z" fill="#141414"/><rect x="550.5" y="336.5" width="179" height="72" rx="6.5" stroke="#005DED" stroke-width="3"/><path d="M115.077 237.2l-6.72 16.848h-2.232L99.213 237.2h3.144l4.992 12.456 4.776-12.456h2.952zm23.9 0l-4.8 16.8h-2.76l-4.056-12.144L123.377 254h-2.784l-5.016-16.8h3.312l3.384 11.976 3.744-11.976h2.928l3.84 12 3.36-12h2.832zm1.429 11.52v-2.568h6.048v2.568h-6.048zm9.863 5.28v-16.8h9.48v2.76h-6.528V254h-2.952zm8.349 4.8v-15.6h2.76v1.032c.352-.368.824-.672 1.416-.912a4.898 4.898 0 011.92-.384c1.472 0 2.656.512 3.552 1.536.896 1.024 1.344 2.344 1.344 3.96 0 1.68-.528 3.072-1.584 4.176s-2.432 1.656-4.128 1.656c-1.072 0-1.912-.176-2.52-.528v5.064h-2.76zm5.232-13.272c-.944 0-1.768.392-2.472 1.176v4.368c.64.416 1.4.624 2.28.624.928 0 1.664-.296 2.208-.888.544-.608.816-1.376.816-2.304 0-.88-.248-1.592-.744-2.136-.496-.56-1.192-.84-2.088-.84zm9.087 7.152c-1.072-1.072-1.608-2.432-1.608-4.08 0-1.648.536-3 1.608-4.056 1.088-1.072 2.512-1.608 4.272-1.608 1.76 0 3.176.536 4.248 1.608 1.088 1.056 1.632 2.408 1.632 4.056 0 1.648-.544 3.008-1.632 4.08-1.072 1.056-2.488 1.584-4.248 1.584-1.76 0-3.184-.528-4.272-1.584zm1.344-4.08c0 .896.272 1.64.816 2.232.56.576 1.264.864 2.112.864.864 0 1.568-.28 2.112-.84.56-.576.84-1.328.84-2.256 0-.896-.28-1.632-.84-2.208-.56-.576-1.264-.864-2.112-.864-.832 0-1.528.288-2.088.864-.56.56-.84 1.296-.84 2.208zm9.549 7.92v-5.088h1.368c.848-1.12 1.352-3 1.512-5.64l.168-2.592h7.968v8.232h1.8v5.088h-2.592V254h-7.656v2.52h-2.568zm5.544-9.624c-.192 2.096-.624 3.608-1.296 4.536h4.008v-5.64h-2.64l-.072 1.104zM205.95 254v-4.128h-4.728V254h-2.76v-10.8h2.76v4.08h4.728v-4.08h2.76V254h-2.76zm6.76-1.32c-1.072-1.072-1.608-2.432-1.608-4.08 0-1.648.536-3 1.608-4.056 1.088-1.072 2.512-1.608 4.272-1.608 1.76 0 3.176.536 4.248 1.608 1.088 1.056 1.632 2.408 1.632 4.056 0 1.648-.544 3.008-1.632 4.08-1.072 1.056-2.488 1.584-4.248 1.584-1.76 0-3.184-.528-4.272-1.584zm1.344-4.08c0 .896.272 1.64.816 2.232.56.576 1.264.864 2.112.864.864 0 1.568-.28 2.112-.84.56-.576.84-1.328.84-2.256 0-.896-.28-1.632-.84-2.208-.56-.576-1.264-.864-2.112-.864-.832 0-1.528.288-2.088.864-.56.56-.84 1.296-.84 2.208z" fill="#141414"/><rect x="70.5" y="211.5" width="182" height="72" rx="6.5" stroke="#005DED" stroke-width="3"/><path d="M350.163 237.2l-6.72 16.848h-2.232l-6.912-16.848h3.144l4.992 12.456 4.776-12.456h2.952zm23.9 0l-4.8 16.8h-2.76l-4.056-12.144L358.463 254h-2.784l-5.016-16.8h3.312l3.384 11.976 3.744-11.976h2.928l3.84 12 3.36-12h2.832zm1.429 11.52v-2.568h6.048v2.568h-6.048zm9.863 5.28v-16.8h9.816v2.76h-6.864v3.744a15.728 15.728 0 012.256-.144c1.744 0 3.12.456 4.128 1.368 1.008.912 1.512 2.144 1.512 3.696 0 1.744-.568 3.096-1.704 4.056-1.12.944-2.712 1.416-4.776 1.416-.72 0-1.568-.016-2.544-.048a75.485 75.485 0 00-1.824-.048zm4.968-7.68c-.592 0-1.264.048-2.016.144v4.776c.896.064 1.52.096 1.872.096 2.064 0 3.096-.832 3.096-2.496 0-.768-.248-1.376-.744-1.824-.48-.464-1.216-.696-2.208-.696zm8.983 12.48v-15.6h2.76v1.032c.352-.368.824-.672 1.416-.912a4.898 4.898 0 011.92-.384c1.472 0 2.656.512 3.552 1.536.896 1.024 1.344 2.344 1.344 3.96 0 1.68-.528 3.072-1.584 4.176s-2.432 1.656-4.128 1.656c-1.072 0-1.912-.176-2.52-.528v5.064h-2.76zm5.232-13.272c-.944 0-1.768.392-2.472 1.176v4.368c.64.416 1.4.624 2.28.624.928 0 1.664-.296 2.208-.888.544-.608.816-1.376.816-2.304 0-.88-.248-1.592-.744-2.136-.496-.56-1.192-.84-2.088-.84zm16.622 5.448l.792 1.944c-1.056.896-2.432 1.344-4.128 1.344-1.744 0-3.152-.52-4.224-1.56-1.056-1.04-1.584-2.408-1.584-4.104 0-1.616.52-2.96 1.56-4.032 1.04-1.088 2.424-1.632 4.152-1.632 1.424 0 2.632.472 3.624 1.416.992.928 1.488 2.128 1.488 3.6 0 .608-.056 1.104-.168 1.488h-7.8c.112.8.464 1.424 1.056 1.872.592.432 1.32.648 2.184.648 1.216 0 2.232-.328 3.048-.984zm-3.552-5.736c-1.568 0-2.512.784-2.832 2.352h5.304c.016-.672-.2-1.232-.648-1.68-.448-.448-1.056-.672-1.824-.672zm15.569 5.136l1.296 2.016c-.448.608-1.056 1.072-1.824 1.392-.752.32-1.576.48-2.472.48-1.76 0-3.176-.52-4.248-1.56s-1.608-2.408-1.608-4.104c0-1.6.528-2.944 1.584-4.032s2.392-1.632 4.008-1.632c1.92 0 3.368.488 4.344 1.464l-1.296 2.184c-.72-.704-1.616-1.056-2.688-1.056-.8 0-1.504.288-2.112.864-.592.56-.888 1.296-.888 2.208 0 .928.304 1.68.912 2.256.624.56 1.36.84 2.208.84 1.056 0 1.984-.44 2.784-1.32zm2.172-4.416v-2.76h9.84v2.76h-3.528V254h-2.76v-8.04h-3.552z" fill="#141414"/><rect x="305.5" y="211.5" width="169" height="72" rx="6.5" stroke="#005DED" stroke-width="3"/><path d="M572.155 237.2l-6.72 16.848h-2.232l-6.912-16.848h3.144l4.992 12.456 4.776-12.456h2.952zm23.9 0l-4.8 16.8h-2.76l-4.056-12.144L580.455 254h-2.784l-5.016-16.8h3.312l3.384 11.976 3.744-11.976h2.928l3.84 12 3.36-12h2.832zm1.429 11.52v-2.568h6.048v2.568h-6.048zm9.864 5.28v-16.8h9.48v2.76H610.3V254h-2.952zm8.979-1.32c-1.072-1.072-1.608-2.432-1.608-4.08 0-1.648.536-3 1.608-4.056 1.088-1.072 2.512-1.608 4.272-1.608 1.76 0 3.176.536 4.248 1.608 1.088 1.056 1.632 2.408 1.632 4.056 0 1.648-.544 3.008-1.632 4.08-1.072 1.056-2.488 1.584-4.248 1.584-1.76 0-3.184-.528-4.272-1.584zm1.344-4.08c0 .896.272 1.64.816 2.232.56.576 1.264.864 2.112.864.864 0 1.568-.28 2.112-.84.56-.576.84-1.328.84-2.256 0-.896-.28-1.632-.84-2.208-.56-.576-1.264-.864-2.112-.864-.832 0-1.528.288-2.088.864-.56.56-.84 1.296-.84 2.208zm11.197 5.4v-10.8h2.496l3.672 4.512 3.48-4.512h2.424V254h-2.76v-6.6l-3.192 4.032h-.072l-3.288-4.032v6.6h-2.76zm23.613-3.024l.792 1.944c-1.056.896-2.432 1.344-4.128 1.344-1.744 0-3.152-.52-4.224-1.56-1.056-1.04-1.584-2.408-1.584-4.104 0-1.616.52-2.96 1.56-4.032 1.04-1.088 2.424-1.632 4.152-1.632 1.424 0 2.632.472 3.624 1.416.992.928 1.488 2.128 1.488 3.6 0 .608-.056 1.104-.168 1.488h-7.8c.112.8.464 1.424 1.056 1.872.592.432 1.32.648 2.184.648 1.216 0 2.232-.328 3.048-.984zm-3.552-5.736c-1.568 0-2.512.784-2.832 2.352h5.304c.016-.672-.2-1.232-.648-1.68-.448-.448-1.056-.672-1.824-.672zm14.207 8.76v-8.04h-2.856l-.072 1.152c-.176 1.936-.472 3.424-.888 4.464-.4 1.04-.912 1.744-1.536 2.112-.608.352-1.424.528-2.448.528l-.24-2.688a1.4 1.4 0 00.984-.288c.32-.24.624-.752.912-1.536.288-.8.472-1.848.552-3.144l.168-3.36h8.184V254h-2.76zm5.834 0v-10.8h2.76v2.952h1.488c1.696 0 2.912.352 3.648 1.056.736.704 1.104 1.6 1.104 2.688 0 1.168-.4 2.144-1.2 2.928-.8.784-2.056 1.176-3.768 1.176h-4.032zm4.008-5.64h-1.248v3.24h1.224c1.392 0 2.088-.536 2.088-1.608 0-1.088-.688-1.632-2.064-1.632z" fill="#141414"/><rect x="527.5" y="211.5" width="180" height="72" rx="6.5" stroke="#005DED" stroke-width="3"/><path d="M146 159H10a8 8 0 00-8 8v398a8 8 0 008 8h758a8 8 0 008-8V167a8 8 0 00-8-8H642" stroke="#376EE8" stroke-width="3"/></svg>