<svg width="308" height="56" viewBox="0 0 308 56" fill="none" xmlns="http://www.w3.org/2000/svg"><path fill-rule="evenodd" clip-rule="evenodd" d="M91.118.048H68.727c-3.651 0-7.479 2.994-8.579 6.748L48.049 49.21 35.95 6.797C34.895 3.086 31.068.048 27.416.048H4.979C1.328.048-.784 3.087.272 6.796L12.37 49.21c1.056 3.71 4.883 6.75 8.579 6.75h22.393c2.375 0 4.091-1.297 4.707-3.219.616 1.922 2.332 3.218 4.707 3.218H75.15c3.651 0 7.479-2.994 8.535-6.748L95.782 6.795c1.1-3.71-1.012-6.748-4.663-6.748z" fill="url(#paint0_linear)"/><path fill-rule="evenodd" clip-rule="evenodd" d="M38.722.045c-1.803 0-3.827 1.072-5.279 2.637 1.188 1.117 2.112 2.547 2.508 4.067l12.098 42.413L60.147 6.75c.484-1.654 1.32-2.995 2.64-4.157C61.335 1.162 59.619 0 57.904 0H38.722v.045z" fill="url(#paint1_linear)"/><path fill-rule="evenodd" clip-rule="evenodd" d="M79.988 49.251L65.338 6.838c-.44-1.52-1.276-3.084-2.507-4.201-1.364 1.162-2.2 2.637-2.64 4.156L48.05 49.207v.044L35.95 6.838a8.987 8.987 0 00-2.552-4.112c-1.232 1.117-2.156 2.592-2.596 4.112L16.153 49.25C15.01 52.961 17.297 56 21.213 56h22.129c2.375 0 4.09-1.252 4.707-3.173C48.665 54.748 50.38 56 52.756 56h22.129c3.96-.045 6.203-3.04 5.103-6.749z" fill="url(#paint2_linear)"/><path d="M159.821 8.694l-9.236 32.095-8.26-28.861c-.308-1.127-.36-1.715-1.899-1.715h-2.873c-1.488 0-1.591.588-1.899 1.715l-8.311 28.86-9.185-32.094-5.131 1.225 10.57 35.574c.308 1.078.513 1.715 2.001 1.715h2.925c1.488 0 1.693-.637 2-1.715l8.415-28.812 8.466 28.812c.308 1.127.462 1.715 2.001 1.715h2.925c1.539 0 1.693-.588 2.001-1.715l10.518-35.574-5.028-1.225zm24.525 12.593c-2.309-1.225-4.515-1.372-7.388-1.372-2.207 0-5.285.049-7.337.93-4.413 1.96-5.285 7.106-5.285 11.27v3.186c0 4.165.821 8.82 4.669 10.78 2.155 1.078 4.977 1.42 7.696 1.42 2.976 0 7.184-.293 9.544-.734l-.36-3.626c-3.232.44-6.721.588-8.312.588-1.487 0-4.874-.196-6.413-1.421-1.437-1.176-1.898-3.773-1.95-6.91h15.598c2.411 0 3.489-1.126 3.489-2.596v-2.793c.051-4.95-1.898-7.595-3.951-8.722zm-.872 10.437H169.21c0-3.332.565-5.635 2.053-6.958 1.385-1.225 4.156-1.225 5.541-1.225 1.796 0 3.643.147 4.823 1.078 1.283 1.078 1.847 3.038 1.847 6.027v1.078zm27.04-10.731c-2.514-1.078-5.644-1.078-7.902-1.078-1.334 0-4.002.245-6.26.588V8.4h-4.874v32.389c0 5.733 5.028 6.81 11.75 6.81 8.209 0 12.211-1.861 12.211-13.327v-2.548c.051-4.165-.462-8.82-4.925-10.731zm.051 13.622c0 7.84-1.231 9.359-6.824 9.359-2.463 0-4.464-.196-5.593-.833-1.385-.784-1.796-2.058-1.796-3.97V24.375c2.258-.49 5.131-.637 6.465-.637 6.209 0 7.697 1.078 7.697 7.644v3.234h.051zm20.523 9.114c-1.488 0-4.669 0-5.951-1.176-1.488-1.323-1.95-3.675-1.95-6.91v-3.87c0-3.234.41-5.586 1.95-6.91 1.282-1.126 4.412-1.175 5.951-1.175 1.591 0 3.849.098 7.081.588 0 0 .359-3.528.359-3.626-2.36-.392-6.106-.735-8.312-.735-2.103 0-5.079.196-7.234 1.274-3.9 1.96-4.824 6.762-4.824 10.927v3.136c0 4.165.924 8.967 4.824 10.927 2.155 1.078 5.131 1.274 7.234 1.274 2.206 0 6.465-.294 8.876-.735l-.359-3.626a48.57 48.57 0 01-7.645.637zm29.451-22.932c-2.052-.882-4.925-.882-7.131-.882-2.207 0-5.08 0-7.132.882-4.413 1.96-4.926 7.154-4.926 11.319V35.3c0 4.165.462 9.457 4.926 11.319 2.001.882 4.925.882 7.132.882 2.206 0 5.079 0 7.131-.882 4.413-1.96 4.926-7.154 4.926-11.32v-3.184c0-4.165-.513-9.36-4.926-11.32zm0 14.896c0 3.234-.102 5.733-1.59 7.056-1.283 1.176-4.053 1.127-5.541 1.176-1.54 0-4.259 0-5.542-1.176-1.436-1.323-1.539-3.822-1.539-7.056v-3.92c0-3.234.051-5.733 1.539-7.056 1.283-1.127 4.054-1.176 5.542-1.176 1.488 0 4.258.049 5.541 1.176 1.437 1.323 1.59 3.822 1.59 7.056v3.92zm37.198-15.778c-3.95 0-8.774 1.078-10.362 1.47-1.797-1.127-4.207-1.47-6.928-1.47-3.232 0-7.337.539-9.543.93-.719.148-2.36.54-2.36 2.696v23.667h4.874V24.52c1.744-.343 4.156-.784 6.208-.784 4.72 0 6.209 1.568 6.209 5.733v17.738h4.874v-18.13c0-1.813-.257-3.283-.771-4.508 1.95-.392 4.566-.882 6.979-.882 4.669 0 6.209 1.568 6.209 5.733v17.738H308v-18.08c-.051-7.742-4.465-9.163-10.263-9.163z" fill="#231F20"/><defs><linearGradient id="paint0_linear" x1="48.06" y1="40.713" x2="48.06" y2="-2.894" gradientUnits="userSpaceOnUse"><stop stop-color="#C6E9FA"/><stop offset="1" stop-color="#00A0E3"/></linearGradient><linearGradient id="paint1_linear" x1="48.103" y1="35.58" x2="48.103" y2="-1.186" gradientUnits="userSpaceOnUse"><stop stop-color="#FFF100"/><stop offset="1" stop-color="#F48120"/></linearGradient><linearGradient id="paint2_linear" x1="48.061" y1="56.099" x2="48.061" y2="14.205" gradientUnits="userSpaceOnUse"><stop stop-color="#D6DE23"/><stop offset="1" stop-color="#00974A"/></linearGradient></defs></svg>