<svg width="114" height="90" viewBox="0 0 114 90" fill="none" xmlns="http://www.w3.org/2000/svg"><g clip-path="url(#clip0)"><path fill-rule="evenodd" clip-rule="evenodd" d="M28.36 14.747c.13-.098.259-.192.386-.284a2.64 2.64 0 01-.091-.076l-.294.36zm-4.78 5.067a75.376 75.376 0 014.774-5.733C25.717 10.994 27.278 1.159 30.912.168c1.551 2.895 1.72 6.653-1.05 12.312a87.716 87.716 0 013.114-3.057l-.33-.048c0-2.54 9.706-10.326 12.63-6.479-1.963 4.059-5.754 7.412-12.285 6.529a106.827 106.827 0 00-3.73 4.228c-.128.239-.261.482-.4.727 3.685-2.608 6.492-2.66 11.456-1.28-4.159 4.19-10.228 4.361-12.586 2.431a86.49 86.49 0 00-3.983 5.427c3.613-2.65 6.24-3.095 11.021-1.402-3.306 4.108-9.394 4.52-11.951 2.815a68.395 68.395 0 00-3.702 6.488c3.84-3.133 6.637-5.169 11.585-3.417-4.005 6.256-9.648 6.332-12.147 4.577a55.383 55.383 0 00-2.073 5c3.496-2.807 6.246-4.5 10.89-2.855-3.723 5.818-8.864 6.29-11.576 4.917a44.019 44.019 0 00-1.668 7.734c2.983-4.002 5.214-6.678 10.43-6.215-2.364 6.961-7.691 8.506-10.565 7.522a37.026 37.026 0 00.058 7.138l.499-.692c2.788-3.876 5.08-7.06 10.048-6.62-2.306 6.792-7.466 9.251-10.39 8.57.263 1.841.67 3.637 1.212 5.384.277-.378.546-.753.812-1.121 2.788-3.876 5.08-7.06 10.048-6.62-2.366 6.966-7.734 9.374-10.611 8.51a35.55 35.55 0 002.452 5.622l.245-.51.003-.005.001-.004c2.077-4.32 3.783-7.871 8.75-8.34-1.032 6.66-5.188 10.027-8.171 10.307a39.183 39.183 0 002.835 4.089l.037-.13c1.334-4.62 2.43-8.416 7.248-9.74.078 6.446-3.155 10.423-5.968 11.454 1.34 1.534 2.813 3 4.412 4.393l-.032-.676v-.003c-.216-4.478-.394-8.157 3.528-10.33 2.207 6.328.065 10.804-2.392 11.942a54.375 54.375 0 005.05 3.673l-.12-.848v-.002c-.63-4.437-1.146-8.082 2.557-10.627 2.811 6.146 1.028 10.844-1.348 12.162 3.316 2.038 6.972 3.84 10.925 5.382V90c-3.615-1.314-6.942-2.83-9.978-4.521-3.43 5.035-10.097 4.958-15.343 3.376 1.507-4.003 6.792-5.863 12.815-4.867a54.508 54.508 0 01-4.092-2.815c-4.567 4.262-11.143 2.45-15.914-.488 2.437-3.477 7.99-3.914 13.563-1.41a45.962 45.962 0 01-4.114-3.993c-5.211 3.404-11.392.463-15.604-3.272 3.014-3.033 8.654-2.44 13.775 1.115a39.634 39.634 0 01-3.715-5.59c-5.133 3.038-11.125.149-15.239-3.5 3.093-3.11 8.949-2.407 14.172 1.398a36.858 36.858 0 01-1.63-4.1C8.896 63.299 3.536 59.48.102 55.242c3.49-2.508 9.028-.922 13.534 3.54a36.726 36.726 0 01-.667-3.295c-6.242-.285-9.626-6.415-10.934-12.006 4.21-.665 8.495 3.271 10.616 9.32a38.823 38.823 0 01.004-6.307c-5.62-1.938-7.291-8.05-7.291-13.646 3.374.478 6.695 4.206 7.807 9.683a44.51 44.51 0 01.954-4.158c-4.176-2.778-5.043-9.619-4.138-14.639 3.352 1.475 5.75 5.904 5.008 11.863a52.689 52.689 0 013.037-7.018c-4.426-1.657-6.298-11.723-2.312-13.769 2.971 2.332 4.497 6.003 2.9 12.666a62.898 62.898 0 013.907-6.22c-3.875-2.82-2.768-13.19 1.673-13.934 2.1 3.046 2.532 6.884-.62 12.492z" fill="#141414"/></g><g clip-path="url(#clip1)"><path fill-rule="evenodd" clip-rule="evenodd" d="M85.005 14.606c-.13-.097-.258-.19-.385-.282l.091-.076.294.358zm4.781 5.018a74.827 74.827 0 00-4.774-5.679c2.637-3.057 1.076-12.797-2.558-13.777-1.552 2.867-1.72 6.588 1.05 12.193a87.234 87.234 0 00-3.114-3.028c.11-.014.22-.03.33-.047 0-2.516-9.706-10.226-12.63-6.417 1.963 4.02 5.754 7.341 12.285 6.466a106.201 106.201 0 013.73 4.188c.128.237.261.477.4.72-3.686-2.584-6.492-2.635-11.457-1.268 4.16 4.15 10.23 4.32 12.587 2.408a85.727 85.727 0 013.983 5.374c-3.614-2.624-6.24-3.064-11.021-1.388 3.305 4.069 9.394 4.476 11.951 2.788a67.548 67.548 0 013.701 6.426c-3.838-3.104-6.636-5.12-11.584-3.385 4.004 6.196 9.647 6.271 12.147 4.534a54.552 54.552 0 012.072 4.95c-3.495-2.778-6.245-4.455-10.89-2.827 3.724 5.762 8.865 6.231 11.577 4.87a43.236 43.236 0 011.668 7.66c-2.983-3.963-5.214-6.613-10.43-6.155 2.364 6.894 7.69 8.424 10.565 7.45a36.37 36.37 0 01-.058 7.069l-.5-.685c-2.788-3.84-5.079-6.993-10.048-6.556 2.307 6.726 7.467 9.162 10.39 8.486a34.102 34.102 0 01-1.211 5.334c-.277-.375-.547-.746-.812-1.111-2.788-3.839-5.08-6.993-10.048-6.556 2.366 6.899 7.733 9.284 10.61 8.428a35.028 35.028 0 01-2.451 5.567L95 65.152l-.003-.005-.002-.004c-2.076-4.28-3.782-7.796-8.748-8.26 1.03 6.596 5.186 9.93 8.17 10.208a38.791 38.791 0 01-2.835 4.05l-.038-.13c-1.334-4.575-2.43-8.334-7.247-9.646-.078 6.384 3.154 10.323 5.968 11.344a45.526 45.526 0 01-4.412 4.35l.032-.668v-.003c.216-4.435.394-8.079-3.528-10.23-2.208 6.266-.065 10.7 2.391 11.826a54.352 54.352 0 01-5.05 3.637l.12-.839v-.002c.63-4.394 1.147-8.004-2.556-10.525-2.812 6.087-1.029 10.74 1.348 12.045-3.316 2.018-6.972 3.803-10.926 5.33v1.505c3.616-1.302 6.943-2.803 9.979-4.478 3.43 4.987 10.097 4.91 15.343 3.344-1.507-3.965-6.793-5.807-12.815-4.82a54.534 54.534 0 004.091-2.788c4.568 4.221 11.144 2.427 15.915-.484-2.437-3.444-7.99-3.876-13.563-1.396a45.758 45.758 0 004.113-3.955c5.212 3.371 11.393.46 15.605-3.24-3.015-3.004-8.655-2.417-13.775 1.105a39.217 39.217 0 003.715-5.537c5.133 3.01 11.124.147 15.238-3.466-3.092-3.081-8.948-2.384-14.172 1.383a36.31 36.31 0 001.631-4.06c5.479 1.948 10.839-1.833 14.274-6.032-3.49-2.483-9.028-.913-13.534 3.505.272-1.075.495-2.163.667-3.262 6.241-.283 9.626-6.354 10.934-11.891-4.211-.659-8.496 3.24-10.616 9.23a38.093 38.093 0 00-.004-6.246c5.619-1.92 7.291-7.972 7.291-13.515-3.375.474-6.695 4.166-7.807 9.59a43.69 43.69 0 00-.954-4.118c4.175-2.751 5.043-9.526 4.138-14.498-3.352 1.46-5.751 5.847-5.008 11.749a51.938 51.938 0 00-3.037-6.95c4.426-1.641 6.298-11.61 2.311-13.637-2.97 2.31-4.497 5.945-2.9 12.544a62.205 62.205 0 00-3.907-6.16c3.876-2.794 2.768-13.064-1.672-13.8-2.101 3.017-2.532 6.817.62 12.372z" fill="#141414"/></g><defs><clipPath id="clip0"><path fill="#fff" d="M0 0h45.865v90H0z"/></clipPath><clipPath id="clip1"><path fill="#fff" transform="matrix(-1 0 0 1 113.366 0)" d="M0 0h45.865v89.135H0z"/></clipPath></defs></svg>