<svg width="398" height="82" viewBox="0 0 398 82" fill="none" xmlns="http://www.w3.org/2000/svg"><path d="M171.743 20.018v-1.93c0-.482-.241-.965-1.206-.965-.965-.24-3.136-.24-5.066-.24-5.306 0-8.683 1.929-8.683 7.958v34.006c0 .724.482 1.206 1.206 1.206h2.653c.724 0 1.206-.482 1.206-1.206V32.559h8.925c.724 0 .965-.483.965-.965v-1.93c0-.723-.482-.964-.965-.964h-9.166v-3.859c0-3.376.724-3.859 3.859-3.859h5.066c.724-.24 1.206-.482 1.206-.964zm18.091 11.576v-2.653c0-.723-.483-.964-1.206-.964-4.825 0-8.684.24-11.82 1.688-.723.241-.964.723-.964 1.206v27.494c0 .723.482 1.206.964 1.206h2.895c.724 0 .965-.483.965-1.206V33.04c2.171-.482 4.1-.482 7.96-.482 1.206 0 1.206-.241 1.206-.965zm24.845 26.047v-26.77c0-.724-.242-.965-1.206-1.206a49.29 49.29 0 00-10.614-1.206c-8.442 0-12.543 5.547-12.543 13.988v3.859c0 8.441 3.86 13.988 12.543 13.988 3.377 0 7.478-.482 10.614-1.206.964-.482 1.206-.723 1.206-1.447zm-5.066-2.17a52.046 52.046 0 01-6.754.482c-5.548 0-7.477-3.859-7.477-9.888v-3.859c0-6.03 1.688-9.888 7.477-9.888 2.412 0 5.066.241 6.754.482v22.67zm46.313 3.135v-20.5c0-5.788-3.377-9.888-10.131-9.888h-1.206c-3.377 0-5.789.482-7.477 1.93-1.689-1.689-4.101-1.93-7.478-1.93h-1.206c-6.754 0-10.131 4.1-10.131 9.888v20.5c0 .724.482 1.206.965 1.206h2.894c.724 0 .965-.482.965-1.206v-20.5c0-4.824 2.171-5.547 5.066-5.547h1.206c3.618 0 4.824.724 4.824 3.859v22.188c0 .724.482 1.206.965 1.206h2.894c.724 0 .965-.482.965-1.206V36.418c0-3.136 1.206-3.859 4.824-3.859h1.207c3.135 0 5.065.724 5.065 5.547v20.5c0 .724.482 1.206.965 1.206h2.894c1.689 0 1.93-.482 1.93-1.206zm27.98-13.988v-3.136c0-7.958-4.342-13.264-12.543-13.264s-12.784 5.064-12.784 13.265v5.064c0 10.612 6.271 13.747 13.025 13.747 3.86 0 6.996-.24 10.131-.964.965-.242 1.206-.483 1.206-1.206v-1.93c0-.482-.482-.723-.964-.723h-.242c-2.653.482-6.754.723-10.131.723-5.306 0-7.96-2.412-7.96-9.165v-1.205H282.7c.724 0 1.206-.483 1.206-1.206zm-5.065-2.653h-15.197v-.483c0-6.029 2.654-8.923 7.719-8.923 5.066 0 7.478 2.412 7.478 8.924v.482zm46.554 5.547V29.665c0-.724-.482-1.206-1.206-1.206h-2.653c-.724 0-1.206.482-1.206 1.206v17.847c0 6.27-2.413 8.441-6.996 8.441-1.447 0-2.894-.241-4.583-.723V29.665c0-.724-.482-1.206-1.206-1.206h-2.894c-.724 0-1.206.482-1.206 1.206V55.23c-1.689.482-3.136.723-4.583.723-4.825 0-6.995-2.17-6.995-8.441V29.665c0-.724-.483-1.206-1.207-1.206h-2.653c-.723 0-1.206.482-1.206 1.206v17.847c0 10.13 5.548 12.782 11.578 12.782 2.895 0 5.307-.482 7.478-1.447 2.412.965 4.583 1.447 7.477 1.447 6.513 0 12.061-2.653 12.061-12.782zm29.187-1.206v-4.341c0-8.441-4.342-13.747-12.785-13.747-8.442 0-12.784 5.547-12.784 13.747v4.341c0 8.441 4.342 13.747 12.784 13.747 8.443.241 12.785-5.306 12.785-13.747zm-5.066 0c0 5.788-2.412 9.406-7.719 9.406-5.306 0-7.718-3.618-7.718-9.406v-4.341c0-5.788 2.412-9.406 7.718-9.406 5.307 0 7.719 3.618 7.719 9.406v4.341zm22.915-14.712v-2.653c0-.723-.482-.964-1.206-.964-4.824 0-8.683.24-11.819 1.688-.724.241-.965.723-.965 1.206v27.494c0 .723.482 1.206.965 1.206h2.894c.724 0 .965-.483.965-1.206V33.04c2.171-.482 4.101-.482 7.96-.482 1.206 0 1.206-.241 1.206-.965zM398 59.088c0-.24 0-.482-.241-.482l-12.785-15.194 12.544-13.506c.241-.241.241-.482.241-.724 0-.24-.241-.723-.965-.723h-3.618c-.483 0-.724 0-1.206.482l-11.337 12.783V18.329c0-.723-.483-1.206-1.206-1.206h-2.654c-.723 0-1.206.483-1.206 1.206v40.518c0 .724.483 1.206 1.206 1.206h2.654c.723 0 1.206-.482 1.206-1.206V45.341L391.97 59.33c.482.483.723.724 1.206.724h4.1c.483-.241.724-.482.724-.965z" fill="#fff"/><path d="M148.345 58.365V22.43c0-.724-.482-1.206-1.206-1.206h-5.306c-.724 0-1.206.482-1.206 1.206v35.935c0 .723.482 1.206 1.206 1.206h5.306c.724-.241 1.206-.724 1.206-1.206zm-27.498.965V21.465c-2.894 0-7.477 1.93-7.477 6.03V53.3c-1.689.241-4.101.483-5.548.483-4.825 0-6.031-3.377-6.031-7.96v-18.57c-.241-4.582-5.306-5.788-7.477-5.788v24.118c0 8.682 4.342 14.229 13.508 14.229 1.447 0 4.341-.482 5.548-.724v.483c1.206 7.476-7.96 4.582-12.785 4.1-3.618 0-6.03 2.894-6.754 6.27 2.171.724 8.925 1.447 13.749 1.93 8.684.24 13.267-4.583 13.267-12.541zm13.749-.965V22.43c0-.724-.482-1.206-1.206-1.206h-5.307c-.723 0-1.206.482-1.206 1.206v35.935c0 .723.483 1.206 1.206 1.206h5.307c.724-.241 1.206-.724 1.206-1.206zm-3.859-47.27c2.171 0 3.859 1.688 3.859 3.858s-1.688 3.859-3.859 3.859c-2.171 0-3.86-1.688-3.86-3.859 0-1.93 1.689-3.859 3.86-3.859zm13.99 0c2.171 0 3.86 1.688 3.86 3.858s-1.689 3.859-3.86 3.859-3.859-1.688-3.859-3.859c0-1.93 1.688-3.859 3.859-3.859z" fill="#C5CDCF"/><path fill-rule="evenodd" clip-rule="evenodd" d="M48.668 23.023C44.901 12.15 55.913.494 64.972.146 70.4 2.978 75.06 10.413 74.828 20.503c-.712 12.43-9.508 23.143-19.08 33.013-.535-12.035-3.09-19.707-7.08-30.493z" fill="#9BE400"/><path fill-rule="evenodd" clip-rule="evenodd" d="M27.31 81.897c-1.515-12.136 3.413-22.49 8.304-28.802 2.324-2.964 4.11-5.669 5.471-8.16 2.57 1.113 9.476 4.736 13.282 10.618-.553 8.533-6.86 24.062-27.056 26.344z" fill="#3E7FCA"/><path fill-rule="evenodd" clip-rule="evenodd" d="M19.68 35.802C3.604 31.307-.36 17.188.356 7.692c15.61-6.326 32.409.154 42.108 13.66 6.8 9.467 11.059 21.603 11.922 32.195-4.665-6.156-10.558-9.723-18.064-12.517-5.134-1.909-9.876-3.174-16.644-5.228z" fill="#E4B200"/></svg>