<svg width="116" height="32" viewBox="0 0 116 32" fill="none" xmlns="http://www.w3.org/2000/svg">
<path d="M115.207 8.70712C115.598 8.31659 115.598 7.68343 115.207 7.2929L108.843 0.928954C108.453 0.53843 107.819 0.538431 107.429 0.928957C107.038 1.31948 107.038 1.95265 107.429 2.34317L113.086 8.00001L107.429 13.6569C107.038 14.0474 107.038 14.6806 107.429 15.0711C107.819 15.4616 108.453 15.4616 108.843 15.0711L115.207 8.70712ZM1 9.00024L114.5 9.00001L114.5 7.00001L0.999998 7.00024L1 9.00024Z" fill="#E4002B"/>
<path d="M0.292893 23.2929C-0.0976333 23.6834 -0.0976334 24.3166 0.292892 24.7071L6.65687 31.071C7.04739 31.4616 7.68056 31.4616 8.07108 31.071C8.46161 30.6805 8.46161 30.0474 8.07108 29.6568L2.41422 24L8.07105 18.3431C8.46158 17.9526 8.46158 17.3194 8.07105 16.9289C7.68053 16.5384 7.04736 16.5384 6.65684 16.9289L0.292893 23.2929ZM114.5 22.9998L1 23L1 25L114.5 24.9998L114.5 22.9998Z" fill="#E4002B"/>
</svg>
