<svg width="1572" height="110" viewBox="0 0 1572 110" fill="none" xmlns="http://www.w3.org/2000/svg">
<path d="M955.965 44.2L951.165 61H948.405L944.349 48.856L940.365 61H937.581L932.565 44.2H935.877L939.261 56.176L943.005 44.2H945.933L949.773 56.2L953.133 44.2H955.965ZM965.166 56.536C965.166 56.088 965.022 55.696 964.734 55.36C964.462 55.008 964.102 54.712 963.654 54.472C963.206 54.216 962.71 53.976 962.166 53.752C961.638 53.512 961.102 53.248 960.558 52.96C960.014 52.656 959.518 52.328 959.07 51.976C958.622 51.608 958.254 51.136 957.966 50.56C957.694 49.968 957.558 49.304 957.558 48.568C957.558 47.256 958.03 46.16 958.974 45.28C959.934 44.384 961.206 43.936 962.79 43.936C964.902 43.936 966.502 44.536 967.59 45.736L966.006 47.944C965.142 47.112 964.15 46.696 963.03 46.696C962.31 46.696 961.734 46.864 961.302 47.2C960.886 47.536 960.678 47.984 960.678 48.544C960.678 49.088 960.862 49.56 961.23 49.96C961.614 50.36 962.086 50.68 962.646 50.92C963.206 51.144 963.814 51.416 964.47 51.736C965.142 52.056 965.758 52.392 966.318 52.744C966.878 53.08 967.342 53.576 967.71 54.232C968.094 54.872 968.286 55.632 968.286 56.512C968.286 57.904 967.75 59.048 966.678 59.944C965.606 60.824 964.27 61.264 962.67 61.264C961.518 61.264 960.406 61.032 959.334 60.568C958.278 60.088 957.558 59.44 957.174 58.624L958.854 56.608C959.318 57.216 959.902 57.688 960.606 58.024C961.326 58.344 962.03 58.504 962.718 58.504C963.438 58.504 964.022 58.336 964.47 58C964.934 57.648 965.166 57.16 965.166 56.536ZM971.687 61V44.2H971.999C972.319 44.2 973.063 44.192 974.231 44.176C975.399 44.144 976.199 44.128 976.631 44.128C978.263 44.128 979.695 44.352 980.927 44.8C982.159 45.232 983.143 45.84 983.879 46.624C984.615 47.408 985.159 48.288 985.511 49.264C985.879 50.224 986.063 51.28 986.063 52.432C986.063 54.928 985.223 56.992 983.543 58.624C981.879 60.24 979.511 61.048 976.439 61.048C976.151 61.048 975.479 61.04 974.423 61.024C973.383 61.008 972.583 61 972.023 61H971.687ZM976.583 46.888C975.959 46.888 975.311 46.912 974.639 46.96V58.24C975.183 58.272 975.815 58.288 976.535 58.288C978.535 58.288 980.103 57.76 981.239 56.704C982.375 55.648 982.943 54.224 982.943 52.432C982.943 50.72 982.375 49.368 981.239 48.376C980.119 47.384 978.567 46.888 976.583 46.888ZM989.476 61V44.2H992.428V58.24H999.988V61H989.476ZM1001.43 55.72V53.152H1007.48V55.72H1001.43ZM1016.25 65.8V61.264H1016.11C1014.27 61.264 1012.83 60.736 1011.79 59.68C1010.77 58.624 1010.25 57.264 1010.25 55.6C1010.25 54.048 1010.77 52.72 1011.81 51.616C1012.87 50.496 1014.29 49.936 1016.09 49.936H1016.25V44.2H1019.01V49.936H1019.21C1021.01 49.936 1022.43 50.472 1023.45 51.544C1024.49 52.6 1025.01 53.952 1025.01 55.6C1025.01 57.28 1024.52 58.648 1023.53 59.704C1022.53 60.744 1021.09 61.264 1019.21 61.264H1019.01V65.8H1016.25ZM1019.21 52.528H1019.01V58.696H1019.11C1020.07 58.696 1020.8 58.416 1021.29 57.856C1021.81 57.296 1022.06 56.544 1022.06 55.6C1022.06 54.736 1021.81 54.008 1021.32 53.416C1020.84 52.824 1020.13 52.528 1019.21 52.528ZM1013.21 55.6C1013.21 56.528 1013.46 57.28 1013.97 57.856C1014.49 58.416 1015.22 58.696 1016.18 58.696H1016.25V52.528H1016.06C1015.1 52.528 1014.38 52.816 1013.9 53.392C1013.44 53.968 1013.21 54.704 1013.21 55.6ZM1028.24 52.984L1027.55 50.968C1028.72 50.28 1029.99 49.936 1031.36 49.936C1032.9 49.936 1034 50.312 1034.68 51.064C1035.35 51.816 1035.68 52.936 1035.68 54.424V61H1033.28V59.752C1032.63 60.68 1031.56 61.144 1030.09 61.144C1029.08 61.144 1028.27 60.848 1027.64 60.256C1027.02 59.664 1026.71 58.856 1026.71 57.832C1026.71 56.696 1027.08 55.832 1027.81 55.24C1028.55 54.632 1029.49 54.328 1030.64 54.328C1031.64 54.328 1032.45 54.56 1033.09 55.024C1033.12 54.08 1032.99 53.384 1032.68 52.936C1032.38 52.472 1031.84 52.24 1031.08 52.24C1030.28 52.24 1029.33 52.488 1028.24 52.984ZM1031 58.816C1031.93 58.816 1032.63 58.488 1033.09 57.832V56.728C1032.63 56.376 1032 56.2 1031.2 56.2C1030.7 56.2 1030.28 56.32 1029.95 56.56C1029.63 56.784 1029.47 57.112 1029.47 57.544C1029.47 57.944 1029.61 58.256 1029.9 58.48C1030.19 58.704 1030.56 58.816 1031 58.816ZM1041.27 61H1038.51V50.2H1041.27V57.04L1046.31 50.2H1049.07V61H1046.31V54.16L1041.27 61ZM1040.12 44.8H1042.64C1042.64 45.296 1042.74 45.712 1042.93 46.048C1043.14 46.384 1043.46 46.552 1043.89 46.552C1044.27 46.552 1044.56 46.384 1044.75 46.048C1044.94 45.712 1045.04 45.296 1045.04 44.8H1047.56C1047.56 45.888 1047.24 46.784 1046.6 47.488C1045.96 48.176 1045.06 48.52 1043.89 48.52C1042.61 48.52 1041.66 48.184 1041.03 47.512C1040.42 46.824 1040.12 45.92 1040.12 44.8ZM1059.26 61V52.96H1056.4L1056.33 54.112C1056.15 56.048 1055.86 57.536 1055.44 58.576C1055.04 59.616 1054.53 60.32 1053.91 60.688C1053.3 61.04 1052.48 61.216 1051.46 61.216L1051.22 58.528C1051.57 58.56 1051.9 58.464 1052.2 58.24C1052.52 58 1052.83 57.488 1053.11 56.704C1053.4 55.904 1053.59 54.856 1053.67 53.56L1053.83 50.2H1062.02V61H1059.26Z" fill="#141414"/>
<rect x="849.5" y="18.5" width="297" height="72" rx="6.5" stroke="#E4002B" stroke-width="3"/>
<path d="M1322.3 39.536C1322.3 39.088 1322.15 38.696 1321.87 38.36C1321.59 38.008 1321.23 37.712 1320.79 37.472C1320.34 37.216 1319.84 36.976 1319.3 36.752C1318.77 36.512 1318.23 36.248 1317.69 35.96C1317.15 35.656 1316.65 35.328 1316.2 34.976C1315.75 34.608 1315.39 34.136 1315.1 33.56C1314.83 32.968 1314.69 32.304 1314.69 31.568C1314.69 30.256 1315.16 29.16 1316.11 28.28C1317.07 27.384 1318.34 26.936 1319.92 26.936C1322.03 26.936 1323.63 27.536 1324.72 28.736L1323.14 30.944C1322.27 30.112 1321.28 29.696 1320.16 29.696C1319.44 29.696 1318.87 29.864 1318.43 30.2C1318.02 30.536 1317.81 30.984 1317.81 31.544C1317.81 32.088 1317.99 32.56 1318.36 32.96C1318.75 33.36 1319.22 33.68 1319.78 33.92C1320.34 34.144 1320.95 34.416 1321.6 34.736C1322.27 35.056 1322.89 35.392 1323.45 35.744C1324.01 36.08 1324.47 36.576 1324.84 37.232C1325.23 37.872 1325.42 38.632 1325.42 39.512C1325.42 40.904 1324.88 42.048 1323.81 42.944C1322.74 43.824 1321.4 44.264 1319.8 44.264C1318.65 44.264 1317.54 44.032 1316.47 43.568C1315.41 43.088 1314.69 42.44 1314.31 41.624L1315.99 39.608C1316.45 40.216 1317.03 40.688 1317.74 41.024C1318.46 41.344 1319.16 41.504 1319.85 41.504C1320.57 41.504 1321.15 41.336 1321.6 41C1322.07 40.648 1322.3 40.16 1322.3 39.536ZM1328.96 42.68C1327.89 41.608 1327.36 40.248 1327.36 38.6C1327.36 36.952 1327.89 35.6 1328.96 34.544C1330.05 33.472 1331.48 32.936 1333.24 32.936C1335 32.936 1336.41 33.472 1337.48 34.544C1338.57 35.6 1339.12 36.952 1339.12 38.6C1339.12 40.248 1338.57 41.608 1337.48 42.68C1336.41 43.736 1335 44.264 1333.24 44.264C1331.48 44.264 1330.05 43.736 1328.96 42.68ZM1330.31 38.6C1330.31 39.496 1330.58 40.24 1331.12 40.832C1331.68 41.408 1332.39 41.696 1333.24 41.696C1334.1 41.696 1334.8 41.416 1335.35 40.856C1335.91 40.28 1336.19 39.528 1336.19 38.6C1336.19 37.704 1335.91 36.968 1335.35 36.392C1334.79 35.816 1334.08 35.528 1333.24 35.528C1332.4 35.528 1331.71 35.816 1331.15 36.392C1330.59 36.952 1330.31 37.688 1330.31 38.6ZM1342.34 35.984L1341.65 33.968C1342.82 33.28 1344.09 32.936 1345.46 32.936C1347 32.936 1348.1 33.312 1348.78 34.064C1349.45 34.816 1349.78 35.936 1349.78 37.424V44H1347.38V42.752C1346.73 43.68 1345.66 44.144 1344.19 44.144C1343.18 44.144 1342.37 43.848 1341.74 43.256C1341.12 42.664 1340.81 41.856 1340.81 40.832C1340.81 39.696 1341.18 38.832 1341.91 38.24C1342.65 37.632 1343.59 37.328 1344.74 37.328C1345.74 37.328 1346.55 37.56 1347.19 38.024C1347.22 37.08 1347.09 36.384 1346.78 35.936C1346.48 35.472 1345.94 35.24 1345.18 35.24C1344.38 35.24 1343.43 35.488 1342.34 35.984ZM1345.1 41.816C1346.03 41.816 1346.73 41.488 1347.19 40.832V39.728C1346.73 39.376 1346.1 39.2 1345.3 39.2C1344.8 39.2 1344.38 39.32 1344.05 39.56C1343.73 39.784 1343.57 40.112 1343.57 40.544C1343.57 40.944 1343.71 41.256 1344 41.48C1344.29 41.704 1344.66 41.816 1345.1 41.816ZM1352.61 48.8V33.2H1355.37V34.232C1355.73 33.864 1356.2 33.56 1356.79 33.32C1357.4 33.064 1358.04 32.936 1358.71 32.936C1360.18 32.936 1361.37 33.448 1362.26 34.472C1363.16 35.496 1363.61 36.816 1363.61 38.432C1363.61 40.112 1363.08 41.504 1362.02 42.608C1360.97 43.712 1359.59 44.264 1357.89 44.264C1356.82 44.264 1355.98 44.088 1355.37 43.736V48.8H1352.61ZM1357.85 35.528C1356.9 35.528 1356.08 35.92 1355.37 36.704V41.072C1356.01 41.488 1356.77 41.696 1357.65 41.696C1358.58 41.696 1359.32 41.4 1359.86 40.808C1360.41 40.2 1360.68 39.432 1360.68 38.504C1360.68 37.624 1360.43 36.912 1359.93 36.368C1359.44 35.808 1358.74 35.528 1357.85 35.528ZM1366.37 38.72V36.152H1372.42V38.72H1366.37ZM1384.05 40.376L1385.34 42.392C1384.9 43 1384.29 43.464 1383.52 43.784C1382.77 44.104 1381.94 44.264 1381.05 44.264C1379.29 44.264 1377.87 43.744 1376.8 42.704C1375.73 41.664 1375.19 40.296 1375.19 38.6C1375.19 37 1375.72 35.656 1376.78 34.568C1377.83 33.48 1379.17 32.936 1380.78 32.936C1382.7 32.936 1384.15 33.424 1385.13 34.4L1383.83 36.584C1383.11 35.88 1382.22 35.528 1381.14 35.528C1380.34 35.528 1379.64 35.816 1379.03 36.392C1378.44 36.952 1378.14 37.688 1378.14 38.6C1378.14 39.528 1378.45 40.28 1379.06 40.856C1379.68 41.416 1380.42 41.696 1381.26 41.696C1382.32 41.696 1383.25 41.256 1384.05 40.376ZM1395.45 40.976L1396.24 42.92C1395.18 43.816 1393.81 44.264 1392.11 44.264C1390.37 44.264 1388.96 43.744 1387.89 42.704C1386.83 41.664 1386.3 40.296 1386.3 38.6C1386.3 36.984 1386.82 35.64 1387.86 34.568C1388.9 33.48 1390.29 32.936 1392.01 32.936C1393.44 32.936 1394.65 33.408 1395.64 34.352C1396.63 35.28 1397.13 36.48 1397.13 37.952C1397.13 38.56 1397.07 39.056 1396.96 39.44H1389.16C1389.27 40.24 1389.62 40.864 1390.21 41.312C1390.81 41.744 1391.53 41.96 1392.4 41.96C1393.61 41.96 1394.63 41.632 1395.45 40.976ZM1391.89 35.24C1390.33 35.24 1389.38 36.024 1389.06 37.592H1394.37C1394.38 36.92 1394.17 36.36 1393.72 35.912C1393.27 35.464 1392.66 35.24 1391.89 35.24ZM1399.35 48.8V33.2H1402.11V34.232C1402.46 33.864 1402.93 33.56 1403.52 33.32C1404.13 33.064 1404.77 32.936 1405.44 32.936C1406.92 32.936 1408.1 33.448 1409 34.472C1409.89 35.496 1410.34 36.816 1410.34 38.432C1410.34 40.112 1409.81 41.504 1408.76 42.608C1407.7 43.712 1406.32 44.264 1404.63 44.264C1403.56 44.264 1402.72 44.088 1402.11 43.736V48.8H1399.35ZM1404.58 35.528C1403.64 35.528 1402.81 35.92 1402.11 36.704V41.072C1402.75 41.488 1403.51 41.696 1404.39 41.696C1405.32 41.696 1406.05 41.4 1406.6 40.808C1407.14 40.2 1407.41 39.432 1407.41 38.504C1407.41 37.624 1407.16 36.912 1406.67 36.368C1406.17 35.808 1405.48 35.528 1404.58 35.528ZM1412.73 44V33.2C1412.92 33.2 1413.28 33.192 1413.79 33.176C1414.32 33.144 1414.85 33.12 1415.4 33.104C1415.96 33.088 1416.48 33.08 1416.98 33.08C1420.24 33.08 1421.88 34.024 1421.88 35.912C1421.88 36.536 1421.68 37.072 1421.28 37.52C1420.89 37.968 1420.42 38.232 1419.86 38.312V38.36C1421.4 38.728 1422.16 39.56 1422.16 40.856C1422.16 43.032 1420.45 44.12 1417.03 44.12C1416.55 44.12 1415.79 44.096 1414.75 44.048C1413.71 44.016 1413.04 44 1412.73 44ZM1417.22 39.416H1415.49V41.816C1416.58 41.88 1417.19 41.912 1417.32 41.912C1417.92 41.912 1418.4 41.8 1418.73 41.576C1419.08 41.352 1419.26 41.048 1419.26 40.664C1419.26 39.832 1418.58 39.416 1417.22 39.416ZM1417.22 35.312C1416.45 35.312 1415.88 35.328 1415.49 35.36V37.736H1417.29C1417.77 37.736 1418.16 37.632 1418.47 37.424C1418.79 37.2 1418.95 36.888 1418.95 36.488C1418.95 35.704 1418.37 35.312 1417.22 35.312ZM1427.54 44H1424.78V33.2H1427.54V40.04L1432.58 33.2H1435.34V44H1432.58V37.16L1427.54 44ZM1446.6 40.376L1447.9 42.392C1447.45 43 1446.84 43.464 1446.07 43.784C1445.32 44.104 1444.5 44.264 1443.6 44.264C1441.84 44.264 1440.43 43.744 1439.35 42.704C1438.28 41.664 1437.75 40.296 1437.75 38.6C1437.75 37 1438.27 35.656 1439.33 34.568C1440.39 33.48 1441.72 32.936 1443.34 32.936C1445.26 32.936 1446.71 33.424 1447.68 34.4L1446.39 36.584C1445.67 35.88 1444.77 35.528 1443.7 35.528C1442.9 35.528 1442.19 35.816 1441.59 36.392C1440.99 36.952 1440.7 37.688 1440.7 38.6C1440.7 39.528 1441 40.28 1441.61 40.856C1442.23 41.416 1442.97 41.696 1443.82 41.696C1444.87 41.696 1445.8 41.256 1446.6 40.376ZM1462.69 44V39.872H1457.96V44H1455.2V33.2H1457.96V37.28H1462.69V33.2H1465.45V44H1462.69ZM1469.35 35.984L1468.66 33.968C1469.82 33.28 1471.1 32.936 1472.47 32.936C1474.01 32.936 1475.11 33.312 1475.78 34.064C1476.46 34.816 1476.79 35.936 1476.79 37.424V44H1474.39V42.752C1473.74 43.68 1472.67 44.144 1471.2 44.144C1470.19 44.144 1469.38 43.848 1468.75 43.256C1468.13 42.664 1467.82 41.856 1467.82 40.832C1467.82 39.696 1468.18 38.832 1468.92 38.24C1469.66 37.632 1470.6 37.328 1471.75 37.328C1472.74 37.328 1473.56 37.56 1474.2 38.024C1474.23 37.08 1474.1 36.384 1473.79 35.936C1473.49 35.472 1472.95 35.24 1472.18 35.24C1471.38 35.24 1470.44 35.488 1469.35 35.984ZM1472.11 41.816C1473.04 41.816 1473.74 41.488 1474.2 40.832V39.728C1473.74 39.376 1473.1 39.2 1472.3 39.2C1471.81 39.2 1471.39 39.32 1471.06 39.56C1470.74 39.784 1470.58 40.112 1470.58 40.544C1470.58 40.944 1470.72 41.256 1471.01 41.48C1471.3 41.704 1471.66 41.816 1472.11 41.816ZM1488.45 44H1485.5V27.2C1485.79 27.2 1486.55 27.192 1487.78 27.176C1489.03 27.16 1489.86 27.152 1490.28 27.152C1491.46 27.152 1492.48 27.304 1493.35 27.608C1494.23 27.896 1494.91 28.304 1495.39 28.832C1495.87 29.344 1496.22 29.912 1496.44 30.536C1496.67 31.144 1496.78 31.816 1496.78 32.552C1496.78 34.072 1496.24 35.36 1495.15 36.416C1494.06 37.472 1492.56 38 1490.64 38C1489.66 38 1488.93 37.976 1488.45 37.928V44ZM1490.56 29.912C1490.21 29.912 1489.51 29.928 1488.45 29.96V35.12C1489.22 35.2 1489.92 35.24 1490.54 35.24C1491.47 35.24 1492.22 35.016 1492.8 34.568C1493.37 34.104 1493.66 33.424 1493.66 32.528C1493.66 30.784 1492.63 29.912 1490.56 29.912ZM1510.83 44V36.824H1503.15V44H1500.2V27.2H1503.15V34.064H1510.83V27.2H1513.76V44H1510.83ZM1521.36 44H1518.41V27.2C1518.69 27.2 1519.45 27.192 1520.69 27.176C1521.93 27.16 1522.77 27.152 1523.18 27.152C1524.37 27.152 1525.39 27.304 1526.25 27.608C1527.13 27.896 1527.81 28.304 1528.29 28.832C1528.77 29.344 1529.13 29.912 1529.35 30.536C1529.57 31.144 1529.69 31.816 1529.69 32.552C1529.69 34.072 1529.14 35.36 1528.05 36.416C1526.97 37.472 1525.46 38 1523.54 38C1522.57 38 1521.84 37.976 1521.36 37.928V44ZM1523.47 29.912C1523.12 29.912 1522.41 29.928 1521.36 29.96V35.12C1522.13 35.2 1522.82 35.24 1523.45 35.24C1524.37 35.24 1525.13 35.016 1525.7 34.568C1526.28 34.104 1526.57 33.424 1526.57 32.528C1526.57 30.784 1525.53 29.912 1523.47 29.912ZM1317.32 79H1314.56V68.2H1317.32V75.04L1322.36 68.2H1325.12V79H1322.36V72.16L1317.32 79ZM1335.31 79V70.96H1332.45L1332.38 72.112C1332.2 74.048 1331.91 75.536 1331.49 76.576C1331.09 77.616 1330.58 78.32 1329.96 78.688C1329.35 79.04 1328.53 79.216 1327.51 79.216L1327.27 76.528C1327.62 76.56 1327.95 76.464 1328.25 76.24C1328.57 76 1328.88 75.488 1329.16 74.704C1329.45 73.904 1329.64 72.856 1329.72 71.56L1329.88 68.2H1338.07V79H1335.31ZM1343.9 79H1341.14V68.2H1343.9V75.04L1348.94 68.2H1351.7V79H1348.94V72.16L1343.9 79ZM1359.87 79V68.2H1362.36L1366.04 72.712L1369.52 68.2H1371.94V79H1369.18V72.4L1365.99 76.432H1365.92L1362.63 72.4V79H1359.87ZM1375.94 77.68C1374.87 76.608 1374.34 75.248 1374.34 73.6C1374.34 71.952 1374.87 70.6 1375.94 69.544C1377.03 68.472 1378.46 67.936 1380.22 67.936C1381.98 67.936 1383.39 68.472 1384.46 69.544C1385.55 70.6 1386.1 71.952 1386.1 73.6C1386.1 75.248 1385.55 76.608 1384.46 77.68C1383.39 78.736 1381.98 79.264 1380.22 79.264C1378.46 79.264 1377.03 78.736 1375.94 77.68ZM1377.29 73.6C1377.29 74.496 1377.56 75.24 1378.1 75.832C1378.66 76.408 1379.37 76.696 1380.22 76.696C1381.08 76.696 1381.78 76.416 1382.33 75.856C1382.89 75.28 1383.17 74.528 1383.17 73.6C1383.17 72.704 1382.89 71.968 1382.33 71.392C1381.77 70.816 1381.06 70.528 1380.22 70.528C1379.38 70.528 1378.69 70.816 1378.13 71.392C1377.57 71.952 1377.29 72.688 1377.29 73.6ZM1386.84 81.52V76.432H1388.21C1389.05 75.312 1389.56 73.432 1389.72 70.792L1389.89 68.2H1397.85V76.432H1399.65V81.52H1397.06V79H1389.41V81.52H1386.84ZM1392.38 71.896C1392.19 73.992 1391.76 75.504 1391.09 76.432H1395.09V70.792H1392.45L1392.38 71.896ZM1411.89 68.2L1407.64 79C1406.87 80.872 1406.18 82.136 1405.57 82.792C1404.98 83.464 1404.28 83.8 1403.46 83.8C1402.68 83.8 1401.9 83.52 1401.13 82.96L1402.02 80.872C1402.45 81.128 1402.83 81.256 1403.15 81.256C1403.81 81.256 1404.36 80.696 1404.81 79.576L1405.05 79L1400.05 68.2H1403.37L1405.89 74.104C1405.98 74.344 1406.16 74.864 1406.41 75.664C1406.54 74.96 1406.67 74.432 1406.8 74.08L1408.74 68.2H1411.89ZM1419.73 79V70.96H1416.87L1416.8 72.112C1416.63 74.048 1416.33 75.536 1415.91 76.576C1415.51 77.616 1415 78.32 1414.38 78.688C1413.77 79.04 1412.95 79.216 1411.93 79.216L1411.69 76.528C1412.04 76.56 1412.37 76.464 1412.67 76.24C1412.99 76 1413.3 75.488 1413.59 74.704C1413.87 73.904 1414.06 72.856 1414.14 71.56L1414.31 68.2H1422.49V79H1419.73ZM1434.04 75.976L1434.83 77.92C1433.77 78.816 1432.4 79.264 1430.7 79.264C1428.96 79.264 1427.55 78.744 1426.48 77.704C1425.42 76.664 1424.89 75.296 1424.89 73.6C1424.89 71.984 1425.41 70.64 1426.45 69.568C1427.49 68.48 1428.88 67.936 1430.6 67.936C1432.03 67.936 1433.24 68.408 1434.23 69.352C1435.22 70.28 1435.72 71.48 1435.72 72.952C1435.72 73.56 1435.66 74.056 1435.55 74.44H1427.75C1427.86 75.24 1428.21 75.864 1428.8 76.312C1429.4 76.744 1430.12 76.96 1430.99 76.96C1432.2 76.96 1433.22 76.632 1434.04 75.976ZM1430.48 70.24C1428.92 70.24 1427.97 71.024 1427.65 72.592H1432.96C1432.97 71.92 1432.76 71.36 1432.31 70.912C1431.86 70.464 1431.25 70.24 1430.48 70.24ZM1443.82 79V62.2H1453.63V64.96H1446.77V68.704C1447.42 68.608 1448.18 68.56 1449.02 68.56C1450.77 68.56 1452.14 69.016 1453.15 69.928C1454.16 70.84 1454.66 72.072 1454.66 73.624C1454.66 75.368 1454.1 76.72 1452.96 77.68C1451.84 78.624 1450.25 79.096 1448.18 79.096C1447.46 79.096 1446.62 79.08 1445.64 79.048C1444.68 79.016 1444.07 79 1443.82 79ZM1448.78 71.32C1448.19 71.32 1447.52 71.368 1446.77 71.464V76.24C1447.66 76.304 1448.29 76.336 1448.64 76.336C1450.7 76.336 1451.74 75.504 1451.74 73.84C1451.74 73.072 1451.49 72.464 1450.99 72.016C1450.51 71.552 1449.78 71.32 1448.78 71.32ZM1460.53 79H1457.77V68.2H1460.53V75.04L1465.57 68.2H1468.33V79H1465.57V72.16L1460.53 79ZM1470.28 70.96V68.2H1480.12V70.96H1476.59V79H1473.83V70.96H1470.28ZM1482.09 83.8V68.2H1484.85V69.232C1485.21 68.864 1485.68 68.56 1486.27 68.32C1486.88 68.064 1487.52 67.936 1488.19 67.936C1489.66 67.936 1490.85 68.448 1491.74 69.472C1492.64 70.496 1493.09 71.816 1493.09 73.432C1493.09 75.112 1492.56 76.504 1491.5 77.608C1490.45 78.712 1489.07 79.264 1487.37 79.264C1486.3 79.264 1485.46 79.088 1484.85 78.736V83.8H1482.09ZM1487.33 70.528C1486.38 70.528 1485.56 70.92 1484.85 71.704V76.072C1485.49 76.488 1486.25 76.696 1487.13 76.696C1488.06 76.696 1488.8 76.4 1489.34 75.808C1489.89 75.2 1490.16 74.432 1490.16 73.504C1490.16 72.624 1489.91 71.912 1489.41 71.368C1488.92 70.808 1488.22 70.528 1487.33 70.528ZM1498.24 79H1495.48V68.2H1498.24V75.04L1503.28 68.2H1506.04V79H1503.28V72.16L1498.24 79ZM1519.34 68.2L1515.19 73.336L1519.85 79H1516.25L1511.97 73.552L1515.86 68.2H1519.34ZM1509.12 79V68.2H1511.88V79H1509.12ZM1529 75.376L1530.29 77.392C1529.85 78 1529.24 78.464 1528.47 78.784C1527.72 79.104 1526.89 79.264 1526 79.264C1524.24 79.264 1522.82 78.744 1521.75 77.704C1520.68 76.664 1520.14 75.296 1520.14 73.6C1520.14 72 1520.67 70.656 1521.73 69.568C1522.78 68.48 1524.12 67.936 1525.73 67.936C1527.65 67.936 1529.1 68.424 1530.08 69.4L1528.78 71.584C1528.06 70.88 1527.17 70.528 1526.09 70.528C1525.29 70.528 1524.59 70.816 1523.98 71.392C1523.39 71.952 1523.09 72.688 1523.09 73.6C1523.09 74.528 1523.4 75.28 1524.01 75.856C1524.63 76.416 1525.37 76.696 1526.21 76.696C1527.27 76.696 1528.2 76.256 1529 75.376Z" fill="#141414"/>
<rect x="1273.5" y="1.5" width="297" height="107" rx="6.5" stroke="#E4002B" stroke-width="3"/>
<path d="M414 54L404 48.2265L404 59.7735L414 54ZM310 55L405 55L405 53L310 53L310 55Z" fill="#C5CDCF"/>
<path d="M838 54L828 48.2265L828 59.7735L838 54ZM734 55L829 55L829 53L734 53L734 55Z" fill="#C5CDCF"/>
<path d="M1262 54L1252 48.2265L1252 59.7735L1262 54ZM1158 55L1253 55L1253 53L1158 53L1158 55Z" fill="#C5CDCF"/>
<path d="M472.406 44V27.2H482.126V29.96H475.358V34.136H481.406V36.896H475.358V41.24H482.366V44H472.406ZM484.123 46.52V41.432H485.491C486.339 40.312 486.843 38.432 487.003 35.792L487.171 33.2H495.139V41.432H496.939V46.52H494.347V44H486.691V46.52H484.123ZM489.667 36.896C489.475 38.992 489.043 40.504 488.371 41.432H492.379V35.792H489.739L489.667 36.896ZM501.515 44H498.755V33.2H501.515V40.04L506.555 33.2H509.315V44H506.555V37.16L501.515 44ZM519.883 44V39.872H515.155V44H512.395V33.2H515.155V37.28H519.883V33.2H522.643V44H519.883ZM526.548 35.984L525.852 33.968C527.02 33.28 528.292 32.936 529.668 32.936C531.204 32.936 532.308 33.312 532.98 34.064C533.652 34.816 533.988 35.936 533.988 37.424V44H531.588V42.752C530.932 43.68 529.868 44.144 528.396 44.144C527.388 44.144 526.572 43.848 525.948 43.256C525.324 42.664 525.012 41.856 525.012 40.832C525.012 39.696 525.38 38.832 526.116 38.24C526.852 37.632 527.796 37.328 528.948 37.328C529.94 37.328 530.756 37.56 531.396 38.024C531.428 37.08 531.292 36.384 530.988 35.936C530.684 35.472 530.148 35.24 529.38 35.24C528.58 35.24 527.636 35.488 526.548 35.984ZM529.308 41.816C530.236 41.816 530.932 41.488 531.396 40.832V39.728C530.932 39.376 530.3 39.2 529.5 39.2C529.004 39.2 528.588 39.32 528.252 39.56C527.932 39.784 527.772 40.112 527.772 40.544C527.772 40.944 527.916 41.256 528.204 41.48C528.492 41.704 528.86 41.816 529.308 41.816ZM542.097 33.2H545.625V44H542.865V40.76H541.329L539.097 44H535.929L538.809 40.16C538.265 39.968 537.777 39.608 537.345 39.08C536.929 38.536 536.721 37.856 536.721 37.04C536.721 35.904 537.153 34.984 538.017 34.28C538.897 33.56 540.257 33.2 542.097 33.2ZM539.673 37.232C539.673 37.664 539.849 38.024 540.201 38.312C540.569 38.584 540.977 38.72 541.425 38.72H542.865V35.6H541.641C541.017 35.6 540.529 35.76 540.177 36.08C539.841 36.4 539.673 36.784 539.673 37.232ZM552.658 35.96V33.2H562.498V35.96H558.97V44H556.21V35.96H552.658ZM565.081 42.68C564.009 41.608 563.473 40.248 563.473 38.6C563.473 36.952 564.009 35.6 565.081 34.544C566.169 33.472 567.593 32.936 569.353 32.936C571.113 32.936 572.529 33.472 573.601 34.544C574.689 35.6 575.233 36.952 575.233 38.6C575.233 40.248 574.689 41.608 573.601 42.68C572.529 43.736 571.113 44.264 569.353 44.264C567.593 44.264 566.169 43.736 565.081 42.68ZM566.425 38.6C566.425 39.496 566.697 40.24 567.241 40.832C567.801 41.408 568.505 41.696 569.353 41.696C570.217 41.696 570.921 41.416 571.465 40.856C572.025 40.28 572.305 39.528 572.305 38.6C572.305 37.704 572.025 36.968 571.465 36.392C570.905 35.816 570.201 35.528 569.353 35.528C568.521 35.528 567.825 35.816 567.265 36.392C566.705 36.952 566.425 37.688 566.425 38.6ZM586.334 33.2V44H583.574V40.28C582.79 40.696 581.894 40.904 580.886 40.904C579.526 40.904 578.534 40.552 577.91 39.848C577.286 39.128 576.974 38.064 576.974 36.656V33.2H579.926V36.32C579.926 37.648 580.51 38.312 581.678 38.312C582.446 38.312 583.078 38.168 583.574 37.88V33.2H586.334ZM599.635 33.2L595.483 38.336L600.139 44H596.539L592.267 38.552L596.155 33.2H599.635ZM589.411 44V33.2H592.171V44H589.411ZM602.603 35.984L601.907 33.968C603.075 33.28 604.347 32.936 605.723 32.936C607.259 32.936 608.363 33.312 609.035 34.064C609.707 34.816 610.043 35.936 610.043 37.424V44H607.643V42.752C606.987 43.68 605.923 44.144 604.451 44.144C603.443 44.144 602.627 43.848 602.003 43.256C601.379 42.664 601.067 41.856 601.067 40.832C601.067 39.696 601.435 38.832 602.171 38.24C602.907 37.632 603.851 37.328 605.003 37.328C605.995 37.328 606.811 37.56 607.451 38.024C607.483 37.08 607.347 36.384 607.043 35.936C606.739 35.472 606.203 35.24 605.435 35.24C604.635 35.24 603.691 35.488 602.603 35.984ZM605.363 41.816C606.291 41.816 606.987 41.488 607.451 40.832V39.728C606.987 39.376 606.355 39.2 605.555 39.2C605.059 39.2 604.643 39.32 604.307 39.56C603.987 39.784 603.827 40.112 603.827 40.544C603.827 40.944 603.971 41.256 604.259 41.48C604.547 41.704 604.915 41.816 605.363 41.816ZM617.958 44V33.2C618.15 33.2 618.502 33.192 619.014 33.176C619.542 33.144 620.078 33.12 620.622 33.104C621.182 33.088 621.71 33.08 622.206 33.08C625.47 33.08 627.102 34.024 627.102 35.912C627.102 36.536 626.902 37.072 626.502 37.52C626.118 37.968 625.646 38.232 625.086 38.312V38.36C626.622 38.728 627.39 39.56 627.39 40.856C627.39 43.032 625.678 44.12 622.254 44.12C621.774 44.12 621.014 44.096 619.974 44.048C618.934 44.016 618.262 44 617.958 44ZM622.446 39.416H620.718V41.816C621.806 41.88 622.414 41.912 622.542 41.912C623.15 41.912 623.622 41.8 623.958 41.576C624.31 41.352 624.486 41.048 624.486 40.664C624.486 39.832 623.806 39.416 622.446 39.416ZM622.446 35.312C621.678 35.312 621.102 35.328 620.718 35.36V37.736H622.518C622.998 37.736 623.39 37.632 623.694 37.424C624.014 37.2 624.174 36.888 624.174 36.488C624.174 35.704 623.598 35.312 622.446 35.312ZM640.325 33.2L636.725 38.36L640.565 44H637.205L634.685 40.112L632.069 44H628.877L632.717 38.504L629.117 33.2H632.501L634.781 36.776L637.133 33.2H640.325ZM642.824 42.68C641.752 41.608 641.216 40.248 641.216 38.6C641.216 36.952 641.752 35.6 642.824 34.544C643.912 33.472 645.336 32.936 647.096 32.936C648.856 32.936 650.272 33.472 651.344 34.544C652.432 35.6 652.976 36.952 652.976 38.6C652.976 40.248 652.432 41.608 651.344 42.68C650.272 43.736 648.856 44.264 647.096 44.264C645.336 44.264 643.912 43.736 642.824 42.68ZM644.168 38.6C644.168 39.496 644.44 40.24 644.984 40.832C645.544 41.408 646.248 41.696 647.096 41.696C647.96 41.696 648.664 41.416 649.208 40.856C649.768 40.28 650.048 39.528 650.048 38.6C650.048 37.704 649.768 36.968 649.208 36.392C648.648 35.816 647.944 35.528 647.096 35.528C646.264 35.528 645.568 35.816 645.008 36.392C644.448 36.952 644.168 37.688 644.168 38.6ZM653.717 46.52V41.432H655.085C655.933 40.312 656.437 38.432 656.597 35.792L656.765 33.2H664.733V41.432H666.533V46.52H663.941V44H656.285V46.52H653.717ZM659.261 36.896C659.069 38.992 658.637 40.504 657.965 41.432H661.973V35.792H659.333L659.261 36.896ZM669.189 35.984L668.493 33.968C669.661 33.28 670.933 32.936 672.309 32.936C673.845 32.936 674.949 33.312 675.621 34.064C676.293 34.816 676.629 35.936 676.629 37.424V44H674.229V42.752C673.573 43.68 672.509 44.144 671.037 44.144C670.029 44.144 669.213 43.848 668.589 43.256C667.965 42.664 667.653 41.856 667.653 40.832C667.653 39.696 668.021 38.832 668.757 38.24C669.493 37.632 670.437 37.328 671.589 37.328C672.581 37.328 673.397 37.56 674.037 38.024C674.069 37.08 673.933 36.384 673.629 35.936C673.325 35.472 672.789 35.24 672.021 35.24C671.221 35.24 670.277 35.488 669.189 35.984ZM671.949 41.816C672.877 41.816 673.573 41.488 674.037 40.832V39.728C673.573 39.376 672.941 39.2 672.141 39.2C671.645 39.2 671.229 39.32 670.893 39.56C670.573 39.784 670.413 40.112 670.413 40.544C670.413 40.944 670.557 41.256 670.845 41.48C671.133 41.704 671.501 41.816 671.949 41.816ZM481.451 81.52V76.432H482.819C483.667 75.312 484.171 73.432 484.331 70.792L484.499 68.2H492.467V76.432H494.267V81.52H491.675V79H484.019V81.52H481.451ZM486.995 71.896C486.803 73.992 486.371 75.504 485.699 76.432H489.707V70.792H487.067L486.995 71.896ZM503.187 79V70.96H500.331L500.259 72.112C500.083 74.048 499.787 75.536 499.371 76.576C498.971 77.616 498.459 78.32 497.835 78.688C497.227 79.04 496.411 79.216 495.387 79.216L495.147 76.528C495.499 76.56 495.827 76.464 496.131 76.24C496.451 76 496.755 75.488 497.043 74.704C497.331 73.904 497.515 72.856 497.595 71.56L497.763 68.2H505.947V79H503.187ZM514.3 68.2H517.828V79H515.068V75.76H513.532L511.3 79H508.132L511.012 75.16C510.468 74.968 509.98 74.608 509.548 74.08C509.132 73.536 508.924 72.856 508.924 72.04C508.924 70.904 509.356 69.984 510.22 69.28C511.1 68.56 512.46 68.2 514.3 68.2ZM511.876 72.232C511.876 72.664 512.052 73.024 512.404 73.312C512.772 73.584 513.18 73.72 513.628 73.72H515.068V70.6H513.844C513.22 70.6 512.732 70.76 512.38 71.08C512.044 71.4 511.876 71.784 511.876 72.232ZM525.989 79V68.2C526.181 68.2 526.533 68.192 527.045 68.176C527.573 68.144 528.109 68.12 528.653 68.104C529.213 68.088 529.741 68.08 530.237 68.08C533.501 68.08 535.133 69.024 535.133 70.912C535.133 71.536 534.933 72.072 534.533 72.52C534.149 72.968 533.677 73.232 533.117 73.312V73.36C534.653 73.728 535.421 74.56 535.421 75.856C535.421 78.032 533.709 79.12 530.285 79.12C529.805 79.12 529.045 79.096 528.005 79.048C526.965 79.016 526.293 79 525.989 79ZM530.477 74.416H528.749V76.816C529.837 76.88 530.445 76.912 530.573 76.912C531.181 76.912 531.653 76.8 531.989 76.576C532.341 76.352 532.517 76.048 532.517 75.664C532.517 74.832 531.837 74.416 530.477 74.416ZM530.477 70.312C529.709 70.312 529.133 70.328 528.749 70.36V72.736H530.549C531.029 72.736 531.421 72.632 531.725 72.424C532.045 72.2 532.205 71.888 532.205 71.488C532.205 70.704 531.629 70.312 530.477 70.312ZM546.22 75.376L547.516 77.392C547.068 78 546.46 78.464 545.692 78.784C544.94 79.104 544.116 79.264 543.22 79.264C541.46 79.264 540.044 78.744 538.972 77.704C537.9 76.664 537.364 75.296 537.364 73.6C537.364 72 537.892 70.656 538.948 69.568C540.004 68.48 541.34 67.936 542.956 67.936C544.876 67.936 546.324 68.424 547.3 69.4L546.004 71.584C545.284 70.88 544.388 70.528 543.316 70.528C542.516 70.528 541.812 70.816 541.204 71.392C540.612 71.952 540.316 72.688 540.316 73.6C540.316 74.528 540.62 75.28 541.228 75.856C541.852 76.416 542.588 76.696 543.436 76.696C544.492 76.696 545.42 76.256 546.22 75.376ZM557.617 75.976L558.409 77.92C557.353 78.816 555.977 79.264 554.281 79.264C552.537 79.264 551.129 78.744 550.057 77.704C549.001 76.664 548.473 75.296 548.473 73.6C548.473 71.984 548.993 70.64 550.033 69.568C551.073 68.48 552.457 67.936 554.185 67.936C555.609 67.936 556.817 68.408 557.809 69.352C558.801 70.28 559.297 71.48 559.297 72.952C559.297 73.56 559.241 74.056 559.129 74.44H551.329C551.441 75.24 551.793 75.864 552.385 76.312C552.977 76.744 553.705 76.96 554.569 76.96C555.785 76.96 556.801 76.632 557.617 75.976ZM554.065 70.24C552.497 70.24 551.553 71.024 551.233 72.592H556.537C556.553 71.92 556.337 71.36 555.889 70.912C555.441 70.464 554.833 70.24 554.065 70.24ZM571.278 68.2L567.678 73.36L571.518 79H568.158L565.638 75.112L563.022 79H559.83L563.67 73.504L560.07 68.2H563.454L565.734 71.776L568.086 68.2H571.278ZM578.583 79V68.2H581.079L584.751 72.712L588.231 68.2H590.655V79H587.895V72.4L584.703 76.432H584.631L581.343 72.4V79H578.583ZM602.196 75.976L602.988 77.92C601.932 78.816 600.556 79.264 598.86 79.264C597.116 79.264 595.708 78.744 594.636 77.704C593.58 76.664 593.052 75.296 593.052 73.6C593.052 71.984 593.572 70.64 594.612 69.568C595.652 68.48 597.036 67.936 598.764 67.936C600.188 67.936 601.396 68.408 602.388 69.352C603.38 70.28 603.876 71.48 603.876 72.952C603.876 73.56 603.82 74.056 603.708 74.44H595.908C596.02 75.24 596.372 75.864 596.964 76.312C597.556 76.744 598.284 76.96 599.148 76.96C600.364 76.96 601.38 76.632 602.196 75.976ZM598.644 70.24C597.076 70.24 596.132 71.024 595.812 72.592H601.116C601.132 71.92 600.916 71.36 600.468 70.912C600.02 70.464 599.412 70.24 598.644 70.24ZM604.853 70.96V68.2H614.693V70.96H611.165V79H608.405V70.96H604.853ZM617.277 77.68C616.205 76.608 615.669 75.248 615.669 73.6C615.669 71.952 616.205 70.6 617.277 69.544C618.365 68.472 619.789 67.936 621.549 67.936C623.309 67.936 624.725 68.472 625.797 69.544C626.885 70.6 627.429 71.952 627.429 73.6C627.429 75.248 626.885 76.608 625.797 77.68C624.725 78.736 623.309 79.264 621.549 79.264C619.789 79.264 618.365 78.736 617.277 77.68ZM618.621 73.6C618.621 74.496 618.893 75.24 619.437 75.832C619.997 76.408 620.701 76.696 621.549 76.696C622.413 76.696 623.117 76.416 623.661 75.856C624.221 75.28 624.501 74.528 624.501 73.6C624.501 72.704 624.221 71.968 623.661 71.392C623.101 70.816 622.397 70.528 621.549 70.528C620.717 70.528 620.021 70.816 619.461 71.392C618.901 71.952 618.621 72.688 618.621 73.6ZM628.17 81.52V76.432H629.538C630.386 75.312 630.89 73.432 631.05 70.792L631.218 68.2H639.186V76.432H640.986V81.52H638.394V79H630.738V81.52H628.17ZM633.714 71.896C633.522 73.992 633.09 75.504 632.418 76.432H636.426V70.792H633.786L633.714 71.896ZM643.738 77.68C642.666 76.608 642.13 75.248 642.13 73.6C642.13 71.952 642.666 70.6 643.738 69.544C644.826 68.472 646.25 67.936 648.01 67.936C649.77 67.936 651.186 68.472 652.258 69.544C653.346 70.6 653.89 71.952 653.89 73.6C653.89 75.248 653.346 76.608 652.258 77.68C651.186 78.736 649.77 79.264 648.01 79.264C646.25 79.264 644.826 78.736 643.738 77.68ZM645.082 73.6C645.082 74.496 645.354 75.24 645.898 75.832C646.458 76.408 647.162 76.696 648.01 76.696C648.874 76.696 649.578 76.416 650.122 75.856C650.682 75.28 650.962 74.528 650.962 73.6C650.962 72.704 650.682 71.968 650.122 71.392C649.562 70.816 648.858 70.528 648.01 70.528C647.178 70.528 646.482 70.816 645.922 71.392C645.362 71.952 645.082 72.688 645.082 73.6ZM656.278 79V68.2C656.47 68.2 656.822 68.192 657.334 68.176C657.862 68.144 658.398 68.12 658.942 68.104C659.502 68.088 660.03 68.08 660.526 68.08C663.79 68.08 665.422 69.024 665.422 70.912C665.422 71.536 665.222 72.072 664.822 72.52C664.438 72.968 663.966 73.232 663.406 73.312V73.36C664.942 73.728 665.71 74.56 665.71 75.856C665.71 78.032 663.998 79.12 660.574 79.12C660.094 79.12 659.334 79.096 658.294 79.048C657.254 79.016 656.582 79 656.278 79ZM660.766 74.416H659.038V76.816C660.126 76.88 660.734 76.912 660.862 76.912C661.47 76.912 661.942 76.8 662.278 76.576C662.63 76.352 662.806 76.048 662.806 75.664C662.806 74.832 662.126 74.416 660.766 74.416ZM660.766 70.312C659.998 70.312 659.422 70.328 659.038 70.36V72.736H660.838C661.318 72.736 661.71 72.632 662.014 72.424C662.334 72.2 662.494 71.888 662.494 71.488C662.494 70.704 661.918 70.312 660.766 70.312Z" fill="#141414"/>
<rect x="425.5" y="1.5" width="297" height="107" rx="6.5" stroke="#E4002B" stroke-width="3"/>
<path d="M109.629 57.16L110.757 59.368C110.229 59.928 109.469 60.384 108.477 60.736C107.501 61.088 106.469 61.264 105.381 61.264C102.805 61.264 100.717 60.472 99.1167 58.888C97.5167 57.304 96.7167 55.208 96.7167 52.6C96.7167 50.088 97.4767 48.016 98.9967 46.384C100.517 44.752 102.621 43.936 105.309 43.936C107.469 43.936 109.173 44.504 110.421 45.64L109.101 47.824C107.965 47.072 106.701 46.696 105.309 46.696C103.725 46.696 102.413 47.232 101.373 48.304C100.349 49.376 99.8367 50.808 99.8367 52.6C99.8367 54.344 100.373 55.768 101.445 56.872C102.533 57.96 103.933 58.504 105.645 58.504C107.133 58.504 108.461 58.056 109.629 57.16ZM120.668 57.976L121.46 59.92C120.404 60.816 119.028 61.264 117.332 61.264C115.588 61.264 114.18 60.744 113.108 59.704C112.052 58.664 111.524 57.296 111.524 55.6C111.524 53.984 112.044 52.64 113.084 51.568C114.124 50.48 115.508 49.936 117.236 49.936C118.66 49.936 119.868 50.408 120.86 51.352C121.852 52.28 122.348 53.48 122.348 54.952C122.348 55.56 122.292 56.056 122.18 56.44H114.38C114.492 57.24 114.844 57.864 115.436 58.312C116.028 58.744 116.756 58.96 117.62 58.96C118.836 58.96 119.852 58.632 120.668 57.976ZM117.116 52.24C115.548 52.24 114.604 53.024 114.284 54.592H119.588C119.604 53.92 119.388 53.36 118.94 52.912C118.492 52.464 117.884 52.24 117.116 52.24ZM124.571 65.8V50.2H127.331V51.232C127.683 50.864 128.155 50.56 128.747 50.32C129.355 50.064 129.995 49.936 130.667 49.936C132.139 49.936 133.323 50.448 134.219 51.472C135.115 52.496 135.563 53.816 135.563 55.432C135.563 57.112 135.035 58.504 133.979 59.608C132.923 60.712 131.547 61.264 129.851 61.264C128.779 61.264 127.939 61.088 127.331 60.736V65.8H124.571ZM129.803 52.528C128.859 52.528 128.035 52.92 127.331 53.704V58.072C127.971 58.488 128.731 58.696 129.611 58.696C130.539 58.696 131.275 58.4 131.819 57.808C132.363 57.2 132.635 56.432 132.635 55.504C132.635 54.624 132.387 53.912 131.891 53.368C131.395 52.808 130.699 52.528 129.803 52.528ZM137.954 61V50.2C138.146 50.2 138.498 50.192 139.01 50.176C139.538 50.144 140.074 50.12 140.618 50.104C141.178 50.088 141.706 50.08 142.202 50.08C145.466 50.08 147.098 51.024 147.098 52.912C147.098 53.536 146.898 54.072 146.498 54.52C146.114 54.968 145.642 55.232 145.082 55.312V55.36C146.618 55.728 147.386 56.56 147.386 57.856C147.386 60.032 145.674 61.12 142.25 61.12C141.77 61.12 141.01 61.096 139.97 61.048C138.93 61.016 138.258 61 137.954 61ZM142.442 56.416H140.714V58.816C141.802 58.88 142.41 58.912 142.538 58.912C143.146 58.912 143.618 58.8 143.954 58.576C144.306 58.352 144.482 58.048 144.482 57.664C144.482 56.832 143.802 56.416 142.442 56.416ZM142.442 52.312C141.674 52.312 141.098 52.328 140.714 52.36V54.736H142.514C142.994 54.736 143.386 54.632 143.69 54.424C144.01 54.2 144.17 53.888 144.17 53.488C144.17 52.704 143.594 52.312 142.442 52.312ZM158.473 57.976L159.265 59.92C158.209 60.816 156.833 61.264 155.137 61.264C153.393 61.264 151.985 60.744 150.913 59.704C149.857 58.664 149.329 57.296 149.329 55.6C149.329 53.984 149.849 52.64 150.889 51.568C151.929 50.48 153.313 49.936 155.041 49.936C156.465 49.936 157.673 50.408 158.665 51.352C159.657 52.28 160.153 53.48 160.153 54.952C160.153 55.56 160.097 56.056 159.985 56.44H152.185C152.297 57.24 152.649 57.864 153.241 58.312C153.833 58.744 154.561 58.96 155.425 58.96C156.641 58.96 157.657 58.632 158.473 57.976ZM154.921 52.24C153.353 52.24 152.409 53.024 152.089 54.592H157.393C157.409 53.92 157.193 53.36 156.745 52.912C156.297 52.464 155.689 52.24 154.921 52.24ZM162.376 65.8V50.2H165.136V51.232C165.488 50.864 165.96 50.56 166.552 50.32C167.16 50.064 167.8 49.936 168.472 49.936C169.944 49.936 171.128 50.448 172.024 51.472C172.92 52.496 173.368 53.816 173.368 55.432C173.368 57.112 172.84 58.504 171.784 59.608C170.728 60.712 169.352 61.264 167.656 61.264C166.584 61.264 165.744 61.088 165.136 60.736V65.8H162.376ZM167.608 52.528C166.664 52.528 165.84 52.92 165.136 53.704V58.072C165.776 58.488 166.536 58.696 167.416 58.696C168.344 58.696 169.08 58.4 169.624 57.808C170.168 57.2 170.44 56.432 170.44 55.504C170.44 54.624 170.192 53.912 169.696 53.368C169.2 52.808 168.504 52.528 167.608 52.528ZM179.837 47.368L184.133 44.152H186.125V61H183.365V48.088L181.301 49.648L179.837 47.368ZM202.629 57.16L203.757 59.368C203.229 59.928 202.469 60.384 201.477 60.736C200.501 61.088 199.469 61.264 198.381 61.264C195.805 61.264 193.717 60.472 192.117 58.888C190.517 57.304 189.717 55.208 189.717 52.6C189.717 50.088 190.477 48.016 191.997 46.384C193.517 44.752 195.621 43.936 198.309 43.936C200.469 43.936 202.173 44.504 203.421 45.64L202.101 47.824C200.965 47.072 199.701 46.696 198.309 46.696C196.725 46.696 195.413 47.232 194.373 48.304C193.349 49.376 192.837 50.808 192.837 52.6C192.837 54.344 193.373 55.768 194.445 56.872C195.533 57.96 196.933 58.504 198.645 58.504C200.133 58.504 201.461 58.056 202.629 57.16Z" fill="#141414"/>
<rect x="1.5" y="18.5" width="297" height="72" rx="6.5" stroke="#E4002B" stroke-width="3"/>
</svg>
