<svg width="300" height="435" viewBox="0 0 300 435" fill="none" xmlns="http://www.w3.org/2000/svg">
<path d="M118.151 44.264C116.791 44.264 115.615 43.992 114.623 43.448C113.647 42.888 112.903 42.216 112.391 41.432L113.999 39.44C114.527 40.048 115.159 40.544 115.895 40.928C116.631 41.312 117.335 41.504 118.007 41.504C118.887 41.504 119.623 41.296 120.215 40.88C120.807 40.448 121.103 39.824 121.103 39.008C121.103 38.336 120.847 37.8 120.335 37.4C119.823 37 119.087 36.8 118.127 36.8H116.399V34.04H118.031C118.687 34.04 119.255 33.84 119.735 33.44C120.215 33.04 120.455 32.504 120.455 31.832C120.455 31.144 120.231 30.616 119.783 30.248C119.335 29.88 118.743 29.696 118.007 29.696C116.647 29.696 115.511 30.304 114.599 31.52L112.895 29.552C113.455 28.768 114.223 28.136 115.199 27.656C116.175 27.176 117.223 26.936 118.343 26.936C119.863 26.936 121.079 27.344 121.991 28.16C122.919 28.96 123.383 30.088 123.383 31.544C123.383 32.232 123.191 32.912 122.807 33.584C122.423 34.256 121.863 34.808 121.127 35.24V35.312C122.103 35.552 122.831 36.024 123.311 36.728C123.791 37.432 124.031 38.288 124.031 39.296C124.031 40.784 123.447 41.984 122.279 42.896C121.127 43.808 119.751 44.264 118.151 44.264ZM127.966 35.984L127.27 33.968C128.438 33.28 129.71 32.936 131.086 32.936C132.622 32.936 133.726 33.312 134.398 34.064C135.07 34.816 135.406 35.936 135.406 37.424V44H133.006V42.752C132.35 43.68 131.286 44.144 129.814 44.144C128.806 44.144 127.99 43.848 127.366 43.256C126.742 42.664 126.43 41.856 126.43 40.832C126.43 39.696 126.798 38.832 127.534 38.24C128.27 37.632 129.214 37.328 130.366 37.328C131.358 37.328 132.174 37.56 132.814 38.024C132.846 37.08 132.71 36.384 132.406 35.936C132.102 35.472 131.566 35.24 130.798 35.24C129.998 35.24 129.054 35.488 127.966 35.984ZM130.726 41.816C131.654 41.816 132.35 41.488 132.814 40.832V39.728C132.35 39.376 131.718 39.2 130.918 39.2C130.422 39.2 130.006 39.32 129.67 39.56C129.35 39.784 129.19 40.112 129.19 40.544C129.19 40.944 129.334 41.256 129.622 41.48C129.91 41.704 130.278 41.816 130.726 41.816ZM145.603 44V35.792H140.995V44H138.235V33.2H148.363V44H145.603ZM151.431 48.8V33.2H154.191V34.232C154.543 33.864 155.015 33.56 155.607 33.32C156.215 33.064 156.855 32.936 157.527 32.936C158.999 32.936 160.183 33.448 161.079 34.472C161.975 35.496 162.423 36.816 162.423 38.432C162.423 40.112 161.895 41.504 160.839 42.608C159.783 43.712 158.407 44.264 156.711 44.264C155.639 44.264 154.799 44.088 154.191 43.736V48.8H151.431ZM156.663 35.528C155.719 35.528 154.895 35.92 154.191 36.704V41.072C154.831 41.488 155.591 41.696 156.471 41.696C157.399 41.696 158.135 41.4 158.679 40.808C159.223 40.2 159.495 39.432 159.495 38.504C159.495 37.624 159.247 36.912 158.751 36.368C158.255 35.808 157.559 35.528 156.663 35.528ZM165.749 42.68C164.677 41.608 164.141 40.248 164.141 38.6C164.141 36.952 164.677 35.6 165.749 34.544C166.837 33.472 168.261 32.936 170.021 32.936C171.781 32.936 173.197 33.472 174.269 34.544C175.357 35.6 175.901 36.952 175.901 38.6C175.901 40.248 175.357 41.608 174.269 42.68C173.197 43.736 171.781 44.264 170.021 44.264C168.261 44.264 166.837 43.736 165.749 42.68ZM167.093 38.6C167.093 39.496 167.365 40.24 167.909 40.832C168.469 41.408 169.173 41.696 170.021 41.696C170.885 41.696 171.589 41.416 172.133 40.856C172.693 40.28 172.973 39.528 172.973 38.6C172.973 37.704 172.693 36.968 172.133 36.392C171.573 35.816 170.869 35.528 170.021 35.528C169.189 35.528 168.493 35.816 167.933 36.392C167.373 36.952 167.093 37.688 167.093 38.6ZM186.474 40.376L187.77 42.392C187.322 43 186.714 43.464 185.946 43.784C185.194 44.104 184.37 44.264 183.474 44.264C181.714 44.264 180.298 43.744 179.226 42.704C178.154 41.664 177.618 40.296 177.618 38.6C177.618 37 178.146 35.656 179.202 34.568C180.258 33.48 181.594 32.936 183.21 32.936C185.13 32.936 186.578 33.424 187.554 34.4L186.258 36.584C185.538 35.88 184.642 35.528 183.57 35.528C182.77 35.528 182.066 35.816 181.458 36.392C180.866 36.952 180.57 37.688 180.57 38.6C180.57 39.528 180.874 40.28 181.482 40.856C182.106 41.416 182.842 41.696 183.69 41.696C184.746 41.696 185.674 41.256 186.474 40.376Z" fill="#141414"/>
<rect x="1.5" y="1.5" width="297" height="72" rx="6.5" stroke="#E4002B" stroke-width="3"/>
<path d="M150 135L155.774 125H144.226L150 135ZM149 85V126H151V85H149Z" fill="#C5CDCF"/>
<path d="M35.8671 188.976V172.248C37.4351 172.168 39.0511 172.128 40.7151 172.128C42.6191 172.128 44.0111 172.512 44.8911 173.28C45.7871 174.032 46.2351 175.032 46.2351 176.28C46.2351 178.072 45.4351 179.344 43.8351 180.096V180.144C44.7151 180.368 45.4271 180.808 45.9711 181.464C46.5151 182.12 46.7871 182.984 46.7871 184.056C46.7871 185.72 46.2111 186.976 45.0591 187.824C43.9231 188.672 42.4191 189.096 40.5471 189.096C38.5151 189.096 36.9551 189.056 35.8671 188.976ZM40.9071 181.776H38.8191V186.216C39.4911 186.296 40.1391 186.336 40.7631 186.336C42.8111 186.336 43.8351 185.528 43.8351 183.912C43.8351 183.208 43.5791 182.68 43.0671 182.328C42.5551 181.96 41.8351 181.776 40.9071 181.776ZM40.6671 174.888C39.9631 174.888 39.3471 174.912 38.8191 174.96V179.208H40.8111C41.5471 179.208 42.1471 179.024 42.6111 178.656C43.0751 178.272 43.3071 177.712 43.3071 176.976C43.3071 176.304 43.0671 175.792 42.5871 175.44C42.1231 175.072 41.4831 174.888 40.6671 174.888ZM50.7276 180.984L50.0316 178.968C51.1996 178.28 52.4716 177.936 53.8476 177.936C55.3836 177.936 56.4876 178.312 57.1596 179.064C57.8316 179.816 58.1676 180.936 58.1676 182.424V189H55.7676V187.752C55.1116 188.68 54.0476 189.144 52.5756 189.144C51.5676 189.144 50.7516 188.848 50.1276 188.256C49.5036 187.664 49.1916 186.856 49.1916 185.832C49.1916 184.696 49.5596 183.832 50.2956 183.24C51.0316 182.632 51.9756 182.328 53.1276 182.328C54.1196 182.328 54.9356 182.56 55.5756 183.024C55.6076 182.08 55.4716 181.384 55.1676 180.936C54.8636 180.472 54.3276 180.24 53.5596 180.24C52.7596 180.24 51.8156 180.488 50.7276 180.984ZM53.4876 186.816C54.4156 186.816 55.1116 186.488 55.5756 185.832V184.728C55.1116 184.376 54.4796 184.2 53.6796 184.2C53.1836 184.2 52.7676 184.32 52.4316 184.56C52.1116 184.784 51.9516 185.112 51.9516 185.544C51.9516 185.944 52.0956 186.256 52.3836 186.48C52.6716 186.704 53.0396 186.816 53.4876 186.816ZM68.1009 189V180.96H65.2449L65.1729 182.112C64.9969 184.048 64.7009 185.536 64.2849 186.576C63.8849 187.616 63.3729 188.32 62.7489 188.688C62.1409 189.04 61.3249 189.216 60.3009 189.216L60.0609 186.528C60.4129 186.56 60.7409 186.464 61.0449 186.24C61.3649 186 61.6689 185.488 61.9569 184.704C62.2449 183.904 62.4289 182.856 62.5089 181.56L62.6769 178.2H70.8609V189H68.1009ZM76.6944 189H73.9344V178.2H76.6944V185.04L81.7344 178.2H84.4944V189H81.7344V182.16L76.6944 189ZM86.2791 191.52V186.432H87.6471C88.4951 185.312 88.9991 183.432 89.1591 180.792L89.3271 178.2H97.2951V186.432H99.0951V191.52H96.5031V189H88.8471V191.52H86.2791ZM91.8231 181.896C91.6311 183.992 91.1991 185.504 90.5271 186.432H94.5351V180.792H91.8951L91.8231 181.896ZM101.751 180.984L101.055 178.968C102.223 178.28 103.495 177.936 104.871 177.936C106.407 177.936 107.511 178.312 108.183 179.064C108.855 179.816 109.191 180.936 109.191 182.424V189H106.791V187.752C106.135 188.68 105.071 189.144 103.599 189.144C102.591 189.144 101.775 188.848 101.151 188.256C100.527 187.664 100.215 186.856 100.215 185.832C100.215 184.696 100.583 183.832 101.319 183.24C102.055 182.632 102.999 182.328 104.151 182.328C105.143 182.328 105.959 182.56 106.599 183.024C106.631 182.08 106.495 181.384 106.191 180.936C105.887 180.472 105.351 180.24 104.583 180.24C103.783 180.24 102.839 180.488 101.751 180.984ZM104.511 186.816C105.439 186.816 106.135 186.488 106.599 185.832V184.728C106.135 184.376 105.503 184.2 104.703 184.2C104.207 184.2 103.791 184.32 103.455 184.56C103.135 184.784 102.975 185.112 102.975 185.544C102.975 185.944 103.119 186.256 103.407 186.48C103.695 186.704 104.063 186.816 104.511 186.816ZM112.02 189V178.2H114.78V186.432H119.22V178.2H121.98V186.432H123.78V191.52H121.188V189H112.02ZM128.374 189H125.614V178.2H128.374V185.04L133.414 178.2H136.174V189H133.414V182.16L128.374 189ZM144.535 178.2H148.063V189H145.303V185.76H143.767L141.535 189H138.367L141.247 185.16C140.703 184.968 140.215 184.608 139.783 184.08C139.367 183.536 139.159 182.856 139.159 182.04C139.159 180.904 139.591 179.984 140.455 179.28C141.335 178.56 142.695 178.2 144.535 178.2ZM142.111 182.232C142.111 182.664 142.287 183.024 142.639 183.312C143.007 183.584 143.415 183.72 143.863 183.72H145.303V180.6H144.079C143.455 180.6 142.967 180.76 142.615 181.08C142.279 181.4 142.111 181.784 142.111 182.232ZM157.016 188.976V172.248C158.584 172.168 160.2 172.128 161.864 172.128C163.768 172.128 165.16 172.512 166.04 173.28C166.936 174.032 167.384 175.032 167.384 176.28C167.384 178.072 166.584 179.344 164.984 180.096V180.144C165.864 180.368 166.576 180.808 167.12 181.464C167.664 182.12 167.936 182.984 167.936 184.056C167.936 185.72 167.36 186.976 166.208 187.824C165.072 188.672 163.568 189.096 161.696 189.096C159.664 189.096 158.104 189.056 157.016 188.976ZM162.056 181.776H159.968V186.216C160.64 186.296 161.288 186.336 161.912 186.336C163.96 186.336 164.984 185.528 164.984 183.912C164.984 183.208 164.728 182.68 164.216 182.328C163.704 181.96 162.984 181.776 162.056 181.776ZM161.816 174.888C161.112 174.888 160.496 174.912 159.968 174.96V179.208H161.96C162.696 179.208 163.296 179.024 163.76 178.656C164.224 178.272 164.456 177.712 164.456 176.976C164.456 176.304 164.216 175.792 163.736 175.44C163.272 175.072 162.632 174.888 161.816 174.888ZM171.876 180.984L171.18 178.968C172.348 178.28 173.62 177.936 174.996 177.936C176.532 177.936 177.636 178.312 178.308 179.064C178.98 179.816 179.316 180.936 179.316 182.424V189H176.916V187.752C176.26 188.68 175.196 189.144 173.724 189.144C172.716 189.144 171.9 188.848 171.276 188.256C170.652 187.664 170.34 186.856 170.34 185.832C170.34 184.696 170.708 183.832 171.444 183.24C172.18 182.632 173.124 182.328 174.276 182.328C175.268 182.328 176.084 182.56 176.724 183.024C176.756 182.08 176.62 181.384 176.316 180.936C176.012 180.472 175.476 180.24 174.708 180.24C173.908 180.24 172.964 180.488 171.876 180.984ZM174.636 186.816C175.564 186.816 176.26 186.488 176.724 185.832V184.728C176.26 184.376 175.628 184.2 174.828 184.2C174.332 184.2 173.916 184.32 173.58 184.56C173.26 184.784 173.1 185.112 173.1 185.544C173.1 185.944 173.244 186.256 173.532 186.48C173.82 186.704 174.188 186.816 174.636 186.816ZM187.209 186.696C187.481 186.52 187.617 186.272 187.617 185.952C187.617 185.632 187.417 185.376 187.017 185.184C186.617 184.976 186.129 184.8 185.553 184.656C184.993 184.496 184.425 184.312 183.849 184.104C183.273 183.88 182.785 183.528 182.385 183.048C181.985 182.568 181.785 181.96 181.785 181.224C181.785 180.2 182.153 179.4 182.889 178.824C183.641 178.232 184.593 177.936 185.745 177.936C187.505 177.936 188.873 178.392 189.849 179.304L188.817 181.272C187.937 180.584 186.961 180.24 185.889 180.24C185.489 180.24 185.161 180.336 184.905 180.528C184.665 180.704 184.545 180.92 184.545 181.176C184.545 181.496 184.745 181.76 185.145 181.968C185.545 182.176 186.025 182.352 186.585 182.496C187.161 182.64 187.737 182.816 188.313 183.024C188.889 183.232 189.377 183.576 189.777 184.056C190.177 184.52 190.377 185.104 190.377 185.808C190.377 186.864 189.977 187.704 189.177 188.328C188.393 188.952 187.337 189.264 186.009 189.264C185.081 189.264 184.161 189.064 183.249 188.664C182.353 188.264 181.769 187.848 181.497 187.416L182.841 185.616C183.161 185.968 183.665 186.28 184.353 186.552C185.041 186.824 185.657 186.96 186.201 186.96C186.617 186.96 186.953 186.872 187.209 186.696ZM193.217 189V178.2H195.977V189H193.217ZM192.929 174.312C192.929 173.832 193.097 173.448 193.433 173.16C193.769 172.856 194.177 172.704 194.657 172.704C195.073 172.704 195.441 172.856 195.761 173.16C196.081 173.448 196.241 173.832 196.241 174.312C196.241 174.84 196.081 175.264 195.761 175.584C195.441 175.888 195.073 176.04 194.657 176.04C194.161 176.04 193.745 175.888 193.409 175.584C193.089 175.264 192.929 174.84 192.929 174.312ZM207.65 185.376L208.946 187.392C208.498 188 207.89 188.464 207.122 188.784C206.37 189.104 205.546 189.264 204.65 189.264C202.89 189.264 201.474 188.744 200.402 187.704C199.33 186.664 198.794 185.296 198.794 183.6C198.794 182 199.322 180.656 200.378 179.568C201.434 178.48 202.77 177.936 204.386 177.936C206.306 177.936 207.754 178.424 208.73 179.4L207.434 181.584C206.714 180.88 205.818 180.528 204.746 180.528C203.946 180.528 203.242 180.816 202.634 181.392C202.042 181.952 201.746 182.688 201.746 183.6C201.746 184.528 202.05 185.28 202.658 185.856C203.282 186.416 204.018 186.696 204.866 186.696C205.922 186.696 206.85 186.256 207.65 185.376ZM214.879 189L221.983 172.152H224.575L231.679 189H228.535L226.783 184.704H219.607L217.855 189H214.879ZM223.207 175.968L220.735 181.944H225.655L223.207 175.968ZM243.171 178.2V189H240.411V187.68C239.547 188.736 238.395 189.264 236.955 189.264C235.835 189.264 234.923 188.888 234.219 188.136C233.515 187.384 233.163 186.272 233.163 184.8V178.2H235.923V184.224C235.923 185.872 236.611 186.696 237.987 186.696C238.931 186.696 239.739 186.256 240.411 185.376V178.2H243.171ZM246.007 184.896V175.2H248.767V178.2H252.247V180.792H248.767V184.728C248.767 186.024 249.199 186.672 250.063 186.672C250.607 186.672 251.159 186.464 251.719 186.048L252.559 188.184C251.695 188.888 250.631 189.24 249.367 189.24C248.183 189.24 247.327 188.88 246.799 188.16C246.271 187.424 246.007 186.336 246.007 184.896ZM254.895 189V172.2H257.655V179.184C258.471 178.4 259.503 178.008 260.751 178.008C262.143 178.008 263.231 178.392 264.015 179.16C264.799 179.912 265.191 181.104 265.191 182.736V189H262.431V183.096C262.431 182.296 262.223 181.68 261.807 181.248C261.391 180.816 260.799 180.6 260.031 180.6C259.103 180.6 258.311 180.928 257.655 181.584V189H254.895ZM60.5045 224V219.872H55.7765V224H53.0165V213.2H55.7765V217.28H60.5045V213.2H63.2645V224H60.5045ZM67.169 215.984L66.473 213.968C67.641 213.28 68.913 212.936 70.289 212.936C71.825 212.936 72.929 213.312 73.601 214.064C74.273 214.816 74.609 215.936 74.609 217.424V224H72.209V222.752C71.553 223.68 70.489 224.144 69.017 224.144C68.009 224.144 67.193 223.848 66.569 223.256C65.945 222.664 65.633 221.856 65.633 220.832C65.633 219.696 66.001 218.832 66.737 218.24C67.473 217.632 68.417 217.328 69.569 217.328C70.561 217.328 71.377 217.56 72.017 218.024C72.049 217.08 71.913 216.384 71.609 215.936C71.305 215.472 70.769 215.24 70.001 215.24C69.201 215.24 68.257 215.488 67.169 215.984ZM69.929 221.816C70.857 221.816 71.553 221.488 72.017 220.832V219.728C71.553 219.376 70.921 219.2 70.121 219.2C69.625 219.2 69.209 219.32 68.873 219.56C68.553 219.784 68.393 220.112 68.393 220.544C68.393 220.944 68.537 221.256 68.825 221.48C69.113 221.704 69.481 221.816 69.929 221.816ZM92.9403 213.2L88.6923 224C87.9243 225.872 87.2363 227.136 86.6283 227.792C86.0363 228.464 85.3323 228.8 84.5163 228.8C83.7323 228.8 82.9563 228.52 82.1883 227.96L83.0763 225.872C83.5083 226.128 83.8843 226.256 84.2043 226.256C84.8603 226.256 85.4123 225.696 85.8603 224.576L86.1003 224L81.1083 213.2H84.4203L86.9403 219.104C87.0363 219.344 87.2123 219.864 87.4683 220.664C87.5963 219.96 87.7243 219.432 87.8523 219.08L89.7963 213.2H92.9403ZM94.5946 228.8V213.2H97.3546V214.232C97.7066 213.864 98.1786 213.56 98.7706 213.32C99.3786 213.064 100.019 212.936 100.691 212.936C102.163 212.936 103.347 213.448 104.243 214.472C105.139 215.496 105.587 216.816 105.587 218.432C105.587 220.112 105.059 221.504 104.003 222.608C102.947 223.712 101.571 224.264 99.8746 224.264C98.8026 224.264 97.9626 224.088 97.3546 223.736V228.8H94.5946ZM99.8266 215.528C98.8826 215.528 98.0586 215.92 97.3546 216.704V221.072C97.9946 221.488 98.7546 221.696 99.6346 221.696C100.563 221.696 101.299 221.4 101.843 220.808C102.387 220.2 102.659 219.432 102.659 218.504C102.659 217.624 102.411 216.912 101.915 216.368C101.419 215.808 100.723 215.528 99.8266 215.528ZM108.913 222.68C107.841 221.608 107.305 220.248 107.305 218.6C107.305 216.952 107.841 215.6 108.913 214.544C110.001 213.472 111.425 212.936 113.185 212.936C114.945 212.936 116.361 213.472 117.433 214.544C118.521 215.6 119.065 216.952 119.065 218.6C119.065 220.248 118.521 221.608 117.433 222.68C116.361 223.736 114.945 224.264 113.185 224.264C111.425 224.264 110.001 223.736 108.913 222.68ZM110.257 218.6C110.257 219.496 110.529 220.24 111.073 220.832C111.633 221.408 112.337 221.696 113.185 221.696C114.049 221.696 114.753 221.416 115.297 220.856C115.857 220.28 116.137 219.528 116.137 218.6C116.137 217.704 115.857 216.968 115.297 216.392C114.737 215.816 114.033 215.528 113.185 215.528C112.353 215.528 111.657 215.816 111.097 216.392C110.537 216.952 110.257 217.688 110.257 218.6ZM121.454 224V213.2C121.646 213.2 121.998 213.192 122.51 213.176C123.038 213.144 123.574 213.12 124.118 213.104C124.678 213.088 125.206 213.08 125.702 213.08C128.966 213.08 130.598 214.024 130.598 215.912C130.598 216.536 130.398 217.072 129.998 217.52C129.614 217.968 129.142 218.232 128.582 218.312V218.36C130.118 218.728 130.886 219.56 130.886 220.856C130.886 223.032 129.174 224.12 125.75 224.12C125.27 224.12 124.51 224.096 123.47 224.048C122.43 224.016 121.758 224 121.454 224ZM125.942 219.416H124.214V221.816C125.302 221.88 125.91 221.912 126.038 221.912C126.646 221.912 127.118 221.8 127.454 221.576C127.806 221.352 127.982 221.048 127.982 220.664C127.982 219.832 127.302 219.416 125.942 219.416ZM125.942 215.312C125.174 215.312 124.598 215.328 124.214 215.36V217.736H126.014C126.494 217.736 126.886 217.632 127.19 217.424C127.51 217.2 127.67 216.888 127.67 216.488C127.67 215.704 127.094 215.312 125.942 215.312ZM140.989 224V219.872H136.261V224H133.501V213.2H136.261V217.28H140.989V213.2H143.749V224H140.989ZM155.285 220.976L156.077 222.92C155.021 223.816 153.645 224.264 151.949 224.264C150.205 224.264 148.797 223.744 147.725 222.704C146.669 221.664 146.141 220.296 146.141 218.6C146.141 216.984 146.661 215.64 147.701 214.568C148.741 213.48 150.125 212.936 151.853 212.936C153.277 212.936 154.485 213.408 155.477 214.352C156.469 215.28 156.965 216.48 156.965 217.952C156.965 218.56 156.909 219.056 156.797 219.44H148.997C149.109 220.24 149.461 220.864 150.053 221.312C150.645 221.744 151.373 221.96 152.237 221.96C153.453 221.96 154.469 221.632 155.285 220.976ZM151.733 215.24C150.165 215.24 149.221 216.024 148.901 217.592H154.205C154.221 216.92 154.005 216.36 153.557 215.912C153.109 215.464 152.501 215.24 151.733 215.24ZM172.458 220.376L173.754 222.392C173.306 223 172.698 223.464 171.93 223.784C171.178 224.104 170.354 224.264 169.458 224.264C167.698 224.264 166.282 223.744 165.21 222.704C164.138 221.664 163.602 220.296 163.602 218.6C163.602 217 164.13 215.656 165.186 214.568C166.242 213.48 167.578 212.936 169.194 212.936C171.114 212.936 172.562 213.424 173.538 214.4L172.242 216.584C171.522 215.88 170.626 215.528 169.554 215.528C168.754 215.528 168.05 215.816 167.442 216.392C166.85 216.952 166.554 217.688 166.554 218.6C166.554 219.528 166.858 220.28 167.466 220.856C168.09 221.416 168.826 221.696 169.674 221.696C170.73 221.696 171.658 221.256 172.458 220.376ZM183.856 220.976L184.648 222.92C183.592 223.816 182.216 224.264 180.52 224.264C178.776 224.264 177.368 223.744 176.296 222.704C175.24 221.664 174.712 220.296 174.712 218.6C174.712 216.984 175.232 215.64 176.272 214.568C177.312 213.48 178.696 212.936 180.424 212.936C181.848 212.936 183.056 213.408 184.048 214.352C185.04 215.28 185.536 216.48 185.536 217.952C185.536 218.56 185.48 219.056 185.368 219.44H177.568C177.68 220.24 178.032 220.864 178.624 221.312C179.216 221.744 179.944 221.96 180.808 221.96C182.024 221.96 183.04 221.632 183.856 220.976ZM180.304 215.24C178.736 215.24 177.792 216.024 177.472 217.592H182.776C182.792 216.92 182.576 216.36 182.128 215.912C181.68 215.464 181.072 215.24 180.304 215.24ZM187.759 228.8V213.2H190.519V214.232C190.871 213.864 191.343 213.56 191.935 213.32C192.543 213.064 193.183 212.936 193.855 212.936C195.327 212.936 196.511 213.448 197.407 214.472C198.303 215.496 198.751 216.816 198.751 218.432C198.751 220.112 198.223 221.504 197.167 222.608C196.111 223.712 194.735 224.264 193.039 224.264C191.967 224.264 191.127 224.088 190.519 223.736V228.8H187.759ZM192.991 215.528C192.047 215.528 191.223 215.92 190.519 216.704V221.072C191.159 221.488 191.919 221.696 192.799 221.696C193.727 221.696 194.463 221.4 195.007 220.808C195.551 220.2 195.823 219.432 195.823 218.504C195.823 217.624 195.575 216.912 195.079 216.368C194.583 215.808 193.887 215.528 192.991 215.528ZM201.141 224V213.2C201.333 213.2 201.685 213.192 202.197 213.176C202.725 213.144 203.261 213.12 203.805 213.104C204.365 213.088 204.893 213.08 205.389 213.08C208.653 213.08 210.285 214.024 210.285 215.912C210.285 216.536 210.085 217.072 209.685 217.52C209.301 217.968 208.829 218.232 208.269 218.312V218.36C209.805 218.728 210.573 219.56 210.573 220.856C210.573 223.032 208.861 224.12 205.437 224.12C204.957 224.12 204.197 224.096 203.157 224.048C202.117 224.016 201.445 224 201.141 224ZM205.629 219.416H203.901V221.816C204.989 221.88 205.597 221.912 205.725 221.912C206.333 221.912 206.805 221.8 207.141 221.576C207.493 221.352 207.669 221.048 207.669 220.664C207.669 219.832 206.989 219.416 205.629 219.416ZM205.629 215.312C204.861 215.312 204.285 215.328 203.901 215.36V217.736H205.701C206.181 217.736 206.573 217.632 206.877 217.424C207.197 217.2 207.357 216.888 207.357 216.488C207.357 215.704 206.781 215.312 205.629 215.312ZM221.66 220.976L222.452 222.92C221.396 223.816 220.02 224.264 218.324 224.264C216.58 224.264 215.172 223.744 214.1 222.704C213.044 221.664 212.516 220.296 212.516 218.6C212.516 216.984 213.036 215.64 214.076 214.568C215.116 213.48 216.5 212.936 218.228 212.936C219.652 212.936 220.86 213.408 221.852 214.352C222.844 215.28 223.34 216.48 223.34 217.952C223.34 218.56 223.284 219.056 223.172 219.44H215.372C215.484 220.24 215.836 220.864 216.428 221.312C217.02 221.744 217.748 221.96 218.612 221.96C219.828 221.96 220.844 221.632 221.66 220.976ZM218.108 215.24C216.54 215.24 215.596 216.024 215.276 217.592H220.58C220.596 216.92 220.38 216.36 219.932 215.912C219.484 215.464 218.876 215.24 218.108 215.24ZM225.563 228.8V213.2H228.323V214.232C228.675 213.864 229.147 213.56 229.739 213.32C230.347 213.064 230.987 212.936 231.659 212.936C233.131 212.936 234.315 213.448 235.211 214.472C236.107 215.496 236.555 216.816 236.555 218.432C236.555 220.112 236.027 221.504 234.971 222.608C233.915 223.712 232.539 224.264 230.843 224.264C229.771 224.264 228.931 224.088 228.323 223.736V228.8H225.563ZM230.795 215.528C229.851 215.528 229.027 215.92 228.323 216.704V221.072C228.963 221.488 229.723 221.696 230.603 221.696C231.531 221.696 232.267 221.4 232.811 220.808C233.355 220.2 233.627 219.432 233.627 218.504C233.627 217.624 233.379 216.912 232.883 216.368C232.387 215.808 231.691 215.528 230.795 215.528ZM239.786 215.984L239.09 213.968C240.258 213.28 241.53 212.936 242.906 212.936C244.442 212.936 245.546 213.312 246.218 214.064C246.89 214.816 247.226 215.936 247.226 217.424V224H244.826V222.752C244.17 223.68 243.106 224.144 241.634 224.144C240.626 224.144 239.81 223.848 239.186 223.256C238.562 222.664 238.25 221.856 238.25 220.832C238.25 219.696 238.618 218.832 239.354 218.24C240.09 217.632 241.034 217.328 242.186 217.328C243.178 217.328 243.994 217.56 244.634 218.024C244.666 217.08 244.53 216.384 244.226 215.936C243.922 215.472 243.386 215.24 242.618 215.24C241.818 215.24 240.874 215.488 239.786 215.984ZM242.546 221.816C243.474 221.816 244.17 221.488 244.634 220.832V219.728C244.17 219.376 243.538 219.2 242.738 219.2C242.242 219.2 241.826 219.32 241.49 219.56C241.17 219.784 241.01 220.112 241.01 220.544C241.01 220.944 241.154 221.256 241.442 221.48C241.73 221.704 242.098 221.816 242.546 221.816Z" fill="#141414"/>
<rect x="1.5" y="146.5" width="297" height="107" rx="6.5" stroke="#E4002B" stroke-width="3"/>
<path d="M150 315L155.774 305H144.226L150 315ZM149 265V306H151V265H149Z" fill="#C5CDCF"/>
<path d="M26.2225 368.976V352.248C27.7905 352.168 29.4065 352.128 31.0705 352.128C32.9745 352.128 34.3665 352.512 35.2465 353.28C36.1425 354.032 36.5905 355.032 36.5905 356.28C36.5905 358.072 35.7905 359.344 34.1905 360.096V360.144C35.0705 360.368 35.7825 360.808 36.3265 361.464C36.8705 362.12 37.1425 362.984 37.1425 364.056C37.1425 365.72 36.5665 366.976 35.4145 367.824C34.2785 368.672 32.7745 369.096 30.9025 369.096C28.8705 369.096 27.3105 369.056 26.2225 368.976ZM31.2625 361.776H29.1745V366.216C29.8465 366.296 30.4945 366.336 31.1185 366.336C33.1665 366.336 34.1905 365.528 34.1905 363.912C34.1905 363.208 33.9345 362.68 33.4225 362.328C32.9105 361.96 32.1905 361.776 31.2625 361.776ZM31.0225 354.888C30.3185 354.888 29.7025 354.912 29.1745 354.96V359.208H31.1665C31.9025 359.208 32.5025 359.024 32.9665 358.656C33.4305 358.272 33.6625 357.712 33.6625 356.976C33.6625 356.304 33.4225 355.792 32.9425 355.44C32.4785 355.072 31.8385 354.888 31.0225 354.888ZM41.083 360.984L40.387 358.968C41.555 358.28 42.827 357.936 44.203 357.936C45.739 357.936 46.843 358.312 47.515 359.064C48.187 359.816 48.523 360.936 48.523 362.424V369H46.123V367.752C45.467 368.68 44.403 369.144 42.931 369.144C41.923 369.144 41.107 368.848 40.483 368.256C39.859 367.664 39.547 366.856 39.547 365.832C39.547 364.696 39.915 363.832 40.651 363.24C41.387 362.632 42.331 362.328 43.483 362.328C44.475 362.328 45.291 362.56 45.931 363.024C45.963 362.08 45.827 361.384 45.523 360.936C45.219 360.472 44.683 360.24 43.915 360.24C43.115 360.24 42.171 360.488 41.083 360.984ZM43.843 366.816C44.771 366.816 45.467 366.488 45.931 365.832V364.728C45.467 364.376 44.835 364.2 44.035 364.2C43.539 364.2 43.123 364.32 42.787 364.56C42.467 364.784 42.307 365.112 42.307 365.544C42.307 365.944 42.451 366.256 42.739 366.48C43.027 366.704 43.395 366.816 43.843 366.816ZM58.4564 369V360.96H55.6004L55.5284 362.112C55.3524 364.048 55.0564 365.536 54.6404 366.576C54.2404 367.616 53.7284 368.32 53.1044 368.688C52.4964 369.04 51.6804 369.216 50.6564 369.216L50.4164 366.528C50.7684 366.56 51.0964 366.464 51.4004 366.24C51.7204 366 52.0244 365.488 52.3124 364.704C52.6004 363.904 52.7844 362.856 52.8644 361.56L53.0324 358.2H61.2164V369H58.4564ZM67.0499 369H64.2899V358.2H67.0499V365.04L72.0899 358.2H74.8499V369H72.0899V362.16L67.0499 369ZM76.6345 371.52V366.432H78.0025C78.8505 365.312 79.3545 363.432 79.5145 360.792L79.6825 358.2H87.6505V366.432H89.4505V371.52H86.8585V369H79.2025V371.52H76.6345ZM82.1785 361.896C81.9865 363.992 81.5545 365.504 80.8825 366.432H84.8905V360.792H82.2505L82.1785 361.896ZM92.1065 360.984L91.4105 358.968C92.5785 358.28 93.8505 357.936 95.2265 357.936C96.7625 357.936 97.8665 358.312 98.5385 359.064C99.2105 359.816 99.5465 360.936 99.5465 362.424V369H97.1465V367.752C96.4905 368.68 95.4265 369.144 93.9545 369.144C92.9465 369.144 92.1305 368.848 91.5065 368.256C90.8825 367.664 90.5705 366.856 90.5705 365.832C90.5705 364.696 90.9385 363.832 91.6745 363.24C92.4105 362.632 93.3545 362.328 94.5065 362.328C95.4985 362.328 96.3145 362.56 96.9545 363.024C96.9865 362.08 96.8505 361.384 96.5465 360.936C96.2425 360.472 95.7065 360.24 94.9385 360.24C94.1385 360.24 93.1945 360.488 92.1065 360.984ZM94.8665 366.816C95.7945 366.816 96.4905 366.488 96.9545 365.832V364.728C96.4905 364.376 95.8585 364.2 95.0585 364.2C94.5625 364.2 94.1465 364.32 93.8105 364.56C93.4905 364.784 93.3305 365.112 93.3305 365.544C93.3305 365.944 93.4745 366.256 93.7625 366.48C94.0505 366.704 94.4185 366.816 94.8665 366.816ZM102.376 369V358.2H105.136V366.432H109.576V358.2H112.336V366.432H114.136V371.52H111.544V369H102.376ZM118.73 369H115.97V358.2H118.73V365.04L123.77 358.2H126.53V369H123.77V362.16L118.73 369ZM134.89 358.2H138.418V369H135.658V365.76H134.122L131.89 369H128.722L131.602 365.16C131.058 364.968 130.57 364.608 130.138 364.08C129.722 363.536 129.514 362.856 129.514 362.04C129.514 360.904 129.946 359.984 130.81 359.28C131.69 358.56 133.05 358.2 134.89 358.2ZM132.466 362.232C132.466 362.664 132.642 363.024 132.994 363.312C133.362 363.584 133.77 363.72 134.218 363.72H135.658V360.6H134.434C133.81 360.6 133.322 360.76 132.97 361.08C132.634 361.4 132.466 361.784 132.466 362.232ZM153.947 369V360.792H149.339V369H146.579V358.2H156.707V369H153.947ZM160.71 367.68C159.638 366.608 159.102 365.248 159.102 363.6C159.102 361.952 159.638 360.6 160.71 359.544C161.798 358.472 163.222 357.936 164.982 357.936C166.742 357.936 168.158 358.472 169.23 359.544C170.318 360.6 170.862 361.952 170.862 363.6C170.862 365.248 170.318 366.608 169.23 367.68C168.158 368.736 166.742 369.264 164.982 369.264C163.222 369.264 161.798 368.736 160.71 367.68ZM162.054 363.6C162.054 364.496 162.326 365.24 162.87 365.832C163.43 366.408 164.134 366.696 164.982 366.696C165.846 366.696 166.55 366.416 167.094 365.856C167.654 365.28 167.934 364.528 167.934 363.6C167.934 362.704 167.654 361.968 167.094 361.392C166.534 360.816 165.83 360.528 164.982 360.528C164.15 360.528 163.454 360.816 162.894 361.392C162.334 361.952 162.054 362.688 162.054 363.6ZM183.401 366.696C183.673 366.52 183.809 366.272 183.809 365.952C183.809 365.632 183.609 365.376 183.209 365.184C182.809 364.976 182.321 364.8 181.745 364.656C181.185 364.496 180.617 364.312 180.041 364.104C179.465 363.88 178.977 363.528 178.577 363.048C178.177 362.568 177.977 361.96 177.977 361.224C177.977 360.2 178.345 359.4 179.081 358.824C179.833 358.232 180.785 357.936 181.937 357.936C183.697 357.936 185.065 358.392 186.041 359.304L185.009 361.272C184.129 360.584 183.153 360.24 182.081 360.24C181.681 360.24 181.353 360.336 181.097 360.528C180.857 360.704 180.737 360.92 180.737 361.176C180.737 361.496 180.937 361.76 181.337 361.968C181.737 362.176 182.217 362.352 182.777 362.496C183.353 362.64 183.929 362.816 184.505 363.024C185.081 363.232 185.569 363.576 185.969 364.056C186.369 364.52 186.569 365.104 186.569 365.808C186.569 366.864 186.169 367.704 185.369 368.328C184.585 368.952 183.529 369.264 182.201 369.264C181.273 369.264 180.353 369.064 179.441 368.664C178.545 368.264 177.961 367.848 177.689 367.416L179.033 365.616C179.353 365.968 179.857 366.28 180.545 366.552C181.233 366.824 181.849 366.96 182.393 366.96C182.809 366.96 183.145 366.872 183.401 366.696ZM199.417 358.2L195.169 369C194.401 370.872 193.713 372.136 193.105 372.792C192.513 373.464 191.809 373.8 190.993 373.8C190.209 373.8 189.433 373.52 188.665 372.96L189.553 370.872C189.985 371.128 190.361 371.256 190.681 371.256C191.337 371.256 191.889 370.696 192.337 369.576L192.577 369L187.585 358.2H190.897L193.417 364.104C193.513 364.344 193.689 364.864 193.945 365.664C194.073 364.96 194.201 364.432 194.329 364.08L196.273 358.2H199.417ZM206.135 366.696C206.407 366.52 206.543 366.272 206.543 365.952C206.543 365.632 206.343 365.376 205.943 365.184C205.543 364.976 205.055 364.8 204.479 364.656C203.919 364.496 203.351 364.312 202.775 364.104C202.199 363.88 201.711 363.528 201.311 363.048C200.911 362.568 200.711 361.96 200.711 361.224C200.711 360.2 201.079 359.4 201.815 358.824C202.567 358.232 203.519 357.936 204.671 357.936C206.431 357.936 207.799 358.392 208.775 359.304L207.743 361.272C206.863 360.584 205.887 360.24 204.815 360.24C204.415 360.24 204.087 360.336 203.831 360.528C203.591 360.704 203.471 360.92 203.471 361.176C203.471 361.496 203.671 361.76 204.071 361.968C204.471 362.176 204.951 362.352 205.511 362.496C206.087 362.64 206.663 362.816 207.239 363.024C207.815 363.232 208.303 363.576 208.703 364.056C209.103 364.52 209.303 365.104 209.303 365.808C209.303 366.864 208.903 367.704 208.103 368.328C207.319 368.952 206.263 369.264 204.935 369.264C204.007 369.264 203.087 369.064 202.175 368.664C201.279 368.264 200.695 367.848 200.423 367.416L201.767 365.616C202.087 365.968 202.591 366.28 203.279 366.552C203.967 366.824 204.583 366.96 205.127 366.96C205.543 366.96 205.879 366.872 206.135 366.696ZM211.495 364.896V355.2H214.255V358.2H217.735V360.792H214.255V364.728C214.255 366.024 214.687 366.672 215.551 366.672C216.095 366.672 216.647 366.464 217.207 366.048L218.047 368.184C217.183 368.888 216.119 369.24 214.855 369.24C213.671 369.24 212.815 368.88 212.287 368.16C211.759 367.424 211.495 366.336 211.495 364.896ZM228.434 365.976L229.226 367.92C228.17 368.816 226.794 369.264 225.098 369.264C223.354 369.264 221.946 368.744 220.874 367.704C219.818 366.664 219.29 365.296 219.29 363.6C219.29 361.984 219.81 360.64 220.85 359.568C221.89 358.48 223.274 357.936 225.002 357.936C226.426 357.936 227.634 358.408 228.626 359.352C229.618 360.28 230.114 361.48 230.114 362.952C230.114 363.56 230.058 364.056 229.946 364.44H222.146C222.258 365.24 222.61 365.864 223.202 366.312C223.794 366.744 224.522 366.96 225.386 366.96C226.602 366.96 227.618 366.632 228.434 365.976ZM224.882 360.24C223.314 360.24 222.37 361.024 222.05 362.592H227.354C227.37 361.92 227.154 361.36 226.706 360.912C226.258 360.464 225.65 360.24 224.882 360.24ZM248.729 361.944V369H245.969V362.664C245.969 361.288 245.353 360.6 244.121 360.6C243.065 360.6 242.321 361.016 241.889 361.848C241.889 361.896 241.889 362.024 241.889 362.232C241.905 362.424 241.913 362.56 241.913 362.64V369H239.153V362.472C239.153 361.896 238.993 361.44 238.673 361.104C238.369 360.768 237.929 360.6 237.353 360.6C236.361 360.6 235.609 360.984 235.097 361.752V369H232.337V358.2H235.097V359.4C235.929 358.472 237.057 358.008 238.481 358.008C239.281 358.008 239.953 358.168 240.497 358.488C241.041 358.808 241.417 359.224 241.625 359.736C242.505 358.584 243.721 358.008 245.273 358.008C247.577 358.008 248.729 359.32 248.729 361.944ZM252.684 369V352.2H255.636V369H252.684ZM260.644 369V352.2H260.956C261.276 352.2 262.02 352.192 263.188 352.176C264.356 352.144 265.156 352.128 265.588 352.128C267.22 352.128 268.652 352.352 269.884 352.8C271.116 353.232 272.1 353.84 272.836 354.624C273.572 355.408 274.116 356.288 274.468 357.264C274.836 358.224 275.02 359.28 275.02 360.432C275.02 362.928 274.18 364.992 272.5 366.624C270.836 368.24 268.468 369.048 265.396 369.048C265.108 369.048 264.436 369.04 263.38 369.024C262.34 369.008 261.54 369 260.98 369H260.644ZM265.54 354.888C264.916 354.888 264.268 354.912 263.596 354.96V366.24C264.14 366.272 264.772 366.288 265.492 366.288C267.492 366.288 269.06 365.76 270.196 364.704C271.332 363.648 271.9 362.224 271.9 360.432C271.9 358.72 271.332 357.368 270.196 356.376C269.076 355.384 267.524 354.888 265.54 354.888ZM68.3678 404V399.872H63.6398V404H60.8798V393.2H63.6398V397.28H68.3678V393.2H71.1278V404H68.3678ZM75.0323 395.984L74.3363 393.968C75.5043 393.28 76.7763 392.936 78.1523 392.936C79.6883 392.936 80.7923 393.312 81.4643 394.064C82.1363 394.816 82.4723 395.936 82.4723 397.424V404H80.0723V402.752C79.4163 403.68 78.3523 404.144 76.8803 404.144C75.8723 404.144 75.0563 403.848 74.4323 403.256C73.8083 402.664 73.4963 401.856 73.4963 400.832C73.4963 399.696 73.8643 398.832 74.6003 398.24C75.3363 397.632 76.2803 397.328 77.4323 397.328C78.4243 397.328 79.2403 397.56 79.8803 398.024C79.9123 397.08 79.7763 396.384 79.4723 395.936C79.1683 395.472 78.6323 395.24 77.8643 395.24C77.0643 395.24 76.1203 395.488 75.0323 395.984ZM77.7923 401.816C78.7203 401.816 79.4163 401.488 79.8803 400.832V399.728C79.4163 399.376 78.7843 399.2 77.9843 399.2C77.4883 399.2 77.0723 399.32 76.7363 399.56C76.4163 399.784 76.2563 400.112 76.2563 400.544C76.2563 400.944 76.4003 401.256 76.6883 401.48C76.9763 401.704 77.3443 401.816 77.7923 401.816ZM100.804 393.2L96.5556 404C95.7876 405.872 95.0996 407.136 94.4916 407.792C93.8996 408.464 93.1956 408.8 92.3796 408.8C91.5956 408.8 90.8196 408.52 90.0516 407.96L90.9396 405.872C91.3716 406.128 91.7476 406.256 92.0676 406.256C92.7236 406.256 93.2756 405.696 93.7236 404.576L93.9636 404L88.9716 393.2H92.2836L94.8036 399.104C94.8996 399.344 95.0756 399.864 95.3316 400.664C95.4596 399.96 95.5876 399.432 95.7156 399.08L97.6596 393.2H100.804ZM102.458 408.8V393.2H105.218V394.232C105.57 393.864 106.042 393.56 106.634 393.32C107.242 393.064 107.882 392.936 108.554 392.936C110.026 392.936 111.21 393.448 112.106 394.472C113.002 395.496 113.45 396.816 113.45 398.432C113.45 400.112 112.922 401.504 111.866 402.608C110.81 403.712 109.434 404.264 107.738 404.264C106.666 404.264 105.826 404.088 105.218 403.736V408.8H102.458ZM107.69 395.528C106.746 395.528 105.922 395.92 105.218 396.704V401.072C105.858 401.488 106.618 401.696 107.498 401.696C108.426 401.696 109.162 401.4 109.706 400.808C110.25 400.2 110.522 399.432 110.522 398.504C110.522 397.624 110.274 396.912 109.778 396.368C109.282 395.808 108.586 395.528 107.69 395.528ZM116.777 402.68C115.705 401.608 115.169 400.248 115.169 398.6C115.169 396.952 115.705 395.6 116.777 394.544C117.865 393.472 119.289 392.936 121.049 392.936C122.809 392.936 124.225 393.472 125.297 394.544C126.385 395.6 126.929 396.952 126.929 398.6C126.929 400.248 126.385 401.608 125.297 402.68C124.225 403.736 122.809 404.264 121.049 404.264C119.289 404.264 117.865 403.736 116.777 402.68ZM118.121 398.6C118.121 399.496 118.393 400.24 118.937 400.832C119.497 401.408 120.201 401.696 121.049 401.696C121.913 401.696 122.617 401.416 123.161 400.856C123.721 400.28 124.001 399.528 124.001 398.6C124.001 397.704 123.721 396.968 123.161 396.392C122.601 395.816 121.897 395.528 121.049 395.528C120.217 395.528 119.521 395.816 118.961 396.392C118.401 396.952 118.121 397.688 118.121 398.6ZM129.317 404V393.2C129.509 393.2 129.861 393.192 130.373 393.176C130.901 393.144 131.437 393.12 131.981 393.104C132.541 393.088 133.069 393.08 133.565 393.08C136.829 393.08 138.461 394.024 138.461 395.912C138.461 396.536 138.261 397.072 137.861 397.52C137.477 397.968 137.005 398.232 136.445 398.312V398.36C137.981 398.728 138.749 399.56 138.749 400.856C138.749 403.032 137.037 404.12 133.613 404.12C133.133 404.12 132.373 404.096 131.333 404.048C130.293 404.016 129.621 404 129.317 404ZM133.805 399.416H132.077V401.816C133.165 401.88 133.773 401.912 133.901 401.912C134.509 401.912 134.981 401.8 135.317 401.576C135.669 401.352 135.845 401.048 135.845 400.664C135.845 399.832 135.165 399.416 133.805 399.416ZM133.805 395.312C133.037 395.312 132.461 395.328 132.077 395.36V397.736H133.877C134.357 397.736 134.749 397.632 135.053 397.424C135.373 397.2 135.533 396.888 135.533 396.488C135.533 395.704 134.957 395.312 133.805 395.312ZM148.852 404V399.872H144.124V404H141.364V393.2H144.124V397.28H148.852V393.2H151.612V404H148.852ZM163.149 400.976L163.941 402.92C162.885 403.816 161.509 404.264 159.813 404.264C158.069 404.264 156.661 403.744 155.589 402.704C154.533 401.664 154.005 400.296 154.005 398.6C154.005 396.984 154.525 395.64 155.565 394.568C156.605 393.48 157.989 392.936 159.717 392.936C161.141 392.936 162.349 393.408 163.341 394.352C164.333 395.28 164.829 396.48 164.829 397.952C164.829 398.56 164.773 399.056 164.661 399.44H156.861C156.973 400.24 157.325 400.864 157.917 401.312C158.509 401.744 159.237 401.96 160.101 401.96C161.317 401.96 162.333 401.632 163.149 400.976ZM159.597 395.24C158.029 395.24 157.085 396.024 156.765 397.592H162.069C162.085 396.92 161.869 396.36 161.421 395.912C160.973 395.464 160.365 395.24 159.597 395.24ZM179.506 404V395.792H174.898V404H172.138V393.2H182.266V404H179.506ZM186.173 395.984L185.477 393.968C186.645 393.28 187.917 392.936 189.293 392.936C190.829 392.936 191.933 393.312 192.605 394.064C193.277 394.816 193.613 395.936 193.613 397.424V404H191.213V402.752C190.557 403.68 189.493 404.144 188.021 404.144C187.013 404.144 186.197 403.848 185.573 403.256C184.949 402.664 184.637 401.856 184.637 400.832C184.637 399.696 185.005 398.832 185.741 398.24C186.477 397.632 187.421 397.328 188.573 397.328C189.565 397.328 190.381 397.56 191.021 398.024C191.053 397.08 190.917 396.384 190.613 395.936C190.309 395.472 189.773 395.24 189.005 395.24C188.205 395.24 187.261 395.488 186.173 395.984ZM188.933 401.816C189.861 401.816 190.557 401.488 191.021 400.832V399.728C190.557 399.376 189.925 399.2 189.125 399.2C188.629 399.2 188.213 399.32 187.877 399.56C187.557 399.784 187.397 400.112 187.397 400.544C187.397 400.944 187.541 401.256 187.829 401.48C188.117 401.704 188.485 401.816 188.933 401.816ZM206.666 393.2L202.514 398.336L207.17 404H203.57L199.298 398.552L203.186 393.2H206.666ZM196.442 404V393.2H199.202V404H196.442ZM216.61 400.976L217.402 402.92C216.346 403.816 214.97 404.264 213.274 404.264C211.53 404.264 210.122 403.744 209.05 402.704C207.994 401.664 207.466 400.296 207.466 398.6C207.466 396.984 207.986 395.64 209.026 394.568C210.066 393.48 211.45 392.936 213.178 392.936C214.602 392.936 215.81 393.408 216.802 394.352C217.794 395.28 218.29 396.48 218.29 397.952C218.29 398.56 218.234 399.056 218.122 399.44H210.322C210.434 400.24 210.786 400.864 211.378 401.312C211.97 401.744 212.698 401.96 213.562 401.96C214.778 401.96 215.794 401.632 216.61 400.976ZM213.058 395.24C211.49 395.24 210.546 396.024 210.226 397.592H215.53C215.546 396.92 215.33 396.36 214.882 395.912C214.434 395.464 213.826 395.24 213.058 395.24ZM219.267 395.96V393.2H229.107V395.96H225.579V404H222.819V395.96H219.267ZM231.923 395.984L231.227 393.968C232.395 393.28 233.667 392.936 235.043 392.936C236.579 392.936 237.683 393.312 238.355 394.064C239.027 394.816 239.363 395.936 239.363 397.424V404H236.963V402.752C236.307 403.68 235.243 404.144 233.771 404.144C232.763 404.144 231.947 403.848 231.323 403.256C230.699 402.664 230.387 401.856 230.387 400.832C230.387 399.696 230.755 398.832 231.491 398.24C232.227 397.632 233.171 397.328 234.323 397.328C235.315 397.328 236.131 397.56 236.771 398.024C236.803 397.08 236.667 396.384 236.363 395.936C236.059 395.472 235.523 395.24 234.755 395.24C233.955 395.24 233.011 395.488 231.923 395.984ZM234.683 401.816C235.611 401.816 236.307 401.488 236.771 400.832V399.728C236.307 399.376 235.675 399.2 234.875 399.2C234.379 399.2 233.963 399.32 233.627 399.56C233.307 399.784 233.147 400.112 233.147 400.544C233.147 400.944 233.291 401.256 233.579 401.48C233.867 401.704 234.235 401.816 234.683 401.816Z" fill="#141414"/>
<rect x="1.5" y="326.5" width="297" height="107" rx="6.5" stroke="#E4002B" stroke-width="3"/>
</svg>
