<svg width="1572" height="407" viewBox="0 0 1572 407" fill="none" xmlns="http://www.w3.org/2000/svg">
<path d="M61.2647 51V43.824H53.5847V51H50.6327V34.2H53.5847V41.064H61.2647V34.2H64.1927V51H61.2647ZM68.8916 42.984L68.1956 40.968C69.3636 40.28 70.6356 39.936 72.0116 39.936C73.5476 39.936 74.6516 40.312 75.3236 41.064C75.9956 41.816 76.3316 42.936 76.3316 44.424V51H73.9316V49.752C73.2756 50.68 72.2116 51.144 70.7396 51.144C69.7316 51.144 68.9156 50.848 68.2916 50.256C67.6676 49.664 67.3556 48.856 67.3556 47.832C67.3556 46.696 67.7236 45.832 68.4596 45.24C69.1956 44.632 70.1396 44.328 71.2916 44.328C72.2836 44.328 73.0996 44.56 73.7396 45.024C73.7716 44.08 73.6356 43.384 73.3316 42.936C73.0276 42.472 72.4916 42.24 71.7236 42.24C70.9236 42.24 69.9796 42.488 68.8916 42.984ZM71.6516 48.816C72.5796 48.816 73.2756 48.488 73.7396 47.832V46.728C73.2756 46.376 72.6436 46.2 71.8436 46.2C71.3476 46.2 70.9316 46.32 70.5956 46.56C70.2756 46.784 70.1156 47.112 70.1156 47.544C70.1156 47.944 70.2596 48.256 70.5476 48.48C70.8356 48.704 71.2036 48.816 71.6516 48.816ZM92.4309 47.376L93.7269 49.392C93.2789 50 92.6709 50.464 91.9029 50.784C91.1509 51.104 90.3269 51.264 89.4309 51.264C87.6709 51.264 86.2549 50.744 85.1829 49.704C84.1109 48.664 83.5749 47.296 83.5749 45.6C83.5749 44 84.1029 42.656 85.1589 41.568C86.2149 40.48 87.5509 39.936 89.1669 39.936C91.0869 39.936 92.5349 40.424 93.5109 41.4L92.2149 43.584C91.4949 42.88 90.5989 42.528 89.5269 42.528C88.7269 42.528 88.0229 42.816 87.4149 43.392C86.8229 43.952 86.5269 44.688 86.5269 45.6C86.5269 46.528 86.8309 47.28 87.4389 47.856C88.0629 48.416 88.7989 48.696 89.6469 48.696C90.7029 48.696 91.6309 48.256 92.4309 47.376ZM96.7823 42.984L96.0863 40.968C97.2543 40.28 98.5263 39.936 99.9023 39.936C101.438 39.936 102.542 40.312 103.214 41.064C103.886 41.816 104.222 42.936 104.222 44.424V51H101.822V49.752C101.166 50.68 100.102 51.144 98.6303 51.144C97.6223 51.144 96.8063 50.848 96.1823 50.256C95.5583 49.664 95.2463 48.856 95.2463 47.832C95.2463 46.696 95.6143 45.832 96.3503 45.24C97.0863 44.632 98.0303 44.328 99.1823 44.328C100.174 44.328 100.99 44.56 101.63 45.024C101.662 44.08 101.526 43.384 101.222 42.936C100.918 42.472 100.382 42.24 99.6143 42.24C98.8143 42.24 97.8703 42.488 96.7823 42.984ZM99.5423 48.816C100.47 48.816 101.166 48.488 101.63 47.832V46.728C101.166 46.376 100.534 46.2 99.7343 46.2C99.2383 46.2 98.8223 46.32 98.4863 46.56C98.1663 46.784 98.0063 47.112 98.0063 47.544C98.0063 47.944 98.1503 48.256 98.4383 48.48C98.7263 48.704 99.0943 48.816 99.5423 48.816ZM109.812 51H107.052V40.2H109.812V47.04L114.852 40.2H117.612V51H114.852V44.16L109.812 51ZM108.66 34.8H111.18C111.18 35.296 111.276 35.712 111.468 36.048C111.676 36.384 111.996 36.552 112.428 36.552C112.812 36.552 113.1 36.384 113.292 36.048C113.484 35.712 113.58 35.296 113.58 34.8H116.1C116.1 35.888 115.78 36.784 115.14 37.488C114.5 38.176 113.596 38.52 112.428 38.52C111.148 38.52 110.196 38.184 109.572 37.512C108.964 36.824 108.66 35.92 108.66 34.8ZM119.564 42.96V40.2H129.404V42.96H125.876V51H123.116V42.96H119.564ZM139.524 47.976L140.316 49.92C139.26 50.816 137.884 51.264 136.188 51.264C134.444 51.264 133.036 50.744 131.964 49.704C130.908 48.664 130.38 47.296 130.38 45.6C130.38 43.984 130.9 42.64 131.94 41.568C132.98 40.48 134.364 39.936 136.092 39.936C137.516 39.936 138.724 40.408 139.716 41.352C140.708 42.28 141.204 43.48 141.204 44.952C141.204 45.56 141.148 46.056 141.036 46.44H133.236C133.348 47.24 133.7 47.864 134.292 48.312C134.884 48.744 135.612 48.96 136.476 48.96C137.692 48.96 138.708 48.632 139.524 47.976ZM135.972 42.24C134.404 42.24 133.46 43.024 133.14 44.592H138.444C138.46 43.92 138.244 43.36 137.796 42.912C137.348 42.464 136.74 42.24 135.972 42.24ZM156.001 51V46.872H151.273V51H148.513V40.2H151.273V44.28H156.001V40.2H158.761V51H156.001ZM162.761 49.68C161.689 48.608 161.153 47.248 161.153 45.6C161.153 43.952 161.689 42.6 162.761 41.544C163.849 40.472 165.273 39.936 167.033 39.936C168.793 39.936 170.209 40.472 171.281 41.544C172.369 42.6 172.913 43.952 172.913 45.6C172.913 47.248 172.369 48.608 171.281 49.68C170.209 50.736 168.793 51.264 167.033 51.264C165.273 51.264 163.849 50.736 162.761 49.68ZM164.105 45.6C164.105 46.496 164.377 47.24 164.921 47.832C165.481 48.408 166.185 48.696 167.033 48.696C167.897 48.696 168.601 48.416 169.145 47.856C169.705 47.28 169.985 46.528 169.985 45.6C169.985 44.704 169.705 43.968 169.145 43.392C168.585 42.816 167.881 42.528 167.033 42.528C166.201 42.528 165.505 42.816 164.945 43.392C164.385 43.952 164.105 44.688 164.105 45.6ZM175.302 51V40.2C175.494 40.2 175.846 40.192 176.358 40.176C176.886 40.144 177.422 40.12 177.966 40.104C178.526 40.088 179.054 40.08 179.55 40.08C182.814 40.08 184.446 41.024 184.446 42.912C184.446 43.536 184.246 44.072 183.846 44.52C183.462 44.968 182.99 45.232 182.43 45.312V45.36C183.966 45.728 184.734 46.56 184.734 47.856C184.734 50.032 183.022 51.12 179.598 51.12C179.118 51.12 178.358 51.096 177.318 51.048C176.278 51.016 175.606 51 175.302 51ZM179.79 46.416H178.062V48.816C179.15 48.88 179.758 48.912 179.886 48.912C180.494 48.912 180.966 48.8 181.302 48.576C181.654 48.352 181.83 48.048 181.83 47.664C181.83 46.832 181.15 46.416 179.79 46.416ZM179.79 42.312C179.022 42.312 178.446 42.328 178.062 42.36V44.736H179.862C180.342 44.736 180.734 44.632 181.038 44.424C181.358 44.2 181.518 43.888 181.518 43.488C181.518 42.704 180.942 42.312 179.79 42.312ZM187.349 51V40.2H190.109V43.152H191.453C193.149 43.152 194.365 43.504 195.101 44.208C195.837 44.912 196.205 45.808 196.205 46.896C196.205 48.064 195.805 49.04 195.005 49.824C194.205 50.608 192.949 51 191.237 51H187.349ZM197.741 51V40.2H200.501V51H197.741ZM191.213 45.36H190.109V48.6H191.189C192.581 48.6 193.277 48.064 193.277 46.992C193.277 45.904 192.589 45.36 191.213 45.36ZM206.327 51H203.567V40.2H206.327V47.04L211.367 40.2H214.127V51H211.367V44.16L206.327 51ZM205.175 34.8H207.695C207.695 35.296 207.791 35.712 207.983 36.048C208.191 36.384 208.511 36.552 208.943 36.552C209.327 36.552 209.615 36.384 209.807 36.048C209.999 35.712 210.095 35.296 210.095 34.8H212.615C212.615 35.888 212.295 36.784 211.655 37.488C211.015 38.176 210.111 38.52 208.943 38.52C207.663 38.52 206.711 38.184 206.087 37.512C205.479 36.824 205.175 35.92 205.175 34.8ZM229.662 51V42.792H225.054V51H222.294V40.2H232.422V51H229.662ZM236.425 49.68C235.353 48.608 234.817 47.248 234.817 45.6C234.817 43.952 235.353 42.6 236.425 41.544C237.513 40.472 238.937 39.936 240.697 39.936C242.457 39.936 243.873 40.472 244.945 41.544C246.033 42.6 246.577 43.952 246.577 45.6C246.577 47.248 246.033 48.608 244.945 49.68C243.873 50.736 242.457 51.264 240.697 51.264C238.937 51.264 237.513 50.736 236.425 49.68ZM237.769 45.6C237.769 46.496 238.041 47.24 238.585 47.832C239.145 48.408 239.849 48.696 240.697 48.696C241.561 48.696 242.265 48.416 242.809 47.856C243.369 47.28 243.649 46.528 243.649 45.6C243.649 44.704 243.369 43.968 242.809 43.392C242.249 42.816 241.545 42.528 240.697 42.528C239.865 42.528 239.169 42.816 238.609 43.392C238.049 43.952 237.769 44.688 237.769 45.6ZM255.718 51V42.96H252.862L252.79 44.112C252.614 46.048 252.318 47.536 251.902 48.576C251.502 49.616 250.99 50.32 250.366 50.688C249.758 51.04 248.942 51.216 247.918 51.216L247.678 48.528C248.03 48.56 248.358 48.464 248.662 48.24C248.982 48 249.286 47.488 249.574 46.704C249.862 45.904 250.046 44.856 250.126 43.56L250.294 40.2H258.478V51H255.718ZM261.552 51V40.2H264.312V43.152H265.8C267.496 43.152 268.712 43.504 269.448 44.208C270.184 44.912 270.552 45.808 270.552 46.896C270.552 48.064 270.152 49.04 269.352 49.824C268.552 50.608 267.296 51 265.584 51H261.552ZM265.56 45.36H264.312V48.6H265.536C266.928 48.6 267.624 48.064 267.624 46.992C267.624 45.904 266.936 45.36 265.56 45.36ZM276.571 51.264C275.627 51.264 274.707 51.096 273.811 50.76C272.915 50.408 272.267 49.976 271.867 49.464L273.283 47.736C273.603 48.104 274.059 48.416 274.651 48.672C275.259 48.928 275.819 49.056 276.331 49.056C277.035 49.056 277.579 48.936 277.963 48.696C278.347 48.456 278.539 48.136 278.539 47.736C278.539 47.368 278.395 47.072 278.107 46.848C277.819 46.624 277.419 46.512 276.907 46.512H274.891V44.664H276.787C277.219 44.664 277.563 44.536 277.819 44.28C278.091 44.024 278.227 43.712 278.227 43.344C278.227 42.56 277.595 42.168 276.331 42.168C275.339 42.168 274.355 42.584 273.379 43.416L272.227 41.76C273.267 40.544 274.811 39.936 276.859 39.936C278.267 39.936 279.339 40.208 280.075 40.752C280.811 41.296 281.179 42.048 281.179 43.008C281.179 43.536 281.003 44.016 280.651 44.448C280.299 44.88 279.811 45.2 279.187 45.408V45.456C279.923 45.6 280.483 45.904 280.867 46.368C281.267 46.816 281.467 47.36 281.467 48C281.467 49.008 281.019 49.808 280.123 50.4C279.227 50.976 278.043 51.264 276.571 51.264ZM285.011 49.68C283.939 48.608 283.403 47.248 283.403 45.6C283.403 43.952 283.939 42.6 285.011 41.544C286.099 40.472 287.523 39.936 289.283 39.936C291.043 39.936 292.459 40.472 293.531 41.544C294.619 42.6 295.163 43.952 295.163 45.6C295.163 47.248 294.619 48.608 293.531 49.68C292.459 50.736 291.043 51.264 289.283 51.264C287.523 51.264 286.099 50.736 285.011 49.68ZM286.355 45.6C286.355 46.496 286.627 47.24 287.171 47.832C287.731 48.408 288.435 48.696 289.283 48.696C290.147 48.696 290.851 48.416 291.395 47.856C291.955 47.28 292.235 46.528 292.235 45.6C292.235 44.704 291.955 43.968 291.395 43.392C290.835 42.816 290.131 42.528 289.283 42.528C288.451 42.528 287.755 42.816 287.195 43.392C286.635 43.952 286.355 44.688 286.355 45.6ZM297.552 51V40.2C297.744 40.2 298.096 40.192 298.608 40.176C299.136 40.144 299.672 40.12 300.216 40.104C300.776 40.088 301.304 40.08 301.8 40.08C305.064 40.08 306.696 41.024 306.696 42.912C306.696 43.536 306.496 44.072 306.096 44.52C305.712 44.968 305.24 45.232 304.68 45.312V45.36C306.216 45.728 306.984 46.56 306.984 47.856C306.984 50.032 305.272 51.12 301.848 51.12C301.368 51.12 300.608 51.096 299.568 51.048C298.528 51.016 297.856 51 297.552 51ZM302.04 46.416H300.312V48.816C301.4 48.88 302.008 48.912 302.136 48.912C302.744 48.912 303.216 48.8 303.552 48.576C303.904 48.352 304.08 48.048 304.08 47.664C304.08 46.832 303.4 46.416 302.04 46.416ZM302.04 42.312C301.272 42.312 300.696 42.328 300.312 42.36V44.736H302.112C302.592 44.736 302.984 44.632 303.288 44.424C303.608 44.2 303.768 43.888 303.768 43.488C303.768 42.704 303.192 42.312 302.04 42.312ZM310.439 42.984L309.743 40.968C310.911 40.28 312.183 39.936 313.559 39.936C315.095 39.936 316.199 40.312 316.871 41.064C317.543 41.816 317.879 42.936 317.879 44.424V51H315.479V49.752C314.823 50.68 313.759 51.144 312.287 51.144C311.279 51.144 310.463 50.848 309.839 50.256C309.215 49.664 308.903 48.856 308.903 47.832C308.903 46.696 309.271 45.832 310.007 45.24C310.743 44.632 311.687 44.328 312.839 44.328C313.831 44.328 314.647 44.56 315.287 45.024C315.319 44.08 315.183 43.384 314.879 42.936C314.575 42.472 314.039 42.24 313.271 42.24C312.471 42.24 311.527 42.488 310.439 42.984ZM313.199 48.816C314.127 48.816 314.823 48.488 315.287 47.832V46.728C314.823 46.376 314.191 46.2 313.391 46.2C312.895 46.2 312.479 46.32 312.143 46.56C311.823 46.784 311.663 47.112 311.663 47.544C311.663 47.944 311.807 48.256 312.095 48.48C312.383 48.704 312.751 48.816 313.199 48.816ZM319.58 42.96V40.2H329.42V42.96H325.892V51H323.132V42.96H319.58ZM339.539 47.976L340.331 49.92C339.275 50.816 337.899 51.264 336.203 51.264C334.459 51.264 333.051 50.744 331.979 49.704C330.923 48.664 330.395 47.296 330.395 45.6C330.395 43.984 330.915 42.64 331.955 41.568C332.995 40.48 334.379 39.936 336.107 39.936C337.531 39.936 338.739 40.408 339.731 41.352C340.723 42.28 341.219 43.48 341.219 44.952C341.219 45.56 341.163 46.056 341.051 46.44H333.251C333.363 47.24 333.715 47.864 334.307 48.312C334.899 48.744 335.627 48.96 336.491 48.96C337.707 48.96 338.723 48.632 339.539 47.976ZM335.987 42.24C334.419 42.24 333.475 43.024 333.155 44.592H338.459C338.475 43.92 338.259 43.36 337.811 42.912C337.363 42.464 336.755 42.24 335.987 42.24ZM350.195 51V42.96H347.339L347.267 44.112C347.091 46.048 346.795 47.536 346.379 48.576C345.979 49.616 345.467 50.32 344.843 50.688C344.235 51.04 343.419 51.216 342.395 51.216L342.155 48.528C342.507 48.56 342.835 48.464 343.139 48.24C343.459 48 343.763 47.488 344.051 46.704C344.339 45.904 344.523 44.856 344.603 43.56L344.771 40.2H352.955V51H350.195ZM356.028 51V40.2H358.788V43.152H360.276C361.972 43.152 363.188 43.504 363.924 44.208C364.66 44.912 365.028 45.808 365.028 46.896C365.028 48.064 364.628 49.04 363.828 49.824C363.028 50.608 361.772 51 360.06 51H356.028ZM360.036 45.36H358.788V48.6H360.012C361.404 48.6 362.1 48.064 362.1 46.992C362.1 45.904 361.412 45.36 360.036 45.36Z" fill="white"/>
<rect x="1.5" y="1.5" width="413" height="86" rx="6.5" stroke="#E4002B" stroke-width="3"/>
<path d="M97.7685 213V207.24H99.5685C100.064 206.632 100.584 205.392 101.128 203.52C101.688 201.632 102.032 199.312 102.16 196.56L102.328 193.2H112.744V207.24H115.024V213H112.264V210H100.528V213H97.7685ZM104.92 198.888C104.776 200.856 104.48 202.624 104.032 204.192C103.584 205.76 103.176 206.776 102.808 207.24H109.816V195.96H105.184L104.92 198.888ZM117.997 201.984L117.301 199.968C118.469 199.28 119.741 198.936 121.117 198.936C122.653 198.936 123.757 199.312 124.429 200.064C125.101 200.816 125.437 201.936 125.437 203.424V210H123.037V208.752C122.381 209.68 121.317 210.144 119.845 210.144C118.837 210.144 118.021 209.848 117.397 209.256C116.773 208.664 116.461 207.856 116.461 206.832C116.461 205.696 116.829 204.832 117.565 204.24C118.301 203.632 119.245 203.328 120.397 203.328C121.389 203.328 122.205 203.56 122.845 204.024C122.877 203.08 122.741 202.384 122.437 201.936C122.133 201.472 121.597 201.24 120.829 201.24C120.029 201.24 119.085 201.488 117.997 201.984ZM120.757 207.816C121.685 207.816 122.381 207.488 122.845 206.832V205.728C122.381 205.376 121.749 205.2 120.949 205.2C120.453 205.2 120.037 205.32 119.701 205.56C119.381 205.784 119.221 206.112 119.221 206.544C119.221 206.944 119.365 207.256 119.653 207.48C119.941 207.704 120.309 207.816 120.757 207.816ZM135.754 210V205.872H131.026V210H128.266V199.2H131.026V203.28H135.754V199.2H138.514V210H135.754ZM149.067 210V205.872H144.339V210H141.579V199.2H144.339V203.28H149.067V199.2H151.827V210H149.067ZM154.891 210V199.2H157.651V202.152H158.995C160.691 202.152 161.907 202.504 162.643 203.208C163.379 203.912 163.747 204.808 163.747 205.896C163.747 207.064 163.347 208.04 162.547 208.824C161.747 209.608 160.491 210 158.779 210H154.891ZM165.283 210V199.2H168.043V210H165.283ZM158.755 204.36H157.651V207.6H158.731C160.123 207.6 160.819 207.064 160.819 205.992C160.819 204.904 160.131 204.36 158.755 204.36ZM179.582 206.976L180.374 208.92C179.318 209.816 177.942 210.264 176.246 210.264C174.502 210.264 173.094 209.744 172.022 208.704C170.966 207.664 170.438 206.296 170.438 204.6C170.438 202.984 170.958 201.64 171.998 200.568C173.038 199.48 174.422 198.936 176.15 198.936C177.574 198.936 178.782 199.408 179.774 200.352C180.766 201.28 181.262 202.48 181.262 203.952C181.262 204.56 181.206 205.056 181.094 205.44H173.294C173.406 206.24 173.758 206.864 174.35 207.312C174.942 207.744 175.67 207.96 176.534 207.96C177.75 207.96 178.766 207.632 179.582 206.976ZM176.03 201.24C174.462 201.24 173.518 202.024 173.198 203.592H178.502C178.518 202.92 178.302 202.36 177.854 201.912C177.406 201.464 176.798 201.24 176.03 201.24ZM198.987 199.2L194.739 210C193.971 211.872 193.283 213.136 192.675 213.792C192.083 214.464 191.379 214.8 190.563 214.8C189.779 214.8 189.003 214.52 188.235 213.96L189.123 211.872C189.555 212.128 189.931 212.256 190.251 212.256C190.907 212.256 191.459 211.696 191.907 210.576L192.147 210L187.155 199.2H190.467L192.987 205.104C193.083 205.344 193.259 205.864 193.515 206.664C193.643 205.96 193.771 205.432 193.899 205.08L195.843 199.2H198.987ZM200.641 210V199.2H203.401V207.432H206.449V199.2H209.209V207.432H212.281V199.2H215.041V210H200.641ZM225.206 210V201.96H222.35L222.278 203.112C222.102 205.048 221.806 206.536 221.39 207.576C220.99 208.616 220.478 209.32 219.854 209.688C219.246 210.04 218.43 210.216 217.406 210.216L217.166 207.528C217.518 207.56 217.846 207.464 218.15 207.24C218.47 207 218.774 206.488 219.062 205.704C219.35 204.904 219.534 203.856 219.614 202.56L219.782 199.2H227.966V210H225.206ZM233.8 210H231.04V199.2H233.8V206.04L238.84 199.2H241.6V210H238.84V203.16L233.8 210ZM249.766 210V199.2C249.958 199.2 250.31 199.192 250.822 199.176C251.35 199.144 251.886 199.12 252.43 199.104C252.99 199.088 253.518 199.08 254.014 199.08C257.278 199.08 258.91 200.024 258.91 201.912C258.91 202.536 258.71 203.072 258.31 203.52C257.926 203.968 257.454 204.232 256.894 204.312V204.36C258.43 204.728 259.198 205.56 259.198 206.856C259.198 209.032 257.486 210.12 254.062 210.12C253.582 210.12 252.822 210.096 251.782 210.048C250.742 210.016 250.07 210 249.766 210ZM254.254 205.416H252.526V207.816C253.614 207.88 254.222 207.912 254.35 207.912C254.958 207.912 255.43 207.8 255.766 207.576C256.118 207.352 256.294 207.048 256.294 206.664C256.294 205.832 255.614 205.416 254.254 205.416ZM254.254 201.312C253.486 201.312 252.91 201.328 252.526 201.36V203.736H254.326C254.806 203.736 255.198 203.632 255.502 203.424C255.822 203.2 255.982 202.888 255.982 202.488C255.982 201.704 255.406 201.312 254.254 201.312ZM279.355 206.16L280.483 208.368C279.955 208.928 279.195 209.384 278.203 209.736C277.227 210.088 276.195 210.264 275.107 210.264C272.531 210.264 270.443 209.472 268.843 207.888C267.243 206.304 266.443 204.208 266.443 201.6C266.443 199.088 267.203 197.016 268.723 195.384C270.243 193.752 272.347 192.936 275.035 192.936C277.195 192.936 278.899 193.504 280.147 194.64L278.827 196.824C277.691 196.072 276.427 195.696 275.035 195.696C273.451 195.696 272.139 196.232 271.099 197.304C270.075 198.376 269.563 199.808 269.563 201.6C269.563 203.344 270.099 204.768 271.171 205.872C272.259 206.96 273.659 207.504 275.371 207.504C276.859 207.504 278.187 207.056 279.355 206.16ZM286.37 210H283.418V193.2C283.77 193.2 284.674 193.192 286.13 193.176C287.602 193.16 288.402 193.152 288.53 193.152C292.594 193.152 294.626 194.88 294.626 198.336C294.626 199.632 294.298 200.688 293.642 201.504C292.986 202.304 292.234 202.848 291.386 203.136L296.642 210H293.066L288.434 203.712H286.37V210ZM288.386 195.912C288.098 195.912 287.426 195.928 286.37 195.96V200.952H288.29C289.202 200.952 289.962 200.728 290.57 200.28C291.194 199.816 291.506 199.176 291.506 198.36C291.506 196.728 290.466 195.912 288.386 195.912ZM299.215 210V193.2H302.191L307.927 201.048L313.399 193.2H316.183V210H313.255V197.856L307.951 205.32H307.519L302.167 197.928V210H299.215Z" fill="white"/>
<rect x="1.5" y="160.5" width="413" height="86" rx="6.5" stroke="#E4002B" stroke-width="3"/>
<path d="M62.1834 365.16L63.3114 367.368C62.7834 367.928 62.0234 368.384 61.0314 368.736C60.0554 369.088 59.0234 369.264 57.9354 369.264C55.3594 369.264 53.2714 368.472 51.6714 366.888C50.0714 365.304 49.2714 363.208 49.2714 360.6C49.2714 358.088 50.0314 356.016 51.5514 354.384C53.0714 352.752 55.1754 351.936 57.8634 351.936C60.0234 351.936 61.7274 352.504 62.9754 353.64L61.6554 355.824C60.5194 355.072 59.2554 354.696 57.8634 354.696C56.2794 354.696 54.9674 355.232 53.9274 356.304C52.9034 357.376 52.3914 358.808 52.3914 360.6C52.3914 362.344 52.9274 363.768 53.9994 364.872C55.0874 365.96 56.4874 366.504 58.1994 366.504C59.6874 366.504 61.0154 366.056 62.1834 365.16ZM69.198 369H66.246V352.2C66.598 352.2 67.502 352.192 68.958 352.176C70.43 352.16 71.23 352.152 71.358 352.152C75.422 352.152 77.454 353.88 77.454 357.336C77.454 358.632 77.126 359.688 76.47 360.504C75.814 361.304 75.062 361.848 74.214 362.136L79.47 369H75.894L71.262 362.712H69.198V369ZM71.214 354.912C70.926 354.912 70.254 354.928 69.198 354.96V359.952H71.118C72.03 359.952 72.79 359.728 73.398 359.28C74.022 358.816 74.334 358.176 74.334 357.36C74.334 355.728 73.294 354.912 71.214 354.912ZM82.0428 369V352.2H85.0188L90.7548 360.048L96.2268 352.2H99.0108V369H96.0828V356.856L90.7788 364.32H90.3468L84.9948 356.928V369H82.0428ZM107.97 369V358.2C108.162 358.2 108.514 358.192 109.026 358.176C109.554 358.144 110.09 358.12 110.634 358.104C111.194 358.088 111.722 358.08 112.218 358.08C115.482 358.08 117.114 359.024 117.114 360.912C117.114 361.536 116.914 362.072 116.514 362.52C116.13 362.968 115.658 363.232 115.098 363.312V363.36C116.634 363.728 117.402 364.56 117.402 365.856C117.402 368.032 115.69 369.12 112.266 369.12C111.786 369.12 111.026 369.096 109.986 369.048C108.946 369.016 108.274 369 107.97 369ZM112.458 364.416H110.73V366.816C111.818 366.88 112.426 366.912 112.554 366.912C113.162 366.912 113.634 366.8 113.97 366.576C114.322 366.352 114.498 366.048 114.498 365.664C114.498 364.832 113.818 364.416 112.458 364.416ZM112.458 360.312C111.69 360.312 111.114 360.328 110.73 360.36V362.736H112.53C113.01 362.736 113.402 362.632 113.706 362.424C114.026 362.2 114.186 361.888 114.186 361.488C114.186 360.704 113.61 360.312 112.458 360.312ZM128.488 365.976L129.28 367.92C128.224 368.816 126.848 369.264 125.152 369.264C123.408 369.264 122 368.744 120.928 367.704C119.872 366.664 119.344 365.296 119.344 363.6C119.344 361.984 119.864 360.64 120.904 359.568C121.944 358.48 123.328 357.936 125.056 357.936C126.48 357.936 127.688 358.408 128.68 359.352C129.672 360.28 130.168 361.48 130.168 362.952C130.168 363.56 130.112 364.056 130 364.44H122.2C122.312 365.24 122.664 365.864 123.256 366.312C123.848 366.744 124.576 366.96 125.44 366.96C126.656 366.96 127.672 366.632 128.488 365.976ZM124.936 360.24C123.368 360.24 122.424 361.024 122.104 362.592H127.408C127.424 361.92 127.208 361.36 126.76 360.912C126.312 360.464 125.704 360.24 124.936 360.24ZM132.391 373.8V358.2H135.151V359.232C135.503 358.864 135.975 358.56 136.567 358.32C137.175 358.064 137.815 357.936 138.487 357.936C139.959 357.936 141.143 358.448 142.039 359.472C142.935 360.496 143.383 361.816 143.383 363.432C143.383 365.112 142.855 366.504 141.799 367.608C140.743 368.712 139.367 369.264 137.671 369.264C136.599 369.264 135.759 369.088 135.151 368.736V373.8H132.391ZM137.623 360.528C136.679 360.528 135.855 360.92 135.151 361.704V366.072C135.791 366.488 136.551 366.696 137.431 366.696C138.359 366.696 139.095 366.4 139.639 365.808C140.183 365.2 140.455 364.432 140.455 363.504C140.455 362.624 140.207 361.912 139.711 361.368C139.215 360.808 138.519 360.528 137.623 360.528ZM153.262 369V364.872H148.534V369H145.774V358.2H148.534V362.28H153.262V358.2H156.022V369H153.262ZM169.503 358.2L165.255 369C164.487 370.872 163.799 372.136 163.191 372.792C162.599 373.464 161.895 373.8 161.079 373.8C160.295 373.8 159.519 373.52 158.751 372.96L159.639 370.872C160.071 371.128 160.447 371.256 160.767 371.256C161.423 371.256 161.975 370.696 162.423 369.576L162.663 369L157.671 358.2H160.983L163.503 364.104C163.599 364.344 163.775 364.864 164.031 365.664C164.159 364.96 164.287 364.432 164.415 364.08L166.359 358.2H169.503ZM177.347 369V360.96H174.491L174.419 362.112C174.243 364.048 173.947 365.536 173.531 366.576C173.131 367.616 172.619 368.32 171.995 368.688C171.387 369.04 170.571 369.216 169.547 369.216L169.307 366.528C169.659 366.56 169.987 366.464 170.291 366.24C170.611 366 170.915 365.488 171.203 364.704C171.491 363.904 171.675 362.856 171.755 361.56L171.923 358.2H180.107V369H177.347ZM184.021 360.984L183.325 358.968C184.493 358.28 185.765 357.936 187.141 357.936C188.677 357.936 189.781 358.312 190.453 359.064C191.125 359.816 191.461 360.936 191.461 362.424V369H189.061V367.752C188.405 368.68 187.341 369.144 185.869 369.144C184.861 369.144 184.045 368.848 183.421 368.256C182.797 367.664 182.485 366.856 182.485 365.832C182.485 364.696 182.853 363.832 183.589 363.24C184.325 362.632 185.269 362.328 186.421 362.328C187.413 362.328 188.229 362.56 188.869 363.024C188.901 362.08 188.765 361.384 188.461 360.936C188.157 360.472 187.621 360.24 186.853 360.24C186.053 360.24 185.109 360.488 184.021 360.984ZM186.781 366.816C187.709 366.816 188.405 366.488 188.869 365.832V364.728C188.405 364.376 187.773 364.2 186.973 364.2C186.477 364.2 186.061 364.32 185.725 364.56C185.405 364.784 185.245 365.112 185.245 365.544C185.245 365.944 185.389 366.256 185.677 366.48C185.965 366.704 186.333 366.816 186.781 366.816ZM209.792 358.2L205.544 369C204.776 370.872 204.088 372.136 203.48 372.792C202.888 373.464 202.184 373.8 201.368 373.8C200.584 373.8 199.808 373.52 199.04 372.96L199.928 370.872C200.36 371.128 200.736 371.256 201.056 371.256C201.712 371.256 202.264 370.696 202.712 369.576L202.952 369L197.96 358.2H201.272L203.792 364.104C203.888 364.344 204.064 364.864 204.32 365.664C204.448 364.96 204.576 364.432 204.704 364.08L206.648 358.2H209.792ZM211.446 373.8V358.2H214.206V359.232C214.558 358.864 215.03 358.56 215.622 358.32C216.23 358.064 216.87 357.936 217.542 357.936C219.014 357.936 220.198 358.448 221.094 359.472C221.99 360.496 222.438 361.816 222.438 363.432C222.438 365.112 221.91 366.504 220.854 367.608C219.798 368.712 218.422 369.264 216.726 369.264C215.654 369.264 214.814 369.088 214.206 368.736V373.8H211.446ZM216.678 360.528C215.734 360.528 214.91 360.92 214.206 361.704V366.072C214.846 366.488 215.606 366.696 216.486 366.696C217.414 366.696 218.15 366.4 218.694 365.808C219.238 365.2 219.51 364.432 219.51 363.504C219.51 362.624 219.262 361.912 218.766 361.368C218.27 360.808 217.574 360.528 216.678 360.528ZM225.765 367.68C224.693 366.608 224.157 365.248 224.157 363.6C224.157 361.952 224.693 360.6 225.765 359.544C226.853 358.472 228.277 357.936 230.037 357.936C231.797 357.936 233.213 358.472 234.285 359.544C235.373 360.6 235.917 361.952 235.917 363.6C235.917 365.248 235.373 366.608 234.285 367.68C233.213 368.736 231.797 369.264 230.037 369.264C228.277 369.264 226.853 368.736 225.765 367.68ZM227.109 363.6C227.109 364.496 227.381 365.24 227.925 365.832C228.485 366.408 229.189 366.696 230.037 366.696C230.901 366.696 231.605 366.416 232.149 365.856C232.709 365.28 232.989 364.528 232.989 363.6C232.989 362.704 232.709 361.968 232.149 361.392C231.589 360.816 230.885 360.528 230.037 360.528C229.205 360.528 228.509 360.816 227.949 361.392C227.389 361.952 227.109 362.688 227.109 363.6ZM238.306 369V358.2C238.498 358.2 238.85 358.192 239.362 358.176C239.89 358.144 240.426 358.12 240.97 358.104C241.53 358.088 242.058 358.08 242.554 358.08C245.818 358.08 247.45 359.024 247.45 360.912C247.45 361.536 247.25 362.072 246.85 362.52C246.466 362.968 245.994 363.232 245.434 363.312V363.36C246.97 363.728 247.738 364.56 247.738 365.856C247.738 368.032 246.026 369.12 242.602 369.12C242.122 369.12 241.362 369.096 240.322 369.048C239.282 369.016 238.61 369 238.306 369ZM242.794 364.416H241.066V366.816C242.154 366.88 242.762 366.912 242.89 366.912C243.498 366.912 243.97 366.8 244.306 366.576C244.658 366.352 244.834 366.048 244.834 365.664C244.834 364.832 244.154 364.416 242.794 364.416ZM242.794 360.312C242.026 360.312 241.45 360.328 241.066 360.36V362.736H242.866C243.346 362.736 243.738 362.632 244.042 362.424C244.362 362.2 244.522 361.888 244.522 361.488C244.522 360.704 243.946 360.312 242.794 360.312ZM258.824 365.976L259.616 367.92C258.56 368.816 257.184 369.264 255.488 369.264C253.744 369.264 252.336 368.744 251.264 367.704C250.208 366.664 249.68 365.296 249.68 363.6C249.68 361.984 250.2 360.64 251.24 359.568C252.28 358.48 253.664 357.936 255.392 357.936C256.816 357.936 258.024 358.408 259.016 359.352C260.008 360.28 260.504 361.48 260.504 362.952C260.504 363.56 260.448 364.056 260.336 364.44H252.536C252.648 365.24 253 365.864 253.592 366.312C254.184 366.744 254.912 366.96 255.776 366.96C256.992 366.96 258.008 366.632 258.824 365.976ZM255.272 360.24C253.704 360.24 252.76 361.024 252.44 362.592H257.744C257.76 361.92 257.544 361.36 257.096 360.912C256.648 360.464 256.04 360.24 255.272 360.24ZM270.215 369V364.872H265.487V369H262.727V358.2H265.487V362.28H270.215V358.2H272.975V369H270.215ZM276.04 369V358.2H278.8V361.152H280.288C281.984 361.152 283.2 361.504 283.936 362.208C284.672 362.912 285.04 363.808 285.04 364.896C285.04 366.064 284.64 367.04 283.84 367.824C283.04 368.608 281.784 369 280.072 369H276.04ZM280.048 363.36H278.8V366.6H280.024C281.416 366.6 282.112 366.064 282.112 364.992C282.112 363.904 281.424 363.36 280.048 363.36ZM300.513 365.376L301.809 367.392C301.361 368 300.753 368.464 299.985 368.784C299.233 369.104 298.409 369.264 297.513 369.264C295.753 369.264 294.337 368.744 293.265 367.704C292.193 366.664 291.657 365.296 291.657 363.6C291.657 362 292.185 360.656 293.241 359.568C294.297 358.48 295.633 357.936 297.249 357.936C299.169 357.936 300.617 358.424 301.593 359.4L300.297 361.584C299.577 360.88 298.681 360.528 297.609 360.528C296.809 360.528 296.105 360.816 295.497 361.392C294.905 361.952 294.609 362.688 294.609 363.6C294.609 364.528 294.913 365.28 295.521 365.856C296.145 366.416 296.881 366.696 297.729 366.696C298.785 366.696 299.713 366.256 300.513 365.376ZM314.248 358.2L310.096 363.336L314.752 369H311.152L306.88 363.552L310.768 358.2H314.248ZM304.024 369V358.2H306.784V369H304.024ZM319.136 369H316.376V358.2H319.136V365.04L324.176 358.2H326.936V369H324.176V362.16L319.136 369ZM328.72 371.52V366.432H330.088C330.936 365.312 331.44 363.432 331.6 360.792L331.768 358.2H339.736V366.432H341.536V371.52H338.944V369H331.288V371.52H328.72ZM334.264 361.896C334.072 363.992 333.64 365.504 332.968 366.432H336.976V360.792H334.336L334.264 361.896ZM353.576 358.2L349.424 363.336L354.08 369H350.48L346.208 363.552L350.096 358.2H353.576ZM343.352 369V358.2H346.112V369H343.352ZM358.464 369H355.704V358.2H358.464V365.04L363.504 358.2H366.264V369H363.504V362.16L358.464 369Z" fill="white"/>
<rect x="1.5" y="319.5" width="413" height="86" rx="6.5" stroke="#E4002B" stroke-width="3"/>
<path d="M685.402 209.976V193.248C686.97 193.168 688.586 193.128 690.25 193.128C692.154 193.128 693.546 193.512 694.426 194.28C695.322 195.032 695.77 196.032 695.77 197.28C695.77 199.072 694.97 200.344 693.37 201.096V201.144C694.25 201.368 694.962 201.808 695.506 202.464C696.05 203.12 696.322 203.984 696.322 205.056C696.322 206.72 695.746 207.976 694.594 208.824C693.458 209.672 691.954 210.096 690.082 210.096C688.05 210.096 686.49 210.056 685.402 209.976ZM690.442 202.776H688.354V207.216C689.026 207.296 689.674 207.336 690.298 207.336C692.346 207.336 693.37 206.528 693.37 204.912C693.37 204.208 693.114 203.68 692.602 203.328C692.09 202.96 691.37 202.776 690.442 202.776ZM690.202 195.888C689.498 195.888 688.882 195.912 688.354 195.96V200.208H690.346C691.082 200.208 691.682 200.024 692.146 199.656C692.61 199.272 692.842 198.712 692.842 197.976C692.842 197.304 692.602 196.792 692.122 196.44C691.658 196.072 691.018 195.888 690.202 195.888ZM707.893 210H705.301V193.2H708.253V205.152L717.061 193.2H719.653V210H716.701V198.072L707.893 210ZM724.308 210V193.2H727.284L733.02 201.048L738.492 193.2H741.276V210H738.348V197.856L733.044 205.32H732.612L727.26 197.928V210H724.308ZM758.419 206.376L759.715 208.392C759.267 209 758.659 209.464 757.891 209.784C757.139 210.104 756.315 210.264 755.419 210.264C753.659 210.264 752.243 209.744 751.171 208.704C750.099 207.664 749.563 206.296 749.563 204.6C749.563 203 750.091 201.656 751.147 200.568C752.203 199.48 753.539 198.936 755.155 198.936C757.075 198.936 758.523 199.424 759.499 200.4L758.203 202.584C757.483 201.88 756.587 201.528 755.515 201.528C754.715 201.528 754.011 201.816 753.403 202.392C752.811 202.952 752.515 203.688 752.515 204.6C752.515 205.528 752.819 206.28 753.427 206.856C754.051 207.416 754.787 207.696 755.635 207.696C756.691 207.696 757.619 207.256 758.419 206.376ZM762.281 208.68C761.209 207.608 760.673 206.248 760.673 204.6C760.673 202.952 761.209 201.6 762.281 200.544C763.369 199.472 764.793 198.936 766.553 198.936C768.313 198.936 769.729 199.472 770.801 200.544C771.889 201.6 772.433 202.952 772.433 204.6C772.433 206.248 771.889 207.608 770.801 208.68C769.729 209.736 768.313 210.264 766.553 210.264C764.793 210.264 763.369 209.736 762.281 208.68ZM763.625 204.6C763.625 205.496 763.897 206.24 764.441 206.832C765.001 207.408 765.705 207.696 766.553 207.696C767.417 207.696 768.121 207.416 768.665 206.856C769.225 206.28 769.505 205.528 769.505 204.6C769.505 203.704 769.225 202.968 768.665 202.392C768.105 201.816 767.401 201.528 766.553 201.528C765.721 201.528 765.025 201.816 764.465 202.392C763.905 202.952 763.625 203.688 763.625 204.6ZM778.637 210.264C777.693 210.264 776.773 210.096 775.877 209.76C774.981 209.408 774.333 208.976 773.933 208.464L775.349 206.736C775.669 207.104 776.125 207.416 776.717 207.672C777.325 207.928 777.885 208.056 778.397 208.056C779.101 208.056 779.645 207.936 780.029 207.696C780.413 207.456 780.605 207.136 780.605 206.736C780.605 206.368 780.461 206.072 780.173 205.848C779.885 205.624 779.485 205.512 778.973 205.512H776.957V203.664H778.853C779.285 203.664 779.629 203.536 779.885 203.28C780.157 203.024 780.293 202.712 780.293 202.344C780.293 201.56 779.661 201.168 778.397 201.168C777.405 201.168 776.421 201.584 775.445 202.416L774.293 200.76C775.333 199.544 776.877 198.936 778.925 198.936C780.333 198.936 781.405 199.208 782.141 199.752C782.877 200.296 783.245 201.048 783.245 202.008C783.245 202.536 783.069 203.016 782.717 203.448C782.365 203.88 781.877 204.2 781.253 204.408V204.456C781.989 204.6 782.549 204.904 782.933 205.368C783.333 205.816 783.533 206.36 783.533 207C783.533 208.008 783.085 208.808 782.189 209.4C781.293 209.976 780.109 210.264 778.637 210.264ZM784.845 212.52V207.432H786.213C787.061 206.312 787.565 204.432 787.725 201.792L787.893 199.2H795.861V207.432H797.661V212.52H795.069V210H787.413V212.52H784.845ZM790.389 202.896C790.197 204.992 789.765 206.504 789.093 207.432H793.101V201.792H790.461L790.389 202.896ZM800.317 201.984L799.621 199.968C800.789 199.28 802.061 198.936 803.437 198.936C804.973 198.936 806.077 199.312 806.749 200.064C807.421 200.816 807.757 201.936 807.757 203.424V210H805.357V208.752C804.701 209.68 803.637 210.144 802.165 210.144C801.157 210.144 800.341 209.848 799.717 209.256C799.093 208.664 798.781 207.856 798.781 206.832C798.781 205.696 799.149 204.832 799.885 204.24C800.621 203.632 801.565 203.328 802.717 203.328C803.709 203.328 804.525 203.56 805.165 204.024C805.197 203.08 805.061 202.384 804.757 201.936C804.453 201.472 803.917 201.24 803.149 201.24C802.349 201.24 801.405 201.488 800.317 201.984ZM803.077 207.816C804.005 207.816 804.701 207.488 805.165 206.832V205.728C804.701 205.376 804.069 205.2 803.269 205.2C802.773 205.2 802.357 205.32 802.021 205.56C801.701 205.784 801.541 206.112 801.541 206.544C801.541 206.944 801.685 207.256 801.973 207.48C802.261 207.704 802.629 207.816 803.077 207.816ZM817.691 210V201.96H814.835L814.763 203.112C814.587 205.048 814.291 206.536 813.875 207.576C813.475 208.616 812.963 209.32 812.339 209.688C811.731 210.04 810.915 210.216 809.891 210.216L809.651 207.528C810.003 207.56 810.331 207.464 810.635 207.24C810.955 207 811.259 206.488 811.547 205.704C811.835 204.904 812.019 203.856 812.099 202.56L812.267 199.2H820.451V210H817.691ZM826.284 210H823.524V199.2H826.284V206.04L831.324 199.2H834.084V210H831.324V203.16L826.284 210ZM846.067 210.264C845.123 210.264 844.203 210.096 843.307 209.76C842.411 209.408 841.763 208.976 841.363 208.464L842.779 206.736C843.099 207.104 843.555 207.416 844.147 207.672C844.755 207.928 845.315 208.056 845.827 208.056C846.531 208.056 847.075 207.936 847.459 207.696C847.843 207.456 848.035 207.136 848.035 206.736C848.035 206.368 847.891 206.072 847.603 205.848C847.315 205.624 846.915 205.512 846.403 205.512H844.387V203.664H846.283C846.715 203.664 847.059 203.536 847.315 203.28C847.587 203.024 847.723 202.712 847.723 202.344C847.723 201.56 847.091 201.168 845.827 201.168C844.835 201.168 843.851 201.584 842.875 202.416L841.723 200.76C842.763 199.544 844.307 198.936 846.355 198.936C847.763 198.936 848.835 199.208 849.571 199.752C850.307 200.296 850.675 201.048 850.675 202.008C850.675 202.536 850.499 203.016 850.147 203.448C849.795 203.88 849.307 204.2 848.683 204.408V204.456C849.419 204.6 849.979 204.904 850.363 205.368C850.763 205.816 850.963 206.36 850.963 207C850.963 208.008 850.515 208.808 849.619 209.4C848.723 209.976 847.539 210.264 846.067 210.264ZM854.411 201.984L853.715 199.968C854.883 199.28 856.155 198.936 857.531 198.936C859.067 198.936 860.171 199.312 860.843 200.064C861.515 200.816 861.851 201.936 861.851 203.424V210H859.451V208.752C858.795 209.68 857.731 210.144 856.259 210.144C855.251 210.144 854.435 209.848 853.811 209.256C853.187 208.664 852.875 207.856 852.875 206.832C852.875 205.696 853.243 204.832 853.979 204.24C854.715 203.632 855.659 203.328 856.811 203.328C857.803 203.328 858.619 203.56 859.259 204.024C859.291 203.08 859.155 202.384 858.851 201.936C858.547 201.472 858.011 201.24 857.243 201.24C856.443 201.24 855.499 201.488 854.411 201.984ZM857.171 207.816C858.099 207.816 858.795 207.488 859.259 206.832V205.728C858.795 205.376 858.163 205.2 857.363 205.2C856.867 205.2 856.451 205.32 856.115 205.56C855.795 205.784 855.635 206.112 855.635 206.544C855.635 206.944 855.779 207.256 856.067 207.48C856.355 207.704 856.723 207.816 857.171 207.816ZM874.905 199.2L870.753 204.336L875.409 210H871.809L867.537 204.552L871.425 199.2H874.905ZM864.681 210V199.2H867.441V210H864.681ZM877.872 201.984L877.176 199.968C878.344 199.28 879.616 198.936 880.992 198.936C882.528 198.936 883.632 199.312 884.304 200.064C884.976 200.816 885.312 201.936 885.312 203.424V210H882.912V208.752C882.256 209.68 881.192 210.144 879.72 210.144C878.712 210.144 877.896 209.848 877.272 209.256C876.648 208.664 876.336 207.856 876.336 206.832C876.336 205.696 876.704 204.832 877.44 204.24C878.176 203.632 879.12 203.328 880.272 203.328C881.264 203.328 882.08 203.56 882.72 204.024C882.752 203.08 882.616 202.384 882.312 201.936C882.008 201.472 881.472 201.24 880.704 201.24C879.904 201.24 878.96 201.488 877.872 201.984ZM880.632 207.816C881.56 207.816 882.256 207.488 882.72 206.832V205.728C882.256 205.376 881.624 205.2 880.824 205.2C880.328 205.2 879.912 205.32 879.576 205.56C879.256 205.784 879.096 206.112 879.096 206.544C879.096 206.944 879.24 207.256 879.528 207.48C879.816 207.704 880.184 207.816 880.632 207.816ZM891.957 210.264C891.013 210.264 890.093 210.096 889.197 209.76C888.301 209.408 887.653 208.976 887.253 208.464L888.669 206.736C888.989 207.104 889.445 207.416 890.037 207.672C890.645 207.928 891.205 208.056 891.717 208.056C892.421 208.056 892.965 207.936 893.349 207.696C893.733 207.456 893.925 207.136 893.925 206.736C893.925 206.368 893.781 206.072 893.493 205.848C893.205 205.624 892.805 205.512 892.293 205.512H890.277V203.664H892.173C892.605 203.664 892.949 203.536 893.205 203.28C893.477 203.024 893.613 202.712 893.613 202.344C893.613 201.56 892.981 201.168 891.717 201.168C890.725 201.168 889.741 201.584 888.765 202.416L887.613 200.76C888.653 199.544 890.197 198.936 892.245 198.936C893.653 198.936 894.725 199.208 895.461 199.752C896.197 200.296 896.565 201.048 896.565 202.008C896.565 202.536 896.389 203.016 896.037 203.448C895.685 203.88 895.197 204.2 894.573 204.408V204.456C895.309 204.6 895.869 204.904 896.253 205.368C896.653 205.816 896.853 206.36 896.853 207C896.853 208.008 896.405 208.808 895.509 209.4C894.613 209.976 893.429 210.264 891.957 210.264Z" fill="white"/>
<rect x="608.5" y="160.5" width="364" height="86" rx="6.5" stroke="#E4002B" stroke-width="3"/>
<path d="M1134.46 206.16L1135.59 208.368C1135.06 208.928 1134.3 209.384 1133.31 209.736C1132.34 210.088 1131.3 210.264 1130.22 210.264C1127.64 210.264 1125.55 209.472 1123.95 207.888C1122.35 206.304 1121.55 204.208 1121.55 201.6C1121.55 199.088 1122.31 197.016 1123.83 195.384C1125.35 193.752 1127.46 192.936 1130.14 192.936C1132.3 192.936 1134.01 193.504 1135.26 194.64L1133.94 196.824C1132.8 196.072 1131.54 195.696 1130.14 195.696C1128.56 195.696 1127.25 196.232 1126.21 197.304C1125.18 198.376 1124.67 199.808 1124.67 201.6C1124.67 203.344 1125.21 204.768 1126.28 205.872C1127.37 206.96 1128.77 207.504 1130.48 207.504C1131.97 207.504 1133.3 207.056 1134.46 206.16ZM1147.19 199.2L1142.94 210C1142.17 211.872 1141.49 213.136 1140.88 213.792C1140.29 214.464 1139.58 214.8 1138.77 214.8C1137.98 214.8 1137.21 214.52 1136.44 213.96L1137.33 211.872C1137.76 212.128 1138.13 212.256 1138.45 212.256C1139.11 212.256 1139.66 211.696 1140.11 210.576L1140.35 210L1135.36 199.2H1138.67L1141.19 205.104C1141.29 205.344 1141.46 205.864 1141.72 206.664C1141.85 205.96 1141.97 205.432 1142.1 205.08L1144.05 199.2H1147.19ZM1148.84 210V199.2H1151.34L1155.01 203.712L1158.49 199.2H1160.92V210H1158.16V203.4L1154.96 207.432H1154.89L1151.6 203.4V210H1148.84ZM1163.99 210V199.2H1166.48L1170.15 203.712L1173.63 199.2H1176.06V210H1173.3V203.4L1170.11 207.432H1170.03L1166.75 203.4V210H1163.99ZM1179.97 201.984L1179.27 199.968C1180.44 199.28 1181.71 198.936 1183.09 198.936C1184.62 198.936 1185.73 199.312 1186.4 200.064C1187.07 200.816 1187.41 201.936 1187.41 203.424V210H1185.01V208.752C1184.35 209.68 1183.29 210.144 1181.81 210.144C1180.81 210.144 1179.99 209.848 1179.37 209.256C1178.74 208.664 1178.43 207.856 1178.43 206.832C1178.43 205.696 1178.8 204.832 1179.53 204.24C1180.27 203.632 1181.21 203.328 1182.37 203.328C1183.36 203.328 1184.17 203.56 1184.81 204.024C1184.85 203.08 1184.71 202.384 1184.41 201.936C1184.1 201.472 1183.57 201.24 1182.8 201.24C1182 201.24 1181.05 201.488 1179.97 201.984ZM1182.73 207.816C1183.65 207.816 1184.35 207.488 1184.81 206.832V205.728C1184.35 205.376 1183.72 205.2 1182.92 205.2C1182.42 205.2 1182.01 205.32 1181.67 205.56C1181.35 205.784 1181.19 206.112 1181.19 206.544C1181.19 206.944 1181.33 207.256 1181.62 207.48C1181.91 207.704 1182.28 207.816 1182.73 207.816ZM1202.69 210V201.792H1198.08V210H1195.32V199.2H1205.45V210H1202.69ZM1209.45 208.68C1208.38 207.608 1207.84 206.248 1207.84 204.6C1207.84 202.952 1208.38 201.6 1209.45 200.544C1210.54 199.472 1211.96 198.936 1213.72 198.936C1215.48 198.936 1216.9 199.472 1217.97 200.544C1219.06 201.6 1219.6 202.952 1219.6 204.6C1219.6 206.248 1219.06 207.608 1217.97 208.68C1216.9 209.736 1215.48 210.264 1213.72 210.264C1211.96 210.264 1210.54 209.736 1209.45 208.68ZM1210.8 204.6C1210.8 205.496 1211.07 206.24 1211.61 206.832C1212.17 207.408 1212.88 207.696 1213.72 207.696C1214.59 207.696 1215.29 207.416 1215.84 206.856C1216.4 206.28 1216.68 205.528 1216.68 204.6C1216.68 203.704 1216.4 202.968 1215.84 202.392C1215.28 201.816 1214.57 201.528 1213.72 201.528C1212.89 201.528 1212.2 201.816 1211.64 202.392C1211.08 202.952 1210.8 203.688 1210.8 204.6ZM1232.22 199.2L1228.07 204.336L1232.72 210H1229.12L1224.85 204.552L1228.74 199.2H1232.22ZM1221.99 210V199.2H1224.75V210H1221.99ZM1244.64 199.2L1240.4 210C1239.63 211.872 1238.94 213.136 1238.33 213.792C1237.74 214.464 1237.04 214.8 1236.22 214.8C1235.44 214.8 1234.66 214.52 1233.89 213.96L1234.78 211.872C1235.21 212.128 1235.59 212.256 1235.91 212.256C1236.56 212.256 1237.12 211.696 1237.56 210.576L1237.8 210L1232.81 199.2H1236.12L1238.64 205.104C1238.74 205.344 1238.92 205.864 1239.17 206.664C1239.3 205.96 1239.43 205.432 1239.56 205.08L1241.5 199.2H1244.64ZM1253.67 210V201.792H1249.06V210H1246.3V199.2H1256.43V210H1253.67ZM1260.43 208.68C1259.36 207.608 1258.82 206.248 1258.82 204.6C1258.82 202.952 1259.36 201.6 1260.43 200.544C1261.52 199.472 1262.94 198.936 1264.7 198.936C1266.46 198.936 1267.88 199.472 1268.95 200.544C1270.04 201.6 1270.58 202.952 1270.58 204.6C1270.58 206.248 1270.04 207.608 1268.95 208.68C1267.88 209.736 1266.46 210.264 1264.7 210.264C1262.94 210.264 1261.52 209.736 1260.43 208.68ZM1261.77 204.6C1261.77 205.496 1262.05 206.24 1262.59 206.832C1263.15 207.408 1263.85 207.696 1264.7 207.696C1265.57 207.696 1266.27 207.416 1266.81 206.856C1267.37 206.28 1267.65 205.528 1267.65 204.6C1267.65 203.704 1267.37 202.968 1266.81 202.392C1266.25 201.816 1265.55 201.528 1264.7 201.528C1263.87 201.528 1263.17 201.816 1262.61 202.392C1262.05 202.952 1261.77 203.688 1261.77 204.6ZM1283.19 199.2L1279.04 204.336L1283.7 210H1280.1L1275.83 204.552L1279.71 199.2H1283.19ZM1272.97 210V199.2H1275.73V210H1272.97ZM1300.82 199.2L1296.58 210C1295.81 211.872 1295.12 213.136 1294.51 213.792C1293.92 214.464 1293.22 214.8 1292.4 214.8C1291.62 214.8 1290.84 214.52 1290.07 213.96L1290.96 211.872C1291.39 212.128 1291.77 212.256 1292.09 212.256C1292.74 212.256 1293.3 211.696 1293.74 210.576L1293.98 210L1288.99 199.2H1292.3L1294.82 205.104C1294.92 205.344 1295.1 205.864 1295.35 206.664C1295.48 205.96 1295.61 205.432 1295.74 205.08L1297.68 199.2H1300.82ZM1317.79 199.2L1313.64 204.336L1318.29 210H1314.69L1310.42 204.552L1314.31 199.2H1317.79ZM1307.56 210V199.2H1310.32V210H1307.56ZM1326.97 210V201.96H1324.12L1324.04 203.112C1323.87 205.048 1323.57 206.536 1323.16 207.576C1322.76 208.616 1322.24 209.32 1321.62 209.688C1321.01 210.04 1320.2 210.216 1319.17 210.216L1318.93 207.528C1319.28 207.56 1319.61 207.464 1319.92 207.24C1320.24 207 1320.54 206.488 1320.83 205.704C1321.12 204.904 1321.3 203.856 1321.38 202.56L1321.55 199.2H1329.73V210H1326.97ZM1335.57 210H1332.81V199.2H1335.57V206.04L1340.61 199.2H1343.37V210H1340.61V203.16L1335.57 210ZM1354.92 206.976L1355.71 208.92C1354.65 209.816 1353.28 210.264 1351.58 210.264C1349.84 210.264 1348.43 209.744 1347.36 208.704C1346.3 207.664 1345.77 206.296 1345.77 204.6C1345.77 202.984 1346.29 201.64 1347.33 200.568C1348.37 199.48 1349.76 198.936 1351.49 198.936C1352.91 198.936 1354.12 199.408 1355.11 200.352C1356.1 201.28 1356.6 202.48 1356.6 203.952C1356.6 204.56 1356.54 205.056 1356.43 205.44H1348.63C1348.74 206.24 1349.09 206.864 1349.69 207.312C1350.28 207.744 1351.01 207.96 1351.87 207.96C1353.09 207.96 1354.1 207.632 1354.92 206.976ZM1351.37 201.24C1349.8 201.24 1348.85 202.024 1348.53 203.592H1353.84C1353.85 202.92 1353.64 202.36 1353.19 201.912C1352.74 201.464 1352.13 201.24 1351.37 201.24ZM1366.31 210V205.872H1361.58V210H1358.82V199.2H1361.58V203.28H1366.31V199.2H1369.07V210H1366.31ZM1371.01 201.96V199.2H1380.85V201.96H1377.32V210H1374.56V201.96H1371.01ZM1383.66 201.984L1382.97 199.968C1384.13 199.28 1385.41 198.936 1386.78 198.936C1388.32 198.936 1389.42 199.312 1390.09 200.064C1390.77 200.816 1391.1 201.936 1391.1 203.424V210H1388.7V208.752C1388.05 209.68 1386.98 210.144 1385.51 210.144C1384.5 210.144 1383.69 209.848 1383.06 209.256C1382.44 208.664 1382.13 207.856 1382.13 206.832C1382.13 205.696 1382.49 204.832 1383.23 204.24C1383.97 203.632 1384.91 203.328 1386.06 203.328C1387.05 203.328 1387.87 203.56 1388.51 204.024C1388.54 203.08 1388.41 202.384 1388.1 201.936C1387.8 201.472 1387.26 201.24 1386.49 201.24C1385.69 201.24 1384.75 201.488 1383.66 201.984ZM1386.42 207.816C1387.35 207.816 1388.05 207.488 1388.51 206.832V205.728C1388.05 205.376 1387.41 205.2 1386.61 205.2C1386.12 205.2 1385.7 205.32 1385.37 205.56C1385.05 205.784 1384.89 206.112 1384.89 206.544C1384.89 206.944 1385.03 207.256 1385.32 207.48C1385.61 207.704 1385.97 207.816 1386.42 207.816ZM1399.95 208.68C1398.88 207.608 1398.34 206.248 1398.34 204.6C1398.34 202.952 1398.88 201.6 1399.95 200.544C1401.04 199.472 1402.46 198.936 1404.22 198.936C1405.98 198.936 1407.4 199.472 1408.47 200.544C1409.56 201.6 1410.1 202.952 1410.1 204.6C1410.1 206.248 1409.56 207.608 1408.47 208.68C1407.4 209.736 1405.98 210.264 1404.22 210.264C1402.46 210.264 1401.04 209.736 1399.95 208.68ZM1401.3 204.6C1401.3 205.496 1401.57 206.24 1402.11 206.832C1402.67 207.408 1403.38 207.696 1404.22 207.696C1405.09 207.696 1405.79 207.416 1406.34 206.856C1406.9 206.28 1407.18 205.528 1407.18 204.6C1407.18 203.704 1406.9 202.968 1406.34 202.392C1405.78 201.816 1405.07 201.528 1404.22 201.528C1403.39 201.528 1402.7 201.816 1402.14 202.392C1401.58 202.952 1401.3 203.688 1401.3 204.6ZM1420.61 192.936L1422.05 195.192C1421.63 195.688 1421.15 196.04 1420.61 196.248C1420.06 196.44 1419.42 196.616 1418.69 196.776C1417.97 196.92 1417.34 197.12 1416.81 197.376C1415.47 198 1414.69 199.344 1414.49 201.408H1414.53C1414.87 200.816 1415.39 200.336 1416.09 199.968C1416.8 199.584 1417.54 199.392 1418.33 199.392C1419.81 199.392 1421.01 199.872 1421.9 200.832C1422.8 201.792 1423.25 203.08 1423.25 204.696C1423.25 206.248 1422.72 207.568 1421.66 208.656C1420.61 209.728 1419.25 210.264 1417.58 210.264C1415.77 210.264 1414.34 209.648 1413.29 208.416C1412.25 207.184 1411.73 205.52 1411.73 203.424C1411.73 198.8 1413.09 195.904 1415.81 194.736C1416.41 194.48 1417.07 194.288 1417.77 194.16C1418.48 194.016 1419.04 193.872 1419.45 193.728C1419.89 193.584 1420.27 193.32 1420.61 192.936ZM1414.68 204C1414.69 205.072 1414.96 205.96 1415.47 206.664C1415.98 207.352 1416.66 207.696 1417.51 207.696C1418.36 207.696 1419.03 207.424 1419.53 206.88C1420.04 206.32 1420.29 205.632 1420.29 204.816C1420.29 203.984 1420.06 203.304 1419.6 202.776C1419.13 202.232 1418.48 201.96 1417.63 201.96C1416.89 201.96 1416.26 202.152 1415.73 202.536C1415.22 202.92 1414.87 203.408 1414.68 204ZM1433.13 210V205.872H1428.4V210H1425.64V199.2H1428.4V203.28H1433.13V199.2H1435.89V210H1433.13ZM1439.89 208.68C1438.82 207.608 1438.28 206.248 1438.28 204.6C1438.28 202.952 1438.82 201.6 1439.89 200.544C1440.98 199.472 1442.4 198.936 1444.16 198.936C1445.92 198.936 1447.34 199.472 1448.41 200.544C1449.5 201.6 1450.04 202.952 1450.04 204.6C1450.04 206.248 1449.5 207.608 1448.41 208.68C1447.34 209.736 1445.92 210.264 1444.16 210.264C1442.4 210.264 1440.98 209.736 1439.89 208.68ZM1441.23 204.6C1441.23 205.496 1441.51 206.24 1442.05 206.832C1442.61 207.408 1443.31 207.696 1444.16 207.696C1445.03 207.696 1445.73 207.416 1446.27 206.856C1446.83 206.28 1447.11 205.528 1447.11 204.6C1447.11 203.704 1446.83 202.968 1446.27 202.392C1445.71 201.816 1445.01 201.528 1444.16 201.528C1443.33 201.528 1442.63 201.816 1442.07 202.392C1441.51 202.952 1441.23 203.688 1441.23 204.6ZM1452.43 210V199.2C1452.62 199.2 1452.97 199.192 1453.49 199.176C1454.01 199.144 1454.55 199.12 1455.09 199.104C1455.65 199.088 1456.18 199.08 1456.68 199.08C1459.94 199.08 1461.57 200.024 1461.57 201.912C1461.57 202.536 1461.37 203.072 1460.97 203.52C1460.59 203.968 1460.12 204.232 1459.56 204.312V204.36C1461.09 204.728 1461.86 205.56 1461.86 206.856C1461.86 209.032 1460.15 210.12 1456.73 210.12C1456.25 210.12 1455.49 210.096 1454.45 210.048C1453.41 210.016 1452.73 210 1452.43 210ZM1456.92 205.416H1455.19V207.816C1456.28 207.88 1456.89 207.912 1457.01 207.912C1457.62 207.912 1458.09 207.8 1458.43 207.576C1458.78 207.352 1458.96 207.048 1458.96 206.664C1458.96 205.832 1458.28 205.416 1456.92 205.416ZM1456.92 201.312C1456.15 201.312 1455.57 201.328 1455.19 201.36V203.736H1456.99C1457.47 203.736 1457.86 203.632 1458.17 203.424C1458.49 203.2 1458.65 202.888 1458.65 202.488C1458.65 201.704 1458.07 201.312 1456.92 201.312ZM1467.24 210H1464.48V199.2H1467.24V206.04L1472.28 199.2H1475.04V210H1472.28V203.16L1467.24 210ZM1485.22 210V201.96H1482.37L1482.29 203.112C1482.12 205.048 1481.82 206.536 1481.41 207.576C1481.01 208.616 1480.49 209.32 1479.87 209.688C1479.26 210.04 1478.45 210.216 1477.42 210.216L1477.18 207.528C1477.53 207.56 1477.86 207.464 1478.17 207.24C1478.49 207 1478.79 206.488 1479.08 205.704C1479.37 204.904 1479.55 203.856 1479.63 202.56L1479.8 199.2H1487.98V210H1485.22ZM1491.9 201.984L1491.2 199.968C1492.37 199.28 1493.64 198.936 1495.02 198.936C1496.55 198.936 1497.66 199.312 1498.33 200.064C1499 200.816 1499.34 201.936 1499.34 203.424V210H1496.94V208.752C1496.28 209.68 1495.22 210.144 1493.74 210.144C1492.74 210.144 1491.92 209.848 1491.3 209.256C1490.67 208.664 1490.36 207.856 1490.36 206.832C1490.36 205.696 1490.73 204.832 1491.46 204.24C1492.2 203.632 1493.14 203.328 1494.3 203.328C1495.29 203.328 1496.1 203.56 1496.74 204.024C1496.78 203.08 1496.64 202.384 1496.34 201.936C1496.03 201.472 1495.5 201.24 1494.73 201.24C1493.93 201.24 1492.98 201.488 1491.9 201.984ZM1494.66 207.816C1495.58 207.816 1496.28 207.488 1496.74 206.832V205.728C1496.28 205.376 1495.65 205.2 1494.85 205.2C1494.35 205.2 1493.94 205.32 1493.6 205.56C1493.28 205.784 1493.12 206.112 1493.12 206.544C1493.12 206.944 1493.26 207.256 1493.55 207.48C1493.84 207.704 1494.21 207.816 1494.66 207.816ZM1510.35 206.376L1511.64 208.392C1511.2 209 1510.59 209.464 1509.82 209.784C1509.07 210.104 1508.24 210.264 1507.35 210.264C1505.59 210.264 1504.17 209.744 1503.1 208.704C1502.03 207.664 1501.49 206.296 1501.49 204.6C1501.49 203 1502.02 201.656 1503.08 200.568C1504.13 199.48 1505.47 198.936 1507.08 198.936C1509 198.936 1510.45 199.424 1511.43 200.4L1510.13 202.584C1509.41 201.88 1508.52 201.528 1507.44 201.528C1506.64 201.528 1505.94 201.816 1505.33 202.392C1504.74 202.952 1504.44 203.688 1504.44 204.6C1504.44 205.528 1504.75 206.28 1505.36 206.856C1505.98 207.416 1506.72 207.696 1507.56 207.696C1508.62 207.696 1509.55 207.256 1510.35 206.376ZM1513.86 210V199.2H1516.62V202.152H1518.11C1519.8 202.152 1521.02 202.504 1521.76 203.208C1522.49 203.912 1522.86 204.808 1522.86 205.896C1522.86 207.064 1522.46 208.04 1521.66 208.824C1520.86 209.608 1519.6 210 1517.89 210H1513.86ZM1517.87 204.36H1516.62V207.6H1517.84C1519.24 207.6 1519.93 207.064 1519.93 205.992C1519.93 204.904 1519.24 204.36 1517.87 204.36Z" fill="white"/>
<rect x="1073.5" y="160.5" width="497" height="86" rx="6.5" stroke="#E4002B" stroke-width="3"/>
<path d="M1168.99 369V361.824H1161.31V369H1158.36V352.2H1161.31V359.064H1168.99V352.2H1171.92V369H1168.99ZM1176.71 367.68C1175.64 366.608 1175.11 365.248 1175.11 363.6C1175.11 361.952 1175.64 360.6 1176.71 359.544C1177.8 358.472 1179.23 357.936 1180.99 357.936C1182.75 357.936 1184.16 358.472 1185.23 359.544C1186.32 360.6 1186.87 361.952 1186.87 363.6C1186.87 365.248 1186.32 366.608 1185.23 367.68C1184.16 368.736 1182.75 369.264 1180.99 369.264C1179.23 369.264 1177.8 368.736 1176.71 367.68ZM1178.06 363.6C1178.06 364.496 1178.33 365.24 1178.87 365.832C1179.43 366.408 1180.14 366.696 1180.99 366.696C1181.85 366.696 1182.55 366.416 1183.1 365.856C1183.66 365.28 1183.94 364.528 1183.94 363.6C1183.94 362.704 1183.66 361.968 1183.1 361.392C1182.54 360.816 1181.83 360.528 1180.99 360.528C1180.15 360.528 1179.46 360.816 1178.9 361.392C1178.34 361.952 1178.06 362.688 1178.06 363.6ZM1189.25 369V358.2C1189.45 358.2 1189.8 358.192 1190.31 358.176C1190.84 358.144 1191.37 358.12 1191.92 358.104C1192.48 358.088 1193.01 358.08 1193.5 358.08C1196.77 358.08 1198.4 359.024 1198.4 360.912C1198.4 361.536 1198.2 362.072 1197.8 362.52C1197.41 362.968 1196.94 363.232 1196.38 363.312V363.36C1197.92 363.728 1198.69 364.56 1198.69 365.856C1198.69 368.032 1196.97 369.12 1193.55 369.12C1193.07 369.12 1192.31 369.096 1191.27 369.048C1190.23 369.016 1189.56 369 1189.25 369ZM1193.74 364.416H1192.01V366.816C1193.1 366.88 1193.71 366.912 1193.84 366.912C1194.45 366.912 1194.92 366.8 1195.25 366.576C1195.61 366.352 1195.78 366.048 1195.78 365.664C1195.78 364.832 1195.1 364.416 1193.74 364.416ZM1193.74 360.312C1192.97 360.312 1192.4 360.328 1192.01 360.36V362.736H1193.81C1194.29 362.736 1194.69 362.632 1194.99 362.424C1195.31 362.2 1195.47 361.888 1195.47 361.488C1195.47 360.704 1194.89 360.312 1193.74 360.312ZM1201.3 369V358.2H1204.06V361.152H1205.41C1207.1 361.152 1208.32 361.504 1209.05 362.208C1209.79 362.912 1210.16 363.808 1210.16 364.896C1210.16 366.064 1209.76 367.04 1208.96 367.824C1208.16 368.608 1206.9 369 1205.19 369H1201.3ZM1211.69 369V358.2H1214.45V369H1211.69ZM1205.17 363.36H1204.06V366.6H1205.14C1206.53 366.6 1207.23 366.064 1207.23 364.992C1207.23 363.904 1206.54 363.36 1205.17 363.36ZM1220.28 369H1217.52V358.2H1220.28V365.04L1225.32 358.2H1228.08V369H1225.32V362.16L1220.28 369ZM1219.13 352.8H1221.65C1221.65 353.296 1221.74 353.712 1221.94 354.048C1222.14 354.384 1222.46 354.552 1222.9 354.552C1223.28 354.552 1223.57 354.384 1223.76 354.048C1223.95 353.712 1224.05 353.296 1224.05 352.8H1226.57C1226.57 353.888 1226.25 354.784 1225.61 355.488C1224.97 356.176 1224.06 356.52 1222.9 356.52C1221.62 356.52 1220.66 356.184 1220.04 355.512C1219.43 354.824 1219.13 353.92 1219.13 352.8ZM1246.66 358.2L1242.41 369C1241.65 370.872 1240.96 372.136 1240.35 372.792C1239.76 373.464 1239.05 373.8 1238.24 373.8C1237.45 373.8 1236.68 373.52 1235.91 372.96L1236.8 370.872C1237.23 371.128 1237.61 371.256 1237.93 371.256C1238.58 371.256 1239.13 370.696 1239.58 369.576L1239.82 369L1234.83 358.2H1238.14L1240.66 364.104C1240.76 364.344 1240.93 364.864 1241.19 365.664C1241.32 364.96 1241.45 364.432 1241.57 364.08L1243.52 358.2H1246.66ZM1248.32 373.8V358.2H1251.08V359.232C1251.43 358.864 1251.9 358.56 1252.49 358.32C1253.1 358.064 1253.74 357.936 1254.41 357.936C1255.89 357.936 1257.07 358.448 1257.97 359.472C1258.86 360.496 1259.31 361.816 1259.31 363.432C1259.31 365.112 1258.78 366.504 1257.73 367.608C1256.67 368.712 1255.29 369.264 1253.6 369.264C1252.53 369.264 1251.69 369.088 1251.08 368.736V373.8H1248.32ZM1253.55 360.528C1252.61 360.528 1251.78 360.92 1251.08 361.704V366.072C1251.72 366.488 1252.48 366.696 1253.36 366.696C1254.29 366.696 1255.02 366.4 1255.57 365.808C1256.11 365.2 1256.38 364.432 1256.38 363.504C1256.38 362.624 1256.13 361.912 1255.64 361.368C1255.14 360.808 1254.45 360.528 1253.55 360.528ZM1262.64 367.68C1261.56 366.608 1261.03 365.248 1261.03 363.6C1261.03 361.952 1261.56 360.6 1262.64 359.544C1263.72 358.472 1265.15 357.936 1266.91 357.936C1268.67 357.936 1270.08 358.472 1271.16 359.544C1272.24 360.6 1272.79 361.952 1272.79 363.6C1272.79 365.248 1272.24 366.608 1271.16 367.68C1270.08 368.736 1268.67 369.264 1266.91 369.264C1265.15 369.264 1263.72 368.736 1262.64 367.68ZM1263.98 363.6C1263.98 364.496 1264.25 365.24 1264.8 365.832C1265.36 366.408 1266.06 366.696 1266.91 366.696C1267.77 366.696 1268.48 366.416 1269.02 365.856C1269.58 365.28 1269.86 364.528 1269.86 363.6C1269.86 362.704 1269.58 361.968 1269.02 361.392C1268.46 360.816 1267.76 360.528 1266.91 360.528C1266.08 360.528 1265.38 360.816 1264.82 361.392C1264.26 361.952 1263.98 362.688 1263.98 363.6ZM1275.18 369V358.2C1275.37 358.2 1275.72 358.192 1276.23 358.176C1276.76 358.144 1277.3 358.12 1277.84 358.104C1278.4 358.088 1278.93 358.08 1279.42 358.08C1282.69 358.08 1284.32 359.024 1284.32 360.912C1284.32 361.536 1284.12 362.072 1283.72 362.52C1283.34 362.968 1282.86 363.232 1282.3 363.312V363.36C1283.84 363.728 1284.61 364.56 1284.61 365.856C1284.61 368.032 1282.9 369.12 1279.47 369.12C1278.99 369.12 1278.23 369.096 1277.19 369.048C1276.15 369.016 1275.48 369 1275.18 369ZM1279.66 364.416H1277.94V366.816C1279.02 366.88 1279.63 366.912 1279.76 366.912C1280.37 366.912 1280.84 366.8 1281.18 366.576C1281.53 366.352 1281.7 366.048 1281.7 365.664C1281.7 364.832 1281.02 364.416 1279.66 364.416ZM1279.66 360.312C1278.9 360.312 1278.32 360.328 1277.94 360.36V362.736H1279.74C1280.22 362.736 1280.61 362.632 1280.91 362.424C1281.23 362.2 1281.39 361.888 1281.39 361.488C1281.39 360.704 1280.82 360.312 1279.66 360.312ZM1295.7 365.976L1296.49 367.92C1295.43 368.816 1294.06 369.264 1292.36 369.264C1290.62 369.264 1289.21 368.744 1288.14 367.704C1287.08 366.664 1286.55 365.296 1286.55 363.6C1286.55 361.984 1287.07 360.64 1288.11 359.568C1289.15 358.48 1290.54 357.936 1292.26 357.936C1293.69 357.936 1294.9 358.408 1295.89 359.352C1296.88 360.28 1297.38 361.48 1297.38 362.952C1297.38 363.56 1297.32 364.056 1297.21 364.44H1289.41C1289.52 365.24 1289.87 365.864 1290.46 366.312C1291.06 366.744 1291.78 366.96 1292.65 366.96C1293.86 366.96 1294.88 366.632 1295.7 365.976ZM1292.14 360.24C1290.58 360.24 1289.63 361.024 1289.31 362.592H1294.62C1294.63 361.92 1294.42 361.36 1293.97 360.912C1293.52 360.464 1292.91 360.24 1292.14 360.24ZM1307.09 369V364.872H1302.36V369H1299.6V358.2H1302.36V362.28H1307.09V358.2H1309.85V369H1307.09ZM1312.91 369V358.2H1315.67V361.152H1317.16C1318.86 361.152 1320.07 361.504 1320.81 362.208C1321.54 362.912 1321.91 363.808 1321.91 364.896C1321.91 366.064 1321.51 367.04 1320.71 367.824C1319.91 368.608 1318.66 369 1316.94 369H1312.91ZM1316.92 363.36H1315.67V366.6H1316.9C1318.29 366.6 1318.98 366.064 1318.98 364.992C1318.98 363.904 1318.3 363.36 1316.92 363.36ZM1337.38 365.376L1338.68 367.392C1338.23 368 1337.62 368.464 1336.86 368.784C1336.1 369.104 1335.28 369.264 1334.38 369.264C1332.62 369.264 1331.21 368.744 1330.14 367.704C1329.06 366.664 1328.53 365.296 1328.53 363.6C1328.53 362 1329.06 360.656 1330.11 359.568C1331.17 358.48 1332.5 357.936 1334.12 357.936C1336.04 357.936 1337.49 358.424 1338.46 359.4L1337.17 361.584C1336.45 360.88 1335.55 360.528 1334.48 360.528C1333.68 360.528 1332.98 360.816 1332.37 361.392C1331.78 361.952 1331.48 362.688 1331.48 363.6C1331.48 364.528 1331.78 365.28 1332.39 365.856C1333.02 366.416 1333.75 366.696 1334.6 366.696C1335.66 366.696 1336.58 366.256 1337.38 365.376ZM1351.12 358.2L1346.97 363.336L1351.62 369H1348.02L1343.75 363.552L1347.64 358.2H1351.12ZM1340.9 369V358.2H1343.66V369H1340.9ZM1356.01 369H1353.25V358.2H1356.01V365.04L1361.05 358.2H1363.81V369H1361.05V362.16L1356.01 369ZM1365.59 371.52V366.432H1366.96C1367.81 365.312 1368.31 363.432 1368.47 360.792L1368.64 358.2H1376.61V366.432H1378.41V371.52H1375.82V369H1368.16V371.52H1365.59ZM1371.14 361.896C1370.94 363.992 1370.51 365.504 1369.84 366.432H1373.85V360.792H1371.21L1371.14 361.896ZM1390.45 358.2L1386.3 363.336L1390.95 369H1387.35L1383.08 363.552L1386.97 358.2H1390.45ZM1380.22 369V358.2H1382.98V369H1380.22ZM1395.34 369H1392.58V358.2H1395.34V365.04L1400.38 358.2H1403.14V369H1400.38V362.16L1395.34 369ZM1414.06 369H1411.3V358.2H1414.06V365.04L1419.1 358.2H1421.86V369H1419.1V362.16L1414.06 369ZM1428.76 369.264C1427.81 369.264 1426.89 369.096 1426 368.76C1425.1 368.408 1424.45 367.976 1424.05 367.464L1425.47 365.736C1425.79 366.104 1426.25 366.416 1426.84 366.672C1427.45 366.928 1428.01 367.056 1428.52 367.056C1429.22 367.056 1429.77 366.936 1430.15 366.696C1430.53 366.456 1430.73 366.136 1430.73 365.736C1430.73 365.368 1430.58 365.072 1430.29 364.848C1430.01 364.624 1429.61 364.512 1429.09 364.512H1427.08V362.664H1428.97C1429.41 362.664 1429.75 362.536 1430.01 362.28C1430.28 362.024 1430.41 361.712 1430.41 361.344C1430.41 360.56 1429.78 360.168 1428.52 360.168C1427.53 360.168 1426.54 360.584 1425.57 361.416L1424.41 359.76C1425.45 358.544 1427 357.936 1429.05 357.936C1430.45 357.936 1431.53 358.208 1432.26 358.752C1433 359.296 1433.37 360.048 1433.37 361.008C1433.37 361.536 1433.19 362.016 1432.84 362.448C1432.49 362.88 1432 363.2 1431.37 363.408V363.456C1432.11 363.6 1432.67 363.904 1433.05 364.368C1433.45 364.816 1433.65 365.36 1433.65 366C1433.65 367.008 1433.21 367.808 1432.31 368.4C1431.41 368.976 1430.23 369.264 1428.76 369.264ZM1453.8 365.16L1454.93 367.368C1454.4 367.928 1453.64 368.384 1452.65 368.736C1451.68 369.088 1450.64 369.264 1449.56 369.264C1446.98 369.264 1444.89 368.472 1443.29 366.888C1441.69 365.304 1440.89 363.208 1440.89 360.6C1440.89 358.088 1441.65 356.016 1443.17 354.384C1444.69 352.752 1446.8 351.936 1449.48 351.936C1451.64 351.936 1453.35 352.504 1454.6 353.64L1453.28 355.824C1452.14 355.072 1450.88 354.696 1449.48 354.696C1447.9 354.696 1446.59 355.232 1445.55 356.304C1444.52 357.376 1444.01 358.808 1444.01 360.6C1444.01 362.344 1444.55 363.768 1445.62 364.872C1446.71 365.96 1448.11 366.504 1449.82 366.504C1451.31 366.504 1452.64 366.056 1453.8 365.16ZM1460.82 369H1457.87V352.2C1458.22 352.2 1459.12 352.192 1460.58 352.176C1462.05 352.16 1462.85 352.152 1462.98 352.152C1467.04 352.152 1469.08 353.88 1469.08 357.336C1469.08 358.632 1468.75 359.688 1468.09 360.504C1467.44 361.304 1466.68 361.848 1465.84 362.136L1471.09 369H1467.52L1462.88 362.712H1460.82V369ZM1462.84 354.912C1462.55 354.912 1461.88 354.928 1460.82 354.96V359.952H1462.74C1463.65 359.952 1464.41 359.728 1465.02 359.28C1465.64 358.816 1465.96 358.176 1465.96 357.36C1465.96 355.728 1464.92 354.912 1462.84 354.912ZM1473.66 369V352.2H1476.64L1482.38 360.048L1487.85 352.2H1490.63V369H1487.7V356.856L1482.4 364.32H1481.97L1476.62 356.928V369H1473.66Z" fill="white"/>
<rect x="1078.5" y="319.5" width="492" height="86" rx="6.5" stroke="#E4002B" stroke-width="3"/>
<path d="M208 149L213.774 139H202.226L208 149ZM207 99V140H209V99H207Z" fill="#C5CDCF"/>
<path d="M208 308L213.774 298H202.226L208 308ZM207 258V299H209V258H207Z" fill="#C5CDCF"/>
<path d="M597 202L587.147 195.978L586.859 207.522L597 202ZM426.958 356.528C436.018 326.435 443.776 301.667 452.035 281.452C460.294 261.239 469.028 245.646 480.011 233.872C501.913 210.393 532.982 201.864 587.984 202.775L588.017 200.775C532.861 199.861 501.048 208.387 478.549 232.508C467.331 244.534 458.485 260.378 450.183 280.696C441.883 301.011 434.1 325.868 425.042 355.952L426.958 356.528Z" fill="#C5CDCF"/>
<path d="M1062 204L1052 198.226V209.774L1062 204ZM984 205H1053V203H984V205Z" fill="#C5CDCF"/>
<path d="M1322 308L1327.77 298H1316.23L1322 308ZM1321 258V299H1323V258H1321Z" fill="#C5CDCF"/>
</svg>
