<svg width="1462" height="437" viewBox="0 0 1462 437" fill="none" xmlns="http://www.w3.org/2000/svg">
<path d="M81.5389 50.976V34.248C83.1069 34.168 84.7229 34.128 86.3869 34.128C88.2909 34.128 89.6829 34.512 90.5629 35.28C91.4589 36.032 91.9069 37.032 91.9069 38.28C91.9069 40.072 91.1069 41.344 89.5069 42.096V42.144C90.3869 42.368 91.0989 42.808 91.6429 43.464C92.1869 44.12 92.4589 44.984 92.4589 46.056C92.4589 47.72 91.8829 48.976 90.7309 49.824C89.5949 50.672 88.0909 51.096 86.2189 51.096C84.1869 51.096 82.6269 51.056 81.5389 50.976ZM86.5789 43.776H84.4909V48.216C85.1629 48.296 85.8109 48.336 86.4349 48.336C88.4829 48.336 89.5069 47.528 89.5069 45.912C89.5069 45.208 89.2509 44.68 88.7389 44.328C88.2269 43.96 87.5069 43.776 86.5789 43.776ZM86.3389 36.888C85.6349 36.888 85.0189 36.912 84.4909 36.96V41.208H86.4829C87.2189 41.208 87.8189 41.024 88.2829 40.656C88.7469 40.272 88.9789 39.712 88.9789 38.976C88.9789 38.304 88.7389 37.792 88.2589 37.44C87.7949 37.072 87.1549 36.888 86.3389 36.888ZM99.6374 37.368L103.933 34.152H105.925V51H103.165V38.088L101.101 39.648L99.6374 37.368ZM122.43 47.16L123.558 49.368C123.03 49.928 122.27 50.384 121.278 50.736C120.302 51.088 119.27 51.264 118.182 51.264C115.606 51.264 113.518 50.472 111.918 48.888C110.318 47.304 109.518 45.208 109.518 42.6C109.518 40.088 110.278 38.016 111.798 36.384C113.318 34.752 115.422 33.936 118.11 33.936C120.27 33.936 121.974 34.504 123.222 35.64L121.902 37.824C120.766 37.072 119.502 36.696 118.11 36.696C116.526 36.696 115.214 37.232 114.174 38.304C113.15 39.376 112.638 40.808 112.638 42.6C112.638 44.344 113.174 45.768 114.246 46.872C115.334 47.96 116.734 48.504 118.446 48.504C119.934 48.504 121.262 48.056 122.43 47.16ZM134.602 51.264C133.658 51.264 132.738 51.096 131.842 50.76C130.946 50.408 130.298 49.976 129.898 49.464L131.314 47.736C131.634 48.104 132.09 48.416 132.682 48.672C133.29 48.928 133.85 49.056 134.362 49.056C135.066 49.056 135.61 48.936 135.994 48.696C136.378 48.456 136.57 48.136 136.57 47.736C136.57 47.368 136.426 47.072 136.138 46.848C135.85 46.624 135.45 46.512 134.938 46.512H132.922V44.664H134.818C135.25 44.664 135.594 44.536 135.85 44.28C136.122 44.024 136.258 43.712 136.258 43.344C136.258 42.56 135.626 42.168 134.362 42.168C133.37 42.168 132.386 42.584 131.41 43.416L130.258 41.76C131.298 40.544 132.842 39.936 134.89 39.936C136.298 39.936 137.37 40.208 138.106 40.752C138.842 41.296 139.21 42.048 139.21 43.008C139.21 43.536 139.034 44.016 138.682 44.448C138.33 44.88 137.842 45.2 137.218 45.408V45.456C137.954 45.6 138.514 45.904 138.898 46.368C139.298 46.816 139.498 47.36 139.498 48C139.498 49.008 139.05 49.808 138.154 50.4C137.258 50.976 136.074 51.264 134.602 51.264ZM142.946 42.984L142.25 40.968C143.418 40.28 144.69 39.936 146.066 39.936C147.602 39.936 148.706 40.312 149.378 41.064C150.05 41.816 150.386 42.936 150.386 44.424V51H147.986V49.752C147.33 50.68 146.266 51.144 144.794 51.144C143.786 51.144 142.97 50.848 142.346 50.256C141.722 49.664 141.41 48.856 141.41 47.832C141.41 46.696 141.778 45.832 142.514 45.24C143.25 44.632 144.194 44.328 145.346 44.328C146.338 44.328 147.154 44.56 147.794 45.024C147.826 44.08 147.69 43.384 147.386 42.936C147.082 42.472 146.546 42.24 145.778 42.24C144.978 42.24 144.034 42.488 142.946 42.984ZM145.706 48.816C146.634 48.816 147.33 48.488 147.794 47.832V46.728C147.33 46.376 146.698 46.2 145.898 46.2C145.402 46.2 144.986 46.32 144.65 46.56C144.33 46.784 144.17 47.112 144.17 47.544C144.17 47.944 144.314 48.256 144.602 48.48C144.89 48.704 145.258 48.816 145.706 48.816ZM153.216 51V40.2C153.408 40.2 153.76 40.192 154.272 40.176C154.8 40.144 155.336 40.12 155.88 40.104C156.44 40.088 156.968 40.08 157.464 40.08C160.728 40.08 162.36 41.024 162.36 42.912C162.36 43.536 162.16 44.072 161.76 44.52C161.376 44.968 160.904 45.232 160.344 45.312V45.36C161.88 45.728 162.648 46.56 162.648 47.856C162.648 50.032 160.936 51.12 157.512 51.12C157.032 51.12 156.272 51.096 155.232 51.048C154.192 51.016 153.52 51 153.216 51ZM157.704 46.416H155.976V48.816C157.064 48.88 157.672 48.912 157.8 48.912C158.408 48.912 158.88 48.8 159.216 48.576C159.568 48.352 159.744 48.048 159.744 47.664C159.744 46.832 159.064 46.416 157.704 46.416ZM157.704 42.312C156.936 42.312 156.36 42.328 155.976 42.36V44.736H157.776C158.256 44.736 158.648 44.632 158.952 44.424C159.272 44.2 159.432 43.888 159.432 43.488C159.432 42.704 158.856 42.312 157.704 42.312ZM173.735 47.976L174.527 49.92C173.471 50.816 172.095 51.264 170.399 51.264C168.655 51.264 167.247 50.744 166.175 49.704C165.119 48.664 164.591 47.296 164.591 45.6C164.591 43.984 165.111 42.64 166.151 41.568C167.191 40.48 168.575 39.936 170.303 39.936C171.727 39.936 172.935 40.408 173.927 41.352C174.919 42.28 175.415 43.48 175.415 44.952C175.415 45.56 175.359 46.056 175.247 46.44H167.447C167.559 47.24 167.911 47.864 168.503 48.312C169.095 48.744 169.823 48.96 170.687 48.96C171.903 48.96 172.919 48.632 173.735 47.976ZM170.183 42.24C168.615 42.24 167.671 43.024 167.351 44.592H172.655C172.671 43.92 172.455 43.36 172.007 42.912C171.559 42.464 170.951 42.24 170.183 42.24ZM184.39 51V42.96H181.534L181.462 44.112C181.286 46.048 180.99 47.536 180.574 48.576C180.174 49.616 179.662 50.32 179.038 50.688C178.43 51.04 177.614 51.216 176.59 51.216L176.35 48.528C176.702 48.56 177.03 48.464 177.334 48.24C177.654 48 177.958 47.488 178.246 46.704C178.534 45.904 178.718 44.856 178.798 43.56L178.966 40.2H187.15V51H184.39ZM192.984 51H190.224V40.2H192.984V47.04L198.024 40.2H200.784V51H198.024V44.16L192.984 51ZM207.822 42.96V40.2H217.662V42.96H214.134V51H211.374V42.96H207.822ZM220.245 49.68C219.173 48.608 218.637 47.248 218.637 45.6C218.637 43.952 219.173 42.6 220.245 41.544C221.333 40.472 222.757 39.936 224.517 39.936C226.277 39.936 227.693 40.472 228.765 41.544C229.853 42.6 230.397 43.952 230.397 45.6C230.397 47.248 229.853 48.608 228.765 49.68C227.693 50.736 226.277 51.264 224.517 51.264C222.757 51.264 221.333 50.736 220.245 49.68ZM221.589 45.6C221.589 46.496 221.861 47.24 222.405 47.832C222.965 48.408 223.669 48.696 224.517 48.696C225.381 48.696 226.085 48.416 226.629 47.856C227.189 47.28 227.469 46.528 227.469 45.6C227.469 44.704 227.189 43.968 226.629 43.392C226.069 42.816 225.365 42.528 224.517 42.528C223.685 42.528 222.989 42.816 222.429 43.392C221.869 43.952 221.589 44.688 221.589 45.6ZM232.786 51V40.2C232.978 40.2 233.33 40.192 233.842 40.176C234.37 40.144 234.906 40.12 235.45 40.104C236.01 40.088 236.538 40.08 237.034 40.08C240.298 40.08 241.93 41.024 241.93 42.912C241.93 43.536 241.73 44.072 241.33 44.52C240.946 44.968 240.474 45.232 239.914 45.312V45.36C241.45 45.728 242.218 46.56 242.218 47.856C242.218 50.032 240.506 51.12 237.082 51.12C236.602 51.12 235.842 51.096 234.802 51.048C233.762 51.016 233.09 51 232.786 51ZM237.274 46.416H235.546V48.816C236.634 48.88 237.242 48.912 237.37 48.912C237.978 48.912 238.45 48.8 238.786 48.576C239.138 48.352 239.314 48.048 239.314 47.664C239.314 46.832 238.634 46.416 237.274 46.416ZM237.274 42.312C236.506 42.312 235.93 42.328 235.546 42.36V44.736H237.346C237.826 44.736 238.218 44.632 238.522 44.424C238.842 44.2 239.002 43.888 239.002 43.488C239.002 42.704 238.426 42.312 237.274 42.312ZM245.673 42.984L244.977 40.968C246.145 40.28 247.417 39.936 248.793 39.936C250.329 39.936 251.433 40.312 252.105 41.064C252.777 41.816 253.113 42.936 253.113 44.424V51H250.713V49.752C250.057 50.68 248.993 51.144 247.521 51.144C246.513 51.144 245.697 50.848 245.073 50.256C244.449 49.664 244.137 48.856 244.137 47.832C244.137 46.696 244.505 45.832 245.241 45.24C245.977 44.632 246.921 44.328 248.073 44.328C249.065 44.328 249.881 44.56 250.521 45.024C250.553 44.08 250.417 43.384 250.113 42.936C249.809 42.472 249.273 42.24 248.505 42.24C247.705 42.24 246.761 42.488 245.673 42.984ZM248.433 48.816C249.361 48.816 250.057 48.488 250.521 47.832V46.728C250.057 46.376 249.425 46.2 248.625 46.2C248.129 46.2 247.713 46.32 247.377 46.56C247.057 46.784 246.897 47.112 246.897 47.544C246.897 47.944 247.041 48.256 247.329 48.48C247.617 48.704 247.985 48.816 248.433 48.816ZM255.942 55.8V40.2H258.702V41.232C259.054 40.864 259.526 40.56 260.118 40.32C260.726 40.064 261.366 39.936 262.038 39.936C263.51 39.936 264.694 40.448 265.59 41.472C266.486 42.496 266.934 43.816 266.934 45.432C266.934 47.112 266.406 48.504 265.35 49.608C264.294 50.712 262.918 51.264 261.222 51.264C260.15 51.264 259.31 51.088 258.702 50.736V55.8H255.942ZM261.174 42.528C260.23 42.528 259.406 42.92 258.702 43.704V48.072C259.342 48.488 260.102 48.696 260.982 48.696C261.91 48.696 262.646 48.4 263.19 47.808C263.734 47.2 264.006 46.432 264.006 45.504C264.006 44.624 263.758 43.912 263.262 43.368C262.766 42.808 262.07 42.528 261.174 42.528Z" fill="white"/>
<rect x="1.5" y="1.5" width="344" height="86" rx="6.5" stroke="#E4002B" stroke-width="3"/>
<path d="M47.5408 195.96V193.2H61.3888V195.96H55.9408V210H52.9888V195.96H47.5408ZM60.929 208.68C59.857 207.608 59.321 206.248 59.321 204.6C59.321 202.952 59.857 201.6 60.929 200.544C62.017 199.472 63.441 198.936 65.201 198.936C66.961 198.936 68.377 199.472 69.449 200.544C70.537 201.6 71.081 202.952 71.081 204.6C71.081 206.248 70.537 207.608 69.449 208.68C68.377 209.736 66.961 210.264 65.201 210.264C63.441 210.264 62.017 209.736 60.929 208.68ZM62.273 204.6C62.273 205.496 62.545 206.24 63.089 206.832C63.649 207.408 64.353 207.696 65.201 207.696C66.065 207.696 66.769 207.416 67.313 206.856C67.873 206.28 68.153 205.528 68.153 204.6C68.153 203.704 67.873 202.968 67.313 202.392C66.753 201.816 66.049 201.528 65.201 201.528C64.369 201.528 63.673 201.816 63.113 202.392C62.553 202.952 62.273 203.688 62.273 204.6ZM73.4696 210V199.2C73.6616 199.2 74.0136 199.192 74.5256 199.176C75.0536 199.144 75.5896 199.12 76.1336 199.104C76.6936 199.088 77.2216 199.08 77.7176 199.08C80.9816 199.08 82.6136 200.024 82.6136 201.912C82.6136 202.536 82.4136 203.072 82.0136 203.52C81.6296 203.968 81.1576 204.232 80.5976 204.312V204.36C82.1336 204.728 82.9016 205.56 82.9016 206.856C82.9016 209.032 81.1896 210.12 77.7656 210.12C77.2856 210.12 76.5256 210.096 75.4856 210.048C74.4456 210.016 73.7736 210 73.4696 210ZM77.9576 205.416H76.2296V207.816C77.3176 207.88 77.9256 207.912 78.0536 207.912C78.6616 207.912 79.1336 207.8 79.4696 207.576C79.8216 207.352 79.9976 207.048 79.9976 206.664C79.9976 205.832 79.3176 205.416 77.9576 205.416ZM77.9576 201.312C77.1896 201.312 76.6136 201.328 76.2296 201.36V203.736H78.0296C78.5096 203.736 78.9016 203.632 79.2056 203.424C79.5256 203.2 79.6856 202.888 79.6856 202.488C79.6856 201.704 79.1096 201.312 77.9576 201.312ZM86.3565 201.984L85.6605 199.968C86.8285 199.28 88.1005 198.936 89.4765 198.936C91.0125 198.936 92.1165 199.312 92.7885 200.064C93.4605 200.816 93.7965 201.936 93.7965 203.424V210H91.3965V208.752C90.7405 209.68 89.6765 210.144 88.2045 210.144C87.1965 210.144 86.3805 209.848 85.7565 209.256C85.1325 208.664 84.8205 207.856 84.8205 206.832C84.8205 205.696 85.1885 204.832 85.9245 204.24C86.6605 203.632 87.6045 203.328 88.7565 203.328C89.7485 203.328 90.5645 203.56 91.2045 204.024C91.2365 203.08 91.1005 202.384 90.7965 201.936C90.4925 201.472 89.9565 201.24 89.1885 201.24C88.3885 201.24 87.4445 201.488 86.3565 201.984ZM89.1165 207.816C90.0445 207.816 90.7405 207.488 91.2045 206.832V205.728C90.7405 205.376 90.1085 205.2 89.3085 205.2C88.8125 205.2 88.3965 205.32 88.0605 205.56C87.7405 205.784 87.5805 206.112 87.5805 206.544C87.5805 206.944 87.7245 207.256 88.0125 207.48C88.3005 207.704 88.6685 207.816 89.1165 207.816ZM96.6258 214.8V199.2H99.3858V200.232C99.7378 199.864 100.21 199.56 100.802 199.32C101.41 199.064 102.05 198.936 102.722 198.936C104.194 198.936 105.378 199.448 106.274 200.472C107.17 201.496 107.618 202.816 107.618 204.432C107.618 206.112 107.09 207.504 106.034 208.608C104.978 209.712 103.602 210.264 101.906 210.264C100.834 210.264 99.9938 210.088 99.3858 209.736V214.8H96.6258ZM101.858 201.528C100.914 201.528 100.09 201.92 99.3858 202.704V207.072C100.026 207.488 100.786 207.696 101.666 207.696C102.594 207.696 103.33 207.4 103.874 206.808C104.418 206.2 104.69 205.432 104.69 204.504C104.69 203.624 104.442 202.912 103.946 202.368C103.45 201.808 102.754 201.528 101.858 201.528ZM115.095 210V199.2C115.287 199.2 115.639 199.192 116.151 199.176C116.679 199.144 117.215 199.12 117.759 199.104C118.319 199.088 118.847 199.08 119.343 199.08C122.607 199.08 124.239 200.024 124.239 201.912C124.239 202.536 124.039 203.072 123.639 203.52C123.255 203.968 122.783 204.232 122.223 204.312V204.36C123.759 204.728 124.527 205.56 124.527 206.856C124.527 209.032 122.815 210.12 119.391 210.12C118.911 210.12 118.151 210.096 117.111 210.048C116.071 210.016 115.399 210 115.095 210ZM119.583 205.416H117.855V207.816C118.943 207.88 119.551 207.912 119.679 207.912C120.287 207.912 120.759 207.8 121.095 207.576C121.447 207.352 121.623 207.048 121.623 206.664C121.623 205.832 120.943 205.416 119.583 205.416ZM119.583 201.312C118.815 201.312 118.239 201.328 117.855 201.36V203.736H119.655C120.135 203.736 120.527 203.632 120.831 203.424C121.151 203.2 121.311 202.888 121.311 202.488C121.311 201.704 120.735 201.312 119.583 201.312ZM127.141 210V199.2H129.901V202.152H131.245C132.941 202.152 134.157 202.504 134.893 203.208C135.629 203.912 135.997 204.808 135.997 205.896C135.997 207.064 135.597 208.04 134.797 208.824C133.997 209.608 132.741 210 131.029 210H127.141ZM137.533 210V199.2H140.293V210H137.533ZM131.005 204.36H129.901V207.6H130.981C132.373 207.6 133.069 207.064 133.069 205.992C133.069 204.904 132.381 204.36 131.005 204.36ZM143.36 210V199.2H150.608V201.792H146.12V210H143.36ZM152.337 214.8V199.2H155.097V200.232C155.449 199.864 155.921 199.56 156.513 199.32C157.121 199.064 157.761 198.936 158.433 198.936C159.905 198.936 161.089 199.448 161.985 200.472C162.881 201.496 163.329 202.816 163.329 204.432C163.329 206.112 162.801 207.504 161.745 208.608C160.689 209.712 159.313 210.264 157.617 210.264C156.545 210.264 155.705 210.088 155.097 209.736V214.8H152.337ZM157.569 201.528C156.625 201.528 155.801 201.92 155.097 202.704V207.072C155.737 207.488 156.497 207.696 157.377 207.696C158.305 207.696 159.041 207.4 159.585 206.808C160.129 206.2 160.401 205.432 160.401 204.504C160.401 203.624 160.153 202.912 159.657 202.368C159.161 201.808 158.465 201.528 157.569 201.528ZM175.714 199.2L171.466 210C170.698 211.872 170.01 213.136 169.402 213.792C168.81 214.464 168.106 214.8 167.29 214.8C166.506 214.8 165.73 214.52 164.962 213.96L165.85 211.872C166.282 212.128 166.658 212.256 166.978 212.256C167.634 212.256 168.186 211.696 168.634 210.576L168.874 210L163.882 199.2H167.194L169.714 205.104C169.81 205.344 169.986 205.864 170.242 206.664C170.37 205.96 170.498 205.432 170.626 205.08L172.57 199.2H175.714ZM181.184 210.264C180.24 210.264 179.32 210.096 178.424 209.76C177.528 209.408 176.88 208.976 176.48 208.464L177.896 206.736C178.216 207.104 178.672 207.416 179.264 207.672C179.872 207.928 180.432 208.056 180.944 208.056C181.648 208.056 182.192 207.936 182.576 207.696C182.96 207.456 183.152 207.136 183.152 206.736C183.152 206.368 183.008 206.072 182.72 205.848C182.432 205.624 182.032 205.512 181.52 205.512H179.504V203.664H181.4C181.832 203.664 182.176 203.536 182.432 203.28C182.704 203.024 182.84 202.712 182.84 202.344C182.84 201.56 182.208 201.168 180.944 201.168C179.952 201.168 178.968 201.584 177.992 202.416L176.84 200.76C177.88 199.544 179.424 198.936 181.472 198.936C182.88 198.936 183.952 199.208 184.688 199.752C185.424 200.296 185.792 201.048 185.792 202.008C185.792 202.536 185.616 203.016 185.264 203.448C184.912 203.88 184.424 204.2 183.8 204.408V204.456C184.536 204.6 185.096 204.904 185.48 205.368C185.88 205.816 186.08 206.36 186.08 207C186.08 208.008 185.632 208.808 184.736 209.4C183.84 209.976 182.656 210.264 181.184 210.264ZM191.448 210H188.688V199.2H191.448V206.04L196.488 199.2H199.248V210H196.488V203.16L191.448 210ZM209.433 210V201.96H206.577L206.505 203.112C206.329 205.048 206.033 206.536 205.617 207.576C205.217 208.616 204.705 209.32 204.081 209.688C203.473 210.04 202.657 210.216 201.633 210.216L201.393 207.528C201.745 207.56 202.073 207.464 202.377 207.24C202.697 207 203.001 206.488 203.289 205.704C203.577 204.904 203.761 203.856 203.841 202.56L204.009 199.2H212.193V210H209.433ZM223.45 206.376L224.746 208.392C224.298 209 223.69 209.464 222.922 209.784C222.17 210.104 221.346 210.264 220.45 210.264C218.69 210.264 217.274 209.744 216.202 208.704C215.13 207.664 214.594 206.296 214.594 204.6C214.594 203 215.122 201.656 216.178 200.568C217.234 199.48 218.57 198.936 220.186 198.936C222.106 198.936 223.554 199.424 224.53 200.4L223.234 202.584C222.514 201.88 221.618 201.528 220.546 201.528C219.746 201.528 219.042 201.816 218.434 202.392C217.842 202.952 217.546 203.688 217.546 204.6C217.546 205.528 217.85 206.28 218.458 206.856C219.082 207.416 219.818 207.696 220.666 207.696C221.722 207.696 222.65 207.256 223.45 206.376ZM231.773 199.2H235.301V210H232.541V206.76H231.005L228.773 210H225.605L228.485 206.16C227.941 205.968 227.453 205.608 227.021 205.08C226.605 204.536 226.397 203.856 226.397 203.04C226.397 201.904 226.829 200.984 227.693 200.28C228.573 199.56 229.933 199.2 231.773 199.2ZM229.349 203.232C229.349 203.664 229.525 204.024 229.877 204.312C230.245 204.584 230.653 204.72 231.101 204.72H232.541V201.6H231.317C230.693 201.6 230.205 201.76 229.853 202.08C229.517 202.4 229.349 202.784 229.349 203.232ZM243.462 210V199.2C243.654 199.2 244.006 199.192 244.518 199.176C245.046 199.144 245.582 199.12 246.126 199.104C246.686 199.088 247.214 199.08 247.71 199.08C250.974 199.08 252.606 200.024 252.606 201.912C252.606 202.536 252.406 203.072 252.006 203.52C251.622 203.968 251.15 204.232 250.59 204.312V204.36C252.126 204.728 252.894 205.56 252.894 206.856C252.894 209.032 251.182 210.12 247.758 210.12C247.278 210.12 246.518 210.096 245.478 210.048C244.438 210.016 243.766 210 243.462 210ZM247.95 205.416H246.222V207.816C247.31 207.88 247.918 207.912 248.046 207.912C248.654 207.912 249.126 207.8 249.462 207.576C249.814 207.352 249.99 207.048 249.99 206.664C249.99 205.832 249.31 205.416 247.95 205.416ZM247.95 201.312C247.182 201.312 246.606 201.328 246.222 201.36V203.736H248.022C248.502 203.736 248.894 203.632 249.198 203.424C249.518 203.2 249.678 202.888 249.678 202.488C249.678 201.704 249.102 201.312 247.95 201.312ZM263.979 210H261.387V193.2H264.339V205.152L273.147 193.2H275.739V210H272.787V198.072L263.979 210ZM280.394 210V193.2H283.37L289.106 201.048L294.578 193.2H297.362V210H294.434V197.856L289.13 205.32H288.698L283.346 197.928V210H280.394Z" fill="white"/>
<rect x="1.5" y="160.5" width="344" height="86" rx="6.5" stroke="#E4002B" stroke-width="3"/>
<path d="M68.9392 354.96V352.2H82.7872V354.96H77.3392V369H74.3872V354.96H68.9392ZM82.3275 367.68C81.2555 366.608 80.7195 365.248 80.7195 363.6C80.7195 361.952 81.2555 360.6 82.3275 359.544C83.4155 358.472 84.8395 357.936 86.5995 357.936C88.3595 357.936 89.7755 358.472 90.8475 359.544C91.9355 360.6 92.4795 361.952 92.4795 363.6C92.4795 365.248 91.9355 366.608 90.8475 367.68C89.7755 368.736 88.3595 369.264 86.5995 369.264C84.8395 369.264 83.4155 368.736 82.3275 367.68ZM83.6715 363.6C83.6715 364.496 83.9435 365.24 84.4875 365.832C85.0475 366.408 85.7515 366.696 86.5995 366.696C87.4635 366.696 88.1675 366.416 88.7115 365.856C89.2715 365.28 89.5515 364.528 89.5515 363.6C89.5515 362.704 89.2715 361.968 88.7115 361.392C88.1515 360.816 87.4475 360.528 86.5995 360.528C85.7675 360.528 85.0715 360.816 84.5115 361.392C83.9515 361.952 83.6715 362.688 83.6715 363.6ZM94.868 369V358.2C95.06 358.2 95.412 358.192 95.924 358.176C96.452 358.144 96.988 358.12 97.532 358.104C98.092 358.088 98.62 358.08 99.116 358.08C102.38 358.08 104.012 359.024 104.012 360.912C104.012 361.536 103.812 362.072 103.412 362.52C103.028 362.968 102.556 363.232 101.996 363.312V363.36C103.532 363.728 104.3 364.56 104.3 365.856C104.3 368.032 102.588 369.12 99.164 369.12C98.684 369.12 97.924 369.096 96.884 369.048C95.844 369.016 95.172 369 94.868 369ZM99.356 364.416H97.628V366.816C98.716 366.88 99.324 366.912 99.452 366.912C100.06 366.912 100.532 366.8 100.868 366.576C101.22 366.352 101.396 366.048 101.396 365.664C101.396 364.832 100.716 364.416 99.356 364.416ZM99.356 360.312C98.588 360.312 98.012 360.328 97.628 360.36V362.736H99.428C99.908 362.736 100.3 362.632 100.604 362.424C100.924 362.2 101.084 361.888 101.084 361.488C101.084 360.704 100.508 360.312 99.356 360.312ZM107.755 360.984L107.059 358.968C108.227 358.28 109.499 357.936 110.875 357.936C112.411 357.936 113.515 358.312 114.187 359.064C114.859 359.816 115.195 360.936 115.195 362.424V369H112.795V367.752C112.139 368.68 111.075 369.144 109.603 369.144C108.595 369.144 107.779 368.848 107.155 368.256C106.531 367.664 106.219 366.856 106.219 365.832C106.219 364.696 106.587 363.832 107.323 363.24C108.059 362.632 109.003 362.328 110.155 362.328C111.147 362.328 111.963 362.56 112.603 363.024C112.635 362.08 112.499 361.384 112.195 360.936C111.891 360.472 111.355 360.24 110.587 360.24C109.787 360.24 108.843 360.488 107.755 360.984ZM110.515 366.816C111.443 366.816 112.139 366.488 112.603 365.832V364.728C112.139 364.376 111.507 364.2 110.707 364.2C110.211 364.2 109.795 364.32 109.459 364.56C109.139 364.784 108.979 365.112 108.979 365.544C108.979 365.944 109.123 366.256 109.411 366.48C109.699 366.704 110.067 366.816 110.515 366.816ZM118.024 373.8V358.2H120.784V359.232C121.136 358.864 121.608 358.56 122.2 358.32C122.808 358.064 123.448 357.936 124.12 357.936C125.592 357.936 126.776 358.448 127.672 359.472C128.568 360.496 129.016 361.816 129.016 363.432C129.016 365.112 128.488 366.504 127.432 367.608C126.376 368.712 125 369.264 123.304 369.264C122.232 369.264 121.392 369.088 120.784 368.736V373.8H118.024ZM123.256 360.528C122.312 360.528 121.488 360.92 120.784 361.704V366.072C121.424 366.488 122.184 366.696 123.064 366.696C123.992 366.696 124.728 366.4 125.272 365.808C125.816 365.2 126.088 364.432 126.088 363.504C126.088 362.624 125.84 361.912 125.344 361.368C124.848 360.808 124.152 360.528 123.256 360.528ZM143.861 369V360.792H139.253V369H136.493V358.2H146.621V369H143.861ZM150.624 367.68C149.552 366.608 149.016 365.248 149.016 363.6C149.016 361.952 149.552 360.6 150.624 359.544C151.712 358.472 153.136 357.936 154.896 357.936C156.656 357.936 158.072 358.472 159.144 359.544C160.232 360.6 160.776 361.952 160.776 363.6C160.776 365.248 160.232 366.608 159.144 367.68C158.072 368.736 156.656 369.264 154.896 369.264C153.136 369.264 151.712 368.736 150.624 367.68ZM151.968 363.6C151.968 364.496 152.24 365.24 152.784 365.832C153.344 366.408 154.048 366.696 154.896 366.696C155.76 366.696 156.464 366.416 157.008 365.856C157.568 365.28 157.848 364.528 157.848 363.6C157.848 362.704 157.568 361.968 157.008 361.392C156.448 360.816 155.744 360.528 154.896 360.528C154.064 360.528 153.368 360.816 152.808 361.392C152.248 361.952 151.968 362.688 151.968 363.6ZM170.533 369V360.792H165.925V369H163.165V358.2H173.293V369H170.533ZM177.2 360.984L176.504 358.968C177.672 358.28 178.944 357.936 180.32 357.936C181.856 357.936 182.96 358.312 183.632 359.064C184.304 359.816 184.64 360.936 184.64 362.424V369H182.24V367.752C181.584 368.68 180.52 369.144 179.048 369.144C178.04 369.144 177.224 368.848 176.6 368.256C175.976 367.664 175.664 366.856 175.664 365.832C175.664 364.696 176.032 363.832 176.768 363.24C177.504 362.632 178.448 362.328 179.6 362.328C180.592 362.328 181.408 362.56 182.048 363.024C182.08 362.08 181.944 361.384 181.64 360.936C181.336 360.472 180.8 360.24 180.032 360.24C179.232 360.24 178.288 360.488 177.2 360.984ZM179.96 366.816C180.888 366.816 181.584 366.488 182.048 365.832V364.728C181.584 364.376 180.952 364.2 180.152 364.2C179.656 364.2 179.24 364.32 178.904 364.56C178.584 364.784 178.424 365.112 178.424 365.544C178.424 365.944 178.568 366.256 178.856 366.48C179.144 366.704 179.512 366.816 179.96 366.816ZM194.574 369V360.96H191.718L191.646 362.112C191.47 364.048 191.174 365.536 190.758 366.576C190.358 367.616 189.846 368.32 189.222 368.688C188.614 369.04 187.798 369.216 186.774 369.216L186.534 366.528C186.886 366.56 187.214 366.464 187.518 366.24C187.838 366 188.142 365.488 188.43 364.704C188.718 363.904 188.902 362.856 188.982 361.56L189.15 358.2H197.334V369H194.574ZM205.493 369V358.2C205.685 358.2 206.037 358.192 206.549 358.176C207.077 358.144 207.613 358.12 208.157 358.104C208.717 358.088 209.245 358.08 209.741 358.08C213.005 358.08 214.637 359.024 214.637 360.912C214.637 361.536 214.437 362.072 214.037 362.52C213.653 362.968 213.181 363.232 212.621 363.312V363.36C214.157 363.728 214.925 364.56 214.925 365.856C214.925 368.032 213.213 369.12 209.789 369.12C209.309 369.12 208.549 369.096 207.509 369.048C206.469 369.016 205.797 369 205.493 369ZM209.981 364.416H208.253V366.816C209.341 366.88 209.949 366.912 210.077 366.912C210.685 366.912 211.157 366.8 211.493 366.576C211.845 366.352 212.021 366.048 212.021 365.664C212.021 364.832 211.341 364.416 209.981 364.416ZM209.981 360.312C209.213 360.312 208.637 360.328 208.253 360.36V362.736H210.053C210.533 362.736 210.925 362.632 211.229 362.424C211.549 362.2 211.709 361.888 211.709 361.488C211.709 360.704 211.133 360.312 209.981 360.312ZM226.442 369.264C225.498 369.264 224.578 369.096 223.682 368.76C222.786 368.408 222.138 367.976 221.738 367.464L223.154 365.736C223.474 366.104 223.93 366.416 224.522 366.672C225.13 366.928 225.69 367.056 226.202 367.056C226.906 367.056 227.45 366.936 227.834 366.696C228.218 366.456 228.41 366.136 228.41 365.736C228.41 365.368 228.266 365.072 227.978 364.848C227.69 364.624 227.29 364.512 226.778 364.512H224.762V362.664H226.658C227.09 362.664 227.434 362.536 227.69 362.28C227.962 362.024 228.098 361.712 228.098 361.344C228.098 360.56 227.466 360.168 226.202 360.168C225.21 360.168 224.226 360.584 223.25 361.416L222.098 359.76C223.138 358.544 224.682 357.936 226.73 357.936C228.138 357.936 229.21 358.208 229.946 358.752C230.682 359.296 231.05 360.048 231.05 361.008C231.05 361.536 230.874 362.016 230.522 362.448C230.17 362.88 229.682 363.2 229.058 363.408V363.456C229.794 363.6 230.354 363.904 230.738 364.368C231.138 364.816 231.338 365.36 231.338 366C231.338 367.008 230.89 367.808 229.994 368.4C229.098 368.976 227.914 369.264 226.442 369.264ZM234.786 360.984L234.09 358.968C235.258 358.28 236.53 357.936 237.906 357.936C239.442 357.936 240.546 358.312 241.218 359.064C241.89 359.816 242.226 360.936 242.226 362.424V369H239.826V367.752C239.17 368.68 238.106 369.144 236.634 369.144C235.626 369.144 234.81 368.848 234.186 368.256C233.562 367.664 233.25 366.856 233.25 365.832C233.25 364.696 233.618 363.832 234.354 363.24C235.09 362.632 236.034 362.328 237.186 362.328C238.178 362.328 238.994 362.56 239.634 363.024C239.666 362.08 239.53 361.384 239.226 360.936C238.922 360.472 238.386 360.24 237.618 360.24C236.818 360.24 235.874 360.488 234.786 360.984ZM237.546 366.816C238.474 366.816 239.17 366.488 239.634 365.832V364.728C239.17 364.376 238.538 364.2 237.738 364.2C237.242 364.2 236.826 364.32 236.49 364.56C236.17 364.784 236.01 365.112 236.01 365.544C236.01 365.944 236.154 366.256 236.442 366.48C236.73 366.704 237.098 366.816 237.546 366.816ZM255.28 358.2L251.128 363.336L255.784 369H252.184L247.912 363.552L251.8 358.2H255.28ZM245.056 369V358.2H247.816V369H245.056ZM258.247 360.984L257.551 358.968C258.719 358.28 259.991 357.936 261.367 357.936C262.903 357.936 264.007 358.312 264.679 359.064C265.351 359.816 265.687 360.936 265.687 362.424V369H263.287V367.752C262.631 368.68 261.567 369.144 260.095 369.144C259.087 369.144 258.271 368.848 257.647 368.256C257.023 367.664 256.711 366.856 256.711 365.832C256.711 364.696 257.079 363.832 257.815 363.24C258.551 362.632 259.495 362.328 260.647 362.328C261.639 362.328 262.455 362.56 263.095 363.024C263.127 362.08 262.991 361.384 262.687 360.936C262.383 360.472 261.847 360.24 261.079 360.24C260.279 360.24 259.335 360.488 258.247 360.984ZM261.007 366.816C261.935 366.816 262.631 366.488 263.095 365.832V364.728C262.631 364.376 261.999 364.2 261.199 364.2C260.703 364.2 260.287 364.32 259.951 364.56C259.631 364.784 259.471 365.112 259.471 365.544C259.471 365.944 259.615 366.256 259.903 366.48C260.191 366.704 260.559 366.816 261.007 366.816ZM272.332 369.264C271.388 369.264 270.468 369.096 269.572 368.76C268.676 368.408 268.028 367.976 267.628 367.464L269.044 365.736C269.364 366.104 269.82 366.416 270.412 366.672C271.02 366.928 271.58 367.056 272.092 367.056C272.796 367.056 273.34 366.936 273.724 366.696C274.108 366.456 274.3 366.136 274.3 365.736C274.3 365.368 274.156 365.072 273.868 364.848C273.58 364.624 273.18 364.512 272.668 364.512H270.652V362.664H272.548C272.98 362.664 273.324 362.536 273.58 362.28C273.852 362.024 273.988 361.712 273.988 361.344C273.988 360.56 273.356 360.168 272.092 360.168C271.1 360.168 270.116 360.584 269.14 361.416L267.988 359.76C269.028 358.544 270.572 357.936 272.62 357.936C274.028 357.936 275.1 358.208 275.836 358.752C276.572 359.296 276.94 360.048 276.94 361.008C276.94 361.536 276.764 362.016 276.412 362.448C276.06 362.88 275.572 363.2 274.948 363.408V363.456C275.684 363.6 276.244 363.904 276.628 364.368C277.028 364.816 277.228 365.36 277.228 366C277.228 367.008 276.78 367.808 275.884 368.4C274.988 368.976 273.804 369.264 272.332 369.264Z" fill="white"/>
<rect x="1.5" y="319.5" width="344" height="86" rx="6.5" stroke="#E4002B" stroke-width="3"/>
<path d="M668.461 209.976V193.248C670.029 193.168 671.645 193.128 673.309 193.128C675.213 193.128 676.605 193.512 677.485 194.28C678.381 195.032 678.829 196.032 678.829 197.28C678.829 199.072 678.029 200.344 676.429 201.096V201.144C677.309 201.368 678.021 201.808 678.565 202.464C679.109 203.12 679.381 203.984 679.381 205.056C679.381 206.72 678.805 207.976 677.653 208.824C676.517 209.672 675.013 210.096 673.141 210.096C671.109 210.096 669.549 210.056 668.461 209.976ZM673.501 202.776H671.413V207.216C672.085 207.296 672.733 207.336 673.357 207.336C675.405 207.336 676.429 206.528 676.429 204.912C676.429 204.208 676.173 203.68 675.661 203.328C675.149 202.96 674.429 202.776 673.501 202.776ZM673.261 195.888C672.557 195.888 671.941 195.912 671.413 195.96V200.208H673.405C674.141 200.208 674.741 200.024 675.205 199.656C675.669 199.272 675.901 198.712 675.901 197.976C675.901 197.304 675.661 196.792 675.181 196.44C674.717 196.072 674.077 195.888 673.261 195.888ZM686.559 196.368L690.855 193.152H692.847V210H690.087V197.088L688.023 198.648L686.559 196.368ZM709.351 206.16L710.479 208.368C709.951 208.928 709.191 209.384 708.199 209.736C707.223 210.088 706.191 210.264 705.103 210.264C702.527 210.264 700.439 209.472 698.839 207.888C697.239 206.304 696.439 204.208 696.439 201.6C696.439 199.088 697.199 197.016 698.719 195.384C700.239 193.752 702.343 192.936 705.031 192.936C707.191 192.936 708.895 193.504 710.143 194.64L708.823 196.824C707.687 196.072 706.423 195.696 705.031 195.696C703.447 195.696 702.135 196.232 701.095 197.304C700.071 198.376 699.559 199.808 699.559 201.6C699.559 203.344 700.095 204.768 701.167 205.872C702.255 206.96 703.655 207.504 705.367 207.504C706.855 207.504 708.183 207.056 709.351 206.16ZM725.892 206.376L727.188 208.392C726.74 209 726.132 209.464 725.364 209.784C724.612 210.104 723.788 210.264 722.892 210.264C721.132 210.264 719.716 209.744 718.644 208.704C717.572 207.664 717.036 206.296 717.036 204.6C717.036 203 717.564 201.656 718.62 200.568C719.676 199.48 721.012 198.936 722.628 198.936C724.548 198.936 725.996 199.424 726.972 200.4L725.676 202.584C724.956 201.88 724.06 201.528 722.988 201.528C722.188 201.528 721.484 201.816 720.876 202.392C720.284 202.952 719.988 203.688 719.988 204.6C719.988 205.528 720.292 206.28 720.9 206.856C721.524 207.416 722.26 207.696 723.108 207.696C724.164 207.696 725.092 207.256 725.892 206.376ZM729.753 208.68C728.681 207.608 728.145 206.248 728.145 204.6C728.145 202.952 728.681 201.6 729.753 200.544C730.841 199.472 732.265 198.936 734.025 198.936C735.785 198.936 737.201 199.472 738.273 200.544C739.361 201.6 739.905 202.952 739.905 204.6C739.905 206.248 739.361 207.608 738.273 208.68C737.201 209.736 735.785 210.264 734.025 210.264C732.265 210.264 730.841 209.736 729.753 208.68ZM731.097 204.6C731.097 205.496 731.369 206.24 731.913 206.832C732.473 207.408 733.177 207.696 734.025 207.696C734.889 207.696 735.593 207.416 736.137 206.856C736.697 206.28 736.977 205.528 736.977 204.6C736.977 203.704 736.697 202.968 736.137 202.392C735.577 201.816 734.873 201.528 734.025 201.528C733.193 201.528 732.497 201.816 731.937 202.392C731.377 202.952 731.097 203.688 731.097 204.6ZM746.11 210.264C745.166 210.264 744.246 210.096 743.35 209.76C742.454 209.408 741.806 208.976 741.406 208.464L742.822 206.736C743.142 207.104 743.598 207.416 744.19 207.672C744.798 207.928 745.358 208.056 745.87 208.056C746.574 208.056 747.118 207.936 747.502 207.696C747.886 207.456 748.078 207.136 748.078 206.736C748.078 206.368 747.934 206.072 747.646 205.848C747.358 205.624 746.958 205.512 746.446 205.512H744.43V203.664H746.326C746.758 203.664 747.102 203.536 747.358 203.28C747.63 203.024 747.766 202.712 747.766 202.344C747.766 201.56 747.134 201.168 745.87 201.168C744.878 201.168 743.894 201.584 742.918 202.416L741.766 200.76C742.806 199.544 744.35 198.936 746.398 198.936C747.806 198.936 748.878 199.208 749.614 199.752C750.35 200.296 750.718 201.048 750.718 202.008C750.718 202.536 750.542 203.016 750.19 203.448C749.838 203.88 749.35 204.2 748.726 204.408V204.456C749.462 204.6 750.022 204.904 750.406 205.368C750.806 205.816 751.006 206.36 751.006 207C751.006 208.008 750.558 208.808 749.662 209.4C748.766 209.976 747.582 210.264 746.11 210.264ZM752.318 212.52V207.432H753.686C754.534 206.312 755.038 204.432 755.198 201.792L755.366 199.2H763.334V207.432H765.134V212.52H762.542V210H754.886V212.52H752.318ZM757.862 202.896C757.67 204.992 757.238 206.504 756.566 207.432H760.574V201.792H757.934L757.862 202.896ZM767.79 201.984L767.094 199.968C768.262 199.28 769.534 198.936 770.91 198.936C772.446 198.936 773.55 199.312 774.222 200.064C774.894 200.816 775.23 201.936 775.23 203.424V210H772.83V208.752C772.174 209.68 771.11 210.144 769.638 210.144C768.63 210.144 767.814 209.848 767.19 209.256C766.566 208.664 766.254 207.856 766.254 206.832C766.254 205.696 766.622 204.832 767.358 204.24C768.094 203.632 769.038 203.328 770.19 203.328C771.182 203.328 771.998 203.56 772.638 204.024C772.67 203.08 772.534 202.384 772.23 201.936C771.926 201.472 771.39 201.24 770.622 201.24C769.822 201.24 768.878 201.488 767.79 201.984ZM770.55 207.816C771.478 207.816 772.174 207.488 772.638 206.832V205.728C772.174 205.376 771.542 205.2 770.742 205.2C770.246 205.2 769.83 205.32 769.494 205.56C769.174 205.784 769.014 206.112 769.014 206.544C769.014 206.944 769.158 207.256 769.446 207.48C769.734 207.704 770.102 207.816 770.55 207.816ZM785.163 210V201.96H782.307L782.235 203.112C782.059 205.048 781.763 206.536 781.347 207.576C780.947 208.616 780.435 209.32 779.811 209.688C779.203 210.04 778.387 210.216 777.363 210.216L777.123 207.528C777.475 207.56 777.803 207.464 778.107 207.24C778.427 207 778.731 206.488 779.019 205.704C779.307 204.904 779.491 203.856 779.571 202.56L779.739 199.2H787.923V210H785.163ZM799.181 206.376L800.477 208.392C800.029 209 799.421 209.464 798.653 209.784C797.901 210.104 797.077 210.264 796.181 210.264C794.421 210.264 793.005 209.744 791.933 208.704C790.861 207.664 790.325 206.296 790.325 204.6C790.325 203 790.853 201.656 791.909 200.568C792.965 199.48 794.301 198.936 795.917 198.936C797.837 198.936 799.285 199.424 800.261 200.4L798.965 202.584C798.245 201.88 797.349 201.528 796.277 201.528C795.477 201.528 794.773 201.816 794.165 202.392C793.573 202.952 793.277 203.688 793.277 204.6C793.277 205.528 793.581 206.28 794.189 206.856C794.813 207.416 795.549 207.696 796.397 207.696C797.453 207.696 798.381 207.256 799.181 206.376ZM807.504 199.2H811.032V210H808.272V206.76H806.736L804.504 210H801.336L804.215 206.16C803.672 205.968 803.184 205.608 802.752 205.08C802.336 204.536 802.128 203.856 802.128 203.04C802.128 201.904 802.56 200.984 803.424 200.28C804.304 199.56 805.664 199.2 807.504 199.2ZM805.08 203.232C805.08 203.664 805.256 204.024 805.608 204.312C805.976 204.584 806.384 204.72 806.832 204.72H808.272V201.6H807.048C806.424 201.6 805.936 201.76 805.584 202.08C805.248 202.4 805.08 202.784 805.08 203.232ZM823.008 210.264C822.064 210.264 821.144 210.096 820.248 209.76C819.352 209.408 818.704 208.976 818.304 208.464L819.72 206.736C820.04 207.104 820.496 207.416 821.088 207.672C821.696 207.928 822.256 208.056 822.768 208.056C823.472 208.056 824.016 207.936 824.4 207.696C824.784 207.456 824.976 207.136 824.976 206.736C824.976 206.368 824.832 206.072 824.544 205.848C824.256 205.624 823.856 205.512 823.344 205.512H821.328V203.664H823.224C823.656 203.664 824 203.536 824.256 203.28C824.528 203.024 824.664 202.712 824.664 202.344C824.664 201.56 824.032 201.168 822.768 201.168C821.776 201.168 820.792 201.584 819.816 202.416L818.664 200.76C819.704 199.544 821.248 198.936 823.296 198.936C824.704 198.936 825.776 199.208 826.512 199.752C827.248 200.296 827.616 201.048 827.616 202.008C827.616 202.536 827.44 203.016 827.088 203.448C826.736 203.88 826.248 204.2 825.624 204.408V204.456C826.36 204.6 826.92 204.904 827.304 205.368C827.704 205.816 827.904 206.36 827.904 207C827.904 208.008 827.456 208.808 826.56 209.4C825.664 209.976 824.48 210.264 823.008 210.264ZM831.353 201.984L830.657 199.968C831.825 199.28 833.097 198.936 834.473 198.936C836.009 198.936 837.113 199.312 837.785 200.064C838.457 200.816 838.793 201.936 838.793 203.424V210H836.393V208.752C835.737 209.68 834.673 210.144 833.201 210.144C832.193 210.144 831.377 209.848 830.753 209.256C830.129 208.664 829.817 207.856 829.817 206.832C829.817 205.696 830.185 204.832 830.921 204.24C831.657 203.632 832.601 203.328 833.753 203.328C834.745 203.328 835.561 203.56 836.201 204.024C836.233 203.08 836.097 202.384 835.793 201.936C835.489 201.472 834.953 201.24 834.185 201.24C833.385 201.24 832.441 201.488 831.353 201.984ZM834.113 207.816C835.041 207.816 835.737 207.488 836.201 206.832V205.728C835.737 205.376 835.105 205.2 834.305 205.2C833.809 205.2 833.393 205.32 833.057 205.56C832.737 205.784 832.577 206.112 832.577 206.544C832.577 206.944 832.721 207.256 833.009 207.48C833.297 207.704 833.665 207.816 834.113 207.816ZM851.846 199.2L847.694 204.336L852.35 210H848.75L844.478 204.552L848.366 199.2H851.846ZM841.622 210V199.2H844.382V210H841.622ZM854.814 201.984L854.118 199.968C855.286 199.28 856.558 198.936 857.934 198.936C859.47 198.936 860.574 199.312 861.246 200.064C861.918 200.816 862.254 201.936 862.254 203.424V210H859.854V208.752C859.198 209.68 858.134 210.144 856.662 210.144C855.654 210.144 854.838 209.848 854.214 209.256C853.59 208.664 853.278 207.856 853.278 206.832C853.278 205.696 853.646 204.832 854.382 204.24C855.118 203.632 856.062 203.328 857.214 203.328C858.206 203.328 859.022 203.56 859.662 204.024C859.694 203.08 859.558 202.384 859.254 201.936C858.95 201.472 858.414 201.24 857.646 201.24C856.846 201.24 855.902 201.488 854.814 201.984ZM857.574 207.816C858.502 207.816 859.198 207.488 859.662 206.832V205.728C859.198 205.376 858.566 205.2 857.766 205.2C857.27 205.2 856.854 205.32 856.518 205.56C856.198 205.784 856.038 206.112 856.038 206.544C856.038 206.944 856.182 207.256 856.47 207.48C856.758 207.704 857.126 207.816 857.574 207.816ZM868.899 210.264C867.955 210.264 867.035 210.096 866.139 209.76C865.243 209.408 864.595 208.976 864.195 208.464L865.611 206.736C865.931 207.104 866.387 207.416 866.979 207.672C867.587 207.928 868.147 208.056 868.659 208.056C869.363 208.056 869.907 207.936 870.291 207.696C870.675 207.456 870.867 207.136 870.867 206.736C870.867 206.368 870.723 206.072 870.435 205.848C870.147 205.624 869.747 205.512 869.235 205.512H867.219V203.664H869.115C869.547 203.664 869.891 203.536 870.147 203.28C870.419 203.024 870.555 202.712 870.555 202.344C870.555 201.56 869.923 201.168 868.659 201.168C867.667 201.168 866.683 201.584 865.707 202.416L864.555 200.76C865.595 199.544 867.139 198.936 869.187 198.936C870.595 198.936 871.667 199.208 872.403 199.752C873.139 200.296 873.507 201.048 873.507 202.008C873.507 202.536 873.331 203.016 872.979 203.448C872.627 203.88 872.139 204.2 871.515 204.408V204.456C872.251 204.6 872.811 204.904 873.195 205.368C873.595 205.816 873.795 206.36 873.795 207C873.795 208.008 873.347 208.808 872.451 209.4C871.555 209.976 870.371 210.264 868.899 210.264Z" fill="white"/>
<rect x="598.5" y="160.5" width="344" height="86" rx="6.5" stroke="#E4002B" stroke-width="3"/>
<path d="M697.277 363.976V347.248C698.845 347.168 700.461 347.128 702.125 347.128C704.029 347.128 705.421 347.512 706.301 348.28C707.197 349.032 707.645 350.032 707.645 351.28C707.645 353.072 706.845 354.344 705.245 355.096V355.144C706.125 355.368 706.837 355.808 707.381 356.464C707.925 357.12 708.197 357.984 708.197 359.056C708.197 360.72 707.621 361.976 706.469 362.824C705.333 363.672 703.829 364.096 701.957 364.096C699.925 364.096 698.365 364.056 697.277 363.976ZM702.317 356.776H700.229V361.216C700.901 361.296 701.549 361.336 702.173 361.336C704.221 361.336 705.245 360.528 705.245 358.912C705.245 358.208 704.989 357.68 704.477 357.328C703.965 356.96 703.245 356.776 702.317 356.776ZM702.077 349.888C701.373 349.888 700.757 349.912 700.229 349.96V354.208H702.221C702.957 354.208 703.557 354.024 704.021 353.656C704.485 353.272 704.717 352.712 704.717 351.976C704.717 351.304 704.477 350.792 703.997 350.44C703.533 350.072 702.893 349.888 702.077 349.888ZM719.768 364H717.176V347.2H720.128V359.152L728.936 347.2H731.528V364H728.576V352.072L719.768 364ZM736.183 364V347.2H739.159L744.895 355.048L750.367 347.2H753.151V364H750.223V351.856L744.919 359.32H744.487L739.135 351.928V364H736.183ZM772.526 353.2L768.278 364C767.51 365.872 766.822 367.136 766.214 367.792C765.622 368.464 764.918 368.8 764.102 368.8C763.318 368.8 762.542 368.52 761.774 367.96L762.662 365.872C763.094 366.128 763.47 366.256 763.79 366.256C764.446 366.256 764.998 365.696 765.446 364.576L765.686 364L760.694 353.2H764.006L766.526 359.104C766.622 359.344 766.798 359.864 767.054 360.664C767.182 359.96 767.31 359.432 767.438 359.08L769.382 353.2H772.526ZM783.082 364.264C782.138 364.264 781.218 364.096 780.322 363.76C779.426 363.408 778.778 362.976 778.378 362.464L779.794 360.736C780.114 361.104 780.57 361.416 781.162 361.672C781.77 361.928 782.33 362.056 782.842 362.056C783.546 362.056 784.09 361.936 784.474 361.696C784.858 361.456 785.05 361.136 785.05 360.736C785.05 360.368 784.906 360.072 784.618 359.848C784.33 359.624 783.93 359.512 783.418 359.512H781.402V357.664H783.298C783.73 357.664 784.074 357.536 784.33 357.28C784.602 357.024 784.738 356.712 784.738 356.344C784.738 355.56 784.106 355.168 782.842 355.168C781.85 355.168 780.866 355.584 779.89 356.416L778.738 354.76C779.778 353.544 781.322 352.936 783.37 352.936C784.778 352.936 785.85 353.208 786.586 353.752C787.322 354.296 787.69 355.048 787.69 356.008C787.69 356.536 787.514 357.016 787.162 357.448C786.81 357.88 786.322 358.2 785.698 358.408V358.456C786.434 358.6 786.994 358.904 787.378 359.368C787.778 359.816 787.978 360.36 787.978 361C787.978 362.008 787.53 362.808 786.634 363.4C785.738 363.976 784.554 364.264 783.082 364.264ZM791.427 355.984L790.731 353.968C791.899 353.28 793.171 352.936 794.547 352.936C796.083 352.936 797.187 353.312 797.859 354.064C798.531 354.816 798.867 355.936 798.867 357.424V364H796.467V362.752C795.811 363.68 794.747 364.144 793.275 364.144C792.267 364.144 791.451 363.848 790.827 363.256C790.203 362.664 789.891 361.856 789.891 360.832C789.891 359.696 790.259 358.832 790.995 358.24C791.731 357.632 792.675 357.328 793.827 357.328C794.819 357.328 795.635 357.56 796.275 358.024C796.307 357.08 796.171 356.384 795.867 355.936C795.563 355.472 795.027 355.24 794.259 355.24C793.459 355.24 792.515 355.488 791.427 355.984ZM794.187 361.816C795.115 361.816 795.811 361.488 796.275 360.832V359.728C795.811 359.376 795.179 359.2 794.379 359.2C793.883 359.2 793.467 359.32 793.131 359.56C792.811 359.784 792.651 360.112 792.651 360.544C792.651 360.944 792.795 361.256 793.083 361.48C793.371 361.704 793.739 361.816 794.187 361.816ZM811.92 353.2L807.768 358.336L812.424 364H808.824L804.552 358.552L808.44 353.2H811.92ZM801.696 364V353.2H804.456V364H801.696ZM814.888 355.984L814.192 353.968C815.36 353.28 816.632 352.936 818.008 352.936C819.544 352.936 820.648 353.312 821.32 354.064C821.992 354.816 822.328 355.936 822.328 357.424V364H819.928V362.752C819.272 363.68 818.208 364.144 816.736 364.144C815.728 364.144 814.912 363.848 814.288 363.256C813.664 362.664 813.352 361.856 813.352 360.832C813.352 359.696 813.72 358.832 814.456 358.24C815.192 357.632 816.136 357.328 817.288 357.328C818.28 357.328 819.096 357.56 819.736 358.024C819.768 357.08 819.632 356.384 819.328 355.936C819.024 355.472 818.488 355.24 817.72 355.24C816.92 355.24 815.976 355.488 814.888 355.984ZM817.648 361.816C818.576 361.816 819.272 361.488 819.736 360.832V359.728C819.272 359.376 818.64 359.2 817.84 359.2C817.344 359.2 816.928 359.32 816.592 359.56C816.272 359.784 816.112 360.112 816.112 360.544C816.112 360.944 816.256 361.256 816.544 361.48C816.832 361.704 817.2 361.816 817.648 361.816ZM828.973 364.264C828.029 364.264 827.109 364.096 826.213 363.76C825.317 363.408 824.669 362.976 824.269 362.464L825.685 360.736C826.005 361.104 826.461 361.416 827.053 361.672C827.661 361.928 828.221 362.056 828.733 362.056C829.437 362.056 829.981 361.936 830.365 361.696C830.749 361.456 830.941 361.136 830.941 360.736C830.941 360.368 830.797 360.072 830.509 359.848C830.221 359.624 829.821 359.512 829.309 359.512H827.293V357.664H829.189C829.621 357.664 829.965 357.536 830.221 357.28C830.493 357.024 830.629 356.712 830.629 356.344C830.629 355.56 829.997 355.168 828.733 355.168C827.741 355.168 826.757 355.584 825.781 356.416L824.629 354.76C825.669 353.544 827.213 352.936 829.261 352.936C830.669 352.936 831.741 353.208 832.477 353.752C833.213 354.296 833.581 355.048 833.581 356.008C833.581 356.536 833.405 357.016 833.053 357.448C832.701 357.88 832.213 358.2 831.589 358.408V358.456C832.325 358.6 832.885 358.904 833.269 359.368C833.669 359.816 833.869 360.36 833.869 361C833.869 362.008 833.421 362.808 832.525 363.4C831.629 363.976 830.445 364.264 828.973 364.264ZM837.317 355.984L836.621 353.968C837.789 353.28 839.061 352.936 840.437 352.936C841.973 352.936 843.077 353.312 843.749 354.064C844.421 354.816 844.757 355.936 844.757 357.424V364H842.357V362.752C841.701 363.68 840.637 364.144 839.165 364.144C838.157 364.144 837.341 363.848 836.717 363.256C836.093 362.664 835.781 361.856 835.781 360.832C835.781 359.696 836.149 358.832 836.885 358.24C837.621 357.632 838.565 357.328 839.717 357.328C840.709 357.328 841.525 357.56 842.165 358.024C842.197 357.08 842.061 356.384 841.757 355.936C841.453 355.472 840.917 355.24 840.149 355.24C839.349 355.24 838.405 355.488 837.317 355.984ZM840.077 361.816C841.005 361.816 841.701 361.488 842.165 360.832V359.728C841.701 359.376 841.069 359.2 840.269 359.2C839.773 359.2 839.357 359.32 839.021 359.56C838.701 359.784 838.541 360.112 838.541 360.544C838.541 360.944 838.685 361.256 838.973 361.48C839.261 361.704 839.629 361.816 840.077 361.816ZM692.845 395.376L694.141 397.392C693.693 398 693.085 398.464 692.317 398.784C691.565 399.104 690.741 399.264 689.845 399.264C688.085 399.264 686.669 398.744 685.597 397.704C684.525 396.664 683.989 395.296 683.989 393.6C683.989 392 684.517 390.656 685.573 389.568C686.629 388.48 687.965 387.936 689.581 387.936C691.501 387.936 692.949 388.424 693.925 389.4L692.629 391.584C691.909 390.88 691.013 390.528 689.941 390.528C689.141 390.528 688.437 390.816 687.829 391.392C687.237 391.952 686.941 392.688 686.941 393.6C686.941 394.528 687.245 395.28 687.853 395.856C688.477 396.416 689.213 396.696 690.061 396.696C691.117 396.696 692.045 396.256 692.845 395.376ZM696.356 399V388.2H698.852L702.524 392.712L706.004 388.2H708.428V399H705.668V392.4L702.476 396.432H702.404L699.116 392.4V399H696.356ZM719.969 395.976L720.761 397.92C719.705 398.816 718.329 399.264 716.633 399.264C714.889 399.264 713.481 398.744 712.409 397.704C711.353 396.664 710.825 395.296 710.825 393.6C710.825 391.984 711.345 390.64 712.385 389.568C713.425 388.48 714.809 387.936 716.537 387.936C717.961 387.936 719.169 388.408 720.161 389.352C721.153 390.28 721.649 391.48 721.649 392.952C721.649 393.56 721.593 394.056 721.481 394.44H713.681C713.793 395.24 714.145 395.864 714.737 396.312C715.329 396.744 716.057 396.96 716.921 396.96C718.137 396.96 719.153 396.632 719.969 395.976ZM716.417 390.24C714.849 390.24 713.905 391.024 713.585 392.592H718.889C718.905 391.92 718.689 391.36 718.241 390.912C717.793 390.464 717.185 390.24 716.417 390.24ZM731.36 399V394.872H726.632V399H723.872V388.2H726.632V392.28H731.36V388.2H734.12V399H731.36ZM739.944 399H737.184V388.2H739.944V395.04L744.984 388.2H747.744V399H744.984V392.16L739.944 399ZM757.929 399V390.96H755.073L755.001 392.112C754.825 394.048 754.529 395.536 754.113 396.576C753.713 397.616 753.201 398.32 752.577 398.688C751.969 399.04 751.153 399.216 750.129 399.216L749.889 396.528C750.241 396.56 750.569 396.464 750.873 396.24C751.193 396 751.497 395.488 751.785 394.704C752.073 393.904 752.257 392.856 752.337 391.56L752.505 388.2H760.689V399H757.929ZM771.947 395.376L773.243 397.392C772.795 398 772.187 398.464 771.419 398.784C770.667 399.104 769.843 399.264 768.947 399.264C767.187 399.264 765.771 398.744 764.699 397.704C763.627 396.664 763.091 395.296 763.091 393.6C763.091 392 763.619 390.656 764.675 389.568C765.731 388.48 767.067 387.936 768.683 387.936C770.603 387.936 772.051 388.424 773.027 389.4L771.731 391.584C771.011 390.88 770.115 390.528 769.043 390.528C768.243 390.528 767.539 390.816 766.931 391.392C766.339 391.952 766.043 392.688 766.043 393.6C766.043 394.528 766.347 395.28 766.955 395.856C767.579 396.416 768.315 396.696 769.163 396.696C770.219 396.696 771.147 396.256 771.947 395.376ZM780.269 388.2H783.797V399H781.037V395.76H779.501L777.269 399H774.101L776.981 395.16C776.437 394.968 775.949 394.608 775.517 394.08C775.101 393.536 774.893 392.856 774.893 392.04C774.893 390.904 775.325 389.984 776.189 389.28C777.069 388.56 778.429 388.2 780.269 388.2ZM777.845 392.232C777.845 392.664 778.021 393.024 778.373 393.312C778.741 393.584 779.149 393.72 779.597 393.72H781.037V390.6H779.813C779.189 390.6 778.701 390.76 778.349 391.08C778.013 391.4 777.845 391.784 777.845 392.232ZM800.142 395.376L801.438 397.392C800.99 398 800.382 398.464 799.614 398.784C798.862 399.104 798.038 399.264 797.142 399.264C795.382 399.264 793.966 398.744 792.894 397.704C791.822 396.664 791.286 395.296 791.286 393.6C791.286 392 791.814 390.656 792.87 389.568C793.926 388.48 795.262 387.936 796.878 387.936C798.798 387.936 800.246 388.424 801.222 389.4L799.926 391.584C799.206 390.88 798.31 390.528 797.238 390.528C796.438 390.528 795.734 390.816 795.126 391.392C794.534 391.952 794.238 392.688 794.238 393.6C794.238 394.528 794.542 395.28 795.15 395.856C795.774 396.416 796.51 396.696 797.358 396.696C798.414 396.696 799.342 396.256 800.142 395.376ZM802.314 390.96V388.2H812.154V390.96H808.626V399H805.866V390.96H802.314ZM814.97 390.984L814.274 388.968C815.442 388.28 816.714 387.936 818.09 387.936C819.626 387.936 820.73 388.312 821.402 389.064C822.074 389.816 822.41 390.936 822.41 392.424V399H820.01V397.752C819.354 398.68 818.29 399.144 816.818 399.144C815.81 399.144 814.994 398.848 814.37 398.256C813.746 397.664 813.434 396.856 813.434 395.832C813.434 394.696 813.802 393.832 814.538 393.24C815.274 392.632 816.218 392.328 817.37 392.328C818.362 392.328 819.178 392.56 819.818 393.024C819.85 392.08 819.714 391.384 819.41 390.936C819.106 390.472 818.57 390.24 817.802 390.24C817.002 390.24 816.058 390.488 814.97 390.984ZM817.73 396.816C818.658 396.816 819.354 396.488 819.818 395.832V394.728C819.354 394.376 818.722 394.2 817.922 394.2C817.426 394.2 817.01 394.32 816.674 394.56C816.354 394.784 816.194 395.112 816.194 395.544C816.194 395.944 816.338 396.256 816.626 396.48C816.914 396.704 817.282 396.816 817.73 396.816ZM824.111 390.96V388.2H833.951V390.96H830.423V399H827.663V390.96H824.111ZM846.483 388.2L842.235 399C841.467 400.872 840.779 402.136 840.171 402.792C839.579 403.464 838.875 403.8 838.059 403.8C837.275 403.8 836.499 403.52 835.731 402.96L836.619 400.872C837.051 401.128 837.427 401.256 837.747 401.256C838.403 401.256 838.955 400.696 839.403 399.576L839.643 399L834.651 388.2H837.963L840.483 394.104C840.579 394.344 840.755 394.864 841.011 395.664C841.139 394.96 841.267 394.432 841.395 394.08L843.339 388.2H846.483ZM855.9 395.376L857.196 397.392C856.748 398 856.14 398.464 855.372 398.784C854.62 399.104 853.796 399.264 852.9 399.264C851.14 399.264 849.724 398.744 848.652 397.704C847.58 396.664 847.044 395.296 847.044 393.6C847.044 392 847.572 390.656 848.628 389.568C849.684 388.48 851.02 387.936 852.636 387.936C854.556 387.936 856.004 388.424 856.98 389.4L855.684 391.584C854.964 390.88 854.068 390.528 852.996 390.528C852.196 390.528 851.492 390.816 850.884 391.392C850.292 391.952 849.996 392.688 849.996 393.6C849.996 394.528 850.3 395.28 850.908 395.856C851.532 396.416 852.268 396.696 853.116 396.696C854.172 396.696 855.1 396.256 855.9 395.376Z" fill="white"/>
<rect x="598.5" y="314.5" width="344" height="121" rx="6.5" stroke="#E4002B" stroke-width="3"/>
<path d="M771 303L776.774 293H765.226L771 303ZM770 258V294H772V258H770Z" fill="#C5CDCF"/>
<path d="M1289 303L1294.77 293H1283.23L1289 303ZM1288 258V294H1290V258H1288Z" fill="#C5CDCF"/>
<path d="M1213.7 363.976V347.248C1215.26 347.168 1216.88 347.128 1218.54 347.128C1220.45 347.128 1221.84 347.512 1222.72 348.28C1223.62 349.032 1224.06 350.032 1224.06 351.28C1224.06 353.072 1223.26 354.344 1221.66 355.096V355.144C1222.54 355.368 1223.26 355.808 1223.8 356.464C1224.34 357.12 1224.62 357.984 1224.62 359.056C1224.62 360.72 1224.04 361.976 1222.89 362.824C1221.75 363.672 1220.25 364.096 1218.38 364.096C1216.34 364.096 1214.78 364.056 1213.7 363.976ZM1218.74 356.776H1216.65V361.216C1217.32 361.296 1217.97 361.336 1218.59 361.336C1220.64 361.336 1221.66 360.528 1221.66 358.912C1221.66 358.208 1221.41 357.68 1220.9 357.328C1220.38 356.96 1219.66 356.776 1218.74 356.776ZM1218.5 349.888C1217.79 349.888 1217.18 349.912 1216.65 349.96V354.208H1218.64C1219.38 354.208 1219.98 354.024 1220.44 353.656C1220.9 353.272 1221.14 352.712 1221.14 351.976C1221.14 351.304 1220.9 350.792 1220.42 350.44C1219.95 350.072 1219.31 349.888 1218.5 349.888ZM1236.19 364H1233.59V347.2H1236.55V359.152L1245.35 347.2H1247.95V364H1244.99V352.072L1236.19 364ZM1252.6 364V347.2H1255.58L1261.31 355.048L1266.79 347.2H1269.57V364H1266.64V351.856L1261.34 359.32H1260.91L1255.55 351.928V364H1252.6ZM1288.94 353.2L1284.7 364C1283.93 365.872 1283.24 367.136 1282.63 367.792C1282.04 368.464 1281.34 368.8 1280.52 368.8C1279.74 368.8 1278.96 368.52 1278.19 367.96L1279.08 365.872C1279.51 366.128 1279.89 366.256 1280.21 366.256C1280.86 366.256 1281.42 365.696 1281.86 364.576L1282.1 364L1277.11 353.2H1280.42L1282.94 359.104C1283.04 359.344 1283.22 359.864 1283.47 360.664C1283.6 359.96 1283.73 359.432 1283.86 359.08L1285.8 353.2H1288.94ZM1294.56 355.96V353.2H1304.4V355.96H1300.87V364H1298.11V355.96H1294.56ZM1306.98 362.68C1305.91 361.608 1305.37 360.248 1305.37 358.6C1305.37 356.952 1305.91 355.6 1306.98 354.544C1308.07 353.472 1309.49 352.936 1311.25 352.936C1313.01 352.936 1314.43 353.472 1315.5 354.544C1316.59 355.6 1317.13 356.952 1317.13 358.6C1317.13 360.248 1316.59 361.608 1315.5 362.68C1314.43 363.736 1313.01 364.264 1311.25 364.264C1309.49 364.264 1308.07 363.736 1306.98 362.68ZM1308.32 358.6C1308.32 359.496 1308.6 360.24 1309.14 360.832C1309.7 361.408 1310.4 361.696 1311.25 361.696C1312.12 361.696 1312.82 361.416 1313.36 360.856C1313.92 360.28 1314.2 359.528 1314.2 358.6C1314.2 357.704 1313.92 356.968 1313.36 356.392C1312.8 355.816 1312.1 355.528 1311.25 355.528C1310.42 355.528 1309.72 355.816 1309.16 356.392C1308.6 356.952 1308.32 357.688 1308.32 358.6ZM1319.52 364V353.2C1319.71 353.2 1320.06 353.192 1320.58 353.176C1321.1 353.144 1321.64 353.12 1322.18 353.104C1322.74 353.088 1323.27 353.08 1323.77 353.08C1327.03 353.08 1328.66 354.024 1328.66 355.912C1328.66 356.536 1328.46 357.072 1328.06 357.52C1327.68 357.968 1327.21 358.232 1326.65 358.312V358.36C1328.18 358.728 1328.95 359.56 1328.95 360.856C1328.95 363.032 1327.24 364.12 1323.82 364.12C1323.34 364.12 1322.58 364.096 1321.54 364.048C1320.5 364.016 1319.82 364 1319.52 364ZM1324.01 359.416H1322.28V361.816C1323.37 361.88 1323.98 361.912 1324.1 361.912C1324.71 361.912 1325.18 361.8 1325.52 361.576C1325.87 361.352 1326.05 361.048 1326.05 360.664C1326.05 359.832 1325.37 359.416 1324.01 359.416ZM1324.01 355.312C1323.24 355.312 1322.66 355.328 1322.28 355.36V357.736H1324.08C1324.56 357.736 1324.95 357.632 1325.26 357.424C1325.58 357.2 1325.74 356.888 1325.74 356.488C1325.74 355.704 1325.16 355.312 1324.01 355.312ZM1332.41 355.984L1331.71 353.968C1332.88 353.28 1334.15 352.936 1335.53 352.936C1337.06 352.936 1338.17 353.312 1338.84 354.064C1339.51 354.816 1339.85 355.936 1339.85 357.424V364H1337.45V362.752C1336.79 363.68 1335.73 364.144 1334.26 364.144C1333.25 364.144 1332.43 363.848 1331.81 363.256C1331.18 362.664 1330.87 361.856 1330.87 360.832C1330.87 359.696 1331.24 358.832 1331.98 358.24C1332.71 357.632 1333.66 357.328 1334.81 357.328C1335.8 357.328 1336.62 357.56 1337.26 358.024C1337.29 357.08 1337.15 356.384 1336.85 355.936C1336.54 355.472 1336.01 355.24 1335.24 355.24C1334.44 355.24 1333.5 355.488 1332.41 355.984ZM1335.17 361.816C1336.1 361.816 1336.79 361.488 1337.26 360.832V359.728C1336.79 359.376 1336.16 359.2 1335.36 359.2C1334.86 359.2 1334.45 359.32 1334.11 359.56C1333.79 359.784 1333.63 360.112 1333.63 360.544C1333.63 360.944 1333.78 361.256 1334.06 361.48C1334.35 361.704 1334.72 361.816 1335.17 361.816ZM1342.68 368.8V353.2H1345.44V354.232C1345.79 353.864 1346.26 353.56 1346.85 353.32C1347.46 353.064 1348.1 352.936 1348.77 352.936C1350.24 352.936 1351.43 353.448 1352.32 354.472C1353.22 355.496 1353.67 356.816 1353.67 358.432C1353.67 360.112 1353.14 361.504 1352.08 362.608C1351.03 363.712 1349.65 364.264 1347.96 364.264C1346.88 364.264 1346.04 364.088 1345.44 363.736V368.8H1342.68ZM1347.91 355.528C1346.96 355.528 1346.14 355.92 1345.44 356.704V361.072C1346.08 361.488 1346.84 361.696 1347.72 361.696C1348.64 361.696 1349.38 361.4 1349.92 360.808C1350.47 360.2 1350.74 359.432 1350.74 358.504C1350.74 357.624 1350.49 356.912 1350 356.368C1349.5 355.808 1348.8 355.528 1347.91 355.528ZM1356.9 355.984L1356.2 353.968C1357.37 353.28 1358.64 352.936 1360.02 352.936C1361.56 352.936 1362.66 353.312 1363.33 354.064C1364 354.816 1364.34 355.936 1364.34 357.424V364H1361.94V362.752C1361.28 363.68 1360.22 364.144 1358.75 364.144C1357.74 364.144 1356.92 363.848 1356.3 363.256C1355.68 362.664 1355.36 361.856 1355.36 360.832C1355.36 359.696 1355.73 358.832 1356.47 358.24C1357.2 357.632 1358.15 357.328 1359.3 357.328C1360.29 357.328 1361.11 357.56 1361.75 358.024C1361.78 357.08 1361.64 356.384 1361.34 355.936C1361.04 355.472 1360.5 355.24 1359.73 355.24C1358.93 355.24 1357.99 355.488 1356.9 355.984ZM1359.66 361.816C1360.59 361.816 1361.28 361.488 1361.75 360.832V359.728C1361.28 359.376 1360.65 359.2 1359.85 359.2C1359.36 359.2 1358.94 359.32 1358.6 359.56C1358.28 359.784 1358.12 360.112 1358.12 360.544C1358.12 360.944 1358.27 361.256 1358.56 361.48C1358.84 361.704 1359.21 361.816 1359.66 361.816ZM1162.63 397.68C1161.56 396.608 1161.02 395.248 1161.02 393.6C1161.02 391.952 1161.56 390.6 1162.63 389.544C1163.72 388.472 1165.14 387.936 1166.9 387.936C1168.66 387.936 1170.08 388.472 1171.15 389.544C1172.24 390.6 1172.78 391.952 1172.78 393.6C1172.78 395.248 1172.24 396.608 1171.15 397.68C1170.08 398.736 1168.66 399.264 1166.9 399.264C1165.14 399.264 1163.72 398.736 1162.63 397.68ZM1163.97 393.6C1163.97 394.496 1164.24 395.24 1164.79 395.832C1165.35 396.408 1166.05 396.696 1166.9 396.696C1167.76 396.696 1168.47 396.416 1169.01 395.856C1169.57 395.28 1169.85 394.528 1169.85 393.6C1169.85 392.704 1169.57 391.968 1169.01 391.392C1168.45 390.816 1167.75 390.528 1166.9 390.528C1166.07 390.528 1165.37 390.816 1164.81 391.392C1164.25 391.952 1163.97 392.688 1163.97 393.6ZM1183.28 381.936L1184.72 384.192C1184.3 384.688 1183.82 385.04 1183.28 385.248C1182.74 385.44 1182.1 385.616 1181.36 385.776C1180.64 385.92 1180.02 386.12 1179.49 386.376C1178.14 387 1177.37 388.344 1177.16 390.408H1177.21C1177.54 389.816 1178.06 389.336 1178.77 388.968C1179.47 388.584 1180.22 388.392 1181 388.392C1182.49 388.392 1183.68 388.872 1184.58 389.832C1185.47 390.792 1185.92 392.08 1185.92 393.696C1185.92 395.248 1185.39 396.568 1184.34 397.656C1183.28 398.728 1181.92 399.264 1180.26 399.264C1178.45 399.264 1177.02 398.648 1175.96 397.416C1174.92 396.184 1174.4 394.52 1174.4 392.424C1174.4 387.8 1175.76 384.904 1178.48 383.736C1179.09 383.48 1179.74 383.288 1180.45 383.16C1181.15 383.016 1181.71 382.872 1182.13 382.728C1182.56 382.584 1182.94 382.32 1183.28 381.936ZM1177.35 393C1177.37 394.072 1177.63 394.96 1178.14 395.664C1178.66 396.352 1179.34 396.696 1180.18 396.696C1181.03 396.696 1181.7 396.424 1182.2 395.88C1182.71 395.32 1182.97 394.632 1182.97 393.816C1182.97 392.984 1182.74 392.304 1182.27 391.776C1181.81 391.232 1181.15 390.96 1180.3 390.96C1179.57 390.96 1178.94 391.152 1178.41 391.536C1177.9 391.92 1177.54 392.408 1177.35 393ZM1195.81 399V394.872H1191.08V399H1188.32V388.2H1191.08V392.28H1195.81V388.2H1198.57V399H1195.81ZM1202.57 397.68C1201.49 396.608 1200.96 395.248 1200.96 393.6C1200.96 391.952 1201.49 390.6 1202.57 389.544C1203.65 388.472 1205.08 387.936 1206.84 387.936C1208.6 387.936 1210.01 388.472 1211.09 389.544C1212.17 390.6 1212.72 391.952 1212.72 393.6C1212.72 395.248 1212.17 396.608 1211.09 397.68C1210.01 398.736 1208.6 399.264 1206.84 399.264C1205.08 399.264 1203.65 398.736 1202.57 397.68ZM1203.91 393.6C1203.91 394.496 1204.18 395.24 1204.73 395.832C1205.29 396.408 1205.99 396.696 1206.84 396.696C1207.7 396.696 1208.41 396.416 1208.95 395.856C1209.51 395.28 1209.79 394.528 1209.79 393.6C1209.79 392.704 1209.51 391.968 1208.95 391.392C1208.39 390.816 1207.69 390.528 1206.84 390.528C1206.01 390.528 1205.31 390.816 1204.75 391.392C1204.19 391.952 1203.91 392.688 1203.91 393.6ZM1215.11 399V388.2C1215.3 388.2 1215.65 388.192 1216.16 388.176C1216.69 388.144 1217.23 388.12 1217.77 388.104C1218.33 388.088 1218.86 388.08 1219.35 388.08C1222.62 388.08 1224.25 389.024 1224.25 390.912C1224.25 391.536 1224.05 392.072 1223.65 392.52C1223.27 392.968 1222.79 393.232 1222.23 393.312V393.36C1223.77 393.728 1224.54 394.56 1224.54 395.856C1224.54 398.032 1222.83 399.12 1219.4 399.12C1218.92 399.12 1218.16 399.096 1217.12 399.048C1216.08 399.016 1215.41 399 1215.11 399ZM1219.59 394.416H1217.87V396.816C1218.95 396.88 1219.56 396.912 1219.69 396.912C1220.3 396.912 1220.77 396.8 1221.11 396.576C1221.46 396.352 1221.63 396.048 1221.63 395.664C1221.63 394.832 1220.95 394.416 1219.59 394.416ZM1219.59 390.312C1218.83 390.312 1218.25 390.328 1217.87 390.36V392.736H1219.67C1220.15 392.736 1220.54 392.632 1220.84 392.424C1221.16 392.2 1221.32 391.888 1221.32 391.488C1221.32 390.704 1220.75 390.312 1219.59 390.312ZM1229.91 399H1227.15V388.2H1229.91V395.04L1234.95 388.2H1237.71V399H1234.95V392.16L1229.91 399ZM1247.9 399V390.96H1245.04L1244.97 392.112C1244.79 394.048 1244.5 395.536 1244.08 396.576C1243.68 397.616 1243.17 398.32 1242.55 398.688C1241.94 399.04 1241.12 399.216 1240.1 399.216L1239.86 396.528C1240.21 396.56 1240.54 396.464 1240.84 396.24C1241.16 396 1241.47 395.488 1241.75 394.704C1242.04 393.904 1242.23 392.856 1242.31 391.56L1242.47 388.2H1250.66V399H1247.9ZM1254.67 397.68C1253.6 396.608 1253.06 395.248 1253.06 393.6C1253.06 391.952 1253.6 390.6 1254.67 389.544C1255.76 388.472 1257.18 387.936 1258.94 387.936C1260.7 387.936 1262.12 388.472 1263.19 389.544C1264.28 390.6 1264.82 391.952 1264.82 393.6C1264.82 395.248 1264.28 396.608 1263.19 397.68C1262.12 398.736 1260.7 399.264 1258.94 399.264C1257.18 399.264 1255.76 398.736 1254.67 397.68ZM1256.01 393.6C1256.01 394.496 1256.28 395.24 1256.83 395.832C1257.39 396.408 1258.09 396.696 1258.94 396.696C1259.8 396.696 1260.51 396.416 1261.05 395.856C1261.61 395.28 1261.89 394.528 1261.89 393.6C1261.89 392.704 1261.61 391.968 1261.05 391.392C1260.49 390.816 1259.79 390.528 1258.94 390.528C1258.11 390.528 1257.41 390.816 1256.85 391.392C1256.29 391.952 1256.01 392.688 1256.01 393.6ZM1275.39 395.376L1276.69 397.392C1276.24 398 1275.63 398.464 1274.86 398.784C1274.11 399.104 1273.29 399.264 1272.39 399.264C1270.63 399.264 1269.22 398.744 1268.14 397.704C1267.07 396.664 1266.54 395.296 1266.54 393.6C1266.54 392 1267.06 390.656 1268.12 389.568C1269.18 388.48 1270.51 387.936 1272.13 387.936C1274.05 387.936 1275.5 388.424 1276.47 389.4L1275.18 391.584C1274.46 390.88 1273.56 390.528 1272.49 390.528C1271.69 390.528 1270.98 390.816 1270.38 391.392C1269.78 391.952 1269.49 392.688 1269.49 393.6C1269.49 394.528 1269.79 395.28 1270.4 395.856C1271.02 396.416 1271.76 396.696 1272.61 396.696C1273.66 396.696 1274.59 396.256 1275.39 395.376ZM1278.9 399V388.2H1281.66V391.152H1283.15C1284.85 391.152 1286.06 391.504 1286.8 392.208C1287.54 392.912 1287.9 393.808 1287.9 394.896C1287.9 396.064 1287.5 397.04 1286.7 397.824C1285.9 398.608 1284.65 399 1282.94 399H1278.9ZM1282.91 393.36H1281.66V396.6H1282.89C1284.28 396.6 1284.98 396.064 1284.98 394.992C1284.98 393.904 1284.29 393.36 1282.91 393.36ZM1305.42 388.2L1301.26 393.336L1305.92 399H1302.32L1298.05 393.552L1301.94 388.2H1305.42ZM1295.19 399V388.2H1297.95V399H1295.19ZM1307.82 397.68C1306.75 396.608 1306.22 395.248 1306.22 393.6C1306.22 391.952 1306.75 390.6 1307.82 389.544C1308.91 388.472 1310.34 387.936 1312.1 387.936C1313.86 387.936 1315.27 388.472 1316.34 389.544C1317.43 390.6 1317.98 391.952 1317.98 393.6C1317.98 395.248 1317.43 396.608 1316.34 397.68C1315.27 398.736 1313.86 399.264 1312.1 399.264C1310.34 399.264 1308.91 398.736 1307.82 397.68ZM1309.17 393.6C1309.17 394.496 1309.44 395.24 1309.98 395.832C1310.54 396.408 1311.25 396.696 1312.1 396.696C1312.96 396.696 1313.66 396.416 1314.21 395.856C1314.77 395.28 1315.05 394.528 1315.05 393.6C1315.05 392.704 1314.77 391.968 1314.21 391.392C1313.65 390.816 1312.94 390.528 1312.1 390.528C1311.26 390.528 1310.57 390.816 1310.01 391.392C1309.45 391.952 1309.17 392.688 1309.17 393.6ZM1327.12 399V390.96H1324.26L1324.19 392.112C1324.01 394.048 1323.72 395.536 1323.3 396.576C1322.9 397.616 1322.39 398.32 1321.76 398.688C1321.16 399.04 1320.34 399.216 1319.32 399.216L1319.08 396.528C1319.43 396.56 1319.76 396.464 1320.06 396.24C1320.38 396 1320.68 395.488 1320.97 394.704C1321.26 393.904 1321.44 392.856 1321.52 391.56L1321.69 388.2H1329.88V399H1327.12ZM1335.71 399H1332.95V388.2H1335.71V395.04L1340.75 388.2H1343.51V399H1340.75V392.16L1335.71 399ZM1355.3 388.2V399H1352.54V395.28C1351.76 395.696 1350.86 395.904 1349.85 395.904C1348.49 395.904 1347.5 395.552 1346.88 394.848C1346.25 394.128 1345.94 393.064 1345.94 391.656V388.2H1348.89V391.32C1348.89 392.648 1349.48 393.312 1350.65 393.312C1351.41 393.312 1352.05 393.168 1352.54 392.88V388.2H1355.3ZM1366.85 395.976L1367.64 397.92C1366.59 398.816 1365.21 399.264 1363.52 399.264C1361.77 399.264 1360.36 398.744 1359.29 397.704C1358.24 396.664 1357.71 395.296 1357.71 393.6C1357.71 391.984 1358.23 390.64 1359.27 389.568C1360.31 388.48 1361.69 387.936 1363.42 387.936C1364.84 387.936 1366.05 388.408 1367.04 389.352C1368.04 390.28 1368.53 391.48 1368.53 392.952C1368.53 393.56 1368.48 394.056 1368.36 394.44H1360.56C1360.68 395.24 1361.03 395.864 1361.62 396.312C1362.21 396.744 1362.94 396.96 1363.8 396.96C1365.02 396.96 1366.04 396.632 1366.85 395.976ZM1363.3 390.24C1361.73 390.24 1360.79 391.024 1360.47 392.592H1365.77C1365.79 391.92 1365.57 391.36 1365.12 390.912C1364.68 390.464 1364.07 390.24 1363.3 390.24ZM1378.87 395.376L1380.16 397.392C1379.72 398 1379.11 398.464 1378.34 398.784C1377.59 399.104 1376.76 399.264 1375.87 399.264C1374.11 399.264 1372.69 398.744 1371.62 397.704C1370.55 396.664 1370.01 395.296 1370.01 393.6C1370.01 392 1370.54 390.656 1371.6 389.568C1372.65 388.48 1373.99 387.936 1375.6 387.936C1377.52 387.936 1378.97 388.424 1379.95 389.4L1378.65 391.584C1377.93 390.88 1377.04 390.528 1375.96 390.528C1375.16 390.528 1374.46 390.816 1373.85 391.392C1373.26 391.952 1372.96 392.688 1372.96 393.6C1372.96 394.528 1373.27 395.28 1373.88 395.856C1374.5 396.416 1375.24 396.696 1376.08 396.696C1377.14 396.696 1378.07 396.256 1378.87 395.376ZM1381.04 390.96V388.2H1390.88V390.96H1387.35V399H1384.59V390.96H1381.04ZM1392.86 399V388.2C1393.05 388.2 1393.4 388.192 1393.91 388.176C1394.44 388.144 1394.98 388.12 1395.52 388.104C1396.08 388.088 1396.61 388.08 1397.1 388.08C1400.37 388.08 1402 389.024 1402 390.912C1402 391.536 1401.8 392.072 1401.4 392.52C1401.02 392.968 1400.54 393.232 1399.98 393.312V393.36C1401.52 393.728 1402.29 394.56 1402.29 395.856C1402.29 398.032 1400.58 399.12 1397.15 399.12C1396.67 399.12 1395.91 399.096 1394.87 399.048C1393.83 399.016 1393.16 399 1392.86 399ZM1397.34 394.416H1395.62V396.816C1396.7 396.88 1397.31 396.912 1397.44 396.912C1398.05 396.912 1398.52 396.8 1398.86 396.576C1399.21 396.352 1399.38 396.048 1399.38 395.664C1399.38 394.832 1398.7 394.416 1397.34 394.416ZM1397.34 390.312C1396.58 390.312 1396 390.328 1395.62 390.36V392.736H1397.42C1397.9 392.736 1398.29 392.632 1398.59 392.424C1398.91 392.2 1399.07 391.888 1399.07 391.488C1399.07 390.704 1398.5 390.312 1397.34 390.312ZM1405.84 397.68C1404.77 396.608 1404.23 395.248 1404.23 393.6C1404.23 391.952 1404.77 390.6 1405.84 389.544C1406.93 388.472 1408.35 387.936 1410.11 387.936C1411.87 387.936 1413.29 388.472 1414.36 389.544C1415.45 390.6 1415.99 391.952 1415.99 393.6C1415.99 395.248 1415.45 396.608 1414.36 397.68C1413.29 398.736 1411.87 399.264 1410.11 399.264C1408.35 399.264 1406.93 398.736 1405.84 397.68ZM1407.18 393.6C1407.18 394.496 1407.46 395.24 1408 395.832C1408.56 396.408 1409.26 396.696 1410.11 396.696C1410.98 396.696 1411.68 396.416 1412.22 395.856C1412.78 395.28 1413.06 394.528 1413.06 393.6C1413.06 392.704 1412.78 391.968 1412.22 391.392C1411.66 390.816 1410.96 390.528 1410.11 390.528C1409.28 390.528 1408.58 390.816 1408.02 391.392C1407.46 391.952 1407.18 392.688 1407.18 393.6Z" fill="white"/>
<rect x="1116.5" y="314.5" width="344" height="121" rx="6.5" stroke="#E4002B" stroke-width="3"/>
<path d="M1163.89 196.368L1168.18 193.152H1170.18V210H1167.42V197.088L1165.35 198.648L1163.89 196.368ZM1186.68 206.16L1187.81 208.368C1187.28 208.928 1186.52 209.384 1185.53 209.736C1184.55 210.088 1183.52 210.264 1182.43 210.264C1179.86 210.264 1177.77 209.472 1176.17 207.888C1174.57 206.304 1173.77 204.208 1173.77 201.6C1173.77 199.088 1174.53 197.016 1176.05 195.384C1177.57 193.752 1179.67 192.936 1182.36 192.936C1184.52 192.936 1186.22 193.504 1187.47 194.64L1186.15 196.824C1185.02 196.072 1183.75 195.696 1182.36 195.696C1180.78 195.696 1179.46 196.232 1178.42 197.304C1177.4 198.376 1176.89 199.808 1176.89 201.6C1176.89 203.344 1177.42 204.768 1178.5 205.872C1179.58 206.96 1180.98 207.504 1182.7 207.504C1184.18 207.504 1185.51 207.056 1186.68 206.16ZM1205.45 199.2L1201.2 210C1200.44 211.872 1199.75 213.136 1199.14 213.792C1198.55 214.464 1197.84 214.8 1197.03 214.8C1196.24 214.8 1195.47 214.52 1194.7 213.96L1195.59 211.872C1196.02 212.128 1196.4 212.256 1196.72 212.256C1197.37 212.256 1197.92 211.696 1198.37 210.576L1198.61 210L1193.62 199.2H1196.93L1199.45 205.104C1199.55 205.344 1199.72 205.864 1199.98 206.664C1200.11 205.96 1200.24 205.432 1200.36 205.08L1202.31 199.2H1205.45ZM1207.11 210V199.2H1209.6L1213.27 203.712L1216.75 199.2H1219.18V210H1216.42V203.4L1213.23 207.432H1213.15L1209.87 203.4V210H1207.11ZM1230.72 206.976L1231.51 208.92C1230.45 209.816 1229.08 210.264 1227.38 210.264C1225.64 210.264 1224.23 209.744 1223.16 208.704C1222.1 207.664 1221.57 206.296 1221.57 204.6C1221.57 202.984 1222.09 201.64 1223.13 200.568C1224.17 199.48 1225.56 198.936 1227.29 198.936C1228.71 198.936 1229.92 199.408 1230.91 200.352C1231.9 201.28 1232.4 202.48 1232.4 203.952C1232.4 204.56 1232.34 205.056 1232.23 205.44H1224.43C1224.54 206.24 1224.89 206.864 1225.49 207.312C1226.08 207.744 1226.81 207.96 1227.67 207.96C1228.89 207.96 1229.9 207.632 1230.72 206.976ZM1227.17 201.24C1225.6 201.24 1224.65 202.024 1224.33 203.592H1229.64C1229.65 202.92 1229.44 202.36 1228.99 201.912C1228.54 201.464 1227.93 201.24 1227.17 201.24ZM1242.11 210V205.872H1237.38V210H1234.62V199.2H1237.38V203.28H1242.11V199.2H1244.87V210H1242.11ZM1247.93 210V199.2H1250.69V202.152H1252.18C1253.88 202.152 1255.09 202.504 1255.83 203.208C1256.57 203.912 1256.93 204.808 1256.93 205.896C1256.93 207.064 1256.53 208.04 1255.73 208.824C1254.93 209.608 1253.68 210 1251.97 210H1247.93ZM1251.94 204.36H1250.69V207.6H1251.92C1253.31 207.6 1254.01 207.064 1254.01 205.992C1254.01 204.904 1253.32 204.36 1251.94 204.36ZM1259.14 210V199.2H1261.9V207.432H1264.95V199.2H1267.71V207.432H1270.78V199.2H1273.54V210H1259.14ZM1279.36 210H1276.6V199.2H1279.36V206.04L1284.4 199.2H1287.16V210H1284.4V203.16L1279.36 210ZM1297.34 210V201.96H1294.49L1294.42 203.112C1294.24 205.048 1293.94 206.536 1293.53 207.576C1293.13 208.616 1292.62 209.32 1291.99 209.688C1291.38 210.04 1290.57 210.216 1289.54 210.216L1289.3 207.528C1289.66 207.56 1289.98 207.464 1290.29 207.24C1290.61 207 1290.91 206.488 1291.2 205.704C1291.49 204.904 1291.67 203.856 1291.75 202.56L1291.92 199.2H1300.1V210H1297.34ZM1304.11 208.68C1303.04 207.608 1302.5 206.248 1302.5 204.6C1302.5 202.952 1303.04 201.6 1304.11 200.544C1305.2 199.472 1306.62 198.936 1308.38 198.936C1310.14 198.936 1311.56 199.472 1312.63 200.544C1313.72 201.6 1314.26 202.952 1314.26 204.6C1314.26 206.248 1313.72 207.608 1312.63 208.68C1311.56 209.736 1310.14 210.264 1308.38 210.264C1306.62 210.264 1305.2 209.736 1304.11 208.68ZM1305.46 204.6C1305.46 205.496 1305.73 206.24 1306.27 206.832C1306.83 207.408 1307.54 207.696 1308.38 207.696C1309.25 207.696 1309.95 207.416 1310.5 206.856C1311.06 206.28 1311.34 205.528 1311.34 204.6C1311.34 203.704 1311.06 202.968 1310.5 202.392C1309.94 201.816 1309.23 201.528 1308.38 201.528C1307.55 201.528 1306.86 201.816 1306.3 202.392C1305.74 202.952 1305.46 203.688 1305.46 204.6ZM1322.68 208.68C1321.6 207.608 1321.07 206.248 1321.07 204.6C1321.07 202.952 1321.6 201.6 1322.68 200.544C1323.76 199.472 1325.19 198.936 1326.95 198.936C1328.71 198.936 1330.12 199.472 1331.2 200.544C1332.28 201.6 1332.83 202.952 1332.83 204.6C1332.83 206.248 1332.28 207.608 1331.2 208.68C1330.12 209.736 1328.71 210.264 1326.95 210.264C1325.19 210.264 1323.76 209.736 1322.68 208.68ZM1324.02 204.6C1324.02 205.496 1324.29 206.24 1324.84 206.832C1325.4 207.408 1326.1 207.696 1326.95 207.696C1327.81 207.696 1328.52 207.416 1329.06 206.856C1329.62 206.28 1329.9 205.528 1329.9 204.6C1329.9 203.704 1329.62 202.968 1329.06 202.392C1328.5 201.816 1327.8 201.528 1326.95 201.528C1326.12 201.528 1325.42 201.816 1324.86 202.392C1324.3 202.952 1324.02 203.688 1324.02 204.6ZM1343.4 206.376L1344.7 208.392C1344.25 209 1343.64 209.464 1342.87 209.784C1342.12 210.104 1341.3 210.264 1340.4 210.264C1338.64 210.264 1337.22 209.744 1336.15 208.704C1335.08 207.664 1334.54 206.296 1334.54 204.6C1334.54 203 1335.07 201.656 1336.13 200.568C1337.18 199.48 1338.52 198.936 1340.14 198.936C1342.06 198.936 1343.5 199.424 1344.48 200.4L1343.18 202.584C1342.46 201.88 1341.57 201.528 1340.5 201.528C1339.7 201.528 1338.99 201.816 1338.38 202.392C1337.79 202.952 1337.5 203.688 1337.5 204.6C1337.5 205.528 1337.8 206.28 1338.41 206.856C1339.03 207.416 1339.77 207.696 1340.62 207.696C1341.67 207.696 1342.6 207.256 1343.4 206.376ZM1345.57 201.96V199.2H1355.41V201.96H1351.88V210H1349.12V201.96H1345.57ZM1358.23 201.984L1357.53 199.968C1358.7 199.28 1359.97 198.936 1361.35 198.936C1362.88 198.936 1363.99 199.312 1364.66 200.064C1365.33 200.816 1365.67 201.936 1365.67 203.424V210H1363.27V208.752C1362.61 209.68 1361.55 210.144 1360.08 210.144C1359.07 210.144 1358.25 209.848 1357.63 209.256C1357 208.664 1356.69 207.856 1356.69 206.832C1356.69 205.696 1357.06 204.832 1357.8 204.24C1358.53 203.632 1359.48 203.328 1360.63 203.328C1361.62 203.328 1362.44 203.56 1363.08 204.024C1363.11 203.08 1362.97 202.384 1362.67 201.936C1362.36 201.472 1361.83 201.24 1361.06 201.24C1360.26 201.24 1359.32 201.488 1358.23 201.984ZM1360.99 207.816C1361.92 207.816 1362.61 207.488 1363.08 206.832V205.728C1362.61 205.376 1361.98 205.2 1361.18 205.2C1360.68 205.2 1360.27 205.32 1359.93 205.56C1359.61 205.784 1359.45 206.112 1359.45 206.544C1359.45 206.944 1359.6 207.256 1359.88 207.48C1360.17 207.704 1360.54 207.816 1360.99 207.816ZM1367.37 201.96V199.2H1377.21V201.96H1373.68V210H1370.92V201.96H1367.37ZM1389.41 199.2L1385.26 204.336L1389.91 210H1386.31L1382.04 204.552L1385.93 199.2H1389.41ZM1379.18 210V199.2H1381.94V210H1379.18ZM1394.3 210H1391.54V199.2H1394.3V206.04L1399.34 199.2H1402.1V210H1399.34V203.16L1394.3 210Z" fill="white"/>
<rect x="1116.5" y="160.5" width="344" height="86" rx="6.5" stroke="#E4002B" stroke-width="3"/>
<path d="M174 149L179.774 139H168.226L174 149ZM173 99V140H175V99H173Z" fill="#C5CDCF"/>
<path d="M174 308L179.774 298H168.226L174 308ZM173 258V299H175V258H173Z" fill="#C5CDCF"/>
<path d="M583.5 201.998L573.636 195.995L573.369 207.539L583.5 201.998ZM357.958 364.284C376.043 304.218 402.081 263.523 437.567 238.007C473.055 212.49 518.127 202.056 574.479 202.79L574.505 200.79C517.907 200.053 472.358 210.528 436.399 236.383C400.439 262.24 374.206 303.383 356.042 363.708L357.958 364.284Z" fill="#C5CDCF"/>
<path d="M1105 204L1095 198.227L1095 209.774L1105 204ZM954 205L1096 205L1096 203L954 203L954 205Z" fill="#C5CDCF"/>
</svg>
