<svg width="411" height="74" viewBox="0 0 411 74" fill="none" xmlns="http://www.w3.org/2000/svg">
<path d="M10.773 35.335L0 73.237H17.6701L28.4431 35.335H10.773Z" fill="#2F353D"/>
<path d="M87.2382 59.9975H78.9299V35.3153H87.2382V59.9975ZM92.2073 22.0856H78.9299V3.32715H61.9355V73.2173H92.2172C99.4025 73.2173 104.232 68.4586 104.232 61.3698V33.9331C104.232 26.8444 99.4025 22.0856 92.2172 22.0856H92.2073Z" fill="#2F353D"/>
<path d="M135 61.3104H127.606V51.8423H134.99V61.3104H135ZM139.969 22.0854H113.772V34.002H134.99V41.3771H122.627C115.382 41.3771 110.502 46.0963 110.502 53.1159V61.4289C110.502 68.5078 115.372 73.2764 122.627 73.2764H151.994V33.9329C151.994 26.8442 147.164 22.0854 139.979 22.0854H139.969Z" fill="#2F353D"/>
<path d="M214.158 22.0854H159.598V73.227H176.592V35.3151H184.493V73.227H201.388V35.3151H209.289V73.227H226.283V33.9329C226.283 26.8442 221.413 22.0854 214.158 22.0854Z" fill="#2F353D"/>
<path d="M257.398 43.48H250.014V34.0119H257.398V43.48ZM262.367 22.0953H245.015C237.83 22.0953 233 26.854 233 33.9428V61.4092C233 68.488 237.83 73.2566 245.015 73.2566H273.568V61.3104H249.994V52.0497H274.482V33.9329C274.482 26.8442 269.612 22.0854 262.357 22.0854L262.367 22.0953Z" fill="#2F353D"/>
<path d="M298.375 10.4355H281.381V61.3994C281.381 68.4783 286.211 73.2469 293.396 73.2469H306.316V60.9058H298.365V35.3251H306.316V22.0856H298.365V10.4355H298.375Z" fill="#2F353D"/>
<path d="M335.911 30.586V73.2369H352.905V35.325H362.903V22.0854H344.428C339.24 22.0854 335.881 25.4225 335.881 30.5761L335.911 30.586Z" fill="#CF1F2D"/>
<path d="M385.036 22.0854H368.141V61.3894C368.141 65.8125 369.701 73.2369 380.156 73.2369H410.447V22.0953H393.453V60.0072H385.045V22.0953L385.036 22.0854Z" fill="#CF1F2D"/>
<path d="M314.951 73.2374H327.265V61.0049H314.951V73.2374Z" fill="#CF1F2D"/>
<path d="M36.0861 0H18.416L39.2266 73.2371H56.8967L36.0861 0Z" fill="#2F353D"/>
<path d="M41.4517 65.9017H14.2012V52.9683H41.4517V65.9017Z" fill="#2F353D"/>
</svg>
