<svg width="260" height="47" viewBox="0 0 260 47" fill="none" xmlns="http://www.w3.org/2000/svg">
<path d="M6.82422 22.3838L0 46.393H11.1932L18.0174 22.3838H6.82422Z" fill="#2F353D"/>
<path d="M55.2609 38.0066H49.998V22.3715H55.2609V38.0066ZM58.4086 13.9911H49.998V2.1084H39.2328V46.3807H58.4149C62.9665 46.3807 66.0261 43.3663 66.0261 38.8759V21.4959C66.0261 17.0055 62.9665 13.9911 58.4149 13.9911H58.4086Z" fill="#2F353D"/>
<path d="M85.5171 38.8385H80.8333V32.8409H85.5108V38.8385H85.5171ZM88.6648 13.9912H72.0701V21.5398H85.5108V26.2116H77.6793C73.09 26.2116 69.9989 29.201 69.9989 33.6477V38.9136C69.9989 43.3977 73.0837 46.4184 77.6793 46.4184H96.2822V21.4961C96.2822 17.0057 93.2226 13.9912 88.6711 13.9912H88.6648Z" fill="#2F353D"/>
<path d="M135.659 13.9912H101.097V46.3871H111.863V22.3716H116.867V46.3871H127.57V22.3716H132.574V46.3871H143.34V21.4961C143.34 17.0057 140.255 13.9912 135.659 13.9912Z" fill="#2F353D"/>
<path d="M163.051 27.5437H158.373V21.5461H163.051V27.5437ZM166.199 13.9975H155.207C150.655 13.9975 147.596 17.0119 147.596 21.5023V38.901C147.596 43.3852 150.655 46.4059 155.207 46.4059H173.294V38.8385H158.361V32.9722H173.873V21.4961C173.873 17.0057 170.788 13.9912 166.192 13.9912L166.199 13.9975Z" fill="#2F353D"/>
<path d="M189.007 6.61035H178.242V38.8937C178.242 43.3778 181.301 46.3985 185.853 46.3985H194.037V38.581H189.001V22.3768H194.037V13.9901H189.001V6.61035H189.007Z" fill="#2F353D"/>
<path d="M212.784 19.3759V46.3934H223.55V22.3779H229.883V13.9912H218.18C214.893 13.9912 212.766 16.1051 212.766 19.3697L212.784 19.3759Z" fill="#CF1F2D"/>
<path d="M243.903 13.9912H233.201V38.8885C233.201 41.6903 234.189 46.3934 240.812 46.3934H260V13.9975H249.235V38.013H243.909V13.9975L243.903 13.9912Z" fill="#CF1F2D"/>
<path d="M199.508 46.3923H207.308V38.6436H199.508V46.3923Z" fill="#CF1F2D"/>
<path d="M22.8587 0H11.6655L24.848 46.3925H36.0413L22.8587 0Z" fill="#2F353D"/>
<path d="M26.2583 41.7455H8.99634V33.5527H26.2583V41.7455Z" fill="#2F353D"/>
</svg>
