<svg width="175" height="74" viewBox="0 0 175 74" fill="none" xmlns="http://www.w3.org/2000/svg">
<path fill-rule="evenodd" clip-rule="evenodd" d="M173.822 11.609C173.03 11.5464 169.082 11.4557 168.328 11.441C167.57 11.425 167.51 12.2544 167.24 12.833C166.978 11.849 164.546 10.2557 160.669 11.709C157.32 12.9624 154.809 16.2717 153.39 20.3064C152.082 24.0157 153.074 28.2304 158.161 27.725C149.016 28.913 142.614 33.873 138.114 36.7264C134.246 39.1824 130.401 38.3144 130.246 35.6024C130.296 35.4184 130.346 35.2264 130.401 35.0064C130.358 35.009 129.361 35.0557 129.361 35.0557C123.298 35.3357 117.216 35.7904 111.14 36.4264C111.336 35.8384 111.489 35.389 111.734 34.665C113.554 29.237 115.054 25.3237 116.916 19.9117C117.781 17.317 119.684 15.6984 121.016 15.933C123.252 16.349 123.18 20.2437 122.35 22.2477C121.106 25.3797 119.125 27.7157 117.674 26.9264C116.97 26.5264 117.846 25.4077 117.846 25.4077C117.268 25.5344 116.692 25.661 116.117 25.7877C115.481 27.001 114.117 29.1704 116.052 30.793C117.986 32.4704 121.309 31.3824 123.393 29.681C125.682 27.809 127.289 24.9424 128.153 21.2904C129.213 16.737 127.098 12.1544 123.502 12.4944C120.781 12.7024 118.47 14.7184 118.47 14.7184C118.47 14.7224 119.153 13.5477 117.104 13.7077C114.396 13.917 112.448 14.0984 112.448 14.1024C111.396 14.5624 112.921 15.021 112.554 15.997L111.336 19.4397C109.516 25.1464 107.68 29.3584 105.904 35.077C105.776 35.525 105.516 36.297 105.226 37.0917C75.0704 40.8144 45.1117 48.9744 17.8357 62.0184C16.6584 66.589 16.0704 68.8717 14.8984 73.4397C41.5157 56.6104 72.5331 44.9517 104.022 40.169C103.166 42.049 102.522 43.3624 101.426 44.6744C99.6037 46.8517 98.1277 47.801 96.965 48.417C95.3171 49.313 100.637 49.473 103.096 48.3437C107.125 46.397 107.238 44.4704 107.238 44.4664C108.14 45.141 109.14 45.5184 110.022 45.433C113.945 44.9597 109.134 43.6504 109.721 41.1144C109.896 40.5157 110.065 39.9144 110.237 39.3144C116.125 38.5904 122.022 38.117 127.901 37.8917C127.47 39.377 127.284 41.185 128.393 42.2864C130.246 44.181 135.057 44.0264 139.906 40.733C144.752 37.4384 150.049 30.4704 160.689 28.121C160.896 27.5624 161.265 26.2264 161.468 25.669C161.468 25.6664 158.68 27.453 158.836 23.0637C158.95 19.445 162.786 13.3424 164.604 13.2984C166.913 13.2424 165.918 15.873 165.918 15.873C164.83 18.661 163.746 21.4637 162.664 24.2744C161.27 27.7064 163.74 28.8317 166.568 28.3824C168.628 28.053 169.574 27.1677 170.51 26.461L171.442 24.1584C169.697 25.113 167.5 25.8997 168.18 24.1984C169.273 21.317 171.59 16.2064 172.689 13.3544C172.968 12.5957 174.858 11.6877 173.822 11.609ZM132.346 30.0997C134.781 30.385 137.968 29.469 140.562 26.5557C141.033 26.0544 141.45 25.4864 141.697 24.833C143.47 20.9597 142.186 19.3464 141.338 18.7224C141.062 18.4957 140.825 18.3997 140.825 18.3997C141.025 18.2397 141.252 18.1077 141.62 17.8877C142.304 17.4757 143.341 17.013 144.734 16.477C145.932 16.0344 146.372 17.0344 145.833 18.1317C144.88 20.477 144.292 22.1957 143.349 24.561C142.456 26.2477 142.814 29.2877 145.276 29.1797C147.798 29.0944 148.74 28.661 151.408 27.1304C151.33 26.5837 151.252 26.0384 151.172 25.4904C149.877 26.413 148.192 26.4837 148.932 24.605C150.192 21.233 151.098 18.517 152.38 15.1824C152.577 14.481 154.978 10.4224 149.241 12.3317C146.525 13.3224 142.83 14.9997 141.634 15.769C140.456 16.5277 139.781 16.9224 138.74 17.6304C138.74 17.6304 140.554 19.861 139.184 23.9917C137.33 29.3784 133.26 29.2664 134.51 26.1424C135.804 22.6077 138.752 14.4064 139 13.929C139.249 13.453 139.994 12.8117 138.208 12.765C136.424 12.717 133.421 12.9024 133.418 12.9464C132.046 13.1437 133.734 13.8624 133.353 14.821C132.145 17.873 130.64 21.841 129.716 24.2757C129.098 25.7824 128.473 29.6384 132.346 30.0997ZM59.7411 24.305C59.9624 24.6664 59.5384 25.8584 59.5384 25.8597C58.4451 29.157 57.3531 32.469 56.2624 35.7957C56.2624 35.7957 55.4157 38.269 55.9264 39.8904C56.3904 41.2357 58.0357 41.549 59.0517 41.249C60.4477 40.8357 62.7704 39.4637 63.8384 38.0477L64.0851 35.4264C63.4811 36.1504 62.3384 37.4877 62.0157 36.7824C61.7491 36.1464 62.2677 34.3464 62.2677 34.3464C62.8851 32.417 63.5077 30.4984 64.1277 28.5784C64.6064 27.101 65.0877 25.6264 65.5651 24.1517C65.5651 24.1517 66.6171 21.2664 65.8304 20.3077C65.5491 19.9424 65.0771 19.7584 64.5984 19.7824C62.1557 19.7717 59.7704 22.045 58.6064 23.109C58.6251 23.5184 58.0077 24.737 58.0277 25.149C58.0277 25.149 59.5224 23.9424 59.7411 24.305ZM64.7131 17.617C64.8957 17.5677 65.1451 17.389 65.3931 17.2784C68.9891 15.1344 68.1864 13.6357 68.0077 13.273C67.8304 12.9184 66.9237 12.2104 64.9557 13.0904C64.5851 13.257 64.2757 13.429 63.8411 13.7264C60.6064 15.8464 61.6091 17.3837 61.6064 17.3797C61.6064 17.3837 62.3117 18.7424 64.7131 17.617ZM7.88506 42.6317C6.95839 40.809 8.4784 36.657 12.9811 33.897C17.9451 30.8544 20.7917 31.0117 20.7917 31.0117C20.7917 31.0117 18.4477 34.697 15.6504 38.1397C15.1371 38.7717 14.6317 39.3357 14.1824 39.9064C12.6584 41.6024 9.41839 45.4117 7.88506 42.6317ZM28.0651 23.4144C29.2891 20.9784 31.0411 17.5837 31.6171 16.121C31.3304 19.1024 29.4531 24.669 28.4584 28.245C28.4317 28.3357 28.4077 28.429 28.3851 28.5224C27.5131 28.3824 26.3331 28.2624 25.3691 28.289C26.0824 27.1184 27.1864 25.1557 28.0651 23.4144ZM16.0384 42.6704C18.8437 38.8944 21.4477 34.965 23.6891 30.829C25.1477 30.9397 26.4371 31.053 27.7677 31.4437C26.5651 35.789 25.3637 40.013 24.1117 44.3424C22.6424 48.2344 20.7864 52.153 17.2464 54.581C17.2464 54.5864 18.8717 55.461 22.5411 52.5717C22.9131 52.2864 25.5624 49.549 25.5517 49.7704C25.5517 49.7704 27.4611 52.1277 32.9131 49.7464C39.3091 46.949 45.3304 34.3464 47.6584 26.8864C47.6397 26.9357 48.4184 26.4517 48.2384 27.0557C47.4704 29.6144 45.0251 37.0544 44.5157 39.4837C44.3557 40.173 44.2784 43.4944 47.3091 43.8077C49.1691 44.0784 51.1064 42.0517 52.8117 39.369L52.5331 36.7517C51.0157 39.0144 50.1344 38.5624 50.6291 36.5784C50.6277 36.5677 52.9157 28.1344 53.6797 26.1464C54.5224 24.337 55.2571 23.3144 55.6584 22.9504C56.1637 22.4984 56.6864 21.473 53.3531 22.2184C50.0224 22.9637 48.1011 23.4197 44.7024 24.4824C43.4651 24.917 44.5171 25.2877 44.6797 25.693C44.8411 26.0997 45.0517 28.877 41.5984 34.989C40.0384 37.4704 37.3824 43.025 34.0411 44.6504C32.1477 45.569 31.1744 44.3584 31.7517 42.4544C32.5197 39.6864 33.2891 36.7917 34.0437 34.065C35.6837 35.0557 36.9917 35.9424 37.5171 36.3704L38.6771 32.7437C38.0077 32.2797 36.5157 31.361 35.1037 30.7624C36.3531 25.677 37.7157 20.7997 39.5051 15.8717C40.6797 13.193 41.9291 11.6197 42.9451 10.6984C43.4104 10.2784 43.4051 9.6037 42.5851 9.7077C41.4184 9.8557 39.9757 10.3157 38.5651 10.589C35.4157 11.1957 28.5624 13.1517 27.8904 13.3864C26.4184 13.8997 27.7891 14.4784 27.9237 14.821C27.9784 14.965 28.0304 15.1104 28.0197 15.321C28.0984 16.1037 27.9971 17.0144 27.7704 17.9144C26.5544 21.9957 24.6917 24.809 22.2624 28.2944C20.1291 28.5237 16.9611 29.021 12.2237 31.065C7.78373 32.9837 4.36374 36.2184 2.30641 39.933C0.25174 43.6464 -1.70427 52.0357 5.07039 51.2264C7.90773 50.4944 11.5104 48.2357 14.4397 44.665C14.9451 44.1664 15.4611 43.4504 16.0384 42.6704ZM94.8277 21.9744C95.8091 20.1224 96.9184 19.0357 97.9371 18.2984C98.7597 17.7344 99.5651 17.4997 100.197 18.0984C101.01 18.777 100.71 19.7517 100.182 21.4584C99.5877 23.229 99.0797 24.613 97.8064 27.6984C97.7077 27.9104 97.5984 28.1437 97.4624 28.3837C96.3797 30.305 94.4131 32.0264 93.0331 30.7757C91.4784 29.4344 93.4704 24.533 94.8277 21.9744ZM88.0597 23.069C86.0517 27.7877 86.0024 32.345 88.7384 34.1544C89.6637 34.837 90.9237 35.0064 92.1397 34.789C94.2704 34.4544 96.0717 32.5144 97.3091 30.9984C97.5051 30.753 97.6997 30.5104 97.8384 30.2597C97.8384 30.2597 97.1171 33.2117 99.7597 33.5304C102.114 33.8157 104.794 31.313 104.794 31.321L105.792 28.693C105.792 28.6917 102.572 31.2957 102.986 28.5357C104.174 25.0264 105.674 21.065 106.882 17.589C107.26 16.465 107.552 15.925 107.94 15.4277C108.426 14.9744 108.658 14.5597 107.976 14.541C106.828 14.353 103.718 14.7504 102.942 14.849C102.172 14.9477 101.945 16.0597 101.465 17.009C94.1771 11.8944 89.0277 20.7877 88.0597 23.069ZM79.6891 12.677C80.2571 11.8437 80.9584 10.7024 81.9651 9.28104C84.9211 5.21037 86.7984 3.93303 87.7264 4.04636C88.8797 4.19703 88.6837 6.6477 87.4504 8.91703C87.0651 9.5717 86.6744 10.2917 86.1171 10.8637C83.6291 13.7584 81.5131 14.949 80.2184 15.3757C78.9291 15.8037 78.2837 15.9584 77.7784 15.957C77.9677 15.593 78.9917 13.869 79.6891 12.677ZM67.6891 32.6104C67.9037 36.0677 69.8411 38.8624 74.1944 38.1517C75.7757 37.765 77.8037 36.9077 79.5251 35.3197C81.3771 33.7437 83.0771 31.337 84.5171 27.9557C85.9077 24.117 86.9531 16.861 80.5624 17.7077C79.7517 18.1797 78.8637 18.8517 77.7597 19.921C77.9264 20.4237 77.5877 20.9357 77.7571 21.4384C78.7051 20.8357 79.4184 20.905 79.8411 21.4997C80.5104 22.3237 80.5171 24.3277 79.7237 26.7464C79.6477 26.9437 79.5717 27.1424 79.4917 27.4117C78.0704 31.637 75.8984 35.513 74.1531 34.7104C72.6771 33.989 73.5704 28.7077 75.2131 23.7624C76.0717 21.1704 77.4624 17.6597 77.4784 17.645C77.4784 17.645 79.0704 17.413 80.1064 17.1064C81.3251 16.745 84.5251 15.3917 87.2624 12.2744C87.4477 12.105 87.5717 11.9277 87.7597 11.6957C88.0104 11.3424 88.2651 10.9917 88.5171 10.6397C91.4971 6.35436 91.6744 2.33837 89.0464 1.28904C88.8171 1.1957 88.5904 1.10236 88.3611 1.07304C88.1837 1.04903 88.0704 1.03437 87.8984 1.0117C85.8091 0.806366 83.1011 1.40237 80.1744 3.93037C78.1584 5.73837 74.2264 10.7624 71.4944 17.3104C69.8717 21.1997 68.1944 26.257 67.7837 29.8997C67.6451 30.7557 67.6691 31.849 67.6891 32.6104Z" fill="#DC0028"/>
</svg>
