<svg width="136" height="39" viewBox="0 0 136 39" fill="none" xmlns="http://www.w3.org/2000/svg">
<path d="M12.158 16.2773L13.3272 19.8357H17.0784L11.1593 2.18892H6.89666L0.587891 19.8357H4.31469L5.50824 16.2773H12.158ZM11.1593 13.2515H6.53128L8.84531 6.35251L11.1593 13.2515ZM22.8922 11.8233H29.9317V19.8357H33.5855V2.18892H29.9317V8.7974H22.8922V2.18892H19.2385V19.8357H22.8922V11.8233ZM44.5389 5.21478H49.7272V2.18892H35.502V5.21478H40.8852V19.8357H44.5389V5.21478ZM60.2323 16.2773L61.4015 19.8357H65.1527L59.2337 2.18892H54.971L48.6622 19.8357H52.389L53.5826 16.2773H60.2323ZM59.2337 13.2515H54.6056L56.9196 6.35251L59.2337 13.2515ZM71.0152 13.542H75.5702C78.8342 13.542 80.929 11.2423 80.929 7.65968C80.929 4.12547 78.9073 2.18892 75.2049 2.18892H67.3615V19.8357H71.0152V13.542ZM71.0152 10.5161V5.21478H74.4254C76.3741 5.21478 77.2753 6.06202 77.2753 7.85333C77.2753 9.66885 76.3741 10.5161 74.4254 10.5161H71.0152ZM83.5107 19.8357H87.1644V17.6813L94.2039 9.01526V19.8357H97.8577V2.18892H94.2039V4.39175L87.1644 13.1062V2.18892H83.5107V19.8357ZM108.886 1.89844C106.401 1.89844 104.355 2.72147 102.845 4.34333C101.262 6.03782 100.36 8.50692 100.36 11.1455C100.36 13.784 101.262 16.2773 102.845 17.9476C104.38 19.5937 106.377 20.3925 108.91 20.3925C111.443 20.3925 113.441 19.5937 114.975 17.9476C116.51 16.3257 117.46 13.7598 117.46 11.2665C117.46 8.50692 116.559 6.01361 114.975 4.34333C113.416 2.67306 111.468 1.89844 108.886 1.89844ZM108.91 4.99692C111.906 4.99692 113.806 7.41761 113.806 11.2423C113.806 14.8733 111.833 17.294 108.91 17.294C105.938 17.294 104.014 14.8733 104.014 11.1455C104.014 7.41761 105.938 4.99692 108.91 4.99692ZM123.679 11.8233H130.719V19.8357H134.372V2.18892H130.719V8.7974H123.679V2.18892H120.025V19.8357H123.679V11.8233Z" fill="black"/>
<path d="M49.3906 34.2931H51.2175V26.9827H54.2501V25.4697H49.3906V34.2931ZM57.5188 31.1462H59.7963C61.4283 31.1462 62.4757 29.9964 62.4757 28.2051C62.4757 26.438 61.4649 25.4697 59.6136 25.4697H55.692V34.2931H57.5188V31.1462ZM57.5188 29.6333V26.9827H59.2239C60.1982 26.9827 60.6489 27.4063 60.6489 28.3019C60.6489 29.2097 60.1982 29.6333 59.2239 29.6333H57.5188ZM63.5959 34.2931H65.3375C66.1535 34.281 66.7624 33.8937 67.1278 33.1675L70.5867 25.4697H68.6989L66.8233 29.9359L64.9356 25.4697H63.0478L65.8855 31.7877L65.6541 32.2719C65.4836 32.7076 65.4593 32.7318 65.167 32.7802H63.5959V34.2931ZM71.428 34.2931H73.2549V26.9585H76.6163V34.2931H78.4432V25.4697H71.428V34.2931ZM80.1818 34.2931H82.0086V26.9585H85.3701V34.2931H87.1969V25.4697H80.1818V34.2931Z" fill="#7D7D7D"/>
</svg>
