<svg width="882" height="148" viewBox="0 0 882 148" fill="none" xmlns="http://www.w3.org/2000/svg">
<path d="M507.513 72.8492L503.353 35.3598C503.123 33.538 502.198 31.9764 500.581 31.4548C498.963 30.9342 497.346 31.1956 496.191 32.4969L472.159 58.7908C471.644 59.3814 471.249 60.0921 471.004 60.8729C470.673 62.0844 470.75 63.3905 471.218 64.5427C471.687 65.6949 472.516 66.6127 473.546 67.1213C474.008 67.3816 474.47 67.3816 474.932 67.3816H483.251C483.944 67.6418 484.406 68.684 484.175 69.4648L482.789 73.63L468 121.272H471.004L486.948 70.7661C487.641 68.1635 486.486 65.5598 484.406 64.5176C483.944 64.2585 483.482 64.2585 483.02 64.2585H474.931C474.238 63.9971 473.776 62.9561 474.007 62.1742C474.007 61.915 474.237 61.6548 474.469 61.3945L477.242 58.2703L495.496 38.484L498.5 35.0995C498.962 34.8404 499.424 34.579 499.887 34.8404C500.349 35.0995 500.811 35.6211 500.811 36.1417L501.273 41.0877L504.046 68.9443L504.508 73.3698V74.1505C504.277 74.9313 503.353 75.4518 502.659 75.1916C502.429 75.1916 502.429 74.9324 502.197 74.9324L500.581 73.3698L499.194 72.0673L496.191 69.4648C495.728 69.2045 495.497 68.9443 494.804 68.6829C492.494 67.9021 490.183 69.2045 489.258 71.5468V71.8071L473.777 121.272H476.78L490.644 77.0145L492.03 72.8492C492.261 72.0673 493.186 71.5468 493.879 71.8071C494.109 71.8071 494.109 72.0673 494.341 72.0673L497.345 74.9313L500.349 77.7953C500.811 78.0555 501.042 78.3158 501.504 78.576C503.814 79.3568 506.125 78.0555 507.05 75.7121C507.512 74.4108 507.512 73.63 507.512 72.8492H507.513ZM596.013 121.01H628.593L666.72 0.475098H633.908L596.013 121.01ZM726.567 121.01H758.917L775.785 67.9021C782.486 55.1461 796.119 58.0101 793.578 69.2034L777.403 121.01H811.139L827.083 70.2455C831.242 57.4884 849.034 56.7076 845.106 71.8071L830.087 121.01H862.667L880.922 62.6947C886.93 42.9106 865.44 16.3553 828.469 45.5132C824.079 32.2355 805.824 23.905 781.562 43.1697L783.179 35.3598H752.909L726.567 121.01ZM693.524 35.3598H663.023L644.999 92.3742C635.988 124.395 664.64 135.069 692.138 112.94L690.289 121.01H719.404L746.208 35.3598H715.014L699.07 84.3028C695.373 96.2792 674.576 103.048 677.811 84.5642L693.524 35.3598ZM557.886 40.0466L570.133 0.475098H537.321L499.656 121.01H530.39L533.856 111.378C535.704 125.958 578.221 137.933 600.866 86.6474C618.658 49.6784 598.324 12.9708 557.887 40.0466H557.886ZM569.208 85.8655C563.201 94.196 553.496 98.6215 547.719 94.4563C541.711 89.7705 541.942 79.3568 547.95 69.4648C549.336 67.1213 550.954 64.7779 552.571 63.2163C558.348 57.2282 564.818 55.1461 570.133 59.0511C576.603 63.4766 575.447 76.7542 569.208 85.8655Z" fill="#FF671F"/>
<path d="M35.938 80.416L39.394 91H50.482L32.986 38.5119H20.386L1.73804 91H12.754L16.282 80.416H35.938ZM32.986 71.416H19.306L26.146 50.8959L32.986 71.416ZM67.667 67.1679H88.475V91H99.275V38.5119H88.475V58.1679H67.667V38.5119H56.867V91H67.667V67.1679ZM131.652 47.5119H146.988V38.5119H104.94V47.5119H120.852V91H131.652V47.5119ZM178.04 80.416L181.496 91H192.584L175.088 38.5119H162.488L143.84 91H154.856L158.384 80.416H178.04ZM175.088 71.416H161.408L168.248 50.8959L175.088 71.416ZM209.913 72.2799H223.377C233.025 72.2799 239.217 65.44 239.217 54.784C239.217 44.272 233.241 38.5119 222.297 38.5119H199.113V91H209.913V72.2799ZM209.913 63.2799V47.5119H219.993C225.753 47.5119 228.417 50.032 228.417 55.36C228.417 60.76 225.753 63.2799 219.993 63.2799H209.913ZM246.848 91H257.648V84.5919L278.456 58.8159V91H289.256V38.5119H278.456V45.0639L257.648 70.984V38.5119H246.848V91ZM321.854 37.6479C314.51 37.6479 308.462 40.0959 303.998 44.9199C299.318 49.9599 296.654 57.304 296.654 65.152C296.654 73 299.318 80.416 303.998 85.3839C308.534 90.2799 314.438 92.6559 321.926 92.6559C329.414 92.6559 335.318 90.2799 339.854 85.3839C344.39 80.5599 347.198 72.928 347.198 65.512C347.198 57.304 344.534 49.8879 339.854 44.9199C335.246 39.9519 329.486 37.6479 321.854 37.6479ZM321.926 46.8639C330.782 46.8639 336.398 54.0639 336.398 65.4399C336.398 76.2399 330.566 83.4399 321.926 83.4399C313.142 83.4399 307.454 76.24 307.454 65.152C307.454 54.0639 313.142 46.8639 321.926 46.8639ZM365.581 67.1679H386.389V91H397.189V38.5119H386.389V58.1679H365.581V38.5119H354.781V91H365.581V67.1679Z" fill="black"/>
<path d="M145.993 134H151.393V112.256H160.357V107.756H145.993V134ZM170.019 124.64H176.751C181.575 124.64 184.671 121.22 184.671 115.892C184.671 110.636 181.683 107.756 176.211 107.756H164.619V134H170.019V124.64ZM170.019 120.14V112.256H175.059C177.939 112.256 179.271 113.516 179.271 116.18C179.271 118.88 177.939 120.14 175.059 120.14H170.019ZM187.982 134H193.13C195.542 133.964 197.342 132.812 198.422 130.652L208.646 107.756H203.066L197.522 121.04L191.942 107.756H186.362L194.75 126.548L194.066 127.988C193.562 129.284 193.49 129.356 192.626 129.5H187.982V134ZM211.133 134H216.533V112.184H226.469V134H231.869V107.756H211.133V134ZM237.008 134H242.408V112.184H252.344V134H257.744V107.756H237.008V134Z" fill="#7D7D7D"/>
</svg>
