<svg width="1571" height="460" viewBox="0 0 1571 460" fill="none" xmlns="http://www.w3.org/2000/svg">
<path d="M730.121 219V202.2H730.433C730.753 202.2 731.497 202.192 732.665 202.176C733.833 202.144 734.633 202.128 735.065 202.128C736.697 202.128 738.129 202.352 739.361 202.8C740.593 203.232 741.577 203.84 742.313 204.624C743.049 205.408 743.593 206.288 743.945 207.264C744.313 208.224 744.497 209.28 744.497 210.432C744.497 212.928 743.657 214.992 741.977 216.624C740.313 218.24 737.945 219.048 734.873 219.048C734.585 219.048 733.913 219.04 732.857 219.024C731.817 219.008 731.017 219 730.457 219H730.121ZM735.017 204.888C734.393 204.888 733.745 204.912 733.073 204.96V216.24C733.617 216.272 734.249 216.288 734.969 216.288C736.969 216.288 738.537 215.76 739.673 214.704C740.809 213.648 741.377 212.224 741.377 210.432C741.377 208.72 740.809 207.368 739.673 206.376C738.553 205.384 737.001 204.888 735.017 204.888ZM747.726 217.68C746.654 216.608 746.118 215.248 746.118 213.6C746.118 211.952 746.654 210.6 747.726 209.544C748.814 208.472 750.238 207.936 751.998 207.936C753.758 207.936 755.174 208.472 756.246 209.544C757.334 210.6 757.878 211.952 757.878 213.6C757.878 215.248 757.334 216.608 756.246 217.68C755.174 218.736 753.758 219.264 751.998 219.264C750.238 219.264 748.814 218.736 747.726 217.68ZM749.07 213.6C749.07 214.496 749.342 215.24 749.886 215.832C750.446 216.408 751.15 216.696 751.998 216.696C752.862 216.696 753.566 216.416 754.11 215.856C754.67 215.28 754.95 214.528 754.95 213.6C754.95 212.704 754.67 211.968 754.11 211.392C753.55 210.816 752.846 210.528 751.998 210.528C751.166 210.528 750.47 210.816 749.91 211.392C749.35 211.952 749.07 212.688 749.07 213.6ZM760.026 214.896V205.2H762.786V208.2H766.266V210.792H762.786V214.728C762.786 216.024 763.218 216.672 764.082 216.672C764.626 216.672 765.178 216.464 765.738 216.048L766.578 218.184C765.714 218.888 764.65 219.24 763.386 219.24C762.202 219.24 761.346 218.88 760.818 218.16C760.29 217.424 760.026 216.336 760.026 214.896ZM772.659 219H769.707V202.2C769.995 202.2 770.755 202.192 771.987 202.176C773.235 202.16 774.067 202.152 774.483 202.152C775.667 202.152 776.691 202.304 777.555 202.608C778.435 202.896 779.115 203.304 779.595 203.832C780.075 204.344 780.427 204.912 780.651 205.536C780.875 206.144 780.987 206.816 780.987 207.552C780.987 209.072 780.443 210.36 779.355 211.416C778.267 212.472 776.763 213 774.843 213C773.867 213 773.139 212.976 772.659 212.928V219ZM774.771 204.912C774.419 204.912 773.715 204.928 772.659 204.96V210.12C773.427 210.2 774.123 210.24 774.747 210.24C775.675 210.24 776.427 210.016 777.003 209.568C777.579 209.104 777.867 208.424 777.867 207.528C777.867 205.784 776.835 204.912 774.771 204.912ZM783.61 216.024V202.2H786.37V214.896C786.37 216.064 786.682 216.648 787.306 216.648C787.658 216.648 788.034 216.504 788.434 216.216L789.01 218.328C788.258 218.936 787.306 219.24 786.154 219.24C784.458 219.24 783.61 218.168 783.61 216.024ZM791.622 210.984L790.926 208.968C792.094 208.28 793.366 207.936 794.742 207.936C796.278 207.936 797.382 208.312 798.054 209.064C798.726 209.816 799.062 210.936 799.062 212.424V219H796.662V217.752C796.006 218.68 794.942 219.144 793.47 219.144C792.462 219.144 791.646 218.848 791.022 218.256C790.398 217.664 790.086 216.856 790.086 215.832C790.086 214.696 790.454 213.832 791.19 213.24C791.926 212.632 792.87 212.328 794.022 212.328C795.014 212.328 795.83 212.56 796.47 213.024C796.502 212.08 796.366 211.384 796.062 210.936C795.758 210.472 795.222 210.24 794.454 210.24C793.654 210.24 792.71 210.488 791.622 210.984ZM794.382 216.816C795.31 216.816 796.006 216.488 796.47 215.832V214.728C796.006 214.376 795.374 214.2 794.574 214.2C794.078 214.2 793.662 214.32 793.326 214.56C793.006 214.784 792.846 215.112 792.846 215.544C792.846 215.944 792.99 216.256 793.278 216.48C793.566 216.704 793.934 216.816 794.382 216.816ZM801.891 219V208.2H804.651V209.28C805.435 208.432 806.467 208.008 807.747 208.008C810.707 208.008 812.187 209.56 812.187 212.664V219H809.427V213.144C809.427 211.448 808.619 210.6 807.003 210.6C806.123 210.6 805.339 210.944 804.651 211.632V219H801.891ZM814.753 214.896V205.2H817.513V208.2H820.993V210.792H817.513V214.728C817.513 216.024 817.945 216.672 818.809 216.672C819.353 216.672 819.905 216.464 820.465 216.048L821.305 218.184C820.441 218.888 819.377 219.24 818.113 219.24C816.929 219.24 816.073 218.88 815.545 218.16C815.017 217.424 814.753 216.336 814.753 214.896ZM838.951 208.2L834.799 213.336L839.455 219H835.855L831.583 213.552L835.471 208.2H838.951ZM828.727 219V208.2H831.487V219H828.727ZM841.919 210.984L841.223 208.968C842.391 208.28 843.663 207.936 845.039 207.936C846.575 207.936 847.679 208.312 848.351 209.064C849.023 209.816 849.359 210.936 849.359 212.424V219H846.959V217.752C846.303 218.68 845.239 219.144 843.767 219.144C842.759 219.144 841.943 218.848 841.319 218.256C840.695 217.664 840.383 216.856 840.383 215.832C840.383 214.696 840.751 213.832 841.487 213.24C842.223 212.632 843.167 212.328 844.319 212.328C845.311 212.328 846.127 212.56 846.767 213.024C846.799 212.08 846.663 211.384 846.359 210.936C846.055 210.472 845.519 210.24 844.751 210.24C843.951 210.24 843.007 210.488 841.919 210.984ZM844.679 216.816C845.607 216.816 846.303 216.488 846.767 215.832V214.728C846.303 214.376 845.671 214.2 844.871 214.2C844.375 214.2 843.959 214.32 843.623 214.56C843.303 214.784 843.143 215.112 843.143 215.544C843.143 215.944 843.287 216.256 843.575 216.48C843.863 216.704 844.231 216.816 844.679 216.816ZM862.412 208.2L858.26 213.336L862.916 219H859.316L855.044 213.552L858.932 208.2H862.412ZM852.188 219V208.2H854.948V219H852.188ZM870.562 217.68C869.49 216.608 868.954 215.248 868.954 213.6C868.954 211.952 869.49 210.6 870.562 209.544C871.65 208.472 873.074 207.936 874.834 207.936C876.594 207.936 878.01 208.472 879.082 209.544C880.17 210.6 880.714 211.952 880.714 213.6C880.714 215.248 880.17 216.608 879.082 217.68C878.01 218.736 876.594 219.264 874.834 219.264C873.074 219.264 871.65 218.736 870.562 217.68ZM871.906 213.6C871.906 214.496 872.178 215.24 872.722 215.832C873.282 216.408 873.986 216.696 874.834 216.696C875.698 216.696 876.402 216.416 876.946 215.856C877.506 215.28 877.786 214.528 877.786 213.6C877.786 212.704 877.506 211.968 876.946 211.392C876.386 210.816 875.682 210.528 874.834 210.528C874.002 210.528 873.306 210.816 872.746 211.392C872.186 211.952 871.906 212.688 871.906 213.6ZM891.286 215.376L892.582 217.392C892.134 218 891.526 218.464 890.758 218.784C890.006 219.104 889.182 219.264 888.286 219.264C886.526 219.264 885.11 218.744 884.038 217.704C882.966 216.664 882.43 215.296 882.43 213.6C882.43 212 882.958 210.656 884.014 209.568C885.07 208.48 886.406 207.936 888.022 207.936C889.942 207.936 891.39 208.424 892.366 209.4L891.07 211.584C890.35 210.88 889.454 210.528 888.382 210.528C887.582 210.528 886.878 210.816 886.27 211.392C885.678 211.952 885.382 212.688 885.382 213.6C885.382 214.528 885.686 215.28 886.294 215.856C886.918 216.416 887.654 216.696 888.502 216.696C889.558 216.696 890.486 216.256 891.286 215.376ZM902.286 219V214.872H897.558V219H894.798V208.2H897.558V212.28H902.286V208.2H905.046V219H902.286ZM909.046 217.68C907.974 216.608 907.438 215.248 907.438 213.6C907.438 211.952 907.974 210.6 909.046 209.544C910.134 208.472 911.558 207.936 913.318 207.936C915.078 207.936 916.494 208.472 917.566 209.544C918.654 210.6 919.198 211.952 919.198 213.6C919.198 215.248 918.654 216.608 917.566 217.68C916.494 218.736 915.078 219.264 913.318 219.264C911.558 219.264 910.134 218.736 909.046 217.68ZM910.39 213.6C910.39 214.496 910.662 215.24 911.206 215.832C911.766 216.408 912.47 216.696 913.318 216.696C914.182 216.696 914.886 216.416 915.43 215.856C915.99 215.28 916.27 214.528 916.27 213.6C916.27 212.704 915.99 211.968 915.43 211.392C914.87 210.816 914.166 210.528 913.318 210.528C912.486 210.528 911.79 210.816 911.23 211.392C910.67 211.952 910.39 212.688 910.39 213.6ZM921.587 219V208.2C921.779 208.2 922.131 208.192 922.643 208.176C923.171 208.144 923.707 208.12 924.251 208.104C924.811 208.088 925.339 208.08 925.835 208.08C929.099 208.08 930.731 209.024 930.731 210.912C930.731 211.536 930.531 212.072 930.131 212.52C929.747 212.968 929.275 213.232 928.715 213.312V213.36C930.251 213.728 931.019 214.56 931.019 215.856C931.019 218.032 929.307 219.12 925.883 219.12C925.403 219.12 924.643 219.096 923.603 219.048C922.563 219.016 921.891 219 921.587 219ZM926.075 214.416H924.347V216.816C925.435 216.88 926.043 216.912 926.171 216.912C926.779 216.912 927.251 216.8 927.587 216.576C927.939 216.352 928.115 216.048 928.115 215.664C928.115 214.832 927.435 214.416 926.075 214.416ZM926.075 210.312C925.307 210.312 924.731 210.328 924.347 210.36V212.736H926.147C926.627 212.736 927.019 212.632 927.323 212.424C927.643 212.2 927.803 211.888 927.803 211.488C927.803 210.704 927.227 210.312 926.075 210.312ZM934.474 210.984L933.778 208.968C934.946 208.28 936.218 207.936 937.594 207.936C939.13 207.936 940.234 208.312 940.906 209.064C941.578 209.816 941.914 210.936 941.914 212.424V219H939.514V217.752C938.858 218.68 937.794 219.144 936.322 219.144C935.314 219.144 934.498 218.848 933.874 218.256C933.25 217.664 932.938 216.856 932.938 215.832C932.938 214.696 933.306 213.832 934.042 213.24C934.778 212.632 935.722 212.328 936.874 212.328C937.866 212.328 938.682 212.56 939.322 213.024C939.354 212.08 939.218 211.384 938.914 210.936C938.61 210.472 938.074 210.24 937.306 210.24C936.506 210.24 935.562 210.488 934.474 210.984ZM937.234 216.816C938.162 216.816 938.858 216.488 939.322 215.832V214.728C938.858 214.376 938.226 214.2 937.426 214.2C936.93 214.2 936.514 214.32 936.178 214.56C935.858 214.784 935.698 215.112 935.698 215.544C935.698 215.944 935.842 216.256 936.13 216.48C936.418 216.704 936.786 216.816 937.234 216.816ZM689.736 256.52V251.432H691.104C691.952 250.312 692.456 248.432 692.616 245.792L692.784 243.2H700.752V251.432H702.552V256.52H699.96V254H692.304V256.52H689.736ZM695.28 246.896C695.088 248.992 694.656 250.504 693.984 251.432H697.992V245.792H695.352L695.28 246.896ZM711.472 254V245.96H708.616L708.544 247.112C708.368 249.048 708.072 250.536 707.656 251.576C707.256 252.616 706.744 253.32 706.12 253.688C705.512 254.04 704.696 254.216 703.672 254.216L703.432 251.528C703.784 251.56 704.112 251.464 704.416 251.24C704.736 251 705.04 250.488 705.328 249.704C705.616 248.904 705.8 247.856 705.88 246.56L706.048 243.2H714.232V254H711.472ZM722.586 243.2H726.114V254H723.354V250.76H721.818L719.586 254H716.418L719.298 250.16C718.754 249.968 718.266 249.608 717.834 249.08C717.418 248.536 717.21 247.856 717.21 247.04C717.21 245.904 717.642 244.984 718.506 244.28C719.386 243.56 720.746 243.2 722.586 243.2ZM720.162 247.232C720.162 247.664 720.338 248.024 720.69 248.312C721.058 248.584 721.466 248.72 721.914 248.72H723.354V245.6H722.13C721.506 245.6 721.018 245.76 720.666 246.08C720.33 246.4 720.162 246.784 720.162 247.232ZM742.386 236.936L743.826 239.192C743.41 239.688 742.93 240.04 742.386 240.248C741.842 240.44 741.202 240.616 740.466 240.776C739.746 240.92 739.122 241.12 738.594 241.376C737.25 242 736.474 243.344 736.266 245.408H736.314C736.65 244.816 737.17 244.336 737.874 243.968C738.578 243.584 739.322 243.392 740.106 243.392C741.594 243.392 742.786 243.872 743.682 244.832C744.578 245.792 745.026 247.08 745.026 248.696C745.026 250.248 744.498 251.568 743.442 252.656C742.386 253.728 741.026 254.264 739.362 254.264C737.554 254.264 736.122 253.648 735.066 252.416C734.026 251.184 733.506 249.52 733.506 247.424C733.506 242.8 734.866 239.904 737.586 238.736C738.194 238.48 738.85 238.288 739.554 238.16C740.258 238.016 740.818 237.872 741.234 237.728C741.666 237.584 742.05 237.32 742.386 236.936ZM736.458 248C736.474 249.072 736.738 249.96 737.25 250.664C737.762 251.352 738.442 251.696 739.29 251.696C740.138 251.696 740.81 251.424 741.306 250.88C741.818 250.32 742.074 249.632 742.074 248.816C742.074 247.984 741.842 247.304 741.378 246.776C740.914 246.232 740.258 245.96 739.41 245.96C738.674 245.96 738.042 246.152 737.514 246.536C737.002 246.92 736.65 247.408 736.458 248ZM749.247 249.464V247.616H754.047C753.871 246.864 753.503 246.296 752.943 245.912C752.383 245.528 751.719 245.336 750.951 245.336C749.911 245.336 748.879 245.712 747.855 246.464L746.727 244.544C747.207 244.016 747.839 243.616 748.623 243.344C749.407 243.072 750.167 242.936 750.903 242.936C752.743 242.936 754.207 243.448 755.295 244.472C756.383 245.496 756.927 246.872 756.927 248.6C756.927 250.232 756.407 251.584 755.367 252.656C754.343 253.728 752.943 254.264 751.167 254.264C749.215 254.264 747.719 253.728 746.679 252.656L747.975 250.832C748.759 251.52 749.767 251.864 750.999 251.864C751.831 251.864 752.511 251.664 753.039 251.264C753.583 250.848 753.927 250.248 754.071 249.464H749.247ZM769.553 243.2L765.401 248.336L770.057 254H766.457L762.185 248.552L766.073 243.2H769.553ZM759.329 254V243.2H762.089V254H759.329ZM779.496 250.976L780.288 252.92C779.232 253.816 777.856 254.264 776.16 254.264C774.416 254.264 773.008 253.744 771.936 252.704C770.88 251.664 770.352 250.296 770.352 248.6C770.352 246.984 770.872 245.64 771.912 244.568C772.952 243.48 774.336 242.936 776.064 242.936C777.488 242.936 778.696 243.408 779.688 244.352C780.68 245.28 781.176 246.48 781.176 247.952C781.176 248.56 781.12 249.056 781.008 249.44H773.208C773.32 250.24 773.672 250.864 774.264 251.312C774.856 251.744 775.584 251.96 776.448 251.96C777.664 251.96 778.68 251.632 779.496 250.976ZM775.944 245.24C774.376 245.24 773.432 246.024 773.112 247.592H778.416C778.432 246.92 778.216 246.36 777.768 245.912C777.32 245.464 776.712 245.24 775.944 245.24ZM790.887 254V249.872H786.159V254H783.399V243.2H786.159V247.28H790.887V243.2H793.647V254H790.887ZM795.416 256.52V251.432H796.784C797.632 250.312 798.136 248.432 798.296 245.792L798.464 243.2H806.432V251.432H808.232V256.52H805.64V254H797.984V256.52H795.416ZM800.96 246.896C800.768 248.992 800.336 250.504 799.664 251.432H803.672V245.792H801.032L800.96 246.896ZM810.888 245.984L810.192 243.968C811.36 243.28 812.632 242.936 814.008 242.936C815.544 242.936 816.648 243.312 817.32 244.064C817.992 244.816 818.328 245.936 818.328 247.424V254H815.928V252.752C815.272 253.68 814.208 254.144 812.736 254.144C811.728 254.144 810.912 253.848 810.288 253.256C809.664 252.664 809.352 251.856 809.352 250.832C809.352 249.696 809.72 248.832 810.456 248.24C811.192 247.632 812.136 247.328 813.288 247.328C814.28 247.328 815.096 247.56 815.736 248.024C815.768 247.08 815.632 246.384 815.328 245.936C815.024 245.472 814.488 245.24 813.72 245.24C812.92 245.24 811.976 245.488 810.888 245.984ZM813.648 251.816C814.576 251.816 815.272 251.488 815.736 250.832V249.728C815.272 249.376 814.64 249.2 813.84 249.2C813.344 249.2 812.928 249.32 812.592 249.56C812.272 249.784 812.112 250.112 812.112 250.544C812.112 250.944 812.256 251.256 812.544 251.48C812.832 251.704 813.2 251.816 813.648 251.816ZM832.267 257.432L830.515 258.944C827.283 256.16 825.667 252.712 825.667 248.6C825.667 244.632 827.291 241.184 830.539 238.256L832.243 239.768C830.931 241.064 829.963 242.424 829.339 243.848C828.731 245.256 828.427 246.84 828.427 248.6C828.427 250.312 828.771 251.944 829.459 253.496C830.163 255.032 831.099 256.344 832.267 257.432ZM837.557 254H834.605V237.2C834.893 237.2 835.653 237.192 836.885 237.176C838.133 237.16 838.965 237.152 839.381 237.152C840.565 237.152 841.589 237.304 842.453 237.608C843.333 237.896 844.013 238.304 844.493 238.832C844.973 239.344 845.325 239.912 845.549 240.536C845.773 241.144 845.885 241.816 845.885 242.552C845.885 244.072 845.341 245.36 844.253 246.416C843.165 247.472 841.661 248 839.741 248C838.765 248 838.037 247.976 837.557 247.928V254ZM839.669 239.912C839.317 239.912 838.613 239.928 837.557 239.96V245.12C838.325 245.2 839.021 245.24 839.645 245.24C840.573 245.24 841.325 245.016 841.901 244.568C842.477 244.104 842.765 243.424 842.765 242.528C842.765 240.784 841.733 239.912 839.669 239.912ZM859.933 254V246.824H852.253V254H849.301V237.2H852.253V244.064H859.933V237.2H862.861V254H859.933ZM870.464 254H867.512V237.2C867.8 237.2 868.56 237.192 869.792 237.176C871.04 237.16 871.872 237.152 872.288 237.152C873.472 237.152 874.496 237.304 875.36 237.608C876.24 237.896 876.92 238.304 877.4 238.832C877.88 239.344 878.232 239.912 878.456 240.536C878.68 241.144 878.792 241.816 878.792 242.552C878.792 244.072 878.248 245.36 877.16 246.416C876.072 247.472 874.568 248 872.648 248C871.672 248 870.944 247.976 870.464 247.928V254ZM872.576 239.912C872.224 239.912 871.52 239.928 870.464 239.96V245.12C871.232 245.2 871.928 245.24 872.552 245.24C873.48 245.24 874.232 245.016 874.808 244.568C875.384 244.104 875.672 243.424 875.672 242.528C875.672 240.784 874.64 239.912 872.576 239.912ZM881.463 246.56V244.16H885.711V239.816H888.303V244.16H892.599V246.56H888.303V250.952H885.711V246.56H881.463ZM896.504 254V237.2H899.48L905.216 245.048L910.688 237.2H913.472V254H910.544V241.856L905.24 249.32H904.808L899.456 241.928V254H896.504ZM927.761 243.2L923.513 254C922.745 255.872 922.057 257.136 921.449 257.792C920.857 258.464 920.153 258.8 919.337 258.8C918.553 258.8 917.777 258.52 917.009 257.96L917.897 255.872C918.329 256.128 918.705 256.256 919.025 256.256C919.681 256.256 920.233 255.696 920.681 254.576L920.921 254L915.929 243.2H919.241L921.761 249.104C921.857 249.344 922.033 249.864 922.289 250.664C922.417 249.96 922.545 249.432 922.673 249.08L924.617 243.2H927.761ZM936.951 249.536C936.951 249.088 936.807 248.696 936.519 248.36C936.247 248.008 935.887 247.712 935.439 247.472C934.991 247.216 934.495 246.976 933.951 246.752C933.423 246.512 932.887 246.248 932.343 245.96C931.799 245.656 931.303 245.328 930.855 244.976C930.407 244.608 930.039 244.136 929.751 243.56C929.479 242.968 929.343 242.304 929.343 241.568C929.343 240.256 929.815 239.16 930.759 238.28C931.719 237.384 932.991 236.936 934.575 236.936C936.687 236.936 938.287 237.536 939.375 238.736L937.791 240.944C936.927 240.112 935.935 239.696 934.815 239.696C934.095 239.696 933.519 239.864 933.087 240.2C932.671 240.536 932.463 240.984 932.463 241.544C932.463 242.088 932.647 242.56 933.015 242.96C933.399 243.36 933.871 243.68 934.431 243.92C934.991 244.144 935.599 244.416 936.255 244.736C936.927 245.056 937.543 245.392 938.103 245.744C938.663 246.08 939.127 246.576 939.495 247.232C939.879 247.872 940.071 248.632 940.071 249.512C940.071 250.904 939.535 252.048 938.463 252.944C937.391 253.824 936.055 254.264 934.455 254.264C933.303 254.264 932.191 254.032 931.119 253.568C930.063 253.088 929.343 252.44 928.959 251.624L930.639 249.608C931.103 250.216 931.687 250.688 932.391 251.024C933.111 251.344 933.815 251.504 934.503 251.504C935.223 251.504 935.807 251.336 936.255 251C936.719 250.648 936.951 250.16 936.951 249.536ZM942.225 245.6C942.225 243.136 943.041 241.08 944.673 239.432C946.321 237.768 948.417 236.936 950.961 236.936C953.489 236.936 955.577 237.736 957.225 239.336C958.889 240.936 959.721 243.024 959.721 245.6C959.721 247.984 958.953 249.984 957.417 251.6L959.481 254H956.049L955.353 253.208C954.073 253.912 952.609 254.264 950.961 254.264C948.433 254.264 946.345 253.464 944.697 251.864C943.049 250.264 942.225 248.176 942.225 245.6ZM945.345 245.6C945.345 247.28 945.881 248.688 946.953 249.824C948.041 250.944 949.377 251.504 950.961 251.504C951.857 251.504 952.697 251.328 953.481 250.976L952.065 249.32L953.985 247.592L955.473 249.344C956.225 248.288 956.601 247.04 956.601 245.6C956.601 243.872 956.057 242.456 954.969 241.352C953.897 240.248 952.561 239.696 950.961 239.696C949.345 239.696 948.001 240.248 946.929 241.352C945.873 242.456 945.345 243.872 945.345 245.6ZM963.137 254V237.2H966.089V251.24H973.649V254H963.137ZM975.686 258.944L973.934 257.432C975.102 256.344 976.03 255.032 976.718 253.496C977.422 251.944 977.774 250.312 977.774 248.6C977.774 246.84 977.462 245.256 976.838 243.848C976.23 242.424 975.27 241.064 973.958 239.768L975.662 238.256C978.91 241.184 980.534 244.632 980.534 248.6C980.534 252.712 978.918 256.16 975.686 258.944Z" fill="white"/>
<rect x="630.5" y="176.5" width="410" height="107" rx="6.5" stroke="#F76D09" stroke-width="3"/>
<path d="M1215.08 236V228.824H1207.4V236H1204.45V219.2H1207.4V226.064H1215.08V219.2H1218.01V236H1215.08ZM1220.57 221.96V219.2H1234.42V221.96H1228.97V236H1226.02V221.96H1220.57ZM1236.98 236V219.2H1239.95L1245.69 227.048L1251.16 219.2H1253.94V236H1251.02V223.856L1245.71 231.32H1245.28L1239.93 223.928V236H1236.98ZM1258.61 236V219.2H1261.56V233.24H1269.12V236H1258.61ZM1270.57 230.72V228.152H1276.61V230.72H1270.57ZM1279.64 236V225.2H1282.4V233.432H1285.45V225.2H1288.21V233.432H1291.28V225.2H1294.04V236H1279.64ZM1297.94 227.984L1297.24 225.968C1298.41 225.28 1299.68 224.936 1301.06 224.936C1302.59 224.936 1303.7 225.312 1304.37 226.064C1305.04 226.816 1305.38 227.936 1305.38 229.424V236H1302.98V234.752C1302.32 235.68 1301.26 236.144 1299.79 236.144C1298.78 236.144 1297.96 235.848 1297.34 235.256C1296.71 234.664 1296.4 233.856 1296.4 232.832C1296.4 231.696 1296.77 230.832 1297.51 230.24C1298.24 229.632 1299.19 229.328 1300.34 229.328C1301.33 229.328 1302.15 229.56 1302.79 230.024C1302.82 229.08 1302.68 228.384 1302.38 227.936C1302.07 227.472 1301.54 227.24 1300.77 227.24C1299.97 227.24 1299.03 227.488 1297.94 227.984ZM1300.7 233.816C1301.63 233.816 1302.32 233.488 1302.79 232.832V231.728C1302.32 231.376 1301.69 231.2 1300.89 231.2C1300.39 231.2 1299.98 231.32 1299.64 231.56C1299.32 231.784 1299.16 232.112 1299.16 232.544C1299.16 232.944 1299.31 233.256 1299.59 233.48C1299.88 233.704 1300.25 233.816 1300.7 233.816ZM1316.32 218.936L1317.76 221.192C1317.34 221.688 1316.86 222.04 1316.32 222.248C1315.78 222.44 1315.14 222.616 1314.4 222.776C1313.68 222.92 1313.06 223.12 1312.53 223.376C1311.18 224 1310.41 225.344 1310.2 227.408H1310.25C1310.58 226.816 1311.1 226.336 1311.81 225.968C1312.51 225.584 1313.26 225.392 1314.04 225.392C1315.53 225.392 1316.72 225.872 1317.62 226.832C1318.51 227.792 1318.96 229.08 1318.96 230.696C1318.96 232.248 1318.43 233.568 1317.38 234.656C1316.32 235.728 1314.96 236.264 1313.3 236.264C1311.49 236.264 1310.06 235.648 1309 234.416C1307.96 233.184 1307.44 231.52 1307.44 229.424C1307.44 224.8 1308.8 221.904 1311.52 220.736C1312.13 220.48 1312.78 220.288 1313.49 220.16C1314.19 220.016 1314.75 219.872 1315.17 219.728C1315.6 219.584 1315.98 219.32 1316.32 218.936ZM1310.39 230C1310.41 231.072 1310.67 231.96 1311.18 232.664C1311.7 233.352 1312.38 233.696 1313.22 233.696C1314.07 233.696 1314.74 233.424 1315.24 232.88C1315.75 232.32 1316.01 231.632 1316.01 230.816C1316.01 229.984 1315.78 229.304 1315.31 228.776C1314.85 228.232 1314.19 227.96 1313.34 227.96C1312.61 227.96 1311.98 228.152 1311.45 228.536C1310.94 228.92 1310.58 229.408 1310.39 230ZM1328.11 236V227.96H1325.25L1325.18 229.112C1325 231.048 1324.71 232.536 1324.29 233.576C1323.89 234.616 1323.38 235.32 1322.76 235.688C1322.15 236.04 1321.33 236.216 1320.31 236.216L1320.07 233.528C1320.42 233.56 1320.75 233.464 1321.05 233.24C1321.37 233 1321.68 232.488 1321.96 231.704C1322.25 230.904 1322.44 229.856 1322.52 228.56L1322.68 225.2H1330.87V236H1328.11ZM1334.88 234.68C1333.81 233.608 1333.27 232.248 1333.27 230.6C1333.27 228.952 1333.81 227.6 1334.88 226.544C1335.97 225.472 1337.39 224.936 1339.15 224.936C1340.91 224.936 1342.33 225.472 1343.4 226.544C1344.49 227.6 1345.03 228.952 1345.03 230.6C1345.03 232.248 1344.49 233.608 1343.4 234.68C1342.33 235.736 1340.91 236.264 1339.15 236.264C1337.39 236.264 1335.97 235.736 1334.88 234.68ZM1336.22 230.6C1336.22 231.496 1336.49 232.24 1337.04 232.832C1337.6 233.408 1338.3 233.696 1339.15 233.696C1340.01 233.696 1340.72 233.416 1341.26 232.856C1341.82 232.28 1342.1 231.528 1342.1 230.6C1342.1 229.704 1341.82 228.968 1341.26 228.392C1340.7 227.816 1340 227.528 1339.15 227.528C1338.32 227.528 1337.62 227.816 1337.06 228.392C1336.5 228.952 1336.22 229.688 1336.22 230.6ZM1354.91 236V231.872H1350.18V236H1347.42V225.2H1350.18V229.28H1354.91V225.2H1357.67V236H1354.91ZM1360.73 236V225.2H1363.49V228.152H1364.84C1366.53 228.152 1367.75 228.504 1368.48 229.208C1369.22 229.912 1369.59 230.808 1369.59 231.896C1369.59 233.064 1369.19 234.04 1368.39 234.824C1367.59 235.608 1366.33 236 1364.62 236H1360.73ZM1371.12 236V225.2H1373.88V236H1371.12ZM1364.6 230.36H1363.49V233.6H1364.57C1365.96 233.6 1366.66 233.064 1366.66 231.992C1366.66 230.904 1365.97 230.36 1364.6 230.36ZM1380.74 238.52V233.432H1382.11C1382.96 232.312 1383.46 230.432 1383.62 227.792L1383.79 225.2H1391.76V233.432H1393.56V238.52H1390.96V236H1383.31V238.52H1380.74ZM1386.28 228.896C1386.09 230.992 1385.66 232.504 1384.99 233.432H1389V227.792H1386.36L1386.28 228.896ZM1402.48 236V227.96H1399.62L1399.55 229.112C1399.37 231.048 1399.08 232.536 1398.66 233.576C1398.26 234.616 1397.75 235.32 1397.12 235.688C1396.52 236.04 1395.7 236.216 1394.68 236.216L1394.44 233.528C1394.79 233.56 1395.12 233.464 1395.42 233.24C1395.74 233 1396.04 232.488 1396.33 231.704C1396.62 230.904 1396.8 229.856 1396.88 228.56L1397.05 225.2H1405.24V236H1402.48ZM1413.59 225.2H1417.12V236H1414.36V232.76H1412.82L1410.59 236H1407.42L1410.3 232.16C1409.76 231.968 1409.27 231.608 1408.84 231.08C1408.42 230.536 1408.21 229.856 1408.21 229.04C1408.21 227.904 1408.65 226.984 1409.51 226.28C1410.39 225.56 1411.75 225.2 1413.59 225.2ZM1411.17 229.232C1411.17 229.664 1411.34 230.024 1411.69 230.312C1412.06 230.584 1412.47 230.72 1412.92 230.72H1414.36V227.6H1413.13C1412.51 227.6 1412.02 227.76 1411.67 228.08C1411.33 228.4 1411.17 228.784 1411.17 229.232ZM1430.61 240.8V236.264H1430.46C1428.62 236.264 1427.18 235.736 1426.14 234.68C1425.12 233.624 1424.61 232.264 1424.61 230.6C1424.61 229.048 1425.13 227.72 1426.17 226.616C1427.22 225.496 1428.65 224.936 1430.44 224.936H1430.61V219.2H1433.37V224.936H1433.56C1435.37 224.936 1436.78 225.472 1437.81 226.544C1438.85 227.6 1439.37 228.952 1439.37 230.6C1439.37 232.28 1438.87 233.648 1437.88 234.704C1436.89 235.744 1435.45 236.264 1433.56 236.264H1433.37V240.8H1430.61ZM1433.56 227.528H1433.37V233.696H1433.46C1434.42 233.696 1435.15 233.416 1435.65 232.856C1436.16 232.296 1436.41 231.544 1436.41 230.6C1436.41 229.736 1436.17 229.008 1435.67 228.416C1435.19 227.824 1434.49 227.528 1433.56 227.528ZM1427.56 230.6C1427.56 231.528 1427.81 232.28 1428.33 232.856C1428.84 233.416 1429.57 233.696 1430.53 233.696H1430.61V227.528H1430.41C1429.45 227.528 1428.73 227.816 1428.25 228.392C1427.79 228.968 1427.56 229.704 1427.56 230.6ZM1441.75 240.8V225.2H1444.51V226.232C1444.87 225.864 1445.34 225.56 1445.93 225.32C1446.54 225.064 1447.18 224.936 1447.85 224.936C1449.32 224.936 1450.51 225.448 1451.4 226.472C1452.3 227.496 1452.75 228.816 1452.75 230.432C1452.75 232.112 1452.22 233.504 1451.16 234.608C1450.11 235.712 1448.73 236.264 1447.03 236.264C1445.96 236.264 1445.12 236.088 1444.51 235.736V240.8H1441.75ZM1446.99 227.528C1446.04 227.528 1445.22 227.92 1444.51 228.704V233.072C1445.15 233.488 1445.91 233.696 1446.79 233.696C1447.72 233.696 1448.46 233.4 1449 232.808C1449.55 232.2 1449.82 231.432 1449.82 230.504C1449.82 229.624 1449.57 228.912 1449.07 228.368C1448.58 227.808 1447.88 227.528 1446.99 227.528ZM1456.07 234.68C1455 233.608 1454.47 232.248 1454.47 230.6C1454.47 228.952 1455 227.6 1456.07 226.544C1457.16 225.472 1458.59 224.936 1460.35 224.936C1462.11 224.936 1463.52 225.472 1464.59 226.544C1465.68 227.6 1466.23 228.952 1466.23 230.6C1466.23 232.248 1465.68 233.608 1464.59 234.68C1463.52 235.736 1462.11 236.264 1460.35 236.264C1458.59 236.264 1457.16 235.736 1456.07 234.68ZM1457.42 230.6C1457.42 231.496 1457.69 232.24 1458.23 232.832C1458.79 233.408 1459.5 233.696 1460.35 233.696C1461.21 233.696 1461.91 233.416 1462.46 232.856C1463.02 232.28 1463.3 231.528 1463.3 230.6C1463.3 229.704 1463.02 228.968 1462.46 228.392C1461.9 227.816 1461.19 227.528 1460.35 227.528C1459.51 227.528 1458.82 227.816 1458.26 228.392C1457.7 228.952 1457.42 229.688 1457.42 230.6ZM1476.1 236V231.872H1471.37V236H1468.61V225.2H1471.37V229.28H1476.1V225.2H1478.86V236H1476.1ZM1480.8 227.96V225.2H1490.64V227.96H1487.11V236H1484.35V227.96H1480.8ZM1500.76 232.976L1501.55 234.92C1500.49 235.816 1499.12 236.264 1497.42 236.264C1495.68 236.264 1494.27 235.744 1493.2 234.704C1492.14 233.664 1491.61 232.296 1491.61 230.6C1491.61 228.984 1492.13 227.64 1493.17 226.568C1494.21 225.48 1495.6 224.936 1497.33 224.936C1498.75 224.936 1499.96 225.408 1500.95 226.352C1501.94 227.28 1502.44 228.48 1502.44 229.952C1502.44 230.56 1502.38 231.056 1502.27 231.44H1494.47C1494.58 232.24 1494.93 232.864 1495.53 233.312C1496.12 233.744 1496.85 233.96 1497.71 233.96C1498.93 233.96 1499.94 233.632 1500.76 232.976ZM1497.21 227.24C1495.64 227.24 1494.69 228.024 1494.37 229.592H1499.68C1499.69 228.92 1499.48 228.36 1499.03 227.912C1498.58 227.464 1497.97 227.24 1497.21 227.24ZM1512.15 236V231.872H1507.42V236H1504.66V225.2H1507.42V229.28H1512.15V225.2H1514.91V236H1512.15ZM1516.68 238.52V233.432H1518.05C1518.89 232.312 1519.4 230.432 1519.56 227.792L1519.73 225.2H1527.69V233.432H1529.49V238.52H1526.9V236H1519.25V238.52H1516.68ZM1522.22 228.896C1522.03 230.992 1521.6 232.504 1520.93 233.432H1524.93V227.792H1522.29L1522.22 228.896ZM1532.15 227.984L1531.45 225.968C1532.62 225.28 1533.89 224.936 1535.27 224.936C1536.81 224.936 1537.91 225.312 1538.58 226.064C1539.25 226.816 1539.59 227.936 1539.59 229.424V236H1537.19V234.752C1536.53 235.68 1535.47 236.144 1534 236.144C1532.99 236.144 1532.17 235.848 1531.55 235.256C1530.93 234.664 1530.61 233.856 1530.61 232.832C1530.61 231.696 1530.98 230.832 1531.72 230.24C1532.45 229.632 1533.4 229.328 1534.55 229.328C1535.54 229.328 1536.36 229.56 1537 230.024C1537.03 229.08 1536.89 228.384 1536.59 227.936C1536.29 227.472 1535.75 227.24 1534.98 227.24C1534.18 227.24 1533.24 227.488 1532.15 227.984ZM1534.91 233.816C1535.84 233.816 1536.53 233.488 1537 232.832V231.728C1536.53 231.376 1535.9 231.2 1535.1 231.2C1534.61 231.2 1534.19 231.32 1533.85 231.56C1533.53 231.784 1533.37 232.112 1533.37 232.544C1533.37 232.944 1533.52 233.256 1533.81 233.48C1534.09 233.704 1534.46 233.816 1534.91 233.816Z" fill="white"/>
<rect x="1173.5" y="193.5" width="396" height="72" rx="6.5" stroke="#F76D09" stroke-width="3"/>
<path d="M673.119 429H670.527V412.2H673.479V424.152L682.287 412.2H684.879V429H681.927V417.072L673.119 429ZM688.743 429V418.2H691.239L694.911 422.712L698.391 418.2H700.815V429H698.055V422.4L694.863 426.432H694.791L691.503 422.4V429H688.743ZM711.252 429V420.792H706.644V429H703.884V418.2H714.012V429H711.252ZM718.015 427.68C716.943 426.608 716.407 425.248 716.407 423.6C716.407 421.952 716.943 420.6 718.015 419.544C719.103 418.472 720.527 417.936 722.287 417.936C724.047 417.936 725.463 418.472 726.535 419.544C727.623 420.6 728.167 421.952 728.167 423.6C728.167 425.248 727.623 426.608 726.535 427.68C725.463 428.736 724.047 429.264 722.287 429.264C720.527 429.264 719.103 428.736 718.015 427.68ZM719.359 423.6C719.359 424.496 719.631 425.24 720.175 425.832C720.735 426.408 721.439 426.696 722.287 426.696C723.151 426.696 723.855 426.416 724.399 425.856C724.959 425.28 725.239 424.528 725.239 423.6C725.239 422.704 724.959 421.968 724.399 421.392C723.839 420.816 723.135 420.528 722.287 420.528C721.455 420.528 720.759 420.816 720.199 421.392C719.639 421.952 719.359 422.688 719.359 423.6ZM730.556 433.8V418.2H733.316V419.232C733.668 418.864 734.14 418.56 734.732 418.32C735.34 418.064 735.98 417.936 736.652 417.936C738.124 417.936 739.308 418.448 740.204 419.472C741.1 420.496 741.548 421.816 741.548 423.432C741.548 425.112 741.02 426.504 739.964 427.608C738.908 428.712 737.532 429.264 735.836 429.264C734.764 429.264 733.924 429.088 733.316 428.736V433.8H730.556ZM735.788 420.528C734.844 420.528 734.02 420.92 733.316 421.704V426.072C733.956 426.488 734.716 426.696 735.596 426.696C736.524 426.696 737.26 426.4 737.804 425.808C738.348 425.2 738.62 424.432 738.62 423.504C738.62 422.624 738.372 421.912 737.876 421.368C737.38 420.808 736.684 420.528 735.788 420.528ZM742.388 420.96V418.2H752.228V420.96H748.7V429H745.94V420.96H742.388ZM769.514 418.2L765.362 423.336L770.018 429H766.418L762.146 423.552L766.034 418.2H769.514ZM759.29 429V418.2H762.05V429H759.29ZM771.921 427.68C770.849 426.608 770.313 425.248 770.313 423.6C770.313 421.952 770.849 420.6 771.921 419.544C773.009 418.472 774.433 417.936 776.193 417.936C777.953 417.936 779.369 418.472 780.441 419.544C781.529 420.6 782.073 421.952 782.073 423.6C782.073 425.248 781.529 426.608 780.441 427.68C779.369 428.736 777.953 429.264 776.193 429.264C774.433 429.264 773.009 428.736 771.921 427.68ZM773.265 423.6C773.265 424.496 773.537 425.24 774.081 425.832C774.641 426.408 775.345 426.696 776.193 426.696C777.057 426.696 777.761 426.416 778.305 425.856C778.865 425.28 779.145 424.528 779.145 423.6C779.145 422.704 778.865 421.968 778.305 421.392C777.745 420.816 777.041 420.528 776.193 420.528C775.361 420.528 774.665 420.816 774.105 421.392C773.545 421.952 773.265 422.688 773.265 423.6ZM791.95 429V424.872H787.222V429H784.462V418.2H787.222V422.28H791.95V418.2H794.71V429H791.95ZM803.102 433.8V429.264H802.958C801.118 429.264 799.678 428.736 798.638 427.68C797.614 426.624 797.102 425.264 797.102 423.6C797.102 422.048 797.622 420.72 798.662 419.616C799.718 418.496 801.142 417.936 802.934 417.936H803.102V412.2H805.862V417.936H806.054C807.862 417.936 809.278 418.472 810.302 419.544C811.342 420.6 811.862 421.952 811.862 423.6C811.862 425.28 811.366 426.648 810.374 427.704C809.382 428.744 807.942 429.264 806.054 429.264H805.862V433.8H803.102ZM806.054 420.528H805.862V426.696H805.958C806.918 426.696 807.646 426.416 808.142 425.856C808.654 425.296 808.91 424.544 808.91 423.6C808.91 422.736 808.662 422.008 808.166 421.416C807.686 420.824 806.982 420.528 806.054 420.528ZM800.054 423.6C800.054 424.528 800.31 425.28 800.822 425.856C801.334 426.416 802.07 426.696 803.03 426.696H803.102V420.528H802.91C801.95 420.528 801.23 420.816 800.75 421.392C800.286 421.968 800.054 422.704 800.054 423.6ZM817.011 429H814.251V418.2H817.011V425.04L822.051 418.2H824.811V429H822.051V422.16L817.011 429ZM827.891 429V418.2H835.139V420.792H830.651V429H827.891ZM847.425 418.2L843.177 429C842.409 430.872 841.721 432.136 841.113 432.792C840.521 433.464 839.817 433.8 839.001 433.8C838.217 433.8 837.441 433.52 836.673 432.96L837.561 430.872C837.993 431.128 838.369 431.256 838.689 431.256C839.345 431.256 839.897 430.696 840.345 429.576L840.585 429L835.593 418.2H838.905L841.425 424.104C841.521 424.344 841.697 424.864 841.953 425.664C842.081 424.96 842.209 424.432 842.337 424.08L844.281 418.2H847.425ZM849.079 433.8V418.2H851.839V419.232C852.191 418.864 852.663 418.56 853.255 418.32C853.863 418.064 854.503 417.936 855.175 417.936C856.647 417.936 857.831 418.448 858.727 419.472C859.623 420.496 860.071 421.816 860.071 423.432C860.071 425.112 859.543 426.504 858.487 427.608C857.431 428.712 856.055 429.264 854.359 429.264C853.287 429.264 852.447 429.088 851.839 428.736V433.8H849.079ZM854.311 420.528C853.367 420.528 852.543 420.92 851.839 421.704V426.072C852.479 426.488 853.239 426.696 854.119 426.696C855.047 426.696 855.783 426.4 856.327 425.808C856.871 425.2 857.143 424.432 857.143 423.504C857.143 422.624 856.895 421.912 856.399 421.368C855.903 420.808 855.207 420.528 854.311 420.528ZM863.302 420.984L862.606 418.968C863.774 418.28 865.046 417.936 866.422 417.936C867.958 417.936 869.062 418.312 869.734 419.064C870.406 419.816 870.742 420.936 870.742 422.424V429H868.342V427.752C867.686 428.68 866.622 429.144 865.15 429.144C864.142 429.144 863.326 428.848 862.702 428.256C862.078 427.664 861.766 426.856 861.766 425.832C861.766 424.696 862.134 423.832 862.87 423.24C863.606 422.632 864.55 422.328 865.702 422.328C866.694 422.328 867.51 422.56 868.15 423.024C868.182 422.08 868.046 421.384 867.742 420.936C867.438 420.472 866.902 420.24 866.134 420.24C865.334 420.24 864.39 420.488 863.302 420.984ZM866.062 426.816C866.99 426.816 867.686 426.488 868.15 425.832V424.728C867.686 424.376 867.054 424.2 866.254 424.2C865.758 424.2 865.342 424.32 865.006 424.56C864.686 424.784 864.526 425.112 864.526 425.544C864.526 425.944 864.67 426.256 864.958 426.48C865.246 426.704 865.614 426.816 866.062 426.816ZM873.571 429V418.2H876.331V426.432H880.771V418.2H883.531V426.432H885.331V431.52H882.739V429H873.571ZM889.925 429H887.165V418.2H889.925V425.04L894.965 418.2H897.725V429H894.965V422.16L889.925 429ZM903.566 429H900.806V418.2H903.566V425.04L908.606 418.2H911.366V429H908.606V422.16L903.566 429ZM902.414 412.8H904.934C904.934 413.296 905.03 413.712 905.222 414.048C905.43 414.384 905.75 414.552 906.182 414.552C906.566 414.552 906.854 414.384 907.046 414.048C907.238 413.712 907.334 413.296 907.334 412.8H909.854C909.854 413.888 909.534 414.784 908.894 415.488C908.254 416.176 907.35 416.52 906.182 416.52C904.902 416.52 903.95 416.184 903.326 415.512C902.718 414.824 902.414 413.92 902.414 412.8ZM924.86 433.8V429.264H924.716C922.876 429.264 921.436 428.736 920.396 427.68C919.372 426.624 918.86 425.264 918.86 423.6C918.86 422.048 919.38 420.72 920.42 419.616C921.476 418.496 922.9 417.936 924.692 417.936H924.86V412.2H927.62V417.936H927.812C929.62 417.936 931.036 418.472 932.06 419.544C933.1 420.6 933.62 421.952 933.62 423.6C933.62 425.28 933.124 426.648 932.132 427.704C931.14 428.744 929.7 429.264 927.812 429.264H927.62V433.8H924.86ZM927.812 420.528H927.62V426.696H927.716C928.676 426.696 929.404 426.416 929.9 425.856C930.412 425.296 930.668 424.544 930.668 423.6C930.668 422.736 930.42 422.008 929.924 421.416C929.444 420.824 928.74 420.528 927.812 420.528ZM921.812 423.6C921.812 424.528 922.068 425.28 922.58 425.856C923.092 426.416 923.828 426.696 924.788 426.696H924.86V420.528H924.668C923.708 420.528 922.988 420.816 922.508 421.392C922.044 421.968 921.812 422.704 921.812 423.6ZM938.769 429H936.009V418.2H938.769V425.04L943.809 418.2H946.569V429H943.809V422.16L938.769 429ZM956.753 429V420.96H953.897L953.825 422.112C953.649 424.048 953.353 425.536 952.937 426.576C952.537 427.616 952.025 428.32 951.401 428.688C950.793 429.04 949.977 429.216 948.953 429.216L948.713 426.528C949.065 426.56 949.393 426.464 949.697 426.24C950.017 426 950.321 425.488 950.609 424.704C950.897 423.904 951.081 422.856 951.161 421.56L951.329 418.2H959.513V429H956.753ZM962.587 429V418.2H965.347V421.152H966.835C968.531 421.152 969.747 421.504 970.483 422.208C971.219 422.912 971.587 423.808 971.587 424.896C971.587 426.064 971.187 427.04 970.387 427.824C969.587 428.608 968.331 429 966.619 429H962.587ZM966.595 423.36H965.347V426.6H966.571C967.963 426.6 968.659 426.064 968.659 424.992C968.659 423.904 967.971 423.36 966.595 423.36ZM972.029 420.96V418.2H981.869V420.96H978.341V429H975.581V420.96H972.029ZM983.845 433.8V418.2H986.605V419.232C986.957 418.864 987.429 418.56 988.021 418.32C988.629 418.064 989.269 417.936 989.941 417.936C991.413 417.936 992.597 418.448 993.493 419.472C994.389 420.496 994.837 421.816 994.837 423.432C994.837 425.112 994.309 426.504 993.253 427.608C992.197 428.712 990.821 429.264 989.125 429.264C988.053 429.264 987.213 429.088 986.605 428.736V433.8H983.845ZM989.077 420.528C988.133 420.528 987.309 420.92 986.605 421.704V426.072C987.245 426.488 988.005 426.696 988.885 426.696C989.813 426.696 990.549 426.4 991.093 425.808C991.637 425.2 991.909 424.432 991.909 423.504C991.909 422.624 991.661 421.912 991.165 421.368C990.669 420.808 989.973 420.528 989.077 420.528ZM998.067 420.984L997.371 418.968C998.539 418.28 999.811 417.936 1001.19 417.936C1002.72 417.936 1003.83 418.312 1004.5 419.064C1005.17 419.816 1005.51 420.936 1005.51 422.424V429H1003.11V427.752C1002.45 428.68 1001.39 429.144 999.915 429.144C998.907 429.144 998.091 428.848 997.467 428.256C996.843 427.664 996.531 426.856 996.531 425.832C996.531 424.696 996.899 423.832 997.635 423.24C998.371 422.632 999.315 422.328 1000.47 422.328C1001.46 422.328 1002.28 422.56 1002.92 423.024C1002.95 422.08 1002.81 421.384 1002.51 420.936C1002.2 420.472 1001.67 420.24 1000.9 420.24C1000.1 420.24 999.155 420.488 998.067 420.984ZM1000.83 426.816C1001.76 426.816 1002.45 426.488 1002.92 425.832V424.728C1002.45 424.376 1001.82 424.2 1001.02 424.2C1000.52 424.2 1000.11 424.32 999.771 424.56C999.451 424.784 999.291 425.112 999.291 425.544C999.291 425.944 999.435 426.256 999.723 426.48C1000.01 426.704 1000.38 426.816 1000.83 426.816Z" fill="white"/>
<rect x="628.5" y="386.5" width="418" height="72" rx="6.5" stroke="#F76D09" stroke-width="3"/>
<path d="M672.069 44V29.96H664.581V44H661.629V27.2H675.021V44H672.069ZM679.82 42.68C678.748 41.608 678.212 40.248 678.212 38.6C678.212 36.952 678.748 35.6 679.82 34.544C680.908 33.472 682.332 32.936 684.092 32.936C685.852 32.936 687.268 33.472 688.34 34.544C689.428 35.6 689.972 36.952 689.972 38.6C689.972 40.248 689.428 41.608 688.34 42.68C687.268 43.736 685.852 44.264 684.092 44.264C682.332 44.264 680.908 43.736 679.82 42.68ZM681.164 38.6C681.164 39.496 681.436 40.24 681.98 40.832C682.54 41.408 683.244 41.696 684.092 41.696C684.956 41.696 685.66 41.416 686.204 40.856C686.764 40.28 687.044 39.528 687.044 38.6C687.044 37.704 686.764 36.968 686.204 36.392C685.644 35.816 684.94 35.528 684.092 35.528C683.26 35.528 682.564 35.816 682.004 36.392C681.444 36.952 681.164 37.688 681.164 38.6ZM695.12 44H692.36V33.2H695.12V40.04L700.16 33.2H702.92V44H700.16V37.16L695.12 44ZM714.185 40.376L715.481 42.392C715.033 43 714.425 43.464 713.657 43.784C712.905 44.104 712.081 44.264 711.185 44.264C709.425 44.264 708.009 43.744 706.937 42.704C705.865 41.664 705.329 40.296 705.329 38.6C705.329 37 705.857 35.656 706.913 34.568C707.969 33.48 709.305 32.936 710.921 32.936C712.841 32.936 714.289 33.424 715.265 34.4L713.969 36.584C713.249 35.88 712.353 35.528 711.281 35.528C710.481 35.528 709.777 35.816 709.169 36.392C708.577 36.952 708.281 37.688 708.281 38.6C708.281 39.528 708.585 40.28 709.193 40.856C709.817 41.416 710.553 41.696 711.401 41.696C712.457 41.696 713.385 41.256 714.185 40.376ZM727.92 33.2L723.768 38.336L728.424 44H724.824L720.552 38.552L724.44 33.2H727.92ZM717.696 44V33.2H720.456V44H717.696ZM730.327 42.68C729.255 41.608 728.719 40.248 728.719 38.6C728.719 36.952 729.255 35.6 730.327 34.544C731.415 33.472 732.839 32.936 734.599 32.936C736.359 32.936 737.775 33.472 738.847 34.544C739.935 35.6 740.479 36.952 740.479 38.6C740.479 40.248 739.935 41.608 738.847 42.68C737.775 43.736 736.359 44.264 734.599 44.264C732.839 44.264 731.415 43.736 730.327 42.68ZM731.671 38.6C731.671 39.496 731.943 40.24 732.487 40.832C733.047 41.408 733.751 41.696 734.599 41.696C735.463 41.696 736.167 41.416 736.711 40.856C737.271 40.28 737.551 39.528 737.551 38.6C737.551 37.704 737.271 36.968 736.711 36.392C736.151 35.816 735.447 35.528 734.599 35.528C733.767 35.528 733.071 35.816 732.511 36.392C731.951 36.952 731.671 37.688 731.671 38.6ZM742.868 44V33.2C743.06 33.2 743.412 33.192 743.924 33.176C744.452 33.144 744.988 33.12 745.532 33.104C746.092 33.088 746.62 33.08 747.116 33.08C750.38 33.08 752.012 34.024 752.012 35.912C752.012 36.536 751.812 37.072 751.412 37.52C751.028 37.968 750.556 38.232 749.996 38.312V38.36C751.532 38.728 752.3 39.56 752.3 40.856C752.3 43.032 750.588 44.12 747.164 44.12C746.684 44.12 745.924 44.096 744.884 44.048C743.844 44.016 743.172 44 742.868 44ZM747.356 39.416H745.628V41.816C746.716 41.88 747.324 41.912 747.452 41.912C748.06 41.912 748.532 41.8 748.868 41.576C749.22 41.352 749.396 41.048 749.396 40.664C749.396 39.832 748.716 39.416 747.356 39.416ZM747.356 35.312C746.588 35.312 746.012 35.328 745.628 35.36V37.736H747.428C747.908 37.736 748.3 37.632 748.604 37.424C748.924 37.2 749.084 36.888 749.084 36.488C749.084 35.704 748.508 35.312 747.356 35.312ZM754.915 44V33.2H757.675V36.152H759.019C760.715 36.152 761.931 36.504 762.667 37.208C763.403 37.912 763.771 38.808 763.771 39.896C763.771 41.064 763.371 42.04 762.571 42.824C761.771 43.608 760.515 44 758.803 44H754.915ZM765.307 44V33.2H768.067V44H765.307ZM758.779 38.36H757.675V41.6H758.755C760.147 41.6 760.843 41.064 760.843 39.992C760.843 38.904 760.155 38.36 758.779 38.36ZM773.894 44H771.134V33.2H773.894V40.04L778.934 33.2H781.694V44H778.934V37.16L773.894 44ZM772.742 27.8H775.262C775.262 28.296 775.358 28.712 775.55 29.048C775.758 29.384 776.078 29.552 776.51 29.552C776.894 29.552 777.182 29.384 777.374 29.048C777.566 28.712 777.662 28.296 777.662 27.8H780.182C780.182 28.888 779.862 29.784 779.222 30.488C778.582 31.176 777.678 31.52 776.51 31.52C775.23 31.52 774.278 31.184 773.654 30.512C773.046 29.824 772.742 28.92 772.742 27.8ZM788.564 46.52V41.432H789.932C790.78 40.312 791.284 38.432 791.444 35.792L791.612 33.2H799.58V41.432H801.38V46.52H798.788V44H791.132V46.52H788.564ZM794.108 36.896C793.916 38.992 793.484 40.504 792.812 41.432H796.82V35.792H794.18L794.108 36.896ZM803.196 44V33.2C803.388 33.2 803.74 33.192 804.252 33.176C804.78 33.144 805.316 33.12 805.86 33.104C806.42 33.088 806.948 33.08 807.444 33.08C810.708 33.08 812.34 34.024 812.34 35.912C812.34 36.536 812.14 37.072 811.74 37.52C811.356 37.968 810.884 38.232 810.324 38.312V38.36C811.86 38.728 812.628 39.56 812.628 40.856C812.628 43.032 810.916 44.12 807.492 44.12C807.012 44.12 806.252 44.096 805.212 44.048C804.172 44.016 803.5 44 803.196 44ZM807.684 39.416H805.956V41.816C807.044 41.88 807.652 41.912 807.78 41.912C808.388 41.912 808.86 41.8 809.196 41.576C809.548 41.352 809.724 41.048 809.724 40.664C809.724 39.832 809.044 39.416 807.684 39.416ZM807.684 35.312C806.916 35.312 806.34 35.328 805.956 35.36V37.736H807.756C808.236 37.736 808.628 37.632 808.932 37.424C809.252 37.2 809.412 36.888 809.412 36.488C809.412 35.704 808.836 35.312 807.684 35.312ZM818.003 44H815.243V33.2H818.003V40.04L823.043 33.2H825.803V44H823.043V37.16L818.003 44ZM843.884 33.2L840.308 38.432L844.172 44H840.908L837.308 38.432L840.62 33.2H843.884ZM834.428 44V33.2H837.188V44H834.428ZM831.332 38.432L827.732 33.2H831.092L834.308 38.432L830.804 44H827.516L831.332 38.432ZM846.179 42.68C845.107 41.608 844.571 40.248 844.571 38.6C844.571 36.952 845.107 35.6 846.179 34.544C847.267 33.472 848.691 32.936 850.451 32.936C852.211 32.936 853.627 33.472 854.699 34.544C855.787 35.6 856.331 36.952 856.331 38.6C856.331 40.248 855.787 41.608 854.699 42.68C853.627 43.736 852.211 44.264 850.451 44.264C848.691 44.264 847.267 43.736 846.179 42.68ZM847.523 38.6C847.523 39.496 847.795 40.24 848.339 40.832C848.899 41.408 849.603 41.696 850.451 41.696C851.315 41.696 852.019 41.416 852.563 40.856C853.123 40.28 853.403 39.528 853.403 38.6C853.403 37.704 853.123 36.968 852.563 36.392C852.003 35.816 851.299 35.528 850.451 35.528C849.619 35.528 848.923 35.816 848.363 36.392C847.803 36.952 847.523 37.688 847.523 38.6ZM868.944 33.2L864.792 38.336L869.448 44H865.848L861.576 38.552L865.464 33.2H868.944ZM858.72 44V33.2H861.48V44H858.72ZM883.693 39.536C883.693 39.088 883.549 38.696 883.261 38.36C882.989 38.008 882.629 37.712 882.181 37.472C881.733 37.216 881.237 36.976 880.693 36.752C880.165 36.512 879.629 36.248 879.085 35.96C878.541 35.656 878.045 35.328 877.597 34.976C877.149 34.608 876.781 34.136 876.493 33.56C876.221 32.968 876.085 32.304 876.085 31.568C876.085 30.256 876.557 29.16 877.501 28.28C878.461 27.384 879.733 26.936 881.317 26.936C883.429 26.936 885.029 27.536 886.117 28.736L884.533 30.944C883.669 30.112 882.677 29.696 881.557 29.696C880.837 29.696 880.261 29.864 879.829 30.2C879.413 30.536 879.205 30.984 879.205 31.544C879.205 32.088 879.389 32.56 879.757 32.96C880.141 33.36 880.613 33.68 881.173 33.92C881.733 34.144 882.341 34.416 882.997 34.736C883.669 35.056 884.285 35.392 884.845 35.744C885.405 36.08 885.869 36.576 886.237 37.232C886.621 37.872 886.813 38.632 886.813 39.512C886.813 40.904 886.277 42.048 885.205 42.944C884.133 43.824 882.797 44.264 881.197 44.264C880.045 44.264 878.933 44.032 877.861 43.568C876.805 43.088 876.085 42.44 875.701 41.624L877.381 39.608C877.845 40.216 878.429 40.688 879.133 41.024C879.853 41.344 880.557 41.504 881.245 41.504C881.965 41.504 882.549 41.336 882.997 41C883.461 40.648 883.693 40.16 883.693 39.536ZM889.423 48.8V33.2H892.183V34.232C892.535 33.864 893.007 33.56 893.599 33.32C894.207 33.064 894.847 32.936 895.519 32.936C896.991 32.936 898.175 33.448 899.071 34.472C899.967 35.496 900.415 36.816 900.415 38.432C900.415 40.112 899.887 41.504 898.831 42.608C897.775 43.712 896.399 44.264 894.703 44.264C893.631 44.264 892.791 44.088 892.183 43.736V48.8H889.423ZM894.655 35.528C893.711 35.528 892.887 35.92 892.183 36.704V41.072C892.823 41.488 893.583 41.696 894.463 41.696C895.391 41.696 896.127 41.4 896.671 40.808C897.215 40.2 897.487 39.432 897.487 38.504C897.487 37.624 897.239 36.912 896.743 36.368C896.247 35.808 895.551 35.528 894.655 35.528ZM902.806 44V27.2H905.566V34.184C906.382 33.4 907.414 33.008 908.662 33.008C910.054 33.008 911.142 33.392 911.926 34.16C912.71 34.912 913.102 36.104 913.102 37.736V44H910.342V38.096C910.342 37.296 910.134 36.68 909.718 36.248C909.302 35.816 908.71 35.6 907.942 35.6C907.014 35.6 906.222 35.928 905.566 36.584V44H902.806ZM916.315 44V33.2H919.075V44H916.315ZM916.027 29.312C916.027 28.832 916.195 28.448 916.531 28.16C916.867 27.856 917.275 27.704 917.755 27.704C918.171 27.704 918.539 27.856 918.859 28.16C919.179 28.448 919.339 28.832 919.339 29.312C919.339 29.84 919.179 30.264 918.859 30.584C918.539 30.888 918.171 31.04 917.755 31.04C917.259 31.04 916.843 30.888 916.507 30.584C916.187 30.264 916.027 29.84 916.027 29.312ZM922.563 44V33.2H925.323V34.28C926.107 33.432 927.139 33.008 928.419 33.008C931.379 33.008 932.859 34.56 932.859 37.664V44H930.099V38.144C930.099 36.448 929.291 35.6 927.675 35.6C926.795 35.6 926.011 35.944 925.323 36.632V44H922.563ZM945.985 33.2L942.385 38.36L946.225 44H942.865L940.345 40.112L937.729 44H934.537L938.377 38.504L934.777 33.2H938.161L940.441 36.776L942.793 33.2H945.985ZM955.74 39.536C955.74 39.088 955.596 38.696 955.308 38.36C955.036 38.008 954.676 37.712 954.228 37.472C953.78 37.216 953.284 36.976 952.74 36.752C952.212 36.512 951.676 36.248 951.132 35.96C950.588 35.656 950.092 35.328 949.644 34.976C949.196 34.608 948.828 34.136 948.54 33.56C948.268 32.968 948.132 32.304 948.132 31.568C948.132 30.256 948.604 29.16 949.548 28.28C950.508 27.384 951.78 26.936 953.364 26.936C955.476 26.936 957.076 27.536 958.164 28.736L956.58 30.944C955.716 30.112 954.724 29.696 953.604 29.696C952.884 29.696 952.308 29.864 951.876 30.2C951.46 30.536 951.252 30.984 951.252 31.544C951.252 32.088 951.436 32.56 951.804 32.96C952.188 33.36 952.66 33.68 953.22 33.92C953.78 34.144 954.388 34.416 955.044 34.736C955.716 35.056 956.332 35.392 956.892 35.744C957.452 36.08 957.916 36.576 958.284 37.232C958.668 37.872 958.86 38.632 958.86 39.512C958.86 40.904 958.324 42.048 957.252 42.944C956.18 43.824 954.844 44.264 953.244 44.264C952.092 44.264 950.98 44.032 949.908 43.568C948.852 43.088 948.132 42.44 947.748 41.624L949.428 39.608C949.892 40.216 950.476 40.688 951.18 41.024C951.9 41.344 952.604 41.504 953.292 41.504C954.012 41.504 954.596 41.336 955.044 41C955.508 40.648 955.74 40.16 955.74 39.536ZM969.942 40.976L970.734 42.92C969.678 43.816 968.302 44.264 966.606 44.264C964.862 44.264 963.454 43.744 962.382 42.704C961.326 41.664 960.798 40.296 960.798 38.6C960.798 36.984 961.318 35.64 962.358 34.568C963.398 33.48 964.782 32.936 966.51 32.936C967.934 32.936 969.142 33.408 970.134 34.352C971.126 35.28 971.622 36.48 971.622 37.952C971.622 38.56 971.566 39.056 971.454 39.44H963.654C963.766 40.24 964.118 40.864 964.71 41.312C965.302 41.744 966.03 41.96 966.894 41.96C968.11 41.96 969.126 41.632 969.942 40.976ZM966.39 35.24C964.822 35.24 963.878 36.024 963.558 37.592H968.862C968.878 36.92 968.662 36.36 968.214 35.912C967.766 35.464 967.158 35.24 966.39 35.24ZM974.685 35.984L973.989 33.968C975.157 33.28 976.429 32.936 977.805 32.936C979.341 32.936 980.445 33.312 981.117 34.064C981.789 34.816 982.125 35.936 982.125 37.424V44H979.725V42.752C979.069 43.68 978.005 44.144 976.533 44.144C975.525 44.144 974.709 43.848 974.085 43.256C973.461 42.664 973.149 41.856 973.149 40.832C973.149 39.696 973.517 38.832 974.253 38.24C974.989 37.632 975.933 37.328 977.085 37.328C978.077 37.328 978.893 37.56 979.533 38.024C979.565 37.08 979.429 36.384 979.125 35.936C978.821 35.472 978.285 35.24 977.517 35.24C976.717 35.24 975.773 35.488 974.685 35.984ZM977.445 41.816C978.373 41.816 979.069 41.488 979.533 40.832V39.728C979.069 39.376 978.437 39.2 977.637 39.2C977.141 39.2 976.725 39.32 976.389 39.56C976.069 39.784 975.909 40.112 975.909 40.544C975.909 40.944 976.053 41.256 976.341 41.48C976.629 41.704 976.997 41.816 977.445 41.816ZM984.954 44V33.2H987.714V34.256C988.322 33.424 989.146 33.008 990.186 33.008C990.938 33.008 991.498 33.144 991.866 33.416L990.882 36.008C990.418 35.736 989.954 35.6 989.49 35.6C988.69 35.6 988.098 35.984 987.714 36.752V44H984.954ZM1001.62 40.376L1002.92 42.392C1002.47 43 1001.86 43.464 1001.09 43.784C1000.34 44.104 999.518 44.264 998.622 44.264C996.862 44.264 995.446 43.744 994.374 42.704C993.302 41.664 992.766 40.296 992.766 38.6C992.766 37 993.294 35.656 994.35 34.568C995.406 33.48 996.742 32.936 998.358 32.936C1000.28 32.936 1001.73 33.424 1002.7 34.4L1001.41 36.584C1000.69 35.88 999.79 35.528 998.718 35.528C997.918 35.528 997.214 35.816 996.606 36.392C996.014 36.952 995.718 37.688 995.718 38.6C995.718 39.528 996.022 40.28 996.63 40.856C997.254 41.416 997.99 41.696 998.838 41.696C999.894 41.696 1000.82 41.256 1001.62 40.376ZM1005.13 44V27.2H1007.89V34.184C1008.71 33.4 1009.74 33.008 1010.99 33.008C1012.38 33.008 1013.47 33.392 1014.25 34.16C1015.04 34.912 1015.43 36.104 1015.43 37.736V44H1012.67V38.096C1012.67 37.296 1012.46 36.68 1012.05 36.248C1011.63 35.816 1011.04 35.6 1010.27 35.6C1009.34 35.6 1008.55 35.928 1007.89 36.584V44H1005.13Z" fill="white"/>
<rect x="630.5" y="1.5" width="415" height="72" rx="6.5" stroke="#F76D09" stroke-width="3"/>
<path d="M41.0997 57H38.5077V40.2H41.4597V52.152L50.2677 40.2H52.8597V57H49.9077V45.072L41.0997 57ZM56.7235 57V46.2H59.2195L62.8915 50.712L66.3715 46.2H68.7955V57H66.0355V50.4L62.8435 54.432H62.7715L59.4835 50.4V57H56.7235ZM79.2321 57V48.792H74.6241V57H71.8641V46.2H81.9921V57H79.2321ZM85.9954 55.68C84.9234 54.608 84.3874 53.248 84.3874 51.6C84.3874 49.952 84.9234 48.6 85.9954 47.544C87.0834 46.472 88.5074 45.936 90.2674 45.936C92.0274 45.936 93.4434 46.472 94.5154 47.544C95.6034 48.6 96.1474 49.952 96.1474 51.6C96.1474 53.248 95.6034 54.608 94.5154 55.68C93.4434 56.736 92.0274 57.264 90.2674 57.264C88.5074 57.264 87.0834 56.736 85.9954 55.68ZM87.3394 51.6C87.3394 52.496 87.6114 53.24 88.1554 53.832C88.7154 54.408 89.4194 54.696 90.2674 54.696C91.1314 54.696 91.8354 54.416 92.3794 53.856C92.9394 53.28 93.2194 52.528 93.2194 51.6C93.2194 50.704 92.9394 49.968 92.3794 49.392C91.8194 48.816 91.1154 48.528 90.2674 48.528C89.4354 48.528 88.7394 48.816 88.1794 49.392C87.6194 49.952 87.3394 50.688 87.3394 51.6ZM98.536 61.8V46.2H101.296V47.232C101.648 46.864 102.12 46.56 102.712 46.32C103.32 46.064 103.96 45.936 104.632 45.936C106.104 45.936 107.288 46.448 108.184 47.472C109.08 48.496 109.528 49.816 109.528 51.432C109.528 53.112 109 54.504 107.944 55.608C106.888 56.712 105.512 57.264 103.816 57.264C102.744 57.264 101.904 57.088 101.296 56.736V61.8H98.536ZM103.768 48.528C102.824 48.528 102 48.92 101.296 49.704V54.072C101.936 54.488 102.696 54.696 103.576 54.696C104.504 54.696 105.24 54.4 105.784 53.808C106.328 53.2 106.6 52.432 106.6 51.504C106.6 50.624 106.352 49.912 105.856 49.368C105.36 48.808 104.664 48.528 103.768 48.528ZM110.369 48.96V46.2H120.209V48.96H116.681V57H113.921V48.96H110.369ZM126.142 48.96V46.2H135.982V48.96H132.454V57H129.694V48.96H126.142ZM138.566 55.68C137.494 54.608 136.958 53.248 136.958 51.6C136.958 49.952 137.494 48.6 138.566 47.544C139.654 46.472 141.078 45.936 142.838 45.936C144.598 45.936 146.014 46.472 147.086 47.544C148.174 48.6 148.718 49.952 148.718 51.6C148.718 53.248 148.174 54.608 147.086 55.68C146.014 56.736 144.598 57.264 142.838 57.264C141.078 57.264 139.654 56.736 138.566 55.68ZM139.91 51.6C139.91 52.496 140.182 53.24 140.726 53.832C141.286 54.408 141.99 54.696 142.838 54.696C143.702 54.696 144.406 54.416 144.95 53.856C145.51 53.28 145.79 52.528 145.79 51.6C145.79 50.704 145.51 49.968 144.95 49.392C144.39 48.816 143.686 48.528 142.838 48.528C142.006 48.528 141.31 48.816 140.75 49.392C140.19 49.952 139.91 50.688 139.91 51.6ZM151.106 57V46.2C151.298 46.2 151.65 46.192 152.162 46.176C152.69 46.144 153.226 46.12 153.77 46.104C154.33 46.088 154.858 46.08 155.354 46.08C158.618 46.08 160.25 47.024 160.25 48.912C160.25 49.536 160.05 50.072 159.65 50.52C159.266 50.968 158.794 51.232 158.234 51.312V51.36C159.77 51.728 160.538 52.56 160.538 53.856C160.538 56.032 158.826 57.12 155.402 57.12C154.922 57.12 154.162 57.096 153.122 57.048C152.082 57.016 151.41 57 151.106 57ZM155.594 52.416H153.866V54.816C154.954 54.88 155.562 54.912 155.69 54.912C156.298 54.912 156.77 54.8 157.106 54.576C157.458 54.352 157.634 54.048 157.634 53.664C157.634 52.832 156.954 52.416 155.594 52.416ZM155.594 48.312C154.826 48.312 154.25 48.328 153.866 48.36V50.736H155.666C156.146 50.736 156.538 50.632 156.842 50.424C157.162 50.2 157.322 49.888 157.322 49.488C157.322 48.704 156.746 48.312 155.594 48.312ZM163.993 48.984L163.297 46.968C164.465 46.28 165.737 45.936 167.113 45.936C168.649 45.936 169.753 46.312 170.425 47.064C171.097 47.816 171.433 48.936 171.433 50.424V57H169.033V55.752C168.377 56.68 167.313 57.144 165.841 57.144C164.833 57.144 164.017 56.848 163.393 56.256C162.769 55.664 162.457 54.856 162.457 53.832C162.457 52.696 162.825 51.832 163.561 51.24C164.297 50.632 165.241 50.328 166.393 50.328C167.385 50.328 168.201 50.56 168.841 51.024C168.873 50.08 168.737 49.384 168.433 48.936C168.129 48.472 167.593 48.24 166.825 48.24C166.025 48.24 165.081 48.488 163.993 48.984ZM166.753 54.816C167.681 54.816 168.377 54.488 168.841 53.832V52.728C168.377 52.376 167.745 52.2 166.945 52.2C166.449 52.2 166.033 52.32 165.697 52.56C165.377 52.784 165.217 53.112 165.217 53.544C165.217 53.944 165.361 54.256 165.649 54.48C165.937 54.704 166.305 54.816 166.753 54.816ZM174.263 61.8V46.2H177.023V47.232C177.375 46.864 177.847 46.56 178.439 46.32C179.047 46.064 179.687 45.936 180.359 45.936C181.831 45.936 183.015 46.448 183.911 47.472C184.807 48.496 185.255 49.816 185.255 51.432C185.255 53.112 184.727 54.504 183.671 55.608C182.615 56.712 181.239 57.264 179.543 57.264C178.471 57.264 177.631 57.088 177.023 56.736V61.8H174.263ZM179.495 48.528C178.551 48.528 177.727 48.92 177.023 49.704V54.072C177.663 54.488 178.423 54.696 179.303 54.696C180.231 54.696 180.967 54.4 181.511 53.808C182.055 53.2 182.327 52.432 182.327 51.504C182.327 50.624 182.079 49.912 181.583 49.368C181.087 48.808 180.391 48.528 179.495 48.528ZM188.581 55.68C187.509 54.608 186.973 53.248 186.973 51.6C186.973 49.952 187.509 48.6 188.581 47.544C189.669 46.472 191.093 45.936 192.853 45.936C194.613 45.936 196.029 46.472 197.101 47.544C198.189 48.6 198.733 49.952 198.733 51.6C198.733 53.248 198.189 54.608 197.101 55.68C196.029 56.736 194.613 57.264 192.853 57.264C191.093 57.264 189.669 56.736 188.581 55.68ZM189.925 51.6C189.925 52.496 190.197 53.24 190.741 53.832C191.301 54.408 192.005 54.696 192.853 54.696C193.717 54.696 194.421 54.416 194.965 53.856C195.525 53.28 195.805 52.528 195.805 51.6C195.805 50.704 195.525 49.968 194.965 49.392C194.405 48.816 193.701 48.528 192.853 48.528C192.021 48.528 191.325 48.816 190.765 49.392C190.205 49.952 189.925 50.688 189.925 51.6ZM201.122 57V46.2C201.314 46.2 201.666 46.192 202.178 46.176C202.706 46.144 203.242 46.12 203.786 46.104C204.346 46.088 204.874 46.08 205.37 46.08C208.634 46.08 210.266 47.024 210.266 48.912C210.266 49.536 210.066 50.072 209.666 50.52C209.282 50.968 208.81 51.232 208.25 51.312V51.36C209.786 51.728 210.554 52.56 210.554 53.856C210.554 56.032 208.842 57.12 205.418 57.12C204.938 57.12 204.178 57.096 203.138 57.048C202.098 57.016 201.426 57 201.122 57ZM205.61 52.416H203.882V54.816C204.97 54.88 205.578 54.912 205.706 54.912C206.314 54.912 206.786 54.8 207.122 54.576C207.474 54.352 207.65 54.048 207.65 53.664C207.65 52.832 206.97 52.416 205.61 52.416ZM205.61 48.312C204.842 48.312 204.266 48.328 203.882 48.36V50.736H205.682C206.162 50.736 206.554 50.632 206.858 50.424C207.178 50.2 207.338 49.888 207.338 49.488C207.338 48.704 206.762 48.312 205.61 48.312ZM221.015 57H218.255V46.2H221.015V53.04L226.055 46.2H228.815V57H226.055V50.16L221.015 57ZM235.711 57.264C234.767 57.264 233.847 57.096 232.951 56.76C232.055 56.408 231.407 55.976 231.007 55.464L232.423 53.736C232.743 54.104 233.199 54.416 233.791 54.672C234.399 54.928 234.959 55.056 235.471 55.056C236.175 55.056 236.719 54.936 237.103 54.696C237.487 54.456 237.679 54.136 237.679 53.736C237.679 53.368 237.535 53.072 237.247 52.848C236.959 52.624 236.559 52.512 236.047 52.512H234.031V50.664H235.927C236.359 50.664 236.703 50.536 236.959 50.28C237.231 50.024 237.367 49.712 237.367 49.344C237.367 48.56 236.735 48.168 235.471 48.168C234.479 48.168 233.495 48.584 232.519 49.416L231.367 47.76C232.407 46.544 233.951 45.936 235.999 45.936C237.407 45.936 238.479 46.208 239.215 46.752C239.951 47.296 240.319 48.048 240.319 49.008C240.319 49.536 240.143 50.016 239.791 50.448C239.439 50.88 238.951 51.2 238.327 51.408V51.456C239.063 51.6 239.623 51.904 240.007 52.368C240.407 52.816 240.607 53.36 240.607 54C240.607 55.008 240.159 55.808 239.263 56.4C238.367 56.976 237.183 57.264 235.711 57.264ZM247.294 43.368L251.59 40.152H253.582V57H250.822V44.088L248.758 45.648L247.294 43.368ZM270.086 53.16L271.214 55.368C270.686 55.928 269.926 56.384 268.934 56.736C267.958 57.088 266.926 57.264 265.838 57.264C263.262 57.264 261.174 56.472 259.574 54.888C257.974 53.304 257.174 51.208 257.174 48.6C257.174 46.088 257.934 44.016 259.454 42.384C260.974 40.752 263.078 39.936 265.766 39.936C267.926 39.936 269.63 40.504 270.878 41.64L269.558 43.824C268.422 43.072 267.158 42.696 265.766 42.696C264.182 42.696 262.87 43.232 261.83 44.304C260.806 45.376 260.294 46.808 260.294 48.6C260.294 50.344 260.83 51.768 261.902 52.872C262.99 53.96 264.39 54.504 266.102 54.504C267.59 54.504 268.918 54.056 270.086 53.16Z" fill="white"/>
<rect x="1.5" y="14.5" width="305" height="72" rx="6.5" stroke="#F76D09" stroke-width="3"/>
<path d="M35.2638 177H32.6718V160.2H35.6238V172.152L44.4318 160.2H47.0238V177H44.0718V165.072L35.2638 177ZM50.8876 177V166.2H53.3836L57.0556 170.712L60.5356 166.2H62.9596V177H60.1996V170.4L57.0076 174.432H56.9356L53.6476 170.4V177H50.8876ZM73.3962 177V168.792H68.7882V177H66.0282V166.2H76.1562V177H73.3962ZM80.1595 175.68C79.0875 174.608 78.5515 173.248 78.5515 171.6C78.5515 169.952 79.0875 168.6 80.1595 167.544C81.2475 166.472 82.6715 165.936 84.4315 165.936C86.1915 165.936 87.6075 166.472 88.6795 167.544C89.7675 168.6 90.3115 169.952 90.3115 171.6C90.3115 173.248 89.7675 174.608 88.6795 175.68C87.6075 176.736 86.1915 177.264 84.4315 177.264C82.6715 177.264 81.2475 176.736 80.1595 175.68ZM81.5035 171.6C81.5035 172.496 81.7755 173.24 82.3195 173.832C82.8795 174.408 83.5835 174.696 84.4315 174.696C85.2955 174.696 85.9995 174.416 86.5435 173.856C87.1035 173.28 87.3835 172.528 87.3835 171.6C87.3835 170.704 87.1035 169.968 86.5435 169.392C85.9835 168.816 85.2795 168.528 84.4315 168.528C83.5995 168.528 82.9035 168.816 82.3435 169.392C81.7835 169.952 81.5035 170.688 81.5035 171.6ZM92.7001 181.8V166.2H95.4601V167.232C95.8121 166.864 96.2841 166.56 96.8761 166.32C97.4841 166.064 98.1241 165.936 98.7961 165.936C100.268 165.936 101.452 166.448 102.348 167.472C103.244 168.496 103.692 169.816 103.692 171.432C103.692 173.112 103.164 174.504 102.108 175.608C101.052 176.712 99.6761 177.264 97.9801 177.264C96.9081 177.264 96.0681 177.088 95.4601 176.736V181.8H92.7001ZM97.9321 168.528C96.9881 168.528 96.1641 168.92 95.4601 169.704V174.072C96.1001 174.488 96.8601 174.696 97.7401 174.696C98.6681 174.696 99.4041 174.4 99.9481 173.808C100.492 173.2 100.764 172.432 100.764 171.504C100.764 170.624 100.516 169.912 100.02 169.368C99.5241 168.808 98.8281 168.528 97.9321 168.528ZM104.533 168.96V166.2H114.373V168.96H110.845V177H108.085V168.96H104.533ZM121.434 177V166.2H124.194V174.432H128.634V166.2H131.394V174.432H133.194V179.52H130.602V177H121.434ZM143.5 173.976L144.292 175.92C143.236 176.816 141.86 177.264 140.164 177.264C138.42 177.264 137.012 176.744 135.94 175.704C134.884 174.664 134.356 173.296 134.356 171.6C134.356 169.984 134.876 168.64 135.916 167.568C136.956 166.48 138.34 165.936 140.068 165.936C141.492 165.936 142.7 166.408 143.692 167.352C144.684 168.28 145.18 169.48 145.18 170.952C145.18 171.56 145.124 172.056 145.012 172.44H137.212C137.324 173.24 137.676 173.864 138.268 174.312C138.86 174.744 139.588 174.96 140.452 174.96C141.668 174.96 142.684 174.632 143.5 173.976ZM139.948 168.24C138.38 168.24 137.436 169.024 137.116 170.592H142.42C142.436 169.92 142.22 169.36 141.772 168.912C141.324 168.464 140.716 168.24 139.948 168.24ZM154.891 177V172.872H150.163V177H147.403V166.2H150.163V170.28H154.891V166.2H157.651V177H154.891ZM168.562 177H165.802V166.2H168.562V173.04L173.602 166.2H176.362V177H173.602V170.16L168.562 177ZM185.464 175.68C184.392 174.608 183.856 173.248 183.856 171.6C183.856 169.952 184.392 168.6 185.464 167.544C186.552 166.472 187.976 165.936 189.736 165.936C191.496 165.936 192.912 166.472 193.984 167.544C195.072 168.6 195.616 169.952 195.616 171.6C195.616 173.248 195.072 174.608 193.984 175.68C192.912 176.736 191.496 177.264 189.736 177.264C187.976 177.264 186.552 176.736 185.464 175.68ZM186.808 171.6C186.808 172.496 187.08 173.24 187.624 173.832C188.184 174.408 188.888 174.696 189.736 174.696C190.6 174.696 191.304 174.416 191.848 173.856C192.408 173.28 192.688 172.528 192.688 171.6C192.688 170.704 192.408 169.968 191.848 169.392C191.288 168.816 190.584 168.528 189.736 168.528C188.904 168.528 188.208 168.816 187.648 169.392C187.088 169.952 186.808 170.688 186.808 171.6ZM206.189 173.376L207.485 175.392C207.037 176 206.429 176.464 205.661 176.784C204.909 177.104 204.085 177.264 203.189 177.264C201.429 177.264 200.013 176.744 198.941 175.704C197.869 174.664 197.333 173.296 197.333 171.6C197.333 170 197.861 168.656 198.917 167.568C199.973 166.48 201.309 165.936 202.925 165.936C204.845 165.936 206.293 166.424 207.269 167.4L205.973 169.584C205.253 168.88 204.357 168.528 203.285 168.528C202.485 168.528 201.781 168.816 201.173 169.392C200.581 169.952 200.285 170.688 200.285 171.6C200.285 172.528 200.589 173.28 201.197 173.856C201.821 174.416 202.557 174.696 203.405 174.696C204.461 174.696 205.389 174.256 206.189 173.376ZM208.361 168.96V166.2H218.201V168.96H214.673V177H211.913V168.96H208.361ZM221.017 168.984L220.321 166.968C221.489 166.28 222.761 165.936 224.137 165.936C225.673 165.936 226.777 166.312 227.449 167.064C228.121 167.816 228.457 168.936 228.457 170.424V177H226.057V175.752C225.401 176.68 224.337 177.144 222.865 177.144C221.857 177.144 221.041 176.848 220.417 176.256C219.793 175.664 219.481 174.856 219.481 173.832C219.481 172.696 219.849 171.832 220.585 171.24C221.321 170.632 222.265 170.328 223.417 170.328C224.409 170.328 225.225 170.56 225.865 171.024C225.897 170.08 225.761 169.384 225.457 168.936C225.153 168.472 224.617 168.24 223.849 168.24C223.049 168.24 222.105 168.488 221.017 168.984ZM223.777 174.816C224.705 174.816 225.401 174.488 225.865 173.832V172.728C225.401 172.376 224.769 172.2 223.969 172.2C223.473 172.2 223.057 172.32 222.721 172.56C222.401 172.784 222.241 173.112 222.241 173.544C222.241 173.944 222.385 174.256 222.673 174.48C222.961 174.704 223.329 174.816 223.777 174.816ZM230.158 168.96V166.2H239.998V168.96H236.47V177H233.71V168.96H230.158ZM252.198 166.2L248.046 171.336L252.702 177H249.102L244.83 171.552L248.718 166.2H252.198ZM241.974 177V166.2H244.734V177H241.974ZM254.605 175.68C253.533 174.608 252.997 173.248 252.997 171.6C252.997 169.952 253.533 168.6 254.605 167.544C255.693 166.472 257.117 165.936 258.877 165.936C260.637 165.936 262.053 166.472 263.125 167.544C264.213 168.6 264.757 169.952 264.757 171.6C264.757 173.248 264.213 174.608 263.125 175.68C262.053 176.736 260.637 177.264 258.877 177.264C257.117 177.264 255.693 176.736 254.605 175.68ZM255.949 171.6C255.949 172.496 256.221 173.24 256.765 173.832C257.325 174.408 258.029 174.696 258.877 174.696C259.741 174.696 260.445 174.416 260.989 173.856C261.549 173.28 261.829 172.528 261.829 171.6C261.829 170.704 261.549 169.968 260.989 169.392C260.429 168.816 259.725 168.528 258.877 168.528C258.045 168.528 257.349 168.816 256.789 169.392C256.229 169.952 255.949 170.688 255.949 171.6ZM267.145 177V166.2C267.337 166.2 267.689 166.192 268.201 166.176C268.729 166.144 269.265 166.12 269.809 166.104C270.369 166.088 270.897 166.08 271.393 166.08C274.657 166.08 276.289 167.024 276.289 168.912C276.289 169.536 276.089 170.072 275.689 170.52C275.305 170.968 274.833 171.232 274.273 171.312V171.36C275.809 171.728 276.577 172.56 276.577 173.856C276.577 176.032 274.865 177.12 271.441 177.12C270.961 177.12 270.201 177.096 269.161 177.048C268.121 177.016 267.449 177 267.145 177ZM271.633 172.416H269.905V174.816C270.993 174.88 271.601 174.912 271.729 174.912C272.337 174.912 272.809 174.8 273.145 174.576C273.497 174.352 273.673 174.048 273.673 173.664C273.673 172.832 272.993 172.416 271.633 172.416ZM271.633 168.312C270.865 168.312 270.289 168.328 269.905 168.36V170.736H271.705C272.185 170.736 272.577 170.632 272.881 170.424C273.201 170.2 273.361 169.888 273.361 169.488C273.361 168.704 272.785 168.312 271.633 168.312Z" fill="white"/>
<rect x="1.5" y="134.5" width="305" height="72" rx="6.5" stroke="#F76D09" stroke-width="3"/>
<path d="M69.7169 297H67.1249V280.2H70.0769V292.152L78.8849 280.2H81.4769V297H78.5249V285.072L69.7169 297ZM85.3407 297V286.2H87.8367L91.5087 290.712L94.9887 286.2H97.4127V297H94.6527V290.4L91.4607 294.432H91.3887L88.1007 290.4V297H85.3407ZM107.849 297V288.792H103.241V297H100.481V286.2H110.609V297H107.849ZM114.613 295.68C113.541 294.608 113.005 293.248 113.005 291.6C113.005 289.952 113.541 288.6 114.613 287.544C115.701 286.472 117.125 285.936 118.885 285.936C120.645 285.936 122.061 286.472 123.133 287.544C124.221 288.6 124.765 289.952 124.765 291.6C124.765 293.248 124.221 294.608 123.133 295.68C122.061 296.736 120.645 297.264 118.885 297.264C117.125 297.264 115.701 296.736 114.613 295.68ZM115.957 291.6C115.957 292.496 116.229 293.24 116.773 293.832C117.333 294.408 118.037 294.696 118.885 294.696C119.749 294.696 120.453 294.416 120.997 293.856C121.557 293.28 121.837 292.528 121.837 291.6C121.837 290.704 121.557 289.968 120.997 289.392C120.437 288.816 119.733 288.528 118.885 288.528C118.053 288.528 117.357 288.816 116.797 289.392C116.237 289.952 115.957 290.688 115.957 291.6ZM127.153 301.8V286.2H129.913V287.232C130.265 286.864 130.737 286.56 131.329 286.32C131.937 286.064 132.577 285.936 133.249 285.936C134.721 285.936 135.905 286.448 136.801 287.472C137.697 288.496 138.145 289.816 138.145 291.432C138.145 293.112 137.617 294.504 136.561 295.608C135.505 296.712 134.129 297.264 132.433 297.264C131.361 297.264 130.521 297.088 129.913 296.736V301.8H127.153ZM132.385 288.528C131.441 288.528 130.617 288.92 129.913 289.704V294.072C130.553 294.488 131.313 294.696 132.193 294.696C133.121 294.696 133.857 294.4 134.401 293.808C134.945 293.2 135.217 292.432 135.217 291.504C135.217 290.624 134.969 289.912 134.473 289.368C133.977 288.808 133.281 288.528 132.385 288.528ZM138.986 288.96V286.2H148.826V288.96H145.298V297H142.538V288.96H138.986ZM156.824 295.68C155.752 294.608 155.216 293.248 155.216 291.6C155.216 289.952 155.752 288.6 156.824 287.544C157.912 286.472 159.336 285.936 161.096 285.936C162.856 285.936 164.272 286.472 165.344 287.544C166.432 288.6 166.976 289.952 166.976 291.6C166.976 293.248 166.432 294.608 165.344 295.68C164.272 296.736 162.856 297.264 161.096 297.264C159.336 297.264 157.912 296.736 156.824 295.68ZM158.168 291.6C158.168 292.496 158.44 293.24 158.984 293.832C159.544 294.408 160.248 294.696 161.096 294.696C161.96 294.696 162.664 294.416 163.208 293.856C163.768 293.28 164.048 292.528 164.048 291.6C164.048 290.704 163.768 289.968 163.208 289.392C162.648 288.816 161.944 288.528 161.096 288.528C160.264 288.528 159.568 288.816 159.008 289.392C158.448 289.952 158.168 290.688 158.168 291.6ZM167.814 288.96V286.2H177.654V288.96H174.126V297H171.366V288.96H167.814ZM183.446 297.264C182.502 297.264 181.582 297.096 180.686 296.76C179.79 296.408 179.142 295.976 178.742 295.464L180.158 293.736C180.478 294.104 180.934 294.416 181.526 294.672C182.134 294.928 182.694 295.056 183.206 295.056C183.91 295.056 184.454 294.936 184.838 294.696C185.222 294.456 185.414 294.136 185.414 293.736C185.414 293.368 185.27 293.072 184.982 292.848C184.694 292.624 184.294 292.512 183.782 292.512H181.766V290.664H183.662C184.094 290.664 184.438 290.536 184.694 290.28C184.966 290.024 185.102 289.712 185.102 289.344C185.102 288.56 184.47 288.168 183.206 288.168C182.214 288.168 181.23 288.584 180.254 289.416L179.102 287.76C180.142 286.544 181.686 285.936 183.734 285.936C185.142 285.936 186.214 286.208 186.95 286.752C187.686 287.296 188.054 288.048 188.054 289.008C188.054 289.536 187.878 290.016 187.526 290.448C187.174 290.88 186.686 291.2 186.062 291.408V291.456C186.798 291.6 187.358 291.904 187.742 292.368C188.142 292.816 188.342 293.36 188.342 294C188.342 295.008 187.894 295.808 186.998 296.4C186.102 296.976 184.918 297.264 183.446 297.264ZM190.95 297V286.2H193.71V289.152H195.054C196.75 289.152 197.966 289.504 198.702 290.208C199.438 290.912 199.806 291.808 199.806 292.896C199.806 294.064 199.406 295.04 198.606 295.824C197.806 296.608 196.55 297 194.838 297H190.95ZM201.342 297V286.2H204.102V297H201.342ZM194.814 291.36H193.71V294.6H194.79C196.182 294.6 196.878 294.064 196.878 292.992C196.878 291.904 196.19 291.36 194.814 291.36ZM207.169 297V286.2C207.361 286.2 207.713 286.192 208.225 286.176C208.753 286.144 209.289 286.12 209.833 286.104C210.393 286.088 210.921 286.08 211.417 286.08C214.681 286.08 216.313 287.024 216.313 288.912C216.313 289.536 216.113 290.072 215.713 290.52C215.329 290.968 214.857 291.232 214.297 291.312V291.36C215.833 291.728 216.601 292.56 216.601 293.856C216.601 296.032 214.889 297.12 211.465 297.12C210.985 297.12 210.225 297.096 209.185 297.048C208.145 297.016 207.473 297 207.169 297ZM211.657 292.416H209.929V294.816C211.017 294.88 211.625 294.912 211.753 294.912C212.361 294.912 212.833 294.8 213.169 294.576C213.521 294.352 213.697 294.048 213.697 293.664C213.697 292.832 213.017 292.416 211.657 292.416ZM211.657 288.312C210.889 288.312 210.313 288.328 209.929 288.36V290.736H211.729C212.209 290.736 212.601 290.632 212.905 290.424C213.225 290.2 213.385 289.888 213.385 289.488C213.385 288.704 212.809 288.312 211.657 288.312ZM220.152 295.68C219.08 294.608 218.544 293.248 218.544 291.6C218.544 289.952 219.08 288.6 220.152 287.544C221.24 286.472 222.664 285.936 224.424 285.936C226.184 285.936 227.6 286.472 228.672 287.544C229.76 288.6 230.304 289.952 230.304 291.6C230.304 293.248 229.76 294.608 228.672 295.68C227.6 296.736 226.184 297.264 224.424 297.264C222.664 297.264 221.24 296.736 220.152 295.68ZM221.496 291.6C221.496 292.496 221.768 293.24 222.312 293.832C222.872 294.408 223.576 294.696 224.424 294.696C225.288 294.696 225.992 294.416 226.536 293.856C227.096 293.28 227.376 292.528 227.376 291.6C227.376 290.704 227.096 289.968 226.536 289.392C225.976 288.816 225.272 288.528 224.424 288.528C223.592 288.528 222.896 288.816 222.336 289.392C221.776 289.952 221.496 290.688 221.496 291.6ZM232.692 297V286.2C232.884 286.2 233.236 286.192 233.748 286.176C234.276 286.144 234.812 286.12 235.356 286.104C235.916 286.088 236.444 286.08 236.94 286.08C240.204 286.08 241.836 287.024 241.836 288.912C241.836 289.536 241.636 290.072 241.236 290.52C240.852 290.968 240.38 291.232 239.82 291.312V291.36C241.356 291.728 242.124 292.56 242.124 293.856C242.124 296.032 240.412 297.12 236.988 297.12C236.508 297.12 235.748 297.096 234.708 297.048C233.668 297.016 232.996 297 232.692 297ZM237.18 292.416H235.452V294.816C236.54 294.88 237.148 294.912 237.276 294.912C237.884 294.912 238.356 294.8 238.692 294.576C239.044 294.352 239.22 294.048 239.22 293.664C239.22 292.832 238.54 292.416 237.18 292.416ZM237.18 288.312C236.412 288.312 235.836 288.328 235.452 288.36V290.736H237.252C237.732 290.736 238.124 290.632 238.428 290.424C238.748 290.2 238.908 289.888 238.908 289.488C238.908 288.704 238.332 288.312 237.18 288.312Z" fill="white"/>
<rect x="1.5" y="254.5" width="305" height="72" rx="6.5" stroke="#F76D09" stroke-width="3"/>
<path d="M71.7559 417H69.1639V400.2H72.1159V412.152L80.9239 400.2H83.5159V417H80.5639V405.072L71.7559 417ZM87.3798 417V406.2H89.8758L93.5478 410.712L97.0278 406.2H99.4518V417H96.6918V410.4L93.4998 414.432H93.4278L90.1398 410.4V417H87.3798ZM109.888 417V408.792H105.28V417H102.52V406.2H112.648V417H109.888ZM116.652 415.68C115.58 414.608 115.044 413.248 115.044 411.6C115.044 409.952 115.58 408.6 116.652 407.544C117.74 406.472 119.164 405.936 120.924 405.936C122.684 405.936 124.1 406.472 125.172 407.544C126.26 408.6 126.804 409.952 126.804 411.6C126.804 413.248 126.26 414.608 125.172 415.68C124.1 416.736 122.684 417.264 120.924 417.264C119.164 417.264 117.74 416.736 116.652 415.68ZM117.996 411.6C117.996 412.496 118.268 413.24 118.812 413.832C119.372 414.408 120.076 414.696 120.924 414.696C121.788 414.696 122.492 414.416 123.036 413.856C123.596 413.28 123.876 412.528 123.876 411.6C123.876 410.704 123.596 409.968 123.036 409.392C122.476 408.816 121.772 408.528 120.924 408.528C120.092 408.528 119.396 408.816 118.836 409.392C118.276 409.952 117.996 410.688 117.996 411.6ZM129.192 421.8V406.2H131.952V407.232C132.304 406.864 132.776 406.56 133.368 406.32C133.976 406.064 134.616 405.936 135.288 405.936C136.76 405.936 137.944 406.448 138.84 407.472C139.736 408.496 140.184 409.816 140.184 411.432C140.184 413.112 139.656 414.504 138.6 415.608C137.544 416.712 136.168 417.264 134.472 417.264C133.4 417.264 132.56 417.088 131.952 416.736V421.8H129.192ZM134.424 408.528C133.48 408.528 132.656 408.92 131.952 409.704V414.072C132.592 414.488 133.352 414.696 134.232 414.696C135.16 414.696 135.896 414.4 136.44 413.808C136.984 413.2 137.256 412.432 137.256 411.504C137.256 410.624 137.008 409.912 136.512 409.368C136.016 408.808 135.32 408.528 134.424 408.528ZM141.025 408.96V406.2H150.865V408.96H147.337V417H144.577V408.96H141.025ZM157.831 402.96V400.2H170.599V402.24L161.287 414.24H170.839V417H157.351V414.984L166.639 402.96H157.831ZM173.347 415.68C172.275 414.608 171.739 413.248 171.739 411.6C171.739 409.952 172.275 408.6 173.347 407.544C174.435 406.472 175.859 405.936 177.619 405.936C179.379 405.936 180.795 406.472 181.867 407.544C182.955 408.6 183.499 409.952 183.499 411.6C183.499 413.248 182.955 414.608 181.867 415.68C180.795 416.736 179.379 417.264 177.619 417.264C175.859 417.264 174.435 416.736 173.347 415.68ZM174.691 411.6C174.691 412.496 174.963 413.24 175.507 413.832C176.067 414.408 176.771 414.696 177.619 414.696C178.483 414.696 179.187 414.416 179.731 413.856C180.291 413.28 180.571 412.528 180.571 411.6C180.571 410.704 180.291 409.968 179.731 409.392C179.171 408.816 178.467 408.528 177.619 408.528C176.787 408.528 176.091 408.816 175.531 409.392C174.971 409.952 174.691 410.688 174.691 411.6ZM186.824 415.68C185.752 414.608 185.216 413.248 185.216 411.6C185.216 409.952 185.752 408.6 186.824 407.544C187.912 406.472 189.336 405.936 191.096 405.936C192.856 405.936 194.272 406.472 195.344 407.544C196.432 408.6 196.976 409.952 196.976 411.6C196.976 413.248 196.432 414.608 195.344 415.68C194.272 416.736 192.856 417.264 191.096 417.264C189.336 417.264 187.912 416.736 186.824 415.68ZM188.168 411.6C188.168 412.496 188.44 413.24 188.984 413.832C189.544 414.408 190.248 414.696 191.096 414.696C191.96 414.696 192.664 414.416 193.208 413.856C193.768 413.28 194.048 412.528 194.048 411.6C194.048 410.704 193.768 409.968 193.208 409.392C192.648 408.816 191.944 408.528 191.096 408.528C190.264 408.528 189.568 408.816 189.008 409.392C188.448 409.952 188.168 410.688 188.168 411.6ZM215.756 409.944V417H212.996V410.664C212.996 409.288 212.38 408.6 211.148 408.6C210.092 408.6 209.348 409.016 208.916 409.848C208.916 409.896 208.916 410.024 208.916 410.232C208.932 410.424 208.94 410.56 208.94 410.64V417H206.18V410.472C206.18 409.896 206.02 409.44 205.7 409.104C205.396 408.768 204.956 408.6 204.38 408.6C203.388 408.6 202.636 408.984 202.124 409.752V417H199.364V406.2H202.124V407.4C202.956 406.472 204.084 406.008 205.508 406.008C206.308 406.008 206.98 406.168 207.524 406.488C208.068 406.808 208.444 407.224 208.652 407.736C209.532 406.584 210.748 406.008 212.3 406.008C214.604 406.008 215.756 407.32 215.756 409.944ZM219.495 415.68C218.423 414.608 217.887 413.248 217.887 411.6C217.887 409.952 218.423 408.6 219.495 407.544C220.583 406.472 222.007 405.936 223.767 405.936C225.527 405.936 226.943 406.472 228.015 407.544C229.103 408.6 229.647 409.952 229.647 411.6C229.647 413.248 229.103 414.608 228.015 415.68C226.943 416.736 225.527 417.264 223.767 417.264C222.007 417.264 220.583 416.736 219.495 415.68ZM220.839 411.6C220.839 412.496 221.111 413.24 221.655 413.832C222.215 414.408 222.919 414.696 223.767 414.696C224.631 414.696 225.335 414.416 225.879 413.856C226.439 413.28 226.719 412.528 226.719 411.6C226.719 410.704 226.439 409.968 225.879 409.392C225.319 408.816 224.615 408.528 223.767 408.528C222.935 408.528 222.239 408.816 221.679 409.392C221.119 409.952 220.839 410.688 220.839 411.6ZM237.1 414.696C237.372 414.52 237.508 414.272 237.508 413.952C237.508 413.632 237.308 413.376 236.908 413.184C236.508 412.976 236.02 412.8 235.444 412.656C234.884 412.496 234.316 412.312 233.74 412.104C233.164 411.88 232.676 411.528 232.276 411.048C231.876 410.568 231.676 409.96 231.676 409.224C231.676 408.2 232.044 407.4 232.78 406.824C233.532 406.232 234.484 405.936 235.636 405.936C237.396 405.936 238.764 406.392 239.74 407.304L238.708 409.272C237.828 408.584 236.852 408.24 235.78 408.24C235.38 408.24 235.052 408.336 234.796 408.528C234.556 408.704 234.436 408.92 234.436 409.176C234.436 409.496 234.636 409.76 235.036 409.968C235.436 410.176 235.916 410.352 236.476 410.496C237.052 410.64 237.628 410.816 238.204 411.024C238.78 411.232 239.268 411.576 239.668 412.056C240.068 412.52 240.268 413.104 240.268 413.808C240.268 414.864 239.868 415.704 239.068 416.328C238.284 416.952 237.228 417.264 235.9 417.264C234.972 417.264 234.052 417.064 233.14 416.664C232.244 416.264 231.66 415.848 231.388 415.416L232.732 413.616C233.052 413.968 233.556 414.28 234.244 414.552C234.932 414.824 235.548 414.96 236.092 414.96C236.508 414.96 236.844 414.872 237.1 414.696Z" fill="#C5CDCF"/>
<rect x="1.5" y="374.5" width="305" height="72" rx="6.5" stroke="#F76D09" stroke-width="3"/>
<path d="M323 48H379C390.046 48 399 56.9543 399 68V138.75V184.125M323 411H379C390.046 411 399 402.046 399 391V320.25V274.875" stroke="#C5CDCF" stroke-width="2"/>
<path d="M317 296.5H379C390.046 296.5 399 287.546 399 276.5V272.75V269" stroke="#C5CDCF" stroke-width="2"/>
<path d="M323 171H379C390.046 171 399 179.954 399 191V210" stroke="#C5CDCF" stroke-width="2"/>
<path d="M340.001 385.32L339.421 383.64C340.395 383.067 341.455 382.78 342.601 382.78C343.881 382.78 344.801 383.093 345.361 383.72C345.921 384.347 346.201 385.28 346.201 386.52V392H344.201V390.96C343.655 391.733 342.768 392.12 341.541 392.12C340.701 392.12 340.021 391.873 339.501 391.38C338.981 390.887 338.721 390.213 338.721 389.36C338.721 388.413 339.028 387.693 339.641 387.2C340.255 386.693 341.041 386.44 342.001 386.44C342.828 386.44 343.508 386.633 344.041 387.02C344.068 386.233 343.955 385.653 343.701 385.28C343.448 384.893 343.001 384.7 342.361 384.7C341.695 384.7 340.908 384.907 340.001 385.32ZM342.301 390.18C343.075 390.18 343.655 389.907 344.041 389.36V388.44C343.655 388.147 343.128 388 342.461 388C342.048 388 341.701 388.1 341.421 388.3C341.155 388.487 341.021 388.76 341.021 389.12C341.021 389.453 341.141 389.713 341.381 389.9C341.621 390.087 341.928 390.18 342.301 390.18ZM348.559 396V383H350.859V383.86C351.153 383.553 351.546 383.3 352.039 383.1C352.546 382.887 353.079 382.78 353.639 382.78C354.866 382.78 355.853 383.207 356.599 384.06C357.346 384.913 357.719 386.013 357.719 387.36C357.719 388.76 357.279 389.92 356.399 390.84C355.519 391.76 354.373 392.22 352.959 392.22C352.066 392.22 351.366 392.073 350.859 391.78V396H348.559ZM352.919 384.94C352.133 384.94 351.446 385.267 350.859 385.92V389.56C351.393 389.907 352.026 390.08 352.759 390.08C353.533 390.08 354.146 389.833 354.599 389.34C355.053 388.833 355.279 388.193 355.279 387.42C355.279 386.687 355.073 386.093 354.659 385.64C354.246 385.173 353.666 384.94 352.919 384.94ZM360.052 392V383H362.352V392H360.052ZM359.812 379.76C359.812 379.36 359.952 379.04 360.232 378.8C360.512 378.547 360.852 378.42 361.252 378.42C361.598 378.42 361.905 378.547 362.172 378.8C362.438 379.04 362.572 379.36 362.572 379.76C362.572 380.2 362.438 380.553 362.172 380.82C361.905 381.073 361.598 381.2 361.252 381.2C360.838 381.2 360.492 381.073 360.212 380.82C359.945 380.553 359.812 380.2 359.812 379.76Z" fill="white"/>
<path d="M346.469 280.98L347.549 282.66C347.176 283.167 346.669 283.553 346.029 283.82C345.402 284.087 344.716 284.22 343.969 284.22C342.502 284.22 341.322 283.787 340.429 282.92C339.536 282.053 339.089 280.913 339.089 279.5C339.089 278.167 339.529 277.047 340.409 276.14C341.289 275.233 342.402 274.78 343.749 274.78C345.349 274.78 346.556 275.187 347.369 276L346.289 277.82C345.689 277.233 344.942 276.94 344.049 276.94C343.382 276.94 342.796 277.18 342.289 277.66C341.796 278.127 341.549 278.74 341.549 279.5C341.549 280.273 341.802 280.9 342.309 281.38C342.829 281.847 343.442 282.08 344.149 282.08C345.029 282.08 345.802 281.713 346.469 280.98ZM353.615 282.08C353.842 281.933 353.955 281.727 353.955 281.46C353.955 281.193 353.789 280.98 353.455 280.82C353.122 280.647 352.715 280.5 352.235 280.38C351.769 280.247 351.295 280.093 350.815 279.92C350.335 279.733 349.929 279.44 349.595 279.04C349.262 278.64 349.095 278.133 349.095 277.52C349.095 276.667 349.402 276 350.015 275.52C350.642 275.027 351.435 274.78 352.395 274.78C353.862 274.78 355.002 275.16 355.815 275.92L354.955 277.56C354.222 276.987 353.409 276.7 352.515 276.7C352.182 276.7 351.909 276.78 351.695 276.94C351.495 277.087 351.395 277.267 351.395 277.48C351.395 277.747 351.562 277.967 351.895 278.14C352.229 278.313 352.629 278.46 353.095 278.58C353.575 278.7 354.055 278.847 354.535 279.02C355.015 279.193 355.422 279.48 355.755 279.88C356.089 280.267 356.255 280.753 356.255 281.34C356.255 282.22 355.922 282.92 355.255 283.44C354.602 283.96 353.722 284.22 352.615 284.22C351.842 284.22 351.075 284.053 350.315 283.72C349.569 283.387 349.082 283.04 348.855 282.68L349.975 281.18C350.242 281.473 350.662 281.733 351.235 281.96C351.809 282.187 352.322 282.3 352.775 282.3C353.122 282.3 353.402 282.227 353.615 282.08ZM366.662 275L362.782 284.04H361.082L356.942 275H359.682L361.342 278.86C361.635 279.513 361.862 280.193 362.022 280.9C362.195 280.153 362.415 279.46 362.682 278.82L364.242 275H366.662Z" fill="white"/>
<path d="M348.169 29L345.169 33.3L348.369 38H345.569L343.469 34.76L341.289 38H338.629L341.829 33.42L338.829 29H341.649L343.549 31.98L345.509 29H348.169ZM363.678 32.12V38H361.378V32.72C361.378 31.5733 360.865 31 359.838 31C358.958 31 358.338 31.3467 357.978 32.04C357.978 32.08 357.978 32.1867 357.978 32.36C357.992 32.52 357.998 32.6333 357.998 32.7V38H355.698V32.56C355.698 32.08 355.565 31.7 355.298 31.42C355.045 31.14 354.678 31 354.198 31C353.372 31 352.745 31.32 352.318 31.96V38H350.018V29H352.318V30C353.012 29.2267 353.952 28.84 355.138 28.84C355.805 28.84 356.365 28.9733 356.818 29.24C357.272 29.5067 357.585 29.8533 357.758 30.28C358.492 29.32 359.505 28.84 360.798 28.84C362.718 28.84 363.678 29.9333 363.678 32.12ZM366.014 35.52V24H368.314V34.58C368.314 35.5533 368.574 36.04 369.094 36.04C369.388 36.04 369.701 35.92 370.034 35.68L370.514 37.44C369.888 37.9467 369.094 38.2 368.134 38.2C366.721 38.2 366.014 37.3067 366.014 35.52Z" fill="white"/>
<path d="M614 231L604 225.226V236.774L614 231ZM419 232H605V230H419V232ZM400 211V178.5H398V211H400ZM419 230C408.507 230 400 221.493 400 211H398C398 222.598 407.402 232 419 232V230Z" fill="#C5CDCF"/>
<path d="M399 270.5V251C399 239.954 407.954 231 419 231H440.5" stroke="#C5CDCF" stroke-width="2"/>
<path d="M866.1 337.98L867.18 339.66C866.807 340.167 866.3 340.553 865.66 340.82C865.033 341.087 864.347 341.22 863.6 341.22C862.133 341.22 860.953 340.787 860.06 339.92C859.167 339.053 858.72 337.913 858.72 336.5C858.72 335.167 859.16 334.047 860.04 333.14C860.92 332.233 862.033 331.78 863.38 331.78C864.98 331.78 866.187 332.187 867 333L865.92 334.82C865.32 334.233 864.573 333.94 863.68 333.94C863.013 333.94 862.427 334.18 861.92 334.66C861.427 335.127 861.18 335.74 861.18 336.5C861.18 337.273 861.433 337.9 861.94 338.38C862.46 338.847 863.073 339.08 863.78 339.08C864.66 339.08 865.433 338.713 866.1 337.98ZM873.246 339.08C873.473 338.933 873.586 338.727 873.586 338.46C873.586 338.193 873.419 337.98 873.086 337.82C872.753 337.647 872.346 337.5 871.866 337.38C871.399 337.247 870.926 337.093 870.446 336.92C869.966 336.733 869.559 336.44 869.226 336.04C868.893 335.64 868.726 335.133 868.726 334.52C868.726 333.667 869.033 333 869.646 332.52C870.273 332.027 871.066 331.78 872.026 331.78C873.493 331.78 874.633 332.16 875.446 332.92L874.586 334.56C873.853 333.987 873.039 333.7 872.146 333.7C871.813 333.7 871.539 333.78 871.326 333.94C871.126 334.087 871.026 334.267 871.026 334.48C871.026 334.747 871.193 334.967 871.526 335.14C871.859 335.313 872.259 335.46 872.726 335.58C873.206 335.7 873.686 335.847 874.166 336.02C874.646 336.193 875.053 336.48 875.386 336.88C875.719 337.267 875.886 337.753 875.886 338.34C875.886 339.22 875.553 339.92 874.886 340.44C874.233 340.96 873.353 341.22 872.246 341.22C871.473 341.22 870.706 341.053 869.946 340.72C869.199 340.387 868.713 340.04 868.486 339.68L869.606 338.18C869.873 338.473 870.293 338.733 870.866 338.96C871.439 339.187 871.953 339.3 872.406 339.3C872.753 339.3 873.033 339.227 873.246 339.08ZM886.293 332L882.413 341.04H880.713L876.573 332H879.313L880.973 335.86C881.266 336.513 881.493 337.193 881.653 337.9C881.826 337.153 882.046 336.46 882.313 335.82L883.873 332H886.293Z" fill="white"/>
<path d="M838 300L832.226 310H843.774L838 300ZM839 370V309H837V370H839Z" fill="#C5CDCF"/>
<path d="M872.94 125.12V131H870.64V125.72C870.64 124.573 870.127 124 869.1 124C868.22 124 867.6 124.347 867.24 125.04C867.24 125.08 867.24 125.187 867.24 125.36C867.253 125.52 867.26 125.633 867.26 125.7V131H864.96V125.56C864.96 125.08 864.827 124.7 864.56 124.42C864.307 124.14 863.94 124 863.46 124C862.633 124 862.007 124.32 861.58 124.96V131H859.28V122H861.58V123C862.273 122.227 863.213 121.84 864.4 121.84C865.067 121.84 865.627 121.973 866.08 122.24C866.533 122.507 866.847 122.853 867.02 123.28C867.753 122.32 868.767 121.84 870.06 121.84C871.98 121.84 872.94 122.933 872.94 125.12ZM883.956 122L880.416 131C879.776 132.56 879.203 133.613 878.696 134.16C878.203 134.72 877.616 135 876.936 135C876.283 135 875.636 134.767 874.996 134.3L875.736 132.56C876.096 132.773 876.409 132.88 876.676 132.88C877.223 132.88 877.683 132.413 878.056 131.48L878.256 131L874.096 122H876.856L878.956 126.92C879.036 127.12 879.183 127.553 879.396 128.22C879.503 127.633 879.609 127.193 879.716 126.9L881.336 122H883.956ZM891.615 127.28C891.615 126.907 891.495 126.58 891.255 126.3C891.028 126.007 890.728 125.76 890.355 125.56C889.981 125.347 889.568 125.147 889.115 124.96C888.675 124.76 888.228 124.54 887.775 124.3C887.321 124.047 886.908 123.773 886.535 123.48C886.161 123.173 885.855 122.78 885.615 122.3C885.388 121.807 885.275 121.253 885.275 120.64C885.275 119.547 885.668 118.633 886.455 117.9C887.255 117.153 888.315 116.78 889.635 116.78C891.395 116.78 892.728 117.28 893.635 118.28L892.315 120.12C891.595 119.427 890.768 119.08 889.835 119.08C889.235 119.08 888.755 119.22 888.395 119.5C888.048 119.78 887.875 120.153 887.875 120.62C887.875 121.073 888.028 121.467 888.335 121.8C888.655 122.133 889.048 122.4 889.515 122.6C889.981 122.787 890.488 123.013 891.035 123.28C891.595 123.547 892.108 123.827 892.575 124.12C893.041 124.4 893.428 124.813 893.735 125.36C894.055 125.893 894.215 126.527 894.215 127.26C894.215 128.42 893.768 129.373 892.875 130.12C891.981 130.853 890.868 131.22 889.535 131.22C888.575 131.22 887.648 131.027 886.755 130.64C885.875 130.24 885.275 129.7 884.955 129.02L886.355 127.34C886.741 127.847 887.228 128.24 887.815 128.52C888.415 128.787 889.001 128.92 889.575 128.92C890.175 128.92 890.661 128.78 891.035 128.5C891.421 128.207 891.615 127.8 891.615 127.28ZM896.009 124C896.009 121.947 896.689 120.233 898.049 118.86C899.423 117.473 901.169 116.78 903.289 116.78C905.396 116.78 907.136 117.447 908.509 118.78C909.896 120.113 910.589 121.853 910.589 124C910.589 125.987 909.949 127.653 908.669 129L910.389 131H907.529L906.949 130.34C905.883 130.927 904.663 131.22 903.289 131.22C901.183 131.22 899.443 130.553 898.069 129.22C896.696 127.887 896.009 126.147 896.009 124ZM898.609 124C898.609 125.4 899.056 126.573 899.949 127.52C900.856 128.453 901.969 128.92 903.289 128.92C904.036 128.92 904.736 128.773 905.389 128.48L904.209 127.1L905.809 125.66L907.049 127.12C907.676 126.24 907.989 125.2 907.989 124C907.989 122.56 907.536 121.38 906.629 120.46C905.736 119.54 904.623 119.08 903.289 119.08C901.943 119.08 900.823 119.54 899.929 120.46C899.049 121.38 898.609 122.56 898.609 124ZM913.436 131V117H915.896V128.7H922.196V131H913.436ZM923.4 126.6V124.46H928.44V126.6H923.4ZM930.332 124.3V122H938.532V124.3H935.592V131H933.292V124.3H930.332ZM940.878 124.32L940.298 122.64C941.272 122.067 942.332 121.78 943.478 121.78C944.758 121.78 945.678 122.093 946.238 122.72C946.798 123.347 947.078 124.28 947.078 125.52V131H945.078V129.96C944.532 130.733 943.645 131.12 942.418 131.12C941.578 131.12 940.898 130.873 940.378 130.38C939.858 129.887 939.598 129.213 939.598 128.36C939.598 127.413 939.905 126.693 940.518 126.2C941.132 125.693 941.918 125.44 942.878 125.44C943.705 125.44 944.385 125.633 944.918 126.02C944.945 125.233 944.832 124.653 944.578 124.28C944.325 123.893 943.878 123.7 943.238 123.7C942.572 123.7 941.785 123.907 940.878 124.32ZM943.178 129.18C943.952 129.18 944.532 128.907 944.918 128.36V127.44C944.532 127.147 944.005 127 943.338 127C942.925 127 942.578 127.1 942.298 127.3C942.032 127.487 941.898 127.76 941.898 128.12C941.898 128.453 942.018 128.713 942.258 128.9C942.498 129.087 942.805 129.18 943.178 129.18ZM956.196 116.78L957.396 118.66C957.05 119.073 956.65 119.367 956.196 119.54C955.743 119.7 955.21 119.847 954.596 119.98C953.996 120.1 953.476 120.267 953.036 120.48C951.916 121 951.27 122.12 951.096 123.84H951.136C951.416 123.347 951.85 122.947 952.436 122.64C953.023 122.32 953.643 122.16 954.296 122.16C955.536 122.16 956.53 122.56 957.276 123.36C958.023 124.16 958.396 125.233 958.396 126.58C958.396 127.873 957.956 128.973 957.076 129.88C956.196 130.773 955.063 131.22 953.676 131.22C952.17 131.22 950.976 130.707 950.096 129.68C949.23 128.653 948.796 127.267 948.796 125.52C948.796 121.667 949.93 119.253 952.196 118.28C952.703 118.067 953.25 117.907 953.836 117.8C954.423 117.68 954.89 117.56 955.236 117.44C955.596 117.32 955.916 117.1 956.196 116.78ZM951.256 126C951.27 126.893 951.49 127.633 951.916 128.22C952.343 128.793 952.91 129.08 953.616 129.08C954.323 129.08 954.883 128.853 955.296 128.4C955.723 127.933 955.936 127.36 955.936 126.68C955.936 125.987 955.743 125.42 955.356 124.98C954.97 124.527 954.423 124.3 953.716 124.3C953.103 124.3 952.576 124.46 952.136 124.78C951.71 125.1 951.416 125.507 951.256 126ZM966.02 131V124.3H963.64L963.58 125.26C963.434 126.873 963.187 128.113 962.84 128.98C962.507 129.847 962.08 130.433 961.56 130.74C961.054 131.033 960.374 131.18 959.52 131.18L959.32 128.94C959.614 128.967 959.887 128.887 960.14 128.7C960.407 128.5 960.66 128.073 960.9 127.42C961.14 126.753 961.294 125.88 961.36 124.8L961.5 122H968.32V131H966.02ZM973.182 131H970.882V122H973.182V127.7L977.382 122H979.682V131H977.382V125.3L973.182 131ZM982.249 131V122H984.549V128.86H988.249V122H990.549V128.86H992.049V133.1H989.889V131H982.249ZM993.577 131V122H995.877V124.46H996.997C998.41 124.46 999.424 124.753 1000.04 125.34C1000.65 125.927 1000.96 126.673 1000.96 127.58C1000.96 128.553 1000.62 129.367 999.957 130.02C999.29 130.673 998.244 131 996.817 131H993.577ZM1002.24 131V122H1004.54V131H1002.24ZM996.797 126.3H995.877V129H996.777C997.937 129 998.517 128.553 998.517 127.66C998.517 126.753 997.944 126.3 996.797 126.3Z" fill="white"/>
<path d="M838 90L832.226 100H843.774L838 90ZM839 160V99H837V160H839Z" fill="#C5CDCF"/>
<path d="M1157 230L1147 224.226V235.774L1157 230ZM1057 231H1148V229H1057V231Z" fill="#C5CDCF"/>
<path d="M1371 173L1376.77 163H1365.23L1371 173ZM1059 38H1351V36H1059V38ZM1370 57V164H1372V57H1370ZM1351 38C1361.49 38 1370 46.5066 1370 57H1372C1372 45.402 1362.6 36 1351 36V38Z" fill="#C5CDCF"/>
</svg>
