<svg width="1207" height="328" viewBox="0 0 1207 328" fill="none" xmlns="http://www.w3.org/2000/svg">
<path d="M499.207 174.707C499.598 174.317 499.598 173.683 499.207 173.293L492.843 166.929C492.453 166.538 491.819 166.538 491.429 166.929C491.038 167.319 491.038 167.953 491.429 168.343L497.086 174L491.429 179.657C491.038 180.047 491.038 180.681 491.429 181.071C491.819 181.462 492.453 181.462 492.843 181.071L499.207 174.707ZM385 175L498.5 175L498.5 173L385 173L385 175Z" fill="#E4002B"/>
<path d="M632.293 232.457C632.683 232.848 633.317 232.848 633.707 232.457L640.071 226.093C640.462 225.703 640.462 225.069 640.071 224.679C639.681 224.288 639.047 224.288 638.657 224.679L633 230.336L627.343 224.679C626.953 224.288 626.319 224.288 625.929 224.679C625.538 225.069 625.538 225.703 625.929 226.093L632.293 232.457ZM632 212L632 231.75L634 231.75L634 212L632 212Z" fill="#E4002B"/>
<path d="M384.293 33.2929C383.902 33.6834 383.902 34.3166 384.293 34.7071L390.657 41.071C391.047 41.4616 391.681 41.4616 392.071 41.071C392.462 40.6805 392.462 40.0474 392.071 39.6568L386.414 34L392.071 28.3431C392.462 27.9526 392.462 27.3194 392.071 26.9289C391.681 26.5384 391.047 26.5384 390.657 26.9289L384.293 33.2929ZM498.5 32.9998L385 33L385 35L498.5 34.9998L498.5 32.9998Z" fill="#E4002B"/>
<path d="M882.207 174.707C882.598 174.317 882.598 173.683 882.207 173.293L875.843 166.929C875.453 166.538 874.819 166.538 874.429 166.929C874.038 167.319 874.038 167.953 874.429 168.343L880.086 174L874.429 179.657C874.038 180.047 874.038 180.681 874.429 181.071C874.819 181.462 875.453 181.462 875.843 181.071L882.207 174.707ZM768 175L881.5 175L881.5 173L768 173L768 175Z" fill="#E4002B"/>
<path d="M824.75 276.001L825.75 276.001L824.75 276.001ZM832.75 284.001L832.75 285.001L832.75 284.001ZM882.207 284.708C882.598 284.317 882.598 283.684 882.207 283.293L875.843 276.929C875.453 276.539 874.819 276.539 874.429 276.929C874.038 277.32 874.038 277.953 874.429 278.344L880.086 284L874.429 289.657C874.038 290.048 874.038 290.681 874.429 291.072C874.819 291.462 875.453 291.462 875.843 291.072L882.207 284.708ZM823.75 180L823.75 276.001L825.75 276.001L825.75 180L823.75 180ZM832.75 285.001L881.5 285L881.5 283L832.75 283.001L832.75 285.001ZM823.75 276.001C823.75 280.971 827.779 285.001 832.75 285.001L832.75 283.001C828.884 283.001 825.75 279.867 825.75 276.001L823.75 276.001Z" fill="#E4002B"/>
<path d="M824.75 76.0001L823.75 76.0001L824.75 76.0001ZM832.75 68.0001L832.75 69.0001L832.75 68.0001ZM882.207 68.7071C882.598 68.3166 882.598 67.6834 882.207 67.2929L875.843 60.9289C875.453 60.5384 874.819 60.5384 874.429 60.929C874.038 61.3195 874.038 61.9526 874.429 62.3432L880.086 68L874.429 73.6569C874.038 74.0474 874.038 74.6806 874.429 75.0711C874.819 75.4616 875.453 75.4616 875.843 75.0711L882.207 68.7071ZM825.75 169L825.75 76.0001L823.75 76.0001L823.75 169L825.75 169ZM832.75 69.0001L881.5 69L881.5 67L832.75 67.0001L832.75 69.0001ZM825.75 76.0001C825.75 72.1341 828.884 69.0001 832.75 69.0001L832.75 67.0001C827.779 67.0001 823.75 71.0295 823.75 76.0001L825.75 76.0001Z" fill="#E4002B"/>
<path d="M624 51.125L624 50.125L624 51.125ZM632 59.125L631 59.125L632 59.125ZM631.293 108.582C631.683 108.973 632.317 108.973 632.707 108.582L639.071 102.218C639.462 101.828 639.462 101.194 639.071 100.804C638.681 100.413 638.047 100.413 637.657 100.804L632 106.461L626.343 100.804C625.953 100.413 625.319 100.413 624.929 100.804C624.538 101.194 624.538 101.828 624.929 102.218L631.293 108.582ZM386 52.125L624 52.125L624 50.125L386 50.125L386 52.125ZM631 59.125L631 107.875L633 107.875L633 59.125L631 59.125ZM624 52.125C627.866 52.125 631 55.259 631 59.125L633 59.125C633 54.1544 628.97 50.125 624 50.125L624 52.125Z" fill="#E4002B"/>
<rect x="539" y="129" width="188" height="89" rx="8" fill="#F6F4F2"/>
<path d="M589.664 180V163.2H598.928V164.448H590.984V170.136C591.96 170.04 592.904 169.992 593.816 169.992C595.752 169.992 597.24 170.416 598.28 171.264C599.336 172.112 599.864 173.304 599.864 174.84C599.864 176.52 599.304 177.816 598.184 178.728C597.064 179.624 595.48 180.072 593.432 180.072C593.16 180.072 592.464 180.056 591.344 180.024C590.784 180.008 590.224 180 589.664 180ZM593.768 171.24C592.744 171.24 591.816 171.288 590.984 171.384V178.752C592.568 178.8 593.448 178.824 593.624 178.824C595.24 178.824 596.464 178.488 597.296 177.816C598.128 177.144 598.544 176.176 598.544 174.912C598.544 173.744 598.136 172.84 597.32 172.2C596.504 171.56 595.32 171.24 593.768 171.24ZM611.992 171L604.792 180H603.544V169.2H604.792V178.2L611.992 169.2H613.24V180H611.992V171ZM619.733 170.448H615.437V169.2H625.277V170.448H620.981V180H619.733V170.448ZM628.722 184.8H627.474V169.2H628.722V170.64C629.154 170.16 629.73 169.768 630.45 169.464C631.186 169.144 631.93 168.984 632.682 168.984C634.218 168.984 635.442 169.488 636.354 170.496C637.266 171.504 637.722 172.816 637.722 174.432C637.722 176.112 637.21 177.496 636.186 178.584C635.146 179.672 633.81 180.216 632.178 180.216C630.722 180.216 629.57 179.912 628.722 179.304V184.8ZM632.346 170.16C631.642 170.16 630.954 170.32 630.282 170.64C629.626 170.96 629.106 171.36 628.722 171.84V178.056C629.714 178.712 630.834 179.04 632.082 179.04C633.362 179.04 634.402 178.616 635.202 177.768C636.002 176.92 636.402 175.832 636.402 174.504C636.402 173.176 636.042 172.12 635.322 171.336C634.602 170.552 633.61 170.16 632.346 170.16ZM649.211 171L642.011 180H640.763V169.2H642.011V178.2L649.211 169.2H650.459V180H649.211V171ZM661.44 169.2H663.048L657.72 174.36L663.48 180H661.8L656.208 174.432L661.44 169.2ZM655.488 180H654.24V169.2H655.488V180ZM673.726 177.552L674.35 178.464C673.918 179.024 673.334 179.456 672.598 179.76C671.878 180.064 671.102 180.216 670.27 180.216C668.59 180.216 667.214 179.704 666.142 178.68C665.086 177.656 664.558 176.296 664.558 174.6C664.558 173.016 665.07 171.688 666.094 170.616C667.134 169.528 668.414 168.984 669.934 168.984C671.79 168.984 673.19 169.432 674.134 170.328L673.534 171.336C672.686 170.552 671.55 170.16 670.126 170.16C668.974 170.16 667.974 170.584 667.126 171.432C666.294 172.264 665.878 173.32 665.878 174.6C665.878 175.944 666.302 177.024 667.15 177.84C667.998 178.64 669.07 179.04 670.366 179.04C671.758 179.04 672.878 178.544 673.726 177.552Z" fill="#141414"/>
<rect y="129" width="344" height="89" rx="8" fill="#F6F4F2"/>
<path d="M59.589 171.6C59.589 169.152 60.389 167.104 61.989 165.456C63.589 163.808 65.597 162.984 68.013 162.984C70.413 162.984 72.413 163.8 74.013 165.432C75.629 167.048 76.437 169.104 76.437 171.6C76.437 174.048 75.629 176.104 74.013 177.768C72.413 179.4 70.413 180.216 68.013 180.216C65.613 180.216 63.605 179.408 61.989 177.792C60.389 176.176 59.589 174.112 59.589 171.6ZM60.981 171.6C60.981 173.68 61.653 175.432 62.997 176.856C64.357 178.264 66.029 178.968 68.013 178.968C70.061 178.968 71.741 178.264 73.053 176.856C74.381 175.432 75.045 173.68 75.045 171.6C75.045 169.472 74.365 167.72 73.005 166.344C71.661 164.936 69.997 164.232 68.013 164.232C66.013 164.232 64.341 164.936 62.997 166.344C61.653 167.736 60.981 169.488 60.981 171.6ZM87.9015 177.552L88.5255 178.464C88.0935 179.024 87.5095 179.456 86.7735 179.76C86.0535 180.064 85.2775 180.216 84.4455 180.216C82.7655 180.216 81.3895 179.704 80.3175 178.68C79.2615 177.656 78.7335 176.296 78.7335 174.6C78.7335 173.016 79.2455 171.688 80.2695 170.616C81.3095 169.528 82.5895 168.984 84.1095 168.984C85.9655 168.984 87.3655 169.432 88.3095 170.328L87.7095 171.336C86.8615 170.552 85.7255 170.16 84.3015 170.16C83.1495 170.16 82.1495 170.584 81.3015 171.432C80.4695 172.264 80.0535 173.32 80.0535 174.6C80.0535 175.944 80.4775 177.024 81.3255 177.84C82.1735 178.64 83.2455 179.04 84.5415 179.04C85.9335 179.04 87.0535 178.544 87.9015 177.552ZM93.8853 170.448H89.5893V169.2H99.4293V170.448H95.1333V180H93.8853V170.448ZM101.962 171L101.626 169.968C102.698 169.312 103.842 168.984 105.058 168.984C106.466 168.984 107.482 169.336 108.106 170.04C108.746 170.744 109.066 171.832 109.066 173.304V180H107.818V178.344C106.938 179.544 105.706 180.144 104.122 180.144C103.114 180.144 102.306 179.856 101.698 179.28C101.09 178.688 100.786 177.904 100.786 176.928C100.786 175.872 101.17 175.048 101.938 174.456C102.69 173.864 103.674 173.568 104.89 173.568C106.106 173.568 107.082 173.84 107.818 174.384C107.818 173.264 107.738 172.408 107.578 171.816C107.45 171.24 107.186 170.832 106.786 170.592C106.402 170.352 105.802 170.208 104.986 170.16C104.01 170.16 103.002 170.44 101.962 171ZM104.506 178.968C105.85 178.968 106.954 178.4 107.818 177.264V175.464C107.034 174.888 106.098 174.6 105.01 174.6C104.194 174.6 103.506 174.8 102.946 175.2C102.386 175.6 102.106 176.152 102.106 176.856C102.106 177.496 102.33 178.008 102.778 178.392C103.226 178.776 103.802 178.968 104.506 178.968ZM115.354 170.448H111.058V169.2H120.898V170.448H116.602V180H115.354V170.448ZM130.295 169.2H131.903L126.575 174.36L132.335 180H130.655L125.063 174.432L130.295 169.2ZM124.343 180H123.095V169.2H124.343V180ZM143.168 171L135.968 180H134.72V169.2H135.968V178.2L143.168 169.2H144.416V180H143.168V171ZM162.293 171L155.093 180H153.845V169.2H155.093V178.2L162.293 169.2H163.541V180H162.293V171ZM182.906 180H172.97V169.2H174.218V178.824H181.034V169.2H182.282V178.824H184.082V182.736H182.906V180ZM194.92 177.72L195.328 178.68C194.352 179.704 193.024 180.216 191.344 180.216C189.616 180.216 188.232 179.704 187.192 178.68C186.136 177.656 185.608 176.296 185.608 174.6C185.608 172.968 186.088 171.624 187.048 170.568C188.024 169.512 189.368 168.984 191.08 168.984C192.472 168.984 193.64 169.432 194.584 170.328C195.512 171.208 195.976 172.384 195.976 173.856C195.976 174.24 195.952 174.576 195.904 174.864H187C187.048 176.16 187.472 177.184 188.272 177.936C189.072 178.672 190.12 179.04 191.416 179.04C192.92 179.04 194.088 178.6 194.92 177.72ZM190.96 170.16C189.808 170.16 188.872 170.496 188.152 171.168C187.448 171.84 187.04 172.728 186.928 173.832H194.704C194.688 172.696 194.344 171.8 193.672 171.144C193 170.488 192.096 170.16 190.96 170.16ZM208.466 180H207.218V175.104H200.21V180H198.962V169.2H200.21V173.928H207.218V169.2H208.466V180ZM215.227 180H212.251V169.2H213.499V172.824H215.371C218.219 172.824 219.643 174.008 219.643 176.376C219.643 177.496 219.283 178.384 218.563 179.04C217.843 179.68 216.731 180 215.227 180ZM215.155 174H213.499V178.824H215.131C216.267 178.824 217.083 178.624 217.579 178.224C218.075 177.824 218.323 177.216 218.323 176.4C218.323 174.8 217.267 174 215.155 174ZM223.363 180H222.115V169.2H223.363V180ZM241.254 171L234.054 180H232.806V169.2H234.054V178.2L241.254 169.2H242.502V180H241.254V171ZM249.619 180.216C248.883 180.216 248.067 180.08 247.171 179.808C246.323 179.552 245.723 179.208 245.371 178.776L246.019 177.816C246.435 178.2 246.955 178.504 247.579 178.728C248.219 178.936 248.835 179.04 249.427 179.04C250.435 179.04 251.243 178.84 251.851 178.44C252.459 178.04 252.763 177.504 252.763 176.832C252.763 176.272 252.539 175.832 252.091 175.512C251.643 175.192 251.035 175.032 250.267 175.032H248.443V174H250.147C250.755 174 251.275 173.808 251.707 173.424C252.139 173.04 252.355 172.576 252.355 172.032C252.355 171.424 252.115 170.96 251.635 170.64C251.155 170.32 250.483 170.16 249.619 170.16C248.355 170.16 247.227 170.56 246.235 171.36L245.731 170.4C246.643 169.456 247.995 168.984 249.787 168.984C251.019 168.984 251.971 169.24 252.643 169.752C253.331 170.248 253.675 170.936 253.675 171.816C253.675 173.08 253.027 173.944 251.731 174.408V174.456C252.467 174.52 253.043 174.792 253.459 175.272C253.875 175.736 254.083 176.312 254.083 177C254.083 177.992 253.675 178.776 252.859 179.352C252.043 179.928 250.963 180.216 249.619 180.216ZM262.779 167.112L262.107 166.104L265.923 163.056H266.787V180H265.539V164.88L262.779 167.112ZM284.357 177.384L284.885 178.368C284.309 178.944 283.549 179.4 282.605 179.736C281.677 180.056 280.701 180.216 279.677 180.216C277.181 180.216 275.149 179.432 273.581 177.864C272.029 176.312 271.253 174.224 271.253 171.6C271.253 169.12 272.005 167.072 273.509 165.456C275.013 163.808 277.005 162.984 279.485 162.984C281.613 162.984 283.309 163.512 284.573 164.568L283.949 165.552C282.813 164.672 281.333 164.232 279.509 164.232C277.461 164.232 275.805 164.928 274.541 166.32C273.277 167.68 272.645 169.44 272.645 171.6C272.645 173.792 273.301 175.568 274.613 176.928C275.925 178.288 277.645 178.968 279.773 178.968C281.533 178.968 283.061 178.44 284.357 177.384Z" fill="#141414"/>
<rect y="7" width="344" height="89" rx="8" fill="#F6F4F2"/>
<path d="M89.0616 49.6C89.0616 47.152 89.8616 45.104 91.4616 43.456C93.0616 41.808 95.0696 40.984 97.4856 40.984C99.8856 40.984 101.886 41.8 103.486 43.432C105.102 45.048 105.91 47.104 105.91 49.6C105.91 52.048 105.102 54.104 103.486 55.768C101.886 57.4 99.8856 58.216 97.4856 58.216C95.0856 58.216 93.0776 57.408 91.4616 55.792C89.8616 54.176 89.0616 52.112 89.0616 49.6ZM90.4536 49.6C90.4536 51.68 91.1256 53.432 92.4696 54.856C93.8296 56.264 95.5016 56.968 97.4856 56.968C99.5336 56.968 101.214 56.264 102.526 54.856C103.854 53.432 104.518 51.68 104.518 49.6C104.518 47.472 103.838 45.72 102.478 44.344C101.134 42.936 99.4696 42.232 97.4856 42.232C95.4856 42.232 93.8136 42.936 92.4696 44.344C91.1256 45.736 90.4536 47.488 90.4536 49.6ZM110.339 58H109.091V47.2H110.339V48.712C110.787 48.216 111.363 47.808 112.067 47.488C112.787 47.168 113.507 47.008 114.227 47.008C115.731 47.008 116.859 47.4 117.611 48.184C118.363 48.968 118.739 50.184 118.739 51.832V58H117.491V52.072C117.491 49.48 116.307 48.184 113.939 48.184C113.251 48.184 112.579 48.344 111.923 48.664C111.267 48.968 110.739 49.36 110.339 49.84V58ZM122.31 55.216V41.2H123.558V54.544C123.558 55.392 123.678 56.008 123.918 56.392C124.158 56.776 124.558 56.968 125.118 56.968C125.662 56.968 126.166 56.792 126.63 56.44L126.942 57.424C126.318 57.904 125.558 58.144 124.662 58.144C123.094 58.144 122.31 57.168 122.31 55.216ZM130.932 58H129.684V47.2H130.932V58ZM129.468 43C129.468 42.76 129.556 42.568 129.732 42.424C129.908 42.28 130.116 42.208 130.355 42.208C130.564 42.208 130.748 42.288 130.908 42.448C131.084 42.592 131.172 42.776 131.172 43C131.172 43.272 131.092 43.488 130.932 43.648C130.788 43.808 130.595 43.888 130.355 43.888C130.1 43.888 129.884 43.808 129.708 43.648C129.548 43.488 129.468 43.272 129.468 43ZM136.589 58H135.341V47.2H136.589V48.712C137.037 48.216 137.613 47.808 138.317 47.488C139.037 47.168 139.757 47.008 140.477 47.008C141.981 47.008 143.109 47.4 143.861 48.184C144.613 48.968 144.989 50.184 144.989 51.832V58H143.741V52.072C143.741 49.48 142.557 48.184 140.189 48.184C139.501 48.184 138.829 48.344 138.173 48.664C137.517 48.968 136.989 49.36 136.589 49.84V58ZM157.104 55.72L157.512 56.68C156.536 57.704 155.208 58.216 153.528 58.216C151.8 58.216 150.416 57.704 149.376 56.68C148.32 55.656 147.792 54.296 147.792 52.6C147.792 50.968 148.272 49.624 149.232 48.568C150.208 47.512 151.552 46.984 153.264 46.984C154.656 46.984 155.824 47.432 156.768 48.328C157.696 49.208 158.16 50.384 158.16 51.856C158.16 52.24 158.136 52.576 158.088 52.864H149.184C149.232 54.16 149.656 55.184 150.456 55.936C151.256 56.672 152.304 57.04 153.6 57.04C155.104 57.04 156.272 56.6 157.104 55.72ZM153.144 48.16C151.992 48.16 151.056 48.496 150.336 49.168C149.632 49.84 149.224 50.728 149.112 51.832H156.888C156.872 50.696 156.528 49.8 155.856 49.144C155.184 48.488 154.28 48.16 153.144 48.16ZM162.394 58H161.146V47.2H162.394V48.64C163.114 47.552 164.082 47.008 165.298 47.008C166.05 47.008 166.61 47.144 166.978 47.416L166.546 48.592C166.082 48.32 165.578 48.184 165.034 48.184C163.962 48.184 163.082 48.768 162.394 49.936V58ZM179.161 52.072H173.665V50.896H179.161V52.072ZM190.92 58.216C190.184 58.216 189.368 58.08 188.472 57.808C187.624 57.552 187.024 57.208 186.672 56.776L187.32 55.816C187.736 56.2 188.256 56.504 188.88 56.728C189.52 56.936 190.136 57.04 190.728 57.04C191.736 57.04 192.544 56.84 193.152 56.44C193.76 56.04 194.064 55.504 194.064 54.832C194.064 54.272 193.84 53.832 193.392 53.512C192.944 53.192 192.336 53.032 191.568 53.032H189.744V52H191.448C192.056 52 192.576 51.808 193.008 51.424C193.44 51.04 193.656 50.576 193.656 50.032C193.656 49.424 193.416 48.96 192.936 48.64C192.456 48.32 191.784 48.16 190.92 48.16C189.656 48.16 188.528 48.56 187.536 49.36L187.032 48.4C187.944 47.456 189.296 46.984 191.088 46.984C192.32 46.984 193.272 47.24 193.944 47.752C194.632 48.248 194.976 48.936 194.976 49.816C194.976 51.08 194.328 51.944 193.032 52.408V52.456C193.768 52.52 194.344 52.792 194.76 53.272C195.176 53.736 195.384 54.312 195.384 55C195.384 55.992 194.976 56.776 194.16 57.352C193.344 57.928 192.264 58.216 190.92 58.216ZM198.912 49L198.576 47.968C199.648 47.312 200.792 46.984 202.008 46.984C203.416 46.984 204.432 47.336 205.056 48.04C205.696 48.744 206.016 49.832 206.016 51.304V58H204.768V56.344C203.888 57.544 202.656 58.144 201.072 58.144C200.064 58.144 199.256 57.856 198.648 57.28C198.04 56.688 197.736 55.904 197.736 54.928C197.736 53.872 198.12 53.048 198.888 52.456C199.64 51.864 200.624 51.568 201.84 51.568C203.056 51.568 204.032 51.84 204.768 52.384C204.768 51.264 204.688 50.408 204.528 49.816C204.4 49.24 204.136 48.832 203.736 48.592C203.352 48.352 202.752 48.208 201.936 48.16C200.96 48.16 199.952 48.44 198.912 49ZM201.456 56.968C202.8 56.968 203.904 56.4 204.768 55.264V53.464C203.984 52.888 203.048 52.6 201.96 52.6C201.144 52.6 200.456 52.8 199.896 53.2C199.336 53.6 199.056 54.152 199.056 54.856C199.056 55.496 199.28 56.008 199.728 56.392C200.176 56.776 200.752 56.968 201.456 56.968ZM216.791 47.2H218.399L213.071 52.36L218.831 58H217.151L211.559 52.432L216.791 47.2ZM210.839 58H209.591V47.2H210.839V58ZM221.552 49L221.216 47.968C222.288 47.312 223.432 46.984 224.648 46.984C226.056 46.984 227.072 47.336 227.696 48.04C228.336 48.744 228.656 49.832 228.656 51.304V58H227.408V56.344C226.528 57.544 225.296 58.144 223.712 58.144C222.704 58.144 221.896 57.856 221.288 57.28C220.68 56.688 220.376 55.904 220.376 54.928C220.376 53.872 220.76 53.048 221.528 52.456C222.28 51.864 223.264 51.568 224.48 51.568C225.696 51.568 226.672 51.84 227.408 52.384C227.408 51.264 227.328 50.408 227.168 49.816C227.04 49.24 226.776 48.832 226.376 48.592C225.992 48.352 225.392 48.208 224.576 48.16C223.6 48.16 222.592 48.44 221.552 49ZM224.096 56.968C225.44 56.968 226.544 56.4 227.408 55.264V53.464C226.624 52.888 225.688 52.6 224.6 52.6C223.784 52.6 223.096 52.8 222.536 53.2C221.976 53.6 221.696 54.152 221.696 54.856C221.696 55.496 221.92 56.008 222.368 56.392C222.816 56.776 223.392 56.968 224.096 56.968ZM235.568 58.216C234.832 58.216 234.016 58.08 233.12 57.808C232.272 57.552 231.672 57.208 231.32 56.776L231.968 55.816C232.384 56.2 232.904 56.504 233.528 56.728C234.168 56.936 234.784 57.04 235.376 57.04C236.384 57.04 237.192 56.84 237.8 56.44C238.408 56.04 238.712 55.504 238.712 54.832C238.712 54.272 238.488 53.832 238.04 53.512C237.592 53.192 236.984 53.032 236.216 53.032H234.392V52H236.096C236.704 52 237.224 51.808 237.656 51.424C238.088 51.04 238.304 50.576 238.304 50.032C238.304 49.424 238.064 48.96 237.584 48.64C237.104 48.32 236.432 48.16 235.568 48.16C234.304 48.16 233.176 48.56 232.184 49.36L231.68 48.4C232.592 47.456 233.944 46.984 235.736 46.984C236.968 46.984 237.92 47.24 238.592 47.752C239.28 48.248 239.624 48.936 239.624 49.816C239.624 51.08 238.976 51.944 237.68 52.408V52.456C238.416 52.52 238.992 52.792 239.408 53.272C239.824 53.736 240.032 54.312 240.032 55C240.032 55.992 239.624 56.776 238.808 57.352C237.992 57.928 236.912 58.216 235.568 58.216ZM246.2 58H243.224V47.2H244.472V50.824H246.344C249.192 50.824 250.616 52.008 250.616 54.376C250.616 55.496 250.256 56.384 249.536 57.04C248.816 57.68 247.704 58 246.2 58ZM246.128 52H244.472V56.824H246.104C247.24 56.824 248.056 56.624 248.552 56.224C249.048 55.824 249.296 55.216 249.296 54.4C249.296 52.8 248.24 52 246.128 52ZM254.336 58H253.088V47.2H254.336V58Z" fill="#141414"/>
<path d="M391.722 159.164L392.19 159.848C391.866 160.268 391.428 160.592 390.876 160.82C390.336 161.048 389.754 161.162 389.13 161.162C387.87 161.162 386.838 160.778 386.034 160.01C385.242 159.242 384.846 158.222 384.846 156.95C384.846 155.762 385.23 154.766 385.998 153.962C386.778 153.146 387.738 152.738 388.878 152.738C390.27 152.738 391.32 153.074 392.028 153.746L391.578 154.502C390.942 153.914 390.09 153.62 389.022 153.62C388.158 153.62 387.408 153.938 386.772 154.574C386.148 155.198 385.836 155.99 385.836 156.95C385.836 157.958 386.154 158.768 386.79 159.38C387.426 159.98 388.23 160.28 389.202 160.28C390.246 160.28 391.086 159.908 391.722 159.164ZM398.44 158.876C398.44 158.504 398.284 158.204 397.972 157.976C397.672 157.748 397.3 157.568 396.856 157.436C396.424 157.304 395.986 157.16 395.542 157.004C395.098 156.836 394.72 156.578 394.408 156.23C394.108 155.87 393.958 155.42 393.958 154.88C393.958 154.232 394.198 153.716 394.678 153.332C395.158 152.936 395.788 152.738 396.568 152.738C397.684 152.738 398.53 153.038 399.106 153.638L398.71 154.34C398.158 153.824 397.45 153.566 396.586 153.566C396.106 153.566 395.71 153.692 395.398 153.944C395.098 154.184 394.948 154.49 394.948 154.862C394.948 155.246 395.098 155.564 395.398 155.816C395.71 156.056 396.082 156.248 396.514 156.392C396.958 156.524 397.402 156.668 397.846 156.824C398.29 156.98 398.662 157.226 398.962 157.562C399.274 157.898 399.43 158.324 399.43 158.84C399.43 159.572 399.154 160.142 398.602 160.55C398.062 160.958 397.366 161.162 396.514 161.162C395.986 161.162 395.434 161.042 394.858 160.802C394.318 160.574 393.946 160.304 393.742 159.992L394.264 159.38C394.492 159.656 394.834 159.884 395.29 160.064C395.758 160.244 396.202 160.334 396.622 160.334C397.15 160.334 397.582 160.208 397.918 159.956C398.266 159.692 398.44 159.332 398.44 158.876ZM407.656 152.9H408.646L404.992 161.108H404.344L400.546 152.9H401.644L403.966 157.994C404.302 158.75 404.548 159.344 404.704 159.776C404.908 159.2 405.148 158.588 405.424 157.94L407.656 152.9Z" fill="#141414"/>
<path d="M385.674 65.25L385.422 64.476C386.226 63.984 387.084 63.738 387.996 63.738C389.052 63.738 389.814 64.002 390.282 64.53C390.762 65.058 391.002 65.874 391.002 66.978V72H390.066V70.758C389.406 71.658 388.482 72.108 387.294 72.108C386.538 72.108 385.932 71.892 385.476 71.46C385.02 71.016 384.792 70.428 384.792 69.696C384.792 68.904 385.08 68.286 385.656 67.842C386.22 67.398 386.958 67.176 387.87 67.176C388.782 67.176 389.514 67.38 390.066 67.788C390.066 66.948 390.006 66.306 389.886 65.862C389.79 65.43 389.592 65.124 389.292 64.944C389.004 64.764 388.554 64.656 387.942 64.62C387.21 64.62 386.454 64.83 385.674 65.25ZM387.582 71.226C388.59 71.226 389.418 70.8 390.066 69.948V68.598C389.478 68.166 388.776 67.95 387.96 67.95C387.348 67.95 386.832 68.1 386.412 68.4C385.992 68.7 385.782 69.114 385.782 69.642C385.782 70.122 385.95 70.506 386.286 70.794C386.622 71.082 387.054 71.226 387.582 71.226ZM394.62 75.6H393.684V63.9H394.62V64.98C394.944 64.62 395.376 64.326 395.916 64.098C396.468 63.858 397.026 63.738 397.59 63.738C398.742 63.738 399.66 64.116 400.344 64.872C401.028 65.628 401.37 66.612 401.37 67.824C401.37 69.084 400.986 70.122 400.218 70.938C399.438 71.754 398.436 72.162 397.212 72.162C396.12 72.162 395.256 71.934 394.62 71.478V75.6ZM397.338 64.62C396.81 64.62 396.294 64.74 395.79 64.98C395.298 65.22 394.908 65.52 394.62 65.88V70.542C395.364 71.034 396.204 71.28 397.14 71.28C398.1 71.28 398.88 70.962 399.48 70.326C400.08 69.69 400.38 68.874 400.38 67.878C400.38 66.882 400.11 66.09 399.57 65.502C399.03 64.914 398.286 64.62 397.338 64.62ZM405.037 72H404.101V63.9H405.037V72ZM403.939 60.75C403.939 60.57 404.005 60.426 404.137 60.318C404.269 60.21 404.425 60.156 404.605 60.156C404.761 60.156 404.899 60.216 405.019 60.336C405.151 60.444 405.217 60.582 405.217 60.75C405.217 60.954 405.157 61.116 405.037 61.236C404.929 61.356 404.785 61.416 404.605 61.416C404.413 61.416 404.251 61.356 404.119 61.236C403.999 61.116 403.939 60.954 403.939 60.75ZM415.931 67.554H411.809V66.672H415.931V67.554ZM424.75 72.162C424.198 72.162 423.586 72.06 422.914 71.856C422.278 71.664 421.828 71.406 421.564 71.082L422.05 70.362C422.362 70.65 422.752 70.878 423.22 71.046C423.7 71.202 424.162 71.28 424.606 71.28C425.362 71.28 425.968 71.13 426.424 70.83C426.88 70.53 427.108 70.128 427.108 69.624C427.108 69.204 426.94 68.874 426.604 68.634C426.268 68.394 425.812 68.274 425.236 68.274H423.868V67.5H425.146C425.602 67.5 425.992 67.356 426.316 67.068C426.64 66.78 426.802 66.432 426.802 66.024C426.802 65.568 426.622 65.22 426.262 64.98C425.902 64.74 425.398 64.62 424.75 64.62C423.802 64.62 422.956 64.92 422.212 65.52L421.834 64.8C422.518 64.092 423.532 63.738 424.876 63.738C425.8 63.738 426.514 63.93 427.018 64.314C427.534 64.686 427.792 65.202 427.792 65.862C427.792 66.81 427.306 67.458 426.334 67.806V67.842C426.886 67.89 427.318 68.094 427.63 68.454C427.942 68.802 428.098 69.234 428.098 69.75C428.098 70.494 427.792 71.082 427.18 71.514C426.568 71.946 425.758 72.162 424.75 72.162ZM430.744 65.25L430.492 64.476C431.296 63.984 432.154 63.738 433.066 63.738C434.122 63.738 434.884 64.002 435.352 64.53C435.832 65.058 436.072 65.874 436.072 66.978V72H435.136V70.758C434.476 71.658 433.552 72.108 432.364 72.108C431.608 72.108 431.002 71.892 430.546 71.46C430.09 71.016 429.862 70.428 429.862 69.696C429.862 68.904 430.15 68.286 430.726 67.842C431.29 67.398 432.028 67.176 432.94 67.176C433.852 67.176 434.584 67.38 435.136 67.788C435.136 66.948 435.076 66.306 434.956 65.862C434.86 65.43 434.662 65.124 434.362 64.944C434.074 64.764 433.624 64.656 433.012 64.62C432.28 64.62 431.524 64.83 430.744 65.25ZM432.652 71.226C433.66 71.226 434.488 70.8 435.136 69.948V68.598C434.548 68.166 433.846 67.95 433.03 67.95C432.418 67.95 431.902 68.1 431.482 68.4C431.062 68.7 430.852 69.114 430.852 69.642C430.852 70.122 431.02 70.506 431.356 70.794C431.692 71.082 432.124 71.226 432.652 71.226ZM444.154 63.9H445.36L441.364 67.77L445.684 72H444.424L440.23 67.824L444.154 63.9ZM439.69 72H438.754V63.9H439.69V72ZM447.725 65.25L447.473 64.476C448.277 63.984 449.135 63.738 450.047 63.738C451.103 63.738 451.865 64.002 452.333 64.53C452.813 65.058 453.053 65.874 453.053 66.978V72H452.117V70.758C451.457 71.658 450.533 72.108 449.345 72.108C448.589 72.108 447.983 71.892 447.527 71.46C447.071 71.016 446.843 70.428 446.843 69.696C446.843 68.904 447.131 68.286 447.707 67.842C448.271 67.398 449.009 67.176 449.921 67.176C450.833 67.176 451.565 67.38 452.117 67.788C452.117 66.948 452.057 66.306 451.937 65.862C451.841 65.43 451.643 65.124 451.343 64.944C451.055 64.764 450.605 64.656 449.993 64.62C449.261 64.62 448.505 64.83 447.725 65.25ZM449.633 71.226C450.641 71.226 451.469 70.8 452.117 69.948V68.598C451.529 68.166 450.827 67.95 450.011 67.95C449.399 67.95 448.883 68.1 448.463 68.4C448.043 68.7 447.833 69.114 447.833 69.642C447.833 70.122 448.001 70.506 448.337 70.794C448.673 71.082 449.105 71.226 449.633 71.226ZM458.237 72.162C457.685 72.162 457.073 72.06 456.401 71.856C455.765 71.664 455.315 71.406 455.051 71.082L455.537 70.362C455.849 70.65 456.239 70.878 456.707 71.046C457.187 71.202 457.649 71.28 458.093 71.28C458.849 71.28 459.455 71.13 459.911 70.83C460.367 70.53 460.595 70.128 460.595 69.624C460.595 69.204 460.427 68.874 460.091 68.634C459.755 68.394 459.299 68.274 458.723 68.274H457.355V67.5H458.633C459.089 67.5 459.479 67.356 459.803 67.068C460.127 66.78 460.289 66.432 460.289 66.024C460.289 65.568 460.109 65.22 459.749 64.98C459.389 64.74 458.885 64.62 458.237 64.62C457.289 64.62 456.443 64.92 455.699 65.52L455.321 64.8C456.005 64.092 457.019 63.738 458.363 63.738C459.287 63.738 460.001 63.93 460.505 64.314C461.021 64.686 461.279 65.202 461.279 65.862C461.279 66.81 460.793 67.458 459.821 67.806V67.842C460.373 67.89 460.805 68.094 461.117 68.454C461.429 68.802 461.585 69.234 461.585 69.75C461.585 70.494 461.279 71.082 460.667 71.514C460.055 71.946 459.245 72.162 458.237 72.162ZM466.211 72H463.979V63.9H464.915V66.618H466.319C468.455 66.618 469.523 67.506 469.523 69.282C469.523 70.122 469.253 70.788 468.713 71.28C468.173 71.76 467.339 72 466.211 72ZM466.157 67.5H464.915V71.118H466.139C466.991 71.118 467.603 70.968 467.975 70.668C468.347 70.368 468.533 69.912 468.533 69.3C468.533 68.1 467.741 67.5 466.157 67.5ZM472.313 72H471.377V63.9H472.313V72Z" fill="#141414"/>
<path d="M385.674 12.25L385.422 11.476C386.226 10.984 387.084 10.738 387.996 10.738C389.052 10.738 389.814 11.002 390.282 11.53C390.762 12.058 391.002 12.874 391.002 13.978V19H390.066V17.758C389.406 18.658 388.482 19.108 387.294 19.108C386.538 19.108 385.932 18.892 385.476 18.46C385.02 18.016 384.792 17.428 384.792 16.696C384.792 15.904 385.08 15.286 385.656 14.842C386.22 14.398 386.958 14.176 387.87 14.176C388.782 14.176 389.514 14.38 390.066 14.788C390.066 13.948 390.006 13.306 389.886 12.862C389.79 12.43 389.592 12.124 389.292 11.944C389.004 11.764 388.554 11.656 387.942 11.62C387.21 11.62 386.454 11.83 385.674 12.25ZM387.582 18.226C388.59 18.226 389.418 17.8 390.066 16.948V15.598C389.478 15.166 388.776 14.95 387.96 14.95C387.348 14.95 386.832 15.1 386.412 15.4C385.992 15.7 385.782 16.114 385.782 16.642C385.782 17.122 385.95 17.506 386.286 17.794C386.622 18.082 387.054 18.226 387.582 18.226ZM394.62 22.6H393.684V10.9H394.62V11.98C394.944 11.62 395.376 11.326 395.916 11.098C396.468 10.858 397.026 10.738 397.59 10.738C398.742 10.738 399.66 11.116 400.344 11.872C401.028 12.628 401.37 13.612 401.37 14.824C401.37 16.084 400.986 17.122 400.218 17.938C399.438 18.754 398.436 19.162 397.212 19.162C396.12 19.162 395.256 18.934 394.62 18.478V22.6ZM397.338 11.62C396.81 11.62 396.294 11.74 395.79 11.98C395.298 12.22 394.908 12.52 394.62 12.88V17.542C395.364 18.034 396.204 18.28 397.14 18.28C398.1 18.28 398.88 17.962 399.48 17.326C400.08 16.69 400.38 15.874 400.38 14.878C400.38 13.882 400.11 13.09 399.57 12.502C399.03 11.914 398.286 11.62 397.338 11.62ZM405.037 19H404.101V10.9H405.037V19ZM403.939 7.75C403.939 7.57 404.005 7.426 404.137 7.318C404.269 7.21 404.425 7.156 404.605 7.156C404.761 7.156 404.899 7.216 405.019 7.336C405.151 7.444 405.217 7.582 405.217 7.75C405.217 7.954 405.157 8.116 405.037 8.236C404.929 8.356 404.785 8.416 404.605 8.416C404.413 8.416 404.251 8.356 404.119 8.236C403.999 8.116 403.939 7.954 403.939 7.75ZM415.931 14.554H411.809V13.672H415.931V14.554ZM428.548 17.164L429.016 17.848C428.692 18.268 428.254 18.592 427.702 18.82C427.162 19.048 426.58 19.162 425.956 19.162C424.696 19.162 423.664 18.778 422.86 18.01C422.068 17.242 421.672 16.222 421.672 14.95C421.672 13.762 422.056 12.766 422.824 11.962C423.604 11.146 424.564 10.738 425.704 10.738C427.096 10.738 428.146 11.074 428.854 11.746L428.404 12.502C427.768 11.914 426.916 11.62 425.848 11.62C424.984 11.62 424.234 11.938 423.598 12.574C422.974 13.198 422.662 13.99 422.662 14.95C422.662 15.958 422.98 16.768 423.616 17.38C424.252 17.98 425.056 18.28 426.028 18.28C427.072 18.28 427.912 17.908 428.548 17.164ZM433.036 11.836H429.814V10.9H437.194V11.836H433.972V19H433.036V11.836ZM439.094 12.25L438.842 11.476C439.646 10.984 440.504 10.738 441.416 10.738C442.472 10.738 443.234 11.002 443.702 11.53C444.182 12.058 444.422 12.874 444.422 13.978V19H443.486V17.758C442.826 18.658 441.902 19.108 440.714 19.108C439.958 19.108 439.352 18.892 438.896 18.46C438.44 18.016 438.212 17.428 438.212 16.696C438.212 15.904 438.5 15.286 439.076 14.842C439.64 14.398 440.378 14.176 441.29 14.176C442.202 14.176 442.934 14.38 443.486 14.788C443.486 13.948 443.426 13.306 443.306 12.862C443.21 12.43 443.012 12.124 442.712 11.944C442.424 11.764 441.974 11.656 441.362 11.62C440.63 11.62 439.874 11.83 439.094 12.25ZM441.002 18.226C442.01 18.226 442.838 17.8 443.486 16.948V15.598C442.898 15.166 442.196 14.95 441.38 14.95C440.768 14.95 440.252 15.1 439.832 15.4C439.412 15.7 439.202 16.114 439.202 16.642C439.202 17.122 439.37 17.506 439.706 17.794C440.042 18.082 440.474 18.226 441.002 18.226ZM449.138 11.836H445.916V10.9H453.296V11.836H450.074V19H449.138V11.836ZM461.164 10.9H462.226L458.95 19C458.362 20.428 457.852 21.376 457.42 21.844C456.988 22.348 456.484 22.6 455.908 22.6C455.464 22.6 455.002 22.462 454.522 22.186L454.828 21.466C455.2 21.646 455.518 21.736 455.782 21.736C456.19 21.736 456.556 21.556 456.88 21.196C457.204 20.848 457.54 20.26 457.888 19.432L458.068 19L454.072 10.9H455.188L457.96 16.624L458.536 17.884C458.548 17.836 458.698 17.404 458.986 16.588L461.164 10.9ZM469.892 17.164L470.36 17.848C470.036 18.268 469.598 18.592 469.046 18.82C468.506 19.048 467.924 19.162 467.3 19.162C466.04 19.162 465.008 18.778 464.204 18.01C463.412 17.242 463.016 16.222 463.016 14.95C463.016 13.762 463.4 12.766 464.168 11.962C464.948 11.146 465.908 10.738 467.048 10.738C468.44 10.738 469.49 11.074 470.198 11.746L469.748 12.502C469.112 11.914 468.26 11.62 467.192 11.62C466.328 11.62 465.578 11.938 464.942 12.574C464.318 13.198 464.006 13.99 464.006 14.95C464.006 15.958 464.324 16.768 464.96 17.38C465.596 17.98 466.4 18.28 467.372 18.28C468.416 18.28 469.256 17.908 469.892 17.164ZM474.648 19H472.416V10.9H473.352V13.618H474.756C476.892 13.618 477.96 14.506 477.96 16.282C477.96 17.122 477.69 17.788 477.15 18.28C476.61 18.76 475.776 19 474.648 19ZM474.594 14.5H473.352V18.118H474.576C475.428 18.118 476.04 17.968 476.412 17.668C476.784 17.368 476.97 16.912 476.97 16.3C476.97 15.1 476.178 14.5 474.594 14.5ZM480.75 19H479.814V10.9H480.75V19Z" fill="#141414"/>
<path d="M829.616 56.876C829.616 56.504 829.46 56.204 829.148 55.976C828.848 55.748 828.476 55.568 828.032 55.436C827.6 55.304 827.162 55.16 826.718 55.004C826.274 54.836 825.896 54.578 825.584 54.23C825.284 53.87 825.134 53.42 825.134 52.88C825.134 52.232 825.374 51.716 825.854 51.332C826.334 50.936 826.964 50.738 827.744 50.738C828.86 50.738 829.706 51.038 830.282 51.638L829.886 52.34C829.334 51.824 828.626 51.566 827.762 51.566C827.282 51.566 826.886 51.692 826.574 51.944C826.274 52.184 826.124 52.49 826.124 52.862C826.124 53.246 826.274 53.564 826.574 53.816C826.886 54.056 827.258 54.248 827.69 54.392C828.134 54.524 828.578 54.668 829.022 54.824C829.466 54.98 829.838 55.226 830.138 55.562C830.45 55.898 830.606 56.324 830.606 56.84C830.606 57.572 830.33 58.142 829.778 58.55C829.238 58.958 828.542 59.162 827.69 59.162C827.162 59.162 826.61 59.042 826.034 58.802C825.494 58.574 825.122 58.304 824.918 57.992L825.44 57.38C825.668 57.656 826.01 57.884 826.466 58.064C826.934 58.244 827.378 58.334 827.798 58.334C828.326 58.334 828.758 58.208 829.094 57.956C829.442 57.692 829.616 57.332 829.616 56.876ZM836.617 59.162C835.369 59.162 834.349 58.766 833.557 57.974C832.765 57.182 832.369 56.174 832.369 54.95C832.369 53.726 832.765 52.718 833.557 51.926C834.349 51.134 835.369 50.738 836.617 50.738C837.865 50.738 838.885 51.134 839.677 51.926C840.469 52.718 840.865 53.726 840.865 54.95C840.865 56.174 840.469 57.182 839.677 57.974C838.885 58.766 837.865 59.162 836.617 59.162ZM836.617 58.28C837.589 58.28 838.369 57.974 838.957 57.362C839.569 56.738 839.875 55.934 839.875 54.95C839.875 53.978 839.569 53.18 838.957 52.556C838.345 51.932 837.565 51.62 836.617 51.62C835.681 51.62 834.901 51.932 834.277 52.556C833.665 53.18 833.359 53.978 833.359 54.95C833.359 55.922 833.665 56.72 834.277 57.344C834.889 57.968 835.669 58.28 836.617 58.28ZM843.41 52.25L843.158 51.476C843.962 50.984 844.82 50.738 845.732 50.738C846.788 50.738 847.55 51.002 848.018 51.53C848.498 52.058 848.738 52.874 848.738 53.978V59H847.802V57.758C847.142 58.658 846.218 59.108 845.03 59.108C844.274 59.108 843.668 58.892 843.212 58.46C842.756 58.016 842.528 57.428 842.528 56.696C842.528 55.904 842.816 55.286 843.392 54.842C843.956 54.398 844.694 54.176 845.606 54.176C846.518 54.176 847.25 54.38 847.802 54.788C847.802 53.948 847.742 53.306 847.622 52.862C847.526 52.43 847.328 52.124 847.028 51.944C846.74 51.764 846.29 51.656 845.678 51.62C844.946 51.62 844.19 51.83 843.41 52.25ZM845.318 58.226C846.326 58.226 847.154 57.8 847.802 56.948V55.598C847.214 55.166 846.512 54.95 845.696 54.95C845.084 54.95 844.568 55.1 844.148 55.4C843.728 55.7 843.518 56.114 843.518 56.642C843.518 57.122 843.686 57.506 844.022 57.794C844.358 58.082 844.79 58.226 845.318 58.226ZM852.356 62.6H851.42V50.9H852.356V51.98C852.68 51.62 853.112 51.326 853.652 51.098C854.204 50.858 854.762 50.738 855.326 50.738C856.478 50.738 857.396 51.116 858.08 51.872C858.764 52.628 859.106 53.612 859.106 54.824C859.106 56.084 858.722 57.122 857.954 57.938C857.174 58.754 856.172 59.162 854.948 59.162C853.856 59.162 852.992 58.934 852.356 58.478V62.6ZM855.074 51.62C854.546 51.62 854.03 51.74 853.526 51.98C853.034 52.22 852.644 52.52 852.356 52.88V57.542C853.1 58.034 853.94 58.28 854.876 58.28C855.836 58.28 856.616 57.962 857.216 57.326C857.816 56.69 858.116 55.874 858.116 54.878C858.116 53.882 857.846 53.09 857.306 52.502C856.766 51.914 856.022 51.62 855.074 51.62Z" fill="#141414"/>
<rect x="909" y="128" width="297" height="89" rx="8" fill="#F6F4F2"/>
<path d="M972.367 182.216H971.119V177.752H972.919C973.463 177.048 974.039 175.68 974.647 173.648C975.271 171.52 975.663 168.824 975.823 165.56L975.991 162.2H985.447V177.752H987.727V182.216H986.479V179H972.367V182.216ZM977.263 163.448L977.071 166.52C976.863 169.56 976.479 172.056 975.919 174.008C975.375 175.928 974.863 177.176 974.383 177.752H984.127V163.448H977.263ZM998.378 176.72L998.786 177.68C997.81 178.704 996.482 179.216 994.802 179.216C993.074 179.216 991.69 178.704 990.65 177.68C989.594 176.656 989.066 175.296 989.066 173.6C989.066 171.968 989.546 170.624 990.506 169.568C991.482 168.512 992.826 167.984 994.538 167.984C995.93 167.984 997.098 168.432 998.042 169.328C998.97 170.208 999.434 171.384 999.434 172.856C999.434 173.24 999.41 173.576 999.362 173.864H990.458C990.506 175.16 990.93 176.184 991.73 176.936C992.53 177.672 993.578 178.04 994.874 178.04C996.378 178.04 997.546 177.6 998.378 176.72ZM994.418 169.16C993.266 169.16 992.33 169.496 991.61 170.168C990.906 170.84 990.498 171.728 990.386 172.832H998.162C998.146 171.696 997.802 170.8 997.13 170.144C996.458 169.488 995.554 169.16 994.418 169.16ZM1010.63 176.552L1011.26 177.464C1010.82 178.024 1010.24 178.456 1009.5 178.76C1008.78 179.064 1008.01 179.216 1007.18 179.216C1005.5 179.216 1004.12 178.704 1003.05 177.68C1001.99 176.656 1001.46 175.296 1001.46 173.6C1001.46 172.016 1001.98 170.688 1003 169.616C1004.04 168.528 1005.32 167.984 1006.84 167.984C1008.7 167.984 1010.1 168.432 1011.04 169.328L1010.44 170.336C1009.59 169.552 1008.46 169.16 1007.03 169.16C1005.88 169.16 1004.88 169.584 1004.03 170.432C1003.2 171.264 1002.78 172.32 1002.78 173.6C1002.78 174.944 1003.21 176.024 1004.06 176.84C1004.9 177.64 1005.98 178.04 1007.27 178.04C1008.66 178.04 1009.78 177.544 1010.63 176.552ZM1021.2 168.2H1022.81L1017.48 173.36L1023.24 179H1021.56L1015.97 173.432L1021.2 168.2ZM1015.25 179H1014V168.2H1015.25V179ZM1028.33 169.448H1024.04V168.2H1033.88V169.448H1029.58V179H1028.33V169.448ZM1040.6 179.216C1038.93 179.216 1037.57 178.688 1036.52 177.632C1035.46 176.576 1034.93 175.232 1034.93 173.6C1034.93 171.968 1035.46 170.624 1036.52 169.568C1037.57 168.512 1038.93 167.984 1040.6 167.984C1042.26 167.984 1043.62 168.512 1044.68 169.568C1045.73 170.624 1046.26 171.968 1046.26 173.6C1046.26 175.232 1045.73 176.576 1044.68 177.632C1043.62 178.688 1042.26 179.216 1040.6 179.216ZM1040.6 178.04C1041.89 178.04 1042.93 177.632 1043.72 176.816C1044.53 175.984 1044.94 174.912 1044.94 173.6C1044.94 172.304 1044.53 171.24 1043.72 170.408C1042.9 169.576 1041.86 169.16 1040.6 169.16C1039.35 169.16 1038.31 169.576 1037.48 170.408C1036.66 171.24 1036.25 172.304 1036.25 173.6C1036.25 174.896 1036.66 175.96 1037.48 176.792C1038.29 177.624 1039.33 178.04 1040.6 178.04ZM1058.7 179H1057.45V169.376H1050.57V179H1049.32V168.2H1058.7V179ZM1068.13 173.072H1062.63V171.896H1068.13V173.072ZM1072.08 179V168.2C1072.6 168.2 1073.12 168.192 1073.61 168.176C1074.64 168.144 1075.28 168.128 1075.56 168.128C1078.53 168.128 1080.02 169.056 1080.02 170.912C1080.02 171.536 1079.82 172.08 1079.42 172.544C1079.04 172.992 1078.51 173.272 1077.84 173.384V173.432C1079.56 173.688 1080.43 174.552 1080.43 176.024C1080.43 178.056 1078.82 179.072 1075.6 179.072C1075.4 179.072 1074.76 179.056 1073.71 179.024C1073.18 179.008 1072.64 179 1072.08 179ZM1075.92 174.032H1073.32V177.848C1074.57 177.88 1075.38 177.896 1075.75 177.896C1077.99 177.896 1079.11 177.232 1079.11 175.904C1079.11 174.656 1078.04 174.032 1075.92 174.032ZM1075.7 169.304C1075.17 169.304 1074.38 169.32 1073.32 169.352V173H1076.18C1076.96 173 1077.58 172.832 1078.03 172.496C1078.48 172.144 1078.7 171.68 1078.7 171.104C1078.7 169.904 1077.7 169.304 1075.7 169.304ZM1092.17 176.72L1092.58 177.68C1091.61 178.704 1090.28 179.216 1088.6 179.216C1086.87 179.216 1085.49 178.704 1084.45 177.68C1083.39 176.656 1082.86 175.296 1082.86 173.6C1082.86 171.968 1083.34 170.624 1084.3 169.568C1085.28 168.512 1086.62 167.984 1088.33 167.984C1089.73 167.984 1090.89 168.432 1091.84 169.328C1092.77 170.208 1093.23 171.384 1093.23 172.856C1093.23 173.24 1093.21 173.576 1093.16 173.864H1084.25C1084.3 175.16 1084.73 176.184 1085.53 176.936C1086.33 177.672 1087.37 178.04 1088.67 178.04C1090.17 178.04 1091.34 177.6 1092.17 176.72ZM1088.21 169.16C1087.06 169.16 1086.13 169.496 1085.41 170.168C1084.7 170.84 1084.29 171.728 1084.18 172.832H1091.96C1091.94 171.696 1091.6 170.8 1090.93 170.144C1090.25 169.488 1089.35 169.16 1088.21 169.16ZM1097.46 183.8H1096.22V168.2H1097.46V169.64C1097.9 169.16 1098.47 168.768 1099.19 168.464C1099.93 168.144 1100.67 167.984 1101.42 167.984C1102.96 167.984 1104.18 168.488 1105.1 169.496C1106.01 170.504 1106.46 171.816 1106.46 173.432C1106.46 175.112 1105.95 176.496 1104.93 177.584C1103.89 178.672 1102.55 179.216 1100.92 179.216C1099.46 179.216 1098.31 178.912 1097.46 178.304V183.8ZM1101.09 169.16C1100.38 169.16 1099.7 169.32 1099.02 169.64C1098.37 169.96 1097.85 170.36 1097.46 170.84V177.056C1098.46 177.712 1099.58 178.04 1100.82 178.04C1102.1 178.04 1103.14 177.616 1103.94 176.768C1104.74 175.92 1105.14 174.832 1105.14 173.504C1105.14 172.176 1104.78 171.12 1104.06 170.336C1103.34 169.552 1102.35 169.16 1101.09 169.16ZM1117.91 176.552L1118.53 177.464C1118.1 178.024 1117.51 178.456 1116.78 178.76C1116.06 179.064 1115.28 179.216 1114.45 179.216C1112.77 179.216 1111.39 178.704 1110.32 177.68C1109.27 176.656 1108.74 175.296 1108.74 173.6C1108.74 172.016 1109.25 170.688 1110.27 169.616C1111.31 168.528 1112.59 167.984 1114.11 167.984C1115.97 167.984 1117.37 168.432 1118.31 169.328L1117.71 170.336C1116.87 169.552 1115.73 169.16 1114.31 169.16C1113.15 169.16 1112.15 169.584 1111.31 170.432C1110.47 171.264 1110.06 172.32 1110.06 173.6C1110.06 174.944 1110.48 176.024 1111.33 176.84C1112.18 177.64 1113.25 178.04 1114.55 178.04C1115.94 178.04 1117.06 177.544 1117.91 176.552ZM1129.72 170L1122.52 179H1121.27V168.2H1122.52V177.2L1129.72 168.2H1130.97V179H1129.72V170ZM1139.19 168.2H1142.4V179H1141.16V174.968H1138.47L1135.37 179H1133.84L1137.24 174.68C1136.52 174.568 1135.91 174.232 1135.4 173.672C1134.9 173.096 1134.65 172.408 1134.65 171.608C1134.65 170.568 1135.03 169.744 1135.78 169.136C1136.53 168.512 1137.67 168.2 1139.19 168.2ZM1135.97 171.632C1135.97 172.272 1136.22 172.792 1136.72 173.192C1137.21 173.592 1137.74 173.792 1138.3 173.792H1141.16V169.376H1138.97C1137.98 169.376 1137.23 169.584 1136.72 170C1136.22 170.4 1135.97 170.944 1135.97 171.632Z" fill="#141414"/>
<rect x="909" y="17" width="298" height="89" rx="8" fill="#F6F4F2"/>
<path d="M970.678 55.112L970.006 54.104L973.822 51.056H974.686V68H973.438V52.88L970.678 55.112ZM992.255 65.384L992.783 66.368C992.207 66.944 991.447 67.4 990.503 67.736C989.575 68.056 988.599 68.216 987.575 68.216C985.079 68.216 983.047 67.432 981.479 65.864C979.927 64.312 979.151 62.224 979.151 59.6C979.151 57.12 979.903 55.072 981.407 53.456C982.911 51.808 984.903 50.984 987.383 50.984C989.511 50.984 991.207 51.512 992.471 52.568L991.847 53.552C990.711 52.672 989.231 52.232 987.407 52.232C985.359 52.232 983.703 52.928 982.439 54.32C981.175 55.68 980.543 57.44 980.543 59.6C980.543 61.792 981.199 63.568 982.511 64.928C983.823 66.288 985.543 66.968 987.671 66.968C989.431 66.968 990.959 66.44 992.255 65.384ZM1000.74 62.072H995.247V60.896H1000.74V62.072ZM1018.51 68H1017.19V52.448H1006.78V68H1005.46V51.2H1018.51V68ZM1024.31 72.8H1023.06V57.2H1024.31V58.64C1024.74 58.16 1025.32 57.768 1026.04 57.464C1026.78 57.144 1027.52 56.984 1028.27 56.984C1029.81 56.984 1031.03 57.488 1031.94 58.496C1032.86 59.504 1033.31 60.816 1033.31 62.432C1033.31 64.112 1032.8 65.496 1031.78 66.584C1030.74 67.672 1029.4 68.216 1027.77 68.216C1026.31 68.216 1025.16 67.912 1024.31 67.304V72.8ZM1027.94 58.16C1027.23 58.16 1026.54 58.32 1025.87 58.64C1025.22 58.96 1024.7 59.36 1024.31 59.84V66.056C1025.3 66.712 1026.42 67.04 1027.67 67.04C1028.95 67.04 1029.99 66.616 1030.79 65.768C1031.59 64.92 1031.99 63.832 1031.99 62.504C1031.99 61.176 1031.63 60.12 1030.91 59.336C1030.19 58.552 1029.2 58.16 1027.94 58.16ZM1044.9 65.72L1045.31 66.68C1044.33 67.704 1043 68.216 1041.32 68.216C1039.59 68.216 1038.21 67.704 1037.17 66.68C1036.11 65.656 1035.59 64.296 1035.59 62.6C1035.59 60.968 1036.07 59.624 1037.03 58.568C1038 57.512 1039.35 56.984 1041.06 56.984C1042.45 56.984 1043.62 57.432 1044.56 58.328C1045.49 59.208 1045.95 60.384 1045.95 61.856C1045.95 62.24 1045.93 62.576 1045.88 62.864H1036.98C1037.03 64.16 1037.45 65.184 1038.25 65.936C1039.05 66.672 1040.1 67.04 1041.39 67.04C1042.9 67.04 1044.07 66.6 1044.9 65.72ZM1040.94 58.16C1039.79 58.16 1038.85 58.496 1038.13 59.168C1037.43 59.84 1037.02 60.728 1036.91 61.832H1044.68C1044.67 60.696 1044.32 59.8 1043.65 59.144C1042.98 58.488 1042.07 58.16 1040.94 58.16ZM1047.99 70.736H1046.81V66.824H1048.16C1048.57 66.296 1048.94 65.44 1049.26 64.256C1049.6 63.072 1049.81 61.736 1049.91 60.248L1050.08 57.2H1056.97V66.824H1058.77V70.736H1057.59V68H1047.99V70.736ZM1051.25 58.376L1051.11 60.728C1050.98 62.2 1050.76 63.48 1050.44 64.568C1050.13 65.624 1049.81 66.376 1049.48 66.824H1055.72V58.376H1051.25ZM1070.46 68H1069.22V58.376H1062.33V68H1061.08V57.2H1070.46V68ZM1075.5 72.8H1074.25V57.2H1075.5V58.64C1075.93 58.16 1076.51 57.768 1077.23 57.464C1077.96 57.144 1078.71 56.984 1079.46 56.984C1081 56.984 1082.22 57.488 1083.13 58.496C1084.04 59.504 1084.5 60.816 1084.5 62.432C1084.5 64.112 1083.99 65.496 1082.96 66.584C1081.92 67.672 1080.59 68.216 1078.96 68.216C1077.5 68.216 1076.35 67.912 1075.5 67.304V72.8ZM1079.12 58.16C1078.42 58.16 1077.73 58.32 1077.06 58.64C1076.4 58.96 1075.88 59.36 1075.5 59.84V66.056C1076.49 66.712 1077.61 67.04 1078.86 67.04C1080.14 67.04 1081.18 66.616 1081.98 65.768C1082.78 64.92 1083.18 63.832 1083.18 62.504C1083.18 61.176 1082.82 60.12 1082.1 59.336C1081.38 58.552 1080.39 58.16 1079.12 58.16ZM1095.99 59L1088.79 68H1087.54V57.2H1088.79V66.2L1095.99 57.2H1097.24V68H1095.99V59ZM1105.46 57.2H1108.67V68H1107.43V63.968H1104.74L1101.64 68H1100.11L1103.51 63.68C1102.79 63.568 1102.18 63.232 1101.67 62.672C1101.17 62.096 1100.92 61.408 1100.92 60.608C1100.92 59.568 1101.3 58.744 1102.05 58.136C1102.8 57.512 1103.94 57.2 1105.46 57.2ZM1102.24 60.632C1102.24 61.272 1102.49 61.792 1102.99 62.192C1103.48 62.592 1104.01 62.792 1104.57 62.792H1107.43V58.376H1105.24C1104.25 58.376 1103.5 58.584 1102.99 59C1102.49 59.4 1102.24 59.944 1102.24 60.632ZM1115.17 58.448H1110.87V57.2H1120.71V58.448H1116.41V68H1115.17V58.448ZM1131.36 59L1124.16 68H1122.91V57.2H1124.16V66.2L1131.36 57.2H1132.6V68H1131.36V59ZM1144.93 65.72L1145.34 66.68C1144.36 67.704 1143.03 68.216 1141.35 68.216C1139.62 68.216 1138.24 67.704 1137.2 66.68C1136.14 65.656 1135.62 64.296 1135.62 62.6C1135.62 60.968 1136.1 59.624 1137.06 58.568C1138.03 57.512 1139.38 56.984 1141.09 56.984C1142.48 56.984 1143.65 57.432 1144.59 58.328C1145.52 59.208 1145.98 60.384 1145.98 61.856C1145.98 62.24 1145.96 62.576 1145.91 62.864H1137.01C1137.06 64.16 1137.48 65.184 1138.28 65.936C1139.08 66.672 1140.13 67.04 1141.42 67.04C1142.93 67.04 1144.1 66.6 1144.93 65.72ZM1140.97 58.16C1139.82 58.16 1138.88 58.496 1138.16 59.168C1137.46 59.84 1137.05 60.728 1136.94 61.832H1144.71C1144.7 60.696 1144.35 59.8 1143.68 59.144C1143.01 58.488 1142.1 58.16 1140.97 58.16Z" fill="#141414"/>
<rect x="909" y="239" width="297" height="89" rx="8" fill="#F6F4F2"/>
<path d="M961.359 290H960.039V273.2H961.383L968.151 282.416L974.655 273.2H975.927V290H974.607V275.264L968.151 284.336H967.935L961.359 275.336V290ZM985.378 290.216C983.714 290.216 982.354 289.688 981.298 288.632C980.242 287.576 979.714 286.232 979.714 284.6C979.714 282.968 980.242 281.624 981.298 280.568C982.354 279.512 983.714 278.984 985.378 278.984C987.042 278.984 988.402 279.512 989.458 280.568C990.514 281.624 991.042 282.968 991.042 284.6C991.042 286.232 990.514 287.576 989.458 288.632C988.402 289.688 987.042 290.216 985.378 290.216ZM985.378 289.04C986.674 289.04 987.714 288.632 988.498 287.816C989.314 286.984 989.722 285.912 989.722 284.6C989.722 283.304 989.314 282.24 988.498 281.408C987.682 280.576 986.642 280.16 985.378 280.16C984.13 280.16 983.09 280.576 982.258 281.408C981.442 282.24 981.034 283.304 981.034 284.6C981.034 285.896 981.442 286.96 982.258 287.792C983.074 288.624 984.114 289.04 985.378 289.04ZM1002.64 272.96L1003.34 273.896C1002.97 274.424 1002.52 274.784 1002 274.976C1001.34 275.168 1000.64 275.32 999.907 275.432C999.075 275.544 998.323 275.752 997.651 276.056C995.811 276.84 994.779 278.888 994.555 282.2H994.603C994.971 281.32 995.587 280.616 996.451 280.088C997.315 279.544 998.251 279.272 999.259 279.272C1000.83 279.272 1002.08 279.768 1003 280.76C1003.93 281.736 1004.4 283.048 1004.4 284.696C1004.4 286.216 1003.88 287.52 1002.84 288.608C1001.81 289.68 1000.51 290.216 998.923 290.216C997.227 290.216 995.859 289.624 994.819 288.44C993.811 287.256 993.307 285.632 993.307 283.568C993.307 278.832 994.627 275.928 997.267 274.856C997.939 274.584 998.683 274.384 999.499 274.256C1000.46 274.096 1001.15 273.944 1001.56 273.8C1001.98 273.64 1002.34 273.36 1002.64 272.96ZM994.627 283.784C994.627 285.4 995.019 286.68 995.803 287.624C996.587 288.568 997.611 289.04 998.875 289.04C1000.09 289.04 1001.09 288.624 1001.88 287.792C1002.68 286.944 1003.08 285.928 1003.08 284.744C1003.08 283.448 1002.71 282.408 1001.97 281.624C1001.24 280.84 1000.24 280.448 998.971 280.448C997.835 280.448 996.867 280.784 996.067 281.456C995.299 282.128 994.819 282.904 994.627 283.784ZM1015.86 281L1008.66 290H1007.41V279.2H1008.66V288.2L1015.86 279.2H1017.11V290H1015.86V281ZM1029.74 290H1028.5V280.448H1023.94L1023.79 282.8C1023.58 285.84 1023.08 287.856 1022.28 288.848C1021.64 289.68 1020.85 290.096 1019.9 290.096L1019.81 288.872C1020.22 288.872 1020.62 288.68 1020.98 288.296C1021.86 287.48 1022.4 285.568 1022.59 282.56L1022.76 279.2H1029.74V290ZM1036.71 290H1033.54V279.2H1034.79V282.824H1036.88C1039.73 282.824 1041.15 284.008 1041.15 286.376C1041.15 287.496 1040.78 288.384 1040.05 289.04C1039.33 289.68 1038.22 290 1036.71 290ZM1036.66 284H1034.79V288.824H1036.64C1037.76 288.824 1038.57 288.624 1039.06 288.224C1039.58 287.824 1039.83 287.216 1039.83 286.4C1039.83 284.8 1038.78 284 1036.66 284ZM1053.53 290H1052.28V285.104H1045.27V290H1044.02V279.2H1045.27V283.928H1052.28V279.2H1053.53V290ZM1057.65 281L1057.31 279.968C1058.38 279.312 1059.53 278.984 1060.74 278.984C1062.15 278.984 1063.17 279.336 1063.79 280.04C1064.43 280.744 1064.75 281.832 1064.75 283.304V290H1063.5V288.344C1062.62 289.544 1061.39 290.144 1059.81 290.144C1058.8 290.144 1057.99 289.856 1057.38 289.28C1056.77 288.688 1056.47 287.904 1056.47 286.928C1056.47 285.872 1056.85 285.048 1057.62 284.456C1058.37 283.864 1059.36 283.568 1060.57 283.568C1061.79 283.568 1062.77 283.84 1063.5 284.384C1063.5 283.264 1063.42 282.408 1063.26 281.816C1063.13 281.24 1062.87 280.832 1062.47 280.592C1062.09 280.352 1061.49 280.208 1060.67 280.16C1059.69 280.16 1058.69 280.44 1057.65 281ZM1060.19 288.968C1061.53 288.968 1062.64 288.4 1063.5 287.264V285.464C1062.72 284.888 1061.78 284.6 1060.69 284.6C1059.88 284.6 1059.19 284.8 1058.63 285.2C1058.07 285.6 1057.79 286.152 1057.79 286.856C1057.79 287.496 1058.01 288.008 1058.46 288.392C1058.91 288.776 1059.49 288.968 1060.19 288.968ZM1072.77 279.2H1075.98V290H1074.73V285.968H1072.05L1068.95 290H1067.41L1070.82 285.68C1070.1 285.568 1069.49 285.232 1068.97 284.672C1068.48 284.096 1068.23 283.408 1068.23 282.608C1068.23 281.568 1068.61 280.744 1069.36 280.136C1070.11 279.512 1071.25 279.2 1072.77 279.2ZM1069.55 282.632C1069.55 283.272 1069.8 283.792 1070.29 284.192C1070.79 284.592 1071.32 284.792 1071.88 284.792H1074.73V280.376H1072.55C1071.56 280.376 1070.81 280.584 1070.29 281C1069.8 281.4 1069.55 281.944 1069.55 282.632ZM1085.41 290V279.2C1085.94 279.2 1086.45 279.192 1086.95 279.176C1087.97 279.144 1088.62 279.128 1088.89 279.128C1091.87 279.128 1093.36 280.056 1093.36 281.912C1093.36 282.536 1093.16 283.08 1092.76 283.544C1092.37 283.992 1091.84 284.272 1091.17 284.384V284.432C1092.9 284.688 1093.76 285.552 1093.76 287.024C1093.76 289.056 1092.16 290.072 1088.94 290.072C1088.73 290.072 1088.1 290.056 1087.04 290.024C1086.52 290.008 1085.97 290 1085.41 290ZM1089.25 285.032H1086.66V288.848C1087.91 288.88 1088.72 288.896 1089.08 288.896C1091.32 288.896 1092.44 288.232 1092.44 286.904C1092.44 285.656 1091.38 285.032 1089.25 285.032ZM1089.04 280.304C1088.51 280.304 1087.72 280.32 1086.66 280.352V284H1089.52C1090.3 284 1090.92 283.832 1091.36 283.496C1091.81 283.144 1092.04 282.68 1092.04 282.104C1092.04 280.904 1091.04 280.304 1089.04 280.304ZM1105.51 287.72L1105.92 288.68C1104.94 289.704 1103.61 290.216 1101.93 290.216C1100.21 290.216 1098.82 289.704 1097.78 288.68C1096.73 287.656 1096.2 286.296 1096.2 284.6C1096.2 282.968 1096.68 281.624 1097.64 280.568C1098.61 279.512 1099.96 278.984 1101.67 278.984C1103.06 278.984 1104.23 279.432 1105.17 280.328C1106.1 281.208 1106.57 282.384 1106.57 283.856C1106.57 284.24 1106.54 284.576 1106.49 284.864H1097.59C1097.64 286.16 1098.06 287.184 1098.86 287.936C1099.66 288.672 1100.71 289.04 1102.01 289.04C1103.51 289.04 1104.68 288.6 1105.51 287.72ZM1101.55 280.16C1100.4 280.16 1099.46 280.496 1098.74 281.168C1098.04 281.84 1097.63 282.728 1097.52 283.832H1105.29C1105.28 282.696 1104.93 281.8 1104.26 281.144C1103.59 280.488 1102.69 280.16 1101.55 280.16ZM1110.8 294.8H1109.55V279.2H1110.8V280.64C1111.23 280.16 1111.81 279.768 1112.53 279.464C1113.26 279.144 1114.01 278.984 1114.76 278.984C1116.3 278.984 1117.52 279.488 1118.43 280.496C1119.34 281.504 1119.8 282.816 1119.8 284.432C1119.8 286.112 1119.29 287.496 1118.26 288.584C1117.22 289.672 1115.89 290.216 1114.26 290.216C1112.8 290.216 1111.65 289.912 1110.8 289.304V294.8ZM1114.42 280.16C1113.72 280.16 1113.03 280.32 1112.36 280.64C1111.7 280.96 1111.18 281.36 1110.8 281.84V288.056C1111.79 288.712 1112.91 289.04 1114.16 289.04C1115.44 289.04 1116.48 288.616 1117.28 287.768C1118.08 286.92 1118.48 285.832 1118.48 284.504C1118.48 283.176 1118.12 282.12 1117.4 281.336C1116.68 280.552 1115.69 280.16 1114.42 280.16ZM1131.24 287.552L1131.87 288.464C1131.43 289.024 1130.85 289.456 1130.11 289.76C1129.39 290.064 1128.62 290.216 1127.79 290.216C1126.11 290.216 1124.73 289.704 1123.66 288.68C1122.6 287.656 1122.07 286.296 1122.07 284.6C1122.07 283.016 1122.59 281.688 1123.61 280.616C1124.65 279.528 1125.93 278.984 1127.45 278.984C1129.31 278.984 1130.71 279.432 1131.65 280.328L1131.05 281.336C1130.2 280.552 1129.07 280.16 1127.64 280.16C1126.49 280.16 1125.49 280.584 1124.64 281.432C1123.81 282.264 1123.39 283.32 1123.39 284.6C1123.39 285.944 1123.82 287.024 1124.67 287.84C1125.51 288.64 1126.59 289.04 1127.88 289.04C1129.27 289.04 1130.39 288.544 1131.24 287.552ZM1143.05 281L1135.85 290H1134.61V279.2H1135.85V288.2L1143.05 279.2H1144.3V290H1143.05V281ZM1152.52 279.2H1155.74V290H1154.49V285.968H1151.8L1148.71 290H1147.17L1150.58 285.68C1149.86 285.568 1149.24 285.232 1148.73 284.672C1148.24 284.096 1147.99 283.408 1147.99 282.608C1147.99 281.568 1148.36 280.744 1149.12 280.136C1149.87 279.512 1151 279.2 1152.52 279.2ZM1149.31 282.632C1149.31 283.272 1149.56 283.792 1150.05 284.192C1150.55 284.592 1151.08 284.792 1151.64 284.792H1154.49V280.376H1152.31C1151.32 280.376 1150.56 280.584 1150.05 281C1149.56 281.4 1149.31 281.944 1149.31 282.632Z" fill="#141414"/>
<rect x="561" y="239" width="144" height="89" rx="8" fill="#F6F4F2"/>
<path d="M619.709 285.824C619.709 285.088 619.493 284.456 619.061 283.928C618.629 283.4 618.093 283 617.453 282.728C616.813 282.456 616.117 282.16 615.365 281.84C614.613 281.504 613.917 281.176 613.277 280.856C612.637 280.536 612.101 280.064 611.669 279.44C611.237 278.8 611.021 278.048 611.021 277.184C611.021 275.968 611.461 274.968 612.341 274.184C613.237 273.384 614.437 272.984 615.941 272.984C617.909 272.984 619.413 273.552 620.453 274.688L619.733 275.672C618.773 274.712 617.525 274.232 615.989 274.232C614.885 274.232 614.013 274.504 613.373 275.048C612.733 275.576 612.413 276.288 612.413 277.184C612.413 277.904 612.629 278.528 613.061 279.056C613.493 279.568 614.029 279.952 614.669 280.208C615.309 280.464 616.005 280.752 616.757 281.072C617.509 281.376 618.205 281.688 618.845 282.008C619.485 282.328 620.021 282.816 620.453 283.472C620.885 284.112 621.101 284.888 621.101 285.8C621.101 287.112 620.589 288.176 619.565 288.992C618.541 289.808 617.269 290.216 615.749 290.216C614.709 290.216 613.685 290 612.677 289.568C611.685 289.104 610.989 288.512 610.589 287.792L611.381 286.88C611.861 287.504 612.501 288.008 613.301 288.392C614.101 288.776 614.909 288.968 615.725 288.968C616.813 288.968 617.749 288.688 618.533 288.128C619.317 287.584 619.709 286.816 619.709 285.824ZM626.379 290H625.059V273.2H626.403L633.171 282.416L639.675 273.2H640.947V290H639.627V275.264L633.171 284.336H632.955L626.379 275.336V290ZM654.021 285.824C654.021 285.088 653.805 284.456 653.373 283.928C652.941 283.4 652.405 283 651.765 282.728C651.125 282.456 650.429 282.16 649.677 281.84C648.925 281.504 648.229 281.176 647.589 280.856C646.949 280.536 646.413 280.064 645.981 279.44C645.549 278.8 645.333 278.048 645.333 277.184C645.333 275.968 645.773 274.968 646.653 274.184C647.549 273.384 648.749 272.984 650.253 272.984C652.221 272.984 653.725 273.552 654.765 274.688L654.045 275.672C653.085 274.712 651.837 274.232 650.301 274.232C649.197 274.232 648.325 274.504 647.685 275.048C647.045 275.576 646.725 276.288 646.725 277.184C646.725 277.904 646.941 278.528 647.373 279.056C647.805 279.568 648.341 279.952 648.981 280.208C649.621 280.464 650.317 280.752 651.069 281.072C651.821 281.376 652.517 281.688 653.157 282.008C653.797 282.328 654.333 282.816 654.765 283.472C655.197 284.112 655.413 284.888 655.413 285.8C655.413 287.112 654.901 288.176 653.877 288.992C652.853 289.808 651.581 290.216 650.061 290.216C649.021 290.216 647.997 290 646.989 289.568C645.997 289.104 645.301 288.512 644.901 287.792L645.693 286.88C646.173 287.504 646.813 288.008 647.613 288.392C648.413 288.776 649.221 288.968 650.037 288.968C651.125 288.968 652.061 288.688 652.845 288.128C653.629 287.584 654.021 286.816 654.021 285.824Z" fill="#141414"/>
</svg>
