<svg width="635" height="108" viewBox="0 0 635 108" fill="none" xmlns="http://www.w3.org/2000/svg">
<path d="M269.321 26.0206C268.068 26.2215 264.96 27.6782 264.309 31.3452C266.765 28.0299 267.216 27.8792 268.519 27.2764C272.278 25.4178 278.895 29.0847 282.053 29.0345C282.103 28.8838 282.153 28.8336 282.153 28.6829C277.642 27.7285 274.434 25.2168 269.321 26.0206ZM269.221 28.281C266.765 29.135 264.359 31.8475 265.812 34.2587C267.366 36.8205 271.075 35.3638 272.429 33.9573C273.832 32.5508 274.484 29.3359 278.694 30.2903C278.995 30.0894 279.396 30.6419 279.547 30.0894C277.141 28.2308 272.679 27.628 269.221 28.281ZM305.812 29.3861C305.311 28.4317 304.759 27.4773 304.208 26.5229C303.657 25.6689 303.105 24.815 302.504 23.961C293.632 11.2522 278.945 2.91357 262.354 2.91357C235.386 2.91357 213.432 24.9154 213.432 51.9406C213.432 78.9657 235.386 100.968 262.354 100.968C278.945 100.968 293.632 92.6289 302.504 79.9201C303.105 79.0661 303.657 78.2122 304.208 77.3582C304.759 76.454 305.311 75.4996 305.812 74.495C309.321 67.7136 311.326 60.0782 311.326 51.9406C311.326 43.8029 309.321 36.1675 305.812 29.3861ZM262.354 51.6894V42.9992C262.604 42.8987 263.657 45.3601 263.707 45.7117C265.01 52.694 264.008 54.4522 262.354 54.5024V51.6894ZM261.251 94.7387C238.193 94.1359 219.747 75.148 219.747 51.9406C219.697 28.4317 238.193 10.1471 261.301 9.19264V11.9554C261.301 11.9554 248.018 12.1061 237.692 20.8968C237.391 21.3489 237.692 21.6001 238.344 21.2485C239.046 20.8968 248.068 14.7685 256.99 16.7275C259.497 18.0838 261.301 22.0019 261.301 24.0112V28.0299C258.193 24.2624 250.725 21.4494 246.063 22.4038C244.71 22.7052 245.361 23.2578 245.612 23.3582C249.572 23.308 260.599 27.4271 261.301 33.2038V58.9229C264.409 59.0736 265.612 58.1694 266.263 57.5164C267.316 56.5117 268.419 54.0001 268.068 51.6392L266.915 52.041H266.865C266.414 55.6578 265.361 56.8633 262.354 57.7675V56.2606C264.459 56.0596 265.411 54.201 265.211 50.1824C265.01 46.3145 263.908 43.2503 262.304 40.0354V37.0717C263.857 40.1359 265.211 46.0633 266.263 47.068C267.065 46.7666 265.06 41.4922 264.359 39.4829C265.111 38.5787 266.464 41.5424 267.266 43.0996C268.72 46.7164 272.278 58.8726 266.514 60.7815C261.301 62.1378 257.391 61.535 255.837 59.2243C253.381 55.1554 258.444 50.1322 256.84 48.1731L255.487 35.615C254.484 26.8243 242.354 23.8103 237.542 29.4364C236.74 30.6922 237.843 30.2903 238.444 29.788C242.304 27.2764 250.825 26.774 253.231 34.108C253.782 35.5647 253.732 38.6289 252.078 34.6606C249.121 30.0392 244.81 27.9294 239.697 31.5964C238.845 32.1489 235.687 34.9117 234.635 33.4047C232.73 30.9433 237.041 27.4773 236.89 25.9703L236.239 26.3722C233.181 28.934 231.126 35.1629 233.081 40.0354C233.381 41.2912 234.785 42.4466 232.078 43.0494C226.314 45.1592 225.412 50.9359 225.412 53.2968C225.412 62.6903 233.331 73.4401 243.406 68.3666C245.512 67.0606 246.614 65.5536 247.366 64.5992L246.815 64.1471C231.126 80.5731 221.251 48.5247 234.334 46.5154C235.838 48.2736 238.043 50.3833 240.349 50.9359C244.91 51.9908 249.171 50.0819 254.033 43.2001C254.785 42.4466 254.985 43.1499 254.835 43.5517C254.334 46.1638 251.527 49.8308 251.025 50.8857C250.725 51.4885 250.975 52.2419 251.827 51.5387C252.93 50.0317 253.231 49.0271 254.183 48.8261L252.028 53.4475C251.226 54.7033 250.574 55.4066 252.68 55.1554C254.685 55.1554 253.782 56.1601 254.083 57.6671C255.938 60.3796 251.527 62.3889 251.126 58.521C251.126 57.1647 252.279 56.2103 251.477 55.9592C250.675 56.2103 249.622 58.1694 249.572 60.3796L247.567 63.3936L248.018 63.8959L250.274 60.7313C251.276 62.9917 254.985 61.7359 255.186 61.6857C255.988 61.7359 256.439 61.9368 256.89 62.4894C256.94 63.3433 257.441 63.5945 257.642 64.6996C258.845 65.9554 257.141 66.4578 256.088 66.8596C251.978 68.4168 251.727 70.8782 250.073 72.8875C248.97 74.2438 248.519 73.7917 247.517 74.7964C246.765 76.1024 248.519 76.655 248.87 77.308C249.371 78.3126 250.374 79.7192 251.827 80.3219C252.78 80.6233 253.331 80.8745 251.878 81.6782C250.825 82.3815 250.374 84.1899 250.374 84.7926C250.374 86.3499 250.725 88.3592 252.73 89.6652C251.527 89.3638 250.775 89.1126 249.622 88.6103C250.675 87.3043 249.722 86.9024 249.522 86.5508C249.071 86.6513 249.02 88.3592 246.865 87.6057C247.567 86.3499 251.978 81.2764 249.822 80.5229C248.068 83.4364 247.416 86.8019 243.657 86.1489C245.311 84.8931 247.868 83.5368 249.071 79.6689L248.469 79.468C247.015 82.4317 244.108 85.9982 240.65 84.2903C242.153 83.5871 243.156 82.934 243.958 82.281C244.66 81.6782 247.968 78.8652 246.765 78.2624C244.81 80.2215 240.499 84.7926 237.893 82.1303C239.396 81.7285 241 81.0754 242.254 80.2717C243.457 79.468 245.161 77.8103 246.113 77.2578L245.712 76.454C244.76 76.655 240.399 80.2215 239.447 80.4224C238.093 80.774 236.99 81.7285 235.036 79.6187C237.492 79.3675 239.797 78.6643 240.9 77.961C241.802 77.4085 245.01 75.8512 245.411 75.801L244.96 74.9973C242.705 75.7508 240.9 78.4131 235.988 78.4131C235.637 78.4131 233.732 78.3126 232.128 76.4038L232.178 76.3033C235.186 76.7554 237.642 76.7052 240.549 75.8512C241.953 75.3489 243.256 74.495 244.66 74.0931L244.208 73.0382C241.552 74.1936 239.597 75.4494 236.339 75.4494C232.68 75.4494 232.078 76.0019 229.873 73.0885C230.274 72.6364 232.98 73.9424 234.785 73.9424C238.795 73.9424 240.65 73.8419 244.008 72.2847L243.607 71.481C242.454 71.9833 239.797 72.7871 237.391 72.8373C231.878 72.8875 227.667 70.4261 227.366 68.1154C228.92 69.4215 231.276 71.0792 233.933 71.3303C235.988 71.5312 241.502 71.3303 243.457 70.5768L243.106 69.8233C242.053 70.2252 237.642 70.6271 236.339 70.6271C233.532 70.6271 230.424 68.6178 229.622 68.015C224.058 63.5443 222.454 50.0819 225.612 45.7619C226.264 43.6019 230.224 40.2866 230.173 39.6336C229.522 33.254 229.171 30.9936 234.033 24.2624C229.873 26.8243 226.815 32.5005 228.72 37.9257C229.572 40.3368 225.963 42.4466 224.91 44.1545C220.199 51.9406 222.354 60.2289 225.662 68.0652C237.241 92.7294 261.201 91.9759 261.201 91.9759L261.251 94.7387ZM262.354 16.4764V15.2206C263.757 15.3712 264.91 15.7229 266.213 16.0243C267.717 14.5173 263.005 14.4671 262.354 14.015V13.1108C265.712 12.9601 269.07 13.4624 272.329 14.3666L272.228 14.668C269.471 14.8689 266.965 16.7275 264.81 18.988C264.609 19.1889 264.359 19.9424 263.607 19.9424C262.855 19.8922 262.554 19.641 262.304 18.988V17.3806C263.055 17.3806 264.509 18.335 264.659 17.2299C263.607 16.6773 263.256 16.9285 262.354 16.4764ZM296.94 38.0261C297.291 38.1266 298.343 38.4782 298.795 38.8801C298.895 38.9806 298.945 39.0308 298.995 39.1312L299.296 40.1359C299.045 40.0354 298.795 39.8847 298.544 39.7843C297.942 39.4326 297.491 39.2317 297.09 40.0354C297.592 40.2364 297.993 40.4373 298.343 40.588C299.045 40.9899 299.396 41.3917 299.697 41.6429C299.747 41.9443 299.998 42.3964 300.048 42.8485C299.346 42.8485 298.644 42.1954 297.993 42.0447C297.742 41.9945 297.541 41.9945 297.341 42.095V42.1452L297.291 42.5471C297.441 42.5973 297.642 42.6978 297.842 42.7982C298.644 43.2503 299.797 44.1043 300.298 44.8578C300.499 45.1592 300.599 45.4103 300.499 45.6615C300.399 45.6615 300.298 45.6615 300.198 45.6112C299.346 45.4103 298.394 44.3052 297.792 44.7573C297.792 45.2596 298.043 45.5108 298.193 45.6615C298.795 46.3145 299.496 46.5154 300.048 46.8168C300.649 47.1685 301.05 47.5703 300.95 48.8261C300.499 48.7257 300.198 48.6252 299.897 48.4745C299.446 48.2736 298.995 48.0726 297.993 47.6708C297.14 48.1229 298.594 49.0271 299.246 49.1778C299.446 49.228 299.647 49.3285 299.847 49.4289C300.449 49.7303 301.05 50.2326 301.05 50.5843L301.1 51.9908C300.699 51.8401 300.198 51.5889 299.747 51.3378C298.945 50.9359 298.143 50.5843 297.391 51.0866C297.391 52.0912 298.694 52.0913 299.747 52.6438C300.499 53.0457 301.15 53.7489 300.95 55.3564C300.549 55.4066 300.198 55.3061 299.897 55.1554C299.145 54.7536 298.544 54.0503 297.842 54.0503L297.592 55.0047C298.394 55.4568 299.196 56.2605 300.048 56.8633C300.298 57.014 300.499 57.1647 300.749 57.2652L300.499 58.7219C300.449 58.7219 300.348 58.6717 300.298 58.6717C299.496 58.3703 298.143 57.0643 297.642 57.0643C297.491 57.215 297.391 57.3657 297.341 57.5164C297.241 57.7675 297.241 57.9685 297.441 58.2196C297.441 58.2196 297.441 58.2699 297.491 58.2699C297.491 58.3201 299.296 59.7266 300.298 60.1787C299.947 62.5396 298.895 62.0373 297.993 61.334C297.09 60.681 296.288 59.8773 296.288 61.2336C296.79 61.8364 297.642 62.3387 298.343 62.9415C298.694 63.2429 298.995 63.5443 299.246 63.9461C299.095 64.3982 298.995 64.6996 298.845 65.0513C298.795 65.2019 298.694 65.4029 298.644 65.5536C297.592 64.6494 296.489 63.7452 295.436 62.9415C292.178 60.4299 288.82 58.4206 284.81 56.7126C285.461 54.4019 292.83 58.6215 292.83 59.0736C293.03 58.6215 293.281 58.5713 293.381 58.2196C292.629 57.6671 288.469 54.9545 287.316 54.8038C287.266 54.6531 288.168 53.7992 288.268 53.548C288.569 53.4978 290.825 54.3517 291.125 54.5024C292.078 53.3471 289.772 53.2466 289.12 52.3424C289.471 51.9908 289.572 51.5889 289.772 51.0364C290.323 51.2373 291.025 52.0912 291.526 51.7396C291.777 51.4382 291.777 51.2373 291.677 50.9359C289.822 49.7303 290.123 50.534 290.574 48.3238C293.08 48.575 292.178 47.8215 290.875 47.1182L291.125 45.6112C291.677 45.8122 292.729 46.0131 292.429 45.0085C292.028 44.8075 291.877 44.908 291.326 44.4559C291.526 44.0038 291.577 43.6019 291.627 42.9489C292.028 42.7982 292.278 42.8987 292.629 42.748C292.729 42.0447 292.128 42.0447 291.727 41.6931C291.827 41.241 291.777 40.8894 291.777 40.3871L292.729 40.5378C292.93 40.5378 293.181 39.734 292.83 39.6336C292.228 39.4326 291.075 38.8801 290.674 38.2271C294.283 38.7294 294.684 37.0215 296.489 35.9164C296.539 35.8661 296.689 35.8661 296.89 35.9164C297.241 35.9666 297.692 36.1173 297.942 36.3182L298.444 37.4233C297.942 37.574 297.14 37.0717 296.79 37.1219C296.589 37.8754 296.94 37.8754 296.94 38.0261ZM271.727 81.0252C272.128 80.5229 272.429 80.0708 272.679 79.5182C275.336 81.9294 276.038 85.6968 276.038 88.4094C275.336 88.5601 274.584 88.9117 273.832 89.1126C274.484 85.9982 273.381 83.5368 271.727 81.0252ZM262.354 82.0299C266.815 82.2308 269.722 83.135 269.822 85.7471C269.923 88.5601 266.514 89.6652 262.354 89.8159V88.8112C257.542 88.6606 255.336 87.9573 255.336 85.6968C255.336 83.2354 258.143 82.934 262.354 83.0847V82.0299ZM270.374 57.4661C273.381 55.1554 276.138 60.028 272.98 62.2885C270.073 64.9508 266.815 64.9508 263.106 64.9508C263.005 68.8187 269.421 72.6866 272.88 71.5815C278.394 71.0792 281.752 64.2475 285.562 66.6587C286.865 67.4624 286.263 68.5173 287.216 69.4717C287.968 69.4215 287.968 68.9694 288.118 68.4168C285.662 66.8094 289.421 63.7954 284.058 63.3433C281.802 63.1424 280.95 59.4754 275.637 60.8819C278.093 57.4159 284.208 57.7675 286.414 59.2243C292.228 63.0922 288.318 73.8419 286.815 72.6866C286.664 65.7545 273.882 74.6457 271.777 73.9424C267.065 73.3899 264.359 69.6726 262.404 69.321H261.401V71.8326C258.895 71.6317 260.098 70.9285 257.391 70.9285C254.634 70.9285 254.735 71.9331 252.228 73.0885C254.033 69.321 254.534 68.3164 256.94 68.0652C257.792 68.0652 262.253 69.4215 262.454 68.1657V62.6903C266.314 62.8913 267.567 61.7861 269.471 59.9275C269.872 60.5303 271.527 61.7359 272.178 60.8317C271.577 59.9275 269.171 60.6308 270.374 57.4661ZM286.514 37.1219L288.218 37.4736C288.82 39.6838 289.321 44.6568 283.807 47.068C279.496 48.9768 275.035 46.0131 273.131 42.9489L274.885 42.3964C275.887 44.3052 279.847 47.0178 283.206 45.4103C286.865 43.7024 286.765 40.3871 286.514 37.1219ZM282.654 37.6745C283.406 37.2224 283.907 37.1722 284.659 37.2224C286.163 41.8438 284.359 43.7024 282.704 44.4057C280.048 45.4606 277.692 43.8531 276.288 41.894C276.689 41.5926 277.642 40.6885 278.093 40.6382C278.644 42.6475 280.248 43.0996 281.802 42.5973C283.557 41.9945 284.409 39.6336 282.654 37.6745ZM275.386 41.241C272.629 42.4466 270.474 41.4922 268.92 40.6382C275.537 39.734 275.336 37.574 279.496 34.761C281 34.1582 284.258 34.8112 285.261 35.9666C277.491 36.7201 279.847 39.2819 275.386 41.241ZM280.599 48.8261C286.163 49.0773 288.77 46.1638 290.273 41.0903H290.474C290.374 44.8578 287.968 49.1778 282.704 49.6801C273.732 50.5843 267.416 41.0401 267.416 41.0401L267.517 40.7387C272.679 45.1592 275.436 48.575 280.599 48.8261ZM277.04 50.4838C281.201 52.041 287.466 49.1778 289.973 46.2643C288.369 49.2782 284.359 51.9908 279.296 51.8903C277.441 51.8903 272.429 50.1824 269.07 45.7619C269.321 45.7117 275.286 50.534 277.04 50.4838ZM279.797 65.654C278.394 66.0057 275.787 64.1973 275.386 62.9917C275.887 62.841 276.238 62.841 276.94 63.1424C278.193 63.7452 277.241 64.3982 279.797 65.654ZM277.742 61.7359C280.098 61.9368 279.296 62.841 281.652 63.9461C280.449 64.0466 277.842 63.1926 277.742 61.7359ZM267.667 65.9554C268.319 65.9554 269.321 66.0559 269.722 66.5582C270.374 67.3619 271.075 68.6178 274.133 69.9238C271.276 70.175 267.216 66.9601 267.667 65.9554ZM270.374 70.2754C270.574 70.4261 266.213 69.2708 264.409 66.2568C264.96 66.3071 265.862 66.2066 266.464 66.7592C267.116 67.3619 267.316 68.1657 270.374 70.2754ZM270.023 65.2019C270.524 65.2019 271.928 65.2019 272.278 65.654C272.73 66.2568 274.233 67.8643 276.288 68.5173C274.684 69.1703 270.574 66.3071 270.023 65.2019ZM272.78 64.0466C273.431 63.9964 273.983 63.7954 274.634 64.1973C275.186 64.5489 274.684 65.2522 278.043 67.3117C276.74 67.5126 273.08 65.4029 272.78 64.0466ZM271.226 52.3926C271.677 52.3926 275.336 55.3564 279.146 55.5071C282.153 55.6578 285.762 54.9545 287.065 53.1461H287.166C286.213 55.3564 281.852 56.6624 278.945 56.5619C277.491 56.4615 272.73 54.7536 271.226 52.3926ZM279.446 54.1508C276.439 53.8996 272.679 52.2419 270.725 49.3285H270.775C273.882 51.8401 276.94 53.0959 279.797 53.0959C283.356 53.0959 285.11 52.041 288.92 49.8308C287.216 52.2922 282.955 53.8996 279.446 54.1508ZM280.048 72.4857C281.201 71.481 281.702 71.4308 282.905 71.481C283.807 74.3945 282.805 77.7099 281.151 78.2624C281.902 74.5452 280.349 74.1936 280.048 72.4857ZM277.491 77.4587C276.689 76.3033 276.489 75.7006 275.436 74.5954C276.339 74.4447 277.141 74.0931 277.993 73.9424C278.293 74.6457 278.394 76.1024 277.491 77.4587ZM265.01 73.3396C264.459 76.8559 263.055 73.4401 263.256 72.3852C263.807 72.7871 264.409 72.988 265.01 73.3396ZM253.131 76.4038C253.883 74.4447 256.138 74.0931 262.253 75.8512C264.76 76.0019 269.171 74.7964 271.276 76.7554C272.028 77.4587 271.376 78.815 270.524 80.774H258.294C255.035 80.7238 251.677 79.4178 253.131 76.4038ZM272.429 85.9982C272.93 87.7564 272.88 88.5099 272.73 89.4643C270.023 90.1173 267.416 90.5694 264.559 90.7201C269.271 89.8159 271.226 89.2131 272.429 85.9982ZM274.133 79.1666L276.74 79.5685C277.993 81.0252 278.694 82.3815 279.346 86.9526C278.694 87.3545 278.043 87.5554 277.341 87.8066C277.291 84.9433 276.138 81.7285 274.133 79.1666ZM278.594 79.7192C278.494 79.468 279.948 79.5685 280.95 79.3173C281.852 81.2261 282.554 82.4819 282.504 85.0438C281.852 85.4959 281.301 85.8978 280.499 86.2494C280.449 82.4819 279.647 81.9294 278.594 79.7192ZM282.003 78.9154C282.704 78.7647 283.055 78.614 283.607 78.1619C284.308 79.3675 285.11 81.8289 285.06 83.5871C284.559 83.7378 284.008 84.441 283.506 84.6922C283.506 83.0847 283.055 80.9247 282.003 78.9154ZM284.559 77.5592C284.81 77.4085 285.862 76.4038 285.912 76.4038C287.216 77.961 287.366 79.2671 287.717 81.2764C287.617 81.6782 286.514 82.3312 286.213 82.4819C286.163 80.6233 285.912 79.468 284.559 77.5592ZM286.865 75.1982C287.216 74.7964 287.617 74.5954 287.968 73.8419C289.371 75.5499 289.922 76.8559 290.323 78.9154C289.822 79.5182 289.371 79.9703 288.82 80.4224C288.519 77.8606 288.218 76.9564 286.865 75.1982ZM288.82 73.0382C289.321 72.5359 289.471 72.335 289.722 71.6819C291.125 72.8875 292.078 74.1936 292.679 75.8512L291.376 77.308C291.276 77.3582 290.173 74.3443 288.82 73.0382ZM290.374 70.6773C290.724 69.974 290.724 69.6224 290.875 68.668C293.03 70.0243 294.333 72.335 294.835 73.2894C294.584 73.7415 294.183 74.1936 293.582 74.8968C292.479 72.7368 291.978 72.1843 290.374 70.6773ZM291.125 67.0103V65.3024C292.629 65.654 295.436 68.3666 296.589 70.175C296.188 70.9787 295.887 71.5815 295.486 72.2345L295.386 72.1843C294.584 70.4764 292.88 68.1657 291.125 67.0103ZM290.624 63.3433C290.624 62.5396 290.223 61.4345 289.973 60.7313C291.927 61.1331 294.183 63.3936 295.937 64.9508C296.088 65.1015 296.238 65.202 296.389 65.3526V65.5033C298.494 67.4122 297.942 67.7136 297.191 69.0196C297.14 69.0698 297.09 69.1703 297.09 69.2206C296.238 67.3117 292.228 64.2978 290.624 63.3433ZM291.727 37.1722C290.574 37.0717 289.822 36.7201 289.02 36.0671C289.02 35.9164 289.02 35.8159 289.07 35.7154C291.526 35.7657 294.734 34.2587 295.436 31.7471C295.837 32.1489 296.238 33.0029 296.639 33.8066C295.737 36.0168 294.233 37.1722 291.727 37.1722ZM288.719 34.6606C287.817 34.5601 285.11 34.0578 284.96 32.9024C286.514 30.8931 291.226 32.8522 292.328 27.1759C293.08 28.2308 294.333 29.9889 294.835 30.6419C293.481 33.7564 290.273 34.6606 288.719 34.6606ZM283.607 32.0485C278.444 32.4001 277.491 36.1173 272.73 38.8299C268.669 40.3368 263.005 38.8299 262.454 34.1582C261.451 25.7694 269.973 23.4587 276.339 25.4178C282.003 27.3768 285.211 28.1806 290.925 26.8243C289.12 31.9982 285.11 31.4457 283.607 32.0485ZM287.617 25.8699C287.065 25.2168 288.719 24.1117 289.12 23.8606L290.724 25.3173C290.524 26.0206 288.218 25.8699 287.617 25.8699ZM286.213 25.6689L285.762 25.8196C284.76 25.3675 286.063 22.3033 286.614 21.6503L288.018 22.7554C288.719 23.308 287.115 24.4131 286.213 25.6689ZM284.81 24.0615C284.81 24.3629 284.359 24.2624 283.807 23.7601C283.105 22.1526 283.657 21.148 284.609 20.2438L285.812 21.0475C284.91 22.1526 284.659 22.7554 284.81 24.0615ZM283.105 20.9973C283.105 22.3033 282.554 21.6001 282.303 21.4996C281.852 20.8968 281.552 19.7917 282.504 18.7368C283.105 19.0885 283.406 19.2894 283.857 19.7415C283.306 19.9926 283.005 20.4447 283.105 20.9973ZM282.654 24.9657C272.73 21.9517 270.524 22.3033 263.958 26.2215C265.512 24.2624 270.023 22.0019 271.577 21.6503C275.537 20.6457 277.892 20.6457 281.552 23.1071C282.404 23.961 282.654 24.5638 282.654 24.9657ZM279.496 19.7415C274.935 19.5406 273.281 19.641 271.075 20.3443C269.121 20.9471 266.314 21.5499 263.356 25.468H263.256C262.304 26.4224 262.253 25.4178 262.705 24.5136C264.659 18.2847 271.627 13.6633 278.143 16.4261C279.496 17.1796 281.401 18.7368 279.496 19.7415ZM240.75 47.1182C243.707 48.575 245.411 47.8717 247.467 47.1685C248.018 46.7164 248.72 46.6159 249.071 46.6159C249.923 47.5703 245.311 49.2782 243.557 48.9266C239.046 48.575 235.186 44.8075 236.188 40.8894C236.94 39.8847 238.444 44.3052 240.9 44.908C245.061 46.7164 249.221 43.0494 250.023 41.5424C250.574 40.4875 251.727 40.2866 252.279 40.8392C251.777 43.6522 248.97 45.2094 247.717 46.0131C245.211 47.4699 242.404 47.3192 240.95 46.4652C240.399 46.3647 240.148 46.7666 240.75 47.1182ZM243.908 35.2633C250.374 35.414 251.627 43.4512 243.557 43.7526C240.95 43.401 240.098 41.9945 239.898 40.5378C240.148 39.0308 240.75 38.9303 241.802 38.8299C239.697 42.748 248.118 43.7526 247.416 38.7796C247.667 38.6792 247.617 38.5285 247.667 38.3275C247.667 38.3275 247.416 38.1768 247.266 38.0764C245.061 36.4689 243.607 36.8708 240.65 37.574C240.499 37.8252 238.193 38.428 237.692 38.5285V38.4782C235.687 38.1768 234.985 37.0215 234.484 35.3638C238.544 37.3229 240.299 32.3499 243.807 31.7471C248.369 30.8931 250.374 34.761 251.577 38.1266C251.727 39.6838 250.725 39.4326 250.324 38.2773C249.472 34.8112 247.617 33.6057 243.908 33.9573V35.2633ZM261.351 90.3182C256.589 90.4187 251.727 88.8615 251.627 85.7471C251.928 82.3815 255.787 81.3768 261.351 81.4773V82.3815C258.093 82.3815 253.632 82.4819 253.532 85.5964C253.431 89.1126 258.745 89.3136 261.351 89.3136V90.3182ZM304.208 71.4308C303.707 72.4857 303.206 73.5406 302.604 74.5452C302.053 75.4996 301.501 76.4038 300.9 77.308C292.629 89.8661 278.444 98.1545 262.354 98.1545V96.1954V94.7387C277.943 94.7387 291.627 86.2996 299.095 73.7415C299.697 72.7368 300.248 71.6819 300.8 70.6271C301.401 69.4215 301.902 68.1657 302.404 66.9099C304.158 62.2382 305.11 57.1647 305.11 51.8903C305.11 46.6159 304.158 41.5424 302.404 36.8708C301.902 35.615 301.401 34.3592 300.8 33.1536C300.298 32.0987 299.697 31.0438 299.095 30.0392C291.627 17.481 277.943 9.04195 262.354 9.04195V7.68567V5.67636C278.444 5.67636 292.629 14.015 300.9 26.5229C301.501 27.4271 302.053 28.3312 302.604 29.2857C303.155 30.2903 303.707 31.3452 304.208 32.4001C306.965 38.3275 308.519 44.9582 308.519 51.8903C308.519 58.9229 306.965 65.5033 304.208 71.4308ZM346.062 2.96381C329.672 2.96381 315.185 11.1015 306.313 23.5089C311.627 31.6968 314.734 41.4922 314.734 51.9908C314.734 62.4894 311.627 72.2847 306.313 80.4726C315.185 92.8801 329.722 101.018 346.062 101.018C373.03 101.018 394.984 79.0159 394.984 51.9908C394.984 24.9657 373.03 2.96381 346.062 2.96381ZM242.103 21.6503C247.116 20.4447 248.97 18.5861 256.289 21.7006C256.74 21.9517 257.291 22.3536 257.191 21.3992C256.188 18.4857 255.136 18.134 255.136 18.0838C250.073 17.2299 246.414 18.6364 242.153 20.9973C241.853 21.0475 241.452 21.5499 242.103 21.6503ZM257.592 85.7471C257.642 87.6057 259.296 88.0075 262.404 88.1582V87.3545C264.208 87.4047 265.662 87.0029 265.662 85.7973C265.662 84.7926 264.359 84.1899 262.404 84.2903V83.6373C259.196 83.6373 257.542 84.4912 257.592 85.7471ZM261.351 86.7517C260.248 86.8522 258.995 86.7015 258.995 85.7471C258.995 84.7424 260.399 84.6419 261.351 84.7424V86.7517Z" fill="#005DED"/>
<path d="M334.484 35.1626L346.714 65.704L358.945 35.1626H365.311V72.6361H360.398V58.0686L360.849 42.3459L348.569 72.6863H344.809L332.579 42.4463L333.08 58.1189V72.6863H328.168V35.1626H334.484Z" fill="white"/>
<path d="M26.2657 63.0921H10.2758L6.66678 73.0884H1.50391L16.0402 34.9116H20.4512L35.0375 73.0884H29.8747L26.2657 63.0921ZM11.7795 58.973H24.7619L18.2457 41.0902L11.7795 58.973ZM63.1075 39.0307H50.877V73.0884H45.8645V39.0307H33.634V34.9116H63.1075V39.0307ZM73.8343 68.9693H91.8793V73.0884H68.7717V34.9116H73.8343V68.9693ZM119.197 63.0921H103.208L99.5985 73.0884H94.4356L108.972 34.9116H113.383L127.969 73.0884H122.806L119.197 63.0921ZM104.711 58.973H117.694L111.177 41.0902L104.711 58.973ZM162.405 73.0884H157.343L138.145 43.6521V73.0884H133.082V34.9116H138.145L157.393 64.4986V34.9116H162.405V73.0884ZM196.891 39.0307H184.661V73.0884H179.648V39.0307H167.418V34.9116H196.891V39.0307Z" fill="#005DED"/>
<path d="M584.5 99.0482C560.152 99.0482 540.132 78.8482 540.132 54.5C540.132 49.45 541.034 44.5804 542.657 39.8911L568.629 90.3911C568.989 91.1125 569.35 91.6536 570.252 91.6536C571.154 91.6536 571.514 91.1125 571.875 90.3911L583.959 63.5179C584.139 63.1571 584.32 62.9768 584.5 62.9768C584.861 62.9768 584.861 63.3375 585.041 63.5179L597.305 90.3911C597.666 91.1125 598.027 91.6536 598.929 91.6536C599.83 91.6536 600.191 91.1125 600.552 90.3911L626.523 39.8911C628.146 44.4 629.048 49.2696 629.048 54.5C628.868 78.8482 608.848 99.0482 584.5 99.0482ZM584.5 42.9571C584.139 42.9571 584.139 42.5964 583.959 42.4161L570.071 12.4768C574.58 10.8536 579.45 9.95179 584.5 9.95179C589.55 9.95179 594.42 10.8536 598.929 12.4768L585.041 42.4161C584.861 42.5964 584.861 42.9571 584.5 42.9571ZM569.891 75.4214C569.53 75.4214 569.53 75.0607 569.35 74.8804L546.625 31.2339C550.593 24.7411 556.364 19.3304 563.038 15.5429L579.089 50.1714C579.45 50.8929 579.811 51.0732 580.352 51.0732H588.648C589.189 51.0732 589.55 50.8929 589.911 50.1714L605.782 15.5429C612.455 19.3304 618.227 24.7411 622.195 31.2339L599.65 74.8804C599.47 75.2411 599.289 75.4214 599.109 75.4214C598.748 75.4214 598.748 75.0607 598.568 74.8804L589.911 55.7625C589.55 55.0411 589.189 54.8607 588.648 54.8607H580.352C579.811 54.8607 579.45 55.0411 579.089 55.7625L570.432 74.8804C570.252 75.0607 570.252 75.4214 569.891 75.4214ZM584.5 105C612.455 105 635 82.4554 635 54.5C635 26.5446 612.455 4 584.5 4C556.545 4 534 26.5446 534 54.5C534 82.4554 556.545 105 584.5 105Z" fill="#005DED"/>
<path d="M457 28C457 25.7909 458.791 24 461 24H465C467.209 24 469 25.7909 469 28V80C469 82.2091 467.209 84 465 84H461C458.791 84 457 82.2091 457 80V28Z" fill="white"/>
<path d="M489 48C491.209 48 493 49.7909 493 52V56C493 58.2091 491.209 60 489 60L437 60C434.791 60 433 58.2091 433 56L433 52C433 49.7909 434.791 48 437 48L489 48Z" fill="white"/>
</svg>
