<svg width="495" height="258" viewBox="0 0 495 258" fill="none" xmlns="http://www.w3.org/2000/svg">
<path d="M246 36.4729V7C246 4.23858 248.239 2 251 2L391 2C393.761 2 396 4.23858 396 7V36.4729C396 39.2343 393.761 41.4729 391 41.4729H379.79C377.759 41.4729 376.316 43.4497 376.935 45.3831C378.25 49.4866 379.226 52.4605 380.156 55.1734C380.495 56.1614 379.281 56.9634 378.512 56.2571L363.267 42.2629C362.713 41.7548 361.989 41.4729 361.238 41.4729H251C248.239 41.4729 246 39.2343 246 36.4729Z" stroke="#141414" stroke-width="4"/>
<path d="M372 13.5H259C257.895 13.5 257 12.6046 257 11.5C257 10.3954 257.895 9.5 259 9.5L372 9.5C373.105 9.5 374 10.3954 374 11.5C374 12.6046 373.105 13.5 372 13.5Z" stroke="#141414" stroke-width="2"/>
<path d="M329 23.5H269C267.895 23.5 267 22.6046 267 21.5C267 20.3954 267.895 19.5 269 19.5H329C330.105 19.5 331 20.3954 331 21.5C331 22.6046 330.105 23.5 329 23.5Z" stroke="#141414" stroke-width="2"/>
<path d="M344 32.5H259C257.895 32.5 257 31.6046 257 30.5C257 29.3954 257.895 28.5 259 28.5H344C345.105 28.5 346 29.3954 346 30.5C346 31.6046 345.105 32.5 344 32.5Z" stroke="#141414" stroke-width="2"/>
<path d="M246 157.973V119.5C246 116.739 248.239 114.5 251 114.5H391C393.761 114.5 396 116.739 396 119.5V157.973C396 160.734 393.761 162.973 391 162.973H379.699C377.696 162.973 376.255 164.899 376.822 166.821L379.925 177.352C380.216 178.338 379.008 179.069 378.27 178.353L363.279 163.819C362.719 163.276 361.97 162.973 361.191 162.973H251C248.239 162.973 246 160.734 246 157.973Z" stroke="#141414" stroke-width="4"/>
<path d="M319 130.5H259C257.895 130.5 257 129.605 257 128.5C257 127.395 257.895 126.5 259 126.5H319C320.105 126.5 321 127.395 321 128.5C321 129.605 320.105 130.5 319 130.5Z" stroke="#141414" stroke-width="2"/>
<path d="M332 130.5H359C360.105 130.5 361 129.605 361 128.5C361 127.395 360.105 126.5 359 126.5H332C330.895 126.5 330 127.395 330 128.5C330 129.605 330.895 130.5 332 130.5Z" stroke="#141414" stroke-width="2"/>
<path d="M362 140H259C257.895 140 257 139.105 257 138C257 136.895 257.895 136 259 136H362C363.105 136 364 136.895 364 138C364 139.105 363.105 140 362 140Z" stroke="#141414" stroke-width="2"/>
<path d="M281 151.5H259C257.895 151.5 257 150.605 257 149.5C257 148.395 257.895 147.5 259 147.5H281C282.105 147.5 283 148.395 283 149.5C283 150.605 282.105 151.5 281 151.5Z" stroke="#141414" stroke-width="2"/>
<path d="M313 151.5H291C289.895 151.5 289 150.605 289 149.5C289 148.395 289.895 147.5 291 147.5H313C314.105 147.5 315 148.395 315 149.5C315 150.605 314.105 151.5 313 151.5Z" stroke="#141414" stroke-width="2"/>
<path d="M345 151.5H323C321.895 151.5 321 150.605 321 149.5C321 148.395 321.895 147.5 323 147.5H345C346.105 147.5 347 148.395 347 149.5C347 150.605 346.105 151.5 345 151.5Z" stroke="#141414" stroke-width="2"/>
<path d="M377 151.5H355C353.895 151.5 353 150.605 353 149.5C353 148.395 353.895 147.5 355 147.5H377C378.105 147.5 379 148.395 379 149.5C379 150.605 378.105 151.5 377 151.5Z" stroke="#141414" stroke-width="2"/>
<path d="M276.5 90.6044V66.5C276.5 63.7386 274.261 61.5 271.5 61.5H132C129.239 61.5 127 63.7386 127 66.5V90.6044C127 93.3659 129.239 95.6044 132 95.6044H141.497C143.547 95.6044 144.993 97.6144 144.341 99.558L140.714 110.377C140.387 111.353 141.57 112.127 142.334 111.437L158.976 96.3798C159.528 95.8808 160.245 95.6044 160.989 95.6044H271.5C274.261 95.6044 276.5 93.3659 276.5 90.6044Z" stroke="#141414" stroke-width="4"/>
<path d="M151 79L142.75 83.7631L142.75 74.2369L151 79Z" stroke="#141414" stroke-width="2"/>
<path d="M165 72.5V86.5" stroke="#141414" stroke-width="2" stroke-linecap="round"/>
<path d="M217 72.5V86.5" stroke="#141414" stroke-width="2" stroke-linecap="round"/>
<path d="M181 74.5V84.5" stroke="#141414" stroke-width="2" stroke-linecap="round"/>
<path d="M233 74.5V84.5" stroke="#141414" stroke-width="2" stroke-linecap="round"/>
<path d="M197 71.5V87.5" stroke="#141414" stroke-width="2" stroke-linecap="round"/>
<path d="M249 71.5V87.5" stroke="#141414" stroke-width="2" stroke-linecap="round"/>
<path d="M169 75.5V83.5" stroke="#141414" stroke-width="2" stroke-linecap="round"/>
<path d="M221 75.5V83.5" stroke="#141414" stroke-width="2" stroke-linecap="round"/>
<path d="M185 74.5V84.5" stroke="#141414" stroke-width="2" stroke-linecap="round"/>
<path d="M237 74.5V84.5" stroke="#141414" stroke-width="2" stroke-linecap="round"/>
<path d="M201 77.5V81.5" stroke="#141414" stroke-width="2" stroke-linecap="round"/>
<path d="M253 77.5V81.5" stroke="#141414" stroke-width="2" stroke-linecap="round"/>
<path d="M209 77.5V81.5" stroke="#141414" stroke-width="2" stroke-linecap="round"/>
<path d="M261 77.5V81.5" stroke="#141414" stroke-width="2" stroke-linecap="round"/>
<path d="M205 76.5V82.5" stroke="#141414" stroke-width="2" stroke-linecap="round"/>
<path d="M257 76.5V82.5" stroke="#141414" stroke-width="2" stroke-linecap="round"/>
<path d="M213 76.5V82.5" stroke="#141414" stroke-width="2" stroke-linecap="round"/>
<path d="M265 76.5V82.5" stroke="#141414" stroke-width="2" stroke-linecap="round"/>
<path d="M173 75.5V84.5" stroke="#141414" stroke-width="2" stroke-linecap="round"/>
<path d="M225 75.5V84.5" stroke="#141414" stroke-width="2" stroke-linecap="round"/>
<path d="M189 71.5V87.5" stroke="#141414" stroke-width="2" stroke-linecap="round"/>
<path d="M241 71.5V87.5" stroke="#141414" stroke-width="2" stroke-linecap="round"/>
<path d="M177 74.5V84.5" stroke="#141414" stroke-width="2" stroke-linecap="round"/>
<path d="M229 74.5V84.5" stroke="#141414" stroke-width="2" stroke-linecap="round"/>
<path d="M193 73.5V85.5" stroke="#141414" stroke-width="2" stroke-linecap="round"/>
<path d="M245 73.5V85.5" stroke="#141414" stroke-width="2" stroke-linecap="round"/>
<path d="M105.068 130.029C114.19 177.66 47.269 186.27 58.4072 126.225C58.6892 124.704 59.2963 123.185 60.2673 121.981C66.1109 114.738 71.882 116.481 82.4934 123.218C83.1581 123.64 83.9329 123.864 84.7203 123.857C97.6186 123.737 103.317 124.6 105.068 130.029Z" stroke="#141414" stroke-width="4" stroke-linecap="round" stroke-linejoin="round"/>
<path d="M71.1963 168.008C61.1888 194.027 34.5973 177.119 45.6334 151.524C46.1972 150.217 46.4372 148.713 46.2678 147.3C37.2392 71.9525 128.722 85.0492 116.989 146.604C116.637 148.453 116.958 150.414 117.83 152.081C131.547 178.287 96.6663 193.869 90.6988 168.008" stroke="#141414" stroke-width="4" stroke-linecap="round" stroke-linejoin="round"/>
<path d="M56.825 131.056C46.7245 131.367 46.7151 148.311 56.825 148" stroke="#141414" stroke-width="4" stroke-linecap="round" stroke-linejoin="round"/>
<path d="M106.097 132.083C116.631 132.423 117.021 148.808 106.097 148.506" stroke="#141414" stroke-width="4" stroke-linecap="round" stroke-linejoin="round"/>
<path d="M18.1863 62.6355C19.1013 61.358 19.5588 59.898 19.5588 58.2556C19.5588 56.6131 18.9412 55.2216 17.7059 54.081C16.4706 52.9404 14.9379 52.3701 13.1078 52.3701C10.9149 52.3701 8.96182 52.9827 7.24872 54.2077C5.71497 55.3046 3.50587 55.4392 2.25575 54.0276L1.48496 53.1573C0.604188 52.1627 0.457549 50.6818 1.34246 49.6909C2.46253 48.4367 3.84511 47.368 5.4902 46.4846C7.91503 45.1615 10.6144 44.5 13.5882 44.5C18.0261 44.5 21.5261 45.6634 24.0882 47.9902C26.6961 50.2714 28 53.1229 28 56.5447C28 58.6434 27.6569 60.5368 26.9706 62.2249C26.2843 63.9129 25.4379 65.2588 24.4314 66.2626C23.4248 67.2207 22.3497 68.2016 21.2059 69.2053C20.1078 70.1634 19.0784 71.0303 18.1176 71.8059C17.2026 72.5358 16.4935 73.4711 15.9902 74.6117C15.9652 74.666 15.9412 74.7206 15.918 74.7754C15.1987 76.4795 13.8991 78.2548 12.0495 78.2723L10.9458 78.2828C9.46534 78.2969 8.14663 77.226 8.16426 75.7455C8.17826 74.5703 8.36207 73.5081 8.71569 72.5587C9.35621 70.9162 10.2712 69.5931 11.4608 68.5894C12.6503 67.5857 13.8399 66.6504 15.0294 65.7835C16.2647 64.9167 17.317 63.8673 18.1863 62.6355ZM6.86274 88.0251C6.86274 86.7477 7.36601 85.5843 8.37255 84.5349C9.37909 83.4856 10.683 82.9609 12.2843 82.9609C13.7484 82.9609 14.9608 83.4856 15.9216 84.5349C16.8824 85.5843 17.3627 86.7477 17.3627 88.0251C17.3627 89.4851 16.8824 90.7626 15.9216 91.8575C14.9608 92.9525 13.7484 93.5 12.2843 93.5C10.683 93.5 9.37909 92.9525 8.37255 91.8575C7.36601 90.7626 6.86274 89.4851 6.86274 88.0251Z" fill="#E4002B"/>
<path d="M476.095 209.354C483.445 209.354 480.295 230.329 467.695 230.329C467.695 263.89 412.046 263.89 412.046 230.329C400.496 228.232 397.346 209.354 405.746 209.354M476.095 209.354V191.71C476.095 186.395 471.786 182.085 466.47 182.085V182.085C465.407 182.085 464.545 181.224 464.545 180.16V179.988C464.545 174.196 459.85 169.5 454.057 169.5H428.819C416.076 169.5 405.746 179.83 405.746 192.573V192.573V209.354M476.095 209.354L466.326 212.356C464.397 212.949 462.445 211.506 462.445 209.488V194C462.445 192.343 461.102 191 459.445 191H422.129C420.58 191 419.285 192.179 419.142 193.722L417.656 209.681C417.473 211.637 415.491 212.893 413.644 212.223L405.746 209.354" stroke="#141414" stroke-width="4" stroke-linecap="round" stroke-linejoin="round"/>
<path d="M490.837 146.887C489.18 146.887 487.837 145.544 487.837 143.887V126.5C487.837 124.843 489.18 123.5 490.837 123.5H491.216C492.873 123.5 494.216 124.843 494.216 126.5V143.887C494.216 145.544 492.873 146.887 491.216 146.887H490.837ZM487 155.415C487 154.462 487.383 153.594 488.15 152.811C488.917 152.028 489.928 151.636 491.183 151.636C492.264 151.636 493.17 152.028 493.902 152.811C494.634 153.594 495 154.462 495 155.415C495 156.504 494.634 157.457 493.902 158.274C493.17 159.091 492.264 159.5 491.183 159.5C489.928 159.5 488.917 159.091 488.15 158.274C487.383 157.457 487 156.504 487 155.415Z" fill="#E4002B"/>
</svg>
