<svg width="166" height="45" viewBox="0 0 166 45" fill="none" xmlns="http://www.w3.org/2000/svg">
<path d="M16.3341 25.8502L14.6782 12.6029C14.5862 11.9589 14.2182 11.407 13.5743 11.223C12.9303 11.039 12.2863 11.131 11.8263 11.5909L2.25882 20.8825C2.07483 21.0665 1.89084 21.3425 1.79885 21.6184C1.52286 22.5384 1.98283 23.4584 2.81079 23.8263C2.99478 23.9183 3.17878 23.9183 3.36277 23.9183H4.92669H6.49061C6.58261 23.9183 6.58261 23.9183 6.6746 23.9183C6.95059 24.0103 7.13458 24.3783 7.04259 24.6543L6.49061 26.1262L0.602905 42.9614H1.79885L8.14653 25.1143C8.42251 24.1943 7.96254 23.2744 7.13458 22.9064C6.95059 22.8144 6.7666 22.8144 6.58261 22.8144H5.11068H4.37472H3.54676C3.45476 22.8144 3.45476 22.8144 3.36277 22.8144C3.08678 22.7224 2.90279 22.3544 2.99479 22.0784C2.99479 21.9864 3.08678 21.8944 3.17878 21.8024L4.28272 20.6985L11.5504 13.7068L12.7463 12.5109C12.9303 12.4189 13.1143 12.3269 13.2983 12.4189C13.4823 12.5109 13.6663 12.6949 13.6663 12.8789L13.8502 14.6268L14.9542 24.4703L15.1382 26.0342C15.1382 26.1262 15.1382 26.2182 15.1382 26.3102C15.0462 26.5862 14.6782 26.7702 14.4022 26.6782C14.3102 26.6782 14.3102 26.5862 14.2182 26.5862L13.5743 26.0342L13.0223 25.5743L11.8263 24.6543C11.6424 24.5623 11.5504 24.4703 11.2744 24.3783C10.3544 24.1023 9.43446 24.5623 9.06648 25.3903C9.06648 25.3903 9.06648 25.3903 9.06648 25.4823L2.90279 42.9614H4.09873L9.61846 27.3222L10.1704 25.8502C10.2624 25.5743 10.6304 25.3903 10.9064 25.4823C10.9984 25.4823 10.9984 25.5743 11.0904 25.5743L12.2863 26.5862L13.4823 27.5982C13.6663 27.6901 13.7583 27.7821 13.9422 27.8741C14.8622 28.1501 15.7822 27.6902 16.1501 26.8622C16.3341 26.4022 16.3341 26.1262 16.3341 25.8502Z" fill="white"/>
<path d="M51.5684 42.8694H64.5397L79.719 0.275513H66.6556L51.5684 42.8694Z" fill="white"/>
<path d="M103.546 42.8694H116.425L123.141 24.1023C125.809 19.5945 131.236 20.6065 130.224 24.5623L123.785 42.8694H137.216L143.564 24.9303C145.22 20.4225 152.303 20.1465 150.739 25.4823L144.76 42.8694H157.731L164.999 22.2624C167.391 15.2708 158.835 5.88722 144.116 16.1907C142.368 11.4989 135.1 8.55509 125.441 15.3628L126.085 12.6029H114.033L103.546 42.8694Z" fill="white"/>
<path d="M90.3904 12.6029H78.247L71.0713 32.7499C67.4835 44.0653 78.891 47.8371 89.8384 40.0175L89.1025 42.8694H100.694L111.365 12.6029H98.946L92.5983 29.898C91.1263 34.1298 82.8468 36.5217 84.1347 29.99L90.3904 12.6029Z" fill="white"/>
<path d="M36.3891 14.2588L41.2648 0.275513H28.2015L13.2062 42.8694H25.4416L26.8216 39.4656C27.5575 44.6173 44.4847 48.8491 53.5002 30.726C60.5839 17.6626 52.4883 4.69129 36.3891 14.2588ZM40.8969 30.45C38.505 33.3939 34.6412 34.9578 32.3413 33.4859C29.9494 31.8299 30.0414 28.1501 32.4333 24.6543C32.9853 23.8263 33.6292 22.9984 34.2732 22.4464C36.5731 20.3305 39.149 19.5946 41.2648 20.9745C43.8407 22.5384 43.3807 27.2302 40.8969 30.45Z" fill="white"/>
</svg>
