<svg width="135" height="49" viewBox="0 0 135 49" fill="none" xmlns="http://www.w3.org/2000/svg">
<path d="M33.7407 20.3212C34.3668 20.6207 34.8296 20.8113 35.2652 21.0291C41.3634 23.8603 44.3308 29.0874 43.7591 36.0023C43.2691 41.7193 39.2127 46.4291 33.1417 48.0625C28.2959 49.3693 23.5044 49.0426 19.0669 46.5107C17.3518 45.5307 16.0178 44.2239 16.0723 41.9916C16.1267 40.0859 17.8146 38.4252 20.2103 37.9352C22.1977 37.5268 23.6406 38.2891 24.5117 40.1403C25.8729 43.0533 28.922 43.7067 31.4266 41.5832C33.3051 39.977 33.9857 37.7991 33.8496 35.485C33.7134 33.5793 33.3595 31.592 32.6245 29.8496C31.3449 26.7733 28.922 25.1399 25.4646 25.2488C24.5117 25.276 23.5589 25.276 22.606 25.2488C20.8093 25.1943 19.7203 24.3504 19.5297 22.962C19.2847 21.1379 20.1831 19.4228 21.7621 18.8784C22.2249 18.715 22.7422 18.6333 23.2322 18.6061C26.5535 18.3611 28.1053 16.891 28.5137 13.5697C28.9492 10.0305 26.7985 7.19924 23.2322 6.76366C21.7076 6.57309 20.1559 6.60032 18.6313 6.57309C16.9434 6.57309 16.5351 6.98145 16.5351 8.64212C16.5351 16.7549 16.5079 24.8676 16.5623 33.0076C16.5623 34.8861 16.1267 36.4106 14.3027 37.2546C12.2609 38.2074 10.1919 38.4252 8.23175 37.064C7.11557 36.3017 6.8161 35.1583 6.78888 33.8516C6.65276 25.4938 6.46219 17.1632 6.29884 8.83268C6.27162 6.87255 5.97216 6.57309 3.9848 6.54587C3.76701 6.54587 3.52199 6.54587 3.3042 6.54587C1.2624 6.49142 0.11899 5.62025 0.0100938 4.04126C-0.126026 1.97223 1.12628 0.311566 3.05919 0.0393253C3.35865 -0.0151228 3.68534 0.0120996 4.01203 0.0120996C10.2736 0.0120996 16.5351 -0.0151245 22.7966 0.0120996C26.5807 0.0393236 29.9837 1.23718 33.0601 3.44233C38.2326 7.17202 39.2944 15.0398 34.3668 19.5862C34.1763 19.804 34.0401 20.0218 33.7407 20.3212Z" fill="black"/>
<path d="M75.7201 28.1345C75.7201 22.6353 75.6929 17.1632 75.7201 11.664C75.7473 8.61489 77.5986 6.68198 80.566 6.57308C82.6078 6.49141 84.0234 7.49869 84.3229 9.51327C84.5679 11.2012 84.5135 12.9435 84.4862 14.6586C84.4318 19.8856 84.3229 25.0854 84.2684 30.3124C84.2684 30.8297 84.459 31.7009 84.7585 31.837C85.2213 32.0003 85.9563 31.7825 86.4736 31.5103C88.3521 30.503 90.1216 29.3051 92.0273 28.3795C93.8785 27.4539 95.267 27.7806 96.002 29.0329C96.7915 30.3941 96.3287 32.2726 94.8314 33.3615C93.6335 34.2327 92.3268 34.995 91.1017 35.8389C89.6044 36.8734 89.3593 38.1257 90.3122 39.7047C91.4828 41.6104 93.1435 42.8627 95.3758 43.2983C98.7516 43.9517 101.283 42.1004 101.746 38.6702C102.536 32.572 106.374 28.8151 112.609 28.1617C114.133 27.9984 115.685 27.9984 117.21 28.1345C118.816 28.2706 119.66 29.3868 119.66 30.8841C119.66 32.2181 118.843 33.1165 117.264 33.3615C116.284 33.5249 115.277 33.4976 114.297 33.7154C112.037 34.2599 110.703 35.975 110.594 38.1802C110.512 40.3581 111.819 42.3999 113.779 43.0805C115.821 43.7883 118.162 43.1077 119.387 41.1476C120.041 40.1131 120.395 38.8335 120.613 37.6085C120.994 35.2672 122.028 33.9332 124.016 33.6065C126.112 33.2526 127.691 34.4233 127.936 36.5467C128.099 37.8807 128.154 39.2691 128.453 40.5759C128.889 42.3727 130.032 43.1894 131.883 43.3255C132.101 43.3527 132.346 43.3255 132.564 43.3527C133.789 43.5433 134.742 44.115 134.96 45.3945C135.177 46.7013 134.497 47.6541 133.353 48.0897C130.413 49.2059 127.527 48.9881 124.968 47.0824C123.934 46.2929 123.226 46.2657 122.083 46.8374C116.611 49.6143 111.193 49.5054 105.966 46.1296C105.176 45.6123 104.55 45.4218 103.652 46.0751C98.3705 49.9137 91.2378 49.587 86.1197 45.3673C84.4046 43.9517 84.2412 44.0061 83.4245 45.9935C82.635 48.008 80.7838 49.0426 78.7692 48.6342C76.8907 48.2531 75.7201 46.7285 75.7201 44.5506C75.7201 39.1058 75.7201 33.6065 75.7201 28.1345Z" fill="black"/>
<path d="M55.4927 35.2401C55.4927 36.4107 55.4382 37.6086 55.4927 38.7792C55.6016 40.9299 56.9355 42.645 58.7051 43.0261C61.0464 43.5162 63.1971 41.9916 63.4421 39.3781C63.6599 37.2274 63.5238 35.0223 63.6054 32.8716C63.7143 29.9586 65.3478 28.2707 68.2335 28.0257C70.4114 27.8351 72.1265 28.9513 72.2354 31.1565C72.3716 34.1239 72.426 37.173 71.8815 40.0587C70.9831 44.7957 66.6545 48.2259 61.6997 48.716C58.3512 49.0426 55.1115 48.7432 52.1441 46.9192C48.5233 44.714 46.8899 41.3927 46.6721 37.3091C46.5632 35.5123 46.5904 33.6611 46.8354 31.8915C47.2166 29.0058 50.5923 27.1273 53.2603 28.2435C54.7848 28.8696 55.3293 30.2036 55.4382 31.7282C55.5199 32.8716 55.4654 34.0694 55.4927 35.2401C55.4654 35.2401 55.4927 35.2401 55.4927 35.2401Z" fill="black"/>
</svg>
