<svg width="216" height="167" viewBox="0 0 216 167" fill="none" xmlns="http://www.w3.org/2000/svg">
<path fill-rule="evenodd" clip-rule="evenodd" d="M30.0925 16C30.0925 9.37258 35.4651 4 42.0925 4H170.091C176.719 4 182.091 9.37259 182.091 16V58.5H186.091V16C186.091 7.16344 178.928 0 170.091 0H42.0925C33.256 0 26.0925 7.16345 26.0925 16V59H30.0925V16ZM39.1509 21C39.1509 16.5817 42.7327 13 47.1509 13H167.061C171.479 13 175.061 16.5817 175.061 21V57H179.061V21C179.061 14.3726 173.688 9 167.061 9H47.1509C40.5235 9 35.1509 14.3726 35.1509 21V57H39.1509V21Z" fill="#C5CDCF"/>
<circle cx="64" cy="39" r="16" fill="#F6F4F2"/>
<g filter="url(#filter0_d)">
<path d="M75.2487 36.3563C75.9533 38.936 75.7249 41.6815 74.6037 44.1092C73.4824 46.537 71.5404 48.4911 69.1196 49.6274C66.6989 50.7636 63.9548 51.0091 61.3709 50.3205C58.7869 49.6319 56.5288 48.0535 54.9945 45.8633C53.4602 43.6732 52.7481 41.0117 52.9836 38.348C53.2191 35.6842 54.3872 33.1891 56.2821 31.3021C58.1769 29.4152 60.6769 28.2575 63.3416 28.033C66.0063 27.8086 68.6647 28.5317 70.8485 30.0751" stroke="#DC40B1" stroke-width="3" stroke-linecap="round"/>
<g filter="url(#filter1_d)">
<path d="M59.4817 38.7232L63.2413 42.3821L73.6127 32.2886" stroke="#7C267B" stroke-width="3" stroke-linecap="round"/>
</g>
</g>
<path d="M70 151.063H3C3.55996 121.354 11.8577 110.166 35.6257 107.063C58.1375 110.716 66.0456 121.603 70 151.063Z" fill="#F6F4F2" stroke="#C5CDCF" stroke-width="5"/>
<circle cx="35.5762" cy="92.5" r="15" stroke="#C5CDCF" stroke-width="5"/>
<path d="M23 86.0894L29.5 89.0894L34.5 86.0894H39L48 89.0894" stroke="#C5CDCF" stroke-width="3"/>
<g filter="url(#filter2_d)">
<path d="M17.6602 126.589V123.589C17.6602 121.933 19.0033 120.589 20.6602 120.589H25.6602C27.317 120.589 28.6602 121.933 28.6602 123.589V126.589C28.6602 128.246 27.317 129.589 25.6602 129.589H20.6602C19.0033 129.589 17.6602 128.246 17.6602 126.589Z" stroke="#7C267B" stroke-width="2"/>
</g>
<path d="M213 151.473H146C146.56 121.711 154.858 110.504 178.626 107.395C201.137 111.054 209.046 121.961 213 151.473Z" stroke="#C5CDCF" stroke-width="5"/>
<circle cx="178.596" cy="92.9729" r="15" stroke="#C5CDCF" stroke-width="5"/>
<g filter="url(#filter3_d)">
<path d="M161.128 126.063V122.754C161.128 121.097 162.471 119.754 164.128 119.754H168.601C170.258 119.754 171.601 121.097 171.601 122.754V126.063C171.601 127.72 170.258 129.063 168.601 129.063H164.128C162.471 129.063 161.128 127.72 161.128 126.063Z" stroke="#7C267B" stroke-width="2"/>
</g>
<path d="M174.589 79.5C178.742 89.517 182.739 92.1483 192.089 93" stroke="#C5CDCF" stroke-width="3"/>
<path d="M164.588 95.5C162.588 97 171.097 85.1462 176.589 84.5" stroke="#C5CDCF" stroke-width="3"/>
<path d="M170.589 78.5001C172.74 67.3616 182.276 68.3077 185.089 78.5" stroke="#C5CDCF" stroke-width="3"/>
<circle cx="104.163" cy="87.5" r="20" stroke="#C5CDCF" stroke-width="5"/>
<path d="M149 164H62C62.7271 125.067 74.0658 111.067 104.929 107C134.16 111.787 143.865 125.394 149 164Z" fill="#F6F4F2" stroke="#C5CDCF" stroke-width="5"/>
<g filter="url(#filter4_d)">
<path d="M79.4543 134.51V129.51C79.4543 127.301 81.2452 125.51 83.4543 125.51H90.4543C92.6635 125.51 94.4543 127.301 94.4543 129.51V134.51C94.4543 136.719 92.6635 138.51 90.4543 138.51H83.4543C81.2452 138.51 79.4543 136.719 79.4543 134.51Z" fill="#DC40B1"/>
<path d="M79.4543 134.51V129.51C79.4543 127.301 81.2452 125.51 83.4543 125.51H90.4543C92.6635 125.51 94.4543 127.301 94.4543 129.51V134.51C94.4543 136.719 92.6635 138.51 90.4543 138.51H83.4543C81.2452 138.51 79.4543 136.719 79.4543 134.51Z" stroke="#DC40B1" stroke-width="3"/>
</g>
<path d="M85.4355 83L93.9355 77.5H100.436L110.796 79.7236L121.436 76" stroke="#C5CDCF" stroke-width="3"/>
<path d="M82 84V91" stroke="#C5CDCF" stroke-width="6" stroke-linecap="round"/>
<path d="M126 84V91" stroke="#C5CDCF" stroke-width="6" stroke-linecap="round"/>
<path d="M91 51H154" stroke="#C5CDCF" stroke-width="4" stroke-linecap="round"/>
<path d="M118 42H142" stroke="#C5CDCF" stroke-width="4" stroke-linecap="round"/>
<path d="M91 33H115" stroke="#C5CDCF" stroke-width="4" stroke-linecap="round"/>
<path d="M91 42H105" stroke="#C5CDCF" stroke-width="4" stroke-linecap="round"/>
<path d="M130 33H154" stroke="#C5CDCF" stroke-width="4" stroke-linecap="round"/>
<defs>
<filter id="filter0_d" x="49.4395" y="24.4929" width="35.7105" height="35.7105" filterUnits="userSpaceOnUse" color-interpolation-filters="sRGB">
<feFlood flood-opacity="0" result="BackgroundImageFix"/>
<feColorMatrix in="SourceAlpha" type="matrix" values="0 0 0 0 0 0 0 0 0 0 0 0 0 0 0 0 0 0 127 0"/>
<feOffset dx="3" dy="3"/>
<feGaussianBlur stdDeviation="2.5"/>
<feColorMatrix type="matrix" values="0 0 0 0 0.7125 0 0 0 0 0.175156 0 0 0 0 0.564386 0 0 0 0.4 0"/>
<feBlend mode="normal" in2="BackgroundImageFix" result="effect1_dropShadow"/>
<feBlend mode="normal" in="SourceGraphic" in2="effect1_dropShadow" result="shape"/>
</filter>
<filter id="filter1_d" x="55.9817" y="28.7886" width="27.131" height="23.6867" filterUnits="userSpaceOnUse" color-interpolation-filters="sRGB">
<feFlood flood-opacity="0" result="BackgroundImageFix"/>
<feColorMatrix in="SourceAlpha" type="matrix" values="0 0 0 0 0 0 0 0 0 0 0 0 0 0 0 0 0 0 127 0"/>
<feOffset dx="3" dy="3"/>
<feGaussianBlur stdDeviation="2.5"/>
<feColorMatrix type="matrix" values="0 0 0 0 0.441667 0 0 0 0 0.182187 0 0 0 0 0.438297 0 0 0 0.4 0"/>
<feBlend mode="normal" in2="BackgroundImageFix" result="effect1_dropShadow"/>
<feBlend mode="normal" in="SourceGraphic" in2="effect1_dropShadow" result="shape"/>
</filter>
<filter id="filter2_d" x="14.6602" y="117.589" width="23" height="21" filterUnits="userSpaceOnUse" color-interpolation-filters="sRGB">
<feFlood flood-opacity="0" result="BackgroundImageFix"/>
<feColorMatrix in="SourceAlpha" type="matrix" values="0 0 0 0 0 0 0 0 0 0 0 0 0 0 0 0 0 0 127 0"/>
<feOffset dx="3" dy="3"/>
<feGaussianBlur stdDeviation="2.5"/>
<feColorMatrix type="matrix" values="0 0 0 0 0.441667 0 0 0 0 0.182187 0 0 0 0 0.438297 0 0 0 0.4 0"/>
<feBlend mode="normal" in2="BackgroundImageFix" result="effect1_dropShadow"/>
<feBlend mode="normal" in="SourceGraphic" in2="effect1_dropShadow" result="shape"/>
</filter>
<filter id="filter3_d" x="158.128" y="116.754" width="22.4729" height="21.3092" filterUnits="userSpaceOnUse" color-interpolation-filters="sRGB">
<feFlood flood-opacity="0" result="BackgroundImageFix"/>
<feColorMatrix in="SourceAlpha" type="matrix" values="0 0 0 0 0 0 0 0 0 0 0 0 0 0 0 0 0 0 127 0"/>
<feOffset dx="3" dy="3"/>
<feGaussianBlur stdDeviation="2.5"/>
<feColorMatrix type="matrix" values="0 0 0 0 0.441667 0 0 0 0 0.182187 0 0 0 0 0.438297 0 0 0 0.4 0"/>
<feBlend mode="normal" in2="BackgroundImageFix" result="effect1_dropShadow"/>
<feBlend mode="normal" in="SourceGraphic" in2="effect1_dropShadow" result="shape"/>
</filter>
<filter id="filter4_d" x="75.9543" y="122.01" width="28" height="26" filterUnits="userSpaceOnUse" color-interpolation-filters="sRGB">
<feFlood flood-opacity="0" result="BackgroundImageFix"/>
<feColorMatrix in="SourceAlpha" type="matrix" values="0 0 0 0 0 0 0 0 0 0 0 0 0 0 0 0 0 0 127 0"/>
<feOffset dx="3" dy="3"/>
<feGaussianBlur stdDeviation="2.5"/>
<feColorMatrix type="matrix" values="0 0 0 0 0.7125 0 0 0 0 0.175156 0 0 0 0 0.564386 0 0 0 0.4 0"/>
<feBlend mode="normal" in2="BackgroundImageFix" result="effect1_dropShadow"/>
<feBlend mode="normal" in="SourceGraphic" in2="effect1_dropShadow" result="shape"/>
</filter>
</defs>
</svg>
