<svg width="357" height="158" viewBox="0 0 357 158" fill="none" xmlns="http://www.w3.org/2000/svg">
<path fill-rule="evenodd" clip-rule="evenodd" d="M179 17.0076V0H177V17.0076H49C45.6863 17.0076 43 19.6939 43 23.0076V38.8285H45V23.0076C45 20.7984 46.7909 19.0076 49 19.0076H177V21.1567V39.5001H179V21.1567V19.0076H308.5C310.709 19.0076 312.5 20.7984 312.5 23.0076V38.8285H314.5V23.0076C314.5 19.6939 311.814 17.0076 308.5 17.0076H179Z" fill="#7C267B"/>
<rect x="2" y="58" width="84" height="98" rx="8" stroke="#C5CDCF" stroke-width="4"/>
<rect x="16.5" y="66.5" width="35" height="35" rx="3.5" stroke="#C5CDCF" stroke-width="3"/>
<rect x="1.5" y="-1.5" width="17" height="17" rx="3.5" transform="matrix(1 0 0 -1 59 84)" stroke="#7C267B" stroke-width="3"/>
<rect x="1.5" y="-1.5" width="17" height="17" rx="3.5" transform="matrix(1 0 0 -1 59 108)" stroke="#C5CDCF" stroke-width="3"/>
<rect x="1.5" y="-1.5" width="17" height="17" rx="3.5" transform="matrix(1 0 0 -1 59 132)" stroke="#C5CDCF" stroke-width="3"/>
<path d="M21 109L53 109" stroke="#7C267B" stroke-width="3" stroke-linecap="round"/>
<path d="M21 120L53 120" stroke="#7C267B" stroke-width="3" stroke-linecap="round"/>
<path d="M25 132L53 132" stroke="#C5CDCF" stroke-width="3" stroke-linecap="round"/>
<circle cx="44.2271" cy="57" r="18" fill="#F6F4F2" stroke="#C5CDCF" stroke-width="4"/>
<path d="M47.1007 62.2626H41.1451L40.0129 65.6593H36.4011L42.5378 49.1741H45.6854L51.856 65.6593H48.2442L47.1007 62.2626ZM42.0623 59.5113H46.1836L44.1116 53.3407L42.0623 59.5113Z" fill="#7C267B"/>
<rect x="271" y="58" width="84" height="98" rx="8" stroke="#C5CDCF" stroke-width="4"/>
<rect x="285.5" y="66.5" width="35" height="35" rx="3.5" stroke="#C5CDCF" stroke-width="3"/>
<rect x="1.5" y="-1.5" width="17" height="17" rx="3.5" transform="matrix(1 0 0 -1 328 84)" stroke="#7C267B" stroke-width="3"/>
<rect x="1.5" y="-1.5" width="17" height="17" rx="3.5" transform="matrix(1 0 0 -1 328 108)" stroke="#C5CDCF" stroke-width="3"/>
<rect x="1.5" y="-1.5" width="17" height="17" rx="3.5" transform="matrix(1 0 0 -1 328 132)" stroke="#C5CDCF" stroke-width="3"/>
<g filter="url(#filter0_d)">
<path d="M290 109L322 109" stroke="#DC40B1" stroke-width="3" stroke-linecap="round"/>
</g>
<g filter="url(#filter1_d)">
<path d="M290 120L322 120" stroke="#DC40B1" stroke-width="3" stroke-linecap="round"/>
</g>
<path d="M294 132L322 132" stroke="#C5CDCF" stroke-width="3" stroke-linecap="round"/>
<circle cx="313.786" cy="57" r="18" fill="#F6F4F2" stroke="#C5CDCF" stroke-width="4"/>
<path d="M321.162 60.2699C321.025 62.1615 320.324 63.6507 319.061 64.7373C317.805 65.824 316.147 66.3673 314.086 66.3673C311.832 66.3673 310.057 65.6107 308.761 64.0974C307.474 62.5761 306.83 60.4913 306.83 57.843V56.7684C306.83 55.078 307.127 53.5889 307.723 52.301C308.319 51.0131 309.168 50.027 310.271 49.3428C311.382 48.6506 312.669 48.3044 314.134 48.3044C316.163 48.3044 317.797 48.8478 319.037 49.9345C320.276 51.0211 320.993 52.5465 321.186 54.5105H317.563C317.475 53.3756 317.157 52.5545 316.61 52.0474C316.07 51.5323 315.245 51.2747 314.134 51.2747C312.927 51.2747 312.021 51.7093 311.418 52.5787C310.822 53.44 310.516 54.7802 310.5 56.5994V57.9275C310.5 59.8272 310.786 61.2157 311.357 62.0931C311.937 62.9705 312.847 63.4092 314.086 63.4092C315.205 63.4092 316.038 63.1556 316.585 62.6485C317.141 62.1333 317.459 61.3405 317.539 60.2699H321.162Z" fill="#7C267B"/>
<path d="M196 80H221" stroke="#C5CDCF" stroke-width="3" stroke-linecap="round"/>
<path d="M196 87H216" stroke="#C5CDCF" stroke-width="3" stroke-linecap="round"/>
<path d="M196 94H221" stroke="#C5CDCF" stroke-width="3" stroke-linecap="round"/>
<path d="M196 101H216" stroke="#C5CDCF" stroke-width="3" stroke-linecap="round"/>
<rect x="-1.5" y="1.5" width="40" height="76" rx="3.5" transform="matrix(-1 0 0 1 227 66)" stroke="#C5CDCF" stroke-width="3"/>
<rect x="-2" y="2" width="136" height="98" rx="8" transform="matrix(-1 0 0 1 243 56)" stroke="#C5CDCF" stroke-width="4"/>
<rect x="123.5" y="67.5" width="51" height="28" rx="3.5" stroke="#C5CDCF" stroke-width="3"/>
<path d="M129 144L167 144" stroke="#C5CDCF" stroke-width="3" stroke-linecap="round"/>
<path d="M133 138L171 138" stroke="#7C267B" stroke-width="3" stroke-linecap="round"/>
<path d="M125.513 131.832H163.513" stroke="#DC40B1" stroke-width="3" stroke-linecap="round"/>
<circle cx="177.843" cy="57" r="18" fill="#F6F4F2" stroke="#C5CDCF" stroke-width="4"/>
<path d="M172 64.4549V49H177.342C179.193 49 180.596 49.3609 181.553 50.0827C182.51 50.7974 182.988 51.8483 182.988 53.2352C182.988 53.9924 182.796 54.6611 182.412 55.2414C182.028 55.8146 181.494 56.2356 180.809 56.5045C181.591 56.7027 182.206 57.1025 182.653 57.704C183.107 58.3055 183.334 59.0414 183.334 59.9118C183.334 61.3979 182.866 62.523 181.93 63.2873C180.994 64.0515 179.66 64.4407 177.929 64.4549H172ZM175.142 57.7252V61.8968H177.834C178.575 61.8968 179.151 61.7198 179.563 61.366C179.982 61.0051 180.191 60.5098 180.191 59.88C180.191 58.4647 179.468 57.7464 178.023 57.7252H175.142ZM175.142 55.4749H177.468C179.053 55.4466 179.846 54.8062 179.846 53.5537C179.846 52.8531 179.643 52.3507 179.238 52.0464C178.84 51.735 178.208 51.5794 177.342 51.5794H175.142V55.4749Z" fill="#DC40B1"/>
<g filter="url(#filter2_d)">
<circle cx="139" cy="114" r="8" fill="#7C267B"/>
<circle cx="139" cy="114" r="6.5" stroke="#7C267B" stroke-width="3"/>
</g>
<path d="M164.22 122C165.668 121.335 166.895 120.237 167.746 118.844C168.596 117.45 169.032 115.825 168.998 114.174C168.964 112.522 168.462 110.918 167.555 109.564C166.648 108.211 165.376 107.168 163.902 106.569C162.427 105.97 160.816 105.84 159.271 106.197C157.726 106.554 156.317 107.382 155.223 108.575C154.128 109.768 153.397 111.273 153.122 112.9C152.847 114.527 153.04 116.203 153.676 117.715L160.172 116.551L164.22 122Z" fill="#C5CDCF"/>
<defs>
<filter id="filter0_d" x="286.5" y="105.5" width="45" height="13" filterUnits="userSpaceOnUse" color-interpolation-filters="sRGB">
<feFlood flood-opacity="0" result="BackgroundImageFix"/>
<feColorMatrix in="SourceAlpha" type="matrix" values="0 0 0 0 0 0 0 0 0 0 0 0 0 0 0 0 0 0 127 0"/>
<feOffset dx="3" dy="3"/>
<feGaussianBlur stdDeviation="2.5"/>
<feColorMatrix type="matrix" values="0 0 0 0 0.7125 0 0 0 0 0.175156 0 0 0 0 0.564386 0 0 0 0.4 0"/>
<feBlend mode="normal" in2="BackgroundImageFix" result="effect1_dropShadow"/>
<feBlend mode="normal" in="SourceGraphic" in2="effect1_dropShadow" result="shape"/>
</filter>
<filter id="filter1_d" x="286.5" y="116.5" width="45" height="13" filterUnits="userSpaceOnUse" color-interpolation-filters="sRGB">
<feFlood flood-opacity="0" result="BackgroundImageFix"/>
<feColorMatrix in="SourceAlpha" type="matrix" values="0 0 0 0 0 0 0 0 0 0 0 0 0 0 0 0 0 0 127 0"/>
<feOffset dx="3" dy="3"/>
<feGaussianBlur stdDeviation="2.5"/>
<feColorMatrix type="matrix" values="0 0 0 0 0.7125 0 0 0 0 0.175156 0 0 0 0 0.564386 0 0 0 0.4 0"/>
<feBlend mode="normal" in2="BackgroundImageFix" result="effect1_dropShadow"/>
<feBlend mode="normal" in="SourceGraphic" in2="effect1_dropShadow" result="shape"/>
</filter>
<filter id="filter2_d" x="129" y="104" width="26" height="26" filterUnits="userSpaceOnUse" color-interpolation-filters="sRGB">
<feFlood flood-opacity="0" result="BackgroundImageFix"/>
<feColorMatrix in="SourceAlpha" type="matrix" values="0 0 0 0 0 0 0 0 0 0 0 0 0 0 0 0 0 0 127 0"/>
<feOffset dx="3" dy="3"/>
<feGaussianBlur stdDeviation="2.5"/>
<feColorMatrix type="matrix" values="0 0 0 0 0.441667 0 0 0 0 0.182187 0 0 0 0 0.438297 0 0 0 0.4 0"/>
<feBlend mode="normal" in2="BackgroundImageFix" result="effect1_dropShadow"/>
<feBlend mode="normal" in="SourceGraphic" in2="effect1_dropShadow" result="shape"/>
</filter>
</defs>
</svg>
