<svg width="187" height="144" viewBox="0 0 187 144" fill="none" xmlns="http://www.w3.org/2000/svg">
<path fill-rule="evenodd" clip-rule="evenodd" d="M112.804 23.9241H27.6698C21.0424 23.9241 15.6698 29.2967 15.6698 35.9241V38.3528H19.6698V35.9241C19.6698 31.5058 23.2515 27.9241 27.6698 27.9241H112.804V23.9241ZM15.6698 126.667V75.6383H19.6698V126.667H28.5311V75.6383H32.5311V126.667H72.1272C75.0752 126.667 77.8501 128.059 79.6128 130.422C80.6204 131.773 82.2068 132.568 83.8921 132.568H98.2125C99.7709 132.568 101.227 131.793 102.098 130.501C103.711 128.104 106.411 126.667 109.301 126.667H148.97V109.61H152.97V126.667H161.833V109.61H165.833V126.667H171.189H173.189V128.667V129.924C173.189 137.656 166.921 143.924 159.189 143.924H21.1888C13.4569 143.924 7.18886 137.656 7.18886 129.924V128.667V126.667H9.18886H15.6698ZM165.833 75.6385V69.8385H161.833V75.6385H165.833ZM152.97 75.6385V69.8385H148.97V75.6385H152.97ZM36.6495 38.3528H30.781C32.9592 35.3229 36.5147 33.3496 40.5311 33.3496H112.804V37.3496H40.5311C39.1226 37.3496 37.7991 37.7137 36.6495 38.3528ZM21.1888 139.924C15.9159 139.924 11.5961 135.843 11.216 130.667H72.1272C73.8125 130.667 75.3988 131.462 76.4065 132.813C78.1691 135.176 80.944 136.568 83.8921 136.568H98.2125C101.102 136.568 103.802 135.131 105.416 132.735C106.286 131.442 107.742 130.667 109.301 130.667H169.162C168.782 135.843 164.462 139.924 159.189 139.924H21.1888Z" fill="#C5CDCF"/>
<g filter="url(#filter0_d)">
<path d="M171.916 25.584L174.166 18.4884C174.326 17.9855 174.268 17.4378 174.005 16.9808C173.741 16.5237 173.297 16.1986 172.783 16.085L165.512 14.494L163.93 7.22532C163.818 6.71057 163.496 6.26543 163.041 6.00073C162.585 5.73512 162.039 5.67375 161.537 5.8322L154.446 8.08262L149.426 2.58527C149.062 2.21066 148.563 2 148.041 2C147.519 2 147.02 2.21066 146.656 2.58527L141.644 8.09269L134.545 5.8322C134.043 5.671 133.496 5.73054 133.039 5.99432C132.582 6.25811 132.257 6.70233 132.145 7.21799L130.555 14.494L123.299 16.085C122.784 16.1977 122.34 16.5228 122.076 16.9798C121.813 17.4378 121.754 17.9846 121.914 18.4884L124.164 25.584L118.661 30.6005C118.271 30.9559 118.048 31.4587 118.048 31.9863C118.048 32.5138 118.271 33.0167 118.661 33.372L124.164 38.3885L121.914 45.4842C121.754 45.9879 121.813 46.5347 122.076 46.9927C122.34 47.4497 122.784 47.7749 123.299 47.8875L130.57 49.4785L132.159 56.7545C132.272 57.2702 132.597 57.7144 133.054 57.9782C133.511 58.242 134.058 58.3015 134.561 58.1403L141.651 55.8798L146.664 61.3872C147.019 61.7774 147.521 62 148.048 62C148.576 62 149.079 61.7774 149.434 61.3872L154.446 55.8798L161.537 58.1403C162.039 58.3015 162.586 58.242 163.043 57.9782C163.5 57.7144 163.825 57.2702 163.937 56.7545L165.527 49.4785L172.798 47.8875C173.313 47.7749 173.757 47.4497 174.02 46.9927C174.284 46.5347 174.344 45.9879 174.182 45.4842L171.934 38.3885L177.437 33.372C177.826 33.0167 178.048 32.5138 178.048 31.9863C178.048 31.4587 177.826 30.9559 177.437 30.6005L171.916 25.584ZM168.504 36.4248C167.963 36.9185 167.758 37.6824 167.981 38.3812L169.972 44.6626L163.537 46.0713C162.823 46.2288 162.265 46.7866 162.108 47.501L160.708 53.9335L154.431 51.9331C153.733 51.7133 152.97 51.9176 152.476 52.457L148.041 57.338L143.606 52.4607C143.251 52.0705 142.748 51.8489 142.221 51.8489C142.03 51.8498 141.84 51.8791 141.659 51.9377L135.374 53.9335L133.967 47.4937C133.809 46.7793 133.252 46.2215 132.538 46.0639L126.111 44.6626L128.109 38.3812C128.332 37.6824 128.128 36.9185 127.586 36.4248L122.709 31.9863L127.582 27.5477C128.124 27.054 128.328 26.2902 128.105 25.5913L126.111 19.3099L132.545 17.9013C133.259 17.7437 133.817 17.1859 133.974 16.4715L135.374 10.039L141.651 12.0394C142.349 12.262 143.113 12.0577 143.606 11.5155L148.041 6.63455L152.476 11.5118C152.969 12.054 153.733 12.2583 154.431 12.0348L160.708 10.039L162.115 16.4788C162.273 17.1933 162.83 17.7511 163.544 17.9086L169.979 19.3173L167.981 25.5996C167.758 26.2975 167.963 27.0614 168.504 27.556L173.373 31.9863L168.504 36.4248Z" fill="#DC40B1"/>
<path d="M137.508 39.9286L155.976 21.4592L158.589 24.0709L140.119 42.5403L137.508 39.9286Z" fill="#DC40B1"/>
<path d="M143.995 25.5136C143.995 22.3792 141.453 19.8379 138.319 19.8379C135.185 19.8379 132.643 22.3792 132.643 25.5136C132.643 28.6479 135.185 31.1892 138.319 31.1892C141.453 31.1892 143.995 28.6479 143.995 25.5136ZM136.427 25.5136C136.427 24.4688 137.274 23.6217 138.319 23.6217C139.364 23.6217 140.211 24.4688 140.211 25.5136C140.211 26.5584 139.364 27.4055 138.319 27.4055C137.274 27.4055 136.427 26.5584 136.427 25.5136Z" fill="#DC40B1"/>
<path d="M157.778 31.1892C154.644 31.1892 152.103 33.7305 152.103 36.8649C152.103 39.9992 154.644 42.5406 157.778 42.5406C160.913 42.5406 163.454 39.9992 163.454 36.8649C163.454 33.7305 160.913 31.1892 157.778 31.1892ZM157.778 38.7568C156.734 38.7568 155.887 37.9097 155.887 36.8649C155.887 35.8201 156.734 34.973 157.778 34.973C158.823 34.973 159.67 35.8201 159.67 36.8649C159.67 37.9097 158.823 38.7568 157.778 38.7568Z" fill="#DC40B1"/>
</g>
<path fill-rule="evenodd" clip-rule="evenodd" d="M102.385 54.641C101.47 52.6301 99.0987 51.7414 97.0878 52.656L90.0427 55.8603C88.0318 56.7749 87.143 59.1465 88.0577 61.1574L89.0767 63.3978L76.5001 74.3157L76.5145 74.3322C75.4193 74.1755 74.268 74.3197 73.1862 74.8117L58.7144 81.3938C55.698 82.7658 54.3649 86.3232 55.7369 89.3396L61.104 101.14C62.4586 104.118 65.9441 105.455 68.9355 104.168C68.9612 104.233 68.9886 104.298 69.0179 104.362L74.3052 115.987C75.2199 117.998 77.5915 118.887 79.6024 117.972L85.5025 115.289C87.5134 114.374 88.4022 112.002 87.4876 109.992L82.2003 98.3667C82.1711 98.3026 82.1405 98.2397 82.1085 98.1779L83.5215 97.5352C84.7526 96.9753 85.7033 96.0513 86.3041 94.9486L86.3851 95.6643L102.903 93.7961L103.76 95.6813C104.675 97.6922 107.046 98.5809 109.057 97.6663L116.102 94.462C118.113 93.5474 119.002 91.1758 118.087 89.1649L102.385 54.641ZM101.161 89.9676L90.8039 67.1954L80.2318 76.3731C80.5885 76.7906 80.8933 77.2644 81.132 77.7892L86.499 89.5895C86.7917 90.233 86.9613 90.901 87.0177 91.5673L101.161 89.9676ZM91.6987 59.5014L98.7438 56.2971L114.446 90.8209L107.401 94.0252L91.6987 59.5014ZM60.3705 85.0349C59.365 85.4922 58.9206 86.678 59.378 87.6835L64.745 99.4838C65.2023 100.489 66.3882 100.934 67.3936 100.476L81.8655 93.8941C82.8709 93.4368 83.3153 92.251 82.858 91.2455L77.4909 79.4453C77.0336 78.4398 75.8478 77.9954 74.8423 78.4527L60.3705 85.0349ZM77.9463 114.331L83.8465 111.648L78.5592 100.023L72.659 102.706L77.9463 114.331Z" fill="#7C267B"/>
<rect x="2" y="45" width="49" height="23" rx="5" stroke="#C5CDCF" stroke-width="4"/>
<path d="M11 53H41" stroke="#DC40B1" stroke-width="3" stroke-linecap="round"/>
<path d="M11 60H41" stroke="#DC40B1" stroke-width="3" stroke-linecap="round"/>
<rect x="131.594" y="79.8679" width="49" height="23" rx="5" stroke="#C5CDCF" stroke-width="4"/>
<path d="M141 88H154" stroke="#7C267B" stroke-width="3" stroke-linecap="round"/>
<path d="M161.755 95.1858L171.755 95.1858" stroke="#7C267B" stroke-width="3" stroke-linecap="round"/>
<path d="M141 95H158.318" stroke="#C5CDCF" stroke-width="3" stroke-linecap="round"/>
<path d="M158 88H172" stroke="#C5CDCF" stroke-width="3" stroke-linecap="round"/>
<defs>
<filter id="filter0_d" x="116.048" y="0" width="70" height="70" filterUnits="userSpaceOnUse" color-interpolation-filters="sRGB">
<feFlood flood-opacity="0" result="BackgroundImageFix"/>
<feColorMatrix in="SourceAlpha" type="matrix" values="0 0 0 0 0 0 0 0 0 0 0 0 0 0 0 0 0 0 127 0"/>
<feOffset dx="3" dy="3"/>
<feGaussianBlur stdDeviation="2.5"/>
<feColorMatrix type="matrix" values="0 0 0 0 0.7125 0 0 0 0 0.175156 0 0 0 0 0.564386 0 0 0 0.4 0"/>
<feBlend mode="normal" in2="BackgroundImageFix" result="effect1_dropShadow"/>
<feBlend mode="normal" in="SourceGraphic" in2="effect1_dropShadow" result="shape"/>
</filter>
</defs>
</svg>
