<svg width="132" height="154" viewBox="0 0 132 154" fill="none" xmlns="http://www.w3.org/2000/svg">
<path d="M89.5387 2H38.5387C27.493 2 18.5387 10.9543 18.5387 22V132C18.5387 143.046 27.493 152 38.5387 152H89.5387C100.584 152 109.539 143.046 109.539 132V22C109.539 10.9543 100.584 2 89.5387 2Z" stroke="#C5CDCF" stroke-width="4"/>
<path d="M91 142H38C32.4772 142 28 137.523 28 132V19.5C28 15.3579 31.3579 12 35.5 12H40.9845C42.0976 12 43 12.9024 43 14.0155C43 16.7983 45.2559 19.0543 48.0388 19.0543H81.4612C84.2441 19.0543 86.5 16.7983 86.5 14.0155C86.5 12.9024 87.4024 12 88.5155 12H93.75C97.7541 12 101 15.2459 101 19.25V132C101 137.523 96.5229 142 91 142Z" stroke="#C5CDCF" stroke-width="4"/>
<path d="M51.4024 12.1118H77.4024" stroke="#C5CDCF" stroke-width="4" stroke-linecap="round"/>
<circle cx="23" cy="49" r="21" fill="#F6F4F2" stroke="#C5CDCF" stroke-width="4"/>
<circle cx="109" cy="49" r="21" fill="#F6F4F2" stroke="#C5CDCF" stroke-width="4"/>
<circle cx="109" cy="118" r="21" fill="#F6F4F2" stroke="#C5CDCF" stroke-width="4"/>
<circle cx="23" cy="118" r="21" fill="#F6F4F2" stroke="#C5CDCF" stroke-width="4"/>
<path fill-rule="evenodd" clip-rule="evenodd" d="M115.902 36.7029C110.877 36.7029 106.804 40.776 106.804 45.8005V46.1979H104.9C103.796 46.1979 102.9 47.0934 102.9 48.1979C102.9 49.3025 103.796 50.1979 104.9 50.1979H106.804V59.7008C106.804 60.8054 107.7 61.7008 108.804 61.7008C109.909 61.7008 110.804 60.8054 110.804 59.7008V50.1979H113.063C114.167 50.1979 115.063 49.3025 115.063 48.1979C115.063 47.0934 114.167 46.1979 113.063 46.1979H110.804V45.8005C110.804 42.9852 113.086 40.7029 115.902 40.7029V36.7029Z" fill="#3B5999"/>
<path d="M117.25 118.067C117.583 118.259 117.583 118.741 117.25 118.933L106 125.428C105.667 125.621 105.25 125.38 105.25 124.995V112.005C105.25 111.62 105.667 111.379 106 111.572L117.25 118.067Z" fill="#F6F4F2" stroke="#EC1940" stroke-width="3"/>
<rect x="12.5" y="37.5" width="22" height="22" rx="4.5" stroke="#833AB4" stroke-width="3"/>
<circle cx="23.2075" cy="48.6226" r="3.5" stroke="#833AB4" stroke-width="3"/>
<g filter="url(#filter0_d)">
<path fill-rule="evenodd" clip-rule="evenodd" d="M65.1372 95.0637C72.4685 95.0637 78.4117 89.1205 78.4117 81.7892C78.4117 74.4579 72.4685 68.5147 65.1372 68.5147C57.8058 68.5147 51.8626 74.4579 51.8626 81.7892C51.8626 83.3044 52.1165 84.7603 52.584 86.1167C52.659 86.3343 52.6644 86.5706 52.591 86.7887L52.1612 88.0652L50.8346 92.3357C50.7666 92.5546 50.9538 92.7681 51.1797 92.7293L51.6881 92.6422C51.6915 92.6416 51.6931 92.6375 51.6909 92.6348C51.6889 92.6323 51.69 92.6286 51.6931 92.6276L55.3261 91.4938C55.6759 91.3846 56.0554 91.4778 56.3295 91.7211C58.6729 93.8008 61.7576 95.0637 65.1372 95.0637ZM55.7418 96.2877C55.5241 96.1463 55.262 96.0879 55.0061 96.1317L48.1461 97.3077L46.5382 97.5834C45.8024 97.7095 45.1928 97.0141 45.4143 96.3011L45.8982 94.7432L48.4001 86.6892C48.457 86.5061 48.4593 86.3107 48.4113 86.125C48.0532 84.7395 47.8626 83.2866 47.8626 81.7892C47.8626 72.2487 55.5967 64.5146 65.1372 64.5146C74.6776 64.5146 82.4117 72.2487 82.4117 81.7892C82.4117 91.3297 74.6776 99.0637 65.1372 99.0637C61.6725 99.0637 58.4461 98.0438 55.7418 96.2877Z" fill="#DC40B1"/>
</g>
<path d="M20.025 121.522L19.6445 126.827C20.1889 126.827 20.4246 126.595 20.7074 126.317L23.2595 123.899L28.5477 127.738C29.5175 128.274 30.2008 127.992 30.4625 126.854L33.9336 110.73L33.9346 110.729C34.2422 109.308 33.4161 108.752 32.4712 109.101L12.0678 116.844C10.6753 117.38 10.6964 118.15 11.8311 118.498L17.0474 120.107L29.1639 112.591C29.7341 112.217 30.2526 112.424 29.8261 112.798L20.025 121.522Z" fill="#0088CC"/>
<defs>
<filter id="filter0_d" x="43" y="62" width="48" height="46" filterUnits="userSpaceOnUse" color-interpolation-filters="sRGB">
<feFlood flood-opacity="0" result="BackgroundImageFix"/>
<feColorMatrix in="SourceAlpha" type="matrix" values="0 0 0 0 0 0 0 0 0 0 0 0 0 0 0 0 0 0 127 0"/>
<feOffset dx="3" dy="3"/>
<feGaussianBlur stdDeviation="2.5"/>
<feColorMatrix type="matrix" values="0 0 0 0 0.7125 0 0 0 0 0.175156 0 0 0 0 0.564386 0 0 0 0.4 0"/>
<feBlend mode="normal" in2="BackgroundImageFix" result="effect1_dropShadow"/>
<feBlend mode="normal" in="SourceGraphic" in2="effect1_dropShadow" result="shape"/>
</filter>
</defs>
</svg>
