<svg width="156" height="150" viewBox="0 0 156 150" fill="none" xmlns="http://www.w3.org/2000/svg">
<path d="M81.0907 73.7893H17.3452C11.8224 73.7893 7.34521 78.2665 7.34521 83.7893V123.012C7.34521 128.535 11.8224 133.012 17.3452 133.012H37.3973C38.32 133.012 39.2143 133.331 39.9287 133.915L52.4866 144.178C55.0987 146.313 59.0179 144.455 59.0179 141.081V137.012C59.0179 134.803 60.8088 133.012 63.0179 133.012H81.0907C86.6135 133.012 91.0907 128.535 91.0907 123.012V83.7893C91.0907 78.2665 86.6135 73.7893 81.0907 73.7893Z" fill="#F6F4F2" stroke="#C5CDCF" stroke-width="4"/>
<g filter="url(#filter0_d)">
<path fill-rule="evenodd" clip-rule="evenodd" d="M53.1021 95.8077C53.1021 97.9049 51.402 99.6051 49.3047 99.6051C47.2075 99.6051 45.5073 97.9049 45.5073 95.8077C45.5073 93.7104 47.2075 92.0103 49.3047 92.0103C51.402 92.0103 53.1021 93.7104 53.1021 95.8077ZM53.4634 102.405C55.6499 101.023 57.1021 98.5851 57.1021 95.8077C57.1021 91.5013 53.6111 88.0103 49.3047 88.0103C44.9983 88.0103 41.5073 91.5013 41.5073 95.8077C41.5073 98.4653 42.8369 100.812 44.8672 102.22C41.9269 103.052 39.2418 104.81 37.1103 107.407C36.312 106.132 35.1626 105.117 33.8197 104.406C34.9755 103.276 35.693 101.699 35.693 99.9544C35.693 96.5158 32.9054 93.7282 29.4667 93.7282C26.0281 93.7282 23.2405 96.5158 23.2405 99.9544C23.2405 101.524 23.8216 102.959 24.7805 104.054C19.629 106.195 15.5923 112.351 15.5923 123.199L19.5923 123.199C19.5923 112.178 23.9929 108.21 27.4119 107.391C31.2365 106.475 34.2997 108.879 34.2998 111.653L34.4847 111.653C32.8442 115.244 31.9921 119.739 32.2888 125.03L36.2825 124.806C35.5451 111.655 42.494 105.775 48.6798 105.67C54.8638 105.565 62.1757 111.206 62.1757 124.918L66.1757 124.918C66.1757 119.774 65.2045 115.424 63.5631 111.928C64.2516 110.832 65.3874 109.829 66.839 109.133C68.6609 108.261 70.8156 107.956 72.8471 108.472C76.6405 109.435 81.0944 113.678 81.0944 125.762H85.0944C85.0944 113.76 80.8795 107.214 75.2094 105.033C76.2944 103.832 76.9551 102.241 76.9551 100.496C76.9551 96.7583 73.9252 93.7283 70.1875 93.7283C66.4498 93.7283 63.4198 96.7583 63.4198 100.496C63.4198 102.403 64.2089 104.126 65.4784 105.357C65.3548 105.411 65.2323 105.468 65.111 105.526C63.7058 106.199 62.4134 107.124 61.3687 108.25C59.205 105.362 56.4626 103.392 53.4634 102.405ZM27.2405 99.9544C27.2405 101.184 28.2372 102.181 29.4667 102.181C30.6962 102.181 31.693 101.184 31.693 99.9544C31.693 98.7249 30.6962 97.7282 29.4667 97.7282C28.2372 97.7282 27.2405 98.7249 27.2405 99.9544ZM72.9551 100.496C72.9551 102.024 71.716 103.264 70.1875 103.264C68.659 103.264 67.4198 102.024 67.4198 100.496C67.4198 98.9674 68.659 97.7283 70.1875 97.7283C71.716 97.7283 72.9551 98.9674 72.9551 100.496Z" fill="#7C267B"/>
</g>
<path d="M65.0545 2.5166H12C6.47715 2.5166 2 6.99375 2 12.5166V55.9196C2 61.4425 6.47716 65.9196 12 65.9196H27.7998C28.8628 65.9196 29.882 66.3427 30.6325 67.0955L40.2435 76.7358C42.7616 79.2615 47.0762 77.4782 47.0762 73.9117V69.9196C47.0762 67.7105 48.8671 65.9196 51.0762 65.9196H65.0545C70.5774 65.9196 75.0545 61.4425 75.0545 55.9196V12.5166C75.0545 6.99375 70.5774 2.5166 65.0545 2.5166Z" fill="#F6F4F2" stroke="#C5CDCF" stroke-width="4"/>
<g filter="url(#filter1_d)">
<path d="M51.1233 46.5994C73.5433 30.5148 55.8303 6.19477 39.1177 22.6529C23.9804 4.7588 3.88412 31.8631 29.2001 48.4413L39.1177 56.8621L51.1233 46.5994Z" fill="#F6F4F2"/>
<path d="M51.1233 46.5994C73.5433 30.5148 55.8303 6.19477 39.1177 22.6529C23.9804 4.7588 3.88412 31.8631 29.2001 48.4413L39.1177 56.8621L51.1233 46.5994Z" stroke="#DC40B1" stroke-width="4"/>
</g>
<path d="M143.455 17.6621H80.6001C75.0773 17.6621 70.6001 22.1393 70.6001 27.6621V73.233C70.6001 78.7559 75.0772 83.233 80.6001 83.233H102.816C105.026 83.233 106.816 85.0239 106.816 87.233V89.978C106.816 93.5403 111.122 95.3256 113.643 92.8083L122.06 84.4027C122.81 83.6537 123.826 83.233 124.886 83.233H143.455C148.977 83.233 153.455 78.7559 153.455 73.233V27.6621C153.455 22.1393 148.977 17.6621 143.455 17.6621Z" fill="#F6F4F2" stroke="#C5CDCF" stroke-width="4"/>
<g filter="url(#filter2_d)">
<path fill-rule="evenodd" clip-rule="evenodd" d="M114.231 38.4588C115.588 35.6813 118.26 33.7632 120.499 33.2987C121.598 33.0707 122.387 33.2287 122.876 33.5383C123.311 33.8143 123.818 34.4057 123.977 35.7777C124.166 37.4023 123.923 39.762 122.939 43.4211C122.459 45.2031 123.929 47.0122 125.861 46.7406C132.674 45.7824 138.645 51.3341 138.183 58.1993L137.968 61.4042C137.775 64.2707 136.708 66.7181 135.109 68.3471C133.543 69.943 131.398 70.8335 128.761 70.559C123.288 69.9889 115.856 69.0983 106.591 67.7247V48.2425C110.359 45.3316 112.624 41.7482 114.231 38.4588ZM105.343 44.0724C107.768 41.8648 109.38 39.2757 110.637 36.703C112.512 32.8649 116.181 30.1091 119.686 29.3821C121.46 29.0143 123.394 29.1312 125.017 30.1596C126.693 31.2216 127.685 33.0313 127.951 35.3161C128.181 37.2993 127.943 39.6759 127.26 42.6325C135.743 42.5502 142.761 49.7323 142.174 58.4676L141.959 61.6725C141.712 65.3402 140.331 68.7369 137.964 71.1489C135.564 73.5939 132.224 74.9412 128.347 74.5375C122.934 73.9737 115.643 73.1015 106.591 71.7682V72.3075C106.591 75.069 104.353 77.3075 101.591 77.3075H93.296C90.5345 77.3075 88.296 75.0689 88.296 72.3075V47.3778C88.296 44.6164 90.5345 42.3778 93.296 42.3778H101.591C103.085 42.3778 104.427 43.0333 105.343 44.0724ZM92.296 47.3778C92.296 46.8255 92.7437 46.3778 93.296 46.3778H101.591C102.143 46.3778 102.591 46.8255 102.591 47.3778V72.3075C102.591 72.8598 102.144 73.3075 101.591 73.3075H93.296C92.7437 73.3075 92.296 72.8598 92.296 72.3075V47.3778Z" fill="#3B5999"/>
</g>
<defs>
<filter id="filter0_d" x="13.5923" y="86.0103" width="79.5021" height="47.7517" filterUnits="userSpaceOnUse" color-interpolation-filters="sRGB">
<feFlood flood-opacity="0" result="BackgroundImageFix"/>
<feColorMatrix in="SourceAlpha" type="matrix" values="0 0 0 0 0 0 0 0 0 0 0 0 0 0 0 0 0 0 127 0"/>
<feOffset dx="3" dy="3"/>
<feGaussianBlur stdDeviation="2.5"/>
<feColorMatrix type="matrix" values="0 0 0 0 0.441667 0 0 0 0 0.182187 0 0 0 0 0.438297 0 0 0 0.4 0"/>
<feBlend mode="normal" in2="BackgroundImageFix" result="effect1_dropShadow"/>
<feBlend mode="normal" in="SourceGraphic" in2="effect1_dropShadow" result="shape"/>
</filter>
<filter id="filter1_d" x="13.1375" y="12.771" width="58.5623" height="54.7186" filterUnits="userSpaceOnUse" color-interpolation-filters="sRGB">
<feFlood flood-opacity="0" result="BackgroundImageFix"/>
<feColorMatrix in="SourceAlpha" type="matrix" values="0 0 0 0 0 0 0 0 0 0 0 0 0 0 0 0 0 0 127 0"/>
<feOffset dx="3" dy="3"/>
<feGaussianBlur stdDeviation="2.5"/>
<feColorMatrix type="matrix" values="0 0 0 0 0.7125 0 0 0 0 0.175156 0 0 0 0 0.564386 0 0 0 0.4 0"/>
<feBlend mode="normal" in2="BackgroundImageFix" result="effect1_dropShadow"/>
<feBlend mode="normal" in="SourceGraphic" in2="effect1_dropShadow" result="shape"/>
</filter>
<filter id="filter2_d" x="86.296" y="27.1917" width="63.9124" height="58.1159" filterUnits="userSpaceOnUse" color-interpolation-filters="sRGB">
<feFlood flood-opacity="0" result="BackgroundImageFix"/>
<feColorMatrix in="SourceAlpha" type="matrix" values="0 0 0 0 0 0 0 0 0 0 0 0 0 0 0 0 0 0 127 0"/>
<feOffset dx="3" dy="3"/>
<feGaussianBlur stdDeviation="2.5"/>
<feColorMatrix type="matrix" values="0 0 0 0 0.231373 0 0 0 0 0.34902 0 0 0 0 0.6 0 0 0 0.4 0"/>
<feBlend mode="normal" in2="BackgroundImageFix" result="effect1_dropShadow"/>
<feBlend mode="normal" in="SourceGraphic" in2="effect1_dropShadow" result="shape"/>
</filter>
</defs>
</svg>
