<svg width="196" height="132" viewBox="0 0 196 132" fill="none" xmlns="http://www.w3.org/2000/svg">
<path fill-rule="evenodd" clip-rule="evenodd" d="M174 4H10C6.68629 4 4 6.68629 4 10V14.2665H180V10C180 6.68629 177.314 4 174 4ZM4 112V18.2665H180V82.0727H184V10C184 4.47715 179.523 0 174 0H10C4.47715 0 0 4.47716 0 10V112C0 117.523 4.47715 122 10 122H138.185V118H10C6.68629 118 4 115.314 4 112Z" fill="#C5CDCF"/>
<rect x="11.136" y="5.93921" width="6" height="6" fill="#C5CDCF"/>
<rect x="24.4998" y="5.93921" width="6" height="6" fill="#C5CDCF"/>
<rect x="37.8628" y="5.93921" width="6" height="6" fill="#C5CDCF"/>
<path d="M15.9619 28.5833H81.6659" stroke="#C5CDCF" stroke-width="4" stroke-linecap="round"/>
<path d="M16.3329 40.0906H63.1053" stroke="#C5CDCF" stroke-width="4" stroke-linecap="round"/>
<path d="M77.9538 40.0906H68.3024" stroke="#C5CDCF" stroke-width="4" stroke-linecap="round"/>
<g filter="url(#filter0_d)">
<path fill-rule="evenodd" clip-rule="evenodd" d="M84.3416 64.4851L78.2435 58.4077L81.0671 55.5745L90.008 64.4851H94.8325C96.4894 64.4851 97.8325 65.8282 97.8325 67.4851V75.7986C97.8325 77.4555 96.4894 78.7986 94.8325 78.7986H93.6706L82.8871 99.4498C82.1975 100.77 80.8312 101.598 79.3414 101.598H58.9206C57.3837 101.598 55.9827 100.718 55.3162 99.3328L45.4347 78.7986H43.8325C42.1757 78.7986 40.8325 77.4555 40.8325 75.7986V67.4851C40.8325 65.8282 42.1757 64.4851 43.8325 64.4851H50.0036L58.9444 55.5745L61.768 58.4077L55.67 64.4851H84.3416ZM44.8325 74.7986V68.4851H93.8325V74.7986H44.8325ZM55.1413 89.7448L58.9206 97.5983H67.5567V89.7448H55.1413ZM53.2164 85.7448H67.5567V78.7986H49.8738L53.2164 85.7448ZM71.5567 89.7448V97.5983H79.3414L83.4423 89.7448H71.5567ZM85.531 85.7448H71.5567V78.7986H89.1581L85.531 85.7448Z" fill="#7C267B"/>
</g>
<rect x="17.0751" y="51.2268" width="8" height="8" fill="#C5CDCF"/>
<rect x="17.0751" y="66.8179" width="8" height="8" fill="#C5CDCF"/>
<rect x="17.0751" y="82.4084" width="8" height="8" fill="#C5CDCF"/>
<rect x="17.0751" y="97.9993" width="8" height="8" fill="#C5CDCF"/>
<path fill-rule="evenodd" clip-rule="evenodd" d="M195.987 90.0137C195.987 87.8045 194.196 86.0137 191.987 86.0137H185.77C183.561 86.0137 181.77 87.8045 181.77 90.0137V91.7041L168.06 95.7677L168.112 95.9446C167.165 95.3195 166.03 94.9555 164.811 94.9555H152.013C148.699 94.9555 146.013 97.6418 146.013 100.956V111.204C146.013 114.218 148.234 116.712 151.129 117.14C151.124 117.222 151.121 117.304 151.121 117.387V127.986C151.121 130.195 152.912 131.986 155.121 131.986H160.243C162.452 131.986 164.243 130.195 164.243 127.986V117.387C164.243 117.326 164.242 117.265 164.239 117.204H164.811C166.174 117.204 167.431 116.75 168.438 115.984L168.192 116.742L181.77 121.156V122.511C181.77 124.721 183.561 126.511 185.77 126.511H191.987C194.196 126.511 195.987 124.721 195.987 122.511V90.0137ZM181.77 116.95V95.8761L170.55 99.2015C170.72 99.7564 170.811 100.345 170.811 100.956V111.204C170.811 111.93 170.682 112.625 170.446 113.268L181.77 116.95ZM185.77 90.0137H191.987V122.511H185.77L185.77 90.0137ZM152.013 98.9555C150.909 98.9555 150.013 99.851 150.013 100.956V111.204C150.013 112.309 150.909 113.204 152.013 113.204H164.811C165.915 113.204 166.811 112.309 166.811 111.204V100.956C166.811 99.851 165.915 98.9555 164.811 98.9555H152.013ZM155.121 127.986H160.243L160.243 117.387H155.121V127.986Z" fill="#DC40B1"/>
<rect x="132.553" y="28.7141" width="31.0048" height="26" rx="2" stroke="#C5CDCF" stroke-width="4"/>
<path d="M130.553 63.5613L165.558 63.5613" stroke="#C5CDCF" stroke-width="4" stroke-linecap="round"/>
<defs>
<filter id="filter0_d" x="38.8325" y="53.5745" width="67" height="56.0239" filterUnits="userSpaceOnUse" color-interpolation-filters="sRGB">
<feFlood flood-opacity="0" result="BackgroundImageFix"/>
<feColorMatrix in="SourceAlpha" type="matrix" values="0 0 0 0 0 0 0 0 0 0 0 0 0 0 0 0 0 0 127 0"/>
<feOffset dx="3" dy="3"/>
<feGaussianBlur stdDeviation="2.5"/>
<feColorMatrix type="matrix" values="0 0 0 0 0.441667 0 0 0 0 0.182187 0 0 0 0 0.438297 0 0 0 0.4 0"/>
<feBlend mode="normal" in2="BackgroundImageFix" result="effect1_dropShadow"/>
<feBlend mode="normal" in="SourceGraphic" in2="effect1_dropShadow" result="shape"/>
</filter>
</defs>
</svg>
