<svg width="137" height="180" viewBox="0 0 137 180" fill="none" xmlns="http://www.w3.org/2000/svg">
<path d="M92.4316 153H12.6296C7.10679 153 2.62964 148.523 2.62964 143V34.2081V13C2.62964 7.47715 7.10679 3 12.6296 3H24.2681H92.4316C97.9545 3 102.432 7.47715 102.432 13V143C102.432 148.523 97.9545 153 92.4316 153Z" fill="#F6F4F2" stroke="#C5CDCF" stroke-width="5"/>
<g filter="url(#filter0_d)">
<rect x="56.5226" y="11" width="38.9228" height="27" rx="8" fill="#7C267B"/>
<rect x="58.5226" y="13" width="34.9228" height="23" rx="6" stroke="#7C267B" stroke-width="4"/>
</g>
<rect x="10.6176" y="13" width="34.9228" height="23" rx="6" fill="#C5CDCF" stroke="#C5CDCF" stroke-width="4"/>
<path d="M12.6096 58L34.8889 58L56.5225 58" stroke="#C5CDCF" stroke-width="3" stroke-linecap="round"/>
<path d="M12.6096 49L34.8889 49L56.5225 49" stroke="#C5CDCF" stroke-width="3" stroke-linecap="round"/>
<path d="M12.6096 88V73C12.6096 70.2386 14.8482 68 17.6096 68H59.5066C62.2681 68 64.5066 70.2386 64.5066 73V88C64.5066 90.7614 62.2681 93 59.5066 93H17.6096C14.8482 93 12.6096 90.7614 12.6096 88Z" stroke="#C5CDCF" stroke-width="3"/>
<path d="M25.1828 85.0401L19.2095 91.3102C18.603 91.9469 19.0543 93 19.9335 93H36.2243C37.1036 93 37.5549 91.9469 36.9484 91.3102L30.9751 85.0401C29.3988 83.3855 26.7591 83.3855 25.1828 85.0401Z" stroke="#C5CDCF" stroke-width="2"/>
<path d="M41.4249 78.1276L29.283 90.2936C28.654 90.9238 29.1004 92 29.9908 92H57.1058C57.9962 92 58.4426 90.9238 57.8136 90.2936L45.6717 78.1276C44.4996 76.9533 42.5969 76.9533 41.4249 78.1276Z" fill="#F6F4F2" stroke="#C5CDCF" stroke-width="2"/>
<path d="M12.2373 104.997L16.1961 108.775L19.2234 102.775" stroke="#C5CDCF" stroke-width="3" stroke-linecap="round"/>
<path d="M12.2373 118.997L16.1961 122.775L19.2234 116.775" stroke="#C5CDCF" stroke-width="3" stroke-linecap="round"/>
<path d="M12.2373 132.997L16.1961 136.775L19.2234 130.775" stroke="#C5CDCF" stroke-width="3" stroke-linecap="round"/>
<rect x="28.5782" y="21" width="99.802" height="150" rx="10" fill="#F6F4F2"/>
<path d="M104.428 150V170" stroke="#7C267B" stroke-width="2"/>
<path d="M124.368 177H44.5664C39.0436 177 34.5664 172.523 34.5664 167V58.2081V37C34.5664 31.4772 39.0436 27 44.5664 27H56.2049H124.368C129.891 27 134.368 31.4772 134.368 37V167C134.368 172.523 129.891 177 124.368 177Z" fill="#F6F4F2" stroke="#C5CDCF" stroke-width="5"/>
<g filter="url(#filter1_d)">
<rect x="40.5544" y="35" width="38.9228" height="27" rx="8" fill="#DC40B1"/>
<rect x="42.5544" y="37" width="34.9228" height="23" rx="6" stroke="#DC40B1" stroke-width="4"/>
</g>
<rect x="90.4594" y="37" width="34.9228" height="23" rx="6" fill="#C5CDCF" stroke="#C5CDCF" stroke-width="4"/>
<path d="M74.4872 82L96.7665 82L118.4 82" stroke="#C5CDCF" stroke-width="3" stroke-linecap="round"/>
<path d="M65.505 94H92.3415H118.4" stroke="#C5CDCF" stroke-width="3" stroke-linecap="round"/>
<path d="M70.495 106L94.7997 106L118.4 106" stroke="#C5CDCF" stroke-width="3" stroke-linecap="round"/>
<path d="M81.4733 118L100.208 118L118.4 118" stroke="#C5CDCF" stroke-width="3" stroke-linecap="round"/>
<path d="M70.495 130H94.7997H118.4" stroke="#C5CDCF" stroke-width="3" stroke-linecap="round"/>
<g filter="url(#filter2_d)">
<path d="M115.318 160.907C115.318 160.519 115.175 160.18 114.891 159.889C114.622 159.584 114.266 159.328 113.824 159.12C113.381 158.899 112.891 158.691 112.354 158.497C111.832 158.289 111.302 158.061 110.765 157.812C110.228 157.548 109.738 157.265 109.295 156.96C108.852 156.641 108.489 156.233 108.204 155.734C107.935 155.222 107.801 154.647 107.801 154.01C107.801 152.874 108.267 151.925 109.2 151.163C110.149 150.388 111.405 150 112.97 150C115.057 150 116.637 150.519 117.712 151.558L116.147 153.47C115.294 152.749 114.314 152.389 113.207 152.389C112.496 152.389 111.927 152.535 111.5 152.825C111.089 153.116 110.884 153.504 110.884 153.989C110.884 154.46 111.065 154.868 111.429 155.215C111.808 155.561 112.275 155.838 112.828 156.046C113.381 156.24 113.982 156.475 114.63 156.752C115.294 157.029 115.902 157.32 116.456 157.625C117.009 157.916 117.467 158.345 117.831 158.913C118.21 159.467 118.4 160.125 118.4 160.886C118.4 162.091 117.87 163.082 116.811 163.857C115.752 164.619 114.432 165 112.852 165C111.713 165 110.615 164.799 109.556 164.398C108.512 163.982 107.801 163.421 107.422 162.715L109.082 160.97C109.54 161.496 110.117 161.904 110.812 162.195C111.524 162.472 112.219 162.611 112.899 162.611C113.61 162.611 114.187 162.465 114.63 162.175C115.088 161.87 115.318 161.447 115.318 160.907Z" fill="#DC40B1"/>
</g>
<g filter="url(#filter3_d)">
<path d="M113.41 148V167" stroke="#DC40B1" stroke-width="2"/>
</g>
<path d="M77.9802 163H90.9545" stroke="#C5CDCF" stroke-width="2"/>
<path d="M69.495 157.5C69.495 162.749 65.2492 167 60.0158 167C54.7825 167 50.5366 162.749 50.5366 157.5C50.5366 152.251 54.7825 148 60.0158 148C65.2492 148 69.495 152.251 69.495 157.5Z" stroke="#C5CDCF" stroke-width="2"/>
<path d="M56.5228 154.5H63.509" stroke="#C5CDCF" stroke-width="2" stroke-linecap="round"/>
<path d="M56.5228 158.583H63.509" stroke="#C5CDCF" stroke-width="2" stroke-linecap="round"/>
<path d="M56.5228 162.667H63.509" stroke="#C5CDCF" stroke-width="2" stroke-linecap="round"/>
<path d="M47.6863 79.9971L51.6451 83.7749L54.6724 77.7749" stroke="#C5CDCF" stroke-width="3" stroke-linecap="round"/>
<path d="M47.6863 92.9971L51.6451 96.7749L54.6724 90.7749" stroke="#C5CDCF" stroke-width="3" stroke-linecap="round"/>
<path d="M47.6863 105.997L51.6451 109.775L54.6724 103.775" stroke="#C5CDCF" stroke-width="3" stroke-linecap="round"/>
<path d="M47.6863 116.997L51.6451 120.775L54.6724 114.775" stroke="#C5CDCF" stroke-width="3" stroke-linecap="round"/>
<path d="M47.6863 127.997L51.6451 131.775L54.6724 125.775" stroke="#C5CDCF" stroke-width="3" stroke-linecap="round"/>
<path d="M81.4028 151.153L84.3021 155.797L88.7208 150.737" stroke="#C5CDCF" stroke-width="3" stroke-linecap="round"/>
<defs>
<filter id="filter0_d" x="54.5226" y="9" width="48.9228" height="37" filterUnits="userSpaceOnUse" color-interpolation-filters="sRGB">
<feFlood flood-opacity="0" result="BackgroundImageFix"/>
<feColorMatrix in="SourceAlpha" type="matrix" values="0 0 0 0 0 0 0 0 0 0 0 0 0 0 0 0 0 0 127 0"/>
<feOffset dx="3" dy="3"/>
<feGaussianBlur stdDeviation="2.5"/>
<feColorMatrix type="matrix" values="0 0 0 0 0.441667 0 0 0 0 0.182187 0 0 0 0 0.438297 0 0 0 0.4 0"/>
<feBlend mode="normal" in2="BackgroundImageFix" result="effect1_dropShadow"/>
<feBlend mode="normal" in="SourceGraphic" in2="effect1_dropShadow" result="shape"/>
</filter>
<filter id="filter1_d" x="38.5544" y="33" width="48.9228" height="37" filterUnits="userSpaceOnUse" color-interpolation-filters="sRGB">
<feFlood flood-opacity="0" result="BackgroundImageFix"/>
<feColorMatrix in="SourceAlpha" type="matrix" values="0 0 0 0 0 0 0 0 0 0 0 0 0 0 0 0 0 0 127 0"/>
<feOffset dx="3" dy="3"/>
<feGaussianBlur stdDeviation="2.5"/>
<feColorMatrix type="matrix" values="0 0 0 0 0.7125 0 0 0 0 0.175156 0 0 0 0 0.564386 0 0 0 0.4 0"/>
<feBlend mode="normal" in2="BackgroundImageFix" result="effect1_dropShadow"/>
<feBlend mode="normal" in="SourceGraphic" in2="effect1_dropShadow" result="shape"/>
</filter>
<filter id="filter2_d" x="105.422" y="148" width="20.9782" height="25" filterUnits="userSpaceOnUse" color-interpolation-filters="sRGB">
<feFlood flood-opacity="0" result="BackgroundImageFix"/>
<feColorMatrix in="SourceAlpha" type="matrix" values="0 0 0 0 0 0 0 0 0 0 0 0 0 0 0 0 0 0 127 0"/>
<feOffset dx="3" dy="3"/>
<feGaussianBlur stdDeviation="2.5"/>
<feColorMatrix type="matrix" values="0 0 0 0 0.7125 0 0 0 0 0.175156 0 0 0 0 0.564386 0 0 0 0.4 0"/>
<feBlend mode="normal" in2="BackgroundImageFix" result="effect1_dropShadow"/>
<feBlend mode="normal" in="SourceGraphic" in2="effect1_dropShadow" result="shape"/>
</filter>
<filter id="filter3_d" x="110.41" y="146" width="12" height="29" filterUnits="userSpaceOnUse" color-interpolation-filters="sRGB">
<feFlood flood-opacity="0" result="BackgroundImageFix"/>
<feColorMatrix in="SourceAlpha" type="matrix" values="0 0 0 0 0 0 0 0 0 0 0 0 0 0 0 0 0 0 127 0"/>
<feOffset dx="3" dy="3"/>
<feGaussianBlur stdDeviation="2.5"/>
<feColorMatrix type="matrix" values="0 0 0 0 0.441667 0 0 0 0 0.182187 0 0 0 0 0.438297 0 0 0 0.4 0"/>
<feBlend mode="normal" in2="BackgroundImageFix" result="effect1_dropShadow"/>
<feBlend mode="normal" in="SourceGraphic" in2="effect1_dropShadow" result="shape"/>
</filter>
</defs>
</svg>
