<svg width="272" height="179" viewBox="0 0 272 179" fill="none" xmlns="http://www.w3.org/2000/svg">
<rect x="2.73142" y="0.731881" width="114.016" height="206.084" rx="8" transform="matrix(0.86591 -0.5002 0.4998 0.866141 0.000462436 71.7977)" stroke="#C5CDCF" stroke-width="4"/>
<path d="M60.7224 141.546L132.603 100.023" stroke="#C5CDCF" stroke-width="4" stroke-linecap="round"/>
<path d="M65.7224 150.21L137.603 108.688" stroke="#C5CDCF" stroke-width="4" stroke-linecap="round"/>
<path d="M70.7224 158.875L142.603 117.353" stroke="#C5CDCF" stroke-width="4" stroke-linecap="round"/>
<path d="M75.7224 167.54L147.603 126.018" stroke="#C5CDCF" stroke-width="4" stroke-linecap="round"/>
<path d="M80.7224 176.205L152.603 134.683" stroke="#C5CDCF" stroke-width="4" stroke-linecap="round"/>
<rect width="59.0079" height="27.0108" rx="5" transform="matrix(0.86591 -0.5002 0.4998 0.866141 24.6243 84.9919)" fill="#C5CDCF"/>
<rect x="2.73142" y="0.731881" width="86.012" height="23.0108" rx="3" transform="matrix(0.86591 -0.5002 0.4998 0.866141 40.1247 113.317)" stroke="#C5CDCF" stroke-width="4"/>
<rect x="2.73142" y="0.731881" width="86.012" height="38.0168" rx="3" transform="matrix(0.86591 -0.5002 0.4998 0.866141 86.6247 193.901)" stroke="#C5CDCF" stroke-width="4"/>
<rect x="2.73142" y="0.731881" width="24.0037" height="23.0108" rx="3" transform="matrix(0.86591 -0.5002 0.4998 0.866141 78.3183 55.4396)" stroke="#C5CDCF" stroke-width="4"/>
<path d="M32.043 51.8235L71.8801 28.8112L73.9174 39.9762C74.2967 42.0554 73.3285 44.149 71.4986 45.206L46.4245 59.6903C44.5946 60.7474 42.2983 60.5395 40.6884 59.1712L32.043 51.8235Z" fill="#C5CDCF"/>
<path d="M134 11.4414L140.191 10.5261C142.513 10.1829 144.76 11.5008 145.595 13.6945L152.337 31.4252C153.172 33.6189 155.419 34.9368 157.741 34.5936L170.598 32.6928C172.696 32.3827 174.37 30.7834 174.775 28.7023L177.182 16.3548L156.407 19.4261" stroke="#C5CDCF" stroke-width="4" stroke-linecap="round"/>
<ellipse rx="3.57451" ry="3.57634" transform="matrix(0.989247 -0.146255 0.146102 0.989269 159.558 43.815)" fill="#C5CDCF"/>
<ellipse rx="3.57451" ry="3.57634" transform="matrix(0.989247 -0.146255 0.146102 0.989269 172.818 41.8545)" fill="#C5CDCF"/>
<path d="M190.718 45.2363L199.637 47.708C201.899 48.3348 203.421 50.4505 203.296 52.7943L201.866 79.6031C201.741 81.9469 203.263 84.0627 205.525 84.6894L223.826 89.7611C225.869 90.3273 228.047 89.5432 229.26 87.8046L239.147 73.6356L213.007 66.3918" stroke="#C5CDCF" stroke-width="4" stroke-linecap="round"/>
<ellipse rx="4.61703" ry="4.61914" transform="matrix(0.963682 0.267052 -0.266788 0.963755 203.979 96.8432)" fill="#C5CDCF"/>
<ellipse rx="4.61703" ry="4.61914" transform="matrix(0.963682 0.267052 -0.266788 0.963755 220.664 101.467)" fill="#C5CDCF"/>
<path d="M237.641 0L242.211 1.32383C244.465 1.97691 245.963 4.11022 245.81 6.45245L244.835 21.4473C244.683 23.7895 246.18 25.9228 248.434 26.5759L258.035 29.3573C260.072 29.9472 262.259 29.1886 263.492 27.4643L269.44 19.1481L252.214 14.1578" stroke="#C5CDCF" stroke-width="4" stroke-linecap="round"/>
<ellipse rx="3.0526" ry="3.05398" transform="matrix(0.960507 0.278257 -0.277983 0.960586 246.011 34.2203)" fill="#C5CDCF"/>
<ellipse rx="3.0526" ry="3.05398" transform="matrix(0.960507 0.278257 -0.277983 0.960586 257.006 37.4056)" fill="#C5CDCF"/>
</svg>
