<svg width="329" height="186" viewBox="0 0 329 186" fill="none" xmlns="http://www.w3.org/2000/svg">
<path d="M25.5005 10.4851C25.5005 6.06683 29.0822 2.48511 33.5005 2.48511H292.5C296.919 2.48511 300.5 6.06683 300.5 10.4851V175.354C300.5 179.773 296.919 183.354 292.5 183.354H33.5005C29.0822 183.354 25.5005 179.773 25.5005 175.354V10.4851Z" stroke="#C5CDCF" stroke-width="4"/>
<path d="M0.372343 29.4604V34.3331H1.31207V30.2261H3.19151V34.3331H4.13123V29.4604H0.372343Z" fill="#020E1A"/>
<path d="M4.86485 31.2007V36.0733H5.76977V34.2635C5.96467 34.354 6.18742 34.4027 6.43105 34.4027C7.3847 34.4027 8.03206 33.7414 8.03206 32.7669C8.03206 31.7924 7.45431 31.1311 6.59115 31.1311C6.27791 31.1311 5.99948 31.2285 5.76977 31.4095V31.2007H4.86485ZM7.09234 32.7669C7.09234 33.2611 6.7791 33.6022 6.3336 33.6022C6.08997 33.6022 5.89506 33.5326 5.76977 33.4073V32.1543C5.89506 32.0151 6.08997 31.9316 6.3336 31.9316C6.7791 31.9316 7.09234 32.2727 7.09234 32.7669Z" fill="#020E1A"/>
<path d="M8.51264 32.7669C8.51264 33.7414 9.18088 34.4027 10.1693 34.4027C11.1508 34.4027 11.826 33.7414 11.826 32.7669C11.826 31.7924 11.1508 31.1311 10.1693 31.1311C9.18088 31.1311 8.51264 31.7924 8.51264 32.7669ZM9.45236 32.7669C9.45236 32.2727 9.74472 31.9316 10.1693 31.9316C10.587 31.9316 10.8863 32.2727 10.8863 32.7669C10.8863 33.2611 10.587 33.6022 10.1693 33.6022C9.74472 33.6022 9.45236 33.2611 9.45236 32.7669Z" fill="#020E1A"/>
<path d="M13.2457 32.7669C13.2457 32.2727 13.5589 31.9316 14.0044 31.9316C14.248 31.9316 14.4499 32.0221 14.5752 32.1682L15.1251 31.6183C14.8328 31.3121 14.429 31.1311 13.9487 31.1311C12.9672 31.1311 12.3059 31.7924 12.3059 32.7669C12.3059 33.7414 12.9672 34.4027 13.9487 34.4027C14.429 34.4027 14.8328 34.2287 15.1251 33.9224L14.5752 33.3725C14.4499 33.5187 14.248 33.6022 14.0044 33.6022C13.5589 33.6022 13.2457 33.2611 13.2457 32.7669Z" fill="#020E1A"/>
<path d="M15.6461 34.3331H16.4814V32.572L17.1566 33.7762H17.6021L18.2773 32.572V34.3331H19.1126V31.2007H18.2564L17.3794 32.6555L16.5023 31.2007H15.6461V34.3331Z" fill="#020E1A"/>
<path d="M19.695 32.7669C19.695 33.7414 20.3632 34.4027 21.3516 34.4027C22.3331 34.4027 23.0083 33.7414 23.0083 32.7669C23.0083 31.7924 22.3331 31.1311 21.3516 31.1311C20.3632 31.1311 19.695 31.7924 19.695 32.7669ZM20.6347 32.7669C20.6347 32.2727 20.927 31.9316 21.3516 31.9316C21.7693 31.9316 22.0686 32.2727 22.0686 32.7669C22.0686 33.2611 21.7693 33.6022 21.3516 33.6022C20.927 33.6022 20.6347 33.2611 20.6347 32.7669Z" fill="#020E1A"/>
<path d="M25.0229 31.8968H25.893V31.2007H23.2479V31.8968H24.118V34.3331H25.0229V31.8968Z" fill="#020E1A"/>
<path d="M26.3866 31.2007V36.0733H27.2915V34.2635C27.4864 34.354 27.7091 34.4027 27.9528 34.4027C28.9064 34.4027 29.5538 33.7414 29.5538 32.7669C29.5538 31.7924 28.976 31.1311 28.1129 31.1311C27.7996 31.1311 27.5212 31.2285 27.2915 31.4095V31.2007H26.3866ZM28.6141 32.7669C28.6141 33.2611 28.3008 33.6022 27.8553 33.6022C27.6117 33.6022 27.4168 33.5326 27.2915 33.4073V32.1543C27.4168 32.0151 27.6117 31.9316 27.8553 31.9316C28.3008 31.9316 28.6141 32.2727 28.6141 32.7669Z" fill="#020E1A"/>
<path d="M30.1457 34.3331H31.4822C32.234 34.3331 32.6377 33.9085 32.6377 33.3446C32.6377 32.7738 32.234 32.3492 31.4822 32.3492H31.0506V31.2007H30.1457V34.3331ZM31.4474 33.0105C31.6006 33.0105 31.7328 33.1637 31.7328 33.3446C31.7328 33.5187 31.6006 33.6718 31.4474 33.6718H31.0506V33.0105H31.4474ZM32.951 34.3331H33.8559V31.2007H32.951V34.3331Z" fill="#020E1A"/>
<path d="M36.9902 32.7669C36.9902 32.2727 37.3035 31.9316 37.749 31.9316C37.9926 31.9316 38.1945 32.0221 38.3198 32.1682L38.8697 31.6183C38.5773 31.3121 38.1736 31.1311 37.6933 31.1311C36.7118 31.1311 36.0505 31.7924 36.0505 32.7669C36.0505 33.7414 36.7118 34.4027 37.6933 34.4027C38.1736 34.4027 38.5773 34.2287 38.8697 33.9224L38.3198 33.3725C38.1945 33.5187 37.9926 33.6022 37.749 33.6022C37.3035 33.6022 36.9902 33.2611 36.9902 32.7669Z" fill="#020E1A"/>
<path d="M40.9637 31.8968H41.8338V31.2007H39.1886V31.8968H40.0588V34.3331H40.9637V31.8968Z" fill="#020E1A"/>
<path d="M42.3273 31.2007V36.0733H43.2322V34.2635C43.4271 34.354 43.6499 34.4027 43.8935 34.4027C44.8472 34.4027 45.4945 33.7414 45.4945 32.7669C45.4945 31.7924 44.9168 31.1311 44.0536 31.1311C43.7404 31.1311 43.4619 31.2285 43.2322 31.4095V31.2007H42.3273ZM44.5548 32.7669C44.5548 33.2611 44.2416 33.6022 43.7961 33.6022C43.5524 33.6022 43.3575 33.5326 43.2322 33.4073V32.1543C43.3575 32.0151 43.5524 31.9316 43.7961 31.9316C44.2416 31.9316 44.5548 32.2727 44.5548 32.7669Z" fill="#020E1A"/>
<path d="M48.7803 33.7553C48.6272 33.7553 48.5228 33.6509 48.5228 33.5256V32.2796C48.5228 31.5974 48.0494 31.1311 47.2002 31.1311C46.6921 31.1311 46.3649 31.2981 46.0447 31.6183L46.4902 32.0638C46.6364 31.9176 46.8939 31.862 47.1028 31.862C47.4856 31.862 47.6179 32.0499 47.6179 32.2796V32.4536C47.6179 32.4536 47.4787 32.4188 47.2559 32.4188C46.5459 32.4188 45.9542 32.7669 45.9542 33.463C45.9542 33.985 46.2953 34.4027 46.8661 34.4027C47.2141 34.4027 47.5135 34.2496 47.7292 34.0059C47.8545 34.2356 48.0982 34.3888 48.4601 34.3888C48.5715 34.3888 48.7038 34.3748 48.7803 34.347V33.7553ZM47.1793 33.6718C46.9635 33.6718 46.8661 33.5256 46.8661 33.3586C46.8661 33.1288 47.0401 33.0175 47.3325 33.0175C47.5065 33.0175 47.6179 33.0592 47.6179 33.0592V33.4699C47.4995 33.6091 47.3186 33.6718 47.1793 33.6718Z" fill="#020E1A"/>
<path d="M50.2271 31.2007H49.3222V34.3331H50.2271V33.1149H51.3409V34.3331H52.2458V31.2007H51.3409V32.4188H50.2271V31.2007Z" fill="#020E1A"/>
<path d="M53.8435 31.2007H52.9386V34.3331H53.6347L54.9573 32.6625V34.3331H55.8622V31.2007H55.1661L53.8435 32.8713V31.2007Z" fill="#020E1A"/>
<path d="M56.555 34.3331H59.0261V35.3076H59.8615V33.637H59.409V31.2007H58.5041V33.637H57.4599V31.2007H56.555V34.3331Z" fill="#020E1A"/>
<path d="M0.302734 41.6614C0.302734 42.622 0.95706 43.2763 1.92463 43.2763C2.88523 43.2763 3.53956 42.622 3.53956 41.6614C3.53956 40.7008 2.88523 40.0464 1.92463 40.0464C0.95706 40.0464 0.302734 40.7008 0.302734 41.6614ZM0.831763 41.6614C0.831763 40.9722 1.2703 40.4989 1.92463 40.4989C2.57199 40.4989 3.01749 40.9722 3.01749 41.6614C3.01749 42.3505 2.57199 42.8238 1.92463 42.8238C1.2703 42.8238 0.831763 42.3505 0.831763 41.6614Z" fill="#020E1A"/>
<path d="M6.87166 37.9721C6.15468 38.8492 4.24043 38.2296 4.24043 41.1045C4.24043 42.8378 4.92956 43.2763 5.79272 43.2763C6.83685 43.2763 7.47029 42.622 7.47029 41.6753C7.47029 40.6938 6.78116 40.0464 5.92497 40.0464C5.41683 40.0464 5.04094 40.2831 4.79731 40.7356H4.75554C4.83907 38.6682 6.20341 39.3434 7.15705 38.2575L6.87166 37.9721ZM4.81123 41.6683C4.81123 40.9583 5.20104 40.4989 5.8484 40.4989C6.50273 40.4989 6.94823 40.9722 6.94823 41.6544C6.94823 42.3505 6.49577 42.8238 5.84144 42.8238C5.16623 42.8238 4.81123 42.3296 4.81123 41.6683Z" fill="#020E1A"/>
<path d="M8.29467 43.2276H12.1232V44.0629H12.5965V42.8238H12.2206V40.0952H11.7125V42.8238H10.5082V40.0952H10.0071V42.8238H8.80282V40.0952H8.29467V43.2276Z" fill="#020E1A"/>
<path d="M15.8973 41.7936C15.8973 40.7217 15.3753 40.0464 14.4704 40.0464C13.5794 40.0464 12.9738 40.7008 12.9738 41.6475C12.9738 42.6289 13.6281 43.2763 14.5957 43.2763C15.0829 43.2763 15.4797 43.1092 15.7651 42.8099L15.4588 42.4967C15.2639 42.7055 14.9785 42.8238 14.6235 42.8238C13.9761 42.8238 13.5585 42.4131 13.5167 41.7936H15.8973ZM14.4843 40.4919C15.0133 40.4919 15.3265 40.8609 15.3892 41.4317H13.5167C13.5724 40.8539 13.9552 40.4919 14.4843 40.4919Z" fill="#020E1A"/>
<path d="M19.4322 41.7936C19.4322 40.7217 18.9101 40.0464 18.0052 40.0464C17.1142 40.0464 16.5086 40.7008 16.5086 41.6475C16.5086 42.6289 17.1629 43.2763 18.1305 43.2763C18.6178 43.2763 19.0145 43.1092 19.2999 42.8099L18.9936 42.4967C18.7987 42.7055 18.5133 42.8238 18.1583 42.8238C17.511 42.8238 17.0933 42.4131 17.0515 41.7936H19.4322ZM18.0191 40.4919C18.5481 40.4919 18.8614 40.8609 18.924 41.4317H17.0515C17.1072 40.8539 17.4901 40.4919 18.0191 40.4919Z" fill="#020E1A"/>
<path d="M22.3508 43.2276V41.6126L23.7569 43.2276H24.3625L22.9146 41.5778L24.2441 40.0952H23.6385L22.3508 41.55V40.0952H21.8426V43.2276H22.3508Z" fill="#020E1A"/>
<path d="M24.6047 41.6614C24.6047 42.622 25.2591 43.2763 26.2266 43.2763C27.1872 43.2763 27.8416 42.622 27.8416 41.6614C27.8416 40.7008 27.1872 40.0464 26.2266 40.0464C25.2591 40.0464 24.6047 40.7008 24.6047 41.6614ZM25.1338 41.6614C25.1338 40.9722 25.5723 40.4989 26.2266 40.4989C26.874 40.4989 27.3195 40.9722 27.3195 41.6614C27.3195 42.3505 26.874 42.8238 26.2266 42.8238C25.5723 42.8238 25.1338 42.3505 25.1338 41.6614Z" fill="#020E1A"/>
<path d="M28.2064 43.2276C28.2621 43.2485 28.3943 43.2554 28.4848 43.2554C28.9651 43.2554 29.2923 42.9143 29.2923 42.3157V40.4989H30.406V43.2276H30.9072V40.0952H28.7842V42.2948C28.7842 42.6916 28.5475 42.8865 28.2064 42.8865V43.2276Z" fill="#020E1A"/>
<path d="M32.4386 40.0952H31.9305V43.2276H32.3412L34.1162 40.9096V43.2276H34.6244V40.0952H34.2137L32.4386 42.4132V40.0952Z" fill="#020E1A"/>
<path d="M37.9322 43.2276V40.0952H37.4241V41.4804C37.264 41.5709 36.9994 41.6196 36.8185 41.6196C36.3312 41.6196 36.1363 41.3064 36.1363 40.9374V40.0952H35.6281V40.9583C35.6281 41.6057 36.004 42.0373 36.7071 42.0373C36.909 42.0373 37.1943 42.0025 37.4241 41.9189V43.2276H37.9322Z" fill="#020E1A"/>
<path d="M41.6745 41.7936C41.6745 40.7217 41.1524 40.0464 40.2475 40.0464C39.3565 40.0464 38.7509 40.7008 38.7509 41.6475C38.7509 42.6289 39.4052 43.2763 40.3728 43.2763C40.86 43.2763 41.2568 43.1092 41.5422 42.8099L41.2359 42.4967C41.041 42.7055 40.7556 42.8238 40.4006 42.8238C39.7532 42.8238 39.3356 42.4131 39.2938 41.7936H41.6745ZM40.2614 40.4919C40.7904 40.4919 41.1037 40.8609 41.1663 41.4317H39.2938C39.3495 40.8539 39.7324 40.4919 40.2614 40.4919Z" fill="#020E1A"/>
<path d="M42.8147 41.6614C42.8147 40.9722 43.2602 40.4989 43.9215 40.4989C44.2626 40.4989 44.548 40.6242 44.736 40.833L45.0492 40.5198C44.7708 40.2205 44.367 40.0464 43.8937 40.0464C42.9331 40.0464 42.2857 40.7008 42.2857 41.6614C42.2857 42.622 42.9331 43.2763 43.8937 43.2763C44.367 43.2763 44.7708 43.1092 45.0492 42.8099L44.736 42.4967C44.548 42.7055 44.2626 42.8238 43.9215 42.8238C43.2602 42.8238 42.8147 42.3505 42.8147 41.6614Z" fill="#020E1A"/>
<path d="M46.9287 40.4989H47.9032V40.0952H45.4391V40.4989H46.4205V43.2276H46.9287V40.4989Z" fill="#020E1A"/>
<path d="M48.687 43.2276H49.9539C50.5595 43.2276 50.9075 42.8726 50.9075 42.3644C50.9075 41.9816 50.7056 41.6892 50.3506 41.5709C50.5873 41.4317 50.7265 41.195 50.7265 40.8887C50.7265 40.4223 50.3994 40.0952 49.8425 40.0952H48.687V43.2276ZM49.8703 41.7797C50.1836 41.7797 50.3994 41.9955 50.3994 42.3087C50.3994 42.622 50.1836 42.8378 49.8703 42.8378H49.1951V41.7797H49.8703ZM49.1951 41.4247V40.485H49.7659C50.0443 40.485 50.2323 40.6799 50.2323 40.9514C50.2323 41.2298 50.0443 41.4247 49.7659 41.4247H49.1951Z" fill="#020E1A"/>
<path d="M51.5714 41.6614C51.5714 42.622 52.2258 43.2763 53.1933 43.2763C54.1539 43.2763 54.8083 42.622 54.8083 41.6614C54.8083 40.7008 54.1539 40.0464 53.1933 40.0464C52.2258 40.0464 51.5714 40.7008 51.5714 41.6614ZM52.1005 41.6614C52.1005 40.9722 52.539 40.4989 53.1933 40.4989C53.8407 40.4989 54.2862 40.9722 54.2862 41.6614C54.2862 42.3505 53.8407 42.8238 53.1933 42.8238C52.539 42.8238 52.1005 42.3505 52.1005 41.6614Z" fill="#020E1A"/>
<g filter="url(#filter0_d)">
<rect x="94.7354" y="23.5049" width="225.456" height="27.0702" rx="8" fill="#6D302E"/>
</g>
<path d="M261.417 36.7676H261.844C262.391 36.7676 262.772 37.1946 262.772 37.7793C262.772 38.364 262.391 38.7724 261.844 38.7724C261.296 38.7724 260.916 38.364 260.916 37.7793H259.663C259.663 38.9951 260.544 39.8397 261.844 39.8397C263.143 39.8397 264.025 38.9951 264.025 37.7793C264.025 37.0739 263.728 36.5727 263.227 36.2479C263.607 35.9694 263.839 35.5518 263.839 34.9856C263.839 33.909 263.032 33.1572 261.844 33.1572C260.656 33.1572 259.848 33.909 259.848 34.9856H261.101C261.101 34.5401 261.407 34.2246 261.844 34.2246C262.28 34.2246 262.586 34.5401 262.586 34.9856C262.586 35.4311 262.28 35.7652 261.844 35.7652H261.417V36.7676Z" fill="white"/>
<path d="M266.86 34.271H269.561L267.742 39.7469H269.023L271.139 33.5749V33.25H266.86V34.271Z" fill="white"/>
<path d="M271.789 34.4566L272.81 34.2988V39.7469H274.016V33.2036L271.789 33.5285V34.4566Z" fill="white"/>
<path d="M275.034 34.4566L276.054 34.2988V39.7469H277.261V33.2036L275.034 33.5285V34.4566Z" fill="white"/>
<path d="M280.649 34.9856C280.649 35.5518 280.872 35.9694 281.243 36.2479C280.751 36.5727 280.464 37.0739 280.464 37.7793C280.464 38.9951 281.345 39.8397 282.645 39.8397C283.944 39.8397 284.826 38.9951 284.826 37.7793C284.826 37.0739 284.529 36.5727 284.028 36.2479C284.408 35.9694 284.64 35.5518 284.64 34.9856C284.64 33.909 283.833 33.1572 282.645 33.1572C281.457 33.1572 280.649 33.909 280.649 34.9856ZM281.717 37.7793C281.717 37.1946 282.097 36.7862 282.645 36.7862C283.192 36.7862 283.573 37.1946 283.573 37.7793C283.573 38.364 283.192 38.7724 282.645 38.7724C282.097 38.7724 281.717 38.364 281.717 37.7793ZM281.902 34.9856C281.902 34.5401 282.209 34.2246 282.645 34.2246C283.081 34.2246 283.387 34.5401 283.387 34.9856C283.387 35.4311 283.081 35.7467 282.645 35.7467C282.209 35.7467 281.902 35.4311 281.902 34.9856Z" fill="white"/>
<path d="M289.463 37.705C289.463 36.3778 288.563 35.4775 287.226 35.4775C287.087 35.4775 286.902 35.4961 286.772 35.5332L286.902 34.271H288.953V33.25H285.834L285.482 36.6006L286.363 36.8697C286.54 36.6748 286.818 36.5449 287.152 36.5449C287.774 36.5449 288.21 37.0182 288.21 37.705C288.21 38.3269 287.848 38.7631 287.329 38.7631C286.781 38.7631 286.4 38.3454 286.4 37.7514H285.194C285.194 38.9951 286.057 39.8397 287.329 39.8397C288.6 39.8397 289.463 38.9765 289.463 37.705Z" fill="white"/>
<path d="M290.098 38.7724V39.7469H294.34V38.726H291.843L293.708 36.8604C294.107 36.4613 294.34 35.9416 294.34 35.2919C294.34 34.0204 293.476 33.1572 292.205 33.1572C290.933 33.1572 290.07 34.0204 290.07 35.2919H291.323C291.323 34.6701 291.685 34.2338 292.205 34.2338C292.725 34.2338 293.087 34.6701 293.087 35.2919C293.087 35.5889 293.012 35.8581 292.827 36.0437L290.098 38.7724Z" fill="white"/>
<path d="M0.414062 78.1263C0.414062 78.3212 0.560242 78.4674 0.755147 78.4674C0.943092 78.4674 1.09623 78.3212 1.09623 78.1263C1.09623 77.9384 0.943092 77.7852 0.755147 77.7852C0.560242 77.7852 0.414062 77.9384 0.414062 78.1263ZM1.9385 78.1263C1.9385 78.3212 2.09164 78.4674 2.27959 78.4674C2.47449 78.4674 2.62067 78.3212 2.62067 78.1263C2.62067 77.9384 2.47449 77.7852 2.27959 77.7852C2.09164 77.7852 1.9385 77.9384 1.9385 78.1263ZM3.4699 78.1263C3.4699 78.3212 3.62304 78.4674 3.81099 78.4674C3.99893 78.4674 4.15207 78.3212 4.15207 78.1263C4.15207 77.9384 3.99893 77.7852 3.81099 77.7852C3.62304 77.7852 3.4699 77.9384 3.4699 78.1263Z" fill="#020E1A"/>
<path d="M4.94686 78.7667H5.46197L8.03055 73.198H7.51544L4.94686 78.7667Z" fill="#020E1A"/>
<path d="M10.3404 77.6878C9.89487 77.6878 9.58163 77.3467 9.58163 76.8525C9.58163 76.3583 9.89487 76.0172 10.3404 76.0172C10.584 76.0172 10.7789 76.0937 10.9112 76.2538L11.4611 75.7039C11.1478 75.3768 10.758 75.2167 10.2847 75.2167C9.79046 75.2167 9.39369 75.3698 9.09437 75.6691C8.79505 75.9684 8.64191 76.3652 8.64191 76.8525C8.64191 77.3397 8.79505 77.7365 9.09437 78.0358C9.39369 78.3351 9.79046 78.4883 10.2847 78.4883C10.765 78.4883 11.1548 78.3282 11.4611 78.008L10.9112 77.4581C10.7789 77.6112 10.591 77.6878 10.3404 77.6878Z" fill="#020E1A"/>
<path d="M14.6063 77.827C14.4949 77.827 14.4184 77.7435 14.4184 77.6112V76.3652C14.4184 76.038 14.3 75.7596 14.0703 75.5438C13.8406 75.328 13.5274 75.2167 13.1445 75.2167C12.713 75.2167 12.3301 75.3768 12.0029 75.697L12.4832 76.1773C12.6016 76.045 12.8591 75.9476 13.061 75.9476C13.3464 75.9476 13.5135 76.1494 13.5135 76.3652V76.5184C13.4578 76.5114 13.3882 76.5044 13.3116 76.5044C12.9079 76.5044 12.5598 76.5949 12.2744 76.7829C11.989 76.9708 11.8498 77.2284 11.8498 77.5694C11.8498 78.0776 12.2118 78.4883 12.7686 78.4883C13.1028 78.4883 13.3882 78.356 13.6179 78.0985C13.7501 78.3421 13.9798 78.4604 14.307 78.4604C14.4393 78.4604 14.5367 78.4465 14.6063 78.4187V77.827ZM13.0819 77.7574C12.8661 77.7574 12.7617 77.6112 12.7617 77.465C12.7617 77.2353 13.0332 77.0891 13.3603 77.0891C13.409 77.0891 13.4647 77.0961 13.5135 77.11V77.5555C13.3951 77.6878 13.2559 77.7574 13.0819 77.7574Z" fill="#020E1A"/>
<path d="M15.2907 75.9824V77.2701C15.2907 78.0219 15.7431 78.4883 16.4671 78.4883C16.6272 78.4883 16.7594 78.4674 16.8569 78.4187V77.6808C16.7942 77.7156 16.7246 77.7295 16.648 77.7295C16.3974 77.7295 16.2304 77.5486 16.2304 77.2701V75.9824H16.8569V75.2863H16.2304V74.5902H15.2907V75.2863H14.9426V75.9824H15.2907Z" fill="#020E1A"/>
<path d="M20.0717 77.827C19.9603 77.827 19.8838 77.7435 19.8838 77.6112V76.3652C19.8838 76.038 19.7654 75.7596 19.5357 75.5438C19.306 75.328 18.9928 75.2167 18.6099 75.2167C18.1784 75.2167 17.7955 75.3768 17.4683 75.697L17.9486 76.1773C18.067 76.045 18.3245 75.9476 18.5264 75.9476C18.8118 75.9476 18.9789 76.1494 18.9789 76.3652V76.5184C18.9232 76.5114 18.8536 76.5044 18.777 76.5044C18.3733 76.5044 18.0252 76.5949 17.7398 76.7829C17.4544 76.9708 17.3152 77.2284 17.3152 77.5694C17.3152 78.0776 17.6772 78.4883 18.234 78.4883C18.5682 78.4883 18.8536 78.356 19.0833 78.0985C19.2155 78.3421 19.4452 78.4604 19.7724 78.4604C19.9047 78.4604 20.0021 78.4465 20.0717 78.4187V77.827ZM18.5473 77.7574C18.3315 77.7574 18.2271 77.6112 18.2271 77.465C18.2271 77.2353 18.4986 77.0891 18.8257 77.0891C18.8744 77.0891 18.9301 77.0961 18.9789 77.11V77.5555C18.8605 77.6878 18.7213 77.7574 18.5473 77.7574Z" fill="#020E1A"/>
<path d="M21.9153 77.827C21.7204 77.827 21.5881 77.7156 21.5881 77.5277V73.198H20.6832V77.5555C20.6832 78.1054 20.9895 78.4604 21.5533 78.4604C21.7134 78.4604 21.8387 78.4465 21.9153 78.4187V77.827Z" fill="#020E1A"/>
<path d="M22.7444 78.0358C23.0577 78.3351 23.4614 78.4883 23.9556 78.4883C24.4499 78.4883 24.8536 78.3351 25.1599 78.0358C25.4731 77.7365 25.6263 77.3397 25.6263 76.8525C25.6263 76.3652 25.4731 75.9684 25.1599 75.6691C24.8536 75.3698 24.4499 75.2167 23.9556 75.2167C23.4614 75.2167 23.0577 75.3698 22.7444 75.6691C22.4382 75.9684 22.285 76.3652 22.285 76.8525C22.285 77.3397 22.4382 77.7365 22.7444 78.0358ZM23.4266 76.2538C23.5589 76.0937 23.7398 76.0172 23.9556 76.0172C24.1714 76.0172 24.3524 76.0937 24.4847 76.2538C24.6169 76.407 24.6865 76.6088 24.6865 76.8525C24.6865 77.0961 24.6169 77.298 24.4847 77.4581C24.3524 77.6112 24.1714 77.6878 23.9556 77.6878C23.7398 77.6878 23.5589 77.6112 23.4266 77.4581C23.2943 77.298 23.2247 77.0961 23.2247 76.8525C23.2247 76.6088 23.2943 76.407 23.4266 76.2538Z" fill="#020E1A"/>
<path d="M25.8702 79.1844C25.8702 79.8039 26.4897 80.2285 27.4364 80.2285C27.9306 80.2285 28.3413 80.1241 28.6615 79.9153C28.9817 79.7134 29.1418 79.4419 29.1418 79.1148C29.1418 78.8015 28.9956 78.5509 28.6963 78.363C28.4039 78.1681 28.0211 78.0706 27.5408 78.0706C27.2345 78.0706 27.0535 77.9732 27.0535 77.827C27.0535 77.6669 27.1788 77.5834 27.4294 77.5834C28.2438 77.5834 28.7937 77.1031 28.7937 76.4C28.7937 76.2956 28.7798 76.1773 28.745 76.0589C28.8216 75.9615 28.9051 75.9128 28.9956 75.9128C29.0513 75.9128 29.1 75.9197 29.1418 75.9406V75.2306C29.0931 75.2236 29.0304 75.2167 28.9469 75.2167C28.7311 75.2167 28.5431 75.3141 28.3761 75.509C28.1325 75.3141 27.8192 75.2167 27.4433 75.2167C26.6289 75.2167 26.079 75.697 26.079 76.4209C26.079 76.8316 26.2252 77.1379 26.5106 77.3397C26.2948 77.472 26.1834 77.6391 26.1834 77.8548C26.1834 78.0706 26.2878 78.2377 26.4966 78.37C26.079 78.5579 25.8702 78.8294 25.8702 79.1844ZM26.8099 79.1844C26.8099 78.9338 27.1162 78.7598 27.5408 78.7598C27.9375 78.7598 28.2021 78.9059 28.2021 79.1287C28.2021 79.3793 27.8679 79.5533 27.4294 79.5533C27.0396 79.5533 26.8099 79.4071 26.8099 79.1844ZM27.1162 76.052C27.2902 75.864 27.6104 75.864 27.7844 76.052C27.9584 76.226 27.9584 76.5671 27.7844 76.755C27.6104 76.929 27.2902 76.929 27.1162 76.755C26.9421 76.5671 26.9421 76.226 27.1162 76.052Z" fill="#020E1A"/>
<path d="M29.8267 78.7667H30.3418L32.9104 73.198H32.3952L29.8267 78.7667Z" fill="#020E1A"/>
<path d="M37.6704 75.2863L37.0718 77.3049L36.4662 75.2863H35.5613L34.9557 77.3049L34.357 75.2863H33.3129L34.4893 78.4187H35.429L36.0137 76.574L36.5984 78.4187H37.5382L38.7146 75.2863H37.6704Z" fill="#020E1A"/>
<path d="M39.2426 78.0358C39.5558 78.3351 39.9596 78.4883 40.4538 78.4883C40.948 78.4883 41.3518 78.3351 41.658 78.0358C41.9713 77.7365 42.1244 77.3397 42.1244 76.8525C42.1244 76.3652 41.9713 75.9684 41.658 75.6691C41.3518 75.3698 40.948 75.2167 40.4538 75.2167C39.9596 75.2167 39.5558 75.3698 39.2426 75.6691C38.9363 75.9684 38.7832 76.3652 38.7832 76.8525C38.7832 77.3397 38.9363 77.7365 39.2426 78.0358ZM39.9248 76.2538C40.057 76.0937 40.238 76.0172 40.4538 76.0172C40.6696 76.0172 40.8506 76.0937 40.9828 76.2538C41.1151 76.407 41.1847 76.6088 41.1847 76.8525C41.1847 77.0961 41.1151 77.298 40.9828 77.4581C40.8506 77.6112 40.6696 77.6878 40.4538 77.6878C40.238 77.6878 40.057 77.6112 39.9248 77.4581C39.7925 77.298 39.7229 77.0961 39.7229 76.8525C39.7229 76.6088 39.7925 76.407 39.9248 76.2538Z" fill="#020E1A"/>
<path d="M47.295 78.4187V76.4348C47.295 75.7039 46.8982 75.2167 46.2648 75.2167C45.8471 75.2167 45.5061 75.3559 45.2415 75.6274C45.0536 75.3559 44.7821 75.2167 44.4271 75.2167C44.1139 75.2167 43.8494 75.3072 43.6196 75.4951V75.2863H42.7147V78.4187H43.6196V76.2399C43.7519 76.0937 43.9398 76.0172 44.1835 76.0172C44.4062 76.0172 44.5524 76.1912 44.5524 76.4348V78.4187H45.4573V76.4348C45.4573 76.3513 45.4504 76.2678 45.4364 76.1842C45.5757 76.0729 45.7706 76.0172 46.0212 76.0172C46.2439 76.0172 46.3901 76.1912 46.3901 76.4348V78.4187H47.295Z" fill="#020E1A"/>
<path d="M50.6141 77.827C50.5027 77.827 50.4261 77.7435 50.4261 77.6112V76.3652C50.4261 76.038 50.3078 75.7596 50.0781 75.5438C49.8484 75.328 49.5351 75.2167 49.1523 75.2167C48.7207 75.2167 48.3378 75.3768 48.0107 75.697L48.491 76.1773C48.6093 76.045 48.8669 75.9476 49.0687 75.9476C49.3541 75.9476 49.5212 76.1494 49.5212 76.3652V76.5184C49.4655 76.5114 49.3959 76.5044 49.3193 76.5044C48.9156 76.5044 48.5676 76.5949 48.2822 76.7829C47.9968 76.9708 47.8575 77.2284 47.8575 77.5694C47.8575 78.0776 48.2195 78.4883 48.7764 78.4883C49.1105 78.4883 49.3959 78.356 49.6256 78.0985C49.7579 78.3421 49.9876 78.4604 50.3147 78.4604C50.447 78.4604 50.5444 78.4465 50.6141 78.4187V77.827ZM49.0896 77.7574C48.8738 77.7574 48.7694 77.6112 48.7694 77.465C48.7694 77.2353 49.0409 77.0891 49.3681 77.0891C49.4168 77.0891 49.4725 77.0961 49.5212 77.11V77.5555C49.4029 77.6878 49.2636 77.7574 49.0896 77.7574Z" fill="#020E1A"/>
<path d="M51.2255 78.4187H52.1304V76.2399C52.2627 76.0937 52.4506 76.0172 52.6943 76.0172C53.0006 76.0172 53.2024 76.2469 53.2024 76.574V78.4187H54.1073V76.574C54.1073 75.7596 53.6549 75.2167 52.9379 75.2167C52.6247 75.2167 52.3602 75.3072 52.1304 75.4951V75.2863H51.2255V78.4187Z" fill="#020E1A"/>
<path d="M54.822 78.7667H55.3371L57.9057 73.198H57.3906L54.822 78.7667Z" fill="#020E1A"/>
<g filter="url(#filter1_d)">
<rect x="94.7354" y="62.95" width="134.964" height="27.0702" rx="8" fill="#7C267B"/>
</g>
<path d="M166.971 78.2177V79.1922H171.212V78.1713H168.716L170.581 76.3057C170.98 75.9067 171.212 75.3869 171.212 74.7372C171.212 73.4657 170.349 72.6025 169.078 72.6025C167.806 72.6025 166.943 73.4657 166.943 74.7372H168.196C168.196 74.1154 168.558 73.6792 169.078 73.6792C169.597 73.6792 169.959 74.1154 169.959 74.7372C169.959 75.0342 169.885 75.3034 169.699 75.489L166.971 78.2177Z" fill="white"/>
<path d="M171.819 73.9019L172.84 73.7441V79.1922H174.047V72.6489L171.819 72.9738V73.9019Z" fill="white"/>
<path d="M175.064 73.9019L176.085 73.7441V79.1922H177.291V72.6489L175.064 72.9738V73.9019Z" fill="white"/>
<path d="M182.796 72.6025C181.599 73.7905 180.494 75.5168 180.494 77.0946C180.494 78.4868 181.357 79.285 182.62 79.285C183.91 79.285 184.764 78.4404 184.764 77.206C184.764 75.9531 183.891 75.1549 182.647 75.1549C182.517 75.1549 182.425 75.1642 182.332 75.1827C182.694 74.5145 183.316 73.7256 183.835 73.1965L182.796 72.6025ZM181.747 77.1967C181.747 76.5935 182.109 76.1758 182.629 76.1758C183.149 76.1758 183.511 76.5935 183.511 77.1967C183.511 77.8 183.149 78.2177 182.629 78.2177C182.109 78.2177 181.747 77.8 181.747 77.1967Z" fill="white"/>
<path d="M185.369 73.9019L186.39 73.7441V79.1922H187.597V72.6489L185.369 72.9738V73.9019Z" fill="white"/>
<path d="M188.846 74.4309C188.846 74.9971 189.069 75.4147 189.44 75.6932C188.948 76.018 188.661 76.5192 188.661 77.2246C188.661 78.4404 189.542 79.285 190.842 79.285C192.141 79.285 193.023 78.4404 193.023 77.2246C193.023 76.5192 192.726 76.018 192.225 75.6932C192.605 75.4147 192.837 74.9971 192.837 74.4309C192.837 73.3543 192.03 72.6025 190.842 72.6025C189.654 72.6025 188.846 73.3543 188.846 74.4309ZM189.914 77.2246C189.914 76.6399 190.294 76.2315 190.842 76.2315C191.389 76.2315 191.77 76.6399 191.77 77.2246C191.77 77.8093 191.389 78.2177 190.842 78.2177C190.294 78.2177 189.914 77.8093 189.914 77.2246ZM190.099 74.4309C190.099 73.9854 190.405 73.6699 190.842 73.6699C191.278 73.6699 191.584 73.9854 191.584 74.4309C191.584 74.8764 191.278 75.192 190.842 75.192C190.405 75.192 190.099 74.8764 190.099 74.4309Z" fill="white"/>
<g opacity="0.7">
<path d="M205.435 77.206C205.435 75.9066 204.581 75.0249 203.328 75.0249C202.994 75.0249 202.679 75.0992 202.447 75.2384L202.725 73.2801H204.953V72.6953H202.122L201.723 75.8417L202.215 76.0366C202.465 75.786 202.837 75.6375 203.291 75.6375C204.145 75.6375 204.739 76.2779 204.739 77.206C204.739 78.0599 204.21 78.6446 203.458 78.6446C202.688 78.6446 202.159 78.1063 202.159 77.3359H201.481C201.481 78.4775 202.28 79.2572 203.458 79.2572C204.637 79.2572 205.435 78.4311 205.435 77.206Z" fill="white"/>
<path d="M206.516 78.8024C206.516 79.0622 206.711 79.2572 206.97 79.2572C207.221 79.2572 207.425 79.0622 207.425 78.8024C207.425 78.5518 207.221 78.3476 206.97 78.3476C206.711 78.3476 206.516 78.5518 206.516 78.8024Z" fill="white"/>
<path d="M207.846 73.2801H210.899L208.7 79.1922H209.423L211.772 72.9459V72.6953H207.846V73.2801Z" fill="white"/>
<path d="M214.161 79.1922H214.848L218.263 72.6953H217.576L214.161 79.1922ZM212.611 74.1989C212.611 75.1363 213.251 75.7674 214.189 75.7674C215.117 75.7674 215.757 75.1363 215.757 74.1989C215.757 73.2615 215.117 72.6304 214.189 72.6304C213.251 72.6304 212.611 73.2615 212.611 74.1989ZM213.224 74.1989C213.224 73.5771 213.613 73.1501 214.189 73.1501C214.755 73.1501 215.145 73.5771 215.145 74.1989C215.145 74.8207 214.755 75.2477 214.189 75.2477C213.613 75.2477 213.224 74.8207 213.224 74.1989ZM216.658 77.6886C216.658 78.626 217.298 79.2572 218.226 79.2572C219.164 79.2572 219.804 78.626 219.804 77.6886C219.804 76.7512 219.164 76.1201 218.226 76.1201C217.298 76.1201 216.658 76.7512 216.658 77.6886ZM217.27 77.6886C217.27 77.0668 217.66 76.6399 218.226 76.6399C218.802 76.6399 219.191 77.0668 219.191 77.6886C219.191 78.3105 218.802 78.7374 218.226 78.7374C217.66 78.7374 217.27 78.3105 217.27 77.6886Z" fill="white"/>
</g>
<path d="M3.12205 109.743H4.33325L2.40508 107.23L4.15923 104.87H2.97587L1.31221 107.112V104.87H0.372492V109.743H1.31221V107.348L3.12205 109.743Z" fill="#020E1A"/>
<path d="M7.37533 109.165C7.22219 109.165 7.11777 109.061 7.11777 108.935V107.689C7.11777 107.007 6.64443 106.541 5.7952 106.541C5.28706 106.541 4.95989 106.708 4.63969 107.028L5.08519 107.473C5.23137 107.327 5.48892 107.272 5.69775 107.272C6.0806 107.272 6.21286 107.46 6.21286 107.689V107.863C6.21286 107.863 6.07364 107.829 5.85089 107.829C5.14088 107.829 4.5492 108.177 4.5492 108.873C4.5492 109.395 4.89028 109.812 5.46108 109.812C5.80912 109.812 6.10844 109.659 6.32423 109.416C6.44953 109.645 6.69316 109.798 7.05513 109.798C7.1665 109.798 7.29876 109.785 7.37533 109.757V109.165ZM5.77432 109.081C5.55853 109.081 5.46108 108.935 5.46108 108.768C5.46108 108.539 5.6351 108.427 5.92746 108.427C6.10148 108.427 6.21286 108.469 6.21286 108.469V108.88C6.09452 109.019 5.91354 109.081 5.77432 109.081Z" fill="#020E1A"/>
<path d="M7.91719 106.61V111.483H8.82211V109.673C9.01701 109.764 9.23976 109.812 9.48339 109.812C10.437 109.812 11.0844 109.151 11.0844 108.177C11.0844 107.202 10.5066 106.541 9.64349 106.541C9.33025 106.541 9.05182 106.638 8.82211 106.819V106.61H7.91719ZM10.1447 108.177C10.1447 108.671 9.83144 109.012 9.38594 109.012C9.14231 109.012 8.9474 108.942 8.82211 108.817V107.564C8.9474 107.425 9.14231 107.341 9.38594 107.341C9.83144 107.341 10.1447 107.682 10.1447 108.177Z" fill="#020E1A"/>
<path d="M13.1066 107.306H13.9767V106.61H11.3316V107.306H12.2017V109.743H13.1066V107.306Z" fill="#020E1A"/>
<path d="M14.1821 108.177C14.1821 109.151 14.8504 109.812 15.8388 109.812C16.8203 109.812 17.4955 109.151 17.4955 108.177C17.4955 107.202 16.8203 106.541 15.8388 106.541C14.8504 106.541 14.1821 107.202 14.1821 108.177ZM15.1218 108.177C15.1218 107.682 15.4142 107.341 15.8388 107.341C16.2565 107.341 16.5558 107.682 16.5558 108.177C16.5558 108.671 16.2565 109.012 15.8388 109.012C15.4142 109.012 15.1218 108.671 15.1218 108.177Z" fill="#020E1A"/>
<path d="M20.6484 109.743V106.61H19.7435V107.829C19.646 107.898 19.472 107.933 19.3258 107.933C19.0474 107.933 18.9152 107.787 18.9152 107.529V106.61H18.0102V107.564C18.0102 108.239 18.3792 108.664 19.0961 108.664C19.2771 108.664 19.5208 108.636 19.7435 108.566V109.743H20.6484Z" fill="#020E1A"/>
<path d="M22.2477 109.743V108.295L23.3127 109.743H24.3708L23.1108 108.065L24.2455 106.61H23.1804L22.2477 107.849V106.61H21.3428V109.743H22.2477Z" fill="#020E1A"/>
<path d="M27.4151 109.165C27.262 109.165 27.1576 109.061 27.1576 108.935V107.689C27.1576 107.007 26.6842 106.541 25.835 106.541C25.3269 106.541 24.9997 106.708 24.6795 107.028L25.125 107.473C25.2712 107.327 25.5287 107.272 25.7375 107.272C26.1204 107.272 26.2527 107.46 26.2527 107.689V107.863C26.2527 107.863 26.1134 107.829 25.8907 107.829C25.1807 107.829 24.589 108.177 24.589 108.873C24.589 109.395 24.9301 109.812 25.5009 109.812C25.8489 109.812 26.1482 109.659 26.364 109.416C26.4893 109.645 26.733 109.798 27.0949 109.798C27.2063 109.798 27.3386 109.785 27.4151 109.757V109.165ZM25.8141 109.081C25.5983 109.081 25.5009 108.935 25.5009 108.768C25.5009 108.539 25.6749 108.427 25.9673 108.427C26.1413 108.427 26.2527 108.469 26.2527 108.469V108.88C26.1343 109.019 25.9533 109.081 25.8141 109.081Z" fill="#020E1A"/>
<path d="M31.1275 107.306H31.9976V106.61H29.3524V107.306H30.2225V109.743H31.1275V107.306Z" fill="#020E1A"/>
<path d="M32.203 108.177C32.203 109.151 32.8712 109.812 33.8597 109.812C34.8412 109.812 35.5164 109.151 35.5164 108.177C35.5164 107.202 34.8412 106.541 33.8597 106.541C32.8712 106.541 32.203 107.202 32.203 108.177ZM33.1427 108.177C33.1427 107.682 33.4351 107.341 33.8597 107.341C34.2773 107.341 34.5766 107.682 34.5766 108.177C34.5766 108.671 34.2773 109.012 33.8597 109.012C33.4351 109.012 33.1427 108.671 33.1427 108.177Z" fill="#020E1A"/>
<path d="M36.1007 109.743H37.7017C38.37 109.743 38.7319 109.381 38.7319 108.873C38.7319 108.511 38.5509 108.225 38.2029 108.086C38.4256 107.94 38.544 107.71 38.544 107.425C38.544 106.951 38.2029 106.61 37.5764 106.61H36.1007V109.743ZM37.5277 108.42C37.6878 108.42 37.827 108.566 37.827 108.754C37.827 108.935 37.6878 109.081 37.5277 109.081H37.0056V108.42H37.5277ZM37.0056 107.829V107.272H37.4233C37.5555 107.272 37.6739 107.397 37.6739 107.55C37.6739 107.703 37.5555 107.829 37.4233 107.829H37.0056Z" fill="#020E1A"/>
<path d="M41.9555 109.165C41.8024 109.165 41.698 109.061 41.698 108.935V107.689C41.698 107.007 41.2246 106.541 40.3754 106.541C39.8673 106.541 39.5401 106.708 39.2199 107.028L39.6654 107.473C39.8116 107.327 40.0691 107.272 40.278 107.272C40.6608 107.272 40.7931 107.46 40.7931 107.689V107.863C40.7931 107.863 40.6538 107.829 40.4311 107.829C39.7211 107.829 39.1294 108.177 39.1294 108.873C39.1294 109.395 39.4705 109.812 40.0413 109.812C40.3893 109.812 40.6887 109.659 40.9044 109.416C41.0297 109.645 41.2734 109.798 41.6353 109.798C41.7467 109.798 41.879 109.785 41.9555 109.757V109.165ZM40.3545 109.081C40.1387 109.081 40.0413 108.935 40.0413 108.768C40.0413 108.539 40.2153 108.427 40.5077 108.427C40.6817 108.427 40.7931 108.469 40.7931 108.469V108.88C40.6747 109.019 40.4937 109.081 40.3545 109.081Z" fill="#020E1A"/>
<path d="M42.4974 106.61V111.483H43.4023V109.673C43.5972 109.764 43.82 109.812 44.0636 109.812C45.0172 109.812 45.6646 109.151 45.6646 108.177C45.6646 107.202 45.0869 106.541 44.2237 106.541C43.9105 106.541 43.632 106.638 43.4023 106.819V106.61H42.4974ZM44.7249 108.177C44.7249 108.671 44.4116 109.012 43.9661 109.012C43.7225 109.012 43.5276 108.942 43.4023 108.817V107.564C43.5276 107.425 43.7225 107.341 43.9661 107.341C44.4116 107.341 44.7249 107.682 44.7249 108.177Z" fill="#020E1A"/>
<path d="M48.9504 109.165C48.7973 109.165 48.6929 109.061 48.6929 108.935V107.689C48.6929 107.007 48.2195 106.541 47.3703 106.541C46.8622 106.541 46.535 106.708 46.2148 107.028L46.6603 107.473C46.8065 107.327 47.064 107.272 47.2729 107.272C47.6557 107.272 47.788 107.46 47.788 107.689V107.863C47.788 107.863 47.6487 107.829 47.426 107.829C46.716 107.829 46.1243 108.177 46.1243 108.873C46.1243 109.395 46.4654 109.812 47.0362 109.812C47.3842 109.812 47.6835 109.659 47.8993 109.416C48.0246 109.645 48.2683 109.798 48.6302 109.798C48.7416 109.798 48.8739 109.785 48.9504 109.757V109.165ZM47.3494 109.081C47.1336 109.081 47.0362 108.935 47.0362 108.768C47.0362 108.539 47.2102 108.427 47.5026 108.427C47.6766 108.427 47.788 108.469 47.788 108.469V108.88C47.6696 109.019 47.4886 109.081 47.3494 109.081Z" fill="#020E1A"/>
<path d="M0.497788 118.637H1.76467C2.37027 118.637 2.71832 118.282 2.71832 117.774C2.71832 117.391 2.51645 117.099 2.16144 116.981C2.39812 116.841 2.53733 116.605 2.53733 116.298C2.53733 115.832 2.21017 115.505 1.6533 115.505H0.497788V118.637ZM1.68114 117.189C1.99438 117.189 2.21017 117.405 2.21017 117.718C2.21017 118.032 1.99438 118.247 1.68114 118.247H1.00593V117.189H1.68114ZM1.00593 116.834V115.895H1.57673C1.85516 115.895 2.04311 116.09 2.04311 116.361C2.04311 116.639 1.85516 116.834 1.57673 116.834H1.00593Z" fill="#020E1A"/>
<path d="M4.08532 118.637V117.022L5.49142 118.637H6.09702L4.64915 116.988L5.97869 115.505H5.37309L4.08532 116.96V115.505H3.57717V118.637H4.08532Z" fill="#020E1A"/>
<path d="M6.56928 118.637C6.62496 118.658 6.75722 118.665 6.84771 118.665C7.32801 118.665 7.65518 118.324 7.65518 117.725V115.909H8.76892V118.637H9.27011V115.505H7.14703V117.704C7.14703 118.101 6.91036 118.296 6.56928 118.296V118.637Z" fill="#020E1A"/>
<path d="M10.8015 115.505H10.2934V118.637H10.8015V117.259H11.5881C11.6647 118.115 12.2633 118.686 13.1265 118.686C14.0453 118.686 14.6718 118.032 14.6718 117.071C14.6718 116.11 14.0453 115.456 13.1265 115.456C12.2772 115.456 11.6786 116.013 11.5881 116.848H10.8015V115.505ZM12.1032 117.071C12.1032 116.382 12.5209 115.909 13.1265 115.909C13.732 115.909 14.1497 116.382 14.1497 117.071C14.1497 117.76 13.732 118.234 13.1265 118.234C12.5209 118.234 12.1032 117.76 12.1032 117.071Z" fill="#020E1A"/>
<path d="M17.6818 118.637V115.505H17.1737V116.89C17.0136 116.981 16.7491 117.029 16.5681 117.029C16.0808 117.029 15.8859 116.716 15.8859 116.347V115.505H15.3778V116.368C15.3778 117.015 15.7536 117.447 16.4567 117.447C16.6586 117.447 16.944 117.412 17.1737 117.329V118.637H17.6818Z" fill="#020E1A"/>
<path d="M21.0273 118.296C20.8742 118.296 20.7628 118.206 20.7628 118.039V116.452C20.7628 115.929 20.3939 115.456 19.663 115.456C19.2662 115.456 18.9042 115.602 18.6606 115.853L18.939 116.131C19.0852 115.978 19.3776 115.874 19.6212 115.874C20.0667 115.874 20.2546 116.187 20.2546 116.452V116.834C20.1989 116.82 20.1363 116.813 20.018 116.813C19.1757 116.813 18.5074 117.182 18.5074 117.83C18.5074 118.247 18.7789 118.686 19.4054 118.686C19.7395 118.686 20.0597 118.554 20.3034 118.331C20.3869 118.54 20.5679 118.665 20.8254 118.665C20.895 118.665 20.9786 118.658 21.0273 118.637V118.296ZM19.5585 118.268C19.1409 118.268 19.0156 117.976 19.0156 117.781C19.0156 117.398 19.4611 117.168 20.0458 117.168C20.1433 117.168 20.2059 117.175 20.2546 117.182V117.969C20.0667 118.171 19.7883 118.268 19.5585 118.268Z" fill="#020E1A"/>
<path d="M23.9472 115.505H22.7152C22.0678 115.505 21.6919 115.888 21.6919 116.431C21.6919 116.876 21.9495 117.21 22.4019 117.315L21.6223 118.637H22.1583L22.8683 117.349H23.4391V118.637H23.9472V115.505ZM22.7291 116.96C22.4158 116.96 22.2 116.737 22.2 116.424C22.2 116.11 22.4158 115.895 22.7291 115.895H23.4391V116.96H22.7291Z" fill="#020E1A"/>
<path d="M28.6344 118.637H29.1426V115.505H26.574V118.637H27.0821V115.909H28.6344V118.637Z" fill="#020E1A"/>
<path d="M32.8851 117.203C32.8851 116.131 32.363 115.456 31.4581 115.456C30.5671 115.456 29.9615 116.11 29.9615 117.057C29.9615 118.039 30.6158 118.686 31.5834 118.686C32.0707 118.686 32.4674 118.519 32.7528 118.22L32.4466 117.906C32.2516 118.115 31.9663 118.234 31.6112 118.234C30.9639 118.234 30.5462 117.823 30.5045 117.203H32.8851ZM31.472 115.902C32.0011 115.902 32.3143 116.271 32.3769 116.841H30.5045C30.5601 116.264 30.943 115.902 31.472 115.902Z" fill="#020E1A"/>
<path d="M33.6913 115.505V120.377H34.1994V118.456C34.4361 118.602 34.7284 118.686 35.0486 118.686C35.9953 118.686 36.6357 118.032 36.6357 117.071C36.6357 116.11 36.0232 115.456 35.1252 115.456C34.7632 115.456 34.443 115.567 34.1994 115.769V115.505H33.6913ZM36.1067 117.071C36.1067 117.76 35.6612 118.234 35.0069 118.234C34.6658 118.234 34.3943 118.122 34.1994 117.934V116.222C34.3943 116.027 34.6658 115.909 35.0069 115.909C35.6612 115.909 36.1067 116.382 36.1067 117.071Z" fill="#020E1A"/>
<path d="M40.1859 117.203C40.1859 116.131 39.6638 115.456 38.7589 115.456C37.8679 115.456 37.2623 116.11 37.2623 117.057C37.2623 118.039 37.9166 118.686 38.8842 118.686C39.3715 118.686 39.7682 118.519 40.0536 118.22L39.7473 117.906C39.5524 118.115 39.267 118.234 38.912 118.234C38.2647 118.234 37.847 117.823 37.8053 117.203H40.1859ZM38.7728 115.902C39.3019 115.902 39.6151 116.271 39.6777 116.841H37.8053C37.8609 116.264 38.2438 115.902 38.7728 115.902Z" fill="#020E1A"/>
<path d="M42.9687 118.637H43.5604L42.3144 117.043L43.5116 115.505H42.9199L41.9872 116.709L41.0614 115.505H40.4697L41.66 117.043L40.421 118.637H41.0057L41.9872 117.363L42.9687 118.637Z" fill="#020E1A"/>
<path d="M43.8085 117.071C43.8085 118.032 44.4629 118.686 45.4304 118.686C46.391 118.686 47.0454 118.032 47.0454 117.071C47.0454 116.11 46.391 115.456 45.4304 115.456C44.4629 115.456 43.8085 116.11 43.8085 117.071ZM44.3376 117.071C44.3376 116.382 44.7761 115.909 45.4304 115.909C46.0778 115.909 46.5233 116.382 46.5233 117.071C46.5233 117.76 46.0778 118.234 45.4304 118.234C44.7761 118.234 44.3376 117.76 44.3376 117.071Z" fill="#020E1A"/>
<path d="M50.5914 118.234H50.1737V115.505H48.0158V117.537C48.0158 117.941 47.7513 118.234 47.4033 118.234V119.473H47.8766V118.637H50.118V119.473H50.5914V118.234ZM48.524 117.496V115.909H49.6725V118.234H48.2246C48.4196 118.046 48.524 117.795 48.524 117.496Z" fill="#020E1A"/>
<path d="M51.3722 118.637H52.5069C53.1403 118.637 53.5092 118.261 53.5092 117.732C53.5092 117.203 53.1403 116.827 52.5069 116.827H51.8804V115.505H51.3722V118.637ZM52.4929 117.217C52.7923 117.217 53.0011 117.433 53.0011 117.732C53.0011 118.039 52.7923 118.247 52.4929 118.247H51.8804V117.217H52.4929ZM54.0174 118.637H54.5255V115.505H54.0174V118.637Z" fill="#020E1A"/>
<path d="M57.4776 117.071C57.4776 116.382 57.9231 115.909 58.5844 115.909C58.9255 115.909 59.2109 116.034 59.3989 116.243L59.7121 115.929C59.4337 115.63 59.0299 115.456 58.5566 115.456C57.596 115.456 56.9486 116.11 56.9486 117.071C56.9486 118.032 57.596 118.686 58.5566 118.686C59.0299 118.686 59.4337 118.519 59.7121 118.22L59.3989 117.906C59.2109 118.115 58.9255 118.234 58.5844 118.234C57.9231 118.234 57.4776 117.76 57.4776 117.071Z" fill="#020E1A"/>
<path d="M64.5848 113.382C63.8678 114.259 61.9536 113.639 61.9536 116.514C61.9536 118.247 62.6427 118.686 63.5059 118.686C64.55 118.686 65.1834 118.032 65.1834 117.085C65.1834 116.103 64.4943 115.456 63.6381 115.456C63.13 115.456 62.7541 115.693 62.5104 116.145H62.4687C62.5522 114.078 63.9165 114.753 64.8702 113.667L64.5848 113.382ZM62.5244 117.078C62.5244 116.368 62.9142 115.909 63.5615 115.909C64.2159 115.909 64.6614 116.382 64.6614 117.064C64.6614 117.76 64.2089 118.234 63.5546 118.234C62.8794 118.234 62.5244 117.739 62.5244 117.078Z" fill="#020E1A"/>
<path d="M65.5535 118.637C65.6091 118.658 65.7414 118.665 65.8319 118.665C66.3122 118.665 66.6394 118.324 66.6394 117.725V115.909H67.7531V118.637H68.2543V115.505H66.1312V117.704C66.1312 118.101 65.8945 118.296 65.5535 118.296V118.637Z" fill="#020E1A"/>
<path d="M69.0826 117.071C69.0826 118.032 69.737 118.686 70.7045 118.686C71.6651 118.686 72.3195 118.032 72.3195 117.071C72.3195 116.11 71.6651 115.456 70.7045 115.456C69.737 115.456 69.0826 116.11 69.0826 117.071ZM69.6117 117.071C69.6117 116.382 70.0502 115.909 70.7045 115.909C71.3519 115.909 71.7974 116.382 71.7974 117.071C71.7974 117.76 71.3519 118.234 70.7045 118.234C70.0502 118.234 69.6117 117.76 69.6117 117.071Z" fill="#020E1A"/>
<path d="M73.6468 118.637V117.022L75.0529 118.637H75.6585L74.2106 116.988L75.5402 115.505H74.9346L73.6468 116.96V115.505H73.1387V118.637H73.6468Z" fill="#020E1A"/>
<path d="M78.6043 118.296C78.4512 118.296 78.3398 118.206 78.3398 118.039V116.452C78.3398 115.929 77.9709 115.456 77.24 115.456C76.8432 115.456 76.4813 115.602 76.2376 115.853L76.5161 116.131C76.6622 115.978 76.9546 115.874 77.1982 115.874C77.6437 115.874 77.8317 116.187 77.8317 116.452V116.834C77.776 116.82 77.7133 116.813 77.595 116.813C76.7527 116.813 76.0845 117.182 76.0845 117.83C76.0845 118.247 76.356 118.686 76.9824 118.686C77.3166 118.686 77.6368 118.554 77.8804 118.331C77.9639 118.54 78.1449 118.665 78.4025 118.665C78.4721 118.665 78.5556 118.658 78.6043 118.637V118.296ZM77.1356 118.268C76.7179 118.268 76.5926 117.976 76.5926 117.781C76.5926 117.398 77.0381 117.168 77.6228 117.168C77.7203 117.168 77.7829 117.175 77.8317 117.182V117.969C77.6437 118.171 77.3653 118.268 77.1356 118.268Z" fill="#020E1A"/>
<path d="M1.42359 126.982L1.6881 126.717L0.769263 125.792L1.6881 124.866L1.42359 124.601L0.240234 125.792L1.42359 126.982ZM2.60694 126.982L2.87146 126.717L1.94566 125.792L2.87146 124.866L2.60694 124.601L1.41663 125.792L2.60694 126.982Z" fill="#020E1A"/>
<path d="M4.15036 125.095C4.15036 123.898 4.93694 123.084 6.08549 123.084C6.67717 123.084 7.17139 123.293 7.50552 123.648L7.8466 123.313C7.41503 122.868 6.79551 122.61 6.06461 122.61C4.60282 122.61 3.60741 123.62 3.60741 125.095C3.60741 126.571 4.60282 127.58 6.06461 127.58C6.79551 127.58 7.41503 127.323 7.8466 126.877L7.50552 126.55C7.16443 126.905 6.67717 127.107 6.08549 127.107C4.93694 127.107 4.15036 126.293 4.15036 125.095Z" fill="#020E1A"/>
<path d="M8.63471 127.532H9.10805V125.2L10.0617 126.905H10.361L11.3147 125.2V127.532H11.788V124.399H11.3007L10.2148 126.286L9.12197 124.399H8.63471V127.532Z" fill="#020E1A"/>
<path d="M12.6068 125.966C12.6068 126.926 13.2612 127.58 14.2287 127.58C15.1893 127.58 15.8437 126.926 15.8437 125.966C15.8437 125.005 15.1893 124.351 14.2287 124.351C13.2612 124.351 12.6068 125.005 12.6068 125.966ZM13.1359 125.966C13.1359 125.276 13.5744 124.803 14.2287 124.803C14.8761 124.803 15.3216 125.276 15.3216 125.966C15.3216 126.655 14.8761 127.128 14.2287 127.128C13.5744 127.128 13.1359 126.655 13.1359 125.966Z" fill="#020E1A"/>
<path d="M17.7121 124.803H18.6866V124.399H16.2224V124.803H17.2039V127.532H17.7121V124.803Z" fill="#020E1A"/>
<path d="M19.4703 124.399V129.272H19.9785V127.351C20.2152 127.497 20.5075 127.58 20.8277 127.58C21.7744 127.58 22.4148 126.926 22.4148 125.966C22.4148 125.005 21.8022 124.351 20.9043 124.351C20.5423 124.351 20.2221 124.462 19.9785 124.664V124.399H19.4703ZM21.8858 125.966C21.8858 126.655 21.4403 127.128 20.7859 127.128C20.4449 127.128 20.1734 127.017 19.9785 126.829V125.116C20.1734 124.921 20.4449 124.803 20.7859 124.803C21.4403 124.803 21.8858 125.276 21.8858 125.966Z" fill="#020E1A"/>
<path d="M25.965 126.098C25.965 125.026 25.4429 124.351 24.538 124.351C23.647 124.351 23.0414 125.005 23.0414 125.952C23.0414 126.933 23.6957 127.58 24.6633 127.58C25.1505 127.58 25.5473 127.413 25.8327 127.114L25.5264 126.801C25.3315 127.01 25.0461 127.128 24.6911 127.128C24.0438 127.128 23.6261 126.717 23.5843 126.098H25.965ZM24.5519 124.796C25.0809 124.796 25.3942 125.165 25.4568 125.736H23.5843C23.64 125.158 24.0229 124.796 24.5519 124.796Z" fill="#020E1A"/>
<path d="M27.8203 124.803H28.7949V124.399H26.3307V124.803H27.3122V127.532H27.8203V124.803Z" fill="#020E1A"/>
<path d="M29.5786 127.532H30.7132C31.3467 127.532 31.7156 127.156 31.7156 126.627C31.7156 126.098 31.3467 125.722 30.7132 125.722H30.0868V124.399H29.5786V127.532ZM30.6993 126.112C30.9986 126.112 31.2075 126.328 31.2075 126.627C31.2075 126.933 30.9986 127.142 30.6993 127.142H30.0868V126.112H30.6993Z" fill="#020E1A"/>
<path d="M35.3998 124.803H36.3744V124.399H33.9102V124.803H34.8917V127.532H35.3998V124.803Z" fill="#020E1A"/>
<path d="M39.2453 127.191C39.0922 127.191 38.9808 127.1 38.9808 126.933V125.346C38.9808 124.824 38.6119 124.351 37.881 124.351C37.4842 124.351 37.1222 124.497 36.8786 124.747L37.157 125.026C37.3032 124.873 37.5956 124.768 37.8392 124.768C38.2847 124.768 38.4726 125.081 38.4726 125.346V125.729C38.4169 125.715 38.3543 125.708 38.236 125.708C37.3937 125.708 36.7254 126.077 36.7254 126.724C36.7254 127.142 36.9969 127.58 37.6234 127.58C37.9575 127.58 38.2777 127.448 38.5214 127.225C38.6049 127.434 38.7859 127.56 39.0434 127.56C39.113 127.56 39.1966 127.553 39.2453 127.532V127.191ZM37.7765 127.163C37.3589 127.163 37.2336 126.87 37.2336 126.676C37.2336 126.293 37.6791 126.063 38.2638 126.063C38.3613 126.063 38.4239 126.07 38.4726 126.077V126.863C38.2847 127.065 38.0063 127.163 37.7765 127.163Z" fill="#020E1A"/>
<path d="M40.5757 127.532V125.917L41.9818 127.532H42.5874L41.1395 125.882L42.4691 124.399H41.8635L40.5757 125.854V124.399H40.0676V127.532H40.5757Z" fill="#020E1A"/>
<path d="M46.6167 127.532H47.2014L45.9136 125.882L47.09 124.399H46.5053L45.3568 125.868V124.399H44.8556V125.875L43.707 124.399H43.1223L44.2987 125.882L43.0109 127.532H43.5887L44.8556 125.896V127.532H45.3568V125.903L46.6167 127.532Z" fill="#020E1A"/>
<path d="M50.3757 126.098C50.3757 125.026 49.8537 124.351 48.9487 124.351C48.0577 124.351 47.4521 125.005 47.4521 125.952C47.4521 126.933 48.1065 127.58 49.074 127.58C49.5613 127.58 49.9581 127.413 50.2435 127.114L49.9372 126.801C49.7423 127.01 49.4569 127.128 49.1019 127.128C48.4545 127.128 48.0369 126.717 47.9951 126.098H50.3757ZM48.9627 124.796C49.4917 124.796 49.8049 125.165 49.8676 125.736H47.9951C48.0508 125.158 48.4336 124.796 48.9627 124.796Z" fill="#020E1A"/>
<path d="M53.66 125.792L52.4697 124.601L52.2052 124.866L53.1309 125.792L52.2052 126.717L52.4697 126.982L53.66 125.792ZM52.4836 125.792L51.2933 124.601L51.0288 124.866L51.9546 125.792L51.0288 126.717L51.2933 126.982L52.4836 125.792Z" fill="#020E1A"/>
<g filter="url(#filter2_d)">
<rect x="94.7354" y="102.395" width="72.7028" height="27.0702" rx="8" fill="#DC40B1"/>
</g>
<path d="M104.608 113.876C104.608 114.442 104.831 114.86 105.202 115.138C104.711 115.463 104.423 115.964 104.423 116.67C104.423 117.885 105.305 118.73 106.604 118.73C107.903 118.73 108.785 117.885 108.785 116.67C108.785 115.964 108.488 115.463 107.987 115.138C108.367 114.86 108.599 114.442 108.599 113.876C108.599 112.799 107.792 112.048 106.604 112.048C105.416 112.048 104.608 112.799 104.608 113.876ZM105.676 116.67C105.676 116.085 106.056 115.677 106.604 115.677C107.152 115.677 107.532 116.085 107.532 116.67C107.532 117.254 107.152 117.663 106.604 117.663C106.056 117.663 105.676 117.254 105.676 116.67ZM105.861 113.876C105.861 113.431 106.168 113.115 106.604 113.115C107.04 113.115 107.346 113.431 107.346 113.876C107.346 114.322 107.04 114.637 106.604 114.637C106.168 114.637 105.861 114.322 105.861 113.876Z" fill="white"/>
<path d="M110.954 115.658H111.38C111.928 115.658 112.309 116.085 112.309 116.67C112.309 117.254 111.928 117.663 111.38 117.663C110.833 117.663 110.452 117.254 110.452 116.67H109.199C109.199 117.885 110.081 118.73 111.38 118.73C112.68 118.73 113.562 117.885 113.562 116.67C113.562 115.964 113.265 115.463 112.763 115.138C113.144 114.86 113.376 114.442 113.376 113.876C113.376 112.799 112.568 112.048 111.38 112.048C110.193 112.048 109.385 112.799 109.385 113.876H110.638C110.638 113.431 110.944 113.115 111.38 113.115C111.817 113.115 112.123 113.431 112.123 113.876C112.123 114.322 111.817 114.656 111.38 114.656H110.954V115.658Z" fill="white"/>
<path d="M118.318 118.73C119.516 117.542 120.62 115.816 120.62 114.238C120.62 112.846 119.757 112.048 118.495 112.048C117.205 112.048 116.351 112.892 116.351 114.127C116.351 115.38 117.223 116.178 118.467 116.178C118.597 116.178 118.69 116.168 118.782 116.15C118.42 116.818 117.799 117.607 117.279 118.136L118.318 118.73ZM119.367 114.136C119.367 114.739 119.005 115.157 118.485 115.157C117.966 115.157 117.604 114.739 117.604 114.136C117.604 113.533 117.966 113.115 118.485 113.115C119.005 113.115 119.367 113.533 119.367 114.136Z" fill="white"/>
<path d="M123.641 118.637H124.847V117.524H125.321V116.503H124.801V112.14H123.594L120.764 117.013V117.524H123.641V118.637ZM122.276 116.503L123.687 113.941V116.503H122.276Z" fill="white"/>
<path d="M128.071 118.73C129.268 117.542 130.373 115.816 130.373 114.238C130.373 112.846 129.509 112.048 128.247 112.048C126.957 112.048 126.103 112.892 126.103 114.127C126.103 115.38 126.976 116.178 128.219 116.178C128.349 116.178 128.442 116.168 128.535 116.15C128.173 116.818 127.551 117.607 127.031 118.136L128.071 118.73ZM129.12 114.136C129.12 114.739 128.758 115.157 128.238 115.157C127.718 115.157 127.356 114.739 127.356 114.136C127.356 113.533 127.718 113.115 128.238 113.115C128.758 113.115 129.12 113.533 129.12 114.136Z" fill="white"/>
<g opacity="0.7">
<path d="M138.898 118.034V118.637H142.787V118.053H139.817L142.193 115.677C142.555 115.305 142.787 114.767 142.787 114.127C142.787 112.901 141.989 112.075 140.81 112.075C139.632 112.075 138.833 112.901 138.833 114.127H139.53C139.53 113.273 140.049 112.688 140.81 112.688C141.562 112.688 142.091 113.273 142.091 114.127C142.091 114.581 141.961 114.971 141.72 115.222L138.898 118.034Z" fill="white"/>
<path d="M143.795 118.247C143.795 118.507 143.99 118.702 144.25 118.702C144.501 118.702 144.705 118.507 144.705 118.247C144.705 117.997 144.501 117.793 144.25 117.793C143.99 117.793 143.795 117.997 143.795 118.247Z" fill="white"/>
<path d="M145.316 115.389C145.316 117.356 146.188 118.702 147.478 118.702C148.759 118.702 149.631 117.356 149.631 115.389C149.631 113.421 148.759 112.075 147.478 112.075C146.188 112.075 145.316 113.421 145.316 115.389ZM146.021 115.389C146.021 113.783 146.606 112.679 147.478 112.679C148.341 112.679 148.935 113.783 148.935 115.389C148.935 116.994 148.341 118.099 147.478 118.099C146.606 118.099 146.021 116.994 146.021 115.389Z" fill="white"/>
<path d="M152.021 118.637H152.707L156.123 112.14H155.436L152.021 118.637ZM150.471 113.644C150.471 114.581 151.111 115.212 152.048 115.212C152.977 115.212 153.617 114.581 153.617 113.644C153.617 112.707 152.977 112.075 152.048 112.075C151.111 112.075 150.471 112.707 150.471 113.644ZM151.083 113.644C151.083 113.022 151.473 112.595 152.048 112.595C152.615 112.595 153.004 113.022 153.004 113.644C153.004 114.266 152.615 114.693 152.048 114.693C151.473 114.693 151.083 114.266 151.083 113.644ZM154.517 117.134C154.517 118.071 155.158 118.702 156.086 118.702C157.023 118.702 157.664 118.071 157.664 117.134C157.664 116.196 157.023 115.565 156.086 115.565C155.158 115.565 154.517 116.196 154.517 117.134ZM155.13 117.134C155.13 116.512 155.52 116.085 156.086 116.085C156.661 116.085 157.051 116.512 157.051 117.134C157.051 117.756 156.661 118.182 156.086 118.182C155.52 118.182 155.13 117.756 155.13 117.134Z" fill="white"/>
</g>
<path d="M0.372559 144.315V149.188H1.31228V145.081H3.19173V149.188H4.13145V144.315H0.372559Z" fill="#020E1A"/>
<path d="M4.75369 147.622C4.75369 148.596 5.42194 149.257 6.41038 149.257C7.39187 149.257 8.06708 148.596 8.06708 147.622C8.06708 146.647 7.39187 145.986 6.41038 145.986C5.42194 145.986 4.75369 146.647 4.75369 147.622ZM5.69341 147.622C5.69341 147.127 5.98577 146.786 6.41038 146.786C6.82804 146.786 7.12736 147.127 7.12736 147.622C7.12736 148.116 6.82804 148.457 6.41038 148.457C5.98577 148.457 5.69341 148.116 5.69341 147.622Z" fill="#020E1A"/>
<path d="M9.55633 146.055H8.65141V149.188H9.34751L10.6701 147.517V149.188H11.575V146.055H10.8789L9.55633 147.726V146.055Z" fill="#020E1A"/>
<path d="M13.1031 147.622C13.1031 147.127 13.4164 146.786 13.8619 146.786C14.1055 146.786 14.3074 146.877 14.4327 147.023L14.9826 146.473C14.6902 146.167 14.2865 145.986 13.8062 145.986C12.8247 145.986 12.1634 146.647 12.1634 147.622C12.1634 148.596 12.8247 149.257 13.8062 149.257C14.2865 149.257 14.6902 149.083 14.9826 148.777L14.4327 148.227C14.3074 148.373 14.1055 148.457 13.8619 148.457C13.4164 148.457 13.1031 148.116 13.1031 147.622Z" fill="#020E1A"/>
<path d="M16.4085 149.188V147.74L17.4735 149.188H18.5316L17.2716 147.51L18.4063 146.055H17.3412L16.4085 147.294V146.055H15.5036V149.188H16.4085Z" fill="#020E1A"/>
<path d="M20.5203 149.188H21.3556V147.427L22.0308 148.631H22.4763L23.1515 147.427V149.188H23.9868V146.055H23.1306L22.2536 147.51L21.3765 146.055H20.5203V149.188Z" fill="#020E1A"/>
<path d="M27.3744 148.61C27.2213 148.61 27.1169 148.506 27.1169 148.38V147.134C27.1169 146.452 26.6435 145.986 25.7943 145.986C25.2861 145.986 24.959 146.153 24.6388 146.473L25.0843 146.919C25.2304 146.772 25.488 146.717 25.6968 146.717C26.0797 146.717 26.2119 146.905 26.2119 147.134V147.308C26.2119 147.308 26.0727 147.274 25.85 147.274C25.14 147.274 24.5483 147.622 24.5483 148.318C24.5483 148.84 24.8894 149.257 25.4602 149.257C25.8082 149.257 26.1075 149.104 26.3233 148.861C26.4486 149.09 26.6922 149.244 27.0542 149.244C27.1656 149.244 27.2978 149.23 27.3744 149.202V148.61ZM25.7734 148.527C25.5576 148.527 25.4602 148.38 25.4602 148.213C25.4602 147.984 25.6342 147.872 25.9265 147.872C26.1006 147.872 26.2119 147.914 26.2119 147.914V148.325C26.0936 148.464 25.9126 148.527 25.7734 148.527Z" fill="#020E1A"/>
<path d="M28.8212 146.752H29.9001V146.055H27.9163V149.188H28.8212V146.752Z" fill="#020E1A"/>
<path d="M33.0845 148.61C32.9314 148.61 32.827 148.506 32.827 148.38V147.134C32.827 146.452 32.3536 145.986 31.5044 145.986C30.9963 145.986 30.6691 146.153 30.3489 146.473L30.7944 146.919C30.9406 146.772 31.1981 146.717 31.4069 146.717C31.7898 146.717 31.9221 146.905 31.9221 147.134V147.308C31.9221 147.308 31.7828 147.274 31.5601 147.274C30.8501 147.274 30.2584 147.622 30.2584 148.318C30.2584 148.84 30.5995 149.257 31.1703 149.257C31.5183 149.257 31.8176 149.104 32.0334 148.861C32.1587 149.09 32.4024 149.244 32.7643 149.244C32.8757 149.244 33.008 149.23 33.0845 149.202V148.61ZM31.4835 148.527C31.2677 148.527 31.1703 148.38 31.1703 148.213C31.1703 147.984 31.3443 147.872 31.6367 147.872C31.8107 147.872 31.9221 147.914 31.9221 147.914V148.325C31.8037 148.464 31.6227 148.527 31.4835 148.527Z" fill="#020E1A"/>
<path d="M34.5592 145.986C34.0788 145.986 33.7447 146.146 33.4315 146.473L33.9257 146.967C34.0858 146.772 34.3225 146.717 34.4687 146.717C34.7749 146.717 34.8376 146.939 34.8376 147.037C34.8376 147.155 34.7332 147.294 34.5383 147.294H34.1206V147.914H34.6775C34.8376 147.914 34.9629 148.011 34.9629 148.192C34.9629 148.366 34.8445 148.527 34.5035 148.527C34.2738 148.527 34.044 148.457 33.8909 148.283L33.3967 148.777C33.7169 149.097 34.0023 149.257 34.58 149.257C35.471 149.257 35.8678 148.882 35.8678 148.353C35.8678 148.004 35.7007 147.712 35.3527 147.566C35.5963 147.399 35.7286 147.127 35.7286 146.856C35.7286 146.369 35.304 145.986 34.5592 145.986Z" fill="#020E1A"/>
<path d="M37.3592 146.055H36.4543V149.188H37.1503L38.4729 147.517V149.188H39.3778V146.055H38.6817L37.3592 147.726V146.055Z" fill="#020E1A"/>
<path d="M40.9756 146.055H40.0707V149.188H40.9756V147.97H42.0893V149.188H42.9942V146.055H42.0893V147.274H40.9756V146.055Z" fill="#020E1A"/>
<path d="M46.3809 148.61C46.2278 148.61 46.1234 148.506 46.1234 148.38V147.134C46.1234 146.452 45.6501 145.986 44.8008 145.986C44.2927 145.986 43.9655 146.153 43.6453 146.473L44.0908 146.919C44.237 146.772 44.4945 146.717 44.7034 146.717C45.0862 146.717 45.2185 146.905 45.2185 147.134V147.308C45.2185 147.308 45.0793 147.274 44.8565 147.274C44.1465 147.274 43.5548 147.622 43.5548 148.318C43.5548 148.84 43.8959 149.257 44.4667 149.257C44.8147 149.257 45.1141 149.104 45.3298 148.861C45.4551 149.09 45.6988 149.244 46.0607 149.244C46.1721 149.244 46.3044 149.23 46.3809 149.202V148.61ZM44.7799 148.527C44.5641 148.527 44.4667 148.38 44.4667 148.213C44.4667 147.984 44.6407 147.872 44.9331 147.872C45.1071 147.872 45.2185 147.914 45.2185 147.914V148.325C45.1001 148.464 44.9192 148.527 44.7799 148.527Z" fill="#020E1A"/>
<path d="M0.497855 158.082H1.76474C2.37034 158.082 2.71838 157.727 2.71838 157.219C2.71838 156.836 2.51652 156.544 2.16151 156.426C2.39818 156.286 2.5374 156.05 2.5374 155.743C2.5374 155.277 2.21024 154.95 1.65337 154.95H0.497855V158.082ZM1.68121 156.634C1.99445 156.634 2.21024 156.85 2.21024 157.163C2.21024 157.477 1.99445 157.693 1.68121 157.693H1.006V156.634H1.68121ZM1.006 156.279V155.34H1.5768C1.85523 155.34 2.04318 155.535 2.04318 155.806C2.04318 156.085 1.85523 156.279 1.5768 156.279H1.006Z" fill="#020E1A"/>
<path d="M4.08539 158.082V156.467L5.49149 158.082H6.09709L4.64922 156.433L5.97875 154.95H5.37315L4.08539 156.405V154.95H3.57724V158.082H4.08539Z" fill="#020E1A"/>
<path d="M6.56934 158.082C6.62503 158.103 6.75729 158.11 6.84778 158.11C7.32808 158.11 7.65524 157.769 7.65524 157.17V155.354H8.76899V158.082H9.27017V154.95H7.1471V157.15C7.1471 157.546 6.91043 157.741 6.56934 157.741V158.082Z" fill="#020E1A"/>
<path d="M10.8016 154.95H10.2934V158.082H10.8016V156.704H11.5882C11.6647 157.56 12.2634 158.131 13.1265 158.131C14.0454 158.131 14.6718 157.477 14.6718 156.516C14.6718 155.556 14.0454 154.901 13.1265 154.901C12.2773 154.901 11.6786 155.458 11.5882 156.293H10.8016V154.95ZM12.1033 156.516C12.1033 155.827 12.5209 155.354 13.1265 155.354C13.7321 155.354 14.1498 155.827 14.1498 156.516C14.1498 157.205 13.7321 157.679 13.1265 157.679C12.5209 157.679 12.1033 157.205 12.1033 156.516Z" fill="#020E1A"/>
<path d="M17.6819 158.082V154.95H17.1737V156.335C17.0136 156.426 16.7491 156.474 16.5681 156.474C16.0809 156.474 15.886 156.161 15.886 155.792V154.95H15.3778V155.813C15.3778 156.46 15.7537 156.892 16.4568 156.892C16.6586 156.892 16.944 156.857 17.1737 156.774V158.082H17.6819Z" fill="#020E1A"/>
<path d="M21.0274 157.741C20.8742 157.741 20.7628 157.651 20.7628 157.484V155.897C20.7628 155.375 20.3939 154.901 19.663 154.901C19.2663 154.901 18.9043 155.047 18.6607 155.298L18.9391 155.576C19.0853 155.423 19.3776 155.319 19.6213 155.319C20.0668 155.319 20.2547 155.632 20.2547 155.897V156.279C20.199 156.266 20.1364 156.259 20.018 156.259C19.1758 156.259 18.5075 156.627 18.5075 157.275C18.5075 157.693 18.779 158.131 19.4055 158.131C19.7396 158.131 20.0598 157.999 20.3034 157.776C20.387 157.985 20.5679 158.11 20.8255 158.11C20.8951 158.11 20.9786 158.103 21.0274 158.082V157.741ZM19.5586 157.713C19.141 157.713 19.0157 157.421 19.0157 157.226C19.0157 156.843 19.4612 156.614 20.0459 156.614C20.1433 156.614 20.206 156.621 20.2547 156.627V157.414C20.0668 157.616 19.7883 157.713 19.5586 157.713Z" fill="#020E1A"/>
<path d="M23.9473 154.95H22.7152C22.0679 154.95 21.692 155.333 21.692 155.876C21.692 156.321 21.9495 156.655 22.402 156.76L21.6224 158.082H22.1583L22.8684 156.795H23.4392V158.082H23.9473V154.95ZM22.7291 156.405C22.4159 156.405 22.2001 156.182 22.2001 155.869C22.2001 155.556 22.4159 155.34 22.7291 155.34H23.4392V156.405H22.7291Z" fill="#020E1A"/>
<path d="M28.6345 158.082H29.1426V154.95H26.5741V158.082H27.0822V155.354H28.6345V158.082Z" fill="#020E1A"/>
<path d="M32.8852 156.648C32.8852 155.576 32.3631 154.901 31.4582 154.901C30.5672 154.901 29.9616 155.556 29.9616 156.502C29.9616 157.484 30.6159 158.131 31.5835 158.131C32.0707 158.131 32.4675 157.964 32.7529 157.665L32.4466 157.351C32.2517 157.56 31.9663 157.679 31.6113 157.679C30.9639 157.679 30.5463 157.268 30.5045 156.648H32.8852ZM31.4721 155.347C32.0011 155.347 32.3144 155.716 32.377 156.286H30.5045C30.5602 155.709 30.9431 155.347 31.4721 155.347Z" fill="#020E1A"/>
<path d="M33.6913 154.95V159.823H34.1995V157.901C34.4361 158.048 34.7285 158.131 35.0487 158.131C35.9954 158.131 36.6358 157.477 36.6358 156.516C36.6358 155.556 36.0232 154.901 35.1253 154.901C34.7633 154.901 34.4431 155.013 34.1995 155.214V154.95H33.6913ZM36.1068 156.516C36.1068 157.205 35.6613 157.679 35.0069 157.679C34.6658 157.679 34.3944 157.567 34.1995 157.379V155.667C34.3944 155.472 34.6658 155.354 35.0069 155.354C35.6613 155.354 36.1068 155.827 36.1068 156.516Z" fill="#020E1A"/>
<path d="M40.186 156.648C40.186 155.576 39.6639 154.901 38.759 154.901C37.868 154.901 37.2624 155.556 37.2624 156.502C37.2624 157.484 37.9167 158.131 38.8843 158.131C39.3715 158.131 39.7683 157.964 40.0537 157.665L39.7474 157.351C39.5525 157.56 39.2671 157.679 38.9121 157.679C38.2647 157.679 37.8471 157.268 37.8053 156.648H40.186ZM38.7729 155.347C39.3019 155.347 39.6152 155.716 39.6778 156.286H37.8053C37.861 155.709 38.2439 155.347 38.7729 155.347Z" fill="#020E1A"/>
<path d="M42.9687 158.082H43.5604L42.3144 156.488L43.5117 154.95H42.92L41.9873 156.154L41.0615 154.95H40.4698L41.6601 156.488L40.4211 158.082H41.0058L41.9873 156.808L42.9687 158.082Z" fill="#020E1A"/>
<path d="M43.8086 156.516C43.8086 157.477 44.4629 158.131 45.4305 158.131C46.3911 158.131 47.0454 157.477 47.0454 156.516C47.0454 155.556 46.3911 154.901 45.4305 154.901C44.4629 154.901 43.8086 155.556 43.8086 156.516ZM44.3376 156.516C44.3376 155.827 44.7762 155.354 45.4305 155.354C46.0779 155.354 46.5234 155.827 46.5234 156.516C46.5234 157.205 46.0779 157.679 45.4305 157.679C44.7762 157.679 44.3376 157.205 44.3376 156.516Z" fill="#020E1A"/>
<path d="M50.5914 157.679H50.1738V154.95H48.0159V156.982C48.0159 157.386 47.7514 157.679 47.4033 157.679V158.918H47.8767V158.082H50.1181V158.918H50.5914V157.679ZM48.524 156.941V155.354H49.6726V157.679H48.2247C48.4196 157.491 48.524 157.24 48.524 156.941Z" fill="#020E1A"/>
<path d="M51.3723 158.082H52.5069C53.1404 158.082 53.5093 157.706 53.5093 157.177C53.5093 156.648 53.1404 156.272 52.5069 156.272H51.8804V154.95H51.3723V158.082ZM52.493 156.662C52.7923 156.662 53.0011 156.878 53.0011 157.177C53.0011 157.484 52.7923 157.693 52.493 157.693H51.8804V156.662H52.493ZM54.0174 158.082H54.5256V154.95H54.0174V158.082Z" fill="#020E1A"/>
<path d="M1.006 163.844H0.497855V166.977H1.006V165.599H2.64878V166.977H3.14996V163.844H2.64878V165.188H1.006V163.844Z" fill="#020E1A"/>
<path d="M6.50735 166.636C6.35421 166.636 6.24283 166.545 6.24283 166.378V164.791C6.24283 164.269 5.8739 163.796 5.14301 163.796C4.74624 163.796 4.38427 163.942 4.14064 164.192L4.41908 164.471C4.56525 164.318 4.85761 164.213 5.10124 164.213C5.54674 164.213 5.73469 164.527 5.73469 164.791V165.174C5.679 165.16 5.61635 165.153 5.49802 165.153C4.65575 165.153 3.9875 165.522 3.9875 166.169C3.9875 166.587 4.25897 167.026 4.88546 167.026C5.21958 167.026 5.53978 166.893 5.78341 166.671C5.86694 166.879 6.04793 167.005 6.30548 167.005C6.37509 167.005 6.45862 166.998 6.50735 166.977V166.636ZM5.0386 166.608C4.62094 166.608 4.49565 166.316 4.49565 166.121C4.49565 165.738 4.94114 165.508 5.52586 165.508C5.62331 165.508 5.68596 165.515 5.73469 165.522V166.309C5.54674 166.51 5.26831 166.608 5.0386 166.608Z" fill="#020E1A"/>
<path d="M9.268 165.411C9.268 164.721 9.7135 164.248 10.3748 164.248C10.7159 164.248 11.0013 164.373 11.1892 164.582L11.5025 164.269C11.224 163.97 10.8203 163.796 10.3469 163.796C9.38634 163.796 8.73897 164.45 8.73897 165.411C8.73897 166.371 9.38634 167.026 10.3469 167.026C10.8203 167.026 11.224 166.858 11.5025 166.559L11.1892 166.246C11.0013 166.455 10.7159 166.573 10.3748 166.573C9.7135 166.573 9.268 166.1 9.268 165.411Z" fill="#020E1A"/>
<path d="M13.3819 164.248H14.3565V163.844H11.8923V164.248H12.8738V166.977H13.3819V164.248Z" fill="#020E1A"/>
<path d="M15.1402 163.844V168.717H15.6484V166.796C15.885 166.942 16.1774 167.026 16.4976 167.026C17.4443 167.026 18.0847 166.371 18.0847 165.411C18.0847 164.45 17.4721 163.796 16.5742 163.796C16.2122 163.796 15.892 163.907 15.6484 164.109V163.844H15.1402ZM17.5557 165.411C17.5557 166.1 17.1102 166.573 16.4558 166.573C16.1148 166.573 15.8433 166.462 15.6484 166.274V164.561C15.8433 164.366 16.1148 164.248 16.4558 164.248C17.1102 164.248 17.5557 164.721 17.5557 165.411Z" fill="#020E1A"/>
<path d="M21.2381 166.636C21.085 166.636 20.9736 166.545 20.9736 166.378V164.791C20.9736 164.269 20.6047 163.796 19.8738 163.796C19.477 163.796 19.115 163.942 18.8714 164.192L19.1498 164.471C19.296 164.318 19.5884 164.213 19.832 164.213C20.2775 164.213 20.4654 164.527 20.4654 164.791V165.174C20.4097 165.16 20.3471 165.153 20.2288 165.153C19.3865 165.153 18.7182 165.522 18.7182 166.169C18.7182 166.587 18.9897 167.026 19.6162 167.026C19.9503 167.026 20.2705 166.893 20.5142 166.671C20.5977 166.879 20.7787 167.005 21.0362 167.005C21.1058 167.005 21.1894 166.998 21.2381 166.977V166.636ZM19.7693 166.608C19.3517 166.608 19.2264 166.316 19.2264 166.121C19.2264 165.738 19.6719 165.508 20.2566 165.508C20.3541 165.508 20.4167 165.515 20.4654 165.522V166.309C20.2775 166.51 19.9991 166.608 19.7693 166.608Z" fill="#020E1A"/>
<path d="M22.5685 163.844H22.0604V166.977H22.5685V165.599H24.2113V166.977H24.7125V163.844H24.2113V165.188H22.5685V163.844Z" fill="#020E1A"/>
<path d="M26.2461 163.844H25.7379V166.977H26.1486L27.9237 164.659V166.977H28.4318V163.844H28.0211L26.2461 166.162V163.844Z" fill="#020E1A"/>
<path d="M29.4495 166.977H31.9276V167.812H32.4009V166.573H32.0181V163.844H31.5099V166.573H29.9577V163.844H29.4495V166.977Z" fill="#020E1A"/>
<path d="M35.9571 163.844H35.3933L34.3005 166.371L33.2006 163.844H32.6368L34.0568 166.977L33.1589 168.717H33.7227L35.9571 163.844Z" fill="#020E1A"/>
<path d="M39.1784 166.427L39.4429 166.162L38.5241 165.237L39.4429 164.311L39.1784 164.046L37.9951 165.237L39.1784 166.427ZM40.3618 166.427L40.6263 166.162L39.7005 165.237L40.6263 164.311L40.3618 164.046L39.1715 165.237L40.3618 166.427Z" fill="#020E1A"/>
<path d="M45.5945 166.977H46.1165V162.104H45.7128L43.8264 165.118L41.94 162.104H41.5432V166.977H42.0653V163.183L43.715 165.856H43.9447L45.5945 163.183V166.977Z" fill="#020E1A"/>
<path d="M49.4828 166.636C49.3297 166.636 49.2183 166.545 49.2183 166.378V164.791C49.2183 164.269 48.8493 163.796 48.1185 163.796C47.7217 163.796 47.3597 163.942 47.1161 164.192L47.3945 164.471C47.5407 164.318 47.8331 164.213 48.0767 164.213C48.5222 164.213 48.7101 164.527 48.7101 164.791V165.174C48.6544 165.16 48.5918 165.153 48.4735 165.153C47.6312 165.153 46.9629 165.522 46.9629 166.169C46.9629 166.587 47.2344 167.026 47.8609 167.026C48.195 167.026 48.5152 166.893 48.7589 166.671C48.8424 166.879 49.0234 167.005 49.2809 167.005C49.3505 167.005 49.4341 166.998 49.4828 166.977V166.636ZM48.014 166.608C47.5964 166.608 47.4711 166.316 47.4711 166.121C47.4711 165.738 47.9166 165.508 48.5013 165.508C48.5988 165.508 48.6614 165.515 48.7101 165.522V166.309C48.5222 166.51 48.2437 166.608 48.014 166.608Z" fill="#020E1A"/>
<path d="M50.8132 164.248H52.0731V163.844H50.305V166.977H50.8132V164.248Z" fill="#020E1A"/>
<path d="M54.955 166.636C54.8018 166.636 54.6905 166.545 54.6905 166.378V164.791C54.6905 164.269 54.3215 163.796 53.5906 163.796C53.1939 163.796 52.8319 163.942 52.5883 164.192L52.8667 164.471C53.0129 164.318 53.3053 164.213 53.5489 164.213C53.9944 164.213 54.1823 164.527 54.1823 164.791V165.174C54.1266 165.16 54.064 165.153 53.9457 165.153C53.1034 165.153 52.4351 165.522 52.4351 166.169C52.4351 166.587 52.7066 167.026 53.3331 167.026C53.6672 167.026 53.9874 166.893 54.2311 166.671C54.3146 166.879 54.4956 167.005 54.7531 167.005C54.8227 167.005 54.9063 166.998 54.955 166.977V166.636ZM53.4862 166.608C53.0686 166.608 52.9433 166.316 52.9433 166.121C52.9433 165.738 53.3888 165.508 53.9735 165.508C54.0709 165.508 54.1336 165.515 54.1823 165.522V166.309C53.9944 166.51 53.7159 166.608 53.4862 166.608Z" fill="#020E1A"/>
<path d="M56.5917 163.796C56.1531 163.796 55.826 163.963 55.5684 164.227L55.8538 164.52C56.0278 164.332 56.2923 164.213 56.5499 164.213C56.9258 164.213 57.0998 164.464 57.0998 164.701C57.0998 164.979 56.8979 165.188 56.6056 165.188H56.2436V165.543H56.7239C57.0441 165.543 57.253 165.745 57.253 166.058C57.253 166.378 57.0163 166.608 56.5917 166.608C56.2784 166.608 56.007 166.483 55.8051 166.274L55.5127 166.559C55.7912 166.838 56.1183 167.026 56.6334 167.026C57.3574 167.026 57.7611 166.671 57.7611 166.141C57.7611 165.766 57.5801 165.459 57.2042 165.334C57.4618 165.195 57.601 164.937 57.601 164.624C57.601 164.137 57.2251 163.796 56.5917 163.796Z" fill="#020E1A"/>
<path d="M59.1269 163.844H58.6187V166.977H59.0294L60.8044 164.659V166.977H61.3126V163.844H60.9019L59.1269 166.162V163.844Z" fill="#020E1A"/>
<path d="M62.8384 163.844H62.3303V166.977H62.8384V165.599H64.4812V166.977H64.9824V163.844H64.4812V165.188H62.8384V163.844Z" fill="#020E1A"/>
<path d="M66.0079 166.977H67.1425C67.7759 166.977 68.1449 166.601 68.1449 166.072C68.1449 165.543 67.7759 165.167 67.1425 165.167H66.516V163.844H66.0079V166.977ZM67.1286 165.557C67.4279 165.557 67.6367 165.773 67.6367 166.072C67.6367 166.378 67.4279 166.587 67.1286 166.587H66.516V165.557H67.1286ZM68.653 166.977H69.1612V163.844H68.653V166.977Z" fill="#020E1A"/>
<path d="M72.653 165.237L71.4627 164.046L71.1982 164.311L72.124 165.237L71.1982 166.162L71.4627 166.427L72.653 165.237ZM71.4766 165.237L70.2863 164.046L70.0218 164.311L70.9476 165.237L70.0218 166.162L70.2863 166.427L71.4766 165.237Z" fill="#020E1A"/>
<g filter="url(#filter3_d)">
<rect x="94.7354" y="142.614" width="9.28121" height="27.0702" rx="4.6406" fill="#59BFC4"/>
</g>
<path d="M110.864 157.881V158.856H115.105V157.835H112.609L114.474 155.969C114.873 155.57 115.105 155.05 115.105 154.401C115.105 153.129 114.242 152.266 112.971 152.266C111.699 152.266 110.836 153.129 110.836 154.401H112.089C112.089 153.779 112.451 153.343 112.971 153.343C113.49 153.343 113.852 153.779 113.852 154.401C113.852 154.698 113.778 154.967 113.592 155.153L110.864 157.881Z" fill="#020E1A"/>
<path d="M117.879 157.881V158.856H122.121V157.835H119.624L121.489 155.969C121.889 155.57 122.121 155.05 122.121 154.401C122.121 153.129 121.257 152.266 119.986 152.266C118.714 152.266 117.851 153.129 117.851 154.401H119.104C119.104 153.779 119.466 153.343 119.986 153.343C120.506 153.343 120.868 153.779 120.868 154.401C120.868 154.698 120.793 154.967 120.608 155.153L117.879 157.881Z" fill="#020E1A"/>
<path d="M125.076 152.266C123.878 153.454 122.774 155.18 122.774 156.758C122.774 158.15 123.637 158.949 124.899 158.949C126.189 158.949 127.043 158.104 127.043 156.87C127.043 155.617 126.171 154.818 124.927 154.818C124.797 154.818 124.704 154.828 124.612 154.846C124.974 154.178 125.595 153.389 126.115 152.86L125.076 152.266ZM124.027 156.86C124.027 156.257 124.389 155.839 124.909 155.839C125.428 155.839 125.79 156.257 125.79 156.86C125.79 157.464 125.428 157.881 124.909 157.881C124.389 157.881 124.027 157.464 124.027 156.86Z" fill="#020E1A"/>
<path d="M127.677 157.881V158.856H131.918V157.835H129.422L131.287 155.969C131.686 155.57 131.918 155.05 131.918 154.401C131.918 153.129 131.055 152.266 129.784 152.266C128.512 152.266 127.649 153.129 127.649 154.401H128.902C128.902 153.779 129.264 153.343 129.784 153.343C130.303 153.343 130.665 153.779 130.665 154.401C130.665 154.698 130.591 154.967 130.406 155.153L127.677 157.881Z" fill="#020E1A"/>
<g opacity="0.7">
<path d="M140.445 155.607C140.445 157.575 141.318 158.921 142.608 158.921C143.889 158.921 144.761 157.575 144.761 155.607C144.761 153.64 143.889 152.294 142.608 152.294C141.318 152.294 140.445 153.64 140.445 155.607ZM141.151 155.607C141.151 154.002 141.735 152.897 142.608 152.897C143.471 152.897 144.065 154.002 144.065 155.607C144.065 157.213 143.471 158.317 142.608 158.317C141.735 158.317 141.151 157.213 141.151 155.607Z" fill="#020E1A"/>
<path d="M145.56 158.466C145.56 158.726 145.755 158.921 146.014 158.921C146.265 158.921 146.469 158.726 146.469 158.466C146.469 158.215 146.265 158.011 146.014 158.011C145.755 158.011 145.56 158.215 145.56 158.466Z" fill="#020E1A"/>
<path d="M147.08 155.607C147.08 157.575 147.952 158.921 149.242 158.921C150.523 158.921 151.396 157.575 151.396 155.607C151.396 153.64 150.523 152.294 149.242 152.294C147.952 152.294 147.08 153.64 147.08 155.607ZM147.785 155.607C147.785 154.002 148.37 152.897 149.242 152.897C150.106 152.897 150.7 154.002 150.7 155.607C150.7 157.213 150.106 158.317 149.242 158.317C148.37 158.317 147.785 157.213 147.785 155.607Z" fill="#020E1A"/>
<path d="M154.583 152.294C152.894 154.772 152.281 155.617 152.281 156.832C152.281 158.123 153.107 158.921 154.323 158.921C155.539 158.921 156.365 158.095 156.365 156.888C156.365 155.672 155.53 154.865 154.333 154.865C154.045 154.865 153.794 154.93 153.59 155.05C154.054 154.234 154.63 153.371 155.159 152.628L154.583 152.294ZM152.987 156.888C152.987 156.034 153.525 155.45 154.323 155.45C155.121 155.45 155.66 156.034 155.66 156.888C155.66 157.733 155.121 158.317 154.323 158.317C153.525 158.317 152.987 157.733 152.987 156.888Z" fill="#020E1A"/>
<path d="M158.707 158.856H159.393L162.809 152.359H162.122L158.707 158.856ZM157.157 153.862C157.157 154.8 157.797 155.431 158.734 155.431C159.662 155.431 160.303 154.8 160.303 153.862C160.303 152.925 159.662 152.294 158.734 152.294C157.797 152.294 157.157 152.925 157.157 153.862ZM157.769 153.862C157.769 153.241 158.159 152.814 158.734 152.814C159.301 152.814 159.69 153.241 159.69 153.862C159.69 154.484 159.301 154.911 158.734 154.911C158.159 154.911 157.769 154.484 157.769 153.862ZM161.203 157.352C161.203 158.29 161.844 158.921 162.772 158.921C163.709 158.921 164.35 158.29 164.35 157.352C164.35 156.415 163.709 155.784 162.772 155.784C161.844 155.784 161.203 156.415 161.203 157.352ZM161.816 157.352C161.816 156.73 162.206 156.303 162.772 156.303C163.347 156.303 163.737 156.73 163.737 157.352C163.737 157.974 163.347 158.401 162.772 158.401C162.206 158.401 161.816 157.974 161.816 157.352Z" fill="#020E1A"/>
</g>
<path d="M141.375 183.25L184 147L212.5 157L235.5 117L266.5 122L300 60" stroke="#C5CDCF" stroke-width="4"/>
<defs>
<filter id="filter0_d" x="92.7354" y="21.5049" width="235.456" height="37.0702" filterUnits="userSpaceOnUse" color-interpolation-filters="sRGB">
<feFlood flood-opacity="0" result="BackgroundImageFix"/>
<feColorMatrix in="SourceAlpha" type="matrix" values="0 0 0 0 0 0 0 0 0 0 0 0 0 0 0 0 0 0 127 0"/>
<feOffset dx="3" dy="3"/>
<feGaussianBlur stdDeviation="2.5"/>
<feColorMatrix type="matrix" values="0 0 0 0 0.4125 0 0 0 0 0.172688 0 0 0 0 0.163281 0 0 0 0.5 0"/>
<feBlend mode="normal" in2="BackgroundImageFix" result="effect1_dropShadow"/>
<feBlend mode="normal" in="SourceGraphic" in2="effect1_dropShadow" result="shape"/>
</filter>
<filter id="filter1_d" x="92.7354" y="60.95" width="144.964" height="37.0702" filterUnits="userSpaceOnUse" color-interpolation-filters="sRGB">
<feFlood flood-opacity="0" result="BackgroundImageFix"/>
<feColorMatrix in="SourceAlpha" type="matrix" values="0 0 0 0 0 0 0 0 0 0 0 0 0 0 0 0 0 0 127 0"/>
<feOffset dx="3" dy="3"/>
<feGaussianBlur stdDeviation="2.5"/>
<feColorMatrix type="matrix" values="0 0 0 0 0.441667 0 0 0 0 0.182187 0 0 0 0 0.438297 0 0 0 0.4 0"/>
<feBlend mode="normal" in2="BackgroundImageFix" result="effect1_dropShadow"/>
<feBlend mode="normal" in="SourceGraphic" in2="effect1_dropShadow" result="shape"/>
</filter>
<filter id="filter2_d" x="92.7354" y="100.395" width="82.7028" height="37.0702" filterUnits="userSpaceOnUse" color-interpolation-filters="sRGB">
<feFlood flood-opacity="0" result="BackgroundImageFix"/>
<feColorMatrix in="SourceAlpha" type="matrix" values="0 0 0 0 0 0 0 0 0 0 0 0 0 0 0 0 0 0 127 0"/>
<feOffset dx="3" dy="3"/>
<feGaussianBlur stdDeviation="2.5"/>
<feColorMatrix type="matrix" values="0 0 0 0 0.7125 0 0 0 0 0.175156 0 0 0 0 0.564386 0 0 0 0.4 0"/>
<feBlend mode="normal" in2="BackgroundImageFix" result="effect1_dropShadow"/>
<feBlend mode="normal" in="SourceGraphic" in2="effect1_dropShadow" result="shape"/>
</filter>
<filter id="filter3_d" x="92.7354" y="140.614" width="19.2812" height="37.0702" filterUnits="userSpaceOnUse" color-interpolation-filters="sRGB">
<feFlood flood-opacity="0" result="BackgroundImageFix"/>
<feColorMatrix in="SourceAlpha" type="matrix" values="0 0 0 0 0 0 0 0 0 0 0 0 0 0 0 0 0 0 127 0"/>
<feOffset dx="3" dy="3"/>
<feGaussianBlur stdDeviation="2.5"/>
<feColorMatrix type="matrix" values="0 0 0 0 0.421076 0 0 0 0 0.738602 0 0 0 0 0.754167 0 0 0 0.7 0"/>
<feBlend mode="normal" in2="BackgroundImageFix" result="effect1_dropShadow"/>
<feBlend mode="normal" in="SourceGraphic" in2="effect1_dropShadow" result="shape"/>
</filter>
</defs>
</svg>
