<svg width="286" height="190" viewBox="0 0 286 190" fill="none" xmlns="http://www.w3.org/2000/svg">
<mask id="mask0" mask-type="alpha" maskUnits="userSpaceOnUse" x="0" y="6" width="180" height="184">
<path d="M178.543 13.9564L179.5 189.5H8C3.58173 189.5 0 185.918 0 181.5V14C0 9.58172 3.58173 6 8 6H170.543C174.945 6 178.519 9.55521 178.543 13.9564Z" fill="#F6F4F2"/>
</mask>
<g mask="url(#mask0)">
<path d="M14 33C14 28.5817 17.5817 25 22 25H207C211.418 25 215 28.5817 215 33V153C215 157.418 211.418 161 207 161H22C17.5817 161 14 157.418 14 153V33Z" stroke="#C5CDCF" stroke-width="4"/>
<rect x="28" y="102" width="68" height="34" rx="3" stroke="#C5CDCF" stroke-width="4"/>
<path d="M113 103H196" stroke="#C5CDCF" stroke-width="4" stroke-linecap="round"/>
<path d="M113 113H196" stroke="#C5CDCF" stroke-width="4" stroke-linecap="round"/>
<path d="M113 123H196" stroke="#C5CDCF" stroke-width="4" stroke-linecap="round"/>
<path d="M113 133H196" stroke="#C5CDCF" stroke-width="4" stroke-linecap="round"/>
<rect x="26" y="37" width="116" height="53" rx="5" fill="#C5CDCF"/>
<rect x="150" y="39" width="51" height="49" rx="3" stroke="#C5CDCF" stroke-width="4"/>
<g filter="url(#filter0_f)">
<rect x="159" y="2" width="138" height="178" rx="10" fill="#F6F4F2"/>
</g>
</g>
<rect x="180" y="4" width="96" height="174" rx="8" stroke="#C5CDCF" stroke-width="4"/>
<g filter="url(#filter1_d)">
<path d="M178 18C178 12.3995 178 9.59921 179.09 7.46009C180.049 5.57847 181.578 4.04867 183.46 3.08993C185.599 2 188.399 2 194 2H262C267.601 2 270.401 2 272.54 3.08993C274.422 4.04867 275.951 5.57847 276.91 7.46009C278 9.59921 278 12.3995 278 18V164C278 169.601 278 172.401 276.91 174.54C275.951 176.422 274.422 177.951 272.54 178.91C270.401 180 267.601 180 262 180H194C188.399 180 185.599 180 183.46 178.91C181.578 177.951 180.049 176.422 179.09 174.54C178 172.401 178 169.601 178 164V18Z" fill="#7C267B"/>
</g>
<path d="M192 84H257" stroke="#963195" stroke-width="4" stroke-linecap="round"/>
<path d="M191 142H221" stroke="#963195" stroke-width="4" stroke-linecap="round"/>
<path d="M192 94H257" stroke="#963195" stroke-width="4" stroke-linecap="round"/>
<path d="M191 152H221" stroke="#963195" stroke-width="4" stroke-linecap="round"/>
<rect x="190" y="23" width="47" height="23" rx="5" fill="#963195"/>
<rect x="192" y="56" width="72" height="16" rx="3" stroke="#963195" stroke-width="4"/>
<rect x="192" y="112" width="28" height="19" rx="3" stroke="#963195" stroke-width="4"/>
<rect x="236" y="112" width="28" height="41" rx="3" stroke="#963195" stroke-width="4"/>
<rect x="244.419" y="25.1904" width="19.7333" height="18.8857" rx="3" stroke="#963195" stroke-width="4"/>
<path d="M209.362 2H248.352L245.299 10.5484C244.589 12.5383 242.704 13.8667 240.591 13.8667H217.124C215.01 13.8667 213.125 12.5383 212.415 10.5483L209.362 2Z" fill="#F6F4F2"/>
<path d="M211.2 98H207.06V92.168H195.54V89.108L205.26 72.8H210.012L200.904 88.028H207.06V81.8H211.2V88.028H214.44V92.168H211.2V98ZM225.327 72.512C228.135 72.512 230.235 73.664 231.627 75.968C233.043 78.296 233.751 81.44 233.751 85.4C233.751 89.48 233.043 92.648 231.627 94.904C230.211 97.16 228.135 98.288 225.399 98.288C222.639 98.288 220.527 97.148 219.063 94.868C217.599 92.588 216.867 89.432 216.867 85.4C216.867 81.344 217.587 78.188 219.027 75.932C220.467 73.652 222.567 72.512 225.327 72.512ZM221.295 85.4C221.295 91.424 222.663 94.436 225.399 94.436C226.815 94.436 227.823 93.728 228.423 92.312C229.047 90.896 229.359 88.592 229.359 85.4C229.359 82.232 229.047 79.94 228.423 78.524C227.799 77.108 226.767 76.4 225.327 76.4C223.911 76.4 222.879 77.132 222.231 78.596C221.607 80.036 221.295 82.304 221.295 85.4ZM243.713 85.328C241.625 85.328 239.921 84.74 238.601 83.564C237.281 82.388 236.621 80.828 236.621 78.884C236.621 76.964 237.281 75.416 238.601 74.24C239.921 73.064 241.625 72.476 243.713 72.476C245.777 72.476 247.469 73.064 248.789 74.24C250.133 75.44 250.805 76.988 250.805 78.884C250.805 80.804 250.133 82.364 248.789 83.564C247.469 84.74 245.777 85.328 243.713 85.328ZM240.509 78.884C240.509 79.82 240.809 80.576 241.409 81.152C242.009 81.704 242.777 81.98 243.713 81.98C244.673 81.98 245.453 81.704 246.053 81.152C246.653 80.576 246.953 79.82 246.953 78.884C246.953 77.972 246.641 77.24 246.017 76.688C245.417 76.112 244.649 75.824 243.713 75.824C242.777 75.824 242.009 76.112 241.409 76.688C240.809 77.24 240.509 77.972 240.509 78.884ZM259.625 98.36C257.537 98.36 255.833 97.772 254.513 96.596C253.193 95.42 252.533 93.86 252.533 91.916C252.533 89.996 253.193 88.448 254.513 87.272C255.833 86.096 257.537 85.508 259.625 85.508C261.689 85.508 263.381 86.096 264.701 87.272C266.045 88.472 266.717 90.02 266.717 91.916C266.717 93.836 266.045 95.396 264.701 96.596C263.381 97.772 261.689 98.36 259.625 98.36ZM256.421 91.916C256.421 92.852 256.721 93.608 257.321 94.184C257.921 94.736 258.689 95.012 259.625 95.012C260.585 95.012 261.365 94.736 261.965 94.184C262.565 93.608 262.865 92.852 262.865 91.916C262.865 91.004 262.553 90.272 261.929 89.72C261.329 89.144 260.561 88.856 259.625 88.856C258.689 88.856 257.921 89.144 257.321 89.72C256.721 90.272 256.421 91.004 256.421 91.916ZM243.785 98.396L241.409 96.74L259.589 72.404L261.929 74.168L243.785 98.396Z" fill="white"/>
<defs>
<filter id="filter0_f" x="135" y="-22" width="186" height="226" filterUnits="userSpaceOnUse" color-interpolation-filters="sRGB">
<feFlood flood-opacity="0" result="BackgroundImageFix"/>
<feBlend mode="normal" in="SourceGraphic" in2="BackgroundImageFix" result="shape"/>
<feGaussianBlur stdDeviation="12" result="effect1_foregroundBlur"/>
</filter>
<filter id="filter1_d" x="176" y="0" width="110" height="188" filterUnits="userSpaceOnUse" color-interpolation-filters="sRGB">
<feFlood flood-opacity="0" result="BackgroundImageFix"/>
<feColorMatrix in="SourceAlpha" type="matrix" values="0 0 0 0 0 0 0 0 0 0 0 0 0 0 0 0 0 0 127 0"/>
<feOffset dx="3" dy="3"/>
<feGaussianBlur stdDeviation="2.5"/>
<feColorMatrix type="matrix" values="0 0 0 0 0.441667 0 0 0 0 0.182187 0 0 0 0 0.438297 0 0 0 0.4 0"/>
<feBlend mode="normal" in2="BackgroundImageFix" result="effect1_dropShadow"/>
<feBlend mode="normal" in="SourceGraphic" in2="effect1_dropShadow" result="shape"/>
</filter>
</defs>
</svg>
