<svg width="265" height="164" viewBox="0 0 265 164" fill="none" xmlns="http://www.w3.org/2000/svg">
<path d="M2 10C2 5.58172 5.58172 2 10 2H255C259.418 2 263 5.58172 263 10V165.593C263 170.011 259.418 173.593 255 173.593H9.99999C5.58172 173.593 2 170.011 2 165.593V10Z" stroke="#C5CDCF" stroke-width="4"/>
<path d="M0 19.304C0 17.0948 1.79086 15.304 4 15.304H261C263.209 15.304 265 17.0948 265 19.304H0Z" fill="#C5CDCF"/>
<path d="M20.5259 103.173C20.5259 101.125 22.1877 99.4619 24.2405 99.4619H69.9578C72.0107 99.4619 73.6725 101.125 73.6725 103.173V146.002C73.6725 148.05 72.0107 149.713 69.9578 149.713H24.2405C22.1877 149.713 20.5259 148.05 20.5259 146.002V103.173Z" stroke="#C5CDCF" stroke-width="4"/>
<path d="M180.426 103.1H243.252" stroke="#C5CDCF" stroke-width="4" stroke-linecap="round"/>
<path d="M97.4619 103.1H160.289" stroke="#C5CDCF" stroke-width="4" stroke-linecap="round"/>
<path d="M180.426 119.21H243.252" stroke="#C5CDCF" stroke-width="4" stroke-linecap="round"/>
<path d="M97.4619 119.21H160.289" stroke="#C5CDCF" stroke-width="4" stroke-linecap="round"/>
<path d="M180.426 135.319H243.252" stroke="#C5CDCF" stroke-width="4" stroke-linecap="round"/>
<path d="M97.4619 135.319H160.289" stroke="#C5CDCF" stroke-width="4" stroke-linecap="round"/>
<path d="M20.5259 37.8994C20.5259 35.7373 22.1328 34.2188 23.8358 34.2188H167.866C169.569 34.2188 171.176 35.7374 171.176 37.8994V80.5046C171.176 82.6667 169.569 84.1853 167.866 84.1853H23.8358C22.1328 84.1853 20.5259 82.6667 20.5259 80.5046V37.8994Z" fill="#C5CDCF" stroke="#C5CDCF" stroke-width="4"/>
<path d="M182.426 37.8994C182.426 36.5248 182.657 35.3733 182.957 34.6396C183.035 34.4499 183.107 34.3131 183.164 34.2188H245.346C245.404 34.3131 245.476 34.4499 245.554 34.6396C245.854 35.3733 246.085 36.5248 246.085 37.8994V80.5046C246.085 81.8793 245.854 83.0308 245.554 83.7644C245.476 83.9542 245.404 84.091 245.346 84.1853H183.164C183.107 84.091 183.035 83.9542 182.957 83.7644C182.657 83.0308 182.426 81.8793 182.426 80.5046V37.8994Z" stroke="#C5CDCF" stroke-width="4"/>
</svg>
