<svg width="315" height="167" viewBox="0 0 315 167" fill="none" xmlns="http://www.w3.org/2000/svg">
<path d="M174.848 129.985L174.517 134.638C174.99 134.638 175.195 134.435 175.441 134.19L177.66 132.07L182.258 135.437C183.102 135.907 183.696 135.66 183.923 134.661L186.942 120.518L186.943 120.517C187.21 119.27 186.492 118.783 185.67 119.089L167.928 125.881C166.718 126.351 166.736 127.026 167.723 127.332L172.258 128.743L182.794 122.15C183.29 121.822 183.741 122.004 183.37 122.332L174.848 129.985Z" fill="#0088CC"/>
<mask id="path-2-inside-1" fill="white">
<path fill-rule="evenodd" clip-rule="evenodd" d="M204.755 128C204.755 142.777 192.777 154.755 178 154.755C163.223 154.755 151.244 142.777 151.244 128C151.244 113.223 163.223 101.244 178 101.244C192.777 101.244 204.755 113.223 204.755 128ZM178 151.644C191.058 151.644 201.644 141.058 201.644 128C201.644 114.942 191.058 104.356 178 104.356C164.942 104.356 154.356 114.942 154.356 128C154.356 141.058 164.942 151.644 178 151.644Z"/>
</mask>
<path d="M178 158.755C194.986 158.755 208.755 144.986 208.755 128H200.755C200.755 140.567 190.567 150.755 178 150.755V158.755ZM147.244 128C147.244 144.986 161.014 158.755 178 158.755V150.755C165.432 150.755 155.244 140.567 155.244 128H147.244ZM178 97.2444C161.014 97.2444 147.244 111.014 147.244 128H155.244C155.244 115.432 165.432 105.244 178 105.244V97.2444ZM208.755 128C208.755 111.014 194.986 97.2444 178 97.2444V105.244C190.567 105.244 200.755 115.432 200.755 128H208.755ZM197.644 128C197.644 138.849 188.849 147.644 178 147.644V155.644C193.268 155.644 205.644 143.268 205.644 128H197.644ZM178 108.356C188.849 108.356 197.644 117.151 197.644 128H205.644C205.644 112.732 193.268 100.356 178 100.356V108.356ZM158.356 128C158.356 117.151 167.151 108.356 178 108.356V100.356C162.732 100.356 150.356 112.732 150.356 128H158.356ZM178 147.644C167.151 147.644 158.356 138.849 158.356 128H150.356C150.356 143.268 162.732 155.644 178 155.644V147.644Z" fill="#C5CDCF" mask="url(#path-2-inside-1)"/>
<g filter="url(#filter0_d)">
<path d="M178 97C171.519 97 165.201 99.0311 159.935 102.808C154.668 106.585 150.718 111.917 148.638 118.055C146.559 124.193 146.456 130.829 148.344 137.029C150.231 143.229 154.015 148.681 159.161 152.619C164.308 156.558 170.56 158.784 177.038 158.985C183.515 159.186 189.893 157.352 195.275 153.741C200.656 150.129 204.77 144.922 207.039 138.852C209.307 132.781 209.616 126.152 207.922 119.896L197.324 122.767C198.418 126.806 198.219 131.087 196.753 135.008C195.288 138.929 192.631 142.291 189.156 144.624C185.681 146.956 181.562 148.14 177.379 148.01C173.195 147.881 169.158 146.443 165.834 143.899C162.51 141.356 160.067 137.835 158.848 133.831C157.629 129.827 157.695 125.542 159.038 121.577C160.381 117.613 162.932 114.17 166.333 111.731C169.735 109.292 173.815 107.98 178 107.98V97Z" fill="#0088CC"/>
</g>
<mask id="path-5-inside-2" fill="white">
<path fill-rule="evenodd" clip-rule="evenodd" d="M64.7555 128C64.7555 142.777 52.7766 154.755 37.9999 154.755C23.2233 154.755 11.2444 142.777 11.2444 128C11.2444 113.223 23.2233 101.244 37.9999 101.244C52.7766 101.244 64.7555 113.223 64.7555 128ZM38 151.644C51.0585 151.644 61.6444 141.058 61.6444 128C61.6444 114.942 51.0585 104.356 38 104.356C24.9415 104.356 14.3556 114.942 14.3556 128C14.3556 141.058 24.9415 151.644 38 151.644Z"/>
</mask>
<path d="M37.9999 158.755C54.9858 158.755 68.7555 144.986 68.7555 128H60.7555C60.7555 140.567 50.5675 150.755 37.9999 150.755V158.755ZM7.24438 128C7.24438 144.986 21.0141 158.755 37.9999 158.755V150.755C25.4324 150.755 15.2444 140.567 15.2444 128H7.24438ZM37.9999 97.2444C21.0141 97.2444 7.24438 111.014 7.24438 128H15.2444C15.2444 115.432 25.4324 105.244 37.9999 105.244V97.2444ZM68.7555 128C68.7555 111.014 54.9858 97.2444 37.9999 97.2444V105.244C50.5675 105.244 60.7555 115.432 60.7555 128H68.7555ZM57.6444 128C57.6444 138.849 48.8493 147.644 38 147.644V155.644C53.2676 155.644 65.6444 143.268 65.6444 128H57.6444ZM38 108.356C48.8493 108.356 57.6444 117.151 57.6444 128H65.6444C65.6444 112.732 53.2676 100.356 38 100.356V108.356ZM18.3556 128C18.3556 117.151 27.1507 108.356 38 108.356V100.356C22.7324 100.356 10.3556 112.732 10.3556 128H18.3556ZM38 147.644C27.1507 147.644 18.3556 138.849 18.3556 128H10.3556C10.3556 143.268 22.7324 155.644 38 155.644V147.644Z" fill="#C5CDCF" mask="url(#path-5-inside-2)"/>
<g filter="url(#filter1_d)">
<path d="M38 97C31.5522 97 25.2649 99.0105 20.0134 102.752C14.7619 106.493 10.8076 111.778 8.70105 117.872C6.59454 123.966 6.44065 130.565 8.26079 136.751C10.0809 142.937 13.7845 148.401 18.8559 152.382L25.6366 143.746C22.3614 141.175 19.9696 137.646 18.7941 133.651C17.6187 129.657 17.7181 125.395 19.0785 121.459C20.4389 117.524 22.9926 114.11 26.3841 111.694C29.7755 109.278 33.836 107.98 38 107.98V97Z" fill="#3B5999"/>
</g>
<path d="M41 118V122H39C38.31 122 38 122.81 38 123.5V126H41V130H38V138H34V130H31V126H34V122C34 120.939 34.4214 119.922 35.1716 119.172C35.9217 118.421 36.9391 118 38 118H41Z" fill="#3B5999"/>
<mask id="path-9-inside-3" fill="white">
<path fill-rule="evenodd" clip-rule="evenodd" d="M134.755 128C134.755 142.777 122.777 154.755 108 154.755C93.2233 154.755 81.2444 142.777 81.2444 128C81.2444 113.223 93.2233 101.244 108 101.244C122.777 101.244 134.755 113.223 134.755 128ZM108 151.644C121.058 151.644 131.644 141.058 131.644 128C131.644 114.942 121.058 104.356 108 104.356C94.9415 104.356 84.3556 114.942 84.3556 128C84.3556 141.058 94.9415 151.644 108 151.644Z"/>
</mask>
<path d="M108 158.755C124.986 158.755 138.755 144.986 138.755 128H130.755C130.755 140.567 120.567 150.755 108 150.755V158.755ZM77.2444 128C77.2444 144.986 91.0141 158.755 108 158.755V150.755C95.4324 150.755 85.2444 140.567 85.2444 128H77.2444ZM108 97.2444C91.0141 97.2444 77.2444 111.014 77.2444 128H85.2444C85.2444 115.432 95.4324 105.244 108 105.244V97.2444ZM138.755 128C138.755 111.014 124.986 97.2444 108 97.2444V105.244C120.567 105.244 130.755 115.432 130.755 128H138.755ZM127.644 128C127.644 138.849 118.849 147.644 108 147.644V155.644C123.268 155.644 135.644 143.268 135.644 128H127.644ZM108 108.356C118.849 108.356 127.644 117.151 127.644 128H135.644C135.644 112.732 123.268 100.356 108 100.356V108.356ZM88.3556 128C88.3556 117.151 97.1507 108.356 108 108.356V100.356C92.7324 100.356 80.3556 112.732 80.3556 128H88.3556ZM108 147.644C97.1507 147.644 88.3556 138.849 88.3556 128H80.3556C80.3556 143.268 92.7324 155.644 108 155.644V147.644Z" fill="#C5CDCF" mask="url(#path-9-inside-3)"/>
<g filter="url(#filter2_d)">
<path d="M108 97C100.895 97 94.0065 99.4403 88.4861 103.912C82.9657 108.385 79.149 114.617 77.6748 121.567L88.4157 123.846C89.3678 119.357 91.8326 115.332 95.3977 112.444C98.9628 109.556 103.412 107.98 108 107.98V97Z" fill="#4680C2"/>
</g>
<path d="M115.2 129.6C116.75 131.04 117.07 131.73 117.12 131.82C117.76 132.88 116.42 132.96 116.42 132.96L113.84 133C113.84 133 113.28 133.11 112.56 132.61C111.59 131.95 110.66 130.22 109.97 130.45C109.26 130.68 109.28 132.23 109.28 132.23C109.28 132.23 109.28 132.45 109.12 132.62C108.94 132.81 108.59 132.74 108.59 132.74H107.44C107.44 132.74 104.89 133 102.66 130.67C100.21 128.13 98.0505 123.13 98.0505 123.13C98.0505 123.13 97.9305 122.83 98.0605 122.66C98.2105 122.5 98.6305 122.5 98.6305 122.5H101.39C101.39 122.5 101.66 122.5 101.83 122.66C101.98 122.77 102.07 123 102.07 123C102.07 123 102.51 124.11 103.11 125.13C104.26 127.12 104.79 127.55 105.16 127.34C105.76 127.03 105.59 124.53 105.59 124.53C105.59 124.53 105.6 123.62 105.3 123.22C105.07 122.91 104.63 122.81 104.44 122.79C104.28 122.77 104.54 122.41 104.87 122.24C105.37 122 106.24 122 107.28 122C108.09 122 108.32 122.06 108.63 122.13C109.59 122.36 109.26 123.25 109.26 125.37C109.26 126.06 109.16 127 109.63 127.33C109.84 127.47 110.36 127.35 111.66 125.16C112.26 124.12 112.72 122.89 112.72 122.89C112.72 122.89 112.82 122.68 112.97 122.58C113.13 122.5 113.35 122.5 113.35 122.5H116.25C116.25 122.5 117.13 122.4 117.27 122.79C117.42 123.2 116.94 124.17 115.75 125.74C113.81 128.34 113.59 128.1 115.2 129.6Z" fill="#4680C2"/>
<path d="M2 50.8826C2 46.4643 5.58172 42.8826 10 42.8826H269C273.418 42.8826 277 46.4643 277 50.8826V59.8826C277 64.3008 273.418 67.8826 269 67.8826H10C5.58172 67.8826 2 64.3008 2 59.8826V50.8826Z" stroke="#C5CDCF" stroke-width="4"/>
<circle cx="271.883" cy="43.8828" r="31.4186" transform="rotate(-60 271.883 43.8828)" fill="#F6F4F2"/>
<path fill-rule="evenodd" clip-rule="evenodd" d="M295.265 57.3827C302.721 44.4688 298.297 27.9559 285.383 20.5C272.469 13.0442 255.956 17.4688 248.5 30.3827C241.044 43.2966 245.469 59.8095 258.383 67.2654C271.297 74.7212 287.81 70.2966 295.265 57.3827ZM282.886 50.2356C286.395 44.1585 284.313 36.3877 278.236 32.8791C272.158 29.3704 264.388 31.4526 260.879 37.5298C257.37 43.6069 259.453 51.3777 265.53 54.8863C271.607 58.3949 279.378 56.3128 282.886 50.2356Z" fill="#7C267B"/>
<g filter="url(#filter3_d)">
<path d="M285.383 20.5C281.537 18.2799 277.204 17.0424 272.766 16.8971C268.328 16.7519 263.923 17.7033 259.941 19.6671C255.959 21.631 252.522 24.5466 249.936 28.1558C247.35 31.765 245.693 35.9563 245.114 40.3585C244.534 44.7607 245.049 49.2379 246.613 53.3934C248.177 57.549 250.742 61.2548 254.08 64.1824C257.419 67.11 261.427 69.1691 265.752 70.1774C270.076 71.1856 274.582 71.1119 278.871 69.9627L275.171 56.1549C273.153 56.6957 271.032 56.7304 268.998 56.2559C266.963 55.7815 265.076 54.8125 263.506 53.4349C261.935 52.0573 260.728 50.3135 259.992 48.3581C259.256 46.4026 259.014 44.2958 259.286 42.2243C259.559 40.1528 260.338 38.1806 261.555 36.4822C262.772 34.7839 264.389 33.4119 266.263 32.4878C268.137 31.5637 270.21 31.116 272.298 31.1844C274.387 31.2527 276.426 31.835 278.235 32.8797L285.383 20.5Z" fill="#DC40B1"/>
</g>
<circle cx="14.5" cy="54.3826" r="3.5" stroke="#C5CDCF" stroke-width="4"/>
<rect x="16.733" y="57.7358" width="1.58381" height="7.10948" rx="0.791905" transform="rotate(-45 16.733 57.7358)" stroke="#C5CDCF" stroke-width="1.58381"/>
<mask id="path-19-inside-4" fill="white">
<path fill-rule="evenodd" clip-rule="evenodd" d="M286.755 128C286.755 142.777 274.777 154.755 260 154.755C245.223 154.755 233.244 142.777 233.244 128C233.244 113.223 245.223 101.244 260 101.244C274.777 101.244 286.755 113.223 286.755 128ZM260 151.644C273.058 151.644 283.644 141.058 283.644 128C283.644 114.942 273.058 104.356 260 104.356C246.942 104.356 236.356 114.942 236.356 128C236.356 141.058 246.942 151.644 260 151.644Z"/>
</mask>
<path d="M260 158.755C276.986 158.755 290.755 144.986 290.755 128H282.755C282.755 140.567 272.567 150.755 260 150.755V158.755ZM229.244 128C229.244 144.986 243.014 158.755 260 158.755V150.755C247.432 150.755 237.244 140.567 237.244 128H229.244ZM260 97.2444C243.014 97.2444 229.244 111.014 229.244 128H237.244C237.244 115.432 247.432 105.244 260 105.244V97.2444ZM290.755 128C290.755 111.014 276.986 97.2444 260 97.2444V105.244C272.567 105.244 282.755 115.432 282.755 128H290.755ZM279.644 128C279.644 138.849 270.849 147.644 260 147.644V155.644C275.268 155.644 287.644 143.268 287.644 128H279.644ZM260 108.356C270.849 108.356 279.644 117.151 279.644 128H287.644C287.644 112.732 275.268 100.356 260 100.356V108.356ZM240.356 128C240.356 117.151 249.151 108.356 260 108.356V100.356C244.732 100.356 232.356 112.732 232.356 128H240.356ZM260 147.644C249.151 147.644 240.356 138.849 240.356 128H232.356C232.356 143.268 244.732 155.644 260 155.644V147.644Z" fill="#C5CDCF" mask="url(#path-19-inside-4)"/>
<g filter="url(#filter4_d)">
<path d="M260 97C255.248 97 250.56 98.0923 246.298 100.192C242.036 102.293 238.313 105.345 235.418 109.112C232.523 112.88 230.533 117.263 229.602 121.922C228.67 126.582 228.822 131.393 230.046 135.984C231.27 140.576 233.532 144.824 236.66 148.402C239.787 151.979 243.694 154.79 248.081 156.617C252.467 158.444 257.215 159.238 261.957 158.938C266.699 158.638 271.309 157.252 275.43 154.887L269.965 145.364C267.303 146.891 264.326 147.786 261.264 147.98C258.201 148.174 255.135 147.661 252.302 146.481C249.47 145.301 246.946 143.486 244.927 141.176C242.907 138.865 241.446 136.121 240.655 133.156C239.865 130.191 239.767 127.084 240.368 124.075C240.97 121.066 242.255 118.235 244.125 115.802C245.995 113.369 248.399 111.398 251.151 110.042C253.904 108.685 256.931 107.98 260 107.98V97Z" fill="#833AB4"/>
</g>
<path fill-rule="evenodd" clip-rule="evenodd" d="M268.983 123.998C268.943 123.095 268.797 122.474 268.588 121.936C268.372 121.364 268.04 120.853 267.605 120.428C267.18 119.996 266.665 119.661 266.101 119.448C265.559 119.239 264.942 119.093 264.038 119.053C263.128 119.01 262.84 119 260.531 119C258.223 119 257.934 119.01 257.028 119.05C256.125 119.09 255.504 119.236 254.966 119.445C254.394 119.661 253.883 119.993 253.458 120.428C253.026 120.853 252.691 121.368 252.478 121.932C252.269 122.474 252.123 123.091 252.083 123.995C252.04 124.905 252.03 125.194 252.03 127.502C252.03 129.81 252.04 130.099 252.08 131.005C252.119 131.909 252.266 132.53 252.475 133.068C252.691 133.639 253.026 134.15 253.458 134.575C253.883 135.007 254.398 135.343 254.962 135.555C255.504 135.764 256.121 135.91 257.025 135.95C257.931 135.99 258.22 136 260.528 136C262.836 136 263.125 135.99 264.032 135.95C264.935 135.91 265.556 135.764 266.094 135.555C267.237 135.113 268.14 134.21 268.582 133.068C268.791 132.526 268.937 131.909 268.977 131.005C269.016 130.099 269.026 129.81 269.026 127.502C269.026 125.194 269.023 124.905 268.983 123.998ZM260.532 123.135C258.121 123.135 256.165 125.091 256.165 127.502C256.165 129.913 258.121 131.869 260.532 131.869C262.943 131.869 264.899 129.913 264.899 127.502C264.899 125.091 262.943 123.135 260.532 123.135ZM260.532 130.335C258.968 130.335 257.699 129.066 257.699 127.502C257.699 125.938 258.968 124.669 260.532 124.669C262.096 124.669 263.364 125.938 263.364 127.502C263.364 129.066 262.096 130.335 260.532 130.335ZM265.071 123.981C265.634 123.981 266.091 123.525 266.091 122.962C266.091 122.399 265.634 121.942 265.071 121.942C264.508 121.942 264.052 122.399 264.052 122.962C264.052 123.525 264.508 123.981 265.071 123.981Z" fill="#833AB4"/>
<defs>
<filter id="filter0_d" x="145" y="95" width="72" height="72" filterUnits="userSpaceOnUse" color-interpolation-filters="sRGB">
<feFlood flood-opacity="0" result="BackgroundImageFix"/>
<feColorMatrix in="SourceAlpha" type="matrix" values="0 0 0 0 0 0 0 0 0 0 0 0 0 0 0 0 0 0 127 0"/>
<feOffset dx="3" dy="3"/>
<feGaussianBlur stdDeviation="2.5"/>
<feColorMatrix type="matrix" values="0 0 0 0 0.570833 0 0 0 0 0.856945 0 0 0 0 1 0 0 0 1 0"/>
<feBlend mode="normal" in2="BackgroundImageFix" result="effect1_dropShadow"/>
<feBlend mode="normal" in="SourceGraphic" in2="effect1_dropShadow" result="shape"/>
</filter>
<filter id="filter1_d" x="5" y="95" width="41" height="65.3825" filterUnits="userSpaceOnUse" color-interpolation-filters="sRGB">
<feFlood flood-opacity="0" result="BackgroundImageFix"/>
<feColorMatrix in="SourceAlpha" type="matrix" values="0 0 0 0 0 0 0 0 0 0 0 0 0 0 0 0 0 0 127 0"/>
<feOffset dx="3" dy="3"/>
<feGaussianBlur stdDeviation="2.5"/>
<feColorMatrix type="matrix" values="0 0 0 0 0.517344 0 0 0 0 0.659415 0 0 0 0 0.9625 0 0 0 1 0"/>
<feBlend mode="normal" in2="BackgroundImageFix" result="effect1_dropShadow"/>
<feBlend mode="normal" in="SourceGraphic" in2="effect1_dropShadow" result="shape"/>
</filter>
<filter id="filter2_d" x="75.6748" y="95" width="40.3252" height="36.8457" filterUnits="userSpaceOnUse" color-interpolation-filters="sRGB">
<feFlood flood-opacity="0" result="BackgroundImageFix"/>
<feColorMatrix in="SourceAlpha" type="matrix" values="0 0 0 0 0 0 0 0 0 0 0 0 0 0 0 0 0 0 127 0"/>
<feOffset dx="3" dy="3"/>
<feGaussianBlur stdDeviation="2.5"/>
<feColorMatrix type="matrix" values="0 0 0 0 0.583333 0 0 0 0 0.778226 0 0 0 0 1 0 0 0 1 0"/>
<feBlend mode="normal" in2="BackgroundImageFix" result="effect1_dropShadow"/>
<feBlend mode="normal" in="SourceGraphic" in2="effect1_dropShadow" result="shape"/>
</filter>
<filter id="filter3_d" x="242.883" y="14.8826" width="50.5" height="64" filterUnits="userSpaceOnUse" color-interpolation-filters="sRGB">
<feFlood flood-opacity="0" result="BackgroundImageFix"/>
<feColorMatrix in="SourceAlpha" type="matrix" values="0 0 0 0 0 0 0 0 0 0 0 0 0 0 0 0 0 0 127 0"/>
<feOffset dx="3" dy="3"/>
<feGaussianBlur stdDeviation="2.5"/>
<feColorMatrix type="matrix" values="0 0 0 0 0.7125 0 0 0 0 0.175156 0 0 0 0 0.564386 0 0 0 0.4 0"/>
<feBlend mode="normal" in2="BackgroundImageFix" result="effect1_dropShadow"/>
<feBlend mode="normal" in="SourceGraphic" in2="effect1_dropShadow" result="shape"/>
</filter>
<filter id="filter4_d" x="227" y="95" width="56.4297" height="72" filterUnits="userSpaceOnUse" color-interpolation-filters="sRGB">
<feFlood flood-opacity="0" result="BackgroundImageFix"/>
<feColorMatrix in="SourceAlpha" type="matrix" values="0 0 0 0 0 0 0 0 0 0 0 0 0 0 0 0 0 0 127 0"/>
<feOffset dx="3" dy="3"/>
<feGaussianBlur stdDeviation="2.5"/>
<feColorMatrix type="matrix" values="0 0 0 0 0.89457 0 0 0 0 0.7375 0 0 0 0 1 0 0 0 1 0"/>
<feBlend mode="normal" in2="BackgroundImageFix" result="effect1_dropShadow"/>
<feBlend mode="normal" in="SourceGraphic" in2="effect1_dropShadow" result="shape"/>
</filter>
</defs>
</svg>
