<svg width="279" height="164" viewBox="0 0 279 164" fill="none" xmlns="http://www.w3.org/2000/svg">
<path d="M2 10C2 5.58172 5.58172 2 10 2H269C273.418 2 277 5.58172 277 10V174.869C277 179.288 273.418 182.869 269 182.869H10C5.58172 182.869 2 179.288 2 174.869V10Z" stroke="#C5CDCF" stroke-width="4"/>
<path d="M0 20.1125C0 17.9034 1.79086 16.1125 4 16.1125H275C277.209 16.1125 279 17.9034 279 20.1125H0Z" fill="#C5CDCF"/>
<path d="M89.6551 38.2372C89.6551 36.0226 91.452 34.2249 93.6716 34.2249H256.871C259.091 34.2249 260.887 36.0226 260.887 38.2372V83.3297C260.887 85.5444 259.091 87.3421 256.871 87.3421H93.6716C91.452 87.3421 89.6551 85.5444 89.6551 83.3297V38.2372ZM18.9604 38.2372C18.9604 36.0226 20.7574 34.2249 22.977 34.2249H71.1095C73.3291 34.2249 75.1261 36.0226 75.1261 38.2372V51.0134C75.1261 53.228 73.3291 55.0258 71.1095 55.0258H22.977C20.7574 55.0258 18.9604 53.228 18.9604 51.0134V38.2372ZM18.9604 70.5535C18.9604 68.3389 20.7574 66.5412 22.977 66.5412H71.1095C73.3291 66.5412 75.1261 68.3389 75.1261 70.5535V83.3297C75.1261 85.5444 73.3291 87.3421 71.1095 87.3421H22.977C20.7574 87.3421 18.9604 85.5444 18.9604 83.3297V70.5535ZM18.9604 106.628C18.9604 104.413 20.7574 102.615 22.977 102.615H71.1095C73.3291 102.615 75.1261 104.413 75.1261 106.628V151.72C75.1261 153.935 73.3291 155.732 71.1095 155.732H22.977C20.7574 155.732 18.9604 153.935 18.9604 151.72V106.628ZM89.6551 106.628C89.6551 104.413 91.452 102.615 93.6716 102.615H137.292C139.511 102.615 141.308 104.413 141.308 106.628V151.72C141.308 153.935 139.511 155.732 137.292 155.732H93.6716C91.452 155.732 89.6551 153.935 89.6551 151.72V106.628ZM160.35 105.5C160.35 103.908 161.642 102.615 163.238 102.615H243.035C244.632 102.615 245.924 103.908 245.924 105.5C245.924 107.092 244.632 108.385 243.035 108.385H163.238C161.642 108.385 160.35 107.092 160.35 105.5ZM160.35 124.289C160.35 122.697 161.642 121.404 163.238 121.404H243.035C244.632 121.404 245.924 122.697 245.924 124.289C245.924 125.881 244.632 127.174 243.035 127.174H163.238C161.642 127.174 160.35 125.881 160.35 124.289ZM160.35 143.077C160.35 141.485 161.642 140.192 163.238 140.192H209.114C210.711 140.192 212.003 141.485 212.003 143.077C212.003 144.669 210.711 145.962 209.114 145.962H163.238C161.642 145.962 160.35 144.669 160.35 143.077Z" stroke="#C5CDCF" stroke-width="4"/>
</svg>
