<svg width="280" height="226" viewBox="0 0 280 226" fill="none" xmlns="http://www.w3.org/2000/svg">
<path d="M2.71484 50.4851C2.71484 46.0668 6.29657 42.4851 10.7148 42.4851H269.715C274.133 42.4851 277.715 46.0668 277.715 50.4851V215.354C277.715 219.773 274.133 223.354 269.715 223.354H10.7148C6.29657 223.354 2.71484 219.773 2.71484 215.354V50.4851Z" stroke="#C5CDCF" stroke-width="4"/>
<g filter="url(#filter0_dd)">
<path fill-rule="evenodd" clip-rule="evenodd" d="M141.357 176.546C174.544 176.546 201.448 149.643 201.448 116.455C201.448 83.2674 174.544 56.3635 141.357 56.3635C108.169 56.3635 81.2651 83.2674 81.2651 116.455C81.2651 149.643 108.169 176.546 141.357 176.546ZM141.357 141.934C155.428 141.934 166.835 130.526 166.835 116.455C166.835 102.383 155.428 90.9759 141.357 90.9759C127.285 90.9759 115.878 102.383 115.878 116.455C115.878 130.526 127.285 141.934 141.357 141.934Z" fill="#7C267B"/>
</g>
<path fill-rule="evenodd" clip-rule="evenodd" d="M108.577 66.0914C118.331 59.7428 129.718 56.3633 141.356 56.3633V90.9759C141.356 90.9759 141.356 90.9759 141.356 90.9759C130.957 90.9759 122.014 97.2057 118.053 106.137L86.4102 92.126C91.122 81.4844 98.8226 72.44 108.577 66.0914Z" fill="#D93436"/>
<path d="M131.819 112.096L130.925 111.584C131.473 111.025 131.905 110.456 132.219 109.875C132.139 109.891 132.048 109.899 131.947 109.899C131.41 109.899 130.97 109.74 130.63 109.42C130.294 109.096 130.126 108.667 130.126 108.135C130.126 107.602 130.294 107.171 130.63 106.841C130.97 106.511 131.418 106.346 131.971 106.346C132.525 106.346 132.967 106.513 133.297 106.849C133.632 107.179 133.8 107.639 133.8 108.23C133.8 108.869 133.611 109.535 133.233 110.227C132.855 110.914 132.384 111.537 131.819 112.096ZM132.506 108.781C132.65 108.616 132.722 108.403 132.722 108.143C132.722 107.882 132.65 107.671 132.506 107.512C132.368 107.347 132.187 107.264 131.963 107.264C131.74 107.264 131.556 107.347 131.412 107.512C131.274 107.671 131.205 107.882 131.205 108.143C131.205 108.403 131.274 108.616 131.412 108.781C131.556 108.941 131.74 109.021 131.963 109.021C132.187 109.021 132.368 108.941 132.506 108.781Z" fill="#020E1A"/>
<path d="M134.042 107.304V106.426H137.724V106.705L135.903 112.016H134.801L136.366 107.304H134.042Z" fill="#020E1A"/>
<path d="M142.144 106.346L143.038 106.857C142.49 107.416 142.059 107.985 141.745 108.566C141.825 108.55 141.915 108.542 142.016 108.542C142.554 108.542 142.991 108.704 143.326 109.029C143.667 109.348 143.837 109.774 143.837 110.307C143.837 110.839 143.667 111.27 143.326 111.6C142.991 111.931 142.546 112.096 141.992 112.096C141.439 112.096 140.994 111.931 140.659 111.6C140.329 111.265 140.163 110.802 140.163 110.211C140.163 109.572 140.352 108.909 140.73 108.222C141.108 107.53 141.58 106.905 142.144 106.346ZM141.449 109.668C141.311 109.828 141.242 110.038 141.242 110.299C141.242 110.56 141.311 110.773 141.449 110.938C141.593 111.097 141.777 111.177 142 111.177C142.224 111.177 142.405 111.097 142.543 110.938C142.687 110.773 142.759 110.56 142.759 110.299C142.759 110.038 142.687 109.828 142.543 109.668C142.405 109.503 142.224 109.42 142 109.42C141.777 109.42 141.593 109.503 141.449 109.668Z" fill="#020E1A"/>
<path d="M147.829 110.259C147.829 110.807 147.659 111.252 147.318 111.592C146.983 111.928 146.541 112.096 145.992 112.096C145.444 112.096 144.999 111.931 144.659 111.6C144.323 111.27 144.156 110.836 144.156 110.299H145.194C145.194 110.554 145.268 110.765 145.417 110.93C145.566 111.089 145.758 111.169 145.992 111.169C146.216 111.169 146.397 111.084 146.535 110.914C146.679 110.743 146.751 110.525 146.751 110.259C146.751 109.966 146.666 109.726 146.495 109.54C146.325 109.354 146.107 109.261 145.841 109.261C145.558 109.261 145.332 109.354 145.162 109.54L144.403 109.308L144.707 106.426H147.39V107.304H145.625L145.513 108.39C145.625 108.358 145.755 108.342 145.904 108.342C146.479 108.342 146.943 108.521 147.294 108.877C147.651 109.229 147.829 109.689 147.829 110.259Z" fill="#020E1A"/>
<path d="M148.512 107.919C148.512 107.456 148.669 107.078 148.983 106.785C149.303 106.492 149.718 106.346 150.229 106.346C150.74 106.346 151.153 106.492 151.467 106.785C151.786 107.078 151.946 107.456 151.946 107.919C151.946 108.387 151.77 108.749 151.419 109.005C151.877 109.303 152.106 109.742 152.106 110.323C152.106 110.844 151.933 111.27 151.586 111.6C151.24 111.931 150.788 112.096 150.229 112.096C149.67 112.096 149.217 111.931 148.871 111.6C148.525 111.27 148.352 110.844 148.352 110.323C148.352 109.737 148.576 109.298 149.023 109.005C148.682 108.749 148.512 108.387 148.512 107.919ZM149.654 109.708C149.505 109.868 149.43 110.072 149.43 110.323C149.43 110.573 149.505 110.778 149.654 110.938C149.803 111.097 149.995 111.177 150.229 111.177C150.463 111.177 150.655 111.097 150.804 110.938C150.953 110.778 151.027 110.573 151.027 110.323C151.027 110.072 150.953 109.868 150.804 109.708C150.655 109.548 150.463 109.468 150.229 109.468C149.995 109.468 149.803 109.548 149.654 109.708ZM149.766 107.448C149.649 107.57 149.59 107.727 149.59 107.919C149.59 108.111 149.649 108.268 149.766 108.39C149.888 108.513 150.043 108.574 150.229 108.574C150.415 108.574 150.567 108.513 150.684 108.39C150.807 108.268 150.868 108.111 150.868 107.919C150.868 107.727 150.807 107.57 150.684 107.448C150.567 107.325 150.415 107.264 150.229 107.264C150.043 107.264 149.888 107.325 149.766 107.448Z" fill="#020E1A"/>
<path d="M131.148 120.928V120.289H129.498V119.997L131.122 117.201H131.814V119.704H132.112V120.289H131.841V120.928H131.148ZM130.366 119.704H131.175V118.234L130.366 119.704Z" fill="#8D97A0"/>
<path d="M132.534 117.894V117.361L133.812 117.175V120.928H133.12V117.803L132.534 117.894Z" fill="#8D97A0"/>
<path d="M134.566 120.864C134.488 120.786 134.449 120.692 134.449 120.582C134.449 120.472 134.488 120.378 134.566 120.3C134.644 120.222 134.738 120.183 134.848 120.183C134.958 120.183 135.052 120.222 135.13 120.3C135.208 120.378 135.248 120.472 135.248 120.582C135.248 120.692 135.208 120.786 135.13 120.864C135.052 120.942 134.958 120.981 134.848 120.981C134.738 120.981 134.644 120.942 134.566 120.864Z" fill="#8D97A0"/>
<path d="M136.73 117.148L137.327 117.489C136.961 117.862 136.674 118.241 136.464 118.628C136.518 118.618 136.578 118.612 136.645 118.612C137.004 118.612 137.295 118.721 137.518 118.937C137.746 119.15 137.859 119.434 137.859 119.789C137.859 120.144 137.746 120.431 137.518 120.651C137.295 120.871 136.998 120.981 136.629 120.981C136.26 120.981 135.964 120.871 135.74 120.651C135.52 120.428 135.41 120.119 135.41 119.725C135.41 119.299 135.536 118.857 135.788 118.399C136.04 117.938 136.354 117.521 136.73 117.148ZM136.267 119.363C136.175 119.469 136.129 119.61 136.129 119.784C136.129 119.957 136.175 120.099 136.267 120.209C136.363 120.316 136.486 120.369 136.635 120.369C136.784 120.369 136.904 120.316 136.997 120.209C137.093 120.099 137.14 119.957 137.14 119.784C137.14 119.61 137.093 119.469 136.997 119.363C136.904 119.253 136.784 119.198 136.635 119.198C136.486 119.198 136.363 119.253 136.267 119.363Z" fill="#8D97A0"/>
<path d="M139.554 117.148L140.15 117.489C139.784 117.862 139.497 118.241 139.287 118.628C139.341 118.618 139.401 118.612 139.468 118.612C139.827 118.612 140.118 118.721 140.342 118.937C140.569 119.15 140.682 119.434 140.682 119.789C140.682 120.144 140.569 120.431 140.342 120.651C140.118 120.871 139.822 120.981 139.452 120.981C139.083 120.981 138.787 120.871 138.563 120.651C138.343 120.428 138.233 120.119 138.233 119.725C138.233 119.299 138.359 118.857 138.611 118.399C138.863 117.938 139.177 117.521 139.554 117.148ZM139.09 119.363C138.998 119.469 138.952 119.61 138.952 119.784C138.952 119.957 138.998 120.099 139.09 120.209C139.186 120.316 139.309 120.369 139.458 120.369C139.607 120.369 139.728 120.316 139.82 120.209C139.916 120.099 139.964 119.957 139.964 119.784C139.964 119.61 139.916 119.469 139.82 119.363C139.728 119.253 139.607 119.198 139.458 119.198C139.309 119.198 139.186 119.253 139.09 119.363Z" fill="#8D97A0"/>
<path d="M141.956 120.928L143.979 117.201H144.671L142.648 120.928H141.956ZM141.307 118.847C141.122 118.666 141.03 118.428 141.03 118.133C141.03 117.839 141.122 117.601 141.307 117.42C141.495 117.239 141.74 117.148 142.041 117.148C142.343 117.148 142.586 117.239 142.771 117.42C142.959 117.601 143.053 117.839 143.053 118.133C143.053 118.428 142.959 118.666 142.771 118.847C142.586 119.028 142.343 119.118 142.041 119.118C141.74 119.118 141.495 119.028 141.307 118.847ZM141.754 117.787C141.679 117.876 141.642 117.991 141.642 118.133C141.642 118.275 141.679 118.39 141.754 118.479C141.828 118.568 141.924 118.612 142.041 118.612C142.159 118.612 142.254 118.568 142.329 118.479C142.403 118.39 142.441 118.275 142.441 118.133C142.441 117.991 142.403 117.876 142.329 117.787C142.254 117.698 142.159 117.654 142.041 117.654C141.924 117.654 141.828 117.698 141.754 117.787ZM143.852 120.71C143.667 120.529 143.575 120.291 143.575 119.997C143.575 119.702 143.667 119.464 143.852 119.283C144.04 119.102 144.285 119.012 144.586 119.012C144.888 119.012 145.131 119.102 145.316 119.283C145.504 119.464 145.598 119.702 145.598 119.997C145.598 120.291 145.504 120.529 145.316 120.71C145.131 120.891 144.888 120.981 144.586 120.981C144.285 120.981 144.04 120.891 143.852 120.71ZM144.299 119.65C144.224 119.739 144.187 119.855 144.187 119.997C144.187 120.138 144.224 120.254 144.299 120.343C144.373 120.431 144.469 120.476 144.586 120.476C144.703 120.476 144.799 120.431 144.874 120.343C144.948 120.254 144.986 120.138 144.986 119.997C144.986 119.855 144.948 119.739 144.874 119.65C144.799 119.562 144.703 119.517 144.586 119.517C144.469 119.517 144.373 119.562 144.299 119.65Z" fill="#8D97A0"/>
<path d="M130.116 123.856H129.727V126.252H130.041L131.399 124.479V126.252H131.787V123.856H131.473L130.116 125.629V123.856Z" fill="#8D97A0"/>
<path d="M133.189 123.819C132.853 123.819 132.603 123.947 132.406 124.149L132.624 124.373C132.757 124.229 132.96 124.139 133.157 124.139C133.444 124.139 133.577 124.33 133.577 124.511C133.577 124.724 133.423 124.884 133.199 124.884H132.922V125.155H133.29C133.535 125.155 133.694 125.31 133.694 125.549C133.694 125.794 133.513 125.97 133.189 125.97C132.949 125.97 132.741 125.874 132.587 125.714L132.363 125.933C132.576 126.146 132.827 126.289 133.221 126.289C133.774 126.289 134.083 126.018 134.083 125.613C134.083 125.326 133.945 125.092 133.657 124.996C133.854 124.889 133.961 124.692 133.961 124.453C133.961 124.08 133.673 123.819 133.189 123.819Z" fill="#8D97A0"/>
<path d="M135.844 125.906V126.252H138.074V125.917H136.371L137.734 124.554C137.941 124.341 138.074 124.032 138.074 123.665C138.074 122.962 137.616 122.488 136.94 122.488C136.264 122.488 135.806 122.962 135.806 123.665H136.206C136.206 123.175 136.504 122.84 136.94 122.84C137.372 122.84 137.675 123.175 137.675 123.665C137.675 123.926 137.6 124.149 137.462 124.293L135.844 125.906Z" fill="#8D97A0"/>
<path d="M139.494 124.394H139.739C140.191 124.394 140.505 124.714 140.505 125.171C140.505 125.629 140.191 125.943 139.739 125.943C139.281 125.943 138.972 125.629 138.972 125.171H138.567C138.567 125.837 139.041 126.289 139.739 126.289C140.431 126.289 140.905 125.837 140.905 125.171C140.905 124.708 140.665 124.373 140.287 124.218C140.564 124.08 140.745 123.808 140.745 123.446C140.745 122.877 140.335 122.488 139.739 122.488C139.137 122.488 138.732 122.877 138.732 123.446H139.132C139.132 123.084 139.382 122.834 139.739 122.834C140.095 122.834 140.345 123.084 140.345 123.446C140.345 123.808 140.095 124.064 139.739 124.064H139.494V124.394Z" fill="#8D97A0"/>
<path d="M142.943 126.252H143.331V125.528H143.651V125.193H143.315V122.525H142.916L141.239 125.336V125.528H142.943V126.252ZM141.724 125.193L142.953 123.116V125.193H141.724Z" fill="#8D97A0"/>
<path d="M147.086 126.252H147.475V125.528H147.795V125.193H147.459V122.525H147.06L145.383 125.336V125.528H147.086V126.252ZM145.867 125.193L147.097 123.116V125.193H145.867Z" fill="#8D97A0"/>
<path d="M149.253 124.394H149.497C149.95 124.394 150.264 124.714 150.264 125.171C150.264 125.629 149.95 125.943 149.497 125.943C149.04 125.943 148.731 125.629 148.731 125.171H148.326C148.326 125.837 148.8 126.289 149.497 126.289C150.19 126.289 150.663 125.837 150.663 125.171C150.663 124.708 150.424 124.373 150.046 124.218C150.323 124.08 150.504 123.808 150.504 123.446C150.504 122.877 150.094 122.488 149.497 122.488C148.896 122.488 148.491 122.877 148.491 123.446H148.89C148.89 123.084 149.141 122.834 149.497 122.834C149.854 122.834 150.104 123.084 150.104 123.446C150.104 123.808 149.854 124.064 149.497 124.064H149.253V124.394Z" fill="#8D97A0"/>
<path d="M151.231 123.446C151.231 123.808 151.407 124.08 151.684 124.218C151.306 124.373 151.072 124.708 151.072 125.171C151.072 125.837 151.546 126.289 152.238 126.289C152.935 126.289 153.409 125.837 153.409 125.171C153.409 124.708 153.169 124.373 152.791 124.218C153.068 124.08 153.244 123.808 153.244 123.446C153.244 122.877 152.839 122.488 152.238 122.488C151.641 122.488 151.231 122.877 151.231 123.446ZM151.471 125.171C151.471 124.714 151.785 124.399 152.238 124.399C152.695 124.399 153.01 124.714 153.01 125.171C153.01 125.629 152.695 125.943 152.238 125.943C151.785 125.943 151.471 125.629 151.471 125.171ZM151.636 123.446C151.636 123.084 151.881 122.834 152.238 122.834C152.6 122.834 152.845 123.084 152.845 123.446C152.845 123.808 152.6 124.059 152.238 124.059C151.881 124.059 151.636 123.808 151.636 123.446Z" fill="#8D97A0"/>
<path d="M176.416 196.625H177.015V191.034H176.552L174.388 194.492L172.224 191.034H171.769V196.625H172.368V192.272L174.26 195.339H174.524L176.416 192.272V196.625Z" fill="#020E1A"/>
<path d="M181.636 193.031H180.989L179.735 195.93L178.473 193.031H177.827L179.456 196.625L178.426 198.621H179.072L181.636 193.031Z" fill="#020E1A"/>
<path d="M186.113 196.625H186.784L185.307 194.732L186.656 193.031H185.985L184.668 194.716V193.031H184.093V194.724L182.775 193.031H182.104L183.454 194.732L181.977 196.625H182.639L184.093 194.748V196.625H184.668V194.756L186.113 196.625Z" fill="#020E1A"/>
<path d="M190.125 196.625V193.031H189.543V194.62C189.359 194.724 189.055 194.78 188.848 194.78C188.289 194.78 188.065 194.42 188.065 193.997V193.031H187.482V194.021C187.482 194.764 187.913 195.259 188.72 195.259C188.952 195.259 189.279 195.219 189.543 195.123V196.625H190.125Z" fill="#020E1A"/>
<path d="M191.871 193.031H191.288V196.625H191.759L193.796 193.965V196.625H194.379V193.031H193.908L191.871 195.69V193.031Z" fill="#020E1A"/>
<path d="M196.129 193.031H195.546V196.625H196.129V195.043H198.014V196.625H198.589V193.031H198.014V194.572H196.129V193.031Z" fill="#020E1A"/>
<path d="M199.766 196.625H201.067C201.794 196.625 202.217 196.193 202.217 195.586C202.217 194.979 201.794 194.548 201.067 194.548H200.349V193.031H199.766V196.625ZM201.051 194.995C201.395 194.995 201.634 195.243 201.634 195.586C201.634 195.938 201.395 196.177 201.051 196.177H200.349V194.995H201.051ZM202.8 196.625H203.383V193.031H202.8V196.625Z" fill="#020E1A"/>
<circle cx="161.547" cy="193.853" r="5.76878" fill="#D93436"/>
<path d="M91.3015 196.625H91.9004V191.034H91.3015V196.625ZM94.2563 196.625H94.967L92.683 193.758L94.8312 191.034H94.1365L91.9883 193.758L94.2563 196.625ZM91.2216 193.758L89.0734 191.034H88.3786L90.5188 193.758L88.2349 196.625H88.9536L91.2216 193.758Z" fill="#020E1A"/>
<path d="M98.4547 194.979C98.4547 193.75 97.8557 192.975 96.8176 192.975C95.7954 192.975 95.1006 193.726 95.1006 194.812C95.1006 195.938 95.8513 196.68 96.9613 196.68C97.5203 196.68 97.9755 196.489 98.3029 196.145L97.9516 195.786C97.728 196.026 97.4005 196.161 96.9933 196.161C96.2506 196.161 95.7714 195.69 95.7235 194.979H98.4547ZM96.8335 193.486C97.4405 193.486 97.7998 193.909 97.8717 194.564H95.7235C95.7874 193.901 96.2266 193.486 96.8335 193.486Z" fill="#020E1A"/>
<path d="M99.9625 193.031H99.3796V196.625H99.9625V195.043H101.847V196.625H102.422V193.031H101.847V194.572H99.9625V193.031Z" fill="#020E1A"/>
<path d="M103.599 196.625H107.991V197.583H108.534V196.161H108.103V193.031H107.52V196.161H106.138V193.031H105.563V196.161H104.182V193.031H103.599V196.625Z" fill="#020E1A"/>
<path d="M110.015 193.031H109.432V196.625H109.903L111.94 193.965V196.625H112.523V193.031H112.052L110.015 195.69V193.031Z" fill="#020E1A"/>
<path d="M114.273 193.031H113.69V196.625H114.273V195.043H116.158V196.625H116.733V193.031H116.158V194.572H114.273V193.031Z" fill="#020E1A"/>
<path d="M117.909 196.625H119.211C119.938 196.625 120.361 196.193 120.361 195.586C120.361 194.979 119.938 194.548 119.211 194.548H118.492V193.031H117.909V196.625ZM119.195 194.995C119.539 194.995 119.778 195.243 119.778 195.586C119.778 195.938 119.539 196.177 119.195 196.177H118.492V194.995H119.195ZM120.944 196.625H121.527V193.031H120.944V196.625Z" fill="#020E1A"/>
<path d="M116.02 205.396C116.02 205.939 116.283 206.346 116.699 206.554C116.132 206.785 115.78 207.288 115.78 207.983C115.78 208.981 116.491 209.66 117.529 209.66C118.575 209.66 119.286 208.981 119.286 207.983C119.286 207.288 118.927 206.785 118.36 206.554C118.775 206.346 119.039 205.939 119.039 205.396C119.039 204.541 118.432 203.958 117.529 203.958C116.635 203.958 116.02 204.541 116.02 205.396ZM116.379 207.983C116.379 207.296 116.85 206.825 117.529 206.825C118.216 206.825 118.687 207.296 118.687 207.983C118.687 208.67 118.216 209.141 117.529 209.141C116.85 209.141 116.379 208.67 116.379 207.983ZM116.627 205.396C116.627 204.853 116.994 204.477 117.529 204.477C118.072 204.477 118.44 204.853 118.44 205.396C118.44 205.939 118.072 206.314 117.529 206.314C116.994 206.314 116.627 205.939 116.627 205.396Z" fill="#8D97A0"/>
<path d="M119.934 204.701L120.813 204.533V209.604H121.388V203.982L119.934 204.23V204.701Z" fill="#8D97A0"/>
<path d="M122.685 209.269C122.685 209.493 122.852 209.66 123.076 209.66C123.292 209.66 123.467 209.493 123.467 209.269C123.467 209.053 123.292 208.878 123.076 208.878C122.852 208.878 122.685 209.053 122.685 209.269Z" fill="#8D97A0"/>
<path d="M124.351 209.085V209.604H127.698V209.101H125.142L127.187 207.057C127.498 206.737 127.698 206.274 127.698 205.723C127.698 204.669 127.011 203.958 125.997 203.958C124.982 203.958 124.296 204.669 124.296 205.723H124.895C124.895 204.988 125.342 204.485 125.997 204.485C126.643 204.485 127.099 204.988 127.099 205.723C127.099 206.114 126.987 206.45 126.779 206.665L124.351 209.085Z" fill="#8D97A0"/>
<path d="M128.701 205.396C128.701 205.939 128.964 206.346 129.379 206.554C128.812 206.785 128.461 207.288 128.461 207.983C128.461 208.981 129.172 209.66 130.21 209.66C131.256 209.66 131.967 208.981 131.967 207.983C131.967 207.288 131.608 206.785 131.041 206.554C131.456 206.346 131.719 205.939 131.719 205.396C131.719 204.541 131.112 203.958 130.21 203.958C129.316 203.958 128.701 204.541 128.701 205.396ZM129.06 207.983C129.06 207.296 129.531 206.825 130.21 206.825C130.897 206.825 131.368 207.296 131.368 207.983C131.368 208.67 130.897 209.141 130.21 209.141C129.531 209.141 129.06 208.67 129.06 207.983ZM129.308 205.396C129.308 204.853 129.675 204.477 130.21 204.477C130.753 204.477 131.12 204.853 131.12 205.396C131.12 205.939 130.753 206.314 130.21 206.314C129.675 206.314 129.308 205.939 129.308 205.396Z" fill="#8D97A0"/>
<path d="M134.005 209.604H134.596L137.534 204.014H136.943L134.005 209.604ZM132.671 205.308C132.671 206.114 133.222 206.657 134.029 206.657C134.827 206.657 135.378 206.114 135.378 205.308C135.378 204.501 134.827 203.958 134.029 203.958C133.222 203.958 132.671 204.501 132.671 205.308ZM133.198 205.308C133.198 204.773 133.533 204.405 134.029 204.405C134.516 204.405 134.851 204.773 134.851 205.308C134.851 205.843 134.516 206.21 134.029 206.21C133.533 206.21 133.198 205.843 133.198 205.308ZM136.153 208.311C136.153 209.117 136.704 209.66 137.502 209.66C138.309 209.66 138.86 209.117 138.86 208.311C138.86 207.504 138.309 206.961 137.502 206.961C136.704 206.961 136.153 207.504 136.153 208.311ZM136.68 208.311C136.68 207.776 137.015 207.408 137.502 207.408C137.998 207.408 138.333 207.776 138.333 208.311C138.333 208.846 137.998 209.213 137.502 209.213C137.015 209.213 136.68 208.846 136.68 208.311Z" fill="#8D97A0"/>
<path d="M198.827 204.701L199.706 204.533V209.604H200.281V203.982L198.827 204.23V204.701Z" fill="#8D97A0"/>
<path d="M201.713 205.396C201.713 205.939 201.977 206.346 202.392 206.554C201.825 206.785 201.474 207.288 201.474 207.983C201.474 208.981 202.184 209.66 203.223 209.66C204.269 209.66 204.98 208.981 204.98 207.983C204.98 207.288 204.62 206.785 204.053 206.554C204.468 206.346 204.732 205.939 204.732 205.396C204.732 204.541 204.125 203.958 203.223 203.958C202.328 203.958 201.713 204.541 201.713 205.396ZM202.073 207.983C202.073 207.296 202.544 206.825 203.223 206.825C203.909 206.825 204.381 207.296 204.381 207.983C204.381 208.67 203.909 209.141 203.223 209.141C202.544 209.141 202.073 208.67 202.073 207.983ZM202.32 205.396C202.32 204.853 202.688 204.477 203.223 204.477C203.766 204.477 204.133 204.853 204.133 205.396C204.133 205.939 203.766 206.314 203.223 206.314C202.688 206.314 202.32 205.939 202.32 205.396Z" fill="#8D97A0"/>
<path d="M205.851 209.269C205.851 209.493 206.019 209.66 206.243 209.66C206.458 209.66 206.634 209.493 206.634 209.269C206.634 209.053 206.458 208.878 206.243 208.878C206.019 208.878 205.851 209.053 205.851 209.269Z" fill="#8D97A0"/>
<path d="M206.996 204.517H209.623L207.73 209.604H208.353L210.374 204.23V204.014H206.996V204.517Z" fill="#8D97A0"/>
<path d="M211.176 209.085V209.604H214.522V209.101H211.966L214.011 207.057C214.322 206.737 214.522 206.274 214.522 205.723C214.522 204.669 213.835 203.958 212.821 203.958C211.807 203.958 211.12 204.669 211.12 205.723H211.719C211.719 204.988 212.166 204.485 212.821 204.485C213.468 204.485 213.923 204.988 213.923 205.723C213.923 206.114 213.811 206.45 213.604 206.665L211.176 209.085Z" fill="#8D97A0"/>
<path d="M216.555 209.604H217.146L220.085 204.014H219.494L216.555 209.604ZM215.221 205.308C215.221 206.114 215.772 206.657 216.579 206.657C217.378 206.657 217.929 206.114 217.929 205.308C217.929 204.501 217.378 203.958 216.579 203.958C215.772 203.958 215.221 204.501 215.221 205.308ZM215.749 205.308C215.749 204.773 216.084 204.405 216.579 204.405C217.066 204.405 217.402 204.773 217.402 205.308C217.402 205.843 217.066 206.21 216.579 206.21C216.084 206.21 215.749 205.843 215.749 205.308ZM218.703 208.311C218.703 209.117 219.254 209.66 220.053 209.66C220.86 209.66 221.411 209.117 221.411 208.311C221.411 207.504 220.86 206.961 220.053 206.961C219.254 206.961 218.703 207.504 218.703 208.311ZM219.23 208.311C219.23 207.776 219.566 207.408 220.053 207.408C220.548 207.408 220.884 207.776 220.884 208.311C220.884 208.846 220.548 209.213 220.053 209.213C219.566 209.213 219.23 208.846 219.23 208.311Z" fill="#8D97A0"/>
<path d="M88.3145 204.892V204.014H91.996V204.293L90.1752 209.604H89.0731L90.6384 204.892H88.3145Z" fill="#020E1A"/>
<path d="M94.2881 209.684L93.3936 209.173C93.942 208.614 94.3732 208.044 94.6874 207.464C94.6075 207.48 94.517 207.488 94.4158 207.488C93.8781 207.488 93.4389 207.328 93.0982 207.009C92.7627 206.684 92.595 206.255 92.595 205.723C92.595 205.191 92.7627 204.759 93.0982 204.429C93.4389 204.099 93.8861 203.934 94.4398 203.934C94.9935 203.934 95.4354 204.102 95.7655 204.437C96.1009 204.767 96.2686 205.228 96.2686 205.819C96.2686 206.458 96.0796 207.123 95.7016 207.815C95.3236 208.502 94.8524 209.125 94.2881 209.684ZM94.9749 206.37C95.1186 206.205 95.1905 205.992 95.1905 205.731C95.1905 205.47 95.1186 205.26 94.9749 205.1C94.8364 204.935 94.6554 204.852 94.4318 204.852C94.2082 204.852 94.0245 204.935 93.8808 205.1C93.7424 205.26 93.6731 205.47 93.6731 205.731C93.6731 205.992 93.7424 206.205 93.8808 206.37C94.0245 206.53 94.2082 206.609 94.4318 206.609C94.6554 206.609 94.8364 206.53 94.9749 206.37Z" fill="#020E1A"/>
<path d="M100.651 203.934L101.545 204.445C100.997 205.004 100.566 205.574 100.251 206.154C100.331 206.138 100.422 206.13 100.523 206.13C101.061 206.13 101.497 206.293 101.833 206.617C102.173 206.937 102.344 207.363 102.344 207.895C102.344 208.428 102.173 208.859 101.833 209.189C101.497 209.519 101.053 209.684 100.499 209.684C99.9454 209.684 99.5008 209.519 99.1654 209.189C98.8353 208.853 98.6703 208.39 98.6703 207.799C98.6703 207.16 98.8593 206.498 99.2373 205.811C99.6153 205.119 100.086 204.493 100.651 203.934ZM99.956 207.256C99.8176 207.416 99.7484 207.626 99.7484 207.887C99.7484 208.148 99.8176 208.361 99.956 208.526C100.1 208.686 100.283 208.766 100.507 208.766C100.731 208.766 100.912 208.686 101.05 208.526C101.194 208.361 101.266 208.148 101.266 207.887C101.266 207.626 101.194 207.416 101.05 207.256C100.912 207.091 100.731 207.009 100.507 207.009C100.283 207.009 100.1 207.091 99.956 207.256Z" fill="#020E1A"/>
<path d="M102.862 205.507C102.862 205.044 103.019 204.666 103.333 204.373C103.653 204.08 104.068 203.934 104.579 203.934C105.09 203.934 105.503 204.08 105.817 204.373C106.136 204.666 106.296 205.044 106.296 205.507C106.296 205.976 106.12 206.338 105.769 206.593C106.227 206.892 106.456 207.331 106.456 207.911C106.456 208.433 106.283 208.859 105.937 209.189C105.59 209.519 105.138 209.684 104.579 209.684C104.02 209.684 103.567 209.519 103.221 209.189C102.875 208.859 102.702 208.433 102.702 207.911C102.702 207.325 102.926 206.886 103.373 206.593C103.032 206.338 102.862 205.976 102.862 205.507ZM104.004 207.296C103.855 207.456 103.78 207.661 103.78 207.911C103.78 208.161 103.855 208.366 104.004 208.526C104.153 208.686 104.345 208.766 104.579 208.766C104.813 208.766 105.005 208.686 105.154 208.526C105.303 208.366 105.378 208.161 105.378 207.911C105.378 207.661 105.303 207.456 105.154 207.296C105.005 207.136 104.813 207.057 104.579 207.057C104.345 207.057 104.153 207.136 104.004 207.296ZM104.116 205.036C103.999 205.159 103.94 205.316 103.94 205.507C103.94 205.699 103.999 205.856 104.116 205.978C104.238 206.101 104.393 206.162 104.579 206.162C104.765 206.162 104.917 206.101 105.034 205.978C105.157 205.856 105.218 205.699 105.218 205.507C105.218 205.316 105.157 205.159 105.034 205.036C104.917 204.914 104.765 204.852 104.579 204.852C104.393 204.852 104.238 204.914 104.116 205.036Z" fill="#020E1A"/>
<path d="M106.975 205.052V204.254L108.892 203.974V209.604H107.853V204.916L106.975 205.052Z" fill="#020E1A"/>
<path d="M171.401 205.052V204.254L173.318 203.974V209.604H172.28V204.916L171.401 205.052Z" fill="#020E1A"/>
<path d="M174.393 205.507C174.393 205.044 174.55 204.666 174.864 204.373C175.184 204.08 175.599 203.934 176.11 203.934C176.621 203.934 177.034 204.08 177.348 204.373C177.667 204.666 177.827 205.044 177.827 205.507C177.827 205.976 177.651 206.338 177.3 206.593C177.758 206.892 177.987 207.331 177.987 207.911C177.987 208.433 177.814 208.859 177.468 209.189C177.122 209.519 176.669 209.684 176.11 209.684C175.551 209.684 175.098 209.519 174.752 209.189C174.406 208.859 174.233 208.433 174.233 207.911C174.233 207.325 174.457 206.886 174.904 206.593C174.563 206.338 174.393 205.976 174.393 205.507ZM175.535 207.296C175.386 207.456 175.311 207.661 175.311 207.911C175.311 208.161 175.386 208.366 175.535 208.526C175.684 208.686 175.876 208.766 176.11 208.766C176.344 208.766 176.536 208.686 176.685 208.526C176.834 208.366 176.909 208.161 176.909 207.911C176.909 207.661 176.834 207.456 176.685 207.296C176.536 207.136 176.344 207.057 176.11 207.057C175.876 207.057 175.684 207.136 175.535 207.296ZM175.647 205.036C175.53 205.159 175.471 205.316 175.471 205.507C175.471 205.699 175.53 205.856 175.647 205.978C175.769 206.101 175.924 206.162 176.11 206.162C176.296 206.162 176.448 206.101 176.565 205.978C176.688 205.856 176.749 205.699 176.749 205.507C176.749 205.316 176.688 205.159 176.565 205.036C176.448 204.914 176.296 204.852 176.11 204.852C175.924 204.852 175.769 204.914 175.647 205.036Z" fill="#020E1A"/>
<path d="M181.896 207.041V206.178H182.263C182.45 206.178 182.601 206.114 182.718 205.986C182.841 205.859 182.902 205.699 182.902 205.507C182.902 205.316 182.841 205.159 182.718 205.036C182.601 204.914 182.45 204.852 182.263 204.852C182.077 204.852 181.922 204.914 181.8 205.036C181.683 205.159 181.624 205.316 181.624 205.507H180.546C180.546 205.044 180.703 204.666 181.017 204.373C181.337 204.08 181.752 203.934 182.263 203.934C182.774 203.934 183.187 204.08 183.501 204.373C183.82 204.666 183.98 205.044 183.98 205.507C183.98 205.976 183.804 206.338 183.453 206.593C183.911 206.892 184.14 207.331 184.14 207.911C184.14 208.433 183.967 208.859 183.621 209.189C183.275 209.519 182.822 209.684 182.263 209.684C181.704 209.684 181.252 209.519 180.906 209.189C180.56 208.859 180.386 208.433 180.386 207.911H181.465C181.465 208.161 181.539 208.366 181.688 208.526C181.837 208.686 182.029 208.766 182.263 208.766C182.497 208.766 182.689 208.686 182.838 208.526C182.987 208.366 183.062 208.161 183.062 207.911C183.062 207.661 182.987 207.453 182.838 207.288C182.689 207.123 182.497 207.041 182.263 207.041H181.896Z" fill="#020E1A"/>
<path d="M188.177 207.847C188.177 208.396 188.006 208.84 187.666 209.181C187.33 209.516 186.888 209.684 186.34 209.684C185.792 209.684 185.347 209.519 185.006 209.189C184.671 208.859 184.503 208.425 184.503 207.887H185.541C185.541 208.143 185.616 208.353 185.765 208.518C185.914 208.678 186.106 208.758 186.34 208.758C186.564 208.758 186.745 208.672 186.883 208.502C187.027 208.332 187.099 208.113 187.099 207.847C187.099 207.554 187.014 207.315 186.843 207.128C186.673 206.942 186.455 206.849 186.188 206.849C185.906 206.849 185.68 206.942 185.51 207.128L184.751 206.897L185.054 204.014H187.738V204.892H185.973L185.861 205.978C185.973 205.947 186.103 205.931 186.252 205.931C186.827 205.931 187.29 206.109 187.642 206.466C187.998 206.817 188.177 207.278 188.177 207.847Z" fill="#020E1A"/>
<path d="M188.84 208.766L191.188 206.418C191.337 206.269 191.411 206.053 191.411 205.771C191.411 205.505 191.34 205.286 191.196 205.116C191.057 204.946 190.876 204.86 190.653 204.86C190.429 204.86 190.246 204.946 190.102 205.116C189.963 205.286 189.894 205.505 189.894 205.771H188.816C188.816 205.222 188.984 204.781 189.319 204.445C189.66 204.104 190.104 203.934 190.653 203.934C191.201 203.934 191.643 204.104 191.978 204.445C192.319 204.781 192.49 205.222 192.49 205.771C192.49 206.282 192.295 206.732 191.907 207.12L190.301 208.726H192.49V209.604H188.84V208.766Z" fill="#020E1A"/>
<circle cx="78.3806" cy="193.853" r="5.76878" fill="#7C267B"/>
<defs>
<filter id="filter0_dd" x="25.2651" y="0.363525" width="224.183" height="218.183" filterUnits="userSpaceOnUse" color-interpolation-filters="sRGB">
<feFlood flood-opacity="0" result="BackgroundImageFix"/>
<feColorMatrix in="SourceAlpha" type="matrix" values="0 0 0 0 0 0 0 0 0 0 0 0 0 0 0 0 0 0 127 0"/>
<feOffset dx="16" dy="10"/>
<feGaussianBlur stdDeviation="16"/>
<feColorMatrix type="matrix" values="0 0 0 0 0.441667 0 0 0 0 0.182187 0 0 0 0 0.438297 0 0 0 0.4 0"/>
<feBlend mode="normal" in2="BackgroundImageFix" result="effect1_dropShadow"/>
<feColorMatrix in="SourceAlpha" type="matrix" values="0 0 0 0 0 0 0 0 0 0 0 0 0 0 0 0 0 0 127 0"/>
<feOffset dx="-16" dy="-16"/>
<feGaussianBlur stdDeviation="20"/>
<feColorMatrix type="matrix" values="0 0 0 0 1 0 0 0 0 1 0 0 0 0 1 0 0 0 0.8 0"/>
<feBlend mode="normal" in2="effect1_dropShadow" result="effect2_dropShadow"/>
<feBlend mode="normal" in="SourceGraphic" in2="effect2_dropShadow" result="shape"/>
</filter>
</defs>
</svg>
