<svg width="258" height="169" viewBox="0 0 258 169" fill="none" xmlns="http://www.w3.org/2000/svg">
<path fill-rule="evenodd" clip-rule="evenodd" d="M10 15H174.862C178.176 15 180.862 17.6863 180.862 21V25.3331H4V21C4 17.6863 6.6863 15 10 15ZM4 29.3331V123.499C4 126.813 6.68629 129.499 10 129.499H174.862C178.176 129.499 180.862 126.813 180.862 123.499V29.3331H4ZM0 21C0 15.4772 4.47715 11 10 11H174.862C180.385 11 184.862 15.4772 184.862 21V123.499C184.862 129.022 180.385 133.499 174.862 133.499H10C4.47715 133.499 0 129.022 0 123.499V21Z" fill="#C5CDCF"/>
<rect x="11.1357" y="16.9392" width="5.93935" height="5.93935" fill="#C5CDCF"/>
<rect x="24.5" y="16.9392" width="5.93935" height="5.93935" fill="#C5CDCF"/>
<rect x="37.8623" y="16.9392" width="5.93935" height="5.93935" fill="#C5CDCF"/>
<path d="M17 44H61" stroke="#C5CDCF" stroke-width="3" stroke-linecap="round"/>
<path d="M11 74H55" stroke="#C5CDCF" stroke-width="3" stroke-linecap="round"/>
<path d="M25 54H69" stroke="#C5CDCF" stroke-width="3" stroke-linecap="round"/>
<path d="M39 84H83" stroke="#C5CDCF" stroke-width="3" stroke-linecap="round"/>
<path d="M17 64H61" stroke="#C5CDCF" stroke-width="3" stroke-linecap="round"/>
<path d="M22 94H66" stroke="#C5CDCF" stroke-width="3" stroke-linecap="round"/>
<circle cx="173.5" cy="23.5" r="23.5" fill="#F6F4F2"/>
<g filter="url(#filter0_d)">
<path d="M163.068 15.81L161.156 19.3543C160.862 19.8995 161.027 20.5715 161.542 20.93L163.014 21.9535C163.348 22.1853 163.546 22.5589 163.546 22.9569V24.4184C163.546 24.7944 163.369 25.1499 163.066 25.3841L161.48 26.6091C160.996 26.9829 160.859 27.6399 161.156 28.1664L162.973 31.3953C163.295 31.9672 164.02 32.198 164.629 31.9224L166.636 31.0138C167.026 30.8374 167.481 30.8639 167.847 31.0844L169.512 32.0893C169.849 32.293 170.069 32.6379 170.107 33.0218L170.287 34.8812C170.349 35.5154 170.898 36 171.554 36H175.855C176.512 36 177.061 35.5154 177.122 34.8812L177.304 33.0071C177.341 32.6315 177.552 32.2928 177.878 32.0874L179.403 31.1275C179.791 30.8828 180.286 30.8622 180.695 31.0736L182.207 31.8559C182.809 32.1671 183.556 31.9633 183.903 31.3936L185.789 28.2906C186.139 27.7145 185.953 26.9727 185.368 26.6175L183.88 25.7126C183.509 25.4869 183.283 25.0917 183.283 24.6666V22.9852C183.283 22.5715 183.497 22.1854 183.852 21.9566L185.431 20.9404C185.987 20.5823 186.164 19.8682 185.835 19.3044L183.793 15.7985C183.496 15.289 182.871 15.0516 182.297 15.23L180.584 15.7614C180.234 15.8703 179.852 15.8265 179.537 15.6414L177.905 14.6826C177.563 14.4815 177.338 14.1362 177.298 13.7501L177.129 12.1112C177.063 11.4803 176.516 11 175.862 11H171.669C170.966 11 170.396 11.5527 170.396 12.2346V13.6112C170.396 14.0731 170.13 14.4963 169.707 14.7082L167.706 15.71C167.42 15.8531 167.089 15.886 166.779 15.8018L164.539 15.1934C163.96 15.0362 163.346 15.2933 163.068 15.81Z" stroke="#7C267B" stroke-width="3"/>
</g>
<circle cx="173.439" cy="23.8418" r="4.5" stroke="#DC40B1" stroke-width="3"/>
<path d="M32.4635 116.529C32.4635 117.3 31.6272 117.781 30.9606 117.393L22.4749 112.456C22.1809 112.285 22 111.97 22 111.63C22 111.289 22.182 110.974 22.4775 110.803L30.9633 105.902C31.63 105.517 32.4635 105.998 32.4635 106.768V107.23C32.4635 107.595 32.265 107.931 31.9455 108.106L25.563 111.618L31.9499 115.174C32.2669 115.35 32.4635 115.685 32.4635 116.047V116.529Z" fill="#C5CDCF"/>
<path d="M61 111.63C61 111.97 60.819 112.285 60.5249 112.456L52.0161 117.396C51.3494 117.783 50.514 117.302 50.514 116.531V116.048C50.514 115.685 50.7111 115.35 51.0288 115.174L57.437 111.618L51.0331 108.106C50.713 107.93 50.514 107.594 50.514 107.229V106.766C50.514 105.997 51.3466 105.516 52.0133 105.9L60.5222 110.804C60.8178 110.974 61 111.289 61 111.63Z" fill="#C5CDCF"/>
<path d="M44.2857 101.553L38.0178 122.446" stroke="#C5CDCF" stroke-width="2" stroke-linecap="round"/>
<rect x="53" y="41" width="184" height="122" rx="12" fill="#F6F4F2"/>
<path fill-rule="evenodd" clip-rule="evenodd" d="M71 50H235.862C239.176 50 241.862 52.6863 241.862 56V60.3331H65V56C65 52.6863 67.6863 50 71 50ZM65 64.3331V158.499C65 161.813 67.6863 164.499 71 164.499H235.862C239.176 164.499 241.862 161.813 241.862 158.499V64.3331H65ZM61 56C61 50.4772 65.4772 46 71 46H235.862C241.385 46 245.862 50.4772 245.862 56V158.499C245.862 164.022 241.385 168.499 235.862 168.499H71C65.4772 168.499 61 164.022 61 158.499V56Z" fill="#C5CDCF"/>
<rect x="72.1357" y="51.9392" width="5.93935" height="5.93935" fill="#C5CDCF"/>
<rect x="85.5" y="51.9392" width="5.93935" height="5.93935" fill="#C5CDCF"/>
<rect x="98.8623" y="51.9392" width="5.93935" height="5.93935" fill="#C5CDCF"/>
<path d="M72.5 79H90.5" stroke="#C5CDCF" stroke-width="2" stroke-linecap="round"/>
<path d="M72.5 85H90.5" stroke="#C5CDCF" stroke-width="2" stroke-linecap="round"/>
<path d="M72.5 91H90.5" stroke="#C5CDCF" stroke-width="2" stroke-linecap="round"/>
<path d="M72.5 97H90.5" stroke="#C5CDCF" stroke-width="2" stroke-linecap="round"/>
<path d="M72.5 103H90.5" stroke="#C5CDCF" stroke-width="2" stroke-linecap="round"/>
<path d="M72.5 109H90.5" stroke="#C5CDCF" stroke-width="2" stroke-linecap="round"/>
<path d="M72.5 115H90.5" stroke="#C5CDCF" stroke-width="2" stroke-linecap="round"/>
<path d="M72.5 121H90.5" stroke="#C5CDCF" stroke-width="2" stroke-linecap="round"/>
<path d="M72.5 127H90.5" stroke="#C5CDCF" stroke-width="2" stroke-linecap="round"/>
<path d="M72.5 133H90.5" stroke="#C5CDCF" stroke-width="2" stroke-linecap="round"/>
<path d="M72.5 139H90.5" stroke="#C5CDCF" stroke-width="2" stroke-linecap="round"/>
<path d="M105 98V83C105 80.2386 107.239 78 110 78H152C154.761 78 157 80.2386 157 83V98C157 100.761 154.761 103 152 103H110C107.239 103 105 100.761 105 98Z" stroke="#C5CDCF" stroke-width="3"/>
<path d="M117.607 95.0312L111.614 101.31C111.006 101.946 111.457 103 112.337 103H128.663C129.543 103 129.994 101.946 129.386 101.31L123.393 95.0312C121.818 93.3804 119.182 93.3804 117.607 95.0312Z" stroke="#C5CDCF" stroke-width="2"/>
<path d="M133.879 88.1213L121.707 100.293C121.077 100.923 121.523 102 122.414 102H149.586C150.477 102 150.923 100.923 150.293 100.293L138.121 88.1213C136.95 86.9497 135.05 86.9497 133.879 88.1213Z" fill="#F6F4F2" stroke="#C5CDCF" stroke-width="2"/>
<path d="M105 155V140C105 137.239 107.239 135 110 135H152C154.761 135 157 137.239 157 140V155C157 157.761 154.761 160 152 160H110C107.239 160 105 157.761 105 155Z" stroke="#C5CDCF" stroke-width="3"/>
<path d="M117.607 152.031L111.614 158.31C111.006 158.946 111.457 160 112.337 160H128.663C129.543 160 129.994 158.946 129.386 158.31L123.393 152.031C121.818 150.38 119.182 150.38 117.607 152.031Z" stroke="#C5CDCF" stroke-width="2"/>
<path d="M133.879 145.121L121.707 157.293C121.077 157.923 121.523 159 122.414 159H149.586C150.477 159 150.923 157.923 150.293 157.293L138.121 145.121C136.95 143.95 135.05 143.95 133.879 145.121Z" fill="#F6F4F2" stroke="#C5CDCF" stroke-width="2"/>
<path d="M170 155V140C170 137.239 172.239 135 175 135H217C219.761 135 222 137.239 222 140V155C222 157.761 219.761 160 217 160H175C172.239 160 170 157.761 170 155Z" stroke="#C5CDCF" stroke-width="3"/>
<path d="M182.607 152.031L176.614 158.31C176.006 158.946 176.457 160 177.337 160H193.663C194.543 160 194.994 158.946 194.386 158.31L188.393 152.031C186.818 150.38 184.182 150.38 182.607 152.031Z" stroke="#C5CDCF" stroke-width="2"/>
<path d="M198.879 145.121L186.707 157.293C186.077 157.923 186.523 159 187.414 159H214.586C215.477 159 215.923 157.923 215.293 157.293L203.121 145.121C201.95 143.95 200.05 143.95 198.879 145.121Z" fill="#F6F4F2" stroke="#C5CDCF" stroke-width="2"/>
<path d="M167 98V83C167 80.2386 169.239 78 172 78H214C216.761 78 219 80.2386 219 83V98C219 100.761 216.761 103 214 103H172C169.239 103 167 100.761 167 98Z" stroke="#C5CDCF" stroke-width="3"/>
<path d="M179.607 95.0312L173.614 101.31C173.006 101.946 173.457 103 174.337 103H190.663C191.543 103 191.994 101.946 191.386 101.31L185.393 95.0312C183.818 93.3804 181.182 93.3804 179.607 95.0312Z" stroke="#C5CDCF" stroke-width="2"/>
<path d="M195.879 88.1213L183.707 100.293C183.077 100.923 183.523 102 184.414 102H211.586C212.477 102 212.923 100.923 212.293 100.293L200.121 88.1213C198.95 86.9497 197.05 86.9497 195.879 88.1213Z" fill="#F6F4F2" stroke="#C5CDCF" stroke-width="2"/>
<path d="M97 62V165" stroke="#C5CDCF" stroke-width="3"/>
<path d="M108 115H152" stroke="#C5CDCF" stroke-width="3" stroke-linecap="round"/>
<path d="M173 115H217" stroke="#C5CDCF" stroke-width="3" stroke-linecap="round"/>
<path d="M108 121H152" stroke="#C5CDCF" stroke-width="3" stroke-linecap="round"/>
<path d="M173 121H217" stroke="#C5CDCF" stroke-width="3" stroke-linecap="round"/>
<path d="M108 127H152" stroke="#C5CDCF" stroke-width="3" stroke-linecap="round"/>
<path d="M173 127H217" stroke="#C5CDCF" stroke-width="3" stroke-linecap="round"/>
<circle cx="234.5" cy="58.5" r="23.5" fill="#F6F4F2"/>
<path d="M228.568 49.8384L226.236 52.1704" stroke="#141414"/>
<g filter="url(#filter1_d)">
<path d="M238.714 69.0867L222.415 52.787C221.634 52.006 221.634 50.7396 222.415 49.9586L224.203 48.1699C224.984 47.3888 226.251 47.3889 227.032 48.1699L243.331 64.4695C244.113 65.2506 244.113 66.5169 243.331 67.298L241.543 69.0867C240.762 69.8677 239.495 69.8677 238.714 69.0867Z" fill="white" stroke="#7C267B" stroke-width="3"/>
<path d="M224.371 53.5699L225.77 52.1707" stroke="#7C267B" stroke-width="2"/>
<path d="M226.237 55.4353L227.636 54.0361" stroke="#7C267B" stroke-width="2"/>
<path d="M236.497 65.6961L237.897 64.2969" stroke="#7C267B" stroke-width="2"/>
<path d="M238.363 67.5618L239.762 66.1626" stroke="#7C267B" stroke-width="2"/>
</g>
<path d="M222.414 64.4696L238.687 48.1967C238.854 48.0296 239.05 47.8935 239.264 47.7946L243.633 45.7809C244.425 45.416 245.272 46.1685 245.003 46.9978L243.387 51.976C243.292 52.2682 243.132 52.5347 242.917 52.7547L227.031 69.0505C226.253 69.8486 224.973 69.8567 224.185 69.0686L222.414 67.2981C221.633 66.517 221.633 65.2507 222.414 64.4696Z" fill="white" stroke="#DC40B1" stroke-width="3"/>
<path d="M221.198 65.3345L238.935 47.5976C239.101 47.4318 239.294 47.2965 239.507 47.1978L244.398 44.9267C245.192 44.5582 246.042 45.3145 245.769 46.1458L243.943 51.7061C243.848 51.9958 243.687 52.2599 243.475 52.4783L226.147 70.2483C225.369 71.0463 224.089 71.0543 223.301 70.2663L221.198 68.1629C220.417 67.3819 220.417 66.1156 221.198 65.3345Z" fill="white" stroke="#DC40B1" stroke-width="3"/>
<defs>
<filter id="filter0_d" x="157.5" y="7.5" width="38.0012" height="38" filterUnits="userSpaceOnUse" color-interpolation-filters="sRGB">
<feFlood flood-opacity="0" result="BackgroundImageFix"/>
<feColorMatrix in="SourceAlpha" type="matrix" values="0 0 0 0 0 0 0 0 0 0 0 0 0 0 0 0 0 0 127 0"/>
<feOffset dx="3" dy="3"/>
<feGaussianBlur stdDeviation="2.5"/>
<feColorMatrix type="matrix" values="0 0 0 0 0.441667 0 0 0 0 0.182187 0 0 0 0 0.438297 0 0 0 0.4 0"/>
<feBlend mode="normal" in2="BackgroundImageFix" result="effect1_dropShadow"/>
<feBlend mode="normal" in="SourceGraphic" in2="effect1_dropShadow" result="shape"/>
</filter>
<filter id="filter1_d" x="218.329" y="44.0842" width="35.0883" height="35.0883" filterUnits="userSpaceOnUse" color-interpolation-filters="sRGB">
<feFlood flood-opacity="0" result="BackgroundImageFix"/>
<feColorMatrix in="SourceAlpha" type="matrix" values="0 0 0 0 0 0 0 0 0 0 0 0 0 0 0 0 0 0 127 0"/>
<feOffset dx="3" dy="3"/>
<feGaussianBlur stdDeviation="2.5"/>
<feColorMatrix type="matrix" values="0 0 0 0 0.441667 0 0 0 0 0.182187 0 0 0 0 0.438297 0 0 0 0.4 0"/>
<feBlend mode="normal" in2="BackgroundImageFix" result="effect1_dropShadow"/>
<feBlend mode="normal" in="SourceGraphic" in2="effect1_dropShadow" result="shape"/>
</filter>
</defs>
</svg>
