<svg width="208" height="210" viewBox="0 0 208 210" fill="none" xmlns="http://www.w3.org/2000/svg">
<rect opacity="0.4" x="27" y="32" width="178.667" height="321.085" rx="8" stroke="#C5CDCF" stroke-width="4"/>
<path opacity="0.4" d="M50.9832 160.034H179.469" stroke="#C5CDCF" stroke-width="4" stroke-linecap="round"/>
<path opacity="0.4" d="M50.9832 175.514H179.469" stroke="#C5CDCF" stroke-width="4" stroke-linecap="round"/>
<path opacity="0.4" d="M50.9832 190.994H179.469" stroke="#C5CDCF" stroke-width="4" stroke-linecap="round"/>
<rect opacity="0.4" x="46.3389" y="68.7007" width="91.3333" height="41.7966" rx="5" fill="#C5CDCF"/>
<g filter="url(#filter0_d)">
<rect x="46" y="121" width="139" height="23" rx="8" fill="#DC40B1"/>
</g>
<rect opacity="0.4" x="144.317" y="70.7007" width="39.3446" height="37.7966" rx="3" stroke="#C5CDCF" stroke-width="4"/>
<path opacity="0.4" d="M81.9436 34L153.153 34L146.724 48.6783C145.927 50.4972 144.13 51.6723 142.144 51.6723H92.9524C90.9666 51.6723 89.169 50.4972 88.3724 48.6783L81.9436 34Z" fill="#C5CDCF"/>
<path d="M2 29.4202L9.93828 24.3765C11.9191 23.118 14.5087 23.4065 16.164 25.0701L35.3653 44.368C37.0206 46.0316 39.6102 46.3201 41.591 45.0616L57.8733 34.7165C59.6626 33.5797 60.5405 31.438 60.064 29.3724L56.1291 12.3152L32.9768 27.0252" stroke="#7C267B" stroke-width="4" stroke-linecap="round"/>
<g filter="url(#filter1_d)">
<circle cx="49.6981" cy="54.4311" r="4.66897" transform="rotate(-32.4302 49.6981 54.4311)" fill="#7C267B"/>
</g>
<g filter="url(#filter2_d)">
<circle cx="64.4762" cy="45.042" r="4.66897" transform="rotate(-32.4302 64.4762 45.042)" fill="#7C267B"/>
</g>
<path d="M145.356 10L154.088 12.4184C156.35 13.0448 157.871 15.1599 157.746 17.5034L156.344 43.7834C156.219 46.1269 157.74 48.2421 160.002 48.8685L177.928 53.8335C179.971 54.3993 182.149 53.6154 183.362 51.8771L193.074 37.9671L167.318 30.8336" stroke="#7C267B" stroke-width="4" stroke-linecap="round"/>
<g filter="url(#filter3_d)">
<circle cx="158.422" cy="60.8216" r="4.54903" transform="rotate(15.4811 158.422 60.8216)" fill="#7C267B"/>
</g>
<g filter="url(#filter4_d)">
<circle cx="174.862" cy="65.3748" r="4.54903" transform="rotate(15.4811 174.862 65.3748)" fill="#7C267B"/>
</g>
<path d="M76 72.929L83.3849 71.9868C85.7129 71.6898 87.9342 73.0518 88.7252 75.2614L96.165 96.0438C96.956 98.2533 99.1772 99.6154 101.505 99.3184L116.752 97.3732C118.855 97.1049 120.56 95.5397 121.007 93.4674L124.049 79.3595L100.813 82.324" stroke="#7C267B" stroke-width="4" stroke-linecap="round"/>
<g filter="url(#filter5_d)">
<circle cx="103.788" cy="109.578" r="3.98714" transform="rotate(-7.2707 103.788 109.578)" fill="#7C267B"/>
</g>
<g filter="url(#filter6_d)">
<circle cx="118.619" cy="107.686" r="3.98714" transform="rotate(-7.2707 118.619 107.686)" fill="#7C267B"/>
</g>
<g filter="url(#filter7_d)">
<path d="M131.534 177.591C131.434 178.549 130.649 179.272 129.722 179.373L118.873 179.975C117.092 180.049 115.426 178.928 114.9 177.167C113.369 171.983 109.79 167.954 109.543 167.68C109.534 167.671 109.556 167.695 109.547 167.684C109.544 167.682 109.524 167.66 109.522 167.657C109.512 167.647 109.516 167.651 109.515 167.649C108.559 166.609 107.802 165.536 107.327 164.081C107.022 163.084 106.379 161.844 106.032 160.897C105.094 158.409 103.923 156.007 102.385 153.859C101.691 152.92 101.877 152.195 102.866 151.542C103.36 151.215 104.279 151.023 104.895 151.122C106.277 151.357 107.3 152.193 108.186 153.096C108.764 153.601 110.474 156.914 111.38 158.269C112.16 159.441 113.022 158.605 113.731 157.399C114.081 156.793 114.23 156.132 114.375 155.457C115.207 149.352 115.893 143.225 116.61 137.042C116.749 135.678 117.702 134.833 119.004 134.825C120.259 134.877 121.254 135.868 121.316 137.201C121.408 139.078 121.45 140.913 121.51 142.845C121.533 144.584 121.653 146.306 121.677 148.045C121.725 149.311 122.59 150.404 123.768 150.87C126.534 151.964 131.637 154.467 135.714 159.222C136.022 159.62 136.203 160.092 136.077 160.606C135.798 162.636 134.928 168.193 132.625 172.542C132.167 173.759 131.943 174.89 131.757 175.615L131.534 177.591Z" fill="#7C267B"/>
</g>
<path fill-rule="evenodd" clip-rule="evenodd" d="M118.503 132.019C118.667 132.006 118.833 132 119 132C119.17 132 119.337 132.006 119.503 132.019V123H118.503V132.019ZM122.657 133.139C122.933 133.334 123.19 133.55 123.425 133.786L126.782 130.429L126.075 129.722L122.657 133.139ZM124.976 137C124.992 137.165 125 137.331 125 137.5C125 137.669 124.992 137.835 124.976 138H132.503V137H124.976ZM113.024 138C113.008 137.835 113 137.669 113 137.5C113 137.331 113.008 137.165 113.024 137H105.503V138H113.024ZM115.347 133.136C115.071 133.331 114.814 133.547 114.579 133.782L111.225 130.429L111.932 129.722L115.347 133.136Z" fill="white"/>
<defs>
<filter id="filter0_d" x="44" y="119" width="149" height="33" filterUnits="userSpaceOnUse" color-interpolation-filters="sRGB">
<feFlood flood-opacity="0" result="BackgroundImageFix"/>
<feColorMatrix in="SourceAlpha" type="matrix" values="0 0 0 0 0 0 0 0 0 0 0 0 0 0 0 0 0 0 127 0"/>
<feOffset dx="3" dy="3"/>
<feGaussianBlur stdDeviation="2.5"/>
<feColorMatrix type="matrix" values="0 0 0 0 0.7125 0 0 0 0 0.175156 0 0 0 0 0.564386 0 0 0 0.4 0"/>
<feBlend mode="normal" in2="BackgroundImageFix" result="effect1_dropShadow"/>
<feBlend mode="normal" in="SourceGraphic" in2="effect1_dropShadow" result="shape"/>
</filter>
<filter id="filter1_d" x="43.0286" y="47.7615" width="19.3391" height="19.3391" filterUnits="userSpaceOnUse" color-interpolation-filters="sRGB">
<feFlood flood-opacity="0" result="BackgroundImageFix"/>
<feColorMatrix in="SourceAlpha" type="matrix" values="0 0 0 0 0 0 0 0 0 0 0 0 0 0 0 0 0 0 127 0"/>
<feOffset dx="3" dy="3"/>
<feGaussianBlur stdDeviation="2.5"/>
<feColorMatrix type="matrix" values="0 0 0 0 0.441667 0 0 0 0 0.182187 0 0 0 0 0.438297 0 0 0 0.4 0"/>
<feBlend mode="normal" in2="BackgroundImageFix" result="effect1_dropShadow"/>
<feBlend mode="normal" in="SourceGraphic" in2="effect1_dropShadow" result="shape"/>
</filter>
<filter id="filter2_d" x="57.8066" y="38.3723" width="19.3391" height="19.3391" filterUnits="userSpaceOnUse" color-interpolation-filters="sRGB">
<feFlood flood-opacity="0" result="BackgroundImageFix"/>
<feColorMatrix in="SourceAlpha" type="matrix" values="0 0 0 0 0 0 0 0 0 0 0 0 0 0 0 0 0 0 127 0"/>
<feOffset dx="3" dy="3"/>
<feGaussianBlur stdDeviation="2.5"/>
<feColorMatrix type="matrix" values="0 0 0 0 0.441667 0 0 0 0 0.182187 0 0 0 0 0.438297 0 0 0 0.4 0"/>
<feBlend mode="normal" in2="BackgroundImageFix" result="effect1_dropShadow"/>
<feBlend mode="normal" in="SourceGraphic" in2="effect1_dropShadow" result="shape"/>
</filter>
<filter id="filter3_d" x="151.872" y="54.2715" width="19.1004" height="19.1004" filterUnits="userSpaceOnUse" color-interpolation-filters="sRGB">
<feFlood flood-opacity="0" result="BackgroundImageFix"/>
<feColorMatrix in="SourceAlpha" type="matrix" values="0 0 0 0 0 0 0 0 0 0 0 0 0 0 0 0 0 0 127 0"/>
<feOffset dx="3" dy="3"/>
<feGaussianBlur stdDeviation="2.5"/>
<feColorMatrix type="matrix" values="0 0 0 0 0.441667 0 0 0 0 0.182187 0 0 0 0 0.438297 0 0 0 0.4 0"/>
<feBlend mode="normal" in2="BackgroundImageFix" result="effect1_dropShadow"/>
<feBlend mode="normal" in="SourceGraphic" in2="effect1_dropShadow" result="shape"/>
</filter>
<filter id="filter4_d" x="168.312" y="58.8247" width="19.1004" height="19.1004" filterUnits="userSpaceOnUse" color-interpolation-filters="sRGB">
<feFlood flood-opacity="0" result="BackgroundImageFix"/>
<feColorMatrix in="SourceAlpha" type="matrix" values="0 0 0 0 0 0 0 0 0 0 0 0 0 0 0 0 0 0 127 0"/>
<feOffset dx="3" dy="3"/>
<feGaussianBlur stdDeviation="2.5"/>
<feColorMatrix type="matrix" values="0 0 0 0 0.441667 0 0 0 0 0.182187 0 0 0 0 0.438297 0 0 0 0.4 0"/>
<feBlend mode="normal" in2="BackgroundImageFix" result="effect1_dropShadow"/>
<feBlend mode="normal" in="SourceGraphic" in2="effect1_dropShadow" result="shape"/>
</filter>
<filter id="filter5_d" x="97.8003" y="103.591" width="17.9751" height="17.9751" filterUnits="userSpaceOnUse" color-interpolation-filters="sRGB">
<feFlood flood-opacity="0" result="BackgroundImageFix"/>
<feColorMatrix in="SourceAlpha" type="matrix" values="0 0 0 0 0 0 0 0 0 0 0 0 0 0 0 0 0 0 127 0"/>
<feOffset dx="3" dy="3"/>
<feGaussianBlur stdDeviation="2.5"/>
<feColorMatrix type="matrix" values="0 0 0 0 0.441667 0 0 0 0 0.182187 0 0 0 0 0.438297 0 0 0 0.4 0"/>
<feBlend mode="normal" in2="BackgroundImageFix" result="effect1_dropShadow"/>
<feBlend mode="normal" in="SourceGraphic" in2="effect1_dropShadow" result="shape"/>
</filter>
<filter id="filter6_d" x="112.632" y="101.698" width="17.9751" height="17.9751" filterUnits="userSpaceOnUse" color-interpolation-filters="sRGB">
<feFlood flood-opacity="0" result="BackgroundImageFix"/>
<feColorMatrix in="SourceAlpha" type="matrix" values="0 0 0 0 0 0 0 0 0 0 0 0 0 0 0 0 0 0 127 0"/>
<feOffset dx="3" dy="3"/>
<feGaussianBlur stdDeviation="2.5"/>
<feColorMatrix type="matrix" values="0 0 0 0 0.441667 0 0 0 0 0.182187 0 0 0 0 0.438297 0 0 0 0.4 0"/>
<feBlend mode="normal" in2="BackgroundImageFix" result="effect1_dropShadow"/>
<feBlend mode="normal" in="SourceGraphic" in2="effect1_dropShadow" result="shape"/>
</filter>
<filter id="filter7_d" x="99.9695" y="132.825" width="44.1481" height="55.1531" filterUnits="userSpaceOnUse" color-interpolation-filters="sRGB">
<feFlood flood-opacity="0" result="BackgroundImageFix"/>
<feColorMatrix in="SourceAlpha" type="matrix" values="0 0 0 0 0 0 0 0 0 0 0 0 0 0 0 0 0 0 127 0"/>
<feOffset dx="3" dy="3"/>
<feGaussianBlur stdDeviation="2.5"/>
<feColorMatrix type="matrix" values="0 0 0 0 0.441667 0 0 0 0 0.182187 0 0 0 0 0.438297 0 0 0 0.4 0"/>
<feBlend mode="normal" in2="BackgroundImageFix" result="effect1_dropShadow"/>
<feBlend mode="normal" in="SourceGraphic" in2="effect1_dropShadow" result="shape"/>
</filter>
</defs>
</svg>
