<svg width="304" height="161" viewBox="0 0 304 161" fill="none" xmlns="http://www.w3.org/2000/svg">
<path d="M10 12H88C92.4183 12 96 15.5817 96 20V151C96 155.418 92.4183 159 88 159H10C5.58172 159 2 155.418 2 151V20C2 15.5817 5.58172 12 10 12Z" stroke="#C5CDCF" stroke-width="4"/>
<path d="M86 97L56 97" stroke="#C5CDCF" stroke-width="4" stroke-linecap="round"/>
<path d="M86 87L56 87" stroke="#C5CDCF" stroke-width="4" stroke-linecap="round"/>
<path d="M56 145L15 145" stroke="#C5CDCF" stroke-width="4" stroke-linecap="round"/>
<path d="M86 77L56 77" stroke="#C5CDCF" stroke-width="4" stroke-linecap="round"/>
<path d="M56 135L15 135" stroke="#C5CDCF" stroke-width="4" stroke-linecap="round"/>
<rect x="12" y="22" width="33" height="18" rx="5" fill="#C5CDCF"/>
<rect x="53" y="22" width="33" height="18" rx="5" fill="#C5CDCF"/>
<rect x="84.3728" y="65" width="69.9153" height="14" rx="3" transform="rotate(180 84.3728 65)" stroke="#C5CDCF" stroke-width="4"/>
<rect x="84.3728" y="124" width="69.9153" height="14" rx="3" transform="rotate(180 84.3728 124)" stroke="#C5CDCF" stroke-width="4"/>
<rect x="43" y="98" width="29" height="21" rx="3" transform="rotate(180 43 98)" stroke="#C5CDCF" stroke-width="4"/>
<path d="M173.229 94.0763L153.076 114.229M153.076 94.0763L173.229 114.229" stroke="#7C267B" stroke-width="4" stroke-linecap="round"/>
<path d="M180 104H192C194.761 104 197 106.239 197 109V121C197 123.761 194.761 126 192 126H134C131.239 126 129 123.761 129 121V109C129 106.239 131.239 104 134 104H146" stroke="#C5CDCF" stroke-width="4" stroke-linecap="round"/>
<path d="M180 21H192C194.761 21 197 23.2386 197 26V38C197 40.7614 194.761 43 192 43H134C131.239 43 129 40.7614 129 38V26C129 23.2386 131.239 21 134 21H146" stroke="#C5CDCF" stroke-width="4" stroke-linecap="round"/>
<path d="M285 104H297C299.761 104 302 106.239 302 109V121C302 123.761 299.761 126 297 126H239C236.239 126 234 123.761 234 121V109C234 106.239 236.239 104 239 104H251" stroke="#C5CDCF" stroke-width="4" stroke-linecap="round"/>
<path d="M181.082 6.99187L163.492 24.5826L156.5 17.5907" stroke="#DC40B1" stroke-width="4" stroke-linecap="round"/>
<path d="M286.082 89.9919L268.492 107.583L261.5 100.591" stroke="#DC40B1" stroke-width="4" stroke-linecap="round"/>
<path d="M126.354 32.3536C126.549 32.1583 126.549 31.8417 126.354 31.6464L123.172 28.4645C122.976 28.2692 122.66 28.2692 122.464 28.4645C122.269 28.6597 122.269 28.9763 122.464 29.1716L125.293 32L122.464 34.8284C122.269 35.0237 122.269 35.3403 122.464 35.5355C122.66 35.7308 122.976 35.7308 123.172 35.5355L126.354 32.3536ZM86 32.5L126 32.5V31.5L86 31.5V32.5Z" fill="#7C267B"/>
<path d="M232.354 117.354C232.549 117.158 232.549 116.842 232.354 116.646L229.172 113.464C228.976 113.269 228.66 113.269 228.465 113.464C228.269 113.66 228.269 113.976 228.465 114.172L231.293 117L228.465 119.828C228.269 120.024 228.269 120.34 228.465 120.536C228.66 120.731 228.976 120.731 229.172 120.536L232.354 117.354ZM127.5 137H199.926V136H127.5V137ZM219.426 117.5H232V116.5H219.426V117.5ZM87 117H107.5V116H87V117ZM107.5 117C112.747 117 117 121.253 117 126.5H118C118 120.701 113.299 116 107.5 116V117ZM210.176 126.75C210.176 121.641 214.317 117.5 219.426 117.5V116.5C213.765 116.5 209.176 121.089 209.176 126.75H210.176ZM199.926 137C205.586 137 210.176 132.411 210.176 126.75H209.176C209.176 131.859 205.034 136 199.926 136V137ZM127.5 136C122.253 136 118 131.747 118 126.5H117C117 132.299 121.701 137 127.5 137V136Z" fill="#7C267B"/>
</svg>
