<svg width="163" height="39" viewBox="0 0 163 39" fill="none" xmlns="http://www.w3.org/2000/svg">
<path d="M94.6044 3.48564C94.7242 3.11711 95.2455 3.11712 95.3653 3.48564L96.6878 7.55583C96.7413 7.72064 96.8949 7.83222 97.0682 7.83222H101.348C101.735 7.83222 101.896 8.32807 101.583 8.55583L98.1206 11.0713C97.9805 11.1732 97.9218 11.3537 97.9753 11.5186L99.2978 15.5887C99.4176 15.9573 98.9958 16.2637 98.6823 16.036L95.22 13.5204C95.0798 13.4186 94.8899 13.4186 94.7497 13.5204L91.2874 16.036C90.974 16.2637 90.5522 15.9573 90.6719 15.5887L91.9944 11.5186C92.0479 11.3537 91.9893 11.1732 91.8491 11.0713L88.3868 8.55583C88.0733 8.32807 88.2344 7.83222 88.6219 7.83222H92.9015C93.0748 7.83222 93.2284 7.72064 93.282 7.55583L94.6044 3.48564Z" fill="#EF4335"/>
<path d="M109.612 3.48564C109.732 3.11711 110.253 3.11712 110.373 3.48564L111.696 7.55583C111.749 7.72064 111.903 7.83222 112.076 7.83222H116.356C116.743 7.83222 116.904 8.32807 116.591 8.55583L113.128 11.0713C112.988 11.1732 112.93 11.3537 112.983 11.5186L114.306 15.5887C114.425 15.9573 114.004 16.2637 113.69 16.036L110.228 13.5204C110.088 13.4186 109.898 13.4186 109.758 13.5204L106.295 16.036C105.982 16.2637 105.56 15.9573 105.68 15.5887L107.002 11.5186C107.056 11.3537 106.997 11.1732 106.857 11.0713L103.395 8.55583C103.081 8.32807 103.242 7.83222 103.63 7.83222H107.909C108.083 7.83222 108.236 7.72064 108.29 7.55583L109.612 3.48564Z" fill="#EF4335"/>
<path d="M124.62 3.48564C124.74 3.11711 125.261 3.11712 125.381 3.48564L126.703 7.55583C126.757 7.72064 126.911 7.83222 127.084 7.83222H131.363C131.751 7.83222 131.912 8.32807 131.599 8.55583L128.136 11.0713C127.996 11.1732 127.937 11.3537 127.991 11.5186L129.313 15.5887C129.433 15.9573 129.011 16.2637 128.698 16.036L125.236 13.5204C125.095 13.4186 124.906 13.4186 124.765 13.5204L121.303 16.036C120.99 16.2637 120.568 15.9573 120.688 15.5887L122.01 11.5186C122.064 11.3537 122.005 11.1732 121.865 11.0713L118.402 8.55583C118.089 8.32807 118.25 7.83222 118.638 7.83222H122.917C123.09 7.83222 123.244 7.72064 123.298 7.55583L124.62 3.48564Z" fill="#EF4335"/>
<path d="M139.628 3.48564C139.748 3.11711 140.269 3.11712 140.389 3.48564L141.711 7.55583C141.765 7.72064 141.918 7.83222 142.092 7.83222H146.371C146.759 7.83222 146.92 8.32807 146.606 8.55583L143.144 11.0713C143.004 11.1732 142.945 11.3537 142.999 11.5186L144.321 15.5887C144.441 15.9573 144.019 16.2637 143.706 16.036L140.243 13.5204C140.103 13.4186 139.913 13.4186 139.773 13.5204L136.311 16.036C135.997 16.2637 135.576 15.9573 135.695 15.5887L137.018 11.5186C137.071 11.3537 137.013 11.1732 136.873 11.0713L133.41 8.55583C133.097 8.32807 133.258 7.83222 133.645 7.83222H137.925C138.098 7.83222 138.252 7.72064 138.305 7.55583L139.628 3.48564Z" fill="#EF4335"/>
<path d="M154.636 3.48564C154.755 3.11711 155.277 3.11712 155.397 3.48564L156.719 7.55583C156.773 7.72064 156.926 7.83222 157.099 7.83222H161.379C161.767 7.83222 161.928 8.32807 161.614 8.55583L158.152 11.0713C158.012 11.1732 157.953 11.3537 158.007 11.5186L159.329 15.5887C159.449 15.9573 159.027 16.2637 158.714 16.036L155.251 13.5204C155.111 13.4186 154.921 13.4186 154.781 13.5204L151.319 16.036C151.005 16.2637 150.583 15.9573 150.703 15.5887L152.026 11.5186C152.079 11.3537 152.021 11.1732 151.88 11.0713L148.418 8.55583C148.105 8.32807 148.266 7.83222 148.653 7.83222H152.933C153.106 7.83222 153.26 7.72064 153.313 7.55583L154.636 3.48564Z" fill="#EF4335"/>
<path d="M20.0703 18H23.4442V38.83H20.0703V18Z" fill="white"/>
<path d="M35.1829 32.2292C35.1829 35.4564 32.5425 35.7497 31.6623 35.7497C29.6087 35.7497 29.3153 33.8428 29.3153 32.8159V24.748H25.9414V32.6692C25.9414 34.5762 26.5282 36.3365 27.7017 37.3633C28.7285 38.3902 30.0487 38.8302 31.6623 38.8302C32.8358 38.8302 34.3027 38.5368 35.1829 37.6567V38.8302H38.5568V24.748H35.1829V32.2292Z" fill="white"/>
<path d="M45.1528 19.6132H41.7789V24.7473H39.2852V27.9745H41.7789V38.8295H45.1528V27.9745H47.6465V24.7473H45.1528V19.6132Z" fill="white"/>
<path d="M58.2093 34.5758C57.4758 35.1625 56.449 35.6026 55.4222 35.6026C53.0751 35.6026 51.4616 33.8423 51.4616 31.4953C51.4616 29.1482 53.0751 27.5347 55.4222 27.5347C56.449 27.5347 57.4758 27.828 58.2093 28.5615L58.6494 29.0016L60.9964 26.8012L60.4096 26.3611C59.0894 25.1876 57.3292 24.4542 55.4222 24.4542C51.3149 24.4542 48.2344 27.5347 48.2344 31.642C48.2344 35.7493 51.3149 38.8298 55.4222 38.8298C57.3292 38.8298 59.0894 38.0963 60.4096 36.9228L60.9964 36.4827L58.6494 34.1357L58.2093 34.5758Z" fill="white"/>
<path d="M72.8777 25.9213C71.8508 24.8944 70.824 24.4544 69.2104 24.4544C68.0369 24.4544 66.8634 24.7477 65.9832 25.6279V18H62.6094V38.83H65.9832V31.0554C65.9832 27.8282 68.1836 27.5349 69.0637 27.5349C71.1174 27.5349 70.9707 29.4418 70.9707 30.4686V38.6833H74.3446V30.6153C74.3446 28.7084 73.9045 26.9481 72.8777 25.9213Z" fill="white"/>
<path d="M55.2767 33.9892C56.573 33.9892 57.6238 32.9384 57.6238 31.6421C57.6238 30.3459 56.573 29.2951 55.2767 29.2951C53.9805 29.2951 52.9297 30.3459 52.9297 31.6421C52.9297 32.9384 53.9805 33.9892 55.2767 33.9892Z" fill="#EF4335"/>
<path d="M15.3756 33.6962C14.2021 34.8697 12.4418 35.6031 10.5349 35.6031C6.8676 35.6031 4.22718 32.6693 4.22718 28.7087C4.22718 24.7481 6.8676 21.8143 10.6815 21.8143C12.4418 21.8143 14.2021 22.5477 15.5223 23.8679L15.9624 24.308L18.1627 22.1077L17.7227 21.6676C15.8157 19.7606 13.322 18.7338 10.6815 18.7338C5.10732 18.5871 1 22.9878 1 28.7087C1 34.4296 5.10732 38.8303 10.5349 38.8303C13.1753 38.8303 15.8157 37.8035 17.576 35.8965L18.016 35.4564L15.8157 33.2561L15.3756 33.6962Z" fill="white"/>
<path d="M2.64 12H1.164V3.6C1.34 3.6 1.792 3.596 2.52 3.588C3.256 3.58 3.656 3.576 3.72 3.576C5.752 3.576 6.768 4.44 6.768 6.168C6.768 6.816 6.604 7.344 6.276 7.752C5.948 8.152 5.572 8.424 5.148 8.568L7.776 12H5.988L3.672 8.856H2.64V12ZM3.648 4.956C3.504 4.956 3.168 4.964 2.64 4.98V7.476H3.6C4.056 7.476 4.436 7.364 4.74 7.14C5.052 6.908 5.208 6.588 5.208 6.18C5.208 5.364 4.688 4.956 3.648 4.956ZM8.70244 12V3.6H13.5624V4.98H10.1784V7.068H13.2024V8.448H10.1784V10.62H13.6824V12H8.70244ZM21.9768 3.6L18.6168 12.024H17.5008L14.0448 3.6H15.6168L18.1128 9.828L20.5008 3.6H21.9768ZM22.9398 12V3.6H24.4158V12H22.9398ZM26.5599 12V3.6H31.4199V4.98H28.0359V7.068H31.0599V8.448H28.0359V10.62H31.5399V12H26.5599ZM39.8343 3.6L36.4743 12.024H35.3583L31.9023 3.6H33.4743L35.9703 9.828L38.3583 3.6H39.8343ZM40.6173 12V3.6H45.4773V4.98H42.0933V7.068H45.1173V8.448H42.0933V10.62H45.5973V12H40.6173ZM47.1596 12V3.6H47.3156C47.4756 3.6 47.8476 3.596 48.4316 3.588C49.0156 3.572 49.4156 3.564 49.6316 3.564C50.4476 3.564 51.1636 3.676 51.7796 3.9C52.3956 4.116 52.8876 4.42 53.2556 4.812C53.6236 5.204 53.8956 5.644 54.0716 6.132C54.2556 6.612 54.3476 7.14 54.3476 7.716C54.3476 8.964 53.9276 9.996 53.0876 10.812C52.2556 11.62 51.0716 12.024 49.5356 12.024C49.3916 12.024 49.0556 12.02 48.5276 12.012C48.0076 12.004 47.6076 12 47.3276 12H47.1596ZM49.6076 4.944C49.2956 4.944 48.9716 4.956 48.6356 4.98V10.62C48.9076 10.636 49.2236 10.644 49.5836 10.644C50.5836 10.644 51.3676 10.38 51.9356 9.852C52.5036 9.324 52.7876 8.612 52.7876 7.716C52.7876 6.86 52.5036 6.184 51.9356 5.688C51.3756 5.192 50.5996 4.944 49.6076 4.944ZM57.2531 7.8C57.2531 6.568 57.6611 5.54 58.4771 4.716C59.3011 3.884 60.3491 3.468 61.6211 3.468C62.8851 3.468 63.9291 3.868 64.7531 4.668C65.5851 5.468 66.0011 6.512 66.0011 7.8C66.0011 9.056 65.5851 10.092 64.7531 10.908C63.9211 11.724 62.8771 12.132 61.6211 12.132C60.3571 12.132 59.3131 11.732 58.4891 10.932C57.6651 10.132 57.2531 9.088 57.2531 7.8ZM58.8131 7.8C58.8131 8.64 59.0811 9.344 59.6171 9.912C60.1611 10.472 60.8291 10.752 61.6211 10.752C62.4851 10.752 63.1691 10.472 63.6731 9.912C64.1851 9.352 64.4411 8.648 64.4411 7.8C64.4411 6.936 64.1691 6.228 63.6251 5.676C63.0891 5.124 62.4211 4.848 61.6211 4.848C60.8131 4.848 60.1411 5.124 59.6051 5.676C59.0771 6.228 58.8131 6.936 58.8131 7.8ZM74.5252 12H73.3492L68.7292 6.18V12H67.3492V3.6H68.5252L73.1452 9.444V3.6H74.5252V12Z" fill="white"/>
</svg>
