<svg width="200" height="55" viewBox="0 0 200 55" fill="none" xmlns="http://www.w3.org/2000/svg">
<path d="M96.1869 16.5539C96.1869 16.2375 95.976 16.1321 95.7652 16.1321H89.1226C88.8063 16.1321 88.5954 16.343 88.49 16.5539L78.2625 42.1752C78.0516 42.4915 78.3679 42.9133 78.6843 42.9133H84.6942C85.0105 42.9133 85.2214 42.7024 85.3268 42.3861L90.2824 27.4139L90.5987 42.3861C90.5987 42.7024 90.8096 42.9133 91.0205 42.9133H96.7141C97.0304 42.9133 97.4522 42.597 97.4522 42.1752L96.1869 16.5539ZM71.5145 32.5804H65.5045C65.1882 32.5804 65.0828 32.2641 65.1882 31.9478L66.0317 26.7813C66.0317 26.465 66.348 26.1487 66.5589 26.1487H72.6743C72.6743 26.0433 72.6743 25.9378 72.6743 25.8324C72.6743 25.5161 72.6743 25.3052 72.6743 24.9889C72.6743 24.6726 72.5689 24.4617 72.4634 24.1454C72.358 23.8291 72.2526 23.7236 72.1471 23.4073C72.0417 23.1964 71.8308 22.9856 71.8308 22.7747C71.6199 22.5638 71.5145 22.4584 71.3036 22.3529C71.0927 22.2475 70.8819 22.0366 70.5655 22.0366C70.2492 21.9312 70.0384 21.9312 69.722 21.9312C69.4057 21.9312 69.1949 21.9312 68.8785 21.9312C68.5622 21.9312 68.3514 22.0366 68.035 22.0366C67.7187 22.1421 67.6133 22.1421 67.297 22.2475C66.9807 22.3529 66.8752 22.4584 66.6644 22.5638H66.5589C66.2426 22.6692 66.0317 22.4584 66.0317 22.1421L65.8209 17.6082C65.7154 17.2919 65.9263 16.9756 66.1372 16.8702C66.348 16.7647 66.5589 16.6593 66.8752 16.5539C67.1915 16.4484 67.4024 16.343 67.7187 16.2375C68.035 16.1321 68.3514 16.0267 68.5622 15.9212C68.7731 15.8158 69.1949 15.7104 69.5112 15.7104C69.8275 15.6049 70.2492 15.6049 70.5655 15.4995C70.8819 15.4995 71.3036 15.394 71.7254 15.394C72.358 15.394 72.9906 15.4995 73.5178 15.6049C74.045 15.7104 74.5722 15.9212 74.9939 16.0267C75.4157 16.2375 75.8374 16.4484 76.2592 16.7647C76.5755 17.081 76.9972 17.3974 77.3136 17.7137C77.6299 18.03 77.8408 18.4517 78.1571 18.8735C78.4734 19.2952 78.5788 19.717 78.7897 20.2442C79.0006 20.6659 79.106 21.0877 79.106 21.7203C79.2114 22.1421 79.3169 22.6692 79.4223 23.1964C79.5278 23.7236 79.5278 24.2508 79.5278 24.6726C79.5278 25.1997 79.5278 25.6215 79.5278 26.1487C79.5278 26.6759 79.4223 27.2031 79.3169 27.7303C79.2114 28.2574 79.106 28.6792 79.0006 29.2064V29.3118C78.7897 30.3662 78.5788 31.3151 78.2625 32.3695C77.9462 33.3185 77.6299 34.2674 77.2081 35.0055C76.7864 35.849 76.3646 36.587 75.8374 37.3251C75.3102 38.0631 74.8885 38.6958 74.2559 39.223C73.7287 39.7502 73.0961 40.2773 72.4634 40.6991C71.8308 41.1208 71.1982 41.5426 70.4601 41.7535C69.722 42.0698 69.0894 42.2807 68.4568 42.3861C67.8242 42.9133 67.1915 42.9133 66.4535 42.9133C66.1372 42.9133 65.7154 42.9133 65.3991 42.8078C65.0828 42.8078 64.661 42.7024 64.4502 42.7024C64.1339 42.597 63.8175 42.597 63.6067 42.4915C63.2903 42.3861 63.0795 42.2807 62.8686 42.1752C62.6577 42.0698 62.4468 41.9643 62.236 41.8589C62.0251 41.7535 61.9197 41.648 61.7088 41.5426C61.4979 41.4372 61.3925 41.1208 61.4979 40.8045L63.3958 35.9544V35.849C63.6067 35.5326 63.8175 35.4272 64.1338 35.5326C64.3447 35.6381 64.4502 35.7435 64.661 35.849C64.8719 35.9544 64.9774 35.9544 65.2937 36.0598C65.5045 36.1653 65.7154 36.1653 66.0317 36.1653C66.348 36.1653 66.4535 36.1653 66.7698 36.1653C67.0861 36.1653 67.6133 36.1653 67.8242 36.0598C68.1405 35.9544 68.4568 35.849 68.6677 35.7435C68.984 35.5326 69.1949 35.4272 69.5112 35.3218C69.8275 35.1109 69.9329 35.0055 70.1438 34.6891C70.3547 34.3728 70.4601 34.2674 70.671 33.9511C70.8819 33.6348 70.9873 33.4239 71.0927 33.1076C71.3036 32.7913 71.4091 32.475 71.4091 32.2641L71.5145 32.5804ZM110.316 25.9378H115.377C115.693 25.9378 115.798 26.2541 115.693 26.5704L114.849 31.4206C114.849 31.7369 114.533 32.0532 114.322 32.0532H109.261L108.418 36.6925H114.111C114.428 36.6925 114.533 37.0088 114.428 37.3251L113.584 42.3861C113.584 42.7024 113.268 43.0187 113.057 43.0187H100.932C100.615 43.0187 100.51 42.7024 100.615 42.3861L105.149 16.7647C105.149 16.4484 105.465 16.1321 105.676 16.1321H117.485C117.802 16.1321 117.907 16.4484 117.802 16.7647L116.958 21.8257C116.958 22.1421 116.642 22.4584 116.431 22.4584H111.054L110.316 25.9378ZM138.784 42.9133H133.617C133.301 42.9133 133.196 42.597 133.196 42.2807L134.144 34.2674C134.25 33.8456 134.355 33.213 134.355 32.5804L134.461 31.9478L134.566 31.2097L134.461 31.526L134.039 32.6858L133.934 33.0021C133.723 33.4239 133.617 33.8456 133.512 34.162L130.349 41.9643C130.243 42.2807 130.032 42.3861 129.822 42.3861H125.499C125.182 42.3861 125.077 42.1752 125.077 41.9643L124.761 34.162V33.4239V32.5804V31.7369V30.8934L124.444 32.0532L124.128 33.3185L123.812 34.3728L121.914 42.3861C121.808 42.7024 121.597 42.9133 121.387 42.9133H116.431H116.326C116.009 42.8078 115.904 42.597 116.009 42.1752L122.546 16.5539C122.652 16.2375 122.863 16.0267 123.074 16.0267H129.189C129.505 16.0267 129.611 16.2375 129.611 16.4484L129.822 24.6726C129.822 26.1487 129.927 27.3085 129.927 28.3629V29.3118C129.927 29.7336 129.927 30.2608 129.927 30.7879C130.138 30.3662 130.243 29.839 130.454 29.3118C130.77 28.5738 130.981 27.8357 131.298 26.9922C131.614 26.1487 131.825 25.4106 132.141 24.6726L135.304 16.4484C135.41 16.1321 135.621 16.0267 135.831 16.0267H141.947C142.263 16.0267 142.369 16.343 142.369 16.6593L139.416 42.2807C139.311 42.597 139.1 42.9133 138.784 42.9133ZM152.491 25.9378H157.552C157.868 25.9378 157.973 26.2541 157.868 26.5704L157.024 31.4206C157.024 31.7369 156.708 32.0532 156.497 32.0532H151.436L150.593 36.6925H156.286C156.603 36.6925 156.708 37.0088 156.603 37.3251L155.759 42.3861C155.759 42.7024 155.443 43.0187 155.232 43.0187H143.107C142.79 43.0187 142.685 42.7024 142.79 42.3861L147.324 16.7647C147.324 16.4484 147.641 16.1321 147.851 16.1321H159.66C159.977 16.1321 160.082 16.4484 159.977 16.7647L159.133 21.8257C159.133 22.1421 158.817 22.4584 158.606 22.4584H153.229L152.491 25.9378ZM159.239 42.1752L163.772 16.5539C163.772 16.2375 164.089 15.9212 164.3 15.9212H170.204C170.52 15.9212 170.626 16.2375 170.52 16.5539L169.044 26.0433H172.313L174 16.6593C174 16.343 174.316 16.0267 174.527 16.0267H180.432C180.748 16.0267 180.853 16.343 180.748 16.6593L176.214 42.2807C176.214 42.597 175.898 42.9133 175.687 42.9133H169.782C169.466 42.9133 169.361 42.597 169.466 42.2807L171.153 32.7913H167.885L166.198 42.3861C166.198 42.7024 165.881 43.0187 165.67 43.0187H159.766C159.45 42.8078 159.239 42.597 159.239 42.1752ZM189.605 42.9133H183.7C183.384 42.9133 183.278 42.597 183.384 42.2807L186.863 22.7747H182.962C182.646 22.7747 182.54 22.4584 182.646 22.1421L183.595 16.6593C183.595 16.343 183.911 16.0267 184.122 16.0267H198.883C199.2 16.0267 199.305 16.343 199.2 16.6593L198.251 22.1421C198.251 22.4584 197.934 22.7747 197.723 22.7747H193.717L190.237 42.2807C190.132 42.597 189.816 42.9133 189.605 42.9133Z" fill="#141414"/>
<path fill-rule="evenodd" clip-rule="evenodd" d="M24.7001 54.6167C9.62254 54.6167 -1.34298 42.4914 0.133143 27.3084C1.71471 12.1253 14.9999 0 30.1829 0H59.7054L54.8553 27.3084C52.1139 42.2805 39.7777 54.6167 24.7001 54.6167ZM31.3428 16.7646L30.4993 19.9277C32.7135 19.9277 35.244 21.0875 36.7201 22.4582C38.5126 24.4615 39.0398 27.2029 38.5126 30.5769C37.0364 39.1174 30.0776 43.0186 22.2752 42.8077H21.9589H21.6425H21.0099H16.2652L17.6359 35.3216H22.3806H23.9622H24.173C26.9144 35.3216 28.7069 33.8455 29.1286 31.315C29.7612 26.992 25.6492 26.4648 22.486 26.8866C22.2752 26.8866 22.0643 26.8866 21.9589 26.6757C21.8534 26.5703 21.748 26.3594 21.8534 26.1485L25.0165 9.17306C25.122 8.85674 25.5437 8.54043 25.86 8.54043H43.4681L41.992 16.7646H31.3428Z" fill="#141414"/>
</svg>
