<svg width="221" height="41" viewBox="0 0 221 41" fill="none" xmlns="http://www.w3.org/2000/svg">
<path d="M5.80058 19.8477L0 40.2555H9.51424L15.3148 19.8477H5.80058Z" fill="#141414"/>
<path d="M46.972 33.1267H42.4985V19.8369H46.972V33.1267ZM49.6476 12.7135H42.4985V2.61328H33.3481V40.2447H49.6529C53.5218 40.2447 56.1224 37.6825 56.1224 33.8656V19.0927C56.1224 15.2758 53.5218 12.7135 49.6529 12.7135H49.6476Z" fill="#141414"/>
<path d="M72.6892 33.8336H68.708V28.7356H72.6839V33.8336H72.6892ZM75.3648 12.7134H61.2593V19.1297H72.6839V23.1007H66.0271C62.1262 23.1007 59.4988 25.6417 59.4988 29.4213V33.8974C59.4988 37.7089 62.1208 40.2765 66.0271 40.2765H81.8396V19.0925C81.8396 15.2757 79.239 12.7134 75.3701 12.7134H75.3648Z" fill="#141414"/>
<path d="M115.311 12.7134H85.9331V40.2499H95.0835V19.8367H99.3376V40.2499H108.434V19.8367H112.689V40.2499H121.839V19.0925C121.839 15.2757 119.217 12.7134 115.311 12.7134Z" fill="#141414"/>
<path d="M138.593 24.233H134.617V19.135H138.593V24.233ZM141.269 12.7187H131.926C128.057 12.7187 125.456 15.281 125.456 19.0978V33.8867C125.456 37.6982 128.057 40.2658 131.926 40.2658H147.299V33.8336H134.607V28.8472H147.792V19.0925C147.792 15.2757 145.17 12.7134 141.263 12.7134L141.269 12.7187Z" fill="#141414"/>
<path d="M160.656 6.44092H151.505V33.8818C151.505 37.6933 154.106 40.2609 157.975 40.2609H164.931V33.616H160.65V19.8424H164.931V12.7137H160.65V6.44092H160.656Z" fill="#141414"/>
<path d="M180.867 17.2904V40.2552H190.017V19.842H195.4V12.7134H185.453C182.66 12.7134 180.851 14.5102 180.851 17.2851L180.867 17.2904Z" fill="#141414"/>
<path d="M207.317 12.7134H198.22V33.8761C198.22 36.2576 199.061 40.2552 204.69 40.2552H221V12.7187H211.85V33.1319H207.323V12.7187L207.317 12.7134Z" fill="#141414"/>
<path d="M169.581 40.2554H176.211V33.6689H169.581V40.2554Z" fill="#141414"/>
<path d="M19.4298 0.821777H9.91553L21.1207 40.2554H30.6349L19.4298 0.821777Z" fill="#141414"/>
<path d="M22.3194 36.3057H7.64673V29.3418H22.3194V36.3057Z" fill="#141414"/>
</svg>
