<svg width="241" height="73" viewBox="0 0 241 73" fill="none" xmlns="http://www.w3.org/2000/svg">
<path fill-rule="evenodd" clip-rule="evenodd" d="M49.7395 10.6109H39.6439C38.8518 10.5952 37.5863 11.4079 35.9872 13.1639L24.3016 29.5989C19.0058 29.4102 16.5361 29.7663 12.8546 31.1148C6.09678 34.3858 2.13655 38.0472 0.215097 45.3159C-1.4551 56.3257 6.89255 58.5596 15.1599 50.8208C18.1029 47.8676 19.5736 46.0616 21.9963 42.6831L27.3224 33.9869L33.5229 35.9016L30.4226 48.5869C29.7072 53.4536 32.092 56.7246 38.054 56.4853C42.3338 55.3616 44.6219 53.8668 48.3881 48.906C51.4181 43.6581 52.8849 40.5569 54.3502 34.2262H55.2246L52.6013 44.3585C50.5627 51.2642 50.1503 54.1816 52.3628 55.5279C54.6681 56.6448 57.2119 56.4055 60.0737 54.3312C60.4549 52.915 60.6451 52.1029 60.8686 50.5814C58.4838 52.576 57.0529 52.4164 57.6094 49.9432L61.3456 34.9443C61.8461 33.2381 62.327 32.4521 63.7304 31.5137C64.1351 31.1708 64.0292 30.5904 63.4919 30.3967H49.7395C49.127 30.4808 49.0046 30.7022 49.3421 31.5137C50.8539 32.4559 51.0438 33.357 50.8524 35.2634C49.5268 40.2021 48.4188 42.7406 46.0033 46.9913C41.9492 51.2995 37.9745 52.9749 39.0874 46.6721L40.6773 39.9705C42.5662 41.4743 43.5071 42.454 45.0494 44.3585L46.0033 40.6088C44.6411 38.9714 43.6417 38.0195 41.7107 36.3006L46.2418 17.871C47.2731 14.4292 48.0865 12.9819 50.2165 11.8077C50.4422 10.9958 50.4066 10.6769 49.7395 10.6109ZM9.03849 46.1934C12.1306 46.4347 15.0518 42.4708 20.6457 34.1465H20.6453C10.5479 33.8273 5.06337 45.1563 9.03849 46.1934ZM38.6723 15.1091L29.1499 30.4765L34.4759 32.2317C35.1229 29.7694 35.7857 27.3934 36.404 25.1771C37.513 21.2014 38.4787 17.7397 38.9522 15.2158C38.9843 15.0448 38.7638 14.9613 38.6723 15.1091Z" fill="#141414"/>
<path d="M64.4449 35.8219L65.3193 32.3913C71.0429 28.6415 75.892 29.1202 74.6201 34.5454C72.6342 42.4492 70.8152 49.0888 70.7249 51.0602C70.5904 52.7034 71.9174 52.3366 74.1431 50.5815L73.1097 54.4908C67.9429 58.2404 62.4575 56.1661 64.4449 49.6241L67.6247 37.0187C68.1016 34.8645 66.9887 34.1464 64.4449 35.8219Z" fill="#141414"/>
<path d="M74.0173 26.8986C71.9804 27.8076 69.7949 27.3386 69.1358 25.851C68.4767 24.3634 69.5936 22.4205 71.6304 21.5115C73.6673 20.6025 75.8528 21.0715 76.5119 22.5591C77.1711 24.0467 76.0542 25.9895 74.0173 26.8986Z" fill="#141414"/>
<path fill-rule="evenodd" clip-rule="evenodd" d="M91.1545 29.8382L87.7363 32.5508L87.1798 35.5027C90.2005 33.588 92.2511 35.2634 91.234 41.0874C90.5507 44.9994 89.8844 47.0465 87.9747 50.342C84.8745 54.4907 82.1717 53.4535 83.2051 46.6721C84.4095 40.1463 85.3516 36.2534 87.4183 28.9606C94.0162 27.5246 99.9782 23.6951 101.886 16.036C103.396 8.29727 96.1626 7.26012 90.0416 12.3661C85.429 17.3422 83.1944 20.9795 80.1844 29.8382C77.0027 41.5005 75.9853 47.0697 77.4816 52.8153C79.6279 56.8842 85.5899 58.2683 91.234 53.4535C97.5934 48.0284 101.568 29.5191 91.1545 29.8382ZM88.3725 26.5672C91.843 17.3893 93.9075 13.5671 97.0227 12.8233C97.7384 12.6525 98.533 12.9065 98.8536 13.571C100.563 17.1141 95.3257 25.5496 88.3725 26.5672Z" fill="#141414"/>
<path fill-rule="evenodd" clip-rule="evenodd" d="M115.877 32.471C116.115 30.9954 116.428 30.4576 117.546 30.3967H123.508C124.383 30.3967 124.065 31.3541 123.508 31.9126C122.707 32.3539 122.394 32.7398 121.919 33.5082L117.626 50.4218C117.387 52.4962 118.898 52.4962 121.044 50.5814L120.249 54.4109C115.877 57.3628 111.346 56.9639 111.107 52.4164C106.735 57.7617 100.932 57.2831 99.422 52.4164C98.2303 47.1426 99.3426 43.7202 101.807 37.7366C105.304 30.3967 112.936 28.083 115.877 32.471ZM112.1 46.0814C112.749 44.3814 113.304 42.639 113.848 40.9026C115.104 36.8972 114.926 33.8282 113.079 33.7786C111.443 33.1763 108.71 36.5372 106.974 41.2855C105.238 46.0337 105.157 50.3711 106.793 50.9734C108.552 51.8542 110.704 49.7438 112.1 46.0814Z" fill="#141414"/>
<path d="M133.762 30.4764H127.323C126.601 30.6762 126.637 30.9539 127.085 31.5934C127.756 32.0934 127.926 32.4575 127.88 33.2688C124.863 46.4028 123.085 53.0726 119.931 65.1016C118.807 68.7069 117.834 69.9672 115.638 70.9256C115.003 71.2447 114.844 71.883 115.638 71.883H128.675C129.391 71.883 129.153 71.5639 128.675 71.165C125.843 69.4281 126.621 66.8452 127.085 62.8677L127.208 62.3439C130.121 49.9427 131.788 42.8426 133.762 38.6939C136.784 33.9868 139.089 34.2262 139.565 37.8163C139.225 42.5074 138.569 44.9407 136.704 48.906C134.479 51.9376 133.207 50.6611 134.001 47.8688L131.457 48.5868C128.755 57.0437 136.546 58.5595 141.553 52.0972C145.394 46.1224 146.085 42.4437 146.163 35.8218C145.369 28.8809 138.215 28.1628 134.16 34.1464C134.819 31.8073 135.075 30.6197 133.762 30.4764Z" fill="#141414"/>
<path d="M157.293 30.3169H150.934C149.821 30.3169 150.218 31.3541 150.616 31.5137C151.28 32.0333 151.597 32.3616 151.331 33.5082C150.092 39.5646 149.276 42.5905 147.833 48.0284C147.311 50.0868 147.195 51.2399 147.595 53.294C149.662 58.3202 157.134 56.2459 159.519 52.9749C163.335 47.2306 163.096 41.8055 159.837 39.0131C164.368 35.3432 167.23 34.9443 166.196 39.3322C164.289 46.8317 162.955 50.9003 163.335 53.6131C164.13 56.8842 168.82 56.9639 172.317 54.4109L173.112 50.5814C170.092 53.0546 169.297 52.1771 170.092 49.3847L173.907 33.6678C174.384 31.035 172.318 29.5191 167.627 30.8754C162.592 33.5125 160.429 35.2571 157.532 38.7738C159.782 41.9449 159.244 46.9401 157.12 51.1911C156.734 51.9634 156.192 52.6652 155.461 53.1216C153.801 54.1584 153.076 53.3552 153.478 51.1399L158.088 32.5508C158.374 31.0388 158.22 30.5194 157.293 30.3169Z" fill="#141414"/>
<path d="M195.768 30.3967C193.068 30.2709 191.903 30.4909 191.555 32.3115C190.079 30.4988 188.704 30.1443 185.514 30.3967C175.736 32.7104 170.887 54.4109 178.439 55.847C165.958 68.2131 159.837 67.3355 160.712 60.1552C151.888 61.671 156.976 81.5366 172.477 68.2131C177.809 62.909 180.252 60.1705 184.798 54.4109L185.514 51.0601C179.711 55.4481 180.426 41.965 186.15 35.1038C188.534 32.6306 191.158 34.3858 190.522 36.6995L187.262 49.7038C186.734 51.6491 186.725 52.6787 187.262 54.4109C188.614 56.8044 192.271 56.9639 196.166 54.4109L196.802 50.5814C194.099 52.7355 193.145 52.177 193.463 50.3421C195.241 43.2018 197.12 34.4656 198.074 33.1093C198.074 32.1519 201.969 30.3967 199.107 30.3967H195.768Z" fill="#141414"/>
<path d="M182.413 6.54208C192.429 16.5148 201.81 21.7005 203.638 20.1049C204.354 21.7005 199.981 20.6634 199.981 21.7005C197.963 21.6133 197.624 22.1951 198.233 24.1738C201.539 21.0068 208.618 30.5341 210.554 30.8754C208.217 29.1447 207.138 28.1568 207.136 26.2481C208.947 25.9783 209.217 24.5851 208.885 20.7432C222.34 17.1396 229.632 11.8874 241 0C240.126 4.62732 238.809 7.44437 234.8 10.6109L234.82 10.605C237.255 9.91585 238.626 9.52783 241 8.21749C239.357 12.0307 237.614 13.6603 232.653 15.3978C234.945 15.5402 236.181 15.4812 238.138 14.6798C231.938 28.1628 216.993 25.0514 212.541 28.482C215.948 31.0243 218.306 31.9664 219.696 33.9071C214.052 32.7902 210.634 32.465 204.354 34.1464L205.943 28.7213C205.148 25.2907 189.568 28.0831 185.673 16.5148C186.67 16.9399 187.277 17.0924 188.534 17.0732C185.908 15.2514 184.572 14.2169 183.924 12.2066C184.76 12.8509 185.255 13.1919 186.547 13.4831C184.434 11.0379 183.557 9.44656 182.413 6.54208Z" fill="#141414"/>
<path d="M203.521 21.646C202.691 21.8214 202.193 21.8482 201.354 21.782C201.341 21.781 201.327 21.7859 201.317 21.7955C201.075 22.0367 201.099 22.1912 201.458 22.4724C201.477 22.4873 201.505 22.4851 201.522 22.4681C201.779 22.2121 201.936 22.2096 202.188 22.5512C202.2 22.5672 202.22 22.5747 202.24 22.5695C202.992 22.3643 203.268 22.1439 203.57 21.7194C203.595 21.6842 203.563 21.6371 203.521 21.646Z" fill="#141414"/>
<path d="M10.0702 68.3252C10.3092 68.3252 10.5194 68.2942 10.7008 68.2322C10.8851 68.1701 11.0392 68.0841 11.163 67.974C11.2897 67.8612 11.3847 67.7272 11.4481 67.5721C11.5114 67.4169 11.5431 67.2463 11.5431 67.0601C11.5431 66.6736 11.4207 66.3718 11.176 66.1546C10.9341 65.9374 10.5655 65.8288 10.0702 65.8288H9.07674V68.3252H10.0702ZM10.0702 65.1814C10.4618 65.1814 10.8016 65.2266 11.0896 65.3168C11.3804 65.4043 11.6209 65.5298 11.8109 65.6934C12.001 65.857 12.1421 66.0545 12.2342 66.2858C12.3292 66.5171 12.3768 66.7752 12.3768 67.0601C12.3768 67.3422 12.3264 67.6003 12.2256 67.8344C12.1248 68.0685 11.9765 68.2702 11.7807 68.4395C11.5878 68.6087 11.3473 68.7413 11.0593 68.8372C10.7743 68.9303 10.4446 68.9769 10.0702 68.9769H9.07674V71.2448H8.2431V65.1814H10.0702Z" fill="#141414"/>
<path fill-rule="evenodd" clip-rule="evenodd" d="M16.4628 67.1177V71.4099C16.4628 71.4363 16.4415 71.4578 16.4151 71.4578H15.9359C15.9178 71.4578 15.9013 71.4475 15.8932 71.4313L15.7686 71.1811C15.7568 71.1576 15.7262 71.1491 15.7026 71.1604C11.7111 73.0671 12.101 65.2225 15.7064 67.2853C15.7283 67.2979 15.7584 67.2926 15.7724 67.2715L15.8922 67.0911C15.9011 67.0778 15.916 67.0698 15.9319 67.0698H16.4151C16.4415 67.0698 16.4628 67.0912 16.4628 67.1177ZM15.7949 68.0536L15.7949 70.4206H15.7465C12.6468 72.5747 12.8546 65.8197 15.7949 68.0536Z" fill="#141414"/>
<path fill-rule="evenodd" clip-rule="evenodd" d="M57.6405 67.1177V71.4099C57.6405 71.4363 57.6191 71.4578 57.5928 71.4578H57.1135C57.0954 71.4578 57.0789 71.4475 57.0708 71.4313L56.9462 71.1811C56.9345 71.1576 56.9038 71.1491 56.8802 71.1604C52.8887 73.067 53.2786 65.2225 56.884 67.2853C56.9059 67.2979 56.936 67.2926 56.95 67.2715L57.0698 67.0911C57.0787 67.0778 57.0936 67.0698 57.1095 67.0698H57.5928C57.6191 67.0698 57.6405 67.0912 57.6405 67.1177ZM56.9727 68.0536V70.3672L56.9241 70.4206C53.8245 72.5747 54.0324 65.8197 56.9727 68.0536Z" fill="#141414"/>
<path d="M18.1386 66.8474V67.5774C18.378 67.0438 19.0277 66.8474 19.6107 66.8474V67.4153C19.2359 67.4153 18.6981 67.463 18.4743 67.7093C18.2505 67.9497 18.1386 68.3132 18.1386 68.7999V71.2448H17.6233V66.8474H18.1386Z" fill="#141414"/>
<path d="M59.3162 66.8474V67.5774C59.5557 67.0438 60.2053 66.8474 60.7883 66.8474V67.4153C60.4135 67.4153 59.8758 67.463 59.652 67.7093C59.4282 67.9497 59.3162 68.3132 59.3162 68.7999V71.2448H58.801V66.8474H59.3162Z" fill="#141414"/>
<path d="M76.8048 66.8474V67.5774C77.0442 67.0438 77.6939 66.8474 78.2769 66.8474V67.4153C77.9021 67.4153 77.3643 67.463 77.1405 67.7093C76.9167 67.9497 76.8048 68.3132 76.8048 68.7999V71.2448H76.2895V66.8474H76.8048Z" fill="#141414"/>
<path d="M91.9086 66.8474V67.5774C92.148 67.0438 92.7977 66.8474 93.3806 66.8474V67.4153C93.0059 67.4153 92.4681 67.463 92.2443 67.7093C92.0205 67.9497 91.9086 68.3132 91.9086 68.7999V71.2448H91.3933V66.8474H91.9086Z" fill="#141414"/>
<path d="M22.4724 67.031V67.5848H21.3164V70.2065C21.3164 70.443 21.3621 70.6131 21.4537 70.717C21.5452 70.815 21.6825 70.8669 21.8655 70.8727C22.0486 70.8727 22.2774 70.8669 22.5519 70.8554V71.3572C21.9399 71.4495 21.4851 71.4063 21.1877 71.2275C20.8959 71.0429 20.6441 70.7025 20.6441 70.2065V67.5848H20.0081V67.031H20.6441V65.9927H21.3164V67.031H22.4724Z" fill="#141414"/>
<path d="M37.4172 67.031V67.5848H36.4201V70.2065C36.4201 70.443 36.4659 70.6131 36.5574 70.717C36.6489 70.815 36.7862 70.8669 36.9693 70.8727C37.1523 70.8727 37.3811 70.8669 37.6557 70.8554V71.3572C37.0436 71.4495 36.5889 71.4063 36.2914 71.2275C35.9997 71.0429 35.7478 70.7025 35.7478 70.2065V67.5848H35.0324V67.031H35.7478V65.9927H36.4201V67.031H37.4172Z" fill="#141414"/>
<path d="M27.4051 66.777C27.7096 66.777 27.9839 66.8318 28.2281 66.9412C28.4722 67.0506 28.6807 67.2059 28.8535 67.407C29.0263 67.6082 29.158 67.8522 29.2485 68.1391C29.3417 68.423 29.3884 68.741 29.3884 69.0929C29.3884 69.4479 29.3417 69.7673 29.2485 70.0512C29.158 70.3352 29.0263 70.5777 28.8535 70.7788C28.6807 70.9799 28.4722 71.1352 28.2281 71.2447C27.9839 71.3511 27.7096 71.4044 27.4051 71.4044C27.0979 71.4044 26.8209 71.3511 26.574 71.2447C26.3299 71.1352 26.1214 70.9799 25.9486 70.7788C25.7758 70.5777 25.6427 70.3352 25.5495 70.0512C25.459 69.7673 25.4137 69.4479 25.4137 69.0929C25.4137 68.741 25.459 68.423 25.5495 68.1391C25.6427 67.8522 25.7758 67.6082 25.9486 67.407C26.1214 67.2059 26.3299 67.0506 26.574 66.9412C26.8209 66.8318 27.0979 66.777 27.4051 66.777ZM27.4051 70.7877C27.8166 70.7877 28.1238 70.6398 28.3268 70.344C28.5298 70.0453 28.6313 69.6298 28.6313 69.0974C28.6313 68.562 28.5298 68.145 28.3268 67.8463C28.1238 67.5475 27.8166 67.3982 27.4051 67.3982C27.1967 67.3982 27.0143 67.4366 26.8579 67.5135C26.7043 67.5904 26.5754 67.7013 26.4711 67.8463C26.3696 67.9912 26.2928 68.1701 26.2407 68.3831C26.1913 68.5931 26.1667 68.8312 26.1667 69.0974C26.1667 69.6298 26.2682 70.0453 26.4711 70.344C26.6769 70.6398 26.9882 70.7877 27.4051 70.7877Z" fill="#141414"/>
<path d="M95.4516 66.777C95.756 66.777 96.0303 66.8318 96.2745 66.9412C96.5186 67.0506 96.7271 67.2059 96.8999 67.407C97.0727 67.6082 97.2044 67.8522 97.2949 68.1391C97.3881 68.423 97.4348 68.741 97.4348 69.0929C97.4348 69.4479 97.3881 69.7673 97.2949 70.0512C97.2044 70.3352 97.0727 70.5777 96.8999 70.7788C96.7271 70.9799 96.5186 71.1352 96.2745 71.2447C96.0303 71.3511 95.756 71.4044 95.4516 71.4044C95.1443 71.4044 94.8673 71.3511 94.6204 71.2447C94.3763 71.1352 94.1678 70.9799 93.995 70.7788C93.8222 70.5777 93.6892 70.3352 93.5959 70.0512C93.5054 69.7673 93.4601 69.4479 93.4601 69.0929C93.4601 68.741 93.5054 68.423 93.5959 68.1391C93.6892 67.8522 93.8222 67.6082 93.995 67.407C94.1678 67.2059 94.3763 67.0506 94.6204 66.9412C94.8673 66.8318 95.1443 66.777 95.4516 66.777ZM95.4516 70.7877C95.863 70.7877 96.1702 70.6398 96.3732 70.344C96.5762 70.0453 96.6777 69.6298 96.6777 69.0974C96.6777 68.562 96.5762 68.145 96.3732 67.8463C96.1702 67.5475 95.863 67.3982 95.4516 67.3982C95.2431 67.3982 95.0607 67.4366 94.9043 67.5135C94.7507 67.5904 94.6218 67.7013 94.5175 67.8463C94.4161 67.9912 94.3393 68.1701 94.2871 68.3831C94.2378 68.5931 94.2131 68.8312 94.2131 69.0974C94.2131 69.6298 94.3146 70.0453 94.5175 70.344C94.7233 70.6398 95.0346 70.7877 95.4516 70.7877Z" fill="#141414"/>
<path d="M30.5304 71.4044V67.5749H29.8653V66.9366H30.5304V66.6362C30.5304 66.1726 30.5781 65.7537 30.8192 65.5005C31.0604 65.2474 31.4743 65.1814 31.9151 65.1814C32.0811 65.1814 32.2458 65.2041 32.4091 65.2494V65.8129C32.2872 65.7889 32.1187 65.8129 31.9813 65.8129C31.7479 65.8129 31.5677 65.8835 31.4406 66.0247C31.3136 66.1633 31.25 66.3631 31.25 66.6243V66.9366H32.3296V67.5749H31.25V71.4044H30.5304Z" fill="#141414"/>
<path d="M38.9276 67.3539C39.2799 66.9251 39.7383 66.7108 40.3026 66.7108C41.2852 66.7108 41.7808 67.2602 41.7893 68.3591V71.4044H40.9944V68.3548C40.9916 68.0226 40.9142 67.777 40.7624 67.618C40.6134 67.459 40.38 67.3795 40.062 67.3795C39.8042 67.3795 39.5779 67.4476 39.3831 67.5839C39.1883 67.7202 39.0364 67.8991 38.9276 68.1206V71.4044H38.1326V64.8623H38.9276V67.3539Z" fill="#141414"/>
<path fill-rule="evenodd" clip-rule="evenodd" d="M46.0029 70.7661V71.2448C43.5355 71.606 42.8228 71.165 42.6642 69.1705C42.3926 67.2648 43.9727 66.6597 45.1299 66.9747C46.1278 67.2464 46.431 68.7957 45.5257 69.2971C45.1033 69.5311 44.4387 69.616 43.3792 69.5694C43.5382 70.6066 44.0152 71.0852 46.0029 70.7661ZM45.3281 68.5959C46.0234 67.1617 42.9482 66.8555 43.3792 69.0907H44.3576C44.7481 69.0907 45.1572 68.9484 45.3281 68.5959Z" fill="#141414"/>
<path fill-rule="evenodd" clip-rule="evenodd" d="M75.3665 70.7661V71.2448C72.8991 71.606 72.1863 71.165 72.0277 69.1705C71.7562 67.2648 73.3362 66.6597 74.4934 66.9747C75.4913 67.2464 75.7945 68.7957 74.8892 69.2971C74.4669 69.5311 73.8022 69.616 72.7427 69.5694C72.9017 70.6066 73.3787 71.0852 75.3665 70.7661ZM74.6916 68.5959C75.3869 67.1617 72.3118 66.8555 72.7427 69.0907H73.7211C74.1117 69.0907 74.5208 68.9484 74.6916 68.5959Z" fill="#141414"/>
<path d="M62.2192 65.2612H61.5832V70.6066C61.7422 71.165 61.9733 71.4554 63.0936 71.3246V70.9257C62.4355 70.8838 62.3013 70.7327 62.2192 70.3672V65.2612Z" fill="#141414"/>
<path d="M64.9114 71.4044C64.6124 71.4044 64.325 71.3525 64.0494 71.2487C63.7784 71.1391 63.5658 71.0036 63.4116 70.8422L63.6359 70.3578C63.79 70.5077 63.984 70.6317 64.2176 70.7297C64.4512 70.822 64.6942 70.8681 64.9465 70.8681C65.2829 70.8681 65.5305 70.8047 65.6894 70.6778C65.8529 70.5452 65.9347 70.3607 65.9347 70.1243C65.9347 69.9571 65.8903 69.8273 65.8015 69.7351C65.7128 69.6371 65.6006 69.565 65.4651 69.5188C65.3296 69.4669 65.1497 69.4179 64.9255 69.3718C64.6264 69.3026 64.3858 69.2334 64.2036 69.1642C64.0213 69.0893 63.8648 68.9653 63.734 68.7923C63.6078 68.6193 63.5447 68.38 63.5447 68.0744C63.5447 67.6939 63.6732 67.3825 63.9302 67.1403C64.1872 66.8981 64.5446 66.777 65.0025 66.777C65.2408 66.777 65.4791 66.8174 65.7174 66.8981C65.9557 66.9731 65.9602 66.9693 66.1143 67.0962V67.6546C65.8106 67.3952 65.4231 67.3046 65.0025 67.3046C64.6848 67.3046 64.4442 67.3738 64.2807 67.5122C64.1218 67.6506 64.0424 67.8323 64.0424 68.0571C64.0424 68.2301 64.0867 68.3685 64.1755 68.4723C64.269 68.5761 64.3835 68.6539 64.519 68.7058C64.6545 68.752 64.8414 68.801 65.0797 68.8529C65.374 68.9221 65.61 68.9912 65.7875 69.0604C65.9651 69.1296 66.1169 69.2478 66.2431 69.4151C66.3692 69.5823 66.4323 69.8129 66.4323 70.107C66.4323 70.5049 66.2968 70.822 66.0258 71.0584C65.7595 71.289 65.388 71.4044 64.9114 71.4044Z" fill="#141414"/>
<path d="M69.1803 66.9748C69.5371 66.9748 69.8568 67.0642 70.1394 67.2431C70.4221 67.4221 70.6422 67.672 70.7997 67.993C70.9619 68.3139 71.0429 68.6849 71.0429 69.1059C71.0429 69.5268 70.9619 69.9004 70.7997 70.2266C70.6422 70.5476 70.4221 70.7975 70.1394 70.9765C69.8568 71.1554 69.5371 71.2448 69.1803 71.2448C68.9069 71.2448 68.6567 71.1843 68.4297 71.0633C68.2026 70.9423 68.015 70.766 67.8667 70.5345V71.1975H67.2273V65.341H67.8945V67.6457C68.0428 67.4247 68.2281 67.2589 68.4505 67.1484C68.6729 67.0327 68.9162 66.9748 69.1803 66.9748ZM69.1247 70.5818C69.361 70.5818 69.5718 70.5213 69.7571 70.4003C69.9471 70.274 70.0954 70.1003 70.202 69.8793C70.3132 69.6531 70.3688 69.3953 70.3688 69.1059C70.3688 68.8165 70.3132 68.5612 70.202 68.3402C70.0954 68.114 69.9471 67.9403 69.7571 67.8193C69.5718 67.6983 69.361 67.6378 69.1247 67.6378C68.893 67.6378 68.6822 67.6983 68.4922 67.8193C68.3022 67.9403 68.154 68.114 68.0474 68.3402C67.9408 68.5612 67.9427 68.8013 67.9427 69.0907C67.9427 69.3801 67.9408 69.6531 68.0474 69.8793C68.154 70.1003 68.3022 70.274 68.4922 70.4003C68.6822 70.5213 68.893 70.5818 69.1247 70.5818Z" fill="#141414"/>
<path d="M101.072 69.2445V66.9366H101.727V71.2912H101.072V70.6641C100.81 71.1576 100.404 71.4044 99.8508 71.4044C99.4087 71.4044 99.0544 71.2447 98.7881 70.9254C98.5219 70.6002 98.3887 70.1619 98.3887 69.6103V66.9366H99.0444V69.5668C99.0444 69.9151 99.1273 70.188 99.2931 70.3854C99.4589 70.5828 99.6875 70.6815 99.9789 70.6815C100.316 70.6815 100.582 70.5625 100.778 70.3244C100.974 70.0806 101.072 69.7206 101.072 69.2445Z" fill="#141414"/>
<path d="M104.824 66.9366C105.287 66.9366 105.682 67.1434 106.008 67.557C106.334 67.9705 106.497 68.47 106.497 69.0555C106.497 69.6463 106.334 70.1485 106.008 70.562C105.686 70.9702 105.291 71.1743 104.824 71.1743C104.278 71.1743 103.861 70.9084 103.575 70.3767V72.6809H102.999V67.0413H103.575V67.7342C103.861 67.2025 104.278 66.9366 104.824 66.9366ZM104.751 70.4976C105.082 70.4976 105.36 70.3606 105.585 70.0867C105.809 69.802 105.922 69.4583 105.922 69.0555C105.922 68.6473 105.809 68.3062 105.585 68.0323C105.36 67.753 105.082 67.6134 104.751 67.6134C104.416 67.6134 104.137 67.753 103.912 68.0323C103.687 68.3062 103.575 68.6473 103.575 69.0555C103.575 69.4583 103.687 69.802 103.912 70.0867C104.137 70.3606 104.416 70.4976 104.751 70.4976Z" fill="#141414"/>
<path d="M53.4506 70.2737L53.7134 70.8552C53.533 71.0733 53.2883 71.2459 52.9792 71.3731C52.67 71.5003 52.3454 71.5639 52.0054 71.5639C51.1913 71.5639 50.5292 71.2671 50.0191 70.6735C49.5142 70.0738 49.2617 69.2803 49.2617 68.2929C49.2617 67.354 49.5039 66.5756 49.9882 65.9577C50.4777 65.3338 51.1346 65.0219 51.959 65.0219C52.6494 65.0219 53.1981 65.2278 53.6052 65.6397L53.3038 66.2212C52.9431 65.9062 52.4974 65.7488 51.9667 65.7488C51.3794 65.7488 50.8976 65.985 50.5215 66.4575C50.1454 66.93 49.9573 67.5418 49.9573 68.2929C49.9573 69.0501 50.1505 69.6649 50.5369 70.1374C50.9285 70.6038 51.4386 70.837 52.0672 70.837C52.5979 70.837 53.059 70.6493 53.4506 70.2737Z" fill="#141414"/>
<path d="M89.3852 68.2929H89.9624V70.5445C89.7459 70.8104 89.4598 71.0202 89.1038 71.1739C88.7479 71.3275 88.404 71.4044 88.0721 71.4044C87.288 71.4044 86.6085 71.1857 86.1467 70.6066C85.685 70.0274 85.5108 69.1823 85.5108 68.2131C85.5108 67.303 85.7392 66.5436 86.1962 65.9349C86.6531 65.3262 87.252 65.0219 87.9927 65.0219C88.6372 65.0219 89.1663 65.2228 89.58 65.6246L89.313 66.2274C89.0148 65.8965 88.5988 65.731 88.0649 65.731C87.4973 65.731 87.0379 65.9585 86.6868 66.4136C86.3357 66.8687 86.1601 67.4685 86.1601 68.2131C86.1601 68.9637 86.193 69.593 86.5442 70.0481C86.9001 70.4972 87.5093 70.8548 88.0865 70.8548C88.327 70.8548 88.5699 70.8045 88.8152 70.7041C89.0605 70.5977 89.2505 70.4647 89.3852 70.3052V68.2929Z" fill="#141414"/>
<path d="M89.382 69.3301H89.9544V71.2448H89.382V69.3301Z" fill="#141414"/>
<path d="M78.6743 69.116C78.6743 68.4462 78.8241 67.9162 79.1236 67.5259C79.4257 67.1331 79.8349 66.9366 80.351 66.9366C80.942 66.9366 81.3912 67.1687 81.6987 67.6327L81.7228 67.0157H82.172V71.2083C82.172 71.7594 82.0156 72.1958 81.7027 72.5175C81.3899 72.8391 80.966 73 80.4312 73C80.129 73 79.8402 72.9328 79.5648 72.7983C79.292 72.6664 79.0768 72.4898 78.919 72.2683L79.1878 71.9835C79.5274 72.3948 79.9311 72.6005 80.3991 72.6005C80.8002 72.6005 81.1131 72.4832 81.3377 72.2485C81.5623 72.0165 81.6787 71.6935 81.6867 71.2795V70.7416C81.3792 71.1635 80.9313 71.3744 80.343 71.3744C79.8402 71.3744 79.4364 71.1766 79.1316 70.7811C78.8267 70.3856 78.6743 69.8516 78.6743 69.1792V69.116ZM79.1597 69.199C79.1597 69.7448 79.2706 70.176 79.4926 70.4924C79.7145 70.8062 80.0274 70.9631 80.4312 70.9631C81.0222 70.9631 81.4407 70.702 81.6867 70.1799V68.1904C81.5744 67.9162 81.4126 67.7079 81.2013 67.5655C80.9901 67.4205 80.736 67.348 80.4392 67.348C80.0354 67.348 79.7212 67.5048 79.4966 67.8186C79.272 68.1298 79.1597 68.5899 79.1597 69.199Z" fill="#141414"/>
</svg>
