<svg width="374" height="39" viewBox="0 0 374 39" fill="none" xmlns="http://www.w3.org/2000/svg">
<path d="M0.558594 38.0218V10.9172C0.558594 6.96697 3.76092 3.76465 7.71119 3.76465H43.2859C42.3983 8.86851 36.4819 10.4551 29.2834 12.3855C18.1643 15.3673 3.98631 19.1694 0.558594 38.0218Z" fill="#141414"/>
<path d="M33.6864 19.5757C40.6508 29.5516 26.9103 39.1512 10.911 38.21C13.298 21.3928 24.7535 18.5222 35.9403 15.719C44.1608 13.6591 52.2362 11.6355 56.4618 4.1411V31.0575C56.4618 35.0077 53.2595 38.21 49.3092 38.21H33.6864C54.2031 28.2341 45.9211 16.3758 33.6864 19.5757Z" fill="#141414"/>
<path fill-rule="evenodd" clip-rule="evenodd" d="M299.148 16.3552C297.487 14.1257 295.269 13.0109 292.492 13.0109C289.62 13.0109 287.184 14.3942 285.183 17.1608C285.523 14.6546 286.251 12.6529 287.368 11.1557C288.497 9.64226 290.185 8.56818 292.431 7.9335L295.248 7.17677C296.936 6.70483 298.161 5.89927 298.923 4.7601C299.699 3.62093 300.087 2.03423 300.087 0H296.984C296.984 1.02525 296.65 1.83081 295.983 2.41667C295.316 3.00253 294.03 3.49888 292.125 3.90572C288.763 4.62177 286.217 6.61532 284.489 9.88636C282.774 13.1574 281.916 17.5676 281.916 23.117V25.314C281.916 29.3011 282.821 32.4826 284.632 34.8586C286.442 37.2183 288.831 38.3981 291.798 38.3981C293.758 38.3981 295.487 37.8611 296.984 36.787C298.495 35.6967 299.651 34.1751 300.455 32.2222C301.258 30.2531 301.659 28.0236 301.659 25.5337V25.1187C301.659 21.4896 300.822 18.5685 299.148 16.3552ZM287.347 18.9672C288.436 17.47 289.906 16.7214 291.757 16.7214C293.649 16.7214 295.139 17.4781 296.228 18.9916C297.331 20.4888 297.882 22.4823 297.882 24.9722C297.882 28.1619 297.338 30.5867 296.249 32.2466C295.16 33.9066 293.676 34.7365 291.798 34.7365C289.933 34.7365 288.45 33.9147 287.347 32.271C286.258 30.6111 285.714 28.3653 285.714 25.5337V25.1431C285.714 22.5067 286.258 20.4481 287.347 18.9672ZM103.512 34.883C105.39 37.2264 107.826 38.3981 110.821 38.3981C114.523 38.3981 117.3 36.6975 119.151 33.2963L116.844 31.1481C116.15 32.2222 115.34 33.0847 114.414 33.7357C113.489 34.3866 112.359 34.7121 111.025 34.7121C109.147 34.7121 107.595 33.9147 106.37 32.3199C105.159 30.7088 104.526 28.6013 104.471 25.9975H119.437V24.1178C119.437 19.9029 118.64 16.6644 117.048 14.4024C115.455 12.1403 113.223 11.0093 110.351 11.0093C108.596 11.0093 106.962 11.5951 105.451 12.7668C103.954 13.9223 102.784 15.5334 101.94 17.6002C101.109 19.6507 100.694 21.986 100.694 24.6061V25.436C100.694 29.3743 101.633 32.5233 103.512 34.883ZM106.513 16.7214C107.547 15.3869 108.827 14.7197 110.351 14.7197C111.93 14.7197 113.182 15.3544 114.108 16.6237C115.034 17.8768 115.551 19.6507 115.66 21.9453V22.287H104.594C104.839 19.8948 105.479 18.0396 106.513 16.7214ZM141.936 37.9099V11.4975H127.011L126.603 22.7997C126.453 26.9332 126.113 29.7649 125.582 31.2946C125.051 32.8244 124.173 33.6706 122.948 33.8333L121.866 33.931V37.9099H123.377C125.609 37.8286 127.236 36.8114 128.257 34.8586C129.291 32.9057 129.931 29.6591 130.176 25.1187L130.625 15.2323H138.138V37.9099H141.936ZM163.42 11.4975H167.197V37.9099H163.42V18.6498L153.232 37.9099H149.455V11.4975H153.232V30.782L163.42 11.4975ZM189.038 37.9099H192.815V11.4975H189.038V22.9461H178.891V11.4975H175.094V37.9099H178.891V26.6322H189.038V37.9099ZM199.89 37.9099V11.4975H206.356C209.296 11.4975 211.549 12.1159 213.114 13.3527C214.693 14.5732 215.482 16.3715 215.482 18.7475C215.482 19.968 215.176 21.0746 214.564 22.0673C213.951 23.0438 213.046 23.7924 211.848 24.3131C213.182 24.6874 214.251 25.4198 215.054 26.5101C215.87 27.6004 216.279 28.9024 216.279 30.4158C216.279 32.8406 215.53 34.6958 214.033 35.9815C212.549 37.2671 210.446 37.9099 207.724 37.9099H199.89ZM203.842 26.3148L203.466 34.2572L207.765 34.2727C209.344 34.2727 210.521 33.9228 211.297 33.2231C212.086 32.5233 212.481 31.5387 212.481 30.2694C212.481 27.633 210.861 26.3148 207.622 26.3148H203.842ZM203.842 22.9461L206.397 22.702C209.936 22.702 211.705 21.4652 211.705 18.9916C211.705 16.518 210.031 15.2405 206.683 15.1591H203.842V22.9461ZM223.892 34.883C225.77 37.2264 228.206 38.3981 231.201 38.3981C234.903 38.3981 237.68 36.6975 239.531 33.2963L237.224 31.1481C236.529 32.2222 235.719 33.0847 234.794 33.7357C233.868 34.3866 232.739 34.7121 231.405 34.7121C229.526 34.7121 227.975 33.9147 226.75 32.3199C225.538 30.7088 224.906 28.6013 224.851 25.9975H239.816V24.1178C239.816 19.9029 239.02 16.6644 237.428 14.4024C235.835 12.1403 233.603 11.0093 230.731 11.0093C228.975 11.0093 227.342 11.5951 225.831 12.7668C224.334 13.9223 223.163 15.5334 222.319 17.6002C221.489 19.6507 221.074 21.986 221.074 24.6061V25.436C221.074 29.3743 222.013 32.5233 223.892 34.883ZM226.893 16.7214C227.927 15.3869 229.207 14.7197 230.731 14.7197C232.31 14.7197 233.562 15.3544 234.488 16.6237C235.413 17.8768 235.93 19.6507 236.039 21.9453V22.287H224.974C225.219 19.8948 225.858 18.0396 226.893 16.7214ZM280.625 15.1591H273.214V37.9099H269.437V15.1591H262.169V11.4975H280.625V15.1591ZM320.297 37.9099C320.079 37.3892 319.902 36.4616 319.766 35.1271C318.01 37.3078 315.914 38.3981 313.478 38.3981C311.3 38.3981 309.51 37.6658 308.108 36.2012C306.72 34.7203 306.026 32.8488 306.026 30.5867C306.026 27.8364 306.897 25.7045 308.639 24.1911C310.395 22.6613 312.858 21.8965 316.03 21.8965H319.705V19.8215C319.705 18.243 319.31 16.9899 318.521 16.0623C317.731 15.1184 316.567 14.6465 315.029 14.6465C313.682 14.6465 312.552 15.0533 311.64 15.867C310.728 16.6807 310.272 17.6653 310.272 18.8207H306.475C306.475 17.5025 306.863 16.2332 307.639 15.0126C308.428 13.7758 309.49 12.7994 310.824 12.0833C312.171 11.3673 313.648 11.0093 315.254 11.0093C317.799 11.0093 319.793 11.7741 321.236 13.3039C322.679 14.8173 323.427 16.9085 323.482 19.5774V31.734C323.482 34.1588 323.74 36.0873 324.258 37.5194V37.9099H320.297ZM314.029 34.468C315.213 34.468 316.336 34.1018 317.398 33.3695C318.459 32.6372 319.228 31.6852 319.705 30.5135V25.0943H316.744C312.117 25.0943 309.803 26.7135 309.803 29.952C309.803 31.3678 310.198 32.4745 310.987 33.2719C311.776 34.0693 312.79 34.468 314.029 34.468ZM343.674 37.9099H347.451V11.4975H343.674V22.9461H333.527V11.4975H329.729V37.9099H333.527V26.6322H343.674V37.9099ZM361.545 26.6566H358.788V37.9099H354.991V11.4975H358.788V22.6776H361.259L368.69 11.4975H373.264L364.526 24.1911L373.999 37.9099H369.201L361.545 26.6566ZM94.8595 3.57631L94.2948 7.34084L80.9307 6.02325V16.7521C99.9416 8.47019 102.765 36.7041 87.3304 38.3982H80.9307H76.7897V3.57631H94.8595ZM81.1192 19.5757V35.9514C89.3637 35.9181 92.7188 34.6919 92.0363 26.1636C90.9438 18.5858 88.824 16.722 81.1192 19.5757ZM260.311 11.8585L259.558 16.1877C254.099 11.8585 248.452 14.2172 248.452 23.3403C247.498 33.1546 250.285 37.4169 261.628 33.6928L262.381 35.3868C258.029 39.2881 251.764 40.3184 247.494 36.1888C245.081 33.8546 244.457 30.2721 244.553 26.9158C245.051 9.46669 256.335 9.78383 260.311 11.8585Z" fill="#141414"/>
</svg>
