<svg width="334" height="36" viewBox="0 0 334 36" fill="none" xmlns="http://www.w3.org/2000/svg">
<path d="M0.558594 35.0436V8.6647C0.558594 4.8202 3.67518 1.70361 7.51968 1.70361H42.1419C41.2781 6.67082 35.52 8.21494 28.5143 10.0936C17.6929 12.9956 3.89453 16.6959 0.558594 35.0436Z" fill="#141414"/>
<path d="M32.7994 17.0913C39.5773 26.8002 26.2047 36.1427 10.6339 35.2267C12.9569 18.8598 24.1056 16.0661 34.993 13.3379C42.9933 11.3331 50.8525 9.36374 54.965 2.06999V28.2657C54.965 32.1102 51.8484 35.2267 48.0039 35.2267H32.7994C52.7667 25.5179 44.7065 13.9771 32.7994 17.0913Z" fill="#141414"/>
<path fill-rule="evenodd" clip-rule="evenodd" d="M268.708 14.2665C267.259 12.3217 265.324 11.3493 262.902 11.3493C260.397 11.3493 258.272 12.5559 256.526 14.9692C256.823 12.783 257.458 11.037 258.432 9.73102C259.417 8.41083 260.89 7.47393 262.849 6.92031L265.306 6.26022C266.779 5.84855 267.847 5.14587 268.512 4.15218C269.189 3.1585 269.527 1.77444 269.527 0H266.82C266.82 0.894316 266.529 1.59699 265.947 2.10803C265.366 2.61907 264.244 3.05203 262.582 3.40692C259.649 4.03152 257.429 5.77047 255.921 8.62377C254.425 11.4771 253.677 15.324 253.677 20.1647V22.0811C253.677 25.559 254.467 28.3342 256.046 30.4068C257.625 32.4651 259.708 33.4943 262.297 33.4943C264.006 33.4943 265.514 33.0258 266.82 32.0889C268.138 31.1378 269.147 29.8105 269.848 28.1071C270.548 26.3894 270.898 24.4447 270.898 22.2727V21.9108C270.898 18.7452 270.168 16.1971 268.708 14.2665ZM258.414 16.5449C259.364 15.2389 260.646 14.5859 262.261 14.5859C263.911 14.5859 265.211 15.246 266.161 16.5661C267.123 17.8721 267.604 19.6111 267.604 21.783C267.604 24.5653 267.129 26.6804 266.179 28.1284C265.229 29.5763 263.935 30.3003 262.297 30.3003C260.67 30.3003 259.376 29.5834 258.414 28.1497C257.464 26.7017 256.989 24.7428 256.989 22.2727V21.932C256.989 19.6324 257.464 17.8366 258.414 16.5449ZM98.0566 30.4281C99.6951 32.4722 101.82 33.4943 104.432 33.4943C107.662 33.4943 110.084 32.0109 111.698 29.044L109.686 27.1702C109.08 28.1071 108.374 28.8594 107.567 29.4273C106.759 29.9951 105.774 30.279 104.61 30.279C102.972 30.279 101.618 29.5834 100.55 28.1923C99.4932 26.7869 98.9412 24.9486 98.8937 22.6773H111.948V21.0377C111.948 17.3611 111.253 14.5362 109.864 12.563C108.475 10.5898 106.528 9.60326 104.023 9.60326C102.491 9.60326 101.066 10.1143 99.7485 11.1364C98.4425 12.1442 97.4214 13.5496 96.6853 15.3524C95.9611 17.1411 95.599 19.1781 95.599 21.4636V22.1876C95.599 25.6229 96.4182 28.3697 98.0566 30.4281ZM100.675 14.5859C101.577 13.4218 102.693 12.8398 104.023 12.8398C105.4 12.8398 106.492 13.3935 107.3 14.5007C108.107 15.5938 108.558 17.1411 108.653 19.1426V19.4407H99.0005C99.2142 17.354 99.7722 15.7357 100.675 14.5859ZM131.573 33.0684V10.0291H118.555L118.199 19.8879C118.068 23.4936 117.771 25.9636 117.308 27.2979C116.845 28.6323 116.079 29.3705 115.011 29.5124L114.067 29.5976V33.0684H115.385C117.332 32.9974 118.751 32.1102 119.641 30.4068C120.544 28.7033 121.102 25.8713 121.315 21.9108L121.707 13.287H128.261V33.0684H131.573ZM150.314 10.0291H153.609V33.0684H150.314V16.268L141.427 33.0684H138.133V10.0291H141.427V26.8508L150.314 10.0291ZM172.66 33.0684H175.955V10.0291H172.66V20.0157H163.809V10.0291H160.497V33.0684H163.809V23.2309H172.66V33.0684ZM182.126 33.0684V10.0291H187.767C190.331 10.0291 192.296 10.5685 193.662 11.6474C195.039 12.7121 195.727 14.2807 195.727 16.3532C195.727 17.4179 195.46 18.3832 194.926 19.2491C194.392 20.1008 193.602 20.7538 192.557 21.2081C193.721 21.5346 194.653 22.1734 195.353 23.1245C196.066 24.0756 196.422 25.2112 196.422 26.5314C196.422 28.6465 195.769 30.2648 194.463 31.3862C193.169 32.5077 191.334 33.0684 188.96 33.0684H182.126ZM185.574 22.9541L185.245 29.8822L188.996 29.8957C190.373 29.8957 191.4 29.5905 192.077 28.9801C192.765 28.3697 193.109 27.5109 193.109 26.4036C193.109 24.104 191.697 22.9541 188.871 22.9541H185.574ZM185.574 20.0157L187.802 19.8027C190.889 19.8027 192.433 18.7239 192.433 16.5661C192.433 14.4084 190.972 13.2941 188.052 13.2231H185.574V20.0157ZM203.063 30.4281C204.701 32.4722 206.826 33.4943 209.438 33.4943C212.668 33.4943 215.09 32.0109 216.704 29.044L214.692 27.1702C214.086 28.1071 213.38 28.8594 212.573 29.4273C211.765 29.9951 210.78 30.279 209.616 30.279C207.978 30.279 206.624 29.5834 205.556 28.1923C204.499 26.7869 203.947 24.9486 203.9 22.6773H216.954V21.0377C216.954 17.3611 216.259 14.5362 214.87 12.563C213.481 10.5898 211.534 9.60326 209.029 9.60326C207.497 9.60326 206.072 10.1143 204.754 11.1364C203.448 12.1442 202.427 13.5496 201.691 15.3524C200.967 17.1411 200.605 19.1781 200.605 21.4636V22.1876C200.605 25.6229 201.424 28.3697 203.063 30.4281ZM205.68 14.5859C206.583 13.4218 207.699 12.8398 209.029 12.8398C210.406 12.8398 211.498 13.3935 212.305 14.5007C213.113 15.5938 213.564 17.1411 213.659 19.1426V19.4407H204.006C204.22 17.354 204.778 15.7357 205.68 14.5859ZM252.551 13.2231H246.086V33.0684H242.791V13.2231H236.451V10.0291H252.551V13.2231ZM287.156 33.0684C286.966 32.6142 286.812 31.805 286.693 30.641C285.161 32.5432 283.333 33.4943 281.208 33.4943C279.308 33.4943 277.747 32.8555 276.524 31.5779C275.313 30.2861 274.707 28.6536 274.707 26.6804C274.707 24.2814 275.467 22.4218 276.987 21.1016C278.519 19.7672 280.667 19.1 283.434 19.1H286.639V17.2901C286.639 15.9132 286.295 14.8201 285.607 14.011C284.918 13.1876 283.903 12.7759 282.561 12.7759C281.386 12.7759 280.4 13.1308 279.605 13.8406C278.809 14.5504 278.412 15.4092 278.412 16.4171H275.099C275.099 15.2673 275.438 14.16 276.114 13.0953C276.803 12.0165 277.729 11.1648 278.893 10.5402C280.068 9.91556 281.356 9.60326 282.757 9.60326C284.977 9.60326 286.717 10.2704 287.975 11.6048C289.234 12.925 289.887 14.7491 289.934 17.0772V27.6812C289.934 29.7964 290.16 31.4785 290.611 32.7277V33.0684H287.156ZM281.689 30.0661C282.721 30.0661 283.701 29.7467 284.627 29.1079C285.553 28.4691 286.224 27.6386 286.639 26.6166V21.8895H284.057C280.02 21.8895 278.002 23.3019 278.002 26.1268C278.002 27.3618 278.346 28.3271 279.035 29.0227C279.724 29.7183 280.608 30.0661 281.689 30.0661ZM307.547 33.0684H310.842V10.0291H307.547V20.0157H298.696V10.0291H295.384V33.0684H298.696V23.2309H307.547V33.0684ZM323.136 23.2522H320.732V33.0684H317.419V10.0291H320.732V19.7814H322.887L329.369 10.0291H333.358L325.736 21.1016L333.999 33.0684H329.814L323.136 23.2522ZM90.5101 3.11957L90.0175 6.40333L78.3602 5.25401V14.6127C94.9431 7.38845 97.4059 32.0166 83.9426 33.4943H78.3602H74.748V3.11957H90.5101ZM78.5258 17.0757V31.36C85.7173 31.331 88.6439 30.2614 88.0486 22.8223C87.0956 16.2122 85.2466 14.5864 78.5258 17.0757ZM234.831 10.3441L234.174 14.1204C229.413 10.3441 224.487 12.4015 224.487 20.3595C223.654 28.9204 226.085 32.6383 235.98 29.3898L236.637 30.8675C233.001 34.1267 227.835 35.0889 224.132 32C221.554 29.8489 220.951 26.1962 221.109 22.8424C221.797 8.26582 231.412 8.55991 234.831 10.3441Z" fill="#141414"/>
</svg>
