<svg width="179" height="59" viewBox="0 0 179 59" fill="none" xmlns="http://www.w3.org/2000/svg">
<path d="M167.841 24.641C167.516 24.641 167.238 24.9268 167.238 25.2481V31.0001H159.997V25.2481C159.997 24.9268 159.712 24.641 159.389 24.641H157.407C157.087 24.641 156.838 24.9268 156.838 25.2481V40.0249C156.838 40.3534 157.087 40.6362 157.407 40.6362H159.389C159.712 40.6362 159.997 40.3534 159.997 40.0249V33.8828H167.238V40.0249C167.238 40.3534 167.516 40.6362 167.841 40.6362H169.83C170.104 40.6362 170.387 40.3534 170.387 40.0249V25.2481C170.387 24.9268 170.104 24.641 169.83 24.641H167.841ZM152.477 18.0427C152.841 18.0427 153.121 18.3263 153.121 18.6433V20.473C153.121 20.7969 152.841 21.0816 152.477 21.0816H140.145C139.82 21.0816 139.543 20.7969 139.543 20.473V18.6433C139.543 18.3263 139.82 18.0427 140.145 18.0427H152.477ZM72.5611 18.0427C72.246 18.0427 71.9587 18.3263 71.9587 18.6433V33.8824C71.9587 37.9668 73.2505 40.6792 78.348 40.6792H78.9546C86.2292 40.6792 87.324 35.8623 87.324 33.3905C87.324 31.2009 86.5151 26.0148 79.2796 26.0148H75.2325V21.0816H84.5726C84.8987 21.0816 85.183 20.7969 85.183 20.473V18.6433C85.183 18.3263 84.8987 18.0427 84.5726 18.0427H72.5611ZM79.3954 29.0154C82.3522 29.0154 84.0073 30.6302 84.0073 33.3905C84.0073 36.144 82.3522 37.6459 79.3954 37.6459H78.3476C76.1276 37.6459 75.2317 36.7134 75.2317 34.1987V29.0154H79.3954ZM125.272 24.9268C125.069 25.0101 124.906 25.2481 124.906 25.4507V27.2785C124.906 27.4351 125.027 27.6438 125.143 27.7198C125.314 27.8031 125.473 27.8399 125.632 27.8031C126.722 27.4351 127.981 27.0709 130.037 27.0709C132.583 27.0709 133.035 27.8399 133.035 29.6582V29.9901L129.517 30.2345C123.85 30.6302 123.57 34.3204 123.57 35.4547C123.57 38.8138 125.35 40.8761 129.598 40.8761C130.932 40.8761 132.427 40.4762 133.718 39.6615L134.004 40.272C134.081 40.4762 134.285 40.6362 134.524 40.6362H135.705C135.989 40.6362 136.268 40.3925 136.268 40.0728V29.7019C136.268 25.8997 134.247 24.0742 130.037 24.0742C128.26 24.0738 126.524 24.4022 125.272 24.9268ZM126.925 35.4547C126.925 34.3204 127.132 33.1423 129.47 32.9442L132.988 32.6177L133.035 36.8643C131.903 37.5555 131.01 37.9215 129.636 37.9215C128.295 37.9215 126.925 37.3977 126.925 35.4547ZM100.821 40.272C100.897 40.4762 101.097 40.6362 101.336 40.6362H102.759C103.041 40.6362 103.32 40.3925 103.32 40.0728V25.2481C103.32 24.9268 103.079 24.641 102.713 24.641H100.774C100.412 24.641 100.166 24.9268 100.166 25.2481V35.6577C99.1168 36.7917 97.2184 37.7566 95.7994 37.7566C93.8204 37.7566 92.8482 36.6682 92.8482 33.8824V25.2481C92.8482 24.9268 92.5608 24.641 92.2393 24.641H90.3033C89.9776 24.641 89.6917 24.9268 89.6917 25.2481V34.8902C89.6917 38.4123 91.5955 40.8761 95.2763 40.8761C97.5422 40.8761 99.5234 39.6615 100.492 38.8138L100.821 40.272ZM150.657 40.272C150.734 40.4762 150.941 40.6362 151.187 40.6362H152.599C152.885 40.6362 153.16 40.3925 153.16 40.061V25.2481C153.16 24.9268 152.922 24.641 152.56 24.641H150.621C150.252 24.641 150.013 24.9268 150.013 25.2481V35.6577C148.964 36.7917 147.059 37.7566 145.639 37.7566C143.665 37.7566 142.691 36.6682 142.691 33.8824V25.2481C142.691 24.9268 142.406 24.641 142.09 24.641H140.145C139.82 24.641 139.542 24.9268 139.542 25.2481V34.8902C139.542 38.4123 141.442 40.8761 145.118 40.8761C147.378 40.8761 149.371 39.6615 150.336 38.8138L150.657 40.272ZM108.328 35.0096C108.123 37.1502 107.565 37.6824 105.742 37.8847C105.453 37.9215 105.177 38.2051 105.177 38.5275V40.1492C105.177 40.4762 105.453 40.7578 105.742 40.7578C109.297 40.7578 111.078 39.0605 111.447 34.8526L111.808 31.0792C112.049 28.4516 112.575 27.6442 114.957 27.6442H117.581V40.0249C117.581 40.3534 117.871 40.6362 118.194 40.6362H120.132C120.414 40.6362 120.739 40.3534 120.739 40.0249V25.2481C120.739 24.9268 120.414 24.641 120.132 24.641H114.794C110.388 24.641 109.101 27.1925 108.733 30.7983L108.328 35.0096Z" fill="#141414"/>
<path d="M176.278 23.8119C177.723 23.8119 179 24.2665 179 26.4965C179 28.7052 177.723 29.1804 176.278 29.1804C174.835 29.1804 173.555 28.7048 173.555 26.4965C173.556 24.2669 174.835 23.8119 176.278 23.8119ZM176.278 24.2669C174.979 24.2669 174.051 24.5752 174.051 26.4969C174.051 28.417 174.979 28.7253 176.278 28.7253C177.578 28.7253 178.505 28.417 178.505 26.4969C178.505 24.5748 177.578 24.2669 176.278 24.2669ZM175.68 27.8901V26.7862H176.465L177.04 27.9004C177.064 27.946 177.124 27.9817 177.176 27.9817H177.526C177.577 27.9817 177.598 27.9475 177.574 27.9023L176.919 26.7227C177.268 26.5991 177.392 26.311 177.392 25.9175C177.392 25.3606 177.166 25.0078 176.402 25.0078H175.3C175.248 25.0078 175.205 25.0515 175.205 25.1013V27.8901C175.205 27.9411 175.248 27.9817 175.3 27.9817H175.589C175.64 27.9817 175.68 27.9414 175.68 27.8901ZM175.68 25.4636H176.465C176.876 25.4636 176.938 25.6704 176.938 25.9175C176.938 26.1027 176.876 26.311 176.465 26.311H175.68V25.4636Z" fill="#141414"/>
<path d="M57.3289 35.7186C57.8206 33.5972 58.0806 31.3869 58.0806 29.1157C58.0806 27.0897 57.8737 25.1121 57.48 23.2029H0.599904C0.219906 25.0453 0.013946 26.9514 0 28.9033V29.3282C0.0156946 31.5248 0.274572 33.6634 0.751012 35.7186H57.3289Z" fill="#141414"/>
<path d="M50.9219 48.2362H7.15796C12.4815 54.3407 20.311 58.1973 29.0399 58.1973C37.7689 58.1973 45.5984 54.3407 50.9219 48.2362Z" fill="#141414"/>
<path d="M6.57478 10.6852H51.5051C46.794 4.93344 39.9234 1.02336 32.1338 0.197266H25.9461C18.1565 1.02336 11.2859 4.93344 6.57478 10.6852Z" fill="#141414"/>
</svg>
