<svg width="196" height="64" viewBox="0 0 196 64" fill="none" xmlns="http://www.w3.org/2000/svg">
<path d="M183.781 26.9724C183.426 26.9724 183.121 27.2878 183.121 27.6423V33.9894H175.192V27.6423C175.192 27.2878 174.88 26.9724 174.527 26.9724H172.356C172.006 26.9724 171.733 27.2878 171.733 27.6423V43.9478C171.733 44.3102 172.006 44.6223 172.356 44.6223H174.527C174.88 44.6223 175.192 44.3102 175.192 43.9478V37.1703H183.121V43.9478C183.121 44.3102 183.425 44.6223 183.781 44.6223H185.959C186.259 44.6223 186.569 44.3102 186.569 43.9478V27.6423C186.569 27.2878 186.259 26.9724 185.959 26.9724H183.781ZM166.958 19.6915C167.356 19.6915 167.663 20.0044 167.663 20.3543V22.3732C167.663 22.7306 167.356 23.0448 166.958 23.0448H153.455C153.1 23.0448 152.795 22.7306 152.795 22.3732V20.3543C152.795 20.0044 153.1 19.6915 153.455 19.6915H166.958ZM79.4524 19.6915C79.1074 19.6915 78.7927 20.0044 78.7927 20.3543V37.1698C78.7927 41.6767 80.2073 44.6697 85.7889 44.6697H86.4531C94.4186 44.6697 95.6174 39.3545 95.6174 36.627C95.6174 34.2109 94.7316 28.4884 86.8089 28.4884H82.3775V23.0448H92.6046C92.9617 23.0448 93.273 22.7306 93.273 22.3732V20.3543C93.273 20.0044 92.9617 19.6915 92.6046 19.6915H79.4524ZM86.9357 31.7993C90.1734 31.7993 91.9857 33.5812 91.9857 36.627C91.9857 39.6653 90.1734 41.3227 86.9357 41.3227H85.7885C83.3576 41.3227 82.3766 40.2937 82.3766 37.5189V31.7993H86.9357ZM137.17 27.2878C136.947 27.3797 136.769 27.6423 136.769 27.8658V29.8827C136.769 30.0555 136.901 30.2858 137.029 30.3697C137.215 30.4616 137.39 30.5023 137.563 30.4616C138.757 30.0555 140.135 29.6537 142.387 29.6537C145.175 29.6537 145.669 30.5023 145.669 32.5086V32.8748L141.817 33.1445C135.612 33.5812 135.306 37.6531 135.306 38.9048C135.306 42.6113 137.255 44.887 141.906 44.887C143.367 44.887 145.004 44.4457 146.418 43.5467L146.731 44.2204C146.815 44.4457 147.039 44.6223 147.301 44.6223H148.593C148.904 44.6223 149.21 44.3534 149.21 44.0006V32.5569C149.21 28.3613 146.996 26.3469 142.387 26.3469C140.441 26.3465 138.54 26.7089 137.17 27.2878ZM138.98 38.9048C138.98 37.6531 139.206 36.3531 141.766 36.1346L145.618 35.7742L145.67 40.4602C144.43 41.2228 143.452 41.6268 141.948 41.6268C140.479 41.6268 138.98 41.0488 138.98 38.9048ZM110.396 44.2204C110.479 44.4457 110.698 44.6223 110.96 44.6223H112.518C112.827 44.6223 113.132 44.3534 113.132 44.0006V27.6423C113.132 27.2878 112.868 26.9724 112.468 26.9724H110.345C109.948 26.9724 109.679 27.2878 109.679 27.6423V39.1288C108.53 40.3801 106.451 41.4447 104.898 41.4447C102.731 41.4447 101.666 40.2438 101.666 37.1698V27.6423C101.666 27.2878 101.352 26.9724 100.999 26.9724H98.8796C98.5229 26.9724 98.2099 27.2878 98.2099 27.6423V38.2819C98.2099 42.1683 100.295 44.887 104.325 44.887C106.806 44.887 108.975 43.5467 110.036 42.6113L110.396 44.2204ZM164.965 44.2204C165.05 44.4457 165.276 44.6223 165.545 44.6223H167.092C167.405 44.6223 167.706 44.3534 167.706 43.9876V27.6423C167.706 27.2878 167.446 26.9724 167.049 26.9724H164.925C164.521 26.9724 164.26 27.2878 164.26 27.6423V39.1288C163.111 40.3801 161.026 41.4447 159.471 41.4447C157.309 41.4447 156.242 40.2438 156.242 37.1698V27.6423C156.242 27.2878 155.931 26.9724 155.584 26.9724H153.455C153.099 26.9724 152.795 27.2878 152.795 27.6423V38.2819C152.795 42.1683 154.875 44.887 158.9 44.887C161.375 44.887 163.557 43.5467 164.614 42.6113L164.965 44.2204ZM118.616 38.4136C118.392 40.7757 117.78 41.3629 115.784 41.5861C115.469 41.6268 115.166 41.9397 115.166 42.2954V44.0849C115.166 44.4457 115.469 44.7565 115.784 44.7565C119.677 44.7565 121.628 42.8835 122.031 38.2404L122.426 34.0766C122.691 31.1772 123.267 30.2862 125.875 30.2862H128.748V43.9478C128.748 44.3102 129.066 44.6223 129.419 44.6223H131.542C131.85 44.6223 132.206 44.3102 132.206 43.9478V27.6423C132.206 27.2878 131.851 26.9724 131.542 26.9724H125.696C120.872 26.9724 119.462 29.7879 119.06 33.7666L118.616 38.4136Z" fill="#141414"/>
<path d="M193.02 26.0575C194.602 26.0575 196 26.5592 196 29.0198C196 31.457 194.602 31.9813 193.02 31.9813C191.439 31.9813 190.038 31.4566 190.038 29.0198C190.038 26.5596 191.44 26.0575 193.02 26.0575ZM193.02 26.5596C191.598 26.5596 190.581 26.8998 190.581 29.0202C190.581 31.139 191.598 31.4792 193.02 31.4792C194.443 31.4792 195.458 31.139 195.458 29.0202C195.458 26.8994 194.443 26.5596 193.02 26.5596ZM192.365 30.5576V29.3395H193.224L193.854 30.569C193.88 30.6193 193.945 30.6587 194.002 30.6587H194.386C194.442 30.6587 194.465 30.621 194.439 30.5711L193.722 29.2694C194.104 29.1331 194.239 28.8151 194.239 28.381C194.239 27.7664 193.992 27.3772 193.155 27.3772H191.949C191.892 27.3772 191.845 27.4254 191.845 27.4804V30.5576C191.845 30.6138 191.892 30.6587 191.949 30.6587H192.265C192.321 30.6587 192.365 30.6143 192.365 30.5576ZM192.365 27.8801H193.224C193.675 27.8801 193.742 28.1083 193.742 28.381C193.742 28.5853 193.675 28.8151 193.224 28.8151H192.365V27.8801Z" fill="#141414"/>
<path d="M62.7735 39.1959C63.312 36.8551 63.5967 34.4161 63.5967 31.91C63.5967 29.6744 63.3701 27.4922 62.939 25.3855H0.656878C0.240791 27.4185 0.0152705 29.5218 0 31.6756V32.1445C0.0171851 34.5683 0.300649 36.9282 0.822337 39.1959H62.7735Z" fill="#141414"/>
<path d="M55.7581 53.0084H7.83777C13.6669 59.7444 22.24 64 31.7979 64C41.3559 64 49.9289 59.7444 55.7581 53.0084Z" fill="#141414"/>
<path d="M7.1992 11.5729H56.3966C51.2381 5.22612 43.715 0.911549 35.1856 0H28.4102C19.8808 0.911549 12.3577 5.22612 7.1992 11.5729Z" fill="#141414"/>
</svg>
