<svg width="165" height="44" viewBox="0 0 165 44" fill="none" xmlns="http://www.w3.org/2000/svg">
<path d="M15.7312 25.5745L14.0753 12.3272C13.9833 11.6832 13.6153 11.1312 12.9714 10.9472C12.3274 10.7633 11.6834 10.8552 11.2234 11.3152L1.65592 20.6068C1.47193 20.7908 1.28794 21.0667 1.19594 21.3427C0.919954 22.2627 1.37993 23.1826 2.20789 23.5506C2.39188 23.6426 2.57587 23.6426 2.75986 23.6426H4.32378H5.88771C5.9797 23.6426 5.9797 23.6426 6.0717 23.6426C6.34768 23.7346 6.53168 24.1026 6.43968 24.3786L5.88771 25.8505L0 42.6857H1.19594L7.54362 24.8386C7.81961 23.9186 7.35963 22.9986 6.53167 22.6307C6.34768 22.5387 6.16369 22.5387 5.9797 22.5387H4.50777H3.77181H2.94385C2.85186 22.5387 2.85186 22.5387 2.75986 22.5387C2.48388 22.4467 2.29988 22.0787 2.39188 21.8027C2.39188 21.7107 2.48388 21.6187 2.57587 21.5267L3.67982 20.4228L10.9475 13.4311L12.1434 12.2352C12.3274 12.1432 12.5114 12.0512 12.6954 12.1432C12.8794 12.2352 13.0633 12.4192 13.0633 12.6032L13.2473 14.3511L14.3513 24.1946L14.5353 25.7585C14.5353 25.8505 14.5353 25.9425 14.5353 26.0345C14.4433 26.3105 14.0753 26.4945 13.7993 26.4025C13.7073 26.4025 13.7073 26.3105 13.6153 26.3105L12.9714 25.7585L12.4194 25.2985L11.2234 24.3786C11.0394 24.2866 10.9475 24.1946 10.6715 24.1026C9.75151 23.8266 8.83156 24.2866 8.46358 25.1145C8.46358 25.1145 8.46358 25.1145 8.46358 25.2065L2.29989 42.6857H3.49583L9.01555 27.0464L9.56752 25.5745C9.65952 25.2985 10.0275 25.1145 10.3035 25.2065C10.3955 25.2065 10.3955 25.2985 10.4875 25.2985L11.6834 26.3105L12.8794 27.3224C13.0634 27.4144 13.1553 27.5064 13.3393 27.5984C14.2593 27.8744 15.1792 27.4144 15.5472 26.5865C15.7312 26.1265 15.7312 25.8505 15.7312 25.5745Z" fill="#141414"/>
<path d="M50.9653 42.5939H63.9367L79.1159 0H66.0526L50.9653 42.5939Z" fill="#141414"/>
<path d="M102.943 42.594H115.822L122.538 23.8269C125.206 19.3192 130.633 20.3311 129.622 24.2869L123.182 42.594H136.613L142.961 24.6549C144.617 20.1471 151.7 19.8711 150.137 25.2069L144.157 42.594H157.128L164.396 21.987C166.788 14.9954 158.232 5.61183 143.513 15.9153C141.765 11.2236 134.497 8.2797 124.838 15.0874L125.482 12.3275H113.43L102.943 42.594Z" fill="#141414"/>
<path d="M89.7875 12.3271H77.6441L70.4685 32.4741C66.8807 43.7896 78.2881 47.5614 89.2356 39.7418L88.4996 42.5936H100.091L110.763 12.3271H98.3431L91.9954 29.6223C90.5235 33.8541 82.2439 36.246 83.5318 29.7143L89.7875 12.3271Z" fill="#141414"/>
<path d="M35.7864 13.9833L40.6621 0H27.5988L12.6035 42.5939H24.8389L26.2188 39.1901C26.9548 44.3418 43.882 48.5736 52.8975 30.4505C59.9812 17.3871 51.8856 4.41578 35.7864 13.9833ZM40.2941 30.1745C37.9023 33.1184 34.0385 34.6823 31.7386 33.2104C29.3467 31.5544 29.4387 27.8746 31.8306 24.3788C32.3825 23.5508 33.0265 22.7229 33.6705 22.1709C35.9704 20.055 38.5462 19.319 40.6621 20.699C43.238 22.2629 42.778 26.9547 40.2941 30.1745Z" fill="#141414"/>
</svg>
