<svg width="169" height="68" viewBox="0 0 169 68" fill="none" xmlns="http://www.w3.org/2000/svg">
<path fill-rule="evenodd" clip-rule="evenodd" d="M58.4908 68V57.6111H87.7362V0H29.2454V10.3889H0V68H58.4908ZM10.3779 27.7896H19.41V25.0849H6.97236V44.3889H14.4699C16.6147 44.3712 18.3062 43.8144 19.5446 42.7184C20.792 41.6224 21.4156 40.1729 21.4156 38.3697C21.4156 37.1941 21.1374 36.1599 20.5811 35.2672C20.0247 34.3745 19.2126 33.685 18.1447 33.1989C17.0768 32.713 15.825 32.4698 14.3892 32.4698H10.3779V27.7896ZM10.3779 41.7107V35.1612H14.4699C15.5827 35.1789 16.4531 35.4705 17.0813 36.0362C17.7095 36.6019 18.0236 37.371 18.0236 38.3433C18.0236 39.3597 17.7005 40.1771 17.0544 40.796C16.4173 41.4059 15.5244 41.7107 14.3757 41.7107H10.3779ZM51.1514 28.0257H45.0403V44.625H41.6615V28.0257H35.6043V25.321H51.1514V28.0257ZM67.3073 44.625L68.8957 40.1304H76.4875L78.0893 44.625H81.6428L74.226 25.321H71.1706L63.7672 44.625H67.3073ZM72.6916 29.4178L75.5317 37.4257H69.8514L72.6916 29.4178Z" fill="#141414"/>
<path d="M112.991 26.9434H103.542V32.7241H108.414C110.46 32.7506 112.058 33.2676 113.206 34.2754C114.355 35.2829 114.929 36.6528 114.929 38.3854C114.929 40.1264 114.351 41.5143 113.193 42.5485C112.035 43.5824 110.456 44.1172 108.455 44.1526H100.944V24.8486H112.991V26.9434ZM103.542 34.8189V42.071H108.267C109.55 42.071 110.546 41.7353 111.255 41.0636C111.973 40.3916 112.332 39.4901 112.332 38.3587C112.332 37.2716 111.986 36.4143 111.295 35.7867C110.613 35.1591 109.639 34.8366 108.374 34.8189H103.542Z" fill="black"/>
<path d="M128.424 39.1145H120.213L118.369 44.1526H115.704L123.188 24.8486H125.449L132.947 44.1526H130.295L128.424 39.1145ZM120.994 37.0197H127.657L124.319 27.9908L120.994 37.0197Z" fill="black"/>
<path d="M149.821 44.1526H147.223V35.2297H137.343V44.1526H134.759V24.8486H137.343V33.1484H147.223V24.8486H149.821V44.1526Z" fill="black"/>
<path d="M158.672 35.4817H156.289V44.1526H153.705V24.8486H156.289V33.3604H158.309L165.16 24.8486H168.377L160.893 34.209L168.929 44.1526H165.766L158.672 35.4817Z" fill="black"/>
</svg>
