<svg width="148" height="59" viewBox="0 0 148 59" fill="none" xmlns="http://www.w3.org/2000/svg">
<path fill-rule="evenodd" clip-rule="evenodd" d="M51.2227 59V49.9861H76.834V0H25.6113V9.01389H0V59H51.2227ZM9.08835 24.1115H16.9981V21.7649H6.10598V38.5139H12.6719C14.5501 38.4985 16.0315 38.0155 17.116 37.0645C18.2083 36.1135 18.7545 34.8559 18.7545 33.2914C18.7545 32.2714 18.5109 31.3741 18.0237 30.5995C17.5364 29.8249 16.8252 29.2267 15.89 28.8049C14.9548 28.3833 13.8586 28.1723 12.6012 28.1723H9.08835V24.1115ZM9.08835 36.1901V30.5075H12.6719C13.6464 30.5229 14.4087 30.7759 14.9588 31.2667C15.5089 31.7576 15.7839 32.4248 15.7839 33.2684C15.7839 34.1503 15.501 34.8596 14.9352 35.3965C14.3772 35.9257 13.5953 36.1901 12.5894 36.1901H9.08835ZM44.7953 24.3164H39.4436V38.7188H36.4846V24.3164H31.1801V21.9697H44.7953V24.3164ZM58.9437 38.7188L60.3347 34.819H66.9831L68.3859 38.7188H71.4979L65.0026 21.9697H62.3269L55.8434 38.7188H58.9437ZM63.6589 25.5243L66.1461 32.4723H61.1717L63.6589 25.5243Z" fill="#141414"/>
<path d="M98.9509 23.3776H90.6758V28.3932H94.943C96.7347 28.4161 98.1337 28.8648 99.1395 29.7391C100.145 30.6133 100.648 31.8019 100.648 33.3052C100.648 34.8158 100.141 36.02 99.1277 36.9173C98.114 37.8143 96.7309 38.2784 94.9785 38.3091H88.4008V21.5601H98.9509V23.3776ZM90.6758 30.2107V36.503H94.8135C95.9372 36.503 96.8095 36.2117 97.4302 35.6289C98.059 35.0459 98.3734 34.2637 98.3734 33.282C98.3734 32.3388 98.0707 31.595 97.4657 31.0505C96.8685 30.5059 96.0157 30.2261 94.9077 30.2107H90.6758Z" fill="black"/>
<path d="M112.467 33.9378H105.276L103.661 38.3091H101.327L107.881 21.5601H109.861L116.427 38.3091H114.105L112.467 33.9378ZM105.96 32.1202H111.795L108.871 24.2864L105.96 32.1202Z" fill="black"/>
<path d="M131.205 38.3091H128.929V30.5672H120.277V38.3091H118.014V21.5601H120.277V28.7613H128.929V21.5601H131.205V38.3091Z" fill="black"/>
<path d="M138.955 30.7858H136.869V38.3091H134.605V21.5601H136.869V28.9453H138.637L144.637 21.5601H147.454L140.9 29.6816L147.938 38.3091H145.167L138.955 30.7858Z" fill="black"/>
</svg>
