<svg width="135" height="49" viewBox="0 0 135 49" fill="none" xmlns="http://www.w3.org/2000/svg">
<path d="M33.7407 20.3212C34.3668 20.6207 34.8296 20.8113 35.2652 21.0291C41.3634 23.8603 44.3308 29.0874 43.7591 36.0023C43.2691 41.7193 39.2127 46.4291 33.1417 48.0625C28.2959 49.3693 23.5044 49.0426 19.0669 46.5107C17.3518 45.5307 16.0178 44.2239 16.0723 41.9916C16.1267 40.0859 17.8146 38.4252 20.2103 37.9352C22.1977 37.5268 23.6406 38.2891 24.5117 40.1403C25.8729 43.0533 28.922 43.7067 31.4266 41.5832C33.3051 39.977 33.9857 37.7991 33.8496 35.485C33.7134 33.5793 33.3595 31.592 32.6245 29.8496C31.3449 26.7733 28.922 25.1399 25.4646 25.2488C24.5117 25.276 23.5589 25.276 22.606 25.2488C20.8093 25.1943 19.7203 24.3504 19.5297 22.962C19.2847 21.1379 20.1831 19.4228 21.7621 18.8784C22.2249 18.715 22.7422 18.6333 23.2322 18.6061C26.5535 18.3611 28.1053 16.891 28.5137 13.5697C28.9492 10.0305 26.7985 7.19924 23.2322 6.76366C21.7076 6.57309 20.1559 6.60032 18.6313 6.57309C16.9434 6.57309 16.5351 6.98145 16.5351 8.64212C16.5351 16.7549 16.5079 24.8676 16.5623 33.0076C16.5623 34.8861 16.1267 36.4106 14.3027 37.2546C12.2609 38.2074 10.1919 38.4252 8.23175 37.064C7.11557 36.3017 6.8161 35.1583 6.78888 33.8516C6.65276 25.4938 6.46219 17.1632 6.29884 8.83268C6.27162 6.87255 5.97216 6.57309 3.9848 6.54587C3.76701 6.54587 3.52199 6.54587 3.3042 6.54587C1.2624 6.49142 0.11899 5.62025 0.0100938 4.04126C-0.126026 1.97223 1.12628 0.311566 3.05919 0.0393253C3.35865 -0.0151228 3.68534 0.0120996 4.01203 0.0120996C10.2736 0.0120996 16.5351 -0.0151245 22.7966 0.0120996C26.5807 0.0393236 29.9837 1.23718 33.0601 3.44233C38.2326 7.17202 39.2944 15.0398 34.3668 19.5862C34.1763 19.804 34.0401 20.0218 33.7407 20.3212Z" fill="black"/>
<path d="M75.7201 28.1344C75.7201 22.6351 75.6929 17.1631 75.7201 11.6639C75.7473 8.61476 77.5986 6.68185 80.566 6.57296C82.6078 6.49129 84.0234 7.49857 84.3229 9.51315C84.5679 11.201 84.5135 12.9434 84.4862 14.6585C84.4318 19.8855 84.3229 25.0853 84.2684 30.3123C84.2684 30.8296 84.459 31.7007 84.7585 31.8368C85.2213 32.0002 85.9563 31.7824 86.4736 31.5102C88.3521 30.5029 90.1216 29.305 92.0273 28.3794C93.8785 27.4538 95.267 27.7805 96.002 29.0328C96.7915 30.394 96.3287 32.2724 94.8314 33.3614C93.6335 34.2326 92.3268 34.9948 91.1017 35.8388C89.6044 36.8733 89.3593 38.1256 90.3122 39.7046C91.4828 41.6103 93.1435 42.8626 95.3758 43.2982C98.7516 43.9515 101.283 42.1003 101.746 38.6701C102.536 32.5719 106.374 28.815 112.609 28.1616C114.133 27.9983 115.685 27.9983 117.21 28.1344C118.816 28.2705 119.66 29.3867 119.66 30.884C119.66 32.218 118.843 33.1164 117.264 33.3614C116.284 33.5247 115.277 33.4975 114.297 33.7153C112.037 34.2598 110.703 35.9749 110.594 38.1801C110.512 40.358 111.819 42.3998 113.779 43.0804C115.821 43.7882 118.162 43.1076 119.387 41.1475C120.041 40.113 120.395 38.8334 120.613 37.6083C120.994 35.2671 122.028 33.9331 124.016 33.6064C126.112 33.2525 127.691 34.4231 127.936 36.5466C128.099 37.8806 128.154 39.269 128.453 40.5758C128.889 42.3726 130.032 43.1893 131.883 43.3254C132.101 43.3526 132.346 43.3254 132.564 43.3526C133.789 43.5432 134.742 44.1149 134.96 45.3944C135.177 46.7012 134.497 47.654 133.353 48.0896C130.413 49.2058 127.527 48.988 124.968 47.0823C123.934 46.2928 123.226 46.2656 122.083 46.8373C116.611 49.6141 111.193 49.5052 105.966 46.1295C105.176 45.6122 104.55 45.4216 103.652 46.075C98.3705 49.9136 91.2378 49.5869 86.1197 45.3672C84.4046 43.9515 84.2412 44.006 83.4245 45.9933C82.635 48.0079 80.7838 49.0424 78.7692 48.6341C76.8907 48.2529 75.7201 46.7284 75.7201 44.5505C75.7201 39.1057 75.7201 33.6064 75.7201 28.1344Z" fill="black"/>
<path d="M55.4925 35.2398C55.4925 36.4104 55.4381 37.6083 55.4925 38.7789C55.6014 40.9296 56.9354 42.6448 58.705 43.0259C61.0462 43.5159 63.1969 41.9914 63.442 39.3779C63.6597 37.2272 63.5236 35.022 63.6053 32.8713C63.7142 29.9584 65.3476 28.2705 68.2334 28.0254C70.4113 27.8349 72.1264 28.9511 72.2353 31.1562C72.3714 34.1236 72.4259 37.1727 71.8814 40.0585C70.983 44.7955 66.6544 48.2257 61.6996 48.7157C58.3511 49.0424 55.1114 48.7429 52.144 46.9189C48.5232 44.7138 46.8897 41.3924 46.672 37.3088C46.5631 35.5121 46.5903 33.6608 46.8353 31.8913C47.2164 29.0055 50.5922 27.1271 53.2602 28.2432C54.7847 28.8694 55.3292 30.2034 55.4381 31.7279C55.5198 32.8713 55.4653 34.0692 55.4925 35.2398C55.4653 35.2398 55.4925 35.2398 55.4925 35.2398Z" fill="black"/>
</svg>
