<svg width="115" height="115" viewBox="0 0 115 115" fill="none" xmlns="http://www.w3.org/2000/svg">
<path d="M11.3006 93.396L0 70.7948L114.335 0V41.5462L11.3006 93.396Z" fill="#141414"/>
<path d="M21.9364 115L12.2977 95.0578L107.023 47.5289V81.0983L21.9364 115Z" fill="#141414"/>
<path d="M14.2779 88.7409L9.31152 78.5439L12.5961 76.9442C13.4972 76.5053 14.4074 76.3162 15.3265 76.3769C16.2433 76.4329 17.0845 76.7366 17.8498 77.2881C18.6176 77.8326 19.2289 78.566 19.6839 79.4882L19.9124 79.9574C20.3672 80.8912 20.5769 81.8259 20.5416 82.7616C20.5087 83.6903 20.2351 84.5398 19.7207 85.3102C19.2088 86.0737 18.5127 86.6726 17.6326 87.1071L14.2779 88.7409ZM12.6941 79.2446L15.8152 85.6528L16.6696 85.2366C17.3746 84.8932 17.7945 84.3797 17.9294 83.6959C18.062 83.0075 17.8872 82.1683 17.4052 81.1785L17.1903 80.7373C16.7105 79.7522 16.1598 79.1019 15.5383 78.7865C14.9168 78.4711 14.2442 78.4897 13.5205 78.8421L12.6941 79.2446Z" fill="white"/>
<path d="M25.5861 78.7797L24.2554 79.4278L26.0087 83.0275L23.5505 84.2248L18.5841 74.0278L22.597 72.0733C23.8063 71.4843 24.8825 71.2923 25.8257 71.4973C26.7689 71.7022 27.4792 72.2949 27.9568 73.2754C28.3024 73.985 28.4442 74.6438 28.3821 75.2517C28.3247 75.8573 28.0607 76.4538 27.59 77.0412L31.7213 80.1153L31.7725 80.2203L29.1392 81.5028L25.5861 78.7797ZM23.331 77.5299L24.8858 76.7726C25.3527 76.5452 25.6437 76.2533 25.7589 75.8968C25.8765 75.5334 25.8285 75.1322 25.6147 74.6933C25.401 74.2544 25.1148 73.9693 24.7561 73.8378C24.3952 73.7016 23.9836 73.7461 23.5214 73.9712L21.9666 74.7285L23.331 77.5299Z" fill="white"/>
<path d="M37.1266 72.2665L33.2607 74.1494L34.4443 76.5795L39.0105 74.3556L39.9315 76.2465L32.907 79.6677L27.9407 69.4707L34.9791 66.0427L35.9035 67.9406L31.3232 70.1714L32.3704 72.3215L36.2363 70.4386L37.1266 72.2665Z" fill="white"/>
<path d="M45.797 71.0329L42.4284 72.6736L42.7679 74.8651L40.1416 76.1442L38.915 64.1257L41.2262 63.0001L49.9604 71.362L47.3201 72.6479L45.797 71.0329ZM42.0923 70.4892L44.2844 69.4215L41.4623 66.4203L42.0923 70.4892Z" fill="white"/>
<path d="M48.972 59.2275L54.7034 65.2135L53.5172 57.0138L56.7528 55.4379L61.7192 65.6349L59.254 66.8356L58.0942 64.4544L55.9583 59.4641L57.0269 67.9203L55.4021 68.7116L49.3927 62.6532L52.0082 67.4186L53.168 69.7998L50.7098 70.997L45.7434 60.8L48.972 59.2275Z" fill="white"/>
<path d="M20.6901 93.705L26.4215 99.6909L25.2353 91.4913L28.4709 89.9154L33.4373 100.112L30.9721 101.313L29.8123 98.9319L27.6764 93.9415L28.745 102.398L27.1202 103.189L21.1108 97.1306L23.7264 101.896L24.8861 104.277L22.4279 105.474L17.4615 95.2775L20.6901 93.705Z" fill="white"/>
<path d="M39.9962 94.5611L36.6275 96.2018L36.967 98.3933L34.3407 99.6724L33.1142 87.6539L35.4253 86.5283L44.1595 94.8902L41.5192 96.1761L39.9962 94.5611ZM36.2914 94.0174L38.4835 92.9497L35.6614 89.9485L36.2914 94.0174Z" fill="white"/>
<path d="M46.5269 89.0409L46.0573 90.6386L47.3671 93.328L44.9089 94.5252L39.9425 84.3282L42.4007 83.131L44.5906 87.6272L44.814 85.9154L45.4542 81.6438L48.4937 80.1634L47.2447 86.3518L53.4601 90.3604L50.5467 91.7794L46.5269 89.0409Z" fill="white"/>
<path d="M58.3029 82.6556L54.437 84.5385L55.6206 86.9686L60.1869 84.7447L61.1078 86.6356L54.0834 90.0568L49.117 79.8598L56.1555 76.4318L57.0798 78.3297L52.4996 80.5605L53.5468 82.7106L57.4127 80.8277L58.3029 82.6556Z" fill="white"/>
<path d="M64.1449 80.7027L62.8143 81.3508L64.5675 84.9506L62.1093 86.1478L57.1429 75.9508L61.1559 73.9964C62.3652 73.4074 63.4414 73.2154 64.3846 73.4203C65.3277 73.6252 66.0381 74.2179 66.5156 75.1984C66.8613 75.9081 67.0031 76.5669 66.941 77.1748C66.8836 77.7804 66.6196 78.3769 66.1489 78.9642L70.2802 82.0383L70.3314 82.1434L67.6981 83.4259L64.1449 80.7027ZM61.8899 79.4529L63.4447 78.6957C63.9116 78.4683 64.2026 78.1763 64.3178 77.8198C64.4354 77.4564 64.3873 77.0553 64.1736 76.6164C63.9598 76.1775 63.6736 75.8923 63.315 75.7608C62.9541 75.6247 62.5425 75.6692 62.0803 75.8943L60.5255 76.6515L61.8899 79.4529Z" fill="white"/>
<path d="M75.4054 76.3188C75.2304 75.9593 74.9655 75.7417 74.6109 75.666C74.261 75.588 73.714 75.5974 72.9697 75.6942C72.2255 75.7909 71.6013 75.8379 71.0974 75.8349C69.46 75.8295 68.365 75.2595 67.8124 74.1249C67.5372 73.56 67.4585 72.9832 67.5761 72.3944C67.6961 71.7988 67.9993 71.2352 68.4856 70.7037C68.9697 70.1676 69.5875 69.7165 70.3392 69.3504C71.0723 68.9934 71.7919 68.8046 72.4982 68.7841C73.2092 68.7613 73.844 68.9142 74.4026 69.2429C74.959 69.5669 75.3884 70.0394 75.6909 70.6604L73.2397 71.8542C73.0373 71.4387 72.752 71.179 72.3838 71.0753C72.0202 70.9693 71.6213 71.0221 71.1871 71.2336C70.7482 71.4473 70.4481 71.7148 70.2869 72.036C70.128 72.3502 70.1213 72.6567 70.2668 72.9555C70.3942 73.217 70.6502 73.3869 71.035 73.4652C71.4174 73.5389 72.0169 73.5184 72.8333 73.4038C73.6475 73.2845 74.3447 73.2454 74.9249 73.2862C76.336 73.3846 77.3133 73.9917 77.8568 75.1075C78.2912 75.9993 78.2961 76.8634 77.8716 77.6997C77.4472 78.5361 76.649 79.2397 75.4771 79.8105C74.6507 80.213 73.8297 80.4309 73.0141 80.4642C72.2009 80.4905 71.4988 80.3299 70.9078 79.9823C70.3192 79.6278 69.8612 79.1144 69.5338 78.4421L71.999 77.2414C72.265 77.7877 72.6018 78.1233 73.0093 78.2483C73.4192 78.3664 73.9416 78.2708 74.5766 77.9616C74.9828 77.7637 75.2605 77.5216 75.4098 77.2351C75.5615 76.9417 75.5601 76.6363 75.4054 76.3188Z" fill="white"/>
</svg>
