<svg width="106" height="63" viewBox="0 0 106 63" fill="none" xmlns="http://www.w3.org/2000/svg">
<path d="M105.266 0H0.267578V62.3235H105.266V0Z" fill="#141414"/>
<path d="M6.73047 54.3758V56.7632H85.5339V8.19859L97.0313 12.6907V56.7632H99.1443V11.0258L85.5339 5.59131L64.3726 10.8059V54.2501L6.73047 54.3758Z" fill="white"/>
<path d="M7.13477 26.5758V17.0576H9.03027V20.8272H12.7591V17.0576H14.6547V26.5758H12.7591V22.4292H9.03027V26.5758H7.13477Z" fill="white"/>
<path d="M16.2706 21.8951C16.2706 20.9213 16.4259 20.1045 16.7056 19.4449C16.9231 18.9737 17.2028 18.5339 17.5757 18.1255C17.9486 17.7485 18.3525 17.4658 18.7876 17.2774C19.378 17.026 20.0616 16.9004 20.8074 16.9004C22.2057 16.9004 23.2933 17.3402 24.1323 18.2197C24.9713 19.0993 25.3752 20.293 25.3752 21.8636C25.3752 23.4029 24.9713 24.5966 24.1323 25.4762C23.2933 26.3557 22.2057 26.7641 20.8074 26.7641C19.409 26.7641 18.2904 26.3243 17.4825 25.4762C16.6745 24.628 16.2706 23.4029 16.2706 21.8951ZM18.2282 21.8322C18.2282 22.9003 18.4768 23.717 18.974 24.2825C19.4712 24.8479 20.0927 25.1306 20.8384 25.1306C21.5842 25.1306 22.2057 24.8479 22.7029 24.3139C23.2001 23.7484 23.4176 22.9317 23.4176 21.8322C23.4176 20.7328 23.169 19.916 22.7029 19.382C22.2368 18.848 21.6153 18.5653 20.8074 18.5653C20.0305 18.5653 19.378 18.848 18.9119 19.382C18.4457 19.916 18.2282 20.7328 18.2282 21.8322Z" fill="white"/>
<path d="M26.8359 26.5758V17.0576H29.6947L31.4038 23.5601L33.0818 17.0576H35.9406V26.5758H34.1693V19.068L32.3049 26.5758H30.4716L28.6071 19.068V26.5758H26.8359Z" fill="white"/>
<path d="M37.8359 26.5758V17.0576H44.8276V18.6597H39.7625V20.7643H44.4858V22.3664H39.7625V24.9423H45.014V26.5443H37.8359V26.5758Z" fill="white"/>
<path d="M13.1633 35.78L14.9967 36.3769C14.717 37.4135 14.2509 38.1988 13.5984 38.7014C12.9458 39.204 12.1068 39.4553 11.1124 39.4553C9.86948 39.4553 8.84403 39.0156 8.03611 38.1674C7.22818 37.3193 6.82422 36.1256 6.82422 34.6177C6.82422 33.0471 7.22818 31.7906 8.03611 30.9424C8.84403 30.0942 9.90055 29.623 11.2367 29.623C12.3865 29.623 13.3187 29.9686 14.0334 30.6597C14.4684 31.068 14.7792 31.6649 14.9967 32.4188L13.1012 32.8586C12.9769 32.356 12.7594 31.979 12.4176 31.6963C12.0757 31.4136 11.6407 31.2565 11.1435 31.2565C10.4599 31.2565 9.86948 31.5078 9.43444 32.0104C8.9994 32.5131 8.78189 33.3298 8.78189 34.4607C8.78189 35.6544 8.9994 36.5339 9.43444 37.0365C9.86948 37.5391 10.4288 37.7904 11.1124 37.7904C11.6096 37.7904 12.0447 37.6334 12.4176 37.2878C12.7594 36.9737 13.008 36.4711 13.1633 35.78Z" fill="white"/>
<path d="M16.6426 39.2663V29.748H20.6511C21.6455 29.748 22.3913 29.8423 22.8574 29.9994C23.3235 30.1564 23.6653 30.4706 23.945 30.9103C24.2246 31.3501 24.3489 31.8527 24.3489 32.4182C24.3489 33.1407 24.1314 33.7375 23.7275 34.1773C23.3235 34.6485 22.702 34.9312 21.863 35.0569C22.267 35.3082 22.6088 35.5595 22.8885 35.8422C23.1681 36.1249 23.5099 36.659 23.9761 37.3815L25.1258 39.2349H22.8574L21.4901 37.1616C20.9929 36.4077 20.6822 35.9679 20.4958 35.748C20.3093 35.5281 20.1229 35.4339 19.9364 35.3396C19.75 35.2768 19.4082 35.2454 18.9731 35.2454H18.5381V39.2035H16.6426V39.2663ZM18.5381 33.769H19.9364C20.8376 33.769 21.428 33.7375 21.6455 33.6433C21.863 33.5805 22.0495 33.4234 22.1738 33.2349C22.2981 33.0464 22.3602 32.7951 22.3602 32.5124C22.3602 32.1983 22.267 31.947 22.1116 31.7271C21.9562 31.5386 21.7076 31.413 21.3969 31.3501C21.2415 31.3187 20.7754 31.3187 19.9986 31.3187H18.5381V33.769Z" fill="white"/>
<path d="M26.1523 39.2663V29.748H33.1439V31.3501H28.0789V33.4548H32.8021V35.0569H28.0789V37.6328H33.3304V39.2349H26.1523V39.2663Z" fill="white"/>
<path d="M34.9141 29.748H38.3943C39.1712 29.748 39.7616 29.8109 40.1966 29.9365C40.7559 30.0936 41.222 30.4077 41.626 30.8161C42.03 31.2245 42.3096 31.7585 42.5272 32.3554C42.7447 32.9522 42.8379 33.7061 42.8379 34.6171C42.8379 35.4024 42.7447 36.0621 42.5582 36.6276C42.3096 37.3187 41.9989 37.8841 41.5639 38.3239C41.2221 38.638 40.787 38.8893 40.2277 39.0778C39.7926 39.2035 39.2333 39.2663 38.5497 39.2663H34.9762V29.748H34.9141ZM36.8096 31.3815V37.6956H38.239C38.7672 37.6956 39.1401 37.6642 39.3887 37.6014C39.6994 37.5386 39.948 37.3815 40.1655 37.193C40.3831 37.0045 40.5384 36.6904 40.6627 36.282C40.787 35.8422 40.8492 35.2768 40.8492 34.5543C40.8492 33.8318 40.787 33.2663 40.6627 32.858C40.5384 32.4496 40.352 32.1669 40.1345 31.947C39.9169 31.7271 39.6062 31.57 39.2644 31.5072C38.9847 31.4444 38.4876 31.413 37.7107 31.413H36.8096V31.3815Z" fill="white"/>
<path d="M44.3613 39.2663V29.748H46.2568V39.2663H44.3613Z" fill="white"/>
<path d="M50.1716 39.2663V31.3501H47.375V29.748H54.8638V31.3501H52.0671V39.2663H50.1716Z" fill="white"/>
<path d="M7.13477 41.9053H10.8947C11.6405 41.9053 12.1998 41.9367 12.5727 41.9995C12.9456 42.0623 13.2564 42.188 13.5671 42.4079C13.8468 42.5964 14.0954 42.8791 14.2818 43.1932C14.4682 43.5388 14.5615 43.8843 14.5615 44.2927C14.5615 44.7324 14.4372 45.1408 14.2197 45.5178C13.9711 45.8947 13.6603 46.1774 13.2564 46.3659C13.8157 46.523 14.2818 46.8371 14.5925 47.2141C14.9033 47.6224 15.0587 48.0936 15.0587 48.6591C15.0587 49.0989 14.9654 49.5072 14.7479 49.9156C14.5615 50.324 14.2818 50.6381 13.94 50.8894C13.5982 51.1407 13.1631 51.2978 12.666 51.3292C12.3552 51.3606 11.5784 51.392 10.3665 51.392H7.16584V41.9053H7.13477ZM9.06136 43.4759V45.6748H10.3043C11.0501 45.6748 11.5162 45.6748 11.6716 45.6434C11.9823 45.612 12.262 45.4864 12.4484 45.2979C12.6349 45.1094 12.7281 44.8581 12.7281 44.544C12.7281 44.2612 12.6349 44.0099 12.4795 43.8215C12.3241 43.633 12.0755 43.5388 11.7648 43.4759C11.5784 43.4445 11.0501 43.4445 10.1489 43.4445H9.06136V43.4759ZM9.06136 47.2769V49.8214H10.8326C11.5162 49.8214 11.9512 49.7899 12.1377 49.7585C12.4174 49.6957 12.6349 49.57 12.8213 49.3816C13.0078 49.1931 13.101 48.9104 13.101 48.5648C13.101 48.2821 13.0388 48.0308 12.8835 47.8423C12.7592 47.6539 12.5417 47.4968 12.2931 47.4026C12.0445 47.3083 11.4851 47.2769 10.6151 47.2769H9.06136Z" fill="white"/>
<path d="M25.1262 51.4234H23.0442L22.2363 49.2559H18.4763L17.6995 51.4234H15.6797L19.3464 41.9053H21.3662L25.1262 51.4234ZM21.6459 47.6538L20.3408 44.1356L19.0667 47.6538H21.6459Z" fill="white"/>
<path d="M26.1523 51.4234V41.9053H28.0168L31.8699 48.2507V41.9053H33.6411V51.4234H31.7456L27.9546 45.2036V51.4234H26.1523Z" fill="white"/>
<path d="M35.6602 51.4234V41.9053H37.5557V46.146L41.4088 41.9053H43.9569L40.4144 45.612L44.1433 51.4234H41.6885L39.1093 46.9628L37.5557 48.5648V51.4549H35.6602V51.4234Z" fill="white"/>
</svg>
