<svg width="101" height="60" viewBox="0 0 101 60" fill="none" xmlns="http://www.w3.org/2000/svg">
<path d="M101 0H0.267578V59.7912H101V0Z" fill="#141414"/>
<path d="M6.4679 52.1665V54.4569H82.0694V7.8656L93.0995 12.1751V54.4569H95.1267V10.5779L82.0694 5.36426L61.7679 10.3669V52.046L6.4679 52.1665Z" fill="white"/>
<path d="M6.85571 25.4956V16.3643H8.6742V19.9807H12.2516V16.3643H14.0701V25.4956H12.2516V21.5176H8.6742V25.4956H6.85571Z" fill="white"/>
<path d="M15.6212 21.0051C15.6212 20.0709 15.7703 19.2873 16.0386 18.6545C16.2473 18.2024 16.5156 17.7805 16.8733 17.3887C17.231 17.0271 17.6186 16.7558 18.0359 16.575C18.6024 16.3339 19.2582 16.2134 19.9737 16.2134C21.3152 16.2134 22.3586 16.6353 23.1635 17.4791C23.9684 18.3229 24.3559 19.4681 24.3559 20.975C24.3559 22.4517 23.9684 23.5969 23.1635 24.4407C22.3586 25.2845 21.3152 25.6763 19.9737 25.6763C18.6322 25.6763 17.559 25.2544 16.7839 24.4407C16.0088 23.627 15.6212 22.4517 15.6212 21.0051ZM17.4993 20.9448C17.4993 21.9695 17.7378 22.753 18.2148 23.2955C18.6918 23.838 19.288 24.1092 20.0035 24.1092C20.719 24.1092 21.3152 23.838 21.7922 23.3256C22.2691 22.7832 22.4778 21.9996 22.4778 20.9448C22.4778 19.8901 22.2393 19.1065 21.7922 18.5942C21.345 18.0819 20.7488 17.8106 19.9737 17.8106C19.2284 17.8106 18.6024 18.0819 18.1552 18.5942C17.708 19.1065 17.4993 19.8901 17.4993 20.9448Z" fill="white"/>
<path d="M25.7564 25.4956V16.3643H28.499L30.1386 22.6025L31.7485 16.3643H34.4911V25.4956H32.7918V18.293L31.0032 25.4956H29.2443L27.4556 18.293V25.4956H25.7564Z" fill="white"/>
<path d="M36.3094 25.4956V16.3643H43.017V17.9012H38.1578V19.9204H42.6891V21.4573H38.1578V23.9286H43.1959V25.4655H36.3094V25.4956Z" fill="white"/>
<path d="M12.6393 34.3257L14.3982 34.8983C14.1299 35.8928 13.6827 36.6463 13.0567 37.1284C12.4307 37.6106 11.6258 37.8517 10.6718 37.8517C9.47933 37.8517 8.49554 37.4298 7.72045 36.6161C6.94535 35.8024 6.5578 34.6572 6.5578 33.2107C6.5578 31.7038 6.94535 30.4984 7.72045 29.6847C8.49554 28.871 9.50913 28.4189 10.791 28.4189C11.8941 28.4189 12.7884 28.7504 13.4741 29.4135C13.8914 29.8052 14.1895 30.3778 14.3982 31.1011L12.5797 31.523C12.4605 31.0408 12.2518 30.6792 11.9239 30.408C11.5959 30.1367 11.1786 29.9861 10.7016 29.9861C10.0457 29.9861 9.47932 30.2271 9.06196 30.7093C8.6446 31.1915 8.43592 31.9751 8.43592 33.06C8.43592 34.2052 8.6446 35.049 9.06196 35.5312C9.47932 36.0134 10.0159 36.2545 10.6718 36.2545C11.1488 36.2545 11.5661 36.1038 11.9239 35.7723C12.2518 35.4709 12.4903 34.9887 12.6393 34.3257Z" fill="white"/>
<path d="M15.9772 37.6706V28.5391H19.8229C20.7769 28.5391 21.4923 28.6295 21.9395 28.7802C22.3867 28.9308 22.7146 29.2322 22.9829 29.6541C23.2512 30.076 23.3705 30.5582 23.3705 31.1007C23.3705 31.7938 23.1618 32.3665 22.7742 32.7884C22.3867 33.2404 21.7905 33.5117 20.9856 33.6322C21.3731 33.8733 21.701 34.1144 21.9693 34.3856C22.2376 34.6569 22.5656 35.1692 23.0127 35.8623L24.1158 37.6404H21.9395L20.6278 35.6514C20.1508 34.9281 19.8527 34.5062 19.6739 34.2952C19.495 34.0843 19.3161 33.9939 19.1372 33.9034C18.9584 33.8432 18.6305 33.813 18.2131 33.813H17.7957V37.6103H15.9772V37.6706ZM17.7957 32.3966H19.1372C20.0018 32.3966 20.5682 32.3664 20.7769 32.276C20.9856 32.2158 21.1644 32.0651 21.2837 31.8843C21.4029 31.7034 21.4625 31.4623 21.4625 31.1911C21.4625 30.8897 21.3731 30.6487 21.224 30.4377C21.075 30.2569 20.8365 30.1363 20.5384 30.076C20.3893 30.0459 19.9422 30.0459 19.1969 30.0459H17.7957V32.3966Z" fill="white"/>
<path d="M25.1006 37.6706V28.5391H31.8081V30.076H26.9489V32.0952H31.4802V33.6322H26.9489V36.1034H31.987V37.6404H25.1006V37.6706Z" fill="white"/>
<path d="M33.5063 28.5391H36.8451C37.5904 28.5391 38.1568 28.5993 38.5742 28.7199C39.1108 28.8706 39.558 29.1719 39.9455 29.5637C40.3331 29.9555 40.6014 30.4678 40.81 31.0404C41.0187 31.613 41.1082 32.3363 41.1082 33.2103C41.1082 33.9637 41.0187 34.5966 40.8398 35.139C40.6014 35.8021 40.3032 36.3445 39.8859 36.7664C39.558 37.0678 39.1406 37.3089 38.604 37.4897C38.1866 37.6103 37.65 37.6706 36.9942 37.6706H33.5659V28.5391H33.5063ZM35.3248 30.1062V36.1637H36.6961C37.2029 36.1637 37.5606 36.1336 37.7991 36.0733C38.0972 36.013 38.3357 35.8623 38.5444 35.6815C38.7531 35.5007 38.9021 35.1993 39.0214 34.8075C39.1406 34.3856 39.2002 33.8432 39.2002 33.15C39.2002 32.4569 39.1406 31.9144 39.0214 31.5226C38.9021 31.1308 38.7232 30.8596 38.5146 30.6486C38.3059 30.4377 38.0078 30.287 37.6799 30.2267C37.4116 30.1665 36.9346 30.1363 36.1893 30.1363H35.3248V30.1062Z" fill="white"/>
<path d="M42.5697 37.6706V28.5391H44.3882V37.6706H42.5697Z" fill="white"/>
<path d="M48.1439 37.6706V30.076H45.4609V28.5391H52.6454V30.076H49.9624V37.6706H48.1439Z" fill="white"/>
<path d="M6.85571 40.2021H10.4629C11.1784 40.2021 11.715 40.2323 12.0727 40.2926C12.4305 40.3528 12.7286 40.4734 13.0267 40.6843C13.295 40.8652 13.5335 41.1364 13.7123 41.4378C13.8912 41.7693 13.9806 42.1008 13.9806 42.4925C13.9806 42.9144 13.8614 43.3062 13.6527 43.6679C13.4142 44.0295 13.1161 44.3007 12.7286 44.4815C13.2652 44.6322 13.7123 44.9336 14.0105 45.2952C14.3086 45.687 14.4576 46.1391 14.4576 46.6815C14.4576 47.1034 14.3682 47.4952 14.1595 47.887C13.9807 48.2788 13.7123 48.5801 13.3844 48.8212C13.0565 49.0623 12.6391 49.213 12.1622 49.2431C11.864 49.2733 11.1187 49.3034 9.9561 49.3034H6.88552V40.2021H6.85571ZM8.70402 41.709V43.8185H9.89648C10.612 43.8185 11.0591 43.8185 11.2082 43.7884C11.5063 43.7583 11.7746 43.6377 11.9535 43.4569C12.1323 43.2761 12.2218 43.035 12.2218 42.7336C12.2218 42.4624 12.1323 42.2213 11.9833 42.0405C11.8342 41.8597 11.5957 41.7693 11.2976 41.709C11.1187 41.6788 10.612 41.6788 9.74742 41.6788H8.70402V41.709ZM8.70402 45.3555V47.7966H10.4033C11.0591 47.7966 11.4765 47.7664 11.6554 47.7363C11.9237 47.676 12.1323 47.5555 12.3112 47.3747C12.4901 47.1938 12.5795 46.9226 12.5795 46.5911C12.5795 46.3199 12.5199 46.0788 12.3708 45.898C12.2516 45.7172 12.0429 45.5665 11.8044 45.4761C11.5659 45.3856 11.0293 45.3555 10.1946 45.3555H8.70402Z" fill="white"/>
<path d="M24.1161 49.3335H22.1187L21.3437 47.2541H17.7365L16.9912 49.3335H15.0535L18.5712 40.2021H20.5089L24.1161 49.3335ZM20.7772 45.7171L19.5252 42.3419L18.3029 45.7171H20.7772Z" fill="white"/>
<path d="M25.1006 49.3335V40.2021H26.8893L30.5858 46.2897V40.2021H32.2851V49.3335H30.4666L26.8296 43.3665V49.3335H25.1006Z" fill="white"/>
<path d="M34.222 49.3336V40.2021H36.0405V44.2706L39.7371 40.2021H42.1816L38.7832 43.7583L42.3605 49.3336H40.0054L37.5311 45.0542L36.0405 46.5911V49.3637H34.222V49.3336Z" fill="white"/>
</svg>
