<svg width="210" height="33" viewBox="0 0 210 33" fill="none" xmlns="http://www.w3.org/2000/svg">
<circle cx="7.07894" cy="7.07894" r="7.07894" fill="#141414"/>
<circle cx="24.3314" cy="7.07894" r="7.07894" fill="#141414"/>
<circle cx="7.07894" cy="24.7762" r="7.07894" fill="#141414"/>
<circle cx="24.3314" cy="24.7762" r="7.07894" fill="#141414"/>
<path d="M43.1165 31.8552H37.8903V1.65913H43.1165V31.8552Z" fill="#141414"/>
<path d="M47.7107 20.4695C47.7107 17.013 48.5126 14.2408 50.1164 12.1531C51.7202 10.0515 53.8702 9.00076 56.5662 9.00076C58.9443 9.00076 60.8661 9.83032 62.3317 11.4894V0H67.3713V31.8552H62.8087L62.5598 29.5324C61.0528 31.3575 59.0411 32.27 56.5248 32.27C53.8978 32.27 51.7686 31.2123 50.1371 29.0969C48.5195 26.9815 47.7107 24.1057 47.7107 20.4695ZM52.7502 20.905C52.7502 23.1863 53.1858 24.9698 54.0568 26.2557C54.9417 27.5277 56.1929 28.1637 57.8106 28.1637C59.8707 28.1637 61.3777 27.2442 62.3317 25.4054V15.8239C61.4054 14.0265 59.9121 13.1278 57.8521 13.1278C56.2206 13.1278 54.9624 13.7777 54.0776 15.0773C53.1927 16.3631 52.7502 18.3057 52.7502 20.905Z" fill="#141414"/>
<path d="M82.0861 32.27C78.8923 32.27 76.2999 31.2676 74.3089 29.2628C72.3318 27.2442 71.3432 24.562 71.3432 21.2161V20.5939C71.3432 18.3541 71.7719 16.3562 72.6291 14.6003C73.5001 12.8306 74.7168 11.4549 76.2791 10.4732C77.8415 9.49158 79.5836 9.00076 81.5054 9.00076C84.5609 9.00076 86.9183 9.9755 88.5774 11.925C90.2504 13.8744 91.0868 16.6327 91.0868 20.1999V22.2323H76.4243C76.5764 24.085 77.1917 25.5505 78.2701 26.629C79.3624 27.7074 80.7311 28.2466 82.3764 28.2466C84.6854 28.2466 86.5657 27.3134 88.0175 25.4468L90.7343 28.0392C89.8356 29.3804 88.6327 30.4242 87.1257 31.1708C85.6325 31.9036 83.9526 32.27 82.0861 32.27ZM81.4846 13.0449C80.102 13.0449 78.9821 13.5288 78.1249 14.4966C77.2815 15.4644 76.7423 16.8125 76.5073 18.5407H86.1095V18.1674C85.9989 16.4807 85.5495 15.2087 84.7614 14.3514C83.9733 13.4804 82.8811 13.0449 81.4846 13.0449Z" fill="#141414"/>
<path d="M108 31.8552C107.779 31.4266 107.585 30.7284 107.419 29.7606C105.815 31.4335 103.852 32.27 101.529 32.27C99.2757 32.27 97.4369 31.6271 96.0128 30.3413C94.5887 29.0554 93.8767 27.4654 93.8767 25.5713C93.8767 23.1794 94.7615 21.3474 96.5313 20.0754C98.3148 18.7896 100.859 18.1467 104.163 18.1467H107.253V16.6742C107.253 15.5128 106.928 14.5865 106.279 13.8952C105.629 13.1901 104.64 12.8375 103.313 12.8375C102.165 12.8375 101.225 13.1278 100.492 13.7085C99.7596 14.2754 99.3932 15.0013 99.3932 15.8861H94.3537C94.3537 14.6556 94.7615 13.5081 95.5773 12.4434C96.393 11.365 97.4991 10.5216 98.8955 9.91328C100.306 9.30493 101.875 9.00076 103.603 9.00076C106.23 9.00076 108.325 9.66441 109.887 10.9917C111.45 12.3052 112.251 14.1579 112.293 16.5498V26.6705C112.293 28.6891 112.576 30.2998 113.143 31.5027V31.8552H108ZM102.463 28.2259C103.458 28.2259 104.391 27.9839 105.262 27.5C106.147 27.0161 106.811 26.3663 107.253 25.5505V21.3198H104.537C102.67 21.3198 101.267 21.6447 100.327 22.2945C99.3863 22.9443 98.9163 23.8638 98.9163 25.0528C98.9163 26.0206 99.2342 26.7949 99.8702 27.3756C100.52 27.9424 101.384 28.2259 102.463 28.2259Z" fill="#141414"/>
<path d="M117.634 31.8552V1.65913H127.982C131.398 1.65913 133.997 2.34352 135.78 3.71229C137.564 5.08107 138.456 7.12042 138.456 9.83032C138.456 11.2129 138.082 12.4573 137.336 13.5634C136.589 14.6694 135.497 15.5267 134.059 16.135C135.69 16.5774 136.949 17.4139 137.834 18.6444C138.732 19.8611 139.182 21.3267 139.182 23.0411C139.182 25.8755 138.269 28.0531 136.444 29.5739C134.633 31.0948 132.034 31.8552 128.646 31.8552H117.634ZM122.881 18.2296V27.6659H128.708C130.354 27.6659 131.639 27.2581 132.566 26.4423C133.492 25.6266 133.955 24.4928 133.955 23.0411C133.955 19.9026 132.352 18.2988 129.144 18.2296H122.881ZM122.881 14.3722H128.024C129.655 14.3722 130.927 14.0058 131.84 13.273C132.766 12.5264 133.229 11.4756 133.229 10.1207C133.229 8.62745 132.801 7.54902 131.944 6.88537C131.1 6.22172 129.78 5.8899 127.982 5.8899H122.881V14.3722Z" fill="#141414"/>
<path d="M156.924 31.8552C156.703 31.4266 156.509 30.7284 156.344 29.7606C154.74 31.4335 152.776 32.27 150.454 32.27C148.2 32.27 146.361 31.6271 144.937 30.3413C143.513 29.0554 142.801 27.4654 142.801 25.5713C142.801 23.1794 143.686 21.3474 145.456 20.0754C147.239 18.7896 149.783 18.1467 153.088 18.1467H156.178V16.6742C156.178 15.5128 155.853 14.5865 155.203 13.8952C154.553 13.1901 153.565 12.8375 152.237 12.8375C151.09 12.8375 150.15 13.1278 149.417 13.7085C148.684 14.2754 148.318 15.0013 148.318 15.8861H143.278C143.278 14.6556 143.686 13.5081 144.502 12.4434C145.317 11.365 146.423 10.5216 147.82 9.91328C149.23 9.30493 150.799 9.00076 152.528 9.00076C155.155 9.00076 157.249 9.66441 158.812 10.9917C160.374 12.3052 161.176 14.1579 161.217 16.5498V26.6705C161.217 28.6891 161.501 30.2998 162.068 31.5027V31.8552H156.924ZM151.387 28.2259C152.382 28.2259 153.316 27.9839 154.187 27.5C155.072 27.0161 155.735 26.3663 156.178 25.5505V21.3198H153.461C151.594 21.3198 150.191 21.6447 149.251 22.2945C148.311 22.9443 147.841 23.8638 147.841 25.0528C147.841 26.0206 148.159 26.7949 148.795 27.3756C149.444 27.9424 150.309 28.2259 151.387 28.2259Z" fill="#141414"/>
<path d="M170.747 9.41554L170.892 12.0079C172.552 10.0031 174.729 9.00076 177.425 9.00076C182.098 9.00076 184.477 11.6761 184.559 17.0268V31.8552H179.52V17.3171C179.52 15.893 179.209 14.8423 178.587 14.1648C177.978 13.4735 176.976 13.1278 175.579 13.1278C173.547 13.1278 172.033 14.0473 171.038 15.8861V31.8552H165.998V9.41554H170.747Z" fill="#141414"/>
<path d="M196.578 22.2323L194.338 24.5343V31.8552H189.299V0H194.338V18.3748L195.915 16.4046L202.116 9.41554H208.171L199.834 18.7689L209.063 31.8552H203.235L196.578 22.2323Z" fill="#141414"/>
</svg>
