<svg width="238" height="37" viewBox="0 0 238 37" fill="none" xmlns="http://www.w3.org/2000/svg">
<circle cx="8.05875" cy="8.05875" r="8.05875" fill="#141414"/>
<circle cx="27.7019" cy="8.05875" r="8.05875" fill="#141414"/>
<circle cx="8.05875" cy="28.2057" r="8.05875" fill="#141414"/>
<circle cx="27.7019" cy="28.2057" r="8.05875" fill="#141414"/>
<path d="M49.0844 36.2644H43.1348V1.88877H49.0844V36.2644Z" fill="#141414"/>
<path d="M54.3144 23.3027C54.3144 19.3678 55.2273 16.2119 57.0531 13.8352C58.8789 11.4428 61.3264 10.2466 64.3957 10.2466C67.1029 10.2466 69.2908 11.191 70.9592 13.0797V0H76.6963V36.2644H71.5022L71.2189 33.6201C69.5032 35.6977 67.2131 36.7366 64.3485 36.7366C61.3579 36.7366 58.934 35.5325 57.0767 33.1243C55.2352 30.7161 54.3144 27.4422 54.3144 23.3027ZM60.0515 23.7985C60.0515 26.3955 60.5473 28.426 61.5389 29.8898C62.5463 31.3378 63.9707 32.0619 65.8123 32.0619C68.1575 32.0619 69.8731 31.0152 70.9592 28.9218V18.0141C69.9046 15.968 68.2047 14.9449 65.8595 14.9449C64.0022 14.9449 62.5699 15.6847 61.5625 17.1642C60.5552 18.628 60.0515 20.8394 60.0515 23.7985Z" fill="#141414"/>
<path d="M93.4478 36.7366C89.8119 36.7366 86.8607 35.5954 84.5942 33.3132C82.3434 31.0152 81.218 27.9616 81.218 24.1526V23.4443C81.218 20.8945 81.7059 18.6201 82.6818 16.6212C83.6734 14.6065 85.0585 13.0404 86.8371 11.9229C88.6157 10.8053 90.5989 10.2466 92.7867 10.2466C96.2652 10.2466 98.9488 11.3562 100.838 13.5755C102.742 15.7948 103.694 18.9349 103.694 22.9958V25.3095H87.0024C87.1755 27.4186 87.8759 29.087 89.1036 30.3147C90.3471 31.5424 91.9053 32.1563 93.7783 32.1563C96.4069 32.1563 98.5475 31.0939 100.2 28.969L103.293 31.9202C102.27 33.4469 100.901 34.6353 99.1849 35.4852C97.485 36.3195 95.5727 36.7366 93.4478 36.7366ZM92.7631 14.8504C91.1891 14.8504 89.9142 15.4013 88.9384 16.5031C87.9782 17.6049 87.3644 19.1395 87.0968 21.107H98.0281V20.682C97.9021 18.7618 97.3906 17.3137 96.4934 16.3379C95.5963 15.3462 94.3528 14.8504 92.7631 14.8504Z" fill="#141414"/>
<path d="M122.948 36.2644C122.697 35.7764 122.476 34.9816 122.287 33.8798C120.462 35.7843 118.227 36.7366 115.582 36.7366C113.017 36.7366 110.923 36.0047 109.302 34.5409C107.681 33.0771 106.87 31.267 106.87 29.1107C106.87 26.3877 107.878 24.3022 109.892 22.8541C111.923 21.3903 114.819 20.6584 118.581 20.6584H122.099V18.9821C122.099 17.66 121.729 16.6054 120.989 15.8184C120.249 15.0157 119.124 14.6143 117.613 14.6143C116.306 14.6143 115.236 14.9449 114.402 15.606C113.568 16.2513 113.15 17.0776 113.15 18.085H107.413C107.413 16.6841 107.878 15.3777 108.806 14.1658C109.735 12.9381 110.994 11.9779 112.584 11.2854C114.189 10.5928 115.976 10.2466 117.943 10.2466C120.934 10.2466 123.318 11.0021 125.097 12.5131C126.876 14.0084 127.788 16.1175 127.836 18.8405V30.362C127.836 32.66 128.158 34.4936 128.804 35.863V36.2644H122.948ZM116.645 32.1327C117.778 32.1327 118.84 31.8572 119.832 31.3063C120.839 30.7555 121.595 30.0157 122.099 29.087V24.2707H119.006C116.881 24.2707 115.283 24.6406 114.213 25.3803C113.143 26.1201 112.607 27.1668 112.607 28.5204C112.607 29.6222 112.969 30.5036 113.694 31.1647C114.433 31.81 115.417 32.1327 116.645 32.1327Z" fill="#141414"/>
<path d="M133.916 36.2644V1.88877H145.697C149.585 1.88877 152.544 2.66789 154.574 4.22612C156.604 5.78435 157.62 8.10597 157.62 11.191C157.62 12.7649 157.195 14.1815 156.345 15.4407C155.495 16.6999 154.251 17.6757 152.614 18.3683C154.472 18.872 155.904 19.8242 156.911 21.225C157.934 22.6101 158.446 24.2786 158.446 26.2303C158.446 29.4569 157.407 31.9359 155.33 33.6673C153.268 35.3987 150.309 36.2644 146.452 36.2644H133.916ZM139.889 20.7528V31.4952H146.523C148.396 31.4952 149.86 31.0309 150.915 30.1023C151.969 29.1736 152.496 27.883 152.496 26.2303C152.496 22.6574 150.671 20.8315 147.019 20.7528H139.889ZM139.889 16.3615H145.744C147.601 16.3615 149.049 15.9444 150.088 15.1102C151.143 14.2602 151.67 13.064 151.67 11.5215C151.67 9.8216 151.182 8.5939 150.206 7.83839C149.246 7.08288 147.743 6.70513 145.697 6.70513H139.889V16.3615Z" fill="#141414"/>
<path d="M178.645 36.2644C178.393 35.7764 178.172 34.9816 177.983 33.8798C176.158 35.7843 173.923 36.7366 171.278 36.7366C168.713 36.7366 166.619 36.0047 164.998 34.5409C163.377 33.0771 162.566 31.267 162.566 29.1107C162.566 26.3877 163.574 24.3022 165.588 22.8541C167.619 21.3903 170.515 20.6584 174.277 20.6584H177.795V18.9821C177.795 17.66 177.425 16.6054 176.685 15.8184C175.945 15.0157 174.82 14.6143 173.309 14.6143C172.002 14.6143 170.932 14.9449 170.098 15.606C169.264 16.2513 168.846 17.0776 168.846 18.085H163.109C163.109 16.6841 163.574 15.3777 164.502 14.1658C165.431 12.9381 166.69 11.9779 168.28 11.2854C169.885 10.5928 171.672 10.2466 173.639 10.2466C176.63 10.2466 179.014 11.0021 180.793 12.5131C182.572 14.0084 183.484 16.1175 183.532 18.8405V30.362C183.532 32.66 183.854 34.4936 184.5 35.863V36.2644H178.645ZM172.341 32.1327C173.474 32.1327 174.536 31.8572 175.528 31.3063C176.535 30.7555 177.291 30.0157 177.795 29.087V24.2707H174.702C172.577 24.2707 170.979 24.6406 169.909 25.3803C168.839 26.1201 168.303 27.1668 168.303 28.5204C168.303 29.6222 168.665 30.5036 169.39 31.1647C170.129 31.81 171.113 32.1327 172.341 32.1327Z" fill="#141414"/>
<path d="M194.381 10.7188L194.546 13.67C196.435 11.3877 198.914 10.2466 201.983 10.2466C207.303 10.2466 210.01 13.2922 210.105 19.3835V36.2644H204.368V19.714C204.368 18.0928 204.013 16.8966 203.305 16.1254C202.613 15.3384 201.472 14.9449 199.882 14.9449C197.568 14.9449 195.845 15.9916 194.711 18.085V36.2644H188.974V10.7188H194.381Z" fill="#141414"/>
<path d="M223.787 25.3095L221.237 27.9302V36.2644H215.5V0H221.237V20.9181L223.032 18.6752L230.091 10.7188H236.985L227.494 21.3667L238 36.2644H231.366L223.787 25.3095Z" fill="#141414"/>
</svg>
