<svg width="237" height="54" viewBox="0 0 237 54" fill="none" xmlns="http://www.w3.org/2000/svg">
<g clip-path="url(#clip0)">
<path d="M46.6274 0.774414H8.44704C4.20593 0.774414 0.767822 4.24214 0.767822 8.51979V45.48C0.767822 49.7576 4.20593 53.2253 8.44704 53.2253H46.6274C50.8685 53.2253 54.3066 49.7576 54.3066 45.48V8.51979C54.3066 4.24214 50.8685 0.774414 46.6274 0.774414Z" stroke="#141414" stroke-width="2" stroke-linejoin="round"/>
<path fill-rule="evenodd" clip-rule="evenodd" d="M37.3978 45.1107C39.4796 40.6773 46.4355 32.8839 39.4474 22.2758C36.4356 24.0851 32.189 25.374 28.5805 33.2193C28.4854 34.1382 28.3286 35.0496 28.1113 35.9472C28.0023 35.6521 27.8894 35.3887 27.7788 35.1076C27.6675 35.3887 27.5553 35.6498 27.4455 35.9472C27.2283 35.0496 27.0715 34.1382 26.9763 33.2193C23.3671 25.3724 19.1213 24.0859 16.1087 22.2766C9.12061 32.8878 16.0765 40.6773 18.1583 45.1115C11.4098 40.7067 8.42334 33.5446 8.42334 29.3249C8.42334 25.1052 11.065 16.6062 14.5229 14.3252C24.2164 18.936 27.1284 25.2601 27.778 27.0276C28.4269 25.2632 31.3397 18.9399 41.0332 14.3252C44.4888 16.6054 47.1328 25.1044 47.1328 29.3249C47.1328 33.5453 44.1471 40.7067 37.3978 45.1107ZM28.0123 19.5889C26.8023 19.5541 25.6294 19.1603 24.6401 18.4569C23.6508 17.7535 22.8889 16.7716 22.4497 15.6339C22.0106 14.4962 21.9136 13.2532 22.1709 12.0603C22.4281 10.8673 23.0283 9.77729 23.8963 8.92641C24.7644 8.07553 25.8618 7.50154 27.0514 7.27618C28.241 7.05081 29.4701 7.18406 30.5851 7.65928C31.7001 8.1345 32.6515 8.9306 33.3204 9.9481C33.9893 10.9656 34.346 12.1594 34.3461 13.3802C34.322 15.0506 33.6413 16.6429 32.4536 17.8072C31.2659 18.9714 29.6683 19.6123 28.0123 19.5889Z" fill="#141414"/>
<path fill-rule="evenodd" clip-rule="evenodd" d="M90.3322 30.3488H91.8941V6.88886L74.9922 26.8332V7.13284H73.4294V30.9406L90.3322 10.9962V30.3488ZM99.8544 7.13207H98.2925V30.3488H99.8544V18.3714H114.2V30.3488H115.763V7.13284H114.2V16.9826H99.8513V7.13284L99.8544 7.13207ZM132.739 30.3488H134.301V27.0772H135.299C144.106 27.0772 146.166 21.7863 146.166 18.0275C146.166 14.2687 144.106 8.97779 135.299 8.97779H134.301V6.18945H132.739V8.97779H131.745C122.938 8.97779 120.879 14.2687 120.879 18.0275C120.879 21.7863 122.938 27.0772 131.745 27.0772H132.739V30.3488ZM132.739 25.6846H131.674C124.359 25.6846 122.513 21.3688 122.513 18.0267C122.513 14.6846 124.356 10.3689 131.674 10.3689H132.739V25.6846ZM134.301 10.3696H135.367C142.681 10.3696 144.528 14.6854 144.528 18.0275C144.528 21.3696 142.681 25.6853 135.367 25.6853H134.301V10.3696ZM155.888 19.3148C159.972 19.3148 162.777 17.0523 162.777 13.189C162.777 9.22099 159.723 7.13284 155.853 7.13284H151.272V30.3488H152.835V19.3148H155.888ZM152.835 8.52469H155.711C159.155 8.52469 161.144 10.3348 161.144 13.2238C161.144 16.1477 159.049 17.9229 155.96 17.9229H152.835V8.52469ZM181.102 30.3488H182.806L172.974 6.43653L162.995 30.3488H164.7L167.86 22.7258H177.944L181.102 30.3488ZM168.428 21.334L172.938 10.3356L177.377 21.334H168.428ZM212.638 30.3488L214.733 11.6925L224.036 31.1846L233.34 11.6925L235.435 30.3496H236.997L234.298 6.33274L224.04 27.8084L213.778 6.33197L211.08 30.3488H212.638Z" fill="#141414"/>
<path d="M195.988 23.3454C198.984 23.3454 201.412 20.8962 201.412 17.8749C201.412 14.8535 198.984 12.4043 195.988 12.4043C192.993 12.4043 190.564 14.8535 190.564 17.8749C190.564 20.8962 192.993 23.3454 195.988 23.3454Z" fill="#141414"/>
<path fill-rule="evenodd" clip-rule="evenodd" d="M73.2336 48.346H74.6251V43.609H76.8959V42.3201H73.2336V48.346ZM80.2724 47.6443C80.4889 47.9142 80.7609 48.1335 81.0698 48.2867C81.3786 48.44 81.7168 48.5237 82.0609 48.5319C82.4631 48.5155 82.858 48.4182 83.2225 48.2458C83.587 48.0734 83.9136 47.8294 84.1833 47.528C84.453 47.2266 84.6604 46.8739 84.7932 46.4906C84.926 46.1073 84.9816 45.7012 84.9567 45.2959C84.9829 44.8942 84.9271 44.4914 84.7927 44.1123C84.6584 43.7332 84.4483 43.386 84.1756 43.092C83.9029 42.7981 83.5733 42.5637 83.2072 42.4033C82.8411 42.243 82.4462 42.1601 82.0471 42.1598C81.7095 42.1527 81.3746 42.2224 81.0674 42.3637C80.7601 42.5051 80.4884 42.7144 80.2724 42.9762V42.3201H78.8809V51.6278H80.2724V47.649V47.6443ZM81.8766 43.4208C82.3369 43.4861 82.7583 43.717 83.0633 44.0708C83.3682 44.4247 83.5362 44.8778 83.5362 45.3467C83.5362 45.8155 83.3682 46.2686 83.0633 46.6225C82.7583 46.9763 82.3369 47.2072 81.8766 47.2725C81.4122 47.213 80.9852 46.9847 80.6758 46.6303C80.3663 46.276 80.1956 45.82 80.1956 45.3478C80.1956 44.8756 80.3663 44.4196 80.6758 44.0653C80.9852 43.711 81.4122 43.4826 81.8766 43.4231V43.4208ZM86.9549 51.6254H88.5168L93.2726 42.3186H91.7106L89.979 45.8412L88.2757 42.3186H86.6001L89.1557 47.4019L86.9549 51.6254ZM95.2285 42.3201V48.346H96.6192V43.609H99.0328V48.346H100.424V42.3201H95.2285ZM103.175 42.3201V48.346H104.566V43.609H106.979V48.346H108.371V42.3201H103.175ZM115.495 43.0219C115.287 42.7483 115.018 42.528 114.71 42.3788C114.401 42.2296 114.063 42.1556 113.721 42.1629C113.319 42.163 112.922 42.2466 112.554 42.4085C112.186 42.5705 111.855 42.8073 111.582 43.1041C111.309 43.4009 111.1 43.7514 110.967 44.1336C110.834 44.5158 110.781 44.9215 110.811 45.3254C110.781 45.7304 110.833 46.1374 110.964 46.5215C111.095 46.9056 111.302 47.2586 111.573 47.559C111.844 47.8593 112.174 48.1006 112.54 48.268C112.907 48.4355 113.304 48.5255 113.707 48.5327C114.047 48.5386 114.383 48.4684 114.693 48.3272C115.002 48.186 115.276 47.9774 115.496 47.7164V48.346H116.887V42.3201H115.495V43.0219ZM113.891 43.4231C114.358 43.4806 114.787 43.7082 115.098 44.0629C115.41 44.4177 115.582 44.8752 115.582 45.349C115.582 45.8228 115.41 46.2802 115.098 46.635C114.787 46.9898 114.358 47.2174 113.891 47.2749C113.431 47.2097 113.009 46.979 112.704 46.6253C112.399 46.2715 112.231 45.8185 112.231 45.3496C112.231 44.8808 112.399 44.4276 112.703 44.0736C113.008 43.7196 113.429 43.4886 113.89 43.4231H113.891ZM123.935 42.3201V48.346H125.325V46.0999L125.555 45.8675L127.543 48.346H129.303L126.549 44.9528L129.16 42.3194H127.317L125.325 44.4679V42.3201H123.935ZM133.94 42.1652C133.317 42.1723 132.709 42.3653 132.194 42.7201C131.679 43.0748 131.28 43.5754 131.047 44.1586C130.813 44.7419 130.756 45.3818 130.883 45.9977C131.01 46.6135 131.314 47.1778 131.758 47.6194C132.202 48.0609 132.766 48.36 133.378 48.4789C133.991 48.5979 134.624 48.5313 135.199 48.2876C135.774 48.0439 136.265 47.6341 136.609 47.1097C136.953 46.5853 137.136 45.9698 137.134 45.3408C137.143 44.9173 137.066 44.4963 136.909 44.1037C136.751 43.7111 136.515 43.3551 136.216 43.0576C135.917 42.7601 135.561 42.5273 135.17 42.3734C134.778 42.2196 134.36 42.148 133.94 42.1629V42.1652ZM133.94 47.2772C133.556 47.3055 133.173 47.2165 132.84 47.0217C132.507 46.8269 132.24 46.5355 132.074 46.1853C131.908 45.8352 131.85 45.4426 131.908 45.0589C131.966 44.6751 132.138 44.318 132.401 44.0342C132.663 43.7503 133.005 43.5529 133.38 43.4676C133.756 43.3824 134.148 43.4133 134.506 43.5563C134.863 43.6993 135.17 43.9478 135.386 44.2693C135.602 44.5908 135.716 44.9704 135.715 45.3587C135.741 45.6059 135.713 45.8559 135.635 46.0917C135.557 46.3274 135.429 46.5435 135.261 46.7252C135.093 46.9068 134.888 47.05 134.66 47.1448C134.432 47.2396 134.187 47.284 133.94 47.2749V47.2772ZM138.891 48.3507H140.311L140.907 45.33L142.809 48.8092L144.711 45.33L145.308 48.3507H146.728L145.279 41.7787L142.809 46.3749L140.339 41.7787L138.891 48.3507ZM148.797 42.3225V48.346H150.189V43.609H152.602V48.346H153.993V42.3201H148.797V42.3225ZM161.116 43.0242C160.908 42.7506 160.639 42.5303 160.331 42.381C160.022 42.2318 159.683 42.1579 159.342 42.1652C158.94 42.1653 158.543 42.2489 158.174 42.411C157.806 42.573 157.475 42.8099 157.202 43.1069C156.929 43.4039 156.72 43.7546 156.587 44.137C156.455 44.5194 156.402 44.9253 156.432 45.3292C156.401 45.7343 156.453 46.1413 156.584 46.5254C156.715 46.9095 156.923 47.2625 157.194 47.5629C157.465 47.8632 157.794 48.1045 158.161 48.2719C158.528 48.4394 158.925 48.5294 159.328 48.5366C159.667 48.5424 160.004 48.4722 160.313 48.331C160.622 48.1898 160.896 47.9812 161.116 47.7202V48.346H162.508V42.3201H161.116V43.0219V43.0242ZM159.512 43.4254C159.978 43.4829 160.408 43.7105 160.719 44.0653C161.03 44.42 161.202 44.8775 161.202 45.3513C161.202 45.8251 161.03 46.2826 160.719 46.6373C160.408 46.9921 159.978 47.2197 159.512 47.2772C159.05 47.2139 158.626 46.9838 158.32 46.6296C158.013 46.2754 157.844 45.8211 157.843 45.3508C157.843 44.8805 158.012 44.426 158.318 44.0716C158.625 43.7172 159.048 43.4868 159.51 43.4231L159.512 43.4254ZM165.257 48.346H166.648V45.8427H169.118V48.346H170.509V42.3201H169.118V44.5508H166.648V42.3201H165.257V48.346ZM173.26 42.3178V48.8038L177.349 44.8374V48.346H178.739V41.7764L174.651 45.7428V42.3201H173.26V42.3178ZM181.49 42.3178V48.8038L185.578 44.8374V48.346H186.97V41.7764L182.881 45.7428V42.3201H181.49V42.3178ZM181.945 39.7115C182.101 40.2023 182.408 40.6303 182.822 40.9339C183.235 41.2376 183.733 41.4012 184.244 41.4012C184.755 41.4012 185.253 41.2376 185.667 40.9339C186.08 40.6303 186.387 40.2023 186.544 39.7115L185.408 39.3823C185.361 39.6545 185.217 39.8998 185.002 40.0713C184.788 40.2427 184.518 40.3284 184.244 40.3118C183.972 40.3239 183.704 40.2366 183.491 40.0659C183.277 39.8952 183.131 39.6525 183.08 39.3823L181.945 39.7115Z" fill="#141414"/>
</g>
<defs>
<clipPath id="clip0">
<rect width="237" height="54" fill="white"/>
</clipPath>
</defs>
</svg>
