<svg width="150" height="56" viewBox="0 0 150 56" fill="none" xmlns="http://www.w3.org/2000/svg">
<g clip-path="url(#clip0)">
<path fill-rule="evenodd" clip-rule="evenodd" d="M24.8847 0.653806V31.6965H17.8358V10.7404L15.0175 31.6965H10.015L7.04672 11.2169V31.6965H0V0.653806H10.442C10.7496 2.52047 11.0693 4.71655 11.4164 7.25192L12.5266 15.1534L14.3628 0.659297H24.8847V0.653806ZM42.0482 0.653806L46.6642 31.6965H38.4066L38.008 26.114H35.111L34.6336 31.6965H26.2839L30.3832 0.653806H42.0438H42.0482ZM37.7737 20.6162C37.3613 17.1024 36.9515 12.7612 36.5442 7.59232C35.7266 13.5283 35.2157 17.87 35.0113 20.6173H37.7737V20.6162ZM67.2613 0.653806L62.6453 14.667L67.7004 31.6965H59.3693L56.1131 18.3904V31.6965H48.0438V0.653806H56.1131V12.7158L59.6901 0.652708H67.2624L67.2613 0.653806ZM85.5898 10.0464H78.1018V7.74934C78.165 7.05142 78.0664 6.34831 77.8139 5.69491C77.7066 5.54338 77.5612 5.42296 77.3926 5.34583C77.224 5.26871 77.0381 5.23761 76.8536 5.25569C76.6346 5.24638 76.417 5.29681 76.2242 5.40161C76.0314 5.5064 75.8706 5.66164 75.7588 5.85083C75.4737 6.40635 75.345 7.02931 75.3865 7.65271C75.3396 8.45594 75.4829 9.25889 75.8047 9.99592C76.4005 10.8048 77.1836 11.456 78.0865 11.8933C81.6763 14.0272 83.9361 15.7771 84.8661 17.1431C85.796 18.509 86.2628 20.7146 86.2664 23.7598C86.3615 25.4269 86.096 27.0949 85.488 28.6494C84.8137 29.841 83.7582 30.7695 82.4923 31.2847C80.8698 32.0236 79.1028 32.3884 77.3212 32.352C75.4062 32.4068 73.5077 31.9834 71.7963 31.12C70.4426 30.4915 69.3713 29.3791 68.792 28.0005C68.2529 26.2559 68.0141 24.4319 68.0858 22.6069V20.5777H75.5726V24.3539C75.5044 25.1162 75.6116 25.884 75.8858 26.5983C76.0146 26.7713 76.1858 26.9079 76.3828 26.9951C76.5798 27.0822 76.7959 27.1169 77.0102 27.0957C77.2484 27.1099 77.486 27.0585 77.6971 26.947C77.9082 26.8356 78.0849 26.6682 78.208 26.4632C78.5058 25.8849 78.6413 25.2362 78.6 24.5867C78.6 22.7566 78.3518 21.5605 77.8555 20.9983C76.6928 19.9388 75.4291 18.9965 74.0825 18.1851C72.691 17.3066 71.3583 16.3379 70.0927 15.2852C69.3785 14.5835 68.8275 13.7324 68.4788 12.7926C68.0095 11.4916 67.7921 10.1127 67.8383 8.72989C67.7227 6.94355 68.0343 5.15537 68.7471 3.5142C69.417 2.35513 70.4485 1.44918 71.6825 0.936002C73.232 0.277406 74.904 -0.0415558 76.5865 0.00047314C78.4233 -0.0502113 80.2495 0.295416 81.9416 1.01396C83.1936 1.49136 84.2347 2.40083 84.8781 3.57898C85.4559 5.26262 85.698 7.04372 85.5909 8.82102V10.0464H85.5898ZM96.8671 0.653806V31.6965H88.7956V0.653806H96.8639H96.8671ZM108.172 0.653806V25.486H113.076V31.6965H100.098V0.653806H108.166H108.172ZM115.024 0.653806H128.474V6.86541H123.088V12.7498H128.124V18.6606H123.088V25.486H129.005V31.6965H115.018V0.653806H115.024ZM131.326 0.653806H137.359C140.004 0.552427 142.652 0.732413 145.259 1.19075C146.456 1.44647 147.547 2.05886 148.391 2.94761C149.083 3.71637 149.55 4.66285 149.738 5.68173C149.966 7.64689 150.053 9.62582 150 11.6035V22.474C150.08 24.3466 149.946 26.2221 149.601 28.0642C149.39 28.926 148.912 29.6984 148.235 30.2701C147.529 30.8228 146.704 31.2035 145.826 31.3824C144.397 31.6299 142.948 31.7351 141.498 31.6965H131.324V0.653806H131.326ZM139.394 5.96283V26.3864C140.551 26.3864 141.27 26.1591 141.539 25.6935C141.907 24.4594 142.042 23.1672 141.937 21.8833V9.81694C141.966 8.91374 141.922 8.00968 141.806 7.11357C141.772 6.93288 141.699 6.76167 141.593 6.61161C141.487 6.46154 141.35 6.33614 141.192 6.24393C140.62 6.01162 140.003 5.91504 139.388 5.96173L139.394 5.96283ZM148.201 49.6318H147.746C147.089 49.6318 146.056 49.6187 146.056 48.5404C146.056 47.4215 146.861 47.4478 147.746 47.4478H148.201V49.6318ZM148.201 51.3173V53.5848H150V45.7514H147.748C145.71 45.7514 144.154 46.2905 144.154 48.5426C144.111 49.002 144.207 49.4639 144.429 49.8679C144.652 50.2718 144.991 50.5991 145.401 50.8067L143.792 53.5848H145.924L147.224 51.2932C147.372 51.3064 147.559 51.3195 147.748 51.3195H148.203L148.201 51.3173ZM140.92 53.5826H142.717V45.7514H141.027L139.553 48.3263L138.48 50.3214V45.7514H136.669V53.5848H138.359L139.954 50.7804L140.92 49.0005V53.5848V53.5826ZM129.106 53.5826H130.917V50.2885H133.358V53.5826H135.155V45.7514H133.358V48.704H130.918V45.7514H129.107V53.5848L129.106 53.5826ZM124.588 47.2041C125.633 47.2041 125.82 47.7531 125.82 48.7545H123.313C123.313 47.8014 123.504 47.2074 124.588 47.2074V47.2041ZM125.792 51.1416C125.792 51.6907 125.43 52.0047 124.558 52.0047C123.807 52.0047 123.311 51.7631 123.311 50.4817V50.2808H127.602V48.704C127.602 46.5606 126.61 45.6031 124.536 45.6031C124.118 45.5475 123.692 45.5895 123.293 45.726C122.894 45.8624 122.531 46.0896 122.234 46.3899C121.937 46.6901 121.712 47.0551 121.579 47.4566C121.446 47.858 121.407 48.2849 121.465 48.704V50.5103C121.465 52.6537 122.457 53.6111 124.536 53.6111C126.615 53.6111 127.602 52.8162 127.602 51.1439H125.792V51.1416ZM120.012 45.7481H118.204V51.9904H116.328V45.7514H114.557V51.9937H112.68V45.7514H110.87V53.5848H120.014V45.7514L120.012 45.7481ZM106.349 47.2041C107.395 47.2041 107.582 47.7531 107.582 48.7545H105.074C105.077 47.8014 105.264 47.2074 106.351 47.2074L106.349 47.2041ZM107.553 51.1416C107.553 51.6907 107.191 52.0047 106.319 52.0047C105.568 52.0047 105.072 51.7631 105.072 50.4817V50.2808H109.363V48.704C109.363 46.5606 108.371 45.6031 106.297 45.6031C105.88 45.5484 105.455 45.5911 105.056 45.728C104.657 45.8649 104.296 46.0922 103.999 46.3923C103.702 46.6924 103.479 47.0572 103.346 47.4581C103.213 47.8591 103.174 48.2855 103.232 48.704V50.5103C103.232 52.6537 104.224 53.6111 106.297 53.6111C108.371 53.6111 109.363 52.8162 109.363 51.1439H107.553V51.1416ZM98.6091 51.9509C98.4374 51.968 98.2641 51.9446 98.103 51.8826C97.9419 51.8205 97.7975 51.7214 97.6814 51.5934C97.5653 51.4653 97.4807 51.3118 97.4344 51.1451C97.3881 50.9784 97.3813 50.8031 97.4146 50.6333V48.8116C97.3706 48.6218 97.3698 48.4245 97.412 48.2344C97.4542 48.0442 97.5386 47.8659 97.6587 47.7128C97.7788 47.5597 97.9317 47.4355 98.106 47.3496C98.2804 47.2636 98.4718 47.218 98.6661 47.2162C99.3909 47.2162 99.8606 47.5939 99.8606 48.7391V50.6201C99.8932 50.7951 99.8842 50.9753 99.8344 51.1462C99.7846 51.317 99.6954 51.4737 99.5739 51.6035C99.4524 51.7334 99.3022 51.8327 99.1353 51.8934C98.9685 51.9541 98.7897 51.9746 98.6135 51.9531L98.6091 51.9509ZM95.5839 45.6295V56.0005H97.4201V52.9644C97.6081 53.2107 97.8561 53.4045 98.1402 53.5271C98.4243 53.6498 98.7351 53.6973 99.0427 53.6649C100.8 53.6649 101.698 52.5669 101.698 50.7002V48.6502C101.698 46.4387 100.652 45.5757 99.0974 45.5757C98.7333 45.5436 98.3673 45.6121 98.0392 45.7737C97.7111 45.9353 97.4334 46.1839 97.2361 46.4926L97.1025 45.6295H95.5839ZM87.6055 47.2074C88.6511 47.2074 88.8383 47.7564 88.8383 48.7578H86.331C86.3299 47.8014 86.5182 47.2074 87.6044 47.2074H87.6055ZM88.8099 51.145C88.8099 51.694 88.4474 52.008 87.5759 52.008C86.8248 52.008 86.3288 51.7664 86.3288 50.485V50.2808H90.6197V48.704C90.6197 46.5606 89.6277 45.6031 87.554 45.6031C87.1362 45.5484 86.7114 45.5911 86.3127 45.728C85.914 45.8649 85.5523 46.0922 85.2556 46.3923C84.9589 46.6924 84.7353 47.0572 84.6022 47.4581C84.4691 47.8591 84.4302 48.2855 84.4883 48.704V50.5103C84.4883 52.6537 85.4803 53.6111 87.554 53.6111C89.6277 53.6111 90.6197 52.8162 90.6197 51.1439H88.8099V51.145ZM83.031 53.5848V45.7514H81.2343V53.5848H83.031ZM75.6033 49.522H76.8504C77.0172 49.5033 77.1861 49.5233 77.344 49.5805C77.5019 49.6377 77.6446 49.7306 77.761 49.8519C77.8774 49.9732 77.9645 50.1197 78.0154 50.2802C78.0663 50.4406 78.0798 50.6106 78.0547 50.7771C78.0779 50.942 78.0629 51.1099 78.0108 51.268C77.9588 51.4261 77.8711 51.5701 77.7546 51.6887C77.6381 51.8073 77.496 51.8974 77.3392 51.952C77.1823 52.0066 77.0151 52.0243 76.8504 52.0036H75.6033V49.522ZM79.8799 50.7771C79.8263 48.8083 78.8748 47.9453 76.8504 47.9453H75.6033V45.7492H73.8055V53.5848H76.8493C80.135 53.5848 79.8799 50.8068 79.8799 50.7804V50.7771ZM66.2299 53.5848H68.0398V50.2907H70.4803V53.5848H72.277V45.7514H70.4803V48.704H68.0398V45.7514H66.2299V53.5848ZM60.1818 51.9531C60.7311 51.0018 60.9878 49.9088 60.9197 48.8116V47.3842H62.5566V51.9542H60.1818V51.9531ZM57.554 51.9531V55.0276H59.2434V53.5848H63.5474V55.0276H65.2642V51.9531H64.3522V45.7382H59.1361V48.8127C59.2533 49.9174 58.9823 51.0285 58.3697 51.9542H57.554V51.9531ZM53.665 52.075C52.6993 52.075 52.4453 51.5084 52.4453 50.5235V48.7984C52.4453 47.8102 52.7004 47.248 53.665 47.248C54.6296 47.248 54.8847 47.8146 54.8847 48.7984V50.5246C54.8847 51.5084 54.635 52.075 53.665 52.075ZM53.665 53.722C55.7453 53.722 56.7307 52.7635 56.7307 50.6201V48.704C56.7307 46.5606 55.7387 45.6031 53.665 45.6031C51.5912 45.6031 50.5993 46.6155 50.5993 48.704V50.6201C50.5938 52.7624 51.5858 53.7198 53.665 53.7198V53.722ZM47.389 53.5848H49.1847V45.7514H47.4963L46.0215 48.3263L44.9485 50.3214V45.7514H43.1387V53.5848H44.8281L46.4234 50.7804L47.389 49.0005V53.5848ZM37.1036 51.9531C37.653 51.0018 37.9097 49.9088 37.8416 48.8116V47.3842H39.4774V51.9542H37.1036V51.9531ZM34.4759 51.9531V55.0276H36.1653V53.5848H40.4693V55.0276H42.1861V51.9531H41.2774V45.7382H36.058V48.8127C36.1753 49.9174 35.9042 51.0286 35.2916 51.9542H34.4759V51.9531ZM30.5869 52.075C29.6212 52.075 29.3672 51.5084 29.3672 50.5235V48.7984C29.3672 47.8102 29.6223 47.248 30.5869 47.248C31.5515 47.248 31.8066 47.8146 31.8066 48.7984V50.5246C31.8066 51.5084 31.5526 52.075 30.5869 52.075ZM30.5869 53.722C32.6672 53.722 33.658 52.7635 33.658 50.6201V48.704C33.658 46.5606 32.6661 45.6031 30.5923 45.6031C28.5186 45.6031 27.5266 46.6155 27.5266 48.704V50.6201C27.5157 52.7624 28.5077 53.7198 30.5869 53.7198V53.722ZM24.9416 53.5848V47.3424H26.7383V45.7514H21.3734V47.3424H23.1438V53.5848H24.9416ZM17.5796 47.2063C18.6252 47.2063 18.8135 47.7553 18.8135 48.7567H16.3062C16.3062 47.8014 16.4934 47.2074 17.5796 47.2074V47.2063ZM18.7839 51.1439C18.7839 51.6929 18.4215 52.0069 17.55 52.0069C16.7989 52.0069 16.3029 51.7653 16.3029 50.4839V50.2808H20.5938V48.704C20.5938 46.5606 19.6018 45.6031 17.5281 45.6031C17.1103 45.5484 16.6855 45.5911 16.2868 45.728C15.8881 45.8649 15.5264 46.0922 15.2297 46.3923C14.933 46.6924 14.7094 47.0572 14.5763 47.4581C14.4432 47.8591 14.4042 48.2855 14.4624 48.704V50.5103C14.4624 52.6537 15.4555 53.6111 17.5336 53.6111C19.6117 53.6111 20.5993 52.8162 20.5993 51.1439H18.7872H18.7839ZM10.188 47.2469C10.2937 47.228 10.4023 47.2327 10.5061 47.2608C10.6098 47.2888 10.7061 47.3394 10.7881 47.409C10.8701 47.4787 10.9357 47.5656 10.9804 47.6636C11.025 47.7616 11.0475 47.8683 11.0464 47.976C11.0482 48.0838 11.0269 48.1907 10.9838 48.2895C10.9407 48.3882 10.8768 48.4765 10.7966 48.5482C10.7163 48.6199 10.6216 48.6735 10.5188 48.7051C10.416 48.7367 10.3077 48.7457 10.2011 48.7315H9.30657V47.248H10.1912L10.188 47.2469ZM9.30657 50.2006H10.0839C10.7814 50.2006 11.3453 50.3104 11.3453 51.1032C11.3453 51.896 10.8361 51.9926 10.1113 51.9926H9.30657V50.2006ZM10.0839 53.5848C11.827 53.5848 13.1551 53.2071 13.1551 51.1307C13.1915 50.7182 13.0808 50.3061 12.8426 49.9679C12.6044 49.6297 12.2542 49.3872 11.8544 49.2838C12.1543 49.1633 12.4089 48.9513 12.5822 48.6778C12.7554 48.4043 12.8387 48.0832 12.8201 47.7597C12.8201 46.2367 11.6934 45.7382 10.3522 45.7382H7.48248V53.5848H10.0839ZM6.14234 48.5953C6.14234 46.4519 5.20292 45.602 3.12482 45.602C1.04672 45.602 0 46.654 0 48.7984V50.5795C0 52.7624 0.99197 53.721 3.06569 53.721C5.13942 53.721 6.13138 52.8568 6.13138 50.7134H4.39817C4.43514 50.8979 4.42653 51.0886 4.37309 51.269C4.31964 51.4494 4.22299 51.6139 4.09157 51.7482C3.96014 51.8825 3.79794 51.9825 3.61912 52.0394C3.44031 52.0964 3.2503 52.1086 3.06569 52.075C2.1 52.075 1.84599 51.5084 1.84599 50.5235V48.7984C1.84599 47.8102 2.14051 47.248 3.15985 47.248C3.33773 47.2227 3.51906 47.2413 3.68819 47.302C3.85733 47.3627 4.00919 47.4638 4.13066 47.5965C4.25213 47.7293 4.33957 47.8897 4.38541 48.0639C4.43125 48.2381 4.43413 48.4208 4.3938 48.5964H6.13686L6.14234 48.5953ZM0 39.4201H150V40.0394H0V39.4201Z" fill="#141414"/>
</g>
<defs>
<clipPath id="clip0">
<rect width="150" height="56" fill="white"/>
</clipPath>
</defs>
</svg>
