<svg width="249" height="27" viewBox="0 0 249 27" fill="none" xmlns="http://www.w3.org/2000/svg">
<path d="M28.0024 0H0V26.9903H28.0024V0Z" fill="#141414"/>
<path d="M28.0024 20.639C24.6575 20.2591 19.7563 19.1487 17.9676 15.3013C17.1794 13.5967 17.4623 11.4247 18.7559 10.1584C20.686 8.27856 24.6271 7.51882 28.0024 7.59674V4.73311C24.4553 4.93765 16.9065 6.00908 16.0577 12.6227C15.4715 17.1812 19.7158 19.5383 20.4535 20.0935C22.4443 21.1552 25.092 21.798 28.0024 21.9247V20.639ZM7.92272 13.1682C9.07475 12.7883 10.8331 12.1941 11.8032 13.0902C13.1271 14.3175 12.8037 16.85 12.1367 19.4214C11.4293 22.1779 9.95394 24.9831 8.90296 26.9993H9.08486C10.0247 25.85 11.0251 24.35 11.9952 22.5578C12.6723 21.3013 13.986 17.6779 13.9659 14.6682C13.9557 13.4019 13.8749 12.126 13.2181 11.3954C12.3287 10.4019 10.5602 10.4701 9.47897 10.6454C6.0431 11.2006 2.56681 13.6454 0 16.7818V18.8954C1.75835 16.3727 5.91173 13.8208 7.92272 13.1682ZM12.9654 0.535055C13.0058 0.564276 13.0362 0.593496 13.0664 0.642198C13.1674 0.778561 13.2382 1.02207 13.2988 1.40194C13.5515 3.1357 14.2387 6.81752 11.9447 8.61947C10.1561 10.0221 6.62922 9.23311 4.98202 8.22986C4.214 7.77207 1.60678 5.82402 0.768019 3.72012C0.464854 2.96038 1.16213 2.48311 1.52593 2.66817C2.0009 2.90194 2.53648 3.63246 2.88007 4.06103C4.99213 6.77856 7.39724 8.27856 9.58003 8.2883C13.2483 8.29804 12.7229 4.10973 12.6218 0.72986C12.6218 0.700639 12.6218 0.554535 12.7835 0.496094C12.8138 0.496094 12.935 0.515574 12.9654 0.535055Z" fill="white"/>
<path d="M246.201 11.2985C246.201 10.3245 244.574 9.27251 242.118 9.27251H223.504V13.3245H242.118C244.574 13.3245 246.201 12.2628 246.201 11.2985ZM249 11.2985C249 13.9089 245.918 16.0226 242.118 16.0226H223.504V20.9414H220.705V6.57446H242.118C245.918 6.57446 249 8.67835 249 11.2985ZM214.773 13.7531C214.773 11.3375 210.255 8.89264 201.625 8.89264C192.995 8.89264 188.478 11.3375 188.478 13.7531C188.478 15.6719 193.723 18.5648 201.625 18.5648C209.528 18.5648 214.773 15.6719 214.773 13.7531ZM201.625 6.19459C212.165 6.19459 217.572 9.59394 217.572 13.7531C217.572 17.9122 210.427 21.2628 201.625 21.2628C192.814 21.2628 185.679 17.9122 185.679 13.7531C185.679 9.59394 191.095 6.19459 201.625 6.19459ZM185.679 6.57446H157.303V9.27251H170.096V20.9414H172.895V9.27251H185.689V6.57446H185.679ZM153.685 15.0193L147.309 9.38939L140.932 15.0193H153.685ZM156.746 17.7174H137.88L134.222 20.9414H130.078L147.309 5.72705L164.538 20.9414H160.395L156.746 17.7174ZM129.411 12.6914H112.677V15.3894H126.612V16.7433C124.329 17.7855 120.619 18.5648 116.012 18.5648C108.11 18.5648 102.864 15.6719 102.864 13.7531C102.864 11.3375 107.382 8.89264 116.012 8.89264C121.519 8.89264 125.349 9.88615 127.401 11.2401L128.957 8.99978C126.329 7.29524 122.004 6.19459 116.012 6.19459C105.472 6.19459 100.065 9.59394 100.065 13.7531C100.065 17.9122 107.21 21.2628 116.012 21.2628C121.63 21.2628 126.572 20.1329 129.411 18.2336V12.6914ZM65.8377 6.57446L53.6807 17.7466L41.5138 6.57446H38.0576V20.9414H40.8568V9.87641L52.9027 20.9414H54.4488L66.4945 9.87641V20.9414H69.2938V6.57446H65.8377ZM76.2363 9.27251V12.0972H96.5584V14.7953H76.2363V18.2433H97.4478V20.9414H73.4371V6.57446H97.4478V9.27251H76.2363Z" fill="black"/>
</svg>
