<svg width="138" height="35" viewBox="0 0 138 35" fill="none" xmlns="http://www.w3.org/2000/svg">
<path d="M12.2631 0.408691C9.71309 0.408691 6.65312 2.84054 4.17269 6.92421C1.52998 11.1914 0 16.4222 0 20.9876C0 27.6867 3.7786 34.4087 12.2631 34.4087C20.7475 34.4087 24.5261 27.6867 24.5261 20.9876C24.5261 16.4222 22.9961 11.1685 20.3534 6.94715C17.873 2.84054 14.813 0.408691 12.2631 0.408691ZM78.4929 10.4114H87.0701V32.5504H96.2731V10.4114H104.85V2.22111H78.4929V10.4114ZM124.508 10.4114H138V2.22111H124.508C112.106 2.22111 105.499 8.32367 105.499 17.4087C105.499 26.4937 112.129 32.5963 124.508 32.5963H138V24.383H124.508C118.759 24.383 115.027 22.3412 115.027 17.4087C115.027 12.4762 118.759 10.4114 124.508 10.4114ZM59.7853 2.24405L54.8708 20.3682L49.9563 2.24405H33.706V32.6192H42.9091V7.88777L49.6086 32.5733H60.1562L66.8557 7.86483V32.5733H76.0588V2.24405H59.7853Z" fill="#141414"/>
</svg>
