<svg width="108" height="80" viewBox="0 0 108 80" fill="none" xmlns="http://www.w3.org/2000/svg">
<path fill-rule="evenodd" clip-rule="evenodd" d="M91.8068 0C95.3639 1.08493 98.8616 1.76359 102.061 3.3242C104.068 4.30313 105.759 5.62416 106.837 7.58565C107.879 9.48044 107.791 11.3324 106.55 13.1168C105.568 14.527 104.215 15.5226 102.716 16.3572C99.5411 18.125 96.3527 19.8731 93.3645 21.937C92.1701 22.762 90.9831 23.6069 90.0976 24.7682C89.8994 25.0282 89.7446 24.9959 89.4935 24.8891C86.8614 23.77 84.1628 22.8229 81.4216 21.9669C81.483 21.6254 81.7992 21.6853 81.9936 21.6126C87.2305 19.6557 92.4518 17.6668 97.3402 14.9496C98.3072 14.4122 99.2268 13.8088 100.077 13.1055C102.563 11.0491 101.05 8.18809 99.0127 7.30741C98.5422 7.10395 98.1039 7.09809 97.6418 7.4253C87.0871 14.8932 75.2106 19.1447 62.3845 20.9809C47.0887 23.1705 31.991 22.1995 17.1451 17.9461C12.2173 16.5345 7.45937 14.7094 3.13691 11.943C1.99174 11.21 0.9193 10.3868 0 9.37776C1.80963 10.4291 3.65084 11.4112 5.56739 12.2553C11.14 14.7094 16.9962 16.2217 23.0206 17.1105C39.9249 19.604 56.6 18.4294 73.034 13.9343C78.761 12.3678 84.2729 10.2412 89.4488 7.34655C90.1785 6.93853 90.8931 6.5088 91.5093 5.94455C93.1973 4.39867 93.4511 2.67803 92.2812 0.738236C92.1585 0.53494 92.0247 0.338299 91.8068 0Z" fill="#141414"/>
<path fill-rule="evenodd" clip-rule="evenodd" d="M0 46.0842C28.8928 19.6916 77.0166 19.125 106.595 44.9378C106.436 45.056 106.346 44.9034 106.255 44.8382C94.6441 36.5113 81.6889 31.655 67.4584 30.1544C52.3824 28.5647 37.9086 30.8062 24.0953 37.0543C18.9608 39.3768 14.1443 42.235 9.64928 45.6189C9.21847 45.9433 8.79465 46.1003 8.24562 46.0953C5.54336 46.0708 2.84094 46.0842 0 46.0842Z" fill="#141414"/>
<path fill-rule="evenodd" clip-rule="evenodd" d="M64.3413 79.7064C61.5803 79.1294 59.2234 77.8397 57.0173 76.2943C52.6026 73.2016 49.3158 69.2297 46.8547 64.6402C46.5585 64.0878 46.2509 63.8647 45.5671 63.8862C43.5064 63.9508 43.4924 63.9189 43.5398 65.8877C43.5858 67.79 43.6439 69.6926 43.7365 71.5931C43.7611 72.0959 43.6255 72.2619 43.0746 72.2399C42.061 72.1996 41.0427 72.1969 40.0292 72.2401C39.4576 72.2643 39.3553 72.0666 39.38 71.5797C39.5994 67.263 39.6721 62.9434 39.5551 58.6226C39.5169 57.2089 39.4459 55.7959 39.3894 54.3825C39.3783 54.1074 39.2734 53.8005 39.7798 53.8126C43.2614 53.8955 46.7564 53.583 50.2233 54.0029C52.3236 54.2573 54.0986 55.1059 54.67 57.2342C55.4676 60.2056 53.8477 62.8391 51.3121 63.4241C50.8758 63.5248 50.9875 63.7082 51.1239 63.9657C53.1203 67.736 55.5283 71.2497 58.4985 74.4171C60.2927 76.3306 62.259 78.0743 64.3413 79.7064ZM43.6282 56.6888C43.6391 57.4597 43.5116 60.4931 43.5122 61.2389C43.5126 61.4704 43.4786 61.7188 43.8633 61.7075C45.3939 61.6626 46.9439 61.8588 48.4436 61.4196C50.0038 60.9627 50.6379 59.962 50.4405 58.3157C50.285 57.0195 49.3465 56.2089 47.8016 56.1448C46.5967 56.0948 45.387 56.1581 44.1801 56.1357C43.7205 56.1271 43.6231 56.3237 43.6282 56.6888Z" fill="#141414"/>
<path fill-rule="evenodd" clip-rule="evenodd" d="M35.5318 62.8638C35.4968 64.6337 35.3613 66.289 34.8705 67.8972C33.9664 70.8593 32.0106 72.4326 29.1342 72.8236C27.3779 73.0625 25.6292 73.0515 23.8893 72.6758C21.392 72.1361 19.7325 70.5632 18.981 68.0162C18.0257 64.7777 18.0213 61.4869 18.8541 58.2192C19.6125 55.2438 21.4747 53.5098 24.3687 53.0356C26.1975 52.7361 28.0284 52.7303 29.8428 53.1092C32.5992 53.6848 34.252 55.5154 34.998 58.3271C35.4 59.8425 35.5072 61.397 35.5318 62.8638ZM31.5223 62.9807C31.5145 61.3908 31.4774 59.8033 31.0071 58.2709C30.5545 56.7963 29.6574 55.7885 28.1723 55.5569C24.663 55.0091 23.1887 56.3333 22.6714 58.7834C22.0878 61.5481 22.0747 64.3453 22.7002 67.1045C23.2352 69.4634 24.5532 70.3987 27.0398 70.3684C29.343 70.3403 30.6381 69.2795 31.1615 66.9882C31.4623 65.671 31.5223 64.3287 31.5223 62.9807Z" fill="#141414"/>
<path fill-rule="evenodd" clip-rule="evenodd" d="M12.598 67.2213C12.8626 63.0089 12.8563 58.8699 12.5949 54.7363C12.5474 53.9853 12.7474 53.8153 13.4814 53.8359C15.3843 53.8897 15.3871 53.8527 15.2986 55.722C15.0552 60.8736 15.0979 66.0248 15.3611 71.1738C15.3941 71.8188 15.2287 71.9999 14.59 71.9598C13.6022 71.8981 12.474 72.2122 11.6554 71.8336C10.8317 71.4527 10.5247 70.2821 9.99755 69.4545C7.75623 65.9349 5.4952 62.4283 3.11197 59.0012C3.0029 58.8444 2.88696 58.6921 2.59322 58.5749C2.59322 60.2275 2.56756 61.8805 2.59918 63.5324C2.64867 66.1081 2.71481 68.6841 2.82525 71.2575C2.85076 71.8506 2.68472 72.0211 2.1232 71.9526C1.45186 71.8707 0.545584 72.2483 0.164621 71.7906C-0.156463 71.4051 0.086107 70.5395 0.114366 69.8878C0.334023 64.8118 0.341813 59.7362 0.0529599 54.6634C0.0138555 53.9795 0.194102 53.7576 0.867432 53.8456C1.26749 53.8976 1.69397 53.9217 2.08486 53.8427C3.50805 53.5552 4.24095 54.2493 4.93643 55.4117C7.15607 59.1212 9.50539 62.7536 11.9651 66.3131C12.175 66.6166 12.387 66.9186 12.598 67.2213Z" fill="#141414"/>
<path fill-rule="evenodd" clip-rule="evenodd" d="M107.107 56.7207C105.262 55.857 103.429 55.4484 101.519 55.5016C100.993 55.5162 100.461 55.5644 99.9447 55.6721C98.3346 56.0081 97.1818 56.9765 96.6978 58.6919C95.9812 61.2309 95.857 63.8122 96.564 66.375C97.211 68.7209 98.7994 69.9933 101.07 70.1033C101.798 70.1386 102.528 70.1518 103.257 70.1475C103.758 70.1444 104 69.9221 103.984 69.2988C103.934 67.4566 103.902 65.6137 103.631 63.7914C103.558 63.3021 103.591 63.1073 104.112 63.1276C105.117 63.1668 106.124 63.143 107.13 63.1369C107.423 63.1351 107.595 63.1733 107.548 63.5848C107.228 66.3354 107.28 69.1004 107.338 71.8625C107.35 72.4243 107.22 72.614 106.68 72.5889C105.293 72.5244 103.926 72.8406 102.546 72.9248C101.187 73.0078 99.8296 73.0398 98.4828 72.7726C95.5565 72.1914 93.6471 70.3526 92.7966 67.3006C92.0204 64.5147 91.9964 61.6785 92.6858 58.8742C93.5978 55.1657 95.8963 53.258 99.8024 52.9014C102.067 52.6945 104.327 52.9088 106.584 53.122C106.94 53.1555 107.128 53.2498 107.115 53.6947C107.087 54.6672 107.107 55.6412 107.107 56.7207Z" fill="#141414"/>
<path fill-rule="evenodd" clip-rule="evenodd" d="M77.0505 62.866C77.0894 60.065 76.9827 57.2669 76.8358 54.4705C76.8083 53.948 76.921 53.7747 77.5155 53.778C81.6418 53.8019 85.7684 53.8012 89.8948 53.7779C90.4706 53.7747 90.6197 53.9291 90.6151 54.4581C90.6013 56.0891 90.6257 56.0921 88.8921 56.0793C86.5304 56.0621 84.168 56.0613 81.8073 56.0052C81.1896 55.9904 81.0175 56.1589 81.0228 56.7227C81.0334 57.8416 80.9922 58.9628 80.916 60.0797C80.8795 60.6153 81.1048 60.7013 81.6091 60.699C83.998 60.688 86.388 60.7078 88.772 60.5488C89.4158 60.5059 89.6691 60.6214 89.6477 61.2974C89.5987 62.8404 89.6391 62.8517 87.9944 62.8007C85.8777 62.7348 83.7615 62.6971 81.6433 62.7183C81.1126 62.7237 80.8762 62.8142 80.9005 63.3847C80.9823 65.317 81.0246 67.2514 81.0393 69.1854C81.0435 69.7303 81.2488 69.8511 81.7988 69.8393C84.6756 69.7773 87.5535 69.7737 90.4297 69.6994C91.0917 69.6825 91.2409 69.8691 91.2294 70.4559C91.1984 72.0085 91.2271 72.0093 89.5813 72.0093C85.5907 72.0094 81.5999 71.9949 77.6095 72.0238C76.9583 72.0284 76.7972 71.8634 76.829 71.2615C76.9765 68.4653 77.081 65.6669 77.0505 62.866Z" fill="#141414"/>
<path fill-rule="evenodd" clip-rule="evenodd" d="M65.061 68.5508C65.9876 65.7887 66.9268 63.0304 67.8363 60.2631C68.4626 58.3578 69.0609 56.4435 69.6413 54.5249C69.7776 54.0748 69.9545 53.8421 70.5005 53.885C71.162 53.9369 71.8323 53.9196 72.4971 53.8913C72.9931 53.8702 73.0771 53.9877 72.8971 54.4419C71.9882 56.7351 71.1049 59.0375 70.2301 61.343C68.9675 64.671 67.7493 68.0142 66.7116 71.4127C66.5637 71.8968 66.33 72.0383 65.8218 72.0169C64.8912 71.9779 63.9548 71.9663 63.0258 72.0202C62.4041 72.0564 62.159 71.8243 61.9706 71.2871C60.0955 65.9429 58.1691 60.6156 56.0526 55.3521C55.4679 53.898 55.4703 53.8802 57.1171 53.9035C58.0946 53.9173 59.3171 53.5263 59.9799 54.0581C60.5982 54.5544 60.6384 55.7051 60.9225 56.5708C62.2351 60.572 63.5443 64.5745 64.8546 68.5764C64.9233 68.5678 64.9922 68.5594 65.061 68.5508Z" fill="#141414"/>
</svg>
