<svg width="308" height="58" viewBox="0 0 308 58" fill="none" xmlns="http://www.w3.org/2000/svg">
<g clip-path="url(#clip0)">
<path fill-rule="evenodd" clip-rule="evenodd" d="M0.144653 0.947754H50.8557V48.2302H20.0823L21.9605 44.0241L8.66873 57.5126V48.2302H0.144653V0.947754ZM12.1831 15.0281C9.74388 17.6213 8.52426 20.8567 8.52426 24.734C8.52426 28.7875 9.75584 32.0732 12.219 34.591C14.6821 37.1087 17.8029 38.3676 21.5814 38.3676C25.3359 38.3676 28.4567 37.0836 30.9437 34.5154C33.4309 31.9473 34.6744 28.6869 34.6744 24.734C34.6744 20.6805 33.4309 17.3948 30.9437 14.877C28.4806 12.3593 25.3599 11.1004 21.5814 11.1004C17.7791 11.1004 14.6463 12.4097 12.1831 15.0281ZM15.5909 31.3808C13.9886 29.5932 13.1875 27.3776 13.1875 24.734C13.1875 22.0148 13.9767 19.7866 15.555 18.0494C17.1573 16.3122 19.1661 15.4436 21.5814 15.4436C23.9728 15.4436 25.9696 16.3122 27.572 18.0494C29.198 19.7866 30.0112 22.0148 30.0112 24.734C30.0112 27.4029 29.2459 29.6185 27.7154 31.3808C26.2088 33.1433 24.1641 34.0244 21.5814 34.0244C19.2139 34.0244 17.2171 33.1433 15.5909 31.3808ZM38.7197 31.0758L38.2863 11.1004H43.5857L42.8373 31.0758H38.7197ZM38.5752 33.5813V38.15H43.1985V33.5813H38.5752Z" fill="#141414"/>
<path d="M50.8565 0.948496H50.9288V0.875977H50.8565V0.948496ZM0.14548 0.948496V0.875977H0.0732422V0.948496H0.14548ZM50.8565 48.2309V48.3035H50.9288V48.2309H50.8565ZM20.0832 48.2309L20.0173 48.2012L19.9716 48.3035H20.0832V48.2309ZM21.9613 44.0248L22.0272 44.0546L21.9101 43.9738L21.9613 44.0248ZM8.66956 57.5134H8.59732V57.6897L8.72092 57.5644L8.66956 57.5134ZM8.66956 48.2309H8.7418V48.1584H8.66956V48.2309ZM0.14548 48.2309H0.0732422V48.3035H0.14548V48.2309ZM12.184 15.0288L12.1314 14.9791L12.184 15.0288ZM12.2198 34.5917L12.2714 34.5409L12.2198 34.5917ZM30.9446 34.5161L30.8928 34.4657L30.9446 34.5161ZM30.9446 14.8778L30.8931 14.9286L30.8933 14.9289L30.9446 14.8778ZM15.5917 31.3816L15.5379 31.4301L15.5387 31.4309L15.5917 31.3816ZM15.5559 18.0501L15.5028 18.0009L15.5025 18.0012L15.5559 18.0501ZM27.5728 18.0501L27.5198 18.0994L27.5201 18.0998L27.5728 18.0501ZM27.7163 31.3816L27.6618 31.334L27.6614 31.3344L27.7163 31.3816ZM38.2871 11.1012V11.0286H38.2133L38.2149 11.1027L38.2871 11.1012ZM38.7206 31.0765L38.6483 31.0781L38.6499 31.1491H38.7206V31.0765ZM43.5865 11.1012L43.6586 11.1039L43.6615 11.0286H43.5865V11.1012ZM42.8381 31.0765V31.1491H42.9078L42.9104 31.0793L42.8381 31.0765ZM38.5761 38.1508H38.5038V38.2233H38.5761V38.1508ZM38.5761 33.5821V33.5096H38.5038V33.5821H38.5761ZM43.1993 38.1508V38.2233H43.2715V38.1508H43.1993ZM43.1993 33.5821H43.2715V33.5096H43.1993V33.5821ZM50.8565 0.875977H0.14548V1.02101H50.8565V0.875977ZM50.9288 48.2309V0.948496H50.7843V48.2309H50.9288ZM20.0832 48.3035H50.8565V48.1584H20.0832V48.3035ZM21.8955 43.9951L20.0173 48.2012L20.149 48.2607L22.0272 44.0546L21.8955 43.9951ZM8.72092 57.5644L22.0126 44.0759L21.9101 43.9738L8.6182 57.4623L8.72092 57.5644ZM8.59732 48.2309V57.5134H8.7418V48.2309H8.59732ZM0.14548 48.3035H8.66956V48.1584H0.14548V48.3035ZM0.0732422 0.948496V48.2309H0.217718V0.948496H0.0732422ZM8.59732 24.7348C8.59732 20.8741 9.81105 17.6572 12.2365 15.0786L12.1314 14.9791C9.67836 17.587 8.45285 20.8406 8.45285 24.7348H8.59732ZM12.2714 34.5409C9.82346 32.0387 8.59732 28.7723 8.59732 24.7348H8.45285C8.45285 28.8042 9.68986 32.1092 12.1683 34.6426L12.2714 34.5409ZM21.5822 38.2958C17.8215 38.2958 14.7198 37.0437 12.2714 34.5409L12.1683 34.6426C14.6461 37.1753 17.786 38.4409 21.5822 38.4409V38.2958ZM30.8928 34.4657C28.4201 37.0189 25.3184 38.2958 21.5822 38.2958V38.4409C25.3551 38.4409 28.495 37.1497 30.9964 34.5667L30.8928 34.4657ZM34.603 24.7348C34.603 28.6709 33.3654 31.9125 30.8928 34.4657L30.9964 34.5667C33.498 31.9836 34.7475 28.7043 34.7475 24.7348H34.603ZM30.8933 14.9289C33.365 17.4311 34.603 20.6973 34.603 24.7348H34.7475C34.7475 20.665 33.4983 17.36 30.9959 14.8267L30.8933 14.9289ZM21.5822 11.1737C25.3429 11.1737 28.4446 12.4258 30.8931 14.9286L30.9961 14.827C28.5184 12.2942 25.3785 11.0286 21.5822 11.0286V11.1737ZM12.2365 15.0786C14.6851 12.4756 17.7984 11.1737 21.5822 11.1737V11.0286C17.7613 11.0286 14.6091 12.3451 12.1314 14.9791L12.2365 15.0786ZM13.1161 24.7348C13.1161 27.3943 13.9226 29.6278 15.5381 31.4301L15.6454 31.3331C14.0563 29.5602 13.2606 27.3624 13.2606 24.7348H13.1161ZM15.5025 18.0012C13.9101 19.754 13.1161 22.0005 13.1161 24.7348H13.2606C13.2606 22.0307 14.0449 19.8209 15.6092 18.099L15.5025 18.0012ZM21.5822 15.3718C19.1474 15.3718 17.1191 16.2484 15.5028 18.0009L15.6089 18.0994C17.1971 16.3774 19.1864 15.5169 21.5822 15.5169V15.3718ZM27.6257 18.0009C26.0096 16.2486 23.9934 15.3718 21.5822 15.3718V15.5169C23.9538 15.5169 25.9314 16.3772 27.5198 18.0994L27.6257 18.0009ZM30.0842 24.7348C30.0842 21.9999 29.2659 19.7531 27.6254 18.0005L27.5201 18.0998C29.1318 19.8217 29.9397 22.0312 29.9397 24.7348H30.0842ZM27.7707 31.4293C29.3143 29.6517 30.0842 27.4184 30.0842 24.7348H29.9397C29.9397 27.3887 29.1792 29.5866 27.6618 31.334L27.7707 31.4293ZM21.5822 34.0977C24.1832 34.0977 26.249 33.2093 27.771 31.4288L27.6614 31.3344C26.1702 33.0788 24.1467 33.9527 21.5822 33.9527V34.0977ZM15.5387 31.4309C17.1783 33.2079 19.1943 34.0977 21.5822 34.0977V33.9527C19.2351 33.9527 17.2574 33.0801 15.6447 31.3323L15.5387 31.4309ZM38.2149 11.1027L38.6483 31.0781L38.7928 31.075L38.3594 11.0996L38.2149 11.1027ZM43.5865 11.0286H38.2871V11.1737H43.5865V11.0286ZM42.9104 31.0793L43.6586 11.1039L43.5143 11.0984L42.7659 31.0738L42.9104 31.0793ZM38.7206 31.1491H42.8381V31.004H38.7206V31.1491ZM38.6483 38.1508V33.5821H38.5038V38.1508H38.6483ZM43.1993 38.0783H38.5761V38.2233H43.1993V38.0783ZM43.1271 33.5821V38.1508H43.2715V33.5821H43.1271ZM38.5761 33.6546H43.1993V33.5096H38.5761V33.6546Z" fill="black"/>
</g>
<path d="M98.4791 42.3962H91.4534L81.0659 23.9816V42.3962H74V12.8027H81.0659L91.4333 31.2174V12.8027H98.4791V42.3962Z" fill="black"/>
<path d="M125.938 12.8027V32.1727C125.938 34.3678 125.475 36.2716 124.549 37.884C123.623 39.483 122.294 40.7025 120.563 41.5426C118.831 42.3827 116.785 42.8027 114.423 42.8027C110.853 42.8027 108.041 41.8678 105.988 39.9979C103.935 38.1279 102.888 35.567 102.848 32.3149V12.8027H109.954V32.4572C110.034 35.6957 111.524 37.3149 114.423 37.3149C115.886 37.3149 116.993 36.9084 117.744 36.0954C118.496 35.2824 118.872 33.9613 118.872 32.132V12.8027H125.938Z" fill="black"/>
<path d="M141.257 31.9491H137.432V42.3962H130.366V12.8027H141.901C145.377 12.8027 148.095 13.5819 150.054 15.1401C152.014 16.6984 152.993 18.9003 152.993 21.7458C152.993 23.8054 152.577 25.5128 151.745 26.8678C150.927 28.2228 149.638 29.3203 147.88 30.1605L154 42.0914V42.3962H146.431L141.257 31.9491ZM137.432 26.4409H141.901C143.243 26.4409 144.25 26.0886 144.921 25.384C145.605 24.6659 145.948 23.6699 145.948 22.3962C145.948 21.1225 145.605 20.1266 144.921 19.4084C144.237 18.6767 143.23 18.3109 141.901 18.3109H137.432V26.4409Z" fill="black"/>
<path d="M182.97 17.6434H174.334V43.3914H169.56V17.6434H161V13.448H182.97V17.6434Z" fill="black"/>
<path d="M193.527 43.8027C190.598 43.8027 188.22 42.8087 186.394 40.8207C184.581 38.819 183.674 36.1592 183.674 32.8413V32.2243C183.674 30.0032 184.067 28.0221 184.853 26.2809C185.652 24.526 186.768 23.1618 188.201 22.1883C189.634 21.2149 191.232 20.7282 192.995 20.7282C195.797 20.7282 197.959 21.6948 199.481 23.6279C201.015 25.5611 201.783 28.2963 201.783 31.8336V33.849H188.334C188.474 35.6862 189.038 37.1395 190.027 38.2089C191.029 39.2783 192.284 39.813 193.793 39.813C195.911 39.813 197.636 38.8876 198.967 37.0367L201.459 39.6074C200.635 40.9373 199.532 41.9724 198.149 42.7128C196.78 43.4394 195.239 43.8027 193.527 43.8027ZM192.976 24.7385C191.707 24.7385 190.68 25.2183 189.894 26.1781C189.12 27.1378 188.626 28.4745 188.41 30.1883H197.217V29.8182C197.116 28.1455 196.704 26.8841 195.981 26.0341C195.258 25.1703 194.256 24.7385 192.976 24.7385Z" fill="black"/>
<path d="M210.304 43.3914H205.682V11.8027H210.304V43.3914Z" fill="black"/>
<path d="M224.418 43.8027C221.489 43.8027 219.111 42.8087 217.285 40.8207C215.472 38.819 214.565 36.1592 214.565 32.8413V32.2243C214.565 30.0032 214.958 28.0221 215.745 26.2809C216.543 24.526 217.659 23.1618 219.092 22.1883C220.525 21.2149 222.123 20.7282 223.886 20.7282C226.688 20.7282 228.851 21.6948 230.372 23.6279C231.907 25.5611 232.674 28.2963 232.674 31.8336V33.849H219.226C219.365 35.6862 219.929 37.1395 220.918 38.2089C221.92 39.2783 223.176 39.813 224.685 39.813C226.803 39.813 228.527 38.8876 229.859 37.0367L232.351 39.6074C231.526 40.9373 230.423 41.9724 229.041 42.7128C227.671 43.4394 226.13 43.8027 224.418 43.8027ZM223.867 24.7385C222.599 24.7385 221.572 25.2183 220.785 26.1781C220.012 27.1378 219.517 28.4745 219.302 30.1883H228.109V29.8182C228.007 28.1455 227.595 26.8841 226.872 26.0341C226.149 25.1703 225.148 24.7385 223.867 24.7385Z" fill="black"/>
<path d="M244.734 39.813C245.888 39.813 246.845 39.4497 247.606 38.723C248.367 37.9964 248.773 37.0984 248.823 36.029H253.179C253.129 37.4137 252.729 38.7093 251.981 39.9158C251.233 41.1086 250.218 42.0547 248.938 42.7539C247.657 43.4531 246.274 43.8027 244.791 43.8027C241.912 43.8027 239.63 42.795 237.943 40.7796C236.256 38.7642 235.413 35.981 235.413 32.43V31.9158C235.413 28.5294 236.25 25.8216 237.924 23.7925C239.598 21.7496 241.88 20.7282 244.772 20.7282C247.219 20.7282 249.21 21.5028 250.745 23.0521C252.292 24.5877 253.103 26.6099 253.179 29.1189H248.823C248.773 27.8439 248.367 26.795 247.606 25.9724C246.858 25.1498 245.9 24.7385 244.734 24.7385C243.237 24.7385 242.083 25.328 241.272 26.5071C240.46 27.6725 240.048 29.448 240.035 31.8336V32.6356C240.035 35.0487 240.435 36.8516 241.234 38.0444C242.045 39.2235 243.212 39.813 244.734 39.813Z" fill="black"/>
<path d="M255.804 32.0598C255.804 29.8799 256.204 27.9193 257.003 26.1781C257.802 24.4231 258.924 23.0795 260.37 22.1472C261.815 21.2012 263.476 20.7282 265.353 20.7282C268.13 20.7282 270.381 21.6948 272.106 23.6279C273.843 25.5611 274.782 28.1249 274.921 31.3194L274.94 32.4917C274.94 34.6853 274.547 36.6459 273.761 38.3734C272.987 40.1009 271.871 41.4377 270.413 42.3837C268.967 43.3297 267.293 43.8027 265.391 43.8027C262.487 43.8027 260.16 42.7607 258.41 40.6768C256.673 38.5791 255.804 35.789 255.804 32.3066V32.0598ZM260.427 32.4917C260.427 34.7813 260.864 36.5774 261.739 37.8799C262.614 39.1686 263.832 39.813 265.391 39.813C266.951 39.813 268.162 39.1549 269.024 37.8387C269.899 36.5225 270.337 34.5962 270.337 32.0598C270.337 29.8113 269.887 28.029 268.986 26.7128C268.099 25.3966 266.888 24.7385 265.353 24.7385C263.844 24.7385 262.646 25.3897 261.758 26.6922C260.87 27.981 260.427 29.9141 260.427 32.4917Z" fill="black"/>
<path d="M283.196 21.1395L283.329 23.4634C284.774 21.6399 286.753 20.7282 289.264 20.7282C292.015 20.7282 293.899 21.8661 294.913 24.1421C296.409 21.8661 298.514 20.7282 301.228 20.7282C303.498 20.7282 305.185 21.4068 306.288 22.7642C307.404 24.1215 307.975 26.1232 308 28.7693V43.3914H303.378V28.9133C303.378 27.5011 303.092 26.466 302.522 25.8079C301.951 25.1498 301.006 24.8207 299.688 24.8207C298.635 24.8207 297.773 25.1292 297.101 25.7462C296.441 26.3494 295.978 27.1446 295.712 28.1318L295.731 43.3914H291.109V28.7488C291.045 26.1301 289.809 24.8207 287.399 24.8207C285.548 24.8207 284.236 25.6365 283.462 27.268V43.3914H278.84V21.1395H283.196Z" fill="black"/>
<defs>
<clipPath id="clip0">
<rect width="51" height="57" fill="white" transform="translate(0 0.802734)"/>
</clipPath>
</defs>
</svg>
