<svg width="362" height="67" viewBox="0 0 362 67" fill="none" xmlns="http://www.w3.org/2000/svg">
<path fill-rule="evenodd" clip-rule="evenodd" d="M0.172852 0.17041H60.8272V55.748H24.0199L26.2663 50.804L10.3683 66.659V55.748H0.172852V0.17041ZM14.5718 16.721C11.6543 19.7692 10.1955 23.5722 10.1955 28.1297C10.1955 32.8944 11.6686 36.7565 14.6147 39.7159C17.5608 42.6754 21.2935 44.1551 25.8129 44.1551C30.3036 44.1551 34.0363 42.6459 37.011 39.6271C39.9858 36.6085 41.4731 32.7761 41.4731 28.1297C41.4731 23.365 39.9858 19.5029 37.011 16.5434C34.0648 13.584 30.3323 12.1043 25.8129 12.1043C21.265 12.1043 17.5179 13.6432 14.5718 16.721ZM18.6477 35.9426C16.7313 33.8414 15.7731 31.2371 15.7731 28.1297C15.7731 24.9335 16.7171 22.3143 18.6049 20.2723C20.5213 18.2304 22.924 17.2094 25.8129 17.2094C28.6732 17.2094 31.0615 18.2304 32.9781 20.2723C34.923 22.3143 35.8955 24.9335 35.8955 28.1297C35.8955 31.2668 34.9802 33.8711 33.1497 35.9426C31.3477 38.0143 28.902 39.05 25.8129 39.05C22.9812 39.05 20.5928 38.0143 18.6477 35.9426ZM46.3117 35.5841L45.7932 12.1043H52.1317L51.2366 35.5841H46.3117ZM46.1389 38.5292V43.8994H51.6686V38.5292H46.1389Z" fill="#141414"/>
<path d="M60.8272 0.170691H60.9136V0.0854492H60.8272V0.170691ZM0.172828 0.170691V0.0854492H0.0864258V0.170691H0.172828ZM60.8272 55.7483V55.8335H60.9136V55.7483H60.8272ZM24.0199 55.7483L23.9411 55.7134L23.8864 55.8335H24.0199V55.7483ZM26.2663 50.8043L26.3451 50.8392L26.205 50.7443L26.2663 50.8043ZM10.3683 66.6592H10.2819V66.8666L10.4297 66.7193L10.3683 66.6592ZM10.3683 55.7483H10.4547V55.6631H10.3683V55.7483ZM0.172828 55.7483H0.0864258V55.8335H0.172828V55.7483ZM14.5718 16.7213L14.509 16.6628L14.5718 16.7213ZM14.6147 39.7162L14.6763 39.6565L14.6147 39.7162ZM37.011 39.6274L36.9491 39.5681L37.011 39.6274ZM37.011 16.5437L36.9494 16.6034L36.9496 16.6037L37.011 16.5437ZM18.6477 35.9429L18.5834 36L18.5843 36.0009L18.6477 35.9429ZM18.6049 20.2726L18.5414 20.2148L18.5411 20.2151L18.6049 20.2726ZM32.978 20.2726L32.9146 20.3305L32.915 20.331L32.978 20.2726ZM33.1496 35.9429L33.0845 35.887L33.084 35.8875L33.1496 35.9429ZM45.7932 12.1045V12.0193H45.7049L45.7068 12.1064L45.7932 12.1045ZM46.3116 35.5844L46.2252 35.5862L46.2271 35.6696H46.3116V35.5844ZM52.1317 12.1045L52.2179 12.1077L52.2214 12.0193H52.1317V12.1045ZM51.2366 35.5844V35.6696H51.3199L51.323 35.5876L51.2366 35.5844ZM46.1388 43.8997H46.0524V43.9849H46.1388V43.8997ZM46.1388 38.5295V38.4442H46.0524V38.5295H46.1388ZM51.6686 43.8997V43.9849H51.755V43.8997H51.6686ZM51.6686 38.5295H51.755V38.4442H51.6686V38.5295ZM60.8272 0.0854492H0.172828V0.255933H60.8272V0.0854492ZM60.9136 55.7483V0.170691H60.7408V55.7483H60.9136ZM24.0199 55.8335H60.8272V55.6631H24.0199V55.8335ZM26.1875 50.7693L23.9411 55.7134L24.0987 55.7832L26.3451 50.8392L26.1875 50.7693ZM10.4297 66.7193L26.3277 50.8643L26.205 50.7443L10.3069 66.5992L10.4297 66.7193ZM10.2819 55.7483V66.6592H10.4547V55.7483H10.2819ZM0.172828 55.8335H10.3683V55.6631H0.172828V55.8335ZM0.0864258 0.170691V55.7483H0.25923V0.170691H0.0864258ZM10.2819 28.13C10.2819 23.5921 11.7336 19.8107 14.6346 16.7798L14.509 16.6628C11.5749 19.7282 10.1091 23.5527 10.1091 28.13H10.2819ZM14.6763 39.6565C11.7485 36.7154 10.2819 32.8759 10.2819 28.13H10.1091C10.1091 32.9134 11.5887 36.7982 14.5531 39.776L14.6763 39.6565ZM25.8129 44.0702C21.3148 44.0702 17.6048 42.5984 14.6763 39.6565L14.5531 39.776C17.5167 42.753 21.2723 44.2407 25.8129 44.2407V44.0702ZM36.9491 39.5681C33.9915 42.5692 30.2816 44.0702 25.8129 44.0702V44.2407C30.3255 44.2407 34.0811 42.723 37.073 39.6869L36.9491 39.5681ZM41.3867 28.13C41.3867 32.7567 39.9065 36.567 36.9491 39.5681L37.073 39.6869C40.0651 36.6506 41.5595 32.7959 41.5595 28.13H41.3867ZM36.9496 16.6037C39.9059 19.5449 41.3867 23.3842 41.3867 28.13H41.5595C41.5595 23.3462 40.0654 19.4614 37.0723 16.4837L36.9496 16.6037ZM25.8129 12.1898C30.311 12.1898 34.0207 13.6616 36.9494 16.6034L37.0726 16.484C34.109 13.5069 30.3535 12.0193 25.8129 12.0193V12.1898ZM14.6346 16.7798C17.5634 13.7201 21.2871 12.1898 25.8129 12.1898V12.0193C21.2427 12.0193 17.4725 13.5668 14.509 16.6628L14.6346 16.7798ZM15.6867 28.13C15.6867 31.2561 16.6514 33.8814 18.5836 36L18.712 35.886C16.8113 33.802 15.8595 31.2186 15.8595 28.13H15.6867ZM18.5411 20.2151C16.6364 22.2754 15.6867 24.916 15.6867 28.13H15.8595C15.8595 24.9515 16.7976 22.354 18.6686 20.33L18.5411 20.2151ZM25.8129 17.1244C22.9006 17.1244 20.4746 18.1548 18.5414 20.2148L18.6683 20.3305C20.5679 18.3064 22.9473 17.2949 25.8129 17.2949V17.1244ZM33.0413 20.2148C31.1083 18.155 28.6968 17.1244 25.8129 17.1244V17.2949C28.6495 17.2949 31.0148 18.3062 32.9146 20.3305L33.0413 20.2148ZM35.9819 28.13C35.9819 24.9153 35.0031 22.2744 33.0409 20.2143L32.915 20.331C34.8428 22.355 35.8091 24.9522 35.8091 28.13H35.9819ZM33.2148 35.999C35.061 33.9095 35.9819 31.2844 35.9819 28.13H35.8091C35.8091 31.2495 34.8995 33.833 33.0845 35.887L33.2148 35.999ZM25.8129 39.1355C28.9239 39.1355 31.3946 38.0913 33.2151 35.9985L33.084 35.8875C31.3005 37.9379 28.8802 38.9651 25.8129 38.9651V39.1355ZM18.5843 36.0009C20.5454 38.0896 22.9568 39.1355 25.8129 39.1355V38.9651C23.0055 38.9651 20.64 37.9394 18.7111 35.8849L18.5843 36.0009ZM45.7068 12.1064L46.2252 35.5862L46.398 35.5825L45.8796 12.1027L45.7068 12.1064ZM52.1317 12.0193H45.7932V12.1898H52.1317V12.0193ZM51.323 35.5876L52.2179 12.1077L52.0453 12.1013L51.1502 35.5811L51.323 35.5876ZM46.3116 35.6696H51.2366V35.4991H46.3116V35.6696ZM46.2252 43.8997V38.5295H46.0524V43.8997H46.2252ZM51.6686 43.8145H46.1388V43.9849H51.6686V43.8145ZM51.5822 38.5295V43.8997H51.755V38.5295H51.5822ZM46.1388 38.6147H51.6686V38.4442H46.1388V38.6147Z" fill="black"/>
<path d="M113.293 51.4851H104.599L91.7441 28.1599V51.4851H83V14H91.7441L104.574 37.3252V14H113.293V51.4851Z" fill="black"/>
<path d="M147.273 14V38.5352C147.273 41.3157 146.7 43.7272 145.554 45.7696C144.408 47.7949 142.764 49.3397 140.621 50.4038C138.479 51.4679 135.946 52 133.023 52C128.605 52 125.126 50.8157 122.585 48.4472C120.044 46.0786 118.749 42.8347 118.699 38.7154V14H127.493V38.8957C127.592 42.9977 129.436 45.0488 133.023 45.0488C134.833 45.0488 136.204 44.5339 137.134 43.5041C138.064 42.4743 138.529 40.8008 138.529 38.4837V14H147.273Z" fill="black"/>
<path d="M166.231 38.252H161.497V51.4851H152.753V14H167.028C171.329 14 174.692 14.9869 177.117 16.9607C179.542 18.9345 180.754 21.7236 180.754 25.3279C180.754 27.9368 180.24 30.0994 179.21 31.8157C178.197 33.5321 176.602 34.9223 174.427 35.9865L182 51.0989V51.4851H172.633L166.231 38.252ZM161.497 31.2751H167.028C168.689 31.2751 169.934 30.8288 170.765 29.9363C171.612 29.0266 172.035 27.7651 172.035 26.1518C172.035 24.5384 171.612 23.2769 170.765 22.3672C169.918 21.4404 168.672 20.977 167.028 20.977H161.497V31.2751Z" fill="black"/>
<path d="M217.408 20.9357H207.421V51.5116H201.899V20.9357H192V15.9537H217.408V20.9357Z" fill="black"/>
<path d="M229.616 52C226.229 52 223.479 50.8196 221.367 48.4589C219.27 46.0818 218.222 42.9233 218.222 38.9833V38.2506C218.222 35.6131 218.676 33.2605 219.585 31.1928C220.509 29.1088 221.8 27.4889 223.457 26.3329C225.114 25.1769 226.962 24.599 229.001 24.599C232.242 24.599 234.742 25.7468 236.502 28.0424C238.276 30.338 239.164 33.5861 239.164 37.7866V40.1799H223.611C223.772 42.3616 224.425 44.0874 225.569 45.3573C226.727 46.6272 228.179 47.2622 229.924 47.2622C232.374 47.2622 234.368 46.1632 235.908 43.9653L238.79 47.018C237.836 48.5973 236.56 49.8265 234.962 50.7057C233.378 51.5686 231.596 52 229.616 52ZM228.979 29.3612C227.512 29.3612 226.324 29.931 225.415 31.0707C224.52 32.2104 223.948 33.7978 223.699 35.8329H233.884V35.3933C233.767 33.407 233.29 31.9092 232.454 30.8997C231.618 29.874 230.46 29.3612 228.979 29.3612Z" fill="black"/>
<path d="M249.019 51.5116H243.673V14H249.019V51.5116Z" fill="black"/>
<path d="M265.341 52C261.953 52 259.204 50.8196 257.092 48.4589C254.995 46.0818 253.946 42.9233 253.946 38.9833V38.2506C253.946 35.6131 254.401 33.2605 255.31 31.1928C256.234 29.1088 257.525 27.4889 259.182 26.3329C260.839 25.1769 262.687 24.599 264.725 24.599C267.966 24.599 270.467 25.7468 272.226 28.0424C274.001 30.338 274.888 33.5861 274.888 37.7866V40.1799H259.336C259.497 42.3616 260.15 44.0874 261.293 45.3573C262.452 46.6272 263.904 47.2622 265.649 47.2622C268.098 47.2622 270.093 46.1632 271.633 43.9653L274.514 47.018C273.561 48.5973 272.285 49.8265 270.687 50.7057C269.103 51.5686 267.321 52 265.341 52ZM264.703 29.3612C263.237 29.3612 262.049 29.931 261.139 31.0707C260.245 32.2104 259.673 33.7978 259.424 35.8329H269.609V35.3933C269.491 33.407 269.015 31.9092 268.179 30.8997C267.343 29.874 266.184 29.3612 264.703 29.3612Z" fill="black"/>
<path d="M288.835 47.2622C290.169 47.2622 291.277 46.8308 292.157 45.9679C293.036 45.105 293.506 44.0386 293.564 42.7686H298.602C298.543 44.413 298.081 45.9516 297.216 47.3843C296.351 48.8008 295.178 49.9242 293.696 50.7545C292.215 51.5848 290.617 52 288.901 52C285.572 52 282.932 50.8033 280.982 48.41C279.031 46.0167 278.056 42.7117 278.056 38.4949V37.8843C278.056 33.8629 279.024 30.6474 280.96 28.2378C282.895 25.8119 285.535 24.599 288.879 24.599C291.709 24.599 294.012 25.5189 295.786 27.3586C297.575 29.1821 298.514 31.5835 298.602 34.563H293.564C293.506 33.0488 293.036 31.8033 292.157 30.8265C291.291 29.8496 290.184 29.3612 288.835 29.3612C287.104 29.3612 285.77 30.0613 284.831 31.4614C283.893 32.8453 283.416 34.9537 283.401 37.7866V38.7391C283.401 41.6045 283.863 43.7455 284.787 45.162C285.726 46.5621 287.075 47.2622 288.835 47.2622Z" fill="black"/>
<path d="M301.638 38.0553C301.638 35.4666 302.1 33.1384 303.024 31.0707C303.947 28.9867 305.245 27.3912 306.917 26.2841C308.589 25.1607 310.51 24.599 312.681 24.599C315.892 24.599 318.495 25.7468 320.49 28.0424C322.499 30.338 323.584 33.3826 323.746 37.1761L323.768 38.5681C323.768 41.1731 323.313 43.5013 322.404 45.5527C321.509 47.6041 320.219 49.1915 318.532 50.3149C316.86 51.4383 314.924 52 312.725 52C309.366 52 306.675 50.7626 304.651 48.2879C302.642 45.7969 301.638 42.4837 301.638 38.3483V38.0553ZM306.983 38.5681C306.983 41.2871 307.489 43.4199 308.501 44.9666C309.513 46.497 310.921 47.2622 312.725 47.2622C314.528 47.2622 315.929 46.4807 316.926 44.9177C317.938 43.3548 318.444 41.0673 318.444 38.0553C318.444 35.3852 317.923 33.2686 316.882 31.7057C315.856 30.1427 314.455 29.3612 312.681 29.3612C310.935 29.3612 309.55 30.1345 308.523 31.6812C307.496 33.2117 306.983 35.5073 306.983 38.5681Z" fill="black"/>
<path d="M333.315 25.0874L333.469 27.847C335.141 25.6817 337.428 24.599 340.332 24.599C343.514 24.599 345.692 25.9503 346.865 28.653C348.596 25.9503 351.03 24.599 354.169 24.599C356.794 24.599 358.744 25.4049 360.02 27.0167C361.311 28.6285 361.971 31.0056 362 34.1478V51.5116H356.655V34.3188C356.655 32.6418 356.325 31.4126 355.665 30.6311C355.005 29.8496 353.912 29.4589 352.387 29.4589C351.17 29.4589 350.172 29.8252 349.395 30.5578C348.633 31.2742 348.097 32.2185 347.789 33.3907L347.811 51.5116H342.466V34.1234C342.393 31.0137 340.963 29.4589 338.176 29.4589C336.035 29.4589 334.517 30.4276 333.623 32.365V51.5116H328.277V25.0874H333.315Z" fill="black"/>
</svg>
