<svg width="246" height="61" viewBox="0 0 246 61" fill="none" xmlns="http://www.w3.org/2000/svg">
<path fill-rule="evenodd" clip-rule="evenodd" d="M43.5367 0L29.1939 15.1128L21.7207 22.986L28.6856 30.3249L43.0284 15.2121L57.3712 30.3249L50.5005 37.5633L57.8795 45.3385L72.2223 30.2257L43.5367 0Z" fill="#141414"/>
<path fill-rule="evenodd" clip-rule="evenodd" d="M43.5366 30.2255L29.1939 45.3383L14.8511 30.2255L21.7207 22.9859L14.3428 15.2119L0 30.3247L28.6856 60.5492L43.0284 45.4364L50.5004 37.562L43.5366 30.2243V30.2255Z" fill="#141414"/>
<path fill-rule="evenodd" clip-rule="evenodd" d="M84.9267 33.4679C85.7265 33.4679 86.3857 33.3484 86.8849 33.0913C87.8538 32.6251 88.2962 31.6329 88.2962 30.294C88.2962 29.1846 87.8821 28.202 86.9688 27.6174C86.4424 27.3006 85.7832 27.181 84.8699 27.181H84.0712V33.4691H84.9267V33.4679ZM80.2864 23.9485H85.0401C86.6965 23.9485 88.0807 24.1864 89.1528 24.7614C91.1382 25.7537 92.2206 27.6473 92.2206 30.2952C92.2206 32.5366 91.3084 34.9264 88.5969 36.0274C87.5713 36.4338 86.3108 36.6908 84.7009 36.6908H84.061V43.1271H80.2773V23.9485H80.2875H80.2864ZM104.4 35.2431L103.325 32.0107C102.883 30.612 102.667 29.7991 102.497 29.1535H102.44C102.3 29.829 102.028 30.6419 101.528 32.0405L100.428 35.2443H104.399L104.4 35.2431ZM100.87 23.8589H103.938L111.373 43.1271H107.307L105.537 38.4362H99.3545L97.6698 43.1271H93.7738L100.87 23.8589ZM118.817 32.655C119.646 32.655 120.172 32.5068 120.643 32.2485C121.358 31.7823 121.857 30.9993 121.857 29.9174C121.857 28.8965 121.414 28.0238 120.615 27.5875C120.2 27.3197 119.683 27.181 118.845 27.181H117.405V32.6562H118.817V32.655ZM113.622 23.9485H119.061C120.689 23.9485 121.903 24.2068 122.873 24.6718C124.972 25.6341 125.772 27.4691 125.772 29.5014C125.772 31.9999 124.285 33.756 122.234 34.4207V34.4805C122.788 34.7972 123.588 35.848 124.558 37.6245L127.513 43.1271H123.174L120.775 38.5259C119.861 36.7207 119.221 35.9975 118.789 35.8779H117.405V43.1271H113.622V23.9485Z" fill="#141414"/>
<path d="M134.148 23.9482H130.365V43.1268H134.148V23.9482Z" fill="#141414"/>
<path fill-rule="evenodd" clip-rule="evenodd" d="M141.913 27.3304H136.605V23.9484H151.466L150.467 27.3304H145.697V43.127H141.913V27.3304ZM153.592 23.9484H164.115L163.116 27.3304H157.375V31.7535H163.145V35.0948H157.375V39.7559H164.086V43.127H153.592V23.9484ZM171.295 27.3304H165.997V23.9484H180.847L179.858 27.3304H175.078V43.127H171.295V27.3304ZM187.981 41.3219C190.437 41.3219 192.065 40.301 192.065 37.7427C192.065 35.5909 190.55 34.2221 188.226 34.2221H185.27V41.3231H187.981V41.3219ZM187.257 32.417C189.685 32.417 190.983 31.1678 190.983 29.0351C190.983 27.1224 189.929 25.7428 187.332 25.7428H185.261V32.4074H187.257V32.417ZM183.228 23.9484H187.454C191.322 23.9484 193.035 26.1899 193.035 28.8079C193.035 30.7613 192.122 32.2987 190.635 32.9729V33.0327C192.678 33.4989 194.174 35.2729 194.174 37.6925C194.174 40.925 192.018 43.1366 187.981 43.1366H183.228V23.9484ZM206.399 36.1755L204.516 30.6418C203.933 28.9562 203.66 28.0536 203.434 27.3304H203.377C203.152 28.0644 202.851 28.9562 202.277 30.6418L200.366 36.1755H206.399ZM202.7 23.8887H204.111L211.076 43.127H208.864L207.067 37.9806H199.745L197.947 43.127H195.792L202.7 23.8887ZM226.944 43.127L218.219 30.9598C217.338 29.7463 216.481 28.5131 215.65 27.261H215.594C215.65 28.2222 215.678 29.0351 215.678 30.5425V43.1175H213.636V23.9484H215.594L223.988 35.6495C224.894 36.9228 225.778 38.2121 226.642 39.5168H226.699C226.642 38.4959 226.642 37.6531 226.642 36.1456V23.9484H228.656V43.127H226.944ZM233.136 23.9484H235.178V32.735H235.235L242.142 23.9484H244.571L237.004 33.4379L245.06 43.127H242.501L235.235 34.3704H235.178V43.127H233.136V23.9484Z" fill="#141414"/>
</svg>
