<svg width="239" height="60" viewBox="0 0 239 60" fill="none" xmlns="http://www.w3.org/2000/svg">
<path fill-rule="evenodd" clip-rule="evenodd" d="M42.4601 0L28.4719 14.7391L21.1836 22.4176L27.9762 29.575L41.9644 14.8359L55.9525 29.575L49.2516 36.6344L56.4482 44.2173L70.4363 29.4782L42.4601 0Z" fill="#141414"/>
<path fill-rule="evenodd" clip-rule="evenodd" d="M42.46 29.4783L28.4719 44.2174L14.4838 29.4783L21.1835 22.4177L13.9881 14.8359L0 29.575L27.9762 59.0521L41.9643 44.313L49.2516 36.6333L42.46 29.4771V29.4783Z" fill="#141414"/>
<path fill-rule="evenodd" clip-rule="evenodd" d="M82.8265 32.6399C83.6066 32.6399 84.2494 32.5234 84.7363 32.2727C85.6812 31.818 86.1127 30.8503 86.1127 29.5445C86.1127 28.4626 85.7089 27.5042 84.8182 26.9341C84.3047 26.6251 83.6619 26.5086 82.7712 26.5086H81.9922V32.6411H82.8265V32.6399ZM78.301 23.356H82.9371C84.5526 23.356 85.9025 23.588 86.9481 24.1488C88.8845 25.1165 89.94 26.9632 89.94 29.5457C89.94 31.7317 89.0504 34.0623 86.406 35.1361C85.4057 35.5325 84.1764 35.7832 82.6063 35.7832H81.9823V42.0603H78.2921V23.356H78.3021H78.301ZM101.818 34.3713L100.77 31.2187C100.339 29.8546 100.129 29.0618 99.9625 28.4323H99.9072C99.77 29.091 99.5044 29.8838 99.0176 31.2479L97.9443 34.3725H101.817L101.818 34.3713ZM98.3758 23.2686H101.368L108.619 42.0603H104.653L102.927 37.4854H96.8976L95.2545 42.0603H91.4548L98.3758 23.2686ZM115.879 31.8471C116.687 31.8471 117.2 31.7026 117.66 31.4507C118.357 30.996 118.843 30.2324 118.843 29.1773C118.843 28.1816 118.412 27.3305 117.632 26.905C117.228 26.6438 116.723 26.5086 115.906 26.5086H114.502V31.8483H115.879V31.8471ZM110.813 23.356H116.117C117.705 23.356 118.889 23.6078 119.835 24.0614C121.882 24.9999 122.662 26.7895 122.662 28.7715C122.662 31.2082 121.211 32.9209 119.211 33.5692V33.6275C119.752 33.9364 120.532 34.9612 121.478 36.6937L124.359 42.0603H120.128L117.788 37.5728C116.897 35.8123 116.273 35.107 115.852 34.9904H114.502V42.0603H110.813V23.356Z" fill="#141414"/>
<path d="M130.83 23.356H127.141V42.0602H130.83V23.356Z" fill="#141414"/>
<path fill-rule="evenodd" clip-rule="evenodd" d="M138.403 26.6544H133.227V23.3561H147.72L146.746 26.6544H142.094V42.0605H138.403V26.6544ZM149.793 23.3561H160.056L159.082 26.6544H153.484V30.9682H159.11V34.2269H153.484V38.7727H160.028V42.0605H149.793V23.3561ZM167.059 26.6544H161.892V23.3561H176.374L175.411 26.6544H170.748V42.0605H167.059V26.6544ZM183.332 40.3C185.727 40.3 187.315 39.3043 187.315 36.8093C187.315 34.7107 185.838 33.3758 183.571 33.3758H180.689V40.3011H183.332V40.3ZM182.626 31.6153C184.994 31.6153 186.26 30.3969 186.26 28.317C186.26 26.4516 185.232 25.1061 182.699 25.1061H180.68V31.606H182.626V31.6153ZM178.697 23.3561H182.819C186.591 23.3561 188.261 25.5422 188.261 28.0955C188.261 30.0005 187.371 31.4999 185.921 32.1574V32.2157C187.913 32.6704 189.372 34.4006 189.372 36.7603C189.372 39.9129 187.27 42.0698 183.332 42.0698H178.697V23.3561ZM201.295 35.2808L199.459 29.8839C198.89 28.24 198.623 27.3598 198.403 26.6544H198.348C198.128 27.3703 197.835 28.24 197.275 29.8839L195.411 35.2808H201.295ZM197.687 23.2979H199.064L205.857 42.0605H203.699L201.946 37.0413H194.805L193.052 42.0605H190.95L197.687 23.2979ZM221.332 42.0605L212.823 30.1941C211.963 29.0106 211.128 27.808 210.317 26.5868H210.263C210.317 27.5242 210.344 28.317 210.344 29.7872V42.0511H208.353V23.3561H210.263L218.449 34.7678C219.332 36.0097 220.195 37.2671 221.037 38.5395H221.093C221.037 37.5438 221.037 36.7219 221.037 35.2517V23.3561H223.001V42.0605H221.332ZM227.371 23.3561H229.363V31.9254H229.418L236.154 23.3561H238.523L231.143 32.6109L239 42.0605H236.504L229.418 33.5203H229.363V42.0605H227.371V23.3561Z" fill="#141414"/>
</svg>
