<svg width="237" height="28" viewBox="0 0 237 28" fill="none" xmlns="http://www.w3.org/2000/svg">
<path d="M14.7588 25.3809C13.0427 26.7528 11.3265 27.4389 9.26719 27.4389C5.14853 27.4389 2.40261 25.2094 1.0297 20.579C0.343228 18.5211 0 16.1203 0 13.5479C0 9.432 0.858068 6.34518 2.57422 3.94423C4.29038 1.54328 6.69299 0.171387 9.61038 0.171387C11.4982 0.171387 13.7292 0.857427 15.6169 1.88631L14.7588 8.23161C14.7588 8.23161 14.2441 6.85971 14.0724 6.34518C13.0427 3.60121 11.3265 2.57234 9.43888 2.74385C7.37937 2.91535 4.11876 5.83066 4.97683 12.8618C6.34979 26.5813 14.0724 23.666 15.4454 22.4655L14.7588 25.3809Z" fill="black"/>
<path fill-rule="evenodd" clip-rule="evenodd" d="M214.519 23.6662C216.407 21.0937 217.436 17.4923 217.436 13.0336C217.436 9.08928 216.578 5.83078 214.69 3.43001C212.975 1.20056 210.57 0 207.482 0C205.251 0 203.536 0.514528 201.99 1.54358C198.731 3.94436 197.014 8.06023 197.014 13.891C197.014 18.1784 197.872 21.4367 199.587 23.8377C201.304 26.2386 203.707 27.439 206.796 27.439C210.056 27.439 212.631 26.2386 214.519 23.6662ZM209.37 5.31643C210.743 6.85983 211.602 9.26079 212.287 12.3476C212.802 14.234 212.975 16.1204 212.802 18.0069C212.631 21.2652 211.602 23.1516 209.37 23.8377C207.653 24.3522 206.109 23.8377 204.736 22.1227C203.536 20.4078 202.506 17.8354 201.819 14.577C201.304 12.6906 201.304 10.9757 201.304 9.43212C201.475 6.34531 202.677 4.45889 204.909 3.77285C206.624 3.2585 208.168 3.77285 209.37 5.31643Z" fill="black"/>
<path fill-rule="evenodd" clip-rule="evenodd" d="M90.9556 0.514648L96.9622 22.9802C98.0684 25.9807 98.8836 26.2183 99.4077 26.371C99.4527 26.3841 99.4956 26.3966 99.5364 26.4102C99.8796 26.4102 100.051 26.5816 100.051 26.5816H95.4176H91.9853C91.9853 26.5816 91.9853 25.0382 91.8136 23.8378C91.4705 22.6374 90.6124 19.2074 90.6124 19.2074H90.2692C90.0975 19.0359 89.926 19.0359 89.7543 19.0359C89.0679 18.8644 88.3814 18.8644 87.5233 18.8644C86.6652 18.8644 85.9789 18.8644 85.2923 19.0359C85.1208 19.2074 84.9491 19.2074 84.7774 19.2074C84.6788 19.306 84.637 19.348 84.5864 19.3658C84.5492 19.3789 84.5072 19.3789 84.4342 19.3789L83.9194 21.0938C83.5762 22.8087 83.5762 23.3233 83.5762 23.6663C83.4047 25.5527 85.1208 26.5816 85.1208 26.5816L85.6355 26.7531C84.2627 26.5816 82.5466 26.5816 82.2032 26.5816H78.9426C78.9426 26.5816 80.1439 24.1808 82.5466 13.8911L84.6059 6.00242C84.6289 5.90262 84.6513 5.80577 84.6731 5.71208C85.1358 3.7105 85.2923 3.03337 85.2923 1.88655L90.9556 0.514648ZM89.754 15.9491L87.3514 7.03129L85.2919 15.9491C85.6161 15.9491 85.9785 15.9109 86.361 15.8704C86.7888 15.8254 87.2417 15.7776 87.6946 15.7776C88.5527 15.7776 89.0676 15.7776 89.754 15.9491Z" fill="black"/>
<path fill-rule="evenodd" clip-rule="evenodd" d="M28.4881 0.514648L34.4947 22.9802C35.5238 25.7718 36.427 26.2977 36.7727 26.4989C36.8304 26.5325 36.8726 26.5571 36.8972 26.5816C37.0689 26.5816 37.2404 26.7531 37.2404 26.7531C35.5243 26.5816 32.9501 26.5816 32.6069 26.5816H29.1746C29.1746 26.5816 29.1746 25.0382 29.0029 23.8378C28.6597 22.6374 27.8017 19.2074 27.8017 19.2074H27.4585C27.2868 19.0359 27.1153 19.0359 26.9436 19.0359C26.2572 18.8644 25.5707 18.8644 24.7126 18.8644C23.8545 18.8644 23.1681 18.8644 22.4816 19.0359C22.3101 19.2074 22.1384 19.2074 21.9667 19.2074C21.8681 19.306 21.8261 19.348 21.7757 19.3658C21.7385 19.3789 21.6964 19.3789 21.6235 19.3789L21.2803 21.0938C21.1992 21.5801 21.0798 22.1045 20.9764 22.5587C20.8611 23.0657 20.7654 23.4853 20.7654 23.6663C20.6178 25.2887 21.8666 26.1499 22.3282 26.4683C22.4032 26.5202 22.4577 26.5577 22.4816 26.5816C22.8248 26.5816 22.9965 26.7531 22.9965 26.7531C21.6235 26.5816 20.0791 26.5816 19.7357 26.5816H16.4751C16.4751 26.5816 17.6764 24.1808 20.0791 13.8911L22.1384 6.00242C22.1614 5.90262 22.1837 5.80577 22.2056 5.71208C22.6683 3.7105 22.8248 3.03337 22.8248 1.88655L28.4881 0.514648ZM27.2864 15.9491L24.8839 7.03129L22.8246 15.9491C23.1486 15.9491 23.511 15.9109 23.8936 15.8704C24.3212 15.8254 24.7742 15.7776 25.2271 15.7776C26.0852 15.7776 26.6001 15.7776 27.2864 15.9491Z" fill="black"/>
<path d="M79.9722 0.514408C79.4574 0.685917 76.7115 0.685912 73.7941 0.685912H67.7876C64.87 0.685912 61.9526 0.685917 61.6094 0.514408H61.4377C61.4377 1.54329 61.6094 2.91536 61.6094 3.77273V4.45876V6.00217C62.2958 4.45877 64.87 3.42971 67.101 3.08687H67.7876C67.7876 3.2582 67.7876 3.2582 67.7876 3.2582C67.7876 3.60122 67.7876 3.94424 67.9591 4.63028C67.9591 4.80178 67.9591 4.97329 67.9591 5.31613C67.9591 6.34518 67.9591 7.20256 67.9591 8.74614V18.5213C67.9591 20.0647 67.9591 21.2651 67.9591 22.1226C67.9591 22.4655 67.9591 22.8085 67.9591 23.1515C67.9591 23.4945 67.9591 23.8375 67.9591 24.1805C67.9591 24.3519 67.9591 24.3519 67.9591 24.5234C67.7876 25.3809 67.6159 26.067 67.101 26.5813C67.9591 26.5813 69.5037 26.5813 70.8767 26.5813C72.2494 26.5813 73.7941 26.5813 74.6521 26.5813C74.3089 26.067 73.9658 25.3809 73.7941 24.5234C73.7941 24.5234 73.7941 24.3519 73.7941 24.1805C73.7941 24.009 73.7941 23.666 73.7941 23.1515C73.7941 22.8085 73.7941 22.4655 73.7941 22.1226C73.7941 21.0936 73.7941 19.8932 73.7941 18.5213V8.74614C73.7941 7.20256 73.7941 6.34518 73.7941 5.31613C73.7941 5.14462 73.7941 4.97329 73.7941 4.63028C73.7941 4.11575 73.7941 3.60122 73.7941 3.2582V3.08687H74.4805C76.7115 3.2582 79.4574 4.45877 79.9722 6.00217V3.60121C79.9722 2.74384 80.1437 1.20044 80.1437 0.171387L79.9722 0.514408Z" fill="black"/>
<path d="M58.1773 22.9802C58.1773 22.9802 58.1773 22.8087 58.1773 22.6372C58.1773 22.4657 58.1773 22.1229 58.1773 21.6083C58.1773 21.2653 58.1773 20.9223 58.1773 20.5793C58.1773 19.5504 58.1773 20.0649 58.1773 18.5215V8.74639C58.1773 7.20281 58.1773 6.0024 58.1773 4.97353C58.1773 4.80202 58.1773 4.63051 58.1773 4.2875C58.1773 3.77297 58.349 1.37202 58.8639 0.514648C58.8639 0.514648 58.8639 0.514648 58.6922 0.514648C57.8341 0.514648 56.2895 0.514648 55.2599 0.514648C53.3721 0.514648 49.9398 0.514648 49.7682 0.514648C52.6857 1.88655 52.8572 4.63051 52.8572 4.80202C52.8572 5.14486 52.8572 5.48788 52.8572 6.17392C52.8572 6.34543 52.8572 6.51694 52.8572 6.85996C52.8572 7.88884 52.8572 7.20281 52.8572 8.74639V11.1472C51.656 10.9757 50.4547 10.8043 49.0818 10.8043C48.9101 10.8043 48.9101 10.8043 48.7386 10.8043C48.5669 10.8043 48.5669 10.8043 48.3954 10.8043C47.0224 10.8043 45.821 10.9757 44.6197 11.1472V8.74639C44.6197 7.20281 44.6197 6.0024 44.6197 4.97353C44.6197 4.80202 44.6197 4.63051 44.6197 4.2875C44.6197 3.77297 44.7914 1.37202 45.3063 0.514648C45.3063 0.514648 45.3063 0.514648 45.1346 0.514648C44.2766 0.514648 43.4185 0.514648 42.3887 0.514648C40.5011 0.514648 36.3823 0.514648 36.0391 0.514648C38.9565 1.88655 39.1281 4.63051 39.1281 4.80202C39.1281 5.14486 39.1281 5.48788 39.2997 6.17392C39.2997 6.34543 39.2997 6.51694 39.2997 6.85996C39.2997 7.88884 39.2997 7.20281 39.2997 8.74639V18.5215C39.2997 20.0649 39.2997 21.2653 39.2997 22.2944C39.2997 22.6372 39.2997 22.9802 39.2997 23.3232C39.2997 23.6663 39.1281 26.2386 38.7849 26.7531C38.9565 26.7531 39.1281 26.7531 39.1281 26.7531C39.8145 26.7531 41.1875 26.7531 42.2172 26.7531C43.5902 26.7531 47.0224 26.7531 47.8805 26.7531C47.194 26.5816 45.4778 25.0382 44.9629 22.9802C44.9629 22.9802 44.9629 22.8087 44.9629 22.6372C44.9629 22.4657 44.9629 22.1229 44.9629 21.6083C44.9629 21.2653 44.9629 20.9223 44.9629 20.5793C44.9629 19.5504 44.9629 20.0649 44.9629 18.5215V14.0626C46.1644 13.8911 47.3656 13.7196 48.7386 13.7196H48.9101H49.0818C50.4547 13.7196 51.656 13.8911 52.8572 14.0626V18.35C52.8572 19.8934 52.8572 21.0938 52.8572 22.1229C52.8572 22.4657 52.8572 22.8087 52.8572 23.1517C52.8572 23.4948 52.6857 26.0672 52.3425 26.5816C52.514 26.5816 52.6857 26.5816 52.6857 26.5816C53.3721 26.5816 54.0587 26.5816 55.0882 26.5816C56.4612 26.5816 60.58 26.5816 61.4381 26.5816C60.2367 26.4101 58.5205 24.8667 58.1773 22.9802Z" fill="black"/>
<path fill-rule="evenodd" clip-rule="evenodd" d="M116.355 10.9757C119.959 10.8042 121.847 10.9757 123.048 11.3185C125.622 12.1761 127.167 15.0914 127.51 19.0358C127.51 21.6082 126.823 23.8377 125.45 25.2096C124.249 26.4099 122.876 27.096 120.988 27.096C120.775 27.096 120.179 27.0665 119.481 27.0321C118.493 26.9833 117.301 26.9245 116.698 26.9245H115.154H114.124H111.207H110.863C111.207 26.41 111.378 23.8377 111.378 23.4946V22.4658V18.6929V8.91777V7.03135V6.34531C111.207 5.65927 111.207 5.31643 111.207 4.97341C111.207 4.8019 111.035 2.05793 108.117 0.686035H113.952H117.385H125.45C125.279 1.71491 125.279 4.6304 125.279 4.6304V6.1738C124.421 4.6304 121.847 3.08699 118.071 3.2585H116.527V3.43001C116.355 3.77285 116.355 4.28738 116.355 4.8019V5.48776V8.74627V10.1182V10.8042V10.9757ZM120.13 23.8377C120.645 23.4946 120.988 23.1516 121.331 22.4656C121.675 21.6082 121.846 20.4077 121.846 19.2073C121.846 17.3208 121.503 15.9489 120.988 15.2629C120.13 14.234 118.242 13.548 116.355 14.0625V14.4055V18.5212V21.4367C116.355 25.038 119.787 24.1807 120.13 23.8377Z" fill="black"/>
<path d="M166.123 22.6368V20.5789C165.094 22.2938 162.518 24.0087 158.4 23.8374H157.027C156.684 23.3229 156.341 22.6368 156.341 21.4365C156.341 21.0934 156.341 20.7504 156.341 20.4074C156.341 19.3785 156.341 19.893 156.341 18.3495V14.0623H157.542C159.773 14.0623 161.146 14.5766 162.176 15.4342C162.176 14.4053 162.176 13.3762 162.176 12.3473C162.176 11.4898 162.176 10.2894 162.176 9.60338C161.318 10.4609 159.773 11.1468 157.714 10.9753H156.512V10.8038V9.9464V8.74583C156.512 7.20243 156.512 6.51656 156.512 5.48751C156.512 5.316 156.512 5.1445 156.512 4.80166C156.512 4.28713 156.512 3.7726 156.684 3.42958V3.25807H158.229C162.004 3.08656 164.235 4.63015 165.265 6.17355V4.28713C165.265 4.28713 165.436 1.54316 165.608 0.514284H157.542H154.11C152.222 0.514284 148.447 0.514282 148.275 0.342773C151.192 1.71467 151.364 4.63015 151.364 4.63015C151.364 4.97299 151.364 5.31601 151.536 6.00205C151.536 6.17356 151.536 6.34506 151.536 6.68808C151.536 7.71696 151.536 21.0934 151.536 22.1223C151.536 22.4653 151.536 22.8083 151.536 23.1514C151.536 23.4944 151.364 26.0667 151.021 26.5812C151.192 26.5812 151.364 26.5812 151.364 26.5812C152.051 26.5812 153.423 26.5812 154.453 26.5812H154.796H158.057H166.981C166.123 25.3808 166.123 22.6368 166.123 22.6368Z" fill="black"/>
<path d="M193.411 22.9802C193.411 22.9802 193.411 22.8087 193.411 22.6372C193.411 22.4657 193.411 22.1229 193.411 21.6083C193.411 21.2653 193.411 20.9223 193.411 20.5793C193.411 19.5504 193.411 20.0649 193.411 18.5215V8.74639C193.411 7.20281 193.411 6.0024 193.411 4.97353C193.411 4.80202 193.411 4.63051 193.411 4.2875C193.411 3.77297 193.582 1.37202 194.097 0.514648C194.097 0.514648 194.097 0.514648 193.926 0.514648C193.238 0.514648 184.487 0.514648 184.487 0.514648C187.06 1.88655 185.86 4.11599 185.86 4.63052C185.86 4.97354 185.687 5.31638 185.516 6.00242C185.516 6.17392 185.345 6.34543 185.345 6.68845C184.83 8.06034 185.001 7.54581 184.658 8.57487L182.599 13.8911L181.911 12.0047L180.882 8.74639C180.367 7.20281 179.852 6.0024 179.509 4.97353C179.509 4.80202 179.338 4.63051 179.338 4.2875C179.167 3.77297 178.479 1.37202 178.823 0.514648H168.184C168.869 0.686157 169.384 1.02917 170.071 1.54353C171.616 2.9156 171.272 5.65939 171.443 6.34542C171.443 6.51693 171.443 18.5215 171.443 18.5215C171.443 20.0649 171.443 21.2653 171.443 22.2944C171.443 22.6372 171.443 22.9802 171.443 23.3232C171.443 23.6663 171.272 26.2387 170.928 26.7531C171.101 26.7531 171.272 26.7531 171.272 26.7531C171.959 26.7531 173.503 26.7531 174.533 26.7531C175.906 26.7531 176.935 26.7531 177.794 26.7531C177.106 26.5816 175.391 25.0382 174.876 22.9802C174.876 22.9802 174.876 22.8087 174.876 22.6372C174.876 22.4657 174.876 22.1229 174.876 21.6083C174.876 21.2653 174.876 20.9223 174.876 20.5793C174.876 19.5504 174.876 8.74639 174.876 8.74639C174.876 7.88884 174.876 7.88883 174.876 7.2028C174.876 7.37431 174.876 7.37431 175.047 7.54582C175.391 8.57487 175.562 8.74638 176.077 10.2898L178.994 18.6929C179.509 20.2364 180.023 21.4368 180.196 22.4657C180.367 22.8087 180.367 23.1517 180.54 23.4948C180.711 23.8378 181.569 26.9246 181.569 26.9246C181.74 26.2387 182.255 24.6951 182.255 24.6951C182.599 23.3233 188.262 8.06035 188.433 7.54582C188.433 8.57487 188.433 18.6929 188.433 18.6929C188.433 20.2364 188.433 21.4368 188.433 22.4657C188.433 22.8087 188.433 23.1517 188.433 23.4948C188.433 23.8378 188.262 26.4101 187.918 26.9246C188.089 26.9246 188.262 26.9246 188.262 26.9246C188.948 26.9246 189.635 26.9246 190.665 26.9246C192.038 26.9246 196.155 26.9246 197.014 26.9246C195.641 26.4101 193.926 24.8667 193.411 22.9802Z" fill="black"/>
<path fill-rule="evenodd" clip-rule="evenodd" d="M139.008 16.1206H136.948V18.5215V20.5795V21.6083V22.6374V22.9802C137.463 25.0382 139.179 26.5816 139.866 26.7531H134.203H131.113H130.77C131.113 26.2387 131.285 23.6663 131.285 23.3232V22.2944V18.5215V8.74639V6.85996V6.17392C131.113 5.48788 131.113 5.14504 131.113 4.80202C131.113 4.63051 130.942 1.88655 128.024 0.514648H134.203H135.061H137.635H141.239C143.985 0.514648 146.044 1.54353 146.902 3.25862C147.245 4.11599 147.588 5.31655 147.588 6.51694C147.588 9.60375 147.245 11.6617 145.014 13.5481C143.641 14.9202 141.067 15.9491 139.008 16.1206ZM136.434 5.48788V8.74639V13.2051C136.503 13.2051 136.582 13.2063 136.672 13.2075C137.696 13.2217 139.962 13.2529 141.067 11.8332C141.925 10.8043 142.097 9.26073 142.097 7.71732C142.097 4.28749 140.553 2.74409 138.493 3.08694C137.978 3.08694 136.605 3.60146 136.434 5.31637V5.48788Z" fill="black"/>
<path fill-rule="evenodd" clip-rule="evenodd" d="M228.419 16.1206H225.846L226.36 18.693V20.751V21.7798V22.8087V23.1517C226.531 24.6951 228.59 26.5816 229.278 26.7531H223.614H220.524H220.182C220.524 26.2387 220.697 23.6663 220.697 23.3232V22.2944V18.5215V8.74639V6.85996V6.17392C220.524 5.48788 220.524 5.14504 220.524 4.80202C220.524 4.63051 220.353 1.88655 217.436 0.514648H223.614H224.473H227.046H230.651C233.395 0.514648 235.456 1.54353 236.314 3.25862C236.656 4.11599 237 5.31655 237 6.51694C237 9.60375 236.656 11.6617 234.426 13.5481C233.053 14.9202 230.651 15.9491 228.419 16.1206ZM225.846 5.48788V8.74639V13.2051C225.915 13.2051 225.994 13.2063 226.083 13.2075C227.086 13.2217 229.217 13.2517 230.48 11.8332C231.336 10.8043 231.509 9.26073 231.509 7.71732C231.509 4.28749 229.963 2.74409 227.905 3.08694C227.39 3.08694 226.017 3.60146 225.846 5.31637V5.48788Z" fill="black"/>
</svg>
