<svg width="256" height="60" viewBox="0 0 256 60" fill="none" xmlns="http://www.w3.org/2000/svg">
<path d="M112.045 15.8677H111.359C110.892 14.4144 110.364 13.3338 109.776 12.626C108.599 11.2198 107.039 10.5167 105.096 10.5167C102.798 10.5167 101.061 11.4322 99.8839 13.263C98.8846 14.8108 98.3848 16.8115 98.3848 19.2652C98.3848 21.7378 98.922 23.7574 99.9961 25.3239C101.238 27.1265 103.027 28.0277 105.362 28.0277C106.698 28.0277 107.889 27.7824 108.935 27.2916C109.832 26.8671 110.822 26.145 111.905 25.1258L112.395 25.7061C110.173 28.1223 107.618 29.3301 104.732 29.3301C101.846 29.3301 99.5103 28.4099 97.7263 26.5698C95.9515 24.7294 95.0643 22.3512 95.0643 19.4351C95.0643 16.5189 95.9655 14.1077 97.7682 12.2013C99.571 10.2855 101.911 9.32764 104.788 9.32764C106.021 9.32764 107.291 9.56829 108.599 10.0496C109.215 10.2761 109.715 10.3893 110.098 10.3893C110.518 10.3893 110.882 10.0449 111.191 9.35595H111.793L112.045 15.8677Z" fill="#141414"/>
<path d="M133.282 28.9198H125.296V28.3677C126.987 28.3109 127.832 27.7213 127.832 26.5982V12.6544C127.832 11.4747 126.987 10.8849 125.296 10.8849H121.654C119.972 10.8849 119.131 11.4747 119.131 12.6544V26.5982C119.131 27.7213 119.972 28.3109 121.654 28.3677V28.9198H113.681V28.3677C115.363 28.3109 116.203 27.7213 116.203 26.5982V12.0457C116.203 10.9227 115.363 10.3328 113.681 10.2762V9.72412H133.282V10.2762C131.601 10.3328 130.761 10.9227 130.761 12.0457V26.5982C130.761 27.7213 131.601 28.3109 133.282 28.3677V28.9198Z" fill="#141414"/>
<path d="M142.246 28.9198H134.274V28.3677C135.955 28.3109 136.796 27.7213 136.796 26.5982V12.0457C136.796 10.9227 135.955 10.3328 134.274 10.2762V9.72412H142.246V10.2762C140.565 10.3328 139.724 10.9227 139.724 12.0457V23.7811L148.929 12.0457C148.929 10.9227 148.089 10.3328 146.407 10.2762V9.72412H154.393V10.2762C152.703 10.3328 151.858 10.9227 151.858 12.0457V26.5982C151.858 27.7213 152.703 28.3109 154.393 28.3677V28.9198H146.407V28.3677C148.089 28.3109 148.929 27.7213 148.929 26.5982V14.0842L139.724 25.7488V26.5982C139.724 27.7213 140.565 28.3109 142.246 28.3677V28.9198Z" fill="#141414"/>
<path d="M165.786 10.9414V26.5981C165.786 27.7212 166.627 28.3108 168.308 28.3676V28.9197H160.336V28.3676C162.018 28.3108 162.858 27.7212 162.858 26.5981V10.9414H161.919C159.678 10.9414 158.281 11.3 157.73 12.0173C157.515 12.291 157.324 12.6685 157.156 13.1498C157.062 13.4046 156.936 13.9048 156.778 14.6503L155.696 13.1498L156.091 9.32764H172.656V13.4895L171.923 14.6503C171.689 13.4895 171.451 12.6873 171.208 12.2438C170.891 11.6587 170.415 11.2765 169.779 11.0971C169.406 10.9933 168.766 10.9414 167.86 10.9414H165.786Z" fill="#141414"/>
<path d="M181.311 9.32764L188.302 25.5221C188.713 26.4849 189.035 27.1171 189.269 27.4192C189.726 28.0325 190.315 28.3487 191.034 28.3676V28.9197H183.721V28.3676C185.075 28.2919 185.752 27.9758 185.752 27.4192C185.752 27.0226 185.514 26.2582 185.037 25.1258L184.001 22.6626H176.491C176.314 23.1345 176.141 23.5686 175.972 23.965C175.281 25.6071 174.936 26.6782 174.936 27.1784C174.936 27.9428 175.585 28.3393 176.883 28.3676V28.9197H171.209V28.3676C171.853 28.2448 172.349 27.9947 172.694 27.6173C173.198 27.07 173.936 25.6308 174.908 23.2997L180.736 9.32764H181.311ZM176.967 21.4735H183.594L180.274 13.4895L176.967 21.4735Z" fill="#141414"/>
<path d="M217.781 10.2762C216.119 10.3328 215.287 10.9227 215.287 12.0457V26.5982C215.287 27.7213 216.128 28.3109 217.809 28.3677V28.9198H209.823V28.3677C211.514 28.3109 212.359 27.7213 212.359 26.5982V12.4279L205.003 28.9198H204.611L197.41 13.0932V26.5982C197.41 27.7213 198.335 28.3109 200.184 28.3677V28.9198H193.361V28.3677C195.219 28.3109 196.149 27.7213 196.149 26.5982V12.0457C196.149 10.9227 195.238 10.3328 193.417 10.2762V9.72412H199.105L205.732 24.3615L212.065 9.72412H217.781V10.2762Z" fill="#141414"/>
<path d="M218.548 28.9198V28.3677C220.229 28.3109 221.07 27.7213 221.07 26.5982V12.0457C221.07 10.9227 220.229 10.3328 218.548 10.2762V9.72412H233.778V13.8718H233.148C232.961 13.0885 232.704 12.4893 232.377 12.074C231.77 11.3002 230.938 10.9132 229.883 10.9132H225.259C224.419 10.9132 223.998 11.2907 223.998 12.0457V18.2744H228.034C229.173 18.2744 230.009 18.0998 230.541 17.7506C231.205 17.3259 231.555 16.5756 231.592 15.4998H232.195V22.2805H231.592C231.555 21.2047 231.205 20.4497 230.541 20.0156C230 19.6475 229.164 19.4635 228.034 19.4635H223.998V26.5982C223.998 27.3532 224.246 27.7306 224.741 27.7306H228.524C229.944 27.7306 230.999 27.5937 231.69 27.3202C232.774 26.8861 233.717 25.7864 234.521 24.0217H235.333L234.03 28.9198H218.548Z" fill="#141414"/>
<path d="M250.321 18.515V12.0457C250.321 10.9227 249.476 10.3328 247.785 10.2762V9.72412H255.773V10.2762C254.091 10.3328 253.25 10.9227 253.25 12.0457V26.5982C253.25 27.7213 254.091 28.3109 255.773 28.3677V28.9198H247.785V28.3677C249.476 28.3109 250.321 27.7213 250.321 26.5982V19.7041H241.62V26.5982C241.62 27.7213 242.461 28.3109 244.143 28.3677V28.9198H236.17V28.3677C237.852 28.3109 238.692 27.7213 238.692 26.5982V12.0457C238.692 10.9227 237.852 10.3328 236.17 10.2762V9.72412H244.143V10.2762C242.461 10.3328 241.62 10.9227 241.62 12.0457V18.515H250.321Z" fill="#141414"/>
<path d="M202.575 42.1996C206.369 42.1996 208.267 43.4173 208.267 45.8531C208.267 47.1201 207.773 48.095 206.785 48.7777C205.927 49.3686 204.842 49.6641 203.53 49.6641H196.863V49.2801C198.033 49.2405 198.617 48.8304 198.617 48.0491V37.9258C198.617 37.1445 198.033 36.7341 196.863 36.6947V36.3105H207.243L207.36 39.6587H206.922C206.857 39.4225 206.753 39.068 206.61 38.5953C206.46 38.1751 206.282 37.8534 206.074 37.6303C205.775 37.3021 205.122 37.1377 204.115 37.1377H201.532C200.947 37.1377 200.655 37.4004 200.655 37.9258V42.1996H202.575ZM200.655 43.0268V47.793C200.655 48.2132 200.723 48.4956 200.859 48.64C201.035 48.8238 201.493 48.9156 202.234 48.9156C204.774 48.9156 206.045 47.9407 206.045 45.991C206.045 45.1439 205.807 44.4809 205.333 44.0016C205.073 43.7389 204.777 43.5486 204.446 43.4304C203.686 43.1614 202.484 43.0268 200.84 43.0268H200.655Z" fill="#141414"/>
<path d="M217.309 36.0347L222.173 47.3003C222.459 47.9699 222.683 48.4098 222.845 48.6198C223.164 49.0466 223.573 49.2664 224.073 49.2798V49.6637H218.986V49.2798C219.928 49.2271 220.399 49.0073 220.399 48.6198C220.399 48.3442 220.233 47.8123 219.902 47.0245L219.18 45.311H213.956C213.833 45.6392 213.713 45.9412 213.596 46.217C213.115 47.3593 212.875 48.1045 212.875 48.4524C212.875 48.9843 213.326 49.2599 214.229 49.2798V49.6637H210.282V49.2798C210.73 49.1943 211.075 49.0204 211.315 48.7577C211.666 48.377 212.179 47.3757 212.855 45.7542L216.91 36.0347H217.309ZM214.288 44.4838H218.898L216.588 38.9298L214.288 44.4838Z" fill="#141414"/>
<path d="M234.948 42.426V37.9258C234.948 37.1445 234.36 36.7341 233.183 36.6947V36.3105H238.739V36.6947C237.569 36.7341 236.985 37.1445 236.985 37.9258V48.0491C236.985 48.8304 237.569 49.2405 238.739 49.2801V49.6641H233.183V49.2801C234.36 49.2405 234.948 48.8304 234.948 48.0491V43.2532H228.895V48.0491C228.895 48.8304 229.48 49.2405 230.649 49.2801V49.6641H225.103V49.2801C226.273 49.2405 226.858 48.8304 226.858 48.0491V37.9258C226.858 37.1445 226.273 36.7341 225.103 36.6947V36.3105H230.649V36.6947C229.48 36.7341 228.895 37.1445 228.895 37.9258V42.426H234.948Z" fill="#141414"/>
<path d="M253.483 49.6641H247.694V49.2801C248.72 49.2801 249.234 49.1193 249.234 48.7973C249.234 48.6201 249.087 48.3773 248.795 48.0688L244.224 43.2927H243.659V48.0491C243.659 48.8304 244.256 49.2405 245.452 49.2801V49.6641H239.828V49.2801C241.024 49.2405 241.621 48.8304 241.621 48.0491V37.9258C241.621 37.1445 241.024 36.7341 239.828 36.6947V36.3105H245.501V36.6947C244.273 36.7341 243.659 37.1445 243.659 37.9258V42.7215H243.98L248.015 38.615C248.587 38.0306 248.873 37.6139 248.873 37.3643C248.873 36.9375 248.434 36.7144 247.557 36.6947V36.3105H252.742V36.6947C252.17 36.7275 251.699 36.8294 251.329 37C250.616 37.3283 249.663 38.1063 248.473 39.3337L245.793 42.101L251.182 47.9309C251.691 48.4757 252.15 48.8533 252.567 49.0633C252.697 49.1291 253.004 49.2012 253.483 49.2801V49.6641Z" fill="#141414"/>
<path d="M106.091 49.6639H103.236V49.4574C103.701 49.4186 103.933 49.3392 103.933 49.2192C103.933 49.1062 103.751 48.8277 103.388 48.383L101.544 46.1282H101.523V48.7959C101.523 49.2157 101.838 49.4362 102.466 49.4574V49.6639H99.48V49.4574C100.112 49.4362 100.428 49.2157 100.428 48.7959V46.1282H100.407L98.558 48.383C98.1947 48.8277 98.0131 49.1062 98.0131 49.2192C98.0131 49.3321 98.1336 49.4009 98.3746 49.4257C98.4375 49.4327 98.5493 49.4433 98.71 49.4574V49.6639H95.8548V49.4574C96.0574 49.4539 96.2128 49.4221 96.3211 49.3621C96.4189 49.3092 96.5357 49.1998 96.672 49.0339L99.48 45.5882L97.5732 43.6349C97.2099 43.261 96.8798 43.0016 96.5829 42.8569C96.4329 42.7828 96.2408 42.7281 96.0068 42.6928V42.4863H98.4637V42.6928C97.9851 42.7352 97.7461 42.8446 97.7461 43.021C97.7461 43.1516 97.9991 43.4763 98.5056 43.9949L100.428 45.9588V43.3546C100.428 42.9346 100.112 42.714 99.48 42.6928V42.4863H102.466V42.6928C101.838 42.714 101.523 42.9346 101.523 43.3546V45.9588L103.44 43.9949C103.951 43.4728 104.206 43.1481 104.206 43.021C104.206 42.8446 103.964 42.7352 103.482 42.6928V42.4863H105.939V42.6928C105.695 42.7316 105.499 42.7863 105.353 42.8569C105.073 42.9946 104.747 43.254 104.373 43.6349L102.466 45.5882L105.274 49.0339C105.41 49.1998 105.529 49.3109 105.63 49.3674C105.735 49.4239 105.889 49.4539 106.091 49.4574V49.6639Z" fill="#141414"/>
<path d="M109.275 49.6639H106.294V49.4574C106.923 49.4362 107.237 49.2157 107.237 48.7959V43.3546C107.237 42.9346 106.923 42.714 106.294 42.6928V42.4863H109.275V42.6928C108.647 42.714 108.332 42.9346 108.332 43.3546V47.7424L111.774 43.3546C111.774 42.9346 111.46 42.714 110.831 42.6928V42.4863H113.817V42.6928C113.185 42.714 112.869 42.9346 112.869 43.3546V48.7959C112.869 49.2157 113.185 49.4362 113.817 49.4574V49.6639H110.831V49.4574C111.46 49.4362 111.774 49.2157 111.774 48.7959V44.1167L108.332 48.4783V48.7959C108.332 49.2157 108.647 49.4362 109.275 49.4574V49.6639Z" fill="#141414"/>
<path d="M114.193 49.4574C114.882 49.4362 115.225 49.2157 115.225 48.7959V43.3546C115.225 42.9346 114.882 42.714 114.193 42.6928V42.4863H117.07C119.029 42.4863 120.009 43.0934 120.009 44.3072C120.009 44.8049 119.837 45.1946 119.495 45.477C119.292 45.6429 118.989 45.7805 118.584 45.8899C118.982 45.9923 119.292 46.1123 119.516 46.2499C120.089 46.5956 120.375 47.0826 120.375 47.7106C120.375 48.4094 120.064 48.9283 119.443 49.2668C118.954 49.5315 118.33 49.6639 117.573 49.6639H114.193V49.4574ZM116.315 46.1282V48.69C116.315 48.9512 116.413 49.1204 116.608 49.198C116.72 49.2404 116.935 49.2615 117.253 49.2615C118.51 49.2615 119.139 48.7377 119.139 47.6894C119.139 46.6485 118.377 46.1282 116.855 46.1282H116.315ZM116.315 45.6941H117.195C118.341 45.6941 118.914 45.2458 118.914 44.3496C118.914 43.8449 118.722 43.4657 118.337 43.2116C118.012 42.9963 117.587 42.8887 117.059 42.8887C116.563 42.8887 116.315 43.0052 116.315 43.2381V45.6941Z" fill="#141414"/>
<path d="M124.277 49.6639H121.296V49.4574C121.924 49.4362 122.239 49.2157 122.239 48.7959V43.3546C122.239 42.9346 121.924 42.714 121.296 42.6928V42.4863H124.277V42.6928C123.648 42.714 123.334 42.9346 123.334 43.3546V47.7424L126.776 43.3546C126.776 42.9346 126.461 42.714 125.833 42.6928V42.4863H128.819V42.6928C128.187 42.714 127.871 42.9346 127.871 43.3546V48.7959C127.871 49.2157 128.187 49.4362 128.819 49.4574V49.6639H125.833V49.4574C126.461 49.4362 126.776 49.2157 126.776 48.7959V44.1167L123.334 48.4783V48.7959C123.334 49.2157 123.648 49.4362 124.277 49.4574V49.6639Z" fill="#141414"/>
<path d="M138.68 51.6383H138.476L138.183 50.7595C138.036 50.3256 137.884 50.0398 137.727 49.9021C137.545 49.7433 137.24 49.6639 136.81 49.6639H133.657C133.181 49.6639 132.86 49.7715 132.692 49.9868C132.483 50.2551 132.261 50.8054 132.027 51.6383H131.823V49.4468H131.954C132.296 49.4468 132.589 49.2351 132.834 48.8118C133.05 48.4412 133.178 48.0177 133.216 47.5414C133.325 46.2429 133.379 45.2158 133.379 44.4608V43.5714C133.379 43.2399 133.281 43.0069 133.085 42.8728C132.932 42.7669 132.678 42.7069 132.326 42.6928V42.4863H138.529V42.6928C137.9 42.714 137.586 42.9346 137.586 43.3546V48.4147C137.586 48.8312 137.666 49.108 137.826 49.2456C137.966 49.3692 138.251 49.4362 138.68 49.4468V51.6383ZM136.47 48.2559V44.0161C136.47 43.5469 136.402 43.2469 136.265 43.1163C136.098 42.9575 135.712 42.8781 135.108 42.8781C134.629 42.8781 134.299 42.961 134.117 43.1269C133.957 43.2716 133.864 43.679 133.84 44.3496L133.767 46.2711C133.739 47.005 133.7 47.5238 133.651 47.8271C133.567 48.3459 133.398 48.8277 133.143 49.2721H135.59C135.956 49.2721 136.199 49.1945 136.318 49.0392C136.419 48.9053 136.47 48.6441 136.47 48.2559Z" fill="#141414"/>
<path d="M146.239 46.0009C146.239 47.0948 145.932 47.9963 145.317 48.7057C144.675 49.4466 143.819 49.8172 142.75 49.8172C141.703 49.8172 140.847 49.4555 140.183 48.7322C139.537 48.0298 139.214 47.1442 139.214 46.075C139.214 45.0021 139.532 44.1165 140.168 43.4179C140.824 42.6979 141.678 42.3379 142.729 42.3379C143.742 42.3379 144.584 42.6944 145.254 43.4073C145.911 44.1094 146.239 44.9739 146.239 46.0009ZM145.029 46.1174C145.029 45.3374 144.896 44.6371 144.631 44.0159C144.264 43.155 143.65 42.7244 142.787 42.7244C141.945 42.7244 141.324 43.0702 140.922 43.7618C140.597 44.3194 140.435 45.055 140.435 45.9692V46.075C140.435 46.9466 140.581 47.6787 140.875 48.2716C141.259 49.0408 141.839 49.4255 142.614 49.4255C143.424 49.4255 144.048 49.0637 144.484 48.3404C144.847 47.7334 145.029 46.9924 145.029 46.1174Z" fill="#141414"/>
<path d="M153.263 44.7835H153.007C152.832 44.24 152.635 43.8359 152.415 43.5712C151.975 43.0455 151.391 42.7826 150.665 42.7826C149.806 42.7826 149.156 43.125 148.716 43.8094C148.343 44.3882 148.156 45.1362 148.156 46.0539C148.156 46.9783 148.356 47.7334 148.758 48.3192C149.223 48.9931 149.891 49.3302 150.765 49.3302C151.264 49.3302 151.709 49.2384 152.1 49.0549C152.436 48.8963 152.806 48.6263 153.211 48.2451L153.394 48.4622C152.563 49.3655 151.608 49.8172 150.529 49.8172C149.45 49.8172 148.576 49.4731 147.909 48.7851C147.246 48.0969 146.914 47.2077 146.914 46.1174C146.914 45.0268 147.251 44.1253 147.925 43.4126C148.599 42.6961 149.474 42.3379 150.55 42.3379C151.011 42.3379 151.486 42.4279 151.975 42.6079C152.205 42.6926 152.392 42.735 152.535 42.735C152.692 42.735 152.828 42.6061 152.944 42.3485H153.169L153.263 44.7835Z" fill="#141414"/>
<path d="M157.479 42.9416V48.7959C157.479 49.2157 157.793 49.4362 158.422 49.4574V49.6639H155.441V49.4574C156.07 49.4362 156.384 49.2157 156.384 48.7959V42.9416H156.033C155.195 42.9416 154.673 43.0757 154.467 43.344C154.387 43.4463 154.315 43.5873 154.252 43.7673C154.217 43.8625 154.17 44.0496 154.111 44.3284H153.854L153.917 42.4863H159.968L160.036 44.3284H159.774C159.686 43.8943 159.597 43.5943 159.507 43.4287C159.388 43.2099 159.21 43.0669 158.972 42.9999C158.833 42.961 158.593 42.9416 158.255 42.9416H157.479Z" fill="#141414"/>
<path d="M167.547 46.0009C167.547 47.0948 167.239 47.9963 166.625 48.7057C165.982 49.4466 165.126 49.8172 164.058 49.8172C163.01 49.8172 162.154 49.4555 161.491 48.7322C160.845 48.0298 160.521 47.1442 160.521 46.075C160.521 45.0021 160.839 44.1165 161.475 43.4179C162.132 42.6979 162.986 42.3379 164.037 42.3379C165.05 42.3379 165.891 42.6944 166.562 43.4073C167.218 44.1094 167.547 44.9739 167.547 46.0009ZM166.337 46.1174C166.337 45.3374 166.204 44.6371 165.938 44.0159C165.572 43.155 164.957 42.7244 164.094 42.7244C163.253 42.7244 162.631 43.0702 162.229 43.7618C161.905 44.3194 161.742 45.055 161.742 45.9692V46.075C161.742 46.9466 161.889 47.6787 162.182 48.2716C162.566 49.0408 163.146 49.4255 163.922 49.4255C164.732 49.4255 165.355 49.0637 165.792 48.3404C166.155 47.7334 166.337 46.9924 166.337 46.1174Z" fill="#141414"/>
<path d="M170.945 40.0464C171.151 40.0464 171.254 40.1452 171.254 40.3429C171.254 40.477 171.153 40.5723 170.951 40.6287C170.818 40.664 170.752 40.7311 170.752 40.8299C170.752 41.112 171.116 41.2532 171.846 41.2532C172.576 41.2532 172.941 41.1085 172.941 40.8193C172.941 40.7311 172.866 40.6658 172.716 40.6234C172.527 40.574 172.433 40.4805 172.433 40.3429C172.433 40.1452 172.534 40.0464 172.737 40.0464C172.898 40.0464 173.025 40.1346 173.119 40.3111C173.193 40.4558 173.229 40.6181 173.229 40.7981C173.229 41.1403 173.079 41.4155 172.779 41.6238C172.51 41.8108 172.199 41.9044 171.846 41.9044C171.494 41.9044 171.183 41.8108 170.914 41.6238C170.614 41.4155 170.463 41.1403 170.463 40.7981C170.463 40.6217 170.5 40.4611 170.573 40.3164C170.661 40.1364 170.785 40.0464 170.945 40.0464ZM171.06 49.664H168.08V49.4576C168.708 49.4364 169.023 49.2158 169.023 48.796V43.3547C169.023 42.9347 168.708 42.7141 168.08 42.6929V42.4865H171.06V42.6929C170.432 42.7141 170.118 42.9347 170.118 43.3547V47.7425L173.56 43.3547C173.56 42.9347 173.245 42.7141 172.616 42.6929V42.4865H175.603V42.6929C174.971 42.7141 174.654 42.9347 174.654 43.3547V48.796C174.654 49.2158 174.971 49.4364 175.603 49.4576V49.664H172.616V49.4576C173.245 49.4364 173.56 49.2158 173.56 48.796V44.1168L170.118 48.4784V48.796C170.118 49.2158 170.432 49.4364 171.06 49.4576V49.664Z" fill="#141414"/>
<path d="M181.27 45.7735V43.3546C181.27 42.9346 180.954 42.714 180.322 42.6928V42.4863H183.308V42.6928C182.679 42.714 182.365 42.9346 182.365 43.3546V48.7959C182.365 49.2157 182.679 49.4362 183.308 49.4574V49.6639H180.322V49.4574C180.954 49.4362 181.27 49.2157 181.27 48.7959V46.2182H178.016V48.7959C178.016 49.2157 178.331 49.4362 178.96 49.4574V49.6639H175.979V49.4574C176.607 49.4362 176.922 49.2157 176.922 48.7959V43.3546C176.922 42.9346 176.607 42.714 175.979 42.6928V42.4863H178.96V42.6928C178.331 42.714 178.016 42.9346 178.016 43.3546V45.7735H181.27Z" fill="#141414"/>
<path d="M190.845 46.0009C190.845 47.0948 190.538 47.9963 189.923 48.7057C189.28 49.4466 188.425 49.8172 187.356 49.8172C186.308 49.8172 185.453 49.4555 184.789 48.7322C184.143 48.0298 183.82 47.1442 183.82 46.075C183.82 45.0021 184.138 44.1165 184.773 43.4179C185.43 42.6979 186.284 42.3379 187.335 42.3379C188.348 42.3379 189.19 42.6944 189.86 43.4073C190.517 44.1094 190.845 44.9739 190.845 46.0009ZM189.635 46.1174C189.635 45.3374 189.502 44.6371 189.237 44.0159C188.87 43.155 188.255 42.7244 187.393 42.7244C186.551 42.7244 185.929 43.0702 185.528 43.7618C185.203 44.3194 185.04 45.055 185.04 45.9692V46.075C185.04 46.9466 185.187 47.6787 185.481 48.2716C185.865 49.0408 186.444 49.4255 187.22 49.4255C188.03 49.4255 188.653 49.0637 189.09 48.3404C189.453 47.7334 189.635 46.9924 189.635 46.1174Z" fill="#141414"/>
<path d="M192.767 42.8461C192.767 42.9096 192.766 42.9731 192.762 43.0367C192.759 43.0967 192.752 43.169 192.741 43.2537L192.626 45.2519L192.621 47.4036L191.875 47.3947V46.2603C191.847 45.9285 191.919 45.2738 191.793 44.3388C191.681 43.5237 191.625 43.0314 191.625 42.862C191.625 42.6431 191.667 42.442 191.751 42.2584C191.835 42.0752 191.99 41.9834 192.218 41.9834C192.451 41.9834 192.612 42.1087 192.699 42.359C192.745 42.4896 192.767 42.652 192.767 42.8461Z" fill="#141414"/>
<path d="M192.873 48.4033H191.625V49.6638H192.873V48.4033Z" fill="#141414"/>
<path d="M41.0444 26.7226L21.333 39.0755C12.4757 5.79849 49.7773 -12.3528 70.8612 9.83175L49.7773 21.4284L65.3719 8.31915C45.1618 -7.56286 21.8324 10.3363 25.9489 31.8907L41.0444 26.7226Z" fill="#141414"/>
<path d="M71.7349 22.9409C42.4763 35.6239 26.9267 43.9661 0 59.9997C31.6816 35.0564 65.7299 17.3289 94.3158 1.26025L75.9766 14.8737C90.3236 41.3443 55.6413 77.1426 27.1969 47.2687L29.8168 46.0082C49.0292 67.5628 80.2183 50.9241 71.7349 22.9409Z" fill="#141414"/>
<path d="M192.873 36.0503H95.8126V37.5629H192.873V36.0503Z" fill="#141414"/>
</svg>
