<svg width="337" height="80" viewBox="0 0 337 80" fill="none" xmlns="http://www.w3.org/2000/svg">
<path d="M147.497 21.1571H146.593C145.978 19.2193 145.284 17.7786 144.509 16.8348C142.96 14.9599 140.907 14.0225 138.349 14.0225C135.324 14.0225 133.037 15.2431 131.488 17.6842C130.172 19.7478 129.514 22.4155 129.514 25.6871C129.514 28.9839 130.221 31.6767 131.635 33.7654C133.271 36.1688 135.625 37.3705 138.699 37.3705C140.458 37.3705 142.025 37.0434 143.403 36.3889C144.583 35.8229 145.886 34.8602 147.313 33.5012L147.958 34.275C145.032 37.4965 141.669 39.1069 137.869 39.1069C134.07 39.1069 130.996 37.88 128.647 35.4266C126.311 32.9727 125.143 29.8018 125.143 25.9136C125.143 22.0254 126.33 18.8104 128.703 16.2686C131.076 13.7142 134.156 12.437 137.943 12.437C139.566 12.437 141.238 12.7579 142.96 13.3996C143.771 13.7016 144.429 13.8526 144.933 13.8526C145.487 13.8526 145.966 13.3933 146.372 12.4748H147.165L147.497 21.1571Z" fill="#141414"/>
<path d="M175.454 38.5595H164.941V37.8234C167.166 37.7477 168.279 36.9615 168.279 35.4641V16.8724C168.279 15.2995 167.166 14.5131 164.941 14.5131H160.145C157.932 14.5131 156.825 15.2995 156.825 16.8724V35.4641C156.825 36.9615 157.932 37.7477 160.145 37.8234V38.5595H149.651V37.8234C151.864 37.7477 152.971 36.9615 152.971 35.4641V16.0608C152.971 14.5634 151.864 13.7769 149.651 13.7014V12.9653H175.454V13.7014C173.24 13.7769 172.134 14.5634 172.134 16.0608V35.4641C172.134 36.9615 173.24 37.7477 175.454 37.8234V38.5595Z" fill="#141414"/>
<path d="M187.253 38.5595H176.759V37.8234C178.972 37.7477 180.079 36.9615 180.079 35.4641V16.0608C180.079 14.5634 178.972 13.7769 176.759 13.7014V12.9653H187.253V13.7014C185.04 13.7769 183.934 14.5634 183.934 16.0608V31.7079L196.051 16.0608C196.051 14.5634 194.945 13.7769 192.731 13.7014V12.9653H203.244V13.7014C201.019 13.7769 199.906 14.5634 199.906 16.0608V35.4641C199.906 36.9615 201.019 37.7477 203.244 37.8234V38.5595H192.731V37.8234C194.945 37.7477 196.051 36.9615 196.051 35.4641V18.7787L183.934 34.3316V35.4641C183.934 36.9615 185.04 37.7477 187.253 37.8234V38.5595Z" fill="#141414"/>
<path d="M218.242 14.5887V35.4642C218.242 36.9617 219.349 37.7479 221.562 37.8236V38.5597H211.067V37.8236C213.281 37.7479 214.387 36.9617 214.387 35.4642V14.5887H213.151C210.201 14.5887 208.362 15.0669 207.637 16.0232C207.354 16.3881 207.102 16.8915 206.881 17.5332C206.758 17.8729 206.592 18.5398 206.383 19.5339L204.959 17.5332L205.479 12.437H227.286V17.9862L226.32 19.5339C226.013 17.9862 225.7 16.9166 225.38 16.3252C224.962 15.545 224.335 15.0354 223.499 14.7963C223.007 14.658 222.164 14.5887 220.972 14.5887H218.242Z" fill="#141414"/>
<path d="M238.678 12.437L247.881 34.0296C248.422 35.3133 248.847 36.1563 249.154 36.559C249.757 37.3768 250.531 37.7984 251.478 37.8236V38.5597H241.85V37.8236C243.633 37.7227 244.525 37.3012 244.525 36.559C244.525 36.0303 244.211 35.0111 243.584 33.5012L242.219 30.217H232.333C232.1 30.8462 231.872 31.425 231.651 31.9535C230.741 34.1429 230.286 35.5711 230.286 36.238C230.286 37.2572 231.141 37.7859 232.85 37.8236V38.5597H225.38V37.8236C226.228 37.6599 226.88 37.3264 227.335 36.8232C227.999 36.0935 228.97 34.1745 230.249 31.0664L237.922 12.437H238.678ZM232.96 28.6315H241.684L237.313 17.9862L232.96 28.6315Z" fill="#141414"/>
<path d="M286.689 13.7014C284.5 13.7769 283.406 14.5634 283.406 16.0608V35.4641C283.406 36.9615 284.512 37.7477 286.725 37.8234V38.5595H276.213V37.8234C278.438 37.7477 279.551 36.9615 279.551 35.4641V16.5704L269.868 38.5595H269.352L259.872 17.4575V35.4641C259.872 36.9615 261.089 37.7477 263.523 37.8234V38.5595H254.541V37.8234C256.988 37.7477 258.211 36.9615 258.211 35.4641V16.0608C258.211 14.5634 257.013 13.7769 254.615 13.7014V12.9653H262.103L270.827 32.4818L279.164 12.9653H286.689V13.7014Z" fill="#141414"/>
<path d="M287.698 38.5595V37.8234C289.912 37.7477 291.018 36.9615 291.018 35.4641V16.0608C291.018 14.5634 289.912 13.7769 287.698 13.7014V12.9653H307.747V18.4956H306.917C306.671 17.4512 306.333 16.6522 305.902 16.0985C305.103 15.0667 304.009 14.5508 302.619 14.5508H296.533C295.427 14.5508 294.873 15.0541 294.873 16.0608V24.3657H300.185C301.685 24.3657 302.786 24.1329 303.486 23.6673C304.359 23.1011 304.82 22.1007 304.87 20.6662H305.663V29.7072H304.87C304.82 28.2727 304.359 27.2661 303.486 26.6872C302.773 26.1965 301.673 25.9511 300.185 25.9511H294.873V35.4641C294.873 36.4708 295.199 36.974 295.851 36.974H300.831C302.7 36.974 304.089 36.7914 304.999 36.4267C306.425 35.8479 307.667 34.3817 308.725 32.0288H309.794L308.079 38.5595H287.698Z" fill="#141414"/>
<path d="M329.524 24.6865V16.0608C329.524 14.5634 328.412 13.7769 326.186 13.7014V12.9653H336.701V13.7014C334.487 13.7769 333.38 14.5634 333.38 16.0608V35.4641C333.38 36.9615 334.487 37.7477 336.701 37.8234V38.5595H326.186V37.8234C328.412 37.7477 329.524 36.9615 329.524 35.4641V26.272H318.071V35.4641C318.071 36.9615 319.178 37.7477 321.391 37.8234V38.5595H310.896V37.8234C313.11 37.7477 314.216 36.9615 314.216 35.4641V16.0608C314.216 14.5634 313.11 13.7769 310.896 13.7014V12.9653H321.391V13.7014C319.178 13.7769 318.071 14.5634 318.071 16.0608V24.6865H329.524Z" fill="#141414"/>
<path d="M266.671 56.2657C271.666 56.2657 274.164 57.8892 274.164 61.1369C274.164 62.8263 273.514 64.1262 272.214 65.0364C271.084 65.8243 269.656 66.2183 267.928 66.2183H259.152V65.7063C260.692 65.6536 261.462 65.1067 261.462 64.065V50.5672C261.462 49.5255 260.692 48.9783 259.152 48.9258V48.4136H272.817L272.97 52.8778H272.393C272.308 52.5628 272.171 52.0902 271.983 51.46C271.786 50.8996 271.551 50.4707 271.277 50.1732C270.883 49.7356 270.024 49.5164 268.698 49.5164H265.298C264.528 49.5164 264.143 49.8667 264.143 50.5672V56.2657H266.671ZM264.143 57.3685V63.7235C264.143 64.2838 264.233 64.6603 264.413 64.8529C264.644 65.0979 265.247 65.2203 266.222 65.2203C269.566 65.2203 271.238 63.9205 271.238 61.3208C271.238 60.1914 270.926 59.3074 270.302 58.6684C269.96 58.3181 269.571 58.0643 269.134 57.9067C268.134 57.548 266.551 57.3685 264.387 57.3685H264.143Z" fill="#141414"/>
<path d="M286.067 48.0464L292.47 63.0672C292.846 63.96 293.141 64.5465 293.355 64.8265C293.774 65.3956 294.313 65.6887 294.972 65.7065V66.2185H288.274V65.7065C289.514 65.6363 290.134 65.3432 290.134 64.8265C290.134 64.4592 289.916 63.7499 289.48 62.6995L288.531 60.4148H281.654C281.491 60.8524 281.333 61.2551 281.179 61.6229C280.546 63.1459 280.229 64.1395 280.229 64.6034C280.229 65.3126 280.824 65.68 282.013 65.7065V66.2185H276.816V65.7065C277.407 65.5926 277.86 65.3607 278.177 65.0104C278.638 64.5029 279.314 63.1677 280.204 61.0057L285.541 48.0464H286.067ZM282.09 59.3119H288.159L285.118 51.9066L282.09 59.3119Z" fill="#141414"/>
<path d="M309.287 56.5675V50.5672C309.287 49.5255 308.513 48.9783 306.964 48.9258V48.4136H314.278V48.9258C312.738 48.9783 311.968 49.5255 311.968 50.5672V64.065C311.968 65.1067 312.738 65.6536 314.278 65.7063V66.2183H306.964V65.7063C308.513 65.6536 309.287 65.1067 309.287 64.065V57.6704H301.319V64.065C301.319 65.1067 302.089 65.6536 303.628 65.7063V66.2183H296.328V65.7063C297.868 65.6536 298.638 65.1067 298.638 64.065V50.5672C298.638 49.5255 297.868 48.9783 296.328 48.9258V48.4136H303.628V48.9258C302.089 48.9783 301.319 49.5255 301.319 50.5672V56.5675H309.287Z" fill="#141414"/>
<path d="M333.686 66.2183H326.065V65.7063C327.417 65.7063 328.093 65.4919 328.093 65.0626C328.093 64.8263 327.9 64.5026 327.515 64.0912L321.498 57.7232H320.754V64.065C320.754 65.1067 321.541 65.6536 323.115 65.7063V66.2183H315.711V65.7063C317.285 65.6536 318.072 65.1067 318.072 64.065V50.5672C318.072 49.5255 317.285 48.9783 315.711 48.9258V48.4136H323.179V48.9258C321.562 48.9783 320.754 49.5255 320.754 50.5672V56.9615H321.177L326.489 51.4862C327.242 50.707 327.618 50.1514 327.618 49.8186C327.618 49.2495 327.041 48.9521 325.886 48.9258V48.4136H332.711V48.9258C331.958 48.9695 331.338 49.1053 330.852 49.3329C329.912 49.7705 328.657 50.8079 327.092 52.4445L323.564 56.1342L330.658 63.9074C331.328 64.6337 331.932 65.1373 332.481 65.4173C332.651 65.505 333.055 65.6011 333.686 65.7063V66.2183Z" fill="#141414"/>
<path d="M139.659 66.2185H135.901V65.9432C136.512 65.8915 136.818 65.7856 136.818 65.6256C136.818 65.475 136.579 65.1036 136.101 64.5106L133.674 61.5042H133.646V65.0612C133.646 65.6209 134.06 65.915 134.887 65.9432V66.2185H130.956V65.9432C131.788 65.915 132.205 65.6209 132.205 65.0612V61.5042H132.177L129.743 64.5106C129.264 65.1036 129.025 65.475 129.025 65.6256C129.025 65.7762 129.184 65.8679 129.501 65.9009C129.584 65.9103 129.731 65.9244 129.943 65.9432V66.2185H126.184V65.9432C126.451 65.9385 126.655 65.8962 126.798 65.8162C126.927 65.7456 127.08 65.5997 127.26 65.3785L130.956 60.7842L128.446 58.1799C127.968 57.6814 127.533 57.3355 127.142 57.1426C126.945 57.0437 126.692 56.9708 126.384 56.9237V56.6484H129.618V56.9237C128.988 56.9802 128.674 57.1261 128.674 57.3614C128.674 57.5355 129.007 57.9684 129.674 58.6599L132.205 61.2783V57.8061C132.205 57.2461 131.788 56.952 130.956 56.9237V56.6484H134.887V56.9237C134.06 56.952 133.646 57.2461 133.646 57.8061V61.2783L136.17 58.6599C136.841 57.9637 137.177 57.5308 137.177 57.3614C137.177 57.1261 136.86 56.9802 136.225 56.9237V56.6484H139.459V56.9237C139.138 56.9755 138.88 57.0484 138.687 57.1426C138.319 57.3261 137.889 57.672 137.398 58.1799L134.887 60.7842L138.584 65.3785C138.763 65.5997 138.919 65.7479 139.053 65.8232C139.191 65.8985 139.393 65.9385 139.659 65.9432V66.2185Z" fill="#141414"/>
<path d="M143.851 66.2185H139.927V65.9432C140.754 65.915 141.168 65.6209 141.168 65.0612V57.8061C141.168 57.2461 140.754 56.952 139.927 56.9237V56.6484H143.851V56.9237C143.023 56.952 142.61 57.2461 142.61 57.8061V63.6565L147.14 57.8061C147.14 57.2461 146.727 56.952 145.899 56.9237V56.6484H149.83V56.9237C148.998 56.952 148.582 57.2461 148.582 57.8061V65.0612C148.582 65.6209 148.998 65.915 149.83 65.9432V66.2185H145.899V65.9432C146.727 65.915 147.14 65.6209 147.14 65.0612V58.8222L142.61 64.6377V65.0612C142.61 65.6209 143.023 65.915 143.851 65.9432V66.2185Z" fill="#141414"/>
<path d="M150.325 65.9432C151.23 65.915 151.683 65.6209 151.683 65.0612V57.8061C151.683 57.2461 151.23 56.952 150.325 56.9237V56.6484H154.111C156.69 56.6484 157.98 57.4578 157.98 59.0763C157.98 59.7399 157.754 60.2595 157.304 60.636C157.037 60.8572 156.637 61.0407 156.104 61.1866C156.628 61.3231 157.037 61.4831 157.331 61.6666C158.085 62.1274 158.462 62.7768 158.462 63.6141C158.462 64.5459 158.053 65.2377 157.235 65.6891C156.591 66.042 155.77 66.2185 154.773 66.2185H150.325V65.9432ZM153.118 61.5042V64.92C153.118 65.2683 153.247 65.4938 153.504 65.5973C153.651 65.6538 153.934 65.682 154.352 65.682C156.007 65.682 156.835 64.9836 156.835 63.5859C156.835 62.198 155.833 61.5042 153.828 61.5042H153.118ZM153.118 60.9254H154.276C155.784 60.9254 156.538 60.3278 156.538 59.1328C156.538 58.4599 156.285 57.9543 155.78 57.6155C155.352 57.3284 154.791 57.1849 154.097 57.1849C153.444 57.1849 153.118 57.3402 153.118 57.6508V60.9254Z" fill="#141414"/>
<path d="M163.599 66.2185H159.675V65.9432C160.502 65.915 160.916 65.6209 160.916 65.0612V57.8061C160.916 57.2461 160.502 56.952 159.675 56.9237V56.6484H163.599V56.9237C162.771 56.952 162.357 57.2461 162.357 57.8061V63.6565L166.888 57.8061C166.888 57.2461 166.474 56.952 165.647 56.9237V56.6484H169.578V56.9237C168.746 56.952 168.33 57.2461 168.33 57.8061V65.0612C168.33 65.6209 168.746 65.915 169.578 65.9432V66.2185H165.647V65.9432C166.474 65.915 166.888 65.6209 166.888 65.0612V58.8222L162.357 64.6377V65.0612C162.357 65.6209 162.771 65.915 163.599 65.9432V66.2185Z" fill="#141414"/>
<path d="M182.56 68.8511H182.291L181.905 67.6793C181.712 67.1009 181.512 66.7197 181.305 66.5362C181.066 66.3244 180.663 66.2185 180.098 66.2185H175.946C175.321 66.2185 174.898 66.362 174.677 66.6491C174.401 67.0067 174.11 67.7405 173.802 68.8511H173.533V65.9291H173.705C174.156 65.9291 174.542 65.6467 174.864 65.0824C175.149 64.5883 175.316 64.0236 175.367 63.3886C175.51 61.6572 175.581 60.2878 175.581 59.281V58.0952C175.581 57.6531 175.452 57.3426 175.195 57.1637C174.992 57.0226 174.659 56.9426 174.195 56.9237V56.6484H182.36V56.9237C181.532 56.952 181.119 57.2461 181.119 57.8061V64.553C181.119 65.1083 181.224 65.4773 181.436 65.6609C181.62 65.8256 181.994 65.915 182.56 65.9291V68.8511ZM179.65 64.3412V58.6881C179.65 58.0626 179.56 57.6626 179.381 57.4884C179.16 57.2767 178.652 57.1708 177.857 57.1708C177.227 57.1708 176.792 57.2814 176.553 57.5026C176.342 57.6955 176.22 58.2387 176.188 59.1328L176.091 61.6948C176.055 62.6733 176.004 63.3651 175.94 63.7694C175.829 64.4612 175.606 65.1036 175.27 65.6962H178.491C178.974 65.6962 179.293 65.5926 179.45 65.3856C179.583 65.2071 179.65 64.8588 179.65 64.3412Z" fill="#141414"/>
<path d="M192.51 61.3347C192.51 62.7932 192.105 63.9952 191.296 64.9411C190.45 65.929 189.324 66.4231 187.917 66.4231C186.538 66.4231 185.411 65.9408 184.538 64.9764C183.687 64.0399 183.262 62.8591 183.262 61.4335C183.262 60.003 183.68 58.8221 184.517 57.8907C185.382 56.9307 186.506 56.4507 187.89 56.4507C189.223 56.4507 190.331 56.926 191.214 57.8766C192.078 58.8127 192.51 59.9653 192.51 61.3347ZM190.917 61.49C190.917 60.45 190.742 59.5162 190.393 58.688C189.91 57.5401 189.101 56.966 187.966 56.966C186.857 56.966 186.039 57.4272 185.51 58.3492C185.083 59.0927 184.869 60.0735 184.869 61.2924V61.4335C184.869 62.5956 185.062 63.5717 185.448 64.3623C185.954 65.3878 186.717 65.9008 187.738 65.9008C188.804 65.9008 189.625 65.4184 190.2 64.4541C190.678 63.6446 190.917 62.6567 190.917 61.49Z" fill="#141414"/>
<path d="M201.757 59.7115H201.419C201.189 58.9868 200.929 58.448 200.64 58.0951C200.06 57.3942 199.292 57.0436 198.336 57.0436C197.205 57.0436 196.35 57.5001 195.771 58.4127C195.279 59.1845 195.033 60.1818 195.033 61.4053C195.033 62.6379 195.297 63.6446 195.826 64.4258C196.437 65.3243 197.318 65.7737 198.467 65.7737C199.125 65.7737 199.711 65.6514 200.226 65.4067C200.667 65.1952 201.154 64.8352 201.688 64.327L201.929 64.6164C200.835 65.8208 199.578 66.4231 198.157 66.4231C196.736 66.4231 195.587 65.9643 194.709 65.047C193.835 64.1294 193.399 62.9438 193.399 61.49C193.399 60.0359 193.842 58.8339 194.729 57.8836C195.617 56.9283 196.769 56.4507 198.185 56.4507C198.792 56.4507 199.417 56.5707 200.06 56.8107C200.364 56.9236 200.61 56.9801 200.798 56.9801C201.005 56.9801 201.184 56.8083 201.336 56.4648H201.633L201.757 59.7115Z" fill="#141414"/>
<path d="M207.307 57.2555V65.0612C207.307 65.6209 207.72 65.915 208.548 65.9432V66.2185H204.624V65.9432C205.452 65.915 205.866 65.6209 205.866 65.0612V57.2555H205.403C204.3 57.2555 203.613 57.4343 203.341 57.792C203.236 57.9284 203.141 58.1163 203.059 58.3563C203.013 58.4834 202.95 58.7328 202.872 59.1046H202.534L202.617 56.6484H210.583L210.672 59.1046H210.327C210.212 58.5257 210.095 58.1257 209.976 57.9049C209.819 57.6131 209.585 57.4226 209.272 57.3331C209.088 57.2814 208.773 57.2555 208.327 57.2555H207.307Z" fill="#141414"/>
<path d="M220.56 61.3347C220.56 62.7932 220.155 63.9952 219.346 64.9411C218.5 65.929 217.374 66.4231 215.967 66.4231C214.588 66.4231 213.461 65.9408 212.588 64.9764C211.737 64.0399 211.312 62.8591 211.312 61.4335C211.312 60.003 211.73 58.8221 212.567 57.8907C213.431 56.9307 214.555 56.4507 215.939 56.4507C217.272 56.4507 218.38 56.926 219.263 57.8766C220.127 58.8127 220.56 59.9653 220.56 61.3347ZM218.967 61.49C218.967 60.45 218.792 59.5162 218.442 58.688C217.96 57.5401 217.151 56.966 216.015 56.966C214.907 56.966 214.089 57.4272 213.56 58.3492C213.132 59.0927 212.918 60.0735 212.918 61.2924V61.4335C212.918 62.5956 213.111 63.5717 213.498 64.3623C214.004 65.3878 214.767 65.9008 215.787 65.9008C216.854 65.9008 217.675 65.4184 218.249 64.4541C218.727 63.6446 218.967 62.6567 218.967 61.49Z" fill="#141414"/>
<path d="M225.034 53.395C225.305 53.395 225.44 53.5268 225.44 53.7903C225.44 53.9691 225.307 54.0962 225.041 54.1715C224.866 54.2185 224.779 54.308 224.779 54.4397C224.779 54.8159 225.259 55.0041 226.22 55.0041C227.181 55.0041 227.661 54.8112 227.661 54.4256C227.661 54.308 227.562 54.2209 227.364 54.1644C227.116 54.0985 226.992 53.9738 226.992 53.7903C226.992 53.5268 227.125 53.395 227.392 53.395C227.604 53.395 227.771 53.5127 227.896 53.748C227.992 53.9409 228.04 54.1574 228.04 54.3974C228.04 54.8535 227.843 55.2206 227.447 55.4982C227.093 55.7476 226.684 55.8723 226.22 55.8723C225.755 55.8723 225.346 55.7476 224.992 55.4982C224.597 55.2206 224.399 54.8535 224.399 54.3974C224.399 54.1621 224.447 53.948 224.544 53.755C224.659 53.515 224.822 53.395 225.034 53.395ZM225.185 66.2185H221.261V65.9432C222.089 65.915 222.503 65.6209 222.503 65.0612V57.8061C222.503 57.2461 222.089 56.952 221.261 56.9238V56.6485H225.185V56.9238C224.358 56.952 223.944 57.2461 223.944 57.8061V63.6565L228.475 57.8061C228.475 57.2461 228.061 56.952 227.233 56.9238V56.6485H231.164V56.9238C230.332 56.952 229.916 57.2461 229.916 57.8061V65.0612C229.916 65.6209 230.332 65.915 231.164 65.9432V66.2185H227.233V65.9432C228.061 65.915 228.475 65.6209 228.475 65.0612V58.8222L223.944 64.6377V65.0612C223.944 65.6209 224.358 65.915 225.185 65.9432V66.2185Z" fill="#141414"/>
<path d="M238.625 61.0313V57.8061C238.625 57.2461 238.209 56.952 237.377 56.9237V56.6484H241.307V56.9237C240.48 56.952 240.066 57.2461 240.066 57.8061V65.0612C240.066 65.6209 240.48 65.915 241.307 65.9432V66.2185H237.377V65.9432C238.209 65.915 238.625 65.6209 238.625 65.0612V61.6242H234.342V65.0612C234.342 65.6209 234.756 65.915 235.584 65.9432V66.2185H231.66V65.9432C232.487 65.915 232.901 65.6209 232.901 65.0612V57.8061C232.901 57.2461 232.487 56.952 231.66 56.9237V56.6484H235.584V56.9237C234.756 56.952 234.342 57.2461 234.342 57.8061V61.0313H238.625Z" fill="#141414"/>
<path d="M251.23 61.3347C251.23 62.7932 250.825 63.9952 250.016 64.9411C249.17 65.929 248.043 66.4231 246.637 66.4231C245.257 66.4231 244.131 65.9408 243.257 64.9764C242.407 64.0399 241.982 62.8591 241.982 61.4335C241.982 60.003 242.4 58.8221 243.237 57.8907C244.101 56.9307 245.225 56.4507 246.609 56.4507C247.943 56.4507 249.05 56.926 249.933 57.8766C250.798 58.8127 251.23 59.9653 251.23 61.3347ZM249.637 61.49C249.637 60.45 249.462 59.5162 249.113 58.688C248.63 57.5401 247.821 56.966 246.685 56.966C245.577 56.966 244.758 57.4272 244.23 58.3492C243.802 59.0927 243.589 60.0735 243.589 61.2924V61.4335C243.589 62.5956 243.782 63.5717 244.168 64.3623C244.673 65.3878 245.437 65.9008 246.457 65.9008C247.524 65.9008 248.345 65.4184 248.919 64.4541C249.398 63.6446 249.637 62.6567 249.637 61.49Z" fill="#141414"/>
<path d="M253.76 57.1283C253.76 57.213 253.758 57.2977 253.754 57.3824C253.749 57.4624 253.74 57.5589 253.726 57.6718L253.574 60.336L253.567 63.2049L252.586 63.1931V61.6805C252.549 61.2382 252.643 60.3653 252.478 59.1185C252.331 58.0318 252.257 57.3753 252.257 57.1495C252.257 56.8577 252.312 56.5895 252.423 56.3448C252.533 56.1004 252.738 55.978 253.037 55.978C253.344 55.978 253.556 56.1451 253.671 56.4789C253.731 56.653 253.76 56.8695 253.76 57.1283Z" fill="#141414"/>
<path d="M253.899 64.5376H252.257V66.2183H253.899V64.5376Z" fill="#141414"/>
<path d="M54.031 35.6298L28.0828 52.1004C16.423 7.73099 65.5271 -16.4707 93.282 13.1087L65.5271 28.5709L86.0559 11.0919C59.4513 -10.0841 28.7402 13.7814 34.1592 42.5206L54.031 35.6298Z" fill="#141414"/>
<path d="M94.4323 30.5882C55.916 47.4988 35.4464 58.6218 0 80C41.7059 46.7422 86.5272 23.1055 124.158 1.68066L100.016 19.8319C118.903 55.126 73.2466 102.857 35.8021 63.0252L39.251 61.3445C64.5424 90.084 105.6 67.8991 94.4323 30.5882Z" fill="#141414"/>
<path d="M253.899 48.0674H126.128V50.0842H253.899V48.0674Z" fill="#141414"/>
</svg>
