<svg width="165" height="48" viewBox="0 0 165 48" fill="none" xmlns="http://www.w3.org/2000/svg">
<rect width="164.359" height="47.5973" rx="23.7986" fill="#141414"/>
<path d="M33.1188 16.3167H27.0413V13.2378H42.4896V16.3167H36.412V31.9792H33.1188V16.3167Z" fill="white"/>
<path d="M55.2139 16.3167H49.1363V13.2378H64.5846V16.3167H58.5071V31.9792H55.2139V16.3167Z" fill="white"/>
<path d="M88.8276 13.2378V31.9792H86.2038L75.896 18.9941V31.9792H72.817V13.2378H75.4408L85.7486 26.2765V13.2378H88.8276Z" fill="white"/>
<path d="M111.476 30.9351V13.2378H114.555V20.6808C115.43 19.9847 116.492 19.6367 117.741 19.6367C119.508 19.6367 120.9 20.2078 121.918 21.3502C122.953 22.4568 123.471 23.9293 123.471 25.7678C123.471 27.749 122.846 29.3287 121.596 30.5067C120.365 31.6847 118.696 32.2737 116.59 32.2737C115.662 32.2737 114.725 32.1488 113.779 31.8989C112.85 31.649 112.083 31.3277 111.476 30.9351ZM117.018 22.5282C116.036 22.5282 115.215 22.9119 114.555 23.6794V28.7932C115.215 29.2037 115.947 29.409 116.75 29.409C117.768 29.409 118.589 29.1055 119.214 28.4987C119.856 27.874 120.177 27.0351 120.177 25.982C120.177 24.8932 119.883 24.0454 119.294 23.4385C118.705 22.8316 117.946 22.5282 117.018 22.5282Z" fill="white"/>
<path d="M135.124 19.9312H138.632L133.893 31.9792C133.036 34.0676 132.269 35.4776 131.59 36.2094C130.93 36.9591 130.145 37.3339 129.234 37.3339C128.377 37.3339 127.512 37.0216 126.637 36.3968L127.628 34.0676C128.092 34.3531 128.511 34.4959 128.886 34.4959C129.618 34.4959 130.234 33.8712 130.734 32.6218L131.001 31.9792L125.432 19.9312H129.127L131.938 26.5174C131.974 26.6067 132.17 27.1868 132.527 28.2577C132.634 27.5973 132.777 27.0083 132.956 26.4907L135.124 19.9312Z" fill="white"/>
<rect x="97.4258" y="21.5674" width="5.20595" height="5.20595" fill="white"/>
</svg>
