<svg width="59" height="50" viewBox="0 0 59 50" fill="none" xmlns="http://www.w3.org/2000/svg">
<path fill-rule="evenodd" clip-rule="evenodd" d="M11.3596 18.1246C17.3896 17.9017 25.1012 17.6627 29.7189 17.6627C34.4037 17.6627 42.273 17.9087 48.3401 18.1344L48.3124 18.1247C48.3124 18.1247 48.2831 18.0958 48.2831 18.0669C45.4721 10.9344 38.2689 5.85207 29.836 5.85207C21.3737 5.85207 14.1706 10.9632 11.3596 18.1246ZM54.7349 18.4026C55.8895 18.5364 56.4748 18.6217 56.9796 18.76C58.6486 19.1354 59 19.7129 59 20.8968V28.8957C59 30.0508 57.7409 30.8593 56.8625 31.0037C56.0381 31.1663 55.4974 31.2272 54.6837 31.3056C51.6823 41.7664 41.679 49.4559 29.8068 49.4559C17.9297 49.4559 7.95244 41.7891 4.92629 31.3219L4.91776 31.3213C4.01004 31.2347 3.4537 31.1769 2.57527 31.0037C1.69683 30.8593 0.437744 30.0508 0.437744 28.8957V20.8968C0.437744 19.7129 0.789118 19.1354 2.45814 18.76C2.9852 18.6156 3.60011 18.529 4.85919 18.3846L4.85917 18.3846C7.78728 7.81569 17.86 0.0189819 29.8067 0.0189819C41.7241 0.0189819 51.7675 7.75793 54.7249 18.3268C54.7249 18.3671 54.7249 18.3793 54.7349 18.4026ZM50.6027 31.5478L50.6079 31.5475C50.5022 31.8437 50.3898 32.1369 50.2708 32.4269C50.3881 32.137 50.4987 31.8439 50.6027 31.5478ZM29.7189 32.2165C35.8974 32.2165 42.8428 31.9427 48.1649 31.6754C48.1614 31.6911 48.149 31.7155 48.1366 31.74C48.122 31.7689 48.1073 31.7978 48.1073 31.8122C45.1792 38.7426 38.0932 43.6517 29.8066 43.6517C21.4615 43.6517 14.3462 38.6849 11.4474 31.6967C11.4288 31.692 11.4101 31.6871 11.3912 31.682C16.6959 31.9471 23.5911 32.2165 29.7189 32.2165ZM41.1103 21.7081C41.2717 21.8106 41.3487 22.0462 41.607 22.6006C41.7241 22.87 42.1592 23.801 42.6323 24.8132C43.2238 26.0787 43.8746 27.4711 44.0373 27.8561C44.1144 28.0336 44.0787 28.033 43.9103 28.0302C43.8869 28.0298 43.8609 28.0294 43.8323 28.0294H42.2219C42.134 28.0294 42.0462 28.0005 42.0169 27.9139C42.0169 27.8875 41.8455 27.4988 41.5922 26.9246C41.5686 26.8709 41.5442 26.8156 41.5191 26.7588H37.7419C37.4491 27.423 37.2148 27.9139 37.2148 27.9139C37.1855 27.9716 37.127 28.0294 37.0098 28.0294H35.4579C35.2237 28.0294 35.1358 28.0294 35.2823 27.7406L35.3115 27.6828C36.0436 26.0946 37.7711 22.2829 37.7711 22.2829C37.9379 21.9403 37.986 21.7733 38.0968 21.6924C38.2196 21.6028 38.4193 21.6187 38.9424 21.6187C39.2059 21.5899 39.2645 21.5899 39.5866 21.5899C39.9087 21.5899 40.1429 21.5899 40.2308 21.6187C40.738 21.6326 40.9605 21.6131 41.1103 21.7081ZM39.2938 23.1492C39.2938 23.1781 38.8253 24.2754 38.3275 25.4016H40.9335C40.7215 24.8708 40.4913 24.34 40.3087 23.919C40.1635 23.5842 40.0484 23.3188 39.9965 23.1781C39.9672 23.0915 39.9087 23.0626 39.8501 23.0626C39.8208 23.0337 39.733 23.0337 39.6744 23.0337C39.5866 23.0337 39.4987 23.0337 39.4695 23.0626C39.3816 23.0626 39.323 23.0915 39.2938 23.1492ZM17.8014 21.7054C17.8014 21.5899 17.7721 21.5321 17.6257 21.5321H16.0446C15.9274 21.5321 15.8981 21.5899 15.8981 21.7054V27.7695C15.8981 27.9427 15.9274 27.9716 16.1031 27.9716H17.5965C17.7721 27.9716 17.8014 27.9139 17.8014 27.7695V21.7054ZM14.6391 21.792C14.6391 21.6476 14.6098 21.5899 14.4341 21.5899H13.1457C12.97 21.5899 12.9408 21.6476 12.9408 21.792V26.6144C12.9408 26.6144 10.3347 22.6583 10.0126 22.1385C9.62209 21.5883 9.47074 21.5885 8.4951 21.5897C8.44668 21.5898 8.39623 21.5899 8.34362 21.5899H6.85028C6.67459 21.5899 6.64531 21.6476 6.64531 21.792V27.8272C6.64531 28.0005 6.67459 28.0294 6.85028 28.0294H8.13865C8.31434 28.0294 8.34362 28.0005 8.34362 27.8272V23.0915C8.34362 23.0915 10.5104 26.3545 11.2132 27.4518C11.5645 28.0294 11.6524 28.0294 12.6772 28.0294H14.4341C14.6098 28.0294 14.6391 28.0005 14.6391 27.8272V21.792ZM52.9973 21.792C52.9973 21.6476 52.9681 21.5899 52.7924 21.5899H51.504C51.3283 21.5899 51.299 21.6476 51.299 21.792V26.6144C51.299 26.6144 48.7223 22.6583 48.3709 22.1385C47.9804 21.5883 47.829 21.5885 46.8534 21.5897C46.805 21.5898 46.7545 21.5899 46.7019 21.5899H45.2086C45.0329 21.5899 45.0036 21.6476 45.0036 21.792V27.8272C45.0036 28.0005 45.0329 28.0294 45.2086 28.0294H46.4969C46.6726 28.0294 46.7019 28.0005 46.7019 27.8272V23.0915C46.7019 23.0915 48.8394 26.3545 49.5714 27.4518C49.9228 28.0294 50.0107 28.0294 51.0355 28.0294H52.7924C52.9681 28.0294 52.9973 28.0005 52.9973 27.8272V21.792ZM26.4394 25.4305C26.2051 24.362 25.3559 24.1599 24.214 24.0444C24.0309 24.028 23.7626 24.0069 23.4602 23.9831C22.6989 23.9233 21.7217 23.8465 21.3444 23.7845C21.1395 23.7556 21.0516 23.6401 21.0516 23.4957V23.3513V23.2358C21.0809 23.0337 21.1688 22.9471 21.3737 22.9471H25.9709C26.1465 22.976 26.2051 22.9182 26.2051 22.7738V21.7343C26.2051 21.5899 26.1465 21.561 25.9709 21.561H21.2859C20.0561 21.561 19.3826 21.9941 19.1776 22.8893C19.1484 23.0915 19.1484 23.3513 19.1484 23.5246C19.1484 23.7267 19.1484 23.9578 19.1776 24.131C19.2362 24.6508 19.5876 25.2283 20.9931 25.3727C22.0765 25.4882 23.6869 25.6326 24.2433 25.6615C24.4936 25.6889 24.5325 25.8466 24.5609 25.9613C24.5624 25.9674 24.5639 25.9733 24.5654 25.9791V26.1524V26.4123C24.5361 26.5567 24.4775 26.6144 24.2726 26.6144H19.3826C19.2069 26.6144 19.1776 26.6433 19.1776 26.8165V27.8272C19.1776 28.0005 19.2069 28.0294 19.3826 28.0294H24.214C25.4438 28.0294 26.2051 27.8272 26.4101 26.8165C26.4686 26.5855 26.4686 26.3256 26.4686 26.1235C26.4686 25.9148 26.456 25.7186 26.4473 25.584C26.4428 25.5137 26.4394 25.4602 26.4394 25.4305ZM34.7259 25.4305C34.4917 24.362 33.6425 24.1599 32.5005 24.0444C32.3117 24.0267 32.0207 24.0035 31.6928 23.9773C30.953 23.9184 30.0255 23.8445 29.6603 23.7845C29.426 23.7556 29.3675 23.6401 29.3675 23.4957V23.3513V23.2358C29.3967 23.0337 29.4846 22.9471 29.6896 22.9471H34.2867C34.4624 22.976 34.5209 22.9182 34.5209 22.7738V21.7343C34.5209 21.5899 34.4624 21.561 34.2867 21.561H29.6017C28.3719 21.561 27.6984 21.9941 27.4935 22.8893C27.4642 23.0914 27.4642 23.3513 27.4642 23.5245V23.5246V23.5247C27.4642 23.7268 27.4642 23.9578 27.4935 24.131C27.5813 24.6508 27.9034 25.2283 29.3089 25.3727C30.3923 25.4882 32.0028 25.6326 32.5591 25.6615C32.7934 25.6904 32.8519 25.8636 32.8812 25.9791V26.1524V26.4123C32.8519 26.5567 32.7934 26.6144 32.5884 26.6144H27.6984C27.5228 26.6144 27.4935 26.6433 27.4935 26.8165V27.8272C27.4935 28.0005 27.5228 28.0294 27.6984 28.0294H32.5005C33.7304 28.0294 34.4917 27.8272 34.6966 26.8165C34.7552 26.5855 34.7552 26.3256 34.7552 26.1235C34.7552 25.9148 34.7426 25.7186 34.7339 25.584C34.7294 25.5137 34.7259 25.4602 34.7259 25.4305Z" fill="white"/>
</svg>
