<svg width="87" height="49" viewBox="0 0 87 49" fill="none" xmlns="http://www.w3.org/2000/svg">
<path d="M8.49553 35.9473V40.7251H3.08049V35.9473H0.0957336V48.484H3.08049V43.4434H8.49553V48.484H11.4803V35.9473H8.49553Z" fill="white"/>
<path d="M22.4148 35.9473L19.2932 40.9123L16.1753 35.9473H12.654L17.8062 44.1419V48.484H20.7874V44.1419L25.9396 35.9473H22.4148Z" fill="white"/>
<path d="M35.5347 35.9473V45.1356C35.5347 45.4849 35.2719 45.7657 34.901 45.7657H30.1197V35.9473H27.135V48.484H35.9524C36.7372 48.484 37.3674 48.2499 37.8282 47.7927C38.2855 47.3318 38.5159 46.7018 38.5159 45.9205V35.9473H35.5347Z" fill="white"/>
<path d="M50.0985 35.9473H41.281V48.484H44.2622V38.662H49.0507C49.436 38.662 49.6808 38.9645 49.6808 39.2885V48.484H52.662V38.5109C52.662 37.726 52.4279 37.0959 51.9743 36.6386C51.5098 36.1778 50.8834 35.9473 50.0985 35.9473Z" fill="white"/>
<path d="M64.2445 35.9473H55.427V48.484H64.2445C65.0294 48.484 65.6559 48.2499 66.1131 47.7927C66.574 47.3318 66.8044 46.7018 66.8044 45.9205V38.5109C66.8044 37.726 66.5739 37.0959 66.1131 36.6386C65.6559 36.1778 65.0258 35.9473 64.2445 35.9473ZM63.8232 39.3101V45.1176C63.8232 45.456 63.5784 45.7657 63.1896 45.7657H58.4046V38.662H63.1679C63.5604 38.662 63.8232 38.9357 63.8232 39.3101Z" fill="white"/>
<path d="M72.0034 35.9473C71.2221 35.9473 70.5884 36.1778 70.1312 36.6386C69.6703 37.0995 69.4435 37.7296 69.4435 38.5109V48.484H72.4174V44.6064H77.8361V48.484H80.8172V35.9473H72.0034ZM77.8361 38.662V41.8917H72.4174V39.2994C72.4174 38.9897 72.6586 38.662 73.0547 38.662H77.8361Z" fill="white"/>
<path d="M83.7192 48.484H86.704V35.9473H83.7192V48.484Z" fill="white"/>
<path d="M41.6383 27.2595C55.9558 27.2595 67.5641 21.3787 67.5641 14.1279C67.5641 6.87172 55.9558 0.990845 41.6383 0.990845C27.3263 0.990845 15.718 6.87172 15.718 14.1279C15.718 21.3787 27.3263 27.2595 41.6383 27.2595ZM46.5203 20.8156C46.0879 21.8065 45.3436 23.9238 43.636 24.7685C43.116 25.0232 42.4757 25.1423 41.9064 25.1639C41.775 25.1639 41.6821 25.1639 41.6436 25.1639C36.8601 25.1639 32.4051 24.5032 28.6779 23.3822C28.6501 23.3705 28.5632 23.339 28.5358 23.328C28.191 23.2145 28.0158 23.0573 28.0158 22.8624C28.0158 22.6946 28.1088 22.5646 28.2291 22.4454C28.2839 22.3967 28.3605 22.3319 28.4646 22.2395C29.3293 21.5302 31.9181 19.6728 36.8001 17.8208C38.5131 17.1764 40.6585 16.3696 42.9024 15.8985C44.216 15.6277 49.0979 14.8858 46.5201 20.8153L46.5203 20.8156ZM59.6172 7.57547C59.7101 7.41828 59.8308 7.28307 60.0549 7.27207C60.1753 7.26028 60.3397 7.28778 60.5913 7.44535C63.6343 9.29732 65.4404 11.615 65.4404 14.1222C65.4404 18.6492 59.5569 22.5426 51.1394 24.2429C50.603 24.3514 50.2418 24.3459 50.1214 24.2115C50.034 24.1302 50.0122 23.984 50.1214 23.8054C50.1707 23.7135 50.231 23.6321 50.3458 23.4965C54.9267 18.1518 58.4185 10.2674 59.4091 7.99303C59.4858 7.83585 59.5569 7.67914 59.6173 7.57618L59.6172 7.57547ZM36.8385 7.40842C37.2708 6.41746 38.0152 4.30005 39.7228 3.46074C40.2427 3.2061 40.8831 3.08159 41.4522 3.06548C41.5837 3.06155 41.6766 3.06548 41.7096 3.06548C46.4985 3.06548 50.9481 3.72069 54.6807 4.84702C54.7085 4.85881 54.7955 4.89022 54.8229 4.90123C55.1676 5.01479 55.3428 5.17193 55.3428 5.36688C55.3428 5.53467 55.2499 5.65927 55.1295 5.77845C55.0747 5.83268 54.9981 5.89751 54.894 5.98435C54.0348 6.69914 51.4405 8.55111 46.5586 10.4031C44.84 11.0529 42.7001 11.8543 40.4616 12.3254C39.1426 12.6017 34.2607 13.3381 36.8385 7.40854V7.40842ZM32.1371 4.00242C32.6789 3.89947 33.0347 3.89945 33.1661 4.03384C33.2427 4.12029 33.2645 4.26137 33.1621 4.44001C33.1072 4.53196 33.0473 4.61884 32.9377 4.74341C28.3568 10.0935 24.865 17.9724 23.8689 20.2522C23.7978 20.4094 23.7212 20.5662 23.6608 20.6692C23.573 20.8263 23.4475 20.9616 23.2284 20.9726C23.1081 20.9843 22.9384 20.949 22.6866 20.7993C19.6435 18.9473 17.8375 16.6296 17.8375 14.1224C17.8375 9.59541 23.721 5.70203 32.1385 4.0017" fill="white"/>
</svg>
