<svg width="115" height="115" viewBox="0 0 115 115" fill="none" xmlns="http://www.w3.org/2000/svg">
<path d="M11.3006 93.396L0 70.7948L114.335 0V41.5462L11.3006 93.396Z" fill="#141414"/>
<path d="M21.9364 115L12.2977 95.0578L107.023 47.5289V81.0983L21.9364 115Z" fill="#141414"/>
<path d="M14.2778 88.7408L9.3114 78.5438L12.596 76.9441C13.4971 76.5052 14.4072 76.3161 15.3264 76.3768C16.2432 76.4328 17.0843 76.7365 17.8497 77.288C18.6175 77.8325 19.2288 78.5659 19.6837 79.488L19.9123 79.9573C20.3671 80.8911 20.5768 81.8258 20.5415 82.7614C20.5086 83.6901 20.235 84.5397 19.7206 85.3101C19.2087 86.0736 18.5126 86.6725 17.6324 87.107L14.2778 88.7408ZM12.694 79.2445L15.815 85.6526L16.6695 85.2365C17.3745 84.8931 17.7944 84.3796 17.9293 83.6958C18.0619 83.0073 17.8871 82.1682 17.405 81.1784L17.1901 80.7372C16.7103 79.752 16.1597 79.1018 15.5382 78.7864C14.9167 78.471 14.2441 78.4895 13.5204 78.842L12.694 79.2445Z" fill="white"/>
<path d="M25.5859 78.7796L24.2553 79.4277L26.0085 83.0274L23.5503 84.2247L18.5839 74.0277L22.5969 72.0732C23.8062 71.4842 24.8824 71.2922 25.8256 71.4971C26.7687 71.7021 27.4791 72.2948 27.9566 73.2752C28.3023 73.9849 28.4441 74.6437 28.382 75.2516C28.3246 75.8572 28.0606 76.4537 27.5899 77.0411L31.7212 80.1151L31.7724 80.2202L29.1391 81.5027L25.5859 78.7796ZM23.3309 77.5297L24.8857 76.7725C25.3526 76.5451 25.6436 76.2532 25.7588 75.8967C25.8764 75.5332 25.8283 75.1321 25.6146 74.6932C25.4008 74.2543 25.1146 73.9691 24.756 73.8377C24.3951 73.7015 23.9835 73.746 23.5213 73.9711L21.9665 74.7284L23.3309 77.5297Z" fill="white"/>
<path d="M37.1264 72.2664L33.2606 74.1492L34.4442 76.5794L39.0104 74.3555L39.9314 76.2464L32.9069 79.6676L27.9405 69.4706L34.979 66.0426L35.9034 67.9405L31.3231 70.1713L32.3703 72.3213L36.2362 70.4385L37.1264 72.2664Z" fill="white"/>
<path d="M45.7969 71.0328L42.4283 72.6735L42.7678 74.8649L40.1415 76.1441L38.9149 64.1256L41.226 63L49.9603 71.3619L47.32 72.6478L45.7969 71.0328ZM42.0922 70.489L44.2842 69.4214L41.4622 66.4202L42.0922 70.489Z" fill="white"/>
<path d="M48.9718 59.2274L54.7033 65.2133L53.5171 57.0137L56.7527 55.4378L61.719 65.6348L59.2538 66.8355L58.0941 64.4543L55.9582 59.464L57.0267 67.9202L55.4019 68.7115L49.3925 62.653L52.0081 67.4185L53.1679 69.7996L50.7096 70.9969L45.7433 60.7999L48.9718 59.2274Z" fill="white"/>
<path d="M20.69 93.7049L26.4214 99.6908L25.2352 91.4912L28.4708 89.9153L33.4372 100.112L30.972 101.313L29.8122 98.9318L27.6763 93.9414L28.7449 102.398L27.1201 103.189L21.1107 97.1305L23.7262 101.896L24.886 104.277L22.4278 105.474L17.4614 95.2774L20.69 93.7049Z" fill="white"/>
<path d="M39.996 94.561L36.6274 96.2017L36.9669 98.3932L34.3406 99.6723L33.114 87.6538L35.4252 86.5282L44.1594 94.8901L41.5191 96.176L39.996 94.561ZM36.2913 94.0172L38.4834 92.9496L35.6613 89.9484L36.2913 94.0172Z" fill="white"/>
<path d="M46.5267 89.0408L46.0572 90.6385L47.367 93.3278L44.9088 94.5251L39.9424 84.3281L42.4006 83.1308L44.5904 87.627L44.8138 85.9153L45.4541 81.6437L48.4936 80.1633L47.2446 86.3517L53.46 90.3603L50.5465 91.7793L46.5267 89.0408Z" fill="white"/>
<path d="M58.3028 82.6555L54.4369 84.5383L55.6205 86.9685L60.1868 84.7446L61.1077 86.6355L54.0833 90.0567L49.1169 79.8597L56.1553 76.4317L57.0797 78.3296L52.4995 80.5604L53.5466 82.7104L57.4125 80.8276L58.3028 82.6555Z" fill="white"/>
<path d="M64.1448 80.7026L62.8142 81.3507L64.5674 84.9505L62.1092 86.1477L57.1428 75.9507L61.1558 73.9962C62.3651 73.4073 63.4413 73.2153 64.3844 73.4202C65.3276 73.6251 66.038 74.2178 66.5155 75.1983C66.8612 75.908 67.0029 76.5668 66.9409 77.1746C66.8835 77.7802 66.6194 78.3767 66.1488 78.9641L70.2801 82.0382L70.3312 82.1432L67.698 83.4258L64.1448 80.7026ZM61.8898 79.4528L63.4446 78.6955C63.9115 78.4681 64.2025 78.1762 64.3177 77.8197C64.4353 77.4563 64.3872 77.0551 64.1735 76.6162C63.9597 76.1774 63.6735 75.8922 63.3149 75.7607C62.954 75.6246 62.5424 75.669 62.0802 75.8942L60.5254 76.6514L61.8898 79.4528Z" fill="white"/>
<path d="M75.4053 76.3187C75.2302 75.9592 74.9654 75.7416 74.6108 75.6659C74.2609 75.5879 73.7138 75.5973 72.9696 75.6941C72.2253 75.7908 71.6012 75.8377 71.0972 75.8348C69.4598 75.8294 68.3649 75.2594 67.8123 74.1248C67.5371 73.5599 67.4584 72.983 67.576 72.3943C67.696 71.7986 67.9992 71.2351 68.4855 70.7036C68.9695 70.1675 69.5874 69.7164 70.3391 69.3503C71.0721 68.9932 71.7918 68.8045 72.4981 68.784C73.209 68.7612 73.8439 68.9141 74.4025 69.2428C74.9589 69.5668 75.3883 70.0393 75.6907 70.6602L73.2395 71.8541C73.0371 71.4385 72.7518 71.1789 72.3836 71.0752C72.0201 70.9692 71.6212 71.022 71.187 71.2335C70.7481 71.4472 70.448 71.7147 70.2867 72.0358C70.1278 72.3501 70.1212 72.6566 70.2667 72.9554C70.394 73.2168 70.6501 73.3867 71.0348 73.4651C71.4173 73.5387 72.0168 73.5183 72.8332 73.4037C73.6474 73.2844 74.3446 73.2452 74.9248 73.2861C76.3359 73.3844 77.3132 73.9915 77.8567 75.1074C78.291 75.9992 78.296 76.8633 77.8715 77.6996C77.447 78.536 76.6489 79.2396 75.477 79.8103C74.6505 80.2128 73.8295 80.4307 73.014 80.464C72.2008 80.4904 71.4987 80.3298 70.9077 79.9822C70.3191 79.6277 69.8611 79.1143 69.5337 78.4419L71.9989 77.2413C72.2649 77.7875 72.6017 78.1232 73.0092 78.2482C73.419 78.3663 73.9415 78.2707 74.5765 77.9614C74.9827 77.7636 75.2604 77.5214 75.4097 77.235C75.5614 76.9416 75.56 76.6362 75.4053 76.3187Z" fill="white"/>
</svg>
