<svg width="145" height="61" viewBox="0 0 145 61" fill="none" xmlns="http://www.w3.org/2000/svg">
<path fill-rule="evenodd" clip-rule="evenodd" d="M144.726 9.33853C144.069 9.28665 140.797 9.21158 140.172 9.19943C139.544 9.18618 139.495 9.87286 139.27 10.352C139.054 9.53725 137.038 8.218 133.825 9.42133C131.049 10.4591 128.969 13.1991 127.793 16.5398C126.709 19.611 127.531 23.1007 131.747 22.6823C124.168 23.6659 118.863 27.7727 115.133 30.1352C111.928 32.1688 108.741 31.4501 108.613 29.2046C108.654 29.0522 108.696 28.8933 108.741 28.7111C108.706 28.7133 107.879 28.7519 107.879 28.7519C102.855 28.9838 97.8139 29.3602 92.7785 29.8868C92.9409 29.4 93.068 29.0279 93.2713 28.4285C94.7796 23.9342 96.0227 20.694 97.5653 16.213C98.2824 14.0647 99.8592 12.7244 100.963 12.9187C102.816 13.2632 102.756 16.4879 102.069 18.1472C101.038 20.7404 99.3962 22.6746 98.194 22.021C97.6106 21.6898 98.3365 20.7636 98.3365 20.7636C97.857 20.8685 97.3796 20.9733 96.9034 21.0782C96.3763 22.0828 95.2459 23.879 96.8492 25.2225C98.4526 26.6113 101.206 25.7105 102.933 24.3018C104.83 22.7518 106.162 20.3783 106.878 17.3545C107.756 13.5844 106.004 9.79006 103.024 10.0716C100.769 10.2438 98.8537 11.913 98.8537 11.913C98.8537 11.9163 99.4194 10.9437 97.7211 11.0762C95.4769 11.2495 93.8625 11.3997 93.8625 11.403C92.9907 11.7838 94.2548 12.1636 93.9509 12.9717L92.9409 15.8222C91.4326 20.5472 89.9111 24.0347 88.4393 28.7696C88.3332 29.1405 88.1177 29.7797 87.878 30.4377C62.8867 33.52 38.059 40.2764 15.4546 51.0765C14.4789 54.861 13.9916 56.751 13.0203 60.5332C35.0789 46.5988 60.784 36.9457 86.8802 32.9857C86.1708 34.5423 85.6371 35.6297 84.7288 36.716C83.2183 38.5188 81.9951 39.3049 81.0315 39.8149C79.6658 40.5568 84.0746 40.6892 86.1122 39.7542C89.4514 38.1424 89.5454 36.5471 89.5454 36.5438C90.2923 37.1024 91.1211 37.4148 91.8525 37.3442C95.1034 36.9523 91.1166 35.8682 91.6028 33.7684C91.7476 33.2727 91.8879 32.7748 92.0304 32.278C96.91 31.6786 101.797 31.2867 106.669 31.1001C106.312 32.3299 106.158 33.8269 107.077 34.7388C108.613 36.3076 112.6 36.1795 116.618 33.4527C120.634 30.7248 125.024 24.9554 133.842 23.0102C134.013 22.5476 134.319 21.4414 134.487 20.98C134.487 20.9777 132.176 22.4571 132.306 18.8228C132.401 15.8266 135.58 10.7737 137.086 10.7373C139 10.6909 138.175 12.869 138.175 12.869C137.274 15.1775 136.375 17.498 135.478 19.8252C134.323 22.6668 136.37 23.5986 138.713 23.2266C140.421 22.9539 141.205 22.2208 141.981 21.6357L142.753 19.7292C141.307 20.5196 139.486 21.1709 140.049 19.7623C140.955 17.3766 142.876 13.145 143.786 10.7836C144.017 10.1555 145.584 9.40367 144.726 9.33853ZM110.353 24.6485C112.371 24.8847 115.012 24.1263 117.162 21.7141C117.552 21.299 117.898 20.8287 118.102 20.2878C119.572 17.0807 118.508 15.7449 117.805 15.2282C117.576 15.0406 117.38 14.9611 117.38 14.9611C117.545 14.8286 117.733 14.7193 118.038 14.5372C118.605 14.196 119.465 13.813 120.619 13.3691C121.612 13.0026 121.976 13.8306 121.53 14.7392C120.74 16.6811 120.253 18.1041 119.471 20.0626C118.731 21.4591 119.028 23.9762 121.068 23.8867C123.159 23.8161 123.939 23.4573 126.15 22.1899C126.086 21.7373 126.021 21.2858 125.954 20.832C124.881 21.596 123.485 21.6545 124.098 20.099C125.142 17.307 125.894 15.0582 126.955 12.2972C127.119 11.7165 129.109 8.356 124.354 9.93689C122.103 10.7571 119.042 12.1459 118.05 12.7829C117.074 13.4111 116.514 13.7379 115.651 14.3241C115.651 14.3241 117.155 16.171 116.019 19.5912C114.484 24.0512 111.11 23.9585 112.147 21.3719C113.218 18.4452 115.661 11.6547 115.867 11.2595C116.074 10.8653 116.691 10.3343 115.211 10.2957C113.732 10.2559 111.244 10.4094 111.242 10.4458C110.105 10.6092 111.503 11.2043 111.187 11.998C110.186 14.525 108.939 17.8104 108.173 19.8263C107.661 21.0738 107.143 24.2665 110.353 24.6485ZM50.1828 19.8506C50.3663 20.1498 50.0149 21.1367 50.0149 21.1378C49.1088 23.868 48.2038 26.6102 47.3 29.3647C47.3 29.3647 46.5983 31.4125 47.0215 32.755C47.406 33.8689 48.7696 34.1283 49.6116 33.8799C50.7685 33.5377 52.6933 32.4017 53.5784 31.2293L53.7828 29.0589C53.2823 29.6583 52.3353 30.7656 52.0679 30.1816C51.8469 29.655 52.2768 28.1646 52.2768 28.1646C52.7884 26.5672 53.3044 24.9786 53.8182 23.3888C54.2149 22.1656 54.6138 20.9446 55.0094 19.7236C55.0094 19.7236 55.8812 17.3346 55.2292 16.5409C54.9961 16.2384 54.6049 16.086 54.2083 16.1059C52.1839 16.0971 50.2071 17.9794 49.2425 18.8603C49.258 19.1992 48.7464 20.2083 48.7629 20.5494C48.7629 20.5494 50.0016 19.5503 50.1828 19.8506ZM54.3033 14.313C54.4547 14.2722 54.6613 14.1243 54.8668 14.0326C57.8469 12.2574 57.1817 11.0166 57.0337 10.7163C56.8867 10.4226 56.1353 9.83643 54.5044 10.5651C54.1972 10.703 53.9408 10.8455 53.5806 11.0916C50.9 12.847 51.7309 14.1199 51.7287 14.1165C51.7287 14.1199 52.3132 15.2448 54.3033 14.313ZM7.20814 35.0247C6.44018 33.5156 7.69986 30.0778 11.4314 27.7926C15.5452 25.2733 17.9043 25.4036 17.9043 25.4036C17.9043 25.4036 15.9618 28.455 13.6435 31.3054C13.2181 31.8287 12.7993 32.2957 12.4269 32.7682C11.1639 34.1725 8.47886 37.3265 7.20814 35.0247ZM23.9319 19.1131C24.9463 17.0962 26.3982 14.2854 26.8756 13.0744C26.638 15.5429 25.0822 20.152 24.2579 23.1128C24.2358 23.1879 24.2159 23.2652 24.1971 23.3425C23.4745 23.2266 22.4966 23.1272 21.6977 23.1493C22.2888 22.18 23.2038 20.5549 23.9319 19.1131ZM13.9651 35.0568C16.2899 31.9303 18.4479 28.6769 20.3054 25.2523C21.5143 25.344 22.5828 25.4378 23.6855 25.7613C22.6888 29.3591 21.6933 32.8565 20.6557 36.4411C19.438 39.6636 17.8999 42.9082 14.9662 44.9186C14.9662 44.923 16.3131 45.6472 19.354 43.2549C19.6623 43.0186 21.8579 40.7522 21.8491 40.9354C21.8491 40.9354 23.4314 42.8873 27.9496 40.9156C33.2502 38.5994 38.2403 28.1646 40.1695 21.9879C40.1541 22.0287 40.7994 21.628 40.6502 22.1281C40.0137 24.2466 37.9872 30.4068 37.5651 32.4183C37.4325 32.989 37.3684 35.739 39.88 35.9984C41.4215 36.2226 43.027 34.5445 44.4403 32.3233L44.2093 30.1562C42.9519 32.0297 42.2215 31.6554 42.6314 30.0127C42.6303 30.0039 44.5265 23.0212 45.1596 21.3752C45.858 19.8771 46.4668 19.0303 46.7994 18.729C47.2182 18.3547 47.6513 17.5057 44.8889 18.1229C42.1287 18.74 40.5364 19.1175 37.7198 19.9974C36.6944 20.3573 37.5662 20.6642 37.701 20.9998C37.8347 21.3365 38.0093 23.6361 35.1474 28.6967C33.8546 30.7512 31.6535 35.3504 28.8844 36.6962C27.3154 37.4568 26.5087 36.4544 26.9872 34.8779C27.6237 32.5861 28.2612 30.1893 28.8866 27.9317C30.2458 28.7519 31.3298 29.4861 31.7651 29.8405L32.7264 26.8377C32.1717 26.4535 30.9353 25.6928 29.7651 25.1971C30.8005 20.9866 31.9297 16.9482 33.4126 12.8679C34.3861 10.6501 35.4215 9.34737 36.2635 8.58452C36.6491 8.23677 36.6447 7.67815 35.9651 7.76427C34.9983 7.88681 33.8027 8.26768 32.6336 8.49399C30.0237 8.9963 24.3441 10.6158 23.7872 10.8101C22.5673 11.2352 23.7032 11.7143 23.8148 11.998C23.8601 12.1172 23.9032 12.2376 23.8944 12.412C23.9596 13.06 23.8756 13.8141 23.6877 14.5592C22.68 17.9385 21.1364 20.2679 19.1231 23.1537C17.3551 23.3436 14.7297 23.7554 10.8037 25.4477C7.12416 27.0364 4.28991 29.7146 2.58493 32.7903C0.882163 35.8649 -0.738846 42.8111 4.87553 42.141C7.22692 41.5349 10.2126 39.6647 12.6402 36.7083C13.059 36.2954 13.4866 35.7026 13.9651 35.0568ZM79.2602 17.9208C80.0735 16.3874 80.9929 15.4877 81.8371 14.8772C82.5188 14.4102 83.1862 14.2159 83.71 14.7116C84.384 15.2735 84.1354 16.0805 83.6978 17.4936C83.205 18.9597 82.784 20.1056 81.7288 22.6602C81.647 22.8357 81.5564 23.0289 81.4437 23.2277C80.5464 24.8185 78.9166 26.2437 77.7729 25.2082C76.4846 24.0976 78.1354 20.0394 79.2602 17.9208ZM73.6514 18.8272C71.9873 22.7342 71.9464 26.5076 74.2138 28.0057C74.9807 28.5709 76.0249 28.7111 77.0326 28.5312C78.7984 28.2541 80.2912 26.6478 81.3166 25.3925C81.479 25.1894 81.6404 24.9885 81.7553 24.7809C81.7553 24.7809 81.1575 27.2251 83.3475 27.489C85.2989 27.7253 87.5199 25.6531 87.5199 25.6597L88.3465 23.4838C88.3465 23.4827 85.6779 25.6387 86.0216 23.3535C87.0061 20.4478 88.2492 17.1679 89.2503 14.2899C89.563 13.3592 89.805 12.9121 90.1266 12.5003C90.5299 12.125 90.7222 11.7816 90.1564 11.7662C89.205 11.6105 86.6282 11.9395 85.9851 12.0212C85.3465 12.1029 85.1586 13.0236 84.7608 13.8096C78.721 9.57478 74.4536 16.9383 73.6514 18.8272ZM66.7144 10.2228C67.1851 9.53283 67.7663 8.58783 68.6006 7.41099C71.0503 4.04055 72.6061 2.98294 73.3752 3.07678C74.331 3.20153 74.1685 5.23064 73.1464 7.1096C72.8271 7.65166 72.5033 8.24781 72.0415 8.72141C69.9796 11.1181 68.226 12.104 67.153 12.4573C66.0845 12.8116 65.5497 12.9397 65.1309 12.9386C65.2878 12.6372 66.1365 11.2098 66.7144 10.2228ZM56.7696 26.7273C56.9475 29.5899 58.553 31.9038 62.1608 31.3154C63.4713 30.9952 65.1519 30.2854 66.5785 28.9705C68.1133 27.6656 69.5221 25.673 70.7155 22.8733C71.868 19.6949 72.7343 13.6871 67.4381 14.3881C66.7663 14.7789 66.0304 15.3353 65.1155 16.2207C65.2536 16.6369 64.9729 17.0608 65.1133 17.477C65.8989 16.978 66.4901 17.0354 66.8403 17.5278C67.395 18.2101 67.4006 19.8694 66.7431 21.872C66.6801 22.0354 66.6171 22.1999 66.5508 22.4229C65.3729 25.9214 63.5729 29.1306 62.1265 28.466C60.9033 27.8688 61.6436 23.4959 63.005 19.4013C63.7166 17.2551 64.8691 14.3484 64.8823 14.3362C64.8823 14.3362 66.2017 14.1441 67.0602 13.8902C68.0702 13.591 70.7221 12.4705 72.9906 9.88942C73.1442 9.74921 73.247 9.60238 73.4028 9.41029C73.6105 9.11774 73.8216 8.82739 74.0304 8.53594C76.5 4.98776 76.647 1.66259 74.4691 0.793762C74.279 0.716484 74.0912 0.639202 73.9011 0.614918C73.7542 0.595043 73.6602 0.582905 73.5177 0.564137C71.7862 0.394123 69.542 0.8876 67.1166 2.98074C65.4459 4.47773 62.1873 8.63751 59.9232 14.0591C58.5784 17.2794 57.1884 21.4668 56.848 24.4829C56.7331 25.1916 56.753 26.0969 56.7696 26.7273Z" fill="white"/>
</svg>
