<svg width="148" height="49" viewBox="0 0 148 49" fill="none" xmlns="http://www.w3.org/2000/svg">
<path d="M138.183 20.6883C137.917 20.6883 137.689 20.9248 137.689 21.1907V25.951H131.742V21.1907C131.742 20.9248 131.508 20.6883 131.243 20.6883H129.615C129.352 20.6883 129.148 20.9248 129.148 21.1907V33.4198C129.148 33.6916 129.352 33.9257 129.615 33.9257H131.243C131.508 33.9257 131.742 33.6916 131.742 33.4198V28.3367H137.689V33.4198C137.689 33.6916 137.917 33.9257 138.183 33.9257H139.817C140.042 33.9257 140.274 33.6916 140.274 33.4198V21.1907C140.274 20.9248 140.042 20.6883 139.817 20.6883H138.183ZM125.566 15.2276C125.865 15.2276 126.095 15.4623 126.095 15.7247V17.2389C126.095 17.5069 125.865 17.7426 125.566 17.7426H115.439C115.172 17.7426 114.944 17.5069 114.944 17.2389V15.7247C114.944 15.4623 115.172 15.2276 115.439 15.2276H125.566ZM59.9369 15.2276C59.6782 15.2276 59.4422 15.4623 59.4422 15.7247V28.3364C59.4422 31.7165 60.5031 33.9612 64.6893 33.9612H65.1875C71.1616 33.9612 72.0607 29.9748 72.0607 27.9293C72.0607 26.1171 71.3963 21.8253 65.4543 21.8253H62.1308V17.7426H69.8011C70.0689 17.7426 70.3024 17.5069 70.3024 17.2389V15.7247C70.3024 15.4623 70.0689 15.2276 69.8011 15.2276H59.9369ZM65.5494 24.3084C67.9777 24.3084 69.3369 25.6449 69.3369 27.9293C69.3369 30.208 67.9777 31.451 65.5494 31.451H64.689C62.8659 31.451 62.1301 30.6793 62.1301 28.5981V24.3084H65.5494ZM103.225 20.9248C103.058 20.9937 102.924 21.1907 102.924 21.3584V22.871C102.924 23.0006 103.023 23.1733 103.119 23.2363C103.259 23.3052 103.39 23.3357 103.52 23.3052C104.416 23.0006 105.449 22.6992 107.138 22.6992C109.229 22.6992 109.6 23.3357 109.6 24.8405V25.1151L106.71 25.3174C102.057 25.6449 101.827 28.6988 101.827 29.6376C101.827 32.4175 103.289 34.1242 106.777 34.1242C107.873 34.1242 109.101 33.7932 110.161 33.119L110.396 33.6243C110.459 33.7932 110.627 33.9257 110.823 33.9257H111.792C112.026 33.9257 112.255 33.724 112.255 33.4594V24.8766C112.255 21.7299 110.595 20.2192 107.138 20.2192C105.678 20.2189 104.253 20.4907 103.225 20.9248ZM104.582 29.6376C104.582 28.6988 104.752 27.7238 106.672 27.5599L109.561 27.2897L109.6 30.8041C108.67 31.3761 107.937 31.6791 106.809 31.6791C105.707 31.6791 104.582 31.2455 104.582 29.6376ZM83.1444 33.6243C83.2071 33.7932 83.3714 33.9257 83.5675 33.9257H84.7362C84.9676 33.9257 85.197 33.724 85.197 33.4594V21.1907C85.197 20.9248 84.9987 20.6883 84.6988 20.6883H83.1061C82.8087 20.6883 82.607 20.9248 82.607 21.1907V29.8056C81.7453 30.7441 80.1862 31.5425 79.0209 31.5425C77.3957 31.5425 76.5973 30.6418 76.5973 28.3364V21.1907C76.5973 20.9248 76.3613 20.6883 76.0973 20.6883H74.5073C74.2398 20.6883 74.0051 20.9248 74.0051 21.1907V29.1704C74.0051 32.0852 75.5685 34.1242 78.5913 34.1242C80.4521 34.1242 82.0792 33.119 82.8748 32.4175L83.1444 33.6243ZM124.071 33.6243C124.135 33.7932 124.305 33.9257 124.507 33.9257H125.667C125.901 33.9257 126.127 33.724 126.127 33.4497V21.1907C126.127 20.9248 125.932 20.6883 125.634 20.6883H124.042C123.739 20.6883 123.543 20.9248 123.543 21.1907V29.8056C122.681 30.7441 121.117 31.5425 119.951 31.5425C118.329 31.5425 117.529 30.6418 117.529 28.3364V21.1907C117.529 20.9248 117.296 20.6883 117.036 20.6883H115.439C115.172 20.6883 114.944 20.9248 114.944 21.1907V29.1704C114.944 32.0852 116.504 34.1242 119.523 34.1242C121.379 34.1242 123.016 33.119 123.808 32.4175L124.071 33.6243ZM89.31 29.2692C89.1416 31.0407 88.683 31.4812 87.186 31.6486C86.9491 31.6791 86.7221 31.9138 86.7221 32.1806V33.5227C86.7221 33.7932 86.9491 34.0264 87.186 34.0264C90.1052 34.0264 91.5683 32.6216 91.871 29.1392L92.1675 26.0164C92.3658 23.8419 92.7975 23.1737 94.7541 23.1737H96.9089V33.4198C96.9089 33.6916 97.1468 33.9257 97.4121 33.9257H99.0039C99.2352 33.9257 99.5021 33.6916 99.5021 33.4198V21.1907C99.5021 20.9248 99.2355 20.6883 99.0039 20.6883H94.6197C91.0018 20.6883 89.9444 22.7999 89.6423 25.784L89.31 29.2692Z" fill="white"/>
<path d="M145.112 20.0021C146.299 20.0021 147.348 20.3784 147.348 22.2239C147.348 24.0517 146.299 24.445 145.112 24.445C143.927 24.445 142.876 24.0514 142.876 22.2239C142.877 20.3787 143.927 20.0021 145.112 20.0021ZM145.112 20.3787C144.046 20.3787 143.284 20.6338 143.284 22.2242C143.284 23.8133 144.046 24.0684 145.112 24.0684C146.18 24.0684 146.941 23.8133 146.941 22.2242C146.941 20.6335 146.18 20.3787 145.112 20.3787ZM144.621 23.3772V22.4636H145.265L145.738 23.3857C145.758 23.4235 145.807 23.453 145.849 23.453H146.137C146.179 23.453 146.196 23.4247 146.177 23.3873L145.639 22.411C145.925 22.3088 146.027 22.0703 146.027 21.7447C146.027 21.2838 145.842 20.9919 145.214 20.9919H144.309C144.266 20.9919 144.231 21.028 144.231 21.0692V23.3772C144.231 23.4194 144.266 23.453 144.309 23.453H144.546C144.588 23.453 144.621 23.4197 144.621 23.3772ZM144.621 21.3691H145.265C145.604 21.3691 145.654 21.5402 145.654 21.7447C145.654 21.8979 145.604 22.0703 145.265 22.0703H144.621V21.3691Z" fill="white"/>
<path d="M47.4278 29.8559C47.8316 28.1003 48.0452 26.2711 48.0452 24.3915C48.0452 22.7148 47.8753 21.0781 47.5519 19.4981H0.840315C0.528249 21.0229 0.359109 22.6003 0.347656 24.2157V24.5673C0.360545 26.3852 0.573143 28.1551 0.964409 29.8559H47.4278Z" fill="white"/>
<path d="M42.1662 40.2153H6.22598C10.5978 45.2673 17.0276 48.459 24.1961 48.459C31.3646 48.459 37.7944 45.2673 42.1662 40.2153Z" fill="white"/>
<path d="M5.74706 9.13869H42.6451C38.7762 4.37857 33.1339 1.14265 26.7369 0.458984H21.6553C15.2583 1.14265 9.61595 4.37857 5.74706 9.13869Z" fill="white"/>
</svg>
