<svg width="165" height="45" viewBox="0 0 165 45" fill="none" xmlns="http://www.w3.org/2000/svg">
<path d="M15.9187 26.1732L14.2628 12.9258C14.1708 12.2818 13.8028 11.7299 13.1589 11.5459C12.5149 11.3619 11.8709 11.4539 11.4109 11.9139L1.84342 21.2054C1.65943 21.3894 1.47544 21.6654 1.38344 21.9414C1.10745 22.8613 1.56743 23.7813 2.39539 24.1492C2.57938 24.2412 2.76337 24.2412 2.94736 24.2412H4.51128H6.07521C6.1672 24.2412 6.1672 24.2412 6.2592 24.2412C6.53518 24.3332 6.71918 24.7012 6.62718 24.9772L6.07521 26.4491L0.1875 43.2843H1.38344L7.73112 25.4372C8.00711 24.5172 7.54713 23.5973 6.71917 23.2293C6.53518 23.1373 6.35119 23.1373 6.1672 23.1373H4.69527H3.95931H3.13135C3.03936 23.1373 3.03936 23.1373 2.94736 23.1373C2.67138 23.0453 2.48738 22.6773 2.57938 22.4013C2.57938 22.3093 2.67138 22.2173 2.76337 22.1254L3.86732 21.0214L11.135 14.0297L12.3309 12.8338C12.5149 12.7418 12.6989 12.6498 12.8829 12.7418C13.0669 12.8338 13.2508 13.0178 13.2508 13.2018L13.4348 14.9497L14.5388 24.7932L14.7228 26.3571C14.7228 26.4491 14.7228 26.5411 14.7228 26.6331C14.6308 26.9091 14.2628 27.0931 13.9868 27.0011C13.8948 27.0011 13.8948 26.9091 13.8028 26.9091L13.1589 26.3571L12.6069 25.8972L11.4109 24.9772C11.2269 24.8852 11.135 24.7932 10.859 24.7012C9.93901 24.4252 9.01906 24.8852 8.65108 25.7132C8.65108 25.7132 8.65108 25.7132 8.65108 25.8052L2.48739 43.2843H3.68333L9.20305 27.6451L9.75502 26.1732C9.84702 25.8972 10.215 25.7132 10.491 25.8052C10.583 25.8052 10.583 25.8972 10.675 25.8972L11.8709 26.9091L13.0669 27.9211C13.2509 28.0131 13.3428 28.1051 13.5268 28.197C14.4468 28.473 15.3667 28.0131 15.7347 27.1851C15.9187 26.7251 15.9187 26.4491 15.9187 26.1732Z" fill="white"/>
<path d="M51.1523 43.1925H64.1237L79.3029 0.598633H66.2396L51.1523 43.1925Z" fill="white"/>
<path d="M103.129 43.1926H116.008L122.724 24.4256C125.392 19.9178 130.82 20.9297 129.808 24.8855L123.368 43.1926H136.799L143.147 25.2535C144.803 20.7457 151.886 20.4698 150.323 25.8055L144.343 43.1926H157.314L164.582 22.5857C166.974 15.594 158.418 6.21047 143.699 16.514C141.951 11.8222 134.683 8.87834 125.024 15.686L125.668 12.9261H113.616L103.129 43.1926Z" fill="white"/>
<path d="M89.9765 12.9258H77.8331L70.6575 33.0728C67.0696 44.3882 78.4771 48.16 89.4245 40.3404L88.6886 43.1923H100.28L110.951 12.9258H98.5321L92.1844 30.2209C90.7125 34.4527 82.4329 36.8446 83.7208 30.3129L89.9765 12.9258Z" fill="white"/>
<path d="M35.9719 14.5819L40.8477 0.598633H27.7843L12.7891 43.1925H25.0245L26.4044 39.7887C27.1404 44.9404 44.0675 49.1722 53.0831 31.0491C60.1667 17.9858 52.0711 5.01441 35.9719 14.5819ZM40.4797 30.7731C38.0878 33.717 34.224 35.2809 31.9241 33.809C29.5322 32.1531 29.6242 28.4732 32.0161 24.9774C32.5681 24.1495 33.2121 23.3215 33.856 22.7695C36.1559 20.6536 38.7318 19.9177 40.8477 21.2976C43.4235 22.8615 42.9636 27.5533 40.4797 30.7731Z" fill="white"/>
</svg>
