<svg width="135" height="65" viewBox="0 0 135 65" fill="none" xmlns="http://www.w3.org/2000/svg">
<path d="M41.5117 42.0288H50.0416V44.7908H45.9839V64.1974H41.5117V42.0288Z" fill="white"/>
<path d="M55.101 55.8751L55.8674 44.7908H56.1241L56.8905 55.8751H55.101ZM50.1484 64.1974H54.527L54.9414 58.31H57.0501L57.4663 64.1974H61.8431L59.5107 42.0288H52.4808L50.1484 64.1974Z" fill="white"/>
<path d="M68.2474 56.4384V60.6177C68.2474 61.181 68.6875 61.3446 68.9441 61.3446C69.3659 61.3446 69.6593 60.9993 69.6593 60.6177V55.4572C69.6593 54.7667 69.5309 54.0035 67.8623 54.0035H66.0471V51.5686H67.9357C69.2009 51.5686 69.6593 51.2778 69.6593 49.915V45.5176C69.6593 45.1361 69.3659 44.7908 68.9441 44.7908C68.6875 44.7908 68.2474 44.9362 68.2474 45.5176V49.1337H63.7734V45.9901C63.7734 44.4456 63.9568 42.0288 67.0922 42.0288H70.7961C73.9315 42.0288 74.1332 44.4456 74.1332 45.9901V49.5334C74.1332 51.9502 72.428 52.6043 71.0895 52.5498V52.7679C74.0965 52.6952 74.1332 54.9847 74.1332 55.7661V60.2362C74.1332 61.7989 73.9315 64.1974 70.7961 64.1974H67.0922C63.9568 64.1974 63.7734 61.7989 63.7734 60.2362V56.4384H68.2474Z" fill="white"/>
<path d="M77.0664 42.0288H87.4262V64.1974H82.9522V44.7908H81.5404V64.1974H77.0664V42.0288Z" fill="white"/>
<path d="M94.8334 54.2216V44.7908H95.4201C95.8968 44.7908 96.2452 45.1906 96.2452 45.8992V53.1131C96.2452 53.8218 95.8968 54.2216 95.4201 54.2216H94.8334ZM90.3594 64.1974H94.8334V56.6565H97.4004C100.517 56.6565 100.719 54.2579 100.719 52.6952V45.9901C100.719 44.4456 100.517 42.0288 97.4004 42.0288H90.3594V64.1974Z" fill="white"/>
<path d="M109.538 60.6177C109.538 60.9993 109.245 61.3446 108.823 61.3446C108.566 61.3446 108.126 61.181 108.126 60.6177V45.5176C108.126 44.9362 108.566 44.7908 108.823 44.7908C109.245 44.7908 109.538 45.1361 109.538 45.5176V60.6177ZM103.652 60.2362C103.652 61.7989 103.854 64.1974 106.971 64.1974H110.693C113.81 64.1974 114.012 61.7989 114.012 60.2362V45.9901C114.012 44.4456 113.81 42.0288 110.693 42.0288H106.971C103.854 42.0288 103.652 44.4456 103.652 45.9901V60.2362Z" fill="white"/>
<path d="M128.57 42.0288H134.401V64.1974H129.927V50.2966H129.762L127.452 64.1974H123.876L121.584 50.2966H121.419V64.1974H116.945V42.0288H122.758L125.673 57.6195L128.57 42.0288Z" fill="white"/>
<path d="M35.7136 11.7193C34.3439 5.77743 30.9114 0.943951 30.4384 0.162598C29.6903 1.27103 26.9527 5.54121 25.561 10.2657C24.041 15.5534 23.8173 20.2415 24.3417 24.8388C24.8624 29.4542 26.8299 34.1969 26.8299 34.1969C27.875 36.6681 29.4409 39.3393 30.4604 40.6476C31.9547 38.7215 35.3891 32.9794 36.4599 25.493C37.0558 21.3136 37.0814 17.6613 35.7136 11.7193ZM30.4384 39.1576C29.7654 37.9038 28.7203 35.5234 28.6213 31.8165C28.5956 28.255 30.0386 25.1841 30.4604 24.5481C30.8362 25.1841 32.0794 27.8552 32.2279 31.5076C32.3288 35.0691 31.1333 37.8856 30.4384 39.1576ZM35.3157 21.8042C35.2644 24.0756 34.9912 26.4742 34.6428 27.9097C34.7675 25.4385 34.4686 21.9678 33.8965 19.2421C33.3244 16.5347 31.7054 11.9919 30.4127 9.90225C29.219 11.9011 27.7485 15.826 26.9784 19.224C26.2046 22.6219 26.1826 26.7468 26.1826 27.9824C25.9772 26.9466 25.4638 23.2216 25.6087 19.4965C25.7297 16.4256 26.4558 13.2457 26.8537 11.792C28.3719 6.94038 30.09 3.83314 30.4127 3.34251C30.7354 3.83314 32.899 7.66721 34.0212 11.683C35.1379 15.6988 35.3634 19.551 35.3157 21.8042Z" fill="white"/>
<path d="M32.7626 42.0287H22.3496V48.9519C22.3588 48.9519 22.3661 48.9337 22.3753 48.9337C24.8286 46.4988 28.8075 46.4988 31.2627 48.9337C33.716 51.3505 33.716 55.2936 31.2627 57.7285C31.2517 57.7467 31.2407 57.7467 31.2297 57.7648C31.2169 57.7648 31.204 57.783 31.193 57.8012C28.7452 60.1998 25.5474 61.399 22.3496 61.399C19.1372 61.399 15.9247 60.1998 13.4751 57.7648C9.15511 53.4946 8.64355 46.8622 11.9367 42.0287C12.3804 41.3746 12.892 40.7568 13.4751 40.1753C15.9247 37.7404 19.1372 36.5411 22.3496 36.5411V19.8965C10.0059 19.8965 0 29.7997 0 42.0287C0 54.2578 10.0059 64.1792 22.3496 64.1792C28.7855 64.1792 34.5833 61.4717 38.6612 57.1652V42.0287H32.7626Z" fill="white"/>
</svg>
