<svg width="101" height="59" viewBox="0 0 101 59" fill="none" xmlns="http://www.w3.org/2000/svg">
<path fill-rule="evenodd" clip-rule="evenodd" d="M0.980469 0.3125H100.513V58.7537H0.980469V0.3125ZM7.10547 53.5399V51.3012L61.7468 51.1834V10.4454L81.8066 5.55566L94.7084 10.6516V53.5399H92.7054V12.2128L81.8066 8.00053V53.5399H7.10547ZM7.48828 25.2329V16.3076H9.28511V19.8424H12.8199V16.3076H14.6167V25.2329H12.8199V21.3446H9.28511V25.2329H7.48828ZM16.5608 18.5461C16.2957 19.1647 16.1484 19.9306 16.1484 20.8437C16.1484 22.2576 16.5314 23.4064 17.2972 24.2017C18.0631 24.997 19.1235 25.4094 20.4491 25.4094C21.7746 25.4094 22.8056 25.0265 23.6009 24.2017C24.3962 23.3769 24.7791 22.2576 24.7791 20.8142C24.7791 19.3414 24.3962 18.2221 23.6009 17.3973C22.8056 16.5725 21.7746 16.1602 20.4491 16.1602C19.7421 16.1602 19.0941 16.278 18.5344 16.5136C18.122 16.6904 17.7391 16.9555 17.3856 17.3089C17.0321 17.6919 16.767 18.1043 16.5608 18.5461ZM18.7111 23.0824C18.2398 22.5522 18.0042 21.7863 18.0042 20.7848C18.0042 19.7538 18.2104 18.988 18.6522 18.4872C19.0941 17.9864 19.7126 17.7213 20.4491 17.7213C21.2149 17.7213 21.804 17.9864 22.2459 18.4872C22.6877 18.988 22.9234 19.7538 22.9234 20.7848C22.9234 21.8158 22.7172 22.5816 22.2459 23.1118C21.7746 23.6126 21.1855 23.8777 20.4785 23.8777C19.7716 23.8777 19.1824 23.6126 18.7111 23.0824ZM26.1641 25.2329V16.3076H28.874L30.4941 22.4051L32.0848 16.3076H34.7948V25.2329H33.1157V18.1928L31.3484 25.2329H29.6104L27.8431 18.1928V25.2329H26.1641ZM36.5938 16.3076V25.2034H43.3981V23.7011H38.42V21.2857H42.8974V19.7835H38.42V17.8099H43.2214V16.3076H36.5938ZM13.2045 33.8634L14.9424 34.4231C14.6773 35.3951 14.2354 36.1315 13.6169 36.6028C12.9983 37.0741 12.2029 37.3098 11.2603 37.3098C10.0821 37.3098 9.11004 36.8974 8.34418 36.1021C7.57831 35.3068 7.19538 34.1874 7.19538 32.7735C7.19538 31.3007 7.57831 30.1225 8.34418 29.3271C9.11004 28.5318 10.1116 28.09 11.3782 28.09C12.4681 28.09 13.3517 28.414 14.0292 29.062C14.4416 29.445 14.7362 30.0046 14.9424 30.7116L13.1455 31.124C13.0277 30.6527 12.8215 30.2992 12.4975 30.0341C12.1735 29.769 11.7611 29.6217 11.2898 29.6217C10.6418 29.6217 10.0821 29.8573 9.66971 30.3286C9.25732 30.7999 9.05113 31.5658 9.05113 32.6262C9.05113 33.7456 9.25732 34.5704 9.66971 35.0416C10.0821 35.513 10.6123 35.7486 11.2603 35.7486C11.7316 35.7486 12.144 35.6013 12.4975 35.2773C12.8215 34.9827 13.0572 34.5114 13.2045 33.8634ZM16.5036 28.2078V37.0741H18.3004V33.3626H18.7128C19.1252 33.3626 19.4492 33.3921 19.6259 33.451C19.8027 33.5394 19.9794 33.6277 20.1561 33.8339C20.3329 34.0401 20.6274 34.4525 21.0987 35.1595L22.3948 37.1036H24.5451L23.4552 35.3657L23.4203 35.3121C22.9962 34.6617 22.6823 34.1804 22.4243 33.9223C22.1592 33.6572 21.8351 33.4215 21.4522 33.1859C22.2475 33.0681 22.8366 32.803 23.2196 32.3611C23.6025 31.9487 23.8087 31.389 23.8087 30.7116C23.8087 30.1813 23.6909 29.71 23.4258 29.2977C23.1607 28.8853 22.8366 28.5907 22.3948 28.4434C21.953 28.2961 21.246 28.2078 20.3034 28.2078H16.5036ZM19.6259 31.9782H18.3004V29.6806H19.6848C20.4212 29.6806 20.8631 29.6806 21.0104 29.71C21.3049 29.769 21.5406 29.8868 21.6879 30.0635C21.8351 30.2697 21.9235 30.5054 21.9235 30.7999C21.9235 31.065 21.8646 31.3007 21.7468 31.4774C21.6289 31.6542 21.4522 31.8014 21.246 31.8603C21.0398 31.9487 20.4802 31.9782 19.6259 31.9782ZM25.5156 37.1038V28.208H32.1433V29.7103H27.3419V31.6839H31.8193V33.1861H27.3419V35.6015H32.32V37.1038H25.5156ZM37.1229 28.2078H33.8827V37.133H37.2702C37.9182 37.133 38.4485 37.0741 38.8608 36.9563C39.3911 36.7795 39.8035 36.5439 40.1275 36.2493C40.5399 35.8369 40.8344 35.3067 41.0701 34.6587C41.2468 34.1285 41.3352 33.5099 41.3352 32.7735C41.3352 31.9193 41.2468 31.2123 41.0406 30.6526C40.8344 30.093 40.5693 29.5922 40.1864 29.2093C39.8034 28.8264 39.3616 28.5318 38.8314 28.3845C38.419 28.2667 37.8593 28.2078 37.1229 28.2078ZM35.6207 35.6602V29.769H36.4749C37.2113 29.769 37.6826 29.7984 37.9477 29.8573C38.2717 29.9162 38.5663 30.0635 38.7725 30.2697C38.9787 30.4759 39.1554 30.741 39.2732 31.1239C39.3911 31.5069 39.45 32.0371 39.45 32.7146C39.45 33.3921 39.3911 33.9223 39.2732 34.3347C39.1554 34.7176 39.0081 35.0122 38.8019 35.1889C38.5957 35.3656 38.3601 35.5129 38.0655 35.5718C37.8299 35.6308 37.4764 35.6602 36.9756 35.6602H35.6207ZM42.7773 37.1333V28.208H44.5742V37.1333H42.7773ZM48.2868 29.71V37.133H50.0837V29.71H52.7347V28.2078H45.6358V29.71H48.2868ZM11.0525 39.6074C11.7594 39.6074 12.2897 39.6369 12.6431 39.6958C12.9966 39.7547 13.2912 39.8725 13.5857 40.0787C13.8508 40.2555 14.0865 40.5206 14.2632 40.8151C14.44 41.1391 14.5283 41.4632 14.5283 41.8461C14.5283 42.2585 14.4105 42.6414 14.2043 42.9949C13.9687 43.3484 13.6741 43.6135 13.2912 43.7902C13.8214 43.9375 14.2632 44.2321 14.5578 44.5855C14.8523 44.9685 14.9996 45.4103 14.9996 45.9405C14.9996 46.3529 14.9113 46.7358 14.7051 47.1188C14.5283 47.5017 14.2632 47.7963 13.9392 48.0319C13.6152 48.2676 13.2028 48.4148 12.7315 48.4443C12.4369 48.4738 11.7005 48.5032 10.5517 48.5032H7.51774V39.6074H11.0525ZM9.31457 41.0802V43.1422H10.4928C11.1998 43.1422 11.6416 43.1422 11.7889 43.1127C12.0835 43.0833 12.3486 42.9654 12.5253 42.7887C12.702 42.612 12.7904 42.3763 12.7904 42.0817C12.7904 41.8166 12.702 41.581 12.5548 41.4043C12.4075 41.2275 12.1718 41.1391 11.8773 41.0802C11.7005 41.0508 11.1998 41.0508 10.3455 41.0508H9.31457V41.0802ZM9.31457 44.6444V47.0304H10.9936C11.6416 47.0304 12.054 47.0009 12.2307 46.9715C12.4958 46.9126 12.702 46.7947 12.8788 46.618C13.0555 46.4413 13.1439 46.1762 13.1439 45.8521C13.1439 45.587 13.085 45.3514 12.9377 45.1747C12.8199 44.9979 12.6137 44.8506 12.378 44.7623C12.1424 44.6739 11.6122 44.6444 10.7874 44.6444H9.31457ZM22.5715 48.5326H24.5451L20.9809 39.6073H19.0662L15.5904 48.5326H17.5051L18.2415 46.5001H21.8057L22.5715 48.5326ZM20.0088 41.6987L21.246 44.9978H18.8011L20.0088 41.6987ZM25.5156 48.5327V39.6074H27.283L30.9356 45.5576V39.6074H32.6146V48.5327H30.8178L27.2241 42.7003V48.5327H25.5156ZM34.5307 39.6073V48.5326V48.562H36.3276V45.8521L37.8004 44.3498L40.2453 48.5326H42.5723L39.0375 43.0832L42.3956 39.6073H39.9801L36.3276 43.5839V39.6073H34.5307Z" fill="white"/>
</svg>
