<svg width="121" height="67" viewBox="0 0 121 67" fill="none" xmlns="http://www.w3.org/2000/svg">
<path d="M12.2674 48.9653V55.5741H4.77709V48.9653H0.648438V66.3067H4.77709V59.3343H12.2674V66.3067H16.3961V48.9653H12.2674Z" fill="white"/>
<path d="M31.5211 48.9653L27.2032 55.8331L22.8903 48.9653H18.0195L25.1463 60.3004V66.3067H29.27V60.3004L36.3967 48.9653H31.5211Z" fill="white"/>
<path d="M49.6697 48.9653V61.675C49.6697 62.1581 49.3061 62.5465 48.7932 62.5465H42.1794V48.9653H38.0508V66.3067H50.2474C51.3331 66.3067 52.2047 65.9828 52.8422 65.3503C53.4747 64.7129 53.7934 63.8414 53.7934 62.7607V48.9653H49.6697Z" fill="white"/>
<path d="M69.8139 48.9653H57.6172V66.3067H61.7408V52.7204H68.3646C68.8975 52.7204 69.2362 53.1388 69.2362 53.587V66.3067H73.3598V52.5113C73.3598 51.4256 73.036 50.5541 72.4086 49.9216C71.7661 49.2841 70.8996 48.9653 69.8139 48.9653Z" fill="white"/>
<path d="M89.3803 48.9653H77.1836V66.3067H89.3803C90.466 66.3067 91.3326 65.9828 91.9651 65.3503C92.6026 64.7129 92.9213 63.8414 92.9213 62.7607V52.5113C92.9213 51.4256 92.6025 50.5541 91.9651 49.9216C91.3326 49.2841 90.461 48.9653 89.3803 48.9653ZM88.7976 53.6169V61.6501C88.7976 62.1182 88.459 62.5465 87.9211 62.5465H81.3023V52.7204H87.8912C88.4341 52.7204 88.7976 53.0989 88.7976 53.6169Z" fill="white"/>
<path d="M100.115 48.9653C99.0345 48.9653 98.158 49.2841 97.5255 49.9216C96.888 50.559 96.5742 51.4306 96.5742 52.5113V66.3067H100.688V60.9429H108.183V66.3067H112.307V48.9653H100.115ZM108.183 52.7204V57.1878H100.688V53.602C100.688 53.1737 101.022 52.7204 101.569 52.7204H108.183Z" fill="white"/>
<path d="M116.32 66.3067H120.449V48.9653H116.32V66.3067Z" fill="white"/>
<path d="M58.112 36.9479C77.9166 36.9479 93.9738 28.8133 93.9738 18.7837C93.9738 8.74652 77.9166 0.611816 58.112 0.611816C38.315 0.611816 22.2578 8.74652 22.2578 18.7837C22.2578 28.8133 38.315 36.9479 58.112 36.9479ZM64.865 28.0343C64.2669 29.4051 63.2373 32.3337 60.8753 33.5022C60.1561 33.8545 59.2703 34.0193 58.4829 34.0491C58.3011 34.0491 58.1726 34.0491 58.1193 34.0491C51.5026 34.0491 45.3402 33.1351 40.1846 31.5847C40.1461 31.5683 40.0258 31.5249 39.9879 31.5097C39.5111 31.3526 39.2687 31.1352 39.2687 30.8656C39.2687 30.6335 39.3973 30.4536 39.5638 30.2888C39.6396 30.2214 39.7456 30.1317 39.8895 30.004C41.0857 29.0228 44.6666 26.4535 51.4195 23.8918C53.7891 23.0004 56.7567 21.8844 59.8606 21.2327C61.6776 20.8582 68.4305 19.8319 64.8648 28.034L64.865 28.0343ZM82.9812 9.71997C83.1097 9.50255 83.2767 9.31551 83.5868 9.30029C83.7532 9.28399 83.9807 9.32203 84.3287 9.53999C88.538 12.1017 91.0362 15.3077 91.0362 18.7757C91.0362 25.0377 82.8979 30.4232 71.2544 32.7752C70.5125 32.9252 70.0128 32.9176 69.8462 32.7317C69.7254 32.6192 69.6952 32.4171 69.8462 32.17C69.9144 32.0429 69.9978 31.9303 70.1566 31.7427C76.4931 24.3497 81.3231 13.4436 82.6934 10.2976C82.7994 10.0801 82.8979 9.86338 82.9814 9.72097L82.9812 9.71997ZM51.4727 9.4889C52.0707 8.11816 53.1003 5.18927 55.4623 4.02829C56.1816 3.67606 57.0673 3.50383 57.8546 3.48155C58.0365 3.47611 58.165 3.48155 58.2106 3.48155C64.8349 3.48155 70.9897 4.38787 76.1528 5.94586C76.1913 5.96217 76.3116 6.00562 76.3495 6.02084C76.8264 6.17793 77.0687 6.3953 77.0687 6.66495C77.0687 6.89705 76.9401 7.06939 76.7737 7.23426C76.6979 7.30927 76.5919 7.39895 76.4479 7.51907C75.2594 8.5078 71.6709 11.0695 64.9179 13.6313C62.5408 14.5301 59.5807 15.6387 56.4844 16.2903C54.6599 16.6724 47.9069 17.6911 51.4727 9.48907V9.4889ZM44.9695 4.77757C45.719 4.63516 46.2111 4.63513 46.3928 4.82103C46.4988 4.94061 46.529 5.13576 46.3873 5.38287C46.3114 5.51006 46.2286 5.63024 46.0769 5.80254C39.7404 13.2031 34.9104 24.1015 33.5325 27.255C33.4342 27.4724 33.3282 27.6893 33.2447 27.8318C33.1233 28.0492 32.9497 28.2362 32.6466 28.2515C32.4801 28.2678 32.2455 28.2189 31.8971 28.0118C27.6878 25.45 25.1896 22.2441 25.1896 18.776C25.1896 12.5141 33.3279 7.12854 44.9714 4.77657" fill="white"/>
</svg>
