<svg width="179" height="56" viewBox="0 0 179 56" fill="none" xmlns="http://www.w3.org/2000/svg">
<path d="M129.771 4.48145H125.617V31.6977H129.771V4.48145Z" fill="white"/>
<path d="M136.802 26.7817C135.248 26.7817 133.996 27.9875 133.996 29.4848C133.996 30.9821 135.248 32.1879 136.802 32.1879C138.356 32.1879 139.608 30.9821 139.608 29.4848C139.608 27.9875 138.356 26.7817 136.802 26.7817Z" fill="white"/>
<path d="M147.72 22.2238C147.72 18.9774 149.742 16.1949 153.662 16.1949H156.137V12.4053H153.662C150.594 12.4053 149.191 13.346 147.761 14.9096L147.734 14.9493V12.4053H143.621V31.6845H147.72C147.72 31.6713 147.72 23.5356 147.72 22.2238Z" fill="white"/>
<path d="M121.107 12.4053H116.953V31.6845H121.107V12.4053Z" fill="white"/>
<path d="M119.028 9.21181C120.583 9.21181 121.834 8.00603 121.834 6.50874C121.834 5.01145 120.569 3.80566 119.028 3.80566C117.474 3.80566 116.223 5.01145 116.223 6.50874C116.223 8.00603 117.488 9.21181 119.028 9.21181Z" fill="white"/>
<path d="M108.371 14.3531C106.776 12.7896 104.327 11.915 101.893 11.915C96.0887 11.915 91.3711 16.4599 91.3711 22.0516C91.3711 27.6432 96.0887 32.1881 101.893 32.1881C104.327 32.1881 106.899 31.1811 108.371 29.591V31.6978H112.456V12.4053H108.371V14.3531ZM102.03 28.16C98.4544 28.16 95.7311 25.5099 95.7311 22.0516C95.7311 18.5932 98.4544 15.9697 102.03 15.9697C105.606 15.9697 108.426 18.4342 108.426 22.0516C108.426 25.6689 105.606 28.16 102.03 28.16Z" fill="white"/>
<path d="M167.636 32.1881C169.493 32.1881 171.858 31.2208 173.344 29.5777C173.358 30.3065 173.344 30.969 173.344 31.6846H177.429V23.2706V12.4053H173.33V22.9923C173.33 25.7351 171.157 28.2925 167.897 28.2925C165.05 28.2925 163.028 26.3049 163.028 23.4561V12.4185H158.93V23.7873C158.943 28.8755 161.791 32.1881 167.636 32.1881Z" fill="white"/>
<path d="M79.3772 11.915C76.6539 11.915 73.9856 13.1076 72.3627 14.9891C70.8772 13.0943 68.7178 11.915 65.8157 11.915C63.4501 11.915 61.7583 12.9353 60.8506 13.7568V12.4053H56.7656V31.6846H60.8506V20.4085C60.8506 17.8909 62.9824 15.8504 65.5819 15.8504C68.1814 15.8504 70.3133 17.9042 70.3133 20.4085V31.6846H74.3982V20.4085C74.3982 17.8909 76.5301 15.8504 79.1296 15.8504C81.7291 15.8504 83.861 17.9042 83.861 20.4085V31.6846H87.9459V20.4085C87.9734 15.2409 84.4937 11.915 79.3772 11.915Z" fill="white"/>
<path d="M133.32 40.6016L133.293 40.6282V39.1309H132.096H130.886H130.68V50.4467H130.886H133.293C133.293 50.4334 133.293 45.915 133.293 45.1465C133.293 43.2385 134.476 41.6087 136.773 41.6087H138.217V39.1309H136.773C134.985 39.1309 134.159 39.6874 133.32 40.6016Z" fill="white"/>
<path d="M161.418 45.3324C161.418 47.1477 159.906 48.2343 158.434 48.2343C156.88 48.2343 155.779 47.1477 155.779 45.5975V39.1445H153.152V45.783C153.152 48.9233 155.023 50.7386 158.269 50.7386C159.328 50.7386 160.579 50.2218 161.405 49.44C161.405 49.6388 161.405 49.8376 161.405 50.0363V50.4603H164.018V39.1445H161.391L161.418 45.3324Z" fill="white"/>
<path d="M145.025 38.853C141.628 38.853 138.863 41.5163 138.863 44.7892C138.863 48.062 141.628 50.7253 145.025 50.7253C148.422 50.7253 151.187 48.062 151.187 44.7892C151.187 41.5163 148.436 38.853 145.025 38.853ZM145.025 48.2078C143.072 48.2078 141.477 46.6707 141.477 44.7892C141.477 42.9076 143.072 41.3706 145.025 41.3706C146.978 41.3706 148.574 42.9076 148.574 44.7892C148.574 46.6707 146.992 48.2078 145.025 48.2078Z" fill="white"/>
<path d="M172.834 38.853C171.486 38.853 170.179 39.3035 169.258 40.0721V39.1313H166.645V54.3427H169.258V49.4401C170.138 50.2351 171.5 50.7386 172.834 50.7386C176.231 50.7386 178.996 48.0753 178.996 44.8024C178.996 41.5163 176.231 38.853 172.834 38.853ZM172.751 48.1548C170.702 48.1548 169.217 46.737 169.217 44.7892C169.217 42.8414 170.702 41.4368 172.751 41.4368C174.732 41.4368 176.231 42.8811 176.231 44.7892C176.231 46.7105 174.732 48.1548 172.751 48.1548Z" fill="white"/>
<path d="M125.468 40.0721C124.547 39.3035 123.24 38.853 121.892 38.853C118.495 38.853 115.73 41.5163 115.73 44.7892C115.73 48.062 118.495 50.7253 121.892 50.7253C123.226 50.7253 124.588 50.2218 125.468 49.4268V49.6521C125.427 51.9709 124.258 53.1501 121.975 53.1501H121.947C120.654 53.1501 119.513 52.6731 118.454 51.6794L118.357 51.5866L116.459 53.3357L116.542 53.4284C117.518 54.5282 119.499 55.787 121.879 55.787C121.92 55.787 121.961 55.787 122.002 55.787C124.23 55.7472 127.972 54.9125 128.082 49.7448V39.118H125.468V40.0721ZM121.975 48.1548C119.994 48.1548 118.495 46.7105 118.495 44.7892C118.495 42.8811 119.994 41.4368 121.975 41.4368C124.024 41.4368 125.51 42.8414 125.51 44.7892C125.496 46.737 124.024 48.1548 121.975 48.1548Z" fill="white"/>
<path d="M29.2564 21.7071C29.2564 25.2184 26.2993 28.0672 22.6545 28.0672C19.0097 28.0672 16.0526 25.2184 16.0526 21.7071C16.0526 18.1957 19.0097 15.3469 22.6545 15.3469C26.2993 15.3469 29.2564 18.209 29.2564 21.7071ZM22.6545 0.572754C10.551 0.572754 0.703125 10.06 0.703125 21.7203C0.703125 33.3806 10.551 42.8546 22.6545 42.8546C27.0833 42.8546 31.3608 41.5826 35.0193 39.171L35.0881 39.1313L32.131 35.8187L32.076 35.8452C29.2564 37.581 26.0105 38.5085 22.6545 38.5085C13.0405 38.5085 5.21444 30.9691 5.21444 21.7071C5.21444 12.4451 13.0405 4.90562 22.6545 4.90562C32.2685 4.90562 40.0946 12.4451 40.0946 21.7071C40.0946 22.9128 39.957 24.1186 39.6819 25.3244C39.1318 27.5107 37.5501 28.1732 36.3535 28.0805C35.1569 27.9877 33.754 27.1662 33.7402 25.1522V21.7071C33.7402 15.8107 28.7613 11.014 22.6407 11.014C16.5202 11.014 11.5413 15.8107 11.5413 21.7071C11.5413 27.6035 16.5202 32.4001 22.6407 32.4001C25.6116 32.4001 28.4037 31.2738 30.508 29.2465C31.7321 31.0751 33.7265 32.2278 35.9959 32.4001C36.1884 32.4134 36.3947 32.4266 36.5873 32.4266C38.1828 32.4266 39.7645 31.9098 41.0436 30.9823C42.364 30.015 43.3405 28.6238 43.8769 26.9542C43.9594 26.6892 44.1245 26.0664 44.1245 26.0664V26.0399C44.4408 24.7016 44.5921 23.3634 44.5921 21.7071C44.6059 10.06 34.758 0.572754 22.6545 0.572754Z" fill="white"/>
</svg>
