<svg width="118" height="31" viewBox="0 0 118 31" fill="none" xmlns="http://www.w3.org/2000/svg">
<path d="M10.4858 0.179688C8.30539 0.179688 5.6889 2.32544 3.56795 5.92867C1.30825 9.69386 0 14.3092 0 18.3376C0 24.2485 3.23098 30.1797 10.4858 30.1797C17.7406 30.1797 20.9716 24.2485 20.9716 18.3376C20.9716 14.3092 19.6634 9.67361 17.4037 5.94892C15.2827 2.32544 12.6662 0.179688 10.4858 0.179688ZM67.1171 9.0056H74.4512V28.54H82.3205V9.0056H89.6546V1.77888H67.1171V9.0056ZM106.464 9.0056H118V1.77888H106.464C95.8589 1.77888 90.2096 7.16349 90.2096 15.1797C90.2096 23.1959 95.8787 28.5805 106.464 28.5805H118V21.3335H106.464C101.548 21.3335 98.3565 19.5319 98.3565 15.1797C98.3565 10.8275 101.548 9.0056 106.464 9.0056ZM51.1208 1.79912L46.9185 17.791L42.7163 1.79912H28.8211V28.6007H36.6904V6.77888L42.4189 28.5603H51.4379L57.1665 6.75863V28.5603H65.0358V1.79912H51.1208Z" fill="white"/>
</svg>
