<svg width="92" height="77" viewBox="0 0 92 77" fill="none" xmlns="http://www.w3.org/2000/svg">
<path fill-rule="evenodd" clip-rule="evenodd" d="M17.4018 28.195C26.7615 27.8489 38.7312 27.4779 45.8987 27.4779C53.1703 27.4779 65.3849 27.8598 74.802 28.21L74.759 28.195C74.759 28.195 74.7136 28.1502 74.7136 28.1054C70.3504 17.0344 59.1699 9.14578 46.0804 9.14578C32.9456 9.14578 21.765 17.0792 17.4018 28.195ZM84.7279 28.6264C86.52 28.8341 87.4286 28.9665 88.2121 29.1811C90.8027 29.7638 91.3481 30.6602 91.3481 32.4979V44.9135C91.3481 46.7064 89.3938 47.9614 88.0303 48.1855C86.7507 48.4379 85.9114 48.5324 84.6484 48.6542C79.9897 64.8912 64.4629 76.8266 46.0351 76.8266C27.5998 76.8266 12.1133 64.9263 7.41619 48.6794L7.40298 48.6785C5.99405 48.5441 5.13051 48.4544 3.76703 48.1855C2.40355 47.9614 0.449219 46.7064 0.449219 44.9135V32.4979C0.449219 30.6602 0.994612 29.7638 3.58523 29.1811C4.40332 28.957 5.35776 28.8225 7.31209 28.5984L7.31201 28.5984C11.857 12.1937 27.4916 0.0917969 46.035 0.0917969C64.5329 0.0917969 80.122 12.104 84.7124 28.5088C84.7124 28.5511 84.7124 28.5735 84.7172 28.5947C84.7195 28.6049 84.7229 28.6147 84.7279 28.6264ZM78.316 49.03L78.3221 49.0296C78.1997 49.3724 78.0716 49.7127 77.9378 50.0502C78.0696 49.7127 78.1957 49.3726 78.316 49.03ZM45.8987 50.068C55.4896 50.068 66.271 49.6429 74.5321 49.228C74.5268 49.2523 74.5075 49.2904 74.4882 49.3285C74.4654 49.3734 74.4427 49.4182 74.4427 49.4406C69.8978 60.1978 58.899 67.8175 46.0368 67.8175C33.0837 67.8175 22.0395 60.1082 17.54 49.2613C17.5112 49.2539 17.4821 49.2463 17.4527 49.2384C25.6863 49.65 36.388 50.068 45.8987 50.068ZM63.5816 33.7571C63.8323 33.9161 63.9517 34.2819 64.3526 35.1423C64.5344 35.5606 65.2098 37.0056 65.9441 38.5766C66.8622 40.5409 67.8724 42.7022 68.1249 43.2998C68.2446 43.5753 68.1892 43.5744 67.9278 43.57C67.8915 43.5694 67.8511 43.5688 67.8068 43.5688H65.307C65.1707 43.5688 65.0343 43.5239 64.9889 43.3895C64.9889 43.3485 64.723 42.7456 64.3301 41.8547C64.2932 41.7711 64.2552 41.685 64.2163 41.5966H58.3533C57.8988 42.6275 57.5352 43.3895 57.5352 43.3895C57.4897 43.4791 57.3988 43.5688 57.217 43.5688H54.8082C54.4446 43.5688 54.3083 43.5688 54.5355 43.1206L54.581 43.0309C55.7172 40.5657 58.3987 34.6493 58.3987 34.6493C58.6576 34.1175 58.7321 33.8582 58.9042 33.7326C59.0947 33.5936 59.4048 33.6184 60.2167 33.6184C60.6257 33.5735 60.7166 33.5735 61.2166 33.5735C61.7165 33.5735 62.0801 33.5735 62.2165 33.6184C63.0038 33.6399 63.3491 33.6096 63.5816 33.7571ZM60.7621 35.9939C60.7621 36.0387 60.0349 37.742 59.2623 39.49H63.3073C62.9782 38.6661 62.6208 37.8422 62.3375 37.1888C62.1121 36.6691 61.9334 36.2571 61.8529 36.0387C61.8074 35.9043 61.7165 35.8594 61.6256 35.8594C61.5802 35.8146 61.4438 35.8146 61.3529 35.8146C61.2166 35.8146 61.0802 35.8146 61.0348 35.8594C60.8984 35.8594 60.8075 35.9043 60.7621 35.9939ZM27.4022 33.7528C27.4022 33.5735 27.3567 33.4839 27.1295 33.4839H24.6752C24.4934 33.4839 24.448 33.5735 24.448 33.7528V43.1654C24.448 43.4343 24.4934 43.4791 24.7661 43.4791H27.084C27.3567 43.4791 27.4022 43.3895 27.4022 43.1654V33.7528ZM22.4936 33.8873C22.4936 33.6632 22.4482 33.5735 22.1755 33.5735H20.1757C19.903 33.5735 19.8576 33.6632 19.8576 33.8873V41.3725C19.8576 41.3725 15.8126 35.2319 15.3126 34.4251C14.7064 33.5711 14.4715 33.5714 12.9571 33.5733C12.882 33.5734 12.8037 33.5735 12.722 33.5735H10.4041C10.1314 33.5735 10.0859 33.6632 10.0859 33.8873V43.255C10.0859 43.5239 10.1314 43.5688 10.4041 43.5688H12.4039C12.6766 43.5688 12.722 43.5239 12.722 43.255V35.9043C12.722 35.9043 16.0853 40.9691 17.1761 42.6723C17.7214 43.5688 17.8578 43.5688 19.4485 43.5688H22.1755C22.4482 43.5688 22.4936 43.5239 22.4936 43.255V33.8873ZM82.0324 33.8873C82.0324 33.6632 81.987 33.5735 81.7143 33.5735H79.7145C79.4418 33.5735 79.3964 33.6632 79.3964 33.8873V41.3725C79.3964 41.3725 75.3968 35.2319 74.8514 34.4251C74.2452 33.5711 74.0103 33.5714 72.4959 33.5733C72.4208 33.5734 72.3425 33.5735 72.2608 33.5735H69.9429C69.6702 33.5735 69.6247 33.6632 69.6247 33.8873V43.255C69.6247 43.5239 69.6702 43.5688 69.9429 43.5688H71.9427C72.2154 43.5688 72.2608 43.5239 72.2608 43.255V35.9043C72.2608 35.9043 75.5786 40.9691 76.7149 42.6723C77.2602 43.5688 77.3966 43.5688 78.9873 43.5688H81.7143C81.987 43.5688 82.0324 43.5239 82.0324 43.255V33.8873ZM40.8098 39.5348C40.4462 37.8764 39.1281 37.5627 37.3556 37.3834C37.0714 37.3579 36.655 37.3252 36.1858 37.2883C35.0041 37.1954 33.4871 37.0762 32.9016 36.98C32.5834 36.9352 32.4471 36.7559 32.4471 36.5318V36.3077V36.1284C32.4925 35.8146 32.6289 35.6802 32.947 35.6802H40.0826C40.3553 35.725 40.4462 35.6353 40.4462 35.4112V33.7976C40.4462 33.5735 40.3553 33.5287 40.0826 33.5287H32.8107C30.9018 33.5287 29.8565 34.201 29.5383 35.5905C29.4929 35.9043 29.4929 36.3077 29.4929 36.5766C29.4929 36.8903 29.4929 37.2489 29.5383 37.5178C29.6292 38.3246 30.1746 39.2211 32.3562 39.4452C34.0378 39.6245 36.5375 39.8486 37.4011 39.8934C37.7896 39.936 37.8501 40.1807 37.8941 40.3588C37.8964 40.3682 37.8987 40.3774 37.901 40.3864V40.6554V41.0588C37.8556 41.2829 37.7647 41.3725 37.4465 41.3725H29.8565C29.5838 41.3725 29.5383 41.4173 29.5383 41.6863V43.255C29.5383 43.5239 29.5838 43.5688 29.8565 43.5688H37.3556C39.2645 43.5688 40.4462 43.255 40.7643 41.6863C40.8552 41.3277 40.8552 40.9243 40.8552 40.6106V40.6105C40.8552 40.2866 40.8356 39.9821 40.8222 39.7731C40.8151 39.664 40.8098 39.5809 40.8098 39.5348ZM53.672 39.5348C53.3084 37.8764 51.9903 37.5627 50.2178 37.3834C49.9247 37.3558 49.4731 37.3199 48.9642 37.2793C47.8159 37.1879 46.3761 37.0732 45.8092 36.98C45.4456 36.9352 45.3547 36.7559 45.3547 36.5318V36.3077V36.1284C45.4002 35.8146 45.5365 35.6802 45.8547 35.6802H52.9902C53.2629 35.725 53.3538 35.6353 53.3538 35.4112V33.7976C53.3538 33.5735 53.2629 33.5287 52.9902 33.5287H45.7183C43.8094 33.5287 42.7641 34.201 42.446 35.5905C42.4005 35.9042 42.4005 36.3076 42.4005 36.5765V36.5766V36.5767C42.4005 36.8904 42.4005 37.2489 42.446 37.5178C42.5823 38.3246 43.0822 39.2211 45.2638 39.4452C46.9454 39.6245 49.4452 39.8486 50.3087 39.8934C50.6723 39.9382 50.7632 40.2071 50.8087 40.3864V40.6554V41.0588C50.7632 41.2829 50.6723 41.3725 50.3542 41.3725H42.7641C42.4914 41.3725 42.446 41.4173 42.446 41.6863V43.255C42.446 43.5239 42.4914 43.5688 42.7641 43.5688H50.2178C52.1267 43.5688 53.3084 43.255 53.6265 41.6863C53.7174 41.3277 53.7174 40.9243 53.7174 40.6105C53.7174 40.2866 53.6978 39.9821 53.6843 39.7731C53.6773 39.664 53.672 39.5809 53.672 39.5348Z" fill="white"/>
</svg>
