<svg width="115" height="86" viewBox="0 0 115 86" fill="none" xmlns="http://www.w3.org/2000/svg">
<path fill-rule="evenodd" clip-rule="evenodd" d="M97.9682 0.82666C101.748 1.97965 105.466 2.70088 108.865 4.35939C110.998 5.39972 112.795 6.80362 113.941 8.88816C115.049 10.9018 114.955 12.87 113.636 14.7663C112.593 16.265 111.155 17.323 109.562 18.2099C106.188 20.0887 102.799 21.9464 99.6237 24.1397C98.3542 25.0166 97.0928 25.9144 96.1518 27.1486C95.9411 27.4249 95.7767 27.3906 95.5098 27.2771C92.7126 26.0877 89.8446 25.0812 86.9315 24.1716C86.9967 23.8087 87.3328 23.8723 87.5395 23.795C93.1048 21.7154 98.6536 19.6017 103.849 16.7141C104.876 16.1429 105.854 15.5016 106.757 14.7543C109.399 12.5689 107.791 9.52839 105.626 8.59246C105.126 8.37625 104.66 8.37002 104.169 8.71775C92.9525 16.6541 80.3309 21.1723 66.7002 23.1236C50.4449 25.4507 34.4001 24.4188 18.623 19.8986C13.386 18.3984 8.32964 16.4588 3.73604 13.5188C2.51902 12.7398 1.37931 11.865 0.402344 10.7927C2.3255 11.91 4.2822 12.9537 6.31898 13.8507C12.2411 16.4588 18.4648 18.0659 24.867 19.0105C42.8317 21.6605 60.5529 20.4122 78.0178 15.635C84.1041 13.9703 89.9617 11.7103 95.4622 8.63406C96.2377 8.20044 96.9971 7.74376 97.6521 7.14411C99.4459 5.50126 99.7157 3.67268 98.4724 1.61121C98.342 1.39516 98.1998 1.18618 97.9682 0.82666Z" fill="white"/>
<path fill-rule="evenodd" clip-rule="evenodd" d="M0.402344 49.8017C31.1076 21.7535 82.2502 21.1513 113.684 48.5834C113.515 48.709 113.419 48.5468 113.322 48.4775C100.983 39.6283 87.2156 34.4674 72.0925 32.8726C56.0707 31.1832 40.689 33.5653 26.0091 40.2053C20.5526 42.6735 15.4339 45.711 10.6569 49.3072C10.1991 49.652 9.74868 49.8188 9.16521 49.8135C6.29344 49.7875 3.42149 49.8017 0.402344 49.8017Z" fill="white"/>
<path fill-rule="evenodd" clip-rule="evenodd" d="M68.7806 85.5331C65.8464 84.9199 63.3416 83.5493 60.9972 81.907C56.3056 78.6203 52.8125 74.3991 50.1971 69.5218C49.8823 68.9347 49.5554 68.6976 48.8287 68.7204C46.6387 68.7892 46.6238 68.7552 46.6743 70.8475C46.7231 72.8692 46.7849 74.8911 46.8833 76.9109C46.9094 77.4452 46.7653 77.6216 46.1799 77.5983C45.1026 77.5554 44.0205 77.5525 42.9434 77.5984C42.3359 77.6242 42.2272 77.414 42.2535 76.8966C42.4867 72.3092 42.5639 67.7186 42.4396 63.1267C42.399 61.6244 42.3235 60.1227 42.2635 58.6206C42.2517 58.3283 42.1402 58.0022 42.6784 58.015C46.3784 58.1031 50.0926 57.771 53.777 58.2172C56.009 58.4876 57.8954 59.3894 58.5026 61.6513C59.3503 64.809 57.6288 67.6077 54.9341 68.2295C54.4705 68.3364 54.5892 68.5313 54.7341 68.8049C56.8557 72.8118 59.4147 76.5459 62.5713 79.912C64.478 81.9455 66.5677 83.7986 68.7806 85.5331ZM46.7682 61.0716C46.7797 61.8909 46.6442 65.1146 46.6449 65.9071C46.6453 66.1532 46.6092 66.4171 47.018 66.4052C48.6446 66.3574 50.2919 66.5659 51.8856 66.0992C53.5437 65.6136 54.2176 64.5501 54.0078 62.8005C53.8426 61.423 52.8452 60.5616 51.2033 60.4935C49.9228 60.4404 48.6373 60.5076 47.3547 60.4838C46.8662 60.4746 46.7628 60.6836 46.7682 61.0716Z" fill="white"/>
<path fill-rule="evenodd" clip-rule="evenodd" d="M38.163 67.6342C38.1258 69.5151 37.9818 71.2742 37.4602 72.9833C36.4994 76.1312 34.4209 77.8032 31.3641 78.2188C29.4977 78.4726 27.6392 78.4609 25.7902 78.0617C23.1362 77.4882 21.3726 75.8165 20.574 73.1098C19.5587 69.6681 19.554 66.1709 20.4392 62.6982C21.2451 59.5362 23.2241 57.6934 26.2996 57.1895C28.2431 56.8712 30.1889 56.865 32.1172 57.2677C35.0465 57.8794 36.803 59.8247 37.5957 62.8129C38.023 64.4233 38.1369 66.0753 38.163 67.6342ZM33.902 67.7584C33.8937 66.0687 33.8543 64.3816 33.3545 62.7532C32.8735 61.1861 31.9201 60.115 30.3419 59.8688C26.6125 59.2867 25.0456 60.694 24.4959 63.2978C23.8757 66.2359 23.8617 69.2086 24.5265 72.1409C25.0951 74.6478 26.4957 75.6417 29.1383 75.6096C31.586 75.5796 32.9623 74.4523 33.5186 72.0173C33.8382 70.6174 33.902 69.1909 33.902 67.7584Z" fill="white"/>
<path fill-rule="evenodd" clip-rule="evenodd" d="M13.7906 72.2648C14.0718 67.7881 14.0651 63.3895 13.7874 58.9966C13.7369 58.1985 13.9494 58.0178 14.7294 58.0397C16.7517 58.0969 16.7547 58.0576 16.6607 60.0441C16.4019 65.5189 16.4474 70.9933 16.7271 76.4652C16.7621 77.1507 16.5863 77.3431 15.9076 77.3006C14.8578 77.235 13.6588 77.5688 12.7889 77.1665C11.9136 76.7616 11.5873 75.5177 11.027 74.6381C8.64512 70.8977 6.24226 67.1712 3.70952 63.5291C3.59362 63.3624 3.47041 63.2006 3.15824 63.076C3.15824 64.8323 3.13097 66.589 3.16457 68.3445C3.21716 71.0818 3.28746 73.8193 3.40482 76.5542C3.43193 77.1845 3.25548 77.3657 2.65874 77.2929C1.94528 77.2058 0.982152 77.6071 0.577292 77.1207C0.236066 76.711 0.493852 75.7912 0.523884 75.0986C0.75732 69.7042 0.765599 64.3101 0.458626 58.9191C0.417068 58.1924 0.608622 57.9566 1.32419 58.05C1.74934 58.1053 2.20258 58.131 2.61799 58.047C4.13046 57.7414 4.90933 58.4791 5.64844 59.7143C8.00731 63.6565 10.504 67.5169 13.1181 71.2997C13.3411 71.6222 13.5664 71.9431 13.7906 72.2648Z" fill="white"/>
<path fill-rule="evenodd" clip-rule="evenodd" d="M114.227 61.1057C112.267 60.1878 110.319 59.7536 108.289 59.8101C107.729 59.8257 107.164 59.8768 106.616 59.9913C104.905 60.3484 103.68 61.3776 103.165 63.2005C102.404 65.8988 102.272 68.642 103.023 71.3656C103.711 73.8587 105.399 75.2109 107.811 75.3278C108.585 75.3653 109.361 75.3793 110.136 75.3748C110.669 75.3715 110.926 75.1352 110.908 74.4728C110.856 72.5151 110.822 70.5566 110.533 68.6199C110.456 68.1 110.491 67.8929 111.044 67.9145C112.112 67.9561 113.183 67.9309 114.252 67.9243C114.563 67.9224 114.746 67.9631 114.696 68.4004C114.356 71.3236 114.411 74.2619 114.473 77.1974C114.486 77.7944 114.348 77.996 113.773 77.9694C112.299 77.9007 110.847 78.2368 109.38 78.3263C107.936 78.4145 106.493 78.4485 105.062 78.1645C101.952 77.5469 99.923 75.5928 99.0192 72.3493C98.1943 69.3886 98.1688 66.3745 98.9015 63.3943C99.8707 59.4532 102.313 57.4257 106.464 57.0468C108.871 56.827 111.273 57.0546 113.671 57.2812C114.05 57.3168 114.249 57.4171 114.236 57.8899C114.206 58.9234 114.227 59.9584 114.227 61.1057Z" fill="white"/>
<path fill-rule="evenodd" clip-rule="evenodd" d="M82.2863 67.6363C82.3277 64.6596 82.2143 61.686 82.0582 58.7141C82.0289 58.1589 82.1487 57.9747 82.7805 57.9782C87.1656 58.0036 91.5511 58.0029 95.9364 57.9781C96.5483 57.9747 96.7067 58.1388 96.7018 58.701C96.6871 60.4343 96.7131 60.4375 94.8707 60.4239C92.3609 60.4055 89.8503 60.4047 87.3415 60.3452C86.6851 60.3294 86.5021 60.5084 86.5078 61.1077C86.5191 62.2967 86.4753 63.4882 86.3943 64.6752C86.3555 65.2444 86.5949 65.3358 87.1308 65.3333C89.6696 65.3217 92.2096 65.3428 94.7431 65.1738C95.4273 65.1282 95.6964 65.2509 95.6738 65.9693C95.6217 67.609 95.6646 67.6211 93.9167 67.5668C91.6672 67.4969 89.4183 67.4568 87.1672 67.4794C86.6032 67.485 86.352 67.5813 86.3778 68.1875C86.4647 70.241 86.5097 72.2968 86.5253 74.3521C86.5298 74.9312 86.7479 75.0596 87.3325 75.0471C90.3897 74.9812 93.4481 74.9773 96.5048 74.8984C97.2083 74.8804 97.3669 75.0787 97.3546 75.7023C97.3217 77.3523 97.3522 77.3531 95.6031 77.3531C91.3622 77.3533 87.1211 77.3379 82.8804 77.3686C82.1883 77.3734 82.0171 77.1981 82.0509 76.5585C82.2077 73.5868 82.3187 70.6129 82.2863 67.6363Z" fill="white"/>
<path fill-rule="evenodd" clip-rule="evenodd" d="M69.5438 73.6777C70.5285 70.7423 71.5267 67.811 72.4932 64.8702C73.1589 62.8453 73.7946 60.8109 74.4115 58.772C74.5563 58.2937 74.7443 58.0464 75.3245 58.0919C76.0276 58.147 76.7399 58.1286 77.4464 58.0986C77.9736 58.0762 78.0628 58.2011 77.8715 58.6837C76.9056 61.1208 75.9669 63.5677 75.0372 66.0178C73.6954 69.5545 72.4008 73.1074 71.298 76.7192C71.1408 77.2336 70.8924 77.384 70.3523 77.3612C69.3634 77.3198 68.3683 77.3075 67.381 77.3648C66.7203 77.4032 66.4598 77.1565 66.2595 76.5856C64.2668 70.9062 62.2196 65.2447 59.9703 59.651C59.349 58.1057 59.3515 58.0869 61.1016 58.1115C62.1404 58.1262 63.4396 57.7107 64.144 58.2759C64.8011 58.8033 64.8438 60.0262 65.1457 60.9462C66.5407 65.1984 67.932 69.4519 69.3245 73.7049C69.3975 73.6957 69.4707 73.6869 69.5438 73.6777Z" fill="white"/>
</svg>
