<svg width="233" height="55" viewBox="0 0 233 55" fill="none" xmlns="http://www.w3.org/2000/svg">
<path fill-rule="evenodd" clip-rule="evenodd" d="M41.7818 0.257324L28.1857 13.8732L21.1016 20.9665L27.7039 27.5784L41.3 13.9625L54.8962 27.5784L48.3831 34.0998L55.378 41.1048L68.9741 27.489L41.7818 0.257324Z" fill="white"/>
<path fill-rule="evenodd" clip-rule="evenodd" d="M41.7819 27.4888L28.1858 41.1047L14.5897 27.4888L21.1017 20.9663L14.1079 13.9624L0.511719 27.5782L27.704 54.8088L41.3001 41.193L48.3832 34.0986L41.7819 27.4878V27.4888Z" fill="white"/>
<path fill-rule="evenodd" clip-rule="evenodd" d="M81.0167 30.4101C81.7749 30.4101 82.3997 30.3024 82.8729 30.0708C83.7914 29.6508 84.2108 28.7569 84.2108 27.5506C84.2108 26.5511 83.8183 25.6658 82.9525 25.1391C82.4535 24.8537 81.8286 24.746 80.9629 24.746H80.2058V30.4112H81.0167V30.4101ZM76.618 21.8337H81.1242C82.6944 21.8337 84.0065 22.048 85.0228 22.5661C86.9049 23.46 87.9309 25.166 87.9309 27.5517C87.9309 29.5711 87.0662 31.7241 84.4958 32.716C83.5236 33.0822 82.3287 33.3138 80.8026 33.3138H80.1961V39.1125H76.6094V21.8337H76.619H76.618ZM99.4761 32.0095L98.4576 29.0972C98.0382 27.8371 97.8338 27.1047 97.6725 26.5231H97.6187C97.4854 27.1316 97.2273 27.864 96.7541 29.1241L95.7108 32.0106H99.475L99.4761 32.0095ZM96.1303 21.7529H99.0384L106.086 39.1125H102.231L100.554 34.8863H94.6934L93.0964 39.1125H89.4032L96.1303 21.7529ZM113.143 29.6777C113.928 29.6777 114.427 29.5442 114.874 29.3115C115.551 28.8915 116.024 28.186 116.024 27.2113C116.024 26.2915 115.605 25.5053 114.847 25.1122C114.454 24.8709 113.964 24.746 113.169 24.746H111.804V29.6788H113.143V29.6777ZM108.219 21.8337H113.374C114.918 21.8337 116.068 22.0663 116.988 22.4853C118.978 23.3523 119.736 25.0056 119.736 26.8365C119.736 29.0875 118.326 30.6697 116.381 31.2685V31.3224C116.907 31.6078 117.666 32.5545 118.585 34.1549L121.386 39.1125H117.273L114.998 34.967C114.133 33.3407 113.526 32.6891 113.116 32.5814H111.804V39.1125H108.219V21.8337Z" fill="white"/>
<path d="M127.675 21.8335H124.09V39.1123H127.675V21.8335Z" fill="white"/>
<path fill-rule="evenodd" clip-rule="evenodd" d="M135.035 24.8806H130.004V21.8336H144.09L143.144 24.8806H138.622V39.1125H135.035V24.8806ZM146.106 21.8336H156.081L155.134 24.8806H149.693V28.8656H155.161V31.8759H149.693V36.0752H156.054V39.1125H146.106V21.8336ZM162.888 24.8806H157.865V21.8336H171.942L171.005 24.8806H166.473V39.1125H162.888V24.8806ZM178.705 37.4861C181.033 37.4861 182.576 36.5664 182.576 34.2615C182.576 32.3228 181.141 31.0896 178.937 31.0896H176.135V37.4872H178.705V37.4861ZM178.018 29.4633C180.32 29.4633 181.55 28.3378 181.55 26.4164C181.55 24.6932 180.551 23.4503 178.089 23.4503H176.127V29.4547H178.018V29.4633ZM174.199 21.8336H178.206C181.872 21.8336 183.496 23.8531 183.496 26.2118C183.496 27.9716 182.63 29.3567 181.221 29.9641V30.018C183.157 30.438 184.576 32.0364 184.576 34.2163C184.576 37.1286 182.532 39.1211 178.705 39.1211H174.199V21.8336ZM196.164 32.8495L194.38 27.8639C193.827 26.3453 193.568 25.5322 193.354 24.8806H193.3C193.086 25.5419 192.801 26.3453 192.257 27.8639L190.446 32.8495H196.164ZM192.658 21.7798H193.996L200.598 39.1125H198.501L196.797 34.4758H189.856L188.153 39.1125H186.109L192.658 21.7798ZM215.64 39.1125L207.369 28.1504C206.534 27.0572 205.721 25.9462 204.933 24.8181H204.881C204.933 25.684 204.96 26.4164 204.96 27.7745V39.1038H203.024V21.8336H204.881L212.838 32.3756C213.696 33.5228 214.535 34.6844 215.353 35.8598H215.407C215.353 34.94 215.353 34.1807 215.353 32.8226V21.8336H217.262V39.1125H215.64ZM221.509 21.8336H223.445V29.7498H223.499L230.047 21.8336H232.349L225.176 30.3831L232.813 39.1125H230.386L223.499 31.2232H223.445V39.1125H221.509V21.8336Z" fill="white"/>
</svg>
