<svg width="121" height="61" viewBox="0 0 121 61" fill="none" xmlns="http://www.w3.org/2000/svg">
<g clip-path="url(#clip0)">
<path fill-rule="evenodd" clip-rule="evenodd" d="M36.829 8.71393L88.0312 8.75437V8.75303C104.321 8.75303 120.258 17.1948 120.258 37.5665C120.258 49.4108 113.285 56.3802 109.204 59.5332C107.866 60.5661 106.426 60.3328 105.449 58.855C103.639 56.1186 98.5131 52.1903 83.776 52.1903L32.5737 52.1499C16.2847 52.1499 0.347656 43.7094 0.347656 23.3364C0.347656 11.4928 7.31979 4.52336 11.4018 1.371C12.7393 0.338196 14.1793 0.572129 15.1569 2.04853C16.9656 4.78494 22.0919 8.71393 36.829 8.71393ZM29.5458 23.8253V36.85L29.5465 36.8506C29.5465 37.305 29.6833 37.6664 29.9597 37.9347C30.2361 38.2023 30.6076 38.3358 31.0748 38.3358H38.3928C38.8074 38.3358 39.1465 38.2077 39.4107 37.9515C39.675 37.6947 39.8085 37.3657 39.8085 36.9632C39.8085 36.5614 39.675 36.2311 39.4107 35.9749C39.1465 35.7187 38.8074 35.5906 38.3941 35.5906H32.6031V31.7061H36.9602C37.3734 31.7061 37.7125 31.5781 37.9768 31.3205C38.2417 31.0644 38.3732 30.7347 38.3732 30.3329C38.3732 29.9311 38.2417 29.6008 37.9768 29.3446C37.7125 29.0884 37.3734 28.9603 36.9602 28.9603H32.6031V25.0758H38.1629C38.5775 25.0758 38.9166 24.9464 39.1808 24.6902C39.4451 24.434 39.5772 24.1044 39.5772 23.7026C39.5772 23.3008 39.4444 22.9704 39.1815 22.7142C38.9166 22.4581 38.5775 22.33 38.1635 22.33H31.0741C30.6062 22.33 30.2355 22.4635 29.959 22.7311C29.6833 22.9994 29.5458 23.3641 29.5458 23.8253ZM25.2615 22.3387C25.7368 22.3387 26.1103 22.4722 26.382 22.7405C26.6543 23.0075 26.7905 23.3695 26.7905 23.8232V36.9187C26.7905 37.3724 26.6543 37.7331 26.382 38.0014C26.111 38.2697 25.7368 38.4032 25.2615 38.4032C24.7869 38.4032 24.4128 38.2697 24.1397 38.0014C23.868 37.7331 23.7319 37.3724 23.7319 36.9187V25.0751H18.433V36.9187C18.433 37.3724 18.2954 37.7331 18.019 38.0014C17.7433 38.2697 17.3712 38.4032 16.904 38.4032C16.4361 38.4032 16.0653 38.2697 15.7889 38.0014C15.5132 37.7331 15.375 37.3724 15.375 36.9187V23.8232C15.375 23.3695 15.5125 23.0082 15.7889 22.7399C16.0647 22.4722 16.4361 22.3387 16.904 22.3387H25.2615ZM40.8062 23.7026C40.8062 24.105 40.9397 24.434 41.204 24.6902L41.2033 24.6915C41.4676 24.9491 41.8067 25.0772 42.2199 25.0772H45.1626V36.9221C45.1626 37.3765 45.2981 37.7372 45.5705 38.0048C45.8429 38.2718 46.2157 38.4066 46.691 38.4066C47.1662 38.4066 47.5404 38.2724 47.8121 38.0041C48.0838 37.7365 48.2199 37.3751 48.2199 36.9208V25.0745H51.1647C51.5779 25.0745 51.917 24.9464 52.1813 24.6902C52.4456 24.434 52.579 24.105 52.579 23.7026C52.579 23.3014 52.4456 22.9711 52.1813 22.7149C51.917 22.4587 51.5779 22.3306 51.1647 22.3306H42.2206C41.8074 22.3306 41.4683 22.4587 41.204 22.7149C40.9397 22.9718 40.8062 23.3008 40.8062 23.7026ZM59.0712 30.5668H56.957V25.0751H59.0719C59.9611 25.0751 60.6541 25.3172 61.153 25.8005C61.6498 26.2846 61.8993 26.9574 61.8993 27.8203C61.8993 28.6839 61.6498 29.3574 61.1523 29.8408C60.6541 30.3255 59.9611 30.5668 59.0712 30.5668ZM53.899 23.8253V36.8837L53.8997 36.8844C53.8997 37.3387 54.0366 37.6981 54.313 37.9677C54.5894 38.2347 54.9608 38.3695 55.4287 38.3695C55.8952 38.3695 56.2674 38.2354 56.5438 37.9677C56.8195 37.6987 56.957 37.3387 56.957 36.8844V33.3026H59.0698C60.8186 33.3026 62.2566 32.7774 63.3871 31.7284C64.5177 30.6794 65.0826 29.3769 65.0826 27.821C65.0826 26.2664 64.5177 24.9619 63.3878 23.9088C62.2573 22.8551 60.8186 22.3293 59.0712 22.3293H55.428C54.9595 22.3293 54.5887 22.4628 54.3123 22.7304C54.0366 22.9987 53.899 23.3635 53.899 23.8253ZM79.517 35.59C79.1719 36.1468 78.9993 36.6053 78.9993 36.9626L78.9979 36.9599C78.9979 37.3617 79.1489 37.7095 79.4523 38.0035C79.5927 38.1453 79.7602 38.2575 79.9448 38.3333C80.1294 38.4092 80.3274 38.4472 80.5269 38.445C80.8485 38.445 81.1337 38.3648 81.3831 38.2057C81.6312 38.0453 81.8186 37.8619 81.9413 37.6529L84.9534 32.8414H85.0451L88.0566 37.6529C88.1793 37.8619 88.3653 38.0453 88.6148 38.2057C88.8642 38.3648 89.1487 38.4457 89.471 38.4457C89.8849 38.4457 90.2422 38.2987 90.5456 38.0048C90.8483 37.7109 90.9993 37.363 90.9993 36.9612C90.9993 36.6039 90.8274 36.1462 90.4822 35.588L86.8842 30.107L90.1249 25.0731C90.4707 24.5156 90.644 24.0572 90.644 23.6999C90.644 23.2974 90.493 22.9502 90.1896 22.6569C89.8869 22.363 89.5289 22.216 89.1143 22.216C88.8108 22.2109 88.5127 22.2966 88.2581 22.4621C88.0087 22.6259 87.8227 22.8113 87.7013 23.0203L85.0451 27.3619H84.9541L82.2871 23.0203C82.1644 22.8133 81.9804 22.6259 81.7357 22.4628C81.4896 22.2996 81.2065 22.2174 80.8842 22.2174C80.6839 22.2157 80.4853 22.2538 80.2999 22.3297C80.1144 22.4055 79.946 22.5174 79.8042 22.659C79.4975 22.9529 79.3444 23.3008 79.3444 23.7026C79.3444 24.0599 79.5177 24.5176 79.8615 25.0758L83.1143 30.1091L79.517 35.59ZM100.348 31.8801H96.8092H96.8085L98.5101 26.0419H98.6483L100.348 31.8801ZM92.4339 35.7531C92.2734 36.2736 92.1925 36.6531 92.1925 36.8911H92.1939C92.1939 37.2942 92.3469 37.6414 92.6537 37.9347C92.9591 38.2293 93.3197 38.3763 93.7343 38.3763C94.5157 38.3763 95.0638 37.8808 95.3773 36.8911L95.9934 34.7372H101.166L101.891 36.9282C102.206 37.9178 102.752 38.4133 103.534 38.4133C103.948 38.4133 104.305 38.2664 104.608 37.9724C104.911 37.6785 105.062 37.3306 105.062 36.9288C105.062 36.6679 104.985 36.2884 104.833 35.7895L100.808 23.8772C100.662 23.4143 100.377 23.0073 99.9925 22.7109C99.6096 22.4176 99.1391 22.2706 98.5795 22.2706C98.02 22.2706 97.546 22.4176 97.1597 22.7109C96.7722 23.0059 96.4851 23.4131 96.3373 23.8772L92.4339 35.7531ZM104.95 25.4688C105.923 25.4688 106.568 24.8244 106.568 23.8576C106.568 22.8895 105.923 22.2464 104.95 22.2464C103.982 22.2464 103.332 22.8895 103.332 23.8576C103.332 24.8244 103.982 25.4688 104.95 25.4688ZM104.95 25.183C104.157 25.183 103.626 24.6497 103.626 23.8576C103.626 23.0641 104.157 22.5315 104.95 22.5315C105.748 22.5315 106.278 23.0648 106.278 23.8576C106.278 24.6504 105.748 25.183 104.95 25.183ZM105.605 23.5259C105.605 23.2259 105.403 23.0419 105.042 23.0419H104.402C104.37 23.0419 104.352 23.0601 104.352 23.0918V24.6181C104.352 24.6497 104.37 24.6673 104.402 24.6673H104.605C104.637 24.6673 104.655 24.6497 104.655 24.6181V24.0632H104.803C105.062 24.0632 105.158 24.1617 105.251 24.3639L105.361 24.6268C105.374 24.6538 105.393 24.6673 105.422 24.6673H105.637C105.675 24.6673 105.694 24.645 105.675 24.6093L105.513 24.2506C105.471 24.1351 105.39 24.0383 105.283 23.9776C105.251 23.9608 105.251 23.9506 105.287 23.9372C105.462 23.8832 105.605 23.745 105.605 23.5259ZM104.941 23.799H104.655V23.3244H105.042C105.2 23.3244 105.315 23.3911 105.315 23.5482C105.315 23.714 105.171 23.799 104.941 23.799ZM77.5141 22.6778C77.8303 22.934 78.0083 23.261 78.0447 23.65L78.0433 23.6493C78.077 24.0086 77.9806 24.4145 77.7602 24.856L72.7094 35.6378C72.4058 36.3478 71.9568 36.9862 71.3914 37.512C71.0341 37.8403 70.0957 38.3951 68.8458 38.3951C68.3092 38.3951 66.6777 38.3951 66.3137 37.2396C66.2553 37.0576 66.2365 36.8652 66.2586 36.6753C66.2807 36.4854 66.3431 36.3025 66.4417 36.1387C66.6413 35.7942 67.0694 35.3823 67.9761 35.381L68.7042 35.4032C69.0089 35.3918 69.2617 35.3203 69.4323 35.1922C69.642 35.0358 69.824 34.7783 69.9743 34.4277L70.4516 33.3572L66.2017 24.856C65.9806 24.4151 65.8849 24.0086 65.9186 23.6493C65.9543 23.261 66.1323 22.9333 66.4492 22.6772C66.5978 22.5527 66.7697 22.4591 66.9549 22.4018C67.1401 22.3445 67.3349 22.3247 67.5278 22.3435C67.9323 22.3792 68.4959 22.5882 68.8694 23.3904L72.0898 29.9837L75.0912 23.3938C75.4667 22.5888 76.0296 22.3785 76.4355 22.3435C76.6284 22.3247 76.8232 22.3446 77.0084 22.402C77.1936 22.4595 77.3656 22.5532 77.5141 22.6778Z" fill="white"/>
</g>
<defs>
<clipPath id="clip0">
<rect width="120" height="60" fill="white" transform="translate(0.347656 0.458984)"/>
</clipPath>
</defs>
</svg>
