<svg width="160" height="39" viewBox="0 0 160 39" fill="none" xmlns="http://www.w3.org/2000/svg">
<g clip-path="url(#clip0)">
<path d="M34.9576 2H2.04066C0.913483 2.00056 -0.000282222 2.91489 6.53873e-08 4.04235V36.9593C0.000564641 38.0865 0.914894 39.0003 2.04235 39H34.9576C36.0854 39.0003 36.9997 38.0862 37 36.9585C37 36.9582 37 36.9579 37 36.9576V4.04066C36.9994 2.91348 36.0851 1.99972 34.9576 2Z" fill="white"/>
<path d="M13.0205 39.0001V24.6915H17.8442L18.5669 19.0909H13.0205V15.5239C13.0205 13.9061 13.4696 12.8038 15.7895 12.8038H18.7295V7.80814C18.218 7.7401 16.463 7.58795 14.4209 7.58795C10.1573 7.58795 7.23926 10.1895 7.23926 14.9692V19.0909H2.43359V24.6915H7.23926V39.0001H13.0205Z" fill="#3B5998"/>
</g>
<path d="M107.601 28.1995C106.709 28.1995 106.066 28.4867 105.414 28.7794V35.4023C106.039 35.4607 106.397 35.4607 106.989 35.4607C109.129 35.4607 109.423 34.4977 109.423 33.1531V29.99C109.423 28.997 109.087 28.1995 107.601 28.1995ZM93.3856 27.838C91.9005 27.838 91.5616 28.639 91.5616 29.631V30.1884H95.2076V29.631C95.2076 28.639 94.8687 27.838 93.3856 27.838ZM65.8478 34.7314C65.8478 35.5162 66.2247 35.9238 67.0565 35.9238C67.9488 35.9238 68.4771 35.638 69.1285 35.3443V33.7733H67.1775C66.2537 33.7733 65.8478 33.9423 65.8478 34.7314ZM121.429 28.1995C119.941 28.1995 119.426 28.997 119.426 29.99V33.6137C119.426 34.6092 119.941 35.4091 121.429 35.4091C122.912 35.4091 123.432 34.6092 123.432 33.6137V29.99C123.431 28.997 122.912 28.1995 121.429 28.1995ZM58.5578 38.7947H54.1849V28.3964H52V24.8134H54.1854V22.6614C54.1854 19.738 55.4186 18 58.9237 18H61.8419V21.584H60.0179C58.6532 21.584 58.5633 22.0849 58.5633 23.0194L58.5578 24.8129H61.8619L61.4755 28.3959H58.5578V38.7947ZM73.5023 38.8217H69.8578L69.7003 37.9162C68.0363 38.8217 66.5512 38.9686 65.5714 38.9686C62.8986 38.9686 61.476 37.2144 61.476 34.7884C61.476 31.9263 63.1361 30.9049 66.1058 30.9049H69.1285V30.2861C69.1285 28.8251 68.958 28.3964 66.6711 28.3964H62.9321L63.2975 24.8134H67.3844C72.4021 24.8134 73.5023 26.3706 73.5023 30.3151V38.8217ZM85.8956 28.6591C83.6277 28.277 82.9763 28.1931 81.8851 28.1931C79.9251 28.1931 79.3328 28.6179 79.3328 30.2532V33.3466C79.3328 34.9819 79.9251 35.4087 81.8851 35.4087C82.9763 35.4087 83.6277 35.3232 85.8956 34.9397V38.4348C83.9091 38.8723 82.6149 38.9872 81.5212 38.9872C76.8264 38.9872 74.9604 36.5617 74.9604 33.0578V30.5478C74.9604 27.041 76.8264 24.6111 81.5212 24.6111C82.6149 24.6111 83.9091 24.7265 85.8956 25.166V28.6591ZM99.5799 33.0578H91.5611V33.3466C91.5611 34.9819 92.1539 35.4087 94.1134 35.4087C95.8749 35.4087 96.9501 35.3232 99.214 34.9397V38.4348C97.0306 38.8723 95.8929 38.9872 93.751 38.9872C89.0557 38.9872 87.1887 36.5617 87.1887 33.0578V30.1879C87.1887 27.122 88.5738 24.6111 93.3851 24.6111C98.1963 24.6111 99.5799 27.093 99.5799 30.1879V33.0578ZM113.795 33.1241C113.795 36.5107 112.809 38.9809 106.841 38.9809C104.686 38.9809 103.421 38.7947 101.043 38.4352V19.0765L105.414 18.36V25.1316C106.359 24.7869 107.581 24.6115 108.694 24.6115C113.066 24.6115 113.794 26.5371 113.794 29.6315V33.1241H113.795ZM127.807 33.1978C127.807 36.1193 126.58 38.9529 121.443 38.9529C116.304 38.9529 115.053 36.1193 115.053 33.1978V30.3769C115.053 27.454 116.304 24.6199 121.443 24.6199C126.58 24.6199 127.807 27.454 127.807 30.3769V33.1978ZM141.811 33.1978C141.811 36.1193 140.582 38.9529 135.446 38.9529C130.307 38.9529 129.056 36.1193 129.056 33.1978V30.3769C129.056 27.454 130.307 24.6199 135.446 24.6199C140.582 24.6199 141.811 27.454 141.811 30.3769V33.1978ZM156.182 38.7947H151.443L147.436 32.2225V38.7947H143.063V19.076L147.436 18.3595V31.0537L151.443 24.8134H156.182L151.807 31.6233L156.182 38.7947ZM135.431 28.1995C133.946 28.1995 133.431 28.997 133.431 29.99V33.6137C133.431 34.6092 133.946 35.4091 135.431 35.4091C136.914 35.4091 137.439 34.6092 137.439 33.6137V29.99C137.439 28.997 136.914 28.1995 135.431 28.1995ZM158.677 36.3422C159.414 36.3422 160 36.932 160 37.6687C160 38.4166 159.413 39 158.672 39C157.934 39 157.336 38.4166 157.336 37.6687C157.336 36.932 157.934 36.3422 158.672 36.3422H158.677ZM158.672 36.5485C158.078 36.5485 157.593 37.0499 157.593 37.6687C157.593 38.2987 158.079 38.7937 158.677 38.7937C159.276 38.7996 159.755 38.2987 159.755 37.6745C159.755 37.0504 159.276 36.5485 158.677 36.5485H158.672ZM158.42 38.4406H158.18V36.9605C158.306 36.9433 158.426 36.9261 158.606 36.9261C158.834 36.9261 158.983 36.9733 159.075 37.0376C159.163 37.1029 159.211 37.2026 159.211 37.3436C159.211 37.539 159.08 37.6564 158.918 37.704V37.7153C159.05 37.7394 159.139 37.8563 159.17 38.0738C159.205 38.3041 159.241 38.392 159.265 38.4402H159.013C158.978 38.392 158.941 38.257 158.911 38.062C158.876 37.8739 158.779 37.8032 158.587 37.8032H158.421V38.4406H158.42ZM158.42 37.6215H158.594C158.791 37.6215 158.959 37.5503 158.959 37.3671C158.959 37.2375 158.864 37.1083 158.594 37.1083C158.516 37.1083 158.461 37.1142 158.42 37.1196V37.6215Z" fill="white"/>
<path d="M52.54 7.8C52.54 6.568 52.948 5.54 53.764 4.716C54.588 3.884 55.636 3.468 56.908 3.468C58.172 3.468 59.216 3.868 60.04 4.668C60.872 5.468 61.288 6.512 61.288 7.8C61.288 9.056 60.872 10.092 60.04 10.908C59.208 11.724 58.164 12.132 56.908 12.132C55.644 12.132 54.6 11.732 53.776 10.932C52.952 10.132 52.54 9.088 52.54 7.8ZM54.1 7.8C54.1 8.64 54.368 9.344 54.904 9.912C55.448 10.472 56.116 10.752 56.908 10.752C57.772 10.752 58.456 10.472 58.96 9.912C59.472 9.352 59.728 8.648 59.728 7.8C59.728 6.936 59.456 6.228 58.912 5.676C58.376 5.124 57.708 4.848 56.908 4.848C56.1 4.848 55.428 5.124 54.892 5.676C54.364 6.228 54.1 6.936 54.1 7.8ZM61.2053 4.98V3.6H68.1293V4.98H65.4053V12H63.9293V4.98H61.2053ZM71.1855 12.132C70.5055 12.132 69.9175 11.996 69.4215 11.724C68.9335 11.444 68.5615 11.108 68.3055 10.716L69.1095 9.72C69.3735 10.024 69.6895 10.272 70.0575 10.464C70.4255 10.656 70.7775 10.752 71.1135 10.752C71.5535 10.752 71.9215 10.648 72.2175 10.44C72.5135 10.224 72.6615 9.912 72.6615 9.504C72.6615 9.168 72.5335 8.9 72.2775 8.7C72.0215 8.5 71.6535 8.4 71.1735 8.4H70.3095V7.02H71.1255C71.4535 7.02 71.7375 6.92 71.9775 6.72C72.2175 6.52 72.3375 6.252 72.3375 5.916C72.3375 5.572 72.2255 5.308 72.0015 5.124C71.7775 4.94 71.4815 4.848 71.1135 4.848C70.4335 4.848 69.8655 5.152 69.4095 5.76L68.5575 4.776C68.8375 4.384 69.2215 4.068 69.7095 3.828C70.1975 3.588 70.7215 3.468 71.2815 3.468C72.0415 3.468 72.6495 3.672 73.1055 4.08C73.5695 4.48 73.8015 5.044 73.8015 5.772C73.8015 6.116 73.7055 6.456 73.5135 6.792C73.3215 7.128 73.0415 7.404 72.6735 7.62V7.656C73.1615 7.776 73.5255 8.012 73.7655 8.364C74.0055 8.716 74.1255 9.144 74.1255 9.648C74.1255 10.392 73.8335 10.992 73.2495 11.448C72.6735 11.904 71.9855 12.132 71.1855 12.132ZM82.285 12V3.6H83.749V12H82.285ZM78.001 7.8C77.833 7.8 77.561 7.82 77.185 7.86V10.608C77.241 10.608 77.321 10.612 77.425 10.62C77.529 10.628 77.625 10.636 77.713 10.644C77.801 10.644 77.889 10.644 77.977 10.644C79.081 10.644 79.633 10.152 79.633 9.168C79.633 8.72 79.489 8.38 79.201 8.148C78.921 7.916 78.521 7.8 78.001 7.8ZM77.185 3.6V6.48C77.497 6.44 77.809 6.42 78.121 6.42C79.137 6.42 79.901 6.66 80.413 7.14C80.933 7.62 81.193 8.284 81.193 9.132C81.193 10.028 80.893 10.736 80.293 11.256C79.693 11.768 78.861 12.024 77.797 12.024C77.509 12.024 77.121 12.02 76.633 12.012C76.153 12.004 75.845 12 75.709 12V3.6H77.185ZM85.7201 11.988V3.624C86.5041 3.584 87.3121 3.564 88.1441 3.564C89.0961 3.564 89.7921 3.756 90.2321 4.14C90.6801 4.516 90.9041 5.016 90.9041 5.64C90.9041 6.536 90.5041 7.172 89.7041 7.548V7.572C90.1441 7.684 90.5001 7.904 90.7721 8.232C91.0441 8.56 91.1801 8.992 91.1801 9.528C91.1801 10.36 90.8921 10.988 90.3161 11.412C89.7481 11.836 88.9961 12.048 88.0601 12.048C87.0441 12.048 86.2641 12.028 85.7201 11.988ZM88.2401 8.388H87.1961V10.608C87.5321 10.648 87.8561 10.668 88.1681 10.668C89.1921 10.668 89.7041 10.264 89.7041 9.456C89.7041 9.104 89.5761 8.84 89.3201 8.664C89.0641 8.48 88.7041 8.388 88.2401 8.388ZM88.1201 4.944C87.7681 4.944 87.4601 4.956 87.1961 4.98V7.104H88.1921C88.5601 7.104 88.8601 7.012 89.0921 6.828C89.3241 6.636 89.4401 6.356 89.4401 5.988C89.4401 5.652 89.3201 5.396 89.0801 5.22C88.8481 5.036 88.5281 4.944 88.1201 4.944ZM99.3423 12V3.6H100.806V12H99.3423ZM95.0583 7.8C94.8903 7.8 94.6183 7.82 94.2423 7.86V10.608C94.2983 10.608 94.3783 10.612 94.4823 10.62C94.5863 10.628 94.6823 10.636 94.7703 10.644C94.8583 10.644 94.9463 10.644 95.0343 10.644C96.1383 10.644 96.6903 10.152 96.6903 9.168C96.6903 8.72 96.5463 8.38 96.2583 8.148C95.9783 7.916 95.5783 7.8 95.0583 7.8ZM94.2423 3.6V6.48C94.5543 6.44 94.8663 6.42 95.1783 6.42C96.1943 6.42 96.9583 6.66 97.4703 7.14C97.9903 7.62 98.2503 8.284 98.2503 9.132C98.2503 10.028 97.9503 10.736 97.3503 11.256C96.7503 11.768 95.9183 12.024 94.8543 12.024C94.5663 12.024 94.1783 12.02 93.6903 12.012C93.2103 12.004 92.9023 12 92.7663 12V3.6H94.2423ZM110.276 12V8.412H106.436V12H104.96V3.6H106.436V7.032H110.276V3.6H111.74V12H110.276ZM112.626 12L116.178 3.576H117.474L121.026 12H119.454L118.578 9.852H114.99L114.114 12H112.626ZM116.79 5.484L115.554 8.472H118.014L116.79 5.484Z" fill="white"/>
<defs>
<clipPath id="clip0">
<rect width="37" height="37" fill="white" transform="translate(0 2)"/>
</clipPath>
</defs>
</svg>
