<svg width="17" height="27" viewBox="0 0 17 27" fill="none" xmlns="http://www.w3.org/2000/svg">
<path d="M15.7 1H9.57143C5.52315 1.24759 4.74958 3.95782 5.25966 10.5683C5.27315 10.7431 5.13549 10.8958 4.96016 10.8958H1.3C1.13431 10.8958 1 11.0301 1 11.1958V15.8042C1 15.9699 1.13431 16.1042 1.3 16.1042H4.98571C5.1514 16.1042 5.28571 16.2385 5.28571 16.4042V25.7C5.28571 25.8657 5.42003 26 5.58571 26H10.3429C10.5085 26 10.6429 25.8657 10.6429 25.7V16.4042C10.6429 16.2385 10.7772 16.1042 10.9429 16.1042H14.684C14.8264 16.1042 14.9492 16.0041 14.9778 15.8646L15.9258 11.2563C15.9641 11.0702 15.822 10.8958 15.632 10.8958H10.9429C10.7772 10.8958 10.6429 10.7615 10.6429 10.5958V5.9875C10.6429 5.82181 10.7772 5.6875 10.9429 5.6875H15.7C15.8657 5.6875 16 5.55318 16 5.3875V1.3C16 1.13431 15.8657 1 15.7 1Z" stroke="#141414" stroke-width="2"/>
</svg>
