<svg width="121" height="20" viewBox="0 0 121 20" fill="none" xmlns="http://www.w3.org/2000/svg">
<path fill-rule="evenodd" clip-rule="evenodd" d="M24.0257 19.6353H5.5059C5.5059 19.558 5.45811 19.5762 5.39206 19.6015C5.35123 19.6171 5.30344 19.6353 5.25564 19.6353C5.0471 19.5936 4.83855 19.5658 4.63001 19.538C4.21288 19.4824 3.79576 19.4268 3.37863 19.2599C2.25243 18.8845 1.25134 18.2589 0.625669 17.1326C0.500606 16.8825 0.375558 16.5074 0.250495 16.1322L0.250283 16.1316C0.187716 15.9439 0.156429 15.7874 0.125142 15.631C0.0938543 15.4746 0.062567 15.3182 0 15.1305V4.61926C0.125134 4.49412 0.125142 4.24386 0.125142 4.11873C0.375409 2.49199 1.25135 1.24063 2.75296 0.614957C3.75403 0.239556 4.88023 0.114429 6.00643 0.114429H6.25669H23.4001H23.7754C24.0257 0.114429 24.1508 0.239548 24.1508 0.489816V3.86845C24.1508 4.24383 24.0257 4.24383 23.7755 4.24383H23.7754H23.5252H17.8942H6.88236C6.13156 4.24383 5.88131 4.49412 5.88131 5.24493V14.3797C5.88131 15.0054 6.13157 15.3808 6.75724 15.3808H18.1444C18.2695 15.3808 18.3947 15.3808 18.3947 15.1305V12.1273C18.3947 11.877 18.3947 11.877 18.1444 11.877H13.0139H9.51018C9.00965 11.877 8.88451 11.877 8.88451 11.2513V8.12299V8.12297C8.88451 7.87272 8.88451 7.74759 8.94708 7.68503C9.00964 7.62246 9.13477 7.62246 9.38502 7.62246H9.38504H23.5252C24.0257 7.62246 24.0257 7.74759 24.0257 8.12299V13.1283V19.0097C24.276 19.2599 24.276 19.5102 24.0257 19.6353ZM74.0793 19.6353H58.0622H57.937C57.3113 19.6353 56.6857 19.5102 55.9349 19.2599C54.3081 18.8845 53.4322 17.7583 52.9317 16.2567C52.8065 15.7562 52.6814 15.1305 52.6814 14.5048V5.11979C52.6814 4.36898 52.8065 3.61816 53.0568 2.99249C53.5573 1.86629 54.3081 0.990359 55.5595 0.614957C56.5605 0.239556 57.5616 0.114429 58.6878 0.114429H58.9381H73.5788H73.9542C74.3296 0.114429 74.3296 0.239548 74.3296 0.489816V3.7433C74.3296 4.11871 74.2044 4.24383 73.829 4.24383H73.5788H59.6889H59.3135C58.6878 4.36897 58.4376 4.49412 58.4376 5.11979V7.24708C58.4376 7.37221 58.4376 7.43477 58.4688 7.46605C58.5001 7.49732 58.5627 7.49732 58.6878 7.49732H58.6878H65.3199H73.2033C73.7039 7.49732 73.829 7.49732 73.829 8.12299V11.0011C73.829 11.3765 73.829 11.5642 73.7352 11.658C73.6413 11.7519 73.4537 11.7519 73.0783 11.7519H73.0782H58.6878H58.4376C58.3124 11.7519 58.3124 11.7519 58.3124 11.877V14.5048C58.3124 14.8802 58.4375 15.0054 58.8129 15.1305C58.9381 15.1305 59.0319 15.1618 59.1258 15.1931C59.2196 15.2244 59.3135 15.2556 59.4386 15.2556H73.3285H73.7039C74.0793 15.2556 74.0793 15.3808 74.0793 15.631V19.0097C74.3296 19.3851 74.2044 19.5102 74.0793 19.6353ZM33.2857 19.6353H49.3028C49.4982 19.5376 49.541 19.4399 49.61 19.2827L49.61 19.2825L49.6102 19.2822C49.6295 19.2382 49.6509 19.1895 49.6782 19.1348V15.7562C49.6782 15.3808 49.5531 15.2556 49.1777 15.2556H48.8022H34.9124H34.537C34.0365 15.2556 33.7862 15.0054 33.7862 14.5048V12.0021C33.7862 11.877 33.7862 11.877 33.9113 11.877H34.1616H48.4269C49.1777 11.877 49.1777 11.7519 49.1777 11.1262V11.1262V8.24813C49.1777 7.9353 49.1777 7.77888 49.0994 7.70067C49.0212 7.62246 48.8648 7.62246 48.552 7.62246H34.1616C34.0677 7.62246 33.9974 7.63028 33.9446 7.63615C33.7862 7.65374 33.7862 7.65374 33.7862 7.37218V5.37007C33.7862 4.61927 34.0364 4.36897 34.7873 4.36897H48.8022C49.553 4.36897 49.5531 4.24383 49.5531 3.61816V0.614957C49.5531 0.239556 49.5531 0.114429 49.1777 0.114429H48.8022H34.2867H34.0365C33.0354 0.114429 31.9092 0.239556 30.9081 0.614957C29.2814 1.24063 28.4054 2.49199 28.1552 4.11873C28.03 4.4941 28.03 4.99458 28.03 5.36997V5.37007V14.5048C28.03 15.3808 28.2803 16.1316 28.5306 16.8824C29.0311 18.1337 30.0322 18.8845 31.2835 19.2599C31.9092 19.5102 32.5348 19.6353 33.1605 19.6353C33.1605 19.6353 33.2857 19.5102 33.2857 19.6353ZM103.235 19.6353C102.985 19.5102 102.985 19.2599 102.985 19.0097V13.2535C102.985 13.1284 102.985 13.0032 102.86 12.8781L99.106 8.74866C98.105 7.74759 97.229 6.74653 96.3531 5.74545C95.8525 5.24492 95.3833 4.7131 94.914 4.18128C94.4448 3.64946 93.9755 3.11764 93.475 2.61711C93.2247 2.30427 92.9432 2.02272 92.6616 1.74117C92.3801 1.45962 92.0985 1.17808 91.8483 0.865241C91.8005 0.817442 91.7709 0.769641 91.7457 0.728814C91.7049 0.662758 91.6753 0.614957 91.598 0.614957C91.4729 0.36469 91.4729 0.239563 91.8483 0.114429H93.475H97.4793C98.2301 0.114429 98.7306 0.61495 99.2312 1.11549C99.7317 1.61601 100.201 2.14782 100.67 2.67963C101.139 3.21146 101.609 3.74329 102.109 4.24383C103.235 5.36969 104.361 6.62063 105.487 7.87158L105.488 7.87275L105.988 8.37327C106.051 8.43584 106.082 8.46712 106.114 8.46712C106.145 8.46712 106.176 8.43584 106.239 8.37327C106.489 8.06044 106.77 7.7789 107.052 7.49735C107.334 7.2158 107.615 6.93425 107.865 6.62141C108.866 5.4952 109.868 4.36899 110.994 3.36792C111.369 2.99253 111.745 2.58586 112.12 2.17919L112.12 2.17915C112.495 1.77247 112.871 1.36578 113.246 0.990382C113.622 0.489846 114.247 0.239571 114.873 0.239571H114.998H120.379H120.504C120.813 0.136385 120.783 0.37354 120.762 0.530069V0.530101C120.758 0.563382 120.754 0.593017 120.754 0.614957C120.629 0.865225 120.379 1.1155 120.129 1.36577C120.003 1.55345 119.847 1.70985 119.691 1.86624L119.691 1.8663L119.69 1.86635C119.534 2.02275 119.378 2.17915 119.253 2.36682C118.752 2.86736 118.283 3.39918 117.814 3.931C117.344 4.46282 116.875 4.99464 116.374 5.49517C115.874 5.99571 115.405 6.52753 114.935 7.05934C114.466 7.59116 113.997 8.12298 113.496 8.62352C113.092 9.02805 112.708 9.45302 112.328 9.87365C111.767 10.4939 111.215 11.1048 110.618 11.6268C110.368 11.877 110.149 12.1272 109.93 12.3774L109.93 12.3776C109.711 12.6278 109.492 12.8781 109.242 13.1283C109.117 13.2535 109.117 13.2535 109.117 13.3786V14.5048V19.2599C109.117 19.5102 109.117 19.7604 108.866 19.8856C106.739 19.6353 104.988 19.6353 103.236 19.6353H103.235ZM81.7124 19.5102C82.0878 19.5102 82.4633 19.5102 82.8387 19.6353C88.0943 19.6353 93.475 19.6353 98.4804 19.7605C98.7307 19.6353 98.8558 19.5102 98.8558 19.2599V16.2567C98.8558 15.5059 98.8558 15.5059 98.105 15.5059H84.9659H84.3403C83.9649 15.3807 83.7146 15.1305 83.7146 14.7551V14.2545V0.990378V0.614953C83.7146 0.364686 83.5895 0.239567 83.3392 0.239567H78.459C78.2087 0.239567 78.0836 0.364686 78.0836 0.614953V0.990378V13.754V13.7543C78.0836 14.505 78.0836 15.1306 78.2087 15.7562C78.3338 16.507 78.459 17.2578 78.9595 17.8835C79.5852 18.8845 80.5862 19.2599 81.7124 19.5102Z" fill="#141414"/>
</svg>
