<svg width="48" height="64" viewBox="0 0 48 64" fill="none" xmlns="http://www.w3.org/2000/svg">
<path d="M13.8666 61.0462H41.6V64H13.8666V61.0462Z" fill="#141414"/>
<path d="M13.8666 55.1384H17.0666V63.9999L13.8666 64V55.1384Z" fill="#141414"/>
<path d="M11.7335 49.231H14.9335V56.1232H11.7335V49.231Z" fill="#141414"/>
<path d="M8.53307 43.3231H11.7331V50.2154H8.53307V43.3231Z" fill="#141414"/>
<path d="M5.33325 39.3843H8.53323V44.3074H5.33325V39.3843Z" fill="#141414"/>
<path d="M2.13342 36.4308H5.33342L5.33325 39.3843L2.13342 39.3846V36.4308Z" fill="#141414"/>
<path d="M0 26.5845H3.2V36.4306H0V26.5845Z" fill="#141414"/>
<path d="M3.2 26.5845H8.53316V29.5383H3.19983L3.2 26.5845Z" fill="#141414"/>
<path d="M7.46697 29.5383H13.867V33.4768H7.46697V29.5383Z" fill="#141414"/>
<path d="M10.6668 33.4769L13.867 33.4768L13.8668 39.3846H10.6668V33.4769Z" fill="#141414"/>
<path d="M10.6668 1.96905H13.8668L13.867 29.5383L10.6668 29.5382V1.96905Z" fill="#141414"/>
<path d="M13.8666 0H19.1999V2.95384H13.8666V0Z" fill="#141414"/>
<path d="M19.1999 1.96905H22.3999V27.569H19.1999V1.96905Z" fill="#141414"/>
<path d="M22.3997 12.8002H28.7997V15.754H22.3997V12.8002Z" fill="#141414"/>
<path d="M27.7335 14.7692H30.9336V27.5693H27.7335V14.7692Z" fill="#141414"/>
<path d="M30.9336 14.7692H36.2667V17.7231H30.9334L30.9336 14.7692Z" fill="#141414"/>
<path d="M35.1999 17.7231H41.5999V20.6769H35.1999V17.7231Z" fill="#141414"/>
<path d="M41.5999 20.6769L44.8002 20.6771V25.6001H41.6001L41.5999 20.6769Z" fill="#141414"/>
<path d="M44.8 23.6306H48V44.3075H44.8V23.6306Z" fill="#141414"/>
<path d="M41.6002 43.3231H44.8002V52.1846H41.6002V43.3231Z" fill="#141414"/>
<path d="M38.3997 51.2H41.5997L41.6 61.0462L38.3997 61.0461V51.2Z" fill="#141414"/>
</svg>
