<svg width="127" height="70" viewBox="0 0 127 70" fill="none" xmlns="http://www.w3.org/2000/svg">
<path d="M12.2522 51.3511V58.32H4.35365V51.3511H0V69.6375H4.35365V62.2851H12.2522V69.6375H16.6058V51.3511H12.2522Z" fill="#141414"/>
<path d="M32.5552 51.3511L28.002 58.5931L23.4541 51.3511H18.3179L25.833 63.3039V69.6375H30.1814V63.3039L37.6966 51.3511H32.5552Z" fill="#141414"/>
<path d="M51.6923 51.3511V64.7534C51.6923 65.2628 51.3089 65.6724 50.768 65.6724H43.7938V51.3511H39.4402V69.6375H52.3015C53.4463 69.6375 54.3654 69.2959 55.0377 68.629C55.7046 67.9568 56.0407 67.0378 56.0407 65.8982V51.3511H51.6923Z" fill="#141414"/>
<path d="M72.9354 51.3511H60.074V69.6375H64.4224V55.3108H71.4071C71.9691 55.3108 72.3262 55.752 72.3262 56.2246V69.6375H76.6746V55.0903C76.6746 53.9454 76.3331 53.0264 75.6715 52.3594C74.994 51.6872 74.0803 51.3511 72.9354 51.3511Z" fill="#141414"/>
<path d="M93.5692 51.3511H80.7078V69.6375H93.5692C94.714 69.6375 95.6278 69.2959 96.2948 68.629C96.967 67.9568 97.3031 67.0378 97.3031 65.8982V55.0903C97.3031 53.9454 96.967 53.0264 96.2948 52.3594C95.6278 51.6872 94.7087 51.3511 93.5692 51.3511ZM92.9547 56.2561V64.7271C92.9547 65.2207 92.5976 65.6724 92.0304 65.6724H85.051V55.3108H91.9989C92.5713 55.3108 92.9547 55.71 92.9547 56.2561Z" fill="#141414"/>
<path d="M104.887 51.3511C103.747 51.3511 102.823 51.6872 102.156 52.3594C101.483 53.0316 101.153 53.9507 101.153 55.0903V69.6375H105.49V63.9813H113.394V69.6375H117.743V51.3511H104.887ZM113.394 55.3108V60.0216H105.49V56.2404C105.49 55.7888 105.842 55.3108 106.42 55.3108H113.394Z" fill="#141414"/>
<path d="M121.976 69.6375H126.329V51.3511H121.976V69.6375Z" fill="#141414"/>
<path d="M60.5951 38.6788C81.479 38.6788 98.4112 30.1009 98.4112 19.5247C98.4112 8.94056 81.479 0.362549 60.5951 0.362549C39.7193 0.362549 22.7871 8.94056 22.7871 19.5247C22.7871 30.1009 39.7193 38.6788 60.5951 38.6788ZM67.7161 29.2795C67.0854 30.7249 65.9998 33.8131 63.509 35.0454C62.7506 35.4168 61.8166 35.5906 60.9863 35.6221C60.7945 35.6221 60.659 35.6221 60.6028 35.6221C53.6256 35.6221 47.1273 34.6583 41.6908 33.0233C41.6502 33.0061 41.5234 32.9603 41.4834 32.9442C40.9806 32.7786 40.725 32.5493 40.725 32.265C40.725 32.0203 40.8606 31.8306 41.0361 31.6568C41.1161 31.5857 41.2279 31.4912 41.3796 31.3565C42.641 30.3218 46.417 27.6125 53.538 24.9112C56.0366 23.9712 59.166 22.7944 62.4391 22.1072C64.355 21.7123 71.476 20.6301 67.716 29.2791L67.7161 29.2795ZM86.8196 9.96706C86.9552 9.73779 87.1312 9.54056 87.4582 9.52451C87.6337 9.50732 87.8736 9.54743 88.2406 9.77727C92.6792 12.4786 95.3136 15.8593 95.3136 19.5163C95.3136 26.1195 86.7318 31.7985 74.4537 34.2787C73.6714 34.4369 73.1445 34.4289 72.9689 34.2329C72.8414 34.1142 72.8096 33.9011 72.9689 33.6406C73.0407 33.5065 73.1287 33.3877 73.2961 33.19C79.9779 25.3941 85.0712 13.8936 86.5162 10.5761C86.628 10.3469 86.7317 10.1183 86.8198 9.96811L86.8196 9.96706ZM53.594 9.7234C54.2246 8.27796 55.3104 5.18945 57.8011 3.9652C58.5595 3.59378 59.4935 3.41217 60.3238 3.38867C60.5155 3.38293 60.6511 3.38867 60.6992 3.38867C67.6844 3.38867 74.1747 4.34438 79.6192 5.98728C79.6597 6.00448 79.7866 6.05029 79.8265 6.06634C80.3294 6.23199 80.5849 6.4612 80.5849 6.74556C80.5849 6.99031 80.4494 7.17204 80.2738 7.34588C80.1939 7.42498 80.0821 7.51955 79.9303 7.64622C78.677 8.68883 74.8929 11.3902 67.772 14.0915C65.2653 15.0393 62.1439 16.2083 58.8788 16.8955C56.9549 17.2984 49.8339 18.3725 53.594 9.72357V9.7234ZM46.7364 4.75532C47.5268 4.60514 48.0457 4.60512 48.2373 4.80115C48.3491 4.92725 48.3809 5.13303 48.2315 5.3936C48.1515 5.52772 48.0641 5.65445 47.9042 5.83615C41.2224 13.64 36.1292 25.1323 34.6762 28.4577C34.5725 28.687 34.4607 28.9157 34.3727 29.0659C34.2446 29.2952 34.0616 29.4924 33.742 29.5084C33.5664 29.5256 33.319 29.4741 32.9516 29.2557C28.513 26.5543 25.8786 23.1737 25.8786 19.5166C25.8786 12.9134 34.4604 7.23441 46.7385 4.75427" fill="#141414"/>
</svg>
