<svg width="260" height="37" viewBox="0 0 260 37" fill="none" xmlns="http://www.w3.org/2000/svg">
<g clip-path="url(#clip0_1187_44)">
<path d="M99.8593 6.06168V15.5418H88.7798V6.06686H82.6704V30.9497H88.7798V20.9405H99.8646V30.9497H105.979V6.06168H99.8593ZM128.363 6.06168L121.97 15.9152L115.588 6.06168H108.376L118.926 22.3252V30.9445H125.03V22.3252L135.58 6.06168H128.363ZM155.224 6.06168V24.2959C155.224 24.9909 154.689 25.5458 153.93 25.5458H144.14V6.06686H138.03V30.9497H156.08C157.685 30.9497 158.98 30.4829 159.921 29.5754C160.858 28.6626 161.334 27.4128 161.334 25.8621V6.06168H155.224ZM185.049 6.06168H166.994V30.9445H173.093V11.4448H182.904C183.691 11.4448 184.188 12.0464 184.188 12.6895V30.9445H190.298V11.1492C190.298 9.5934 189.816 8.33837 188.891 7.4308C187.938 6.51805 186.654 6.06168 185.049 6.06168ZM214.013 6.06168H195.958V30.9445H214.013C215.618 30.9445 216.902 30.4778 217.838 29.5702C218.785 28.6574 219.256 27.4076 219.256 25.857V11.1492C219.256 9.5934 218.785 8.33837 217.838 7.4308C216.902 6.51805 215.613 6.06168 214.013 6.06168ZM213.152 12.7362V24.2596C213.158 24.4279 213.128 24.5955 213.065 24.7524C213.002 24.9092 212.907 25.0521 212.786 25.1723C212.664 25.2926 212.519 25.3876 212.358 25.4518C212.198 25.516 212.025 25.548 211.852 25.5458H202.056V11.45H211.809C212.612 11.45 213.146 11.9894 213.146 12.7362H213.152ZM229.902 6.06168C228.297 6.06168 227.002 6.51805 226.066 7.4308C225.125 8.34874 224.659 9.59859 224.659 11.1492V30.9445H230.747V23.2484H241.843V30.9445H247.947V6.06168H229.902ZM241.843 11.45V17.86H230.747V12.705C230.747 12.0931 231.24 11.4448 232.053 11.4448L241.843 11.45ZM253.891 30.9445H260V6.06168H253.891V30.9445ZM34.9128 35.835C54.1988 35.835 69.8362 28.0714 69.8362 18.5031C69.8362 8.9244 54.1988 1.16602 34.9128 1.16602C15.6321 1.16602 0 8.91921 0 18.5031C0 28.0714 15.6321 35.8298 34.9128 35.8298V35.835ZM41.493 27.3246C40.9045 28.6367 39.9041 31.432 37.6037 32.547C36.8706 32.8715 36.0769 33.048 35.2712 33.0656H34.9181C28.477 33.0656 22.4745 32.1943 17.4564 30.7163L17.2638 30.6437C16.7984 30.4933 16.563 30.2859 16.563 30.0266C16.563 29.8088 16.686 29.6376 16.8519 29.4768L17.1675 29.2072C18.3337 28.2737 21.8218 25.8207 28.3967 23.3728C30.7025 22.5223 33.5914 21.4592 36.614 20.8368C38.3848 20.479 44.9597 19.504 41.4877 27.3298L41.493 27.3246ZM59.1313 9.85271C59.2543 9.64526 59.4202 9.46893 59.7198 9.45338C59.8802 9.43782 60.1049 9.47412 60.442 9.68156C64.5399 12.1242 66.9741 15.184 66.9741 18.4979C66.9741 24.4671 59.051 29.6065 47.7148 31.8521C46.9872 31.9921 46.5004 31.9869 46.3399 31.8106C46.2222 31.7069 46.1901 31.5098 46.3399 31.2712C46.4244 31.1263 46.5248 30.9906 46.6395 30.8667C52.8132 23.8136 57.5156 13.4052 58.8477 10.4076C58.9547 10.2002 59.051 9.99273 59.1313 9.85271ZM28.4449 9.63489C29.0333 8.328 30.0337 5.5327 32.3342 4.42288C33.0296 4.08578 33.8963 3.92501 34.6613 3.90427H35.0091C41.4609 3.90427 47.4527 4.76516 52.4815 6.25356C52.5189 6.26912 52.6366 6.30542 52.6741 6.32617C53.1342 6.47656 53.3695 6.68401 53.3695 6.93813C53.3695 7.16113 53.2465 7.32708 53.086 7.48266C53.0111 7.55527 52.9095 7.63825 52.765 7.75234C51.6095 8.69621 48.1161 11.144 41.5412 13.5867C39.2247 14.4424 36.3412 15.5055 33.3292 16.1227C31.5531 16.4857 24.9728 17.4607 28.4449 9.63489ZM22.1214 5.13337C22.849 4.99853 23.3305 4.99853 23.507 5.17486C23.614 5.28895 23.6407 5.47565 23.5016 5.70902C23.4142 5.85338 23.312 5.9889 23.1967 6.11354C17.023 13.1718 12.3206 23.5751 10.9778 26.583C10.8815 26.7905 10.7798 26.9979 10.6942 27.1327C10.5765 27.3402 10.4107 27.5217 10.1165 27.5372C9.95597 27.5528 9.72593 27.5061 9.38354 27.3039C5.2856 24.8664 2.86214 21.8066 2.86214 18.4927C2.86214 12.5184 10.7798 7.37894 22.1214 5.13856" fill="#002E6B"/>
</g>
<defs>
<clipPath id="clip0_1187_44">
<rect width="260" height="37" fill="white"/>
</clipPath>
</defs>
</svg>
