<svg width="128" height="70" viewBox="0 0 128 70" fill="none" xmlns="http://www.w3.org/2000/svg">
<path d="M13.0264 51.3511V58.32H5.12788V51.3511H0.774231V69.6375H5.12788V62.2851H13.0264V69.6375H17.3801V51.3511H13.0264Z" fill="#141414"/>
<path d="M33.3294 51.3511L28.7762 58.5931L24.2283 51.3511H19.0921L26.6072 63.3039V69.6375H30.9557V63.3039L38.4708 51.3511H33.3294Z" fill="#141414"/>
<path d="M52.4665 51.3511V64.7534C52.4665 65.2628 52.0832 65.6724 51.5422 65.6724H44.568V51.3511H40.2144V69.6375H53.0757C54.2206 69.6375 55.1397 69.2959 55.8119 68.629C56.4789 67.9568 56.8149 67.0378 56.8149 65.8982V51.3511H52.4665Z" fill="#141414"/>
<path d="M73.7096 51.3511H60.8483V69.6375H65.1966V55.3108H72.1814C72.7433 55.3108 73.1004 55.7519 73.1004 56.2246V69.6375H77.4488V55.0903C77.4488 53.9454 77.1074 53.0264 76.4458 52.3594C75.7683 51.6872 74.8545 51.3511 73.7096 51.3511Z" fill="#141414"/>
<path d="M94.3434 51.3511H81.482V69.6375H94.3434C95.4882 69.6375 96.4021 69.2959 97.069 68.629C97.7412 67.9568 98.0773 67.0378 98.0773 65.8982V55.0903C98.0773 53.9454 97.7412 53.0264 97.069 52.3594C96.4021 51.6872 95.483 51.3511 94.3434 51.3511ZM93.7289 56.2561V64.7271C93.7289 65.2207 93.3719 65.6724 92.8046 65.6724H85.8252V55.3108H92.7731C93.3456 55.3108 93.7289 55.71 93.7289 56.2561Z" fill="#141414"/>
<path d="M105.661 51.3511C104.521 51.3511 103.597 51.6872 102.93 52.3594C102.258 53.0316 101.927 53.9507 101.927 55.0903V69.6375H106.265V63.9813H114.168V69.6375H118.517V51.3511H105.661ZM114.168 55.3108V60.0216H106.265V56.2404C106.265 55.7888 106.616 55.3108 107.194 55.3108H114.168Z" fill="#141414"/>
<path d="M122.75 69.6375H127.103V51.3511H122.75V69.6375Z" fill="#141414"/>
<path d="M61.3693 38.6788C82.2532 38.6788 99.1855 30.1009 99.1855 19.5247C99.1855 8.94055 82.2532 0.362541 61.3693 0.362541C40.4935 0.362541 23.5613 8.94055 23.5613 19.5247C23.5613 30.1009 40.4935 38.6788 61.3693 38.6788ZM68.4903 29.2795C67.8596 30.7249 66.774 33.8131 64.2832 35.0453C63.5249 35.4168 62.5908 35.5906 61.7605 35.6221C61.5687 35.6221 61.4332 35.6221 61.377 35.6221C54.3998 35.6221 47.9015 34.6583 42.465 33.0233C42.4245 33.0061 42.2976 32.9603 42.2576 32.9442C41.7548 32.7786 41.4992 32.5493 41.4992 32.265C41.4992 32.0202 41.6348 31.8306 41.8103 31.6568C41.8903 31.5857 42.0021 31.4912 42.1538 31.3565C43.4152 30.3218 47.1912 27.6125 54.3122 24.9112C56.8109 23.9712 59.9402 22.7944 63.2133 22.1072C65.1292 21.7123 72.2502 20.6301 68.4902 29.2791L68.4903 29.2795ZM87.5938 9.96705C87.7294 9.73778 87.9054 9.54056 88.2324 9.52451C88.4079 9.50731 88.6478 9.54742 89.0148 9.77727C93.4534 12.4786 96.0878 15.8592 96.0878 19.5163C96.0878 26.1195 87.506 31.7985 75.228 34.2787C74.4456 34.4369 73.9187 34.4289 73.7431 34.2328C73.6156 34.1142 73.5838 33.9011 73.7431 33.6406C73.8149 33.5064 73.9029 33.3877 74.0703 33.19C80.7522 25.3941 85.8454 13.8936 87.2904 10.5761C87.4022 10.3469 87.506 10.1183 87.594 9.9681L87.5938 9.96705ZM54.3682 9.72339C54.9989 8.27795 56.0846 5.18945 58.5753 3.9652C59.3338 3.59378 60.2678 3.41216 61.098 3.38866C61.2897 3.38293 61.4253 3.38866 61.4734 3.38866C68.4586 3.38866 74.9489 4.34437 80.3934 5.98727C80.4339 6.00447 80.5608 6.05029 80.6008 6.06634C81.1036 6.23198 81.3591 6.4612 81.3591 6.74555C81.3591 6.9903 81.2236 7.17203 81.048 7.34588C80.9681 7.42497 80.8563 7.51954 80.7045 7.64621C79.4512 8.68883 75.6672 11.3902 68.5462 14.0915C66.0395 15.0393 62.9181 16.2083 59.653 16.8955C57.7291 17.2984 50.6081 18.3725 54.3682 9.72357V9.72339ZM47.5106 4.75531C48.301 4.60514 48.8199 4.60511 49.0115 4.80114C49.1233 4.92724 49.1551 5.13303 49.0057 5.39359C48.9257 5.52772 48.8383 5.65444 48.6784 5.83614C41.9966 13.64 36.9034 25.1323 35.4504 28.4577C35.3467 28.687 35.2349 28.9157 35.1469 29.0659C35.0189 29.2952 34.8358 29.4924 34.5162 29.5084C34.3406 29.5256 34.0932 29.4741 33.7258 29.2557C29.2872 26.5543 26.6528 23.1737 26.6528 19.5166C26.6528 12.9134 35.2346 7.2344 47.5127 4.75426" fill="#141414"/>
</svg>
