<svg width="166" height="51" viewBox="0 0 166 51" fill="none" xmlns="http://www.w3.org/2000/svg">
<path fill-rule="evenodd" clip-rule="evenodd" d="M34.2604 7.41312H27.3066C26.761 7.40214 25.8893 7.96994 24.7878 9.19673L16.7389 20.6787C13.0912 20.5469 11.39 20.7957 8.85418 21.7377C4.19944 24.023 1.47165 26.5809 0.148158 31.659C-1.00227 39.3508 4.74756 40.9115 10.4421 35.5049C12.4692 33.4418 13.4822 32.18 15.151 29.8197L18.8196 23.7443L23.0904 25.082L20.955 33.9443C20.4622 37.3443 22.1048 39.6295 26.2115 39.4623C29.1594 38.6773 30.7354 37.6329 33.3296 34.1672C35.4166 30.5009 36.427 28.3343 37.4362 23.9115H38.0385L36.2316 30.9902C34.8274 35.8147 34.5433 37.8529 36.0673 38.7934C37.6552 39.5738 39.4074 39.4066 41.3786 37.9574C41.6412 36.968 41.7721 36.4006 41.9261 35.3377C40.2835 36.7312 39.2979 36.6197 39.6812 34.8918L42.2546 24.4131C42.5994 23.2211 42.9306 22.672 43.8973 22.0164C44.176 21.7769 44.1031 21.3714 43.733 21.2361H34.2604C33.8385 21.2948 33.7542 21.4495 33.9867 22.0164C35.028 22.6747 35.1588 23.3042 35.027 24.6361C34.1139 28.0864 33.3507 29.8599 31.6869 32.8295C28.8945 35.8394 26.1567 37.0098 26.9233 32.6066L28.0184 27.9246C29.3195 28.9752 29.9675 29.6596 31.0299 30.9902L31.6869 28.3705C30.7486 27.2266 30.0602 26.5616 28.7302 25.3607L31.8512 12.4853C32.5616 10.0807 33.1218 9.06953 34.589 8.24919C34.7444 7.68201 34.7199 7.45924 34.2604 7.41312ZM6.22568 32.2721C8.35553 32.4406 10.3676 29.6714 14.2207 23.8557H14.2204C7.26533 23.6328 3.48763 31.5475 6.22568 32.2721ZM26.6373 10.5557L20.0783 21.2918L23.7469 22.518C24.1925 20.7978 24.6491 19.1378 25.0749 17.5895C25.8388 14.8119 26.504 12.3935 26.8302 10.6302C26.8523 10.5108 26.7004 10.4524 26.6373 10.5557Z" fill="#141414"/>
<path d="M44.3894 25.0263L44.9917 22.6296C48.9341 20.0098 52.2741 20.3443 51.3981 24.1345C50.0302 29.6563 48.7773 34.2949 48.7151 35.6722C48.6225 36.8202 49.5364 36.5639 51.0695 35.3378L50.3577 38.0689C46.7989 40.6885 43.0205 39.2393 44.3894 34.6689L46.5796 25.8623C46.9082 24.3574 46.1416 23.8557 44.3894 25.0263Z" fill="#141414"/>
<path d="M50.9829 18.7921C49.5799 19.4272 48.0745 19.0996 47.6205 18.0603C47.1665 17.021 47.9358 15.6637 49.3388 15.0286C50.7418 14.3935 52.2472 14.7212 52.7012 15.7605C53.1552 16.7997 52.3858 18.1571 50.9829 18.7921Z" fill="#141414"/>
<path fill-rule="evenodd" clip-rule="evenodd" d="M62.7869 20.8459L60.4324 22.741L60.0492 24.8033C62.1298 23.4656 63.5423 24.6361 62.8416 28.7049C62.371 31.4379 61.912 32.8681 60.5967 35.1705C58.4613 38.0689 56.5996 37.3442 57.3114 32.6065C58.141 28.0474 58.7899 25.3277 60.2134 20.2328C64.7581 19.2295 68.8647 16.5541 70.1788 11.2033C71.2191 5.79673 66.2365 5.07214 62.0203 8.63932C58.8432 12.1158 57.3041 14.6569 55.2307 20.8459C53.0392 28.9935 52.3384 32.8843 53.3691 36.8983C54.8474 39.741 58.9541 40.708 62.8416 37.3442C67.222 33.5541 69.9598 20.623 62.7869 20.8459ZM60.8707 18.5607C63.2612 12.1487 64.6832 9.47836 66.8289 8.95876C67.3219 8.8394 67.8692 9.01689 68.09 9.48111C69.2675 11.9564 65.66 17.8497 60.8707 18.5607Z" fill="#141414"/>
<path fill-rule="evenodd" clip-rule="evenodd" d="M79.8158 22.6852C79.9794 21.6543 80.1953 21.2786 80.9656 21.2361H85.0722C85.6745 21.2361 85.4555 21.9049 85.0722 22.2951C84.5199 22.6034 84.3048 22.873 83.9771 23.4098L81.0204 35.2262C80.8561 36.6754 81.8964 36.6754 83.3748 35.3377L82.8273 38.0131C79.8158 40.0754 76.6947 39.7967 76.5305 36.6197C73.519 40.3541 69.5219 40.0197 68.4815 36.6197C67.6607 32.9352 68.4269 30.5443 70.1242 26.3639C72.5334 21.2361 77.7898 19.6197 79.8158 22.6852ZM77.2144 32.1939C77.6609 31.0062 78.0434 29.7889 78.4183 28.5758C79.283 25.7775 79.1608 23.6334 77.8881 23.5987C76.7615 23.178 74.8789 25.526 73.6833 28.8433C72.4878 32.1605 72.4319 35.1908 73.5586 35.6116C74.7705 36.2269 76.2525 34.7525 77.2144 32.1939Z" fill="#141414"/>
<path d="M92.1351 21.2918H87.6999C87.2027 21.4313 87.2275 21.6253 87.5357 22.0721C87.9979 22.4214 88.1149 22.6758 88.0832 23.2426C86.0049 32.4184 84.7804 37.0781 82.6077 45.4819C81.8341 48.0007 81.1638 48.8812 79.651 49.5508C79.2136 49.7737 79.1041 50.2196 79.651 50.2196H88.6308C89.1242 50.2196 88.9599 49.9967 88.6308 49.718C86.6801 48.5046 87.2165 46.7001 87.5357 43.9213L87.6204 43.5553C89.6267 34.8915 90.7754 29.9311 92.1351 27.0327C94.2164 23.7442 95.8043 23.9114 96.1322 26.4196C95.8975 29.697 95.4461 31.3969 94.161 34.1672C92.6285 36.2852 91.7524 35.3934 92.2993 33.4426L90.5472 33.9442C88.6862 39.8524 94.0521 40.9114 97.5011 36.3967C100.147 32.2225 100.623 29.6524 100.677 25.0262C100.13 20.177 95.202 19.6754 92.4089 23.8557C92.8625 22.2215 93.0392 21.3918 92.1351 21.2918Z" fill="#141414"/>
<path d="M108.343 21.1803H103.963C103.196 21.1803 103.47 21.9049 103.744 22.0164C104.201 22.3794 104.419 22.6088 104.236 23.4098C103.383 27.641 102.821 29.755 101.827 33.5541C101.467 34.9922 101.388 35.7978 101.663 37.2328C103.087 40.7443 108.234 39.2951 109.876 37.0098C112.504 32.9967 112.34 29.2066 110.095 27.2557C113.216 24.6918 115.188 24.4131 114.476 27.4787C113.162 32.718 112.243 35.5605 112.504 37.4557C113.052 39.741 116.283 39.7967 118.692 38.0131L119.239 35.3377C117.159 37.0656 116.611 36.4525 117.159 34.5016L119.787 23.5213C120.115 21.682 118.692 20.6229 115.461 21.5705C111.993 23.4128 110.503 24.6316 108.507 27.0885C110.058 29.304 109.686 32.7938 108.224 35.7637C107.958 36.3032 107.585 36.7935 107.081 37.1123C105.937 37.8367 105.438 37.2756 105.715 35.7279L108.891 22.741C109.088 21.6847 108.981 21.3218 108.343 21.1803Z" fill="#141414"/>
<path d="M134.845 21.2361C132.985 21.1482 132.182 21.3019 131.943 22.5738C130.926 21.3074 129.979 21.0597 127.781 21.2361C121.046 22.8525 117.706 38.0131 122.908 39.0164C114.311 47.6557 110.095 47.0426 110.698 42.0262C104.62 43.0852 108.125 56.9639 118.801 47.6557C122.474 43.9501 124.157 42.0369 127.288 38.0131L127.781 35.6721C123.784 38.7377 124.277 29.318 128.219 24.5246C129.862 22.7967 131.669 24.023 131.231 25.6393L128.986 34.7246C128.622 36.0836 128.615 36.8029 128.986 38.0131C129.917 39.6852 132.435 39.7967 135.118 38.0131L135.556 35.3377C133.695 36.8426 133.038 36.4525 133.257 35.1705C134.482 30.1821 135.775 24.0787 136.432 23.1311C136.432 22.4623 139.115 21.2361 137.144 21.2361H134.845Z" fill="#141414"/>
<path d="M125.646 4.57049C132.545 11.5377 139.006 15.1607 140.265 14.0459C140.758 15.1607 137.747 14.4361 137.747 15.1607C136.356 15.0997 136.123 15.5062 136.542 16.8885C138.82 14.676 143.695 21.332 145.029 21.5705C143.419 20.3614 142.676 19.6712 142.674 18.3377C143.922 18.1492 144.108 17.1759 143.879 14.4918C153.147 11.9742 158.17 8.30492 166 0C165.398 3.23279 164.491 5.20086 161.729 7.41311L161.743 7.409C163.421 6.92751 164.365 6.65643 166 5.74098C164.868 8.40501 163.668 9.54348 160.251 10.7574C161.829 10.8568 162.681 10.8156 164.029 10.2557C159.758 19.6754 149.464 17.5016 146.398 19.8984C148.744 21.6745 150.369 22.3327 151.326 23.6885C147.438 22.9082 145.084 22.681 140.758 23.8557L141.853 20.0656C141.306 17.6689 130.574 19.6197 127.891 11.5377C128.577 11.8347 128.996 11.9413 129.862 11.9279C128.053 10.6551 127.133 9.93237 126.686 8.52787C127.262 8.978 127.603 9.21625 128.493 9.41967C127.037 7.71144 126.433 6.59965 125.646 4.57049Z" fill="#141414"/>
<path d="M140.185 15.1226C139.613 15.2451 139.27 15.2638 138.692 15.2176C138.683 15.2168 138.673 15.2203 138.667 15.227C138.5 15.3955 138.517 15.5034 138.764 15.6999C138.777 15.7103 138.796 15.7088 138.807 15.6969C138.985 15.5181 139.093 15.5163 139.266 15.755C139.274 15.7662 139.289 15.7713 139.302 15.7677C139.82 15.6244 140.01 15.4704 140.218 15.1738C140.236 15.1492 140.214 15.1163 140.185 15.1226Z" fill="#141414"/>
<path d="M6.93632 47.7341C7.10095 47.7341 7.24574 47.7124 7.3707 47.669C7.49764 47.6257 7.60376 47.5656 7.68904 47.4887C7.77632 47.4099 7.84177 47.3163 7.88541 47.2079C7.92904 47.0995 7.95086 46.9803 7.95086 46.8502C7.95086 46.5802 7.86656 46.3693 7.69797 46.2176C7.53136 46.0659 7.27748 45.99 6.93632 45.99H6.25203V47.7341H6.93632ZM6.93632 45.5377C7.20607 45.5377 7.44012 45.5692 7.63847 45.6323C7.8388 45.6934 8.00441 45.7811 8.13532 45.8954C8.26623 46.0097 8.36342 46.1476 8.42689 46.3092C8.49234 46.4708 8.52507 46.6512 8.52507 46.8502C8.52507 47.0473 8.49036 47.2276 8.42094 47.3912C8.35152 47.5547 8.24937 47.6956 8.1145 47.8139C7.9816 47.9321 7.81599 48.0248 7.61764 48.0918C7.42128 48.1568 7.19417 48.1893 6.93632 48.1893H6.25203V49.7738H5.67782V45.5377H6.93632Z" fill="#141414"/>
<path fill-rule="evenodd" clip-rule="evenodd" d="M11.3395 46.8904V49.8891C11.3395 49.9076 11.3248 49.9225 11.3067 49.9225H10.9766C10.9641 49.9225 10.9527 49.9154 10.9472 49.9041L10.8613 49.7293C10.8533 49.7128 10.8322 49.7069 10.8159 49.7148C8.06655 51.0468 8.33512 45.5664 10.8185 47.0075C10.8336 47.0163 10.8543 47.0127 10.864 46.9979L10.9465 46.8719C10.9526 46.8626 10.9629 46.857 10.9738 46.857H11.3067C11.3248 46.857 11.3395 46.8719 11.3395 46.8904ZM10.8795 47.5443L10.8795 49.1979H10.8461C8.7111 50.7029 8.85422 45.9836 10.8795 47.5443Z" fill="#141414"/>
<path fill-rule="evenodd" clip-rule="evenodd" d="M39.7025 46.8904V49.8891C39.7025 49.9076 39.6878 49.9225 39.6697 49.9225H39.3396C39.3271 49.9225 39.3158 49.9154 39.3102 49.9041L39.2243 49.7293C39.2163 49.7128 39.1952 49.7069 39.1789 49.7148C36.4296 51.0468 36.6981 45.5664 39.1815 47.0075C39.1966 47.0163 39.2173 47.0127 39.227 46.9979L39.3095 46.8719C39.3156 46.8626 39.3259 46.857 39.3368 46.857H39.6697C39.6878 46.857 39.7025 46.8719 39.7025 46.8904ZM39.2426 47.5443V49.1607L39.2091 49.1979C37.0741 50.7029 37.2174 45.9836 39.2426 47.5443Z" fill="#141414"/>
<path d="M12.4938 46.7016V47.2116C12.6587 46.8388 13.1062 46.7016 13.5078 46.7016V47.0984C13.2496 47.0984 12.8792 47.1317 12.7251 47.3038C12.5709 47.4717 12.4938 47.7257 12.4938 48.0656V49.7738H12.1389V46.7016H12.4938Z" fill="#141414"/>
<path d="M40.8568 46.7016V47.2116C41.0217 46.8388 41.4692 46.7016 41.8708 46.7016V47.0984C41.6126 47.0984 41.2422 47.1317 41.0881 47.3038C40.9339 47.4717 40.8568 47.7257 40.8568 48.0656V49.7738H40.5019V46.7016H40.8568Z" fill="#141414"/>
<path d="M52.9029 46.7016V47.2116C53.0678 46.8388 53.5153 46.7016 53.9168 46.7016V47.0984C53.6587 47.0984 53.2883 47.1317 53.1341 47.3038C52.98 47.4717 52.9029 47.7257 52.9029 48.0656V49.7738H52.548V46.7016H52.9029Z" fill="#141414"/>
<path d="M63.3063 46.7016V47.2116C63.4712 46.8388 63.9187 46.7016 64.3203 46.7016V47.0984C64.0621 47.0984 63.6917 47.1317 63.5376 47.3038C63.3834 47.4717 63.3063 47.7257 63.3063 48.0656V49.7738H62.9514V46.7016H63.3063Z" fill="#141414"/>
<path d="M15.4789 46.8299V47.2168H14.6826V49.0484C14.6826 49.2136 14.7142 49.3325 14.7772 49.405C14.8402 49.4735 14.9348 49.5098 15.0609 49.5138C15.187 49.5138 15.3446 49.5098 15.5337 49.5017V49.8523C15.1121 49.9168 14.7989 49.8866 14.594 49.7617C14.3931 49.6327 14.2196 49.3949 14.2196 49.0484V47.2168H13.7815V46.8299H14.2196V46.1045H14.6826V46.8299H15.4789Z" fill="#141414"/>
<path d="M25.7728 46.8299V47.2168H25.0861V49.0484C25.0861 49.2136 25.1176 49.3325 25.1806 49.405C25.2437 49.4735 25.3382 49.5098 25.4643 49.5138C25.5904 49.5138 25.748 49.5098 25.9371 49.5017V49.8523C25.5155 49.9168 25.2023 49.8866 24.9974 49.7617C24.7965 49.6327 24.623 49.3949 24.623 49.0484V47.2168H24.1302V46.8299H24.623V46.1045H25.0861V46.8299H25.7728Z" fill="#141414"/>
<path d="M18.8766 46.6525C19.0863 46.6525 19.2752 46.6907 19.4434 46.7671C19.6115 46.8436 19.7551 46.9521 19.8742 47.0926C19.9932 47.2331 20.0839 47.4036 20.1462 47.604C20.2105 47.8024 20.2426 48.0245 20.2426 48.2704C20.2426 48.5184 20.2105 48.7415 20.1462 48.9399C20.0839 49.1383 19.9932 49.3077 19.8742 49.4482C19.7551 49.5887 19.6115 49.6972 19.4434 49.7737C19.2752 49.8481 19.0863 49.8852 18.8766 49.8852C18.665 49.8852 18.4741 49.8481 18.3041 49.7737C18.1359 49.6972 17.9923 49.5887 17.8733 49.4482C17.7543 49.3077 17.6626 49.1383 17.5984 48.9399C17.536 48.7415 17.5049 48.5184 17.5049 48.2704C17.5049 48.0245 17.536 47.8024 17.5984 47.604C17.6626 47.4036 17.7543 47.2331 17.8733 47.0926C17.9923 46.9521 18.1359 46.8436 18.3041 46.7671C18.4741 46.6907 18.665 46.6525 18.8766 46.6525ZM18.8766 49.4544C19.16 49.4544 19.3716 49.3511 19.5114 49.1445C19.6512 48.9358 19.7211 48.6454 19.7211 48.2735C19.7211 47.8995 19.6512 47.6081 19.5114 47.3994C19.3716 47.1907 19.16 47.0864 18.8766 47.0864C18.733 47.0864 18.6073 47.1133 18.4996 47.167C18.3938 47.2207 18.305 47.2982 18.2332 47.3994C18.1633 47.5007 18.1104 47.6257 18.0745 47.7745C18.0405 47.9212 18.0235 48.0875 18.0235 48.2735C18.0235 48.6454 18.0934 48.9358 18.2332 49.1445C18.3749 49.3511 18.5894 49.4544 18.8766 49.4544Z" fill="#141414"/>
<path d="M65.7467 46.6525C65.9564 46.6525 66.1454 46.6907 66.3135 46.7671C66.4817 46.8436 66.6253 46.9521 66.7443 47.0926C66.8633 47.2331 66.954 47.4036 67.0164 47.604C67.0806 47.8024 67.1128 48.0245 67.1128 48.2704C67.1128 48.5184 67.0806 48.7415 67.0164 48.9399C66.954 49.1383 66.8633 49.3077 66.7443 49.4482C66.6253 49.5887 66.4817 49.6972 66.3135 49.7737C66.1454 49.8481 65.9564 49.8852 65.7467 49.8852C65.5351 49.8852 65.3443 49.8481 65.1742 49.7737C65.0061 49.6972 64.8625 49.5887 64.7434 49.4482C64.6244 49.3077 64.5328 49.1383 64.4685 48.9399C64.4062 48.7415 64.375 48.5184 64.375 48.2704C64.375 48.0245 64.4062 47.8024 64.4685 47.604C64.5328 47.4036 64.6244 47.2331 64.7434 47.0926C64.8625 46.9521 65.0061 46.8436 65.1742 46.7671C65.3443 46.6907 65.5351 46.6525 65.7467 46.6525ZM65.7467 49.4544C66.0301 49.4544 66.2417 49.3511 66.3816 49.1445C66.5214 48.9358 66.5913 48.6454 66.5913 48.2735C66.5913 47.8995 66.5214 47.6081 66.3816 47.3994C66.2417 47.1907 66.0301 47.0864 65.7467 47.0864C65.6031 47.0864 65.4775 47.1133 65.3698 47.167C65.264 47.2207 65.1752 47.2982 65.1034 47.3994C65.0335 47.5007 64.9806 47.6257 64.9447 47.7745C64.9107 47.9212 64.8937 48.0875 64.8937 48.2735C64.8937 48.6454 64.9636 48.9358 65.1034 49.1445C65.2451 49.3511 65.4595 49.4544 65.7467 49.4544Z" fill="#141414"/>
<path d="M21.0293 49.8852V47.2098H20.5711V46.7639H21.0293V46.5541C21.0293 46.2302 21.0621 45.9375 21.2282 45.7607C21.3943 45.5838 21.6794 45.5377 21.983 45.5377C22.0974 45.5377 22.2108 45.5535 22.3233 45.5852V45.9789C22.2393 45.9621 22.1233 45.9789 22.0286 45.9789C21.8678 45.9789 21.7437 46.0282 21.6562 46.1269C21.5687 46.2237 21.5249 46.3633 21.5249 46.5457V46.7639H22.2685V47.2098H21.5249V49.8852H21.0293Z" fill="#141414"/>
<path d="M26.8132 47.0555C27.0559 46.7559 27.3716 46.6062 27.7603 46.6062C28.4371 46.6062 28.7784 46.99 28.7844 47.7577V49.8852H28.2368V47.7547C28.2348 47.5226 28.1816 47.351 28.077 47.24C27.9744 47.1289 27.8136 47.0733 27.5946 47.0733C27.417 47.0733 27.2611 47.1209 27.1269 47.2161C26.9927 47.3114 26.8882 47.4363 26.8132 47.5911V49.8852H26.2656V45.3148H26.8132V47.0555Z" fill="#141414"/>
<path fill-rule="evenodd" clip-rule="evenodd" d="M31.6867 49.4393V49.7738C29.9871 50.0261 29.4962 49.718 29.3869 48.3246C29.1999 46.9932 30.2882 46.5705 31.0853 46.7906C31.7727 46.9804 31.9815 48.0628 31.358 48.4131C31.067 48.5765 30.6092 48.6358 29.8795 48.6033C29.989 49.3279 30.3175 49.6623 31.6867 49.4393ZM31.2218 47.9232C31.7007 46.9212 29.5826 46.7072 29.8795 48.2688H30.5534C30.8224 48.2688 31.1042 48.1694 31.2218 47.9232Z" fill="#141414"/>
<path fill-rule="evenodd" clip-rule="evenodd" d="M51.9122 49.4393V49.7738C50.2126 50.0261 49.7217 49.718 49.6124 48.3246C49.4254 46.9932 50.5137 46.5705 51.3108 46.7906C51.9982 46.9804 52.207 48.0628 51.5835 48.4131C51.2925 48.5765 50.8347 48.6358 50.105 48.6033C50.2145 49.3279 50.543 49.6623 51.9122 49.4393ZM51.4473 47.9232C51.9262 46.9212 49.8081 46.7072 50.105 48.2688H50.7789C51.0479 48.2688 51.3297 48.1694 51.4473 47.9232Z" fill="#141414"/>
<path d="M42.8564 45.5934H42.4183V49.3279C42.5278 49.718 42.687 49.9209 43.4587 49.8295V49.5508C43.0054 49.5216 42.9129 49.416 42.8564 49.1607V45.5934Z" fill="#141414"/>
<path d="M44.7108 49.8852C44.5048 49.8852 44.3069 49.849 44.117 49.7765C43.9303 49.6999 43.7839 49.6053 43.6777 49.4925L43.8322 49.1541C43.9384 49.2588 44.0719 49.3454 44.2329 49.4139C44.3938 49.4784 44.5611 49.5106 44.7349 49.5106C44.9666 49.5106 45.1372 49.4663 45.2466 49.3777C45.3593 49.285 45.4156 49.1561 45.4156 48.9909C45.4156 48.8741 45.385 48.7835 45.3239 48.719C45.2627 48.6505 45.1855 48.6002 45.0922 48.568C44.9988 48.5317 44.8749 48.4975 44.7204 48.4652C44.5145 48.4169 44.3487 48.3686 44.2232 48.3202C44.0977 48.2678 43.9899 48.1812 43.8997 48.0604C43.8129 47.9395 43.7694 47.7724 43.7694 47.5588C43.7694 47.293 43.8579 47.0754 44.0349 46.9062C44.2119 46.7371 44.4581 46.6525 44.7735 46.6525C44.9377 46.6525 45.1018 46.6807 45.266 46.7371C45.4301 46.7894 45.4331 46.7868 45.5393 46.8754V47.2656C45.3302 47.0843 45.0632 47.0211 44.7735 47.0211C44.5547 47.0211 44.3889 47.0694 44.2763 47.1661C44.1669 47.2628 44.1122 47.3897 44.1122 47.5468C44.1122 47.6676 44.1427 47.7643 44.2039 47.8368C44.2683 47.9093 44.3471 47.9637 44.4404 48C44.5338 48.0322 44.6625 48.0664 44.8266 48.1027C45.0294 48.151 45.1919 48.1994 45.3142 48.2477C45.4365 48.296 45.5411 48.3786 45.628 48.4954C45.7149 48.6123 45.7584 48.7734 45.7584 48.9789C45.7584 49.2568 45.665 49.4784 45.4784 49.6435C45.2949 49.8047 45.0391 49.8852 44.7108 49.8852Z" fill="#141414"/>
<path d="M47.6511 46.7906C47.8969 46.7906 48.1171 46.8531 48.3118 46.9781C48.5065 47.1031 48.6581 47.2777 48.7666 47.5019C48.8783 47.7262 48.9341 47.9853 48.9341 48.2794C48.9341 48.5735 48.8783 48.8345 48.7666 49.0624C48.6581 49.2867 48.5065 49.4613 48.3118 49.5863C48.1171 49.7113 47.8969 49.7738 47.6511 49.7738C47.4628 49.7738 47.2905 49.7315 47.1341 49.6469C46.9777 49.5624 46.8485 49.4392 46.7463 49.2775V49.7407H46.3059V45.6492H46.7655V47.2593C46.8676 47.1049 46.9953 46.9891 47.1485 46.9119C47.3017 46.831 47.4692 46.7906 47.6511 46.7906ZM47.6128 49.3106C47.7756 49.3106 47.9208 49.2683 48.0485 49.1838C48.1793 49.0955 48.2815 48.9742 48.3549 48.8198C48.4315 48.6617 48.4698 48.4816 48.4698 48.2794C48.4698 48.0772 48.4315 47.899 48.3549 47.7446C48.2815 47.5865 48.1793 47.4652 48.0485 47.3806C47.9208 47.2961 47.7756 47.2538 47.6128 47.2538C47.4533 47.2538 47.3081 47.2961 47.1772 47.3806C47.0463 47.4652 46.9442 47.5865 46.8708 47.7446C46.7974 47.899 46.7987 48.0667 46.7987 48.2689C46.7987 48.471 46.7974 48.6617 46.8708 48.8198C46.9442 48.9742 47.0463 49.0955 47.1772 49.1838C47.3081 49.2683 47.4533 49.3106 47.6128 49.3106Z" fill="#141414"/>
<path d="M69.6179 48.3763V46.7639H70.0695V49.8061H69.6179V49.3681C69.4379 49.7129 69.1576 49.8852 68.7769 49.8852C68.4724 49.8852 68.2284 49.7737 68.0449 49.5506C67.8615 49.3234 67.7698 49.0172 67.7698 48.6319V46.7639H68.2214V48.6014C68.2214 48.8448 68.2785 49.0355 68.3928 49.1734C68.507 49.3113 68.6644 49.3802 68.8652 49.3802C69.097 49.3802 69.2805 49.2971 69.4154 49.1308C69.5504 48.9604 69.6179 48.7089 69.6179 48.3763Z" fill="#141414"/>
<path d="M72.2026 46.7639C72.5214 46.7639 72.7931 46.9084 73.0178 47.1973C73.2425 47.4863 73.3548 47.8352 73.3548 48.2442C73.3548 48.657 73.2425 49.0078 73.0178 49.2968C72.7961 49.5819 72.5244 49.7245 72.2026 49.7245C71.8261 49.7245 71.5392 49.5388 71.3418 49.1673V50.7771H70.9456V46.8371H71.3418V47.3212C71.5392 46.9497 71.8261 46.7639 72.2026 46.7639ZM72.1525 49.2517C72.3802 49.2517 72.5715 49.156 72.7263 48.9647C72.8812 48.7658 72.9586 48.5257 72.9586 48.2442C72.9586 47.9591 72.8812 47.7208 72.7263 47.5294C72.5715 47.3343 72.3802 47.2367 72.1525 47.2367C71.9217 47.2367 71.7289 47.3343 71.5741 47.5294C71.4192 47.7208 71.3418 47.9591 71.3418 48.2442C71.3418 48.5257 71.4192 48.7658 71.5741 48.9647C71.7289 49.156 71.9217 49.2517 72.1525 49.2517Z" fill="#141414"/>
<path d="M36.8166 49.0953L36.9976 49.5016C36.8734 49.6539 36.7048 49.7745 36.4919 49.8634C36.2789 49.9523 36.0554 49.9967 35.8211 49.9967C35.2604 49.9967 34.8044 49.7894 34.453 49.3746C34.1052 48.9557 33.9313 48.4013 33.9313 47.7115C33.9313 47.0555 34.0981 46.5117 34.4317 46.0801C34.7689 45.6442 35.2214 45.4262 35.7892 45.4262C36.2647 45.4262 36.6427 45.5701 36.9231 45.8579L36.7155 46.2642C36.467 46.0441 36.16 45.9341 35.7945 45.9341C35.3899 45.9341 35.0581 46.0991 34.799 46.4292C34.54 46.7593 34.4104 47.1867 34.4104 47.7115C34.4104 48.2405 34.5435 48.67 34.8097 49.0001C35.0794 49.326 35.4307 49.4889 35.8637 49.4889C36.2292 49.4889 36.5469 49.3577 36.8166 49.0953Z" fill="#141414"/>
<path d="M61.5682 47.7115H61.9658V49.2845C61.8167 49.4703 61.6196 49.6169 61.3744 49.7242C61.1292 49.8316 60.8923 49.8852 60.6637 49.8852C60.1237 49.8852 59.6556 49.7325 59.3376 49.3279C59.0195 48.9233 58.8995 48.3328 58.8995 47.6557C58.8995 47.0199 59.0569 46.4894 59.3716 46.0641C59.6864 45.6389 60.0989 45.4262 60.6091 45.4262C61.053 45.4262 61.4175 45.5666 61.7024 45.8474L61.5185 46.2685C61.3131 46.0373 61.0265 45.9217 60.6588 45.9217C60.2678 45.9217 59.9514 46.0806 59.7096 46.3985C59.4677 46.7165 59.3468 47.1355 59.3468 47.6557C59.3468 48.1801 59.3695 48.6198 59.6113 48.9377C59.8565 49.2515 60.2761 49.5013 60.6737 49.5013C60.8393 49.5013 61.0067 49.4662 61.1756 49.396C61.3446 49.3217 61.4755 49.2288 61.5682 49.1173V47.7115Z" fill="#141414"/>
<path d="M61.566 48.4361H61.9603V49.7738H61.566V48.4361Z" fill="#141414"/>
<path d="M54.1906 48.2865C54.1906 47.8186 54.2938 47.4483 54.5 47.1757C54.7082 46.9012 54.99 46.7639 55.3455 46.7639C55.7525 46.7639 56.062 46.926 56.2738 47.2503L56.2904 46.8192H56.5998V49.7482C56.5998 50.1333 56.4921 50.4381 56.2766 50.6629C56.0611 50.8876 55.7691 51 55.4007 51C55.1926 51 54.9937 50.953 54.804 50.8591C54.6161 50.767 54.4678 50.6435 54.3591 50.4888L54.5443 50.2898C54.7782 50.5772 55.0563 50.7209 55.3786 50.7209C55.6549 50.7209 55.8704 50.6389 56.0252 50.475C56.1799 50.3129 56.26 50.0872 56.2655 49.798V49.4222C56.0537 49.7169 55.7452 49.8643 55.34 49.8643C54.9937 49.8643 54.7156 49.7261 54.5056 49.4498C54.2956 49.1735 54.1906 48.8005 54.1906 48.3307V48.2865ZM54.5249 48.3445C54.5249 48.7258 54.6014 49.027 54.7542 49.2481C54.9071 49.4673 55.1226 49.5769 55.4007 49.5769C55.8078 49.5769 56.0961 49.3946 56.2655 49.0298V47.6399C56.1882 47.4483 56.0767 47.3028 55.9312 47.2033C55.7857 47.102 55.6107 47.0513 55.4063 47.0513C55.1281 47.0513 54.9117 47.1609 54.757 47.3801C54.6023 47.5975 54.5249 47.919 54.5249 48.3445Z" fill="#141414"/>
</svg>
