<svg width="179" height="58" viewBox="0 0 179 58" fill="none" xmlns="http://www.w3.org/2000/svg">
<path d="M167.841 24.4437C167.516 24.4437 167.238 24.7296 167.238 25.0508V30.8029H159.997V25.0508C159.997 24.7296 159.712 24.4437 159.389 24.4437H157.407C157.087 24.4437 156.838 24.7296 156.838 25.0508V39.8277C156.838 40.1561 157.087 40.4389 157.407 40.4389H159.389C159.712 40.4389 159.997 40.1561 159.997 39.8277V33.6856H167.238V39.8277C167.238 40.1561 167.516 40.4389 167.841 40.4389H169.83C170.104 40.4389 170.387 40.1561 170.387 39.8277V25.0508C170.387 24.7296 170.104 24.4437 169.83 24.4437H167.841ZM152.477 17.8454C152.841 17.8454 153.121 18.129 153.121 18.4461V20.2757C153.121 20.5996 152.841 20.8843 152.477 20.8843H140.145C139.82 20.8843 139.543 20.5996 139.543 20.2757V18.4461C139.543 18.129 139.82 17.8454 140.145 17.8454H152.477ZM72.5611 17.8454C72.246 17.8454 71.9587 18.129 71.9587 18.4461V33.6852C71.9587 37.7695 73.2505 40.4819 78.348 40.4819H78.9546C86.2292 40.4819 87.324 35.665 87.324 33.1933C87.324 31.0036 86.5151 25.8176 79.2796 25.8176H75.2325V20.8843H84.5726C84.8987 20.8843 85.183 20.5996 85.183 20.2757V18.4461C85.183 18.129 84.8987 17.8454 84.5726 17.8454H72.5611ZM79.3954 28.8181C82.3522 28.8181 84.0073 30.433 84.0073 33.1933C84.0073 35.9467 82.3522 37.4487 79.3954 37.4487H78.3476C76.1276 37.4487 75.2317 36.5162 75.2317 34.0015V28.8181H79.3954ZM125.272 24.7296C125.069 24.8128 124.906 25.0508 124.906 25.2534V27.0812C124.906 27.2378 125.027 27.4465 125.143 27.5225C125.314 27.6058 125.473 27.6427 125.632 27.6058C126.722 27.2378 127.981 26.8736 130.037 26.8736C132.583 26.8736 133.035 27.6427 133.035 29.4609V29.7928L129.517 30.0372C123.85 30.433 123.57 34.1231 123.57 35.2575C123.57 38.6165 125.35 40.6788 129.598 40.6788C130.932 40.6788 132.427 40.2789 133.718 39.4642L134.004 40.0747C134.081 40.2789 134.285 40.4389 134.524 40.4389H135.705C135.989 40.4389 136.268 40.1953 136.268 39.8755V29.5047C136.268 25.7024 134.247 23.8769 130.037 23.8769C128.26 23.8765 126.524 24.205 125.272 24.7296ZM126.925 35.2575C126.925 34.1231 127.132 32.945 129.47 32.747L132.988 32.4204L133.035 36.6671C131.903 37.3582 131.01 37.7243 129.636 37.7243C128.295 37.7243 126.925 37.2004 126.925 35.2575ZM100.821 40.0747C100.897 40.2789 101.097 40.4389 101.336 40.4389H102.759C103.041 40.4389 103.32 40.1953 103.32 39.8755V25.0508C103.32 24.7296 103.079 24.4437 102.713 24.4437H100.774C100.412 24.4437 100.166 24.7296 100.166 25.0508V35.4605C99.1168 36.5945 97.2184 37.5593 95.7994 37.5593C93.8204 37.5593 92.8482 36.4709 92.8482 33.6852V25.0508C92.8482 24.7296 92.5608 24.4437 92.2393 24.4437H90.3033C89.9776 24.4437 89.6917 24.7296 89.6917 25.0508V34.693C89.6917 38.215 91.5955 40.6788 95.2763 40.6788C97.5422 40.6788 99.5234 39.4642 100.492 38.6165L100.821 40.0747ZM150.657 40.0747C150.734 40.2789 150.941 40.4389 151.187 40.4389H152.599C152.885 40.4389 153.16 40.1953 153.16 39.8638V25.0508C153.16 24.7296 152.922 24.4437 152.56 24.4437H150.621C150.252 24.4437 150.013 24.7296 150.013 25.0508V35.4605C148.964 36.5945 147.059 37.5593 145.639 37.5593C143.665 37.5593 142.691 36.4709 142.691 33.6852V25.0508C142.691 24.7296 142.406 24.4437 142.09 24.4437H140.145C139.82 24.4437 139.542 24.7296 139.542 25.0508V34.693C139.542 38.215 141.442 40.6788 145.118 40.6788C147.378 40.6788 149.371 39.4642 150.336 38.6165L150.657 40.0747ZM108.328 34.8123C108.123 36.9529 107.565 37.4852 105.742 37.6874C105.453 37.7243 105.177 38.0079 105.177 38.3302V39.952C105.177 40.2789 105.453 40.5606 105.742 40.5606C109.297 40.5606 111.078 38.8632 111.447 34.6553L111.808 30.8819C112.049 28.2543 112.575 27.4469 114.957 27.4469H117.581V39.8277C117.581 40.1561 117.871 40.4389 118.194 40.4389H120.132C120.414 40.4389 120.739 40.1561 120.739 39.8277V25.0508C120.739 24.7296 120.414 24.4437 120.132 24.4437H114.794C110.388 24.4437 109.101 26.9953 108.733 30.601L108.328 34.8123Z" fill="#141414"/>
<path d="M176.278 23.6146C177.723 23.6146 179 24.0693 179 26.2992C179 28.5079 177.723 28.9831 176.278 28.9831C174.835 28.9831 173.555 28.5075 173.555 26.2992C173.556 24.0696 174.835 23.6146 176.278 23.6146ZM176.278 24.0696C174.979 24.0696 174.051 24.3779 174.051 26.2996C174.051 28.2197 174.979 28.528 176.278 28.528C177.578 28.528 178.505 28.2197 178.505 26.2996C178.505 24.3776 177.578 24.0696 176.278 24.0696ZM175.68 27.6929V26.5889H176.465L177.04 27.7031C177.064 27.7487 177.124 27.7845 177.176 27.7845H177.526C177.577 27.7845 177.598 27.7503 177.574 27.705L176.919 26.5254C177.268 26.4019 177.392 26.1137 177.392 25.7203C177.392 25.1633 177.166 24.8105 176.402 24.8105H175.3C175.248 24.8105 175.205 24.8543 175.205 24.9041V27.6929C175.205 27.7438 175.248 27.7845 175.3 27.7845H175.589C175.64 27.7845 175.68 27.7442 175.68 27.6929ZM175.68 25.2664H176.465C176.876 25.2664 176.938 25.4732 176.938 25.7203C176.938 25.9054 176.876 26.1137 176.465 26.1137H175.68V25.2664Z" fill="#141414"/>
<path d="M57.3289 35.5213C57.8206 33.4 58.0806 31.1896 58.0806 28.9185C58.0806 26.8924 57.8737 24.9148 57.48 23.0056H0.599904C0.219906 24.848 0.013946 26.7541 0 28.706V29.1309C0.0156946 31.3275 0.274572 33.4662 0.751012 35.5213H57.3289Z" fill="#141414"/>
<path d="M50.9219 48.0389H7.15796C12.4815 54.1434 20.311 58 29.0399 58C37.7689 58 45.5984 54.1434 50.9219 48.0389Z" fill="#141414"/>
<path d="M6.57478 10.488H51.5051C46.794 4.73617 39.9234 0.826092 32.1338 0H25.9461C18.1565 0.826092 11.2859 4.73617 6.57478 10.488Z" fill="#141414"/>
</svg>
