<svg width="129" height="52" viewBox="0 0 129 52" fill="none" xmlns="http://www.w3.org/2000/svg">
<g clip-path="url(#clip0)">
<path fill-rule="evenodd" clip-rule="evenodd" d="M44.3514 51.8588V44.0595H66.5272V0.808594H22.1757V8.60794H0V51.8588H44.3514ZM7.8692 21.6713H14.7179V19.6408H5.28689V34.1331H10.972C12.5983 34.1198 13.8809 33.7018 14.82 32.879C15.7658 32.0561 16.2387 30.968 16.2387 29.6142C16.2387 28.7317 16.0278 27.9553 15.6059 27.2851C15.184 26.6149 14.5682 26.0973 13.7585 25.7323C12.9487 25.3675 11.9995 25.1849 10.9108 25.1849H7.8692V21.6713ZM7.8692 32.1224V27.2055H10.972C11.8158 27.2188 12.4758 27.4377 12.9521 27.8624C13.4285 28.2871 13.6666 28.8644 13.6666 29.5944C13.6666 30.3575 13.4217 30.9711 12.9317 31.4357C12.4486 31.8936 11.7716 32.1224 10.9006 32.1224H7.8692ZM38.7862 21.8486H34.1524V34.3103H31.5904V21.8486H26.9975V19.8181H38.7862V21.8486ZM51.0367 34.3103L52.2411 30.936H57.9977L59.2123 34.3103H61.9068L56.2829 19.8181H53.9661L48.3523 34.3103H51.0367ZM55.1194 22.8937L57.273 28.9056H52.9658L55.1194 22.8937Z" fill="#141414"/>
<path d="M85.6779 21.0365H78.5128V25.3763H82.2076C83.759 25.3962 84.9703 25.7843 85.8411 26.5409C86.7122 27.2972 87.1477 28.3257 87.1477 29.6264C87.1477 30.9335 86.7087 31.9754 85.831 32.7518C84.9532 33.528 83.7557 33.9295 82.2383 33.9561H76.543V19.4639H85.6779V21.0365ZM78.5128 26.9489V32.3934H82.0954C83.0684 32.3934 83.8237 32.1413 84.3612 31.637C84.9056 31.1326 85.1779 30.4558 85.1779 29.6064C85.1779 28.7903 84.9158 28.1467 84.3919 27.6755C83.8748 27.2044 83.1364 26.9622 82.177 26.9489H78.5128Z" fill="black"/>
<path d="M97.3797 30.1738H91.1536L89.7553 33.9561H87.7344L93.4094 19.4639H95.124L100.809 33.9561H98.7984L97.3797 30.1738ZM91.7456 28.6012H96.7979L94.2668 21.8228L91.7456 28.6012Z" fill="black"/>
<path d="M113.605 33.9561H111.635V27.2574H104.143V33.9561H102.184V19.4639H104.143V25.6948H111.635V19.4639H113.605V33.9561Z" fill="black"/>
<path d="M120.317 27.4465H118.51V33.9561H116.551V19.4639H118.51V25.854H120.041L125.237 19.4639H127.676L122.001 26.4911L128.094 33.9561H125.696L120.317 27.4465Z" fill="black"/>
</g>
<defs>
<clipPath id="clip0">
<rect width="128.147" height="51.0503" fill="white" transform="translate(0 0.808594)"/>
</clipPath>
</defs>
</svg>
