<svg width="170" height="47" viewBox="0 0 170 47" fill="none" xmlns="http://www.w3.org/2000/svg">
<path d="M81.6547 14.0539C81.6547 13.7854 81.4757 13.6959 81.2967 13.6959H75.6578C75.3892 13.6959 75.2102 13.8749 75.1207 14.0539L66.4386 35.804C66.2595 36.0726 66.5281 36.4306 66.7966 36.4306H71.8985C72.167 36.4306 72.346 36.2516 72.4355 35.9831L76.6423 23.2731L76.9108 35.9831C76.9108 36.2516 77.0899 36.4306 77.2689 36.4306H82.1022C82.3708 36.4306 82.7288 36.1621 82.7288 35.804L81.6547 14.0539ZM60.7101 27.6589H55.6082C55.3397 27.6589 55.2502 27.3904 55.3397 27.1219L56.0558 22.7361C56.0558 22.4675 56.3243 22.199 56.5033 22.199H61.6947C61.6947 22.1095 61.6947 22.02 61.6947 21.9305C61.6947 21.662 61.6947 21.483 61.6947 21.2144C61.6947 20.9459 61.6052 20.7669 61.5157 20.4984C61.4262 20.2299 61.3367 20.1404 61.2472 19.8718C61.1577 19.6928 60.9787 19.5138 60.9787 19.3348C60.7996 19.1558 60.7101 19.0663 60.5311 18.9768C60.3521 18.8873 60.1731 18.7083 59.9046 18.7083C59.636 18.6188 59.457 18.6188 59.1885 18.6188C58.92 18.6188 58.741 18.6188 58.4725 18.6188C58.2039 18.6188 58.0249 18.7083 57.7564 18.7083C57.4879 18.7978 57.3984 18.7978 57.1299 18.8873C56.8613 18.9768 56.7718 19.0663 56.5928 19.1558H56.5033C56.2348 19.2453 56.0558 19.0663 56.0558 18.7978L55.8768 14.949C55.7873 14.6805 55.9663 14.4119 56.1453 14.3224C56.3243 14.2329 56.5033 14.1434 56.7718 14.0539C57.0403 13.9644 57.2194 13.8749 57.4879 13.7854C57.7564 13.6959 58.0249 13.6064 58.2039 13.5169C58.383 13.4274 58.741 13.3379 59.0095 13.3379C59.278 13.2484 59.636 13.2483 59.9046 13.1588C60.1731 13.1588 60.5311 13.0693 60.8891 13.0693C61.4262 13.0693 61.9632 13.1588 62.4108 13.2484C62.8583 13.3379 63.3058 13.5169 63.6639 13.6064C64.0219 13.7854 64.3799 13.9644 64.7379 14.2329C65.0064 14.5014 65.3645 14.77 65.633 15.0385C65.9015 15.307 66.0805 15.665 66.3491 16.0231C66.6176 16.3811 66.7071 16.7391 66.8861 17.1866C67.0651 17.5447 67.1546 17.9027 67.1546 18.4397C67.2441 18.7978 67.3336 19.2453 67.4231 19.6928C67.5126 20.1404 67.5126 20.5879 67.5126 20.9459C67.5126 21.3935 67.5126 21.7515 67.5126 22.199C67.5126 22.6466 67.4231 23.0941 67.3336 23.5416C67.2441 23.9892 67.1546 24.3472 67.0651 24.7947V24.8842C66.8861 25.7793 66.7071 26.5849 66.4386 27.4799C66.17 28.2855 65.9015 29.091 65.5435 29.7176C65.1855 30.4336 64.8274 31.0602 64.3799 31.6867C63.9324 32.3133 63.5743 32.8503 63.0373 33.2979C62.5898 33.7454 62.0527 34.1929 61.5157 34.5509C60.9786 34.909 60.4416 35.267 59.8151 35.446C59.1885 35.7145 58.6515 35.8935 58.1144 35.9831C57.5774 36.4306 57.0404 36.4306 56.4138 36.4306C56.1453 36.4306 55.7873 36.4306 55.5187 36.3411C55.2502 36.3411 54.8922 36.2516 54.7132 36.2516C54.4447 36.1621 54.1761 36.1621 53.9971 36.0726C53.7286 35.9831 53.5496 35.8935 53.3706 35.804C53.1916 35.7145 53.0125 35.625 52.8335 35.5355C52.6545 35.446 52.565 35.3565 52.386 35.267C52.207 35.1775 52.1175 34.909 52.207 34.6405L53.8181 30.5231V30.4336C53.9971 30.1651 54.1761 30.0756 54.4447 30.1651C54.6237 30.2546 54.7132 30.3441 54.8922 30.4336C55.0712 30.5231 55.1607 30.5231 55.4292 30.6127C55.6082 30.7022 55.7873 30.7022 56.0558 30.7022C56.3243 30.7022 56.4138 30.7022 56.6823 30.7022C56.9508 30.7022 57.3984 30.7022 57.5774 30.6127C57.8459 30.5231 58.1144 30.4336 58.2934 30.3441C58.562 30.1651 58.741 30.0756 59.0095 29.9861C59.278 29.8071 59.3675 29.7176 59.5465 29.4491C59.7256 29.1805 59.8151 29.091 59.9941 28.8225C60.1731 28.554 60.2626 28.375 60.3521 28.1065C60.5311 27.8379 60.6206 27.5694 60.6206 27.3904L60.7101 27.6589ZM93.6486 22.02H97.9449C98.2134 22.02 98.3029 22.2885 98.2134 22.557L97.4974 26.6744C97.4974 26.9429 97.2289 27.2114 97.0499 27.2114H92.7535L92.0375 31.1497H96.8708C97.1394 31.1497 97.2289 31.4182 97.1394 31.6867L96.4233 35.9831C96.4233 36.2516 96.1548 36.5201 95.9758 36.5201H85.6825C85.414 36.5201 85.3245 36.2516 85.414 35.9831L89.2628 14.2329C89.2628 13.9644 89.5313 13.6959 89.7103 13.6959H99.7351C100.004 13.6959 100.093 13.9644 100.004 14.2329L99.2875 18.5292C99.2875 18.7978 99.019 19.0663 98.84 19.0663H94.2751L93.6486 22.02ZM117.815 36.4306H113.43C113.161 36.4306 113.072 36.1621 113.072 35.8936L113.877 29.091C113.967 28.733 114.056 28.196 114.056 27.6589L114.146 27.1219L114.235 26.4953L114.146 26.7639L113.788 27.7484L113.698 28.017C113.519 28.375 113.43 28.733 113.34 29.0015L110.655 35.625C110.565 35.8935 110.386 35.9831 110.207 35.9831H106.538C106.269 35.9831 106.18 35.804 106.18 35.625L105.911 29.0015V28.375V27.6589V26.9429V26.2268L105.643 27.2114L105.374 28.2855L105.105 29.1805L103.494 35.9831C103.405 36.2516 103.226 36.4306 103.047 36.4306H98.84H98.7505C98.482 36.3411 98.3925 36.1621 98.482 35.804L104.031 14.0539C104.121 13.7854 104.3 13.6064 104.479 13.6064H109.67C109.939 13.6064 110.028 13.7854 110.028 13.9644L110.207 20.9459C110.207 22.199 110.297 23.1836 110.297 24.0787V24.8842C110.297 25.2422 110.297 25.6898 110.297 26.1373C110.476 25.7793 110.565 25.3318 110.744 24.8842C111.013 24.2577 111.192 23.6311 111.46 22.9151C111.729 22.199 111.908 21.5725 112.176 20.9459L114.862 13.9644C114.951 13.6959 115.13 13.6064 115.309 13.6064H120.501C120.769 13.6064 120.859 13.8749 120.859 14.1434L118.352 35.8936C118.263 36.1621 118.084 36.4306 117.815 36.4306ZM129.451 22.02H133.748C134.016 22.02 134.106 22.2885 134.016 22.557L133.3 26.6744C133.3 26.9429 133.032 27.2114 132.853 27.2114H128.556L127.84 31.1497H132.674C132.942 31.1497 133.032 31.4182 132.942 31.6867L132.226 35.9831C132.226 36.2516 131.957 36.5201 131.778 36.5201H121.485C121.217 36.5201 121.127 36.2516 121.217 35.9831L125.065 14.2329C125.065 13.9644 125.334 13.6959 125.513 13.6959H135.538C135.806 13.6959 135.896 13.9644 135.806 14.2329L135.09 18.5292C135.09 18.7978 134.822 19.0663 134.643 19.0663H130.078L129.451 22.02ZM135.18 35.804L139.029 14.0539C139.029 13.7854 139.297 13.5169 139.476 13.5169H144.488C144.757 13.5169 144.846 13.7854 144.757 14.0539L143.504 22.1095H146.279L147.711 14.1434C147.711 13.8749 147.979 13.6064 148.158 13.6064H153.171C153.439 13.6064 153.529 13.8749 153.439 14.1434L149.59 35.8936C149.59 36.1621 149.322 36.4306 149.143 36.4306H144.13C143.862 36.4306 143.772 36.1621 143.862 35.8936L145.294 27.8379H142.519L141.087 35.9831C141.087 36.2516 140.819 36.5201 140.64 36.5201H135.627C135.359 36.3411 135.18 36.1621 135.18 35.804ZM160.958 36.4306H155.945C155.677 36.4306 155.587 36.1621 155.677 35.8936L158.63 19.3348H155.319C155.05 19.3348 154.961 19.0663 155.05 18.7978L155.856 14.1434C155.856 13.8749 156.124 13.6064 156.303 13.6064H168.834C169.103 13.6064 169.192 13.8749 169.103 14.1434L168.297 18.7978C168.297 19.0663 168.029 19.3348 167.85 19.3348H164.448L161.495 35.8936C161.405 36.1621 161.137 36.4306 160.958 36.4306Z" fill="#141414"/>
<path fill-rule="evenodd" clip-rule="evenodd" d="M20.9681 46.3645C8.16863 46.3645 -1.14007 36.0712 0.113026 23.1822C1.45563 10.2933 12.7335 0 25.6224 0H50.6843L46.567 23.1822C44.2398 35.8922 33.7676 46.3645 20.9681 46.3645ZM26.6056 14.2312L25.8895 16.9164C27.7692 16.9164 29.9173 17.9009 31.1704 19.0645C32.6921 20.7652 33.1396 23.0923 32.6921 25.9565C31.439 33.2066 25.5315 36.5183 18.908 36.3393H18.6395H18.371H17.8339H13.8061L14.9697 29.9843H18.9975H20.3401H20.5191C22.8463 29.9843 24.3679 28.7313 24.726 26.5831C25.263 22.9133 21.7722 22.4658 19.087 22.8238C18.908 22.8238 18.729 22.8238 18.6395 22.6448C18.55 22.5553 18.4605 22.3763 18.55 22.1973L21.2352 7.78668C21.3247 7.51816 21.6827 7.24964 21.9513 7.24964H36.8989L35.6458 14.2312H26.6056Z" fill="#141414"/>
</svg>
