<svg width="116" height="20" viewBox="0 0 116 20" fill="none" xmlns="http://www.w3.org/2000/svg">
<path fill-rule="evenodd" clip-rule="evenodd" d="M22.9759 19.2138H5.26532C5.26532 19.1399 5.21961 19.1573 5.15645 19.1815C5.11741 19.1964 5.0717 19.2138 5.02599 19.2138C4.82656 19.1739 4.62713 19.1473 4.42769 19.1207H4.42767C4.02878 19.0676 3.62989 19.0144 3.231 18.8548C2.15401 18.4958 1.19666 17.8975 0.598331 16.8205C0.478728 16.5813 0.359141 16.2225 0.239538 15.8637L0.239347 15.8631C0.179514 15.6836 0.149594 15.5341 0.119673 15.3845C0.0897532 15.2349 0.059833 15.0853 0 14.9058V4.85389C0.119666 4.73422 0.119673 4.4949 0.119673 4.37523C0.359006 2.81957 1.19668 1.62289 2.63267 1.02456C3.59 0.665557 4.66698 0.545898 5.74398 0.545898H5.98331H22.3776H22.7366C22.9759 0.545898 23.0956 0.66555 23.0956 0.904882V4.13588C23.0956 4.49487 22.9759 4.49487 22.7366 4.49487H22.7366H22.4972H17.1123H6.58164C5.86364 4.49487 5.62432 4.73422 5.62432 5.45222V14.1878C5.62432 14.7862 5.86365 15.1452 6.46198 15.1452H17.3516C17.4713 15.1452 17.5909 15.1452 17.5909 14.9058V12.0339C17.5909 11.7945 17.5909 11.7945 17.3516 11.7945H12.4453H9.09463C8.61597 11.7945 8.4963 11.7945 8.4963 11.1962V8.20452V8.20451C8.4963 7.96519 8.4963 7.84553 8.55613 7.7857C8.61596 7.72587 8.73562 7.72587 8.97494 7.72587H8.97496H22.4972C22.9759 7.72587 22.9759 7.84553 22.9759 8.20452V12.9912V18.6155C23.2152 18.8548 23.2152 19.0942 22.9759 19.2138ZM70.8418 19.2138H55.5246H55.4049C54.8065 19.2138 54.2082 19.0941 53.4902 18.8548C51.9346 18.4958 51.0969 17.4188 50.6182 15.9828C50.4986 15.5042 50.3789 14.9058 50.3789 14.3075V5.33254C50.3789 4.61455 50.4986 3.89654 50.7379 3.2982C51.2166 2.22121 51.9346 1.38355 53.1312 1.02456C54.0886 0.665557 55.0459 0.545898 56.1229 0.545898H56.3622H70.3631H70.7221C71.0811 0.545898 71.0811 0.66555 71.0811 0.904882V4.01621C71.0811 4.37521 70.9615 4.49487 70.6025 4.49487H70.3631H57.0802H56.7212C56.1229 4.61453 55.8836 4.73421 55.8836 5.33254V7.36688C55.8836 7.48655 55.8836 7.54637 55.9135 7.57629C55.9434 7.60619 56.0032 7.60619 56.1228 7.60619H56.1229H62.4652H70.0041C70.4828 7.60619 70.6025 7.60619 70.6025 8.20452V10.9569C70.6025 11.3159 70.6025 11.4954 70.5127 11.5851C70.423 11.6748 70.2435 11.6748 69.8846 11.6748H69.8845H56.1229H55.8836C55.7639 11.6748 55.7639 11.6748 55.7639 11.7945V14.3075C55.7639 14.6665 55.8835 14.7862 56.2425 14.9058C56.3622 14.9058 56.452 14.9358 56.5417 14.9657C56.6315 14.9956 56.7212 15.0255 56.8409 15.0255H70.1238H70.4828C70.8418 15.0255 70.8418 15.1452 70.8418 15.3845V18.6155C71.0812 18.9745 70.9615 19.0942 70.8418 19.2138ZM31.8307 19.2138H47.1479C47.3348 19.1204 47.3758 19.027 47.4417 18.8766C47.4602 18.8343 47.4807 18.7876 47.5069 18.7352V15.5042C47.5069 15.1452 47.3873 15.0255 47.0283 15.0255H46.6693H33.3863H33.0273C32.5487 15.0255 32.3093 14.7862 32.3093 14.3075V11.9142C32.3093 11.7945 32.3093 11.7945 32.429 11.7945H32.6683H46.3103C47.0283 11.7945 47.0283 11.6748 47.0283 11.0765V8.3242C47.0283 8.02503 47.0283 7.87545 46.9535 7.80066C46.8787 7.72587 46.7291 7.72587 46.4299 7.72587H32.6683C32.5786 7.72587 32.5113 7.73334 32.4608 7.73895C32.3093 7.75578 32.3093 7.75578 32.3093 7.48652V5.57189C32.3093 4.85389 32.5487 4.61454 33.2667 4.61454H46.6693C47.3872 4.61454 47.3873 4.49487 47.3873 3.89654V1.02456C47.3873 0.665557 47.3873 0.545898 47.0283 0.545898H46.6693H32.788H32.5487C31.5913 0.545898 30.5143 0.665557 29.557 1.02456C28.0014 1.62289 27.1637 2.81957 26.9243 4.37523C26.8047 4.73419 26.8047 5.2128 26.8047 5.57179V5.57189V14.3075C26.8047 15.1452 27.044 15.8632 27.2833 16.5812C27.762 17.7778 28.7193 18.4958 29.916 18.8548C30.5143 19.0941 31.1127 19.2138 31.711 19.2138C31.711 19.2138 31.8307 19.0942 31.8307 19.2138ZM98.7248 19.2138C98.4855 19.0942 98.4855 18.8548 98.4855 18.6155V13.1108C98.4855 12.9912 98.4855 12.8715 98.3658 12.7519L94.7758 8.80286C93.8185 7.84553 92.9808 6.8882 92.1432 5.93087C91.6645 5.45221 91.2158 4.94363 90.767 4.43505C90.3183 3.92647 89.8695 3.41789 89.3909 2.93922C89.1515 2.64005 88.8823 2.3708 88.613 2.10155C88.3438 1.83231 88.0745 1.56306 87.8352 1.2639C87.7895 1.21819 87.7612 1.17248 87.7371 1.13343V1.13342C87.6981 1.07026 87.6698 1.02456 87.5959 1.02456C87.4762 0.785223 87.4762 0.665565 87.8352 0.545898H89.3909H93.2202C93.9382 0.545898 94.4168 1.02455 94.8955 1.50321C95.3742 1.98188 95.8229 2.49046 96.2716 2.99904C96.7204 3.50762 97.1692 4.0162 97.6478 4.49487C98.7245 5.57152 99.8011 6.7678 100.878 7.96409L100.879 7.96521L101.357 8.44387C101.417 8.5037 101.447 8.53362 101.477 8.53362C101.507 8.53362 101.537 8.5037 101.597 8.44387C101.836 8.14471 102.105 7.87546 102.375 7.60621C102.644 7.33696 102.913 7.06772 103.152 6.76855L103.153 6.76835C104.11 5.69142 105.067 4.6145 106.144 3.65723C106.503 3.29823 106.862 2.90931 107.221 2.5204C107.58 2.13149 107.939 1.74257 108.298 1.38358C108.657 0.904911 109.255 0.665572 109.854 0.665572H109.973H115.119H115.239C115.535 0.566901 115.505 0.793658 115.486 0.943348V0.943374L115.486 0.943475C115.482 0.975275 115.478 1.00359 115.478 1.02456C115.358 1.26389 115.119 1.50323 114.88 1.74256C114.76 1.92206 114.61 2.07164 114.461 2.22122C114.311 2.3708 114.162 2.52038 114.042 2.69987C113.563 3.17848 113.115 3.68699 112.666 4.1955L112.666 4.1957L112.666 4.19591C112.217 4.70442 111.768 5.21293 111.29 5.69153C110.811 6.1702 110.362 6.67879 109.914 7.18738C109.465 7.69595 109.016 8.20453 108.537 8.68318C108.151 9.07003 107.783 9.47642 107.42 9.87866C106.884 10.4719 106.356 11.056 105.785 11.5552C105.546 11.7945 105.336 12.0339 105.127 12.2732C104.918 12.5125 104.708 12.7518 104.469 12.9912C104.349 13.1108 104.349 13.1109 104.349 13.2305V14.3075V18.8548C104.349 19.0941 104.349 19.3335 104.11 19.4531C102.076 19.2138 100.4 19.2138 98.7253 19.2138H98.7248ZM78.1422 19.0936C78.5012 19.0936 78.8602 19.0936 79.2192 19.2133C84.2452 19.2133 89.3908 19.2133 94.1775 19.333C94.4168 19.2133 94.5364 19.0936 94.5364 18.8543V15.9823C94.5364 15.2643 94.5365 15.2643 93.8185 15.2643H81.2535H80.6552C80.2962 15.1446 80.0569 14.9053 80.0569 14.5463V14.0676V1.38304V1.02402C80.0569 0.784691 79.9372 0.665039 79.6979 0.665039H75.0309C74.7915 0.665039 74.6719 0.784691 74.6719 1.02402V1.38304V13.589V13.5891C74.6719 14.307 74.6719 14.9053 74.7915 15.5036C74.9112 16.2216 75.0309 16.9396 75.5095 17.538C76.1079 18.4953 77.0652 18.8543 78.1422 19.0936Z" fill="#141414"/>
</svg>
