<svg width="89" height="53" viewBox="0 0 89 53" fill="none" xmlns="http://www.w3.org/2000/svg">
<path d="M88.5649 0.916992H0.972656V52.9086H88.5649V0.916992Z" fill="#141414"/>
<path d="M6.35938 46.2791V48.2707H72.0989V7.75708L81.6902 11.5045V48.2707H83.453V10.1156L72.0989 5.58203L54.4457 9.93214V46.1743L6.35938 46.2791Z" fill="white"/>
<path d="M6.69922 23.0877V15.1475H8.28049V18.2921H11.3912V15.1475H12.9725V23.0877H11.3912V19.6286H8.28049V23.0877H6.69922Z" fill="white"/>
<path d="M14.3203 19.1833C14.3203 18.3709 14.4499 17.6896 14.6832 17.1392C14.8647 16.7462 15.098 16.3793 15.4091 16.0386C15.7201 15.7241 16.0571 15.4883 16.42 15.3311C16.9126 15.1214 17.4829 15.0166 18.105 15.0166C19.2715 15.0166 20.1788 15.3835 20.8787 16.1172C21.5786 16.851 21.9156 17.8468 21.9156 19.1571C21.9156 20.4411 21.5786 21.4369 20.8787 22.1707C20.1788 22.9044 19.2715 23.2451 18.105 23.2451C16.9385 23.2451 16.0053 22.8782 15.3313 22.1707C14.6573 21.4631 14.3203 20.4411 14.3203 19.1833ZM15.9534 19.1309C15.9534 20.0218 16.1608 20.7032 16.5756 21.1749C16.9903 21.6466 17.5088 21.8824 18.1309 21.8824C18.7531 21.8824 19.2715 21.6466 19.6863 21.2011C20.101 20.7294 20.2825 20.048 20.2825 19.1309C20.2825 18.2137 20.0751 17.5323 19.6863 17.0868C19.2974 16.6413 18.779 16.4055 18.105 16.4055C17.4569 16.4055 16.9126 16.6413 16.5237 17.0868C16.1349 17.5323 15.9534 18.2137 15.9534 19.1309Z" fill="white"/>
<path d="M23.1367 23.0877V15.1475H25.5216L26.9473 20.572L28.3471 15.1475H30.732V23.0877H29.2544V16.8246L27.6991 23.0877H26.1696L24.6143 16.8246V23.0877H23.1367Z" fill="white"/>
<path d="M32.3125 23.0867V15.1465H38.1451V16.483H33.9197V18.2387H37.8599V19.5752H33.9197V21.724H38.3006V23.0605H32.3125V23.0867Z" fill="white"/>
<path d="M11.7296 30.7662L13.2591 31.2641C13.0258 32.1288 12.6369 32.784 12.0925 33.2033C11.5482 33.6225 10.8483 33.8322 10.0187 33.8322C8.98183 33.8322 8.12638 33.4653 7.45239 32.7578C6.7784 32.0502 6.44141 31.0544 6.44141 29.7965C6.44141 28.4863 6.7784 27.4381 7.45239 26.7305C8.12638 26.023 9.00775 25.6299 10.1224 25.6299C11.0816 25.6299 11.8592 25.9181 12.4555 26.4947C12.8184 26.8353 13.0776 27.3332 13.2591 27.9622L11.6778 28.329C11.5741 27.9098 11.3926 27.5953 11.1075 27.3594C10.8223 27.1236 10.4594 26.9926 10.0447 26.9926C9.47436 26.9926 8.98183 27.2022 8.61891 27.6215C8.25599 28.0408 8.07454 28.7221 8.07454 29.6655C8.07454 30.6613 8.25599 31.3951 8.61891 31.8144C8.98183 32.2337 9.44844 32.4433 10.0187 32.4433C10.4335 32.4433 10.7964 32.3123 11.1075 32.024C11.3926 31.762 11.6 31.3427 11.7296 30.7662Z" fill="white"/>
<path d="M14.6328 33.6747V25.7344H17.9768C18.8064 25.7344 19.4285 25.813 19.8173 25.944C20.2062 26.0751 20.4913 26.3371 20.7246 26.704C20.9579 27.0709 21.0616 27.4902 21.0616 27.9619C21.0616 28.5646 20.8802 29.0625 20.5432 29.4294C20.2062 29.8225 19.6877 30.0583 18.9878 30.1631C19.3248 30.3728 19.61 30.5824 19.8433 30.8183C20.0766 31.0541 20.3617 31.4996 20.7506 32.1024L21.7097 33.6485H19.8173L18.6767 31.9189C18.262 31.29 18.0028 30.9231 17.8472 30.7397C17.6917 30.5562 17.5361 30.4776 17.3806 30.399C17.2251 30.3466 16.9399 30.3204 16.577 30.3204H16.2141V33.6223H14.6328V33.6747ZM16.2141 29.0887H17.3806C18.1324 29.0887 18.6249 29.0625 18.8064 28.9839C18.9878 28.9315 19.1434 28.8004 19.247 28.6432C19.3507 28.486 19.4026 28.2763 19.4026 28.0405C19.4026 27.7784 19.3248 27.5688 19.1952 27.3853C19.0656 27.2281 18.8582 27.1233 18.599 27.0709C18.4694 27.0447 18.0805 27.0447 17.4325 27.0447H16.2141V29.0887Z" fill="white"/>
<path d="M22.5664 33.6747V25.7344H28.3989V27.0709H24.1736V28.8266H28.1138V30.1631H24.1736V32.312H28.5545V33.6485H22.5664V33.6747Z" fill="white"/>
<path d="M29.875 25.7344H32.7783C33.4264 25.7344 33.9189 25.7868 34.2818 25.8916C34.7484 26.0226 35.1373 26.2847 35.4742 26.6254C35.8112 26.966 36.0445 27.4115 36.226 27.9095C36.4075 28.4074 36.4852 29.0363 36.4852 29.7963C36.4852 30.4514 36.4075 31.0017 36.2519 31.4734C36.0445 32.0499 35.7853 32.5216 35.4224 32.8885C35.1373 33.1506 34.7743 33.3602 34.3077 33.5175C33.9448 33.6223 33.4782 33.6747 32.9079 33.6747H29.9268V25.7344H29.875ZM31.4563 27.0971V32.3644H32.6487C33.0894 32.3644 33.4005 32.3382 33.6078 32.2858C33.8671 32.2334 34.0744 32.1024 34.2559 31.9451C34.4374 31.7879 34.567 31.5258 34.6707 31.1852C34.7743 30.8183 34.8262 30.3466 34.8262 29.7438C34.8262 29.1411 34.7743 28.6694 34.6707 28.3287C34.567 27.9881 34.4114 27.7522 34.23 27.5688C34.0485 27.3853 33.7893 27.2543 33.5041 27.2019C33.2708 27.1495 32.8561 27.1233 32.208 27.1233H31.4563V27.0971Z" fill="white"/>
<path d="M37.7539 33.6747V25.7344H39.3352V33.6747H37.7539Z" fill="white"/>
<path d="M42.6025 33.6747V27.0709H40.2695V25.7344H46.5168V27.0709H44.1838V33.6747H42.6025Z" fill="white"/>
<path d="M6.69922 35.876H9.83586C10.458 35.876 10.9246 35.9022 11.2357 35.9546C11.5468 36.007 11.806 36.1118 12.0652 36.2953C12.2985 36.4525 12.5059 36.6883 12.6614 36.9504C12.817 37.2387 12.8947 37.5269 12.8947 37.8676C12.8947 38.2345 12.791 38.5751 12.6096 38.8896C12.4022 39.2041 12.143 39.4399 11.806 39.5971C12.2726 39.7282 12.6614 39.9902 12.9207 40.3047C13.1799 40.6454 13.3095 41.0384 13.3095 41.5101C13.3095 41.877 13.2317 42.2177 13.0503 42.5584C12.8947 42.899 12.6614 43.1611 12.3763 43.3707C12.0911 43.5804 11.7282 43.7114 11.3135 43.7376C11.0542 43.7638 10.4062 43.79 9.39517 43.79H6.72514V35.876H6.69922ZM8.30642 37.1862V39.0206H9.34333C9.96547 39.0206 10.3543 39.0206 10.4839 38.9944C10.7432 38.9682 10.9765 38.8634 11.132 38.7062C11.2875 38.5489 11.3653 38.3393 11.3653 38.0772C11.3653 37.8414 11.2875 37.6317 11.1579 37.4745C11.0283 37.3173 10.8209 37.2387 10.5617 37.1862C10.4062 37.16 9.96547 37.16 9.21372 37.16H8.30642V37.1862ZM8.30642 40.3571V42.4797H9.78401C10.3543 42.4797 10.7172 42.4535 10.8728 42.4273C11.1061 42.3749 11.2875 42.2701 11.4431 42.1129C11.5986 41.9556 11.6764 41.7198 11.6764 41.4315C11.6764 41.1957 11.6245 40.986 11.4949 40.8288C11.3912 40.6716 11.2098 40.5405 11.0024 40.4619C10.795 40.3833 10.3284 40.3571 9.60256 40.3571H8.30642Z" fill="white"/>
<path d="M21.7086 43.8162H19.9718L19.2978 42.008H16.1612L15.5131 43.8162H13.8281L16.887 35.876H18.5719L21.7086 43.8162ZM18.8053 40.6716L17.7165 37.7366L16.6537 40.6716H18.8053Z" fill="white"/>
<path d="M22.5664 43.8162V35.876H24.1217L27.3361 41.1695V35.876H28.8137V43.8162H27.2324L24.0699 38.6275V43.8162H22.5664Z" fill="white"/>
<path d="M30.4961 43.8162V35.876H32.0774V39.4137L35.2917 35.876H37.4174L34.4622 38.9682L37.5729 43.8162H35.525L33.3735 40.0951L32.0774 41.4315V43.8424H30.4961V43.8162Z" fill="white"/>
</svg>
