<svg width="122" height="68" viewBox="0 0 122 68" fill="none" xmlns="http://www.w3.org/2000/svg">
<path d="M12.2129 49.6367V56.3011H4.65951V49.6367H0.496094V67.1241H4.65951V60.093H12.2129V67.1241H16.3763V49.6367H12.2129Z" fill="#141414"/>
<path d="M31.627 49.6367L27.2727 56.5623L22.9235 49.6367H18.0117L25.1985 61.0673V67.1241H29.3569V61.0673L36.5437 49.6367H31.627Z" fill="#141414"/>
<path d="M49.9316 49.6367V62.4534C49.9316 62.9405 49.565 63.3323 49.0477 63.3323H42.3782V49.6367H38.2148V67.1241H50.5142C51.609 67.1241 52.4879 66.7974 53.1308 66.1597C53.7686 65.5168 54.09 64.638 54.09 63.5482V49.6367H49.9316Z" fill="#141414"/>
<path d="M70.2447 49.6367H57.9453V67.1241H62.1037V53.4234H68.7832C69.3206 53.4234 69.6621 53.8453 69.6621 54.2973V67.1241H73.8205V53.2126C73.8205 52.1177 73.494 51.2388 72.8613 50.601C72.2134 49.9582 71.3396 49.6367 70.2447 49.6367Z" fill="#141414"/>
<path d="M89.9752 49.6367H77.6758V67.1241H89.9752C91.07 67.1241 91.9439 66.7974 92.5817 66.1597C93.2246 65.5168 93.5459 64.638 93.5459 63.5482V53.2126C93.5459 52.1177 93.2245 51.2388 92.5817 50.601C91.9439 49.9582 91.065 49.6367 89.9752 49.6367ZM89.3876 54.3274V62.4283C89.3876 62.9003 89.0461 63.3323 88.5037 63.3323H81.8292V53.4234H88.4735C89.021 53.4234 89.3876 53.8051 89.3876 54.3274Z" fill="#141414"/>
<path d="M100.801 49.6357C99.7115 49.6357 98.8276 49.9572 98.1897 50.6C97.5469 51.2429 97.2305 52.1218 97.2305 53.2116V67.1231H101.379V61.7141H108.937V67.1231H113.096V49.6357H100.801ZM108.937 53.4225V57.9274H101.379V54.3114C101.379 53.8795 101.715 53.4225 102.268 53.4225H108.937Z" fill="#141414"/>
<path d="M117.145 67.1231H121.308V49.6357H117.145V67.1231Z" fill="#141414"/>
<path d="M58.4412 37.518C78.4125 37.518 94.6049 29.3149 94.6049 19.2008C94.6049 9.07917 78.4125 0.875977 58.4412 0.875977C38.4775 0.875977 22.2852 9.07917 22.2852 19.2008C22.2852 29.3149 38.4775 37.518 58.4412 37.518ZM65.251 28.5294C64.6479 29.9116 63.6097 32.8649 61.2277 34.0433C60.5025 34.3985 59.6092 34.5647 58.8152 34.5948C58.6319 34.5948 58.5023 34.5948 58.4485 34.5948C51.7762 34.5948 45.5619 33.6731 40.3629 32.1096C40.3241 32.0931 40.2028 32.0493 40.1646 32.034C39.6837 31.8756 39.4393 31.6563 39.4393 31.3844C39.4393 31.1504 39.569 30.969 39.7368 30.8028C39.8133 30.7349 39.9202 30.6444 40.0653 30.5156C41.2715 29.5261 44.8826 26.9353 51.6924 24.352C54.0819 23.4531 57.0745 22.3277 60.2046 21.6705C62.0368 21.2928 68.8466 20.2579 65.2509 28.529L65.251 28.5294ZM83.5198 10.0608C83.6494 9.84157 83.8178 9.65296 84.1305 9.63761C84.2983 9.62116 84.5277 9.65952 84.8787 9.87932C89.1233 12.4626 91.6426 15.6955 91.6426 19.1928C91.6426 25.5075 83.4358 30.9384 71.6942 33.3101C70.9461 33.4614 70.4422 33.4538 70.2743 33.2663C70.1524 33.1529 70.1219 32.949 70.2743 32.6999C70.343 32.5716 70.4271 32.4581 70.5872 32.269C76.9771 24.8137 81.8478 13.8158 83.2296 10.6433C83.3365 10.424 83.4358 10.2054 83.52 10.0618L83.5198 10.0608ZM51.746 9.8278C52.3491 8.44552 53.3873 5.49197 55.7693 4.32121C56.4945 3.96602 57.3877 3.79234 58.1817 3.76987C58.365 3.76439 58.4947 3.76987 58.5407 3.76987C65.2207 3.76987 71.4274 4.68382 76.634 6.25493C76.6727 6.27138 76.794 6.3152 76.8323 6.33054C77.3131 6.48895 77.5575 6.70815 77.5575 6.98008C77.5575 7.21413 77.4279 7.38793 77.26 7.55417C77.1836 7.62982 77.0767 7.72025 76.9315 7.84139C75.7329 8.83844 72.1143 11.4217 65.3045 14.005C62.9073 14.9114 59.9223 16.0293 56.7999 16.6865C54.96 17.0718 48.1502 18.099 51.746 9.82797V9.8278ZM45.188 5.0768C45.9439 4.93319 46.4401 4.93317 46.6233 5.12063C46.7303 5.24122 46.7607 5.43801 46.6178 5.6872C46.5413 5.81546 46.4577 5.93665 46.3048 6.11041C39.9149 13.5732 35.0443 24.5634 33.6548 27.7435C33.5556 27.9628 33.4487 28.1815 33.3645 28.3251C33.2421 28.5444 33.067 28.733 32.7614 28.7483C32.5935 28.7648 32.3569 28.7155 32.0056 28.5066C27.7609 25.9233 25.2416 22.6904 25.2416 19.1931C25.2416 12.8784 33.4484 7.44757 45.19 5.0758" fill="#141414"/>
</svg>
