<svg width="183" height="29" viewBox="0 0 183 29" fill="none" xmlns="http://www.w3.org/2000/svg">
<circle cx="6.72192" cy="6.98462" r="6.15551" fill="#141414"/>
<circle cx="21.7219" cy="6.98462" r="6.15551" fill="#141414"/>
<circle cx="6.72192" cy="22.3733" r="6.15551" fill="#141414"/>
<circle cx="21.7219" cy="22.3733" r="6.15551" fill="#141414"/>
<path d="M38.0601 28.5299H33.5156V2.27278H38.0601V28.5299Z" fill="#141414"/>
<path d="M42.055 18.6294C42.055 15.6238 42.7523 13.2132 44.1469 11.3978C45.5415 9.57043 47.411 8.65672 49.7554 8.65672C51.8232 8.65672 53.4944 9.37807 54.7687 10.8208V0.830078H59.1509V28.5299H55.1835L54.9671 26.5101C53.6567 28.0971 51.9074 28.8906 49.7193 28.8906C47.435 28.8906 45.5836 27.9708 44.1649 26.1314C42.7583 24.292 42.055 21.7913 42.055 18.6294ZM46.4372 19.0081C46.4372 20.9918 46.8159 22.5427 47.5733 23.6608C48.3427 24.7669 49.4308 25.3199 50.8374 25.3199C52.6287 25.3199 53.9392 24.5204 54.7687 22.9214V14.5898C53.9632 13.0269 52.6648 12.2454 50.8735 12.2454C49.4548 12.2454 48.3608 12.8105 47.5913 13.9406C46.8219 15.0587 46.4372 16.7479 46.4372 19.0081Z" fill="#141414"/>
<path d="M71.9462 28.8906C69.169 28.8906 66.9148 28.0189 65.1836 26.2757C63.4644 24.5204 62.6048 22.188 62.6048 19.2786V18.7376C62.6048 16.7899 62.9775 15.0527 63.7228 13.5258C64.4803 11.9869 65.5382 10.7907 66.8968 9.93711C68.2553 9.08352 69.7702 8.65672 71.4413 8.65672C74.0983 8.65672 76.1481 9.5043 77.5908 11.1995C79.0455 12.8946 79.7729 15.2931 79.7729 18.3949V20.1622H67.023C67.1553 21.7733 67.6903 23.0476 68.628 23.9854C69.5778 24.9231 70.768 25.392 72.1987 25.392C74.2065 25.392 75.8415 24.5805 77.1039 22.9575L79.4663 25.2117C78.6848 26.3779 77.6389 27.2856 76.3284 27.9348C75.03 28.572 73.5693 28.8906 71.9462 28.8906ZM71.4233 12.1733C70.221 12.1733 69.2472 12.5941 68.5018 13.4357C67.7684 14.2772 67.2995 15.4494 67.0952 16.9522H75.4448V16.6276C75.3486 15.1609 74.9579 14.0548 74.2726 13.3094C73.5873 12.552 72.6375 12.1733 71.4233 12.1733Z" fill="#141414"/>
<path d="M94.4797 28.5299C94.2874 28.1572 94.1191 27.5501 93.9748 26.7085C92.5802 28.1632 90.873 28.8906 88.8532 28.8906C86.8935 28.8906 85.2946 28.3315 84.0562 27.2134C82.8179 26.0953 82.1988 24.7128 82.1988 23.0657C82.1988 20.9858 82.9682 19.3928 84.5071 18.2867C86.058 17.1686 88.2701 16.6096 91.1435 16.6096H93.8305V15.3292C93.8305 14.3193 93.548 13.5138 92.9829 12.9127C92.4179 12.2995 91.5583 11.993 90.4041 11.993C89.4062 11.993 88.5887 12.2454 87.9515 12.7504C87.3143 13.2433 86.9957 13.8745 86.9957 14.6439H82.6135C82.6135 13.5739 82.9682 12.5761 83.6775 11.6503C84.3869 10.7126 85.3487 9.97919 86.5629 9.4502C87.7892 8.92121 89.1538 8.65672 90.6566 8.65672C92.9409 8.65672 94.7623 9.2338 96.1208 10.388C97.4793 11.5301 98.1767 13.1411 98.2127 15.221V24.0215C98.2127 25.7767 98.4592 27.1774 98.9521 28.2233V28.5299H94.4797ZM89.6647 25.374C90.5303 25.374 91.3419 25.1636 92.0993 24.7428C92.8687 24.322 93.4458 23.757 93.8305 23.0476V19.3688H91.4681C89.8451 19.3688 88.6248 19.6513 87.8073 20.2163C86.9897 20.7814 86.581 21.5809 86.581 22.6148C86.581 23.4564 86.8575 24.1297 87.4105 24.6346C87.9756 25.1275 88.727 25.374 89.6647 25.374Z" fill="#141414"/>
<path d="M102.857 28.5299V2.27278H111.856C114.825 2.27278 117.085 2.86789 118.636 4.05812C120.187 5.24834 120.963 7.02166 120.963 9.37807C120.963 10.5803 120.638 11.6623 119.989 12.6241C119.34 13.5859 118.39 14.3313 117.139 14.8603C118.558 15.245 119.652 15.9724 120.422 17.0424C121.203 18.1004 121.594 19.3748 121.594 20.8656C121.594 23.3302 120.8 25.2237 119.213 26.5462C117.638 27.8687 115.378 28.5299 112.433 28.5299H102.857ZM107.419 16.6817V24.8871H112.487C113.917 24.8871 115.036 24.5324 115.841 23.8231C116.647 23.1138 117.049 22.1279 117.049 20.8656C117.049 18.1365 115.655 16.7418 112.865 16.6817H107.419ZM107.419 13.3275H111.892C113.31 13.3275 114.416 13.0089 115.21 12.3717C116.015 11.7225 116.418 10.8087 116.418 9.63054C116.418 8.33211 116.045 7.39436 115.3 6.81728C114.567 6.2402 113.419 5.95166 111.856 5.95166H107.419V13.3275Z" fill="#141414"/>
<path d="M137.022 28.5299C136.83 28.1572 136.661 27.5501 136.517 26.7085C135.122 28.1632 133.415 28.8906 131.396 28.8906C129.436 28.8906 127.837 28.3315 126.599 27.2134C125.36 26.0953 124.741 24.7128 124.741 23.0657C124.741 20.9858 125.51 19.3928 127.049 18.2867C128.6 17.1686 130.812 16.6096 133.686 16.6096H136.373V15.3292C136.373 14.3193 136.09 13.5138 135.525 12.9127C134.96 12.2995 134.101 11.993 132.946 11.993C131.949 11.993 131.131 12.2454 130.494 12.7504C129.857 13.2433 129.538 13.8745 129.538 14.6439H125.156C125.156 13.5739 125.51 12.5761 126.22 11.6503C126.929 10.7126 127.891 9.97919 129.105 9.4502C130.332 8.92121 131.696 8.65672 133.199 8.65672C135.483 8.65672 137.305 9.2338 138.663 10.388C140.022 11.5301 140.719 13.1411 140.755 15.221V24.0215C140.755 25.7767 141.001 27.1774 141.494 28.2233V28.5299H137.022ZM132.207 25.374C133.073 25.374 133.884 25.1636 134.642 24.7428C135.411 24.322 135.988 23.757 136.373 23.0476V19.3688H134.01C132.387 19.3688 131.167 19.6513 130.35 20.2163C129.532 20.7814 129.123 21.5809 129.123 22.6148C129.123 23.4564 129.4 24.1297 129.953 24.6346C130.518 25.1275 131.269 25.374 132.207 25.374Z" fill="#141414"/>
<path d="M149.042 9.01739L149.168 11.2716C150.611 9.52835 152.504 8.65672 154.849 8.65672C158.912 8.65672 160.98 10.9831 161.052 15.6358V28.5299H156.67V15.8882C156.67 14.6499 156.4 13.7362 155.859 13.1471C155.33 12.546 154.458 12.2454 153.244 12.2454C151.476 12.2454 150.16 13.0449 149.294 14.6439V28.5299H144.912V9.01739H149.042Z" fill="#141414"/>
<path d="M171.503 20.1622L169.556 22.164V28.5299H165.173V0.830078H169.556V16.808L170.926 15.0948L176.318 9.01739H181.584L174.335 17.1506L182.36 28.5299H177.292L171.503 20.1622Z" fill="#141414"/>
</svg>
