<svg width="138" height="35" viewBox="0 0 138 35" fill="none" xmlns="http://www.w3.org/2000/svg">
<path d="M12.2631 0.210938C9.71309 0.210938 6.65312 2.64278 4.17269 6.72645C1.52998 10.9937 0 16.2244 0 20.7899C0 27.4889 3.7786 34.2109 12.2631 34.2109C20.7475 34.2109 24.5261 27.4889 24.5261 20.7899C24.5261 16.2244 22.9961 10.9707 20.3534 6.7494C17.873 2.64279 14.813 0.210938 12.2631 0.210938ZM78.4929 10.2136H87.0701V32.3526H96.2731V10.2136H104.85V2.02335H78.4929V10.2136ZM124.508 10.2136H138V2.02335H124.508C112.106 2.02335 105.499 8.12592 105.499 17.2109C105.499 26.296 112.129 32.3985 124.508 32.3985H138V24.1853H124.508C118.759 24.1853 115.027 22.1435 115.027 17.2109C115.027 12.2784 118.759 10.2136 124.508 10.2136ZM59.7853 2.04629L54.8708 20.1705L49.9563 2.04629H33.706V32.4215H42.9091V7.69002L49.6086 32.3756H60.1562L66.8557 7.66708V32.3756H76.0588V2.04629H59.7853Z" fill="#141414"/>
</svg>
