<svg width="82" height="70" viewBox="0 0 82 70" fill="none" xmlns="http://www.w3.org/2000/svg">
<path fill-rule="evenodd" clip-rule="evenodd" d="M15.5222 25.778C23.9366 25.4668 34.706 25.1328 41.1526 25.1328C47.6882 25.1328 58.6669 25.4761 67.1302 25.7909L67.082 25.774C67.082 25.774 67.0411 25.7337 67.0411 25.6934C63.1201 15.7443 53.0724 8.65502 41.3094 8.65502C29.5054 8.65502 19.4578 15.7846 15.5368 25.774L15.5222 25.778ZM76.0448 26.1646C77.657 26.3514 78.474 26.4705 79.1784 26.6634C81.5065 27.1871 81.9967 27.9927 81.9967 29.6442V40.8017C81.9967 42.4129 80.2404 43.5407 79.015 43.7421C77.8652 43.9689 77.111 44.0538 75.9762 44.1633C71.7895 58.7549 57.8361 69.4808 41.2756 69.4808C24.7085 69.4808 10.7913 58.7865 6.57008 44.186L6.55773 44.1852C5.29157 44.0644 4.51553 43.9838 3.29021 43.7421C2.06489 43.5407 0.308594 42.4129 0.308594 40.8017V29.6442C0.308594 27.9927 0.798722 27.1871 3.12683 26.6634C3.86202 26.462 4.71975 26.3412 6.47604 26.1398L6.48054 26.1396L6.47266 26.1375C10.5571 11.3951 24.6074 0.519531 41.2718 0.519531C57.8953 0.519531 71.9048 11.3145 76.03 26.057C76.03 26.0951 76.03 26.1152 76.0344 26.1343C76.0365 26.1439 76.0398 26.1533 76.0448 26.1646ZM70.2823 44.5012L70.2909 44.5007C70.1153 44.9928 69.9264 45.4789 69.7247 45.9588C69.9236 45.479 70.1096 44.993 70.2823 44.5012ZM41.1526 45.4339C49.7707 45.4339 59.4584 45.0519 66.8821 44.6791C66.8769 44.701 66.8599 44.7346 66.8429 44.7682C66.8224 44.8084 66.802 44.8487 66.802 44.8689C62.7176 54.536 52.8334 61.3836 41.2745 61.3836C29.6339 61.3836 19.7088 54.4555 15.6653 44.7077C15.641 44.7015 15.6165 44.6951 15.5917 44.6885C22.9906 45.0583 32.6066 45.4339 41.1526 45.4339ZM57.0437 30.7748C57.2689 30.9178 57.3763 31.2465 57.7365 32.0197C57.8999 32.3956 58.5069 33.6942 59.1668 35.1061C59.9919 36.8713 60.8997 38.8135 61.1266 39.3506C61.2342 39.5981 61.1843 39.5973 60.9495 39.5934C60.9168 39.5929 60.8806 39.5923 60.8407 39.5923H58.5943C58.4717 39.5923 58.3492 39.552 58.3084 39.4312C58.3084 39.3943 58.0694 38.8525 57.7163 38.052C57.6832 37.9768 57.649 37.8994 57.614 37.82H52.3451C51.9367 38.7464 51.6099 39.4312 51.6099 39.4312C51.5691 39.5117 51.4874 39.5923 51.324 39.5923H49.1593C48.8325 39.5923 48.71 39.5923 48.9142 39.1895L48.9551 39.1089C49.9762 36.8935 52.386 31.5766 52.386 31.5766C52.6186 31.0987 52.6856 30.8657 52.8402 30.7528C53.0115 30.6279 53.2901 30.6501 54.0197 30.6501C54.3873 30.6099 54.469 30.6099 54.9183 30.6099C55.3676 30.6099 55.6943 30.6099 55.8169 30.6501C56.5244 30.6695 56.8347 30.6423 57.0437 30.7748ZM54.5099 32.785C54.5099 32.8252 53.8563 34.3559 53.162 35.9268H56.7971C56.5014 35.1864 56.1803 34.4461 55.9256 33.8588C55.723 33.3917 55.5625 33.0215 55.4901 32.8252C55.4493 32.7044 55.3676 32.6641 55.2859 32.6641C55.2451 32.6238 55.1225 32.6239 55.0408 32.6239H55.0408C54.9183 32.6239 54.7958 32.6239 54.7549 32.6641C54.6324 32.6641 54.5507 32.7044 54.5099 32.785ZM24.5303 30.771C24.5303 30.6099 24.4895 30.5293 24.2853 30.5293H22.0797C21.9163 30.5293 21.8755 30.6099 21.8755 30.771V39.2298C21.8755 39.4714 21.9163 39.5117 22.1614 39.5117H24.2444C24.4895 39.5117 24.5303 39.4312 24.5303 39.2298V30.771ZM20.1192 30.8918C20.1192 30.6904 20.0783 30.6099 19.8333 30.6099H18.0361C17.7911 30.6099 17.7502 30.6904 17.7502 30.8918V37.6186C17.7502 37.6186 14.1151 32.1002 13.6658 31.3752C13.121 30.6077 12.9099 30.6079 11.549 30.6097C11.4815 30.6098 11.4111 30.6099 11.3377 30.6099H9.25466C9.00959 30.6099 8.96875 30.6904 8.96875 30.8918V39.3103C8.96875 39.552 9.00959 39.5923 9.25466 39.5923H11.0518C11.2969 39.5923 11.3377 39.552 11.3377 39.3103V32.7044C11.3377 32.7044 14.3602 37.256 15.3404 38.7867C15.8305 39.5923 15.9531 39.5923 17.3826 39.5923H19.8333C20.0783 39.5923 20.1192 39.552 20.1192 39.3103V30.8918ZM73.6249 30.8918C73.6249 30.6904 73.584 30.6099 73.339 30.6099H71.5418C71.2968 30.6099 71.2559 30.6904 71.2559 30.8918V37.6186C71.2559 37.6186 67.6616 32.1002 67.1715 31.3752C66.6267 30.6077 66.4156 30.6079 65.0547 30.6097C64.9872 30.6098 64.9168 30.6099 64.8434 30.6099H62.7603C62.5153 30.6099 62.4744 30.6904 62.4744 30.8918V39.3103C62.4744 39.552 62.5153 39.5923 62.7603 39.5923H64.5575C64.8026 39.5923 64.8434 39.552 64.8434 39.3103V32.7044C64.8434 32.7044 67.825 37.256 68.8461 38.7867C69.3362 39.5923 69.4588 39.5923 70.8883 39.5923H73.339C73.584 39.5923 73.6249 39.552 73.6249 39.3103V30.8918ZM36.5793 35.9671C36.2526 34.4767 35.0681 34.1948 33.4752 34.0336C33.2198 34.0107 32.8456 33.9813 32.4239 33.9482C31.3619 33.8647 29.9987 33.7576 29.4725 33.6711C29.1866 33.6308 29.064 33.4697 29.064 33.2683V33.0669V32.9058C29.1049 32.6239 29.2274 32.503 29.5133 32.503H35.9258C36.1709 32.5433 36.2526 32.4627 36.2526 32.2613V30.8113C36.2526 30.6099 36.1709 30.5696 35.9258 30.5696H29.3908C27.6753 30.5696 26.7359 31.1738 26.45 32.4225C26.4092 32.7044 26.4092 33.0669 26.4092 33.3086C26.4092 33.5906 26.4092 33.9128 26.45 34.1545C26.5317 34.8795 27.0218 35.6851 28.9823 35.8865C30.4936 36.0476 32.74 36.249 33.516 36.2893C33.8651 36.3276 33.9195 36.5475 33.9591 36.7075C33.9612 36.716 33.9633 36.7243 33.9653 36.7324V36.9741V37.3366C33.9245 37.538 33.8428 37.6186 33.5569 37.6186H26.7359C26.4908 37.6186 26.45 37.6588 26.45 37.9005V39.3103C26.45 39.552 26.4908 39.5923 26.7359 39.5923H33.4752C35.1906 39.5923 36.2526 39.3103 36.5385 37.9005C36.6202 37.5783 36.6202 37.2158 36.6202 36.9338V36.9338C36.6202 36.6427 36.6025 36.369 36.5904 36.1812C36.5841 36.0832 36.5793 36.0085 36.5793 35.9671ZM48.1382 35.9671C47.8114 34.4767 46.627 34.1948 45.034 34.0336C44.7706 34.0089 44.3647 33.9766 43.9074 33.9401C42.8755 33.8579 41.5816 33.7549 41.0722 33.6711C40.7454 33.6308 40.6637 33.4697 40.6637 33.2683V33.0669V32.9058C40.7046 32.6239 40.8271 32.503 41.113 32.503H47.5255C47.7706 32.5433 47.8523 32.4627 47.8523 32.2613V30.8113C47.8523 30.6099 47.7706 30.5696 47.5255 30.5696H40.9905C39.275 30.5696 38.3356 31.1738 38.0497 32.4225C38.0089 32.7044 38.0089 33.0669 38.0089 33.3085V33.3086V33.3087C38.0089 33.5906 38.0089 33.9128 38.0497 34.1545C38.1722 34.8795 38.6215 35.6851 40.582 35.8865C42.0933 36.0476 44.3397 36.249 45.1157 36.2893C45.4425 36.3296 45.5242 36.5713 45.565 36.7324V36.9741V37.3366C45.5242 37.538 45.4425 37.6186 45.1566 37.6186H38.3356C38.0905 37.6186 38.0497 37.6588 38.0497 37.9005V39.3103C38.0497 39.552 38.0905 39.5923 38.3356 39.5923H45.034C46.7495 39.5923 47.8114 39.3103 48.0973 37.9005C48.179 37.5783 48.179 37.2158 48.179 36.9338C48.179 36.6427 48.1614 36.369 48.1493 36.1812C48.143 36.0832 48.1382 36.0085 48.1382 35.9671Z" fill="#141414"/>
</svg>
