<svg width="92" height="68" viewBox="0 0 92 68" fill="none" xmlns="http://www.w3.org/2000/svg">
<path fill-rule="evenodd" clip-rule="evenodd" d="M78.4041 0C81.4238 0.921006 84.393 1.49712 87.1086 2.82193C88.8124 3.65295 90.2479 4.77438 91.1635 6.43951C92.0482 8.04801 91.9735 9.62019 90.9194 11.1349C90.0864 12.3321 88.9375 13.1772 87.665 13.8857C84.9698 15.3865 82.2632 16.8704 79.7265 18.6224C78.7125 19.3228 77.7048 20.04 76.9532 21.0259C76.7849 21.2466 76.6535 21.2192 76.4404 21.1285C74.2059 20.1785 71.915 19.3745 69.5881 18.6478C69.6401 18.358 69.9086 18.4088 70.0737 18.3471C74.5193 16.6858 78.9516 14.9974 83.1015 12.6908C83.9223 12.2346 84.703 11.7223 85.4244 11.1254C87.5348 9.37968 86.2504 6.95092 84.5212 6.2033C84.1218 6.03059 83.7498 6.02561 83.3574 6.30338C74.3976 12.6429 64.3155 16.252 53.4273 17.8108C40.4426 19.6696 27.6261 18.8453 15.0234 15.2346C10.8401 14.0362 6.80105 12.4869 3.1317 10.1385C2.15955 9.51621 1.24915 8.81742 0.46875 7.96084C2.00496 8.85333 3.56797 9.68704 5.19494 10.4036C9.92555 12.4869 14.897 13.7707 20.0111 14.5252C34.3612 16.642 48.5169 15.6449 62.4678 11.8289C67.3295 10.4991 72.0086 8.6938 76.4024 6.23653C77.0218 5.89016 77.6284 5.52536 78.1516 5.04636C79.5845 3.73406 79.8 2.27339 78.8068 0.626693C78.7027 0.454114 78.5891 0.287184 78.4041 0Z" fill="#141414"/>
<path fill-rule="evenodd" clip-rule="evenodd" d="M0.46875 39.1189C24.996 16.7141 65.8486 16.2331 90.9582 38.1458C90.8231 38.2461 90.7462 38.1165 90.669 38.0612C80.8127 30.9924 69.815 26.8699 57.7346 25.596C44.9365 24.2465 32.6496 26.1493 20.9234 31.4534C16.5647 33.4249 12.4759 35.8513 8.66009 38.7239C8.29437 38.9993 7.93458 39.1326 7.46851 39.1283C5.17454 39.1075 2.88044 39.1189 0.46875 39.1189Z" fill="#141414"/>
<path fill-rule="evenodd" clip-rule="evenodd" d="M55.0903 67.6633C52.7464 67.1735 50.7456 66.0786 48.8729 64.7667C45.1252 62.1413 42.335 58.7695 40.2458 54.8735C39.9943 54.4045 39.7332 54.2151 39.1527 54.2334C37.4034 54.2883 37.3915 54.2611 37.4317 55.9324C37.4708 57.5474 37.5201 59.1625 37.5987 60.7759C37.6196 61.2027 37.5045 61.3435 37.0368 61.3249C36.1763 61.2907 35.3119 61.2884 34.4516 61.3251C33.9663 61.3456 33.8795 61.1778 33.9004 60.7645C34.0867 57.1 34.1484 53.4331 34.0491 49.7651C34.0166 48.565 33.9564 47.3655 33.9084 46.1657C33.899 45.9321 33.8099 45.6716 34.2398 45.6818C37.1954 45.7522 40.1623 45.487 43.1054 45.8434C44.8883 46.0594 46.3952 46.7797 46.8802 48.5865C47.5573 51.1089 46.1822 53.3445 44.0297 53.8412C43.6593 53.9266 43.7541 54.0823 43.8699 54.3008C45.5646 57.5015 47.6088 60.4843 50.1303 63.1731C51.6533 64.7975 53.3226 66.2778 55.0903 67.6633ZM37.5068 48.1235C37.516 48.7779 37.4078 51.353 37.4083 51.9861C37.4086 52.1826 37.3798 52.3935 37.7063 52.3839C39.0057 52.3458 40.3215 52.5123 41.5945 52.1395C42.919 51.7516 43.4573 50.9021 43.2898 49.5045C43.1578 48.4042 42.361 47.7161 41.0495 47.6617C40.0267 47.6192 38.9998 47.673 37.9753 47.654C37.5851 47.6466 37.5024 47.8136 37.5068 48.1235Z" fill="#141414"/>
<path fill-rule="evenodd" clip-rule="evenodd" d="M30.631 53.3664C30.6012 54.8689 30.4863 56.274 30.0696 57.6392C29.3021 60.1538 27.6418 61.4894 25.2 61.8213C23.7091 62.0241 22.2246 62.0148 20.7476 61.6958C18.6276 61.2377 17.2188 59.9024 16.5809 57.7403C15.7699 54.991 15.7662 52.1975 16.4732 49.4236C17.117 46.8977 18.6978 45.4257 21.1545 45.0232C22.707 44.7689 24.2613 44.764 25.8016 45.0856C28.1415 45.5742 29.5446 47.1282 30.1778 49.5151C30.5191 50.8015 30.6101 52.1212 30.631 53.3664ZM27.2273 53.4656C27.2206 52.1159 27.1892 50.7683 26.7899 49.4674C26.4057 48.2156 25.6441 47.3601 24.3835 47.1635C21.4044 46.6985 20.1529 47.8226 19.7137 49.9025C19.2183 52.2495 19.2071 54.624 19.7381 56.9663C20.1923 58.9688 21.3111 59.7628 23.422 59.7371C25.3773 59.7132 26.4767 58.8127 26.921 56.8676C27.1763 55.7494 27.2273 54.6099 27.2273 53.4656Z" fill="#141414"/>
<path fill-rule="evenodd" clip-rule="evenodd" d="M11.1633 57.0646C11.3879 53.4886 11.3825 49.975 11.1607 46.466C11.1203 45.8284 11.2901 45.6841 11.9132 45.7016C13.5286 45.7473 13.5309 45.7159 13.4559 47.3027C13.2492 51.676 13.2855 56.0489 13.5089 60.4199C13.5369 60.9674 13.3965 61.1211 12.8543 61.0872C12.0157 61.0348 11.058 61.3014 10.3631 60.98C9.66387 60.6566 9.40323 59.663 8.95574 58.9604C7.05306 55.9725 5.13366 52.9958 3.11052 50.0865C3.01793 49.9534 2.91951 49.8241 2.67015 49.7246C2.67015 51.1275 2.64837 52.5308 2.67521 53.9331C2.71722 56.1196 2.77337 58.3063 2.86712 60.4909C2.88878 60.9945 2.74782 61.1392 2.27115 61.081C1.70124 61.0115 0.9319 61.332 0.608498 60.9435C0.335928 60.6162 0.541847 59.8814 0.565836 59.3282C0.752304 55.0192 0.758917 50.7104 0.513708 46.4041C0.480512 45.8236 0.633525 45.6352 1.20512 45.7099C1.54473 45.754 1.90677 45.7745 2.2386 45.7074C3.44676 45.4633 4.06892 46.0526 4.65932 47.0393C6.54358 50.1883 8.53793 53.272 10.626 56.2936C10.8042 56.5513 10.9842 56.8076 11.1633 57.0646Z" fill="#141414"/>
<path fill-rule="evenodd" clip-rule="evenodd" d="M91.3928 48.1514C89.8271 47.4182 88.2711 47.0714 86.6494 47.1165C86.2027 47.129 85.751 47.1698 85.3131 47.2613C83.9463 47.5465 82.9677 48.3686 82.5568 49.8248C81.9485 51.9802 81.843 54.1715 82.4432 56.347C82.9925 58.3385 84.3409 59.4187 86.2682 59.512C86.8865 59.542 87.5061 59.5531 88.1253 59.5496C88.5506 59.5469 88.756 59.3582 88.7418 58.8291C88.6999 57.2652 88.6729 55.7008 88.4424 54.1538C88.3806 53.7384 88.4086 53.573 88.8503 53.5903C89.7035 53.6236 90.5588 53.6034 91.4131 53.5982C91.6612 53.5966 91.8078 53.6291 91.7673 53.9784C91.4958 56.3134 91.5403 58.6606 91.5897 61.0054C91.5997 61.4824 91.4895 61.6434 91.0307 61.6221C89.8529 61.5673 88.6929 61.8357 87.521 61.9072C86.3677 61.9776 85.2154 62.0048 84.0721 61.778C81.588 61.2846 79.967 59.7237 79.245 57.1328C78.5861 54.7678 78.5657 52.3602 79.151 49.9796C79.9252 46.8314 81.8764 45.2119 85.1923 44.9092C87.1147 44.7336 89.0331 44.9155 90.949 45.0965C91.2513 45.1249 91.4109 45.205 91.4001 45.5826C91.3765 46.4082 91.3928 47.235 91.3928 48.1514Z" fill="#141414"/>
<path fill-rule="evenodd" clip-rule="evenodd" d="M65.8749 53.3674C65.9079 50.9896 65.8173 48.6142 65.6926 46.2403C65.6692 45.7968 65.7649 45.6497 66.2696 45.6525C69.7724 45.6727 73.2755 45.6722 76.7785 45.6524C77.2673 45.6497 77.3938 45.7807 77.3899 46.2298C77.3782 47.6144 77.3989 47.617 75.9273 47.6061C73.9224 47.5914 71.917 47.5908 69.9129 47.5432C69.3886 47.5306 69.2424 47.6736 69.247 48.1523C69.256 49.1021 69.221 50.0539 69.1563 51.002C69.1253 51.4567 69.3165 51.5297 69.7446 51.5277C71.7726 51.5184 73.8015 51.5353 75.8253 51.4003C76.3718 51.3639 76.5868 51.4619 76.5687 52.0357C76.5271 53.3456 76.5614 53.3552 75.1652 53.3119C73.3683 53.256 71.5718 53.224 69.7737 53.242C69.3232 53.2465 69.1225 53.3234 69.1431 53.8076C69.2126 55.448 69.2485 57.0901 69.261 58.7319C69.2646 59.1945 69.4388 59.297 69.9057 59.2871C72.3478 59.2344 74.7909 59.2313 77.2326 59.1683C77.7945 59.1539 77.9212 59.3123 77.9114 59.8105C77.8851 61.1285 77.9094 61.1291 76.5123 61.1291C73.1247 61.1293 69.7369 61.1169 66.3494 61.1414C65.7966 61.1453 65.6598 61.0053 65.6868 60.4944C65.8121 58.1206 65.9007 55.745 65.8749 53.3674Z" fill="#141414"/>
<path fill-rule="evenodd" clip-rule="evenodd" d="M55.6981 58.1932C56.4847 55.8484 57.282 53.5069 58.0541 51.1578C58.5858 49.5403 59.0936 47.9152 59.5864 46.2866C59.702 45.9045 59.8523 45.7069 60.3157 45.7433C60.8773 45.7873 61.4463 45.7727 62.0106 45.7487C62.4317 45.7308 62.503 45.8305 62.3502 46.2161C61.5787 48.1628 60.8288 50.1173 60.0862 52.0745C59.0144 54.8996 57.9802 57.7377 57.0993 60.6227C56.9738 61.0337 56.7754 61.1538 56.3439 61.1356C55.5539 61.1025 54.7591 61.0927 53.9704 61.1384C53.4427 61.1691 53.2346 60.9721 53.0746 60.516C51.4828 55.9794 49.8475 51.457 48.0508 46.9887C47.5545 45.7544 47.5565 45.7393 48.9545 45.759C49.7842 45.7707 50.822 45.4388 51.3847 45.8903C51.9096 46.3116 51.9437 47.2884 52.1849 48.0233C53.2992 51.42 54.4106 54.8177 55.5229 58.215C55.5812 58.2076 55.6397 58.2005 55.6981 58.1932Z" fill="#141414"/>
</svg>
