<svg width="308" height="58" viewBox="0 0 308 58" fill="none" xmlns="http://www.w3.org/2000/svg">
<g clip-path="url(#clip0)">
<path fill-rule="evenodd" clip-rule="evenodd" d="M0.144531 0.750977H50.8556V48.0334H20.0822L21.9604 43.8273L8.66861 57.3159V48.0334H0.144531V0.750977ZM12.183 14.8313C9.74376 17.4246 8.52413 20.6599 8.52413 24.5372C8.52413 28.5908 9.75572 31.8765 12.2189 34.3942C14.682 36.9119 17.8028 38.1708 21.5813 38.1708C25.3358 38.1708 28.4566 36.8868 30.9436 34.3186C33.4308 31.7506 34.6743 28.4901 34.6743 24.5372C34.6743 20.4837 33.4308 17.198 30.9436 14.6803C28.4804 12.1625 25.3598 10.9036 21.5813 10.9036C17.779 10.9036 14.6462 12.2129 12.183 14.8313ZM15.5907 31.184C13.9885 29.3965 13.1874 27.1809 13.1874 24.5372C13.1874 21.8181 13.9766 19.5898 15.5549 17.8526C17.1571 16.1155 19.1659 15.2468 21.5813 15.2468C23.9727 15.2468 25.9695 16.1155 27.5718 17.8526C29.1979 19.5898 30.011 21.8181 30.011 24.5372C30.011 27.2061 29.2457 29.4217 27.7153 31.184C26.2087 32.9466 24.1639 33.8277 21.5813 33.8277C19.2138 33.8277 17.217 32.9466 15.5907 31.184ZM38.7196 30.879L38.2862 10.9036H43.5856L42.8372 30.879H38.7196ZM38.5751 33.3846V37.9533H43.1984V33.3846H38.5751Z" fill="#141414"/>
<path d="M50.8575 0.75123H50.9297V0.678711H50.8575V0.75123ZM0.146457 0.75123V0.678711H0.0742188V0.75123H0.146457ZM50.8575 48.0337V48.1062H50.9297V48.0337H50.8575ZM20.0841 48.0337L20.0183 48.0039L19.9726 48.1062H20.0841V48.0337ZM21.9623 43.8276L22.0282 43.8573L21.911 43.7765L21.9623 43.8276ZM8.67054 57.3161H8.5983V57.4925L8.7219 57.3672L8.67054 57.3161ZM8.67054 48.0337H8.74277V47.9612H8.67054V48.0337ZM0.146457 48.0337H0.0742188V48.1062H0.146457V48.0337ZM12.1849 14.8316L12.1324 14.7818L12.1849 14.8316ZM12.2208 34.3944L12.2723 34.3437L12.2208 34.3944ZM30.9455 34.3189L30.8938 34.2684L30.9455 34.3189ZM30.9455 14.6805L30.8941 14.7313L30.8943 14.7316L30.9455 14.6805ZM15.5927 31.1843L15.5389 31.2329L15.5396 31.2336L15.5927 31.1843ZM15.5568 17.8528L15.5038 17.8037L15.5035 17.8039L15.5568 17.8528ZM27.5738 17.8528L27.5207 17.9021L27.521 17.9026L27.5738 17.8528ZM27.7172 31.1843L27.6628 31.1367L27.6623 31.1372L27.7172 31.1843ZM38.2881 10.9039V10.8314H38.2143L38.2159 10.9055L38.2881 10.9039ZM38.7215 30.8793L38.6493 30.8809L38.6509 30.9518H38.7215V30.8793ZM43.5875 10.9039L43.6596 10.9066L43.6625 10.8314H43.5875V10.9039ZM42.8391 30.8793V30.9518H42.9087L42.9113 30.882L42.8391 30.8793ZM38.5771 37.9535H38.5048V38.026H38.5771V37.9535ZM38.5771 33.3848V33.3123H38.5048V33.3848H38.5771ZM43.2003 37.9535V38.026H43.2725V37.9535H43.2003ZM43.2003 33.3848H43.2725V33.3123H43.2003V33.3848ZM50.8575 0.678711H0.146457V0.823749H50.8575V0.678711ZM50.9297 48.0337V0.75123H50.7853V48.0337H50.9297ZM20.0841 48.1062H50.8575V47.9612H20.0841V48.1062ZM21.8964 43.7978L20.0183 48.0039L20.15 48.0634L22.0282 43.8573L21.8964 43.7978ZM8.7219 57.3672L22.0136 43.8786L21.911 43.7765L8.61917 57.2651L8.7219 57.3672ZM8.5983 48.0337V57.3161H8.74277V48.0337H8.5983ZM0.146457 48.1062H8.67054V47.9612H0.146457V48.1062ZM0.0742188 0.75123V48.0337H0.218695V0.75123H0.0742188ZM8.5983 24.5375C8.5983 20.6769 9.81203 17.4599 12.2374 14.8814L12.1324 14.7818C9.67934 17.3897 8.45382 20.6434 8.45382 24.5375H8.5983ZM12.2723 34.3437C9.82444 31.8415 8.5983 28.5751 8.5983 24.5375H8.45382C8.45382 28.607 9.69084 31.912 12.1693 34.4453L12.2723 34.3437ZM21.5832 38.0986C17.8225 38.0986 14.7208 36.8464 12.2723 34.3437L12.1693 34.4453C14.6471 36.978 17.787 38.2436 21.5832 38.2436V38.0986ZM30.8938 34.2684C28.4211 36.8216 25.3194 38.0986 21.5832 38.0986V38.2436C25.3561 38.2436 28.496 36.9525 30.9974 34.3695L30.8938 34.2684ZM34.604 24.5375C34.604 28.4737 33.3664 31.7153 30.8938 34.2684L30.9974 34.3695C33.499 31.7864 34.7484 28.507 34.7484 24.5375H34.604ZM30.8943 14.7316C33.3659 17.2338 34.604 20.5001 34.604 24.5375H34.7484C34.7484 20.4677 33.4993 17.1627 30.9968 14.6295L30.8943 14.7316ZM21.5832 10.9764C25.3439 10.9764 28.4455 12.2286 30.8941 14.7313L30.9971 14.6297C28.5194 12.097 25.3795 10.8314 21.5832 10.8314V10.9764ZM12.2374 14.8814C14.6861 12.2784 17.7994 10.9764 21.5832 10.9764V10.8314C17.7623 10.8314 14.6101 12.1479 12.1324 14.7818L12.2374 14.8814ZM13.1171 24.5375C13.1171 27.1971 13.9236 29.4305 15.5391 31.2329L15.6464 31.1359C14.0573 29.3629 13.2616 27.1651 13.2616 24.5375H13.1171ZM15.5035 17.8039C13.9111 19.5567 13.1171 21.8032 13.1171 24.5375H13.2616C13.2616 21.8334 14.0459 19.6236 15.6101 17.9017L15.5035 17.8039ZM21.5832 15.1745C19.1484 15.1745 17.1201 16.0512 15.5038 17.8037L15.6099 17.9021C17.1981 16.1801 19.1874 15.3196 21.5832 15.3196V15.1745ZM27.6266 17.8037C26.0105 16.0513 23.9944 15.1745 21.5832 15.1745V15.3196C23.9548 15.3196 25.9324 16.18 27.5207 17.9021L27.6266 17.8037ZM30.0852 24.5375C30.0852 21.8026 29.2669 19.5559 27.6264 17.8032L27.521 17.9026C29.1328 19.6245 29.9407 21.834 29.9407 24.5375H30.0852ZM27.7717 31.232C29.3153 29.4544 30.0852 27.2211 30.0852 24.5375H29.9407C29.9407 27.1914 29.1802 29.3893 27.6628 31.1367L27.7717 31.232ZM21.5832 33.9004C24.1842 33.9004 26.2499 33.0121 27.772 31.2316L27.6623 31.1372C26.1712 32.8815 24.1477 33.7554 21.5832 33.7554V33.9004ZM15.5396 31.2336C17.1793 33.0106 19.1953 33.9004 21.5832 33.9004V33.7554C19.2361 33.7554 17.2583 32.8828 15.6457 31.135L15.5396 31.2336ZM38.2159 10.9055L38.6493 30.8809L38.7938 30.8777L38.3603 10.9023L38.2159 10.9055ZM43.5875 10.8314H38.2881V10.9764H43.5875V10.8314ZM42.9113 30.882L43.6596 10.9066L43.5152 10.9012L42.7669 30.8765L42.9113 30.882ZM38.7215 30.9518H42.8391V30.8068H38.7215V30.9518ZM38.6493 37.9535V33.3848H38.5048V37.9535H38.6493ZM43.2003 37.881H38.5771V38.026H43.2003V37.881ZM43.128 33.3848V37.9535H43.2725V33.3848H43.128ZM38.5771 33.4573H43.2003V33.3123H38.5771V33.4573Z" fill="black"/>
</g>
<path d="M98.4791 42.199H91.4534L81.0659 23.7843V42.199H74V12.6055H81.0659L91.4333 31.0201V12.6055H98.4791V42.199Z" fill="black"/>
<path d="M125.938 12.6055V31.9754C125.938 34.1705 125.475 36.0743 124.549 37.6868C123.623 39.2857 122.294 40.5052 120.563 41.3453C118.831 42.1854 116.785 42.6055 114.423 42.6055C110.853 42.6055 108.041 41.6705 105.988 39.8006C103.935 37.9307 102.888 35.3697 102.848 32.1177V12.6055H109.954V32.2599C110.034 35.4984 111.524 37.1177 114.423 37.1177C115.886 37.1177 116.993 36.7112 117.744 35.8982C118.496 35.0851 118.872 33.764 118.872 31.9347V12.6055H125.938Z" fill="black"/>
<path d="M141.257 31.7518H137.432V42.199H130.366V12.6055H141.901C145.377 12.6055 148.095 13.3846 150.054 14.9429C152.014 16.5011 152.993 18.703 152.993 21.5486C152.993 23.6082 152.577 25.3155 151.745 26.6705C150.927 28.0255 149.638 29.1231 147.88 29.9632L154 41.8941V42.199H146.431L141.257 31.7518ZM137.432 26.2437H141.901C143.243 26.2437 144.25 25.8914 144.921 25.1868C145.605 24.4686 145.948 23.4727 145.948 22.199C145.948 20.9253 145.605 19.9293 144.921 19.2112C144.237 18.4795 143.23 18.1136 141.901 18.1136H137.432V26.2437Z" fill="black"/>
<path d="M182.97 17.4461H174.334V43.1942H169.56V17.4461H161V13.2507H182.97V17.4461Z" fill="black"/>
<path d="M193.527 43.6055C190.598 43.6055 188.22 42.6115 186.394 40.6235C184.581 38.6217 183.674 35.9619 183.674 32.644V32.0271C183.674 29.806 184.067 27.8248 184.853 26.0836C185.652 24.3287 186.768 22.9645 188.201 21.9911C189.634 21.0176 191.232 20.5309 192.995 20.5309C195.797 20.5309 197.959 21.4975 199.481 23.4307C201.015 25.3638 201.783 28.099 201.783 31.6363V33.6517H188.334C188.474 35.4889 189.038 36.9422 190.027 38.0116C191.029 39.081 192.284 39.6158 193.793 39.6158C195.911 39.6158 197.636 38.6903 198.967 36.8394L201.459 39.4101C200.635 40.74 199.532 41.7751 198.149 42.5155C196.78 43.2421 195.239 43.6055 193.527 43.6055ZM192.976 24.5412C191.707 24.5412 190.68 25.0211 189.894 25.9808C189.12 26.9405 188.626 28.2773 188.41 29.9911H197.217V29.6209C197.116 27.9482 196.704 26.6869 195.981 25.8368C195.258 24.9731 194.256 24.5412 192.976 24.5412Z" fill="black"/>
<path d="M210.304 43.1942H205.682V11.6055H210.304V43.1942Z" fill="black"/>
<path d="M224.418 43.6055C221.489 43.6055 219.111 42.6115 217.285 40.6235C215.472 38.6217 214.565 35.9619 214.565 32.644V32.0271C214.565 29.806 214.958 27.8248 215.745 26.0836C216.543 24.3287 217.659 22.9645 219.092 21.9911C220.525 21.0176 222.123 20.5309 223.886 20.5309C226.688 20.5309 228.851 21.4975 230.372 23.4307C231.907 25.3638 232.674 28.099 232.674 31.6363V33.6517H219.226C219.365 35.4889 219.929 36.9422 220.918 38.0116C221.92 39.081 223.176 39.6158 224.685 39.6158C226.803 39.6158 228.527 38.6903 229.859 36.8394L232.351 39.4101C231.526 40.74 230.423 41.7751 229.041 42.5155C227.671 43.2421 226.13 43.6055 224.418 43.6055ZM223.867 24.5412C222.599 24.5412 221.572 25.0211 220.785 25.9808C220.012 26.9405 219.517 28.2773 219.302 29.9911H228.109V29.6209C228.007 27.9482 227.595 26.6869 226.872 25.8368C226.149 24.9731 225.148 24.5412 223.867 24.5412Z" fill="black"/>
<path d="M244.734 39.6158C245.888 39.6158 246.845 39.2524 247.606 38.5258C248.367 37.7991 248.773 36.9011 248.823 35.8317H253.179C253.129 37.2164 252.729 38.5121 251.981 39.7186C251.233 40.9114 250.218 41.8574 248.938 42.5566C247.657 43.2559 246.274 43.6055 244.791 43.6055C241.912 43.6055 239.63 42.5978 237.943 40.5823C236.256 38.5669 235.413 35.7837 235.413 32.2327V31.7186C235.413 28.3321 236.25 25.6243 237.924 23.5952C239.598 21.5523 241.88 20.5309 244.772 20.5309C247.219 20.5309 249.21 21.3056 250.745 22.8548C252.292 24.3904 253.103 26.4127 253.179 28.9217H248.823C248.773 27.6466 248.367 26.5978 247.606 25.7751C246.858 24.9525 245.9 24.5412 244.734 24.5412C243.237 24.5412 242.083 25.1307 241.272 26.3098C240.46 27.4752 240.048 29.2507 240.035 31.6363V32.4384C240.035 34.8514 240.435 36.6543 241.234 37.8471C242.045 39.0262 243.212 39.6158 244.734 39.6158Z" fill="black"/>
<path d="M255.804 31.8625C255.804 29.6826 256.204 27.722 257.003 25.9808C257.802 24.2259 258.924 22.8822 260.37 21.9499C261.815 21.0039 263.476 20.5309 265.353 20.5309C268.13 20.5309 270.381 21.4975 272.106 23.4307C273.843 25.3638 274.782 27.9277 274.921 31.1222L274.94 32.2944C274.94 34.4881 274.547 36.4487 273.761 38.1762C272.987 39.9037 271.871 41.2404 270.413 42.1864C268.967 43.1325 267.293 43.6055 265.391 43.6055C262.487 43.6055 260.16 42.5635 258.41 40.4795C256.673 38.3818 255.804 35.5918 255.804 32.1093V31.8625ZM260.427 32.2944C260.427 34.584 260.864 36.3801 261.739 37.6826C262.614 38.9714 263.832 39.6158 265.391 39.6158C266.951 39.6158 268.162 38.9577 269.024 37.6415C269.899 36.3253 270.337 34.399 270.337 31.8625C270.337 29.614 269.887 27.8317 268.986 26.5155C268.099 25.1993 266.888 24.5412 265.353 24.5412C263.844 24.5412 262.646 25.1924 261.758 26.4949C260.87 27.7837 260.427 29.7169 260.427 32.2944Z" fill="black"/>
<path d="M283.196 20.9422L283.329 23.2661C284.774 21.4427 286.753 20.5309 289.264 20.5309C292.015 20.5309 293.899 21.6689 294.913 23.9448C296.409 21.6689 298.514 20.5309 301.228 20.5309C303.498 20.5309 305.185 21.2096 306.288 22.5669C307.404 23.9242 307.975 25.9259 308 28.5721V43.1942H303.378V28.716C303.378 27.3038 303.092 26.2687 302.522 25.6106C301.951 24.9525 301.006 24.6235 299.688 24.6235C298.635 24.6235 297.773 24.9319 297.101 25.5489C296.441 26.1522 295.978 26.9474 295.712 27.9345L295.731 43.1942H291.109V28.5515C291.045 25.9328 289.809 24.6235 287.399 24.6235C285.548 24.6235 284.236 25.4392 283.462 27.0708V43.1942H278.84V20.9422H283.196Z" fill="black"/>
<defs>
<clipPath id="clip0">
<rect width="51" height="57" fill="white" transform="translate(0 0.605469)"/>
</clipPath>
</defs>
</svg>
