<svg width="208" height="53" viewBox="0 0 208 53" fill="none" xmlns="http://www.w3.org/2000/svg">
<path fill-rule="evenodd" clip-rule="evenodd" d="M37.0675 0.786133L24.904 13.6026L18.5664 20.2794L24.473 26.5032L36.6364 13.6867L48.7998 26.5032L42.9731 32.6417L49.2309 39.2354L61.3943 26.419L37.0675 0.786133Z" fill="#141414"/>
<path fill-rule="evenodd" clip-rule="evenodd" d="M37.0697 26.4169L24.9063 39.2333L12.7429 26.4169L18.5687 20.2773L12.3118 13.6846L0.148438 26.501L24.4752 52.1329L36.6387 39.3164L42.9753 32.6385L37.0697 26.4158V26.4169Z" fill="#141414"/>
<path fill-rule="evenodd" clip-rule="evenodd" d="M72.1733 29.1675C72.8516 29.1675 73.4106 29.0661 73.834 28.8481C74.6557 28.4528 75.0309 27.6113 75.0309 26.4758C75.0309 25.535 74.6797 24.7017 73.9052 24.2059C73.4587 23.9373 72.8997 23.8359 72.1252 23.8359H71.4479V29.1685H72.1733V29.1675ZM68.2382 21.0946H72.2695C73.6743 21.0946 74.8481 21.2963 75.7573 21.784C77.4411 22.6254 78.3589 24.2313 78.3589 26.4769C78.3589 28.3777 77.5854 30.4043 75.2859 31.338C74.4161 31.6827 73.3471 31.9007 71.9819 31.9007H71.4392V37.359H68.2305V21.0946H68.2391H68.2382ZM88.6875 30.673L87.7764 27.9317C87.4012 26.7455 87.2183 26.0561 87.074 25.5087H87.0259C86.9066 26.0815 86.6757 26.7709 86.2524 27.957L85.3191 30.674H88.6866L88.6875 30.673ZM85.6943 21.0186H88.2959L94.6009 37.359H91.1525L89.6516 33.3808H84.4089L82.9801 37.359H79.6761L85.6943 21.0186ZM100.914 28.4781C101.617 28.4781 102.063 28.3524 102.463 28.1334C103.069 27.738 103.492 27.074 103.492 26.1565C103.492 25.2907 103.117 24.5506 102.438 24.1806C102.087 23.9535 101.649 23.8359 100.938 23.8359H99.7166V28.4791H100.914V28.4781ZM96.5088 21.0946H101.121C102.502 21.0946 103.531 21.3136 104.354 21.7079C106.134 22.524 106.812 24.0802 106.812 25.8037C106.812 27.9225 105.551 29.4118 103.811 29.9755V30.0262C104.282 30.2948 104.96 31.186 105.783 32.6925L108.288 37.359H104.609L102.574 33.4569C101.8 31.926 101.257 31.3127 100.89 31.2113H99.7166V37.359H96.5088V21.0946Z" fill="#141414"/>
<path d="M113.915 21.0967H110.707V37.361H113.915V21.0967Z" fill="#141414"/>
<path fill-rule="evenodd" clip-rule="evenodd" d="M120.497 23.9637H115.996V21.0956H128.598L127.752 23.9637H123.706V37.36H120.497V23.9637ZM130.401 21.0956H139.325L138.478 23.9637H133.61V27.7147H138.503V30.5483H133.61V34.5011H139.301V37.36H130.401V21.0956ZM145.415 23.9637H140.921V21.0956H153.515L152.677 23.9637H148.622V37.36H145.415V23.9637ZM159.565 35.8292C161.648 35.8292 163.028 34.9634 163.028 32.7939C163.028 30.969 161.744 29.8082 159.773 29.8082H157.266V35.8302H159.565V35.8292ZM158.951 28.2774C161.01 28.2774 162.111 27.218 162.111 25.4093C162.111 23.7873 161.217 22.6173 159.014 22.6173H157.259V28.2693H158.951V28.2774ZM155.534 21.0956H159.118C162.398 21.0956 163.851 22.9965 163.851 25.2167C163.851 26.8733 163.077 28.177 161.816 28.7488V28.7995C163.548 29.1949 164.817 30.6993 164.817 32.7513C164.817 35.4926 162.989 37.3681 159.565 37.3681H155.534V21.0956ZM175.184 31.4648L173.588 26.7719C173.093 25.3424 172.862 24.577 172.67 23.9637H172.622C172.431 24.5861 172.176 25.3424 171.689 26.7719L170.068 31.4648H175.184ZM172.048 21.0449H173.245L179.151 37.36H177.275L175.751 32.9956H169.541L168.017 37.36H166.189L172.048 21.0449ZM192.608 37.36L185.209 27.0416C184.461 26.0125 183.735 24.9667 183.029 23.9049H182.982C183.029 24.7199 183.054 25.4093 183.054 26.6877V37.3519H181.322V21.0956H182.982L190.101 31.0187C190.869 32.0985 191.619 33.1919 192.352 34.2983H192.4C192.352 33.4325 192.352 32.7178 192.352 31.4394V21.0956H194.059V37.36H192.608ZM197.859 21.0956H199.591V28.547H199.639L205.496 21.0956H207.556L201.139 29.1432L207.971 37.36H205.801L199.639 29.9339H199.591V37.36H197.859V21.0956Z" fill="#141414"/>
</svg>
