<svg width="151" height="44" viewBox="0 0 151 44" fill="none" xmlns="http://www.w3.org/2000/svg">
<rect width="151" height="43.7285" rx="21.8643" fill="#141414"/>
<path d="M30.4273 14.9908H24.8438V12.1621H39.0364V14.9908H33.4528V29.3802H30.4273V14.9908Z" fill="white"/>
<path d="M50.7265 14.9908H45.1429V12.1621H59.3355V14.9908H53.752V29.3802H50.7265V14.9908Z" fill="white"/>
<path d="M81.608 12.1621V29.3802H79.1974L69.7275 17.4505V29.3802H66.8988V12.1621H69.3093L78.7793 24.141V12.1621H81.608Z" fill="white"/>
<path d="M102.416 28.4209V12.1621H105.244V19.0002C106.048 18.3606 107.023 18.0409 108.171 18.0409C109.795 18.0409 111.074 18.5656 112.009 19.6151C112.96 20.6318 113.435 21.9846 113.435 23.6736C113.435 25.4938 112.861 26.9451 111.713 28.0274C110.582 29.1096 109.049 29.6508 107.114 29.6508C106.261 29.6508 105.4 29.536 104.531 29.3064C103.678 29.0768 102.973 28.7817 102.416 28.4209ZM107.507 20.6974C106.605 20.6974 105.851 21.0499 105.244 21.7551V26.4531C105.851 26.8303 106.523 27.0189 107.261 27.0189C108.196 27.0189 108.95 26.7401 109.524 26.1826C110.115 25.6086 110.41 24.8379 110.41 23.8704C110.41 22.8701 110.139 22.0912 109.598 21.5337C109.057 20.9761 108.36 20.6974 107.507 20.6974Z" fill="white"/>
<path d="M124.142 18.3114H127.364L123.01 29.3802C122.223 31.2988 121.518 32.5943 120.895 33.2666C120.288 33.9553 119.567 34.2997 118.73 34.2997C117.943 34.2997 117.148 34.0127 116.344 33.4388L117.254 31.2988C117.681 31.5612 118.066 31.6924 118.411 31.6924C119.083 31.6924 119.649 31.1184 120.108 29.9705L120.354 29.3802L115.237 18.3114H118.632L121.215 24.3624C121.247 24.4444 121.428 24.9773 121.756 25.9612C121.854 25.3545 121.985 24.8133 122.149 24.3378L124.142 18.3114Z" fill="white"/>
<rect x="89.5078" y="19.8154" width="4.78281" height="4.78281" fill="white"/>
</svg>
