<svg width="76" height="74" viewBox="0 0 76 74" fill="none" xmlns="http://www.w3.org/2000/svg">
<path d="M37.9961 69.6393C19.9157 69.6393 5.04966 54.8393 5.04966 37C5.04966 33.3 5.71931 29.7321 6.92467 26.2964L26.2104 63.2964C26.4782 63.825 26.7461 64.2214 27.4157 64.2214C28.0854 64.2214 28.3532 63.825 28.6211 63.2964L37.5943 43.6071C37.7282 43.3429 37.8622 43.2107 37.9961 43.2107C38.264 43.2107 38.264 43.475 38.3979 43.6071L47.505 63.2964C47.7729 63.825 48.0407 64.2214 48.7104 64.2214C49.38 64.2214 49.6479 63.825 49.9157 63.2964L69.2015 26.2964C70.4068 29.6 71.0764 33.1679 71.0764 37C70.9425 54.8393 56.0765 69.6393 37.9961 69.6393ZM37.9961 28.5429C37.7282 28.5429 37.7282 28.2786 37.5943 28.1464L27.2818 6.21071C30.63 5.02143 34.2461 4.36071 37.9961 4.36071C41.7461 4.36071 45.3622 5.02143 48.7104 6.21071L38.3979 28.1464C38.264 28.2786 38.264 28.5429 37.9961 28.5429ZM27.1479 52.3286C26.88 52.3286 26.88 52.0643 26.7461 51.9321L9.87109 19.9536C12.8175 15.1964 17.1032 11.2321 22.0586 8.45714L33.9782 33.8286C34.2461 34.3571 34.514 34.4893 34.9157 34.4893H41.0765C41.4782 34.4893 41.7461 34.3571 42.014 33.8286L53.7997 8.45714C58.755 11.2321 63.0407 15.1964 65.9872 19.9536L49.2461 51.9321C49.1122 52.1964 48.9782 52.3286 48.8443 52.3286C48.5765 52.3286 48.5765 52.0643 48.4425 51.9321L42.014 37.925C41.7461 37.3964 41.4782 37.2643 41.0765 37.2643H34.9157C34.514 37.2643 34.2461 37.3964 33.9782 37.925L27.5497 51.9321C27.4157 52.0643 27.4157 52.3286 27.1479 52.3286ZM37.9961 74C58.755 74 75.4961 57.4821 75.4961 37C75.4961 16.5179 58.755 0 37.9961 0C17.2372 0 0.496094 16.5179 0.496094 37C0.496094 57.4821 17.2372 74 37.9961 74Z" fill="#141414"/>
</svg>
