<svg width="237" height="54" viewBox="0 0 237 54" fill="none" xmlns="http://www.w3.org/2000/svg">
<g clip-path="url(#clip0)">
<path d="M46.6275 0.774536H8.44717C4.20605 0.774536 0.767944 4.24226 0.767944 8.51991V45.4801C0.767944 49.7577 4.20605 53.2255 8.44717 53.2255H46.6275C50.8686 53.2255 54.3067 49.7577 54.3067 45.4801V8.51991C54.3067 4.24226 50.8686 0.774536 46.6275 0.774536Z" stroke="#141414" stroke-width="2" stroke-linejoin="round"/>
<path fill-rule="evenodd" clip-rule="evenodd" d="M37.3978 45.1106C39.4796 40.6772 46.4355 32.8838 39.4474 22.2757C36.4356 24.085 32.189 25.3738 28.5805 33.2191C28.4854 34.1381 28.3286 35.0495 28.1113 35.9471C28.0023 35.652 27.8894 35.3886 27.7788 35.1075C27.6675 35.3886 27.5553 35.6496 27.4455 35.9471C27.2283 35.0495 27.0715 34.1381 26.9763 33.2191C23.3671 25.3723 19.1213 24.0858 16.1087 22.2765C9.12061 32.8876 16.0765 40.6772 18.1583 45.1114C11.4098 40.7066 8.42334 33.5444 8.42334 29.3248C8.42334 25.1051 11.065 16.6061 14.5229 14.3251C24.2164 18.9359 27.1284 25.26 27.778 27.0275C28.4269 25.2631 31.3397 18.9398 41.0332 14.3251C44.4888 16.6053 47.1328 25.1043 47.1328 29.3248C47.1328 33.5452 44.1471 40.7066 37.3978 45.1106ZM28.0123 19.5888C26.8023 19.554 25.6294 19.1602 24.6401 18.4568C23.6508 17.7534 22.8889 16.7715 22.4497 15.6338C22.0106 14.4961 21.9136 13.2531 22.1709 12.0602C22.4281 10.8672 23.0283 9.77716 23.8963 8.92628C24.7644 8.07541 25.8618 7.50142 27.0514 7.27605C28.241 7.05069 29.4701 7.18394 30.5851 7.65916C31.7001 8.13437 32.6515 8.93048 33.3204 9.94798C33.9893 10.9655 34.346 12.1593 34.3461 13.3801C34.322 15.0505 33.6413 16.6428 32.4536 17.8071C31.2659 18.9713 29.6683 19.6122 28.0123 19.5888Z" fill="#141414"/>
<path fill-rule="evenodd" clip-rule="evenodd" d="M90.3322 30.3487H91.8941V6.88874L74.9922 26.8331V7.13272H73.4294V30.9405L90.3322 10.9961V30.3487ZM99.8544 7.13194H98.2925V30.3487H99.8544V18.3713H114.2V30.3487H115.763V7.13272H114.2V16.9825H99.8513V7.13272L99.8544 7.13194ZM132.739 30.3487H134.301V27.0771H135.299C144.106 27.0771 146.166 21.7862 146.166 18.0274C146.166 14.2685 144.106 8.97767 135.299 8.97767H134.301V6.18933H132.739V8.97767H131.745C122.938 8.97767 120.879 14.2685 120.879 18.0274C120.879 21.7862 122.938 27.0771 131.745 27.0771H132.739V30.3487ZM132.739 25.6845H131.674C124.359 25.6845 122.513 21.3687 122.513 18.0266C122.513 14.6845 124.356 10.3687 131.674 10.3687H132.739V25.6845ZM134.301 10.3695H135.367C142.681 10.3695 144.528 14.6852 144.528 18.0274C144.528 21.3695 142.681 25.6852 135.367 25.6852H134.301V10.3695ZM155.888 19.3146C159.972 19.3146 162.777 17.0522 162.777 13.1888C162.777 9.22087 159.723 7.13272 155.853 7.13272H151.272V30.3487H152.835V19.3146H155.888ZM152.835 8.52456H155.711C159.155 8.52456 161.144 10.3347 161.144 13.2237C161.144 16.1476 159.049 17.9228 155.96 17.9228H152.835V8.52456ZM181.102 30.3487H182.806L172.974 6.43641L162.995 30.3487H164.7L167.86 22.7257H177.944L181.102 30.3487ZM168.428 21.3339L172.938 10.3354L177.377 21.3339H168.428ZM212.638 30.3487L214.733 11.6924L224.036 31.1844L233.34 11.6924L235.435 30.3495H236.997L234.298 6.33262L224.04 27.8082L213.778 6.33185L211.08 30.3487H212.638Z" fill="#141414"/>
<path d="M195.988 23.3453C198.984 23.3453 201.412 20.896 201.412 17.8747C201.412 14.8534 198.984 12.4042 195.988 12.4042C192.993 12.4042 190.564 14.8534 190.564 17.8747C190.564 20.896 192.993 23.3453 195.988 23.3453Z" fill="#141414"/>
<path fill-rule="evenodd" clip-rule="evenodd" d="M73.2336 48.3459H74.6251V43.6089H76.8959V42.32H73.2336V48.3459ZM80.2724 47.6442C80.4889 47.9141 80.7609 48.1333 81.0698 48.2866C81.3786 48.4399 81.7168 48.5236 82.0609 48.5318C82.4631 48.5154 82.858 48.4181 83.2225 48.2457C83.587 48.0733 83.9136 47.8293 84.1833 47.5279C84.453 47.2264 84.6604 46.8738 84.7932 46.4905C84.926 46.1072 84.9816 45.701 84.9567 45.2958C84.9829 44.8941 84.9271 44.4912 84.7927 44.1122C84.6584 43.7331 84.4483 43.3858 84.1756 43.0919C83.9029 42.798 83.5733 42.5636 83.2072 42.4032C82.8411 42.2429 82.4462 42.16 82.0471 42.1597C81.7095 42.1526 81.3746 42.2223 81.0674 42.3636C80.7601 42.5049 80.4884 42.7143 80.2724 42.9761V42.32H78.8809V51.6276H80.2724V47.6488V47.6442ZM81.8766 43.4206C82.3369 43.486 82.7583 43.7168 83.0633 44.0707C83.3682 44.4246 83.5362 44.8777 83.5362 45.3465C83.5362 45.8154 83.3682 46.2685 83.0633 46.6223C82.7583 46.9762 82.3369 47.2071 81.8766 47.2724C81.4122 47.2129 80.9852 46.9845 80.6758 46.6302C80.3663 46.2759 80.1956 45.8199 80.1956 45.3477C80.1956 44.8755 80.3663 44.4195 80.6758 44.0652C80.9852 43.7108 81.4122 43.4825 81.8766 43.423V43.4206ZM86.9549 51.6253H88.5168L93.2726 42.3185H91.7106L89.979 45.8411L88.2757 42.3185H86.6001L89.1557 47.4018L86.9549 51.6253ZM95.2285 42.32V48.3459H96.6192V43.6089H99.0328V48.3459H100.424V42.32H95.2285ZM103.175 42.32V48.3459H104.566V43.6089H106.979V48.3459H108.371V42.32H103.175ZM115.495 43.0218C115.287 42.7482 115.018 42.5279 114.71 42.3787C114.401 42.2295 114.063 42.1555 113.721 42.1628C113.319 42.1628 112.922 42.2465 112.554 42.4084C112.186 42.5703 111.855 42.8071 111.582 43.104C111.309 43.4008 111.1 43.7513 110.967 44.1335C110.834 44.5157 110.781 44.9214 110.811 45.3252C110.781 45.7303 110.833 46.1373 110.964 46.5214C111.095 46.9055 111.302 47.2585 111.573 47.5589C111.844 47.8592 112.174 48.1005 112.54 48.2679C112.907 48.4354 113.304 48.5254 113.707 48.5326C114.047 48.5384 114.383 48.4682 114.693 48.3271C115.002 48.1859 115.276 47.9773 115.496 47.7162V48.3459H116.887V42.32H115.495V43.0218ZM113.891 43.423C114.358 43.4804 114.787 43.708 115.098 44.0628C115.41 44.4176 115.582 44.875 115.582 45.3489C115.582 45.8227 115.41 46.2801 115.098 46.6349C114.787 46.9897 114.358 47.2173 113.891 47.2747C113.431 47.2096 113.009 46.9789 112.704 46.6252C112.399 46.2714 112.231 45.8184 112.231 45.3495C112.231 44.8807 112.399 44.4275 112.703 44.0735C113.008 43.7195 113.429 43.4885 113.89 43.423H113.891ZM123.935 42.32V48.3459H125.325V46.0998L125.555 45.8674L127.543 48.3459H129.303L126.549 44.9527L129.16 42.3192H127.317L125.325 44.4678V42.32H123.935ZM133.94 42.1651C133.317 42.1722 132.709 42.3652 132.194 42.72C131.679 43.0747 131.28 43.5752 131.047 44.1585C130.813 44.7418 130.756 45.3817 130.883 45.9975C131.01 46.6134 131.314 47.1777 131.758 47.6192C132.202 48.0608 132.766 48.3599 133.378 48.4788C133.991 48.5977 134.624 48.5312 135.199 48.2875C135.774 48.0438 136.265 47.634 136.609 47.1096C136.953 46.5852 137.136 45.9697 137.134 45.3407C137.143 44.9172 137.066 44.4962 136.909 44.1036C136.751 43.711 136.515 43.355 136.216 43.0575C135.917 42.76 135.561 42.5272 135.17 42.3733C134.778 42.2195 134.36 42.1478 133.94 42.1628V42.1651ZM133.94 47.2771C133.556 47.3054 133.173 47.2164 132.84 47.0216C132.507 46.8268 132.24 46.5353 132.074 46.1852C131.908 45.835 131.85 45.4425 131.908 45.0588C131.966 44.675 132.138 44.3179 132.401 44.0341C132.663 43.7502 133.005 43.5528 133.38 43.4675C133.756 43.3823 134.148 43.4131 134.506 43.5562C134.863 43.6992 135.17 43.9476 135.386 44.2692C135.602 44.5907 135.716 44.9703 135.715 45.3585C135.741 45.6058 135.713 45.8558 135.635 46.0915C135.557 46.3273 135.429 46.5433 135.261 46.725C135.093 46.9067 134.888 47.0498 134.66 47.1447C134.432 47.2395 134.187 47.2839 133.94 47.2747V47.2771ZM138.891 48.3506H140.311L140.907 45.3299L142.809 48.8091L144.711 45.3299L145.308 48.3506H146.728L145.279 41.7786L142.809 46.3747L140.339 41.7786L138.891 48.3506ZM148.797 42.3223V48.3459H150.189V43.6089H152.602V48.3459H153.993V42.32H148.797V42.3223ZM161.116 43.0241C160.908 42.7505 160.639 42.5301 160.331 42.3809C160.022 42.2317 159.683 42.1578 159.342 42.1651C158.94 42.1652 158.543 42.2488 158.174 42.4108C157.806 42.5729 157.475 42.8098 157.202 43.1068C156.929 43.4038 156.72 43.7545 156.587 44.1369C156.455 44.5193 156.402 44.9252 156.432 45.3291C156.401 45.7341 156.453 46.1412 156.584 46.5253C156.715 46.9094 156.923 47.2624 157.194 47.5627C157.465 47.8631 157.794 48.1043 158.161 48.2718C158.528 48.4392 158.925 48.5293 159.328 48.5365C159.667 48.5423 160.004 48.472 160.313 48.3309C160.622 48.1897 160.896 47.9811 161.116 47.7201V48.3459H162.508V42.32H161.116V43.0218V43.0241ZM159.512 43.4253C159.978 43.4828 160.408 43.7104 160.719 44.0651C161.03 44.4199 161.202 44.8774 161.202 45.3512C161.202 45.825 161.03 46.2824 160.719 46.6372C160.408 46.992 159.978 47.2196 159.512 47.2771C159.05 47.2137 158.626 46.9837 158.32 46.6295C158.013 46.2753 157.844 45.821 157.843 45.3507C157.843 44.8804 158.012 44.4259 158.318 44.0715C158.625 43.7171 159.048 43.4867 159.51 43.423L159.512 43.4253ZM165.257 48.3459H166.648V45.8426H169.118V48.3459H170.509V42.32H169.118V44.5507H166.648V42.32H165.257V48.3459ZM173.26 42.3177V48.8037L177.349 44.8373V48.3459H178.739V41.7763L174.651 45.7427V42.32H173.26V42.3177ZM181.49 42.3177V48.8037L185.578 44.8373V48.3459H186.97V41.7763L182.881 45.7427V42.32H181.49V42.3177ZM181.945 39.7114C182.101 40.2022 182.408 40.6302 182.822 40.9338C183.235 41.2374 183.733 41.401 184.244 41.401C184.755 41.401 185.253 41.2374 185.667 40.9338C186.08 40.6302 186.387 40.2022 186.544 39.7114L185.408 39.3822C185.361 39.6544 185.217 39.8997 185.002 40.0711C184.788 40.2426 184.518 40.3283 184.244 40.3117C183.972 40.3237 183.704 40.2364 183.491 40.0658C183.277 39.8951 183.131 39.6524 183.08 39.3822L181.945 39.7114Z" fill="#141414"/>
</g>
<defs>
<clipPath id="clip0">
<rect width="237" height="54" fill="white"/>
</clipPath>
</defs>
</svg>
