<svg width="25" height="26" viewBox="0 0 25 26" fill="none" xmlns="http://www.w3.org/2000/svg">
<path fill-rule="evenodd" clip-rule="evenodd" d="M8 2C4.68629 2 2 4.68629 2 8V17.1325C2 20.4462 4.68629 23.1325 8 23.1325H16.1883C19.502 23.1325 22.1883 20.4462 22.1883 17.1325V7.99999C22.1883 4.68629 19.502 2 16.1883 2H8ZM0 8C0 3.58172 3.58172 0 8 0H16.1883C20.6066 0 24.1883 3.58171 24.1883 7.99999V17.1325C24.1883 21.5508 20.6066 25.1325 16.1883 25.1325H8C3.58172 25.1325 0 21.5508 0 17.1325V8ZM11.8589 16.9395C14.1438 16.9395 15.9961 15.0872 15.9961 12.8023C15.9961 10.5174 14.1438 8.6651 11.8589 8.6651C9.57397 8.6651 7.72168 10.5174 7.72168 12.8023C7.72168 15.0872 9.57397 16.9395 11.8589 16.9395ZM11.8589 18.9395C15.2484 18.9395 17.9961 16.1918 17.9961 12.8023C17.9961 9.41282 15.2484 6.6651 11.8589 6.6651C8.4694 6.6651 5.72168 9.41282 5.72168 12.8023C5.72168 16.1918 8.4694 18.9395 11.8589 18.9395ZM18.4671 7.1372C19.2493 7.1372 19.8834 6.50311 19.8834 5.72092C19.8834 4.93873 19.2493 4.30465 18.4671 4.30465C17.6849 4.30465 17.0508 4.93873 17.0508 5.72092C17.0508 6.50311 17.6849 7.1372 18.4671 7.1372Z" fill="#141414"/>
</svg>
