<svg width="26" height="26" viewBox="0 0 26 26" fill="none" xmlns="http://www.w3.org/2000/svg">
<path d="M13.0012 0C9.47058 0 9.02749 0.0154375 7.64082 0.0785418C6.25684 0.141917 5.31217 0.361021 4.48558 0.682502C3.63055 1.01454 2.90525 1.45871 2.18266 2.18157C1.45953 2.90415 1.01536 3.62945 0.682235 4.4842C0.359941 5.31105 0.140564 6.25599 0.0782715 7.6394C0.0162501 9.02609 0 9.46943 0 13C0 16.5307 0.0157085 16.9723 0.0785423 18.3591C0.142189 19.7431 0.361295 20.6877 0.682506 21.5143C1.01482 22.3693 1.45899 23.0946 2.18184 23.8172C2.90416 24.5403 3.62947 24.9855 4.48395 25.3175C5.31108 25.6391 6.25602 25.8581 7.63973 25.9215C9.0264 25.9846 9.46923 26 12.9996 26C16.5304 26 16.9723 25.9846 18.3589 25.9215C19.7429 25.8581 20.6886 25.6391 21.5157 25.3175C22.3704 24.9855 23.0947 24.5403 23.817 23.8172C24.5401 23.0946 24.9844 22.3693 25.3175 21.5144C25.637 20.6877 25.8564 19.7427 25.9214 18.3592C25.9837 16.9726 26 16.5307 26 13C26 9.46943 25.9837 9.02635 25.9214 7.63968C25.8564 6.25573 25.637 5.31105 25.3175 4.48446C24.9844 3.62945 24.5401 2.90415 23.817 2.18157C23.0939 1.45844 22.3708 1.01427 21.5149 0.682502C20.6862 0.361021 19.7409 0.141917 18.3569 0.0785418C16.9703 0.0154375 16.5288 0 12.9971 0H13.0012ZM11.8347 2.34169C12.1808 2.34116 12.567 2.34169 13.0009 2.34169C16.4719 2.34169 16.8834 2.35416 18.254 2.41644C19.5215 2.47441 20.2095 2.68619 20.6678 2.86414C21.2744 3.09976 21.707 3.38143 22.1616 3.83642C22.6166 4.29143 22.8984 4.72476 23.1345 5.33143C23.3124 5.78913 23.5245 6.47705 23.5822 7.74456C23.6444 9.11497 23.6581 9.52664 23.6581 12.996C23.6581 16.4653 23.6444 16.8771 23.5822 18.2474C23.5242 19.5151 23.3124 20.2029 23.1345 20.6607C22.8989 21.2673 22.6166 21.6994 22.1616 22.154C21.7066 22.609 21.2747 22.8906 20.6678 23.1262C20.21 23.305 19.5215 23.5162 18.254 23.5742C16.8835 23.6365 16.4719 23.6501 13.0009 23.6501C9.52961 23.6501 9.11822 23.6365 7.74779 23.5742C6.48027 23.5157 5.79235 23.304 5.33383 23.1261C4.72716 22.8905 4.29383 22.6087 3.83882 22.1537C3.38381 21.6987 3.10215 21.2665 2.86598 20.6595C2.68804 20.2018 2.47598 19.5139 2.41828 18.2465C2.35599 16.876 2.34353 16.4644 2.34353 12.9928C2.34353 9.52123 2.35599 9.11172 2.41828 7.74131C2.47624 6.4738 2.68804 5.78588 2.86598 5.32764C3.1016 4.72098 3.38381 4.28763 3.83882 3.83264C4.29383 3.37763 4.72716 3.09596 5.33383 2.8598C5.79208 2.68105 6.48027 2.46979 7.74779 2.41157C8.94704 2.35741 9.4118 2.34116 11.8347 2.33844V2.34169ZM19.9401 4.50224C19.0789 4.50224 18.3801 5.20018 18.3801 6.06169C18.3801 6.92294 19.0789 7.62169 19.9401 7.62169C20.8014 7.62169 21.5001 6.92294 21.5001 6.06169C21.5001 5.20044 20.8014 4.50169 19.9401 4.50169V4.50224ZM13.0008 6.32471C9.31396 6.32471 6.32475 9.3139 6.32475 13.0008C6.32475 16.6876 9.31396 19.6755 13.0008 19.6755C16.6877 19.6755 19.6759 16.6876 19.6759 13.0008C19.6759 9.3139 16.6874 6.32471 13.0006 6.32471H13.0008ZM13.0017 8.66569C15.3948 8.66569 17.335 10.6057 17.335 12.999C17.335 15.3921 15.3948 17.3324 13.0017 17.3324C10.6083 17.3324 8.66829 15.3921 8.66829 12.999C8.66829 10.6057 10.6083 8.66569 13.0017 8.66569Z" fill="#141414"/>
</svg>
