<svg width="1054" height="124" viewBox="0 0 1054 124" fill="none" xmlns="http://www.w3.org/2000/svg">
<path d="M118.35 0H0V120.542H118.35V0Z" fill="#E7131E"/>
<path d="M54.7917 2.33281C54.991 2.43428 55.0906 2.63721 55.1902 2.84014C55.5887 3.44894 55.8876 4.56507 56.1864 6.28997C57.2824 14.0014 60.1716 30.4389 50.508 38.5562C42.9368 44.8471 28.0932 41.2958 21.1197 36.8313C17.9319 34.802 6.87388 26.0759 3.2875 16.741C1.8928 13.1897 4.88145 11.1604 6.47539 11.8706C8.46779 12.8853 10.7591 16.1322 12.1538 18.0601C21.0201 30.1346 31.1815 36.9328 40.4463 36.9328C55.9872 36.9328 53.6959 18.263 53.2974 3.14454C53.2974 3.04308 53.2974 2.33281 53.9948 2.12988C54.0944 2.23135 54.6921 2.33281 54.7917 2.33281ZM33.4728 58.7481C38.3542 57.0228 45.7262 54.3849 49.9103 58.4437C55.4891 63.9229 54.0944 75.1854 51.305 86.6509C48.3163 98.9286 42.1398 111.51 37.6569 120.541H38.4538C42.4387 115.366 46.6228 108.669 50.7073 100.755C53.5963 95.1742 59.0753 78.9398 59.0753 65.5461C59.0753 59.8641 58.6768 54.182 55.8875 50.9351C52.1019 46.4706 44.6304 46.775 40.1474 47.5867C25.5031 50.0219 10.8587 60.9801 0 74.8811V84.3175C7.47162 73.0549 25.0049 61.6903 33.4728 58.7481ZM118.35 92.1306C104.204 90.4053 83.4824 85.4335 75.9117 68.286C72.5242 60.6758 73.7197 51.0366 79.2986 45.3545C87.4673 36.9328 104.104 33.5844 118.35 33.8888V21.104C103.407 22.0172 71.5283 26.7862 67.9419 56.3128C65.4511 76.7073 83.3832 87.1588 86.4714 89.6951C94.9389 94.4641 106.097 97.3054 118.35 97.9141V92.1306Z" fill="white"/>
<path d="M320.284 43.2262V55.8079H406.157V67.8823H320.284V83.3051H409.943V95.3799H308.429V31.1517H409.843V43.2262H320.284ZM276.35 31.1517L224.946 81.0731L173.541 31.1517H158.897V95.2784H170.752V45.8643L221.659 95.2784H228.134L279.14 45.8643V95.2784H290.995V31.1517H276.35ZM544.93 58.4459H474.199V70.5207H533.075V76.6086C523.411 81.276 507.771 84.726 488.345 84.726C454.972 84.726 432.756 71.7382 432.756 63.2149C432.756 52.4596 451.884 41.5012 488.345 41.5012C511.656 41.5012 527.795 45.9657 536.462 51.9522L543.037 42.0086C531.979 34.3986 513.649 29.5282 488.345 29.5282C443.814 29.5282 421.001 44.6467 421.001 63.3163C421.001 81.8848 451.186 96.9017 488.345 96.9017C512.055 96.9017 532.975 91.8284 544.93 83.4066V58.4459ZM660.39 80.8702H580.692L565.254 95.2784H547.719L620.541 27.3975L693.363 95.2784H675.834L660.39 80.8702ZM647.539 68.8969L620.643 43.7335L593.746 68.8969H647.539ZM782.626 31.1517H662.78V43.2262H716.776V95.2784H728.63V43.2262H782.626V31.1517ZM850.071 29.5282C894.598 29.5282 917.414 44.6467 917.414 63.3163C917.414 81.9862 887.231 96.9017 850.071 96.9017C812.809 96.9017 782.728 81.9862 782.728 63.3163C782.728 44.6467 805.538 29.5282 850.071 29.5282ZM905.561 63.2149C905.561 52.4596 886.431 41.5012 849.969 41.5012C813.508 41.5012 794.384 52.4596 794.384 63.2149C794.384 71.7382 816.495 84.726 849.969 84.726C883.444 84.726 905.561 71.8396 905.561 63.2149ZM1050.21 52.2566C1050.21 63.925 1037.16 73.3614 1021.12 73.3614H942.518V95.2784H930.665V31.1517H1021.12C1037.16 31.1517 1050.21 40.588 1050.21 52.2566ZM1038.35 52.2566C1038.35 47.8936 1031.48 43.2262 1021.12 43.2262H942.518V61.2872H1021.12C1031.48 61.2872 1038.35 56.6198 1038.35 52.2566Z" fill="black"/>
</svg>
