<svg width="237" height="28" viewBox="0 0 237 28" fill="none" xmlns="http://www.w3.org/2000/svg">
<path d="M26.6119 0H0V27.2191H26.6119V0Z" fill="#E7131E"/>
<path d="M12.3203 0.527269C12.3651 0.55018 12.3875 0.596003 12.4099 0.641827C12.4995 0.779297 12.5668 1.03133 12.634 1.42082C12.8804 3.16211 13.53 6.87381 11.3571 8.70675C9.65467 10.1273 6.31698 9.32536 4.74894 8.31725C4.03212 7.85901 1.54565 5.88862 0.739221 3.78074C0.425611 2.97882 1.09763 2.52058 1.45604 2.68097C1.90405 2.91009 2.41926 3.64326 2.73288 4.07858C4.72653 6.80508 7.0114 8.34017 9.09465 8.34017C12.5891 8.34017 12.0739 4.12441 11.9843 0.710562C11.9843 0.68765 11.9843 0.527269 12.1411 0.481445C12.1635 0.504357 12.2979 0.527269 12.3203 0.527269ZM7.52661 13.2662C8.62424 12.8766 10.2819 12.281 11.2227 13.1975C12.4772 14.4347 12.1635 16.9779 11.5363 19.5668C10.8643 22.3392 9.47546 25.1802 8.46744 27.2194H8.64664C9.54266 26.0509 10.4835 24.5388 11.4019 22.7516C12.0515 21.4915 13.2835 17.8256 13.2835 14.8012C13.2835 13.5182 13.1939 12.2352 12.5667 11.502C11.7155 10.4939 10.0355 10.5626 9.02744 10.7459C5.73456 11.2958 2.44167 13.7702 0 16.9091V19.0399C1.68005 16.4968 5.62255 13.9306 7.52661 13.2662ZM26.6119 20.8042C23.4311 20.4146 18.7717 19.2919 17.0693 15.4199C16.3076 13.7015 16.5764 11.5249 17.8309 10.2418C19.6677 8.34017 23.4086 7.58408 26.6119 7.65281V4.76593C23.2519 4.97214 16.0837 6.04899 15.2772 12.7163C14.7172 17.3215 18.7494 19.6815 19.4438 20.2542C21.3477 21.3311 23.8566 21.9727 26.6119 22.1101V20.8042Z" fill="white"/>
<path d="M72.0185 9.76075V12.6018H91.3278V15.3283H72.0185V18.8108H92.1791V21.5374H69.3528V7.03425H92.1567V9.76075H72.0185ZM62.1398 7.03425L50.5812 18.3068L39.0224 7.03425H35.7295V21.5145H38.3952V10.3564L49.8419 21.5145H51.298L62.767 10.3564V21.5145H65.4327V7.03425H62.1398ZM122.532 13.1975H106.627V15.924H119.866V17.2987C117.693 18.3527 114.176 19.1317 109.808 19.1317C102.304 19.1317 97.3088 16.1989 97.3088 14.2743C97.3088 11.8457 101.61 9.37124 109.808 9.37124C115.05 9.37124 118.679 10.3794 120.628 11.7311L122.106 9.4858C119.62 7.76743 115.498 6.66767 109.808 6.66767C99.7953 6.66767 94.6656 10.0815 94.6656 14.2972C94.6656 18.4901 101.453 21.881 109.808 21.881C115.14 21.881 119.844 20.7355 122.532 18.8337V13.1975ZM148.494 18.261H130.573L127.102 21.5145H123.159L139.534 6.18652L155.908 21.5145H151.967L148.494 18.261ZM145.604 15.5574L139.557 9.87531L133.509 15.5574H145.604ZM175.98 7.03425H149.031V9.76075H161.173V21.5145H163.838V9.76075H175.98V7.03425ZM191.145 6.66767C201.158 6.66767 206.288 10.0815 206.288 14.2972C206.288 18.513 199.501 21.881 191.145 21.881C182.767 21.881 176.003 18.513 176.003 14.2972C176.003 10.0815 181.132 6.66767 191.145 6.66767ZM203.623 14.2743C203.623 11.8457 199.321 9.37124 191.122 9.37124C182.924 9.37124 178.623 11.8457 178.623 14.2743C178.623 16.1989 183.595 19.1317 191.122 19.1317C198.649 19.1317 203.623 16.2219 203.623 14.2743ZM236.147 11.7999C236.147 14.4347 233.213 16.5655 229.606 16.5655H211.933V21.5145H209.267V7.03425H229.606C233.213 7.03425 236.147 9.16504 236.147 11.7999ZM233.482 11.7999C233.482 10.8147 231.937 9.76075 229.606 9.76075H211.933V13.8391H229.606C231.937 13.8391 233.482 12.7851 233.482 11.7999Z" fill="black"/>
</svg>
