<svg width="662" height="440" viewBox="0 0 662 440" fill="none" xmlns="http://www.w3.org/2000/svg">
<rect x="166.5" y="182.5" width="295" height="75" rx="7.5" stroke="#C5CDCF" stroke-width="5"/>
<g filter="url(#filter0_d)">
<path d="M231.564 210.964L229.193 215.359C228.829 216.035 229.033 216.869 229.672 217.313L231.498 218.582C231.911 218.87 232.157 219.333 232.157 219.827V221.639C232.157 222.105 231.938 222.546 231.562 222.836L229.595 224.355C228.995 224.819 228.826 225.633 229.193 226.286L231.447 230.29C231.846 230.999 232.744 231.285 233.499 230.944L235.989 229.817C236.472 229.598 237.037 229.631 237.49 229.905L239.555 231.151C239.973 231.403 240.246 231.831 240.292 232.307L240.516 234.613C240.592 235.399 241.273 236 242.087 236H247.42C248.235 236 248.915 235.399 248.992 234.613L249.217 232.289C249.262 231.823 249.525 231.403 249.929 231.148L251.819 229.958C252.301 229.655 252.915 229.629 253.422 229.891L255.297 230.861C256.043 231.247 256.97 230.994 257.399 230.288L259.738 226.44C260.172 225.726 259.941 224.806 259.217 224.366L257.371 223.244C256.911 222.964 256.631 222.474 256.631 221.947V219.862C256.631 219.349 256.896 218.87 257.337 218.586L259.294 217.326C259.984 216.882 260.203 215.997 259.796 215.297L257.263 210.95C256.895 210.318 256.12 210.024 255.408 210.245L253.285 210.904C252.85 211.039 252.376 210.985 251.986 210.755L249.963 209.566C249.538 209.317 249.26 208.889 249.21 208.41L249 206.378C248.919 205.596 248.24 205 247.429 205H242.229C241.357 205 240.651 205.685 240.651 206.531V208.238C240.651 208.811 240.321 209.335 239.796 209.598L237.315 210.84C236.961 211.018 236.55 211.059 236.166 210.954L233.388 210.2C232.67 210.005 231.909 210.324 231.564 210.964Z" stroke="#7C267B" stroke-width="3"/>
</g>
<circle cx="243.873" cy="220.365" r="5.5" stroke="#DC40B1" stroke-width="3"/>
<path d="M279.28 227H276.328V210.2C276.616 210.2 277.376 210.192 278.608 210.176C279.856 210.16 280.688 210.152 281.104 210.152C282.288 210.152 283.312 210.304 284.176 210.608C285.056 210.896 285.736 211.304 286.216 211.832C286.696 212.344 287.048 212.912 287.272 213.536C287.496 214.144 287.608 214.816 287.608 215.552C287.608 217.072 287.064 218.36 285.976 219.416C284.888 220.472 283.384 221 281.464 221C280.488 221 279.76 220.976 279.28 220.928V227ZM281.392 212.912C281.04 212.912 280.336 212.928 279.28 212.96V218.12C280.048 218.2 280.744 218.24 281.368 218.24C282.296 218.24 283.048 218.016 283.624 217.568C284.2 217.104 284.488 216.424 284.488 215.528C284.488 213.784 283.456 212.912 281.392 212.912ZM297.274 223.976L298.066 225.92C297.01 226.816 295.634 227.264 293.938 227.264C292.194 227.264 290.786 226.744 289.714 225.704C288.658 224.664 288.13 223.296 288.13 221.6C288.13 219.984 288.65 218.64 289.69 217.568C290.73 216.48 292.114 215.936 293.842 215.936C295.266 215.936 296.474 216.408 297.466 217.352C298.458 218.28 298.954 219.48 298.954 220.952C298.954 221.56 298.898 222.056 298.786 222.44H290.986C291.098 223.24 291.45 223.864 292.042 224.312C292.634 224.744 293.362 224.96 294.226 224.96C295.442 224.96 296.458 224.632 297.274 223.976ZM293.722 218.24C292.154 218.24 291.21 219.024 290.89 220.592H296.194C296.21 219.92 295.994 219.36 295.546 218.912C295.098 218.464 294.49 218.24 293.722 218.24ZM302.017 218.984L301.321 216.968C302.489 216.28 303.761 215.936 305.137 215.936C306.673 215.936 307.777 216.312 308.449 217.064C309.121 217.816 309.457 218.936 309.457 220.424V227H307.057V225.752C306.401 226.68 305.337 227.144 303.865 227.144C302.857 227.144 302.041 226.848 301.417 226.256C300.793 225.664 300.481 224.856 300.481 223.832C300.481 222.696 300.849 221.832 301.585 221.24C302.321 220.632 303.265 220.328 304.417 220.328C305.409 220.328 306.225 220.56 306.865 221.024C306.897 220.08 306.761 219.384 306.457 218.936C306.153 218.472 305.617 218.24 304.849 218.24C304.049 218.24 303.105 218.488 302.017 218.984ZM304.777 224.816C305.705 224.816 306.401 224.488 306.865 223.832V222.728C306.401 222.376 305.769 222.2 304.969 222.2C304.473 222.2 304.057 222.32 303.721 222.56C303.401 222.784 303.241 223.112 303.241 223.544C303.241 223.944 303.385 224.256 303.673 224.48C303.961 224.704 304.329 224.816 304.777 224.816ZM319.39 227V218.96H316.534L316.462 220.112C316.286 222.048 315.99 223.536 315.574 224.576C315.174 225.616 314.662 226.32 314.038 226.688C313.43 227.04 312.614 227.216 311.59 227.216L311.35 224.528C311.702 224.56 312.03 224.464 312.334 224.24C312.654 224 312.958 223.488 313.246 222.704C313.534 221.904 313.718 220.856 313.798 219.56L313.966 216.2H322.15V227H319.39ZM327.984 227H325.224V216.2H327.984V223.04L333.024 216.2H335.784V227H333.024V220.16L327.984 227ZM342.68 227.264C341.736 227.264 340.816 227.096 339.92 226.76C339.024 226.408 338.376 225.976 337.976 225.464L339.392 223.736C339.712 224.104 340.168 224.416 340.76 224.672C341.368 224.928 341.928 225.056 342.44 225.056C343.144 225.056 343.688 224.936 344.072 224.696C344.456 224.456 344.648 224.136 344.648 223.736C344.648 223.368 344.504 223.072 344.216 222.848C343.928 222.624 343.528 222.512 343.016 222.512H341V220.664H342.896C343.328 220.664 343.672 220.536 343.928 220.28C344.2 220.024 344.336 219.712 344.336 219.344C344.336 218.56 343.704 218.168 342.44 218.168C341.448 218.168 340.464 218.584 339.488 219.416L338.336 217.76C339.376 216.544 340.92 215.936 342.968 215.936C344.376 215.936 345.448 216.208 346.184 216.752C346.92 217.296 347.288 218.048 347.288 219.008C347.288 219.536 347.112 220.016 346.76 220.448C346.408 220.88 345.92 221.2 345.296 221.408V221.456C346.032 221.6 346.592 221.904 346.976 222.368C347.376 222.816 347.576 223.36 347.576 224C347.576 225.008 347.128 225.808 346.232 226.4C345.336 226.976 344.152 227.264 342.68 227.264ZM351.024 218.984L350.328 216.968C351.496 216.28 352.768 215.936 354.144 215.936C355.68 215.936 356.784 216.312 357.456 217.064C358.128 217.816 358.464 218.936 358.464 220.424V227H356.064V225.752C355.408 226.68 354.344 227.144 352.872 227.144C351.864 227.144 351.048 226.848 350.424 226.256C349.8 225.664 349.488 224.856 349.488 223.832C349.488 222.696 349.856 221.832 350.592 221.24C351.328 220.632 352.272 220.328 353.424 220.328C354.416 220.328 355.232 220.56 355.872 221.024C355.904 220.08 355.768 219.384 355.464 218.936C355.16 218.472 354.624 218.24 353.856 218.24C353.056 218.24 352.112 218.488 351.024 218.984ZM353.784 224.816C354.712 224.816 355.408 224.488 355.872 223.832V222.728C355.408 222.376 354.776 222.2 353.976 222.2C353.48 222.2 353.064 222.32 352.728 222.56C352.408 222.784 352.248 223.112 352.248 223.544C352.248 223.944 352.392 224.256 352.68 224.48C352.968 224.704 353.336 224.816 353.784 224.816ZM361.294 227V216.2H364.054V224.432H368.494V216.2H371.254V224.432H373.054V229.52H370.462V227H361.294ZM377.648 227H374.888V216.2H377.648V223.04L382.688 216.2H385.448V227H382.688V220.16L377.648 227ZM393.808 216.2H397.336V227H394.576V223.76H393.04L390.808 227H387.64L390.52 223.16C389.976 222.968 389.488 222.608 389.056 222.08C388.64 221.536 388.432 220.856 388.432 220.04C388.432 218.904 388.864 217.984 389.728 217.28C390.608 216.56 391.968 216.2 393.808 216.2ZM391.384 220.232C391.384 220.664 391.56 221.024 391.912 221.312C392.28 221.584 392.688 221.72 393.136 221.72H394.576V218.6H393.352C392.728 218.6 392.24 218.76 391.888 219.08C391.552 219.4 391.384 219.784 391.384 220.232Z" fill="#141414"/>
<path d="M310 37H333C338.523 37 343 41.4772 343 47V78" stroke="#C5CDCF" stroke-width="4" stroke-linecap="round"/>
<path d="M334.5 66L341.682 78.5686C342.055 79.2204 342.986 79.2447 343.391 78.6132L351.5 66" stroke="#C5CDCF" stroke-width="4" stroke-linecap="round"/>
<path d="M389 127H412C417.523 127 422 131.477 422 137V168" stroke="#C5CDCF" stroke-width="4" stroke-linecap="round"/>
<path d="M413.5 156L420.682 168.569C421.055 169.22 421.986 169.245 422.391 168.613L430.5 156" stroke="#C5CDCF" stroke-width="4" stroke-linecap="round"/>
<path d="M474 217H497C502.523 217 507 221.477 507 227V258" stroke="#C5CDCF" stroke-width="4" stroke-linecap="round"/>
<path d="M498.5 246L505.682 258.569C506.055 259.22 506.986 259.245 507.391 258.613L515.5 246" stroke="#C5CDCF" stroke-width="4" stroke-linecap="round"/>
<path d="M558 307H581C586.523 307 591 311.477 591 317V348" stroke="#C5CDCF" stroke-width="4" stroke-linecap="round"/>
<path d="M582.5 336L589.682 348.569C590.055 349.22 590.986 349.245 591.391 348.613L599.5 336" stroke="#C5CDCF" stroke-width="4" stroke-linecap="round"/>
<rect x="364.5" y="362.5" width="295" height="75" rx="7.5" stroke="#C5CDCF" stroke-width="5"/>
<path d="M467.488 399.824V397.064H474.976C474.688 395.672 474.008 394.6 472.936 393.848C471.864 393.08 470.528 392.696 468.928 392.696C467.456 392.696 466.144 393.128 464.992 393.992L463.84 391.784C465.28 390.552 467.208 389.936 469.624 389.936C472.12 389.936 474.152 390.728 475.72 392.312C477.288 393.896 478.072 395.984 478.072 398.576C478.072 401.216 477.28 403.328 475.696 404.912C474.112 406.48 471.976 407.264 469.288 407.264C468.152 407.264 467.08 407.104 466.072 406.784C465.064 406.448 464.256 406.024 463.648 405.512L464.92 403.04C466.184 404.016 467.624 404.504 469.24 404.504C470.744 404.504 472.024 404.104 473.08 403.304C474.152 402.488 474.808 401.328 475.048 399.824H467.488ZM490.908 396.2L486.756 401.336L491.412 407H487.812L483.54 401.552L487.428 396.2H490.908ZM480.684 407V396.2H483.444V407H480.684ZM500.564 403.376L501.86 405.392C501.412 406 500.804 406.464 500.036 406.784C499.284 407.104 498.46 407.264 497.564 407.264C495.804 407.264 494.388 406.744 493.316 405.704C492.244 404.664 491.708 403.296 491.708 401.6C491.708 400 492.236 398.656 493.292 397.568C494.348 396.48 495.684 395.936 497.3 395.936C499.22 395.936 500.668 396.424 501.644 397.4L500.348 399.584C499.628 398.88 498.732 398.528 497.66 398.528C496.86 398.528 496.156 398.816 495.548 399.392C494.956 399.952 494.66 400.688 494.66 401.6C494.66 402.528 494.964 403.28 495.572 403.856C496.196 404.416 496.932 404.696 497.78 404.696C498.836 404.696 499.764 404.256 500.564 403.376ZM511.443 407V398.792H506.835V407H504.075V396.2H514.203V407H511.443ZM524.374 407V398.96H521.518L521.446 400.112C521.27 402.048 520.974 403.536 520.558 404.576C520.158 405.616 519.646 406.32 519.022 406.688C518.414 407.04 517.598 407.216 516.574 407.216L516.334 404.528C516.686 404.56 517.014 404.464 517.318 404.24C517.638 404 517.942 403.488 518.23 402.704C518.518 401.904 518.702 400.856 518.782 399.56L518.95 396.2H527.134V407H524.374ZM540.624 396.2L536.376 407C535.608 408.872 534.92 410.136 534.312 410.792C533.72 411.464 533.016 411.8 532.2 411.8C531.416 411.8 530.64 411.52 529.872 410.96L530.76 408.872C531.192 409.128 531.568 409.256 531.888 409.256C532.544 409.256 533.096 408.696 533.544 407.576L533.784 407L528.792 396.2H532.104L534.624 402.104C534.72 402.344 534.896 402.864 535.152 403.664C535.28 402.96 535.408 402.432 535.536 402.08L537.48 396.2H540.624ZM543.118 398.984L542.422 396.968C543.59 396.28 544.862 395.936 546.238 395.936C547.774 395.936 548.878 396.312 549.55 397.064C550.222 397.816 550.558 398.936 550.558 400.424V407H548.158V405.752C547.502 406.68 546.438 407.144 544.966 407.144C543.958 407.144 543.142 406.848 542.518 406.256C541.894 405.664 541.582 404.856 541.582 403.832C541.582 402.696 541.95 401.832 542.686 401.24C543.422 400.632 544.366 400.328 545.518 400.328C546.51 400.328 547.326 400.56 547.966 401.024C547.998 400.08 547.862 399.384 547.558 398.936C547.254 398.472 546.718 398.24 545.95 398.24C545.15 398.24 544.206 398.488 543.118 398.984ZM545.878 404.816C546.806 404.816 547.502 404.488 547.966 403.832V402.728C547.502 402.376 546.87 402.2 546.07 402.2C545.574 402.2 545.158 402.32 544.822 402.56C544.502 402.784 544.342 403.112 544.342 403.544C544.342 403.944 544.486 404.256 544.774 404.48C545.062 404.704 545.43 404.816 545.878 404.816ZM552.26 398.96V396.2H562.1V398.96H558.572V407H555.812V398.96H552.26ZM564.915 398.984L564.219 396.968C565.387 396.28 566.659 395.936 568.035 395.936C569.571 395.936 570.675 396.312 571.347 397.064C572.019 397.816 572.355 398.936 572.355 400.424V407H569.955V405.752C569.299 406.68 568.235 407.144 566.763 407.144C565.755 407.144 564.939 406.848 564.315 406.256C563.691 405.664 563.379 404.856 563.379 403.832C563.379 402.696 563.747 401.832 564.483 401.24C565.219 400.632 566.163 400.328 567.315 400.328C568.307 400.328 569.123 400.56 569.763 401.024C569.795 400.08 569.659 399.384 569.355 398.936C569.051 398.472 568.515 398.24 567.747 398.24C566.947 398.24 566.003 398.488 564.915 398.984ZM567.675 404.816C568.603 404.816 569.299 404.488 569.763 403.832V402.728C569.299 402.376 568.667 402.2 567.867 402.2C567.371 402.2 566.955 402.32 566.619 402.56C566.299 402.784 566.139 403.112 566.139 403.544C566.139 403.944 566.283 404.256 566.571 404.48C566.859 404.704 567.227 404.816 567.675 404.816ZM575.184 407V396.2H577.944V404.432H582.384V396.2H585.144V404.432H586.944V409.52H584.352V407H575.184ZM591.538 407H588.778V396.2H591.538V403.04L596.578 396.2H599.338V407H596.578V400.16L591.538 407ZM607.699 396.2H611.227V407H608.467V403.76H606.931L604.699 407H601.531L604.411 403.16C603.867 402.968 603.379 402.608 602.947 402.08C602.531 401.536 602.323 400.856 602.323 400.04C602.323 398.904 602.755 397.984 603.619 397.28C604.499 396.56 605.859 396.2 607.699 396.2ZM605.275 400.232C605.275 400.664 605.451 401.024 605.803 401.312C606.171 401.584 606.579 401.72 607.027 401.72H608.467V398.6H607.243C606.619 398.6 606.131 398.76 605.779 399.08C605.443 399.4 605.275 399.784 605.275 400.232Z" fill="#141414"/>
<g filter="url(#filter1_d)">
<path fill-rule="evenodd" clip-rule="evenodd" d="M424.575 386.078L413.839 392.331L424.575 398.111L435.41 392.331L424.575 386.078ZM437 394.883L426.071 400.713V412.743L429.649 410.772C429.957 411.74 430.407 412.646 430.976 413.466L425.295 416.596L424.568 416.996L423.842 416.593L410.041 408.919L410.186 408.658C410.068 408.444 410 408.197 410 407.934V392.078C410 391.446 410.392 390.904 410.946 390.684C411.115 390.495 411.319 390.327 411.558 390.188L423.315 383.34C424.09 382.889 425.047 382.887 425.823 383.335L439.25 391.084L440 391.517V392.383V397.552C439.83 397.543 439.658 397.539 439.486 397.539C438.629 397.539 437.796 397.643 437 397.837V394.883ZM423.071 412.731L413 407.132V395.287L423.071 400.709V412.731Z" fill="#7C267B"/>
</g>
<g filter="url(#filter2_d)">
<path d="M433.033 406.23L438.04 411.688C438.436 412.12 439.117 412.12 439.514 411.688L447.033 403.491" stroke="#DC40B1" stroke-width="4"/>
</g>
<rect x="2.5" y="2.5" width="295" height="75" rx="7.5" fill="#F6F4F2" stroke="#C5CDCF" stroke-width="5"/>
<path d="M135.168 47L142.272 30.152H144.864L151.968 47H148.824L147.072 42.704H139.896L138.144 47H135.168ZM143.496 33.968L141.024 39.944H145.944L143.496 33.968ZM161.18 47V42.872H156.452V47H153.692V36.2H156.452V40.28H161.18V36.2H163.94V47H161.18ZM167.845 38.984L167.149 36.968C168.317 36.28 169.589 35.936 170.965 35.936C172.501 35.936 173.605 36.312 174.277 37.064C174.949 37.816 175.285 38.936 175.285 40.424V47H172.885V45.752C172.229 46.68 171.165 47.144 169.693 47.144C168.685 47.144 167.869 46.848 167.245 46.256C166.621 45.664 166.309 44.856 166.309 43.832C166.309 42.696 166.677 41.832 167.413 41.24C168.149 40.632 169.093 40.328 170.245 40.328C171.237 40.328 172.053 40.56 172.693 41.024C172.725 40.08 172.589 39.384 172.285 38.936C171.981 38.472 171.445 38.24 170.677 38.24C169.877 38.24 168.933 38.488 167.845 38.984ZM170.605 44.816C171.533 44.816 172.229 44.488 172.693 43.832V42.728C172.229 42.376 171.597 42.2 170.797 42.2C170.301 42.2 169.885 42.32 169.549 42.56C169.229 42.784 169.069 43.112 169.069 43.544C169.069 43.944 169.213 44.256 169.501 44.48C169.789 44.704 170.157 44.816 170.605 44.816ZM185.218 47V38.96H182.362L182.29 40.112C182.114 42.048 181.818 43.536 181.402 44.576C181.002 45.616 180.49 46.32 179.866 46.688C179.258 47.04 178.442 47.216 177.418 47.216L177.178 44.528C177.53 44.56 177.858 44.464 178.162 44.24C178.482 44 178.786 43.488 179.074 42.704C179.362 41.904 179.546 40.856 179.626 39.56L179.794 36.2H187.978V47H185.218ZM193.812 47H191.052V36.2H193.812V43.04L198.852 36.2H201.612V47H198.852V40.16L193.812 47ZM208.508 47.264C207.564 47.264 206.644 47.096 205.748 46.76C204.852 46.408 204.204 45.976 203.804 45.464L205.22 43.736C205.54 44.104 205.996 44.416 206.588 44.672C207.196 44.928 207.756 45.056 208.268 45.056C208.972 45.056 209.516 44.936 209.9 44.696C210.284 44.456 210.476 44.136 210.476 43.736C210.476 43.368 210.332 43.072 210.044 42.848C209.756 42.624 209.356 42.512 208.844 42.512H206.828V40.664H208.724C209.156 40.664 209.5 40.536 209.756 40.28C210.028 40.024 210.164 39.712 210.164 39.344C210.164 38.56 209.532 38.168 208.268 38.168C207.276 38.168 206.292 38.584 205.316 39.416L204.164 37.76C205.204 36.544 206.748 35.936 208.796 35.936C210.204 35.936 211.276 36.208 212.012 36.752C212.748 37.296 213.116 38.048 213.116 39.008C213.116 39.536 212.94 40.016 212.588 40.448C212.236 40.88 211.748 41.2 211.124 41.408V41.456C211.86 41.6 212.42 41.904 212.804 42.368C213.204 42.816 213.404 43.36 213.404 44C213.404 45.008 212.956 45.808 212.06 46.4C211.164 46.976 209.98 47.264 208.508 47.264Z" fill="#141414"/>
<g filter="url(#filter3_d)">
<path d="M86 50V37C86 35.8954 86.8954 35 88 35H93C94.1046 35 95 35.8954 95 37V50C95 51.1046 94.1046 52 93 52H88C86.8954 52 86 51.1046 86 50Z" fill="#7C267B"/>
<path d="M97 50V43C97 41.8954 97.8954 41 99 41H103C104.105 41 105 41.8954 105 43V50C105 51.1046 104.105 52 103 52H99C97.8954 52 97 51.1046 97 50Z" fill="#7C267B"/>
<path d="M87 57.5H115" stroke="#7C267B" stroke-width="3" stroke-linecap="round"/>
<path d="M107 50V26C107 24.8954 107.895 24 109 24H113C114.105 24 115 24.8954 115 26V50C115 51.1046 114.105 52 113 52H109C107.895 52 107 51.1046 107 50Z" fill="#DC40B1"/>
</g>
<rect x="81.5" y="92.5" width="295" height="75" rx="7.5" stroke="#C5CDCF" stroke-width="5"/>
<path d="M176.768 135V120.96H169.28V135H166.328V118.2H179.72V135H176.768ZM183.583 139.8V124.2H186.343V125.232C186.695 124.864 187.167 124.56 187.759 124.32C188.367 124.064 189.007 123.936 189.679 123.936C191.151 123.936 192.335 124.448 193.231 125.472C194.127 126.496 194.575 127.816 194.575 129.432C194.575 131.112 194.047 132.504 192.991 133.608C191.935 134.712 190.559 135.264 188.863 135.264C187.791 135.264 186.951 135.088 186.343 134.736V139.8H183.583ZM188.815 126.528C187.871 126.528 187.047 126.92 186.343 127.704V132.072C186.983 132.488 187.743 132.696 188.623 132.696C189.551 132.696 190.287 132.4 190.831 131.808C191.375 131.2 191.647 130.432 191.647 129.504C191.647 128.624 191.399 127.912 190.903 127.368C190.407 126.808 189.711 126.528 188.815 126.528ZM197.902 133.68C196.83 132.608 196.294 131.248 196.294 129.6C196.294 127.952 196.83 126.6 197.902 125.544C198.99 124.472 200.414 123.936 202.174 123.936C203.934 123.936 205.35 124.472 206.422 125.544C207.51 126.6 208.054 127.952 208.054 129.6C208.054 131.248 207.51 132.608 206.422 133.68C205.35 134.736 203.934 135.264 202.174 135.264C200.414 135.264 198.99 134.736 197.902 133.68ZM199.246 129.6C199.246 130.496 199.518 131.24 200.062 131.832C200.622 132.408 201.326 132.696 202.174 132.696C203.038 132.696 203.742 132.416 204.286 131.856C204.846 131.28 205.126 130.528 205.126 129.6C205.126 128.704 204.846 127.968 204.286 127.392C203.726 126.816 203.022 126.528 202.174 126.528C201.342 126.528 200.646 126.816 200.086 127.392C199.526 127.952 199.246 128.688 199.246 129.6ZM218.914 131.976L219.706 133.92C218.65 134.816 217.274 135.264 215.578 135.264C213.834 135.264 212.426 134.744 211.354 133.704C210.298 132.664 209.77 131.296 209.77 129.6C209.77 127.984 210.29 126.64 211.33 125.568C212.37 124.48 213.754 123.936 215.482 123.936C216.906 123.936 218.114 124.408 219.106 125.352C220.098 126.28 220.594 127.48 220.594 128.952C220.594 129.56 220.538 130.056 220.426 130.44H212.626C212.738 131.24 213.09 131.864 213.682 132.312C214.274 132.744 215.002 132.96 215.866 132.96C217.082 132.96 218.098 132.632 218.914 131.976ZM215.362 126.24C213.794 126.24 212.85 127.024 212.53 128.592H217.834C217.85 127.92 217.634 127.36 217.186 126.912C216.738 126.464 216.13 126.24 215.362 126.24ZM233.041 124.2L228.889 129.336L233.545 135H229.945L225.673 129.552L229.561 124.2H233.041ZM222.817 135V124.2H225.577V135H222.817ZM234.041 126.96V124.2H243.881V126.96H240.353V135H237.593V126.96H234.041ZM248.616 135H245.856V124.2H248.616V131.04L253.656 124.2H256.416V135H253.656V128.16L248.616 135ZM259.497 139.8V124.2H262.257V125.232C262.609 124.864 263.081 124.56 263.673 124.32C264.281 124.064 264.921 123.936 265.593 123.936C267.065 123.936 268.249 124.448 269.145 125.472C270.041 126.496 270.489 127.816 270.489 129.432C270.489 131.112 269.961 132.504 268.905 133.608C267.849 134.712 266.473 135.264 264.777 135.264C263.705 135.264 262.865 135.088 262.257 134.736V139.8H259.497ZM264.729 126.528C263.785 126.528 262.961 126.92 262.257 127.704V132.072C262.897 132.488 263.657 132.696 264.537 132.696C265.465 132.696 266.201 132.4 266.745 131.808C267.289 131.2 267.561 130.432 267.561 129.504C267.561 128.624 267.313 127.912 266.817 127.368C266.321 126.808 265.625 126.528 264.729 126.528ZM273.816 133.68C272.744 132.608 272.208 131.248 272.208 129.6C272.208 127.952 272.744 126.6 273.816 125.544C274.904 124.472 276.328 123.936 278.088 123.936C279.848 123.936 281.264 124.472 282.336 125.544C283.424 126.6 283.968 127.952 283.968 129.6C283.968 131.248 283.424 132.608 282.336 133.68C281.264 134.736 279.848 135.264 278.088 135.264C276.328 135.264 274.904 134.736 273.816 133.68ZM275.16 129.6C275.16 130.496 275.432 131.24 275.976 131.832C276.536 132.408 277.24 132.696 278.088 132.696C278.952 132.696 279.656 132.416 280.2 131.856C280.76 131.28 281.04 130.528 281.04 129.6C281.04 128.704 280.76 127.968 280.2 127.392C279.64 126.816 278.936 126.528 278.088 126.528C277.256 126.528 276.56 126.816 276 127.392C275.44 127.952 275.16 128.688 275.16 129.6ZM286.356 135V124.2C286.548 124.2 286.9 124.192 287.412 124.176C287.94 124.144 288.476 124.12 289.02 124.104C289.58 124.088 290.108 124.08 290.604 124.08C293.868 124.08 295.5 125.024 295.5 126.912C295.5 127.536 295.3 128.072 294.9 128.52C294.516 128.968 294.044 129.232 293.484 129.312V129.36C295.02 129.728 295.788 130.56 295.788 131.856C295.788 134.032 294.076 135.12 290.652 135.12C290.172 135.12 289.412 135.096 288.372 135.048C287.332 135.016 286.66 135 286.356 135ZM290.844 130.416H289.116V132.816C290.204 132.88 290.812 132.912 290.94 132.912C291.548 132.912 292.02 132.8 292.356 132.576C292.708 132.352 292.884 132.048 292.884 131.664C292.884 130.832 292.204 130.416 290.844 130.416ZM290.844 126.312C290.076 126.312 289.5 126.328 289.116 126.36V128.736H290.916C291.396 128.736 291.788 128.632 292.092 128.424C292.412 128.2 292.572 127.888 292.572 127.488C292.572 126.704 291.996 126.312 290.844 126.312ZM299.243 126.984L298.547 124.968C299.715 124.28 300.987 123.936 302.363 123.936C303.899 123.936 305.003 124.312 305.675 125.064C306.347 125.816 306.683 126.936 306.683 128.424V135H304.283V133.752C303.627 134.68 302.563 135.144 301.091 135.144C300.083 135.144 299.267 134.848 298.643 134.256C298.019 133.664 297.707 132.856 297.707 131.832C297.707 130.696 298.075 129.832 298.811 129.24C299.547 128.632 300.491 128.328 301.643 128.328C302.635 128.328 303.451 128.56 304.091 129.024C304.123 128.08 303.987 127.384 303.683 126.936C303.379 126.472 302.843 126.24 302.075 126.24C301.275 126.24 300.331 126.488 299.243 126.984ZM302.003 132.816C302.931 132.816 303.627 132.488 304.091 131.832V130.728C303.627 130.376 302.995 130.2 302.195 130.2C301.699 130.2 301.283 130.32 300.947 130.56C300.627 130.784 300.467 131.112 300.467 131.544C300.467 131.944 300.611 132.256 300.899 132.48C301.187 132.704 301.555 132.816 302.003 132.816ZM317.001 135V130.872H312.273V135H309.513V124.2H312.273V128.28H317.001V124.2H319.761V135H317.001ZM325.585 135H322.825V124.2H325.585V131.04L330.625 124.2H333.385V135H330.625V128.16L325.585 135ZM344.938 131.976L345.73 133.92C344.674 134.816 343.298 135.264 341.602 135.264C339.858 135.264 338.45 134.744 337.378 133.704C336.322 132.664 335.794 131.296 335.794 129.6C335.794 127.984 336.314 126.64 337.354 125.568C338.394 124.48 339.778 123.936 341.506 123.936C342.93 123.936 344.138 124.408 345.13 125.352C346.122 126.28 346.618 127.48 346.618 128.952C346.618 129.56 346.562 130.056 346.45 130.44H338.65C338.762 131.24 339.114 131.864 339.706 132.312C340.298 132.744 341.026 132.96 341.89 132.96C343.106 132.96 344.122 132.632 344.938 131.976ZM341.386 126.24C339.818 126.24 338.874 127.024 338.554 128.592H343.858C343.874 127.92 343.658 127.36 343.21 126.912C342.762 126.464 342.154 126.24 341.386 126.24Z" fill="#141414"/>
<g filter="url(#filter4_d)">
<path d="M139.092 141.068L121.414 123.39C120.633 122.609 120.633 121.343 121.414 120.562L123.536 118.44C124.317 117.659 125.583 117.659 126.364 118.44L144.042 136.118C144.823 136.899 144.823 138.165 144.042 138.947L141.921 141.068C141.14 141.849 139.873 141.849 139.092 141.068Z" fill="white" stroke="#7C267B" stroke-width="3"/>
<path d="M123.614 124.831L125.614 122.831" stroke="#7C267B" stroke-width="2"/>
<path d="M125.614 126.831L127.614 124.831" stroke="#7C267B" stroke-width="2"/>
<path d="M136.614 137.831L138.614 135.831" stroke="#7C267B" stroke-width="2"/>
<path d="M138.614 139.831L140.614 137.831" stroke="#7C267B" stroke-width="2"/>
</g>
<path d="M121.198 136.335L138.935 118.598C139.101 118.432 139.294 118.296 139.507 118.198L144.398 115.927C145.192 115.558 146.042 116.315 145.769 117.146L143.943 122.706C143.848 122.996 143.687 123.26 143.475 123.478L126.147 141.248C125.369 142.046 124.089 142.054 123.301 141.266L121.198 139.163C120.417 138.382 120.417 137.116 121.198 136.335Z" fill="white" stroke="#DC40B1" stroke-width="3"/>
<rect x="250.5" y="272.5" width="295" height="75" rx="7.5" stroke="#C5CDCF" stroke-width="5"/>
<path d="M361.328 316.976V300.248C362.896 300.168 364.512 300.128 366.176 300.128C368.08 300.128 369.472 300.512 370.352 301.28C371.248 302.032 371.696 303.032 371.696 304.28C371.696 306.072 370.896 307.344 369.296 308.096V308.144C370.176 308.368 370.888 308.808 371.432 309.464C371.976 310.12 372.248 310.984 372.248 312.056C372.248 313.72 371.672 314.976 370.52 315.824C369.384 316.672 367.88 317.096 366.008 317.096C363.976 317.096 362.416 317.056 361.328 316.976ZM366.368 309.776H364.28V314.216C364.952 314.296 365.6 314.336 366.224 314.336C368.272 314.336 369.296 313.528 369.296 311.912C369.296 311.208 369.04 310.68 368.528 310.328C368.016 309.96 367.296 309.776 366.368 309.776ZM366.128 302.888C365.424 302.888 364.808 302.912 364.28 302.96V307.208H366.272C367.008 307.208 367.608 307.024 368.072 306.656C368.536 306.272 368.768 305.712 368.768 304.976C368.768 304.304 368.528 303.792 368.048 303.44C367.584 303.072 366.944 302.888 366.128 302.888ZM382.837 317V312.872H378.109V317H375.349V306.2H378.109V310.28H382.837V306.2H385.597V317H382.837ZM397.133 313.976L397.925 315.92C396.869 316.816 395.493 317.264 393.797 317.264C392.053 317.264 390.645 316.744 389.573 315.704C388.517 314.664 387.989 313.296 387.989 311.6C387.989 309.984 388.509 308.64 389.549 307.568C390.589 306.48 391.973 305.936 393.701 305.936C395.125 305.936 396.333 306.408 397.325 307.352C398.317 308.28 398.813 309.48 398.813 310.952C398.813 311.56 398.757 312.056 398.645 312.44H390.845C390.957 313.24 391.309 313.864 391.901 314.312C392.493 314.744 393.221 314.96 394.085 314.96C395.301 314.96 396.317 314.632 397.133 313.976ZM393.581 308.24C392.013 308.24 391.069 309.024 390.749 310.592H396.053C396.069 309.92 395.853 309.36 395.405 308.912C394.957 308.464 394.349 308.24 393.581 308.24ZM399.388 319.52V314.432H400.756C401.604 313.312 402.108 311.432 402.268 308.792L402.436 306.2H410.404V314.432H412.204V319.52H409.612V317H401.956V319.52H399.388ZM404.932 309.896C404.74 311.992 404.308 313.504 403.636 314.432H407.644V308.792H405.004L404.932 309.896ZM414.02 321.8V306.2H416.78V307.232C417.132 306.864 417.604 306.56 418.196 306.32C418.804 306.064 419.444 305.936 420.116 305.936C421.588 305.936 422.772 306.448 423.668 307.472C424.564 308.496 425.012 309.816 425.012 311.432C425.012 313.112 424.484 314.504 423.428 315.608C422.372 316.712 420.996 317.264 419.3 317.264C418.228 317.264 417.388 317.088 416.78 316.736V321.8H414.02ZM419.252 308.528C418.308 308.528 417.484 308.92 416.78 309.704V314.072C417.42 314.488 418.18 314.696 419.06 314.696C419.988 314.696 420.724 314.4 421.268 313.808C421.812 313.2 422.084 312.432 422.084 311.504C422.084 310.624 421.836 309.912 421.34 309.368C420.844 308.808 420.148 308.528 419.252 308.528ZM435.875 313.976L436.667 315.92C435.611 316.816 434.235 317.264 432.539 317.264C430.795 317.264 429.387 316.744 428.315 315.704C427.259 314.664 426.731 313.296 426.731 311.6C426.731 309.984 427.251 308.64 428.291 307.568C429.331 306.48 430.715 305.936 432.443 305.936C433.867 305.936 435.075 306.408 436.067 307.352C437.059 308.28 437.555 309.48 437.555 310.952C437.555 311.56 437.499 312.056 437.387 312.44H429.587C429.699 313.24 430.051 313.864 430.643 314.312C431.235 314.744 431.963 314.96 432.827 314.96C434.043 314.96 435.059 314.632 435.875 313.976ZM432.323 308.24C430.755 308.24 429.811 309.024 429.491 310.592H434.795C434.811 309.92 434.595 309.36 434.147 308.912C433.699 308.464 433.091 308.24 432.323 308.24ZM447.266 317V312.872H442.538V317H439.778V306.2H442.538V310.28H447.266V306.2H450.026V317H447.266ZM455.851 317H453.091V306.2H455.851V313.04L460.891 306.2H463.651V317H460.891V310.16L455.851 317ZM475.203 313.976L475.995 315.92C474.939 316.816 473.563 317.264 471.867 317.264C470.123 317.264 468.715 316.744 467.643 315.704C466.587 314.664 466.059 313.296 466.059 311.6C466.059 309.984 466.579 308.64 467.619 307.568C468.659 306.48 470.043 305.936 471.771 305.936C473.195 305.936 474.403 306.408 475.395 307.352C476.387 308.28 476.883 309.48 476.883 310.952C476.883 311.56 476.827 312.056 476.715 312.44H468.915C469.027 313.24 469.379 313.864 469.971 314.312C470.563 314.744 471.291 314.96 472.155 314.96C473.371 314.96 474.387 314.632 475.203 313.976ZM471.651 308.24C470.083 308.24 469.139 309.024 468.819 310.592H474.123C474.139 309.92 473.923 309.36 473.475 308.912C473.027 308.464 472.419 308.24 471.651 308.24Z" fill="#141414"/>
<g filter="url(#filter5_d)">
<path d="M324 325V301C324 299.343 325.343 298 327 298H341C342.657 298 344 299.343 344 301V325C344 326.657 342.657 328 341 328H327C325.343 328 324 326.657 324 325Z" fill="#F6F4F2"/>
<path d="M324 325V301C324 299.343 325.343 298 327 298H341C342.657 298 344 299.343 344 301V325C344 326.657 342.657 328 341 328H327C325.343 328 324 326.657 324 325Z" stroke="#DC40B1" stroke-width="4"/>
</g>
<path d="M318 319V295C318 293.343 319.343 292 321 292H335C336.657 292 338 293.343 338 295V319C338 320.657 336.657 322 335 322H321C319.343 322 318 320.657 318 319Z" fill="#F6F4F2" stroke="#7C267B" stroke-width="4"/>
<defs>
<filter id="filter0_d" x="225.5" y="201.5" width="44.0012" height="44" filterUnits="userSpaceOnUse" color-interpolation-filters="sRGB">
<feFlood flood-opacity="0" result="BackgroundImageFix"/>
<feColorMatrix in="SourceAlpha" type="matrix" values="0 0 0 0 0 0 0 0 0 0 0 0 0 0 0 0 0 0 127 0"/>
<feOffset dx="3" dy="3"/>
<feGaussianBlur stdDeviation="2.5"/>
<feColorMatrix type="matrix" values="0 0 0 0 0.441667 0 0 0 0 0.182187 0 0 0 0 0.438297 0 0 0 0.4 0"/>
<feBlend mode="normal" in2="BackgroundImageFix" result="effect1_dropShadow"/>
<feBlend mode="normal" in="SourceGraphic" in2="effect1_dropShadow" result="shape"/>
</filter>
<filter id="filter1_d" x="408" y="381" width="40.0005" height="43.9961" filterUnits="userSpaceOnUse" color-interpolation-filters="sRGB">
<feFlood flood-opacity="0" result="BackgroundImageFix"/>
<feColorMatrix in="SourceAlpha" type="matrix" values="0 0 0 0 0 0 0 0 0 0 0 0 0 0 0 0 0 0 127 0"/>
<feOffset dx="3" dy="3"/>
<feGaussianBlur stdDeviation="2.5"/>
<feColorMatrix type="matrix" values="0 0 0 0 0.441667 0 0 0 0 0.182187 0 0 0 0 0.438297 0 0 0 0.4 0"/>
<feBlend mode="normal" in2="BackgroundImageFix" result="effect1_dropShadow"/>
<feBlend mode="normal" in="SourceGraphic" in2="effect1_dropShadow" result="shape"/>
</filter>
<filter id="filter2_d" x="429.559" y="400.139" width="26.9476" height="21.8728" filterUnits="userSpaceOnUse" color-interpolation-filters="sRGB">
<feFlood flood-opacity="0" result="BackgroundImageFix"/>
<feColorMatrix in="SourceAlpha" type="matrix" values="0 0 0 0 0 0 0 0 0 0 0 0 0 0 0 0 0 0 127 0"/>
<feOffset dx="3" dy="3"/>
<feGaussianBlur stdDeviation="2.5"/>
<feColorMatrix type="matrix" values="0 0 0 0 0.7125 0 0 0 0 0.175156 0 0 0 0 0.564386 0 0 0 0.4 0"/>
<feBlend mode="normal" in2="BackgroundImageFix" result="effect1_dropShadow"/>
<feBlend mode="normal" in="SourceGraphic" in2="effect1_dropShadow" result="shape"/>
</filter>
<filter id="filter3_d" x="83.5" y="22" width="41" height="45" filterUnits="userSpaceOnUse" color-interpolation-filters="sRGB">
<feFlood flood-opacity="0" result="BackgroundImageFix"/>
<feColorMatrix in="SourceAlpha" type="matrix" values="0 0 0 0 0 0 0 0 0 0 0 0 0 0 0 0 0 0 127 0"/>
<feOffset dx="3" dy="3"/>
<feGaussianBlur stdDeviation="2.5"/>
<feColorMatrix type="matrix" values="0 0 0 0 0.441667 0 0 0 0 0.182187 0 0 0 0 0.438297 0 0 0 0.4 0"/>
<feBlend mode="normal" in2="BackgroundImageFix" result="effect1_dropShadow"/>
<feBlend mode="normal" in="SourceGraphic" in2="effect1_dropShadow" result="shape"/>
</filter>
<filter id="filter4_d" x="117.329" y="114.355" width="36.799" height="36.799" filterUnits="userSpaceOnUse" color-interpolation-filters="sRGB">
<feFlood flood-opacity="0" result="BackgroundImageFix"/>
<feColorMatrix in="SourceAlpha" type="matrix" values="0 0 0 0 0 0 0 0 0 0 0 0 0 0 0 0 0 0 127 0"/>
<feOffset dx="3" dy="3"/>
<feGaussianBlur stdDeviation="2.5"/>
<feColorMatrix type="matrix" values="0 0 0 0 0.441667 0 0 0 0 0.182187 0 0 0 0 0.438297 0 0 0 0.4 0"/>
<feBlend mode="normal" in2="BackgroundImageFix" result="effect1_dropShadow"/>
<feBlend mode="normal" in="SourceGraphic" in2="effect1_dropShadow" result="shape"/>
</filter>
<filter id="filter5_d" x="320" y="294" width="34" height="44" filterUnits="userSpaceOnUse" color-interpolation-filters="sRGB">
<feFlood flood-opacity="0" result="BackgroundImageFix"/>
<feColorMatrix in="SourceAlpha" type="matrix" values="0 0 0 0 0 0 0 0 0 0 0 0 0 0 0 0 0 0 127 0"/>
<feOffset dx="3" dy="3"/>
<feGaussianBlur stdDeviation="2.5"/>
<feColorMatrix type="matrix" values="0 0 0 0 0.7125 0 0 0 0 0.175156 0 0 0 0 0.564386 0 0 0 0.4 0"/>
<feBlend mode="normal" in2="BackgroundImageFix" result="effect1_dropShadow"/>
<feBlend mode="normal" in="SourceGraphic" in2="effect1_dropShadow" result="shape"/>
</filter>
</defs>
</svg>
