<svg width="724" height="515" viewBox="0 0 724 515" fill="none" xmlns="http://www.w3.org/2000/svg">
<path d="M291.308 261.696L288.249 267.367C287.779 268.239 288.042 269.314 288.867 269.888L291.223 271.526C291.757 271.897 292.073 272.494 292.073 273.131V275.469C292.073 276.071 291.79 276.64 291.305 277.015L288.768 278.975C287.994 279.573 287.775 280.624 288.249 281.466L291.157 286.632C291.672 287.547 292.832 287.917 293.806 287.476L297.017 286.022C297.641 285.74 298.37 285.782 298.955 286.135L301.619 287.743C302.159 288.069 302.511 288.621 302.571 289.235L302.859 292.21C302.958 293.225 303.836 294 304.887 294H311.768C312.819 294 313.697 293.225 313.796 292.21L314.087 289.211C314.145 288.61 314.483 288.068 315.005 287.74L317.444 286.204C318.066 285.812 318.858 285.779 319.512 286.118L321.932 287.37C322.894 287.867 324.09 287.541 324.644 286.63L327.662 281.665C328.223 280.743 327.924 279.556 326.99 278.988L324.608 277.54C324.014 277.179 323.653 276.547 323.653 275.867V273.176C323.653 272.514 323.995 271.897 324.564 271.531L327.089 269.905C327.979 269.332 328.262 268.189 327.736 267.287L324.468 261.678C323.994 260.862 322.994 260.483 322.075 260.768L319.335 261.618C318.774 261.792 318.163 261.722 317.659 261.426L315.048 259.892C314.501 259.57 314.142 259.018 314.078 258.4L313.806 255.778C313.701 254.768 312.826 254 311.78 254H305.07C303.945 254 303.033 254.884 303.033 255.975V258.178C303.033 258.917 302.608 259.594 301.931 259.933L298.729 261.536C298.272 261.765 297.742 261.818 297.246 261.683L293.662 260.709C292.736 260.458 291.754 260.869 291.308 261.696Z" stroke="#C5CDCF" stroke-width="4"/>
<circle cx="308.728" cy="275.398" r="8" stroke="#C5CDCF" stroke-width="4"/>
<path d="M641 463L75 463" stroke="#C5CDCF" stroke-width="25" stroke-linecap="round"/>
<path d="M336.332 465.01C335.874 467.757 337.748 470.353 340.507 470.725C377.932 475.774 415.868 472.453 448.421 453.216C482.427 433.12 508.413 401.855 521.951 364.747C535.489 327.64 535.742 286.986 522.667 249.713C509.591 212.44 483.996 180.854 450.243 160.337C416.49 139.819 376.667 131.64 337.559 137.193C298.451 142.746 262.479 161.687 235.771 190.788C209.063 219.89 193.271 257.353 191.088 296.792C188.997 334.565 199.511 371.914 220.901 403.003C222.466 405.278 225.602 405.758 227.83 404.127L240.384 394.937C242.613 393.306 243.089 390.181 241.535 387.898C223.631 361.587 214.843 330.074 216.607 298.205C218.464 264.67 231.891 232.815 254.601 208.07C277.311 183.325 307.899 167.219 341.152 162.498C374.405 157.776 408.267 164.731 436.967 182.177C465.668 199.623 487.431 226.481 498.549 258.174C509.667 289.867 509.452 324.435 497.94 355.987C486.429 387.54 464.333 414.125 435.418 431.212C407.922 447.461 375.095 456.248 343.398 452.656C340.677 452.347 338.138 454.173 337.688 456.875L336.332 465.01Z" fill="#C5CDCF"/>
<path d="M306.154 74.5901C308.551 73.218 309.394 70.1534 307.88 67.8438C299.669 55.3149 288.204 45.2109 274.672 38.6422C259.638 31.344 242.752 28.7491 226.221 31.1964C209.689 33.6437 194.279 41.0194 182.004 52.3602C169.729 63.7011 161.16 78.48 157.414 94.7668C153.669 111.054 154.922 128.091 161.01 143.655C167.098 159.219 177.738 172.585 191.54 182.008C205.342 191.431 221.665 196.472 238.377 196.475C253.418 196.477 268.146 192.396 281.005 184.713C283.375 183.296 283.956 180.171 282.399 177.89L273.752 165.217C272.196 162.936 269.094 162.37 266.687 163.723C258.069 168.569 248.323 171.134 238.38 171.133C226.765 171.132 215.421 167.628 205.828 161.079C196.236 154.53 188.841 145.24 184.61 134.424C180.379 123.607 179.508 111.766 182.111 100.446C184.714 89.1268 190.67 78.8555 199.201 70.9736C207.732 63.0917 218.442 57.9656 229.932 56.2647C241.421 54.5639 253.157 56.3673 263.605 61.4396C272.55 65.7817 280.196 72.3467 285.832 80.4703C287.406 82.7391 290.444 83.5845 292.84 82.2125L306.154 74.5901Z" fill="#C5CDCF"/>
<g filter="url(#filter0_d)">
<path d="M256.962 275.907L252.374 284.413C251.668 285.722 252.064 287.335 253.301 288.195L256.834 290.651C257.635 291.208 258.11 292.104 258.11 293.06V296.567C258.11 297.47 257.686 298.323 256.958 298.885L253.152 301.825C251.991 302.722 251.662 304.299 252.374 305.562L256.735 313.312C257.508 314.684 259.247 315.238 260.708 314.577L265.526 312.396C266.462 311.973 267.555 312.036 268.432 312.565L272.428 314.977C273.238 315.466 273.766 316.294 273.856 317.215L274.289 321.678C274.437 323.2 275.754 324.363 277.33 324.363H287.652C289.228 324.363 290.546 323.2 290.693 321.678L291.13 317.18C291.218 316.279 291.725 315.466 292.508 314.973L296.166 312.669C297.099 312.082 298.287 312.032 299.267 312.54L302.897 314.417C304.341 315.164 306.135 314.675 306.966 313.308L311.493 305.86C312.334 304.478 311.886 302.697 310.484 301.845L306.912 299.673C306.021 299.131 305.48 298.183 305.48 297.163V293.127C305.48 292.135 305.992 291.208 306.845 290.659L310.634 288.22C311.969 287.36 312.393 285.647 311.604 284.294L306.703 275.879C305.99 274.657 304.491 274.087 303.112 274.515L299.002 275.79C298.161 276.052 297.244 275.947 296.488 275.502L292.573 273.201C291.752 272.719 291.212 271.89 291.116 270.963L290.709 267.03C290.552 265.516 289.238 264.363 287.669 264.363H277.605C275.918 264.363 274.55 265.689 274.55 267.326V270.63C274.55 271.738 273.912 272.754 272.896 273.263L268.094 275.667C267.408 276.01 266.613 276.089 265.869 275.887L260.493 274.427C259.103 274.05 257.631 274.667 256.962 275.907Z" fill="#F6F4F2"/>
<path d="M256.962 275.907L252.374 284.413C251.668 285.722 252.064 287.335 253.301 288.195L256.834 290.651C257.635 291.208 258.11 292.104 258.11 293.06V296.567C258.11 297.47 257.686 298.323 256.958 298.885L253.152 301.825C251.991 302.722 251.662 304.299 252.374 305.562L256.735 313.312C257.508 314.684 259.247 315.238 260.708 314.577L265.526 312.396C266.462 311.973 267.555 312.036 268.432 312.565L272.428 314.977C273.238 315.466 273.766 316.294 273.856 317.215L274.289 321.678C274.437 323.2 275.754 324.363 277.33 324.363H287.652C289.228 324.363 290.546 323.2 290.693 321.678L291.13 317.18C291.218 316.279 291.725 315.466 292.508 314.973L296.166 312.669C297.099 312.082 298.287 312.032 299.267 312.54L302.897 314.417C304.341 315.164 306.135 314.675 306.966 313.308L311.493 305.86C312.334 304.478 311.886 302.697 310.484 301.845L306.912 299.673C306.021 299.131 305.48 298.183 305.48 297.163V293.127C305.48 292.135 305.992 291.208 306.845 290.659L310.634 288.22C311.969 287.36 312.393 285.647 311.604 284.294L306.703 275.879C305.99 274.657 304.491 274.087 303.112 274.515L299.002 275.79C298.161 276.052 297.244 275.947 296.488 275.502L292.573 273.201C291.752 272.719 291.212 271.89 291.116 270.963L290.709 267.03C290.552 265.516 289.238 264.363 287.669 264.363H277.605C275.918 264.363 274.55 265.689 274.55 267.326V270.63C274.55 271.738 273.912 272.754 272.896 273.263L268.094 275.667C267.408 276.01 266.613 276.089 265.869 275.887L260.493 274.427C259.103 274.05 257.631 274.667 256.962 275.907Z" stroke="#7C267B" stroke-width="5"/>
</g>
<circle cx="282.5" cy="294.5" r="12" stroke="#DC40B1" stroke-width="5"/>
<g filter="url(#filter1_d)">
<path d="M11 421.345L16.4495 415.759L26.4404 426L44 408" stroke="#DC40B1" stroke-width="4" stroke-linecap="round"/>
</g>
<path fill-rule="evenodd" clip-rule="evenodd" d="M4 405C4 403.895 3.10457 403 2 403C0.89543 403 0 403.895 0 405V434.273C0 435.377 0.89543 436.273 2 436.273C2.06864 436.273 2.13647 436.269 2.20333 436.262C2.27012 436.269 2.33787 436.273 2.40645 436.273H49.5679C50.6724 436.273 51.5679 435.377 51.5679 434.273C51.5679 433.168 50.6724 432.273 49.5679 432.273H4V405Z" fill="#7C267B"/>
<path d="M69.328 427V410.2H79.144V412.96H72.28V416.704C72.936 416.608 73.688 416.56 74.536 416.56C76.28 416.56 77.656 417.016 78.664 417.928C79.672 418.84 80.176 420.072 80.176 421.624C80.176 423.368 79.608 424.72 78.472 425.68C77.352 426.624 75.76 427.096 73.696 427.096C72.976 427.096 72.128 427.08 71.152 427.048C70.192 427.016 69.584 427 69.328 427ZM74.296 419.32C73.704 419.32 73.032 419.368 72.28 419.464V424.24C73.176 424.304 73.8 424.336 74.152 424.336C76.216 424.336 77.248 423.504 77.248 421.84C77.248 421.072 77 420.464 76.504 420.016C76.024 419.552 75.288 419.32 74.296 419.32ZM85.1022 422.464V420.616H89.9022C89.7262 419.864 89.3582 419.296 88.7982 418.912C88.2382 418.528 87.5742 418.336 86.8062 418.336C85.7662 418.336 84.7342 418.712 83.7102 419.464L82.5822 417.544C83.0622 417.016 83.6942 416.616 84.4782 416.344C85.2622 416.072 86.0222 415.936 86.7582 415.936C88.5982 415.936 90.0622 416.448 91.1502 417.472C92.2382 418.496 92.7822 419.872 92.7822 421.6C92.7822 423.232 92.2622 424.584 91.2222 425.656C90.1982 426.728 88.7982 427.264 87.0222 427.264C85.0702 427.264 83.5742 426.728 82.5342 425.656L83.8302 423.832C84.6142 424.52 85.6222 424.864 86.8542 424.864C87.6862 424.864 88.3662 424.664 88.8942 424.264C89.4382 423.848 89.7822 423.248 89.9262 422.464H85.1022ZM105.408 416.2L101.256 421.336L105.912 427H102.312L98.0404 421.552L101.928 416.2H105.408ZM95.1844 427V416.2H97.9444V427H95.1844ZM114.593 427V418.96H111.737L111.665 420.112C111.489 422.048 111.193 423.536 110.777 424.576C110.377 425.616 109.865 426.32 109.241 426.688C108.633 427.04 107.817 427.216 106.793 427.216L106.553 424.528C106.905 424.56 107.233 424.464 107.537 424.24C107.857 424 108.161 423.488 108.449 422.704C108.737 421.904 108.921 420.856 109.001 419.56L109.169 416.2H117.353V427H114.593ZM121.363 425.68C120.291 424.608 119.755 423.248 119.755 421.6C119.755 419.952 120.291 418.6 121.363 417.544C122.451 416.472 123.875 415.936 125.635 415.936C127.395 415.936 128.811 416.472 129.883 417.544C130.971 418.6 131.515 419.952 131.515 421.6C131.515 423.248 130.971 424.608 129.883 425.68C128.811 426.736 127.395 427.264 125.635 427.264C123.875 427.264 122.451 426.736 121.363 425.68ZM122.707 421.6C122.707 422.496 122.979 423.24 123.523 423.832C124.083 424.408 124.787 424.696 125.635 424.696C126.499 424.696 127.203 424.416 127.747 423.856C128.307 423.28 128.587 422.528 128.587 421.6C128.587 420.704 128.307 419.968 127.747 419.392C127.187 418.816 126.483 418.528 125.635 418.528C124.803 418.528 124.107 418.816 123.547 419.392C122.987 419.952 122.707 420.688 122.707 421.6ZM133.903 427V416.2H141.151V418.792H136.663V427H133.903ZM156.15 423.376L157.446 425.392C156.998 426 156.39 426.464 155.622 426.784C154.87 427.104 154.046 427.264 153.15 427.264C151.39 427.264 149.974 426.744 148.902 425.704C147.83 424.664 147.294 423.296 147.294 421.6C147.294 420 147.822 418.656 148.878 417.568C149.934 416.48 151.27 415.936 152.886 415.936C154.806 415.936 156.254 416.424 157.23 417.4L155.934 419.584C155.214 418.88 154.318 418.528 153.246 418.528C152.446 418.528 151.742 418.816 151.134 419.392C150.542 419.952 150.246 420.688 150.246 421.6C150.246 422.528 150.55 423.28 151.158 423.856C151.782 424.416 152.518 424.696 153.366 424.696C154.422 424.696 155.35 424.256 156.15 423.376ZM167.029 427V418.792H162.421V427H159.661V416.2H169.789V427H167.029ZM172.856 431.8V416.2H175.616V417.232C175.968 416.864 176.44 416.56 177.032 416.32C177.64 416.064 178.28 415.936 178.952 415.936C180.424 415.936 181.608 416.448 182.504 417.472C183.4 418.496 183.848 419.816 183.848 421.432C183.848 423.112 183.32 424.504 182.264 425.608C181.208 426.712 179.832 427.264 178.136 427.264C177.064 427.264 176.224 427.088 175.616 426.736V431.8H172.856ZM178.088 418.528C177.144 418.528 176.32 418.92 175.616 419.704V424.072C176.256 424.488 177.016 424.696 177.896 424.696C178.824 424.696 179.56 424.4 180.104 423.808C180.648 423.2 180.92 422.432 180.92 421.504C180.92 420.624 180.672 419.912 180.176 419.368C179.68 418.808 178.984 418.528 178.088 418.528ZM188.999 427H186.239V416.2H188.999V423.04L194.039 416.2H196.799V427H194.039V420.16L188.999 427ZM207.368 427V422.872H202.64V427H199.88V416.2H202.64V420.28H207.368V416.2H210.128V427H207.368ZM212.064 418.96V416.2H221.904V418.96H218.376V427H215.616V418.96H212.064ZM224.72 418.984L224.024 416.968C225.192 416.28 226.464 415.936 227.84 415.936C229.376 415.936 230.48 416.312 231.152 417.064C231.824 417.816 232.16 418.936 232.16 420.424V427H229.76V425.752C229.104 426.68 228.04 427.144 226.568 427.144C225.56 427.144 224.744 426.848 224.12 426.256C223.496 425.664 223.184 424.856 223.184 423.832C223.184 422.696 223.552 421.832 224.288 421.24C225.024 420.632 225.968 420.328 227.12 420.328C228.112 420.328 228.928 420.56 229.568 421.024C229.6 420.08 229.464 419.384 229.16 418.936C228.856 418.472 228.32 418.24 227.552 418.24C226.752 418.24 225.808 418.488 224.72 418.984ZM227.48 424.816C228.408 424.816 229.104 424.488 229.568 423.832V422.728C229.104 422.376 228.472 422.2 227.672 422.2C227.176 422.2 226.76 422.32 226.424 422.56C226.104 422.784 225.944 423.112 225.944 423.544C225.944 423.944 226.088 424.256 226.376 424.48C226.664 424.704 227.032 424.816 227.48 424.816Z" fill="#141414"/>
<path d="M361.992 276.16L363.12 278.368C362.592 278.928 361.832 279.384 360.84 279.736C359.864 280.088 358.832 280.264 357.744 280.264C355.168 280.264 353.08 279.472 351.48 277.888C349.88 276.304 349.08 274.208 349.08 271.6C349.08 269.088 349.84 267.016 351.36 265.384C352.88 263.752 354.984 262.936 357.672 262.936C359.832 262.936 361.536 263.504 362.784 264.64L361.464 266.824C360.328 266.072 359.064 265.696 357.672 265.696C356.088 265.696 354.776 266.232 353.736 267.304C352.712 268.376 352.2 269.808 352.2 271.6C352.2 273.344 352.736 274.768 353.808 275.872C354.896 276.96 356.296 277.504 358.008 277.504C359.496 277.504 360.824 277.056 361.992 276.16ZM372.631 280V271.792H368.023V280H365.263V269.2H375.391V280H372.631ZM378.458 284.8V269.2H381.218V270.232C381.57 269.864 382.042 269.56 382.634 269.32C383.242 269.064 383.882 268.936 384.554 268.936C386.026 268.936 387.21 269.448 388.106 270.472C389.002 271.496 389.45 272.816 389.45 274.432C389.45 276.112 388.922 277.504 387.866 278.608C386.81 279.712 385.434 280.264 383.738 280.264C382.666 280.264 381.826 280.088 381.218 279.736V284.8H378.458ZM383.69 271.528C382.746 271.528 381.922 271.92 381.218 272.704V277.072C381.858 277.488 382.618 277.696 383.498 277.696C384.426 277.696 385.162 277.4 385.706 276.808C386.25 276.2 386.522 275.432 386.522 274.504C386.522 273.624 386.274 272.912 385.778 272.368C385.282 271.808 384.586 271.528 383.69 271.528ZM394.601 280H391.841V269.2H394.601V276.04L399.641 269.2H402.401V280H399.641V273.16L394.601 280ZM412.969 280V275.872H408.241V280H405.481V269.2H408.241V273.28H412.969V269.2H415.729V280H412.969ZM417.666 271.96V269.2H427.506V271.96H423.978V280H421.218V271.96H417.666ZM348.888 315V312.792C350.92 310.792 352.256 309.424 352.896 308.688C354.88 306.416 355.872 304.504 355.872 302.952C355.872 302.264 355.688 301.728 355.32 301.344C354.952 300.96 354.424 300.768 353.736 300.768C353.144 300.768 352.632 300.968 352.2 301.368C351.784 301.752 351.488 302.304 351.312 303.024L349.008 301.992C349.232 300.76 349.792 299.792 350.688 299.088C351.6 298.368 352.72 298.008 354.048 298.008C355.552 298.008 356.72 298.44 357.552 299.304C358.384 300.168 358.8 301.2 358.8 302.4C358.8 303.28 358.616 304.2 358.248 305.16C357.88 306.104 357.456 306.928 356.976 307.632C356.496 308.336 355.912 309.056 355.224 309.792C354.552 310.528 354.024 311.072 353.64 311.424C353.272 311.76 352.88 312.096 352.464 312.432H359.448V315H348.888ZM362.074 309.72V307.152H368.122V309.72H362.074ZM377.649 315V311.112H369.969V309.072L376.449 298.2H379.617L373.545 308.352H377.649V304.2H380.409V308.352H382.569V311.112H380.409V315H377.649ZM397.29 315V310.872H392.562V315H389.802V304.2H392.562V308.28H397.29V304.2H400.05V315H397.29ZM411.586 311.976L412.378 313.92C411.322 314.816 409.946 315.264 408.25 315.264C406.506 315.264 405.098 314.744 404.026 313.704C402.97 312.664 402.442 311.296 402.442 309.6C402.442 307.984 402.962 306.64 404.002 305.568C405.042 304.48 406.426 303.936 408.154 303.936C409.578 303.936 410.786 304.408 411.778 305.352C412.77 306.28 413.266 307.48 413.266 308.952C413.266 309.56 413.21 310.056 413.098 310.44H405.298C405.41 311.24 405.762 311.864 406.354 312.312C406.946 312.744 407.674 312.96 408.538 312.96C409.754 312.96 410.77 312.632 411.586 311.976ZM408.034 306.24C406.466 306.24 405.522 307.024 405.202 308.592H410.506C410.522 307.92 410.306 307.36 409.858 306.912C409.41 306.464 408.802 306.24 408.034 306.24ZM413.842 317.52V312.432H415.21C416.058 311.312 416.562 309.432 416.722 306.792L416.89 304.2H424.858V312.432H426.658V317.52H424.066V315H416.41V317.52H413.842ZM419.386 307.896C419.194 309.992 418.762 311.504 418.09 312.432H422.098V306.792H419.458L419.386 307.896ZM436.946 311.976L437.738 313.92C436.682 314.816 435.306 315.264 433.61 315.264C431.866 315.264 430.458 314.744 429.386 313.704C428.33 312.664 427.802 311.296 427.802 309.6C427.802 307.984 428.322 306.64 429.362 305.568C430.402 304.48 431.786 303.936 433.514 303.936C434.938 303.936 436.146 304.408 437.138 305.352C438.13 306.28 438.626 307.48 438.626 308.952C438.626 309.56 438.57 310.056 438.458 310.44H430.658C430.77 311.24 431.122 311.864 431.714 312.312C432.306 312.744 433.034 312.96 433.898 312.96C435.114 312.96 436.13 312.632 436.946 311.976ZM433.394 306.24C431.826 306.24 430.882 307.024 430.562 308.592H435.866C435.882 307.92 435.666 307.36 435.218 306.912C434.77 306.464 434.162 306.24 433.394 306.24ZM447.601 315V306.96H444.745L444.673 308.112C444.497 310.048 444.201 311.536 443.785 312.576C443.385 313.616 442.873 314.32 442.249 314.688C441.641 315.04 440.825 315.216 439.801 315.216L439.561 312.528C439.913 312.56 440.241 312.464 440.545 312.24C440.865 312 441.169 311.488 441.457 310.704C441.745 309.904 441.929 308.856 442.009 307.56L442.177 304.2H450.361V315H447.601ZM456.194 315H453.434V304.2H456.194V311.04L461.234 304.2H463.994V315H461.234V308.16L456.194 315Z" fill="#141414"/>
<path d="M261.888 121V118.792C263.92 116.792 265.256 115.424 265.896 114.688C267.88 112.416 268.872 110.504 268.872 108.952C268.872 108.264 268.688 107.728 268.32 107.344C267.952 106.96 267.424 106.768 266.736 106.768C266.144 106.768 265.632 106.968 265.2 107.368C264.784 107.752 264.488 108.304 264.312 109.024L262.008 107.992C262.232 106.76 262.792 105.792 263.688 105.088C264.6 104.368 265.72 104.008 267.048 104.008C268.552 104.008 269.72 104.44 270.552 105.304C271.384 106.168 271.8 107.2 271.8 108.4C271.8 109.28 271.616 110.2 271.248 111.16C270.88 112.104 270.456 112.928 269.976 113.632C269.496 114.336 268.912 115.056 268.224 115.792C267.552 116.528 267.024 117.072 266.64 117.424C266.272 117.76 265.88 118.096 265.464 118.432H272.448V121H261.888ZM281.626 121V117.112H273.946V115.072L280.426 104.2H283.594L277.522 114.352H281.626V110.2H284.386V114.352H286.546V117.112H284.386V121H281.626ZM302.49 110.2V121H299.73V117.28C298.946 117.696 298.05 117.904 297.042 117.904C295.682 117.904 294.69 117.552 294.066 116.848C293.442 116.128 293.13 115.064 293.13 113.656V110.2H296.082V113.32C296.082 114.648 296.666 115.312 297.834 115.312C298.602 115.312 299.234 115.168 299.73 114.88V110.2H302.49ZM306.407 112.984L305.711 110.968C306.879 110.28 308.151 109.936 309.527 109.936C311.063 109.936 312.167 110.312 312.839 111.064C313.511 111.816 313.847 112.936 313.847 114.424V121H311.447V119.752C310.791 120.68 309.727 121.144 308.255 121.144C307.247 121.144 306.431 120.848 305.807 120.256C305.183 119.664 304.871 118.856 304.871 117.832C304.871 116.696 305.239 115.832 305.975 115.24C306.711 114.632 307.655 114.328 308.807 114.328C309.799 114.328 310.615 114.56 311.255 115.024C311.287 114.08 311.151 113.384 310.847 112.936C310.543 112.472 310.007 112.24 309.239 112.24C308.439 112.24 307.495 112.488 306.407 112.984ZM309.167 118.816C310.095 118.816 310.791 118.488 311.255 117.832V116.728C310.791 116.376 310.159 116.2 309.359 116.2C308.863 116.2 308.447 116.32 308.111 116.56C307.791 116.784 307.631 117.112 307.631 117.544C307.631 117.944 307.775 118.256 308.063 118.48C308.351 118.704 308.719 118.816 309.167 118.816ZM324.861 117.376L326.157 119.392C325.709 120 325.101 120.464 324.333 120.784C323.581 121.104 322.757 121.264 321.861 121.264C320.101 121.264 318.685 120.744 317.613 119.704C316.541 118.664 316.005 117.296 316.005 115.6C316.005 114 316.533 112.656 317.589 111.568C318.645 110.48 319.981 109.936 321.597 109.936C323.517 109.936 324.965 110.424 325.941 111.4L324.645 113.584C323.925 112.88 323.029 112.528 321.957 112.528C321.157 112.528 320.453 112.816 319.845 113.392C319.253 113.952 318.957 114.688 318.957 115.6C318.957 116.528 319.261 117.28 319.869 117.856C320.493 118.416 321.229 118.696 322.077 118.696C323.133 118.696 324.061 118.256 324.861 117.376ZM329.212 112.984L328.516 110.968C329.684 110.28 330.956 109.936 332.332 109.936C333.868 109.936 334.972 110.312 335.644 111.064C336.316 111.816 336.652 112.936 336.652 114.424V121H334.252V119.752C333.596 120.68 332.532 121.144 331.06 121.144C330.052 121.144 329.236 120.848 328.612 120.256C327.988 119.664 327.676 118.856 327.676 117.832C327.676 116.696 328.044 115.832 328.78 115.24C329.516 114.632 330.46 114.328 331.612 114.328C332.604 114.328 333.42 114.56 334.06 115.024C334.092 114.08 333.956 113.384 333.652 112.936C333.348 112.472 332.812 112.24 332.044 112.24C331.244 112.24 330.3 112.488 329.212 112.984ZM331.972 118.816C332.9 118.816 333.596 118.488 334.06 117.832V116.728C333.596 116.376 332.964 116.2 332.164 116.2C331.668 116.2 331.252 116.32 330.916 116.56C330.596 116.784 330.436 117.112 330.436 117.544C330.436 117.944 330.58 118.256 330.868 118.48C331.156 118.704 331.524 118.816 331.972 118.816Z" fill="#141414"/>
<g filter="url(#filter2_d)">
<circle cx="228.5" cy="114.5" r="16" stroke="#7C267B" stroke-width="3"/>
</g>
<g filter="url(#filter3_d)">
<path d="M227.333 105.167V114.928C227.333 115.367 227.619 115.755 228.039 115.884L234.916 118" stroke="#DC40B1" stroke-width="3" stroke-linecap="round"/>
</g>
<path d="M642.778 423.851V409.811H635.29V423.851H632.338V407.051H645.73V423.851H642.778ZM649.593 428.651V413.051H652.353V414.083C652.705 413.715 653.177 413.411 653.769 413.171C654.377 412.915 655.017 412.787 655.689 412.787C657.161 412.787 658.345 413.299 659.241 414.323C660.137 415.347 660.585 416.667 660.585 418.283C660.585 419.963 660.057 421.355 659.001 422.459C657.945 423.563 656.569 424.115 654.873 424.115C653.801 424.115 652.961 423.939 652.353 423.587V428.651H649.593ZM654.825 415.379C653.881 415.379 653.057 415.771 652.353 416.555V420.923C652.993 421.339 653.753 421.547 654.633 421.547C655.561 421.547 656.297 421.251 656.841 420.659C657.385 420.051 657.657 419.283 657.657 418.355C657.657 417.475 657.409 416.763 656.913 416.219C656.417 415.659 655.721 415.379 654.825 415.379ZM663.912 422.531C662.84 421.459 662.304 420.099 662.304 418.451C662.304 416.803 662.84 415.451 663.912 414.395C665 413.323 666.424 412.787 668.184 412.787C669.944 412.787 671.36 413.323 672.432 414.395C673.52 415.451 674.064 416.803 674.064 418.451C674.064 420.099 673.52 421.459 672.432 422.531C671.36 423.587 669.944 424.115 668.184 424.115C666.424 424.115 665 423.587 663.912 422.531ZM665.256 418.451C665.256 419.347 665.528 420.091 666.072 420.683C666.632 421.259 667.336 421.547 668.184 421.547C669.048 421.547 669.752 421.267 670.296 420.707C670.856 420.131 671.136 419.379 671.136 418.451C671.136 417.555 670.856 416.819 670.296 416.243C669.736 415.667 669.032 415.379 668.184 415.379C667.352 415.379 666.656 415.667 666.096 416.243C665.536 416.803 665.256 417.539 665.256 418.451ZM674.805 426.371V421.283H676.173C677.021 420.163 677.525 418.283 677.685 415.643L677.853 413.051H685.821V421.283H687.621V426.371H685.029V423.851H677.373V426.371H674.805ZM680.349 416.747C680.157 418.843 679.725 420.355 679.053 421.283H683.061V415.643H680.421L680.349 416.747ZM699.853 413.051L695.605 423.851C694.837 425.723 694.149 426.987 693.541 427.643C692.949 428.315 692.245 428.651 691.429 428.651C690.645 428.651 689.869 428.371 689.101 427.811L689.989 425.723C690.421 425.979 690.797 426.107 691.117 426.107C691.773 426.107 692.325 425.547 692.773 424.427L693.013 423.851L688.021 413.051H691.333L693.853 418.955C693.949 419.195 694.125 419.715 694.381 420.515C694.509 419.811 694.637 419.283 694.765 418.931L696.709 413.051H699.853ZM711.731 413.051L707.579 418.187L712.235 423.851H708.635L704.363 418.403L708.251 413.051H711.731ZM701.507 423.851V413.051H704.267V423.851H701.507ZM712.731 415.811V413.051H722.571V415.811H719.043V423.851H716.283V415.811H712.731Z" fill="#141414"/>
<g filter="url(#filter4_d)">
<path fill-rule="evenodd" clip-rule="evenodd" d="M585.759 397.149L571.177 405.442L585.759 413.106L600.476 405.442L585.759 397.149ZM602.673 408.807L587.755 416.576V432.529L592.65 429.896C593.068 431.18 593.68 432.381 594.452 433.468L586.702 437.637L585.75 438.149L584.801 437.633L566.056 427.458L566.25 427.101C566.091 426.814 566 426.483 566 426.132V405.107C566 404.422 566.344 403.817 566.869 403.457C567.075 403.232 567.322 403.032 567.611 402.868L584.274 393.392C585.19 392.871 586.312 392.869 587.23 393.386L605.655 403.768L606.673 404.342V405.511V412.363C606.453 412.353 606.232 412.348 606.01 412.348C604.86 412.348 603.742 412.482 602.673 412.734V408.807ZM583.755 432.514L570 425.047V409.342L583.755 416.571V432.514Z" fill="#7C267B"/>
</g>
<g filter="url(#filter5_d)">
<path d="M597.01 423.351L604.303 430.644C604.694 431.034 605.327 431.034 605.717 430.644L616.51 419.851" stroke="#DC40B1" stroke-width="4"/>
</g>
<path d="M317.99 85.997C318.481 87.456 317.209 88.9001 315.7 88.5965L269.004 79.2019C267.495 78.8982 266.88 77.0745 267.898 75.9192L299.382 40.1768C300.399 39.0215 302.286 39.4011 302.778 40.86L317.99 85.997Z" fill="#C5CDCF"/>
<path d="M247.268 419.78C247.29 421.319 245.637 422.305 244.293 421.554L202.714 398.317C201.37 397.566 201.343 395.642 202.665 394.854L243.578 370.463C244.9 369.675 246.58 370.614 246.602 372.153L247.268 419.78Z" fill="#C5CDCF"/>
<path d="M690.05 460.774C691.37 461.546 691.37 463.454 690.05 464.226L640.51 493.215C639.177 493.995 637.5 493.033 637.5 491.488V433.512C637.5 431.967 639.177 431.005 640.51 431.785L690.05 460.774Z" fill="#C5CDCF"/>
<defs>
<filter id="filter0_d" x="247.499" y="259.863" width="75.0019" height="75" filterUnits="userSpaceOnUse" color-interpolation-filters="sRGB">
<feFlood flood-opacity="0" result="BackgroundImageFix"/>
<feColorMatrix in="SourceAlpha" type="matrix" values="0 0 0 0 0 0 0 0 0 0 0 0 0 0 0 0 0 0 127 0"/>
<feOffset dx="3" dy="3"/>
<feGaussianBlur stdDeviation="2.5"/>
<feColorMatrix type="matrix" values="0 0 0 0 0.441667 0 0 0 0 0.182187 0 0 0 0 0.438297 0 0 0 0.4 0"/>
<feBlend mode="normal" in2="BackgroundImageFix" result="effect1_dropShadow"/>
<feBlend mode="normal" in="SourceGraphic" in2="effect1_dropShadow" result="shape"/>
</filter>
<filter id="filter1_d" x="7" y="404" width="47" height="32.8641" filterUnits="userSpaceOnUse" color-interpolation-filters="sRGB">
<feFlood flood-opacity="0" result="BackgroundImageFix"/>
<feColorMatrix in="SourceAlpha" type="matrix" values="0 0 0 0 0 0 0 0 0 0 0 0 0 0 0 0 0 0 127 0"/>
<feOffset dx="3" dy="3"/>
<feGaussianBlur stdDeviation="2.5"/>
<feColorMatrix type="matrix" values="0 0 0 0 0.7125 0 0 0 0 0.175156 0 0 0 0 0.564386 0 0 0 0.4 0"/>
<feBlend mode="normal" in2="BackgroundImageFix" result="effect1_dropShadow"/>
<feBlend mode="normal" in="SourceGraphic" in2="effect1_dropShadow" result="shape"/>
</filter>
<filter id="filter2_d" x="209" y="95" width="45" height="45" filterUnits="userSpaceOnUse" color-interpolation-filters="sRGB">
<feFlood flood-opacity="0" result="BackgroundImageFix"/>
<feColorMatrix in="SourceAlpha" type="matrix" values="0 0 0 0 0 0 0 0 0 0 0 0 0 0 0 0 0 0 127 0"/>
<feOffset dx="3" dy="3"/>
<feGaussianBlur stdDeviation="2.5"/>
<feColorMatrix type="matrix" values="0 0 0 0 0.441667 0 0 0 0 0.182187 0 0 0 0 0.438297 0 0 0 0.4 0"/>
<feBlend mode="normal" in2="BackgroundImageFix" result="effect1_dropShadow"/>
<feBlend mode="normal" in="SourceGraphic" in2="effect1_dropShadow" result="shape"/>
</filter>
<filter id="filter3_d" x="223.833" y="101.667" width="20.5837" height="25.8337" filterUnits="userSpaceOnUse" color-interpolation-filters="sRGB">
<feFlood flood-opacity="0" result="BackgroundImageFix"/>
<feColorMatrix in="SourceAlpha" type="matrix" values="0 0 0 0 0 0 0 0 0 0 0 0 0 0 0 0 0 0 127 0"/>
<feOffset dx="3" dy="3"/>
<feGaussianBlur stdDeviation="2.5"/>
<feColorMatrix type="matrix" values="0 0 0 0 0.7125 0 0 0 0 0.175156 0 0 0 0 0.564386 0 0 0 0.4 0"/>
<feBlend mode="normal" in2="BackgroundImageFix" result="effect1_dropShadow"/>
<feBlend mode="normal" in="SourceGraphic" in2="effect1_dropShadow" result="shape"/>
</filter>
<filter id="filter4_d" x="564" y="391" width="50.6729" height="55.1486" filterUnits="userSpaceOnUse" color-interpolation-filters="sRGB">
<feFlood flood-opacity="0" result="BackgroundImageFix"/>
<feColorMatrix in="SourceAlpha" type="matrix" values="0 0 0 0 0 0 0 0 0 0 0 0 0 0 0 0 0 0 127 0"/>
<feOffset dx="3" dy="3"/>
<feGaussianBlur stdDeviation="2.5"/>
<feColorMatrix type="matrix" values="0 0 0 0 0.441667 0 0 0 0 0.182187 0 0 0 0 0.438297 0 0 0 0.4 0"/>
<feBlend mode="normal" in2="BackgroundImageFix" result="effect1_dropShadow"/>
<feBlend mode="normal" in="SourceGraphic" in2="effect1_dropShadow" result="shape"/>
</filter>
<filter id="filter5_d" x="593.596" y="416.437" width="32.3284" height="24.5" filterUnits="userSpaceOnUse" color-interpolation-filters="sRGB">
<feFlood flood-opacity="0" result="BackgroundImageFix"/>
<feColorMatrix in="SourceAlpha" type="matrix" values="0 0 0 0 0 0 0 0 0 0 0 0 0 0 0 0 0 0 127 0"/>
<feOffset dx="3" dy="3"/>
<feGaussianBlur stdDeviation="2.5"/>
<feColorMatrix type="matrix" values="0 0 0 0 0.7125 0 0 0 0 0.175156 0 0 0 0 0.564386 0 0 0 0.4 0"/>
<feBlend mode="normal" in2="BackgroundImageFix" result="effect1_dropShadow"/>
<feBlend mode="normal" in="SourceGraphic" in2="effect1_dropShadow" result="shape"/>
</filter>
</defs>
</svg>
