<svg width="1057" height="154" viewBox="0 0 1057 154" fill="none" xmlns="http://www.w3.org/2000/svg">
<path fill-rule="evenodd" clip-rule="evenodd" d="M159.892 121.986H125.2C124.548 121.986 124.425 121.358 124.425 121.358L110.547 87.4268C98.2115 96.1656 105.012 110.049 107.462 112.607C108.497 114.281 101.925 124.818 90.0949 124.818C78.9308 124.818 70.8306 115.689 71.4438 104.373C72.2287 91.1515 86.5037 77.6602 104.746 72.3948L83.9324 30.9031C83.9324 30.9031 83.6892 30 84.7132 30H117.21C117.874 30 118.122 30.7663 118.122 30.7663L131.503 64.8206C144.748 57.0931 137.139 39.3702 134.449 36.8081C133.541 35.9152 137.139 27.9364 148.977 26.9107C161.819 25.7379 169.922 34.6198 169.678 46.0577C169.435 59.5368 156.415 73.1712 137.801 78.6879L160.299 121.358C160.299 121.358 160.669 121.986 159.892 121.986ZM241.063 114.669C242.74 111.198 233.462 115.57 235.929 95.1317C237.074 86.2805 241.589 56.9807 241.589 56.9807C241.589 56.474 241.215 56.3371 241.215 56.3371H215.477C215.477 56.3371 214.723 56.474 214.723 57.0931C214.723 57.0931 214.194 60.587 213.548 65.975C210.472 58.7746 204.826 53.7647 195.945 53.7647C179.111 53.7647 168.068 69.4464 165.872 87.0528C163.679 104.257 170.49 123.655 186.715 123.655C195.692 123.655 203.412 117.501 208.787 109.148C209.304 118.259 215.641 123.802 224.477 123.802C231.692 123.802 239.24 118.786 241.063 114.669ZM211.63 88.5956C210.473 98.213 206.099 105.932 199.804 105.932C193.496 105.932 191.196 98.213 192.351 88.5956C193.496 78.9393 197.747 71.122 204.057 71.122C210.35 71.122 212.777 78.9393 211.63 88.5956ZM316.3 121.359C316.3 121.359 323.758 60.959 324.13 58.0168C324.13 57.6245 323.887 57.4876 323.758 57.4876H323.887C303.848 53.3685 285.718 53.6321 267.973 57.4876C267.823 57.4876 267.451 57.6245 267.451 58.1353C267.451 58.1353 264.988 78.8229 261.15 88.8347C253.826 107.336 245.851 108.239 245.593 110.669C245.219 113.386 248.422 124.818 260.383 124.818C270.791 124.818 278 118.141 281.849 102.722C284.443 92.5656 285.974 81.2605 286.501 69.3056H296.901C294.587 88.3239 290.47 121.359 290.47 121.359C290.47 121.986 290.984 121.986 290.984 121.986H315.801C315.801 121.986 316.3 121.986 316.3 121.359ZM394.763 89.3597C393.36 71.122 372.641 67.2623 357.988 72.2764L358.644 69.6958C411.1 63.9257 402.599 25.2272 376.629 26.0118C346.57 26.7882 329.983 63.9257 329.983 91.9158C329.983 109.653 340.498 124.303 359.952 124.303C379.846 124.303 396.308 110.168 394.763 89.3597ZM363.395 82.9197C369.815 84.0925 371.899 88.5958 371.487 95.5162C371.368 99.241 368.169 109.778 361.459 109.778C352.089 109.778 354.906 89.36 355.942 83.7002C355.942 83.7002 360.073 82.4151 363.395 82.9197ZM361.461 59.9291C362.767 55.4177 366.489 42.8396 372.014 42.8396C375.231 42.8396 375.352 44.652 375.231 46.309C374.205 54.155 361.461 59.9291 361.461 59.9291ZM476.818 114.669C478.477 111.198 469.22 115.57 471.645 95.1317C472.818 86.2805 477.308 56.9807 477.308 56.9807C477.308 56.474 476.928 56.3371 476.928 56.3371H451.232C451.232 56.3371 450.457 56.474 450.457 57.0931C450.457 57.0931 449.944 60.587 449.294 65.975C446.201 58.7746 440.552 53.7647 431.695 53.7647C414.845 53.7647 403.802 69.4464 401.627 87.0528C399.425 104.257 406.24 123.655 422.416 123.655C431.434 123.655 439.139 117.501 444.554 109.148C445.049 118.259 451.35 123.802 460.233 123.802C467.44 123.802 474.999 118.786 476.818 114.669ZM447.364 88.5956C446.201 98.213 441.848 105.932 435.556 105.932C429.24 105.932 426.914 98.213 428.09 88.5956C429.24 78.9393 433.498 71.122 439.765 71.122C446.085 71.122 448.517 78.9393 447.364 88.5956ZM528.307 96.28C553.242 97.0564 552.722 74.0559 550.022 75.4698C549.009 75.858 545.401 81.3788 536.15 80.8701C526.77 80.4737 522.274 76.4996 510.58 75.9929C490.521 75.0939 486.901 98.2129 489.74 97.1933C491.03 96.9216 494.241 92.0444 503.643 92.0444C510.58 91.9034 519.04 95.6507 528.307 96.28ZM39.4322 96.28C64.3623 97.0564 63.8411 74.0559 61.1329 75.4698C60.1109 75.858 56.4992 81.3788 47.2605 80.8701C37.8706 80.4737 33.3862 76.4996 21.6784 75.9929C1.62102 75.0939 -1.98044 98.2129 0.846357 97.1933C2.15653 96.9216 5.3492 92.0444 14.7575 92.0444C21.6784 91.9034 30.1506 95.6507 39.4322 96.28Z" fill="url(#paint0_linear)"/>
<path d="M754.274 87.5046V84.7969C758.369 84.2458 759.997 83.0767 760.773 78.2983V19.5401C761.015 14.4446 759.385 13.3315 753.732 12.4999V9.25065H774.311L787.85 59.6148L800.577 8.97987H821.155V12.2292H819.26C815.901 12.2365 814.817 13.258 814.386 17.1031V77.486C814.586 82.3945 815.74 84.5261 821.426 84.5261V87.5046H795.432V84.2553H798.41C801.118 84.2553 802.201 82.3599 802.201 78.2983V23.0602L785.413 87.5046H782.976L765.105 22.2479V77.2152C765.644 82.171 766.972 84.0207 772.416 84.5261V87.5046H754.274Z" fill="#004EA3"/>
<path d="M828.466 30.3711V8.7091H872.603V30.1003H869.083V25.7679C869.353 18.9986 865.292 13.3123 861.501 13.3123H856.898V79.3814L861.501 83.9846H863.396V87.2339H837.673V83.9846H839.839L844.442 79.3814V13.3123H840.922C835.506 13.3123 832.294 17.495 831.716 25.2264V30.3711H828.466Z" fill="#004EA3"/>
<path fill-rule="evenodd" clip-rule="evenodd" d="M879.643 8.7091H919.988V29.8296H917.01C916.648 17.7425 914.921 13.623 907.803 13.3123H898.056V32.2665H903.471C919.816 33.7761 923.993 39.023 925.133 53.9285V65.0303C924.05 81.5476 914.844 86.9631 907.533 86.9631H880.184V83.9846C884.128 83.7028 886.412 82.3599 886.412 78.8398V19.2693C886.412 14.9369 885.058 11.9584 881.538 11.9584H879.643V8.7091ZM898.056 36.599V77.486C898.165 80.1287 898.555 81.4302 901.305 82.6307H902.929C907.803 81.8184 912.407 74.2367 912.407 66.1135V55.0117C912.407 43.9099 908.982 36.4841 898.056 36.599Z" fill="#004EA3"/>
<path fill-rule="evenodd" clip-rule="evenodd" d="M941.108 42.0144V39.3067C943.274 34.162 950.314 34.4327 950.314 41.4729V52.5747C942.868 58.3684 938.84 62.0258 934.95 68.1041C933.976 69.6267 933.391 71.3707 933.218 73.1703C932.497 80.712 933.465 84.4841 938.942 87.5046C945.439 87.9607 948.058 86.2021 950.856 79.3814C951.865 84.153 952.54 86.6746 956.271 87.5046H960.062C963.945 85.111 965.157 83.2808 966.019 79.3814C965.682 78.4806 965.316 78.0529 964.462 77.6387C964.261 77.5414 964.023 77.5917 963.864 77.748C962.623 78.9673 962.155 78.9953 961.145 77.486V45.017C961.145 43.5606 961.02 42.0998 960.658 40.6891C959.18 34.9378 956.93 32.5418 950.856 31.1834H946.523C940.186 33.0059 937.588 35.0336 934.609 40.3898C932.965 46.1706 932.555 49.0259 934.609 52.0331C937.507 54.0987 939.193 54.6103 942.462 52.5747C945.982 50.1377 944.086 46.3468 941.108 42.0144ZM950.586 57.7242V74.5074C950.586 77.7567 942.192 76.9444 942.192 73.4243V71.5609C942.192 71.0033 942.299 70.4485 942.513 69.9334C944.823 64.3559 946.627 61.4507 950.213 57.5773C950.346 57.4333 950.586 57.528 950.586 57.7242Z" fill="#004EA3"/>
<path d="M989.036 32.5373H971.706V34.9743C972.789 34.9743 975.497 37.1405 975.497 38.7651V80.1937C975.497 81.8184 974.143 83.7138 971.977 83.7138V86.6923H989.036V83.7138C987.682 83.7138 985.787 81.5476 985.787 80.4645V60.9687H996.076V80.4645C996.076 81.8184 993.91 83.7138 992.827 83.7138V86.4215H1009.89V83.443C1008.53 83.443 1006.64 81.8184 1006.64 80.1937V38.7651C1006.64 36.8697 1007.99 35.5158 1009.89 35.5158V32.2665H992.827V35.5158C994.993 35.5158 996.076 37.682 996.076 38.7651V57.1778H985.787V38.7651C985.787 37.1405 987.141 35.5158 989.036 35.5158V32.5373Z" fill="#004EA3"/>
<path d="M1031.01 8.16755H1016.38V11.4168C1018.82 11.4168 1020.45 13.3123 1020.45 15.4785V79.6522C1020.45 81.2768 1019.09 83.443 1017.2 83.443V86.4215H1034.53V83.443C1032.9 83.443 1031.01 81.8184 1031.01 79.6522V64.4888L1032.9 61.781L1041.02 80.4645C1041.02 82.6307 1040.75 83.443 1038.59 83.443V86.4215H1056.46V83.443C1051 80.9885 1046.61 65.7717 1039.94 50.6792C1045.33 41.7099 1048.37 36.3874 1053.48 35.2451V31.9958H1038.32V35.2451C1040.67 35.6598 1041.36 36.208 1042.11 37.4113L1042.38 39.8482L1031.01 57.9902V8.16755Z" fill="#004EA3"/>
<path d="M715.011 145.629H711.22V136.401H701.304V145.629H697.861V124.925H701.304V133.319H711.22V124.925H715.011V145.629Z" fill="#004EA3"/>
<path d="M727.277 136.42H724.778V145.629H721.335V124.925H724.778V133.403H725.842L733.153 124.925H737.902L729.632 134.131C734.43 135.066 735.769 139.854 738.297 145.629H734.236C733.013 141.289 731.819 138.513 727.277 136.42Z" fill="#004EA3"/>
<path fill-rule="evenodd" clip-rule="evenodd" d="M676.828 126.603L678.182 129.04C681.432 126.603 687.659 126.603 687.659 130.394V132.289C682.255 132.703 679.336 133.423 677.187 135.776C676.086 136.981 675.485 138.602 675.548 140.234C675.569 140.771 675.635 141.339 675.745 142.037C676.828 146.64 684.952 148.265 688.201 143.218V145.683H691.721V130.935C691.45 124.708 682.515 122.812 676.828 126.603ZM687.93 135.74V138.808C687.93 139.466 687.742 140.118 687.321 140.623C684.81 143.631 681.616 143.889 679.958 141.675C679.373 140.894 679.328 139.842 679.636 138.916C680.619 135.962 682.661 135.12 687.405 135.202C687.697 135.207 687.93 135.447 687.93 135.74Z" fill="#004EA3"/>
<path d="M913.489 135.098C913.489 138.27 912.685 140.826 911.078 142.765C909.472 144.705 907.296 145.674 904.551 145.674C901.75 145.674 899.546 144.871 897.939 143.266V153.303H893.993V124.445H897.598L897.79 126.756C899.397 124.958 901.629 124.059 904.487 124.059C907.26 124.059 909.45 125.003 911.057 126.891C912.678 128.779 913.489 131.406 913.489 134.77V135.098ZM909.543 134.693C909.543 132.343 908.988 130.487 907.879 129.126C906.77 127.765 905.248 127.084 903.314 127.084C900.925 127.084 899.133 128.041 897.939 129.954V139.914C899.119 141.815 900.925 142.765 903.357 142.765C905.248 142.765 906.748 142.091 907.858 140.742C908.981 139.381 909.543 137.365 909.543 134.693Z" fill="#004EA3"/>
<path fill-rule="evenodd" clip-rule="evenodd" d="M670.062 117.29H653.815V146.534H663.022C674.665 145.992 675.477 127.579 663.022 128.121H657.606V120.81H670.062V117.29ZM657.606 131.37V143.555H662.751C669.52 143.555 670.333 131.37 662.751 131.37H657.606Z" fill="#004EA3"/>
<path d="M769.707 146.013V124.893H777.333C780.075 124.893 782.176 125.375 783.635 126.34C785.107 127.292 785.844 128.694 785.844 130.547C785.844 131.499 785.558 132.362 784.987 133.137C784.416 133.898 783.572 134.482 782.455 134.888C783.699 135.18 784.695 135.751 785.444 136.602C786.205 137.452 786.586 138.467 786.586 139.648C786.998 143.084 783.253 145.719 779.801 145.973C779.44 145.999 779.045 146.013 778.609 146.013H769.707ZM773.79 136.202V143.597H774.954C777.381 143.597 780.107 143.736 781.892 142.091C782.704 141.008 783.045 140.524 783.045 139.534C782.951 138.044 781.451 136.965 778.514 136.449L773.79 136.202ZM773.79 133.632H777.371C780.671 133.632 782.321 132.667 782.321 130.738C782.321 128.808 780.76 127.812 777.638 127.749H773.79V133.632Z" fill="#004EA3"/>
<path d="M828.066 136.253H825.59V145.201H822.068V136.253H819.593C815.996 138.653 814.978 141.068 813.843 145.472H809.782C811.671 139.683 813.302 135.453 817.905 134.099L810.074 124.601H814.339L821.154 133.828H822.068V124.601H825.59V133.828H826.299L833.339 124.601H837.604L829.819 134.099C834.822 135.722 835.517 138.912 837.604 145.201H833.834C832.688 140.793 831.524 138.749 828.066 136.253Z" fill="#004EA3"/>
<path d="M854.458 124.601H859.063V145.201H855.272V128.954L845.795 145.201H841.435V124.601H844.957V139.642L854.458 124.601Z" fill="#004EA3"/>
<path d="M871.834 132.121L876.403 124.601H880.515L873.776 134.787L881.266 145.201H876.651L871.891 137.49L866.915 145.201H862.583L869.987 134.787L863.038 124.601H867.322L871.834 132.121Z" fill="#004EA3"/>
<path d="M764.833 128.705L765.916 125.997C745.067 116.808 742.089 153.363 765.916 144.68L764.833 142.243C748.858 147.406 749.534 123.014 764.833 128.705Z" fill="#004EA3"/>
<path d="M926.686 145.18C923.745 145.18 921.351 144.253 919.506 142.4C917.661 140.533 916.738 138.043 916.738 134.928V134.272C916.738 132.199 917.146 130.352 917.961 128.731C918.791 127.096 919.94 125.822 921.411 124.908C922.896 123.981 924.5 123.518 926.225 123.518C929.047 123.518 931.24 124.412 932.804 126.201C934.368 127.99 935.151 130.552 935.151 133.885V135.372H920.449C920.502 137.431 921.124 139.098 922.314 140.372C923.517 141.634 925.042 142.264 926.887 142.264C928.197 142.264 929.638 142.445 930.548 141.93C931.962 141.583 931.901 141.145 931.901 141.145L934.338 142.743C932.52 145.433 930.324 145.18 926.686 145.18ZM926.225 126.452C924.728 126.452 923.471 126.98 922.454 128.035C921.438 129.078 920.81 130.545 920.569 132.437H931.44V132.167C931.333 130.352 930.825 128.949 929.916 127.958C929.006 126.954 927.776 126.452 926.225 126.452Z" fill="#004EA3"/>
<path d="M799.964 146.263C797.022 146.263 794.628 145.336 792.783 143.483C790.938 141.616 790.015 139.126 790.015 136.011V135.355C790.015 133.282 790.423 131.435 791.239 129.814C792.068 128.179 793.218 126.905 794.689 125.991C796.173 125.064 797.778 124.601 799.502 124.601C802.324 124.601 804.517 125.495 806.081 127.284C807.646 129.074 808.428 131.635 808.428 134.968V136.455H793.726C793.779 138.514 794.401 140.181 795.591 141.455C796.795 142.717 798.319 143.348 800.164 143.348C801.475 143.348 802.916 143.528 803.825 143.014C805.239 142.666 805.179 142.228 805.179 142.228L807.616 143.826C805.797 146.516 803.601 146.263 799.964 146.263ZM799.502 127.535C798.005 127.535 796.748 128.063 795.732 129.119C794.715 130.161 794.087 131.628 793.846 133.52H804.717V133.25C804.61 131.435 804.102 130.032 803.193 129.041C802.284 128.037 801.054 127.535 799.502 127.535Z" fill="#004EA3"/>
<path d="M979.758 145.18C976.817 145.18 974.423 144.253 972.578 142.4C970.733 140.533 969.81 138.043 969.81 134.928V134.272C969.81 132.199 970.218 130.352 971.033 128.731C971.862 127.096 973.012 125.822 974.483 124.908C975.968 123.981 977.572 123.518 979.297 123.518C982.118 123.518 984.311 124.412 985.876 126.201C987.44 127.99 988.223 130.552 988.223 133.885V135.372H973.521C973.574 137.431 974.196 139.098 975.386 140.372C976.589 141.634 978.114 142.264 979.959 142.264C981.269 142.264 982.71 142.445 983.619 141.93C985.034 141.583 984.973 141.145 984.973 141.145L987.41 142.743C985.592 145.433 983.395 145.18 979.758 145.18ZM979.297 126.452C977.799 126.452 976.543 126.98 975.526 128.035C974.51 129.078 973.882 130.545 973.641 132.437H984.512V132.167C984.405 130.352 983.897 128.949 982.988 127.958C982.078 126.954 980.848 126.452 979.297 126.452Z" fill="#004EA3"/>
<path d="M943.287 124.58V142.305H950.826V124.58H954.348V142.305H961.869V124.58H965.41V145.18H939.745V124.58H943.287Z" fill="#004EA3"/>
<path d="M1010.43 144.638H1006.62V135.851H996.385V144.638H992.555V124.059H996.385V132.979H1006.62V124.059H1010.43V144.638Z" fill="#004EA3"/>
<path d="M1030.02 123.518H1033.71V144.097H1030.02V129.09L1020.07 144.097H1016.38V123.518H1020.07V138.543L1030.02 123.518Z" fill="#004EA3"/>
<path d="M1053.31 123.518H1057V144.097H1053.31V129.09L1043.36 144.097H1039.67V123.518H1043.36V138.543L1053.31 123.518Z" fill="#004EA3"/>
<path d="M1054.76 115.394C1054.76 116.934 1054.2 118.174 1053.06 119.115C1051.93 120.043 1050.45 120.508 1048.62 120.508C1046.78 120.508 1045.29 120.037 1044.15 119.096C1043.02 118.155 1042.45 116.921 1042.45 115.394H1045.55C1045.55 116.285 1045.81 116.984 1046.33 117.493C1046.85 117.989 1047.62 118.237 1048.62 118.237C1049.58 118.237 1050.32 117.989 1050.86 117.493C1051.41 116.997 1051.68 116.298 1051.68 115.394H1054.76Z" fill="#004EA3"/>
<path d="M725.4 74.5225C717.95 83.2933 706.84 88.8585 694.431 88.8585C672.812 88.8585 655.139 71.9685 653.886 50.6643C655.605 49.133 674.677 56.4218 692.77 63.3367C707.92 69.1268 722.385 74.6548 725.4 74.5225Z" fill="#004EA3"/>
<path d="M670.52 15.4067C677.228 10.5135 685.492 7.62601 694.431 7.62601C714.733 7.62601 731.556 22.5211 734.567 41.9791C730.609 44.7815 712.007 35.4377 685.848 22.2974C681.34 20.0327 676.606 17.6552 671.685 15.2077C671.293 15.2737 670.904 15.3401 670.52 15.4067Z" fill="#004EA3"/>
<path d="M655.709 44.3148C651.249 42.3817 650.665 43.1259 653.002 47.5641C646.46 40.4304 644.628 37.3712 646.166 36.3263C648.17 34.964 650.896 36.3887 653.139 37.3068L725.84 67.0599C728.482 68.1722 729.758 66.8592 732.068 64.8937C729.171 69.9415 727.564 72.9304 723.945 71.3923L655.709 44.3148Z" fill="#FF140A"/>
<path d="M643.796 27.7505C639.639 26.5358 640.147 28.8776 642.172 34.2491C636.098 25.6144 633.157 20.7425 635.382 19.249C637.375 17.911 640.043 19.3068 642.241 20.2719L727.737 57.8066C731.22 59.4395 732.718 58.9504 734.777 56.1819C733.806 62.2571 732.565 64.6195 726.383 62.9513L643.796 27.7505Z" fill="#FF140A"/>
<path d="M634.862 11.7748C629.831 9.35643 630.55 11.9242 632.696 17.4611C624.63 6.81401 622.096 2.00159 625.426 0.860551C627.789 0.0503585 630.337 1.20036 632.612 2.23348L729.362 46.1633C732.933 48.1233 734.071 47.0918 735.59 43.9971C736.022 51.2509 735.6 54.2868 730.445 52.9327L634.862 11.7748Z" fill="#FF140A"/>
<defs>
<linearGradient id="paint0_linear" x1="275.639" y1="26" x2="275.639" y2="124.818" gradientUnits="userSpaceOnUse">
<stop stop-color="#FD6C50"/>
<stop offset="1" stop-color="#E52E4E"/>
</linearGradient>
</defs>
</svg>
