<svg width="182" height="47" viewBox="0 0 182 47" fill="none" xmlns="http://www.w3.org/2000/svg">
<path d="M16.173 0C12.81 0 8.7744 3.36167 5.50311 9.00674C2.01781 14.9055 0 22.1363 0 28.4474C0 37.7078 4.98337 47 16.173 47C27.3627 47 32.346 37.7078 32.346 28.4474C32.346 22.1363 30.3282 14.8738 26.8429 9.03846C23.5716 3.36167 19.536 0 16.173 0ZM103.52 13.8273H114.832V44.4312H126.969V13.8273H138.281V2.5054H103.52V13.8273ZM164.207 13.8273H182V2.5054H164.207C147.85 2.5054 139.137 10.9413 139.137 23.5C139.137 36.0587 147.881 44.4946 164.207 44.4946H182V33.141H164.207C156.625 33.141 151.702 30.3185 151.702 23.5C151.702 16.6815 156.625 13.8273 164.207 13.8273ZM78.8473 2.53711L72.3659 27.5911L65.8844 2.53711H44.4529V44.5263H56.5903V10.3387L65.4258 44.4629H79.3365L88.172 10.307V44.4629H100.309V2.53711H78.8473Z" fill="#FF0109"/>
</svg>
