<svg width="1164" height="346" viewBox="0 0 1164 346" fill="none" xmlns="http://www.w3.org/2000/svg">
<path d="M59.9745 46.6C59.9745 44.136 60.7905 42.08 62.4225 40.432C64.0705 38.768 66.1665 37.936 68.7105 37.936C71.2385 37.936 73.3265 38.736 74.9745 40.336C76.6385 41.936 77.4705 44.024 77.4705 46.6C77.4705 49.112 76.6385 51.184 74.9745 52.816C73.3105 54.448 71.2225 55.264 68.7105 55.264C66.1825 55.264 64.0945 54.464 62.4465 52.864C60.7985 51.264 59.9745 49.176 59.9745 46.6ZM63.0945 46.6C63.0945 48.28 63.6305 49.688 64.7025 50.824C65.7905 51.944 67.1265 52.504 68.7105 52.504C70.4385 52.504 71.8065 51.944 72.8145 50.824C73.8385 49.704 74.3505 48.296 74.3505 46.6C74.3505 44.872 73.8065 43.456 72.7185 42.352C71.6465 41.248 70.3105 40.696 68.7105 40.696C67.0945 40.696 65.7505 41.248 64.6785 42.352C63.6225 43.456 63.0945 44.872 63.0945 46.6ZM80.0946 55V44.2H82.8546V45.28C83.6386 44.432 84.6706 44.008 85.9506 44.008C88.9106 44.008 90.3906 45.56 90.3906 48.664V55H87.6306V49.144C87.6306 47.448 86.8226 46.6 85.2066 46.6C84.3266 46.6 83.5426 46.944 82.8546 47.632V55H80.0946ZM93.1962 52.024V38.2H95.9562V50.896C95.9562 52.064 96.2682 52.648 96.8922 52.648C97.2442 52.648 97.6202 52.504 98.0202 52.216L98.5962 54.328C97.8442 54.936 96.8922 55.24 95.7402 55.24C94.0442 55.24 93.1962 54.168 93.1962 52.024ZM100.776 55V44.2H103.536V55H100.776ZM100.488 40.312C100.488 39.832 100.656 39.448 100.992 39.16C101.328 38.856 101.736 38.704 102.216 38.704C102.632 38.704 103 38.856 103.32 39.16C103.64 39.448 103.8 39.832 103.8 40.312C103.8 40.84 103.64 41.264 103.32 41.584C103 41.888 102.632 42.04 102.216 42.04C101.72 42.04 101.304 41.888 100.968 41.584C100.648 41.264 100.488 40.84 100.488 40.312ZM107.024 55V44.2H109.784V45.28C110.568 44.432 111.6 44.008 112.88 44.008C115.84 44.008 117.32 45.56 117.32 48.664V55H114.56V49.144C114.56 47.448 113.752 46.6 112.136 46.6C111.256 46.6 110.472 46.944 109.784 47.632V55H107.024ZM128.598 51.976L129.39 53.92C128.334 54.816 126.958 55.264 125.262 55.264C123.518 55.264 122.11 54.744 121.038 53.704C119.982 52.664 119.454 51.296 119.454 49.6C119.454 47.984 119.974 46.64 121.014 45.568C122.054 44.48 123.438 43.936 125.166 43.936C126.59 43.936 127.798 44.408 128.79 45.352C129.782 46.28 130.278 47.48 130.278 48.952C130.278 49.56 130.222 50.056 130.11 50.44H122.31C122.422 51.24 122.774 51.864 123.366 52.312C123.958 52.744 124.686 52.96 125.55 52.96C126.766 52.96 127.782 52.632 128.598 51.976ZM125.046 46.24C123.478 46.24 122.534 47.024 122.214 48.592H127.518C127.534 47.92 127.318 47.36 126.87 46.912C126.422 46.464 125.814 46.24 125.046 46.24ZM132.501 55V44.2H135.261V45.256C135.869 44.424 136.693 44.008 137.733 44.008C138.485 44.008 139.045 44.144 139.413 44.416L138.429 47.008C137.965 46.736 137.501 46.6 137.037 46.6C136.237 46.6 135.645 46.984 135.261 47.752V55H132.501ZM145.039 49.72V47.152H151.087V49.72H145.039ZM162.028 55.264C161.084 55.264 160.164 55.096 159.268 54.76C158.372 54.408 157.724 53.976 157.324 53.464L158.74 51.736C159.06 52.104 159.516 52.416 160.108 52.672C160.716 52.928 161.276 53.056 161.788 53.056C162.492 53.056 163.036 52.936 163.42 52.696C163.804 52.456 163.996 52.136 163.996 51.736C163.996 51.368 163.852 51.072 163.564 50.848C163.276 50.624 162.876 50.512 162.364 50.512H160.348V48.664H162.244C162.676 48.664 163.02 48.536 163.276 48.28C163.548 48.024 163.684 47.712 163.684 47.344C163.684 46.56 163.052 46.168 161.788 46.168C160.796 46.168 159.812 46.584 158.836 47.416L157.684 45.76C158.724 44.544 160.268 43.936 162.316 43.936C163.724 43.936 164.796 44.208 165.532 44.752C166.268 45.296 166.636 46.048 166.636 47.008C166.636 47.536 166.46 48.016 166.108 48.448C165.756 48.88 165.268 49.2 164.644 49.408V49.456C165.38 49.6 165.94 49.904 166.324 50.368C166.724 50.816 166.924 51.36 166.924 52C166.924 53.008 166.476 53.808 165.58 54.4C164.684 54.976 163.5 55.264 162.028 55.264ZM170.372 46.984L169.676 44.968C170.844 44.28 172.116 43.936 173.492 43.936C175.028 43.936 176.132 44.312 176.804 45.064C177.476 45.816 177.812 46.936 177.812 48.424V55H175.412V53.752C174.756 54.68 173.692 55.144 172.22 55.144C171.212 55.144 170.396 54.848 169.772 54.256C169.148 53.664 168.836 52.856 168.836 51.832C168.836 50.696 169.204 49.832 169.94 49.24C170.676 48.632 171.62 48.328 172.772 48.328C173.764 48.328 174.58 48.56 175.22 49.024C175.252 48.08 175.116 47.384 174.812 46.936C174.508 46.472 173.972 46.24 173.204 46.24C172.404 46.24 171.46 46.488 170.372 46.984ZM173.132 52.816C174.06 52.816 174.756 52.488 175.22 51.832V50.728C174.756 50.376 174.124 50.2 173.324 50.2C172.828 50.2 172.412 50.32 172.076 50.56C171.756 50.784 171.596 51.112 171.596 51.544C171.596 51.944 171.74 52.256 172.028 52.48C172.316 52.704 172.684 52.816 173.132 52.816ZM190.865 44.2L186.713 49.336L191.369 55H187.769L183.497 49.552L187.385 44.2H190.865ZM180.641 55V44.2H183.401V55H180.641ZM193.833 46.984L193.137 44.968C194.305 44.28 195.577 43.936 196.953 43.936C198.489 43.936 199.593 44.312 200.265 45.064C200.937 45.816 201.273 46.936 201.273 48.424V55H198.873V53.752C198.217 54.68 197.153 55.144 195.681 55.144C194.673 55.144 193.857 54.848 193.233 54.256C192.609 53.664 192.297 52.856 192.297 51.832C192.297 50.696 192.665 49.832 193.401 49.24C194.137 48.632 195.081 48.328 196.233 48.328C197.225 48.328 198.041 48.56 198.681 49.024C198.713 48.08 198.577 47.384 198.273 46.936C197.969 46.472 197.433 46.24 196.665 46.24C195.865 46.24 194.921 46.488 193.833 46.984ZM196.593 52.816C197.521 52.816 198.217 52.488 198.681 51.832V50.728C198.217 50.376 197.585 50.2 196.785 50.2C196.289 50.2 195.873 50.32 195.537 50.56C195.217 50.784 195.057 51.112 195.057 51.544C195.057 51.944 195.201 52.256 195.489 52.48C195.777 52.704 196.145 52.816 196.593 52.816ZM207.918 55.264C206.974 55.264 206.054 55.096 205.158 54.76C204.262 54.408 203.614 53.976 203.214 53.464L204.63 51.736C204.95 52.104 205.406 52.416 205.998 52.672C206.606 52.928 207.166 53.056 207.678 53.056C208.382 53.056 208.926 52.936 209.31 52.696C209.694 52.456 209.886 52.136 209.886 51.736C209.886 51.368 209.742 51.072 209.454 50.848C209.166 50.624 208.766 50.512 208.254 50.512H206.238V48.664H208.134C208.566 48.664 208.91 48.536 209.166 48.28C209.438 48.024 209.574 47.712 209.574 47.344C209.574 46.56 208.942 46.168 207.678 46.168C206.686 46.168 205.702 46.584 204.726 47.416L203.574 45.76C204.614 44.544 206.158 43.936 208.206 43.936C209.614 43.936 210.686 44.208 211.422 44.752C212.158 45.296 212.526 46.048 212.526 47.008C212.526 47.536 212.35 48.016 211.998 48.448C211.646 48.88 211.158 49.2 210.534 49.408V49.456C211.27 49.6 211.83 49.904 212.214 50.368C212.614 50.816 212.814 51.36 212.814 52C212.814 53.008 212.366 53.808 211.47 54.4C210.574 54.976 209.39 55.264 207.918 55.264ZM215.423 55V44.2H218.183V47.152H219.527C221.223 47.152 222.439 47.504 223.175 48.208C223.911 48.912 224.279 49.808 224.279 50.896C224.279 52.064 223.879 53.04 223.079 53.824C222.279 54.608 221.023 55 219.311 55H215.423ZM225.815 55V44.2H228.575V55H225.815ZM219.287 49.36H218.183V52.6H219.263C220.655 52.6 221.351 52.064 221.351 50.992C221.351 49.904 220.663 49.36 219.287 49.36Z" fill="white"/>
<rect x="1.5" y="12.5" width="286" height="72" stroke="#E4002B" stroke-width="3"/>
<path d="M31.1816 171.6C31.1816 169.136 31.9976 167.08 33.6296 165.432C35.2776 163.768 37.3736 162.936 39.9176 162.936C42.4456 162.936 44.5336 163.736 46.1816 165.336C47.8456 166.936 48.6776 169.024 48.6776 171.6C48.6776 174.112 47.8456 176.184 46.1816 177.816C44.5176 179.448 42.4296 180.264 39.9176 180.264C37.3896 180.264 35.3016 179.464 33.6536 177.864C32.0056 176.264 31.1816 174.176 31.1816 171.6ZM34.3016 171.6C34.3016 173.28 34.8376 174.688 35.9096 175.824C36.9976 176.944 38.3336 177.504 39.9176 177.504C41.6456 177.504 43.0136 176.944 44.0216 175.824C45.0456 174.704 45.5576 173.296 45.5576 171.6C45.5576 169.872 45.0136 168.456 43.9256 167.352C42.8536 166.248 41.5176 165.696 39.9176 165.696C38.3016 165.696 36.9576 166.248 35.8856 167.352C34.8296 168.456 34.3016 169.872 34.3016 171.6ZM59.1575 176.376L60.4535 178.392C60.0055 179 59.3975 179.464 58.6295 179.784C57.8775 180.104 57.0535 180.264 56.1575 180.264C54.3975 180.264 52.9815 179.744 51.9095 178.704C50.8375 177.664 50.3015 176.296 50.3015 174.6C50.3015 173 50.8295 171.656 51.8855 170.568C52.9415 169.48 54.2775 168.936 55.8935 168.936C57.8135 168.936 59.2615 169.424 60.2375 170.4L58.9415 172.584C58.2215 171.88 57.3255 171.528 56.2535 171.528C55.4535 171.528 54.7495 171.816 54.1415 172.392C53.5495 172.952 53.2535 173.688 53.2535 174.6C53.2535 175.528 53.5575 176.28 54.1655 176.856C54.7895 177.416 55.5255 177.696 56.3735 177.696C57.4295 177.696 58.3575 177.256 59.1575 176.376ZM61.3299 171.96V169.2H71.1699V171.96H67.6419V180H64.8819V171.96H61.3299ZM73.9854 171.984L73.2894 169.968C74.4574 169.28 75.7294 168.936 77.1054 168.936C78.6414 168.936 79.7454 169.312 80.4174 170.064C81.0894 170.816 81.4254 171.936 81.4254 173.424V180H79.0254V178.752C78.3694 179.68 77.3054 180.144 75.8334 180.144C74.8254 180.144 74.0094 179.848 73.3854 179.256C72.7614 178.664 72.4494 177.856 72.4494 176.832C72.4494 175.696 72.8174 174.832 73.5534 174.24C74.2894 173.632 75.2334 173.328 76.3854 173.328C77.3774 173.328 78.1934 173.56 78.8334 174.024C78.8654 173.08 78.7294 172.384 78.4254 171.936C78.1214 171.472 77.5854 171.24 76.8174 171.24C76.0174 171.24 75.0734 171.488 73.9854 171.984ZM76.7454 177.816C77.6734 177.816 78.3694 177.488 78.8334 176.832V175.728C78.3694 175.376 77.7374 175.2 76.9374 175.2C76.4414 175.2 76.0254 175.32 75.6894 175.56C75.3694 175.784 75.2094 176.112 75.2094 176.544C75.2094 176.944 75.3534 177.256 75.6414 177.48C75.9294 177.704 76.2974 177.816 76.7454 177.816ZM83.1268 171.96V169.2H92.9668V171.96H89.4388V180H86.6788V171.96H83.1268ZM105.166 169.2L101.014 174.336L105.67 180H102.07L97.7983 174.552L101.686 169.2H105.166ZM94.9423 180V169.2H97.7023V180H94.9423ZM110.054 180H107.294V169.2H110.054V176.04L115.094 169.2H117.854V180H115.094V173.16L110.054 180ZM128.78 180H126.02V169.2H128.78V176.04L133.82 169.2H136.58V180H133.82V173.16L128.78 180ZM144.747 180V169.2H147.507V177.432H151.947V169.2H154.707V177.432H156.507V182.52H153.915V180H144.747ZM166.813 176.976L167.605 178.92C166.549 179.816 165.173 180.264 163.477 180.264C161.733 180.264 160.325 179.744 159.253 178.704C158.197 177.664 157.669 176.296 157.669 174.6C157.669 172.984 158.189 171.64 159.229 170.568C160.269 169.48 161.653 168.936 163.381 168.936C164.805 168.936 166.013 169.408 167.005 170.352C167.997 171.28 168.493 172.48 168.493 173.952C168.493 174.56 168.437 175.056 168.325 175.44H160.525C160.637 176.24 160.989 176.864 161.581 177.312C162.173 177.744 162.901 177.96 163.765 177.96C164.981 177.96 165.997 177.632 166.813 176.976ZM163.261 171.24C161.693 171.24 160.749 172.024 160.429 173.592H165.733C165.749 172.92 165.533 172.36 165.085 171.912C164.637 171.464 164.029 171.24 163.261 171.24ZM178.204 180V175.872H173.476V180H170.716V169.2H173.476V173.28H178.204V169.2H180.964V180H178.204ZM184.028 180V169.2H186.788V172.152H188.132C189.828 172.152 191.044 172.504 191.78 173.208C192.516 173.912 192.884 174.808 192.884 175.896C192.884 177.064 192.484 178.04 191.684 178.824C190.884 179.608 189.628 180 187.916 180H184.028ZM194.42 180V169.2H197.18V180H194.42ZM187.892 174.36H186.788V177.6H187.868C189.26 177.6 189.956 177.064 189.956 175.992C189.956 174.904 189.268 174.36 187.892 174.36ZM208.093 180H205.333V169.2H208.093V176.04L213.133 169.2H215.893V180H213.133V173.16L208.093 180ZM222.79 180.264C221.846 180.264 220.926 180.096 220.03 179.76C219.134 179.408 218.486 178.976 218.086 178.464L219.502 176.736C219.822 177.104 220.278 177.416 220.87 177.672C221.478 177.928 222.038 178.056 222.55 178.056C223.254 178.056 223.798 177.936 224.182 177.696C224.566 177.456 224.758 177.136 224.758 176.736C224.758 176.368 224.614 176.072 224.326 175.848C224.038 175.624 223.638 175.512 223.126 175.512H221.11V173.664H223.006C223.438 173.664 223.782 173.536 224.038 173.28C224.31 173.024 224.446 172.712 224.446 172.344C224.446 171.56 223.814 171.168 222.55 171.168C221.558 171.168 220.574 171.584 219.598 172.416L218.446 170.76C219.486 169.544 221.03 168.936 223.078 168.936C224.486 168.936 225.558 169.208 226.294 169.752C227.03 170.296 227.398 171.048 227.398 172.008C227.398 172.536 227.222 173.016 226.87 173.448C226.518 173.88 226.03 174.2 225.406 174.408V174.456C226.142 174.6 226.702 174.904 227.086 175.368C227.486 175.816 227.686 176.36 227.686 177C227.686 178.008 227.238 178.808 226.342 179.4C225.446 179.976 224.262 180.264 222.79 180.264ZM234.372 166.368L238.668 163.152H240.66V180H237.9V167.088L235.836 168.648L234.372 166.368ZM257.164 176.16L258.292 178.368C257.764 178.928 257.004 179.384 256.012 179.736C255.036 180.088 254.004 180.264 252.916 180.264C250.34 180.264 248.252 179.472 246.652 177.888C245.052 176.304 244.252 174.208 244.252 171.6C244.252 169.088 245.012 167.016 246.532 165.384C248.052 163.752 250.156 162.936 252.844 162.936C255.004 162.936 256.708 163.504 257.956 164.64L256.636 166.824C255.5 166.072 254.236 165.696 252.844 165.696C251.26 165.696 249.948 166.232 248.908 167.304C247.884 168.376 247.372 169.808 247.372 171.6C247.372 173.344 247.908 174.768 248.98 175.872C250.068 176.96 251.468 177.504 253.18 177.504C254.668 177.504 255.996 177.056 257.164 176.16Z" fill="white"/>
<rect x="1.5" y="137.5" width="286" height="72" stroke="#E4002B" stroke-width="3"/>
<path d="M552.586 180V163.2H562.402V165.96H555.538V169.704C556.194 169.608 556.946 169.56 557.794 169.56C559.538 169.56 560.914 170.016 561.922 170.928C562.93 171.84 563.434 173.072 563.434 174.624C563.434 176.368 562.866 177.72 561.73 178.68C560.61 179.624 559.018 180.096 556.954 180.096C556.234 180.096 555.386 180.08 554.41 180.048C553.45 180.016 552.842 180 552.586 180ZM557.554 172.32C556.962 172.32 556.29 172.368 555.538 172.464V177.24C556.434 177.304 557.058 177.336 557.41 177.336C559.474 177.336 560.506 176.504 560.506 174.84C560.506 174.072 560.258 173.464 559.762 173.016C559.282 172.552 558.546 172.32 557.554 172.32ZM569.296 180H566.536V169.2H569.296V176.04L574.336 169.2H577.096V180H574.336V173.16L569.296 180ZM579.049 171.96V169.2H588.889V171.96H585.361V180H582.601V171.96H579.049ZM590.864 184.8V169.2H593.624V170.232C593.976 169.864 594.448 169.56 595.04 169.32C595.648 169.064 596.288 168.936 596.96 168.936C598.432 168.936 599.616 169.448 600.512 170.472C601.408 171.496 601.856 172.816 601.856 174.432C601.856 176.112 601.328 177.504 600.272 178.608C599.216 179.712 597.84 180.264 596.144 180.264C595.072 180.264 594.232 180.088 593.624 179.736V184.8H590.864ZM596.096 171.528C595.152 171.528 594.328 171.92 593.624 172.704V177.072C594.264 177.488 595.024 177.696 595.904 177.696C596.832 177.696 597.568 177.4 598.112 176.808C598.656 176.2 598.928 175.432 598.928 174.504C598.928 173.624 598.68 172.912 598.184 172.368C597.688 171.808 596.992 171.528 596.096 171.528ZM607.007 180H604.247V169.2H607.007V176.04L612.047 169.2H614.807V180H612.047V173.16L607.007 180ZM628.112 169.2L623.96 174.336L628.616 180H625.016L620.744 174.552L624.632 169.2H628.112ZM617.888 180V169.2H620.648V180H617.888ZM637.767 176.376L639.063 178.392C638.615 179 638.007 179.464 637.239 179.784C636.487 180.104 635.663 180.264 634.767 180.264C633.007 180.264 631.591 179.744 630.519 178.704C629.447 177.664 628.911 176.296 628.911 174.6C628.911 173 629.439 171.656 630.495 170.568C631.551 169.48 632.887 168.936 634.503 168.936C636.423 168.936 637.871 169.424 638.847 170.4L637.551 172.584C636.831 171.88 635.935 171.528 634.863 171.528C634.063 171.528 633.359 171.816 632.751 172.392C632.159 172.952 631.863 173.688 631.863 174.6C631.863 175.528 632.167 176.28 632.775 176.856C633.399 177.416 634.135 177.696 634.983 177.696C636.039 177.696 636.967 177.256 637.767 176.376Z" fill="white"/>
<rect x="521.5" y="137.5" width="147" height="72" stroke="#E4002B" stroke-width="3"/>
<path d="M943.262 31.368L947.558 28.152H949.55V45H946.79V32.088L944.726 33.648L943.262 31.368ZM966.055 41.16L967.183 43.368C966.655 43.928 965.895 44.384 964.903 44.736C963.927 45.088 962.895 45.264 961.807 45.264C959.231 45.264 957.143 44.472 955.543 42.888C953.943 41.304 953.143 39.208 953.143 36.6C953.143 34.088 953.903 32.016 955.423 30.384C956.943 28.752 959.047 27.936 961.735 27.936C963.895 27.936 965.599 28.504 966.847 29.64L965.527 31.824C964.391 31.072 963.127 30.696 961.735 30.696C960.151 30.696 958.839 31.232 957.799 32.304C956.775 33.376 956.263 34.808 956.263 36.6C956.263 38.344 956.799 39.768 957.871 40.872C958.959 41.96 960.359 42.504 962.071 42.504C963.559 42.504 964.887 42.056 966.055 41.16ZM969.136 39.72V37.152H975.184V39.72H969.136ZM989.44 45V30.96H981.952V45H979V28.2H992.392V45H989.44ZM996.255 49.8V34.2H999.015V35.232C999.367 34.864 999.839 34.56 1000.43 34.32C1001.04 34.064 1001.68 33.936 1002.35 33.936C1003.82 33.936 1005.01 34.448 1005.9 35.472C1006.8 36.496 1007.25 37.816 1007.25 39.432C1007.25 41.112 1006.72 42.504 1005.66 43.608C1004.61 44.712 1003.23 45.264 1001.53 45.264C1000.46 45.264 999.623 45.088 999.015 44.736V49.8H996.255ZM1001.49 36.528C1000.54 36.528 999.719 36.92 999.015 37.704V42.072C999.655 42.488 1000.41 42.696 1001.29 42.696C1002.22 42.696 1002.96 42.4 1003.5 41.808C1004.05 41.2 1004.32 40.432 1004.32 39.504C1004.32 38.624 1004.07 37.912 1003.57 37.368C1003.08 36.808 1002.38 36.528 1001.49 36.528ZM1018.11 41.976L1018.9 43.92C1017.85 44.816 1016.47 45.264 1014.77 45.264C1013.03 45.264 1011.62 44.744 1010.55 43.704C1009.49 42.664 1008.97 41.296 1008.97 39.6C1008.97 37.984 1009.49 36.64 1010.53 35.568C1011.57 34.48 1012.95 33.936 1014.68 33.936C1016.1 33.936 1017.31 34.408 1018.3 35.352C1019.29 36.28 1019.79 37.48 1019.79 38.952C1019.79 39.56 1019.73 40.056 1019.62 40.44H1011.82C1011.93 41.24 1012.29 41.864 1012.88 42.312C1013.47 42.744 1014.2 42.96 1015.06 42.96C1016.28 42.96 1017.29 42.632 1018.11 41.976ZM1014.56 36.24C1012.99 36.24 1012.05 37.024 1011.73 38.592H1017.03C1017.05 37.92 1016.83 37.36 1016.38 36.912C1015.93 36.464 1015.33 36.24 1014.56 36.24ZM1020.37 47.52V42.432H1021.73C1022.58 41.312 1023.09 39.432 1023.25 36.792L1023.41 34.2H1031.38V42.432H1033.18V47.52H1030.59V45H1022.93V47.52H1020.37ZM1025.91 37.896C1025.72 39.992 1025.29 41.504 1024.61 42.432H1028.62V36.792H1025.98L1025.91 37.896ZM1042.36 45V36.792H1037.76V45H1035V34.2H1045.12V45H1042.36ZM1048.19 49.8V34.2H1050.95V35.232C1051.3 34.864 1051.78 34.56 1052.37 34.32C1052.98 34.064 1053.62 33.936 1054.29 33.936C1055.76 33.936 1056.94 34.448 1057.84 35.472C1058.74 36.496 1059.18 37.816 1059.18 39.432C1059.18 41.112 1058.66 42.504 1057.6 43.608C1056.54 44.712 1055.17 45.264 1053.47 45.264C1052.4 45.264 1051.56 45.088 1050.95 44.736V49.8H1048.19ZM1053.42 36.528C1052.48 36.528 1051.66 36.92 1050.95 37.704V42.072C1051.59 42.488 1052.35 42.696 1053.23 42.696C1054.16 42.696 1054.9 42.4 1055.44 41.808C1055.98 41.2 1056.26 40.432 1056.26 39.504C1056.26 38.624 1056.01 37.912 1055.51 37.368C1055.02 36.808 1054.32 36.528 1053.42 36.528ZM1064.34 45H1061.58V34.2H1064.34V41.04L1069.38 34.2H1072.14V45H1069.38V38.16L1064.34 45ZM1080.5 34.2H1084.02V45H1081.26V41.76H1079.73L1077.5 45H1074.33L1077.21 41.16C1076.66 40.968 1076.18 40.608 1075.74 40.08C1075.33 39.536 1075.12 38.856 1075.12 38.04C1075.12 36.904 1075.55 35.984 1076.42 35.28C1077.3 34.56 1078.66 34.2 1080.5 34.2ZM1078.07 38.232C1078.07 38.664 1078.25 39.024 1078.6 39.312C1078.97 39.584 1079.38 39.72 1079.82 39.72H1081.26V36.6H1080.04C1079.42 36.6 1078.93 36.76 1078.58 37.08C1078.24 37.4 1078.07 37.784 1078.07 38.232ZM1085.97 36.96V34.2H1095.81V36.96H1092.28V45H1089.52V36.96H1085.97ZM1100.55 45H1097.79V34.2H1100.55V41.04L1105.59 34.2H1108.35V45H1105.59V38.16L1100.55 45ZM1119.9 41.976L1120.69 43.92C1119.63 44.816 1118.26 45.264 1116.56 45.264C1114.82 45.264 1113.41 44.744 1112.34 43.704C1111.28 42.664 1110.75 41.296 1110.75 39.6C1110.75 37.984 1111.27 36.64 1112.31 35.568C1113.35 34.48 1114.74 33.936 1116.47 33.936C1117.89 33.936 1119.1 34.408 1120.09 35.352C1121.08 36.28 1121.58 37.48 1121.58 38.952C1121.58 39.56 1121.52 40.056 1121.41 40.44H1113.61C1113.72 41.24 1114.07 41.864 1114.67 42.312C1115.26 42.744 1115.99 42.96 1116.85 42.96C1118.07 42.96 1119.08 42.632 1119.9 41.976ZM1116.35 36.24C1114.78 36.24 1113.83 37.024 1113.51 38.592H1118.82C1118.83 37.92 1118.62 37.36 1118.17 36.912C1117.72 36.464 1117.11 36.24 1116.35 36.24Z" fill="white"/>
<rect x="902.5" y="2.5" width="260" height="72" stroke="#E4002B" stroke-width="3"/>
<path d="M945.202 183V177.24H947.002C947.498 176.632 948.018 175.392 948.562 173.52C949.122 171.632 949.466 169.312 949.594 166.56L949.762 163.2H960.178V177.24H962.458V183H959.698V180H947.962V183H945.202ZM952.354 168.888C952.21 170.856 951.914 172.624 951.466 174.192C951.018 175.76 950.61 176.776 950.242 177.24H957.25V165.96H952.618L952.354 168.888ZM972.664 176.976L973.456 178.92C972.4 179.816 971.024 180.264 969.328 180.264C967.584 180.264 966.176 179.744 965.104 178.704C964.048 177.664 963.52 176.296 963.52 174.6C963.52 172.984 964.04 171.64 965.08 170.568C966.12 169.48 967.504 168.936 969.232 168.936C970.656 168.936 971.864 169.408 972.856 170.352C973.848 171.28 974.344 172.48 974.344 173.952C974.344 174.56 974.288 175.056 974.176 175.44H966.376C966.488 176.24 966.84 176.864 967.432 177.312C968.024 177.744 968.752 177.96 969.616 177.96C970.832 177.96 971.848 177.632 972.664 176.976ZM969.112 171.24C967.544 171.24 966.6 172.024 966.28 173.592H971.584C971.6 172.92 971.384 172.36 970.936 171.912C970.488 171.464 969.88 171.24 969.112 171.24ZM984.681 176.376L985.977 178.392C985.529 179 984.921 179.464 984.153 179.784C983.401 180.104 982.577 180.264 981.681 180.264C979.921 180.264 978.505 179.744 977.433 178.704C976.361 177.664 975.825 176.296 975.825 174.6C975.825 173 976.353 171.656 977.409 170.568C978.465 169.48 979.801 168.936 981.417 168.936C983.337 168.936 984.785 169.424 985.761 170.4L984.465 172.584C983.745 171.88 982.849 171.528 981.777 171.528C980.977 171.528 980.273 171.816 979.665 172.392C979.073 172.952 978.777 173.688 978.777 174.6C978.777 175.528 979.081 176.28 979.689 176.856C980.313 177.416 981.049 177.696 981.897 177.696C982.953 177.696 983.881 177.256 984.681 176.376ZM998.416 169.2L994.264 174.336L998.92 180H995.32L991.048 174.552L994.936 169.2H998.416ZM988.192 180V169.2H990.952V180H988.192ZM999.416 171.96V169.2H1009.26V171.96H1005.73V180H1002.97V171.96H999.416ZM1011.84 178.68C1010.77 177.608 1010.23 176.248 1010.23 174.6C1010.23 172.952 1010.77 171.6 1011.84 170.544C1012.93 169.472 1014.35 168.936 1016.11 168.936C1017.87 168.936 1019.29 169.472 1020.36 170.544C1021.45 171.6 1021.99 172.952 1021.99 174.6C1021.99 176.248 1021.45 177.608 1020.36 178.68C1019.29 179.736 1017.87 180.264 1016.11 180.264C1014.35 180.264 1012.93 179.736 1011.84 178.68ZM1013.18 174.6C1013.18 175.496 1013.46 176.24 1014 176.832C1014.56 177.408 1015.26 177.696 1016.11 177.696C1016.98 177.696 1017.68 177.416 1018.22 176.856C1018.78 176.28 1019.06 175.528 1019.06 174.6C1019.06 173.704 1018.78 172.968 1018.22 172.392C1017.66 171.816 1016.96 171.528 1016.11 171.528C1015.28 171.528 1014.58 171.816 1014.02 172.392C1013.46 172.952 1013.18 173.688 1013.18 174.6ZM1031.75 180V171.792H1027.14V180H1024.38V169.2H1034.51V180H1031.75ZM1037.53 174.72V172.152H1043.58V174.72H1037.53ZM1046.6 180V169.2C1046.79 169.2 1047.14 169.192 1047.65 169.176C1048.18 169.144 1048.72 169.12 1049.26 169.104C1049.82 169.088 1050.35 169.08 1050.85 169.08C1054.11 169.08 1055.74 170.024 1055.74 171.912C1055.74 172.536 1055.54 173.072 1055.14 173.52C1054.76 173.968 1054.29 174.232 1053.73 174.312V174.36C1055.26 174.728 1056.03 175.56 1056.03 176.856C1056.03 179.032 1054.32 180.12 1050.89 180.12C1050.41 180.12 1049.65 180.096 1048.61 180.048C1047.57 180.016 1046.9 180 1046.6 180ZM1051.09 175.416H1049.36V177.816C1050.45 177.88 1051.05 177.912 1051.18 177.912C1051.79 177.912 1052.26 177.8 1052.6 177.576C1052.95 177.352 1053.13 177.048 1053.13 176.664C1053.13 175.832 1052.45 175.416 1051.09 175.416ZM1051.09 171.312C1050.32 171.312 1049.74 171.328 1049.36 171.36V173.736H1051.16C1051.64 173.736 1052.03 173.632 1052.33 173.424C1052.65 173.2 1052.81 172.888 1052.81 172.488C1052.81 171.704 1052.24 171.312 1051.09 171.312ZM1067.12 176.976L1067.91 178.92C1066.85 179.816 1065.48 180.264 1063.78 180.264C1062.04 180.264 1060.63 179.744 1059.56 178.704C1058.5 177.664 1057.97 176.296 1057.97 174.6C1057.97 172.984 1058.49 171.64 1059.53 170.568C1060.57 169.48 1061.96 168.936 1063.69 168.936C1065.11 168.936 1066.32 169.408 1067.31 170.352C1068.3 171.28 1068.8 172.48 1068.8 173.952C1068.8 174.56 1068.74 175.056 1068.63 175.44H1060.83C1060.94 176.24 1061.29 176.864 1061.89 177.312C1062.48 177.744 1063.21 177.96 1064.07 177.96C1065.29 177.96 1066.3 177.632 1067.12 176.976ZM1063.57 171.24C1062 171.24 1061.05 172.024 1060.73 173.592H1066.04C1066.05 172.92 1065.84 172.36 1065.39 171.912C1064.94 171.464 1064.33 171.24 1063.57 171.24ZM1071.02 184.8V169.2H1073.78V170.232C1074.13 169.864 1074.6 169.56 1075.2 169.32C1075.8 169.064 1076.44 168.936 1077.12 168.936C1078.59 168.936 1079.77 169.448 1080.67 170.472C1081.56 171.496 1082.01 172.816 1082.01 174.432C1082.01 176.112 1081.48 177.504 1080.43 178.608C1079.37 179.712 1078 180.264 1076.3 180.264C1075.23 180.264 1074.39 180.088 1073.78 179.736V184.8H1071.02ZM1076.25 171.528C1075.31 171.528 1074.48 171.92 1073.78 172.704V177.072C1074.42 177.488 1075.18 177.696 1076.06 177.696C1076.99 177.696 1077.72 177.4 1078.27 176.808C1078.81 176.2 1079.08 175.432 1079.08 174.504C1079.08 173.624 1078.84 172.912 1078.34 172.368C1077.84 171.808 1077.15 171.528 1076.25 171.528ZM1092.59 176.376L1093.88 178.392C1093.44 179 1092.83 179.464 1092.06 179.784C1091.31 180.104 1090.48 180.264 1089.59 180.264C1087.83 180.264 1086.41 179.744 1085.34 178.704C1084.27 177.664 1083.73 176.296 1083.73 174.6C1083.73 173 1084.26 171.656 1085.32 170.568C1086.37 169.48 1087.71 168.936 1089.32 168.936C1091.24 168.936 1092.69 169.424 1093.67 170.4L1092.37 172.584C1091.65 171.88 1090.76 171.528 1089.68 171.528C1088.88 171.528 1088.18 171.816 1087.57 172.392C1086.98 172.952 1086.68 173.688 1086.68 174.6C1086.68 175.528 1086.99 176.28 1087.6 176.856C1088.22 177.416 1088.96 177.696 1089.8 177.696C1090.86 177.696 1091.79 177.256 1092.59 176.376ZM1098.86 180H1096.1V169.2H1098.86V176.04L1103.9 169.2H1106.66V180H1103.9V173.16L1098.86 180ZM1115.02 169.2H1118.55V180H1115.79V176.76H1114.25L1112.02 180H1108.85L1111.73 176.16C1111.19 175.968 1110.7 175.608 1110.27 175.08C1109.85 174.536 1109.64 173.856 1109.64 173.04C1109.64 171.904 1110.08 170.984 1110.94 170.28C1111.82 169.56 1113.18 169.2 1115.02 169.2ZM1112.6 173.232C1112.6 173.664 1112.77 174.024 1113.12 174.312C1113.49 174.584 1113.9 174.72 1114.35 174.72H1115.79V171.6H1114.56C1113.94 171.6 1113.45 171.76 1113.1 172.08C1112.76 172.4 1112.6 172.784 1112.6 173.232Z" fill="white"/>
<rect x="902.5" y="137.5" width="260" height="72" stroke="#E4002B" stroke-width="3"/>
<path d="M933.601 315V298.2H936.577L942.313 306.048L947.785 298.2H950.569V315H947.641V302.856L942.337 310.32H941.905L936.553 302.928V315H933.601ZM955.378 313.68C954.306 312.608 953.77 311.248 953.77 309.6C953.77 307.952 954.306 306.6 955.378 305.544C956.466 304.472 957.89 303.936 959.65 303.936C961.41 303.936 962.826 304.472 963.898 305.544C964.986 306.6 965.53 307.952 965.53 309.6C965.53 311.248 964.986 312.608 963.898 313.68C962.826 314.736 961.41 315.264 959.65 315.264C957.89 315.264 956.466 314.736 955.378 313.68ZM956.722 309.6C956.722 310.496 956.994 311.24 957.538 311.832C958.098 312.408 958.802 312.696 959.65 312.696C960.514 312.696 961.218 312.416 961.762 311.856C962.322 311.28 962.602 310.528 962.602 309.6C962.602 308.704 962.322 307.968 961.762 307.392C961.202 306.816 960.498 306.528 959.65 306.528C958.818 306.528 958.122 306.816 957.562 307.392C957.002 307.952 956.722 308.688 956.722 309.6ZM976.031 297.936L977.471 300.192C977.055 300.688 976.575 301.04 976.031 301.248C975.487 301.44 974.847 301.616 974.111 301.776C973.391 301.92 972.767 302.12 972.239 302.376C970.895 303 970.119 304.344 969.911 306.408H969.959C970.295 305.816 970.815 305.336 971.519 304.968C972.223 304.584 972.967 304.392 973.751 304.392C975.239 304.392 976.431 304.872 977.327 305.832C978.223 306.792 978.671 308.08 978.671 309.696C978.671 311.248 978.143 312.568 977.087 313.656C976.031 314.728 974.671 315.264 973.007 315.264C971.199 315.264 969.767 314.648 968.711 313.416C967.671 312.184 967.151 310.52 967.151 308.424C967.151 303.8 968.511 300.904 971.231 299.736C971.839 299.48 972.495 299.288 973.199 299.16C973.903 299.016 974.463 298.872 974.879 298.728C975.311 298.584 975.695 298.32 976.031 297.936ZM970.103 309C970.119 310.072 970.383 310.96 970.895 311.664C971.407 312.352 972.087 312.696 972.935 312.696C973.783 312.696 974.455 312.424 974.951 311.88C975.463 311.32 975.719 310.632 975.719 309.816C975.719 308.984 975.487 308.304 975.023 307.776C974.559 307.232 973.903 306.96 973.055 306.96C972.319 306.96 971.687 307.152 971.159 307.536C970.647 307.92 970.295 308.408 970.103 309ZM983.827 315H981.067V304.2H983.827V311.04L988.867 304.2H991.627V315H988.867V308.16L983.827 315ZM1001.81 315V306.96H998.956L998.884 308.112C998.708 310.048 998.412 311.536 997.996 312.576C997.596 313.616 997.084 314.32 996.46 314.688C995.852 315.04 995.036 315.216 994.012 315.216L993.772 312.528C994.124 312.56 994.452 312.464 994.756 312.24C995.076 312 995.38 311.488 995.668 310.704C995.956 309.904 996.14 308.856 996.22 307.56L996.388 304.2H1004.57V315H1001.81ZM1007.65 315V304.2H1010.41V307.152H1011.89C1013.59 307.152 1014.81 307.504 1015.54 308.208C1016.28 308.912 1016.65 309.808 1016.65 310.896C1016.65 312.064 1016.25 313.04 1015.45 313.824C1014.65 314.608 1013.39 315 1011.68 315H1007.65ZM1011.65 309.36H1010.41V312.6H1011.63C1013.02 312.6 1013.72 312.064 1013.72 310.992C1013.72 309.904 1013.03 309.36 1011.65 309.36ZM1026.34 315V310.872H1021.61V315H1018.85V304.2H1021.61V308.28H1026.34V304.2H1029.1V315H1026.34ZM1033 306.984L1032.31 304.968C1033.47 304.28 1034.75 303.936 1036.12 303.936C1037.66 303.936 1038.76 304.312 1039.43 305.064C1040.11 305.816 1040.44 306.936 1040.44 308.424V315H1038.04V313.752C1037.39 314.68 1036.32 315.144 1034.85 315.144C1033.84 315.144 1033.03 314.848 1032.4 314.256C1031.78 313.664 1031.47 312.856 1031.47 311.832C1031.47 310.696 1031.83 309.832 1032.57 309.24C1033.31 308.632 1034.25 308.328 1035.4 308.328C1036.39 308.328 1037.21 308.56 1037.85 309.024C1037.88 308.08 1037.75 307.384 1037.44 306.936C1037.14 306.472 1036.6 306.24 1035.83 306.24C1035.03 306.24 1034.09 306.488 1033 306.984ZM1035.76 312.816C1036.69 312.816 1037.39 312.488 1037.85 311.832V310.728C1037.39 310.376 1036.75 310.2 1035.95 310.2C1035.46 310.2 1035.04 310.32 1034.71 310.56C1034.39 310.784 1034.23 311.112 1034.23 311.544C1034.23 311.944 1034.37 312.256 1034.66 312.48C1034.95 312.704 1035.31 312.816 1035.76 312.816ZM1048.55 304.2H1052.08V315H1049.32V311.76H1047.78L1045.55 315H1042.38L1045.26 311.16C1044.72 310.968 1044.23 310.608 1043.8 310.08C1043.38 309.536 1043.17 308.856 1043.17 308.04C1043.17 306.904 1043.61 305.984 1044.47 305.28C1045.35 304.56 1046.71 304.2 1048.55 304.2ZM1046.13 308.232C1046.13 308.664 1046.3 309.024 1046.65 309.312C1047.02 309.584 1047.43 309.72 1047.88 309.72H1049.32V306.6H1048.09C1047.47 306.6 1046.98 306.76 1046.63 307.08C1046.29 307.4 1046.13 307.784 1046.13 308.232ZM1060.24 315V304.2C1060.43 304.2 1060.78 304.192 1061.3 304.176C1061.82 304.144 1062.36 304.12 1062.9 304.104C1063.46 304.088 1063.99 304.08 1064.49 304.08C1067.75 304.08 1069.38 305.024 1069.38 306.912C1069.38 307.536 1069.18 308.072 1068.78 308.52C1068.4 308.968 1067.93 309.232 1067.37 309.312V309.36C1068.9 309.728 1069.67 310.56 1069.67 311.856C1069.67 314.032 1067.96 315.12 1064.54 315.12C1064.06 315.12 1063.3 315.096 1062.26 315.048C1061.22 315.016 1060.54 315 1060.24 315ZM1064.73 310.416H1063V312.816C1064.09 312.88 1064.7 312.912 1064.82 312.912C1065.43 312.912 1065.9 312.8 1066.24 312.576C1066.59 312.352 1066.77 312.048 1066.77 311.664C1066.77 310.832 1066.09 310.416 1064.73 310.416ZM1064.73 306.312C1063.96 306.312 1063.38 306.328 1063 306.36V308.736H1064.8C1065.28 308.736 1065.67 308.632 1065.98 308.424C1066.3 308.2 1066.46 307.888 1066.46 307.488C1066.46 306.704 1065.88 306.312 1064.73 306.312ZM1080.76 311.976L1081.55 313.92C1080.49 314.816 1079.12 315.264 1077.42 315.264C1075.68 315.264 1074.27 314.744 1073.2 313.704C1072.14 312.664 1071.61 311.296 1071.61 309.6C1071.61 307.984 1072.13 306.64 1073.17 305.568C1074.21 304.48 1075.6 303.936 1077.33 303.936C1078.75 303.936 1079.96 304.408 1080.95 305.352C1081.94 306.28 1082.44 307.48 1082.44 308.952C1082.44 309.56 1082.38 310.056 1082.27 310.44H1074.47C1074.58 311.24 1074.93 311.864 1075.53 312.312C1076.12 312.744 1076.85 312.96 1077.71 312.96C1078.93 312.96 1079.94 312.632 1080.76 311.976ZM1077.21 306.24C1075.64 306.24 1074.69 307.024 1074.37 308.592H1079.68C1079.69 307.92 1079.48 307.36 1079.03 306.912C1078.58 306.464 1077.97 306.24 1077.21 306.24ZM1084.66 319.8V304.2H1087.42V305.232C1087.77 304.864 1088.25 304.56 1088.84 304.32C1089.45 304.064 1090.09 303.936 1090.76 303.936C1092.23 303.936 1093.41 304.448 1094.31 305.472C1095.21 306.496 1095.65 307.816 1095.65 309.432C1095.65 311.112 1095.13 312.504 1094.07 313.608C1093.01 314.712 1091.64 315.264 1089.94 315.264C1088.87 315.264 1088.03 315.088 1087.42 314.736V319.8H1084.66ZM1089.89 306.528C1088.95 306.528 1088.13 306.92 1087.42 307.704V312.072C1088.06 312.488 1088.82 312.696 1089.7 312.696C1090.63 312.696 1091.37 312.4 1091.91 311.808C1092.45 311.2 1092.73 310.432 1092.73 309.504C1092.73 308.624 1092.48 307.912 1091.98 307.368C1091.49 306.808 1090.79 306.528 1089.89 306.528ZM1106.23 311.376L1107.52 313.392C1107.08 314 1106.47 314.464 1105.7 314.784C1104.95 315.104 1104.12 315.264 1103.23 315.264C1101.47 315.264 1100.05 314.744 1098.98 313.704C1097.91 312.664 1097.37 311.296 1097.37 309.6C1097.37 308 1097.9 306.656 1098.96 305.568C1100.01 304.48 1101.35 303.936 1102.96 303.936C1104.88 303.936 1106.33 304.424 1107.31 305.4L1106.01 307.584C1105.29 306.88 1104.4 306.528 1103.32 306.528C1102.52 306.528 1101.82 306.816 1101.21 307.392C1100.62 307.952 1100.32 308.688 1100.32 309.6C1100.32 310.528 1100.63 311.28 1101.24 311.856C1101.86 312.416 1102.6 312.696 1103.44 312.696C1104.5 312.696 1105.43 312.256 1106.23 311.376ZM1112.5 315H1109.74V304.2H1112.5V311.04L1117.54 304.2H1120.3V315H1117.54V308.16L1112.5 315ZM1128.66 304.2H1132.19V315H1129.43V311.76H1127.89L1125.66 315H1122.49L1125.37 311.16C1124.83 310.968 1124.34 310.608 1123.91 310.08C1123.49 309.536 1123.28 308.856 1123.28 308.04C1123.28 306.904 1123.72 305.984 1124.58 305.28C1125.46 304.56 1126.82 304.2 1128.66 304.2ZM1126.24 308.232C1126.24 308.664 1126.41 309.024 1126.76 309.312C1127.13 309.584 1127.54 309.72 1127.99 309.72H1129.43V306.6H1128.2C1127.58 306.6 1127.09 306.76 1126.74 307.08C1126.4 307.4 1126.24 307.784 1126.24 308.232Z" fill="white"/>
<rect x="902.5" y="272.5" width="260" height="72" stroke="#E4002B" stroke-width="3"/>
<path d="M579.99 310.536C579.99 310.088 579.846 309.696 579.558 309.36C579.286 309.008 578.926 308.712 578.478 308.472C578.03 308.216 577.534 307.976 576.99 307.752C576.462 307.512 575.926 307.248 575.382 306.96C574.838 306.656 574.342 306.328 573.894 305.976C573.446 305.608 573.078 305.136 572.79 304.56C572.518 303.968 572.382 303.304 572.382 302.568C572.382 301.256 572.854 300.16 573.798 299.28C574.758 298.384 576.03 297.936 577.614 297.936C579.726 297.936 581.326 298.536 582.414 299.736L580.83 301.944C579.966 301.112 578.974 300.696 577.854 300.696C577.134 300.696 576.558 300.864 576.126 301.2C575.71 301.536 575.502 301.984 575.502 302.544C575.502 303.088 575.686 303.56 576.054 303.96C576.438 304.36 576.91 304.68 577.47 304.92C578.03 305.144 578.638 305.416 579.294 305.736C579.966 306.056 580.582 306.392 581.142 306.744C581.702 307.08 582.166 307.576 582.534 308.232C582.918 308.872 583.11 309.632 583.11 310.512C583.11 311.904 582.574 313.048 581.502 313.944C580.43 314.824 579.094 315.264 577.494 315.264C576.342 315.264 575.23 315.032 574.158 314.568C573.102 314.088 572.382 313.44 571.998 312.624L573.678 310.608C574.142 311.216 574.726 311.688 575.43 312.024C576.15 312.344 576.854 312.504 577.542 312.504C578.262 312.504 578.846 312.336 579.294 312C579.758 311.648 579.99 311.16 579.99 310.536ZM586.512 315V298.2H589.488L595.224 306.048L600.696 298.2H603.48V315H600.552V302.856L595.248 310.32H594.816L589.464 302.928V315H586.512ZM614.888 310.536C614.888 310.088 614.744 309.696 614.456 309.36C614.184 309.008 613.824 308.712 613.376 308.472C612.928 308.216 612.432 307.976 611.888 307.752C611.36 307.512 610.824 307.248 610.28 306.96C609.736 306.656 609.24 306.328 608.792 305.976C608.344 305.608 607.976 305.136 607.688 304.56C607.416 303.968 607.28 303.304 607.28 302.568C607.28 301.256 607.752 300.16 608.696 299.28C609.656 298.384 610.928 297.936 612.512 297.936C614.624 297.936 616.224 298.536 617.312 299.736L615.728 301.944C614.864 301.112 613.872 300.696 612.752 300.696C612.032 300.696 611.456 300.864 611.024 301.2C610.608 301.536 610.4 301.984 610.4 302.544C610.4 303.088 610.584 303.56 610.952 303.96C611.336 304.36 611.808 304.68 612.368 304.92C612.928 305.144 613.536 305.416 614.192 305.736C614.864 306.056 615.48 306.392 616.04 306.744C616.6 307.08 617.064 307.576 617.432 308.232C617.816 308.872 618.008 309.632 618.008 310.512C618.008 311.904 617.472 313.048 616.4 313.944C615.328 314.824 613.992 315.264 612.392 315.264C611.24 315.264 610.128 315.032 609.056 314.568C608 314.088 607.28 313.44 606.896 312.624L608.576 310.608C609.04 311.216 609.624 311.688 610.328 312.024C611.048 312.344 611.752 312.504 612.44 312.504C613.16 312.504 613.744 312.336 614.192 312C614.656 311.648 614.888 311.16 614.888 310.536Z" fill="white"/>
<rect x="521.5" y="272.5" width="147" height="72" stroke="#E4002B" stroke-width="3"/>
<path d="M595 261L600.774 251H589.226L595 261ZM594 221V252H596V221H594Z" fill="#C5CDCF"/>
<path d="M510 171L500 165.226V176.774L510 171ZM299 172H501V170H299V172Z" fill="#C5CDCF"/>
<path d="M891 171L881 165.226V176.774L891 171ZM745.5 172H882V170H745.5V172Z" fill="#C5CDCF"/>
<path d="M586.5 126L592.273 116H580.727L586.5 126ZM299 60.5H561.5V58.5H299V60.5ZM585.5 84.5V117H587.5V84.5H585.5ZM561.5 60.5C574.755 60.5 585.5 71.2452 585.5 84.5H587.5C587.5 70.1406 575.859 58.5 561.5 58.5V60.5Z" fill="#C5CDCF"/>
<path d="M891 39L881 33.2265V44.7735L891 39ZM682 172H759V170H682V172ZM780 151V59H778V151H780ZM799 40H882V38H799V40ZM780 59C780 48.5066 788.507 40 799 40V38C787.402 38 778 47.402 778 59H780ZM759 172C770.598 172 780 162.598 780 151H778C778 161.493 769.493 170 759 170V172Z" fill="#C5CDCF"/>
<path d="M891 302L881 307.774V296.226L891 302ZM682 170H759V172H682V170ZM780 191V282H778V191H780ZM799 301H882V303H799V301ZM780 282C780 292.493 788.507 301 799 301V303C787.402 303 778 293.598 778 282H780ZM759 170C770.598 170 780 179.402 780 191H778C778 180.507 769.493 172 759 172V170Z" fill="#C5CDCF"/>
<path d="M299 42L309 47.7735V36.2265L299 42ZM308 43H434V41H308V43Z" fill="#C5CDCF"/>
<path d="M318.86 81.5L318.58 80.64C319.46 80.0933 320.413 79.82 321.44 79.82C322.64 79.82 323.493 80.12 324 80.72C324.52 81.32 324.78 82.22 324.78 83.42V89H323.74V87.62C323.007 88.62 321.98 89.12 320.66 89.12C319.82 89.12 319.147 88.88 318.64 88.4C318.133 87.9067 317.88 87.2533 317.88 86.44C317.88 85.56 318.2 84.8733 318.84 84.38C319.48 83.8867 320.3 83.64 321.3 83.64C322.3 83.64 323.113 83.8667 323.74 84.32C323.74 83.8133 323.727 83.4133 323.7 83.12C323.687 82.8267 323.633 82.5133 323.54 82.18C323.46 81.8333 323.34 81.5733 323.18 81.4C323.02 81.2267 322.787 81.0867 322.48 80.98C322.187 80.86 321.82 80.8 321.38 80.8C320.553 80.8 319.713 81.0333 318.86 81.5ZM320.98 88.14C322.1 88.14 323.02 87.6667 323.74 86.72V85.22C323.087 84.74 322.307 84.5 321.4 84.5C320.747 84.5 320.18 84.66 319.7 84.98C319.22 85.3 318.98 85.7667 318.98 86.38C318.98 86.9267 319.167 87.36 319.54 87.68C319.927 87.9867 320.407 88.14 320.98 88.14ZM327.76 93V80H328.8V81.2C329.146 80.8 329.62 80.4733 330.22 80.22C330.833 79.9533 331.46 79.82 332.1 79.82C333.38 79.82 334.4 80.24 335.16 81.08C335.92 81.92 336.3 83.0133 336.3 84.36C336.3 85.7467 335.873 86.9 335.02 87.82C334.166 88.7267 333.053 89.18 331.68 89.18C330.453 89.18 329.493 88.9267 328.8 88.42V93H327.76ZM331.82 80.8C331.22 80.8 330.64 80.94 330.08 81.22C329.533 81.4867 329.106 81.8133 328.8 82.2V87.38C329.626 87.9267 330.56 88.2 331.6 88.2C332.68 88.2 333.546 87.8467 334.2 87.14C334.866 86.4333 335.2 85.5267 335.2 84.42C335.2 83.3267 334.9 82.4533 334.3 81.8C333.713 81.1333 332.886 80.8 331.82 80.8ZM339.334 89V80H340.374V89H339.334ZM339.154 76.5C339.154 76.3 339.227 76.14 339.374 76.02C339.521 75.9 339.694 75.84 339.894 75.84C340.067 75.84 340.221 75.9067 340.354 76.04C340.501 76.16 340.574 76.3133 340.574 76.5C340.574 76.7267 340.507 76.9067 340.374 77.04C340.241 77.1733 340.081 77.24 339.894 77.24C339.681 77.24 339.501 77.1733 339.354 77.04C339.221 76.9067 339.154 76.7267 339.154 76.5ZM347.899 84.06V83.08H352.479V84.06H347.899ZM362.278 89.18C361.638 89.18 360.958 89.0667 360.238 88.84C359.518 88.6133 359.018 88.3267 358.738 87.98L359.278 87.18C359.638 87.5133 360.085 87.7667 360.618 87.94C361.151 88.1133 361.651 88.2 362.118 88.2C362.958 88.2 363.631 88.04 364.138 87.72C364.645 87.3867 364.898 86.9333 364.898 86.36C364.898 85.8933 364.711 85.5267 364.338 85.26C363.965 84.9933 363.458 84.86 362.818 84.86H361.298V84H362.718C363.225 84 363.658 83.84 364.018 83.52C364.378 83.2 364.558 82.8133 364.558 82.36C364.558 81.8533 364.351 81.4667 363.938 81.2C363.538 80.9333 362.985 80.8 362.278 80.8C361.211 80.8 360.271 81.1333 359.458 81.8L359.038 81C359.798 80.2133 360.925 79.82 362.418 79.82C363.458 79.82 364.258 80.0333 364.818 80.46C365.378 80.8733 365.658 81.4467 365.658 82.18C365.658 83.2333 365.118 83.9533 364.038 84.34V84.38C364.665 84.4333 365.145 84.6667 365.478 85.08C365.825 85.48 365.998 85.9533 365.998 86.5C365.998 87.3267 365.651 87.98 364.958 88.46C364.278 88.94 363.385 89.18 362.278 89.18ZM368.938 81.5L368.658 80.64C369.538 80.0933 370.491 79.82 371.518 79.82C372.718 79.82 373.571 80.12 374.078 80.72C374.598 81.32 374.858 82.22 374.858 83.42V89H373.818V87.62C373.085 88.62 372.058 89.12 370.738 89.12C369.898 89.12 369.225 88.88 368.718 88.4C368.211 87.9067 367.958 87.2533 367.958 86.44C367.958 85.56 368.278 84.8733 368.918 84.38C369.558 83.8867 370.378 83.64 371.378 83.64C372.378 83.64 373.191 83.8667 373.818 84.32C373.818 83.8133 373.805 83.4133 373.778 83.12C373.765 82.8267 373.711 82.5133 373.618 82.18C373.538 81.8333 373.418 81.5733 373.258 81.4C373.098 81.2267 372.865 81.0867 372.558 80.98C372.265 80.86 371.898 80.8 371.458 80.8C370.631 80.8 369.791 81.0333 368.938 81.5ZM371.058 88.14C372.178 88.14 373.098 87.6667 373.818 86.72V85.22C373.165 84.74 372.385 84.5 371.478 84.5C370.825 84.5 370.258 84.66 369.778 84.98C369.298 85.3 369.058 85.7667 369.058 86.38C369.058 86.9267 369.245 87.36 369.618 87.68C370.005 87.9867 370.485 88.14 371.058 88.14ZM385.178 80L380.738 84.3L385.538 89H384.138L379.478 84.36L383.838 80H385.178ZM377.838 89V80H378.878V89H377.838ZM387.805 81.5L387.525 80.64C388.405 80.0933 389.359 79.82 390.385 79.82C391.585 79.82 392.439 80.12 392.945 80.72C393.465 81.32 393.725 82.22 393.725 83.42V89H392.685V87.62C391.952 88.62 390.925 89.12 389.605 89.12C388.765 89.12 388.092 88.88 387.585 88.4C387.079 87.9067 386.825 87.2533 386.825 86.44C386.825 85.56 387.145 84.8733 387.785 84.38C388.425 83.8867 389.245 83.64 390.245 83.64C391.245 83.64 392.059 83.8667 392.685 84.32C392.685 83.8133 392.672 83.4133 392.645 83.12C392.632 82.8267 392.579 82.5133 392.485 82.18C392.405 81.8333 392.285 81.5733 392.125 81.4C391.965 81.2267 391.732 81.0867 391.425 80.98C391.132 80.86 390.765 80.8 390.325 80.8C389.499 80.8 388.659 81.0333 387.805 81.5ZM389.925 88.14C391.045 88.14 391.965 87.6667 392.685 86.72V85.22C392.032 84.74 391.252 84.5 390.345 84.5C389.692 84.5 389.125 84.66 388.645 84.98C388.165 85.3 387.925 85.7667 387.925 86.38C387.925 86.9267 388.112 87.36 388.485 87.68C388.872 87.9867 389.352 88.14 389.925 88.14ZM399.485 89.18C398.845 89.18 398.165 89.0667 397.445 88.84C396.725 88.6133 396.225 88.3267 395.945 87.98L396.485 87.18C396.845 87.5133 397.292 87.7667 397.825 87.94C398.358 88.1133 398.858 88.2 399.325 88.2C400.165 88.2 400.838 88.04 401.345 87.72C401.852 87.3867 402.105 86.9333 402.105 86.36C402.105 85.8933 401.918 85.5267 401.545 85.26C401.172 84.9933 400.665 84.86 400.025 84.86H398.505V84H399.925C400.432 84 400.865 83.84 401.225 83.52C401.585 83.2 401.765 82.8133 401.765 82.36C401.765 81.8533 401.558 81.4667 401.145 81.2C400.745 80.9333 400.192 80.8 399.485 80.8C398.418 80.8 397.478 81.1333 396.665 81.8L396.245 81C397.005 80.2133 398.132 79.82 399.625 79.82C400.665 79.82 401.465 80.0333 402.025 80.46C402.585 80.8733 402.865 81.4467 402.865 82.18C402.865 83.2333 402.325 83.9533 401.245 84.34V84.38C401.872 84.4333 402.352 84.6667 402.685 85.08C403.032 85.48 403.205 85.9533 403.205 86.5C403.205 87.3267 402.858 87.98 402.165 88.46C401.485 88.94 400.592 89.18 399.485 89.18ZM405.865 89V80H406.905V83.02H408.465C410.838 83.02 412.025 84.0067 412.025 85.98C412.025 86.86 411.738 87.5867 411.165 88.16C410.592 88.72 409.652 89 408.345 89H405.865ZM408.285 84H406.905V88.02H408.265C409.225 88.02 409.905 87.8533 410.305 87.52C410.718 87.1733 410.925 86.6667 410.925 86C410.925 84.6667 410.045 84 408.285 84ZM414.085 89V80H415.125V89H414.085Z" fill="white"/>
<path d="M318.86 19.5L318.58 18.64C319.46 18.0933 320.413 17.82 321.44 17.82C322.64 17.82 323.493 18.12 324 18.72C324.52 19.32 324.78 20.22 324.78 21.42V27H323.74V25.62C323.007 26.62 321.98 27.12 320.66 27.12C319.82 27.12 319.147 26.88 318.64 26.4C318.133 25.9067 317.88 25.2533 317.88 24.44C317.88 23.56 318.2 22.8733 318.84 22.38C319.48 21.8867 320.3 21.64 321.3 21.64C322.3 21.64 323.113 21.8667 323.74 22.32C323.74 21.8133 323.727 21.4133 323.7 21.12C323.687 20.8267 323.633 20.5133 323.54 20.18C323.46 19.8333 323.34 19.5733 323.18 19.4C323.02 19.2267 322.787 19.0867 322.48 18.98C322.187 18.86 321.82 18.8 321.38 18.8C320.553 18.8 319.713 19.0333 318.86 19.5ZM320.98 26.14C322.1 26.14 323.02 25.6667 323.74 24.72V23.22C323.087 22.74 322.307 22.5 321.4 22.5C320.747 22.5 320.18 22.66 319.7 22.98C319.22 23.3 318.98 23.7667 318.98 24.38C318.98 24.9267 319.167 25.36 319.54 25.68C319.927 25.9867 320.407 26.14 320.98 26.14ZM327.76 31V18H328.8V19.2C329.146 18.8 329.62 18.4733 330.22 18.22C330.833 17.9533 331.46 17.82 332.1 17.82C333.38 17.82 334.4 18.24 335.16 19.08C335.92 19.92 336.3 21.0133 336.3 22.36C336.3 23.7467 335.873 24.9 335.02 25.82C334.166 26.7267 333.053 27.18 331.68 27.18C330.453 27.18 329.493 26.9267 328.8 26.42V31H327.76ZM331.82 18.8C331.22 18.8 330.64 18.94 330.08 19.22C329.533 19.4867 329.106 19.8133 328.8 20.2V25.38C329.626 25.9267 330.56 26.2 331.6 26.2C332.68 26.2 333.546 25.8467 334.2 25.14C334.866 24.4333 335.2 23.5267 335.2 22.42C335.2 21.3267 334.9 20.4533 334.3 19.8C333.713 19.1333 332.886 18.8 331.82 18.8ZM339.334 27V18H340.374V27H339.334ZM339.154 14.5C339.154 14.3 339.227 14.14 339.374 14.02C339.521 13.9 339.694 13.84 339.894 13.84C340.067 13.84 340.221 13.9067 340.354 14.04C340.501 14.16 340.574 14.3133 340.574 14.5C340.574 14.7267 340.507 14.9067 340.374 15.04C340.241 15.1733 340.081 15.24 339.894 15.24C339.681 15.24 339.501 15.1733 339.354 15.04C339.221 14.9067 339.154 14.7267 339.154 14.5ZM347.899 22.06V21.08H352.479V22.06H347.899ZM366.498 24.96L367.018 25.72C366.645 26.1867 366.151 26.5467 365.538 26.8C364.938 27.0533 364.298 27.18 363.618 27.18C362.218 27.18 361.071 26.7533 360.178 25.9C359.298 25.0467 358.858 23.9133 358.858 22.5C358.858 21.18 359.285 20.0733 360.138 19.18C360.991 18.2733 362.058 17.82 363.338 17.82C364.885 17.82 366.051 18.1933 366.838 18.94L366.338 19.78C365.618 19.1267 364.671 18.8 363.498 18.8C362.525 18.8 361.691 19.1533 360.998 19.86C360.305 20.5667 359.958 21.4467 359.958 22.5C359.958 23.62 360.311 24.52 361.018 25.2C361.725 25.8667 362.618 26.2 363.698 26.2C364.858 26.2 365.791 25.7867 366.498 24.96ZM367.905 19.04V18H376.105V19.04H372.525V27H371.485V19.04H367.905ZM378.215 19.5L377.935 18.64C378.815 18.0933 379.769 17.82 380.795 17.82C381.995 17.82 382.849 18.12 383.355 18.72C383.875 19.32 384.135 20.22 384.135 21.42V27H383.095V25.62C382.362 26.62 381.335 27.12 380.015 27.12C379.175 27.12 378.502 26.88 377.995 26.4C377.489 25.9067 377.235 25.2533 377.235 24.44C377.235 23.56 377.555 22.8733 378.195 22.38C378.835 21.8867 379.655 21.64 380.655 21.64C381.655 21.64 382.469 21.8667 383.095 22.32C383.095 21.8133 383.082 21.4133 383.055 21.12C383.042 20.8267 382.989 20.5133 382.895 20.18C382.815 19.8333 382.695 19.5733 382.535 19.4C382.375 19.2267 382.142 19.0867 381.835 18.98C381.542 18.86 381.175 18.8 380.735 18.8C379.909 18.8 379.069 19.0333 378.215 19.5ZM380.335 26.14C381.455 26.14 382.375 25.6667 383.095 24.72V23.22C382.442 22.74 381.662 22.5 380.755 22.5C380.102 22.5 379.535 22.66 379.055 22.98C378.575 23.3 378.335 23.7667 378.335 24.38C378.335 24.9267 378.522 25.36 378.895 25.68C379.282 25.9867 379.762 26.14 380.335 26.14ZM385.795 19.04V18H393.995V19.04H390.415V27H389.375V19.04H385.795ZM403.918 18L400.278 27C399.638 28.56 399.071 29.6133 398.578 30.16C398.098 30.72 397.538 31 396.898 31C396.391 31 395.878 30.8467 395.358 30.54L395.698 29.74C396.125 29.94 396.478 30.04 396.758 30.04C397.211 30.04 397.618 29.84 397.978 29.44C398.338 29.0533 398.711 28.4 399.098 27.48L399.298 27L394.858 18H396.098L399.178 24.36L399.818 25.76C399.885 25.5333 400.051 25.0533 400.318 24.32L402.738 18H403.918ZM412.435 24.96L412.955 25.72C412.582 26.1867 412.089 26.5467 411.475 26.8C410.875 27.0533 410.235 27.18 409.555 27.18C408.155 27.18 407.009 26.7533 406.115 25.9C405.235 25.0467 404.795 23.9133 404.795 22.5C404.795 21.18 405.222 20.0733 406.075 19.18C406.929 18.2733 407.995 17.82 409.275 17.82C410.822 17.82 411.989 18.1933 412.775 18.94L412.275 19.78C411.555 19.1267 410.609 18.8 409.435 18.8C408.462 18.8 407.629 19.1533 406.935 19.86C406.242 20.5667 405.895 21.4467 405.895 22.5C405.895 23.62 406.249 24.52 406.955 25.2C407.662 25.8667 408.555 26.2 409.635 26.2C410.795 26.2 411.729 25.7867 412.435 24.96ZM415.24 27V18H416.28V21.02H417.84C420.213 21.02 421.4 22.0067 421.4 23.98C421.4 24.86 421.113 25.5867 420.54 26.16C419.967 26.72 419.027 27 417.72 27H415.24ZM417.66 22H416.28V26.02H417.64C418.6 26.02 419.28 25.8533 419.68 25.52C420.093 25.1733 420.3 24.6667 420.3 24C420.3 22.6667 419.42 22 417.66 22ZM423.46 27V18H424.5V27H423.46Z" fill="white"/>
<path d="M325.58 149.96L326.1 150.72C325.727 151.187 325.233 151.547 324.62 151.8C324.02 152.053 323.38 152.18 322.7 152.18C321.3 152.18 320.153 151.753 319.26 150.9C318.38 150.047 317.94 148.913 317.94 147.5C317.94 146.18 318.367 145.073 319.22 144.18C320.073 143.273 321.14 142.82 322.42 142.82C323.967 142.82 325.133 143.193 325.92 143.94L325.42 144.78C324.7 144.127 323.753 143.8 322.58 143.8C321.607 143.8 320.773 144.153 320.08 144.86C319.387 145.567 319.04 146.447 319.04 147.5C319.04 148.62 319.393 149.52 320.1 150.2C320.807 150.867 321.7 151.2 322.78 151.2C323.94 151.2 324.873 150.787 325.58 149.96ZM333.045 149.64C333.045 149.227 332.871 148.893 332.525 148.64C332.191 148.387 331.778 148.187 331.285 148.04C330.805 147.893 330.318 147.733 329.825 147.56C329.331 147.373 328.911 147.087 328.565 146.7C328.231 146.313 328.065 145.813 328.065 145.2C328.065 144.48 328.331 143.907 328.865 143.48C329.398 143.04 330.098 142.82 330.965 142.82C332.205 142.82 333.145 143.153 333.785 143.82L333.345 144.6C332.731 144.027 331.945 143.74 330.985 143.74C330.438 143.74 329.998 143.88 329.665 144.16C329.331 144.44 329.165 144.78 329.165 145.18C329.165 145.62 329.331 145.973 329.665 146.24C330.011 146.507 330.425 146.72 330.905 146.88C331.398 147.027 331.891 147.187 332.385 147.36C332.878 147.533 333.291 147.807 333.625 148.18C333.971 148.54 334.145 149.013 334.145 149.6C334.145 150.44 333.831 151.08 333.205 151.52C332.591 151.96 331.825 152.18 330.905 152.18C330.291 152.18 329.678 152.047 329.065 151.78C328.451 151.513 328.038 151.213 327.825 150.88L328.405 150.2C328.645 150.507 329.025 150.76 329.545 150.96C330.065 151.16 330.558 151.26 331.025 151.26C331.585 151.26 332.058 151.12 332.445 150.84C332.845 150.56 333.045 150.16 333.045 149.64ZM344.384 143L340.324 152.12H339.604L335.384 143H336.604L339.184 148.66C339.531 149.42 339.804 150.08 340.004 150.64C340.311 149.8 340.577 149.12 340.804 148.6L343.284 143H344.384Z" fill="white"/>
<path d="M823.24 17.64C823.24 17.2267 823.067 16.8933 822.72 16.64C822.387 16.3867 821.973 16.1867 821.48 16.04C821 15.8933 820.513 15.7333 820.02 15.56C819.527 15.3733 819.107 15.0867 818.76 14.7C818.427 14.3133 818.26 13.8133 818.26 13.2C818.26 12.48 818.527 11.9067 819.06 11.48C819.593 11.04 820.293 10.82 821.16 10.82C822.4 10.82 823.34 11.1533 823.98 11.82L823.54 12.6C822.927 12.0267 822.14 11.74 821.18 11.74C820.633 11.74 820.193 11.88 819.86 12.16C819.527 12.44 819.36 12.78 819.36 13.18C819.36 13.62 819.527 13.9733 819.86 14.24C820.207 14.5067 820.62 14.72 821.1 14.88C821.593 15.0267 822.087 15.1867 822.58 15.36C823.073 15.5333 823.487 15.8067 823.82 16.18C824.167 16.54 824.34 17.0133 824.34 17.6C824.34 18.44 824.027 19.08 823.4 19.52C822.787 19.96 822.02 20.18 821.1 20.18C820.487 20.18 819.873 20.0467 819.26 19.78C818.647 19.5133 818.233 19.2133 818.02 18.88L818.6 18.2C818.84 18.5067 819.22 18.76 819.74 18.96C820.26 19.16 820.753 19.26 821.22 19.26C821.78 19.26 822.253 19.12 822.64 18.84C823.04 18.56 823.24 18.16 823.24 17.64ZM827.619 18.86C826.739 17.98 826.299 16.86 826.299 15.5C826.299 14.14 826.739 13.02 827.619 12.14C828.499 11.26 829.633 10.82 831.019 10.82C832.406 10.82 833.539 11.26 834.419 12.14C835.299 13.02 835.739 14.14 835.739 15.5C835.739 16.86 835.299 17.98 834.419 18.86C833.539 19.74 832.406 20.18 831.019 20.18C829.633 20.18 828.499 19.74 827.619 18.86ZM828.419 12.84C827.739 13.5333 827.399 14.42 827.399 15.5C827.399 16.58 827.739 17.4667 828.419 18.16C829.099 18.8533 829.966 19.2 831.019 19.2C832.086 19.2 832.953 18.86 833.619 18.18C834.299 17.4867 834.639 16.5933 834.639 15.5C834.639 14.42 834.299 13.5333 833.619 12.84C832.939 12.1467 832.073 11.8 831.019 11.8C829.979 11.8 829.113 12.1467 828.419 12.84ZM838.567 12.5L838.287 11.64C839.167 11.0933 840.12 10.82 841.147 10.82C842.347 10.82 843.2 11.12 843.707 11.72C844.227 12.32 844.487 13.22 844.487 14.42V20H843.447V18.62C842.714 19.62 841.687 20.12 840.367 20.12C839.527 20.12 838.854 19.88 838.347 19.4C837.84 18.9067 837.587 18.2533 837.587 17.44C837.587 16.56 837.907 15.8733 838.547 15.38C839.187 14.8867 840.007 14.64 841.007 14.64C842.007 14.64 842.82 14.8667 843.447 15.32C843.447 14.8133 843.434 14.4133 843.407 14.12C843.394 13.8267 843.34 13.5133 843.247 13.18C843.167 12.8333 843.047 12.5733 842.887 12.4C842.727 12.2267 842.494 12.0867 842.187 11.98C841.894 11.86 841.527 11.8 841.087 11.8C840.26 11.8 839.42 12.0333 838.567 12.5ZM840.687 19.14C841.807 19.14 842.727 18.6667 843.447 17.72V16.22C842.794 15.74 842.014 15.5 841.107 15.5C840.454 15.5 839.887 15.66 839.407 15.98C838.927 16.3 838.687 16.7667 838.687 17.38C838.687 17.9267 838.874 18.36 839.247 18.68C839.634 18.9867 840.114 19.14 840.687 19.14ZM847.467 24V11H848.507V12.2C848.853 11.8 849.327 11.4733 849.927 11.22C850.54 10.9533 851.167 10.82 851.807 10.82C853.087 10.82 854.107 11.24 854.867 12.08C855.627 12.92 856.007 14.0133 856.007 15.36C856.007 16.7467 855.58 17.9 854.727 18.82C853.873 19.7267 852.76 20.18 851.387 20.18C850.16 20.18 849.2 19.9267 848.507 19.42V24H847.467ZM851.527 11.8C850.927 11.8 850.347 11.94 849.787 12.22C849.24 12.4867 848.813 12.8133 848.507 13.2V18.38C849.333 18.9267 850.267 19.2 851.307 19.2C852.387 19.2 853.253 18.8467 853.907 18.14C854.573 17.4333 854.907 16.5267 854.907 15.42C854.907 14.3267 854.607 13.4533 854.007 12.8C853.42 12.1333 852.593 11.8 851.527 11.8Z" fill="white"/>
</svg>
