<svg width="916" height="273" viewBox="0 0 916 273" fill="none" xmlns="http://www.w3.org/2000/svg">
<path d="M382.264 242.192V240.008H382.144C379.712 240.008 377.752 239.424 376.264 238.256C374.792 237.072 374.056 235.44 374.056 233.36C374.056 231.264 374.792 229.632 376.264 228.464C377.752 227.296 379.744 226.712 382.24 226.712H382.264V225.008H383.584V226.712H383.632C386.16 226.712 388.16 227.304 389.632 228.488C391.12 229.656 391.864 231.28 391.864 233.36C391.864 235.44 391.12 237.072 389.632 238.256C388.144 239.424 386.184 240.008 383.752 240.008H383.584V242.192H382.264ZM383.68 227.936H383.584V238.784H383.752C385.8 238.784 387.432 238.32 388.648 237.392C389.864 236.464 390.472 235.12 390.472 233.36C390.472 231.632 389.864 230.296 388.648 229.352C387.432 228.408 385.776 227.936 383.68 227.936ZM375.448 233.36C375.448 235.088 376.056 236.424 377.272 237.368C378.504 238.312 380.136 238.784 382.168 238.784H382.264V227.936H382.216C380.152 227.936 378.504 228.416 377.272 229.376C376.056 230.32 375.448 231.648 375.448 233.36ZM394.818 246.8V231.2H396.066V232.64C396.482 232.16 397.05 231.768 397.77 231.464C398.506 231.144 399.258 230.984 400.026 230.984C401.562 230.984 402.786 231.488 403.698 232.496C404.61 233.504 405.066 234.816 405.066 236.432C405.066 238.096 404.554 239.48 403.53 240.584C402.506 241.672 401.17 242.216 399.522 242.216C398.05 242.216 396.898 241.912 396.066 241.304V246.8H394.818ZM399.69 232.16C398.97 232.16 398.274 232.328 397.602 232.664C396.946 232.984 396.434 233.376 396.066 233.84V240.056C397.058 240.712 398.178 241.04 399.426 241.04C400.722 241.04 401.762 240.616 402.546 239.768C403.346 238.92 403.746 237.832 403.746 236.504C403.746 235.192 403.386 234.144 402.666 233.36C401.962 232.56 400.97 232.16 399.69 232.16ZM408.923 240.632C407.867 239.576 407.339 238.232 407.339 236.6C407.339 234.968 407.867 233.624 408.923 232.568C409.979 231.512 411.339 230.984 413.003 230.984C414.667 230.984 416.027 231.512 417.083 232.568C418.139 233.624 418.667 234.968 418.667 236.6C418.667 238.232 418.139 239.576 417.083 240.632C416.027 241.688 414.667 242.216 413.003 242.216C411.339 242.216 409.979 241.688 408.923 240.632ZM409.883 233.408C409.067 234.24 408.659 235.304 408.659 236.6C408.659 237.896 409.067 238.96 409.883 239.792C410.699 240.624 411.739 241.04 413.003 241.04C414.283 241.04 415.323 240.632 416.123 239.816C416.939 238.984 417.347 237.912 417.347 236.6C417.347 235.304 416.939 234.24 416.123 233.408C415.307 232.576 414.267 232.16 413.003 232.16C411.755 232.16 410.715 232.576 409.883 233.408ZM429.98 242V237.104H422.972V242H421.724V231.2H422.972V235.928H429.98V231.2H431.228V242H429.98ZM433.429 232.448V231.2H443.269V232.448H438.973V242H437.725V232.448H433.429ZM445.282 236.072V234.896H450.778V236.072H445.282ZM463.288 239.552L463.912 240.464C463.464 241.024 462.872 241.456 462.136 241.76C461.416 242.064 460.648 242.216 459.832 242.216C458.152 242.216 456.776 241.704 455.704 240.68C454.648 239.656 454.12 238.296 454.12 236.6C454.12 235.016 454.632 233.688 455.656 232.616C456.68 231.528 457.96 230.984 459.496 230.984C461.352 230.984 462.752 231.432 463.696 232.328L463.096 233.336C462.232 232.552 461.096 232.16 459.688 232.16C458.52 232.16 457.52 232.584 456.688 233.432C455.856 234.28 455.44 235.336 455.44 236.6C455.44 237.944 455.864 239.024 456.712 239.84C457.56 240.64 458.632 241.04 459.928 241.04C461.32 241.04 462.44 240.544 463.288 239.552ZM466.99 233L466.654 231.968C467.71 231.312 468.854 230.984 470.086 230.984C471.526 230.984 472.55 231.344 473.158 232.064C473.782 232.784 474.094 233.864 474.094 235.304V242H472.846V240.344C471.966 241.544 470.734 242.144 469.15 242.144C468.142 242.144 467.334 241.856 466.726 241.28C466.118 240.688 465.814 239.904 465.814 238.928C465.814 237.872 466.198 237.048 466.966 236.456C467.734 235.864 468.718 235.568 469.918 235.568C471.118 235.568 472.094 235.84 472.846 236.384C472.846 235.776 472.83 235.296 472.798 234.944C472.782 234.592 472.718 234.216 472.606 233.816C472.51 233.4 472.366 233.088 472.174 232.88C471.982 232.672 471.702 232.504 471.334 232.376C470.982 232.232 470.542 232.16 470.014 232.16C469.022 232.16 468.014 232.44 466.99 233ZM469.534 240.968C470.878 240.968 471.982 240.4 472.846 239.264V237.464C472.062 236.888 471.126 236.6 470.038 236.6C469.254 236.6 468.574 236.792 467.998 237.176C467.422 237.56 467.134 238.12 467.134 238.856C467.134 239.512 467.358 240.032 467.806 240.416C468.27 240.784 468.846 240.968 469.534 240.968ZM478.917 242H477.669V231.2H478.917V240.2L486.117 231.2H487.365V242H486.117V233L478.917 242ZM479.325 225.584H480.453C480.453 226.176 480.661 226.68 481.077 227.096C481.493 227.496 482.029 227.696 482.685 227.696C483.309 227.696 483.821 227.496 484.221 227.096C484.621 226.68 484.821 226.176 484.821 225.584H485.949C485.949 226.464 485.645 227.2 485.037 227.792C484.429 228.368 483.645 228.656 482.685 228.656C481.645 228.656 480.821 228.368 480.213 227.792C479.621 227.216 479.325 226.48 479.325 225.584ZM489.562 232.448V231.2H499.402V232.448H495.106V242H493.858V232.448H489.562ZM501.935 233L501.599 231.968C502.655 231.312 503.799 230.984 505.031 230.984C506.471 230.984 507.495 231.344 508.103 232.064C508.727 232.784 509.039 233.864 509.039 235.304V242H507.791V240.344C506.911 241.544 505.679 242.144 504.095 242.144C503.087 242.144 502.279 241.856 501.671 241.28C501.063 240.688 500.759 239.904 500.759 238.928C500.759 237.872 501.143 237.048 501.911 236.456C502.679 235.864 503.663 235.568 504.863 235.568C506.063 235.568 507.039 235.84 507.791 236.384C507.791 235.776 507.775 235.296 507.743 234.944C507.727 234.592 507.663 234.216 507.551 233.816C507.455 233.4 507.311 233.088 507.119 232.88C506.927 232.672 506.647 232.504 506.279 232.376C505.927 232.232 505.487 232.16 504.959 232.16C503.967 232.16 502.959 232.44 501.935 233ZM504.479 240.968C505.823 240.968 506.927 240.4 507.791 239.264V237.464C507.007 236.888 506.071 236.6 504.983 236.6C504.199 236.6 503.519 236.792 502.943 237.176C502.367 237.56 502.079 238.12 502.079 238.856C502.079 239.512 502.303 240.032 502.751 240.416C503.215 240.784 503.791 240.968 504.479 240.968Z" fill="white"/>
<rect x="337.5" y="199.5" width="209" height="72" rx="6.5" stroke="#E4002B" stroke-width="3"/>
<path d="M53.164 67V50.2H54.508L61.276 59.416L67.78 50.2H69.052V67H67.732V52.264L61.276 61.336H61.06L54.484 52.336V67H53.164ZM82.9189 56.2L78.5509 67C77.7829 68.872 77.1029 70.136 76.5109 70.792C75.9349 71.464 75.2629 71.8 74.4949 71.8C73.8869 71.8 73.2709 71.616 72.6469 71.248L73.0549 70.288C73.5669 70.528 73.9909 70.648 74.3269 70.648C74.8709 70.648 75.3589 70.408 75.7909 69.928C76.2229 69.464 76.6709 68.68 77.1349 67.576L77.3749 67L72.0469 56.2H73.5349L77.2309 63.832L77.9989 65.512C78.0789 65.24 78.2789 64.664 78.5989 63.784L81.5029 56.2H82.9189ZM93.6816 62.824C93.6816 62.184 93.5216 61.632 93.2016 61.168C92.8816 60.688 92.4656 60.304 91.9536 60.016C91.4416 59.728 90.8736 59.464 90.2496 59.224C89.6416 58.968 89.0256 58.712 88.4016 58.456C87.7936 58.184 87.2336 57.88 86.7216 57.544C86.2096 57.192 85.7936 56.736 85.4736 56.176C85.1536 55.6 84.9936 54.936 84.9936 54.184C84.9936 52.968 85.4336 51.968 86.3136 51.184C87.1936 50.384 88.3936 49.984 89.9136 49.984C90.8416 49.984 91.7056 50.136 92.5056 50.44C93.3056 50.744 93.9456 51.16 94.4256 51.688L93.7056 52.672C92.7456 51.712 91.4976 51.232 89.9616 51.232C88.8576 51.232 87.9856 51.504 87.3456 52.048C86.7056 52.576 86.3856 53.288 86.3856 54.184C86.3856 54.824 86.5456 55.376 86.8656 55.84C87.1856 56.288 87.6016 56.656 88.1136 56.944C88.6256 57.216 89.1856 57.472 89.7936 57.712C90.4176 57.936 91.0336 58.184 91.6416 58.456C92.2656 58.712 92.8336 59.016 93.3456 59.368C93.8576 59.704 94.2736 60.168 94.5936 60.76C94.9136 61.336 95.0736 62.016 95.0736 62.8C95.0736 64.112 94.5616 65.176 93.5376 65.992C92.5136 66.808 91.2416 67.216 89.7216 67.216C88.6816 67.216 87.6576 67 86.6496 66.568C85.6576 66.12 84.9616 65.528 84.5616 64.792L85.3536 63.88C85.8336 64.52 86.4736 65.032 87.2736 65.416C88.0896 65.784 88.8976 65.968 89.6976 65.968C90.8016 65.968 91.7376 65.688 92.5056 65.128C93.2896 64.568 93.6816 63.8 93.6816 62.824ZM97.6632 58.6C97.6632 56.152 98.4632 54.104 100.063 52.456C101.663 50.808 103.671 49.984 106.087 49.984C108.487 49.984 110.487 50.8 112.087 52.432C113.703 54.048 114.511 56.104 114.511 58.6C114.511 61.208 113.615 63.344 111.823 65.008L113.503 67H111.919L110.887 65.776C109.479 66.736 107.879 67.216 106.087 67.216C103.687 67.216 101.679 66.408 100.063 64.792C98.4632 63.16 97.6632 61.096 97.6632 58.6ZM99.0552 58.6C99.0552 60.696 99.7272 62.448 101.071 63.856C102.431 65.264 104.103 65.968 106.087 65.968C107.559 65.968 108.879 65.576 110.047 64.792L108.559 62.992L109.447 62.2L110.983 64.024C112.407 62.6 113.119 60.792 113.119 58.6C113.119 56.488 112.439 54.736 111.079 53.344C109.735 51.936 108.071 51.232 106.087 51.232C104.087 51.232 102.415 51.936 101.071 53.344C99.7272 54.736 99.0552 56.488 99.0552 58.6ZM118.461 67V50.2H119.781V65.752H128.637V67H118.461Z" fill="white"/>
<rect x="1.5" y="24.5" width="177" height="72" rx="6.5" stroke="#E4002B" stroke-width="3"/>
<path d="M381.78 32.2L373.836 40.144L382.116 49H380.412L372.276 40.24L380.172 32.2H381.78ZM370.164 49V32.2H371.484V49H370.164ZM392.143 46.72L392.551 47.68C391.575 48.704 390.247 49.216 388.567 49.216C386.855 49.216 385.471 48.704 384.415 47.68C383.359 46.656 382.831 45.296 382.831 43.6C382.831 41.968 383.311 40.624 384.271 39.568C385.247 38.512 386.591 37.984 388.303 37.984C389.711 37.984 390.879 38.432 391.807 39.328C392.735 40.224 393.199 41.4 393.199 42.856C393.199 43.24 393.175 43.576 393.127 43.864H384.223C384.271 45.16 384.695 46.184 385.495 46.936C386.295 47.672 387.343 48.04 388.639 48.04C390.127 48.04 391.295 47.6 392.143 46.72ZM388.183 39.16C387.015 39.16 386.079 39.504 385.375 40.192C384.671 40.864 384.263 41.744 384.151 42.832H391.927C391.911 41.696 391.567 40.8 390.895 40.144C390.223 39.488 389.319 39.16 388.183 39.16ZM396.185 49V38.2H397.433V47.824H402.113V38.2H403.361V47.824H408.041V38.2H409.289V49H396.185ZM414.355 49H413.107V38.2H414.355V47.2L421.555 38.2H422.803V49H421.555V40L414.355 49ZM426.584 53.8V38.2H427.832V39.64C428.248 39.16 428.816 38.768 429.536 38.464C430.272 38.144 431.024 37.984 431.792 37.984C433.328 37.984 434.552 38.488 435.464 39.496C436.376 40.504 436.832 41.816 436.832 43.432C436.832 45.096 436.32 46.48 435.296 47.584C434.272 48.672 432.936 49.216 431.288 49.216C429.816 49.216 428.664 48.912 427.832 48.304V53.8H426.584ZM431.456 39.16C430.736 39.16 430.04 39.328 429.368 39.664C428.712 39.984 428.2 40.376 427.832 40.84V47.056C428.824 47.712 429.944 48.04 431.192 48.04C432.488 48.04 433.528 47.616 434.312 46.768C435.112 45.92 435.512 44.832 435.512 43.504C435.512 42.192 435.152 41.144 434.432 40.36C433.728 39.56 432.736 39.16 431.456 39.16ZM440.689 47.632C439.633 46.576 439.105 45.232 439.105 43.6C439.105 41.968 439.633 40.624 440.689 39.568C441.745 38.512 443.105 37.984 444.769 37.984C446.433 37.984 447.793 38.512 448.849 39.568C449.905 40.624 450.433 41.968 450.433 43.6C450.433 45.232 449.905 46.576 448.849 47.632C447.793 48.688 446.433 49.216 444.769 49.216C443.105 49.216 441.745 48.688 440.689 47.632ZM441.649 40.408C440.833 41.24 440.425 42.304 440.425 43.6C440.425 44.896 440.833 45.96 441.649 46.792C442.465 47.624 443.505 48.04 444.769 48.04C446.049 48.04 447.089 47.632 447.889 46.816C448.705 45.984 449.113 44.912 449.113 43.6C449.113 42.304 448.705 41.24 447.889 40.408C447.073 39.576 446.033 39.16 444.769 39.16C443.521 39.16 442.481 39.576 441.649 40.408ZM453.49 49V38.2C453.762 38.2 454.274 38.192 455.026 38.176C455.794 38.144 456.442 38.128 456.97 38.128C458.458 38.128 459.57 38.352 460.306 38.8C461.058 39.248 461.434 39.952 461.434 40.912C461.434 41.52 461.242 42.056 460.858 42.52C460.474 42.984 459.938 43.272 459.25 43.384V43.432C460.978 43.704 461.842 44.568 461.842 46.024C461.842 48.056 460.234 49.072 457.018 49.072C456.538 49.072 455.906 49.056 455.122 49.024C454.338 49.008 453.794 49 453.49 49ZM457.33 44.032H454.738V47.848C455.666 47.88 456.474 47.896 457.162 47.896C459.402 47.896 460.522 47.232 460.522 45.904C460.522 44.656 459.458 44.032 457.33 44.032ZM457.114 39.304C456.33 39.304 455.538 39.32 454.738 39.352V43H457.594C458.378 43 458.994 42.832 459.442 42.496C459.89 42.144 460.114 41.68 460.114 41.104C460.114 39.904 459.114 39.304 457.114 39.304ZM465.38 40L465.044 38.968C466.1 38.312 467.244 37.984 468.476 37.984C469.916 37.984 470.94 38.344 471.548 39.064C472.172 39.784 472.484 40.864 472.484 42.304V49H471.236V47.344C470.356 48.544 469.124 49.144 467.54 49.144C466.532 49.144 465.724 48.856 465.116 48.28C464.508 47.688 464.204 46.904 464.204 45.928C464.204 44.872 464.588 44.048 465.356 43.456C466.124 42.864 467.108 42.568 468.308 42.568C469.508 42.568 470.484 42.84 471.236 43.384C471.236 42.776 471.22 42.296 471.188 41.944C471.172 41.592 471.108 41.216 470.996 40.816C470.9 40.4 470.756 40.088 470.564 39.88C470.372 39.672 470.092 39.504 469.724 39.376C469.372 39.232 468.932 39.16 468.404 39.16C467.412 39.16 466.404 39.44 465.38 40ZM467.924 47.968C469.268 47.968 470.372 47.4 471.236 46.264V44.464C470.452 43.888 469.516 43.6 468.428 43.6C467.644 43.6 466.964 43.792 466.388 44.176C465.812 44.56 465.524 45.12 465.524 45.856C465.524 46.512 465.748 47.032 466.196 47.416C466.66 47.784 467.236 47.968 467.924 47.968ZM484.316 49V44.104H477.308V49H476.06V38.2H477.308V42.928H484.316V38.2H485.564V49H484.316ZM490.597 49H489.349V38.2H490.597V47.2L497.797 38.2H499.045V49H497.797V40L490.597 49ZM511.37 46.72L511.778 47.68C510.802 48.704 509.474 49.216 507.794 49.216C506.082 49.216 504.698 48.704 503.642 47.68C502.586 46.656 502.058 45.296 502.058 43.6C502.058 41.968 502.538 40.624 503.498 39.568C504.474 38.512 505.818 37.984 507.53 37.984C508.938 37.984 510.106 38.432 511.034 39.328C511.962 40.224 512.426 41.4 512.426 42.856C512.426 43.24 512.402 43.576 512.354 43.864H503.45C503.498 45.16 503.922 46.184 504.722 46.936C505.522 47.672 506.57 48.04 507.866 48.04C509.354 48.04 510.522 47.6 511.37 46.72ZM507.41 39.16C506.242 39.16 505.306 39.504 504.602 40.192C503.898 40.864 503.49 41.744 503.378 42.832H511.154C511.138 41.696 510.794 40.8 510.122 40.144C509.45 39.488 508.546 39.16 507.41 39.16ZM369.396 84V73.2C369.668 73.2 370.18 73.192 370.932 73.176C371.7 73.144 372.348 73.128 372.876 73.128C374.364 73.128 375.476 73.352 376.212 73.8C376.964 74.248 377.34 74.952 377.34 75.912C377.34 76.52 377.148 77.056 376.764 77.52C376.38 77.984 375.844 78.272 375.156 78.384V78.432C376.884 78.704 377.748 79.568 377.748 81.024C377.748 83.056 376.14 84.072 372.924 84.072C372.444 84.072 371.812 84.056 371.028 84.024C370.244 84.008 369.7 84 369.396 84ZM373.236 79.032H370.644V82.848C371.572 82.88 372.38 82.896 373.068 82.896C375.308 82.896 376.428 82.232 376.428 80.904C376.428 79.656 375.364 79.032 373.236 79.032ZM373.02 74.304C372.236 74.304 371.444 74.32 370.644 74.352V78H373.5C374.284 78 374.9 77.832 375.348 77.496C375.796 77.144 376.02 76.68 376.02 76.104C376.02 74.904 375.02 74.304 373.02 74.304ZM387.367 84V67.2H388.711L395.479 76.416L401.983 67.2H403.255V84H401.935V69.264L395.479 78.336H395.263L388.687 69.336V84H387.367ZM416.354 81.72L416.762 82.68C415.786 83.704 414.458 84.216 412.778 84.216C411.066 84.216 409.682 83.704 408.626 82.68C407.57 81.656 407.042 80.296 407.042 78.6C407.042 76.968 407.522 75.624 408.482 74.568C409.458 73.512 410.802 72.984 412.514 72.984C413.922 72.984 415.09 73.432 416.018 74.328C416.946 75.224 417.41 76.4 417.41 77.856C417.41 78.24 417.386 78.576 417.338 78.864H408.434C408.482 80.16 408.906 81.184 409.706 81.936C410.506 82.672 411.554 83.04 412.85 83.04C414.338 83.04 415.506 82.6 416.354 81.72ZM412.394 74.16C411.226 74.16 410.29 74.504 409.586 75.192C408.882 75.864 408.474 76.744 408.362 77.832H416.138C416.122 76.696 415.778 75.8 415.106 75.144C414.434 74.488 413.53 74.16 412.394 74.16ZM436.14 76.92V84H434.892V77.256C434.892 75.208 433.98 74.184 432.156 74.184C431.42 74.184 430.764 74.352 430.188 74.688C429.612 75.008 429.164 75.44 428.844 75.984C428.876 76.112 428.892 76.368 428.892 76.752V84H427.644V76.704C427.644 75.936 427.404 75.328 426.924 74.88C426.46 74.416 425.796 74.184 424.932 74.184C424.228 74.184 423.588 74.352 423.012 74.688C422.436 75.008 421.98 75.408 421.644 75.888V84H420.396V73.2H421.644V74.712C422.06 74.2 422.604 73.792 423.276 73.488C423.964 73.168 424.668 73.008 425.388 73.008C426.236 73.008 426.948 73.184 427.524 73.536C428.116 73.888 428.508 74.376 428.7 75C429.1 74.392 429.652 73.912 430.356 73.56C431.076 73.192 431.836 73.008 432.636 73.008C434.972 73.008 436.14 74.312 436.14 76.92ZM448.109 81.552L448.733 82.464C448.285 83.024 447.693 83.456 446.957 83.76C446.237 84.064 445.469 84.216 444.653 84.216C442.973 84.216 441.597 83.704 440.525 82.68C439.469 81.656 438.941 80.296 438.941 78.6C438.941 77.016 439.453 75.688 440.477 74.616C441.501 73.528 442.781 72.984 444.317 72.984C446.173 72.984 447.573 73.432 448.517 74.328L447.917 75.336C447.053 74.552 445.917 74.16 444.509 74.16C443.341 74.16 442.341 74.584 441.509 75.432C440.677 76.28 440.261 77.336 440.261 78.6C440.261 79.944 440.685 81.024 441.533 81.84C442.381 82.64 443.453 83.04 444.749 83.04C446.141 83.04 447.261 82.544 448.109 81.552ZM451.81 75L451.474 73.968C452.53 73.312 453.674 72.984 454.906 72.984C456.346 72.984 457.37 73.344 457.978 74.064C458.602 74.784 458.914 75.864 458.914 77.304V84H457.666V82.344C456.786 83.544 455.554 84.144 453.97 84.144C452.962 84.144 452.154 83.856 451.546 83.28C450.938 82.688 450.634 81.904 450.634 80.928C450.634 79.872 451.018 79.048 451.786 78.456C452.554 77.864 453.538 77.568 454.738 77.568C455.938 77.568 456.914 77.84 457.666 78.384C457.666 77.776 457.65 77.296 457.618 76.944C457.602 76.592 457.538 76.216 457.426 75.816C457.33 75.4 457.186 75.088 456.994 74.88C456.802 74.672 456.522 74.504 456.154 74.376C455.802 74.232 455.362 74.16 454.834 74.16C453.842 74.16 452.834 74.44 451.81 75ZM454.354 82.968C455.698 82.968 456.802 82.4 457.666 81.264V79.464C456.882 78.888 455.946 78.6 454.858 78.6C454.074 78.6 453.394 78.792 452.818 79.176C452.242 79.56 451.954 80.12 451.954 80.856C451.954 81.512 452.178 82.032 452.626 82.416C453.09 82.784 453.666 82.968 454.354 82.968ZM470.89 81.552L471.514 82.464C471.066 83.024 470.474 83.456 469.738 83.76C469.018 84.064 468.25 84.216 467.434 84.216C465.754 84.216 464.378 83.704 463.306 82.68C462.25 81.656 461.722 80.296 461.722 78.6C461.722 77.016 462.234 75.688 463.258 74.616C464.282 73.528 465.562 72.984 467.098 72.984C468.954 72.984 470.354 73.432 471.298 74.328L470.698 75.336C469.834 74.552 468.698 74.16 467.29 74.16C466.122 74.16 465.122 74.584 464.29 75.432C463.458 76.28 463.042 77.336 463.042 78.6C463.042 79.944 463.466 81.024 464.314 81.84C465.162 82.64 466.234 83.04 467.53 83.04C468.922 83.04 470.042 82.544 470.89 81.552ZM474.255 84V67.2H475.503V74.664C475.935 74.184 476.503 73.792 477.207 73.488C477.927 73.168 478.655 73.008 479.391 73.008C482.399 73.008 483.903 74.624 483.903 77.856V84H482.655V78.048C482.655 75.472 481.471 74.184 479.103 74.184C478.399 74.184 477.711 74.344 477.039 74.664C476.383 74.984 475.871 75.376 475.503 75.84V84H474.255ZM496.018 81.72L496.426 82.68C495.45 83.704 494.122 84.216 492.442 84.216C490.73 84.216 489.346 83.704 488.29 82.68C487.234 81.656 486.706 80.296 486.706 78.6C486.706 76.968 487.186 75.624 488.146 74.568C489.122 73.512 490.466 72.984 492.178 72.984C493.586 72.984 494.754 73.432 495.682 74.328C496.61 75.224 497.074 76.4 497.074 77.856C497.074 78.24 497.05 78.576 497.002 78.864H488.098C488.146 80.16 488.57 81.184 489.37 81.936C490.17 82.672 491.218 83.04 492.514 83.04C494.002 83.04 495.17 82.6 496.018 81.72ZM492.058 74.16C490.89 74.16 489.954 74.504 489.25 75.192C488.546 75.864 488.138 76.744 488.026 77.832H495.802C495.786 76.696 495.442 75.8 494.77 75.144C494.098 74.488 493.194 74.16 492.058 74.16ZM508.292 84V82.464C507.284 83.616 506.044 84.192 504.572 84.192C502.972 84.192 501.692 83.688 500.732 82.68C499.772 81.672 499.292 80.328 499.292 78.648C499.292 76.984 499.844 75.624 500.948 74.568C502.068 73.512 503.476 72.984 505.172 72.984C506.404 72.984 507.444 73.296 508.292 73.92V67.2H509.54V84H508.292ZM504.812 83.016C505.484 83.016 506.132 82.848 506.756 82.512C507.396 82.176 507.908 81.776 508.292 81.312V75.144C507.316 74.488 506.284 74.16 505.196 74.16C503.916 74.16 502.828 74.576 501.932 75.408C501.052 76.224 500.612 77.288 500.612 78.6C500.612 79.96 500.996 81.04 501.764 81.84C502.548 82.624 503.564 83.016 504.812 83.016Z" fill="white"/>
<rect x="310.5" y="1.5" width="263" height="117" rx="6.5" stroke="#E4002B" stroke-width="3"/>
<path d="M299 60L289 54.2265V65.7735L299 60ZM190 61H290V59H190V61Z" fill="#C5CDCF"/>
<path d="M768.164 67V50.2H777.428V51.448H769.484V57.136C770.46 57.04 771.404 56.992 772.316 56.992C774.268 56.992 775.764 57.424 776.804 58.288C777.844 59.136 778.364 60.32 778.364 61.84C778.364 63.536 777.796 64.832 776.66 65.728C775.54 66.624 773.964 67.072 771.932 67.072C771.388 67.072 770.692 67.056 769.844 67.024C769.012 67.008 768.452 67 768.164 67ZM772.268 58.24C771.244 58.24 770.316 58.288 769.484 58.384V65.752C771.068 65.8 771.948 65.824 772.124 65.824C773.74 65.824 774.964 65.488 775.796 64.816C776.628 64.144 777.044 63.176 777.044 61.912C777.044 60.76 776.636 59.864 775.82 59.224C775.02 58.568 773.836 58.24 772.268 58.24ZM783.292 67H782.044V56.2H783.292V65.2L790.492 56.2H791.74V67H790.492V58L783.292 67ZM793.937 57.448V56.2H803.777V57.448H799.481V67H798.233V57.448H793.937ZM805.974 71.8V56.2H807.222V57.64C807.638 57.16 808.206 56.768 808.926 56.464C809.662 56.144 810.414 55.984 811.182 55.984C812.718 55.984 813.942 56.488 814.854 57.496C815.766 58.504 816.222 59.816 816.222 61.432C816.222 63.096 815.71 64.48 814.686 65.584C813.662 66.672 812.326 67.216 810.678 67.216C809.206 67.216 808.054 66.912 807.222 66.304V71.8H805.974ZM810.846 57.16C810.126 57.16 809.43 57.328 808.758 57.664C808.102 57.984 807.59 58.376 807.222 58.84V65.056C808.214 65.712 809.334 66.04 810.582 66.04C811.878 66.04 812.918 65.616 813.702 64.768C814.502 63.92 814.902 62.832 814.902 61.504C814.902 60.192 814.542 59.144 813.822 58.36C813.118 57.56 812.126 57.16 810.846 57.16ZM820.511 67H819.263V56.2H820.511V65.2L827.711 56.2H828.959V67H827.711V58L820.511 67ZM841.548 56.2L836.22 61.36L841.98 67H840.3L834.708 61.432L839.94 56.2H841.548ZM832.74 67V56.2H833.988V67H832.74ZM852.226 64.552L852.85 65.464C852.402 66.024 851.81 66.456 851.074 66.76C850.354 67.064 849.586 67.216 848.77 67.216C847.09 67.216 845.714 66.704 844.642 65.68C843.586 64.656 843.058 63.296 843.058 61.6C843.058 60.016 843.57 58.688 844.594 57.616C845.618 56.528 846.898 55.984 848.434 55.984C850.29 55.984 851.69 56.432 852.634 57.328L852.034 58.336C851.17 57.552 850.034 57.16 848.626 57.16C847.458 57.16 846.458 57.584 845.626 58.432C844.794 59.28 844.378 60.336 844.378 61.6C844.378 62.944 844.802 64.024 845.65 64.84C846.498 65.64 847.57 66.04 848.866 66.04C850.258 66.04 851.378 65.544 852.226 64.552Z" fill="white"/>
<rect x="705.5" y="24.5" width="209" height="72" rx="6.5" stroke="#E4002B" stroke-width="3"/>
<path d="M694 51L684 45.2265V56.7735L694 51ZM585 52H685V50H585V52Z" fill="#C5CDCF"/>
<path d="M585 71L595 76.7735V65.2265L585 71ZM694 70L594 70V72L694 72V70Z" fill="#C5CDCF"/>
<path d="M442 188L447.774 178H436.226L442 188ZM441 130V179H443V130H441Z" fill="#C5CDCF"/>
</svg>
