<svg width="635" height="457" viewBox="0 0 635 457" fill="none" xmlns="http://www.w3.org/2000/svg">
<path fill-rule="evenodd" clip-rule="evenodd" d="M65.9997 27C64.6588 27 63.3546 27.1509 62.098 27.4298V45.0124C62.098 47.1671 63.8547 48.9243 66.01 48.9243C68.1642 48.9243 69.9204 47.1671 69.9204 45.0135C69.9204 42.9438 68.3032 41.2449 66.2701 41.1098V37.9786C70.0269 38.1149 73.0501 41.2228 73.0501 45.0135C73.0501 48.8902 69.8874 52.0543 66.01 52.0543C62.1309 52.0543 58.9689 48.8902 58.9689 45.0124V28.4247C58.5244 28.6134 58.0902 28.8227 57.6647 29.0476V45.0124C57.6652 49.6077 61.4145 53.3552 66.01 53.3552C70.606 53.3552 74.3537 49.6077 74.3537 45.0135C74.3537 40.5047 70.7472 36.8124 66.2701 36.6734V33.5434C72.4699 33.6834 77.4817 38.7821 77.4817 45.0135C77.4817 51.3331 72.3282 56.4853 66.01 56.4853C59.6902 56.4853 54.535 51.3331 54.535 45.0124V31.1238C50.5446 34.4236 48 39.4136 48 44.9989C48 54.9394 56.0588 63 66.0003 63C75.9434 63 84 54.9394 84 44.9989C84 35.0584 75.9434 27 65.9997 27Z" fill="#D91935"/>
<path d="M101.332 51.5V34.7H111.052V37.46H104.284V41.636H110.332V44.396H104.284V48.74H111.292V51.5H101.332ZM113.049 54.02V48.932H114.417C115.265 47.812 115.769 45.932 115.929 43.292L116.097 40.7H124.065V48.932H125.865V54.02H123.273V51.5H115.617V54.02H113.049ZM118.593 44.396C118.401 46.492 117.969 48.004 117.297 48.932H121.305V43.292H118.665L118.593 44.396ZM130.441 51.5H127.681V40.7H130.441V47.54L135.481 40.7H138.241V51.5H135.481V44.66L130.441 51.5ZM148.809 51.5V47.372H144.081V51.5H141.321V40.7H144.081V44.78H148.809V40.7H151.569V51.5H148.809ZM155.474 43.484L154.778 41.468C155.946 40.78 157.218 40.436 158.594 40.436C160.13 40.436 161.234 40.812 161.906 41.564C162.578 42.316 162.914 43.436 162.914 44.924V51.5H160.514V50.252C159.858 51.18 158.794 51.644 157.322 51.644C156.314 51.644 155.498 51.348 154.874 50.756C154.25 50.164 153.938 49.356 153.938 48.332C153.938 47.196 154.306 46.332 155.042 45.74C155.778 45.132 156.722 44.828 157.874 44.828C158.866 44.828 159.682 45.06 160.322 45.524C160.354 44.58 160.218 43.884 159.914 43.436C159.61 42.972 159.074 42.74 158.306 42.74C157.506 42.74 156.562 42.988 155.474 43.484ZM158.234 49.316C159.162 49.316 159.858 48.988 160.322 48.332V47.228C159.858 46.876 159.226 46.7 158.426 46.7C157.93 46.7 157.514 46.82 157.178 47.06C156.858 47.284 156.698 47.612 156.698 48.044C156.698 48.444 156.842 48.756 157.13 48.98C157.418 49.204 157.786 49.316 158.234 49.316ZM171.023 40.7H174.551V51.5H171.791V48.26H170.255L168.023 51.5H164.855L167.735 47.66C167.191 47.468 166.703 47.108 166.271 46.58C165.855 46.036 165.647 45.356 165.647 44.54C165.647 43.404 166.079 42.484 166.943 41.78C167.823 41.06 169.183 40.7 171.023 40.7ZM168.599 44.732C168.599 45.164 168.775 45.524 169.127 45.812C169.495 46.084 169.903 46.22 170.351 46.22H171.791V43.1H170.567C169.943 43.1 169.455 43.26 169.103 43.58C168.767 43.9 168.599 44.284 168.599 44.732ZM190.08 51.5V43.292H185.472V51.5H182.712V40.7H192.84V51.5H190.08ZM196.747 43.484L196.051 41.468C197.219 40.78 198.491 40.436 199.867 40.436C201.403 40.436 202.507 40.812 203.179 41.564C203.851 42.316 204.187 43.436 204.187 44.924V51.5H201.787V50.252C201.131 51.18 200.067 51.644 198.595 51.644C197.587 51.644 196.771 51.348 196.147 50.756C195.523 50.164 195.211 49.356 195.211 48.332C195.211 47.196 195.579 46.332 196.315 45.74C197.051 45.132 197.995 44.828 199.147 44.828C200.139 44.828 200.955 45.06 201.595 45.524C201.627 44.58 201.491 43.884 201.187 43.436C200.883 42.972 200.347 42.74 199.579 42.74C198.779 42.74 197.835 42.988 196.747 43.484ZM199.507 49.316C200.435 49.316 201.131 48.988 201.595 48.332V47.228C201.131 46.876 200.499 46.7 199.699 46.7C199.203 46.7 198.787 46.82 198.451 47.06C198.131 47.284 197.971 47.612 197.971 48.044C197.971 48.444 198.115 48.756 198.403 48.98C198.691 49.204 199.059 49.316 199.507 49.316ZM214.504 51.5V47.372H209.776V51.5H207.016V40.7H209.776V44.78H214.504V40.7H217.264V51.5H214.504ZM228.801 48.476L229.593 50.42C228.537 51.316 227.161 51.764 225.465 51.764C223.721 51.764 222.313 51.244 221.241 50.204C220.185 49.164 219.657 47.796 219.657 46.1C219.657 44.484 220.177 43.14 221.217 42.068C222.257 40.98 223.641 40.436 225.369 40.436C226.793 40.436 228.001 40.908 228.993 41.852C229.985 42.78 230.481 43.98 230.481 45.452C230.481 46.06 230.425 46.556 230.313 46.94H222.513C222.625 47.74 222.977 48.364 223.569 48.812C224.161 49.244 224.889 49.46 225.753 49.46C226.969 49.46 227.985 49.132 228.801 48.476ZM225.249 42.74C223.681 42.74 222.737 43.524 222.417 45.092H227.721C227.737 44.42 227.521 43.86 227.073 43.412C226.625 42.964 226.017 42.74 225.249 42.74ZM239.456 51.5V43.46H236.6L236.528 44.612C236.352 46.548 236.056 48.036 235.64 49.076C235.24 50.116 234.728 50.82 234.104 51.188C233.496 51.54 232.68 51.716 231.656 51.716L231.416 49.028C231.768 49.06 232.096 48.964 232.4 48.74C232.72 48.5 233.024 47.988 233.312 47.204C233.6 46.404 233.784 45.356 233.864 44.06L234.032 40.7H242.216V51.5H239.456ZM245.29 51.5V40.7H248.05V43.652H249.538C251.234 43.652 252.45 44.004 253.186 44.708C253.922 45.412 254.29 46.308 254.29 47.396C254.29 48.564 253.89 49.54 253.09 50.324C252.29 51.108 251.034 51.5 249.322 51.5H245.29ZM249.298 45.86H248.05V49.1H249.274C250.666 49.1 251.362 48.564 251.362 47.492C251.362 46.404 250.674 45.86 249.298 45.86ZM271.995 40.7L267.747 51.5C266.979 53.372 266.291 54.636 265.683 55.292C265.091 55.964 264.387 56.3 263.571 56.3C262.787 56.3 262.011 56.02 261.243 55.46L262.131 53.372C262.563 53.628 262.939 53.756 263.259 53.756C263.915 53.756 264.467 53.196 264.915 52.076L265.155 51.5L260.163 40.7H263.475L265.995 46.604C266.091 46.844 266.267 47.364 266.523 48.164C266.651 47.46 266.779 46.932 266.907 46.58L268.851 40.7H271.995ZM281.017 51.5V43.292H276.409V51.5H273.649V40.7H283.777V51.5H281.017ZM286.845 56.3V40.7H289.605V41.732C289.957 41.364 290.429 41.06 291.021 40.82C291.629 40.564 292.269 40.436 292.941 40.436C294.413 40.436 295.597 40.948 296.493 41.972C297.389 42.996 297.837 44.316 297.837 45.932C297.837 47.612 297.309 49.004 296.253 50.108C295.197 51.212 293.821 51.764 292.125 51.764C291.053 51.764 290.213 51.588 289.605 51.236V56.3H286.845ZM292.077 43.028C291.133 43.028 290.309 43.42 289.605 44.204V48.572C290.245 48.988 291.005 49.196 291.885 49.196C292.813 49.196 293.549 48.9 294.093 48.308C294.637 47.7 294.909 46.932 294.909 46.004C294.909 45.124 294.661 44.412 294.165 43.868C293.669 43.308 292.973 43.028 292.077 43.028ZM301.067 43.484L300.371 41.468C301.539 40.78 302.811 40.436 304.187 40.436C305.723 40.436 306.827 40.812 307.499 41.564C308.171 42.316 308.507 43.436 308.507 44.924V51.5H306.107V50.252C305.451 51.18 304.387 51.644 302.915 51.644C301.907 51.644 301.091 51.348 300.467 50.756C299.843 50.164 299.531 49.356 299.531 48.332C299.531 47.196 299.899 46.332 300.635 45.74C301.371 45.132 302.315 44.828 303.467 44.828C304.459 44.828 305.275 45.06 305.915 45.524C305.947 44.58 305.811 43.884 305.507 43.436C305.203 42.972 304.667 42.74 303.899 42.74C303.099 42.74 302.155 42.988 301.067 43.484ZM303.827 49.316C304.755 49.316 305.451 48.988 305.915 48.332V47.228C305.451 46.876 304.819 46.7 304.019 46.7C303.523 46.7 303.107 46.82 302.771 47.06C302.451 47.284 302.291 47.612 302.291 48.044C302.291 48.444 302.435 48.756 302.723 48.98C303.011 49.204 303.379 49.316 303.827 49.316ZM311.337 51.5V40.7C311.529 40.7 311.881 40.692 312.393 40.676C312.921 40.644 313.457 40.62 314.001 40.604C314.561 40.588 315.089 40.58 315.585 40.58C318.849 40.58 320.481 41.524 320.481 43.412C320.481 44.036 320.281 44.572 319.881 45.02C319.497 45.468 319.025 45.732 318.465 45.812V45.86C320.001 46.228 320.769 47.06 320.769 48.356C320.769 50.532 319.057 51.62 315.633 51.62C315.153 51.62 314.393 51.596 313.353 51.548C312.313 51.516 311.641 51.5 311.337 51.5ZM315.825 46.916H314.097V49.316C315.185 49.38 315.793 49.412 315.921 49.412C316.529 49.412 317.001 49.3 317.337 49.076C317.689 48.852 317.865 48.548 317.865 48.164C317.865 47.332 317.185 46.916 315.825 46.916ZM315.825 42.812C315.057 42.812 314.481 42.828 314.097 42.86V45.236H315.897C316.377 45.236 316.769 45.132 317.073 44.924C317.393 44.7 317.553 44.388 317.553 43.988C317.553 43.204 316.977 42.812 315.825 42.812ZM330.488 51.5V43.46H327.632L327.56 44.612C327.384 46.548 327.088 48.036 326.672 49.076C326.272 50.116 325.76 50.82 325.136 51.188C324.528 51.54 323.712 51.716 322.688 51.716L322.448 49.028C322.8 49.06 323.128 48.964 323.432 48.74C323.752 48.5 324.056 47.988 324.344 47.204C324.632 46.404 324.816 45.356 324.896 44.06L325.064 40.7H333.248V51.5H330.488ZM344.793 48.476L345.585 50.42C344.529 51.316 343.153 51.764 341.457 51.764C339.713 51.764 338.305 51.244 337.233 50.204C336.177 49.164 335.649 47.796 335.649 46.1C335.649 44.484 336.169 43.14 337.209 42.068C338.249 40.98 339.633 40.436 341.361 40.436C342.785 40.436 343.993 40.908 344.985 41.852C345.977 42.78 346.473 43.98 346.473 45.452C346.473 46.06 346.417 46.556 346.305 46.94H338.505C338.617 47.74 338.969 48.364 339.561 48.812C340.153 49.244 340.881 49.46 341.745 49.46C342.961 49.46 343.977 49.132 344.793 48.476ZM341.241 42.74C339.673 42.74 338.729 43.524 338.409 45.092H343.713C343.729 44.42 343.513 43.86 343.065 43.412C342.617 42.964 342.009 42.74 341.241 42.74ZM356.184 51.5V47.372H351.456V51.5H348.696V40.7H351.456V44.78H356.184V40.7H358.944V51.5H356.184ZM364.769 51.5H362.009V40.7H364.769V47.54L369.809 40.7H372.569V51.5H369.809V44.66L364.769 51.5ZM380.929 40.7H384.457V51.5H381.697V48.26H380.161L377.929 51.5H374.761L377.641 47.66C377.097 47.468 376.609 47.108 376.177 46.58C375.761 46.036 375.553 45.356 375.553 44.54C375.553 43.404 375.985 42.484 376.849 41.78C377.729 41.06 379.089 40.7 380.929 40.7ZM378.505 44.732C378.505 45.164 378.681 45.524 379.033 45.812C379.401 46.084 379.809 46.22 380.257 46.22H381.697V43.1H380.473C379.849 43.1 379.361 43.26 379.009 43.58C378.673 43.9 378.505 44.284 378.505 44.732Z" fill="white"/>
<rect x="2" y="2" width="430" height="86" rx="6" stroke="#E4002B" stroke-width="4"/>
<path d="M195.403 174.2V191H192.451V184.112C191.395 184.88 190.059 185.264 188.443 185.264C187.003 185.264 185.787 184.832 184.795 183.968C183.819 183.104 183.331 181.744 183.331 179.888V174.2H186.283V179.048C186.283 181.352 187.267 182.504 189.235 182.504C190.323 182.504 191.395 182.144 192.451 181.424V174.2H195.403ZM200.106 182.984L199.41 180.968C200.578 180.28 201.85 179.936 203.226 179.936C204.762 179.936 205.866 180.312 206.538 181.064C207.21 181.816 207.546 182.936 207.546 184.424V191H205.146V189.752C204.49 190.68 203.426 191.144 201.954 191.144C200.946 191.144 200.13 190.848 199.506 190.256C198.882 189.664 198.57 188.856 198.57 187.832C198.57 186.696 198.938 185.832 199.674 185.24C200.41 184.632 201.354 184.328 202.506 184.328C203.498 184.328 204.314 184.56 204.954 185.024C204.986 184.08 204.85 183.384 204.546 182.936C204.242 182.472 203.706 182.24 202.938 182.24C202.138 182.24 201.194 182.488 200.106 182.984ZM202.866 188.816C203.794 188.816 204.49 188.488 204.954 187.832V186.728C204.49 186.376 203.858 186.2 203.058 186.2C202.562 186.2 202.146 186.32 201.81 186.56C201.49 186.784 201.33 187.112 201.33 187.544C201.33 187.944 201.474 188.256 201.762 188.48C202.05 188.704 202.418 188.816 202.866 188.816ZM218.56 187.376L219.856 189.392C219.408 190 218.8 190.464 218.032 190.784C217.28 191.104 216.456 191.264 215.56 191.264C213.8 191.264 212.384 190.744 211.312 189.704C210.24 188.664 209.704 187.296 209.704 185.6C209.704 184 210.232 182.656 211.288 181.568C212.344 180.48 213.68 179.936 215.296 179.936C217.216 179.936 218.664 180.424 219.64 181.4L218.344 183.584C217.624 182.88 216.728 182.528 215.656 182.528C214.856 182.528 214.152 182.816 213.544 183.392C212.952 183.952 212.656 184.688 212.656 185.6C212.656 186.528 212.96 187.28 213.568 187.856C214.192 188.416 214.928 188.696 215.776 188.696C216.832 188.696 217.76 188.256 218.56 187.376ZM220.732 182.96V180.2H230.572V182.96H227.044V191H224.284V182.96H220.732ZM240.036 191V186.872H235.308V191H232.548V180.2H235.308V184.28H240.036V180.2H242.796V191H240.036ZM245.86 191V180.2H248.62V183.152H249.964C251.66 183.152 252.876 183.504 253.612 184.208C254.348 184.912 254.716 185.808 254.716 186.896C254.716 188.064 254.316 189.04 253.516 189.824C252.716 190.608 251.46 191 249.748 191H245.86ZM256.252 191V180.2H259.012V191H256.252ZM249.724 185.36H248.62V188.6H249.7C251.092 188.6 251.788 188.064 251.788 186.992C251.788 185.904 251.1 185.36 249.724 185.36ZM262.079 191V180.2H264.575L268.247 184.712L271.727 180.2H274.151V191H271.391V184.4L268.199 188.432H268.127L264.839 184.4V191H262.079ZM292.53 180.2L288.378 185.336L293.034 191H289.434L285.162 185.552L289.05 180.2H292.53ZM282.306 191V180.2H285.066V191H282.306ZM301.714 191V182.96H298.858L298.786 184.112C298.61 186.048 298.314 187.536 297.898 188.576C297.498 189.616 296.986 190.32 296.362 190.688C295.754 191.04 294.938 191.216 293.914 191.216L293.674 188.528C294.026 188.56 294.354 188.464 294.658 188.24C294.978 188 295.282 187.488 295.57 186.704C295.858 185.904 296.042 184.856 296.122 183.56L296.29 180.2H304.474V191H301.714ZM310.308 191H307.548V180.2H310.308V187.04L315.348 180.2H318.108V191H315.348V184.16L310.308 191ZM329.66 187.976L330.452 189.92C329.396 190.816 328.02 191.264 326.324 191.264C324.58 191.264 323.172 190.744 322.1 189.704C321.044 188.664 320.516 187.296 320.516 185.6C320.516 183.984 321.036 182.64 322.076 181.568C323.116 180.48 324.5 179.936 326.228 179.936C327.652 179.936 328.86 180.408 329.852 181.352C330.844 182.28 331.34 183.48 331.34 184.952C331.34 185.56 331.284 186.056 331.172 186.44H323.372C323.484 187.24 323.836 187.864 324.428 188.312C325.02 188.744 325.748 188.96 326.612 188.96C327.828 188.96 328.844 188.632 329.66 187.976ZM326.108 182.24C324.54 182.24 323.596 183.024 323.276 184.592H328.58C328.596 183.92 328.38 183.36 327.932 182.912C327.484 182.464 326.876 182.24 326.108 182.24ZM341.051 191V186.872H336.323V191H333.563V180.2H336.323V184.28H341.051V180.2H343.811V191H341.051ZM345.748 182.96V180.2H355.588V182.96H352.06V191H349.3V182.96H345.748ZM358.403 182.984L357.707 180.968C358.875 180.28 360.147 179.936 361.523 179.936C363.059 179.936 364.163 180.312 364.835 181.064C365.507 181.816 365.843 182.936 365.843 184.424V191H363.443V189.752C362.787 190.68 361.723 191.144 360.251 191.144C359.243 191.144 358.427 190.848 357.803 190.256C357.179 189.664 356.867 188.856 356.867 187.832C356.867 186.696 357.235 185.832 357.971 185.24C358.707 184.632 359.651 184.328 360.803 184.328C361.795 184.328 362.611 184.56 363.251 185.024C363.283 184.08 363.147 183.384 362.843 182.936C362.539 182.472 362.003 182.24 361.235 182.24C360.435 182.24 359.491 182.488 358.403 182.984ZM361.163 188.816C362.091 188.816 362.787 188.488 363.251 187.832V186.728C362.787 186.376 362.155 186.2 361.355 186.2C360.859 186.2 360.443 186.32 360.107 186.56C359.787 186.784 359.627 187.112 359.627 187.544C359.627 187.944 359.771 188.256 360.059 188.48C360.347 188.704 360.715 188.816 361.163 188.816ZM368.673 191V180.2H371.169L374.841 184.712L378.321 180.2H380.745V191H377.985V184.4L374.793 188.432H374.721L371.433 184.4V191H368.673Z" fill="white"/>
<rect x="140.5" y="141.5" width="283" height="86" rx="6.5" stroke="#E4002B" stroke-width="3"/>
<path d="M239.949 305V288.2H249.765V290.96H242.901V294.704C243.557 294.608 244.309 294.56 245.157 294.56C246.901 294.56 248.277 295.016 249.285 295.928C250.293 296.84 250.797 298.072 250.797 299.624C250.797 301.368 250.229 302.72 249.093 303.68C247.973 304.624 246.381 305.096 244.317 305.096C243.597 305.096 242.749 305.08 241.773 305.048C240.813 305.016 240.205 305 239.949 305ZM244.917 297.32C244.325 297.32 243.653 297.368 242.901 297.464V302.24C243.797 302.304 244.421 302.336 244.773 302.336C246.837 302.336 247.869 301.504 247.869 299.84C247.869 299.072 247.621 298.464 247.125 298.016C246.645 297.552 245.909 297.32 244.917 297.32ZM256.659 305H253.899V294.2H256.659V301.04L261.699 294.2H264.459V305H261.699V298.16L256.659 305ZM271.356 305.264C270.412 305.264 269.492 305.096 268.596 304.76C267.7 304.408 267.052 303.976 266.652 303.464L268.068 301.736C268.388 302.104 268.844 302.416 269.436 302.672C270.044 302.928 270.604 303.056 271.116 303.056C271.82 303.056 272.364 302.936 272.748 302.696C273.132 302.456 273.324 302.136 273.324 301.736C273.324 301.368 273.18 301.072 272.892 300.848C272.604 300.624 272.204 300.512 271.692 300.512H269.676V298.664H271.572C272.004 298.664 272.348 298.536 272.604 298.28C272.876 298.024 273.012 297.712 273.012 297.344C273.012 296.56 272.38 296.168 271.116 296.168C270.124 296.168 269.14 296.584 268.164 297.416L267.012 295.76C268.052 294.544 269.596 293.936 271.644 293.936C273.052 293.936 274.124 294.208 274.86 294.752C275.596 295.296 275.964 296.048 275.964 297.008C275.964 297.536 275.788 298.016 275.436 298.448C275.084 298.88 274.596 299.2 273.972 299.408V299.456C274.708 299.6 275.268 299.904 275.652 300.368C276.052 300.816 276.252 301.36 276.252 302C276.252 303.008 275.804 303.808 274.908 304.4C274.012 304.976 272.828 305.264 271.356 305.264ZM286.348 305V300.872H281.62V305H278.86V294.2H281.62V298.28H286.348V294.2H289.108V305H286.348ZM300.645 301.976L301.437 303.92C300.381 304.816 299.005 305.264 297.309 305.264C295.565 305.264 294.157 304.744 293.085 303.704C292.029 302.664 291.501 301.296 291.501 299.6C291.501 297.984 292.021 296.64 293.061 295.568C294.101 294.48 295.485 293.936 297.213 293.936C298.637 293.936 299.845 294.408 300.837 295.352C301.829 296.28 302.325 297.48 302.325 298.952C302.325 299.56 302.269 300.056 302.157 300.44H294.357C294.469 301.24 294.821 301.864 295.413 302.312C296.005 302.744 296.733 302.96 297.597 302.96C298.813 302.96 299.829 302.632 300.645 301.976ZM297.093 296.24C295.525 296.24 294.581 297.024 294.261 298.592H299.565C299.581 297.92 299.365 297.36 298.917 296.912C298.469 296.464 297.861 296.24 297.093 296.24ZM312.661 301.376L313.957 303.392C313.509 304 312.901 304.464 312.133 304.784C311.381 305.104 310.557 305.264 309.661 305.264C307.901 305.264 306.485 304.744 305.413 303.704C304.341 302.664 303.805 301.296 303.805 299.6C303.805 298 304.333 296.656 305.389 295.568C306.445 294.48 307.781 293.936 309.397 293.936C311.317 293.936 312.765 294.424 313.741 295.4L312.445 297.584C311.725 296.88 310.829 296.528 309.757 296.528C308.957 296.528 308.253 296.816 307.645 297.392C307.053 297.952 306.757 298.688 306.757 299.6C306.757 300.528 307.061 301.28 307.669 301.856C308.293 302.416 309.029 302.696 309.877 302.696C310.933 302.696 311.861 302.256 312.661 301.376ZM326.261 294.2L322.013 305C321.245 306.872 320.557 308.136 319.949 308.792C319.357 309.464 318.653 309.8 317.837 309.8C317.053 309.8 316.277 309.52 315.509 308.96L316.397 306.872C316.829 307.128 317.205 307.256 317.525 307.256C318.181 307.256 318.733 306.696 319.181 305.576L319.421 305L314.429 294.2H317.741L320.261 300.104C320.357 300.344 320.533 300.864 320.789 301.664C320.917 300.96 321.045 300.432 321.173 300.08L323.117 294.2H326.261Z" fill="white"/>
<rect x="140.5" y="255.5" width="283" height="86" rx="6.5" stroke="#E4002B" stroke-width="3"/>
<path d="M218.1 410.6C218.1 408.136 218.916 406.08 220.548 404.432C222.196 402.768 224.292 401.936 226.836 401.936C229.364 401.936 231.452 402.736 233.1 404.336C234.764 405.936 235.596 408.024 235.596 410.6C235.596 413.112 234.764 415.184 233.1 416.816C231.436 418.448 229.348 419.264 226.836 419.264C224.308 419.264 222.22 418.464 220.572 416.864C218.924 415.264 218.1 413.176 218.1 410.6ZM221.22 410.6C221.22 412.28 221.756 413.688 222.828 414.824C223.916 415.944 225.252 416.504 226.836 416.504C228.564 416.504 229.932 415.944 230.94 414.824C231.964 413.704 232.476 412.296 232.476 410.6C232.476 408.872 231.932 407.456 230.844 406.352C229.772 405.248 228.436 404.696 226.836 404.696C225.22 404.696 223.876 405.248 222.804 406.352C221.748 407.456 221.22 408.872 221.22 410.6ZM253.53 408.2L249.378 413.336L254.034 419H250.434L246.162 413.552L250.05 408.2H253.53ZM243.306 419V408.2H246.066V419H243.306ZM255.937 417.68C254.865 416.608 254.329 415.248 254.329 413.6C254.329 411.952 254.865 410.6 255.937 409.544C257.025 408.472 258.449 407.936 260.209 407.936C261.969 407.936 263.385 408.472 264.457 409.544C265.545 410.6 266.089 411.952 266.089 413.6C266.089 415.248 265.545 416.608 264.457 417.68C263.385 418.736 261.969 419.264 260.209 419.264C258.449 419.264 257.025 418.736 255.937 417.68ZM257.281 413.6C257.281 414.496 257.553 415.24 258.097 415.832C258.657 416.408 259.361 416.696 260.209 416.696C261.073 416.696 261.777 416.416 262.321 415.856C262.881 415.28 263.161 414.528 263.161 413.6C263.161 412.704 262.881 411.968 262.321 411.392C261.761 410.816 261.057 410.528 260.209 410.528C259.377 410.528 258.681 410.816 258.121 411.392C257.561 411.952 257.281 412.688 257.281 413.6ZM268.477 419V408.2H270.973L274.645 412.712L278.125 408.2H280.549V419H277.789V412.4L274.597 416.432H274.525L271.237 412.4V419H268.477ZM290.986 419V410.792H286.378V419H283.618V408.2H293.746V419H290.986ZM297.653 410.984L296.957 408.968C298.125 408.28 299.397 407.936 300.773 407.936C302.309 407.936 303.413 408.312 304.085 409.064C304.757 409.816 305.093 410.936 305.093 412.424V419H302.693V417.752C302.037 418.68 300.973 419.144 299.501 419.144C298.493 419.144 297.677 418.848 297.053 418.256C296.429 417.664 296.117 416.856 296.117 415.832C296.117 414.696 296.485 413.832 297.221 413.24C297.957 412.632 298.901 412.328 300.053 412.328C301.045 412.328 301.861 412.56 302.501 413.024C302.533 412.08 302.397 411.384 302.093 410.936C301.789 410.472 301.253 410.24 300.485 410.24C299.685 410.24 298.741 410.488 297.653 410.984ZM300.413 416.816C301.341 416.816 302.037 416.488 302.501 415.832V414.728C302.037 414.376 301.405 414.2 300.605 414.2C300.109 414.2 299.693 414.32 299.357 414.56C299.037 414.784 298.877 415.112 298.877 415.544C298.877 415.944 299.021 416.256 299.309 416.48C299.597 416.704 299.965 416.816 300.413 416.816ZM315.411 419V414.872H310.683V419H307.923V408.2H310.683V412.28H315.411V408.2H318.171V419H315.411ZM323.995 419H321.235V408.2H323.995V415.04L329.035 408.2H331.795V419H329.035V412.16L323.995 419ZM337.636 419H334.876V408.2H337.636V415.04L342.676 408.2H345.436V419H342.676V412.16L337.636 419Z" fill="white"/>
<rect x="140.5" y="369.5" width="283" height="86" rx="6.5" stroke="#E4002B" stroke-width="3"/>
<path d="M126 413L116 407.227V418.773L126 413ZM65 105V393H67V105H65ZM86 414H117V412H86V414ZM65 393C65 404.598 74.402 414 86 414V412C75.5066 412 67 403.493 67 393H65Z" fill="#C5CDCF"/>
<path d="M126 299L116 293.226V304.773L126 299ZM65 105V279H67V105H65ZM86 300H117V298H86V300ZM65 279C65 290.598 74.402 300 86 300V298C75.5066 298 67 289.493 67 279H65Z" fill="#C5CDCF"/>
<path d="M126 184L116 178.227V189.774L126 184ZM65 105V164H67V105H65ZM86 185H117V183H86V185ZM65 164C65 175.598 74.402 185 86 185V183C75.5066 183 67 174.493 67 164H65Z" fill="#C5CDCF"/>
<rect x="412" y="146" width="108" height="36" rx="3" fill="#141414"/>
<path d="M424.836 169L429.716 157.704H430.436L435.316 169H434.372L432.74 165.192H427.364L425.732 169H424.836ZM430.052 158.92L427.716 164.36H432.372L430.052 158.92ZM442.424 169V165.736H437.752V169H436.92V161.8H437.752V164.952H442.424V161.8H443.256V169H442.424ZM445.78 169V161.8H450.116V162.584H446.612V169H445.78ZM456.008 169V162.632H452.968L452.872 164.2C452.797 165.213 452.675 166.061 452.504 166.744C452.333 167.416 452.12 167.912 451.864 168.232C451.619 168.552 451.373 168.771 451.128 168.888C450.883 169.005 450.6 169.064 450.28 169.064L450.216 168.248C450.333 168.248 450.451 168.227 450.568 168.184C450.696 168.141 450.84 168.035 451 167.864C451.171 167.683 451.325 167.448 451.464 167.16C451.603 166.872 451.725 166.461 451.832 165.928C451.949 165.384 452.029 164.755 452.072 164.04L452.184 161.8H456.84V169H456.008ZM460.205 169H459.373V161.8H460.205V167.8L465.005 161.8H465.837V169H465.005V163L460.205 169ZM469.19 169H468.358V161.8H469.19V167.8L473.99 161.8H474.822V169H473.99V163L469.19 169ZM469.462 158.056H470.214C470.214 158.451 470.352 158.787 470.63 159.064C470.907 159.331 471.264 159.464 471.702 159.464C472.118 159.464 472.459 159.331 472.726 159.064C472.992 158.787 473.126 158.451 473.126 158.056H473.878C473.878 158.643 473.675 159.133 473.27 159.528C472.864 159.912 472.342 160.104 471.702 160.104C471.008 160.104 470.459 159.912 470.054 159.528C469.659 159.144 469.462 158.653 469.462 158.056ZM482.942 167.368L483.358 167.976C483.059 168.349 482.665 168.637 482.174 168.84C481.694 169.043 481.182 169.144 480.638 169.144C479.518 169.144 478.601 168.803 477.886 168.12C477.182 167.437 476.83 166.531 476.83 165.4C476.83 164.344 477.171 163.459 477.854 162.744C478.537 162.019 479.39 161.656 480.414 161.656C481.651 161.656 482.585 161.955 483.214 162.552L482.814 163.224C482.238 162.701 481.481 162.44 480.542 162.44C479.763 162.44 479.097 162.723 478.542 163.288C477.987 163.853 477.71 164.557 477.71 165.4C477.71 166.296 477.993 167.016 478.558 167.56C479.123 168.093 479.838 168.36 480.702 168.36C481.63 168.36 482.377 168.029 482.942 167.368ZM491.058 161.8L487.506 165.24L491.346 169H490.226L486.498 165.288L489.986 161.8H491.058ZM485.186 169V161.8H486.018V169H485.186ZM493.16 163L492.936 162.312C493.64 161.875 494.403 161.656 495.224 161.656C496.184 161.656 496.867 161.896 497.272 162.376C497.688 162.856 497.896 163.576 497.896 164.536V169H497.064V167.896C496.477 168.696 495.656 169.096 494.6 169.096C493.928 169.096 493.389 168.904 492.984 168.52C492.579 168.125 492.376 167.603 492.376 166.952C492.376 166.248 492.632 165.699 493.144 165.304C493.656 164.909 494.312 164.712 495.112 164.712C495.912 164.712 496.563 164.893 497.064 165.256C497.064 164.851 497.053 164.531 497.032 164.296C497.021 164.061 496.979 163.811 496.904 163.544C496.84 163.267 496.744 163.059 496.616 162.92C496.488 162.781 496.301 162.669 496.056 162.584C495.821 162.488 495.528 162.44 495.176 162.44C494.515 162.44 493.843 162.627 493.16 163ZM494.856 168.312C495.752 168.312 496.488 167.933 497.064 167.176V165.976C496.541 165.592 495.917 165.4 495.192 165.4C494.669 165.4 494.216 165.528 493.832 165.784C493.448 166.04 493.256 166.413 493.256 166.904C493.256 167.341 493.405 167.688 493.704 167.944C494.013 168.189 494.397 168.312 494.856 168.312ZM503.24 161.8H505.384V169H504.552V166.312H502.76L500.696 169H499.672L501.944 166.12C501.485 166.045 501.08 165.827 500.728 165.464C500.386 165.091 500.216 164.627 500.216 164.072C500.216 163.411 500.456 162.867 500.936 162.44C501.416 162.013 502.184 161.8 503.24 161.8ZM501.096 164.088C501.096 164.515 501.261 164.861 501.592 165.128C501.922 165.395 502.274 165.528 502.648 165.528H504.552V162.584H503.096C502.413 162.584 501.906 162.723 501.576 163C501.256 163.277 501.096 163.64 501.096 164.088Z" fill="white"/>
<rect x="412" y="146" width="108" height="36" rx="3" stroke="#E4002B" stroke-width="2"/>
<rect x="412" y="188" width="108" height="36" rx="3" fill="#141414"/>
<path d="M422.776 211V199.8H428.952V200.632H423.656V204.424C424.307 204.36 424.936 204.328 425.544 204.328C426.845 204.328 427.843 204.616 428.536 205.192C429.229 205.757 429.576 206.547 429.576 207.56C429.576 208.691 429.197 209.555 428.44 210.152C427.693 210.749 426.643 211.048 425.288 211.048C424.925 211.048 424.461 211.037 423.896 211.016C423.341 211.005 422.968 211 422.776 211ZM425.512 205.16C424.829 205.16 424.211 205.192 423.656 205.256V210.168C424.712 210.2 425.299 210.216 425.416 210.216C426.493 210.216 427.309 209.992 427.864 209.544C428.419 209.096 428.696 208.451 428.696 207.608C428.696 206.84 428.424 206.243 427.88 205.816C427.347 205.379 426.557 205.16 425.512 205.16ZM437.726 209.48L437.998 210.12C437.347 210.803 436.462 211.144 435.342 211.144C434.2 211.144 433.278 210.803 432.574 210.12C431.87 209.437 431.518 208.531 431.518 207.4C431.518 206.312 431.838 205.416 432.478 204.712C433.128 204.008 434.024 203.656 435.166 203.656C436.104 203.656 436.883 203.955 437.502 204.552C438.12 205.149 438.43 205.933 438.43 206.904C438.43 207.16 438.414 207.384 438.382 207.576H432.446C432.478 208.44 432.76 209.123 433.294 209.624C433.827 210.115 434.526 210.36 435.39 210.36C436.382 210.36 437.16 210.067 437.726 209.48ZM435.086 204.44C434.307 204.44 433.683 204.669 433.214 205.128C432.744 205.576 432.472 206.163 432.398 206.888H437.582C437.571 206.131 437.342 205.533 436.894 205.096C436.446 204.659 435.843 204.44 435.086 204.44ZM445.18 211V204.632H442.14L442.044 206.2C441.969 207.213 441.846 208.061 441.676 208.744C441.505 209.416 441.292 209.912 441.036 210.232C440.79 210.552 440.545 210.771 440.3 210.888C440.054 211.005 439.772 211.064 439.452 211.064L439.388 210.248C439.505 210.248 439.622 210.227 439.74 210.184C439.868 210.141 440.012 210.035 440.172 209.864C440.342 209.683 440.497 209.448 440.636 209.16C440.774 208.872 440.897 208.461 441.004 207.928C441.121 207.384 441.201 206.755 441.244 206.04L441.356 203.8H446.012V211H445.18ZM449.089 210.088C448.385 209.384 448.033 208.488 448.033 207.4C448.033 206.312 448.385 205.416 449.089 204.712C449.793 204.008 450.7 203.656 451.809 203.656C452.919 203.656 453.825 204.008 454.529 204.712C455.233 205.416 455.585 206.312 455.585 207.4C455.585 208.488 455.233 209.384 454.529 210.088C453.825 210.792 452.919 211.144 451.809 211.144C450.7 211.144 449.793 210.792 449.089 210.088ZM449.729 205.272C449.185 205.827 448.913 206.536 448.913 207.4C448.913 208.264 449.185 208.973 449.729 209.528C450.273 210.083 450.967 210.36 451.809 210.36C452.663 210.36 453.356 210.088 453.889 209.544C454.433 208.989 454.705 208.275 454.705 207.4C454.705 206.536 454.433 205.827 453.889 205.272C453.345 204.717 452.652 204.44 451.809 204.44C450.977 204.44 450.284 204.717 449.729 205.272ZM457.623 214.2V203.8H458.455V204.76C458.733 204.44 459.111 204.179 459.591 203.976C460.082 203.763 460.583 203.656 461.095 203.656C462.119 203.656 462.935 203.992 463.543 204.664C464.151 205.336 464.455 206.211 464.455 207.288C464.455 208.397 464.114 209.32 463.431 210.056C462.749 210.781 461.858 211.144 460.759 211.144C459.778 211.144 459.01 210.941 458.455 210.536V214.2H457.623ZM460.871 204.44C460.391 204.44 459.927 204.552 459.479 204.776C459.042 204.989 458.701 205.251 458.455 205.56V209.704C459.117 210.141 459.863 210.36 460.695 210.36C461.559 210.36 462.253 210.077 462.775 209.512C463.309 208.947 463.575 208.221 463.575 207.336C463.575 206.461 463.335 205.763 462.855 205.24C462.386 204.707 461.725 204.44 460.871 204.44ZM472.41 203.8L469.498 211C468.986 212.248 468.532 213.091 468.138 213.528C467.754 213.976 467.306 214.2 466.794 214.2C466.388 214.2 465.978 214.077 465.562 213.832L465.834 213.192C466.175 213.352 466.458 213.432 466.682 213.432C467.044 213.432 467.37 213.272 467.658 212.952C467.946 212.643 468.244 212.12 468.554 211.384L468.714 211L465.162 203.8H466.154L468.618 208.888L469.13 210.008C469.183 209.827 469.316 209.443 469.53 208.856L471.466 203.8H472.41ZM479.223 209.368L479.639 209.976C479.341 210.349 478.946 210.637 478.455 210.84C477.975 211.043 477.463 211.144 476.919 211.144C475.799 211.144 474.882 210.803 474.167 210.12C473.463 209.437 473.111 208.531 473.111 207.4C473.111 206.344 473.453 205.459 474.135 204.744C474.818 204.019 475.671 203.656 476.695 203.656C477.933 203.656 478.866 203.955 479.495 204.552L479.095 205.224C478.519 204.701 477.762 204.44 476.823 204.44C476.045 204.44 475.378 204.723 474.823 205.288C474.269 205.853 473.991 206.557 473.991 207.4C473.991 208.296 474.274 209.016 474.839 209.56C475.405 210.093 476.119 210.36 476.983 210.36C477.911 210.36 478.658 210.029 479.223 209.368ZM486.677 209.368L487.093 209.976C486.794 210.349 486.399 210.637 485.909 210.84C485.429 211.043 484.917 211.144 484.373 211.144C483.253 211.144 482.335 210.803 481.621 210.12C480.917 209.437 480.565 208.531 480.565 207.4C480.565 206.344 480.906 205.459 481.589 204.744C482.271 204.019 483.125 203.656 484.149 203.656C485.386 203.656 486.319 203.955 486.949 204.552L486.549 205.224C485.973 204.701 485.215 204.44 484.277 204.44C483.498 204.44 482.831 204.723 482.277 205.288C481.722 205.853 481.445 206.557 481.445 207.4C481.445 208.296 481.727 209.016 482.293 209.56C482.858 210.093 483.573 210.36 484.437 210.36C485.365 210.36 486.111 210.029 486.677 209.368ZM494.792 203.8L491.24 207.24L495.08 211H493.96L490.232 207.288L493.72 203.8H494.792ZM488.92 211V203.8H489.752V211H488.92ZM496.894 205L496.67 204.312C497.374 203.875 498.137 203.656 498.958 203.656C499.918 203.656 500.601 203.896 501.006 204.376C501.422 204.856 501.63 205.576 501.63 206.536V211H500.798V209.896C500.212 210.696 499.39 211.096 498.334 211.096C497.662 211.096 497.124 210.904 496.718 210.52C496.313 210.125 496.11 209.603 496.11 208.952C496.11 208.248 496.366 207.699 496.878 207.304C497.39 206.909 498.046 206.712 498.846 206.712C499.646 206.712 500.297 206.893 500.798 207.256C500.798 206.851 500.788 206.531 500.766 206.296C500.756 206.061 500.713 205.811 500.638 205.544C500.574 205.267 500.478 205.059 500.35 204.92C500.222 204.781 500.036 204.669 499.79 204.584C499.556 204.488 499.262 204.44 498.91 204.44C498.249 204.44 497.577 204.627 496.894 205ZM498.59 210.312C499.486 210.312 500.222 209.933 500.798 209.176V207.976C500.276 207.592 499.652 207.4 498.926 207.4C498.404 207.4 497.95 207.528 497.566 207.784C497.182 208.04 496.99 208.413 496.99 208.904C496.99 209.341 497.14 209.688 497.438 209.944C497.748 210.189 498.132 210.312 498.59 210.312ZM506.974 203.8H509.118V211H508.286V208.312H506.494L504.43 211H503.406L505.678 208.12C505.219 208.045 504.814 207.827 504.462 207.464C504.121 207.091 503.95 206.627 503.95 206.072C503.95 205.411 504.19 204.867 504.67 204.44C505.15 204.013 505.918 203.8 506.974 203.8ZM504.83 206.088C504.83 206.515 504.995 206.861 505.326 207.128C505.657 207.395 506.009 207.528 506.382 207.528H508.286V204.584H506.83C506.147 204.584 505.641 204.723 505.31 205C504.99 205.277 504.83 205.64 504.83 206.088Z" fill="white"/>
<rect x="412" y="188" width="108" height="36" rx="3" stroke="#E4002B" stroke-width="2"/>
<rect x="412" y="260" width="108" height="36" rx="3" fill="#141414"/>
<path d="M424.836 283L429.716 271.704H430.436L435.316 283H434.372L432.74 279.192H427.364L425.732 283H424.836ZM430.052 272.92L427.716 278.36H432.372L430.052 272.92ZM442.424 283V279.736H437.752V283H436.92V275.8H437.752V278.952H442.424V275.8H443.256V283H442.424ZM445.78 283V275.8H450.116V276.584H446.612V283H445.78ZM456.008 283V276.632H452.968L452.872 278.2C452.797 279.213 452.675 280.061 452.504 280.744C452.333 281.416 452.12 281.912 451.864 282.232C451.619 282.552 451.373 282.771 451.128 282.888C450.883 283.005 450.6 283.064 450.28 283.064L450.216 282.248C450.333 282.248 450.451 282.227 450.568 282.184C450.696 282.141 450.84 282.035 451 281.864C451.171 281.683 451.325 281.448 451.464 281.16C451.603 280.872 451.725 280.461 451.832 279.928C451.949 279.384 452.029 278.755 452.072 278.04L452.184 275.8H456.84V283H456.008ZM460.205 283H459.373V275.8H460.205V281.8L465.005 275.8H465.837V283H465.005V277L460.205 283ZM469.19 283H468.358V275.8H469.19V281.8L473.99 275.8H474.822V283H473.99V277L469.19 283ZM469.462 272.056H470.214C470.214 272.451 470.352 272.787 470.63 273.064C470.907 273.331 471.264 273.464 471.702 273.464C472.118 273.464 472.459 273.331 472.726 273.064C472.992 272.787 473.126 272.451 473.126 272.056H473.878C473.878 272.643 473.675 273.133 473.27 273.528C472.864 273.912 472.342 274.104 471.702 274.104C471.008 274.104 470.459 273.912 470.054 273.528C469.659 273.144 469.462 272.653 469.462 272.056ZM482.942 281.368L483.358 281.976C483.059 282.349 482.665 282.637 482.174 282.84C481.694 283.043 481.182 283.144 480.638 283.144C479.518 283.144 478.601 282.803 477.886 282.12C477.182 281.437 476.83 280.531 476.83 279.4C476.83 278.344 477.171 277.459 477.854 276.744C478.537 276.019 479.39 275.656 480.414 275.656C481.651 275.656 482.585 275.955 483.214 276.552L482.814 277.224C482.238 276.701 481.481 276.44 480.542 276.44C479.763 276.44 479.097 276.723 478.542 277.288C477.987 277.853 477.71 278.557 477.71 279.4C477.71 280.296 477.993 281.016 478.558 281.56C479.123 282.093 479.838 282.36 480.702 282.36C481.63 282.36 482.377 282.029 482.942 281.368ZM491.058 275.8L487.506 279.24L491.346 283H490.226L486.498 279.288L489.986 275.8H491.058ZM485.186 283V275.8H486.018V283H485.186ZM493.16 277L492.936 276.312C493.64 275.875 494.403 275.656 495.224 275.656C496.184 275.656 496.867 275.896 497.272 276.376C497.688 276.856 497.896 277.576 497.896 278.536V283H497.064V281.896C496.477 282.696 495.656 283.096 494.6 283.096C493.928 283.096 493.389 282.904 492.984 282.52C492.579 282.125 492.376 281.603 492.376 280.952C492.376 280.248 492.632 279.699 493.144 279.304C493.656 278.909 494.312 278.712 495.112 278.712C495.912 278.712 496.563 278.893 497.064 279.256C497.064 278.851 497.053 278.531 497.032 278.296C497.021 278.061 496.979 277.811 496.904 277.544C496.84 277.267 496.744 277.059 496.616 276.92C496.488 276.781 496.301 276.669 496.056 276.584C495.821 276.488 495.528 276.44 495.176 276.44C494.515 276.44 493.843 276.627 493.16 277ZM494.856 282.312C495.752 282.312 496.488 281.933 497.064 281.176V279.976C496.541 279.592 495.917 279.4 495.192 279.4C494.669 279.4 494.216 279.528 493.832 279.784C493.448 280.04 493.256 280.413 493.256 280.904C493.256 281.341 493.405 281.688 493.704 281.944C494.013 282.189 494.397 282.312 494.856 282.312ZM503.24 275.8H505.384V283H504.552V280.312H502.76L500.696 283H499.672L501.944 280.12C501.485 280.045 501.08 279.827 500.728 279.464C500.386 279.091 500.216 278.627 500.216 278.072C500.216 277.411 500.456 276.867 500.936 276.44C501.416 276.013 502.184 275.8 503.24 275.8ZM501.096 278.088C501.096 278.515 501.261 278.861 501.592 279.128C501.922 279.395 502.274 279.528 502.648 279.528H504.552V276.584H503.096C502.413 276.584 501.906 276.723 501.576 277C501.256 277.277 501.096 277.64 501.096 278.088Z" fill="white"/>
<rect x="412" y="260" width="108" height="36" rx="3" stroke="#E4002B" stroke-width="2"/>
<rect x="412" y="302" width="108" height="36" rx="3" fill="#141414"/>
<path d="M430.52 313.8L425.224 319.096L430.744 325H429.608L424.184 319.16L429.448 313.8H430.52ZM422.776 325V313.8H423.656V325H422.776ZM432.277 324.088C431.573 323.384 431.221 322.488 431.221 321.4C431.221 320.312 431.573 319.416 432.277 318.712C432.981 318.008 433.887 317.656 434.997 317.656C436.106 317.656 437.013 318.008 437.717 318.712C438.421 319.416 438.773 320.312 438.773 321.4C438.773 322.488 438.421 323.384 437.717 324.088C437.013 324.792 436.106 325.144 434.997 325.144C433.887 325.144 432.981 324.792 432.277 324.088ZM432.917 319.272C432.373 319.827 432.101 320.536 432.101 321.4C432.101 322.264 432.373 322.973 432.917 323.528C433.461 324.083 434.154 324.36 434.997 324.36C435.85 324.36 436.543 324.088 437.077 323.544C437.621 322.989 437.893 322.275 437.893 321.4C437.893 320.536 437.621 319.827 437.077 319.272C436.533 318.717 435.839 318.44 434.997 318.44C434.165 318.44 433.471 318.717 432.917 319.272ZM446.315 325V321.736H441.643V325H440.811V317.8H441.643V320.952H446.315V317.8H447.147V325H446.315ZM448.614 318.632V317.8H455.174V318.632H452.31V325H451.478V318.632H448.614ZM456.639 328.2V317.8H457.471V318.76C457.748 318.44 458.127 318.179 458.607 317.976C459.098 317.763 459.599 317.656 460.111 317.656C461.135 317.656 461.951 317.992 462.559 318.664C463.167 319.336 463.471 320.211 463.471 321.288C463.471 322.397 463.13 323.32 462.447 324.056C461.764 324.781 460.874 325.144 459.775 325.144C458.794 325.144 458.026 324.941 457.471 324.536V328.2H456.639ZM459.887 318.44C459.407 318.44 458.943 318.552 458.495 318.776C458.058 318.989 457.716 319.251 457.471 319.56V323.704C458.132 324.141 458.879 324.36 459.711 324.36C460.575 324.36 461.268 324.077 461.791 323.512C462.324 322.947 462.591 322.221 462.591 321.336C462.591 320.461 462.351 319.763 461.871 319.24C461.402 318.707 460.74 318.44 459.887 318.44ZM465.722 319L465.498 318.312C466.202 317.875 466.965 317.656 467.786 317.656C468.746 317.656 469.429 317.896 469.834 318.376C470.25 318.856 470.458 319.576 470.458 320.536V325H469.626V323.896C469.04 324.696 468.218 325.096 467.162 325.096C466.49 325.096 465.952 324.904 465.546 324.52C465.141 324.125 464.938 323.603 464.938 322.952C464.938 322.248 465.194 321.699 465.706 321.304C466.218 320.909 466.874 320.712 467.674 320.712C468.474 320.712 469.125 320.893 469.626 321.256C469.626 320.851 469.616 320.531 469.594 320.296C469.584 320.061 469.541 319.811 469.466 319.544C469.402 319.267 469.306 319.059 469.178 318.92C469.05 318.781 468.864 318.669 468.618 318.584C468.384 318.488 468.09 318.44 467.738 318.44C467.077 318.44 466.405 318.627 465.722 319ZM467.418 324.312C468.314 324.312 469.05 323.933 469.626 323.176V321.976C469.104 321.592 468.48 321.4 467.754 321.4C467.232 321.4 466.778 321.528 466.394 321.784C466.01 322.04 465.818 322.413 465.818 322.904C465.818 323.341 465.968 323.688 466.266 323.944C466.576 324.189 466.96 324.312 467.418 324.312ZM478.442 323.368L478.858 323.976C478.559 324.349 478.165 324.637 477.674 324.84C477.194 325.043 476.682 325.144 476.138 325.144C475.018 325.144 474.101 324.803 473.386 324.12C472.682 323.437 472.33 322.531 472.33 321.4C472.33 320.344 472.671 319.459 473.354 318.744C474.037 318.019 474.89 317.656 475.914 317.656C477.151 317.656 478.085 317.955 478.714 318.552L478.314 319.224C477.738 318.701 476.981 318.44 476.042 318.44C475.263 318.44 474.597 318.723 474.042 319.288C473.487 319.853 473.21 320.557 473.21 321.4C473.21 322.296 473.493 323.016 474.058 323.56C474.623 324.093 475.338 324.36 476.202 324.36C477.13 324.36 477.877 324.029 478.442 323.368ZM479.567 318.632V317.8H486.127V318.632H483.263V325H482.431V318.632H479.567ZM493.096 325V321.736H488.424V325H487.592V317.8H488.424V320.952H493.096V317.8H493.928V325H493.096ZM496.676 319L496.452 318.312C497.156 317.875 497.918 317.656 498.74 317.656C499.7 317.656 500.382 317.896 500.788 318.376C501.204 318.856 501.412 319.576 501.412 320.536V325H500.58V323.896C499.993 324.696 499.172 325.096 498.116 325.096C497.444 325.096 496.905 324.904 496.5 324.52C496.094 324.125 495.892 323.603 495.892 322.952C495.892 322.248 496.148 321.699 496.66 321.304C497.172 320.909 497.828 320.712 498.628 320.712C499.428 320.712 500.078 320.893 500.58 321.256C500.58 320.851 500.569 320.531 500.548 320.296C500.537 320.061 500.494 319.811 500.42 319.544C500.356 319.267 500.26 319.059 500.132 318.92C500.004 318.781 499.817 318.669 499.572 318.584C499.337 318.488 499.044 318.44 498.692 318.44C498.03 318.44 497.358 318.627 496.676 319ZM498.372 324.312C499.268 324.312 500.004 323.933 500.58 323.176V321.976C500.057 321.592 499.433 321.4 498.708 321.4C498.185 321.4 497.732 321.528 497.348 321.784C496.964 322.04 496.772 322.413 496.772 322.904C496.772 323.341 496.921 323.688 497.22 323.944C497.529 324.189 497.913 324.312 498.372 324.312ZM506.755 317.8H508.899V325H508.067V322.312H506.275L504.211 325H503.187L505.459 322.12C505.001 322.045 504.595 321.827 504.243 321.464C503.902 321.091 503.731 320.627 503.731 320.072C503.731 319.411 503.971 318.867 504.451 318.44C504.931 318.013 505.699 317.8 506.755 317.8ZM504.611 320.088C504.611 320.515 504.777 320.861 505.107 321.128C505.438 321.395 505.79 321.528 506.163 321.528H508.067V318.584H506.611C505.929 318.584 505.422 318.723 505.091 319C504.771 319.277 504.611 319.64 504.611 320.088Z" fill="white"/>
<rect x="412" y="302" width="108" height="36" rx="3" stroke="#E4002B" stroke-width="2"/>
<rect x="412" y="374" width="108" height="36" rx="3" fill="#141414"/>
<path d="M424.836 397L429.716 385.704H430.436L435.316 397H434.372L432.74 393.192H427.364L425.732 397H424.836ZM430.052 386.92L427.716 392.36H432.372L430.052 386.92ZM442.424 397V393.736H437.752V397H436.92V389.8H437.752V392.952H442.424V389.8H443.256V397H442.424ZM445.78 397V389.8H450.116V390.584H446.612V397H445.78ZM456.008 397V390.632H452.968L452.872 392.2C452.797 393.213 452.675 394.061 452.504 394.744C452.333 395.416 452.12 395.912 451.864 396.232C451.619 396.552 451.373 396.771 451.128 396.888C450.883 397.005 450.6 397.064 450.28 397.064L450.216 396.248C450.333 396.248 450.451 396.227 450.568 396.184C450.696 396.141 450.84 396.035 451 395.864C451.171 395.683 451.325 395.448 451.464 395.16C451.603 394.872 451.725 394.461 451.832 393.928C451.949 393.384 452.029 392.755 452.072 392.04L452.184 389.8H456.84V397H456.008ZM460.205 397H459.373V389.8H460.205V395.8L465.005 389.8H465.837V397H465.005V391L460.205 397ZM469.19 397H468.358V389.8H469.19V395.8L473.99 389.8H474.822V397H473.99V391L469.19 397ZM469.462 386.056H470.214C470.214 386.451 470.352 386.787 470.63 387.064C470.907 387.331 471.264 387.464 471.702 387.464C472.118 387.464 472.459 387.331 472.726 387.064C472.992 386.787 473.126 386.451 473.126 386.056H473.878C473.878 386.643 473.675 387.133 473.27 387.528C472.864 387.912 472.342 388.104 471.702 388.104C471.008 388.104 470.459 387.912 470.054 387.528C469.659 387.144 469.462 386.653 469.462 386.056ZM482.942 395.368L483.358 395.976C483.059 396.349 482.665 396.637 482.174 396.84C481.694 397.043 481.182 397.144 480.638 397.144C479.518 397.144 478.601 396.803 477.886 396.12C477.182 395.437 476.83 394.531 476.83 393.4C476.83 392.344 477.171 391.459 477.854 390.744C478.537 390.019 479.39 389.656 480.414 389.656C481.651 389.656 482.585 389.955 483.214 390.552L482.814 391.224C482.238 390.701 481.481 390.44 480.542 390.44C479.763 390.44 479.097 390.723 478.542 391.288C477.987 391.853 477.71 392.557 477.71 393.4C477.71 394.296 477.993 395.016 478.558 395.56C479.123 396.093 479.838 396.36 480.702 396.36C481.63 396.36 482.377 396.029 482.942 395.368ZM491.058 389.8L487.506 393.24L491.346 397H490.226L486.498 393.288L489.986 389.8H491.058ZM485.186 397V389.8H486.018V397H485.186ZM493.16 391L492.936 390.312C493.64 389.875 494.403 389.656 495.224 389.656C496.184 389.656 496.867 389.896 497.272 390.376C497.688 390.856 497.896 391.576 497.896 392.536V397H497.064V395.896C496.477 396.696 495.656 397.096 494.6 397.096C493.928 397.096 493.389 396.904 492.984 396.52C492.579 396.125 492.376 395.603 492.376 394.952C492.376 394.248 492.632 393.699 493.144 393.304C493.656 392.909 494.312 392.712 495.112 392.712C495.912 392.712 496.563 392.893 497.064 393.256C497.064 392.851 497.053 392.531 497.032 392.296C497.021 392.061 496.979 391.811 496.904 391.544C496.84 391.267 496.744 391.059 496.616 390.92C496.488 390.781 496.301 390.669 496.056 390.584C495.821 390.488 495.528 390.44 495.176 390.44C494.515 390.44 493.843 390.627 493.16 391ZM494.856 396.312C495.752 396.312 496.488 395.933 497.064 395.176V393.976C496.541 393.592 495.917 393.4 495.192 393.4C494.669 393.4 494.216 393.528 493.832 393.784C493.448 394.04 493.256 394.413 493.256 394.904C493.256 395.341 493.405 395.688 493.704 395.944C494.013 396.189 494.397 396.312 494.856 396.312ZM503.24 389.8H505.384V397H504.552V394.312H502.76L500.696 397H499.672L501.944 394.12C501.485 394.045 501.08 393.827 500.728 393.464C500.386 393.091 500.216 392.627 500.216 392.072C500.216 391.411 500.456 390.867 500.936 390.44C501.416 390.013 502.184 389.8 503.24 389.8ZM501.096 392.088C501.096 392.515 501.261 392.861 501.592 393.128C501.922 393.395 502.274 393.528 502.648 393.528H504.552V390.584H503.096C502.413 390.584 501.906 390.723 501.576 391C501.256 391.277 501.096 391.64 501.096 392.088Z" fill="white"/>
<rect x="412" y="374" width="108" height="36" rx="3" stroke="#E4002B" stroke-width="2"/>
<rect x="412" y="416" width="108" height="36" rx="3" fill="#141414"/>
<path d="M430.52 427.8L425.224 433.096L430.744 439H429.608L424.184 433.16L429.448 427.8H430.52ZM422.776 439V427.8H423.656V439H422.776ZM432.277 438.088C431.573 437.384 431.221 436.488 431.221 435.4C431.221 434.312 431.573 433.416 432.277 432.712C432.981 432.008 433.887 431.656 434.997 431.656C436.106 431.656 437.013 432.008 437.717 432.712C438.421 433.416 438.773 434.312 438.773 435.4C438.773 436.488 438.421 437.384 437.717 438.088C437.013 438.792 436.106 439.144 434.997 439.144C433.887 439.144 432.981 438.792 432.277 438.088ZM432.917 433.272C432.373 433.827 432.101 434.536 432.101 435.4C432.101 436.264 432.373 436.973 432.917 437.528C433.461 438.083 434.154 438.36 434.997 438.36C435.85 438.36 436.543 438.088 437.077 437.544C437.621 436.989 437.893 436.275 437.893 435.4C437.893 434.536 437.621 433.827 437.077 433.272C436.533 432.717 435.839 432.44 434.997 432.44C434.165 432.44 433.471 432.717 432.917 433.272ZM446.315 439V435.736H441.643V439H440.811V431.8H441.643V434.952H446.315V431.8H447.147V439H446.315ZM448.614 432.632V431.8H455.174V432.632H452.31V439H451.478V432.632H448.614ZM456.639 442.2V431.8H457.471V432.76C457.748 432.44 458.127 432.179 458.607 431.976C459.098 431.763 459.599 431.656 460.111 431.656C461.135 431.656 461.951 431.992 462.559 432.664C463.167 433.336 463.471 434.211 463.471 435.288C463.471 436.397 463.13 437.32 462.447 438.056C461.764 438.781 460.874 439.144 459.775 439.144C458.794 439.144 458.026 438.941 457.471 438.536V442.2H456.639ZM459.887 432.44C459.407 432.44 458.943 432.552 458.495 432.776C458.058 432.989 457.716 433.251 457.471 433.56V437.704C458.132 438.141 458.879 438.36 459.711 438.36C460.575 438.36 461.268 438.077 461.791 437.512C462.324 436.947 462.591 436.221 462.591 435.336C462.591 434.461 462.351 433.763 461.871 433.24C461.402 432.707 460.74 432.44 459.887 432.44ZM465.722 433L465.498 432.312C466.202 431.875 466.965 431.656 467.786 431.656C468.746 431.656 469.429 431.896 469.834 432.376C470.25 432.856 470.458 433.576 470.458 434.536V439H469.626V437.896C469.04 438.696 468.218 439.096 467.162 439.096C466.49 439.096 465.952 438.904 465.546 438.52C465.141 438.125 464.938 437.603 464.938 436.952C464.938 436.248 465.194 435.699 465.706 435.304C466.218 434.909 466.874 434.712 467.674 434.712C468.474 434.712 469.125 434.893 469.626 435.256C469.626 434.851 469.616 434.531 469.594 434.296C469.584 434.061 469.541 433.811 469.466 433.544C469.402 433.267 469.306 433.059 469.178 432.92C469.05 432.781 468.864 432.669 468.618 432.584C468.384 432.488 468.09 432.44 467.738 432.44C467.077 432.44 466.405 432.627 465.722 433ZM467.418 438.312C468.314 438.312 469.05 437.933 469.626 437.176V435.976C469.104 435.592 468.48 435.4 467.754 435.4C467.232 435.4 466.778 435.528 466.394 435.784C466.01 436.04 465.818 436.413 465.818 436.904C465.818 437.341 465.968 437.688 466.266 437.944C466.576 438.189 466.96 438.312 467.418 438.312ZM478.442 437.368L478.858 437.976C478.559 438.349 478.165 438.637 477.674 438.84C477.194 439.043 476.682 439.144 476.138 439.144C475.018 439.144 474.101 438.803 473.386 438.12C472.682 437.437 472.33 436.531 472.33 435.4C472.33 434.344 472.671 433.459 473.354 432.744C474.037 432.019 474.89 431.656 475.914 431.656C477.151 431.656 478.085 431.955 478.714 432.552L478.314 433.224C477.738 432.701 476.981 432.44 476.042 432.44C475.263 432.44 474.597 432.723 474.042 433.288C473.487 433.853 473.21 434.557 473.21 435.4C473.21 436.296 473.493 437.016 474.058 437.56C474.623 438.093 475.338 438.36 476.202 438.36C477.13 438.36 477.877 438.029 478.442 437.368ZM479.567 432.632V431.8H486.127V432.632H483.263V439H482.431V432.632H479.567ZM493.096 439V435.736H488.424V439H487.592V431.8H488.424V434.952H493.096V431.8H493.928V439H493.096ZM496.676 433L496.452 432.312C497.156 431.875 497.918 431.656 498.74 431.656C499.7 431.656 500.382 431.896 500.788 432.376C501.204 432.856 501.412 433.576 501.412 434.536V439H500.58V437.896C499.993 438.696 499.172 439.096 498.116 439.096C497.444 439.096 496.905 438.904 496.5 438.52C496.094 438.125 495.892 437.603 495.892 436.952C495.892 436.248 496.148 435.699 496.66 435.304C497.172 434.909 497.828 434.712 498.628 434.712C499.428 434.712 500.078 434.893 500.58 435.256C500.58 434.851 500.569 434.531 500.548 434.296C500.537 434.061 500.494 433.811 500.42 433.544C500.356 433.267 500.26 433.059 500.132 432.92C500.004 432.781 499.817 432.669 499.572 432.584C499.337 432.488 499.044 432.44 498.692 432.44C498.03 432.44 497.358 432.627 496.676 433ZM498.372 438.312C499.268 438.312 500.004 437.933 500.58 437.176V435.976C500.057 435.592 499.433 435.4 498.708 435.4C498.185 435.4 497.732 435.528 497.348 435.784C496.964 436.04 496.772 436.413 496.772 436.904C496.772 437.341 496.921 437.688 497.22 437.944C497.529 438.189 497.913 438.312 498.372 438.312ZM506.755 431.8H508.899V439H508.067V436.312H506.275L504.211 439H503.187L505.459 436.12C505.001 436.045 504.595 435.827 504.243 435.464C503.902 435.091 503.731 434.627 503.731 434.072C503.731 433.411 503.971 432.867 504.451 432.44C504.931 432.013 505.699 431.8 506.755 431.8ZM504.611 434.088C504.611 434.515 504.777 434.861 505.107 435.128C505.438 435.395 505.79 435.528 506.163 435.528H508.067V432.584H506.611C505.929 432.584 505.422 432.723 505.091 433C504.771 433.277 504.611 433.64 504.611 434.088Z" fill="white"/>
<rect x="412" y="416" width="108" height="36" rx="3" stroke="#E4002B" stroke-width="2"/>
<rect x="526" y="146" width="108" height="36" rx="3" fill="#141414"/>
<path d="M544.52 157.8L539.224 163.096L544.744 169H543.608L538.184 163.16L543.448 157.8H544.52ZM536.776 169V157.8H537.656V169H536.776ZM546.277 168.088C545.573 167.384 545.221 166.488 545.221 165.4C545.221 164.312 545.573 163.416 546.277 162.712C546.981 162.008 547.887 161.656 548.997 161.656C550.106 161.656 551.013 162.008 551.717 162.712C552.421 163.416 552.773 164.312 552.773 165.4C552.773 166.488 552.421 167.384 551.717 168.088C551.013 168.792 550.106 169.144 548.997 169.144C547.887 169.144 546.981 168.792 546.277 168.088ZM546.917 163.272C546.373 163.827 546.101 164.536 546.101 165.4C546.101 166.264 546.373 166.973 546.917 167.528C547.461 168.083 548.154 168.36 548.997 168.36C549.85 168.36 550.543 168.088 551.077 167.544C551.621 166.989 551.893 166.275 551.893 165.4C551.893 164.536 551.621 163.827 551.077 163.272C550.533 162.717 549.839 162.44 548.997 162.44C548.165 162.44 547.471 162.717 546.917 163.272ZM560.315 169V165.736H555.643V169H554.811V161.8H555.643V164.952H560.315V161.8H561.147V169H560.315ZM562.614 162.632V161.8H569.174V162.632H566.31V169H565.478V162.632H562.614ZM570.639 172.2V161.8H571.471V162.76C571.748 162.44 572.127 162.179 572.607 161.976C573.098 161.763 573.599 161.656 574.111 161.656C575.135 161.656 575.951 161.992 576.559 162.664C577.167 163.336 577.471 164.211 577.471 165.288C577.471 166.397 577.13 167.32 576.447 168.056C575.764 168.781 574.874 169.144 573.775 169.144C572.794 169.144 572.026 168.941 571.471 168.536V172.2H570.639ZM573.887 162.44C573.407 162.44 572.943 162.552 572.495 162.776C572.058 162.989 571.716 163.251 571.471 163.56V167.704C572.132 168.141 572.879 168.36 573.711 168.36C574.575 168.36 575.268 168.077 575.791 167.512C576.324 166.947 576.591 166.221 576.591 165.336C576.591 164.461 576.351 163.763 575.871 163.24C575.402 162.707 574.74 162.44 573.887 162.44ZM579.722 163L579.498 162.312C580.202 161.875 580.965 161.656 581.786 161.656C582.746 161.656 583.429 161.896 583.834 162.376C584.25 162.856 584.458 163.576 584.458 164.536V169H583.626V167.896C583.04 168.696 582.218 169.096 581.162 169.096C580.49 169.096 579.952 168.904 579.546 168.52C579.141 168.125 578.938 167.603 578.938 166.952C578.938 166.248 579.194 165.699 579.706 165.304C580.218 164.909 580.874 164.712 581.674 164.712C582.474 164.712 583.125 164.893 583.626 165.256C583.626 164.851 583.616 164.531 583.594 164.296C583.584 164.061 583.541 163.811 583.466 163.544C583.402 163.267 583.306 163.059 583.178 162.92C583.05 162.781 582.864 162.669 582.618 162.584C582.384 162.488 582.09 162.44 581.738 162.44C581.077 162.44 580.405 162.627 579.722 163ZM581.418 168.312C582.314 168.312 583.05 167.933 583.626 167.176V165.976C583.104 165.592 582.48 165.4 581.754 165.4C581.232 165.4 580.778 165.528 580.394 165.784C580.01 166.04 579.818 166.413 579.818 166.904C579.818 167.341 579.968 167.688 580.266 167.944C580.576 168.189 580.96 168.312 581.418 168.312ZM592.442 167.368L592.858 167.976C592.559 168.349 592.165 168.637 591.674 168.84C591.194 169.043 590.682 169.144 590.138 169.144C589.018 169.144 588.101 168.803 587.386 168.12C586.682 167.437 586.33 166.531 586.33 165.4C586.33 164.344 586.671 163.459 587.354 162.744C588.037 162.019 588.89 161.656 589.914 161.656C591.151 161.656 592.085 161.955 592.714 162.552L592.314 163.224C591.738 162.701 590.981 162.44 590.042 162.44C589.263 162.44 588.597 162.723 588.042 163.288C587.487 163.853 587.21 164.557 587.21 165.4C587.21 166.296 587.493 167.016 588.058 167.56C588.623 168.093 589.338 168.36 590.202 168.36C591.13 168.36 591.877 168.029 592.442 167.368ZM593.567 162.632V161.8H600.127V162.632H597.263V169H596.431V162.632H593.567ZM607.096 169V165.736H602.424V169H601.592V161.8H602.424V164.952H607.096V161.8H607.928V169H607.096ZM610.676 163L610.452 162.312C611.156 161.875 611.918 161.656 612.74 161.656C613.7 161.656 614.382 161.896 614.788 162.376C615.204 162.856 615.412 163.576 615.412 164.536V169H614.58V167.896C613.993 168.696 613.172 169.096 612.116 169.096C611.444 169.096 610.905 168.904 610.5 168.52C610.094 168.125 609.892 167.603 609.892 166.952C609.892 166.248 610.148 165.699 610.66 165.304C611.172 164.909 611.828 164.712 612.628 164.712C613.428 164.712 614.078 164.893 614.58 165.256C614.58 164.851 614.569 164.531 614.548 164.296C614.537 164.061 614.494 163.811 614.42 163.544C614.356 163.267 614.26 163.059 614.132 162.92C614.004 162.781 613.817 162.669 613.572 162.584C613.337 162.488 613.044 162.44 612.692 162.44C612.03 162.44 611.358 162.627 610.676 163ZM612.372 168.312C613.268 168.312 614.004 167.933 614.58 167.176V165.976C614.057 165.592 613.433 165.4 612.708 165.4C612.185 165.4 611.732 165.528 611.348 165.784C610.964 166.04 610.772 166.413 610.772 166.904C610.772 167.341 610.921 167.688 611.22 167.944C611.529 168.189 611.913 168.312 612.372 168.312ZM620.755 161.8H622.899V169H622.067V166.312H620.275L618.211 169H617.187L619.459 166.12C619.001 166.045 618.595 165.827 618.243 165.464C617.902 165.091 617.731 164.627 617.731 164.072C617.731 163.411 617.971 162.867 618.451 162.44C618.931 162.013 619.699 161.8 620.755 161.8ZM618.611 164.088C618.611 164.515 618.777 164.861 619.107 165.128C619.438 165.395 619.79 165.528 620.163 165.528H622.067V162.584H620.611C619.929 162.584 619.422 162.723 619.091 163C618.771 163.277 618.611 163.64 618.611 164.088Z" fill="white"/>
<rect x="526" y="146" width="108" height="36" rx="3" stroke="#E4002B" stroke-width="2"/>
</svg>
