<svg width="21" height="22" viewBox="0 0 21 22" fill="none" xmlns="http://www.w3.org/2000/svg">
<path fill-rule="evenodd" clip-rule="evenodd" d="M2.44533 4.65991C2.63599 3.63393 3.57856 0.0020325 7.54756 8.5186e-07C11.5166 -0.00203079 11.1124 3.63055 10.9231 4.65585L8.65461 16.9033C8.37265 18.4263 7.5301 21.9986 3.47316 22C-0.583787 22.0014 -0.10176 18.4284 0.180205 16.9053L0.429952 15.5583H3.67524C3.13816 18.4582 3.05223 19.2478 3.98271 19.2464C4.79437 19.2464 5.10587 18.5428 5.40932 16.904L6.15788 12.8617C5.63641 13.1784 5.04519 13.3596 4.43721 13.3892C1.10197 13.3892 1.44973 10.0519 1.67261 8.85188L2.44533 4.65991ZM7.84833 3.71994C7.87119 3.6005 7.86717 3.47741 7.83657 3.35974C7.80598 3.24207 7.74959 3.13283 7.67156 3.04008C7.59353 2.94733 7.49585 2.87344 7.38573 2.82385C7.27562 2.77426 7.15587 2.75024 7.03532 2.75356C6.76641 2.77735 6.51085 2.88234 6.30199 3.05486C6.09313 3.22737 5.94067 3.45938 5.8645 3.72062L4.70911 9.9598C4.6926 10.0783 4.70112 10.199 4.73411 10.3139C4.7671 10.4288 4.82381 10.5354 4.90053 10.6267C4.97724 10.7179 5.07221 10.7918 5.17922 10.8434C5.28623 10.895 5.40286 10.9232 5.52144 10.9262C5.78043 10.9175 6.03042 10.8283 6.23715 10.6706C6.44387 10.513 6.59722 10.2948 6.67616 10.0458L7.84833 3.71994ZM17.1129 3.36576H12.2443L12.825 0.23161H21L20.4139 3.39556L13.7676 21.7637H10.4015L17.1129 3.36576Z" fill="#141414"/>
</svg>
