<svg width="344" height="67" viewBox="0 0 344 67" fill="none" xmlns="http://www.w3.org/2000/svg">
<path fill-rule="evenodd" clip-rule="evenodd" d="M134.952 31.5429C132.216 31.5429 129.995 33.7619 129.995 36.4959C129.995 39.2359 132.216 41.4529 134.952 41.4529C137.69 41.4529 139.908 39.2359 139.908 36.4959C139.908 33.7619 137.69 31.5429 134.952 31.5429ZM336.639 27.9059C339.889 27.9059 342.266 29.7249 343.824 31.5429V22.7599C341.271 21.0289 338.195 20.3359 335.52 20.3359C327.304 20.3359 320.165 26.2189 320.165 36.3399C320.165 46.0309 326.653 52.3479 335.648 52.3479C338.243 52.3479 341.097 51.9549 343.824 50.0979V41.4839C342.266 43.0879 339.804 44.7769 336.639 44.7769C331.798 44.7769 328.898 41.1879 328.898 36.5999C328.898 31.6249 331.97 27.9059 336.639 27.9059ZM321.094 21.2029H311.145L302.016 33.9179V21.2029H293.54L293.543 51.4819H302.016V38.4589L310.794 51.4819H321.398L309.587 35.8649L321.094 21.2029ZM268.506 39.3709V21.2029H260.331V51.4819H268.636L280.359 33.3129V51.4819H288.534V21.2029H280.227L268.506 39.3709ZM243.94 34.8259H241.522V27.8649H243.94C247.574 27.8649 248.091 29.8089 248.091 31.3239C248.091 32.6209 247.703 34.8259 243.94 34.8259ZM245.798 21.2029H233.04V51.4819H241.522V41.4839H245.798C254.365 41.4839 256.831 35.5219 256.831 31.3239C256.831 27.1699 254.408 21.2029 245.798 21.2029ZM207.782 28.4669H214.439V51.4819H222.92V28.4669H229.579V21.2029H207.782V28.4669ZM184.291 39.3709V21.2029H176.118V51.4819H184.425L196.142 33.3129V51.4819H204.319V21.2029H196.016L184.291 39.3709ZM159.032 45.4219H155.4V39.0659H159.032C161.715 39.0659 163.273 39.8459 163.273 42.2269C163.273 44.6469 161.673 45.4219 159.032 45.4219ZM159.856 33.0099H155.4V28.4669H169.284V21.2029H146.923L146.922 51.482L159.856 51.4819C162.059 51.4819 171.75 51.5659 171.75 42.0959C171.75 32.9669 162.148 33.0099 159.856 33.0099ZM99.4727 36.3399C99.4727 46.0309 105.961 52.3479 114.957 52.3479C117.555 52.3479 120.409 51.9549 123.135 50.0979V41.4839C121.573 43.0879 119.108 44.7769 115.952 44.7769C111.106 44.7769 108.21 41.1879 108.21 36.5999C108.21 31.6249 111.28 27.9059 115.952 27.9059C119.195 27.9059 121.573 29.7249 123.135 31.5429V22.7599C120.577 21.0289 117.509 20.3359 114.827 20.3359C106.608 20.3359 99.4727 26.2189 99.4727 36.3399ZM81.7227 28.1659H86.3537V51.4819H94.1837V21.2029H81.7227V28.1659Z" fill="#141414"/>
<path fill-rule="evenodd" clip-rule="evenodd" d="M33.289 0C30.809 0 28.397 0.279 26.073 0.795V33.314C26.073 37.299 29.322 40.549 33.308 40.549C37.292 40.549 40.54 37.299 40.54 33.316C40.54 29.488 37.549 26.346 33.789 26.096V20.305C40.737 20.557 46.328 26.305 46.328 33.316C46.328 40.486 40.479 46.338 33.308 46.338C26.134 46.338 20.286 40.486 20.286 33.314V2.635C19.464 2.984 18.661 3.371 17.874 3.787V33.314C17.875 41.813 24.809 48.744 33.308 48.744C41.808 48.744 48.739 41.813 48.739 33.316C48.739 24.977 42.069 18.148 33.789 17.891V12.102C45.255 12.361 54.524 21.791 54.524 33.316C54.524 45.004 44.993 54.533 33.308 54.533C21.62 54.533 12.086 45.004 12.086 33.314V7.627C4.706 13.73 0 22.959 0 33.289C0 51.674 14.904 66.582 33.29 66.582C51.679 66.582 66.579 51.674 66.579 33.289C66.579 14.904 51.679 0 33.289 0Z" fill="#E4002B"/>
</svg>
