<svg width="91" height="16" viewBox="0 0 91 16" fill="none" xmlns="http://www.w3.org/2000/svg">
<path fill-rule="evenodd" clip-rule="evenodd" d="M18.1027 15.26H4.14854C4.14854 15.2017 4.11253 15.2154 4.06276 15.2345C4.032 15.2462 3.99599 15.26 3.95998 15.26C3.80284 15.2285 3.64571 15.2076 3.48858 15.1866C3.17429 15.1447 2.86 15.1028 2.5457 14.9771C1.69714 14.6942 0.942849 14.2228 0.471424 13.3743C0.377193 13.1858 0.282973 12.9031 0.188742 12.6204L0.188739 12.6204L0.188581 12.62C0.141439 12.4785 0.117865 12.3607 0.0942906 12.2428C0.0707165 12.125 0.0471424 12.0071 0 11.8657V3.94577C0.0942849 3.85149 0.0942906 3.66293 0.0942906 3.56864C0.28286 2.34294 0.94286 1.40007 2.07428 0.928647C2.82856 0.645793 3.67711 0.551514 4.52568 0.551514H4.71424H17.6313H17.9141C18.1027 0.551514 18.197 0.645787 18.197 0.834357V3.38006C18.197 3.6629 18.1027 3.6629 17.9141 3.6629H17.9141H17.7256H13.4827H5.18567C4.61996 3.6629 4.4314 3.85149 4.4314 4.4172V11.3C4.4314 11.7714 4.61997 12.0543 5.09139 12.0543H13.6713C13.7656 12.0543 13.8599 12.0543 13.8599 11.8657V9.60287C13.8599 9.4143 13.8599 9.41429 13.6713 9.41429H9.80563H7.16566C6.78852 9.41429 6.69423 9.41429 6.69423 8.94286V6.58574V6.58572C6.69423 6.39716 6.69423 6.30289 6.74137 6.25575C6.78851 6.20861 6.88279 6.20861 7.07135 6.20861H7.07137H17.7256C18.1027 6.20861 18.1027 6.30289 18.1027 6.58574V10.3571V14.7885C18.2913 14.9771 18.2913 15.1657 18.1027 15.26ZM55.8166 15.26H43.7481H43.6538C43.1824 15.26 42.711 15.1657 42.1453 14.9771C40.9196 14.6942 40.2596 13.8457 39.8824 12.7143C39.7881 12.3371 39.6939 11.8657 39.6939 11.3943V4.32291C39.6939 3.7572 39.7881 3.19148 39.9767 2.72005C40.3539 1.87149 40.9196 1.2115 41.8624 0.928647C42.6167 0.645793 43.371 0.551514 44.2195 0.551514H44.4081H55.4394H55.7223C56.0051 0.551514 56.0051 0.645787 56.0051 0.834357V3.28577C56.0051 3.56862 55.9109 3.6629 55.628 3.6629H55.4394H44.9738H44.691C44.2195 3.75719 44.031 3.85148 44.031 4.32291V5.92576C44.031 6.02004 44.031 6.06718 44.0545 6.09075C44.0781 6.11432 44.1252 6.11432 44.2195 6.11432H44.2195H49.2166H55.1566C55.5337 6.11432 55.628 6.11432 55.628 6.58574V8.75431C55.628 9.03716 55.628 9.17858 55.5573 9.24929C55.4866 9.31999 55.3452 9.31999 55.0624 9.31999H55.0623H44.2195H44.031C43.9367 9.31999 43.9367 9.32 43.9367 9.41429V11.3943C43.9367 11.6771 44.031 11.7714 44.3138 11.8657C44.4081 11.8657 44.4788 11.8893 44.5495 11.9128C44.6202 11.9364 44.691 11.96 44.7852 11.96H55.2509H55.5337C55.8166 11.96 55.8166 12.0543 55.8166 12.2428V14.7885C56.0051 15.0714 55.9109 15.1657 55.8166 15.26ZM25.0802 15.26H37.1486C37.2959 15.1863 37.3282 15.1127 37.3801 14.9942C37.3947 14.961 37.4108 14.9242 37.4315 14.8828V12.3371C37.4315 12.0543 37.3372 11.96 37.0544 11.96H36.7715H26.3059H26.023C25.6459 11.96 25.4573 11.7714 25.4573 11.3943V9.50858C25.4573 9.41429 25.4573 9.41429 25.5516 9.41429H25.7402H36.4887C37.0544 9.41429 37.0544 9.31999 37.0544 8.84857V6.68003C37.0544 6.44432 37.0544 6.32646 36.9954 6.26753C36.9365 6.20861 36.8186 6.20861 36.5829 6.20861H25.7402C25.6695 6.20861 25.6164 6.2145 25.5767 6.21891C25.4573 6.23217 25.4573 6.23217 25.4573 6.02002V4.51149C25.4573 3.94578 25.6459 3.75719 26.2116 3.75719H36.7715C37.3372 3.75719 37.3372 3.6629 37.3372 3.19148V0.928647C37.3372 0.645793 37.3372 0.551514 37.0544 0.551514H36.7715H25.8345H25.6459C24.8916 0.551514 24.0431 0.645793 23.2888 0.928647C22.0631 1.40007 21.4031 2.34294 21.2145 3.56864C21.1202 3.85147 21.1202 4.22856 21.1202 4.5114V4.51149V11.3943C21.1202 12.0543 21.3088 12.62 21.4974 13.1857C21.8745 14.1285 22.6288 14.6942 23.5716 14.9771C24.043 15.1657 24.5145 15.26 24.9859 15.26C24.9859 15.26 25.0802 15.1657 25.0802 15.26ZM77.785 15.26C77.5964 15.1657 77.5964 14.9771 77.5964 14.7885V10.4514C77.5964 10.3571 77.5964 10.2629 77.5021 10.1686L74.6736 7.05716C73.9193 6.30289 73.2593 5.54861 72.5993 4.79433C72.2222 4.41719 71.8686 4.01648 71.515 3.61577C71.1615 3.21506 70.8079 2.81435 70.4308 2.43721C70.2422 2.2015 70.0301 1.98937 69.8179 1.77723C69.6058 1.56509 69.3936 1.35295 69.2051 1.11723C69.169 1.08121 69.1468 1.0452 69.1278 1.01444C69.097 0.964664 69.0748 0.928647 69.0165 0.928647C68.9222 0.740078 68.9222 0.645799 69.2051 0.551514H70.4308H73.4479C74.0136 0.551514 74.3907 0.928642 74.7679 1.30578C75.145 1.68292 75.4986 2.08363 75.8521 2.48434C76.2057 2.88505 76.5593 3.28576 76.9364 3.6629C77.7848 4.51126 78.6331 5.45388 79.4815 6.39649L79.4821 6.39719L79.8593 6.77432C79.9064 6.82146 79.93 6.84503 79.9535 6.84503C79.9771 6.84503 80.0007 6.82146 80.0478 6.77432C80.2364 6.53861 80.4485 6.32648 80.6607 6.11434C80.8728 5.9022 81.0849 5.69006 81.2735 5.45434L81.2736 5.45426L81.2736 5.45422C82.0279 4.6057 82.7821 3.75717 83.6306 3.00293C83.9135 2.72007 84.1964 2.41365 84.4792 2.10722C84.7621 1.8008 85.0449 1.49437 85.3278 1.21152C85.6106 0.83438 86.082 0.645804 86.5535 0.645804H86.6478H90.702H90.7963C91.0295 0.568059 91.0063 0.746732 90.991 0.864673V0.864688C90.9878 0.889773 90.9849 0.912111 90.9849 0.928647C90.8906 1.11722 90.702 1.30579 90.5134 1.49436C90.4191 1.63579 90.3013 1.75364 90.1834 1.8715C90.0656 1.98935 89.9477 2.1072 89.8534 2.24863C89.4763 2.62577 89.1227 3.02648 88.7692 3.42719C88.4156 3.8279 88.062 4.22861 87.6849 4.60575C87.3077 4.98289 86.9542 5.3836 86.6006 5.78431C86.247 6.18502 85.8935 6.58573 85.5163 6.96287C85.2115 7.26767 84.9221 7.58787 84.6357 7.9048C84.2133 8.37217 83.7973 8.83244 83.3478 9.22573C83.1592 9.4143 82.9942 9.60285 82.8292 9.79141C82.6642 9.97998 82.4992 10.1686 82.3106 10.3571C82.2164 10.4514 82.2164 10.4514 82.2164 10.5457V11.3943V14.9771C82.2164 15.1657 82.2164 15.3542 82.0278 15.4485C80.4251 15.26 79.1052 15.26 77.7853 15.26H77.785ZM61.568 15.1655C61.8508 15.1655 62.1337 15.1656 62.4166 15.2598C66.3765 15.2598 70.4308 15.2598 74.2022 15.3541C74.3907 15.2598 74.485 15.1655 74.485 14.977V12.7141C74.485 12.1484 74.485 12.1484 73.9193 12.1484H64.0194H63.548C63.2651 12.0541 63.0765 11.8656 63.0765 11.5827V11.2056V1.2114V0.928523C63.0765 0.739954 62.9823 0.64568 62.7937 0.64568H59.1166C58.928 0.64568 58.8337 0.739954 58.8337 0.928523V1.2114V10.8284V10.8286C58.8337 11.3942 58.8337 11.8656 58.928 12.337C59.0223 12.9027 59.1166 13.4684 59.4937 13.9399C59.9651 14.6941 60.7194 14.977 61.568 15.1655Z" fill="#141414"/>
</svg>
