<svg width="62" height="16" viewBox="0 0 62 16" fill="none" xmlns="http://www.w3.org/2000/svg">
<path d="M5.50949 0C4.36385 0 2.98908 1.1444 1.87469 3.06613C0.687385 5.07422 0 7.53576 0 9.68421C0 12.8367 1.69763 16 5.50949 16C9.32135 16 11.019 12.8367 11.019 9.68421C11.019 7.53576 10.3316 5.06343 9.1443 3.07692C8.0299 1.1444 6.65513 0 5.50949 0ZM35.2649 4.70715H39.1184V15.1255H43.2532V4.70715H47.1067V0.852901H35.2649V4.70715ZM55.9385 4.70715H62V0.852901H55.9385C50.3665 0.852901 47.3983 3.7247 47.3983 8C47.3983 12.2753 50.3769 15.1471 55.9385 15.1471H62V11.2821H55.9385C53.3556 11.2821 51.6788 10.3212 51.6788 8C51.6788 5.67881 53.3556 4.70715 55.9385 4.70715ZM26.8601 0.863698L24.6521 9.39271L22.4441 0.863698H15.1433V15.1579H19.278V3.51957L22.2879 15.1363H27.0267L30.0366 3.50877V15.1363H34.1713V0.863698H26.8601Z" fill="#141414"/>
</svg>
