<svg width="35" height="35" viewBox="0 0 35 35" fill="none" xmlns="http://www.w3.org/2000/svg">
<path d="M17.5 32.9375C9.0625 32.9375 2.125 25.9375 2.125 17.5C2.125 15.75 2.4375 14.0625 3 12.4375L12 29.9375C12.125 30.1875 12.25 30.375 12.5625 30.375C12.875 30.375 13 30.1875 13.125 29.9375L17.3125 20.625C17.375 20.5 17.4375 20.4375 17.5 20.4375C17.625 20.4375 17.625 20.5625 17.6875 20.625L21.9375 29.9375C22.0625 30.1875 22.1875 30.375 22.5 30.375C22.8125 30.375 22.9375 30.1875 23.0625 29.9375L32.0625 12.4375C32.625 14 32.9375 15.6875 32.9375 17.5C32.875 25.9375 25.9375 32.9375 17.5 32.9375ZM17.5 13.5C17.375 13.5 17.375 13.375 17.3125 13.3125L12.5 2.9375C14.0625 2.375 15.75 2.0625 17.5 2.0625C19.25 2.0625 20.9375 2.375 22.5 2.9375L17.6875 13.3125C17.625 13.375 17.625 13.5 17.5 13.5ZM12.4375 24.75C12.3125 24.75 12.3125 24.625 12.25 24.5625L4.375 9.4375C5.75 7.1875 7.75 5.3125 10.0625 4L15.625 16C15.75 16.25 15.875 16.3125 16.0625 16.3125H18.9375C19.125 16.3125 19.25 16.25 19.375 16L24.875 4C27.1875 5.3125 29.1875 7.1875 30.5625 9.4375L22.75 24.5625C22.6875 24.6875 22.625 24.75 22.5625 24.75C22.4375 24.75 22.4375 24.625 22.375 24.5625L19.375 17.9375C19.25 17.6875 19.125 17.625 18.9375 17.625H16.0625C15.875 17.625 15.75 17.6875 15.625 17.9375L12.625 24.5625C12.5625 24.625 12.5625 24.75 12.4375 24.75ZM17.5 35C27.1875 35 35 27.1875 35 17.5C35 7.8125 27.1875 0 17.5 0C7.8125 0 0 7.8125 0 17.5C0 27.1875 7.8125 35 17.5 35Z" fill="black"/>
</svg>
