<svg width="398" height="82" viewBox="0 0 398 82" fill="none" xmlns="http://www.w3.org/2000/svg">
<path d="M171.744 20.0171V18.0877C171.744 17.6054 171.503 17.123 170.538 17.123C169.573 16.8818 167.402 16.8818 165.473 16.8818C160.166 16.8818 156.789 18.8112 156.789 24.8407V58.8465C156.789 59.5701 157.271 60.0524 157.995 60.0524H160.648C161.372 60.0524 161.855 59.5701 161.855 58.8465V32.5583H170.779C171.503 32.5583 171.744 32.076 171.744 31.5936V29.6642C171.744 28.9407 171.262 28.6995 170.779 28.6995H161.613V24.8407C161.613 21.4642 162.337 20.9818 165.473 20.9818H170.538C171.262 20.7407 171.744 20.4995 171.744 20.0171Z" fill="#555557"/>
<path d="M189.834 31.5942V28.9413C189.834 28.2177 189.352 27.9766 188.628 27.9766C183.804 27.9766 179.944 28.2177 176.809 29.6648C176.085 29.906 175.844 30.3883 175.844 30.8707V58.3648C175.844 59.0883 176.326 59.5707 176.809 59.5707H179.703C180.427 59.5707 180.668 59.0883 180.668 58.3648V33.0413C182.839 32.5589 184.769 32.5589 188.628 32.5589C189.834 32.5589 189.834 32.3177 189.834 31.5942Z" fill="#555557"/>
<path d="M214.679 57.6404V30.8698C214.679 30.1462 214.438 29.9051 213.473 29.6639C210.337 28.9404 206.478 28.458 202.859 28.458C194.417 28.458 190.316 34.0051 190.316 42.4462V46.3051C190.316 54.7462 194.176 60.2933 202.859 60.2933C206.236 60.2933 210.337 59.8109 213.473 59.0874C214.438 58.6051 214.679 58.3639 214.679 57.6404ZM209.613 55.4698C207.925 55.7109 205.272 55.9521 202.859 55.9521C197.312 55.9521 195.382 52.0933 195.382 46.0639V42.2051C195.382 36.1757 197.07 32.3168 202.859 32.3168C205.272 32.3168 207.925 32.558 209.613 32.7992V55.4698Z" fill="#555557"/>
<path d="M255.926 58.605V38.105C255.926 32.3168 252.549 28.2168 245.795 28.2168H244.589C241.212 28.2168 238.8 28.6992 237.111 30.1462C235.423 28.458 233.011 28.2168 229.634 28.2168H228.428C221.674 28.2168 218.297 32.3168 218.297 38.105V58.605C218.297 59.3286 218.779 59.8109 219.262 59.8109H222.156C222.88 59.8109 223.121 59.3286 223.121 58.605V38.105C223.121 33.2815 225.292 32.558 228.187 32.558H229.393C233.011 32.558 234.217 33.2815 234.217 36.4168V58.605C234.217 59.3286 234.699 59.8109 235.182 59.8109H238.076C238.8 59.8109 239.041 59.3286 239.041 58.605V36.4168C239.041 33.2815 240.247 32.558 243.865 32.558H245.071C248.207 32.558 250.137 33.2815 250.137 38.105V58.605C250.137 59.3286 250.619 59.8109 251.102 59.8109H253.996C255.685 59.8109 255.926 59.3286 255.926 58.605Z" fill="#555557"/>
<path d="M283.905 44.6168V41.4815C283.905 33.5227 279.564 28.2168 271.362 28.2168C263.161 28.2168 258.578 33.2815 258.578 41.4815V46.5462C258.578 57.158 264.85 60.2933 271.604 60.2933C275.463 60.2933 278.599 60.0521 281.735 59.3286C282.699 59.0874 282.941 58.8462 282.941 58.1227V56.1933C282.941 55.7109 282.458 55.4697 281.976 55.4697H281.735C279.081 55.9521 274.981 56.1933 271.604 56.1933C266.297 56.1933 263.644 53.7815 263.644 47.0286V45.8227H282.699C283.423 45.8227 283.905 45.3403 283.905 44.6168ZM278.84 41.9639H263.644V41.4815C263.644 35.4521 266.297 32.558 271.362 32.558C276.428 32.558 278.84 34.9697 278.84 41.4815V41.9639Z" fill="#555557"/>
<path d="M325.395 47.511V29.6639C325.395 28.9404 324.912 28.458 324.189 28.458H321.535C320.812 28.458 320.329 28.9404 320.329 29.6639V47.511C320.329 53.7815 317.917 55.9521 313.334 55.9521C311.887 55.9521 310.44 55.7109 308.751 55.2286V29.6639C308.751 28.9404 308.269 28.458 307.545 28.458H304.65C303.927 28.458 303.444 28.9404 303.444 29.6639V55.2286C301.756 55.7109 300.309 55.9521 298.861 55.9521C294.037 55.9521 291.866 53.7815 291.866 47.511V29.6639C291.866 28.9404 291.384 28.458 290.66 28.458H288.007C287.283 28.458 286.801 28.9404 286.801 29.6639V47.511C286.801 57.6404 292.349 60.2933 298.379 60.2933C301.274 60.2933 303.686 59.8109 305.857 58.8462C308.269 59.8109 310.44 60.2933 313.334 60.2933C319.847 60.2933 325.395 57.6404 325.395 47.511Z" fill="#555557"/>
<path d="M354.584 46.305V41.9639C354.584 33.5227 350.242 28.2168 341.8 28.2168C333.357 28.2168 329.016 33.7639 329.016 41.9639V46.305C329.016 54.7462 333.357 60.0521 341.8 60.0521C350.242 60.2933 354.584 54.7462 354.584 46.305ZM349.519 46.305C349.519 52.0933 347.107 55.7109 341.8 55.7109C336.493 55.7109 334.081 52.0933 334.081 46.305V41.9639C334.081 36.1756 336.493 32.558 341.8 32.558C347.107 32.558 349.519 36.1756 349.519 41.9639V46.305Z" fill="#555557"/>
<path d="M372.432 31.5942V28.9413C372.432 28.2177 371.949 27.9766 371.226 27.9766C366.401 27.9766 362.542 28.2177 359.406 29.6648C358.683 29.906 358.441 30.3883 358.441 30.8707V58.3648C358.441 59.0883 358.924 59.5707 359.406 59.5707H362.301C363.024 59.5707 363.266 59.0883 363.266 58.3648V33.0413C365.437 32.5589 367.366 32.5589 371.226 32.5589C372.432 32.5589 372.432 32.3177 372.432 31.5942Z" fill="#555557"/>
<path d="M397.999 59.0877C397.999 58.8466 397.999 58.6054 397.758 58.6054L384.974 43.4113L397.517 29.9054C397.758 29.6642 397.758 29.423 397.758 29.1819C397.758 28.9407 397.517 28.4583 396.793 28.4583H393.175C392.692 28.4583 392.451 28.4583 391.969 28.9407L380.632 41.723V18.3289C380.632 17.6054 380.149 17.123 379.426 17.123H376.772C376.049 17.123 375.566 17.6054 375.566 18.3289V58.8466C375.566 59.5701 376.049 60.0525 376.772 60.0525H379.426C380.149 60.0525 380.632 59.5701 380.632 58.8466V45.3407L391.969 59.3289C392.451 59.8113 392.692 60.0525 393.175 60.0525H397.276C397.758 59.8113 397.999 59.5701 397.999 59.0877Z" fill="#555557"/>
<path d="M148.346 58.3643V22.429C148.346 21.7055 147.864 21.2232 147.14 21.2232H141.833C141.11 21.2232 140.627 21.7055 140.627 22.429V58.3643C140.627 59.0879 141.11 59.5702 141.833 59.5702H147.14C147.864 59.329 148.346 58.8467 148.346 58.3643ZM120.848 59.329V21.4643C117.953 21.4643 113.37 23.3937 113.37 27.4937V53.2996C111.682 53.5408 109.27 53.782 107.822 53.782C102.998 53.782 101.792 50.4055 101.792 45.8232V27.2526C101.551 22.6702 96.4854 21.4643 94.3144 21.4643V45.582C94.3144 54.2643 98.6563 59.8114 107.822 59.8114C109.27 59.8114 112.164 59.329 113.37 59.0879V59.5702C114.576 67.0467 105.41 64.1526 100.586 63.6702C96.9678 63.6702 94.5557 66.5643 93.832 69.9408C96.0029 70.6643 102.757 71.3879 107.581 71.8702C116.265 72.1114 120.848 67.2879 120.848 59.329ZM134.597 58.3643V22.429C134.597 21.7055 134.114 21.2232 133.391 21.2232H128.084C127.361 21.2232 126.878 21.7055 126.878 22.429V58.3643C126.878 59.0879 127.361 59.5702 128.084 59.5702H133.391C134.114 59.329 134.597 58.8467 134.597 58.3643ZM130.737 11.0938C132.908 11.0938 134.597 12.782 134.597 14.9526C134.597 17.1232 132.908 18.8114 130.737 18.8114C128.567 18.8114 126.878 17.1232 126.878 14.9526C126.878 13.0232 128.567 11.0938 130.737 11.0938ZM144.728 11.0938C146.899 11.0938 148.587 12.782 148.587 14.9526C148.587 17.1232 146.899 18.8114 144.728 18.8114C142.557 18.8114 140.868 17.1232 140.868 14.9526C140.868 13.0232 142.557 11.0938 144.728 11.0938Z" fill="#2584C4"/>
<path fill-rule="evenodd" clip-rule="evenodd" d="M48.6695 23.0233C44.902 12.1505 55.9142 0.494617 64.9731 0.14695C70.4012 2.97829 75.0618 10.4134 74.8288 20.5031C74.1175 32.9336 65.3209 43.6466 55.7483 53.5166C55.2139 41.4813 52.6591 33.8095 48.6695 23.0233Z" fill="#9BE400"/>
<path fill-rule="evenodd" clip-rule="evenodd" d="M27.3101 81.8975C25.7948 69.7609 30.7226 59.4078 35.6138 53.0949C37.9381 50.1306 39.7242 47.4262 41.0846 44.9352C43.654 46.0477 50.5608 49.6707 54.3661 55.553C53.8135 64.086 47.507 79.6151 27.3101 81.8975Z" fill="#3E7FCA"/>
<path fill-rule="evenodd" clip-rule="evenodd" d="M19.6788 35.8023C3.6045 31.307 -0.360686 17.1882 0.356708 7.69265C15.9661 1.36636 32.7651 7.84635 42.4646 21.3528C49.2652 30.8191 53.5232 42.9557 54.387 53.5479C49.7215 47.3911 43.8286 43.8242 36.3228 41.0307C31.1888 39.1216 26.4464 37.8566 19.6788 35.8023Z" fill="#E4B200"/>
</svg>
