<svg width="86" height="74" viewBox="0 0 86 74" fill="none" xmlns="http://www.w3.org/2000/svg">
<path fill-rule="evenodd" clip-rule="evenodd" d="M16.0344 27.3544C24.8299 27.0292 36.0782 26.6805 42.8137 26.6805C49.6471 26.6805 61.1255 27.0394 69.9751 27.3686L69.9347 27.3544C69.9347 27.3544 69.892 27.3123 69.892 27.2702C65.7918 16.8665 55.2851 9.45327 42.9845 9.45327C30.6413 9.45327 20.1346 16.9086 16.0344 27.3544ZM79.3027 27.7598C80.9869 27.955 81.8407 28.0794 82.577 28.2811C85.0115 28.8286 85.524 29.6711 85.524 31.398V43.0653C85.524 44.7501 83.6874 45.9295 82.4061 46.1401C81.2037 46.3773 80.415 46.4661 79.2281 46.5805C74.8501 61.839 60.2591 73.055 42.9419 73.055C25.6178 73.055 11.0646 61.872 6.65055 46.6042L6.63813 46.6034C5.31411 46.4771 4.50261 46.3928 3.2213 46.1401C1.94 45.9295 0.103455 44.7501 0.103455 43.0653V31.398C0.103455 29.6711 0.615978 28.8286 3.05046 28.2811C3.81925 28.0705 4.71616 27.9441 6.55271 27.7335L6.55265 27.7335C10.8237 12.3174 25.516 0.944954 42.9418 0.944954C60.3249 0.944954 74.9745 12.2332 79.2882 27.6493C79.2882 27.708 79.2882 27.7258 79.3027 27.7598ZM73.2754 46.9338L73.283 46.9334C73.1291 47.3646 72.9654 47.7915 72.7923 48.2138C72.963 47.7916 73.1241 47.3649 73.2754 46.9338ZM42.8137 47.9092C51.8259 47.9092 61.9567 47.5097 69.7197 47.1199C69.7146 47.1428 69.6965 47.1785 69.6784 47.2142C69.657 47.2563 69.6357 47.2984 69.6357 47.3195C65.3646 57.4283 55.0288 64.5888 42.9417 64.5888C30.7693 64.5888 20.3907 57.3441 16.1624 47.151C16.1354 47.1441 16.1081 47.1369 16.0805 47.1295C23.8181 47.5163 33.8756 47.9092 42.8137 47.9092ZM59.4296 32.5814C59.6651 32.7308 59.7774 33.0745 60.1541 33.8831C60.3249 34.2762 60.9597 35.6342 61.6497 37.1106C62.5125 38.9565 63.4617 40.9873 63.699 41.549C63.8115 41.8078 63.7594 41.807 63.5138 41.8029C63.4797 41.8023 63.4418 41.8017 63.4001 41.8017H61.051C60.9229 41.8017 60.7947 41.7596 60.752 41.6332C60.752 41.5947 60.5021 41.0281 60.1328 40.1908C60.0982 40.1123 60.0626 40.0314 60.0259 39.9484H54.5163C54.0892 40.9172 53.7475 41.6332 53.7475 41.6332C53.7048 41.7175 53.6194 41.8017 53.4486 41.8017H51.1849C50.8432 41.8017 50.7151 41.8017 50.9287 41.3805L50.9714 41.2963C52.0391 38.9796 54.559 33.4197 54.559 33.4197C54.8023 32.92 54.8723 32.6764 55.0341 32.5584C55.2131 32.4277 55.5045 32.451 56.2674 32.451C56.6518 32.4089 56.7372 32.4089 57.207 32.4089H57.2071H57.2071C57.6769 32.4089 58.0186 32.4089 58.1467 32.451C58.8866 32.4712 59.2111 32.4427 59.4296 32.5814ZM56.78 34.6834C56.78 34.7255 56.0966 36.3261 55.3705 37.9687H59.1717C58.8625 37.1945 58.5267 36.4203 58.2604 35.8062C58.0486 35.3178 57.8807 34.9307 57.805 34.7255C57.7623 34.5991 57.6769 34.557 57.5915 34.557C57.5488 34.5149 57.4206 34.5149 57.3352 34.5149C57.2071 34.5149 57.0789 34.5149 57.0362 34.557C56.9081 34.557 56.8227 34.5991 56.78 34.6834ZM25.4306 32.5773C25.4306 32.4089 25.3879 32.3246 25.1744 32.3246H22.868C22.6972 32.3246 22.6544 32.4089 22.6544 32.5773V41.4226C22.6544 41.6753 22.6972 41.7175 22.9534 41.7175H25.1316C25.3879 41.7175 25.4306 41.6332 25.4306 41.4226V32.5773ZM20.8179 32.7037C20.8179 32.4931 20.7752 32.4089 20.5189 32.4089H18.6397C18.3834 32.4089 18.3407 32.4931 18.3407 32.7037V39.7378C18.3407 39.7378 14.5395 33.9673 14.0697 33.2091C13.5 32.4066 13.2792 32.4069 11.8562 32.4087C11.7855 32.4088 11.7119 32.4089 11.6352 32.4089H9.45697C9.20071 32.4089 9.158 32.4931 9.158 32.7037V41.5069C9.158 41.7596 9.20071 41.8017 9.45697 41.8017H11.3362C11.5925 41.8017 11.6352 41.7596 11.6352 41.5069V34.5991C11.6352 34.5991 14.7958 39.3587 15.8208 40.9593C16.3333 41.8017 16.4615 41.8017 17.9563 41.8017H20.5189C20.7752 41.8017 20.8179 41.7596 20.8179 41.5069V32.7037ZM76.7684 32.7037C76.7684 32.4931 76.7257 32.4089 76.4694 32.4089H74.5901C74.3339 32.4089 74.2912 32.4931 74.2912 32.7037V39.7378C74.2912 39.7378 70.5327 33.9673 70.0201 33.2091C69.4505 32.4066 69.2297 32.4069 67.8066 32.4087C67.736 32.4088 67.6624 32.4089 67.5857 32.4089H65.4074C65.1512 32.4089 65.1085 32.4931 65.1085 32.7037V41.5069C65.1085 41.7596 65.1512 41.8017 65.4074 41.8017H67.2867C67.543 41.8017 67.5857 41.7596 67.5857 41.5069V34.5991C67.5857 34.5991 70.7035 39.3587 71.7713 40.9593C72.2838 41.8017 72.4119 41.8017 73.9068 41.8017H76.4694C76.7257 41.8017 76.7684 41.7596 76.7684 41.5069V32.7037ZM38.0302 38.0109C37.6885 36.4524 36.4499 36.1576 34.7842 35.9891C34.5171 35.9651 34.1258 35.9344 33.6848 35.8997C32.5744 35.8125 31.1488 35.7005 30.5986 35.61C30.2996 35.5679 30.1715 35.3994 30.1715 35.1888V34.9782V34.8097C30.2142 34.5149 30.3423 34.3885 30.6413 34.3885H37.3468C37.603 34.4306 37.6885 34.3464 37.6885 34.1358V32.6195C37.6885 32.4089 37.603 32.3667 37.3468 32.3667H30.5131C28.7193 32.3667 27.737 32.9985 27.438 34.3043C27.3953 34.5991 27.3953 34.9782 27.3953 35.2309C27.3953 35.5258 27.3953 35.8627 27.438 36.1155C27.5234 36.8736 28.0359 37.716 30.086 37.9266C31.6663 38.0951 34.0154 38.3057 34.8269 38.3478C35.192 38.3878 35.2488 38.6178 35.2902 38.7852C35.2924 38.794 35.2945 38.8027 35.2967 38.8112V39.0639V39.443C35.254 39.6536 35.1686 39.7378 34.8696 39.7378H27.737C27.4807 39.7378 27.438 39.7799 27.438 40.0326V41.5069C27.438 41.7596 27.4807 41.8017 27.737 41.8017H34.7842C36.578 41.8017 37.6885 41.5069 37.9874 40.0326C38.0729 39.6957 38.0729 39.3166 38.0729 39.0218C38.0729 38.7174 38.0544 38.4312 38.0418 38.2348C38.0352 38.1323 38.0302 38.0542 38.0302 38.0109ZM50.1172 38.0109C49.7755 36.4524 48.5369 36.1576 46.8712 35.9891C46.5958 35.9632 46.1713 35.9294 45.6931 35.8913C44.614 35.8053 43.261 35.6976 42.7283 35.61C42.3866 35.5679 42.3012 35.3994 42.3012 35.1888V34.9782V34.8097C42.3439 34.5149 42.472 34.3885 42.771 34.3885H49.4765C49.7328 34.4306 49.8182 34.3464 49.8182 34.1358V32.6195C49.8182 32.4089 49.7328 32.3667 49.4765 32.3667H42.6429C40.849 32.3667 39.8667 32.9985 39.5677 34.3043C39.525 34.5991 39.525 34.9781 39.525 35.2309V35.2309V35.231C39.525 35.5258 39.525 35.8628 39.5677 36.1155C39.6959 36.8736 40.1657 37.716 42.2158 37.9266C43.796 38.0951 46.1451 38.3057 46.9566 38.3478C47.2983 38.3899 47.3837 38.6427 47.4264 38.8112V39.0639V39.443C47.3837 39.6536 47.2983 39.7378 46.9993 39.7378H39.8667C39.6104 39.7378 39.5677 39.7799 39.5677 40.0326V41.5069C39.5677 41.7596 39.6104 41.8017 39.8667 41.8017H46.8712C48.665 41.8017 49.7755 41.5069 50.0744 40.0326C50.1599 39.6957 50.1599 39.3166 50.1599 39.0218C50.1599 38.7174 50.1414 38.4312 50.1288 38.2348C50.1222 38.1323 50.1172 38.0542 50.1172 38.0109Z" fill="#141414"/>
</svg>
