<svg width="116" height="85" viewBox="0 0 116 85" fill="none" xmlns="http://www.w3.org/2000/svg">
<path fill-rule="evenodd" clip-rule="evenodd" d="M98.397 0.293579C102.177 1.44657 105.894 2.1678 109.294 3.82631C111.427 4.86664 113.224 6.27054 114.37 8.35508C115.478 10.3687 115.384 12.3369 114.065 14.2332C113.022 15.7319 111.584 16.7899 109.991 17.6768C106.616 19.5556 103.228 21.4133 100.052 23.6066C98.783 24.4835 97.5216 25.3813 96.5806 26.6155C96.3699 26.8918 96.2054 26.8575 95.9386 26.744C93.1414 25.5546 90.2734 24.5481 87.3603 23.6385C87.4255 23.2756 87.7616 23.3392 87.9682 23.2619C93.5336 21.1823 99.0824 19.0686 104.277 16.181C105.305 15.6098 106.282 14.9686 107.186 14.2212C109.827 12.0358 108.22 8.99531 106.055 8.05938C105.555 7.84316 105.089 7.83693 104.598 8.18467C93.3812 16.1211 80.7597 20.6392 67.129 22.5906C50.8737 24.9176 34.8289 23.8857 19.0518 19.3655C13.8148 17.8653 8.75841 15.9257 4.16481 12.9857C2.94779 12.2067 1.80808 11.3319 0.831116 10.2596C2.75427 11.3769 4.71097 12.4206 6.74775 13.3176C12.6699 15.9257 18.8935 17.5329 25.2958 18.4774C43.2605 21.1274 60.9817 19.8791 78.4466 15.1019C84.5328 13.4372 90.3905 11.1772 95.891 8.10098C96.6665 7.66736 97.4259 7.21068 98.0809 6.61103C99.8746 4.96818 100.144 3.1396 98.9011 1.07812C98.7707 0.862076 98.6286 0.653099 98.397 0.293579Z" fill="white"/>
<path fill-rule="evenodd" clip-rule="evenodd" d="M0.831116 49.2685C31.5364 21.2203 82.679 20.6181 114.113 48.0502C113.944 48.1758 113.848 48.0136 113.751 47.9443C101.412 39.0951 87.6444 33.9342 72.5212 32.3394C56.4995 30.65 41.1177 33.0321 26.4379 39.6722C20.9813 42.1403 15.8627 45.1778 11.0857 48.7741C10.6279 49.1188 10.1775 49.2856 9.59399 49.2803C6.72221 49.2543 3.85027 49.2685 0.831116 49.2685Z" fill="white"/>
<path fill-rule="evenodd" clip-rule="evenodd" d="M69.2086 85C66.2743 84.3868 63.7695 83.0162 61.4251 81.3739C56.7335 78.0872 53.2404 73.866 50.625 68.9887C50.3102 68.4016 49.9834 68.1645 49.2566 68.1873C47.0666 68.2561 47.0518 68.2221 47.1022 70.3144C47.151 72.3361 47.2128 74.358 47.3112 76.3778C47.3373 76.9121 47.1932 77.0884 46.6078 77.0652C45.5305 77.0223 44.4484 77.0194 43.3714 77.0653C42.7639 77.0911 42.6551 76.8809 42.6814 76.3635C42.9146 71.7761 42.9918 67.1855 42.8675 62.5936C42.8269 61.0912 42.7514 59.5895 42.6914 58.0875C42.6796 57.7952 42.5681 57.4691 43.1063 57.4819C46.8063 57.5699 50.5205 57.2379 54.2049 57.6841C56.4369 57.9545 58.3234 58.8562 58.9305 61.1181C59.7782 64.2759 58.0567 67.0746 55.362 67.6963C54.8984 67.8033 55.0171 67.9982 55.162 68.2718C57.2836 72.2787 59.8426 76.0128 62.9992 79.3789C64.9059 81.4124 66.9956 83.2655 69.2086 85ZM47.1961 60.5385C47.2077 61.3578 47.0722 64.5815 47.0729 65.374C47.0732 65.6201 47.0371 65.884 47.4459 65.8721C49.0725 65.8243 50.7198 66.0328 52.3135 65.5661C53.9716 65.0805 54.6455 64.017 54.4358 62.2674C54.2705 60.8899 53.2731 60.0285 51.6312 59.9604C50.3508 59.9072 49.0652 59.9745 47.7826 59.9507C47.2942 59.9415 47.1907 60.1505 47.1961 60.5385Z" fill="white"/>
<path fill-rule="evenodd" clip-rule="evenodd" d="M38.5918 67.101C38.5545 68.982 38.4106 70.7411 37.889 72.4501C36.9282 75.5981 34.8497 77.27 31.7928 77.6856C29.9264 77.9395 28.068 77.9278 26.2189 77.5285C23.565 76.955 21.8014 75.2834 21.0027 72.5766C19.9875 69.1349 19.9828 65.6377 20.8679 62.1651C21.6738 59.003 23.6528 57.1602 26.7284 56.6563C28.6719 56.338 30.6177 56.3318 32.5459 56.7345C35.4752 57.3462 37.2317 59.2916 38.0245 62.2797C38.4517 63.8902 38.5656 65.5422 38.5918 67.101ZM34.3307 67.2252C34.3224 65.5356 34.283 63.8485 33.7832 62.22C33.3023 60.6529 32.3488 59.5818 30.7706 59.3357C27.0412 58.7536 25.4744 60.1609 24.9246 62.7647C24.3044 65.7028 24.2904 68.6755 24.9552 71.6077C25.5238 74.1146 26.9244 75.1085 29.567 75.0764C32.0147 75.0465 33.3911 73.9192 33.9473 71.4842C34.2669 70.0843 34.3307 68.6578 34.3307 67.2252Z" fill="white"/>
<path fill-rule="evenodd" clip-rule="evenodd" d="M14.2194 71.7317C14.5006 67.255 14.4939 62.8564 14.2161 58.4635C14.1657 57.6654 14.3782 57.4847 15.1582 57.5066C17.1805 57.5638 17.1834 57.5245 17.0895 59.511C16.8307 64.9858 16.8761 70.4602 17.1558 75.9321C17.1909 76.6176 17.0151 76.81 16.3364 76.7675C15.2866 76.7019 14.0876 77.0357 13.2176 76.6334C12.3423 76.2285 12.016 74.9845 11.4558 74.105C9.07389 70.3646 6.67103 66.638 4.1383 62.996C4.02239 62.8293 3.89918 62.6675 3.58701 62.5429C3.58701 64.2992 3.55974 66.0559 3.59334 67.8114C3.64594 70.5487 3.71623 73.2862 3.83359 76.0211C3.8607 76.6514 3.68425 76.8326 3.08751 76.7597C2.37405 76.6727 1.41092 77.074 1.00606 76.5876C0.664838 76.1779 0.922624 75.2581 0.952656 74.5655C1.18609 69.1711 1.19437 63.777 0.887398 58.386C0.84584 57.6592 1.03739 57.4234 1.75296 57.5169C2.17811 57.5722 2.63135 57.5978 3.04676 57.5139C4.55923 57.2083 5.3381 57.946 6.07721 59.1812C8.43608 63.1234 10.9328 66.9838 13.5468 70.7666C13.7699 71.0891 13.9952 71.41 14.2194 71.7317Z" fill="white"/>
<path fill-rule="evenodd" clip-rule="evenodd" d="M114.657 60.5725C112.697 59.6547 110.749 59.2205 108.718 59.277C108.159 59.2925 107.594 59.3437 107.045 59.4581C105.334 59.8153 104.109 60.8444 103.595 62.6674C102.833 65.3657 102.701 68.1089 103.453 70.8324C104.14 73.3255 105.828 74.6778 108.241 74.7946C109.015 74.8321 109.791 74.8461 110.566 74.8416C111.099 74.8384 111.356 74.6021 111.338 73.9397C111.285 71.9819 111.252 70.0235 110.963 68.0868C110.886 67.5668 110.921 67.3597 111.474 67.3813C112.542 67.423 113.612 67.3978 114.682 67.3912C114.993 67.3893 115.176 67.4299 115.125 67.8672C114.786 70.7904 114.841 73.7288 114.903 76.6642C114.916 77.2613 114.778 77.4628 114.203 77.4362C112.729 77.3676 111.277 77.7036 109.81 77.7932C108.366 77.8813 106.923 77.9154 105.492 77.6314C102.382 77.0138 100.353 75.0596 99.449 71.8161C98.6241 68.8555 98.5986 65.8414 99.3313 62.8612C100.3 58.92 102.743 56.8926 106.894 56.5137C109.301 56.2938 111.702 56.5215 114.101 56.7481C114.479 56.7837 114.679 56.884 114.666 57.3567C114.636 58.3902 114.657 59.4253 114.657 60.5725Z" fill="white"/>
<path fill-rule="evenodd" clip-rule="evenodd" d="M82.7153 67.1032C82.7566 64.1265 82.6433 61.1529 82.4871 58.181C82.4579 57.6258 82.5776 57.4416 83.2095 57.4451C87.5946 57.4705 91.98 57.4698 96.3653 57.445C96.9772 57.4416 97.1356 57.6057 97.1308 58.1679C97.1161 59.9012 97.142 59.9044 95.2997 59.8908C92.7898 59.8724 90.2793 59.8716 87.7705 59.8121C87.114 59.7963 86.9311 59.9753 86.9368 60.5746C86.948 61.7636 86.9042 62.9551 86.8232 64.1421C86.7845 64.7113 87.0239 64.8027 87.5598 64.8002C90.0986 64.7885 92.6385 64.8096 95.1721 64.6407C95.8562 64.5951 96.1254 64.7178 96.1027 65.4361C96.0506 67.0759 96.0935 67.0879 94.3457 67.0337C92.0962 66.9638 89.8472 66.9237 87.5961 66.9463C87.0322 66.9519 86.781 67.0482 86.8068 67.6544C86.8937 69.7079 86.9387 71.7637 86.9543 73.819C86.9588 74.3981 87.1769 74.5265 87.7615 74.514C90.8187 74.4481 93.8771 74.4442 96.9338 74.3653C97.6373 74.3473 97.7959 74.5456 97.7836 75.1692C97.7507 76.8192 97.7812 76.82 96.0321 76.82C91.7912 76.8202 87.5501 76.8048 83.3094 76.8354C82.6173 76.8403 82.4461 76.665 82.4798 76.0254C82.6367 73.0537 82.7476 70.0797 82.7153 67.1032Z" fill="white"/>
<path fill-rule="evenodd" clip-rule="evenodd" d="M69.9736 73.1446C70.9583 70.2092 71.9564 67.2779 72.923 64.337C73.5886 62.3122 74.2244 60.2778 74.8413 58.2389C74.986 57.7606 75.1741 57.5133 75.7543 57.5588C76.4573 57.6139 77.1697 57.5955 77.8762 57.5655C78.4033 57.5431 78.4925 57.668 78.3012 58.1506C77.3354 60.5877 76.3967 63.0346 75.467 65.4847C74.1252 69.0214 72.8306 72.5743 71.7278 76.1861C71.5706 76.7005 71.3222 76.8509 70.7821 76.8281C69.7931 76.7867 68.7981 76.7744 67.8108 76.8317C67.1501 76.8701 66.8896 76.6234 66.6893 76.0525C64.6966 70.3731 62.6493 64.7116 60.4001 59.1179C59.7788 57.5726 59.7813 57.5538 61.5314 57.5784C62.5702 57.5931 63.8694 57.1776 64.5738 57.7428C65.2309 58.2702 65.2736 59.4931 65.5755 60.4131C66.9705 64.6653 68.3618 68.9188 69.7542 73.1718C69.8273 73.1626 69.9005 73.1538 69.9736 73.1446Z" fill="white"/>
</svg>
