<svg width="120" height="89" viewBox="0 0 120 89" fill="none" xmlns="http://www.w3.org/2000/svg">
<path fill-rule="evenodd" clip-rule="evenodd" d="M102.428 0C106.397 1.21045 110.299 1.96762 113.868 3.70879C116.107 4.80097 117.994 6.27483 119.197 8.46326C120.36 10.5773 120.262 12.6435 118.877 14.6343C117.782 16.2077 116.272 17.3184 114.6 18.2496C111.057 20.222 107.5 22.1723 104.166 24.4749C102.833 25.3954 101.509 26.338 100.521 27.6337C100.3 27.9238 100.127 27.8878 99.8472 27.7686C96.9106 26.52 93.8997 25.4633 90.8415 24.5083C90.9099 24.1273 91.2627 24.1942 91.4797 24.113C97.3224 21.9297 103.148 19.7107 108.602 16.6792C109.681 16.0795 110.707 15.4063 111.655 14.6218C114.428 12.3274 112.74 9.1354 110.468 8.15282C109.943 7.92583 109.454 7.91929 108.938 8.28435C97.1625 16.6163 83.9119 21.3596 69.6019 23.4082C52.5365 25.8512 35.6921 24.7678 19.1287 20.0224C13.6308 18.4474 8.32236 16.4112 3.49983 13.3247C2.22216 12.5069 1.02566 11.5885 0 10.4627C2.01899 11.6357 4.07321 12.7314 6.21149 13.6731C12.4288 16.4112 18.9626 18.0984 25.6839 19.09C44.5439 21.8721 63.1482 20.5616 81.4835 15.5463C87.8731 13.7986 94.0227 11.426 99.7973 8.19649C100.611 7.74126 101.409 7.26182 102.096 6.63229C103.979 4.90757 104.263 2.98785 102.957 0.823644C102.821 0.596828 102.671 0.377437 102.428 0Z" fill="#FE663D"/>
<path fill-rule="evenodd" clip-rule="evenodd" d="M0 51.416C32.2355 21.97 85.9269 21.3378 118.928 50.137C118.75 50.2689 118.649 50.0986 118.548 50.0259C105.594 40.7357 91.1397 35.3175 75.2629 33.6433C58.4426 31.8697 42.2944 34.3705 26.8829 41.3415C21.1544 43.9326 15.7807 47.1215 10.7656 50.897C10.285 51.2589 9.81212 51.434 9.19958 51.4284C6.18469 51.4011 3.16961 51.416 0 51.416Z" fill="#FE663D"/>
<path fill-rule="evenodd" clip-rule="evenodd" d="M71.7866 88.9274C68.7061 88.2836 66.0765 86.8447 63.6153 85.1205C58.6899 81.67 55.0227 77.2385 52.2769 72.1181C51.9465 71.5017 51.6033 71.2529 50.8404 71.2768C48.5412 71.349 48.5256 71.3133 48.5785 73.5099C48.6298 75.6324 48.6947 77.755 48.798 79.8754C48.8254 80.4364 48.6741 80.6215 48.0595 80.5971C46.9286 80.5521 45.7925 80.549 44.6618 80.5972C44.024 80.6243 43.9099 80.4037 43.9374 79.8605C44.1823 75.0444 44.2633 70.225 44.1328 65.4043C44.0902 63.8271 44.011 62.2505 43.9479 60.6737C43.9356 60.3667 43.8185 60.0244 44.3835 60.0378C48.2679 60.1303 52.1672 59.7817 56.0352 60.2502C58.3785 60.534 60.3589 61.4807 60.9963 63.8553C61.8863 67.1705 60.079 70.1086 57.25 70.7613C56.7633 70.8736 56.8879 71.0782 57.0401 71.3655C59.2673 75.5721 61.9539 79.4922 65.2678 83.0261C67.2696 85.161 69.4634 87.1064 71.7866 88.9274ZM48.6772 63.2468C48.6893 64.1069 48.547 67.4912 48.5478 68.3233C48.5481 68.5816 48.5103 68.8587 48.9394 68.8461C50.6471 68.796 52.3765 69.0149 54.0496 68.5249C55.7903 68.0152 56.4978 66.8986 56.2776 65.0619C56.1041 63.6157 55.057 62.7113 53.3333 62.6399C51.989 62.5841 50.6394 62.6547 49.2929 62.6297C48.7801 62.6201 48.6715 62.8395 48.6772 63.2468Z" fill="#FE663D"/>
<path fill-rule="evenodd" clip-rule="evenodd" d="M39.6449 70.1365C39.6058 72.1112 39.4547 73.9579 38.9071 75.7521C37.8984 79.057 35.7163 80.8123 32.5071 81.2486C30.5477 81.5151 28.5967 81.5028 26.6555 81.0836C23.8693 80.4815 22.0177 78.7266 21.1793 75.8849C20.1135 72.2717 20.1085 68.6002 21.0378 64.9545C21.8839 61.6349 23.9615 59.7003 27.1903 59.1712C29.2307 58.8371 31.2734 58.8306 33.2977 59.2533C36.3731 59.8955 38.2171 61.9379 39.0493 65.0749C39.4979 66.7656 39.6174 68.4999 39.6449 70.1365ZM35.1715 70.2668C35.1628 68.493 35.1215 66.7218 34.5967 65.0122C34.0918 63.367 33.0908 62.2425 31.434 61.9842C27.5187 61.373 25.8738 62.8504 25.2967 65.584C24.6456 68.6686 24.6309 71.7894 25.3288 74.8678C25.9257 77.4996 27.3961 78.5431 30.1704 78.5093C32.7401 78.4779 34.185 77.2944 34.769 74.738C35.1046 73.2684 35.1715 71.7708 35.1715 70.2668Z" fill="#FE663D"/>
<path fill-rule="evenodd" clip-rule="evenodd" d="M14.0555 74.9978C14.3507 70.298 14.3437 65.6802 14.0521 61.0684C13.9991 60.2305 14.2222 60.0408 15.0411 60.0638C17.1642 60.1239 17.1673 60.0826 17.0686 62.1681C16.7969 67.9157 16.8447 73.6629 17.1383 79.4075C17.1751 80.1272 16.9905 80.3292 16.278 80.2845C15.1759 80.2157 13.9171 80.5661 13.0038 80.1438C12.0849 79.7187 11.7423 78.4128 11.1542 77.4894C8.65357 73.5626 6.13095 69.6503 3.472 65.8267C3.35031 65.6517 3.22096 65.4819 2.89324 65.3511C2.89324 67.1949 2.86461 69.0391 2.89988 70.8821C2.9551 73.7558 3.02889 76.6298 3.15211 79.5009C3.18057 80.1627 2.99532 80.3529 2.36884 80.2764C1.61983 80.1851 0.608704 80.6064 0.183667 80.0957C-0.174564 79.6656 0.096069 78.6999 0.127597 77.9728C0.372667 72.3096 0.381359 66.6467 0.059087 60.987C0.0154584 60.224 0.216559 59.9765 0.967787 60.0746C1.41413 60.1327 1.88995 60.1596 2.32607 60.0714C3.91391 59.7506 4.7316 60.5251 5.50754 61.8219C7.98397 65.9605 10.6051 70.0132 13.3494 73.9846C13.5836 74.3232 13.8201 74.6601 14.0555 74.9978Z" fill="#FE663D"/>
<path fill-rule="evenodd" clip-rule="evenodd" d="M119.497 63.2826C117.44 62.319 115.394 61.8632 113.263 61.9225C112.676 61.9388 112.082 61.9926 111.507 62.1127C109.71 62.4876 108.424 63.5681 107.884 65.4819C107.085 68.3146 106.946 71.1946 107.735 74.0538C108.457 76.6712 110.229 78.0908 112.762 78.2135C113.575 78.2529 114.389 78.2676 115.203 78.2628C115.762 78.2594 116.032 78.0113 116.013 77.3159C115.958 75.2606 115.922 73.2045 115.62 71.1713C115.538 70.6255 115.575 70.4081 116.156 70.4308C117.277 70.4745 118.401 70.448 119.524 70.4411C119.85 70.4391 120.043 70.4817 119.989 70.9409C119.633 74.0097 119.691 77.0945 119.756 80.1763C119.769 80.8031 119.624 81.0147 119.021 80.9867C117.473 80.9147 115.949 81.2675 114.409 81.3615C112.893 81.454 111.378 81.4898 109.876 81.1916C106.611 80.5432 104.481 78.4917 103.532 75.0866C102.666 71.9783 102.639 68.814 103.408 65.6853C104.426 61.5478 106.99 59.4193 111.348 59.0215C113.875 58.7907 116.396 59.0297 118.914 59.2676C119.311 59.305 119.521 59.4102 119.507 59.9065C119.476 60.9916 119.497 62.0782 119.497 63.2826Z" fill="#FE663D"/>
<path fill-rule="evenodd" clip-rule="evenodd" d="M85.9623 70.1386C86.0057 67.0136 85.8867 63.8918 85.7228 60.7718C85.6921 60.1889 85.8178 59.9955 86.4811 59.9992C91.0848 60.0258 95.6888 60.0251 100.293 59.9991C100.935 59.9955 101.101 60.1678 101.096 60.758C101.081 62.5777 101.108 62.5811 99.1739 62.5668C96.5389 62.5475 93.9033 62.5467 91.2694 62.4841C90.5803 62.4676 90.3882 62.6555 90.3942 63.2846C90.406 64.533 90.36 65.7838 90.275 67.0299C90.2343 67.6275 90.4856 67.7235 91.0483 67.7209C93.7135 67.7086 96.3801 67.7308 99.0399 67.5534C99.7581 67.5055 100.041 67.6343 100.017 68.3885C99.9622 70.11 100.007 70.1226 98.1723 70.0657C95.8107 69.9923 93.4497 69.9502 91.0864 69.9739C90.4943 69.9798 90.2306 70.0809 90.2577 70.7173C90.349 72.8731 90.3962 75.0314 90.4126 77.1891C90.4173 77.7971 90.6463 77.9319 91.26 77.9187C94.4696 77.8496 97.6804 77.8455 100.889 77.7626C101.628 77.7437 101.794 77.952 101.782 78.6066C101.747 80.3389 101.779 80.3397 99.9428 80.3397C95.4905 80.3399 91.0381 80.3237 86.586 80.3559C85.8594 80.361 85.6797 80.177 85.7151 79.5055C85.8798 76.3857 85.9963 73.2635 85.9623 70.1386Z" fill="#FE663D"/>
<path fill-rule="evenodd" clip-rule="evenodd" d="M72.5905 76.4811C73.6242 73.3994 74.6721 70.322 75.6868 67.2346C76.3857 65.1088 77.0531 62.9731 77.7007 60.8325C77.8527 60.3304 78.0502 60.0708 78.6593 60.1185C79.3973 60.1765 80.1452 60.1571 80.8869 60.1256C81.4403 60.1021 81.534 60.2332 81.3331 60.7399C80.3191 63.2984 79.3337 65.8672 78.3577 68.4394C76.9489 72.1525 75.5898 75.8824 74.4321 79.6742C74.2671 80.2143 74.0063 80.3721 73.4393 80.3482C72.401 80.3047 71.3564 80.2918 70.3199 80.3519C69.6262 80.3922 69.3528 80.1333 69.1425 79.5339C67.0505 73.5715 64.9012 67.6279 62.5398 61.7554C61.8876 60.1331 61.8902 60.1133 63.7276 60.1392C64.8181 60.1546 66.182 59.7183 66.9215 60.3118C67.6114 60.8654 67.6562 62.1493 67.9732 63.1152C69.4377 67.5793 70.8983 72.0447 72.3602 76.5097C72.4369 76.5001 72.5138 76.4907 72.5905 76.4811Z" fill="#FE663D"/>
</svg>
