<svg width="115" height="85" viewBox="0 0 115 85" fill="none" xmlns="http://www.w3.org/2000/svg">
<path fill-rule="evenodd" clip-rule="evenodd" d="M97.5659 0C101.346 1.15299 105.063 1.87422 108.463 3.53273C110.596 4.57306 112.393 5.97696 113.539 8.0615C114.647 10.0752 114.553 12.0433 113.234 13.9396C112.191 15.4383 110.752 16.4963 109.159 17.3833C105.785 19.262 102.397 21.1197 99.2213 23.3131C97.9519 24.1899 96.6904 25.0878 95.7494 26.3219C95.5388 26.5983 95.3743 26.5639 95.1075 26.4504C92.3102 25.261 89.4423 24.2546 86.5292 23.3449C86.5944 22.982 86.9304 23.0457 87.1371 22.9684C92.7025 20.8887 98.2513 18.775 103.446 15.8874C104.474 15.3162 105.451 14.675 106.354 13.9277C108.996 11.7422 107.388 8.70173 105.224 7.7658C104.724 7.54959 104.258 7.54336 103.767 7.89109C92.5501 15.8275 79.9286 20.3456 66.2979 22.297C50.0426 24.624 33.9978 23.5921 18.2207 19.0719C12.9837 17.5717 7.92729 15.6321 3.33369 12.6922C2.11668 11.9132 0.976968 11.0384 0 9.96603C1.92315 11.0833 3.87985 12.127 5.91663 13.0241C11.8388 15.6321 18.0624 17.2393 24.4647 18.1838C42.4294 20.8338 60.1506 19.5855 77.6154 14.8084C83.7017 13.1436 89.5594 10.8836 95.0599 7.8074C95.8354 7.37378 96.5948 6.9171 97.2497 6.31745C99.0435 4.6746 99.3133 2.84602 98.07 0.784545C97.9396 0.568496 97.7975 0.35952 97.5659 0Z" fill="#141414"/>
<path fill-rule="evenodd" clip-rule="evenodd" d="M-1.52588e-05 48.9749C30.7052 20.9267 81.8479 20.3246 113.282 47.7567C113.113 47.8822 113.017 47.72 112.92 47.6508C100.581 38.8015 86.8133 33.6406 71.6901 32.0458C55.6683 30.3564 40.2866 32.7385 25.6068 39.3786C20.1502 41.8467 15.0315 44.8842 10.2546 48.4805C9.79674 48.8252 9.34632 48.992 8.76286 48.9867C5.89108 48.9607 3.01914 48.9749 -1.52588e-05 48.9749Z" fill="#141414"/>
<path fill-rule="evenodd" clip-rule="evenodd" d="M68.3774 84.7064C65.4432 84.0932 62.9384 82.7226 60.594 81.0803C55.9024 77.7936 52.4093 73.5725 49.7939 68.6951C49.4791 68.108 49.1522 67.8709 48.4255 67.8938C46.2355 67.9625 46.2206 67.9285 46.2711 70.0208C46.3199 72.0425 46.3817 74.0644 46.4801 76.0842C46.5062 76.6185 46.3621 76.7949 45.7767 76.7716C44.6994 76.7288 43.6173 76.7258 42.5402 76.7717C41.9327 76.7975 41.824 76.5873 41.8503 76.0699C42.0835 71.4825 42.1607 66.8919 42.0364 62.3C41.9958 60.7977 41.9203 59.296 41.8603 57.7939C41.8485 57.5016 41.737 57.1755 42.2752 57.1883C45.9752 57.2764 49.6894 56.9443 53.3738 57.3905C55.6058 57.6609 57.4922 58.5627 58.0994 60.8246C58.9471 63.9823 57.2256 66.781 54.5309 67.4028C54.0673 67.5097 54.186 67.7046 54.3309 67.9782C56.4525 71.9851 59.0115 75.7192 62.1681 79.0853C64.0748 81.1189 66.1645 82.972 68.3774 84.7064ZM46.365 60.2449C46.3765 61.0642 46.241 64.2879 46.2417 65.0804C46.2421 65.3265 46.206 65.5904 46.6148 65.5785C48.2414 65.5307 49.8887 65.7392 51.4824 65.2725C53.1405 64.7869 53.8144 63.7234 53.6046 61.9738C53.4394 60.5963 52.442 59.7349 50.8001 59.6668C49.5196 59.6137 48.2341 59.6809 46.9515 59.6571C46.463 59.6479 46.3596 59.8569 46.365 60.2449Z" fill="#141414"/>
<path fill-rule="evenodd" clip-rule="evenodd" d="M37.7607 66.8074C37.7234 68.6884 37.5795 70.4475 37.0578 72.1565C36.0971 75.3045 34.0186 76.9765 30.9617 77.392C29.0953 77.6459 27.2368 77.6342 25.3878 77.235C22.7339 76.6614 20.9702 74.9898 20.1716 72.283C19.1564 68.8413 19.1516 65.3441 20.0368 61.8715C20.8427 58.7094 22.8217 56.8667 25.8972 56.3627C27.8408 56.0444 29.7865 56.0382 31.7148 56.4409C34.6441 57.0526 36.4006 58.998 37.1933 61.9861C37.6206 63.5966 37.7345 65.2486 37.7607 66.8074ZM33.4996 66.9316C33.4913 65.242 33.4519 63.5549 32.9521 61.9264C32.4711 60.3593 31.5177 59.2882 29.9395 59.0421C26.2101 58.46 24.6433 59.8673 24.0935 62.4711C23.4733 65.4092 23.4593 68.3819 24.1241 71.3141C24.6927 73.821 26.0933 74.815 28.7359 74.7828C31.1836 74.7529 32.5599 73.6256 33.1162 71.1906C33.4358 69.7907 33.4996 68.3642 33.4996 66.9316Z" fill="#141414"/>
<path fill-rule="evenodd" clip-rule="evenodd" d="M13.3883 71.4381C13.6694 66.9615 13.6628 62.5628 13.385 58.1699C13.3345 57.3718 13.547 57.1911 14.327 57.213C16.3494 57.2703 16.3523 57.2309 16.2583 59.2174C15.9996 64.6922 16.045 70.1666 16.3247 75.6385C16.3598 76.324 16.184 76.5164 15.5053 76.4739C14.4554 76.4083 13.2564 76.7421 12.3865 76.3398C11.5112 75.9349 11.1849 74.691 10.6247 73.8114C8.24276 70.071 5.8399 66.3445 3.30716 62.7024C3.19126 62.5357 3.06805 62.3739 2.75588 62.2493C2.75588 64.0056 2.72861 65.7623 2.76221 67.5178C2.81481 70.2551 2.8851 72.9927 3.00246 75.7275C3.02957 76.3578 2.85312 76.539 2.25638 76.4662C1.54292 76.3791 0.579793 76.7805 0.174933 76.294C-0.166293 75.8843 0.0914933 74.9645 0.121525 74.2719C0.354961 68.8775 0.36324 63.4834 0.0562668 58.0924C0.0147094 57.3657 0.206263 57.1299 0.921831 57.2234C1.34698 57.2786 1.80022 57.3043 2.21563 57.2203C3.7281 56.9147 4.50697 57.6524 5.24608 58.8877C7.60495 62.8299 10.1016 66.6902 12.7157 70.473C12.9388 70.7955 13.1641 71.1164 13.3883 71.4381Z" fill="#141414"/>
<path fill-rule="evenodd" clip-rule="evenodd" d="M113.825 60.279C111.865 59.3611 109.917 58.9269 107.887 58.9834C107.328 58.999 106.763 59.0501 106.214 59.1646C104.503 59.5217 103.278 60.5509 102.764 62.3738C102.002 65.0721 101.87 67.8153 102.622 70.5388C103.309 73.0319 104.997 74.3842 107.41 74.501C108.184 74.5386 108.96 74.5526 109.735 74.5481C110.267 74.5448 110.524 74.3085 110.507 73.6461C110.454 71.6883 110.42 69.7299 110.132 67.7932C110.055 67.2732 110.09 67.0661 110.643 67.0878C111.711 67.1294 112.781 67.1042 113.851 67.0976C114.161 67.0957 114.345 67.1363 114.294 67.5737C113.954 70.4968 114.01 73.4352 114.072 76.3707C114.084 76.9677 113.947 77.1693 113.372 77.1426C111.898 77.074 110.445 77.41 108.978 77.4996C107.535 77.5877 106.092 77.6218 104.661 77.3378C101.551 76.7202 99.5217 74.766 98.6178 71.5226C97.793 68.5619 97.7675 65.5478 98.5002 62.5676C99.4694 58.6265 101.912 56.599 106.063 56.2201C108.47 56.0002 110.871 56.2279 113.27 56.4545C113.648 56.4901 113.848 56.5904 113.835 57.0631C113.805 58.0966 113.825 59.1317 113.825 60.279Z" fill="#141414"/>
<path fill-rule="evenodd" clip-rule="evenodd" d="M81.8841 66.8096C81.9255 63.8329 81.8121 60.8593 81.656 57.8874C81.6267 57.3322 81.7465 57.148 82.3783 57.1516C86.7635 57.1769 91.1489 57.1762 95.5342 57.1514C96.1461 57.148 96.3045 57.3121 96.2997 57.8743C96.285 59.6076 96.3109 59.6108 94.4686 59.5972C91.9587 59.5789 89.4482 59.578 86.9393 59.5185C86.2829 59.5027 86.0999 59.6818 86.1057 60.281C86.1169 61.47 86.0731 62.6615 85.9921 63.8485C85.9533 64.4177 86.1927 64.5091 86.7287 64.5066C89.2674 64.495 91.8074 64.5161 94.341 64.3471C95.0251 64.3015 95.2943 64.4242 95.2716 65.1426C95.2195 66.7824 95.2624 66.7944 93.5146 66.7402C91.2651 66.6702 89.0161 66.6301 86.765 66.6527C86.201 66.6584 85.9499 66.7546 85.9757 67.3608C86.0626 69.4143 86.1076 71.4701 86.1231 73.5254C86.1276 74.1045 86.3458 74.2329 86.9303 74.2204C89.9875 74.1545 93.046 74.1506 96.1027 74.0717C96.8062 74.0537 96.9647 74.252 96.9524 74.8756C96.9196 76.5256 96.95 76.5264 95.201 76.5264C90.9601 76.5266 86.719 76.5112 82.4782 76.5419C81.7862 76.5467 81.615 76.3714 81.6487 75.7318C81.8055 72.7601 81.9165 69.7862 81.8841 66.8096Z" fill="#141414"/>
<path fill-rule="evenodd" clip-rule="evenodd" d="M69.1425 72.851C70.1272 69.9156 71.1253 66.9843 72.0919 64.0435C72.7575 62.0186 73.3933 59.9842 74.0102 57.9453C74.1549 57.467 74.343 57.2197 74.9232 57.2652C75.6262 57.3203 76.3386 57.302 77.045 57.2719C77.5722 57.2495 77.6614 57.3744 77.4701 57.8571C76.5042 60.2941 75.5656 62.741 74.6359 65.1911C73.2941 68.7278 71.9994 72.2807 70.8966 75.8925C70.7395 76.4069 70.4911 76.5573 69.951 76.5345C68.962 76.4931 67.9669 76.4808 66.9797 76.5381C66.3189 76.5765 66.0585 76.3298 65.8582 75.7589C63.8655 70.0795 61.8182 64.4181 59.5689 58.8243C58.9476 57.279 58.9502 57.2602 60.7003 57.2849C61.739 57.2995 63.0382 56.884 63.7426 57.4492C64.3998 57.9766 64.4424 59.1995 64.7443 60.1195C66.1394 64.3718 67.5306 68.6252 68.9231 72.8783C68.9962 72.8691 69.0694 72.8602 69.1425 72.851Z" fill="#141414"/>
</svg>
