<svg width="17" height="18" viewBox="0 0 17 18" fill="none" xmlns="http://www.w3.org/2000/svg">
<path d="M7.04752 13.1784L5.04433 15.1816C4.21385 16.0121 2.86895 16.0121 2.03917 15.1817C1.20922 14.3518 1.20922 13.0068 2.039 12.177L6.04608 8.16989C6.87586 7.34007 8.2209 7.34007 9.05068 8.16989C9.3273 8.44651 9.77581 8.44651 10.0524 8.16989C10.329 7.89328 10.329 7.44477 10.0524 7.16815C8.66938 5.7851 6.42739 5.7851 5.04433 7.16815L1.03729 11.1752C-0.345763 12.5582 -0.345763 14.8002 1.03729 16.1833C2.42017 17.5671 4.66233 17.5671 6.04611 16.1833L8.0493 14.1801C8.32592 13.9035 8.32592 13.455 8.0493 13.1783C7.77269 12.9017 7.32414 12.9018 7.04752 13.1784Z" fill="#141414"/>
<path d="M15.9627 1.25799C14.5796 -0.12506 12.3369 -0.12506 10.9539 1.25799L8.55046 3.66138C8.27385 3.938 8.27385 4.38651 8.55046 4.66313C8.82708 4.93974 9.27559 4.93974 9.55221 4.66313L11.9556 2.25974C12.7854 1.42992 14.1311 1.42992 14.9609 2.25974C15.7907 3.08952 15.7907 4.43455 14.9609 5.26434L10.5537 9.67165C9.72384 10.5015 8.37884 10.5015 7.54905 9.67165C7.27243 9.39503 6.82392 9.39503 6.54731 9.67165C6.27069 9.94827 6.27069 10.3968 6.54731 10.6734C7.93036 12.0564 10.1723 12.0564 11.5554 10.6734L15.9627 6.26612C17.3457 4.88307 17.3457 2.64104 15.9627 1.25799Z" fill="#141414"/>
</svg>
