<svg width="1541" height="248" viewBox="0 0 1541 248" fill="none" xmlns="http://www.w3.org/2000/svg">
<path d="M45.6938 37.2L40.0298 45.432L45.9098 54H42.4538L38.1098 47.688L33.7898 54H30.3338L36.2138 45.432L30.5978 37.2H34.0538L38.1818 43.272L42.2378 37.2H45.6938ZM48.4764 54V37.2H51.4524L57.1884 45.048L62.6604 37.2H65.4444V54H62.5164V41.856L57.2124 49.32H56.7804L51.4284 41.928V54H48.4764ZM70.1093 54V37.2H73.0613V51.24H80.6213V54H70.1093ZM82.0661 48.72V46.152H88.1141V48.72H82.0661ZM91.1376 54V43.2C91.3296 43.2 91.6816 43.192 92.1936 43.176C92.7216 43.144 93.2576 43.12 93.8016 43.104C94.3616 43.088 94.8896 43.08 95.3856 43.08C98.6496 43.08 100.282 44.024 100.282 45.912C100.282 46.536 100.082 47.072 99.6816 47.52C99.2976 47.968 98.8256 48.232 98.2656 48.312V48.36C99.8016 48.728 100.57 49.56 100.57 50.856C100.57 53.032 98.8576 54.12 95.4336 54.12C94.9536 54.12 94.1936 54.096 93.1536 54.048C92.1136 54.016 91.4416 54 91.1376 54ZM95.6256 49.416H93.8976V51.816C94.9856 51.88 95.5936 51.912 95.7216 51.912C96.3296 51.912 96.8016 51.8 97.1376 51.576C97.4896 51.352 97.6656 51.048 97.6656 50.664C97.6656 49.832 96.9856 49.416 95.6256 49.416ZM95.6256 45.312C94.8576 45.312 94.2816 45.328 93.8976 45.36V47.736H95.6976C96.1776 47.736 96.5696 47.632 96.8736 47.424C97.1936 47.2 97.3536 46.888 97.3536 46.488C97.3536 45.704 96.7776 45.312 95.6256 45.312ZM103.184 54V43.2H105.944V46.152H107.288C108.984 46.152 110.2 46.504 110.936 47.208C111.672 47.912 112.04 48.808 112.04 49.896C112.04 51.064 111.64 52.04 110.84 52.824C110.04 53.608 108.784 54 107.072 54H103.184ZM113.576 54V43.2H116.336V54H113.576ZM107.048 48.36H105.944V51.6H107.024C108.416 51.6 109.112 51.064 109.112 49.992C109.112 48.904 108.424 48.36 107.048 48.36ZM119.403 54V43.2H126.651V45.792H122.163V54H119.403ZM128.38 58.8V43.2H131.14V44.232C131.492 43.864 131.964 43.56 132.556 43.32C133.164 43.064 133.804 42.936 134.476 42.936C135.948 42.936 137.132 43.448 138.028 44.472C138.924 45.496 139.372 46.816 139.372 48.432C139.372 50.112 138.844 51.504 137.788 52.608C136.732 53.712 135.356 54.264 133.66 54.264C132.588 54.264 131.748 54.088 131.14 53.736V58.8H128.38ZM133.612 45.528C132.668 45.528 131.844 45.92 131.14 46.704V51.072C131.78 51.488 132.54 51.696 133.42 51.696C134.348 51.696 135.084 51.4 135.628 50.808C136.172 50.2 136.444 49.432 136.444 48.504C136.444 47.624 136.196 46.912 135.7 46.368C135.204 45.808 134.508 45.528 133.612 45.528ZM151.757 43.2L147.509 54C146.741 55.872 146.053 57.136 145.445 57.792C144.853 58.464 144.149 58.8 143.333 58.8C142.549 58.8 141.773 58.52 141.005 57.96L141.893 55.872C142.325 56.128 142.701 56.256 143.021 56.256C143.677 56.256 144.229 55.696 144.677 54.576L144.917 54L139.925 43.2H143.237L145.757 49.104C145.853 49.344 146.029 49.864 146.285 50.664C146.413 49.96 146.541 49.432 146.669 49.08L148.613 43.2H151.757ZM157.227 54.264C156.283 54.264 155.363 54.096 154.467 53.76C153.571 53.408 152.923 52.976 152.523 52.464L153.939 50.736C154.259 51.104 154.715 51.416 155.307 51.672C155.915 51.928 156.475 52.056 156.987 52.056C157.691 52.056 158.235 51.936 158.619 51.696C159.003 51.456 159.195 51.136 159.195 50.736C159.195 50.368 159.051 50.072 158.763 49.848C158.475 49.624 158.075 49.512 157.563 49.512H155.547V47.664H157.443C157.875 47.664 158.219 47.536 158.475 47.28C158.747 47.024 158.883 46.712 158.883 46.344C158.883 45.56 158.251 45.168 156.987 45.168C155.995 45.168 155.011 45.584 154.035 46.416L152.883 44.76C153.923 43.544 155.467 42.936 157.515 42.936C158.923 42.936 159.995 43.208 160.731 43.752C161.467 44.296 161.835 45.048 161.835 46.008C161.835 46.536 161.659 47.016 161.307 47.448C160.955 47.88 160.467 48.2 159.843 48.408V48.456C160.579 48.6 161.139 48.904 161.523 49.368C161.923 49.816 162.123 50.36 162.123 51C162.123 52.008 161.675 52.808 160.779 53.4C159.883 53.976 158.699 54.264 157.227 54.264ZM174.955 43.2L170.803 48.336L175.459 54H171.859L167.587 48.552L171.475 43.2H174.955ZM164.731 54V43.2H167.491V54H164.731ZM177.923 45.984L177.227 43.968C178.395 43.28 179.667 42.936 181.043 42.936C182.579 42.936 183.683 43.312 184.355 44.064C185.027 44.816 185.363 45.936 185.363 47.424V54H182.963V52.752C182.307 53.68 181.243 54.144 179.771 54.144C178.763 54.144 177.947 53.848 177.323 53.256C176.699 52.664 176.387 51.856 176.387 50.832C176.387 49.696 176.755 48.832 177.491 48.24C178.227 47.632 179.171 47.328 180.323 47.328C181.315 47.328 182.131 47.56 182.771 48.024C182.803 47.08 182.667 46.384 182.363 45.936C182.059 45.472 181.523 45.24 180.755 45.24C179.955 45.24 179.011 45.488 177.923 45.984ZM180.683 51.816C181.611 51.816 182.307 51.488 182.771 50.832V49.728C182.307 49.376 181.675 49.2 180.875 49.2C180.379 49.2 179.963 49.32 179.627 49.56C179.307 49.784 179.147 50.112 179.147 50.544C179.147 50.944 179.291 51.256 179.579 51.48C179.867 51.704 180.235 51.816 180.683 51.816ZM196.038 54H193.278V43.2H196.038V50.04L201.078 43.2H203.838V54H201.078V47.16L196.038 54ZM210.735 54.264C209.791 54.264 208.871 54.096 207.975 53.76C207.079 53.408 206.431 52.976 206.031 52.464L207.447 50.736C207.767 51.104 208.223 51.416 208.815 51.672C209.423 51.928 209.983 52.056 210.495 52.056C211.199 52.056 211.743 51.936 212.127 51.696C212.511 51.456 212.703 51.136 212.703 50.736C212.703 50.368 212.559 50.072 212.271 49.848C211.983 49.624 211.583 49.512 211.071 49.512H209.055V47.664H210.951C211.383 47.664 211.727 47.536 211.983 47.28C212.255 47.024 212.391 46.712 212.391 46.344C212.391 45.56 211.759 45.168 210.495 45.168C209.503 45.168 208.519 45.584 207.543 46.416L206.391 44.76C207.431 43.544 208.975 42.936 211.023 42.936C212.431 42.936 213.503 43.208 214.239 43.752C214.975 44.296 215.343 45.048 215.343 46.008C215.343 46.536 215.167 47.016 214.815 47.448C214.463 47.88 213.975 48.2 213.351 48.408V48.456C214.087 48.6 214.647 48.904 215.031 49.368C215.431 49.816 215.631 50.36 215.631 51C215.631 52.008 215.183 52.808 214.287 53.4C213.391 53.976 212.207 54.264 210.735 54.264ZM230.861 49.536C230.861 49.088 230.717 48.696 230.429 48.36C230.157 48.008 229.797 47.712 229.349 47.472C228.901 47.216 228.405 46.976 227.861 46.752C227.333 46.512 226.797 46.248 226.253 45.96C225.709 45.656 225.213 45.328 224.765 44.976C224.317 44.608 223.949 44.136 223.661 43.56C223.389 42.968 223.253 42.304 223.253 41.568C223.253 40.256 223.725 39.16 224.669 38.28C225.629 37.384 226.901 36.936 228.485 36.936C230.597 36.936 232.197 37.536 233.285 38.736L231.701 40.944C230.837 40.112 229.845 39.696 228.725 39.696C228.005 39.696 227.429 39.864 226.997 40.2C226.581 40.536 226.373 40.984 226.373 41.544C226.373 42.088 226.557 42.56 226.925 42.96C227.309 43.36 227.781 43.68 228.341 43.92C228.901 44.144 229.509 44.416 230.165 44.736C230.837 45.056 231.453 45.392 232.013 45.744C232.573 46.08 233.037 46.576 233.405 47.232C233.789 47.872 233.981 48.632 233.981 49.512C233.981 50.904 233.445 52.048 232.373 52.944C231.301 53.824 229.965 54.264 228.365 54.264C227.213 54.264 226.101 54.032 225.029 53.568C223.973 53.088 223.253 52.44 222.869 51.624L224.549 49.608C225.013 50.216 225.597 50.688 226.301 51.024C227.021 51.344 227.725 51.504 228.413 51.504C229.133 51.504 229.717 51.336 230.165 51C230.629 50.648 230.861 50.16 230.861 49.536ZM235.223 54L242.327 37.152H244.919L252.023 54H248.879L247.127 49.704H239.951L238.199 54H235.223ZM243.551 40.968L241.079 46.944H245.999L243.551 40.968ZM257.491 54H254.539V37.2C254.827 37.2 255.587 37.192 256.819 37.176C258.067 37.16 258.899 37.152 259.315 37.152C260.499 37.152 261.523 37.304 262.387 37.608C263.267 37.896 263.947 38.304 264.427 38.832C264.907 39.344 265.259 39.912 265.483 40.536C265.707 41.144 265.819 41.816 265.819 42.552C265.819 44.072 265.275 45.36 264.187 46.416C263.099 47.472 261.595 48 259.675 48C258.699 48 257.971 47.976 257.491 47.928V54ZM259.603 39.912C259.251 39.912 258.547 39.928 257.491 39.96V45.12C258.259 45.2 258.955 45.24 259.579 45.24C260.507 45.24 261.259 45.016 261.835 44.568C262.411 44.104 262.699 43.424 262.699 42.528C262.699 40.784 261.667 39.912 259.603 39.912Z" fill="#141414"/>
<rect x="1.5" y="11.5" width="294" height="72" rx="6.5" stroke="#005DED" stroke-width="3"/>
<path d="M943.37 53H940.418V36.2C940.77 36.2 941.674 36.192 943.13 36.176C944.602 36.16 945.402 36.152 945.53 36.152C949.594 36.152 951.626 37.88 951.626 41.336C951.626 42.632 951.298 43.688 950.642 44.504C949.986 45.304 949.234 45.848 948.386 46.136L953.642 53H950.066L945.434 46.712H943.37V53ZM945.386 38.912C945.098 38.912 944.426 38.928 943.37 38.96V43.952H945.29C946.202 43.952 946.962 43.728 947.57 43.28C948.194 42.816 948.506 42.176 948.506 41.36C948.506 39.728 947.466 38.912 945.386 38.912ZM956.215 53V36.2H965.935V38.96H959.167V43.136H965.215V45.896H959.167V50.24H966.175V53H956.215ZM976.763 48.536C976.763 48.088 976.619 47.696 976.331 47.36C976.059 47.008 975.699 46.712 975.251 46.472C974.803 46.216 974.307 45.976 973.763 45.752C973.235 45.512 972.699 45.248 972.155 44.96C971.611 44.656 971.115 44.328 970.667 43.976C970.219 43.608 969.851 43.136 969.563 42.56C969.291 41.968 969.155 41.304 969.155 40.568C969.155 39.256 969.627 38.16 970.571 37.28C971.531 36.384 972.803 35.936 974.387 35.936C976.499 35.936 978.099 36.536 979.187 37.736L977.603 39.944C976.739 39.112 975.747 38.696 974.627 38.696C973.907 38.696 973.331 38.864 972.899 39.2C972.483 39.536 972.275 39.984 972.275 40.544C972.275 41.088 972.459 41.56 972.827 41.96C973.211 42.36 973.683 42.68 974.243 42.92C974.803 43.144 975.411 43.416 976.067 43.736C976.739 44.056 977.355 44.392 977.915 44.744C978.475 45.08 978.939 45.576 979.307 46.232C979.691 46.872 979.883 47.632 979.883 48.512C979.883 49.904 979.347 51.048 978.275 51.944C977.203 52.824 975.867 53.264 974.267 53.264C973.115 53.264 972.003 53.032 970.931 52.568C969.875 52.088 969.155 51.44 968.771 50.624L970.451 48.608C970.915 49.216 971.499 49.688 972.203 50.024C972.923 50.344 973.627 50.504 974.315 50.504C975.035 50.504 975.619 50.336 976.067 50C976.531 49.648 976.763 49.16 976.763 48.536ZM986.237 53H983.285V36.2C983.573 36.2 984.333 36.192 985.565 36.176C986.813 36.16 987.645 36.152 988.061 36.152C989.245 36.152 990.269 36.304 991.133 36.608C992.013 36.896 992.693 37.304 993.173 37.832C993.653 38.344 994.005 38.912 994.229 39.536C994.453 40.144 994.565 40.816 994.565 41.552C994.565 43.072 994.021 44.36 992.933 45.416C991.845 46.472 990.341 47 988.421 47C987.445 47 986.717 46.976 986.237 46.928V53ZM988.349 38.912C987.997 38.912 987.293 38.928 986.237 38.96V44.12C987.005 44.2 987.701 44.24 988.325 44.24C989.253 44.24 990.005 44.016 990.581 43.568C991.157 43.104 991.445 42.424 991.445 41.528C991.445 39.784 990.413 38.912 988.349 38.912ZM1000.91 53L1008.01 36.152H1010.6L1017.71 53H1014.56L1012.81 48.704H1005.63L1003.88 53H1000.91ZM1009.23 39.968L1006.76 45.944H1011.68L1009.23 39.968ZM1023.17 53H1020.22V36.2C1020.51 36.2 1021.27 36.192 1022.5 36.176C1023.75 36.16 1024.58 36.152 1025 36.152C1026.18 36.152 1027.21 36.304 1028.07 36.608C1028.95 36.896 1029.63 37.304 1030.11 37.832C1030.59 38.344 1030.94 38.912 1031.17 39.536C1031.39 40.144 1031.5 40.816 1031.5 41.552C1031.5 43.072 1030.96 44.36 1029.87 45.416C1028.78 46.472 1027.28 47 1025.36 47C1024.38 47 1023.65 46.976 1023.17 46.928V53ZM1025.29 38.912C1024.93 38.912 1024.23 38.928 1023.17 38.96V44.12C1023.94 44.2 1024.64 44.24 1025.26 44.24C1026.19 44.24 1026.94 44.016 1027.52 43.568C1028.09 43.104 1028.38 42.424 1028.38 41.528C1028.38 39.784 1027.35 38.912 1025.29 38.912ZM1035.28 53V36.2H1038.23V53H1035.28Z" fill="#141414"/>
<rect x="894.5" y="10.5" width="190" height="72" rx="6.5" stroke="#005DED" stroke-width="3"/>
<path fill-rule="evenodd" clip-rule="evenodd" d="M438.5 20C436.488 20 434.532 20.2263 432.647 20.6448V47.0187C432.647 50.2506 435.282 52.8865 438.515 52.8865C441.746 52.8865 444.381 50.2506 444.381 47.0203C444.381 43.9157 441.955 41.3674 438.905 41.1646V36.468C444.54 36.6723 449.075 41.3341 449.075 47.0203C449.075 52.8354 444.331 57.5815 438.515 57.5815C432.696 57.5815 427.953 52.8354 427.953 47.0187V22.1371C427.287 22.4201 426.635 22.734 425.997 23.0714V47.0187C425.998 53.9116 431.622 59.5328 438.515 59.5328C445.409 59.5328 451.031 53.9116 451.031 47.0203C451.031 40.2571 445.621 34.7186 438.905 34.5101V29.8151C448.205 30.0251 455.723 37.6732 455.723 47.0203C455.723 56.4996 447.992 64.2279 438.515 64.2279C429.035 64.2279 421.303 56.4996 421.303 47.0187V26.1857C415.317 31.1354 411.5 38.6204 411.5 46.9984C411.5 61.9092 423.588 74 438.5 74C453.415 74 465.5 61.9092 465.5 46.9984C465.5 32.0876 453.415 20 438.5 20Z" fill="#D91935"/>
<path d="M482.233 56.5V50.74H484.033C484.529 50.132 485.049 48.892 485.593 47.02C486.153 45.132 486.497 42.812 486.625 40.06L486.793 36.7H497.209V50.74H499.489V56.5H496.729V53.5H484.993V56.5H482.233ZM489.385 42.388C489.241 44.356 488.945 46.124 488.497 47.692C488.049 49.26 487.641 50.276 487.273 50.74H494.281V39.46H489.649L489.385 42.388ZM502.16 52.18C501.088 51.108 500.552 49.748 500.552 48.1C500.552 46.452 501.088 45.1 502.16 44.044C503.248 42.972 504.672 42.436 506.432 42.436C508.192 42.436 509.608 42.972 510.68 44.044C511.768 45.1 512.312 46.452 512.312 48.1C512.312 49.748 511.768 51.108 510.68 52.18C509.608 53.236 508.192 53.764 506.432 53.764C504.672 53.764 503.248 53.236 502.16 52.18ZM503.504 48.1C503.504 48.996 503.776 49.74 504.32 50.332C504.88 50.908 505.584 51.196 506.432 51.196C507.296 51.196 508 50.916 508.544 50.356C509.104 49.78 509.384 49.028 509.384 48.1C509.384 47.204 509.104 46.468 508.544 45.892C507.984 45.316 507.28 45.028 506.432 45.028C505.6 45.028 504.904 45.316 504.344 45.892C503.784 46.452 503.504 47.188 503.504 48.1ZM522.068 53.5V45.292H517.46V53.5H514.7V42.7H524.828V53.5H522.068ZM528.831 52.18C527.759 51.108 527.223 49.748 527.223 48.1C527.223 46.452 527.759 45.1 528.831 44.044C529.919 42.972 531.343 42.436 533.103 42.436C534.863 42.436 536.279 42.972 537.351 44.044C538.439 45.1 538.983 46.452 538.983 48.1C538.983 49.748 538.439 51.108 537.351 52.18C536.279 53.236 534.863 53.764 533.103 53.764C531.343 53.764 529.919 53.236 528.831 52.18ZM530.175 48.1C530.175 48.996 530.447 49.74 530.991 50.332C531.551 50.908 532.255 51.196 533.103 51.196C533.967 51.196 534.671 50.916 535.215 50.356C535.775 49.78 536.055 49.028 536.055 48.1C536.055 47.204 535.775 46.468 535.215 45.892C534.655 45.316 533.951 45.028 533.103 45.028C532.271 45.028 531.575 45.316 531.015 45.892C530.455 46.452 530.175 47.188 530.175 48.1ZM548.124 53.5V45.46H545.268L545.196 46.612C545.02 48.548 544.724 50.036 544.308 51.076C543.908 52.116 543.396 52.82 542.772 53.188C542.164 53.54 541.348 53.716 540.324 53.716L540.084 51.028C540.436 51.06 540.764 50.964 541.068 50.74C541.388 50.5 541.692 49.988 541.98 49.204C542.268 48.404 542.452 47.356 542.532 46.06L542.7 42.7H550.884V53.5H548.124ZM561.446 53.5V49.372H556.718V53.5H553.958V42.7H556.718V46.78H561.446V42.7H564.206V53.5H561.446ZM575.742 50.476L576.534 52.42C575.478 53.316 574.102 53.764 572.406 53.764C570.662 53.764 569.254 53.244 568.182 52.204C567.126 51.164 566.598 49.796 566.598 48.1C566.598 46.484 567.118 45.14 568.158 44.068C569.198 42.98 570.582 42.436 572.31 42.436C573.734 42.436 574.942 42.908 575.934 43.852C576.926 44.78 577.422 45.98 577.422 47.452C577.422 48.06 577.366 48.556 577.254 48.94H569.454C569.566 49.74 569.918 50.364 570.51 50.812C571.102 51.244 571.83 51.46 572.694 51.46C573.91 51.46 574.926 51.132 575.742 50.476ZM572.19 44.74C570.622 44.74 569.678 45.524 569.358 47.092H574.662C574.678 46.42 574.462 45.86 574.014 45.412C573.566 44.964 572.958 44.74 572.19 44.74ZM587.133 53.5V49.372H582.405V53.5H579.645V42.7H582.405V46.78H587.133V42.7H589.893V53.5H587.133ZM600.446 53.5V49.372H595.718V53.5H592.958V42.7H595.718V46.78H600.446V42.7H603.206V53.5H600.446ZM606.27 53.5V42.7H609.03V45.652H610.374C612.07 45.652 613.286 46.004 614.022 46.708C614.758 47.412 615.126 48.308 615.126 49.396C615.126 50.564 614.726 51.54 613.926 52.324C613.126 53.108 611.87 53.5 610.158 53.5H606.27ZM616.662 53.5V42.7H619.422V53.5H616.662ZM610.134 47.86H609.03V51.1H610.11C611.502 51.1 612.198 50.564 612.198 49.492C612.198 48.404 611.51 47.86 610.134 47.86ZM630.961 50.476L631.753 52.42C630.697 53.316 629.321 53.764 627.625 53.764C625.881 53.764 624.473 53.244 623.401 52.204C622.345 51.164 621.817 49.796 621.817 48.1C621.817 46.484 622.337 45.14 623.377 44.068C624.417 42.98 625.801 42.436 627.529 42.436C628.953 42.436 630.161 42.908 631.153 43.852C632.145 44.78 632.641 45.98 632.641 47.452C632.641 48.06 632.585 48.556 632.473 48.94H624.673C624.785 49.74 625.137 50.364 625.729 50.812C626.321 51.244 627.049 51.46 627.913 51.46C629.129 51.46 630.145 51.132 630.961 50.476ZM627.409 44.74C625.841 44.74 624.897 45.524 624.577 47.092H629.881C629.897 46.42 629.681 45.86 629.233 45.412C628.785 44.964 628.177 44.74 627.409 44.74ZM648.134 49.876L649.43 51.892C648.982 52.5 648.374 52.964 647.606 53.284C646.854 53.604 646.03 53.764 645.134 53.764C643.374 53.764 641.958 53.244 640.886 52.204C639.814 51.164 639.278 49.796 639.278 48.1C639.278 46.5 639.806 45.156 640.862 44.068C641.918 42.98 643.254 42.436 644.87 42.436C646.79 42.436 648.238 42.924 649.214 43.9L647.918 46.084C647.198 45.38 646.302 45.028 645.23 45.028C644.43 45.028 643.726 45.316 643.118 45.892C642.526 46.452 642.23 47.188 642.23 48.1C642.23 49.028 642.534 49.78 643.142 50.356C643.766 50.916 644.502 51.196 645.35 51.196C646.406 51.196 647.334 50.756 648.134 49.876ZM659.013 53.5V45.292H654.405V53.5H651.645V42.7H661.773V53.5H659.013ZM664.841 58.3V42.7H667.601V43.732C667.953 43.364 668.425 43.06 669.017 42.82C669.625 42.564 670.265 42.436 670.937 42.436C672.409 42.436 673.593 42.948 674.489 43.972C675.385 44.996 675.833 46.316 675.833 47.932C675.833 49.612 675.305 51.004 674.249 52.108C673.193 53.212 671.817 53.764 670.121 53.764C669.049 53.764 668.209 53.588 667.601 53.236V58.3H664.841ZM670.073 45.028C669.129 45.028 668.305 45.42 667.601 46.204V50.572C668.241 50.988 669.001 51.196 669.881 51.196C670.809 51.196 671.545 50.9 672.089 50.308C672.633 49.7 672.905 48.932 672.905 48.004C672.905 47.124 672.657 46.412 672.161 45.868C671.665 45.308 670.969 45.028 670.073 45.028ZM679.064 45.484L678.368 43.468C679.536 42.78 680.808 42.436 682.184 42.436C683.72 42.436 684.824 42.812 685.496 43.564C686.168 44.316 686.504 45.436 686.504 46.924V53.5H684.104V52.252C683.448 53.18 682.384 53.644 680.912 53.644C679.904 53.644 679.088 53.348 678.464 52.756C677.84 52.164 677.528 51.356 677.528 50.332C677.528 49.196 677.896 48.332 678.632 47.74C679.368 47.132 680.312 46.828 681.464 46.828C682.456 46.828 683.272 47.06 683.912 47.524C683.944 46.58 683.808 45.884 683.504 45.436C683.2 44.972 682.664 44.74 681.896 44.74C681.096 44.74 680.152 44.988 679.064 45.484ZM681.824 51.316C682.752 51.316 683.448 50.988 683.912 50.332V49.228C683.448 48.876 682.816 48.7 682.016 48.7C681.52 48.7 681.104 48.82 680.768 49.06C680.448 49.284 680.288 49.612 680.288 50.044C680.288 50.444 680.432 50.756 680.72 50.98C681.008 51.204 681.376 51.316 681.824 51.316ZM689.333 53.5V42.7C689.525 42.7 689.877 42.692 690.389 42.676C690.917 42.644 691.453 42.62 691.997 42.604C692.557 42.588 693.085 42.58 693.581 42.58C696.845 42.58 698.477 43.524 698.477 45.412C698.477 46.036 698.277 46.572 697.877 47.02C697.493 47.468 697.021 47.732 696.461 47.812V47.86C697.997 48.228 698.765 49.06 698.765 50.356C698.765 52.532 697.053 53.62 693.629 53.62C693.149 53.62 692.389 53.596 691.349 53.548C690.309 53.516 689.637 53.5 689.333 53.5ZM693.821 48.916H692.093V51.316C693.181 51.38 693.789 51.412 693.917 51.412C694.525 51.412 694.997 51.3 695.333 51.076C695.685 50.852 695.861 50.548 695.861 50.164C695.861 49.332 695.181 48.916 693.821 48.916ZM693.821 44.812C693.053 44.812 692.477 44.828 692.093 44.86V47.236H693.893C694.373 47.236 694.765 47.132 695.069 46.924C695.389 46.7 695.549 46.388 695.549 45.988C695.549 45.204 694.973 44.812 693.821 44.812ZM702.316 52.18C701.244 51.108 700.708 49.748 700.708 48.1C700.708 46.452 701.244 45.1 702.316 44.044C703.404 42.972 704.828 42.436 706.588 42.436C708.348 42.436 709.764 42.972 710.836 44.044C711.924 45.1 712.468 46.452 712.468 48.1C712.468 49.748 711.924 51.108 710.836 52.18C709.764 53.236 708.348 53.764 706.588 53.764C704.828 53.764 703.404 53.236 702.316 52.18ZM703.66 48.1C703.66 48.996 703.932 49.74 704.476 50.332C705.036 50.908 705.74 51.196 706.588 51.196C707.452 51.196 708.156 50.916 708.7 50.356C709.26 49.78 709.54 49.028 709.54 48.1C709.54 47.204 709.26 46.468 708.7 45.892C708.14 45.316 707.436 45.028 706.588 45.028C705.756 45.028 705.06 45.316 704.5 45.892C703.94 46.452 703.66 47.188 703.66 48.1ZM723.568 42.7V53.5H720.808V49.78C720.024 50.196 719.128 50.404 718.12 50.404C716.76 50.404 715.768 50.052 715.144 49.348C714.52 48.628 714.208 47.564 714.208 46.156V42.7H717.16V45.82C717.16 47.148 717.744 47.812 718.912 47.812C719.68 47.812 720.312 47.668 720.808 47.38V42.7H723.568ZM734.133 53.5V49.372H729.405V53.5H726.645V42.7H729.405V46.78H734.133V42.7H736.893V53.5H734.133ZM742.718 53.5H739.958V42.7H742.718V49.54L747.758 42.7H750.518V53.5H747.758V46.66L742.718 53.5ZM763.823 42.7L759.671 47.836L764.327 53.5H760.727L756.455 48.052L760.343 42.7H763.823ZM753.599 53.5V42.7H756.359V53.5H753.599ZM768.71 53.5H765.95V42.7H768.71V49.54L773.75 42.7H776.51V53.5H773.75V46.66L768.71 53.5Z" fill="#141414"/>
<rect x="368.5" y="1.5" width="453" height="91" rx="6.5" stroke="#005DED" stroke-width="3"/>
<path d="M485.609 213.876V192.403C485.609 191.971 485.321 191.682 484.888 191.682H481.719C481.287 191.682 480.998 191.971 480.998 192.403V213.876C480.998 214.309 481.287 214.597 481.719 214.597H484.888C485.321 214.453 485.609 214.165 485.609 213.876ZM469.184 214.453V191.826C467.455 191.826 464.717 192.979 464.717 195.429V210.85C463.709 210.994 462.268 211.138 461.403 211.138C458.522 211.138 457.802 209.121 457.802 206.382V195.285C457.657 192.547 454.632 191.826 453.335 191.826V206.238C453.335 211.426 455.928 214.741 461.403 214.741C462.268 214.741 463.997 214.453 464.717 214.309V214.597C465.438 219.065 459.963 217.335 457.081 217.047C454.92 217.047 453.479 218.776 453.047 220.794C454.344 221.226 458.378 221.659 461.259 221.947C466.446 222.091 469.184 219.209 469.184 214.453ZM477.396 213.876V192.403C477.396 191.971 477.108 191.682 476.676 191.682H473.506C473.074 191.682 472.786 191.971 472.786 192.403V213.876C472.786 214.309 473.074 214.597 473.506 214.597H476.676C477.108 214.453 477.396 214.165 477.396 213.876ZM475.091 185.629C476.388 185.629 477.396 186.638 477.396 187.935C477.396 189.232 476.388 190.241 475.091 190.241C473.794 190.241 472.786 189.232 472.786 187.935C472.786 186.782 473.794 185.629 475.091 185.629ZM483.448 185.629C484.744 185.629 485.753 186.638 485.753 187.935C485.753 189.232 484.744 190.241 483.448 190.241C482.151 190.241 481.142 189.232 481.142 187.935C481.142 186.782 482.151 185.629 483.448 185.629Z" fill="#C5CDCF"/>
<path fill-rule="evenodd" clip-rule="evenodd" d="M426.071 192.757C423.82 186.26 430.398 179.295 435.809 179.087C439.051 180.779 441.835 185.222 441.696 191.251C441.271 198.679 436.017 205.081 430.299 210.979C429.98 203.787 428.454 199.202 426.071 192.757Z" fill="#9BE400"/>
<path fill-rule="evenodd" clip-rule="evenodd" d="M413.315 227.938C412.41 220.686 415.353 214.5 418.275 210.727C419.663 208.956 420.73 207.34 421.543 205.851C423.077 206.516 427.203 208.681 429.476 212.196C429.146 217.295 425.379 226.575 413.315 227.938Z" fill="#3E7FCA"/>
<path fill-rule="evenodd" clip-rule="evenodd" d="M408.757 200.394C399.155 197.707 396.787 189.27 397.215 183.596C406.539 179.816 416.573 183.688 422.367 191.759C426.429 197.416 428.973 204.668 429.488 210.998C426.702 207.319 423.182 205.187 418.698 203.518C415.632 202.377 412.799 201.621 408.757 200.394Z" fill="#E4B200"/>
<path d="M504.644 210V193.2H507.62L513.356 201.048L518.828 193.2H521.612V210H518.684V197.856L513.38 205.32H512.948L507.596 197.928V210H504.644ZM533.957 206.976L534.749 208.92C533.693 209.816 532.317 210.264 530.621 210.264C528.877 210.264 527.469 209.744 526.397 208.704C525.341 207.664 524.813 206.296 524.813 204.6C524.813 202.984 525.333 201.64 526.373 200.568C527.413 199.48 528.797 198.936 530.525 198.936C531.949 198.936 533.157 199.408 534.149 200.352C535.141 201.28 535.637 202.48 535.637 203.952C535.637 204.56 535.581 205.056 535.469 205.44H527.669C527.781 206.24 528.133 206.864 528.725 207.312C529.317 207.744 530.045 207.96 530.909 207.96C532.125 207.96 533.141 207.632 533.957 206.976ZM530.405 201.24C528.837 201.24 527.893 202.024 527.573 203.592H532.877C532.893 202.92 532.677 202.36 532.229 201.912C531.781 201.464 531.173 201.24 530.405 201.24ZM536.213 212.52V207.432H537.581C538.429 206.312 538.933 204.432 539.093 201.792L539.261 199.2H547.229V207.432H549.029V212.52H546.437V210H538.781V212.52H536.213ZM541.757 202.896C541.565 204.992 541.133 206.504 540.461 207.432H544.469V201.792H541.829L541.757 202.896ZM553.605 210H550.845V199.2H553.605V206.04L558.645 199.2H561.405V210H558.645V203.16L553.605 210ZM565.325 201.984L564.629 199.968C565.797 199.28 567.069 198.936 568.445 198.936C569.981 198.936 571.085 199.312 571.757 200.064C572.429 200.816 572.765 201.936 572.765 203.424V210H570.365V208.752C569.709 209.68 568.645 210.144 567.173 210.144C566.165 210.144 565.349 209.848 564.725 209.256C564.101 208.664 563.789 207.856 563.789 206.832C563.789 205.696 564.157 204.832 564.893 204.24C565.629 203.632 566.573 203.328 567.725 203.328C568.717 203.328 569.533 203.56 570.173 204.024C570.205 203.08 570.069 202.384 569.765 201.936C569.461 201.472 568.925 201.24 568.157 201.24C567.357 201.24 566.413 201.488 565.325 201.984ZM568.085 207.816C569.013 207.816 569.709 207.488 570.173 206.832V205.728C569.709 205.376 569.077 205.2 568.277 205.2C567.781 205.2 567.365 205.32 567.029 205.56C566.709 205.784 566.549 206.112 566.549 206.544C566.549 206.944 566.693 207.256 566.981 207.48C567.269 207.704 567.637 207.816 568.085 207.816ZM585.915 199.2L582.315 204.36L586.155 210H582.795L580.275 206.112L577.659 210H574.467L578.307 204.504L574.707 199.2H578.091L580.371 202.776L582.723 199.2H585.915ZM588.134 214.8V199.2H590.894V200.232C591.246 199.864 591.718 199.56 592.31 199.32C592.918 199.064 593.558 198.936 594.23 198.936C595.702 198.936 596.886 199.448 597.782 200.472C598.678 201.496 599.126 202.816 599.126 204.432C599.126 206.112 598.598 207.504 597.542 208.608C596.486 209.712 595.11 210.264 593.414 210.264C592.342 210.264 591.502 210.088 590.894 209.736V214.8H588.134ZM593.366 201.528C592.422 201.528 591.598 201.92 590.894 202.704V207.072C591.534 207.488 592.294 207.696 593.174 207.696C594.102 207.696 594.838 207.4 595.382 206.808C595.926 206.2 596.198 205.432 596.198 204.504C596.198 203.624 595.95 202.912 595.454 202.368C594.958 201.808 594.262 201.528 593.366 201.528ZM602.356 201.984L601.66 199.968C602.828 199.28 604.1 198.936 605.476 198.936C607.012 198.936 608.116 199.312 608.788 200.064C609.46 200.816 609.796 201.936 609.796 203.424V210H607.396V208.752C606.74 209.68 605.676 210.144 604.204 210.144C603.196 210.144 602.38 209.848 601.756 209.256C601.132 208.664 600.82 207.856 600.82 206.832C600.82 205.696 601.188 204.832 601.924 204.24C602.66 203.632 603.604 203.328 604.756 203.328C605.748 203.328 606.564 203.56 607.204 204.024C607.236 203.08 607.1 202.384 606.796 201.936C606.492 201.472 605.956 201.24 605.188 201.24C604.388 201.24 603.444 201.488 602.356 201.984ZM605.116 207.816C606.044 207.816 606.74 207.488 607.204 206.832V205.728C606.74 205.376 606.108 205.2 605.308 205.2C604.812 205.2 604.396 205.32 604.06 205.56C603.74 205.784 603.58 206.112 603.58 206.544C603.58 206.944 603.724 207.256 604.012 207.48C604.3 207.704 604.668 207.816 605.116 207.816ZM620.114 210V205.872H615.386V210H612.626V199.2H615.386V203.28H620.114V199.2H622.874V210H620.114ZM628.698 210H625.938V199.2H628.698V206.04L633.738 199.2H636.498V210H633.738V203.16L628.698 210ZM646.683 210V201.96H643.827L643.755 203.112C643.579 205.048 643.283 206.536 642.867 207.576C642.467 208.616 641.955 209.32 641.331 209.688C640.723 210.04 639.907 210.216 638.883 210.216L638.643 207.528C638.995 207.56 639.323 207.464 639.627 207.24C639.947 207 640.251 206.488 640.539 205.704C640.827 204.904 641.011 203.856 641.091 202.56L641.259 199.2H649.443V210H646.683ZM655.276 210H652.516V199.2H655.276V206.04L660.316 199.2H663.076V210H660.316V203.16L655.276 210ZM666.157 210V199.2H668.917V207.432H671.965V199.2H674.725V207.432H677.797V199.2H680.557V207.432H682.357V212.52H679.765V210H666.157ZM692.653 206.976L693.445 208.92C692.389 209.816 691.013 210.264 689.317 210.264C687.573 210.264 686.165 209.744 685.093 208.704C684.037 207.664 683.509 206.296 683.509 204.6C683.509 202.984 684.029 201.64 685.069 200.568C686.109 199.48 687.493 198.936 689.221 198.936C690.645 198.936 691.853 199.408 692.845 200.352C693.837 201.28 694.333 202.48 694.333 203.952C694.333 204.56 694.277 205.056 694.165 205.44H686.365C686.477 206.24 686.829 206.864 687.421 207.312C688.013 207.744 688.741 207.96 689.605 207.96C690.821 207.96 691.837 207.632 692.653 206.976ZM689.101 201.24C687.533 201.24 686.589 202.024 686.269 203.592H691.573C691.589 202.92 691.373 202.36 690.925 201.912C690.477 201.464 689.869 201.24 689.101 201.24ZM701.641 210V199.2H704.137L707.809 203.712L711.289 199.2H713.713V210H710.953V203.4L707.761 207.432H707.689L704.401 203.4V210H701.641ZM717.718 208.68C716.646 207.608 716.11 206.248 716.11 204.6C716.11 202.952 716.646 201.6 717.718 200.544C718.806 199.472 720.23 198.936 721.99 198.936C723.75 198.936 725.166 199.472 726.238 200.544C727.326 201.6 727.87 202.952 727.87 204.6C727.87 206.248 727.326 207.608 726.238 208.68C725.166 209.736 723.75 210.264 721.99 210.264C720.23 210.264 718.806 209.736 717.718 208.68ZM719.062 204.6C719.062 205.496 719.334 206.24 719.878 206.832C720.438 207.408 721.142 207.696 721.99 207.696C722.854 207.696 723.558 207.416 724.102 206.856C724.662 206.28 724.942 205.528 724.942 204.6C724.942 203.704 724.662 202.968 724.102 202.392C723.542 201.816 722.838 201.528 721.99 201.528C721.158 201.528 720.462 201.816 719.902 202.392C719.342 202.952 719.062 203.688 719.062 204.6ZM728.611 212.52V207.432H729.979C730.827 206.312 731.331 204.432 731.491 201.792L731.659 199.2H739.627V207.432H741.427V212.52H738.835V210H731.179V212.52H728.611ZM734.155 202.896C733.963 204.992 733.531 206.504 732.859 207.432H736.867V201.792H734.227L734.155 202.896ZM751.715 206.976L752.507 208.92C751.451 209.816 750.075 210.264 748.379 210.264C746.635 210.264 745.227 209.744 744.155 208.704C743.099 207.664 742.571 206.296 742.571 204.6C742.571 202.984 743.091 201.64 744.131 200.568C745.171 199.48 746.555 198.936 748.283 198.936C749.707 198.936 750.915 199.408 751.907 200.352C752.899 201.28 753.395 202.48 753.395 203.952C753.395 204.56 753.339 205.056 753.227 205.44H745.427C745.539 206.24 745.891 206.864 746.483 207.312C747.075 207.744 747.803 207.96 748.667 207.96C749.883 207.96 750.899 207.632 751.715 206.976ZM748.163 201.24C746.595 201.24 745.651 202.024 745.331 203.592H750.635C750.651 202.92 750.435 202.36 749.987 201.912C749.539 201.464 748.931 201.24 748.163 201.24ZM762.37 210V201.96H759.514L759.442 203.112C759.266 205.048 758.97 206.536 758.554 207.576C758.154 208.616 757.642 209.32 757.018 209.688C756.41 210.04 755.594 210.216 754.57 210.216L754.33 207.528C754.682 207.56 755.01 207.464 755.314 207.24C755.634 207 755.938 206.488 756.226 205.704C756.514 204.904 756.698 203.856 756.778 202.56L756.946 199.2H765.13V210H762.37ZM776.676 206.976L777.468 208.92C776.412 209.816 775.036 210.264 773.34 210.264C771.596 210.264 770.188 209.744 769.116 208.704C768.06 207.664 767.532 206.296 767.532 204.6C767.532 202.984 768.052 201.64 769.092 200.568C770.132 199.48 771.516 198.936 773.244 198.936C774.668 198.936 775.876 199.408 776.868 200.352C777.86 201.28 778.356 202.48 778.356 203.952C778.356 204.56 778.3 205.056 778.188 205.44H770.388C770.5 206.24 770.852 206.864 771.444 207.312C772.036 207.744 772.764 207.96 773.628 207.96C774.844 207.96 775.86 207.632 776.676 206.976ZM773.124 201.24C771.556 201.24 770.612 202.024 770.292 203.592H775.596C775.612 202.92 775.396 202.36 774.948 201.912C774.5 201.464 773.892 201.24 773.124 201.24ZM783.339 210H780.579V199.2H783.339V206.04L788.379 199.2H791.139V210H788.379V203.16L783.339 210ZM782.187 193.8H784.707C784.707 194.296 784.803 194.712 784.995 195.048C785.203 195.384 785.523 195.552 785.955 195.552C786.339 195.552 786.627 195.384 786.819 195.048C787.011 194.712 787.107 194.296 787.107 193.8H789.627C789.627 194.888 789.307 195.784 788.667 196.488C788.027 197.176 787.123 197.52 785.955 197.52C784.675 197.52 783.723 197.184 783.099 196.512C782.491 195.824 782.187 194.92 782.187 193.8Z" fill="#141414"/>
<rect x="368.5" y="160.5" width="453" height="86" rx="6.5" stroke="#005DED" stroke-width="3"/>
<g clip-path="url(#clip0_1216_4213)">
<path d="M1213 51.8085C1215.65 51.8085 1217.81 49.6557 1217.81 47C1217.81 44.3443 1215.65 42.1914 1213 42.1914C1210.34 42.1914 1208.18 44.3443 1208.18 47C1208.18 49.6557 1210.34 51.8085 1213 51.8085Z" fill="#61DAFB"/>
<path d="M1213 56.8513C1227.27 56.8513 1238.83 52.4406 1238.83 46.9996C1238.83 41.5587 1227.27 37.1479 1213 37.1479C1198.74 37.1479 1187.18 41.5587 1187.18 46.9996C1187.18 52.4406 1198.74 56.8513 1213 56.8513Z" stroke="#61DAFB"/>
<path d="M1204.46 51.9255C1211.59 64.2664 1221.2 72.0653 1225.92 69.3448C1230.63 66.6244 1228.67 54.4147 1221.54 42.0738C1214.41 29.7328 1204.81 21.9339 1200.09 24.6544C1195.37 27.3748 1197.33 39.5845 1204.46 51.9255Z" stroke="#61DAFB"/>
<path d="M1204.46 42.0741C1197.33 54.415 1195.37 66.6247 1200.09 69.3452C1204.8 72.0657 1214.41 64.2667 1221.54 51.9258C1228.67 39.5849 1230.63 27.3752 1225.91 24.6547C1221.2 21.9342 1211.59 29.7332 1204.46 42.0741Z" stroke="#61DAFB"/>
</g>
<path d="M1268.9 53.5V39.46H1261.41V53.5H1258.46V36.7H1271.85V53.5H1268.9ZM1275.71 58.3V42.7H1278.47V43.732C1278.82 43.364 1279.3 43.06 1279.89 42.82C1280.5 42.564 1281.14 42.436 1281.81 42.436C1283.28 42.436 1284.46 42.948 1285.36 43.972C1286.26 44.996 1286.7 46.316 1286.7 47.932C1286.7 49.612 1286.18 51.004 1285.12 52.108C1284.06 53.212 1282.69 53.764 1280.99 53.764C1279.92 53.764 1279.08 53.588 1278.47 53.236V58.3H1275.71ZM1280.94 45.028C1280 45.028 1279.18 45.42 1278.47 46.204V50.572C1279.11 50.988 1279.87 51.196 1280.75 51.196C1281.68 51.196 1282.42 50.9 1282.96 50.308C1283.5 49.7 1283.78 48.932 1283.78 48.004C1283.78 47.124 1283.53 46.412 1283.03 45.868C1282.54 45.308 1281.84 45.028 1280.94 45.028ZM1291.85 53.5H1289.09V42.7H1291.85V49.54L1296.89 42.7H1299.65V53.5H1296.89V46.66L1291.85 53.5ZM1309.84 53.5V45.46H1306.98L1306.91 46.612C1306.74 48.548 1306.44 50.036 1306.02 51.076C1305.62 52.116 1305.11 52.82 1304.49 53.188C1303.88 53.54 1303.06 53.716 1302.04 53.716L1301.8 51.028C1302.15 51.06 1302.48 50.964 1302.78 50.74C1303.1 50.5 1303.41 49.988 1303.7 49.204C1303.98 48.404 1304.17 47.356 1304.25 46.06L1304.42 42.7H1312.6V53.5H1309.84ZM1316.61 52.18C1315.54 51.108 1315 49.748 1315 48.1C1315 46.452 1315.54 45.1 1316.61 44.044C1317.7 42.972 1319.12 42.436 1320.88 42.436C1322.64 42.436 1324.06 42.972 1325.13 44.044C1326.22 45.1 1326.76 46.452 1326.76 48.1C1326.76 49.748 1326.22 51.108 1325.13 52.18C1324.06 53.236 1322.64 53.764 1320.88 53.764C1319.12 53.764 1317.7 53.236 1316.61 52.18ZM1317.95 48.1C1317.95 48.996 1318.22 49.74 1318.77 50.332C1319.33 50.908 1320.03 51.196 1320.88 51.196C1321.74 51.196 1322.45 50.916 1322.99 50.356C1323.55 49.78 1323.83 49.028 1323.83 48.1C1323.83 47.204 1323.55 46.468 1322.99 45.892C1322.43 45.316 1321.73 45.028 1320.88 45.028C1320.05 45.028 1319.35 45.316 1318.79 45.892C1318.23 46.452 1317.95 47.188 1317.95 48.1ZM1343.49 42.7L1339.92 47.932L1343.78 53.5H1340.52L1336.92 47.932L1340.23 42.7H1343.49ZM1334.04 53.5V42.7H1336.8V53.5H1334.04ZM1330.94 47.932L1327.34 42.7H1330.7L1333.92 47.932L1330.41 53.5H1327.13L1330.94 47.932ZM1353.32 50.476L1354.12 52.42C1353.06 53.316 1351.68 53.764 1349.99 53.764C1348.24 53.764 1346.84 53.244 1345.76 52.204C1344.71 51.164 1344.18 49.796 1344.18 48.1C1344.18 46.484 1344.7 45.14 1345.74 44.068C1346.78 42.98 1348.16 42.436 1349.89 42.436C1351.32 42.436 1352.52 42.908 1353.52 43.852C1354.51 44.78 1355 45.98 1355 47.452C1355 48.06 1354.95 48.556 1354.84 48.94H1347.04C1347.15 49.74 1347.5 50.364 1348.09 50.812C1348.68 51.244 1349.41 51.46 1350.28 51.46C1351.49 51.46 1352.51 51.132 1353.32 50.476ZM1349.77 44.74C1348.2 44.74 1347.26 45.524 1346.94 47.092H1352.24C1352.26 46.42 1352.04 45.86 1351.6 45.412C1351.15 44.964 1350.54 44.74 1349.77 44.74ZM1364.72 53.5V49.372H1359.99V53.5H1357.23V42.7H1359.99V46.78H1364.72V42.7H1367.48V53.5H1364.72ZM1373.3 53.5H1370.54V42.7H1373.3V49.54L1378.34 42.7H1381.1V53.5H1378.34V46.66L1373.3 53.5ZM1392.65 50.476L1393.44 52.42C1392.39 53.316 1391.01 53.764 1389.32 53.764C1387.57 53.764 1386.16 53.244 1385.09 52.204C1384.04 51.164 1383.51 49.796 1383.51 48.1C1383.51 46.484 1384.03 45.14 1385.07 44.068C1386.11 42.98 1387.49 42.436 1389.22 42.436C1390.64 42.436 1391.85 42.908 1392.84 43.852C1393.84 44.78 1394.33 45.98 1394.33 47.452C1394.33 48.06 1394.28 48.556 1394.16 48.94H1386.36C1386.48 49.74 1386.83 50.364 1387.42 50.812C1388.01 51.244 1388.74 51.46 1389.6 51.46C1390.82 51.46 1391.84 51.132 1392.65 50.476ZM1389.1 44.74C1387.53 44.74 1386.59 45.524 1386.27 47.092H1391.57C1391.59 46.42 1391.37 45.86 1390.92 45.412C1390.48 44.964 1389.87 44.74 1389.1 44.74ZM1409.13 53.5V49.372H1404.4V53.5H1401.64V42.7H1404.4V46.78H1409.13V42.7H1411.89V53.5H1409.13ZM1415.79 45.484L1415.1 43.468C1416.27 42.78 1417.54 42.436 1418.91 42.436C1420.45 42.436 1421.55 42.812 1422.23 43.564C1422.9 44.316 1423.23 45.436 1423.23 46.924V53.5H1420.83V52.252C1420.18 53.18 1419.11 53.644 1417.64 53.644C1416.63 53.644 1415.82 53.348 1415.19 52.756C1414.57 52.164 1414.26 51.356 1414.26 50.332C1414.26 49.196 1414.63 48.332 1415.36 47.74C1416.1 47.132 1417.04 46.828 1418.19 46.828C1419.19 46.828 1420 47.06 1420.64 47.524C1420.67 46.58 1420.54 45.884 1420.23 45.436C1419.93 44.972 1419.39 44.74 1418.63 44.74C1417.83 44.74 1416.88 44.988 1415.79 45.484ZM1418.55 51.316C1419.48 51.316 1420.18 50.988 1420.64 50.332V49.228C1420.18 48.876 1419.55 48.7 1418.75 48.7C1418.25 48.7 1417.83 48.82 1417.5 49.06C1417.18 49.284 1417.02 49.612 1417.02 50.044C1417.02 50.444 1417.16 50.756 1417.45 50.98C1417.74 51.204 1418.11 51.316 1418.55 51.316ZM1434.89 53.5H1431.94V36.7C1432.29 36.7 1433.2 36.692 1434.65 36.676C1436.13 36.66 1436.93 36.652 1437.05 36.652C1441.12 36.652 1443.15 38.38 1443.15 41.836C1443.15 43.132 1442.82 44.188 1442.17 45.004C1441.51 45.804 1440.76 46.348 1439.91 46.636L1445.17 53.5H1441.59L1436.96 47.212H1434.89V53.5ZM1436.91 39.412C1436.62 39.412 1435.95 39.428 1434.89 39.46V44.452H1436.81C1437.73 44.452 1438.49 44.228 1439.09 43.78C1439.72 43.316 1440.03 42.676 1440.03 41.86C1440.03 40.228 1438.99 39.412 1436.91 39.412ZM1454.43 50.476L1455.23 52.42C1454.17 53.316 1452.79 53.764 1451.1 53.764C1449.35 53.764 1447.95 53.244 1446.87 52.204C1445.82 51.164 1445.29 49.796 1445.29 48.1C1445.29 46.484 1445.81 45.14 1446.85 44.068C1447.89 42.98 1449.27 42.436 1451 42.436C1452.43 42.436 1453.63 42.908 1454.63 43.852C1455.62 44.78 1456.11 45.98 1456.11 47.452C1456.11 48.06 1456.06 48.556 1455.95 48.94H1448.15C1448.26 49.74 1448.61 50.364 1449.2 50.812C1449.79 51.244 1450.52 51.46 1451.39 51.46C1452.6 51.46 1453.62 51.132 1454.43 50.476ZM1450.88 44.74C1449.31 44.74 1448.37 45.524 1448.05 47.092H1453.35C1453.37 46.42 1453.15 45.86 1452.71 45.412C1452.26 44.964 1451.65 44.74 1450.88 44.74ZM1459.18 45.484L1458.48 43.468C1459.65 42.78 1460.92 42.436 1462.3 42.436C1463.83 42.436 1464.94 42.812 1465.61 43.564C1466.28 44.316 1466.62 45.436 1466.62 46.924V53.5H1464.22V52.252C1463.56 53.18 1462.5 53.644 1461.02 53.644C1460.02 53.644 1459.2 53.348 1458.58 52.756C1457.95 52.164 1457.64 51.356 1457.64 50.332C1457.64 49.196 1458.01 48.332 1458.74 47.74C1459.48 47.132 1460.42 46.828 1461.58 46.828C1462.57 46.828 1463.38 47.06 1464.02 47.524C1464.06 46.58 1463.92 45.884 1463.62 45.436C1463.31 44.972 1462.78 44.74 1462.01 44.74C1461.21 44.74 1460.26 44.988 1459.18 45.484ZM1461.94 51.316C1462.86 51.316 1463.56 50.988 1464.02 50.332V49.228C1463.56 48.876 1462.93 48.7 1462.13 48.7C1461.63 48.7 1461.22 48.82 1460.88 49.06C1460.56 49.284 1460.4 49.612 1460.4 50.044C1460.4 50.444 1460.54 50.756 1460.83 50.98C1461.12 51.204 1461.49 51.316 1461.94 51.316ZM1477.63 49.876L1478.93 51.892C1478.48 52.5 1477.87 52.964 1477.1 53.284C1476.35 53.604 1475.53 53.764 1474.63 53.764C1472.87 53.764 1471.45 53.244 1470.38 52.204C1469.31 51.164 1468.77 49.796 1468.77 48.1C1468.77 46.5 1469.3 45.156 1470.36 44.068C1471.41 42.98 1472.75 42.436 1474.37 42.436C1476.29 42.436 1477.73 42.924 1478.71 43.9L1477.41 46.084C1476.69 45.38 1475.8 45.028 1474.73 45.028C1473.93 45.028 1473.22 45.316 1472.61 45.892C1472.02 46.452 1471.73 47.188 1471.73 48.1C1471.73 49.028 1472.03 49.78 1472.64 50.356C1473.26 50.916 1474 51.196 1474.85 51.196C1475.9 51.196 1476.83 50.756 1477.63 49.876ZM1480.9 49.396V39.7H1483.66V42.7H1487.14V45.292H1483.66V49.228C1483.66 50.524 1484.09 51.172 1484.96 51.172C1485.5 51.172 1486.05 50.964 1486.61 50.548L1487.45 52.684C1486.59 53.388 1485.53 53.74 1484.26 53.74C1483.08 53.74 1482.22 53.38 1481.69 52.66C1481.17 51.924 1480.9 50.836 1480.9 49.396ZM1495.29 36.7V49.54C1495.29 50.9 1494.94 51.948 1494.25 52.684C1493.58 53.404 1492.57 53.764 1491.23 53.764C1490.62 53.764 1490.05 53.66 1489.53 53.452C1489 53.244 1488.61 53.004 1488.37 52.732L1489.33 50.476C1489.8 50.828 1490.29 51.004 1490.82 51.004C1491.83 51.004 1492.33 50.348 1492.33 49.036V36.7H1495.29ZM1506.68 49.036C1506.68 48.588 1506.53 48.196 1506.25 47.86C1505.97 47.508 1505.61 47.212 1505.17 46.972C1504.72 46.716 1504.22 46.476 1503.68 46.252C1503.15 46.012 1502.61 45.748 1502.07 45.46C1501.53 45.156 1501.03 44.828 1500.58 44.476C1500.13 44.108 1499.77 43.636 1499.48 43.06C1499.21 42.468 1499.07 41.804 1499.07 41.068C1499.07 39.756 1499.54 38.66 1500.49 37.78C1501.45 36.884 1502.72 36.436 1504.3 36.436C1506.41 36.436 1508.01 37.036 1509.1 38.236L1507.52 40.444C1506.65 39.612 1505.66 39.196 1504.54 39.196C1503.82 39.196 1503.25 39.364 1502.81 39.7C1502.4 40.036 1502.19 40.484 1502.19 41.044C1502.19 41.588 1502.37 42.06 1502.74 42.46C1503.13 42.86 1503.6 43.18 1504.16 43.42C1504.72 43.644 1505.33 43.916 1505.98 44.236C1506.65 44.556 1507.27 44.892 1507.83 45.244C1508.39 45.58 1508.85 46.076 1509.22 46.732C1509.61 47.372 1509.8 48.132 1509.8 49.012C1509.8 50.404 1509.26 51.548 1508.19 52.444C1507.12 53.324 1505.78 53.764 1504.18 53.764C1503.03 53.764 1501.92 53.532 1500.85 53.068C1499.79 52.588 1499.07 51.94 1498.69 51.124L1500.37 49.108C1500.83 49.716 1501.41 50.188 1502.12 50.524C1502.84 50.844 1503.54 51.004 1504.23 51.004C1504.95 51.004 1505.53 50.836 1505.98 50.5C1506.45 50.148 1506.68 49.66 1506.68 49.036Z" fill="#141414"/>
<rect x="1157.5" y="4.5" width="382" height="85" rx="6.5" stroke="#005DED" stroke-width="3"/>
<path d="M357 48L347 42.2265V53.7735L357 48ZM307 49H348V47H307V49Z" fill="#C5CDCF"/>
<path d="M883 48L873 42.2265V53.7735L883 48ZM833 49H874V47H833V49Z" fill="#C5CDCF"/>
<path d="M986.5 94L980.726 104L992.273 104L986.5 94ZM986.5 184L985.5 184L986.5 184ZM833 205L966.5 205L966.5 203L833 203L833 205ZM987.5 184L987.5 103L985.5 103L985.5 184L987.5 184ZM966.5 205C978.098 205 987.5 195.598 987.5 184L985.5 184C985.5 194.493 976.993 203 966.5 203L966.5 205Z" fill="#C5CDCF"/>
<path d="M1146 48L1136 42.2265V53.7735L1146 48ZM1096 49H1137V47H1096V49Z" fill="#C5CDCF"/>
<defs>
<clipPath id="clip0_1216_4213">
<rect width="54" height="48" fill="white" transform="translate(1186 23)"/>
</clipPath>
</defs>
</svg>
