<svg width="991" height="261" viewBox="0 0 991 261" fill="none" xmlns="http://www.w3.org/2000/svg">
<path fill-rule="evenodd" clip-rule="evenodd" d="M345 27C343.659 27 342.355 27.1509 341.098 27.4298V45.0124C341.098 47.1671 342.855 48.9243 345.01 48.9243C347.164 48.9243 348.92 47.1671 348.92 45.0135C348.92 42.9438 347.303 41.2449 345.27 41.1098V37.9786C349.027 38.1149 352.05 41.2228 352.05 45.0135C352.05 48.8902 348.887 52.0543 345.01 52.0543C341.131 52.0543 337.969 48.8902 337.969 45.0124V28.4247C337.524 28.6134 337.09 28.8227 336.665 29.0476V45.0124C336.665 49.6077 340.415 53.3552 345.01 53.3552C349.606 53.3552 353.354 49.6077 353.354 45.0135C353.354 40.5047 349.747 36.8124 345.27 36.6734V33.5434C351.47 33.6834 356.482 38.7821 356.482 45.0135C356.482 51.3331 351.328 56.4853 345.01 56.4853C338.69 56.4853 333.535 51.3331 333.535 45.0124V31.1238C329.545 34.4236 327 39.4136 327 44.9989C327 54.9394 335.059 63 345 63C354.943 63 363 54.9394 363 44.9989C363 35.0584 354.943 27 345 27Z" fill="#D91935"/>
<path d="M380.332 51.5V34.7H390.052V37.46H383.284V41.636H389.332V44.396H383.284V48.74H390.292V51.5H380.332ZM392.049 54.02V48.932H393.417C394.265 47.812 394.769 45.932 394.929 43.292L395.097 40.7H403.065V48.932H404.865V54.02H402.273V51.5H394.617V54.02H392.049ZM397.593 44.396C397.401 46.492 396.969 48.004 396.297 48.932H400.305V43.292H397.665L397.593 44.396ZM409.441 51.5H406.681V40.7H409.441V47.54L414.481 40.7H417.241V51.5H414.481V44.66L409.441 51.5ZM427.809 51.5V47.372H423.081V51.5H420.321V40.7H423.081V44.78H427.809V40.7H430.569V51.5H427.809ZM434.474 43.484L433.778 41.468C434.946 40.78 436.218 40.436 437.594 40.436C439.13 40.436 440.234 40.812 440.906 41.564C441.578 42.316 441.914 43.436 441.914 44.924V51.5H439.514V50.252C438.858 51.18 437.794 51.644 436.322 51.644C435.314 51.644 434.498 51.348 433.874 50.756C433.25 50.164 432.938 49.356 432.938 48.332C432.938 47.196 433.306 46.332 434.042 45.74C434.778 45.132 435.722 44.828 436.874 44.828C437.866 44.828 438.682 45.06 439.322 45.524C439.354 44.58 439.218 43.884 438.914 43.436C438.61 42.972 438.074 42.74 437.306 42.74C436.506 42.74 435.562 42.988 434.474 43.484ZM437.234 49.316C438.162 49.316 438.858 48.988 439.322 48.332V47.228C438.858 46.876 438.226 46.7 437.426 46.7C436.93 46.7 436.514 46.82 436.178 47.06C435.858 47.284 435.698 47.612 435.698 48.044C435.698 48.444 435.842 48.756 436.13 48.98C436.418 49.204 436.786 49.316 437.234 49.316ZM450.023 40.7H453.551V51.5H450.791V48.26H449.255L447.023 51.5H443.855L446.735 47.66C446.191 47.468 445.703 47.108 445.271 46.58C444.855 46.036 444.647 45.356 444.647 44.54C444.647 43.404 445.079 42.484 445.943 41.78C446.823 41.06 448.183 40.7 450.023 40.7ZM447.599 44.732C447.599 45.164 447.775 45.524 448.127 45.812C448.495 46.084 448.903 46.22 449.351 46.22H450.791V43.1H449.567C448.943 43.1 448.455 43.26 448.103 43.58C447.767 43.9 447.599 44.284 447.599 44.732ZM469.08 51.5V43.292H464.472V51.5H461.712V40.7H471.84V51.5H469.08ZM475.747 43.484L475.051 41.468C476.219 40.78 477.491 40.436 478.867 40.436C480.403 40.436 481.507 40.812 482.179 41.564C482.851 42.316 483.187 43.436 483.187 44.924V51.5H480.787V50.252C480.131 51.18 479.067 51.644 477.595 51.644C476.587 51.644 475.771 51.348 475.147 50.756C474.523 50.164 474.211 49.356 474.211 48.332C474.211 47.196 474.579 46.332 475.315 45.74C476.051 45.132 476.995 44.828 478.147 44.828C479.139 44.828 479.955 45.06 480.595 45.524C480.627 44.58 480.491 43.884 480.187 43.436C479.883 42.972 479.347 42.74 478.579 42.74C477.779 42.74 476.835 42.988 475.747 43.484ZM478.507 49.316C479.435 49.316 480.131 48.988 480.595 48.332V47.228C480.131 46.876 479.499 46.7 478.699 46.7C478.203 46.7 477.787 46.82 477.451 47.06C477.131 47.284 476.971 47.612 476.971 48.044C476.971 48.444 477.115 48.756 477.403 48.98C477.691 49.204 478.059 49.316 478.507 49.316ZM493.504 51.5V47.372H488.776V51.5H486.016V40.7H488.776V44.78H493.504V40.7H496.264V51.5H493.504ZM507.801 48.476L508.593 50.42C507.537 51.316 506.161 51.764 504.465 51.764C502.721 51.764 501.313 51.244 500.241 50.204C499.185 49.164 498.657 47.796 498.657 46.1C498.657 44.484 499.177 43.14 500.217 42.068C501.257 40.98 502.641 40.436 504.369 40.436C505.793 40.436 507.001 40.908 507.993 41.852C508.985 42.78 509.481 43.98 509.481 45.452C509.481 46.06 509.425 46.556 509.313 46.94H501.513C501.625 47.74 501.977 48.364 502.569 48.812C503.161 49.244 503.889 49.46 504.753 49.46C505.969 49.46 506.985 49.132 507.801 48.476ZM504.249 42.74C502.681 42.74 501.737 43.524 501.417 45.092H506.721C506.737 44.42 506.521 43.86 506.073 43.412C505.625 42.964 505.017 42.74 504.249 42.74ZM518.456 51.5V43.46H515.6L515.528 44.612C515.352 46.548 515.056 48.036 514.64 49.076C514.24 50.116 513.728 50.82 513.104 51.188C512.496 51.54 511.68 51.716 510.656 51.716L510.416 49.028C510.768 49.06 511.096 48.964 511.4 48.74C511.72 48.5 512.024 47.988 512.312 47.204C512.6 46.404 512.784 45.356 512.864 44.06L513.032 40.7H521.216V51.5H518.456ZM524.29 51.5V40.7H527.05V43.652H528.538C530.234 43.652 531.45 44.004 532.186 44.708C532.922 45.412 533.29 46.308 533.29 47.396C533.29 48.564 532.89 49.54 532.09 50.324C531.29 51.108 530.034 51.5 528.322 51.5H524.29ZM528.298 45.86H527.05V49.1H528.274C529.666 49.1 530.362 48.564 530.362 47.492C530.362 46.404 529.674 45.86 528.298 45.86ZM550.995 40.7L546.747 51.5C545.979 53.372 545.291 54.636 544.683 55.292C544.091 55.964 543.387 56.3 542.571 56.3C541.787 56.3 541.011 56.02 540.243 55.46L541.131 53.372C541.563 53.628 541.939 53.756 542.259 53.756C542.915 53.756 543.467 53.196 543.915 52.076L544.155 51.5L539.163 40.7H542.475L544.995 46.604C545.091 46.844 545.267 47.364 545.523 48.164C545.651 47.46 545.779 46.932 545.907 46.58L547.851 40.7H550.995ZM560.017 51.5V43.292H555.409V51.5H552.649V40.7H562.777V51.5H560.017ZM565.845 56.3V40.7H568.605V41.732C568.957 41.364 569.429 41.06 570.021 40.82C570.629 40.564 571.269 40.436 571.941 40.436C573.413 40.436 574.597 40.948 575.493 41.972C576.389 42.996 576.837 44.316 576.837 45.932C576.837 47.612 576.309 49.004 575.253 50.108C574.197 51.212 572.821 51.764 571.125 51.764C570.053 51.764 569.213 51.588 568.605 51.236V56.3H565.845ZM571.077 43.028C570.133 43.028 569.309 43.42 568.605 44.204V48.572C569.245 48.988 570.005 49.196 570.885 49.196C571.813 49.196 572.549 48.9 573.093 48.308C573.637 47.7 573.909 46.932 573.909 46.004C573.909 45.124 573.661 44.412 573.165 43.868C572.669 43.308 571.973 43.028 571.077 43.028ZM580.067 43.484L579.371 41.468C580.539 40.78 581.811 40.436 583.187 40.436C584.723 40.436 585.827 40.812 586.499 41.564C587.171 42.316 587.507 43.436 587.507 44.924V51.5H585.107V50.252C584.451 51.18 583.387 51.644 581.915 51.644C580.907 51.644 580.091 51.348 579.467 50.756C578.843 50.164 578.531 49.356 578.531 48.332C578.531 47.196 578.899 46.332 579.635 45.74C580.371 45.132 581.315 44.828 582.467 44.828C583.459 44.828 584.275 45.06 584.915 45.524C584.947 44.58 584.811 43.884 584.507 43.436C584.203 42.972 583.667 42.74 582.899 42.74C582.099 42.74 581.155 42.988 580.067 43.484ZM582.827 49.316C583.755 49.316 584.451 48.988 584.915 48.332V47.228C584.451 46.876 583.819 46.7 583.019 46.7C582.523 46.7 582.107 46.82 581.771 47.06C581.451 47.284 581.291 47.612 581.291 48.044C581.291 48.444 581.435 48.756 581.723 48.98C582.011 49.204 582.379 49.316 582.827 49.316ZM590.337 51.5V40.7C590.529 40.7 590.881 40.692 591.393 40.676C591.921 40.644 592.457 40.62 593.001 40.604C593.561 40.588 594.089 40.58 594.585 40.58C597.849 40.58 599.481 41.524 599.481 43.412C599.481 44.036 599.281 44.572 598.881 45.02C598.497 45.468 598.025 45.732 597.465 45.812V45.86C599.001 46.228 599.769 47.06 599.769 48.356C599.769 50.532 598.057 51.62 594.633 51.62C594.153 51.62 593.393 51.596 592.353 51.548C591.313 51.516 590.641 51.5 590.337 51.5ZM594.825 46.916H593.097V49.316C594.185 49.38 594.793 49.412 594.921 49.412C595.529 49.412 596.001 49.3 596.337 49.076C596.689 48.852 596.865 48.548 596.865 48.164C596.865 47.332 596.185 46.916 594.825 46.916ZM594.825 42.812C594.057 42.812 593.481 42.828 593.097 42.86V45.236H594.897C595.377 45.236 595.769 45.132 596.073 44.924C596.393 44.7 596.553 44.388 596.553 43.988C596.553 43.204 595.977 42.812 594.825 42.812ZM609.488 51.5V43.46H606.632L606.56 44.612C606.384 46.548 606.088 48.036 605.672 49.076C605.272 50.116 604.76 50.82 604.136 51.188C603.528 51.54 602.712 51.716 601.688 51.716L601.448 49.028C601.8 49.06 602.128 48.964 602.432 48.74C602.752 48.5 603.056 47.988 603.344 47.204C603.632 46.404 603.816 45.356 603.896 44.06L604.064 40.7H612.248V51.5H609.488ZM623.793 48.476L624.585 50.42C623.529 51.316 622.153 51.764 620.457 51.764C618.713 51.764 617.305 51.244 616.233 50.204C615.177 49.164 614.649 47.796 614.649 46.1C614.649 44.484 615.169 43.14 616.209 42.068C617.249 40.98 618.633 40.436 620.361 40.436C621.785 40.436 622.993 40.908 623.985 41.852C624.977 42.78 625.473 43.98 625.473 45.452C625.473 46.06 625.417 46.556 625.305 46.94H617.505C617.617 47.74 617.969 48.364 618.561 48.812C619.153 49.244 619.881 49.46 620.745 49.46C621.961 49.46 622.977 49.132 623.793 48.476ZM620.241 42.74C618.673 42.74 617.729 43.524 617.409 45.092H622.713C622.729 44.42 622.513 43.86 622.065 43.412C621.617 42.964 621.009 42.74 620.241 42.74ZM635.184 51.5V47.372H630.456V51.5H627.696V40.7H630.456V44.78H635.184V40.7H637.944V51.5H635.184ZM643.769 51.5H641.009V40.7H643.769V47.54L648.809 40.7H651.569V51.5H648.809V44.66L643.769 51.5ZM659.929 40.7H663.457V51.5H660.697V48.26H659.161L656.929 51.5H653.761L656.641 47.66C656.097 47.468 655.609 47.108 655.177 46.58C654.761 46.036 654.553 45.356 654.553 44.54C654.553 43.404 654.985 42.484 655.849 41.78C656.729 41.06 658.089 40.7 659.929 40.7ZM657.505 44.732C657.505 45.164 657.681 45.524 658.033 45.812C658.401 46.084 658.809 46.22 659.257 46.22H660.697V43.1H659.473C658.849 43.1 658.361 43.26 658.009 43.58C657.673 43.9 657.505 44.284 657.505 44.732Z" fill="#141414"/>
<rect x="281" y="2" width="430" height="86" rx="6" stroke="#274BB8" stroke-width="4"/>
<path d="M78.9592 212.2L74.3032 223.048H72.2632L67.2952 212.2H70.5832L72.5752 216.832C72.9272 217.616 73.1992 218.432 73.3912 219.28C73.5992 218.384 73.8632 217.552 74.1832 216.784L76.0552 212.2H78.9592ZM80.972 221.68C79.9 220.608 79.364 219.248 79.364 217.6C79.364 215.952 79.9 214.6 80.972 213.544C82.06 212.472 83.484 211.936 85.244 211.936C87.004 211.936 88.42 212.472 89.492 213.544C90.58 214.6 91.124 215.952 91.124 217.6C91.124 219.248 90.58 220.608 89.492 221.68C88.42 222.736 87.004 223.264 85.244 223.264C83.484 223.264 82.06 222.736 80.972 221.68ZM82.316 217.6C82.316 218.496 82.588 219.24 83.132 219.832C83.692 220.408 84.396 220.696 85.244 220.696C86.108 220.696 86.812 220.416 87.356 219.856C87.916 219.28 88.196 218.528 88.196 217.6C88.196 216.704 87.916 215.968 87.356 215.392C86.796 214.816 86.092 214.528 85.244 214.528C84.412 214.528 83.716 214.816 83.156 215.392C82.596 215.952 82.316 216.688 82.316 217.6ZM93.5126 220.024V206.2H96.2726V218.896C96.2726 220.064 96.5846 220.648 97.2086 220.648C97.5606 220.648 97.9366 220.504 98.3366 220.216L98.9126 222.328C98.1606 222.936 97.2086 223.24 96.0566 223.24C94.3606 223.24 93.5126 222.168 93.5126 220.024ZM110.836 212.2L106.78 217.144L111.316 223H107.764L103.492 217.36L107.356 212.2H110.836ZM100.684 223V206.2H103.444V223H100.684ZM118.077 220.696C118.349 220.52 118.485 220.272 118.485 219.952C118.485 219.632 118.285 219.376 117.885 219.184C117.485 218.976 116.997 218.8 116.421 218.656C115.861 218.496 115.293 218.312 114.717 218.104C114.141 217.88 113.653 217.528 113.253 217.048C112.853 216.568 112.653 215.96 112.653 215.224C112.653 214.2 113.021 213.4 113.757 212.824C114.509 212.232 115.461 211.936 116.613 211.936C118.373 211.936 119.741 212.392 120.717 213.304L119.685 215.272C118.805 214.584 117.829 214.24 116.757 214.24C116.357 214.24 116.029 214.336 115.773 214.528C115.533 214.704 115.413 214.92 115.413 215.176C115.413 215.496 115.613 215.76 116.013 215.968C116.413 216.176 116.893 216.352 117.453 216.496C118.029 216.64 118.605 216.816 119.181 217.024C119.757 217.232 120.245 217.576 120.645 218.056C121.045 218.52 121.245 219.104 121.245 219.808C121.245 220.864 120.845 221.704 120.045 222.328C119.261 222.952 118.205 223.264 116.877 223.264C115.949 223.264 115.029 223.064 114.117 222.664C113.221 222.264 112.637 221.848 112.365 221.416L113.709 219.616C114.029 219.968 114.533 220.28 115.221 220.552C115.909 220.824 116.525 220.96 117.069 220.96C117.485 220.96 117.821 220.872 118.077 220.696ZM139.325 212.2L135.917 223.048H133.445L131.141 217.048C131.077 216.888 131.005 216.648 130.925 216.328C130.845 216.008 130.797 215.824 130.781 215.776C130.685 216.24 130.557 216.68 130.397 217.096L128.117 223.048H125.765L122.261 212.2H125.213L126.941 218.08C127.005 218.272 127.109 218.752 127.253 219.52C127.445 218.768 127.581 218.288 127.661 218.08L129.677 212.2H132.125L134.213 218.056C134.325 218.376 134.461 218.872 134.621 219.544C134.685 219.208 134.797 218.688 134.957 217.984L136.541 212.2H139.325ZM141.814 214.984L141.118 212.968C142.286 212.28 143.558 211.936 144.934 211.936C146.47 211.936 147.574 212.312 148.246 213.064C148.918 213.816 149.254 214.936 149.254 216.424V223H146.854V221.752C146.198 222.68 145.134 223.144 143.662 223.144C142.654 223.144 141.838 222.848 141.214 222.256C140.59 221.664 140.278 220.856 140.278 219.832C140.278 218.696 140.646 217.832 141.382 217.24C142.118 216.632 143.062 216.328 144.214 216.328C145.206 216.328 146.022 216.56 146.662 217.024C146.694 216.08 146.558 215.384 146.254 214.936C145.95 214.472 145.414 214.24 144.646 214.24C143.846 214.24 142.902 214.488 141.814 214.984ZM144.574 220.816C145.502 220.816 146.198 220.488 146.662 219.832V218.728C146.198 218.376 145.566 218.2 144.766 218.2C144.27 218.2 143.854 218.32 143.518 218.56C143.198 218.784 143.038 219.112 143.038 219.544C143.038 219.944 143.182 220.256 143.47 220.48C143.758 220.704 144.126 220.816 144.574 220.816ZM150.667 224.464C150.667 223.6 150.979 222.888 151.603 222.328C152.243 221.752 153.099 221.352 154.171 221.128C154.043 220.904 153.979 220.656 153.979 220.384C153.979 220.08 154.059 219.824 154.219 219.616C153.419 219.296 152.787 218.816 152.323 218.176C151.875 217.52 151.651 216.792 151.651 215.992C151.651 214.872 152.075 213.92 152.923 213.136C153.771 212.336 154.883 211.936 156.259 211.936C157.299 211.936 158.219 212.192 159.019 212.704L162.283 211.984L162.379 214.192L160.579 214.6C160.755 215.048 160.843 215.512 160.843 215.992C160.843 217.096 160.419 218.04 159.571 218.824C158.723 219.592 157.619 219.976 156.259 219.976H156.067C156.035 220.072 156.019 220.208 156.019 220.384C156.019 220.592 156.067 220.776 156.163 220.936H156.283C157.947 220.936 159.299 221.232 160.339 221.824C161.379 222.416 161.899 223.296 161.899 224.464C161.899 225.632 161.379 226.512 160.339 227.104C159.299 227.696 157.947 227.992 156.283 227.992C154.603 227.992 153.243 227.696 152.203 227.104C151.179 226.528 150.667 225.648 150.667 224.464ZM153.235 224.464C153.235 224.88 153.507 225.2 154.051 225.424C154.595 225.664 155.339 225.784 156.283 225.784C158.299 225.784 159.307 225.344 159.307 224.464C159.307 224.064 159.043 223.744 158.515 223.504C158.003 223.264 157.259 223.144 156.283 223.144C155.323 223.144 154.571 223.264 154.027 223.504C153.499 223.744 153.235 224.064 153.235 224.464ZM154.795 214.696C154.427 215.048 154.243 215.48 154.243 215.992C154.243 216.504 154.427 216.928 154.795 217.264C155.163 217.584 155.651 217.744 156.259 217.744C156.851 217.744 157.331 217.584 157.699 217.264C158.083 216.944 158.275 216.52 158.275 215.992C158.275 215.464 158.091 215.032 157.723 214.696C157.371 214.344 156.883 214.168 156.259 214.168C155.651 214.168 155.163 214.344 154.795 214.696ZM172.531 219.976L173.323 221.92C172.267 222.816 170.891 223.264 169.195 223.264C167.451 223.264 166.043 222.744 164.971 221.704C163.915 220.664 163.387 219.296 163.387 217.6C163.387 215.984 163.907 214.64 164.947 213.568C165.987 212.48 167.371 211.936 169.099 211.936C170.523 211.936 171.731 212.408 172.723 213.352C173.715 214.28 174.211 215.48 174.211 216.952C174.211 217.56 174.155 218.056 174.043 218.44H166.243C166.355 219.24 166.707 219.864 167.299 220.312C167.891 220.744 168.619 220.96 169.483 220.96C170.699 220.96 171.715 220.632 172.531 219.976ZM168.979 214.24C167.411 214.24 166.467 215.024 166.147 216.592H171.451C171.467 215.92 171.251 215.36 170.803 214.912C170.355 214.464 169.747 214.24 168.979 214.24ZM176.434 223V212.2H179.194V213.28C179.978 212.432 181.01 212.008 182.29 212.008C185.25 212.008 186.73 213.56 186.73 216.664V223H183.97V217.144C183.97 215.448 183.162 214.6 181.546 214.6C180.666 214.6 179.882 214.944 179.194 215.632V223H176.434ZM189.08 221.2C189.08 220.752 189.256 220.344 189.608 219.976C189.96 219.608 190.424 219.424 191 219.424C191.496 219.424 191.912 219.608 192.248 219.976C192.584 220.344 192.752 220.752 192.752 221.2C192.752 221.712 192.584 222.16 192.248 222.544C191.912 222.928 191.496 223.12 191 223.12C190.424 223.12 189.96 222.928 189.608 222.544C189.256 222.16 189.08 221.712 189.08 221.2ZM195.372 222.064V206.2H198.132V212.872C198.932 212.248 199.884 211.936 200.988 211.936C202.572 211.936 203.82 212.448 204.732 213.472C205.66 214.48 206.124 215.8 206.124 217.432C206.124 219.208 205.564 220.624 204.444 221.68C203.34 222.736 201.844 223.264 199.956 223.264C199.108 223.264 198.26 223.152 197.412 222.928C196.58 222.688 195.9 222.4 195.372 222.064ZM200.34 214.528C199.46 214.528 198.724 214.872 198.132 215.56V220.144C198.708 220.512 199.364 220.696 200.1 220.696C200.996 220.696 201.732 220.424 202.308 219.88C202.884 219.32 203.172 218.568 203.172 217.624C203.172 216.632 202.9 215.872 202.356 215.344C201.828 214.8 201.156 214.528 200.34 214.528ZM218.515 212.2L214.267 223C213.499 224.872 212.811 226.136 212.203 226.792C211.611 227.464 210.907 227.8 210.09 227.8C209.307 227.8 208.531 227.52 207.763 226.96L208.651 224.872C209.083 225.128 209.459 225.256 209.779 225.256C210.435 225.256 210.987 224.696 211.435 223.576L211.675 223L206.683 212.2H209.995L212.515 218.104C212.611 218.344 212.787 218.864 213.043 219.664C213.171 218.96 213.299 218.432 213.427 218.08L215.371 212.2H218.515Z" fill="#141414"/>
<rect x="1.5" y="173.5" width="283" height="86" rx="6.5" stroke="#274BB8" stroke-width="3"/>
<path d="M395.834 212.2L391.178 223.048H389.138L384.17 212.2H387.458L389.45 216.832C389.802 217.616 390.074 218.432 390.266 219.28C390.474 218.384 390.738 217.552 391.058 216.784L392.93 212.2H395.834ZM397.847 221.68C396.775 220.608 396.239 219.248 396.239 217.6C396.239 215.952 396.775 214.6 397.847 213.544C398.935 212.472 400.359 211.936 402.119 211.936C403.879 211.936 405.295 212.472 406.367 213.544C407.455 214.6 407.999 215.952 407.999 217.6C407.999 219.248 407.455 220.608 406.367 221.68C405.295 222.736 403.879 223.264 402.119 223.264C400.359 223.264 398.935 222.736 397.847 221.68ZM399.191 217.6C399.191 218.496 399.463 219.24 400.007 219.832C400.567 220.408 401.271 220.696 402.119 220.696C402.983 220.696 403.687 220.416 404.231 219.856C404.791 219.28 405.071 218.528 405.071 217.6C405.071 216.704 404.791 215.968 404.231 215.392C403.671 214.816 402.967 214.528 402.119 214.528C401.287 214.528 400.591 214.816 400.031 215.392C399.471 215.952 399.191 216.688 399.191 217.6ZM410.388 220.024V206.2H413.148V218.896C413.148 220.064 413.46 220.648 414.084 220.648C414.436 220.648 414.812 220.504 415.212 220.216L415.788 222.328C415.036 222.936 414.084 223.24 412.932 223.24C411.236 223.24 410.388 222.168 410.388 220.024ZM427.711 212.2L423.655 217.144L428.191 223H424.639L420.367 217.36L424.231 212.2H427.711ZM417.559 223V206.2H420.319V223H417.559ZM434.952 220.696C435.224 220.52 435.36 220.272 435.36 219.952C435.36 219.632 435.16 219.376 434.76 219.184C434.36 218.976 433.872 218.8 433.296 218.656C432.736 218.496 432.168 218.312 431.592 218.104C431.016 217.88 430.528 217.528 430.128 217.048C429.728 216.568 429.528 215.96 429.528 215.224C429.528 214.2 429.896 213.4 430.632 212.824C431.384 212.232 432.336 211.936 433.488 211.936C435.248 211.936 436.616 212.392 437.592 213.304L436.56 215.272C435.68 214.584 434.704 214.24 433.632 214.24C433.232 214.24 432.904 214.336 432.648 214.528C432.408 214.704 432.288 214.92 432.288 215.176C432.288 215.496 432.488 215.76 432.888 215.968C433.288 216.176 433.768 216.352 434.328 216.496C434.904 216.64 435.48 216.816 436.056 217.024C436.632 217.232 437.12 217.576 437.52 218.056C437.92 218.52 438.12 219.104 438.12 219.808C438.12 220.864 437.72 221.704 436.92 222.328C436.136 222.952 435.08 223.264 433.752 223.264C432.824 223.264 431.904 223.064 430.992 222.664C430.096 222.264 429.512 221.848 429.24 221.416L430.584 219.616C430.904 219.968 431.408 220.28 432.096 220.552C432.784 220.824 433.4 220.96 433.944 220.96C434.36 220.96 434.696 220.872 434.952 220.696ZM456.2 212.2L452.792 223.048H450.32L448.016 217.048C447.952 216.888 447.88 216.648 447.8 216.328C447.72 216.008 447.672 215.824 447.656 215.776C447.56 216.24 447.432 216.68 447.272 217.096L444.992 223.048H442.64L439.136 212.2H442.088L443.816 218.08C443.88 218.272 443.984 218.752 444.128 219.52C444.32 218.768 444.456 218.288 444.536 218.08L446.552 212.2H449L451.088 218.056C451.2 218.376 451.336 218.872 451.496 219.544C451.56 219.208 451.672 218.688 451.832 217.984L453.416 212.2H456.2ZM458.689 214.984L457.993 212.968C459.161 212.28 460.433 211.936 461.809 211.936C463.345 211.936 464.449 212.312 465.121 213.064C465.793 213.816 466.129 214.936 466.129 216.424V223H463.729V221.752C463.073 222.68 462.009 223.144 460.537 223.144C459.529 223.144 458.713 222.848 458.089 222.256C457.465 221.664 457.153 220.856 457.153 219.832C457.153 218.696 457.521 217.832 458.257 217.24C458.993 216.632 459.937 216.328 461.089 216.328C462.081 216.328 462.897 216.56 463.537 217.024C463.569 216.08 463.433 215.384 463.129 214.936C462.825 214.472 462.289 214.24 461.521 214.24C460.721 214.24 459.777 214.488 458.689 214.984ZM461.449 220.816C462.377 220.816 463.073 220.488 463.537 219.832V218.728C463.073 218.376 462.441 218.2 461.641 218.2C461.145 218.2 460.729 218.32 460.393 218.56C460.073 218.784 459.913 219.112 459.913 219.544C459.913 219.944 460.057 220.256 460.345 220.48C460.633 220.704 461.001 220.816 461.449 220.816ZM467.542 224.464C467.542 223.6 467.854 222.888 468.478 222.328C469.118 221.752 469.974 221.352 471.046 221.128C470.918 220.904 470.854 220.656 470.854 220.384C470.854 220.08 470.934 219.824 471.094 219.616C470.294 219.296 469.662 218.816 469.198 218.176C468.75 217.52 468.526 216.792 468.526 215.992C468.526 214.872 468.95 213.92 469.798 213.136C470.646 212.336 471.758 211.936 473.134 211.936C474.174 211.936 475.094 212.192 475.894 212.704L479.158 211.984L479.254 214.192L477.454 214.6C477.63 215.048 477.718 215.512 477.718 215.992C477.718 217.096 477.294 218.04 476.446 218.824C475.598 219.592 474.494 219.976 473.134 219.976H472.942C472.91 220.072 472.894 220.208 472.894 220.384C472.894 220.592 472.942 220.776 473.038 220.936H473.158C474.822 220.936 476.174 221.232 477.214 221.824C478.254 222.416 478.774 223.296 478.774 224.464C478.774 225.632 478.254 226.512 477.214 227.104C476.174 227.696 474.822 227.992 473.158 227.992C471.478 227.992 470.118 227.696 469.078 227.104C468.054 226.528 467.542 225.648 467.542 224.464ZM470.11 224.464C470.11 224.88 470.382 225.2 470.926 225.424C471.47 225.664 472.214 225.784 473.158 225.784C475.174 225.784 476.182 225.344 476.182 224.464C476.182 224.064 475.918 223.744 475.39 223.504C474.878 223.264 474.134 223.144 473.158 223.144C472.198 223.144 471.446 223.264 470.902 223.504C470.374 223.744 470.11 224.064 470.11 224.464ZM471.67 214.696C471.302 215.048 471.118 215.48 471.118 215.992C471.118 216.504 471.302 216.928 471.67 217.264C472.038 217.584 472.526 217.744 473.134 217.744C473.726 217.744 474.206 217.584 474.574 217.264C474.958 216.944 475.15 216.52 475.15 215.992C475.15 215.464 474.966 215.032 474.598 214.696C474.246 214.344 473.758 214.168 473.134 214.168C472.526 214.168 472.038 214.344 471.67 214.696ZM489.406 219.976L490.198 221.92C489.142 222.816 487.766 223.264 486.07 223.264C484.326 223.264 482.918 222.744 481.846 221.704C480.79 220.664 480.262 219.296 480.262 217.6C480.262 215.984 480.782 214.64 481.822 213.568C482.862 212.48 484.246 211.936 485.974 211.936C487.398 211.936 488.606 212.408 489.598 213.352C490.59 214.28 491.086 215.48 491.086 216.952C491.086 217.56 491.03 218.056 490.918 218.44H483.118C483.23 219.24 483.582 219.864 484.174 220.312C484.766 220.744 485.494 220.96 486.358 220.96C487.574 220.96 488.59 220.632 489.406 219.976ZM485.854 214.24C484.286 214.24 483.342 215.024 483.022 216.592H488.326C488.342 215.92 488.126 215.36 487.678 214.912C487.23 214.464 486.622 214.24 485.854 214.24ZM493.309 223V212.2H496.069V213.28C496.853 212.432 497.885 212.008 499.165 212.008C502.125 212.008 503.605 213.56 503.605 216.664V223H500.845V217.144C500.845 215.448 500.037 214.6 498.421 214.6C497.541 214.6 496.757 214.944 496.069 215.632V223H493.309ZM506.363 217.72V215.152H512.411V217.72H506.363ZM531.826 215.944V223H529.066V216.664C529.066 215.288 528.45 214.6 527.218 214.6C526.162 214.6 525.418 215.016 524.986 215.848C524.986 215.896 524.986 216.024 524.986 216.232C525.002 216.424 525.01 216.56 525.01 216.64V223H522.25V216.472C522.25 215.896 522.09 215.44 521.77 215.104C521.466 214.768 521.026 214.6 520.45 214.6C519.458 214.6 518.706 214.984 518.194 215.752V223H515.434V212.2H518.194V213.4C519.026 212.472 520.154 212.008 521.578 212.008C522.378 212.008 523.05 212.168 523.594 212.488C524.138 212.808 524.514 213.224 524.722 213.736C525.602 212.584 526.818 212.008 528.37 212.008C530.674 212.008 531.826 213.32 531.826 215.944ZM535.038 223V212.2H537.798V223H535.038ZM534.75 208.312C534.75 207.832 534.918 207.448 535.254 207.16C535.59 206.856 535.998 206.704 536.478 206.704C536.894 206.704 537.262 206.856 537.582 207.16C537.902 207.448 538.062 207.832 538.062 208.312C538.062 208.84 537.902 209.264 537.582 209.584C537.262 209.888 536.894 210.04 536.478 210.04C535.982 210.04 535.566 209.888 535.23 209.584C534.91 209.264 534.75 208.84 534.75 208.312ZM541.286 223V212.2H544.046V213.28C544.83 212.432 545.862 212.008 547.142 212.008C550.102 212.008 551.582 213.56 551.582 216.664V223H548.822V217.144C548.822 215.448 548.014 214.6 546.398 214.6C545.518 214.6 544.734 214.944 544.046 215.632V223H541.286ZM559.452 220.696C559.724 220.52 559.86 220.272 559.86 219.952C559.86 219.632 559.66 219.376 559.26 219.184C558.86 218.976 558.372 218.8 557.796 218.656C557.236 218.496 556.668 218.312 556.092 218.104C555.516 217.88 555.028 217.528 554.628 217.048C554.228 216.568 554.028 215.96 554.028 215.224C554.028 214.2 554.396 213.4 555.132 212.824C555.884 212.232 556.836 211.936 557.988 211.936C559.748 211.936 561.116 212.392 562.092 213.304L561.06 215.272C560.18 214.584 559.204 214.24 558.132 214.24C557.732 214.24 557.404 214.336 557.148 214.528C556.908 214.704 556.788 214.92 556.788 215.176C556.788 215.496 556.988 215.76 557.388 215.968C557.788 216.176 558.268 216.352 558.828 216.496C559.404 216.64 559.98 216.816 560.556 217.024C561.132 217.232 561.62 217.576 562.02 218.056C562.42 218.52 562.62 219.104 562.62 219.808C562.62 220.864 562.22 221.704 561.42 222.328C560.636 222.952 559.58 223.264 558.252 223.264C557.324 223.264 556.404 223.064 555.492 222.664C554.596 222.264 554.012 221.848 553.74 221.416L555.084 219.616C555.404 219.968 555.908 220.28 556.596 220.552C557.284 220.824 557.9 220.96 558.444 220.96C558.86 220.96 559.196 220.872 559.452 220.696ZM575.204 212.2L571.148 217.144L575.684 223H572.132L567.86 217.36L571.724 212.2H575.204ZM565.052 223V206.2H567.812V223H565.052ZM577.205 221.2C577.205 220.752 577.381 220.344 577.733 219.976C578.085 219.608 578.549 219.424 579.125 219.424C579.621 219.424 580.037 219.608 580.373 219.976C580.709 220.344 580.877 220.752 580.877 221.2C580.877 221.712 580.709 222.16 580.373 222.544C580.037 222.928 579.621 223.12 579.125 223.12C578.549 223.12 578.085 222.928 577.733 222.544C577.381 222.16 577.205 221.712 577.205 221.2ZM583.497 222.064V206.2H586.257V212.872C587.057 212.248 588.009 211.936 589.113 211.936C590.697 211.936 591.945 212.448 592.857 213.472C593.785 214.48 594.249 215.8 594.249 217.432C594.249 219.208 593.689 220.624 592.569 221.68C591.465 222.736 589.969 223.264 588.081 223.264C587.233 223.264 586.385 223.152 585.537 222.928C584.705 222.688 584.025 222.4 583.497 222.064ZM588.465 214.528C587.585 214.528 586.849 214.872 586.257 215.56V220.144C586.833 220.512 587.489 220.696 588.225 220.696C589.121 220.696 589.857 220.424 590.433 219.88C591.009 219.32 591.297 218.568 591.297 217.624C591.297 216.632 591.025 215.872 590.481 215.344C589.953 214.8 589.281 214.528 588.465 214.528ZM606.64 212.2L602.392 223C601.624 224.872 600.936 226.136 600.328 226.792C599.736 227.464 599.032 227.8 598.215 227.8C597.432 227.8 596.656 227.52 595.888 226.96L596.776 224.872C597.208 225.128 597.584 225.256 597.904 225.256C598.56 225.256 599.112 224.696 599.56 223.576L599.8 223L594.808 212.2H598.12L600.64 218.104C600.736 218.344 600.912 218.864 601.168 219.664C601.296 218.96 601.424 218.432 601.552 218.08L603.496 212.2H606.64Z" fill="#141414"/>
<rect x="337.5" y="173.5" width="316" height="86" rx="6.5" stroke="#274BB8" stroke-width="3"/>
<path d="M764.893 212.2L760.237 223.048H758.197L753.229 212.2H756.517L758.509 216.832C758.861 217.616 759.133 218.432 759.325 219.28C759.533 218.384 759.797 217.552 760.117 216.784L761.989 212.2H764.893ZM782.039 212.2L778.631 223.048H776.159L773.855 217.048C773.791 216.888 773.719 216.648 773.639 216.328C773.559 216.008 773.511 215.824 773.495 215.776C773.399 216.24 773.271 216.68 773.111 217.096L770.831 223.048H768.479L764.975 212.2H767.927L769.655 218.08C769.719 218.272 769.823 218.752 769.967 219.52C770.159 218.768 770.295 218.288 770.375 218.08L772.391 212.2H774.839L776.927 218.056C777.039 218.376 777.175 218.872 777.335 219.544C777.399 219.208 777.511 218.688 777.671 217.984L779.255 212.2H782.039ZM783.64 217.72V215.152H789.688V217.72H783.64ZM801.318 219.376L802.614 221.392C802.166 222 801.558 222.464 800.79 222.784C800.038 223.104 799.214 223.264 798.318 223.264C796.558 223.264 795.142 222.744 794.07 221.704C792.998 220.664 792.462 219.296 792.462 217.6C792.462 216 792.99 214.656 794.046 213.568C795.102 212.48 796.438 211.936 798.054 211.936C799.974 211.936 801.422 212.424 802.398 213.4L801.102 215.584C800.382 214.88 799.486 214.528 798.414 214.528C797.614 214.528 796.91 214.816 796.302 215.392C795.71 215.952 795.414 216.688 795.414 217.6C795.414 218.528 795.718 219.28 796.326 219.856C796.95 220.416 797.686 220.696 798.534 220.696C799.59 220.696 800.518 220.256 801.318 219.376ZM805.179 221.68C804.107 220.608 803.571 219.248 803.571 217.6C803.571 215.952 804.107 214.6 805.179 213.544C806.267 212.472 807.691 211.936 809.451 211.936C811.211 211.936 812.627 212.472 813.699 213.544C814.787 214.6 815.331 215.952 815.331 217.6C815.331 219.248 814.787 220.608 813.699 221.68C812.627 222.736 811.211 223.264 809.451 223.264C807.691 223.264 806.267 222.736 805.179 221.68ZM806.523 217.6C806.523 218.496 806.795 219.24 807.339 219.832C807.899 220.408 808.603 220.696 809.451 220.696C810.315 220.696 811.019 220.416 811.563 219.856C812.123 219.28 812.403 218.528 812.403 217.6C812.403 216.704 812.123 215.968 811.563 215.392C811.003 214.816 810.299 214.528 809.451 214.528C808.619 214.528 807.923 214.816 807.363 215.392C806.803 215.952 806.523 216.688 806.523 217.6ZM834.112 215.944V223H831.352V216.664C831.352 215.288 830.736 214.6 829.504 214.6C828.448 214.6 827.704 215.016 827.272 215.848C827.272 215.896 827.272 216.024 827.272 216.232C827.288 216.424 827.296 216.56 827.296 216.64V223H824.536V216.472C824.536 215.896 824.376 215.44 824.056 215.104C823.752 214.768 823.312 214.6 822.736 214.6C821.744 214.6 820.992 214.984 820.48 215.752V223H817.72V212.2H820.48V213.4C821.312 212.472 822.44 212.008 823.864 212.008C824.664 212.008 825.336 212.168 825.88 212.488C826.424 212.808 826.8 213.224 827.008 213.736C827.888 212.584 829.104 212.008 830.656 212.008C832.96 212.008 834.112 213.32 834.112 215.944ZM853.307 215.944V223H850.547V216.664C850.547 215.288 849.931 214.6 848.699 214.6C847.643 214.6 846.899 215.016 846.467 215.848C846.467 215.896 846.467 216.024 846.467 216.232C846.483 216.424 846.491 216.56 846.491 216.64V223H843.731V216.472C843.731 215.896 843.571 215.44 843.251 215.104C842.947 214.768 842.507 214.6 841.931 214.6C840.939 214.6 840.187 214.984 839.675 215.752V223H836.915V212.2H839.675V213.4C840.507 212.472 841.635 212.008 843.059 212.008C843.859 212.008 844.531 212.168 845.075 212.488C845.619 212.808 845.995 213.224 846.203 213.736C847.083 212.584 848.299 212.008 849.851 212.008C852.155 212.008 853.307 213.32 853.307 215.944ZM864.582 219.976L865.374 221.92C864.318 222.816 862.942 223.264 861.246 223.264C859.502 223.264 858.094 222.744 857.022 221.704C855.966 220.664 855.438 219.296 855.438 217.6C855.438 215.984 855.958 214.64 856.998 213.568C858.038 212.48 859.422 211.936 861.15 211.936C862.574 211.936 863.782 212.408 864.774 213.352C865.766 214.28 866.262 215.48 866.262 216.952C866.262 217.56 866.206 218.056 866.094 218.44H858.294C858.406 219.24 858.758 219.864 859.35 220.312C859.942 220.744 860.67 220.96 861.534 220.96C862.75 220.96 863.766 220.632 864.582 219.976ZM861.03 214.24C859.462 214.24 858.518 215.024 858.198 216.592H863.502C863.518 215.92 863.302 215.36 862.854 214.912C862.406 214.464 861.798 214.24 861.03 214.24ZM868.485 223V212.2H871.245V213.256C871.853 212.424 872.677 212.008 873.717 212.008C874.469 212.008 875.029 212.144 875.397 212.416L874.413 215.008C873.949 214.736 873.485 214.6 873.021 214.6C872.221 214.6 871.629 214.984 871.245 215.752V223H868.485ZM885.154 219.376L886.45 221.392C886.002 222 885.394 222.464 884.626 222.784C883.874 223.104 883.05 223.264 882.154 223.264C880.394 223.264 878.978 222.744 877.906 221.704C876.834 220.664 876.298 219.296 876.298 217.6C876.298 216 876.826 214.656 877.882 213.568C878.938 212.48 880.274 211.936 881.89 211.936C883.81 211.936 885.258 212.424 886.234 213.4L884.938 215.584C884.218 214.88 883.322 214.528 882.25 214.528C881.45 214.528 880.746 214.816 880.138 215.392C879.546 215.952 879.25 216.688 879.25 217.6C879.25 218.528 879.554 219.28 880.162 219.856C880.786 220.416 881.522 220.696 882.37 220.696C883.426 220.696 884.354 220.256 885.154 219.376ZM889.073 223V212.2H891.833V223H889.073ZM888.785 208.312C888.785 207.832 888.953 207.448 889.289 207.16C889.625 206.856 890.033 206.704 890.513 206.704C890.929 206.704 891.297 206.856 891.617 207.16C891.937 207.448 892.097 207.832 892.097 208.312C892.097 208.84 891.937 209.264 891.617 209.584C891.297 209.888 890.929 210.04 890.513 210.04C890.017 210.04 889.601 209.888 889.265 209.584C888.945 209.264 888.785 208.84 888.785 208.312ZM896.161 214.984L895.465 212.968C896.633 212.28 897.905 211.936 899.281 211.936C900.817 211.936 901.921 212.312 902.593 213.064C903.265 213.816 903.601 214.936 903.601 216.424V223H901.201V221.752C900.545 222.68 899.481 223.144 898.009 223.144C897.001 223.144 896.185 222.848 895.561 222.256C894.937 221.664 894.625 220.856 894.625 219.832C894.625 218.696 894.993 217.832 895.729 217.24C896.465 216.632 897.409 216.328 898.561 216.328C899.553 216.328 900.369 216.56 901.009 217.024C901.041 216.08 900.905 215.384 900.601 214.936C900.297 214.472 899.761 214.24 898.993 214.24C898.193 214.24 897.249 214.488 896.161 214.984ZM898.921 220.816C899.849 220.816 900.545 220.488 901.009 219.832V218.728C900.545 218.376 899.913 218.2 899.113 218.2C898.617 218.2 898.201 218.32 897.865 218.56C897.545 218.784 897.385 219.112 897.385 219.544C897.385 219.944 897.529 220.256 897.817 220.48C898.105 220.704 898.473 220.816 898.921 220.816ZM906.431 220.024V206.2H909.191V218.896C909.191 220.064 909.503 220.648 910.127 220.648C910.479 220.648 910.855 220.504 911.255 220.216L911.831 222.328C911.079 222.936 910.127 223.24 908.975 223.24C907.279 223.24 906.431 222.168 906.431 220.024ZM913.146 221.2C913.146 220.752 913.322 220.344 913.674 219.976C914.026 219.608 914.49 219.424 915.066 219.424C915.562 219.424 915.978 219.608 916.314 219.976C916.65 220.344 916.818 220.752 916.818 221.2C916.818 221.712 916.65 222.16 916.314 222.544C915.978 222.928 915.562 223.12 915.066 223.12C914.49 223.12 914.026 222.928 913.674 222.544C913.322 222.16 913.146 221.712 913.146 221.2ZM919.438 222.064V206.2H922.198V212.872C922.998 212.248 923.95 211.936 925.054 211.936C926.638 211.936 927.886 212.448 928.798 213.472C929.726 214.48 930.19 215.8 930.19 217.432C930.19 219.208 929.63 220.624 928.51 221.68C927.406 222.736 925.91 223.264 924.022 223.264C923.174 223.264 922.326 223.152 921.478 222.928C920.646 222.688 919.966 222.4 919.438 222.064ZM924.406 214.528C923.526 214.528 922.79 214.872 922.198 215.56V220.144C922.774 220.512 923.43 220.696 924.166 220.696C925.062 220.696 925.798 220.424 926.374 219.88C926.95 219.32 927.238 218.568 927.238 217.624C927.238 216.632 926.966 215.872 926.422 215.344C925.894 214.8 925.222 214.528 924.406 214.528ZM942.581 212.2L938.333 223C937.565 224.872 936.877 226.136 936.269 226.792C935.677 227.464 934.973 227.8 934.157 227.8C933.373 227.8 932.597 227.52 931.829 226.96L932.717 224.872C933.149 225.128 933.525 225.256 933.845 225.256C934.501 225.256 935.053 224.696 935.501 223.576L935.741 223L930.749 212.2H934.061L936.581 218.104C936.677 218.344 936.853 218.864 937.109 219.664C937.237 218.96 937.365 218.432 937.493 218.08L939.437 212.2H942.581Z" fill="#141414"/>
<rect x="706.5" y="173.5" width="283" height="86" rx="6.5" stroke="#274BB8" stroke-width="3"/>
<path d="M495.531 161.996L501.305 151.996H489.758L495.531 161.996ZM494.531 101.996V152.996H496.531V101.996H494.531Z" fill="#C5CDCF"/>
<path d="M142.486 164.738L148.26 154.738L136.713 154.738L142.486 164.738ZM141.486 153L141.486 155.738H143.486L143.486 153H141.486ZM162.486 134H475.486V132H162.486V134ZM496.486 113V99.7383H494.486V113H496.486ZM475.486 134C487.084 134 496.486 124.598 496.486 113H494.486C494.486 123.493 485.98 132 475.486 132V134ZM143.486 153C143.486 142.507 151.993 134 162.486 134V132C150.888 132 141.486 141.402 141.486 153H143.486Z" fill="#C5CDCF"/>
<path d="M849 165L843.226 155H854.773L849 165ZM850 155V156H848V155H850ZM829 136H516V134H829V136ZM495 115V100H497V115H495ZM516 136C504.402 136 495 126.598 495 115H497C497 125.493 505.507 134 516 134V136ZM848 155C848 144.507 839.493 136 829 136V134C840.598 134 850 143.402 850 155H848Z" fill="#C5CDCF"/>
</svg>
