<svg width="1570" height="75" viewBox="0 0 1570 75" fill="none" xmlns="http://www.w3.org/2000/svg">
<path d="M33.1991 44V27.2H36.1751L41.9111 35.048L47.3831 27.2H50.1671V44H47.2391V31.856L41.9351 39.32H41.5031L36.1511 31.928V44H33.1991ZM54.9759 42.68C53.9039 41.608 53.3679 40.248 53.3679 38.6C53.3679 36.952 53.9039 35.6 54.9759 34.544C56.0639 33.472 57.4879 32.936 59.2479 32.936C61.0079 32.936 62.4239 33.472 63.4959 34.544C64.5839 35.6 65.1279 36.952 65.1279 38.6C65.1279 40.248 64.5839 41.608 63.4959 42.68C62.4239 43.736 61.0079 44.264 59.2479 44.264C57.4879 44.264 56.0639 43.736 54.9759 42.68ZM56.3199 38.6C56.3199 39.496 56.5919 40.24 57.1359 40.832C57.6959 41.408 58.3999 41.696 59.2479 41.696C60.1119 41.696 60.8159 41.416 61.3599 40.856C61.9199 40.28 62.1999 39.528 62.1999 38.6C62.1999 37.704 61.9199 36.968 61.3599 36.392C60.7999 35.816 60.0959 35.528 59.2479 35.528C58.4159 35.528 57.7199 35.816 57.1599 36.392C56.5999 36.952 56.3199 37.688 56.3199 38.6ZM65.8689 46.52V41.432H67.2369C68.0849 40.312 68.5889 38.432 68.7489 35.792L68.9169 33.2H76.8849V41.432H78.6849V46.52H76.0929V44H68.4369V46.52H65.8689ZM71.4129 36.896C71.2209 38.992 70.7889 40.504 70.1169 41.432H74.1249V35.792H71.4849L71.4129 36.896ZM88.9728 40.976L89.7648 42.92C88.7088 43.816 87.3328 44.264 85.6368 44.264C83.8928 44.264 82.4848 43.744 81.4128 42.704C80.3568 41.664 79.8288 40.296 79.8288 38.6C79.8288 36.984 80.3488 35.64 81.3888 34.568C82.4288 33.48 83.8128 32.936 85.5408 32.936C86.9648 32.936 88.1728 33.408 89.1648 34.352C90.1568 35.28 90.6528 36.48 90.6528 37.952C90.6528 38.56 90.5968 39.056 90.4848 39.44H82.6848C82.7968 40.24 83.1488 40.864 83.7408 41.312C84.3328 41.744 85.0608 41.96 85.9248 41.96C87.1408 41.96 88.1568 41.632 88.9728 40.976ZM85.4208 35.24C83.8528 35.24 82.9088 36.024 82.5888 37.592H87.8928C87.9088 36.92 87.6928 36.36 87.2448 35.912C86.7968 35.464 86.1888 35.24 85.4208 35.24ZM99.6283 44V35.96H96.7723L96.7003 37.112C96.5243 39.048 96.2283 40.536 95.8123 41.576C95.4123 42.616 94.9003 43.32 94.2763 43.688C93.6683 44.04 92.8523 44.216 91.8283 44.216L91.5883 41.528C91.9403 41.56 92.2683 41.464 92.5723 41.24C92.8923 41 93.1963 40.488 93.4843 39.704C93.7723 38.904 93.9563 37.856 94.0363 36.56L94.2043 33.2H102.388V44H99.6283ZM105.462 44V33.2H108.222V36.152H109.71C111.406 36.152 112.622 36.504 113.358 37.208C114.094 37.912 114.462 38.808 114.462 39.896C114.462 41.064 114.062 42.04 113.262 42.824C112.462 43.608 111.206 44 109.494 44H105.462ZM109.47 38.36H108.222V41.6H109.446C110.838 41.6 111.534 41.064 111.534 39.992C111.534 38.904 110.846 38.36 109.47 38.36Z" fill="white"/>
<rect x="1.5" y="1.5" width="143" height="72" rx="6.5" stroke="#005DED" stroke-width="3"/>
<path d="M270.609 44V27.2H273.561V35.168L280.185 27.2H283.737L276.825 35.024L284.169 44H280.425L273.561 35.336V44H270.609ZM285.8 42.68C284.728 41.608 284.192 40.248 284.192 38.6C284.192 36.952 284.728 35.6 285.8 34.544C286.888 33.472 288.312 32.936 290.072 32.936C291.832 32.936 293.248 33.472 294.32 34.544C295.408 35.6 295.952 36.952 295.952 38.6C295.952 40.248 295.408 41.608 294.32 42.68C293.248 43.736 291.832 44.264 290.072 44.264C288.312 44.264 286.888 43.736 285.8 42.68ZM287.144 38.6C287.144 39.496 287.416 40.24 287.96 40.832C288.52 41.408 289.224 41.696 290.072 41.696C290.936 41.696 291.64 41.416 292.184 40.856C292.744 40.28 293.024 39.528 293.024 38.6C293.024 37.704 292.744 36.968 292.184 36.392C291.624 35.816 290.92 35.528 290.072 35.528C289.24 35.528 288.544 35.816 287.984 36.392C287.424 36.952 287.144 37.688 287.144 38.6ZM298.341 44V33.2H300.837L304.509 37.712L307.989 33.2H310.413V44H307.653V37.4L304.461 41.432H304.389L301.101 37.4V44H298.341ZM320.849 44V35.792H316.241V44H313.481V33.2H323.609V44H320.849ZM333.781 44V35.96H330.925L330.853 37.112C330.677 39.048 330.381 40.536 329.965 41.576C329.565 42.616 329.053 43.32 328.429 43.688C327.821 44.04 327.005 44.216 325.981 44.216L325.741 41.528C326.093 41.56 326.421 41.464 326.725 41.24C327.045 41 327.349 40.488 327.637 39.704C327.925 38.904 328.109 37.856 328.189 36.56L328.357 33.2H336.541V44H333.781ZM348.086 40.976L348.878 42.92C347.822 43.816 346.446 44.264 344.75 44.264C343.006 44.264 341.598 43.744 340.526 42.704C339.47 41.664 338.942 40.296 338.942 38.6C338.942 36.984 339.462 35.64 340.502 34.568C341.542 33.48 342.926 32.936 344.654 32.936C346.078 32.936 347.286 33.408 348.278 34.352C349.27 35.28 349.766 36.48 349.766 37.952C349.766 38.56 349.71 39.056 349.598 39.44H341.798C341.91 40.24 342.262 40.864 342.854 41.312C343.446 41.744 344.174 41.96 345.038 41.96C346.254 41.96 347.27 41.632 348.086 40.976ZM344.534 35.24C342.966 35.24 342.022 36.024 341.702 37.592H347.006C347.022 36.92 346.806 36.36 346.358 35.912C345.91 35.464 345.302 35.24 344.534 35.24ZM362.213 33.2L358.061 38.336L362.717 44H359.117L354.845 38.552L358.733 33.2H362.213ZM351.989 44V33.2H354.749V44H351.989ZM363.213 35.96V33.2H373.053V35.96H369.525V44H366.765V35.96H363.213ZM375.868 35.984L375.172 33.968C376.34 33.28 377.612 32.936 378.988 32.936C380.524 32.936 381.628 33.312 382.3 34.064C382.972 34.816 383.308 35.936 383.308 37.424V44H380.908V42.752C380.252 43.68 379.188 44.144 377.716 44.144C376.708 44.144 375.892 43.848 375.268 43.256C374.644 42.664 374.332 41.856 374.332 40.832C374.332 39.696 374.7 38.832 375.436 38.24C376.172 37.632 377.116 37.328 378.268 37.328C379.26 37.328 380.076 37.56 380.716 38.024C380.748 37.08 380.612 36.384 380.308 35.936C380.004 35.472 379.468 35.24 378.7 35.24C377.9 35.24 376.956 35.488 375.868 35.984ZM378.628 41.816C379.556 41.816 380.252 41.488 380.716 40.832V39.728C380.252 39.376 379.62 39.2 378.82 39.2C378.324 39.2 377.908 39.32 377.572 39.56C377.252 39.784 377.092 40.112 377.092 40.544C377.092 40.944 377.236 41.256 377.524 41.48C377.812 41.704 378.18 41.816 378.628 41.816ZM386.138 44V33.2H388.898V41.432H393.338V33.2H396.098V41.432H397.898V46.52H395.306V44H386.138ZM402.491 44H399.731V33.2H402.491V40.04L407.531 33.2H410.291V44H407.531V37.16L402.491 44ZM418.652 33.2H422.18V44H419.42V40.76H417.884L415.652 44H412.484L415.364 40.16C414.82 39.968 414.332 39.608 413.9 39.08C413.484 38.536 413.276 37.856 413.276 37.04C413.276 35.904 413.708 34.984 414.572 34.28C415.452 33.56 416.812 33.2 418.652 33.2ZM416.228 37.232C416.228 37.664 416.404 38.024 416.756 38.312C417.124 38.584 417.532 38.72 417.98 38.72H419.42V35.6H418.196C417.572 35.6 417.084 35.76 416.732 36.08C416.396 36.4 416.228 36.784 416.228 37.232Z" fill="white"/>
<rect x="237.5" y="1.5" width="217" height="72" rx="6.5" stroke="#005DED" stroke-width="3"/>
<path d="M583.098 44V27.2H586.05V41.24H593.418V27.2H596.37V41.24H598.65V47H595.89V44H583.098ZM600.774 44V33.2C600.966 33.2 601.318 33.192 601.83 33.176C602.358 33.144 602.894 33.12 603.438 33.104C603.998 33.088 604.526 33.08 605.022 33.08C608.286 33.08 609.918 34.024 609.918 35.912C609.918 36.536 609.718 37.072 609.318 37.52C608.934 37.968 608.462 38.232 607.902 38.312V38.36C609.438 38.728 610.206 39.56 610.206 40.856C610.206 43.032 608.494 44.12 605.07 44.12C604.59 44.12 603.83 44.096 602.79 44.048C601.75 44.016 601.078 44 600.774 44ZM605.262 39.416H603.534V41.816C604.622 41.88 605.23 41.912 605.358 41.912C605.966 41.912 606.438 41.8 606.774 41.576C607.126 41.352 607.302 41.048 607.302 40.664C607.302 39.832 606.622 39.416 605.262 39.416ZM605.262 35.312C604.494 35.312 603.918 35.328 603.534 35.36V37.736H605.334C605.814 37.736 606.206 37.632 606.51 37.424C606.83 37.2 606.99 36.888 606.99 36.488C606.99 35.704 606.414 35.312 605.262 35.312ZM621.293 40.976L622.085 42.92C621.029 43.816 619.653 44.264 617.957 44.264C616.213 44.264 614.805 43.744 613.733 42.704C612.677 41.664 612.149 40.296 612.149 38.6C612.149 36.984 612.669 35.64 613.709 34.568C614.749 33.48 616.133 32.936 617.861 32.936C619.285 32.936 620.493 33.408 621.485 34.352C622.477 35.28 622.973 36.48 622.973 37.952C622.973 38.56 622.917 39.056 622.805 39.44H615.005C615.117 40.24 615.469 40.864 616.061 41.312C616.653 41.744 617.381 41.96 618.245 41.96C619.461 41.96 620.477 41.632 621.293 40.976ZM617.741 35.24C616.173 35.24 615.229 36.024 614.909 37.592H620.213C620.229 36.92 620.013 36.36 619.565 35.912C619.117 35.464 618.509 35.24 617.741 35.24ZM623.951 35.96V33.2H633.791V35.96H630.263V44H627.503V35.96H623.951Z" fill="white"/>
<rect x="547.5" y="1.5" width="120" height="72" rx="6.5" stroke="#005DED" stroke-width="3"/>
<path d="M797.719 44V27.2H800.671V35.168L807.295 27.2H810.847L803.935 35.024L811.279 44H807.535L800.671 35.336V44H797.719ZM812.91 42.68C811.838 41.608 811.302 40.248 811.302 38.6C811.302 36.952 811.838 35.6 812.91 34.544C813.998 33.472 815.422 32.936 817.182 32.936C818.942 32.936 820.358 33.472 821.43 34.544C822.518 35.6 823.062 36.952 823.062 38.6C823.062 40.248 822.518 41.608 821.43 42.68C820.358 43.736 818.942 44.264 817.182 44.264C815.422 44.264 813.998 43.736 812.91 42.68ZM814.254 38.6C814.254 39.496 814.526 40.24 815.07 40.832C815.63 41.408 816.334 41.696 817.182 41.696C818.046 41.696 818.75 41.416 819.294 40.856C819.854 40.28 820.134 39.528 820.134 38.6C820.134 37.704 819.854 36.968 819.294 36.392C818.734 35.816 818.03 35.528 817.182 35.528C816.35 35.528 815.654 35.816 815.094 36.392C814.534 36.952 814.254 37.688 814.254 38.6ZM832.203 44V35.96H829.347L829.275 37.112C829.099 39.048 828.803 40.536 828.387 41.576C827.987 42.616 827.475 43.32 826.851 43.688C826.243 44.04 825.427 44.216 824.403 44.216L824.163 41.528C824.515 41.56 824.843 41.464 825.146 41.24C825.467 41 825.771 40.488 826.059 39.704C826.347 38.904 826.531 37.856 826.611 36.56L826.779 33.2H834.963V44H832.203ZM846.508 40.976L847.3 42.92C846.244 43.816 844.868 44.264 843.172 44.264C841.428 44.264 840.02 43.744 838.948 42.704C837.892 41.664 837.364 40.296 837.364 38.6C837.364 36.984 837.884 35.64 838.924 34.568C839.964 33.48 841.348 32.936 843.076 32.936C844.5 32.936 845.708 33.408 846.7 34.352C847.692 35.28 848.188 36.48 848.188 37.952C848.188 38.56 848.132 39.056 848.02 39.44H840.22C840.332 40.24 840.684 40.864 841.276 41.312C841.868 41.744 842.596 41.96 843.46 41.96C844.676 41.96 845.692 41.632 846.508 40.976ZM842.956 35.24C841.388 35.24 840.444 36.024 840.124 37.592H845.428C845.444 36.92 845.228 36.36 844.78 35.912C844.332 35.464 843.724 35.24 842.956 35.24ZM858.525 40.376L859.821 42.392C859.373 43 858.765 43.464 857.997 43.784C857.245 44.104 856.421 44.264 855.525 44.264C853.765 44.264 852.349 43.744 851.277 42.704C850.205 41.664 849.669 40.296 849.669 38.6C849.669 37 850.197 35.656 851.253 34.568C852.309 33.48 853.645 32.936 855.261 32.936C857.181 32.936 858.629 33.424 859.605 34.4L858.309 36.584C857.589 35.88 856.693 35.528 855.621 35.528C854.821 35.528 854.117 35.816 853.509 36.392C852.917 36.952 852.621 37.688 852.621 38.6C852.621 39.528 852.925 40.28 853.533 40.856C854.157 41.416 854.893 41.696 855.741 41.696C856.797 41.696 857.725 41.256 858.525 40.376ZM862.876 35.984L862.18 33.968C863.348 33.28 864.62 32.936 865.996 32.936C867.532 32.936 868.636 33.312 869.308 34.064C869.98 34.816 870.316 35.936 870.316 37.424V44H867.916V42.752C867.26 43.68 866.196 44.144 864.724 44.144C863.716 44.144 862.9 43.848 862.276 43.256C861.652 42.664 861.34 41.856 861.34 40.832C861.34 39.696 861.708 38.832 862.444 38.24C863.18 37.632 864.124 37.328 865.276 37.328C866.268 37.328 867.084 37.56 867.724 38.024C867.756 37.08 867.62 36.384 867.316 35.936C867.012 35.472 866.476 35.24 865.708 35.24C864.908 35.24 863.964 35.488 862.876 35.984ZM865.636 41.816C866.564 41.816 867.26 41.488 867.724 40.832V39.728C867.26 39.376 866.628 39.2 865.828 39.2C865.332 39.2 864.916 39.32 864.58 39.56C864.26 39.784 864.1 40.112 864.1 40.544C864.1 40.944 864.244 41.256 864.532 41.48C864.82 41.704 865.188 41.816 865.636 41.816Z" fill="white"/>
<rect x="760.5" y="1.5" width="146" height="72" rx="6.5" stroke="#005DED" stroke-width="3"/>
<path d="M1045.21 40.16L1046.34 42.368C1045.81 42.928 1045.05 43.384 1044.06 43.736C1043.08 44.088 1042.05 44.264 1040.96 44.264C1038.39 44.264 1036.3 43.472 1034.7 41.888C1033.1 40.304 1032.3 38.208 1032.3 35.6C1032.3 33.088 1033.06 31.016 1034.58 29.384C1036.1 27.752 1038.2 26.936 1040.89 26.936C1043.05 26.936 1044.75 27.504 1046 28.64L1044.68 30.824C1043.55 30.072 1042.28 29.696 1040.89 29.696C1039.31 29.696 1037.99 30.232 1036.95 31.304C1035.93 32.376 1035.42 33.808 1035.42 35.6C1035.42 37.344 1035.95 38.768 1037.03 39.872C1038.11 40.96 1039.51 41.504 1041.23 41.504C1042.71 41.504 1044.04 41.056 1045.21 40.16ZM1049.32 35.984L1048.63 33.968C1049.79 33.28 1051.07 32.936 1052.44 32.936C1053.98 32.936 1055.08 33.312 1055.75 34.064C1056.43 34.816 1056.76 35.936 1056.76 37.424V44H1054.36V42.752C1053.71 43.68 1052.64 44.144 1051.17 44.144C1050.16 44.144 1049.35 43.848 1048.72 43.256C1048.1 42.664 1047.79 41.856 1047.79 40.832C1047.79 39.696 1048.15 38.832 1048.89 38.24C1049.63 37.632 1050.57 37.328 1051.72 37.328C1052.71 37.328 1053.53 37.56 1054.17 38.024C1054.2 37.08 1054.07 36.384 1053.76 35.936C1053.46 35.472 1052.92 35.24 1052.15 35.24C1051.35 35.24 1050.41 35.488 1049.32 35.984ZM1052.08 41.816C1053.01 41.816 1053.71 41.488 1054.17 40.832V39.728C1053.71 39.376 1053.07 39.2 1052.27 39.2C1051.78 39.2 1051.36 39.32 1051.03 39.56C1050.71 39.784 1050.55 40.112 1050.55 40.544C1050.55 40.944 1050.69 41.256 1050.98 41.48C1051.27 41.704 1051.63 41.816 1052.08 41.816ZM1066.69 44V35.96H1063.84L1063.77 37.112C1063.59 39.048 1063.29 40.536 1062.88 41.576C1062.48 42.616 1061.97 43.32 1061.34 43.688C1060.73 44.04 1059.92 44.216 1058.89 44.216L1058.65 41.528C1059.01 41.56 1059.33 41.464 1059.64 41.24C1059.96 41 1060.26 40.488 1060.55 39.704C1060.84 38.904 1061.02 37.856 1061.1 36.56L1061.27 33.2H1069.45V44H1066.69ZM1073.46 42.68C1072.39 41.608 1071.86 40.248 1071.86 38.6C1071.86 36.952 1072.39 35.6 1073.46 34.544C1074.55 33.472 1075.98 32.936 1077.74 32.936C1079.5 32.936 1080.91 33.472 1081.98 34.544C1083.07 35.6 1083.62 36.952 1083.62 38.6C1083.62 40.248 1083.07 41.608 1081.98 42.68C1080.91 43.736 1079.5 44.264 1077.74 44.264C1075.98 44.264 1074.55 43.736 1073.46 42.68ZM1074.81 38.6C1074.81 39.496 1075.08 40.24 1075.62 40.832C1076.18 41.408 1076.89 41.696 1077.74 41.696C1078.6 41.696 1079.3 41.416 1079.85 40.856C1080.41 40.28 1080.69 39.528 1080.69 38.6C1080.69 37.704 1080.41 36.968 1079.85 36.392C1079.29 35.816 1078.58 35.528 1077.74 35.528C1076.9 35.528 1076.21 35.816 1075.65 36.392C1075.09 36.952 1074.81 37.688 1074.81 38.6ZM1093.49 44V39.872H1088.76V44H1086V33.2H1088.76V37.28H1093.49V33.2H1096.25V44H1093.49Z" fill="white"/>
<rect x="999.5" y="1.5" width="130" height="72" rx="6.5" stroke="#005DED" stroke-width="3"/>
<path d="M1253.21 35.6C1253.21 33.136 1254.03 31.08 1255.66 29.432C1257.31 27.768 1259.4 26.936 1261.95 26.936C1264.48 26.936 1266.56 27.736 1268.21 29.336C1269.88 30.936 1270.71 33.024 1270.71 35.6C1270.71 38.112 1269.88 40.184 1268.21 41.816C1266.55 43.448 1264.46 44.264 1261.95 44.264C1259.42 44.264 1257.33 43.464 1255.68 41.864C1254.04 40.264 1253.21 38.176 1253.21 35.6ZM1256.33 35.6C1256.33 37.28 1256.87 38.688 1257.94 39.824C1259.03 40.944 1260.36 41.504 1261.95 41.504C1263.68 41.504 1265.04 40.944 1266.05 39.824C1267.08 38.704 1267.59 37.296 1267.59 35.6C1267.59 33.872 1267.04 32.456 1265.96 31.352C1264.88 30.248 1263.55 29.696 1261.95 29.696C1260.33 29.696 1258.99 30.248 1257.92 31.352C1256.86 32.456 1256.33 33.872 1256.33 35.6ZM1280.7 44V35.792H1276.09V44H1273.33V33.2H1283.46V44H1280.7ZM1286.53 44V33.2H1289.29V41.432H1293.73V33.2H1296.49V41.432H1298.29V46.52H1295.7V44H1286.53ZM1302.88 44H1300.12V33.2H1302.88V40.04L1307.92 33.2H1310.68V44H1307.92V37.16L1302.88 44ZM1316.52 44H1313.76V33.2H1316.52V40.04L1321.56 33.2H1324.32V44H1321.56V37.16L1316.52 44Z" fill="white"/>
<rect x="1222.5" y="1.5" width="133" height="72" rx="6.5" stroke="#005DED" stroke-width="3"/>
<path d="M1487.51 44H1484.92V27.2H1487.87V39.152L1496.68 27.2H1499.27V44H1496.32V32.072L1487.51 44ZM1502.01 35.96V33.2H1511.85V35.96H1508.32V44H1505.56V35.96H1502.01ZM1514.43 42.68C1513.36 41.608 1512.82 40.248 1512.82 38.6C1512.82 36.952 1513.36 35.6 1514.43 34.544C1515.52 33.472 1516.94 32.936 1518.7 32.936C1520.46 32.936 1521.88 33.472 1522.95 34.544C1524.04 35.6 1524.58 36.952 1524.58 38.6C1524.58 40.248 1524.04 41.608 1522.95 42.68C1521.88 43.736 1520.46 44.264 1518.7 44.264C1516.94 44.264 1515.52 43.736 1514.43 42.68ZM1515.77 38.6C1515.77 39.496 1516.05 40.24 1516.59 40.832C1517.15 41.408 1517.85 41.696 1518.7 41.696C1519.57 41.696 1520.27 41.416 1520.81 40.856C1521.37 40.28 1521.65 39.528 1521.65 38.6C1521.65 37.704 1521.37 36.968 1520.81 36.392C1520.25 35.816 1519.55 35.528 1518.7 35.528C1517.87 35.528 1517.17 35.816 1516.61 36.392C1516.05 36.952 1515.77 37.688 1515.77 38.6ZM1526.97 44V33.2H1534.22V35.792H1529.73V44H1526.97Z" fill="white"/>
<rect x="1448.5" y="1.5" width="120" height="72" rx="6.5" stroke="#005DED" stroke-width="3"/>
<path d="M226 38L216 32.2265V43.7735L226 38ZM156 39L217 39V37L156 37V39Z" fill="#C5CDCF"/>
<path d="M536 38L526 32.2265V43.7735L536 38ZM466 39L527 39V37L466 37V39Z" fill="#C5CDCF"/>
<path d="M749 38L739 32.2265V43.7735L749 38ZM679 39L740 39V37L679 37V39Z" fill="#C5CDCF"/>
<path d="M988 38L978 32.2265V43.7735L988 38ZM918 39L979 39V37L918 37V39Z" fill="#C5CDCF"/>
<path d="M1211 38L1201 32.2265V43.7735L1211 38ZM1141 39L1202 39V37L1141 37V39Z" fill="#C5CDCF"/>
<path d="M1437 38L1427 32.2265V43.7735L1437 38ZM1367 39L1428 39V37L1367 37V39Z" fill="#C5CDCF"/>
</svg>
