<svg width="441" height="414" viewBox="0 0 441 414" fill="none" xmlns="http://www.w3.org/2000/svg">
<path d="M137.288 37H127.328V20.2H137.048V22.96H130.28V27.136H136.328V29.896H130.28V34.24H137.288V37ZM141.613 39.52H139.045V34.432H140.413C141.261 33.296 141.765 31.416 141.925 28.792L142.093 26.2H150.061V34.432H151.861V39.52H149.269V37H141.613V39.52ZM144.661 28.792L144.589 29.896C144.397 31.976 143.965 33.488 143.293 34.432H147.301V28.792H144.661ZM161.477 30.16L156.437 37H153.677V26.2H156.437V33.04L161.477 26.2H164.237V37H161.477V30.16ZM177.565 37H174.805V32.872H170.077V37H167.317V26.2H170.077V30.28H174.805V26.2H177.565V37ZM181.47 28.984L180.774 26.968C181.942 26.28 183.214 25.936 184.59 25.936C186.094 25.936 187.19 26.304 187.878 27.04C188.566 27.776 188.91 28.904 188.91 30.424V37H186.51V35.752C185.87 36.68 184.806 37.144 183.318 37.144C182.294 37.144 181.47 36.848 180.846 36.256C180.238 35.648 179.934 34.84 179.934 33.832C179.934 32.712 180.294 31.848 181.014 31.24C181.734 30.632 182.686 30.328 183.87 30.328C184.846 30.328 185.662 30.56 186.318 31.024C186.35 30.064 186.206 29.36 185.886 28.912C185.582 28.464 185.054 28.24 184.302 28.24C183.47 28.24 182.526 28.488 181.47 28.984ZM184.23 34.816C185.158 34.816 185.854 34.488 186.318 33.832V32.728C185.87 32.376 185.238 32.2 184.422 32.2C183.91 32.2 183.494 32.32 183.174 32.56C182.854 32.8 182.694 33.128 182.694 33.544C182.694 33.928 182.838 34.24 183.126 34.48C183.414 34.704 183.782 34.816 184.23 34.816ZM197.019 26.2H200.547V37H197.787V33.76H196.251L194.019 37H190.851L193.731 33.16C193.139 32.952 192.643 32.576 192.243 32.032C191.843 31.472 191.643 30.808 191.643 30.04C191.643 28.856 192.091 27.92 192.987 27.232C193.899 26.544 195.243 26.2 197.019 26.2ZM194.595 30.232C194.595 30.648 194.771 31 195.123 31.288C195.475 31.576 195.883 31.72 196.347 31.72H197.787V28.6H196.563C195.955 28.6 195.475 28.76 195.123 29.08C194.771 29.384 194.595 29.768 194.595 30.232ZM218.836 37H216.076V28.792H211.468V37H208.708V26.2H218.836V37ZM222.743 28.984L222.047 26.968C223.215 26.28 224.487 25.936 225.863 25.936C227.367 25.936 228.463 26.304 229.151 27.04C229.839 27.776 230.183 28.904 230.183 30.424V37H227.783V35.752C227.143 36.68 226.079 37.144 224.591 37.144C223.567 37.144 222.743 36.848 222.119 36.256C221.511 35.648 221.207 34.84 221.207 33.832C221.207 32.712 221.567 31.848 222.287 31.24C223.007 30.632 223.959 30.328 225.143 30.328C226.119 30.328 226.935 30.56 227.591 31.024C227.623 30.064 227.479 29.36 227.159 28.912C226.855 28.464 226.327 28.24 225.575 28.24C224.743 28.24 223.799 28.488 222.743 28.984ZM225.503 34.816C226.431 34.816 227.127 34.488 227.591 33.832V32.728C227.143 32.376 226.511 32.2 225.695 32.2C225.183 32.2 224.767 32.32 224.447 32.56C224.127 32.8 223.967 33.128 223.967 33.544C223.967 33.928 224.111 34.24 224.399 34.48C224.687 34.704 225.055 34.816 225.503 34.816ZM243.261 37H240.501V32.872H235.773V37H233.013V26.2H235.773V30.28H240.501V26.2H243.261V37ZM254.797 33.976L255.589 35.92C254.517 36.816 253.141 37.264 251.461 37.264C249.733 37.264 248.325 36.744 247.237 35.704C246.181 34.68 245.653 33.312 245.653 31.6C245.653 30 246.173 28.656 247.213 27.568C248.253 26.48 249.637 25.936 251.365 25.936C252.789 25.936 253.997 26.408 254.989 27.352C255.981 28.296 256.477 29.496 256.477 30.952C256.477 31.592 256.421 32.088 256.309 32.44H248.509C248.621 33.224 248.965 33.84 249.541 34.288C250.133 34.736 250.869 34.96 251.749 34.96C252.949 34.96 253.965 34.632 254.797 33.976ZM251.245 28.24C249.677 28.24 248.733 29.024 248.413 30.592H253.717C253.733 29.904 253.509 29.344 253.045 28.912C252.597 28.464 251.997 28.24 251.245 28.24ZM268.213 37H265.453V28.96H262.597L262.525 30.112C262.317 32.064 262.013 33.552 261.613 34.576C261.229 35.6 260.733 36.296 260.125 36.664C259.533 37.016 258.709 37.2 257.653 37.216L257.413 34.528C257.765 34.544 258.093 34.448 258.396 34.24C258.749 33.984 259.061 33.448 259.333 32.632C259.605 31.816 259.781 30.792 259.861 29.56L260.029 26.2H268.213V37ZM275.318 37H271.286V26.2H274.046V29.152H275.534C277.15 29.152 278.342 29.488 279.11 30.16C279.894 30.832 280.286 31.744 280.286 32.896C280.286 34.128 279.87 35.12 279.038 35.872C278.206 36.624 276.966 37 275.318 37ZM275.294 31.36H274.046V34.6H275.27C276.662 34.6 277.358 34.064 277.358 32.992C277.358 31.904 276.67 31.36 275.294 31.36ZM133.808 61.2H136.952L132.704 72C131.936 73.872 131.248 75.136 130.64 75.792C130.048 76.464 129.344 76.8 128.528 76.8C127.76 76.8 126.984 76.52 126.2 75.96L127.088 73.872C127.504 74.128 127.88 74.256 128.216 74.256C128.872 74.256 129.424 73.696 129.872 72.576L130.112 72L125.12 61.2H128.432L130.952 67.104C130.984 67.184 131.16 67.704 131.48 68.664C131.576 68.072 131.704 67.544 131.864 67.08L133.808 61.2ZM148.734 72H145.974V63.792H141.366V72H138.606V61.2H148.734V72ZM154.562 76.8H151.802V61.2H154.562V62.232C154.914 61.848 155.394 61.536 156.002 61.296C156.61 61.056 157.242 60.936 157.898 60.936C159.386 60.936 160.57 61.448 161.45 62.472C162.346 63.512 162.794 64.832 162.794 66.432C162.794 68.112 162.266 69.504 161.21 70.608C160.154 71.712 158.778 72.264 157.082 72.264C155.994 72.264 155.154 72.088 154.562 71.736V76.8ZM157.034 63.528C156.074 63.528 155.25 63.92 154.562 64.704V69.072C155.218 69.488 155.978 69.696 156.842 69.696C157.754 69.696 158.482 69.4 159.026 68.808C159.586 68.216 159.866 67.448 159.866 66.504C159.866 65.608 159.61 64.888 159.098 64.344C158.602 63.8 157.914 63.528 157.034 63.528ZM166.024 63.984L165.328 61.968C166.496 61.28 167.768 60.936 169.144 60.936C170.648 60.936 171.744 61.304 172.432 62.04C173.12 62.776 173.464 63.904 173.464 65.424V72H171.064V70.752C170.424 71.68 169.36 72.144 167.872 72.144C166.848 72.144 166.024 71.848 165.4 71.256C164.792 70.648 164.488 69.84 164.488 68.832C164.488 67.712 164.848 66.848 165.568 66.24C166.288 65.632 167.24 65.328 168.424 65.328C169.4 65.328 170.216 65.56 170.872 66.024C170.904 65.064 170.76 64.36 170.44 63.912C170.136 63.464 169.608 63.24 168.856 63.24C168.024 63.24 167.08 63.488 166.024 63.984ZM168.784 69.816C169.712 69.816 170.408 69.488 170.872 68.832V67.728C170.424 67.376 169.792 67.2 168.976 67.2C168.464 67.2 168.048 67.32 167.728 67.56C167.408 67.8 167.248 68.128 167.248 68.544C167.248 68.928 167.392 69.24 167.68 69.48C167.968 69.704 168.336 69.816 168.784 69.816ZM176.294 72V61.2C176.438 61.2 177.046 61.184 178.118 61.152C179.206 61.104 180.014 61.08 180.542 61.08C183.806 61.08 185.438 62.024 185.438 63.912C185.438 64.52 185.246 65.056 184.862 65.52C184.478 65.968 183.998 66.232 183.422 66.312V66.36C184.958 66.728 185.726 67.56 185.726 68.856C185.726 71.032 184.014 72.12 180.59 72.12C180.094 72.12 179.334 72.096 178.31 72.048C178.054 72.048 177.758 72.04 177.422 72.024C177.102 72.024 176.854 72.016 176.678 72C176.518 72 176.39 72 176.294 72ZM180.782 67.416H179.054V69.816C180.014 69.88 180.622 69.912 180.878 69.912C181.486 69.912 181.958 69.8 182.294 69.576C182.646 69.352 182.822 69.048 182.822 68.664C182.822 67.832 182.142 67.416 180.782 67.416ZM180.782 63.312C180.142 63.312 179.566 63.328 179.054 63.36V65.736H180.854C181.35 65.736 181.75 65.624 182.054 65.4C182.358 65.176 182.51 64.872 182.51 64.488C182.51 63.704 181.934 63.312 180.782 63.312ZM198.205 72H195.445V63.96H192.589L192.517 65.112C192.309 67.064 192.005 68.552 191.605 69.576C191.221 70.6 190.725 71.296 190.117 71.664C189.525 72.016 188.701 72.2 187.645 72.216L187.405 69.528C187.757 69.544 188.085 69.448 188.389 69.24C188.741 68.984 189.053 68.448 189.325 67.632C189.597 66.816 189.773 65.792 189.853 64.56L190.021 61.2H198.205V72ZM209.75 68.976L210.542 70.92C209.47 71.816 208.094 72.264 206.414 72.264C204.686 72.264 203.278 71.744 202.19 70.704C201.134 69.68 200.606 68.312 200.606 66.6C200.606 65 201.126 63.656 202.166 62.568C203.206 61.48 204.59 60.936 206.318 60.936C207.742 60.936 208.95 61.408 209.942 62.352C210.934 63.296 211.43 64.496 211.43 65.952C211.43 66.592 211.374 67.088 211.262 67.44H203.462C203.574 68.224 203.918 68.84 204.494 69.288C205.086 69.736 205.822 69.96 206.702 69.96C207.902 69.96 208.918 69.632 209.75 68.976ZM206.198 63.24C204.63 63.24 203.686 64.024 203.366 65.592H208.67C208.686 64.904 208.462 64.344 207.998 63.912C207.55 63.464 206.95 63.24 206.198 63.24ZM223.901 72H221.141V67.872H216.413V72H213.653V61.2H216.413V65.28H221.141V61.2H223.901V72ZM234.766 65.16L229.726 72H226.966V61.2H229.726V68.04L234.766 61.2H237.526V72H234.766V65.16ZM245.886 61.2H249.414V72H246.654V68.76H245.118L242.886 72H239.718L242.598 68.16C242.006 67.952 241.51 67.576 241.11 67.032C240.71 66.472 240.51 65.808 240.51 65.04C240.51 63.856 240.958 62.92 241.854 62.232C242.766 61.544 244.11 61.2 245.886 61.2ZM243.462 65.232C243.462 65.648 243.638 66 243.99 66.288C244.342 66.576 244.75 66.72 245.214 66.72H246.654V63.6H245.43C244.822 63.6 244.342 63.76 243.99 64.08C243.638 64.384 243.462 64.768 243.462 65.232Z" fill="#141414"/>
<path fill-rule="evenodd" clip-rule="evenodd" d="M49.4993 0C45.8116 0 42.2251 0.414842 38.7694 1.18208V49.5342C38.7694 55.4594 43.6005 60.2918 49.5275 60.2918C55.4515 60.2918 60.2812 55.4594 60.2812 49.5372C60.2812 43.8454 55.8337 39.1736 50.2427 38.8018V30.1913C60.5741 30.566 68.8877 39.1126 68.8877 49.5372C68.8877 60.1982 60.1905 68.8994 49.5275 68.8994C38.8601 68.8994 30.1644 60.1982 30.1644 49.5342V3.91795C28.9421 4.43687 27.7481 5.0123 26.5778 5.63085V49.5342C26.5793 62.1713 36.8899 72.4769 49.5275 72.4769C62.1666 72.4769 72.4727 62.1713 72.4727 49.5372C72.4727 37.138 62.5547 26.984 50.2427 26.6019V17.9943C67.2922 18.3794 81.0747 32.4008 81.0747 49.5372C81.0747 66.9159 66.9026 81.0845 49.5275 81.0845C32.148 81.0845 17.9713 66.9159 17.9713 49.5342V11.3405C6.99761 20.415 0 34.1375 0 49.497C0 76.8335 22.1616 99 49.5007 99C76.8444 99 99 76.8335 99 49.497C99 22.1606 76.8444 0 49.4993 0Z" fill="#D91935"/>
<rect x="125" y="119" width="252" height="89" rx="8" fill="white"/>
<path d="M187.42 159.2H188.74L183.868 170.144H183.004L177.94 159.2H179.404L182.5 165.992C182.948 167 183.276 167.792 183.484 168.368C183.756 167.6 184.076 166.784 184.444 165.92L187.42 159.2ZM195.366 170.216C193.702 170.216 192.342 169.688 191.286 168.632C190.23 167.576 189.702 166.232 189.702 164.6C189.702 162.968 190.23 161.624 191.286 160.568C192.342 159.512 193.702 158.984 195.366 158.984C197.03 158.984 198.39 159.512 199.446 160.568C200.502 161.624 201.03 162.968 201.03 164.6C201.03 166.232 200.502 167.576 199.446 168.632C198.39 169.688 197.03 170.216 195.366 170.216ZM195.366 169.04C196.662 169.04 197.702 168.632 198.486 167.816C199.302 166.984 199.71 165.912 199.71 164.6C199.71 163.304 199.302 162.24 198.486 161.408C197.67 160.576 196.63 160.16 195.366 160.16C194.118 160.16 193.078 160.576 192.246 161.408C191.43 162.24 191.022 163.304 191.022 164.6C191.022 165.896 191.43 166.96 192.246 167.792C193.062 168.624 194.102 169.04 195.366 169.04ZM204.087 167.216V153.2H205.335V166.544C205.335 167.392 205.455 168.008 205.695 168.392C205.935 168.776 206.335 168.968 206.895 168.968C207.439 168.968 207.943 168.792 208.407 168.44L208.719 169.424C208.095 169.904 207.335 170.144 206.439 170.144C204.871 170.144 204.087 169.168 204.087 167.216ZM217.749 159.2H219.381L214.341 164.264L219.837 170H218.157L212.805 164.36L217.749 159.2ZM212.109 170H210.861V153.2H212.109V170ZM227.797 167.168C227.797 166.672 227.589 166.272 227.173 165.968C226.773 165.664 226.277 165.424 225.685 165.248C225.109 165.072 224.525 164.88 223.933 164.672C223.341 164.448 222.837 164.104 222.421 163.64C222.021 163.16 221.821 162.56 221.821 161.84C221.821 160.976 222.141 160.288 222.781 159.776C223.421 159.248 224.261 158.984 225.301 158.984C226.789 158.984 227.917 159.384 228.685 160.184L228.157 161.12C227.421 160.432 226.477 160.088 225.325 160.088C224.685 160.088 224.157 160.256 223.741 160.592C223.341 160.912 223.141 161.32 223.141 161.816C223.141 162.328 223.341 162.752 223.741 163.088C224.157 163.408 224.653 163.664 225.229 163.856C225.821 164.032 226.413 164.224 227.005 164.432C227.597 164.64 228.093 164.968 228.493 165.416C228.909 165.864 229.117 166.432 229.117 167.12C229.117 168.096 228.749 168.856 228.013 169.4C227.293 169.944 226.365 170.216 225.229 170.216C224.525 170.216 223.789 170.056 223.021 169.736C222.301 169.432 221.805 169.072 221.533 168.656L222.229 167.84C222.533 168.208 222.989 168.512 223.597 168.752C224.221 168.992 224.813 169.112 225.373 169.112C226.077 169.112 226.653 168.944 227.101 168.608C227.565 168.256 227.797 167.776 227.797 167.168ZM245.388 159.2H246.66L243.156 170.144H242.124L239.148 162.296C238.876 161.544 238.716 161.088 238.668 160.928C238.46 161.632 238.3 162.112 238.188 162.368L235.284 170.144H234.3L230.676 159.2H232.02L234.468 166.76L234.924 168.344C235.196 167.496 235.372 166.968 235.452 166.76L238.212 159.2H239.244L242.052 166.736L242.34 167.6L242.604 168.368C242.636 168.24 242.724 167.92 242.868 167.408L243.108 166.616L245.388 159.2ZM249.236 161L248.9 159.968C249.972 159.312 251.116 158.984 252.332 158.984C253.74 158.984 254.756 159.336 255.38 160.04C256.02 160.744 256.34 161.832 256.34 163.304V170H255.092V168.344C254.212 169.544 252.98 170.144 251.396 170.144C250.388 170.144 249.58 169.856 248.972 169.28C248.364 168.688 248.06 167.904 248.06 166.928C248.06 165.872 248.444 165.048 249.212 164.456C249.964 163.864 250.948 163.568 252.164 163.568C253.38 163.568 254.356 163.84 255.092 164.384C255.092 163.264 255.012 162.408 254.852 161.816C254.724 161.24 254.46 160.832 254.06 160.592C253.676 160.352 253.076 160.208 252.26 160.16C251.284 160.16 250.276 160.44 249.236 161ZM251.78 168.968C253.124 168.968 254.228 168.4 255.092 167.264V165.464C254.308 164.888 253.372 164.6 252.284 164.6C251.468 164.6 250.78 164.8 250.22 165.2C249.66 165.6 249.38 166.152 249.38 166.856C249.38 167.496 249.604 168.008 250.052 168.392C250.5 168.776 251.076 168.968 251.78 168.968ZM258.356 171.584C258.356 170.768 258.644 170.08 259.22 169.52C259.796 168.96 260.612 168.568 261.668 168.344C261.428 168.056 261.308 167.712 261.308 167.312C261.308 166.912 261.444 166.552 261.716 166.232C261.012 165.928 260.46 165.472 260.06 164.864C259.66 164.256 259.46 163.568 259.46 162.8C259.46 161.696 259.852 160.784 260.636 160.064C261.42 159.344 262.452 158.984 263.732 158.984C264.756 158.984 265.66 159.256 266.444 159.8H266.468L269.54 158.984V160.16L267.356 160.712C267.788 161.368 268.004 162.064 268.004 162.8C268.004 163.872 267.604 164.784 266.804 165.536C266.004 166.256 264.98 166.616 263.732 166.616C263.284 166.616 262.924 166.584 262.652 166.52C262.508 166.728 262.436 166.992 262.436 167.312C262.436 167.68 262.54 167.968 262.748 168.176C263.356 168.144 263.692 168.128 263.756 168.128C265.404 168.128 266.716 168.432 267.692 169.04C268.668 169.648 269.156 170.496 269.156 171.584C269.156 172.656 268.668 173.488 267.692 174.08C266.716 174.688 265.404 174.992 263.756 174.992C262.092 174.992 260.772 174.696 259.796 174.104C258.836 173.512 258.356 172.672 258.356 171.584ZM259.628 171.584C259.628 172.288 259.996 172.84 260.732 173.24C261.484 173.656 262.492 173.864 263.756 173.864C265.004 173.864 266.004 173.656 266.756 173.24C267.508 172.824 267.884 172.272 267.884 171.584C267.884 170.88 267.508 170.32 266.756 169.904C266.02 169.472 265.02 169.256 263.756 169.256C262.508 169.256 261.508 169.464 260.756 169.88C260.004 170.296 259.628 170.864 259.628 171.584ZM261.572 160.88C261.012 161.392 260.732 162.032 260.732 162.8C260.732 163.568 261.012 164.208 261.572 164.72C262.132 165.232 262.852 165.488 263.732 165.488C264.612 165.488 265.332 165.232 265.892 164.72C266.452 164.208 266.732 163.568 266.732 162.8C266.732 162.032 266.444 161.392 265.868 160.88C265.308 160.368 264.596 160.112 263.732 160.112C262.884 160.112 262.164 160.368 261.572 160.88ZM280.225 167.72L280.633 168.68C279.657 169.704 278.329 170.216 276.649 170.216C274.921 170.216 273.537 169.704 272.497 168.68C271.441 167.656 270.913 166.296 270.913 164.6C270.913 162.968 271.393 161.624 272.353 160.568C273.329 159.512 274.673 158.984 276.385 158.984C277.777 158.984 278.945 159.432 279.889 160.328C280.817 161.208 281.281 162.384 281.281 163.856C281.281 164.24 281.257 164.576 281.209 164.864H272.305C272.353 166.16 272.777 167.184 273.577 167.936C274.377 168.672 275.425 169.04 276.721 169.04C278.225 169.04 279.393 168.6 280.225 167.72ZM276.265 160.16C275.113 160.16 274.177 160.496 273.457 161.168C272.753 161.84 272.345 162.728 272.233 163.832H280.009C279.993 162.696 279.649 161.8 278.977 161.144C278.305 160.488 277.401 160.16 276.265 160.16ZM285.515 170H284.267V159.2H285.515V160.712C285.963 160.216 286.539 159.808 287.243 159.488C287.963 159.168 288.683 159.008 289.403 159.008C290.907 159.008 292.035 159.4 292.787 160.184C293.539 160.968 293.915 162.184 293.915 163.832V170H292.667V164.072C292.667 161.48 291.483 160.184 289.115 160.184C288.427 160.184 287.755 160.344 287.099 160.664C286.443 160.968 285.915 161.36 285.515 161.84V170ZM296.886 169.088C296.886 168.848 296.974 168.648 297.15 168.488C297.342 168.312 297.574 168.224 297.846 168.224C298.086 168.224 298.286 168.312 298.446 168.488C298.622 168.664 298.71 168.864 298.71 169.088C298.71 169.344 298.622 169.568 298.446 169.76C298.286 169.952 298.086 170.048 297.846 170.048C297.574 170.048 297.342 169.952 297.15 169.76C296.974 169.568 296.886 169.344 296.886 169.088ZM301.892 168.944V153.2H303.14V160.52C303.588 160.072 304.148 159.704 304.82 159.416C305.508 159.128 306.204 158.984 306.908 158.984C308.492 158.984 309.74 159.488 310.652 160.496C311.58 161.488 312.044 162.8 312.044 164.432C312.044 166.192 311.5 167.6 310.412 168.656C309.324 169.696 307.908 170.216 306.164 170.216C304.436 170.216 303.012 169.792 301.892 168.944ZM306.644 160.16C305.972 160.16 305.308 160.328 304.652 160.664C303.996 160.984 303.492 161.368 303.14 161.816V168.104C304.02 168.728 305.052 169.04 306.236 169.04C307.548 169.04 308.62 168.632 309.452 167.816C310.3 167 310.724 165.912 310.724 164.552C310.724 163.192 310.356 162.12 309.62 161.336C308.884 160.552 307.892 160.16 306.644 160.16ZM322.562 159.2H323.978L319.61 170C318.826 171.904 318.146 173.168 317.57 173.792C316.994 174.464 316.322 174.8 315.554 174.8C314.962 174.8 314.346 174.616 313.706 174.248L314.114 173.288C314.61 173.528 315.034 173.648 315.386 173.648C315.93 173.648 316.418 173.408 316.85 172.928C317.282 172.464 317.73 171.68 318.194 170.576L318.434 170L313.106 159.2H314.594L318.29 166.832L319.058 168.512C319.074 168.448 319.274 167.872 319.658 166.784L322.562 159.2Z" fill="#141414"/>
<rect x="125" y="222" width="316" height="89" rx="8" fill="white"/>
<path d="M184.135 262.2H185.455L180.583 273.144H179.719L174.655 262.2H176.119L179.215 268.992C179.663 270 179.991 270.792 180.199 271.368C180.471 270.6 180.791 269.784 181.159 268.92L184.135 262.2ZM192.081 273.216C190.417 273.216 189.057 272.688 188.001 271.632C186.945 270.576 186.417 269.232 186.417 267.6C186.417 265.968 186.945 264.624 188.001 263.568C189.057 262.512 190.417 261.984 192.081 261.984C193.745 261.984 195.105 262.512 196.161 263.568C197.217 264.624 197.745 265.968 197.745 267.6C197.745 269.232 197.217 270.576 196.161 271.632C195.105 272.688 193.745 273.216 192.081 273.216ZM192.081 272.04C193.377 272.04 194.417 271.632 195.201 270.816C196.017 269.984 196.425 268.912 196.425 267.6C196.425 266.304 196.017 265.24 195.201 264.408C194.385 263.576 193.345 263.16 192.081 263.16C190.833 263.16 189.793 263.576 188.961 264.408C188.145 265.24 187.737 266.304 187.737 267.6C187.737 268.896 188.145 269.96 188.961 270.792C189.777 271.624 190.817 272.04 192.081 272.04ZM200.802 270.216V256.2H202.05V269.544C202.05 270.392 202.17 271.008 202.41 271.392C202.65 271.776 203.05 271.968 203.61 271.968C204.154 271.968 204.658 271.792 205.122 271.44L205.434 272.424C204.81 272.904 204.05 273.144 203.154 273.144C201.586 273.144 200.802 272.168 200.802 270.216ZM214.464 262.2H216.096L211.056 267.264L216.552 273H214.872L209.52 267.36L214.464 262.2ZM208.824 273H207.576V256.2H208.824V273ZM224.511 270.168C224.511 269.672 224.303 269.272 223.887 268.968C223.487 268.664 222.991 268.424 222.399 268.248C221.823 268.072 221.239 267.88 220.647 267.672C220.055 267.448 219.551 267.104 219.135 266.64C218.735 266.16 218.535 265.56 218.535 264.84C218.535 263.976 218.855 263.288 219.495 262.776C220.135 262.248 220.975 261.984 222.015 261.984C223.503 261.984 224.631 262.384 225.399 263.184L224.871 264.12C224.135 263.432 223.191 263.088 222.039 263.088C221.399 263.088 220.871 263.256 220.455 263.592C220.055 263.912 219.855 264.32 219.855 264.816C219.855 265.328 220.055 265.752 220.455 266.088C220.871 266.408 221.367 266.664 221.943 266.856C222.535 267.032 223.127 267.224 223.719 267.432C224.311 267.64 224.807 267.968 225.207 268.416C225.623 268.864 225.831 269.432 225.831 270.12C225.831 271.096 225.463 271.856 224.727 272.4C224.007 272.944 223.079 273.216 221.943 273.216C221.239 273.216 220.503 273.056 219.735 272.736C219.015 272.432 218.519 272.072 218.247 271.656L218.943 270.84C219.247 271.208 219.703 271.512 220.311 271.752C220.935 271.992 221.527 272.112 222.087 272.112C222.791 272.112 223.367 271.944 223.815 271.608C224.279 271.256 224.511 270.776 224.511 270.168ZM242.103 262.2H243.375L239.871 273.144H238.839L235.863 265.296C235.591 264.544 235.431 264.088 235.383 263.928C235.175 264.632 235.015 265.112 234.903 265.368L231.999 273.144H231.015L227.391 262.2H228.735L231.183 269.76L231.639 271.344C231.911 270.496 232.087 269.968 232.167 269.76L234.927 262.2H235.959L238.767 269.736L239.055 270.6L239.319 271.368C239.351 271.24 239.439 270.92 239.583 270.408L239.823 269.616L242.103 262.2ZM245.951 264L245.615 262.968C246.687 262.312 247.831 261.984 249.047 261.984C250.455 261.984 251.471 262.336 252.095 263.04C252.735 263.744 253.055 264.832 253.055 266.304V273H251.807V271.344C250.927 272.544 249.695 273.144 248.111 273.144C247.103 273.144 246.295 272.856 245.687 272.28C245.079 271.688 244.775 270.904 244.775 269.928C244.775 268.872 245.159 268.048 245.927 267.456C246.679 266.864 247.663 266.568 248.879 266.568C250.095 266.568 251.071 266.84 251.807 267.384C251.807 266.264 251.727 265.408 251.567 264.816C251.439 264.24 251.175 263.832 250.775 263.592C250.391 263.352 249.791 263.208 248.975 263.16C247.999 263.16 246.991 263.44 245.951 264ZM248.495 271.968C249.839 271.968 250.943 271.4 251.807 270.264V268.464C251.023 267.888 250.087 267.6 248.999 267.6C248.183 267.6 247.495 267.8 246.935 268.2C246.375 268.6 246.095 269.152 246.095 269.856C246.095 270.496 246.319 271.008 246.767 271.392C247.215 271.776 247.791 271.968 248.495 271.968ZM255.07 274.584C255.07 273.768 255.358 273.08 255.934 272.52C256.51 271.96 257.326 271.568 258.382 271.344C258.142 271.056 258.022 270.712 258.022 270.312C258.022 269.912 258.158 269.552 258.43 269.232C257.726 268.928 257.174 268.472 256.774 267.864C256.374 267.256 256.174 266.568 256.174 265.8C256.174 264.696 256.566 263.784 257.35 263.064C258.134 262.344 259.166 261.984 260.446 261.984C261.47 261.984 262.374 262.256 263.158 262.8H263.182L266.254 261.984V263.16L264.07 263.712C264.502 264.368 264.718 265.064 264.718 265.8C264.718 266.872 264.318 267.784 263.518 268.536C262.718 269.256 261.694 269.616 260.446 269.616C259.998 269.616 259.638 269.584 259.366 269.52C259.222 269.728 259.15 269.992 259.15 270.312C259.15 270.68 259.254 270.968 259.462 271.176C260.07 271.144 260.406 271.128 260.47 271.128C262.118 271.128 263.43 271.432 264.406 272.04C265.382 272.648 265.87 273.496 265.87 274.584C265.87 275.656 265.382 276.488 264.406 277.08C263.43 277.688 262.118 277.992 260.47 277.992C258.806 277.992 257.486 277.696 256.51 277.104C255.55 276.512 255.07 275.672 255.07 274.584ZM256.342 274.584C256.342 275.288 256.71 275.84 257.446 276.24C258.198 276.656 259.206 276.864 260.47 276.864C261.718 276.864 262.718 276.656 263.47 276.24C264.222 275.824 264.598 275.272 264.598 274.584C264.598 273.88 264.222 273.32 263.47 272.904C262.734 272.472 261.734 272.256 260.47 272.256C259.222 272.256 258.222 272.464 257.47 272.88C256.718 273.296 256.342 273.864 256.342 274.584ZM258.286 263.88C257.726 264.392 257.446 265.032 257.446 265.8C257.446 266.568 257.726 267.208 258.286 267.72C258.846 268.232 259.566 268.488 260.446 268.488C261.326 268.488 262.046 268.232 262.606 267.72C263.166 267.208 263.446 266.568 263.446 265.8C263.446 265.032 263.158 264.392 262.582 263.88C262.022 263.368 261.31 263.112 260.446 263.112C259.598 263.112 258.878 263.368 258.286 263.88ZM276.94 270.72L277.348 271.68C276.372 272.704 275.044 273.216 273.364 273.216C271.636 273.216 270.252 272.704 269.212 271.68C268.156 270.656 267.628 269.296 267.628 267.6C267.628 265.968 268.108 264.624 269.068 263.568C270.044 262.512 271.388 261.984 273.1 261.984C274.492 261.984 275.66 262.432 276.604 263.328C277.532 264.208 277.996 265.384 277.996 266.856C277.996 267.24 277.972 267.576 277.924 267.864H269.02C269.068 269.16 269.492 270.184 270.292 270.936C271.092 271.672 272.14 272.04 273.436 272.04C274.94 272.04 276.108 271.6 276.94 270.72ZM272.98 263.16C271.828 263.16 270.892 263.496 270.172 264.168C269.468 264.84 269.06 265.728 268.948 266.832H276.724C276.708 265.696 276.364 264.8 275.692 264.144C275.02 263.488 274.116 263.16 272.98 263.16ZM282.23 273H280.982V262.2H282.23V263.712C282.678 263.216 283.254 262.808 283.958 262.488C284.678 262.168 285.398 262.008 286.118 262.008C287.622 262.008 288.75 262.4 289.502 263.184C290.254 263.968 290.63 265.184 290.63 266.832V273H289.382V267.072C289.382 264.48 288.198 263.184 285.83 263.184C285.142 263.184 284.47 263.344 283.814 263.664C283.158 263.968 282.63 264.36 282.23 264.84V273ZM299.841 267.072H294.345V265.896H299.841V267.072ZM319.531 265.92V273H318.283V266.256C318.283 264.208 317.371 263.184 315.547 263.184C314.059 263.184 312.955 263.784 312.235 264.984C312.267 265.144 312.283 265.4 312.283 265.752V273H311.035V265.704C311.035 264.92 310.795 264.304 310.315 263.856C309.835 263.408 309.171 263.184 308.323 263.184C306.931 263.184 305.835 263.752 305.035 264.888V273H303.787V262.2H305.035V263.712C305.451 263.2 305.995 262.792 306.667 262.488C307.355 262.168 308.059 262.008 308.779 262.008C309.627 262.008 310.339 262.184 310.915 262.536C311.507 262.888 311.899 263.376 312.091 264C312.491 263.392 313.043 262.912 313.747 262.56C314.467 262.192 315.227 262.008 316.027 262.008C318.363 262.008 319.531 263.312 319.531 265.92ZM324.947 273H323.699V262.2H324.947V273ZM323.483 258C323.483 257.76 323.571 257.568 323.747 257.424C323.923 257.28 324.131 257.208 324.371 257.208C324.579 257.208 324.763 257.288 324.923 257.448C325.099 257.592 325.187 257.776 325.187 258C325.187 258.272 325.107 258.488 324.947 258.648C324.803 258.808 324.611 258.888 324.371 258.888C324.115 258.888 323.899 258.808 323.723 258.648C323.563 258.488 323.483 258.272 323.483 258ZM330.605 273H329.357V262.2H330.605V263.712C331.053 263.216 331.629 262.808 332.333 262.488C333.053 262.168 333.773 262.008 334.493 262.008C335.997 262.008 337.125 262.4 337.877 263.184C338.629 263.968 339.005 265.184 339.005 266.832V273H337.757V267.072C337.757 264.48 336.573 263.184 334.205 263.184C333.517 263.184 332.845 263.344 332.189 263.664C331.533 263.968 331.005 264.36 330.605 264.84V273ZM348.168 270.168C348.168 269.672 347.96 269.272 347.544 268.968C347.144 268.664 346.648 268.424 346.056 268.248C345.48 268.072 344.896 267.88 344.304 267.672C343.712 267.448 343.208 267.104 342.792 266.64C342.392 266.16 342.192 265.56 342.192 264.84C342.192 263.976 342.512 263.288 343.152 262.776C343.792 262.248 344.632 261.984 345.672 261.984C347.16 261.984 348.288 262.384 349.056 263.184L348.528 264.12C347.792 263.432 346.848 263.088 345.696 263.088C345.056 263.088 344.528 263.256 344.112 263.592C343.712 263.912 343.512 264.32 343.512 264.816C343.512 265.328 343.712 265.752 344.112 266.088C344.528 266.408 345.024 266.664 345.6 266.856C346.192 267.032 346.784 267.224 347.376 267.432C347.968 267.64 348.464 267.968 348.864 268.416C349.28 268.864 349.488 269.432 349.488 270.12C349.488 271.096 349.12 271.856 348.384 272.4C347.664 272.944 346.736 273.216 345.6 273.216C344.896 273.216 344.16 273.056 343.392 272.736C342.672 272.432 342.176 272.072 341.904 271.656L342.6 270.84C342.904 271.208 343.36 271.512 343.968 271.752C344.592 271.992 345.184 272.112 345.744 272.112C346.448 272.112 347.024 271.944 347.472 271.608C347.936 271.256 348.168 270.776 348.168 270.168ZM359.495 262.2H361.127L356.087 267.264L361.583 273H359.903L354.551 267.36L359.495 262.2ZM353.855 273H352.607V256.2H353.855V273ZM364.171 272.088C364.171 271.848 364.259 271.648 364.435 271.488C364.627 271.312 364.859 271.224 365.131 271.224C365.371 271.224 365.571 271.312 365.731 271.488C365.907 271.664 365.995 271.864 365.995 272.088C365.995 272.344 365.907 272.568 365.731 272.76C365.571 272.952 365.371 273.048 365.131 273.048C364.859 273.048 364.627 272.952 364.435 272.76C364.259 272.568 364.171 272.344 364.171 272.088ZM369.177 271.944V256.2H370.425V263.52C370.873 263.072 371.433 262.704 372.105 262.416C372.793 262.128 373.489 261.984 374.193 261.984C375.777 261.984 377.025 262.488 377.937 263.496C378.865 264.488 379.329 265.8 379.329 267.432C379.329 269.192 378.785 270.6 377.697 271.656C376.609 272.696 375.193 273.216 373.449 273.216C371.721 273.216 370.297 272.792 369.177 271.944ZM373.929 263.16C373.257 263.16 372.593 263.328 371.937 263.664C371.281 263.984 370.777 264.368 370.425 264.816V271.104C371.305 271.728 372.337 272.04 373.521 272.04C374.833 272.04 375.905 271.632 376.737 270.816C377.585 270 378.009 268.912 378.009 267.552C378.009 266.192 377.641 265.12 376.905 264.336C376.169 263.552 375.177 263.16 373.929 263.16ZM389.847 262.2H391.263L386.895 273C386.111 274.904 385.431 276.168 384.855 276.792C384.279 277.464 383.607 277.8 382.839 277.8C382.247 277.8 381.631 277.616 380.991 277.248L381.399 276.288C381.895 276.528 382.319 276.648 382.671 276.648C383.215 276.648 383.703 276.408 384.135 275.928C384.567 275.464 385.015 274.68 385.479 273.576L385.719 273L380.391 262.2H381.879L385.575 269.832L386.343 271.512C386.359 271.448 386.559 270.872 386.943 269.784L389.847 262.2Z" fill="#141414"/>
<rect x="125" y="325" width="290" height="89" rx="8" fill="white"/>
<path d="M186.65 365.2H187.97L183.098 376.144H182.234L177.17 365.2H178.634L181.73 371.992C182.178 373 182.506 373.792 182.714 374.368C182.986 373.6 183.306 372.784 183.674 371.92L186.65 365.2ZM203.275 365.2H204.547L201.043 376.144H200.011L197.035 368.296C196.763 367.544 196.603 367.088 196.555 366.928C196.347 367.632 196.187 368.112 196.075 368.368L193.171 376.144H192.187L188.563 365.2H189.907L192.355 372.76L192.811 374.344C193.083 373.496 193.259 372.968 193.339 372.76L196.099 365.2H197.131L199.939 372.736L200.227 373.6L200.491 374.368C200.523 374.24 200.611 373.92 200.755 373.408L200.995 372.616L203.275 365.2ZM212.427 370.072H206.931V368.896H212.427V370.072ZM224.937 373.552L225.561 374.464C225.129 375.024 224.545 375.456 223.809 375.76C223.089 376.064 222.313 376.216 221.481 376.216C219.801 376.216 218.425 375.704 217.353 374.68C216.297 373.656 215.769 372.296 215.769 370.6C215.769 369.016 216.281 367.688 217.305 366.616C218.345 365.528 219.625 364.984 221.145 364.984C223.001 364.984 224.401 365.432 225.345 366.328L224.745 367.336C223.897 366.552 222.761 366.16 221.337 366.16C220.185 366.16 219.185 366.584 218.337 367.432C217.505 368.264 217.089 369.32 217.089 370.6C217.089 371.944 217.513 373.024 218.361 373.84C219.209 374.64 220.281 375.04 221.577 375.04C222.969 375.04 224.089 374.544 224.937 373.552ZM232.612 376.216C230.948 376.216 229.588 375.688 228.532 374.632C227.476 373.576 226.948 372.232 226.948 370.6C226.948 368.968 227.476 367.624 228.532 366.568C229.588 365.512 230.948 364.984 232.612 364.984C234.276 364.984 235.636 365.512 236.692 366.568C237.748 367.624 238.276 368.968 238.276 370.6C238.276 372.232 237.748 373.576 236.692 374.632C235.636 375.688 234.276 376.216 232.612 376.216ZM232.612 375.04C233.908 375.04 234.948 374.632 235.732 373.816C236.548 372.984 236.956 371.912 236.956 370.6C236.956 369.304 236.548 368.24 235.732 367.408C234.916 366.576 233.876 366.16 232.612 366.16C231.364 366.16 230.324 366.576 229.492 367.408C228.676 368.24 228.268 369.304 228.268 370.6C228.268 371.896 228.676 372.96 229.492 373.792C230.308 374.624 231.348 375.04 232.612 375.04ZM257.078 368.92V376H255.83V369.256C255.83 367.208 254.918 366.184 253.094 366.184C251.606 366.184 250.502 366.784 249.782 367.984C249.814 368.144 249.83 368.4 249.83 368.752V376H248.582V368.704C248.582 367.92 248.342 367.304 247.862 366.856C247.382 366.408 246.718 366.184 245.87 366.184C244.478 366.184 243.382 366.752 242.582 367.888V376H241.334V365.2H242.582V366.712C242.998 366.2 243.542 365.792 244.214 365.488C244.902 365.168 245.606 365.008 246.326 365.008C247.174 365.008 247.886 365.184 248.462 365.536C249.054 365.888 249.446 366.376 249.638 367C250.038 366.392 250.59 365.912 251.294 365.56C252.014 365.192 252.774 365.008 253.574 365.008C255.91 365.008 257.078 366.312 257.078 368.92ZM276.39 368.92V376H275.142V369.256C275.142 367.208 274.23 366.184 272.406 366.184C270.918 366.184 269.814 366.784 269.094 367.984C269.126 368.144 269.142 368.4 269.142 368.752V376H267.894V368.704C267.894 367.92 267.654 367.304 267.174 366.856C266.694 366.408 266.03 366.184 265.182 366.184C263.79 366.184 262.694 366.752 261.894 367.888V376H260.646V365.2H261.894V366.712C262.31 366.2 262.854 365.792 263.526 365.488C264.214 365.168 264.918 365.008 265.638 365.008C266.486 365.008 267.198 365.184 267.774 365.536C268.366 365.888 268.758 366.376 268.95 367C269.35 366.392 269.902 365.912 270.606 365.56C271.326 365.192 272.086 365.008 272.886 365.008C275.222 365.008 276.39 366.312 276.39 368.92ZM288.503 373.72L288.911 374.68C287.935 375.704 286.607 376.216 284.927 376.216C283.199 376.216 281.815 375.704 280.775 374.68C279.719 373.656 279.191 372.296 279.191 370.6C279.191 368.968 279.671 367.624 280.631 366.568C281.607 365.512 282.951 364.984 284.663 364.984C286.055 364.984 287.223 365.432 288.167 366.328C289.095 367.208 289.559 368.384 289.559 369.856C289.559 370.24 289.535 370.576 289.487 370.864H280.583C280.631 372.16 281.055 373.184 281.855 373.936C282.655 374.672 283.703 375.04 284.999 375.04C286.503 375.04 287.671 374.6 288.503 373.72ZM284.543 366.16C283.391 366.16 282.455 366.496 281.735 367.168C281.031 367.84 280.623 368.728 280.511 369.832H288.287C288.271 368.696 287.927 367.8 287.255 367.144C286.583 366.488 285.679 366.16 284.543 366.16ZM293.792 376H292.544V365.2H293.792V366.64C294.512 365.552 295.48 365.008 296.696 365.008C297.448 365.008 298.008 365.144 298.376 365.416L297.944 366.592C297.48 366.32 296.976 366.184 296.432 366.184C295.36 366.184 294.48 366.768 293.792 367.936V376ZM308.843 373.552L309.467 374.464C309.035 375.024 308.451 375.456 307.715 375.76C306.995 376.064 306.219 376.216 305.387 376.216C303.707 376.216 302.331 375.704 301.259 374.68C300.203 373.656 299.675 372.296 299.675 370.6C299.675 369.016 300.187 367.688 301.211 366.616C302.251 365.528 303.531 364.984 305.051 364.984C306.907 364.984 308.307 365.432 309.251 366.328L308.651 367.336C307.803 366.552 306.667 366.16 305.243 366.16C304.091 366.16 303.091 366.584 302.243 367.432C301.411 368.264 300.995 369.32 300.995 370.6C300.995 371.944 301.419 373.024 302.267 373.84C303.115 374.64 304.187 375.04 305.483 375.04C306.875 375.04 307.995 374.544 308.843 373.552ZM314.057 376H312.809V365.2H314.057V376ZM312.593 361C312.593 360.76 312.681 360.568 312.857 360.424C313.033 360.28 313.241 360.208 313.48 360.208C313.689 360.208 313.873 360.288 314.033 360.448C314.209 360.592 314.297 360.776 314.297 361C314.297 361.272 314.217 361.488 314.057 361.648C313.913 361.808 313.72 361.888 313.48 361.888C313.225 361.888 313.009 361.808 312.833 361.648C312.673 361.488 312.593 361.272 312.593 361ZM318.802 367L318.466 365.968C319.538 365.312 320.682 364.984 321.898 364.984C323.306 364.984 324.322 365.336 324.946 366.04C325.586 366.744 325.906 367.832 325.906 369.304V376H324.658V374.344C323.778 375.544 322.546 376.144 320.962 376.144C319.954 376.144 319.146 375.856 318.538 375.28C317.93 374.688 317.626 373.904 317.626 372.928C317.626 371.872 318.01 371.048 318.778 370.456C319.53 369.864 320.514 369.568 321.73 369.568C322.946 369.568 323.922 369.84 324.658 370.384C324.658 369.264 324.578 368.408 324.418 367.816C324.29 367.24 324.026 366.832 323.626 366.592C323.242 366.352 322.642 366.208 321.826 366.16C320.85 366.16 319.842 366.44 318.802 367ZM321.346 374.968C322.69 374.968 323.794 374.4 324.658 373.264V371.464C323.874 370.888 322.938 370.6 321.85 370.6C321.034 370.6 320.346 370.8 319.786 371.2C319.226 371.6 318.946 372.152 318.946 372.856C318.946 373.496 319.17 374.008 319.618 374.392C320.066 374.776 320.642 374.968 321.346 374.968ZM329.482 373.216V359.2H330.73V372.544C330.73 373.392 330.85 374.008 331.09 374.392C331.33 374.776 331.73 374.968 332.29 374.968C332.834 374.968 333.338 374.792 333.802 374.44L334.114 375.424C333.49 375.904 332.73 376.144 331.834 376.144C330.266 376.144 329.482 375.168 329.482 373.216ZM335.655 375.088C335.655 374.848 335.743 374.648 335.919 374.488C336.111 374.312 336.343 374.224 336.615 374.224C336.855 374.224 337.055 374.312 337.215 374.488C337.391 374.664 337.479 374.864 337.479 375.088C337.479 375.344 337.391 375.568 337.215 375.76C337.055 375.952 336.855 376.048 336.615 376.048C336.343 376.048 336.111 375.952 335.919 375.76C335.743 375.568 335.655 375.344 335.655 375.088ZM340.662 374.944V359.2H341.91V366.52C342.358 366.072 342.918 365.704 343.59 365.416C344.278 365.128 344.974 364.984 345.678 364.984C347.262 364.984 348.51 365.488 349.422 366.496C350.35 367.488 350.814 368.8 350.814 370.432C350.814 372.192 350.27 373.6 349.182 374.656C348.094 375.696 346.678 376.216 344.934 376.216C343.206 376.216 341.782 375.792 340.662 374.944ZM345.414 366.16C344.742 366.16 344.078 366.328 343.422 366.664C342.766 366.984 342.262 367.368 341.91 367.816V374.104C342.79 374.728 343.822 375.04 345.006 375.04C346.318 375.04 347.39 374.632 348.222 373.816C349.07 373 349.494 371.912 349.494 370.552C349.494 369.192 349.126 368.12 348.39 367.336C347.654 366.552 346.662 366.16 345.414 366.16ZM361.331 365.2H362.747L358.379 376C357.595 377.904 356.915 379.168 356.339 379.792C355.763 380.464 355.091 380.8 354.323 380.8C353.731 380.8 353.115 380.616 352.475 380.248L352.883 379.288C353.379 379.528 353.803 379.648 354.155 379.648C354.699 379.648 355.187 379.408 355.619 378.928C356.051 378.464 356.499 377.68 356.963 376.576L357.203 376L351.875 365.2H353.363L357.059 372.832L357.827 374.512C357.843 374.448 358.043 373.872 358.427 372.784L361.331 365.2Z" fill="#141414"/>
<path d="M48.9991 363.5L49.9991 363.5L48.9991 363.5ZM99.7071 372.207C100.098 371.817 100.098 371.183 99.7071 370.793L93.3431 364.429C92.9526 364.038 92.3194 364.038 91.9289 364.429C91.5384 364.819 91.5384 365.453 91.9289 365.843L97.5858 371.5L91.9289 377.157C91.5384 377.547 91.5384 378.181 91.9289 378.571C92.3194 378.962 92.9526 378.962 93.3431 378.571L99.7071 372.207ZM47.9993 126L47.9991 363.5L49.9991 363.5L49.9993 126L47.9993 126ZM56.9991 372.5L99 372.5L99 370.5L56.9991 370.5L56.9991 372.5ZM47.9991 363.5C47.9991 368.471 52.0286 372.5 56.9991 372.5L56.9991 370.5C53.1331 370.5 49.9991 367.366 49.9991 363.5L47.9991 363.5Z" fill="#E4002B"/>
<path d="M100.207 272.707C100.598 272.317 100.598 271.683 100.207 271.293L93.8431 264.929C93.4526 264.538 92.8195 264.538 92.4289 264.929C92.0384 265.319 92.0384 265.953 92.4289 266.343L98.0858 272L92.4289 277.657C92.0384 278.047 92.0384 278.681 92.4289 279.071C92.8195 279.462 93.4526 279.462 93.8431 279.071L100.207 272.707ZM58 273L99.5 273L99.5 271L58 271L58 273Z" fill="#E4002B"/>
<path d="M100.207 170.707C100.598 170.317 100.598 169.683 100.207 169.293L93.8431 162.929C93.4526 162.538 92.8195 162.538 92.4289 162.929C92.0384 163.319 92.0384 163.953 92.4289 164.343L98.0858 170L92.4289 175.657C92.0384 176.047 92.0384 176.681 92.4289 177.071C92.8195 177.462 93.4526 177.462 93.8431 177.071L100.207 170.707ZM58 171L99.5 171L99.5 169L58 169L58 171Z" fill="#E4002B"/>
</svg>
