<svg width="474" height="111" viewBox="0 0 474 111" fill="none" xmlns="http://www.w3.org/2000/svg">
<path fill-rule="evenodd" clip-rule="evenodd" d="M84.0956 0L56.391 27.7046L41.957 42.1386L55.4094 55.5909L83.1139 27.8863L110.818 55.5909L97.5479 68.8615L111.8 83.1137L139.505 55.4091L84.0956 0Z" fill="#244EA2"/>
<path fill-rule="evenodd" clip-rule="evenodd" d="M84.0953 55.4095L56.3908 83.114L28.6862 55.4095L41.9568 42.1389L27.7046 27.8867L0 55.5913L55.4091 111L83.1137 83.2958L97.5477 68.8618L84.0953 55.4095Z" fill="#244EA2"/>
<path fill-rule="evenodd" clip-rule="evenodd" d="M55.4094 55.5913L41.9571 42.1389L28.6865 55.4095L56.3911 83.114L84.0956 55.4095L97.548 68.8618L110.819 55.5913L83.114 27.8867L55.4094 55.5913Z" fill="#0083CA"/>
<path fill-rule="evenodd" clip-rule="evenodd" d="M164.047 61.354C165.592 61.354 166.864 61.1359 167.828 60.6632C169.7 59.8088 170.555 57.9909 170.555 55.5368C170.555 53.5008 169.755 51.7011 167.992 50.6285C166.974 50.0468 165.701 49.8286 163.938 49.8286H162.392V61.354H164.047ZM155.085 43.9023H164.265C167.464 43.9023 170.137 44.3386 172.209 45.393C176.045 47.2109 178.135 50.6831 178.135 55.5368C178.135 59.6452 176.372 64.0263 171.136 66.0442C169.155 66.7895 166.719 67.2622 163.61 67.2622H162.374V79.0602H155.066V43.9023H155.085Z" fill="black"/>
<path fill-rule="evenodd" clip-rule="evenodd" d="M201.659 64.6081L199.586 58.6818C198.732 56.1186 198.314 54.6279 197.987 53.4463H197.877C197.605 54.6824 197.078 56.1731 196.114 58.7363L193.987 64.6081H201.659ZM194.842 43.7388H200.768L215.129 79.0603H207.276L203.858 70.4617H191.915L188.661 79.0603H181.135L194.842 43.7388Z" fill="black"/>
<path fill-rule="evenodd" clip-rule="evenodd" d="M229.507 59.8634C231.107 59.8634 232.125 59.5907 233.034 59.118C234.416 58.2636 235.379 56.8275 235.379 54.846C235.379 52.9736 234.525 51.3738 232.98 50.574C232.18 50.0831 231.18 49.8286 229.562 49.8286H226.781V59.8634H229.507ZM219.473 43.9023H229.98C233.125 43.9023 235.47 44.375 237.342 45.2294C241.396 46.9927 242.942 50.3558 242.942 54.0825C242.942 58.6636 240.069 61.8812 236.106 63.0992V63.2083C237.179 63.79 238.724 65.717 240.596 68.971L246.305 79.0602H237.924L233.289 70.6252C231.525 67.3167 230.289 65.9896 229.453 65.7715H226.781V79.0602H219.473V43.9023Z" fill="black"/>
<path d="M259.122 43.9023H251.814V79.0602H259.122V43.9023Z" fill="black"/>
<path fill-rule="evenodd" clip-rule="evenodd" d="M274.118 50.1013H263.865V43.9023H292.57L290.643 50.1013H281.426V79.0602H274.118V50.1013Z" fill="black"/>
<path fill-rule="evenodd" clip-rule="evenodd" d="M296.68 43.9023H317.004L315.077 50.1013H303.988V58.2091H315.131V64.3354H303.988V72.8794H316.949V79.0602H296.68V43.9023Z" fill="black"/>
<path fill-rule="evenodd" clip-rule="evenodd" d="M330.873 50.1013H320.639V43.9023H349.325L347.416 50.1013H338.181V79.0602H330.873V50.1013Z" fill="black"/>
<path fill-rule="evenodd" clip-rule="evenodd" d="M363.104 75.7517C367.849 75.7517 370.994 73.8793 370.994 69.1891C370.994 65.2443 368.067 62.7356 363.577 62.7356H357.869V75.7517H363.104ZM361.704 59.4271C366.395 59.4271 368.903 57.1365 368.903 53.2281C368.903 49.7196 366.867 47.1927 361.85 47.1927H357.85V59.4089H361.704V59.4271ZM353.924 43.9023H362.086C369.558 43.9023 372.866 48.0108 372.866 52.81C372.866 56.3912 371.103 59.2089 368.231 60.4451V60.5542C372.175 61.4086 375.066 64.6626 375.066 69.0982C375.066 75.0245 370.903 79.0784 363.104 79.0784H353.924V43.9023Z" fill="black"/>
<path fill-rule="evenodd" clip-rule="evenodd" d="M398.68 66.3165L395.044 56.1728C393.917 53.0824 393.39 51.4281 392.954 50.101H392.845C392.408 51.4463 391.827 53.0824 390.718 56.1728L387.027 66.3165H398.68ZM391.536 43.793H394.263L407.715 79.0599H403.443L399.971 69.6251H385.828L382.355 79.0599H378.192L391.536 43.793Z" fill="black"/>
<path fill-rule="evenodd" clip-rule="evenodd" d="M438.364 79.0602L421.512 56.7548C419.385 53.9734 417.786 51.7374 416.549 49.9741H416.44C416.549 51.7374 416.604 53.2281 416.604 55.9913V79.042H412.659V43.9023H416.44L432.656 65.3534C434.892 68.3347 436.546 70.6798 437.782 72.4431H437.891C437.782 70.5707 437.782 69.0255 437.782 66.2623V43.9023H441.673V79.0602H438.364Z" fill="black"/>
<path fill-rule="evenodd" clip-rule="evenodd" d="M450.327 43.9023H454.272V60.0088H454.381L467.724 43.9023H472.414L457.799 61.2995L473.36 79.0602H468.415L454.381 63.0083H454.272V79.0602H450.327V43.9023Z" fill="black"/>
</svg>
