<svg width="237" height="56" viewBox="0 0 237 56" fill="none" xmlns="http://www.w3.org/2000/svg">
<path fill-rule="evenodd" clip-rule="evenodd" d="M42.1046 0L28.2336 13.871L21.0068 21.0978L27.7421 27.833L41.6131 13.962L55.4841 27.833L48.8399 34.4773L55.9756 41.613L69.8466 27.742L42.1046 0Z" fill="#244EA2"/>
<path fill-rule="evenodd" clip-rule="evenodd" d="M42.1045 27.7419L28.2335 41.6129L14.3625 27.7419L21.0068 21.0977L13.871 13.9619L0 27.8329L27.742 55.575L41.613 41.7039L48.8398 34.4772L42.1045 27.7419Z" fill="#244EA2"/>
<path fill-rule="evenodd" clip-rule="evenodd" d="M27.7418 27.8329L21.0066 21.0977L14.3623 27.7419L28.2333 41.6129L42.1043 27.7419L48.8396 34.4772L55.4838 27.8329L41.6128 13.9619L27.7418 27.8329Z" fill="#0083CA"/>
<path fill-rule="evenodd" clip-rule="evenodd" d="M82.1339 30.7181C82.9076 30.7181 83.5447 30.6089 84.0271 30.3722C84.9646 29.9445 85.3924 29.0343 85.3924 27.8056C85.3924 26.7862 84.9919 25.8851 84.109 25.3481C83.5993 25.0568 82.9622 24.9476 82.0793 24.9476H81.3057V30.7181H82.1339ZM77.6468 21.9805H82.2432C83.8451 21.9805 85.183 22.1989 86.2206 22.7268C88.1411 23.637 89.1878 25.3754 89.1878 27.8056C89.1878 29.8626 88.3049 32.0561 85.6836 33.0664C84.6915 33.4395 83.4719 33.6762 81.9155 33.6762H81.2966V39.5832H77.6377V21.9805H77.6468Z" fill="black"/>
<path fill-rule="evenodd" clip-rule="evenodd" d="M100.966 32.3472L99.9287 29.38C99.5009 28.0967 99.2916 27.3504 99.1277 26.7588H99.0731C98.9366 27.3777 98.6726 28.124 98.1902 29.4074L97.1253 32.3472H100.966ZM97.5531 21.8984H100.52L107.711 39.5831H103.779L102.068 35.278H96.0877L94.4585 39.5831H90.6904L97.5531 21.8984Z" fill="black"/>
<path fill-rule="evenodd" clip-rule="evenodd" d="M114.909 29.9718C115.71 29.9718 116.22 29.8352 116.675 29.5986C117.366 29.1708 117.849 28.4518 117.849 27.4597C117.849 26.5222 117.421 25.7213 116.647 25.3208C116.247 25.0751 115.746 24.9476 114.936 24.9476H113.544V29.9718H114.909ZM109.885 21.9805H115.146C116.72 21.9805 117.894 22.2171 118.832 22.6449C120.861 23.5278 121.635 25.2116 121.635 27.0774C121.635 29.3711 120.197 30.9821 118.213 31.5919V31.6465C118.75 31.9377 119.523 32.9025 120.461 34.5317L123.319 39.5832H119.123L116.802 35.36C115.919 33.7035 115.3 33.0391 114.882 32.9298H113.544V39.5832H109.885V21.9805Z" fill="black"/>
<path d="M129.736 21.9805H126.077V39.5832H129.736V21.9805Z" fill="black"/>
<path fill-rule="evenodd" clip-rule="evenodd" d="M137.244 25.0842H132.11V21.9805H146.482L145.517 25.0842H140.903V39.5832H137.244V25.0842Z" fill="black"/>
<path fill-rule="evenodd" clip-rule="evenodd" d="M148.54 21.9805H158.716L157.751 25.0842H152.199V29.1435H157.778V32.2108H152.199V36.4886H158.688V39.5832H148.54V21.9805Z" fill="black"/>
<path fill-rule="evenodd" clip-rule="evenodd" d="M165.66 25.0842H160.536V21.9805H174.899L173.943 25.0842H169.319V39.5832H165.66V25.0842Z" fill="black"/>
<path fill-rule="evenodd" clip-rule="evenodd" d="M181.797 37.9267C184.172 37.9267 185.747 36.9892 185.747 34.641C185.747 32.6659 184.281 31.4098 182.033 31.4098H179.175V37.9267H181.797ZM181.096 29.7533C183.444 29.7533 184.7 28.6065 184.7 26.6496C184.7 24.893 183.681 23.6279 181.169 23.6279H179.166V29.7442H181.096V29.7533ZM177.2 21.9805H181.287C185.028 21.9805 186.684 24.0375 186.684 26.4403C186.684 28.2333 185.801 29.6441 184.363 30.263V30.3176C186.338 30.7454 187.785 32.3746 187.785 34.5954C187.785 37.5626 185.701 39.5923 181.797 39.5923H177.2V21.9805Z" fill="black"/>
<path fill-rule="evenodd" clip-rule="evenodd" d="M199.61 33.2028L197.79 28.124C197.226 26.5768 196.962 25.7485 196.743 25.0841H196.689C196.47 25.7576 196.179 26.5768 195.624 28.124L193.776 33.2028H199.61ZM196.033 21.9258H197.398L204.134 39.5831H201.995L200.256 34.8593H193.175L191.437 39.5831H189.353L196.033 21.9258Z" fill="black"/>
<path fill-rule="evenodd" clip-rule="evenodd" d="M219.478 39.5832L211.041 28.4154C209.976 27.0228 209.175 25.9033 208.556 25.0204H208.502C208.556 25.9033 208.583 26.6496 208.583 28.0331V39.5741H206.608V21.9805H208.502L216.62 32.7205C217.74 34.2132 218.568 35.3873 219.187 36.2702H219.242C219.187 35.3327 219.187 34.559 219.187 33.1756V21.9805H221.135V39.5832H219.478Z" fill="black"/>
<path fill-rule="evenodd" clip-rule="evenodd" d="M225.468 21.9805H227.443V30.0446H227.497L234.178 21.9805H236.526L229.209 30.6908L237 39.5832H234.524L227.497 31.5464H227.443V39.5832H225.468V21.9805Z" fill="black"/>
</svg>
