<svg width="40" height="49" viewBox="0 0 40 49" fill="none" xmlns="http://www.w3.org/2000/svg">
<path d="M7.23691 40.0001C6.72849 40.0001 6.31586 39.5678 6.31586 39.0352V29.3861C6.31586 28.8534 6.72849 28.4211 7.23691 28.4211H10.0001C12.0319 28.4211 13.6843 30.1522 13.6843 32.2808C13.6843 34.4094 12.0319 36.1404 10.0001 36.1404H8.15796V39.0352C8.15796 39.5678 7.74533 40.0001 7.23691 40.0001ZM8.15796 34.2106H10.0001C11.0151 34.2106 11.8422 33.3441 11.8422 32.2808C11.8422 31.2175 11.0151 30.351 10.0001 30.351H8.15796V34.2106Z" fill="#141414"/>
<path d="M35 48.4211H5C2.244 48.4211 0 46.1574 0 43.3772V5.04386C0 2.26368 2.244 0 5 0H35C37.756 0 40 2.26368 40 5.04386V43.3772C40 46.1574 37.756 48.4211 35 48.4211ZM5 2.01754C3.346 2.01754 2 3.37535 2 5.04386V43.3772C2 45.0457 3.346 46.4035 5 46.4035H35C36.654 46.4035 38 45.0457 38 43.3772V5.04386C38 3.37535 36.654 2.01754 35 2.01754H5Z" fill="#141414"/>
<path d="M21.0527 40.0001H16.8422C16.2612 40.0001 15.7896 39.5678 15.7896 39.0352V29.3861C15.7896 28.8534 16.2612 28.4211 16.8422 28.4211H21.0527C22.7938 28.4211 24.2106 29.7199 24.2106 31.3159V37.1054C24.2106 38.7013 22.7938 40.0001 21.0527 40.0001ZM17.8948 38.0703H21.0527C21.6338 38.0703 22.1054 37.638 22.1054 37.1054V31.3159C22.1054 30.7832 21.6338 30.351 21.0527 30.351H17.8948V38.0703Z" fill="#141414"/>
<path d="M27.3685 40.0001C26.7874 40.0001 26.3158 39.5678 26.3158 39.0352V31.3159C26.3158 29.7199 27.7327 28.4211 29.4737 28.4211H33.6842C34.2653 28.4211 34.7369 28.8534 34.7369 29.3861C34.7369 29.9187 34.2653 30.351 33.6842 30.351H29.4737C28.8927 30.351 28.4211 30.7832 28.4211 31.3159V39.0352C28.4211 39.5678 27.9495 40.0001 27.3685 40.0001Z" fill="#141414"/>
<path d="M33.6842 35.7893H27.3685C26.7874 35.7893 26.3158 35.3178 26.3158 34.7367C26.3158 34.1557 26.7874 33.6841 27.3685 33.6841H33.6842C34.2653 33.6841 34.7369 34.1557 34.7369 34.7367C34.7369 35.3178 34.2653 35.7893 33.6842 35.7893Z" fill="#141414"/>
</svg>
