<svg width="40" height="51" viewBox="0 0 40 51" fill="none" xmlns="http://www.w3.org/2000/svg">
<path d="M1 43.5V7C1 3.68629 3.68629 1 7 1H27.3431C28.404 1 29.4214 1.42143 30.1716 2.17157L37.8284 9.82843C38.5786 10.5786 39 11.596 39 12.6569V43.5C39 46.8137 36.3137 49.5 33 49.5H7C3.68629 49.5 1 46.8137 1 43.5Z" stroke="#E4002B" stroke-width="2"/>
<path d="M11.5454 38.5659V42H9.93945V32.7578H13.4751C14.5076 32.7578 15.3265 33.0265 15.9316 33.564C16.541 34.1014 16.8457 34.8123 16.8457 35.6968C16.8457 36.6024 16.5474 37.307 15.9507 37.8105C15.3582 38.3141 14.5267 38.5659 13.4561 38.5659H11.5454ZM11.5454 37.2773H13.4751C14.0464 37.2773 14.4823 37.144 14.7827 36.8774C15.0832 36.6066 15.2334 36.2173 15.2334 35.7095C15.2334 35.2101 15.0811 34.8123 14.7764 34.5161C14.4717 34.2157 14.0527 34.0612 13.5195 34.0527H11.5454V37.2773ZM17.6699 42V32.7578H20.3994C21.2161 32.7578 21.9397 32.9398 22.5703 33.3037C23.205 33.6676 23.6959 34.1839 24.0429 34.8525C24.3899 35.5212 24.5634 36.2871 24.5634 37.1504V37.6138C24.5634 38.4897 24.3878 39.2599 24.0366 39.9243C23.6896 40.5887 23.1923 41.1007 22.5449 41.4604C21.9017 41.8201 21.1632 42 20.3296 42H17.6699ZM19.2758 34.0527V40.7178H20.3232C21.1653 40.7178 21.8107 40.4554 22.2592 39.9307C22.712 39.4017 22.9427 38.6442 22.9511 37.6582V37.144C22.9511 36.1411 22.7332 35.3752 22.2973 34.8462C21.8615 34.3172 21.2288 34.0527 20.3994 34.0527H19.2758ZM30.9037 38.0835H27.184V42H25.578V32.7578H31.4496V34.0527H27.184V36.8013H30.9037V38.0835Z" fill="white"/>
</svg>
