<svg width="40" height="49" viewBox="0 0 40 49" fill="none" xmlns="http://www.w3.org/2000/svg">
<path d="M7.23691 40C6.72849 40 6.31586 39.5677 6.31586 39.0351V29.386C6.31586 28.8533 6.72849 28.4211 7.23691 28.4211H10.0001C12.0319 28.4211 13.6843 30.1521 13.6843 32.2807C13.6843 34.4093 12.0319 36.1403 10.0001 36.1403H8.15796V39.0351C8.15796 39.5677 7.74533 40 7.23691 40ZM8.15796 34.2105H10.0001C11.0151 34.2105 11.8422 33.344 11.8422 32.2807C11.8422 31.2174 11.0151 30.3509 10.0001 30.3509H8.15796V34.2105Z" fill="#E4002B"/>
<path d="M35 48.4211H5C2.244 48.4211 0 46.1574 0 43.3772V5.04386C0 2.26368 2.244 0 5 0H35C37.756 0 40 2.26368 40 5.04386V43.3772C40 46.1574 37.756 48.4211 35 48.4211ZM5 2.01754C3.346 2.01754 2 3.37535 2 5.04386V43.3772C2 45.0457 3.346 46.4035 5 46.4035H35C36.654 46.4035 38 45.0457 38 43.3772V5.04386C38 3.37535 36.654 2.01754 35 2.01754H5Z" fill="#E4002B"/>
<path d="M21.0527 40H16.8422C16.2611 40 15.7896 39.5677 15.7896 39.0351V29.386C15.7896 28.8533 16.2611 28.4211 16.8422 28.4211H21.0527C22.7938 28.4211 24.2106 29.7198 24.2106 31.3158V37.1053C24.2106 38.7012 22.7938 40 21.0527 40ZM17.8948 38.0702H21.0527C21.6338 38.0702 22.1053 37.6379 22.1053 37.1053V31.3158C22.1053 30.7832 21.6338 30.3509 21.0527 30.3509H17.8948V38.0702Z" fill="#E4002B"/>
<path d="M27.3684 40C26.7874 40 26.3158 39.5677 26.3158 39.0351V31.3158C26.3158 29.7198 27.7326 28.4211 29.4737 28.4211H33.6842C34.2653 28.4211 34.7368 28.8533 34.7368 29.386C34.7368 29.9186 34.2653 30.3509 33.6842 30.3509H29.4737C28.8926 30.3509 28.4211 30.7832 28.4211 31.3158V39.0351C28.4211 39.5677 27.9495 40 27.3684 40Z" fill="#E4002B"/>
<path d="M33.6842 35.7895H27.3684C26.7874 35.7895 26.3158 35.3179 26.3158 34.7368C26.3158 34.1558 26.7874 33.6842 27.3684 33.6842H33.6842C34.2653 33.6842 34.7368 34.1558 34.7368 34.7368C34.7368 35.3179 34.2653 35.7895 33.6842 35.7895Z" fill="#E4002B"/>
</svg>
