<svg width="95" height="121" viewBox="0 0 95 121" fill="none" xmlns="http://www.w3.org/2000/svg">
<path d="M12.2082 41.1257C6.57039 41.1257 2 45.6961 2 51.334V73.9701C2 98.8394 22.1605 119 47.0298 119C71.8991 119 92.0596 98.8394 92.0596 73.9701V51.334C92.0596 45.6961 87.4892 41.1257 81.8514 41.1257H12.2082Z" stroke="#E4002B" stroke-width="4"/>
<path d="M41.7082 74.9629C41.8648 75.7364 42.1908 76.4607 42.657 77.0878L42.657 81.1595C42.657 83.5848 44.6487 85.49 47.0297 85.49C49.4107 85.49 51.4023 83.5848 51.4023 81.1595L51.4023 77.0878C51.8686 76.4607 52.1946 75.7364 52.3512 74.9629C52.5634 73.9148 52.4542 72.8288 52.0388 71.8439C51.6236 70.8593 50.923 70.0236 50.0311 69.4382C49.1396 68.8531 48.0952 68.543 47.0297 68.543C45.9642 68.543 44.9198 68.8531 44.0283 69.4382C43.1364 70.0236 42.4358 70.8593 42.0206 71.8439C41.6052 72.8288 41.4959 73.9148 41.7082 74.9629Z" stroke="#E4002B" stroke-width="4"/>
<path d="M71.0198 41.6026V26.3709C71.0198 12.9112 60.1086 2 46.6489 2V2C33.1893 2 22.2781 12.9112 22.2781 26.3708V41.6026" stroke="#E4002B" stroke-width="4"/>
</svg>
