<svg width="215" height="141" viewBox="0 0 215 141" fill="none" xmlns="http://www.w3.org/2000/svg">
<path fill-rule="evenodd" clip-rule="evenodd" d="M10 30H165C168.314 30 171 32.6863 171 36V39.3332H4V36C4 32.6863 6.68629 30 10 30ZM4 43.3332V131C4 134.314 6.68629 137 10 137H165C168.314 137 171 134.314 171 131V43.3332H4ZM0 36C0 30.4772 4.47715 26 10 26H165C170.523 26 175 30.4772 175 36V131C175 136.523 170.523 141 165 141H10C4.47715 141 0 136.523 0 131V36Z" fill="#C5CDCF"/>
<rect x="10.5098" y="31.6055" width="5" height="5" fill="#C5CDCF"/>
<rect x="23.123" y="31.6055" width="5" height="5" fill="#C5CDCF"/>
<rect x="35.7344" y="31.6055" width="5" height="5" fill="#C5CDCF"/>
<path d="M23 69.9458V56.9458C23 54.1844 25.2386 51.9458 28 51.9458H67C69.7614 51.9458 72 54.1844 72 56.9458V69.9458C72 72.7072 69.7614 74.9458 67 74.9458H28C25.2386 74.9458 23 72.7072 23 69.9458Z" stroke="#C5CDCF" stroke-width="3"/>
<path d="M34.8908 66.9874L29.4263 72.4518C28.7964 73.0818 29.2425 74.1589 30.1335 74.1589H45.305C46.1959 74.1589 46.6421 73.0818 46.0121 72.4518L40.5477 66.9874C38.9856 65.4253 36.4529 65.4253 34.8908 66.9874Z" stroke="#C5CDCF" stroke-width="2"/>
<path d="M50.0359 60.6174L38.8643 71.789C38.2344 72.419 38.6805 73.4961 39.5714 73.4961H64.743C65.6339 73.4961 66.0801 72.419 65.4501 71.789L54.2785 60.6174C53.107 59.4458 51.2075 59.4458 50.0359 60.6174Z" fill="#F6F4F2" stroke="#C5CDCF" stroke-width="2"/>
<path d="M23 124.946V111.946C23 109.184 25.2386 106.946 28 106.946H67C69.7614 106.946 72 109.184 72 111.946V124.946C72 127.707 69.7614 129.946 67 129.946H28C25.2386 129.946 23 127.707 23 124.946Z" stroke="#C5CDCF" stroke-width="3"/>
<path d="M34.8908 121.987L29.4263 127.452C28.7964 128.082 29.2425 129.159 30.1335 129.159H45.305C46.1959 129.159 46.6421 128.082 46.0121 127.452L40.5477 121.987C38.9856 120.425 36.4529 120.425 34.8908 121.987Z" stroke="#C5CDCF" stroke-width="2"/>
<path d="M50.0359 115.617L38.8643 126.789C38.2344 127.419 38.6805 128.496 39.5714 128.496H64.743C65.6339 128.496 66.0801 127.419 65.4501 126.789L54.2785 115.617C53.107 114.446 51.2075 114.446 50.0359 115.617Z" fill="#F6F4F2" stroke="#C5CDCF" stroke-width="2"/>
<path d="M84.5 128.946V61.9458C84.5 59.1844 86.7386 56.9458 89.5 56.9458H128.5C131.261 56.9458 133.5 59.1844 133.5 61.9458V128.946C133.5 131.707 131.261 133.946 128.5 133.946H89.5C86.7386 133.946 84.5 131.707 84.5 128.946Z" stroke="#C5CDCF" stroke-width="3"/>
<path d="M85 121.946L103.895 111.761C105.883 110.69 108.342 111.084 109.896 112.722L115.884 119.037C117.496 120.737 120.071 121.09 122.081 119.886L132 113.946" stroke="#C5CDCF" stroke-width="3"/>
<path d="M23 87.9458H65" stroke="#C5CDCF" stroke-width="3" stroke-linecap="round"/>
<path d="M30 97.9458H72" stroke="#C5CDCF" stroke-width="3" stroke-linecap="round"/>
<circle cx="167" cy="48" r="48" fill="#F6F4F2"/>
<path d="M149.15 37.6508C145.753 37.6508 143 40.4043 143 43.8008V55.5001C143 68.4788 153.521 79.0001 166.5 79.0001C179.479 79.0001 190 68.4788 190 55.5001V43.8008C190 40.4043 187.247 37.6508 183.85 37.6508H149.15Z" stroke="#E4002B" stroke-width="4"/>
<path d="M162.475 56.8069C162.587 57.3946 162.824 57.9508 163.169 58.4355L163.169 61.6178C163.169 63.3844 164.561 64.9178 166.4 64.9178C168.239 64.9178 169.631 63.3844 169.631 61.6178L169.631 58.4355C169.976 57.9508 170.213 57.3946 170.325 56.8069C170.475 56.0229 170.399 55.2097 170.103 54.4678C169.807 53.7255 169.303 53.0817 168.645 52.6242C167.986 52.1663 167.204 51.9178 166.4 51.9178C165.595 51.9178 164.814 52.1663 164.155 52.6242C163.497 53.0817 162.992 53.7255 162.697 54.4678C162.401 55.2097 162.325 56.0229 162.475 56.8069Z" stroke="#E4002B" stroke-width="3"/>
<path d="M178.133 39V31C178.133 24.3726 172.76 19 166.133 19V19C159.505 19 154.133 24.3726 154.133 31V39" stroke="#E4002B" stroke-width="4"/>
</svg>
