<svg width="346" height="163" viewBox="0 0 346 163" fill="none" xmlns="http://www.w3.org/2000/svg">
<path fill-rule="evenodd" clip-rule="evenodd" d="M4.20664 46.168C5.02851 42.6238 8.20579 39.9824 12 39.9824H127.002C130.796 39.9824 133.973 42.6238 134.795 46.168H4.20664ZM4 50.168V124.018C4 128.436 7.58172 132.018 12 132.018H127.002C131.42 132.018 135.002 128.436 135.002 124.018V50.168H4ZM12 35.9824C5.37257 35.9824 0 41.355 0 47.9824V124.018C0 130.645 5.37258 136.018 12 136.018H127.002C133.629 136.018 139.002 130.645 139.002 124.018V47.9824C139.002 41.355 133.629 35.9824 127.002 35.9824H12Z" fill="#C5CDCF"/>
<path d="M96 73H125" stroke="#C5CDCF" stroke-width="3" stroke-linecap="round"/>
<path d="M96 86H125" stroke="#C5CDCF" stroke-width="3" stroke-linecap="round"/>
<path d="M96 99H125" stroke="#C5CDCF" stroke-width="3" stroke-linecap="round"/>
<path d="M14 97.9999V74C14 71.2386 16.2386 69 19 69H79C81.7614 69 84 71.2386 84 74V97.9999C84 100.761 81.7614 103 79 103H19C16.2386 103 14 100.761 14 97.9999Z" stroke="#C5CDCF" stroke-width="3"/>
<path d="M31.8067 90.1731L22.3011 100.358C21.7045 100.997 22.1578 102.04 23.0322 102.04H46.4297C47.3041 102.04 47.7574 100.997 47.1608 100.358L37.6552 90.1731C36.0738 88.4788 33.3881 88.4788 31.8067 90.1731Z" stroke="#C5CDCF" stroke-width="2"/>
<path d="M53.5468 81.0753L35.8527 99.181C35.2339 99.8142 35.6825 100.88 36.5679 100.88H74.8169C75.7022 100.88 76.1509 99.8142 75.5321 99.181L57.8379 81.0753C56.661 79.8711 54.7237 79.8711 53.5468 81.0753Z" fill="#F6F4F2" stroke="#C5CDCF" stroke-width="2"/>
<path d="M100 65.5L192 27.5" stroke="#E4002B" stroke-width="2" stroke-linecap="round"/>
<path d="M100 95L192 133" stroke="#C5CDCF" stroke-width="2" stroke-linecap="round"/>
<path d="M298 17H327" stroke="#E4002B" stroke-width="3" stroke-linecap="round"/>
<path d="M298 30H327" stroke="#E4002B" stroke-width="3" stroke-linecap="round"/>
<path d="M298 43H327" stroke="#E4002B" stroke-width="3" stroke-linecap="round"/>
<path d="M216 41.9999V18C216 15.2386 218.239 13 221 13H281C283.761 13 286 15.2386 286 18V41.9999C286 44.7613 283.761 46.9999 281 46.9999H221C218.239 46.9999 216 44.7613 216 41.9999Z" stroke="#E4002B" stroke-width="3"/>
<path d="M233.807 34.1731L224.301 44.3577C223.705 44.9969 224.158 46.04 225.032 46.04H248.43C249.304 46.04 249.757 44.9969 249.161 44.3577L239.655 34.1731C238.074 32.4788 235.388 32.4788 233.807 34.1731Z" stroke="#E4002B" stroke-width="2"/>
<path d="M255.547 25.0753L237.853 43.181C237.234 43.8142 237.683 44.8799 238.568 44.8799H276.817C277.702 44.8799 278.151 43.8142 277.532 43.181L259.838 25.0753C258.661 23.8711 256.724 23.8711 255.547 25.0753Z" fill="#F6F4F2" stroke="#E4002B" stroke-width="2"/>
<path d="M199 53.5V6.5C199 3.73858 201.239 1.5 204 1.5H339C341.761 1.5 344 3.73858 344 6.5V53.5C344 56.2614 341.761 58.5 339 58.5H204C201.239 58.5 199 56.2614 199 53.5Z" stroke="#E4002B" stroke-width="3"/>
<path d="M257 120H286" stroke="#C5CDCF" stroke-width="3" stroke-linecap="round"/>
<path d="M257 133H286" stroke="#C5CDCF" stroke-width="3" stroke-linecap="round"/>
<path d="M257 146H286" stroke="#C5CDCF" stroke-width="3" stroke-linecap="round"/>
<path d="M205 145V121C205 118.239 207.239 116 210 116H244C246.761 116 249 118.239 249 121V145C249 147.761 246.761 150 244 150H210C207.239 150 205 147.761 205 145Z" stroke="#C5CDCF" stroke-width="3"/>
<path d="M214.801 139.757L210.14 147.526C209.74 148.192 210.22 149.04 210.997 149.04H225.465C226.242 149.04 226.722 148.192 226.322 147.526L221.661 139.757C220.107 137.167 216.355 137.167 214.801 139.757Z" stroke="#C5CDCF" stroke-width="2"/>
<path d="M228.635 130.047L218.627 146.357C218.218 147.023 218.698 147.88 219.479 147.88H242.905C243.687 147.88 244.167 147.023 243.758 146.357L233.749 130.047C232.579 128.139 229.806 128.139 228.635 130.047Z" fill="#F6F4F2" stroke="#C5CDCF" stroke-width="2"/>
<path d="M294 145V121C294 118.239 296.239 116 299 116H333C335.761 116 338 118.239 338 121V145C338 147.761 335.761 150 333 150H299C296.239 150 294 147.761 294 145Z" stroke="#C5CDCF" stroke-width="3"/>
<path d="M303.801 139.757L299.14 147.526C298.74 148.192 299.22 149.04 299.997 149.04H314.465C315.242 149.04 315.722 148.192 315.322 147.526L310.661 139.757C309.107 137.167 305.355 137.167 303.801 139.757Z" stroke="#C5CDCF" stroke-width="2"/>
<path d="M317.635 130.047L307.627 146.357C307.218 147.023 307.698 147.88 308.479 147.88H331.905C332.687 147.88 333.167 147.023 332.758 146.357L322.749 130.047C321.579 128.139 318.806 128.139 317.635 130.047Z" fill="#F6F4F2" stroke="#C5CDCF" stroke-width="2"/>
<path d="M199 156V109C199 106.239 201.239 104 204 104H339C341.761 104 344 106.239 344 109V156C344 158.761 341.761 161 339 161H204C201.239 161 199 158.761 199 156Z" stroke="#C5CDCF" stroke-width="3"/>
</svg>
