<svg width="90" height="119" viewBox="0 0 90 119" fill="none" xmlns="http://www.w3.org/2000/svg">
<path d="M73.3148 26H78C83.5228 26 88 30.4772 88 36V107C88 112.523 83.5229 117 78 117H37C31.4772 117 27 112.523 27 107V67.7705" stroke="#E4002B" stroke-width="4" stroke-linecap="round"/>
<path d="M36.3558 4.65469C34.4432 1.26146 29.5568 1.26147 27.6442 4.65469L22.0446 14.5895C21.9019 14.8427 21.6561 15.0213 21.3712 15.0787L10.1922 17.3343C6.37408 18.1047 4.86409 22.7519 7.50023 25.6194L15.2184 34.0151C15.4151 34.229 15.509 34.518 15.4756 34.8067L14.1663 46.1355C13.7191 50.0049 17.6723 52.877 21.2141 51.256L31.5838 46.51C31.8481 46.389 32.1519 46.389 32.4162 46.51L42.7859 51.256C46.3277 52.877 50.2809 50.0049 49.8337 46.1355L48.5244 34.8067C48.491 34.518 48.5849 34.229 48.7816 34.0151L56.4998 25.6194C59.1359 22.7519 57.6259 18.1047 53.8078 17.3343L42.6288 15.0787C42.3439 15.0213 42.0981 14.8427 41.9554 14.5895L36.3558 4.65469Z" stroke="#E4002B" stroke-width="4"/>
<path d="M9.73387 64.5115L7.95964 63.5884C8.81875 61.9372 11.1812 61.9372 12.0404 63.5884L13.2464 65.9065L15.6458 66.4309C17.3406 66.8014 18.0308 68.8433 16.9083 70.166L15.1611 72.225L15.4575 75.0031L13.4687 75.2153L15.4575 75.0031C15.65 76.8076 13.7746 78.1139 12.1487 77.3077L10 76.2423L7.85125 77.3077C6.22538 78.1139 4.35003 76.8076 4.54254 75.0031L4.83891 72.225L3.09169 70.166M9.73387 64.5115L3.09169 70.166M9.73387 64.5115L7.95964 63.5884L6.75359 65.9065L4.35423 66.4309C2.65942 66.8014 1.96922 68.8433 3.09169 70.166M9.73387 64.5115L4.61663 68.872L3.09169 70.166" stroke="#E4002B" stroke-width="4" stroke-linecap="round"/>
</svg>
