<svg width="137" height="27" viewBox="0 0 137 27" fill="none" xmlns="http://www.w3.org/2000/svg">
<path fill-rule="evenodd" clip-rule="evenodd" d="M53.7464 12.5627C52.6568 12.5627 51.7722 13.4464 51.7722 14.5353C51.7722 15.6266 52.6568 16.5095 53.7464 16.5095C54.8369 16.5095 55.7203 15.6266 55.7203 14.5353C55.7203 13.4464 54.8369 12.5627 53.7464 12.5627ZM134.073 11.1142C135.367 11.1142 136.314 11.8386 136.934 12.5627V9.06465C135.917 8.37524 134.692 8.09924 133.627 8.09924C130.355 8.09924 127.511 10.4423 127.511 14.4732C127.511 18.3328 130.095 20.8487 133.678 20.8487C134.711 20.8487 135.848 20.6922 136.934 19.9526V16.5219C136.314 17.1607 135.333 17.8334 134.073 17.8334C132.145 17.8334 130.99 16.404 130.99 14.5767C130.99 12.5953 132.213 11.1142 134.073 11.1142ZM127.881 8.44454H123.919L120.283 13.5086V8.44454H116.907L116.909 20.5038H120.283V15.3171L123.779 20.5038H128.002L123.299 14.284L127.881 8.44454ZM106.937 15.6803V8.44454H103.681V20.5038H106.989L111.658 13.2676V20.5038H114.914V8.44454H111.605L106.937 15.6803ZM97.1532 13.8702H96.1902V11.0978H97.1532C98.6005 11.0978 98.8064 11.8721 98.8064 12.4754C98.8064 12.992 98.6519 13.8702 97.1532 13.8702ZM97.8932 8.44454H92.8121V20.5038H96.1902V16.5219H97.8932C101.305 16.5219 102.287 14.1474 102.287 12.4754C102.287 10.821 101.322 8.44454 97.8932 8.44454ZM82.7525 11.3376H85.4038V20.5038H88.7816V11.3376H91.4336V8.44454H82.7525V11.3376ZM73.3967 15.6803V8.44454H70.1417V20.5038H73.4501L78.1167 13.2676V20.5038H81.3733V8.44454H78.0665L73.3967 15.6803ZM63.3368 18.0903H61.8903V15.5589H63.3368C64.4054 15.5589 65.0259 15.8695 65.0259 16.8178C65.0259 17.7816 64.3887 18.0903 63.3368 18.0903ZM63.665 13.1469H61.8903V11.3376H67.4199V8.44454H58.5141L58.5138 20.5038L63.665 20.5038C64.5424 20.5038 68.402 20.5372 68.402 16.7656C68.402 13.1298 64.5778 13.1469 63.665 13.1469ZM39.6162 14.4732C39.6162 18.3328 42.2002 20.8487 45.783 20.8487C46.8177 20.8487 47.9544 20.6922 49.0401 19.9526V16.5219C48.418 17.1607 47.4362 17.8334 46.1793 17.8334C44.2493 17.8334 43.0959 16.404 43.0959 14.5767C43.0959 12.5953 44.3186 11.1142 46.1793 11.1142C47.4709 11.1142 48.418 11.8386 49.0401 12.5627V9.06465C48.0213 8.37524 46.7994 8.09924 45.7312 8.09924C42.4579 8.09924 39.6162 10.4423 39.6162 14.4732ZM32.5469 11.2177H34.3913V20.5038H37.5097V8.44454H32.5469V11.2177Z" fill="#141414"/>
<path fill-rule="evenodd" clip-rule="evenodd" d="M13.258 0C12.2703 0 11.3097 0.111118 10.3841 0.316626V13.268C10.3841 14.8551 11.6781 16.1495 13.2656 16.1495C14.8523 16.1495 16.1459 14.8551 16.1459 13.2688C16.1459 11.7442 14.9547 10.4929 13.4572 10.3933V8.08689C16.2244 8.18726 18.4511 10.4765 18.4511 13.2688C18.4511 16.1244 16.1216 18.4551 13.2656 18.4551C10.4084 18.4551 8.07933 16.1244 8.07933 13.268V1.04944C7.75195 1.18844 7.43214 1.34257 7.1187 1.50825V13.268C7.1191 16.6529 9.88071 19.4133 13.2656 19.4133C16.6509 19.4133 19.4113 16.6529 19.4113 13.2688C19.4113 9.94762 16.7549 7.22782 13.4572 7.12547V4.81988C18.0238 4.92303 21.7153 8.67873 21.7153 13.2688C21.7153 17.9238 17.9194 21.7189 13.2656 21.7189C8.61062 21.7189 4.8135 17.9238 4.8135 13.268V3.03761C1.87426 5.46826 0 9.14391 0 13.258C0 20.5803 5.93583 26.5177 13.2584 26.5177C20.5823 26.5177 26.5165 20.5803 26.5165 13.258C26.5165 5.93583 20.5823 0 13.258 0Z" fill="#141414"/>
</svg>
