<svg width="51" height="25" viewBox="0 0 51 25" fill="none" xmlns="http://www.w3.org/2000/svg">
<path fill-rule="evenodd" clip-rule="evenodd" d="M26.401 21.6878C25.3828 21.6089 24.286 21.4511 23.4242 21.2144C23.2671 21.1356 22.5625 20.8989 22.4054 20.82C19.2721 19.4006 17.1565 16.1672 17.1565 12.5394C17.1565 7.49222 21.2307 3.39111 26.2445 3.39111C31.1798 3.39111 35.2533 7.41333 35.3319 12.4606H38.6222C38.4657 5.52056 32.9818 0 26.1653 0C19.3507 0 13.7888 5.59944 13.7888 12.4606C13.7888 17.1922 16.4519 21.2939 20.291 23.4228C20.9962 23.8172 22.0144 24.2117 22.328 24.29C23.5271 24.6274 24.7616 24.8391 26.0094 24.9211C26.4016 24.9211 27.8114 25 28.2816 25H50.922V21.6878H26.401ZM28.3589 16.4822H26.6355C26.2445 16.4822 25.6958 16.4039 25.3042 16.325C24.9785 16.2563 24.6627 16.1503 24.3639 16.0094C23.1106 15.3783 22.3274 14.0378 22.3274 12.5394C22.3274 10.3311 24.0509 8.59611 26.2445 8.59611C28.3595 8.59611 30.083 10.3311 30.1615 12.3817H33.2948C33.2168 8.51722 30.083 5.36278 26.2445 5.36278C22.3274 5.36278 19.1936 8.51722 19.1936 12.4606C19.1936 15.2211 20.7605 17.6661 23.1106 18.77C23.5022 19.0061 24.1289 19.1644 24.286 19.2428C24.9126 19.4006 25.7743 19.5583 26.479 19.5583H51V16.4039H28.3595V16.4828L28.3589 16.4822ZM11.7523 25H8.46131V3.31222H3.60341V0H11.7517V25H11.7523ZM0 4.96833V8.20167H3.60341V25H6.81583V4.96833H0Z" fill="#e4002b"/>
</svg>
