<svg width="95" height="17" viewBox="0 0 95 17" fill="none" xmlns="http://www.w3.org/2000/svg">
<path d="M3.35677 8.08887L0.890625 16.7653H4.93564L7.40178 8.08887H3.35677Z" fill="#141414"/>
<path d="M20.8587 13.7346H18.9567V8.08435H20.8587V13.7346ZM21.9962 5.05583H18.9567V0.761658H15.0664V16.7608H21.9984C23.6433 16.7608 24.749 15.6715 24.749 14.0487V7.76793C24.749 6.14519 23.6433 5.05583 21.9984 5.05583H21.9962Z" fill="#141414"/>
<path d="M31.7955 14.0352H30.1028V11.8677H31.7932V14.0352H31.7955ZM32.933 5.05582H26.936V7.78374H31.7932V9.47203H28.963C27.3045 9.47203 26.1875 10.5524 26.1875 12.1593V14.0623C26.1875 15.6828 27.3023 16.7744 28.963 16.7744H35.6858V7.76792C35.6858 6.14518 34.5801 5.05582 32.9353 5.05582H32.933Z" fill="#141414"/>
<path d="M49.9157 5.05582H37.4258V16.7631H41.3161V8.08434H43.1248V16.7631H46.9923V8.08434H48.801V16.7631H52.6913V7.76792C52.6913 6.14518 51.5765 5.05582 49.9157 5.05582Z" fill="#141414"/>
<path d="M59.8157 9.95343H58.1253V7.786H59.8157V9.95343ZM60.9532 5.05808H56.981C55.3361 5.05808 54.2305 6.14744 54.2305 7.77018V14.0578C54.2305 15.6782 55.3361 16.7699 56.981 16.7699H63.5172V14.0352H58.1208V11.9152H63.7265V7.76792C63.7265 6.14518 62.6117 5.05582 60.9509 5.05582L60.9532 5.05808Z" fill="#141414"/>
<path d="M69.195 2.38889H65.3047V14.0555C65.3047 15.676 66.4104 16.7676 68.0552 16.7676H71.0128V13.9425H69.1927V8.08657H71.0128V5.05579H69.1927V2.38889H69.195Z" fill="#141414"/>
<path d="M77.7881 7.00175V16.7653H81.6784V8.08659H83.9671V5.05582H79.7378C78.5502 5.05582 77.7812 5.81972 77.7812 6.99949L77.7881 7.00175Z" fill="#141414"/>
<path d="M89.0316 5.05582H85.1641V14.0532C85.1641 15.0658 85.5212 16.7653 87.9146 16.7653H94.8489V5.05808H90.9586V13.7368H89.0339V5.05808L89.0316 5.05582Z" fill="#141414"/>
<path d="M72.9883 16.7654H75.8071V13.9651H72.9883V16.7654Z" fill="#141414"/>
<path d="M9.15049 0H5.10547L9.8694 16.7653H13.9144L9.15049 0Z" fill="#141414"/>
<path d="M10.3788 15.0861H4.14062V12.1254H10.3788V15.0861Z" fill="#141414"/>
</svg>
