<svg width="125" height="22" viewBox="0 0 125 22" fill="none" xmlns="http://www.w3.org/2000/svg">
<path d="M84.2777 16.1773H95.4077V13.7047H88.0717C89.0836 9.6472 95.2812 8.76011 95.2812 4.25907C95.2812 1.85035 93.637 0.075592 90.1588 0.075592C88.009 0.075592 86.1117 0.708982 84.8466 1.34295L85.6054 3.62511C86.7439 3.05442 88.0717 2.5476 89.7164 2.5476C90.9809 2.5476 92.1827 3.11828 92.1827 4.57605C92.1827 7.87244 84.9099 8.12557 84.2777 16.1767V16.1773ZM95.7241 12.2469H102.87V16.1773H105.716V12.2469H108.119V9.83877H105.716V0.075592H103.629L95.7241 10.345V12.2469ZM98.9492 9.96476L102.996 4.51335C102.996 4.95689 102.87 6.35139 102.87 7.61989V9.90148H100.973C100.404 9.90148 99.3289 9.96476 98.9492 9.96476ZM3.45688 13.768V8.76068H4.65865C5.73329 8.76068 6.61865 8.88725 7.25147 9.26751C7.88371 9.64835 8.26339 10.2817 8.26339 11.296C8.26339 13.008 7.25089 13.7685 4.84792 13.7685H3.45688V13.768ZM0.547656 16.1778H4.78521C9.52787 16.1778 11.2353 14.0861 11.2353 11.17C11.2353 9.20481 10.4132 7.87359 8.95891 7.11307C7.82042 6.4791 6.3661 6.28868 4.59537 6.28868H3.45688V2.48489H9.84428L10.6031 0.139449H0.484375V16.1773H0.547656V16.1778ZM13.1959 16.1778H15.9786L19.5833 10.9801C20.2788 10.0292 20.7845 9.07824 21.1009 8.57084H21.1642C21.1009 9.26809 21.0376 10.1558 21.0376 11.0434V16.1146H23.8836V4.70377H21.1009L17.4962 9.90148C16.8633 10.8524 16.2944 11.8034 15.9786 12.3108H15.9153C15.9786 11.613 16.0418 10.7259 16.0418 9.8382V4.76705H13.1959V16.1773V16.1778ZM28.7528 16.1778H31.662V7.11249H35.0769L35.8363 4.70377H25.274V7.11249H28.7522V16.1773L28.7528 16.1778ZM36.8476 21.9462H39.6936V16.1773C40.2631 16.3671 40.8315 16.4304 41.4643 16.4304C45.069 16.4304 47.4087 13.959 47.4087 10.4089C47.4087 6.73223 45.2583 4.38679 41.1479 4.38679C39.567 4.38679 38.0494 4.70319 36.7844 5.08403V21.9457H36.8476V21.9462ZM39.6936 13.7058V6.98535C40.1241 6.85578 40.5717 6.79159 41.0213 6.79493C43.1085 6.79493 44.4362 7.93573 44.4362 10.4077C44.4362 12.6272 43.3616 14.0217 41.2112 14.0217C40.6416 14.0217 40.1993 13.8951 39.6936 13.7047V13.7058ZM49.1162 16.1778H51.8988L55.5036 10.9801C56.1991 10.0292 56.7048 9.07824 57.0212 8.57084H57.0845C57.0212 9.26809 56.9579 10.1558 56.9579 11.0434V16.1146H59.8038V4.70377H57.0212L53.4165 9.90148C52.7836 10.8524 52.2153 11.8034 51.8988 12.3108H51.8356C51.8988 11.613 51.9621 10.7259 51.9621 9.8382V4.76705H49.1162V16.1773V16.1778ZM62.0803 16.1778H64.9895V11.4237H66.6969C67.0133 11.4237 67.3292 11.7401 67.7089 12.5012L69.1632 16.1778H72.2622L70.1751 11.8039C69.7954 11.0434 69.4163 10.5993 68.8468 10.4095V10.3462C69.7954 9.77549 69.922 8.1273 70.4915 7.30291C70.6808 7.04978 70.9339 6.92322 71.3136 6.92322C71.5029 6.92322 71.756 6.92322 71.9458 7.04978V4.57663C71.6294 4.45007 71.0605 4.38679 70.7441 4.38679C69.7321 4.38679 69.0999 4.76647 68.6575 5.40101C67.7089 6.79551 67.7089 9.20423 66.3172 9.20423H64.9895V4.70377H62.0803V16.1773V16.1778ZM78.7124 16.431C80.2932 16.431 81.7481 15.9247 82.6335 15.2908L81.8114 13.3256C80.9893 13.7685 80.2305 14.0861 79.1553 14.0861C77.1948 14.0861 75.9297 12.8182 75.9297 10.4727C75.9297 8.381 77.1948 6.7328 79.3452 6.7328C80.4831 6.7328 81.3052 7.04921 82.1273 7.61989V5.14731C81.495 4.76705 80.4831 4.38679 79.0288 4.38679C75.6139 4.38679 72.9578 6.92207 72.9578 10.5354C72.9578 13.8318 74.981 16.431 78.7124 16.431Z" fill="#141414"/>
<path d="M117.539 12.2469C120.637 12.2469 123.167 9.71166 123.167 6.60512C123.167 3.49857 120.637 0.963287 117.539 0.963287C114.44 0.963287 111.91 3.49915 111.91 6.60512C111.973 9.71166 114.44 12.2469 117.539 12.2469Z" stroke="#141414" stroke-width="1.769"/>
<path d="M121.085 6.60563H117.986V3.49908H117.164V7.42944H121.085V6.60505V6.60563Z" fill="#141414"/>
</svg>
