<svg width="68" height="19" viewBox="0 0 68 19" fill="none" xmlns="http://www.w3.org/2000/svg">
<path d="M6.47763 10.5309L5.79578 5.07605C5.7579 4.81088 5.60637 4.5836 5.34121 4.50784C5.07604 4.43207 4.81087 4.46995 4.62147 4.65936L0.681856 8.48533C0.606094 8.56109 0.530332 8.67473 0.492451 8.78838C0.378809 9.16719 0.568213 9.54599 0.909141 9.69752C0.984903 9.7354 1.06067 9.7354 1.13643 9.7354H1.7804H2.42438C2.46226 9.7354 2.46226 9.7354 2.50014 9.7354C2.61378 9.77328 2.68954 9.9248 2.65166 10.0384L2.42438 10.6445L0 17.5767H0.492451L3.10623 10.2279C3.21988 9.84904 3.03047 9.47023 2.68954 9.31871C2.61378 9.28083 2.53802 9.28083 2.46226 9.28083H1.85616H1.55312H1.21219C1.17431 9.28083 1.17431 9.28083 1.13643 9.28083C1.02278 9.24295 0.947022 9.09142 0.984903 8.97778C0.984903 8.9399 1.02278 8.90202 1.06066 8.86414L1.51524 8.40957L4.50783 5.53062L5.00028 5.03817C5.07604 5.00029 5.1518 4.96241 5.22756 5.00029C5.30333 5.03817 5.37909 5.11393 5.37909 5.18969L5.45485 5.90943L5.90942 9.96269L5.98518 10.6067C5.98518 10.6445 5.98518 10.6824 5.98518 10.7203C5.9473 10.8339 5.79578 10.9097 5.68214 10.8718C5.64425 10.8718 5.64425 10.8339 5.60637 10.8339L5.34121 10.6067L5.11392 10.4173L4.62147 10.0384C4.54571 10.0006 4.50783 9.96268 4.39418 9.9248C4.01537 9.81116 3.63657 10.0006 3.48504 10.3415C3.48504 10.3415 3.48504 10.3415 3.48504 10.3794L0.947022 17.5767H1.43947L3.71233 11.137L3.93961 10.5309C3.97749 10.4173 4.12902 10.3415 4.24266 10.3794C4.28054 10.3794 4.28054 10.4173 4.31842 10.4173L4.81087 10.8339L5.30333 11.2506C5.37909 11.2885 5.41697 11.3264 5.49273 11.3643C5.87154 11.4779 6.25035 11.2885 6.40187 10.9476C6.47763 10.7582 6.47763 10.6445 6.47763 10.5309Z" fill="#141414"/>
<path d="M20.9844 17.5389H26.3256L32.5759 0H27.1968L20.9844 17.5389Z" fill="#141414"/>
<path d="M42.3867 17.5388H47.69L50.4554 9.81113C51.5539 7.95496 53.7889 8.37165 53.3722 10.0005L50.7205 17.5388H56.2511L58.8649 10.1521C59.5468 8.29589 62.4636 8.18225 61.8196 10.3793L59.3574 17.5388H64.6986L67.6912 9.05351C68.6761 6.17456 65.1531 2.31071 59.0922 6.55337C58.3725 4.62144 55.3799 3.40926 51.4024 6.21244L51.6675 5.07601H46.7051L42.3867 17.5388Z" fill="#141414"/>
<path d="M36.9704 5.07605H31.9702L29.0154 13.372C27.5381 18.0313 32.2353 19.5844 36.7431 16.3646L36.4401 17.5389H41.2131L45.6073 5.07605H40.4934L37.8796 12.1977C37.2735 13.9402 33.8642 14.9251 34.3945 12.2355L36.9704 5.07605Z" fill="#141414"/>
<path d="M14.7335 5.7579L16.7412 0H11.3621L5.1875 17.5389H10.2257L10.7939 16.1373C11.0969 18.2586 18.067 20.0011 21.7793 12.5386C24.6962 7.15949 21.3626 1.81828 14.7335 5.7579ZM16.5897 12.4249C15.6047 13.6371 14.0138 14.2811 13.0667 13.675C12.0818 12.9931 12.1197 11.4779 13.1046 10.0384C13.3319 9.69751 13.5971 9.35658 13.8622 9.1293C14.8092 8.25804 15.8699 7.95499 16.7412 8.5232C17.8018 9.16718 17.6124 11.0991 16.5897 12.4249Z" fill="#141414"/>
</svg>
