<svg width="88" height="25" viewBox="0 0 88 25" fill="none" xmlns="http://www.w3.org/2000/svg">
<path d="M42.4843 7.31146C42.4843 7.17175 42.3911 7.12518 42.298 7.12518H39.3641C39.2244 7.12518 39.1312 7.21832 39.0847 7.31146L34.5674 18.6279C34.4743 18.7676 34.614 18.9539 34.7537 18.9539H37.4081C37.5479 18.9539 37.641 18.8608 37.6876 18.7211L39.8763 12.1081L40.0161 18.7211C40.0161 18.8608 40.1092 18.9539 40.2023 18.9539H42.7171C42.8568 18.9539 43.0431 18.8142 43.0431 18.6279L42.4843 7.31146ZM31.5869 14.3901H28.9325C28.7927 14.3901 28.7462 14.2504 28.7927 14.1106L29.1653 11.8287C29.1653 11.689 29.305 11.5493 29.3982 11.5493H32.0992C32.0992 11.5027 32.0992 11.4562 32.0992 11.4096C32.0992 11.2699 32.0992 11.1768 32.0992 11.037C32.0992 10.8973 32.0526 10.8042 32.0061 10.6645C31.9595 10.5248 31.9129 10.4782 31.8663 10.3385C31.8198 10.2454 31.7266 10.1522 31.7266 10.0591C31.6335 9.96594 31.5869 9.91937 31.4938 9.8728C31.4007 9.82623 31.3075 9.73309 31.1678 9.73309C31.0281 9.68652 30.935 9.68652 30.7952 9.68652C30.6555 9.68652 30.5624 9.68652 30.4227 9.68652C30.283 9.68652 30.1898 9.73309 30.0501 9.73309C29.9104 9.77966 29.8638 9.77966 29.7241 9.82623C29.5844 9.8728 29.5379 9.91937 29.4447 9.96594H29.3982C29.2584 10.0125 29.1653 9.91937 29.1653 9.77966L29.0722 7.77716C29.0256 7.63745 29.1187 7.49774 29.2119 7.45117C29.305 7.4046 29.3981 7.35803 29.5379 7.31146C29.6776 7.26489 29.7707 7.21832 29.9104 7.17175C30.0501 7.12518 30.1898 7.07861 30.283 7.03204C30.3761 6.98547 30.5624 6.9389 30.7021 6.9389C30.8418 6.89233 31.0281 6.89233 31.1678 6.84576C31.3075 6.84576 31.4938 6.79919 31.6801 6.79919C31.9595 6.79919 32.2389 6.84576 32.4718 6.89233C32.7046 6.9389 32.9375 7.03204 33.1237 7.07861C33.31 7.17175 33.4963 7.26489 33.6826 7.4046C33.8223 7.54431 34.0086 7.68402 34.1483 7.82373C34.288 7.96344 34.3811 8.14972 34.5208 8.336C34.6605 8.52228 34.7071 8.70855 34.8002 8.9414C34.8934 9.12768 34.94 9.31396 34.94 9.59338C34.9865 9.77966 35.0331 10.0125 35.0797 10.2454C35.1262 10.4782 35.1262 10.7111 35.1262 10.8973C35.1262 11.1302 35.1262 11.3165 35.1262 11.5493C35.1262 11.7822 35.0797 12.015 35.0331 12.2479C34.9865 12.4807 34.94 12.667 34.8934 12.8998V12.9464C34.8002 13.4121 34.7071 13.8312 34.5674 14.2969C34.4277 14.7161 34.288 15.1352 34.1017 15.4612C33.9154 15.8337 33.7291 16.1597 33.4963 16.4857C33.2634 16.8117 33.0772 17.0911 32.7977 17.324C32.5649 17.5568 32.2855 17.7897 32.0061 17.9759C31.7266 18.1622 31.4472 18.3485 31.1212 18.4416C30.7952 18.5813 30.5158 18.6745 30.2364 18.7211C29.957 18.9539 29.6776 18.9539 29.3516 18.9539C29.2119 18.9539 29.0256 18.9539 28.8859 18.9073C28.7462 18.9073 28.5599 18.8608 28.4668 18.8608C28.327 18.8142 28.1873 18.8142 28.0942 18.7676C27.9545 18.7211 27.8613 18.6745 27.7682 18.6279C27.6751 18.5813 27.5819 18.5348 27.4888 18.4882C27.3956 18.4416 27.3491 18.3951 27.2559 18.3485C27.1628 18.3019 27.1162 18.1622 27.1628 18.0225L28.0011 15.8803V15.8337C28.0942 15.694 28.1873 15.6474 28.327 15.694C28.4202 15.7406 28.4668 15.7872 28.5599 15.8337C28.653 15.8803 28.6996 15.8803 28.8393 15.9269C28.9325 15.9734 29.0256 15.9734 29.1653 15.9734C29.305 15.9734 29.3516 15.9734 29.4913 15.9734C29.631 15.9734 29.8638 15.9734 29.957 15.9269C30.0967 15.8803 30.2364 15.8337 30.3295 15.7872C30.4693 15.694 30.5624 15.6474 30.7021 15.6009C30.8418 15.5077 30.8884 15.4612 30.9815 15.3215C31.0747 15.1818 31.1212 15.1352 31.2144 14.9955C31.3075 14.8558 31.3541 14.7626 31.4006 14.6229C31.4938 14.4832 31.5404 14.3435 31.5404 14.2504L31.5869 14.3901ZM48.7246 11.4562H50.96C51.0997 11.4562 51.1462 11.5959 51.0997 11.7356L50.7271 13.8778C50.7271 14.0175 50.5874 14.1572 50.4943 14.1572H48.2589L47.8863 16.2063H50.4011C50.5408 16.2063 50.5874 16.346 50.5408 16.4857L50.1683 18.7211C50.1683 18.8608 50.0286 19.0005 49.9354 19.0005H44.5799C44.4402 19.0005 44.3936 18.8608 44.4402 18.7211L46.4427 7.4046C46.4427 7.26489 46.5824 7.12518 46.6755 7.12518H51.8913C52.0311 7.12518 52.0776 7.26489 52.0311 7.4046L51.6585 9.63995C51.6585 9.77966 51.5188 9.91937 51.4256 9.91937H49.0506L48.7246 11.4562ZM61.2984 18.9539H59.0165C58.8768 18.9539 58.8302 18.8142 58.8302 18.6745L59.2494 15.1352C59.2959 14.9489 59.3425 14.6695 59.3425 14.3901L59.3891 14.1106L59.4356 13.7847L59.3891 13.9244L59.2028 14.4366L59.1562 14.5763C59.0631 14.7626 59.0165 14.9489 58.97 15.0886L57.5729 18.5348C57.5263 18.6745 57.4332 18.7211 57.34 18.7211H55.4307C55.2909 18.7211 55.2444 18.6279 55.2444 18.5348L55.1047 15.0886V14.7626V14.3901V14.0175V13.6449L54.965 14.1572L54.8252 14.7161L54.6855 15.1818L53.8473 18.7211C53.8007 18.8608 53.7076 18.9539 53.6144 18.9539H51.4256H51.3791C51.2394 18.9073 51.1928 18.8142 51.2394 18.6279L54.1267 7.31146C54.1733 7.17175 54.2664 7.07861 54.3595 7.07861H57.0606C57.2003 7.07861 57.2469 7.17175 57.2469 7.26489L57.34 10.8973C57.34 11.5493 57.3866 12.0616 57.3866 12.5273V12.9464C57.3866 13.1327 57.3866 13.3655 57.3866 13.5984C57.4797 13.4121 57.5263 13.1793 57.6194 12.9464C57.7591 12.6204 57.8523 12.2944 57.992 11.9219C58.1317 11.5493 58.2248 11.2233 58.3645 10.8973L59.7616 7.26489C59.8082 7.12518 59.9014 7.07861 59.9945 7.07861H62.6955C62.8352 7.07861 62.8818 7.21832 62.8818 7.35803L61.5779 18.6745C61.5313 18.8142 61.4381 18.9539 61.2984 18.9539ZM67.3525 11.4562H69.5879C69.7276 11.4562 69.7741 11.5959 69.7276 11.7356L69.355 13.8778C69.355 14.0175 69.2153 14.1572 69.1222 14.1572H66.8868L66.5143 16.2063H69.029C69.1687 16.2063 69.2153 16.346 69.1687 16.4857L68.7962 18.7211C68.7962 18.8608 68.6565 19.0005 68.5633 19.0005H63.2078C63.0681 19.0005 63.0215 18.8608 63.0681 18.7211L65.0706 7.4046C65.0706 7.26489 65.2103 7.12518 65.3034 7.12518H70.5193C70.659 7.12518 70.7055 7.26489 70.659 7.4046L70.2864 9.63995C70.2864 9.77966 70.1467 9.91937 70.0536 9.91937H67.6785L67.3525 11.4562ZM70.333 18.6279L72.3355 7.31146C72.3355 7.17175 72.4752 7.03204 72.5683 7.03204H75.1762C75.3159 7.03204 75.3625 7.17175 75.3159 7.31146L74.664 11.5027H76.1076L76.8527 7.35803C76.8527 7.21832 76.9925 7.07861 77.0856 7.07861H79.6935C79.8332 7.07861 79.8798 7.21832 79.8332 7.35803L77.8307 18.6745C77.8307 18.8142 77.691 18.9539 77.5979 18.9539H74.99C74.8502 18.9539 74.8037 18.8142 74.8502 18.6745L75.5954 14.4832H74.1517L73.4066 18.7211C73.4066 18.8608 73.2669 19.0005 73.1737 19.0005H70.5658C70.4261 18.9073 70.333 18.8142 70.333 18.6279ZM83.7451 18.9539H81.1372C80.9975 18.9539 80.9509 18.8142 80.9975 18.6745L82.5343 10.0591H80.8112C80.6715 10.0591 80.6249 9.91937 80.6715 9.77966L81.0906 7.35803C81.0906 7.21832 81.2303 7.07861 81.3234 7.07861H87.8432C87.9829 7.07861 88.0295 7.21832 87.9829 7.35803L87.5638 9.77966C87.5638 9.91937 87.4241 10.0591 87.3309 10.0591H85.5613L84.0245 18.6745C83.9779 18.8142 83.8382 18.9539 83.7451 18.9539Z" fill="#141414"/>
<path fill-rule="evenodd" clip-rule="evenodd" d="M10.9096 24.1231C4.25009 24.1231 -0.59317 18.7676 0.0588067 12.0616C0.757353 5.35552 6.62514 0 13.3312 0H26.3707L24.2285 12.0616C23.0177 18.6745 17.569 24.1231 10.9096 24.1231ZM13.8437 7.4046L13.4711 8.80169C14.4491 8.80169 15.5668 9.31396 16.2187 9.91937C17.0104 10.8042 17.2433 12.015 17.0104 13.5052C16.3585 17.2774 13.2848 19.0005 9.83869 18.9073H9.69898H9.55927H9.27985H7.18421L7.78962 15.6009H9.88525H10.5838H10.6769C11.8878 15.6009 12.6794 14.9489 12.8657 13.8312C13.1451 11.9219 11.3289 11.689 9.93182 11.8753C9.83869 11.8753 9.74555 11.8753 9.69898 11.7822C9.65241 11.7356 9.60584 11.6424 9.65241 11.5493L11.0495 4.05158C11.0961 3.91187 11.2823 3.77216 11.4221 3.77216H19.1992L18.5472 7.4046H13.8437Z" fill="#141414"/>
</svg>
