<svg width="80" height="14" viewBox="0 0 80 14" fill="none" xmlns="http://www.w3.org/2000/svg">
<path fill-rule="evenodd" clip-rule="evenodd" d="M16.2148 12.8698H4.00495C4.00495 12.8188 3.97344 12.8309 3.9299 12.8475C3.90298 12.8578 3.87147 12.8698 3.83996 12.8698C3.70248 12.8423 3.56501 12.824 3.42753 12.8057L3.42749 12.8056C3.15249 12.769 2.87748 12.7323 2.60248 12.6223C1.85999 12.3748 1.19999 11.9623 0.787494 11.2198C0.705042 11.0549 0.622599 10.8076 0.540147 10.5603L0.540008 10.5598C0.498758 10.4361 0.478131 10.333 0.457504 10.2298C0.436877 10.1267 0.416249 10.0236 0.375 9.89985V2.96996C0.457499 2.88746 0.457504 2.72247 0.457504 2.63997C0.622501 1.56749 1.2 0.742484 2.18998 0.32999C2.84997 0.0824937 3.59246 0 4.33494 0H4.49994H15.8023H16.0498C16.2148 0 16.2973 0.0824887 16.2973 0.247486V2.47496C16.2973 2.72245 16.2148 2.72245 16.0498 2.72245H16.0498H15.8848H12.1723H4.91243C4.41744 2.72245 4.25245 2.88746 4.25245 3.38246V9.40486C4.25245 9.81735 4.41745 10.0649 4.82994 10.0649H12.3373C12.4198 10.0649 12.5023 10.0649 12.5023 9.89985V7.91989C12.5023 7.75489 12.5023 7.75488 12.3373 7.75488H8.95488H6.64491C6.31492 7.75488 6.23242 7.75488 6.23242 7.34239V5.27992V5.2799C6.23242 5.11491 6.23242 5.03242 6.27367 4.99117C6.31491 4.94993 6.39741 4.94993 6.56239 4.94993H6.56241H15.8848C16.2148 4.94993 16.2148 5.03242 16.2148 5.27992V8.57987V12.4573C16.3798 12.6223 16.3798 12.7873 16.2148 12.8698ZM49.2128 12.8698H38.6529H38.5704C38.1579 12.8698 37.7454 12.7873 37.2504 12.6223C36.178 12.3748 35.6005 11.6323 35.2705 10.6423C35.188 10.3123 35.1055 9.89985 35.1055 9.48736V3.29995C35.1055 2.80496 35.188 2.30996 35.353 1.89746C35.683 1.15497 36.178 0.577486 37.0029 0.32999C37.6629 0.0824937 38.3229 0 39.0654 0H39.2304H48.8828H49.1303C49.3778 0 49.3778 0.0824887 49.3778 0.247486V2.39246C49.3778 2.63996 49.2953 2.72245 49.0478 2.72245H48.8828H39.7254H39.4779C39.0654 2.80495 38.9004 2.88746 38.9004 3.29995V4.70244C38.9004 4.78494 38.9004 4.82618 38.921 4.8468C38.9417 4.86742 38.9829 4.86742 39.0654 4.86742H39.0654H43.4379H48.6353C48.9653 4.86742 49.0478 4.86742 49.0478 5.27992V7.1774C49.0478 7.4249 49.0478 7.54864 48.9859 7.61051C48.924 7.67238 48.8003 7.67238 48.5528 7.67238H48.5528H39.0654H38.9004C38.8179 7.67238 38.8179 7.67238 38.8179 7.75488V9.48736C38.8179 9.73486 38.9004 9.81736 39.1479 9.89985C39.2304 9.89985 39.2923 9.92048 39.3541 9.94111C39.416 9.96173 39.4779 9.98236 39.5604 9.98236H48.7178H48.9653C49.2128 9.98236 49.2128 10.0648 49.2128 10.2298V12.4573C49.3778 12.7048 49.2953 12.7873 49.2128 12.8698ZM22.3204 12.8698H32.8803C33.0091 12.8054 33.0373 12.741 33.0828 12.6373L33.0828 12.6372L33.083 12.6369C33.0957 12.6079 33.1098 12.5758 33.1278 12.5398V10.3123C33.1278 10.0649 33.0453 9.98236 32.7978 9.98236H32.5503H23.3929H23.1454C22.8154 9.98236 22.6504 9.81736 22.6504 9.48736V7.83738C22.6504 7.75489 22.6504 7.75488 22.7329 7.75488H22.8979H32.3028C32.7978 7.75488 32.7978 7.67238 32.7978 7.25988V5.36242C32.7978 5.15617 32.7978 5.05305 32.7462 5.00149C32.6946 4.94993 32.5915 4.94993 32.3853 4.94993H22.8979C22.836 4.94993 22.7896 4.95508 22.7548 4.95895C22.6504 4.97055 22.6504 4.97055 22.6504 4.78492V3.46496C22.6504 2.96997 22.8154 2.80495 23.3104 2.80495H32.5503C33.0452 2.80495 33.0453 2.72245 33.0453 2.30996V0.32999C33.0453 0.0824937 33.0453 0 32.7978 0H32.5503H22.9804H22.8154C22.1554 0 21.4129 0.0824937 20.7529 0.32999C19.6805 0.742484 19.103 1.56749 18.938 2.63997C18.8555 2.88744 18.8555 3.2174 18.8555 3.46489V3.46496V9.48736C18.8555 10.0649 19.0205 10.5598 19.1855 11.0548C19.5155 11.8798 20.1754 12.3748 21.0004 12.6223C21.4129 12.7873 21.8254 12.8698 22.2379 12.8698C22.2379 12.8698 22.3204 12.7873 22.3204 12.8698ZM68.4361 12.8698C68.2712 12.7873 68.2712 12.6223 68.2712 12.4573V8.66237C68.2712 8.57987 68.2712 8.49739 68.1887 8.41489L65.7137 5.69241C65.0537 5.03242 64.4762 4.37244 63.8987 3.71245C63.5687 3.38245 63.2594 3.03183 62.95 2.68121C62.6406 2.33059 62.3313 1.97997 62.0013 1.64998C61.8363 1.44373 61.6506 1.25811 61.465 1.07249C61.2794 0.886866 61.0938 0.701245 60.9288 0.494998C60.8973 0.463484 60.8778 0.431968 60.8611 0.405051C60.8342 0.361503 60.8148 0.32999 60.7638 0.32999C60.6813 0.164993 60.6813 0.0824988 60.9288 0H62.0013H64.6412C65.1362 0 65.4662 0.329985 65.7962 0.65998C66.1262 0.989967 66.4355 1.34058 66.7449 1.69119L66.7451 1.6914C67.0544 2.04196 67.3637 2.39251 67.6937 2.72245C68.4359 3.46468 69.1781 4.28938 69.9204 5.11409L69.9211 5.11493L70.2511 5.44492C70.2924 5.48617 70.313 5.5068 70.3336 5.5068C70.3543 5.5068 70.3749 5.48617 70.4161 5.44492C70.5811 5.23868 70.7668 5.05306 70.9524 4.86744C71.138 4.68181 71.3236 4.49619 71.4886 4.28995C72.1486 3.54746 72.8086 2.80496 73.5511 2.14497C73.7986 1.89748 74.0461 1.62936 74.2936 1.36124C74.5411 1.09312 74.7886 0.824998 75.0361 0.577502C75.2836 0.247506 75.696 0.0825038 76.1085 0.0825038H76.191H79.7385H79.821C80.0251 0.0144744 80.0048 0.170829 79.9914 0.274027L79.9913 0.274257C79.9885 0.296113 79.986 0.315571 79.986 0.32999C79.9035 0.494988 79.7385 0.65999 79.5735 0.824988C79.491 0.948736 79.3879 1.05186 79.2848 1.15498C79.1816 1.2581 79.0785 1.36122 78.996 1.48497C78.666 1.81497 78.3566 2.1656 78.0472 2.51623C77.7379 2.86684 77.4285 3.21745 77.0985 3.54744C76.7686 3.87737 76.4593 4.22792 76.15 4.57847L76.1498 4.57867L76.1496 4.57888C75.8403 4.92943 75.531 5.27998 75.2011 5.60991C74.9344 5.87661 74.6811 6.15679 74.4305 6.43411C74.0609 6.84305 73.6969 7.24577 73.3036 7.5899C73.1386 7.7549 72.9942 7.91989 72.8498 8.08488C72.7055 8.24988 72.5611 8.41487 72.3961 8.57987C72.3136 8.66237 72.3136 8.66238 72.3136 8.74488V9.48736V12.6223C72.3136 12.7873 72.3136 12.9523 72.1486 13.0348C70.7462 12.8698 69.5913 12.8698 68.4365 12.8698H68.4361ZM54.2471 12.7873C54.4946 12.7873 54.7421 12.7873 54.9896 12.8698C58.4546 12.8698 62.002 12.8698 65.302 12.9523C65.467 12.8698 65.5495 12.7873 65.5495 12.6223V10.6423C65.5495 10.1473 65.5495 10.1473 65.0545 10.1473H56.3921H55.9796C55.7321 10.0648 55.5671 9.89986 55.5671 9.65236V9.32235V0.577498V0.329986C55.5671 0.164989 55.4846 0.0825002 55.3196 0.0825002H52.1022C51.9372 0.0825002 51.8547 0.164989 51.8547 0.329986V0.577498V8.99236V8.9925C51.8547 9.48743 51.8547 9.89989 51.9372 10.3123C52.0197 10.8073 52.1022 11.3023 52.4322 11.7148C52.8446 12.3748 53.5046 12.6223 54.2471 12.7873Z" fill="#141414"/>
</svg>
