<svg width="90" height="29" viewBox="0 0 90 29" fill="none" xmlns="http://www.w3.org/2000/svg">
<g clip-path="url(#clip0)">
<path d="M43.6727 6.7325H38.5408V8.31622H42.2064C42.0598 10.5032 40.227 11.4836 38.5408 11.4836C38.0102 11.4876 37.4841 11.3831 36.9931 11.176C36.5021 10.969 36.0561 10.6636 35.6809 10.2777C35.3057 9.8917 35.0088 9.43285 34.8075 8.92786C34.6063 8.42281 34.5046 7.88161 34.5085 7.33583V7.26043C34.4904 6.71265 34.5855 6.16722 34.7878 5.66018C34.99 5.15313 35.2946 4.69608 35.6816 4.31928C36.4497 3.55601 37.4728 3.12424 38.5408 3.11266C39.0456 3.08792 39.5496 3.17626 40.018 3.37157C40.4863 3.56689 40.9078 3.86451 41.2534 4.24386L42.3531 3.11266C41.8394 2.59752 41.2315 2.19231 40.5645 1.92047C39.8975 1.64863 39.1848 1.51556 38.4674 1.52897C36.9823 1.50469 35.5481 2.08586 34.478 3.14557C33.408 4.20529 32.7891 5.65746 32.7563 7.18497C32.7249 8.27362 33.0026 9.34811 33.5555 10.2769C34.0689 11.1572 34.8019 11.8801 35.6785 12.3708C36.5551 12.8614 37.5434 13.1019 38.5408 13.0673C39.2276 13.1044 39.9145 12.994 40.5575 12.7428C41.2005 12.4918 41.7856 12.1055 42.2754 11.6088C42.7651 11.1121 43.1489 10.5158 43.4021 9.85799C43.6554 9.20014 43.7725 8.49531 43.7461 7.78829C43.7557 7.43475 43.7311 7.08108 43.6727 6.7325ZM47.9323 5.60131C47.4605 5.59131 46.9914 5.67701 46.5519 5.85353C46.1122 6.03004 45.7108 6.29392 45.3704 6.6301C45.03 6.96624 44.7573 7.36805 44.5679 7.81265C44.3785 8.25726 44.2761 8.73588 44.2666 9.22115V9.29655C44.382 10.1969 44.8094 11.0242 45.4702 11.6263C46.1311 12.2285 46.981 12.565 47.8638 12.5742C48.7466 12.5834 49.603 12.2645 50.2755 11.6762C50.948 11.088 51.3916 10.2697 51.5247 9.37202C51.5385 8.87934 51.4555 8.38885 51.2808 7.92988C51.1061 7.47097 50.8432 7.05298 50.5079 6.70099C50.1725 6.34895 49.7715 6.07013 49.329 5.88118C48.8865 5.69224 48.4114 5.59705 47.9323 5.60131ZM47.9323 7.10956C48.2134 7.11317 48.4908 7.1753 48.748 7.29226C49.0051 7.40917 49.2366 7.5784 49.4284 7.78984C49.6202 8.00122 49.7684 8.25042 49.8641 8.52232C49.9597 8.79421 50.0009 9.0833 49.985 9.37202C50.0018 9.6604 49.961 9.94931 49.8652 10.2209C49.7695 10.4925 49.6207 10.7411 49.4281 10.9514C49.2355 11.1618 49.0031 11.3293 48.7453 11.4438C48.4874 11.5584 48.2095 11.6175 47.9286 11.6175C47.6477 11.6175 47.3698 11.5584 47.1119 11.4438C46.8541 11.3293 46.6217 11.1618 46.4291 10.9514C46.2365 10.7411 46.0877 10.4925 45.992 10.2209C45.8962 9.94931 45.8554 9.6604 45.8722 9.37202C45.8519 9.08163 45.8903 8.79015 45.9849 8.51574C46.0794 8.2414 46.228 7.99007 46.4215 7.7776C46.6149 7.56519 46.849 7.39615 47.109 7.28118C47.369 7.16621 47.6493 7.10782 47.9323 7.10956ZM55.7695 5.60131C55.3021 5.59433 54.8379 5.68264 54.4037 5.86115C53.9696 6.03966 53.5741 6.30483 53.2402 6.64138C52.9062 6.9779 52.6403 7.37914 52.4579 7.82193C52.2754 8.26467 52.18 8.74027 52.1772 9.22115V9.29655C52.2925 10.1969 52.72 11.0242 53.3808 11.6263C54.0416 12.2285 54.8916 12.565 55.7744 12.5742C56.6571 12.5834 57.5135 12.2645 58.1861 11.6762C58.8586 11.088 59.3021 10.2697 59.4352 9.37202C59.4421 8.87483 59.352 8.38131 59.1702 7.92066C58.9885 7.45995 58.7187 7.04145 58.377 6.6899C58.0352 6.33831 57.6283 6.06083 57.1805 5.87385C56.7326 5.68688 56.2528 5.5942 55.7695 5.60131ZM55.7695 7.10956C56.0509 7.11324 56.3287 7.17536 56.5862 7.2922C56.8437 7.40897 57.0756 7.57814 57.2681 7.78939C57.4604 8.0007 57.6094 8.24978 57.7059 8.52174C57.8024 8.79369 57.8444 9.08292 57.8296 9.37202C57.8464 9.6604 57.8056 9.94931 57.7098 10.2209C57.6141 10.4925 57.4653 10.7411 57.2727 10.9514C57.0801 11.1618 56.8477 11.3293 56.5898 11.4438C56.332 11.5584 56.0541 11.6175 55.7732 11.6175C55.4923 11.6175 55.2144 11.5584 54.9565 11.4438C54.6986 11.3293 54.4663 11.1618 54.2737 10.9514C54.0811 10.7411 53.9323 10.4925 53.8365 10.2209C53.7408 9.94931 53.7 9.6604 53.7167 9.37202C53.6954 9.08202 53.7328 8.79066 53.8265 8.51632C53.9202 8.24192 54.0681 7.99052 54.261 7.77798C54.4539 7.56538 54.6875 7.39621 54.9472 7.28118C55.2068 7.16615 55.4868 7.1077 55.7695 7.10956ZM63.4675 5.60131C62.5147 5.60131 61.601 5.99063 60.9273 6.68365C60.2536 7.37662 59.8751 8.31655 59.8751 9.29655C59.8751 10.2766 60.2536 11.2165 60.9273 11.9095C61.601 12.6026 62.5147 12.9919 63.4675 12.9919C63.8433 13.012 64.2185 12.9406 64.5627 12.7833C64.9068 12.626 65.2098 12.3874 65.4468 12.0869V12.841C65.4741 13.1088 65.4443 13.3796 65.3594 13.6342C65.2738 13.8889 65.1357 14.1213 64.9544 14.3153C64.7725 14.5092 64.5519 14.66 64.3079 14.7571C64.0639 14.8542 63.8021 14.8952 63.541 14.8772C63.1364 14.8734 62.743 14.7409 62.4149 14.4978C62.0866 14.2547 61.8397 13.913 61.7079 13.5197L60.3149 14.1231C60.5836 14.7738 61.0329 15.3286 61.6068 15.7176C62.1807 16.1067 62.8535 16.3128 63.541 16.31C65.4468 16.31 66.9135 15.028 66.9135 12.4639V5.82755H65.3733V6.43086C65.135 6.15658 64.8403 5.93998 64.5107 5.79656C64.1811 5.65315 63.8249 5.58647 63.4675 5.60131ZM63.6215 7.03416C63.8928 7.04924 64.1583 7.12039 64.4017 7.24322C64.6457 7.36612 64.8631 7.53825 65.0412 7.74937C65.2193 7.96049 65.3537 8.20628 65.4373 8.47211C65.521 8.73788 65.5514 9.01828 65.5273 9.29655C65.5514 9.57869 65.5178 9.86282 65.4291 10.1308C65.3404 10.3989 65.1984 10.6451 65.0121 10.8537C64.8257 11.0623 64.5995 11.2289 64.3478 11.3429C64.0956 11.4569 63.8237 11.5157 63.548 11.5157C63.2728 11.5157 63.0006 11.4569 62.7486 11.3429C62.4966 11.2289 62.2703 11.0623 62.0842 10.8537C61.8981 10.6451 61.7561 10.3989 61.6674 10.1308C61.5786 9.86282 61.545 9.57869 61.5686 9.29655C61.5674 8.72177 61.7789 8.16807 62.1601 7.74789C62.5414 7.32764 63.0639 7.07251 63.6215 7.03416ZM73.6578 5.60131C73.1983 5.60778 72.7451 5.70955 72.3249 5.90052C71.904 6.09149 71.5257 6.36774 71.2113 6.71272C70.8976 7.05775 70.6542 7.4644 70.4964 7.90835C70.3385 8.35231 70.2695 8.8245 70.2929 9.29655C70.2688 10.2439 70.6092 11.1627 71.2385 11.8543C71.8685 12.5458 72.7375 12.9545 73.6578 12.9919H73.8048C74.4018 13.0016 74.9913 12.8543 75.5173 12.5639C76.0434 12.2736 76.4883 11.8498 76.8103 11.3327L75.5642 10.5032C75.3893 10.8299 75.1307 11.1011 74.817 11.2875C74.5026 11.4739 74.1452 11.5683 73.7826 11.5605C73.4201 11.5528 73.0664 11.4431 72.7603 11.2434C72.4542 11.0438 72.207 10.7617 72.0454 10.4278L76.8838 8.39162L76.6639 7.78829C76.4471 7.14701 76.0409 6.5915 75.5015 6.19937C74.9628 5.80726 74.3182 5.59816 73.6578 5.60131ZM73.7313 7.03416C74.0076 7.02134 74.2814 7.09339 74.5178 7.2411C74.7542 7.3888 74.9425 7.60559 75.0585 7.86369L71.847 9.29655C71.809 8.73666 71.9883 8.18405 72.3452 7.75987C72.7026 7.3357 73.209 7.0747 73.7535 7.03416H73.7313ZM68.0201 12.841H69.6477V1.90604H68.0201V12.841Z" fill="#141414"/>
<path d="M35.7524 19.4397V26.1139H34.8067V19.4774H32.7539V18.5121H37.8053V19.4397H35.7524Z" fill="#141414"/>
<path d="M39.7627 20.7293C40.367 20.6965 40.9604 20.9045 41.4196 21.31C41.6238 21.513 41.7832 21.7588 41.8869 22.0307C41.9907 22.3027 42.0363 22.5944 42.0207 22.8862V26.1139H41.1189V25.3597H41.053C40.8904 25.6327 40.6617 25.8575 40.3892 26.0122C40.1168 26.1669 39.8099 26.2461 39.4988 26.2421C38.9941 26.2564 38.5025 26.0762 38.1204 25.7368C37.9407 25.5821 37.7967 25.388 37.6991 25.1689C37.6015 24.9498 37.5525 24.7109 37.5559 24.4698C37.5462 24.2237 37.5952 23.9788 37.6988 23.7566C37.8023 23.5344 37.9571 23.3417 38.1498 23.1954C38.6076 22.8578 39.1634 22.6903 39.726 22.7202C40.2068 22.7003 40.6843 22.8095 41.1117 23.037V22.8108C41.1127 22.6468 41.0784 22.4847 41.0112 22.336C40.944 22.1873 40.8456 22.0559 40.7231 21.951C40.4741 21.7186 40.1502 21.5896 39.814 21.589C39.5656 21.5848 39.3203 21.6456 39.101 21.7656C38.8817 21.8857 38.6957 22.061 38.5603 22.2753L37.7319 21.7399C37.9581 21.4069 38.2636 21.1391 38.6192 20.9622C38.9747 20.7852 39.3684 20.7051 39.7627 20.7293ZM38.5456 24.5C38.5427 24.6235 38.5692 24.7458 38.6228 24.8562C38.6765 24.9667 38.7557 25.0619 38.8535 25.1335C39.0667 25.2906 39.3247 25.3702 39.5867 25.3597C39.7849 25.361 39.9813 25.3208 40.1641 25.2418C40.3468 25.1627 40.512 25.0463 40.6497 24.8997C40.7958 24.7692 40.9131 24.6083 40.994 24.4275C41.0749 24.2468 41.1175 24.0504 41.1189 23.8515C40.7608 23.5894 40.326 23.4616 39.8873 23.4895C39.5458 23.4784 39.2096 23.5788 38.9269 23.776C38.8096 23.8526 38.7132 23.9584 38.6465 24.0837C38.5798 24.209 38.5451 24.3496 38.5456 24.4925V24.5Z" fill="#141414"/>
<path d="M45.2695 28.5271C45.0017 28.5287 44.735 28.4905 44.4778 28.4139C44.2384 28.3483 44.0108 28.2439 43.8033 28.1047C43.6089 27.9752 43.4357 27.8149 43.2901 27.6297C43.1437 27.4491 43.0318 27.242 42.9601 27.0188L43.8545 26.6342C43.9466 26.9397 44.1349 27.205 44.3898 27.3883C44.6472 27.5734 44.9556 27.6686 45.2695 27.6598C45.4913 27.6732 45.7132 27.6376 45.9206 27.5557C46.1279 27.4738 46.3159 27.3473 46.4719 27.1847C46.785 26.8201 46.9457 26.3432 46.9191 25.8574V25.3597H46.8751C46.6911 25.639 46.438 25.8628 46.1419 26.0083C45.8352 26.167 45.4956 26.2472 45.1523 26.242C44.8309 26.2454 44.5127 26.1762 44.2201 26.0394C43.9275 25.9025 43.6676 25.7015 43.4587 25.4502C43.0063 24.9044 42.7578 24.2105 42.7578 23.4932C42.7578 22.776 43.0063 22.0821 43.4587 21.5362C43.6662 21.2822 43.9255 21.0783 44.2181 20.9388C44.5108 20.7994 44.8297 20.7279 45.1523 20.7293C45.4962 20.7268 45.8357 20.8096 46.1419 20.9706C46.438 21.1161 46.6911 21.3399 46.8751 21.6192H46.9191V20.9028H47.8209V25.8574C47.8408 26.2141 47.7901 26.5712 47.6716 26.907C47.5531 27.2428 47.3694 27.5503 47.1317 27.8107C46.8854 28.0547 46.5931 28.2443 46.2728 28.3675C45.9526 28.4907 45.6111 28.545 45.2695 28.5271ZM45.2695 25.3597C45.4857 25.3651 45.7003 25.3212 45.898 25.2312C46.0957 25.1413 46.2717 25.0075 46.4132 24.8393C46.7469 24.4747 46.9285 23.9902 46.9191 23.4894C46.9363 22.9979 46.7712 22.5181 46.4572 22.1471C46.3141 21.9814 46.1386 21.8489 45.9421 21.7581C45.7456 21.6673 45.5326 21.6203 45.3172 21.6203C45.1017 21.6203 44.8888 21.6673 44.6923 21.7581C44.4958 21.8489 44.3202 21.9814 44.1771 22.1471C43.8632 22.5181 43.6981 22.9979 43.7153 23.4894C43.6951 23.9815 43.8606 24.4625 44.1771 24.8318C44.3156 24.9983 44.4877 25.1319 44.6814 25.223C44.8752 25.3142 45.0858 25.3608 45.2989 25.3597H45.2695Z" fill="#141414"/>
<path d="M52.3247 26.1139H51.3789V18.5725H52.3247L54.8833 23.0973H54.9273L57.4786 18.4895H58.4243V26.1139H57.4786V21.589L57.5226 20.3221H57.4786L55.1839 24.4698H54.6267L52.3247 20.3221H52.288L52.3247 21.589V26.1139Z" fill="#141414"/>
<path d="M61.4936 20.7293C62.0979 20.6965 62.6914 20.9045 63.1505 21.31C63.3601 21.5103 63.5247 21.7549 63.6337 22.0269C63.7427 22.2991 63.7928 22.5922 63.7807 22.8862V26.1139H62.8499V25.3597H62.8059C62.6422 25.6333 62.4122 25.8584 62.1384 26.0131C61.8647 26.1678 61.5567 26.2467 61.2443 26.2421C60.7371 26.2591 60.2423 26.0786 59.8587 25.7368C59.679 25.5821 59.535 25.388 59.4373 25.1689C59.3397 24.9498 59.2908 24.7109 59.2942 24.4698C59.2845 24.2237 59.3335 23.9788 59.437 23.7566C59.5405 23.5345 59.6954 23.3417 59.888 23.1954C60.3459 22.8578 60.9017 22.6903 61.4643 22.7202C61.9449 22.702 62.4221 22.8111 62.8499 23.037V22.8108C62.851 22.6468 62.8167 22.4847 62.7495 22.336C62.6823 22.1873 62.5839 22.0559 62.4613 21.951C62.2199 21.7255 61.9076 21.597 61.5816 21.589C61.3332 21.5848 61.0879 21.6456 60.8686 21.7656C60.6493 21.8857 60.4633 22.061 60.3279 22.2753L59.4995 21.7399C59.7224 21.4125 60.022 21.1482 60.3706 20.9715C60.7192 20.7949 61.1054 20.7116 61.4936 20.7293ZM60.2693 24.5C60.2671 24.6241 60.2947 24.7469 60.3497 24.8574C60.4047 24.9679 60.4853 25.0627 60.5845 25.1335C60.7939 25.3014 61.0522 25.3917 61.3177 25.3899C61.5159 25.3911 61.7123 25.351 61.895 25.2719C62.0777 25.1928 62.2429 25.0765 62.3807 24.9299C62.5305 24.7961 62.65 24.6302 62.7311 24.444C62.8121 24.2577 62.8527 24.0555 62.8499 23.8515C62.4917 23.5894 62.057 23.4616 61.6183 23.4895C61.2768 23.4784 60.9406 23.5788 60.6579 23.776C60.5397 23.8522 60.4421 23.9578 60.3742 24.083C60.3063 24.2083 60.2702 24.3491 60.2693 24.4925V24.5Z" fill="#141414"/>
<path d="M64.8242 20.9028H65.7261V21.589H65.7699C65.9258 21.3165 66.1546 21.0964 66.4296 20.9555C66.7142 20.7913 67.0343 20.7031 67.3607 20.6992C67.6218 20.6819 67.8829 20.7213 68.1282 20.8149C68.3735 20.9084 68.5966 21.054 68.783 21.2421C69.1372 21.6749 69.3153 22.2311 69.2818 22.7957V26.1139H68.3361V22.8862C68.3602 22.7114 68.3444 22.5333 68.2905 22.3657C68.2366 22.1981 68.146 22.0456 68.0249 21.9201C67.9045 21.7945 67.7575 21.6994 67.5952 21.6419C67.433 21.5845 67.2599 21.5664 67.0894 21.589C66.9088 21.5873 66.7301 21.6285 66.5672 21.7097C66.4043 21.7908 66.2617 21.9095 66.1514 22.0566C65.8972 22.3718 65.7616 22.7707 65.7699 23.1803V26.1139H64.8242V20.9028Z" fill="#141414"/>
<path d="M72.2504 20.7293C72.8526 20.6961 73.4433 20.9043 73.8996 21.31C74.1056 21.5123 74.2659 21.7578 74.3712 22.0298C74.4764 22.3018 74.5226 22.5939 74.5081 22.8861V26.1138H73.5992V25.3597C73.4357 25.6333 73.2056 25.8584 72.9318 26.0131C72.658 26.1677 72.35 26.2467 72.0375 26.242C71.5279 26.2602 71.0304 26.0798 70.6444 25.7368C70.4657 25.5817 70.3231 25.3874 70.2267 25.1682C70.1304 24.9489 70.0828 24.7104 70.0873 24.4698C70.0771 24.2243 70.1247 23.9798 70.2267 23.7578C70.3294 23.5356 70.4828 23.3425 70.6742 23.1954C71.1324 22.8589 71.6876 22.6915 72.2504 22.7202C72.7309 22.7003 73.2088 22.8095 73.6359 23.0369V22.8107C73.6385 22.6465 73.6049 22.4839 73.5377 22.335C73.4705 22.186 73.371 22.0547 73.2474 21.951C72.9901 21.7084 72.6504 21.5785 72.3018 21.589C72.0533 21.5848 71.8081 21.6456 71.5888 21.7656C71.3695 21.8856 71.1831 22.061 71.0481 22.2753L70.2121 21.7399C70.4397 21.4068 70.7471 21.1391 71.1033 20.9622C71.4601 20.7854 71.855 20.7052 72.2504 20.7293ZM71.0259 24.5C71.0228 24.6234 71.0494 24.7458 71.1033 24.8562C71.1565 24.9667 71.2357 25.0619 71.334 25.1335C71.5431 25.3007 71.8017 25.391 72.0666 25.3899C72.265 25.3911 72.4615 25.351 72.644 25.2719C72.8272 25.1928 72.992 25.0765 73.1302 24.9299C73.2753 24.796 73.3919 24.6321 73.4711 24.4489C73.551 24.2657 73.5922 24.0672 73.5916 23.8665C73.2335 23.6044 72.7987 23.4766 72.3601 23.5046C72.0185 23.4935 71.6826 23.5938 71.3999 23.7911C71.2858 23.8671 71.192 23.9709 71.1267 24.0934C71.0614 24.2158 71.0272 24.3528 71.0259 24.4924V24.5Z" fill="#141414"/>
<path d="M77.7449 28.5271C77.4774 28.5286 77.2106 28.4905 76.9533 28.4139C76.7162 28.3483 76.4906 28.2439 76.2859 28.1047C76.0894 27.975 75.9138 27.8147 75.7655 27.6296C75.6191 27.4491 75.5076 27.2419 75.4353 27.0188L76.3302 26.6342C76.4221 26.9397 76.6104 27.205 76.8652 27.3883C77.1225 27.5734 77.4312 27.6686 77.7449 27.6598C77.9667 27.6731 78.1885 27.6376 78.3958 27.5557C78.6031 27.4738 78.7913 27.3473 78.9472 27.1847C79.2495 26.8235 79.4048 26.356 79.3801 25.88V25.3597H79.3357C79.1507 25.638 78.8978 25.8617 78.6024 26.0083C78.295 26.1646 77.9559 26.2446 77.6131 26.242C77.2911 26.2434 76.9723 26.1734 76.6788 26.0368C76.3854 25.9001 76.1236 25.7 75.9119 25.4502C75.46 24.9043 75.2109 24.2105 75.2109 23.4932C75.2109 22.7759 75.46 22.0821 75.9119 21.5362C76.1204 21.2812 76.3809 21.0767 76.675 20.9372C76.9691 20.7977 77.2892 20.7267 77.6131 20.7293C77.9566 20.7291 78.2957 20.8117 78.6024 20.9706C78.8978 21.1172 79.1507 21.3408 79.3357 21.6192H79.3801V20.9027H80.2814V25.8574C80.3016 26.2141 80.2509 26.5711 80.1324 26.907C80.0139 27.2427 79.8301 27.5502 79.5924 27.8107C79.3478 28.0528 79.0581 28.2412 78.7406 28.3644C78.4231 28.4876 78.084 28.5429 77.7449 28.5271ZM77.7449 25.3597C77.961 25.3651 78.1759 25.3212 78.3736 25.2312C78.5714 25.1412 78.7469 25.0075 78.8889 24.8393C79.2064 24.4677 79.3719 23.9839 79.3503 23.4894C79.3674 22.9979 79.2026 22.518 78.8889 22.1471C78.7476 21.9776 78.572 21.8423 78.3743 21.7511C78.1765 21.6598 77.9616 21.6147 77.7449 21.6192C77.5294 21.6159 77.3158 21.6614 77.1193 21.7527C76.9228 21.8439 76.7485 21.9786 76.6085 22.1471C76.2947 22.518 76.1293 22.9979 76.1464 23.4894C76.1268 23.9814 76.2922 24.4625 76.6085 24.8318C76.7517 25.0043 76.9311 25.1413 77.1326 25.2328C77.3348 25.3241 77.5541 25.3675 77.774 25.3597H77.7449Z" fill="#141414"/>
<path d="M83.6421 26.242C83.3037 26.2563 82.9652 26.1965 82.6509 26.0665C82.3359 25.9364 82.0519 25.7392 81.8168 25.4879C81.3281 24.9546 81.0651 24.2444 81.0835 23.512C81.0607 22.7882 81.3104 22.0832 81.78 21.5438C82.0031 21.281 82.2795 21.0719 82.59 20.9312C82.9006 20.7904 83.2371 20.7215 83.5762 20.7293C83.9083 20.7142 84.2404 20.7738 84.5478 20.904C84.8559 21.0343 85.1322 21.232 85.3578 21.4835C85.8249 22.0697 86.0607 22.8155 86.0176 23.5724V23.678H82.0659C82.0614 23.9054 82.1033 24.1313 82.1875 24.3416C82.2718 24.5518 82.398 24.7418 82.5571 24.8997C82.7377 25.081 82.9576 25.2155 83.1991 25.2921C83.4399 25.3687 83.6954 25.3852 83.9438 25.3403C84.1923 25.2953 84.4268 25.1902 84.6283 25.0336C84.8292 24.877 84.9915 24.6735 85.1011 24.4396L85.9441 24.862C85.7368 25.2777 85.4256 25.629 85.0422 25.88C84.6169 26.1311 84.1327 26.2564 83.6421 26.242ZM82.1102 22.8635H85.0422C85.0206 22.5207 84.8679 22.2007 84.6175 21.9736C84.3304 21.714 83.9584 21.5764 83.5762 21.589C83.2403 21.5822 82.9145 21.7031 82.6597 21.9284C82.379 22.1673 82.185 22.4968 82.1102 22.8635Z" fill="#141414"/>
<path d="M87.833 26.1138H86.8867V20.9027H87.7886V21.7474H87.833C87.9433 21.4508 88.1505 21.203 88.4193 21.0461C88.6791 20.8633 88.9846 20.7612 89.299 20.7519C89.5493 20.7414 89.799 20.7851 90.0323 20.8801L89.7464 21.8228C89.5671 21.7609 89.3776 21.7354 89.1893 21.7474C89.0125 21.7474 88.8388 21.7872 88.6791 21.8641C88.5194 21.941 88.3781 22.0531 88.2652 22.1923C88.0105 22.4724 87.8691 22.8419 87.8691 23.2255L87.833 26.1138Z" fill="#141414"/>
<path d="M16.178 27.7504L11.3906 22.8259L21.6546 12.1397L26.5299 17.1547L16.178 27.7504Z" fill="#141414"/>
<path d="M16.2151 6.50631L11.3397 1.51389L1.00978 12.1397C0.68969 12.4682 0.435736 12.8585 0.262463 13.2881C0.0891895 13.7177 0 14.1783 0 14.6434C0 15.1085 0.0891895 15.5691 0.262463 15.9987C0.435736 16.4284 0.68969 16.8186 1.00978 17.1472L11.3397 27.7805L16.1271 22.8409L8.31185 14.651L16.2151 6.50631Z" fill="#141414"/>
<path d="M26.5452 12.1397L16.2153 1.51389C15.5597 0.912646 14.7055 0.591655 13.8275 0.616517C12.9495 0.641379 12.1139 1.01022 11.4913 1.64766C10.8688 2.2851 10.5065 3.14301 10.4783 4.04607C10.4502 4.94912 10.7584 5.82914 11.3399 6.50631L21.6772 17.1396C22.3237 17.8047 23.2006 18.1782 24.1149 18.1782C25.0292 18.1782 25.906 17.8047 26.5526 17.1396C27.1991 16.4746 27.5623 15.5726 27.5623 14.6321C27.5623 13.6916 27.1991 12.7896 26.5526 12.1246L26.5452 12.1397Z" fill="#141414"/>
<path d="M13.7368 28.8288C15.6236 28.8288 17.1532 27.2554 17.1532 25.3145C17.1532 23.3735 15.6236 21.8002 13.7368 21.8002C11.8499 21.8002 10.3203 23.3735 10.3203 25.3145C10.3203 27.2554 11.8499 28.8288 13.7368 28.8288Z" fill="#141414"/>
</g>
<defs>
<clipPath id="clip0">
<rect width="90" height="29" fill="white"/>
</clipPath>
</defs>
</svg>
