<svg width="61" height="34" viewBox="0 0 61 34" fill="none" xmlns="http://www.w3.org/2000/svg">
<path d="M5.88011 24.4706V27.8152H2.08942V24.4706H0V33.2467H2.08942V29.7181H5.88011V33.2467H7.96953V24.4706H5.88011Z" fill="#141414"/>
<path d="M15.6219 24.4706L13.4367 27.9463L11.254 24.4706H8.78906L12.3958 30.2071V33.2467H14.4827V30.2071L18.0894 24.4706H15.6219Z" fill="#141414"/>
<path d="M24.8098 24.4706V30.9027C24.8098 31.1472 24.6258 31.3438 24.3662 31.3438H21.0191V24.4706H18.9297V33.2467H25.1021C25.6516 33.2467 26.0927 33.0828 26.4153 32.7627C26.7354 32.4401 26.8967 31.9991 26.8967 31.4522V24.4706H24.8098Z" fill="#141414"/>
<path d="M35.0045 24.4706H28.832V33.2467H30.9189V26.371H34.2711C34.5407 26.371 34.7121 26.5827 34.7121 26.8096V33.2467H36.799V26.2652C36.799 25.7157 36.6352 25.2747 36.3176 24.9546C35.9925 24.632 35.554 24.4706 35.0045 24.4706Z" fill="#141414"/>
<path d="M44.9029 24.4706H38.7305V33.2467H44.9029C45.4524 33.2467 45.891 33.0828 46.2111 32.7627C46.5337 32.4401 46.695 31.9991 46.695 31.4522V26.2652C46.695 25.7157 46.5336 25.2747 46.2111 24.9546C45.891 24.632 45.4499 24.4706 44.9029 24.4706ZM44.6081 26.8247V30.8901C44.6081 31.127 44.4367 31.3438 44.1645 31.3438H40.8149V26.371H44.1493C44.4241 26.371 44.6081 26.5626 44.6081 26.8247Z" fill="#141414"/>
<path d="M50.335 24.4706C49.7881 24.4706 49.3445 24.632 49.0244 24.9546C48.7018 25.2772 48.543 25.7183 48.543 26.2652V33.2467H50.6248V30.5322H54.4181V33.2467H56.505V24.4706H50.335ZM54.4181 26.371V28.6318H50.6248V26.8172C50.6248 26.6004 50.7936 26.371 51.0709 26.371H54.4181Z" fill="#141414"/>
<path d="M58.5391 33.2467H60.6285V24.4706H58.5391V33.2467Z" fill="#141414"/>
<path d="M29.0786 18.3889C39.1013 18.3889 47.2275 14.2722 47.2275 9.19638C47.2275 4.11679 39.1013 0 29.0786 0C19.0598 0 10.9336 4.11679 10.9336 9.19638C10.9336 14.2722 19.0598 18.3889 29.0786 18.3889ZM32.4961 13.8779C32.1934 14.5716 31.6724 16.0537 30.477 16.6451C30.1131 16.8234 29.6648 16.9068 29.2663 16.9219C29.1743 16.9219 29.1093 16.9219 29.0823 16.9219C25.7337 16.9219 22.6151 16.4593 20.0059 15.6747C19.9865 15.6664 19.9256 15.6444 19.9064 15.6367C19.6651 15.5572 19.5424 15.4472 19.5424 15.3108C19.5424 15.1933 19.6075 15.1023 19.6918 15.0189C19.7301 14.9848 19.7838 14.9394 19.8566 14.8747C20.462 14.3782 22.2742 13.0779 25.6917 11.7815C26.8909 11.3304 28.3927 10.7656 29.9635 10.4358C30.8831 10.2463 34.3006 9.72688 32.496 13.8778L32.4961 13.8779ZM41.6644 4.60944C41.7294 4.4994 41.8139 4.40475 41.9708 4.39705C42.0551 4.3888 42.1702 4.40805 42.3463 4.51835C44.4765 5.81479 45.7408 7.43724 45.7408 9.19235C45.7408 12.3614 41.6222 15.0869 35.7297 16.2772C35.3542 16.3531 35.1013 16.3493 35.0171 16.2552C34.9559 16.1982 34.9406 16.096 35.0171 15.9709C35.0515 15.9066 35.0938 15.8496 35.1741 15.7547C38.3809 12.0132 40.8252 6.49387 41.5187 4.90175C41.5724 4.79171 41.6222 4.68201 41.6644 4.60994L41.6644 4.60944ZM25.7186 4.4925C26.0212 3.7988 26.5423 2.31655 27.7377 1.729C28.1017 1.55075 28.5499 1.46359 28.9484 1.45231C29.0404 1.44956 29.1054 1.45231 29.1285 1.45231C32.4809 1.45231 35.5957 1.91098 38.2087 2.69944C38.2281 2.7077 38.289 2.72969 38.3082 2.73739C38.5495 2.81689 38.6722 2.92689 38.6722 3.06336C38.6722 3.18082 38.6071 3.26804 38.5229 3.35147C38.4845 3.38943 38.4309 3.43482 38.358 3.49561C37.7565 3.99598 35.9405 5.29242 32.5229 6.58886C31.3199 7.04373 29.8219 7.60475 28.2549 7.93455C27.3316 8.12793 23.914 8.64343 25.7186 4.49258V4.4925ZM22.4275 2.1082C22.8068 2.03612 23.0558 2.03611 23.1478 2.13019C23.2014 2.19071 23.2167 2.28947 23.145 2.41452C23.1066 2.47889 23.0647 2.53971 22.9879 2.62691C19.7811 6.37215 17.3368 11.8876 16.6395 13.4835C16.5897 13.5936 16.5361 13.7033 16.4938 13.7754C16.4324 13.8855 16.3445 13.9801 16.1911 13.9878C16.1069 13.9961 15.9881 13.9713 15.8118 13.8665C13.6816 12.5701 12.4173 10.9476 12.4173 9.19252C12.4173 6.02346 16.5359 3.29797 22.4284 2.10769" fill="#141414"/>
</svg>
