<svg width="119" height="25" viewBox="0 0 119 25" fill="none" xmlns="http://www.w3.org/2000/svg">
<path d="M26.1094 8.43176H27.8405L31.1776 12.9974L34.3604 8.43176H35.9802V18.2046H34.2767V11.1402L31.1916 15.4825H30.94L27.8266 11.1821V18.2046H26.1094V8.43176Z" fill="#141414"/>
<path d="M40.8362 14.1H43.6983L42.2742 10.6237L40.8362 14.1ZM41.5622 8.40415H43.07L47.2028 18.2046H45.3736L44.3544 15.7055H40.18L39.1609 18.2046H37.4297L41.5622 8.40415Z" fill="#141414"/>
<path d="M48.1648 10.9727C48.1648 9.50709 49.3109 8.27819 51.2083 8.27819C52.4077 8.27819 53.4136 8.68306 54.0006 9.32528L53.0804 10.6097C52.6044 10.149 52.1285 9.88404 51.3479 9.88404C50.4976 9.88404 49.9804 10.3165 49.9804 10.9587C49.9804 12.9831 54.4067 12.3412 54.4067 15.5939C54.4067 17.2413 52.9662 18.3582 51.1385 18.3582C49.882 18.3582 48.4161 17.8137 47.9414 16.8224L48.9187 15.6497C49.4918 16.3896 50.4119 16.7529 51.1671 16.7529C51.9762 16.7529 52.5918 16.3478 52.5918 15.6078C52.5918 13.6812 48.1648 14.1558 48.1648 10.9727Z" fill="#141414"/>
<path d="M55.1719 8.43176H63.2281V10.0373H60.0583V18.2046H58.3417V10.0373H55.1719V8.43176Z" fill="#141414"/>
<path d="M64.7227 8.43176H70.3769V10.0373H66.4392V12.4669H69.9581V14.0724H66.4392V16.5994H70.5165V18.2046H64.7227V8.43176Z" fill="#141414"/>
<path d="M74.4658 10.0373V12.9412H75.5827C76.5727 12.9412 77.4516 12.4386 77.4516 11.4334C77.4516 10.6656 77.0328 10.0097 75.6367 10.0097C75.3162 10.0097 74.9259 10.0233 74.4658 10.0373ZM72.7461 18.2046V8.43176C73.2918 8.43176 75.4431 8.40415 75.7224 8.40415C78.3877 8.40415 79.2666 9.73047 79.2666 11.4195C79.2666 13.0948 78.1909 13.9325 77.3818 14.212L80.4406 18.2046H78.3591L75.6653 14.5468H74.4658V18.2046H72.7461Z" fill="#141414"/>
<path d="M81.9336 8.43176H83.666L87.004 12.9974L90.1865 8.43176H91.8048V18.2046H90.1009V11.1402L87.0167 15.4825H86.7661L83.6533 11.1821V18.2046H81.9336V8.43176Z" fill="#141414"/>
<path d="M94.7188 8.43176H96.4385V18.2046H94.7188V8.43176Z" fill="#141414"/>
<path d="M106.336 18.2046L100.961 11.4334V18.2046H99.3555V8.43176H100.723L106.098 15.2309V8.43176H107.704V18.2046H106.336Z" fill="#141414"/>
<path d="M112.13 10.0373V16.5994C112.603 16.627 112.993 16.627 113.231 16.627C115.592 16.627 116.959 15.2867 116.959 13.2204C116.959 11.2519 115.592 9.99539 113.26 9.99539C112.853 9.99539 112.52 10.0097 112.13 10.0373ZM110.41 8.43175H110.594C111.178 8.43175 112.574 8.38987 113.288 8.38987C117.197 8.38987 118.774 10.6376 118.774 13.2204C118.774 15.9708 116.902 18.2328 113.177 18.2328C112.59 18.2328 111.502 18.2046 110.607 18.2046H110.41V8.43175Z" fill="#141414"/>
<path d="M4.25563 8.41017H15.5087V9.82724H4.25563V8.41017ZM8.82663 5.87844L8.84885 5.89051C9.4257 6.19639 10.1108 6.18844 10.6809 5.86924L15.5087 2.47097V7.27361H4.25563V2.81809L8.82663 5.87844ZM19.553 22.6496L15.0594 21.1847V19.0772L15.1196 19.0952H15.2247C16.1648 19.0952 16.9273 18.3331 16.9273 17.3929V14.4862C17.2392 14.6515 17.5908 14.7451 17.9636 14.7451C19.1849 14.7451 20.1853 13.7446 20.2764 12.4751H16.9273V11.2459H20.2371V9.82724H16.9273V2.22093C16.9273 1.76275 16.6912 1.35058 16.2956 1.11864C15.8999 0.887007 15.4252 0.882244 15.0251 1.10626L9.98003 4.63591C9.83693 4.71301 9.66685 4.7149 9.52184 4.64161L4.73474 1.45719L4.71286 1.44514C4.31338 1.2335 3.84345 1.24588 3.45603 1.47941C3.0686 1.71231 2.83698 2.12162 2.83698 2.57377V9.82724H0V11.2459H2.83698V12.121C1.98503 12.4158 1.37105 13.2262 1.37105 14.1774V14.8393C1.37105 16.039 2.34676 17.0147 3.54647 17.0147H4.49202V15.5961H3.54647C3.12923 15.5961 2.7897 15.2566 2.7897 14.8393V14.1774C2.7897 13.7605 3.12923 13.421 3.54647 13.421H4.25563V11.2459H15.5087V17.3929C15.5087 17.524 15.4192 17.6347 15.2983 17.6671L12.592 16.8554C12.1367 16.719 11.6785 17.0601 11.6785 17.5357C11.6785 17.8492 11.8841 18.1256 12.1843 18.2154L13.6407 18.652V20.722L2.55742 17.5094L2.53112 17.5011C2.01328 17.3555 1.47099 17.4542 1.0382 17.7718C0.585726 18.104 0.330934 18.6425 0.330934 19.2038V21.554C0.330934 21.9459 0.648569 22.2635 1.04012 22.2635C1.4323 22.2635 1.74958 21.9459 1.74958 21.554V19.1679C1.74958 19.0324 1.82733 18.9534 1.87334 18.9185C1.91839 18.8842 2.01169 18.8328 2.13734 18.8643L19.1043 24.0223C19.4676 24.1416 19.8607 23.9569 20.001 23.6012C20.1539 23.2141 19.9486 22.7785 19.553 22.6496Z" fill="#141414"/>
<path d="M14.8863 12.4751H9.98438C10.0808 13.7446 11.1409 14.7448 12.4352 14.7448C13.7295 14.7448 14.7893 13.7446 14.8863 12.4751Z" fill="#141414"/>
<path d="M10.4192 16.7495C10.4192 17.0941 10.14 17.373 9.79538 17.373C9.45111 17.373 9.17188 17.0941 9.17188 16.7495C9.17188 16.4049 9.45111 16.126 9.79538 16.126C10.14 16.126 10.4192 16.4049 10.4192 16.7495Z" fill="#141414"/>
</svg>
