<svg width="101" height="32" viewBox="0 0 101 32" fill="none" xmlns="http://www.w3.org/2000/svg">
<g clip-path="url(#clip0)">
<path d="M6.15103 16.5034C5.94027 16.4928 5.72899 16.5071 5.52157 16.546C5.17555 16.6018 4.8441 16.726 4.54653 16.9113C4.24895 17.0965 3.99122 17.3392 3.78833 17.6251C3.58544 17.911 3.44146 18.2344 3.36478 18.5765C3.28809 18.9186 3.28024 19.2726 3.34167 19.6178C3.49248 21.0413 5.00973 22.2418 6.4143 22.2775C6.55846 22.2812 6.70265 22.2716 6.84505 22.2489C8.36497 22.0028 8.76292 20.4361 8.51238 18.8971C8.22938 17.1596 6.99135 16.547 6.15103 16.5034ZM7.64032 20.6201C7.57616 20.7162 7.48711 20.7931 7.38267 20.8424C7.27823 20.8918 7.16234 20.9119 7.04739 20.9005C6.84532 20.8845 6.65688 20.7922 6.52025 20.6425C6.38362 20.4927 6.30901 20.2965 6.31152 20.0938C6.30801 19.8236 6.36008 19.5556 6.46451 19.3064C6.52972 19.1481 6.53599 18.9716 6.48217 18.8091C6.42836 18.6466 6.31803 18.5087 6.17125 18.4207C5.99088 18.3088 5.77448 18.2705 5.56669 18.3136C5.36545 18.3522 5.18761 18.4689 5.07192 18.6381C4.99382 18.7644 4.93285 18.9005 4.89062 19.0428C4.88238 19.0678 4.87585 19.0873 4.87089 19.1001C4.80202 19.2757 4.69212 19.3271 4.61781 19.3176C4.59045 19.3126 4.5651 19.2998 4.5448 19.2807C4.5245 19.2617 4.5101 19.2372 4.50332 19.2103C4.46477 18.9757 4.48283 18.7354 4.55599 18.5093C4.62915 18.2831 4.75529 18.0778 4.9239 17.9103C5.07074 17.7637 5.24909 17.6526 5.44537 17.5854C5.64165 17.5182 5.85067 17.4967 6.05651 17.5225C6.27267 17.5485 6.47926 17.6267 6.65843 17.7504C6.83761 17.8741 6.98398 18.0396 7.08491 18.2326C7.18203 18.4648 7.22131 18.7172 7.19939 18.9679C7.17746 19.2187 7.09498 19.4604 6.95904 19.6723C6.94186 19.7089 6.92612 19.7425 6.91269 19.7724C6.86379 19.8554 6.83681 19.9495 6.83427 20.0458C6.83172 20.1421 6.85371 20.2375 6.89816 20.3229C6.93727 20.375 6.98833 20.417 7.04703 20.4452C7.10573 20.4735 7.17036 20.4872 7.23548 20.4853C7.29764 20.4845 7.35949 20.4762 7.41969 20.4607C7.49775 20.4434 7.57848 20.4256 7.62762 20.4841C7.64392 20.5025 7.65394 20.5256 7.65623 20.55C7.65851 20.5745 7.65294 20.5991 7.64032 20.6201V20.6201Z" fill="white"/>
<path d="M25.5729 23.5394C25.89 22.7344 26.0734 21.883 26.1157 21.0188C26.1157 19.9564 25.5143 19.516 25.1314 19.516C25.1196 19.475 25.0439 19.1979 24.9396 18.8644C24.88 18.671 24.8092 18.4812 24.7276 18.296C25.041 17.863 25.1736 17.3249 25.0974 16.7958C25.0347 16.3877 24.8408 16.0113 24.545 15.7235C23.9835 15.2467 23.3136 14.9153 22.5941 14.7583C22.4857 14.728 22.1284 14.63 22.097 14.6204C22.0945 14.5999 22.0709 13.45 22.0493 12.9563C22.0401 12.4613 21.9663 11.9695 21.8299 11.4936C21.6605 10.8105 21.3101 10.1858 20.8157 9.68502C22.0535 8.4033 22.8263 6.99142 22.8244 5.7802C22.8209 3.45085 19.957 2.74597 16.4278 4.20579C16.4239 4.20743 15.6852 4.52023 15.68 4.52292C15.6767 4.51964 14.3281 3.19804 14.3078 3.18026C10.2841 -0.325486 -2.29698 13.6429 1.72542 17.0354L2.60448 17.7793C2.36727 18.4151 2.28352 19.098 2.36004 19.7723C2.4792 20.7534 2.96398 21.6533 3.71755 22.2924C4.449 22.9564 5.394 23.3365 6.3814 23.3637C7.9467 26.9669 11.5231 29.1772 15.7165 29.3016C20.2148 29.435 23.9908 27.3267 25.5729 23.5394ZM26.4962 19.2753C26.8816 19.7728 27.0799 20.3899 27.0564 21.0188C27.0159 21.9998 26.8108 22.967 26.4498 23.8799L26.4412 23.9013C25.625 25.8647 24.1999 27.514 22.3759 28.6061C20.4774 29.7106 18.3144 30.278 16.1183 30.2474H16.1178C15.9757 30.2474 15.8314 30.2452 15.6887 30.2409C13.5213 30.1957 11.4055 29.5709 9.56093 28.4316C7.93728 27.4138 6.62335 25.9706 5.76177 24.2585C4.76915 24.1043 3.84244 23.6658 3.0937 22.9959C2.16279 22.2003 1.56645 21.0825 1.42397 19.8661C1.36048 19.2751 1.39473 18.6776 1.52536 18.0977L1.11726 17.7525C0.786938 17.4671 0.518494 17.1171 0.328456 16.7241C0.138418 16.331 0.0308071 15.9032 0.0122466 15.467C-0.0212366 14.5615 0.135206 13.659 0.471503 12.8177C1.30923 10.5299 3.23638 7.80562 5.62701 5.53018C6.69383 4.49463 7.87726 3.58651 9.15353 2.82407C10.218 2.14301 11.4406 1.74912 12.7023 1.68068C13.5161 1.65945 14.3087 1.94151 14.9262 2.47209C14.9615 2.50284 15.4898 3.01971 15.8905 3.41236C15.9911 3.36992 16.0634 3.33938 16.0655 3.33858C17.251 2.82205 18.525 2.53923 19.8176 2.50565C22.2127 2.50565 23.7622 3.79041 23.7652 5.77878C23.7671 7.00567 23.1649 8.38105 22.0548 9.71249C22.3568 10.1796 22.5853 10.6905 22.7322 11.227C22.8899 11.7763 22.9763 12.3436 22.9892 12.915C23 13.1608 23.011 13.5552 23.0199 13.9033C23.8389 14.1107 24.5958 14.5128 25.2262 15.0754C25.6536 15.4996 25.9339 16.0496 26.026 16.6448C26.1186 17.2323 26.0278 17.834 25.7661 18.3681C25.7894 18.435 25.8137 18.5076 25.8378 18.5845C25.8587 18.6516 25.8785 18.7163 25.897 18.7777C26.1276 18.9025 26.3312 19.0716 26.4963 19.2753H26.4962Z" fill="white"/>
<path d="M23.6454 18.112C23.7979 17.9686 23.9169 17.7932 23.9938 17.5984C24.0707 17.4036 24.1036 17.1943 24.0902 16.9853C24.0597 16.7746 23.9614 16.5796 23.8103 16.4298C23.3669 16.0616 22.8393 15.8089 22.2746 15.6942C22.0167 15.621 21.8417 15.5741 21.6531 15.5114C21.3178 15.3997 21.1521 15.3098 21.1146 14.6722C21.0982 14.3934 21.0501 13.4219 21.0328 13.0205C21.0022 12.3171 20.9185 11.3557 20.3287 10.9587C20.1787 10.8592 20.0042 10.8028 19.8243 10.7957C19.7236 10.7895 19.6225 10.7995 19.525 10.8253C19.2257 10.8953 18.9532 11.0511 18.741 11.2735C18.4662 11.5245 18.1423 11.7156 17.7898 11.8346C17.4372 11.9536 17.0638 11.998 16.6932 11.9649C16.2804 11.9474 15.8429 11.8824 15.3415 11.8524C15.2439 11.8466 15.146 11.8405 15.0483 11.8353C14.4003 11.8545 13.7808 12.106 13.3027 12.544C12.8246 12.982 12.5199 13.5773 12.444 14.2213C12.1569 16.2189 13.5873 17.2513 14.0003 17.857C14.0641 17.9343 14.1037 18.0288 14.1139 18.1286C14.1032 18.2392 14.0506 18.3416 13.9669 18.4147L13.967 18.4153C13.3952 19.0592 12.9937 19.8362 12.7993 20.6753C12.6048 21.5143 12.6236 22.3888 12.8538 23.2187C12.9084 23.418 12.9784 23.6128 13.0631 23.8013C14.1068 26.2681 17.3447 27.4168 20.508 26.372C20.9223 26.2352 21.3244 26.0634 21.7097 25.8585C22.4033 25.5117 23.0271 25.0403 23.55 24.4676C24.3659 23.6399 24.9018 22.577 25.0822 21.4286C25.1775 20.7929 25.038 20.5469 24.848 20.4285C24.7138 20.353 24.5584 20.3244 24.4061 20.347C24.3256 19.8479 24.1843 19.3606 23.9853 18.8959L23.6454 18.112Z" fill="white"/>
<path d="M18.4598 8.58498C18.5108 8.5967 18.5433 8.5085 18.4976 8.4829C17.7419 8.09116 16.9084 7.87296 16.0577 7.84418C16.0495 7.84406 16.0415 7.84168 16.0346 7.8373C16.0277 7.83292 16.0221 7.82672 16.0185 7.81938C16.0149 7.81203 16.0134 7.80384 16.0142 7.79569C16.0149 7.78754 16.0179 7.77976 16.0228 7.77321C16.155 7.60032 16.3094 7.44557 16.4819 7.31295C16.4897 7.30695 16.4953 7.29863 16.4979 7.28921C16.5006 7.2798 16.5002 7.26977 16.4967 7.26061C16.4933 7.25145 16.487 7.24363 16.4788 7.2383C16.4706 7.23297 16.4609 7.2304 16.4512 7.23098C15.4096 7.33331 14.4083 7.68643 13.5328 8.26014C13.5254 8.26517 13.5166 8.26786 13.5075 8.26783C13.4985 8.26781 13.4897 8.26509 13.4823 8.26001C13.4749 8.25493 13.4691 8.24774 13.4658 8.23936C13.4625 8.23098 13.4618 8.2218 13.4638 8.21301C13.5343 7.94996 13.6381 7.69697 13.7726 7.46018C13.777 7.45205 13.7787 7.44272 13.7774 7.43355C13.7762 7.42438 13.772 7.41586 13.7655 7.40924C13.759 7.40263 13.7506 7.39827 13.7415 7.39681C13.7323 7.39535 13.723 7.39686 13.7147 7.40113C12.4506 8.09569 11.3238 9.01539 10.3901 10.115C10.3828 10.1233 10.3788 10.1341 10.3789 10.1452C10.379 10.1563 10.3832 10.167 10.3907 10.1752C10.3982 10.1834 10.4084 10.1886 10.4194 10.1897C10.4305 10.1909 10.4416 10.188 10.4506 10.1815C11.5327 9.42509 12.7518 8.88682 14.0397 8.59678C15.4935 8.26132 17.0042 8.25728 18.4598 8.58497" fill="white"/>
<path d="M14.735 5.01686C14.735 5.01686 13.6399 3.74858 13.3093 3.65503C11.2754 3.10602 6.88186 6.13264 4.0766 10.1314C2.94152 11.7493 1.31663 14.6144 2.09361 16.0881C2.36977 16.4189 2.68108 16.7188 3.02206 16.9823C3.54264 16.2524 4.32613 15.7531 5.20746 15.5896C6.31354 12.4963 8.25512 9.77034 10.8166 7.71432C12.0457 6.70806 13.3564 5.80579 14.735 5.01686Z" fill="white"/>
<path d="M7.56544 20.5652C7.58122 20.5843 7.59084 20.6077 7.59304 20.6324C7.59525 20.6571 7.58993 20.6818 7.57779 20.7034C7.51875 20.7993 7.43412 20.8767 7.33344 20.927C7.23277 20.9773 7.12004 20.9985 7.00797 20.9882C6.80826 20.9667 6.62416 20.8701 6.49288 20.718C6.3616 20.5659 6.29294 20.3697 6.30076 20.1689C6.29738 19.8952 6.34732 19.6236 6.4478 19.3691C6.51122 19.2096 6.51784 19.0331 6.46654 18.8693C6.41524 18.7056 6.30914 18.5644 6.16608 18.4697C6.08142 18.4136 5.98639 18.3751 5.8866 18.3564C5.78681 18.3377 5.68429 18.3392 5.58509 18.3608C5.4879 18.3813 5.39578 18.421 5.31414 18.4776C5.23251 18.5341 5.16302 18.6065 5.10975 18.6903C5.0344 18.8194 4.97581 18.9575 4.9354 19.1014C4.92761 19.1267 4.92132 19.1466 4.91655 19.1595C4.85035 19.3381 4.74481 19.3902 4.6733 19.3806C4.6395 19.3759 4.59301 19.3533 4.56322 19.2715C4.52582 19.0352 4.54279 18.7934 4.61284 18.5647C4.68289 18.3359 4.80418 18.1261 4.96748 17.9512C5.10462 17.8039 5.27485 17.6914 5.4641 17.6229C5.65334 17.5544 5.85615 17.532 6.05576 17.5575C6.26723 17.5866 6.46819 17.6677 6.64065 17.7935C6.8131 17.9193 6.95167 18.086 7.04394 18.2785C7.13738 18.5152 7.17509 18.7702 7.15414 19.0237C7.13319 19.2773 7.05414 19.5227 6.92313 19.7408C6.90655 19.7778 6.89138 19.8119 6.87859 19.8426C6.83148 19.9278 6.80561 20.0231 6.80317 20.1204C6.80074 20.2177 6.82182 20.3142 6.86462 20.4016C6.9008 20.4538 6.94934 20.4961 7.0059 20.5249C7.06246 20.5536 7.12526 20.5679 7.18869 20.5664C7.24849 20.5656 7.30794 20.5572 7.36563 20.5414C7.44072 20.5238 7.5183 20.5058 7.56544 20.5651L7.56544 20.5652ZM26.075 21.0274C26.033 21.8896 25.8509 22.7392 25.5358 23.5427C23.964 27.322 20.2127 29.426 15.744 29.2928C11.578 29.1687 8.02496 26.963 6.46989 23.3674C5.48819 23.3399 4.54904 22.9605 3.82361 22.2983C3.07423 21.6593 2.59276 20.7615 2.47494 19.7835C2.3989 19.1107 2.48209 18.4294 2.71778 17.7947L1.84446 17.0524C-2.15156 13.667 10.3469 -0.272092 14.3445 3.22637C14.3646 3.24398 15.7043 4.56293 15.7077 4.56618C15.713 4.56346 16.4468 4.25123 16.4505 4.24971C19.9567 2.79292 22.8018 3.49631 22.8054 5.82065C22.8072 7.02946 22.0396 8.43841 20.8099 9.71734C21.3013 10.2177 21.6493 10.841 21.8173 11.522C21.9529 11.9971 22.0262 12.4878 22.0353 12.9818C22.0567 13.4744 22.0803 14.622 22.0827 14.6425C22.1139 14.6519 22.4689 14.7497 22.5764 14.78C23.2918 14.9369 23.9575 15.2678 24.5146 15.7432C24.8088 16.0309 25.0014 16.4064 25.0634 16.8132C25.1393 17.341 25.0076 17.8776 24.6961 18.3103C24.7772 18.4952 24.8475 18.6846 24.9068 18.8776C25.0102 19.2105 25.0855 19.4867 25.0971 19.5277C25.4775 19.5277 26.075 19.9671 26.075 21.0274L26.075 21.0274ZM8.41557 18.9536C8.14382 17.1888 6.95401 16.5668 6.14668 16.5225C5.94403 16.5117 5.74082 16.5262 5.54175 16.5656C4.10078 16.8573 3.28695 18.0872 3.44709 19.6853C3.56372 20.4022 3.91858 21.0587 4.45433 21.5489C4.99008 22.0391 5.67541 22.3342 6.39957 22.3867C6.53816 22.3904 6.67677 22.3806 6.81348 22.3575C8.27395 22.1076 8.65633 20.5165 8.41557 18.9536ZM10.8785 7.75078C12.0991 6.74696 13.4012 5.84659 14.7713 5.05898C14.7713 5.05898 13.6834 3.79342 13.3549 3.70015C11.3344 3.15212 6.9695 6.17244 4.18269 10.1627C3.05507 11.7773 1.44084 14.6365 2.21264 16.107C2.48682 16.437 2.79611 16.7362 3.13504 16.9993C3.65103 16.2718 4.4296 15.7734 5.30619 15.6096C6.40288 12.5257 8.33153 9.80568 10.8785 7.75078ZM15.27 21.7162C15.3236 21.9508 15.4395 22.1665 15.6054 22.3406C15.7714 22.5147 15.9813 22.6407 16.213 22.7053C16.454 22.7952 16.7027 22.8629 16.9559 22.9078C20.1521 23.4594 23.1401 21.6258 23.8129 21.164C23.8634 21.1293 23.8967 21.1631 23.8562 21.2243C23.836 21.2569 23.814 21.2883 23.7903 21.3186C22.967 22.3842 20.7534 23.6182 17.8736 23.6178C16.6175 23.6176 15.3622 23.1736 14.9012 22.4914C14.1861 21.4328 14.8658 19.8878 16.0574 20.0488C16.0588 20.049 16.4651 20.0952 16.5793 20.1079C18.4316 20.2861 20.2986 19.9863 22.0021 19.2372C23.6278 18.48 24.2419 17.6467 24.1498 16.9721C24.119 16.7626 24.0206 16.569 23.8695 16.4206C23.4249 16.0546 22.897 15.8037 22.3325 15.6902C22.0743 15.6174 21.8991 15.571 21.7104 15.5086C21.3748 15.3977 21.2089 15.3085 21.1713 14.6753C21.1549 14.3984 21.1068 13.4338 21.0894 13.0351C21.0587 12.3366 20.9751 11.3819 20.3846 10.9877C20.2342 10.8887 20.0597 10.8327 19.8799 10.8258C19.779 10.8197 19.6779 10.8296 19.5802 10.8553C19.281 10.9245 19.0084 11.0791 18.7955 11.3003C18.5195 11.5498 18.195 11.7396 17.8423 11.8578C17.4895 11.9759 17.1162 12.0199 16.7457 11.9869C16.3325 11.9696 15.8947 11.905 15.3928 11.8751C15.2952 11.8694 15.1971 11.8633 15.0993 11.8583C14.453 11.8752 13.8344 12.1238 13.356 12.5586C12.8775 12.9935 12.5711 13.5858 12.4925 14.2276C12.2052 16.2113 13.6369 17.2364 14.0503 17.8379C14.1142 17.9145 14.1538 18.0084 14.1641 18.1077C14.1532 18.2177 14.1005 18.3194 14.0169 18.3917V18.3924C13.4452 19.0296 13.0433 19.8007 12.8486 20.6345C12.6538 21.4682 12.6725 22.3376 12.9027 23.1623C12.9574 23.3603 13.0274 23.5537 13.1122 23.7408C14.1569 26.1904 17.3978 27.3311 20.5641 26.2935C20.9787 26.1577 21.3811 25.9872 21.767 25.7838C22.4604 25.44 23.0848 24.9718 23.6091 24.4025C24.4246 23.5827 24.9612 22.5268 25.1427 21.3847C25.2381 20.7532 25.0985 20.5091 24.9083 20.3915C24.7738 20.3166 24.6183 20.2881 24.466 20.3104C24.3853 19.8146 24.2439 19.3306 24.0448 18.8694C23.1405 19.552 22.1183 20.0621 21.0293 20.3743C19.719 20.7446 18.3559 20.8925 16.9967 20.8118C16.1223 20.7409 15.5438 20.4847 15.3263 21.1942C16.6489 21.6367 18.0533 21.78 19.438 21.6139C19.4477 21.6129 19.4576 21.6138 19.467 21.6166C19.4764 21.6194 19.4851 21.6241 19.4927 21.6303C19.5002 21.6365 19.5065 21.6441 19.5112 21.6528C19.5158 21.6614 19.5186 21.6709 19.5196 21.6806C19.5211 21.697 19.5174 21.7134 19.5091 21.7277C19.5009 21.7419 19.4884 21.7532 19.4734 21.76C19.4734 21.76 17.8493 22.5166 15.27 21.7162ZM10.5135 10.2127C11.5877 9.45835 12.799 8.92119 14.0791 8.63148C15.5233 8.29671 17.0244 8.29266 18.4703 8.61963C18.5209 8.63126 18.5532 8.54331 18.5079 8.51789C17.7576 8.12708 16.9293 7.90925 16.0839 7.88038C16.0757 7.88023 16.0678 7.87784 16.0609 7.87346C16.054 7.86909 16.0485 7.8629 16.0449 7.85559C16.0413 7.84827 16.0398 7.8401 16.0406 7.83199C16.0413 7.82388 16.0443 7.81613 16.0492 7.8096C16.1805 7.63717 16.3339 7.48274 16.5055 7.35028C16.5131 7.34428 16.5187 7.33598 16.5214 7.3266C16.524 7.31721 16.5236 7.30722 16.5202 7.29809C16.5167 7.28896 16.5105 7.28116 16.5023 7.27582C16.4942 7.27048 16.4845 7.26789 16.4748 7.26842C15.4395 7.37081 14.4445 7.72327 13.5755 8.29548C13.5681 8.30051 13.5593 8.30318 13.5503 8.30316C13.5414 8.30314 13.5326 8.30042 13.5252 8.29535C13.5178 8.29029 13.5121 8.28311 13.5089 8.27475C13.5056 8.2664 13.5049 8.25726 13.5069 8.24851C13.5769 7.98611 13.68 7.73367 13.8137 7.49729C13.8181 7.48921 13.8198 7.47991 13.8186 7.47078C13.8173 7.46164 13.8132 7.45314 13.8068 7.44653C13.8003 7.43992 13.792 7.43555 13.7829 7.43406C13.7738 7.43257 13.7644 7.43404 13.7562 7.43826C12.4995 8.13216 11.3801 9.05002 10.4533 10.1466C10.4461 10.1549 10.4421 10.1656 10.4422 10.1766C10.4423 10.1877 10.4465 10.1983 10.4539 10.2065C10.4614 10.2146 10.4715 10.2198 10.4825 10.2209C10.4935 10.2221 10.5045 10.2192 10.5135 10.2127ZM18.9302 16.9464C19.0177 17.0018 19.1225 17.0231 19.2246 17.0061C19.3267 16.9891 19.4191 16.9351 19.4839 16.8544C19.5645 16.6983 19.4475 16.4866 19.2224 16.3815C19.1349 16.3261 19.03 16.3049 18.9279 16.3219C18.8257 16.3389 18.7334 16.393 18.6686 16.4737C18.5879 16.6297 18.7051 16.8414 18.9302 16.9464ZM19.6207 14.4153C19.6747 14.6964 19.7912 14.9616 19.9616 15.1915C20.1377 15.1698 20.3157 15.1698 20.4918 15.1915C20.5948 14.883 20.6038 14.5509 20.5177 14.2373C20.3905 13.6587 20.2183 13.3085 19.8624 13.3629C19.5067 13.4175 19.4936 13.8367 19.6207 14.4153ZM20.3777 15.7446C20.2879 15.7188 20.1924 15.7218 20.1045 15.7532C20.0165 15.7845 19.9406 15.8427 19.8874 15.9194C19.8342 15.9961 19.8064 16.0876 19.8078 16.181C19.8093 16.2744 19.8399 16.365 19.8955 16.44C19.951 16.5151 20.0287 16.5708 20.1176 16.5994C20.2064 16.6281 20.302 16.6281 20.3909 16.5996C20.4798 16.5711 20.5576 16.5154 20.6132 16.4404C20.6688 16.3654 20.6996 16.2749 20.7011 16.1815C20.714 16.081 20.6876 15.9794 20.6273 15.8979C20.567 15.8165 20.4776 15.7615 20.3777 15.7446Z" fill="#e4002b"/>
<path d="M14.4691 15.6928C14.4123 15.6848 14.3882 15.6605 14.381 15.6284C14.359 15.5285 14.5125 15.3642 14.6742 15.2457C14.9104 15.073 15.1869 14.964 15.4773 14.9291C15.7677 14.8942 16.0622 14.9347 16.3325 15.0465C16.585 15.1507 16.8021 15.3256 16.9579 15.55C17.0157 15.6444 17.0269 15.7176 16.9895 15.756C16.9312 15.8175 16.7827 15.747 16.5408 15.6409C16.2502 15.4983 15.9291 15.4291 15.6057 15.4395C15.2224 15.5025 14.8429 15.5871 14.4691 15.6928ZM16.8799 16.1893C16.7754 16.0794 16.6453 15.9971 16.5012 15.9499C16.3571 15.9026 16.2035 15.8919 16.0543 15.9186C15.8341 15.942 15.6256 16.0289 15.454 16.1688C15.374 16.2262 15.3191 16.3121 15.3004 16.4088C15.3 16.4195 15.3019 16.4302 15.3061 16.4402C15.3102 16.4501 15.3165 16.459 15.3245 16.4662C15.3387 16.4791 15.3572 16.4861 15.3763 16.4859C15.4555 16.4743 15.533 16.4528 15.6068 16.422C15.9302 16.3001 16.2796 16.2638 16.6211 16.3166C16.7794 16.3344 16.8541 16.3443 16.8889 16.29C16.8978 16.2743 16.9017 16.2562 16.9001 16.2382C16.8985 16.2202 16.8914 16.2032 16.8799 16.1893Z" fill="#e4002b"/>
<path d="M16.4331 16.3344C16.5329 15.9789 16.5387 15.6034 16.4497 15.245C16.3209 14.6655 16.1263 14.3343 15.7654 14.3889C15.4046 14.4434 15.3953 14.9105 15.5116 15.4924C15.5651 15.7591 15.6692 16.013 15.8184 16.2404C16.1055 16.6412 16.3002 16.5375 16.4326 16.3344L16.4331 16.3344Z" fill="#e4002b"/>
<path d="M96.1204 18.7496C95.4574 18.7496 94.9701 17.909 94.9701 16.7371C94.9701 15.5992 95.4712 14.725 96.0975 14.725C96.9016 14.725 97.2446 15.4628 97.2446 16.7371C97.2446 18.0624 96.9288 18.7496 96.1204 18.7496ZM96.9138 12.3119C96.3759 12.3248 95.8541 12.4981 95.4153 12.8097C94.9766 13.1213 94.6409 13.557 94.4514 14.0607C94.256 14.48 94.2655 14.603 94.1228 14.603C93.9162 14.603 94.0877 14.2664 94.1803 13.87C94.2914 13.4197 94.3063 12.951 94.224 12.4946H92.1066V22.6581H94.9967V19.4357C95.1858 19.7916 95.4664 20.0905 95.8097 20.3015C96.1529 20.5125 96.5462 20.6279 96.949 20.6359C99.0387 20.6359 100.09 18.8668 100.09 16.4771C100.09 13.7683 98.8315 12.3108 96.9133 12.3108L96.9138 12.3119ZM75.3359 12.5058V20.4607H78.226V12.5058C77.7756 12.7166 77.2806 12.8142 76.7839 12.7902C76.2854 12.8135 75.7886 12.7159 75.3359 12.5058ZM71.7535 12.3135C70.0803 12.3135 69.4439 13.8993 69.3156 14.1747C69.1872 14.4502 69.1233 14.6084 69.0184 14.6052C68.8358 14.5993 68.963 14.2669 69.0344 14.0522C69.3136 13.1512 69.455 12.2132 69.454 11.2699C69.4787 10.8707 69.438 10.4702 69.3337 10.0841H66.8387V20.4612H69.7288V16.4989C69.7288 15.8533 69.986 14.7256 70.7146 14.7256C71.3174 14.7256 71.5064 15.1725 71.5064 16.0728V20.4617H74.3965V16.2464C74.3965 14.2019 74.0578 12.3145 71.7535 12.3145V12.3135ZM61.3728 16.4787C61.3728 15.7627 62.0379 15.1112 63.2585 15.1112C64.1925 15.1357 65.1035 15.407 65.8988 15.8975V13.1274C65.8988 13.1274 65.0537 12.3135 62.9757 12.3135C60.7854 12.3135 58.9614 13.5957 58.9614 16.3551C58.9614 19.1145 60.6166 20.6445 62.9698 20.6445C64.0355 20.6597 65.0731 20.3025 65.9036 19.6344V17.0034C65.1238 17.5308 64.2124 17.8302 63.2718 17.868C61.8749 17.868 61.3722 17.225 61.3722 16.4792L61.3728 16.4787ZM55.3018 10.0841H58.1919V20.4612H55.3018V10.0841ZM46.3488 18.5978C45.6576 18.7576 45.2997 18.5445 45.2997 18.0864C45.2997 17.4589 45.9489 17.2074 46.8749 17.2074C47.2834 17.2074 47.6674 17.2426 47.6674 17.2426C47.5721 17.5576 47.4026 17.8451 47.1732 18.0809C46.9437 18.3167 46.661 18.494 46.3488 18.5978ZM47.0523 12.3135C45.741 12.3078 44.444 12.5854 43.2499 13.1274V15.5209C43.2499 15.5209 45.0041 14.5119 46.4271 14.5119C47.563 14.5119 47.7025 15.1246 47.6508 15.6333C47.2129 15.5568 46.768 15.5277 46.3238 15.5465C43.9683 15.5465 42.7792 16.6172 42.7792 18.3346C42.7792 19.9637 44.1153 20.6445 45.2416 20.6445C45.7866 20.6651 46.3251 20.5206 46.7867 20.2301C47.2483 19.9395 47.6115 19.5164 47.8287 19.016C47.9826 18.6527 48.0108 18.4076 48.1493 18.4076C48.3069 18.4076 48.2537 18.5834 48.2462 18.9451C48.2188 19.4534 48.2582 19.9631 48.3634 20.4612H50.5415V16.5416C50.5415 14.0943 49.6761 12.3135 47.0528 12.3135H47.0523ZM88.5216 12.3119C88.0342 12.3364 87.5653 12.5063 87.1753 12.7997C86.7852 13.093 86.4918 13.4964 86.3328 13.9579C86.1715 14.3186 86.1268 14.6036 85.9957 14.6036C85.8115 14.6036 85.9345 14.2887 85.7929 13.8066C85.6836 13.3516 85.4152 12.9507 85.0361 12.6765C84.657 12.4024 84.1923 12.273 83.7261 12.3119C82.3905 12.3119 81.8185 13.4407 81.5475 14.0607C81.3621 14.4848 81.3616 14.603 81.2189 14.603C81.0122 14.603 81.1837 14.2664 81.2764 13.87C81.3875 13.4197 81.4024 12.951 81.3201 12.4946H79.2027V20.4585H82.0928V16.4963C82.0928 15.7148 82.4198 14.7229 82.98 14.7229C83.627 14.7229 83.757 15.2204 83.757 16.141V20.4607H86.6588V16.4963C86.6588 15.8006 86.9426 14.7229 87.5502 14.7229C88.2063 14.7229 88.3229 15.4213 88.3229 16.141V20.4585H91.1726V15.775C91.1726 13.6964 90.4403 12.3108 88.5221 12.3108L88.5216 12.3119ZM39.4673 12.3119C38.9799 12.3364 38.5111 12.5063 38.121 12.7997C37.7309 13.093 37.4376 13.4964 37.2786 13.9579C37.1172 14.3186 37.0725 14.6036 36.9415 14.6036C36.7572 14.6036 36.8893 14.3559 36.7386 13.8066C36.6236 13.3549 36.3537 12.9578 35.976 12.6846C35.5983 12.4115 35.1368 12.2795 34.6718 12.3119C33.3362 12.3119 32.7643 13.4407 32.4932 14.0607C32.3079 14.4848 32.3073 14.603 32.1646 14.603C31.958 14.603 32.1295 14.2664 32.2221 13.87C32.3332 13.4197 32.3481 12.951 32.2658 12.4946H30.1484V20.4585H33.0385V16.4963C33.0385 15.7148 33.3655 14.7229 33.9257 14.7229C34.5728 14.7229 34.7027 15.2204 34.7027 16.141V20.4607H37.6045V16.4963C37.6045 15.8006 37.8884 14.7229 38.496 14.7229C39.1521 14.7229 39.2687 15.4213 39.2687 16.141V20.4585H42.1183V15.775C42.1183 13.6964 41.3861 12.3108 39.4679 12.3108L39.4673 12.3119ZM75.0036 11.1586C75.0036 10.5207 75.7957 10.0037 76.7727 10.0037C77.7498 10.0037 78.5418 10.5207 78.5418 11.1586C78.5418 11.7964 77.7498 12.3135 76.7727 12.3135C75.7957 12.3135 75.0036 11.7964 75.0036 11.1586ZM52.924 12.7902C53.4207 12.8142 53.9158 12.7166 54.3662 12.5058V20.4607H51.4761V12.5058L52.924 12.7902ZM51.1438 11.1586C51.1438 10.5207 51.9358 10.0037 52.9129 10.0037C53.8899 10.0037 54.682 10.5207 54.682 11.1586C54.682 11.7964 53.8899 12.3135 52.9129 12.3135C51.9358 12.3135 51.1438 11.7964 51.1438 11.1586Z" fill="#e4002b"/>
</g>
<defs>
<clipPath id="clip0">
<rect width="100.117" height="31.9623" fill="white"/>
</clipPath>
</defs>
</svg>
