<svg width="160" height="15" viewBox="0 0 160 15" fill="none" xmlns="http://www.w3.org/2000/svg">
<g clip-path="url(#clip0)">
<path fill-rule="evenodd" clip-rule="evenodd" d="M0.890625 0H18.7717V2.6295C16.5067 2.74314 11.6863 3.33838 11.1443 7.01261C10.8057 9.30399 12.9921 10.5942 13.7605 11.0475C13.8413 11.0952 13.9065 11.1337 13.9513 11.1631C15.2225 11.7529 16.9132 12.11 18.7717 12.1804V14.9946H6.69649C7.29525 14.3568 7.93238 13.5252 8.55022 12.5321C8.98256 11.8341 9.82145 9.82105 9.80859 8.149C9.80212 7.4455 9.75048 6.73667 9.33107 6.33078C8.76319 5.77883 7.63391 5.81672 6.94346 5.91411C4.74947 6.22255 2.52967 7.58078 0.890625 9.32322V0ZM0.890625 10.4974V14.9946H6.57865L6.61061 14.9413C7.2791 13.8258 8.19664 12.2946 8.64058 10.7897C9.06646 9.36111 9.27296 7.95417 8.42761 7.27233C7.81526 6.7802 6.71102 7.09715 5.97516 7.30836L5.94971 7.31567C4.66558 7.67822 2.01343 9.09594 0.890625 10.4974ZM18.7717 11.4661V4.22041C16.6164 4.17712 14.0998 4.5992 12.8673 5.64355C12.0412 6.34705 11.8606 7.55372 12.3639 8.50072C13.5061 10.6382 16.6358 11.2551 18.7717 11.4661ZM9.23425 0.356777C9.21492 0.32972 9.19553 0.313487 9.16974 0.297253C9.15035 0.28643 9.07292 0.275608 9.05359 0.275608C8.95031 0.308075 8.95031 0.389244 8.95031 0.405478C8.95604 0.572049 8.9639 0.742156 8.97183 0.913854C9.05333 2.67766 9.1426 4.60954 7.00799 4.60461C5.61417 4.5992 4.07837 3.76587 2.72971 2.25613C2.70288 2.22702 2.67423 2.19541 2.64404 2.1621C2.42727 1.92293 2.13123 1.59631 1.86502 1.48232C1.63271 1.37951 1.18746 1.64466 1.38105 2.06673C1.91664 3.23557 3.58149 4.31782 4.07192 4.57214C5.12374 5.12951 7.37582 5.56783 8.51797 4.78859C9.90927 3.83775 9.58322 1.94472 9.40875 0.931769C9.39954 0.878252 9.39074 0.827191 9.38265 0.778855C9.34393 0.567816 9.29875 0.432534 9.23425 0.356777Z" fill="#141414"/>
<path d="M158.102 6.27705C158.102 5.73594 157.063 5.15152 155.495 5.15152H143.609V7.40261H155.495C157.063 7.40261 158.102 6.81277 158.102 6.27705ZM159.89 6.27705C159.89 7.72727 157.921 8.90155 155.495 8.90155H143.609V11.6342H141.822V3.65261H155.495C157.921 3.65261 159.89 4.82144 159.89 6.27705ZM138.034 7.64072C138.034 6.29872 135.149 4.94049 129.638 4.94049C124.127 4.94049 121.243 6.29872 121.243 7.64072C121.243 8.70672 124.592 10.3139 129.638 10.3139C134.685 10.3139 138.034 8.70672 138.034 7.64072ZM129.638 3.44157C136.369 3.44157 139.821 5.3301 139.821 7.64072C139.821 9.95133 135.259 11.8128 129.638 11.8128C124.012 11.8128 119.456 9.95133 119.456 7.64072C119.456 5.3301 122.914 3.44157 129.638 3.44157ZM119.456 3.65261H101.336V5.15152H109.505V11.6342H111.292V5.15152H119.462V3.65261H119.456ZM99.0255 8.34416L94.9542 5.21646L90.8823 8.34416H99.0255ZM100.981 9.84311H88.9335L86.5977 11.6342H83.9515L94.9542 3.18182L105.956 11.6342H103.311L100.981 9.84311ZM83.5256 7.05089H72.8396V8.54978H81.7385V9.30194C80.2803 9.88094 77.9115 10.3139 74.9693 10.3139C69.9233 10.3139 66.574 8.70672 66.574 7.64072C66.574 6.29872 69.4586 4.94049 74.9693 4.94049C78.4861 4.94049 80.9318 5.49244 82.242 6.24461L83.2354 5.00001C81.5575 4.05304 78.7957 3.44157 74.9693 3.44157C68.239 3.44157 64.7865 5.3301 64.7865 7.64072C64.7865 9.95133 69.3488 11.8128 74.9693 11.8128C78.5572 11.8128 81.7126 11.1851 83.5256 10.1299V7.05089ZM42.9305 3.65261L35.1676 9.85933L27.3983 3.65261H25.1914V11.6342H26.9789V5.48702L34.6708 11.6342H35.6581L43.3499 5.48702V11.6342H45.1374V3.65261H42.9305ZM49.5706 5.15152V6.72077H62.5474V8.21972H49.5706V10.1353H63.1152V11.6342H47.7831V3.65261H63.1152V5.15152H49.5706Z" fill="black"/>
</g>
<defs>
<clipPath id="clip0">
<rect width="159" height="15" fill="white" transform="translate(0.890625)"/>
</clipPath>
</defs>
</svg>
