<svg width="90" height="28" viewBox="0 0 90 28" fill="none" xmlns="http://www.w3.org/2000/svg">
<path d="M12.2412 0.627783C12.8245 0.647677 12.8404 0.662044 12.8404 1.1859V19.1397C12.8404 19.684 12.8229 19.7022 12.2905 19.7581C9.05212 20.0984 5.9864 21.0053 3.13777 22.6128C2.52923 22.9537 1.95303 23.3394 1.36149 23.703L1.40918 23.7887C1.51006 23.7301 1.61203 23.6726 1.71071 23.6129C4.54289 21.8922 7.60753 20.8334 10.8794 20.3775C11.5356 20.2858 12.1979 20.2338 12.8591 20.173C13.2565 20.136 13.3234 20.0747 13.324 19.6801C13.324 17.9886 13.3284 16.296 13.3196 14.604C13.3149 14.4932 13.3333 14.3826 13.3738 14.2794C13.4142 14.1762 13.4757 14.0827 13.5542 14.005C16.0169 11.363 17.8979 8.342 19.2931 5.01096C19.3228 4.93913 19.3606 4.87005 19.3913 4.80319C19.9159 4.89437 19.9159 4.89437 19.9159 5.38894V21.6214C19.5777 21.6369 19.2433 21.7181 18.9335 21.6573C16.0229 21.0836 13.0419 20.9671 10.096 21.3119C7.12672 21.6562 4.30112 22.4641 1.64054 23.8461C1.56041 23.8875 1.48178 23.9317 1.4048 23.9788C1.38945 23.9882 1.38342 24.0136 1.33737 24.0893C1.48429 24.0313 1.58407 23.9948 1.68166 23.9528C4.5384 22.7132 7.5657 21.919 10.6595 21.5976C13.7132 21.2716 16.7274 21.502 19.706 22.2326C20.2092 22.3558 20.4077 22.2011 20.4077 21.68C20.4077 19.1027 20.411 16.5248 20.4022 13.947C20.3973 13.8303 20.4194 13.7141 20.4669 13.6076C20.5144 13.5011 20.5859 13.4073 20.6758 13.3336C22.2575 11.8515 23.8281 10.3573 25.4482 8.82442C25.651 8.86144 25.7514 9.02888 25.7508 9.34883C25.7409 14.3001 25.7387 19.2513 25.7442 24.2026C25.7442 24.6585 25.4739 24.8624 25.0376 24.7154C23.0409 24.0385 21.008 23.4886 18.9193 23.2101C17.3266 22.9946 15.723 22.8145 14.12 22.7404C9.99725 22.5584 5.87232 23.0469 1.90369 24.1871C1.45962 24.3125 1.02487 24.4678 0.584092 24.6021C0.462932 24.6391 0.333548 24.6507 0.166885 24.6817C0.166885 24.0396 0.156469 23.4505 0.175657 22.8636C0.175657 22.7597 0.286948 22.6481 0.369184 22.5614C2.90974 19.8698 5.14598 16.9022 7.03681 13.7132C9.20015 10.0517 10.9446 6.20899 11.9435 2.04906C12.0559 1.57548 12.1431 1.09859 12.2412 0.628888V0.627783ZM43.1753 0.741618V10.9414C42.8371 10.9414 42.5147 10.9585 42.194 10.9287C42.1266 10.9221 42.0186 10.7502 42.0164 10.6524C42.001 9.9705 42.0076 9.28915 42.0076 8.6078V2.48892C41.7565 3.07854 41.427 3.86985 41.0833 4.65399C40.2045 6.65548 39.3256 8.65256 38.4463 10.6535C38.3607 10.8497 38.2681 10.9536 38.0291 10.9536C37.7895 10.9536 37.6974 10.8519 37.6102 10.6552C36.5176 8.18175 35.4151 5.71165 34.3219 3.23658C34.192 2.9426 34.1048 2.62873 33.9694 2.24357V10.9193H32.8822V0.747696C33.3608 0.747696 33.829 0.727803 34.2967 0.763721C34.3981 0.770905 34.5171 0.960445 34.5735 1.08975C35.3767 2.91331 36.1744 4.73853 36.966 6.56652C37.3207 7.38436 37.6678 8.20772 38.0274 9.05043C38.057 9.01285 38.0833 8.97251 38.1058 8.93052C39.2725 6.27806 40.4402 3.62727 41.609 0.977576C41.6529 0.878109 41.79 0.761511 41.8903 0.755985C42.3042 0.72725 42.7214 0.741618 43.1759 0.741618H43.1753ZM32.9497 24.5816V14.3907C32.9754 14.3752 32.9941 14.3526 33.0133 14.3531C34.618 14.3631 36.2336 14.1912 37.8174 14.5907C39.7242 15.0709 40.8591 16.4596 41.0246 18.444C41.1107 19.4967 41.0712 20.5328 40.6562 21.5164C39.9364 23.2201 38.5965 24.1821 36.8257 24.4214C35.5631 24.5955 34.2693 24.5358 32.9497 24.5816ZM34.1311 23.4455C34.8806 23.4455 35.602 23.4864 36.3175 23.4378C38.0861 23.3173 39.3322 22.2375 39.7187 20.5112C39.8963 19.6991 39.8881 18.8568 39.6946 18.0483C39.3936 16.7381 38.5762 15.9319 37.2961 15.6031C36.926 15.5063 36.547 15.4489 36.1651 15.4318C35.4946 15.4042 34.8219 15.4235 34.1311 15.4235V23.4455ZM81.6559 10.9193H80.5173V5.12811C80.5173 4.56447 80.5754 4.63133 80.0036 4.62636H79.3205V3.67755H80.5244C80.5244 3.17414 80.5074 2.71383 80.5282 2.25407C80.5649 1.44728 80.8879 0.787483 81.5753 0.338776C82.1504 -0.0364354 82.7837 -0.0541184 83.4289 0.0663472C83.4755 0.0830975 83.5173 0.111097 83.5507 0.147897C83.584 0.184696 83.6079 0.229174 83.6203 0.277438C83.6438 0.545999 83.629 0.817323 83.629 1.10688C83.4212 1.05936 83.2497 1.00963 83.0742 0.981444C82.3982 0.873688 81.8385 1.23066 81.7343 1.9098C81.6559 2.42206 81.6735 2.94868 81.6669 3.46922C81.6669 3.53719 81.7733 3.65766 81.8314 3.65876C82.7403 3.67092 83.6493 3.66705 84.5967 3.66705C84.5967 3.13656 84.6071 2.65083 84.5923 2.16786C84.5857 1.94959 84.6537 1.83631 84.867 1.78215C85.1471 1.71032 85.4207 1.60974 85.7502 1.50475V3.6654H87.527V4.61973H85.7836C85.7732 4.77666 85.76 4.89215 85.76 5.01483V8.96699C85.7891 9.93403 86.3987 10.3518 87.3143 10.0318C87.3768 10.0097 87.4387 9.99039 87.5533 9.95282C87.5533 10.238 87.5665 10.4944 87.5451 10.7486C87.5348 10.7944 87.5141 10.8373 87.4846 10.8737C87.4551 10.9101 87.4176 10.9392 87.3751 10.9585C86.7101 11.1774 86.0462 11.1973 85.4152 10.8469C84.9163 10.5706 84.7025 10.0893 84.657 9.55218C84.6043 8.93162 84.6071 8.30608 84.6016 7.68331C84.5945 6.68532 84.6016 5.68734 84.6016 4.65067C84.458 4.64349 84.339 4.63354 84.2189 4.63354C83.5101 4.63354 82.7996 4.64901 82.0912 4.62525C81.7617 4.6142 81.6494 4.69322 81.6532 5.05075C81.6735 6.86658 81.6625 8.68295 81.6625 10.5015L81.6559 10.9199V10.9193ZM68.3569 24.5695V24.1606C68.3569 22.8211 68.3601 21.4816 68.3569 20.141C68.3574 19.8918 68.3328 19.6431 68.2834 19.3989C68.1513 18.7656 67.8284 18.2788 67.1617 18.1362C66.4665 17.9886 65.8668 18.1638 65.4293 18.7645C65.0916 19.2309 64.9562 19.7619 64.9562 20.3316V24.5446H63.8367V17.3222H64.9441V18.3335C65.5274 17.5637 66.2385 17.0951 67.2067 17.1073C68.1968 17.1216 68.887 17.5952 69.2757 18.5633C69.4413 18.3456 69.5734 18.1544 69.722 17.9776C70.4966 17.0575 72.0026 16.8078 73.0169 17.4405C73.6928 17.8604 73.9494 18.5418 74.0048 19.2861C74.0728 20.1443 74.0651 21.008 74.0728 21.8701C74.0832 22.7559 74.0728 23.6367 74.0728 24.5435H72.9478C72.9406 24.4032 72.928 24.2711 72.928 24.1412C72.928 22.8924 72.9357 21.6435 72.922 20.3935C72.9199 20.0197 72.8814 19.6469 72.8069 19.2806C72.5602 18.1091 71.2016 17.6726 70.3058 18.4722C69.7313 18.9872 69.5016 19.6625 69.4944 20.4195C69.4873 21.6573 69.4944 22.894 69.4944 24.1318C69.4944 24.5662 69.4944 24.5662 69.0487 24.5662L68.3569 24.5695ZM62.079 11.1088C60.1021 11.1017 58.7304 9.82682 58.6169 7.83804C58.578 7.26334 58.618 6.68588 58.7359 6.12168C59.084 4.5711 60.2424 3.59079 61.8241 3.50791C62.3952 3.47452 62.968 3.53518 63.5198 3.6875C64.6343 4.01021 65.2533 4.859 65.5384 5.9559C65.7568 6.79459 65.7593 7.6756 65.5455 8.51552C65.1365 10.1506 63.8421 11.1144 62.079 11.1088ZM64.5444 7.38104C64.5017 6.99754 64.4847 6.66764 64.4255 6.34603C64.233 5.29997 63.5214 4.59044 62.5845 4.48766C61.3395 4.35172 60.4332 4.82363 60.0111 5.88682C59.6418 6.78916 59.6367 7.80118 59.9968 8.70727C60.3625 9.65331 61.255 10.1993 62.2698 10.1418C63.3909 10.0783 64.0883 9.53671 64.3701 8.46744C64.4671 8.0972 64.4929 7.71039 64.5444 7.38104ZM75.3123 11.1077C73.2679 11.1022 71.8606 9.68757 71.8184 7.59711C71.8053 6.92294 71.8612 6.25872 72.1112 5.62711C72.7778 3.94169 74.303 3.28742 76.0733 3.52283C77.7245 3.74221 78.7717 4.90431 78.8736 6.59304C78.9109 7.21858 78.9082 7.8723 78.7733 8.47905C78.4005 10.1506 77.0875 11.1133 75.3123 11.1077ZM77.7821 7.37607C77.7432 7.01301 77.724 6.70743 77.6752 6.40626C77.5009 5.33755 76.7734 4.59265 75.815 4.4871C74.5755 4.35061 73.6517 4.84021 73.2466 5.89069C72.8907 6.78586 72.8819 7.7832 73.2219 8.68461C73.5722 9.63839 74.4943 10.2054 75.5135 10.1418C76.6511 10.0738 77.3556 9.51019 77.6204 8.42876C77.7065 8.06847 77.7344 7.6927 77.7821 7.37607ZM61.9749 24.5474H60.8559V23.4262C60.7304 23.5859 60.6531 23.6748 60.5851 23.7671C59.7397 24.9668 58.0347 24.9254 57.1816 24.375C56.4552 23.9058 56.2453 23.1996 56.3028 22.3724C56.3604 21.5451 56.7403 20.8793 57.5155 20.6063C58.2282 20.3549 58.9963 20.2598 59.7463 20.1117C60.0972 20.0432 60.4546 20.0056 60.8038 19.9553C61.0023 18.8866 60.3532 18.0953 59.3022 18.0931C58.4557 18.0931 57.7238 18.3998 57.004 18.9557C57.004 18.5578 56.9952 18.2147 57.0111 17.8732C57.015 17.8052 57.1027 17.7146 57.1729 17.682C58.2057 17.2045 59.2682 16.9221 60.4091 17.2288C61.3554 17.4847 61.9354 18.2124 61.9639 19.3309C62.0088 21.0561 61.9749 22.7802 61.9749 24.5474ZM60.8258 20.8384C59.9469 21.0064 59.0796 21.1329 58.2364 21.3445C57.6953 21.481 57.453 21.9281 57.4569 22.5227C57.4517 22.7689 57.5243 23.0105 57.6642 23.2124C57.8042 23.4144 58.0042 23.5662 58.2354 23.6461C58.8614 23.8727 59.4618 23.7909 59.9979 23.3963C60.8433 22.773 60.9173 21.8756 60.8252 20.8384H60.8258ZM41.415 17.2996C41.8207 17.2996 42.1715 17.2819 42.5169 17.3106C42.6085 17.3183 42.7307 17.4548 42.7664 17.5576C43.4336 19.4829 44.0892 21.4109 44.7482 23.3383C44.7614 23.3659 44.7773 23.3925 44.7954 23.4173C45.0339 22.7564 45.2685 22.1104 45.5004 21.4656C45.9735 20.1708 46.451 18.8728 46.9149 17.572C46.9861 17.3675 47.0755 17.2786 47.2959 17.2935C47.5755 17.3123 47.8573 17.2979 48.1928 17.2979C48.1045 17.5394 48.0338 17.7455 47.9543 17.9483C46.9308 20.5494 45.9264 23.1587 44.8672 25.7465C44.6225 26.3287 44.2886 26.8685 43.8776 27.3463C43.3031 28.0204 42.5098 28.1 41.665 27.9116V26.9246C41.7669 26.9379 41.8525 26.944 41.9352 26.9611C42.626 27.102 43.1633 26.8749 43.49 26.2372C43.74 25.7305 43.9632 25.2094 44.1578 24.6789C44.2016 24.564 44.1523 24.3943 44.103 24.27C43.2611 22.083 42.415 19.8977 41.5646 17.714C41.5208 17.5974 41.4813 17.4819 41.415 17.2996ZM55.0819 24.5678H54.1192C53.8785 24.5678 53.9394 24.3766 53.9388 24.244C53.935 22.9609 53.9388 21.6789 53.9323 20.3957C53.9273 20.09 53.8956 19.7852 53.8374 19.4851C53.7152 18.8275 53.3944 18.3036 52.7064 18.1467C51.9893 17.9831 51.3413 18.1561 50.8309 18.7186C50.3978 19.1955 50.2224 19.7724 50.2224 20.4051C50.2174 21.654 50.2224 22.9029 50.2224 24.1528V24.5474H49.1056V17.3322H50.2108V18.3865L50.2783 18.4191C50.3419 18.3379 50.406 18.2589 50.468 18.1771C50.8119 17.7146 51.2931 17.3747 51.8416 17.2064C52.3902 17.0382 52.9777 17.0505 53.5189 17.2415C54.4816 17.5753 54.8895 18.35 55.0024 19.2906C55.0825 19.9631 55.0698 20.6483 55.0753 21.3285C55.0896 22.3934 55.0819 23.4582 55.0819 24.5678ZM84.7299 23.0764C85.4738 23.6179 86.2112 23.8605 87.0506 23.7262C87.5802 23.6417 87.8795 23.4019 87.9689 22.9642C88.067 22.4873 87.9162 22.137 87.4469 21.8579C87.1087 21.6568 86.749 21.4921 86.3993 21.3125C86.1893 21.2042 85.9771 21.0992 85.7704 20.9843C85.0479 20.5814 84.7222 19.962 84.7562 19.1309C84.7929 18.3318 85.2058 17.7903 85.8801 17.4388C86.7775 16.9713 87.7052 17.0211 88.6273 17.3631C88.6761 17.3905 88.7179 17.429 88.7494 17.4755C88.7809 17.5221 88.8012 17.5753 88.8088 17.6311C88.8334 17.924 88.8175 18.2196 88.8175 18.5208C88.4798 18.397 88.1662 18.2202 87.8356 18.1765C87.4276 18.1181 87.0128 18.1283 86.6081 18.2069C86.2085 18.2898 85.9568 18.6158 85.9212 19.0413C85.8867 19.4541 86.0259 19.8094 86.3998 20.0222C86.7024 20.1935 87.021 20.3388 87.3318 20.4991C87.6125 20.6428 87.8987 20.7754 88.1701 20.934C88.9085 21.3639 89.2408 22.0115 89.1492 22.8692C89.062 23.687 88.5785 24.223 87.8482 24.5043C86.8844 24.8767 85.9064 24.8314 84.9585 24.417C84.8516 24.37 84.7518 24.1921 84.7381 24.065C84.7085 23.7622 84.7299 23.456 84.7299 23.0769V23.0764ZM66.6135 9.45548C67.3618 9.9915 68.1008 10.2346 68.9391 10.0981C69.4429 10.0164 69.762 9.76493 69.8448 9.36099C69.9451 8.87305 69.8015 8.52104 69.3448 8.24364C69.0065 8.03918 68.6496 7.8734 68.3004 7.69215C68.1299 7.60429 67.9577 7.52195 67.7872 7.43519C66.9084 6.9898 66.5214 6.27033 66.6617 5.29002C66.7916 4.38543 67.3903 3.88643 68.2028 3.62395C68.9566 3.38081 69.7115 3.44325 70.4566 3.70021C70.6452 3.76818 70.7225 3.86985 70.7088 4.07487C70.6912 4.3473 70.705 4.62028 70.705 4.84408C70.2263 4.71975 69.7587 4.56502 69.285 4.486C69.0175 4.45401 68.7462 4.4829 68.4912 4.57054C68.0975 4.69267 67.8426 4.98389 67.807 5.4127C67.7724 5.82604 67.91 6.1797 68.2856 6.39134C68.5986 6.56817 68.9265 6.71793 69.2466 6.88205C69.5273 7.02572 69.8141 7.15448 70.0843 7.3197C70.7905 7.74244 71.115 8.37295 71.0383 9.20129C70.9648 9.9915 70.5268 10.5314 69.8283 10.8309C68.8377 11.2553 67.8306 11.2111 66.847 10.7883C66.7401 10.7419 66.6403 10.5634 66.6266 10.4363C66.5921 10.1368 66.6135 9.8318 66.6135 9.45548ZM83.8637 23.1648C83.8637 23.5113 83.8785 23.8047 83.8538 24.0948C83.8412 24.1463 83.8177 24.1944 83.7849 24.2358C83.752 24.2772 83.7106 24.3109 83.6636 24.3346C81.7875 25.2586 78.8835 24.7126 78.491 21.7043C78.304 20.2731 78.5781 18.943 79.719 17.9671C80.9021 16.9558 82.2711 16.8951 83.6882 17.3968C83.7754 17.4278 83.8615 17.5864 83.8703 17.6919C83.8955 17.9848 83.879 18.281 83.879 18.6368C83.7551 18.5683 83.6647 18.5191 83.5748 18.4688C81.7173 17.4228 79.6708 18.6092 79.6181 20.7566C79.6012 21.4495 79.6746 22.1193 80.0546 22.715C80.6998 23.7301 82.077 24.0611 83.2688 23.4886C83.4503 23.4019 83.6241 23.2969 83.8637 23.1648ZM53.3084 4.99217C53.1055 4.88994 52.9526 4.80429 52.793 4.7319C51.0233 3.92511 49.2185 4.98941 49.0815 6.94228C49.0429 7.40515 49.0762 7.87125 49.1802 8.32377C49.5656 9.85777 51.0946 10.5513 52.6006 9.90971C52.8144 9.81798 53.0173 9.69917 53.2766 9.56876C53.2766 9.90971 53.2985 10.2098 53.2634 10.5065C53.2524 10.6021 53.1066 10.7182 52.9981 10.7624C51.7136 11.289 50.4345 11.3122 49.2745 10.4723C48.1144 9.63231 47.7953 8.38455 47.9022 7.00804C47.9976 5.78128 48.4653 4.73301 49.5294 4.06105C50.6516 3.35373 51.8594 3.31173 53.0913 3.75547C53.179 3.78697 53.2941 3.89141 53.2996 3.97319C53.3215 4.29591 53.3084 4.62194 53.3084 4.99217ZM55.8253 10.9248H54.7031C54.6954 10.7889 54.6811 10.6717 54.6811 10.5524C54.6811 8.38621 54.6872 6.22004 54.6724 4.05387C54.6724 3.72784 54.7809 3.63998 55.0781 3.66705C55.3111 3.6875 55.5463 3.67092 55.8149 3.67092V5.01373L55.8823 5.03141C55.9426 4.90873 56.0013 4.7855 56.0643 4.66449C56.5002 3.81625 57.1657 3.45817 58.1076 3.54824C58.3253 3.56869 58.436 3.63721 58.4228 3.8787C58.4069 4.15941 58.4228 4.44234 58.4228 4.7413C58.1981 4.69267 58.0062 4.64128 57.8143 4.61088C57.18 4.51529 56.6932 4.76672 56.3385 5.2856C55.9837 5.80504 55.8401 6.39632 55.8368 7.02075C55.8302 8.18893 55.8368 9.35712 55.8368 10.5253L55.8253 10.9254V10.9248ZM45.331 3.67203C45.6451 3.67203 45.9395 3.65655 46.2257 3.68197C46.3052 3.6886 46.4395 3.81791 46.4395 3.88643C46.4489 6.19849 46.4439 8.51165 46.4395 10.8254C46.4327 10.8563 46.4222 10.8864 46.4083 10.9149H45.3266L45.331 3.67203ZM76.985 17.2979V24.5667C76.6615 24.5667 76.3485 24.5794 76.0387 24.5557C75.9795 24.5513 75.8907 24.4087 75.8836 24.3236C75.8616 24.0871 75.8754 23.8467 75.8754 23.6091C75.8754 21.6452 75.8858 19.6818 75.8655 17.7179C75.8655 17.3576 75.9724 17.2565 76.3035 17.2935C76.5305 17.3073 76.758 17.3084 76.985 17.2979ZM45.1643 1.2489C45.1653 1.1505 45.1855 1.05325 45.2238 0.962716C45.262 0.872179 45.3176 0.790124 45.3873 0.721236C45.457 0.652349 45.5395 0.597977 45.6301 0.561225C45.7207 0.524473 45.8175 0.506062 45.9151 0.507041C46.0128 0.508021 46.1092 0.528373 46.1991 0.566935C46.2889 0.605496 46.3703 0.661513 46.4386 0.731787C46.507 0.80206 46.5609 0.885214 46.5974 0.9765C46.6339 1.06779 46.6521 1.16542 46.6511 1.26382C46.6518 1.36342 46.6325 1.46214 46.5946 1.55413C46.5567 1.64611 46.5009 1.72951 46.4305 1.79937C46.3601 1.86923 46.2764 1.92415 46.1846 1.96086C46.0927 1.99758 45.9945 2.01536 45.8957 2.01314C45.4648 2.00651 45.16 1.68876 45.1643 1.2489ZM77.207 14.867C77.2103 14.9662 77.194 15.065 77.1589 15.1578C77.1239 15.2505 77.0709 15.3353 77.003 15.4071C76.9352 15.479 76.8538 15.5365 76.7636 15.5763C76.6734 15.6161 76.5763 15.6375 76.4779 15.639C76.3691 15.638 76.2618 15.613 76.1636 15.5658C76.0653 15.5187 75.9785 15.4505 75.9091 15.366C75.8397 15.2816 75.7894 15.1829 75.7618 15.0768C75.7342 14.9707 75.7298 14.8598 75.7491 14.7519C75.7683 14.644 75.8107 14.5416 75.8733 14.4519C75.9359 14.3621 76.0171 14.2873 76.1113 14.2324C76.2056 14.1776 76.3106 14.1442 76.4189 14.1345C76.5273 14.1248 76.6365 14.1391 76.7388 14.1763C76.8315 14.2106 76.9161 14.2639 76.9873 14.3329C77.0584 14.4018 77.1146 14.4849 77.1522 14.5769C77.19 14.6687 77.2087 14.7676 77.207 14.867Z" fill="#e4002b"/>
</svg>
