<svg width="71" height="19" viewBox="0 0 71 19" fill="none" xmlns="http://www.w3.org/2000/svg">
<path d="M6.29959 0C4.98966 0 3.41774 1.28774 2.14353 3.45018C0.785961 5.70981 0 8.47968 0 10.8972C0 14.4446 1.94108 18.0041 6.29959 18.0041C10.6581 18.0041 12.5992 14.4446 12.5992 10.8972C12.5992 8.47968 11.8132 5.69766 10.4557 3.46233C9.18145 1.28774 7.60953 0 6.29959 0ZM40.3222 5.29676H44.7283V17.0201H49.456V5.29676H53.8621V0.959733H40.3222V5.29676ZM63.9605 5.29676H70.8913V0.959733H63.9605C57.5895 0.959733 54.1956 4.19124 54.1956 9.00206C54.1956 13.8129 57.6014 17.0444 63.9605 17.0444H70.8913V12.6952H63.9605C61.0072 12.6952 59.0899 11.614 59.0899 9.00206C59.0899 6.39013 61.0072 5.29676 63.9605 5.29676ZM30.712 0.971883L28.1874 10.5692L25.6628 0.971883H17.3149V17.0565H22.0426V3.96042L25.4842 17.0322H30.9025L34.3441 3.94827V17.0322H39.0718V0.971883H30.712Z" fill="#141414"/>
</svg>
