<svg width="44" height="32" viewBox="0 0 44 32" fill="none" xmlns="http://www.w3.org/2000/svg">
<path fill-rule="evenodd" clip-rule="evenodd" d="M36.9556 0C38.3543 0.426616 39.7297 0.693476 40.9876 1.30714C41.7768 1.69207 42.4417 2.21152 42.8658 2.98282C43.2756 3.72789 43.241 4.45613 42.7528 5.15777C42.3669 5.7123 41.8348 6.10378 41.2453 6.43195C39.9969 7.1271 38.7431 7.81448 37.5681 8.62602C37.0984 8.95046 36.6317 9.28268 36.2835 9.73932C36.2056 9.84157 36.1447 9.82886 36.046 9.78686C35.011 9.34679 33.9498 8.97438 32.872 8.6378C32.8961 8.50353 33.0204 8.52708 33.0969 8.49848C35.1561 7.72899 37.2092 6.94691 39.1315 5.87847C39.5117 5.66713 39.8733 5.42986 40.2075 5.15335C41.185 4.34473 40.5901 3.21971 39.7891 2.87341C39.6041 2.79341 39.4318 2.7911 39.25 2.91977C35.0998 5.85629 30.4297 7.52805 25.3862 8.25006C19.3716 9.11108 13.4349 8.72927 7.59726 7.05676C5.65954 6.50167 3.78863 5.78402 2.08896 4.6962C1.63866 4.40797 1.21695 4.08428 0.855469 3.68751C1.56705 4.10092 2.29105 4.4871 3.04467 4.81901C5.23592 5.78402 7.5387 6.37867 9.90759 6.72815C16.5547 7.70868 23.1117 7.2468 29.5738 5.47921C31.8258 4.86324 33.9932 4.02702 36.0284 2.8888C36.3153 2.72836 36.5963 2.55938 36.8386 2.33751C37.5024 1.72964 37.6022 1.05305 37.1422 0.290288C37.0939 0.210348 37.0413 0.133025 36.9556 0Z" fill="#141414"/>
<path fill-rule="evenodd" clip-rule="evenodd" d="M0.855469 18.1211C12.2167 7.74308 31.1398 7.52026 42.7707 17.6704C42.7082 17.7168 42.6725 17.6568 42.6368 17.6312C38.0713 14.3569 32.9771 12.4473 27.3814 11.8572C21.4532 11.2321 15.7618 12.1135 10.3302 14.5704C8.31121 15.4836 6.41726 16.6075 4.64975 17.9382C4.48035 18.0657 4.31369 18.1275 4.0978 18.1255C3.03522 18.1159 1.97258 18.1211 0.855469 18.1211Z" fill="#141414"/>
<path fill-rule="evenodd" clip-rule="evenodd" d="M26.1539 31.3421C25.0682 31.1152 24.1415 30.6081 23.274 30.0004C21.5381 28.7843 20.2456 27.2224 19.2779 25.4178C19.1614 25.2005 19.0405 25.1128 18.7716 25.1213C17.9612 25.1467 17.9557 25.1341 17.9744 25.9083C17.9925 26.6564 18.0153 27.4045 18.0517 28.1518C18.0614 28.3495 18.0081 28.4147 17.7915 28.4061C17.3929 28.3903 16.9925 28.3892 16.594 28.4062C16.3692 28.4157 16.329 28.338 16.3387 28.1465C16.425 26.4491 16.4535 24.7506 16.4075 23.0515C16.3925 22.4957 16.3646 21.94 16.3424 21.3843C16.338 21.2761 16.2968 21.1554 16.4959 21.1602C17.8649 21.1927 19.2392 21.0699 20.6025 21.235C21.4283 21.335 22.1263 21.6687 22.351 22.5056C22.6646 23.674 22.0277 24.7095 21.0306 24.9396C20.8591 24.9792 20.903 25.0513 20.9566 25.1525C21.7416 26.6351 22.6885 28.0167 23.8564 29.2622C24.5619 30.0147 25.3351 30.7003 26.1539 31.3421ZM18.0092 22.2911C18.0134 22.5943 17.9633 23.7871 17.9635 24.0803C17.9637 24.1714 17.9503 24.269 18.1016 24.2646C18.7034 24.2469 19.3129 24.3241 19.9026 24.1514C20.5161 23.9717 20.7655 23.5782 20.6879 22.9308C20.6267 22.4212 20.2577 22.1024 19.6502 22.0772C19.1764 22.0576 18.7007 22.0825 18.2262 22.0736C18.0454 22.0703 18.0071 22.1476 18.0092 22.2911Z" fill="#141414"/>
<path fill-rule="evenodd" clip-rule="evenodd" d="M14.8283 24.7192C14.8145 25.4152 14.7613 26.0661 14.5683 26.6985C14.2128 27.8632 13.4437 28.4819 12.3127 28.6356C11.6221 28.7296 10.9344 28.7252 10.2503 28.5775C9.26829 28.3653 8.61573 27.7468 8.32024 26.7453C7.94458 25.4718 7.94284 24.1778 8.27035 22.8929C8.56855 21.7229 9.30078 21.0411 10.4388 20.8546C11.1579 20.7368 11.8778 20.7346 12.5913 20.8836C13.6752 21.1099 14.3251 21.8297 14.6184 22.9353C14.7765 23.5312 14.8186 24.1425 14.8283 24.7192ZM13.2517 24.7652C13.2486 24.14 13.2341 23.5158 13.0491 22.9132C12.8712 22.3334 12.5184 21.9371 11.9344 21.846C10.5545 21.6306 9.97478 22.1513 9.77137 23.1148C9.54189 24.2019 9.53672 25.3018 9.78268 26.3868C9.99308 27.3143 10.5113 27.6821 11.4891 27.6702C12.3948 27.6591 12.904 27.242 13.1098 26.341C13.2281 25.8231 13.2517 25.2952 13.2517 24.7652Z" fill="#141414"/>
<path fill-rule="evenodd" clip-rule="evenodd" d="M5.80924 26.4327C5.91327 24.7763 5.91081 23.1488 5.80804 21.5234C5.78936 21.2281 5.86798 21.1612 6.15659 21.1693C6.90488 21.1905 6.90596 21.1759 6.87118 21.911C6.77544 23.9367 6.79226 25.9622 6.89575 27.9869C6.90872 28.2405 6.84367 28.3117 6.59254 28.296C6.2041 28.2717 5.76046 28.3952 5.43858 28.2464C5.11471 28.0966 4.99398 27.6363 4.78669 27.3109C3.90536 25.9269 3.01628 24.548 2.07915 23.2004C2.03627 23.1387 1.99068 23.0789 1.87517 23.0328C1.87517 23.6826 1.86508 24.3326 1.87751 24.9822C1.89698 25.995 1.92298 27.0079 1.96641 28.0198C1.97644 28.253 1.91115 28.3201 1.69035 28.2931C1.42637 28.2609 1.07 28.4094 0.920201 28.2294C0.793945 28.0778 0.889328 27.7375 0.90044 27.4812C0.986813 25.4853 0.989876 23.4894 0.876294 21.4947C0.860917 21.2258 0.931793 21.1385 1.19656 21.1731C1.35387 21.1936 1.52157 21.2031 1.67528 21.172C2.2349 21.0589 2.52309 21.3319 2.79657 21.7889C3.66937 23.2476 4.59317 24.6759 5.56039 26.0756C5.64292 26.1949 5.72629 26.3137 5.80924 26.4327Z" fill="#141414"/>
<path fill-rule="evenodd" clip-rule="evenodd" d="M42.9708 22.3037C42.2455 21.964 41.5247 21.8034 40.7735 21.8243C40.5667 21.83 40.3574 21.849 40.1546 21.8913C39.5215 22.0235 39.0682 22.4043 38.8779 23.0788C38.5961 24.0771 38.5472 25.0922 38.8252 26.0999C39.0796 27.0224 39.7043 27.5227 40.597 27.5659C40.8834 27.5798 41.1704 27.585 41.4572 27.5833C41.6542 27.5821 41.7493 27.4947 41.7428 27.2496C41.7234 26.5252 41.7108 25.8006 41.6041 25.084C41.5755 24.8916 41.5884 24.815 41.7931 24.823C42.1883 24.8384 42.5844 24.829 42.9801 24.8266C43.0951 24.8259 43.163 24.8409 43.1442 25.0028C43.0185 26.0843 43.0391 27.1716 43.0619 28.2577C43.0666 28.4786 43.0155 28.5532 42.803 28.5433C42.2575 28.518 41.7201 28.6423 41.1773 28.6754C40.6431 28.708 40.1093 28.7206 39.5798 28.6156C38.4291 28.387 37.6782 27.664 37.3438 26.4639C37.0386 25.3684 37.0292 24.2532 37.3003 23.1505C37.6589 21.6922 38.5627 20.942 40.0986 20.8019C40.9891 20.7205 41.8777 20.8047 42.7652 20.8886C42.9052 20.9018 42.9791 20.9388 42.9741 21.1138C42.9632 21.4962 42.9708 21.8792 42.9708 22.3037Z" fill="#141414"/>
<path fill-rule="evenodd" clip-rule="evenodd" d="M31.155 24.7201C31.1703 23.6187 31.1284 22.5185 31.0706 21.4189C31.0598 21.2134 31.1041 21.1452 31.3379 21.1466C32.9604 21.1559 34.583 21.1557 36.2056 21.1465C36.432 21.1452 36.4907 21.206 36.4889 21.414C36.4834 22.0553 36.493 22.0565 35.8113 22.0515C34.8827 22.0447 33.9537 22.0444 33.0255 22.0223C32.7826 22.0165 32.7149 22.0828 32.717 22.3045C32.7212 22.7444 32.705 23.1853 32.675 23.6245C32.6606 23.8351 32.7492 23.8689 32.9475 23.868C33.8869 23.8637 34.8267 23.8715 35.7641 23.809C36.0173 23.7921 36.1169 23.8375 36.1085 24.1033C36.0892 24.71 36.1051 24.7145 35.4584 24.6944C34.626 24.6685 33.7939 24.6537 32.961 24.6621C32.7523 24.6642 32.6593 24.6998 32.6689 24.9241C32.701 25.6839 32.7177 26.4445 32.7235 27.205C32.7251 27.4193 32.8058 27.4668 33.0221 27.4622C34.1533 27.4378 35.285 27.4363 36.416 27.4072C36.6763 27.4005 36.7349 27.4739 36.7304 27.7046C36.7182 28.3151 36.7295 28.3154 36.0823 28.3154C34.5132 28.3155 32.9439 28.3098 31.3748 28.3211C31.1187 28.3229 31.0554 28.2581 31.0679 28.0214C31.1259 26.9219 31.167 25.8215 31.155 24.7201Z" fill="#141414"/>
<path fill-rule="evenodd" clip-rule="evenodd" d="M26.4394 26.9555C26.8038 25.8694 27.1731 24.7848 27.5307 23.6966C27.777 22.9474 28.0122 22.1947 28.2405 21.4403C28.2941 21.2633 28.3637 21.1718 28.5783 21.1886C28.8385 21.209 29.102 21.2022 29.3634 21.1911C29.5585 21.1828 29.5915 21.229 29.5207 21.4076C29.1633 22.3093 28.816 23.2147 28.472 24.1213C27.9755 25.4299 27.4965 26.7445 27.0885 28.0809C27.0303 28.2712 26.9384 28.3268 26.7386 28.3184C26.3726 28.3031 26.0045 28.2985 25.6392 28.3197C25.3947 28.3339 25.2983 28.2427 25.2242 28.0314C24.4869 25.93 23.7294 23.8352 22.8971 21.7655C22.6672 21.1937 22.6682 21.1868 23.3157 21.1959C23.7001 21.2013 24.1808 21.0476 24.4414 21.2567C24.6846 21.4518 24.7004 21.9043 24.8121 22.2447C25.3282 23.8181 25.843 25.3919 26.3583 26.9656C26.3853 26.9622 26.4124 26.9589 26.4394 26.9555Z" fill="#141414"/>
</svg>
