<svg width="54" height="28" viewBox="0 0 54 28" fill="none" xmlns="http://www.w3.org/2000/svg">
<path fill-rule="evenodd" clip-rule="evenodd" d="M0 27.3823H27.0409L53.4848 0.639587H0V27.3823Z" fill="#141414"/>
<path fill-rule="evenodd" clip-rule="evenodd" d="M31.7475 5.65924H26.4769V18.3051L21.8852 5.65924H17.3245L13.4087 16.2515C12.99 13.5792 10.2668 12.6667 8.10695 11.9822C6.68882 11.5256 5.19055 10.8411 5.20608 10.0919C5.22285 9.47261 6.01236 8.90238 7.59138 8.9999C8.63868 9.04898 9.57292 9.1465 11.4426 10.0429L13.2801 6.81586C11.5719 5.95243 9.235 5.39835 7.31744 5.39835H7.30129C5.06135 5.39835 3.19224 6.13133 2.03189 7.33765C1.2324 8.17117 0.782499 9.27925 0.774637 10.4342C0.742957 12.0635 1.33866 13.2208 2.57976 14.1494C3.62706 14.9321 4.96507 15.4371 6.15772 15.8117C7.62368 16.2682 8.81633 16.659 8.80018 17.523C8.80018 17.8324 8.67098 18.1255 8.46164 18.3541C8.0908 18.7287 7.54293 18.8759 6.76957 18.8914C5.27068 18.9244 4.17493 18.6803 2.40273 17.6367L0.775258 20.896C2.53131 21.9066 4.61038 22.5098 6.73727 22.5098H7.01121C8.84801 22.4769 10.3469 21.9389 11.5396 20.9773C11.6042 20.9289 11.6681 20.8637 11.7327 20.8146L11.201 22.2327H15.9871L16.7928 19.7717C17.6314 20.0487 18.5818 20.2114 19.5968 20.2114C20.5262 20.2107 21.45 20.0679 22.3361 19.7878L23.1095 22.2327H30.9089V17.0987H32.601C36.7107 17.0987 39.1438 14.9805 39.1438 11.4274C39.1438 7.48362 36.7753 5.65862 31.7475 5.65862V5.65924ZM19.58 16.4962C18.9675 16.4962 18.3874 16.3819 17.8879 16.1862L19.5639 10.8578H19.5962L21.2398 16.203C20.7404 16.3981 20.1925 16.4962 19.58 16.4962ZM32.0531 13.4326H30.8934V9.1465H32.0531C33.5999 9.1465 34.8248 9.66828 34.8248 11.2647C34.8416 12.927 33.6005 13.4326 32.0531 13.4326Z" fill="white"/>
<path d="M33.5495 25.6387C33.5495 24.8237 34.162 24.2044 34.9515 24.2044C35.7248 24.2044 36.3373 24.8237 36.3373 25.6387C36.3373 26.486 35.7248 27.1046 34.9515 27.1046C34.162 27.1046 33.5495 26.486 33.5495 25.6387ZM34.9515 27.3823C35.8863 27.3823 36.6758 26.6493 36.6758 25.6387C36.6758 24.6448 35.8702 23.9112 34.9515 23.9112C34.0011 23.9112 33.2109 24.6442 33.2109 25.6381C33.2109 26.6487 34.0004 27.3823 34.9515 27.3823ZM34.5806 25.7853H34.9192L35.4509 26.6487H35.7894L35.2254 25.7691C35.5155 25.7362 35.741 25.5735 35.741 25.2144C35.741 24.8231 35.5155 24.6442 35.0484 24.6442H34.3067V26.6487H34.5968V25.7853H34.5806ZM34.5806 25.5244V24.9051H34.9838C35.1931 24.9051 35.4024 24.9541 35.4024 25.1983C35.4024 25.5082 35.1769 25.5244 34.9353 25.5244H34.5812H34.5806Z" fill="#141414"/>
</svg>
