<svg width="117" height="29" viewBox="0 0 117 29" fill="none" xmlns="http://www.w3.org/2000/svg">
<path d="M15.1348 28.9024C23.116 28.9024 29.586 22.4324 29.586 14.4512C29.586 6.47003 23.116 0 15.1348 0C7.15362 0 0.683594 6.47003 0.683594 14.4512C0.683594 22.4324 7.15362 28.9024 15.1348 28.9024Z" fill="#e4002b"/>
<path d="M21.4528 5.3471C19.9851 5.39858 18.7027 6.20783 17.7499 7.32699C16.693 8.55425 15.9908 10.0106 15.4843 11.4963C14.5787 10.754 13.8802 9.79335 12.4274 9.37431C11.3036 9.05154 10.1248 9.18436 9.04011 9.99258C8.52584 10.3766 8.17218 10.9568 8.00384 11.5019C7.5673 12.9197 8.46149 14.1814 8.86817 14.635L9.75619 15.5853C9.93945 15.7721 10.3796 16.2591 10.1649 16.9567C9.93173 17.716 9.01746 18.2066 8.079 17.9178C7.65996 17.7881 7.05765 17.4766 7.19304 17.038C7.24864 16.8578 7.37734 16.7224 7.44683 16.5685C7.51015 16.4347 7.54001 16.3348 7.55906 16.2761C7.73049 15.716 7.49625 14.9881 6.89704 14.8033C6.33746 14.6324 5.76604 14.7683 5.54417 15.4875C5.29192 16.3065 5.68367 17.7896 7.78042 18.4367C10.237 19.1919 12.3152 17.8534 12.6097 16.1093C12.7955 15.0169 12.3013 14.2046 11.3979 13.1601L10.6617 12.3462C10.2154 11.8999 10.0625 11.1406 10.5237 10.5573C10.9134 10.0646 11.4679 9.85461 12.3775 10.1012C13.7041 10.4605 14.2956 11.3815 15.282 12.1243C14.8748 13.4602 14.6081 14.8012 14.3677 16.0048L14.2199 16.9006C13.5142 20.5998 12.9762 22.6307 11.577 23.7967C11.2954 23.998 10.8918 24.2976 10.2849 24.3187C9.96622 24.329 9.86378 24.1097 9.85863 24.0139C9.85142 23.7905 10.0404 23.6881 10.1654 23.5877C10.3523 23.4853 10.6349 23.3164 10.6159 22.7754C10.5948 22.1339 10.0645 21.579 9.29854 21.6052C8.72352 21.6243 7.84889 22.1643 7.88183 23.1548C7.91581 24.1761 8.86817 24.9426 10.3044 24.8932C11.0725 24.868 12.7868 24.5555 14.4758 22.5473C16.4418 20.2446 16.9921 17.6053 17.406 15.6738L17.8672 13.1241C18.1241 13.1544 18.398 13.1755 18.6966 13.1822C21.1454 13.2347 22.3701 11.9658 22.3892 11.0433C22.401 10.4847 22.0226 9.93544 21.4924 9.94779C21.1135 9.9586 20.6368 10.2109 20.5225 10.7349C20.4108 11.2497 21.3019 11.714 20.6054 12.1655C20.1107 12.4862 19.2237 12.7117 17.9748 12.5284L18.2024 11.2729C18.6652 8.89247 19.2376 5.96434 21.4064 5.89381C21.5645 5.88557 22.1431 5.90102 22.1565 6.28299C22.1601 6.41066 22.1287 6.44361 21.9794 6.73601C21.8265 6.96355 21.7694 7.15762 21.776 7.38104C21.7977 7.9885 22.2594 8.38797 22.9281 8.36429C23.8223 8.33495 24.0797 7.46444 24.0653 7.01657C24.0283 5.96382 22.9194 5.29974 21.4528 5.3471Z" fill="white"/>
<path d="M88.3092 10.3854C91.6419 10.3854 93.8756 12.7931 93.8756 16.1238C93.8756 19.2625 91.5982 21.8616 88.3092 21.8616C85.0001 21.8616 82.7227 19.2625 82.7227 16.1238C82.7227 12.7931 84.9558 10.3854 88.3092 10.3854ZM88.3092 20.2308C90.6736 20.2308 91.7258 18.081 91.7258 16.1238C91.7258 14.0399 90.4579 12.0199 88.3092 12.0199C86.1388 12.0199 84.8704 14.0399 84.8704 16.1238C84.8704 18.081 85.9241 20.2308 88.3092 20.2308Z" fill="#e4002b"/>
<path d="M82.4416 11.4057V10.6433H79.5392V9.60137C79.5392 8.11826 79.7549 6.9991 81.4944 6.9991C81.5263 6.9991 81.5603 7.00219 81.5937 7.00373C81.5973 7.00373 81.5963 6.99807 81.6004 6.99807C82.0833 7.03308 82.4859 6.64029 82.5126 6.15742L82.5477 5.4954C82.1394 5.43053 81.7085 5.3667 81.1938 5.3667C78.2064 5.3667 77.5192 7.10772 77.5192 9.77331V10.6433H74.9375V11.4943C75.0039 11.9354 75.3818 12.2757 75.8425 12.2757C75.8446 12.2757 75.8471 12.2778 75.8497 12.2778H77.5192V21.6053H78.6311C78.6337 21.6053 78.6322 21.6053 78.6347 21.6053C79.098 21.6053 79.4759 21.2562 79.5387 20.812V12.2778H81.5598C82.0354 12.2618 82.4179 11.8814 82.4416 11.4057Z" fill="#e4002b"/>
<path d="M55.5372 10.6433C55.5341 10.6433 55.5316 10.6459 55.5264 10.6459C55.1012 10.6459 54.6888 10.9383 54.5087 11.3342L51.7293 19.7139H51.6861L48.9675 11.3383C48.7893 10.9404 48.3754 10.6454 47.9471 10.6454C47.942 10.6454 47.9404 10.6428 47.9363 10.6428H46.5273L50.2457 20.8738C50.3754 21.2398 50.6338 21.7989 50.6338 22.0341C50.6338 22.2503 50.0315 24.7419 48.2251 24.7419C48.1809 24.7419 48.1356 24.7368 48.0918 24.7337C47.6311 24.7085 47.2831 25.0302 47.2064 25.5259L47.1513 26.2255C47.5168 26.2899 47.8833 26.3764 48.5278 26.3764C51.1924 26.3764 51.9877 23.946 52.7409 21.8406L56.7804 10.6423H55.5372V10.6433Z" fill="#e4002b"/>
<path d="M42.6915 12.8698C41.0236 12.0163 39.1976 11.4361 39.1657 9.71876C39.1708 7.89486 40.847 7.41559 42.1381 7.41713C42.1443 7.4161 42.1494 7.4161 42.1525 7.4161C42.7136 7.4161 43.162 7.4717 43.6001 7.56797C43.6058 7.56797 43.6047 7.56076 43.6114 7.56076C44.0747 7.59474 44.4634 7.23284 44.5175 6.77673L44.5545 6.1142C43.7077 5.90416 42.8228 5.79657 42.0526 5.79657C39.2445 5.81407 37.159 7.22717 37.1523 9.92416C37.1554 12.2819 38.7441 13.1957 40.4542 14.0234C42.1304 14.8296 43.9656 15.4947 43.9816 17.4411C43.9723 19.471 42.013 20.219 40.6627 20.222C39.873 20.219 39.0159 20.0228 38.2931 19.7948C37.8406 19.7201 37.4695 20.1196 37.4103 20.6483L37.3495 21.2382C38.3425 21.559 39.3603 21.8395 40.3842 21.8395C40.3842 21.8395 40.3852 21.8395 40.3863 21.8395C40.3888 21.8395 40.3924 21.8395 40.3955 21.8395C43.5419 21.8164 45.9872 20.5618 45.997 17.3037C45.9934 14.7905 44.3929 13.7346 42.6915 12.8698Z" fill="#e4002b"/>
<path d="M73.2475 21.6052C73.249 21.6052 73.249 21.6052 73.25 21.6052C73.6861 21.6052 74.05 21.2984 74.1411 20.8902V14.5768C74.1411 12.1907 73.1332 10.3849 70.3373 10.3849C69.3489 10.3849 67.6944 10.9449 66.9418 12.5135C66.3621 11.0304 65.0937 10.3849 63.8268 10.3849C62.2139 10.3849 61.1174 10.965 60.3442 12.234H60.301V11.5524C60.2948 11.0505 59.8886 10.6453 59.3862 10.6453C59.3816 10.6453 59.3795 10.6428 59.3764 10.6428H58.4102V21.6047H59.5036C59.5051 21.6047 59.5051 21.6047 59.5061 21.6047C60.0127 21.6047 60.4225 21.1934 60.4225 20.6879C60.4225 20.674 60.4271 20.6688 60.4317 20.6596V16.0805C60.4317 14.0394 61.2477 12.0193 63.3105 12.0193C64.9429 12.0193 65.2677 13.7166 65.2677 15.071V21.6042H66.376C66.3771 21.6042 66.3771 21.6042 66.3791 21.6042C66.8579 21.6042 67.2434 21.2361 67.2862 20.7687V16.0805C67.2862 14.0394 68.1037 12.0193 70.1664 12.0193C71.7999 12.0193 72.1226 13.7166 72.1226 15.071V21.6042H73.2475V21.6052Z" fill="#e4002b"/>
<path d="M104.471 21.6052C104.472 21.6052 104.472 21.6052 104.474 21.6052C104.966 21.6052 105.363 21.2161 105.386 20.7286V15.0926C105.386 12.1485 104.117 10.3849 101.28 10.3849C99.7541 10.3849 98.2937 11.138 97.6903 12.3853H97.6481V11.5663C97.6481 11.5653 97.6461 11.5653 97.6461 11.5632C97.6461 11.0551 97.2348 10.6453 96.7303 10.6453C96.7246 10.6453 96.7236 10.6428 96.72 10.6428H95.6914V21.6047H96.8018C96.8018 21.6047 96.8018 21.6047 96.8039 21.6047C97.2847 21.6047 97.6744 21.2305 97.7114 20.7589V16.532C97.7114 13.8674 98.7441 12.0193 101.044 12.0193C102.808 12.1259 103.364 13.3717 103.364 15.9302V21.6042H104.471V21.6052Z" fill="#e4002b"/>
<path d="M115.343 10.6433C115.338 10.6433 115.336 10.6459 115.332 10.6459C114.906 10.6459 114.493 10.9383 114.313 11.3342L111.535 19.7139H111.49L108.771 11.3383C108.592 10.9404 108.179 10.6454 107.751 10.6454C107.747 10.6454 107.745 10.6428 107.741 10.6428H106.332L110.051 20.8738C110.18 21.2398 110.44 21.7989 110.44 22.0341C110.44 22.2503 109.837 24.7419 108.03 24.7419C107.986 24.7419 107.942 24.7368 107.896 24.7337C107.436 24.7085 107.089 25.0302 107.01 25.5259L106.956 26.2255C107.321 26.2899 107.688 26.3764 108.333 26.3764C110.998 26.3764 111.792 23.946 112.546 21.8406L116.587 10.6423H115.343V10.6433Z" fill="#e4002b"/>
</svg>
