<svg width="103" height="14" viewBox="0 0 103 14" fill="none" xmlns="http://www.w3.org/2000/svg">
<path d="M10.9218 0.60093V8.22582C10.9218 11.8145 8.62901 13.6087 5.63865 13.6087C2.59753 13.6087 0.355469 11.8145 0.355469 8.22582V0.60093H2.99706V8.07682C2.99706 10.3198 4.09318 11.117 5.63865 11.117C7.18365 11.117 8.28024 10.27 8.28024 8.07682V0.60093H10.9218ZM24.1787 0.60093V13.4094H21.1385L15.8055 4.83688V13.4094H13.1639V0.60093H16.1547L21.5869 9.2223V0.60046H24.1787V0.60093ZM65.5953 0.60093V13.4094H62.5551L57.2221 4.83688V13.4094H54.5809V0.60093H57.5708L62.9038 9.22276V0.60046H65.5953V0.60093ZM26.8701 0.60093H29.5117V13.4094H26.8701V0.60093ZM42.0212 9.67118C42.0212 12.6615 39.3298 13.6585 37.137 13.6585C33.3989 13.6585 31.8539 11.5151 31.5549 9.32241H34.1965C34.5453 10.568 35.2926 11.2167 37.137 11.2167C38.6318 11.2167 39.3796 10.6681 39.3796 9.77083C39.3796 8.82418 38.4828 8.67424 36.2397 8.176C33.9474 7.67776 31.9037 6.93041 31.9037 4.43829C31.9037 1.74687 34.2962 0.400696 36.738 0.400696C40.1772 0.400696 41.6226 2.24511 41.9215 4.38847H39.2799C38.981 3.49117 38.3826 2.84346 36.7878 2.84346C35.2428 2.84346 34.5951 3.49117 34.5951 4.33817C34.5951 5.086 35.2428 5.28529 36.9378 5.63406C40.2769 6.33206 42.0212 7.07941 42.0212 9.67165V9.67118ZM46.4071 3.09211V5.68388H51.4909V8.176H46.4071V10.9172H52.3882V13.4094H43.7659V0.60093H52.3878V3.09211H46.4071ZM79.5003 7.02959C79.5003 10.6677 76.6594 13.4592 72.9715 13.4592H68.336V0.60046H72.9715C76.6594 0.60046 79.5003 3.3417 79.5003 7.02959ZM76.8587 7.02959C76.8587 4.73723 75.214 3.09258 72.9212 3.09258H70.9278V10.9172H72.9212C75.214 10.9671 76.8587 9.32241 76.8587 7.03006V7.02959ZM83.6869 3.09211V5.68388H88.7703V8.176H83.6869V10.9172H89.6676V13.4094H81.0453V0.60093H89.6676V3.09211H83.6869ZM95.8476 8.82418H94.4022V13.4587H91.7606V0.60093H97.2929C100.034 0.60093 101.678 2.24605 101.678 4.78752C101.678 6.88059 100.582 8.17647 98.7881 8.62488L102.376 13.4597H99.1369L95.8476 8.82465V8.82418ZM94.4022 6.53135H96.9935C98.3891 6.53135 98.9874 5.88364 98.9874 4.83688C98.9874 3.79011 98.3392 3.09258 96.9935 3.09258H94.4022V6.53135Z" fill="#141414"/>
</svg>
