<svg width="119" height="23" viewBox="0 0 119 23" fill="none" xmlns="http://www.w3.org/2000/svg">
<path d="M26.9329 16.6713H25.974V5.72116H20.3652V6.79119C20.3652 10.1262 20.245 14.0084 19.1424 16.6713H18.3991V20.6438H20.0779V18.2643H25.2549V20.6438H26.9337V16.6713H26.9329ZM35.0598 17.418L34.6288 15.9248C34.1486 16.2733 33.31 16.7711 32.2543 16.7711C30.7684 16.7711 30.0016 15.2779 30.0016 12.4406H35.0357V11.3713C35.0357 7.11622 33.7175 5.54766 31.7038 5.54766C29.1388 5.54766 28.0597 8.48386 28.0597 12.516C28.0597 16.3738 29.5948 18.4394 32.0872 18.4394C33.2858 18.4394 34.2923 18.0413 35.0591 17.4188L35.0598 17.418ZM15.4741 5.72116V11.0471H12.6943V5.72116H10.8242V18.2643H12.6943V12.64H15.4749V18.2643H17.32V5.72116H15.4749H15.4741ZM42.0124 18.2643H44.0496L40.6217 11.6194L43.6185 5.72116H41.7228L38.8227 11.5197V5.72116H36.9526V18.2643H38.8227V12.0175L42.0116 18.2643H42.0124ZM48.4363 18.4386C49.5397 18.4386 50.3064 18.0649 50.9537 17.4926L50.5227 16.0496C50.0909 16.4476 49.396 16.8205 48.4847 16.8205C46.9746 16.8205 46.2555 15.029 46.2555 11.8934C46.2555 8.73272 47.2143 7.16491 48.5566 7.16491C49.3234 7.16491 50.0425 7.58805 50.5454 8.03635L50.8101 6.19378C50.2822 5.84599 49.6591 5.54688 48.5808 5.54688C45.7518 5.54688 44.2893 8.06066 44.2893 11.9923C44.2893 16.2733 45.8471 18.4378 48.4363 18.4378V18.4386ZM24.1296 16.6721H20.9173C21.9238 14.0084 22.044 10.1514 22.044 7.51346V7.28898H24.1296V16.6713V16.6721ZM31.703 7.13981C32.7814 7.13981 33.1172 8.70755 33.1172 10.8477H30.0242C30.1453 8.60787 30.5521 7.13981 31.703 7.13981Z" fill="#141414"/>
<path d="M6.75276 11.4451V18.2643H8.59789V0.469788H5.84152C3.1328 0.469788 0.855107 2.33669 0.855107 6.06972C0.855107 8.7327 1.86237 10.1757 3.37251 10.9725L0.160156 18.2643H2.29341L5.21841 11.4451H6.75276ZM6.75276 9.85221H5.76969C4.1635 9.85221 2.84469 8.93129 2.84469 6.06972C2.84469 3.10842 4.28299 2.08782 5.76969 2.08782H6.75276V9.85221Z" fill="#141414"/>
<path fill-rule="evenodd" clip-rule="evenodd" d="M60.1804 6.29315C59.9407 5.37304 59.7494 4.57619 59.6057 3.75579H59.5339C59.5815 4.60131 59.6057 5.49709 59.6057 6.39285V18.8582H58.5508V1.06848H59.9407L62.8407 12.4387C62.9602 12.9113 63.1281 13.8322 63.1999 14.5035H63.2718C63.3677 13.8322 63.5602 12.8862 63.6792 12.4387L66.6035 1.06848H67.9461V18.8582H66.7947V6.39285C66.7947 5.54654 66.8434 4.65156 66.8909 3.75579H66.7947C66.6194 4.58065 66.4276 5.40175 66.2199 6.21856L63.6558 16.1215H62.7205L60.1804 6.29315ZM70.9584 12.7857H76.4242C76.8078 8.33119 75.4659 6.06626 73.3802 6.06626C71.3426 6.06626 69.8558 8.48036 69.8558 12.5871C69.8558 16.693 71.0306 19.1071 73.5954 19.1071C75.5133 19.1071 76.4236 17.6885 76.4236 17.6885L76.0647 16.7425C76.0647 16.7425 75.2253 18.0865 73.6195 18.0865C71.8699 18.0865 71.0072 16.2204 70.9584 12.7857ZM73.3802 7.03662C74.6025 7.03662 75.5615 8.52985 75.3697 11.8648H70.9825C71.0787 8.72922 72.1098 7.03662 73.3802 7.03662ZM84.3225 7.28548V6.31513H77.6072V7.28548H80.4126V18.8582H81.5399V7.28627H84.3225V7.28548ZM100.891 18.8582H101.97V6.31513H100.987L97.0568 15.1252C96.8169 15.6724 96.5776 16.2204 96.4092 16.7927H96.3377C96.3852 16.2448 96.4339 15.6976 96.4339 15.0263V6.31434H95.3781V18.8582H96.3371L100.269 10.023C100.525 9.50242 100.741 8.96165 100.915 8.40578H100.988C100.928 8.97611 100.896 9.54914 100.891 10.1228V18.8582ZM105.776 12.3626L109.97 18.8582H111.217L106.95 12.1388L110.929 6.31513H109.826L105.776 12.2134V6.31513H104.649V18.8582H105.776V12.3626ZM91.2948 16.7119C91.7581 15.758 91.9904 14.2852 91.9904 12.2934C91.9904 10.6346 91.7904 9.34786 91.3904 8.43561C90.9909 7.52258 90.439 7.06645 89.7357 7.06645C89.4642 7.06645 89.2053 7.1371 88.9572 7.27838C88.7091 7.41973 88.4774 7.60577 88.2615 7.8382C88.0362 8.08345 87.8393 8.35478 87.6748 8.64682C87.4988 8.95351 87.3462 9.274 87.2184 9.60539V16.6247C87.4583 17.1397 87.7539 17.5213 88.1058 17.7701C88.4571 18.019 88.9046 18.1431 89.4484 18.1431C90.2162 18.1431 90.8308 17.6665 91.2948 16.7119ZM88.1185 18.753C87.7653 18.5656 87.4576 18.2974 87.2184 17.9688V22.7231H86.0917V6.29472H87.0747L87.1709 8.36103C87.4406 7.76651 87.8058 7.22364 88.2501 6.75556C88.697 6.28215 89.2566 6.04585 89.9282 6.04585C90.4232 6.04585 90.8707 6.19501 91.2707 6.49334C91.6701 6.79243 92.0062 7.21168 92.2778 7.751C92.55 8.29038 92.757 8.93727 92.9013 9.69253C93.045 10.4478 93.1171 11.2815 93.1171 12.1945C93.1171 14.5011 92.7734 16.222 92.086 17.3595C91.3979 18.4963 90.4953 19.0639 89.3768 19.0639C88.9388 19.0705 88.5059 18.9636 88.1178 18.753H88.1185ZM117.794 18.8582H118.825C118.681 18.3856 118.561 17.4145 118.561 16.5438V9.69956C118.561 7.21089 117.434 6.06626 115.445 6.06626C114.078 6.06626 113.072 6.68879 112.592 7.33575L112.904 8.45526C113.479 7.58382 114.414 7.08683 115.445 7.08683C116.763 7.08683 117.458 7.90806 117.458 9.82442V11.3922H116.14C113.527 11.3922 112.113 12.7857 112.113 15.4738C112.113 17.7631 113.24 19.1071 114.869 19.1071C116.068 19.1071 116.931 18.3605 117.506 17.1656C117.579 18.0622 117.698 18.5348 117.793 18.8582H117.794ZM115.109 18.1611C113.959 18.1611 113.215 17.1405 113.215 15.3741C113.215 13.1837 114.174 12.2385 116.165 12.2385H117.458V15.6976C117.027 17.0416 116.235 18.1611 115.109 18.1611H115.109Z" fill="#141414"/>
</svg>
