<svg width="56" height="31" viewBox="0 0 56 31" fill="none" xmlns="http://www.w3.org/2000/svg">
<path fill-rule="evenodd" clip-rule="evenodd" d="M19.3584 8.48569C17.8906 4.44925 22.1105 0.137606 25.5506 0C27.6147 1.05498 29.4036 3.80709 29.3119 7.56832C29.0367 12.201 25.6882 16.1916 22.0646 19.8611C21.8353 15.366 20.872 12.5221 19.3584 8.48569Z" fill="#e4002b"/>
<path fill-rule="evenodd" clip-rule="evenodd" d="M55.6373 21.6041V8.30222C55.6373 8.07287 55.4538 7.8894 55.2245 7.8894H53.298C53.0687 7.8894 52.8852 8.07287 52.8852 8.30222V21.5582C52.8852 21.7876 53.0687 22.0169 53.298 22.0169H55.2245C55.4538 22.0169 55.6373 21.8335 55.6373 21.6041ZM45.5004 21.9711V7.98114C44.3995 8.027 42.7482 8.71503 42.7482 10.1828V19.7694C42.152 19.8611 41.2346 19.9528 40.73 19.9528C38.9412 19.9528 38.4825 18.6685 38.4825 16.9714V10.0911C38.3907 8.43982 36.4642 7.93527 35.7304 7.98114V16.9714C35.7304 20.2281 37.3816 22.2004 40.73 22.2004C41.2346 22.2004 42.2896 22.0628 42.7482 21.9711V22.1545C43.1611 24.9066 39.8585 23.8517 38.0238 23.6682C36.6936 23.6682 35.7762 24.769 35.5469 26.0075C36.3266 26.2368 38.8494 26.5579 40.6383 26.7414C43.8032 26.6955 45.5004 24.9525 45.5004 21.9711ZM50.5459 21.6041V8.30222C50.5459 8.07287 50.3624 7.8894 50.1331 7.8894H48.2066C47.9773 7.8894 47.7938 8.07287 47.7938 8.30222V21.5582C47.7938 21.7876 47.9773 22.0169 48.2066 22.0169H50.1331C50.3624 22.0169 50.5459 21.8335 50.5459 21.6041ZM49.1698 4.12817C49.9496 4.12817 50.5918 4.77033 50.5918 5.5501C50.5918 6.32987 49.9496 6.97203 49.1698 6.97203C48.3901 6.97203 47.7479 6.32987 47.7479 5.5501C47.7021 4.77033 48.3442 4.12817 49.1698 4.12817ZM54.2613 4.12817C55.041 4.12817 55.6832 4.77033 55.6832 5.5501C55.6832 6.32987 55.041 6.97203 54.2613 6.97203C53.4815 6.97203 52.8393 6.32987 52.8393 5.5501C52.8393 4.77033 53.4815 4.12817 54.2613 4.12817Z" fill="#e4002b"/>
<path fill-rule="evenodd" clip-rule="evenodd" d="M11.1945 30.4109C10.5982 25.9157 12.4788 22.0628 14.3594 19.7235C18.3958 14.6779 18.1665 11.6506 17.7537 9.08197C19.8636 12.3845 21.1938 16.3751 21.5149 19.907C21.6525 22.7508 19.5425 29.4476 11.1945 30.4109Z" fill="#e4002b"/>
<path fill-rule="evenodd" clip-rule="evenodd" d="M8.30315 13.256C2.20263 11.6047 0.688967 6.32986 0.964178 2.79798C6.88123 0.458679 13.3028 2.84385 16.9723 7.88939C19.541 11.4213 21.1922 15.9164 21.5133 19.8611C19.7244 17.5677 17.4769 16.2375 14.633 15.2284C12.7065 14.4945 10.8718 14.0358 8.30315 13.256Z" fill="#e4002b"/>
<path fill-rule="evenodd" clip-rule="evenodd" d="M17.7492 9.03613C17.795 9.082 17.8409 9.17374 17.8868 9.21961L17.9326 9.31134C18.0244 9.44895 18.1161 9.63242 18.2078 9.77003V9.8159L18.2537 9.86177V9.90764L18.2996 9.99937L18.3913 10.137C18.4372 10.2287 18.5289 10.3663 18.5748 10.5039L18.6665 10.6415L18.7583 10.7791V10.825L18.8041 10.9167L18.85 11.0085L18.8959 11.1002C18.9417 11.192 18.9876 11.2837 19.0335 11.4213V11.4672C19.1252 11.6506 19.217 11.8341 19.3087 12.0176L19.3546 12.1552L19.4004 12.2469L19.4463 12.3387L19.4922 12.3845L19.538 12.4763L19.5839 12.568L19.6298 12.7056L19.7215 12.8891C19.8133 13.0726 19.8591 13.256 19.9509 13.4395L19.9967 13.5771L20.0426 13.6689C20.0885 13.7606 20.1343 13.8523 20.1343 13.9899V14.0358C20.1802 14.1275 20.2261 14.2652 20.2719 14.3569V14.4028C20.3178 14.4945 20.3637 14.6321 20.3637 14.7238V14.7697L20.4095 14.9532L20.4554 15.1367L20.5013 15.3201L20.5471 15.4577V15.5036L20.593 15.5953C20.6389 15.6871 20.6389 15.7788 20.6848 15.9164V16.0082L20.7306 16.1458C20.7765 16.3292 20.8224 16.5127 20.8682 16.6962C20.9141 16.9255 20.96 17.2007 21.0058 17.4301V17.476C21.0976 17.8429 21.1434 18.2557 21.1893 18.6227C21.1893 18.7603 21.2352 18.852 21.2352 18.9896V19.0355V19.219V19.3566V19.4024V19.54V19.5859V19.7694C19.905 18.0722 18.3455 16.9255 16.4648 16.0082C18.2537 13.0726 18.0702 10.9167 17.7492 9.03613Z" fill="#e4002b"/>
</svg>
