<svg width="1411" height="381" viewBox="0 0 1411 381" fill="none" xmlns="http://www.w3.org/2000/svg">
<path fill-rule="evenodd" clip-rule="evenodd" d="M842 189.867H948C951.314 189.867 954 192.553 954 195.867V200.4H836V195.867C836 192.553 838.686 189.867 842 189.867ZM836 204.4V370.133C836 373.447 838.686 376.133 842 376.133H948C951.314 376.133 954 373.447 954 370.133V204.4H836ZM832 195.867C832 190.344 836.477 185.867 842 185.867H948C953.523 185.867 958 190.344 958 195.867V370.133C958 375.656 953.523 380.133 948 380.133H842C836.477 380.133 832 375.656 832 370.133V195.867Z" fill="#7C267B"/>
<rect x="844" y="193.1" width="4" height="4.13333" fill="#7C267B"/>
<rect x="854" y="193.1" width="4" height="4.13333" fill="#7C267B"/>
<rect x="864" y="193.1" width="4" height="4.13333" fill="#7C267B"/>
<path d="M849 320.602V312.867C849 310.105 851.239 307.867 854 307.867H880.889C883.65 307.867 885.889 310.105 885.889 312.867V320.602C885.889 323.363 883.65 325.602 880.889 325.602H854C851.239 325.602 849 323.363 849 320.602Z" stroke="#C5CDCF" stroke-width="2"/>
<path d="M857.102 320.83L854.161 323.911C853.553 324.548 854.004 325.602 854.884 325.602H865.107C865.987 325.602 866.438 324.548 865.831 323.911L862.889 320.83C861.313 319.179 858.678 319.179 857.102 320.83Z" stroke="#C5CDCF" stroke-width="2"/>
<path d="M868.87 315.663L861.348 323.185C860.718 323.815 861.164 324.892 862.055 324.892H879.927C880.818 324.892 881.264 323.815 880.634 323.185L873.112 315.663C871.941 314.492 870.041 314.492 868.87 315.663Z" fill="#F6F4F2" stroke="#C5CDCF" stroke-width="2"/>
<path d="M849 354.602V342.867C849 341.21 850.343 339.867 852 339.867H869C870.657 339.867 872 341.21 872 342.867V354.602C872 356.259 870.657 357.602 869 357.602H852C850.343 357.602 849 356.259 849 354.602Z" stroke="#C5CDCF" stroke-width="2"/>
<path d="M854.997 351.242L852.111 356.09C851.715 356.757 852.195 357.602 852.971 357.602H858.742C859.517 357.602 859.998 356.757 859.601 356.09L856.715 351.242C856.328 350.591 855.385 350.591 854.997 351.242Z" stroke="#C5CDCF" stroke-width="2"/>
<path d="M861.863 346.903L856.588 355.363C856.173 356.029 856.652 356.892 857.437 356.892H867.987C868.772 356.892 869.251 356.029 868.835 355.363L863.56 346.903C863.169 346.275 862.255 346.275 861.863 346.903Z" fill="#F6F4F2" stroke="#C5CDCF" stroke-width="2"/>
<path d="M881 354.602V342.867C881 341.21 882.343 339.867 884 339.867H901C902.657 339.867 904 341.21 904 342.867V354.602C904 356.259 902.657 357.602 901 357.602H884C882.343 357.602 881 356.259 881 354.602Z" stroke="#C5CDCF" stroke-width="2"/>
<path d="M886.997 351.242L884.111 356.09C883.715 356.757 884.195 357.602 884.971 357.602H890.742C891.517 357.602 891.998 356.757 891.601 356.09L888.715 351.242C888.328 350.591 887.385 350.591 886.997 351.242Z" stroke="#C5CDCF" stroke-width="2"/>
<path d="M893.863 346.903L888.588 355.363C888.173 356.029 888.652 356.892 889.437 356.892H899.987C900.772 356.892 901.251 356.029 900.835 355.363L895.56 346.903C895.169 346.275 894.255 346.275 893.863 346.903Z" fill="#F6F4F2" stroke="#C5CDCF" stroke-width="2"/>
<path d="M913 354.602V342.867C913 341.21 914.343 339.867 916 339.867H933C934.657 339.867 936 341.21 936 342.867V354.602C936 356.259 934.657 357.602 933 357.602H916C914.343 357.602 913 356.259 913 354.602Z" stroke="#C5CDCF" stroke-width="2"/>
<path d="M918.997 351.242L916.111 356.09C915.715 356.757 916.195 357.602 916.971 357.602H922.742C923.517 357.602 923.998 356.757 923.601 356.09L920.715 351.242C920.328 350.591 919.385 350.591 918.997 351.242Z" stroke="#C5CDCF" stroke-width="2"/>
<path d="M925.863 346.903L920.588 355.363C920.173 356.029 920.652 356.892 921.437 356.892H931.987C932.772 356.892 933.251 356.029 932.835 355.363L927.56 346.903C927.169 346.275 926.255 346.275 925.863 346.903Z" fill="#F6F4F2" stroke="#C5CDCF" stroke-width="2"/>
<path d="M901 290.602V282.867C901 280.105 903.239 277.867 906 277.867H932.889C935.65 277.867 937.889 280.105 937.889 282.867V290.602C937.889 293.363 935.65 295.602 932.889 295.602H906C903.239 295.602 901 293.363 901 290.602Z" stroke="#C5CDCF" stroke-width="2"/>
<path d="M909.102 290.83L906.161 293.911C905.553 294.548 906.004 295.602 906.884 295.602H917.107C917.987 295.602 918.438 294.548 917.831 293.911L914.889 290.83C913.313 289.179 910.678 289.179 909.102 290.83Z" stroke="#C5CDCF" stroke-width="2"/>
<path d="M920.87 285.663L913.348 293.185C912.718 293.815 913.164 294.892 914.055 294.892H931.927C932.818 294.892 933.264 293.815 932.634 293.185L925.112 285.663C923.941 284.492 922.041 284.492 920.87 285.663Z" fill="#F6F4F2" stroke="#C5CDCF" stroke-width="2"/>
<path d="M852 277.867H883" stroke="#C5CDCF" stroke-width="2" stroke-linecap="round"/>
<path d="M852 282.867H883" stroke="#C5CDCF" stroke-width="2" stroke-linecap="round"/>
<path d="M852 292.867H883" stroke="#C5CDCF" stroke-width="2" stroke-linecap="round"/>
<path d="M852 287.867H883" stroke="#C5CDCF" stroke-width="2" stroke-linecap="round"/>
<path d="M852 297.867H883" stroke="#C5CDCF" stroke-width="2" stroke-linecap="round"/>
<path d="M904 305.602H935" stroke="#C5CDCF" stroke-width="2" stroke-linecap="round"/>
<path d="M904 310.602H935" stroke="#C5CDCF" stroke-width="2" stroke-linecap="round"/>
<path d="M904 320.602H935" stroke="#C5CDCF" stroke-width="2" stroke-linecap="round"/>
<path d="M904 315.602H935" stroke="#C5CDCF" stroke-width="2" stroke-linecap="round"/>
<path d="M904 325.602H935" stroke="#C5CDCF" stroke-width="2" stroke-linecap="round"/>
<path d="M920 267.367C920 266.119 919.573 264.884 918.744 263.731C917.915 262.579 916.699 261.531 915.167 260.649C913.635 259.767 911.816 259.067 909.814 258.59C907.812 258.112 905.667 257.867 903.5 257.867C901.333 257.867 899.188 258.112 897.186 258.59C895.184 259.067 893.365 259.767 891.833 260.649C890.301 261.531 889.085 262.579 888.256 263.731C887.427 264.884 887 266.119 887 267.367L903.5 267.367H920Z" fill="#DC40B1"/>
<path fill-rule="evenodd" clip-rule="evenodd" d="M904.355 227.345L902.494 226.867L903.17 228.665C904.082 231.091 904.612 232.974 904.834 234.916C904.945 235.882 904.981 236.875 904.945 237.969C904.316 236.678 903.671 235.579 903.012 234.669C901.971 233.231 900.855 232.207 899.656 231.669C898.424 231.116 897.166 231.107 895.968 231.597C894.803 232.074 893.754 232.994 892.817 234.199L892.034 235.205L893.197 235.726C895.935 236.952 897.753 237.806 899.249 238.824C899.44 238.954 899.626 239.087 899.809 239.225C897.718 239.146 895.79 239.402 894.201 240.024C892.77 240.584 891.565 241.463 890.812 242.715C890.053 243.977 889.818 245.51 890.141 247.246L890.349 248.365L891.432 248.014L903.214 244.201C901.521 250.049 901.106 254.125 901.106 259.313L906.106 260.313C905.208 254.992 905.453 251.015 906.328 244.369C910.52 247.709 912.464 249.761 914.734 253.803L915.46 255.096L916.387 253.938C917.492 252.556 918.084 251.089 918.118 249.639C918.151 248.18 917.617 246.832 916.641 245.713C915.782 244.729 914.59 243.927 913.131 243.35C915.117 243.457 916.974 243.806 919.259 244.468L920.684 244.881L920.532 243.406C920.352 241.645 919.746 240.185 918.753 239.127C917.754 238.063 916.428 237.476 914.947 237.363C913.386 237.244 911.669 237.647 909.924 238.544C910.714 235.926 910.932 233.777 910.41 232.033C909.649 229.488 907.448 228.139 904.355 227.345ZM902.166 241.466C902.372 241.707 902.581 241.963 902.793 242.235L892 245.728C892.008 244.932 892.205 244.28 892.526 243.746C892.996 242.964 893.798 242.329 894.93 241.886C896.754 241.172 899.303 241.011 902.166 241.466ZM905.451 241.851L905.507 241.874L905.571 241.809L905.469 241.795L905.451 241.851ZM903.539 239.683C902.821 238.091 902.101 236.821 901.392 235.842C900.468 234.566 899.603 233.837 898.838 233.494C898.106 233.166 897.418 233.165 896.725 233.449C896.257 233.64 895.764 233.971 895.256 234.46C897.349 235.414 898.973 236.217 900.374 237.17C901.408 237.875 902.311 238.652 903.198 239.616C903.311 239.637 903.425 239.66 903.539 239.683ZM907.179 240.356C908.624 236.61 908.971 234.201 908.494 232.606C908.151 231.46 907.321 230.577 905.726 229.897C906.276 231.581 906.64 233.104 906.821 234.688C907.033 236.536 906.993 238.43 906.745 240.718C906.889 240.594 907.034 240.474 907.179 240.356ZM909.621 244.489C912.224 246.721 913.934 248.627 915.647 251.408C915.96 250.764 916.105 250.154 916.118 249.593C916.139 248.68 915.814 247.807 915.134 247.028C914.105 245.849 912.239 244.876 909.621 244.489ZM918.232 242.121C915.06 241.339 912.504 241.178 909.083 241.412C911.222 239.853 913.234 239.238 914.795 239.357C915.826 239.436 916.67 239.83 917.295 240.496C917.679 240.905 918.003 241.442 918.232 242.121Z" fill="#DC40B1"/>
<circle cx="870.5" cy="235.367" r="6.5" fill="#DC40B1"/>
<path d="M845 261.935V221.867C845 219.105 847.239 216.867 850 216.867H941C943.761 216.867 946 219.105 946 221.867V261.935C946 264.696 943.761 266.935 941 266.935H850C847.239 266.935 845 264.696 845 261.935Z" stroke="#C5CDCF" stroke-width="3"/>
<path fill-rule="evenodd" clip-rule="evenodd" d="M993 189.867H1099C1102.31 189.867 1105 192.553 1105 195.867V200.4H987V195.867C987 192.553 989.686 189.867 993 189.867ZM987 204.4V370.133C987 373.447 989.686 376.133 993 376.133H1099C1102.31 376.133 1105 373.447 1105 370.133V204.4H987ZM983 195.867C983 190.344 987.477 185.867 993 185.867H1099C1104.52 185.867 1109 190.344 1109 195.867V370.133C1109 375.656 1104.52 380.133 1099 380.133H993C987.477 380.133 983 375.656 983 370.133V195.867Z" fill="#C5CDCF"/>
<rect x="995" y="193.1" width="4" height="4.13333" fill="#C5CDCF"/>
<rect x="1005" y="193.1" width="4" height="4.13333" fill="#C5CDCF"/>
<rect x="1015" y="193.1" width="4" height="4.13333" fill="#C5CDCF"/>
<path d="M1000 320.602V312.867C1000 310.105 1002.24 307.867 1005 307.867H1031.89C1034.65 307.867 1036.89 310.105 1036.89 312.867V320.602C1036.89 323.363 1034.65 325.602 1031.89 325.602H1005C1002.24 325.602 1000 323.363 1000 320.602Z" stroke="#C5CDCF" stroke-width="2"/>
<path d="M1008.1 320.83L1005.16 323.911C1004.55 324.548 1005 325.602 1005.88 325.602H1016.11C1016.99 325.602 1017.44 324.548 1016.83 323.911L1013.89 320.83C1012.31 319.179 1009.68 319.179 1008.1 320.83Z" stroke="#C5CDCF" stroke-width="2"/>
<path d="M1019.87 315.663L1012.35 323.185C1011.72 323.815 1012.16 324.892 1013.05 324.892H1030.93C1031.82 324.892 1032.26 323.815 1031.63 323.185L1024.11 315.663C1022.94 314.492 1021.04 314.492 1019.87 315.663Z" fill="#F6F4F2" stroke="#C5CDCF" stroke-width="2"/>
<path d="M1000 354.602V342.867C1000 341.21 1001.34 339.867 1003 339.867H1020C1021.66 339.867 1023 341.21 1023 342.867V354.602C1023 356.259 1021.66 357.602 1020 357.602H1003C1001.34 357.602 1000 356.259 1000 354.602Z" stroke="#C5CDCF" stroke-width="2"/>
<path d="M1006 351.242L1003.11 356.09C1002.71 356.757 1003.2 357.602 1003.97 357.602H1009.74C1010.52 357.602 1011 356.757 1010.6 356.09L1007.72 351.242C1007.33 350.591 1006.38 350.591 1006 351.242Z" stroke="#C5CDCF" stroke-width="2"/>
<path d="M1012.86 346.903L1007.59 355.363C1007.17 356.029 1007.65 356.892 1008.44 356.892H1018.99C1019.77 356.892 1020.25 356.029 1019.84 355.363L1014.56 346.903C1014.17 346.275 1013.25 346.275 1012.86 346.903Z" fill="#F6F4F2" stroke="#C5CDCF" stroke-width="2"/>
<path d="M1032 354.602V342.867C1032 341.21 1033.34 339.867 1035 339.867H1052C1053.66 339.867 1055 341.21 1055 342.867V354.602C1055 356.259 1053.66 357.602 1052 357.602H1035C1033.34 357.602 1032 356.259 1032 354.602Z" stroke="#C5CDCF" stroke-width="2"/>
<path d="M1038 351.242L1035.11 356.09C1034.71 356.757 1035.2 357.602 1035.97 357.602H1041.74C1042.52 357.602 1043 356.757 1042.6 356.09L1039.72 351.242C1039.33 350.591 1038.38 350.591 1038 351.242Z" stroke="#C5CDCF" stroke-width="2"/>
<path d="M1044.86 346.903L1039.59 355.363C1039.17 356.029 1039.65 356.892 1040.44 356.892H1050.99C1051.77 356.892 1052.25 356.029 1051.84 355.363L1046.56 346.903C1046.17 346.275 1045.25 346.275 1044.86 346.903Z" fill="#F6F4F2" stroke="#C5CDCF" stroke-width="2"/>
<path d="M1064 354.602V342.867C1064 341.21 1065.34 339.867 1067 339.867H1084C1085.66 339.867 1087 341.21 1087 342.867V354.602C1087 356.259 1085.66 357.602 1084 357.602H1067C1065.34 357.602 1064 356.259 1064 354.602Z" stroke="#C5CDCF" stroke-width="2"/>
<path d="M1070 351.242L1067.11 356.09C1066.71 356.757 1067.2 357.602 1067.97 357.602H1073.74C1074.52 357.602 1075 356.757 1074.6 356.09L1071.72 351.242C1071.33 350.591 1070.38 350.591 1070 351.242Z" stroke="#C5CDCF" stroke-width="2"/>
<path d="M1076.86 346.903L1071.59 355.363C1071.17 356.029 1071.65 356.892 1072.44 356.892H1082.99C1083.77 356.892 1084.25 356.029 1083.84 355.363L1078.56 346.903C1078.17 346.275 1077.25 346.275 1076.86 346.903Z" fill="#F6F4F2" stroke="#C5CDCF" stroke-width="2"/>
<path d="M1052 290.602V282.867C1052 280.105 1054.24 277.867 1057 277.867H1083.89C1086.65 277.867 1088.89 280.105 1088.89 282.867V290.602C1088.89 293.363 1086.65 295.602 1083.89 295.602H1057C1054.24 295.602 1052 293.363 1052 290.602Z" stroke="#C5CDCF" stroke-width="2"/>
<path d="M1060.1 290.83L1057.16 293.911C1056.55 294.548 1057 295.602 1057.88 295.602H1068.11C1068.99 295.602 1069.44 294.548 1068.83 293.911L1065.89 290.83C1064.31 289.179 1061.68 289.179 1060.1 290.83Z" stroke="#C5CDCF" stroke-width="2"/>
<path d="M1071.87 285.663L1064.35 293.185C1063.72 293.815 1064.16 294.892 1065.05 294.892H1082.93C1083.82 294.892 1084.26 293.815 1083.63 293.185L1076.11 285.663C1074.94 284.492 1073.04 284.492 1071.87 285.663Z" fill="#F6F4F2" stroke="#C5CDCF" stroke-width="2"/>
<path d="M1003 277.867H1034" stroke="#C5CDCF" stroke-width="2" stroke-linecap="round"/>
<path d="M1003 282.867H1034" stroke="#C5CDCF" stroke-width="2" stroke-linecap="round"/>
<path d="M1003 292.867H1034" stroke="#C5CDCF" stroke-width="2" stroke-linecap="round"/>
<path d="M1003 287.867H1034" stroke="#C5CDCF" stroke-width="2" stroke-linecap="round"/>
<path d="M1003 297.867H1034" stroke="#C5CDCF" stroke-width="2" stroke-linecap="round"/>
<path d="M1055 305.602H1086" stroke="#C5CDCF" stroke-width="2" stroke-linecap="round"/>
<path d="M1055 310.602H1086" stroke="#C5CDCF" stroke-width="2" stroke-linecap="round"/>
<path d="M1055 320.602H1086" stroke="#C5CDCF" stroke-width="2" stroke-linecap="round"/>
<path d="M1055 315.602H1086" stroke="#C5CDCF" stroke-width="2" stroke-linecap="round"/>
<path d="M1055 325.602H1086" stroke="#C5CDCF" stroke-width="2" stroke-linecap="round"/>
<path d="M996 261.935V221.867C996 219.105 998.239 216.867 1001 216.867H1092C1094.76 216.867 1097 219.105 1097 221.867V261.935C1097 264.696 1094.76 266.935 1092 266.935H1001C998.239 266.935 996 264.696 996 261.935Z" stroke="#C5CDCF" stroke-width="3"/>
<path d="M1068.14 245.867H1044.93C1043.29 245.867 1042.35 247.725 1043.36 249.015C1047.77 254.68 1051 257.171 1056.6 256.837C1063.69 256.598 1067.12 254.7 1069.92 248.521C1070.5 247.255 1069.53 245.867 1068.14 245.867Z" fill="#C5CDCF"/>
<path d="M1055 242.867V234.932C1055 234.355 1055.49 233.896 1056.07 233.945C1063.76 234.591 1067.04 236.787 1070.22 242.421C1070.59 243.072 1070.11 243.867 1069.36 243.867H1056C1055.45 243.867 1055 243.419 1055 242.867Z" fill="#C5CDCF"/>
<circle cx="1050" cy="258.867" r="2" fill="#C5CDCF"/>
<circle cx="1065" cy="258.867" r="2" fill="#C5CDCF"/>
<path d="M1046.5 246.867L1042 242.367H1037" stroke="#C5CDCF" stroke-width="2" stroke-linecap="round"/>
<path d="M1045 234.867H1050L1046.18 238.867H1050" stroke="#C5CDCF"/>
<path d="M1026 218.867H1031L1027.18 222.867H1031" stroke="#C5CDCF"/>
<path d="M1041.75 222.867L1044.87 226.773L1036.73 228.378L1039.12 231.366" stroke="#C5CDCF"/>
<path d="M1028.99 226.867L1029.41 233.449L1025.1 228.667L1025.41 233.701" stroke="#C5CDCF"/>
<path fill-rule="evenodd" clip-rule="evenodd" d="M1144 189.867H1250C1253.31 189.867 1256 192.553 1256 195.867V200.4H1138V195.867C1138 192.553 1140.69 189.867 1144 189.867ZM1138 204.4V370.133C1138 373.447 1140.69 376.133 1144 376.133H1250C1253.31 376.133 1256 373.447 1256 370.133V204.4H1138ZM1134 195.867C1134 190.344 1138.48 185.867 1144 185.867H1250C1255.52 185.867 1260 190.344 1260 195.867V370.133C1260 375.656 1255.52 380.133 1250 380.133H1144C1138.48 380.133 1134 375.656 1134 370.133V195.867Z" fill="#C5CDCF"/>
<rect x="1146" y="193.1" width="4" height="4.13333" fill="#C5CDCF"/>
<rect x="1156" y="193.1" width="4" height="4.13333" fill="#C5CDCF"/>
<rect x="1166" y="193.1" width="4" height="4.13333" fill="#C5CDCF"/>
<path d="M1151 320.602V312.867C1151 310.105 1153.24 307.867 1156 307.867H1182.89C1185.65 307.867 1187.89 310.105 1187.89 312.867V320.602C1187.89 323.363 1185.65 325.602 1182.89 325.602H1156C1153.24 325.602 1151 323.363 1151 320.602Z" stroke="#C5CDCF" stroke-width="2"/>
<path d="M1159.1 320.83L1156.16 323.911C1155.55 324.548 1156 325.602 1156.88 325.602H1167.11C1167.99 325.602 1168.44 324.548 1167.83 323.911L1164.89 320.83C1163.31 319.179 1160.68 319.179 1159.1 320.83Z" stroke="#C5CDCF" stroke-width="2"/>
<path d="M1170.87 315.663L1163.35 323.185C1162.72 323.815 1163.16 324.892 1164.05 324.892H1181.93C1182.82 324.892 1183.26 323.815 1182.63 323.185L1175.11 315.663C1173.94 314.492 1172.04 314.492 1170.87 315.663Z" fill="#F6F4F2" stroke="#C5CDCF" stroke-width="2"/>
<path d="M1151 354.602V342.867C1151 341.21 1152.34 339.867 1154 339.867H1171C1172.66 339.867 1174 341.21 1174 342.867V354.602C1174 356.259 1172.66 357.602 1171 357.602H1154C1152.34 357.602 1151 356.259 1151 354.602Z" stroke="#C5CDCF" stroke-width="2"/>
<path d="M1157 351.242L1154.11 356.09C1153.71 356.757 1154.2 357.602 1154.97 357.602H1160.74C1161.52 357.602 1162 356.757 1161.6 356.09L1158.72 351.242C1158.33 350.591 1157.38 350.591 1157 351.242Z" stroke="#C5CDCF" stroke-width="2"/>
<path d="M1163.86 346.903L1158.59 355.363C1158.17 356.029 1158.65 356.892 1159.44 356.892H1169.99C1170.77 356.892 1171.25 356.029 1170.84 355.363L1165.56 346.903C1165.17 346.275 1164.25 346.275 1163.86 346.903Z" fill="#F6F4F2" stroke="#C5CDCF" stroke-width="2"/>
<path d="M1183 354.602V342.867C1183 341.21 1184.34 339.867 1186 339.867H1203C1204.66 339.867 1206 341.21 1206 342.867V354.602C1206 356.259 1204.66 357.602 1203 357.602H1186C1184.34 357.602 1183 356.259 1183 354.602Z" stroke="#C5CDCF" stroke-width="2"/>
<path d="M1189 351.242L1186.11 356.09C1185.71 356.757 1186.2 357.602 1186.97 357.602H1192.74C1193.52 357.602 1194 356.757 1193.6 356.09L1190.72 351.242C1190.33 350.591 1189.38 350.591 1189 351.242Z" stroke="#C5CDCF" stroke-width="2"/>
<path d="M1195.86 346.903L1190.59 355.363C1190.17 356.029 1190.65 356.892 1191.44 356.892H1201.99C1202.77 356.892 1203.25 356.029 1202.84 355.363L1197.56 346.903C1197.17 346.275 1196.25 346.275 1195.86 346.903Z" fill="#F6F4F2" stroke="#C5CDCF" stroke-width="2"/>
<path d="M1215 354.602V342.867C1215 341.21 1216.34 339.867 1218 339.867H1235C1236.66 339.867 1238 341.21 1238 342.867V354.602C1238 356.259 1236.66 357.602 1235 357.602H1218C1216.34 357.602 1215 356.259 1215 354.602Z" stroke="#C5CDCF" stroke-width="2"/>
<path d="M1221 351.242L1218.11 356.09C1217.71 356.757 1218.2 357.602 1218.97 357.602H1224.74C1225.52 357.602 1226 356.757 1225.6 356.09L1222.72 351.242C1222.33 350.591 1221.38 350.591 1221 351.242Z" stroke="#C5CDCF" stroke-width="2"/>
<path d="M1227.86 346.903L1222.59 355.363C1222.17 356.029 1222.65 356.892 1223.44 356.892H1233.99C1234.77 356.892 1235.25 356.029 1234.84 355.363L1229.56 346.903C1229.17 346.275 1228.25 346.275 1227.86 346.903Z" fill="#F6F4F2" stroke="#C5CDCF" stroke-width="2"/>
<path d="M1203 290.602V282.867C1203 280.105 1205.24 277.867 1208 277.867H1234.89C1237.65 277.867 1239.89 280.105 1239.89 282.867V290.602C1239.89 293.363 1237.65 295.602 1234.89 295.602H1208C1205.24 295.602 1203 293.363 1203 290.602Z" stroke="#C5CDCF" stroke-width="2"/>
<path d="M1211.1 290.83L1208.16 293.911C1207.55 294.548 1208 295.602 1208.88 295.602H1219.11C1219.99 295.602 1220.44 294.548 1219.83 293.911L1216.89 290.83C1215.31 289.179 1212.68 289.179 1211.1 290.83Z" stroke="#C5CDCF" stroke-width="2"/>
<path d="M1222.87 285.663L1215.35 293.185C1214.72 293.815 1215.16 294.892 1216.05 294.892H1233.93C1234.82 294.892 1235.26 293.815 1234.63 293.185L1227.11 285.663C1225.94 284.492 1224.04 284.492 1222.87 285.663Z" fill="#F6F4F2" stroke="#C5CDCF" stroke-width="2"/>
<path d="M1154 277.867H1185" stroke="#C5CDCF" stroke-width="2" stroke-linecap="round"/>
<path d="M1154 282.867H1185" stroke="#C5CDCF" stroke-width="2" stroke-linecap="round"/>
<path d="M1154 292.867H1185" stroke="#C5CDCF" stroke-width="2" stroke-linecap="round"/>
<path d="M1154 287.867H1185" stroke="#C5CDCF" stroke-width="2" stroke-linecap="round"/>
<path d="M1154 297.867H1185" stroke="#C5CDCF" stroke-width="2" stroke-linecap="round"/>
<path d="M1206 305.602H1237" stroke="#C5CDCF" stroke-width="2" stroke-linecap="round"/>
<path d="M1206 310.602H1237" stroke="#C5CDCF" stroke-width="2" stroke-linecap="round"/>
<path d="M1206 320.602H1237" stroke="#C5CDCF" stroke-width="2" stroke-linecap="round"/>
<path d="M1206 315.602H1237" stroke="#C5CDCF" stroke-width="2" stroke-linecap="round"/>
<path d="M1206 325.602H1237" stroke="#C5CDCF" stroke-width="2" stroke-linecap="round"/>
<path d="M1147 261.935V221.867C1147 219.105 1149.24 216.867 1152 216.867H1243C1245.76 216.867 1248 219.105 1248 221.867V261.935C1248 264.696 1245.76 266.935 1243 266.935H1152C1149.24 266.935 1147 264.696 1147 261.935Z" stroke="#C5CDCF" stroke-width="3"/>
<path d="M1182.19 254.201C1184.51 254.201 1186.38 252.321 1186.38 250.001C1186.38 247.681 1184.51 245.8 1182.19 245.8C1179.88 245.8 1178 247.681 1178 250.001C1178 252.321 1179.88 254.201 1182.19 254.201Z" fill="#C5CDCF"/>
<path d="M1218.19 254.201C1220.51 254.201 1222.38 252.321 1222.38 250.001C1222.38 247.681 1220.51 245.8 1218.19 245.8C1215.88 245.8 1214 247.681 1214 250.001C1214 252.321 1215.88 254.201 1218.19 254.201Z" fill="#C5CDCF"/>
<path fill-rule="evenodd" clip-rule="evenodd" d="M1171.55 244.014L1172.02 242.642C1172.07 242.517 1172.15 242.414 1172.27 242.355C1172.38 242.293 1172.47 242.183 1172.52 242.05L1172.55 241.937C1172.62 241.696 1172.8 241.505 1173.03 241.423L1174.87 240.753L1173.91 239.851C1173.9 239.834 1173.87 239.824 1173.85 239.824H1171.83C1171.79 239.824 1171.75 239.797 1171.74 239.756L1171.39 238.768C1171.36 238.699 1171.41 238.626 1171.48 238.626H1177.12C1177.19 238.626 1177.24 238.712 1177.2 238.782L1176.89 239.371C1176.87 239.404 1176.84 239.425 1176.8 239.425H1175.76C1175.68 239.425 1175.63 239.511 1175.67 239.581L1174.87 240.753C1181.78 241.233 1188.88 235.97 1195.81 236.096C1197.18 236.12 1198.74 236.287 1200.51 236.615C1204.78 237.649 1207.13 238.731 1210.87 241.381C1211.06 241.517 1211.28 241.56 1211.4 241.561C1216.38 241.682 1221.38 241.903 1223.14 243.207C1225.82 244.653 1227.99 245.893 1228 247.062L1227.65 250.17C1227.65 250.247 1227.67 250.323 1227.72 250.377L1227.89 250.56C1227.96 250.631 1228 250.728 1228 250.829C1228 251.065 1227.84 251.266 1227.61 251.299L1223.04 251.99C1222.99 251.997 1222.95 252.001 1222.9 252L1222.58 251.999C1222.94 251.261 1223.15 250.422 1223.15 249.531C1223.15 246.594 1220.9 244.213 1218.12 244.213C1215.34 244.213 1213.09 246.594 1213.09 249.531C1213.09 250.403 1213.29 251.225 1213.64 251.951L1187.72 251.811C1188.03 251.12 1188.12 251.484 1188.12 249.531C1187.53 246.512 1184.16 244.162 1182 244.25C1179.22 244.25 1176.89 246.594 1176.89 249.531C1176.89 250.347 1176.89 251.12 1177.2 251.811H1176.89C1174.7 251.824 1174.42 251.483 1172.78 250.366C1172.71 250.317 1172.63 250.277 1172.55 250.248L1171.41 249.855L1171.19 248.905C1171.63 248.791 1171.35 248.264 1171.11 247.792C1171.09 247.755 1171.07 247.719 1171.05 247.683C1170.92 247.428 1171.06 247.295 1171.23 247.124C1171.31 247.054 1171.38 246.979 1171.45 246.886C1171.68 246.58 1171.6 245.919 1171.49 245.082C1171.48 244.995 1171.47 244.905 1171.46 244.814C1171.43 244.544 1171.46 244.27 1171.55 244.014Z" fill="#C5CDCF"/>
<path d="M1188 240.365L1206.5 240.366C1199.33 236.145 1192.01 235.863 1188 240.365Z" fill="#F6F4F2"/>
<path fill-rule="evenodd" clip-rule="evenodd" d="M1295 189.867H1401C1404.31 189.867 1407 192.553 1407 195.867V200.4H1289V195.867C1289 192.553 1291.69 189.867 1295 189.867ZM1289 204.4V370.133C1289 373.447 1291.69 376.133 1295 376.133H1401C1404.31 376.133 1407 373.447 1407 370.133V204.4H1289ZM1285 195.867C1285 190.344 1289.48 185.867 1295 185.867H1401C1406.52 185.867 1411 190.344 1411 195.867V370.133C1411 375.656 1406.52 380.133 1401 380.133H1295C1289.48 380.133 1285 375.656 1285 370.133V195.867Z" fill="#C5CDCF"/>
<rect x="1297" y="193.1" width="4" height="4.13333" fill="#C5CDCF"/>
<rect x="1307" y="193.1" width="4" height="4.13333" fill="#C5CDCF"/>
<rect x="1317" y="193.1" width="4" height="4.13333" fill="#C5CDCF"/>
<path d="M1302 320.602V312.867C1302 310.105 1304.24 307.867 1307 307.867H1333.89C1336.65 307.867 1338.89 310.105 1338.89 312.867V320.602C1338.89 323.363 1336.65 325.602 1333.89 325.602H1307C1304.24 325.602 1302 323.363 1302 320.602Z" stroke="#C5CDCF" stroke-width="2"/>
<path d="M1310.1 320.83L1307.16 323.911C1306.55 324.548 1307 325.602 1307.88 325.602H1318.11C1318.99 325.602 1319.44 324.548 1318.83 323.911L1315.89 320.83C1314.31 319.179 1311.68 319.179 1310.1 320.83Z" stroke="#C5CDCF" stroke-width="2"/>
<path d="M1321.87 315.663L1314.35 323.185C1313.72 323.815 1314.16 324.892 1315.05 324.892H1332.93C1333.82 324.892 1334.26 323.815 1333.63 323.185L1326.11 315.663C1324.94 314.492 1323.04 314.492 1321.87 315.663Z" fill="#F6F4F2" stroke="#C5CDCF" stroke-width="2"/>
<path d="M1302 354.602V342.867C1302 341.21 1303.34 339.867 1305 339.867H1322C1323.66 339.867 1325 341.21 1325 342.867V354.602C1325 356.259 1323.66 357.602 1322 357.602H1305C1303.34 357.602 1302 356.259 1302 354.602Z" stroke="#C5CDCF" stroke-width="2"/>
<path d="M1308 351.242L1305.11 356.09C1304.71 356.757 1305.2 357.602 1305.97 357.602H1311.74C1312.52 357.602 1313 356.757 1312.6 356.09L1309.72 351.242C1309.33 350.591 1308.38 350.591 1308 351.242Z" stroke="#C5CDCF" stroke-width="2"/>
<path d="M1314.86 346.903L1309.59 355.363C1309.17 356.029 1309.65 356.892 1310.44 356.892H1320.99C1321.77 356.892 1322.25 356.029 1321.84 355.363L1316.56 346.903C1316.17 346.275 1315.25 346.275 1314.86 346.903Z" fill="#F6F4F2" stroke="#C5CDCF" stroke-width="2"/>
<path d="M1334 354.602V342.867C1334 341.21 1335.34 339.867 1337 339.867H1354C1355.66 339.867 1357 341.21 1357 342.867V354.602C1357 356.259 1355.66 357.602 1354 357.602H1337C1335.34 357.602 1334 356.259 1334 354.602Z" stroke="#C5CDCF" stroke-width="2"/>
<path d="M1340 351.242L1337.11 356.09C1336.71 356.757 1337.2 357.602 1337.97 357.602H1343.74C1344.52 357.602 1345 356.757 1344.6 356.09L1341.72 351.242C1341.33 350.591 1340.38 350.591 1340 351.242Z" stroke="#C5CDCF" stroke-width="2"/>
<path d="M1346.86 346.903L1341.59 355.363C1341.17 356.029 1341.65 356.892 1342.44 356.892H1352.99C1353.77 356.892 1354.25 356.029 1353.84 355.363L1348.56 346.903C1348.17 346.275 1347.25 346.275 1346.86 346.903Z" fill="#F6F4F2" stroke="#C5CDCF" stroke-width="2"/>
<path d="M1366 354.602V342.867C1366 341.21 1367.34 339.867 1369 339.867H1386C1387.66 339.867 1389 341.21 1389 342.867V354.602C1389 356.259 1387.66 357.602 1386 357.602H1369C1367.34 357.602 1366 356.259 1366 354.602Z" stroke="#C5CDCF" stroke-width="2"/>
<path d="M1372 351.242L1369.11 356.09C1368.71 356.757 1369.2 357.602 1369.97 357.602H1375.74C1376.52 357.602 1377 356.757 1376.6 356.09L1373.72 351.242C1373.33 350.591 1372.38 350.591 1372 351.242Z" stroke="#C5CDCF" stroke-width="2"/>
<path d="M1378.86 346.903L1373.59 355.363C1373.17 356.029 1373.65 356.892 1374.44 356.892H1384.99C1385.77 356.892 1386.25 356.029 1385.84 355.363L1380.56 346.903C1380.17 346.275 1379.25 346.275 1378.86 346.903Z" fill="#F6F4F2" stroke="#C5CDCF" stroke-width="2"/>
<path d="M1354 290.602V282.867C1354 280.105 1356.24 277.867 1359 277.867H1385.89C1388.65 277.867 1390.89 280.105 1390.89 282.867V290.602C1390.89 293.363 1388.65 295.602 1385.89 295.602H1359C1356.24 295.602 1354 293.363 1354 290.602Z" stroke="#C5CDCF" stroke-width="2"/>
<path d="M1362.1 290.83L1359.16 293.911C1358.55 294.548 1359 295.602 1359.88 295.602H1370.11C1370.99 295.602 1371.44 294.548 1370.83 293.911L1367.89 290.83C1366.31 289.179 1363.68 289.179 1362.1 290.83Z" stroke="#C5CDCF" stroke-width="2"/>
<path d="M1373.87 285.663L1366.35 293.185C1365.72 293.815 1366.16 294.892 1367.05 294.892H1384.93C1385.82 294.892 1386.26 293.815 1385.63 293.185L1378.11 285.663C1376.94 284.492 1375.04 284.492 1373.87 285.663Z" fill="#F6F4F2" stroke="#C5CDCF" stroke-width="2"/>
<path d="M1305 277.867H1336" stroke="#C5CDCF" stroke-width="2" stroke-linecap="round"/>
<path d="M1305 282.867H1336" stroke="#C5CDCF" stroke-width="2" stroke-linecap="round"/>
<path d="M1305 292.867H1336" stroke="#C5CDCF" stroke-width="2" stroke-linecap="round"/>
<path d="M1305 287.867H1336" stroke="#C5CDCF" stroke-width="2" stroke-linecap="round"/>
<path d="M1305 297.867H1336" stroke="#C5CDCF" stroke-width="2" stroke-linecap="round"/>
<path d="M1357 305.602H1388" stroke="#C5CDCF" stroke-width="2" stroke-linecap="round"/>
<path d="M1357 310.602H1388" stroke="#C5CDCF" stroke-width="2" stroke-linecap="round"/>
<path d="M1357 320.602H1388" stroke="#C5CDCF" stroke-width="2" stroke-linecap="round"/>
<path d="M1357 315.602H1388" stroke="#C5CDCF" stroke-width="2" stroke-linecap="round"/>
<path d="M1357 325.602H1388" stroke="#C5CDCF" stroke-width="2" stroke-linecap="round"/>
<path d="M1298 261.935V221.867C1298 219.105 1300.24 216.867 1303 216.867H1394C1396.76 216.867 1399 219.105 1399 221.867V261.935C1399 264.696 1396.76 266.935 1394 266.935H1303C1300.24 266.935 1298 264.696 1298 261.935Z" stroke="#C5CDCF" stroke-width="3"/>
<path d="M1334 256.867V241.867C1334 240.762 1334.9 239.867 1336 239.867H1362C1363.1 239.867 1364 240.762 1364 241.867V256.867C1364 257.971 1363.1 258.867 1362 258.867H1336C1334.9 258.867 1334 257.971 1334 256.867Z" stroke="#C5CDCF" stroke-width="3"/>
<path d="M1330 238.004C1330.01 237.368 1330.03 236.688 1330.04 236.058C1330.06 234.881 1331.05 233.867 1332.22 233.867H1365.03C1366.14 233.867 1367.03 234.762 1367.03 235.867V237.867C1367.03 238.971 1366.14 239.867 1365.03 239.867H1331.9C1330.85 239.867 1329.99 239.054 1330 238.004Z" stroke="#C5CDCF" stroke-width="3"/>
<path d="M1346 240.867V258.367" stroke="#C5CDCF" stroke-width="2"/>
<path d="M1352 240.867V258.367" stroke="#C5CDCF" stroke-width="2"/>
<path d="M1338.2 230.761C1337.71 230.505 1337.52 229.892 1337.87 229.463C1338.07 229.214 1338.29 228.985 1338.54 228.778C1339.05 228.357 1339.63 228.04 1340.25 227.843C1340.88 227.647 1341.54 227.576 1342.19 227.635C1342.85 227.693 1343.48 227.88 1344.07 228.184C1344.65 228.489 1345.16 228.904 1345.58 229.408C1346.01 229.912 1346.32 230.494 1346.52 231.12C1346.72 231.747 1346.79 232.406 1346.73 233.06C1346.7 233.381 1346.64 233.698 1346.55 234.006C1346.4 234.536 1345.78 234.725 1345.29 234.469L1344.88 234.25C1344.39 233.996 1344.22 233.388 1344.27 232.841C1344.3 232.509 1344.27 232.175 1344.17 231.857C1344.07 231.54 1343.91 231.245 1343.69 230.99C1343.48 230.734 1343.22 230.524 1342.92 230.369C1342.63 230.215 1342.31 230.12 1341.97 230.091C1341.64 230.061 1341.31 230.097 1340.99 230.197C1340.67 230.296 1340.38 230.457 1340.12 230.67C1339.7 231.023 1339.11 231.234 1338.62 230.979L1338.2 230.761Z" fill="#C5CDCF"/>
<path d="M1359.25 230.555C1359.7 230.242 1359.83 229.61 1359.43 229.226C1358.73 228.548 1357.84 228.084 1356.87 227.903C1355.56 227.661 1354.22 227.946 1353.12 228.697C1352.03 229.447 1351.28 230.602 1351.04 231.905C1350.86 232.879 1350.97 233.876 1351.35 234.774C1351.57 235.282 1352.2 235.395 1352.65 235.083L1352.91 234.909C1353.36 234.596 1353.46 233.971 1353.33 233.433C1353.25 233.074 1353.24 232.697 1353.31 232.327C1353.44 231.625 1353.84 231.003 1354.43 230.599C1355.02 230.195 1355.74 230.041 1356.44 230.172C1356.81 230.24 1357.16 230.385 1357.47 230.593C1357.92 230.904 1358.54 231.041 1359 230.729L1359.25 230.555Z" fill="#C5CDCF"/>
<path d="M1318.05 235.592L1319.92 237.309L1322.13 236.056L1321.08 238.37L1322.96 240.087L1320.43 239.8L1319.38 242.115L1318.87 239.623L1316.34 239.336L1318.55 238.083L1318.05 235.592Z" fill="#C5CDCF"/>
<path d="M1325.05 221.592L1326.92 223.309L1329.13 222.056L1328.08 224.37L1329.96 226.087L1327.43 225.8L1326.38 228.115L1325.87 225.623L1323.34 225.336L1325.55 224.083L1325.05 221.592Z" fill="#C5CDCF"/>
<path d="M1374.05 219.592L1375.92 221.309L1378.13 220.056L1377.08 222.37L1378.96 224.087L1376.43 223.8L1375.38 226.115L1374.87 223.623L1372.34 223.336L1374.55 222.083L1374.05 219.592Z" fill="#C5CDCF"/>
<path d="M1377.05 242.592L1378.92 244.309L1381.13 243.056L1380.08 245.37L1381.96 247.087L1379.43 246.8L1378.38 249.115L1377.87 246.623L1375.34 246.336L1377.55 245.083L1377.05 242.592Z" fill="#C5CDCF"/>
<path d="M1347.05 219.592L1348.92 221.309L1351.13 220.056L1350.08 222.37L1351.96 224.087L1349.43 223.8L1348.38 226.115L1347.87 223.623L1345.34 223.336L1347.55 222.083L1347.05 219.592Z" fill="#C5CDCF"/>
<path d="M1366.05 224.592L1367.92 226.309L1370.13 225.056L1369.08 227.37L1370.96 229.087L1368.43 228.8L1367.38 231.115L1366.87 228.623L1364.34 228.336L1366.55 227.083L1366.05 224.592Z" fill="#C5CDCF"/>
<rect x="535" y="0.899902" width="215" height="51.6667" rx="8" fill="#7C267B"/>
<path d="M570.512 32.6627L571.928 28.8467H568.256L566.552 33.4307L564.416 32.6867L565.832 28.8467H563.96V26.4467H566.72L567.968 23.0867H563.96V20.6867H568.88L570.584 16.1027L572.72 16.8707L571.304 20.6867H574.928L576.632 16.1027L578.768 16.8467L577.352 20.6867H579.416V23.0867H576.464L575.216 26.4467H579.416V28.8467H574.328L572.648 33.4307L570.512 32.6627ZM570.392 23.0867L569.144 26.4467H572.816L574.04 23.0867H570.392ZM593.135 33.1667V19.1267H585.647V33.1667H582.695V16.3667H596.087V33.1667H593.135ZM610.366 22.3667L606.118 33.1667C605.35 35.0387 604.662 36.3027 604.054 36.9587C603.462 37.6307 602.758 37.9667 601.942 37.9667C601.158 37.9667 600.382 37.6867 599.614 37.1267L600.502 35.0387C600.934 35.2947 601.31 35.4227 601.63 35.4227C602.286 35.4227 602.838 34.8627 603.286 33.7427L603.526 33.1667L598.534 22.3667H601.846L604.366 28.2707C604.462 28.5107 604.638 29.0307 604.894 29.8307C605.022 29.1267 605.15 28.5987 605.278 28.2467L607.222 22.3667H610.366ZM610.986 25.1267V22.3667H620.826V25.1267H617.298V33.1667H614.538V25.1267H610.986ZM630.946 30.1427L631.738 32.0867C630.682 32.9827 629.306 33.4307 627.61 33.4307C625.866 33.4307 624.458 32.9107 623.386 31.8707C622.33 30.8307 621.802 29.4627 621.802 27.7667C621.802 26.1507 622.322 24.8067 623.362 23.7347C624.402 22.6467 625.786 22.1027 627.514 22.1027C628.938 22.1027 630.146 22.5747 631.138 23.5187C632.13 24.4467 632.626 25.6467 632.626 27.1187C632.626 27.7267 632.57 28.2227 632.458 28.6067H624.658C624.77 29.4067 625.122 30.0307 625.714 30.4787C626.306 30.9107 627.034 31.1267 627.898 31.1267C629.114 31.1267 630.13 30.7987 630.946 30.1427ZM627.394 24.4067C625.826 24.4067 624.882 25.1907 624.562 26.7587H629.866C629.882 26.0867 629.666 25.5267 629.218 25.0787C628.77 24.6307 628.162 24.4067 627.394 24.4067ZM634.849 33.1667V22.3667H637.609V30.5987H640.657V22.3667H643.417V30.5987H646.489V22.3667H649.249V33.1667H634.849ZM660.781 30.1427L661.573 32.0867C660.517 32.9827 659.141 33.4307 657.445 33.4307C655.701 33.4307 654.293 32.9107 653.221 31.8707C652.165 30.8307 651.637 29.4627 651.637 27.7667C651.637 26.1507 652.157 24.8067 653.197 23.7347C654.237 22.6467 655.621 22.1027 657.349 22.1027C658.773 22.1027 659.981 22.5747 660.973 23.5187C661.965 24.4467 662.461 25.6467 662.461 27.1187C662.461 27.7267 662.405 28.2227 662.293 28.6067H654.493C654.605 29.4067 654.957 30.0307 655.549 30.4787C656.141 30.9107 656.869 31.1267 657.733 31.1267C658.949 31.1267 659.965 30.7987 660.781 30.1427ZM657.229 24.4067C655.661 24.4067 654.717 25.1907 654.397 26.7587H659.701C659.717 26.0867 659.501 25.5267 659.053 25.0787C658.605 24.6307 657.997 24.4067 657.229 24.4067ZM672.798 29.5427L674.094 31.5587C673.646 32.1667 673.038 32.6307 672.27 32.9507C671.518 33.2707 670.694 33.4307 669.798 33.4307C668.038 33.4307 666.622 32.9107 665.55 31.8707C664.478 30.8307 663.942 29.4627 663.942 27.7667C663.942 26.1667 664.47 24.8227 665.526 23.7347C666.582 22.6467 667.918 22.1027 669.534 22.1027C671.454 22.1027 672.902 22.5907 673.878 23.5667L672.582 25.7507C671.862 25.0467 670.966 24.6947 669.894 24.6947C669.094 24.6947 668.39 24.9827 667.782 25.5587C667.19 26.1187 666.894 26.8547 666.894 27.7667C666.894 28.6947 667.198 29.4467 667.806 30.0227C668.43 30.5827 669.166 30.8627 670.014 30.8627C671.07 30.8627 671.998 30.4227 672.798 29.5427ZM674.971 25.1267V22.3667H684.811V25.1267H681.283V33.1667H678.523V25.1267H674.971ZM686.786 33.1667V22.3667C686.978 22.3667 687.33 22.3587 687.842 22.3427C688.37 22.3107 688.906 22.2867 689.45 22.2707C690.01 22.2547 690.538 22.2467 691.034 22.2467C694.298 22.2467 695.93 23.1907 695.93 25.0787C695.93 25.7027 695.73 26.2387 695.33 26.6867C694.946 27.1347 694.474 27.3987 693.914 27.4787V27.5267C695.45 27.8947 696.218 28.7267 696.218 30.0227C696.218 32.1987 694.506 33.2867 691.082 33.2867C690.602 33.2867 689.842 33.2627 688.802 33.2147C687.762 33.1827 687.09 33.1667 686.786 33.1667ZM691.274 28.5827H689.546V30.9827C690.634 31.0467 691.242 31.0787 691.37 31.0787C691.978 31.0787 692.45 30.9667 692.786 30.7427C693.138 30.5187 693.314 30.2147 693.314 29.8307C693.314 28.9987 692.634 28.5827 691.274 28.5827ZM691.274 24.4787C690.506 24.4787 689.93 24.4947 689.546 24.5267V26.9027H691.346C691.826 26.9027 692.218 26.7987 692.522 26.5907C692.842 26.3667 693.002 26.0547 693.002 25.6547C693.002 24.8707 692.426 24.4787 691.274 24.4787ZM701.593 33.1667H698.833V22.3667H701.593V29.2067L706.633 22.3667H709.393V33.1667H706.633V26.3267L701.593 33.1667ZM717.754 22.3667H721.282V33.1667H718.522V29.9267H716.986L714.754 33.1667H711.586L714.465 29.3267C713.922 29.1347 713.434 28.7747 713.002 28.2467C712.586 27.7027 712.378 27.0227 712.378 26.2067C712.378 25.0707 712.81 24.1507 713.674 23.4467C714.554 22.7267 715.914 22.3667 717.754 22.3667ZM715.33 26.3987C715.33 26.8307 715.506 27.1907 715.858 27.4787C716.226 27.7507 716.634 27.8867 717.082 27.8867H718.522V24.7667H717.298C716.674 24.7667 716.186 24.9267 715.834 25.2467C715.498 25.5667 715.33 25.9507 715.33 26.3987Z" fill="white"/>
<path d="M431 129.033L411 149.7" stroke="#C5CDCF" stroke-width="3" stroke-linecap="round"/>
<path d="M411 129.033L431 149.7" stroke="#C5CDCF" stroke-width="3" stroke-linecap="round"/>
<path d="M3 167.433V111.3C3 108.539 5.23859 106.3 8.00001 106.3H448C450.761 106.3 453 108.539 453 111.3V167.433C453 170.195 450.761 172.433 448 172.433H8C5.23858 172.433 3 170.195 3 167.433Z" stroke="#C5CDCF" stroke-width="5"/>
<path d="M79.2 133.2V130.9H90.74V133.2H86.2V144.9H83.74V133.2H79.2ZM98.3936 135.9L94.8536 144.9C94.2136 146.46 93.6403 147.513 93.1336 148.06C92.6403 148.62 92.0536 148.9 91.3736 148.9C90.7203 148.9 90.0736 148.667 89.4336 148.2L90.1736 146.46C90.5336 146.673 90.8469 146.78 91.1136 146.78C91.6603 146.78 92.1203 146.313 92.4936 145.38L92.6936 144.9L88.5336 135.9H91.2936L93.3936 140.82C93.4736 141.02 93.6203 141.453 93.8336 142.12C93.9403 141.533 94.0469 141.093 94.1536 140.8L95.7736 135.9H98.3936ZM99.7722 148.9V135.9H102.072V136.76C102.366 136.453 102.759 136.2 103.252 136C103.759 135.787 104.292 135.68 104.852 135.68C106.079 135.68 107.066 136.107 107.812 136.96C108.559 137.813 108.932 138.913 108.932 140.26C108.932 141.66 108.492 142.82 107.612 143.74C106.732 144.66 105.586 145.12 104.172 145.12C103.279 145.12 102.579 144.973 102.072 144.68V148.9H99.7722ZM104.132 137.84C103.346 137.84 102.659 138.167 102.072 138.82V142.46C102.606 142.807 103.239 142.98 103.972 142.98C104.746 142.98 105.359 142.733 105.812 142.24C106.266 141.733 106.492 141.093 106.492 140.32C106.492 139.587 106.286 138.993 105.872 138.54C105.459 138.073 104.879 137.84 104.132 137.84ZM110.925 144.9V135.9H113.225V142.76H116.925V135.9H119.225V142.76H120.725V147H118.565V144.9H110.925ZM124.553 144.9H122.253V135.9H124.553V141.6L128.753 135.9H131.053V144.9H128.753V139.2L124.553 144.9ZM138.02 135.9H140.96V144.9H138.66V142.2H137.38L135.52 144.9H132.88L135.28 141.7C134.827 141.54 134.42 141.24 134.06 140.8C133.713 140.347 133.54 139.78 133.54 139.1C133.54 138.153 133.9 137.387 134.62 136.8C135.353 136.2 136.487 135.9 138.02 135.9ZM136 139.26C136 139.62 136.147 139.92 136.44 140.16C136.747 140.387 137.087 140.5 137.46 140.5H138.66V137.9H137.64C137.12 137.9 136.713 138.033 136.42 138.3C136.14 138.567 136 138.887 136 139.26ZM146.62 144.9L152.54 130.86H154.7L160.62 144.9H158L156.54 141.32H150.56L149.1 144.9H146.62ZM153.56 134.04L151.5 139.02H155.6L153.56 134.04ZM162.057 142.42V130.9H164.357V141.48C164.357 142.453 164.617 142.94 165.137 142.94C165.431 142.94 165.744 142.82 166.077 142.58L166.557 144.34C165.931 144.847 165.137 145.1 164.177 145.1C162.764 145.1 162.057 144.207 162.057 142.42ZM168.034 142.42V130.9H170.334V141.48C170.334 142.453 170.594 142.94 171.114 142.94C171.407 142.94 171.721 142.82 172.054 142.58L172.534 144.34C171.907 144.847 171.114 145.1 170.154 145.1C168.741 145.1 168.034 144.207 168.034 142.42ZM178.589 144.9V135.9H180.889V144.9H178.589ZM178.349 132.66C178.349 132.26 178.489 131.94 178.769 131.7C179.049 131.447 179.389 131.32 179.789 131.32C180.135 131.32 180.442 131.447 180.709 131.7C180.975 131.94 181.109 132.26 181.109 132.66C181.109 133.1 180.975 133.453 180.709 133.72C180.442 133.973 180.135 134.1 179.789 134.1C179.375 134.1 179.029 133.973 178.749 133.72C178.482 133.453 178.349 133.1 178.349 132.66ZM183.796 144.9V135.9H186.096V136.8C186.749 136.093 187.609 135.74 188.676 135.74C191.142 135.74 192.376 137.033 192.376 139.62V144.9H190.076V140.02C190.076 138.607 189.402 137.9 188.056 137.9C187.322 137.9 186.669 138.187 186.096 138.76V144.9H183.796ZM201.534 141.88L202.614 143.56C202.24 144.067 201.734 144.453 201.094 144.72C200.467 144.987 199.78 145.12 199.034 145.12C197.567 145.12 196.387 144.687 195.494 143.82C194.6 142.953 194.154 141.813 194.154 140.4C194.154 139.067 194.594 137.947 195.474 137.04C196.354 136.133 197.467 135.68 198.814 135.68C200.414 135.68 201.62 136.087 202.434 136.9L201.354 138.72C200.754 138.133 200.007 137.84 199.114 137.84C198.447 137.84 197.86 138.08 197.354 138.56C196.86 139.027 196.614 139.64 196.614 140.4C196.614 141.173 196.867 141.8 197.374 142.28C197.894 142.747 198.507 142.98 199.214 142.98C200.094 142.98 200.867 142.613 201.534 141.88ZM204.46 142.42V130.9H206.76V141.48C206.76 142.453 207.02 142.94 207.54 142.94C207.833 142.94 208.146 142.82 208.48 142.58L208.96 144.34C208.333 144.847 207.54 145.1 206.58 145.1C205.166 145.1 204.46 144.207 204.46 142.42ZM218.576 135.9V144.9H216.276V143.8C215.556 144.68 214.596 145.12 213.396 145.12C212.463 145.12 211.703 144.807 211.116 144.18C210.53 143.553 210.236 142.627 210.236 141.4V135.9H212.536V140.92C212.536 142.293 213.11 142.98 214.256 142.98C215.043 142.98 215.716 142.613 216.276 141.88V135.9H218.576ZM225.359 142.98C225.586 142.833 225.699 142.627 225.699 142.36C225.699 142.093 225.533 141.88 225.199 141.72C224.866 141.547 224.459 141.4 223.979 141.28C223.513 141.147 223.039 140.993 222.559 140.82C222.079 140.633 221.673 140.34 221.339 139.94C221.006 139.54 220.839 139.033 220.839 138.42C220.839 137.567 221.146 136.9 221.759 136.42C222.386 135.927 223.179 135.68 224.139 135.68C225.606 135.68 226.746 136.06 227.559 136.82L226.699 138.46C225.966 137.887 225.153 137.6 224.259 137.6C223.926 137.6 223.653 137.68 223.439 137.84C223.239 137.987 223.139 138.167 223.139 138.38C223.139 138.647 223.306 138.867 223.639 139.04C223.973 139.213 224.373 139.36 224.839 139.48C225.319 139.6 225.799 139.747 226.279 139.92C226.759 140.093 227.166 140.38 227.499 140.78C227.833 141.167 227.999 141.653 227.999 142.24C227.999 143.12 227.666 143.82 226.999 144.34C226.346 144.86 225.466 145.12 224.359 145.12C223.586 145.12 222.819 144.953 222.059 144.62C221.313 144.287 220.826 143.94 220.599 143.58L221.719 142.08C221.986 142.373 222.406 142.633 222.979 142.86C223.553 143.087 224.066 143.2 224.519 143.2C224.866 143.2 225.146 143.127 225.359 142.98ZM230.366 144.9V135.9H232.666V144.9H230.366ZM230.126 132.66C230.126 132.26 230.266 131.94 230.546 131.7C230.826 131.447 231.166 131.32 231.566 131.32C231.913 131.32 232.219 131.447 232.486 131.7C232.753 131.94 232.886 132.26 232.886 132.66C232.886 133.1 232.753 133.453 232.486 133.72C232.219 133.973 231.913 134.1 231.566 134.1C231.153 134.1 230.806 133.973 230.526 133.72C230.259 133.453 230.126 133.1 230.126 132.66ZM243.953 135.9L240.073 144.94H238.373L234.233 135.9H236.973L238.633 139.76C238.926 140.413 239.153 141.093 239.313 141.8C239.486 141.053 239.706 140.36 239.973 139.72L241.533 135.9H243.953ZM251.91 142.38L252.57 144C251.69 144.747 250.544 145.12 249.13 145.12C247.677 145.12 246.504 144.687 245.61 143.82C244.73 142.953 244.29 141.813 244.29 140.4C244.29 139.053 244.724 137.933 245.59 137.04C246.457 136.133 247.61 135.68 249.05 135.68C250.237 135.68 251.244 136.073 252.07 136.86C252.897 137.633 253.31 138.633 253.31 139.86C253.31 140.367 253.264 140.78 253.17 141.1H246.67C246.764 141.767 247.057 142.287 247.55 142.66C248.044 143.02 248.65 143.2 249.37 143.2C250.384 143.2 251.23 142.927 251.91 142.38ZM248.95 137.6C247.644 137.6 246.857 138.253 246.59 139.56H251.01C251.024 139 250.844 138.533 250.47 138.16C250.097 137.787 249.59 137.6 248.95 137.6ZM259.401 144.9V135.9C259.561 135.9 259.854 135.893 260.281 135.88C260.721 135.853 261.168 135.833 261.621 135.82C262.088 135.807 262.528 135.8 262.941 135.8C265.661 135.8 267.021 136.587 267.021 138.16C267.021 138.68 266.854 139.127 266.521 139.5C266.201 139.873 265.808 140.093 265.341 140.16V140.2C266.621 140.507 267.261 141.2 267.261 142.28C267.261 144.093 265.834 145 262.981 145C262.581 145 261.948 144.98 261.081 144.94C260.214 144.913 259.654 144.9 259.401 144.9ZM263.141 141.08H261.701V143.08C262.608 143.133 263.114 143.16 263.221 143.16C263.728 143.16 264.121 143.067 264.401 142.88C264.694 142.693 264.841 142.44 264.841 142.12C264.841 141.427 264.274 141.08 263.141 141.08ZM263.141 137.66C262.501 137.66 262.021 137.673 261.701 137.7V139.68H263.201C263.601 139.68 263.928 139.593 264.181 139.42C264.448 139.233 264.581 138.973 264.581 138.64C264.581 137.987 264.101 137.66 263.141 137.66ZM273.678 148.9V135.9H275.978V136.76C276.272 136.453 276.665 136.2 277.158 136C277.665 135.787 278.198 135.68 278.758 135.68C279.985 135.68 280.972 136.107 281.718 136.96C282.465 137.813 282.838 138.913 282.838 140.26C282.838 141.66 282.398 142.82 281.518 143.74C280.638 144.66 279.492 145.12 278.078 145.12C277.185 145.12 276.485 144.973 275.978 144.68V148.9H273.678ZM278.038 137.84C277.252 137.84 276.565 138.167 275.978 138.82V142.46C276.512 142.807 277.145 142.98 277.878 142.98C278.652 142.98 279.265 142.733 279.718 142.24C280.172 141.733 280.398 141.093 280.398 140.32C280.398 139.587 280.192 138.993 279.778 138.54C279.365 138.073 278.785 137.84 278.038 137.84ZM285.531 138.22L284.951 136.54C285.924 135.967 286.984 135.68 288.131 135.68C289.411 135.68 290.331 135.993 290.891 136.62C291.451 137.247 291.731 138.18 291.731 139.42V144.9H289.731V143.86C289.184 144.633 288.297 145.02 287.071 145.02C286.231 145.02 285.551 144.773 285.031 144.28C284.511 143.787 284.251 143.113 284.251 142.26C284.251 141.313 284.557 140.593 285.171 140.1C285.784 139.593 286.571 139.34 287.531 139.34C288.357 139.34 289.037 139.533 289.571 139.92C289.597 139.133 289.484 138.553 289.231 138.18C288.977 137.793 288.531 137.6 287.891 137.6C287.224 137.6 286.437 137.807 285.531 138.22ZM287.831 143.08C288.604 143.08 289.184 142.807 289.571 142.26V141.34C289.184 141.047 288.657 140.9 287.991 140.9C287.577 140.9 287.231 141 286.951 141.2C286.684 141.387 286.551 141.66 286.551 142.02C286.551 142.353 286.671 142.613 286.911 142.8C287.151 142.987 287.457 143.08 287.831 143.08ZM300.909 141.88L301.989 143.56C301.615 144.067 301.109 144.453 300.469 144.72C299.842 144.987 299.155 145.12 298.409 145.12C296.942 145.12 295.762 144.687 294.869 143.82C293.975 142.953 293.529 141.813 293.529 140.4C293.529 139.067 293.969 137.947 294.849 137.04C295.729 136.133 296.842 135.68 298.189 135.68C299.789 135.68 300.995 136.087 301.809 136.9L300.729 138.72C300.129 138.133 299.382 137.84 298.489 137.84C297.822 137.84 297.235 138.08 296.729 138.56C296.235 139.027 295.989 139.64 295.989 140.4C295.989 141.173 296.242 141.8 296.749 142.28C297.269 142.747 297.882 142.98 298.589 142.98C299.469 142.98 300.242 142.613 300.909 141.88ZM310.166 141.88L311.246 143.56C310.873 144.067 310.366 144.453 309.726 144.72C309.1 144.987 308.413 145.12 307.666 145.12C306.2 145.12 305.02 144.687 304.126 143.82C303.233 142.953 302.786 141.813 302.786 140.4C302.786 139.067 303.226 137.947 304.106 137.04C304.986 136.133 306.1 135.68 307.446 135.68C309.046 135.68 310.253 136.087 311.066 136.9L309.986 138.72C309.386 138.133 308.64 137.84 307.746 137.84C307.08 137.84 306.493 138.08 305.986 138.56C305.493 139.027 305.246 139.64 305.246 140.4C305.246 141.173 305.5 141.8 306.006 142.28C306.526 142.747 307.14 142.98 307.846 142.98C308.726 142.98 309.5 142.613 310.166 141.88ZM313.093 148.9V135.9H315.393V136.76C315.686 136.453 316.079 136.2 316.573 136C317.079 135.787 317.613 135.68 318.173 135.68C319.399 135.68 320.386 136.107 321.133 136.96C321.879 137.813 322.253 138.913 322.253 140.26C322.253 141.66 321.813 142.82 320.933 143.74C320.053 144.66 318.906 145.12 317.493 145.12C316.599 145.12 315.899 144.973 315.393 144.68V148.9H313.093ZM317.453 137.84C316.666 137.84 315.979 138.167 315.393 138.82V142.46C315.926 142.807 316.559 142.98 317.293 142.98C318.066 142.98 318.679 142.733 319.133 142.24C319.586 141.733 319.813 141.093 319.813 140.32C319.813 139.587 319.606 138.993 319.193 138.54C318.779 138.073 318.199 137.84 317.453 137.84ZM325.025 143.8C324.132 142.907 323.685 141.773 323.685 140.4C323.685 139.027 324.132 137.9 325.025 137.02C325.932 136.127 327.118 135.68 328.585 135.68C330.052 135.68 331.232 136.127 332.125 137.02C333.032 137.9 333.485 139.027 333.485 140.4C333.485 141.773 333.032 142.907 332.125 143.8C331.232 144.68 330.052 145.12 328.585 145.12C327.118 145.12 325.932 144.68 325.025 143.8ZM326.145 140.4C326.145 141.147 326.372 141.767 326.825 142.26C327.292 142.74 327.878 142.98 328.585 142.98C329.305 142.98 329.892 142.747 330.345 142.28C330.812 141.8 331.045 141.173 331.045 140.4C331.045 139.653 330.812 139.04 330.345 138.56C329.878 138.08 329.292 137.84 328.585 137.84C327.892 137.84 327.312 138.08 326.845 138.56C326.378 139.027 326.145 139.64 326.145 140.4ZM342.735 135.9V144.9H340.435V141.8C339.782 142.147 339.035 142.32 338.195 142.32C337.062 142.32 336.235 142.027 335.715 141.44C335.195 140.84 334.935 139.953 334.935 138.78V135.9H337.395V138.5C337.395 139.607 337.882 140.16 338.855 140.16C339.495 140.16 340.022 140.04 340.435 139.8V135.9H342.735ZM353.82 135.9L350.36 140.18L354.24 144.9H351.24L347.68 140.36L350.92 135.9H353.82ZM345.3 144.9V135.9H347.6V144.9H345.3ZM364.175 135.9L360.635 144.9C359.995 146.46 359.422 147.513 358.915 148.06C358.422 148.62 357.835 148.9 357.155 148.9C356.502 148.9 355.855 148.667 355.215 148.2L355.955 146.46C356.315 146.673 356.628 146.78 356.895 146.78C357.442 146.78 357.902 146.313 358.275 145.38L358.475 144.9L354.315 135.9H357.075L359.175 140.82C359.255 141.02 359.402 141.453 359.615 142.12C359.722 141.533 359.828 141.093 359.935 140.8L361.555 135.9H364.175Z" fill="#141414"/>
<path d="M47 147.117L55 155.383" stroke="#7C267B" stroke-width="3" stroke-linecap="round"/>
<path d="M50.5 137.3C50.5 144.508 44.8576 150.267 38 150.267C31.1424 150.267 25.5 144.508 25.5 137.3C25.5 130.092 31.1424 124.333 38 124.333C44.8576 124.333 50.5 130.092 50.5 137.3Z" stroke="#7C267B" stroke-width="3"/>
<path d="M497 145.05V237.317C497 242.287 501.029 246.317 506 246.317H564" stroke="#C5CDCF" stroke-width="5" stroke-linecap="round"/>
<path d="M564.5 175.017H507C501.477 175.017 497 170.539 497 165.017V144.017" stroke="#C5CDCF" stroke-width="5" stroke-linecap="round"/>
<path d="M561.5 100.1H508C502.477 100.1 498 104.577 498 110.1V134.717" stroke="#C5CDCF" stroke-width="5" stroke-linecap="round"/>
<path d="M562.5 27.7666H508.5C502.977 27.7666 498.5 32.2438 498.5 37.7666V132.467C498.5 137.989 494.023 142.467 488.5 142.467H454" stroke="#7C267B" stroke-width="5" stroke-linecap="round"/>
<rect x="536.5" y="75.7666" width="212" height="48.6667" rx="6.5" fill="#F6F4F2" stroke="#C5CDCF" stroke-width="3"/>
<path d="M570.68 106.389L572.456 101.565H567.416L565.496 106.749L564.512 106.389L566.288 101.565H563.96V100.461H566.696L568.424 95.8054H563.96V94.7014H568.832L570.776 89.5174L571.76 89.8774L569.96 94.7014H575L576.944 89.5174L577.928 89.8534L576.128 94.7014H578.552V95.8054H575.72L574.016 100.461H578.552V101.565H573.608L571.688 106.749L570.68 106.389ZM569.552 95.8054L567.824 100.461H572.864L574.592 95.8054H569.552ZM579.763 90.9814V89.7334H593.515V90.9814H587.299V106.533H585.979V90.9814H579.763ZM593.298 105.165C592.242 104.109 591.714 102.765 591.714 101.133C591.714 99.5014 592.242 98.1574 593.298 97.1014C594.354 96.0454 595.714 95.5174 597.378 95.5174C599.042 95.5174 600.402 96.0454 601.458 97.1014C602.514 98.1574 603.042 99.5014 603.042 101.133C603.042 102.765 602.514 104.109 601.458 105.165C600.402 106.221 599.042 106.749 597.378 106.749C595.714 106.749 594.354 106.221 593.298 105.165ZM594.258 97.9414C593.442 98.7734 593.034 99.8374 593.034 101.133C593.034 102.429 593.442 103.493 594.258 104.325C595.074 105.157 596.114 105.573 597.378 105.573C598.658 105.573 599.698 105.165 600.498 104.349C601.314 103.517 601.722 102.445 601.722 101.133C601.722 99.8374 601.314 98.7734 600.498 97.9414C599.682 97.1094 598.642 96.6934 597.378 96.6934C596.13 96.6934 595.09 97.1094 594.258 97.9414ZM606.099 106.533V95.7334C606.371 95.7334 606.883 95.7254 607.635 95.7094C608.403 95.6774 609.051 95.6614 609.579 95.6614C611.067 95.6614 612.179 95.8854 612.915 96.3334C613.667 96.7814 614.043 97.4854 614.043 98.4454C614.043 99.0534 613.851 99.5894 613.467 100.053C613.083 100.517 612.547 100.805 611.859 100.917V100.965C613.587 101.237 614.451 102.101 614.451 103.557C614.451 105.589 612.843 106.605 609.627 106.605C609.147 106.605 608.515 106.589 607.731 106.557C606.947 106.541 606.403 106.533 606.099 106.533ZM609.939 101.565H607.347V105.381C608.275 105.413 609.083 105.429 609.771 105.429C612.011 105.429 613.131 104.765 613.131 103.437C613.131 102.189 612.067 101.565 609.939 101.565ZM609.723 96.8374C608.939 96.8374 608.147 96.8534 607.347 96.8854V100.533H610.203C610.987 100.533 611.603 100.365 612.051 100.029C612.499 99.6774 612.723 99.2134 612.723 98.6374C612.723 97.4374 611.723 96.8374 609.723 96.8374ZM617.99 97.5334L617.654 96.5014C618.71 95.8454 619.854 95.5174 621.086 95.5174C622.526 95.5174 623.55 95.8774 624.158 96.5974C624.782 97.3174 625.094 98.3974 625.094 99.8374V106.533H623.846V104.877C622.966 106.077 621.734 106.677 620.15 106.677C619.142 106.677 618.334 106.389 617.726 105.813C617.118 105.221 616.814 104.437 616.814 103.461C616.814 102.405 617.198 101.581 617.966 100.989C618.734 100.397 619.718 100.101 620.918 100.101C622.118 100.101 623.094 100.373 623.846 100.917C623.846 100.309 623.83 99.8294 623.798 99.4774C623.782 99.1254 623.718 98.7494 623.606 98.3494C623.51 97.9334 623.366 97.6214 623.174 97.4134C622.982 97.2054 622.702 97.0374 622.334 96.9094C621.982 96.7654 621.542 96.6934 621.014 96.6934C620.022 96.6934 619.014 96.9734 617.99 97.5334ZM620.534 105.501C621.878 105.501 622.982 104.933 623.846 103.797V101.997C623.062 101.421 622.126 101.133 621.038 101.133C620.254 101.133 619.574 101.325 618.998 101.709C618.422 102.093 618.134 102.653 618.134 103.389C618.134 104.045 618.358 104.565 618.806 104.949C619.27 105.317 619.846 105.501 620.534 105.501ZM628.669 111.333V95.7334H629.917V97.1734C630.333 96.6934 630.901 96.3014 631.621 95.9974C632.357 95.6774 633.109 95.5174 633.877 95.5174C635.413 95.5174 636.637 96.0214 637.549 97.0294C638.461 98.0374 638.917 99.3494 638.917 100.965C638.917 102.629 638.405 104.013 637.381 105.117C636.357 106.205 635.021 106.749 633.373 106.749C631.901 106.749 630.749 106.445 629.917 105.837V111.333H628.669ZM633.541 96.6934C632.821 96.6934 632.125 96.8614 631.453 97.1974C630.797 97.5174 630.285 97.9094 629.917 98.3734V104.589C630.909 105.245 632.029 105.573 633.277 105.573C634.573 105.573 635.613 105.149 636.397 104.301C637.197 103.453 637.597 102.365 637.597 101.037C637.597 99.7254 637.237 98.6774 636.517 97.8934C635.813 97.0934 634.821 96.6934 633.541 96.6934ZM641.959 106.533V95.7334H643.207V99.3574H645.079C647.927 99.3574 649.351 100.541 649.351 102.909C649.351 103.965 649.007 104.837 648.319 105.525C647.631 106.197 646.503 106.533 644.935 106.533H641.959ZM644.863 100.533H643.207V105.357H644.839C645.991 105.357 646.807 105.157 647.287 104.757C647.783 104.341 648.031 103.733 648.031 102.933C648.031 101.333 646.975 100.533 644.863 100.533ZM651.823 106.533V95.7334H653.071V106.533H651.823ZM660.857 109.269V105.357H662.201C662.585 104.861 662.945 104.037 663.281 102.885C663.633 101.717 663.857 100.349 663.953 98.7814L664.121 95.7334H671.009V105.357H672.809V109.269H671.633V106.533H662.033V109.269H660.857ZM665.153 99.2614C665.041 100.701 664.817 101.981 664.481 103.101C664.161 104.205 663.841 104.957 663.521 105.357H669.761V96.9094H665.297L665.153 99.2614ZM683.667 104.253L684.075 105.213C683.099 106.237 681.771 106.749 680.091 106.749C678.379 106.749 676.995 106.237 675.939 105.213C674.883 104.189 674.355 102.829 674.355 101.133C674.355 99.5014 674.835 98.1574 675.795 97.1014C676.771 96.0454 678.115 95.5174 679.827 95.5174C681.235 95.5174 682.403 95.9654 683.331 96.8614C684.259 97.7574 684.723 98.9334 684.723 100.389C684.723 100.773 684.699 101.109 684.651 101.397H675.747C675.795 102.693 676.219 103.717 677.019 104.469C677.819 105.205 678.867 105.573 680.163 105.573C681.651 105.573 682.819 105.133 683.667 104.253ZM679.707 96.6934C678.539 96.6934 677.603 97.0374 676.899 97.7254C676.195 98.3974 675.787 99.2774 675.675 100.365H683.451C683.435 99.2294 683.091 98.3334 682.419 97.6774C681.747 97.0214 680.843 96.6934 679.707 96.6934ZM685.82 96.9814V95.7334H695.66V96.9814H691.364V106.533H690.116V96.9814H685.82ZM701.969 95.7334H705.185V106.533H703.937V102.501H701.249L698.153 106.533H696.617L700.025 102.213C699.337 102.101 698.729 101.773 698.201 101.229C697.689 100.669 697.433 99.9734 697.433 99.1414C697.433 98.1494 697.793 97.3334 698.513 96.6934C699.233 96.0534 700.385 95.7334 701.969 95.7334ZM698.753 99.1654C698.753 99.8054 699.001 100.325 699.497 100.725C699.993 101.125 700.521 101.325 701.081 101.325H703.937V96.9094H701.753C700.729 96.9094 699.969 97.1174 699.473 97.5334C698.993 97.9494 698.753 98.4934 698.753 99.1654ZM708.966 106.533V95.7334H710.142L714.63 101.757L718.95 95.7334H720.078V106.533H718.83V97.6294L714.63 103.461H714.558L710.214 97.6294V106.533H708.966Z" fill="#141414"/>
<rect x="536.5" y="148.1" width="212" height="48.6667" rx="6.5" fill="#F6F4F2" stroke="#C5CDCF" stroke-width="3"/>
<path d="M573.68 178.723L575.456 173.899H570.416L568.496 179.083L567.512 178.723L569.288 173.899H566.96V172.795H569.696L571.424 168.139H566.96V167.035H571.832L573.776 161.851L574.76 162.211L572.96 167.035H578L579.944 161.851L580.928 162.187L579.128 167.035H581.552V168.139H578.72L577.016 172.795H581.552V173.899H576.608L574.688 179.083L573.68 178.723ZM572.552 168.139L570.824 172.795H575.864L577.592 168.139H572.552ZM583.027 178.867L590.347 161.923H591.427L598.747 178.867H597.331L594.883 173.155H586.819L584.371 178.867H583.027ZM590.851 163.747L587.347 171.907H594.331L590.851 163.747ZM601.154 178.867V168.067C601.426 168.067 601.938 168.059 602.69 168.043C603.458 168.011 604.106 167.995 604.634 167.995C606.122 167.995 607.234 168.219 607.97 168.667C608.722 169.115 609.098 169.819 609.098 170.779C609.098 171.387 608.906 171.923 608.522 172.387C608.138 172.851 607.602 173.139 606.914 173.251V173.299C608.642 173.571 609.506 174.435 609.506 175.891C609.506 177.923 607.898 178.939 604.682 178.939C604.202 178.939 603.57 178.923 602.786 178.891C602.002 178.875 601.458 178.867 601.154 178.867ZM604.994 173.899H602.402V177.715C603.33 177.747 604.138 177.763 604.826 177.763C607.066 177.763 608.186 177.099 608.186 175.771C608.186 174.523 607.122 173.899 604.994 173.899ZM604.778 169.171C603.994 169.171 603.202 169.187 602.402 169.219V172.867H605.258C606.042 172.867 606.658 172.699 607.106 172.363C607.554 172.011 607.778 171.547 607.778 170.971C607.778 169.771 606.778 169.171 604.778 169.171ZM611.125 169.315V168.067H620.965V169.315H616.669V178.867H615.421V169.315H611.125ZM623.603 177.499C622.547 176.443 622.019 175.099 622.019 173.467C622.019 171.835 622.547 170.491 623.603 169.435C624.659 168.379 626.019 167.851 627.683 167.851C629.347 167.851 630.707 168.379 631.763 169.435C632.819 170.491 633.347 171.835 633.347 173.467C633.347 175.099 632.819 176.443 631.763 177.499C630.707 178.555 629.347 179.083 627.683 179.083C626.019 179.083 624.659 178.555 623.603 177.499ZM624.563 170.275C623.747 171.107 623.339 172.171 623.339 173.467C623.339 174.763 623.747 175.827 624.563 176.659C625.379 177.491 626.419 177.907 627.683 177.907C628.963 177.907 630.003 177.499 630.803 176.683C631.619 175.851 632.027 174.779 632.027 173.467C632.027 172.171 631.619 171.107 630.803 170.275C629.987 169.443 628.947 169.027 627.683 169.027C626.435 169.027 625.395 169.443 624.563 170.275ZM636.712 172.939V171.763H642.208V172.939H636.712ZM644.382 169.315V168.067H654.222V169.315H649.926V178.867H648.678V169.315H644.382ZM656.86 177.499C655.804 176.443 655.276 175.099 655.276 173.467C655.276 171.835 655.804 170.491 656.86 169.435C657.916 168.379 659.276 167.851 660.94 167.851C662.604 167.851 663.964 168.379 665.02 169.435C666.076 170.491 666.604 171.835 666.604 173.467C666.604 175.099 666.076 176.443 665.02 177.499C663.964 178.555 662.604 179.083 660.94 179.083C659.276 179.083 657.916 178.555 656.86 177.499ZM657.82 170.275C657.004 171.107 656.596 172.171 656.596 173.467C656.596 174.763 657.004 175.827 657.82 176.659C658.636 177.491 659.676 177.907 660.94 177.907C662.22 177.907 663.26 177.499 664.06 176.683C664.876 175.851 665.284 174.779 665.284 173.467C665.284 172.171 664.876 171.107 664.06 170.275C663.244 169.443 662.204 169.027 660.94 169.027C659.692 169.027 658.652 169.443 657.82 170.275ZM669.662 178.867V168.067C669.934 168.067 670.446 168.059 671.198 168.043C671.966 168.011 672.614 167.995 673.142 167.995C674.63 167.995 675.742 168.219 676.478 168.667C677.23 169.115 677.606 169.819 677.606 170.779C677.606 171.387 677.414 171.923 677.03 172.387C676.646 172.851 676.11 173.139 675.422 173.251V173.299C677.15 173.571 678.014 174.435 678.014 175.891C678.014 177.923 676.406 178.939 673.19 178.939C672.71 178.939 672.078 178.923 671.294 178.891C670.51 178.875 669.966 178.867 669.662 178.867ZM673.502 173.899H670.91V177.715C671.838 177.747 672.646 177.763 673.334 177.763C675.574 177.763 676.694 177.099 676.694 175.771C676.694 174.523 675.63 173.899 673.502 173.899ZM673.286 169.171C672.502 169.171 671.71 169.187 670.91 169.219V172.867H673.766C674.55 172.867 675.166 172.699 675.614 172.363C676.062 172.011 676.286 171.547 676.286 170.971C676.286 169.771 675.286 169.171 673.286 169.171ZM681.552 169.867L681.216 168.835C682.272 168.179 683.416 167.851 684.648 167.851C686.088 167.851 687.112 168.211 687.72 168.931C688.344 169.651 688.656 170.731 688.656 172.171V178.867H687.408V177.211C686.528 178.411 685.296 179.011 683.712 179.011C682.704 179.011 681.896 178.723 681.288 178.147C680.68 177.555 680.376 176.771 680.376 175.795C680.376 174.739 680.76 173.915 681.528 173.323C682.296 172.731 683.28 172.435 684.48 172.435C685.68 172.435 686.656 172.707 687.408 173.251C687.408 172.643 687.392 172.163 687.36 171.811C687.344 171.459 687.28 171.083 687.168 170.683C687.072 170.267 686.928 169.955 686.736 169.747C686.544 169.539 686.264 169.371 685.896 169.243C685.544 169.099 685.104 169.027 684.576 169.027C683.584 169.027 682.576 169.307 681.552 169.867ZM684.096 177.835C685.44 177.835 686.544 177.267 687.408 176.131V174.331C686.624 173.755 685.688 173.467 684.6 173.467C683.816 173.467 683.136 173.659 682.56 174.043C681.984 174.427 681.696 174.987 681.696 175.723C681.696 176.379 681.92 176.899 682.368 177.283C682.832 177.651 683.408 177.835 684.096 177.835ZM692.232 183.667V168.067H693.48V169.507C693.896 169.027 694.464 168.635 695.184 168.331C695.92 168.011 696.672 167.851 697.44 167.851C698.976 167.851 700.2 168.355 701.112 169.363C702.024 170.371 702.48 171.683 702.48 173.299C702.48 174.963 701.968 176.347 700.944 177.451C699.92 178.539 698.584 179.083 696.936 179.083C695.464 179.083 694.312 178.779 693.48 178.171V183.667H692.232ZM697.104 169.027C696.384 169.027 695.688 169.195 695.016 169.531C694.36 169.851 693.848 170.243 693.48 170.707V176.923C694.472 177.579 695.592 177.907 696.84 177.907C698.136 177.907 699.176 177.483 699.96 176.635C700.76 175.787 701.16 174.699 701.16 173.371C701.16 172.059 700.8 171.011 700.08 170.227C699.376 169.427 698.384 169.027 697.104 169.027ZM705.521 178.867V168.067H706.769V171.691H708.641C711.489 171.691 712.913 172.875 712.913 175.243C712.913 176.299 712.569 177.171 711.881 177.859C711.193 178.531 710.065 178.867 708.497 178.867H705.521ZM708.425 172.867H706.769V177.691H708.401C709.553 177.691 710.369 177.491 710.849 177.091C711.345 176.675 711.593 176.067 711.593 175.267C711.593 173.667 710.537 172.867 708.425 172.867ZM715.385 178.867V168.067H716.633V178.867H715.385Z" fill="#141414"/>
<rect x="536.5" y="220.433" width="212" height="48.6667" rx="6.5" fill="#F6F4F2" stroke="#C5CDCF" stroke-width="3"/>
<path d="M594.68 251.056L596.456 246.232H591.416L589.496 251.416L588.512 251.056L590.288 246.232H587.96V245.128H590.696L592.424 240.472H587.96V239.368H592.832L594.776 234.184L595.76 234.544L593.96 239.368H599L600.944 234.184L601.928 234.52L600.128 239.368H602.552V240.472H599.72L598.016 245.128H602.552V246.232H597.608L595.688 251.416L594.68 251.056ZM593.552 240.472L591.824 245.128H596.864L598.592 240.472H593.552ZM617.923 251.2V235.648H607.507V251.2H606.187V234.4H619.243V251.2H617.923ZM624.61 249.832C623.554 248.776 623.026 247.432 623.026 245.8C623.026 244.168 623.554 242.824 624.61 241.768C625.666 240.712 627.026 240.184 628.69 240.184C630.354 240.184 631.714 240.712 632.77 241.768C633.826 242.824 634.354 244.168 634.354 245.8C634.354 247.432 633.826 248.776 632.77 249.832C631.714 250.888 630.354 251.416 628.69 251.416C627.026 251.416 625.666 250.888 624.61 249.832ZM625.57 242.608C624.754 243.44 624.346 244.504 624.346 245.8C624.346 247.096 624.754 248.16 625.57 248.992C626.386 249.824 627.426 250.24 628.69 250.24C629.97 250.24 631.01 249.832 631.81 249.016C632.626 248.184 633.034 247.112 633.034 245.8C633.034 244.504 632.626 243.44 631.81 242.608C630.994 241.776 629.954 241.36 628.69 241.36C627.442 241.36 626.402 241.776 625.57 242.608ZM635.287 253.936V250.024H636.631C637.015 249.528 637.375 248.704 637.711 247.552C638.063 246.384 638.287 245.016 638.383 243.448L638.551 240.4H645.439V250.024H647.239V253.936H646.063V251.2H636.463V253.936H635.287ZM639.583 243.928C639.471 245.368 639.247 246.648 638.911 247.768C638.591 248.872 638.271 249.624 637.951 250.024H644.191V241.576H639.727L639.583 243.928ZM649.888 242.2L649.552 241.168C650.608 240.512 651.752 240.184 652.984 240.184C654.424 240.184 655.448 240.544 656.056 241.264C656.68 241.984 656.992 243.064 656.992 244.504V251.2H655.744V249.544C654.864 250.744 653.632 251.344 652.048 251.344C651.04 251.344 650.232 251.056 649.624 250.48C649.016 249.888 648.712 249.104 648.712 248.128C648.712 247.072 649.096 246.248 649.864 245.656C650.632 245.064 651.616 244.768 652.816 244.768C654.016 244.768 654.992 245.04 655.744 245.584C655.744 244.976 655.728 244.496 655.696 244.144C655.68 243.792 655.616 243.416 655.504 243.016C655.408 242.6 655.264 242.288 655.072 242.08C654.88 241.872 654.6 241.704 654.232 241.576C653.88 241.432 653.44 241.36 652.912 241.36C651.92 241.36 650.912 241.64 649.888 242.2ZM652.432 250.168C653.776 250.168 654.88 249.6 655.744 248.464V246.664C654.96 246.088 654.024 245.8 652.936 245.8C652.152 245.8 651.472 245.992 650.896 246.376C650.32 246.76 650.032 247.32 650.032 248.056C650.032 248.712 650.256 249.232 650.704 249.616C651.168 249.984 651.744 250.168 652.432 250.168ZM660.568 256V240.4H661.816V241.84C662.232 241.36 662.8 240.968 663.52 240.664C664.256 240.344 665.008 240.184 665.776 240.184C667.312 240.184 668.536 240.688 669.448 241.696C670.36 242.704 670.816 244.016 670.816 245.632C670.816 247.296 670.304 248.68 669.28 249.784C668.256 250.872 666.92 251.416 665.272 251.416C663.8 251.416 662.648 251.112 661.816 250.504V256H660.568ZM665.44 241.36C664.72 241.36 664.024 241.528 663.352 241.864C662.696 242.184 662.184 242.576 661.816 243.04V249.256C662.808 249.912 663.928 250.24 665.176 250.24C666.472 250.24 667.512 249.816 668.296 248.968C669.096 248.12 669.496 247.032 669.496 245.704C669.496 244.392 669.136 243.344 668.416 242.56C667.712 241.76 666.72 241.36 665.44 241.36ZM682.665 240.4L677.337 245.56L683.097 251.2H681.417L675.825 245.632L681.057 240.4H682.665ZM673.857 251.2V240.4H675.105V251.2H673.857ZM686.73 251.2H685.482V240.4H686.73V249.4L693.93 240.4H695.178V251.2H693.93V242.2L686.73 251.2Z" fill="#141414"/>
<path d="M750 243.733H783C788.523 243.733 793 239.256 793 233.733V159M793 159V108V108C793 103.066 789 99.0668 784.067 99.0668H750M793 159V160.367C793 165.89 788.523 170.367 783 170.367H750" stroke="#C5CDCF" stroke-width="5"/>
<path d="M795 132.133H1340.5" stroke="#C5CDCF" stroke-width="5"/>
<path d="M1046 169.333V142C1046 136.477 1041.52 132 1036 132H1034" stroke="#C5CDCF" stroke-width="5" stroke-linecap="round"/>
<path d="M1197 169.333V142C1197 136.477 1192.52 132 1187 132H1185" stroke="#C5CDCF" stroke-width="5" stroke-linecap="round"/>
<path d="M1348 169.333V142C1348 136.477 1343.52 132 1338 132H1336" stroke="#C5CDCF" stroke-width="5" stroke-linecap="round"/>
<path d="M895 168.817V142.65C895 137.127 890.523 132.65 885 132.65H803.092C797.533 132.65 793.042 128.117 793.093 122.558L793.907 33.725C793.958 28.1666 789.467 23.6333 783.908 23.6333H750" stroke="#7C267B" stroke-width="5"/>
</svg>
