<svg width="1569" height="421" viewBox="0 0 1569 421" fill="none" xmlns="http://www.w3.org/2000/svg">
<path d="M1103.21 207.707C1103.6 207.317 1103.6 206.683 1103.21 206.293L1096.84 199.929C1096.45 199.538 1095.82 199.538 1095.43 199.929C1095.04 200.319 1095.04 200.953 1095.43 201.343L1101.09 207L1095.43 212.657C1095.04 213.047 1095.04 213.681 1095.43 214.071C1095.82 214.462 1096.45 214.462 1096.84 214.071L1103.21 207.707ZM1018.5 208L1102.5 208L1102.5 206L1018.5 206L1018.5 208Z" fill="#E4002B"/>
<path d="M1287 41L1287 42L1287 41ZM1294.29 147.707C1294.68 148.097 1295.32 148.097 1295.71 147.707L1302.07 141.343C1302.46 140.952 1302.46 140.319 1302.07 139.929C1301.68 139.538 1301.05 139.538 1300.66 139.929L1295 145.586L1289.34 139.929C1288.95 139.538 1288.32 139.538 1287.93 139.929C1287.54 140.319 1287.54 140.952 1287.93 141.343L1294.29 147.707ZM1018.5 42.0003L1287 42L1287 40L1018.5 40.0003L1018.5 42.0003ZM1294 49L1294 147L1296 147L1296 49L1294 49ZM1287 42C1290.87 42 1294 45.134 1294 49L1296 49C1296 44.0295 1291.97 40 1287 40L1287 42Z" fill="#E4002B"/>
<path d="M752.707 99.2929C752.317 98.9024 751.683 98.9024 751.293 99.2929L744.929 105.657C744.538 106.047 744.538 106.681 744.929 107.071C745.319 107.462 745.953 107.462 746.343 107.071L752 101.414L757.657 107.071C758.047 107.462 758.681 107.462 759.071 107.071C759.462 106.681 759.462 106.047 759.071 105.657L752.707 99.2929ZM753 131L753 100L751 100L751 131L753 131Z" fill="#E4002B"/>
<path d="M750.707 283.293C750.317 282.902 749.683 282.902 749.293 283.293L742.929 289.657C742.538 290.047 742.538 290.681 742.929 291.071C743.319 291.462 743.953 291.462 744.343 291.071L750 285.414L755.657 291.071C756.047 291.462 756.681 291.462 757.071 291.071C757.462 290.681 757.462 290.047 757.071 289.657L750.707 283.293ZM751 315L751 284L749 284L749 315L751 315Z" fill="#E4002B"/>
<path d="M499.207 159.707C499.598 159.317 499.598 158.683 499.207 158.293L492.843 151.929C492.453 151.538 491.819 151.538 491.429 151.929C491.038 152.319 491.038 152.953 491.429 153.343L497.086 159L491.429 164.657C491.038 165.047 491.038 165.681 491.429 166.071C491.819 166.462 492.453 166.462 492.843 166.071L499.207 159.707ZM385 160L498.5 160L498.5 158L385 158L385 160Z" fill="#E4002B"/>
<rect x="540" y="145" width="449" height="124" rx="8" fill="#F6F4F2"/>
<path d="M590.88 196H590.664V179.2H590.928C591.616 179.2 592.256 179.192 592.848 179.176C594.032 179.144 594.736 179.128 594.96 179.128C596.576 179.128 598 179.352 599.232 179.8C600.48 180.232 601.472 180.84 602.208 181.624C602.944 182.392 603.488 183.264 603.84 184.24C604.208 185.2 604.392 186.24 604.392 187.36C604.392 189.888 603.552 191.968 601.872 193.6C600.208 195.232 597.84 196.048 594.768 196.048C594.08 196.048 593.448 196.04 592.872 196.024C592.296 196.008 591.632 196 590.88 196ZM594.912 180.376C594.56 180.376 594.04 180.392 593.352 180.424C592.68 180.44 592.224 180.448 591.984 180.448V194.752C592.512 194.752 593.008 194.76 593.472 194.776C593.936 194.776 594.272 194.784 594.48 194.8C594.688 194.8 594.8 194.8 594.816 194.8C597.424 194.8 599.44 194.112 600.864 192.736C602.288 191.344 603 189.552 603 187.36C603 185.296 602.32 183.616 600.96 182.32C599.584 181.024 597.568 180.376 594.912 180.376ZM612.37 196.216C610.706 196.216 609.346 195.688 608.29 194.632C607.234 193.576 606.706 192.232 606.706 190.6C606.706 188.968 607.234 187.624 608.29 186.568C609.346 185.512 610.706 184.984 612.37 184.984C614.034 184.984 615.394 185.512 616.45 186.568C617.506 187.624 618.034 188.968 618.034 190.6C618.034 192.232 617.506 193.576 616.45 194.632C615.394 195.688 614.034 196.216 612.37 196.216ZM612.37 195.04C613.666 195.04 614.706 194.632 615.49 193.816C616.306 192.984 616.714 191.912 616.714 190.6C616.714 189.304 616.306 188.24 615.49 187.408C614.674 186.576 613.634 186.16 612.37 186.16C611.122 186.16 610.082 186.576 609.25 187.408C608.434 188.24 608.026 189.304 608.026 190.6C608.026 191.896 608.434 192.96 609.25 193.792C610.066 194.624 611.106 195.04 612.37 195.04ZM620.851 191.896V182.2H622.099V185.2H626.443V186.376H622.099V191.704C622.099 193.88 622.907 194.968 624.523 194.968C625.163 194.968 625.739 194.776 626.251 194.392L626.659 195.376C626.003 195.888 625.195 196.144 624.235 196.144C621.979 196.144 620.851 194.728 620.851 191.896ZM631.523 189.256V196H630.203V179.2C630.859 179.2 631.539 179.192 632.243 179.176C632.947 179.16 633.635 179.152 634.307 179.152C635.427 179.152 636.387 179.296 637.187 179.584C638.003 179.872 638.627 180.264 639.059 180.76C639.491 181.256 639.803 181.792 639.995 182.368C640.187 182.928 640.283 183.544 640.283 184.216C640.283 185.672 639.779 186.888 638.771 187.864C637.747 188.856 636.259 189.352 634.307 189.352C633.203 189.352 632.275 189.32 631.523 189.256ZM634.427 180.4C633.899 180.4 632.931 180.416 631.523 180.448V187.984C632.675 188.064 633.587 188.104 634.259 188.104C635.731 188.104 636.867 187.752 637.667 187.048C638.483 186.344 638.891 185.392 638.891 184.192C638.891 183.008 638.515 182.08 637.763 181.408C637.027 180.736 635.915 180.4 634.427 180.4ZM643.474 193.216V179.2H644.722V192.544C644.722 193.392 644.842 194.008 645.082 194.392C645.322 194.776 645.722 194.968 646.282 194.968C646.826 194.968 647.33 194.792 647.794 194.44L648.106 195.424C647.482 195.904 646.722 196.144 645.826 196.144C644.258 196.144 643.474 195.168 643.474 193.216ZM650.584 187L650.248 185.968C651.32 185.312 652.464 184.984 653.68 184.984C655.088 184.984 656.104 185.336 656.728 186.04C657.368 186.744 657.688 187.832 657.688 189.304V196H656.44V194.344C655.56 195.544 654.328 196.144 652.744 196.144C651.736 196.144 650.928 195.856 650.32 195.28C649.712 194.688 649.408 193.904 649.408 192.928C649.408 191.872 649.792 191.048 650.56 190.456C651.312 189.864 652.296 189.568 653.512 189.568C654.728 189.568 655.704 189.84 656.44 190.384C656.44 189.264 656.36 188.408 656.2 187.816C656.072 187.24 655.808 186.832 655.408 186.592C655.024 186.352 654.424 186.208 653.608 186.16C652.632 186.16 651.624 186.44 650.584 187ZM653.128 194.968C654.472 194.968 655.576 194.4 656.44 193.264V191.464C655.656 190.888 654.72 190.6 653.632 190.6C652.816 190.6 652.128 190.8 651.568 191.2C651.008 191.6 650.728 192.152 650.728 192.856C650.728 193.496 650.952 194.008 651.4 194.392C651.848 194.776 652.424 194.968 653.128 194.968ZM662.511 196H661.263V185.2H662.511V186.712C662.959 186.216 663.535 185.808 664.239 185.488C664.959 185.168 665.679 185.008 666.399 185.008C667.903 185.008 669.031 185.4 669.783 186.184C670.535 186.968 670.911 188.184 670.911 189.832V196H669.663V190.072C669.663 187.48 668.479 186.184 666.111 186.184C665.423 186.184 664.751 186.344 664.095 186.664C663.439 186.968 662.911 187.36 662.511 187.84V196ZM674.242 191.896V182.2H675.49V185.2H679.834V186.376H675.49V191.704C675.49 193.88 676.298 194.968 677.914 194.968C678.554 194.968 679.13 194.776 679.642 194.392L680.05 195.376C679.394 195.888 678.586 196.144 677.626 196.144C675.37 196.144 674.242 194.728 674.242 191.896ZM695.674 185.2H697.282L691.954 190.36L697.714 196H696.034L690.442 190.432L695.674 185.2ZM689.722 196H688.474V185.2H689.722V196ZM700.435 187L700.099 185.968C701.171 185.312 702.315 184.984 703.531 184.984C704.939 184.984 705.955 185.336 706.579 186.04C707.219 186.744 707.539 187.832 707.539 189.304V196H706.291V194.344C705.411 195.544 704.179 196.144 702.595 196.144C701.587 196.144 700.779 195.856 700.171 195.28C699.563 194.688 699.259 193.904 699.259 192.928C699.259 191.872 699.643 191.048 700.411 190.456C701.163 189.864 702.147 189.568 703.363 189.568C704.579 189.568 705.555 189.84 706.291 190.384C706.291 189.264 706.211 188.408 706.051 187.816C705.923 187.24 705.659 186.832 705.259 186.592C704.875 186.352 704.275 186.208 703.459 186.16C702.483 186.16 701.475 186.44 700.435 187ZM702.979 194.968C704.323 194.968 705.427 194.4 706.291 193.264V191.464C705.507 190.888 704.571 190.6 703.483 190.6C702.667 190.6 701.979 190.8 701.419 191.2C700.859 191.6 700.579 192.152 700.579 192.856C700.579 193.496 700.803 194.008 701.251 194.392C701.699 194.776 702.275 194.968 702.979 194.968ZM718.315 185.2H719.923L714.595 190.36L720.355 196H718.675L713.083 190.432L718.315 185.2ZM712.363 196H711.115V185.2H712.363V196ZM733.284 196.216C731.62 196.216 730.26 195.688 729.204 194.632C728.148 193.576 727.62 192.232 727.62 190.6C727.62 188.968 728.148 187.624 729.204 186.568C730.26 185.512 731.62 184.984 733.284 184.984C734.948 184.984 736.308 185.512 737.364 186.568C738.42 187.624 738.948 188.968 738.948 190.6C738.948 192.232 738.42 193.576 737.364 194.632C736.308 195.688 734.948 196.216 733.284 196.216ZM733.284 195.04C734.58 195.04 735.62 194.632 736.404 193.816C737.22 192.984 737.628 191.912 737.628 190.6C737.628 189.304 737.22 188.24 736.404 187.408C735.588 186.576 734.548 186.16 733.284 186.16C732.036 186.16 730.996 186.576 730.164 187.408C729.348 188.24 728.94 189.304 728.94 190.6C728.94 191.896 729.348 192.96 730.164 193.792C730.98 194.624 732.02 195.04 733.284 195.04ZM750.405 193.552L751.029 194.464C750.597 195.024 750.013 195.456 749.277 195.76C748.557 196.064 747.781 196.216 746.949 196.216C745.269 196.216 743.893 195.704 742.821 194.68C741.765 193.656 741.237 192.296 741.237 190.6C741.237 189.016 741.749 187.688 742.773 186.616C743.813 185.528 745.093 184.984 746.613 184.984C748.469 184.984 749.869 185.432 750.813 186.328L750.213 187.336C749.365 186.552 748.229 186.16 746.805 186.16C745.653 186.16 744.653 186.584 743.805 187.432C742.973 188.264 742.557 189.32 742.557 190.6C742.557 191.944 742.981 193.024 743.829 193.84C744.677 194.64 745.749 195.04 747.045 195.04C748.437 195.04 749.557 194.544 750.405 193.552ZM763.275 196H762.027V191.104H755.019V196H753.771V185.2H755.019V189.928H762.027V185.2H763.275V196ZM771.956 196.216C770.292 196.216 768.932 195.688 767.876 194.632C766.82 193.576 766.292 192.232 766.292 190.6C766.292 188.968 766.82 187.624 767.876 186.568C768.932 185.512 770.292 184.984 771.956 184.984C773.62 184.984 774.98 185.512 776.036 186.568C777.092 187.624 777.62 188.968 777.62 190.6C777.62 192.232 777.092 193.576 776.036 194.632C774.98 195.688 773.62 196.216 771.956 196.216ZM771.956 195.04C773.252 195.04 774.292 194.632 775.076 193.816C775.892 192.984 776.3 191.912 776.3 190.6C776.3 189.304 775.892 188.24 775.076 187.408C774.26 186.576 773.22 186.16 771.956 186.16C770.708 186.16 769.668 186.576 768.836 187.408C768.02 188.24 767.612 189.304 767.612 190.6C767.612 191.896 768.02 192.96 768.836 193.792C769.652 194.624 770.692 195.04 771.956 195.04ZM780.677 196V185.2C781.205 185.2 781.717 185.192 782.213 185.176C783.237 185.144 783.885 185.128 784.157 185.128C787.133 185.128 788.621 186.056 788.621 187.912C788.621 188.536 788.421 189.08 788.021 189.544C787.637 189.992 787.109 190.272 786.437 190.384V190.432C788.165 190.688 789.029 191.552 789.029 193.024C789.029 195.056 787.421 196.072 784.205 196.072C783.997 196.072 783.365 196.056 782.309 196.024C781.781 196.008 781.237 196 780.677 196ZM784.517 191.032H781.925V194.848C783.173 194.88 783.981 194.896 784.349 194.896C786.589 194.896 787.709 194.232 787.709 192.904C787.709 191.656 786.645 191.032 784.517 191.032ZM784.301 186.304C783.773 186.304 782.981 186.32 781.925 186.352V190H784.781C785.565 190 786.181 189.832 786.629 189.496C787.077 189.144 787.301 188.68 787.301 188.104C787.301 186.904 786.301 186.304 784.301 186.304ZM792.568 187L792.232 185.968C793.304 185.312 794.448 184.984 795.664 184.984C797.072 184.984 798.088 185.336 798.712 186.04C799.352 186.744 799.672 187.832 799.672 189.304V196H798.424V194.344C797.544 195.544 796.312 196.144 794.728 196.144C793.72 196.144 792.912 195.856 792.304 195.28C791.696 194.688 791.392 193.904 791.392 192.928C791.392 191.872 791.776 191.048 792.544 190.456C793.296 189.864 794.28 189.568 795.496 189.568C796.712 189.568 797.688 189.84 798.424 190.384C798.424 189.264 798.344 188.408 798.184 187.816C798.056 187.24 797.792 186.832 797.392 186.592C797.008 186.352 796.408 186.208 795.592 186.16C794.616 186.16 793.608 186.44 792.568 187ZM795.112 194.968C796.456 194.968 797.56 194.4 798.424 193.264V191.464C797.64 190.888 796.704 190.6 795.616 190.6C794.8 190.6 794.112 190.8 793.552 191.2C792.992 191.6 792.712 192.152 792.712 192.856C792.712 193.496 792.936 194.008 793.384 194.392C793.832 194.776 794.408 194.968 795.112 194.968ZM589.416 233.736H588.24V229.824H589.584C590 229.296 590.368 228.44 590.688 227.256C591.024 226.072 591.24 224.736 591.336 223.248L591.504 220.2H598.392V229.824H600.192V233.736H599.016V231H589.416V233.736ZM592.68 221.376L592.536 223.728C592.408 225.2 592.184 226.48 591.864 227.568C591.56 228.624 591.24 229.376 590.904 229.824H597.144V221.376H592.68ZM611.361 231H610.113V221.448H605.553L605.409 223.8C605.201 226.84 604.697 228.856 603.897 229.848C603.257 230.68 602.465 231.096 601.521 231.096L601.425 229.872C601.841 229.872 602.233 229.68 602.601 229.296C603.481 228.48 604.017 226.568 604.209 223.56L604.377 220.2H611.361V231ZM619.602 220.2H622.818V231H621.57V226.968H618.882L615.786 231H614.25L617.658 226.68C616.938 226.568 616.322 226.232 615.81 225.672C615.314 225.096 615.066 224.408 615.066 223.608C615.066 222.568 615.442 221.744 616.194 221.136C616.946 220.512 618.082 220.2 619.602 220.2ZM616.386 223.632C616.386 224.272 616.634 224.792 617.13 225.192C617.626 225.592 618.154 225.792 618.714 225.792H621.57V221.376H619.386C618.394 221.376 617.642 221.584 617.13 222C616.634 222.4 616.386 222.944 616.386 223.632ZM640.792 213.96L641.488 214.896C641.12 215.424 640.672 215.784 640.144 215.976C639.488 216.168 638.792 216.32 638.056 216.432C637.224 216.544 636.472 216.752 635.8 217.056C633.96 217.84 632.928 219.888 632.704 223.2H632.752C633.12 222.32 633.736 221.616 634.6 221.088C635.464 220.544 636.4 220.272 637.408 220.272C638.976 220.272 640.224 220.768 641.152 221.76C642.08 222.736 642.544 224.048 642.544 225.696C642.544 227.216 642.024 228.52 640.984 229.608C639.96 230.68 638.656 231.216 637.072 231.216C635.376 231.216 634.008 230.624 632.968 229.44C631.96 228.256 631.456 226.632 631.456 224.568C631.456 219.832 632.776 216.928 635.416 215.856C636.088 215.584 636.832 215.384 637.648 215.256C638.608 215.096 639.296 214.944 639.712 214.8C640.128 214.64 640.488 214.36 640.792 213.96ZM632.776 224.784C632.776 226.4 633.168 227.68 633.952 228.624C634.736 229.568 635.76 230.04 637.024 230.04C638.24 230.04 639.24 229.624 640.024 228.792C640.824 227.944 641.224 226.928 641.224 225.744C641.224 224.448 640.856 223.408 640.12 222.624C639.384 221.84 638.384 221.448 637.12 221.448C635.984 221.448 635.016 221.784 634.216 222.456C633.448 223.128 632.968 223.904 632.776 224.784ZM653.024 226.008H647.312V224.976H653C652.888 223.776 652.432 222.84 651.632 222.168C650.848 221.496 649.84 221.16 648.608 221.16C647.168 221.16 646 221.608 645.104 222.504L644.552 221.568C645.016 221.088 645.616 220.704 646.352 220.416C647.088 220.128 647.832 219.984 648.584 219.984C650.28 219.984 651.648 220.496 652.688 221.52C653.76 222.544 654.296 223.904 654.296 225.6C654.296 227.2 653.784 228.536 652.76 229.608C651.736 230.68 650.456 231.216 648.92 231.216C647.016 231.216 645.6 230.776 644.672 229.896L645.272 228.96C646.088 229.68 647.272 230.04 648.824 230.04C649.992 230.04 650.96 229.672 651.728 228.936C652.512 228.2 652.944 227.224 653.024 226.008ZM664.549 220.2H666.157L660.829 225.36L666.589 231H664.909L659.317 225.432L664.549 220.2ZM658.597 231H657.349V220.2H658.597V231ZM676.979 228.72L677.387 229.68C676.411 230.704 675.083 231.216 673.403 231.216C671.675 231.216 670.291 230.704 669.251 229.68C668.195 228.656 667.667 227.296 667.667 225.6C667.667 223.968 668.147 222.624 669.107 221.568C670.083 220.512 671.427 219.984 673.139 219.984C674.531 219.984 675.699 220.432 676.643 221.328C677.571 222.208 678.035 223.384 678.035 224.856C678.035 225.24 678.011 225.576 677.963 225.864H669.059C669.107 227.16 669.531 228.184 670.331 228.936C671.131 229.672 672.179 230.04 673.475 230.04C674.979 230.04 676.147 229.6 676.979 228.72ZM673.019 221.16C671.867 221.16 670.931 221.496 670.211 222.168C669.507 222.84 669.099 223.728 668.987 224.832H676.763C676.747 223.696 676.403 222.8 675.731 222.144C675.059 221.488 674.155 221.16 673.019 221.16ZM690.525 231H689.277V226.104H682.269V231H681.021V220.2H682.269V224.928H689.277V220.2H690.525V231ZM693.83 233.736H692.654V229.824H693.998C694.414 229.296 694.782 228.44 695.102 227.256C695.438 226.072 695.654 224.736 695.75 223.248L695.918 220.2H702.806V229.824H704.606V233.736H703.43V231H693.83V233.736ZM697.094 221.376L696.95 223.728C696.822 225.2 696.598 226.48 696.278 227.568C695.974 228.624 695.654 229.376 695.318 229.824H701.558V221.376H697.094ZM707.255 222L706.919 220.968C707.991 220.312 709.135 219.984 710.351 219.984C711.759 219.984 712.775 220.336 713.399 221.04C714.039 221.744 714.359 222.832 714.359 224.304V231H713.111V229.344C712.231 230.544 710.999 231.144 709.415 231.144C708.407 231.144 707.599 230.856 706.991 230.28C706.383 229.688 706.079 228.904 706.079 227.928C706.079 226.872 706.463 226.048 707.231 225.456C707.983 224.864 708.967 224.568 710.183 224.568C711.399 224.568 712.375 224.84 713.111 225.384C713.111 224.264 713.031 223.408 712.871 222.816C712.743 222.24 712.479 221.832 712.079 221.592C711.695 221.352 711.095 221.208 710.279 221.16C709.303 221.16 708.295 221.44 707.255 222ZM709.799 229.968C711.143 229.968 712.247 229.4 713.111 228.264V226.464C712.327 225.888 711.391 225.6 710.303 225.6C709.487 225.6 708.799 225.8 708.239 226.2C707.679 226.6 707.399 227.152 707.399 227.856C707.399 228.496 707.623 229.008 708.071 229.392C708.519 229.776 709.095 229.968 709.799 229.968ZM728.312 235.248L727.496 235.944C724.264 233.16 722.648 229.712 722.648 225.6C722.648 221.632 724.272 218.184 727.52 215.256L728.312 215.952C726.776 217.376 725.656 218.872 724.952 220.44C724.248 222.008 723.896 223.728 723.896 225.6C723.896 227.424 724.272 229.176 725.024 230.856C725.776 232.52 726.872 233.984 728.312 235.248ZM732.304 224.256V231H730.984V214.2C731.64 214.2 732.32 214.192 733.024 214.176C733.728 214.16 734.416 214.152 735.088 214.152C736.208 214.152 737.168 214.296 737.968 214.584C738.784 214.872 739.408 215.264 739.84 215.76C740.272 216.256 740.584 216.792 740.776 217.368C740.968 217.928 741.064 218.544 741.064 219.216C741.064 220.672 740.56 221.888 739.552 222.864C738.528 223.856 737.04 224.352 735.088 224.352C733.984 224.352 733.056 224.32 732.304 224.256ZM735.208 215.4C734.68 215.4 733.712 215.416 732.304 215.448V222.984C733.456 223.064 734.368 223.104 735.04 223.104C736.512 223.104 737.648 222.752 738.448 222.048C739.264 221.344 739.672 220.392 739.672 219.192C739.672 218.008 739.296 217.08 738.544 216.408C737.808 215.736 736.696 215.4 735.208 215.4ZM758.151 231H756.831V223.056H746.343V231H745.023V214.2H746.343V221.808H756.831V214.2H758.151V231ZM764.789 224.256V231H763.469V214.2C764.125 214.2 764.805 214.192 765.509 214.176C766.213 214.16 766.901 214.152 767.573 214.152C768.693 214.152 769.653 214.296 770.453 214.584C771.269 214.872 771.893 215.264 772.325 215.76C772.757 216.256 773.069 216.792 773.261 217.368C773.453 217.928 773.549 218.544 773.549 219.216C773.549 220.672 773.045 221.888 772.037 222.864C771.013 223.856 769.525 224.352 767.573 224.352C766.469 224.352 765.541 224.32 764.789 224.256ZM767.693 215.4C767.165 215.4 766.197 215.416 764.789 215.448V222.984C765.941 223.064 766.853 223.104 767.525 223.104C768.997 223.104 770.133 222.752 770.933 222.048C771.749 221.344 772.157 220.392 772.157 219.192C772.157 218.008 771.781 217.08 771.029 216.408C770.293 215.736 769.181 215.4 767.693 215.4ZM781.3 222.912H776.548V221.808H781.3V217.032H782.476V221.808H787.252V222.912H782.476V227.736H781.3V222.912ZM792.961 231H791.641V214.2H792.985L799.753 223.416L806.257 214.2H807.529V231H806.209V216.264L799.753 225.336H799.537L792.961 216.336V231ZM819.98 220.2H821.396L817.028 231C816.244 232.904 815.564 234.168 814.988 234.792C814.412 235.464 813.74 235.8 812.972 235.8C812.38 235.8 811.764 235.616 811.124 235.248L811.532 234.288C812.028 234.528 812.452 234.648 812.804 234.648C813.348 234.648 813.836 234.408 814.268 233.928C814.7 233.464 815.148 232.68 815.612 231.576L815.852 231L810.524 220.2H812.012L815.708 227.832L816.476 229.512C816.492 229.448 816.692 228.872 817.076 227.784L819.98 220.2ZM832.158 226.824C832.158 226.088 831.942 225.456 831.51 224.928C831.078 224.4 830.542 224 829.902 223.728C829.262 223.456 828.566 223.16 827.814 222.84C827.062 222.504 826.366 222.176 825.726 221.856C825.086 221.536 824.55 221.064 824.118 220.44C823.686 219.8 823.47 219.048 823.47 218.184C823.47 216.968 823.91 215.968 824.79 215.184C825.686 214.384 826.886 213.984 828.39 213.984C830.358 213.984 831.862 214.552 832.902 215.688L832.182 216.672C831.222 215.712 829.974 215.232 828.438 215.232C827.334 215.232 826.462 215.504 825.822 216.048C825.182 216.576 824.862 217.288 824.862 218.184C824.862 218.904 825.078 219.528 825.51 220.056C825.942 220.568 826.478 220.952 827.118 221.208C827.758 221.464 828.454 221.752 829.206 222.072C829.958 222.376 830.654 222.688 831.294 223.008C831.934 223.328 832.47 223.816 832.902 224.472C833.334 225.112 833.55 225.888 833.55 226.8C833.55 228.112 833.038 229.176 832.014 229.992C830.99 230.808 829.718 231.216 828.198 231.216C827.158 231.216 826.134 231 825.126 230.568C824.134 230.104 823.438 229.512 823.038 228.792L823.83 227.88C824.31 228.504 824.95 229.008 825.75 229.392C826.55 229.776 827.358 229.968 828.174 229.968C829.262 229.968 830.198 229.688 830.982 229.128C831.766 228.584 832.158 227.816 832.158 226.824ZM836.14 222.6C836.14 220.152 836.94 218.104 838.54 216.456C840.14 214.808 842.148 213.984 844.564 213.984C846.964 213.984 848.964 214.8 850.564 216.432C852.18 218.048 852.988 220.104 852.988 222.6C852.988 225.224 852.092 227.36 850.3 229.008L851.98 231H850.396L849.364 229.776C847.94 230.736 846.34 231.216 844.564 231.216C842.164 231.216 840.156 230.408 838.54 228.792C836.94 227.176 836.14 225.112 836.14 222.6ZM837.532 222.6C837.532 224.68 838.204 226.432 839.548 227.856C840.908 229.264 842.58 229.968 844.564 229.968C846.036 229.968 847.356 229.576 848.524 228.792L847.036 226.992L847.924 226.2L849.46 228.024C850.884 226.6 851.596 224.792 851.596 222.6C851.596 220.472 850.916 218.72 849.556 217.344C848.212 215.936 846.548 215.232 844.564 215.232C842.564 215.232 840.892 215.936 839.548 217.344C838.204 218.736 837.532 220.488 837.532 222.6ZM867.113 231H856.937V214.2H858.257V229.752H867.113V231ZM868.332 235.944L867.516 235.248C868.956 233.984 870.052 232.52 870.804 230.856C871.556 229.176 871.932 227.424 871.932 225.6C871.932 223.728 871.58 222.008 870.876 220.44C870.172 218.872 869.052 217.376 867.516 215.952L868.308 215.256C871.556 218.184 873.18 221.632 873.18 225.6C873.18 229.712 871.564 233.16 868.332 235.944Z" fill="#141414"/>
<rect y="5" width="344" height="89" rx="8" fill="#F6F4F2"/>
<path d="M69.6518 41.36L58.3478 56H57.1718V39.2H58.4918V53.84L69.7958 39.2H70.9718V56H69.6518V41.36ZM76.7768 56H75.5288V45.2H76.7048L81.1928 51.224L85.5128 45.2H86.6408V56H85.3928V47.096L81.1928 52.928H81.1208L76.7768 47.096V56ZM99.8425 56H98.5945V46.376H91.7065V56H90.4585V45.2H99.8425V56ZM108.526 56.216C106.862 56.216 105.502 55.688 104.446 54.632C103.39 53.576 102.862 52.232 102.862 50.6C102.862 48.968 103.39 47.624 104.446 46.568C105.502 45.512 106.862 44.984 108.526 44.984C110.19 44.984 111.55 45.512 112.606 46.568C113.662 47.624 114.19 48.968 114.19 50.6C114.19 52.232 113.662 53.576 112.606 54.632C111.55 55.688 110.19 56.216 108.526 56.216ZM108.526 55.04C109.822 55.04 110.862 54.632 111.646 53.816C112.462 52.984 112.87 51.912 112.87 50.6C112.87 49.304 112.462 48.24 111.646 47.408C110.83 46.576 109.79 46.16 108.526 46.16C107.278 46.16 106.238 46.576 105.406 47.408C104.59 48.24 104.182 49.304 104.182 50.6C104.182 51.896 104.59 52.96 105.406 53.792C106.222 54.624 107.262 55.04 108.526 55.04ZM118.496 60.8H117.248V45.2H118.496V46.64C118.928 46.16 119.504 45.768 120.224 45.464C120.96 45.144 121.704 44.984 122.456 44.984C123.992 44.984 125.216 45.488 126.128 46.496C127.04 47.504 127.496 48.816 127.496 50.432C127.496 52.112 126.984 53.496 125.96 54.584C124.92 55.672 123.584 56.216 121.952 56.216C120.496 56.216 119.344 55.912 118.496 55.304V60.8ZM122.12 46.16C121.416 46.16 120.728 46.32 120.056 46.64C119.4 46.96 118.88 47.36 118.496 47.84V54.056C119.488 54.712 120.608 55.04 121.856 55.04C123.136 55.04 124.176 54.616 124.976 53.768C125.776 52.92 126.176 51.832 126.176 50.504C126.176 49.176 125.816 48.12 125.096 47.336C124.376 46.552 123.384 46.16 122.12 46.16ZM132.827 46.448H128.531V45.2H138.371V46.448H134.075V56H132.827V46.448ZM148.928 46.448H144.632V45.2H154.472V46.448H150.176V56H148.928V46.448ZM161.19 56.216C159.526 56.216 158.166 55.688 157.11 54.632C156.054 53.576 155.526 52.232 155.526 50.6C155.526 48.968 156.054 47.624 157.11 46.568C158.166 45.512 159.526 44.984 161.19 44.984C162.854 44.984 164.214 45.512 165.27 46.568C166.326 47.624 166.854 48.968 166.854 50.6C166.854 52.232 166.326 53.576 165.27 54.632C164.214 55.688 162.854 56.216 161.19 56.216ZM161.19 55.04C162.486 55.04 163.526 54.632 164.31 53.816C165.126 52.984 165.534 51.912 165.534 50.6C165.534 49.304 165.126 48.24 164.31 47.408C163.494 46.576 162.454 46.16 161.19 46.16C159.942 46.16 158.902 46.576 158.07 47.408C157.254 48.24 156.846 49.304 156.846 50.6C156.846 51.896 157.254 52.96 158.07 53.792C158.886 54.624 159.926 55.04 161.19 55.04ZM169.912 56V45.2C170.44 45.2 170.952 45.192 171.448 45.176C172.472 45.144 173.12 45.128 173.392 45.128C176.368 45.128 177.856 46.056 177.856 47.912C177.856 48.536 177.656 49.08 177.256 49.544C176.872 49.992 176.344 50.272 175.672 50.384V50.432C177.4 50.688 178.264 51.552 178.264 53.024C178.264 55.056 176.656 56.072 173.44 56.072C173.232 56.072 172.6 56.056 171.544 56.024C171.016 56.008 170.472 56 169.912 56ZM173.752 51.032H171.16V54.848C172.408 54.88 173.216 54.896 173.584 54.896C175.824 54.896 176.944 54.232 176.944 52.904C176.944 51.656 175.88 51.032 173.752 51.032ZM173.536 46.304C173.008 46.304 172.216 46.32 171.16 46.352V50H174.016C174.8 50 175.416 49.832 175.864 49.496C176.312 49.144 176.536 48.68 176.536 48.104C176.536 46.904 175.536 46.304 173.536 46.304ZM181.802 47L181.466 45.968C182.538 45.312 183.682 44.984 184.898 44.984C186.306 44.984 187.322 45.336 187.946 46.04C188.586 46.744 188.906 47.832 188.906 49.304V56H187.658V54.344C186.778 55.544 185.546 56.144 183.962 56.144C182.954 56.144 182.146 55.856 181.538 55.28C180.93 54.688 180.626 53.904 180.626 52.928C180.626 51.872 181.01 51.048 181.778 50.456C182.53 49.864 183.514 49.568 184.73 49.568C185.946 49.568 186.922 49.84 187.658 50.384C187.658 49.264 187.578 48.408 187.418 47.816C187.29 47.24 187.026 46.832 186.626 46.592C186.242 46.352 185.642 46.208 184.826 46.16C183.85 46.16 182.842 46.44 181.802 47ZM184.346 54.968C185.69 54.968 186.794 54.4 187.658 53.264V51.464C186.874 50.888 185.938 50.6 184.85 50.6C184.034 50.6 183.346 50.8 182.786 51.2C182.226 51.6 181.946 52.152 181.946 52.856C181.946 53.496 182.17 54.008 182.618 54.392C183.066 54.776 183.642 54.968 184.346 54.968ZM193.73 60.8H192.482V45.2H193.73V46.64C194.162 46.16 194.738 45.768 195.458 45.464C196.194 45.144 196.938 44.984 197.69 44.984C199.226 44.984 200.45 45.488 201.362 46.496C202.274 47.504 202.73 48.816 202.73 50.432C202.73 52.112 202.218 53.496 201.194 54.584C200.154 55.672 198.818 56.216 197.186 56.216C195.73 56.216 194.578 55.912 193.73 55.304V60.8ZM197.354 46.16C196.65 46.16 195.962 46.32 195.29 46.64C194.634 46.96 194.114 47.36 193.73 47.84V54.056C194.722 54.712 195.842 55.04 197.09 55.04C198.37 55.04 199.41 54.616 200.21 53.768C201.01 52.92 201.41 51.832 201.41 50.504C201.41 49.176 201.05 48.12 200.33 47.336C199.61 46.552 198.618 46.16 197.354 46.16ZM210.667 56.216C209.003 56.216 207.643 55.688 206.587 54.632C205.531 53.576 205.003 52.232 205.003 50.6C205.003 48.968 205.531 47.624 206.587 46.568C207.643 45.512 209.003 44.984 210.667 44.984C212.331 44.984 213.691 45.512 214.747 46.568C215.803 47.624 216.331 48.968 216.331 50.6C216.331 52.232 215.803 53.576 214.747 54.632C213.691 55.688 212.331 56.216 210.667 56.216ZM210.667 55.04C211.963 55.04 213.003 54.632 213.787 53.816C214.603 52.984 215.011 51.912 215.011 50.6C215.011 49.304 214.603 48.24 213.787 47.408C212.971 46.576 211.931 46.16 210.667 46.16C209.419 46.16 208.379 46.576 207.547 47.408C206.731 48.24 206.323 49.304 206.323 50.6C206.323 51.896 206.731 52.96 207.547 53.792C208.363 54.624 209.403 55.04 210.667 55.04ZM219.388 56V45.2C219.916 45.2 220.428 45.192 220.924 45.176C221.948 45.144 222.596 45.128 222.868 45.128C225.844 45.128 227.332 46.056 227.332 47.912C227.332 48.536 227.132 49.08 226.732 49.544C226.348 49.992 225.82 50.272 225.148 50.384V50.432C226.876 50.688 227.74 51.552 227.74 53.024C227.74 55.056 226.132 56.072 222.916 56.072C222.708 56.072 222.076 56.056 221.02 56.024C220.492 56.008 219.948 56 219.388 56ZM223.228 51.032H220.636V54.848C221.884 54.88 222.692 54.896 223.06 54.896C225.3 54.896 226.42 54.232 226.42 52.904C226.42 51.656 225.356 51.032 223.228 51.032ZM223.012 46.304C222.484 46.304 221.692 46.32 220.636 46.352V50H223.492C224.276 50 224.892 49.832 225.34 49.496C225.788 49.144 226.012 48.68 226.012 48.104C226.012 46.904 225.012 46.304 223.012 46.304ZM245.039 47L237.839 56H236.591V45.2H237.839V54.2L245.039 45.2H246.287V56H245.039V47ZM253.404 56.216C252.668 56.216 251.852 56.08 250.956 55.808C250.108 55.552 249.508 55.208 249.156 54.776L249.804 53.816C250.22 54.2 250.74 54.504 251.364 54.728C252.004 54.936 252.62 55.04 253.212 55.04C254.22 55.04 255.028 54.84 255.636 54.44C256.244 54.04 256.548 53.504 256.548 52.832C256.548 52.272 256.324 51.832 255.876 51.512C255.428 51.192 254.82 51.032 254.052 51.032H252.228V50H253.932C254.54 50 255.06 49.808 255.492 49.424C255.924 49.04 256.14 48.576 256.14 48.032C256.14 47.424 255.9 46.96 255.42 46.64C254.94 46.32 254.268 46.16 253.404 46.16C252.14 46.16 251.012 46.56 250.02 47.36L249.516 46.4C250.428 45.456 251.78 44.984 253.572 44.984C254.804 44.984 255.756 45.24 256.428 45.752C257.116 46.248 257.46 46.936 257.46 47.816C257.46 49.08 256.812 49.944 255.516 50.408V50.456C256.252 50.52 256.828 50.792 257.244 51.272C257.66 51.736 257.868 52.312 257.868 53C257.868 53.992 257.46 54.776 256.644 55.352C255.828 55.928 254.748 56.216 253.404 56.216ZM266.565 43.112L265.893 42.104L269.709 39.056H270.573V56H269.325V40.88L266.565 43.112ZM288.142 53.384L288.67 54.368C288.094 54.944 287.334 55.4 286.39 55.736C285.462 56.056 284.486 56.216 283.462 56.216C280.966 56.216 278.934 55.432 277.366 53.864C275.814 52.312 275.038 50.224 275.038 47.6C275.038 45.12 275.79 43.072 277.294 41.456C278.798 39.808 280.79 38.984 283.27 38.984C285.398 38.984 287.094 39.512 288.358 40.568L287.734 41.552C286.598 40.672 285.118 40.232 283.294 40.232C281.246 40.232 279.59 40.928 278.326 42.32C277.062 43.68 276.43 45.44 276.43 47.6C276.43 49.792 277.086 51.568 278.398 52.928C279.71 54.288 281.43 54.968 283.558 54.968C285.318 54.968 286.846 54.44 288.142 53.384Z" fill="#141414"/>
<path d="M391.074 28.9H392.172L389.13 32.824L392.352 37H391.2L388.428 33.418L385.656 37H384.558L387.78 32.86L384.738 28.9H385.89L388.464 32.248L391.074 28.9ZM406.142 31.69V37H405.206V31.942C405.206 30.406 404.522 29.638 403.154 29.638C402.038 29.638 401.21 30.088 400.67 30.988C400.694 31.108 400.706 31.3 400.706 31.564V37H399.77V31.528C399.77 30.94 399.59 30.478 399.23 30.142C398.87 29.806 398.372 29.638 397.736 29.638C396.692 29.638 395.87 30.064 395.27 30.916V37H394.334V28.9H395.27V30.034C395.582 29.65 395.99 29.344 396.494 29.116C397.01 28.876 397.538 28.756 398.078 28.756C398.714 28.756 399.248 28.888 399.68 29.152C400.124 29.416 400.418 29.782 400.562 30.25C400.862 29.794 401.276 29.434 401.804 29.17C402.344 28.894 402.914 28.756 403.514 28.756C405.266 28.756 406.142 29.734 406.142 31.69ZM408.818 34.912V24.4H409.754V34.408C409.754 35.044 409.844 35.506 410.024 35.794C410.204 36.082 410.504 36.226 410.924 36.226C411.332 36.226 411.71 36.094 412.058 35.83L412.292 36.568C411.824 36.928 411.254 37.108 410.582 37.108C409.406 37.108 408.818 36.376 408.818 34.912Z" fill="#141414"/>
<path d="M770.988 119H769.998V106.4H771.006L776.082 113.312L780.96 106.4H781.914V119H780.924V107.948L776.082 114.752H775.92L770.988 108.002V119ZM791.252 110.9H792.314L789.038 119C788.45 120.428 787.94 121.376 787.508 121.844C787.076 122.348 786.572 122.6 785.996 122.6C785.552 122.6 785.09 122.462 784.61 122.186L784.916 121.466C785.288 121.646 785.606 121.736 785.87 121.736C786.278 121.736 786.644 121.556 786.968 121.196C787.292 120.848 787.628 120.26 787.976 119.432L788.156 119L784.16 110.9H785.276L788.048 116.624L788.624 117.884C788.636 117.836 788.786 117.404 789.074 116.588L791.252 110.9ZM800.386 115.868C800.386 115.316 800.224 114.842 799.9 114.446C799.576 114.05 799.174 113.75 798.694 113.546C798.214 113.342 797.692 113.12 797.128 112.88C796.564 112.628 796.042 112.382 795.562 112.142C795.082 111.902 794.68 111.548 794.356 111.08C794.032 110.6 793.87 110.036 793.87 109.388C793.87 108.476 794.2 107.726 794.86 107.138C795.532 106.538 796.432 106.238 797.56 106.238C799.036 106.238 800.164 106.664 800.944 107.516L800.404 108.254C799.684 107.534 798.748 107.174 797.596 107.174C796.768 107.174 796.114 107.378 795.634 107.786C795.154 108.182 794.914 108.716 794.914 109.388C794.914 109.928 795.076 110.396 795.4 110.792C795.724 111.176 796.126 111.464 796.606 111.656C797.086 111.848 797.608 112.064 798.172 112.304C798.736 112.532 799.258 112.766 799.738 113.006C800.218 113.246 800.62 113.612 800.944 114.104C801.268 114.584 801.43 115.166 801.43 115.85C801.43 116.834 801.046 117.632 800.278 118.244C799.51 118.856 798.556 119.162 797.416 119.162C796.636 119.162 795.868 119 795.112 118.676C794.368 118.328 793.846 117.884 793.546 117.344L794.14 116.66C794.5 117.128 794.98 117.506 795.58 117.794C796.18 118.082 796.786 118.226 797.398 118.226C798.214 118.226 798.916 118.016 799.504 117.596C800.092 117.188 800.386 116.612 800.386 115.868ZM803.372 112.7C803.372 110.864 803.972 109.328 805.172 108.092C806.372 106.856 807.878 106.238 809.69 106.238C811.49 106.238 812.99 106.85 814.19 108.074C815.402 109.286 816.008 110.828 816.008 112.7C816.008 114.668 815.336 116.27 813.992 117.506L815.252 119H814.064L813.29 118.082C812.222 118.802 811.022 119.162 809.69 119.162C807.89 119.162 806.384 118.556 805.172 117.344C803.972 116.132 803.372 114.584 803.372 112.7ZM804.416 112.7C804.416 114.26 804.92 115.574 805.928 116.642C806.948 117.698 808.202 118.226 809.69 118.226C810.794 118.226 811.784 117.932 812.66 117.344L811.544 115.994L812.21 115.4L813.362 116.768C814.43 115.7 814.964 114.344 814.964 112.7C814.964 111.104 814.454 109.79 813.434 108.758C812.426 107.702 811.178 107.174 809.69 107.174C808.19 107.174 806.936 107.702 805.928 108.758C804.92 109.802 804.416 111.116 804.416 112.7ZM826.603 119H818.971V106.4H819.961V118.064H826.603V119ZM831.871 114.554H827.749V113.672H831.871V114.554ZM836.724 111.836H833.502V110.9H840.882V111.836H837.66V119H836.724V111.836ZM842.781 112.25L842.529 111.476C843.333 110.984 844.191 110.738 845.103 110.738C846.159 110.738 846.921 111.002 847.389 111.53C847.869 112.058 848.109 112.874 848.109 113.978V119H847.173V117.758C846.513 118.658 845.589 119.108 844.401 119.108C843.645 119.108 843.039 118.892 842.583 118.46C842.127 118.016 841.899 117.428 841.899 116.696C841.899 115.904 842.187 115.286 842.763 114.842C843.327 114.398 844.065 114.176 844.977 114.176C845.889 114.176 846.621 114.38 847.173 114.788C847.173 113.948 847.113 113.306 846.993 112.862C846.897 112.43 846.699 112.124 846.399 111.944C846.111 111.764 845.661 111.656 845.049 111.62C844.317 111.62 843.561 111.83 842.781 112.25ZM844.689 118.226C845.697 118.226 846.525 117.8 847.173 116.948V115.598C846.585 115.166 845.883 114.95 845.067 114.95C844.455 114.95 843.939 115.1 843.519 115.4C843.099 115.7 842.889 116.114 842.889 116.642C842.889 117.122 843.057 117.506 843.393 117.794C843.729 118.082 844.161 118.226 844.689 118.226ZM857.199 106.22L857.721 106.922C857.445 107.318 857.109 107.588 856.713 107.732C856.221 107.876 855.699 107.99 855.147 108.074C854.523 108.158 853.959 108.314 853.455 108.542C852.075 109.13 851.301 110.666 851.133 113.15H851.169C851.445 112.49 851.907 111.962 852.555 111.566C853.203 111.158 853.905 110.954 854.661 110.954C855.837 110.954 856.773 111.326 857.469 112.07C858.165 112.802 858.513 113.786 858.513 115.022C858.513 116.162 858.123 117.14 857.343 117.956C856.575 118.76 855.597 119.162 854.409 119.162C853.137 119.162 852.111 118.718 851.331 117.83C850.575 116.942 850.197 115.724 850.197 114.176C850.197 110.624 851.187 108.446 853.167 107.642C853.671 107.438 854.229 107.288 854.841 107.192C855.561 107.072 856.077 106.958 856.389 106.85C856.701 106.73 856.971 106.52 857.199 106.22ZM851.187 114.338C851.187 115.55 851.481 116.51 852.069 117.218C852.657 117.926 853.425 118.28 854.373 118.28C855.285 118.28 856.035 117.968 856.623 117.344C857.223 116.708 857.523 115.946 857.523 115.058C857.523 114.086 857.247 113.306 856.695 112.718C856.143 112.13 855.393 111.836 854.445 111.836C853.593 111.836 852.867 112.088 852.267 112.592C851.691 113.096 851.331 113.678 851.187 114.338ZM867.066 119H866.13V111.836H862.71L862.602 113.6C862.446 115.88 862.068 117.392 861.468 118.136C860.988 118.76 860.394 119.072 859.686 119.072L859.614 118.154C859.926 118.154 860.22 118.01 860.496 117.722C861.156 117.11 861.558 115.676 861.702 113.42L861.828 110.9H867.066V119ZM876.252 112.25L870.852 119H869.916V110.9H870.852V117.65L876.252 110.9H877.188V119H876.252V112.25ZM887.476 119H880.024V110.9H880.96V118.118H886.072V110.9H887.008V118.118H888.358V121.052H887.476V119ZM892.31 119H890.078V110.9H891.014V113.618H892.418C894.554 113.618 895.622 114.506 895.622 116.282C895.622 117.122 895.352 117.788 894.812 118.28C894.272 118.76 893.438 119 892.31 119ZM892.256 114.5H891.014V118.118H892.238C893.09 118.118 893.702 117.968 894.074 117.668C894.446 117.368 894.632 116.912 894.632 116.3C894.632 115.1 893.84 114.5 892.256 114.5ZM898.412 119H897.476V110.9H898.412V119Z" fill="#141414"/>
<path d="M776.722 301.164L777.19 301.848C776.866 302.268 776.428 302.592 775.876 302.82C775.336 303.048 774.754 303.162 774.13 303.162C772.87 303.162 771.838 302.778 771.034 302.01C770.242 301.242 769.846 300.222 769.846 298.95C769.846 297.762 770.23 296.766 770.998 295.962C771.778 295.146 772.738 294.738 773.878 294.738C775.27 294.738 776.32 295.074 777.028 295.746L776.578 296.502C775.942 295.914 775.09 295.62 774.022 295.62C773.158 295.62 772.408 295.938 771.772 296.574C771.148 297.198 770.836 297.99 770.836 298.95C770.836 299.958 771.154 300.768 771.79 301.38C772.426 301.98 773.23 302.28 774.202 302.28C775.246 302.28 776.086 301.908 776.722 301.164ZM783.44 300.876C783.44 300.504 783.284 300.204 782.972 299.976C782.672 299.748 782.3 299.568 781.856 299.436C781.424 299.304 780.986 299.16 780.542 299.004C780.098 298.836 779.72 298.578 779.408 298.23C779.108 297.87 778.958 297.42 778.958 296.88C778.958 296.232 779.198 295.716 779.678 295.332C780.158 294.936 780.788 294.738 781.568 294.738C782.684 294.738 783.53 295.038 784.106 295.638L783.71 296.34C783.158 295.824 782.45 295.566 781.586 295.566C781.106 295.566 780.71 295.692 780.398 295.944C780.098 296.184 779.948 296.49 779.948 296.862C779.948 297.246 780.098 297.564 780.398 297.816C780.71 298.056 781.082 298.248 781.514 298.392C781.958 298.524 782.402 298.668 782.846 298.824C783.29 298.98 783.662 299.226 783.962 299.562C784.274 299.898 784.43 300.324 784.43 300.84C784.43 301.572 784.154 302.142 783.602 302.55C783.062 302.958 782.366 303.162 781.514 303.162C780.986 303.162 780.434 303.042 779.858 302.802C779.318 302.574 778.946 302.304 778.742 301.992L779.264 301.38C779.492 301.656 779.834 301.884 780.29 302.064C780.758 302.244 781.202 302.334 781.622 302.334C782.15 302.334 782.582 302.208 782.918 301.956C783.266 301.692 783.44 301.332 783.44 300.876ZM792.656 294.9H793.646L789.992 303.108H789.344L785.546 294.9H786.644L788.966 299.994C789.302 300.75 789.548 301.344 789.704 301.776C789.908 301.2 790.148 300.588 790.424 299.94L792.656 294.9Z" fill="#141414"/>
<path d="M391.722 245.164L392.19 245.848C391.866 246.268 391.428 246.592 390.876 246.82C390.336 247.048 389.754 247.162 389.13 247.162C387.87 247.162 386.838 246.778 386.034 246.01C385.242 245.242 384.846 244.222 384.846 242.95C384.846 241.762 385.23 240.766 385.998 239.962C386.778 239.146 387.738 238.738 388.878 238.738C390.27 238.738 391.32 239.074 392.028 239.746L391.578 240.502C390.942 239.914 390.09 239.62 389.022 239.62C388.158 239.62 387.408 239.938 386.772 240.574C386.148 241.198 385.836 241.99 385.836 242.95C385.836 243.958 386.154 244.768 386.79 245.38C387.426 245.98 388.23 246.28 389.202 246.28C390.246 246.28 391.086 245.908 391.722 245.164ZM398.44 244.876C398.44 244.504 398.284 244.204 397.972 243.976C397.672 243.748 397.3 243.568 396.856 243.436C396.424 243.304 395.986 243.16 395.542 243.004C395.098 242.836 394.72 242.578 394.408 242.23C394.108 241.87 393.958 241.42 393.958 240.88C393.958 240.232 394.198 239.716 394.678 239.332C395.158 238.936 395.788 238.738 396.568 238.738C397.684 238.738 398.53 239.038 399.106 239.638L398.71 240.34C398.158 239.824 397.45 239.566 396.586 239.566C396.106 239.566 395.71 239.692 395.398 239.944C395.098 240.184 394.948 240.49 394.948 240.862C394.948 241.246 395.098 241.564 395.398 241.816C395.71 242.056 396.082 242.248 396.514 242.392C396.958 242.524 397.402 242.668 397.846 242.824C398.29 242.98 398.662 243.226 398.962 243.562C399.274 243.898 399.43 244.324 399.43 244.84C399.43 245.572 399.154 246.142 398.602 246.55C398.062 246.958 397.366 247.162 396.514 247.162C395.986 247.162 395.434 247.042 394.858 246.802C394.318 246.574 393.946 246.304 393.742 245.992L394.264 245.38C394.492 245.656 394.834 245.884 395.29 246.064C395.758 246.244 396.202 246.334 396.622 246.334C397.15 246.334 397.582 246.208 397.918 245.956C398.266 245.692 398.44 245.332 398.44 244.876ZM407.656 238.9H408.646L404.992 247.108H404.344L400.546 238.9H401.644L403.966 243.994C404.302 244.75 404.548 245.344 404.704 245.776C404.908 245.2 405.148 244.588 405.424 243.94L407.656 238.9Z" fill="#141414"/>
<path d="M385.674 352.25L385.422 351.476C386.226 350.984 387.084 350.738 387.996 350.738C389.052 350.738 389.814 351.002 390.282 351.53C390.762 352.058 391.002 352.874 391.002 353.978V359H390.066V357.758C389.406 358.658 388.482 359.108 387.294 359.108C386.538 359.108 385.932 358.892 385.476 358.46C385.02 358.016 384.792 357.428 384.792 356.696C384.792 355.904 385.08 355.286 385.656 354.842C386.22 354.398 386.958 354.176 387.87 354.176C388.782 354.176 389.514 354.38 390.066 354.788C390.066 353.948 390.006 353.306 389.886 352.862C389.79 352.43 389.592 352.124 389.292 351.944C389.004 351.764 388.554 351.656 387.942 351.62C387.21 351.62 386.454 351.83 385.674 352.25ZM387.582 358.226C388.59 358.226 389.418 357.8 390.066 356.948V355.598C389.478 355.166 388.776 354.95 387.96 354.95C387.348 354.95 386.832 355.1 386.412 355.4C385.992 355.7 385.782 356.114 385.782 356.642C385.782 357.122 385.95 357.506 386.286 357.794C386.622 358.082 387.054 358.226 387.582 358.226ZM394.62 362.6H393.684V350.9H394.62V351.98C394.944 351.62 395.376 351.326 395.916 351.098C396.468 350.858 397.026 350.738 397.59 350.738C398.742 350.738 399.66 351.116 400.344 351.872C401.028 352.628 401.37 353.612 401.37 354.824C401.37 356.084 400.986 357.122 400.218 357.938C399.438 358.754 398.436 359.162 397.212 359.162C396.12 359.162 395.256 358.934 394.62 358.478V362.6ZM397.338 351.62C396.81 351.62 396.294 351.74 395.79 351.98C395.298 352.22 394.908 352.52 394.62 352.88V357.542C395.364 358.034 396.204 358.28 397.14 358.28C398.1 358.28 398.88 357.962 399.48 357.326C400.08 356.69 400.38 355.874 400.38 354.878C400.38 353.882 400.11 353.09 399.57 352.502C399.03 351.914 398.286 351.62 397.338 351.62ZM405.037 359H404.101V350.9H405.037V359ZM403.939 347.75C403.939 347.57 404.005 347.426 404.137 347.318C404.269 347.21 404.425 347.156 404.605 347.156C404.761 347.156 404.899 347.216 405.019 347.336C405.151 347.444 405.217 347.582 405.217 347.75C405.217 347.954 405.157 348.116 405.037 348.236C404.929 348.356 404.785 348.416 404.605 348.416C404.413 348.416 404.251 348.356 404.119 348.236C403.999 348.116 403.939 347.954 403.939 347.75Z" fill="#141414"/>
<rect y="114" width="344" height="89" rx="8" fill="#F6F4F2"/>
<path d="M63.144 150.36L51.84 165H50.664V148.2H51.984V162.84L63.288 148.2H64.464V165H63.144V150.36ZM70.269 165H69.021V154.2H70.197L74.685 160.224L79.005 154.2H80.133V165H78.885V156.096L74.685 161.928H74.613L70.269 156.096V165ZM93.3347 165H92.0867V155.376H85.1987V165H83.9507V154.2H93.3347V165ZM102.019 165.216C100.355 165.216 98.9946 164.688 97.9386 163.632C96.8826 162.576 96.3546 161.232 96.3546 159.6C96.3546 157.968 96.8826 156.624 97.9386 155.568C98.9946 154.512 100.355 153.984 102.019 153.984C103.683 153.984 105.043 154.512 106.099 155.568C107.155 156.624 107.683 157.968 107.683 159.6C107.683 161.232 107.155 162.576 106.099 163.632C105.043 164.688 103.683 165.216 102.019 165.216ZM102.019 164.04C103.315 164.04 104.355 163.632 105.139 162.816C105.955 161.984 106.363 160.912 106.363 159.6C106.363 158.304 105.955 157.24 105.139 156.408C104.323 155.576 103.283 155.16 102.019 155.16C100.771 155.16 99.7306 155.576 98.8986 156.408C98.0826 157.24 97.6746 158.304 97.6746 159.6C97.6746 160.896 98.0826 161.96 98.8986 162.792C99.7146 163.624 100.755 164.04 102.019 164.04ZM111.988 169.8H110.74V154.2H111.988V155.64C112.42 155.16 112.996 154.768 113.716 154.464C114.452 154.144 115.196 153.984 115.948 153.984C117.484 153.984 118.708 154.488 119.62 155.496C120.532 156.504 120.988 157.816 120.988 159.432C120.988 161.112 120.476 162.496 119.452 163.584C118.412 164.672 117.076 165.216 115.444 165.216C113.988 165.216 112.836 164.912 111.988 164.304V169.8ZM115.612 155.16C114.908 155.16 114.22 155.32 113.548 155.64C112.892 155.96 112.372 156.36 111.988 156.84V163.056C112.98 163.712 114.1 164.04 115.348 164.04C116.628 164.04 117.668 163.616 118.468 162.768C119.268 161.92 119.668 160.832 119.668 159.504C119.668 158.176 119.308 157.12 118.588 156.336C117.868 155.552 116.876 155.16 115.612 155.16ZM126.319 155.448H122.023V154.2H131.863V155.448H127.567V165H126.319V155.448ZM149.645 165H139.709V154.2H140.957V163.824H147.773V154.2H149.021V163.824H150.821V167.736H149.645V165ZM161.659 162.72L162.067 163.68C161.091 164.704 159.763 165.216 158.083 165.216C156.355 165.216 154.971 164.704 153.931 163.68C152.875 162.656 152.347 161.296 152.347 159.6C152.347 157.968 152.827 156.624 153.787 155.568C154.763 154.512 156.107 153.984 157.819 153.984C159.211 153.984 160.379 154.432 161.323 155.328C162.251 156.208 162.715 157.384 162.715 158.856C162.715 159.24 162.691 159.576 162.643 159.864H153.739C153.787 161.16 154.211 162.184 155.011 162.936C155.811 163.672 156.859 164.04 158.155 164.04C159.659 164.04 160.827 163.6 161.659 162.72ZM157.699 155.16C156.547 155.16 155.611 155.496 154.891 156.168C154.187 156.84 153.779 157.728 153.667 158.832H161.443C161.427 157.696 161.083 156.8 160.411 156.144C159.739 155.488 158.835 155.16 157.699 155.16ZM175.205 165H173.957V160.104H166.949V165H165.701V154.2H166.949V158.928H173.957V154.2H175.205V165ZM193.086 156L185.886 165H184.638V154.2H185.886V163.2L193.086 154.2H194.334V165H193.086V156ZM208.659 165.216C206.995 165.216 205.635 164.688 204.579 163.632C203.523 162.576 202.995 161.232 202.995 159.6C202.995 157.968 203.523 156.624 204.579 155.568C205.635 154.512 206.995 153.984 208.659 153.984C210.323 153.984 211.683 154.512 212.739 155.568C213.795 156.624 214.323 157.968 214.323 159.6C214.323 161.232 213.795 162.576 212.739 163.632C211.683 164.688 210.323 165.216 208.659 165.216ZM208.659 164.04C209.955 164.04 210.995 163.632 211.779 162.816C212.595 161.984 213.003 160.912 213.003 159.6C213.003 158.304 212.595 157.24 211.779 156.408C210.963 155.576 209.923 155.16 208.659 155.16C207.411 155.16 206.371 155.576 205.539 156.408C204.723 157.24 204.315 158.304 204.315 159.6C204.315 160.896 204.723 161.96 205.539 162.792C206.355 163.624 207.395 164.04 208.659 164.04ZM225.78 162.552L226.404 163.464C225.972 164.024 225.388 164.456 224.652 164.76C223.932 165.064 223.156 165.216 222.324 165.216C220.644 165.216 219.268 164.704 218.196 163.68C217.14 162.656 216.612 161.296 216.612 159.6C216.612 158.016 217.124 156.688 218.148 155.616C219.188 154.528 220.468 153.984 221.988 153.984C223.844 153.984 225.244 154.432 226.188 155.328L225.588 156.336C224.74 155.552 223.604 155.16 222.18 155.16C221.028 155.16 220.028 155.584 219.18 156.432C218.348 157.264 217.932 158.32 217.932 159.6C217.932 160.944 218.356 162.024 219.204 162.84C220.052 163.64 221.124 164.04 222.42 164.04C223.812 164.04 224.932 163.544 225.78 162.552ZM231.764 155.448H227.468V154.2H237.308V155.448H233.012V165H231.764V155.448ZM239.841 156L239.505 154.968C240.577 154.312 241.721 153.984 242.937 153.984C244.345 153.984 245.361 154.336 245.985 155.04C246.625 155.744 246.945 156.832 246.945 158.304V165H245.697V163.344C244.817 164.544 243.585 165.144 242.001 165.144C240.993 165.144 240.185 164.856 239.577 164.28C238.969 163.688 238.665 162.904 238.665 161.928C238.665 160.872 239.049 160.048 239.817 159.456C240.569 158.864 241.553 158.568 242.769 158.568C243.985 158.568 244.961 158.84 245.697 159.384C245.697 158.264 245.617 157.408 245.457 156.816C245.329 156.24 245.065 155.832 244.665 155.592C244.281 155.352 243.681 155.208 242.865 155.16C241.889 155.16 240.881 155.44 239.841 156ZM242.385 163.968C243.729 163.968 244.833 163.4 245.697 162.264V160.464C244.913 159.888 243.977 159.6 242.889 159.6C242.073 159.6 241.385 159.8 240.825 160.2C240.265 160.6 239.985 161.152 239.985 161.856C239.985 162.496 240.209 163.008 240.657 163.392C241.105 163.776 241.681 163.968 242.385 163.968ZM253.233 155.448H248.937V154.2H258.777V155.448H254.481V165H253.233V155.448ZM268.174 154.2H269.782L264.454 159.36L270.214 165H268.534L262.942 159.432L268.174 154.2ZM262.222 165H260.974V154.2H262.222V165ZM276.956 165.216C275.292 165.216 273.932 164.688 272.876 163.632C271.82 162.576 271.292 161.232 271.292 159.6C271.292 157.968 271.82 156.624 272.876 155.568C273.932 154.512 275.292 153.984 276.956 153.984C278.62 153.984 279.98 154.512 281.036 155.568C282.092 156.624 282.62 157.968 282.62 159.6C282.62 161.232 282.092 162.576 281.036 163.632C279.98 164.688 278.62 165.216 276.956 165.216ZM276.956 164.04C278.252 164.04 279.292 163.632 280.076 162.816C280.892 161.984 281.3 160.912 281.3 159.6C281.3 158.304 280.892 157.24 280.076 156.408C279.26 155.576 278.22 155.16 276.956 155.16C275.708 155.16 274.668 155.576 273.836 156.408C273.02 157.24 272.612 158.304 272.612 159.6C272.612 160.896 273.02 161.96 273.836 162.792C274.652 163.624 275.692 164.04 276.956 164.04ZM285.677 165V154.2C286.205 154.2 286.717 154.192 287.213 154.176C288.237 154.144 288.885 154.128 289.157 154.128C292.133 154.128 293.621 155.056 293.621 156.912C293.621 157.536 293.421 158.08 293.021 158.544C292.637 158.992 292.109 159.272 291.437 159.384V159.432C293.165 159.688 294.029 160.552 294.029 162.024C294.029 164.056 292.421 165.072 289.205 165.072C288.997 165.072 288.365 165.056 287.309 165.024C286.781 165.008 286.237 165 285.677 165ZM289.517 160.032H286.925V163.848C288.173 163.88 288.981 163.896 289.349 163.896C291.589 163.896 292.709 163.232 292.709 161.904C292.709 160.656 291.645 160.032 289.517 160.032ZM289.301 155.304C288.773 155.304 287.981 155.32 286.925 155.352V159H289.781C290.565 159 291.181 158.832 291.629 158.496C292.077 158.144 292.301 157.68 292.301 157.104C292.301 155.904 291.301 155.304 289.301 155.304Z" fill="#141414"/>
<rect y="223" width="344" height="89" rx="8" fill="#F6F4F2"/>
<path d="M99.101 259.36L87.797 274H86.621V257.2H87.941V271.84L99.245 257.2H100.421V274H99.101V259.36ZM106.226 274H104.978V263.2H106.154L110.642 269.224L114.962 263.2H116.09V274H114.842V265.096L110.642 270.928H110.57L106.226 265.096V274ZM129.292 274H128.044V264.376H121.156V274H119.908V263.2H129.292V274ZM137.976 274.216C136.312 274.216 134.952 273.688 133.896 272.632C132.84 271.576 132.312 270.232 132.312 268.6C132.312 266.968 132.84 265.624 133.896 264.568C134.952 263.512 136.312 262.984 137.976 262.984C139.64 262.984 141 263.512 142.056 264.568C143.112 265.624 143.64 266.968 143.64 268.6C143.64 270.232 143.112 271.576 142.056 272.632C141 273.688 139.64 274.216 137.976 274.216ZM137.976 273.04C139.272 273.04 140.312 272.632 141.096 271.816C141.912 270.984 142.32 269.912 142.32 268.6C142.32 267.304 141.912 266.24 141.096 265.408C140.28 264.576 139.24 264.16 137.976 264.16C136.728 264.16 135.688 264.576 134.856 265.408C134.04 266.24 133.632 267.304 133.632 268.6C133.632 269.896 134.04 270.96 134.856 271.792C135.672 272.624 136.712 273.04 137.976 273.04ZM147.945 278.8H146.697V263.2H147.945V264.64C148.377 264.16 148.953 263.768 149.673 263.464C150.409 263.144 151.153 262.984 151.905 262.984C153.441 262.984 154.665 263.488 155.577 264.496C156.489 265.504 156.945 266.816 156.945 268.432C156.945 270.112 156.433 271.496 155.409 272.584C154.369 273.672 153.033 274.216 151.401 274.216C149.945 274.216 148.793 273.912 147.945 273.304V278.8ZM151.569 264.16C150.865 264.16 150.177 264.32 149.505 264.64C148.849 264.96 148.329 265.36 147.945 265.84V272.056C148.937 272.712 150.057 273.04 151.305 273.04C152.585 273.04 153.625 272.616 154.425 271.768C155.225 270.92 155.625 269.832 155.625 268.504C155.625 267.176 155.265 266.12 154.545 265.336C153.825 264.552 152.833 264.16 151.569 264.16ZM162.276 264.448H157.98V263.2H167.82V264.448H163.524V274H162.276V264.448ZM180.562 274.216C178.898 274.216 177.538 273.688 176.482 272.632C175.426 271.576 174.898 270.232 174.898 268.6C174.898 266.968 175.426 265.624 176.482 264.568C177.538 263.512 178.898 262.984 180.562 262.984C182.226 262.984 183.586 263.512 184.642 264.568C185.698 265.624 186.226 266.968 186.226 268.6C186.226 270.232 185.698 271.576 184.642 272.632C183.586 273.688 182.226 274.216 180.562 274.216ZM180.562 273.04C181.858 273.04 182.898 272.632 183.682 271.816C184.498 270.984 184.906 269.912 184.906 268.6C184.906 267.304 184.498 266.24 183.682 265.408C182.866 264.576 181.826 264.16 180.562 264.16C179.314 264.16 178.274 264.576 177.442 265.408C176.626 266.24 176.218 267.304 176.218 268.6C176.218 269.896 176.626 270.96 177.442 271.792C178.258 272.624 179.298 273.04 180.562 273.04ZM191.573 264.448H187.277V263.2H197.117V264.448H192.821V274H191.573V264.448ZM202.65 274.216C201.914 274.216 201.098 274.08 200.202 273.808C199.354 273.552 198.754 273.208 198.402 272.776L199.05 271.816C199.466 272.2 199.986 272.504 200.61 272.728C201.25 272.936 201.866 273.04 202.458 273.04C203.466 273.04 204.274 272.84 204.882 272.44C205.49 272.04 205.794 271.504 205.794 270.832C205.794 270.272 205.57 269.832 205.122 269.512C204.674 269.192 204.066 269.032 203.298 269.032H201.474V268H203.178C203.786 268 204.306 267.808 204.738 267.424C205.17 267.04 205.386 266.576 205.386 266.032C205.386 265.424 205.146 264.96 204.666 264.64C204.186 264.32 203.514 264.16 202.65 264.16C201.386 264.16 200.258 264.56 199.266 265.36L198.762 264.4C199.674 263.456 201.026 262.984 202.818 262.984C204.05 262.984 205.002 263.24 205.674 263.752C206.362 264.248 206.706 264.936 206.706 265.816C206.706 267.08 206.058 267.944 204.762 268.408V268.456C205.498 268.52 206.074 268.792 206.49 269.272C206.906 269.736 207.114 270.312 207.114 271C207.114 271.992 206.706 272.776 205.89 273.352C205.074 273.928 203.994 274.216 202.65 274.216ZM213.282 274H210.306V263.2H211.554V266.824H213.426C216.274 266.824 217.698 268.008 217.698 270.376C217.698 271.496 217.338 272.384 216.618 273.04C215.898 273.68 214.786 274 213.282 274ZM213.21 268H211.554V272.824H213.186C214.322 272.824 215.138 272.624 215.634 272.224C216.13 271.824 216.378 271.216 216.378 270.4C216.378 268.8 215.322 268 213.21 268ZM221.418 274H220.17V263.2H221.418V274ZM225.212 274V263.2C225.74 263.2 226.252 263.192 226.748 263.176C227.772 263.144 228.42 263.128 228.692 263.128C231.668 263.128 233.156 264.056 233.156 265.912C233.156 266.536 232.956 267.08 232.556 267.544C232.172 267.992 231.644 268.272 230.972 268.384V268.432C232.7 268.688 233.564 269.552 233.564 271.024C233.564 273.056 231.956 274.072 228.74 274.072C228.532 274.072 227.9 274.056 226.844 274.024C226.316 274.008 225.772 274 225.212 274ZM229.052 269.032H226.46V272.848C227.708 272.88 228.516 272.896 228.884 272.896C231.124 272.896 232.244 272.232 232.244 270.904C232.244 269.656 231.18 269.032 229.052 269.032ZM228.836 264.304C228.308 264.304 227.516 264.32 226.46 264.352V268H229.316C230.1 268 230.716 267.832 231.164 267.496C231.612 267.144 231.836 266.68 231.836 266.104C231.836 264.904 230.836 264.304 228.836 264.304ZM241.663 274.216C239.999 274.216 238.639 273.688 237.583 272.632C236.527 271.576 235.999 270.232 235.999 268.6C235.999 266.968 236.527 265.624 237.583 264.568C238.639 263.512 239.999 262.984 241.663 262.984C243.327 262.984 244.687 263.512 245.743 264.568C246.799 265.624 247.327 266.968 247.327 268.6C247.327 270.232 246.799 271.576 245.743 272.632C244.687 273.688 243.327 274.216 241.663 274.216ZM241.663 273.04C242.959 273.04 243.999 272.632 244.783 271.816C245.599 270.984 246.007 269.912 246.007 268.6C246.007 267.304 245.599 266.24 244.783 265.408C243.967 264.576 242.927 264.16 241.663 264.16C240.415 264.16 239.375 264.576 238.543 265.408C237.727 266.24 237.319 267.304 237.319 268.6C237.319 269.896 237.727 270.96 238.543 271.792C239.359 272.624 240.399 273.04 241.663 273.04ZM250.384 274V263.2C250.912 263.2 251.424 263.192 251.92 263.176C252.944 263.144 253.592 263.128 253.864 263.128C256.84 263.128 258.328 264.056 258.328 265.912C258.328 266.536 258.128 267.08 257.728 267.544C257.344 267.992 256.816 268.272 256.144 268.384V268.432C257.872 268.688 258.736 269.552 258.736 271.024C258.736 273.056 257.128 274.072 253.912 274.072C253.704 274.072 253.072 274.056 252.016 274.024C251.488 274.008 250.944 274 250.384 274ZM254.224 269.032H251.632V272.848C252.88 272.88 253.688 272.896 254.056 272.896C256.296 272.896 257.416 272.232 257.416 270.904C257.416 269.656 256.352 269.032 254.224 269.032ZM254.008 264.304C253.48 264.304 252.688 264.32 251.632 264.352V268H254.488C255.272 268 255.888 267.832 256.336 267.496C256.784 267.144 257.008 266.68 257.008 266.104C257.008 264.904 256.008 264.304 254.008 264.304Z" fill="#141414"/>
<rect y="332" width="344" height="89" rx="8" fill="#F6F4F2"/>
<path d="M100.203 368.36L88.8986 383H87.7226V366.2H89.0426V380.84L100.347 366.2H101.523V383H100.203V368.36ZM107.328 383H106.08V372.2H107.256L111.744 378.224L116.064 372.2H117.192V383H115.944V374.096L111.744 379.928H111.672L107.328 374.096V383ZM130.393 383H129.145V373.376H122.257V383H121.009V372.2H130.393V383ZM139.077 383.216C137.413 383.216 136.053 382.688 134.997 381.632C133.941 380.576 133.413 379.232 133.413 377.6C133.413 375.968 133.941 374.624 134.997 373.568C136.053 372.512 137.413 371.984 139.077 371.984C140.741 371.984 142.101 372.512 143.157 373.568C144.213 374.624 144.741 375.968 144.741 377.6C144.741 379.232 144.213 380.576 143.157 381.632C142.101 382.688 140.741 383.216 139.077 383.216ZM139.077 382.04C140.373 382.04 141.413 381.632 142.197 380.816C143.013 379.984 143.421 378.912 143.421 377.6C143.421 376.304 143.013 375.24 142.197 374.408C141.381 373.576 140.341 373.16 139.077 373.16C137.829 373.16 136.789 373.576 135.957 374.408C135.141 375.24 134.733 376.304 134.733 377.6C134.733 378.896 135.141 379.96 135.957 380.792C136.773 381.624 137.813 382.04 139.077 382.04ZM149.046 387.8H147.798V372.2H149.046V373.64C149.478 373.16 150.054 372.768 150.774 372.464C151.51 372.144 152.254 371.984 153.006 371.984C154.542 371.984 155.766 372.488 156.678 373.496C157.59 374.504 158.046 375.816 158.046 377.432C158.046 379.112 157.534 380.496 156.51 381.584C155.47 382.672 154.134 383.216 152.502 383.216C151.046 383.216 149.894 382.912 149.046 382.304V387.8ZM152.67 373.16C151.966 373.16 151.278 373.32 150.606 373.64C149.95 373.96 149.43 374.36 149.046 374.84V381.056C150.038 381.712 151.158 382.04 152.406 382.04C153.686 382.04 154.726 381.616 155.526 380.768C156.326 379.92 156.726 378.832 156.726 377.504C156.726 376.176 156.366 375.12 155.646 374.336C154.926 373.552 153.934 373.16 152.67 373.16ZM163.378 373.448H159.082V372.2H168.922V373.448H164.626V383H163.378V373.448ZM186.895 367.448H176.311V366.2H188.767V367.04L177.655 381.752H189.007V383H175.831V382.16L186.895 367.448ZM195.538 383.216C193.874 383.216 192.514 382.688 191.458 381.632C190.402 380.576 189.874 379.232 189.874 377.6C189.874 375.968 190.402 374.624 191.458 373.568C192.514 372.512 193.874 371.984 195.538 371.984C197.202 371.984 198.562 372.512 199.618 373.568C200.674 374.624 201.202 375.968 201.202 377.6C201.202 379.232 200.674 380.576 199.618 381.632C198.562 382.688 197.202 383.216 195.538 383.216ZM195.538 382.04C196.834 382.04 197.874 381.632 198.658 380.816C199.474 379.984 199.882 378.912 199.882 377.6C199.882 376.304 199.474 375.24 198.658 374.408C197.842 373.576 196.802 373.16 195.538 373.16C194.29 373.16 193.25 373.576 192.418 374.408C191.602 375.24 191.194 376.304 191.194 377.6C191.194 378.896 191.602 379.96 192.418 380.792C193.234 381.624 194.274 382.04 195.538 382.04ZM209.155 383.216C207.491 383.216 206.131 382.688 205.075 381.632C204.019 380.576 203.491 379.232 203.491 377.6C203.491 375.968 204.019 374.624 205.075 373.568C206.131 372.512 207.491 371.984 209.155 371.984C210.819 371.984 212.179 372.512 213.235 373.568C214.291 374.624 214.819 375.968 214.819 377.6C214.819 379.232 214.291 380.576 213.235 381.632C212.179 382.688 210.819 383.216 209.155 383.216ZM209.155 382.04C210.451 382.04 211.491 381.632 212.275 380.816C213.091 379.984 213.499 378.912 213.499 377.6C213.499 376.304 213.091 375.24 212.275 374.408C211.459 373.576 210.419 373.16 209.155 373.16C207.907 373.16 206.867 373.576 206.035 374.408C205.219 375.24 204.811 376.304 204.811 377.6C204.811 378.896 205.219 379.96 206.035 380.792C206.851 381.624 207.891 382.04 209.155 382.04ZM233.62 375.92V383H232.372V376.256C232.372 374.208 231.46 373.184 229.636 373.184C228.148 373.184 227.044 373.784 226.324 374.984C226.356 375.144 226.372 375.4 226.372 375.752V383H225.124V375.704C225.124 374.92 224.884 374.304 224.404 373.856C223.924 373.408 223.26 373.184 222.412 373.184C221.02 373.184 219.924 373.752 219.124 374.888V383H217.876V372.2H219.124V373.712C219.54 373.2 220.084 372.792 220.756 372.488C221.444 372.168 222.148 372.008 222.868 372.008C223.716 372.008 224.428 372.184 225.004 372.536C225.596 372.888 225.988 373.376 226.18 374C226.58 373.392 227.132 372.912 227.836 372.56C228.556 372.192 229.316 372.008 230.116 372.008C232.452 372.008 233.62 373.312 233.62 375.92ZM242.085 383.216C240.421 383.216 239.061 382.688 238.005 381.632C236.949 380.576 236.421 379.232 236.421 377.6C236.421 375.968 236.949 374.624 238.005 373.568C239.061 372.512 240.421 371.984 242.085 371.984C243.749 371.984 245.109 372.512 246.165 373.568C247.221 374.624 247.749 375.968 247.749 377.6C247.749 379.232 247.221 380.576 246.165 381.632C245.109 382.688 243.749 383.216 242.085 383.216ZM242.085 382.04C243.381 382.04 244.421 381.632 245.205 380.816C246.021 379.984 246.429 378.912 246.429 377.6C246.429 376.304 246.021 375.24 245.205 374.408C244.389 373.576 243.349 373.16 242.085 373.16C240.837 373.16 239.797 373.576 238.965 374.408C238.149 375.24 237.741 376.304 237.741 377.6C237.741 378.896 238.149 379.96 238.965 380.792C239.781 381.624 240.821 382.04 242.085 382.04ZM256.398 380.168C256.398 379.672 256.19 379.272 255.774 378.968C255.374 378.664 254.878 378.424 254.286 378.248C253.71 378.072 253.126 377.88 252.534 377.672C251.942 377.448 251.438 377.104 251.022 376.64C250.622 376.16 250.422 375.56 250.422 374.84C250.422 373.976 250.742 373.288 251.382 372.776C252.022 372.248 252.862 371.984 253.902 371.984C255.39 371.984 256.518 372.384 257.286 373.184L256.758 374.12C256.022 373.432 255.078 373.088 253.926 373.088C253.286 373.088 252.758 373.256 252.342 373.592C251.942 373.912 251.742 374.32 251.742 374.816C251.742 375.328 251.942 375.752 252.342 376.088C252.758 376.408 253.254 376.664 253.83 376.856C254.422 377.032 255.014 377.224 255.606 377.432C256.198 377.64 256.694 377.968 257.094 378.416C257.51 378.864 257.718 379.432 257.718 380.12C257.718 381.096 257.35 381.856 256.614 382.4C255.894 382.944 254.966 383.216 253.83 383.216C253.126 383.216 252.39 383.056 251.622 382.736C250.902 382.432 250.406 382.072 250.134 381.656L250.83 380.84C251.134 381.208 251.59 381.512 252.198 381.752C252.822 381.992 253.414 382.112 253.974 382.112C254.678 382.112 255.254 381.944 255.702 381.608C256.166 381.256 256.398 380.776 256.398 380.168Z" fill="#141414"/>
<rect x="533" y="332" width="457" height="89" rx="8" fill="#F6F4F2"/>
<path d="M596.144 368.36L584.84 383H583.664V366.2H584.984V380.84L596.288 366.2H597.464V383H596.144V368.36ZM603.269 383H602.021V372.2H603.197L607.685 378.224L612.005 372.2H613.133V383H611.885V374.096L607.685 379.928H607.613L603.269 374.096V383ZM626.335 383H625.087V373.376H618.199V383H616.951V372.2H626.335V383ZM635.019 383.216C633.355 383.216 631.995 382.688 630.939 381.632C629.883 380.576 629.355 379.232 629.355 377.6C629.355 375.968 629.883 374.624 630.939 373.568C631.995 372.512 633.355 371.984 635.019 371.984C636.683 371.984 638.043 372.512 639.099 373.568C640.155 374.624 640.683 375.968 640.683 377.6C640.683 379.232 640.155 380.576 639.099 381.632C638.043 382.688 636.683 383.216 635.019 383.216ZM635.019 382.04C636.315 382.04 637.355 381.632 638.139 380.816C638.955 379.984 639.363 378.912 639.363 377.6C639.363 376.304 638.955 375.24 638.139 374.408C637.323 373.576 636.283 373.16 635.019 373.16C633.771 373.16 632.731 373.576 631.899 374.408C631.083 375.24 630.675 376.304 630.675 377.6C630.675 378.896 631.083 379.96 631.899 380.792C632.715 381.624 633.755 382.04 635.019 382.04ZM644.988 387.8H643.74V372.2H644.988V373.64C645.42 373.16 645.996 372.768 646.716 372.464C647.452 372.144 648.196 371.984 648.948 371.984C650.484 371.984 651.708 372.488 652.62 373.496C653.532 374.504 653.988 375.816 653.988 377.432C653.988 379.112 653.476 380.496 652.452 381.584C651.412 382.672 650.076 383.216 648.444 383.216C646.988 383.216 645.836 382.912 644.988 382.304V387.8ZM648.612 373.16C647.908 373.16 647.22 373.32 646.548 373.64C645.892 373.96 645.372 374.36 644.988 374.84V381.056C645.98 381.712 647.1 382.04 648.348 382.04C649.628 382.04 650.668 381.616 651.468 380.768C652.268 379.92 652.668 378.832 652.668 377.504C652.668 376.176 652.308 375.12 651.588 374.336C650.868 373.552 649.876 373.16 648.612 373.16ZM659.319 373.448H655.023V372.2H664.863V373.448H660.567V383H659.319V373.448ZM679.909 372.2H681.517L676.189 377.36L681.949 383H680.269L674.677 377.432L679.909 372.2ZM673.957 383H672.709V372.2H673.957V383ZM688.69 383.216C687.026 383.216 685.666 382.688 684.61 381.632C683.554 380.576 683.026 379.232 683.026 377.6C683.026 375.968 683.554 374.624 684.61 373.568C685.666 372.512 687.026 371.984 688.69 371.984C690.354 371.984 691.714 372.512 692.77 373.568C693.826 374.624 694.354 375.968 694.354 377.6C694.354 379.232 693.826 380.576 692.77 381.632C691.714 382.688 690.354 383.216 688.69 383.216ZM688.69 382.04C689.986 382.04 691.026 381.632 691.81 380.816C692.626 379.984 693.034 378.912 693.034 377.6C693.034 376.304 692.626 375.24 691.81 374.408C690.994 373.576 689.954 373.16 688.69 373.16C687.442 373.16 686.402 373.576 685.57 374.408C684.754 375.24 684.346 376.304 684.346 377.6C684.346 378.896 684.754 379.96 685.57 380.792C686.386 381.624 687.426 382.04 688.69 382.04ZM706.916 383H705.668V378.104H698.66V383H697.412V372.2H698.66V376.928H705.668V372.2H706.916V383ZM717.397 387.8H716.149V383.216H715.789C714.013 383.216 712.589 382.696 711.517 381.656C710.461 380.6 709.933 379.248 709.933 377.6C709.933 376.064 710.461 374.744 711.517 373.64C712.589 372.536 714.005 371.984 715.765 371.984H716.149V366.2H717.397V371.984H717.805C719.533 371.984 720.933 372.52 722.005 373.592C723.077 374.648 723.613 375.984 723.613 377.6C723.613 379.232 723.093 380.584 722.053 381.656C721.013 382.696 719.597 383.216 717.805 383.216H717.397V387.8ZM711.253 377.6C711.253 378.896 711.661 379.968 712.477 380.816C713.325 381.632 714.453 382.04 715.861 382.04H716.149V373.16H715.741C714.365 373.16 713.269 373.584 712.453 374.432C711.653 375.28 711.253 376.336 711.253 377.6ZM717.805 373.16H717.397V382.04H717.709C719.133 382.04 720.253 381.64 721.069 380.84C721.885 380.024 722.293 378.944 722.293 377.6C722.293 376.368 721.885 375.32 721.069 374.456C720.269 373.592 719.181 373.16 717.805 373.16ZM735.11 374L727.91 383H726.662V372.2H727.91V381.2L735.11 372.2H736.358V383H735.11V374ZM741.386 383H740.138V372.2H746.642V373.376H741.386V383ZM756.894 372.2H758.31L753.942 383C753.158 384.904 752.478 386.168 751.902 386.792C751.326 387.464 750.654 387.8 749.886 387.8C749.294 387.8 748.678 387.616 748.038 387.248L748.446 386.288C748.942 386.528 749.366 386.648 749.718 386.648C750.262 386.648 750.75 386.408 751.182 385.928C751.614 385.464 752.062 384.68 752.526 383.576L752.766 383L747.438 372.2H748.926L752.622 379.832L753.39 381.512C753.406 381.448 753.606 380.872 753.99 379.784L756.894 372.2ZM761.8 387.8H760.552V372.2H761.8V373.64C762.232 373.16 762.808 372.768 763.528 372.464C764.264 372.144 765.008 371.984 765.76 371.984C767.296 371.984 768.52 372.488 769.432 373.496C770.344 374.504 770.8 375.816 770.8 377.432C770.8 379.112 770.288 380.496 769.264 381.584C768.224 382.672 766.888 383.216 765.256 383.216C763.8 383.216 762.648 382.912 761.8 382.304V387.8ZM765.424 373.16C764.72 373.16 764.032 373.32 763.36 373.64C762.704 373.96 762.184 374.36 761.8 374.84V381.056C762.792 381.712 763.912 382.04 765.16 382.04C766.44 382.04 767.48 381.616 768.28 380.768C769.08 379.92 769.48 378.832 769.48 377.504C769.48 376.176 769.12 375.12 768.4 374.336C767.68 373.552 766.688 373.16 765.424 373.16ZM774.177 374L773.841 372.968C774.913 372.312 776.057 371.984 777.273 371.984C778.681 371.984 779.697 372.336 780.321 373.04C780.961 373.744 781.281 374.832 781.281 376.304V383H780.033V381.344C779.153 382.544 777.921 383.144 776.337 383.144C775.329 383.144 774.521 382.856 773.913 382.28C773.305 381.688 773.001 380.904 773.001 379.928C773.001 378.872 773.385 378.048 774.153 377.456C774.905 376.864 775.889 376.568 777.105 376.568C778.321 376.568 779.297 376.84 780.033 377.384C780.033 376.264 779.953 375.408 779.793 374.816C779.665 374.24 779.401 373.832 779.001 373.592C778.617 373.352 778.017 373.208 777.201 373.16C776.225 373.16 775.217 373.44 774.177 374ZM776.721 381.968C778.065 381.968 779.169 381.4 780.033 380.264V378.464C779.249 377.888 778.313 377.6 777.225 377.6C776.409 377.6 775.721 377.8 775.161 378.2C774.601 378.6 774.321 379.152 774.321 379.856C774.321 380.496 774.545 381.008 774.993 381.392C775.441 381.776 776.017 381.968 776.721 381.968ZM794.793 383H784.857V372.2H786.105V381.824H792.921V372.2H794.169V381.824H795.969V385.736H794.793V383ZM806.711 374L799.511 383H798.263V372.2H799.511V381.2L806.711 372.2H807.959V383H806.711V374ZM820.188 374L812.988 383H811.74V372.2H812.988V381.2L820.188 372.2H821.436V383H820.188V374ZM813.396 366.584H814.524C814.524 367.176 814.732 367.68 815.148 368.096C815.564 368.496 816.1 368.696 816.756 368.696C817.38 368.696 817.892 368.496 818.292 368.096C818.692 367.68 818.892 367.176 818.892 366.584H820.02C820.02 367.464 819.716 368.2 819.108 368.792C818.5 369.368 817.716 369.656 816.756 369.656C815.732 369.656 814.916 369.376 814.308 368.816C813.7 368.24 813.396 367.496 813.396 366.584ZM837.561 387.8H836.313V383.216H835.953C834.177 383.216 832.753 382.696 831.681 381.656C830.625 380.6 830.097 379.248 830.097 377.6C830.097 376.064 830.625 374.744 831.681 373.64C832.753 372.536 834.169 371.984 835.929 371.984H836.313V366.2H837.561V371.984H837.969C839.697 371.984 841.097 372.52 842.169 373.592C843.241 374.648 843.777 375.984 843.777 377.6C843.777 379.232 843.257 380.584 842.217 381.656C841.177 382.696 839.761 383.216 837.969 383.216H837.561V387.8ZM831.417 377.6C831.417 378.896 831.825 379.968 832.641 380.816C833.489 381.632 834.617 382.04 836.025 382.04H836.313V373.16H835.905C834.529 373.16 833.433 373.584 832.617 374.432C831.817 375.28 831.417 376.336 831.417 377.6ZM837.969 373.16H837.561V382.04H837.873C839.297 382.04 840.417 381.64 841.233 380.84C842.049 380.024 842.457 378.944 842.457 377.6C842.457 376.368 842.049 375.32 841.233 374.456C840.433 373.592 839.345 373.16 837.969 373.16ZM855.274 374L848.074 383H846.826V372.2H848.074V381.2L855.274 372.2H856.522V383H855.274V374ZM869.158 383H867.91V373.448H863.35L863.206 375.8C862.998 378.84 862.494 380.856 861.694 381.848C861.054 382.68 860.262 383.096 859.318 383.096L859.222 381.872C859.638 381.872 860.03 381.68 860.398 381.296C861.278 380.48 861.814 378.568 862.006 375.56L862.174 372.2H869.158V383ZM876.127 383H872.959V372.2H874.207V375.824H876.295C879.143 375.824 880.567 377.008 880.567 379.376C880.567 380.496 880.199 381.384 879.463 382.04C878.743 382.68 877.631 383 876.127 383ZM876.079 377H874.207V381.824H876.055C877.175 381.824 877.983 381.624 878.479 381.224C878.991 380.824 879.247 380.216 879.247 379.4C879.247 377.8 878.191 377 876.079 377ZM885.21 373.448H880.914V372.2H890.754V373.448H886.458V383H885.21V373.448ZM894.199 387.8H892.951V372.2H894.199V373.64C894.631 373.16 895.207 372.768 895.927 372.464C896.663 372.144 897.407 371.984 898.159 371.984C899.695 371.984 900.919 372.488 901.831 373.496C902.743 374.504 903.199 375.816 903.199 377.432C903.199 379.112 902.687 380.496 901.663 381.584C900.623 382.672 899.287 383.216 897.655 383.216C896.199 383.216 895.047 382.912 894.199 382.304V387.8ZM897.823 373.16C897.119 373.16 896.431 373.32 895.759 373.64C895.103 373.96 894.583 374.36 894.199 374.84V381.056C895.191 381.712 896.311 382.04 897.559 382.04C898.839 382.04 899.879 381.616 900.679 380.768C901.479 379.92 901.879 378.832 901.879 377.504C901.879 376.176 901.519 375.12 900.799 374.336C900.079 373.552 899.087 373.16 897.823 373.16ZM906.576 374L906.24 372.968C907.312 372.312 908.456 371.984 909.672 371.984C911.08 371.984 912.096 372.336 912.72 373.04C913.36 373.744 913.68 374.832 913.68 376.304V383H912.432V381.344C911.552 382.544 910.32 383.144 908.736 383.144C907.728 383.144 906.92 382.856 906.312 382.28C905.704 381.688 905.4 380.904 905.4 379.928C905.4 378.872 905.784 378.048 906.552 377.456C907.304 376.864 908.288 376.568 909.504 376.568C910.72 376.568 911.696 376.84 912.432 377.384C912.432 376.264 912.352 375.408 912.192 374.816C912.064 374.24 911.8 373.832 911.4 373.592C911.016 373.352 910.416 373.208 909.6 373.16C908.624 373.16 907.616 373.44 906.576 374ZM909.12 381.968C910.464 381.968 911.568 381.4 912.432 380.264V378.464C911.648 377.888 910.712 377.6 909.624 377.6C908.808 377.6 908.12 377.8 907.56 378.2C907 378.6 906.72 379.152 906.72 379.856C906.72 380.496 906.944 381.008 907.392 381.392C907.84 381.776 908.416 381.968 909.12 381.968Z" fill="#141414"/>
<rect x="1138" y="162" width="431" height="89" rx="8" fill="#F6F4F2"/>
<path d="M1201.79 213H1200.47V205.056H1189.98V213H1188.66V196.2H1189.98V203.808H1200.47V196.2H1201.79V213ZM1210.9 197.448H1204.69V196.2H1218.44V197.448H1212.22V213H1210.9V197.448ZM1222.66 213H1221.34V196.2H1222.68L1229.45 205.416L1235.95 196.2H1237.22V213H1235.9V198.264L1229.45 207.336H1229.23L1222.66 198.336V213ZM1252.72 213H1242.55V196.2H1243.87V211.752H1252.72V213ZM1259.75 207.072H1254.25V205.896H1259.75V207.072ZM1276.8 213H1263.69V202.2H1264.94V211.824H1269.62V202.2H1270.87V211.824H1275.55V202.2H1276.8V213ZM1280.95 204L1280.61 202.968C1281.69 202.312 1282.83 201.984 1284.05 201.984C1285.45 201.984 1286.47 202.336 1287.09 203.04C1287.73 203.744 1288.05 204.832 1288.05 206.304V213H1286.81V211.344C1285.93 212.544 1284.69 213.144 1283.11 213.144C1282.1 213.144 1281.29 212.856 1280.69 212.28C1280.08 211.688 1279.77 210.904 1279.77 209.928C1279.77 208.872 1280.16 208.048 1280.93 207.456C1281.68 206.864 1282.66 206.568 1283.88 206.568C1285.09 206.568 1286.07 206.84 1286.81 207.384C1286.81 206.264 1286.73 205.408 1286.57 204.816C1286.44 204.24 1286.17 203.832 1285.77 203.592C1285.39 203.352 1284.79 203.208 1283.97 203.16C1283 203.16 1281.99 203.44 1280.95 204ZM1283.49 211.968C1284.84 211.968 1285.94 211.4 1286.81 210.264V208.464C1286.02 207.888 1285.09 207.6 1284 207.6C1283.18 207.6 1282.49 207.8 1281.93 208.2C1281.37 208.6 1281.09 209.152 1281.09 209.856C1281.09 210.496 1281.32 211.008 1281.77 211.392C1282.21 211.776 1282.79 211.968 1283.49 211.968ZM1300.17 195.96L1300.87 196.896C1300.5 197.424 1300.05 197.784 1299.53 197.976C1298.87 198.168 1298.17 198.32 1297.44 198.432C1296.61 198.544 1295.85 198.752 1295.18 199.056C1293.34 199.84 1292.31 201.888 1292.09 205.2H1292.13C1292.5 204.32 1293.12 203.616 1293.98 203.088C1294.85 202.544 1295.78 202.272 1296.79 202.272C1298.36 202.272 1299.61 202.768 1300.53 203.76C1301.46 204.736 1301.93 206.048 1301.93 207.696C1301.93 209.216 1301.41 210.52 1300.37 211.608C1299.34 212.68 1298.04 213.216 1296.45 213.216C1294.76 213.216 1293.39 212.624 1292.35 211.44C1291.34 210.256 1290.84 208.632 1290.84 206.568C1290.84 201.832 1292.16 198.928 1294.8 197.856C1295.47 197.584 1296.21 197.384 1297.03 197.256C1297.99 197.096 1298.68 196.944 1299.09 196.8C1299.51 196.64 1299.87 196.36 1300.17 195.96ZM1292.16 206.784C1292.16 208.4 1292.55 209.68 1293.33 210.624C1294.12 211.568 1295.14 212.04 1296.41 212.04C1297.62 212.04 1298.62 211.624 1299.41 210.792C1300.21 209.944 1300.61 208.928 1300.61 207.744C1300.61 206.448 1300.24 205.408 1299.5 204.624C1298.77 203.84 1297.77 203.448 1296.5 203.448C1295.37 203.448 1294.4 203.784 1293.6 204.456C1292.83 205.128 1292.35 205.904 1292.16 206.784ZM1313.33 213H1312.08V203.448H1307.52L1307.38 205.8C1307.17 208.84 1306.67 210.856 1305.87 211.848C1305.23 212.68 1304.43 213.096 1303.49 213.096L1303.39 211.872C1303.81 211.872 1304.2 211.68 1304.57 211.296C1305.45 210.48 1305.99 208.568 1306.18 205.56L1306.35 202.2H1313.33V213ZM1322.03 213.216C1320.36 213.216 1319 212.688 1317.95 211.632C1316.89 210.576 1316.36 209.232 1316.36 207.6C1316.36 205.968 1316.89 204.624 1317.95 203.568C1319 202.512 1320.36 201.984 1322.03 201.984C1323.69 201.984 1325.05 202.512 1326.11 203.568C1327.16 204.624 1327.69 205.968 1327.69 207.6C1327.69 209.232 1327.16 210.576 1326.11 211.632C1325.05 212.688 1323.69 213.216 1322.03 213.216ZM1322.03 212.04C1323.32 212.04 1324.36 211.632 1325.15 210.816C1325.96 209.984 1326.37 208.912 1326.37 207.6C1326.37 206.304 1325.96 205.24 1325.15 204.408C1324.33 203.576 1323.29 203.16 1322.03 203.16C1320.78 203.16 1319.74 203.576 1318.91 204.408C1318.09 205.24 1317.68 206.304 1317.68 207.6C1317.68 208.896 1318.09 209.96 1318.91 210.792C1319.72 211.624 1320.76 212.04 1322.03 212.04ZM1340.25 213H1339V208.104H1332V213H1330.75V202.2H1332V206.928H1339V202.2H1340.25V213ZM1347.01 213H1344.04V202.2H1345.28V205.824H1347.16C1350 205.824 1351.43 207.008 1351.43 209.376C1351.43 210.496 1351.07 211.384 1350.35 212.04C1349.63 212.68 1348.52 213 1347.01 213ZM1346.94 207H1345.28V211.824H1346.92C1348.05 211.824 1348.87 211.624 1349.36 211.224C1349.86 210.824 1350.11 210.216 1350.11 209.4C1350.11 207.8 1349.05 207 1346.94 207ZM1355.15 213H1353.9V202.2H1355.15V213ZM1364.11 215.736H1362.94V211.824H1364.28C1364.7 211.296 1365.06 210.44 1365.38 209.256C1365.72 208.072 1365.94 206.736 1366.03 205.248L1366.2 202.2H1373.09V211.824H1374.89V215.736H1373.71V213H1364.11V215.736ZM1367.38 203.376L1367.23 205.728C1367.1 207.2 1366.88 208.48 1366.56 209.568C1366.26 210.624 1365.94 211.376 1365.6 211.824H1371.84V203.376H1367.38ZM1386.06 213H1384.81V203.448H1380.25L1380.1 205.8C1379.9 208.84 1379.39 210.856 1378.59 211.848C1377.95 212.68 1377.16 213.096 1376.22 213.096L1376.12 211.872C1376.54 211.872 1376.93 211.68 1377.3 211.296C1378.18 210.48 1378.71 208.568 1378.9 205.56L1379.07 202.2H1386.06V213ZM1394.3 202.2H1397.51V213H1396.26V208.968H1393.58L1390.48 213H1388.94L1392.35 208.68C1391.63 208.568 1391.02 208.232 1390.5 207.672C1390.01 207.096 1389.76 206.408 1389.76 205.608C1389.76 204.568 1390.14 203.744 1390.89 203.136C1391.64 202.512 1392.78 202.2 1394.3 202.2ZM1391.08 205.632C1391.08 206.272 1391.33 206.792 1391.82 207.192C1392.32 207.592 1392.85 207.792 1393.41 207.792H1396.26V203.376H1394.08C1393.09 203.376 1392.34 203.584 1391.82 204C1391.33 204.4 1391.08 204.944 1391.08 205.632ZM1413.64 217.8H1412.39V213.216H1412.03C1410.25 213.216 1408.83 212.696 1407.76 211.656C1406.7 210.6 1406.17 209.248 1406.17 207.6C1406.17 206.064 1406.7 204.744 1407.76 203.64C1408.83 202.536 1410.25 201.984 1412.01 201.984H1412.39V196.2H1413.64V201.984H1414.05C1415.77 201.984 1417.17 202.52 1418.25 203.592C1419.32 204.648 1419.85 205.984 1419.85 207.6C1419.85 209.232 1419.33 210.584 1418.29 211.656C1417.25 212.696 1415.84 213.216 1414.05 213.216H1413.64V217.8ZM1407.49 207.6C1407.49 208.896 1407.9 209.968 1408.72 210.816C1409.57 211.632 1410.69 212.04 1412.1 212.04H1412.39V203.16H1411.98C1410.61 203.16 1409.51 203.584 1408.69 204.432C1407.89 205.28 1407.49 206.336 1407.49 207.6ZM1414.05 203.16H1413.64V212.04H1413.95C1415.37 212.04 1416.49 211.64 1417.31 210.84C1418.13 210.024 1418.53 208.944 1418.53 207.6C1418.53 206.368 1418.13 205.32 1417.31 204.456C1416.51 203.592 1415.42 203.16 1414.05 203.16ZM1424.15 217.8H1422.9V202.2H1424.15V203.64C1424.58 203.16 1425.16 202.768 1425.88 202.464C1426.62 202.144 1427.36 201.984 1428.11 201.984C1429.65 201.984 1430.87 202.488 1431.78 203.496C1432.7 204.504 1433.15 205.816 1433.15 207.432C1433.15 209.112 1432.64 210.496 1431.62 211.584C1430.58 212.672 1429.24 213.216 1427.61 213.216C1426.15 213.216 1425 212.912 1424.15 212.304V217.8ZM1427.78 203.16C1427.07 203.16 1426.38 203.32 1425.71 203.64C1425.06 203.96 1424.54 204.36 1424.15 204.84V211.056C1425.14 211.712 1426.26 212.04 1427.51 212.04C1428.79 212.04 1429.83 211.616 1430.63 210.768C1431.43 209.92 1431.83 208.832 1431.83 207.504C1431.83 206.176 1431.47 205.12 1430.75 204.336C1430.03 203.552 1429.04 203.16 1427.78 203.16ZM1441.09 213.216C1439.42 213.216 1438.06 212.688 1437.01 211.632C1435.95 210.576 1435.42 209.232 1435.42 207.6C1435.42 205.968 1435.95 204.624 1437.01 203.568C1438.06 202.512 1439.42 201.984 1441.09 201.984C1442.75 201.984 1444.11 202.512 1445.17 203.568C1446.22 204.624 1446.75 205.968 1446.75 207.6C1446.75 209.232 1446.22 210.576 1445.17 211.632C1444.11 212.688 1442.75 213.216 1441.09 213.216ZM1441.09 212.04C1442.38 212.04 1443.42 211.632 1444.21 210.816C1445.02 209.984 1445.43 208.912 1445.43 207.6C1445.43 206.304 1445.02 205.24 1444.21 204.408C1443.39 203.576 1442.35 203.16 1441.09 203.16C1439.84 203.16 1438.8 203.576 1437.97 204.408C1437.15 205.24 1436.74 206.304 1436.74 207.6C1436.74 208.896 1437.15 209.96 1437.97 210.792C1438.78 211.624 1439.82 212.04 1441.09 212.04ZM1459.31 213H1458.07V208.104H1451.06V213H1449.81V202.2H1451.06V206.928H1458.07V202.2H1459.31V213ZM1465.81 203.448H1461.52V202.2H1471.36V203.448H1467.06V213H1465.81V203.448ZM1481.72 210.72L1482.13 211.68C1481.15 212.704 1479.83 213.216 1478.15 213.216C1476.42 213.216 1475.03 212.704 1473.99 211.68C1472.94 210.656 1472.41 209.296 1472.41 207.6C1472.41 205.968 1472.89 204.624 1473.85 203.568C1474.83 202.512 1476.17 201.984 1477.88 201.984C1479.27 201.984 1480.44 202.432 1481.39 203.328C1482.31 204.208 1482.78 205.384 1482.78 206.856C1482.78 207.24 1482.75 207.576 1482.71 207.864H1473.8C1473.85 209.16 1474.27 210.184 1475.07 210.936C1475.87 211.672 1476.92 212.04 1478.22 212.04C1479.72 212.04 1480.89 211.6 1481.72 210.72ZM1477.76 203.16C1476.61 203.16 1475.67 203.496 1474.95 204.168C1474.25 204.84 1473.84 205.728 1473.73 206.832H1481.51C1481.49 205.696 1481.15 204.8 1480.47 204.144C1479.8 203.488 1478.9 203.16 1477.76 203.16ZM1495.27 213H1494.02V208.104H1487.01V213H1485.76V202.2H1487.01V206.928H1494.02V202.2H1495.27V213ZM1498.57 215.736H1497.4V211.824H1498.74C1499.16 211.296 1499.52 210.44 1499.84 209.256C1500.18 208.072 1500.4 206.736 1500.49 205.248L1500.66 202.2H1507.55V211.824H1509.35V215.736H1508.17V213H1498.57V215.736ZM1501.84 203.376L1501.69 205.728C1501.56 207.2 1501.34 208.48 1501.02 209.568C1500.72 210.624 1500.4 211.376 1500.06 211.824H1506.3V203.376H1501.84ZM1512 204L1511.66 202.968C1512.73 202.312 1513.88 201.984 1515.09 201.984C1516.5 201.984 1517.52 202.336 1518.14 203.04C1518.78 203.744 1519.1 204.832 1519.1 206.304V213H1517.85V211.344C1516.97 212.544 1515.74 213.144 1514.16 213.144C1513.15 213.144 1512.34 212.856 1511.73 212.28C1511.13 211.688 1510.82 210.904 1510.82 209.928C1510.82 208.872 1511.21 208.048 1511.97 207.456C1512.73 206.864 1513.71 206.568 1514.93 206.568C1516.14 206.568 1517.12 206.84 1517.85 207.384C1517.85 206.264 1517.77 205.408 1517.61 204.816C1517.49 204.24 1517.22 203.832 1516.82 203.592C1516.44 203.352 1515.84 203.208 1515.02 203.16C1514.05 203.16 1513.04 203.44 1512 204ZM1514.54 211.968C1515.89 211.968 1516.99 211.4 1517.85 210.264V208.464C1517.07 207.888 1516.13 207.6 1515.05 207.6C1514.23 207.6 1513.54 207.8 1512.98 208.2C1512.42 208.6 1512.14 209.152 1512.14 209.856C1512.14 210.496 1512.37 211.008 1512.81 211.392C1513.26 211.776 1513.84 211.968 1514.54 211.968Z" fill="#141414"/>
<rect x="540" width="448" height="89" rx="8" fill="#F6F4F2"/>
<path d="M603.72 51H602.4V35.448H591.984V51H590.664V34.2H603.72V51ZM613.167 51.216C611.503 51.216 610.143 50.688 609.087 49.632C608.031 48.576 607.503 47.232 607.503 45.6C607.503 43.968 608.031 42.624 609.087 41.568C610.143 40.512 611.503 39.984 613.167 39.984C614.831 39.984 616.191 40.512 617.247 41.568C618.303 42.624 618.831 43.968 618.831 45.6C618.831 47.232 618.303 48.576 617.247 49.632C616.191 50.688 614.831 51.216 613.167 51.216ZM613.167 50.04C614.463 50.04 615.503 49.632 616.287 48.816C617.103 47.984 617.511 46.912 617.511 45.6C617.511 44.304 617.103 43.24 616.287 42.408C615.471 41.576 614.431 41.16 613.167 41.16C611.919 41.16 610.879 41.576 610.047 42.408C609.231 43.24 608.823 44.304 608.823 45.6C608.823 46.896 609.231 47.96 610.047 48.792C610.863 49.624 611.903 50.04 613.167 50.04ZM630.336 42L623.136 51H621.888V40.2H623.136V49.2L630.336 40.2H631.584V51H630.336V42ZM643.765 48.552L644.389 49.464C643.957 50.024 643.373 50.456 642.637 50.76C641.917 51.064 641.141 51.216 640.309 51.216C638.629 51.216 637.253 50.704 636.181 49.68C635.125 48.656 634.597 47.296 634.597 45.6C634.597 44.016 635.109 42.688 636.133 41.616C637.173 40.528 638.453 39.984 639.973 39.984C641.829 39.984 643.229 40.432 644.173 41.328L643.573 42.336C642.725 41.552 641.589 41.16 640.165 41.16C639.013 41.16 638.013 41.584 637.165 42.432C636.333 43.264 635.917 44.32 635.917 45.6C635.917 46.944 636.341 48.024 637.189 48.84C638.037 49.64 639.109 50.04 640.405 50.04C641.797 50.04 642.917 49.544 643.765 48.552ZM654.33 40.2H655.938L650.61 45.36L656.37 51H654.69L649.098 45.432L654.33 40.2ZM648.378 51H647.13V40.2H648.378V51ZM663.112 51.216C661.448 51.216 660.088 50.688 659.032 49.632C657.976 48.576 657.448 47.232 657.448 45.6C657.448 43.968 657.976 42.624 659.032 41.568C660.088 40.512 661.448 39.984 663.112 39.984C664.776 39.984 666.136 40.512 667.192 41.568C668.248 42.624 668.776 43.968 668.776 45.6C668.776 47.232 668.248 48.576 667.192 49.632C666.136 50.688 664.776 51.216 663.112 51.216ZM663.112 50.04C664.408 50.04 665.448 49.632 666.232 48.816C667.048 47.984 667.456 46.912 667.456 45.6C667.456 44.304 667.048 43.24 666.232 42.408C665.416 41.576 664.376 41.16 663.112 41.16C661.864 41.16 660.824 41.576 659.992 42.408C659.176 43.24 658.768 44.304 658.768 45.6C658.768 46.896 659.176 47.96 659.992 48.792C660.808 49.624 661.848 50.04 663.112 50.04ZM671.834 51V40.2C672.362 40.2 672.874 40.192 673.37 40.176C674.394 40.144 675.042 40.128 675.314 40.128C678.29 40.128 679.778 41.056 679.778 42.912C679.778 43.536 679.578 44.08 679.178 44.544C678.794 44.992 678.266 45.272 677.594 45.384V45.432C679.322 45.688 680.186 46.552 680.186 48.024C680.186 50.056 678.578 51.072 675.362 51.072C675.154 51.072 674.522 51.056 673.465 51.024C672.938 51.008 672.394 51 671.834 51ZM675.674 46.032H673.082V49.848C674.33 49.88 675.138 49.896 675.506 49.896C677.746 49.896 678.866 49.232 678.866 47.904C678.866 46.656 677.802 46.032 675.674 46.032ZM675.458 41.304C674.93 41.304 674.138 41.32 673.082 41.352V45H675.938C676.722 45 677.338 44.832 677.786 44.496C678.234 44.144 678.458 43.68 678.458 43.104C678.458 41.904 677.458 41.304 675.458 41.304ZM686.364 51H683.388V40.2H684.636V43.824H686.508C689.356 43.824 690.78 45.008 690.78 47.376C690.78 48.496 690.42 49.384 689.7 50.04C688.98 50.68 687.868 51 686.364 51ZM686.292 45H684.636V49.824H686.268C687.404 49.824 688.22 49.624 688.716 49.224C689.212 48.824 689.46 48.216 689.46 47.4C689.46 45.8 688.404 45 686.292 45ZM694.5 51H693.252V40.2H694.5V51ZM706.742 42L699.542 51H698.294V40.2H699.542V49.2L706.742 40.2H707.99V51H706.742V42ZM699.95 34.584H701.078C701.078 35.176 701.286 35.68 701.702 36.096C702.118 36.496 702.654 36.696 703.31 36.696C703.934 36.696 704.446 36.496 704.846 36.096C705.246 35.68 705.446 35.176 705.446 34.584H706.574C706.574 35.464 706.27 36.2 705.662 36.792C705.054 37.368 704.27 37.656 703.31 37.656C702.286 37.656 701.47 37.376 700.862 36.816C700.254 36.24 699.95 35.496 699.95 34.584ZM716.939 53.736H715.763V49.824H717.107C717.523 49.296 717.891 48.44 718.211 47.256C718.547 46.072 718.763 44.736 718.859 43.248L719.027 40.2H725.915V49.824H727.715V53.736H726.539V51H716.939V53.736ZM720.203 41.376L720.059 43.728C719.931 45.2 719.707 46.48 719.387 47.568C719.083 48.624 718.763 49.376 718.427 49.824H724.667V41.376H720.203ZM730.029 51V40.2C730.557 40.2 731.069 40.192 731.565 40.176C732.589 40.144 733.237 40.128 733.509 40.128C736.485 40.128 737.973 41.056 737.973 42.912C737.973 43.536 737.773 44.08 737.373 44.544C736.989 44.992 736.461 45.272 735.789 45.384V45.432C737.517 45.688 738.381 46.552 738.381 48.024C738.381 50.056 736.773 51.072 733.557 51.072C733.349 51.072 732.717 51.056 731.661 51.024C731.133 51.008 730.589 51 730.029 51ZM733.869 46.032H731.277V49.848C732.525 49.88 733.333 49.896 733.701 49.896C735.941 49.896 737.061 49.232 737.061 47.904C737.061 46.656 735.997 46.032 733.869 46.032ZM733.653 41.304C733.125 41.304 732.333 41.32 731.277 41.352V45H734.133C734.917 45 735.533 44.832 735.981 44.496C736.429 44.144 736.653 43.68 736.653 43.104C736.653 41.904 735.653 41.304 733.653 41.304ZM750.032 42L742.832 51H741.584V40.2H742.832V49.2L750.032 40.2H751.28V51H750.032V42ZM766.58 40.2H768.092L763.772 45.384L768.38 51H766.868L762.38 45.384L766.58 40.2ZM761.612 51H760.364V40.2H761.612V51ZM753.668 51L758.204 45.384L753.884 40.2H755.42L759.596 45.384L755.18 51H753.668ZM775.144 51.216C773.48 51.216 772.12 50.688 771.064 49.632C770.008 48.576 769.48 47.232 769.48 45.6C769.48 43.968 770.008 42.624 771.064 41.568C772.12 40.512 773.48 39.984 775.144 39.984C776.808 39.984 778.168 40.512 779.224 41.568C780.28 42.624 780.808 43.968 780.808 45.6C780.808 47.232 780.28 48.576 779.224 49.632C778.168 50.688 776.808 51.216 775.144 51.216ZM775.144 50.04C776.44 50.04 777.48 49.632 778.264 48.816C779.08 47.984 779.488 46.912 779.488 45.6C779.488 44.304 779.08 43.24 778.264 42.408C777.448 41.576 776.408 41.16 775.144 41.16C773.896 41.16 772.856 41.576 772.024 42.408C771.208 43.24 770.8 44.304 770.8 45.6C770.8 46.896 771.208 47.96 772.024 48.792C772.84 49.624 773.88 50.04 775.144 50.04ZM791.065 40.2H792.673L787.345 45.36L793.105 51H791.425L785.833 45.432L791.065 40.2ZM785.113 51H783.865V40.2H785.113V51ZM809.658 46.824C809.658 46.088 809.442 45.456 809.01 44.928C808.578 44.4 808.042 44 807.402 43.728C806.762 43.456 806.066 43.16 805.314 42.84C804.562 42.504 803.866 42.176 803.226 41.856C802.586 41.536 802.05 41.064 801.618 40.44C801.186 39.8 800.97 39.048 800.97 38.184C800.97 36.968 801.41 35.968 802.29 35.184C803.186 34.384 804.386 33.984 805.89 33.984C807.858 33.984 809.362 34.552 810.402 35.688L809.682 36.672C808.722 35.712 807.474 35.232 805.938 35.232C804.834 35.232 803.962 35.504 803.322 36.048C802.682 36.576 802.362 37.288 802.362 38.184C802.362 38.904 802.578 39.528 803.01 40.056C803.442 40.568 803.978 40.952 804.618 41.208C805.258 41.464 805.954 41.752 806.706 42.072C807.458 42.376 808.154 42.688 808.794 43.008C809.434 43.328 809.97 43.816 810.402 44.472C810.834 45.112 811.05 45.888 811.05 46.8C811.05 48.112 810.538 49.176 809.514 49.992C808.49 50.808 807.218 51.216 805.698 51.216C804.658 51.216 803.634 51 802.626 50.568C801.634 50.104 800.938 49.512 800.538 48.792L801.33 47.88C801.81 48.504 802.45 49.008 803.25 49.392C804.05 49.776 804.858 49.968 805.674 49.968C806.762 49.968 807.698 49.688 808.482 49.128C809.266 48.584 809.658 47.816 809.658 46.824ZM815.488 55.8H814.24V40.2H815.488V41.64C815.92 41.16 816.496 40.768 817.216 40.464C817.952 40.144 818.696 39.984 819.448 39.984C820.984 39.984 822.208 40.488 823.12 41.496C824.032 42.504 824.488 43.816 824.488 45.432C824.488 47.112 823.976 48.496 822.952 49.584C821.912 50.672 820.576 51.216 818.944 51.216C817.488 51.216 816.336 50.912 815.488 50.304V55.8ZM819.112 41.16C818.408 41.16 817.72 41.32 817.048 41.64C816.392 41.96 815.872 42.36 815.488 42.84V49.056C816.48 49.712 817.6 50.04 818.848 50.04C820.128 50.04 821.168 49.616 821.968 48.768C822.768 47.92 823.168 46.832 823.168 45.504C823.168 44.176 822.808 43.12 822.088 42.336C821.368 41.552 820.376 41.16 819.112 41.16ZM828.777 51H827.529V34.2H828.777V41.664C829.209 41.184 829.785 40.792 830.505 40.488C831.225 40.168 831.945 40.008 832.665 40.008C835.673 40.008 837.177 41.624 837.177 44.856V51H835.929V45.048C835.929 42.472 834.745 41.184 832.377 41.184C831.689 41.184 831.009 41.344 830.337 41.664C829.681 41.968 829.161 42.36 828.777 42.84V51ZM842.596 51H841.348V40.2H842.596V51ZM841.132 36C841.132 35.76 841.22 35.568 841.396 35.424C841.572 35.28 841.78 35.208 842.02 35.208C842.228 35.208 842.412 35.288 842.572 35.448C842.748 35.592 842.836 35.776 842.836 36C842.836 36.272 842.756 36.488 842.596 36.648C842.452 36.808 842.26 36.888 842.02 36.888C841.764 36.888 841.548 36.808 841.372 36.648C841.212 36.488 841.132 36.272 841.132 36ZM848.253 51H847.005V40.2H848.253V41.712C848.701 41.216 849.277 40.808 849.981 40.488C850.701 40.168 851.421 40.008 852.141 40.008C853.645 40.008 854.773 40.4 855.525 41.184C856.277 41.968 856.653 43.184 856.653 44.832V51H855.405V45.072C855.405 42.48 854.221 41.184 851.853 41.184C851.165 41.184 850.493 41.344 849.837 41.664C849.181 41.968 848.653 42.36 848.253 42.84V51ZM867.76 40.2H869.224L865.168 45.432L869.464 51H867.928L864.232 46.224L860.536 51H859.072L863.368 45.48L859.312 40.2H860.848L864.28 44.664L867.76 40.2ZM880.627 46.824C880.627 46.088 880.411 45.456 879.979 44.928C879.547 44.4 879.011 44 878.371 43.728C877.731 43.456 877.035 43.16 876.283 42.84C875.531 42.504 874.835 42.176 874.195 41.856C873.555 41.536 873.019 41.064 872.587 40.44C872.155 39.8 871.939 39.048 871.939 38.184C871.939 36.968 872.379 35.968 873.259 35.184C874.155 34.384 875.355 33.984 876.859 33.984C878.827 33.984 880.331 34.552 881.371 35.688L880.651 36.672C879.691 35.712 878.443 35.232 876.907 35.232C875.803 35.232 874.931 35.504 874.291 36.048C873.651 36.576 873.331 37.288 873.331 38.184C873.331 38.904 873.547 39.528 873.979 40.056C874.411 40.568 874.947 40.952 875.587 41.208C876.227 41.464 876.923 41.752 877.675 42.072C878.427 42.376 879.123 42.688 879.763 43.008C880.403 43.328 880.939 43.816 881.371 44.472C881.803 45.112 882.019 45.888 882.019 46.8C882.019 48.112 881.507 49.176 880.483 49.992C879.459 50.808 878.187 51.216 876.667 51.216C875.627 51.216 874.603 51 873.595 50.568C872.603 50.104 871.907 49.512 871.507 48.792L872.299 47.88C872.779 48.504 873.419 49.008 874.219 49.392C875.019 49.776 875.827 49.968 876.643 49.968C877.731 49.968 878.667 49.688 879.451 49.128C880.235 48.584 880.627 47.816 880.627 46.824ZM893.753 48.72L894.161 49.68C893.185 50.704 891.857 51.216 890.177 51.216C888.449 51.216 887.065 50.704 886.025 49.68C884.969 48.656 884.441 47.296 884.441 45.6C884.441 43.968 884.921 42.624 885.881 41.568C886.857 40.512 888.201 39.984 889.913 39.984C891.305 39.984 892.473 40.432 893.417 41.328C894.345 42.208 894.809 43.384 894.809 44.856C894.809 45.24 894.785 45.576 894.737 45.864H885.833C885.881 47.16 886.305 48.184 887.105 48.936C887.905 49.672 888.953 50.04 890.249 50.04C891.753 50.04 892.921 49.6 893.753 48.72ZM889.793 41.16C888.641 41.16 887.705 41.496 886.985 42.168C886.281 42.84 885.873 43.728 885.761 44.832H893.537C893.521 43.696 893.177 42.8 892.505 42.144C891.833 41.488 890.929 41.16 889.793 41.16ZM898.13 42L897.794 40.968C898.866 40.312 900.01 39.984 901.226 39.984C902.634 39.984 903.65 40.336 904.274 41.04C904.914 41.744 905.234 42.832 905.234 44.304V51H903.986V49.344C903.106 50.544 901.874 51.144 900.29 51.144C899.282 51.144 898.474 50.856 897.866 50.28C897.258 49.688 896.954 48.904 896.954 47.928C896.954 46.872 897.338 46.048 898.106 45.456C898.858 44.864 899.842 44.568 901.058 44.568C902.274 44.568 903.25 44.84 903.986 45.384C903.986 44.264 903.906 43.408 903.746 42.816C903.618 42.24 903.354 41.832 902.954 41.592C902.57 41.352 901.97 41.208 901.154 41.16C900.178 41.16 899.17 41.44 898.13 42ZM900.674 49.968C902.018 49.968 903.122 49.4 903.986 48.264V46.464C903.202 45.888 902.266 45.6 901.178 45.6C900.362 45.6 899.674 45.8 899.114 46.2C898.554 46.6 898.274 47.152 898.274 47.856C898.274 48.496 898.498 49.008 898.946 49.392C899.394 49.776 899.97 49.968 900.674 49.968ZM910.058 51H908.81V40.2H910.058V41.64C910.778 40.552 911.746 40.008 912.962 40.008C913.714 40.008 914.274 40.144 914.642 40.416L914.21 41.592C913.746 41.32 913.242 41.184 912.698 41.184C911.626 41.184 910.746 41.768 910.058 42.936V51ZM925.109 48.552L925.733 49.464C925.301 50.024 924.717 50.456 923.981 50.76C923.261 51.064 922.485 51.216 921.653 51.216C919.973 51.216 918.597 50.704 917.525 49.68C916.469 48.656 915.941 47.296 915.941 45.6C915.941 44.016 916.453 42.688 917.477 41.616C918.517 40.528 919.797 39.984 921.317 39.984C923.173 39.984 924.573 40.432 925.517 41.328L924.917 42.336C924.069 41.552 922.933 41.16 921.509 41.16C920.357 41.16 919.357 41.584 918.509 42.432C917.677 43.264 917.261 44.32 917.261 45.6C917.261 46.944 917.685 48.024 918.533 48.84C919.381 49.64 920.453 50.04 921.749 50.04C923.141 50.04 924.261 49.544 925.109 48.552ZM929.722 51H928.474V34.2H929.722V41.664C930.154 41.184 930.73 40.792 931.45 40.488C932.17 40.168 932.89 40.008 933.61 40.008C936.618 40.008 938.122 41.624 938.122 44.856V51H936.874V45.048C936.874 42.472 935.69 41.184 933.322 41.184C932.634 41.184 931.954 41.344 931.282 41.664C930.626 41.968 930.106 42.36 929.722 42.84V51Z" fill="#141414"/>
<path d="M384 265H438C442.418 265 446 261.418 446 257V163" stroke="#E4002B" stroke-width="2"/>
<path d="M384 50H438C442.418 50 446 53.5817 446 58V155" stroke="#E4002B" stroke-width="2"/>
<path d="M384 374H438C442.418 374 446 370.418 446 366V267" stroke="#E4002B" stroke-width="2"/>
</svg>
