<svg width="592" height="60" viewBox="0 0 592 60" fill="none" xmlns="http://www.w3.org/2000/svg">
<path fill-rule="evenodd" clip-rule="evenodd" d="M528.064 17.8594C525.509 10.8347 532.853 3.33103 538.84 3.09155C542.432 4.92755 545.546 9.71713 545.386 16.2629C544.907 24.3253 539.08 31.2702 532.773 37.6563C532.374 29.8333 530.698 24.8841 528.064 17.8594Z" fill="#9BE400"/>
<path fill-rule="evenodd" clip-rule="evenodd" d="M591.206 40.6897V17.5401C591.206 17.1409 590.887 16.8216 590.488 16.8216H587.135C586.736 16.8216 586.416 17.1409 586.416 17.5401V40.6098C586.416 41.009 586.736 41.4081 587.135 41.4081H590.488C590.887 41.4081 591.206 41.0888 591.206 40.6897ZM573.564 41.3283V16.9813C571.649 17.0611 568.775 18.2585 568.775 20.8129V37.4966C567.737 37.6563 566.141 37.8159 565.263 37.8159C562.149 37.8159 561.351 35.5808 561.351 32.6272V20.6533C561.191 17.7795 557.839 16.9015 556.561 16.9813V32.6272C556.561 38.2949 559.435 41.7274 565.263 41.7274C566.141 41.7274 567.977 41.4879 568.775 41.3283V41.6476C569.493 46.4371 563.746 44.6011 560.553 44.2818C558.238 44.2818 556.641 46.1977 556.242 48.353C557.599 48.7521 561.99 49.3109 565.103 49.6302C570.611 49.5504 573.564 46.517 573.564 41.3283ZM582.345 40.6897V17.5401C582.345 17.1409 582.026 16.8216 581.627 16.8216H578.274C577.875 16.8216 577.556 17.1409 577.556 17.5401V40.6098C577.556 41.009 577.875 41.4081 578.274 41.4081H581.627C582.026 41.4081 582.345 41.0888 582.345 40.6897ZM579.951 10.2759C581.308 10.2759 582.425 11.3934 582.425 12.7505C582.425 14.1075 581.308 15.2251 579.951 15.2251C578.594 15.2251 577.476 14.1075 577.476 12.7505C577.396 11.3934 578.514 10.2759 579.951 10.2759ZM588.811 10.2759C590.168 10.2759 591.286 11.3934 591.286 12.7505C591.286 14.1075 590.168 15.2251 588.811 15.2251C587.454 15.2251 586.337 14.1075 586.337 12.7505C586.337 11.3934 587.454 10.2759 588.811 10.2759Z" fill="#C5CDCF"/>
<path fill-rule="evenodd" clip-rule="evenodd" d="M513.854 56.0164C512.817 48.1934 516.089 41.488 519.362 37.4169C526.387 28.636 525.988 23.3675 525.269 18.8972C528.942 24.6447 531.256 31.5896 531.815 37.7362C532.055 42.6854 528.383 54.34 513.854 56.0164Z" fill="#3E7FCA"/>
<path d="M508.971 25.6829L508.963 25.6807L508.956 25.6787C498.828 22.9374 496.175 14.3044 496.53 8.3124C506.505 4.5294 517.297 8.57583 523.508 17.1158C527.578 22.712 530.309 29.7177 531.144 36.0796C528.142 32.7563 524.476 30.7084 520.014 29.1246C517.656 28.2267 515.367 27.5606 512.686 26.7806C511.532 26.445 510.306 26.0882 508.971 25.6829Z" fill="#E4B200" stroke="#F6F4F2"/>
<g clip-path="url(#clip0)">
<path fill-rule="evenodd" clip-rule="evenodd" d="M325.689 12.158C325.708 12.2274 325.718 12.2989 325.718 12.3708V23.5403C325.718 23.6837 325.68 23.8245 325.608 23.9485C325.536 24.0726 325.433 24.1755 325.309 24.2468L315.934 29.6442V40.3424C315.934 40.6336 315.779 40.9023 315.527 41.0489L295.958 52.3141C295.913 52.3396 295.864 52.3558 295.815 52.3731C295.797 52.3793 295.779 52.3905 295.76 52.3955C295.623 52.4316 295.479 52.4316 295.343 52.3955C295.32 52.3894 295.3 52.3772 295.278 52.3691C295.234 52.3528 295.187 52.3385 295.144 52.3141L275.579 41.0489C275.455 40.9775 275.352 40.8746 275.28 40.7506C275.208 40.6265 275.17 40.4857 275.17 40.3424V6.83388C275.17 6.76058 275.18 6.68932 275.198 6.6201C275.205 6.59668 275.219 6.5753 275.227 6.55189C275.242 6.50913 275.256 6.46536 275.279 6.42566C275.294 6.39919 275.317 6.37781 275.335 6.35338C275.358 6.3208 275.38 6.28721 275.407 6.25871C275.431 6.23529 275.461 6.21799 275.488 6.19762C275.517 6.17319 275.544 6.14672 275.577 6.12738H275.578L285.361 0.494781C285.485 0.423501 285.625 0.385986 285.768 0.385986C285.911 0.385986 286.052 0.423501 286.176 0.494781L295.959 6.12738H295.961C295.993 6.14774 296.021 6.17319 296.05 6.19661C296.077 6.21697 296.106 6.23529 296.13 6.25769C296.158 6.28721 296.178 6.3208 296.203 6.35338C296.22 6.37781 296.244 6.39919 296.258 6.42566C296.281 6.46638 296.294 6.50913 296.311 6.55189C296.319 6.5753 296.333 6.59668 296.339 6.62111C296.358 6.69049 296.368 6.76202 296.368 6.83388V27.763L304.52 23.069V12.3698C304.52 12.2985 304.53 12.2262 304.548 12.158C304.556 12.1336 304.569 12.1122 304.577 12.0888C304.593 12.046 304.607 12.0023 304.63 11.9626C304.645 11.9361 304.668 11.9147 304.685 11.8903C304.709 11.8577 304.73 11.8241 304.758 11.7956C304.782 11.7722 304.811 11.7549 304.838 11.7345C304.868 11.7101 304.895 11.6836 304.927 11.6643H304.928L314.712 6.03169C314.836 5.96031 314.976 5.92274 315.119 5.92274C315.262 5.92274 315.403 5.96031 315.527 6.03169L325.31 11.6643C325.344 11.6847 325.371 11.7101 325.401 11.7335C325.427 11.7539 325.456 11.7722 325.48 11.7946C325.508 11.8241 325.528 11.8577 325.553 11.8903C325.571 11.9147 325.594 11.9361 325.608 11.9626C325.631 12.0023 325.644 12.046 325.661 12.0888C325.67 12.1122 325.683 12.1336 325.689 12.158ZM324.087 23.069V13.7807L320.663 15.7516L315.934 18.4747V27.763L324.088 23.069H324.087ZM314.304 39.8711V30.5767L309.652 33.2337L296.367 40.8158V50.1977L314.304 39.8711ZM276.801 8.24381V39.8711L294.736 50.1967V40.8168L285.366 35.514L285.363 35.512L285.359 35.51C285.328 35.4916 285.301 35.4652 285.272 35.4428C285.246 35.4224 285.217 35.4061 285.194 35.3837L285.192 35.3807C285.166 35.3552 285.147 35.3237 285.125 35.2952C285.105 35.2677 285.08 35.2443 285.064 35.2158L285.063 35.2127C285.045 35.1822 285.033 35.1455 285.02 35.1109C285.007 35.0804 284.99 35.0519 284.981 35.0193V35.0183C284.971 34.9796 284.969 34.9389 284.965 34.8992C284.961 34.8686 284.953 34.8381 284.953 34.8075V34.8055V12.9378L280.224 10.2136L276.801 8.24483V8.24381ZM285.769 2.14191L277.618 6.83388L285.767 11.5258L293.917 6.83286L285.767 2.14191H285.769ZM290.008 31.4237L294.737 28.7016V8.24381L291.313 10.2147L286.584 12.9378V33.3956L290.008 31.4237ZM315.119 7.67882L306.969 12.3708L315.119 17.0628L323.268 12.3698L315.119 7.67882ZM314.304 18.4747L309.574 15.7516L306.151 13.7807V23.069L310.879 25.7911L314.304 27.763V18.4747ZM295.55 39.4058L307.505 32.5812L313.48 29.1709L305.336 24.4819L295.96 29.8804L287.413 34.8004L295.55 39.4058Z" fill="#FF2D20"/>
</g>
<path fill-rule="evenodd" clip-rule="evenodd" d="M344.842 15.5713V39.0321H353.33V43.0797H340.322V15.5713H344.842ZM369.284 27.2427V24.7669H373.568V43.0807H369.285V40.6039C368.708 41.5212 367.89 42.2419 366.828 42.7652C365.768 43.2894 364.7 43.5511 363.626 43.5511C362.236 43.5511 360.966 43.2966 359.813 42.7855C358.69 42.2958 357.68 41.5799 356.846 40.6823C356.02 39.7896 355.367 38.7504 354.922 37.6181C354.458 36.4417 354.224 35.1873 354.233 33.9228C354.233 32.6401 354.462 31.4144 354.921 30.2478C355.363 29.1078 356.016 28.0614 356.846 27.1633C357.68 26.2663 358.69 25.5507 359.813 25.0611C360.966 24.5501 362.236 24.2956 363.626 24.2956C364.7 24.2956 365.768 24.5572 366.828 25.0815C367.889 25.6057 368.708 26.3255 369.285 27.2427H369.284ZM368.891 36.1634C369.155 35.4464 369.288 34.6879 369.285 33.9238C369.285 33.1369 369.153 32.3907 368.891 31.6842C368.645 31.0039 368.272 30.3768 367.792 29.8365C367.312 29.3066 366.73 28.8787 366.081 28.5783C365.413 28.2647 364.673 28.107 363.862 28.107C363.049 28.107 362.315 28.2647 361.66 28.5783C361.019 28.8824 360.445 29.31 359.97 29.8365C359.491 30.374 359.124 31.0019 358.891 31.6832C358.639 32.4029 358.513 33.1604 358.517 33.9228C358.517 34.7087 358.641 35.4559 358.89 36.1624C359.139 36.8709 359.499 37.4858 359.971 38.0101C360.446 38.5369 361.02 38.9645 361.661 39.2683C362.315 39.5829 363.049 39.7397 363.861 39.7397C364.673 39.7397 365.413 39.5829 366.081 39.2683C366.73 38.9682 367.312 38.5402 367.792 38.0101C368.272 37.4702 368.645 36.8434 368.891 36.1634ZM376.947 43.0797V24.7669H388.58V28.9824H381.23V43.0818H376.947V43.0797ZM404.103 27.2427V24.7669H408.386V43.0807H404.103V40.6039C403.526 41.5212 402.708 42.2419 401.646 42.7652C400.585 43.2894 399.519 43.5511 398.444 43.5511C397.055 43.5511 395.785 43.2966 394.632 42.7855C393.509 42.2958 392.499 41.5799 391.665 40.6823C390.838 39.7897 390.185 38.7505 389.74 37.6181C389.276 36.4417 389.043 35.1872 389.051 33.9228C389.051 32.6401 389.281 31.4144 389.74 30.2478C390.182 29.1079 390.834 28.0615 391.664 27.1633C392.498 26.2662 393.509 25.5506 394.632 25.0611C395.785 24.5501 397.055 24.2956 398.444 24.2956C399.518 24.2956 400.585 24.5572 401.646 25.0815C402.708 25.6057 403.526 26.3255 404.103 27.2427ZM403.71 36.1634C403.973 35.4463 404.106 34.6878 404.103 33.9238C404.103 33.1369 403.97 32.3907 403.71 31.6842C403.464 31.0039 403.091 30.3768 402.61 29.8365C402.13 29.3066 401.549 28.8787 400.9 28.5783C400.232 28.2647 399.491 28.107 398.68 28.107C397.867 28.107 397.133 28.2647 396.479 28.5783C395.838 28.8824 395.264 29.31 394.789 29.8365C394.309 30.3739 393.942 31.0018 393.709 31.6832C393.457 32.4029 393.331 33.1604 393.335 33.9228C393.335 34.7087 393.458 35.4559 393.709 36.1624C393.957 36.8709 394.318 37.4858 394.789 38.0101C395.264 38.5369 395.838 38.9645 396.479 39.2683C397.133 39.5829 397.867 39.7397 398.68 39.7397C399.491 39.7397 400.232 39.5829 400.9 39.2683C401.549 38.9682 402.131 38.5402 402.61 38.0101C403.091 37.4702 403.464 36.8434 403.71 36.1634ZM425.559 24.7669H429.898L422.868 43.0807H417.483L410.453 24.7669H414.792L420.176 38.7909L425.559 24.7669ZM439.241 24.2956C445.073 24.2956 449.05 29.465 448.303 35.5149H434.093C434.093 37.0949 435.688 40.1489 439.476 40.1489C442.734 40.1489 444.917 37.2832 444.918 37.2812L447.813 39.5208C445.225 42.2826 443.106 43.5521 439.789 43.5521C433.861 43.5521 429.843 39.8018 429.843 33.9238C429.843 28.6068 433.995 24.2956 439.24 24.2956H439.241ZM434.104 32.3317H444.37C444.338 31.9794 443.781 27.6977 439.206 27.6977C434.63 27.6977 434.137 31.9794 434.104 32.3317ZM451.093 43.0797V15.5713H455.376V43.0797H451.093Z" fill="#FF2D20"/>
<path d="M29.2724 59.12C45.4391 59.12 58.5449 46.0143 58.5449 29.8476C58.5449 13.6809 45.4391 0.575195 29.2724 0.575195C13.1057 0.575195 0 13.6809 0 29.8476C0 46.0143 13.1057 59.12 29.2724 59.12Z" fill="#1A171B"/>
<path d="M42.0702 11.4066C39.0965 11.5103 36.5007 13.1491 34.5688 15.4166C32.4294 17.9023 31.0061 20.8508 29.9806 23.8605C28.1461 22.357 26.7309 20.4106 23.7879 19.5619C21.5132 18.9089 19.124 19.1786 16.9269 20.8156C15.886 21.5931 15.169 22.7683 14.828 23.8732C13.945 26.744 15.7561 29.2992 16.5787 30.2165L18.3772 32.1439C18.7479 32.5219 19.6408 33.5077 19.2043 34.921C18.7325 36.4579 16.88 37.4528 14.9796 36.8665C14.1308 36.6076 12.9114 35.9754 13.1847 35.0852C13.2975 34.7208 13.5581 34.4484 13.6979 34.1336C13.826 33.863 13.8873 33.6601 13.9261 33.541C14.2734 32.4073 13.7989 30.9326 12.5849 30.5583C11.4521 30.2111 10.2931 30.4862 9.84393 31.9446C9.33434 33.6015 10.1271 36.6085 14.3744 37.9182C19.3504 39.4469 23.5597 36.7375 24.1568 33.2037C24.5329 30.9904 23.5336 29.3461 21.7026 27.2311L20.2108 25.5814C19.3071 24.6786 18.9968 23.1399 19.9321 21.9574C20.7213 20.9599 21.8451 20.5342 23.686 21.0348C26.3729 21.7644 27.5706 23.6287 29.5693 25.1323C28.7441 27.839 28.2047 30.5556 27.7168 32.9918L27.4191 34.8083C25.9904 42.3016 24.9 46.4162 22.0661 48.7784C21.4952 49.1843 20.6789 49.7922 19.4487 49.8346C18.8038 49.8544 18.5954 49.4107 18.5864 49.2176C18.5711 48.7649 18.9526 48.5574 19.2061 48.3536C19.5849 48.147 20.1576 47.8043 20.1188 46.7066C20.0773 45.4097 19.0031 44.2849 17.45 44.3364C16.2865 44.376 14.5133 45.471 14.58 47.4751C14.6495 49.5451 16.5787 51.0964 19.4875 50.9981C21.0424 50.9449 24.5149 50.3117 27.9368 46.244C31.9198 41.5809 33.0337 36.2351 33.8716 32.3225L34.8069 27.1571C35.3264 27.2194 35.882 27.2608 36.4863 27.2753C41.447 27.3799 43.9282 24.8103 43.9652 22.9415C43.9895 21.8104 43.2229 20.6974 42.1496 20.7227C41.3811 20.7443 40.4161 21.2557 40.1843 22.3182C39.9579 23.3609 41.7626 24.3016 40.352 25.2153C39.35 25.8637 37.5533 26.321 35.0234 25.9494L35.4833 23.4069C36.4223 18.5851 37.5804 12.654 41.9737 12.5096C42.2939 12.4934 43.4655 12.5241 43.4926 13.2988C43.5007 13.5577 43.4366 13.6235 43.1336 14.2161C42.8251 14.6779 42.7088 15.0711 42.7232 15.523C42.7656 16.7542 43.7018 17.5632 45.0556 17.5145C46.8685 17.4559 47.3898 15.6908 47.3601 14.7843C47.287 12.6549 45.0421 11.3092 42.0702 11.4066Z" fill="white"/>
<path d="M177.485 21.612C184.232 21.612 188.759 26.4888 188.759 33.2353C188.759 39.5921 184.145 44.8576 177.485 44.8576C170.78 44.8576 166.166 39.5921 166.166 33.2353C166.166 26.4888 170.692 21.612 177.485 21.612ZM177.485 41.5529C182.271 41.5529 184.404 37.1993 184.404 33.2353C184.404 29.0142 181.836 24.9221 177.485 24.9221C173.087 24.9221 170.519 29.0142 170.519 33.2353C170.52 37.1984 172.652 41.5529 177.485 41.5529ZM165.605 23.6783V22.1333H159.726V20.0218C159.726 17.0184 160.162 14.7527 163.687 14.7527C163.752 14.7527 163.821 14.7572 163.889 14.7599C163.896 14.7599 163.895 14.7491 163.903 14.7491C164.882 14.8213 165.695 14.024 165.75 13.0472L165.823 11.7069C164.997 11.5752 164.123 11.4453 163.082 11.4453C157.03 11.4453 155.636 14.9719 155.636 20.3709V22.1342H150.409V23.8596C150.544 24.7525 151.308 25.4398 152.241 25.4398C152.247 25.4398 152.249 25.4443 152.256 25.4443H155.636V44.3372H157.891L157.896 44.3363C158.834 44.3363 159.603 43.6337 159.727 42.7318V25.4443H163.82C164.285 25.4282 164.727 25.2376 165.058 24.9103C165.389 24.583 165.584 24.1432 165.605 23.6783ZM111.096 22.1333C111.089 22.1333 111.085 22.1387 111.075 22.1387C110.213 22.1387 109.377 22.7313 109.013 23.5322L103.381 40.5067H103.295L97.7875 23.5412C97.4276 22.7358 96.5888 22.1387 95.7211 22.1387C95.7112 22.1387 95.7076 22.1333 95.6995 22.1333H92.8458L100.378 42.8571C100.64 43.5976 101.163 44.7305 101.163 45.2076C101.163 45.6432 99.9431 50.6914 96.2848 50.6914C96.1946 50.6914 96.1036 50.6833 96.0143 50.676C95.0817 50.6246 94.3772 51.2758 94.2203 52.2806L94.1085 53.6966C94.8481 53.8274 95.5922 54.0015 96.8973 54.0015C102.294 54.0015 103.904 49.0814 105.43 44.8152L113.613 22.1324H111.096V22.1333ZM85.0819 26.643C81.7023 24.914 78.0043 23.7405 77.9403 20.2609C77.9511 16.5656 81.346 15.596 83.9626 15.5987C83.9734 15.5969 83.9842 15.5969 83.9905 15.5969C85.127 15.5969 86.0361 15.7097 86.9227 15.9036C86.9344 15.9036 86.9326 15.8892 86.9471 15.8892C87.8842 15.9577 88.6707 15.2244 88.7816 14.2999L88.8565 12.9579C87.141 12.5312 85.3488 12.3157 83.7885 12.3157C78.0982 12.3509 73.8744 15.2136 73.8608 20.6749C73.869 25.4515 77.088 27.3032 80.5496 28.979C83.9445 30.6115 87.6641 31.9599 87.6966 35.9005C87.6758 40.0133 83.7073 41.5295 80.9726 41.5349C79.3735 41.5295 77.6373 41.1299 76.1743 40.669C75.257 40.5175 74.5048 41.3265 74.3867 42.3981L74.2622 43.5949C76.2735 44.2443 78.3363 44.8107 80.4089 44.8107H80.4333C86.8055 44.7647 91.7589 42.2231 91.7779 35.6245C91.7679 30.533 88.5273 28.3945 85.0819 26.643ZM146.976 44.3363L146.981 44.3354C147.865 44.3354 148.601 43.7158 148.789 42.8887V30.1019C148.789 25.2693 146.744 21.612 141.081 21.612C139.079 21.612 135.728 22.7457 134.205 25.9223C133.027 22.918 130.462 21.612 127.891 21.612C124.627 21.612 122.406 22.7872 120.842 25.3568H120.753V23.975C120.747 23.4867 120.55 23.02 120.203 22.6763C119.856 22.3325 119.388 22.1394 118.899 22.1387C118.892 22.1387 118.887 22.1333 118.879 22.1333H116.923V44.3363H119.138L119.144 44.3354C119.636 44.3352 120.108 44.1394 120.456 43.7912C120.805 43.443 121 42.9708 121.001 42.4783C121.001 42.4513 121.011 42.4404 121.015 42.4215V33.1496C121.015 29.0142 122.669 24.9221 126.848 24.9221C130.157 24.9221 130.813 28.3594 130.813 31.1031V44.3372H133.059L133.065 44.3363C133.527 44.3351 133.972 44.1611 134.312 43.8484C134.652 43.5358 134.862 43.1072 134.902 42.647V33.1496C134.902 29.0142 136.557 24.9221 140.736 24.9221C144.043 24.9221 144.698 28.3594 144.698 31.1031V44.3372H146.976V44.3363ZM210.213 44.3363L210.22 44.3354C210.697 44.3347 211.155 44.1502 211.5 43.8203C211.844 43.4903 212.048 43.0404 212.069 42.564V31.1455C212.069 25.1827 209.498 21.6111 203.751 21.6111C200.661 21.6111 197.703 23.1362 196.482 25.6617H196.395V24.003C196.395 24.0021 196.391 24.0021 196.391 23.9976C196.392 23.7536 196.344 23.5119 196.251 23.2863C196.158 23.0607 196.021 22.8557 195.849 22.6831C195.676 22.5104 195.471 22.3734 195.246 22.28C195.021 22.1866 194.779 22.1386 194.535 22.1387C194.525 22.1387 194.521 22.1333 194.515 22.1333H192.431V44.3363H194.679L194.685 44.3354C195.151 44.334 195.598 44.1573 195.939 43.8405C196.28 43.5237 196.488 43.0901 196.524 42.6262V34.0623C196.524 28.6651 198.615 24.9212 203.272 24.9212C206.844 25.1376 207.972 27.6613 207.972 32.8429V44.3354H210.213V44.3363ZM232.246 22.1333C232.236 22.1333 232.233 22.1387 232.222 22.1387C231.362 22.1387 230.524 22.7313 230.163 23.5322L224.533 40.5067H224.441L218.936 23.5412C218.574 22.7358 217.735 22.1387 216.868 22.1387C216.861 22.1387 216.854 22.1333 216.849 22.1333H213.995L221.527 42.8571C221.79 43.5976 222.315 44.7305 222.315 45.2076C222.315 45.6432 221.092 50.6914 217.435 50.6914C217.343 50.6914 217.254 50.6833 217.164 50.676C216.232 50.6246 215.527 51.2758 215.369 52.2806L215.259 53.6966C215.998 53.8274 216.742 54.0015 218.047 54.0015C223.444 54.0015 225.056 49.0814 226.581 44.8152L234.765 22.1324H232.246V22.1333Z" fill="#1A171B"/>
<defs>
<clipPath id="clip0">
<rect width="50.9001" height="52.9361" fill="white" transform="translate(275.17 0.385742)"/>
</clipPath>
</defs>
</svg>
