<svg width="93" height="56" viewBox="0 0 93 56" fill="none" xmlns="http://www.w3.org/2000/svg">
<g clip-path="url(#clip0)">
<path d="M26.2107 20.3382C26.1868 21.274 26.3014 22.2083 26.551 23.1101C26.8257 23.8811 27.1566 24.6306 27.5407 25.3526C27.6783 25.5662 27.7533 25.8144 27.7573 26.069C27.7374 26.2598 27.674 26.4434 27.572 26.6054C27.4701 26.7675 27.3324 26.9037 27.1696 27.0033L25.2209 28.3115C24.9858 28.4821 24.7062 28.5795 24.4167 28.5918C24.0644 28.5674 23.7336 28.412 23.4888 28.1557C23.072 27.7047 22.6991 27.2146 22.3753 26.6919C22.066 26.1624 21.7567 25.5706 21.4164 24.8543C19.0038 27.7197 15.9726 29.1524 12.3227 29.1524C9.72453 29.1524 7.65216 28.4049 6.13654 26.9099C4.62093 25.4149 3.84766 23.4216 3.84766 20.9299C3.84766 18.2825 4.77558 16.1335 6.66237 14.5139C8.54916 12.8943 11.0546 12.0845 14.2404 12.0845C15.3376 12.0935 16.433 12.1768 17.5191 12.3337C18.6636 12.4894 19.8389 12.7386 21.0762 13.0189V10.7453C21.0762 8.3782 20.5813 6.72748 19.6224 5.76196C18.6636 4.79645 16.9624 4.32926 14.5807 4.32926C13.4551 4.32922 12.3336 4.46516 11.2401 4.73415C10.1031 5.00693 8.98677 5.3608 7.89961 5.79311C7.54786 5.9516 7.18623 6.08685 6.81702 6.198C6.65692 6.25116 6.49049 6.28259 6.32213 6.29144C5.8891 6.29144 5.67258 5.97998 5.67258 5.32592V3.79978C5.63941 3.42302 5.71457 3.04461 5.8891 2.70968C6.12244 2.42585 6.41923 2.20171 6.75516 2.05562C7.99575 1.4375 9.30368 0.967137 10.6525 0.654061C12.2286 0.246854 13.8506 0.0479295 15.4777 0.0622945C19.1585 0.0622945 21.8495 0.903228 23.5816 2.5851C25.3137 4.26697 26.1488 6.82092 26.1488 10.2469V20.3382H26.2107ZM13.6528 25.0723C14.7379 25.0603 15.8138 24.871 16.8386 24.5117C17.9739 24.1165 18.9869 23.4293 19.7771 22.5184C20.2756 21.9445 20.6356 21.2623 20.8287 20.525C21.0413 19.6379 21.1451 18.7279 21.138 17.8154V16.5072C20.2001 16.2773 19.25 16.1006 18.2924 15.9778C17.328 15.8545 16.357 15.7921 15.3849 15.7909C13.3125 15.7909 11.7969 16.1958 10.7762 17.0367C9.75546 17.8776 9.26057 19.0612 9.26057 20.6185C9.26057 22.0823 9.63174 23.1724 10.405 23.9199C11.1783 24.6674 12.2299 25.0723 13.6528 25.0723ZM38.4903 28.436C38.074 28.4792 37.6562 28.3685 37.3149 28.1246C36.9912 27.7878 36.7664 27.3674 36.6654 26.9099L29.3966 2.83426C29.2557 2.43139 29.1623 2.01325 29.1182 1.58843C29.103 1.48535 29.1114 1.38012 29.1428 1.28082C29.1743 1.18152 29.2279 1.0908 29.2996 1.01561C29.3712 0.940428 29.4591 0.882783 29.5563 0.847104C29.6536 0.811425 29.7576 0.79866 29.8606 0.80979H32.8918C33.4795 0.80979 33.8816 0.903227 34.0981 1.12125C34.3146 1.33927 34.5311 1.74416 34.7167 2.33593L39.9131 22.9544L44.7383 2.33593C44.893 1.71302 45.0786 1.30812 45.326 1.12125C45.6971 0.892508 46.1289 0.783806 46.5633 0.80979H49.0377C49.6254 0.80979 50.0275 0.903227 50.275 1.12125C50.5985 1.44986 50.8051 1.87688 50.8627 2.33593L55.7497 23.2036L61.1008 2.33593C61.1991 1.88394 61.4122 1.46539 61.7194 1.12125C62.0788 0.891884 62.501 0.782866 62.9257 0.80979H65.8023C65.9072 0.795361 66.014 0.80556 66.1144 0.839588C66.2147 0.873616 66.3059 0.930554 66.3808 1.00595C66.4556 1.08134 66.5122 1.17315 66.546 1.2742C66.5798 1.37524 66.5899 1.48279 66.5756 1.58843C66.5683 1.75595 66.5476 1.9226 66.5137 2.08677C66.4652 2.35242 66.3928 2.61305 66.2972 2.86541L58.8428 26.9411C58.6572 27.564 58.4407 27.9689 58.1933 28.1557C57.8436 28.3811 57.4324 28.49 57.0179 28.4672H54.3578C53.7702 28.4672 53.3681 28.3738 53.1206 28.1557C52.7976 27.8143 52.5917 27.3777 52.5329 26.9099L47.7386 6.82092L42.9753 26.8788C42.9028 27.3424 42.6987 27.7751 42.3876 28.1246C42.0225 28.3675 41.586 28.4774 41.1503 28.436H38.4903ZM78.2365 29.277C76.6324 29.2787 75.0336 29.0905 73.4732 28.7164C71.9266 28.3426 70.7203 27.9377 69.9161 27.4705C69.518 27.2815 69.1844 26.978 68.9572 26.5984C68.8369 26.3236 68.7737 26.0268 68.7717 25.7264V24.1379C68.7717 23.4839 69.0191 23.1724 69.4831 23.1724C69.6724 23.173 69.8605 23.2046 70.0398 23.2659C70.2254 23.3281 70.5038 23.4527 70.8131 23.5773C71.9056 24.0612 73.0462 24.4266 74.2155 24.6674C75.427 24.915 76.66 25.0402 77.8963 25.0412C79.8449 25.0412 81.3605 24.6986 82.4122 24.0134C82.9159 23.7071 83.3301 23.272 83.6126 22.7523C83.8951 22.2326 84.0359 21.6468 84.0206 21.0545C84.0314 20.6536 83.9632 20.2544 83.8199 19.8802C83.6765 19.506 83.4609 19.1641 83.1855 18.8743C82.6287 18.2825 81.577 17.7531 80.0614 17.2547L75.5765 15.8532C73.3185 15.1368 71.6482 14.0779 70.6275 12.6763C69.6318 11.3837 69.0881 9.79604 69.081 8.16018C69.0559 6.95426 69.3438 5.76263 69.9161 4.703C70.4684 3.70103 71.2278 2.8301 72.1431 2.14906C73.1072 1.41435 74.1978 0.865276 75.3599 0.52948C76.6263 0.162093 77.9394 -0.0162986 79.2572 1.59978e-06C79.95 -0.0050707 80.6423 0.0365504 81.3296 0.124585C82.041 0.218022 82.6906 0.342605 83.3401 0.467187C83.9897 0.59177 84.5464 0.778644 85.1032 0.965518C85.5545 1.10609 85.9899 1.294 86.4023 1.52614C86.7665 1.71107 87.0839 1.97741 87.3302 2.30479C87.5314 2.60787 87.6291 2.96864 87.6086 3.3326V4.79644C87.6086 5.4505 87.3611 5.79311 86.8972 5.79311C86.4851 5.74598 86.086 5.61907 85.7218 5.41936C83.8525 4.58739 81.8265 4.173 79.7831 4.20467C78.02 4.20467 76.6281 4.48499 75.6692 5.07676C74.7104 5.66852 74.2155 6.57175 74.2155 7.84873C74.207 8.26231 74.2852 8.67305 74.4451 9.05411C74.605 9.43516 74.843 9.77795 75.1434 10.0601C75.762 10.6518 76.9065 11.2436 78.5458 11.7731L82.938 13.1746C85.165 13.891 86.7734 14.8877 87.7323 16.1646C88.6764 17.4175 89.1773 18.9524 89.1551 20.525C89.171 21.7761 88.8956 23.0134 88.3509 24.1379C87.8021 25.204 87.032 26.1387 86.093 26.8788C85.0718 27.679 83.9056 28.2714 82.6596 28.6229C81.227 29.0666 79.7354 29.2872 78.2365 29.277Z" fill="#141414"/>
<path d="M84.0826 44.4138C73.9063 51.9822 59.1213 56 46.4087 56C28.5925 56 12.5394 49.366 0.414446 38.3404C-0.544412 37.4683 0.321654 36.2848 1.4661 36.97C14.5808 44.6318 30.7577 49.2725 47.4913 49.2725C59.5511 49.2081 71.4803 46.7528 82.5979 42.0467C84.2991 41.2681 85.7529 43.168 84.0826 44.4138ZM88.3201 39.5551C87.021 37.8732 79.7213 38.7453 76.4117 39.1502C75.4219 39.2747 75.2673 38.4027 76.1643 37.7486C81.9793 33.6374 91.5369 34.8209 92.6505 36.1913C93.764 37.5617 92.3411 47.2169 86.8973 51.8265C86.0622 52.5428 85.258 52.1691 85.6291 51.2347C86.8664 48.1513 89.6192 41.2058 88.3201 39.5551Z" fill="#141414"/>
</g>
<defs>
<clipPath id="clip0">
<rect width="93" height="56" fill="white"/>
</clipPath>
</defs>
</svg>
