<svg width="215" height="39" viewBox="0 0 215 39" fill="none" xmlns="http://www.w3.org/2000/svg">
<path d="M146.062 28.1079H165.409V23.8105H152.657C154.416 16.7583 165.189 15.2156 165.189 7.39209C165.189 3.20485 162.331 0.119507 156.285 0.119507C152.548 0.119507 149.25 1.22141 147.051 2.32332L148.37 6.29019C150.349 5.29847 152.657 4.41694 155.516 4.41694C157.714 4.41694 159.803 5.40866 159.803 7.94305C159.803 13.673 147.161 14.1137 146.062 28.1079ZM165.959 21.2761H178.381V28.1079H183.327V21.2761H187.505V17.0889H183.327V0.119507H179.7L165.959 17.9704V21.2761ZM171.565 17.3093L178.6 7.83286C178.6 8.60419 178.381 11.0284 178.381 13.2322V17.1991H175.083C174.093 17.1991 172.225 17.3093 171.565 17.3093Z" fill="#141414"/>
<path d="M5.57408 23.9209V15.2158H7.66271C9.53148 15.2158 11.0705 15.4362 12.1698 16.0973C13.269 16.7585 13.9286 17.8604 13.9286 19.6235C13.9286 22.5986 12.1698 23.9209 7.99249 23.9209H5.57408ZM0.517399 28.1081H7.88257C16.1272 28.1081 19.0952 24.4718 19.0952 19.4031C19.0952 15.9872 17.6661 13.6732 15.1378 12.3509C13.1591 11.249 10.6308 10.9184 7.55278 10.9184H5.57408V4.30694H16.6768L17.9959 0.229889H0.407471V28.1081H0.517399ZM22.503 28.1081H27.3398L33.6057 19.0725C34.8149 17.4196 35.6943 15.7668 36.2439 14.8853H36.3539C36.244 16.0974 36.134 17.64 36.134 19.1827V27.9979H41.0808V8.16362H36.2439L29.9781 17.1993C28.8788 18.8521 27.8894 20.505 27.3398 21.3865H27.2299C27.3398 20.1744 27.4497 18.6317 27.4497 17.0891V8.27381H22.503V28.1081ZM49.5452 28.1081H54.6019V12.3509H60.538L61.8571 8.16362H43.4992V12.3509H49.5452V28.1081ZM63.616 38.1355H68.5627V28.1081C69.5521 28.4387 70.5415 28.5489 71.6407 28.5489C77.9066 28.5489 81.9739 24.2515 81.9739 18.0808C81.9739 11.6897 78.2364 7.61267 71.0911 7.61267C68.3429 7.61267 65.7046 8.16362 63.5061 8.82476V38.1355H63.616ZM68.5627 23.8107V12.1305C69.3322 11.9101 69.9918 11.7999 70.8712 11.7999C74.4988 11.7999 76.8073 13.7833 76.8073 18.0808C76.8073 21.9375 74.9386 24.3617 71.201 24.3617C70.2117 24.3617 69.4422 24.1413 68.5627 23.8107ZM84.942 28.1081H89.7788L96.0447 19.0725C97.2539 17.4196 98.1333 15.7668 98.683 14.8853H98.7929C98.683 16.0974 98.5731 17.64 98.5731 19.1827V27.9979H103.52V8.16362H98.683L92.4171 17.1993C91.3178 18.8521 90.3285 20.505 89.7788 21.3865H89.6689C89.7788 20.1744 89.8887 18.6317 89.8887 17.0891V8.27381H84.942V28.1081ZM107.477 28.1081H112.534V19.8438H115.502C116.052 19.8438 116.601 20.3948 117.261 21.7171L119.789 28.1081H125.176L121.548 20.505C120.888 19.1827 120.229 18.4114 119.239 18.0808V17.9706C120.888 16.9789 121.108 14.1139 122.098 12.6814C122.427 12.2407 122.867 12.0203 123.527 12.0203C123.856 12.0203 124.296 12.0203 124.626 12.2407V7.94324C124.076 7.72286 123.087 7.61267 122.537 7.61267C120.778 7.61267 119.679 8.27381 118.91 9.37572C117.261 11.7999 117.261 15.9872 114.842 15.9872H112.534V8.16362H107.477V28.1081ZM136.388 28.5489C139.136 28.5489 141.665 27.6674 143.204 26.5655L141.775 23.1496C140.346 23.9209 139.027 24.4718 137.158 24.4718C133.75 24.4718 131.551 22.268 131.551 18.191C131.551 14.5547 133.75 11.6897 137.488 11.6897C139.466 11.6897 140.895 12.2407 142.324 13.2324V8.93495C141.225 8.27381 139.466 7.61267 136.938 7.61267C131.002 7.61267 126.385 12.0203 126.385 18.3012C126.385 24.0311 129.902 28.5489 136.388 28.5489Z" fill="#141414"/>
<path d="M203.884 21.2761C209.27 21.2761 213.667 16.8685 213.667 11.4691C213.667 6.0698 209.27 1.66217 203.884 1.66217C198.497 1.66217 194.1 6.0698 194.1 11.4691C194.21 16.8685 198.497 21.2761 203.884 21.2761Z" stroke="#141414" stroke-width="1.7688"/>
<path d="M210.04 11.4691H204.653V6.06979H203.224V12.9016H210.04V11.4691Z" fill="#141414"/>
</svg>
