<svg width="265" height="53" viewBox="0 0 265 53" fill="none" xmlns="http://www.w3.org/2000/svg">
<path fill-rule="evenodd" clip-rule="evenodd" d="M103.707 25.1728C101.604 25.1728 99.8973 26.878 99.8973 28.979C99.8973 31.0847 101.604 32.7884 103.707 32.7884C105.811 32.7884 107.515 31.0847 107.515 28.979C107.515 26.878 105.811 25.1728 103.707 25.1728ZM258.699 22.3778C261.196 22.3778 263.023 23.7757 264.22 25.1728V18.4232C262.258 17.093 259.894 16.5604 257.839 16.5604C251.525 16.5604 246.039 21.0814 246.039 28.8592C246.039 36.3065 251.025 41.161 257.937 41.161C259.931 41.161 262.125 40.8589 264.22 39.4319V32.8122C263.023 34.0448 261.131 35.3428 258.699 35.3428C254.978 35.3428 252.75 32.5847 252.75 29.059C252.75 25.2358 255.111 22.3778 258.699 22.3778ZM246.753 17.2267H239.107L232.092 26.9979V17.2267H225.578L225.58 40.4954H232.092V30.4876L238.837 40.4954H246.986L237.91 28.4941L246.753 17.2267ZM206.34 31.1884V17.2267H200.058V40.4954H206.44L215.449 26.533V40.4954H221.731V17.2267H215.347L206.34 31.1884ZM187.462 27.6957H185.603V22.3463H187.462C190.254 22.3463 190.651 23.8402 190.651 25.0045C190.651 26.0012 190.353 27.6957 187.462 27.6957ZM188.889 17.2267H179.085V40.4954H185.603V32.8122H188.889C195.473 32.8122 197.368 28.2305 197.368 25.0045C197.368 21.8122 195.506 17.2267 188.889 17.2267ZM159.675 22.8089H164.791V40.4954H171.308V22.8089H176.425V17.2267H159.675V22.8089ZM141.623 31.1884V17.2267H135.342V40.4954H141.726L150.73 26.533V40.4954H157.014V17.2267H150.633L141.623 31.1884ZM122.212 35.8385H119.42V30.954H122.212C124.273 30.954 125.471 31.5534 125.471 33.3832C125.471 35.2429 124.241 35.8385 122.212 35.8385ZM122.845 26.3001H119.42V22.8089H130.09V17.2267H112.906L112.905 40.4955L122.845 40.4954C124.538 40.4954 131.985 40.56 131.985 33.2825C131.985 26.2671 124.606 26.3001 122.845 26.3001ZM76.4418 28.8592C76.4418 36.3065 81.4276 41.161 88.3409 41.161C90.3374 41.161 92.5306 40.8589 94.6255 39.4319V32.8122C93.4251 34.0448 91.5308 35.3428 89.1055 35.3428C85.3815 35.3428 83.156 32.5847 83.156 29.059C83.156 25.2358 85.5152 22.3778 89.1055 22.3778C91.5977 22.3778 93.4251 23.7757 94.6255 25.1728V18.4232C92.6597 17.093 90.302 16.5604 88.241 16.5604C81.9249 16.5604 76.4418 21.0814 76.4418 28.8592ZM62.8013 22.5776H66.3601V40.4954H72.3773V17.2267H62.8013V22.5776Z" fill="#141414"/>
<path fill-rule="evenodd" clip-rule="evenodd" d="M25.5819 0.932617C23.676 0.932617 21.8225 1.14702 20.0365 1.54356V26.5337C20.0365 29.5961 22.5333 32.0936 25.5965 32.0936C28.6581 32.0936 31.1541 29.5961 31.1541 26.5352C31.1541 23.5935 28.8556 21.1789 25.9661 20.9868V16.5366C31.3055 16.7302 35.6021 21.1474 35.6021 26.5352C35.6021 32.0452 31.1072 36.5424 25.5965 36.5424C20.0834 36.5424 15.5893 32.0452 15.5893 26.5337V2.95756C14.9577 3.22576 14.3406 3.52316 13.7358 3.84284V26.5337C13.7365 33.065 19.0652 38.3913 25.5965 38.3913C32.1285 38.3913 37.4549 33.065 37.4549 26.5352C37.4549 20.1269 32.3291 14.879 25.9661 14.6815V10.2327C34.7775 10.4318 41.9005 17.6785 41.9005 26.5352C41.9005 35.5172 34.5761 42.84 25.5965 42.84C16.6145 42.84 9.28783 35.5172 9.28783 26.5337V6.7938C3.61646 11.4838 0 18.5761 0 26.5145C0 40.643 11.4534 52.0994 25.5826 52.0994C39.7142 52.0994 51.1645 40.643 51.1645 26.5145C51.1645 12.386 39.7142 0.932617 25.5819 0.932617Z" fill="#141414"/>
</svg>
