<svg width="242" height="48" viewBox="0 0 242 48" fill="none" xmlns="http://www.w3.org/2000/svg">
<path fill-rule="evenodd" clip-rule="evenodd" d="M94.6434 22.536C92.7246 22.536 91.167 24.0922 91.167 26.0096C91.167 27.9312 92.7246 29.4861 94.6434 29.4861C96.5636 29.4861 98.1192 27.9312 98.1192 26.0096C98.1192 24.0922 96.5636 22.536 94.6434 22.536ZM236.091 19.9853C238.37 19.9853 240.037 21.261 241.13 22.536V16.3763C239.339 15.1623 237.182 14.6763 235.306 14.6763C229.544 14.6763 224.537 18.8021 224.537 25.9002C224.537 32.6967 229.087 37.127 235.396 37.127C237.216 37.127 239.217 36.8514 241.13 35.549V29.5078C240.037 30.6327 238.311 31.8173 236.091 31.8173C232.696 31.8173 230.662 29.3002 230.662 26.0826C230.662 22.5935 232.816 19.9853 236.091 19.9853ZM225.189 15.2843H218.211L211.809 24.2016V15.2843H205.865L205.867 36.5196H211.809V27.3863L217.965 36.5196H225.402L217.119 25.5671L225.189 15.2843ZM188.308 28.0259V15.2843H182.574V36.5196H188.399L196.62 23.7773V36.5196H202.354V15.2843H196.528L188.308 28.0259ZM171.079 24.8384H169.383V19.9565H171.079C173.628 19.9565 173.99 21.3199 173.99 22.3824C173.99 23.292 173.718 24.8384 171.079 24.8384ZM172.382 15.2843H163.435V36.5196H169.383V29.5078H172.382C178.39 29.5078 180.12 25.3265 180.12 22.3824C180.12 19.4691 178.42 15.2843 172.382 15.2843ZM145.721 20.3787H150.389V36.5196H156.337V20.3787H161.007V15.2843H145.721V20.3787ZM129.246 28.0259V15.2843H123.514V36.5196H129.34L137.557 23.7773V36.5196H143.292V15.2843H137.469L129.246 28.0259ZM111.531 32.2696H108.984V27.812H111.531C113.413 27.812 114.506 28.3591 114.506 30.0289C114.506 31.7261 113.383 32.2696 111.531 32.2696ZM112.109 23.5648H108.984V20.3787H118.721V15.2843H103.039L103.038 36.5196L112.109 36.5196C113.654 36.5196 120.451 36.5785 120.451 29.937C120.451 23.5347 113.717 23.5648 112.109 23.5648ZM69.7612 25.9002C69.7612 32.6967 74.3114 37.127 80.6205 37.127C82.4425 37.127 84.4441 36.8514 86.3559 35.549V29.5078C85.2604 30.6327 83.5317 31.8173 81.3183 31.8173C77.9197 31.8173 75.8887 29.3002 75.8887 26.0826C75.8887 22.5935 78.0417 19.9853 81.3183 19.9853C83.5927 19.9853 85.2604 21.261 86.3559 22.536V16.3763C84.5619 15.1623 82.4103 14.6763 80.5293 14.6763C74.7652 14.6763 69.7612 18.8021 69.7612 25.9002ZM57.3128 20.1676H60.5606V36.5196H66.0519V15.2843H57.3128V20.1676Z" fill="#141414"/>
<path fill-rule="evenodd" clip-rule="evenodd" d="M23.3463 0.414185C21.607 0.414185 19.9154 0.609853 18.2856 0.971735V23.778C18.2856 26.5728 20.5641 28.8521 23.3596 28.8521C26.1537 28.8521 28.4316 26.5728 28.4316 23.7794C28.4316 21.0948 26.3339 18.8912 23.697 18.7159V14.6545C28.5697 14.8313 32.4908 18.8624 32.4908 23.7794C32.4908 28.8079 28.3888 32.912 23.3596 32.912C18.3283 32.912 14.227 28.8079 14.227 23.778V2.26217C13.6505 2.50693 13.0874 2.77834 12.5354 3.07009V23.778C12.5361 29.7385 17.3991 34.5994 23.3596 34.5994C29.3209 34.5994 34.1817 29.7385 34.1817 23.7794C34.1817 17.9311 29.5039 13.1418 23.697 12.9615V8.90158C31.7383 9.08322 38.2389 15.6967 38.2389 23.7794C38.2389 31.9765 31.5546 38.6594 23.3596 38.6594C15.1626 38.6594 8.47617 31.9765 8.47617 23.778V5.76316C3.30042 10.0433 0 16.5158 0 23.7605C0 36.6543 10.4525 47.1096 23.347 47.1096C36.2436 47.1096 46.6933 36.6543 46.6933 23.7605C46.6933 10.8667 36.2436 0.414185 23.3463 0.414185Z" fill="#141414"/>
</svg>
