<svg width="256" height="64" viewBox="0 0 256 64" fill="none" xmlns="http://www.w3.org/2000/svg">
<path d="M37.2469 23.1417H25.9954V26.068H37.2469V23.1417Z" fill="#141414"/>
<path d="M37.2464 0.637573H34.3215V23.1417H37.2464V0.637573Z" fill="#141414"/>
<path d="M11.8191 23.1417V16.8404C11.8191 14.111 14.0405 11.8901 16.7694 11.8901H34.3218V14.8154H16.7694C15.6529 14.8154 14.7439 15.7239 14.7439 16.8404V23.1417H11.8191Z" fill="#141414"/>
<path d="M14.7439 26.068H11.8191V38.5566H14.7439V26.068Z" fill="#141414"/>
<path d="M25.9956 14.8154H23.0713V49.8077H25.9956V14.8154Z" fill="#141414"/>
<path d="M5.51866 41.481C2.78875 41.481 0.567871 39.2625 0.567871 36.5311V28.0925C0.567871 25.364 2.78875 23.1412 5.51866 23.1412H23.071V26.0675H5.51866C4.40219 26.0675 3.4927 26.976 3.4927 28.092V36.5302C3.4927 37.6462 4.4017 38.5557 5.51866 38.5557H23.071V41.4805H5.51866V41.481Z" fill="#141414"/>
<path d="M23.0713 11.8901V5.59029C23.0713 2.85894 25.2922 0.637573 28.0216 0.637573H34.3224V3.56337H28.0216C26.9046 3.56337 25.9956 4.47237 25.9956 5.58981V11.8901H23.0713Z" fill="#141414"/>
<path d="M37.2469 38.5566H25.9954V41.4815H37.2469V38.5566Z" fill="#141414"/>
<path d="M37.2464 41.481H34.3215V63.9851H37.2464V41.481Z" fill="#141414"/>
<path d="M16.7694 52.733C14.0405 52.733 11.8191 50.5117 11.8191 47.7827V41.481H14.7439V47.7827C14.7439 48.8997 15.6529 49.8077 16.7694 49.8077H34.3218V52.733H16.7694Z" fill="#141414"/>
<path d="M28.0216 63.9851C25.2922 63.9851 23.0713 61.7652 23.0713 59.0343V52.7326H25.9961V59.0343C25.9961 60.1503 26.9046 61.0588 28.0216 61.0588H34.3224V63.9846H28.0216V63.9851Z" fill="#141414"/>
<path d="M81.7781 26.2301C81.6498 25.3905 81.3463 24.6774 80.8705 24.0951C80.3929 23.5093 79.7 23.0519 78.793 22.7214C77.8868 22.39 76.67 22.2269 75.1444 22.2269C74.686 22.2269 74.1712 22.2385 73.599 22.264C73.0268 22.2882 72.4507 22.3335 71.8649 22.3972C71.2705 22.4614 69.5789 22.7118 68.3602 23.1957L69.0038 25.4427C69.8819 25.171 72.3875 24.8313 74.5731 24.8188C76.2522 24.8087 77.414 25.0851 78.062 25.6197C78.7109 26.1524 79.0347 27.1183 79.0347 28.5185V29.814H73.7717C71.2285 29.814 69.411 30.3418 68.3163 31.3989C67.2234 32.4537 66.6772 34.0623 66.6772 36.2209C66.6772 37.9525 67.0714 39.262 67.8593 40.1493C68.6492 41.0414 69.8004 41.4863 71.657 41.4863C74.1649 41.4863 77.0367 40.3558 78.9961 39.1216L79.0742 41.1809H81.9711V29.014C81.9716 27.9979 81.9064 27.0701 81.7781 26.2301ZM79.0347 36.6802C78.6033 36.936 78.1117 37.1902 77.5665 37.4426C76.3439 38.0148 71.6435 39.9592 70.2447 38.3236C69.8081 37.8126 69.6151 37.1753 69.6151 36.108C69.6151 34.5829 69.9808 33.5798 70.6438 33.0196C71.353 32.4199 72.2596 32.2168 73.4282 32.2168H79.0347V36.6802Z" fill="#141414"/>
<path d="M138.056 26.2301C137.927 25.3905 137.624 24.6774 137.148 24.0951C136.669 23.5093 135.977 23.0519 135.07 22.7214C134.164 22.39 132.947 22.2269 131.421 22.2269C130.963 22.2269 130.448 22.2385 129.875 22.264C129.303 22.2882 128.726 22.3335 128.141 22.3972C127.548 22.4614 125.856 22.7118 124.635 23.1957L125.28 25.4427C126.157 25.171 128.664 24.8313 130.848 24.8188C132.527 24.8087 133.691 25.0851 134.338 25.6197C134.988 26.1524 135.311 27.1183 135.311 28.5185V29.814H130.047C127.505 29.814 125.687 30.3418 124.592 31.3989C123.499 32.4537 122.953 34.0623 122.953 36.2209C122.953 37.9525 123.347 39.262 124.135 40.1493C124.925 41.0414 126.076 41.4863 127.933 41.4863C130.441 41.4863 133.313 40.3558 135.273 39.1216L135.351 41.1809H138.248V29.014C138.248 27.9979 138.184 27.0701 138.056 26.2301ZM135.312 36.6802C134.88 36.936 134.39 37.1902 133.843 37.4426C132.621 38.0148 127.921 39.9592 126.522 38.3236C126.085 37.8126 125.892 37.1753 125.892 36.108C125.892 34.5829 126.258 33.5798 126.92 33.0196C127.63 32.4199 128.536 32.2168 129.704 32.2168H135.312V36.6802Z" fill="#141414"/>
<path d="M64.5169 38.2083C61.192 38.9846 58.9658 38.8939 58.6276 38.8939C57.7895 38.8939 57.0764 38.7781 56.4921 38.5484C55.9074 38.3207 55.4369 37.9313 55.0809 37.3847C54.7253 36.8395 54.47 36.108 54.319 35.1937C54.1656 34.2775 54.0894 33.1219 54.0894 31.7227C54.0894 30.4258 54.1651 29.3397 54.319 28.462C54.47 27.5863 54.719 26.8771 55.063 26.3435C55.4065 25.8098 55.8688 25.4243 56.4545 25.1802C57.0393 24.9399 57.7635 24.8193 58.6276 24.8193C59.3152 24.8193 60.1349 24.8641 61.0893 24.9544C62.0142 25.0393 62.8585 25.1189 64.4175 25.4123L64.9911 23.2227C62.861 22.5241 59.6389 22.2269 58.6657 22.2269C56.9877 22.2269 55.6473 22.4913 54.6423 23.0268C53.6373 23.5595 52.8624 24.2726 52.3157 25.1628C51.7686 26.052 51.413 27.0701 51.2475 28.2131C51.0825 29.3571 51.0005 30.5382 51.0005 31.7589C51.0005 33.1089 51.082 34.3662 51.2475 35.5367C51.4135 36.7048 51.7691 37.7349 52.3157 38.6256C52.8624 39.5173 53.6373 40.214 54.6423 40.722C55.6473 41.2315 56.9877 41.4868 58.6657 41.4868C60.3998 41.4868 62.861 41.1809 65.1634 40.3051L64.5169 38.2083Z" fill="#141414"/>
<path d="M155.052 38.2083C151.727 38.9846 149.499 38.8939 149.162 38.8939C148.324 38.8939 147.611 38.7781 147.027 38.5484C146.441 38.3207 145.972 37.9313 145.615 37.3847C145.26 36.8395 145.005 36.108 144.853 35.1937C144.7 34.2775 144.624 33.1219 144.624 31.7227C144.624 30.4258 144.7 29.3397 144.853 28.462C145.005 27.5863 145.254 26.8771 145.597 26.3435C145.941 25.8098 146.403 25.4243 146.989 25.1802C147.572 24.9399 148.298 24.8193 149.162 24.8193C149.849 24.8193 150.669 24.8641 151.624 24.9544C152.548 25.0393 153.393 25.1189 154.952 25.4123L155.526 23.2227C153.396 22.5241 150.174 22.2269 149.2 22.2269C147.522 22.2269 146.181 22.4913 145.176 23.0268C144.171 23.5595 143.397 24.2726 142.849 25.1628C142.303 26.052 141.948 27.0701 141.782 28.2131C141.617 29.3571 141.535 30.5382 141.535 31.7589C141.535 33.1089 141.617 34.3662 141.782 35.5367C141.948 36.7048 142.303 37.7349 142.849 38.6256C143.398 39.5173 144.171 40.214 145.176 40.722C146.181 41.2315 147.522 41.4868 149.2 41.4868C150.934 41.4868 153.396 41.1809 155.699 40.3051L155.052 38.2083Z" fill="#141414"/>
<path d="M89.0189 14.291H86.1587V41.1809H89.0189V14.291Z" fill="#141414"/>
<path d="M96.2723 14.291H93.4116V41.1809H96.2723V14.291Z" fill="#141414"/>
<path d="M107.802 38.8659C106.785 39.0502 105.533 39.1289 104.875 39.0063C104.533 38.945 104.26 38.8239 104.055 38.6459C103.852 38.4683 103.719 38.1509 103.656 37.8715C103.59 37.5931 103.524 36.9832 103.524 36.5283V25.0046H108.084V22.6003H103.524V16.6339L100.665 17.9357V37.4377C100.665 38.0466 100.727 38.6 100.856 39.0956C100.982 39.5906 101.198 40.0181 101.503 40.3746C101.809 40.7297 102.227 41.0038 102.763 41.1929C103.296 41.3845 103.969 41.5157 104.783 41.481C106.529 41.4043 107.643 41.066 108.255 40.8938L107.802 38.8659Z" fill="#141414"/>
<path d="M121.719 24.9028L121.732 22.3634C121.202 22.4199 119.896 22.6626 119.337 22.8541C118.778 23.0447 118.231 23.2628 117.698 23.5031C117.163 23.7467 116.674 23.9875 116.228 24.2287C115.783 24.4704 115.434 24.6914 115.18 24.896L115.102 24.8198V22.6085H112.167V41.1809H115.102V27.0701C117.722 25.6853 120.563 25.1474 121.719 24.9028Z" fill="#141414"/>
<path d="M237.154 24.9028L237.166 22.3634C236.636 22.4199 235.33 22.6626 234.771 22.8541C234.212 23.0447 233.665 23.2628 233.132 23.5031C232.597 23.7467 232.108 23.9875 231.662 24.2287C231.217 24.4704 230.868 24.6914 230.614 24.896L230.536 24.8198V22.6085H227.601V41.1809H230.536V27.0701C233.156 25.6853 235.997 25.1474 237.154 24.9028Z" fill="#141414"/>
<path d="M173.179 41.1809L166.272 30.1204L172.52 22.6081H169.162L163.411 29.51L161.428 32.0643L161.353 32.0257V15.2916H158.416V41.1809H161.353V36.0318L164.404 32.333L169.845 41.1809H173.179Z" fill="#141414"/>
<path d="M178.884 22.6081H176.021V41.1809H178.884V22.6081Z" fill="#141414"/>
<path d="M177.453 19.3643C178.164 19.3643 178.615 19.1993 178.805 18.8683C178.998 18.5388 179.094 18.132 179.094 17.6486C179.094 17.1381 178.99 16.7401 178.787 16.4453C178.585 16.1548 178.14 16.0096 177.453 16.0096C176.791 16.0096 176.352 16.1611 176.136 16.4665C175.921 16.7729 175.811 17.1656 175.811 17.6486C175.811 18.106 175.901 18.5055 176.081 18.8485C176.259 19.193 176.717 19.3643 177.453 19.3643Z" fill="#141414"/>
<path d="M222.806 41.1809C223.517 41.1809 223.969 41.0159 224.159 40.6849C224.352 40.3553 224.447 39.9486 224.447 39.4652C224.447 38.9547 224.343 38.5566 224.14 38.2618C223.938 37.9714 223.494 37.8261 222.806 37.8261C222.144 37.8261 221.706 37.9776 221.49 38.2831C221.275 38.5894 221.164 38.9822 221.164 39.4652C221.164 39.9225 221.255 40.322 221.434 40.6651C221.613 41.0096 222.071 41.1809 222.806 41.1809Z" fill="#141414"/>
<path d="M194.86 25.7346C195.398 26.4718 195.488 27.816 195.488 29.2427V41.1809H198.425V29.2818C198.425 28.2628 198.368 27.3243 198.253 26.4578C198.139 25.5942 197.892 24.8506 197.51 24.2282C197.128 23.6034 196.576 23.1151 195.852 22.7591C195.126 22.4049 194.142 22.2264 192.895 22.2264C192.21 22.2264 191.534 22.3152 190.873 22.4908C190.212 22.6708 189.584 22.8869 188.986 23.1397C188.387 23.395 187.848 23.6604 187.366 23.9402C186.882 24.2205 186.487 24.4627 186.184 24.6654L186.069 24.6287V22.608H183.209V41.1809H186.069V27.0324C186.348 26.8771 186.754 26.6831 187.29 26.4395C187.823 26.1997 188.395 25.9633 189.005 25.7346C189.616 25.5039 190.226 25.3032 190.836 25.1232C191.447 24.9457 191.98 24.8569 192.438 24.8569C193.023 24.8569 193.513 24.9211 193.906 25.0465C194.298 25.1758 194.618 25.4041 194.86 25.7346Z" fill="#141414"/>
<path d="M243.708 37.6727C243.17 36.9355 243.079 35.5913 243.079 34.1646V22.2264H240.143V34.1255C240.143 35.1445 240.2 36.0829 240.314 36.9495C240.429 37.8131 240.676 38.5566 241.057 39.179C241.44 39.8039 241.991 40.2921 242.716 40.6482C243.442 41.0023 244.426 41.1809 245.672 41.1809C246.358 41.1809 247.033 41.0921 247.695 40.9165C248.356 40.7365 248.984 40.5203 249.582 40.2675C250.181 40.0123 250.72 39.7469 251.202 39.4671C251.686 39.1868 252.081 38.9445 252.384 38.7419L252.499 38.7786V40.7992H255.359V22.2264H252.499V36.3748C252.22 36.5302 251.814 36.7241 251.277 36.9678C250.745 37.2076 250.173 37.444 249.563 37.6727C248.951 37.9033 248.341 38.1041 247.732 38.284C247.121 38.4616 246.588 38.5504 246.13 38.5504C245.544 38.5504 245.055 38.4862 244.662 38.3607C244.269 38.2314 243.949 38.0032 243.708 37.6727Z" fill="#141414"/>
<path d="M209.552 22.2269C210.137 22.2269 210.744 22.2496 211.379 22.3026C212.012 22.3518 212.633 22.4155 213.243 22.4913C213.852 22.5675 216.473 23.0293 217.467 23.3023V41.2571C217.467 42.2747 217.39 43.2092 217.239 44.0608C217.086 44.9129 216.757 45.6511 216.248 46.274C215.742 46.8959 215.008 47.3803 214.045 47.7219C213.08 48.0659 211.786 48.2358 210.163 48.2358C209.684 48.2358 209.165 48.2252 208.605 48.1991C208.048 48.174 207.496 48.1291 206.95 48.0659C206.407 48.0008 205.874 47.9144 205.354 47.7982C204.835 47.6853 203.891 47.4262 203.397 47.2274L203.824 45.1257C204.042 45.1951 204.372 45.2492 204.652 45.3003C205.466 45.4272 206.369 45.5155 207.36 45.5671C208.35 45.6168 209.241 45.6443 210.028 45.6443C210.919 45.6443 211.649 45.5724 212.221 45.434C212.792 45.2931 213.251 45.0716 213.595 44.7667C213.938 44.4608 214.18 44.0743 214.32 43.6029C214.459 43.132 214.529 42.5666 214.529 41.9051V40.3814C213.359 40.8127 212.335 41.1104 211.458 41.2764C210.583 41.4409 209.801 41.5234 209.113 41.5234C207.639 41.5234 206.426 41.301 205.47 40.8552C204.517 40.4137 203.76 39.7691 203.204 38.9296C202.643 38.0915 202.254 37.0884 202.038 35.9179C201.823 34.7493 201.715 33.4379 201.715 31.9885C201.715 30.4378 201.842 29.0579 202.094 27.8503C202.348 26.6426 202.779 25.6202 203.389 24.7792C203.998 23.9407 204.803 23.3067 205.805 22.8729C206.806 22.4416 208.055 22.2269 209.552 22.2269ZM204.766 31.645C204.766 32.994 204.842 34.1264 204.996 35.0393C205.147 35.9551 205.395 36.7048 205.737 37.2911C206.081 37.8773 206.52 38.2961 207.053 38.5484C207.589 38.8037 208.249 38.9296 209.039 38.9296C209.748 38.9296 210.602 38.8548 211.594 38.7033C212.585 38.5484 213.563 38.3332 214.53 38.0539V25.3524C213.792 25.2521 212.997 25.1561 212.147 25.0678C211.295 24.9771 210.462 24.9346 209.648 24.9346C208.963 24.9346 208.319 25.0094 207.723 25.1633C207.127 25.3153 206.602 25.6274 206.159 26.0983C205.713 26.5683 205.37 27.2404 205.127 28.119C204.887 28.9937 204.766 30.1705 204.766 31.645Z" fill="#141414"/>
</svg>
