<svg width="171" height="67" viewBox="0 0 171 67" fill="none" xmlns="http://www.w3.org/2000/svg">
<g clip-path="url(#clip0)">
<path d="M64.8675 0.435631H0V66.5643H64.8675V0.435631Z" fill="white"/>
<path fill-rule="evenodd" clip-rule="evenodd" d="M62.6141 13.1C62.2316 12.9594 61.8191 12.8827 61.389 12.8827H3.76834C3.30155 12.8827 2.85545 12.973 2.44591 13.1374L22.7752 33.2606L28.7671 28.3231C30.7325 26.7036 33.5355 26.6848 35.5217 28.2779L40.6288 32.3745L62.6141 13.1ZM42.3641 33.7664L64.7904 51.7551C64.9262 51.3679 65.0001 50.9509 65.0001 50.5161V16.564C65.0001 15.7897 64.7656 15.0711 64.365 14.4783L42.3641 33.7664ZM0.157227 16.564C0.157227 15.8161 0.37604 15.1202 0.751967 14.5394L21.0779 34.6593L0.359005 51.7325C0.228293 51.3517 0.157227 50.9424 0.157227 50.5161V16.564ZM63.4821 53.5163L34.1819 30.0138C32.9901 29.0579 31.3084 29.0692 30.1291 30.0409L1.65705 53.503C2.25082 53.9399 2.98008 54.1974 3.76834 54.1974H61.389C62.1693 54.1974 62.8917 53.9452 63.4821 53.5163Z" fill="#141414"/>
</g>
<path d="M99.3126 35.5405H89.9016V41.8066H100.947V45.6787H85V22.2853H100.914V26.1896H89.9016V31.7648H99.3126V35.5405Z" fill="#141414"/>
<path d="M109.613 28.2943L109.76 30.2384C111.012 28.7281 112.706 27.973 114.841 27.973C117.117 27.973 118.68 28.8567 119.53 30.624C120.772 28.8567 122.542 27.973 124.84 27.973C126.757 27.973 128.184 28.5246 129.121 29.6279C130.058 30.7204 130.526 32.37 130.526 34.5765V45.6787H125.788V34.5925C125.788 33.6071 125.592 32.8895 125.2 32.4396C124.807 31.979 124.116 31.7487 123.125 31.7487C121.709 31.7487 120.728 32.4128 120.184 33.741L120.2 45.6787H115.478V34.6086C115.478 33.6018 115.277 32.8734 114.874 32.4235C114.471 31.9737 113.784 31.7487 112.815 31.7487C111.475 31.7487 110.506 32.295 109.907 33.3875V45.6787H105.185V28.2943H109.613Z" fill="#141414"/>
<path d="M146.087 45.6787C145.869 45.2609 145.711 44.7414 145.613 44.1202C144.469 45.3734 142.983 46 141.153 46C139.421 46 137.983 45.5073 136.839 44.5219C135.706 43.5364 135.14 42.2939 135.14 40.7943C135.14 38.952 135.832 37.5381 137.215 36.5527C138.609 35.5673 140.619 35.0692 143.244 35.0585H145.417V34.0623C145.417 33.259 145.205 32.6163 144.78 32.1343C144.366 31.6523 143.707 31.4113 142.803 31.4113C142.008 31.4113 141.381 31.5988 140.924 31.9737C140.477 32.3485 140.254 32.8627 140.254 33.5161H135.532C135.532 32.5092 135.848 31.5773 136.48 30.7204C137.112 29.8635 138.005 29.1941 139.159 28.7121C140.314 28.2194 141.61 27.973 143.048 27.973C145.226 27.973 146.953 28.5139 148.227 29.5958C149.513 30.6669 150.155 32.1772 150.155 34.1266V41.662C150.166 43.3115 150.4 44.5593 150.858 45.4055V45.6787H146.087ZM142.182 42.4492C142.879 42.4492 143.522 42.2993 144.11 41.9994C144.698 41.6887 145.134 41.2764 145.417 40.7622V37.7738H143.652C141.289 37.7738 140.031 38.5771 139.878 40.1838L139.862 40.4569C139.862 41.0353 140.069 41.512 140.483 41.8869C140.897 42.2618 141.463 42.4492 142.182 42.4492Z" fill="#141414"/>
<path d="M160.439 45.6787H155.701V28.2943H160.439V45.6787ZM155.423 23.7956C155.423 23.0994 155.657 22.5263 156.125 22.0765C156.605 21.6266 157.253 21.4017 158.07 21.4017C158.876 21.4017 159.518 21.6266 159.998 22.0765C160.477 22.5263 160.716 23.0994 160.716 23.7956C160.716 24.5026 160.471 25.081 159.981 25.5308C159.502 25.9807 158.865 26.2057 158.07 26.2057C157.274 26.2057 156.632 25.9807 156.142 25.5308C155.662 25.081 155.423 24.5026 155.423 23.7956Z" fill="#141414"/>
<path d="M171 45.6787H166.262V21H171V45.6787Z" fill="#141414"/>
<defs>
<clipPath id="clip0">
<rect width="65" height="67" fill="white"/>
</clipPath>
</defs>
</svg>
