<svg width="142" height="54" viewBox="0 0 142 54" fill="none" xmlns="http://www.w3.org/2000/svg">
<g clip-path="url(#clip0)">
<path d="M53.6928 32.8885L56.7972 41.0395H50.7821L53.6941 32.8885H53.6928ZM52.528 30.1585L45.7368 48.0075H48.2588L50.0047 43.1585H57.5707L59.3166 48.0075H61.8386L55.0474 30.1585H52.5254H52.528ZM89.188 48.0231H91.528V30.1715H89.188V48.0205V48.0231ZM65.333 37.5321C66.1091 36.3673 67.673 35.3975 69.2135 35.3975C72.3179 35.3975 73.8701 37.5321 73.8701 40.6365V48.2025H71.5301V41.0239C71.5301 38.5019 70.1716 37.5308 68.4257 37.5308C66.4848 37.5308 65.1276 39.4717 65.1276 41.2176V48.0088H62.7876V35.6081H65.1276L65.3226 37.549L65.333 37.5321ZM75.811 44.3363C75.811 41.6063 78.333 40.0671 81.245 40.0671C82.9909 40.0671 84.157 40.4571 84.5431 40.8432V40.4532C84.5431 38.5123 82.9909 37.5412 81.4387 37.5412C80.0802 37.5412 78.9167 38.1236 78.5267 39.2871L76.3921 38.3173C76.7821 37.1525 78.333 35.4053 81.4361 35.4053C84.3481 35.4053 86.8701 37.1512 86.8701 40.6443V48.0179H84.7355V46.272H84.5405C83.9581 47.2418 82.5996 48.4066 80.4663 48.4066C77.9443 48.4066 75.8097 46.8544 75.8097 44.3324L75.811 44.3363ZM84.5405 42.7802C84.5405 42.7802 83.5707 42.0041 81.6285 42.0041C79.2885 42.0041 78.3304 43.3626 78.3304 44.3441C78.3304 45.7026 79.6889 46.285 80.8524 46.285C82.5983 46.285 84.5392 44.7328 84.5392 42.7919" fill="#141414"/>
<path fill-rule="evenodd" clip-rule="evenodd" d="M94.8275 53.4571L97.5575 47.0546L92.7085 35.8005H95.0485L98.7353 44.3376L102.422 35.8005H104.762L97.1961 53.4571H94.8561H94.8275ZM128.979 39.8721C128.396 38.3199 127.038 37.3501 125.68 37.3501C123.74 37.3501 121.994 39.096 121.994 41.6193C121.994 44.1426 123.74 45.8885 125.68 45.8885C127.039 45.8885 128.41 44.9187 128.979 43.5485L130.919 44.7133C129.95 46.8479 128.007 48.2064 125.68 48.2064C122.382 48.2064 119.665 45.2944 119.665 41.6089C119.665 37.7284 122.395 35.0114 125.68 35.0114C128.02 35.0114 129.95 36.3699 130.919 38.5045L128.979 39.863V39.8721Z" fill="#141414"/>
<path d="M137.321 48.4105C140.425 48.4105 141.977 46.6646 141.977 44.53C141.977 39.8734 135.186 41.618 135.186 38.9036C135.186 37.9338 135.962 37.3514 137.321 37.3514C138.679 37.3514 140.051 37.9338 140.619 38.9036L141.977 37.5451C141.201 36.5753 139.065 35.2051 137.128 35.2051C134.216 35.2051 132.665 36.951 132.665 39.0856C132.665 43.5485 139.65 41.9976 139.65 44.3246C139.65 45.4894 138.874 46.2655 137.31 46.2655C135.746 46.2655 134.97 45.2957 134.206 44.3246L132.482 45.6961C133.647 46.8609 135.394 48.4261 137.331 48.4261L137.321 48.4105ZM115.201 48.0231H117.541V35.6055H115.201V48.0231Z" fill="#141414"/>
<path fill-rule="evenodd" clip-rule="evenodd" d="M116.171 29.6021C117.141 29.6021 117.723 30.3782 117.723 31.1543C117.723 32.1241 116.947 32.7065 116.171 32.7065C115.395 32.7065 114.619 31.9304 114.619 31.1543C114.619 30.3782 115.395 29.6021 116.171 29.6021ZM112.873 46.0952L113.263 47.8411H110.923C108.788 47.8411 107.818 46.2889 107.818 43.9606V37.9221H105.478V35.5821H107.818V31.9187H110.158V35.6055H112.888V37.9455H110.158V44.348C110.158 46.0939 111.517 46.0939 112.888 46.0939L112.873 46.0952Z" fill="#141414"/>
<path d="M57.5346 10.4375V13.3495H64.3258C64.1308 14.9017 63.5497 16.0795 62.7736 16.8426C61.8038 17.8124 60.2516 18.9772 57.5346 18.9772C53.4604 18.9772 50.161 15.6791 50.161 11.4112C50.161 7.33703 53.4591 3.84523 57.5346 3.84523C59.8746 3.84523 61.4151 4.81503 62.5786 5.78613L64.5195 3.84523C62.7736 2.29303 60.639 0.933228 57.5346 0.933228C51.9082 0.933228 47.0566 5.58983 47.0566 11.2032C47.0566 16.8166 51.9056 21.4732 57.5346 21.4732C60.639 21.4732 62.9686 20.5034 64.7132 18.5612C66.6541 16.6203 67.2352 14.0983 67.2352 11.9637C67.2352 11.3813 67.2352 10.6052 67.0402 10.2178H57.5333L57.5346 10.4375ZM74.8012 8.09753C71.1144 8.09753 68.2037 10.8275 68.2037 14.695C68.2037 18.5625 71.1157 21.2925 74.8012 21.2925C75.6698 21.3003 76.5312 21.135 77.3352 20.8062C78.1391 20.4774 78.8695 19.9918 79.4837 19.3776C80.0979 18.7634 80.5836 18.033 80.9124 17.229C81.2412 16.425 81.4065 15.5636 81.3987 14.695C81.3987 10.8145 78.4867 8.09753 74.8012 8.09753ZM74.8012 18.7575C72.8603 18.7575 71.1144 17.0116 71.1144 14.6833C71.1144 12.355 72.8603 10.6221 74.8012 10.6221C76.7421 10.6221 78.4893 12.1821 78.4893 14.6911C78.4893 17.2001 76.7434 18.7653 74.8025 18.7653L74.8012 18.7575ZM106.612 9.45473C105.836 8.67863 104.671 7.90253 102.925 7.90253C99.6273 7.90253 96.7166 10.8145 96.7166 14.5C96.7166 18.1855 99.6286 21.0975 102.925 21.0975C104.477 21.0975 105.837 20.3214 106.418 19.5453H106.613V20.5151C106.613 23.0371 105.255 24.3956 103.12 24.3956C101.374 24.3956 100.208 23.0371 99.8223 22.0556L97.3003 23.0254C98.0764 24.7713 100.03 26.9059 103.122 26.9059C106.615 26.9059 109.524 24.965 109.524 19.921V7.89213H106.794V9.44433L106.612 9.45473ZM103.314 18.7679C101.373 18.7679 99.821 17.022 99.821 14.6937C99.821 12.3654 101.373 10.6195 103.314 10.6195C105.255 10.6195 106.807 12.3654 106.807 14.6937C106.807 17.022 105.255 18.7679 103.314 18.7679ZM89.148 8.10793C85.4612 8.10793 82.5505 10.8379 82.5505 14.7054C82.5505 18.5729 85.4625 21.3029 89.148 21.3029C90.0166 21.3107 90.878 21.1454 91.682 20.8166C92.4859 20.4878 93.2163 20.0022 93.8305 19.388C94.4447 18.7738 94.9304 18.0434 95.2592 17.2394C95.588 16.4354 95.7533 15.574 95.7455 14.7054C95.9405 10.8249 92.8335 8.10793 89.148 8.10793ZM89.148 18.7679C87.2071 18.7679 85.4612 17.022 85.4612 14.6937C85.4612 12.3654 87.2071 10.6195 89.148 10.6195C91.0889 10.6195 92.8348 12.1717 92.8348 14.6937C92.8348 17.2157 91.0889 18.7679 89.148 18.7679ZM111.682 1.12433H114.594V21.3029H111.682V1.12433ZM122.547 18.7809C120.995 18.7809 120.025 18.0048 119.249 16.84L128.175 13.1532L127.785 12.3771C127.203 10.8249 125.445 8.10793 122.159 8.10793C118.666 8.10793 115.95 10.8379 115.95 14.7054C115.942 15.574 116.107 16.4354 116.436 17.2394C116.765 18.0434 117.251 18.7738 117.865 19.388C118.479 20.0022 119.209 20.4878 120.013 20.8166C120.817 21.1454 121.679 21.3107 122.547 21.3029C125.652 21.3029 127.396 19.362 128.174 18.3909L125.834 16.8387C125.058 18.0035 124.088 18.7796 122.536 18.7796L122.547 18.7809ZM122.352 10.6299C123.517 10.6299 124.487 11.2123 124.874 12.1821L118.859 14.7041C118.859 11.7921 120.8 10.6299 122.352 10.6299Z" fill="#141414"/>
<path d="M28.8052 7.46586V41.5484C28.8052 45.362 31.4389 47.487 34.2274 47.487C36.8095 47.487 39.6497 45.6796 39.6497 41.5484V7.72406C39.6497 4.22802 37.0677 2.04364 34.2274 2.04364C31.3872 2.04364 28.8052 4.45265 28.8052 7.46586Z" fill="#141414"/>
<path d="M14.604 24.7653V41.5484C14.604 45.362 17.2377 47.487 20.0263 47.487C22.6083 47.487 25.4485 45.6796 25.4485 41.5484V25.0235C25.4485 21.5275 22.8665 19.3431 20.0263 19.3431C17.1861 19.3431 14.604 21.7521 14.604 24.7653Z" fill="#141414"/>
<path d="M5.82508 47.487C8.8197 47.487 11.2474 45.0594 11.2474 42.0648C11.2474 39.0702 8.8197 36.6425 5.82508 36.6425C2.83046 36.6425 0.402832 39.0702 0.402832 42.0648C0.402832 45.0594 2.83046 47.487 5.82508 47.487Z" fill="#141414"/>
</g>
<defs>
<clipPath id="clip0">
<rect width="142" height="53" fill="white" transform="translate(0 0.5)"/>
</clipPath>
</defs>
</svg>
