<svg width="142" height="45" viewBox="0 0 142 45" fill="none" xmlns="http://www.w3.org/2000/svg">
<g clip-path="url(#clip0)">
<path d="M68.9062 10.447H60.8091V12.9045H66.5927C66.3614 16.2981 63.4696 17.8194 60.8091 17.8194C59.9719 17.8256 59.1419 17.6634 58.3672 17.3421C57.5926 17.0209 56.8888 16.547 56.2968 15.9481C55.7048 15.3492 55.2364 14.6372 54.9188 13.8536C54.6013 13.0699 54.4409 12.2301 54.4471 11.3832V11.2662C54.4185 10.4162 54.5686 9.56984 54.8877 8.78305C55.2068 7.99626 55.6874 7.28703 56.2979 6.70234C57.5099 5.51796 59.1241 4.84798 60.8091 4.83C61.6056 4.79161 62.4008 4.9287 63.1398 5.23177C63.8787 5.53484 64.5438 5.99667 65.089 6.58532L66.8241 4.83C66.0136 4.03065 65.0544 3.40187 64.0021 2.98005C62.9497 2.55823 61.8252 2.35175 60.6934 2.37255C58.3502 2.33488 56.0873 3.2367 54.399 4.88108C52.7108 6.52546 51.7342 8.77883 51.6825 11.1491C51.6329 12.8384 52.0711 14.5057 52.9434 15.947C53.7535 17.3129 54.91 18.4347 56.2931 19.1961C57.6762 19.9574 59.2354 20.3305 60.8091 20.2768C61.8928 20.3345 62.9765 20.1631 63.991 19.7734C65.0056 19.3838 65.9287 18.7844 66.7015 18.0137C67.4742 17.2429 68.0797 16.3176 68.4792 15.2969C68.8788 14.2761 69.0636 13.1824 69.0219 12.0853C69.0371 11.5367 68.9983 10.9879 68.9062 10.447ZM75.6268 8.6917C74.8824 8.67618 74.1423 8.80917 73.4488 9.08308C72.7552 9.35698 72.1218 9.76644 71.5847 10.2881C71.0476 10.8097 70.6174 11.4332 70.3186 12.1231C70.0197 12.813 69.8582 13.5557 69.8432 14.3087V14.4257C70.0252 15.8228 70.6996 17.1065 71.7422 18.0409C72.7849 18.9752 74.1259 19.4975 75.5188 19.5117C76.9116 19.526 78.2628 19.0312 79.3239 18.1183C80.385 17.2055 81.0848 15.9358 81.2948 14.5428C81.3166 13.7783 81.1857 13.0172 80.9101 12.305C80.6344 11.5929 80.2196 10.9443 79.6905 10.3981C79.1614 9.85183 78.5287 9.41918 77.8305 9.12599C77.1323 8.8328 76.3828 8.68509 75.6268 8.6917ZM75.6268 11.0321C76.0703 11.0377 76.5081 11.1341 76.9138 11.3156C77.3195 11.497 77.6847 11.7596 77.9874 12.0877C78.29 12.4157 78.5238 12.8024 78.6748 13.2243C78.8257 13.6462 78.8907 14.0948 78.8656 14.5428C78.8921 14.9903 78.8277 15.4386 78.6766 15.8601C78.5255 16.2815 78.2908 16.6673 77.9869 16.9936C77.683 17.32 77.3164 17.58 76.9095 17.7577C76.5027 17.9355 76.0642 18.0271 75.621 18.0271C75.1778 18.0271 74.7393 17.9355 74.3325 17.7577C73.9256 17.58 73.559 17.32 73.2551 16.9936C72.9512 16.6673 72.7165 16.2815 72.5654 15.8601C72.4143 15.4386 72.35 14.9903 72.3764 14.5428C72.3445 14.0922 72.405 13.6399 72.5542 13.2141C72.7033 12.7884 72.9379 12.3984 73.2431 12.0687C73.5483 11.7391 73.9177 11.4768 74.3279 11.2984C74.7381 11.12 75.1803 11.0294 75.6268 11.0321ZM87.9922 8.6917C87.2547 8.68087 86.5223 8.81791 85.8373 9.09491C85.1524 9.37191 84.5284 9.78338 84.0015 10.3056C83.4745 10.8278 83.055 11.4504 82.7672 12.1375C82.4793 12.8245 82.3288 13.5625 82.3243 14.3087V14.4257C82.5063 15.8228 83.1807 17.1065 84.2233 18.0409C85.266 18.9752 86.607 19.4975 87.9999 19.5117C89.3927 19.526 90.7439 19.0312 91.805 18.1183C92.8661 17.2055 93.5659 15.9358 93.7759 14.5428C93.7868 13.7713 93.6446 13.0055 93.3578 12.2907C93.071 11.5758 92.6454 10.9264 92.1062 10.3809C91.5669 9.83532 90.925 9.40475 90.2184 9.11461C89.5117 8.82448 88.7548 8.68067 87.9922 8.6917ZM87.9922 11.0321C88.4362 11.0378 88.8745 11.1342 89.2808 11.3155C89.6871 11.4967 90.053 11.7592 90.3566 12.087C90.6601 12.4149 90.8951 12.8014 91.0474 13.2234C91.1996 13.6454 91.266 14.0942 91.2426 14.5428C91.2691 14.9903 91.2047 15.4386 91.0536 15.8601C90.9025 16.2815 90.6678 16.6673 90.3639 16.9936C90.06 17.32 89.6934 17.58 89.2865 17.7577C88.8797 17.9355 88.4412 18.0271 87.998 18.0271C87.5548 18.0271 87.1163 17.9355 86.7095 17.7577C86.3026 17.58 85.936 17.32 85.6321 16.9936C85.3282 16.6673 85.0935 16.2815 84.9424 15.8601C84.7913 15.4386 84.727 14.9903 84.7534 14.5428C84.7198 14.0928 84.7788 13.6407 84.9266 13.215C85.0744 12.7892 85.3078 12.3991 85.6122 12.0693C85.9165 11.7394 86.2851 11.4769 86.6948 11.2984C87.1044 11.1199 87.5462 11.0292 87.9922 11.0321ZM100.138 8.6917C98.6346 8.6917 97.193 9.29582 96.13 10.3712C95.0671 11.4465 94.4699 12.905 94.4699 14.4257C94.4699 15.9465 95.0671 17.405 96.13 18.4803C97.193 19.5557 98.6346 20.1598 100.138 20.1598C100.731 20.1911 101.323 20.0802 101.866 19.8362C102.409 19.5921 102.887 19.2219 103.261 18.7555V19.9257C103.304 20.3413 103.257 20.7614 103.123 21.1565C102.988 21.5517 102.77 21.9124 102.484 22.2134C102.197 22.5143 101.849 22.7483 101.464 22.899C101.079 23.0496 100.666 23.1132 100.254 23.0853C99.6155 23.0794 98.9949 22.8738 98.4771 22.4966C97.9592 22.1194 97.5696 21.5892 97.3617 20.9789L95.1639 21.9151C95.5877 22.9249 96.2967 23.7857 97.2022 24.3894C98.1076 24.9932 99.1691 25.313 100.254 25.3087C103.261 25.3087 105.575 23.3194 105.575 19.3406V9.04277H103.145V9.97894C102.769 9.55333 102.304 9.21722 101.784 8.99468C101.264 8.77214 100.702 8.66868 100.138 8.6917ZM100.381 10.9151C100.809 10.9385 101.228 11.0489 101.612 11.2395C101.997 11.4302 102.34 11.6973 102.621 12.0249C102.902 12.3525 103.114 12.7339 103.246 13.1464C103.378 13.5588 103.426 13.9939 103.388 14.4257C103.426 14.8635 103.373 15.3044 103.233 15.7203C103.093 16.1362 102.869 16.5182 102.575 16.842C102.281 17.1657 101.924 17.4242 101.527 17.6011C101.129 17.7779 100.7 17.8692 100.265 17.8692C99.8308 17.8692 99.4012 17.7779 99.0036 17.6011C98.606 17.4242 98.249 17.1657 97.9554 16.842C97.6617 16.5182 97.4378 16.1362 97.2977 15.7203C97.1577 15.3044 97.1047 14.8635 97.1419 14.4257C97.14 13.5338 97.4737 12.6746 98.0752 12.0226C98.6768 11.3705 99.5011 10.9746 100.381 10.9151ZM116.216 8.6917C115.491 8.70175 114.776 8.85966 114.113 9.156C113.449 9.45233 112.852 9.881 112.356 10.4163C111.861 10.9517 111.477 11.5827 111.228 12.2716C110.979 12.9605 110.87 13.6932 110.907 14.4257C110.869 15.8957 111.406 17.3214 112.399 18.3946C113.393 19.4677 114.764 20.1018 116.216 20.1598H116.448C117.39 20.1749 118.32 19.9463 119.15 19.4957C119.98 19.0452 120.682 18.3876 121.19 17.5853L119.224 16.2981C118.948 16.805 118.54 17.2259 118.045 17.5151C117.549 17.8043 116.985 17.9509 116.413 17.9388C115.841 17.9268 115.283 17.7566 114.8 17.4467C114.317 17.1369 113.927 16.6992 113.672 16.1811L121.306 13.0215L120.959 12.0853C120.617 11.0902 119.976 10.2282 119.125 9.61973C118.275 9.01128 117.258 8.68682 116.216 8.6917ZM116.332 10.9151C116.768 10.8952 117.2 11.007 117.573 11.2362C117.946 11.4654 118.243 11.8018 118.426 12.2023L113.359 14.4257C113.299 13.5569 113.582 12.6994 114.145 12.0412C114.709 11.383 115.508 10.978 116.367 10.9151H116.332ZM107.321 19.9257H109.889V2.95766H107.321V19.9257Z" fill="#141414"/>
<path d="M56.4136 30.1651V40.5215H54.9215V30.2236H51.6826V28.7257H59.6525V30.1651H56.4136Z" fill="#141414"/>
<path d="M62.741 32.1662C63.6945 32.1153 64.6307 32.438 65.3552 33.0672C65.6775 33.3822 65.929 33.7636 66.0926 34.1856C66.2563 34.6076 66.3283 35.0603 66.3037 35.513V40.5215H64.8809V39.3513H64.7768C64.5203 39.7749 64.1595 40.1237 63.7296 40.3638C63.2997 40.6038 62.8155 40.7267 62.3246 40.7204C61.5284 40.7427 60.7527 40.463 60.1499 39.9364C59.8663 39.6963 59.6392 39.3952 59.4851 39.0552C59.3311 38.7151 59.2539 38.3445 59.2592 37.9704C59.2439 37.5884 59.3212 37.2085 59.4846 36.8637C59.6479 36.5189 59.8922 36.2199 60.1962 35.9928C60.9186 35.469 61.7955 35.209 62.6832 35.2555C63.4417 35.2246 64.1952 35.394 64.8694 35.747V35.396C64.871 35.1416 64.8169 34.89 64.7109 34.6593C64.6049 34.4286 64.4496 34.2246 64.2563 34.0619C63.8635 33.7013 63.3524 33.5011 62.822 33.5002C62.4301 33.4937 62.043 33.588 61.697 33.7742C61.351 33.9605 61.0575 34.2326 60.844 34.5651L59.5369 33.7343C59.8938 33.2175 60.3758 32.802 60.9368 32.5275C61.4977 32.2529 62.1189 32.1285 62.741 32.1662ZM60.8208 38.0172C60.8161 38.2088 60.8579 38.3986 60.9426 38.57C61.0273 38.7414 61.1523 38.8891 61.3066 39.0002C61.643 39.244 62.05 39.3675 62.4634 39.3513C62.7761 39.3532 63.086 39.2909 63.3743 39.1682C63.6626 39.0455 63.9233 38.8649 64.1406 38.6374C64.371 38.4349 64.5562 38.1852 64.6838 37.9047C64.8114 37.6243 64.8786 37.3196 64.8809 37.0109C64.3158 36.6042 63.6298 36.4059 62.9376 36.4492C62.3988 36.432 61.8684 36.5877 61.4223 36.8938C61.2373 37.0126 61.0851 37.1768 60.9799 37.3712C60.8747 37.5657 60.82 37.7839 60.8208 38.0055V38.0172Z" fill="#141414"/>
<path d="M71.4277 44.2662C71.0052 44.2686 70.5844 44.2094 70.1785 44.0906C69.8009 43.9887 69.4417 43.8268 69.1143 43.6108C68.8077 43.4098 68.5344 43.161 68.3046 42.8736C68.0737 42.5935 67.8971 42.272 67.784 41.9257L69.1952 41.3289C69.3405 41.803 69.6376 42.2147 70.0397 42.4991C70.4458 42.7863 70.9324 42.934 71.4277 42.9204C71.7776 42.9411 72.1278 42.886 72.4549 42.7589C72.782 42.6318 73.0786 42.4355 73.3248 42.1832C73.8188 41.6174 74.0724 40.8773 74.0304 40.1236V39.3513H73.961C73.6706 39.7847 73.2713 40.132 72.8042 40.3577C72.3202 40.604 71.7845 40.7284 71.2427 40.7204C70.7356 40.7256 70.2336 40.6182 69.7719 40.4059C69.3103 40.1936 68.9002 39.8816 68.5706 39.4917C67.8568 38.6447 67.4648 37.568 67.4648 36.455C67.4648 35.342 67.8568 34.2653 68.5706 33.4183C68.898 33.0241 69.3071 32.7077 69.7688 32.4913C70.2306 32.2749 70.7338 32.1639 71.2427 32.1662C71.7854 32.1623 72.321 32.2907 72.8042 32.5406C73.2713 32.7663 73.6706 33.1136 73.961 33.547H74.0304V32.4353H75.4532V40.1236C75.4847 40.677 75.4046 41.2311 75.2177 41.7522C75.0307 42.2733 74.7409 42.7504 74.3658 43.1545C73.9773 43.5332 73.5161 43.8273 73.0107 44.0185C72.5054 44.2097 71.9666 44.294 71.4277 44.2662ZM71.4277 39.3513C71.7688 39.3596 72.1074 39.2915 72.4193 39.1519C72.7313 39.0123 73.0089 38.8047 73.2322 38.5438C73.7587 37.978 74.0452 37.2261 74.0304 36.4491C74.0575 35.6864 73.797 34.9418 73.3016 34.3662C73.0759 34.1091 72.7989 33.9034 72.4889 33.7625C72.1788 33.6216 71.8428 33.5487 71.5029 33.5487C71.163 33.5487 70.827 33.6216 70.517 33.7625C70.207 33.9034 69.9299 34.1091 69.7042 34.3662C69.2088 34.9418 68.9483 35.6864 68.9755 36.4491C68.9436 37.2126 69.2047 37.959 69.7042 38.5321C69.9227 38.7905 70.1942 38.9977 70.4998 39.1391C70.8055 39.2806 71.1379 39.353 71.474 39.3513H71.4277Z" fill="#141414"/>
<path d="M82.5557 40.5215H81.0635V28.8194H82.5557L86.5926 35.8406H86.662L90.6875 28.6906H92.1796V40.5215H90.6875V33.5002L90.7569 31.5343H90.6875L87.0669 37.9704H86.1878L82.5557 31.5343H82.4978L82.5557 33.5002V40.5215Z" fill="#141414"/>
<path d="M97.0263 32.1662C97.9798 32.1153 98.9161 32.438 99.6405 33.0672C99.9712 33.378 100.231 33.7575 100.403 34.1797C100.575 34.602 100.654 35.0568 100.635 35.513V40.5215H99.1663V39.3513H99.0969C98.8385 39.7758 98.4756 40.1251 98.0437 40.3651C97.6118 40.6051 97.1258 40.7276 96.633 40.7204C95.8327 40.7468 95.052 40.4668 94.4468 39.9364C94.1632 39.6963 93.9361 39.3952 93.782 39.0552C93.628 38.7151 93.5508 38.3445 93.5561 37.9704C93.5408 37.5884 93.6181 37.2085 93.7815 36.8637C93.9448 36.519 94.1891 36.2199 94.4931 35.9928C95.2155 35.469 96.0924 35.209 96.9801 35.2555C97.7384 35.2272 98.4912 35.3965 99.1663 35.747V35.396C99.168 35.1416 99.1138 34.89 99.0078 34.6593C98.9018 34.4286 98.7465 34.2246 98.5532 34.0619C98.1723 33.7119 97.6795 33.5125 97.1651 33.5002C96.7733 33.4937 96.3862 33.588 96.0402 33.7742C95.6942 33.9605 95.4007 34.2326 95.1871 34.5651L93.88 33.7343C94.2317 33.2262 94.7044 32.8161 95.2544 32.542C95.8044 32.2679 96.4138 32.1387 97.0263 32.1662ZM95.0946 38.0172C95.0911 38.2098 95.1347 38.4003 95.2215 38.5718C95.3082 38.7433 95.4355 38.8904 95.592 39.0002C95.9224 39.2607 96.3299 39.4008 96.7487 39.3981C97.0615 39.4 97.3713 39.3377 97.6596 39.215C97.9479 39.0923 98.2086 38.9118 98.426 38.6843C98.6623 38.4766 98.8509 38.2193 98.9788 37.9303C99.1066 37.6412 99.1706 37.3275 99.1663 37.0109C98.6011 36.6042 97.9152 36.4059 97.223 36.4492C96.6842 36.432 96.1538 36.5877 95.7077 36.8938C95.5213 37.012 95.3673 37.1758 95.2602 37.3701C95.153 37.5645 95.0961 37.783 95.0946 38.0055V38.0172Z" fill="#141414"/>
<path d="M102.278 32.4353H103.701V33.5002H103.77C104.016 33.0773 104.377 32.7358 104.811 32.5172C105.26 32.2623 105.765 32.1255 106.28 32.1194C106.692 32.0926 107.104 32.1538 107.491 32.299C107.878 32.4441 108.23 32.67 108.524 32.9619C109.083 33.6335 109.364 34.4966 109.311 35.3726V40.5215H107.819V35.513C107.857 35.2418 107.832 34.9654 107.747 34.7054C107.662 34.4453 107.519 34.2087 107.328 34.0139C107.138 33.8191 106.906 33.6714 106.65 33.5823C106.394 33.4932 106.121 33.4651 105.852 33.5002C105.567 33.4975 105.285 33.5615 105.028 33.6874C104.771 33.8133 104.546 33.9975 104.372 34.2257C103.971 34.7149 103.757 35.3339 103.77 35.9694V40.5215H102.278V32.4353Z" fill="#141414"/>
<path d="M113.996 32.1662C114.946 32.1147 115.878 32.4377 116.598 33.0672C116.923 33.3812 117.176 33.7621 117.342 34.1842C117.508 34.6062 117.581 35.0595 117.558 35.513V40.5215H116.124V39.3513C115.866 39.7758 115.503 40.1251 115.071 40.3651C114.639 40.6051 114.153 40.7276 113.66 40.7204C112.856 40.7486 112.071 40.4686 111.462 39.9364C111.18 39.6957 110.955 39.3943 110.803 39.0541C110.651 38.7139 110.576 38.3437 110.583 37.9704C110.567 37.5895 110.642 37.2101 110.803 36.8655C110.965 36.5208 111.207 36.2212 111.509 35.9928C112.232 35.4707 113.108 35.2109 113.996 35.2555C114.754 35.2246 115.508 35.394 116.182 35.747V35.396C116.186 35.1412 116.133 34.8888 116.027 34.6577C115.921 34.4266 115.764 34.2229 115.569 34.0619C115.163 33.6854 114.627 33.4839 114.077 33.5002C113.685 33.4937 113.298 33.588 112.952 33.7742C112.606 33.9605 112.312 34.2326 112.099 34.5651L110.78 33.7343C111.139 33.2174 111.624 32.802 112.186 32.5276C112.749 32.2532 113.372 32.1288 113.996 32.1662ZM112.064 38.0172C112.059 38.2088 112.101 38.3986 112.186 38.57C112.27 38.7414 112.395 38.8891 112.55 39.0002C112.88 39.2598 113.288 39.3999 113.706 39.3981C114.019 39.4 114.329 39.3377 114.617 39.215C114.906 39.0923 115.166 38.9118 115.384 38.6843C115.613 38.4766 115.797 38.2223 115.922 37.938C116.048 37.6537 116.113 37.3457 116.112 37.0343C115.547 36.6276 114.861 36.4293 114.169 36.4726C113.63 36.4554 113.1 36.6111 112.654 36.9172C112.474 37.0352 112.326 37.1963 112.223 37.3863C112.12 37.5762 112.066 37.7889 112.064 38.0055V38.0172Z" fill="#141414"/>
<path d="M122.671 44.2662C122.249 44.2686 121.828 44.2094 121.422 44.0906C121.048 43.9887 120.692 43.8267 120.369 43.6108C120.059 43.4095 119.782 43.1608 119.548 42.8736C119.317 42.5935 119.141 42.272 119.027 41.9257L120.439 41.3289C120.584 41.803 120.881 42.2147 121.283 42.4991C121.689 42.7863 122.176 42.934 122.671 42.9204C123.021 42.9411 123.371 42.886 123.698 42.7589C124.025 42.6318 124.322 42.4355 124.568 42.1832C125.045 41.6227 125.29 40.8973 125.251 40.1587V39.3513H125.181C124.889 39.7832 124.49 40.1302 124.024 40.3577C123.539 40.6002 123.004 40.7244 122.463 40.7204C121.955 40.7226 121.452 40.6139 120.989 40.4019C120.526 40.1899 120.113 39.8794 119.779 39.4917C119.066 38.6447 118.673 37.568 118.673 36.455C118.673 35.3419 119.066 34.2653 119.779 33.4183C120.108 33.0226 120.519 32.7052 120.983 32.4888C121.447 32.2723 121.952 32.1622 122.463 32.1662C123.005 32.1658 123.54 32.2941 124.024 32.5406C124.49 32.7681 124.889 33.1151 125.181 33.547H125.251V32.4353H126.673V40.1236C126.705 40.677 126.625 41.2311 126.438 41.7522C126.251 42.2732 125.961 42.7504 125.586 43.1545C125.2 43.5303 124.743 43.8226 124.242 44.0138C123.741 44.2049 123.206 44.2908 122.671 44.2662ZM122.671 39.3513C123.012 39.3596 123.351 39.2915 123.663 39.1519C123.975 39.0123 124.252 38.8047 124.476 38.5438C124.977 37.9671 125.238 37.2164 125.204 36.4491C125.231 35.6864 124.971 34.9418 124.476 34.3662C124.253 34.1032 123.976 33.8933 123.664 33.7517C123.352 33.61 123.013 33.5401 122.671 33.547C122.331 33.5419 121.994 33.6126 121.684 33.7542C121.374 33.8958 121.099 34.1047 120.878 34.3662C120.383 34.9418 120.122 35.6864 120.149 36.4491C120.118 37.2126 120.379 37.959 120.878 38.5321C121.104 38.7998 121.387 39.0124 121.705 39.1543C122.024 39.2961 122.37 39.3634 122.717 39.3513H122.671Z" fill="#141414"/>
<path d="M131.971 40.7204C131.437 40.7425 130.903 40.6497 130.407 40.448C129.91 40.2462 129.462 39.9402 129.091 39.5502C128.32 38.7227 127.905 37.6206 127.934 36.4842C127.898 35.361 128.292 34.267 129.033 33.43C129.385 33.0223 129.821 32.6978 130.311 32.4794C130.801 32.261 131.332 32.1541 131.867 32.1662C132.391 32.1427 132.915 32.2352 133.4 32.4373C133.886 32.6394 134.322 32.9462 134.678 33.3364C135.415 34.2461 135.787 35.4034 135.719 36.5779V36.7417H129.484C129.477 37.0946 129.543 37.4452 129.676 37.7714C129.809 38.0977 130.008 38.3925 130.259 38.6374C130.544 38.9188 130.891 39.1275 131.272 39.2463C131.652 39.3652 132.055 39.3908 132.447 39.3211C132.839 39.2514 133.209 39.0883 133.527 38.8453C133.844 38.6023 134.1 38.2864 134.273 37.9236L135.603 38.5789C135.276 39.224 134.785 39.7692 134.18 40.1587C133.509 40.5483 132.745 40.7427 131.971 40.7204ZM129.554 35.4779H134.18C134.146 34.9459 133.905 34.4493 133.51 34.097C133.057 33.6941 132.47 33.4807 131.867 33.5002C131.337 33.4897 130.823 33.6772 130.421 34.0268C129.978 34.3975 129.672 34.9089 129.554 35.4779Z" fill="#141414"/>
<path d="M138.588 40.5215H137.095V32.4353H138.518V33.746H138.588C138.762 33.2858 139.089 32.9012 139.513 32.6577C139.923 32.3741 140.405 32.2157 140.901 32.2013C141.296 32.1849 141.69 32.2527 142.058 32.4002L141.607 33.863C141.324 33.767 141.025 33.7273 140.728 33.746C140.449 33.7459 140.175 33.8078 139.923 33.9271C139.671 34.0464 139.448 34.2203 139.27 34.4364C138.868 34.871 138.645 35.4443 138.645 36.0396L138.588 40.5215Z" fill="#141414"/>
<path d="M25.529 43.0609L17.9756 35.4194L34.1698 18.8374L41.862 26.6194L25.529 43.0609Z" fill="#141414"/>
<path d="M25.5867 10.096L17.8945 2.34914L1.59614 18.8374C1.09111 19.3472 0.690424 19.9528 0.417038 20.6195C0.143651 21.2861 0.00292969 22.0008 0.00292969 22.7226C0.00292969 23.4443 0.143651 24.159 0.417038 24.8256C0.690424 25.4923 1.09111 26.0979 1.59614 26.6077L17.8945 43.1077L25.4479 35.4428L13.1172 22.7343L25.5867 10.096Z" fill="#141414"/>
<path d="M41.885 18.8374L25.5867 2.34914C24.5522 1.41617 23.2046 0.91808 21.8193 0.956659C20.4339 0.995238 19.1155 1.56758 18.1333 2.55671C17.1511 3.54584 16.5794 4.87708 16.535 6.27838C16.4906 7.67967 16.9769 9.04522 17.8944 10.096L34.2043 26.596C35.2244 27.6279 36.6079 28.2076 38.0504 28.2076C39.493 28.2076 40.8765 27.6279 41.8966 26.596C42.9166 25.564 43.4897 24.1644 43.4897 22.705C43.4897 21.2456 42.9166 19.846 41.8966 18.814L41.885 18.8374Z" fill="#141414"/>
<path d="M21.677 44.7343C24.654 44.7343 27.0674 42.2928 27.0674 39.2811C27.0674 36.2693 24.654 33.8279 21.677 33.8279C18.7 33.8279 16.2866 36.2693 16.2866 39.2811C16.2866 42.2928 18.7 44.7343 21.677 44.7343Z" fill="#141414"/>
</g>
<defs>
<clipPath id="clip0">
<rect width="142" height="45" fill="white"/>
</clipPath>
</defs>
</svg>
