<svg width="159" height="48" viewBox="0 0 159 48" fill="none" xmlns="http://www.w3.org/2000/svg">
<g clip-path="url(#clip0)">
<path d="M19.9187 17.7333H16.9484C16.4242 17.7333 15.9001 18.2556 15.9001 18.7778V37.9259C15.9001 38.4481 16.4242 38.9704 16.9484 38.9704H20.0935C20.6176 38.9704 21.1418 38.4481 21.1418 37.9259V18.7778C20.9671 18.0815 20.6176 17.7333 19.9187 17.7333Z" fill="#141414"/>
<path d="M58.1835 17.037C52.0681 17.2111 47.1758 22.0852 47.1758 28.1778C47.1758 28.3519 47.1758 28.3519 47.1758 28.5259C47.3505 34.6185 52.4176 39.4926 58.7077 39.4926C64.8231 39.3185 69.7154 34.2704 69.7154 28.0037C69.5406 21.9111 64.2989 17.037 58.1835 17.037ZM58.1835 34.7926C54.689 34.6185 51.8934 31.6593 52.0681 28.1778C52.0681 28.0037 52.0681 27.6556 52.0681 27.4815C52.2428 24.1741 55.2132 21.563 58.533 21.737C61.8527 21.9111 64.4736 24.8704 64.2989 28.1778C64.4736 31.6593 61.678 34.7926 58.1835 34.7926Z" fill="#141414"/>
<path d="M8.56154 16.6889H5.59121H1.04835C0.524176 16.6889 0 17.037 0 17.7333V20.6926C0 21.2148 0.524176 21.737 1.04835 21.737H4.54286V39.1444C4.54286 39.1444 4.54286 39.1444 4.54286 39.3185C4.54286 41.0593 3.14505 42.4519 1.3978 42.4519H1.04835C0.524176 42.4519 0 42.9741 0 43.4963V46.4556C0 46.9778 0.524176 47.5 1.04835 47.5H1.22308C5.76593 47.5 9.60989 43.8444 9.60989 39.3185C9.60989 39.3185 9.60989 39.3185 9.60989 39.1444V17.7333C9.60989 17.037 9.08571 16.6889 8.56154 16.6889Z" fill="#141414"/>
<path d="M44.7296 17.7333H42.2835C41.7593 17.5593 41.0604 17.9074 40.8857 18.2556L34.945 30.7889L29.3538 18.2556C29.1791 17.9074 28.8296 17.5593 28.3054 17.7333H25.1604C24.9857 17.7333 24.8109 17.7333 24.6362 17.9074C24.2868 18.0815 24.112 18.6037 24.4615 18.9519L34.0714 38.9704C34.2461 39.3185 34.5955 39.4926 34.945 39.4926H35.2944C35.6439 39.4926 35.9933 39.3185 36.1681 38.9704L45.778 18.9519C45.9527 18.7778 45.9527 18.6037 45.9527 18.4296C45.6032 17.9074 45.2538 17.5593 44.7296 17.7333Z" fill="#141414"/>
<path d="M131.568 17.037C128.947 17.037 126.501 17.3852 124.055 18.2556C123.531 18.4296 123.356 18.9519 123.356 19.4741L123.706 21.3889V21.563C123.88 22.0852 124.404 22.4333 124.929 22.2593C126.851 21.737 128.947 21.3889 131.044 21.3889C133.84 21.3889 134.538 22.7815 134.364 26.0889C132.966 25.7407 131.568 25.3926 130.17 25.3926C124.579 25.3926 121.434 28.3519 121.434 32.1815C121.434 32.5296 121.434 32.7037 121.434 33.0519C121.609 36.7074 124.754 39.4926 128.423 39.3185C130.869 39.3185 133.315 38.2741 135.063 36.5333L135.587 37.9259C135.587 38.4482 136.111 38.6222 136.46 38.6222H138.033C138.557 38.6222 139.081 38.1 139.081 37.5778V26.6111C139.081 21.2148 138.557 17.037 131.568 17.037ZM134.364 33.0519C133.141 34.6185 131.393 35.663 129.471 35.663C129.297 35.663 129.297 35.663 129.122 35.663C127.375 35.4889 125.977 34.0963 126.152 32.3556C126.152 30.0926 127.899 28.8741 130.52 28.8741C131.918 28.8741 133.141 29.2222 134.364 29.7444V33.0519Z" fill="#141414"/>
<path d="M158.825 36.5333L157.777 34.2704C157.777 34.0963 157.777 34.0963 157.602 34.0963C157.427 33.7481 156.903 33.5741 156.554 33.9222C155.506 34.4445 154.457 34.7926 153.234 34.7926C152.186 34.7926 151.487 34.4444 151.487 32.7037V22.2593H157.078C157.602 22.2593 158.126 21.737 158.126 21.2148V18.7778C158.126 18.2556 157.602 17.7333 157.078 17.9074H151.487V11.6407C151.487 11.1185 151.137 10.5963 150.438 10.5963H147.293C146.769 10.5963 146.245 11.1185 146.245 11.6407V17.5593H143.974C143.449 17.5593 142.925 18.0815 142.925 18.6037V21.0407C142.925 21.563 143.449 22.0852 143.974 22.0852H146.245V33.0519C146.245 36.8815 147.468 39.3185 151.836 39.3185C154.108 39.1444 156.204 38.6222 158.126 37.7519H158.301C159 37.4037 159.175 36.8815 158.825 36.5333Z" fill="#141414"/>
<path d="M108.155 17.037C105.884 17.037 103.612 17.9074 101.69 19.3V6.76667C101.69 6.24445 101.166 5.72222 100.642 5.72222H97.4967C96.9725 5.72222 96.4483 6.24445 96.4483 6.76667V37.7519C96.4483 38.2741 96.9725 38.7963 97.4967 38.7963H100.642H100.816C101.341 38.7963 101.69 38.2741 101.69 37.7519V25.0444C102.913 22.9556 105.185 21.737 107.456 21.737C110.252 21.737 111.999 23.6519 111.999 27.1333V37.9259C111.999 38.4481 112.523 38.9704 113.047 38.9704H116.018C116.542 38.9704 117.066 38.4481 117.066 37.9259V27.3074C117.066 21.3889 114.27 17.037 108.155 17.037Z" fill="#141414"/>
<path d="M91.3813 33.4L89.9835 32.1815C89.6341 31.8333 88.9352 31.8333 88.5857 32.3556C87.3626 33.9222 85.4407 34.7926 83.5187 34.7926C80.1989 34.6185 77.4033 31.8333 77.2286 28.5259C77.0538 24.8704 79.8495 21.9111 83.5187 21.737C85.0912 21.737 86.6637 22.6074 87.8868 23.8259C88.2363 24.1741 88.7604 24.6963 89.2846 24L91.0319 22.4333C91.556 22.0852 91.556 21.3889 91.2066 21.0407C89.2846 18.6037 86.489 17.2111 83.344 17.2111C77.0538 17.2111 72.1615 22.2593 71.9868 28.3519C71.9868 34.4444 77.0538 39.4926 83.344 39.3185C86.6637 39.3185 89.9835 37.7519 91.7308 34.7926C91.7308 34.7926 91.7308 34.7926 91.7308 34.6185C92.0802 34.2704 91.9055 33.7482 91.3813 33.4Z" fill="#141414"/>
<path d="M0.349445 0.5C-0.174731 11.9889 9.08571 13.5556 9.08571 13.5556C8.56153 1.02222 0.349445 0.5 0.349445 0.5Z" fill="#141414"/>
</g>
<defs>
<clipPath id="clip0">
<rect width="159" height="47" fill="white" transform="translate(0 0.5)"/>
</clipPath>
</defs>
</svg>
