<svg width="201" height="59" viewBox="0 0 201 59" fill="none" xmlns="http://www.w3.org/2000/svg">
<g clip-path="url(#clip0)">
<path fill-rule="evenodd" clip-rule="evenodd" d="M56.3894 13.0521C56.4101 13.129 56.4208 13.2083 56.421 13.2879V25.6718C56.421 25.8308 56.379 25.9869 56.2994 26.1245C56.2197 26.262 56.1051 26.3761 55.9672 26.4551L45.5732 32.4394V44.3007C45.5732 44.6235 45.4017 44.9215 45.1217 45.084L23.4251 57.574C23.3754 57.6022 23.3213 57.6203 23.2671 57.6395C23.2468 57.6462 23.2276 57.6587 23.2061 57.6643C23.0545 57.7042 22.8951 57.7042 22.7434 57.6643C22.7186 57.6575 22.696 57.644 22.6723 57.635C22.6226 57.6169 22.5707 57.6011 22.5233 57.574L0.831171 45.084C0.693367 45.0049 0.578867 44.8908 0.499209 44.7532C0.419551 44.6157 0.377551 44.4596 0.377441 44.3007L0.377441 7.14905C0.377441 7.06778 0.388728 6.98878 0.409044 6.91203C0.415817 6.88607 0.431618 6.86236 0.440648 6.8364C0.457578 6.789 0.473379 6.74047 0.49821 6.69645C0.51514 6.6671 0.539971 6.6434 0.560288 6.61631C0.586247 6.58019 0.60995 6.54295 0.640424 6.51134C0.666384 6.48538 0.700244 6.4662 0.72959 6.44362C0.762322 6.41654 0.791667 6.38719 0.828914 6.36574H0.830042L11.6767 0.120752C11.814 0.0417226 11.9697 0.000128746 12.1281 0.000128746C12.2866 0.000128746 12.4423 0.0417226 12.5796 0.120752L23.4262 6.36574H23.4285C23.4646 6.38832 23.4951 6.41654 23.5278 6.4425C23.5572 6.46507 23.5899 6.48538 23.6159 6.51022C23.6475 6.54295 23.67 6.58019 23.6971 6.61631C23.7163 6.6434 23.7423 6.6671 23.7581 6.69645C23.784 6.7416 23.7987 6.789 23.8168 6.8364C23.8258 6.86236 23.8416 6.88607 23.8484 6.91316C23.8691 6.99007 23.8798 7.06938 23.88 7.14905V30.3536L32.9184 25.1493V13.2868C32.9184 13.2078 32.9297 13.1277 32.95 13.0521C32.9579 13.025 32.9726 13.0013 32.9816 12.9753C32.9997 12.9279 33.0155 12.8794 33.0403 12.8353C33.0573 12.806 33.0821 12.7823 33.1013 12.7552C33.1284 12.7191 33.151 12.6818 33.1826 12.6502C33.2085 12.6243 33.2412 12.6051 33.2706 12.5825C33.3045 12.5554 33.3338 12.5261 33.3699 12.5046H33.371L44.2188 6.25965C44.3561 6.18051 44.5118 6.13885 44.6703 6.13885C44.8287 6.13885 44.9844 6.18051 45.1217 6.25965L55.9684 12.5046C56.0067 12.5272 56.0361 12.5554 56.0699 12.5814C56.0982 12.604 56.1309 12.6243 56.1569 12.6491C56.1885 12.6818 56.211 12.7191 56.2381 12.7552C56.2584 12.7823 56.2833 12.806 56.2991 12.8353C56.325 12.8794 56.3397 12.9279 56.3578 12.9753C56.3679 13.0013 56.3826 13.025 56.3894 13.0521ZM54.6128 25.1493V14.8512L50.8171 17.0363L45.5732 20.0555V30.3536L54.6139 25.1493H54.6128ZM43.7662 43.7781V33.4733L38.6081 36.4191L23.8788 44.8255V55.2275L43.7662 43.7781ZM2.18559 8.71227V43.7781L22.0707 55.2263V44.8267L11.6823 38.9474L11.6789 38.9451L11.6744 38.9429C11.6394 38.9225 11.6101 38.8932 11.5773 38.8684C11.5491 38.8458 11.5164 38.8277 11.4916 38.8029L11.4893 38.7995C11.46 38.7713 11.4396 38.7363 11.4148 38.7047C11.3922 38.6742 11.3652 38.6483 11.3471 38.6167L11.346 38.6133C11.3256 38.5794 11.3132 38.5388 11.2986 38.5004C11.2839 38.4666 11.2647 38.435 11.2557 38.3988V38.3977C11.2444 38.3548 11.2421 38.3097 11.2376 38.2657C11.2331 38.2318 11.2241 38.1979 11.2241 38.1641V38.1618V13.9166L5.98134 10.8963L2.18559 8.7134V8.71227ZM12.1293 1.94696L3.09192 7.14905L12.127 12.3511L21.1632 7.14792L12.127 1.94696H12.1293ZM16.8291 34.4123L22.0718 31.3942V8.71227L18.2761 10.8974L13.0322 13.9166V36.5986L16.8291 34.4123ZM44.6703 8.08585L35.634 13.2879L44.6703 18.49L53.7054 13.2868L44.6703 8.08585ZM43.7662 20.0555L38.5223 17.0363L34.7266 14.8512V25.1493L39.9693 28.1673L43.7662 30.3536V20.0555ZM22.9736 43.2623L36.2277 35.6956L42.8531 31.9146L33.8236 26.7159L23.4274 32.7013L13.9521 38.1562L22.9736 43.2623Z" fill="#141414"/>
</g>
<path fill-rule="evenodd" clip-rule="evenodd" d="M77.6241 16.8365V42.8481H87.0351V47.3358H72.6128V16.8365H77.6241ZM104.724 29.7769V27.0319H109.473V47.3369H104.725V44.5908C104.085 45.6078 103.179 46.4069 102.001 46.987C100.825 47.5683 99.6413 47.8583 98.4506 47.8583C96.9099 47.8583 95.5013 47.5762 94.2236 47.0096C92.9784 46.4666 91.8584 45.6728 90.9335 44.6777C90.0172 43.6879 89.2937 42.5357 88.8003 41.2804C88.2861 39.9761 88.0267 38.5853 88.0362 37.1833C88.0362 35.7611 88.2902 34.4022 88.7992 33.1087C89.2895 31.8448 90.0136 30.6846 90.9335 29.6888C91.8586 28.6943 92.9786 27.901 94.2236 27.3581C95.5013 26.7915 96.9099 26.5093 98.4506 26.5093C99.6413 26.5093 100.825 26.7994 102.001 27.3807C103.177 27.962 104.085 28.7599 104.725 29.7769H104.724ZM104.288 39.6675C104.581 38.8725 104.729 38.0315 104.725 37.1844C104.725 36.3119 104.578 35.4846 104.288 34.7013C104.016 33.9471 103.602 33.2518 103.069 32.6528C102.537 32.0652 101.892 31.5908 101.173 31.2577C100.433 30.9101 99.612 30.7351 98.7124 30.7351C97.8106 30.7351 96.9968 30.9101 96.2711 31.2577C95.5608 31.5948 94.9241 32.0689 94.3975 32.6528C93.8662 33.2487 93.4594 33.9448 93.2011 34.7002C92.9219 35.4981 92.7814 36.3379 92.7857 37.1833C92.7857 38.0546 92.9234 38.8831 93.1999 39.6664C93.4753 40.4519 93.8749 41.1337 94.3986 41.7149C94.925 42.299 95.5617 42.7731 96.2722 43.11C96.9968 43.4587 97.8106 43.6326 98.7113 43.6326C99.612 43.6326 100.433 43.4587 101.173 43.11C101.892 42.7772 102.537 42.3027 103.069 41.7149C103.602 41.1163 104.016 40.4214 104.288 39.6675ZM113.22 47.3358V27.0319H126.118V31.7058H117.969V47.338H113.22V47.3358ZM143.328 29.7769V27.0319H148.078V47.3369H143.328V44.5908C142.689 45.6078 141.782 46.4069 140.605 46.987C139.428 47.5683 138.246 47.8583 137.054 47.8583C135.514 47.8583 134.106 47.5762 132.828 47.0096C131.583 46.4666 130.463 45.6728 129.538 44.6777C128.621 43.688 127.897 42.5358 127.403 41.2804C126.89 39.976 126.631 38.5852 126.64 37.1833C126.64 35.7611 126.894 34.4022 127.403 33.1087C127.893 31.8449 128.617 30.6847 129.537 29.6888C130.462 28.6942 131.582 27.9008 132.828 27.3581C134.106 26.7915 135.514 26.5093 137.054 26.5093C138.244 26.5093 139.428 26.7994 140.605 27.3807C141.782 27.962 142.689 28.7599 143.328 29.7769ZM142.892 39.6675C143.184 38.8724 143.332 38.0315 143.328 37.1844C143.328 36.3119 143.181 35.4846 142.892 34.7013C142.62 33.9471 142.206 33.2518 141.673 32.6528C141.141 32.0652 140.496 31.5908 139.777 31.2577C139.037 30.9101 138.215 30.7351 137.316 30.7351C136.415 30.7351 135.601 30.9101 134.875 31.2577C134.165 31.5948 133.528 32.0689 133.002 32.6528C132.47 33.2486 132.063 33.9447 131.804 34.7002C131.525 35.4982 131.385 36.338 131.39 37.1833C131.39 38.0546 131.527 38.8831 131.804 39.6664C132.08 40.4519 132.479 41.1337 133.002 41.7149C133.528 42.299 134.165 42.7731 134.875 43.11C135.601 43.4587 136.415 43.6326 137.316 43.6326C138.215 43.6326 139.037 43.4587 139.777 43.11C140.497 42.7772 141.142 42.3027 141.673 41.7149C142.206 41.1163 142.62 40.4214 142.892 39.6675ZM167.117 27.0319H171.928L164.134 47.3369H158.163L150.369 27.0319H155.179L161.149 42.5806L167.117 27.0319ZM182.287 26.5093C188.753 26.5093 193.163 32.2408 192.334 38.9485H176.579C176.579 40.7002 178.348 44.0863 182.547 44.0863C186.159 44.0863 188.58 40.9091 188.581 40.9068L191.79 43.3899C188.921 46.452 186.572 47.8595 182.894 47.8595C176.322 47.8595 171.867 43.7014 171.867 37.1844C171.867 31.2893 176.471 26.5093 182.286 26.5093H182.287ZM176.591 35.4192H187.973C187.938 35.0286 187.321 30.2814 182.248 30.2814C177.175 30.2814 176.628 35.0286 176.591 35.4192ZM195.427 47.3358V16.8365H200.176V47.3358H195.427Z" fill="#141414"/>
<defs>
<clipPath id="clip0">
<rect width="56.4341" height="58.6914" fill="white" transform="translate(0.377441)"/>
</clipPath>
</defs>
</svg>
