<svg width="213" height="68" viewBox="0 0 213 68" fill="none" xmlns="http://www.w3.org/2000/svg">
<path d="M13.081 35.111C12.6326 35.0885 12.1831 35.1189 11.7418 35.2017C11.0056 35.3205 10.3004 35.5846 9.66736 35.9788C9.03427 36.3729 8.48593 36.8892 8.05429 37.4974C7.62264 38.1057 7.31633 38.7938 7.15318 39.5216C6.99004 40.2495 6.97333 41.0025 7.10403 41.7369C7.42487 44.7655 10.6528 47.3195 13.6411 47.3955C13.9478 47.4033 14.2545 47.3829 14.5575 47.3347C17.7911 46.8111 18.6378 43.4778 18.1047 40.2037C17.5027 36.507 14.8687 35.2039 13.081 35.111ZM16.2494 43.8694C16.1129 44.0738 15.9235 44.2373 15.7013 44.3423C15.4791 44.4474 15.2325 44.4901 14.988 44.4658C14.5581 44.4318 14.1572 44.2356 13.8665 43.9169C13.5758 43.5982 13.417 43.181 13.4224 42.7496C13.4149 42.1748 13.5257 41.6046 13.7479 41.0745C13.8866 40.7377 13.8999 40.3622 13.7855 40.0164C13.671 39.6706 13.4363 39.3774 13.124 39.19C12.7402 38.9521 12.2798 38.8705 11.8378 38.9622C11.4096 39.0445 11.0313 39.2926 10.7851 39.6525C10.619 39.9212 10.4893 40.2108 10.3994 40.5137C10.3819 40.5668 10.368 40.6083 10.3574 40.6354C10.2109 41.0092 9.97712 41.1185 9.81902 41.0982C9.7608 41.0875 9.70688 41.0603 9.66368 41.0198C9.62049 40.9794 9.58985 40.9273 9.57543 40.8699C9.49342 40.3709 9.53185 39.8596 9.6875 39.3785C9.84315 38.8974 10.1115 38.4605 10.4702 38.1042C10.7826 37.7923 11.1621 37.5559 11.5797 37.4129C11.9972 37.27 12.4419 37.2242 12.8799 37.2792C13.3397 37.3345 13.7793 37.5009 14.1605 37.7641C14.5416 38.0273 14.8531 38.3794 15.0678 38.7899C15.2744 39.284 15.358 39.8208 15.3113 40.3544C15.2647 40.8879 15.0892 41.4021 14.8 41.8528C14.7634 41.9308 14.73 42.0021 14.7014 42.0659C14.5974 42.2425 14.5399 42.4426 14.5345 42.6475C14.5291 42.8524 14.5759 43.0553 14.6705 43.2371C14.7537 43.3479 14.8623 43.4372 14.9872 43.4973C15.1121 43.5574 15.2496 43.5866 15.3881 43.5825C15.5204 43.5808 15.652 43.5632 15.78 43.5302C15.9461 43.4935 16.1179 43.4556 16.2224 43.58C16.2571 43.6191 16.2784 43.6683 16.2833 43.7203C16.2881 43.7723 16.2763 43.8246 16.2494 43.8694V43.8694Z" fill="white"/>
<path d="M54.4033 50.0802C55.0779 48.3676 55.468 46.5562 55.5579 44.7177C55.5579 42.4573 54.2785 41.5204 53.4639 41.5204C53.4389 41.4331 53.2778 40.8437 53.0559 40.1342C52.929 39.7227 52.7784 39.3189 52.6048 38.9249C53.2716 38.0036 53.5537 36.8588 53.3916 35.7331C53.2582 34.865 52.8456 34.0641 52.2163 33.4518C51.0218 32.4375 49.5965 31.7323 48.0657 31.3983C47.8351 31.3339 47.075 31.1254 47.0082 31.105C47.003 31.0615 46.9527 28.615 46.9069 27.5646C46.8871 26.5114 46.7302 25.4652 46.4401 24.4526C46.0795 22.9994 45.3341 21.6702 44.2822 20.6049C46.9158 17.8781 48.5598 14.8743 48.5558 12.2974C48.5483 7.34171 42.4553 5.84206 34.9469 8.94784C34.9387 8.95133 33.3671 9.61681 33.3559 9.62253C33.3489 9.61556 30.4798 6.80385 30.4367 6.76603C21.8761 -0.692467 -4.8901 29.0254 3.66759 36.243L5.53779 37.8255C5.03312 39.1782 4.85494 40.6311 5.01775 42.0657C5.27125 44.1529 6.30264 46.0675 7.90586 47.4272C9.46202 48.8399 11.4725 49.6485 13.5732 49.7065C16.9034 57.3722 24.5122 62.0746 33.4338 62.3393C43.0039 62.6232 51.0373 58.1377 54.4033 50.0802ZM56.3676 41.0084C57.1875 42.0668 57.6093 43.3797 57.5594 44.7177C57.4733 46.8047 57.037 48.8623 56.2688 50.8046L56.2506 50.8501C54.5141 55.0274 51.4821 58.5362 47.6015 60.8596C43.5625 63.2096 38.9606 64.4166 34.2885 64.3515H34.2875C33.9852 64.3515 33.6781 64.3467 33.3745 64.3378C28.7633 64.2414 24.262 62.9123 20.3377 60.4884C16.8833 58.323 14.088 55.2525 12.2549 51.6102C10.1431 51.2821 8.17155 50.349 6.57861 48.9238C4.59809 47.2313 3.32938 44.8532 3.02626 42.2652C2.89117 41.0078 2.96405 39.7367 3.24196 38.5029L2.37373 37.7685C1.67096 37.1614 1.09984 36.4168 0.695538 35.5805C0.291231 34.7443 0.0622879 33.8342 0.0228004 32.9061C-0.0484353 30.9797 0.284397 29.0597 0.99987 27.2697C2.78214 22.4024 6.88217 16.6065 11.9682 11.7655C14.2379 9.56235 16.7557 7.63032 19.4709 6.00822C21.7356 4.55928 24.3366 3.72126 27.0209 3.57567C28.7522 3.5305 30.4385 4.13058 31.7523 5.25938C31.8273 5.32482 32.9513 6.42445 33.8039 7.25983C34.0178 7.16952 34.1717 7.10456 34.1762 7.10285C36.6983 6.00392 39.4088 5.40223 42.1588 5.33078C47.2543 5.33078 50.5509 8.06413 50.5574 12.2944C50.5614 14.9046 49.2802 17.8307 46.9184 20.6634C47.5609 21.6573 48.047 22.744 48.3597 23.8856C48.6951 25.0542 48.8789 26.2612 48.9063 27.4767C48.9293 27.9997 48.9527 28.8388 48.9716 29.5794C50.7141 30.0206 52.3244 30.876 53.6656 32.0729C54.575 32.9754 55.1713 34.1456 55.3672 35.4118C55.5642 36.6617 55.3711 37.942 54.8143 39.0782C54.8639 39.2205 54.9154 39.375 54.9667 39.5387C55.0113 39.6815 55.0534 39.819 55.0928 39.9496C55.5832 40.2152 56.0165 40.575 56.3677 41.0084H56.3676Z" fill="white"/>
<path d="M50.3012 38.5335C50.6258 38.2283 50.8789 37.8552 51.0425 37.4408C51.2061 37.0264 51.2762 36.581 51.2476 36.1363C51.1827 35.6882 50.9736 35.2734 50.6521 34.9546C49.7088 34.1713 48.5864 33.6337 47.3849 33.3896C46.8361 33.2338 46.4638 33.1341 46.0627 33.0006C45.3493 32.7631 44.9968 32.5718 44.9169 31.2153C44.8821 30.6221 44.7797 28.5553 44.7429 27.7013C44.6779 26.2048 44.4997 24.1593 43.2449 23.3148C42.9257 23.103 42.5545 22.9831 42.1718 22.968C41.9576 22.9549 41.7426 22.9761 41.5351 23.031C40.8982 23.1799 40.3185 23.5112 39.867 23.9846C39.2825 24.5185 38.5933 24.925 37.8433 25.1782C37.0933 25.4315 36.2989 25.5259 35.5104 25.4555C34.6322 25.4183 33.7015 25.28 32.6346 25.216C32.4269 25.2038 32.2188 25.1908 32.0109 25.1798C30.6323 25.2205 29.3142 25.7556 28.2971 26.6874C27.28 27.6193 26.6316 28.8858 26.4703 30.256C25.8594 34.506 28.9027 36.7022 29.7812 37.991C29.917 38.1555 30.0011 38.3565 30.023 38.5687C30.0002 38.8041 29.8883 39.0219 29.7103 39.1775L29.7105 39.1787C28.4939 40.5487 27.6397 42.2017 27.226 43.9868C26.8123 45.7719 26.8522 47.6323 27.3421 49.398C27.4582 49.8221 27.6071 50.2365 27.7873 50.6375C30.0079 55.8855 36.8965 58.3295 43.6264 56.1068C44.5079 55.8155 45.3633 55.45 46.1831 55.0142C47.6586 54.2765 48.9858 53.2734 50.0984 52.0551C51.8342 50.294 52.9743 48.0328 53.3581 45.5896C53.5608 44.2371 53.264 43.7136 52.8598 43.4619C52.5744 43.3013 52.2436 43.2403 51.9197 43.2884C51.7484 42.2266 51.4478 41.1898 51.0244 40.2012L50.3012 38.5335Z" fill="white"/>
<path d="M39.2723 18.2646C39.3809 18.2896 39.4499 18.1019 39.3527 18.0474C37.7449 17.214 35.9716 16.7498 34.1618 16.6886C34.1444 16.6883 34.1274 16.6832 34.1127 16.6739C34.098 16.6646 34.0862 16.6514 34.0785 16.6358C34.0708 16.6202 34.0676 16.6027 34.0692 16.5854C34.0708 16.5681 34.0772 16.5515 34.0876 16.5376C34.3689 16.1698 34.6973 15.8405 35.0644 15.5584C35.0808 15.5456 35.0928 15.5279 35.0984 15.5079C35.1041 15.4878 35.1032 15.4665 35.0959 15.447C35.0886 15.4275 35.0752 15.4109 35.0577 15.3996C35.0403 15.3882 35.0197 15.3828 34.9989 15.384C32.7829 15.6017 30.6526 16.353 28.7901 17.5735C28.7742 17.5842 28.7555 17.59 28.7363 17.5899C28.7172 17.5899 28.6985 17.5841 28.6826 17.5733C28.6668 17.5625 28.6546 17.5472 28.6476 17.5293C28.6405 17.5115 28.639 17.492 28.6432 17.4733C28.7932 16.9136 29.014 16.3754 29.3002 15.8716C29.3096 15.8543 29.3133 15.8345 29.3106 15.815C29.3078 15.7954 29.2989 15.7773 29.2852 15.7632C29.2714 15.7492 29.2535 15.7399 29.234 15.7368C29.2146 15.7337 29.1946 15.7369 29.1772 15.746C26.4876 17.2237 24.0905 19.1803 22.1039 21.5197C22.0883 21.5375 22.0799 21.5604 22.0801 21.584C22.0804 21.6076 22.0893 21.6303 22.1052 21.6478C22.1211 21.6653 22.1429 21.6763 22.1664 21.6788C22.1899 21.6813 22.2134 21.675 22.2326 21.6612C24.5348 20.052 27.1285 18.9068 29.8685 18.2897C32.9615 17.576 36.1754 17.5674 39.2722 18.2646" fill="white"/>
<path d="M31.3509 10.6733C31.3509 10.6733 29.0209 7.97507 28.3176 7.77605C23.9905 6.60802 14.6432 13.0472 8.67503 21.5545C6.26014 24.9966 2.80319 31.0923 4.4562 34.2274C5.04373 34.9313 5.70606 35.5692 6.43149 36.1299C7.53903 34.577 9.20591 33.5147 11.0809 33.1669C13.4341 26.586 17.5649 20.7864 23.0144 16.4122C25.6294 14.2714 28.4178 12.3518 31.3509 10.6733Z" fill="white"/>
<path d="M16.0927 43.7524C16.1263 43.7931 16.1468 43.843 16.1514 43.8955C16.1561 43.948 16.1448 44.0007 16.119 44.0466C15.9934 44.2506 15.8133 44.4153 15.5991 44.5223C15.385 44.6294 15.1451 44.6744 14.9067 44.6524C14.4818 44.6066 14.0901 44.4012 13.8108 44.0776C13.5316 43.7541 13.3855 43.3365 13.4021 42.9093C13.3949 42.3272 13.5012 41.7492 13.7149 41.2077C13.8499 40.8684 13.8639 40.493 13.7548 40.1446C13.6457 39.7961 13.4199 39.4959 13.1156 39.2942C12.9355 39.175 12.7333 39.0931 12.521 39.0533C12.3087 39.0136 12.0906 39.0168 11.8795 39.0627C11.6727 39.1062 11.4767 39.1907 11.3031 39.3111C11.1294 39.4315 10.9816 39.5854 10.8682 39.7638C10.7079 40.0383 10.5833 40.3322 10.4973 40.6383C10.4807 40.6922 10.4673 40.7345 10.4572 40.7618C10.3164 41.1418 10.0918 41.2526 9.93969 41.2323C9.86777 41.2223 9.76887 41.1742 9.70548 41.0003C9.62591 40.4974 9.66202 39.9831 9.81105 39.4963C9.96009 39.0096 10.2181 38.5632 10.5655 38.1912C10.8573 37.8778 11.2195 37.6384 11.6221 37.4928C12.0247 37.3471 12.4562 37.2994 12.8809 37.3537C13.3308 37.4155 13.7583 37.588 14.1252 37.8557C14.4921 38.1234 14.7869 38.478 14.9832 38.8876C15.182 39.3911 15.2623 39.9336 15.2177 40.4731C15.1731 41.0126 15.0049 41.5345 14.7262 41.9985C14.6909 42.0774 14.6586 42.1498 14.6314 42.2152C14.5312 42.3965 14.4762 42.5992 14.471 42.8062C14.4658 43.0133 14.5107 43.2185 14.6017 43.4045C14.6787 43.5155 14.782 43.6056 14.9023 43.6667C15.0226 43.7279 15.1562 43.7583 15.2912 43.7552C15.4184 43.7534 15.5449 43.7355 15.6676 43.702C15.8274 43.6645 15.9924 43.6261 16.0927 43.7524L16.0927 43.7524ZM55.4719 44.7359C55.3826 46.5701 54.9952 48.3776 54.3248 50.0873C50.9807 58.1277 42.9999 62.604 33.4926 62.3206C24.6295 62.0565 17.0703 57.3638 13.7619 49.7142C11.6734 49.6558 9.67531 48.8486 8.13196 47.4397C6.53765 46.0801 5.51331 44.1701 5.26266 42.0895C5.10089 40.658 5.27786 39.2086 5.7793 37.8582L3.92129 36.2789C-4.58026 29.0765 22.0103 -0.578929 30.5152 6.86407C30.5581 6.90154 33.4082 9.7076 33.4153 9.71451C33.4267 9.70873 34.9879 9.04446 34.9958 9.04122C42.4552 5.94191 48.5082 7.43837 48.5158 12.3834C48.5197 14.9552 46.8865 17.9527 44.2703 20.6736C45.3159 21.7382 46.0562 23.0642 46.4137 24.5131C46.7021 25.5239 46.858 26.5679 46.8775 27.6189C46.9229 28.6669 46.9732 31.1084 46.9782 31.1519C47.0446 31.172 47.7998 31.3799 48.0287 31.4445C49.5506 31.7784 50.9669 32.4822 52.1522 33.4937C52.778 34.1057 53.1878 34.9047 53.3198 35.7701C53.4811 36.893 53.201 38.0346 52.5384 38.9552C52.7108 39.3486 52.8604 39.7515 52.9865 40.1621C53.2066 40.8703 53.3668 41.458 53.3915 41.5452C54.2008 41.5452 55.4719 42.4801 55.4719 44.7359L55.4719 44.7359ZM17.9014 40.3238C17.3232 36.5692 14.7919 35.246 13.0743 35.1516C12.6432 35.1287 12.2108 35.1595 11.7873 35.2434C8.72163 35.864 6.9902 38.4806 7.3309 41.8806C7.57903 43.4057 8.334 44.8025 9.47381 45.8454C10.6136 46.8882 12.0717 47.5162 13.6123 47.6277C13.9072 47.6356 14.2021 47.6148 14.4929 47.5657C17.6001 47.034 18.4136 43.6488 17.9014 40.3238ZM23.1413 16.4898C25.7382 14.3542 28.5084 12.4386 31.4231 10.763C31.4231 10.763 29.1088 8.07047 28.4098 7.87204C24.1111 6.70609 14.8249 13.1318 8.89591 21.6212C6.49688 25.0562 3.06261 31.1391 4.7046 34.2676C5.28792 34.9698 5.94594 35.6064 6.66701 36.166C7.76479 34.6182 9.42121 33.558 11.2862 33.2094C13.6194 26.6485 17.7226 20.8616 23.1413 16.4898ZM32.4843 46.2014C32.5982 46.7004 32.8447 47.1593 33.1979 47.5297C33.551 47.9001 33.9976 48.1682 34.4905 48.3057C35.0032 48.4968 35.5322 48.641 36.071 48.7363C42.8708 49.9099 49.2279 46.0089 50.6592 45.0264C50.7666 44.9526 50.8376 45.0246 50.7514 45.1548C50.7083 45.2241 50.6615 45.291 50.6113 45.3553C48.8596 47.6224 44.1503 50.2478 38.0233 50.2469C35.3511 50.2464 32.6803 49.3018 31.6997 47.8505C30.1783 45.5984 31.6243 42.3113 34.1594 42.6538C34.1624 42.6543 35.0268 42.7526 35.2698 42.7796C39.2105 43.1587 43.1826 42.5209 46.8067 40.9272C50.2654 39.3163 51.572 37.5434 51.376 36.1083C51.3105 35.6626 51.1011 35.2505 50.7797 34.9349C49.8338 34.1561 48.7108 33.6224 47.5098 33.3809C46.9604 33.2261 46.5877 33.1274 46.1861 32.9946C45.4722 32.7587 45.1193 32.5688 45.0393 31.2218C45.0045 30.6327 44.9021 28.5804 44.865 27.7322C44.7998 26.2462 44.6218 24.215 43.3655 23.3763C43.0456 23.1657 42.6743 23.0466 42.2917 23.0319C42.0772 23.0188 41.862 23.04 41.6541 23.0946C41.0177 23.2419 40.4378 23.5708 39.9847 24.0415C39.3976 24.5723 38.7071 24.9761 37.9567 25.2274C37.2063 25.4788 36.412 25.5723 35.6237 25.5021C34.7447 25.4653 33.8132 25.3279 32.7454 25.2643C32.5377 25.2521 32.3291 25.2391 32.121 25.2285C30.7461 25.2646 29.43 25.7933 28.4121 26.7185C27.3942 27.6437 26.7423 28.9037 26.5751 30.2692C25.9638 34.4896 29.0099 36.6705 29.8893 37.9502C30.0252 38.1132 30.1094 38.313 30.1313 38.5241C30.1081 38.7582 29.9961 38.9745 29.8183 39.1284V39.1298C28.6019 40.4854 27.747 42.1261 27.3326 43.8999C26.9183 45.6737 26.9579 47.5234 27.4479 49.2778C27.5641 49.6991 27.7131 50.1107 27.8935 50.5087C30.1161 55.7202 37.0112 58.1469 43.7474 55.9395C44.6294 55.6506 45.4856 55.2879 46.3067 54.8552C47.7818 54.1237 49.1101 53.1276 50.2257 51.9164C51.9606 50.1723 53.1022 47.9258 53.4885 45.4959C53.6913 44.1526 53.3945 43.6331 52.9897 43.3831C52.7035 43.2236 52.3728 43.1629 52.0487 43.2105C51.8771 42.1556 51.5762 41.1259 51.1526 40.1448C49.2288 41.5969 47.054 42.6822 44.7371 43.3463C41.9495 44.1342 39.0495 44.4488 36.1579 44.2771C34.2976 44.1263 33.0668 43.5813 32.6039 45.0908C35.4179 46.0321 38.4056 46.337 41.3517 45.9836C41.3724 45.9815 41.3933 45.9834 41.4133 45.9894C41.4333 45.9954 41.4518 46.0053 41.468 46.0185C41.4841 46.0317 41.4975 46.048 41.5073 46.0663C41.5171 46.0847 41.5232 46.1049 41.5253 46.1256C41.5284 46.1605 41.5206 46.1954 41.503 46.2257C41.4854 46.2559 41.4589 46.2799 41.4271 46.2945C41.4271 46.2945 37.9718 47.9042 32.4843 46.2014ZM22.3647 21.7276C24.6501 20.1226 27.227 18.9798 29.9506 18.3635C33.0231 17.6512 36.2167 17.6426 39.2929 18.3383C39.4005 18.363 39.4692 18.1759 39.3729 18.1218C37.7766 17.2904 36.0144 16.8269 34.2157 16.7655C34.1984 16.7652 34.1815 16.7601 34.1668 16.7508C34.1522 16.7415 34.1404 16.7283 34.1328 16.7128C34.1252 16.6972 34.122 16.6798 34.1236 16.6626C34.1252 16.6453 34.1316 16.6288 34.1419 16.6149C34.4213 16.2481 34.7477 15.9195 35.1126 15.6377C35.129 15.6249 35.1409 15.6073 35.1465 15.5873C35.1521 15.5674 35.1512 15.5461 35.1439 15.5267C35.1367 15.5072 35.1234 15.4906 35.106 15.4793C35.0887 15.4679 35.0681 15.4624 35.0474 15.4636C32.8447 15.6814 30.728 16.4312 28.8792 17.6486C28.8634 17.6593 28.8447 17.665 28.8256 17.665C28.8066 17.6649 28.7879 17.6591 28.7722 17.6484C28.7565 17.6376 28.7443 17.6223 28.7374 17.6045C28.7304 17.5868 28.729 17.5673 28.7333 17.5487C28.8821 16.9904 29.1014 16.4534 29.3858 15.9505C29.3953 15.9333 29.3989 15.9135 29.3963 15.8941C29.3937 15.8746 29.3849 15.8565 29.3712 15.8425C29.3575 15.8284 29.3397 15.8191 29.3203 15.816C29.301 15.8128 29.2811 15.8159 29.2637 15.8249C26.5899 17.3012 24.2085 19.2539 22.2367 21.5868C22.2213 21.6045 22.2129 21.6273 22.2131 21.6508C22.2134 21.6743 22.2222 21.6969 22.238 21.7142C22.2538 21.7316 22.2755 21.7426 22.2988 21.7451C22.3222 21.7475 22.3456 21.7413 22.3647 21.7276ZM40.2713 36.0536C40.4574 36.1715 40.6804 36.2167 40.8977 36.1805C41.115 36.1444 41.3114 36.0295 41.4493 35.8578C41.6208 35.5257 41.3718 35.0753 40.8929 34.8516C40.7067 34.7337 40.4837 34.6886 40.2664 34.7248C40.0491 34.761 39.8527 34.876 39.7148 35.0479C39.5431 35.3797 39.7923 35.8301 40.2713 36.0536ZM41.7403 30.6687C41.8552 31.2666 42.1031 31.8309 42.4657 32.3199C42.8403 32.2739 43.2191 32.2739 43.5937 32.3199C43.8127 31.6637 43.8318 30.9571 43.6487 30.2899C43.378 29.0589 43.0117 28.3138 42.2546 28.4297C41.4978 28.5457 41.4699 29.4377 41.7403 30.6687ZM43.3508 33.4966C43.1599 33.4418 42.9566 33.4482 42.7695 33.5149C42.5825 33.5816 42.421 33.7053 42.3078 33.8686C42.1946 34.0318 42.1353 34.2265 42.1384 34.4251C42.1415 34.6238 42.2067 34.8165 42.3249 34.9762C42.4431 35.1358 42.6084 35.2545 42.7974 35.3153C42.9865 35.3762 43.1899 35.3763 43.379 35.3157C43.5682 35.255 43.7335 35.1365 43.8519 34.977C43.9703 34.8174 44.0357 34.6248 44.039 34.4261C44.0664 34.2123 44.0101 33.9961 43.8819 33.8229C43.7536 33.6496 43.5633 33.5327 43.3508 33.4966Z" fill="#141414"/>
<path d="M30.7824 33.3866C30.6616 33.3696 30.6101 33.3179 30.595 33.2494C30.5481 33.037 30.8746 32.6875 31.2188 32.4352C31.7211 32.0679 32.3095 31.8359 32.9273 31.7617C33.5451 31.6876 34.1717 31.7736 34.7467 32.0116C35.2839 32.2333 35.7459 32.6052 36.0772 33.0828C36.2003 33.2837 36.2241 33.4394 36.1445 33.521C36.0206 33.6518 35.7045 33.5019 35.1899 33.2762C34.5717 32.9728 33.8886 32.8256 33.2004 32.8475C32.3849 32.9817 31.5776 33.1617 30.7824 33.3866ZM35.9114 34.4428C35.689 34.209 35.4122 34.034 35.1056 33.9335C34.799 33.833 34.4724 33.8101 34.1548 33.8669C33.6865 33.9167 33.2427 34.1017 32.8777 34.3993C32.7076 34.5214 32.5906 34.7041 32.5509 34.9098C32.55 34.9326 32.5541 34.9554 32.563 34.9765C32.5718 34.9977 32.5852 35.0166 32.6021 35.0319C32.6323 35.0593 32.6717 35.0743 32.7125 35.0739C32.881 35.0491 33.0457 35.0035 33.2029 34.9379C33.8908 34.6785 34.6341 34.6013 35.3607 34.7137C35.6974 34.7515 35.8565 34.7726 35.9304 34.657C35.9493 34.6236 35.9577 34.5852 35.9543 34.547C35.9509 34.5087 35.9359 34.4724 35.9114 34.4428Z" fill="#141414"/>
<path d="M34.9579 34.7515C35.1703 33.9951 35.1825 33.1964 34.9932 32.4338C34.7193 31.2009 34.3051 30.4964 33.5375 30.6124C32.7698 30.7285 32.7499 31.7221 32.9973 32.9602C33.1111 33.5275 33.3327 34.0678 33.6501 34.5516C34.2609 35.4043 34.6751 35.1836 34.9568 34.7515L34.9579 34.7515Z" fill="#141414"/>
<path d="M204.494 39.8899C203.083 39.8899 202.046 38.1015 202.046 35.6082C202.046 33.1874 203.113 31.3276 204.445 31.3276C206.156 31.3276 206.885 32.8973 206.885 35.6082C206.885 38.4279 206.213 39.8899 204.494 39.8899ZM206.182 26.1936C205.037 26.221 203.927 26.5899 202.994 27.2528C202.06 27.9158 201.346 28.8426 200.943 29.9143C200.527 30.8063 200.547 31.0681 200.244 31.0681C199.804 31.0681 200.169 30.3518 200.366 29.5086C200.602 28.5506 200.634 27.5534 200.459 26.5823H195.954V48.2052H202.103V41.3497C202.505 42.1067 203.102 42.7426 203.833 43.1915C204.563 43.6404 205.4 43.886 206.257 43.9031C210.702 43.9031 212.94 40.1393 212.94 35.0551C212.94 29.2921 210.262 26.1913 206.181 26.1913L206.182 26.1936ZM160.275 26.6061V43.5302H166.423V26.6061C165.465 27.0547 164.412 27.2624 163.355 27.2113C162.295 27.2609 161.238 27.0532 160.275 26.6061ZM152.653 26.197C149.093 26.197 147.739 29.5709 147.466 30.1569C147.193 30.7428 147.057 31.0794 146.834 31.0726C146.445 31.0601 146.716 30.3529 146.868 29.8962C147.462 27.9793 147.763 25.9837 147.761 23.9768C147.813 23.1275 147.727 22.2754 147.505 21.454H142.197V43.5313H148.345V35.1016C148.345 33.728 148.893 31.3287 150.443 31.3287C151.725 31.3287 152.127 32.2796 152.127 34.1949V43.5325H158.276V34.5644C158.276 30.2147 157.555 26.1993 152.653 26.1993V26.197ZM130.568 35.0585C130.568 33.5353 131.983 32.1493 134.58 32.1493C136.567 32.2014 138.505 32.7785 140.197 33.8221V27.9287C140.197 27.9287 138.399 26.197 133.978 26.197C129.318 26.197 125.438 28.9249 125.438 34.7956C125.438 40.6663 128.959 43.9212 133.966 43.9212C136.233 43.9536 138.44 43.1937 140.207 41.7724V36.1749C138.548 37.2969 136.609 37.9339 134.608 38.0143C131.636 38.0143 130.567 36.6463 130.567 35.0597L130.568 35.0585ZM117.652 21.454H123.801V43.5313H117.652V21.454ZM98.6043 39.5669C97.1337 39.9069 96.3723 39.4536 96.3723 38.4789C96.3723 37.1439 97.7534 36.6089 99.7237 36.6089C100.593 36.6089 101.41 36.6837 101.41 36.6837C101.207 37.3539 100.846 37.9655 100.358 38.4673C99.87 38.969 99.2685 39.3461 98.6043 39.5669ZM100.101 26.197C97.3113 26.1849 94.5519 26.7756 92.0115 27.9287V33.0208C92.0115 33.0208 95.7435 30.8743 98.7708 30.8743C101.187 30.8743 101.484 32.1776 101.374 33.2599C100.443 33.0973 99.4961 33.0354 98.551 33.0752C93.5399 33.0752 91.0099 35.3532 91.0099 39.0071C91.0099 42.4728 93.8526 43.9212 96.2488 43.9212C97.4083 43.9651 98.554 43.6578 99.536 43.0396C100.518 42.4215 101.291 41.5212 101.753 40.4566C102.08 39.6837 102.14 39.1623 102.435 39.1623C102.77 39.1623 102.657 39.5363 102.641 40.3059C102.583 41.3873 102.667 42.4717 102.89 43.5313H107.524V35.1923C107.524 29.9857 105.683 26.197 100.102 26.197H100.101ZM188.327 26.1936C187.29 26.2459 186.293 26.6073 185.463 27.2314C184.633 27.8555 184.009 28.7137 183.671 29.6956C183.327 30.4629 183.232 31.0692 182.953 31.0692C182.561 31.0692 182.823 30.3994 182.522 29.3737C182.289 28.4056 181.718 27.5528 180.912 26.9694C180.105 26.3861 179.117 26.1109 178.125 26.1936C175.283 26.1936 174.066 28.5951 173.49 29.9143C173.095 30.8165 173.094 31.0681 172.791 31.0681C172.351 31.0681 172.716 30.3518 172.913 29.5086C173.149 28.5506 173.181 27.5534 173.006 26.5823H168.501V43.5257H174.65V35.0959C174.65 33.4333 175.345 31.3231 176.537 31.3231C177.914 31.3231 178.19 32.3816 178.19 34.34V43.5302H184.364V35.0959C184.364 33.6158 184.968 31.3231 186.261 31.3231C187.656 31.3231 187.905 32.8089 187.905 34.34V43.5257H193.967V33.5614C193.967 29.1391 192.409 26.1913 188.328 26.1913L188.327 26.1936ZM83.9639 26.1936C82.927 26.2459 81.9295 26.6073 81.0996 27.2314C80.2698 27.8555 79.6456 28.7137 79.3074 29.6956C78.9641 30.4629 78.8689 31.0692 78.5902 31.0692C78.1982 31.0692 78.4792 30.5422 78.1586 29.3737C77.9138 28.4126 77.3396 27.5678 76.5361 26.9866C75.7326 26.4055 74.7506 26.1248 73.7615 26.1936C70.9199 26.1936 69.7031 28.5951 69.1264 29.9143C68.7322 30.8165 68.731 31.0681 68.4274 31.0681C67.9878 31.0681 68.3526 30.3518 68.5498 29.5086C68.7861 28.5506 68.8177 27.5534 68.6427 26.5823H64.1379V43.5257H70.2866V35.0959C70.2866 33.4333 70.9823 31.3231 72.1742 31.3231C73.5507 31.3231 73.8272 32.3816 73.8272 34.34V43.5302H80.0008V35.0959C80.0008 33.6158 80.6047 31.3231 81.8974 31.3231C83.2932 31.3231 83.5413 32.8089 83.5413 34.34V43.5257H89.6039V33.5614C89.6039 29.1391 88.0461 26.1913 83.9651 26.1913L83.9639 26.1936ZM159.568 23.7399C159.568 22.3829 161.253 21.2829 163.331 21.2829C165.41 21.2829 167.095 22.3829 167.095 23.7399C167.095 25.0969 165.41 26.197 163.331 26.197C161.253 26.197 159.568 25.0969 159.568 23.7399ZM112.593 27.2113C113.65 27.2624 114.703 27.0547 115.661 26.6061V43.5302H109.513V26.6061L112.593 27.2113ZM108.806 23.7399C108.806 22.3829 110.491 21.2829 112.569 21.2829C114.648 21.2829 116.333 22.3829 116.333 23.7399C116.333 25.0969 114.648 26.197 112.569 26.197C110.491 26.197 108.806 25.0969 108.806 23.7399Z" fill="#141414"/>
</svg>
