<svg width="187" height="37" viewBox="0 0 187 37" fill="none" xmlns="http://www.w3.org/2000/svg">
<path d="M41.1055 12.0949H43.831L49.0849 19.2831L54.096 12.0949H56.6463V27.4814H53.9642V16.3591L49.1069 23.1956H48.7108L43.8091 16.4251V27.4814H41.1055V12.0949Z" fill="#141414"/>
<path d="M64.293 21.0191H68.799L66.557 15.5459L64.293 21.0191ZM65.436 12.0514H67.8099L74.3166 27.4814H71.4367L69.8321 23.5468H63.2599L61.6553 27.4814H58.9297L65.436 12.0514Z" fill="#141414"/>
<path d="M75.8317 16.0954C75.8317 13.7879 77.6361 11.8531 80.6235 11.8531C82.5118 11.8531 84.0954 12.4906 85.0196 13.5017L83.5709 15.5239C82.8215 14.7985 82.0722 14.3814 80.8433 14.3814C79.5045 14.3814 78.6902 15.0623 78.6902 16.0734C78.6902 19.2606 85.6591 18.25 85.6591 23.371C85.6591 25.9647 83.3911 27.7231 80.5136 27.7231C78.5353 27.7231 76.2273 26.8659 75.48 25.3053L77.0187 23.4589C77.9209 24.6239 79.3696 25.1959 80.5585 25.1959C81.8324 25.1959 82.8016 24.5579 82.8016 23.393C82.8016 20.3596 75.8317 21.107 75.8317 16.0954Z" fill="#141414"/>
<path d="M86.863 12.0949H99.5469V14.6227H94.5563V27.4814H91.8537V14.6227H86.863V12.0949Z" fill="#141414"/>
<path d="M101.9 12.0949H110.802V14.6227H104.603V18.4478H110.143V20.9756H104.603V24.9541H111.022V27.4814H101.9V12.0949Z" fill="#141414"/>
<path d="M117.241 14.6227V19.1947H119C120.558 19.1947 121.942 18.4034 121.942 16.8207C121.942 15.6118 121.283 14.5792 119.085 14.5792C118.58 14.5792 117.966 14.6007 117.241 14.6227ZM114.534 27.4814V12.0949C115.393 12.0949 118.78 12.0514 119.22 12.0514C123.416 12.0514 124.8 14.1396 124.8 16.7988C124.8 19.4364 123.106 20.7553 121.832 21.1954L126.648 27.4814H123.371L119.13 21.7224H117.241V27.4814H114.534Z" fill="#141414"/>
<path d="M128.996 12.0949H131.724L136.979 19.2831L141.99 12.0949H144.537V27.4814H141.855V16.3591L136.999 23.1956H136.604L131.704 16.4251V27.4814H128.996V12.0949Z" fill="#141414"/>
<path d="M149.128 12.0949H151.836V27.4814H149.128V12.0949Z" fill="#141414"/>
<path d="M167.417 27.4814L158.955 16.8207V27.4814H156.427V12.0949H158.58L167.043 22.7995V12.0949H169.57V27.4814H167.417Z" fill="#141414"/>
<path d="M176.539 14.6227V24.9541C177.283 24.9975 177.898 24.9975 178.273 24.9975C181.989 24.9975 184.142 22.8874 184.142 19.6342C184.142 16.535 181.989 14.5567 178.318 14.5567C177.678 14.5567 177.154 14.5792 176.539 14.6227ZM173.832 12.0949H174.121C175.04 12.0949 177.239 12.0289 178.363 12.0289C184.517 12.0289 187 15.5678 187 19.6342C187 23.9644 184.053 27.5258 178.188 27.5258C177.263 27.5258 175.55 27.4813 174.141 27.4813H173.832V12.0949Z" fill="#141414"/>
<path d="M6.70011 12.0609H24.417V14.292H6.70011V12.0609ZM13.8968 8.07494L13.9317 8.09394C14.8399 8.57552 15.9185 8.56301 16.8162 8.06045L24.417 2.71017V10.2715H6.70011V3.25669L13.8968 8.07494ZM30.7844 34.4797L23.7097 32.1732V28.8552L23.8045 28.8836H23.9699C25.4501 28.8836 26.6506 27.6837 26.6506 26.2035V21.627C27.1416 21.8873 27.6951 22.0347 28.2821 22.0347C30.2049 22.0347 31.7801 20.4596 31.9234 18.4608H26.6506V16.5255H31.8615V14.292H26.6506V2.3165C26.6506 1.59513 26.2789 0.94622 25.6559 0.581039C25.033 0.216362 24.2857 0.208862 23.6557 0.56155L15.7127 6.11868C15.4874 6.24007 15.2196 6.24305 14.9913 6.12765L7.45443 1.11407L7.41999 1.09509C6.79104 0.761883 6.05117 0.781372 5.44121 1.14905C4.83125 1.51572 4.46658 2.16014 4.46658 2.87202V14.292H0V16.5255H4.46658V17.9033C3.12526 18.3674 2.1586 19.6433 2.1586 21.141V22.183C2.1586 24.0719 3.69478 25.608 5.58361 25.608H7.07229V23.3745H5.58361C4.92669 23.3745 4.39213 22.84 4.39213 22.183V21.141C4.39213 20.4845 4.92669 19.95 5.58361 19.95H6.70011V16.5255H24.417V26.2035C24.417 26.4098 24.2761 26.5842 24.0858 26.6351L19.825 25.3572C19.1082 25.1424 18.3868 25.6795 18.3868 26.4283C18.3868 26.9219 18.7105 27.357 19.1831 27.4984L21.4761 28.1858V31.4449L4.02644 26.3868L3.98502 26.3739C3.16974 26.1446 2.31595 26.2999 1.63455 26.8C0.922175 27.323 0.521026 28.1708 0.521026 29.0545V32.7547C0.521026 33.3717 1.02112 33.8717 1.63757 33.8717C2.25503 33.8717 2.75456 33.3717 2.75456 32.7547V28.998C2.75456 28.7847 2.87697 28.6603 2.94941 28.6054C3.02034 28.5514 3.16723 28.4705 3.36506 28.52L30.078 36.6408C30.65 36.8287 31.269 36.5379 31.4898 35.9779C31.7306 35.3684 31.4074 34.6825 30.7844 34.4797Z" fill="#141414"/>
<path d="M23.437 18.4608H15.7192C15.8711 20.4596 17.5401 22.0342 19.5779 22.0342C21.6156 22.0342 23.2841 20.4596 23.437 18.4608Z" fill="#141414"/>
<path d="M16.4035 25.1904C16.4035 25.7329 15.9639 26.172 15.4214 26.172C14.8793 26.172 14.4397 25.7329 14.4397 25.1904C14.4397 24.6479 14.8793 24.2087 15.4214 24.2087C15.9639 24.2087 16.4035 24.6479 16.4035 25.1904Z" fill="#141414"/>
</svg>
