<svg width="127" height="45" viewBox="0 0 127 45" fill="none" xmlns="http://www.w3.org/2000/svg">
<path d="M52.3418 15.1046H55.4886V17.8768H55.5635C55.6384 17.627 55.832 17.3149 56.1442 16.9402C56.4563 16.5656 56.8559 16.2097 57.3429 15.8726C57.8299 15.5354 58.4043 15.2482 59.0661 15.011C59.728 14.7737 60.4585 14.6551 61.2576 14.6551C62.5813 14.6551 63.6926 14.9298 64.5917 15.4792C65.4908 16.0287 66.2275 16.8528 66.8019 17.9517C67.3763 16.8528 68.188 16.0287 69.2369 15.4792C70.2858 14.9298 71.3472 14.6551 72.4211 14.6551C73.7947 14.6551 74.9185 14.8799 75.7926 15.3294C76.6667 15.7789 77.3535 16.3721 77.853 17.1088C78.3525 17.8456 78.6959 18.6822 78.8832 19.6187C79.0705 20.5553 79.1641 21.523 79.1641 22.522V32.8613H75.7926V22.9715C75.7926 22.2972 75.7489 21.6479 75.6615 21.0235C75.5741 20.3992 75.393 19.8497 75.1183 19.3752C74.8436 18.9007 74.4565 18.5199 73.957 18.2326C73.4575 17.9454 72.7957 17.8018 71.9716 17.8018C70.3482 17.8018 69.1869 18.3013 68.4877 19.3003C67.7884 20.2993 67.4387 21.5854 67.4387 23.1588V32.8613H64.0672V23.5709C64.0672 22.7218 64.0235 21.9476 63.9361 21.2483C63.8487 20.549 63.6739 19.9434 63.4117 19.4314C63.1494 18.9194 62.7748 18.5199 62.2878 18.2326C61.8008 17.9454 61.1453 17.8018 60.3211 17.8018C59.7217 17.8018 59.1411 17.9205 58.5791 18.1577C58.0172 18.395 57.524 18.7509 57.0994 19.2254C56.6749 19.6999 56.3377 20.3055 56.088 21.0422C55.8382 21.779 55.7134 22.6468 55.7134 23.6458V32.8613H52.3418V15.1046ZM82.8197 15.1046H86.1912V32.8613H82.8197V15.1046ZM82.033 8.73621C82.033 8.0619 82.2765 7.48126 82.7635 6.99426C83.2505 6.50726 83.8312 6.26376 84.5055 6.26376C85.1798 6.26376 85.7604 6.50726 86.2474 6.99426C86.7344 7.48126 86.9779 8.0619 86.9779 8.73621C86.9779 9.41052 86.7344 9.99116 86.2474 10.4782C85.7604 10.9652 85.1798 11.2087 84.5055 11.2087C83.8312 11.2087 83.2505 10.9652 82.7635 10.4782C82.2765 9.99116 82.033 9.41052 82.033 8.73621ZM89.8469 15.1046H93.2184V17.8393H93.2933C93.7178 16.8903 94.4546 16.1223 95.5035 15.5354C96.5524 14.9485 97.7637 14.6551 99.1373 14.6551C99.9864 14.6551 100.804 14.7862 101.591 15.0484C102.378 15.3107 103.065 15.7165 103.652 16.2659C104.238 16.8154 104.707 17.5209 105.056 18.3825C105.406 19.2441 105.581 20.2618 105.581 21.4356V32.8613H102.209V22.3721C102.209 21.548 102.097 20.8425 101.872 20.2556C101.647 19.6687 101.348 19.1942 100.973 18.832C100.598 18.4699 100.168 18.2077 99.6804 18.0453C99.1934 17.883 98.6877 17.8018 98.1633 17.8018C97.464 17.8018 96.8146 17.9142 96.2153 18.139C95.6159 18.3638 95.0914 18.7196 94.6419 19.2066C94.1924 19.6936 93.8427 20.3117 93.593 21.061C93.3432 21.8102 93.2184 22.6968 93.2184 23.7207V32.8613H89.8469V15.1046ZM126.768 32.8613H123.397V30.3139H123.322C122.673 31.2629 121.78 31.9997 120.643 32.5241C119.507 33.0486 118.339 33.3108 117.141 33.3108C115.767 33.3108 114.525 33.0736 113.413 32.5991C112.302 32.1245 111.353 31.4627 110.566 30.6136C109.78 29.7645 109.174 28.778 108.749 27.6542C108.325 26.5303 108.113 25.3066 108.113 23.983C108.113 22.6593 108.325 21.4294 108.749 20.293C109.174 19.1567 109.78 18.1702 110.566 17.3336C111.353 16.4969 112.302 15.8414 113.413 15.3669C114.525 14.8923 115.767 14.6551 117.141 14.6551C118.414 14.6551 119.613 14.9236 120.737 15.4605C121.861 15.9975 122.722 16.7279 123.322 17.652H123.397V4.54054H126.768V32.8613ZM117.553 30.1641C118.452 30.1641 119.264 30.008 119.988 29.6958C120.712 29.3836 121.324 28.9591 121.823 28.4221C122.323 27.8852 122.71 27.2359 122.985 26.4741C123.259 25.7124 123.397 24.882 123.397 23.983C123.397 23.0839 123.259 22.2535 122.985 21.4918C122.71 20.7301 122.323 20.0807 121.823 19.5438C121.324 19.0068 120.712 18.5823 119.988 18.2701C119.264 17.9579 118.452 17.8018 117.553 17.8018C116.654 17.8018 115.842 17.9579 115.118 18.2701C114.394 18.5823 113.782 19.0068 113.282 19.5438C112.783 20.0807 112.396 20.7301 112.121 21.4918C111.846 22.2535 111.709 23.0839 111.709 23.983C111.709 24.882 111.846 25.7124 112.121 26.4741C112.396 27.2359 112.783 27.8852 113.282 28.4221C113.782 28.9591 114.394 29.3836 115.118 29.6958C115.842 30.008 116.654 30.1641 117.553 30.1641Z" fill="#141414"/>
<path fill-rule="evenodd" clip-rule="evenodd" d="M52.4806 38.6775H53.805C53.8816 38.6775 53.9437 38.7396 53.9437 38.8162V39.4187C54.0179 39.3139 54.092 39.2091 54.1884 39.1043C54.2848 38.9994 54.3998 38.9058 54.5333 38.8235C54.6668 38.7411 54.8188 38.6737 54.9894 38.6213C55.1599 38.5689 55.3453 38.5427 55.5456 38.5427C55.9238 38.5427 56.2593 38.6213 56.5523 38.7786C56.8452 38.9358 57.0658 39.1829 57.2142 39.5198C57.407 39.1679 57.6406 38.9171 57.915 38.7673C58.1894 38.6176 58.5268 38.5427 58.9273 38.5427C59.2906 38.5427 59.5966 38.6045 59.845 38.728C60.0934 38.8516 60.29 39.02 60.4346 39.2334C60.5792 39.4468 60.683 39.6976 60.746 39.9858C60.8091 40.2741 60.8406 40.5829 60.8406 40.9124V43.9968C60.8406 44.0734 60.7785 44.1355 60.7018 44.1355H59.3107C59.2341 44.1355 59.172 44.0734 59.172 43.9968V40.9573C59.172 40.7027 59.1182 40.4837 59.0107 40.3003C58.9032 40.1169 58.7122 40.0252 58.4378 40.0252C58.245 40.0252 58.0837 40.057 57.9539 40.1206C57.8241 40.1843 57.7203 40.2722 57.6424 40.3845C57.5646 40.4968 57.5089 40.6279 57.4756 40.7776C57.4422 40.9273 57.4255 41.0846 57.4255 41.2493V43.9968C57.4255 44.0734 57.3634 44.1355 57.2868 44.1355H55.8957C55.819 44.1355 55.7569 44.0734 55.7569 43.9968V41.2493C55.7569 41.1519 55.7532 41.0322 55.7458 40.8899C55.7384 40.7476 55.7124 40.6129 55.6679 40.4856C55.6234 40.3583 55.5511 40.2498 55.451 40.1599C55.3509 40.0701 55.2044 40.0252 55.0116 40.0252C54.7965 40.0252 54.6223 40.0645 54.4888 40.1431C54.3553 40.2217 54.2533 40.3265 54.1829 40.4575C54.1124 40.5886 54.0661 40.7364 54.0438 40.9011C54.0216 41.0658 54.0104 41.238 54.0104 41.4177V43.9968C54.0104 44.0734 53.9483 44.1355 53.8717 44.1355H52.4806C52.404 44.1355 52.3418 44.0734 52.3418 43.9968V38.8162C52.3418 38.7396 52.404 38.6775 52.4806 38.6775ZM66.7123 43.3064C66.6441 43.3848 66.588 43.445 66.5439 43.487C66.3289 43.6923 66.08 43.8598 65.7973 43.9895C65.3894 44.1767 64.9667 44.2703 64.5292 44.2703C64.1139 44.2703 63.7227 44.2029 63.3556 44.0681C62.9885 43.9334 62.6696 43.7406 62.3989 43.4898C62.1283 43.239 61.915 42.9376 61.7593 42.5857C61.6036 42.2338 61.5257 41.8408 61.5257 41.4065C61.5257 40.9723 61.6036 40.5792 61.7593 40.2273C61.915 39.8754 62.1283 39.5741 62.3989 39.3232C62.6696 39.0724 62.9885 38.8796 63.3556 38.7449C63.7227 38.6101 64.1139 38.5427 64.5292 38.5427C64.9148 38.5427 65.2652 38.6101 65.5804 38.7449C65.8956 38.8796 66.1626 39.0724 66.3813 39.3232C66.6001 39.5741 66.7688 39.8754 66.8875 40.2273C67.0061 40.5792 67.0655 40.9723 67.0655 41.4065V41.7493C67.0655 41.8515 66.9826 41.9343 66.8805 41.9343H63.1943C63.261 42.2563 63.4057 42.5127 63.6281 42.7036C63.8506 42.8946 64.125 42.99 64.4513 42.99C64.7257 42.99 64.9575 42.9282 65.1466 42.8047C65.2633 42.7284 65.3709 42.6386 65.4692 42.5353C65.4933 42.5099 65.5234 42.4753 65.5593 42.4312L65.5591 42.4311C65.606 42.3736 65.6898 42.3631 65.7495 42.4073L66.6901 43.1031C66.7519 43.1489 66.7649 43.2361 66.7192 43.2978C66.717 43.3008 66.7147 43.3037 66.7123 43.3064ZM84.3791 43.3064C84.3109 43.3848 84.2548 43.445 84.2107 43.487C83.9957 43.6923 83.7468 43.8598 83.4641 43.9895C83.0562 44.1767 82.6335 44.2703 82.196 44.2703C81.7807 44.2703 81.3895 44.2029 81.0224 44.0681C80.6553 43.9334 80.3364 43.7406 80.0657 43.4898C79.795 43.239 79.5818 42.9376 79.4261 42.5857C79.2704 42.2338 79.1925 41.8408 79.1925 41.4065C79.1925 40.9723 79.2704 40.5792 79.4261 40.2273C79.5818 39.8754 79.795 39.5741 80.0657 39.3232C80.3364 39.0724 80.6553 38.8796 81.0224 38.7449C81.3895 38.6101 81.7807 38.5427 82.196 38.5427C82.5816 38.5427 82.932 38.6101 83.2472 38.7449C83.5624 38.8796 83.8294 39.0724 84.0481 39.3232C84.2669 39.5741 84.4356 39.8754 84.5543 40.2273C84.6729 40.5792 84.7323 40.9723 84.7323 41.4065V41.7493C84.7323 41.8515 84.6494 41.9343 84.5473 41.9343H80.8611C80.9278 42.2563 81.0724 42.5127 81.2949 42.7036C81.5174 42.8946 81.7918 42.99 82.1181 42.99C82.3925 42.99 82.6242 42.9282 82.8134 42.8047C82.9301 42.7284 83.0376 42.6386 83.136 42.5353C83.1601 42.5099 83.1901 42.4753 83.2261 42.4312L83.2259 42.4311C83.2728 42.3736 83.3566 42.3631 83.4163 42.4073L84.3569 43.1031C84.4187 43.1489 84.4317 43.2361 84.386 43.2978C84.3838 43.3008 84.3815 43.3037 84.3791 43.3064ZM65.3969 40.7888C65.4043 40.5043 65.3116 40.261 65.1188 40.0588C64.9259 39.8567 64.6775 39.7556 64.3735 39.7556C64.188 39.7556 64.0249 39.7856 63.884 39.8455C63.7431 39.9054 63.6226 39.9821 63.5225 40.0757C63.4223 40.1693 63.3445 40.2778 63.2889 40.4014C63.2332 40.5249 63.2017 40.6541 63.1943 40.7888H65.3969ZM67.9116 38.6775H69.3027C69.3793 38.6775 69.4415 38.7396 69.4415 38.8162V43.9968C69.4415 44.0734 69.3793 44.1355 69.3027 44.1355H67.9116C67.835 44.1355 67.7729 44.0734 67.7729 43.9968V38.8162C67.7729 38.7396 67.835 38.6775 67.9116 38.6775ZM68.6107 38.1744C68.0731 38.1744 67.6373 37.734 67.6373 37.1908C67.6373 36.6475 68.0731 36.2071 68.6107 36.2071C69.1483 36.2071 69.5841 36.6475 69.5841 37.1908C69.5841 37.734 69.1483 38.1744 68.6107 38.1744ZM73.3747 40.2835C73.13 39.9765 72.8074 39.823 72.407 39.823C72.2661 39.823 72.1289 39.8567 71.9954 39.9241C71.8619 39.9915 71.7951 40.1075 71.7951 40.2722C71.7951 40.407 71.8637 40.5062 72.0009 40.5698C72.1381 40.6335 72.3124 40.6896 72.5238 40.7383C72.7351 40.787 72.9613 40.8394 73.2023 40.8955C73.4433 40.9517 73.6695 41.0396 73.8809 41.1594C74.0922 41.2792 74.2665 41.4421 74.4037 41.648C74.5409 41.8539 74.6095 42.129 74.6095 42.4734C74.6095 42.8253 74.5335 43.1154 74.3815 43.3438C74.2294 43.5721 74.0348 43.7556 73.7975 43.8941C73.5601 44.0326 73.2932 44.1299 72.9965 44.1861C72.6999 44.2422 72.407 44.2703 72.1177 44.2703C71.7395 44.2703 71.3576 44.216 70.972 44.1074C70.5863 43.9989 70.26 43.8061 69.993 43.5291L71.0053 42.3948C71.1611 42.5895 71.3335 42.7373 71.5226 42.8384C71.7117 42.9395 71.9323 42.99 72.1845 42.99C72.3773 42.99 72.5516 42.9619 72.7073 42.9058C72.863 42.8496 72.9409 42.7467 72.9409 42.5969C72.9409 42.4547 72.8723 42.348 72.7351 42.2769C72.5979 42.2057 72.4236 42.1458 72.2123 42.0972C72.0009 42.0485 71.7747 41.9961 71.5337 41.94C71.2927 41.8838 71.0665 41.7996 70.8552 41.6873C70.6438 41.575 70.4695 41.4159 70.3323 41.21C70.1951 41.0041 70.1265 40.7289 70.1265 40.3845C70.1265 40.0626 70.1914 39.7856 70.3212 39.5535C70.451 39.3214 70.6216 39.1305 70.8329 38.9807C71.0443 38.831 71.2871 38.7205 71.5615 38.6494C71.8359 38.5783 72.114 38.5427 72.3958 38.5427C72.7518 38.5427 73.1115 38.5951 73.4749 38.7C73.8382 38.8048 74.146 38.9919 74.3982 39.2615L73.3747 40.2835ZM78.6822 40.0252H77.3526V41.8445C77.3526 41.9942 77.36 42.1309 77.3748 42.2544C77.3896 42.3779 77.423 42.4846 77.4749 42.5745C77.5268 42.6643 77.6066 42.7336 77.7141 42.7822C77.8216 42.8309 77.9644 42.8552 78.1424 42.8552C78.2314 42.8552 78.3482 42.8459 78.4928 42.8272C78.5368 42.8215 78.5836 42.8094 78.6331 42.7909L78.6329 42.7904C78.705 42.7634 78.7852 42.8001 78.8121 42.8722C78.818 42.8878 78.8209 42.9043 78.8209 42.9209L78.821 43.9975C78.821 44.0597 78.7797 44.1142 78.7199 44.1311C78.5167 44.1885 78.3576 44.2237 78.2425 44.2366C78.0423 44.2591 77.8457 44.2703 77.6529 44.2703C77.3711 44.2703 77.1115 44.2403 76.8742 44.1804C76.6369 44.1205 76.4293 44.0251 76.2513 43.8941C76.0733 43.763 75.9343 43.5927 75.8341 43.3831C75.734 43.1734 75.684 42.9189 75.684 42.6194V40.0252H74.7548C74.6782 40.0252 74.6161 39.963 74.6161 39.8864V38.8162C74.6161 38.7396 74.6782 38.6775 74.7548 38.6775H75.684V37.199C75.684 37.1224 75.7461 37.0603 75.8227 37.0603H77.2138C77.2904 37.0603 77.3526 37.1224 77.3526 37.199V38.6775H78.6822C78.7588 38.6775 78.8209 38.7396 78.8209 38.8162V39.8864C78.8209 39.963 78.7588 40.0252 78.6822 40.0252ZM83.0435 40.7888C83.0509 40.5043 82.9582 40.261 82.7654 40.0588C82.5726 39.8567 82.3241 39.7556 82.0201 39.7556C81.8347 39.7556 81.6715 39.7856 81.5306 39.8455C81.3897 39.9054 81.2692 39.9821 81.1691 40.0757C81.069 40.1693 80.9911 40.2778 80.9355 40.4014C80.8799 40.5249 80.8483 40.6541 80.8409 40.7888H83.0435ZM85.5359 38.6775H86.9271C87.0037 38.6775 87.0658 38.7396 87.0658 38.8162V39.5535H87.088C87.266 39.2166 87.4774 38.9639 87.7221 38.7954C87.9668 38.627 88.2746 38.5427 88.6454 38.5427C88.7418 38.5427 88.8382 38.5465 88.9346 38.554C88.9757 38.5571 89.0268 38.5644 89.088 38.5757V38.5756C89.1538 38.5878 89.2016 38.6452 89.2016 38.7122L89.2018 39.9569C89.2018 40.0336 89.1396 40.0958 89.0629 40.0958C89.0515 40.0958 89.0403 40.0945 89.0293 40.0917C88.9559 40.0734 88.8965 40.0606 88.8512 40.0532C88.7363 40.0345 88.6157 40.0252 88.4897 40.0252C88.1708 40.0252 87.9186 40.0701 87.7332 40.1599C87.5478 40.2498 87.4051 40.3752 87.305 40.5361C87.2048 40.6971 87.14 40.8899 87.1103 41.1145C87.0806 41.3391 87.0658 41.5862 87.0658 41.8557V43.9968C87.0658 44.0734 87.0037 44.1355 86.9271 44.1355H85.5359C85.4593 44.1355 85.3972 44.0734 85.3972 43.9968V38.8162C85.3972 38.7396 85.4593 38.6775 85.5359 38.6775Z" fill="#141414"/>
<path fill-rule="evenodd" clip-rule="evenodd" d="M26.9197 2.16537C42.4372 6.3303 45.1962 13.8236 41.5328 27.5187C37.8694 41.2138 31.7397 46.3214 16.2222 42.1565C0.704773 37.9915 -2.0542 30.4982 1.60919 16.8031C5.27258 3.10807 11.4023 -1.99955 26.9197 2.16537Z" fill="#141414"/>
<path fill-rule="evenodd" clip-rule="evenodd" d="M10.8878 22.3891C8.91875 18.2663 8.82933 14.223 11.2348 11.8175C13.6403 9.412 17.6836 9.50141 21.8064 11.4705C25.9293 9.50141 29.9726 9.412 32.3781 11.8175C34.7836 14.223 34.6942 18.2663 32.7251 22.3891C34.6942 26.512 34.7836 30.5553 32.3781 32.9608C29.9726 35.3663 25.9293 35.2768 21.8064 33.3078C17.6836 35.2768 13.6403 35.3663 11.2348 32.9608C8.82933 30.5553 8.91875 26.512 10.8878 22.3891ZM12.8202 19.148C13.5864 18.0818 14.4712 17.0384 15.4635 16.0461C16.4557 15.0539 17.4991 14.1691 18.5653 13.4029C16.3265 12.7243 14.4082 12.8727 13.3491 13.9318C12.2901 14.9909 12.1416 16.9092 12.8202 19.148ZM30.7927 25.6302C30.0265 26.6964 29.1417 27.7398 28.1494 28.7321C27.1571 29.7244 26.1138 30.6092 25.0476 31.3753C27.2864 32.054 29.2047 31.9055 30.2637 30.8464C31.3228 29.7873 31.4713 27.8691 30.7927 25.6302ZM12.8202 25.6302C12.1416 27.8691 12.2901 29.7873 13.3491 30.8464C14.4082 31.9055 16.3265 32.054 18.5653 31.3753C17.4991 30.6092 16.4557 29.7244 15.4635 28.7321C14.4712 27.7398 13.5864 26.6964 12.8202 25.6302ZM14.274 22.3891C15.109 23.81 16.2159 25.2559 17.5778 26.6178C18.9397 27.9797 20.3856 29.0866 21.8064 29.9216C23.2273 29.0866 24.6732 27.9797 26.0351 26.6178C27.397 25.2559 28.5039 23.81 29.3389 22.3891C28.5039 20.9683 27.397 19.5224 26.0351 18.1605C24.6732 16.7985 23.2273 15.6916 21.8064 14.8567C20.3856 15.6916 18.9397 16.7985 17.5778 18.1605C16.2159 19.5224 15.109 20.9683 14.274 22.3891ZM25.0476 13.4029C26.1138 14.1691 27.1571 15.0539 28.1494 16.0461C29.1417 17.0384 30.0265 18.0818 30.7927 19.148C31.4713 16.9092 31.3228 14.9909 30.2637 13.9318C29.2047 12.8727 27.2864 12.7243 25.0476 13.4029Z" fill="white"/>
</svg>
