<svg width="208" height="33" viewBox="0 0 208 33" fill="none" xmlns="http://www.w3.org/2000/svg">
<g clip-path="url(#clip0)">
<path d="M207.548 27.9751L206.077 32.549H205.625L204.146 27.9751V32.549H203.75V27.5805H204.47L205.867 31.937L207.265 27.5805H207.968V32.549H207.572V27.9751H207.548Z" fill="#141414"/>
<path d="M203.274 27.5805H201.222H200.826H198.782V27.9751H200.826V32.549H201.222V27.9751H203.274V27.5805Z" fill="#141414"/>
<path d="M155.84 32.4766H152.916L143.301 3.10029V32.4766H140.74V0.547585H145.337L154.289 28.4985H154.386L163.37 0.547585H167.862V32.4766H165.325V3.10029L155.84 32.4766Z" fill="#141414"/>
<path d="M37.7222 0.539536V32.4766H40.5014V18.0381H44.3471C45.3646 18.0188 46.3772 18.1824 47.3365 18.5212C50.1723 19.5922 50.4954 22.8697 51.0044 24.9634L52.6203 32.5168H55.4157L53.5979 23.9004C53.0646 21.3075 52.7092 20.1962 51.982 19.0688C51.0206 17.5791 48.2737 16.7738 48.2737 16.7738C52.7819 15.896 54.737 12.8843 54.737 8.77746C54.737 5.00879 52.9031 0.603957 44.4845 0.603957H37.7222V0.539536ZM40.5014 3.08419H44.1694C51.4973 3.08419 51.9255 6.9656 51.9255 8.72109C51.9255 10.1786 51.6589 15.4934 43.0383 15.4934H40.5014V3.09224V3.08419Z" fill="#141414"/>
<path d="M58.7197 15.7269H61.5636C61.8222 14.4385 62.3716 12.1515 66.1607 12.1515C71.1214 12.1515 70.9598 16.4356 70.9598 18.0944V20.0271C70.9598 20.0271 69.3439 20.0271 68.3421 20.1237C64.553 20.4136 58.3643 21.3961 58.3643 27.0893C58.3643 32.7826 63.0987 32.9758 64.0197 32.9758C65.3804 32.9983 66.725 32.6799 67.9301 32.0498C69.1205 31.4062 70.1354 30.483 70.8871 29.3602H70.984V32.4766H73.2866V17.4341C73.2866 15.1874 73.4967 9.9451 66.3789 9.9451C59.2611 9.9451 58.7197 14.6801 58.7197 15.7269ZM70.9517 22.2335C70.9507 23.0843 70.8968 23.9341 70.7901 24.7782C70.558 26.2897 69.7894 27.668 68.624 28.6625C67.4587 29.6571 65.974 30.2018 64.4398 30.1977C64.0231 30.237 63.6027 30.189 63.2058 30.0565C62.8088 29.9241 62.4441 29.7103 62.1351 29.4289C61.8261 29.1474 61.5796 28.8046 61.4116 28.4224C61.2436 28.0403 61.1578 27.6273 61.1597 27.2101C61.1597 26.0425 61.6121 23.3126 66.1123 22.451C67.0575 22.2738 70.9517 22.2335 70.9517 22.2335Z" fill="#141414"/>
<path d="M77.1004 0.539536V23.4575C77.1004 24.6977 77.1408 32.9839 84.7999 32.9839C86.6419 32.9839 93.3639 32.3397 93.3639 21.7101C93.3639 11.0805 87.466 9.9612 85.6886 9.9612C84.2899 9.95461 82.9279 10.4067 81.8125 11.2478C80.697 12.0889 79.8901 13.2723 79.5161 14.6157H79.4353V0.539536H77.0923H77.1004ZM90.5685 21.6457C90.5685 30.56 85.5755 30.7452 84.7999 30.7452C84.0243 30.7452 79.5241 30.7452 79.5241 22.0081C79.5241 14.7606 83.0224 12.1435 85.4301 12.1435C87.8377 12.1435 90.5685 14.6157 90.5685 21.6537V21.6457Z" fill="#141414"/>
<path d="M96.9671 0.539536V23.4575C96.9671 24.6977 97.0075 32.9839 104.667 32.9839C106.509 32.9839 113.231 32.3397 113.231 21.7101C113.231 11.0805 107.333 9.9612 105.555 9.9612C104.157 9.95461 102.795 10.4067 101.679 11.2478C100.564 12.0889 99.7568 13.2723 99.3828 14.6157H99.2859V0.539536H96.9429H96.9671ZM110.435 21.6457C110.435 30.56 105.442 30.7452 104.667 30.7452C103.891 30.7452 99.3909 30.7452 99.3909 22.0081C99.3909 14.7606 102.889 12.1435 105.297 12.1435C107.704 12.1435 110.427 14.6157 110.427 21.6537L110.435 21.6457Z" fill="#141414"/>
<path d="M119.484 10.4444V32.4766H117.165V10.4444H119.484Z" fill="#141414"/>
<path d="M120.017 0.547585V4.29209H116.591V0.547585H120.017Z" fill="#141414"/>
<path d="M135.642 32.7826C134.86 32.8904 134.072 32.9576 133.283 32.9839C131.713 33.0787 130.159 32.6323 128.88 31.7196C127.91 30.9144 127.434 29.4971 127.434 27.5564V12.6508H123.895V10.4444H127.434V5.35505L129.736 3.81699V10.4363H135.642V12.6428H129.744V26.8155C129.744 27.4517 129.591 30.7372 133.089 30.7372C133.955 30.7283 134.815 30.5954 135.642 30.3426V32.7584V32.7826Z" fill="#141414"/>
<path d="M30.9516 13.1984H20.6344C20.4643 13.1995 20.2958 13.1669 20.1384 13.1025C19.9811 13.0381 19.8382 12.9433 19.7179 12.8234C19.5977 12.7035 19.5025 12.5611 19.4379 12.4043C19.3734 12.2475 19.3406 12.0795 19.3417 11.91V1.62665C19.3417 1.45783 19.3082 1.29067 19.2432 1.1348C19.1781 0.978929 19.0828 0.837422 18.9626 0.718422C18.8425 0.599422 18.6999 0.505278 18.5431 0.441409C18.3863 0.377539 18.2184 0.345205 18.049 0.346266H14.1872C14.0178 0.345205 13.8499 0.377539 13.6931 0.441409C13.5363 0.505278 13.3937 0.599422 13.2736 0.718422C13.1535 0.837422 13.0581 0.978929 12.993 1.1348C12.928 1.29067 12.8945 1.45783 12.8945 1.62665V11.91C12.8956 12.0795 12.8629 12.2475 12.7983 12.4043C12.7337 12.5611 12.6385 12.7035 12.5183 12.8234C12.398 12.9433 12.2551 13.0381 12.0978 13.1025C11.9404 13.1669 11.7719 13.1995 11.6018 13.1984H7.73994C7.56988 13.1995 7.4013 13.1669 7.24398 13.1025C7.08666 13.0381 6.94373 12.9433 6.82348 12.8234C6.70323 12.7035 6.60805 12.5611 6.54347 12.4043C6.47889 12.2475 6.44619 12.0795 6.44726 11.91V1.62665C6.44833 1.45715 6.41563 1.28913 6.35104 1.13232C6.28646 0.97552 6.19128 0.833059 6.07103 0.713203C5.95078 0.593347 5.80785 0.498483 5.65053 0.434112C5.49321 0.36974 5.32464 0.337144 5.15458 0.338214H1.28462C1.11525 0.33821 0.94754 0.371593 0.791157 0.436441C0.634773 0.50129 0.4928 0.596322 0.373407 0.716071C0.254015 0.83582 0.159561 0.97792 0.0954812 1.13419C0.0314012 1.29047 -0.0010397 1.45783 2.557e-05 1.62665V31.1962C-0.00104737 31.3657 0.0316562 31.5337 0.0962394 31.6905C0.160823 31.8473 0.256 31.9898 0.37625 32.1096C0.496501 32.2295 0.639431 32.3244 0.796751 32.3887C0.95407 32.4531 1.12265 32.4857 1.2927 32.4846H30.9516C31.1216 32.4857 31.2902 32.4531 31.4475 32.3887C31.6049 32.3244 31.7478 32.2295 31.868 32.1096C31.9883 31.9898 32.0835 31.8473 32.1481 31.6905C32.2126 31.5337 32.2453 31.3657 32.2443 31.1962V14.511C32.2486 14.3395 32.2183 14.1688 32.1552 14.0092C32.0921 13.8496 31.9974 13.7043 31.8768 13.5818C31.7562 13.4594 31.6122 13.3624 31.4533 13.2965C31.2943 13.2306 31.1237 13.1973 30.9516 13.1984ZM25.7647 24.1179C25.7658 24.3713 25.7166 24.6224 25.6201 24.8568C25.5235 25.0913 25.3814 25.3044 25.202 25.484C25.0226 25.6635 24.8094 25.806 24.5746 25.9032C24.3398 26.0005 24.088 26.0505 23.8338 26.0505H21.2484C20.9942 26.0505 20.7424 26.0005 20.5076 25.9032C20.2728 25.806 20.0596 25.6635 19.8802 25.484C19.7008 25.3044 19.5587 25.0913 19.4621 24.8568C19.3656 24.6224 19.3164 24.3713 19.3175 24.1179V21.549C19.3164 21.2956 19.3656 21.0445 19.4621 20.8101C19.5587 20.5756 19.7008 20.3625 19.8802 20.1829C20.0596 20.0034 20.2728 19.8609 20.5076 19.7637C20.7424 19.6664 20.9942 19.6164 21.2484 19.6164H23.8338C24.088 19.6164 24.3398 19.6664 24.5746 19.7637C24.8094 19.8609 25.0226 20.0034 25.202 20.1829C25.3814 20.3625 25.5235 20.5756 25.6201 20.8101C25.7166 21.0445 25.7658 21.2956 25.7647 21.549V24.1179Z" fill="#141414"/>
<path d="M189.175 30.3104C192.14 27.7818 193.724 23.063 193.724 16.2584C193.724 6.34554 189.967 -0.00804901 182.954 -0.00804901C176.378 -0.00804901 171.797 5.31479 171.797 16.2584C171.797 27.2021 175.691 32.4927 182.76 32.4927H183.059H195.986V29.8111L189.175 30.3104ZM174.843 16.2665C174.843 7.16691 177.452 2.74598 182.922 2.74598C188.392 2.74598 190.646 8.02855 190.646 16.2665C190.646 24.5044 188.658 29.8111 182.785 29.8111C176.911 29.8111 174.843 25.366 174.843 16.2665Z" fill="#141414"/>
</g>
<defs>
<clipPath id="clip0">
<rect width="208" height="33" fill="white"/>
</clipPath>
</defs>
</svg>
