<svg width="313" height="65" viewBox="0 0 313 65" fill="none" xmlns="http://www.w3.org/2000/svg">
<g clip-path="url(#clip0)">
<path d="M0 40.3912H13.7259L14.7063 28.6254L1.96019 25.6848L0 40.3912ZM2.45106 23.7233L14.7063 26.6646L17.6476 16.3702L7.35317 10.9785L2.45106 23.7233ZM8.33294 9.01699L18.1372 14.4093L25.9812 9.01699L18.628 0.683395L8.33294 9.01699ZM63.2366 40.3912H49.5114L48.5303 28.6254L61.2764 25.6848L63.2366 40.3912ZM60.7856 23.7233L48.5303 26.6646L45.5897 16.3702L55.8834 10.9785L60.7856 23.7233ZM54.903 9.01699L45.0988 14.4093L37.2561 9.01699L44.6092 0.683395L54.903 9.01699ZM21.0791 -0.78724L28.4323 8.03657H35.2946L41.668 -0.78724L35.2946 -2.74809H28.2597L21.0791 -0.78724Z" fill="#141414"/>
<path d="M0 40.3912H13.7259L14.7063 28.6254L1.96019 25.6848L0 40.3912Z" fill="#141414"/>
<path d="M2.45166 23.7233L14.7069 26.6646L17.6482 16.3702L7.35377 10.9785L2.45166 23.7233Z" fill="#141414"/>
<path d="M8.33252 9.01699L18.1367 14.4093L25.9808 9.01699L18.6276 0.683395L8.33252 9.01699Z" fill="#141414"/>
<path d="M63.2366 40.3912H49.5113L48.5303 28.6254L61.2764 25.6848L63.2366 40.3912Z" fill="#141414"/>
<path d="M60.7857 23.7233L48.5305 26.6646L45.5898 16.3702L55.8836 10.9785L60.7857 23.7233Z" fill="#141414"/>
<path d="M54.9028 9.01699L45.0986 14.4093L37.2559 9.01699L44.609 0.683395L54.9028 9.01699Z" fill="#141414"/>
<path d="M21.0796 -0.78724L28.4328 8.03657H35.2951L41.6685 -0.78724L35.2951 -2.74809H28.2602L21.0796 -0.78724Z" fill="#141414"/>
<path d="M79.9858 9.48697V40.3703H85.3167V29.3405L95.3661 40.3703H100.166V38.2049L91.4038 29.0961C93.6869 28.8072 95.4889 27.7 96.8164 25.7868C98.1439 23.8744 98.8302 21.7128 98.859 19.2919C98.9021 16.4813 97.9949 14.1571 96.1628 12.3263C94.3307 10.4962 91.3156 9.55299 87.0939 9.48763L79.9858 9.48697ZM104.64 9.48697V40.3703H121.797V35.508H109.97V26.6842H118.651V21.8847H109.97V14.2459H121.307V9.48697H104.64ZM126.944 9.48697V40.3703H135.768C138.662 40.3219 140.995 39.5618 142.753 38.0826C144.511 36.6035 145.784 34.6923 146.573 32.3635C147.361 30.0347 147.73 27.5666 147.717 24.9692C147.739 22.4018 147.415 19.9625 146.716 17.616C146.017 15.2695 144.826 13.3433 143.141 11.8361C141.457 10.3282 139.132 9.53861 136.197 9.48697H126.944ZM85.3161 14.1022H87.0932C89.3083 14.1178 90.9058 14.5669 91.9137 15.4708C92.9215 16.3748 93.4202 17.6408 93.4046 19.2494C93.4013 20.918 92.9686 22.3318 92.0771 23.4979C91.1855 24.6646 89.858 25.2646 88.1142 25.3162C87.441 25.2894 86.8115 25.1953 86.2351 25.009C85.6599 24.8234 85.3527 24.709 85.3161 24.6822V14.1022ZM132.233 14.1022H136.012C137.88 14.159 139.269 14.7924 140.179 16.0022C141.088 17.2114 141.678 18.6494 141.956 20.3324C142.234 22.0155 142.351 23.5926 142.324 25.0711C142.345 26.6613 142.202 28.2494 141.895 29.8098C141.578 31.4432 140.944 32.8328 139.996 33.976C139.046 35.1198 137.639 35.7028 135.767 35.7538H132.234L132.233 14.1022Z" fill="#141414"/>
<path d="M154.049 9.48697V40.3703H159.4V23.356L158.992 19.7808L166.161 40.3696H170.573L177.722 19.7808L177.334 23.356V40.3696H182.685V9.48631H176.394L169.041 30.4229C168.833 31.0453 168.663 31.6796 168.531 32.3223C168.422 32.8563 168.365 33.1341 168.367 33.1603C168.369 33.1374 168.312 32.8681 168.204 32.3432C168.095 31.8177 167.916 31.1805 167.672 30.4229L160.319 9.48697H154.049ZM189.732 9.48697V40.3703H195.022V9.48697H189.732ZM201.844 9.48697V40.3703H207.196V22.8246C207.186 21.8823 207.125 20.9412 207.012 20.0056C206.912 19.2056 206.863 18.801 206.849 18.7598L216.592 40.3703H221.739V9.48697H216.408C216.408 16.1728 216.408 22.8586 216.408 29.5445C216.397 29.4693 216.246 28.9418 215.979 27.9719C215.708 26.9845 215.373 26.0156 214.978 25.0711L208.115 9.48697H201.844ZM228.908 9.48697V40.3703H246.066V35.508H234.239V26.6842H242.92V21.8847H234.239V14.2459H245.576V9.48697H228.908Z" fill="#141414"/>
<path d="M85.2971 48.9287C85.2501 48.9104 84.9265 48.9548 84.3167 49.0712C83.7069 49.1882 83.0879 49.4829 82.4781 49.9496C81.8689 50.4156 81.5447 51.1653 81.4977 52.1967V53.3406H80.1904V54.872L81.4977 55.0968V63.3487H83.6428V55.1374H85.5017V53.3399H83.6428V52.2994C83.6677 51.7431 83.8494 51.334 84.1736 51.0738C84.4984 50.813 84.8089 50.6555 85.1337 50.5836C85.4586 50.5117 85.6396 50.4725 85.6651 50.4817L85.2971 48.9287ZM87.0129 49.1529V59.1623C87.0233 60.3284 87.0867 61.2461 87.2175 61.9199C87.3482 62.5932 87.4822 63.0716 87.605 63.3494H89.811C89.5855 62.6082 89.4188 61.931 89.3005 61.3068C89.1822 60.6833 89.1175 59.965 89.1169 59.1623V49.1529H87.0129ZM115.302 49.1529V62.3271C115.82 62.7247 116.39 63.0481 116.997 63.2879C117.609 63.5291 118.239 63.6481 118.897 63.6553C119.979 63.6324 120.843 63.3311 121.471 62.7363C122.098 62.1409 122.534 61.3859 122.798 60.4892C123.063 59.5924 123.194 58.68 123.187 57.7518C123.191 56.5727 122.893 55.5001 122.288 54.5452C121.682 53.5909 120.741 53.0902 119.469 53.034C119.118 53.0451 118.745 53.1523 118.366 53.3608C118.021 53.545 117.71 53.7869 117.447 54.0759V49.1529H115.302ZM125.249 49.1529V59.1623C125.26 60.3284 125.323 61.2461 125.454 61.9199C125.585 62.5932 125.719 63.0716 125.842 63.3494H128.047C127.822 62.6082 127.655 61.931 127.537 61.3068C127.419 60.6833 127.354 59.965 127.353 59.1623V49.1529H125.249ZM111.34 49.4594C110.966 49.462 110.608 49.6082 110.339 49.8679C110.201 49.9958 110.089 50.1504 110.012 50.3223C109.935 50.4943 109.893 50.6801 109.889 50.8686C109.901 51.2542 110.036 51.5686 110.298 51.8085C110.559 52.0477 110.88 52.1686 111.258 52.1758C111.632 52.1733 111.99 52.027 112.259 51.7673C112.54 51.502 112.695 51.1647 112.708 50.7666C112.697 50.381 112.561 50.0666 112.3 49.8267C112.038 49.5875 111.718 49.4673 111.339 49.4594H111.34ZM174.067 49.4594C173.693 49.4621 173.334 49.6083 173.065 49.8679C172.784 50.1333 172.629 50.4705 172.616 50.8686C172.627 51.2542 172.763 51.5686 173.025 51.8085C173.286 52.0477 173.606 52.1686 173.985 52.1758C174.358 52.1732 174.716 52.0269 174.985 51.7673C175.267 51.502 175.422 51.1647 175.435 50.7666C175.423 50.381 175.288 50.0666 175.026 49.8267C174.765 49.5875 174.444 49.4673 174.066 49.4594H174.067ZM196.208 51.5431V53.3406H194.839V54.872L196.126 55.0968V61.1428C196.118 61.8369 196.28 62.4193 196.595 62.8997C196.912 63.3795 197.431 63.6344 198.168 63.6553C198.643 63.6566 199.027 63.6102 199.312 63.5121C199.597 63.4141 199.941 63.2553 200.354 63.0422L199.843 61.531C199.513 61.6965 199.15 61.7871 198.781 61.7964C198.546 61.7872 198.409 61.7193 198.352 61.5715C198.291 61.4157 198.263 61.2487 198.271 61.0813V55.1583H200.048V53.3406H198.229V51.5431H196.208ZM308.854 51.5431V53.3406H307.485V54.872L308.773 55.0968V61.1428C308.764 61.8369 308.926 62.4193 309.242 62.8997C309.558 63.3795 310.077 63.6344 310.815 63.6553C311.288 63.6566 311.673 63.6102 311.958 63.5121C312.243 63.4141 312.587 63.2553 313 63.0422L312.49 61.531C312.16 61.6965 311.797 61.7871 311.428 61.7964C311.192 61.7872 311.055 61.7193 310.999 61.5715C310.938 61.4157 310.91 61.2487 310.917 61.0813V55.1583H312.694V53.3406H310.876V51.5431H308.854ZM95.8367 53.0334C94.4484 53.087 93.3673 53.6242 92.6091 54.6269C91.8516 55.6295 91.4751 56.7806 91.4653 58.0995C91.4588 58.9656 91.5829 59.8284 91.8333 60.6728C92.0836 61.518 92.4928 62.2134 93.0791 62.7768C93.666 63.3402 94.468 63.6331 95.4687 63.6553C96.0609 63.637 96.6825 63.4736 97.3276 63.1651C97.9733 62.8559 98.523 62.5088 98.9819 62.1232L98.2675 60.7343C97.8758 61.0342 97.4508 61.2877 97.0008 61.4898C96.5119 61.7121 96.0347 61.8245 95.5916 61.8369C94.8661 61.7735 94.3562 61.3859 94.0595 60.6526C93.7634 59.9199 93.6203 59.2251 93.6307 58.5898C93.6273 58.4667 93.6341 58.3437 93.651 58.2218H99.493C99.4923 57.9976 99.4989 57.7727 99.493 57.5479C99.4865 57.3231 99.4734 57.0982 99.4727 56.874C99.4178 55.8831 99.0466 55.0027 98.3694 54.2393C97.6923 53.4746 96.8511 53.0752 95.8367 53.034V53.0334ZM134.073 53.0334C132.685 53.087 131.604 53.6242 130.846 54.6269C130.088 55.6295 129.712 56.7806 129.702 58.0995C129.695 58.9656 129.819 59.8284 130.07 60.6728C130.32 61.518 130.729 62.2134 131.316 62.7768C131.903 63.3402 132.704 63.6331 133.705 63.6553C134.297 63.637 134.919 63.4736 135.564 63.1651C136.21 62.8559 136.76 62.5088 137.218 62.1232L136.504 60.7343C136.112 61.0342 135.687 61.2877 135.237 61.4898C134.748 61.7121 134.271 61.8245 133.828 61.8369C133.103 61.7735 132.593 61.3859 132.296 60.6526C132 59.9199 131.857 59.2251 131.867 58.5898C131.864 58.4667 131.871 58.3437 131.887 58.2218H137.729C137.729 57.9976 137.735 57.7727 137.729 57.5479C137.723 57.3231 137.71 57.0982 137.709 56.874C137.654 55.8831 137.283 55.0027 136.606 54.2393C135.929 53.4746 135.088 53.0752 134.073 53.034V53.0334ZM150.516 53.0334C149.937 53.0621 149.452 53.2046 149.065 53.4628C148.679 53.721 148.429 53.9249 148.31 54.0759V53.3399H146.145V66.9234H148.31V62.6337C148.509 62.9821 148.818 63.2551 149.188 63.4102C149.566 63.5736 149.965 63.6572 150.393 63.6553C151.418 63.6291 152.204 63.3219 152.763 62.7154C153.321 62.1088 153.713 61.348 153.927 60.4689C154.137 59.6272 154.24 58.7624 154.233 57.895C154.246 56.7429 153.934 55.6106 153.335 54.6269C152.729 53.6269 151.787 53.0974 150.516 53.034V53.0334ZM160.32 53.0334C159.969 53.0772 159.629 53.2608 159.299 53.5648C158.969 53.8687 158.792 54.0321 158.767 54.0752V53.3406H156.603V63.3487H158.747V55.8936C158.767 55.8557 158.921 55.706 159.197 55.4439C159.472 55.1825 159.748 55.0321 160.033 54.9949C160.296 55.0099 160.548 55.0713 160.79 55.1785C161.032 55.2857 161.161 55.3472 161.178 55.3622L161.525 53.3399C161.523 53.3275 161.424 53.287 161.218 53.1974C161.013 53.1079 160.71 53.0471 160.32 53.034V53.0334ZM166.611 53.0334C165.234 53.0994 164.201 53.6674 163.526 54.7498C162.852 55.8315 162.524 57.0328 162.526 58.3447C162.524 59.665 162.852 60.8611 163.526 61.9395C164.201 63.0173 165.234 63.5906 166.611 63.6553C167.987 63.5906 169.021 63.0173 169.695 61.9395C170.37 60.8611 170.698 59.665 170.696 58.3447C170.698 57.0328 170.369 55.8315 169.695 54.7498C169.021 53.668 167.987 53.0994 166.611 53.034V53.0334ZM181.705 53.0334C180.317 53.087 179.236 53.6242 178.478 54.6269C177.72 55.6295 177.344 56.7806 177.334 58.0995C177.327 58.9656 177.452 59.8284 177.702 60.6728C177.952 61.518 178.361 62.2134 178.948 62.7768C179.535 63.3402 180.337 63.6331 181.337 63.6553C181.93 63.637 182.551 63.4736 183.196 63.1651C183.842 62.8559 184.392 62.5088 184.851 62.1232L184.136 60.7343C183.745 61.0342 183.319 61.2877 182.869 61.4898C182.381 61.7121 181.903 61.8245 181.46 61.8369C180.735 61.7735 180.225 61.3859 179.928 60.6526C179.632 59.9199 179.489 59.2251 179.499 58.5898C179.496 58.4667 179.503 58.3437 179.52 58.2218H185.362C185.361 57.9976 185.368 57.7727 185.362 57.5479C185.355 57.3231 185.342 57.0982 185.341 56.874C185.287 55.8831 184.915 55.0027 184.238 54.2393C183.561 53.4746 182.72 53.0752 181.705 53.034V53.0334ZM191.061 53.0334C190.109 53.0549 189.321 53.3432 188.711 53.8916C188.102 54.4406 187.655 55.1315 187.363 55.9544C187.072 56.7779 186.932 57.6015 186.934 58.4466C186.934 59.2636 187.086 60.065 187.384 60.8572C187.681 61.648 188.13 62.3121 188.732 62.8376C189.333 63.3644 190.087 63.635 190.999 63.6546C191.565 63.6455 192.133 63.5043 192.715 63.2468C193.297 62.9892 193.803 62.6742 194.226 62.2866L193.491 60.816C193.15 61.0882 192.781 61.3213 192.388 61.5108C191.955 61.7199 191.533 61.8245 191.142 61.8376C190.621 61.8154 190.218 61.6042 189.917 61.184C189.603 60.7421 189.381 60.2421 189.263 59.7133C189.136 59.1578 189.076 58.6662 189.079 58.2427C189.077 57.8401 189.147 57.3799 189.283 56.8531C189.41 56.3525 189.632 55.8811 189.937 55.4648C190.231 55.0655 190.606 54.8524 191.081 54.8308C191.396 54.8347 191.728 54.9092 192.061 55.0354C192.395 55.1615 192.676 55.3184 192.919 55.5256L194.001 54.2596C193.655 53.851 193.201 53.5445 192.653 53.3406C192.106 53.136 191.58 53.0334 191.06 53.0334H191.061ZM213.079 53.0334C212.641 53.0549 212.177 53.1889 211.67 53.4216C211.162 53.655 210.79 53.8608 210.566 54.0556V53.3406H208.422V63.3487H210.566V55.9956C210.768 55.8243 211.105 55.6099 211.588 55.3419C212.07 55.074 212.53 54.9204 212.957 54.8923C213.297 54.8988 213.525 55.0289 213.651 55.2602C213.777 55.4916 213.842 55.7844 213.834 56.159V63.3487H215.979V55.8119C216.21 55.6302 216.507 55.4465 216.878 55.24C217.253 55.0288 217.673 54.9098 218.103 54.8929C218.444 54.887 218.672 54.9694 218.798 55.1171C218.924 55.2655 218.989 55.5106 218.982 55.8727V63.3487H221.126V55.8727C221.147 55.0668 220.955 54.4047 220.534 53.8713C220.113 53.338 219.339 53.0543 218.226 53.034C217.711 53.0589 217.204 53.2105 216.694 53.4831C216.184 53.7563 215.759 53.9994 215.428 54.2184C215.214 53.9282 214.919 53.6641 214.529 53.4216C214.139 53.1798 213.65 53.0491 213.079 53.034V53.0334ZM227.397 53.0334C226.739 53.0464 226.087 53.2308 225.456 53.5648C224.826 53.8994 224.307 54.3079 223.884 54.8106L224.619 56.0982C224.948 55.7786 225.355 55.5034 225.824 55.2602C226.294 55.0178 226.752 54.8851 227.213 54.872C227.566 54.8655 227.856 54.9302 228.072 55.0766C228.287 55.223 228.392 55.4916 228.398 55.8733V56.8734L224.006 58.7734C223.856 59.0597 223.723 59.3865 223.598 59.7538C223.473 60.1218 223.401 60.4689 223.394 60.7957C223.394 61.6918 223.616 62.3984 224.067 62.8997C224.519 63.4004 225.202 63.6468 226.11 63.6553C226.687 63.6527 227.175 63.52 227.581 63.267C227.986 63.0141 228.342 62.6566 228.643 62.1846C228.732 62.6383 228.937 62.9919 229.256 63.2468C229.575 63.5017 229.963 63.6304 230.42 63.635C230.676 63.6311 230.931 63.5897 231.176 63.5121C231.42 63.4406 231.653 63.3376 231.87 63.2056L231.319 62.1232C231.259 62.1536 231.198 62.1809 231.135 62.2049C231.077 62.2294 231.015 62.2434 230.951 62.2461C230.801 62.2395 230.7 62.1912 230.645 62.0827C230.588 61.9686 230.56 61.8422 230.563 61.7147V55.8936C230.546 54.9164 230.243 54.1942 229.664 53.7282C229.086 53.2621 228.334 53.0308 227.397 53.034V53.0334ZM238.55 53.0334C238.093 53.0438 237.606 53.1563 237.099 53.3602C236.592 53.5648 236.167 53.8001 235.812 54.0752V53.3406H233.668V63.3487H235.812V55.9544C236.074 55.7406 236.449 55.5178 236.916 55.2812C237.382 55.0439 237.838 54.9125 238.305 54.8929C238.633 54.8877 238.852 54.9733 238.958 55.1374C239.064 55.3021 239.11 55.5707 239.101 55.9544V63.3487H241.245V55.9544C241.277 55.1629 241.113 54.4772 240.755 53.9125C240.398 53.3478 239.663 53.0595 238.55 53.034V53.0334ZM247.517 53.0334C246.858 53.0464 246.206 53.2308 245.575 53.5648C244.946 53.8994 244.426 54.3079 244.003 54.8106L244.738 56.0982C245.067 55.7786 245.474 55.5034 245.943 55.2602C246.413 55.0178 246.871 54.8851 247.332 54.872C247.685 54.8655 247.975 54.9302 248.19 55.0766C248.406 55.223 248.511 55.4916 248.517 55.8733V56.8734L244.126 58.7734C243.975 59.0597 243.842 59.3865 243.717 59.7538C243.592 60.1218 243.521 60.4689 243.513 60.7957C243.513 61.6918 243.735 62.3984 244.187 62.8997C244.638 63.4004 245.321 63.6468 246.23 63.6553C246.806 63.6527 247.295 63.52 247.7 63.267C248.105 63.0141 248.461 62.6566 248.762 62.1846C248.851 62.6383 249.056 62.9919 249.375 63.2468C249.694 63.5017 250.082 63.6304 250.539 63.635C250.796 63.6312 251.05 63.5898 251.295 63.5121C251.539 63.4406 251.772 63.3375 251.989 63.2056L251.438 62.1232C251.378 62.1536 251.317 62.1808 251.255 62.2049C251.196 62.2295 251.134 62.2435 251.07 62.2461C250.92 62.2395 250.82 62.1912 250.764 62.0827C250.707 61.9686 250.679 61.8422 250.682 61.7147V55.8936C250.665 54.9164 250.362 54.1942 249.783 53.7282C249.205 53.2621 248.453 53.0308 247.516 53.034L247.517 53.0334ZM256.912 53.0334C255.814 53.0464 254.946 53.3759 254.298 54.0138C253.649 54.653 253.312 55.523 253.296 56.6283C253.294 57.223 253.427 57.8015 253.705 58.3649C253.983 58.9283 254.423 59.3434 255.012 59.6107C254.645 59.7411 254.31 59.9504 254.032 60.2238C253.749 60.5009 253.598 60.8447 253.583 61.2447C253.595 61.6042 253.713 61.9278 253.95 62.2049C254.187 62.482 254.47 62.6428 254.787 62.6951C254.38 62.8618 253.977 63.1311 253.583 63.4919C253.188 63.8527 252.979 64.2847 252.949 64.7991C252.994 65.756 253.387 66.4286 254.114 66.8214C254.84 67.2136 255.632 67.4064 256.503 67.3926C257.606 67.3971 258.683 67.0621 259.588 66.4331C260.51 65.8004 261.004 64.8847 261.059 63.6755C261.037 62.9376 260.776 62.386 260.282 62.0003C259.788 61.6147 259.191 61.4108 258.485 61.4081H257.831C257.538 61.4264 257.125 61.4382 256.606 61.4284C256.086 61.4193 255.805 61.2781 255.748 61.0206C255.778 60.6924 255.942 60.4728 256.238 60.346C256.534 60.2199 256.779 60.1329 256.973 60.1009C257.095 60.0715 257.206 60.0565 257.32 60.0395C257.435 60.0231 257.555 59.9976 257.668 59.9787C258.5 59.7676 259.141 59.3826 259.588 58.8146C260.034 58.246 260.257 57.5342 260.261 56.6904C260.261 56.4294 260.233 56.1692 260.18 55.9139C260.123 55.6658 260.055 55.4205 259.976 55.1785H261.14V53.3399H258.587C258.325 53.2256 258.051 53.1435 257.77 53.0955C257.486 53.0508 257.199 53.0303 256.912 53.034L256.912 53.0334ZM266.798 53.0334C265.409 53.087 264.328 53.6242 263.571 54.6269C262.812 55.6295 262.437 56.7806 262.427 58.0995C262.42 58.9656 262.544 59.8284 262.795 60.6728C263.045 61.518 263.454 62.2134 264.041 62.7768C264.627 63.3402 265.429 63.6331 266.43 63.6553C267.022 63.637 267.643 63.4736 268.289 63.1651C268.934 62.8559 269.485 62.5088 269.943 62.1232L269.228 60.7343C268.837 61.0341 268.412 61.2877 267.962 61.4898C267.473 61.7121 266.996 61.8245 266.553 61.8369C265.828 61.7735 265.317 61.3859 265.021 60.6526C264.725 59.9199 264.582 59.2251 264.592 58.5898C264.589 58.4668 264.595 58.3437 264.612 58.2218H270.454C270.454 57.9976 270.46 57.7727 270.454 57.5479C270.448 57.3231 270.434 57.0982 270.434 56.874C270.379 55.8831 270.008 55.0027 269.33 54.2393C268.653 53.4746 267.813 53.0752 266.798 53.034L266.798 53.0334ZM277.378 53.0334C276.94 53.0549 276.476 53.1889 275.969 53.4216C275.462 53.655 275.089 53.8608 274.866 54.0556V53.3406H272.721V63.3487H274.866V55.9956C275.068 55.8243 275.404 55.6099 275.887 55.3419C276.37 55.074 276.829 54.9204 277.256 54.8923C277.596 54.8988 277.825 55.0289 277.95 55.2602C278.076 55.4916 278.141 55.7844 278.134 56.159V63.3487H280.278V55.8119C280.509 55.6302 280.807 55.4465 281.177 55.24C281.552 55.0288 281.972 54.9098 282.403 54.8929C282.743 54.887 282.971 54.9694 283.097 55.1171C283.224 55.2655 283.288 55.5106 283.281 55.8727V63.3487H285.426V55.8727C285.447 55.0668 285.254 54.4047 284.833 53.8713C284.412 53.338 283.638 53.0543 282.525 53.034C282.01 53.0589 281.503 53.2105 280.993 53.4831C280.484 53.7563 280.059 53.9994 279.727 54.2184C279.513 53.9282 279.219 53.6641 278.829 53.4216C278.438 53.1798 277.95 53.0491 277.378 53.034V53.0334ZM292.166 53.0334C290.778 53.087 289.697 53.6242 288.939 54.6269C288.181 55.6295 287.805 56.7806 287.795 58.0995C287.788 58.9656 287.913 59.8284 288.163 60.6728C288.413 61.518 288.822 62.2134 289.409 62.7768C289.996 63.3402 290.798 63.6331 291.798 63.6553C292.391 63.637 293.012 63.4736 293.657 63.1651C294.303 62.8559 294.853 62.5088 295.312 62.1232L294.597 60.7343C294.205 61.0342 293.78 61.2877 293.33 61.4898C292.842 61.7121 292.364 61.8245 291.921 61.8369C291.196 61.7735 290.686 61.3859 290.389 60.6526C290.093 59.9199 289.95 59.2251 289.96 58.5898C289.957 58.4667 289.964 58.3437 289.981 58.2218H295.823C295.822 57.9976 295.829 57.7727 295.823 57.5479C295.816 57.3231 295.803 57.0982 295.802 56.874C295.747 55.8831 295.376 55.0027 294.699 54.2393C294.022 53.4746 293.181 53.0752 292.166 53.034V53.0334ZM302.951 53.0334C302.495 53.0438 302.008 53.1563 301.501 53.3602C300.993 53.5648 300.568 53.8001 300.214 54.0752V53.3406H298.07V63.3487H300.214V55.9544C300.476 55.7406 300.85 55.5178 301.317 55.2812C301.784 55.0439 302.239 54.9125 302.706 54.8929C303.034 54.8877 303.254 54.9733 303.359 55.1374C303.465 55.3021 303.511 55.5707 303.503 55.9544V63.3487H305.647V55.9544C305.678 55.1629 305.514 54.4772 305.157 53.9125C304.799 53.3478 304.064 53.0595 302.951 53.034V53.0334ZM100.596 53.3406L103.312 58.1812L100.412 63.3487H102.761L104.497 59.9578L106.295 63.3487H108.746L105.681 58.0584C105.812 57.8394 106.089 57.3564 106.519 56.608C106.949 55.8603 107.369 55.1341 107.765 54.4432L108.398 53.3399H106.049L104.517 56.3426L103.006 53.3399L100.596 53.3406ZM110.236 53.3406V63.3487H112.34V53.3399L110.236 53.3406ZM172.984 53.3406V64.084C172.968 64.5148 172.823 64.8788 172.534 65.1664C172.246 65.454 171.907 65.6553 171.534 65.7795L171.983 67.3116C172.648 67.1371 173.329 66.8292 174.005 66.3717C174.681 65.9142 175.035 65.1873 175.088 64.2063V53.3412L172.984 53.3406ZM256.789 54.5864C257.321 54.6119 257.685 54.8367 257.893 55.24C258.101 55.6433 258.208 56.072 258.199 56.5472C258.214 56.9867 258.115 57.4227 257.913 57.8133C257.713 58.1911 257.352 58.3832 256.831 58.4054C256.244 58.3858 255.857 58.1852 255.666 57.793C255.475 57.4008 255.385 56.9341 255.4 56.4041C255.387 55.9686 255.493 55.5378 255.707 55.1583C255.913 54.7962 256.267 54.606 256.789 54.5864ZM95.6935 54.6269C96.2132 54.6439 96.6066 54.8243 96.8785 55.1785C97.1504 55.5328 97.3086 55.9583 97.3485 56.4452H93.9366C94.0326 55.9924 94.2282 55.5667 94.5092 55.1988C94.7837 54.8413 95.1785 54.6452 95.6935 54.6269ZM133.93 54.6269C134.45 54.6439 134.843 54.8243 135.115 55.1785C135.387 55.5328 135.545 55.9583 135.585 56.4452H132.173C132.269 55.9924 132.465 55.5667 132.746 55.1988C133.02 54.8413 133.415 54.6452 133.93 54.6269ZM181.562 54.6269C182.082 54.6439 182.475 54.8243 182.747 55.1785C183.019 55.5328 183.177 55.9583 183.217 56.4452H179.805C179.901 55.9924 180.097 55.5667 180.378 55.1988C180.652 54.8413 181.047 54.6452 181.562 54.6269ZM266.655 54.6269C267.175 54.6439 267.568 54.8243 267.839 55.1785C268.111 55.5328 268.27 55.9583 268.309 56.4452H264.898C264.994 55.9925 265.189 55.5667 265.47 55.1988C265.745 54.8413 266.14 54.6452 266.655 54.6269ZM292.023 54.6269C292.543 54.6439 292.936 54.8243 293.208 55.1785C293.48 55.5328 293.638 55.9583 293.678 56.4452H290.266C290.362 55.9924 290.558 55.5667 290.839 55.1988C291.113 54.8413 291.508 54.6452 292.023 54.6269ZM166.611 54.872C167.219 54.9047 167.701 55.2583 168.041 55.9341C168.381 56.61 168.546 57.4133 168.551 58.3447C168.546 59.2846 168.381 60.0833 168.041 60.7545C167.701 61.4264 167.219 61.7859 166.611 61.8167C166.003 61.7859 165.521 61.4264 165.181 60.7545C164.841 60.0826 164.676 59.2839 164.671 58.3447C164.676 57.4133 164.841 56.61 165.181 55.9341C165.521 55.2583 166.003 54.9047 166.611 54.872ZM119.285 54.9537C120 55.0099 120.469 55.3674 120.694 56.0361C120.919 56.7054 121.021 57.3485 121.001 57.9564C121.007 58.3911 120.958 58.9192 120.858 59.529C120.758 60.1388 120.57 60.6689 120.286 61.1428C120.002 61.6166 119.585 61.8729 119.04 61.8984C118.76 61.891 118.484 61.8357 118.223 61.735C117.95 61.6356 117.69 61.5054 117.446 61.3467V55.9753C117.666 55.7629 117.952 55.5465 118.305 55.3217C118.657 55.0962 118.984 54.972 119.285 54.9537ZM150.312 54.9537C151.044 55.0132 151.524 55.3949 151.741 56.0975C151.958 56.8008 152.05 57.4682 152.027 58.0995C152.035 58.4858 151.999 58.976 151.925 59.5499C151.851 60.1231 151.702 60.6284 151.455 61.0813C151.208 61.5343 150.821 61.7709 150.311 61.7964C149.478 61.7369 148.94 61.3454 148.677 60.6114C148.415 59.878 148.286 59.1604 148.31 58.4675V55.9753C148.569 55.7186 148.857 55.4925 149.168 55.3014C149.511 55.0851 149.906 54.965 150.312 54.9537ZM228.439 58.6917V59.0597C228.434 59.7133 228.249 60.3408 227.887 60.9382C227.525 61.5369 227.014 61.8565 226.355 61.899C226.048 61.8872 225.82 61.7716 225.661 61.5513C225.498 61.3254 225.412 61.0532 225.416 60.7748C225.418 60.631 225.445 60.4807 225.477 60.3258C225.51 60.1709 225.536 60.0212 225.579 59.8761L228.439 58.6917ZM248.558 58.6917V59.0597C248.553 59.7133 248.369 60.3408 248.006 60.9382C247.644 61.5369 247.134 61.8565 246.475 61.899C246.168 61.8872 245.939 61.7716 245.78 61.5513C245.617 61.3254 245.531 61.0532 245.535 60.7748C245.537 60.631 245.564 60.4807 245.596 60.3258C245.629 60.1709 245.656 60.0212 245.698 59.8761L248.558 58.6917ZM256.258 63.0631H257.443C257.749 63.0468 258.074 63.084 258.423 63.1651C258.772 63.2455 258.965 63.467 258.995 63.8389C258.969 64.4762 258.721 64.9632 258.24 65.3096C257.759 65.6574 257.179 65.8435 256.585 65.841C256.191 65.8501 255.849 65.7671 255.544 65.5749C255.238 65.3834 255.07 65.0239 255.053 64.5128C255.104 64.086 255.315 63.737 255.666 63.471C256.017 63.2056 256.208 63.0709 256.258 63.0631Z" fill="#141414"/>
</g>
<defs>
<clipPath id="clip0">
<rect width="312.981" height="64.9406" fill="white"/>
</clipPath>
</defs>
</svg>
