<svg width="167" height="54" viewBox="0 0 167 54" fill="none" xmlns="http://www.w3.org/2000/svg">
<path d="M90.9047 16.6807C90.9047 18.0181 89.825 19.2113 88.417 19.2113C87.3373 19.2113 86.3989 19.498 85.6011 20.1187C84.7095 20.692 84.0053 21.5033 83.4424 22.4102C82.3159 23.9382 81.7537 25.7521 81.5184 26.4201V35.4911C81.5184 36.8758 80.3454 38.0218 78.9374 38.0218C78.2791 38.0169 77.6491 37.7488 77.1836 37.2752C76.7181 36.8017 76.4545 36.1608 76.4497 35.4911V16.6814C76.4497 15.2968 77.5755 14.1988 78.9374 14.1988C80.3454 14.1988 81.5184 15.2972 81.5184 16.6814V17.0158C81.7998 16.6814 82.1721 16.2998 82.504 16.0608C84.0529 15.0109 86.0703 14.1508 88.417 14.1988C89.825 14.1988 90.9047 15.2972 90.9047 16.6814V16.6807ZM89.5269 26.0857C89.5741 19.593 94.5487 14.1505 100.977 14.1505C107.079 14.1505 111.909 18.7813 112.288 25.2261V25.4647C112.288 25.5608 112.288 25.7987 112.241 25.8944C112.096 27.0404 111.114 27.8043 109.8 27.8043H94.8766C95.1112 28.9027 95.6273 30.1436 96.4724 30.9556C97.458 32.1016 99.3352 32.9601 100.977 33.1035C102.667 33.2465 104.682 32.8172 105.858 31.9102C106.844 30.8596 108.768 31.0033 109.378 31.7625C109.988 32.4274 110.457 33.8638 109.378 34.8657C107.078 37.0136 104.309 38.017 100.977 38.017C94.5483 37.97 89.5737 32.5752 89.5265 26.0824L89.5269 26.0857ZM94.6424 23.7465H107.923C107.454 21.8365 105.06 19.0203 100.977 18.686C96.9888 18.8766 95.0215 21.7892 94.642 23.7465H94.6424ZM136.199 35.4427C136.199 36.8274 135.073 38.0214 133.664 38.0214C132.393 38.0214 131.412 37.1144 131.177 35.9684C129.397 37.2097 127.141 38.0214 124.794 38.0214C118.459 38.0214 113.39 32.5789 113.39 26.1338C113.39 19.5929 118.459 14.1505 124.794 14.1505C127.094 14.1505 129.346 14.9141 131.083 16.1554V7.18035C131.083 5.79572 132.209 4.60171 133.664 4.60171C135.072 4.60171 136.198 5.79498 136.198 7.18035V35.4431L136.199 35.4427ZM124.795 19.3539C123.106 19.3539 121.557 20.0699 120.384 21.3112C119.211 22.5045 118.507 24.2231 118.507 26.133C118.507 27.9433 119.21 29.6655 120.384 30.8592C121.557 32.1005 123.106 32.8172 124.795 32.8172C126.531 32.8172 128.033 32.1012 129.206 30.8592C130.379 29.6659 131.084 27.9469 131.084 26.133C131.084 24.2231 130.38 22.5052 129.206 21.3112C128.033 20.0699 126.531 19.3539 124.795 19.3539ZM145.132 8.18226C145.132 9.61455 144.053 10.8078 142.597 10.8078C141.189 10.8078 140.063 9.61455 140.063 8.18226V7.17962C140.062 6.84067 140.126 6.50479 140.253 6.19136C140.38 5.87794 140.567 5.59316 140.802 5.35347C141.038 5.11378 141.318 4.92391 141.626 4.79482C141.934 4.66573 142.264 4.59997 142.597 4.60134C144.053 4.60134 145.132 5.74732 145.132 7.17998V8.18263V8.18226ZM145.132 16.827V35.4464C145.132 36.8787 144.053 38.0251 142.597 38.0251C142.264 38.0265 141.934 37.9607 141.626 37.8316C141.318 37.7025 141.038 37.5126 140.802 37.2729C140.567 37.0333 140.38 36.7485 140.253 36.4351C140.126 36.1216 140.062 35.7858 140.063 35.4468V16.8274C140.063 15.2998 141.189 14.2014 142.597 14.2014C144.053 14.2014 145.132 15.2998 145.132 16.8274V16.827ZM148.355 31.1943C149.199 30.049 150.842 29.9057 151.874 30.8126C153.095 31.8633 155.207 32.9605 157.037 32.9132C158.308 32.9132 159.477 32.484 160.228 32.0063C160.882 31.4337 161.073 30.9563 161.073 30.574C161.073 30.3353 161.025 30.24 160.932 30.0963C160.885 29.9533 160.697 29.7623 160.322 29.5237C159.668 29.046 158.257 28.5207 156.568 28.1863H156.52C155.065 27.9 153.657 27.5214 152.437 26.945C151.166 26.3244 150.04 25.4655 149.199 24.1765C148.683 23.3172 148.401 22.2665 148.401 21.1693C148.401 18.973 149.622 17.1111 151.17 15.9175C152.813 14.7722 154.784 14.1516 156.943 14.1516C160.181 14.1516 162.481 15.7272 163.983 16.7771C165.109 17.5411 165.437 19.1167 164.733 20.3096C163.983 21.4556 162.434 21.79 161.261 20.9746C159.759 19.9724 158.445 19.208 156.939 19.208C155.766 19.208 154.733 19.59 154.123 20.0673C153.513 20.4973 153.372 20.927 153.372 21.1656C153.372 21.3562 153.372 21.4043 153.466 21.5473C153.513 21.6426 153.654 21.8336 153.983 22.0246C154.593 22.4542 155.813 22.8839 157.409 23.1705L157.456 23.2186H157.503C159.052 23.5045 160.506 23.9345 161.868 24.6028C163.139 25.1755 164.402 26.0828 165.2 27.4194C165.763 28.374 166.091 29.4723 166.091 30.5707C166.091 32.9099 164.82 34.8672 163.135 36.1122C161.445 37.3054 159.333 38.0221 157.033 38.0221C153.373 37.9741 150.557 36.2562 148.68 34.7283C147.647 33.869 147.507 32.2457 148.351 31.195L148.355 31.1943Z" fill="#141414"/>
<path d="M59.3586 41.5314C56.0618 43.2795 38.9829 50.4229 35.3469 52.351C31.711 54.279 29.691 54.261 26.8188 52.8645C23.9465 51.468 5.77164 43.9996 2.49772 42.4077C0.861311 41.6119 0.000976562 40.941 0.000976562 40.3063V33.9539C0.000976562 33.9539 23.6618 28.7139 27.4823 27.3197C31.3028 25.9254 32.6272 25.8789 35.8779 27.0869C39.1286 28.295 58.5662 31.8659 61.7787 33.0629L61.7772 39.3248C61.7776 39.9528 61.0364 40.6418 59.3586 41.5314Z" fill="#141414"/>
<path d="M59.3584 35.1775C56.0616 36.9249 38.9827 44.069 35.3467 45.9971C31.7108 47.9252 29.6908 47.9071 26.8186 46.5106C23.9463 45.1142 5.77144 37.6449 2.49753 36.0538C-0.776392 34.4626 -0.845032 33.3662 2.37114 32.0853L27.4821 22.1952C31.3018 20.8017 32.627 20.7545 35.8777 21.9625C39.1284 23.1705 56.1059 30.0479 59.3181 31.2449C62.5302 32.4419 62.6548 33.4293 59.3544 35.1775H59.3584Z" fill="white"/>
<path d="M59.3586 31.1729C56.0618 32.921 38.9829 40.0644 35.3469 41.9936C31.711 43.9227 29.691 43.9028 26.8188 42.506C23.9465 41.1091 5.77164 33.641 2.49772 32.0492C0.861311 31.2534 0.000976562 30.5825 0.000976562 29.9486V23.5954C0.000976562 23.5954 23.6618 18.355 27.4823 16.9611C31.3028 15.5673 32.6272 15.5203 35.8779 16.7284C39.1286 17.9364 58.5662 21.5066 61.7787 22.704L61.7772 28.967C61.7776 29.595 61.0364 30.2836 59.3586 31.1732V31.1729Z" fill="#141414"/>
<path d="M59.3584 24.819C56.0616 26.5671 38.9827 33.7105 35.3467 35.6397C31.7108 37.5689 29.6908 37.5489 26.8186 36.1521C23.9463 34.7553 5.77144 27.2868 2.49753 25.6953C-0.776392 24.1038 -0.845032 23.008 2.37114 21.7265L27.4821 11.8371C31.3018 10.4432 32.627 10.3963 35.8777 11.6044C39.1284 12.8124 56.1059 19.6894 59.3181 20.8867C62.5302 22.0841 62.6548 23.0712 59.3544 24.8194L59.3584 24.819Z" fill="white"/>
<path d="M59.3586 20.4312C56.0618 22.1794 38.9829 29.3235 35.3469 31.2556C31.711 33.1877 29.691 33.1648 26.8188 31.768C23.9465 30.3712 5.77164 22.9027 2.49772 21.3112C0.861311 20.5154 0.000976562 19.8446 0.000976562 19.2106V12.8575C0.000976562 12.8575 23.6618 7.61372 27.4823 6.21985C31.3028 4.82598 32.6272 4.77906 35.8779 5.98711C39.1286 7.19516 58.5662 10.7654 61.7787 11.9627L61.7772 18.2253C61.7776 18.8526 61.0364 19.5416 59.3586 20.4308V20.4312Z" fill="#141414"/>
<path d="M59.3584 14.0769C56.0616 15.8251 38.9827 22.9692 35.3467 24.8976C31.7108 26.8261 29.6908 26.8069 26.8186 25.4104C23.9463 24.014 5.77144 16.5451 2.49753 14.9536C-0.776392 13.3621 -0.845032 12.266 2.37114 10.9848L27.4821 1.09504C31.3018 -0.299199 32.627 -0.345749 35.8777 0.862298C39.1284 2.07035 56.1059 8.94735 59.3181 10.1447C62.5302 11.342 62.6548 12.3288 59.3544 14.0766L59.3584 14.0769Z" fill="#141414"/>
<path d="M33.6313 8.52285L32.4321 11.4576L30.4947 8.18444L24.3136 7.61921L28.9258 5.9261L27.5458 3.32898L31.8627 5.04759L35.9363 3.69176L34.8337 6.3768L38.9847 7.95724L33.6313 8.52285ZM22.1201 17.9744L36.436 15.7394L32.1133 22.1897L22.1201 17.9744Z" fill="white"/>
<path d="M18.2623 15.6241C22.4881 15.6241 25.9138 14.2733 25.9138 12.6069C25.9138 10.9406 22.4881 9.58978 18.2623 9.58978C14.0365 9.58978 10.6108 10.9406 10.6108 12.6069C10.6108 14.2733 14.0365 15.6241 18.2623 15.6241Z" fill="white"/>
<path d="M53.7826 12.1681L45.3158 15.5684L45.311 8.7597L53.7826 12.1681Z" fill="white"/>
<path d="M45.3115 8.75934L45.3162 15.568L44.3992 15.936L35.9375 12.5309L45.3115 8.75934Z" fill="white"/>
</svg>
