<svg width="87" height="44" viewBox="0 0 87 44" fill="none" xmlns="http://www.w3.org/2000/svg">
<path fill-rule="evenodd" clip-rule="evenodd" d="M0.858154 43.1047H44.3893L86.9607 0.0534973H0.858154V43.1047Z" fill="#141414"/>
<path fill-rule="evenodd" clip-rule="evenodd" d="M51.9645 8.13378H43.4814V28.4919L36.0879 8.13378H28.7462L22.4422 25.1864C21.7677 20.8839 17.3835 19.4147 13.9072 18.3129C11.6243 17.5783 9.21163 16.4764 9.23757 15.2696C9.26351 14.2727 10.5347 13.3545 13.077 13.5119C14.7633 13.5906 16.2679 13.748 19.2772 15.1909L22.2347 9.99644C19.4848 8.606 15.7231 7.71402 12.636 7.71402H12.6101C9.00409 7.71402 5.99478 8.89458 4.12694 10.836C2.82982 12.2002 2.12938 13.9317 2.10344 15.8206C2.05155 18.444 3.01142 20.3067 5.00897 21.8021C6.69522 23.0614 8.84843 23.8746 10.7682 24.478C13.1289 25.2126 15.0486 25.8422 15.0227 27.2327C15.0227 27.7311 14.8152 28.2034 14.4779 28.5707C13.8812 29.1741 12.9992 29.4102 11.754 29.4364C9.34134 29.4889 7.57726 29.0954 4.72361 27.4163L2.10344 32.6633C4.93115 34.2898 8.2777 35.2605 11.7021 35.2605H12.1431C15.1005 35.208 17.5132 34.3423 19.4329 32.7945C19.5367 32.7157 19.6404 32.6108 19.7442 32.5321L18.8881 34.8145H26.593L27.8901 30.8531C29.2391 31.2991 30.7697 31.5614 32.404 31.5614C33.9865 31.5614 35.4912 31.2991 36.8142 30.8793L38.0595 34.8145H50.6155V26.5506H53.3395C59.9548 26.5506 63.8721 23.1401 63.8721 17.4209C63.8721 11.0721 60.0585 8.13378 51.9645 8.13378ZM32.3781 25.5799C31.3923 25.5799 30.4584 25.3962 29.6542 25.0814L32.3522 16.5027H32.404L35.0502 25.1077C34.2459 25.4225 33.3639 25.5799 32.3781 25.5799ZM52.4574 20.6478H50.5896V13.748H52.4574C54.9479 13.748 56.9195 14.5875 56.9195 17.1585C56.9455 19.8345 54.9479 20.6478 52.4574 20.6478Z" fill="white"/>
<path d="M54.87 40.2976C54.87 38.9859 55.8558 37.989 57.127 37.989C58.3722 37.989 59.358 38.9859 59.358 40.2976C59.358 41.6618 58.3722 42.6587 57.127 42.6587C55.8558 42.6587 54.87 41.6618 54.87 40.2976ZM57.127 43.1047C58.6316 43.1047 59.9028 41.9242 59.9028 40.2976C59.9028 38.6973 58.6057 37.5167 57.127 37.5167C55.5964 37.5167 54.3252 38.6973 54.3252 40.2976C54.3252 41.9242 55.5964 43.1047 57.127 43.1047ZM56.5303 40.5337H57.0751L57.9312 41.9242H58.476L57.568 40.5075C58.0349 40.455 58.3981 40.1927 58.3981 39.6155C58.3981 38.9859 58.0349 38.6973 57.2826 38.6973H56.0893V41.9242H56.5562V40.5337H56.5303ZM56.5303 40.114V39.1171H57.1788C57.5161 39.1171 57.8533 39.1958 57.8533 39.5893C57.8533 40.0877 57.4902 40.114 57.101 40.114H56.5303Z" fill="#141414"/>
</svg>
