<svg width="197" height="50" viewBox="0 0 197 50" fill="none" xmlns="http://www.w3.org/2000/svg">
<path d="M41.5045 14.6881V21.1267C37.7371 18.6742 35.607 17.3265 31.5668 15.2917C33.1256 26.8612 16.9525 27.2636 18.5114 14.6881C14.5001 15.2864 12.3383 15.8996 8.67112 17.6056C17.8027 25.633 23.5962 28.6045 38.5816 23.34V24.9497C35.4569 27.0087 33.4767 27.8069 29.7156 28.8732C25.394 30.0531 25.1784 32.1641 27.3773 37.6257H24.8442C22.6508 34.9284 21.8295 33.1545 21.0445 29.4768C10.4322 25.7483 4.99223 23.1552 0 13.8833C1.13383 14.0727 1.75724 14.1 2.82542 13.8833C14.5168 10.4628 24.8442 3.72234 41.5045 14.6881Z" fill="#141414"/>
<path fill-rule="evenodd" clip-rule="evenodd" d="M79.6963 12.4748C80.3832 13.3442 80.5366 14.1982 80.5732 16.0966V50L85.6395 48.8934V37.7264C107.756 50 107.269 -0.100603 85.6395 14.0845V11.167L79.6963 12.4748ZM85.6395 19.8534V31.9245C85.6395 32.1588 85.7541 32.3966 85.9289 32.546C100.945 45.3785 100.649 4.67726 85.8877 19.2678C85.7371 19.4167 85.6395 19.6381 85.6395 19.8534Z" fill="#141414"/>
<path d="M108.438 4.42656C108.244 2.97066 108.023 2.19576 107.366 0.905433L112.725 0C113.395 1.11673 113.573 1.81179 113.699 3.11871V14.3863C119.155 9.35614 127.728 11.2676 128.703 17.1026V39.2354H123.344V18.6117C123.344 15.493 118.863 14.9899 113.699 20.3219V39.2354H108.438V4.42656Z" fill="#141414"/>
<path d="M135.912 39.0342V12.2736L141.758 11.167V39.0342H135.912Z" fill="#141414"/>
<path d="M142.732 4.52716C142.732 6.69408 141.031 8.4507 138.933 8.4507C136.834 8.4507 135.133 6.69408 135.133 4.52716C135.133 2.36025 136.834 0.603622 138.933 0.603622C141.031 0.603622 142.732 2.36025 142.732 4.52716Z" fill="#141414"/>
<path d="M149.163 17.8068C149.269 15.0886 149.039 14.0207 148.091 12.9779L153.45 11.3682C153.882 11.9342 154.132 12.4404 154.619 14.3863C160.075 8.55131 169.136 12.5755 169.136 17.8068V39.1348H163.68V18.7123C163.68 15.493 159.88 14.7887 154.619 19.4165V39.1348H149.163V17.8068Z" fill="#141414"/>
<path d="M179.463 12.0724H173.228L181.022 24.0443L171.376 38.9336H178.001L184.139 28.8732L190.375 38.9336H197L187.257 24.0443L194.662 12.0724H188.524L184.139 19.5171L179.463 12.0724Z" fill="#141414"/>
<path d="M71.7072 8.96421L74.2404 4.94006C66.1538 -0.99558 51.7344 -0.593159 51.1499 11.5799C51.1499 16.6328 52.5606 19.8244 61.1462 22.1709C63.2917 22.7573 65.6368 23.1525 67.1948 24.7847C72.0258 29.8455 65.8541 39.5101 52.319 30.8958L49.7859 35.926C55.7903 39.1856 61.7878 40.1614 66.9667 38.4472C70.3511 37.3269 73.174 34.5927 74.2952 31.1101C76.3685 24.6697 72.6028 18.5867 60.8927 15.604C52.319 12.6865 57.9698 0.513502 71.7072 8.96421Z" fill="#141414"/>
</svg>
