<svg width="205" height="51" viewBox="0 0 205 51" fill="none" xmlns="http://www.w3.org/2000/svg">
<path d="M25.5689 50.8947C39.6231 50.8947 51.0163 39.5015 51.0163 25.4474C51.0163 11.3932 39.6231 0 25.5689 0C11.5148 0 0.121582 11.3932 0.121582 25.4474C0.121582 39.5015 11.5148 50.8947 25.5689 50.8947Z" fill="#141414"/>
<path d="M36.6945 9.41585C34.11 9.5065 31.8519 10.9315 30.174 12.9023C28.3129 15.0634 27.0765 17.6279 26.1845 20.244C24.5899 18.9369 23.3598 17.2453 20.8016 16.5074C18.8227 15.9391 16.7468 16.1729 14.8368 17.5961C13.9313 18.2724 13.3085 19.294 13.0121 20.254C12.2433 22.7505 13.8179 24.9724 14.5341 25.771L16.0978 27.4444C16.4205 27.7734 17.1956 28.631 16.8176 29.8593C16.4069 31.1964 14.797 32.0603 13.1444 31.5518C12.4065 31.3233 11.3459 30.7749 11.5843 30.0025C11.6822 29.6853 11.9088 29.4469 12.0312 29.1758C12.1427 28.9401 12.1953 28.7643 12.2288 28.6609C12.5307 27.6746 12.1182 26.3928 11.0631 26.0674C10.0777 25.7665 9.07149 26.0058 8.68078 27.2722C8.2366 28.7144 8.92644 31.326 12.6186 32.4655C16.9445 33.7953 20.604 31.4384 21.1225 28.3672C21.4498 26.4436 20.5795 25.0131 18.9886 23.1739L17.6923 21.7407C16.9064 20.9547 16.6372 19.6176 17.4494 18.5906C18.1356 17.7231 19.1119 17.3532 20.7137 17.7874C23.0498 18.4201 24.0913 20.0419 25.8282 21.35C25.1112 23.7023 24.6416 26.0638 24.2182 28.1832L23.9581 29.7605C22.7153 36.2746 21.768 39.8508 19.3041 41.904C18.8082 42.2585 18.0975 42.786 17.0288 42.8232C16.4676 42.8413 16.2873 42.4552 16.2782 42.2866C16.2655 41.8931 16.5982 41.7128 16.8185 41.536C17.1475 41.3556 17.6452 41.0583 17.6117 40.1055C17.5745 38.976 16.6408 37.9988 15.2919 38.045C14.2793 38.0786 12.7392 39.0295 12.7972 40.7736C12.857 42.5721 14.5341 43.9219 17.0632 43.8349C18.4157 43.7905 21.4344 43.2402 24.4086 39.7039C27.8705 35.6491 28.8396 31.0015 29.5684 27.6003L30.3807 23.1104C30.833 23.1639 31.3153 23.201 31.841 23.2128C36.1533 23.3053 38.3098 21.0708 38.3434 19.4463C38.3642 18.4628 37.698 17.4955 36.7643 17.5173C36.0971 17.5363 35.2576 17.9805 35.0564 18.9033C34.8597 19.8098 36.4288 20.6275 35.2023 21.4225C34.3312 21.9872 32.7693 22.3843 30.5701 22.0616L30.9708 19.8506C31.7857 15.6589 32.7938 10.5027 36.6129 10.3786C36.8912 10.3641 37.9101 10.3913 37.9336 11.0639C37.94 11.2887 37.8847 11.3467 37.6218 11.8616C37.3526 12.2623 37.2519 12.604 37.2637 12.9974C37.3018 14.0671 38.1149 14.7706 39.2925 14.7289C40.8671 14.6772 41.3203 13.1443 41.295 12.3556C41.2297 10.5018 39.2771 9.33245 36.6945 9.41585Z" fill="white"/>
<path d="M154.414 18.2878C160.283 18.2878 164.216 22.5275 164.216 28.3926C164.216 33.9196 160.206 38.4965 154.414 38.4965C148.587 38.4965 144.577 33.9196 144.577 28.3926C144.577 22.5275 148.509 18.2878 154.414 18.2878ZM154.414 35.6247C158.577 35.6247 160.43 31.8391 160.43 28.3926C160.43 24.7231 158.198 21.166 154.414 21.166C150.592 21.166 148.358 24.7231 148.358 28.3926C148.358 31.8391 150.214 35.6247 154.414 35.6247Z" fill="#141414"/>
<path d="M144.089 20.0845V18.742H138.978V16.9072C138.978 14.2956 139.358 12.3248 142.421 12.3248C142.477 12.3248 142.537 12.3303 142.596 12.333C142.602 12.333 142.6 12.323 142.608 12.323C143.458 12.3847 144.167 11.693 144.214 10.8427L144.276 9.67693C143.557 9.56271 142.798 9.4503 141.891 9.4503C136.631 9.4503 135.421 12.5161 135.421 17.21V18.742H130.875V20.2404C130.992 21.0173 131.657 21.6165 132.468 21.6165C132.472 21.6165 132.477 21.6201 132.481 21.6201H135.421V38.045H137.379C137.383 38.045 137.381 38.045 137.385 38.045C138.201 38.045 138.866 37.4304 138.977 36.6481V21.6201H142.536C143.374 21.592 144.047 20.9221 144.089 20.0845Z" fill="#141414"/>
<path d="M96.7004 18.742C96.695 18.742 96.6905 18.7465 96.6814 18.7465C95.9326 18.7465 95.2065 19.2614 94.8892 19.9585L89.995 34.7145H89.9189L85.1316 19.9657C84.818 19.265 84.0892 18.7456 83.3349 18.7456C83.3259 18.7456 83.3232 18.741 83.3159 18.741H80.8348L87.3825 36.7569C87.6109 37.4014 88.066 38.3859 88.066 38.8002C88.066 39.1809 87.0054 43.5684 83.8245 43.5684C83.7465 43.5684 83.6667 43.5593 83.5897 43.5539C82.7784 43.5094 82.1656 44.076 82.0305 44.949L81.9335 46.1809C82.5771 46.2942 83.2225 46.4465 84.3575 46.4465C89.0495 46.4465 90.4501 42.1669 91.7763 38.4593L98.8896 18.7401H96.7004V18.742Z" fill="#141414"/>
<path d="M74.085 22.6626C71.1479 21.1596 67.9326 20.138 67.8764 17.1139C67.8854 13.9021 70.837 13.0582 73.1105 13.0609C73.1214 13.0591 73.1304 13.0591 73.1359 13.0591C74.124 13.0591 74.9135 13.157 75.685 13.3265C75.695 13.3265 75.6931 13.3138 75.7049 13.3138C76.5208 13.3736 77.2052 12.7364 77.3004 11.9332L77.3656 10.7665C75.8744 10.3967 74.3162 10.2072 72.96 10.2072C68.0151 10.2381 64.3428 12.7264 64.331 17.4756C64.3365 21.6274 67.1339 23.2364 70.1453 24.6941C73.0969 26.1136 76.3286 27.2848 76.3567 30.7123C76.3404 34.2867 72.8902 35.6038 70.5125 35.6093C69.1219 35.6038 67.6126 35.2584 66.3398 34.8569C65.543 34.7254 64.8894 35.4289 64.7852 36.3598L64.6782 37.3987C66.4269 37.9635 68.219 38.4575 70.0221 38.4575C70.0221 38.4575 70.0239 38.4575 70.0257 38.4575C70.0302 38.4575 70.0366 38.4575 70.042 38.4575C75.5825 38.4167 79.8884 36.2076 79.9057 30.4703C79.8993 26.0447 77.081 24.1855 74.085 22.6626Z" fill="#141414"/>
<path d="M127.892 38.045C127.895 38.045 127.895 38.045 127.897 38.045C128.665 38.045 129.306 37.5048 129.466 36.7859V25.6685C129.466 21.4669 127.691 18.2869 122.768 18.2869C121.027 18.2869 118.114 19.2732 116.789 22.0353C115.768 19.4236 113.534 18.2869 111.303 18.2869C108.463 18.2869 106.532 19.3085 105.171 21.5431H105.095V20.3428C105.084 19.459 104.369 18.7456 103.484 18.7456C103.476 18.7456 103.472 18.7411 103.467 18.7411H101.765V38.0441H103.69C103.693 38.0441 103.693 38.0441 103.695 38.0441C104.587 38.0441 105.309 37.3198 105.309 36.4296C105.309 36.4052 105.317 36.3961 105.325 36.3798V28.3164C105.325 24.7222 106.762 21.165 110.394 21.165C113.269 21.165 113.841 24.1538 113.841 26.5388V38.0432H115.792C115.794 38.0432 115.794 38.0432 115.798 38.0432C116.641 38.0432 117.32 37.3951 117.395 36.572V28.3164C117.395 24.7222 118.835 21.165 122.467 21.165C125.343 21.165 125.912 24.1538 125.912 26.5388V38.0432H127.892V38.045Z" fill="#141414"/>
<path d="M182.87 38.045C182.872 38.045 182.872 38.045 182.874 38.045C183.742 38.045 184.441 37.3597 184.482 36.5013V26.5769C184.482 21.3926 182.246 18.2869 177.25 18.2869C174.564 18.2869 171.992 19.6131 170.929 21.8096H170.855V20.3673C170.855 20.3655 170.851 20.3655 170.851 20.3619C170.851 19.4672 170.127 18.7456 169.239 18.7456C169.229 18.7456 169.227 18.7411 169.221 18.7411H167.409V38.0441H169.365C169.365 38.0441 169.365 38.0441 169.368 38.0441C170.215 38.0441 170.901 37.3851 170.967 36.5547V29.1114C170.967 24.4194 172.785 21.165 176.834 21.165C179.941 21.3527 180.92 23.5464 180.92 28.0517V38.0432H182.87V38.045Z" fill="#141414"/>
<path d="M202.023 18.742C202.013 18.742 202.01 18.7465 202.003 18.7465C201.253 18.7465 200.526 19.2614 200.21 19.9585L195.317 34.7145H195.237L190.449 19.9657C190.136 19.265 189.407 18.7456 188.654 18.7456C188.647 18.7456 188.643 18.741 188.636 18.741H186.155L192.704 36.7569C192.93 37.4014 193.388 38.3859 193.388 38.8002C193.388 39.1809 192.327 43.5684 189.145 43.5684C189.068 43.5684 188.99 43.5593 188.91 43.5539C188.099 43.5094 187.489 44.076 187.349 44.949L187.254 46.1809C187.896 46.2942 188.543 46.4465 189.679 46.4465C194.371 46.4465 195.77 42.1669 197.097 38.4593L204.213 18.7401H202.023V18.742Z" fill="#141414"/>
</svg>
