<svg width="225" height="56" viewBox="0 0 225 56" fill="none" xmlns="http://www.w3.org/2000/svg">
<path d="M28.6717 55.7683C44.0717 55.7683 56.5559 43.2841 56.5559 27.8841C56.5559 12.4842 44.0717 0 28.6717 0C13.2718 0 0.787598 12.4842 0.787598 27.8841C0.787598 43.2841 13.2718 55.7683 28.6717 55.7683Z" fill="#141414"/>
<path d="M40.8628 10.3175C38.0308 10.4168 35.5565 11.9783 33.7179 14.1377C31.6786 16.5058 30.3238 19.3159 29.3464 22.1825C27.5991 20.7502 26.2512 18.8967 23.4481 18.0881C21.2797 17.4653 19.005 17.7216 16.9121 19.2811C15.9198 20.0221 15.2374 21.1416 14.9126 22.1935C14.0703 24.929 15.7957 27.3636 16.5804 28.2387L18.2938 30.0724C18.6474 30.433 19.4967 31.3726 19.0825 32.7186C18.6325 34.1837 16.8684 35.1303 15.0576 34.5731C14.2491 34.3228 13.0869 33.7218 13.3481 32.8755C13.4554 32.5278 13.7037 32.2666 13.8378 31.9696C13.96 31.7113 14.0176 31.5186 14.0544 31.4054C14.3852 30.3247 13.9332 28.9202 12.777 28.5636C11.6973 28.2338 10.5947 28.496 10.1666 29.8837C9.67986 31.464 10.4358 34.3257 14.4815 35.5743C19.2216 37.0315 23.2316 34.4489 23.7997 31.0836C24.1583 28.9758 23.2047 27.4083 21.4615 25.3929L20.041 23.8225C19.1798 22.9613 18.8848 21.4962 19.7748 20.3708C20.5268 19.4202 21.5966 19.0149 23.3517 19.4907C25.9115 20.184 27.0528 21.961 28.956 23.3944C28.1703 25.972 27.6557 28.5596 27.1919 30.8819L26.9068 32.6103C25.545 39.7482 24.507 43.6668 21.8071 45.9166C21.2638 46.305 20.4851 46.8831 19.3139 46.9239C18.6991 46.9437 18.5014 46.5206 18.4915 46.3358C18.4776 45.9047 18.8421 45.7071 19.0835 45.5134C19.4441 45.3157 19.9894 44.9899 19.9526 43.9459C19.9119 42.7083 18.8888 41.6375 17.4108 41.6881C16.3012 41.7249 14.6136 42.7669 14.6772 44.678C14.7427 46.6487 16.5804 48.1277 19.3517 48.0324C20.8337 47.9837 24.1414 47.3808 27.4005 43.5059C31.1939 39.0628 32.2558 33.9701 33.0544 30.2432L33.9444 25.3234C34.44 25.382 34.9685 25.4227 35.5446 25.4356C40.2698 25.5369 42.6328 23.0884 42.6696 21.3084C42.6924 20.2307 41.9624 19.1708 40.9393 19.1947C40.2082 19.2155 39.2884 19.7023 39.0679 20.7134C38.8523 21.7068 40.5717 22.6027 39.2278 23.4738C38.2732 24.0927 36.5617 24.5277 34.152 24.1741L34.591 21.7514C35.484 17.1584 36.5886 11.5085 40.7734 11.3724C41.0783 11.3565 42.1948 11.3863 42.2206 12.1233C42.2276 12.3697 42.167 12.4332 41.8789 12.9974C41.5839 13.4365 41.4736 13.8109 41.4866 14.242C41.5283 15.4141 42.4193 16.185 43.7096 16.1393C45.435 16.0826 45.9316 14.403 45.9038 13.5388C45.8323 11.5075 43.6927 10.2261 40.8628 10.3175Z" fill="white"/>
<path d="M169.855 20.039C176.285 20.039 180.595 24.6847 180.595 31.1114C180.595 37.1676 176.201 42.1828 169.855 42.1828C163.47 42.1828 159.075 37.1676 159.075 31.1114C159.075 24.6847 163.384 20.039 169.855 20.039ZM169.855 39.036C174.417 39.036 176.447 34.888 176.447 31.1114C176.447 27.0905 174.001 23.1928 169.855 23.1928C165.667 23.1928 163.219 27.0905 163.219 31.1114C163.219 34.888 165.253 39.036 169.855 39.036Z" fill="#141414"/>
<path d="M158.54 22.0077V20.5366H152.94V18.5262C152.94 15.6645 153.356 13.505 156.713 13.505C156.774 13.505 156.84 13.511 156.904 13.5139C156.911 13.5139 156.909 13.503 156.917 13.503C157.849 13.5706 158.626 12.8127 158.678 11.8809L158.745 10.6036C157.957 10.4784 157.126 10.3552 156.133 10.3552C150.369 10.3552 149.042 13.7146 149.042 18.8579V20.5366H144.061V22.1786C144.189 23.0298 144.918 23.6864 145.807 23.6864C145.811 23.6864 145.816 23.6904 145.821 23.6904H149.042V41.6881H151.188C151.193 41.6881 151.19 41.6881 151.195 41.6881C152.089 41.6881 152.818 41.0147 152.939 40.1574V23.6904H156.839C157.757 23.6596 158.495 22.9255 158.54 22.0077Z" fill="#141414"/>
<path d="M106.614 20.5366C106.608 20.5366 106.603 20.5416 106.594 20.5416C105.773 20.5416 104.977 21.1058 104.63 21.8696L99.2669 38.0387H99.1834L93.9378 21.8776C93.5941 21.1098 92.7955 20.5406 91.969 20.5406C91.9591 20.5406 91.9561 20.5356 91.9482 20.5356H89.2295L96.4042 40.2766C96.6545 40.9829 97.1531 42.0616 97.1531 42.5155C97.1531 42.9327 95.9909 47.7403 92.5054 47.7403C92.42 47.7403 92.3326 47.7304 92.2482 47.7244C91.3591 47.6758 90.6877 48.2966 90.5397 49.2531L90.4334 50.6031C91.1386 50.7272 91.8459 50.8941 93.0895 50.8941C98.2308 50.8941 99.7655 46.2047 101.219 42.1421L109.013 20.5346H106.614V20.5366Z" fill="#141414"/>
<path d="M81.8335 24.8327C78.6152 23.1858 75.0919 22.0663 75.0303 18.7527C75.0403 15.2334 78.2745 14.3086 80.7657 14.3116C80.7776 14.3096 80.7875 14.3096 80.7935 14.3096C81.8762 14.3096 82.7414 14.4169 83.5867 14.6026C83.5976 14.6026 83.5956 14.5887 83.6085 14.5887C84.5025 14.6543 85.2525 13.956 85.3568 13.0759L85.4283 11.7975C83.7943 11.3923 82.0868 11.1847 80.6008 11.1847C75.1823 11.2184 71.1584 13.9451 71.1455 19.149C71.1515 23.6984 74.2168 25.4615 77.5166 27.0587C80.7508 28.6142 84.2919 29.8976 84.3227 33.6533C84.3048 37.5699 80.5243 39.0132 77.9189 39.0191C76.3951 39.0132 74.7413 38.6347 73.3467 38.1947C72.4736 38.0507 71.7574 38.8215 71.6432 39.8416L71.5259 40.9799C73.442 41.5987 75.4058 42.1401 77.3815 42.1401C77.3815 42.1401 77.3835 42.1401 77.3855 42.1401C77.3904 42.1401 77.3974 42.1401 77.4033 42.1401C83.4744 42.0954 88.1927 39.6747 88.2115 33.3881C88.2046 28.5387 85.1164 26.5015 81.8335 24.8327Z" fill="#141414"/>
<path d="M140.793 41.6881C140.796 41.6881 140.796 41.6881 140.798 41.6881C141.639 41.6881 142.342 41.0961 142.518 40.3084V28.1265C142.518 23.5225 140.573 20.038 135.178 20.038C133.271 20.038 130.078 21.1187 128.626 24.1453C127.508 21.2836 125.06 20.038 122.616 20.038C119.504 20.038 117.388 21.1575 115.896 23.606H115.812V22.2908C115.801 21.3223 115.017 20.5406 114.047 20.5406C114.038 20.5406 114.034 20.5356 114.028 20.5356H112.164V41.6871H114.274C114.277 41.6871 114.277 41.6871 114.279 41.6871C115.256 41.6871 116.047 40.8935 116.047 39.9181C116.047 39.8912 116.056 39.8813 116.065 39.8634V31.028C116.065 27.0895 117.639 23.1917 121.619 23.1917C124.769 23.1917 125.396 26.4667 125.396 29.0801V41.6861H127.535C127.536 41.6861 127.536 41.6861 127.54 41.6861C128.464 41.6861 129.208 40.9759 129.291 40.074V31.028C129.291 27.0895 130.868 23.1917 134.848 23.1917C138 23.1917 138.623 26.4667 138.623 29.0801V41.6861H140.793V41.6881Z" fill="#141414"/>
<path d="M201.036 41.6881C201.038 41.6881 201.038 41.6881 201.041 41.6881C201.991 41.6881 202.757 40.9372 202.802 39.9965V29.1218C202.802 23.4411 200.352 20.038 194.878 20.038C191.934 20.038 189.116 21.4912 187.952 23.898H187.87V22.3176C187.87 22.3156 187.866 22.3156 187.866 22.3117C187.866 21.3313 187.073 20.5406 186.099 20.5406C186.088 20.5406 186.086 20.5356 186.079 20.5356H184.095V41.6871H186.237C186.237 41.6871 186.237 41.6871 186.241 41.6871C187.169 41.6871 187.921 40.965 187.992 40.0551V31.8991C187.992 26.7577 189.985 23.1917 194.422 23.1917C197.826 23.3974 198.899 25.8012 198.899 30.7379V41.6861H201.036V41.6881Z" fill="#141414"/>
<path d="M222.022 20.5366C222.012 20.5366 222.008 20.5416 222 20.5416C221.179 20.5416 220.382 21.1058 220.035 21.8696L214.674 38.0387H214.587L209.34 21.8776C208.997 21.1098 208.198 20.5406 207.374 20.5406C207.366 20.5406 207.361 20.5356 207.354 20.5356H204.635L211.811 40.2766C212.059 40.9829 212.561 42.0616 212.561 42.5155C212.561 42.9327 211.397 47.7403 207.911 47.7403C207.827 47.7403 207.741 47.7304 207.654 47.7244C206.765 47.6758 206.096 48.2966 205.943 49.2531L205.839 50.6031C206.543 50.7272 207.251 50.8941 208.496 50.8941C213.637 50.8941 215.171 46.2047 216.625 42.1421L224.422 20.5346H222.022V20.5366Z" fill="#141414"/>
</svg>
