<svg width="237" height="65" viewBox="0 0 237 65" fill="none" xmlns="http://www.w3.org/2000/svg">
<circle cx="33.481" cy="32.5" r="32.5" fill="#141414"/>
<path d="M28.9289 37.2577L28.3241 45.7646C29.1894 45.7646 29.5642 45.3929 30.0136 44.9465L34.0705 41.0694L42.4768 47.2256C44.0185 48.0848 45.1047 47.6323 45.5206 45.8073L51.0385 19.9515L51.04 19.95C51.5291 17.6709 50.2159 16.7797 48.7138 17.3388L16.2798 29.7563C14.0662 30.6155 14.0997 31.8495 15.9035 32.4086L24.1956 34.9878L43.4564 22.9359C44.3628 22.3357 45.187 22.6678 44.5091 23.268L28.9289 37.2577Z" fill="white"/>
<path d="M105.409 23.367H97.1262V47.1835H93.7459V23.367H85.481V20.4679H105.409V23.367Z" fill="#141414"/>
<path d="M115.439 47.5505C112.843 47.5505 110.731 46.6697 109.103 44.9083C107.475 43.1346 106.661 40.7676 106.661 37.8073V37.1835C106.661 35.2141 107.02 33.4587 107.74 31.9174C108.472 30.3639 109.486 29.1529 110.784 28.2844C112.094 27.4037 113.51 26.9633 115.032 26.9633C117.521 26.9633 119.456 27.8135 120.837 29.5138C122.217 31.2141 122.907 33.6483 122.907 36.8165V38.2294H109.935C109.982 40.1865 110.53 41.7706 111.581 42.9817C112.642 44.1804 113.987 44.7798 115.616 44.7798C116.772 44.7798 117.751 44.5352 118.554 44.0459C119.356 43.5566 120.058 42.9083 120.66 42.1009L122.659 43.7156C121.055 46.2722 118.648 47.5505 115.439 47.5505ZM115.032 29.7523C113.71 29.7523 112.601 30.2538 111.704 31.2569C110.808 32.2477 110.253 33.6422 110.041 35.4404H119.633V35.1835C119.539 33.4587 119.09 32.1254 118.288 31.1835C117.486 30.2294 116.4 29.7523 115.032 29.7523Z" fill="#141414"/>
<path d="M130.813 47.1835H127.539V19H130.813V47.1835Z" fill="#141414"/>
<path d="M144.56 47.5505C141.964 47.5505 139.852 46.6697 138.224 44.9083C136.596 43.1346 135.781 40.7676 135.781 37.8073V37.1835C135.781 35.2141 136.141 33.4587 136.861 31.9174C137.593 30.3639 138.607 29.1529 139.905 28.2844C141.215 27.4037 142.631 26.9633 144.153 26.9633C146.642 26.9633 148.577 27.8135 149.958 29.5138C151.338 31.2141 152.028 33.6483 152.028 36.8165V38.2294H139.056C139.103 40.1865 139.651 41.7706 140.702 42.9817C141.763 44.1804 143.108 44.7798 144.737 44.7798C145.893 44.7798 146.872 44.5352 147.675 44.0459C148.477 43.5566 149.179 42.9083 149.781 42.1009L151.78 43.7156C150.176 46.2722 147.769 47.5505 144.56 47.5505ZM144.153 29.7523C142.831 29.7523 141.722 30.2538 140.825 31.2569C139.929 32.2477 139.374 33.6422 139.162 35.4404H148.754V35.1835C148.66 33.4587 148.211 32.1254 147.409 31.1835C146.607 30.2294 145.521 29.7523 144.153 29.7523Z" fill="#141414"/>
<path d="M155.598 37.0917C155.598 33.9969 156.289 31.5382 157.669 29.7156C159.049 27.8807 160.878 26.9633 163.155 26.9633C165.491 26.9633 167.314 27.8196 168.624 29.5321L168.783 27.3303H171.774V46.7064C171.774 49.2752 171.037 51.2997 169.562 52.7798C168.099 54.2599 166.129 55 163.651 55C162.27 55 160.919 54.6942 159.598 54.0826C158.277 53.4709 157.268 52.633 156.572 51.5688L158.271 49.5321C159.675 51.3303 161.391 52.2294 163.421 52.2294C165.014 52.2294 166.252 51.7645 167.137 50.8349C168.034 49.9052 168.482 48.5963 168.482 46.9083V45.2018C167.173 46.7676 165.385 47.5505 163.12 47.5505C160.878 47.5505 159.061 46.6147 157.669 44.7431C156.289 42.8716 155.598 40.3211 155.598 37.0917ZM158.89 37.4771C158.89 39.7156 159.333 41.4771 160.217 42.7615C161.102 44.0336 162.341 44.6697 163.934 44.6697C165.999 44.6697 167.515 43.6972 168.482 41.7523V32.6881C167.48 30.792 165.975 29.844 163.969 29.844C162.377 29.844 161.132 30.4862 160.235 31.7706C159.338 33.055 158.89 34.9572 158.89 37.4771Z" fill="#141414"/>
<path d="M186.529 30.3761C186.034 30.2905 185.497 30.2477 184.919 30.2477C182.772 30.2477 181.314 31.1957 180.548 33.0917V47.1835H177.273V27.3303H180.459L180.512 29.6239C181.586 27.8502 183.108 26.9633 185.078 26.9633C185.715 26.9633 186.199 27.0489 186.529 27.2202V30.3761Z" fill="#141414"/>
<path d="M201.214 47.1835C201.025 46.792 200.872 46.0948 200.754 45.0917C199.232 46.7309 197.415 47.5505 195.303 47.5505C193.415 47.5505 191.863 47 190.648 45.8991C189.445 44.7859 188.843 43.3792 188.843 41.6789C188.843 39.6116 189.598 38.0092 191.108 36.8716C192.63 35.7217 194.766 35.1468 197.515 35.1468H200.701V33.5872C200.701 32.4006 200.358 31.4587 199.674 30.7615C198.99 30.052 197.981 29.6972 196.648 29.6972C195.48 29.6972 194.5 30.0031 193.71 30.6147C192.919 31.2263 192.524 31.9664 192.524 32.8349H189.232C189.232 31.844 189.569 30.8899 190.241 29.9725C190.925 29.0428 191.846 28.3089 193.002 27.7706C194.17 27.2324 195.45 26.9633 196.842 26.9633C199.049 26.9633 200.777 27.5382 202.028 28.6881C203.279 29.8257 203.927 31.3976 203.975 33.4037V42.5413C203.975 44.3639 204.199 45.8135 204.647 46.8899V47.1835H201.214ZM195.781 44.5963C196.807 44.5963 197.78 44.3211 198.701 43.7706C199.621 43.2202 200.288 42.5046 200.701 41.6239V37.5505H198.134C194.123 37.5505 192.117 38.7676 192.117 41.2018C192.117 42.2661 192.459 43.0979 193.144 43.6972C193.828 44.2966 194.707 44.5963 195.781 44.5963Z" fill="#141414"/>
<path d="M212.73 27.3303L212.819 29.5321C214.223 27.8196 216.116 26.9633 218.5 26.9633C221.178 26.9633 223.001 28.0275 223.968 30.156C224.606 29.2018 225.432 28.4312 226.446 27.844C227.473 27.2569 228.682 26.9633 230.074 26.9633C234.275 26.9633 236.41 29.2691 236.481 33.8807V47.1835H233.207V34.0826C233.207 32.6636 232.894 31.6055 232.269 30.9083C231.644 30.1988 230.593 29.844 229.119 29.844C227.903 29.844 226.895 30.2232 226.092 30.9817C225.29 31.7278 224.824 32.737 224.694 34.0092V47.1835H221.402V34.1743C221.402 31.2875 220.04 29.844 217.314 29.844C215.167 29.844 213.698 30.792 212.907 32.6881V47.1835H209.633V27.3303H212.73Z" fill="#141414"/>
</svg>
