<svg width="188" height="66" viewBox="0 0 188 66" fill="none" xmlns="http://www.w3.org/2000/svg">
<path d="M75.5 1L38 66L0 1H22L38.5 27.5L53.5 1H75.5Z" fill="#141414"/>
<path d="M37.5669 40.2499L38 41.0006L38.4331 40.2499L60.9331 1.24986L61.3657 0.5H60.5H46.5H46.2086L46.065 0.753494L38 14.9858L29.935 0.753494L29.7914 0.5H29.5H15.5H14.6343L15.0669 1.24986L37.5669 40.2499Z" fill="#141414" stroke="white"/>
<path d="M104.26 20.8H108.688L98.608 46.072H95.26L84.892 20.8H89.608L97.096 39.484L104.26 20.8ZM120.71 29.8H124.85V46H120.71V44.02C119.414 45.604 117.686 46.396 115.526 46.396C113.798 46.396 112.418 45.82 111.386 44.668C110.354 43.516 109.838 41.86 109.838 39.7V29.8H113.978V38.836C113.978 41.308 115.01 42.544 117.074 42.544C118.49 42.544 119.702 41.884 120.71 40.564V29.8ZM143.971 41.464L145.159 44.38C143.551 45.724 141.487 46.396 138.967 46.396C136.375 46.396 134.263 45.616 132.631 44.056C131.047 42.52 130.255 40.468 130.255 37.9C130.255 35.5 131.035 33.484 132.595 31.852C134.155 30.22 136.231 29.404 138.823 29.404C140.959 29.404 142.771 30.112 144.259 31.528C145.747 32.944 146.491 34.744 146.491 36.928C146.491 37.888 146.407 38.632 146.239 39.16H134.539C134.707 40.336 135.223 41.26 136.087 41.932C136.975 42.604 138.079 42.94 139.399 42.94C141.199 42.94 142.723 42.448 143.971 41.464ZM138.643 32.86C136.291 32.86 134.875 34.036 134.395 36.388H142.351C142.375 35.356 142.039 34.516 141.343 33.868C140.671 33.196 139.771 32.86 138.643 32.86ZM150.942 43.3C150.942 42.604 151.206 41.992 151.734 41.464C152.286 40.912 152.982 40.636 153.822 40.636C154.542 40.636 155.154 40.912 155.658 41.464C156.186 41.992 156.45 42.604 156.45 43.3C156.45 44.092 156.186 44.776 155.658 45.352C155.154 45.904 154.542 46.18 153.822 46.18C152.982 46.18 152.286 45.904 151.734 45.352C151.206 44.776 150.942 44.092 150.942 43.3ZM163.008 29.8H167.148V47.188C167.148 51.388 165.456 53.488 162.072 53.488C160.32 53.488 159 53.104 158.112 52.336L159.228 49.06C159.828 49.444 160.44 49.636 161.064 49.636C162.36 49.636 163.008 48.7 163.008 46.828V29.8ZM162.612 23.968C162.612 23.248 162.852 22.672 163.332 22.24C163.836 21.784 164.46 21.556 165.204 21.556C165.852 21.556 166.404 21.784 166.86 22.24C167.34 22.696 167.58 23.272 167.58 23.968C167.58 24.736 167.34 25.36 166.86 25.84C166.404 26.32 165.852 26.56 165.204 26.56C164.46 26.56 163.836 26.32 163.332 25.84C162.852 25.36 162.612 24.736 162.612 23.968ZM173.67 34.336C173.67 32.824 174.222 31.624 175.326 30.736C176.43 29.848 177.858 29.404 179.61 29.404C182.25 29.404 184.302 30.088 185.766 31.456L184.218 34.408C182.898 33.376 181.434 32.86 179.826 32.86C179.25 32.86 178.77 33.004 178.386 33.292C178.002 33.556 177.81 33.88 177.81 34.264C177.81 35.056 178.83 35.716 180.87 36.244C181.614 36.412 182.274 36.604 182.85 36.82C183.426 37.012 184.014 37.3 184.614 37.684C185.238 38.044 185.718 38.524 186.054 39.124C186.39 39.724 186.558 40.42 186.558 41.212C186.558 42.796 185.958 44.056 184.758 44.992C183.582 45.928 181.998 46.396 180.006 46.396C178.59 46.396 177.21 46.096 175.866 45.496C174.498 44.872 173.622 44.248 173.238 43.624L175.254 40.924C175.71 41.476 176.466 41.944 177.522 42.328C178.602 42.736 179.526 42.94 180.294 42.94C181.23 43.036 181.89 42.736 182.274 42.04C182.658 41.32 182.406 40.732 181.518 40.276C181.158 40.084 180.594 39.88 179.826 39.664C179.082 39.448 178.386 39.232 177.738 39.016C177.114 38.776 176.466 38.476 175.794 38.116C175.146 37.756 174.63 37.264 174.246 36.64C173.862 35.992 173.67 35.224 173.67 34.336Z" fill="#141414"/>
</svg>
