<svg width="217" height="74" viewBox="0 0 217 74" fill="none" xmlns="http://www.w3.org/2000/svg">
<path d="M92.5857 37.2655H84.506C94.4401 41.3716 92.8506 40.4444 94.9699 52.8951H98.8111L103.447 43.7558L105.169 52.8951H109.143L116.825 37.2655C111.262 37.2655 112.454 37.2655 107.818 46.5373L106.096 37.2655C101.195 36.7357 102.122 39.2523 98.1488 46.5373C97.0892 39.9146 96.5866 37.922 92.5857 37.2655Z" fill="#141414"/>
<path fill-rule="evenodd" clip-rule="evenodd" d="M121.196 46.14C121.726 49.5838 125.964 50.3785 131.13 48.2592L130.6 51.8355C124.905 55.2793 116.03 52.4978 116.957 45.0803C118.812 32.7621 135.369 35.1463 132.455 46.2724L121.196 46.14ZM121.461 43.4909H128.481C129.408 40.7093 123.713 38.0603 121.461 43.4909Z" fill="#141414"/>
<path fill-rule="evenodd" clip-rule="evenodd" d="M142.521 31.1726C138.925 30.8879 137.892 31.5906 137.62 34.2191L134.574 52.7627H139.077L139.342 50.9083C145.17 55.8092 151.131 52.3653 152.853 45.8751C153.78 38.1927 146.495 34.2191 141.197 38.9874L142.521 31.1726ZM140.418 43.8148L140.036 46.182C139.934 46.8148 140.166 47.4699 140.68 47.8532C149.977 54.79 151.436 35.3394 141.136 42.6458C140.754 42.9175 140.493 43.3513 140.418 43.8148Z" fill="#141414"/>
<path fill-rule="evenodd" clip-rule="evenodd" d="M157.224 37.2655L153.912 58.8556C156.674 59.1568 158.017 59.032 158.681 56.339L159.475 50.7759C174.974 62.8012 178.905 28.2276 161.462 38.9874L161.859 37.2655H157.224ZM160.548 43.9164L160.295 45.9372C160.197 46.7262 160.491 47.5286 161.135 47.9939C170.397 54.6776 171.173 35.4709 161.445 42.3708C160.941 42.7281 160.625 43.3035 160.548 43.9164Z" fill="#141414"/>
<path fill-rule="evenodd" clip-rule="evenodd" d="M177.886 37.9278L177.357 41.6365C182.92 39.3848 186.761 40.7093 185.966 44.1532C181.33 41.9014 174.707 42.6962 174.443 48.3917C174.443 53.8223 181.86 54.4846 185.304 51.1732C185.834 53.1601 188.748 53.5574 190.999 52.4978L191.529 49.4513C189.785 49.7877 189.435 49.292 189.675 47.4645C192.721 37.9278 187.026 35.0138 177.886 37.9278ZM185.403 47.0649L185.323 48.0313C185.311 48.1768 185.233 48.3163 185.117 48.4049C178.198 53.6907 175.656 43.1465 185.054 46.5269C185.275 46.6065 185.423 46.8307 185.403 47.0649Z" fill="#141414"/>
<path d="M198.284 37.398H193.516L198.152 52.2329C196.165 55.6767 194.368 55.8234 191.794 54.7495L191.264 58.5907C195.105 59.9152 198.152 58.9881 200.801 55.2793L211 37.398H207.556C206.567 37.5354 206.096 37.8087 205.437 38.7225L200.933 47.3321L198.284 37.398Z" fill="#141414"/>
<path d="M24.5041 31.9084L14.4375 14.6893L31.9215 24.4909L24.5041 31.9084Z" fill="#141414"/>
<path d="M41.9881 19.4576L36.8223 0.384186L31.5242 19.4576H41.9881Z" fill="#141414"/>
<path d="M49.1406 31.9084L41.7232 24.6234L59.0747 14.6893L49.1406 31.9084Z" fill="#141414"/>
<path d="M54.1739 41.9749V31.3785L78.678 36.6767L54.1739 41.9749Z" fill="#141414"/>
<path d="M49.1406 41.4451L41.7232 48.7301L59.0747 58.9291L49.1406 41.4451Z" fill="#141414"/>
<path d="M41.9881 53.8958H31.5242L36.9548 72.9693L41.9881 53.8958Z" fill="#141414"/>
<path d="M31.9215 48.995L24.6365 41.71L14.7024 58.7966L31.9215 48.995Z" fill="#141414"/>
<path d="M19.4708 41.9749V31.511L0 36.6767L19.4708 41.9749Z" fill="#141414"/>
</svg>
