<svg width="107" height="59" viewBox="0 0 107 59" fill="none" xmlns="http://www.w3.org/2000/svg">
<path fill-rule="evenodd" clip-rule="evenodd" d="M36.4349 16.3734C33.6027 8.58499 41.7452 0.265515 48.3831 0C52.3658 2.03562 55.8175 7.34592 55.6405 14.6033C55.1095 23.5424 48.6486 31.2423 41.6567 38.3227C41.2142 29.6492 39.3556 24.1619 36.4349 16.3734Z" fill="#141414"/>
<path fill-rule="evenodd" clip-rule="evenodd" d="M106.442 41.6859V16.0194C106.442 15.5769 106.088 15.2229 105.646 15.2229H101.929C101.486 15.2229 101.132 15.5769 101.132 16.0194V41.5974C101.132 42.0399 101.486 42.4824 101.929 42.4824H105.646C106.088 42.4824 106.442 42.1284 106.442 41.6859ZM86.8828 42.3939V15.3999C84.7587 15.4884 81.5725 16.816 81.5725 19.6481V38.1457C80.422 38.3227 78.6519 38.4997 77.6783 38.4997C74.2266 38.4997 73.3416 36.0216 73.3416 32.7469V19.4711C73.1646 16.2849 69.4473 15.3114 68.0313 15.3999V32.7469C68.0313 39.0307 71.2175 42.8365 77.6783 42.8365C78.6519 42.8365 80.6875 42.5709 81.5725 42.3939V42.748C82.3691 48.0583 75.9967 46.0226 72.4565 45.6686C69.8899 45.6686 68.1198 47.7927 67.6772 50.1824C69.1818 50.6249 74.0496 51.2444 77.5013 51.5985C83.6082 51.51 86.8828 48.1468 86.8828 42.3939ZM96.6184 41.6859V16.0194C96.6184 15.5769 96.2644 15.2229 95.8219 15.2229H92.1047C91.6621 15.2229 91.3081 15.5769 91.3081 16.0194V41.5974C91.3081 42.0399 91.6621 42.4824 92.1047 42.4824H95.8219C96.2644 42.4824 96.6184 42.1284 96.6184 41.6859ZM93.9633 7.96545C95.4678 7.96545 96.7069 9.20453 96.7069 10.7091C96.7069 12.2137 95.4678 13.4528 93.9633 13.4528C92.4587 13.4528 91.2196 12.2137 91.2196 10.7091C91.1311 9.20453 92.3702 7.96545 93.9633 7.96545ZM103.787 7.96545C105.292 7.96545 106.531 9.20453 106.531 10.7091C106.531 12.2137 105.292 13.4528 103.787 13.4528C102.283 13.4528 101.044 12.2137 101.044 10.7091C101.044 9.20453 102.283 7.96545 103.787 7.96545Z" fill="#141414"/>
<path fill-rule="evenodd" clip-rule="evenodd" d="M20.6808 58.6789C19.5302 50.0054 23.1589 42.5709 26.7877 38.0572C34.5761 28.3216 34.1336 22.4803 33.337 17.524C37.4083 23.8964 39.9749 31.5963 40.5944 38.4112C40.86 43.8985 36.7887 56.8203 20.6808 58.6789Z" fill="#141414"/>
<path fill-rule="evenodd" clip-rule="evenodd" d="M15.1051 25.578C3.33391 22.3918 0.413237 12.2137 0.944268 5.39882C12.3614 0.885059 24.7521 5.48732 31.8325 15.2229C36.7888 22.0378 39.975 30.7113 40.5946 38.3227C37.1429 33.8975 32.8061 31.3308 27.3188 29.3837C23.6016 27.9676 20.0614 27.0826 15.1051 25.578Z" fill="#141414"/>
<path fill-rule="evenodd" clip-rule="evenodd" d="M33.3375 17.4355C33.426 17.524 33.5145 17.701 33.603 17.7895L33.6915 17.9665C33.8685 18.2321 34.0456 18.5861 34.2226 18.8516V18.9401L34.3111 19.0286V19.1171L34.3996 19.2941L34.5766 19.5596C34.6651 19.7366 34.8421 20.0022 34.9306 20.2677L35.1076 20.5332L35.2846 20.7987V20.8872L35.3731 21.0642L35.4616 21.2412L35.5501 21.4182C35.6386 21.5953 35.7272 21.7723 35.8157 22.0378V22.1263C35.9927 22.4803 36.1697 22.8343 36.3467 23.1883L36.4352 23.4539L36.5237 23.6309L36.6122 23.8079L36.7007 23.8964L36.7892 24.0734L36.8777 24.2504L36.9662 24.5159L37.1432 24.8699C37.3202 25.224 37.4088 25.578 37.5858 25.932L37.6743 26.1975L37.7628 26.3745C37.8513 26.5515 37.9398 26.7286 37.9398 26.9941V27.0826C38.0283 27.2596 38.1168 27.5251 38.2053 27.7021V27.7906C38.2938 27.9676 38.3823 28.2331 38.3823 28.4101V28.4987L38.4708 28.8527L38.5593 29.2067L38.6478 29.5607L38.7363 29.8262V29.9147L38.8248 30.0917C38.9133 30.2688 38.9133 30.4458 39.0018 30.7113V30.8883L39.0903 31.1538C39.1789 31.5078 39.2674 31.8618 39.3559 32.2159C39.4444 32.6584 39.5329 33.1894 39.6214 33.6319V33.7205C39.7984 34.4285 39.8869 35.225 39.9754 35.9331C39.9754 36.1986 40.0639 36.3756 40.0639 36.6411V36.7296V37.0836V37.3492V37.4377V37.7032V37.7917V38.1457C37.4973 34.871 34.4881 32.6584 30.8594 30.8883C34.3111 25.224 33.9571 21.0642 33.3375 17.4355Z" fill="#141414"/>
</svg>
