<svg width="188" height="35" viewBox="0 0 188 35" fill="none" xmlns="http://www.w3.org/2000/svg">
<path d="M42.5486 25.3694H41.0337V8.70609H32.1728V10.3344C32.1728 15.4094 31.9829 21.3171 30.241 25.3694H29.0667V31.4145H31.7189V27.7934H39.8976V31.4145H42.5498V25.3694H42.5486ZM55.3878 26.5056L54.7068 24.2333C53.9482 24.7637 52.6233 25.5212 50.9555 25.5212C48.608 25.5212 47.3966 23.2489 47.3966 18.9313H55.3496V17.3042C55.3496 10.829 53.2672 8.44207 50.0858 8.44207C46.0335 8.44207 44.3287 12.9102 44.3287 19.046C44.3287 24.9167 46.7539 28.0599 50.6915 28.0599C52.5851 28.0599 54.1752 27.4542 55.3866 26.5068L55.3878 26.5056ZM24.4457 8.70609V16.8108H20.054V8.70609H17.0996V27.7934H20.054V19.2348H24.4469V27.7934H27.3619V8.70609H24.4469H24.4457ZM66.3717 27.7934H69.5901L64.1746 17.6817L68.9091 8.70609H65.9141L61.3325 17.53V8.70609H58.3781V27.7934H61.3325V18.2874L66.3705 27.7934H66.3717ZM76.5204 28.0587C78.2635 28.0587 79.4749 27.49 80.4975 26.6191L79.8165 24.4233C79.1344 25.029 78.0365 25.5964 76.5969 25.5964C74.2111 25.5964 73.075 22.8702 73.075 18.0986C73.075 13.2889 74.5898 10.9031 76.7104 10.9031C77.9218 10.9031 79.0579 11.547 79.8524 12.2292L80.2705 9.42529C79.4366 8.89604 78.4522 8.44087 76.7486 8.44087C72.2793 8.44087 69.9688 12.2662 69.9688 18.2492C69.9688 24.7637 72.4299 28.0575 76.5204 28.0575V28.0587ZM38.1199 25.3706H33.0449C34.6351 21.3171 34.825 15.4477 34.825 11.4335V11.0919H38.1199V25.3694V25.3706ZM50.0846 10.8649C51.7882 10.8649 52.3187 13.2506 52.3187 16.5073H47.4324C47.6236 13.0989 48.2663 10.8649 50.0846 10.8649Z" fill="#141414"/>
<path d="M10.6696 17.4165V27.7935H13.5846V0.714905H9.23C4.95067 0.714905 1.3523 3.55585 1.3523 9.23654C1.3523 13.2889 2.94361 15.4847 5.32938 16.6973L0.254395 27.7935H3.62458L8.24559 17.4165H10.6696ZM10.6696 14.9925H9.11651C6.57901 14.9925 4.4955 13.5911 4.4955 9.23654C4.4955 4.73021 6.76777 3.17713 9.11651 3.17713H10.6696V14.9925Z" fill="#141414"/>
<path fill-rule="evenodd" clip-rule="evenodd" d="M95.0745 9.57653C94.6958 8.17637 94.3936 6.96377 94.1666 5.71533H94.0531C94.1283 7.002 94.1666 8.36513 94.1666 9.72825V28.6973H92.5V1.62595H94.6958L99.2774 18.9285C99.4662 19.6477 99.7314 21.049 99.8449 22.0705H99.9584C100.11 21.049 100.414 19.6094 100.602 18.9285L105.222 1.62595H107.343V28.6973H105.524V9.72825C105.524 8.44039 105.601 7.07846 105.676 5.71533H105.524C105.247 6.97056 104.944 8.22005 104.616 9.46303L100.565 24.5327H99.0874L95.0745 9.57653ZM112.102 19.4565H120.737C121.343 12.6779 119.223 9.23127 115.928 9.23127C112.709 9.23127 110.36 12.9049 110.36 19.1543C110.36 25.4024 112.216 29.076 116.268 29.076C119.298 29.076 120.736 26.9173 120.736 26.9173L120.169 25.4777C120.169 25.4777 118.843 27.523 116.306 27.523C113.542 27.523 112.179 24.6832 112.102 19.4565ZM115.928 10.7079C117.859 10.7079 119.374 12.9802 119.071 18.0551H112.14C112.292 13.2836 113.921 10.7079 115.928 10.7079ZM133.215 11.0866V9.60998H122.606V11.0866H127.038V28.6973H128.819V11.0878H133.215V11.0866ZM159.391 28.6973H161.095V9.60998H159.542L153.333 23.0166C152.954 23.8493 152.576 24.6832 152.31 25.5541H152.197C152.272 24.7203 152.349 23.8876 152.349 22.8661V9.60878H150.681V28.6973H152.196L158.407 15.2524C158.812 14.4602 159.154 13.6373 159.429 12.7914H159.543C159.449 13.6593 159.398 14.5313 159.391 15.4042V28.6973ZM167.108 18.8126L173.734 28.6973H175.704L168.963 18.4721L175.249 9.60998H173.507L167.108 18.5856V9.60998H165.328V28.6973H167.108V18.8126ZM144.23 25.4311C144.962 23.9796 145.329 21.7383 145.329 18.7074C145.329 16.1831 145.013 14.225 144.381 12.8368C143.75 11.4474 142.878 10.7533 141.767 10.7533C141.338 10.7533 140.929 10.8608 140.537 11.0758C140.145 11.2909 139.779 11.574 139.438 11.9277C139.082 12.3009 138.771 12.7138 138.511 13.1582C138.233 13.6249 137.992 14.1126 137.79 14.6169V25.2985C138.169 26.0822 138.636 26.6628 139.192 27.0415C139.747 27.4202 140.454 27.609 141.313 27.609C142.526 27.609 143.497 26.8838 144.23 25.4311ZM139.212 28.5372C138.654 28.252 138.168 27.8439 137.79 27.3438V34.5787H136.01V9.57892H137.563L137.715 12.7233C138.141 11.8186 138.718 10.9925 139.42 10.2802C140.126 9.5598 141.01 9.20021 142.071 9.20021C142.853 9.20021 143.56 9.42719 144.192 9.88117C144.823 10.3363 145.354 10.9743 145.783 11.795C146.213 12.6158 146.54 13.6002 146.768 14.7495C146.995 15.8988 147.109 17.1675 147.109 18.5569C147.109 22.0669 146.566 24.6856 145.48 26.4167C144.393 28.1466 142.967 29.0103 141.2 29.0103C140.508 29.0203 139.824 28.8577 139.211 28.5372H139.212ZM186.095 28.6973H187.723C187.496 27.9781 187.306 26.5003 187.306 25.1754V14.7602C187.306 10.9731 185.526 9.23127 182.384 9.23127C180.224 9.23127 178.634 10.1786 177.876 11.1631L178.369 12.8667C179.277 11.5406 180.754 10.7843 182.383 10.7843C184.466 10.7843 185.564 12.034 185.564 14.9502V17.336H183.482C179.353 17.336 177.119 19.4565 177.119 23.5471C177.119 27.0308 178.899 29.076 181.474 29.076C183.367 29.076 184.731 27.9399 185.639 26.1216C185.754 27.4859 185.943 28.2051 186.093 28.6973H186.095ZM181.853 27.6365C180.035 27.6365 178.861 26.0834 178.861 23.3954C178.861 20.0622 180.376 18.6238 183.52 18.6238H185.564V23.8876C184.883 25.9329 183.632 27.6365 181.852 27.6365H181.853Z" fill="#141414"/>
</svg>
