<svg width="239" height="31" viewBox="0 0 239 31" fill="none" xmlns="http://www.w3.org/2000/svg">
<path d="M23.5486 6.43509H14.693V30.6015H8.7364V6.43509H0V1.59383H23.5486V6.43509Z" fill="black"/>
<path d="M34.6875 31C31.5371 31 28.9691 30.0304 26.9836 28.0913C25.0112 26.1521 24.0251 23.5688 24.0251 20.3413V19.7834C24.0251 17.6185 24.4421 15.6859 25.276 13.9859C26.1099 12.2725 27.288 10.9576 28.8103 10.0411C30.3457 9.1114 32.093 8.64653 34.0521 8.64653C36.9907 8.64653 39.3005 9.57626 40.9816 11.4357C42.676 13.2952 43.5231 15.9317 43.5231 19.3451V21.696H29.8427C30.0281 23.1039 30.584 24.2329 31.5106 25.0829C32.4504 25.9329 33.6351 26.358 35.0647 26.358C37.2753 26.358 39.0027 25.5544 40.247 23.9473L43.0665 27.115C42.2061 28.337 41.0412 29.2933 39.5719 29.9839C38.1026 30.6613 36.4745 31 34.6875 31ZM34.0322 13.3085C32.8939 13.3085 31.9673 13.6937 31.2525 14.464C30.5509 15.2344 30.1009 16.3368 29.9023 17.7712H37.8842V17.313C37.8577 16.0379 37.5136 15.0551 36.8517 14.3644C36.1899 13.6605 35.25 13.3085 34.0322 13.3085Z" fill="black"/>
<path d="M55.7342 26.358C56.7932 26.358 57.6536 26.0658 58.3154 25.4814C58.9773 24.897 59.3215 24.12 59.3479 23.1504H64.7288C64.7155 24.6114 64.3184 25.9529 63.5374 27.1748C62.7564 28.3835 61.6843 29.3265 60.3208 30.0039C58.9707 30.668 57.4749 31 55.8335 31C52.7625 31 50.3402 30.0238 48.5664 28.0713C46.7927 26.1056 45.9058 23.3961 45.9058 19.9428V19.5643C45.9058 16.2438 46.786 13.594 48.5466 11.615C50.3071 9.63603 52.7228 8.64653 55.7938 8.64653C58.4809 8.64653 60.6319 9.41688 62.2468 10.9576C63.875 12.485 64.7023 14.5238 64.7288 17.0739H59.3479C59.3215 15.9582 58.9773 15.0551 58.3154 14.3644C57.6536 13.6605 56.78 13.3085 55.6945 13.3085C54.3576 13.3085 53.345 13.7999 52.6566 14.7828C51.9816 15.7524 51.644 17.3329 51.644 19.5244V20.1221C51.644 22.3402 51.9816 23.934 52.6566 24.9036C53.3317 25.8732 54.3576 26.358 55.7342 26.358Z" fill="black"/>
<path d="M73.6041 11.3959C75.1264 9.56298 77.0391 8.64653 79.3424 8.64653C84.0018 8.64653 86.3646 11.3627 86.4308 16.795V30.6015H80.6925V16.9544C80.6925 15.7192 80.4278 14.8093 79.8983 14.2249C79.3688 13.6272 78.4886 13.3284 77.2575 13.3284C75.5764 13.3284 74.3586 13.9792 73.6041 15.2808V30.6015H67.8659V0H73.6041V11.3959Z" fill="black"/>
<path d="M96.0408 9.04499L96.2195 11.5353C97.755 9.60947 99.8133 8.64653 102.395 8.64653C104.671 8.64653 106.366 9.31727 107.478 10.6587C108.589 12.0002 109.159 14.0058 109.185 16.6754V30.6015H103.447V16.8149C103.447 15.593 103.182 14.7097 102.653 14.1652C102.123 13.6073 101.243 13.3284 100.012 13.3284C98.397 13.3284 97.1858 14.0191 96.3783 15.4004V30.6015H90.6401V9.04499H96.0408Z" fill="black"/>
<path d="M112.66 19.624C112.66 17.4856 113.07 15.5797 113.891 13.9062C114.712 12.2326 115.89 10.9377 117.425 10.0212C118.974 9.10476 120.767 8.64653 122.806 8.64653C125.705 8.64653 128.068 9.53642 129.894 11.3162C131.734 13.096 132.76 15.5133 132.972 18.5681L133.012 20.0424C133.012 23.3496 132.092 26.006 130.252 28.0116C128.412 30.0039 125.943 31 122.846 31C119.748 31 117.273 30.0039 115.42 28.0116C113.58 26.0193 112.66 23.3098 112.66 19.883V19.624ZM118.398 20.0424C118.398 22.0878 118.782 23.6551 119.55 24.7442C120.317 25.8201 121.416 26.358 122.846 26.358C124.236 26.358 125.321 25.8267 126.102 24.7641C126.883 23.6883 127.273 21.9749 127.273 19.624C127.273 17.6185 126.883 16.0645 126.102 14.9621C125.321 13.8597 124.222 13.3085 122.806 13.3085C121.403 13.3085 120.317 13.8597 119.55 14.9621C118.782 16.0512 118.398 17.7446 118.398 20.0424Z" fill="black"/>
<path d="M143.416 3.7455V9.04499H147.089V13.2686H143.416V24.027C143.416 24.8239 143.568 25.395 143.873 25.7404C144.177 26.0857 144.759 26.2584 145.62 26.2584C146.255 26.2584 146.818 26.2119 147.308 26.1189V30.482C146.182 30.8273 145.024 31 143.833 31C139.809 31 137.757 28.9612 137.678 24.8837V13.2686H134.54V9.04499H137.678V3.7455H143.416Z" fill="black"/>
<path d="M156.342 30.6015H150.584V9.04499H156.342V30.6015ZM150.246 3.46658C150.246 2.60326 150.531 1.89267 151.1 1.33483C151.682 0.776992 152.47 0.498072 153.463 0.498072C154.442 0.498072 155.223 0.776992 155.806 1.33483C156.388 1.89267 156.679 2.60326 156.679 3.46658C156.679 4.34319 156.382 5.06041 155.786 5.61825C155.203 6.17609 154.429 6.45501 153.463 6.45501C152.496 6.45501 151.715 6.17609 151.12 5.61825C150.537 5.06041 150.246 4.34319 150.246 3.46658Z" fill="black"/>
<path d="M167.143 30.6015H161.385V0H167.143V30.6015Z" fill="black"/>
<path d="M181.777 31C178.626 31 176.058 30.0304 174.073 28.0913C172.1 26.1521 171.114 23.5688 171.114 20.3413V19.7834C171.114 17.6185 171.531 15.6859 172.365 13.9859C173.199 12.2725 174.377 10.9576 175.899 10.0411C177.435 9.1114 179.182 8.64653 181.141 8.64653C184.08 8.64653 186.39 9.57626 188.071 11.4357C189.765 13.2952 190.612 15.9317 190.612 19.3451V21.696H176.932C177.117 23.1039 177.673 24.2329 178.6 25.0829C179.54 25.9329 180.724 26.358 182.154 26.358C184.364 26.358 186.092 25.5544 187.336 23.9473L190.156 27.115C189.295 28.337 188.13 29.2933 186.661 29.9839C185.192 30.6613 183.564 31 181.777 31ZM181.121 13.3085C179.983 13.3085 179.056 13.6937 178.342 14.464C177.64 15.2344 177.19 16.3368 176.991 17.7712H184.973V17.313C184.947 16.0379 184.603 15.0551 183.941 14.3644C183.279 13.6605 182.339 13.3085 181.121 13.3085Z" fill="black"/>
<path d="M194.186 27.7725C194.186 26.856 194.491 26.1123 195.1 25.5411C195.722 24.97 196.496 24.6844 197.423 24.6844C198.363 24.6844 199.137 24.97 199.746 25.5411C200.368 26.1123 200.679 26.856 200.679 27.7725C200.679 28.6757 200.375 29.4128 199.766 29.9839C199.157 30.5418 198.376 30.8207 197.423 30.8207C196.483 30.8207 195.709 30.5418 195.1 29.9839C194.491 29.4128 194.186 28.6757 194.186 27.7725Z" fill="black"/>
<path d="M217.794 14.4441C217.013 14.3378 216.325 14.2847 215.729 14.2847C213.559 14.2847 212.136 15.0219 211.46 16.4961V30.6015H205.722V9.04499H211.143L211.302 11.615C212.453 9.63603 214.048 8.64653 216.087 8.64653C216.722 8.64653 217.318 8.73286 217.874 8.90553L217.794 14.4441Z" fill="black"/>
<path d="M233.44 28.41C232.024 30.1367 230.065 31 227.563 31C225.26 31 223.5 30.3359 222.282 29.0077C221.077 27.6795 220.462 25.7337 220.435 23.1703V9.04499H226.173V22.9711C226.173 25.2157 227.193 26.338 229.231 26.338C231.177 26.338 232.514 25.6607 233.242 24.3059V9.04499H239V30.6015H233.599L233.44 28.41Z" fill="black"/>
</svg>
