<svg width="187" height="187" viewBox="0 0 187 187" fill="none" xmlns="http://www.w3.org/2000/svg">
<path d="M93.5 187C145.139 187 187 145.139 187 93.5C187 41.8614 145.139 0 93.5 0C41.8614 0 0 41.8614 0 93.5C0 145.139 41.8614 187 93.5 187Z" fill="#34AADF"/>
<path d="M38.9136 92.6891C38.9136 92.6891 85.6635 73.5029 101.877 66.747C108.093 64.0448 129.171 55.3972 129.171 55.3972C129.171 55.3972 138.899 51.6142 138.088 60.8019C137.818 64.5853 135.656 77.8264 133.494 92.1487C130.251 112.416 126.738 134.575 126.738 134.575C126.738 134.575 126.198 140.79 121.604 141.871C117.01 142.952 109.444 138.088 108.093 137.007C107.011 136.197 87.8252 124.036 80.7993 118.091C78.9076 116.47 76.7459 113.227 81.0693 109.444C90.7978 100.526 102.418 89.4466 109.444 82.4206C112.686 79.1776 115.929 71.6112 102.418 80.7989C83.2314 94.0404 64.3152 106.471 64.3152 106.471C64.3152 106.471 59.9914 109.173 51.8846 106.741C43.7774 104.309 34.3194 101.066 34.3194 101.066C34.3194 101.066 27.8342 97.013 38.9136 92.6891Z" fill="white"/>
</svg>
