<svg width="1045" height="647" viewBox="0 0 1045 647" fill="none" xmlns="http://www.w3.org/2000/svg">
<path d="M792.316 239.04C792.316 236.279 794.555 234.04 797.316 234.04H1041V643H792.316V239.04Z" fill="#F6F4F2"/>
<path d="M83.6182 140.563V91.5784C83.6182 88.8169 85.8567 86.5784 88.6182 86.5784H281.103C283.865 86.5784 286.103 88.8169 286.103 91.5784V140.563C286.103 143.324 283.865 145.563 281.103 145.563H88.6182C85.8567 145.563 83.6182 143.324 83.6182 140.563Z" stroke="#C5CDCF" stroke-width="5"/>
<path d="M159.462 122.952V106.437H163.236V119.413H169.96V122.952H159.462Z" fill="#C5CDCF"/>
<path d="M173.685 121.655C172.616 120.601 172.081 119.264 172.081 117.644C172.081 116.023 172.616 114.687 173.685 113.633C174.77 112.579 176.201 112.052 177.979 112.052C179.756 112.052 181.179 112.579 182.249 113.633C183.334 114.687 183.876 116.023 183.876 117.644C183.876 119.264 183.334 120.601 182.249 121.655C181.179 122.708 179.756 123.235 177.979 123.235C176.201 123.235 174.77 122.708 173.685 121.655ZM175.855 117.644C175.855 118.304 176.052 118.855 176.445 119.295C176.854 119.72 177.365 119.932 177.979 119.932C178.592 119.932 179.095 119.728 179.488 119.319C179.897 118.91 180.102 118.351 180.102 117.644C180.102 116.967 179.897 116.417 179.488 115.992C179.08 115.567 178.576 115.355 177.979 115.355C177.381 115.355 176.878 115.567 176.469 115.992C176.06 116.401 175.855 116.952 175.855 117.644Z" fill="#C5CDCF"/>
<path d="M185.753 124.321C185.753 123.44 186.068 122.716 186.697 122.15C187.326 121.584 188.183 121.191 189.268 120.97C189.174 120.782 189.127 120.585 189.127 120.38C189.127 120.145 189.182 119.94 189.292 119.767C188.474 119.437 187.829 118.949 187.358 118.304C186.901 117.644 186.673 116.92 186.673 116.134C186.673 115.017 187.098 114.057 187.947 113.255C188.812 112.453 189.952 112.052 191.368 112.052C192.406 112.052 193.31 112.288 194.081 112.76L197.407 112.099L197.525 114.93L195.944 115.237C196.023 115.583 196.062 115.882 196.062 116.134C196.062 117.187 195.661 118.1 194.859 118.87C194.073 119.625 193.035 120.042 191.745 120.121C191.73 120.184 191.722 120.27 191.722 120.38C191.722 120.506 191.745 120.64 191.793 120.782C193.334 120.829 194.592 121.151 195.567 121.749C196.542 122.347 197.03 123.204 197.03 124.321C197.03 125.485 196.503 126.365 195.449 126.963C194.395 127.561 193.043 127.86 191.391 127.86C189.724 127.86 188.364 127.569 187.31 126.987C186.272 126.405 185.753 125.516 185.753 124.321ZM189.056 124.321C189.056 124.793 189.835 125.028 191.391 125.028C192.948 125.028 193.727 124.793 193.727 124.321C193.727 123.833 192.948 123.589 191.391 123.589C189.835 123.589 189.056 123.833 189.056 124.321ZM190.354 115.261C190.102 115.497 189.976 115.788 189.976 116.134C189.976 116.48 190.094 116.763 190.33 116.983C190.582 117.187 190.928 117.29 191.368 117.29C191.777 117.29 192.107 117.187 192.359 116.983C192.626 116.778 192.76 116.495 192.76 116.134C192.76 115.772 192.642 115.473 192.406 115.237C192.17 115.001 191.824 114.883 191.368 114.883C190.943 114.883 190.605 115.009 190.354 115.261Z" fill="#C5CDCF"/>
<path d="M201.132 121.655C200.063 120.601 199.528 119.264 199.528 117.644C199.528 116.023 200.063 114.687 201.132 113.633C202.217 112.579 203.648 112.052 205.426 112.052C207.203 112.052 208.626 112.579 209.696 113.633C210.781 114.687 211.323 116.023 211.323 117.644C211.323 119.264 210.781 120.601 209.696 121.655C208.626 122.708 207.203 123.235 205.426 123.235C203.648 123.235 202.217 122.708 201.132 121.655ZM203.303 117.644C203.303 118.304 203.499 118.855 203.892 119.295C204.301 119.72 204.812 119.932 205.426 119.932C206.039 119.932 206.542 119.728 206.935 119.319C207.344 118.91 207.549 118.351 207.549 117.644C207.549 116.967 207.344 116.417 206.935 115.992C206.527 115.567 206.023 115.355 205.426 115.355C204.828 115.355 204.325 115.567 203.916 115.992C203.507 116.401 203.303 116.952 203.303 117.644Z" fill="#C5CDCF"/>
<path d="M97.3788 229.125H91.088V201.599C91.5598 201.599 92.8835 201.585 95.0591 201.559C97.2609 201.533 98.7418 201.52 99.502 201.52C103.408 201.52 106.238 202.385 107.995 204.115C109.751 205.819 110.629 207.995 110.629 210.643C110.629 213.212 109.698 215.401 107.837 217.21C105.976 218.992 103.512 219.884 100.446 219.884C99.0564 219.884 98.0341 219.844 97.3788 219.766V229.125ZM100.131 207.418C100.026 207.418 99.1088 207.445 97.3788 207.497V213.789C98.3749 213.92 99.3316 213.985 100.249 213.985C101.245 213.985 102.11 213.723 102.844 213.199C103.578 212.675 103.945 211.809 103.945 210.604C103.945 208.48 102.674 207.418 100.131 207.418Z" fill="#141414"/>
<path d="M116.334 216.974L114.879 212.688C115.639 212.216 116.622 211.809 117.828 211.469C119.06 211.128 120.266 210.957 121.445 210.957C124.066 210.957 125.94 211.587 127.068 212.845C128.221 214.103 128.798 215.978 128.798 218.468V229.125H123.686V227.512C122.821 228.745 121.275 229.361 119.047 229.361C117.395 229.361 116.046 228.876 114.997 227.906C113.975 226.91 113.464 225.533 113.464 223.777C113.464 221.863 114.053 220.408 115.233 219.412C116.439 218.416 117.972 217.918 119.833 217.918C121.301 217.918 122.454 218.245 123.293 218.901C123.398 216.882 122.585 215.873 120.855 215.873C119.702 215.873 118.195 216.24 116.334 216.974ZM121.052 224.445C122.1 224.445 122.847 224.144 123.293 223.541V222.44C122.743 222.047 121.996 221.85 121.052 221.85C120.554 221.85 120.148 221.968 119.833 222.204C119.519 222.44 119.361 222.768 119.361 223.187C119.361 223.58 119.519 223.895 119.833 224.131C120.148 224.34 120.554 224.445 121.052 224.445Z" fill="#141414"/>
<path d="M147.9 222.125L150.652 226.451C149.132 228.548 146.72 229.597 143.418 229.597C140.482 229.597 138.123 228.745 136.34 227.041C134.584 225.337 133.706 223.082 133.706 220.277C133.706 217.656 134.571 215.453 136.301 213.671C138.057 211.862 140.311 210.957 143.064 210.957C146.288 210.957 148.699 211.796 150.298 213.474L147.585 218.114C146.484 217.013 145.226 216.463 143.811 216.463C142.815 216.463 141.923 216.804 141.137 217.485C140.377 218.167 139.997 219.097 139.997 220.277C139.997 221.404 140.39 222.322 141.176 223.03C141.989 223.737 142.893 224.091 143.889 224.091C145.331 224.091 146.668 223.436 147.9 222.125Z" fill="#141414"/>
<path d="M167.989 222.125L170.741 226.451C169.22 228.548 166.809 229.597 163.506 229.597C160.571 229.597 158.212 228.745 156.429 227.041C154.673 225.337 153.795 223.082 153.795 220.277C153.795 217.656 154.66 215.453 156.39 213.671C158.146 211.862 160.4 210.957 163.152 210.957C166.377 210.957 168.788 211.796 170.387 213.474L167.674 218.114C166.573 217.013 165.315 216.463 163.899 216.463C162.903 216.463 162.012 216.804 161.226 217.485C160.466 218.167 160.086 219.097 160.086 220.277C160.086 221.404 160.479 222.322 161.265 223.03C162.078 223.737 162.982 224.091 163.978 224.091C165.42 224.091 166.757 223.436 167.989 222.125Z" fill="#141414"/>
<path d="M175.827 236.989V211.429H181.724V212.766C182.93 211.56 184.568 210.957 186.639 210.957C188.998 210.957 190.898 211.809 192.34 213.513C193.808 215.191 194.542 217.354 194.542 220.002C194.542 222.754 193.664 225.048 191.907 226.883C190.151 228.692 187.858 229.597 185.027 229.597C183.69 229.597 182.589 229.413 181.724 229.046V236.989H175.827ZM184.791 216.463C183.69 216.463 182.668 216.987 181.724 218.036V223.423C182.484 223.869 183.402 224.091 184.476 224.091C185.708 224.091 186.639 223.724 187.268 222.99C187.923 222.23 188.251 221.273 188.251 220.12C188.251 219.045 187.936 218.167 187.307 217.485C186.704 216.804 185.866 216.463 184.791 216.463Z" fill="#141414"/>
<path d="M201.522 226.962C199.74 225.206 198.849 222.977 198.849 220.277C198.849 217.577 199.74 215.349 201.522 213.592C203.331 211.836 205.716 210.957 208.678 210.957C211.64 210.957 214.012 211.836 215.795 213.592C217.603 215.349 218.508 217.577 218.508 220.277C218.508 222.977 217.603 225.206 215.795 226.962C214.012 228.718 211.64 229.597 208.678 229.597C205.716 229.597 203.331 228.718 201.522 226.962ZM205.14 220.277C205.14 221.378 205.467 222.296 206.123 223.03C206.804 223.737 207.656 224.091 208.678 224.091C209.7 224.091 210.539 223.751 211.194 223.069C211.876 222.387 212.217 221.457 212.217 220.277C212.217 219.15 211.876 218.232 211.194 217.524C210.513 216.817 209.674 216.463 208.678 216.463C207.682 216.463 206.843 216.817 206.162 217.524C205.48 218.206 205.14 219.124 205.14 220.277Z" fill="#141414"/>
<path d="M239.132 211.429V229.125H233.235V223.777C232.108 224.275 230.797 224.524 229.303 224.524C226.996 224.524 225.332 223.921 224.31 222.715C223.314 221.509 222.816 219.74 222.816 217.406V211.429H229.106V216.62C229.106 218.219 229.735 219.019 230.994 219.019C231.963 219.019 232.711 218.888 233.235 218.625V211.429H239.132Z" fill="#141414"/>
<path d="M245.423 229.125V211.429H251.321V219.609L256.118 211.429H263.509L257.769 219.844L264.374 229.125H256.747L251.321 220.867V229.125H245.423Z" fill="#141414"/>
<path d="M270.241 216.974L268.786 212.688C269.546 212.216 270.529 211.809 271.735 211.469C272.967 211.128 274.172 210.957 275.352 210.957C277.973 210.957 279.847 211.587 280.974 212.845C282.128 214.103 282.704 215.978 282.704 218.468V229.125H277.593V227.512C276.728 228.745 275.181 229.361 272.953 229.361C271.302 229.361 269.952 228.876 268.904 227.906C267.881 226.91 267.37 225.533 267.37 223.777C267.37 221.863 267.96 220.408 269.14 219.412C270.345 218.416 271.879 217.918 273.74 217.918C275.208 217.918 276.361 218.245 277.2 218.901C277.305 216.882 276.492 215.873 274.762 215.873C273.609 215.873 272.102 216.24 270.241 216.974ZM274.959 224.445C276.007 224.445 276.754 224.144 277.2 223.541V222.44C276.649 222.047 275.902 221.85 274.959 221.85C274.461 221.85 274.054 221.968 273.74 222.204C273.425 222.44 273.268 222.768 273.268 223.187C273.268 223.58 273.425 223.895 273.74 224.131C274.054 224.34 274.461 224.445 274.959 224.445Z" fill="#141414"/>
<path d="M311.329 201.127L314.396 206.003C313.662 206.789 312.849 207.366 311.958 207.733C311.067 208.074 310.071 208.375 308.97 208.637C307.869 208.9 306.952 209.227 306.218 209.62C304.435 210.564 303.413 212.124 303.151 214.3H303.229C303.754 213.592 304.514 213.002 305.51 212.53C306.532 212.059 307.581 211.823 308.655 211.823C310.988 211.823 312.875 212.609 314.317 214.182C315.759 215.729 316.479 217.813 316.479 220.434C316.479 223.003 315.615 225.179 313.885 226.962C312.155 228.718 309.874 229.597 307.043 229.597C303.977 229.597 301.578 228.574 299.848 226.529C298.118 224.485 297.253 221.719 297.253 218.232C297.253 210.735 299.521 205.99 304.055 203.997C304.973 203.604 305.956 203.289 307.004 203.054C308.052 202.791 308.891 202.542 309.52 202.306C310.176 202.07 310.778 201.677 311.329 201.127ZM303.544 219.491C303.57 220.749 303.872 221.837 304.448 222.754C305.025 223.646 305.838 224.091 306.886 224.091C307.961 224.091 308.773 223.777 309.324 223.148C309.9 222.492 310.189 221.68 310.189 220.71C310.189 219.74 309.927 218.94 309.402 218.311C308.878 217.656 308.118 217.328 307.122 217.328C305.392 217.328 304.199 218.049 303.544 219.491Z" fill="#141414"/>
<path d="M335.664 223.423L337.276 227.591C335.494 228.928 333.2 229.597 330.396 229.597C327.486 229.597 325.153 228.745 323.397 227.041C321.667 225.337 320.802 223.082 320.802 220.277C320.802 217.629 321.68 215.414 323.437 213.631C325.219 211.849 327.539 210.957 330.396 210.957C332.755 210.957 334.773 211.744 336.451 213.317C338.128 214.864 338.967 216.856 338.967 219.294C338.967 220.474 338.849 221.457 338.613 222.243H326.896C327.421 223.869 328.797 224.681 331.025 224.681C332.781 224.681 334.327 224.262 335.664 223.423ZM330.199 215.873C328.443 215.873 327.277 216.686 326.7 218.311H333.069C333.069 217.656 332.807 217.092 332.283 216.62C331.785 216.122 331.09 215.873 330.199 215.873Z" fill="#141414"/>
<path d="M350.594 229.597C348.89 229.597 347.278 229.295 345.758 228.692C344.238 228.063 343.15 227.303 342.494 226.411L345.483 222.794C345.954 223.344 346.636 223.829 347.527 224.249C348.445 224.668 349.31 224.878 350.122 224.878C351.826 224.878 352.678 224.458 352.678 223.62C352.678 222.728 352.049 222.283 350.79 222.283H347.409V218.35H350.594C351.171 218.35 351.59 218.219 351.852 217.957C352.14 217.669 352.285 217.328 352.285 216.935C352.285 216.096 351.524 215.676 350.004 215.676C348.589 215.676 347.082 216.358 345.483 217.721L343.045 214.182C344.827 212.032 347.527 210.957 351.144 210.957C353.556 210.957 355.391 211.416 356.649 212.334C357.933 213.251 358.575 214.523 358.575 216.148C358.575 216.987 358.274 217.76 357.671 218.468C357.094 219.15 356.321 219.648 355.351 219.962V220.041C357.763 220.592 358.969 221.981 358.969 224.209C358.969 225.861 358.208 227.172 356.688 228.142C355.168 229.112 353.136 229.597 350.594 229.597Z" fill="#141414"/>
<path d="M385.89 229.125V216.935H380.385V229.125H374.488V211.429H391.787V229.125H385.89Z" fill="#141414"/>
<path d="M398.07 236.989V211.429H403.968V212.766C405.174 211.56 406.812 210.957 408.883 210.957C411.242 210.957 413.142 211.809 414.584 213.513C416.052 215.191 416.786 217.354 416.786 220.002C416.786 222.754 415.907 225.048 414.151 226.883C412.395 228.692 410.102 229.597 407.271 229.597C405.934 229.597 404.833 229.413 403.968 229.046V236.989H398.07ZM407.035 216.463C405.934 216.463 404.912 216.987 403.968 218.036V223.423C404.728 223.869 405.646 224.091 406.72 224.091C407.952 224.091 408.883 223.724 409.512 222.99C410.167 222.23 410.495 221.273 410.495 220.12C410.495 219.045 410.18 218.167 409.551 217.485C408.948 216.804 408.11 216.463 407.035 216.463Z" fill="#141414"/>
<path d="M423.766 226.962C421.984 225.206 421.093 222.977 421.093 220.277C421.093 217.577 421.984 215.349 423.766 213.592C425.575 211.836 427.96 210.957 430.922 210.957C433.884 210.957 436.256 211.836 438.039 213.592C439.847 215.349 440.751 217.577 440.751 220.277C440.751 222.977 439.847 225.206 438.039 226.962C436.256 228.718 433.884 229.597 430.922 229.597C427.96 229.597 425.575 228.718 423.766 226.962ZM427.384 220.277C427.384 221.378 427.711 222.296 428.366 223.03C429.048 223.737 429.9 224.091 430.922 224.091C431.944 224.091 432.783 223.751 433.438 223.069C434.12 222.387 434.461 221.457 434.461 220.277C434.461 219.15 434.12 218.232 433.438 217.524C432.757 216.817 431.918 216.463 430.922 216.463C429.926 216.463 429.087 216.817 428.406 217.524C427.724 218.206 427.384 219.124 427.384 220.277Z" fill="#141414"/>
<path d="M446.042 229.125V211.429H451.94V223.62H457.051V211.429H462.949V223.62H465.898V233.057H460.393V229.125H446.042Z" fill="#141414"/>
<path d="M484.311 223.423L485.923 227.591C484.14 228.928 481.847 229.597 479.042 229.597C476.133 229.597 473.8 228.745 472.044 227.041C470.314 225.337 469.449 223.082 469.449 220.277C469.449 217.629 470.327 215.414 472.083 213.631C473.865 211.849 476.185 210.957 479.042 210.957C481.401 210.957 483.42 211.744 485.097 213.317C486.775 214.864 487.613 216.856 487.613 219.294C487.613 220.474 487.495 221.457 487.259 222.243H475.543C476.067 223.869 477.443 224.681 479.671 224.681C481.427 224.681 482.974 224.262 484.311 223.423ZM478.846 215.873C477.089 215.873 475.923 216.686 475.346 218.311H481.716C481.716 217.656 481.454 217.092 480.929 216.62C480.431 216.122 479.737 215.873 478.846 215.873Z" fill="#141414"/>
<path d="M504.116 229.125V223.03H498.415V229.125H492.517V211.429H498.415V217.524H504.116V211.429H510.013V229.125H504.116Z" fill="#141414"/>
<path d="M514.916 217.328V211.429H531.036V217.328H525.925V229.125H520.027V217.328H514.916Z" fill="#141414"/>
<path d="M537.188 226.962C535.406 225.206 534.515 222.977 534.515 220.277C534.515 217.577 535.406 215.349 537.188 213.592C538.997 211.836 541.382 210.957 544.344 210.957C547.306 210.957 549.678 211.836 551.46 213.592C553.269 215.349 554.173 217.577 554.173 220.277C554.173 222.977 553.269 225.206 551.46 226.962C549.678 228.718 547.306 229.597 544.344 229.597C541.382 229.597 538.997 228.718 537.188 226.962ZM540.805 220.277C540.805 221.378 541.133 222.296 541.788 223.03C542.47 223.737 543.322 224.091 544.344 224.091C545.366 224.091 546.205 223.751 546.86 223.069C547.542 222.387 547.883 221.457 547.883 220.277C547.883 219.15 547.542 218.232 546.86 217.524C546.179 216.817 545.34 216.463 544.344 216.463C543.348 216.463 542.509 216.817 541.828 217.524C541.146 218.206 540.805 219.124 540.805 220.277Z" fill="#141414"/>
<path d="M559.464 229.125V211.429C559.779 211.429 560.395 211.403 561.312 211.351C562.23 211.298 563.186 211.259 564.182 211.233C565.205 211.207 566.161 211.193 567.053 211.193C572.636 211.193 575.427 212.766 575.427 215.912C575.427 216.935 575.113 217.8 574.484 218.508C573.855 219.215 573.134 219.635 572.321 219.766V219.844C573.422 220.159 574.274 220.67 574.877 221.378C575.506 222.06 575.82 222.872 575.82 223.816C575.82 227.512 572.911 229.361 567.092 229.361C566.306 229.361 564.956 229.321 563.042 229.243C561.155 229.164 559.962 229.125 559.464 229.125ZM567.249 222.047H565.362V224.485C566.515 224.589 567.315 224.642 567.76 224.642C568.285 224.642 568.717 224.524 569.058 224.288C569.399 224.026 569.569 223.724 569.569 223.384C569.569 222.492 568.796 222.047 567.249 222.047ZM567.603 215.912C566.581 215.912 565.834 215.952 565.362 216.03V218.508H567.328C568.56 218.508 569.176 218.062 569.176 217.171C569.176 216.83 569.032 216.541 568.743 216.305C568.481 216.043 568.101 215.912 567.603 215.912Z" fill="#141414"/>
<path d="M95.6095 272.38H89.7119V254.685H95.6095V263.926L101.9 254.685H107.798V272.38H101.9V263.139L95.6095 272.38Z" fill="#141414"/>
<path d="M135.34 272.38V260.19H129.836V272.38H123.938V254.685H141.238V272.38H135.34Z" fill="#141414"/>
<path d="M161.4 266.678L163.012 270.847C161.23 272.184 158.936 272.852 156.132 272.852C153.222 272.852 150.889 272 149.133 270.296C147.403 268.592 146.538 266.337 146.538 263.532C146.538 260.885 147.416 258.669 149.172 256.887C150.955 255.104 153.274 254.213 156.132 254.213C158.491 254.213 160.509 254.999 162.186 256.572C163.864 258.119 164.703 260.111 164.703 262.549C164.703 263.729 164.585 264.712 164.349 265.499H152.632C153.156 267.124 154.533 267.937 156.761 267.937C158.517 267.937 160.063 267.517 161.4 266.678ZM155.935 259.128C154.179 259.128 153.012 259.941 152.436 261.566H158.805C158.805 260.911 158.543 260.347 158.019 259.875C157.521 259.377 156.826 259.128 155.935 259.128Z" fill="#141414"/>
<path d="M169.606 280.245V254.685H175.504V256.022C176.71 254.816 178.348 254.213 180.419 254.213C182.778 254.213 184.678 255.065 186.12 256.769C187.588 258.447 188.322 260.609 188.322 263.257C188.322 266.01 187.443 268.304 185.687 270.139C183.931 271.948 181.638 272.852 178.807 272.852C177.47 272.852 176.369 272.668 175.504 272.301V280.245H169.606ZM178.571 259.718C177.47 259.718 176.448 260.242 175.504 261.291V266.678C176.264 267.124 177.182 267.347 178.256 267.347C179.488 267.347 180.419 266.98 181.048 266.246C181.703 265.485 182.031 264.529 182.031 263.375C182.031 262.3 181.716 261.422 181.087 260.74C180.484 260.059 179.645 259.718 178.571 259.718Z" fill="#141414"/>
<path d="M193.612 272.38V254.685C193.926 254.685 194.542 254.659 195.459 254.606C196.377 254.554 197.334 254.514 198.33 254.488C199.352 254.462 200.309 254.449 201.2 254.449C206.783 254.449 209.574 256.022 209.574 259.168C209.574 260.19 209.26 261.055 208.631 261.763C208.002 262.471 207.281 262.89 206.468 263.021V263.1C207.569 263.414 208.421 263.926 209.024 264.633C209.653 265.315 209.968 266.128 209.968 267.072C209.968 270.768 207.058 272.616 201.239 272.616C200.453 272.616 199.103 272.577 197.189 272.498C195.302 272.419 194.11 272.38 193.612 272.38ZM201.396 265.302H199.509V267.74C200.663 267.845 201.462 267.897 201.908 267.897C202.432 267.897 202.864 267.779 203.205 267.543C203.546 267.281 203.716 266.98 203.716 266.639C203.716 265.748 202.943 265.302 201.396 265.302ZM201.75 259.168C200.728 259.168 199.981 259.207 199.509 259.286V261.763H201.475C202.707 261.763 203.323 261.317 203.323 260.426C203.323 260.085 203.179 259.797 202.891 259.561C202.628 259.299 202.248 259.168 201.75 259.168Z" fill="#141414"/>
<path d="M217.349 270.217C215.567 268.461 214.676 266.233 214.676 263.532C214.676 260.832 215.567 258.604 217.349 256.848C219.158 255.091 221.543 254.213 224.505 254.213C227.467 254.213 229.839 255.091 231.622 256.848C233.43 258.604 234.334 260.832 234.334 263.532C234.334 266.233 233.43 268.461 231.622 270.217C229.839 271.974 227.467 272.852 224.505 272.852C221.543 272.852 219.158 271.974 217.349 270.217ZM220.966 263.532C220.966 264.633 221.294 265.551 221.949 266.285C222.631 266.993 223.483 267.347 224.505 267.347C225.527 267.347 226.366 267.006 227.021 266.324C227.703 265.643 228.044 264.712 228.044 263.532C228.044 262.405 227.703 261.488 227.021 260.78C226.34 260.072 225.501 259.718 224.505 259.718C223.509 259.718 222.67 260.072 221.989 260.78C221.307 261.461 220.966 262.379 220.966 263.532Z" fill="#141414"/>
<path d="M239.625 272.38V254.685H252.207V260.19H245.523V272.38H239.625Z" fill="#141414"/>
<path d="M257.949 270.217C256.167 268.461 255.276 266.233 255.276 263.532C255.276 260.832 256.167 258.604 257.949 256.848C259.758 255.091 262.143 254.213 265.105 254.213C268.067 254.213 270.439 255.091 272.221 256.848C274.03 258.604 274.934 260.832 274.934 263.532C274.934 266.233 274.03 268.461 272.221 270.217C270.439 271.974 268.067 272.852 265.105 272.852C262.143 272.852 259.758 271.974 257.949 270.217ZM261.566 263.532C261.566 264.633 261.894 265.551 262.549 266.285C263.231 266.993 264.083 267.347 265.105 267.347C266.127 267.347 266.966 267.006 267.621 266.324C268.303 265.643 268.644 264.712 268.644 263.532C268.644 262.405 268.303 261.488 267.621 260.78C266.94 260.072 266.101 259.718 265.105 259.718C264.109 259.718 263.27 260.072 262.589 260.78C261.907 261.461 261.566 262.379 261.566 263.532Z" fill="#141414"/>
<path d="M290.062 272.38V254.685C290.377 254.685 290.993 254.659 291.91 254.606C292.828 254.554 293.784 254.514 294.781 254.488C295.803 254.462 296.759 254.449 297.651 254.449C303.234 254.449 306.025 256.022 306.025 259.168C306.025 260.19 305.711 261.055 305.082 261.763C304.453 262.471 303.732 262.89 302.919 263.021V263.1C304.02 263.414 304.872 263.926 305.475 264.633C306.104 265.315 306.419 266.128 306.419 267.072C306.419 270.768 303.509 272.616 297.69 272.616C296.904 272.616 295.554 272.577 293.64 272.498C291.753 272.419 290.56 272.38 290.062 272.38ZM297.847 265.302H295.96V267.74C297.113 267.845 297.913 267.897 298.358 267.897C298.883 267.897 299.315 267.779 299.656 267.543C299.997 267.281 300.167 266.98 300.167 266.639C300.167 265.748 299.394 265.302 297.847 265.302ZM298.201 259.168C297.179 259.168 296.432 259.207 295.96 259.286V261.763H297.926C299.158 261.763 299.774 261.317 299.774 260.426C299.774 260.085 299.63 259.797 299.341 259.561C299.079 259.299 298.699 259.168 298.201 259.168Z" fill="#141414"/>
<path d="M318.833 272.852C317.129 272.852 315.517 272.551 313.997 271.948C312.476 271.318 311.389 270.558 310.733 269.667L313.721 266.049C314.193 266.6 314.875 267.085 315.766 267.504C316.683 267.924 317.548 268.133 318.361 268.133C320.065 268.133 320.917 267.714 320.917 266.875C320.917 265.984 320.287 265.538 319.029 265.538H315.648V261.606H318.833C319.409 261.606 319.829 261.475 320.091 261.212C320.379 260.924 320.523 260.583 320.523 260.19C320.523 259.351 319.763 258.932 318.243 258.932C316.828 258.932 315.32 259.613 313.721 260.976L311.284 257.437C313.066 255.288 315.766 254.213 319.383 254.213C321.795 254.213 323.629 254.672 324.888 255.589C326.172 256.507 326.814 257.778 326.814 259.403C326.814 260.242 326.513 261.016 325.91 261.724C325.333 262.405 324.56 262.903 323.59 263.218V263.296C326.002 263.847 327.207 265.236 327.207 267.465C327.207 269.116 326.447 270.427 324.927 271.397C323.407 272.367 321.375 272.852 318.833 272.852Z" fill="#141414"/>
<path d="M344.488 272.38V266.285H338.787V272.38H332.889V254.685H338.787V260.78H344.488V254.685H350.386V272.38H344.488Z" fill="#141414"/>
<path d="M358.355 270.217C356.572 268.461 355.681 266.233 355.681 263.532C355.681 260.832 356.572 258.604 358.355 256.848C360.163 255.091 362.549 254.213 365.511 254.213C368.473 254.213 370.845 255.091 372.627 256.848C374.436 258.604 375.34 260.832 375.34 263.532C375.34 266.233 374.436 268.461 372.627 270.217C370.845 271.974 368.473 272.852 365.511 272.852C362.549 272.852 360.163 271.974 358.355 270.217ZM361.972 263.532C361.972 264.633 362.3 265.551 362.955 266.285C363.636 266.993 364.488 267.347 365.511 267.347C366.533 267.347 367.372 267.006 368.027 266.324C368.708 265.643 369.049 264.712 369.049 263.532C369.049 262.405 368.708 261.488 368.027 260.78C367.345 260.072 366.507 259.718 365.511 259.718C364.515 259.718 363.676 260.072 362.994 260.78C362.313 261.461 361.972 262.379 361.972 263.532Z" fill="#141414"/>
<path d="M393.842 265.381L396.594 269.706C395.074 271.803 392.662 272.852 389.359 272.852C386.424 272.852 384.065 272 382.282 270.296C380.526 268.592 379.648 266.337 379.648 263.532C379.648 260.911 380.513 258.709 382.243 256.926C383.999 255.117 386.253 254.213 389.006 254.213C392.23 254.213 394.641 255.052 396.24 256.73L393.527 261.37C392.426 260.269 391.168 259.718 389.753 259.718C388.757 259.718 387.865 260.059 387.079 260.74C386.319 261.422 385.939 262.353 385.939 263.532C385.939 264.66 386.332 265.577 387.118 266.285C387.931 266.993 388.835 267.347 389.831 267.347C391.273 267.347 392.61 266.691 393.842 265.381Z" fill="#141414"/>
<path d="M403.567 260.229L402.112 255.943C402.872 255.471 403.855 255.065 405.061 254.724C406.293 254.383 407.499 254.213 408.678 254.213C411.299 254.213 413.173 254.842 414.301 256.1C415.454 257.359 416.031 259.233 416.031 261.724V272.38H410.919V270.768C410.054 272 408.508 272.616 406.28 272.616C404.628 272.616 403.279 272.131 402.23 271.161C401.208 270.165 400.697 268.789 400.697 267.032C400.697 265.118 401.286 263.664 402.466 262.667C403.672 261.671 405.205 261.173 407.066 261.173C408.534 261.173 409.687 261.501 410.526 262.156C410.631 260.138 409.818 259.128 408.088 259.128C406.935 259.128 405.428 259.495 403.567 260.229ZM408.285 267.701C409.333 267.701 410.081 267.399 410.526 266.796V265.695C409.976 265.302 409.229 265.105 408.285 265.105C407.787 265.105 407.381 265.223 407.066 265.459C406.752 265.695 406.594 266.023 406.594 266.442C406.594 266.836 406.752 267.15 407.066 267.386C407.381 267.596 407.787 267.701 408.285 267.701Z" fill="#141414"/>
<path d="M86.5664 316.534V307.855C86.5664 305.094 88.805 302.855 91.5664 302.855H288.966C291.728 302.855 293.966 305.094 293.966 307.855V316.534C293.966 319.295 291.728 321.534 288.966 321.534H91.5664C88.805 321.534 86.5664 319.295 86.5664 316.534Z" stroke="#C5CDCF" stroke-width="5"/>
<path d="M86.5664 347.992V339.314C86.5664 336.553 88.805 334.314 91.5664 334.314H251.615C254.376 334.314 256.615 336.553 256.615 339.314V347.992C256.615 350.754 254.376 352.992 251.615 352.992H91.5664C88.805 352.992 86.5664 350.754 86.5664 347.992Z" stroke="#C5CDCF" stroke-width="5"/>
<path d="M105.479 379.056L109.962 375.8H112.509V392.315H108.971V380.825L107.32 381.981L105.479 379.056Z" fill="#C5CDCF"/>
<rect x="86.5674" y="401.163" width="50.1299" height="3.93175" fill="#C5CDCF"/>
<path d="M172.791 392.316V389.485C172.933 389.359 173.318 388.989 173.947 388.376C174.592 387.746 175.024 387.314 175.244 387.078C175.465 386.842 175.842 386.449 176.377 385.898C176.911 385.332 177.289 384.884 177.509 384.553C177.729 384.223 177.989 383.822 178.288 383.35C178.602 382.863 178.814 382.414 178.925 382.005C179.05 381.596 179.113 381.187 179.113 380.778C179.113 379.693 178.61 379.15 177.603 379.15C177.132 379.15 176.762 379.308 176.495 379.622C176.227 379.921 175.991 380.354 175.787 380.92L172.838 379.575C173.106 378.364 173.68 377.404 174.56 376.697C175.457 375.973 176.613 375.611 178.028 375.611C179.554 375.611 180.741 376.044 181.59 376.909C182.455 377.774 182.888 378.828 182.888 380.071C182.888 383.201 181.048 386.181 177.368 389.013H183.454V392.316H172.791Z" fill="#C5CDCF"/>
<rect x="151.441" y="401.163" width="50.1299" height="3.93175" fill="#C5CDCF"/>
<path d="M243.624 392.599C242.319 392.599 241.202 392.347 240.274 391.844C239.346 391.324 238.647 390.664 238.175 389.862L240.133 387.243C241.187 388.454 242.272 389.059 243.388 389.059C244.065 389.059 244.576 388.91 244.922 388.611C245.283 388.297 245.464 387.911 245.464 387.455C245.464 386.244 244.529 385.638 242.657 385.638H241.619V382.099H242.563C243.223 382.099 243.766 381.958 244.19 381.675C244.615 381.391 244.827 380.983 244.827 380.448C244.827 380.054 244.702 379.724 244.45 379.457C244.214 379.189 243.837 379.056 243.318 379.056C242.217 379.056 241.265 379.551 240.463 380.542L238.529 377.994C239.551 376.342 241.257 375.517 243.648 375.517C245.11 375.517 246.298 375.902 247.21 376.673C248.138 377.428 248.602 378.45 248.602 379.74C248.602 380.699 248.397 381.494 247.988 382.123C247.595 382.736 246.982 383.232 246.148 383.609V383.68C247.139 383.869 247.902 384.317 248.437 385.025C248.971 385.733 249.239 386.59 249.239 387.597C249.239 389.122 248.704 390.341 247.635 391.254C246.581 392.15 245.244 392.599 243.624 392.599Z" fill="#141414"/>
<path d="M216.313 401.163H266.443V405.095H216.313V401.163Z" fill="#141414"/>
<path d="M307.602 392.315V388.776H300.101V386.134L305.998 375.8H310.056L304.654 385.237H307.602V381.698H311.141V385.237H313.075V388.776H311.141V392.315H307.602Z" fill="#C5CDCF"/>
<rect x="281.188" y="401.163" width="50.1299" height="3.93175" fill="#C5CDCF"/>
<path d="M4 633V14C4 8.47715 8.47715 4 14 4H1031C1036.52 4 1041 8.47714 1041 14V633C1041 638.523 1036.52 643 1031 643H14C8.47715 643 4 638.523 4 633Z" stroke="#C5CDCF" stroke-width="7"/>
<path d="M292.984 610.474V516.268C292.984 513.506 295.223 511.268 297.984 511.268H498.164C500.925 511.268 503.164 513.506 503.164 516.268V610.474C503.164 613.235 500.925 615.474 498.164 615.474H297.984C295.223 615.474 292.984 613.235 292.984 610.474Z" fill="white" stroke="#C5CDCF" stroke-width="5"/>
<path d="M367.898 594.6V559.056C367.898 557.951 368.794 557.056 369.898 557.056H428.328C429.433 557.056 430.328 557.951 430.328 559.056V594.6C430.328 595.705 429.433 596.6 428.328 596.6H369.898C368.794 596.6 367.898 595.705 367.898 594.6Z" stroke="#C5CDCF" stroke-width="3"/>
<path d="M359.578 555.195C359.55 552.641 359.675 549.148 359.691 546.757C359.698 545.58 360.658 544.568 361.834 544.568H434.639C435.743 544.568 436.639 545.464 436.639 546.568V555.056C436.639 556.161 435.743 557.056 434.639 557.056H361.506C360.456 557.056 359.59 556.245 359.578 555.195Z" stroke="#C5CDCF" stroke-width="3"/>
<path d="M393.015 557.473L393.015 595.813" stroke="#C5CDCF" stroke-width="3"/>
<path d="M405.355 557.964V595.56" stroke="#C5CDCF" stroke-width="3"/>
<path d="M375.687 537.603C375.198 537.347 375.005 536.74 375.307 536.277C376.539 534.388 378.358 532.942 380.497 532.172C382.95 531.288 385.647 531.358 388.051 532.369C390.456 533.379 392.393 535.255 393.48 537.627C394.427 539.693 394.668 542.005 394.181 544.207C394.062 544.747 393.493 545.034 392.968 544.864L389.989 543.898C389.463 543.727 389.186 543.163 389.254 542.614C389.374 541.649 389.226 540.662 388.815 539.765C388.264 538.563 387.282 537.612 386.064 537.1C384.845 536.588 383.479 536.553 382.235 537.001C381.307 537.335 380.498 537.92 379.893 538.681C379.549 539.114 378.952 539.311 378.463 539.055L375.687 537.603Z" fill="#C5CDCF"/>
<path d="M421.333 537.063C421.788 536.75 421.907 536.124 421.552 535.701C420.181 534.065 418.334 532.884 416.256 532.331C413.854 531.691 411.303 531.933 409.064 533.012C406.825 534.09 405.046 535.935 404.049 538.211C403.186 540.181 402.958 542.362 403.382 544.454C403.492 544.996 404.055 545.293 404.584 545.132L407.264 544.314C407.792 544.153 408.08 543.593 408.015 543.045C407.899 542.061 408.045 541.057 408.448 540.138C408.985 538.913 409.943 537.919 411.148 537.339C412.354 536.758 413.727 536.628 415.02 536.972C415.989 537.23 416.865 537.741 417.562 538.446C417.95 538.838 418.567 538.962 419.023 538.649L421.333 537.063Z" fill="#C5CDCF"/>
<path d="M330.537 549.962L334.44 553.536L339.044 550.927L336.852 555.744L340.755 559.318L335.497 558.721L333.305 563.538L332.247 558.353L326.99 557.756L331.594 555.148L330.537 549.962Z" fill="#C5CDCF"/>
<path d="M345.103 520.824L349.006 524.398L353.611 521.79L351.418 526.607L355.321 530.181L350.064 529.584L347.871 534.401L346.814 529.215L341.556 528.618L346.16 526.01L345.103 520.824Z" fill="#C5CDCF"/>
<path d="M447.072 516.661L450.975 520.235L455.58 517.627L453.387 522.444L457.29 526.018L452.032 525.421L449.84 530.238L448.783 525.052L443.525 524.455L448.129 521.847L447.072 516.661Z" fill="#C5CDCF"/>
<path d="M453.314 564.531L457.217 568.105L461.822 565.497L459.629 570.314L463.532 573.888L458.274 573.291L456.082 578.108L455.025 572.922L449.767 572.325L454.371 569.717L453.314 564.531Z" fill="#C5CDCF"/>
<path d="M390.885 516.661L394.788 520.235L399.392 517.627L397.2 522.444L401.103 526.018L395.845 525.421L393.652 530.238L392.595 525.052L387.337 524.455L391.942 521.847L390.885 516.661Z" fill="#C5CDCF"/>
<path d="M430.424 527.068L434.327 530.642L438.931 528.033L436.739 532.85L440.642 536.424L435.384 535.827L433.191 540.644L432.134 535.458L426.876 534.862L431.481 532.253L430.424 527.068Z" fill="#C5CDCF"/>
<path d="M230.075 589.829V495.623C230.075 492.862 232.314 490.623 235.075 490.623H435.255C438.016 490.623 440.255 492.862 440.255 495.623V589.829C440.255 592.591 438.016 594.829 435.255 594.829H235.075C232.314 594.829 230.075 592.591 230.075 589.829Z" fill="white" stroke="#C5CDCF" stroke-width="5"/>
<path d="M303.309 467.472C308.126 467.472 312.031 463.69 312.031 459.024C312.031 454.359 308.126 450.577 303.309 450.577C298.491 450.577 294.586 454.359 294.586 459.024C294.586 463.69 298.491 467.472 303.309 467.472Z" fill="#C5CDCF"/>
<path d="M378.224 467.472C383.041 467.472 386.947 463.69 386.947 459.024C386.947 454.359 383.041 450.577 378.224 450.577C373.406 450.577 369.501 454.359 369.501 459.024C369.501 463.69 373.406 467.472 378.224 467.472Z" fill="#C5CDCF"/>
<path fill-rule="evenodd" clip-rule="evenodd" d="M281.157 446.985L282.151 444.224C282.241 443.974 282.422 443.768 282.655 443.648C282.901 443.523 283.087 443.302 283.172 443.036L283.246 442.807C283.401 442.322 283.769 441.94 284.241 441.774L288.08 440.426L286.083 438.612C286.045 438.577 285.996 438.558 285.946 438.558H281.745C281.659 438.558 281.582 438.504 281.552 438.422L280.822 436.434C280.772 436.296 280.872 436.149 281.016 436.149H292.747C292.905 436.149 293.004 436.322 292.927 436.463L292.274 437.648C292.238 437.714 292.169 437.755 292.094 437.755H289.915C289.757 437.755 289.657 437.929 289.735 438.069L288.08 440.426C302.499 441.394 317.455 430.729 331.903 431.066C334.692 431.131 337.852 431.465 341.438 432.105C350.309 434.185 355.203 436.359 362.989 441.689C363.39 441.964 363.846 442.048 364.101 442.051C374.45 442.295 384.853 442.739 388.52 445.362C394.089 448.269 398.605 450.763 398.636 453.115L397.916 459.366C397.898 459.519 397.951 459.672 398.057 459.781L398.416 460.148C398.557 460.292 398.636 460.486 398.636 460.689C398.636 461.165 398.293 461.568 397.832 461.636L388.318 463.024C388.218 463.039 388.117 463.046 388.016 463.045L387.35 463.042C388.111 461.559 388.542 459.871 388.542 458.08C388.542 452.173 383.855 447.385 378.074 447.385C372.293 447.385 367.606 452.173 367.606 458.08C367.606 459.833 368.019 461.486 368.75 462.946L314.811 462.664C315.457 461.275 315.641 462.006 315.641 458.08C314.417 452.008 307.403 447.282 302.91 447.46C297.129 447.46 292.274 452.173 292.274 458.08C292.274 459.721 292.281 461.275 292.927 462.664H292.274C287.727 462.691 287.146 462.005 283.72 459.759C283.569 459.66 283.406 459.579 283.235 459.522L280.875 458.731L280.422 456.822C281.322 456.592 280.753 455.532 280.244 454.582C280.205 454.509 280.165 454.436 280.127 454.364C279.855 453.85 280.141 453.582 280.508 453.238C280.657 453.099 280.819 452.947 280.963 452.761C281.439 452.144 281.265 450.815 281.045 449.133C281.021 448.957 280.998 448.777 280.975 448.594C280.905 448.051 280.971 447.499 281.157 446.985Z" fill="#C5CDCF"/>
<path d="M315.396 539.53L353.895 539.53C338.973 530.747 323.734 530.161 315.396 539.53Z" fill="#F6F4F2"/>
<path d="M173.065 559.354V465.148C173.065 462.386 175.304 460.148 178.065 460.148H378.245C381.006 460.148 383.245 462.386 383.245 465.148V559.354C383.245 562.115 381.006 564.354 378.245 564.354H178.065C175.304 564.354 173.065 562.115 173.065 559.354Z" fill="white" stroke="#C5CDCF" stroke-width="5"/>
<path d="M326.277 520.505H270.638C269.003 520.505 268.062 522.361 269.039 523.672C279.607 537.855 286.448 544.094 299.172 543.337C314.957 542.805 322.037 538.318 328.113 523.183C328.631 521.893 327.667 520.505 326.277 520.505Z" fill="#C5CDCF"/>
<path d="M295.842 515.342V496.595C295.842 496.018 296.337 495.56 296.913 495.602C314.448 496.877 321.305 501.717 328.374 514.889C328.728 515.548 328.246 516.342 327.497 516.342H296.842C296.29 516.342 295.842 515.895 295.842 515.342Z" fill="#C5CDCF"/>
<ellipse cx="285.437" cy="547.561" rx="4.16197" ry="4.16255" fill="#C5CDCF"/>
<ellipse cx="316.652" cy="547.561" rx="4.16197" ry="4.16255" fill="#C5CDCF"/>
<path d="M278.154 522.586L268.79 513.22H258.385" stroke="#C5CDCF" stroke-width="2" stroke-linecap="round"/>
<path d="M275.033 497.611H285.438L277.481 505.936H285.438" stroke="#C5CDCF" stroke-width="3"/>
<path d="M235.494 464.31H245.899L237.942 472.635H245.899" stroke="#C5CDCF" stroke-width="3"/>
<path d="M268.269 472.635L274.762 480.766L257.833 484.106L262.798 490.323" stroke="#C5CDCF" stroke-width="3"/>
<path d="M241.721 480.961L242.583 494.661L233.616 484.707L234.276 495.184" stroke="#C5CDCF" stroke-width="3"/>
<path d="M86.5664 537.323V443.52C86.5664 440.759 88.805 438.52 91.5664 438.52H290.932C293.694 438.52 295.932 440.759 295.932 443.52V537.323C295.932 540.085 293.694 542.323 290.932 542.323H91.5664C88.805 542.323 86.5664 540.085 86.5664 537.323Z" fill="white" stroke="#C5CDCF" stroke-width="5"/>
<path d="M242.037 543.218C242.037 540.631 241.152 538.07 239.433 535.681C237.714 533.291 235.195 531.12 232.019 529.291C228.843 527.462 225.072 526.011 220.922 525.021C216.773 524.032 212.325 523.522 207.833 523.522C203.342 523.522 198.894 524.032 194.744 525.021C190.594 526.011 186.824 527.462 183.648 529.291C180.472 531.12 177.952 533.291 176.233 535.681C174.515 538.07 173.63 540.631 173.63 543.218L207.833 543.218H242.037Z" fill="#C5CDCF"/>
<path fill-rule="evenodd" clip-rule="evenodd" d="M209.462 460.798L206.671 460.082L207.685 462.779C209.584 467.831 210.699 471.784 211.168 475.875C211.477 478.57 211.509 481.358 211.279 484.594C209.681 481.02 208.037 478.086 206.357 475.765C204.232 472.829 201.99 470.791 199.63 469.732C197.219 468.65 194.775 468.634 192.435 469.591C190.147 470.527 188.046 472.354 186.138 474.807L184.965 476.315L186.709 477.096C192.377 479.635 196.192 481.424 199.342 483.568C200.251 484.187 201.108 484.839 201.94 485.55C196.98 485.157 192.414 485.635 188.765 487.064C185.884 488.192 183.502 489.945 182.022 492.405C180.534 494.88 180.056 497.911 180.703 501.398L181.015 503.077L182.64 502.551L207.433 494.525C203.762 507.007 202.869 515.57 202.869 526.521L213.234 528.595C211.343 517.388 211.898 509.055 213.782 494.876C222.695 501.957 226.819 506.265 231.619 514.816L232.709 516.757L234.099 515.019C236.33 512.229 237.495 509.307 237.561 506.452C237.627 503.583 236.58 500.924 234.642 498.703C232.252 495.964 228.537 493.905 223.825 492.787C229.641 492.687 234.383 493.374 240.66 495.194L242.797 495.814L242.57 493.6C242.205 490.046 240.987 487.146 239.033 485.064C237.069 482.972 234.458 481.81 231.519 481.585C228.046 481.32 224.142 482.353 220.176 484.646C222.143 478.644 222.731 473.882 221.608 470.128C220.117 465.143 215.805 462.428 209.462 460.798ZM205.365 488.988C206.004 489.728 206.65 490.53 207.316 491.409L183.44 499.139C183.318 497.042 183.762 495.333 184.593 493.951C185.649 492.196 187.427 490.81 189.859 489.857C193.806 488.312 199.278 487.994 205.365 488.988ZM208.891 486.618C207.241 482.807 205.575 479.802 203.927 477.524C201.978 474.832 200.112 473.236 198.402 472.469C196.742 471.724 195.153 471.721 193.571 472.368C192.334 472.874 191.054 473.799 189.758 475.178C194.46 477.306 198.003 479.029 201.03 481.089C203.183 482.554 205.058 484.178 206.913 486.213C207.569 486.334 208.229 486.469 208.891 486.618ZM212.846 490.325C212.754 490.415 212.663 490.505 212.571 490.597L211.425 490.138L212.846 490.325ZM215.937 487.569C215.228 488.139 214.52 488.749 213.817 489.399C214.479 483.995 214.626 479.7 214.149 475.534C213.737 471.939 212.867 468.49 211.514 464.555C215.663 466.052 217.874 468.114 218.734 470.987C219.788 474.512 218.987 479.707 215.937 487.569ZM217.545 490.126C217.73 489.975 217.914 489.827 218.098 489.682L218.297 489.762C218.343 489.648 218.388 489.535 218.433 489.422C223.177 485.784 227.722 484.304 231.29 484.577C233.556 484.75 235.443 485.623 236.846 487.117C237.888 488.228 238.715 489.738 239.202 491.68C231.657 489.712 225.941 489.42 217.545 490.126ZM232.381 500.675C229.882 497.811 225.21 495.583 218.69 494.994C225.172 500.378 229.043 504.594 233.043 511.288C234.057 509.562 234.526 507.905 234.562 506.382C234.609 504.333 233.876 502.388 232.381 500.675Z" fill="#C5CDCF"/>
<ellipse cx="139.426" cy="476.875" rx="13.474" ry="13.4759" fill="#C5CDCF"/>
<path d="M828.872 280.245C826.157 280.245 824.129 279.275 822.787 277.336L824.896 274.82C826.125 276.128 827.393 276.782 828.703 276.782C829.333 276.782 829.882 276.651 830.351 276.39C830.836 276.113 831.078 275.674 831.078 275.074C831.078 274.582 830.86 274.189 830.424 273.897C829.988 273.589 829.325 273.435 828.436 273.435H826.884V269.973H828.339C828.937 269.973 829.43 269.85 829.818 269.603C830.222 269.342 830.424 268.972 830.424 268.495C830.424 268.003 830.254 267.634 829.915 267.387C829.575 267.126 829.123 266.995 828.557 266.995C827.393 266.995 826.391 267.557 825.551 268.68L823.32 266.187C823.886 265.402 824.678 264.764 825.696 264.271C826.731 263.779 827.854 263.532 829.066 263.532C830.634 263.532 831.895 263.933 832.848 264.733C833.818 265.518 834.303 266.633 834.303 268.08C834.303 269.465 833.592 270.611 832.169 271.519V271.589C834.028 272.143 834.957 273.428 834.957 275.443C834.957 276.875 834.343 278.036 833.115 278.929C831.887 279.806 830.472 280.245 828.872 280.245Z" fill="#C5CDCF"/>
<path d="M840.116 272.835L839.219 270.319C839.688 270.042 840.294 269.803 841.038 269.603C841.797 269.403 842.541 269.303 843.268 269.303C844.884 269.303 846.04 269.673 846.735 270.411C847.446 271.15 847.802 272.25 847.802 273.712V279.968H844.65V279.021C844.117 279.745 843.163 280.106 841.789 280.106C840.771 280.106 839.939 279.822 839.292 279.252C838.662 278.667 838.347 277.86 838.347 276.828C838.347 275.705 838.71 274.851 839.438 274.266C840.181 273.681 841.127 273.389 842.274 273.389C843.179 273.389 843.89 273.581 844.408 273.966C844.472 272.781 843.971 272.189 842.905 272.189C842.193 272.189 841.264 272.404 840.116 272.835ZM843.026 277.221C843.672 277.221 844.133 277.044 844.408 276.69V276.044C844.068 275.813 843.608 275.697 843.026 275.697C842.719 275.697 842.468 275.767 842.274 275.905C842.08 276.044 841.983 276.236 841.983 276.482C841.983 276.713 842.08 276.898 842.274 277.036C842.468 277.159 842.719 277.221 843.026 277.221Z" fill="#C5CDCF"/>
<path d="M857.205 269.58H860.962V279.968H857.326V277.313H856.453L854.732 279.968H850.586L853.18 276.551C851.968 275.936 851.362 274.913 851.362 273.481C851.362 272.327 851.839 271.388 852.792 270.665C853.762 269.942 855.233 269.58 857.205 269.58ZM855.241 273.758C855.241 274.035 855.378 274.274 855.653 274.474C855.928 274.674 856.267 274.774 856.671 274.774H857.326V272.581H856.623C856.219 272.581 855.887 272.704 855.629 272.95C855.37 273.197 855.241 273.466 855.241 273.758Z" fill="#C5CDCF"/>
<path d="M864.84 279.968V269.58C865.034 269.58 865.413 269.565 865.979 269.534C866.545 269.503 867.135 269.48 867.749 269.465C868.379 269.449 868.969 269.442 869.519 269.442C872.961 269.442 874.683 270.365 874.683 272.212C874.683 272.812 874.489 273.32 874.101 273.735C873.713 274.151 873.268 274.397 872.767 274.474V274.52C873.446 274.705 873.971 275.005 874.343 275.42C874.731 275.82 874.925 276.298 874.925 276.852C874.925 279.021 873.131 280.106 869.543 280.106C869.058 280.106 868.226 280.083 867.046 280.037C865.882 279.991 865.147 279.968 864.84 279.968ZM869.64 275.813H868.476V277.244C869.187 277.306 869.68 277.336 869.955 277.336C870.278 277.336 870.545 277.267 870.755 277.129C870.965 276.975 871.07 276.798 871.07 276.598C871.07 276.074 870.594 275.813 869.64 275.813ZM869.858 272.212C869.228 272.212 868.767 272.235 868.476 272.281V273.735H869.688C870.448 273.735 870.828 273.474 870.828 272.95C870.828 272.75 870.739 272.581 870.561 272.443C870.4 272.289 870.165 272.212 869.858 272.212Z" fill="#C5CDCF"/>
<path d="M878.434 279.968V269.58H882.071V274.382L885.028 269.58H889.586L886.047 274.52L890.12 279.968H885.416L882.071 275.12V279.968H878.434Z" fill="#C5CDCF"/>
<path d="M893.737 272.835L892.84 270.319C893.309 270.042 893.915 269.803 894.658 269.603C895.418 269.403 896.161 269.303 896.889 269.303C898.505 269.303 899.66 269.673 900.355 270.411C901.067 271.15 901.422 272.25 901.422 273.712V279.968H898.27V279.021C897.737 279.745 896.784 280.106 895.41 280.106C894.391 280.106 893.559 279.822 892.913 279.252C892.282 278.667 891.967 277.86 891.967 276.828C891.967 275.705 892.331 274.851 893.058 274.266C893.802 273.681 894.747 273.389 895.895 273.389C896.8 273.389 897.511 273.581 898.028 273.966C898.093 272.781 897.592 272.189 896.525 272.189C895.814 272.189 894.884 272.404 893.737 272.835ZM896.646 277.221C897.293 277.221 897.753 277.044 898.028 276.69V276.044C897.689 275.813 897.228 275.697 896.646 275.697C896.339 275.697 896.089 275.767 895.895 275.905C895.701 276.044 895.604 276.236 895.604 276.482C895.604 276.713 895.701 276.898 895.895 277.036C896.089 277.159 896.339 277.221 896.646 277.221Z" fill="#C5CDCF"/>
<rect x="823.771" y="309.737" width="193.639" height="44.2385" fill="white"/>
<rect x="823.771" y="378.552" width="193.639" height="44.2385" fill="white"/>
<rect x="823.771" y="447.368" width="193.639" height="44.2385" fill="white"/>
<rect x="823.771" y="519.132" width="25.5564" height="25.56" fill="white"/>
<rect x="862.105" y="521.099" width="81.5839" height="5.89763" rx="2.94882" fill="#C5CDCF"/>
<rect x="951.553" y="521.099" width="52.0957" height="5.89763" rx="2.94882" fill="#C5CDCF"/>
<rect x="921.082" y="536.828" width="52.0957" height="5.89763" rx="2.94882" fill="#C5CDCF"/>
<rect x="863.088" y="536.828" width="52.0957" height="5.89763" rx="2.94882" fill="#C5CDCF"/>
<rect x="826.254" y="571.752" width="189.656" height="41.2385" stroke="#141414" stroke-width="3"/>
<path d="M5 34.4551H1039" stroke="#C5CDCF" stroke-width="7"/>
<rect x="22" y="12.4551" width="12" height="12" rx="1" fill="#C5CDCF"/>
<rect x="49" y="12.4551" width="12" height="12" rx="1" fill="#C5CDCF"/>
<rect x="76" y="12.4551" width="12" height="12" rx="1" fill="#C5CDCF"/>
</svg>
