<svg width="29" height="27" viewBox="0 0 29 27" fill="none" xmlns="http://www.w3.org/2000/svg">
<path d="M7.81014 14.5417L21.0697 7.76352C21.2688 7.66176 21.4594 7.91356 21.3075 8.07754L13.2639 16.758C13.0687 16.9686 13.0907 17.2999 13.3119 17.483L16.6803 20.2708M7.81014 14.5417L1.73512 13.1084C1.41422 13.0327 1.1875 12.7462 1.1875 12.4165V12.4165C1.1875 12.127 1.36311 11.8664 1.63146 11.7577L26.5 1.68359C27.2312 1.38739 28.0014 2.01487 27.8591 2.79081L23.9102 24.3228C23.7724 25.0741 22.8774 25.3998 22.289 24.9128L16.6803 20.2708M7.81014 14.5417L10.3759 22.4112C10.8361 23.8226 12.6194 24.2584 13.6787 23.2183L16.6803 20.2708" stroke="#141414" stroke-width="2" stroke-linecap="round"/>
</svg>
