<svg width="207" height="53" viewBox="0 0 207 53" fill="none" xmlns="http://www.w3.org/2000/svg">
<path d="M18.3946 0C14.5696 0 9.97967 3.79082 6.25903 10.1565C2.29498 16.8084 0 24.9622 0 32.0789C0 42.5216 5.6679 53 18.3946 53C31.1213 53 36.7892 42.5216 36.7892 32.0789C36.7892 24.9622 34.4942 16.7726 30.5302 10.1923C26.8095 3.79082 22.2196 0 18.3946 0ZM117.739 15.5924H130.605V50.1032H144.41V15.5924H157.275V2.82523H117.739V15.5924ZM186.762 15.5924H207V2.82523H186.762C168.159 2.82523 158.249 12.3381 158.249 26.5C158.249 40.6619 168.194 50.1748 186.762 50.1748H207V37.3718H186.762C178.139 37.3718 172.541 34.1889 172.541 26.5C172.541 18.8111 178.139 15.5924 186.762 15.5924ZM89.678 2.861L82.3062 31.1134L74.9345 2.861H50.559V50.2105H64.3637V11.6586L74.4129 50.139H90.2343L100.284 11.6228V50.139H114.088V2.861H89.678Z" fill="white"/>
</svg>
