<svg width="279" height="31" viewBox="0 0 279 31" fill="none" xmlns="http://www.w3.org/2000/svg">
<path fill-rule="evenodd" clip-rule="evenodd" d="M0 0H31.3762V5.43431C27.4018 5.66915 18.9434 6.89931 17.9923 14.4927C17.3981 19.2282 21.2347 21.8946 22.5829 22.8316C22.7248 22.9302 22.8391 23.0096 22.9178 23.0703C25.1484 24.2893 28.1151 25.0273 31.3762 25.1728V30.9889H10.1877C11.2383 29.6706 12.3563 27.952 13.4404 25.8997C14.1991 24.457 15.6711 20.2968 15.6485 16.8413C15.6372 15.3874 15.5465 13.9224 14.8106 13.0836C13.8141 11.9429 11.8325 12.0212 10.621 12.2225C6.77118 12.8599 2.87606 15.6669 0 19.268V0ZM0 21.6947V30.9889H9.98087L10.0369 30.8787C11.21 28.5733 12.82 25.4089 13.599 22.2986C14.3463 19.3463 14.7086 16.4386 13.2253 15.0295C12.1508 14.0124 10.2132 14.6674 8.92192 15.1039L8.87727 15.119C6.62398 15.8683 1.9702 18.7983 0 21.6947ZM31.3762 23.6966V8.72218C27.5942 8.63271 23.1783 9.50501 21.0156 11.6633C19.5662 13.1172 19.2492 15.611 20.1323 17.5682C22.1366 21.9855 27.6283 23.2604 31.3762 23.6966ZM14.6407 0.737333C14.6068 0.681416 14.5728 0.647867 14.5275 0.614317C14.4935 0.59195 14.3576 0.569584 14.3237 0.569584C14.1425 0.636683 14.1425 0.804432 14.1425 0.837982C14.1525 1.18223 14.1663 1.53378 14.1802 1.88863C14.3232 5.53382 14.4799 9.52638 10.7343 9.51619C8.28848 9.50501 5.59359 7.78279 3.22707 4.66266C3.18 4.60251 3.12973 4.53717 3.07675 4.46834C2.69637 3.97406 2.17691 3.29904 1.70978 3.06345C1.30215 2.85097 0.52086 3.39895 0.860552 4.27124C1.80037 6.68683 4.72171 8.92348 5.58227 9.44909C7.42792 10.601 11.3797 11.5069 13.3838 9.89642C15.8252 7.93134 15.253 4.01908 14.9469 1.92566C14.9307 1.81505 14.9153 1.70952 14.9011 1.60963C14.8332 1.17348 14.7539 0.893898 14.6407 0.737333Z" fill="white"/>
<path d="M275.864 12.9726C275.864 11.8543 274.04 10.6465 271.289 10.6465H250.432V15.2987H271.289C274.04 15.2987 275.864 14.0797 275.864 12.9726ZM279 12.9726C279 15.9697 275.546 18.3965 271.289 18.3965H250.432V24.0441H247.296V7.54873H271.289C275.546 7.54873 279 9.9643 279 12.9726ZM240.649 15.7908C240.649 13.0174 235.587 10.2103 225.917 10.2103C216.248 10.2103 211.186 13.0174 211.186 15.7908C211.186 17.9939 217.063 21.3154 225.917 21.3154C234.773 21.3154 240.649 17.9939 240.649 15.7908ZM225.917 7.11258C237.727 7.11258 243.786 11.0155 243.786 15.7908C243.786 20.5661 235.78 24.4131 225.917 24.4131C216.045 24.4131 208.05 20.5661 208.05 15.7908C208.05 11.0155 214.119 7.11258 225.917 7.11258ZM208.05 7.54873H176.255V10.6465H190.59V24.0441H193.726V10.6465H208.061V7.54873H208.05ZM172.201 17.2446L165.057 10.7807L157.912 17.2446H172.201ZM175.632 20.3424H154.492L150.393 24.0441H145.75L165.057 6.57578L184.362 24.0441H179.72L175.632 20.3424ZM145.003 14.5718H126.252V17.6695H141.867V19.224C139.308 20.4206 135.152 21.3154 129.989 21.3154C121.135 21.3154 115.258 17.9939 115.258 15.7908C115.258 13.0174 120.319 10.2103 129.989 10.2103C136.16 10.2103 140.452 11.351 142.75 12.9055L144.494 10.3334C141.549 8.37629 136.703 7.11258 129.989 7.11258C118.179 7.11258 112.121 11.0155 112.121 15.7908C112.121 20.5661 120.126 24.4131 129.989 24.4131C136.285 24.4131 141.822 23.1158 145.003 20.9351V14.5718ZM73.77 7.54873L60.1483 20.376L46.5154 7.54873H42.6429V24.0441H45.7793V11.3399L59.2765 24.0441H61.0089L74.5059 11.3399V24.0441H77.6424V7.54873H73.77ZM85.4214 10.6465V13.8896H108.192V16.9874H85.4214V20.9462H109.188V24.0441H82.2849V7.54873H109.188V10.6465H85.4214Z" fill="white"/>
</svg>
