<svg width="157" height="43" viewBox="0 0 157 43" fill="none" xmlns="http://www.w3.org/2000/svg">
<path d="M75.4009 12.9764C75.4009 12.7285 75.2356 12.6458 75.0703 12.6458H69.8632C69.6152 12.6458 69.4499 12.8111 69.3673 12.9764L61.35 33.061C61.1847 33.309 61.4326 33.6396 61.6806 33.6396H66.3918C66.6397 33.6396 66.8051 33.4743 66.8877 33.2263L70.7724 21.4896L71.0203 33.2263C71.0203 33.4743 71.1856 33.6396 71.3509 33.6396H75.8142C76.0622 33.6396 76.3928 33.3916 76.3928 33.061L75.4009 12.9764ZM56.0602 25.5396H51.349C51.1011 25.5396 51.0184 25.2917 51.101 25.0437L51.7623 20.9937C51.7623 20.7458 52.0102 20.4978 52.1755 20.4978H56.9694C56.9694 20.4151 56.9694 20.3325 56.9694 20.2498C56.9694 20.0019 56.9694 19.8366 56.9694 19.5886C56.9694 19.3407 56.8867 19.1754 56.8041 18.9274C56.7214 18.6794 56.6388 18.5968 56.5561 18.3488C56.4735 18.1835 56.3082 18.0182 56.3082 17.8529C56.1429 17.6876 56.0602 17.605 55.8949 17.5223C55.7296 17.4397 55.5643 17.2743 55.3163 17.2743C55.0684 17.1917 54.9031 17.1917 54.6551 17.1917C54.4072 17.1917 54.2418 17.1917 53.9939 17.1917C53.7459 17.1917 53.5806 17.2743 53.3327 17.2743C53.0847 17.357 53.0021 17.357 52.7541 17.4397C52.5061 17.5223 52.4235 17.605 52.2582 17.6876H52.1755C51.9276 17.7703 51.7623 17.605 51.7623 17.357L51.597 13.8029C51.5143 13.555 51.6796 13.307 51.8449 13.2244C52.0102 13.1417 52.1755 13.0591 52.4235 12.9764C52.6714 12.8938 52.8368 12.8111 53.0847 12.7285C53.3327 12.6458 53.5806 12.5631 53.7459 12.4805C53.9112 12.3978 54.2418 12.3152 54.4898 12.3152C54.7378 12.2325 55.0684 12.2325 55.3163 12.1499C55.5643 12.1499 55.8949 12.0672 56.2255 12.0672C56.7214 12.0672 57.2173 12.1499 57.6306 12.2325C58.0439 12.3152 58.4571 12.4805 58.7877 12.5631C59.1184 12.7285 59.449 12.8938 59.7796 13.1417C60.0275 13.3897 60.3581 13.6376 60.6061 13.8856C60.8541 14.1335 61.0194 14.4642 61.2673 14.7948C61.5153 15.1254 61.5979 15.456 61.7632 15.8693C61.9285 16.1999 62.0112 16.5305 62.0112 17.0264C62.0939 17.357 62.1765 17.7703 62.2592 18.1835C62.3418 18.5968 62.3418 19.0101 62.3418 19.3407C62.3418 19.7539 62.3418 20.0845 62.3418 20.4978C62.3418 20.9111 62.2592 21.3243 62.1765 21.7376C62.0939 22.1509 62.0112 22.4815 61.9285 22.8947V22.9774C61.7632 23.8039 61.5979 24.5478 61.35 25.3743C61.102 26.1182 60.8541 26.8621 60.5235 27.4406C60.1928 28.1018 59.8622 28.6804 59.449 29.259C59.0357 29.8375 58.7051 30.3335 58.2092 30.7467C57.7959 31.16 57.3 31.5733 56.8041 31.9039C56.3082 32.2345 55.8123 32.5651 55.2337 32.7304C54.6551 32.9784 54.1592 33.1437 53.6633 33.2263C53.1674 33.6396 52.6715 33.6396 52.0929 33.6396C51.8449 33.6396 51.5143 33.6396 51.2664 33.5569C51.0184 33.5569 50.6878 33.4743 50.5225 33.4743C50.2745 33.3916 50.0266 33.3916 49.8613 33.309C49.6133 33.2263 49.448 33.1437 49.2827 33.061C49.1174 32.9783 48.9521 32.8957 48.7868 32.813C48.6215 32.7304 48.5388 32.6477 48.3735 32.5651C48.2082 32.4824 48.1256 32.2345 48.2082 31.9865L49.696 28.1845V28.1018C49.8613 27.8539 50.0266 27.7712 50.2745 27.8539C50.4398 27.9365 50.5225 28.0192 50.6878 28.1018C50.8531 28.1845 50.9357 28.1845 51.1837 28.2671C51.349 28.3498 51.5143 28.3498 51.7623 28.3498C52.0102 28.3498 52.0929 28.3498 52.3408 28.3498C52.5888 28.3498 53.0021 28.3498 53.1674 28.2671C53.4153 28.1845 53.6633 28.1018 53.8286 28.0192C54.0765 27.8539 54.2418 27.7712 54.4898 27.6886C54.7378 27.5233 54.8204 27.4406 54.9857 27.1927C55.151 26.9447 55.2337 26.8621 55.399 26.6141C55.5643 26.3661 55.6469 26.2008 55.7296 25.9529C55.8949 25.7049 55.9776 25.457 55.9776 25.2917L56.0602 25.5396ZM86.4764 20.3325H90.4437C90.6917 20.3325 90.7743 20.5805 90.6917 20.8284L90.0304 24.6304C90.0304 24.8784 89.7825 25.1263 89.6172 25.1263H85.6499L84.9886 28.7631H89.4519C89.6998 28.7631 89.7825 29.011 89.6998 29.259L89.0386 33.2263C89.0386 33.4743 88.7907 33.7222 88.6254 33.7222H79.1203C78.8723 33.7222 78.7897 33.4743 78.8723 33.2263L82.4264 13.1417C82.4264 12.8938 82.6744 12.6458 82.8397 12.6458H92.0968C92.3447 12.6458 92.4274 12.8938 92.3447 13.1417L91.6835 17.109C91.6835 17.357 91.4355 17.605 91.2702 17.605H87.055L86.4764 20.3325ZM108.793 33.6396H104.743C104.495 33.6396 104.412 33.3916 104.412 33.1437L105.156 26.8621C105.239 26.5314 105.321 26.0355 105.321 25.5396L105.404 25.0437L105.486 24.4651L105.404 24.7131L105.073 25.6223L104.991 25.8702C104.825 26.2008 104.743 26.5314 104.66 26.7794L102.18 32.8957C102.098 33.1437 101.932 33.2263 101.767 33.2263H98.3784C98.1304 33.2263 98.0478 33.061 98.0478 32.8957L97.7998 26.7794V26.2008V25.5396V24.8784V24.2172L97.5518 25.1263L97.3039 26.1182L97.0559 26.9447L95.5682 33.2263C95.4855 33.4743 95.3202 33.6396 95.1549 33.6396H91.2702H91.1876C90.9396 33.5569 90.857 33.3916 90.9396 33.061L96.0641 12.9764C96.1467 12.7285 96.312 12.5631 96.4774 12.5631H101.271C101.519 12.5631 101.602 12.7285 101.602 12.8938L101.767 19.3407C101.767 20.4978 101.85 21.407 101.85 22.2335V22.9774C101.85 23.308 101.85 23.7213 101.85 24.1345C102.015 23.8039 102.098 23.3906 102.263 22.9774C102.511 22.3988 102.676 21.8202 102.924 21.159C103.172 20.4978 103.338 19.9192 103.585 19.3407L106.065 12.8938C106.148 12.6458 106.313 12.5631 106.478 12.5631H111.272C111.52 12.5631 111.603 12.8111 111.603 13.0591L109.289 33.1437C109.206 33.3916 109.041 33.6396 108.793 33.6396ZM119.537 20.3325H123.505C123.753 20.3325 123.835 20.5805 123.753 20.8284L123.092 24.6304C123.092 24.8784 122.844 25.1263 122.678 25.1263H118.711L118.05 28.7631H122.513C122.761 28.7631 122.844 29.011 122.761 29.259L122.1 33.2263C122.1 33.4743 121.852 33.7222 121.686 33.7222H112.181C111.933 33.7222 111.851 33.4743 111.933 33.2263L115.487 13.1417C115.487 12.8938 115.735 12.6458 115.901 12.6458H125.158C125.406 12.6458 125.488 12.8938 125.406 13.1417L124.745 17.109C124.745 17.357 124.497 17.605 124.331 17.605H120.116L119.537 20.3325ZM124.827 33.061L128.381 12.9764C128.381 12.7285 128.629 12.4805 128.795 12.4805H133.423C133.671 12.4805 133.754 12.7285 133.671 12.9764L132.514 20.4151H135.076L136.399 13.0591C136.399 12.8111 136.647 12.5631 136.812 12.5631H141.44C141.688 12.5631 141.771 12.8111 141.688 13.0591L138.134 33.1437C138.134 33.3916 137.886 33.6396 137.721 33.6396H133.092C132.845 33.6396 132.762 33.3916 132.845 33.1437L134.167 25.7049H131.605L130.282 33.2263C130.282 33.4743 130.034 33.7222 129.869 33.7222H125.24C124.993 33.5569 124.827 33.3916 124.827 33.061ZM148.631 33.6396H144.003C143.755 33.6396 143.672 33.3916 143.755 33.1437L146.482 17.8529H143.424C143.176 17.8529 143.093 17.605 143.176 17.357L143.92 13.0591C143.92 12.8111 144.168 12.5631 144.333 12.5631H155.905C156.153 12.5631 156.235 12.8111 156.153 13.0591L155.409 17.357C155.409 17.605 155.161 17.8529 154.995 17.8529H151.855L149.127 33.1437C149.044 33.3916 148.796 33.6396 148.631 33.6396Z" fill="white"/>
<path fill-rule="evenodd" clip-rule="evenodd" d="M19.3624 42.8141C7.54311 42.8141 -1.05277 33.309 0.104371 21.407C1.34416 9.50506 11.7584 0 23.6604 0H46.8031L43.0011 21.407C40.8521 33.1437 31.1818 42.8141 19.3624 42.8141ZM24.5696 13.1418L23.9084 15.6214C25.6441 15.6214 27.6277 16.5305 28.7849 17.605C30.19 19.1754 30.6032 21.3244 30.19 23.9693C29.0328 30.6641 23.5778 33.7223 17.4615 33.557H17.2135H16.9656H16.4696H12.7503L13.8248 27.6886H17.5441H18.7839H18.9492C21.0982 27.6886 22.5033 26.5315 22.8339 24.5478C23.3298 21.1591 20.1064 20.7458 17.6268 21.0764C17.4615 21.0764 17.2962 21.0764 17.2135 20.9111C17.1309 20.8285 17.0482 20.6632 17.1309 20.4979L19.6104 7.19079C19.6931 6.94283 20.0237 6.69487 20.2717 6.69487H34.0747L32.9175 13.1418H24.5696Z" fill="white"/>
</svg>
