<svg width="146" height="43" viewBox="0 0 146 43" fill="none" xmlns="http://www.w3.org/2000/svg">
<path fill-rule="evenodd" clip-rule="evenodd" d="M21.0724 0C9.43443 0 0 9.43444 0 21.0724C0 32.7104 9.43444 42.1448 21.0724 42.1448H124.459C136.097 42.1448 145.531 32.7104 145.531 21.0724C145.531 9.43444 136.097 0 124.459 0H21.0724ZM23.9435 14.4478H29.3249V28.316H32.2408V14.4478H37.6221V11.7215H23.9435V14.4478ZM43.5075 14.4478H48.8889V28.316H51.8048V14.4478H57.1861V11.7215H43.5075V14.4478ZM78.6519 11.7215V28.316H76.3287L67.2017 16.8184V28.316H64.4754V11.7215H66.7987L75.9257 23.2666V11.7215H78.6519ZM98.7059 11.7215V27.3915C99.2433 27.7392 99.9229 28.0237 100.745 28.2449C101.582 28.4662 102.412 28.5768 103.234 28.5768C105.099 28.5768 106.576 28.0553 107.667 27.0122C108.773 25.9691 109.326 24.5704 109.326 22.8161C109.326 21.1883 108.868 19.8844 107.951 18.9046C107.051 17.8931 105.818 17.3874 104.253 17.3874C103.147 17.3874 102.207 17.6956 101.432 18.3119V11.7215H98.7059ZM101.432 20.967C102.017 20.2875 102.744 19.9477 103.613 19.9477C104.435 19.9477 105.107 20.2163 105.628 20.7537C106.15 21.291 106.411 22.0417 106.411 23.0058C106.411 23.9383 106.126 24.6811 105.557 25.2342C105.004 25.7715 104.277 26.0402 103.376 26.0402C102.665 26.0402 102.017 25.8585 101.432 25.495V20.967ZM119.645 17.6481H122.751L118.555 28.316C117.796 30.1651 117.117 31.4137 116.516 32.0617C115.931 32.7254 115.236 33.0573 114.43 33.0573C113.671 33.0573 112.905 32.7808 112.13 32.2276L113.007 30.1651C113.418 30.418 113.79 30.5444 114.122 30.5444C114.77 30.5444 115.315 29.9913 115.757 28.885L115.994 28.316L111.063 17.6481H114.335L116.824 23.4799C116.856 23.5589 117.03 24.0726 117.346 25.0208C117.44 24.4361 117.567 23.9145 117.725 23.4562L119.645 17.6481ZM86.2651 19.0969H90.8747V23.7065H86.2651V19.0969Z" fill="white"/>
</svg>
