<svg width="241" height="67" viewBox="0 0 241 67" fill="none" xmlns="http://www.w3.org/2000/svg">
<rect width="241" height="66.4421" rx="33.221" fill="url(#paint0_linear)"/>
<mask id="mask0" mask-type="alpha" maskUnits="userSpaceOnUse" x="0" y="0" width="241" height="67">
<rect width="241" height="66.4421" rx="33.221" fill="#141414"/>
</mask>
<g mask="url(#mask0)">
<rect x="37.6719" y="-32.6309" width="43.9576" height="90.8125" transform="rotate(39.4658 37.6719 -32.6309)" fill="url(#paint1_linear)"/>
<rect x="88.0078" y="-28.7002" width="30.9854" height="118.135" transform="rotate(38.939 88.0078 -28.7002)" fill="url(#paint2_linear)"/>
<rect x="124.57" y="-25.5537" width="33.0653" height="118.135" transform="rotate(38.939 124.57 -25.5537)" fill="url(#paint3_linear)"/>
</g>
<path d="M47.2064 22.7978H37.7422V18.4775H61.7987V22.7978H52.3345V44.7748H47.2064V22.7978Z" fill="#141414"/>
<path d="M81.6134 22.7978H72.1492V18.4775H96.2057V22.7978H86.7416V44.7748H81.6134V22.7978Z" fill="#141414"/>
<path d="M133.957 18.4775V44.7748H129.872L113.82 26.5546V44.7748H109.025V18.4775H113.111L129.163 36.7729V18.4775H133.957Z" fill="#141414"/>
<path d="M169.226 43.3097V18.4775H174.021V28.9213C175.383 27.9446 177.037 27.4562 178.982 27.4562C181.734 27.4562 183.902 28.2576 185.486 29.8605C187.098 31.4133 187.905 33.4795 187.905 36.0591C187.905 38.8391 186.932 41.0556 184.986 42.7086C183.068 44.3616 180.469 45.188 177.19 45.188C175.744 45.188 174.285 45.0127 172.812 44.6621C171.367 44.3115 170.171 43.8607 169.226 43.3097ZM177.857 31.5135C176.328 31.5135 175.049 32.0519 174.021 33.1289V40.3043C175.049 40.8803 176.189 41.1683 177.44 41.1683C179.024 41.1683 180.303 40.7426 181.275 39.891C182.276 39.0145 182.776 37.8373 182.776 36.3597C182.776 34.8319 182.318 33.6423 181.4 32.7908C180.483 31.9392 179.302 31.5135 177.857 31.5135Z" fill="#141414"/>
<path d="M206.052 27.8694H211.514L204.134 44.7748C202.8 47.7051 201.605 49.6836 200.549 50.7105C199.52 51.7624 198.297 52.2883 196.88 52.2883C195.546 52.2883 194.198 51.85 192.836 50.9734L194.378 47.7051C195.101 48.1058 195.754 48.3062 196.338 48.3062C197.477 48.3062 198.436 47.4296 199.215 45.6764L199.631 44.7748L190.959 27.8694H196.713L201.091 37.111C201.146 37.2363 201.452 38.0502 202.008 39.5529C202.175 38.6263 202.397 37.7998 202.675 37.0735L206.052 27.8694Z" fill="#141414"/>
<rect x="142.859" y="30.1074" width="7.63348" height="7.2671" fill="#141414"/>
<defs>
<linearGradient id="paint0_linear" x1="195.395" y1="1.39001e-05" x2="143.106" y2="66.4421" gradientUnits="userSpaceOnUse">
<stop stop-color="#FEDA32"/>
<stop offset="1" stop-color="#FD8E40"/>
</linearGradient>
<linearGradient id="paint1_linear" x1="59.6507" y1="-32.6309" x2="59.6507" y2="58.1817" gradientUnits="userSpaceOnUse">
<stop stop-color="#FD8640"/>
<stop offset="1" stop-color="#FD6B24"/>
</linearGradient>
<linearGradient id="paint2_linear" x1="103.501" y1="-28.7002" x2="103.501" y2="89.4344" gradientUnits="userSpaceOnUse">
<stop stop-color="#FDB338"/>
<stop offset="1" stop-color="#FD6B22"/>
</linearGradient>
<linearGradient id="paint3_linear" x1="141.103" y1="-25.5537" x2="141.103" y2="92.5809" gradientUnits="userSpaceOnUse">
<stop stop-color="#FEDC32"/>
<stop offset="0.947917" stop-color="#FDB839"/>
</linearGradient>
</defs>
</svg>
