<svg width="260" height="45" viewBox="0 0 260 45" fill="none" xmlns="http://www.w3.org/2000/svg">
<path d="M110.273 10.6545C109.759 10.7368 108.487 11.3332 108.22 12.8347C109.226 11.4772 109.411 11.4155 109.944 11.1687C111.483 10.4077 114.193 11.9091 115.486 11.8885C115.506 11.8268 115.527 11.8063 115.527 11.7446C113.679 11.3538 112.366 10.3254 110.273 10.6545ZM110.231 11.58C109.226 11.9297 108.241 13.0403 108.836 14.0276C109.472 15.0765 110.991 14.4801 111.545 13.9042C112.12 13.3283 112.386 12.0119 114.11 12.4027C114.234 12.3205 114.398 12.5467 114.459 12.3205C113.474 11.5595 111.648 11.3126 110.231 11.58ZM125.214 12.0325C125.008 11.6417 124.783 11.2509 124.557 10.8602C124.331 10.5105 124.105 10.1609 123.859 9.81121C120.226 4.60759 114.213 1.19336 107.42 1.19336C96.378 1.19336 87.3887 10.202 87.3887 21.2674C87.3887 32.3328 96.378 41.3414 107.42 41.3414C114.213 41.3414 120.226 37.9272 123.859 32.7236C124.105 32.3739 124.331 32.0243 124.557 31.6746C124.783 31.3044 125.008 30.9136 125.214 30.5023C126.65 27.7256 127.471 24.5994 127.471 21.2674C127.471 17.9354 126.65 14.8092 125.214 12.0325ZM107.42 21.1646V17.6064C107.522 17.5652 107.953 18.573 107.974 18.717C108.507 21.5759 108.097 22.2958 107.42 22.3163V21.1646ZM106.968 38.791C97.5274 38.5442 89.9747 30.7697 89.9747 21.2674C89.9541 11.6417 97.5273 4.1551 106.989 3.76432V4.89554C106.989 4.89554 101.55 4.95724 97.3221 8.55658C97.199 8.74169 97.3221 8.84453 97.5889 8.70056C97.8763 8.55658 101.571 6.04733 105.224 6.84947C106.25 7.40479 106.989 9.00907 106.989 9.83178V11.4772C105.716 9.93462 102.658 8.78283 100.75 9.17361C100.195 9.29702 100.462 9.52326 100.565 9.5644C102.186 9.54383 106.701 11.2304 106.989 13.5957V24.1263C108.261 24.188 108.754 23.8178 109.021 23.5504C109.452 23.1391 109.903 22.1107 109.759 21.144L109.287 21.3085H109.267C109.082 22.7894 108.651 23.283 107.42 23.6532V23.0362C108.282 22.9539 108.672 22.1929 108.59 20.5475C108.507 18.9638 108.056 17.7092 107.399 16.3929V15.1794C108.035 16.434 108.59 18.861 109.021 19.2723C109.349 19.1489 108.528 16.9893 108.241 16.1666C108.549 15.7964 109.103 17.0099 109.431 17.6475C110.026 19.1284 111.483 24.1057 109.123 24.8873C106.989 25.4426 105.388 25.1958 104.752 24.2497C103.746 22.5837 105.819 20.527 105.162 19.7248L104.608 14.5829C104.198 10.9836 99.2308 9.74951 97.2605 12.0531C96.9322 12.5673 97.3837 12.4027 97.63 12.1971C99.2103 11.1687 102.699 10.963 103.684 13.9659C103.91 14.5623 103.89 15.817 103.212 14.1921C102.002 12.2999 100.236 11.4361 98.1431 12.9375C97.7942 13.1637 96.5012 14.295 96.0702 13.6779C95.2903 12.6701 97.0553 11.2509 96.9937 10.6339L96.7269 10.7985C95.475 11.8474 94.6335 14.3978 95.4339 16.3929C95.5571 16.9071 96.1317 17.3801 95.0235 17.6269C92.6632 18.4908 92.2938 20.856 92.2938 21.8227C92.2938 25.6689 95.5366 30.0704 99.6618 27.993C100.524 27.4583 100.975 26.8412 101.283 26.4504L101.057 26.2653C94.6335 32.991 90.5904 19.8688 95.947 19.0461C96.5627 19.766 97.4658 20.6298 98.4099 20.856C100.278 21.288 102.022 20.5064 104.013 17.6886C104.321 17.3801 104.403 17.6681 104.341 17.8326C104.136 18.9021 102.987 20.4036 102.781 20.8355C102.658 21.0823 102.761 21.3908 103.11 21.1029C103.561 20.4858 103.684 20.0745 104.074 19.9922L103.192 21.8844C102.863 22.3986 102.597 22.6866 103.459 22.5837C104.28 22.5837 103.91 22.9951 104.033 23.6121C104.793 24.7228 102.987 25.5455 102.822 23.9618C102.822 23.4064 103.294 23.0156 102.966 22.9128C102.638 23.0156 102.207 23.8178 102.186 24.7228L101.365 25.9568L101.55 26.1625L102.474 24.8667C102.884 25.7923 104.403 25.2781 104.485 25.2575C104.813 25.2781 104.998 25.3604 105.183 25.5866C105.203 25.9363 105.408 26.0391 105.491 26.4916C105.983 27.0058 105.285 27.2115 104.854 27.376C103.171 28.0136 103.069 29.0214 102.391 29.8441C101.94 30.3994 101.755 30.2143 101.345 30.6257C101.037 31.1604 101.755 31.3867 101.899 31.6541C102.104 32.0654 102.515 32.6413 103.11 32.8881C103.5 33.0115 103.725 33.1144 103.13 33.4435C102.699 33.7314 102.515 34.4718 102.515 34.7186C102.515 35.3562 102.658 36.179 103.479 36.7137C102.987 36.5903 102.679 36.4875 102.207 36.2818C102.638 35.747 102.248 35.5825 102.166 35.4385C101.981 35.4797 101.96 36.179 101.078 35.8704C101.365 35.3562 103.171 33.2789 102.289 32.9704C101.571 34.1633 101.304 35.5414 99.7644 35.274C100.442 34.7598 101.488 34.2045 101.981 32.6207L101.735 32.5385C101.14 33.752 99.9491 35.2123 98.533 34.513C99.1487 34.225 99.5592 33.9576 99.8876 33.6903C100.175 33.4435 101.529 32.2917 101.037 32.0449C100.236 32.847 98.4714 34.7186 97.4042 33.6286C98.0199 33.464 98.6767 33.1966 99.1898 32.8676C99.6823 32.5385 100.38 31.8597 100.77 31.6335L100.606 31.3044C100.216 31.3867 98.4304 32.847 98.0404 32.9293C97.4863 33.0732 97.0348 33.464 96.2344 32.6002C97.24 32.4973 98.1841 32.2094 98.6356 31.9214C99.0051 31.6952 100.319 31.0576 100.483 31.037L100.298 30.708C99.3745 31.0165 98.6356 32.1066 96.6243 32.1066C96.4806 32.1066 95.7007 32.0654 95.044 31.2838L95.0645 31.2427C96.2959 31.4278 97.3016 31.4073 98.492 31.0576C99.0666 30.8519 99.6002 30.5023 100.175 30.3377L99.9902 29.9058C98.9024 30.3789 98.102 30.8931 96.768 30.8931C95.2697 30.8931 95.0235 31.1193 94.1204 29.9264C94.2846 29.7413 95.3929 30.276 96.1317 30.276C97.7736 30.276 98.533 30.2349 99.9081 29.5973L99.7439 29.2682C99.2719 29.4739 98.1841 29.803 97.199 29.8235C94.9414 29.8441 93.2174 28.8363 93.0942 27.8902C93.7305 28.4249 94.6951 29.1037 95.7828 29.2065C96.6243 29.2888 98.8819 29.2065 99.6823 28.898L99.5387 28.5895C99.1077 28.754 97.3016 28.9186 96.768 28.9186C95.6187 28.9186 94.3462 28.0959 94.0178 27.849C91.7397 26.0185 91.0829 20.5064 92.3759 18.7376C92.6427 17.8532 94.2641 16.4957 94.2436 16.2283C93.9768 13.6162 93.8331 12.6907 95.8239 9.93462C94.1204 10.9836 92.8685 13.3077 93.6484 15.529C93.9973 16.5163 92.5196 17.3801 92.0886 18.0794C90.1594 21.2674 91.0419 24.6611 92.3964 27.8696C97.1374 37.9683 106.948 37.6598 106.948 37.6598L106.968 38.791ZM107.42 6.74663V6.23244C107.994 6.29414 108.466 6.43811 109 6.56152C109.616 5.94449 107.687 5.92392 107.42 5.73881V5.36859C108.795 5.30689 110.17 5.51257 111.504 5.88279L111.463 6.00619C110.334 6.08846 109.308 6.84947 108.425 7.77501C108.343 7.85728 108.241 8.1658 107.933 8.1658C107.625 8.14523 107.502 8.04239 107.399 7.77501V7.11685C107.707 7.11685 108.302 7.50763 108.364 7.05514C107.933 6.8289 107.789 6.93174 107.42 6.74663ZM121.581 15.5702C121.725 15.6113 122.156 15.7553 122.34 15.9198C122.381 15.9609 122.402 15.9815 122.423 16.0226L122.546 16.434C122.443 16.3929 122.34 16.3312 122.238 16.29C121.992 16.146 121.807 16.0638 121.643 16.3929C121.848 16.4751 122.012 16.5574 122.156 16.6191C122.443 16.7836 122.587 16.9482 122.71 17.051C122.73 17.1744 122.833 17.3595 122.854 17.5447C122.566 17.5447 122.279 17.2773 122.012 17.2156C121.909 17.195 121.827 17.195 121.745 17.2361V17.2567L121.725 17.4212C121.786 17.4418 121.868 17.4829 121.95 17.5241C122.279 17.7092 122.751 18.0588 122.956 18.3674C123.038 18.4908 123.079 18.5936 123.038 18.6964C122.997 18.6964 122.956 18.6964 122.915 18.6759C122.566 18.5936 122.176 18.1411 121.93 18.3262C121.93 18.5319 122.033 18.6347 122.094 18.6964C122.34 18.9638 122.628 19.0461 122.854 19.1695C123.1 19.3135 123.264 19.478 123.223 19.9922C123.038 19.9511 122.915 19.9099 122.792 19.8482C122.607 19.766 122.423 19.6837 122.012 19.5191C121.663 19.7043 122.258 20.0745 122.525 20.1362C122.607 20.1567 122.689 20.1979 122.771 20.239C123.018 20.3624 123.264 20.5681 123.264 20.7121L123.285 21.288C123.12 21.2263 122.915 21.1234 122.73 21.0206C122.402 20.856 122.074 20.7121 121.766 20.9177C121.766 21.3291 122.299 21.3291 122.73 21.5553C123.038 21.7199 123.305 22.0078 123.223 22.666C123.059 22.6866 122.915 22.6454 122.792 22.5837C122.484 22.4192 122.238 22.1312 121.95 22.1312L121.848 22.522C122.176 22.7071 122.505 23.0362 122.854 23.283C122.956 23.3447 123.038 23.4064 123.141 23.4476L123.038 24.044C123.018 24.044 122.977 24.0235 122.956 24.0235C122.628 23.9001 122.074 23.3653 121.868 23.3653C121.807 23.427 121.766 23.4887 121.745 23.5504C121.704 23.6532 121.704 23.7355 121.786 23.8384C121.786 23.8384 121.786 23.8589 121.807 23.8589C121.807 23.8795 122.546 24.4554 122.956 24.6405C122.812 25.6072 122.381 25.4015 122.012 25.1135C121.643 24.8462 121.314 24.5171 121.314 25.0724C121.519 25.3192 121.868 25.5249 122.156 25.7717C122.299 25.8951 122.423 26.0185 122.525 26.1831C122.464 26.3682 122.423 26.4916 122.361 26.6356C122.34 26.6973 122.299 26.7795 122.279 26.8412C121.848 26.471 121.396 26.1008 120.965 25.7717C119.631 24.7433 118.256 23.9206 116.614 23.2213C116.881 22.2752 119.898 24.0029 119.898 24.188C119.98 24.0029 120.083 23.9823 120.124 23.8384C119.816 23.6121 118.113 22.5015 117.641 22.4398C117.62 22.378 117.989 22.0284 118.03 21.9256C118.154 21.905 119.077 22.2546 119.2 22.3163C119.59 21.8433 118.646 21.8022 118.379 21.4319C118.523 21.288 118.564 21.1234 118.646 20.8972C118.872 20.9794 119.159 21.3291 119.364 21.1851C119.467 21.0617 119.467 20.9795 119.426 20.856C118.667 20.3624 118.79 20.6915 118.975 19.7865C120.001 19.8894 119.631 19.5808 119.098 19.2929L119.2 18.6759C119.426 18.7581 119.857 18.8404 119.734 18.4291C119.57 18.3468 119.508 18.3879 119.282 18.2028C119.364 18.0177 119.385 17.8532 119.406 17.5858C119.57 17.5241 119.672 17.5652 119.816 17.5035C119.857 17.2156 119.611 17.2156 119.447 17.0716C119.488 16.8865 119.467 16.7425 119.467 16.5368L119.857 16.5985C119.939 16.5985 120.042 16.2695 119.898 16.2283C119.652 16.146 119.18 15.9198 119.016 15.6524C120.493 15.8581 120.657 15.1588 121.396 14.7063C121.417 14.6857 121.478 14.6857 121.561 14.7063C121.704 14.7269 121.889 14.7886 121.992 14.8709L122.197 15.3233C121.992 15.385 121.663 15.1794 121.519 15.1999C121.437 15.5085 121.581 15.5085 121.581 15.5702ZM111.258 33.1761C111.422 32.9704 111.545 32.7853 111.648 32.559C112.735 33.5463 113.023 35.0889 113.023 36.1995C112.735 36.2612 112.428 36.4052 112.12 36.4875C112.386 35.2123 111.935 34.2045 111.258 33.1761ZM107.42 33.5874C109.246 33.6697 110.437 34.0399 110.478 35.1094C110.519 36.2612 109.123 36.7137 107.42 36.7754V36.3641C105.449 36.3024 104.546 36.0144 104.546 35.0889C104.546 34.0811 105.696 33.9576 107.42 34.0193V33.5874ZM110.704 23.5298C111.935 22.5837 113.064 24.5788 111.771 25.5043C110.58 26.5944 109.246 26.5944 107.728 26.5944C107.687 28.1781 110.314 29.7618 111.73 29.3094C113.987 29.1037 115.362 26.3065 116.922 27.2937C117.456 27.6228 117.21 28.0547 117.599 28.4455C117.907 28.4249 117.907 28.2398 117.969 28.0136C116.963 27.3554 118.503 26.1214 116.306 25.9363C115.383 25.854 115.034 24.3525 112.859 24.9284C113.864 23.5093 116.368 23.6532 117.271 24.2497C119.652 25.8334 118.051 30.2349 117.435 29.7618C117.374 26.9235 112.14 30.564 111.278 30.276C109.349 30.0498 108.241 28.5278 107.44 28.3838H107.03V29.4122C106.004 29.3299 106.496 29.042 105.388 29.042C104.259 29.042 104.3 29.4533 103.274 29.9264C104.013 28.3838 104.218 27.9725 105.203 27.8696C105.552 27.8696 107.379 28.4249 107.461 27.9108V25.6689C109.041 25.7511 109.554 25.2987 110.334 24.5377C110.498 24.7845 111.176 25.2781 111.442 24.9079C111.196 24.5377 110.211 24.8256 110.704 23.5298ZM117.312 15.1999L118.01 15.3439C118.256 16.2489 118.461 18.2851 116.204 19.2723C114.439 20.0539 112.612 18.8404 111.832 17.5858L112.551 17.3595C112.961 18.1411 114.582 19.2518 115.958 18.5936C117.456 17.8943 117.415 16.5368 117.312 15.1999ZM115.732 15.4262C116.04 15.2411 116.245 15.2205 116.553 15.2411C117.168 17.1333 116.43 17.8943 115.752 18.1822C114.665 18.6142 113.7 17.956 113.125 17.1539C113.29 17.0305 113.679 16.6602 113.864 16.6397C114.09 17.4624 114.747 17.6475 115.383 17.4418C116.101 17.195 116.45 16.2283 115.732 15.4262ZM112.756 16.8865C111.627 17.3801 110.745 16.9893 110.108 16.6397C112.817 16.2695 112.735 15.385 114.439 14.2333C115.055 13.9864 116.389 14.2538 116.799 14.7269C113.618 15.0354 114.582 16.0843 112.756 16.8865ZM114.89 19.9922C117.168 20.095 118.236 18.9021 118.851 16.8248H118.933C118.892 18.3674 117.907 20.1362 115.752 20.3419C112.079 20.7121 109.493 16.8042 109.493 16.8042L109.534 16.6808C111.648 18.4908 112.776 19.8894 114.89 19.9922ZM113.433 20.6709C115.137 21.3085 117.702 20.1362 118.728 18.9433C118.072 20.1773 116.43 21.288 114.357 21.2468C113.597 21.2468 111.545 20.5475 110.17 18.7376C110.273 18.717 112.715 20.6915 113.433 20.6709ZM114.562 26.8824C113.987 27.0263 112.92 26.2859 112.756 25.7923C112.961 25.7306 113.105 25.7306 113.392 25.854C113.905 26.1008 113.515 26.3682 114.562 26.8824ZM113.72 25.2781C114.685 25.3604 114.357 25.7306 115.321 26.1831C114.829 26.2242 113.762 25.8746 113.72 25.2781ZM109.595 27.0058C109.862 27.0058 110.273 27.0469 110.437 27.2526C110.704 27.5817 110.991 28.0959 112.243 28.6306C111.073 28.7335 109.411 27.4171 109.595 27.0058ZM110.704 28.7746C110.786 28.8363 109 28.3632 108.261 27.1292C108.487 27.1497 108.856 27.1086 109.103 27.3349C109.369 27.5817 109.452 27.9107 110.704 28.7746ZM110.56 26.6973C110.765 26.6973 111.34 26.6973 111.483 26.8824C111.668 27.1292 112.284 27.7873 113.125 28.0547C112.469 28.3221 110.786 27.1497 110.56 26.6973ZM111.689 26.2242C111.955 26.2036 112.181 26.1214 112.448 26.2859C112.674 26.4299 112.469 26.7178 113.844 27.5611C113.31 27.6434 111.812 26.7795 111.689 26.2242ZM111.052 21.4525C111.237 21.4525 112.735 22.666 114.295 22.7277C115.527 22.7894 117.004 22.5015 117.538 21.761H117.579C117.189 22.666 115.403 23.2008 114.213 23.1596C113.618 23.1185 111.668 22.4192 111.052 21.4525ZM114.418 22.1724C113.187 22.0695 111.648 21.3908 110.847 20.1979H110.868C112.14 21.2263 113.392 21.7405 114.562 21.7405C116.019 21.7405 116.737 21.3085 118.297 20.4036C117.599 21.4114 115.855 22.0695 114.418 22.1724ZM114.665 29.6796C115.137 29.2682 115.342 29.2477 115.834 29.2682C116.204 30.4611 115.793 31.8186 115.116 32.0449C115.424 30.5228 114.788 30.3789 114.665 29.6796ZM113.618 31.7158C113.289 31.2427 113.207 30.9959 112.776 30.5434C113.146 30.4817 113.474 30.3377 113.823 30.276C113.946 30.564 113.987 31.1604 113.618 31.7158ZM108.507 30.0292C108.282 31.469 107.707 30.0704 107.789 29.6384C108.015 29.803 108.261 29.8852 108.507 30.0292ZM103.643 31.2838C103.951 30.4817 104.875 30.3377 107.379 31.0576C108.405 31.1193 110.211 30.6257 111.073 31.4278C111.381 31.7158 111.114 32.2711 110.765 33.0732H105.757C104.423 33.0527 103.048 32.5179 103.643 31.2838ZM111.545 35.2123C111.75 35.9321 111.73 36.2407 111.668 36.6314C110.56 36.8988 109.493 37.0839 108.323 37.1456C110.252 36.7754 111.052 36.5286 111.545 35.2123ZM112.243 32.4151L113.31 32.5796C113.823 33.1761 114.11 33.7314 114.377 35.6031C114.11 35.7676 113.844 35.8499 113.556 35.9527C113.536 34.7803 113.064 33.464 112.243 32.4151ZM114.069 32.6413C114.028 32.5385 114.624 32.5796 115.034 32.4768C115.403 33.2583 115.691 33.7725 115.67 34.8215C115.403 35.0066 115.178 35.1711 114.849 35.3151C114.829 33.7725 114.5 33.5463 114.069 32.6413ZM115.465 32.3122C115.752 32.2505 115.896 32.1888 116.122 32.0037C116.409 32.4973 116.737 33.5052 116.717 34.225C116.512 34.2867 116.286 34.5747 116.081 34.6775C116.081 34.0193 115.896 33.1349 115.465 32.3122ZM116.512 31.7569C116.614 31.6952 117.045 31.2838 117.066 31.2838C117.599 31.9214 117.661 32.4562 117.805 33.2789C117.764 33.4435 117.312 33.7108 117.189 33.7725C117.168 33.0115 117.066 32.5385 116.512 31.7569ZM117.456 30.7902C117.599 30.6257 117.764 30.5434 117.907 30.2349C118.482 30.9342 118.708 31.469 118.872 32.3122C118.667 32.559 118.482 32.7442 118.256 32.9293C118.133 31.8803 118.01 31.5101 117.456 30.7902ZM118.256 29.9058C118.461 29.7001 118.523 29.6179 118.626 29.3505C119.2 29.8441 119.59 30.3789 119.837 31.0576L119.303 31.6541C119.262 31.6746 118.81 30.4406 118.256 29.9058ZM118.892 28.9391C119.036 28.6512 119.036 28.5072 119.098 28.1164C119.98 28.6718 120.514 29.6179 120.719 30.0087C120.616 30.1938 120.452 30.3789 120.206 30.6668C119.754 29.7824 119.549 29.5562 118.892 28.9391ZM119.2 27.4377V26.7384C119.816 26.8824 120.965 27.993 121.437 28.7335C121.273 29.0625 121.15 29.3094 120.986 29.5767L120.945 29.5562C120.616 28.8569 119.919 27.9107 119.2 27.4377ZM118.995 25.9363C118.995 25.6072 118.831 25.1547 118.728 24.8667C119.529 25.0313 120.452 25.9568 121.171 26.5944C121.232 26.6561 121.294 26.6973 121.355 26.759V26.8207C122.217 27.6022 121.992 27.7256 121.684 28.2604C121.663 28.281 121.643 28.3221 121.643 28.3427C121.294 27.5611 119.652 26.327 118.995 25.9363ZM119.447 15.2205C118.975 15.1794 118.667 15.0354 118.338 14.768C118.338 14.7063 118.338 14.6652 118.359 14.624C119.364 14.6446 120.678 14.0276 120.965 12.9992C121.13 13.1637 121.294 13.5134 121.458 13.8425C121.088 14.7474 120.473 15.2205 119.447 15.2205ZM118.215 14.1921C117.846 14.151 116.737 13.9453 116.676 13.4723C117.312 12.6495 119.241 13.4517 119.693 11.1275C120.001 11.5595 120.514 12.2793 120.719 12.5467C120.165 13.8219 118.851 14.1921 118.215 14.1921ZM116.122 13.1226C114.008 13.2666 113.618 14.7886 111.668 15.8992C110.006 16.5163 107.687 15.8992 107.461 13.9864C107.05 10.5516 110.539 9.60553 113.146 10.4077C115.465 11.2098 116.779 11.5389 119.118 10.9836C118.379 13.102 116.737 12.8758 116.122 13.1226ZM117.764 10.5928C117.538 10.3254 118.215 9.87291 118.379 9.77007L119.036 10.3665C118.954 10.6545 118.01 10.5928 117.764 10.5928ZM117.189 10.5105L117.004 10.5722C116.594 10.3871 117.127 9.13248 117.353 8.8651L117.928 9.31759C118.215 9.54383 117.558 9.99632 117.189 10.5105ZM116.614 9.85235C116.614 9.97575 116.43 9.93462 116.204 9.72894C115.917 9.07077 116.142 8.65942 116.532 8.2892L117.025 8.61829C116.655 9.07077 116.553 9.31759 116.614 9.85235ZM115.917 8.59772C115.917 9.13248 115.691 8.84453 115.588 8.80339C115.403 8.55658 115.28 8.10409 115.67 7.67217C115.917 7.81615 116.04 7.89842 116.224 8.08353C115.999 8.18636 115.875 8.37147 115.917 8.59772ZM115.732 10.2226C111.668 8.9885 110.765 9.13248 108.076 10.7368C108.713 9.93462 110.56 9.00907 111.196 8.8651C112.817 8.45374 113.782 8.45374 115.28 9.46156C115.629 9.81121 115.732 10.058 115.732 10.2226ZM114.439 8.08353C112.571 8.00126 111.894 8.04239 110.991 8.33034C110.19 8.57715 109.041 8.82396 107.83 10.4282H107.789C107.399 10.819 107.379 10.4077 107.563 10.0375C108.364 7.48706 111.217 5.59484 113.885 6.72606C114.439 7.03458 115.219 7.67217 114.439 8.08353ZM98.5741 19.2929C99.7849 19.8894 100.483 19.6014 101.324 19.3135C101.55 19.1284 101.837 19.0872 101.981 19.0872C102.33 19.478 100.442 20.1773 99.7234 20.0333C97.8762 19.8894 96.2959 18.3468 96.7064 16.7425C97.0143 16.3312 97.63 18.1411 98.6356 18.3879C100.339 19.1284 102.043 17.6269 102.371 17.0099C102.597 16.578 103.069 16.4957 103.294 16.7219C103.089 17.8737 101.94 18.5113 101.427 18.8404C100.401 19.4369 99.2513 19.3752 98.6562 19.0255C98.4304 18.9844 98.3278 19.1489 98.5741 19.2929ZM99.867 14.4389C102.515 14.5006 103.028 17.7915 99.7234 17.9149C98.6561 17.7709 98.3072 17.195 98.2252 16.5985C98.3278 15.9815 98.5741 15.9404 99.005 15.8992C98.1431 17.5035 101.591 17.9149 101.304 15.8787C101.406 15.8375 101.386 15.7758 101.406 15.6936C101.406 15.6936 101.304 15.6319 101.242 15.5907C100.339 14.9326 99.7439 15.0971 98.533 15.385C98.4714 15.4879 97.5274 15.7347 97.3221 15.7758V15.7553C96.5012 15.6319 96.2138 15.1588 96.0086 14.4801C97.671 15.2822 98.3893 13.246 99.826 12.9992C101.694 12.6495 102.515 14.2333 103.007 15.6113C103.069 16.2489 102.658 16.146 102.494 15.673C102.145 14.2538 101.386 13.7602 99.867 13.9042V14.4389ZM107.009 36.9811C105.06 37.0222 103.069 36.3846 103.028 35.1094C103.151 33.7314 104.731 33.32 107.009 33.3612V33.7314C105.675 33.7314 103.849 33.7725 103.808 35.0477C103.767 36.4875 105.942 36.5697 107.009 36.5697V36.9811ZM124.557 29.2476C124.352 29.6796 124.147 30.1115 123.9 30.5228C123.674 30.9136 123.449 31.2838 123.202 31.6541C119.816 36.796 114.008 40.1896 107.42 40.1896V39.3875V38.791C113.803 38.791 119.406 35.3357 122.464 30.1938C122.71 29.7824 122.936 29.3505 123.161 28.9186C123.408 28.4249 123.613 27.9108 123.818 27.3966C124.536 25.4838 124.926 23.4064 124.926 21.2468C124.926 19.0872 124.536 17.0099 123.818 15.0971C123.613 14.5829 123.408 14.0687 123.161 13.5751C122.956 13.1432 122.71 12.7113 122.464 12.2999C119.406 7.15798 113.803 3.70261 107.42 3.70261V3.14729V2.32458C114.008 2.32458 119.816 5.73881 123.202 10.8602C123.449 11.2304 123.674 11.6006 123.9 11.9914C124.126 12.4027 124.352 12.8347 124.557 13.2666C125.686 15.6936 126.322 18.4085 126.322 21.2468C126.322 24.1263 125.686 26.8207 124.557 29.2476ZM141.694 1.21393C134.983 1.21393 129.052 4.54589 125.419 9.6261C127.594 12.9786 128.867 16.9893 128.867 21.288C128.867 25.5866 127.594 29.5973 125.419 32.9498C129.052 38.03 135.004 41.362 141.694 41.362C152.736 41.362 161.725 32.3534 161.725 21.288C161.725 10.2226 152.736 1.21393 141.694 1.21393ZM99.1282 8.8651C101.181 8.37147 101.94 7.61047 104.936 8.88566C105.121 8.9885 105.347 9.15304 105.306 8.76226C104.895 7.56933 104.464 7.42536 104.464 7.40479C102.391 7.05514 100.893 7.63104 99.1487 8.59772C99.0256 8.61829 98.8614 8.82396 99.1282 8.8651ZM105.47 35.1094C105.491 35.8704 106.168 36.035 107.44 36.0967V35.7676C108.179 35.7882 108.774 35.6236 108.774 35.13C108.774 34.7186 108.241 34.4718 107.44 34.513V34.2456C106.127 34.2456 105.449 34.5952 105.47 35.1094ZM107.009 35.5208C106.558 35.5619 106.045 35.5002 106.045 35.1094C106.045 34.6981 106.619 34.6569 107.009 34.6981V35.5208Z" fill="#005DED"/>
<path d="M136.953 14.3975L141.961 26.9026L146.969 14.3975H149.575V29.7409H147.564V23.7763L147.749 17.3386L142.72 29.7615H141.181L136.173 17.3798L136.378 23.7969V29.7615H134.367V14.3975H136.953Z" fill="white"/>
<path d="M10.7539 25.8334H4.20687L2.72917 29.9263H0.615234L6.56708 14.2949H8.37316L14.3455 29.9263H12.2316L10.7539 25.8334ZM4.82258 24.1468H10.1382L7.47012 16.8247L4.82258 24.1468ZM25.8388 15.9815H20.831V29.9263H18.7786V15.9815H13.7709V14.2949H25.8388V15.9815ZM30.2308 28.2398H37.6193V29.9263H28.1579V14.2949H30.2308V28.2398ZM48.8047 25.8334H42.2577L40.78 29.9263H38.666L44.6179 14.2949H46.424L52.3963 29.9263H50.2824L48.8047 25.8334ZM42.8734 24.1468H48.189L45.5209 16.8247L42.8734 24.1468ZM66.4961 29.9263H64.4232L56.5626 17.8737V29.9263H54.4897V14.2949H56.5626L64.4437 26.4093V14.2949H66.4961V29.9263ZM80.6163 15.9815H75.6085V29.9263H73.5562V15.9815H68.5484V14.2949H80.6163V15.9815Z" fill="#005DED"/>
<path d="M239.323 40.5551C229.353 40.5551 221.156 32.2842 221.156 22.3149C221.156 20.2471 221.526 18.2533 222.19 16.3333L232.824 37.0104C232.972 37.3058 233.12 37.5273 233.489 37.5273C233.858 37.5273 234.006 37.3058 234.153 37.0104L239.101 26.0072C239.175 25.8595 239.249 25.7857 239.323 25.7857C239.47 25.7857 239.47 25.9334 239.544 26.0072L244.566 37.0104C244.714 37.3058 244.861 37.5273 245.23 37.5273C245.6 37.5273 245.747 37.3058 245.895 37.0104L256.529 16.3333C257.194 18.1794 257.563 20.1733 257.563 22.3149C257.489 32.2842 249.292 40.5551 239.323 40.5551ZM239.323 17.5887C239.175 17.5887 239.175 17.441 239.101 17.3671L233.415 5.10851C235.261 4.44388 237.255 4.07465 239.323 4.07465C241.39 4.07465 243.384 4.44388 245.23 5.10851L239.544 17.3671C239.47 17.441 239.47 17.5887 239.323 17.5887ZM233.341 30.8811C233.193 30.8811 233.193 30.7334 233.12 30.6596L223.815 12.7886C225.439 10.1301 227.803 7.91469 230.535 6.3639L237.107 20.5425C237.255 20.8379 237.403 20.9118 237.624 20.9118H241.021C241.243 20.9118 241.39 20.8379 241.538 20.5425L248.037 6.3639C250.769 7.91469 253.132 10.1301 254.757 12.7886L245.526 30.6596C245.452 30.8073 245.378 30.8811 245.304 30.8811C245.157 30.8811 245.157 30.7334 245.083 30.6596L241.538 22.8318C241.39 22.5364 241.243 22.4626 241.021 22.4626H237.624C237.403 22.4626 237.255 22.5364 237.107 22.8318L233.563 30.6596C233.489 30.7334 233.489 30.8811 233.341 30.8811ZM239.323 42.992C250.769 42.992 260 33.7612 260 22.3149C260 10.8686 250.769 1.6377 239.323 1.6377C227.876 1.6377 218.646 10.8686 218.646 22.3149C218.646 33.7612 227.876 42.992 239.323 42.992Z" fill="#001E50"/>
<path d="M187.118 11.4649C187.118 10.5604 187.851 9.82715 188.756 9.82715H190.393C191.298 9.82715 192.031 10.5604 192.031 11.4649V32.7563C192.031 33.6608 191.298 34.3941 190.393 34.3941H188.756C187.851 34.3941 187.118 33.6608 187.118 32.7563V11.4649Z" fill="#C5CDCF"/>
<path d="M200.22 19.6539C201.125 19.6539 201.858 20.3872 201.858 21.2917V22.9295C201.858 23.834 201.125 24.5673 200.22 24.5673L178.929 24.5673C178.024 24.5673 177.291 23.834 177.291 22.9295L177.291 21.2917C177.291 20.3872 178.024 19.6539 178.929 19.6539H200.22Z" fill="#C5CDCF"/>
</svg>
