<svg width="1568" height="261" viewBox="0 0 1568 261" fill="none" xmlns="http://www.w3.org/2000/svg">
<path d="M39.627 44H37.035V27.2H39.987V39.152L48.795 27.2H51.387V44H48.435V32.072L39.627 44ZM55.2508 44V33.2H57.7468L61.4188 37.712L64.8988 33.2H67.3228V44H64.5628V37.4L61.3708 41.432H61.2988L58.0108 37.4V44H55.2508ZM77.7595 44V35.792H73.1515V44H70.3915V33.2H80.5195V44H77.7595ZM84.5228 42.68C83.4508 41.608 82.9148 40.248 82.9148 38.6C82.9148 36.952 83.4508 35.6 84.5228 34.544C85.6108 33.472 87.0348 32.936 88.7948 32.936C90.5548 32.936 91.9708 33.472 93.0428 34.544C94.1308 35.6 94.6748 36.952 94.6748 38.6C94.6748 40.248 94.1308 41.608 93.0428 42.68C91.9708 43.736 90.5548 44.264 88.7948 44.264C87.0348 44.264 85.6108 43.736 84.5228 42.68ZM85.8668 38.6C85.8668 39.496 86.1388 40.24 86.6828 40.832C87.2428 41.408 87.9468 41.696 88.7948 41.696C89.6588 41.696 90.3628 41.416 90.9068 40.856C91.4668 40.28 91.7468 39.528 91.7468 38.6C91.7468 37.704 91.4668 36.968 90.9068 36.392C90.3468 35.816 89.6428 35.528 88.7948 35.528C87.9628 35.528 87.2668 35.816 86.7068 36.392C86.1468 36.952 85.8668 37.688 85.8668 38.6ZM97.0633 48.8V33.2H99.8233V34.232C100.175 33.864 100.647 33.56 101.239 33.32C101.847 33.064 102.487 32.936 103.159 32.936C104.631 32.936 105.815 33.448 106.711 34.472C107.607 35.496 108.055 36.816 108.055 38.432C108.055 40.112 107.527 41.504 106.471 42.608C105.415 43.712 104.039 44.264 102.343 44.264C101.271 44.264 100.431 44.088 99.8233 43.736V48.8H97.0633ZM102.295 35.528C101.351 35.528 100.527 35.92 99.8233 36.704V41.072C100.463 41.488 101.223 41.696 102.103 41.696C103.031 41.696 103.767 41.4 104.311 40.808C104.855 40.2 105.127 39.432 105.127 38.504C105.127 37.624 104.879 36.912 104.383 36.368C103.887 35.808 103.191 35.528 102.295 35.528ZM108.896 35.96V33.2H118.736V35.96H115.208V44H112.448V35.96H108.896ZM133.286 44V39.872H128.558V44H125.798V33.2H128.558V37.28H133.286V33.2H136.046V44H133.286ZM140.046 42.68C138.974 41.608 138.438 40.248 138.438 38.6C138.438 36.952 138.974 35.6 140.046 34.544C141.134 33.472 142.558 32.936 144.318 32.936C146.078 32.936 147.494 33.472 148.566 34.544C149.654 35.6 150.198 36.952 150.198 38.6C150.198 40.248 149.654 41.608 148.566 42.68C147.494 43.736 146.078 44.264 144.318 44.264C142.558 44.264 141.134 43.736 140.046 42.68ZM141.39 38.6C141.39 39.496 141.662 40.24 142.206 40.832C142.766 41.408 143.47 41.696 144.318 41.696C145.182 41.696 145.886 41.416 146.43 40.856C146.99 40.28 147.27 39.528 147.27 38.6C147.27 37.704 146.99 36.968 146.43 36.392C145.87 35.816 145.166 35.528 144.318 35.528C143.486 35.528 142.79 35.816 142.23 36.392C141.67 36.952 141.39 37.688 141.39 38.6ZM152.587 44V33.2C152.779 33.2 153.131 33.192 153.643 33.176C154.171 33.144 154.707 33.12 155.251 33.104C155.811 33.088 156.339 33.08 156.835 33.08C160.099 33.08 161.731 34.024 161.731 35.912C161.731 36.536 161.531 37.072 161.131 37.52C160.747 37.968 160.275 38.232 159.715 38.312V38.36C161.251 38.728 162.019 39.56 162.019 40.856C162.019 43.032 160.307 44.12 156.883 44.12C156.403 44.12 155.643 44.096 154.603 44.048C153.563 44.016 152.891 44 152.587 44ZM157.075 39.416H155.347V41.816C156.435 41.88 157.043 41.912 157.171 41.912C157.779 41.912 158.251 41.8 158.587 41.576C158.939 41.352 159.115 41.048 159.115 40.664C159.115 39.832 158.435 39.416 157.075 39.416ZM157.075 35.312C156.307 35.312 155.731 35.328 155.347 35.36V37.736H157.147C157.627 37.736 158.019 37.632 158.323 37.424C158.643 37.2 158.803 36.888 158.803 36.488C158.803 35.704 158.227 35.312 157.075 35.312ZM164.634 44V33.2H167.394V36.152H168.738C170.434 36.152 171.65 36.504 172.386 37.208C173.122 37.912 173.49 38.808 173.49 39.896C173.49 41.064 173.09 42.04 172.29 42.824C171.49 43.608 170.234 44 168.522 44H164.634ZM175.026 44V33.2H177.786V44H175.026ZM168.498 38.36H167.394V41.6H168.474C169.866 41.6 170.562 41.064 170.562 39.992C170.562 38.904 169.874 38.36 168.498 38.36ZM191.172 33.2L187.572 38.36L191.412 44H188.052L185.532 40.112L182.916 44H179.724L183.564 38.504L179.964 33.2H183.348L185.628 36.776L187.98 33.2H191.172ZM199.317 35.984L198.621 33.968C199.789 33.28 201.061 32.936 202.437 32.936C203.973 32.936 205.077 33.312 205.749 34.064C206.421 34.816 206.757 35.936 206.757 37.424V44H204.357V42.752C203.701 43.68 202.637 44.144 201.165 44.144C200.157 44.144 199.341 43.848 198.717 43.256C198.093 42.664 197.781 41.856 197.781 40.832C197.781 39.696 198.149 38.832 198.885 38.24C199.621 37.632 200.565 37.328 201.717 37.328C202.709 37.328 203.525 37.56 204.165 38.024C204.197 37.08 204.061 36.384 203.757 35.936C203.453 35.472 202.917 35.24 202.149 35.24C201.349 35.24 200.405 35.488 199.317 35.984ZM202.077 41.816C203.005 41.816 203.701 41.488 204.165 40.832V39.728C203.701 39.376 203.069 39.2 202.269 39.2C201.773 39.2 201.357 39.32 201.021 39.56C200.701 39.784 200.541 40.112 200.541 40.544C200.541 40.944 200.685 41.256 200.973 41.48C201.261 41.704 201.629 41.816 202.077 41.816ZM209.587 44V33.2C209.779 33.2 210.131 33.192 210.643 33.176C211.171 33.144 211.707 33.12 212.251 33.104C212.811 33.088 213.339 33.08 213.835 33.08C217.099 33.08 218.731 34.024 218.731 35.912C218.731 36.536 218.531 37.072 218.131 37.52C217.747 37.968 217.275 38.232 216.715 38.312V38.36C218.251 38.728 219.019 39.56 219.019 40.856C219.019 43.032 217.307 44.12 213.883 44.12C213.403 44.12 212.643 44.096 211.603 44.048C210.563 44.016 209.891 44 209.587 44ZM214.075 39.416H212.347V41.816C213.435 41.88 214.043 41.912 214.171 41.912C214.779 41.912 215.251 41.8 215.587 41.576C215.939 41.352 216.115 41.048 216.115 40.664C216.115 39.832 215.435 39.416 214.075 39.416ZM214.075 35.312C213.307 35.312 212.731 35.328 212.347 35.36V37.736H214.147C214.627 37.736 215.019 37.632 215.323 37.424C215.643 37.2 215.803 36.888 215.803 36.488C215.803 35.704 215.227 35.312 214.075 35.312ZM220.506 35.96V33.2H230.346V35.96H226.818V44H224.058V35.96H220.506ZM232.929 42.68C231.857 41.608 231.321 40.248 231.321 38.6C231.321 36.952 231.857 35.6 232.929 34.544C234.017 33.472 235.441 32.936 237.201 32.936C238.961 32.936 240.377 33.472 241.449 34.544C242.537 35.6 243.081 36.952 243.081 38.6C243.081 40.248 242.537 41.608 241.449 42.68C240.377 43.736 238.961 44.264 237.201 44.264C235.441 44.264 234.017 43.736 232.929 42.68ZM234.273 38.6C234.273 39.496 234.545 40.24 235.089 40.832C235.649 41.408 236.353 41.696 237.201 41.696C238.065 41.696 238.769 41.416 239.313 40.856C239.873 40.28 240.153 39.528 240.153 38.6C240.153 37.704 239.873 36.968 239.313 36.392C238.753 35.816 238.049 35.528 237.201 35.528C236.369 35.528 235.673 35.816 235.113 36.392C234.553 36.952 234.273 37.688 234.273 38.6ZM245.47 44V33.2H247.966L251.638 37.712L255.118 33.2H257.542V44H254.782V37.4L251.59 41.432H251.518L248.23 37.4V44H245.47ZM261.546 42.68C260.474 41.608 259.938 40.248 259.938 38.6C259.938 36.952 260.474 35.6 261.546 34.544C262.634 33.472 264.058 32.936 265.818 32.936C267.578 32.936 268.994 33.472 270.066 34.544C271.154 35.6 271.698 36.952 271.698 38.6C271.698 40.248 271.154 41.608 270.066 42.68C268.994 43.736 267.578 44.264 265.818 44.264C264.058 44.264 262.634 43.736 261.546 42.68ZM262.89 38.6C262.89 39.496 263.162 40.24 263.706 40.832C264.266 41.408 264.97 41.696 265.818 41.696C266.682 41.696 267.386 41.416 267.93 40.856C268.49 40.28 268.77 39.528 268.77 38.6C268.77 37.704 268.49 36.968 267.93 36.392C267.37 35.816 266.666 35.528 265.818 35.528C264.986 35.528 264.29 35.816 263.73 36.392C263.17 36.952 262.89 37.688 262.89 38.6ZM282.199 26.936L283.639 29.192C283.223 29.688 282.743 30.04 282.199 30.248C281.655 30.44 281.015 30.616 280.279 30.776C279.559 30.92 278.935 31.12 278.407 31.376C277.063 32 276.287 33.344 276.079 35.408H276.127C276.463 34.816 276.983 34.336 277.687 33.968C278.391 33.584 279.135 33.392 279.919 33.392C281.407 33.392 282.599 33.872 283.495 34.832C284.391 35.792 284.839 37.08 284.839 38.696C284.839 40.248 284.311 41.568 283.255 42.656C282.199 43.728 280.839 44.264 279.175 44.264C277.367 44.264 275.935 43.648 274.879 42.416C273.839 41.184 273.319 39.52 273.319 37.424C273.319 32.8 274.679 29.904 277.399 28.736C278.007 28.48 278.663 28.288 279.367 28.16C280.071 28.016 280.631 27.872 281.047 27.728C281.479 27.584 281.863 27.32 282.199 26.936ZM276.271 38C276.287 39.072 276.551 39.96 277.063 40.664C277.575 41.352 278.255 41.696 279.103 41.696C279.951 41.696 280.623 41.424 281.119 40.88C281.631 40.32 281.887 39.632 281.887 38.816C281.887 37.984 281.655 37.304 281.191 36.776C280.727 36.232 280.071 35.96 279.223 35.96C278.487 35.96 277.855 36.152 277.327 36.536C276.815 36.92 276.463 37.408 276.271 38ZM289.995 44H287.235V33.2H289.995V40.04L295.035 33.2H297.795V44H295.035V37.16L289.995 44ZM307.98 44V35.96H305.124L305.052 37.112C304.876 39.048 304.58 40.536 304.164 41.576C303.764 42.616 303.252 43.32 302.628 43.688C302.02 44.04 301.204 44.216 300.18 44.216L299.94 41.528C300.292 41.56 300.62 41.464 300.924 41.24C301.244 41 301.548 40.488 301.836 39.704C302.124 38.904 302.308 37.856 302.388 36.56L302.556 33.2H310.74V44H307.98ZM322.285 40.976L323.077 42.92C322.021 43.816 320.645 44.264 318.949 44.264C317.205 44.264 315.797 43.744 314.725 42.704C313.669 41.664 313.141 40.296 313.141 38.6C313.141 36.984 313.661 35.64 314.701 34.568C315.741 33.48 317.125 32.936 318.853 32.936C320.277 32.936 321.485 33.408 322.477 34.352C323.469 35.28 323.965 36.48 323.965 37.952C323.965 38.56 323.909 39.056 323.797 39.44H315.997C316.109 40.24 316.461 40.864 317.053 41.312C317.645 41.744 318.373 41.96 319.237 41.96C320.453 41.96 321.469 41.632 322.285 40.976ZM318.733 35.24C317.165 35.24 316.221 36.024 315.901 37.592H321.205C321.221 36.92 321.005 36.36 320.557 35.912C320.109 35.464 319.501 35.24 318.733 35.24ZM328.948 44H326.188V33.2H328.948V40.04L333.988 33.2H336.748V44H333.988V37.16L328.948 44ZM327.796 27.8H330.316C330.316 28.296 330.412 28.712 330.604 29.048C330.812 29.384 331.132 29.552 331.564 29.552C331.948 29.552 332.236 29.384 332.428 29.048C332.62 28.712 332.716 28.296 332.716 27.8H335.236C335.236 28.888 334.916 29.784 334.276 30.488C333.636 31.176 332.732 31.52 331.564 31.52C330.284 31.52 329.332 31.184 328.708 30.512C328.1 29.824 327.796 28.92 327.796 27.8Z" fill="white"/>
<rect x="1.5" y="1.5" width="370" height="72" rx="6.5" stroke="#005DED" stroke-width="3"/>
<path d="M56.502 230H53.91V213.2H56.862V225.152L65.67 213.2H68.262V230H65.31V218.072L56.502 230ZM72.1258 230V219.2H74.6218L78.2938 223.712L81.7738 219.2H84.1978V230H81.4378V223.4L78.2458 227.432H78.1738L74.8858 223.4V230H72.1258ZM94.6345 230V221.792H90.0265V230H87.2665V219.2H97.3945V230H94.6345ZM101.398 228.68C100.326 227.608 99.7898 226.248 99.7898 224.6C99.7898 222.952 100.326 221.6 101.398 220.544C102.486 219.472 103.91 218.936 105.67 218.936C107.43 218.936 108.846 219.472 109.918 220.544C111.006 221.6 111.55 222.952 111.55 224.6C111.55 226.248 111.006 227.608 109.918 228.68C108.846 229.736 107.43 230.264 105.67 230.264C103.91 230.264 102.486 229.736 101.398 228.68ZM102.742 224.6C102.742 225.496 103.014 226.24 103.558 226.832C104.118 227.408 104.822 227.696 105.67 227.696C106.534 227.696 107.238 227.416 107.782 226.856C108.342 226.28 108.622 225.528 108.622 224.6C108.622 223.704 108.342 222.968 107.782 222.392C107.222 221.816 106.518 221.528 105.67 221.528C104.838 221.528 104.142 221.816 103.582 222.392C103.022 222.952 102.742 223.688 102.742 224.6ZM113.938 234.8V219.2H116.698V220.232C117.05 219.864 117.522 219.56 118.114 219.32C118.722 219.064 119.362 218.936 120.034 218.936C121.506 218.936 122.69 219.448 123.586 220.472C124.482 221.496 124.93 222.816 124.93 224.432C124.93 226.112 124.402 227.504 123.346 228.608C122.29 229.712 120.914 230.264 119.218 230.264C118.146 230.264 117.306 230.088 116.698 229.736V234.8H113.938ZM119.17 221.528C118.226 221.528 117.402 221.92 116.698 222.704V227.072C117.338 227.488 118.098 227.696 118.978 227.696C119.906 227.696 120.642 227.4 121.186 226.808C121.73 226.2 122.002 225.432 122.002 224.504C122.002 223.624 121.754 222.912 121.258 222.368C120.762 221.808 120.066 221.528 119.17 221.528ZM125.771 221.96V219.2H135.611V221.96H132.083V230H129.323V221.96H125.771ZM150.785 212.936L152.225 215.192C151.809 215.688 151.329 216.04 150.785 216.248C150.241 216.44 149.601 216.616 148.865 216.776C148.145 216.92 147.521 217.12 146.993 217.376C145.649 218 144.873 219.344 144.665 221.408H144.713C145.049 220.816 145.569 220.336 146.273 219.968C146.977 219.584 147.721 219.392 148.505 219.392C149.993 219.392 151.185 219.872 152.081 220.832C152.977 221.792 153.425 223.08 153.425 224.696C153.425 226.248 152.897 227.568 151.841 228.656C150.785 229.728 149.425 230.264 147.761 230.264C145.953 230.264 144.521 229.648 143.465 228.416C142.425 227.184 141.905 225.52 141.905 223.424C141.905 218.8 143.265 215.904 145.985 214.736C146.593 214.48 147.249 214.288 147.953 214.16C148.657 214.016 149.217 213.872 149.633 213.728C150.065 213.584 150.449 213.32 150.785 212.936ZM144.857 224C144.873 225.072 145.137 225.96 145.649 226.664C146.161 227.352 146.841 227.696 147.689 227.696C148.537 227.696 149.209 227.424 149.705 226.88C150.217 226.32 150.473 225.632 150.473 224.816C150.473 223.984 150.241 223.304 149.777 222.776C149.313 222.232 148.657 221.96 147.809 221.96C147.073 221.96 146.441 222.152 145.913 222.536C145.401 222.92 145.049 223.408 144.857 224ZM153.565 234.2L161.485 212.936L163.621 213.728L155.701 234.992L153.565 234.2ZM174.862 219.2L170.614 230C169.846 231.872 169.158 233.136 168.55 233.792C167.958 234.464 167.254 234.8 166.438 234.8C165.654 234.8 164.878 234.52 164.11 233.96L164.998 231.872C165.43 232.128 165.806 232.256 166.126 232.256C166.782 232.256 167.334 231.696 167.782 230.576L168.022 230L163.03 219.2H166.342L168.862 225.104C168.958 225.344 169.134 225.864 169.39 226.664C169.518 225.96 169.646 225.432 169.774 225.08L171.718 219.2H174.862ZM182.442 221.984L181.746 219.968C182.914 219.28 184.186 218.936 185.562 218.936C187.098 218.936 188.202 219.312 188.874 220.064C189.546 220.816 189.882 221.936 189.882 223.424V230H187.482V228.752C186.826 229.68 185.762 230.144 184.29 230.144C183.282 230.144 182.466 229.848 181.842 229.256C181.218 228.664 180.906 227.856 180.906 226.832C180.906 225.696 181.274 224.832 182.01 224.24C182.746 223.632 183.69 223.328 184.842 223.328C185.834 223.328 186.65 223.56 187.29 224.024C187.322 223.08 187.186 222.384 186.882 221.936C186.578 221.472 186.042 221.24 185.274 221.24C184.474 221.24 183.53 221.488 182.442 221.984ZM185.202 227.816C186.13 227.816 186.826 227.488 187.29 226.832V225.728C186.826 225.376 186.194 225.2 185.394 225.2C184.898 225.2 184.482 225.32 184.146 225.56C183.826 225.784 183.666 226.112 183.666 226.544C183.666 226.944 183.81 227.256 184.098 227.48C184.386 227.704 184.754 227.816 185.202 227.816ZM192.712 230V219.2C192.904 219.2 193.256 219.192 193.768 219.176C194.296 219.144 194.832 219.12 195.376 219.104C195.936 219.088 196.464 219.08 196.96 219.08C200.224 219.08 201.856 220.024 201.856 221.912C201.856 222.536 201.656 223.072 201.256 223.52C200.872 223.968 200.4 224.232 199.84 224.312V224.36C201.376 224.728 202.144 225.56 202.144 226.856C202.144 229.032 200.432 230.12 197.008 230.12C196.528 230.12 195.768 230.096 194.728 230.048C193.688 230.016 193.016 230 192.712 230ZM197.2 225.416H195.472V227.816C196.56 227.88 197.168 227.912 197.296 227.912C197.904 227.912 198.376 227.8 198.712 227.576C199.064 227.352 199.24 227.048 199.24 226.664C199.24 225.832 198.56 225.416 197.2 225.416ZM197.2 221.312C196.432 221.312 195.856 221.328 195.472 221.36V223.736H197.272C197.752 223.736 198.144 223.632 198.448 223.424C198.768 223.2 198.928 222.888 198.928 222.488C198.928 221.704 198.352 221.312 197.2 221.312ZM203.631 221.96V219.2H213.471V221.96H209.943V230H207.183V221.96H203.631ZM216.054 228.68C214.982 227.608 214.446 226.248 214.446 224.6C214.446 222.952 214.982 221.6 216.054 220.544C217.142 219.472 218.566 218.936 220.326 218.936C222.086 218.936 223.502 219.472 224.574 220.544C225.662 221.6 226.206 222.952 226.206 224.6C226.206 226.248 225.662 227.608 224.574 228.68C223.502 229.736 222.086 230.264 220.326 230.264C218.566 230.264 217.142 229.736 216.054 228.68ZM217.398 224.6C217.398 225.496 217.67 226.24 218.214 226.832C218.774 227.408 219.478 227.696 220.326 227.696C221.19 227.696 221.894 227.416 222.438 226.856C222.998 226.28 223.278 225.528 223.278 224.6C223.278 223.704 222.998 222.968 222.438 222.392C221.878 221.816 221.174 221.528 220.326 221.528C219.494 221.528 218.798 221.816 218.238 222.392C217.678 222.952 217.398 223.688 217.398 224.6ZM228.595 230V219.2H231.091L234.763 223.712L238.243 219.2H240.667V230H237.907V223.4L234.715 227.432H234.643L231.355 223.4V230H228.595ZM244.671 228.68C243.599 227.608 243.063 226.248 243.063 224.6C243.063 222.952 243.599 221.6 244.671 220.544C245.759 219.472 247.183 218.936 248.943 218.936C250.703 218.936 252.119 219.472 253.191 220.544C254.279 221.6 254.823 222.952 254.823 224.6C254.823 226.248 254.279 227.608 253.191 228.68C252.119 229.736 250.703 230.264 248.943 230.264C247.183 230.264 245.759 229.736 244.671 228.68ZM246.015 224.6C246.015 225.496 246.287 226.24 246.831 226.832C247.391 227.408 248.095 227.696 248.943 227.696C249.807 227.696 250.511 227.416 251.055 226.856C251.615 226.28 251.895 225.528 251.895 224.6C251.895 223.704 251.615 222.968 251.055 222.392C250.495 221.816 249.791 221.528 248.943 221.528C248.111 221.528 247.415 221.816 246.855 222.392C246.295 222.952 246.015 223.688 246.015 224.6ZM265.324 212.936L266.764 215.192C266.348 215.688 265.868 216.04 265.324 216.248C264.78 216.44 264.14 216.616 263.404 216.776C262.684 216.92 262.06 217.12 261.532 217.376C260.188 218 259.412 219.344 259.204 221.408H259.252C259.588 220.816 260.108 220.336 260.812 219.968C261.516 219.584 262.26 219.392 263.044 219.392C264.532 219.392 265.724 219.872 266.62 220.832C267.516 221.792 267.964 223.08 267.964 224.696C267.964 226.248 267.436 227.568 266.38 228.656C265.324 229.728 263.964 230.264 262.3 230.264C260.492 230.264 259.06 229.648 258.004 228.416C256.964 227.184 256.444 225.52 256.444 223.424C256.444 218.8 257.804 215.904 260.524 214.736C261.132 214.48 261.788 214.288 262.492 214.16C263.196 214.016 263.756 213.872 264.172 213.728C264.604 213.584 264.988 213.32 265.324 212.936ZM259.396 224C259.412 225.072 259.676 225.96 260.188 226.664C260.7 227.352 261.38 227.696 262.228 227.696C263.076 227.696 263.748 227.424 264.244 226.88C264.756 226.32 265.012 225.632 265.012 224.816C265.012 223.984 264.78 223.304 264.316 222.776C263.852 222.232 263.196 221.96 262.348 221.96C261.612 221.96 260.98 222.152 260.452 222.536C259.94 222.92 259.588 223.408 259.396 224ZM273.12 230H270.36V219.2H273.12V226.04L278.16 219.2H280.92V230H278.16V223.16L273.12 230ZM291.105 230V221.96H288.249L288.177 223.112C288.001 225.048 287.705 226.536 287.289 227.576C286.889 228.616 286.377 229.32 285.753 229.688C285.145 230.04 284.329 230.216 283.305 230.216L283.065 227.528C283.417 227.56 283.745 227.464 284.049 227.24C284.369 227 284.673 226.488 284.961 225.704C285.249 224.904 285.433 223.856 285.513 222.56L285.681 219.2H293.865V230H291.105ZM305.41 226.976L306.202 228.92C305.146 229.816 303.77 230.264 302.074 230.264C300.33 230.264 298.922 229.744 297.85 228.704C296.794 227.664 296.266 226.296 296.266 224.6C296.266 222.984 296.786 221.64 297.826 220.568C298.866 219.48 300.25 218.936 301.978 218.936C303.402 218.936 304.61 219.408 305.602 220.352C306.594 221.28 307.09 222.48 307.09 223.952C307.09 224.56 307.034 225.056 306.922 225.44H299.122C299.234 226.24 299.586 226.864 300.178 227.312C300.77 227.744 301.498 227.96 302.362 227.96C303.578 227.96 304.594 227.632 305.41 226.976ZM301.858 221.24C300.29 221.24 299.346 222.024 299.026 223.592H304.33C304.346 222.92 304.13 222.36 303.682 221.912C303.234 221.464 302.626 221.24 301.858 221.24ZM312.073 230H309.313V219.2H312.073V226.04L317.113 219.2H319.873V230H317.113V223.16L312.073 230ZM310.921 213.8H313.441C313.441 214.296 313.537 214.712 313.729 215.048C313.937 215.384 314.257 215.552 314.689 215.552C315.073 215.552 315.361 215.384 315.553 215.048C315.745 214.712 315.841 214.296 315.841 213.8H318.361C318.361 214.888 318.041 215.784 317.401 216.488C316.761 217.176 315.857 217.52 314.689 217.52C313.409 217.52 312.457 217.184 311.833 216.512C311.225 215.824 310.921 214.92 310.921 213.8Z" fill="white"/>
<rect x="1.5" y="187.5" width="370" height="72" rx="6.5" stroke="#005DED" stroke-width="3"/>
<path d="M718.317 216.368L722.613 213.152H724.605V230H721.845V217.088L719.781 218.648L718.317 216.368ZM741.109 226.16L742.237 228.368C741.709 228.928 740.949 229.384 739.957 229.736C738.981 230.088 737.949 230.264 736.861 230.264C734.285 230.264 732.197 229.472 730.597 227.888C728.997 226.304 728.197 224.208 728.197 221.6C728.197 219.088 728.957 217.016 730.477 215.384C731.997 213.752 734.101 212.936 736.789 212.936C738.949 212.936 740.653 213.504 741.901 214.64L740.581 216.824C739.445 216.072 738.181 215.696 736.789 215.696C735.205 215.696 733.893 216.232 732.853 217.304C731.829 218.376 731.317 219.808 731.317 221.6C731.317 223.344 731.853 224.768 732.925 225.872C734.013 226.96 735.413 227.504 737.125 227.504C738.613 227.504 739.941 227.056 741.109 226.16ZM744.191 224.72V222.152H750.239V224.72H744.191ZM754.055 230V213.2H763.871V215.96H757.007V219.704C757.663 219.608 758.415 219.56 759.263 219.56C761.007 219.56 762.383 220.016 763.391 220.928C764.399 221.84 764.903 223.072 764.903 224.624C764.903 226.368 764.335 227.72 763.199 228.68C762.079 229.624 760.487 230.096 758.423 230.096C757.703 230.096 756.855 230.08 755.879 230.048C754.919 230.016 754.311 230 754.055 230ZM759.023 222.32C758.431 222.32 757.759 222.368 757.007 222.464V227.24C757.903 227.304 758.527 227.336 758.879 227.336C760.943 227.336 761.975 226.504 761.975 224.84C761.975 224.072 761.727 223.464 761.231 223.016C760.751 222.552 760.015 222.32 759.023 222.32ZM770.765 230H768.005V219.2H770.765V226.04L775.805 219.2H778.565V230H775.805V223.16L770.765 230ZM780.517 221.96V219.2H790.357V221.96H786.829V230H784.069V221.96H780.517ZM792.333 234.8V219.2H795.093V220.232C795.445 219.864 795.917 219.56 796.509 219.32C797.117 219.064 797.757 218.936 798.429 218.936C799.901 218.936 801.085 219.448 801.981 220.472C802.877 221.496 803.325 222.816 803.325 224.432C803.325 226.112 802.797 227.504 801.741 228.608C800.685 229.712 799.309 230.264 797.613 230.264C796.541 230.264 795.701 230.088 795.093 229.736V234.8H792.333ZM797.565 221.528C796.621 221.528 795.797 221.92 795.093 222.704V227.072C795.733 227.488 796.493 227.696 797.373 227.696C798.301 227.696 799.037 227.4 799.581 226.808C800.125 226.2 800.397 225.432 800.397 224.504C800.397 223.624 800.149 222.912 799.653 222.368C799.157 221.808 798.461 221.528 797.565 221.528ZM808.476 230H805.716V219.2H808.476V226.04L813.516 219.2H816.276V230H813.516V223.16L808.476 230ZM829.58 219.2L825.428 224.336L830.084 230H826.484L822.212 224.552L826.1 219.2H829.58ZM819.356 230V219.2H822.116V230H819.356ZM839.236 226.376L840.532 228.392C840.084 229 839.476 229.464 838.708 229.784C837.956 230.104 837.132 230.264 836.236 230.264C834.476 230.264 833.06 229.744 831.988 228.704C830.916 227.664 830.38 226.296 830.38 224.6C830.38 223 830.908 221.656 831.964 220.568C833.02 219.48 834.356 218.936 835.972 218.936C837.892 218.936 839.34 219.424 840.316 220.4L839.02 222.584C838.3 221.88 837.404 221.528 836.332 221.528C835.532 221.528 834.828 221.816 834.22 222.392C833.628 222.952 833.332 223.688 833.332 224.6C833.332 225.528 833.636 226.28 834.244 226.856C834.868 227.416 835.604 227.696 836.452 227.696C837.508 227.696 838.436 227.256 839.236 226.376Z" fill="white"/>
<rect x="594.5" y="187.5" width="370" height="72" rx="6.5" stroke="#005DED" stroke-width="3"/>
<path d="M1220.58 230V222.824H1212.9V230H1209.95V213.2H1212.9V220.064H1220.58V213.2H1223.51V230H1220.58ZM1226.07 215.96V213.2H1239.92V215.96H1234.47V230H1231.52V215.96H1226.07ZM1242.48 230V213.2H1245.45L1251.19 221.048L1256.66 213.2H1259.44V230H1256.52V217.856L1251.21 225.32H1250.78L1245.43 217.928V230H1242.48ZM1264.11 230V213.2H1267.06V227.24H1274.62V230H1264.11ZM1276.07 224.72V222.152H1282.11V224.72H1276.07ZM1285.14 230V219.2H1287.9V227.432H1290.95V219.2H1293.71V227.432H1296.78V219.2H1299.54V230H1285.14ZM1303.44 221.984L1302.74 219.968C1303.91 219.28 1305.18 218.936 1306.56 218.936C1308.09 218.936 1309.2 219.312 1309.87 220.064C1310.54 220.816 1310.88 221.936 1310.88 223.424V230H1308.48V228.752C1307.82 229.68 1306.76 230.144 1305.29 230.144C1304.28 230.144 1303.46 229.848 1302.84 229.256C1302.21 228.664 1301.9 227.856 1301.9 226.832C1301.9 225.696 1302.27 224.832 1303.01 224.24C1303.74 223.632 1304.69 223.328 1305.84 223.328C1306.83 223.328 1307.65 223.56 1308.29 224.024C1308.32 223.08 1308.18 222.384 1307.88 221.936C1307.57 221.472 1307.04 221.24 1306.27 221.24C1305.47 221.24 1304.53 221.488 1303.44 221.984ZM1306.2 227.816C1307.13 227.816 1307.82 227.488 1308.29 226.832V225.728C1307.82 225.376 1307.19 225.2 1306.39 225.2C1305.89 225.2 1305.48 225.32 1305.14 225.56C1304.82 225.784 1304.66 226.112 1304.66 226.544C1304.66 226.944 1304.81 227.256 1305.09 227.48C1305.38 227.704 1305.75 227.816 1306.2 227.816ZM1321.82 212.936L1323.26 215.192C1322.84 215.688 1322.36 216.04 1321.82 216.248C1321.28 216.44 1320.64 216.616 1319.9 216.776C1319.18 216.92 1318.56 217.12 1318.03 217.376C1316.68 218 1315.91 219.344 1315.7 221.408H1315.75C1316.08 220.816 1316.6 220.336 1317.31 219.968C1318.01 219.584 1318.76 219.392 1319.54 219.392C1321.03 219.392 1322.22 219.872 1323.12 220.832C1324.01 221.792 1324.46 223.08 1324.46 224.696C1324.46 226.248 1323.93 227.568 1322.88 228.656C1321.82 229.728 1320.46 230.264 1318.8 230.264C1316.99 230.264 1315.56 229.648 1314.5 228.416C1313.46 227.184 1312.94 225.52 1312.94 223.424C1312.94 218.8 1314.3 215.904 1317.02 214.736C1317.63 214.48 1318.28 214.288 1318.99 214.16C1319.69 214.016 1320.25 213.872 1320.67 213.728C1321.1 213.584 1321.48 213.32 1321.82 212.936ZM1315.89 224C1315.91 225.072 1316.17 225.96 1316.68 226.664C1317.2 227.352 1317.88 227.696 1318.72 227.696C1319.57 227.696 1320.24 227.424 1320.74 226.88C1321.25 226.32 1321.51 225.632 1321.51 224.816C1321.51 223.984 1321.28 223.304 1320.81 222.776C1320.35 222.232 1319.69 221.96 1318.84 221.96C1318.11 221.96 1317.48 222.152 1316.95 222.536C1316.44 222.92 1316.08 223.408 1315.89 224ZM1333.61 230V221.96H1330.75L1330.68 223.112C1330.5 225.048 1330.21 226.536 1329.79 227.576C1329.39 228.616 1328.88 229.32 1328.26 229.688C1327.65 230.04 1326.83 230.216 1325.81 230.216L1325.57 227.528C1325.92 227.56 1326.25 227.464 1326.55 227.24C1326.87 227 1327.18 226.488 1327.46 225.704C1327.75 224.904 1327.94 223.856 1328.02 222.56L1328.18 219.2H1336.37V230H1333.61ZM1340.38 228.68C1339.31 227.608 1338.77 226.248 1338.77 224.6C1338.77 222.952 1339.31 221.6 1340.38 220.544C1341.47 219.472 1342.89 218.936 1344.65 218.936C1346.41 218.936 1347.83 219.472 1348.9 220.544C1349.99 221.6 1350.53 222.952 1350.53 224.6C1350.53 226.248 1349.99 227.608 1348.9 228.68C1347.83 229.736 1346.41 230.264 1344.65 230.264C1342.89 230.264 1341.47 229.736 1340.38 228.68ZM1341.72 224.6C1341.72 225.496 1341.99 226.24 1342.54 226.832C1343.1 227.408 1343.8 227.696 1344.65 227.696C1345.51 227.696 1346.22 227.416 1346.76 226.856C1347.32 226.28 1347.6 225.528 1347.6 224.6C1347.6 223.704 1347.32 222.968 1346.76 222.392C1346.2 221.816 1345.5 221.528 1344.65 221.528C1343.82 221.528 1343.12 221.816 1342.56 222.392C1342 222.952 1341.72 223.688 1341.72 224.6ZM1360.41 230V225.872H1355.68V230H1352.92V219.2H1355.68V223.28H1360.41V219.2H1363.17V230H1360.41ZM1366.23 230V219.2H1368.99V222.152H1370.34C1372.03 222.152 1373.25 222.504 1373.98 223.208C1374.72 223.912 1375.09 224.808 1375.09 225.896C1375.09 227.064 1374.69 228.04 1373.89 228.824C1373.09 229.608 1371.83 230 1370.12 230H1366.23ZM1376.62 230V219.2H1379.38V230H1376.62ZM1370.1 224.36H1368.99V227.6H1370.07C1371.46 227.6 1372.16 227.064 1372.16 225.992C1372.16 224.904 1371.47 224.36 1370.1 224.36ZM1386.24 232.52V227.432H1387.61C1388.46 226.312 1388.96 224.432 1389.12 221.792L1389.29 219.2H1397.26V227.432H1399.06V232.52H1396.46V230H1388.81V232.52H1386.24ZM1391.78 222.896C1391.59 224.992 1391.16 226.504 1390.49 227.432H1394.5V221.792H1391.86L1391.78 222.896ZM1407.98 230V221.96H1405.12L1405.05 223.112C1404.87 225.048 1404.58 226.536 1404.16 227.576C1403.76 228.616 1403.25 229.32 1402.62 229.688C1402.02 230.04 1401.2 230.216 1400.18 230.216L1399.94 227.528C1400.29 227.56 1400.62 227.464 1400.92 227.24C1401.24 227 1401.54 226.488 1401.83 225.704C1402.12 224.904 1402.3 223.856 1402.38 222.56L1402.55 219.2H1410.74V230H1407.98ZM1419.09 219.2H1422.62V230H1419.86V226.76H1418.32L1416.09 230H1412.92L1415.8 226.16C1415.26 225.968 1414.77 225.608 1414.34 225.08C1413.92 224.536 1413.71 223.856 1413.71 223.04C1413.71 221.904 1414.15 220.984 1415.01 220.28C1415.89 219.56 1417.25 219.2 1419.09 219.2ZM1416.67 223.232C1416.67 223.664 1416.84 224.024 1417.19 224.312C1417.56 224.584 1417.97 224.72 1418.42 224.72H1419.86V221.6H1418.63C1418.01 221.6 1417.52 221.76 1417.17 222.08C1416.83 222.4 1416.67 222.784 1416.67 223.232ZM1436.11 234.8V230.264H1435.96C1434.12 230.264 1432.68 229.736 1431.64 228.68C1430.62 227.624 1430.11 226.264 1430.11 224.6C1430.11 223.048 1430.63 221.72 1431.67 220.616C1432.72 219.496 1434.15 218.936 1435.94 218.936H1436.11V213.2H1438.87V218.936H1439.06C1440.87 218.936 1442.28 219.472 1443.31 220.544C1444.35 221.6 1444.87 222.952 1444.87 224.6C1444.87 226.28 1444.37 227.648 1443.38 228.704C1442.39 229.744 1440.95 230.264 1439.06 230.264H1438.87V234.8H1436.11ZM1439.06 221.528H1438.87V227.696H1438.96C1439.92 227.696 1440.65 227.416 1441.15 226.856C1441.66 226.296 1441.91 225.544 1441.91 224.6C1441.91 223.736 1441.67 223.008 1441.17 222.416C1440.69 221.824 1439.99 221.528 1439.06 221.528ZM1433.06 224.6C1433.06 225.528 1433.31 226.28 1433.83 226.856C1434.34 227.416 1435.07 227.696 1436.03 227.696H1436.11V221.528H1435.91C1434.95 221.528 1434.23 221.816 1433.75 222.392C1433.29 222.968 1433.06 223.704 1433.06 224.6ZM1447.25 234.8V219.2H1450.01V220.232C1450.37 219.864 1450.84 219.56 1451.43 219.32C1452.04 219.064 1452.68 218.936 1453.35 218.936C1454.82 218.936 1456.01 219.448 1456.9 220.472C1457.8 221.496 1458.25 222.816 1458.25 224.432C1458.25 226.112 1457.72 227.504 1456.66 228.608C1455.61 229.712 1454.23 230.264 1452.53 230.264C1451.46 230.264 1450.62 230.088 1450.01 229.736V234.8H1447.25ZM1452.49 221.528C1451.54 221.528 1450.72 221.92 1450.01 222.704V227.072C1450.65 227.488 1451.41 227.696 1452.29 227.696C1453.22 227.696 1453.96 227.4 1454.5 226.808C1455.05 226.2 1455.32 225.432 1455.32 224.504C1455.32 223.624 1455.07 222.912 1454.57 222.368C1454.08 221.808 1453.38 221.528 1452.49 221.528ZM1461.57 228.68C1460.5 227.608 1459.97 226.248 1459.97 224.6C1459.97 222.952 1460.5 221.6 1461.57 220.544C1462.66 219.472 1464.09 218.936 1465.85 218.936C1467.61 218.936 1469.02 219.472 1470.09 220.544C1471.18 221.6 1471.73 222.952 1471.73 224.6C1471.73 226.248 1471.18 227.608 1470.09 228.68C1469.02 229.736 1467.61 230.264 1465.85 230.264C1464.09 230.264 1462.66 229.736 1461.57 228.68ZM1462.92 224.6C1462.92 225.496 1463.19 226.24 1463.73 226.832C1464.29 227.408 1465 227.696 1465.85 227.696C1466.71 227.696 1467.41 227.416 1467.96 226.856C1468.52 226.28 1468.8 225.528 1468.8 224.6C1468.8 223.704 1468.52 222.968 1467.96 222.392C1467.4 221.816 1466.69 221.528 1465.85 221.528C1465.01 221.528 1464.32 221.816 1463.76 222.392C1463.2 222.952 1462.92 223.688 1462.92 224.6ZM1481.6 230V225.872H1476.87V230H1474.11V219.2H1476.87V223.28H1481.6V219.2H1484.36V230H1481.6ZM1486.3 221.96V219.2H1496.14V221.96H1492.61V230H1489.85V221.96H1486.3ZM1506.26 226.976L1507.05 228.92C1505.99 229.816 1504.62 230.264 1502.92 230.264C1501.18 230.264 1499.77 229.744 1498.7 228.704C1497.64 227.664 1497.11 226.296 1497.11 224.6C1497.11 222.984 1497.63 221.64 1498.67 220.568C1499.71 219.48 1501.1 218.936 1502.83 218.936C1504.25 218.936 1505.46 219.408 1506.45 220.352C1507.44 221.28 1507.94 222.48 1507.94 223.952C1507.94 224.56 1507.88 225.056 1507.77 225.44H1499.97C1500.08 226.24 1500.43 226.864 1501.03 227.312C1501.62 227.744 1502.35 227.96 1503.21 227.96C1504.43 227.96 1505.44 227.632 1506.26 226.976ZM1502.71 221.24C1501.14 221.24 1500.19 222.024 1499.87 223.592H1505.18C1505.19 222.92 1504.98 222.36 1504.53 221.912C1504.08 221.464 1503.47 221.24 1502.71 221.24ZM1517.65 230V225.872H1512.92V230H1510.16V219.2H1512.92V223.28H1517.65V219.2H1520.41V230H1517.65ZM1522.18 232.52V227.432H1523.55C1524.39 226.312 1524.9 224.432 1525.06 221.792L1525.23 219.2H1533.19V227.432H1534.99V232.52H1532.4V230H1524.75V232.52H1522.18ZM1527.72 222.896C1527.53 224.992 1527.1 226.504 1526.43 227.432H1530.43V221.792H1527.79L1527.72 222.896ZM1537.65 221.984L1536.95 219.968C1538.12 219.28 1539.39 218.936 1540.77 218.936C1542.31 218.936 1543.41 219.312 1544.08 220.064C1544.75 220.816 1545.09 221.936 1545.09 223.424V230H1542.69V228.752C1542.03 229.68 1540.97 230.144 1539.5 230.144C1538.49 230.144 1537.67 229.848 1537.05 229.256C1536.43 228.664 1536.11 227.856 1536.11 226.832C1536.11 225.696 1536.48 224.832 1537.22 224.24C1537.95 223.632 1538.9 223.328 1540.05 223.328C1541.04 223.328 1541.86 223.56 1542.5 224.024C1542.53 223.08 1542.39 222.384 1542.09 221.936C1541.79 221.472 1541.25 221.24 1540.48 221.24C1539.68 221.24 1538.74 221.488 1537.65 221.984ZM1540.41 227.816C1541.34 227.816 1542.03 227.488 1542.5 226.832V225.728C1542.03 225.376 1541.4 225.2 1540.6 225.2C1540.11 225.2 1539.69 225.32 1539.35 225.56C1539.03 225.784 1538.87 226.112 1538.87 226.544C1538.87 226.944 1539.02 227.256 1539.31 227.48C1539.59 227.704 1539.96 227.816 1540.41 227.816Z" fill="white"/>
<rect x="1187.5" y="187.5" width="379" height="72" rx="6.5" stroke="#005DED" stroke-width="3"/>
<path d="M1218.33 43.976V27.248C1219.9 27.168 1221.51 27.128 1223.18 27.128C1225.08 27.128 1226.47 27.512 1227.35 28.28C1228.25 29.032 1228.7 30.032 1228.7 31.28C1228.7 33.072 1227.9 34.344 1226.3 35.096V35.144C1227.18 35.368 1227.89 35.808 1228.43 36.464C1228.98 37.12 1229.25 37.984 1229.25 39.056C1229.25 40.72 1228.67 41.976 1227.52 42.824C1226.38 43.672 1224.88 44.096 1223.01 44.096C1220.98 44.096 1219.42 44.056 1218.33 43.976ZM1223.37 36.776H1221.28V41.216C1221.95 41.296 1222.6 41.336 1223.22 41.336C1225.27 41.336 1226.3 40.528 1226.3 38.912C1226.3 38.208 1226.04 37.68 1225.53 37.328C1225.02 36.96 1224.3 36.776 1223.37 36.776ZM1223.13 29.888C1222.42 29.888 1221.81 29.912 1221.28 29.96V34.208H1223.27C1224.01 34.208 1224.61 34.024 1225.07 33.656C1225.54 33.272 1225.77 32.712 1225.77 31.976C1225.77 31.304 1225.53 30.792 1225.05 30.44C1224.58 30.072 1223.94 29.888 1223.13 29.888ZM1244.97 39.536C1244.97 39.088 1244.83 38.696 1244.54 38.36C1244.27 38.008 1243.91 37.712 1243.46 37.472C1243.01 37.216 1242.51 36.976 1241.97 36.752C1241.44 36.512 1240.91 36.248 1240.36 35.96C1239.82 35.656 1239.32 35.328 1238.87 34.976C1238.43 34.608 1238.06 34.136 1237.77 33.56C1237.5 32.968 1237.36 32.304 1237.36 31.568C1237.36 30.256 1237.83 29.16 1238.78 28.28C1239.74 27.384 1241.01 26.936 1242.59 26.936C1244.71 26.936 1246.31 27.536 1247.39 28.736L1245.81 30.944C1244.95 30.112 1243.95 29.696 1242.83 29.696C1242.11 29.696 1241.54 29.864 1241.11 30.2C1240.69 30.536 1240.48 30.984 1240.48 31.544C1240.48 32.088 1240.67 32.56 1241.03 32.96C1241.42 33.36 1241.89 33.68 1242.45 33.92C1243.01 34.144 1243.62 34.416 1244.27 34.736C1244.95 35.056 1245.56 35.392 1246.12 35.744C1246.68 36.08 1247.15 36.576 1247.51 37.232C1247.9 37.872 1248.09 38.632 1248.09 39.512C1248.09 40.904 1247.55 42.048 1246.48 42.944C1245.41 43.824 1244.07 44.264 1242.47 44.264C1241.32 44.264 1240.21 44.032 1239.14 43.568C1238.08 43.088 1237.36 42.44 1236.98 41.624L1238.66 39.608C1239.12 40.216 1239.71 40.688 1240.41 41.024C1241.13 41.344 1241.83 41.504 1242.52 41.504C1243.24 41.504 1243.83 41.336 1244.27 41C1244.74 40.648 1244.97 40.16 1244.97 39.536ZM1249.33 44L1256.44 27.152H1259.03L1266.13 44H1262.99L1261.24 39.704H1254.06L1252.31 44H1249.33ZM1257.66 30.968L1255.19 36.944H1260.11L1257.66 30.968ZM1271.6 44H1268.65V27.2C1268.94 27.2 1269.7 27.192 1270.93 27.176C1272.18 27.16 1273.01 27.152 1273.42 27.152C1274.61 27.152 1275.63 27.304 1276.5 27.608C1277.38 27.896 1278.06 28.304 1278.54 28.832C1279.02 29.344 1279.37 29.912 1279.59 30.536C1279.82 31.144 1279.93 31.816 1279.93 32.552C1279.93 34.072 1279.38 35.36 1278.3 36.416C1277.21 37.472 1275.7 38 1273.78 38C1272.81 38 1272.08 37.976 1271.6 37.928V44ZM1273.71 29.912C1273.36 29.912 1272.66 29.928 1271.6 29.96V35.12C1272.37 35.2 1273.06 35.24 1273.69 35.24C1274.62 35.24 1275.37 35.016 1275.94 34.568C1276.52 34.104 1276.81 33.424 1276.81 32.528C1276.81 30.784 1275.78 29.912 1273.71 29.912ZM1295.82 40.376L1297.12 42.392C1296.67 43 1296.06 43.464 1295.29 43.784C1294.54 44.104 1293.72 44.264 1292.82 44.264C1291.06 44.264 1289.65 43.744 1288.57 42.704C1287.5 41.664 1286.97 40.296 1286.97 38.6C1286.97 37 1287.49 35.656 1288.55 34.568C1289.61 33.48 1290.94 32.936 1292.56 32.936C1294.48 32.936 1295.93 33.424 1296.9 34.4L1295.61 36.584C1294.89 35.88 1293.99 35.528 1292.92 35.528C1292.12 35.528 1291.41 35.816 1290.81 36.392C1290.21 36.952 1289.92 37.688 1289.92 38.6C1289.92 39.528 1290.22 40.28 1290.83 40.856C1291.45 41.416 1292.19 41.696 1293.04 41.696C1294.09 41.696 1295.02 41.256 1295.82 40.376ZM1309.75 48.8V44.264H1309.6C1307.76 44.264 1306.32 43.736 1305.28 42.68C1304.26 41.624 1303.75 40.264 1303.75 38.6C1303.75 37.048 1304.27 35.72 1305.31 34.616C1306.36 33.496 1307.79 32.936 1309.58 32.936H1309.75V27.2H1312.51V32.936H1312.7C1314.51 32.936 1315.92 33.472 1316.95 34.544C1317.99 35.6 1318.51 36.952 1318.51 38.6C1318.51 40.28 1318.01 41.648 1317.02 42.704C1316.03 43.744 1314.59 44.264 1312.7 44.264H1312.51V48.8H1309.75ZM1312.7 35.528H1312.51V41.696H1312.6C1313.56 41.696 1314.29 41.416 1314.79 40.856C1315.3 40.296 1315.55 39.544 1315.55 38.6C1315.55 37.736 1315.31 37.008 1314.81 36.416C1314.33 35.824 1313.63 35.528 1312.7 35.528ZM1306.7 38.6C1306.7 39.528 1306.95 40.28 1307.47 40.856C1307.98 41.416 1308.71 41.696 1309.67 41.696H1309.75V35.528H1309.55C1308.59 35.528 1307.87 35.816 1307.39 36.392C1306.93 36.968 1306.7 37.704 1306.7 38.6ZM1321.83 42.68C1320.76 41.608 1320.22 40.248 1320.22 38.6C1320.22 36.952 1320.76 35.6 1321.83 34.544C1322.92 33.472 1324.34 32.936 1326.1 32.936C1327.86 32.936 1329.28 33.472 1330.35 34.544C1331.44 35.6 1331.98 36.952 1331.98 38.6C1331.98 40.248 1331.44 41.608 1330.35 42.68C1329.28 43.736 1327.86 44.264 1326.1 44.264C1324.34 44.264 1322.92 43.736 1321.83 42.68ZM1323.18 38.6C1323.18 39.496 1323.45 40.24 1323.99 40.832C1324.55 41.408 1325.26 41.696 1326.1 41.696C1326.97 41.696 1327.67 41.416 1328.22 40.856C1328.78 40.28 1329.06 39.528 1329.06 38.6C1329.06 37.704 1328.78 36.968 1328.22 36.392C1327.66 35.816 1326.95 35.528 1326.1 35.528C1325.27 35.528 1324.58 35.816 1324.02 36.392C1323.46 36.952 1323.18 37.688 1323.18 38.6ZM1334.37 48.8V33.2H1337.13V34.232C1337.48 33.864 1337.96 33.56 1338.55 33.32C1339.16 33.064 1339.8 32.936 1340.47 32.936C1341.94 32.936 1343.12 33.448 1344.02 34.472C1344.92 35.496 1345.36 36.816 1345.36 38.432C1345.36 40.112 1344.84 41.504 1343.78 42.608C1342.72 43.712 1341.35 44.264 1339.65 44.264C1338.58 44.264 1337.74 44.088 1337.13 43.736V48.8H1334.37ZM1339.6 35.528C1338.66 35.528 1337.84 35.92 1337.13 36.704V41.072C1337.77 41.488 1338.53 41.696 1339.41 41.696C1340.34 41.696 1341.08 41.4 1341.62 40.808C1342.16 40.2 1342.44 39.432 1342.44 38.504C1342.44 37.624 1342.19 36.912 1341.69 36.368C1341.2 35.808 1340.5 35.528 1339.6 35.528ZM1347.75 44V33.2H1350.25L1353.92 37.712L1357.4 33.2H1359.83V44H1357.07V37.4L1353.87 41.432H1353.8L1350.51 37.4V44H1347.75ZM1374.01 47.432L1372.25 48.944C1369.02 46.16 1367.41 42.712 1367.41 38.6C1367.41 34.632 1369.03 31.184 1372.28 28.256L1373.98 29.768C1372.67 31.064 1371.7 32.424 1371.08 33.848C1370.47 35.256 1370.17 36.84 1370.17 38.6C1370.17 40.312 1370.51 41.944 1371.2 43.496C1371.9 45.032 1372.84 46.344 1374.01 47.432ZM1374.42 35.96V33.2H1384.26V35.96H1380.74V44H1377.98V35.96H1374.42ZM1394.38 40.976L1395.18 42.92C1394.12 43.816 1392.74 44.264 1391.05 44.264C1389.3 44.264 1387.9 43.744 1386.82 42.704C1385.77 41.664 1385.24 40.296 1385.24 38.6C1385.24 36.984 1385.76 35.64 1386.8 34.568C1387.84 33.48 1389.22 32.936 1390.95 32.936C1392.38 32.936 1393.58 33.408 1394.58 34.352C1395.57 35.28 1396.06 36.48 1396.06 37.952C1396.06 38.56 1396.01 39.056 1395.9 39.44H1388.1C1388.21 40.24 1388.56 40.864 1389.15 41.312C1389.74 41.744 1390.47 41.96 1391.34 41.96C1392.55 41.96 1393.57 41.632 1394.38 40.976ZM1390.83 35.24C1389.26 35.24 1388.32 36.024 1388 37.592H1393.3C1393.32 36.92 1393.1 36.36 1392.66 35.912C1392.21 35.464 1391.6 35.24 1390.83 35.24ZM1406.4 40.376L1407.7 42.392C1407.25 43 1406.64 43.464 1405.87 43.784C1405.12 44.104 1404.3 44.264 1403.4 44.264C1401.64 44.264 1400.22 43.744 1399.15 42.704C1398.08 41.664 1397.54 40.296 1397.54 38.6C1397.54 37 1398.07 35.656 1399.13 34.568C1400.18 33.48 1401.52 32.936 1403.14 32.936C1405.06 32.936 1406.5 33.424 1407.48 34.4L1406.18 36.584C1405.46 35.88 1404.57 35.528 1403.5 35.528C1402.7 35.528 1401.99 35.816 1401.38 36.392C1400.79 36.952 1400.5 37.688 1400.5 38.6C1400.5 39.528 1400.8 40.28 1401.41 40.856C1402.03 41.416 1402.77 41.696 1403.62 41.696C1404.67 41.696 1405.6 41.256 1406.4 40.376ZM1408.57 35.96V33.2H1418.41V35.96H1414.88V44H1412.12V35.96H1408.57ZM1420.57 38.72V36.152H1426.62V38.72H1420.57ZM1428.09 46.52V41.432H1429.46C1430.31 40.312 1430.81 38.432 1430.97 35.792L1431.14 33.2H1439.11V41.432H1440.91V46.52H1438.32V44H1430.66V46.52H1428.09ZM1433.64 36.896C1433.44 38.992 1433.01 40.504 1432.34 41.432H1436.35V35.792H1433.71L1433.64 36.896ZM1442.72 48.8V33.2H1445.48V34.232C1445.84 33.864 1446.31 33.56 1446.9 33.32C1447.51 33.064 1448.15 32.936 1448.82 32.936C1450.29 32.936 1451.48 33.448 1452.37 34.472C1453.27 35.496 1453.72 36.816 1453.72 38.432C1453.72 40.112 1453.19 41.504 1452.13 42.608C1451.08 43.712 1449.7 44.264 1448 44.264C1446.93 44.264 1446.09 44.088 1445.48 43.736V48.8H1442.72ZM1447.96 35.528C1447.01 35.528 1446.19 35.92 1445.48 36.704V41.072C1446.12 41.488 1446.88 41.696 1447.76 41.696C1448.69 41.696 1449.43 41.4 1449.97 40.808C1450.52 40.2 1450.79 39.432 1450.79 38.504C1450.79 37.624 1450.54 36.912 1450.04 36.368C1449.55 35.808 1448.85 35.528 1447.96 35.528ZM1456.95 35.984L1456.25 33.968C1457.42 33.28 1458.69 32.936 1460.07 32.936C1461.6 32.936 1462.71 33.312 1463.38 34.064C1464.05 34.816 1464.39 35.936 1464.39 37.424V44H1461.99V42.752C1461.33 43.68 1460.27 44.144 1458.79 44.144C1457.79 44.144 1456.97 43.848 1456.35 43.256C1455.72 42.664 1455.41 41.856 1455.41 40.832C1455.41 39.696 1455.78 38.832 1456.51 38.24C1457.25 37.632 1458.19 37.328 1459.35 37.328C1460.34 37.328 1461.15 37.56 1461.79 38.024C1461.83 37.08 1461.69 36.384 1461.39 35.936C1461.08 35.472 1460.55 35.24 1459.78 35.24C1458.98 35.24 1458.03 35.488 1456.95 35.984ZM1459.71 41.816C1460.63 41.816 1461.33 41.488 1461.79 40.832V39.728C1461.33 39.376 1460.7 39.2 1459.9 39.2C1459.4 39.2 1458.99 39.32 1458.65 39.56C1458.33 39.784 1458.17 40.112 1458.17 40.544C1458.17 40.944 1458.31 41.256 1458.6 41.48C1458.89 41.704 1459.26 41.816 1459.71 41.816ZM1469.98 44H1467.22V33.2H1469.98V40.04L1475.02 33.2H1477.78V44H1475.02V37.16L1469.98 44ZM1468.82 27.8H1471.34C1471.34 28.296 1471.44 28.712 1471.63 29.048C1471.84 29.384 1472.16 29.552 1472.59 29.552C1472.98 29.552 1473.26 29.384 1473.46 29.048C1473.65 28.712 1473.74 28.296 1473.74 27.8H1476.26C1476.26 28.888 1475.94 29.784 1475.3 30.488C1474.66 31.176 1473.76 31.52 1472.59 31.52C1471.31 31.52 1470.36 31.184 1469.74 30.512C1469.13 29.824 1468.82 28.92 1468.82 27.8ZM1480.86 44V33.2C1481.05 33.2 1481.4 33.192 1481.91 33.176C1482.44 33.144 1482.98 33.12 1483.52 33.104C1484.08 33.088 1484.61 33.08 1485.1 33.08C1488.37 33.08 1490 34.024 1490 35.912C1490 36.536 1489.8 37.072 1489.4 37.52C1489.02 37.968 1488.54 38.232 1487.98 38.312V38.36C1489.52 38.728 1490.29 39.56 1490.29 40.856C1490.29 43.032 1488.58 44.12 1485.15 44.12C1484.67 44.12 1483.91 44.096 1482.87 44.048C1481.83 44.016 1481.16 44 1480.86 44ZM1485.34 39.416H1483.62V41.816C1484.7 41.88 1485.31 41.912 1485.44 41.912C1486.05 41.912 1486.52 41.8 1486.86 41.576C1487.21 41.352 1487.38 41.048 1487.38 40.664C1487.38 39.832 1486.7 39.416 1485.34 39.416ZM1485.34 35.312C1484.58 35.312 1484 35.328 1483.62 35.36V37.736H1485.42C1485.9 37.736 1486.29 37.632 1486.59 37.424C1486.91 37.2 1487.07 36.888 1487.07 36.488C1487.07 35.704 1486.5 35.312 1485.34 35.312ZM1492.5 42.464C1492.5 41.952 1492.66 41.536 1492.98 41.216C1493.31 40.88 1493.77 40.712 1494.34 40.712C1494.98 40.712 1495.5 40.968 1495.88 41.48C1496.26 41.976 1496.46 42.616 1496.46 43.4C1496.46 44.408 1496.18 45.272 1495.64 45.992C1495.11 46.712 1494.37 47.208 1493.41 47.48L1492.66 46.184C1493.37 45.928 1493.86 45.504 1494.13 44.912C1494.37 44.416 1494.44 44.048 1494.34 43.808C1494.25 43.936 1494.04 44 1493.72 44C1493.4 44 1493.11 43.856 1492.86 43.568C1492.62 43.264 1492.5 42.896 1492.5 42.464ZM1221.35 79.264C1220.41 79.264 1219.49 79.096 1218.59 78.76C1217.7 78.408 1217.05 77.976 1216.65 77.464L1218.06 75.736C1218.38 76.104 1218.84 76.416 1219.43 76.672C1220.04 76.928 1220.6 77.056 1221.11 77.056C1221.82 77.056 1222.36 76.936 1222.74 76.696C1223.13 76.456 1223.32 76.136 1223.32 75.736C1223.32 75.368 1223.18 75.072 1222.89 74.848C1222.6 74.624 1222.2 74.512 1221.69 74.512H1219.67V72.664H1221.57C1222 72.664 1222.34 72.536 1222.6 72.28C1222.87 72.024 1223.01 71.712 1223.01 71.344C1223.01 70.56 1222.38 70.168 1221.11 70.168C1220.12 70.168 1219.14 70.584 1218.16 71.416L1217.01 69.76C1218.05 68.544 1219.59 67.936 1221.64 67.936C1223.05 67.936 1224.12 68.208 1224.86 68.752C1225.59 69.296 1225.96 70.048 1225.96 71.008C1225.96 71.536 1225.78 72.016 1225.43 72.448C1225.08 72.88 1224.59 73.2 1223.97 73.408V73.456C1224.7 73.6 1225.26 73.904 1225.65 74.368C1226.05 74.816 1226.25 75.36 1226.25 76C1226.25 77.008 1225.8 77.808 1224.9 78.4C1224.01 78.976 1222.82 79.264 1221.35 79.264ZM1229.7 70.984L1229 68.968C1230.17 68.28 1231.44 67.936 1232.82 67.936C1234.35 67.936 1235.46 68.312 1236.13 69.064C1236.8 69.816 1237.14 70.936 1237.14 72.424V79H1234.74V77.752C1234.08 78.68 1233.02 79.144 1231.54 79.144C1230.54 79.144 1229.72 78.848 1229.1 78.256C1228.47 77.664 1228.16 76.856 1228.16 75.832C1228.16 74.696 1228.53 73.832 1229.26 73.24C1230 72.632 1230.94 72.328 1232.1 72.328C1233.09 72.328 1233.9 72.56 1234.54 73.024C1234.58 72.08 1234.44 71.384 1234.14 70.936C1233.83 70.472 1233.3 70.24 1232.53 70.24C1231.73 70.24 1230.78 70.488 1229.7 70.984ZM1232.46 76.816C1233.38 76.816 1234.08 76.488 1234.54 75.832V74.728C1234.08 74.376 1233.45 74.2 1232.65 74.2C1232.15 74.2 1231.74 74.32 1231.4 74.56C1231.08 74.784 1230.92 75.112 1230.92 75.544C1230.92 75.944 1231.06 76.256 1231.35 76.48C1231.64 76.704 1232.01 76.816 1232.46 76.816ZM1250.19 68.2L1246.04 73.336L1250.69 79H1247.09L1242.82 73.552L1246.71 68.2H1250.19ZM1239.97 79V68.2H1242.73V79H1239.97ZM1253.16 70.984L1252.46 68.968C1253.63 68.28 1254.9 67.936 1256.28 67.936C1257.81 67.936 1258.92 68.312 1259.59 69.064C1260.26 69.816 1260.6 70.936 1260.6 72.424V79H1258.2V77.752C1257.54 78.68 1256.48 79.144 1255.01 79.144C1254 79.144 1253.18 78.848 1252.56 78.256C1251.93 77.664 1251.62 76.856 1251.62 75.832C1251.62 74.696 1251.99 73.832 1252.73 73.24C1253.46 72.632 1254.41 72.328 1255.56 72.328C1256.55 72.328 1257.37 72.56 1258.01 73.024C1258.04 72.08 1257.9 71.384 1257.6 70.936C1257.29 70.472 1256.76 70.24 1255.99 70.24C1255.19 70.24 1254.25 70.488 1253.16 70.984ZM1255.92 76.816C1256.85 76.816 1257.54 76.488 1258.01 75.832V74.728C1257.54 74.376 1256.91 74.2 1256.11 74.2C1255.61 74.2 1255.2 74.32 1254.86 74.56C1254.54 74.784 1254.38 75.112 1254.38 75.544C1254.38 75.944 1254.53 76.256 1254.81 76.48C1255.1 76.704 1255.47 76.816 1255.92 76.816ZM1267.24 79.264C1266.3 79.264 1265.38 79.096 1264.48 78.76C1263.59 78.408 1262.94 77.976 1262.54 77.464L1263.95 75.736C1264.27 76.104 1264.73 76.416 1265.32 76.672C1265.93 76.928 1266.49 77.056 1267 77.056C1267.71 77.056 1268.25 76.936 1268.63 76.696C1269.02 76.456 1269.21 76.136 1269.21 75.736C1269.21 75.368 1269.07 75.072 1268.78 74.848C1268.49 74.624 1268.09 74.512 1267.58 74.512H1265.56V72.664H1267.46C1267.89 72.664 1268.23 72.536 1268.49 72.28C1268.76 72.024 1268.9 71.712 1268.9 71.344C1268.9 70.56 1268.27 70.168 1267 70.168C1266.01 70.168 1265.03 70.584 1264.05 71.416L1262.9 69.76C1263.94 68.544 1265.48 67.936 1267.53 67.936C1268.94 67.936 1270.01 68.208 1270.75 68.752C1271.48 69.296 1271.85 70.048 1271.85 71.008C1271.85 71.536 1271.67 72.016 1271.32 72.448C1270.97 72.88 1270.48 73.2 1269.86 73.408V73.456C1270.59 73.6 1271.15 73.904 1271.54 74.368C1271.94 74.816 1272.14 75.36 1272.14 76C1272.14 77.008 1271.69 77.808 1270.79 78.4C1269.9 78.976 1268.71 79.264 1267.24 79.264ZM1275.59 70.984L1274.89 68.968C1276.06 68.28 1277.33 67.936 1278.71 67.936C1280.24 67.936 1281.35 68.312 1282.02 69.064C1282.69 69.816 1283.03 70.936 1283.03 72.424V79H1280.63V77.752C1279.97 78.68 1278.91 79.144 1277.43 79.144C1276.43 79.144 1275.61 78.848 1274.99 78.256C1274.36 77.664 1274.05 76.856 1274.05 75.832C1274.05 74.696 1274.42 73.832 1275.15 73.24C1275.89 72.632 1276.83 72.328 1277.99 72.328C1278.98 72.328 1279.79 72.56 1280.43 73.024C1280.47 72.08 1280.33 71.384 1280.03 70.936C1279.72 70.472 1279.19 70.24 1278.42 70.24C1277.62 70.24 1276.67 70.488 1275.59 70.984ZM1278.35 76.816C1279.27 76.816 1279.97 76.488 1280.43 75.832V74.728C1279.97 74.376 1279.34 74.2 1278.54 74.2C1278.04 74.2 1277.63 74.32 1277.29 74.56C1276.97 74.784 1276.81 75.112 1276.81 75.544C1276.81 75.944 1276.95 76.256 1277.24 76.48C1277.53 76.704 1277.9 76.816 1278.35 76.816ZM1284.73 70.96V68.2H1294.57V70.96H1291.04V79H1288.28V70.96H1284.73ZM1296.54 79V68.2H1299.3V71.152H1300.79C1302.49 71.152 1303.7 71.504 1304.44 72.208C1305.18 72.912 1305.54 73.808 1305.54 74.896C1305.54 76.064 1305.14 77.04 1304.34 77.824C1303.54 78.608 1302.29 79 1300.58 79H1296.54ZM1300.55 73.36H1299.3V76.6H1300.53C1301.92 76.6 1302.62 76.064 1302.62 74.992C1302.62 73.904 1301.93 73.36 1300.55 73.36ZM1313.67 70.984L1312.98 68.968C1314.14 68.28 1315.42 67.936 1316.79 67.936C1318.33 67.936 1319.43 68.312 1320.1 69.064C1320.78 69.816 1321.11 70.936 1321.11 72.424V79H1318.71V77.752C1318.06 78.68 1316.99 79.144 1315.52 79.144C1314.51 79.144 1313.7 78.848 1313.07 78.256C1312.45 77.664 1312.14 76.856 1312.14 75.832C1312.14 74.696 1312.5 73.832 1313.24 73.24C1313.98 72.632 1314.92 72.328 1316.07 72.328C1317.06 72.328 1317.88 72.56 1318.52 73.024C1318.55 72.08 1318.42 71.384 1318.11 70.936C1317.81 70.472 1317.27 70.24 1316.5 70.24C1315.7 70.24 1314.76 70.488 1313.67 70.984ZM1316.43 76.816C1317.36 76.816 1318.06 76.488 1318.52 75.832V74.728C1318.06 74.376 1317.42 74.2 1316.62 74.2C1316.13 74.2 1315.71 74.32 1315.38 74.56C1315.06 74.784 1314.9 75.112 1314.9 75.544C1314.9 75.944 1315.04 76.256 1315.33 76.48C1315.62 76.704 1315.98 76.816 1316.43 76.816ZM1323.94 79V68.2C1324.13 68.2 1324.49 68.192 1325 68.176C1325.53 68.144 1326.06 68.12 1326.61 68.104C1327.17 68.088 1327.69 68.08 1328.19 68.08C1331.45 68.08 1333.09 69.024 1333.09 70.912C1333.09 71.536 1332.89 72.072 1332.49 72.52C1332.1 72.968 1331.63 73.232 1331.07 73.312V73.36C1332.61 73.728 1333.37 74.56 1333.37 75.856C1333.37 78.032 1331.66 79.12 1328.24 79.12C1327.76 79.12 1327 79.096 1325.96 79.048C1324.92 79.016 1324.25 79 1323.94 79ZM1328.43 74.416H1326.7V76.816C1327.79 76.88 1328.4 76.912 1328.53 76.912C1329.13 76.912 1329.61 76.8 1329.94 76.576C1330.29 76.352 1330.47 76.048 1330.47 75.664C1330.47 74.832 1329.79 74.416 1328.43 74.416ZM1328.43 70.312C1327.66 70.312 1327.09 70.328 1326.7 70.36V72.736H1328.5C1328.98 72.736 1329.37 72.632 1329.68 72.424C1330 72.2 1330.16 71.888 1330.16 71.488C1330.16 70.704 1329.58 70.312 1328.43 70.312ZM1334.86 70.96V68.2H1344.7V70.96H1341.17V79H1338.41V70.96H1334.86ZM1347.28 77.68C1346.21 76.608 1345.68 75.248 1345.68 73.6C1345.68 71.952 1346.21 70.6 1347.28 69.544C1348.37 68.472 1349.8 67.936 1351.56 67.936C1353.32 67.936 1354.73 68.472 1355.8 69.544C1356.89 70.6 1357.44 71.952 1357.44 73.6C1357.44 75.248 1356.89 76.608 1355.8 77.68C1354.73 78.736 1353.32 79.264 1351.56 79.264C1349.8 79.264 1348.37 78.736 1347.28 77.68ZM1348.63 73.6C1348.63 74.496 1348.9 75.24 1349.44 75.832C1350 76.408 1350.71 76.696 1351.56 76.696C1352.42 76.696 1353.12 76.416 1353.67 75.856C1354.23 75.28 1354.51 74.528 1354.51 73.6C1354.51 72.704 1354.23 71.968 1353.67 71.392C1353.11 70.816 1352.4 70.528 1351.56 70.528C1350.72 70.528 1350.03 70.816 1349.47 71.392C1348.91 71.952 1348.63 72.688 1348.63 73.6ZM1359.42 77.464C1359.42 76.952 1359.58 76.536 1359.9 76.216C1360.23 75.88 1360.69 75.712 1361.27 75.712C1361.91 75.712 1362.42 75.968 1362.8 76.48C1363.19 76.976 1363.38 77.616 1363.38 78.4C1363.38 79.408 1363.11 80.272 1362.56 80.992C1362.03 81.712 1361.29 82.208 1360.33 82.48L1359.59 81.184C1360.29 80.928 1360.78 80.504 1361.05 79.912C1361.29 79.416 1361.36 79.048 1361.27 78.808C1361.17 78.936 1360.96 79 1360.64 79C1360.32 79 1360.03 78.856 1359.78 78.568C1359.54 78.264 1359.42 77.896 1359.42 77.464ZM1370.91 77.68C1369.84 76.608 1369.3 75.248 1369.3 73.6C1369.3 71.952 1369.84 70.6 1370.91 69.544C1372 68.472 1373.42 67.936 1375.18 67.936C1376.94 67.936 1378.36 68.472 1379.43 69.544C1380.52 70.6 1381.06 71.952 1381.06 73.6C1381.06 75.248 1380.52 76.608 1379.43 77.68C1378.36 78.736 1376.94 79.264 1375.18 79.264C1373.42 79.264 1372 78.736 1370.91 77.68ZM1372.25 73.6C1372.25 74.496 1372.53 75.24 1373.07 75.832C1373.63 76.408 1374.33 76.696 1375.18 76.696C1376.05 76.696 1376.75 76.416 1377.29 75.856C1377.85 75.28 1378.13 74.528 1378.13 73.6C1378.13 72.704 1377.85 71.968 1377.29 71.392C1376.73 70.816 1376.03 70.528 1375.18 70.528C1374.35 70.528 1373.65 70.816 1373.09 71.392C1372.53 71.952 1372.25 72.688 1372.25 73.6ZM1391.56 61.936L1393 64.192C1392.59 64.688 1392.11 65.04 1391.56 65.248C1391.02 65.44 1390.38 65.616 1389.64 65.776C1388.92 65.92 1388.3 66.12 1387.77 66.376C1386.43 67 1385.65 68.344 1385.44 70.408H1385.49C1385.83 69.816 1386.35 69.336 1387.05 68.968C1387.75 68.584 1388.5 68.392 1389.28 68.392C1390.77 68.392 1391.96 68.872 1392.86 69.832C1393.75 70.792 1394.2 72.08 1394.2 73.696C1394.2 75.248 1393.67 76.568 1392.62 77.656C1391.56 78.728 1390.2 79.264 1388.54 79.264C1386.73 79.264 1385.3 78.648 1384.24 77.416C1383.2 76.184 1382.68 74.52 1382.68 72.424C1382.68 67.8 1384.04 64.904 1386.76 63.736C1387.37 63.48 1388.03 63.288 1388.73 63.16C1389.43 63.016 1389.99 62.872 1390.41 62.728C1390.84 62.584 1391.23 62.32 1391.56 61.936ZM1385.63 73C1385.65 74.072 1385.91 74.96 1386.43 75.664C1386.94 76.352 1387.62 76.696 1388.47 76.696C1389.31 76.696 1389.99 76.424 1390.48 75.88C1390.99 75.32 1391.25 74.632 1391.25 73.816C1391.25 72.984 1391.02 72.304 1390.55 71.776C1390.09 71.232 1389.43 70.96 1388.59 70.96C1387.85 70.96 1387.22 71.152 1386.69 71.536C1386.18 71.92 1385.83 72.408 1385.63 73ZM1396.6 83.8V68.2H1399.36V69.232C1399.71 68.864 1400.18 68.56 1400.77 68.32C1401.38 68.064 1402.02 67.936 1402.69 67.936C1404.17 67.936 1405.35 68.448 1406.25 69.472C1407.14 70.496 1407.59 71.816 1407.59 73.432C1407.59 75.112 1407.06 76.504 1406.01 77.608C1404.95 78.712 1403.57 79.264 1401.88 79.264C1400.81 79.264 1399.97 79.088 1399.36 78.736V83.8H1396.6ZM1401.83 70.528C1400.89 70.528 1400.06 70.92 1399.36 71.704V76.072C1400 76.488 1400.76 76.696 1401.64 76.696C1402.57 76.696 1403.3 76.4 1403.85 75.808C1404.39 75.2 1404.66 74.432 1404.66 73.504C1404.66 72.624 1404.41 71.912 1403.92 71.368C1403.42 70.808 1402.73 70.528 1401.83 70.528ZM1410.82 70.984L1410.13 68.968C1411.29 68.28 1412.57 67.936 1413.94 67.936C1415.48 67.936 1416.58 68.312 1417.25 69.064C1417.93 69.816 1418.26 70.936 1418.26 72.424V79H1415.86V77.752C1415.21 78.68 1414.14 79.144 1412.67 79.144C1411.66 79.144 1410.85 78.848 1410.22 78.256C1409.6 77.664 1409.29 76.856 1409.29 75.832C1409.29 74.696 1409.65 73.832 1410.39 73.24C1411.13 72.632 1412.07 72.328 1413.22 72.328C1414.21 72.328 1415.03 72.56 1415.67 73.024C1415.7 72.08 1415.57 71.384 1415.26 70.936C1414.96 70.472 1414.42 70.24 1413.65 70.24C1412.85 70.24 1411.91 70.488 1410.82 70.984ZM1413.58 76.816C1414.51 76.816 1415.21 76.488 1415.67 75.832V74.728C1415.21 74.376 1414.57 74.2 1413.77 74.2C1413.28 74.2 1412.86 74.32 1412.53 74.56C1412.21 74.784 1412.05 75.112 1412.05 75.544C1412.05 75.944 1412.19 76.256 1412.48 76.48C1412.77 76.704 1413.13 76.816 1413.58 76.816ZM1419.96 70.96V68.2H1429.8V70.96H1426.27V79H1423.51V70.96H1419.96ZM1439.27 79V74.872H1434.54V79H1431.78V68.2H1434.54V72.28H1439.27V68.2H1442.03V79H1439.27ZM1445.93 70.984L1445.23 68.968C1446.4 68.28 1447.67 67.936 1449.05 67.936C1450.59 67.936 1451.69 68.312 1452.36 69.064C1453.03 69.816 1453.37 70.936 1453.37 72.424V79H1450.97V77.752C1450.31 78.68 1449.25 79.144 1447.78 79.144C1446.77 79.144 1445.95 78.848 1445.33 78.256C1444.71 77.664 1444.39 76.856 1444.39 75.832C1444.39 74.696 1444.76 73.832 1445.5 73.24C1446.23 72.632 1447.18 72.328 1448.33 72.328C1449.32 72.328 1450.14 72.56 1450.78 73.024C1450.81 72.08 1450.67 71.384 1450.37 70.936C1450.07 70.472 1449.53 70.24 1448.76 70.24C1447.96 70.24 1447.02 70.488 1445.93 70.984ZM1448.69 76.816C1449.62 76.816 1450.31 76.488 1450.78 75.832V74.728C1450.31 74.376 1449.68 74.2 1448.88 74.2C1448.39 74.2 1447.97 74.32 1447.63 74.56C1447.31 74.784 1447.15 75.112 1447.15 75.544C1447.15 75.944 1447.3 76.256 1447.59 76.48C1447.87 76.704 1448.24 76.816 1448.69 76.816ZM1461.48 68.2H1465.01V79H1462.25V75.76H1460.71L1458.48 79H1455.31L1458.19 75.16C1457.65 74.968 1457.16 74.608 1456.73 74.08C1456.31 73.536 1456.1 72.856 1456.1 72.04C1456.1 70.904 1456.54 69.984 1457.4 69.28C1458.28 68.56 1459.64 68.2 1461.48 68.2ZM1459.06 72.232C1459.06 72.664 1459.23 73.024 1459.58 73.312C1459.95 73.584 1460.36 73.72 1460.81 73.72H1462.25V70.6H1461.02C1460.4 70.6 1459.91 70.76 1459.56 71.08C1459.22 71.4 1459.06 71.784 1459.06 72.232ZM1481.35 75.376L1482.65 77.392C1482.2 78 1481.59 78.464 1480.82 78.784C1480.07 79.104 1479.25 79.264 1478.35 79.264C1476.59 79.264 1475.18 78.744 1474.1 77.704C1473.03 76.664 1472.5 75.296 1472.5 73.6C1472.5 72 1473.02 70.656 1474.08 69.568C1475.14 68.48 1476.47 67.936 1478.09 67.936C1480.01 67.936 1481.46 68.424 1482.43 69.4L1481.14 71.584C1480.42 70.88 1479.52 70.528 1478.45 70.528C1477.65 70.528 1476.94 70.816 1476.34 71.392C1475.74 71.952 1475.45 72.688 1475.45 73.6C1475.45 74.528 1475.75 75.28 1476.36 75.856C1476.98 76.416 1477.72 76.696 1478.57 76.696C1479.62 76.696 1480.55 76.256 1481.35 75.376ZM1484.86 79V68.2C1485.06 68.2 1485.41 68.192 1485.92 68.176C1486.45 68.144 1486.98 68.12 1487.53 68.104C1488.09 68.088 1488.62 68.08 1489.11 68.08C1492.38 68.08 1494.01 69.024 1494.01 70.912C1494.01 71.536 1493.81 72.072 1493.41 72.52C1493.02 72.968 1492.55 73.232 1491.99 73.312V73.36C1493.53 73.728 1494.3 74.56 1494.3 75.856C1494.3 78.032 1492.58 79.12 1489.16 79.12C1488.68 79.12 1487.92 79.096 1486.88 79.048C1485.84 79.016 1485.17 79 1484.86 79ZM1489.35 74.416H1487.62V76.816C1488.71 76.88 1489.32 76.912 1489.45 76.912C1490.06 76.912 1490.53 76.8 1490.86 76.576C1491.22 76.352 1491.39 76.048 1491.39 75.664C1491.39 74.832 1490.71 74.416 1489.35 74.416ZM1489.35 70.312C1488.58 70.312 1488.01 70.328 1487.62 70.36V72.736H1489.42C1489.9 72.736 1490.3 72.632 1490.6 72.424C1490.92 72.2 1491.08 71.888 1491.08 71.488C1491.08 70.704 1490.5 70.312 1489.35 70.312ZM1502.19 68.2H1505.72V79H1502.96V75.76H1501.42L1499.19 79H1496.02L1498.9 75.16C1498.36 74.968 1497.87 74.608 1497.44 74.08C1497.02 73.536 1496.82 72.856 1496.82 72.04C1496.82 70.904 1497.25 69.984 1498.11 69.28C1498.99 68.56 1500.35 68.2 1502.19 68.2ZM1499.77 72.232C1499.77 72.664 1499.94 73.024 1500.3 73.312C1500.66 73.584 1501.07 73.72 1501.52 73.72H1502.96V70.6H1501.74C1501.11 70.6 1500.62 70.76 1500.27 71.08C1499.94 71.4 1499.77 71.784 1499.77 72.232ZM1512.61 79.264C1511.67 79.264 1510.75 79.096 1509.85 78.76C1508.95 78.408 1508.31 77.976 1507.91 77.464L1509.32 75.736C1509.64 76.104 1510.1 76.416 1510.69 76.672C1511.3 76.928 1511.86 77.056 1512.37 77.056C1513.07 77.056 1513.62 76.936 1514 76.696C1514.39 76.456 1514.58 76.136 1514.58 75.736C1514.58 75.368 1514.43 75.072 1514.15 74.848C1513.86 74.624 1513.46 74.512 1512.95 74.512H1510.93V72.664H1512.83C1513.26 72.664 1513.6 72.536 1513.86 72.28C1514.13 72.024 1514.27 71.712 1514.27 71.344C1514.27 70.56 1513.63 70.168 1512.37 70.168C1511.38 70.168 1510.39 70.584 1509.42 71.416L1508.27 69.76C1509.31 68.544 1510.85 67.936 1512.9 67.936C1514.31 67.936 1515.38 68.208 1516.11 68.752C1516.85 69.296 1517.22 70.048 1517.22 71.008C1517.22 71.536 1517.04 72.016 1516.69 72.448C1516.34 72.88 1515.85 73.2 1515.23 73.408V73.456C1515.96 73.6 1516.52 73.904 1516.91 74.368C1517.31 74.816 1517.51 75.36 1517.51 76C1517.51 77.008 1517.06 77.808 1516.16 78.4C1515.27 78.976 1514.08 79.264 1512.61 79.264ZM1520.11 79V68.2H1522.87V71.152H1524.36C1526.06 71.152 1527.27 71.504 1528.01 72.208C1528.75 72.912 1529.11 73.808 1529.11 74.896C1529.11 76.064 1528.71 77.04 1527.91 77.824C1527.11 78.608 1525.86 79 1524.15 79H1520.11ZM1524.12 73.36H1522.87V76.6H1524.1C1525.49 76.6 1526.19 76.064 1526.19 74.992C1526.19 73.904 1525.5 73.36 1524.12 73.36ZM1531.53 83.944L1529.78 82.432C1530.95 81.344 1531.88 80.032 1532.57 78.496C1533.27 76.944 1533.62 75.312 1533.62 73.6C1533.62 71.84 1533.31 70.256 1532.69 68.848C1532.08 67.424 1531.12 66.064 1529.81 64.768L1531.51 63.256C1534.76 66.184 1536.38 69.632 1536.38 73.6C1536.38 77.712 1534.77 81.16 1531.53 83.944Z" fill="white"/>
<rect x="1187.5" y="1.5" width="379" height="107" rx="6.5" stroke="#005DED" stroke-width="3"/>
<path d="M451.001 199.32L450.421 197.64C451.395 197.067 452.455 196.78 453.601 196.78C454.881 196.78 455.801 197.093 456.361 197.72C456.921 198.347 457.201 199.28 457.201 200.52V206H455.201V204.96C454.655 205.733 453.768 206.12 452.541 206.12C451.701 206.12 451.021 205.873 450.501 205.38C449.981 204.887 449.721 204.213 449.721 203.36C449.721 202.413 450.028 201.693 450.641 201.2C451.255 200.693 452.041 200.44 453.001 200.44C453.828 200.44 454.508 200.633 455.041 201.02C455.068 200.233 454.955 199.653 454.701 199.28C454.448 198.893 454.001 198.7 453.361 198.7C452.695 198.7 451.908 198.907 451.001 199.32ZM453.301 204.18C454.075 204.18 454.655 203.907 455.041 203.36V202.44C454.655 202.147 454.128 202 453.461 202C453.048 202 452.701 202.1 452.421 202.3C452.155 202.487 452.021 202.76 452.021 203.12C452.021 203.453 452.141 203.713 452.381 203.9C452.621 204.087 452.928 204.18 453.301 204.18ZM459.559 210V197H461.859V197.86C462.153 197.553 462.546 197.3 463.039 197.1C463.546 196.887 464.079 196.78 464.639 196.78C465.866 196.78 466.853 197.207 467.599 198.06C468.346 198.913 468.719 200.013 468.719 201.36C468.719 202.76 468.279 203.92 467.399 204.84C466.519 205.76 465.373 206.22 463.959 206.22C463.066 206.22 462.366 206.073 461.859 205.78V210H459.559ZM463.919 198.94C463.133 198.94 462.446 199.267 461.859 199.92V203.56C462.393 203.907 463.026 204.08 463.759 204.08C464.533 204.08 465.146 203.833 465.599 203.34C466.053 202.833 466.279 202.193 466.279 201.42C466.279 200.687 466.073 200.093 465.659 199.64C465.246 199.173 464.666 198.94 463.919 198.94ZM471.052 206V197H473.352V206H471.052ZM470.812 193.76C470.812 193.36 470.952 193.04 471.232 192.8C471.512 192.547 471.852 192.42 472.252 192.42C472.598 192.42 472.905 192.547 473.172 192.8C473.438 193.04 473.572 193.36 473.572 193.76C473.572 194.2 473.438 194.553 473.172 194.82C472.905 195.073 472.598 195.2 472.252 195.2C471.838 195.2 471.492 195.073 471.212 194.82C470.945 194.553 470.812 194.2 470.812 193.76Z" fill="white"/>
<path d="M1009.33 13.32L1008.75 11.64C1009.72 11.0667 1010.78 10.78 1011.93 10.78C1013.21 10.78 1014.13 11.0933 1014.69 11.72C1015.25 12.3467 1015.53 13.28 1015.53 14.52V20H1013.53V18.96C1012.98 19.7333 1012.1 20.12 1010.87 20.12C1010.03 20.12 1009.35 19.8733 1008.83 19.38C1008.31 18.8867 1008.05 18.2133 1008.05 17.36C1008.05 16.4133 1008.36 15.6933 1008.97 15.2C1009.58 14.6933 1010.37 14.44 1011.33 14.44C1012.16 14.44 1012.84 14.6333 1013.37 15.02C1013.4 14.2333 1013.28 13.6533 1013.03 13.28C1012.78 12.8933 1012.33 12.7 1011.69 12.7C1011.02 12.7 1010.24 12.9067 1009.33 13.32ZM1011.63 18.18C1012.4 18.18 1012.98 17.9067 1013.37 17.36V16.44C1012.98 16.1467 1012.46 16 1011.79 16C1011.38 16 1011.03 16.1 1010.75 16.3C1010.48 16.4867 1010.35 16.76 1010.35 17.12C1010.35 17.4533 1010.47 17.7133 1010.71 17.9C1010.95 18.0867 1011.26 18.18 1011.63 18.18ZM1017.89 24V11H1020.19V11.86C1020.48 11.5533 1020.87 11.3 1021.37 11.1C1021.87 10.8867 1022.41 10.78 1022.97 10.78C1024.19 10.78 1025.18 11.2067 1025.93 12.06C1026.67 12.9133 1027.05 14.0133 1027.05 15.36C1027.05 16.76 1026.61 17.92 1025.73 18.84C1024.85 19.76 1023.7 20.22 1022.29 20.22C1021.39 20.22 1020.69 20.0733 1020.19 19.78V24H1017.89ZM1022.25 12.94C1021.46 12.94 1020.77 13.2667 1020.19 13.92V17.56C1020.72 17.9067 1021.35 18.08 1022.09 18.08C1022.86 18.08 1023.47 17.8333 1023.93 17.34C1024.38 16.8333 1024.61 16.1933 1024.61 15.42C1024.61 14.6867 1024.4 14.0933 1023.99 13.64C1023.57 13.1733 1022.99 12.94 1022.25 12.94ZM1029.38 20V11H1031.68V20H1029.38ZM1029.14 7.76C1029.14 7.36 1029.28 7.04 1029.56 6.8C1029.84 6.54667 1030.18 6.42 1030.58 6.42C1030.93 6.42 1031.23 6.54667 1031.5 6.8C1031.77 7.04 1031.9 7.36 1031.9 7.76C1031.9 8.2 1031.77 8.55333 1031.5 8.82C1031.23 9.07333 1030.93 9.2 1030.58 9.2C1030.17 9.2 1029.82 9.07333 1029.54 8.82C1029.27 8.55333 1029.14 8.2 1029.14 7.76ZM1032.71 23.5L1039.31 5.78L1041.09 6.44L1034.49 24.16L1032.71 23.5ZM1048.83 17.48L1049.49 19.1C1048.61 19.8467 1047.47 20.22 1046.05 20.22C1044.6 20.22 1043.43 19.7867 1042.53 18.92C1041.65 18.0533 1041.21 16.9133 1041.21 15.5C1041.21 14.1533 1041.65 13.0333 1042.51 12.14C1043.38 11.2333 1044.53 10.78 1045.97 10.78C1047.16 10.78 1048.17 11.1733 1048.99 11.96C1049.82 12.7333 1050.23 13.7333 1050.23 14.96C1050.23 15.4667 1050.19 15.88 1050.09 16.2H1043.59C1043.69 16.8667 1043.98 17.3867 1044.47 17.76C1044.97 18.12 1045.57 18.3 1046.29 18.3C1047.31 18.3 1048.15 18.0267 1048.83 17.48ZM1045.87 12.7C1044.57 12.7 1043.78 13.3533 1043.51 14.66H1047.93C1047.95 14.1 1047.77 13.6333 1047.39 13.26C1047.02 12.8867 1046.51 12.7 1045.87 12.7ZM1065.75 14.12V20H1063.45V14.72C1063.45 13.5733 1062.93 13 1061.91 13C1061.03 13 1060.41 13.3467 1060.05 14.04C1060.05 14.08 1060.05 14.1867 1060.05 14.36C1060.06 14.52 1060.07 14.6333 1060.07 14.7V20H1057.77V14.56C1057.77 14.08 1057.63 13.7 1057.37 13.42C1057.11 13.14 1056.75 13 1056.27 13C1055.44 13 1054.81 13.32 1054.39 13.96V20H1052.09V11H1054.39V12C1055.08 11.2267 1056.02 10.84 1057.21 10.84C1057.87 10.84 1058.43 10.9733 1058.89 11.24C1059.34 11.5067 1059.65 11.8533 1059.83 12.28C1060.56 11.32 1061.57 10.84 1062.87 10.84C1064.79 10.84 1065.75 11.9333 1065.75 14.12ZM1068.78 13.32L1068.2 11.64C1069.18 11.0667 1070.24 10.78 1071.38 10.78C1072.66 10.78 1073.58 11.0933 1074.14 11.72C1074.7 12.3467 1074.98 13.28 1074.98 14.52V20H1072.98V18.96C1072.44 19.7333 1071.55 20.12 1070.32 20.12C1069.48 20.12 1068.8 19.8733 1068.28 19.38C1067.76 18.8867 1067.5 18.2133 1067.5 17.36C1067.5 16.4133 1067.81 15.6933 1068.42 15.2C1069.04 14.6933 1069.82 14.44 1070.78 14.44C1071.61 14.44 1072.29 14.6333 1072.82 15.02C1072.85 14.2333 1072.74 13.6533 1072.48 13.28C1072.23 12.8933 1071.78 12.7 1071.14 12.7C1070.48 12.7 1069.69 12.9067 1068.78 13.32ZM1071.08 18.18C1071.86 18.18 1072.44 17.9067 1072.82 17.36V16.44C1072.44 16.1467 1071.91 16 1071.24 16C1070.83 16 1070.48 16.1 1070.2 16.3C1069.94 16.4867 1069.8 16.76 1069.8 17.12C1069.8 17.4533 1069.92 17.7133 1070.16 17.9C1070.4 18.0867 1070.71 18.18 1071.08 18.18ZM1077.68 20V11H1079.98V20H1077.68ZM1077.44 7.76C1077.44 7.36 1077.58 7.04 1077.86 6.8C1078.14 6.54667 1078.48 6.42 1078.88 6.42C1079.23 6.42 1079.53 6.54667 1079.8 6.8C1080.07 7.04 1080.2 7.36 1080.2 7.76C1080.2 8.2 1080.07 8.55333 1079.8 8.82C1079.53 9.07333 1079.23 9.2 1078.88 9.2C1078.47 9.2 1078.12 9.07333 1077.84 8.82C1077.57 8.55333 1077.44 8.2 1077.44 7.76ZM1082.89 17.52V6H1085.19V16.58C1085.19 17.5533 1085.45 18.04 1085.97 18.04C1086.26 18.04 1086.57 17.92 1086.91 17.68L1087.39 19.44C1086.76 19.9467 1085.97 20.2 1085.01 20.2C1083.59 20.2 1082.89 19.3067 1082.89 17.52ZM1086.98 23.5L1093.58 5.78L1095.36 6.44L1088.76 24.16L1086.98 23.5ZM1095.21 8.64L1098.79 5.96H1100.45V20H1098.15V9.24L1096.43 10.54L1095.21 8.64ZM1114.2 16.8L1115.14 18.64C1114.7 19.1067 1114.07 19.4867 1113.24 19.78C1112.43 20.0733 1111.57 20.22 1110.66 20.22C1108.52 20.22 1106.78 19.56 1105.44 18.24C1104.11 16.92 1103.44 15.1733 1103.44 13C1103.44 10.9067 1104.08 9.18 1105.34 7.82C1106.61 6.46 1108.36 5.78 1110.6 5.78C1112.4 5.78 1113.82 6.25333 1114.86 7.2L1113.76 9.02C1112.82 8.39333 1111.76 8.08 1110.6 8.08C1109.28 8.08 1108.19 8.52667 1107.32 9.42C1106.47 10.3133 1106.04 11.5067 1106.04 13C1106.04 14.4533 1106.49 15.64 1107.38 16.56C1108.29 17.4667 1109.46 17.92 1110.88 17.92C1112.12 17.92 1113.23 17.5467 1114.2 16.8Z" fill="white"/>
<path d="M451.001 13.32L450.421 11.64C451.395 11.0667 452.455 10.78 453.601 10.78C454.881 10.78 455.801 11.0933 456.361 11.72C456.921 12.3467 457.201 13.28 457.201 14.52V20H455.201V18.96C454.655 19.7333 453.768 20.12 452.541 20.12C451.701 20.12 451.021 19.8733 450.501 19.38C449.981 18.8867 449.721 18.2133 449.721 17.36C449.721 16.4133 450.028 15.6933 450.641 15.2C451.255 14.6933 452.041 14.44 453.001 14.44C453.828 14.44 454.508 14.6333 455.041 15.02C455.068 14.2333 454.955 13.6533 454.701 13.28C454.448 12.8933 454.001 12.7 453.361 12.7C452.695 12.7 451.908 12.9067 451.001 13.32ZM453.301 18.18C454.075 18.18 454.655 17.9067 455.041 17.36V16.44C454.655 16.1467 454.128 16 453.461 16C453.048 16 452.701 16.1 452.421 16.3C452.155 16.4867 452.021 16.76 452.021 17.12C452.021 17.4533 452.141 17.7133 452.381 17.9C452.621 18.0867 452.928 18.18 453.301 18.18ZM459.559 24V11H461.859V11.86C462.153 11.5533 462.546 11.3 463.039 11.1C463.546 10.8867 464.079 10.78 464.639 10.78C465.866 10.78 466.853 11.2067 467.599 12.06C468.346 12.9133 468.719 14.0133 468.719 15.36C468.719 16.76 468.279 17.92 467.399 18.84C466.519 19.76 465.373 20.22 463.959 20.22C463.066 20.22 462.366 20.0733 461.859 19.78V24H459.559ZM463.919 12.94C463.133 12.94 462.446 13.2667 461.859 13.92V17.56C462.393 17.9067 463.026 18.08 463.759 18.08C464.533 18.08 465.146 17.8333 465.599 17.34C466.053 16.8333 466.279 16.1933 466.279 15.42C466.279 14.6867 466.073 14.0933 465.659 13.64C465.246 13.1733 464.666 12.94 463.919 12.94ZM471.052 20V11H473.352V20H471.052ZM470.812 7.76C470.812 7.36 470.952 7.04 471.232 6.8C471.512 6.54667 471.852 6.42 472.252 6.42C472.598 6.42 472.905 6.54667 473.172 6.8C473.438 7.04 473.572 7.36 473.572 7.76C473.572 8.2 473.438 8.55333 473.172 8.82C472.905 9.07333 472.598 9.2 472.252 9.2C471.838 9.2 471.492 9.07333 471.212 8.82C470.945 8.55333 470.812 8.2 470.812 7.76Z" fill="white"/>
<path d="M583 222L573 216.226V227.774L583 222ZM383 223H574V221H383V223Z" fill="#C5CDCF"/>
<path d="M1176 222L1166 216.226V227.774L1176 222ZM976 223H1167V221H976V223Z" fill="#C5CDCF"/>
<path d="M541 201L546.773 191H535.227L541 201ZM383 37H521V35H383V37ZM540 56V192H542V56H540ZM521 37C531.493 37 540 45.5066 540 56H542C542 44.402 532.598 35 521 35V37Z" fill="#C5CDCF"/>
<path d="M1172 44L1162 38.2265V49.7735L1172 44ZM935 176V64H933V176H935ZM954 45H1163V43H954V45ZM935 64C935 53.5066 943.507 45 954 45V43C942.402 43 933 52.402 933 64H935Z" fill="#C5CDCF"/>
</svg>
