<svg width="778" height="575" viewBox="0 0 778 575" fill="none" xmlns="http://www.w3.org/2000/svg">
<path d="M391 130L396.774 120H385.226L391 130ZM390 90V121H392V90H390Z" fill="#C5CDCF"/>
<path d="M177.732 159.236V155.096H188.964C188.532 153.008 187.512 151.4 185.904 150.272C184.296 149.12 182.292 148.544 179.892 148.544C177.684 148.544 175.716 149.192 173.988 150.488L172.26 147.176C174.42 145.328 177.312 144.404 180.936 144.404C184.68 144.404 187.728 145.592 190.08 147.968C192.432 150.344 193.608 153.476 193.608 157.364C193.608 161.324 192.42 164.492 190.044 166.868C187.668 169.22 184.464 170.396 180.432 170.396C178.728 170.396 177.12 170.156 175.608 169.676C174.096 169.172 172.884 168.536 171.972 167.768L173.88 164.06C175.776 165.524 177.936 166.256 180.36 166.256C182.616 166.256 184.536 165.656 186.12 164.456C187.728 163.232 188.712 161.492 189.072 159.236H177.732ZM212.863 153.8L206.635 161.504L213.619 170H208.219L201.811 161.828L207.643 153.8H212.863ZM197.527 170V153.8H201.667V170H197.527ZM216.474 168.02C214.866 166.412 214.062 164.372 214.062 161.9C214.062 159.428 214.866 157.4 216.474 155.816C218.106 154.208 220.242 153.404 222.882 153.404C225.522 153.404 227.646 154.208 229.254 155.816C230.886 157.4 231.702 159.428 231.702 161.9C231.702 164.372 230.886 166.412 229.254 168.02C227.646 169.604 225.522 170.396 222.882 170.396C220.242 170.396 218.106 169.604 216.474 168.02ZM218.49 161.9C218.49 163.244 218.898 164.36 219.714 165.248C220.554 166.112 221.61 166.544 222.882 166.544C224.178 166.544 225.234 166.124 226.05 165.284C226.89 164.42 227.31 163.292 227.31 161.9C227.31 160.556 226.89 159.452 226.05 158.588C225.21 157.724 224.154 157.292 222.882 157.292C221.634 157.292 220.59 157.724 219.75 158.588C218.91 159.428 218.49 160.532 218.49 161.9ZM247.56 164.564L249.504 167.588C248.832 168.5 247.92 169.196 246.768 169.676C245.64 170.156 244.404 170.396 243.06 170.396C240.42 170.396 238.296 169.616 236.688 168.056C235.08 166.496 234.276 164.444 234.276 161.9C234.276 159.5 235.068 157.484 236.652 155.852C238.236 154.22 240.24 153.404 242.664 153.404C245.544 153.404 247.716 154.136 249.18 155.6L247.236 158.876C246.156 157.82 244.812 157.292 243.204 157.292C242.004 157.292 240.948 157.724 240.036 158.588C239.148 159.428 238.704 160.532 238.704 161.9C238.704 163.292 239.16 164.42 240.072 165.284C241.008 166.124 242.112 166.544 243.384 166.544C244.968 166.544 246.36 165.884 247.56 164.564ZM256.967 170H252.827V153.8H256.967V164.06L264.527 153.8H268.667V170H264.527V159.74L256.967 170ZM285.564 164.564L287.508 167.588C286.836 168.5 285.924 169.196 284.772 169.676C283.644 170.156 282.408 170.396 281.064 170.396C278.424 170.396 276.3 169.616 274.692 168.056C273.084 166.496 272.28 164.444 272.28 161.9C272.28 159.5 273.072 157.484 274.656 155.852C276.24 154.22 278.244 153.404 280.668 153.404C283.548 153.404 285.72 154.136 287.184 155.6L285.24 158.876C284.16 157.82 282.816 157.292 281.208 157.292C280.008 157.292 278.952 157.724 278.04 158.588C277.152 159.428 276.708 160.532 276.708 161.9C276.708 163.292 277.164 164.42 278.076 165.284C279.012 166.124 280.116 166.544 281.388 166.544C282.972 166.544 284.364 165.884 285.564 164.564ZM288.823 157.94V153.8H303.583V157.94H298.291V170H294.151V157.94H288.823ZM318.762 165.464L319.95 168.38C318.366 169.724 316.302 170.396 313.758 170.396C311.142 170.396 309.03 169.616 307.422 168.056C305.838 166.496 305.046 164.444 305.046 161.9C305.046 159.476 305.826 157.46 307.386 155.852C308.946 154.22 311.022 153.404 313.614 153.404C315.75 153.404 317.562 154.112 319.05 155.528C320.538 156.92 321.282 158.72 321.282 160.928C321.282 161.84 321.198 162.584 321.03 163.16H309.33C309.498 164.36 310.026 165.296 310.914 165.968C311.802 166.616 312.894 166.94 314.19 166.94C316.014 166.94 317.538 166.448 318.762 165.464ZM313.434 156.86C311.082 156.86 309.666 158.036 309.186 160.388H317.142C317.166 159.38 316.842 158.54 316.17 157.868C315.498 157.196 314.586 156.86 313.434 156.86ZM324.617 170V153.8H328.361L333.869 160.568L339.089 153.8H342.725V170H338.585V160.1L333.797 166.148H333.689L328.757 160.1V170H324.617ZM348.587 157.976L347.543 154.952C349.295 153.92 351.203 153.404 353.267 153.404C355.571 153.404 357.227 153.968 358.235 155.096C359.243 156.224 359.747 157.904 359.747 160.136V170H356.147V168.128C355.163 169.52 353.567 170.216 351.359 170.216C349.847 170.216 348.623 169.772 347.687 168.884C346.751 167.996 346.283 166.784 346.283 165.248C346.283 163.544 346.835 162.248 347.939 161.36C349.043 160.448 350.459 159.992 352.187 159.992C353.675 159.992 354.899 160.34 355.859 161.036C355.907 159.62 355.703 158.576 355.247 157.904C354.791 157.208 353.987 156.86 352.835 156.86C351.635 156.86 350.219 157.232 348.587 157.976ZM352.727 166.724C354.119 166.724 355.163 166.232 355.859 165.248V163.592C355.163 163.064 354.215 162.8 353.015 162.8C352.271 162.8 351.647 162.98 351.143 163.34C350.663 163.676 350.423 164.168 350.423 164.816C350.423 165.416 350.639 165.884 351.071 166.22C351.503 166.556 352.055 166.724 352.727 166.724ZM383.896 164.564L385.84 167.588C385.168 168.5 384.256 169.196 383.104 169.676C381.976 170.156 380.74 170.396 379.396 170.396C376.756 170.396 374.632 169.616 373.024 168.056C371.416 166.496 370.612 164.444 370.612 161.9C370.612 159.5 371.404 157.484 372.988 155.852C374.572 154.22 376.576 153.404 379 153.404C381.88 153.404 384.052 154.136 385.516 155.6L383.572 158.876C382.492 157.82 381.148 157.292 379.54 157.292C378.34 157.292 377.284 157.724 376.372 158.588C375.484 159.428 375.04 160.532 375.04 161.9C375.04 163.292 375.496 164.42 376.408 165.284C377.344 166.124 378.448 166.544 379.72 166.544C381.304 166.544 382.696 165.884 383.896 164.564ZM390.423 157.976L389.379 154.952C391.131 153.92 393.039 153.404 395.103 153.404C397.407 153.404 399.063 153.968 400.071 155.096C401.079 156.224 401.583 157.904 401.583 160.136V170H397.983V168.128C396.999 169.52 395.403 170.216 393.195 170.216C391.683 170.216 390.459 169.772 389.523 168.884C388.587 167.996 388.119 166.784 388.119 165.248C388.119 163.544 388.671 162.248 389.775 161.36C390.879 160.448 392.295 159.992 394.023 159.992C395.511 159.992 396.735 160.34 397.695 161.036C397.743 159.62 397.539 158.576 397.083 157.904C396.627 157.208 395.823 156.86 394.671 156.86C393.471 156.86 392.055 157.232 390.423 157.976ZM394.563 166.724C395.955 166.724 396.999 166.232 397.695 165.248V163.592C396.999 163.064 396.051 162.8 394.851 162.8C394.107 162.8 393.483 162.98 392.979 163.34C392.499 163.676 392.259 164.168 392.259 164.816C392.259 165.416 392.475 165.884 392.907 166.22C393.339 166.556 393.891 166.724 394.563 166.724ZM409.967 170H405.827V153.8H409.967V164.06L417.527 153.8H421.667V170H417.527V159.74L409.967 170ZM408.239 145.7H412.019C412.019 146.444 412.163 147.068 412.451 147.572C412.763 148.076 413.243 148.328 413.891 148.328C414.467 148.328 414.899 148.076 415.187 147.572C415.475 147.068 415.619 146.444 415.619 145.7H419.399C419.399 147.332 418.919 148.676 417.959 149.732C416.999 150.764 415.643 151.28 413.891 151.28C411.971 151.28 410.543 150.776 409.607 149.768C408.695 148.736 408.239 147.38 408.239 145.7ZM424.596 157.94V153.8H439.356V157.94H434.064V170H429.924V157.94H424.596ZM443.231 168.02C441.623 166.412 440.819 164.372 440.819 161.9C440.819 159.428 441.623 157.4 443.231 155.816C444.863 154.208 446.999 153.404 449.639 153.404C452.279 153.404 454.403 154.208 456.011 155.816C457.643 157.4 458.459 159.428 458.459 161.9C458.459 164.372 457.643 166.412 456.011 168.02C454.403 169.604 452.279 170.396 449.639 170.396C446.999 170.396 444.863 169.604 443.231 168.02ZM445.247 161.9C445.247 163.244 445.655 164.36 446.471 165.248C447.311 166.112 448.367 166.544 449.639 166.544C450.935 166.544 451.991 166.124 452.807 165.284C453.647 164.42 454.067 163.292 454.067 161.9C454.067 160.556 453.647 159.452 452.807 158.588C451.967 157.724 450.911 157.292 449.639 157.292C448.391 157.292 447.347 157.724 446.507 158.588C445.667 159.428 445.247 160.532 445.247 161.9ZM462.042 170V153.8C462.33 153.8 462.858 153.788 463.626 153.764C464.418 153.716 465.222 153.68 466.038 153.656C466.878 153.632 467.67 153.62 468.414 153.62C473.31 153.62 475.758 155.036 475.758 157.868C475.758 158.804 475.458 159.608 474.858 160.28C474.282 160.952 473.574 161.348 472.734 161.468V161.54C475.038 162.092 476.19 163.34 476.19 165.284C476.19 168.548 473.622 170.18 468.486 170.18C467.766 170.18 466.626 170.144 465.066 170.072C463.506 170.024 462.498 170 462.042 170ZM468.774 163.124H466.182V166.724C467.814 166.82 468.726 166.868 468.918 166.868C469.83 166.868 470.538 166.7 471.042 166.364C471.57 166.028 471.834 165.572 471.834 164.996C471.834 163.748 470.814 163.124 468.774 163.124ZM468.774 156.968C467.622 156.968 466.758 156.992 466.182 157.04V160.604H468.882C469.602 160.604 470.19 160.448 470.646 160.136C471.126 159.8 471.366 159.332 471.366 158.732C471.366 157.556 470.502 156.968 468.774 156.968ZM485.798 173.78V166.148H487.85C489.122 164.468 489.878 161.648 490.118 157.688L490.37 153.8H502.322V166.148H505.022V173.78H501.134V170H489.65V173.78H485.798ZM494.114 159.344C493.826 162.488 493.178 164.756 492.17 166.148H498.182V157.688H494.222L494.114 159.344ZM511.885 170H507.745V153.8H511.885V164.06L519.445 153.8H523.585V170H519.445V159.74L511.885 170ZM538.862 170V157.94H534.578L534.47 159.668C534.206 162.572 533.762 164.804 533.138 166.364C532.538 167.924 531.77 168.98 530.834 169.532C529.922 170.06 528.698 170.324 527.162 170.324L526.802 166.292C527.33 166.34 527.822 166.196 528.278 165.86C528.758 165.5 529.214 164.732 529.646 163.556C530.078 162.356 530.354 160.784 530.474 158.84L530.726 153.8H543.002V170H538.862ZM560.321 165.464L561.509 168.38C559.925 169.724 557.861 170.396 555.317 170.396C552.701 170.396 550.589 169.616 548.981 168.056C547.397 166.496 546.605 164.444 546.605 161.9C546.605 159.476 547.385 157.46 548.945 155.852C550.505 154.22 552.581 153.404 555.173 153.404C557.309 153.404 559.121 154.112 560.609 155.528C562.097 156.92 562.841 158.72 562.841 160.928C562.841 161.84 562.757 162.584 562.589 163.16H550.889C551.057 164.36 551.585 165.296 552.473 165.968C553.361 166.616 554.453 166.94 555.749 166.94C557.573 166.94 559.097 166.448 560.321 165.464ZM554.993 156.86C552.641 156.86 551.225 158.036 550.745 160.388H558.701C558.725 159.38 558.401 158.54 557.729 157.868C557.057 157.196 556.145 156.86 554.993 156.86ZM566.175 177.2V153.8H570.315V155.348C570.843 154.796 571.551 154.34 572.439 153.98C573.351 153.596 574.311 153.404 575.319 153.404C577.527 153.404 579.303 154.172 580.647 155.708C581.991 157.244 582.663 159.224 582.663 161.648C582.663 164.168 581.871 166.256 580.287 167.912C578.703 169.568 576.639 170.396 574.095 170.396C572.487 170.396 571.227 170.132 570.315 169.604V177.2H566.175ZM574.023 157.292C572.607 157.292 571.371 157.88 570.315 159.056V165.608C571.275 166.232 572.415 166.544 573.735 166.544C575.127 166.544 576.231 166.1 577.047 165.212C577.863 164.3 578.271 163.148 578.271 161.756C578.271 160.436 577.899 159.368 577.155 158.552C576.411 157.712 575.367 157.292 574.023 157.292ZM587.653 168.02C586.045 166.412 585.241 164.372 585.241 161.9C585.241 159.428 586.045 157.4 587.653 155.816C589.285 154.208 591.421 153.404 594.061 153.404C596.701 153.404 598.825 154.208 600.433 155.816C602.065 157.4 602.881 159.428 602.881 161.9C602.881 164.372 602.065 166.412 600.433 168.02C598.825 169.604 596.701 170.396 594.061 170.396C591.421 170.396 589.285 169.604 587.653 168.02ZM589.669 161.9C589.669 163.244 590.077 164.36 590.893 165.248C591.733 166.112 592.789 166.544 594.061 166.544C595.357 166.544 596.413 166.124 597.229 165.284C598.069 164.42 598.489 163.292 598.489 161.9C598.489 160.556 598.069 159.452 597.229 158.588C596.389 157.724 595.333 157.292 594.061 157.292C592.813 157.292 591.769 157.724 590.929 158.588C590.089 159.428 589.669 160.532 589.669 161.9ZM606.464 170V153.8C606.752 153.8 607.28 153.788 608.048 153.764C608.84 153.716 609.644 153.68 610.46 153.656C611.3 153.632 612.092 153.62 612.836 153.62C617.732 153.62 620.18 155.036 620.18 157.868C620.18 158.804 619.88 159.608 619.28 160.28C618.704 160.952 617.996 161.348 617.156 161.468V161.54C619.46 162.092 620.612 163.34 620.612 165.284C620.612 168.548 618.044 170.18 612.908 170.18C612.188 170.18 611.048 170.144 609.488 170.072C607.928 170.024 606.92 170 606.464 170ZM613.196 163.124H610.604V166.724C612.236 166.82 613.148 166.868 613.34 166.868C614.252 166.868 614.96 166.7 615.464 166.364C615.992 166.028 616.256 165.572 616.256 164.996C616.256 163.748 615.236 163.124 613.196 163.124ZM613.196 156.968C612.044 156.968 611.18 156.992 610.604 157.04V160.604H613.304C614.024 160.604 614.612 160.448 615.068 160.136C615.548 159.8 615.788 159.332 615.788 158.732C615.788 157.556 614.924 156.968 613.196 156.968Z" fill="#274BB8"/>
<path d="M218.625 54.5V45.86H221.325C222.069 44.948 222.849 43.088 223.665 40.28C224.505 37.448 225.021 33.968 225.213 29.84L225.465 24.8H241.089V45.86H244.509V54.5H240.369V50H222.765V54.5H218.625ZM229.353 33.332C229.137 36.284 228.693 38.936 228.021 41.288C227.349 43.64 226.737 45.164 226.185 45.86H236.697V28.94H229.749L229.353 33.332ZM248.515 48.02C246.907 46.412 246.103 44.372 246.103 41.9C246.103 39.428 246.907 37.4 248.515 35.816C250.147 34.208 252.283 33.404 254.923 33.404C257.563 33.404 259.687 34.208 261.295 35.816C262.927 37.4 263.743 39.428 263.743 41.9C263.743 44.372 262.927 46.412 261.295 48.02C259.687 49.604 257.563 50.396 254.923 50.396C252.283 50.396 250.147 49.604 248.515 48.02ZM250.531 41.9C250.531 43.244 250.939 44.36 251.755 45.248C252.595 46.112 253.651 46.544 254.923 46.544C256.219 46.544 257.275 46.124 258.091 45.284C258.931 44.42 259.351 43.292 259.351 41.9C259.351 40.556 258.931 39.452 258.091 38.588C257.251 37.724 256.195 37.292 254.923 37.292C253.675 37.292 252.631 37.724 251.791 38.588C250.951 39.428 250.531 40.532 250.531 41.9ZM278.557 50V43.808H271.465V50H267.325V33.8H271.465V39.92H278.557V33.8H282.697V50H278.557ZM288.698 48.02C287.09 46.412 286.286 44.372 286.286 41.9C286.286 39.428 287.09 37.4 288.698 35.816C290.33 34.208 292.466 33.404 295.106 33.404C297.746 33.404 299.87 34.208 301.478 35.816C303.11 37.4 303.926 39.428 303.926 41.9C303.926 44.372 303.11 46.412 301.478 48.02C299.87 49.604 297.746 50.396 295.106 50.396C292.466 50.396 290.33 49.604 288.698 48.02ZM290.714 41.9C290.714 43.244 291.122 44.36 291.938 45.248C292.778 46.112 293.834 46.544 295.106 46.544C296.402 46.544 297.458 46.124 298.274 45.284C299.114 44.42 299.534 43.292 299.534 41.9C299.534 40.556 299.114 39.452 298.274 38.588C297.434 37.724 296.378 37.292 295.106 37.292C293.858 37.292 292.814 37.724 291.974 38.588C291.134 39.428 290.714 40.532 290.714 41.9ZM307.509 57.2V33.8H311.649V35.348C312.177 34.796 312.885 34.34 313.773 33.98C314.685 33.596 315.645 33.404 316.653 33.404C318.861 33.404 320.637 34.172 321.981 35.708C323.325 37.244 323.997 39.224 323.997 41.648C323.997 44.168 323.205 46.256 321.621 47.912C320.037 49.568 317.973 50.396 315.429 50.396C313.821 50.396 312.561 50.132 311.649 49.604V57.2H307.509ZM315.357 37.292C313.941 37.292 312.705 37.88 311.649 39.056V45.608C312.609 46.232 313.749 46.544 315.069 46.544C316.461 46.544 317.565 46.1 318.381 45.212C319.197 44.3 319.605 43.148 319.605 41.756C319.605 40.436 319.233 39.368 318.489 38.552C317.745 37.712 316.701 37.292 315.357 37.292ZM350.296 33.8L343.312 50.072H340.252L332.8 33.8H337.732L340.72 40.748C341.248 41.924 341.656 43.148 341.944 44.42C342.256 43.076 342.652 41.828 343.132 40.676L345.94 33.8H350.296ZM353.315 48.02C351.707 46.412 350.903 44.372 350.903 41.9C350.903 39.428 351.707 37.4 353.315 35.816C354.947 34.208 357.083 33.404 359.723 33.404C362.363 33.404 364.487 34.208 366.095 35.816C367.727 37.4 368.543 39.428 368.543 41.9C368.543 44.372 367.727 46.412 366.095 48.02C364.487 49.604 362.363 50.396 359.723 50.396C357.083 50.396 354.947 49.604 353.315 48.02ZM355.331 41.9C355.331 43.244 355.739 44.36 356.555 45.248C357.395 46.112 358.451 46.544 359.723 46.544C361.019 46.544 362.075 46.124 362.891 45.284C363.731 44.42 364.151 43.292 364.151 41.9C364.151 40.556 363.731 39.452 362.891 38.588C362.051 37.724 360.995 37.292 359.723 37.292C358.475 37.292 357.431 37.724 356.591 38.588C355.751 39.428 355.331 40.532 355.331 41.9ZM372.126 45.536V24.8H376.266V43.844C376.266 45.596 376.734 46.472 377.67 46.472C378.198 46.472 378.762 46.256 379.362 45.824L380.226 48.992C379.098 49.904 377.67 50.36 375.942 50.36C373.398 50.36 372.126 48.752 372.126 45.536ZM398.112 33.8L392.028 41.216L398.832 50H393.504L387.096 41.54L392.892 33.8H398.112ZM382.884 50V24.8H387.024V50H382.884ZM408.972 46.544C409.38 46.28 409.584 45.908 409.584 45.428C409.584 44.948 409.284 44.564 408.684 44.276C408.084 43.964 407.352 43.7 406.488 43.484C405.648 43.244 404.796 42.968 403.932 42.656C403.068 42.32 402.336 41.792 401.736 41.072C401.136 40.352 400.836 39.44 400.836 38.336C400.836 36.8 401.388 35.6 402.492 34.736C403.62 33.848 405.048 33.404 406.776 33.404C409.416 33.404 411.468 34.088 412.932 35.456L411.384 38.408C410.064 37.376 408.6 36.86 406.992 36.86C406.392 36.86 405.9 37.004 405.516 37.292C405.156 37.556 404.976 37.88 404.976 38.264C404.976 38.744 405.276 39.14 405.876 39.452C406.476 39.764 407.196 40.028 408.036 40.244C408.9 40.46 409.764 40.724 410.628 41.036C411.492 41.348 412.224 41.864 412.824 42.584C413.424 43.28 413.724 44.156 413.724 45.212C413.724 46.796 413.124 48.056 411.924 48.992C410.748 49.928 409.164 50.396 407.172 50.396C405.78 50.396 404.4 50.096 403.032 49.496C401.688 48.896 400.812 48.272 400.404 47.624L402.42 44.924C402.9 45.452 403.656 45.92 404.688 46.328C405.72 46.736 406.644 46.94 407.46 46.94C408.084 46.94 408.588 46.808 408.972 46.544ZM440.844 33.8L435.732 50.072H432.024L428.568 41.072C428.472 40.832 428.364 40.472 428.244 39.992C428.124 39.512 428.052 39.236 428.028 39.164C427.884 39.86 427.692 40.52 427.452 41.144L424.032 50.072H420.504L415.248 33.8H419.676L422.268 42.62C422.364 42.908 422.52 43.628 422.736 44.78C423.024 43.652 423.228 42.932 423.348 42.62L426.372 33.8H430.044L433.176 42.584C433.344 43.064 433.548 43.808 433.788 44.816C433.884 44.312 434.052 43.532 434.292 42.476L436.668 33.8H440.844ZM444.578 37.976L443.534 34.952C445.286 33.92 447.194 33.404 449.258 33.404C451.562 33.404 453.218 33.968 454.226 35.096C455.234 36.224 455.738 37.904 455.738 40.136V50H452.138V48.128C451.154 49.52 449.558 50.216 447.35 50.216C445.838 50.216 444.614 49.772 443.678 48.884C442.742 47.996 442.274 46.784 442.274 45.248C442.274 43.544 442.826 42.248 443.93 41.36C445.034 40.448 446.45 39.992 448.178 39.992C449.666 39.992 450.89 40.34 451.85 41.036C451.898 39.62 451.694 38.576 451.238 37.904C450.782 37.208 449.978 36.86 448.826 36.86C447.626 36.86 446.21 37.232 444.578 37.976ZM448.718 46.724C450.11 46.724 451.154 46.232 451.85 45.248V43.592C451.154 43.064 450.206 42.8 449.006 42.8C448.262 42.8 447.638 42.98 447.134 43.34C446.654 43.676 446.414 44.168 446.414 44.816C446.414 45.416 446.63 45.884 447.062 46.22C447.494 46.556 448.046 46.724 448.718 46.724ZM457.858 52.196C457.858 50.9 458.326 49.832 459.262 48.992C460.222 48.128 461.506 47.528 463.114 47.192C462.922 46.856 462.826 46.484 462.826 46.076C462.826 45.62 462.946 45.236 463.186 44.924C461.986 44.444 461.038 43.724 460.342 42.764C459.67 41.78 459.334 40.688 459.334 39.488C459.334 37.808 459.97 36.38 461.242 35.204C462.514 34.004 464.182 33.404 466.246 33.404C467.806 33.404 469.186 33.788 470.386 34.556L475.282 33.476L475.426 36.788L472.726 37.4C472.99 38.072 473.122 38.768 473.122 39.488C473.122 41.144 472.486 42.56 471.214 43.736C469.942 44.888 468.286 45.464 466.246 45.464H465.958C465.91 45.608 465.886 45.812 465.886 46.076C465.886 46.388 465.958 46.664 466.102 46.904H466.282C468.778 46.904 470.806 47.348 472.366 48.236C473.926 49.124 474.706 50.444 474.706 52.196C474.706 53.948 473.926 55.268 472.366 56.156C470.806 57.044 468.778 57.488 466.282 57.488C463.762 57.488 461.722 57.044 460.162 56.156C458.626 55.292 457.858 53.972 457.858 52.196ZM461.71 52.196C461.71 52.82 462.118 53.3 462.934 53.636C463.75 53.996 464.866 54.176 466.282 54.176C469.306 54.176 470.818 53.516 470.818 52.196C470.818 51.596 470.422 51.116 469.63 50.756C468.862 50.396 467.746 50.216 466.282 50.216C464.842 50.216 463.714 50.396 462.898 50.756C462.106 51.116 461.71 51.596 461.71 52.196ZM464.05 37.544C463.498 38.072 463.222 38.72 463.222 39.488C463.222 40.256 463.498 40.892 464.05 41.396C464.602 41.876 465.334 42.116 466.246 42.116C467.134 42.116 467.854 41.876 468.406 41.396C468.982 40.916 469.27 40.28 469.27 39.488C469.27 38.696 468.994 38.048 468.442 37.544C467.914 37.016 467.182 36.752 466.246 36.752C465.334 36.752 464.602 37.016 464.05 37.544ZM490.655 45.464L491.843 48.38C490.259 49.724 488.195 50.396 485.651 50.396C483.035 50.396 480.923 49.616 479.315 48.056C477.731 46.496 476.939 44.444 476.939 41.9C476.939 39.476 477.719 37.46 479.279 35.852C480.839 34.22 482.915 33.404 485.507 33.404C487.643 33.404 489.455 34.112 490.943 35.528C492.431 36.92 493.175 38.72 493.175 40.928C493.175 41.84 493.091 42.584 492.923 43.16H481.223C481.391 44.36 481.919 45.296 482.807 45.968C483.695 46.616 484.787 46.94 486.083 46.94C487.907 46.94 489.431 46.448 490.655 45.464ZM485.327 36.86C482.975 36.86 481.559 38.036 481.079 40.388H489.035C489.059 39.38 488.735 38.54 488.063 37.868C487.391 37.196 486.479 36.86 485.327 36.86ZM496.509 50V33.8H500.649V35.42C501.825 34.148 503.373 33.512 505.293 33.512C509.733 33.512 511.953 35.84 511.953 40.496V50H507.813V41.216C507.813 38.672 506.601 37.4 504.177 37.4C502.857 37.4 501.681 37.916 500.649 38.948V50H496.509ZM515.477 47.3C515.477 46.628 515.741 46.016 516.269 45.464C516.797 44.912 517.493 44.636 518.357 44.636C519.101 44.636 519.725 44.912 520.229 45.464C520.733 46.016 520.985 46.628 520.985 47.3C520.985 48.068 520.733 48.74 520.229 49.316C519.725 49.892 519.101 50.18 518.357 50.18C517.493 50.18 516.797 49.892 516.269 49.316C515.741 48.74 515.477 48.068 515.477 47.3ZM524.915 48.596V24.8H529.055V34.808C530.255 33.872 531.683 33.404 533.339 33.404C535.715 33.404 537.587 34.172 538.955 35.708C540.347 37.22 541.043 39.2 541.043 41.648C541.043 44.312 540.203 46.436 538.523 48.02C536.867 49.604 534.623 50.396 531.791 50.396C530.519 50.396 529.247 50.228 527.975 49.892C526.727 49.532 525.707 49.1 524.915 48.596ZM532.367 37.292C531.047 37.292 529.943 37.808 529.055 38.84V45.716C529.919 46.268 530.903 46.544 532.007 46.544C533.351 46.544 534.455 46.136 535.319 45.32C536.183 44.48 536.615 43.352 536.615 41.936C536.615 40.448 536.207 39.308 535.391 38.516C534.599 37.7 533.591 37.292 532.367 37.292ZM559.629 33.8L553.257 50C552.105 52.808 551.073 54.704 550.161 55.688C549.273 56.696 548.217 57.2 546.993 57.2C545.817 57.2 544.653 56.78 543.501 55.94L544.833 52.808C545.481 53.192 546.045 53.384 546.525 53.384C547.509 53.384 548.337 52.544 549.009 50.864L549.369 50L541.881 33.8H546.849L550.629 42.656C550.773 43.016 551.037 43.796 551.421 44.996C551.613 43.94 551.805 43.148 551.997 42.62L554.913 33.8H559.629Z" fill="#141414"/>
<rect x="190.5" y="2.5" width="397" height="75" rx="5.5" stroke="#274BB8" stroke-width="5"/>
<path d="M277.241 487.2L270.521 504.048H268.289L261.377 487.2H264.521L269.513 499.656L274.289 487.2H277.241ZM301.141 487.2L296.341 504H293.581L289.525 491.856L285.541 504H282.757L277.741 487.2H281.053L284.437 499.176L288.181 487.2H291.109L294.949 499.2L298.309 487.2H301.141ZM302.57 498.72V496.152H308.618V498.72H302.57ZM321.865 493.2L317.713 498.336L322.369 504H318.769L314.497 498.552L318.385 493.2H321.865ZM311.641 504V493.2H314.401V504H311.641ZM324.273 502.68C323.201 501.608 322.665 500.248 322.665 498.6C322.665 496.952 323.201 495.6 324.273 494.544C325.361 493.472 326.785 492.936 328.545 492.936C330.305 492.936 331.721 493.472 332.793 494.544C333.881 495.6 334.425 496.952 334.425 498.6C334.425 500.248 333.881 501.608 332.793 502.68C331.721 503.736 330.305 504.264 328.545 504.264C326.785 504.264 325.361 503.736 324.273 502.68ZM325.617 498.6C325.617 499.496 325.889 500.24 326.433 500.832C326.993 501.408 327.697 501.696 328.545 501.696C329.409 501.696 330.113 501.416 330.657 500.856C331.217 500.28 331.497 499.528 331.497 498.6C331.497 497.704 331.217 496.968 330.657 496.392C330.097 495.816 329.393 495.528 328.545 495.528C327.713 495.528 327.017 495.816 326.457 496.392C325.897 496.952 325.617 497.688 325.617 498.6ZM336.813 504V493.2H339.309L342.981 497.712L346.461 493.2H348.885V504H346.125V497.4L342.933 501.432H342.861L339.573 497.4V504H336.813ZM351.954 504V493.2H354.45L358.122 497.712L361.602 493.2H364.026V504H361.266V497.4L358.074 501.432H358.002L354.714 497.4V504H351.954ZM375.567 500.976L376.359 502.92C375.303 503.816 373.927 504.264 372.231 504.264C370.487 504.264 369.079 503.744 368.007 502.704C366.951 501.664 366.423 500.296 366.423 498.6C366.423 496.984 366.943 495.64 367.983 494.568C369.023 493.48 370.407 492.936 372.135 492.936C373.559 492.936 374.767 493.408 375.759 494.352C376.751 495.28 377.247 496.48 377.247 497.952C377.247 498.56 377.191 499.056 377.079 499.44H369.279C369.391 500.24 369.743 500.864 370.335 501.312C370.927 501.744 371.655 501.96 372.519 501.96C373.735 501.96 374.751 501.632 375.567 500.976ZM372.015 495.24C370.447 495.24 369.503 496.024 369.183 497.592H374.487C374.503 496.92 374.287 496.36 373.839 495.912C373.391 495.464 372.783 495.24 372.015 495.24ZM379.47 508.8V493.2H382.23V494.232C382.582 493.864 383.054 493.56 383.646 493.32C384.254 493.064 384.894 492.936 385.566 492.936C387.038 492.936 388.222 493.448 389.118 494.472C390.014 495.496 390.462 496.816 390.462 498.432C390.462 500.112 389.934 501.504 388.878 502.608C387.822 503.712 386.446 504.264 384.75 504.264C383.678 504.264 382.838 504.088 382.23 503.736V508.8H379.47ZM384.702 495.528C383.758 495.528 382.934 495.92 382.23 496.704V501.072C382.87 501.488 383.63 501.696 384.51 501.696C385.438 501.696 386.174 501.4 386.718 500.808C387.262 500.2 387.534 499.432 387.534 498.504C387.534 497.624 387.286 496.912 386.79 496.368C386.294 495.808 385.598 495.528 384.702 495.528ZM401.564 493.2V504H398.804V500.28C398.02 500.696 397.124 500.904 396.116 500.904C394.756 500.904 393.764 500.552 393.14 499.848C392.516 499.128 392.204 498.064 392.204 496.656V493.2H395.156V496.32C395.156 497.648 395.74 498.312 396.908 498.312C397.676 498.312 398.308 498.168 398.804 497.88V493.2H401.564ZM413.113 500.976L413.905 502.92C412.849 503.816 411.473 504.264 409.777 504.264C408.033 504.264 406.625 503.744 405.553 502.704C404.497 501.664 403.969 500.296 403.969 498.6C403.969 496.984 404.489 495.64 405.529 494.568C406.569 493.48 407.953 492.936 409.681 492.936C411.105 492.936 412.313 493.408 413.305 494.352C414.297 495.28 414.793 496.48 414.793 497.952C414.793 498.56 414.737 499.056 414.625 499.44H406.825C406.937 500.24 407.289 500.864 407.881 501.312C408.473 501.744 409.201 501.96 410.065 501.96C411.281 501.96 412.297 501.632 413.113 500.976ZM409.561 495.24C407.993 495.24 407.049 496.024 406.729 497.592H412.033C412.049 496.92 411.833 496.36 411.385 495.912C410.937 495.464 410.329 495.24 409.561 495.24ZM425.13 500.376L426.426 502.392C425.978 503 425.37 503.464 424.602 503.784C423.85 504.104 423.026 504.264 422.13 504.264C420.37 504.264 418.954 503.744 417.882 502.704C416.81 501.664 416.274 500.296 416.274 498.6C416.274 497 416.802 495.656 417.858 494.568C418.914 493.48 420.25 492.936 421.866 492.936C423.786 492.936 425.234 493.424 426.21 494.4L424.914 496.584C424.194 495.88 423.298 495.528 422.226 495.528C421.426 495.528 420.722 495.816 420.114 496.392C419.522 496.952 419.226 497.688 419.226 498.6C419.226 499.528 419.53 500.28 420.138 500.856C420.762 501.416 421.498 501.696 422.346 501.696C423.402 501.696 424.33 501.256 425.13 500.376ZM438.865 493.2L434.713 498.336L439.369 504H435.769L431.497 498.552L435.385 493.2H438.865ZM428.641 504V493.2H431.401V504H428.641ZM443.753 504H440.993V493.2H443.753V500.04L448.793 493.2H451.553V504H448.793V497.16L443.753 504ZM463.106 500.976L463.898 502.92C462.842 503.816 461.466 504.264 459.77 504.264C458.026 504.264 456.618 503.744 455.546 502.704C454.49 501.664 453.962 500.296 453.962 498.6C453.962 496.984 454.482 495.64 455.522 494.568C456.562 493.48 457.946 492.936 459.674 492.936C461.098 492.936 462.306 493.408 463.298 494.352C464.29 495.28 464.786 496.48 464.786 497.952C464.786 498.56 464.73 499.056 464.618 499.44H456.818C456.93 500.24 457.282 500.864 457.874 501.312C458.466 501.744 459.194 501.96 460.058 501.96C461.274 501.96 462.29 501.632 463.106 500.976ZM459.554 495.24C457.986 495.24 457.042 496.024 456.722 497.592H462.026C462.042 496.92 461.826 496.36 461.378 495.912C460.93 495.464 460.322 495.24 459.554 495.24ZM472.935 495.984L472.239 493.968C473.407 493.28 474.679 492.936 476.055 492.936C477.591 492.936 478.695 493.312 479.367 494.064C480.039 494.816 480.375 495.936 480.375 497.424V504H477.975V502.752C477.319 503.68 476.255 504.144 474.783 504.144C473.775 504.144 472.959 503.848 472.335 503.256C471.711 502.664 471.399 501.856 471.399 500.832C471.399 499.696 471.767 498.832 472.503 498.24C473.239 497.632 474.183 497.328 475.335 497.328C476.327 497.328 477.143 497.56 477.783 498.024C477.815 497.08 477.679 496.384 477.375 495.936C477.071 495.472 476.535 495.24 475.767 495.24C474.967 495.24 474.023 495.488 472.935 495.984ZM475.695 501.816C476.623 501.816 477.319 501.488 477.783 500.832V499.728C477.319 499.376 476.687 499.2 475.887 499.2C475.391 499.2 474.975 499.32 474.639 499.56C474.319 499.784 474.159 500.112 474.159 500.544C474.159 500.944 474.303 501.256 474.591 501.48C474.879 501.704 475.247 501.816 475.695 501.816ZM483.204 504V493.2C483.396 493.2 483.748 493.192 484.26 493.176C484.788 493.144 485.324 493.12 485.868 493.104C486.428 493.088 486.956 493.08 487.452 493.08C490.716 493.08 492.348 494.024 492.348 495.912C492.348 496.536 492.148 497.072 491.748 497.52C491.364 497.968 490.892 498.232 490.332 498.312V498.36C491.868 498.728 492.636 499.56 492.636 500.856C492.636 503.032 490.924 504.12 487.5 504.12C487.02 504.12 486.26 504.096 485.22 504.048C484.18 504.016 483.508 504 483.204 504ZM487.692 499.416H485.964V501.816C487.052 501.88 487.66 501.912 487.788 501.912C488.396 501.912 488.868 501.8 489.204 501.576C489.556 501.352 489.732 501.048 489.732 500.664C489.732 499.832 489.052 499.416 487.692 499.416ZM487.692 495.312C486.924 495.312 486.348 495.328 485.964 495.36V497.736H487.764C488.244 497.736 488.636 497.632 488.94 497.424C489.26 497.2 489.42 496.888 489.42 496.488C489.42 495.704 488.844 495.312 487.692 495.312ZM494.123 495.96V493.2H503.963V495.96H500.435V504H497.675V495.96H494.123ZM506.546 502.68C505.474 501.608 504.938 500.248 504.938 498.6C504.938 496.952 505.474 495.6 506.546 494.544C507.634 493.472 509.058 492.936 510.818 492.936C512.578 492.936 513.994 493.472 515.066 494.544C516.154 495.6 516.698 496.952 516.698 498.6C516.698 500.248 516.154 501.608 515.066 502.68C513.994 503.736 512.578 504.264 510.818 504.264C509.058 504.264 507.634 503.736 506.546 502.68ZM507.89 498.6C507.89 499.496 508.162 500.24 508.706 500.832C509.266 501.408 509.97 501.696 510.818 501.696C511.682 501.696 512.386 501.416 512.93 500.856C513.49 500.28 513.77 499.528 513.77 498.6C513.77 497.704 513.49 496.968 512.93 496.392C512.37 495.816 511.666 495.528 510.818 495.528C509.986 495.528 509.29 495.816 508.73 496.392C508.17 496.952 507.89 497.688 507.89 498.6Z" fill="#141414"/>
<rect x="232.5" y="461.5" width="314" height="72" rx="6.5" stroke="#005DED" stroke-width="3"/>
<path d="M93.2725 362.2L86.5525 379.048H84.3205L77.4085 362.2H80.5525L85.5445 374.656L90.3205 362.2H93.2725ZM117.172 362.2L112.372 379H109.612L105.556 366.856L101.572 379H98.7883L93.7723 362.2H97.0843L100.468 374.176L104.212 362.2H107.14L110.98 374.2L114.34 362.2H117.172ZM118.601 373.72V371.152H124.649V373.72H118.601ZM128.465 378.976V362.248C130.033 362.168 131.649 362.128 133.313 362.128C135.217 362.128 136.609 362.512 137.489 363.28C138.385 364.032 138.833 365.032 138.833 366.28C138.833 368.072 138.033 369.344 136.433 370.096V370.144C137.313 370.368 138.025 370.808 138.569 371.464C139.113 372.12 139.385 372.984 139.385 374.056C139.385 375.72 138.809 376.976 137.657 377.824C136.521 378.672 135.017 379.096 133.145 379.096C131.113 379.096 129.553 379.056 128.465 378.976ZM133.505 371.776H131.417V376.216C132.089 376.296 132.737 376.336 133.361 376.336C135.409 376.336 136.433 375.528 136.433 373.912C136.433 373.208 136.177 372.68 135.665 372.328C135.153 371.96 134.433 371.776 133.505 371.776ZM133.265 364.888C132.561 364.888 131.945 364.912 131.417 364.96V369.208H133.409C134.145 369.208 134.745 369.024 135.209 368.656C135.673 368.272 135.905 367.712 135.905 366.976C135.905 366.304 135.665 365.792 135.185 365.44C134.721 365.072 134.081 364.888 133.265 364.888ZM145.245 379H142.485V368.2H145.245V375.04L150.285 368.2H153.045V379H150.285V372.16L145.245 379ZM154.998 370.96V368.2H164.838V370.96H161.31V379H158.55V370.96H154.998ZM174.957 375.976L175.749 377.92C174.693 378.816 173.317 379.264 171.621 379.264C169.877 379.264 168.469 378.744 167.397 377.704C166.341 376.664 165.813 375.296 165.813 373.6C165.813 371.984 166.333 370.64 167.373 369.568C168.413 368.48 169.797 367.936 171.525 367.936C172.949 367.936 174.157 368.408 175.149 369.352C176.141 370.28 176.637 371.48 176.637 372.952C176.637 373.56 176.581 374.056 176.469 374.44H168.669C168.781 375.24 169.133 375.864 169.725 376.312C170.317 376.744 171.045 376.96 171.909 376.96C173.125 376.96 174.141 376.632 174.957 375.976ZM171.405 370.24C169.837 370.24 168.893 371.024 168.573 372.592H173.877C173.893 371.92 173.677 371.36 173.229 370.912C172.781 370.464 172.173 370.24 171.405 370.24ZM186.972 361.936L188.412 364.192C187.996 364.688 187.516 365.04 186.972 365.248C186.428 365.44 185.788 365.616 185.052 365.776C184.332 365.92 183.708 366.12 183.18 366.376C181.836 367 181.06 368.344 180.852 370.408H180.9C181.236 369.816 181.756 369.336 182.46 368.968C183.164 368.584 183.908 368.392 184.692 368.392C186.18 368.392 187.372 368.872 188.268 369.832C189.164 370.792 189.612 372.08 189.612 373.696C189.612 375.248 189.084 376.568 188.028 377.656C186.972 378.728 185.612 379.264 183.948 379.264C182.14 379.264 180.708 378.648 179.652 377.416C178.612 376.184 178.092 374.52 178.092 372.424C178.092 367.8 179.452 364.904 182.172 363.736C182.78 363.48 183.436 363.288 184.14 363.16C184.844 363.016 185.404 362.872 185.82 362.728C186.252 362.584 186.636 362.32 186.972 361.936ZM181.044 373C181.06 374.072 181.324 374.96 181.836 375.664C182.348 376.352 183.028 376.696 183.876 376.696C184.724 376.696 185.396 376.424 185.892 375.88C186.404 375.32 186.66 374.632 186.66 373.816C186.66 372.984 186.428 372.304 185.964 371.776C185.5 371.232 184.844 370.96 183.996 370.96C183.26 370.96 182.628 371.152 182.1 371.536C181.588 371.92 181.236 372.408 181.044 373ZM200.193 375.376L201.489 377.392C201.041 378 200.433 378.464 199.665 378.784C198.913 379.104 198.089 379.264 197.193 379.264C195.433 379.264 194.017 378.744 192.945 377.704C191.873 376.664 191.337 375.296 191.337 373.6C191.337 372 191.865 370.656 192.921 369.568C193.977 368.48 195.313 367.936 196.929 367.936C198.849 367.936 200.297 368.424 201.273 369.4L199.977 371.584C199.257 370.88 198.361 370.528 197.289 370.528C196.489 370.528 195.785 370.816 195.177 371.392C194.585 371.952 194.289 372.688 194.289 373.6C194.289 374.528 194.593 375.28 195.201 375.856C195.825 376.416 196.561 376.696 197.409 376.696C198.465 376.696 199.393 376.256 200.193 375.376ZM213.928 368.2L209.776 373.336L214.432 379H210.832L206.56 373.552L210.448 368.2H213.928ZM203.704 379V368.2H206.464V379H203.704Z" fill="#141414"/>
<rect x="48.5" y="336.5" width="195" height="72" rx="6.5" stroke="#005DED" stroke-width="3"/>
<path d="M340.921 362.2L334.201 379.048H331.969L325.057 362.2H328.201L333.193 374.656L337.969 362.2H340.921ZM364.821 362.2L360.021 379H357.261L353.205 366.856L349.221 379H346.437L341.421 362.2H344.733L348.117 374.176L351.861 362.2H354.789L358.629 374.2L361.989 362.2H364.821ZM366.25 373.72V371.152H372.298V373.72H366.25ZM376.113 379V362.2H379.089L384.825 370.048L390.297 362.2H393.081V379H390.153V366.856L384.849 374.32H384.417L379.065 366.928V379H376.113ZM397.89 377.68C396.818 376.608 396.282 375.248 396.282 373.6C396.282 371.952 396.818 370.6 397.89 369.544C398.978 368.472 400.402 367.936 402.162 367.936C403.922 367.936 405.338 368.472 406.41 369.544C407.498 370.6 408.042 371.952 408.042 373.6C408.042 375.248 407.498 376.608 406.41 377.68C405.338 378.736 403.922 379.264 402.162 379.264C400.402 379.264 398.978 378.736 397.89 377.68ZM399.234 373.6C399.234 374.496 399.506 375.24 400.05 375.832C400.61 376.408 401.314 376.696 402.162 376.696C403.026 376.696 403.73 376.416 404.274 375.856C404.834 375.28 405.114 374.528 405.114 373.6C405.114 372.704 404.834 371.968 404.274 371.392C403.714 370.816 403.01 370.528 402.162 370.528C401.33 370.528 400.634 370.816 400.074 371.392C399.514 371.952 399.234 372.688 399.234 373.6ZM410.431 379V368.2H417.679V370.792H413.191V379H410.431ZM422.167 379H419.407V368.2H422.167V375.04L427.207 368.2H429.967V379H427.207V372.16L422.167 379ZM440.152 379V370.96H437.296L437.224 372.112C437.048 374.048 436.752 375.536 436.336 376.576C435.936 377.616 435.424 378.32 434.8 378.688C434.192 379.04 433.376 379.216 432.352 379.216L432.112 376.528C432.464 376.56 432.792 376.464 433.096 376.24C433.416 376 433.72 375.488 434.008 374.704C434.296 373.904 434.48 372.856 434.56 371.56L434.728 368.2H442.912V379H440.152ZM454.457 375.976L455.249 377.92C454.193 378.816 452.817 379.264 451.121 379.264C449.377 379.264 447.969 378.744 446.897 377.704C445.841 376.664 445.313 375.296 445.313 373.6C445.313 371.984 445.833 370.64 446.873 369.568C447.913 368.48 449.297 367.936 451.025 367.936C452.449 367.936 453.657 368.408 454.649 369.352C455.641 370.28 456.137 371.48 456.137 372.952C456.137 373.56 456.081 374.056 455.969 374.44H448.169C448.281 375.24 448.633 375.864 449.225 376.312C449.817 376.744 450.545 376.96 451.409 376.96C452.625 376.96 453.641 376.632 454.457 375.976ZM450.905 370.24C449.337 370.24 448.393 371.024 448.073 372.592H453.377C453.393 371.92 453.177 371.36 452.729 370.912C452.281 370.464 451.673 370.24 450.905 370.24ZM458.36 379V368.2C458.552 368.2 458.904 368.192 459.416 368.176C459.944 368.144 460.48 368.12 461.024 368.104C461.584 368.088 462.112 368.08 462.608 368.08C465.872 368.08 467.504 369.024 467.504 370.912C467.504 371.536 467.304 372.072 466.904 372.52C466.52 372.968 466.048 373.232 465.488 373.312V373.36C467.024 373.728 467.792 374.56 467.792 375.856C467.792 378.032 466.08 379.12 462.656 379.12C462.176 379.12 461.416 379.096 460.376 379.048C459.336 379.016 458.664 379 458.36 379ZM462.848 374.416H461.12V376.816C462.208 376.88 462.816 376.912 462.944 376.912C463.552 376.912 464.024 376.8 464.36 376.576C464.712 376.352 464.888 376.048 464.888 375.664C464.888 374.832 464.208 374.416 462.848 374.416ZM462.848 370.312C462.08 370.312 461.504 370.328 461.12 370.36V372.736H462.92C463.4 372.736 463.792 372.632 464.096 372.424C464.416 372.2 464.576 371.888 464.576 371.488C464.576 370.704 464 370.312 462.848 370.312Z" fill="#141414"/>
<rect x="296.5" y="336.5" width="201" height="72" rx="6.5" stroke="#005DED" stroke-width="3"/>
<path d="M595.147 362.2L588.427 379.048H586.195L579.283 362.2H582.427L587.419 374.656L592.195 362.2H595.147ZM619.047 362.2L614.247 379H611.487L607.431 366.856L603.447 379H600.663L595.647 362.2H598.959L602.343 374.176L606.087 362.2H609.015L612.855 374.2L616.215 362.2H619.047ZM620.476 373.72V371.152H626.524V373.72H620.476ZM630.34 379V362.2H633.316L639.052 370.048L644.524 362.2H647.308V379H644.38V366.856L639.076 374.32H638.644L633.292 366.928V379H630.34ZM653.941 379H651.181V368.2H653.941V375.04L658.981 368.2H661.741V379H658.981V372.16L653.941 379ZM672.309 379V374.872H667.581V379H664.821V368.2H667.581V372.28H672.309V368.2H675.069V379H672.309ZM686.318 375.376L687.614 377.392C687.166 378 686.558 378.464 685.79 378.784C685.038 379.104 684.214 379.264 683.318 379.264C681.558 379.264 680.142 378.744 679.07 377.704C677.998 376.664 677.462 375.296 677.462 373.6C677.462 372 677.99 370.656 679.046 369.568C680.102 368.48 681.438 367.936 683.054 367.936C684.974 367.936 686.422 368.424 687.398 369.4L686.102 371.584C685.382 370.88 684.486 370.528 683.414 370.528C682.614 370.528 681.91 370.816 681.302 371.392C680.71 371.952 680.414 372.688 680.414 373.6C680.414 374.528 680.718 375.28 681.326 375.856C681.95 376.416 682.686 376.696 683.534 376.696C684.59 376.696 685.518 376.256 686.318 375.376ZM700.053 368.2L695.901 373.336L700.557 379H696.957L692.685 373.552L696.573 368.2H700.053ZM689.829 379V368.2H692.589V379H689.829Z" fill="#141414"/>
<rect x="550.5" y="336.5" width="179" height="72" rx="6.5" stroke="#005DED" stroke-width="3"/>
<path d="M115.077 237.2L108.357 254.048H106.125L99.2132 237.2H102.357L107.349 249.656L112.125 237.2H115.077ZM138.977 237.2L134.177 254H131.417L127.361 241.856L123.377 254H120.593L115.577 237.2H118.889L122.273 249.176L126.017 237.2H128.945L132.785 249.2L136.145 237.2H138.977ZM140.406 248.72V246.152H146.454V248.72H140.406ZM150.269 254V237.2H159.749V239.96H153.221V254H150.269ZM158.618 258.8V243.2H161.378V244.232C161.73 243.864 162.202 243.56 162.794 243.32C163.402 243.064 164.042 242.936 164.714 242.936C166.186 242.936 167.37 243.448 168.266 244.472C169.162 245.496 169.61 246.816 169.61 248.432C169.61 250.112 169.082 251.504 168.026 252.608C166.97 253.712 165.594 254.264 163.898 254.264C162.826 254.264 161.986 254.088 161.378 253.736V258.8H158.618ZM163.85 245.528C162.906 245.528 162.082 245.92 161.378 246.704V251.072C162.018 251.488 162.778 251.696 163.658 251.696C164.586 251.696 165.322 251.4 165.866 250.808C166.41 250.2 166.682 249.432 166.682 248.504C166.682 247.624 166.434 246.912 165.938 246.368C165.442 245.808 164.746 245.528 163.85 245.528ZM172.937 252.68C171.865 251.608 171.329 250.248 171.329 248.6C171.329 246.952 171.865 245.6 172.937 244.544C174.025 243.472 175.449 242.936 177.209 242.936C178.969 242.936 180.385 243.472 181.457 244.544C182.545 245.6 183.089 246.952 183.089 248.6C183.089 250.248 182.545 251.608 181.457 252.68C180.385 253.736 178.969 254.264 177.209 254.264C175.449 254.264 174.025 253.736 172.937 252.68ZM174.281 248.6C174.281 249.496 174.553 250.24 175.097 250.832C175.657 251.408 176.361 251.696 177.209 251.696C178.073 251.696 178.777 251.416 179.321 250.856C179.881 250.28 180.161 249.528 180.161 248.6C180.161 247.704 179.881 246.968 179.321 246.392C178.761 245.816 178.057 245.528 177.209 245.528C176.377 245.528 175.681 245.816 175.121 246.392C174.561 246.952 174.281 247.688 174.281 248.6ZM183.83 256.52V251.432H185.198C186.046 250.312 186.55 248.432 186.71 245.792L186.878 243.2H194.846V251.432H196.646V256.52H194.054V254H186.398V256.52H183.83ZM189.374 246.896C189.182 248.992 188.75 250.504 188.078 251.432H192.086V245.792H189.446L189.374 246.896ZM205.95 254V249.872H201.222V254H198.462V243.2H201.222V247.28H205.95V243.2H208.71V254H205.95ZM212.71 252.68C211.638 251.608 211.102 250.248 211.102 248.6C211.102 246.952 211.638 245.6 212.71 244.544C213.798 243.472 215.222 242.936 216.982 242.936C218.742 242.936 220.158 243.472 221.23 244.544C222.318 245.6 222.862 246.952 222.862 248.6C222.862 250.248 222.318 251.608 221.23 252.68C220.158 253.736 218.742 254.264 216.982 254.264C215.222 254.264 213.798 253.736 212.71 252.68ZM214.054 248.6C214.054 249.496 214.326 250.24 214.87 250.832C215.43 251.408 216.134 251.696 216.982 251.696C217.846 251.696 218.55 251.416 219.094 250.856C219.654 250.28 219.934 249.528 219.934 248.6C219.934 247.704 219.654 246.968 219.094 246.392C218.534 245.816 217.83 245.528 216.982 245.528C216.15 245.528 215.454 245.816 214.894 246.392C214.334 246.952 214.054 247.688 214.054 248.6Z" fill="#141414"/>
<rect x="70.5" y="211.5" width="182" height="72" rx="6.5" stroke="#005DED" stroke-width="3"/>
<path d="M350.163 237.2L343.443 254.048H341.211L334.299 237.2H337.443L342.435 249.656L347.211 237.2H350.163ZM374.063 237.2L369.263 254H366.503L362.447 241.856L358.463 254H355.679L350.663 237.2H353.975L357.359 249.176L361.103 237.2H364.031L367.871 249.2L371.231 237.2H374.063ZM375.492 248.72V246.152H381.54V248.72H375.492ZM385.355 254V237.2H395.171V239.96H388.307V243.704C388.963 243.608 389.715 243.56 390.563 243.56C392.307 243.56 393.683 244.016 394.691 244.928C395.699 245.84 396.203 247.072 396.203 248.624C396.203 250.368 395.635 251.72 394.499 252.68C393.379 253.624 391.787 254.096 389.723 254.096C389.003 254.096 388.155 254.08 387.179 254.048C386.219 254.016 385.611 254 385.355 254ZM390.323 246.32C389.731 246.32 389.059 246.368 388.307 246.464V251.24C389.203 251.304 389.827 251.336 390.179 251.336C392.243 251.336 393.275 250.504 393.275 248.84C393.275 248.072 393.027 247.464 392.531 247.016C392.051 246.552 391.315 246.32 390.323 246.32ZM399.306 258.8V243.2H402.066V244.232C402.418 243.864 402.89 243.56 403.482 243.32C404.09 243.064 404.73 242.936 405.402 242.936C406.874 242.936 408.058 243.448 408.954 244.472C409.85 245.496 410.298 246.816 410.298 248.432C410.298 250.112 409.77 251.504 408.714 252.608C407.658 253.712 406.282 254.264 404.586 254.264C403.514 254.264 402.674 254.088 402.066 253.736V258.8H399.306ZM404.538 245.528C403.594 245.528 402.77 245.92 402.066 246.704V251.072C402.706 251.488 403.466 251.696 404.346 251.696C405.274 251.696 406.01 251.4 406.554 250.808C407.098 250.2 407.37 249.432 407.37 248.504C407.37 247.624 407.122 246.912 406.626 246.368C406.13 245.808 405.434 245.528 404.538 245.528ZM421.16 250.976L421.952 252.92C420.896 253.816 419.52 254.264 417.824 254.264C416.08 254.264 414.672 253.744 413.6 252.704C412.544 251.664 412.016 250.296 412.016 248.6C412.016 246.984 412.536 245.64 413.576 244.568C414.616 243.48 416 242.936 417.728 242.936C419.152 242.936 420.36 243.408 421.352 244.352C422.344 245.28 422.84 246.48 422.84 247.952C422.84 248.56 422.784 249.056 422.672 249.44H414.872C414.984 250.24 415.336 250.864 415.928 251.312C416.52 251.744 417.248 251.96 418.112 251.96C419.328 251.96 420.344 251.632 421.16 250.976ZM417.608 245.24C416.04 245.24 415.096 246.024 414.776 247.592H420.08C420.096 246.92 419.88 246.36 419.432 245.912C418.984 245.464 418.376 245.24 417.608 245.24ZM433.177 250.376L434.473 252.392C434.025 253 433.417 253.464 432.649 253.784C431.897 254.104 431.073 254.264 430.177 254.264C428.417 254.264 427.001 253.744 425.929 252.704C424.857 251.664 424.321 250.296 424.321 248.6C424.321 247 424.849 245.656 425.905 244.568C426.961 243.48 428.297 242.936 429.913 242.936C431.833 242.936 433.281 243.424 434.257 244.4L432.961 246.584C432.241 245.88 431.345 245.528 430.273 245.528C429.473 245.528 428.769 245.816 428.161 246.392C427.569 246.952 427.273 247.688 427.273 248.6C427.273 249.528 427.577 250.28 428.185 250.856C428.809 251.416 429.545 251.696 430.393 251.696C431.449 251.696 432.377 251.256 433.177 250.376ZM435.349 245.96V243.2H445.189V245.96H441.661V254H438.901V245.96H435.349Z" fill="#141414"/>
<rect x="305.5" y="211.5" width="169" height="72" rx="6.5" stroke="#005DED" stroke-width="3"/>
<path d="M572.155 237.2L565.435 254.048H563.203L556.291 237.2H559.435L564.427 249.656L569.203 237.2H572.155ZM596.055 237.2L591.255 254H588.495L584.439 241.856L580.455 254H577.671L572.655 237.2H575.967L579.351 249.176L583.095 237.2H586.023L589.863 249.2L593.223 237.2H596.055ZM597.484 248.72V246.152H603.532V248.72H597.484ZM607.348 254V237.2H616.828V239.96H610.3V254H607.348ZM616.327 252.68C615.255 251.608 614.719 250.248 614.719 248.6C614.719 246.952 615.255 245.6 616.327 244.544C617.415 243.472 618.839 242.936 620.599 242.936C622.359 242.936 623.775 243.472 624.847 244.544C625.935 245.6 626.479 246.952 626.479 248.6C626.479 250.248 625.935 251.608 624.847 252.68C623.775 253.736 622.359 254.264 620.599 254.264C618.839 254.264 617.415 253.736 616.327 252.68ZM617.671 248.6C617.671 249.496 617.943 250.24 618.487 250.832C619.047 251.408 619.751 251.696 620.599 251.696C621.463 251.696 622.167 251.416 622.711 250.856C623.271 250.28 623.551 249.528 623.551 248.6C623.551 247.704 623.271 246.968 622.711 246.392C622.151 245.816 621.447 245.528 620.599 245.528C619.767 245.528 619.071 245.816 618.511 246.392C617.951 246.952 617.671 247.688 617.671 248.6ZM628.868 254V243.2H631.364L635.036 247.712L638.516 243.2H640.94V254H638.18V247.4L634.988 251.432H634.916L631.628 247.4V254H628.868ZM652.481 250.976L653.273 252.92C652.217 253.816 650.841 254.264 649.145 254.264C647.401 254.264 645.993 253.744 644.921 252.704C643.865 251.664 643.337 250.296 643.337 248.6C643.337 246.984 643.857 245.64 644.897 244.568C645.937 243.48 647.321 242.936 649.049 242.936C650.473 242.936 651.681 243.408 652.673 244.352C653.665 245.28 654.161 246.48 654.161 247.952C654.161 248.56 654.105 249.056 653.993 249.44H646.193C646.305 250.24 646.657 250.864 647.249 251.312C647.841 251.744 648.569 251.96 649.433 251.96C650.649 251.96 651.665 251.632 652.481 250.976ZM648.929 245.24C647.361 245.24 646.417 246.024 646.097 247.592H651.401C651.417 246.92 651.201 246.36 650.753 245.912C650.305 245.464 649.697 245.24 648.929 245.24ZM663.136 254V245.96H660.28L660.208 247.112C660.032 249.048 659.736 250.536 659.32 251.576C658.92 252.616 658.408 253.32 657.784 253.688C657.176 254.04 656.36 254.216 655.336 254.216L655.096 251.528C655.448 251.56 655.776 251.464 656.08 251.24C656.4 251 656.704 250.488 656.992 249.704C657.28 248.904 657.464 247.856 657.544 246.56L657.712 243.2H665.896V254H663.136ZM668.97 254V243.2H671.73V246.152H673.218C674.914 246.152 676.13 246.504 676.866 247.208C677.602 247.912 677.97 248.808 677.97 249.896C677.97 251.064 677.57 252.04 676.77 252.824C675.97 253.608 674.714 254 673.002 254H668.97ZM672.978 248.36H671.73V251.6H672.954C674.346 251.6 675.042 251.064 675.042 249.992C675.042 248.904 674.354 248.36 672.978 248.36Z" fill="#141414"/>
<rect x="527.5" y="211.5" width="180" height="72" rx="6.5" stroke="#005DED" stroke-width="3"/>
<path d="M146 159H10C5.58173 159 2 162.582 2 167V565C2 569.418 5.58172 573 10 573H768C772.418 573 776 569.418 776 565V167C776 162.582 772.418 159 768 159H642" stroke="#376EE8" stroke-width="3"/>
</svg>
