<svg width="308" height="56" viewBox="0 0 308 56" fill="none" xmlns="http://www.w3.org/2000/svg">
<path fill-rule="evenodd" clip-rule="evenodd" d="M91.1185 0.0476074H68.7258C65.0745 0.0476074 61.2471 3.04202 60.147 6.7962L48.0488 49.2095L35.9507 6.7962C34.895 3.08671 31.0676 0.0476074 27.416 0.0476074H4.97934C1.32787 0.0476074 -0.783817 3.08671 0.272027 6.7962L12.3702 49.2095C13.4261 52.919 17.2535 55.9581 20.949 55.9581H43.3415C45.7174 55.9581 47.4331 54.6623 48.0488 52.7403C48.6648 54.6623 50.3806 55.9581 52.7562 55.9581H75.1489C78.8005 55.9581 82.6279 52.9638 83.6836 49.2095L95.7818 6.7962C96.8818 3.08671 94.7702 0.0476074 91.1185 0.0476074Z" fill="url(#paint0_linear)"/>
<path fill-rule="evenodd" clip-rule="evenodd" d="M38.7224 0.0446928C36.9187 0.0446928 34.895 1.11732 33.4431 2.68156C34.631 3.79887 35.555 5.22906 35.9509 6.74862L48.0491 49.1621L60.1473 6.74862C60.6313 5.09496 61.4672 3.75418 62.787 2.59218C61.3352 1.16201 59.6194 0 57.9037 0H38.7224V0.0446928Z" fill="url(#paint1_linear)"/>
<path fill-rule="evenodd" clip-rule="evenodd" d="M79.9882 49.2514L65.3384 6.83784C64.8984 5.31828 64.0623 3.75403 62.8306 2.63672C61.4669 3.79874 60.6311 5.27359 60.1911 6.79315L48.0489 49.2066V49.2514L35.9507 6.83784C35.5107 5.31828 34.6308 3.84343 33.3991 2.72611C32.1671 3.84343 31.2434 5.31828 30.8034 6.83784L16.1535 49.2514C15.0097 52.9608 17.2974 55.9999 21.2128 55.9999H43.3416C45.7171 55.9999 47.4329 54.7483 48.0489 52.8267C48.6649 54.7483 50.3806 55.9999 52.7562 55.9999H74.885C78.8443 55.9551 81.0879 52.9608 79.9882 49.2514Z" fill="url(#paint2_linear)"/>
<path d="M159.821 8.6939L150.585 40.7889L142.325 11.9279C142.017 10.8009 141.965 10.2129 140.426 10.2129H137.553C136.065 10.2129 135.962 10.8009 135.654 11.9279L127.343 40.7889L118.158 8.6939L113.027 9.9189L123.597 45.4929C123.905 46.5709 124.11 47.2079 125.598 47.2079H128.523C130.011 47.2079 130.216 46.5709 130.523 45.4929L138.938 16.6809L147.404 45.4929C147.712 46.6199 147.866 47.2079 149.405 47.2079H152.33C153.869 47.2079 154.023 46.6199 154.331 45.4929L164.849 9.9189L159.821 8.6939ZM184.346 21.2869C182.037 20.0619 179.831 19.9149 176.958 19.9149C174.751 19.9149 171.673 19.9639 169.621 20.8459C165.208 22.8059 164.336 27.9509 164.336 32.1159V35.3009C164.336 39.4659 165.157 44.1209 169.005 46.0809C171.16 47.1589 173.982 47.5019 176.701 47.5019C179.677 47.5019 183.885 47.2079 186.245 46.7669L185.885 43.1409C182.653 43.5819 179.164 43.7289 177.573 43.7289C176.086 43.7289 172.699 43.5329 171.16 42.3079C169.723 41.1319 169.262 38.5349 169.21 35.3989H184.808C187.219 35.3989 188.297 34.2719 188.297 32.8019V30.0089C188.348 25.0599 186.399 22.4139 184.346 21.2869ZM183.474 31.7239H169.21C169.21 28.3919 169.775 26.0889 171.263 24.7659C172.648 23.5409 175.419 23.5409 176.804 23.5409C178.6 23.5409 180.447 23.6879 181.627 24.6189C182.91 25.6969 183.474 27.6569 183.474 30.6459C183.474 31.5279 183.474 30.9399 183.474 31.7239ZM210.514 20.9929C208 19.9149 204.87 19.9149 202.612 19.9149C201.278 19.9149 198.61 20.1599 196.352 20.5029V8.3999H191.478V40.7889C191.478 46.5219 196.506 47.5999 203.228 47.5999C211.437 47.5999 215.439 45.7379 215.439 34.2719V31.7239C215.49 27.5589 214.977 22.9039 210.514 20.9929ZM210.565 34.6149C210.565 42.4549 209.334 43.9739 203.741 43.9739C201.278 43.9739 199.277 43.7779 198.148 43.1409C196.763 42.3569 196.352 41.0829 196.352 39.1719V24.3739C198.61 23.8839 201.483 23.7369 202.817 23.7369C209.026 23.7369 210.514 24.8149 210.514 31.3809V34.6149H210.565ZM231.088 43.7289C229.6 43.7289 226.419 43.7289 225.137 42.5529C223.649 41.2299 223.187 38.8779 223.187 35.6439V31.7729C223.187 28.5389 223.597 26.1869 225.137 24.8639C226.419 23.7369 229.549 23.6879 231.088 23.6879C232.679 23.6879 234.937 23.7859 238.169 24.2759C238.169 24.2759 238.528 20.7479 238.528 20.6499C236.168 20.2579 232.422 19.9149 230.216 19.9149C228.113 19.9149 225.137 20.1109 222.982 21.1889C219.082 23.1489 218.158 27.9509 218.158 32.1159V35.2519C218.158 39.4169 219.082 44.2189 222.982 46.1789C225.137 47.2569 228.113 47.4529 230.216 47.4529C232.422 47.4529 236.681 47.1589 239.092 46.7179L238.733 43.0919C235.449 43.6309 232.627 43.7289 231.088 43.7289ZM260.539 20.7969C258.487 19.9149 255.614 19.9149 253.408 19.9149C251.201 19.9149 248.328 19.9149 246.276 20.7969C241.863 22.7569 241.35 27.9509 241.35 32.1159V35.3009C241.35 39.4659 241.812 44.7579 246.276 46.6199C248.277 47.5019 251.201 47.5019 253.408 47.5019C255.614 47.5019 258.487 47.5019 260.539 46.6199C264.952 44.6599 265.465 39.4659 265.465 35.3009V32.1159C265.465 27.9509 264.952 22.7569 260.539 20.7969ZM260.539 35.6929C260.539 38.9269 260.437 41.4259 258.949 42.7489C257.666 43.9249 254.896 43.8759 253.408 43.9249C251.868 43.9249 249.149 43.9249 247.866 42.7489C246.43 41.4259 246.327 38.9269 246.327 35.6929V31.7729C246.327 28.5389 246.378 26.0399 247.866 24.7169C249.149 23.5899 251.92 23.5409 253.408 23.5409C254.896 23.5409 257.666 23.5899 258.949 24.7169C260.386 26.0399 260.539 28.5389 260.539 31.7729V35.6929ZM297.737 19.9149C293.787 19.9149 288.963 20.9929 287.375 21.3849C285.578 20.2579 283.168 19.9149 280.447 19.9149C277.215 19.9149 273.11 20.4539 270.904 20.8459C270.185 20.9929 268.544 21.3849 268.544 23.5409V47.2079H273.418V24.5209C275.162 24.1779 277.574 23.7369 279.626 23.7369C284.346 23.7369 285.835 25.3049 285.835 29.4699V47.2079H290.709V29.0779C290.709 27.2649 290.452 25.7949 289.938 24.5699C291.888 24.1779 294.504 23.6879 296.917 23.6879C301.586 23.6879 303.126 25.2559 303.126 29.4209V47.1589H308V29.0779C307.949 21.3359 303.535 19.9149 297.737 19.9149Z" fill="#231F20"/>
<defs>
<linearGradient id="paint0_linear" x1="48.0596" y1="40.7127" x2="48.0596" y2="-2.89393" gradientUnits="userSpaceOnUse">
<stop stop-color="#C6E9FA"/>
<stop offset="1" stop-color="#00A0E3"/>
</linearGradient>
<linearGradient id="paint1_linear" x1="48.1034" y1="35.5804" x2="48.1034" y2="-1.18605" gradientUnits="userSpaceOnUse">
<stop stop-color="#FFF100"/>
<stop offset="1" stop-color="#F48120"/>
</linearGradient>
<linearGradient id="paint2_linear" x1="48.061" y1="56.0988" x2="48.061" y2="14.2051" gradientUnits="userSpaceOnUse">
<stop stop-color="#D6DE23"/>
<stop offset="1" stop-color="#00974A"/>
</linearGradient>
</defs>
</svg>
