<svg width="114" height="90" viewBox="0 0 114 90" fill="none" xmlns="http://www.w3.org/2000/svg">
<g clip-path="url(#clip0)">
<path fill-rule="evenodd" clip-rule="evenodd" d="M28.3606 14.7473C28.4903 14.6495 28.6188 14.5549 28.7463 14.4633C28.7153 14.4385 28.6848 14.4129 28.6547 14.3865C28.5561 14.5068 28.4581 14.6271 28.3606 14.7473ZM23.5795 19.8144C25.0266 17.8855 26.6177 15.9717 28.3539 14.0805C25.7166 10.994 27.2782 1.15857 30.9116 0.169434C32.4634 3.06383 32.6311 6.8216 29.8625 12.4807C30.8567 11.454 31.8944 10.4346 32.9757 9.42377C32.8666 9.40893 32.7566 9.39286 32.6459 9.37562C32.6459 6.83527 42.3518 -0.949545 45.2761 2.89717C43.3131 6.95576 39.5222 10.3092 32.9908 9.42583C31.675 10.8419 30.4322 12.2515 29.2609 13.6537C29.1327 13.893 28.9995 14.1355 28.8613 14.3813C32.5463 11.7725 35.3529 11.7206 40.3174 13.101C36.1584 17.2902 30.0886 17.462 27.7306 15.5322C26.2835 17.3552 24.9571 19.1647 23.7479 20.9587C27.3614 18.3088 29.9882 17.8643 34.7692 19.5569C31.4634 23.6653 25.375 24.0767 22.8176 22.3719C21.4114 24.5599 20.1798 26.7239 19.1164 28.8599C22.9551 25.7265 25.753 23.6913 30.7005 25.4429C26.6964 31.6986 21.0535 31.7748 18.554 30.02C17.7593 31.705 17.0695 33.3721 16.4814 35.0192C19.9767 32.2133 22.727 30.5203 27.3716 32.1646C23.6478 37.9825 18.5067 38.4557 15.7946 37.082C14.9812 39.7168 14.4299 42.2972 14.1272 44.8157C17.1098 40.8139 19.3408 38.1382 24.5573 38.6007C22.193 45.5623 16.8659 47.1071 13.9919 46.1228C13.7798 48.5653 13.8034 50.9475 14.05 53.2609C14.2185 53.0281 14.3846 52.7972 14.549 52.569L14.549 52.5686C17.3375 48.6929 19.6287 45.5083 24.5974 45.9492C22.2906 52.741 17.1306 55.2002 14.2069 54.5186C14.4703 56.36 14.8766 58.1562 15.419 59.9034C15.6959 59.5252 15.9655 59.1504 16.2307 58.7816H16.2307C19.0193 54.9059 21.3104 51.7214 26.2792 52.1619C23.9131 59.1283 18.5453 61.5363 15.6678 60.6728C16.3191 62.6102 17.1396 64.4858 18.1199 66.2938C18.2022 66.1229 18.2837 65.9535 18.3646 65.7849L18.3676 65.7788L18.3692 65.7754C20.4457 61.4543 22.1519 57.9037 27.1183 57.4351C26.0871 64.0951 21.9312 67.4623 18.948 67.7421C19.7951 69.1495 20.7416 70.5135 21.7828 71.8309L21.8203 71.701C23.1542 67.0814 24.2502 63.2854 29.0676 61.9601C29.146 68.4071 25.9132 72.3842 23.0999 73.4152C24.4398 74.9494 25.9132 76.4148 27.512 77.8077C27.5016 77.5806 27.4907 77.3554 27.4799 77.1325L27.4798 77.1295H27.4798V77.1291C27.2635 72.6515 27.0859 68.9725 31.0078 66.7996C33.2154 73.127 31.0728 77.6034 28.6163 78.7415C30.1901 80.0338 31.8757 81.2596 33.6661 82.4137C33.6266 82.1285 33.5865 81.8459 33.5469 81.5664L33.5464 81.5638V81.5634C32.9169 77.1272 32.3997 73.4824 36.1028 70.937C38.9145 77.0828 37.1313 81.781 34.7546 83.0991C38.0711 85.1368 41.7267 86.9387 45.6804 88.4809V89.9999C42.0651 88.6856 38.7377 87.1704 35.7019 85.479C32.2712 90.5144 25.6049 90.4373 20.3586 88.8549C21.866 84.8516 27.1513 82.992 33.1738 83.9881C31.7363 83.0911 30.3723 82.1516 29.0824 81.173C24.5146 85.4353 17.9388 83.6239 13.1681 80.6851C15.6046 77.2077 21.1581 76.7706 26.7305 79.2754C25.2446 77.9995 23.8733 76.6666 22.6175 75.2816C17.4056 78.6857 11.225 75.7453 7.01262 72.0105C10.0274 68.9771 15.6674 69.5699 20.7882 73.1254C19.3685 71.3338 18.1294 69.4662 17.0726 67.5348C11.9398 70.5735 5.94835 67.6837 1.83427 64.0358C4.92704 60.9242 10.7826 61.6282 16.0062 65.4325C15.3783 64.0924 14.8346 62.7245 14.3758 61.3328C8.89643 63.2991 3.53628 59.4815 0.102051 55.242C3.59204 52.7345 9.12975 54.3196 13.6361 58.7813C13.3638 57.6956 13.1412 56.597 12.9687 55.4873C6.72744 55.2018 3.34308 49.0719 2.03464 43.4809C6.24526 42.8159 10.5302 46.752 12.6508 52.8006C12.4813 50.728 12.4821 48.6223 12.6547 46.4938C7.03551 44.5556 5.36353 38.4443 5.36361 32.8479C8.73845 33.3259 12.0591 37.0544 13.1705 42.5308C13.4174 41.1507 13.7352 39.7639 14.1245 38.3729C9.94948 35.5951 9.08159 28.7542 9.98706 23.734C13.3389 25.2088 15.7377 29.6378 14.9945 35.5969C15.8054 33.2601 16.8172 30.9166 18.032 28.579C13.606 26.9224 11.7338 16.8563 15.7203 14.81C18.6912 17.1425 20.2174 20.8128 18.6205 27.4759C19.7607 25.3932 21.0625 23.3167 22.5272 21.2553C18.6517 18.4354 19.7593 8.06523 24.2 7.32157C26.3009 10.3685 26.7316 14.2057 23.5795 19.8144Z" fill="#141414"/>
</g>
<g clip-path="url(#clip1)">
<path fill-rule="evenodd" clip-rule="evenodd" d="M85.0052 14.6057C84.8755 14.5088 84.7469 14.4151 84.6195 14.3244C84.6505 14.2998 84.681 14.2744 84.711 14.2483C84.8096 14.3675 84.9077 14.4866 85.0052 14.6057ZM89.7862 19.624C88.3391 17.7137 86.748 15.8183 85.0118 13.9453C87.6491 10.8884 86.0876 1.14759 82.4541 0.167969C80.9024 3.03453 80.7346 6.75617 83.5032 12.3609C82.509 11.344 81.4713 10.3344 80.39 9.33332C80.4992 9.31862 80.6091 9.30271 80.7198 9.28564C80.7199 6.76971 71.0139 -0.94025 68.0896 2.86948C70.0526 6.88904 73.8435 10.2103 80.3749 9.33536C81.6907 10.7379 82.9335 12.1339 84.1048 13.5226C84.233 13.7596 84.3662 13.9997 84.5045 14.2431C80.8194 11.6595 78.0128 11.608 73.0483 12.9752C77.2073 17.1241 83.2771 17.2942 85.6351 15.383C87.0822 17.1885 88.4086 18.9806 89.6178 20.7573C86.0043 18.1329 83.3775 17.6926 78.5965 19.369C81.9023 23.438 87.9907 23.8453 90.5481 22.1569C91.9544 24.3239 93.1859 26.4671 94.2493 28.5826C90.4107 25.4792 87.6127 23.4637 82.6652 25.1984C86.6693 31.3939 92.3123 31.4695 94.8117 29.7315C95.6064 31.4003 96.2962 33.0513 96.8843 34.6826C93.389 31.9037 90.6388 30.227 85.9942 31.8555C89.718 37.6175 94.8591 38.0861 97.5711 36.7256C98.3845 39.3351 98.9358 41.8907 99.2385 44.3849C96.2559 40.4216 94.0249 37.7717 88.8084 38.2297C91.1728 45.1243 96.4999 46.6543 99.3738 45.6794C99.5859 48.0985 99.5623 50.4577 99.3157 52.7489C99.1472 52.5184 98.9811 52.2897 98.8168 52.0637L98.8167 52.0633C96.0282 48.2249 93.7371 45.0709 88.7683 45.5076C91.0751 52.234 96.2352 54.6696 99.1588 53.9945C98.8954 55.8182 98.4892 57.5972 97.9467 59.3276C97.6698 58.953 97.4002 58.5818 97.135 58.2166H97.135C94.3465 54.3782 92.0553 51.2242 87.0866 51.6605C89.4526 58.56 94.8204 60.9448 97.6979 60.0895C97.0466 62.0084 96.2261 63.8659 95.2458 65.6565C95.1635 65.4873 95.0821 65.3195 95.0011 65.1525L94.9982 65.1465L94.9965 65.1431C92.92 60.8635 91.2138 57.347 86.2475 56.8829C87.2787 63.4789 91.4345 66.8137 94.4177 67.0909C93.5706 68.4847 92.6241 69.8357 91.5829 71.1403L91.5454 71.0117C90.2115 66.4365 89.1155 62.6771 84.2981 61.3645C84.2197 67.7495 87.4525 71.6883 90.2658 72.7094C88.9259 74.2288 87.4525 75.6802 85.8537 77.0597C85.8641 76.8348 85.875 76.6118 85.8858 76.391L85.8859 76.388H85.8859V76.3876C86.1022 71.9531 86.2799 68.3095 82.358 66.1575C80.1503 72.424 82.2929 76.8574 84.7495 77.9845C83.1757 79.2644 81.4901 80.4784 79.6997 81.6214C79.7392 81.3389 79.7792 81.0591 79.8189 80.7823L79.8193 80.7797V80.7793C80.4488 76.3857 80.9661 72.776 77.2629 70.255C74.4512 76.3417 76.2344 80.9948 78.6111 82.3002C75.2946 84.3184 71.639 86.1029 67.6854 87.6302V89.1346C71.3006 87.833 74.6281 86.3323 77.6638 84.6572C81.0945 89.6442 87.7608 89.5679 93.0072 88.0007C91.4997 84.0359 86.2145 82.1942 80.1919 83.1807C81.6294 82.2923 82.9934 81.3619 84.2833 80.3927C88.8511 84.614 95.4269 82.82 100.198 79.9094C97.7611 76.4655 92.2076 76.0326 86.6352 78.5133C88.1212 77.2496 89.4925 75.9296 90.7483 74.5579C95.9602 77.9292 102.141 75.0171 106.353 71.3182C103.338 68.314 97.6983 68.9011 92.5775 72.4225C93.9973 70.648 95.2364 68.7984 96.2931 66.8856C101.426 69.8951 107.417 67.033 111.531 63.4202C108.439 60.3385 102.583 61.0358 97.3595 64.8035C97.9874 63.4763 98.5311 62.1216 98.99 60.7432C104.469 62.6906 109.829 58.9097 113.264 54.711C109.774 52.2276 104.236 53.7975 99.7296 58.2162C100.002 57.1409 100.225 56.0529 100.397 54.954C106.638 54.6711 110.023 48.6002 111.331 43.0629C107.12 42.4044 102.835 46.3026 100.715 52.2931C100.884 50.2404 100.884 48.1549 100.711 46.0469C106.33 44.1273 108.002 38.0748 108.002 32.5322C104.627 33.0056 101.307 36.6982 100.195 42.122C99.9483 40.7552 99.6305 39.3817 99.2413 38.0041C103.416 35.253 104.284 28.4779 103.379 23.506C100.027 24.9666 97.628 29.353 98.3712 35.2548C97.5603 32.9405 96.5485 30.6195 95.3338 28.3043C99.7597 26.6637 101.632 16.6944 97.6455 14.6677C94.6745 16.9778 93.1483 20.6128 94.7452 27.2119C93.605 25.1492 92.3032 23.0927 90.8385 21.0511C94.714 18.2583 93.6064 7.98784 89.1657 7.25134C87.0649 10.269 86.6341 14.0693 89.7862 19.624Z" fill="#141414"/>
</g>
<defs>
<clipPath id="clip0">
<rect width="45.8654" height="90" fill="white"/>
</clipPath>
<clipPath id="clip1">
<rect width="45.8654" height="89.1346" fill="white" transform="matrix(-1 0 0 1 113.366 0)"/>
</clipPath>
</defs>
</svg>
