<svg width="398" height="82" viewBox="0 0 398 82" fill="none" xmlns="http://www.w3.org/2000/svg">
<path d="M171.743 20.0176V18.0882C171.743 17.6059 171.502 17.1235 170.537 17.1235C169.572 16.8823 167.401 16.8823 165.471 16.8823C160.165 16.8823 156.788 18.8117 156.788 24.8411V58.847C156.788 59.5706 157.27 60.0529 157.994 60.0529H160.647C161.371 60.0529 161.853 59.5706 161.853 58.847V32.5588H170.778C171.502 32.5588 171.743 32.0764 171.743 31.5941V29.6647C171.743 28.9411 171.261 28.7 170.778 28.7H161.612V24.8411C161.612 21.4647 162.336 20.9823 165.471 20.9823H170.537C171.261 20.7411 171.743 20.5 171.743 20.0176Z" fill="white"/>
<path d="M189.834 31.5942V28.9413C189.834 28.2177 189.351 27.9766 188.628 27.9766C183.803 27.9766 179.944 28.2177 176.808 29.6648C176.085 29.906 175.844 30.3883 175.844 30.8707V58.3648C175.844 59.0883 176.326 59.5707 176.808 59.5707H179.703C180.427 59.5707 180.668 59.0883 180.668 58.3648V33.0413C182.839 32.5589 184.768 32.5589 188.628 32.5589C189.834 32.5589 189.834 32.3177 189.834 31.5942Z" fill="white"/>
<path d="M214.679 57.6413V30.8707C214.679 30.1472 214.437 29.906 213.473 29.6649C210.337 28.9413 206.477 28.459 202.859 28.459C194.417 28.459 190.316 34.006 190.316 42.4472V46.306C190.316 54.7472 194.176 60.2943 202.859 60.2943C206.236 60.2943 210.337 59.8119 213.473 59.0884C214.437 58.606 214.679 58.3649 214.679 57.6413ZM209.613 55.4707C207.925 55.7119 205.271 55.9531 202.859 55.9531C197.311 55.9531 195.382 52.0943 195.382 46.0649V42.206C195.382 36.1766 197.07 32.3178 202.859 32.3178C205.271 32.3178 207.925 32.559 209.613 32.8002V55.4707Z" fill="white"/>
<path d="M255.926 58.606V38.106C255.926 32.3178 252.549 28.2178 245.795 28.2178H244.589C241.212 28.2178 238.8 28.7001 237.112 30.1472C235.423 28.459 233.011 28.2178 229.634 28.2178H228.428C221.674 28.2178 218.297 32.3178 218.297 38.106V58.606C218.297 59.3295 218.779 59.8119 219.262 59.8119H222.156C222.88 59.8119 223.121 59.3295 223.121 58.606V38.106C223.121 33.2825 225.292 32.559 228.187 32.559H229.393C233.011 32.559 234.217 33.2825 234.217 36.4178V58.606C234.217 59.3295 234.699 59.8119 235.182 59.8119H238.076C238.8 59.8119 239.041 59.3295 239.041 58.606V36.4178C239.041 33.2825 240.247 32.559 243.865 32.559H245.072C248.207 32.559 250.137 33.2825 250.137 38.106V58.606C250.137 59.3295 250.619 59.8119 251.102 59.8119H253.996C255.685 59.8119 255.926 59.3295 255.926 58.606Z" fill="white"/>
<path d="M283.906 44.6178V41.4825C283.906 33.5237 279.564 28.2178 271.363 28.2178C263.162 28.2178 258.579 33.2825 258.579 41.4825V46.5472C258.579 57.1589 264.85 60.2942 271.604 60.2942C275.464 60.2942 278.6 60.0531 281.735 59.3295C282.7 59.0884 282.941 58.8472 282.941 58.1237V56.1942C282.941 55.7119 282.459 55.4707 281.977 55.4707H281.735C279.082 55.9531 274.981 56.1942 271.604 56.1942C266.298 56.1942 263.644 53.7825 263.644 47.0295V45.8237H282.7C283.424 45.8237 283.906 45.3413 283.906 44.6178ZM278.841 41.9648H263.644V41.4825C263.644 35.4531 266.298 32.559 271.363 32.559C276.429 32.559 278.841 34.9707 278.841 41.4825V41.9648Z" fill="white"/>
<path d="M325.395 47.5119V29.6649C325.395 28.9413 324.913 28.459 324.189 28.459H321.536C320.812 28.459 320.33 28.9413 320.33 29.6649V47.5119C320.33 53.7825 317.917 55.9531 313.334 55.9531C311.887 55.9531 310.44 55.7119 308.751 55.2296V29.6649C308.751 28.9413 308.269 28.459 307.545 28.459H304.651C303.927 28.459 303.445 28.9413 303.445 29.6649V55.2296C301.756 55.7119 300.309 55.9531 298.862 55.9531C294.037 55.9531 291.867 53.7825 291.867 47.5119V29.6649C291.867 28.9413 291.384 28.459 290.66 28.459H288.007C287.284 28.459 286.801 28.9413 286.801 29.6649V47.5119C286.801 57.6413 292.349 60.2943 298.379 60.2943C301.274 60.2943 303.686 59.8119 305.857 58.8472C308.269 59.8119 310.44 60.2943 313.334 60.2943C319.847 60.2943 325.395 57.6413 325.395 47.5119Z" fill="white"/>
<path d="M354.582 46.306V41.9648C354.582 33.5237 350.24 28.2178 341.797 28.2178C333.355 28.2178 329.013 33.7648 329.013 41.9648V46.306C329.013 54.7472 333.355 60.0531 341.797 60.0531C350.24 60.2942 354.582 54.7472 354.582 46.306ZM349.516 46.306C349.516 52.0942 347.104 55.7119 341.797 55.7119C336.491 55.7119 334.079 52.0942 334.079 46.306V41.9648C334.079 36.1766 336.491 32.559 341.797 32.559C347.104 32.559 349.516 36.1766 349.516 41.9648V46.306Z" fill="white"/>
<path d="M372.431 31.5942V28.9413C372.431 28.2177 371.949 27.9766 371.225 27.9766C366.401 27.9766 362.542 28.2177 359.406 29.6648C358.682 29.906 358.441 30.3883 358.441 30.8707V58.3648C358.441 59.0883 358.923 59.5707 359.406 59.5707H362.3C363.024 59.5707 363.265 59.0883 363.265 58.3648V33.0413C365.436 32.5589 367.366 32.5589 371.225 32.5589C372.431 32.5589 372.431 32.3177 372.431 31.5942Z" fill="white"/>
<path d="M398 59.0882C398 58.8471 398 58.6059 397.759 58.6059L384.974 43.4118L397.518 29.9059C397.759 29.6647 397.759 29.4235 397.759 29.1824C397.759 28.9412 397.518 28.4588 396.794 28.4588H393.176C392.693 28.4588 392.452 28.4588 391.97 28.9412L380.633 41.7235V18.3294C380.633 17.6059 380.15 17.1235 379.427 17.1235H376.773C376.05 17.1235 375.567 17.6059 375.567 18.3294V58.8471C375.567 59.5706 376.05 60.0529 376.773 60.0529H379.427C380.15 60.0529 380.633 59.5706 380.633 58.8471V45.3412L391.97 59.3294C392.452 59.8118 392.693 60.0529 393.176 60.0529H397.276C397.759 59.8118 398 59.5706 398 59.0882Z" fill="white"/>
<path d="M148.345 58.3648V22.4295C148.345 21.706 147.863 21.2236 147.139 21.2236H141.833C141.109 21.2236 140.627 21.706 140.627 22.4295V58.3648C140.627 59.0884 141.109 59.5707 141.833 59.5707H147.139C147.863 59.3295 148.345 58.8472 148.345 58.3648ZM120.847 59.3295V21.4648C117.953 21.4648 113.37 23.3942 113.37 27.4942V53.3001C111.681 53.5413 109.269 53.7825 107.822 53.7825C102.997 53.7825 101.791 50.406 101.791 45.8236V27.2531C101.55 22.6707 96.4847 21.4648 94.3138 21.4648V45.5825C94.3138 54.2648 98.6556 59.8119 107.822 59.8119C109.269 59.8119 112.163 59.3295 113.37 59.0884V59.5707C114.576 67.0472 105.41 64.1531 100.585 63.6707C96.9671 63.6707 94.555 66.5648 93.8314 69.9413C96.0023 70.6648 102.756 71.3884 107.58 71.8707C116.264 72.1119 120.847 67.2884 120.847 59.3295ZM134.596 58.3648V22.4295C134.596 21.706 134.114 21.2236 133.39 21.2236H128.083C127.36 21.2236 126.877 21.706 126.877 22.4295V58.3648C126.877 59.0884 127.36 59.5707 128.083 59.5707H133.39C134.114 59.3295 134.596 58.8472 134.596 58.3648ZM130.737 11.0942C132.908 11.0942 134.596 12.7825 134.596 14.9531C134.596 17.1236 132.908 18.8119 130.737 18.8119C128.566 18.8119 126.877 17.1236 126.877 14.9531C126.877 13.0236 128.566 11.0942 130.737 11.0942ZM144.727 11.0942C146.898 11.0942 148.587 12.7825 148.587 14.9531C148.587 17.1236 146.898 18.8119 144.727 18.8119C142.556 18.8119 140.868 17.1236 140.868 14.9531C140.868 13.0236 142.556 11.0942 144.727 11.0942Z" fill="#C5CDCF"/>
<path fill-rule="evenodd" clip-rule="evenodd" d="M48.6683 23.0228C44.9007 12.1501 55.913 0.494129 64.9719 0.146461C70.4 2.9778 75.0606 10.413 74.8275 20.5026C74.1163 32.9331 65.3196 43.6461 55.7471 53.5161C55.2127 41.4808 52.6579 33.809 48.6683 23.0228Z" fill="#9BE400"/>
<path fill-rule="evenodd" clip-rule="evenodd" d="M27.3105 81.8975C25.7952 69.7609 30.723 59.4078 35.6142 53.0949C37.9384 50.1306 39.7246 47.4262 41.085 44.9352C43.6544 46.0477 50.5611 49.6707 54.3665 55.553C53.8138 64.086 47.5073 79.6151 27.3105 81.8975Z" fill="#3E7FCA"/>
<path fill-rule="evenodd" clip-rule="evenodd" d="M19.6793 35.8018C3.60505 31.3066 -0.360136 17.1877 0.357258 7.69216C15.9667 1.36588 32.7657 7.84586 42.4651 21.3524C49.2657 30.8186 53.5237 42.9552 54.3875 53.5474C49.722 47.3906 43.8291 43.8237 36.3233 41.0302C31.1893 39.1211 26.447 37.8561 19.6793 35.8018Z" fill="#E4B200"/>
</svg>
