<svg width="200" height="55" viewBox="0 0 200 55" fill="none" xmlns="http://www.w3.org/2000/svg"><path d="M96.187 16.554c0-.317-.211-.422-.422-.422h-6.642c-.317 0-.528.21-.633.422L78.263 42.175c-.211.316.105.738.421.738h6.01c.316 0 .527-.21.633-.527l4.955-14.972.317 14.972c0 .316.21.527.421.527h5.694c.316 0 .738-.316.738-.738l-1.265-25.621zM71.515 32.58h-6.01c-.317 0-.422-.316-.317-.632l.844-5.167c0-.316.316-.633.527-.633h6.115v-1.159c0-.317-.105-.527-.21-.844-.106-.316-.211-.422-.317-.738-.105-.21-.316-.422-.316-.633-.211-.21-.317-.316-.527-.421-.211-.106-.422-.317-.739-.317-.316-.105-.527-.105-.843-.105h-.843c-.317 0-.528.105-.844.105-.316.106-.422.106-.738.211-.316.106-.422.211-.633.317h-.105c-.316.105-.527-.106-.527-.422l-.211-4.534c-.106-.316.105-.633.316-.738.211-.105.422-.21.738-.316.317-.106.527-.211.844-.317.316-.105.632-.21.843-.316a2.53 2.53 0 0 1 .95-.21c.316-.106.737-.106 1.053-.212.317 0 .739-.105 1.16-.105.633 0 1.266.105 1.793.21.527.106 1.054.317 1.476.422.422.211.843.422 1.265.739.317.316.738.632 1.055.948.316.317.527.738.843 1.16.316.422.422.844.633 1.371.21.422.316.843.316 1.476.105.422.21.949.316 1.476.106.527.106 1.055.106 1.476v1.476c0 .528-.106 1.055-.211 1.582-.106.527-.211.949-.316 1.476v.106c-.211 1.054-.422 2.003-.739 3.057-.316.95-.632 1.898-1.054 2.636a16.777 16.777 0 0 1-1.37 2.32c-.528.738-.95 1.37-1.582 1.898a12.137 12.137 0 0 1-1.793 1.476c-.632.422-1.265.843-2.003 1.054-.738.317-1.37.528-2.003.633-.633.527-1.265.527-2.003.527-.317 0-.739 0-1.055-.105-.316 0-.738-.106-.949-.106-.316-.105-.633-.105-.843-.21a5.127 5.127 0 0 1-.738-.317l-.633-.316c-.21-.106-.316-.211-.527-.317-.211-.105-.317-.421-.211-.738l1.898-4.85v-.105c.21-.317.422-.422.738-.317.21.106.316.211.527.317.21.105.316.105.633.21.21.106.421.106.738.106h.738c.316 0 .843 0 1.054-.105.317-.106.633-.211.844-.317.316-.21.527-.316.843-.421.317-.211.422-.317.633-.633.21-.316.316-.422.527-.738.21-.316.316-.527.422-.844.21-.316.316-.632.316-.843l.105.316zm38.801-6.642h5.061c.316 0 .421.316.316.632l-.844 4.85c0 .317-.316.633-.527.633h-5.061l-.843 4.64h5.693c.317 0 .422.316.317.632l-.844 5.06c0 .317-.316.634-.527.634h-12.125c-.317 0-.422-.317-.317-.633l4.534-25.622c0-.316.316-.632.527-.632h11.809c.317 0 .422.316.317.633l-.844 5.06c0 .317-.316.633-.527.633h-5.377l-.738 3.48zm28.468 16.975h-5.167c-.316 0-.421-.316-.421-.632l.948-8.014a7.306 7.306 0 0 0 .211-1.687l.106-.632.105-.739-.105.317-.422 1.16-.105.316c-.211.422-.317.843-.422 1.16l-3.163 7.802c-.106.317-.317.422-.527.422h-4.323c-.317 0-.422-.211-.422-.422l-.316-7.802v-3.269l-.317 1.16-.316 1.265-.316 1.055-1.898 8.013c-.106.316-.317.527-.527.527h-5.061c-.317-.105-.422-.316-.317-.738l6.537-25.621c.106-.317.317-.527.528-.527h6.115c.316 0 .422.21.422.421l.211 8.224c0 1.476.105 2.636.105 3.69v2.426c.211-.422.316-.95.527-1.476.316-.738.527-1.477.844-2.32.316-.844.527-1.582.843-2.32l3.163-8.224c.106-.316.317-.422.527-.422h6.116c.316 0 .422.317.422.633l-2.953 25.622c-.105.316-.316.632-.632.632zm13.707-16.975h5.061c.316 0 .421.316.316.632l-.844 4.85c0 .317-.316.633-.527.633h-5.061l-.843 4.64h5.693c.317 0 .422.316.317.632l-.844 5.06c0 .317-.316.634-.527.634h-12.125c-.317 0-.422-.317-.317-.633l4.534-25.622c0-.316.317-.632.527-.632h11.809c.317 0 .422.316.317.633l-.844 5.06c0 .317-.316.633-.527.633h-5.377l-.738 3.48zm6.748 16.237l4.533-25.621c0-.317.317-.633.528-.633h5.904c.316 0 .422.316.316.633l-1.476 9.49h3.269L174 16.658c0-.316.316-.633.527-.633h5.905c.316 0 .421.317.316.633l-4.534 25.622c0 .316-.316.632-.527.632h-5.905c-.316 0-.421-.316-.316-.632l1.687-9.49h-3.268l-1.687 9.595c0 .316-.317.633-.528.633h-5.904c-.316-.211-.527-.422-.527-.844zm30.366.738H183.7c-.316 0-.422-.316-.316-.632l3.479-19.506h-3.901c-.316 0-.422-.317-.316-.633l.949-5.483c0-.316.316-.633.527-.633h14.761c.317 0 .422.317.317.633l-.949 5.483c0 .316-.317.633-.528.633h-4.006l-3.48 19.506c-.105.316-.421.632-.632.632z" fill="#141414"/><path fill-rule="evenodd" clip-rule="evenodd" d="M24.7 54.617C9.623 54.617-1.343 42.49.133 27.308 1.715 12.125 15 0 30.183 0h29.522l-4.85 27.308C52.114 42.281 39.778 54.617 24.7 54.617zm6.643-37.852l-.844 3.163c2.215 0 4.745 1.16 6.221 2.53 1.793 2.004 2.32 4.745 1.793 8.119-1.477 8.54-8.435 12.442-16.238 12.23h-6.01l1.37-7.485h6.538c2.741 0 4.534-1.477 4.956-4.007.632-4.323-3.48-4.85-6.643-4.428-.21 0-.422 0-.527-.211-.106-.106-.211-.317-.106-.527l3.163-16.976c.106-.316.528-.633.844-.633h17.608l-1.476 8.225h-10.65z" fill="#141414"/></svg>