<svg width="135" height="49" viewBox="0 0 135 49" fill="none" xmlns="http://www.w3.org/2000/svg"><path d="M33.74 20.321c.627.3 1.09.49 1.525.708 6.098 2.831 9.066 8.058 8.494 14.973-.49 5.717-4.546 10.427-10.617 12.06-4.846 1.307-9.638.98-14.075-1.551-1.715-.98-3.05-2.287-2.995-4.52.055-1.905 1.743-3.566 4.138-4.056 1.988-.408 3.43.354 4.302 2.205 1.36 2.913 4.41 3.567 6.915 1.443 1.878-1.606 2.559-3.784 2.423-6.098-.137-1.906-.49-3.893-1.226-5.635-1.28-3.077-3.702-4.71-7.16-4.601a50.43 50.43 0 0 1-2.858 0c-1.797-.055-2.886-.899-3.076-2.287-.245-1.824.653-3.54 2.232-4.084a5.4 5.4 0 0 1 1.47-.272c3.322-.245 4.873-1.715 5.282-5.036.435-3.54-1.715-6.37-5.282-6.806-1.524-.19-3.076-.164-4.6-.19-1.689 0-2.097.407-2.097 2.068 0 8.113-.027 16.226.027 24.366 0 1.878-.435 3.403-2.26 4.247-2.041.952-4.11 1.17-6.07-.191-1.116-.762-1.416-1.906-1.443-3.212-.136-8.358-.327-16.689-.49-25.02-.027-1.96-.327-2.259-2.314-2.286h-.68C1.261 6.49.118 5.62.01 4.04-.126 1.972 1.126.311 3.06.04c.299-.054.625-.027.952-.027 6.262 0 12.523-.027 18.785 0 3.784.027 7.187 1.225 10.263 3.43 5.173 3.73 6.234 11.598 1.307 16.144-.19.218-.327.436-.626.735zm41.98 7.813c0-5.499-.027-10.97 0-16.47.027-3.05 1.879-4.982 4.846-5.09 2.042-.083 3.457.925 3.757 2.94.245 1.687.19 3.43.163 5.145-.054 5.227-.163 10.426-.218 15.653 0 .518.191 1.389.49 1.525.463.163 1.198-.055 1.716-.327 1.878-1.007 3.648-2.205 5.553-3.13 1.852-.926 3.24-.6 3.975.653.79 1.361.327 3.24-1.17 4.328-1.198.872-2.505 1.634-3.73 2.478-1.498 1.034-1.743 2.287-.79 3.866 1.17 1.905 2.832 3.158 5.064 3.593 3.376.654 5.907-1.198 6.37-4.628.79-6.098 4.628-9.855 10.863-10.508a23.625 23.625 0 0 1 4.601-.027c1.606.136 2.45 1.252 2.45 2.75 0 1.333-.817 2.232-2.396 2.476-.98.164-1.987.137-2.967.354-2.26.545-3.594 2.26-3.703 4.465-.082 2.178 1.225 4.22 3.185 4.9 2.042.708 4.383.028 5.608-1.932.654-1.035 1.008-2.315 1.226-3.54.381-2.34 1.415-3.675 3.403-4.002 2.096-.353 3.675.817 3.92 2.94.163 1.335.218 2.723.517 4.03.436 1.797 1.579 2.613 3.43 2.75.218.027.463 0 .681.027 1.225.19 2.178.762 2.396 2.041.217 1.307-.463 2.26-1.607 2.696-2.94 1.116-5.826.898-8.385-1.008-1.034-.79-1.742-.816-2.885-.245-5.472 2.777-10.89 2.668-16.117-.707-.79-.518-1.416-.708-2.314-.055-5.281 3.839-12.414 3.512-17.532-.708-1.715-1.415-1.879-1.36-2.696.627-.789 2.014-2.64 3.049-4.655 2.64-1.878-.38-3.049-1.906-3.049-4.083V28.134zM55.493 35.24c0 1.17-.055 2.369 0 3.54.109 2.15 1.442 3.865 3.212 4.246 2.341.49 4.492-1.034 4.737-3.648.218-2.15.082-4.356.163-6.506.11-2.913 1.743-4.601 4.629-4.846 2.177-.19 3.892.925 4.001 3.13.137 2.968.191 6.017-.353 8.903-.899 4.737-5.228 8.167-10.182 8.657-3.349.327-6.589.027-9.556-1.797-3.62-2.205-5.254-5.526-5.472-9.61-.109-1.797-.082-3.648.163-5.417.382-2.886 3.757-4.765 6.425-3.648 1.525.626 2.07 1.96 2.178 3.484.082 1.144.027 2.341.055 3.512-.028 0 0 0 0 0z" fill="#000"/></svg>