<svg width="83" height="15" viewBox="0 0 83 15" fill="none" xmlns="http://www.w3.org/2000/svg"><path fill-rule="evenodd" clip-rule="evenodd" d="M16.471 14.343H3.775c0-.053-.033-.04-.078-.023a.27.27 0 0 1-.094.023 6.623 6.623 0 0 0-.429-.066c-.286-.039-.572-.077-.858-.191-.772-.258-1.458-.687-1.887-1.459a5.653 5.653 0 0 1-.257-.686 2.667 2.667 0 0 1-.086-.343c-.022-.107-.043-.215-.086-.343V4.049c.086-.086.086-.258.086-.344.171-1.115.772-1.973 1.801-2.402.687-.257 1.459-.343 2.23-.343H16.3c.171 0 .257.086.257.258v2.316c0 .257-.086.257-.257.257H4.718c-.514 0-.686.172-.686.686v6.263c0 .429.172.686.6.686h7.807c.086 0 .172 0 .172-.171v-2.06c0-.17 0-.17-.172-.17H6.52c-.343 0-.429 0-.429-.43V6.451c0-.172 0-.258.043-.3.043-.044.129-.044.3-.044h9.694c.343 0 .343.086.343.344v7.463c.172.172.172.343 0 .43zm34.316 0H39.72c-.429 0-.858-.086-1.372-.257-1.116-.258-1.716-1.03-2.06-2.06a5.063 5.063 0 0 1-.17-1.2V4.392c0-.515.085-1.03.256-1.459.344-.772.858-1.372 1.716-1.63.686-.257 1.373-.343 2.145-.343H50.7c.258 0 .258.086.258.258v2.23c0 .257-.086.343-.344.343h-9.95c-.43.086-.6.172-.6.6v1.46c0 .085 0 .128.02.15.022.02.065.02.15.02h9.952c.344 0 .43 0 .43.43v1.973c0 .257 0 .386-.065.45-.064.064-.193.064-.45.064H40.063c-.085 0-.085 0-.085.086v1.802c0 .257.085.343.343.429.086 0 .15.021.214.043.065.021.129.043.215.043h9.78c.257 0 .257.085.257.257v2.316c.172.258.086.343 0 .43zm-27.967 0H33.8c.135-.067.164-.134.211-.242.014-.03.028-.063.047-.101v-2.316c0-.258-.086-.343-.343-.343H23.678c-.343 0-.515-.172-.515-.515V9.11c0-.086 0-.086.086-.086H33.2c.515 0 .515-.086.515-.514V6.536c0-.214 0-.321-.054-.375-.053-.054-.16-.054-.375-.054H23.42c-.064 0-.112.006-.148.01-.109.012-.109.012-.109-.181V4.563c0-.514.172-.686.686-.686h9.609c.514 0 .514-.086.514-.515V1.303c0-.257 0-.343-.257-.343h-10.38c-.687 0-1.459.086-2.145.343-1.115.43-1.716 1.287-1.888 2.402-.085.258-.085.6-.085.858v6.263c0 .6.171 1.115.343 1.63.343.858 1.03 1.372 1.887 1.63.43.171.858.257 1.287.257 0 0 .086-.086.086 0zm47.956 0c-.172-.086-.172-.257-.172-.429V9.968c0-.086 0-.172-.086-.257L67.945 6.88c-.687-.687-1.287-1.373-1.888-2.06a22.754 22.754 0 0 1-.986-1.072c-.322-.364-.644-.729-.987-1.072a7.399 7.399 0 0 0-.557-.6 7.4 7.4 0 0 1-.558-.601.482.482 0 0 1-.07-.094c-.028-.045-.049-.078-.102-.078-.085-.171-.085-.257.172-.343h3.86c.515 0 .858.343 1.202.686.343.344.664.708.986 1.073.322.364.644.729.987 1.072.771.772 1.543 1.63 2.315 2.487v.001l.344.343c.043.043.064.065.086.065.021 0 .043-.022.086-.065.171-.214.364-.407.557-.6a7.38 7.38 0 0 0 .558-.6c.686-.773 1.373-1.545 2.145-2.231.257-.258.514-.537.772-.815.257-.28.514-.558.772-.815.257-.343.686-.515 1.115-.515h3.861c.212-.07.19.092.177.2-.003.022-.006.042-.006.057-.086.172-.257.343-.429.515a2.293 2.293 0 0 1-.3.343 2.298 2.298 0 0 0-.3.343c-.344.343-.665.708-.987 1.073-.322.364-.643.729-.986 1.072-.344.343-.665.708-.987 1.072-.322.365-.644.73-.987 1.073-.277.277-.54.568-.8.857-.385.425-.764.844-1.173 1.202-.171.171-.322.343-.472.514-.15.172-.3.344-.471.515-.086.086-.086.086-.086.172v4.032c0 .171 0 .343-.172.429-1.458-.172-2.659-.172-3.86-.172zm-14.756-.086c.257 0 .515 0 .772.086 3.603 0 7.292 0 10.724.086.171-.086.257-.172.257-.343v-2.06c0-.514 0-.514-.515-.514h-9.437c-.257-.086-.428-.257-.428-.515V1.303c0-.171-.086-.257-.258-.257H53.79c-.172 0-.258.086-.258.257v9.008c0 .515 0 .944.086 1.373.086.514.171 1.03.515 1.458.429.687 1.115.944 1.887 1.115z" fill="#fff"/></svg>