<svg width="59" height="50" viewBox="0 0 59 50" fill="none" xmlns="http://www.w3.org/2000/svg"><path fill-rule="evenodd" clip-rule="evenodd" d="M11.36 18.125c6.03-.223 13.741-.462 18.359-.462 4.685 0 12.554.246 18.621.471l-.028-.01s-.029-.028-.029-.057C45.473 10.934 38.27 5.852 29.836 5.852c-8.462 0-15.665 5.111-18.476 12.273zm43.375.278c1.154.133 1.74.219 2.245.357 1.669.375 2.02.953 2.02 2.137v7.999c0 1.155-1.26 1.963-2.138 2.108-.824.162-1.365.223-2.178.302-3.002 10.46-13.005 18.15-24.877 18.15-11.877 0-21.855-7.667-24.88-18.134h-.01c-.907-.087-1.463-.145-2.342-.318-.878-.145-2.137-.953-2.137-2.108v-8c0-1.183.351-1.76 2.02-2.136.527-.144 1.142-.231 2.401-.375C7.787 7.815 17.86.019 29.807.019c11.917 0 21.96 7.739 24.918 18.308 0 .04 0 .052.01.076zm-4.132 13.145h.005a20.2 20.2 0 0 1-.337.879c.117-.29.228-.583.332-.88zm-20.884.669c6.178 0 13.124-.274 18.446-.542-.004.016-.016.04-.028.065-.015.029-.03.058-.03.072-2.928 6.93-10.014 11.84-18.3 11.84-8.345 0-15.46-4.967-18.36-11.955a3.616 3.616 0 0 1-.056-.015c5.305.265 12.2.535 18.328.535zM41.11 21.708c.162.103.239.338.497.893.117.269.552 1.2 1.025 2.212.592 1.266 1.243 2.658 1.405 3.043.077.178.042.177-.127.174h-1.688c-.088 0-.176-.03-.205-.116 0-.027-.172-.415-.425-.99a89.756 89.756 0 0 0-.073-.165h-3.777c-.293.664-.527 1.155-.527 1.155-.03.058-.088.115-.205.115h-1.552c-.234 0-.322 0-.176-.288l.03-.058c.732-1.588 2.46-5.4 2.46-5.4.166-.343.214-.51.325-.59.123-.09.322-.074.845-.074.264-.03.322-.03.645-.03.322 0 .556 0 .644.03.507.014.73-.006.88.09zm-1.816 1.441c0 .03-.469 1.126-.966 2.253h2.605a55.345 55.345 0 0 0-.624-1.483c-.145-.335-.26-.6-.313-.74-.029-.087-.087-.116-.146-.116-.03-.03-.117-.03-.176-.03-.087 0-.175 0-.205.03-.087 0-.146.029-.175.086zM17.8 21.705c0-.115-.029-.173-.175-.173h-1.581c-.118 0-.147.058-.147.173v6.065c0 .173.03.202.205.202h1.493c.176 0 .205-.058.205-.203v-6.064zm-3.162.087c0-.144-.03-.202-.205-.202h-1.288c-.176 0-.205.058-.205.202v4.822s-2.606-3.956-2.928-4.476c-.39-.55-.542-.55-1.518-.548H6.85c-.175 0-.205.058-.205.202v6.035c0 .173.03.202.205.202h1.29c.175 0 .205-.029.205-.202v-4.736s2.166 3.264 2.87 4.36c.35.578.438.578 1.463.578h1.757c.176 0 .205-.029.205-.202v-6.035zm38.358 0c0-.144-.029-.202-.205-.202h-1.288c-.176 0-.205.058-.205.202v4.822s-2.577-3.956-2.928-4.476c-.39-.55-.542-.55-1.518-.548H45.21c-.176 0-.205.058-.205.202v6.035c0 .173.029.202.205.202h1.288c.176 0 .205-.029.205-.202v-4.736s2.137 3.264 2.87 4.36c.35.578.439.578 1.463.578h1.757c.176 0 .205-.029.205-.202v-6.035zM26.44 25.43c-.234-1.068-1.083-1.27-2.225-1.386a73.985 73.985 0 0 0-.754-.06c-.761-.06-1.738-.138-2.116-.2-.204-.028-.292-.144-.292-.288v-.26c.029-.202.117-.289.322-.289h4.597c.175.029.234-.029.234-.173v-1.04c0-.144-.058-.173-.234-.173h-4.685c-1.23 0-1.903.433-2.108 1.328-.03.203-.03.462-.03.636 0 .202 0 .433.03.606.058.52.41 1.097 1.815 1.242a88.25 88.25 0 0 0 3.25.288c.25.028.29.186.318.3l.004.018v.433c-.029.145-.088.202-.292.202h-4.89c-.176 0-.205.03-.205.203v1.01c0 .173.029.202.205.202h4.831c1.23 0 1.991-.202 2.196-1.212.059-.232.059-.491.059-.694a8.28 8.28 0 0 0-.022-.539 3.142 3.142 0 0 1-.008-.154zm8.287 0c-.234-1.068-1.084-1.27-2.225-1.386-.19-.017-.48-.04-.808-.067-.74-.059-1.668-.133-2.033-.192-.234-.03-.293-.145-.293-.29v-.259c.03-.202.118-.289.323-.289h4.597c.175.029.234-.029.234-.173v-1.04c0-.144-.059-.173-.234-.173h-4.685c-1.23 0-1.904.433-2.108 1.328-.03.202-.03.462-.03.636 0 .202 0 .433.03.606.087.52.41 1.097 1.815 1.242a88.27 88.27 0 0 0 3.25.288c.234.03.293.203.322.318v.433c-.03.145-.088.202-.293.202h-4.89c-.175 0-.204.03-.204.203v1.01c0 .173.029.202.204.202h4.803c1.23 0 1.99-.202 2.196-1.212.058-.232.058-.491.058-.694a8.28 8.28 0 0 0-.021-.539 2.613 2.613 0 0 1-.008-.154z" fill="#fff"/></svg>