<svg width="120" height="33" viewBox="0 0 120 33" fill="none" xmlns="http://www.w3.org/2000/svg"><path d="M57.79 9.946c0-.19-.127-.254-.254-.254h-3.99a.428.428 0 0 0-.38.254L47.02 25.339c-.127.19.063.443.253.443h3.61c.19 0 .318-.126.38-.316l2.978-8.996.19 8.996c0 .19.127.316.254.316h3.42c.19 0 .444-.19.444-.443l-.76-15.393zm-14.824 9.628h-3.61c-.19 0-.254-.19-.19-.38l.506-3.104c0-.19.19-.38.317-.38h3.674v-.697c0-.19-.063-.316-.127-.506-.063-.19-.126-.254-.19-.444-.063-.127-.19-.253-.19-.38-.126-.127-.19-.19-.316-.253-.127-.064-.254-.19-.444-.19-.19-.064-.316-.064-.507-.064h-.506c-.19 0-.317.064-.507.064-.19.063-.253.063-.444.126-.19.064-.253.127-.38.19h-.063c-.19.064-.317-.063-.317-.253l-.126-2.724c-.064-.19.063-.38.19-.443.126-.064.253-.127.443-.19.19-.064.317-.127.507-.19.19-.064.38-.127.507-.19.126-.064.38-.127.57-.127.19-.064.443-.064.633-.127.19 0 .444-.063.697-.063.38 0 .76.063 1.077.126.317.064.633.19.887.254.253.127.507.253.76.443.19.19.443.38.633.57.19.19.317.444.507.697.19.254.254.507.38.824.127.253.19.506.19.887.064.253.127.57.19.886.064.317.064.634.064.887v.887c0 .317-.064.634-.127.95-.063.317-.127.57-.19.887v.064a19.358 19.358 0 0 1-.443 1.837c-.19.57-.38 1.14-.634 1.583-.253.507-.507.95-.823 1.394-.317.444-.57.823-.95 1.14a7.298 7.298 0 0 1-1.078.887c-.38.253-.76.507-1.203.634-.444.19-.824.316-1.204.38-.38.316-.76.316-1.203.316-.19 0-.444 0-.634-.063-.19 0-.443-.063-.57-.063-.19-.064-.38-.064-.507-.127a3.086 3.086 0 0 1-.443-.19l-.38-.19c-.127-.063-.19-.127-.317-.19s-.19-.253-.127-.444l1.14-2.913v-.064c.127-.19.254-.253.444-.19.127.064.19.127.317.19.126.064.19.064.38.127.127.063.253.063.443.063h.444c.19 0 .507 0 .633-.063.19-.063.38-.127.507-.19.19-.127.317-.19.507-.254.19-.126.253-.19.38-.38s.19-.253.317-.443c.126-.19.19-.317.253-.507.127-.19.19-.38.19-.507l.063.19zm23.312-3.99h3.041c.19 0 .253.19.19.38l-.507 2.914c0 .19-.19.38-.316.38h-3.041l-.507 2.787h3.42c.19 0 .254.19.19.38l-.506 3.04c0 .19-.19.38-.317.38H60.64c-.19 0-.253-.19-.19-.38l2.724-15.393c0-.19.19-.38.317-.38h7.095c.19 0 .253.19.19.38l-.507 3.04c0 .191-.19.381-.317.381h-3.23l-.444 2.09zm17.104 10.198h-3.104c-.19 0-.253-.19-.253-.38l.57-4.814c.063-.253.127-.634.127-1.014l.063-.38.063-.443-.063.19-.254.697-.063.19c-.127.253-.19.507-.253.697l-1.9 4.687c-.064.19-.19.254-.317.254H75.4c-.19 0-.253-.127-.253-.254l-.19-4.687V18.56l-.19.697-.19.76-.19.633-1.14 4.815c-.064.19-.19.316-.317.316h-3.041c-.19-.063-.253-.19-.19-.443l3.928-15.393c.063-.19.19-.317.316-.317h3.675c.19 0 .253.127.253.253l.127 4.941c0 .887.063 1.584.063 2.218v1.456c.127-.253.19-.57.317-.886.19-.444.316-.887.507-1.394.19-.507.316-.95.506-1.394l1.9-4.94c.064-.19.19-.254.317-.254h3.675c.19 0 .253.19.253.38l-1.774 15.393c-.063.19-.19.38-.38.38zm8.235-10.198h3.041c.19 0 .253.19.19.38l-.507 2.914c0 .19-.19.38-.316.38h-3.041l-.507 2.787h3.42c.19 0 .254.19.19.38l-.506 3.04c0 .19-.19.38-.317.38H85.98c-.19 0-.253-.19-.19-.38l2.724-15.393c0-.19.19-.38.317-.38h7.095c.19 0 .253.19.19.38l-.507 3.04c0 .191-.19.381-.317.381h-3.23l-.444 2.09zm4.055 9.755l2.724-15.393c0-.19.19-.38.316-.38h3.548c.19 0 .253.19.19.38l-.887 5.7h1.964l1.013-5.637c0-.19.19-.38.317-.38h3.547c.19 0 .254.19.19.38l-2.723 15.393c0 .19-.191.38-.317.38h-3.548c-.19 0-.253-.19-.19-.38l1.014-5.7h-1.964l-1.013 5.764c0 .19-.19.38-.317.38h-3.548c-.19-.127-.316-.254-.316-.507zm18.244.443h-3.548c-.19 0-.253-.19-.19-.38l2.091-11.719h-2.344c-.19 0-.254-.19-.19-.38l.57-3.294c0-.19.19-.38.317-.38h8.868c.19 0 .254.19.19.38l-.57 3.294c0 .19-.19.38-.317.38h-2.407l-2.09 11.72c-.064.19-.254.38-.38.38z" fill="#141414"/><path fill-rule="evenodd" clip-rule="evenodd" d="M14.84 32.814C5.781 32.814-.807 25.53.08 16.407 1.03 7.285 9.012 0 18.134 0h17.737l-2.914 16.407C31.31 25.402 23.9 32.814 14.84 32.814zm3.991-22.742l-.507 1.9c1.33 0 2.85.697 3.738 1.521 1.077 1.204 1.393 2.85 1.077 4.878-.887 5.131-5.068 7.475-9.756 7.348h-3.61l.823-4.498h3.927c1.647 0 2.724-.886 2.978-2.407.38-2.597-2.09-2.914-3.991-2.66-.127 0-.254 0-.317-.127-.063-.063-.127-.19-.063-.317l1.9-10.199c.063-.19.317-.38.507-.38h10.579l-.887 4.941h-6.398z" fill="#141414"/></svg>