<svg width="144" height="16" viewBox="0 0 144 16" fill="none" xmlns="http://www.w3.org/2000/svg"><path fill-rule="evenodd" clip-rule="evenodd" d="M0 0h16.194v2.805c-2.051.121-6.417.756-6.908 4.675-.306 2.444 1.674 3.82 2.37 4.304.073.05.132.092.172.123 1.152.63 2.683 1.01 4.366 1.085v3.002H5.258c.542-.68 1.12-1.567 1.679-2.626.392-.745 1.151-2.892 1.14-4.676-.006-.75-.053-1.506-.433-1.94-.514-.588-1.537-.547-2.162-.444C3.495 6.638 1.484 8.086 0 9.945V0zm0 11.197v4.797h5.151l.03-.057c.605-1.19 1.436-2.823 1.838-4.428.386-1.524.573-3.025-.193-3.752-.555-.525-1.555-.187-2.221.039l-.023.007C3.419 8.19 1.017 9.703 0 11.197zm16.194 1.034V4.5c-1.952-.045-4.231.405-5.347 1.519-.748.75-.912 2.037-.456 3.047 1.034 2.28 3.869 2.938 5.803 3.163zM7.556.38a.207.207 0 0 0-.058-.064.345.345 0 0 0-.105-.023c-.094.035-.094.121-.094.139l.02.542c.074 1.881.154 3.942-1.779 3.937-1.262-.006-2.653-.895-3.874-2.505l-.078-.1c-.196-.256-.464-.604-.706-.726-.21-.11-.613.173-.438.624.485 1.246 1.993 2.4 2.437 2.672.953.594 2.992 1.062 4.027.23 1.26-1.013.965-3.033.807-4.113L7.69.83C7.656.606 7.615.46 7.556.38z" fill="#141414"/><path d="M142.381 6.696c0-.578-.941-1.201-2.361-1.201h-10.765v2.401h10.765c1.42 0 2.361-.629 2.361-1.2zm1.619 0c0 1.546-1.782 2.799-3.98 2.799h-10.765v2.915h-1.618V3.896h12.383c2.198 0 3.98 1.247 3.98 2.8zM124.206 8.15c0-1.431-2.613-2.88-7.603-2.88-4.991 0-7.604 1.449-7.604 2.88 0 1.137 3.034 2.851 7.604 2.851s7.603-1.714 7.603-2.85zm-7.603-4.479c6.095 0 9.222 2.014 9.222 4.48 0 2.464-4.132 4.45-9.222 4.45-5.096 0-9.222-1.986-9.222-4.45 0-2.466 3.132-4.48 9.222-4.48zm-9.222.225h-16.41v1.599h7.398v6.915h1.618V5.495h7.4V3.896h-.006zM88.878 8.9L85.19 5.564 81.503 8.9h7.375zm1.77 1.6h-10.91l-2.116 1.91h-2.396l9.965-9.016 9.964 9.016h-2.396l-2.11-1.91zM74.84 7.52h-9.678v1.6h8.06v.802c-1.32.618-3.466 1.08-6.13 1.08-4.57 0-7.604-1.715-7.604-2.852 0-1.431 2.612-2.88 7.603-2.88 3.185 0 5.4.589 6.587 1.39l.9-1.327c-1.52-1.01-4.022-1.662-7.487-1.662-6.095 0-9.222 2.014-9.222 4.48 0 2.464 4.132 4.45 9.222 4.45 3.25 0 6.107-.67 7.75-1.796V7.521zM38.075 3.896l-7.03 6.62-7.037-6.62h-1.999v8.514h1.619V5.853l6.966 6.557h.894l6.967-6.557v6.557h1.619V3.896h-2zm6.014 1.599v1.674H55.84v1.599H44.089v2.043h12.266v1.599H42.47V3.896h13.885v1.599H44.09z" fill="#141414"/></svg>