<svg width="111" height="33" viewBox="0 0 111 33" fill="none" xmlns="http://www.w3.org/2000/svg"><path fill-rule="evenodd" clip-rule="evenodd" d="M16.072 0C7.196 0 0 7.196 0 16.072c0 8.877 7.196 16.073 16.072 16.073h78.856c8.876 0 16.072-7.196 16.072-16.073C111 7.196 103.804 0 94.928 0H16.072zm2.19 11.02h4.105v10.577h2.224V11.02h4.104V8.94H18.262v2.08zm14.922 0h4.105v10.577h2.224V11.02h4.104V8.94H33.184v2.08zM59.99 8.94v12.657h-1.772l-6.962-8.77v8.77h-2.08V8.94h1.773l6.961 8.806V8.94h2.08zm15.295 0v11.952c.41.265.928.482 1.555.651a7.408 7.408 0 0 0 1.899.253c1.422 0 2.55-.398 3.381-1.193.844-.796 1.266-1.863 1.266-3.2 0-1.242-.35-2.237-1.049-2.984-.687-.771-1.627-1.157-2.82-1.157-.844 0-1.562.235-2.152.705V8.94h-2.08zm2.08 7.052c.446-.518 1-.778 1.663-.778.627 0 1.14.205 1.537.615.398.41.597.983.597 1.718 0 .711-.217 1.278-.651 1.7-.422.41-.977.614-1.664.614a2.752 2.752 0 0 1-1.482-.415v-3.454zm13.891-2.531h2.369l-3.2 8.136c-.58 1.41-1.098 2.363-1.556 2.857-.446.506-.976.76-1.59.76-.58 0-1.164-.211-1.755-.633l.67-1.573c.313.193.596.289.85.289.493 0 .91-.422 1.247-1.266l.18-.434-3.76-8.136h2.495l1.898 4.448c.025.06.157.452.398 1.175.073-.446.169-.844.29-1.193l1.464-4.43zm-25.46 1.105h3.516v3.515h-3.516v-3.515z" fill="#141414"/></svg>