<svg width="135" height="65" viewBox="0 0 135 65" fill="none" xmlns="http://www.w3.org/2000/svg"><path d="M41.513 41.866h8.53v2.762h-4.058v19.407h-4.472V41.866zM55.1 55.712l.766-11.084h.257l.766 11.084h-1.79zm-4.953 8.323h4.378l.415-5.888h2.108l.417 5.888h4.377l-2.333-22.169h-7.03l-2.332 22.169zm18.099-7.759v4.179c0 .563.44.727.697.727a.716.716 0 0 0 .715-.727v-5.16c0-.691-.128-1.454-1.797-1.454h-1.815v-2.435h1.889c1.265 0 1.723-.291 1.723-1.654v-4.397a.716.716 0 0 0-.715-.727c-.257 0-.697.145-.697.727v3.616h-4.474v-3.144c0-1.544.184-3.961 3.32-3.961h3.703c3.135 0 3.337 2.417 3.337 3.961v3.544c0 2.416-1.705 3.07-3.044 3.016v.218c3.007-.073 3.044 2.217 3.044 2.998v4.47c0 1.563-.202 3.962-3.337 3.962h-3.704c-3.135 0-3.319-2.399-3.319-3.962v-3.797h4.474zm8.82-14.41h10.36v22.169h-4.474V44.628H81.54v19.407h-4.474V41.866zm17.767 12.193v-9.431h.587c.477 0 .825.4.825 1.108v7.214c0 .709-.348 1.109-.825 1.109h-.587zm-4.474 9.976h4.474v-7.541H97.4c3.117 0 3.319-2.399 3.319-3.962v-6.705c0-1.544-.202-3.961-3.319-3.961h-7.04v22.169zm19.18-3.58a.717.717 0 0 1-.715.727c-.257 0-.697-.164-.697-.727v-15.1c0-.582.44-.727.697-.727.421 0 .715.345.715.727v15.1zm-5.886-.382c0 1.563.202 3.962 3.319 3.962h3.722c3.117 0 3.319-2.399 3.319-3.962V45.827c0-1.544-.202-3.961-3.319-3.961h-3.722c-3.117 0-3.319 2.417-3.319 3.961v14.246zm24.918-18.207h5.831v22.169h-4.474V50.134h-.165l-2.31 13.9h-3.576l-2.292-13.9h-.165v13.9h-4.474V41.867h5.813l2.915 15.59 2.897-15.59zM35.715 11.557C34.345 5.615 30.912.78 30.439 0c-.748 1.108-3.485 5.379-4.877 10.103-1.52 5.288-1.744 9.976-1.22 14.573.521 4.616 2.489 9.358 2.489 9.358 1.045 2.471 2.611 5.143 3.63 6.451 1.495-1.926 4.93-7.668 6-15.155.596-4.179.622-7.831-.746-13.773zm-5.276 27.438c-.672-1.254-1.718-3.634-1.817-7.341-.025-3.562 1.418-6.633 1.84-7.268.375.636 1.619 3.307 1.767 6.959.1 3.562-1.095 6.378-1.79 7.65zm4.878-17.353c-.052 2.271-.325 4.67-.673 6.105.125-2.471-.174-5.942-.746-8.668-.573-2.707-2.192-7.25-3.484-9.34-1.194 2-2.664 5.924-3.435 9.322-.773 3.398-.795 7.523-.795 8.759-.206-1.036-.72-4.761-.574-8.486.12-3.071.847-6.25 1.245-7.705 1.518-4.851 3.236-7.958 3.559-8.45.322.492 2.486 4.326 3.608 8.341 1.117 4.016 1.343 7.868 1.295 10.122z" fill="#141414"/><path d="M32.763 41.866H22.35v6.923c.009 0 .016-.018.025-.018a6.32 6.32 0 0 1 8.888 0c2.453 2.417 2.453 6.36 0 8.795-.011.018-.022.018-.033.036-.013 0-.026.018-.037.036a12.599 12.599 0 0 1-8.843 3.598c-3.213 0-6.425-1.2-8.875-3.634a12.35 12.35 0 0 1-1.538-15.736 12.61 12.61 0 0 1 1.538-1.853c2.45-2.435 5.662-3.635 8.875-3.635V19.734C10.006 19.734 0 29.637 0 41.866c0 12.229 10.006 22.15 22.35 22.15a22.409 22.409 0 0 0 16.311-7.014V41.866h-5.898z" fill="#141414"/></svg>