<svg width="121" height="20" viewBox="0 0 121 20" fill="none" xmlns="http://www.w3.org/2000/svg"><path fill-rule="evenodd" clip-rule="evenodd" d="M24.026 19.635H5.506c0-.077-.048-.059-.114-.034a.395.395 0 0 1-.136.034 9.671 9.671 0 0 0-.626-.097c-.417-.056-.834-.111-1.251-.278-1.127-.376-2.128-1.001-2.753-2.127-.125-.25-.25-.626-.376-1v-.001a3.889 3.889 0 0 1-.125-.501c-.031-.156-.062-.313-.125-.5V4.618c.125-.125.125-.375.125-.5C.375 2.492 1.251 1.24 2.753.615 3.754.24 4.88.115 6.006.115h17.769c.25 0 .376.125.376.375v3.378c0 .376-.125.376-.375.376H6.881c-.75 0-1 .25-1 1v9.136c0 .625.25 1 .875 1h11.387c.126 0 .25 0 .25-.25v-3.003c0-.25 0-.25-.25-.25H9.51c-.5 0-.625 0-.625-.626V8.123c0-.25 0-.375.062-.438.063-.063.188-.063.438-.063h14.14c.5 0 .5.126.5.501V19.01c.251.25.251.5 0 .625zm50.053 0H57.937c-.626 0-1.251-.125-2.002-.375-1.627-.376-2.503-1.502-3.003-3.003-.126-.5-.25-1.127-.25-1.752V5.12c0-.751.124-1.502.375-2.127.5-1.127 1.251-2.003 2.502-2.378 1.002-.375 2.003-.5 3.129-.5h15.266c.376 0 .376.125.376.375v3.253c0 .376-.126.5-.501.5H59.313c-.625.126-.875.251-.875.877v2.127c0 .125 0 .188.03.22.032.03.095.03.22.03h14.515c.5 0 .626 0 .626.626v2.878c0 .376 0 .563-.094.657-.094.094-.281.094-.657.094h-14.64c-.126 0-.126 0-.126.125v2.628c0 .375.126.5.5.625.126 0 .22.032.314.063a.925.925 0 0 0 .313.063h14.265c.375 0 .375.125.375.375v3.379c.25.375.125.5 0 .625zm-40.793 0h16.017c.195-.097.238-.195.307-.352.02-.045.04-.094.068-.148v-3.379c0-.375-.125-.5-.5-.5H34.537c-.5 0-.75-.25-.75-.751v-2.503c0-.125 0-.125.124-.125h14.516c.75 0 .75-.125.75-.75v-2.88c0-.313 0-.47-.078-.547-.078-.079-.234-.079-.547-.079h-14.39c-.094 0-.165.008-.217.014-.159.018-.159.018-.159-.264V5.37c0-.75.25-1.001 1.001-1.001h14.015c.751 0 .751-.125.751-.75V.614c0-.375 0-.5-.375-.5H34.037c-1.002 0-2.128.125-3.129.5-1.627.626-2.503 1.877-2.753 3.504-.125.375-.125.876-.125 1.251v9.135c0 .876.25 1.627.5 2.377.501 1.252 1.502 2.002 2.753 2.378a5.02 5.02 0 0 0 1.877.375s.126-.125.126 0zm69.949 0c-.25-.125-.25-.375-.25-.625v-5.757c0-.125 0-.25-.125-.375l-3.754-4.13c-1.001-1-1.877-2.001-2.753-3.003-.5-.5-.97-1.032-1.439-1.564a34.06 34.06 0 0 0-1.439-1.564c-.25-.313-.532-.594-.813-.876a10.548 10.548 0 0 1-.814-.876.698.698 0 0 1-.102-.136c-.041-.066-.07-.114-.148-.114-.125-.25-.125-.375.25-.5h5.632c.751 0 1.252.5 1.752 1 .5.501.97 1.033 1.439 1.565a34.92 34.92 0 0 0 1.439 1.564c1.126 1.126 2.252 2.377 3.378 3.628h.001l.5.501c.063.063.094.094.126.094.031 0 .062-.031.125-.094.25-.313.531-.594.813-.876.282-.281.563-.563.813-.876 1.001-1.126 2.003-2.252 3.129-3.253.375-.375.751-.782 1.126-1.189.375-.407.751-.813 1.126-1.189.376-.5 1.001-.75 1.627-.75h5.631c.309-.104.279.134.258.29-.004.033-.008.063-.008.085-.125.25-.375.5-.625.75a3.422 3.422 0 0 1-.438.501h-.001c-.156.157-.312.313-.437.5-.501.501-.97 1.033-1.439 1.565-.47.532-.939 1.064-1.44 1.564-.5.5-.969 1.033-1.439 1.564a33.674 33.674 0 0 1-1.439 1.565c-.404.404-.788.829-1.168 1.25-.561.62-1.113 1.23-1.71 1.753-.25.25-.469.5-.688.75-.219.25-.438.501-.688.751-.125.126-.125.126-.125.25v5.882c0 .25 0 .5-.251.626-2.127-.25-3.878-.25-5.63-.25h-.001zm-21.523-.125c.376 0 .751 0 1.127.125 5.255 0 10.636 0 15.641.125.25-.125.376-.25.376-.5v-3.003c0-.751 0-.751-.751-.751H84.34c-.375-.125-.625-.376-.625-.75V.614c0-.25-.126-.375-.376-.375h-4.88c-.25 0-.375.125-.375.375v13.139c0 .751 0 1.377.125 2.002.125.751.25 1.502.75 2.128.626 1 1.627 1.376 2.753 1.626z" fill="#141414"/></svg>