<svg width="128" height="70" viewBox="0 0 128 70" fill="none" xmlns="http://www.w3.org/2000/svg"><path d="M13.026 51.351v6.969H5.128v-6.969H.774v18.287h4.354v-7.353h7.898v7.353h4.354V51.35h-4.354zm20.304 0l-4.554 7.242-4.548-7.242h-5.136l7.515 11.953v6.334h4.349v-6.334L38.47 51.35h-5.142zm19.137 0v13.402c0 .51-.384.92-.925.92h-6.974V51.35h-4.354v18.287h12.862c1.145 0 2.064-.342 2.736-1.009.667-.672 1.003-1.591 1.003-2.73V51.35h-4.348zm21.243 0H60.848v18.287h4.349V55.31h6.984c.562 0 .92.44.92.914v13.413h4.348V55.09c0-1.145-.342-2.064-1.003-2.73-.678-.673-1.591-1.009-2.736-1.009zm20.633 0H81.482v18.287h12.861c1.145 0 2.06-.342 2.726-1.009.672-.672 1.008-1.591 1.008-2.73V55.09c0-1.145-.336-2.064-1.008-2.73-.667-.673-1.586-1.009-2.726-1.009zm-.614 4.905v8.471c0 .494-.357.945-.924.945h-6.98V55.311h6.948c.573 0 .956.399.956.945zm11.932-4.905c-1.14 0-2.064.336-2.731 1.008-.672.673-1.003 1.592-1.003 2.731v14.547h4.338v-5.656h7.903v5.657h4.349V51.35h-12.856zm8.507 3.96v4.71h-7.903v-3.78c0-.452.351-.93.929-.93h6.974zm8.582 14.327h4.353V51.35h-4.353v18.287zM61.37 38.679c20.883 0 37.816-8.578 37.816-19.154C99.186 8.94 82.252.363 61.369.363c-20.876 0-37.808 8.578-37.808 19.162 0 10.576 16.932 19.154 37.808 19.154zm7.12-9.4c-.63 1.446-1.716 4.534-4.207 5.766-.758.372-1.692.546-2.523.577h-.383c-6.977 0-13.476-.964-18.912-2.599-.04-.017-.167-.063-.207-.079-.503-.165-.759-.395-.759-.679 0-.245.136-.434.311-.608.08-.071.192-.166.344-.3 1.261-1.035 5.037-3.744 12.158-6.446 2.499-.94 5.628-2.117 8.901-2.804 1.916-.395 9.037-1.477 5.277 7.172zM87.594 9.967c.135-.23.311-.426.638-.442.176-.018.416.022.783.252 4.438 2.702 7.073 6.082 7.073 9.74 0 6.602-8.582 12.282-20.86 14.762-.782.158-1.31.15-1.485-.046-.127-.119-.16-.332 0-.592.072-.135.16-.253.327-.451 6.682-7.796 11.775-19.296 13.22-22.614.112-.23.216-.458.304-.608zm-33.226-.244c.63-1.445 1.717-4.534 4.207-5.758.759-.371 1.693-.553 2.523-.576.192-.006.327 0 .375 0 6.986 0 13.476.955 18.92 2.598.04.017.168.063.208.08.503.165.758.394.758.679 0 .244-.135.426-.311.6-.08.079-.192.174-.344.3-1.253 1.043-5.037 3.744-12.158 6.446-2.507.947-5.628 2.116-8.893 2.803-1.924.403-9.045 1.477-5.285-7.171zm-6.857-4.968c.79-.15 1.309-.15 1.5.046.112.126.144.332-.005.593-.08.134-.168.26-.328.442-6.681 7.804-11.775 19.296-13.228 22.622a7.005 7.005 0 0 1-.303.608c-.128.23-.311.426-.63.442-.176.018-.424-.034-.791-.252-4.439-2.702-7.073-6.082-7.073-9.74 0-6.603 8.582-12.282 20.86-14.762" fill="#141414"/></svg>