<svg width="259" height="142" viewBox="0 0 259 142" fill="none" xmlns="http://www.w3.org/2000/svg"><path d="M25.114 104.517v14.284H8.924v-14.284H0V142h8.924v-15.071h16.19V142h8.925v-37.483h-8.925zm41.617 0l-9.333 14.844-9.322-14.844H37.548l15.404 24.5V142h8.914v-12.983l15.404-24.5H66.732zm39.227 0v27.472c0 1.044-.786 1.883-1.895 1.883H89.768v-29.355h-8.924V142h26.363c2.347 0 4.231-.7 5.608-2.067 1.368-1.378 2.056-3.262 2.056-5.598v-29.818h-8.913zm43.545 0H123.14V142h8.913v-29.367h14.318c1.152 0 1.884.905 1.884 1.873V142h8.913v-29.819c0-2.346-.7-4.23-2.056-5.598-1.389-1.377-3.262-2.066-5.609-2.066zm42.295 0h-26.363V142h26.363c2.347 0 4.22-.7 5.587-2.067 1.378-1.378 2.067-3.262 2.067-5.598v-22.154c0-2.346-.689-4.23-2.067-5.598-1.367-1.377-3.251-2.066-5.587-2.066zm-1.259 10.054v17.364c0 1.012-.732 1.937-1.895 1.937h-14.306v-21.239h14.242c1.173 0 1.959.818 1.959 1.938zm24.457-10.054c-2.336 0-4.231.689-5.598 2.066-1.378 1.378-2.056 3.262-2.056 5.598V142h8.892v-11.594h16.201V142h8.913v-37.483h-26.352zm17.439 8.116v9.656h-16.201v-7.75c0-.926.721-1.906 1.905-1.906h14.296zM250.025 142h8.924v-37.483h-8.924V142zM124.208 78.54c42.808 0 77.515-17.582 77.515-39.262C201.723 17.584 167.016 0 124.208 0 81.417 0 46.709 17.583 46.709 39.279c0 21.679 34.708 39.261 77.499 39.261zm14.596-19.266c-1.292 2.963-3.518 9.293-8.623 11.819-1.555.761-3.47 1.117-5.171 1.182h-.786c-14.302 0-27.622-1.976-38.766-5.327-.083-.035-.343-.13-.425-.162-1.031-.34-1.555-.81-1.555-1.392 0-.502.278-.89.638-1.247.164-.146.393-.34.704-.616 2.586-2.12 10.326-7.674 24.922-13.211 5.122-1.927 11.536-4.34 18.246-5.748 3.927-.81 18.523-3.028 10.816 14.701zm39.159-39.587c.278-.47.638-.874 1.309-.907.359-.035.851.047 1.603.518 9.099 5.538 14.499 12.467 14.499 19.963 0 13.536-17.591 25.176-42.759 30.26-1.603.325-2.683.308-3.044-.094-.261-.243-.326-.68 0-1.214.148-.275.328-.518.671-.923 13.697-15.98 24.137-39.554 27.099-46.354.229-.47.442-.939.622-1.247v-.002zm-68.106-.5c1.293-2.962 3.518-9.293 8.624-11.802 1.554-.762 3.469-1.134 5.171-1.182.393-.012.671 0 .769 0 14.318 0 27.622 1.959 38.782 5.327.083.035.343.129.425.162 1.031.34 1.555.809 1.555 1.392 0 .502-.278.874-.638 1.23a12.23 12.23 0 0 1-.704.616c-2.569 2.137-10.326 7.674-24.922 13.212-5.138 1.942-11.537 4.338-18.229 5.747-3.944.826-18.54 3.028-10.833-14.7v-.001zM95.8 9.005c1.62-.308 2.684-.308 3.077.094.229.259.294.68-.012 1.215a5.682 5.682 0 0 1-.67.907C84.497 27.216 74.057 50.773 71.078 57.59c-.212.47-.441.938-.622 1.246-.262.47-.638.874-1.293.907-.36.035-.867-.07-1.62-.518-9.098-5.537-14.498-12.467-14.498-19.963 0-13.535 17.591-25.176 42.759-30.26" fill="#142975"/></svg>