<svg width="237" height="54" viewBox="0 0 237 54" fill="none" xmlns="http://www.w3.org/2000/svg"><g clip-path="url(#a)"><path d="M46.627.775H8.447C4.207.775.767 4.242.767 8.52v36.96c0 4.278 3.44 7.745 7.68 7.745h38.18c4.242 0 7.68-3.467 7.68-7.745V8.52c0-4.278-3.438-7.745-7.68-7.745z" stroke="#141414" stroke-width="2" stroke-linejoin="round"/><path fill-rule="evenodd" clip-rule="evenodd" d="M37.398 45.11c2.082-4.433 9.037-12.226 2.05-22.834-3.012 1.809-7.259 3.098-10.867 10.943a20.61 20.61 0 0 1-.47 2.728c-.109-.295-.222-.558-.332-.84-.111.282-.224.543-.334.84a20.643 20.643 0 0 1-.469-2.728c-3.609-7.847-7.855-9.133-10.867-10.943-6.988 10.612-.033 18.401 2.05 22.835-6.75-4.404-9.736-11.567-9.736-15.786 0-4.22 2.642-12.719 6.1-15 9.693 4.61 12.605 10.935 13.255 12.703.649-1.765 3.562-8.088 13.255-12.703 3.456 2.28 6.1 10.78 6.1 15 0 4.22-2.986 11.382-9.735 15.786zm-9.386-25.52a6.122 6.122 0 0 1-3.372-1.132 6.204 6.204 0 0 1-2.19-2.823 6.262 6.262 0 0 1-.28-3.574 6.225 6.225 0 0 1 1.726-3.134 6.14 6.14 0 0 1 3.155-1.65 6.11 6.11 0 0 1 3.534.383 6.17 6.17 0 0 1 2.735 2.289 6.25 6.25 0 0 1 1.026 3.432 6.327 6.327 0 0 1-1.892 4.427 6.219 6.219 0 0 1-4.442 1.782zm62.32 10.759h1.562V6.889L74.992 26.833v-19.7H73.43V30.94l16.903-19.945V30.35zm9.522-23.217h-1.561v23.217h1.561V18.37H114.2v11.98h1.563V7.133H114.2v9.85H99.851v-9.85l.003-.001zm32.885 23.217h1.562v-3.272h.998c8.807 0 10.867-5.29 10.867-9.05 0-3.759-2.06-9.05-10.867-9.05h-.998V6.19h-1.562v2.789h-.994c-8.807 0-10.866 5.29-10.866 9.05 0 3.758 2.059 9.05 10.866 9.05h.994v3.27zm0-4.665h-1.065c-7.315 0-9.161-4.315-9.161-7.657 0-3.343 1.843-7.658 9.161-7.658h1.065v15.316zm1.562-15.315h1.066c7.314 0 9.161 4.316 9.161 7.658 0 3.342-1.847 7.658-9.161 7.658h-1.066V10.37zm21.587 8.946c4.084 0 6.889-2.263 6.889-6.126 0-3.968-3.054-6.056-6.924-6.056h-4.581v23.216h1.563V19.315h3.053zm-3.053-10.79h2.876c3.444 0 5.433 1.81 5.433 4.699 0 2.924-2.095 4.699-5.184 4.699h-3.125V8.525zm28.267 21.824h1.704l-9.832-23.913-9.979 23.913h1.705l3.16-7.623h10.084l3.158 7.623zm-12.674-9.015l4.51-10.999 4.439 10.999h-8.949zm44.21 9.015l2.095-18.657 9.303 19.492 9.304-19.492 2.095 18.657h1.562l-2.699-24.016-10.258 21.475-10.262-21.476-2.698 24.017h1.558z" fill="#141414"/><path d="M195.988 23.345c2.996 0 5.424-2.449 5.424-5.47 0-3.022-2.428-5.47-5.424-5.47-2.995 0-5.424 2.448-5.424 5.47 0 3.021 2.429 5.47 5.424 5.47z" fill="#141414"/><path fill-rule="evenodd" clip-rule="evenodd" d="M73.234 48.346h1.391v-4.737h2.27V42.32h-3.661v6.026zm7.038-.702a2.377 2.377 0 0 0 1.789.888 3.003 3.003 0 0 0 2.122-1.004 3.057 3.057 0 0 0 .774-2.232 2.965 2.965 0 0 0-.781-2.204 2.92 2.92 0 0 0-2.129-.932 2.232 2.232 0 0 0-1.775.816v-.656h-1.391v9.308h1.391v-3.984zm1.605-4.223c.46.065.881.296 1.186.65a1.955 1.955 0 0 1 0 2.551 1.924 1.924 0 0 1-1.186.65 1.918 1.918 0 0 1-1.201-.642 1.95 1.95 0 0 1 0-2.565c.31-.354.736-.582 1.2-.642v-.002zm5.078 8.204h1.562l4.756-9.306H91.71l-1.732 3.522-1.703-3.523H86.6l2.556 5.084-2.201 4.223zm8.273-9.305v6.026h1.391v-4.737h2.414v4.737h1.391V42.32h-5.196zm7.947 0v6.026h1.391v-4.737h2.413v4.737h1.392V42.32h-5.196zm12.32.702a2.18 2.18 0 0 0-1.774-.86 2.897 2.897 0 0 0-2.139.942 2.954 2.954 0 0 0-.771 2.221 3.016 3.016 0 0 0 .762 2.234 2.936 2.936 0 0 0 2.134.974 2.283 2.283 0 0 0 1.789-.817v.63h1.391V42.32h-1.392v.702zm-1.604.401c.467.057.896.285 1.207.64a1.947 1.947 0 0 1 0 2.572c-.311.355-.74.582-1.207.64a1.924 1.924 0 0 1-1.187-.65 1.954 1.954 0 0 1-.001-2.551 1.924 1.924 0 0 1 1.187-.651h.001zm10.044-1.103v6.026h1.39V46.1l.23-.233 1.988 2.479h1.76l-2.754-3.393 2.611-2.634h-1.843l-1.992 2.149V42.32h-1.39zm10.005-.155c-.623.007-1.231.2-1.746.555a3.203 3.203 0 0 0-.436 4.9 3.134 3.134 0 0 0 3.441.668 3.163 3.163 0 0 0 1.41-1.178 3.21 3.21 0 0 0 .525-1.77 3.118 3.118 0 0 0-.918-2.283 3.066 3.066 0 0 0-2.276-.895v.003zm0 5.112a1.9 1.9 0 0 1-1.1-.255 1.923 1.923 0 0 1-.766-.837 1.95 1.95 0 0 1-.166-1.126 1.932 1.932 0 0 1 1.472-1.591 1.9 1.9 0 0 1 2.006.801c.216.322.33.701.329 1.09a1.751 1.751 0 0 1-.454 1.366 1.717 1.717 0 0 1-1.321.55v.002zm4.951 1.074h1.42l.596-3.021 1.902 3.48 1.902-3.48.597 3.02h1.42l-1.449-6.571-2.47 4.596-2.47-4.596-1.448 6.572zm9.906-6.029v6.024h1.392v-4.737h2.413v4.737h1.391V42.32h-5.196v.002zm12.319.702a2.168 2.168 0 0 0-1.774-.859 2.905 2.905 0 0 0-2.14.942 2.957 2.957 0 0 0-.77 2.222 2.998 2.998 0 0 0 .762 2.234 2.954 2.954 0 0 0 2.134.973 2.28 2.28 0 0 0 1.788-.816v.626h1.392V42.32h-1.392v.704zm-1.604.401a1.92 1.92 0 0 1 1.207.64 1.952 1.952 0 0 1 0 2.572 1.918 1.918 0 0 1-1.207.64 1.92 1.92 0 0 1-1.192-.648 1.959 1.959 0 0 1-.002-2.557c.307-.355.73-.585 1.192-.649l.002.002zm5.745 4.92h1.391v-2.502h2.47v2.503h1.391V42.32h-1.391v2.23h-2.47v-2.23h-1.391v6.026zm8.003-6.027v6.486l4.089-3.967v3.509h1.39v-6.57l-4.088 3.967V42.32h-1.391v-.002zm8.23 0v6.486l4.088-3.967v3.509h1.392v-6.57l-4.089 3.967V42.32h-1.391v-.002zm.455-2.607c.156.491.463.92.877 1.223a2.4 2.4 0 0 0 2.845 0 2.44 2.44 0 0 0 .877-1.223l-1.136-.329a1.125 1.125 0 0 1-.406.69 1.105 1.105 0 0 1-.758.24 1.126 1.126 0 0 1-.753-.246 1.146 1.146 0 0 1-.411-.684l-1.135.33z" fill="#141414"/></g><defs><clipPath id="a"><path fill="#fff" d="M0 0h237v54H0z"/></clipPath></defs></svg>