<svg width="26" height="26" viewBox="0 0 26 26" fill="none" xmlns="http://www.w3.org/2000/svg"><path d="M13.001 0c-3.53 0-3.974.015-5.36.079C6.257.142 5.312.36 4.486.683a6.366 6.366 0 0 0-2.303 1.499 6.382 6.382 0 0 0-1.5 2.302C.36 5.311.14 6.256.077 7.64.016 9.026 0 9.47 0 13c0 3.53.016 3.972.079 5.36.063 1.383.282 2.328.604 3.154a6.37 6.37 0 0 0 1.499 2.303 6.365 6.365 0 0 0 2.302 1.5c.827.322 1.772.541 3.156.605C9.026 25.985 9.47 26 13 26c3.53 0 3.972-.015 5.359-.078 1.384-.064 2.33-.283 3.157-.605a6.36 6.36 0 0 0 2.301-1.5 6.381 6.381 0 0 0 1.5-2.303c.32-.826.54-1.771.604-3.155.063-1.386.079-1.828.079-5.359 0-3.53-.016-3.974-.079-5.36-.065-1.384-.284-2.329-.604-3.156a6.38 6.38 0 0 0-1.5-2.302 6.353 6.353 0 0 0-2.302-1.5C20.686.362 19.74.143 18.357.08 16.97.015 16.529 0 12.997 0h.004zm-1.166 2.342H13c3.47 0 3.882.012 5.253.074 1.267.058 1.955.27 2.414.448a4.02 4.02 0 0 1 1.494.972c.455.455.736.889.973 1.495.177.458.39 1.146.447 2.414.062 1.37.076 1.782.076 5.251 0 3.47-.014 3.881-.076 5.251-.058 1.268-.27 1.956-.448 2.414a4.019 4.019 0 0 1-.972 1.493 4.02 4.02 0 0 1-1.494.972c-.458.179-1.146.39-2.414.448-1.37.063-1.782.076-5.253.076s-3.883-.013-5.253-.076c-1.268-.058-1.956-.27-2.414-.448a4.027 4.027 0 0 1-1.495-.972 4.029 4.029 0 0 1-.973-1.494c-.178-.458-.39-1.146-.448-2.413-.062-1.371-.074-1.783-.074-5.254 0-3.472.012-3.881.074-5.252.058-1.267.27-1.955.448-2.413a4.03 4.03 0 0 1 .973-1.495 4.034 4.034 0 0 1 1.495-.973c.458-.179 1.146-.39 2.414-.448 1.199-.055 1.664-.07 4.087-.074v.004zm8.105 2.16a1.56 1.56 0 1 0 0 3.12 1.56 1.56 0 0 0 0-3.12zM13 6.325a6.676 6.676 0 1 0 .002 13.352A6.676 6.676 0 0 0 13 6.325zm.002 2.34a4.333 4.333 0 1 1 0 8.667 4.333 4.333 0 0 1 0-8.666z" fill="#141414"/></svg>