<svg width="1570" height="598" viewBox="0 0 1570 598" fill="none" xmlns="http://www.w3.org/2000/svg"><rect width="502" height="89" rx="8" fill="#F6F4F2"/><path d="M109.726 51h-1.32v-7.944H97.918V51h-1.32V34.2h1.32v7.608h10.488V34.2h1.32V51zm4.885-9l-.336-1.032c1.072-.656 2.216-.984 3.432-.984 1.408 0 2.424.352 3.048 1.056.64.704.96 1.792.96 3.264V51h-1.248v-1.656c-.88 1.2-2.112 1.8-3.696 1.8-1.008 0-1.816-.288-2.424-.864-.608-.592-.912-1.376-.912-2.352 0-1.056.384-1.88 1.152-2.472.752-.592 1.736-.888 2.952-.888s2.192.272 2.928.816c0-1.12-.08-1.976-.24-2.568-.128-.576-.392-.984-.792-1.224-.384-.24-.984-.384-1.8-.432-.976 0-1.984.28-3.024.84zm2.544 7.968c1.344 0 2.448-.568 3.312-1.704v-1.8c-.784-.576-1.72-.864-2.808-.864-.816 0-1.504.2-2.064.6-.56.4-.84.952-.84 1.656 0 .64.224 1.152.672 1.536.448.384 1.024.576 1.728.576zm22.184-1.416l.624.912c-.432.56-1.016.992-1.752 1.296a5.923 5.923 0 0 1-2.328.456c-1.68 0-3.056-.512-4.128-1.536-1.056-1.024-1.584-2.384-1.584-4.08 0-1.584.512-2.912 1.536-3.984 1.04-1.088 2.32-1.632 3.84-1.632 1.856 0 3.256.448 4.2 1.344l-.6 1.008c-.848-.784-1.984-1.176-3.408-1.176-1.152 0-2.152.424-3 1.272-.832.832-1.248 1.888-1.248 3.168 0 1.344.424 2.424 1.272 3.24.848.8 1.92 1.2 3.216 1.2 1.392 0 2.512-.496 3.36-1.488zM143.041 42l-.336-1.032c1.072-.656 2.216-.984 3.432-.984 1.408 0 2.424.352 3.048 1.056.64.704.96 1.792.96 3.264V51h-1.248v-1.656c-.88 1.2-2.112 1.8-3.696 1.8-1.008 0-1.816-.288-2.424-.864-.608-.592-.912-1.376-.912-2.352 0-1.056.384-1.88 1.152-2.472.752-.592 1.736-.888 2.952-.888s2.192.272 2.928.816c0-1.12-.08-1.976-.24-2.568-.128-.576-.392-.984-.792-1.224-.384-.24-.984-.384-1.8-.432-.976 0-1.984.28-3.024.84zm2.544 7.968c1.344 0 2.448-.568 3.312-1.704v-1.8c-.784-.576-1.72-.864-2.808-.864-.816 0-1.504.2-2.064.6-.56.4-.84.952-.84 1.656 0 .64.224 1.152.672 1.536.448.384 1.024.576 1.728.576zM162.168 42l-7.2 9h-1.248V40.2h1.248v9l7.2-9h1.248V51h-1.248v-9zm-6.792-7.416h1.128c0 .592.208 1.096.624 1.512.416.4.952.6 1.608.6.624 0 1.136-.2 1.536-.6.4-.416.6-.92.6-1.512H162c0 .88-.304 1.616-.912 2.208-.608.576-1.392.864-2.352.864-1.024 0-1.84-.28-2.448-.84-.608-.576-.912-1.32-.912-2.232zm14.533 6.864h-4.296V40.2h9.84v1.248h-4.296V51h-1.248v-9.552zm15.91 7.272l.408.96c-.976 1.024-2.304 1.536-3.984 1.536-1.728 0-3.112-.512-4.152-1.536-1.056-1.024-1.584-2.384-1.584-4.08 0-1.632.48-2.976 1.44-4.032.976-1.056 2.32-1.584 4.032-1.584 1.392 0 2.56.448 3.504 1.344.928.88 1.392 2.056 1.392 3.528 0 .384-.024.72-.072 1.008h-8.904c.048 1.296.472 2.32 1.272 3.072.8.736 1.848 1.104 3.144 1.104 1.504 0 2.672-.44 3.504-1.32zm-3.96-7.56c-1.152 0-2.088.336-2.808 1.008-.704.672-1.112 1.56-1.224 2.664h7.776c-.016-1.136-.36-2.032-1.032-2.688-.672-.656-1.576-.984-2.712-.984zM205.013 51h-1.248v-4.896h-7.008V51h-1.248V40.2h1.248v4.728h7.008V40.2h1.248V51zm8.681.216c-1.664 0-3.024-.528-4.08-1.584s-1.584-2.4-1.584-4.032c0-1.632.528-2.976 1.584-4.032s2.416-1.584 4.08-1.584c1.664 0 3.024.528 4.08 1.584s1.584 2.4 1.584 4.032c0 1.632-.528 2.976-1.584 4.032s-2.416 1.584-4.08 1.584zm0-1.176c1.296 0 2.336-.408 3.12-1.224.816-.832 1.224-1.904 1.224-3.216 0-1.296-.408-2.36-1.224-3.192-.816-.832-1.856-1.248-3.12-1.248-1.248 0-2.288.416-3.12 1.248-.816.832-1.224 1.896-1.224 3.192 0 1.296.408 2.36 1.224 3.192.816.832 1.856 1.248 3.12 1.248zm8.722.96V40.2c.528 0 1.04-.008 1.536-.024a85.964 85.964 0 0 1 1.944-.048c2.976 0 4.464.928 4.464 2.784 0 .624-.2 1.168-.6 1.632-.384.448-.912.728-1.584.84v.048c1.728.256 2.592 1.12 2.592 2.592 0 2.032-1.608 3.048-4.824 3.048-.208 0-.84-.016-1.896-.048a53.912 53.912 0 0 0-1.632-.024zm3.84-4.968h-2.592v3.816c1.248.032 2.056.048 2.424.048 2.24 0 3.36-.664 3.36-1.992 0-1.248-1.064-1.872-3.192-1.872zm-.216-4.728c-.528 0-1.32.016-2.376.048V45h2.856c.784 0 1.4-.168 1.848-.504.448-.352.672-.816.672-1.392 0-1.2-1-1.8-3-1.8zM236.946 51h-2.976V40.2h1.248v3.624h1.872c2.848 0 4.272 1.184 4.272 3.552 0 1.12-.36 2.008-1.08 2.664-.72.64-1.832.96-3.336.96zm-.072-6h-1.656v4.824h1.632c1.136 0 1.952-.2 2.448-.6.496-.4.744-1.008.744-1.824 0-1.6-1.056-2.4-3.168-2.4zm8.208 6h-1.248V40.2h1.248V51zm12.242-9l-7.2 9h-1.248V40.2h1.248v9l7.2-9h1.248V51h-1.248v-9zm-6.792-7.416h1.128c0 .592.208 1.096.624 1.512.416.4.952.6 1.608.6.624 0 1.136-.2 1.536-.6.4-.416.6-.92.6-1.512h1.128c0 .88-.304 1.616-.912 2.208-.608.576-1.392.864-2.352.864-1.024 0-1.84-.28-2.448-.84-.608-.576-.912-1.32-.912-2.232zM277.385 51h-1.248v-9.624h-6.888V51h-1.248V40.2h9.384V51zm8.684.216c-1.664 0-3.024-.528-4.08-1.584s-1.584-2.4-1.584-4.032c0-1.632.528-2.976 1.584-4.032s2.416-1.584 4.08-1.584c1.664 0 3.024.528 4.08 1.584s1.584 2.4 1.584 4.032c0 1.632-.528 2.976-1.584 4.032s-2.416 1.584-4.08 1.584zm0-1.176c1.296 0 2.336-.408 3.12-1.224.816-.832 1.224-1.904 1.224-3.216 0-1.296-.408-2.36-1.224-3.192-.816-.832-1.856-1.248-3.12-1.248-1.248 0-2.288.416-3.12 1.248-.816.832-1.224 1.896-1.224 3.192 0 1.296.408 2.36 1.224 3.192.816.832 1.856 1.248 3.12 1.248zm17.109.96h-1.248v-9.552h-4.56l-.144 2.352c-.208 3.04-.712 5.056-1.512 6.048-.64.832-1.432 1.248-2.376 1.248l-.096-1.224c.416 0 .808-.192 1.176-.576.88-.816 1.416-2.728 1.608-5.736l.168-3.36h6.984V51zm6.968 0h-3.168V40.2h1.248v3.624h2.088c2.848 0 4.272 1.184 4.272 3.552 0 1.12-.368 2.008-1.104 2.664-.72.64-1.832.96-3.336.96zm-.048-6h-1.872v4.824h1.848c1.12 0 1.928-.2 2.424-.6.512-.4.768-1.008.768-1.824 0-1.6-1.056-2.4-3.168-2.4zm10.693 6.216c-.736 0-1.552-.136-2.448-.408-.848-.256-1.448-.6-1.8-1.032l.648-.96c.416.384.936.688 1.56.912a5.97 5.97 0 0 0 1.848.312c1.008 0 1.816-.2 2.424-.6.608-.4.912-.936.912-1.608 0-.56-.224-1-.672-1.32-.448-.32-1.056-.48-1.824-.48h-1.824V45h1.704c.608 0 1.128-.192 1.56-.576.432-.384.648-.848.648-1.392 0-.608-.24-1.072-.72-1.392-.48-.32-1.152-.48-2.016-.48-1.264 0-2.392.4-3.384 1.2l-.504-.96c.912-.944 2.264-1.416 4.056-1.416 1.232 0 2.184.256 2.856.768.688.496 1.032 1.184 1.032 2.064 0 1.264-.648 2.128-1.944 2.592v.048c.736.064 1.312.336 1.728.816.416.464.624 1.04.624 1.728 0 .992-.408 1.776-1.224 2.352-.816.576-1.896.864-3.24.864zm12.552 0c-1.664 0-3.024-.528-4.08-1.584s-1.584-2.4-1.584-4.032c0-1.632.528-2.976 1.584-4.032s2.416-1.584 4.08-1.584c1.664 0 3.024.528 4.08 1.584s1.584 2.4 1.584 4.032c0 1.632-.528 2.976-1.584 4.032s-2.416 1.584-4.08 1.584zm0-1.176c1.296 0 2.336-.408 3.12-1.224.816-.832 1.224-1.904 1.224-3.216 0-1.296-.408-2.36-1.224-3.192-.816-.832-1.856-1.248-3.12-1.248-1.248 0-2.288.416-3.12 1.248-.816.832-1.224 1.896-1.224 3.192 0 1.296.408 2.36 1.224 3.192.816.832 1.856 1.248 3.12 1.248zm8.721.96V40.2c.528 0 1.04-.008 1.536-.024a85.964 85.964 0 0 1 1.944-.048c2.976 0 4.464.928 4.464 2.784 0 .624-.2 1.168-.6 1.632-.384.448-.912.728-1.584.84v.048c1.728.256 2.592 1.12 2.592 2.592 0 2.032-1.608 3.048-4.824 3.048-.208 0-.84-.016-1.896-.048a53.912 53.912 0 0 0-1.632-.024zm3.84-4.968h-2.592v3.816c1.248.032 2.056.048 2.424.048 2.24 0 3.36-.664 3.36-1.992 0-1.248-1.064-1.872-3.192-1.872zm-.216-4.728c-.528 0-1.32.016-2.376.048V45h2.856c.784 0 1.4-.168 1.848-.504.448-.352.672-.816.672-1.392 0-1.2-1-1.8-3-1.8zm8.267.696l-.336-1.032c1.072-.656 2.216-.984 3.432-.984 1.408 0 2.424.352 3.048 1.056.64.704.96 1.792.96 3.264V51h-1.248v-1.656c-.88 1.2-2.112 1.8-3.696 1.8-1.008 0-1.816-.288-2.424-.864-.608-.592-.912-1.376-.912-2.352 0-1.056.384-1.88 1.152-2.472.752-.592 1.736-.888 2.952-.888s2.192.272 2.928.816c0-1.12-.08-1.976-.24-2.568-.128-.576-.392-.984-.792-1.224-.384-.24-.984-.384-1.8-.432-.976 0-1.984.28-3.024.84zm2.544 7.968c1.344 0 2.448-.568 3.312-1.704v-1.8c-.784-.576-1.72-.864-2.808-.864-.816 0-1.504.2-2.064.6-.56.4-.84.952-.84 1.656 0 .64.224 1.152.672 1.536.448.384 1.024.576 1.728.576zm10.847-8.52h-4.296V40.2h9.84v1.248h-4.296V51h-1.248v-9.552zm15.91 7.272l.408.96c-.976 1.024-2.304 1.536-3.984 1.536-1.728 0-3.112-.512-4.152-1.536-1.056-1.024-1.584-2.384-1.584-4.08 0-1.632.48-2.976 1.44-4.032.976-1.056 2.32-1.584 4.032-1.584 1.392 0 2.56.448 3.504 1.344.928.88 1.392 2.056 1.392 3.528 0 .384-.024.72-.072 1.008h-8.904c.048 1.296.472 2.32 1.272 3.072.8.736 1.848 1.104 3.144 1.104 1.504 0 2.672-.44 3.504-1.32zm-3.96-7.56c-1.152 0-2.088.336-2.808 1.008-.704.672-1.112 1.56-1.224 2.664h7.776c-.016-1.136-.36-2.032-1.032-2.688-.672-.656-1.576-.984-2.712-.984zm16.39 9.84h-1.248v-9.552h-4.56l-.144 2.352c-.208 3.04-.712 5.056-1.512 6.048-.64.832-1.432 1.248-2.376 1.248l-.096-1.224c.416 0 .808-.192 1.176-.576.88-.816 1.416-2.728 1.608-5.736l.168-3.36h6.984V51zm6.968 0h-3.168V40.2h1.248v3.624h2.088c2.848 0 4.272 1.184 4.272 3.552 0 1.12-.368 2.008-1.104 2.664-.72.64-1.832.96-3.336.96zm-.048-6h-1.872v4.824h1.848c1.12 0 1.928-.2 2.424-.6.512-.4.768-1.008.768-1.824 0-1.6-1.056-2.4-3.168-2.4z" fill="#141414"/><rect x="2" y="508" width="501" height="89" rx="8" fill="#F6F4F2"/><path d="M148.523 558.976v-16.752c2.224-.064 3.696-.096 4.416-.096 3.536 0 5.304 1.384 5.304 4.152 0 1.024-.296 1.88-.888 2.568-.592.672-1.384 1.128-2.376 1.368v.048c1.248.144 2.208.568 2.88 1.272.688.688 1.032 1.608 1.032 2.76 0 1.568-.536 2.76-1.608 3.576-1.056.8-2.512 1.2-4.368 1.2-1.76 0-3.224-.032-4.392-.096zm4.512-7.968h-3.192v6.72c1.6.064 2.64.096 3.12.096 1.488 0 2.624-.304 3.408-.912.8-.608 1.2-1.504 1.2-2.688 0-1.024-.392-1.816-1.176-2.376-.784-.56-1.904-.84-3.36-.84zm-.144-7.632c-.688 0-1.704.024-3.048.072v6.384h3.264c1.104 0 2.008-.296 2.712-.888.736-.592 1.104-1.392 1.104-2.4 0-2.112-1.344-3.168-4.032-3.168zm28.573.984L170.16 559h-1.176v-16.8h1.32v14.64l11.304-14.64h1.176V559h-1.32v-14.64zm7.965 14.64h-1.32v-16.8h1.344l6.768 9.216 6.504-9.216h1.272V559h-1.32v-14.736l-6.456 9.072h-.216l-6.576-9V559zm33.172-2.448l.624.912c-.432.56-1.016.992-1.752 1.296a5.923 5.923 0 0 1-2.328.456c-1.68 0-3.056-.512-4.128-1.536-1.056-1.024-1.584-2.384-1.584-4.08 0-1.584.512-2.912 1.536-3.984 1.04-1.088 2.32-1.632 3.84-1.632 1.856 0 3.256.448 4.2 1.344l-.6 1.008c-.848-.784-1.984-1.176-3.408-1.176-1.152 0-2.152.424-3 1.272-.832.832-1.248 1.888-1.248 3.168 0 1.344.424 2.424 1.272 3.24.848.8 1.92 1.2 3.216 1.2 1.392 0 2.512-.496 3.36-1.488zm7.675 2.664c-1.664 0-3.024-.528-4.08-1.584s-1.584-2.4-1.584-4.032c0-1.632.528-2.976 1.584-4.032s2.416-1.584 4.08-1.584c1.664 0 3.024.528 4.08 1.584s1.584 2.4 1.584 4.032c0 1.632-.528 2.976-1.584 4.032s-2.416 1.584-4.08 1.584zm0-1.176c1.296 0 2.336-.408 3.12-1.224.816-.832 1.224-1.904 1.224-3.216 0-1.296-.408-2.36-1.224-3.192-.816-.832-1.856-1.248-3.12-1.248-1.248 0-2.288.416-3.12 1.248-.816.832-1.224 1.896-1.224 3.192 0 1.296.408 2.36 1.224 3.192.816.832 1.856 1.248 3.12 1.248zm12.058 1.176c-.736 0-1.552-.136-2.448-.408-.848-.256-1.448-.6-1.8-1.032l.648-.96c.416.384.936.688 1.56.912a5.97 5.97 0 0 0 1.848.312c1.008 0 1.816-.2 2.424-.6.608-.4.912-.936.912-1.608 0-.56-.224-1-.672-1.32-.448-.32-1.056-.48-1.824-.48h-1.824V553h1.704c.608 0 1.128-.192 1.56-.576.432-.384.648-.848.648-1.392 0-.608-.24-1.072-.72-1.392-.48-.32-1.152-.48-2.016-.48-1.264 0-2.392.4-3.384 1.2l-.504-.96c.912-.944 2.264-1.416 4.056-1.416 1.232 0 2.184.256 2.856.768.688.496 1.032 1.184 1.032 2.064 0 1.264-.648 2.128-1.944 2.592v.048c.736.064 1.312.336 1.728.816.416.464.624 1.04.624 1.728 0 .992-.408 1.776-1.224 2.352-.816.576-1.896.864-3.24.864zm7.176 2.52h-1.176v-3.912h1.344c.416-.528.784-1.384 1.104-2.568.336-1.184.552-2.52.648-4.008l.168-3.048h6.888v9.624h1.8v3.912h-1.176V559h-9.6v2.736zm3.264-12.36l-.144 2.352c-.128 1.472-.352 2.752-.672 3.84-.304 1.056-.624 1.808-.96 2.256h6.24v-8.448h-4.464zm10.161.624l-.336-1.032c1.072-.656 2.216-.984 3.432-.984 1.408 0 2.424.352 3.048 1.056.64.704.96 1.792.96 3.264V559h-1.248v-1.656c-.88 1.2-2.112 1.8-3.696 1.8-1.008 0-1.816-.288-2.424-.864-.608-.592-.912-1.376-.912-2.352 0-1.056.384-1.88 1.152-2.472.752-.592 1.736-.888 2.952-.888s2.192.272 2.928.816c0-1.12-.08-1.976-.24-2.568-.128-.576-.392-.984-.792-1.224-.384-.24-.984-.384-1.8-.432-.976 0-1.984.28-3.024.84zm2.544 7.968c1.344 0 2.448-.568 3.312-1.704v-1.8c-.784-.576-1.72-.864-2.808-.864-.816 0-1.504.2-2.064.6-.56.4-.84.952-.84 1.656 0 .64.224 1.152.672 1.536.448.384 1.024.576 1.728.576zM282.471 559h-1.248v-9.552h-4.56l-.144 2.352c-.208 3.04-.712 5.056-1.512 6.048-.64.832-1.432 1.248-2.376 1.248l-.096-1.224c.416 0 .808-.192 1.176-.576.88-.816 1.416-2.728 1.608-5.736l.168-3.36h6.984V559zm12.248-9l-7.2 9h-1.248v-10.8h1.248v9l7.2-9h1.248V559h-1.248v-9zm14.013 9.216c-.736 0-1.552-.136-2.448-.408-.848-.256-1.448-.6-1.8-1.032l.648-.96c.416.384.936.688 1.56.912a5.97 5.97 0 0 0 1.848.312c1.008 0 1.816-.2 2.424-.6.608-.4.912-.936.912-1.608 0-.56-.224-1-.672-1.32-.448-.32-1.056-.48-1.824-.48h-1.824V553h1.704c.608 0 1.128-.192 1.56-.576.432-.384.648-.848.648-1.392 0-.608-.24-1.072-.72-1.392-.48-.32-1.152-.48-2.016-.48-1.264 0-2.392.4-3.384 1.2l-.504-.96c.912-.944 2.264-1.416 4.056-1.416 1.232 0 2.184.256 2.856.768.688.496 1.032 1.184 1.032 2.064 0 1.264-.648 2.128-1.944 2.592v.048c.736.064 1.312.336 1.728.816.416.464.624 1.04.624 1.728 0 .992-.408 1.776-1.224 2.352-.816.576-1.896.864-3.24.864zm7.992-9.216l-.336-1.032c1.072-.656 2.216-.984 3.432-.984 1.408 0 2.424.352 3.048 1.056.64.704.96 1.792.96 3.264V559h-1.248v-1.656c-.88 1.2-2.112 1.8-3.696 1.8-1.008 0-1.816-.288-2.424-.864-.608-.592-.912-1.376-.912-2.352 0-1.056.384-1.88 1.152-2.472.752-.592 1.736-.888 2.952-.888s2.192.272 2.928.816c0-1.12-.08-1.976-.24-2.568-.128-.576-.392-.984-.792-1.224-.384-.24-.984-.384-1.8-.432-.976 0-1.984.28-3.024.84zm2.544 7.968c1.344 0 2.448-.568 3.312-1.704v-1.8c-.784-.576-1.72-.864-2.808-.864-.816 0-1.504.2-2.064.6-.56.4-.84.952-.84 1.656 0 .64.224 1.152.672 1.536.448.384 1.024.576 1.728.576zm15.336-9.768h1.608l-5.328 5.16 5.76 5.64h-1.68l-5.592-5.568 5.232-5.232zm-5.952 10.8h-1.248v-10.8h1.248V559zm10.713-9l-.336-1.032c1.072-.656 2.216-.984 3.432-.984 1.408 0 2.424.352 3.048 1.056.64.704.96 1.792.96 3.264V559h-1.248v-1.656c-.88 1.2-2.112 1.8-3.696 1.8-1.008 0-1.816-.288-2.424-.864-.608-.592-.912-1.376-.912-2.352 0-1.056.384-1.88 1.152-2.472.752-.592 1.736-.888 2.952-.888s2.192.272 2.928.816c0-1.12-.08-1.976-.24-2.568-.128-.576-.392-.984-.792-1.224-.384-.24-.984-.384-1.8-.432-.976 0-1.984.28-3.024.84zm2.544 7.968c1.344 0 2.448-.568 3.312-1.704v-1.8c-.784-.576-1.72-.864-2.808-.864-.816 0-1.504.2-2.064.6-.56.4-.84.952-.84 1.656 0 .64.224 1.152.672 1.536.448.384 1.024.576 1.728.576zm11.471 1.248c-.736 0-1.552-.136-2.448-.408-.848-.256-1.448-.6-1.8-1.032l.648-.96c.416.384.936.688 1.56.912a5.97 5.97 0 0 0 1.848.312c1.008 0 1.816-.2 2.424-.6.608-.4.912-.936.912-1.608 0-.56-.224-1-.672-1.32-.448-.32-1.056-.48-1.824-.48h-1.824V553h1.704c.608 0 1.128-.192 1.56-.576.432-.384.648-.848.648-1.392 0-.608-.24-1.072-.72-1.392-.48-.32-1.152-.48-2.016-.48-1.264 0-2.392.4-3.384 1.2l-.504-.96c.912-.944 2.264-1.416 4.056-1.416 1.232 0 2.184.256 2.856.768.688.496 1.032 1.184 1.032 2.064 0 1.264-.648 2.128-1.944 2.592v.048c.736.064 1.312.336 1.728.816.416.464.624 1.04.624 1.728 0 .992-.408 1.776-1.224 2.352-.816.576-1.896.864-3.24.864z" fill="#141414"/><rect x="1070" y="509" width="500" height="89" rx="8" fill="#F6F4F2"/><path d="M1169.74 560h-1.32v-7.944h-10.49V560h-1.32v-16.8h1.32v7.608h10.49V543.2h1.32V560zm9.44.216c-1.66 0-3.02-.528-4.08-1.584-1.05-1.056-1.58-2.4-1.58-4.032 0-1.632.53-2.976 1.58-4.032 1.06-1.056 2.42-1.584 4.08-1.584 1.67 0 3.03.528 4.08 1.584 1.06 1.056 1.59 2.4 1.59 4.032 0 1.632-.53 2.976-1.59 4.032-1.05 1.056-2.41 1.584-4.08 1.584zm0-1.176c1.3 0 2.34-.408 3.12-1.224.82-.832 1.23-1.904 1.23-3.216 0-1.296-.41-2.36-1.23-3.192-.81-.832-1.85-1.248-3.12-1.248-1.25 0-2.29.416-3.12 1.248-.81.832-1.22 1.896-1.22 3.192 0 1.296.41 2.36 1.22 3.192.82.832 1.86 1.248 3.12 1.248zm8.72.96v-10.8c.53 0 1.04-.008 1.54-.024a85.55 85.55 0 0 1 1.94-.048c2.98 0 4.47.928 4.47 2.784 0 .624-.2 1.168-.6 1.632-.39.448-.91.728-1.59.84v.048c1.73.256 2.6 1.12 2.6 2.592 0 2.032-1.61 3.048-4.83 3.048-.21 0-.84-.016-1.89-.048-.53-.016-1.08-.024-1.64-.024zm3.84-4.968h-2.59v3.816c1.25.032 2.06.048 2.43.048 2.24 0 3.36-.664 3.36-1.992 0-1.248-1.07-1.872-3.2-1.872zm-.21-4.728c-.53 0-1.32.016-2.38.048V554h2.86c.78 0 1.4-.168 1.85-.504.44-.352.67-.816.67-1.392 0-1.2-1-1.8-3-1.8zm10.9 9.696h-2.97v-10.8h1.25v3.624h1.87c2.85 0 4.27 1.184 4.27 3.552 0 1.12-.36 2.008-1.08 2.664-.72.64-1.83.96-3.34.96zm-.07-6h-1.65v4.824h1.63c1.13 0 1.95-.2 2.45-.6.49-.4.74-1.008.74-1.824 0-1.6-1.06-2.4-3.17-2.4zm8.21 6h-1.25v-10.8h1.25V560zm12.24-9l-7.2 9h-1.25v-10.8h1.25v9l7.2-9h1.25V560h-1.25v-9zm-6.79-7.416h1.13c0 .592.21 1.096.62 1.512.42.4.95.6 1.61.6.62 0 1.14-.2 1.54-.6.4-.416.6-.92.6-1.512h1.12c0 .88-.3 1.616-.91 2.208-.61.576-1.39.864-2.35.864-1.02 0-1.84-.28-2.45-.84-.61-.576-.91-1.32-.91-2.232zm25.37 5.616h1.41l-4.37 10.8c-.78 1.904-1.46 3.168-2.04 3.792-.57.672-1.24 1.008-2.01 1.008-.59 0-1.21-.184-1.85-.552l.41-.96c.49.24.92.36 1.27.36.54 0 1.03-.24 1.46-.72.44-.464.88-1.248 1.35-2.352l.24-.576-5.33-10.8h1.49l3.69 7.632.77 1.68c.02-.064.22-.64.6-1.728l2.91-7.584zm4.9 15.6h-1.25v-15.6h1.25v1.44c.43-.48 1.01-.872 1.73-1.176.74-.32 1.48-.48 2.23-.48 1.54 0 2.76.504 3.67 1.512.92 1.008 1.37 2.32 1.37 3.936 0 1.68-.51 3.064-1.53 4.152-1.04 1.088-2.38 1.632-4.01 1.632-1.46 0-2.61-.304-3.46-.912v5.496zm3.63-14.64c-.71 0-1.4.16-2.07.48-.65.32-1.17.72-1.56 1.2v6.216c.99.656 2.11.984 3.36.984 1.28 0 2.32-.424 3.12-1.272.8-.848 1.2-1.936 1.2-3.264 0-1.328-.36-2.384-1.08-3.168-.72-.784-1.71-1.176-2.97-1.176zm13.31 10.056c-1.66 0-3.02-.528-4.08-1.584s-1.58-2.4-1.58-4.032c0-1.632.52-2.976 1.58-4.032s2.42-1.584 4.08-1.584c1.66 0 3.02.528 4.08 1.584s1.58 2.4 1.58 4.032c0 1.632-.52 2.976-1.58 4.032s-2.42 1.584-4.08 1.584zm0-1.176c1.3 0 2.34-.408 3.12-1.224.82-.832 1.22-1.904 1.22-3.216 0-1.296-.4-2.36-1.22-3.192-.82-.832-1.86-1.248-3.12-1.248-1.25 0-2.29.416-3.12 1.248-.82.832-1.22 1.896-1.22 3.192 0 1.296.4 2.36 1.22 3.192.82.832 1.86 1.248 3.12 1.248zm8.72.96v-10.8c.53 0 1.04-.008 1.54-.024a85.55 85.55 0 0 1 1.94-.048c2.98 0 4.46.928 4.46 2.784 0 .624-.2 1.168-.6 1.632-.38.448-.91.728-1.58.84v.048c1.73.256 2.59 1.12 2.59 2.592 0 2.032-1.61 3.048-4.82 3.048-.21 0-.84-.016-1.9-.048-.53-.016-1.07-.024-1.63-.024zm3.84-4.968h-2.59v3.816c1.25.032 2.05.048 2.42.048 2.24 0 3.36-.664 3.36-1.992 0-1.248-1.06-1.872-3.19-1.872zm-.22-4.728c-.52 0-1.32.016-2.37.048V554h2.85c.79 0 1.4-.168 1.85-.504.45-.352.67-.816.67-1.392 0-1.2-1-1.8-3-1.8zm16.48 7.416l.41.96c-.98 1.024-2.31 1.536-3.99 1.536-1.72 0-3.11-.512-4.15-1.536-1.05-1.024-1.58-2.384-1.58-4.08 0-1.632.48-2.976 1.44-4.032.97-1.056 2.32-1.584 4.03-1.584 1.39 0 2.56.448 3.5 1.344.93.88 1.4 2.056 1.4 3.528 0 .384-.03.72-.08 1.008h-8.9c.05 1.296.47 2.32 1.27 3.072.8.736 1.85 1.104 3.15 1.104 1.5 0 2.67-.44 3.5-1.32zm-3.96-7.56c-1.15 0-2.09.336-2.81 1.008-.7.672-1.11 1.56-1.22 2.664h7.77c-.01-1.136-.36-2.032-1.03-2.688-.67-.656-1.57-.984-2.71-.984zm17.51 9.84h-1.25v-4.896h-7.01V560h-1.25v-10.8h1.25v4.728h7.01V549.2h1.25V560zm6.95 0h-3.17v-10.8h1.25v3.624h2.09c2.84 0 4.27 1.184 4.27 3.552 0 1.12-.37 2.008-1.11 2.664-.72.64-1.83.96-3.33.96zm-.05-6h-1.87v4.824h1.85c1.12 0 1.92-.2 2.42-.6.51-.4.77-1.008.77-1.824 0-1.6-1.06-2.4-3.17-2.4zm21.41 3.552l.62.912c-.43.56-1.02.992-1.75 1.296a5.94 5.94 0 0 1-2.33.456c-1.68 0-3.06-.512-4.13-1.536-1.05-1.024-1.58-2.384-1.58-4.08 0-1.584.51-2.912 1.53-3.984 1.04-1.088 2.32-1.632 3.84-1.632 1.86 0 3.26.448 4.2 1.344l-.6 1.008c-.84-.784-1.98-1.176-3.4-1.176-1.16 0-2.16.424-3 1.272-.84.832-1.25 1.888-1.25 3.168 0 1.344.42 2.424 1.27 3.24.85.8 1.92 1.2 3.22 1.2 1.39 0 2.51-.496 3.36-1.488zm10.56-8.352h1.61l-5.33 5.16 5.76 5.64h-1.68l-5.59-5.568 5.23-5.232zm-5.95 10.8h-1.25v-10.8h1.25V560zm18.82-9l-7.2 9h-1.24v-10.8h1.24v9l7.2-9h1.25V560h-1.25v-9zm4.55 11.736h-1.17v-3.912h1.34c.42-.528.78-1.384 1.1-2.568.34-1.184.56-2.52.65-4.008l.17-3.048h6.89v9.624h1.8v3.912h-1.18V560h-9.6v2.736zm3.27-12.36l-.15 2.352c-.13 1.472-.35 2.752-.67 3.84-.3 1.056-.62 1.808-.96 2.256h6.24v-8.448h-4.46zm17.02-1.176h1.61l-5.33 5.16 5.76 5.64h-1.68l-5.59-5.568 5.23-5.232zm-5.95 10.8h-1.25v-10.8h1.25V560zm18.82-9l-7.2 9h-1.24v-10.8h1.24v9l7.2-9h1.25V560h-1.25v-9zm19.13 0l-7.2 9h-1.25v-10.8h1.25v9l7.2-9h1.25V560h-1.25v-9zm8.36 9.216c-.73 0-1.55-.136-2.44-.408-.85-.256-1.45-.6-1.8-1.032l.64-.96c.42.384.94.688 1.56.912.64.208 1.26.312 1.85.312 1.01 0 1.82-.2 2.43-.6.6-.4.91-.936.91-1.608 0-.56-.23-1-.67-1.32-.45-.32-1.06-.48-1.83-.48h-1.82V554h1.7c.61 0 1.13-.192 1.56-.576.43-.384.65-.848.65-1.392 0-.608-.24-1.072-.72-1.392-.48-.32-1.15-.48-2.02-.48-1.26 0-2.39.4-3.38 1.2l-.5-.96c.91-.944 2.26-1.416 4.05-1.416 1.23 0 2.19.256 2.86.768.69.496 1.03 1.184 1.03 2.064 0 1.264-.65 2.128-1.94 2.592v.048c.73.064 1.31.336 1.72.816.42.464.63 1.04.63 1.728 0 .992-.41 1.776-1.23 2.352-.81.576-1.89.864-3.24.864zm25.81-2.832l.53.984c-.57.576-1.33 1.032-2.28 1.368-.93.32-1.9.48-2.93.48-2.49 0-4.52-.784-6.09-2.352-1.55-1.552-2.33-3.64-2.33-6.264 0-2.48.75-4.528 2.26-6.144 1.5-1.648 3.49-2.472 5.97-2.472 2.13 0 3.83.528 5.09 1.584l-.62.984c-1.14-.88-2.62-1.32-4.44-1.32-2.05 0-3.71.696-4.97 2.088-1.27 1.36-1.9 3.12-1.9 5.28 0 2.192.66 3.968 1.97 5.328 1.31 1.36 3.03 2.04 5.16 2.04 1.76 0 3.29-.528 4.58-1.584zm5.34-4.44V560h-1.32v-16.8c.72 0 1.45-.008 2.18-.024.74-.016 1.35-.024 1.85-.024 3.92 0 5.88 1.616 5.88 4.848 0 1.152-.38 2.168-1.13 3.048-.75.848-1.7 1.392-2.85 1.632l5.88 7.32h-1.64l-5.59-7.056h-3.26zm2.64-8.544c-.35 0-1.23.016-2.64.048v7.248h2.9c1.14 0 2.13-.344 2.98-1.032.88-.688 1.32-1.576 1.32-2.664 0-2.4-1.52-3.6-4.56-3.6zm12.5 15.6h-1.32v-16.8h1.34l6.77 9.216 6.5-9.216h1.28V560h-1.32v-14.736l-6.46 9.072h-.22l-6.57-9V560z" fill="#141414"/><rect y="175" width="504" height="89" rx="8" fill="#F6F4F2"/><path d="M144.59 229.216h-1.248v-4.464h1.8c.544-.704 1.12-2.072 1.728-4.104.624-2.128 1.016-4.824 1.176-8.088l.168-3.36h9.456v15.552h2.28v4.464h-1.248V226H144.59v3.216zm4.896-18.768l-.192 3.072c-.208 3.04-.592 5.536-1.152 7.488-.544 1.92-1.056 3.168-1.536 3.744h9.744v-14.304h-6.864zM163.002 217l-.336-1.032c1.072-.656 2.216-.984 3.432-.984 1.408 0 2.424.352 3.048 1.056.64.704.96 1.792.96 3.264V226h-1.248v-1.656c-.88 1.2-2.112 1.8-3.696 1.8-1.008 0-1.816-.288-2.424-.864-.608-.592-.912-1.376-.912-2.352 0-1.056.384-1.88 1.152-2.472.752-.592 1.736-.888 2.952-.888s2.192.272 2.928.816c0-1.12-.08-1.976-.24-2.568-.128-.576-.392-.984-.792-1.224-.384-.24-.984-.384-1.8-.432-.976 0-1.984.28-3.024.84zm2.544 7.968c1.344 0 2.448-.568 3.312-1.704v-1.8c-.784-.576-1.72-.864-2.808-.864-.816 0-1.504.2-2.064.6-.56.4-.84.952-.84 1.656 0 .64.224 1.152.672 1.536.448.384 1.024.576 1.728.576zM183.185 226h-1.248v-4.896h-7.008V226h-1.248v-10.8h1.248v4.728h7.008V215.2h1.248V226zm13.289 0h-1.248v-4.896h-7.008V226h-1.248v-10.8h1.248v4.728h7.008V215.2h1.248V226zm6.761 0h-2.976v-10.8h1.248v3.624h1.872c2.848 0 4.272 1.184 4.272 3.552 0 1.12-.36 2.008-1.08 2.664-.72.64-1.832.96-3.336.96zm-.072-6h-1.656v4.824h1.632c1.136 0 1.952-.2 2.448-.6.496-.4.744-1.008.744-1.824 0-1.6-1.056-2.4-3.168-2.4zm8.208 6h-1.248v-10.8h1.248V226zm12.339-2.28l.408.96c-.976 1.024-2.304 1.536-3.984 1.536-1.728 0-3.112-.512-4.152-1.536-1.056-1.024-1.584-2.384-1.584-4.08 0-1.632.48-2.976 1.44-4.032.976-1.056 2.32-1.584 4.032-1.584 1.392 0 2.56.448 3.504 1.344.928.88 1.392 2.056 1.392 3.528 0 .384-.024.72-.072 1.008h-8.904c.048 1.296.472 2.32 1.272 3.072.8.736 1.848 1.104 3.144 1.104 1.504 0 2.672-.44 3.504-1.32zm-3.96-7.56c-1.152 0-2.088.336-2.808 1.008-.704.672-1.112 1.56-1.224 2.664h7.776c-.016-1.136-.36-2.032-1.032-2.688-.672-.656-1.576-.984-2.712-.984zm21.546-.96h1.416l-4.368 10.8c-.784 1.904-1.464 3.168-2.04 3.792-.576.672-1.248 1.008-2.016 1.008-.592 0-1.208-.184-1.848-.552l.408-.96c.496.24.92.36 1.272.36.544 0 1.032-.24 1.464-.72.432-.464.88-1.248 1.344-2.352l.24-.576-5.328-10.8h1.488l3.696 7.632.768 1.68c.016-.064.216-.64.6-1.728l2.904-7.584zm16.763 10.8h-13.104v-10.8h1.248v9.624h4.68V215.2h1.248v9.624h4.68V215.2h1.248V226zm12.673 0h-1.248v-9.552h-4.56l-.144 2.352c-.208 3.04-.712 5.056-1.512 6.048-.64.832-1.432 1.248-2.376 1.248l-.096-1.224c.416 0 .808-.192 1.176-.576.88-.816 1.416-2.728 1.608-5.736l.168-3.36h6.984V226zm12.249-9l-7.2 9h-1.248v-10.8h1.248v9l7.2-9h1.248V226h-1.248v-9zm10.677 9v-10.8c.528 0 1.04-.008 1.536-.024a85.964 85.964 0 0 1 1.944-.048c2.976 0 4.464.928 4.464 2.784 0 .624-.2 1.168-.6 1.632-.384.448-.912.728-1.584.84v.048c1.728.256 2.592 1.12 2.592 2.592 0 2.032-1.608 3.048-4.824 3.048-.208 0-.84-.016-1.896-.048a53.912 53.912 0 0 0-1.632-.024zm3.84-4.968h-2.592v3.816c1.248.032 2.056.048 2.424.048 2.24 0 3.36-.664 3.36-1.992 0-1.248-1.064-1.872-3.192-1.872zm-.216-4.728c-.528 0-1.32.016-2.376.048V220h2.856c.784 0 1.4-.168 1.848-.504.448-.352.672-.816.672-1.392 0-1.2-1-1.8-3-1.8zm26.083 7.08l.528.984c-.576.576-1.336 1.032-2.28 1.368-.928.32-1.904.48-2.928.48-2.496 0-4.528-.784-6.096-2.352-1.552-1.552-2.328-3.64-2.328-6.264 0-2.48.752-4.528 2.256-6.144 1.504-1.648 3.496-2.472 5.976-2.472 2.128 0 3.824.528 5.088 1.584l-.624.984c-1.136-.88-2.616-1.32-4.44-1.32-2.048 0-3.704.696-4.968 2.088-1.264 1.36-1.896 3.12-1.896 5.28 0 2.192.656 3.968 1.968 5.328 1.312 1.36 3.032 2.04 5.16 2.04 1.76 0 3.288-.528 4.584-1.584zm5.334-4.44V226h-1.32v-16.8c.72 0 1.448-.008 2.184-.024a87.546 87.546 0 0 1 1.848-.024c3.92 0 5.88 1.616 5.88 4.848a4.553 4.553 0 0 1-1.128 3.048c-.752.848-1.704 1.392-2.856 1.632l5.88 7.32h-1.632l-5.592-7.056h-3.264zm2.64-8.544c-.352 0-1.232.016-2.64.048v7.248h2.904c1.136 0 2.128-.344 2.976-1.032.88-.688 1.32-1.576 1.32-2.664 0-2.4-1.52-3.6-4.56-3.6zm12.5 15.6h-1.32v-16.8h1.344l6.768 9.216 6.504-9.216h1.272V226h-1.32v-14.736l-6.456 9.072h-.216l-6.576-9V226z" fill="#141414"/><rect y="345" width="504" height="89" rx="8" fill="#F6F4F2"/><path d="M108.748 393.384l.528.984c-.576.576-1.336 1.032-2.28 1.368-.928.32-1.904.48-2.928.48-2.496 0-4.528-.784-6.096-2.352-1.552-1.552-2.328-3.64-2.328-6.264 0-2.48.752-4.528 2.256-6.144 1.504-1.648 3.496-2.472 5.976-2.472 2.128 0 3.824.528 5.088 1.584l-.624.984c-1.136-.88-2.616-1.32-4.44-1.32-2.048 0-3.704.696-4.968 2.088-1.264 1.36-1.896 3.12-1.896 5.28 0 2.192.656 3.968 1.968 5.328 1.312 1.36 3.032 2.04 5.16 2.04 1.76 0 3.288-.528 4.584-1.584zm5.334-4.44V396h-1.32v-16.8c.72 0 1.448-.008 2.184-.024a87.546 87.546 0 0 1 1.848-.024c3.92 0 5.88 1.616 5.88 4.848a4.553 4.553 0 0 1-1.128 3.048c-.752.848-1.704 1.392-2.856 1.632l5.88 7.32h-1.632l-5.592-7.056h-3.264zm2.64-8.544c-.352 0-1.232.016-2.64.048v7.248h2.904c1.136 0 2.128-.344 2.976-1.032.88-.688 1.32-1.576 1.32-2.664 0-2.4-1.52-3.6-4.56-3.6zm12.5 15.6h-1.32v-16.8h1.344l6.768 9.216 6.504-9.216h1.272V396h-1.32v-14.736l-6.456 9.072h-.216l-6.576-9V396zm24.772 0v-10.8c.528 0 1.04-.008 1.536-.024a85.964 85.964 0 0 1 1.944-.048c2.976 0 4.464.928 4.464 2.784 0 .624-.2 1.168-.6 1.632-.384.448-.912.728-1.584.84v.048c1.728.256 2.592 1.12 2.592 2.592 0 2.032-1.608 3.048-4.824 3.048-.208 0-.84-.016-1.896-.048a53.912 53.912 0 0 0-1.632-.024zm3.84-4.968h-2.592v3.816c1.248.032 2.056.048 2.424.048 2.24 0 3.36-.664 3.36-1.992 0-1.248-1.064-1.872-3.192-1.872zm-.216-4.728c-.528 0-1.32.016-2.376.048V390h2.856c.784 0 1.4-.168 1.848-.504.448-.352.672-.816.672-1.392 0-1.2-1-1.8-3-1.8zm16.474 7.416l.408.96c-.976 1.024-2.304 1.536-3.984 1.536-1.728 0-3.112-.512-4.152-1.536-1.056-1.024-1.584-2.384-1.584-4.08 0-1.632.48-2.976 1.44-4.032.976-1.056 2.32-1.584 4.032-1.584 1.392 0 2.56.448 3.504 1.344.928.88 1.392 2.056 1.392 3.528 0 .384-.024.72-.072 1.008h-8.904c.048 1.296.472 2.32 1.272 3.072.8.736 1.848 1.104 3.144 1.104 1.504 0 2.672-.44 3.504-1.32zm-3.96-7.56c-1.152 0-2.088.336-2.808 1.008-.704.672-1.112 1.56-1.224 2.664h7.776c-.016-1.136-.36-2.032-1.032-2.688-.672-.656-1.576-.984-2.712-.984zm9.25 14.64h-1.248v-15.6h1.248v1.44c.432-.48 1.008-.872 1.728-1.176.736-.32 1.48-.48 2.232-.48 1.536 0 2.76.504 3.672 1.512.912 1.008 1.368 2.32 1.368 3.936 0 1.68-.512 3.064-1.536 4.152-1.04 1.088-2.376 1.632-4.008 1.632-1.456 0-2.608-.304-3.456-.912v5.496zm3.624-14.64c-.704 0-1.392.16-2.064.48-.656.32-1.176.72-1.56 1.2v6.216c.992.656 2.112.984 3.36.984 1.28 0 2.32-.424 3.12-1.272.8-.848 1.2-1.936 1.2-3.264 0-1.328-.36-2.384-1.08-3.168-.72-.784-1.712-1.176-2.976-1.176zm17.921 9.84h-1.248v-4.896h-7.008V396h-1.248v-10.8h1.248v4.728h7.008V385.2h1.248V396zm11.681-10.8h1.416l-4.368 10.8c-.784 1.904-1.464 3.168-2.04 3.792-.576.672-1.248 1.008-2.016 1.008-.592 0-1.208-.184-1.848-.552l.408-.96c.496.24.92.36 1.272.36.544 0 1.032-.24 1.464-.72.432-.464.88-1.248 1.344-2.352l.24-.576-5.328-10.8h1.488l3.696 7.632.768 1.68c.016-.064.216-.64.6-1.728l2.904-7.584zM224.49 396h-1.248v-9.552h-4.56l-.144 2.352c-.208 3.04-.712 5.056-1.512 6.048-.64.832-1.432 1.248-2.376 1.248l-.096-1.224c.416 0 .808-.192 1.176-.576.88-.816 1.416-2.728 1.608-5.736l.168-3.36h6.984V396zm4.137-9l-.336-1.032c1.072-.656 2.216-.984 3.432-.984 1.408 0 2.424.352 3.048 1.056.64.704.96 1.792.96 3.264V396h-1.248v-1.656c-.88 1.2-2.112 1.8-3.696 1.8-1.008 0-1.816-.288-2.424-.864-.608-.592-.912-1.376-.912-2.352 0-1.056.384-1.88 1.152-2.472.752-.592 1.736-.888 2.952-.888s2.192.272 2.928.816c0-1.12-.08-1.976-.24-2.568-.128-.576-.392-.984-.792-1.224-.384-.24-.984-.384-1.8-.432-.976 0-1.984.28-3.024.84zm2.544 7.968c1.344 0 2.448-.568 3.312-1.704v-1.8c-.784-.576-1.72-.864-2.808-.864-.816 0-1.504.2-2.064.6-.56.4-.84.952-.84 1.656 0 .64.224 1.152.672 1.536.448.384 1.024.576 1.728.576zm21.68-9.768h1.416l-4.368 10.8c-.784 1.904-1.464 3.168-2.04 3.792-.576.672-1.248 1.008-2.016 1.008-.592 0-1.208-.184-1.848-.552l.408-.96c.496.24.92.36 1.272.36.544 0 1.032-.24 1.464-.72.432-.464.88-1.248 1.344-2.352l.24-.576-5.328-10.8h1.488l3.696 7.632.768 1.68c.016-.064.216-.64.6-1.728l2.904-7.584zm4.906 15.6h-1.248v-15.6h1.248v1.44c.432-.48 1.008-.872 1.728-1.176.736-.32 1.48-.48 2.232-.48 1.536 0 2.76.504 3.672 1.512.912 1.008 1.368 2.32 1.368 3.936 0 1.68-.512 3.064-1.536 4.152-1.04 1.088-2.376 1.632-4.008 1.632-1.456 0-2.608-.304-3.456-.912v5.496zm3.624-14.64c-.704 0-1.392.16-2.064.48-.656.32-1.176.72-1.56 1.2v6.216c.992.656 2.112.984 3.36.984 1.28 0 2.32-.424 3.12-1.272.8-.848 1.2-1.936 1.2-3.264 0-1.328-.36-2.384-1.08-3.168-.72-.784-1.712-1.176-2.976-1.176zm13.313 10.056c-1.664 0-3.024-.528-4.08-1.584s-1.584-2.4-1.584-4.032c0-1.632.528-2.976 1.584-4.032s2.416-1.584 4.08-1.584c1.664 0 3.024.528 4.08 1.584s1.584 2.4 1.584 4.032c0 1.632-.528 2.976-1.584 4.032s-2.416 1.584-4.08 1.584zm0-1.176c1.296 0 2.336-.408 3.12-1.224.816-.832 1.224-1.904 1.224-3.216 0-1.296-.408-2.36-1.224-3.192-.816-.832-1.856-1.248-3.12-1.248-1.248 0-2.288.416-3.12 1.248-.816.832-1.224 1.896-1.224 3.192 0 1.296.408 2.36 1.224 3.192.816.832 1.856 1.248 3.12 1.248zm8.722.96v-10.8c.528 0 1.04-.008 1.536-.024a85.964 85.964 0 0 1 1.944-.048c2.976 0 4.464.928 4.464 2.784 0 .624-.2 1.168-.6 1.632-.384.448-.912.728-1.584.84v.048c1.728.256 2.592 1.12 2.592 2.592 0 2.032-1.608 3.048-4.824 3.048-.208 0-.84-.016-1.896-.048a53.912 53.912 0 0 0-1.632-.024zm3.84-4.968h-2.592v3.816c1.248.032 2.056.048 2.424.048 2.24 0 3.36-.664 3.36-1.992 0-1.248-1.064-1.872-3.192-1.872zm-.216-4.728c-.528 0-1.32.016-2.376.048V390h2.856c.784 0 1.4-.168 1.848-.504.448-.352.672-.816.672-1.392 0-1.2-1-1.8-3-1.8zm16.474 7.416l.408.96c-.976 1.024-2.304 1.536-3.984 1.536-1.728 0-3.112-.512-4.152-1.536-1.056-1.024-1.584-2.384-1.584-4.08 0-1.632.48-2.976 1.44-4.032.976-1.056 2.32-1.584 4.032-1.584 1.392 0 2.56.448 3.504 1.344.928.88 1.392 2.056 1.392 3.528 0 .384-.024.72-.072 1.008h-8.904c.048 1.296.472 2.32 1.272 3.072.8.736 1.848 1.104 3.144 1.104 1.504 0 2.672-.44 3.504-1.32zm-3.96-7.56c-1.152 0-2.088.336-2.808 1.008-.704.672-1.112 1.56-1.224 2.664h7.776c-.016-1.136-.36-2.032-1.032-2.688-.672-.656-1.576-.984-2.712-.984zM317.06 396h-1.248v-4.896h-7.008V396h-1.248v-10.8h1.248v4.728h7.008V385.2h1.248V396zm6.953 0h-3.168v-10.8h1.248v3.624h2.088c2.848 0 4.272 1.184 4.272 3.552 0 1.12-.368 2.008-1.104 2.664-.72.64-1.832.96-3.336.96zm-.048-6h-1.872v4.824h1.848c1.12 0 1.928-.2 2.424-.6.512-.4.768-1.008.768-1.824 0-1.6-1.056-2.4-3.168-2.4zm21.405 3.552l.624.912c-.432.56-1.016.992-1.752 1.296a5.923 5.923 0 0 1-2.328.456c-1.68 0-3.056-.512-4.128-1.536-1.056-1.024-1.584-2.384-1.584-4.08 0-1.584.512-2.912 1.536-3.984 1.04-1.088 2.32-1.632 3.84-1.632 1.856 0 3.256.448 4.2 1.344l-.6 1.008c-.848-.784-1.984-1.176-3.408-1.176-1.152 0-2.152.424-3 1.272-.832.832-1.248 1.888-1.248 3.168 0 1.344.424 2.424 1.272 3.24.848.8 1.92 1.2 3.216 1.2 1.392 0 2.512-.496 3.36-1.488zm10.566-8.352h1.608l-5.328 5.16 5.76 5.64h-1.68l-5.592-5.568 5.232-5.232zm-5.952 10.8h-1.248v-10.8h1.248V396zm18.825-9l-7.2 9h-1.248v-10.8h1.248v9l7.2-9h1.248V396h-1.248v-9zm4.548 11.736h-1.176v-3.912h1.344c.416-.528.784-1.384 1.104-2.568.336-1.184.552-2.52.648-4.008l.168-3.048h6.888v9.624h1.8v3.912h-1.176V396h-9.6v2.736zm3.264-12.36l-.144 2.352c-.128 1.472-.352 2.752-.672 3.84-.304 1.056-.624 1.808-.96 2.256h6.24v-8.448h-4.464zm17.026-1.176h1.608l-5.328 5.16 5.76 5.64h-1.68l-5.592-5.568 5.232-5.232zm-5.952 10.8h-1.248v-10.8h1.248V396zm18.825-9l-7.2 9h-1.248v-10.8h1.248v9l7.2-9h1.248V396h-1.248v-9z" fill="#141414"/><rect x="536" y="509" width="499" height="89" rx="8" fill="#F6F4F2"/><path d="M600.166 557.384l.528.984c-.576.576-1.336 1.032-2.28 1.368-.928.32-1.904.48-2.928.48-2.496 0-4.528-.784-6.096-2.352-1.552-1.552-2.328-3.64-2.328-6.264 0-2.48.752-4.528 2.256-6.144 1.504-1.648 3.496-2.472 5.976-2.472 2.128 0 3.824.528 5.088 1.584l-.624.984c-1.136-.88-2.616-1.32-4.44-1.32-2.048 0-3.704.696-4.968 2.088-1.264 1.36-1.896 3.12-1.896 5.28 0 2.192.656 3.968 1.968 5.328 1.312 1.36 3.032 2.04 5.16 2.04 1.76 0 3.288-.528 4.584-1.584zm10.415-8.184h1.416l-4.368 10.8c-.784 1.904-1.464 3.168-2.04 3.792-.576.672-1.248 1.008-2.016 1.008-.592 0-1.208-.184-1.848-.552l.408-.96c.496.24.92.36 1.272.36.544 0 1.032-.24 1.464-.72.432-.464.88-1.248 1.344-2.352l.24-.576-5.328-10.8h1.488l3.696 7.632.768 1.68c.016-.064.216-.64.6-1.728l2.904-7.584zm4.907 10.8h-1.248v-10.8h1.176l4.488 6.024 4.32-6.024h1.128V560h-1.248v-8.904l-4.2 5.832h-.072l-4.344-5.832V560zm14.929 0h-1.248v-10.8h1.176l4.488 6.024 4.32-6.024h1.128V560h-1.248v-8.904l-4.2 5.832h-.072l-4.344-5.832V560zm14.018-9l-.336-1.032c1.072-.656 2.216-.984 3.432-.984 1.408 0 2.424.352 3.048 1.056.64.704.96 1.792.96 3.264V560h-1.248v-1.656c-.88 1.2-2.112 1.8-3.696 1.8-1.008 0-1.816-.288-2.424-.864-.608-.592-.912-1.376-.912-2.352 0-1.056.384-1.88 1.152-2.472.752-.592 1.736-.888 2.952-.888s2.192.272 2.928.816c0-1.12-.08-1.976-.24-2.568-.128-.576-.392-.984-.792-1.224-.384-.24-.984-.384-1.8-.432-.976 0-1.984.28-3.024.84zm2.544 7.968c1.344 0 2.448-.568 3.312-1.704v-1.8c-.784-.576-1.72-.864-2.808-.864-.816 0-1.504.2-2.064.6-.56.4-.84.952-.84 1.656 0 .64.224 1.152.672 1.536.448.384 1.024.576 1.728.576zM670.147 560h-1.248v-9.624h-6.888V560h-1.248v-10.8h9.384V560zm8.684.216c-1.664 0-3.024-.528-4.08-1.584s-1.584-2.4-1.584-4.032c0-1.632.528-2.976 1.584-4.032s2.416-1.584 4.08-1.584c1.664 0 3.024.528 4.08 1.584s1.584 2.4 1.584 4.032c0 1.632-.528 2.976-1.584 4.032s-2.416 1.584-4.08 1.584zm0-1.176c1.296 0 2.336-.408 3.12-1.224.816-.832 1.224-1.904 1.224-3.216 0-1.296-.408-2.36-1.224-3.192-.816-.832-1.856-1.248-3.12-1.248-1.248 0-2.288.416-3.12 1.248-.816.832-1.224 1.896-1.224 3.192 0 1.296.408 2.36 1.224 3.192.816.832 1.856 1.248 3.12 1.248zm15.921-9.84h1.608l-5.328 5.16 5.76 5.64h-1.68l-5.592-5.568 5.232-5.232zM688.8 560h-1.248v-10.8h1.248V560zm17.969-10.8h1.416l-4.368 10.8c-.784 1.904-1.464 3.168-2.04 3.792-.576.672-1.248 1.008-2.016 1.008-.592 0-1.208-.184-1.848-.552l.408-.96c.496.24.92.36 1.272.36.544 0 1.032-.24 1.464-.72.432-.464.88-1.248 1.344-2.352l.24-.576-5.328-10.8h1.488l3.696 7.632.768 1.68c.016-.064.216-.64.6-1.728l2.904-7.584zm13.042 10.8h-1.248v-9.624h-6.888V560h-1.248v-10.8h9.384V560zm8.684.216c-1.664 0-3.024-.528-4.08-1.584s-1.584-2.4-1.584-4.032c0-1.632.528-2.976 1.584-4.032s2.416-1.584 4.08-1.584c1.664 0 3.024.528 4.08 1.584s1.584 2.4 1.584 4.032c0 1.632-.528 2.976-1.584 4.032s-2.416 1.584-4.08 1.584zm0-1.176c1.296 0 2.336-.408 3.12-1.224.816-.832 1.224-1.904 1.224-3.216 0-1.296-.408-2.36-1.224-3.192-.816-.832-1.856-1.248-3.12-1.248-1.248 0-2.288.416-3.12 1.248-.816.832-1.224 1.896-1.224 3.192 0 1.296.408 2.36 1.224 3.192.816.832 1.856 1.248 3.12 1.248zm15.921-9.84h1.608l-5.328 5.16 5.76 5.64h-1.68l-5.592-5.568 5.232-5.232zm-5.952 10.8h-1.248v-10.8h1.248V560zm23.922-10.8h1.416l-4.368 10.8c-.784 1.904-1.464 3.168-2.04 3.792-.576.672-1.248 1.008-2.016 1.008-.592 0-1.208-.184-1.848-.552l.408-.96c.496.24.92.36 1.272.36.544 0 1.032-.24 1.464-.72.432-.464.88-1.248 1.344-2.352l.24-.576-5.328-10.8h1.488l3.696 7.632.768 1.68c.016-.064.216-.64.6-1.728l2.904-7.584zm16.507 0h1.608l-5.328 5.16 5.76 5.64h-1.68l-5.592-5.568 5.232-5.232zm-5.952 10.8h-1.248v-10.8h1.248V560zm19.139 0h-1.248v-9.552h-4.56l-.144 2.352c-.208 3.04-.712 5.056-1.512 6.048-.64.832-1.432 1.248-2.376 1.248l-.096-1.224c.416 0 .808-.192 1.176-.576.88-.816 1.416-2.728 1.608-5.736l.168-3.36h6.984V560zm12.248-9l-7.2 9h-1.248v-10.8h1.248v9l7.2-9h1.248V560h-1.248v-9zm13.573 6.72l.408.96c-.976 1.024-2.304 1.536-3.984 1.536-1.728 0-3.112-.512-4.152-1.536-1.056-1.024-1.584-2.384-1.584-4.08 0-1.632.48-2.976 1.44-4.032.976-1.056 2.32-1.584 4.032-1.584 1.392 0 2.56.448 3.504 1.344.928.88 1.392 2.056 1.392 3.528 0 .384-.024.72-.072 1.008h-8.904c.048 1.296.472 2.32 1.272 3.072.8.736 1.848 1.104 3.144 1.104 1.504 0 2.672-.44 3.504-1.32zm-3.96-7.56c-1.152 0-2.088.336-2.808 1.008-.704.672-1.112 1.56-1.224 2.664h7.776c-.016-1.136-.36-2.032-1.032-2.688-.672-.656-1.576-.984-2.712-.984zm17.506 9.84h-1.248v-4.896h-7.008V560h-1.248v-10.8h1.248v4.728h7.008V549.2h1.248V560zm6.497-9.552h-4.296V549.2h9.84v1.248h-4.296V560h-1.248v-9.552zm8.077.552l-.336-1.032c1.072-.656 2.216-.984 3.432-.984 1.408 0 2.424.352 3.048 1.056.64.704.96 1.792.96 3.264V560h-1.248v-1.656c-.88 1.2-2.112 1.8-3.696 1.8-1.008 0-1.816-.288-2.424-.864-.608-.592-.912-1.376-.912-2.352 0-1.056.384-1.88 1.152-2.472.752-.592 1.736-.888 2.952-.888s2.192.272 2.928.816c0-1.12-.08-1.976-.24-2.568-.128-.576-.392-.984-.792-1.224-.384-.24-.984-.384-1.8-.432-.976 0-1.984.28-3.024.84zm2.544 7.968c1.344 0 2.448-.568 3.312-1.704v-1.8c-.784-.576-1.72-.864-2.808-.864-.816 0-1.504.2-2.064.6-.56.4-.84.952-.84 1.656 0 .64.224 1.152.672 1.536.448.384 1.024.576 1.728.576zm18.68 1.248c-1.664 0-3.024-.528-4.08-1.584s-1.584-2.4-1.584-4.032c0-1.632.528-2.976 1.584-4.032s2.416-1.584 4.08-1.584c1.664 0 3.024.528 4.08 1.584s1.584 2.4 1.584 4.032c0 1.632-.528 2.976-1.584 4.032s-2.416 1.584-4.08 1.584zm0-1.176c1.296 0 2.336-.408 3.12-1.224.816-.832 1.224-1.904 1.224-3.216 0-1.296-.408-2.36-1.224-3.192-.816-.832-1.856-1.248-3.12-1.248-1.248 0-2.288.416-3.12 1.248-.816.832-1.224 1.896-1.224 3.192 0 1.296.408 2.36 1.224 3.192.816.832 1.856 1.248 3.12 1.248zm17.265-16.08l.696.936c-.368.528-.816.888-1.344 1.08a16 16 0 0 1-2.088.456 8.055 8.055 0 0 0-2.256.624c-1.84.784-2.872 2.832-3.096 6.144h.048c.368-.88.984-1.584 1.848-2.112a5.172 5.172 0 0 1 2.808-.816c1.568 0 2.816.496 3.744 1.488.928.976 1.392 2.288 1.392 3.936 0 1.52-.52 2.824-1.56 3.912-1.024 1.072-2.328 1.608-3.912 1.608-1.696 0-3.064-.592-4.104-1.776-1.008-1.184-1.512-2.808-1.512-4.872 0-4.736 1.32-7.64 3.96-8.712a10.114 10.114 0 0 1 2.232-.6c.96-.16 1.648-.312 2.064-.456.416-.16.776-.44 1.08-.84zm-8.016 10.824c0 1.616.392 2.896 1.176 3.84.784.944 1.808 1.416 3.072 1.416 1.216 0 2.216-.416 3-1.248.8-.848 1.2-1.864 1.2-3.048 0-1.296-.368-2.336-1.104-3.12-.736-.784-1.736-1.176-3-1.176-1.136 0-2.104.336-2.904 1.008-.768.672-1.248 1.448-1.44 2.328zM898.783 560h-1.248v-4.896h-7.008V560h-1.248v-10.8h1.248v4.728h7.008V549.2h1.248V560zm8.681.216c-1.664 0-3.024-.528-4.08-1.584s-1.584-2.4-1.584-4.032c0-1.632.528-2.976 1.584-4.032s2.416-1.584 4.08-1.584c1.664 0 3.024.528 4.08 1.584s1.584 2.4 1.584 4.032c0 1.632-.528 2.976-1.584 4.032s-2.416 1.584-4.08 1.584zm0-1.176c1.296 0 2.336-.408 3.12-1.224.816-.832 1.224-1.904 1.224-3.216 0-1.296-.408-2.36-1.224-3.192-.816-.832-1.856-1.248-3.12-1.248-1.248 0-2.288.416-3.12 1.248-.816.832-1.224 1.896-1.224 3.192 0 1.296.408 2.36 1.224 3.192.816.832 1.856 1.248 3.12 1.248zm8.721.96v-10.8c.528 0 1.04-.008 1.536-.024a85.964 85.964 0 0 1 1.944-.048c2.976 0 4.464.928 4.464 2.784 0 .624-.2 1.168-.6 1.632-.384.448-.912.728-1.584.84v.048c1.728.256 2.592 1.12 2.592 2.592 0 2.032-1.608 3.048-4.824 3.048-.208 0-.84-.016-1.896-.048a53.912 53.912 0 0 0-1.632-.024zm3.84-4.968h-2.592v3.816c1.248.032 2.056.048 2.424.048 2.24 0 3.36-.664 3.36-1.992 0-1.248-1.064-1.872-3.192-1.872zm-.216-4.728c-.528 0-1.32.016-2.376.048V554h2.856c.784 0 1.4-.168 1.848-.504.448-.352.672-.816.672-1.392 0-1.2-1-1.8-3-1.8zm16.379.696l-7.2 9h-1.248v-10.8h1.248v9l7.2-9h1.248V560h-1.248v-9zm13.884 9h-1.248v-9.552h-4.56l-.144 2.352c-.208 3.04-.712 5.056-1.512 6.048-.64.832-1.432 1.248-2.376 1.248l-.096-1.224c.416 0 .808-.192 1.176-.576.88-.816 1.416-2.728 1.608-5.736l.168-3.36h6.984V560zm4.137-9l-.336-1.032c1.072-.656 2.216-.984 3.432-.984 1.408 0 2.424.352 3.048 1.056.64.704.96 1.792.96 3.264V560h-1.248v-1.656c-.88 1.2-2.112 1.8-3.696 1.8-1.008 0-1.816-.288-2.424-.864-.608-.592-.912-1.376-.912-2.352 0-1.056.384-1.88 1.152-2.472.752-.592 1.736-.888 2.952-.888s2.192.272 2.928.816c0-1.12-.08-1.976-.24-2.568-.128-.576-.392-.984-.792-1.224-.384-.24-.984-.384-1.8-.432-.976 0-1.984.28-3.024.84zm2.544 7.968c1.344 0 2.448-.568 3.312-1.704v-1.8c-.784-.576-1.72-.864-2.808-.864-.816 0-1.504.2-2.064.6-.56.4-.84.952-.84 1.656 0 .64.224 1.152.672 1.536.448.384 1.024.576 1.728.576zm16.535-1.416l.624.912c-.432.56-1.016.992-1.752 1.296a5.923 5.923 0 0 1-2.328.456c-1.68 0-3.056-.512-4.128-1.536-1.056-1.024-1.584-2.384-1.584-4.08 0-1.584.512-2.912 1.536-3.984 1.04-1.088 2.32-1.632 3.84-1.632 1.856 0 3.256.448 4.2 1.344l-.6 1.008c-.848-.784-1.984-1.176-3.408-1.176-1.152 0-2.152.424-3 1.272-.832.832-1.248 1.888-1.248 3.168 0 1.344.424 2.424 1.272 3.24.848.8 1.92 1.2 3.216 1.2 1.392 0 2.512-.496 3.36-1.488zm6.534 2.448h-3.168v-10.8h1.248v3.624h2.088c2.848 0 4.272 1.184 4.272 3.552 0 1.12-.368 2.008-1.104 2.664-.72.64-1.832.96-3.336.96zm-.048-6h-1.872v4.824h1.848c1.12 0 1.928-.2 2.424-.6.512-.4.768-1.008.768-1.824 0-1.6-1.056-2.4-3.168-2.4z" fill="#141414"/><path d="M527.207 554.707a.999.999 0 0 0 0-1.414l-6.364-6.364a.999.999 0 1 0-1.414 1.414l5.657 5.657-5.657 5.657a.999.999 0 1 0 1.414 1.414l6.364-6.364zM510 555h16.5v-2H510v2zm551.21-.293a1 1 0 0 0 0-1.414l-6.37-6.364a.994.994 0 0 0-1.41 0 1 1 0 0 0 0 1.414l5.66 5.657-5.66 5.657a1 1 0 0 0 0 1.414.994.994 0 0 0 1.41 0l6.37-6.364zM1044 555h16.5v-2H1044v2zM250.293 147.707a.999.999 0 0 0 1.414 0l6.364-6.364a.999.999 0 1 0-1.414-1.414L251 145.586l-5.657-5.657a.999.999 0 1 0-1.414 1.414l6.364 6.364zM250 114v33h2v-33h-2zm.293 206.707a.999.999 0 0 0 1.414 0l6.364-6.364a.999.999 0 1 0-1.414-1.414L251 318.586l-5.657-5.657a.999.999 0 1 0-1.414 1.414l6.364 6.364zM250 287v33h2v-33h-2zm.293 201.707a.999.999 0 0 0 1.414 0l6.364-6.364a.999.999 0 1 0-1.414-1.414L251 486.586l-5.657-5.657a.999.999 0 1 0-1.414 1.414l6.364 6.364zM250 455v33h2v-33h-2z" fill="#E4002B"/></svg>