<svg width="179" height="56" viewBox="0 0 179 56" fill="none" xmlns="http://www.w3.org/2000/svg"><path d="M129.068 3.909h-4.154v27.216h4.154V3.909zm7.028 22.301c-1.554 0-2.806 1.205-2.806 2.702 0 1.498 1.252 2.703 2.806 2.703s2.806-1.205 2.806-2.703c0-1.497-1.252-2.703-2.806-2.703zm10.92-4.559c0-3.246 2.022-6.029 5.942-6.029h2.476v-3.79h-2.476c-3.067 0-4.47.941-5.9 2.505l-.028.04v-2.545h-4.112v19.28h4.098V21.65zm-26.613-9.819h-4.154v19.28h4.154v-19.28zm-2.077-3.192c1.554 0 2.806-1.207 2.806-2.704s-1.266-2.703-2.806-2.703c-1.554 0-2.806 1.206-2.806 2.703 0 1.497 1.265 2.703 2.806 2.703zm-10.66 5.14c-1.595-1.563-4.043-2.438-6.478-2.438-5.804 0-10.522 4.545-10.522 10.137 0 5.591 4.718 10.136 10.522 10.136 2.435 0 5.007-1.007 6.478-2.597v2.107h4.085V11.832h-4.085v1.948zm-6.34 13.807c-3.576 0-6.3-2.65-6.3-6.108 0-3.459 2.724-6.082 6.3-6.082 3.576 0 6.395 2.464 6.395 6.082 0 3.617-2.819 6.108-6.395 6.108zm65.606 4.028c1.857 0 4.223-.967 5.708-2.61.014.729 0 1.391 0 2.107h4.085v-19.28h-4.099V22.42c0 2.742-2.173 5.3-5.432 5.3-2.847 0-4.869-1.988-4.869-4.837V11.846h-4.099v11.369c.014 5.088 2.861 8.4 8.706 8.4zM78.673 11.342c-2.723 0-5.392 1.193-7.015 3.074-1.485-1.895-3.644-3.074-6.546-3.074-2.366 0-4.058 1.02-4.966 1.842v-1.351h-4.085v19.279h4.085V19.836c0-2.518 2.132-4.558 4.732-4.558s4.731 2.053 4.731 4.558v11.276h4.085V19.836c0-2.518 2.132-4.558 4.731-4.558 2.6 0 4.732 2.053 4.732 4.558v11.276h4.085V19.836c.027-5.168-3.453-8.494-8.57-8.494zm53.943 28.688l-.027.026v-1.498h-2.614v11.316h2.614v-5.3c0-1.908 1.182-3.538 3.479-3.538h1.444v-2.478h-1.444c-1.788 0-2.613.557-3.452 1.471zm28.1 4.73c0 1.815-1.513 2.901-2.985 2.901-1.554 0-2.655-1.086-2.655-2.636v-6.453h-2.627v6.638c0 3.14 1.871 4.956 5.117 4.956 1.059 0 2.311-.517 3.136-1.299v1.021h2.613V38.572h-2.627l.028 6.188zm-16.395-6.48c-3.397 0-6.162 2.663-6.162 5.936s2.765 5.937 6.162 5.937 6.162-2.664 6.162-5.937-2.751-5.936-6.162-5.936zm0 9.355c-1.953 0-3.549-1.537-3.549-3.419 0-1.881 1.596-3.418 3.549-3.418 1.953 0 3.548 1.537 3.548 3.418 0 1.882-1.581 3.419-3.548 3.419zm27.81-9.355c-1.348 0-2.654.45-3.576 1.22v-.941h-2.613v15.21h2.613v-4.902c.881.795 2.242 1.299 3.576 1.299 3.398 0 6.162-2.664 6.162-5.936 0-3.286-2.764-5.95-6.162-5.95zm-.082 9.302c-2.05 0-3.535-1.418-3.535-3.366 0-1.947 1.485-3.352 3.535-3.352 1.98 0 3.48 1.444 3.48 3.352 0 1.922-1.5 3.366-3.48 3.366zM124.763 39.5c-.922-.77-2.229-1.22-3.576-1.22-3.398 0-6.162 2.663-6.162 5.936s2.764 5.937 6.162 5.937c1.334 0 2.695-.504 3.576-1.299v.225c-.042 2.319-1.211 3.498-3.494 3.498h-.027c-1.293 0-2.435-.477-3.494-1.47l-.096-.093-1.898 1.749.082.093c.977 1.1 2.957 2.358 5.337 2.358h.124c2.228-.04 5.969-.874 6.079-6.042V38.545h-2.613v.954zm-3.494 8.082c-1.981 0-3.48-1.444-3.48-3.366 0-1.908 1.499-3.352 3.48-3.352 2.049 0 3.535 1.405 3.535 3.352-.014 1.948-1.486 3.366-3.535 3.366zM28.553 21.134c0 3.512-2.957 6.36-6.602 6.36-3.644 0-6.601-2.848-6.601-6.36 0-3.511 2.957-6.36 6.601-6.36 3.645 0 6.602 2.862 6.602 6.36zM21.951 0C9.848 0 0 9.487 0 21.148c0 11.66 9.848 21.134 21.951 21.134 4.43 0 8.707-1.272 12.365-3.684l.069-.04-2.957-3.312-.055.026a17.933 17.933 0 0 1-9.422 2.664c-9.614 0-17.44-7.54-17.44-16.802s7.826-16.801 17.44-16.801 17.44 7.54 17.44 16.801c0 1.206-.137 2.412-.412 3.618-.55 2.186-2.132 2.849-3.329 2.756-1.196-.093-2.6-.915-2.613-2.929v-3.445c0-5.896-4.979-10.693-11.1-10.693-6.12 0-11.099 4.797-11.099 10.693 0 5.897 4.98 10.693 11.1 10.693 2.97 0 5.763-1.126 7.867-3.153 1.224 1.828 3.218 2.981 5.488 3.153.192.014.399.027.591.027a7.65 7.65 0 0 0 4.456-1.444c1.32-.968 2.297-2.359 2.834-4.029.082-.265.247-.887.247-.887v-.027c.317-1.338.468-2.676.468-4.333C43.903 9.487 34.055 0 21.951 0z" fill="#141414"/></svg>