<svg width="150" height="56" viewBox="0 0 150 56" fill="none" xmlns="http://www.w3.org/2000/svg"><g clip-path="url(#a)"><path fill-rule="evenodd" clip-rule="evenodd" d="M24.885.654v31.043h-7.05V10.74l-2.818 20.956h-5.002l-2.968-20.48v20.48H0V.654h10.442c.308 1.866.627 4.063.974 6.598l1.11 7.901L14.364.66h10.522V.654zm17.163 0l4.616 31.043h-8.257l-.399-5.583h-2.897l-.477 5.582h-8.35l4.1-31.042h11.664zm-4.274 19.962c-.413-3.514-.822-7.855-1.23-13.024-.817 5.936-1.328 10.278-1.533 13.025h2.763zM67.26.654l-4.616 14.013 5.055 17.03h-8.33L56.112 18.39v13.306h-8.07V.654h8.07v12.062L59.69.653h7.572zm18.329 9.392h-7.488V7.75a4.56 4.56 0 0 0-.288-2.054 1.053 1.053 0 0 0-.96-.44 1.21 1.21 0 0 0-1.095.596 3.445 3.445 0 0 0-.373 1.802 5.112 5.112 0 0 0 .419 2.343 6.18 6.18 0 0 0 2.281 1.897c3.59 2.134 5.85 3.884 6.78 5.25.93 1.366 1.397 3.572 1.4 6.617a11.61 11.61 0 0 1-.778 4.89 6.074 6.074 0 0 1-2.996 2.635 11.89 11.89 0 0 1-5.17 1.067 11.533 11.533 0 0 1-5.526-1.232A6.001 6.001 0 0 1 68.792 28a16.125 16.125 0 0 1-.706-5.393v-2.03h7.487v3.777c-.069.762.039 1.53.313 2.244a1.25 1.25 0 0 0 1.124.498 1.305 1.305 0 0 0 1.198-.633 3.6 3.6 0 0 0 .392-1.876c0-1.83-.248-3.026-.744-3.589a23.965 23.965 0 0 0-3.773-2.813 37.77 37.77 0 0 1-3.99-2.9 6.82 6.82 0 0 1-1.614-2.492 10.9 10.9 0 0 1-.64-4.063 11.267 11.267 0 0 1 .908-5.216A6.094 6.094 0 0 1 71.683.936 11.784 11.784 0 0 1 76.586 0c1.837-.05 3.663.295 5.356 1.014a5.634 5.634 0 0 1 2.936 2.565c.578 1.684.82 3.465.713 5.242v1.225h-.001zM96.867.654v31.043h-8.071V.654h8.071zm11.305 0v24.832h4.904v6.21h-12.978V.654h8.074zm6.852 0h13.45v6.211h-5.386v5.885h5.036v5.91h-5.036v6.826h5.917v6.21h-13.987V.654h.006zm16.302 0h6.033a37.359 37.359 0 0 1 7.9.537 6.067 6.067 0 0 1 3.132 1.757 5.61 5.61 0 0 1 1.347 2.734c.228 1.965.315 3.944.262 5.921v10.871a24.652 24.652 0 0 1-.399 5.59 4.19 4.19 0 0 1-1.366 2.206 5.78 5.78 0 0 1-2.409 1.112 21.934 21.934 0 0 1-4.328.314h-10.174V.654h.002zm8.068 5.309v20.423c1.157 0 1.876-.227 2.145-.692.368-1.235.503-2.527.398-3.81V9.816a16.847 16.847 0 0 0-.131-2.703 1.281 1.281 0 0 0-.614-.87 3.99 3.99 0 0 0-1.804-.282h.006zm8.807 43.669h-.455c-.657 0-1.69-.013-1.69-1.092 0-1.118.805-1.092 1.69-1.092h.455v2.184zm0 1.685v2.268H150V45.75h-2.252c-2.038 0-3.594.54-3.594 2.792a2.296 2.296 0 0 0 1.247 2.264l-1.609 2.778h2.132l1.3-2.292c.148.013.335.026.524.026h.455l-.002-.002zm-7.281 2.266h1.797V45.75h-1.69l-1.474 2.575-1.073 1.995v-4.57h-1.811v7.834h1.69l1.595-2.805.966-1.78v4.585-.002zm-11.814 0h1.811v-3.294h2.441v3.294h1.797V45.75h-1.797v2.953h-2.44V45.75h-1.811v7.834l-.001-.002zm-4.518-6.379c1.045 0 1.232.55 1.232 1.55h-2.507c0-.953.191-1.547 1.275-1.547v-.003zm1.204 3.938c0 .549-.362.863-1.234.863-.751 0-1.247-.242-1.247-1.523v-.201h4.291v-1.577c0-2.143-.992-3.1-3.066-3.1a2.73 2.73 0 0 0-2.302.786 2.746 2.746 0 0 0-.769 2.314v1.806c0 2.144.992 3.101 3.071 3.101s3.066-.795 3.066-2.467h-1.81v-.002zm-5.78-5.394h-1.808v6.242h-1.876v-6.239h-1.771v6.243h-1.877V45.75h-1.81v7.834h9.144V45.75l-.002-.003zm-13.663 1.456c1.046 0 1.233.55 1.233 1.55h-2.508c.003-.953.19-1.547 1.277-1.547l-.002-.003zm1.204 3.938c0 .549-.362.863-1.234.863-.751 0-1.247-.242-1.247-1.523v-.201h4.291v-1.577c0-2.143-.992-3.1-3.066-3.1a2.73 2.73 0 0 0-2.951 1.854 2.756 2.756 0 0 0-.114 1.246v1.806c0 2.144.992 3.101 3.065 3.101 2.074 0 3.066-.795 3.066-2.467h-1.81v-.002zm-8.944.809a1.104 1.104 0 0 1-1.175-.806 1.113 1.113 0 0 1-.02-.512v-1.821a1.305 1.305 0 0 1 .692-1.462c.174-.086.366-.132.56-.134.725 0 1.195.378 1.195 1.523v1.881a1.137 1.137 0 0 1-.726 1.273 1.115 1.115 0 0 1-.522.06l-.004-.002zm-3.025-6.322v10.372h1.836v-3.037a1.807 1.807 0 0 0 1.623.7c1.757 0 2.655-1.097 2.655-2.964v-2.05c0-2.211-1.046-3.074-2.6-3.074a1.998 1.998 0 0 0-1.862.917l-.133-.864h-1.52zm-7.978 1.578c1.045 0 1.232.55 1.232 1.55h-2.507c-.001-.956.187-1.55 1.273-1.55h.002zm1.204 3.938c0 .549-.363.863-1.234.863-.751 0-1.247-.242-1.247-1.523v-.204h4.29v-1.577c0-2.143-.991-3.1-3.065-3.1a2.73 2.73 0 0 0-2.298.788 2.747 2.747 0 0 0-.768 2.312v1.806c0 2.144.992 3.101 3.066 3.101s3.066-.795 3.066-2.467h-1.81v.001zm-5.779 2.44V45.75h-1.797v7.834h1.797zm-7.428-4.063h1.247a1.092 1.092 0 0 1 1.165.758c.051.16.065.33.04.497a1.085 1.085 0 0 1-1.205 1.227h-1.247v-2.482zm4.277 1.255c-.054-1.969-1.005-2.832-3.03-2.832h-1.247V45.75h-1.797v7.836h3.043c3.286 0 3.03-2.778 3.03-2.805v-.003zm-13.65 2.808h1.81V50.29h2.44v3.294h1.797V45.75H70.48v2.953h-2.44V45.75h-1.81v7.834zm-6.048-1.632a5.59 5.59 0 0 0 .738-3.141v-1.428h1.637v4.57h-2.375zm-2.628 0v3.075h1.69v-1.443h4.303v1.443h1.717v-3.075h-.912v-6.215h-5.216v3.075a4.78 4.78 0 0 1-.766 3.141h-.816zm-3.889.122c-.966 0-1.22-.567-1.22-1.552v-1.725c0-.988.255-1.55 1.22-1.55s1.22.567 1.22 1.55v1.727c0 .983-.25 1.55-1.22 1.55zm0 1.647c2.08 0 3.066-.959 3.066-3.102v-1.916c0-2.143-.992-3.1-3.066-3.1s-3.066 1.011-3.066 3.1v1.916c-.005 2.142.987 3.1 3.066 3.1v.002zm-6.276-.137h1.796V45.75h-1.689l-1.474 2.575-1.073 1.995v-4.57h-1.81v7.834h1.69l1.594-2.805.966-1.78v4.585zm-10.285-1.632a5.59 5.59 0 0 0 .738-3.141v-1.428h1.635v4.57h-2.373zm-2.628 0v3.075h1.69v-1.443h4.303v1.443h1.717v-3.075h-.909v-6.215h-5.219v3.075a4.779 4.779 0 0 1-.766 3.141h-.816zm-3.89.122c-.965 0-1.219-.567-1.219-1.552v-1.725c0-.988.255-1.55 1.22-1.55s1.22.567 1.22 1.55v1.727c0 .983-.254 1.55-1.22 1.55zm0 1.647c2.081 0 3.072-.959 3.072-3.102v-1.916c0-2.143-.992-3.1-3.066-3.1-2.073 0-3.065 1.011-3.065 3.1v1.916c-.011 2.142.98 3.1 3.06 3.1v.002zm-5.644-.137v-6.243h1.796v-1.59h-5.365v1.59h1.77v6.243h1.799zm-7.362-6.379c1.045 0 1.234.55 1.234 1.55h-2.508c0-.955.187-1.549 1.274-1.549zm1.204 3.938c0 .549-.362.863-1.234.863-.751 0-1.247-.242-1.247-1.523v-.203h4.29v-1.577c0-2.143-.991-3.1-3.065-3.1a2.73 2.73 0 0 0-2.298.788 2.747 2.747 0 0 0-.768 2.312v1.806c0 2.144.994 3.101 3.072 3.101 2.078 0 3.065-.795 3.065-2.467h-1.815zm-8.596-3.897a.727.727 0 0 1 .792.417.736.736 0 0 1 .066.312.753.753 0 0 1-.527.73.746.746 0 0 1-.318.025h-.894v-1.483h.884l-.003-.001zM9.307 50.2h.777c.697 0 1.261.11 1.261.902 0 .793-.509.89-1.234.89h-.804V50.2zm.777 3.384c1.743 0 3.071-.378 3.071-2.454a1.752 1.752 0 0 0-1.3-1.847 1.543 1.543 0 0 0 .965-1.524c0-1.523-1.127-2.022-2.468-2.022h-2.87v7.847h2.602zm-3.942-4.99c0-2.143-.94-2.993-3.017-2.993C1.047 45.602 0 46.654 0 48.798v1.782c0 2.182.992 3.141 3.066 3.141 2.073 0 3.065-.864 3.065-3.008H4.398a1.156 1.156 0 0 1-.779 1.326 1.14 1.14 0 0 1-.553.036c-.966 0-1.22-.567-1.22-1.552v-1.725c0-.988.295-1.55 1.314-1.55a1.104 1.104 0 0 1 1.225.816c.046.174.05.357.009.532h1.748zM0 39.42h150v.62H0v-.62z" fill="#141414"/></g><defs><clipPath id="a"><path fill="#fff" d="M0 0h150v56H0z"/></clipPath></defs></svg>