<svg width="118" height="30" viewBox="0 0 118 30" fill="none" xmlns="http://www.w3.org/2000/svg"><path d="M10.486 0c-2.18 0-4.797 2.146-6.918 5.749C1.308 9.514 0 14.129 0 18.158 0 24.068 3.231 30 10.486 30c7.255 0 10.486-5.931 10.486-11.842 0-4.028-1.309-8.664-3.568-12.389C15.283 2.146 12.666 0 10.486 0zm56.631 8.826h7.334V28.36h7.87V8.826h7.334V1.599H67.117v7.227zm39.347 0H118V1.599h-11.536C95.859 1.6 90.21 6.984 90.21 15s5.669 13.4 16.254 13.4H118v-7.246h-11.536c-4.916 0-8.108-1.802-8.108-6.154s3.192-6.174 8.108-6.174zM51.121 1.619l-4.203 15.992L42.717 1.62H28.821v26.802h7.87V6.599l5.728 21.782h9.019l5.728-21.802V28.38h7.87V1.619H51.12z" fill="#141414"/></svg>