<svg width="86" height="74" viewBox="0 0 86 74" fill="none" xmlns="http://www.w3.org/2000/svg"><path fill-rule="evenodd" clip-rule="evenodd" d="M16.034 27.354c8.796-.325 20.044-.674 26.78-.674 6.833 0 18.312.36 27.161.689l-.04-.015s-.043-.042-.043-.084c-4.1-10.404-14.607-17.817-26.907-17.817-12.344 0-22.85 7.456-26.95 17.901zm63.269.406c1.684.195 2.538.32 3.274.521 2.434.548 2.947 1.39 2.947 3.117v11.667c0 1.685-1.837 2.864-3.118 3.075-1.202.237-1.991.326-3.178.44C74.85 61.84 60.26 73.055 42.942 73.055c-17.324 0-31.877-11.183-36.291-26.45l-.013-.002c-1.324-.126-2.135-.21-3.417-.463C1.94 45.93.103 44.75.103 43.065V31.398c0-1.727.513-2.57 2.947-3.117.77-.21 1.666-.337 3.503-.547C10.823 12.316 25.516.944 42.942.944c17.383 0 32.033 11.288 36.346 26.704 0 .059 0 .077.015.11zm-6.028 19.174h.008c-.154.43-.318.858-.49 1.28.17-.422.331-.85.482-1.28zm-30.461.975c9.012 0 19.143-.4 26.906-.79a.515.515 0 0 1-.042.095.351.351 0 0 0-.042.105c-4.271 10.11-14.607 17.27-26.694 17.27-12.173 0-22.551-7.245-26.78-17.438a7.214 7.214 0 0 1-.081-.022c7.737.387 17.795.78 26.733.78zM59.43 32.581c.235.15.347.493.724 1.302.17.393.806 1.751 1.496 3.228.863 1.846 1.812 3.876 2.049 4.438.113.259.06.258-.185.254a6.32 6.32 0 0 0-.114-.001h-2.349c-.128 0-.256-.042-.299-.169 0-.038-.25-.605-.62-1.442l-.106-.243h-5.51c-.427.97-.768 1.685-.768 1.685-.043.084-.129.169-.3.169h-2.263c-.342 0-.47 0-.256-.422l.042-.084c1.068-2.316 3.588-7.876 3.588-7.876.243-.5.313-.744.475-.862.18-.13.47-.107 1.233-.107.385-.042.47-.042.94-.042s.812 0 .94.042c.74.02 1.064-.008 1.283.13zm-2.65 2.102c0 .042-.683 1.643-1.41 3.286h3.802a79.89 79.89 0 0 0-.912-2.163c-.211-.488-.38-.875-.455-1.08-.043-.127-.128-.169-.213-.169-.043-.042-.171-.042-.257-.042-.128 0-.256 0-.299.042-.128 0-.213.042-.256.126zm-31.35-2.106c0-.168-.042-.252-.256-.252h-2.306c-.17 0-.214.084-.214.252v8.846c0 .252.043.294.3.294h2.178c.256 0 .299-.084.299-.294v-8.846zm-4.612.127c0-.21-.043-.295-.3-.295H18.64c-.257 0-.3.084-.3.295v7.034s-3.8-5.77-4.27-6.529c-.57-.802-.79-.802-2.214-.8H9.457c-.256 0-.299.084-.299.295v8.803c0 .253.043.295.299.295h1.88c.255 0 .298-.042.298-.295v-6.908s3.16 4.76 4.186 6.36c.512.843.64.843 2.135.843h2.563c.256 0 .299-.042.299-.295v-8.803zm55.95 0c0-.21-.042-.295-.299-.295H74.59c-.256 0-.299.084-.299.295v7.034s-3.758-5.77-4.27-6.529c-.57-.802-.791-.802-2.214-.8h-2.4c-.256 0-.298.084-.298.295v8.803c0 .253.042.295.298.295h1.88c.256 0 .299-.042.299-.295v-6.908s3.118 4.76 4.185 6.36c.513.843.64.843 2.136.843h2.562c.257 0 .3-.042.3-.295v-8.803zM38.03 38.01c-.342-1.559-1.58-1.853-3.246-2.022-.267-.024-.658-.055-1.1-.09-1.11-.087-2.535-.199-3.085-.289-.3-.042-.427-.21-.427-.421v-.38c.042-.294.17-.42.47-.42h6.705c.256.042.341-.043.341-.253v-1.517c0-.21-.085-.252-.341-.252h-6.834c-1.794 0-2.776.632-3.075 1.937-.043.295-.043.674-.043.927 0 .295 0 .632.043.884.085.759.598 1.601 2.648 1.812 1.58.168 3.93.379 4.74.42.366.04.423.27.464.438l.007.026v.632c-.043.21-.128.295-.427.295h-7.133c-.256 0-.299.042-.299.295v1.474c0 .253.043.295.299.295h7.047c1.794 0 2.904-.295 3.203-1.77.086-.336.086-.715.086-1.01 0-.305-.019-.59-.031-.787a4.562 4.562 0 0 1-.012-.224zm12.087 0c-.341-1.559-1.58-1.853-3.246-2.022-.275-.026-.7-.06-1.178-.098-1.079-.086-2.432-.193-2.965-.281-.341-.042-.427-.21-.427-.421v-.38c.043-.294.171-.42.47-.42h6.706c.256.042.341-.043.341-.253v-1.517c0-.21-.085-.252-.341-.252h-6.834c-1.794 0-2.776.632-3.075 1.937-.043.295-.043.674-.043.927 0 .295 0 .632.043.884.128.759.598 1.601 2.648 1.812 1.58.168 3.93.379 4.74.42.342.043.428.296.47.464v.632c-.042.21-.128.295-.427.295h-7.132c-.257 0-.3.042-.3.295v1.474c0 .253.043.295.3.295h7.004c1.794 0 2.904-.295 3.203-1.77.086-.336.086-.715.086-1.01 0-.305-.019-.59-.031-.787a4.562 4.562 0 0 1-.012-.224z" fill="#141414"/></svg>