<svg width="86" height="74" viewBox="0 0 86 74" fill="none" xmlns="http://www.w3.org/2000/svg"><path fill-rule="evenodd" clip-rule="evenodd" d="M15.93 27.354c8.797-.325 20.045-.674 26.78-.674 6.834 0 18.312.36 27.162.689l-.04-.015s-.043-.042-.043-.084C65.689 16.866 55.182 9.453 42.88 9.453c-12.343 0-22.85 7.456-26.95 17.901zm63.27.406c1.683.195 2.537.32 3.273.521 2.435.548 2.948 1.39 2.948 3.117v11.667c0 1.685-1.837 2.864-3.118 3.075-1.203.237-1.992.326-3.178.44-4.378 15.259-18.97 26.475-36.286 26.475-17.325 0-31.878-11.183-36.292-26.45l-.012-.002c-1.324-.126-2.136-.21-3.417-.463C1.837 45.93 0 44.75 0 43.065V31.398c0-1.727.513-2.57 2.947-3.117.769-.21 1.666-.337 3.502-.547C10.72 12.316 25.413.944 42.84.944c17.382 0 32.032 11.29 36.346 26.705 0 .059 0 .077.014.11zm-6.028 19.174h.008c-.154.43-.318.858-.491 1.28.17-.422.332-.85.483-1.28zm-30.462.975c9.012 0 19.143-.4 26.906-.79a.512.512 0 0 1-.041.095c-.021.042-.043.084-.043.105-4.27 10.11-14.607 17.27-26.694 17.27-12.172 0-22.55-7.245-26.779-17.438a6.713 6.713 0 0 1-.082-.022c7.738.387 17.795.78 26.733.78zm16.616-15.328c.236.15.348.493.725 1.302.17.393.805 1.751 1.495 3.228.863 1.846 1.812 3.876 2.05 4.438.112.259.06.258-.186.254l-.113-.001h-2.35c-.128 0-.256-.042-.298-.169 0-.038-.25-.605-.62-1.442l-.107-.243h-5.51c-.426.97-.768 1.685-.768 1.685-.043.084-.128.169-.299.169h-2.264c-.341 0-.47 0-.256-.422l.043-.084a2070.92 2070.92 0 0 0 3.588-7.876c.243-.5.313-.744.475-.862.179-.13.47-.107 1.233-.107.384-.042.47-.042.94-.042s.811 0 .94.042c.74.02 1.064-.008 1.282.13zm-2.65 2.102c0 .042-.683 1.643-1.409 3.286h3.801a80.84 80.84 0 0 0-.911-2.163c-.212-.488-.38-.875-.455-1.08-.043-.127-.129-.169-.214-.169-.043-.042-.17-.042-.256-.042-.128 0-.257 0-.3.042-.127 0-.213.042-.256.126zm-31.349-2.106c0-.168-.043-.252-.256-.252h-2.306c-.171 0-.214.084-.214.252v8.846c0 .252.043.294.299.294h2.178c.257 0 .3-.084.3-.294v-8.846zm-4.613.127c0-.21-.042-.295-.298-.295h-1.88c-.256 0-.299.084-.299.295v7.034s-3.801-5.77-4.27-6.529c-.57-.802-.791-.802-2.214-.8H9.354c-.257 0-.3.084-.3.295v8.803c0 .253.043.295.3.295h1.879c.256 0 .299-.042.299-.295v-6.908s3.16 4.76 4.185 6.36c.513.843.641.843 2.136.843h2.563c.256 0 .299-.042.299-.295v-8.803zm55.95 0c0-.21-.042-.295-.298-.295h-1.88c-.256 0-.298.084-.298.295v7.034s-3.759-5.77-4.271-6.529c-.57-.802-.79-.802-2.214-.8h-2.399c-.256 0-.299.084-.299.295v8.803c0 .253.043.295.299.295h1.88c.255 0 .298-.042.298-.295v-6.908s3.118 4.76 4.186 6.36c.512.843.64.843 2.135.843h2.563c.256 0 .299-.042.299-.295v-8.803zM37.928 38.01c-.342-1.559-1.58-1.853-3.246-2.022-.267-.024-.659-.055-1.1-.09-1.11-.087-2.536-.199-3.086-.289-.299-.042-.427-.21-.427-.421v-.38c.043-.294.17-.42.47-.42h6.705c.257.042.342-.043.342-.253v-1.517c0-.21-.085-.252-.342-.252H30.41c-1.794 0-2.776.632-3.076 1.937-.042.295-.042.674-.042.927 0 .295 0 .632.042.884.086.759.599 1.601 2.649 1.812 1.58.168 3.929.379 4.74.42.366.04.422.27.464.438l.006.026v.632c-.042.21-.128.295-.427.295h-7.132c-.257 0-.3.042-.3.295v1.474c0 .253.043.295.3.295h7.047c1.794 0 2.904-.295 3.203-1.77.085-.336.085-.715.085-1.01 0-.305-.018-.59-.03-.787a4.562 4.562 0 0 1-.012-.224zm12.087 0c-.342-1.559-1.58-1.853-3.246-2.022-.276-.026-.7-.06-1.178-.098-1.08-.086-2.433-.193-2.965-.281-.342-.042-.427-.21-.427-.421v-.38c.042-.294.17-.42.47-.42h6.705c.256.042.342-.043.342-.253v-1.517c0-.21-.086-.252-.342-.252H42.54c-1.793 0-2.776.632-3.075 1.937-.042.295-.042.674-.042.927 0 .295 0 .632.042.884.128.759.598 1.601 2.648 1.812 1.58.168 3.93.379 4.741.42.342.043.427.296.47.464v.632c-.043.21-.128.295-.427.295h-7.133c-.256 0-.299.042-.299.295v1.474c0 .253.043.295.3.295h7.004c1.794 0 2.904-.295 3.203-1.77.085-.336.085-.715.085-1.01 0-.305-.018-.59-.03-.787a4.562 4.562 0 0 1-.012-.224z" fill="#141414"/></svg>