<svg width="441" height="414" viewBox="0 0 441 414" fill="none" xmlns="http://www.w3.org/2000/svg"><path d="M137.288 37h-9.96V20.2h9.72v2.76h-6.768v4.176h6.048v2.76h-6.048v4.344h7.008V37zm4.325 2.52h-2.568v-5.088h1.368c.848-1.136 1.352-3.016 1.512-5.64l.168-2.592h7.968v8.232h1.8v5.088h-2.592V37h-7.656v2.52zm3.048-10.728l-.072 1.104c-.192 2.08-.624 3.592-1.296 4.536h4.008v-5.64h-2.64zm16.816 1.368l-5.04 6.84h-2.76V26.2h2.76v6.84l5.04-6.84h2.76V37h-2.76v-6.84zM177.565 37h-2.76v-4.128h-4.728V37h-2.76V26.2h2.76v4.08h4.728V26.2h2.76V37zm3.905-8.016l-.696-2.016a7.385 7.385 0 0 1 3.816-1.032c1.504 0 2.6.368 3.288 1.104.688.736 1.032 1.864 1.032 3.384V37h-2.4v-1.248c-.64.928-1.704 1.392-3.192 1.392-1.024 0-1.848-.296-2.472-.888-.608-.608-.912-1.416-.912-2.424 0-1.12.36-1.984 1.08-2.592.72-.608 1.672-.912 2.856-.912.976 0 1.792.232 2.448.696.032-.96-.112-1.664-.432-2.112-.304-.448-.832-.672-1.584-.672-.832 0-1.776.248-2.832.744zm2.76 5.832c.928 0 1.624-.328 2.088-.984v-1.104c-.448-.352-1.08-.528-1.896-.528-.512 0-.928.12-1.248.36-.32.24-.48.568-.48.984 0 .384.144.696.432.936.288.224.656.336 1.104.336zm12.789-8.616h3.528V37h-2.76v-3.24h-1.536L194.019 37h-3.168l2.88-3.84c-.592-.208-1.088-.584-1.488-1.128-.4-.56-.6-1.224-.6-1.992 0-1.184.448-2.12 1.344-2.808.912-.688 2.256-1.032 4.032-1.032zm-2.424 4.032c0 .416.176.768.528 1.056.352.288.76.432 1.224.432h1.44V28.6h-1.224c-.608 0-1.088.16-1.44.48a1.457 1.457 0 0 0-.528 1.152zM218.836 37h-2.76v-8.208h-4.608V37h-2.76V26.2h10.128V37zm3.907-8.016l-.696-2.016a7.385 7.385 0 0 1 3.816-1.032c1.504 0 2.6.368 3.288 1.104.688.736 1.032 1.864 1.032 3.384V37h-2.4v-1.248c-.64.928-1.704 1.392-3.192 1.392-1.024 0-1.848-.296-2.472-.888-.608-.608-.912-1.416-.912-2.424 0-1.12.36-1.984 1.08-2.592.72-.608 1.672-.912 2.856-.912.976 0 1.792.232 2.448.696.032-.96-.112-1.664-.432-2.112-.304-.448-.832-.672-1.584-.672-.832 0-1.776.248-2.832.744zm2.76 5.832c.928 0 1.624-.328 2.088-.984v-1.104c-.448-.352-1.08-.528-1.896-.528-.512 0-.928.12-1.248.36-.32.24-.48.568-.48.984 0 .384.144.696.432.936.288.224.656.336 1.104.336zM243.261 37h-2.76v-4.128h-4.728V37h-2.76V26.2h2.76v4.08h4.728V26.2h2.76V37zm11.536-3.024l.792 1.944c-1.072.896-2.448 1.344-4.128 1.344-1.728 0-3.136-.52-4.224-1.56-1.056-1.024-1.584-2.392-1.584-4.104 0-1.6.52-2.944 1.56-4.032s2.424-1.632 4.152-1.632c1.424 0 2.632.472 3.624 1.416s1.488 2.144 1.488 3.6c0 .64-.056 1.136-.168 1.488h-7.8c.112.784.456 1.4 1.032 1.848.592.448 1.328.672 2.208.672 1.2 0 2.216-.328 3.048-.984zm-3.552-5.736c-1.568 0-2.512.784-2.832 2.352h5.304c.016-.688-.208-1.248-.672-1.68-.448-.448-1.048-.672-1.8-.672zM268.213 37h-2.76v-8.04h-2.856l-.072 1.152c-.208 1.952-.512 3.44-.912 4.464-.384 1.024-.88 1.72-1.488 2.088-.592.352-1.416.536-2.472.552l-.24-2.688c.352.016.68-.08.983-.288.353-.256.665-.792.937-1.608.272-.816.448-1.84.528-3.072l.168-3.36h8.184V37zm7.105 0h-4.032V26.2h2.76v2.952h1.488c1.616 0 2.808.336 3.576 1.008.784.672 1.176 1.584 1.176 2.736 0 1.232-.416 2.224-1.248 2.976-.832.752-2.072 1.128-3.72 1.128zm-.024-5.64h-1.248v3.24h1.224c1.392 0 2.088-.536 2.088-1.608 0-1.088-.688-1.632-2.064-1.632zM133.808 61.2h3.144L132.704 72c-.768 1.872-1.456 3.136-2.064 3.792-.592.672-1.296 1.008-2.112 1.008-.768 0-1.544-.28-2.328-.84l.888-2.088c.416.256.792.384 1.128.384.656 0 1.208-.56 1.656-1.68l.24-.576-4.992-10.8h3.312l2.52 5.904c.032.08.208.6.528 1.56.096-.592.224-1.12.384-1.584l1.944-5.88zM148.734 72h-2.76v-8.208h-4.608V72h-2.76V61.2h10.128V72zm5.828 4.8h-2.76V61.2h2.76v1.032c.352-.384.832-.696 1.44-.936.608-.24 1.24-.36 1.896-.36 1.488 0 2.672.512 3.552 1.536.896 1.04 1.344 2.36 1.344 3.96 0 1.68-.528 3.072-1.584 4.176s-2.432 1.656-4.128 1.656c-1.088 0-1.928-.176-2.52-.528V76.8zm2.472-13.272c-.96 0-1.784.392-2.472 1.176v4.368c.656.416 1.416.624 2.28.624.912 0 1.64-.296 2.184-.888.56-.592.84-1.36.84-2.304 0-.896-.256-1.616-.768-2.16-.496-.544-1.184-.816-2.064-.816zm8.99.456l-.696-2.016a7.385 7.385 0 0 1 3.816-1.032c1.504 0 2.6.368 3.288 1.104.688.736 1.032 1.864 1.032 3.384V72h-2.4v-1.248c-.64.928-1.704 1.392-3.192 1.392-1.024 0-1.848-.296-2.472-.888-.608-.608-.912-1.416-.912-2.424 0-1.12.36-1.984 1.08-2.592.72-.608 1.672-.912 2.856-.912.976 0 1.792.232 2.448.696.032-.96-.112-1.664-.432-2.112-.304-.448-.832-.672-1.584-.672-.832 0-1.776.248-2.832.744zm2.76 5.832c.928 0 1.624-.328 2.088-.984v-1.104c-.448-.352-1.08-.528-1.896-.528-.512 0-.928.12-1.248.36-.32.24-.48.568-.48.984 0 .384.144.696.432.936.288.224.656.336 1.104.336zm7.51 2.184V61.2c.144 0 .752-.016 1.824-.048a60.648 60.648 0 0 1 2.424-.072c3.264 0 4.896.944 4.896 2.832 0 .608-.192 1.144-.576 1.608a2.247 2.247 0 0 1-1.44.792v.048c1.536.368 2.304 1.2 2.304 2.496 0 2.176-1.712 3.264-5.136 3.264-.496 0-1.256-.024-2.28-.072-.256 0-.552-.008-.888-.024-.32 0-.568-.008-.744-.024h-.384zm4.488-4.584h-1.728v2.4c.96.064 1.568.096 1.824.096.608 0 1.08-.112 1.416-.336.352-.224.528-.528.528-.912 0-.832-.68-1.248-2.04-1.248zm0-4.104c-.64 0-1.216.016-1.728.048v2.376h1.8c.496 0 .896-.112 1.2-.336.304-.224.456-.528.456-.912 0-.784-.576-1.176-1.728-1.176zM198.205 72h-2.76v-8.04h-2.856l-.072 1.152c-.208 1.952-.512 3.44-.912 4.464-.384 1.024-.88 1.72-1.488 2.088-.592.352-1.416.536-2.472.552l-.24-2.688c.352.016.68-.08.984-.288.352-.256.664-.792.936-1.608.272-.816.448-1.84.528-3.072l.168-3.36h8.184V72zm11.545-3.024l.792 1.944c-1.072.896-2.448 1.344-4.128 1.344-1.728 0-3.136-.52-4.224-1.56-1.056-1.024-1.584-2.392-1.584-4.104 0-1.6.52-2.944 1.56-4.032s2.424-1.632 4.152-1.632c1.424 0 2.632.472 3.624 1.416s1.488 2.144 1.488 3.6c0 .64-.056 1.136-.168 1.488h-7.8c.112.784.456 1.4 1.032 1.848.592.448 1.328.672 2.208.672 1.2 0 2.216-.328 3.048-.984zm-3.552-5.736c-1.568 0-2.512.784-2.832 2.352h5.304c.016-.688-.208-1.248-.672-1.68-.448-.448-1.048-.672-1.8-.672zM223.901 72h-2.76v-4.128h-4.728V72h-2.76V61.2h2.76v4.08h4.728V61.2h2.76V72zm10.865-6.84l-5.04 6.84h-2.76V61.2h2.76v6.84l5.04-6.84h2.76V72h-2.76v-6.84zm11.12-3.96h3.528V72h-2.76v-3.24h-1.536L242.886 72h-3.168l2.88-3.84c-.592-.208-1.088-.584-1.488-1.128-.4-.56-.6-1.224-.6-1.992 0-1.184.448-2.12 1.344-2.808.912-.688 2.256-1.032 4.032-1.032zm-2.424 4.032c0 .416.176.768.528 1.056.352.288.76.432 1.224.432h1.44V63.6h-1.224c-.608 0-1.088.16-1.44.48a1.457 1.457 0 0 0-.528 1.152z" fill="#141414"/><path fill-rule="evenodd" clip-rule="evenodd" d="M49.5 0c-3.688 0-7.275.415-10.73 1.182v48.352c0 5.925 4.83 10.758 10.758 10.758 5.924 0 10.753-4.833 10.753-10.755 0-5.692-4.447-10.363-10.038-10.735v-8.61c10.331.374 18.645 8.92 18.645 19.345 0 10.661-8.698 19.362-19.36 19.362-10.668 0-19.364-8.7-19.364-19.365V3.918a46.907 46.907 0 0 0-3.586 1.713v43.903c.001 12.637 10.312 22.943 22.95 22.943 12.639 0 22.945-10.306 22.945-22.94 0-12.399-9.918-22.553-22.23-22.935v-8.608c17.05.385 30.832 14.407 30.832 31.543 0 17.379-14.172 31.548-31.547 31.548-17.38 0-31.557-14.17-31.557-31.55V11.34C6.998 20.414 0 34.138 0 49.496 0 76.834 22.162 99 49.5 99 76.845 99 99 76.834 99 49.497 99 22.161 76.844 0 49.5 0z" fill="#D91935"/><rect x="125" y="119" width="252" height="89" rx="8" fill="#fff"/><path d="M187.42 159.2h1.32l-4.872 10.944h-.864L177.94 159.2h1.464l3.096 6.792c.448 1.008.776 1.8.984 2.376.272-.768.592-1.584.96-2.448l2.976-6.72zm7.946 11.016c-1.664 0-3.024-.528-4.08-1.584s-1.584-2.4-1.584-4.032c0-1.632.528-2.976 1.584-4.032s2.416-1.584 4.08-1.584c1.664 0 3.024.528 4.08 1.584s1.584 2.4 1.584 4.032c0 1.632-.528 2.976-1.584 4.032s-2.416 1.584-4.08 1.584zm0-1.176c1.296 0 2.336-.408 3.12-1.224.816-.832 1.224-1.904 1.224-3.216 0-1.296-.408-2.36-1.224-3.192-.816-.832-1.856-1.248-3.12-1.248-1.248 0-2.288.416-3.12 1.248-.816.832-1.224 1.896-1.224 3.192 0 1.296.408 2.36 1.224 3.192.816.832 1.856 1.248 3.12 1.248zm8.721-1.824V153.2h1.248v13.344c0 .848.12 1.464.36 1.848.24.384.64.576 1.2.576.544 0 1.048-.176 1.512-.528l.312.984c-.624.48-1.384.72-2.28.72-1.568 0-2.352-.976-2.352-2.928zm13.662-8.016h1.632l-5.04 5.064 5.496 5.736h-1.68l-5.352-5.64 4.944-5.16zm-5.64 10.8h-1.248v-16.8h1.248V170zm15.688-2.832c0-.496-.208-.896-.624-1.2-.4-.304-.896-.544-1.488-.72a44.633 44.633 0 0 1-1.752-.576 3.811 3.811 0 0 1-1.512-1.032c-.4-.48-.6-1.08-.6-1.8 0-.864.32-1.552.96-2.064.64-.528 1.48-.792 2.52-.792 1.488 0 2.616.4 3.384 1.2l-.528.936c-.736-.688-1.68-1.032-2.832-1.032-.64 0-1.168.168-1.584.504-.4.32-.6.728-.6 1.224 0 .512.2.936.6 1.272.416.32.912.576 1.488.768a38.18 38.18 0 0 1 1.776.576 3.523 3.523 0 0 1 1.488.984c.416.448.624 1.016.624 1.704 0 .976-.368 1.736-1.104 2.28-.72.544-1.648.816-2.784.816-.704 0-1.44-.16-2.208-.48-.72-.304-1.216-.664-1.488-1.08l.696-.816c.304.368.76.672 1.368.912.624.24 1.216.36 1.776.36.704 0 1.28-.168 1.728-.504.464-.352.696-.832.696-1.44zm17.591-7.968h1.272l-3.504 10.944h-1.032l-2.976-7.848a40.722 40.722 0 0 1-.48-1.368c-.208.704-.368 1.184-.48 1.44l-2.904 7.776h-.984l-3.624-10.944h1.344l2.448 7.56.456 1.584c.272-.848.448-1.376.528-1.584l2.76-7.56h1.032l2.808 7.536.288.864.264.768c.032-.128.12-.448.264-.96l.24-.792 2.28-7.416zm3.848 1.8l-.336-1.032c1.072-.656 2.216-.984 3.432-.984 1.408 0 2.424.352 3.048 1.056.64.704.96 1.792.96 3.264V170h-1.248v-1.656c-.88 1.2-2.112 1.8-3.696 1.8-1.008 0-1.816-.288-2.424-.864-.608-.592-.912-1.376-.912-2.352 0-1.056.384-1.88 1.152-2.472.752-.592 1.736-.888 2.952-.888s2.192.272 2.928.816c0-1.12-.08-1.976-.24-2.568-.128-.576-.392-.984-.792-1.224-.384-.24-.984-.384-1.8-.432-.976 0-1.984.28-3.024.84zm2.544 7.968c1.344 0 2.448-.568 3.312-1.704v-1.8c-.784-.576-1.72-.864-2.808-.864-.816 0-1.504.2-2.064.6-.56.4-.84.952-.84 1.656 0 .64.224 1.152.672 1.536.448.384 1.024.576 1.728.576zm6.576 2.616c0-.816.288-1.504.864-2.064.576-.56 1.392-.952 2.448-1.176a1.56 1.56 0 0 1-.36-1.032c0-.4.136-.76.408-1.08a3.673 3.673 0 0 1-1.656-1.368c-.4-.608-.6-1.296-.6-2.064 0-1.104.392-2.016 1.176-2.736.784-.72 1.816-1.08 3.096-1.08 1.024 0 1.928.272 2.712.816h.024l3.072-.816v1.176l-2.184.552c.432.656.648 1.352.648 2.088 0 1.072-.4 1.984-1.2 2.736-.8.72-1.824 1.08-3.072 1.08-.448 0-.808-.032-1.08-.096-.144.208-.216.472-.216.792 0 .368.104.656.312.864.608-.032.944-.048 1.008-.048 1.648 0 2.96.304 3.936.912.976.608 1.464 1.456 1.464 2.544 0 1.072-.488 1.904-1.464 2.496-.976.608-2.288.912-3.936.912-1.664 0-2.984-.296-3.96-.888-.96-.592-1.44-1.432-1.44-2.52zm1.272 0c0 .704.368 1.256 1.104 1.656.752.416 1.76.624 3.024.624 1.248 0 2.248-.208 3-.624.752-.416 1.128-.968 1.128-1.656 0-.704-.376-1.264-1.128-1.68-.736-.432-1.736-.648-3-.648-1.248 0-2.248.208-3 .624-.752.416-1.128.984-1.128 1.704zm1.944-10.704c-.56.512-.84 1.152-.84 1.92s.28 1.408.84 1.92c.56.512 1.28.768 2.16.768.88 0 1.6-.256 2.16-.768s.84-1.152.84-1.92-.288-1.408-.864-1.92c-.56-.512-1.272-.768-2.136-.768-.848 0-1.568.256-2.16.768zm18.653 6.84l.408.96c-.976 1.024-2.304 1.536-3.984 1.536-1.728 0-3.112-.512-4.152-1.536-1.056-1.024-1.584-2.384-1.584-4.08 0-1.632.48-2.976 1.44-4.032.976-1.056 2.32-1.584 4.032-1.584 1.392 0 2.56.448 3.504 1.344.928.88 1.392 2.056 1.392 3.528 0 .384-.024.72-.072 1.008h-8.904c.048 1.296.472 2.32 1.272 3.072.8.736 1.848 1.104 3.144 1.104 1.504 0 2.672-.44 3.504-1.32zm-3.96-7.56c-1.152 0-2.088.336-2.808 1.008-.704.672-1.112 1.56-1.224 2.664h7.776c-.016-1.136-.36-2.032-1.032-2.688-.672-.656-1.576-.984-2.712-.984zm9.25 9.84h-1.248v-10.8h1.248v1.512c.448-.496 1.024-.904 1.728-1.224a5.28 5.28 0 0 1 2.16-.48c1.504 0 2.632.392 3.384 1.176.752.784 1.128 2 1.128 3.648V170h-1.248v-5.928c0-2.592-1.184-3.888-3.552-3.888-.688 0-1.36.16-2.016.48-.656.304-1.184.696-1.584 1.176V170zm11.371-.912c0-.24.088-.44.264-.6a.993.993 0 0 1 .696-.264c.24 0 .44.088.6.264a.827.827 0 0 1 .264.6c0 .256-.088.48-.264.672a.75.75 0 0 1-.6.288.948.948 0 0 1-.696-.288.963.963 0 0 1-.264-.672zm5.006-.144V153.2h1.248v7.32c.448-.448 1.008-.816 1.68-1.104a5.365 5.365 0 0 1 2.088-.432c1.584 0 2.832.504 3.744 1.512.928.992 1.392 2.304 1.392 3.936 0 1.76-.544 3.168-1.632 4.224-1.088 1.04-2.504 1.56-4.248 1.56-1.728 0-3.152-.424-4.272-1.272zm4.752-8.784c-.672 0-1.336.168-1.992.504-.656.32-1.16.704-1.512 1.152v6.288c.88.624 1.912.936 3.096.936 1.312 0 2.384-.408 3.216-1.224.848-.816 1.272-1.904 1.272-3.264 0-1.36-.368-2.432-1.104-3.216-.736-.784-1.728-1.176-2.976-1.176zm15.918-.96h1.416L319.61 170c-.784 1.904-1.464 3.168-2.04 3.792-.576.672-1.248 1.008-2.016 1.008-.592 0-1.208-.184-1.848-.552l.408-.96c.496.24.92.36 1.272.36.544 0 1.032-.24 1.464-.72.432-.464.88-1.248 1.344-2.352l.24-.576-5.328-10.8h1.488l3.696 7.632.768 1.68c.016-.064.216-.64.6-1.728l2.904-7.584z" fill="#141414"/><rect x="125" y="222" width="316" height="89" rx="8" fill="#fff"/><path d="M184.135 262.2h1.32l-4.872 10.944h-.864l-5.064-10.944h1.464l3.096 6.792c.448 1.008.776 1.8.984 2.376.272-.768.592-1.584.96-2.448l2.976-6.72zm7.946 11.016c-1.664 0-3.024-.528-4.08-1.584s-1.584-2.4-1.584-4.032c0-1.632.528-2.976 1.584-4.032s2.416-1.584 4.08-1.584c1.664 0 3.024.528 4.08 1.584s1.584 2.4 1.584 4.032c0 1.632-.528 2.976-1.584 4.032s-2.416 1.584-4.08 1.584zm0-1.176c1.296 0 2.336-.408 3.12-1.224.816-.832 1.224-1.904 1.224-3.216 0-1.296-.408-2.36-1.224-3.192-.816-.832-1.856-1.248-3.12-1.248-1.248 0-2.288.416-3.12 1.248-.816.832-1.224 1.896-1.224 3.192 0 1.296.408 2.36 1.224 3.192.816.832 1.856 1.248 3.12 1.248zm8.721-1.824V256.2h1.248v13.344c0 .848.12 1.464.36 1.848.24.384.64.576 1.2.576.544 0 1.048-.176 1.512-.528l.312.984c-.624.48-1.384.72-2.28.72-1.568 0-2.352-.976-2.352-2.928zm13.662-8.016h1.632l-5.04 5.064 5.496 5.736h-1.68l-5.352-5.64 4.944-5.16zm-5.64 10.8h-1.248v-16.8h1.248V273zm15.687-2.832c0-.496-.208-.896-.624-1.2-.4-.304-.896-.544-1.488-.72a44.633 44.633 0 0 1-1.752-.576 3.811 3.811 0 0 1-1.512-1.032c-.4-.48-.6-1.08-.6-1.8 0-.864.32-1.552.96-2.064.64-.528 1.48-.792 2.52-.792 1.488 0 2.616.4 3.384 1.2l-.528.936c-.736-.688-1.68-1.032-2.832-1.032-.64 0-1.168.168-1.584.504-.4.32-.6.728-.6 1.224 0 .512.2.936.6 1.272.416.32.912.576 1.488.768a38.18 38.18 0 0 1 1.776.576 3.523 3.523 0 0 1 1.488.984c.416.448.624 1.016.624 1.704 0 .976-.368 1.736-1.104 2.28-.72.544-1.648.816-2.784.816-.704 0-1.44-.16-2.208-.48-.72-.304-1.216-.664-1.488-1.08l.696-.816c.304.368.76.672 1.368.912.624.24 1.216.36 1.776.36.704 0 1.28-.168 1.728-.504.464-.352.696-.832.696-1.44zm17.592-7.968h1.272l-3.504 10.944h-1.032l-2.976-7.848a40.722 40.722 0 0 1-.48-1.368c-.208.704-.368 1.184-.48 1.44l-2.904 7.776h-.984l-3.624-10.944h1.344l2.448 7.56.456 1.584c.272-.848.448-1.376.528-1.584l2.76-7.56h1.032l2.808 7.536.288.864.264.768c.032-.128.12-.448.264-.96l.24-.792 2.28-7.416zm3.848 1.8l-.336-1.032c1.072-.656 2.216-.984 3.432-.984 1.408 0 2.424.352 3.048 1.056.64.704.96 1.792.96 3.264V273h-1.248v-1.656c-.88 1.2-2.112 1.8-3.696 1.8-1.008 0-1.816-.288-2.424-.864-.608-.592-.912-1.376-.912-2.352 0-1.056.384-1.88 1.152-2.472.752-.592 1.736-.888 2.952-.888s2.192.272 2.928.816c0-1.12-.08-1.976-.24-2.568-.128-.576-.392-.984-.792-1.224-.384-.24-.984-.384-1.8-.432-.976 0-1.984.28-3.024.84zm2.544 7.968c1.344 0 2.448-.568 3.312-1.704v-1.8c-.784-.576-1.72-.864-2.808-.864-.816 0-1.504.2-2.064.6-.56.4-.84.952-.84 1.656 0 .64.224 1.152.672 1.536.448.384 1.024.576 1.728.576zm6.575 2.616c0-.816.288-1.504.864-2.064.576-.56 1.392-.952 2.448-1.176a1.56 1.56 0 0 1-.36-1.032c0-.4.136-.76.408-1.08a3.673 3.673 0 0 1-1.656-1.368c-.4-.608-.6-1.296-.6-2.064 0-1.104.392-2.016 1.176-2.736.784-.72 1.816-1.08 3.096-1.08 1.024 0 1.928.272 2.712.816h.024l3.072-.816v1.176l-2.184.552c.432.656.648 1.352.648 2.088 0 1.072-.4 1.984-1.2 2.736-.8.72-1.824 1.08-3.072 1.08-.448 0-.808-.032-1.08-.096-.144.208-.216.472-.216.792 0 .368.104.656.312.864.608-.032.944-.048 1.008-.048 1.648 0 2.96.304 3.936.912.976.608 1.464 1.456 1.464 2.544 0 1.072-.488 1.904-1.464 2.496-.976.608-2.288.912-3.936.912-1.664 0-2.984-.296-3.96-.888-.96-.592-1.44-1.432-1.44-2.52zm1.272 0c0 .704.368 1.256 1.104 1.656.752.416 1.76.624 3.024.624 1.248 0 2.248-.208 3-.624.752-.416 1.128-.968 1.128-1.656 0-.704-.376-1.264-1.128-1.68-.736-.432-1.736-.648-3-.648-1.248 0-2.248.208-3 .624-.752.416-1.128.984-1.128 1.704zm1.944-10.704c-.56.512-.84 1.152-.84 1.92s.28 1.408.84 1.92c.56.512 1.28.768 2.16.768.88 0 1.6-.256 2.16-.768s.84-1.152.84-1.92-.288-1.408-.864-1.92c-.56-.512-1.272-.768-2.136-.768-.848 0-1.568.256-2.16.768zm18.654 6.84l.408.96c-.976 1.024-2.304 1.536-3.984 1.536-1.728 0-3.112-.512-4.152-1.536-1.056-1.024-1.584-2.384-1.584-4.08 0-1.632.48-2.976 1.44-4.032.976-1.056 2.32-1.584 4.032-1.584 1.392 0 2.56.448 3.504 1.344.928.88 1.392 2.056 1.392 3.528 0 .384-.024.72-.072 1.008h-8.904c.048 1.296.472 2.32 1.272 3.072.8.736 1.848 1.104 3.144 1.104 1.504 0 2.672-.44 3.504-1.32zm-3.96-7.56c-1.152 0-2.088.336-2.808 1.008-.704.672-1.112 1.56-1.224 2.664h7.776c-.016-1.136-.36-2.032-1.032-2.688-.672-.656-1.576-.984-2.712-.984zm9.25 9.84h-1.248v-10.8h1.248v1.512c.448-.496 1.024-.904 1.728-1.224a5.28 5.28 0 0 1 2.16-.48c1.504 0 2.632.392 3.384 1.176.752.784 1.128 2 1.128 3.648V273h-1.248v-5.928c0-2.592-1.184-3.888-3.552-3.888-.688 0-1.36.16-2.016.48-.656.304-1.184.696-1.584 1.176V273zm17.611-5.928h-5.496v-1.176h5.496v1.176zm19.69-1.152V273h-1.248v-6.744c0-2.048-.912-3.072-2.736-3.072-1.488 0-2.592.6-3.312 1.8.032.16.048.416.048.768V273h-1.248v-7.296c0-.784-.24-1.4-.72-1.848-.48-.448-1.144-.672-1.992-.672-1.392 0-2.488.568-3.288 1.704V273h-1.248v-10.8h1.248v1.512c.416-.512.96-.92 1.632-1.224a4.959 4.959 0 0 1 2.112-.48c.848 0 1.56.176 2.136.528.592.352.984.84 1.176 1.464.4-.608.952-1.088 1.656-1.44a4.943 4.943 0 0 1 2.28-.552c2.336 0 3.504 1.304 3.504 3.912zm5.416 7.08h-1.248v-10.8h1.248V273zm-1.464-15c0-.24.088-.432.264-.576a.955.955 0 0 1 .624-.216c.208 0 .392.08.552.24a.682.682 0 0 1 .264.552c0 .272-.08.488-.24.648a.737.737 0 0 1-.576.24.928.928 0 0 1-.648-.24c-.16-.16-.24-.376-.24-.648zm7.122 15h-1.248v-10.8h1.248v1.512c.448-.496 1.024-.904 1.728-1.224a5.28 5.28 0 0 1 2.16-.48c1.504 0 2.632.392 3.384 1.176.752.784 1.128 2 1.128 3.648V273h-1.248v-5.928c0-2.592-1.184-3.888-3.552-3.888-.688 0-1.36.16-2.016.48-.656.304-1.184.696-1.584 1.176V273zm17.563-2.832c0-.496-.208-.896-.624-1.2-.4-.304-.896-.544-1.488-.72a44.633 44.633 0 0 1-1.752-.576 3.811 3.811 0 0 1-1.512-1.032c-.4-.48-.6-1.08-.6-1.8 0-.864.32-1.552.96-2.064.64-.528 1.48-.792 2.52-.792 1.488 0 2.616.4 3.384 1.2l-.528.936c-.736-.688-1.68-1.032-2.832-1.032-.64 0-1.168.168-1.584.504-.4.32-.6.728-.6 1.224 0 .512.2.936.6 1.272.416.32.912.576 1.488.768a38.18 38.18 0 0 1 1.776.576 3.523 3.523 0 0 1 1.488.984c.416.448.624 1.016.624 1.704 0 .976-.368 1.736-1.104 2.28-.72.544-1.648.816-2.784.816-.704 0-1.44-.16-2.208-.48-.72-.304-1.216-.664-1.488-1.08l.696-.816c.304.368.76.672 1.368.912.624.24 1.216.36 1.776.36.704 0 1.28-.168 1.728-.504.464-.352.696-.832.696-1.44zm11.327-7.968h1.632l-5.04 5.064 5.496 5.736h-1.68l-5.352-5.64 4.944-5.16zm-5.64 10.8h-1.248v-16.8h1.248V273zm10.316-.912c0-.24.088-.44.264-.6a.993.993 0 0 1 .696-.264c.24 0 .44.088.6.264a.827.827 0 0 1 .264.6c0 .256-.088.48-.264.672a.75.75 0 0 1-.6.288.948.948 0 0 1-.696-.288.963.963 0 0 1-.264-.672zm5.006-.144V256.2h1.248v7.32c.448-.448 1.008-.816 1.68-1.104a5.365 5.365 0 0 1 2.088-.432c1.584 0 2.832.504 3.744 1.512.928.992 1.392 2.304 1.392 3.936 0 1.76-.544 3.168-1.632 4.224-1.088 1.04-2.504 1.56-4.248 1.56-1.728 0-3.152-.424-4.272-1.272zm4.752-8.784c-.672 0-1.336.168-1.992.504-.656.32-1.16.704-1.512 1.152v6.288c.88.624 1.912.936 3.096.936 1.312 0 2.384-.408 3.216-1.224.848-.816 1.272-1.904 1.272-3.264 0-1.36-.368-2.432-1.104-3.216-.736-.784-1.728-1.176-2.976-1.176zm15.918-.96h1.416l-4.368 10.8c-.784 1.904-1.464 3.168-2.04 3.792-.576.672-1.248 1.008-2.016 1.008-.592 0-1.208-.184-1.848-.552l.408-.96c.496.24.92.36 1.272.36.544 0 1.032-.24 1.464-.72.432-.464.88-1.248 1.344-2.352l.24-.576-5.328-10.8h1.488l3.696 7.632.768 1.68c.016-.064.216-.64.6-1.728l2.904-7.584z" fill="#141414"/><rect x="125" y="325" width="290" height="89" rx="8" fill="#fff"/><path d="M186.65 365.2h1.32l-4.872 10.944h-.864L177.17 365.2h1.464l3.096 6.792c.448 1.008.776 1.8.984 2.376.272-.768.592-1.584.96-2.448l2.976-6.72zm16.625 0h1.272l-3.504 10.944h-1.032l-2.976-7.848a40.722 40.722 0 0 1-.48-1.368c-.208.704-.368 1.184-.48 1.44l-2.904 7.776h-.984l-3.624-10.944h1.344l2.448 7.56.456 1.584c.272-.848.448-1.376.528-1.584l2.76-7.56h1.032l2.808 7.536.288.864.264.768c.032-.128.12-.448.264-.96l.24-.792 2.28-7.416zm9.152 4.872h-5.496v-1.176h5.496v1.176zm12.51 3.48l.624.912c-.432.56-1.016.992-1.752 1.296a5.923 5.923 0 0 1-2.328.456c-1.68 0-3.056-.512-4.128-1.536-1.056-1.024-1.584-2.384-1.584-4.08 0-1.584.512-2.912 1.536-3.984 1.04-1.088 2.32-1.632 3.84-1.632 1.856 0 3.256.448 4.2 1.344l-.6 1.008c-.848-.784-1.984-1.176-3.408-1.176-1.152 0-2.152.424-3 1.272-.832.832-1.248 1.888-1.248 3.168 0 1.344.424 2.424 1.272 3.24.848.8 1.92 1.2 3.216 1.2 1.392 0 2.512-.496 3.36-1.488zm7.675 2.664c-1.664 0-3.024-.528-4.08-1.584s-1.584-2.4-1.584-4.032c0-1.632.528-2.976 1.584-4.032s2.416-1.584 4.08-1.584c1.664 0 3.024.528 4.08 1.584s1.584 2.4 1.584 4.032c0 1.632-.528 2.976-1.584 4.032s-2.416 1.584-4.08 1.584zm0-1.176c1.296 0 2.336-.408 3.12-1.224.816-.832 1.224-1.904 1.224-3.216 0-1.296-.408-2.36-1.224-3.192-.816-.832-1.856-1.248-3.12-1.248-1.248 0-2.288.416-3.12 1.248-.816.832-1.224 1.896-1.224 3.192 0 1.296.408 2.36 1.224 3.192.816.832 1.856 1.248 3.12 1.248zm24.466-6.12V376h-1.248v-6.744c0-2.048-.912-3.072-2.736-3.072-1.488 0-2.592.6-3.312 1.8.032.16.048.416.048.768V376h-1.248v-7.296c0-.784-.24-1.4-.72-1.848-.48-.448-1.144-.672-1.992-.672-1.392 0-2.488.568-3.288 1.704V376h-1.248v-10.8h1.248v1.512c.416-.512.96-.92 1.632-1.224a4.959 4.959 0 0 1 2.112-.48c.848 0 1.56.176 2.136.528.592.352.984.84 1.176 1.464.4-.608.952-1.088 1.656-1.44a4.943 4.943 0 0 1 2.28-.552c2.336 0 3.504 1.304 3.504 3.912zm19.312 0V376h-1.248v-6.744c0-2.048-.912-3.072-2.736-3.072-1.488 0-2.592.6-3.312 1.8.032.16.048.416.048.768V376h-1.248v-7.296c0-.784-.24-1.4-.72-1.848-.48-.448-1.144-.672-1.992-.672-1.392 0-2.488.568-3.288 1.704V376h-1.248v-10.8h1.248v1.512c.416-.512.96-.92 1.632-1.224a4.959 4.959 0 0 1 2.112-.48c.848 0 1.56.176 2.136.528.592.352.984.84 1.176 1.464.4-.608.952-1.088 1.656-1.44a4.943 4.943 0 0 1 2.28-.552c2.336 0 3.504 1.304 3.504 3.912zm12.113 4.8l.408.96c-.976 1.024-2.304 1.536-3.984 1.536-1.728 0-3.112-.512-4.152-1.536-1.056-1.024-1.584-2.384-1.584-4.08 0-1.632.48-2.976 1.44-4.032.976-1.056 2.32-1.584 4.032-1.584 1.392 0 2.56.448 3.504 1.344.928.88 1.392 2.056 1.392 3.528 0 .384-.024.72-.072 1.008h-8.904c.048 1.296.472 2.32 1.272 3.072.8.736 1.848 1.104 3.144 1.104 1.504 0 2.672-.44 3.504-1.32zm-3.96-7.56c-1.152 0-2.088.336-2.808 1.008-.704.672-1.112 1.56-1.224 2.664h7.776c-.016-1.136-.36-2.032-1.032-2.688-.672-.656-1.576-.984-2.712-.984zm9.249 9.84h-1.248v-10.8h1.248v1.44c.72-1.088 1.688-1.632 2.904-1.632.752 0 1.312.136 1.68.408l-.432 1.176a2.937 2.937 0 0 0-1.512-.408c-1.072 0-1.952.584-2.64 1.752V376zm15.051-2.448l.624.912c-.432.56-1.016.992-1.752 1.296a5.923 5.923 0 0 1-2.328.456c-1.68 0-3.056-.512-4.128-1.536-1.056-1.024-1.584-2.384-1.584-4.08 0-1.584.512-2.912 1.536-3.984 1.04-1.088 2.32-1.632 3.84-1.632 1.856 0 3.256.448 4.2 1.344l-.6 1.008c-.848-.784-1.984-1.176-3.408-1.176-1.152 0-2.152.424-3 1.272-.832.832-1.248 1.888-1.248 3.168 0 1.344.424 2.424 1.272 3.24.848.8 1.92 1.2 3.216 1.2 1.392 0 2.512-.496 3.36-1.488zm5.214 2.448h-1.248v-10.8h1.248V376zm-1.464-15c0-.24.088-.432.264-.576a.954.954 0 0 1 .623-.216.76.76 0 0 1 .553.24.682.682 0 0 1 .264.552c0 .272-.08.488-.24.648a.74.74 0 0 1-.577.24.927.927 0 0 1-.647-.24c-.16-.16-.24-.376-.24-.648zm6.209 6l-.336-1.032c1.072-.656 2.216-.984 3.432-.984 1.408 0 2.424.352 3.048 1.056.64.704.96 1.792.96 3.264V376h-1.248v-1.656c-.88 1.2-2.112 1.8-3.696 1.8-1.008 0-1.816-.288-2.424-.864-.608-.592-.912-1.376-.912-2.352 0-1.056.384-1.88 1.152-2.472.752-.592 1.736-.888 2.952-.888s2.192.272 2.928.816c0-1.12-.08-1.976-.24-2.568-.128-.576-.392-.984-.792-1.224-.384-.24-.984-.384-1.8-.432-.976 0-1.984.28-3.024.84zm2.544 7.968c1.344 0 2.448-.568 3.312-1.704v-1.8c-.784-.576-1.72-.864-2.808-.864-.816 0-1.504.2-2.064.6-.56.4-.84.952-.84 1.656 0 .64.224 1.152.672 1.536.448.384 1.024.576 1.728.576zm8.136-1.752V359.2h1.248v13.344c0 .848.12 1.464.36 1.848.24.384.64.576 1.2.576.544 0 1.048-.176 1.512-.528l.312.984c-.624.48-1.384.72-2.28.72-1.568 0-2.352-.976-2.352-2.928zm6.173 1.872c0-.24.088-.44.264-.6a.993.993 0 0 1 .696-.264c.24 0 .44.088.6.264a.827.827 0 0 1 .264.6c0 .256-.088.48-.264.672a.75.75 0 0 1-.6.288.948.948 0 0 1-.696-.288.963.963 0 0 1-.264-.672zm5.007-.144V359.2h1.248v7.32c.448-.448 1.008-.816 1.68-1.104a5.365 5.365 0 0 1 2.088-.432c1.584 0 2.832.504 3.744 1.512.928.992 1.392 2.304 1.392 3.936 0 1.76-.544 3.168-1.632 4.224-1.088 1.04-2.504 1.56-4.248 1.56-1.728 0-3.152-.424-4.272-1.272zm4.752-8.784c-.672 0-1.336.168-1.992.504-.656.32-1.16.704-1.512 1.152v6.288c.88.624 1.912.936 3.096.936 1.312 0 2.384-.408 3.216-1.224.848-.816 1.272-1.904 1.272-3.264 0-1.36-.368-2.432-1.104-3.216-.736-.784-1.728-1.176-2.976-1.176zm15.917-.96h1.416l-4.368 10.8c-.784 1.904-1.464 3.168-2.04 3.792-.576.672-1.248 1.008-2.016 1.008-.592 0-1.208-.184-1.848-.552l.408-.96c.496.24.92.36 1.272.36.544 0 1.032-.24 1.464-.72.432-.464.88-1.248 1.344-2.352l.24-.576-5.328-10.8h1.488l3.696 7.632.768 1.68c.016-.064.216-.64.6-1.728l2.904-7.584z" fill="#141414"/><path d="M49 363.5h1-1zm50.707 8.707a1 1 0 0 0 0-1.414l-6.364-6.364a1 1 0 1 0-1.414 1.414l5.657 5.657-5.657 5.657a1 1 0 1 0 1.414 1.414l6.364-6.364zM48 126v237.5h2V126h-2zm9 246.5h42v-2H57v2zm-9-9a9 9 0 0 0 9 9v-2a7 7 0 0 1-7-7h-2zm52.207-90.793a.999.999 0 0 0 0-1.414l-6.364-6.364a1 1 0 1 0-1.414 1.414L98.086 272l-5.657 5.657a1 1 0 1 0 1.414 1.414l6.364-6.364zM58 273h41.5v-2H58v2zm42.207-102.293a.999.999 0 0 0 0-1.414l-6.364-6.364a1 1 0 1 0-1.414 1.414L98.086 170l-5.657 5.657a1 1 0 1 0 1.414 1.414l6.364-6.364zM58 171h41.5v-2H58v2z" fill="#E4002B"/></svg>