<svg width="1332" height="235" viewBox="0 0 1332 235" fill="none" xmlns="http://www.w3.org/2000/svg"><path d="M499.207 194.707a.999.999 0 0 0 0-1.414l-6.364-6.364a.999.999 0 1 0-1.414 1.414l5.657 5.657-5.657 5.657a.999.999 0 1 0 1.414 1.414l6.364-6.364zM385 195h113.5v-2H385v2zm490.207-.293a.999.999 0 0 0 0-1.414l-6.364-6.364a.999.999 0 1 0-1.414 1.414l5.657 5.657-5.657 5.657a.999.999 0 1 0 1.414 1.414l6.364-6.364zM761 195h113.5v-2H761v2z" fill="#E4002B"/><rect x="524" y="146" width="227" height="89" rx="8" fill="#F6F4F2"/><path d="M573.752 184.112l-.672-1.008 3.816-3.048h.864V197h-1.248v-15.12l-2.76 2.232zm21.578 10.272l.528.984c-.576.576-1.336 1.032-2.28 1.368-.928.32-1.904.48-2.928.48-2.496 0-4.528-.784-6.096-2.352-1.552-1.552-2.328-3.64-2.328-6.264 0-2.48.752-4.528 2.256-6.144 1.504-1.648 3.496-2.472 5.976-2.472 2.128 0 3.824.528 5.088 1.584l-.624.984c-1.136-.88-2.616-1.32-4.44-1.32-2.048 0-3.704.696-4.968 2.088-1.264 1.36-1.896 3.12-1.896 5.28 0 2.192.656 3.968 1.968 5.328 1.312 1.36 3.032 2.04 5.16 2.04 1.76 0 3.288-.528 4.584-1.584zm8.487-3.312h-5.496v-1.176h5.496v1.176zm4.714 5.928v-16.8h9.264v1.248h-7.944v5.688c.976-.096 1.92-.144 2.832-.144 1.936 0 3.424.424 4.464 1.272 1.056.848 1.584 2.04 1.584 3.576 0 1.68-.56 2.976-1.68 3.888-1.12.896-2.704 1.344-4.752 1.344-.272 0-.968-.016-2.088-.048-.56-.016-1.12-.024-1.68-.024zm4.104-8.76c-1.024 0-1.952.048-2.784.144v7.368c1.584.048 2.464.072 2.64.072 1.616 0 2.84-.336 3.672-1.008.832-.672 1.248-1.64 1.248-2.904 0-1.168-.408-2.072-1.224-2.712-.816-.64-2-.96-3.552-.96zm18.225-.24l-7.2 9h-1.248v-10.8h1.248v9l7.2-9h1.248V197h-1.248v-9zm7.74-.552h-4.296V186.2h9.84v1.248h-4.296V197H638.6v-9.552zm8.989 14.352h-1.248v-15.6h1.248v1.44c.432-.48 1.008-.872 1.728-1.176.736-.32 1.48-.48 2.232-.48 1.536 0 2.76.504 3.672 1.512.912 1.008 1.368 2.32 1.368 3.936 0 1.68-.512 3.064-1.536 4.152-1.04 1.088-2.376 1.632-4.008 1.632-1.456 0-2.608-.304-3.456-.912v5.496zm3.624-14.64c-.704 0-1.392.16-2.064.48-.656.32-1.176.72-1.56 1.2v6.216c.992.656 2.112.984 3.36.984 1.28 0 2.32-.424 3.12-1.272.8-.848 1.2-1.936 1.2-3.264 0-1.328-.36-2.384-1.08-3.168-.72-.784-1.712-1.176-2.976-1.176zm16.865.84l-7.2 9h-1.248v-10.8h1.248v9l7.2-9h1.248V197h-1.248v-9zm12.229-1.8h1.608l-5.328 5.16 5.76 5.64h-1.68l-5.592-5.568 5.232-5.232zm-5.952 10.8h-1.248v-10.8h1.248V197zm18.238-2.448l.624.912c-.432.56-1.016.992-1.752 1.296a5.923 5.923 0 0 1-2.328.456c-1.68 0-3.056-.512-4.128-1.536-1.056-1.024-1.584-2.384-1.584-4.08 0-1.584.512-2.912 1.536-3.984 1.04-1.088 2.32-1.632 3.84-1.632 1.856 0 3.256.448 4.2 1.344l-.6 1.008c-.848-.784-1.984-1.176-3.408-1.176-1.152 0-2.152.424-3 1.272-.832.832-1.248 1.888-1.248 3.168 0 1.344.424 2.424 1.272 3.24.848.8 1.92 1.2 3.216 1.2 1.392 0 2.512-.496 3.36-1.488z" fill="#141414"/><rect width="356" height="116" rx="8" fill="#F6F4F2"/><path d="M115.613 36.36L104.309 51h-1.176V34.2h1.32v14.64l11.304-14.64h1.176V51h-1.32V36.36zM122.738 51h-1.248V40.2h1.176l4.488 6.024 4.32-6.024h1.128V51h-1.248v-8.904l-4.2 5.832h-.072l-4.344-5.832V51zm23.065 0h-1.248v-9.624h-6.888V51h-1.248V40.2h9.384V51zm8.684.216c-1.664 0-3.024-.528-4.08-1.584s-1.584-2.4-1.584-4.032c0-1.632.528-2.976 1.584-4.032s2.416-1.584 4.08-1.584c1.664 0 3.024.528 4.08 1.584s1.584 2.4 1.584 4.032c0 1.632-.528 2.976-1.584 4.032s-2.416 1.584-4.08 1.584zm0-1.176c1.296 0 2.336-.408 3.12-1.224.816-.832 1.224-1.904 1.224-3.216 0-1.296-.408-2.36-1.224-3.192-.816-.832-1.856-1.248-3.12-1.248-1.248 0-2.288.416-3.12 1.248-.816.832-1.224 1.896-1.224 3.192 0 1.296.408 2.36 1.224 3.192.816.832 1.856 1.248 3.12 1.248zm9.97 5.76h-1.248V40.2h1.248v1.44c.432-.48 1.008-.872 1.728-1.176.736-.32 1.48-.48 2.232-.48 1.536 0 2.76.504 3.672 1.512.912 1.008 1.368 2.32 1.368 3.936 0 1.68-.512 3.064-1.536 4.152-1.04 1.088-2.376 1.632-4.008 1.632-1.456 0-2.608-.304-3.456-.912V55.8zm3.624-14.64c-.704 0-1.392.16-2.064.48-.656.32-1.176.72-1.56 1.2v6.216c.992.656 2.112.984 3.36.984 1.28 0 2.32-.424 3.12-1.272.8-.848 1.2-1.936 1.2-3.264 0-1.328-.36-2.384-1.08-3.168-.72-.784-1.712-1.176-2.976-1.176zm10.707.288h-4.296V40.2h9.84v1.248h-4.296V51h-1.248v-9.552zM201.681 51h-1.248v-4.896h-7.008V51h-1.248V40.2h1.248v4.728h7.008V40.2h1.248V51zm8.681.216c-1.664 0-3.024-.528-4.08-1.584s-1.584-2.4-1.584-4.032c0-1.632.528-2.976 1.584-4.032s2.416-1.584 4.08-1.584c1.664 0 3.024.528 4.08 1.584s1.584 2.4 1.584 4.032c0 1.632-.528 2.976-1.584 4.032s-2.416 1.584-4.08 1.584zm0-1.176c1.296 0 2.336-.408 3.12-1.224.816-.832 1.224-1.904 1.224-3.216 0-1.296-.408-2.36-1.224-3.192-.816-.832-1.856-1.248-3.12-1.248-1.248 0-2.288.416-3.12 1.248-.816.832-1.224 1.896-1.224 3.192 0 1.296.408 2.36 1.224 3.192.816.832 1.856 1.248 3.12 1.248zm8.722.96V40.2c.528 0 1.04-.008 1.536-.024a85.964 85.964 0 0 1 1.944-.048c2.976 0 4.464.928 4.464 2.784 0 .624-.2 1.168-.6 1.632-.384.448-.912.728-1.584.84v.048c1.728.256 2.592 1.12 2.592 2.592 0 2.032-1.608 3.048-4.824 3.048-.208 0-.84-.016-1.897-.048a53.796 53.796 0 0 0-1.631-.024zm3.84-4.968h-2.592v3.816c1.248.032 2.056.048 2.424.048 2.24 0 3.36-.664 3.36-1.992 0-1.248-1.064-1.872-3.192-1.872zm-.216-4.728c-.528 0-1.32.016-2.376.048V45h2.856c.784 0 1.4-.168 1.848-.504.448-.352.672-.816.672-1.392 0-1.2-1-1.8-3-1.8zM233.614 51h-2.976V40.2h1.248v3.624h1.872c2.848 0 4.272 1.184 4.272 3.552 0 1.12-.36 2.008-1.08 2.664-.72.64-1.832.96-3.336.96zm-.072-6h-1.656v4.824h1.632c1.136 0 1.952-.2 2.448-.6.496-.4.744-1.008.744-1.824 0-1.6-1.056-2.4-3.168-2.4zm8.208 6h-1.248V40.2h1.248V51zm11.33-10.8h1.464l-4.056 5.232L254.784 51h-1.536l-3.696-4.776L245.856 51h-1.464l4.296-5.52-4.056-5.28h1.536l3.432 4.464 3.48-4.464zM110.072 77l-.336-1.032c1.072-.656 2.216-.984 3.432-.984 1.408 0 2.424.352 3.048 1.056.64.704.96 1.792.96 3.264V86h-1.248v-1.656c-.88 1.2-2.112 1.8-3.696 1.8-1.008 0-1.816-.288-2.424-.864-.608-.592-.912-1.376-.912-2.352 0-1.056.384-1.88 1.152-2.472.752-.592 1.736-.888 2.952-.888s2.192.272 2.928.816c0-1.12-.08-1.976-.24-2.568-.128-.576-.392-.984-.792-1.224-.384-.24-.984-.384-1.8-.432-.976 0-1.984.28-3.024.84zm2.544 7.968c1.344 0 2.448-.568 3.312-1.704v-1.8c-.784-.576-1.72-.864-2.808-.864-.816 0-1.504.2-2.064.6-.56.4-.84.952-.84 1.656 0 .64.224 1.152.672 1.536.448.384 1.024.576 1.728.576zM120.751 86V75.2c.528 0 1.04-.008 1.536-.024a85.964 85.964 0 0 1 1.944-.048c2.976 0 4.464.928 4.464 2.784 0 .624-.2 1.168-.6 1.632-.384.448-.912.728-1.584.84v.048c1.728.256 2.592 1.12 2.592 2.592 0 2.032-1.608 3.048-4.824 3.048-.208 0-.84-.016-1.896-.048a53.912 53.912 0 0 0-1.632-.024zm3.84-4.968h-2.592v3.816c1.248.032 2.056.048 2.424.048 2.24 0 3.36-.664 3.36-1.992 0-1.248-1.064-1.872-3.192-1.872zm-.216-4.728c-.528 0-1.32.016-2.376.048V80h2.856c.784 0 1.4-.168 1.848-.504.448-.352.672-.816.672-1.392 0-1.2-1-1.8-3-1.8zm10.643.144h-4.296V75.2h9.84v1.248h-4.296V86h-1.248v-9.552zm12.262 9.768c-1.664 0-3.024-.528-4.08-1.584s-1.584-2.4-1.584-4.032c0-1.632.528-2.976 1.584-4.032s2.416-1.584 4.08-1.584c1.664 0 3.024.528 4.08 1.584s1.584 2.4 1.584 4.032c0 1.632-.528 2.976-1.584 4.032s-2.416 1.584-4.08 1.584zm0-1.176c1.296 0 2.336-.408 3.12-1.224.816-.832 1.224-1.904 1.224-3.216 0-1.296-.408-2.36-1.224-3.192-.816-.832-1.856-1.248-3.12-1.248-1.248 0-2.288.416-3.12 1.248-.816.832-1.224 1.896-1.224 3.192 0 1.296.408 2.36 1.224 3.192.816.832 1.856 1.248 3.12 1.248zm9.969.96h-1.248V75.2h1.176l4.488 6.024 4.32-6.024h1.128V86h-1.248v-8.904l-4.2 5.832h-.072l-4.344-5.832V86zm18.578.216c-1.664 0-3.024-.528-4.08-1.584s-1.584-2.4-1.584-4.032c0-1.632.528-2.976 1.584-4.032s2.416-1.584 4.08-1.584c1.664 0 3.024.528 4.08 1.584s1.584 2.4 1.584 4.032c0 1.632-.528 2.976-1.584 4.032s-2.416 1.584-4.08 1.584zm0-1.176c1.296 0 2.336-.408 3.12-1.224.816-.832 1.224-1.904 1.224-3.216 0-1.296-.408-2.36-1.224-3.192-.816-.832-1.856-1.248-3.12-1.248-1.248 0-2.288.416-3.12 1.248-.816.832-1.224 1.896-1.224 3.192 0 1.296.408 2.36 1.224 3.192.816.832 1.856 1.248 3.12 1.248zm17.265-16.08l.696.936c-.368.528-.816.888-1.344 1.08a16 16 0 0 1-2.088.456 8.055 8.055 0 0 0-2.256.624c-1.84.784-2.872 2.832-3.096 6.144h.048c.368-.88.984-1.584 1.848-2.112a5.172 5.172 0 0 1 2.808-.816c1.568 0 2.816.496 3.744 1.488.928.976 1.392 2.288 1.392 3.936 0 1.52-.52 2.824-1.56 3.912-1.024 1.072-2.328 1.608-3.912 1.608-1.696 0-3.064-.592-4.104-1.776-1.008-1.184-1.512-2.808-1.512-4.872 0-4.736 1.32-7.64 3.96-8.712a10.114 10.114 0 0 1 2.232-.6c.96-.16 1.648-.312 2.064-.456.416-.16.776-.44 1.08-.84zm-8.016 10.824c0 1.616.392 2.896 1.176 3.84.784.944 1.808 1.416 3.072 1.416 1.216 0 2.216-.416 3-1.248.8-.848 1.2-1.864 1.2-3.048 0-1.296-.368-2.336-1.104-3.12-.736-.784-1.736-1.176-3-1.176-1.136 0-2.104.336-2.904 1.008-.768.672-1.248 1.448-1.44 2.328zM206.309 77l-7.2 9h-1.248V75.2h1.248v9l7.2-9h1.248V86h-1.248v-9zm13.884 9h-1.248v-9.552h-4.56l-.144 2.352c-.208 3.04-.712 5.056-1.512 6.048-.64.832-1.432 1.248-2.376 1.248l-.096-1.224c.416 0 .808-.192 1.176-.576.88-.816 1.416-2.728 1.608-5.736l.168-3.36h6.984V86zm12.345-2.28l.408.96c-.976 1.024-2.304 1.536-3.984 1.536-1.728 0-3.112-.512-4.152-1.536-1.056-1.024-1.584-2.384-1.584-4.08 0-1.632.48-2.976 1.44-4.032.976-1.056 2.32-1.584 4.032-1.584 1.392 0 2.56.448 3.504 1.344.928.88 1.392 2.056 1.392 3.528 0 .384-.024.72-.072 1.008h-8.904c.048 1.296.472 2.32 1.272 3.072.8.736 1.848 1.104 3.144 1.104 1.504 0 2.672-.44 3.504-1.32zm-3.96-7.56c-1.152 0-2.088.336-2.808 1.008-.704.672-1.112 1.56-1.224 2.664h7.776c-.016-1.136-.36-2.032-1.032-2.688-.672-.656-1.576-.984-2.712-.984zm16.45.84l-7.2 9h-1.248V75.2h1.248v9l7.2-9h1.248V86h-1.248v-9zm-6.792-7.416h1.128c0 .592.208 1.096.624 1.512.416.4.952.6 1.608.6.624 0 1.136-.2 1.536-.6.4-.416.6-.92.6-1.512h1.128c0 .88-.304 1.616-.912 2.208-.608.576-1.392.864-2.352.864-1.024 0-1.84-.28-2.448-.84-.608-.576-.912-1.32-.912-2.232zM385.674 25.25l-.252-.774a4.848 4.848 0 0 1 2.574-.738c1.056 0 1.818.264 2.286.792.48.528.72 1.344.72 2.448V32h-.936v-1.242c-.66.9-1.584 1.35-2.772 1.35-.756 0-1.362-.216-1.818-.648-.456-.444-.684-1.032-.684-1.764 0-.792.288-1.41.864-1.854.564-.444 1.302-.666 2.214-.666.912 0 1.644.204 2.196.612 0-.84-.06-1.482-.18-1.926-.096-.432-.294-.738-.594-.918-.288-.18-.738-.288-1.35-.324-.732 0-1.488.21-2.268.63zm1.908 5.976c1.008 0 1.836-.426 2.484-1.278v-1.35c-.588-.432-1.29-.648-2.106-.648-.612 0-1.128.15-1.548.45-.42.3-.63.714-.63 1.242 0 .48.168.864.504 1.152.336.288.768.432 1.296.432zm7.038 4.374h-.936V23.9h.936v1.08c.324-.36.756-.654 1.296-.882.552-.24 1.11-.36 1.674-.36 1.152 0 2.07.378 2.754 1.134.684.756 1.026 1.74 1.026 2.952 0 1.26-.384 2.298-1.152 3.114-.78.816-1.782 1.224-3.006 1.224-1.092 0-1.956-.228-2.592-.684V35.6zm2.718-10.98c-.528 0-1.044.12-1.548.36-.492.24-.882.54-1.17.9v4.662c.744.492 1.584.738 2.52.738.96 0 1.74-.318 2.34-.954.6-.636.9-1.452.9-2.448s-.27-1.788-.81-2.376c-.54-.588-1.284-.882-2.232-.882zm7.699 7.38h-.936v-8.1h.936V32zm-1.098-11.25a.53.53 0 0 1 .198-.432.716.716 0 0 1 .468-.162.57.57 0 0 1 .414.18.511.511 0 0 1 .198.414c0 .204-.06.366-.18.486a.553.553 0 0 1-.432.18.696.696 0 0 1-.486-.18.657.657 0 0 1-.18-.486zm337.735 4.5l-.252-.774a4.848 4.848 0 0 1 2.574-.738c1.056 0 1.818.264 2.286.792.48.528.72 1.344.72 2.448V32h-.936v-1.242c-.66.9-1.584 1.35-2.772 1.35-.756 0-1.362-.216-1.818-.648-.456-.444-.684-1.032-.684-1.764 0-.792.288-1.41.864-1.854.564-.444 1.302-.666 2.214-.666.912 0 1.644.204 2.196.612 0-.84-.06-1.482-.18-1.926-.096-.432-.294-.738-.594-.918-.288-.18-.738-.288-1.35-.324-.732 0-1.488.21-2.268.63zm1.908 5.976c1.008 0 1.836-.426 2.484-1.278v-1.35c-.588-.432-1.29-.648-2.106-.648-.612 0-1.128.15-1.548.45-.42.3-.63.714-.63 1.242 0 .48.168.864.504 1.152.336.288.768.432 1.296.432zm7.038 4.374h-.936V23.9h.936v1.08c.324-.36.756-.654 1.296-.882.552-.24 1.11-.36 1.674-.36 1.152 0 2.07.378 2.754 1.134.684.756 1.026 1.74 1.026 2.952 0 1.26-.384 2.298-1.152 3.114-.78.816-1.782 1.224-3.006 1.224-1.092 0-1.956-.228-2.592-.684V35.6zm2.718-10.98c-.528 0-1.044.12-1.548.36-.492.24-.882.54-1.17.9v4.662c.744.492 1.584.738 2.52.738.96 0 1.74-.318 2.34-.954.6-.636.9-1.452.9-2.448s-.27-1.788-.81-2.376c-.54-.588-1.284-.882-2.232-.882zm7.699 7.38h-.936v-8.1h.936V32zm-1.098-11.25a.53.53 0 0 1 .198-.432.716.716 0 0 1 .468-.162.57.57 0 0 1 .414.18.511.511 0 0 1 .198.414c0 .204-.06.366-.18.486a.553.553 0 0 1-.432.18.696.696 0 0 1-.486-.18.657.657 0 0 1-.18-.486zm3.199 14.994l-.756-.288 6.048-16.218.738.27-6.03 16.236zm13.327-5.454l.306.72c-.732.768-1.728 1.152-2.988 1.152-1.296 0-2.334-.384-3.114-1.152-.792-.768-1.188-1.788-1.188-3.06 0-1.224.36-2.232 1.08-3.024.732-.792 1.74-1.188 3.024-1.188 1.044 0 1.92.336 2.628 1.008.696.66 1.044 1.542 1.044 2.646 0 .288-.018.54-.054.756h-6.678c.036.972.354 1.74.954 2.304.6.552 1.386.828 2.358.828 1.128 0 2.004-.33 2.628-.99zm-2.97-5.67c-.864 0-1.566.252-2.106.756-.528.504-.834 1.17-.918 1.998h5.832c-.012-.852-.27-1.524-.774-2.016s-1.182-.738-2.034-.738zm17.809 2.07V32h-.936v-5.058c0-1.536-.684-2.304-2.052-2.304-1.116 0-1.944.45-2.484 1.35.024.12.036.312.036.576V32h-.936v-5.472c0-.588-.18-1.05-.54-1.386-.36-.336-.858-.504-1.494-.504-1.044 0-1.866.426-2.466 1.278V32h-.936v-8.1h.936v1.134c.312-.384.72-.69 1.224-.918a3.719 3.719 0 0 1 1.584-.36c.636 0 1.17.132 1.602.396.444.264.738.63.882 1.098a3.12 3.12 0 0 1 1.242-1.08 3.707 3.707 0 0 1 1.71-.414c1.752 0 2.628.978 2.628 2.934zm2.929-1.44l-.252-.774a4.848 4.848 0 0 1 2.574-.738c1.056 0 1.818.264 2.286.792.48.528.72 1.344.72 2.448V32h-.936v-1.242c-.66.9-1.584 1.35-2.772 1.35-.756 0-1.362-.216-1.818-.648-.456-.444-.684-1.032-.684-1.764 0-.792.288-1.41.864-1.854.564-.444 1.302-.666 2.214-.666.912 0 1.644.204 2.196.612 0-.84-.06-1.482-.18-1.926-.096-.432-.294-.738-.594-.918-.288-.18-.738-.288-1.35-.324-.732 0-1.488.21-2.268.63zm1.908 5.976c1.008 0 1.836-.426 2.484-1.278v-1.35c-.588-.432-1.29-.648-2.106-.648-.612 0-1.128.15-1.548.45-.42.3-.63.714-.63 1.242 0 .48.168.864.504 1.152.336.288.768.432 1.296.432zm7.487.774h-.936v-8.1h.936V32zm-1.098-11.25a.53.53 0 0 1 .198-.432.716.716 0 0 1 .468-.162.57.57 0 0 1 .414.18.511.511 0 0 1 .198.414c0 .204-.06.366-.18.486a.553.553 0 0 1-.432.18.696.696 0 0 1-.486-.18.657.657 0 0 1-.18-.486zm4.406 9.162V19.4h.936v10.008c0 .636.09 1.098.27 1.386.18.288.48.432.9.432.408 0 .786-.132 1.134-.396l.234.738c-.468.36-1.038.54-1.71.54-1.176 0-1.764-.732-1.764-2.196zm3.874 5.832l-.756-.288 6.048-16.218.738.27-6.03 16.236zm6.811-13.41l-.504-.756 2.862-2.286h.648V32h-.936V20.66l-2.07 1.674zm16.183 7.704l.396.738c-.432.432-1.002.774-1.71 1.026-.696.24-1.428.36-2.196.36-1.872 0-3.396-.588-4.572-1.764-1.164-1.164-1.746-2.73-1.746-4.698 0-1.86.564-3.396 1.692-4.608 1.128-1.236 2.622-1.854 4.482-1.854 1.596 0 2.868.396 3.816 1.188l-.468.738c-.852-.66-1.962-.99-3.33-.99-1.536 0-2.778.522-3.726 1.566-.948 1.02-1.422 2.34-1.422 3.96 0 1.644.492 2.976 1.476 3.996s2.274 1.53 3.87 1.53c1.32 0 2.466-.396 3.438-1.188zM385.674 172.25l-.252-.774a4.848 4.848 0 0 1 2.574-.738c1.056 0 1.818.264 2.286.792.48.528.72 1.344.72 2.448V179h-.936v-1.242c-.66.9-1.584 1.35-2.772 1.35-.756 0-1.362-.216-1.818-.648-.456-.444-.684-1.032-.684-1.764 0-.792.288-1.41.864-1.854.564-.444 1.302-.666 2.214-.666.912 0 1.644.204 2.196.612 0-.84-.06-1.482-.18-1.926-.096-.432-.294-.738-.594-.918-.288-.18-.738-.288-1.35-.324-.732 0-1.488.21-2.268.63zm1.908 5.976c1.008 0 1.836-.426 2.484-1.278v-1.35c-.588-.432-1.29-.648-2.106-.648-.612 0-1.128.15-1.548.45-.42.3-.63.714-.63 1.242 0 .48.168.864.504 1.152.336.288.768.432 1.296.432zm7.038 4.374h-.936v-11.7h.936v1.08c.324-.36.756-.654 1.296-.882.552-.24 1.11-.36 1.674-.36 1.152 0 2.07.378 2.754 1.134.684.756 1.026 1.74 1.026 2.952 0 1.26-.384 2.298-1.152 3.114-.78.816-1.782 1.224-3.006 1.224-1.092 0-1.956-.228-2.592-.684v4.122zm2.718-10.98c-.528 0-1.044.12-1.548.36-.492.24-.882.54-1.17.9v4.662c.744.492 1.584.738 2.52.738.96 0 1.74-.318 2.34-.954.6-.636.9-1.452.9-2.448s-.27-1.788-.81-2.376c-.54-.588-1.284-.882-2.232-.882zm7.699 7.38h-.936v-8.1h.936v8.1zm-1.098-11.25a.53.53 0 0 1 .198-.432.716.716 0 0 1 .468-.162.57.57 0 0 1 .414.18.511.511 0 0 1 .198.414c0 .204-.06.366-.18.486a.553.553 0 0 1-.432.18.696.696 0 0 1-.486-.18.657.657 0 0 1-.18-.486z" fill="#141414"/><rect y="146" width="357" height="89" rx="8" fill="#F6F4F2"/><path d="M63.144 182.36L51.84 197h-1.176v-16.8h1.32v14.64l11.304-14.64h1.176V197h-1.32v-14.64zM70.269 197h-1.248v-10.8h1.176l4.488 6.024 4.32-6.024h1.128V197h-1.248v-8.904l-4.2 5.832h-.072l-4.344-5.832V197zm23.066 0h-1.248v-9.624h-6.888V197H83.95v-10.8h9.384V197zm8.684.216c-1.664 0-3.024-.528-4.08-1.584s-1.584-2.4-1.584-4.032c0-1.632.528-2.976 1.584-4.032s2.416-1.584 4.08-1.584c1.664 0 3.024.528 4.08 1.584s1.584 2.4 1.584 4.032c0 1.632-.528 2.976-1.584 4.032s-2.416 1.584-4.08 1.584zm0-1.176c1.296 0 2.336-.408 3.12-1.224.816-.832 1.224-1.904 1.224-3.216 0-1.296-.408-2.36-1.224-3.192-.816-.832-1.856-1.248-3.12-1.248-1.248 0-2.288.416-3.12 1.248-.816.832-1.224 1.896-1.224 3.192 0 1.296.408 2.36 1.224 3.192.816.832 1.856 1.248 3.12 1.248zm9.969 5.76h-1.248v-15.6h1.248v1.44c.432-.48 1.008-.872 1.728-1.176.736-.32 1.48-.48 2.232-.48 1.536 0 2.76.504 3.672 1.512.912 1.008 1.368 2.32 1.368 3.936 0 1.68-.512 3.064-1.536 4.152-1.04 1.088-2.376 1.632-4.008 1.632-1.456 0-2.608-.304-3.456-.912v5.496zm3.624-14.64c-.704 0-1.392.16-2.064.48-.656.32-1.176.72-1.56 1.2v6.216c.992.656 2.112.984 3.36.984 1.28 0 2.32-.424 3.12-1.272.8-.848 1.2-1.936 1.2-3.264 0-1.328-.36-2.384-1.08-3.168-.72-.784-1.712-1.176-2.976-1.176zm10.707.288h-4.296V186.2h9.84v1.248h-4.296V197h-1.248v-9.552zm21.934-7.488l.696.936c-.368.528-.816.888-1.344 1.08a16 16 0 0 1-2.088.456 8.055 8.055 0 0 0-2.256.624c-1.84.784-2.872 2.832-3.096 6.144h.048c.368-.88.984-1.584 1.848-2.112a5.171 5.171 0 0 1 2.807-.816c1.569 0 2.817.496 3.745 1.488.928.976 1.392 2.288 1.392 3.936 0 1.52-.52 2.824-1.56 3.912-1.024 1.072-2.328 1.608-3.912 1.608-1.696 0-3.064-.592-4.104-1.776-1.008-1.184-1.512-2.808-1.512-4.872 0-4.736 1.32-7.64 3.96-8.712a10.114 10.114 0 0 1 2.232-.6c.96-.16 1.648-.312 2.064-.456.416-.16.776-.44 1.08-.84zm-8.016 10.824c0 1.616.392 2.896 1.176 3.84.784.944 1.808 1.416 3.072 1.416 1.216 0 2.216-.416 3-1.248.8-.848 1.2-1.864 1.2-3.048 0-1.296-.368-2.336-1.104-3.12-.736-.784-1.736-1.176-3-1.176-1.136 0-2.104.336-2.904 1.008-.768.672-1.248 1.448-1.44 2.328zm20.258-4.584h1.416l-4.368 10.8c-.784 1.904-1.464 3.168-2.04 3.792-.576.672-1.248 1.008-2.016 1.008-.592 0-1.208-.184-1.848-.552l.408-.96c.496.24.92.36 1.272.36.544 0 1.032-.24 1.464-.72.432-.464.88-1.248 1.344-2.352l.24-.576-5.328-10.8h1.488l3.696 7.632.768 1.68c.016-.064.216-.64.6-1.728l2.904-7.584zm9.643 1.8l-.336-1.032c1.072-.656 2.216-.984 3.432-.984 1.408 0 2.424.352 3.048 1.056.64.704.96 1.792.96 3.264V197h-1.248v-1.656c-.88 1.2-2.112 1.8-3.696 1.8-1.008 0-1.816-.288-2.424-.864-.608-.592-.912-1.376-.912-2.352 0-1.056.384-1.88 1.152-2.472.752-.592 1.736-.888 2.952-.888s2.192.272 2.928.816c0-1.12-.08-1.976-.24-2.568-.128-.576-.392-.984-.792-1.224-.384-.24-.984-.384-1.8-.432-.976 0-1.984.28-3.024.84zm2.544 7.968c1.344 0 2.448-.568 3.312-1.704v-1.8c-.784-.576-1.72-.864-2.808-.864-.816 0-1.504.2-2.064.6-.56.4-.84.952-.84 1.656 0 .64.224 1.152.672 1.536.448.384 1.024.576 1.728.576zm8.136 1.032v-10.8c.528 0 1.04-.008 1.536-.024a85.964 85.964 0 0 1 1.944-.048c2.976 0 4.464.928 4.464 2.784 0 .624-.2 1.168-.6 1.632-.384.448-.912.728-1.584.84v.048c1.728.256 2.592 1.12 2.592 2.592 0 2.032-1.608 3.048-4.824 3.048-.208 0-.84-.016-1.896-.048a53.912 53.912 0 0 0-1.632-.024zm3.84-4.968h-2.592v3.816c1.248.032 2.056.048 2.424.048 2.24 0 3.36-.664 3.36-1.992 0-1.248-1.064-1.872-3.192-1.872zm-.216-4.728c-.528 0-1.32.016-2.376.048V191h2.856c.784 0 1.4-.168 1.848-.504.448-.352.672-.816.672-1.392 0-1.2-1-1.8-3-1.8zm10.643.144h-4.296V186.2h9.84v1.248h-4.296V197h-1.248v-9.552zm12.262 9.768c-1.664 0-3.024-.528-4.08-1.584s-1.584-2.4-1.584-4.032c0-1.632.528-2.976 1.584-4.032s2.416-1.584 4.08-1.584c1.664 0 3.024.528 4.08 1.584s1.584 2.4 1.584 4.032c0 1.632-.528 2.976-1.584 4.032s-2.416 1.584-4.08 1.584zm0-1.176c1.296 0 2.336-.408 3.12-1.224.816-.832 1.224-1.904 1.224-3.216 0-1.296-.408-2.36-1.224-3.192-.816-.832-1.856-1.248-3.12-1.248-1.248 0-2.288.416-3.12 1.248-.816.832-1.224 1.896-1.224 3.192 0 1.296.408 2.36 1.224 3.192.816.832 1.856 1.248 3.12 1.248zm9.969.96h-1.248v-10.8h1.176l4.488 6.024 4.32-6.024h1.128V197h-1.248v-8.904l-4.2 5.832h-.072l-4.344-5.832V197zm18.578.216c-1.664 0-3.024-.528-4.08-1.584s-1.584-2.4-1.584-4.032c0-1.632.528-2.976 1.584-4.032s2.416-1.584 4.08-1.584c1.664 0 3.024.528 4.08 1.584s1.584 2.4 1.584 4.032c0 1.632-.528 2.976-1.584 4.032s-2.416 1.584-4.08 1.584zm0-1.176c1.296 0 2.336-.408 3.12-1.224.816-.832 1.224-1.904 1.224-3.216 0-1.296-.408-2.36-1.224-3.192-.816-.832-1.856-1.248-3.12-1.248-1.248 0-2.288.416-3.12 1.248-.816.832-1.224 1.896-1.224 3.192 0 1.296.408 2.36 1.224 3.192.816.832 1.856 1.248 3.12 1.248zm17.265-16.08l.696.936c-.368.528-.816.888-1.344 1.08a16 16 0 0 1-2.088.456 8.055 8.055 0 0 0-2.256.624c-1.84.784-2.872 2.832-3.096 6.144h.048c.368-.88.984-1.584 1.848-2.112a5.172 5.172 0 0 1 2.808-.816c1.568 0 2.816.496 3.744 1.488.928.976 1.392 2.288 1.392 3.936 0 1.52-.52 2.824-1.56 3.912-1.024 1.072-2.328 1.608-3.912 1.608-1.696 0-3.064-.592-4.104-1.776-1.008-1.184-1.512-2.808-1.512-4.872 0-4.736 1.32-7.64 3.96-8.712a10.114 10.114 0 0 1 2.232-.6c.96-.16 1.648-.312 2.064-.456.416-.16.776-.44 1.08-.84zm-8.016 10.824c0 1.616.392 2.896 1.176 3.84.784.944 1.808 1.416 3.072 1.416 1.216 0 2.216-.416 3-1.248.8-.848 1.2-1.864 1.2-3.048 0-1.296-.368-2.336-1.104-3.12-.736-.784-1.736-1.176-3-1.176-1.136 0-2.104.336-2.904 1.008-.768.672-1.248 1.448-1.44 2.328zM266.375 188l-7.2 9h-1.248v-10.8h1.248v9l7.2-9h1.248V197h-1.248v-9zm13.885 9h-1.248v-9.552h-4.56l-.144 2.352c-.208 3.04-.712 5.056-1.512 6.048-.64.832-1.432 1.248-2.376 1.248l-.096-1.224c.416 0 .808-.192 1.176-.576.88-.816 1.416-2.728 1.608-5.736l.168-3.36h6.984V197zm12.344-2.28l.408.96c-.976 1.024-2.304 1.536-3.984 1.536-1.728 0-3.112-.512-4.152-1.536-1.056-1.024-1.584-2.384-1.584-4.08 0-1.632.48-2.976 1.44-4.032.976-1.056 2.32-1.584 4.032-1.584 1.392 0 2.56.448 3.504 1.344.928.88 1.392 2.056 1.392 3.528 0 .384-.024.72-.072 1.008h-8.904c.048 1.296.472 2.32 1.272 3.072.8.736 1.848 1.104 3.144 1.104 1.504 0 2.672-.44 3.504-1.32zm-3.96-7.56c-1.152 0-2.088.336-2.808 1.008-.704.672-1.112 1.56-1.224 2.664h7.776c-.016-1.136-.36-2.032-1.032-2.688-.672-.656-1.576-.984-2.712-.984zm16.45.84l-7.2 9h-1.248v-10.8h1.248v9l7.2-9h1.248V197h-1.248v-9zm-6.792-7.416h1.128c0 .592.208 1.096.624 1.512.416.4.952.6 1.608.6.624 0 1.136-.2 1.536-.6.4-.416.6-.92.6-1.512h1.128c0 .88-.304 1.616-.912 2.208-.608.576-1.392.864-2.352.864-1.024 0-1.84-.28-2.448-.84-.608-.576-.912-1.32-.912-2.232z" fill="#141414"/><rect x="900" y="146" width="431" height="89" rx="8" fill="#F6F4F2"/><path d="M963.792 197h-1.32v-7.944h-10.488V197h-1.32v-16.8h1.32v7.608h10.488V180.2h1.32V197zm9.109-15.552h-6.216V180.2h13.752v1.248h-6.216V197h-1.32v-15.552zM984.656 197h-1.32v-16.8h1.344l6.768 9.216 6.504-9.216h1.272V197h-1.32v-14.736l-6.456 9.072h-.216l-6.576-9V197zm30.064 0h-10.17v-16.8h1.32v15.552h8.85V197zm7.03-5.928h-5.5v-1.176h5.5v1.176zM1038.8 197h-13.11v-10.8h1.25v9.624h4.68V186.2h1.25v9.624h4.68V186.2h1.25V197zm4.15-9l-.34-1.032c1.08-.656 2.22-.984 3.44-.984 1.4 0 2.42.352 3.04 1.056.64.704.96 1.792.96 3.264V197h-1.24v-1.656c-.88 1.2-2.12 1.8-3.7 1.8-1.01 0-1.82-.288-2.42-.864-.61-.592-.92-1.376-.92-2.352 0-1.056.39-1.88 1.16-2.472.75-.592 1.73-.888 2.95-.888 1.21 0 2.19.272 2.93.816 0-1.12-.08-1.976-.24-2.568-.13-.576-.4-.984-.8-1.224-.38-.24-.98-.384-1.8-.432-.97 0-1.98.28-3.02.84zm2.54 7.968c1.35 0 2.45-.568 3.32-1.704v-1.8c-.79-.576-1.72-.864-2.81-.864-.82 0-1.51.2-2.07.6-.56.4-.84.952-.84 1.656 0 .64.23 1.152.68 1.536.44.384 1.02.576 1.72.576zm16.68-16.008l.7.936c-.37.528-.82.888-1.34 1.08a16.4 16.4 0 0 1-2.09.456c-.83.112-1.59.32-2.26.624-1.84.784-2.87 2.832-3.09 6.144h.04c.37-.88.99-1.584 1.85-2.112.87-.544 1.8-.816 2.81-.816 1.57 0 2.82.496 3.74 1.488.93.976 1.4 2.288 1.4 3.936 0 1.52-.52 2.824-1.56 3.912-1.03 1.072-2.33 1.608-3.92 1.608-1.69 0-3.06-.592-4.1-1.776-1.01-1.184-1.51-2.808-1.51-4.872 0-4.736 1.32-7.64 3.96-8.712.67-.272 1.41-.472 2.23-.6.96-.16 1.65-.312 2.06-.456.42-.16.78-.44 1.08-.84zm-8.01 10.824c0 1.616.39 2.896 1.17 3.84.79.944 1.81 1.416 3.08 1.416 1.21 0 2.21-.416 3-1.248.8-.848 1.2-1.864 1.2-3.048 0-1.296-.37-2.336-1.11-3.12-.73-.784-1.73-1.176-3-1.176-1.13 0-2.1.336-2.9 1.008-.77.672-1.25 1.448-1.44 2.328zm21.17 6.216h-1.25v-9.552h-4.56l-.14 2.352c-.21 3.04-.71 5.056-1.51 6.048-.64.832-1.44 1.248-2.38 1.248l-.1-1.224c.42 0 .81-.192 1.18-.576.88-.816 1.42-2.728 1.61-5.736l.17-3.36h6.98V197zm8.7.216c-1.67 0-3.03-.528-4.08-1.584-1.06-1.056-1.59-2.4-1.59-4.032 0-1.632.53-2.976 1.59-4.032 1.05-1.056 2.41-1.584 4.08-1.584 1.66 0 3.02.528 4.08 1.584 1.05 1.056 1.58 2.4 1.58 4.032 0 1.632-.53 2.976-1.58 4.032-1.06 1.056-2.42 1.584-4.08 1.584zm0-1.176c1.29 0 2.33-.408 3.12-1.224.81-.832 1.22-1.904 1.22-3.216 0-1.296-.41-2.36-1.22-3.192-.82-.832-1.86-1.248-3.12-1.248-1.25 0-2.29.416-3.12 1.248-.82.832-1.23 1.896-1.23 3.192 0 1.296.41 2.36 1.23 3.192.81.832 1.85 1.248 3.12 1.248zm18.22.96H1101v-4.896h-7V197h-1.25v-10.8h1.25v4.728h7V186.2h1.25V197zm6.76 0h-2.97v-10.8h1.24v3.624h1.88c2.84 0 4.27 1.184 4.27 3.552 0 1.12-.36 2.008-1.08 2.664-.72.64-1.83.96-3.34.96zm-.07-6h-1.66v4.824h1.64c1.13 0 1.95-.2 2.44-.6.5-.4.75-1.008.75-1.824 0-1.6-1.06-2.4-3.17-2.4zm8.21 6h-1.25v-10.8h1.25V197zm8.96 2.736h-1.17v-3.912h1.34c.42-.528.78-1.384 1.1-2.568.34-1.184.56-2.52.65-4.008l.17-3.048h6.89v9.624h1.8v3.912h-1.18V197h-9.6v2.736zm3.27-12.36l-.15 2.352c-.13 1.472-.35 2.752-.67 3.84-.3 1.056-.62 1.808-.96 2.256h6.24v-8.448h-4.46zm18.68 9.624h-1.25v-9.552h-4.56l-.15 2.352c-.2 3.04-.71 5.056-1.51 6.048-.64.832-1.43 1.248-2.37 1.248l-.1-1.224c.42 0 .81-.192 1.18-.576.88-.816 1.41-2.728 1.6-5.736l.17-3.36h6.99V197zm8.24-10.8h3.21V197h-1.25v-4.032h-2.68l-3.1 4.032h-1.54l3.41-4.32c-.72-.112-1.33-.448-1.85-1.008-.49-.576-.74-1.264-.74-2.064 0-1.04.38-1.864 1.13-2.472.75-.624 1.89-.936 3.41-.936zm-3.22 3.432c0 .64.25 1.16.74 1.56.5.4 1.03.6 1.59.6h2.85v-4.416h-2.18c-.99 0-1.74.208-2.26.624-.49.4-.74.944-.74 1.632zm22.56 12.168h-1.25v-4.584h-.36c-1.78 0-3.2-.52-4.27-1.56-1.06-1.056-1.59-2.408-1.59-4.056 0-1.536.53-2.856 1.59-3.96 1.07-1.104 2.49-1.656 4.25-1.656h.38V180.2h1.25v5.784h.41c1.72 0 3.12.536 4.2 1.608 1.07 1.056 1.6 2.392 1.6 4.008 0 1.632-.52 2.984-1.56 4.056-1.04 1.04-2.45 1.56-4.24 1.56h-.41v4.584zm-6.15-10.2c0 1.296.41 2.368 1.23 3.216.85.816 1.97 1.224 3.38 1.224h.29v-8.88h-.41c-1.37 0-2.47.424-3.29 1.272-.8.848-1.2 1.904-1.2 3.168zm6.56-4.44h-.41v8.88h.31c1.42 0 2.54-.4 3.36-1.2.82-.816 1.22-1.896 1.22-3.24 0-1.232-.4-2.28-1.22-3.144-.8-.864-1.89-1.296-3.26-1.296zm10.1 14.64h-1.25v-15.6h1.25v1.44c.43-.48 1.01-.872 1.73-1.176.74-.32 1.48-.48 2.23-.48 1.54 0 2.76.504 3.67 1.512.92 1.008 1.37 2.32 1.37 3.936 0 1.68-.51 3.064-1.53 4.152-1.04 1.088-2.38 1.632-4.01 1.632-1.46 0-2.61-.304-3.46-.912v5.496zm3.63-14.64c-.71 0-1.4.16-2.07.48-.65.32-1.17.72-1.56 1.2v6.216c.99.656 2.11.984 3.36.984 1.28 0 2.32-.424 3.12-1.272.8-.848 1.2-1.936 1.2-3.264 0-1.328-.36-2.384-1.08-3.168-.72-.784-1.71-1.176-2.97-1.176zm13.31 10.056c-1.67 0-3.03-.528-4.08-1.584-1.06-1.056-1.59-2.4-1.59-4.032 0-1.632.53-2.976 1.59-4.032 1.05-1.056 2.41-1.584 4.08-1.584 1.66 0 3.02.528 4.08 1.584 1.05 1.056 1.58 2.4 1.58 4.032 0 1.632-.53 2.976-1.58 4.032-1.06 1.056-2.42 1.584-4.08 1.584zm0-1.176c1.29 0 2.33-.408 3.12-1.224.81-.832 1.22-1.904 1.22-3.216 0-1.296-.41-2.36-1.22-3.192-.82-.832-1.86-1.248-3.12-1.248-1.25 0-2.29.416-3.12 1.248-.82.832-1.23 1.896-1.23 3.192 0 1.296.41 2.36 1.23 3.192.81.832 1.85 1.248 3.12 1.248zm18.22.96h-1.24v-4.896h-7.01V197h-1.25v-10.8h1.25v4.728h7.01V186.2h1.24V197zm6.5-9.552h-4.29V186.2h9.84v1.248h-4.3V197h-1.25v-9.552zm15.91 7.272l.41.96c-.98 1.024-2.3 1.536-3.98 1.536-1.73 0-3.12-.512-4.16-1.536-1.05-1.024-1.58-2.384-1.58-4.08 0-1.632.48-2.976 1.44-4.032.98-1.056 2.32-1.584 4.03-1.584 1.39 0 2.56.448 3.51 1.344.92.88 1.39 2.056 1.39 3.528 0 .384-.03.72-.07 1.008h-8.91c.05 1.296.47 2.32 1.27 3.072.8.736 1.85 1.104 3.15 1.104 1.5 0 2.67-.44 3.5-1.32zm-3.96-7.56c-1.15 0-2.09.336-2.81 1.008-.7.672-1.11 1.56-1.22 2.664h7.78c-.02-1.136-.36-2.032-1.04-2.688-.67-.656-1.57-.984-2.71-.984zm17.51 9.84h-1.25v-4.896h-7.01V197h-1.25v-10.8h1.25v4.728h7.01V186.2h1.25V197zm3.3 2.736h-1.17v-3.912h1.34c.42-.528.78-1.384 1.1-2.568.34-1.184.56-2.52.65-4.008l.17-3.048h6.89v9.624h1.8v3.912h-1.18V197h-9.6v2.736zm3.27-12.36l-.15 2.352c-.13 1.472-.35 2.752-.67 3.84-.3 1.056-.62 1.808-.96 2.256h6.24v-8.448h-4.46zM1274 188l-.34-1.032a6.468 6.468 0 0 1 3.43-.984c1.41 0 2.43.352 3.05 1.056.64.704.96 1.792.96 3.264V197h-1.25v-1.656c-.88 1.2-2.11 1.8-3.69 1.8-1.01 0-1.82-.288-2.43-.864-.6-.592-.91-1.376-.91-2.352 0-1.056.39-1.88 1.15-2.472.76-.592 1.74-.888 2.96-.888 1.21 0 2.19.272 2.92.816 0-1.12-.08-1.976-.24-2.568-.12-.576-.39-.984-.79-1.224-.38-.24-.98-.384-1.8-.432-.97 0-1.98.28-3.02.84zm2.54 7.968c1.35 0 2.45-.568 3.31-1.704v-1.8c-.78-.576-1.72-.864-2.8-.864-.82 0-1.51.2-2.07.6-.56.4-.84.952-.84 1.656 0 .64.23 1.152.67 1.536.45.384 1.03.576 1.73.576z" fill="#141414"/><rect x="900" width="432" height="117" rx="8" fill="#F6F4F2"/><path d="M950.664 50.976V34.224c2.224-.064 3.696-.096 4.416-.096 3.536 0 5.304 1.384 5.304 4.152 0 1.024-.296 1.88-.888 2.568-.592.672-1.384 1.128-2.376 1.368v.048c1.248.144 2.208.568 2.88 1.272.688.688 1.032 1.608 1.032 2.76 0 1.568-.536 2.76-1.608 3.576-1.056.8-2.512 1.2-4.368 1.2-1.76 0-3.224-.032-4.392-.096zm4.512-7.968h-3.192v6.72c1.6.064 2.64.096 3.12.096 1.488 0 2.624-.304 3.408-.912.8-.608 1.2-1.504 1.2-2.688 0-1.024-.392-1.816-1.176-2.376-.784-.56-1.904-.84-3.36-.84zm-.144-7.632c-.688 0-1.704.024-3.048.072v6.384h3.264c1.104 0 2.008-.296 2.712-.888.736-.592 1.104-1.392 1.104-2.4 0-2.112-1.344-3.168-4.032-3.168zm23.845 11.448c0-.736-.216-1.368-.648-1.896a4.133 4.133 0 0 0-1.608-1.2l-2.088-.888a53.319 53.319 0 0 1-2.088-.984 4.253 4.253 0 0 1-1.608-1.416c-.432-.64-.648-1.392-.648-2.256 0-1.216.44-2.216 1.32-3 .896-.8 2.096-1.2 3.6-1.2 1.968 0 3.472.568 4.512 1.704l-.72.984c-.96-.96-2.208-1.44-3.744-1.44-1.104 0-1.976.272-2.616.816-.64.528-.96 1.24-.96 2.136 0 .72.216 1.344.648 1.872.432.512.968.896 1.608 1.152.64.256 1.336.544 2.088.864.752.304 1.448.616 2.088.936.64.32 1.176.808 1.608 1.464.432.64.648 1.416.648 2.328 0 1.312-.512 2.376-1.536 3.192-1.024.816-2.296 1.224-3.816 1.224a7.733 7.733 0 0 1-3.072-.648c-.992-.464-1.688-1.056-2.088-1.776l.792-.912c.48.624 1.12 1.128 1.92 1.512.8.384 1.608.576 2.424.576 1.088 0 2.024-.28 2.808-.84.784-.544 1.176-1.312 1.176-2.304zM983.411 51h-1.344l7.32-16.944h1.08L997.787 51h-1.416l-2.448-5.712h-8.064L983.411 51zm9.96-6.96l-3.48-8.16-3.504 8.16h6.984zm8.909.216V51h-1.32V34.2c.66 0 1.34-.008 2.04-.024s1.39-.024 2.06-.024c1.12 0 2.08.144 2.88.432.82.288 1.44.68 1.88 1.176.43.496.74 1.032.93 1.608.19.56.29 1.176.29 1.848 0 1.456-.5 2.672-1.51 3.648-1.03.992-2.51 1.488-4.47 1.488-1.1 0-2.03-.032-2.78-.096zm2.9-8.856c-.52 0-1.49.016-2.9.048v7.536c1.15.08 2.06.12 2.74.12 1.47 0 2.6-.352 3.4-1.056.82-.704 1.23-1.656 1.23-2.856 0-1.184-.38-2.112-1.13-2.784-.74-.672-1.85-1.008-3.34-1.008zm23.1 13.152l.62.912c-.43.56-1.01.992-1.75 1.296-.72.304-1.49.456-2.33.456-1.68 0-3.05-.512-4.12-1.536-1.06-1.024-1.59-2.384-1.59-4.08 0-1.584.51-2.912 1.54-3.984 1.04-1.088 2.32-1.632 3.84-1.632 1.85 0 3.25.448 4.2 1.344l-.6 1.008c-.85-.784-1.99-1.176-3.41-1.176-1.15 0-2.15.424-3 1.272-.83.832-1.25 1.888-1.25 3.168 0 1.344.43 2.424 1.27 3.24.85.8 1.92 1.2 3.22 1.2 1.39 0 2.51-.496 3.36-1.488zm15.71 7.248h-1.25v-4.584h-.36c-1.77 0-3.2-.52-4.27-1.56-1.06-1.056-1.58-2.408-1.58-4.056 0-1.536.52-2.856 1.58-3.96 1.07-1.104 2.49-1.656 4.25-1.656h.38V34.2h1.25v5.784h.41c1.73 0 3.13.536 4.2 1.608 1.07 1.056 1.61 2.392 1.61 4.008 0 1.632-.52 2.984-1.56 4.056-1.04 1.04-2.46 1.56-4.25 1.56h-.41V55.8zm-6.14-10.2c0 1.296.4 2.368 1.22 3.216.85.816 1.98 1.224 3.38 1.224h.29v-8.88h-.41c-1.37 0-2.47.424-3.28 1.272-.8.848-1.2 1.904-1.2 3.168zm6.55-4.44h-.41v8.88h.31c1.43 0 2.55-.4 3.36-1.2.82-.816 1.23-1.896 1.23-3.24 0-1.232-.41-2.28-1.23-3.144-.8-.864-1.89-1.296-3.26-1.296zm13.75 10.056c-1.66 0-3.02-.528-4.08-1.584-1.05-1.056-1.58-2.4-1.58-4.032 0-1.632.53-2.976 1.58-4.032 1.06-1.056 2.42-1.584 4.08-1.584 1.67 0 3.03.528 4.08 1.584 1.06 1.056 1.59 2.4 1.59 4.032 0 1.632-.53 2.976-1.59 4.032-1.05 1.056-2.41 1.584-4.08 1.584zm0-1.176c1.3 0 2.34-.408 3.12-1.224.82-.832 1.23-1.904 1.23-3.216 0-1.296-.41-2.36-1.23-3.192-.81-.832-1.85-1.248-3.12-1.248-1.25 0-2.29.416-3.12 1.248-.81.832-1.22 1.896-1.22 3.192 0 1.296.41 2.36 1.22 3.192.82.832 1.86 1.248 3.12 1.248zm9.97 5.76h-1.25V40.2h1.25v1.44c.43-.48 1.01-.872 1.73-1.176.73-.32 1.48-.48 2.23-.48 1.54 0 2.76.504 3.67 1.512.91 1.008 1.37 2.32 1.37 3.936 0 1.68-.51 3.064-1.54 4.152-1.04 1.088-2.37 1.632-4 1.632-1.46 0-2.61-.304-3.46-.912V55.8zm3.62-14.64c-.7 0-1.39.16-2.06.48-.66.32-1.18.72-1.56 1.2v6.216c.99.656 2.11.984 3.36.984 1.28 0 2.32-.424 3.12-1.272.8-.848 1.2-1.936 1.2-3.264 0-1.328-.36-2.384-1.08-3.168-.72-.784-1.71-1.176-2.98-1.176zm9.67 9.84h-1.25V40.2h1.18l4.49 6.024 4.32-6.024h1.12V51h-1.24v-8.904l-4.2 5.832h-.08l-4.34-5.832V51zm24.06 4.248l-.82.696c-3.23-2.784-4.85-6.232-4.85-10.344 0-3.968 1.63-7.416 4.88-10.344l.79.696c-1.54 1.424-2.66 2.92-3.36 4.488-.71 1.568-1.06 3.288-1.06 5.16 0 1.824.38 3.576 1.13 5.256.75 1.664 1.85 3.128 3.29 4.392zm4.61-13.8h-4.29V40.2h9.84v1.248h-4.3V51h-1.25v-9.552zm15.91 7.272l.41.96c-.97 1.024-2.3 1.536-3.98 1.536-1.73 0-3.11-.512-4.15-1.536-1.06-1.024-1.59-2.384-1.59-4.08 0-1.632.48-2.976 1.44-4.032.98-1.056 2.32-1.584 4.03-1.584 1.4 0 2.56.448 3.51 1.344.93.88 1.39 2.056 1.39 3.528 0 .384-.02.72-.07 1.008h-8.91c.05 1.296.48 2.32 1.28 3.072.8.736 1.84 1.104 3.14 1.104 1.5 0 2.67-.44 3.5-1.32zm-3.96-7.56c-1.15 0-2.08.336-2.8 1.008-.71.672-1.12 1.56-1.23 2.664h7.78c-.02-1.136-.36-2.032-1.03-2.688-.68-.656-1.58-.984-2.72-.984zm16.22 7.392l.62.912c-.43.56-1.01.992-1.75 1.296-.72.304-1.49.456-2.33.456-1.68 0-3.05-.512-4.12-1.536-1.06-1.024-1.59-2.384-1.59-4.08 0-1.584.51-2.912 1.54-3.984 1.04-1.088 2.32-1.632 3.84-1.632 1.85 0 3.25.448 4.2 1.344l-.6 1.008c-.85-.784-1.99-1.176-3.41-1.176-1.15 0-2.15.424-3 1.272-.83.832-1.25 1.888-1.25 3.168 0 1.344.43 2.424 1.27 3.24.85.8 1.92 1.2 3.22 1.2 1.39 0 2.51-.496 3.36-1.488zm5.98-7.104h-4.29V40.2h9.84v1.248h-4.3V51h-1.25v-9.552zm13.06 3.624h-5.5v-1.176h5.5v1.176zm2.71 8.664h-1.17v-3.912h1.34c.42-.528.78-1.384 1.1-2.568.34-1.184.56-2.52.65-4.008l.17-3.048h6.89v9.624h1.8v3.912h-1.18V51h-9.6v2.736zm3.27-12.36l-.15 2.352c-.13 1.472-.35 2.752-.67 3.84-.3 1.056-.62 1.808-.96 2.256h6.24v-8.448h-4.46zm11.07 14.424h-1.25V40.2h1.25v1.44c.43-.48 1.01-.872 1.73-1.176.73-.32 1.48-.48 2.23-.48 1.54 0 2.76.504 3.67 1.512.91 1.008 1.37 2.32 1.37 3.936 0 1.68-.51 3.064-1.54 4.152-1.04 1.088-2.37 1.632-4 1.632-1.46 0-2.61-.304-3.46-.912V55.8zm3.62-14.64c-.7 0-1.39.16-2.06.48-.66.32-1.18.72-1.56 1.2v6.216c.99.656 2.11.984 3.36.984 1.28 0 2.32-.424 3.12-1.272.8-.848 1.2-1.936 1.2-3.264 0-1.328-.36-2.384-1.08-3.168-.72-.784-1.71-1.176-2.98-1.176zm8.76.84l-.34-1.032a6.468 6.468 0 0 1 3.43-.984c1.41 0 2.43.352 3.05 1.056.64.704.96 1.792.96 3.264V51h-1.25v-1.656c-.88 1.2-2.11 1.8-3.69 1.8-1.01 0-1.82-.288-2.43-.864-.61-.592-.91-1.376-.91-2.352 0-1.056.38-1.88 1.15-2.472.75-.592 1.74-.888 2.95-.888 1.22 0 2.2.272 2.93.816 0-1.12-.08-1.976-.24-2.568-.13-.576-.39-.984-.79-1.224-.38-.24-.98-.384-1.8-.432-.98 0-1.98.28-3.02.84zm2.54 7.968c1.34 0 2.45-.568 3.31-1.704v-1.8c-.78-.576-1.72-.864-2.81-.864-.81 0-1.5.2-2.06.6-.56.4-.84.952-.84 1.656 0 .64.22 1.152.67 1.536.45.384 1.03.576 1.73.576zM1205.84 42l-7.2 9h-1.24V40.2h1.24v9l7.2-9h1.25V51h-1.25v-9zm-6.79-7.416h1.13c0 .592.21 1.096.62 1.512.42.4.96.6 1.61.6.63 0 1.14-.2 1.54-.6.4-.416.6-.92.6-1.512h1.13c0 .88-.31 1.616-.92 2.208-.6.576-1.39.864-2.35.864-1.02 0-1.84-.28-2.45-.84-.6-.576-.91-1.32-.91-2.232zM1210.87 51V40.2c.53 0 1.04-.008 1.54-.024a85.55 85.55 0 0 1 1.94-.048c2.98 0 4.47.928 4.47 2.784 0 .624-.2 1.168-.6 1.632-.39.448-.92.728-1.59.84v.048c1.73.256 2.59 1.12 2.59 2.592 0 2.032-1.6 3.048-4.82 3.048-.21 0-.84-.016-1.9-.048a53.39 53.39 0 0 0-1.63-.024zm3.84-4.968h-2.59v3.816c1.25.032 2.06.048 2.42.048 2.24 0 3.36-.664 3.36-1.992 0-1.248-1.06-1.872-3.19-1.872zm-.21-4.728c-.53 0-1.32.016-2.38.048V45h2.86c.78 0 1.4-.168 1.84-.504.45-.352.68-.816.68-1.392 0-1.2-1-1.8-3-1.8zm7.47 8.904c0-.256.09-.464.27-.624.19-.176.43-.264.72-.264.4 0 .73.192 1 .576.28.384.41.88.41 1.488 0 .768-.21 1.432-.65 1.992-.43.56-.99.944-1.68 1.152l-.33-.624c.41-.144.77-.384 1.05-.72.31-.32.49-.712.56-1.176.06-.56-.02-.976-.24-1.248-.07.16-.21.24-.44.24-.17 0-.33-.072-.48-.216a.94.94 0 0 1-.19-.576zM953.232 86.216c-.736 0-1.552-.136-2.448-.408-.848-.256-1.448-.6-1.8-1.032l.648-.96c.416.384.936.688 1.56.912a5.97 5.97 0 0 0 1.848.312c1.008 0 1.816-.2 2.424-.6.608-.4.912-.936.912-1.608 0-.56-.224-1-.672-1.32-.448-.32-1.056-.48-1.824-.48h-1.824V80h1.704c.608 0 1.128-.192 1.56-.576.432-.384.648-.848.648-1.392 0-.608-.24-1.072-.72-1.392-.48-.32-1.152-.48-2.016-.48-1.264 0-2.392.4-3.384 1.2l-.504-.96c.912-.944 2.264-1.416 4.056-1.416 1.232 0 2.184.256 2.856.768.688.496 1.032 1.184 1.032 2.064 0 1.264-.648 2.128-1.944 2.592v.048c.736.064 1.312.336 1.728.816.416.464.624 1.04.624 1.728 0 .992-.408 1.776-1.224 2.352-.816.576-1.896.864-3.24.864zM961.224 77l-.336-1.032c1.072-.656 2.216-.984 3.432-.984 1.408 0 2.424.352 3.048 1.056.64.704.96 1.792.96 3.264V86h-1.248v-1.656c-.88 1.2-2.112 1.8-3.696 1.8-1.008 0-1.816-.288-2.424-.864-.608-.592-.912-1.376-.912-2.352 0-1.056.384-1.88 1.152-2.472.752-.592 1.736-.888 2.952-.888s2.192.272 2.928.816c0-1.12-.08-1.976-.24-2.568-.128-.576-.392-.984-.792-1.224-.384-.24-.984-.384-1.8-.432-.976 0-1.984.28-3.024.84zm2.544 7.968c1.344 0 2.448-.568 3.312-1.704v-1.8c-.784-.576-1.72-.864-2.808-.864-.816 0-1.504.2-2.064.6-.56.4-.84.952-.84 1.656 0 .64.224 1.152.672 1.536.448.384 1.024.576 1.728.576zm15.336-9.768h1.608l-5.328 5.16 5.76 5.64h-1.68l-5.592-5.568 5.232-5.232zM973.152 86h-1.248V75.2h1.248V86zm10.713-9l-.336-1.032c1.072-.656 2.216-.984 3.432-.984 1.408 0 2.424.352 3.048 1.056.64.704.96 1.792.96 3.264V86h-1.248v-1.656c-.88 1.2-2.112 1.8-3.696 1.8-1.008 0-1.816-.288-2.424-.864-.608-.592-.912-1.376-.912-2.352 0-1.056.384-1.88 1.152-2.472.752-.592 1.736-.888 2.952-.888s2.192.272 2.928.816c0-1.12-.08-1.976-.24-2.568-.128-.576-.392-.984-.792-1.224-.384-.24-.984-.384-1.8-.432-.976 0-1.984.28-3.024.84zm2.544 7.968c1.344 0 2.448-.568 3.312-1.704v-1.8c-.784-.576-1.72-.864-2.808-.864-.816 0-1.504.2-2.064.6-.56.4-.84.952-.84 1.656 0 .64.224 1.152.672 1.536.448.384 1.024.576 1.728.576zm11.471 1.248c-.736 0-1.552-.136-2.448-.408-.848-.256-1.448-.6-1.8-1.032l.648-.96c.416.384.936.688 1.56.912a5.97 5.97 0 0 0 1.848.312c1.008 0 1.816-.2 2.422-.6.61-.4.91-.936.91-1.608 0-.56-.22-1-.67-1.32-.446-.32-1.054-.48-1.822-.48h-1.824V80h1.704c.608 0 1.128-.192 1.56-.576.432-.384.652-.848.652-1.392 0-.608-.24-1.072-.724-1.392-.48-.32-1.152-.48-2.016-.48-1.264 0-2.392.4-3.384 1.2l-.504-.96c.912-.944 2.264-1.416 4.056-1.416 1.232 0 2.182.256 2.852.768.69.496 1.04 1.184 1.04 2.064 0 1.264-.65 2.128-1.948 2.592v.048c.738.064 1.308.336 1.728.816.42.464.62 1.04.62 1.728 0 .992-.4 1.776-1.22 2.352-.82.576-1.896.864-3.24.864zm7.99-9.216l-.33-1.032c1.07-.656 2.21-.984 3.43-.984 1.41 0 2.42.352 3.05 1.056.64.704.96 1.792.96 3.264V86h-1.25v-1.656c-.88 1.2-2.11 1.8-3.7 1.8-1.01 0-1.81-.288-2.42-.864-.61-.592-.91-1.376-.91-2.352 0-1.056.38-1.88 1.15-2.472.75-.592 1.73-.888 2.95-.888 1.22 0 2.19.272 2.93.816 0-1.12-.08-1.976-.24-2.568-.13-.576-.39-.984-.79-1.224-.39-.24-.99-.384-1.8-.432-.98 0-1.99.28-3.03.84zm2.55 7.968c1.34 0 2.44-.568 3.31-1.704v-1.8c-.79-.576-1.72-.864-2.81-.864-.82 0-1.5.2-2.06.6-.56.4-.84.952-.84 1.656 0 .64.22 1.152.67 1.536.45.384 1.02.576 1.73.576zm10.84-8.52h-4.29V75.2h9.84v1.248h-4.3V86h-1.25v-9.552zM1030.17 86h-3.16V75.2h1.24v3.624h2.09c2.85 0 4.27 1.184 4.27 3.552 0 1.12-.36 2.008-1.1 2.664-.72.64-1.83.96-3.34.96zm-.04-6h-1.88v4.824h1.85c1.12 0 1.93-.2 2.43-.6.51-.4.76-1.008.76-1.824 0-1.6-1.05-2.4-3.16-2.4zm13.34-3l-.34-1.032a6.468 6.468 0 0 1 3.43-.984c1.41 0 2.43.352 3.05 1.056.64.704.96 1.792.96 3.264V86h-1.25v-1.656c-.88 1.2-2.11 1.8-3.69 1.8-1.01 0-1.82-.288-2.43-.864-.61-.592-.91-1.376-.91-2.352 0-1.056.38-1.88 1.15-2.472.75-.592 1.74-.888 2.95-.888 1.22 0 2.2.272 2.93.816 0-1.12-.08-1.976-.24-2.568-.13-.576-.39-.984-.79-1.224-.38-.24-.98-.384-1.8-.432-.98 0-1.98.28-3.02.84zm2.54 7.968c1.34 0 2.45-.568 3.31-1.704v-1.8c-.78-.576-1.72-.864-2.81-.864-.81 0-1.5.2-2.06.6-.56.4-.84.952-.84 1.656 0 .64.22 1.152.67 1.536.45.384 1.03.576 1.73.576zm8.14 1.032V75.2c.52 0 1.04-.008 1.53-.024 1.03-.032 1.67-.048 1.95-.048 2.97 0 4.46.928 4.46 2.784 0 .624-.2 1.168-.6 1.632-.38.448-.91.728-1.58.84v.048c1.72.256 2.59 1.12 2.59 2.592 0 2.032-1.61 3.048-4.83 3.048-.2 0-.84-.016-1.89-.048-.53-.016-1.07-.024-1.63-.024zm3.84-4.968h-2.6v3.816c1.25.032 2.06.048 2.43.048 2.24 0 3.36-.664 3.36-1.992 0-1.248-1.07-1.872-3.19-1.872zm-.22-4.728c-.53 0-1.32.016-2.38.048V80h2.86c.78 0 1.4-.168 1.85-.504.45-.352.67-.816.67-1.392 0-1.2-1-1.8-3-1.8zm10.64.144h-4.29V75.2h9.84v1.248h-4.3V86h-1.25v-9.552zm12.26 9.768c-1.66 0-3.02-.528-4.08-1.584-1.05-1.056-1.58-2.4-1.58-4.032 0-1.632.53-2.976 1.58-4.032 1.06-1.056 2.42-1.584 4.08-1.584 1.67 0 3.03.528 4.08 1.584 1.06 1.056 1.59 2.4 1.59 4.032 0 1.632-.53 2.976-1.59 4.032-1.05 1.056-2.41 1.584-4.08 1.584zm0-1.176c1.3 0 2.34-.408 3.12-1.224.82-.832 1.23-1.904 1.23-3.216 0-1.296-.41-2.36-1.23-3.192-.81-.832-1.85-1.248-3.12-1.248-1.24 0-2.28.416-3.12 1.248-.81.832-1.22 1.896-1.22 3.192 0 1.296.41 2.36 1.22 3.192.82.832 1.86 1.248 3.12 1.248zm8.27.168c0-.256.09-.464.26-.624.2-.176.44-.264.72-.264.4 0 .74.192 1.01.576.27.384.41.88.41 1.488 0 .768-.22 1.432-.65 1.992-.43.56-.99.944-1.68 1.152l-.33-.624a2.43 2.43 0 0 0 1.05-.72c.31-.32.49-.712.55-1.176.07-.56-.01-.976-.24-1.248-.06.16-.2.24-.43.24-.17 0-.33-.072-.48-.216a.88.88 0 0 1-.19-.576zm14.63 1.008c-1.66 0-3.02-.528-4.08-1.584-1.05-1.056-1.58-2.4-1.58-4.032 0-1.632.53-2.976 1.58-4.032 1.06-1.056 2.42-1.584 4.08-1.584 1.67 0 3.03.528 4.08 1.584 1.06 1.056 1.59 2.4 1.59 4.032 0 1.632-.53 2.976-1.59 4.032-1.05 1.056-2.41 1.584-4.08 1.584zm0-1.176c1.3 0 2.34-.408 3.12-1.224.82-.832 1.23-1.904 1.23-3.216 0-1.296-.41-2.36-1.23-3.192-.81-.832-1.85-1.248-3.12-1.248-1.24 0-2.28.416-3.12 1.248-.81.832-1.22 1.896-1.22 3.192 0 1.296.41 2.36 1.22 3.192.82.832 1.86 1.248 3.12 1.248zm17.27-16.08l.69.936c-.36.528-.81.888-1.34 1.08-.66.192-1.35.344-2.09.456-.83.112-1.58.32-2.25.624-1.84.784-2.88 2.832-3.1 6.144h.05c.37-.88.98-1.584 1.85-2.112.86-.544 1.8-.816 2.8-.816 1.57 0 2.82.496 3.75 1.488.93.976 1.39 2.288 1.39 3.936 0 1.52-.52 2.824-1.56 3.912-1.02 1.072-2.33 1.608-3.91 1.608-1.7 0-3.07-.592-4.11-1.776-1-1.184-1.51-2.808-1.51-4.872 0-4.736 1.32-7.64 3.96-8.712.67-.272 1.42-.472 2.23-.6.96-.16 1.65-.312 2.07-.456.41-.16.77-.44 1.08-.84zm-8.02 10.824c0 1.616.39 2.896 1.18 3.84.78.944 1.81 1.416 3.07 1.416 1.22 0 2.22-.416 3-1.248.8-.848 1.2-1.864 1.2-3.048 0-1.296-.37-2.336-1.1-3.12-.74-.784-1.74-1.176-3-1.176-1.14 0-2.11.336-2.91 1.008-.77.672-1.25 1.448-1.44 2.328zm14.03 11.016h-1.24V75.2h1.24v1.44c.44-.48 1.01-.872 1.73-1.176.74-.32 1.48-.48 2.23-.48 1.54 0 2.76.504 3.68 1.512.91 1.008 1.36 2.32 1.36 3.936 0 1.68-.51 3.064-1.53 4.152-1.04 1.088-2.38 1.632-4.01 1.632-1.46 0-2.61-.304-3.46-.912V90.8zm3.63-14.64c-.71 0-1.39.16-2.07.48-.65.32-1.17.72-1.56 1.2v6.216c1 .656 2.12.984 3.36.984 1.28 0 2.32-.424 3.12-1.272.8-.848 1.2-1.936 1.2-3.264 0-1.328-.36-2.384-1.08-3.168-.72-.784-1.71-1.176-2.97-1.176zm8.75.84l-.33-1.032c1.07-.656 2.21-.984 3.43-.984 1.41 0 2.42.352 3.05 1.056.64.704.96 1.792.96 3.264V86h-1.25v-1.656c-.88 1.2-2.11 1.8-3.7 1.8-1.01 0-1.81-.288-2.42-.864-.61-.592-.91-1.376-.91-2.352 0-1.056.38-1.88 1.15-2.472.75-.592 1.73-.888 2.95-.888 1.22 0 2.19.272 2.93.816 0-1.12-.08-1.976-.24-2.568-.13-.576-.39-.984-.79-1.224-.39-.24-.99-.384-1.8-.432-.98 0-1.99.28-3.03.84zm2.55 7.968c1.34 0 2.44-.568 3.31-1.704v-1.8c-.79-.576-1.72-.864-2.81-.864-.82 0-1.5.2-2.06.6-.56.4-.84.952-.84 1.656 0 .64.22 1.152.67 1.536.45.384 1.02.576 1.73.576zm10.84-8.52h-4.29V75.2h9.84v1.248h-4.3V86h-1.25v-9.552zM1169.87 86h-1.25v-4.896h-7.01V86h-1.25V75.2h1.25v4.728h7.01V75.2h1.25V86zm4.12-9l-.34-1.032c1.08-.656 2.22-.984 3.44-.984 1.4 0 2.42.352 3.04 1.056.64.704.96 1.792.96 3.264V86h-1.24v-1.656c-.88 1.2-2.12 1.8-3.7 1.8-1.01 0-1.82-.288-2.42-.864-.61-.592-.92-1.376-.92-2.352 0-1.056.39-1.88 1.16-2.472.75-.592 1.73-.888 2.95-.888 1.21 0 2.19.272 2.93.816 0-1.12-.08-1.976-.24-2.568-.13-.576-.4-.984-.8-1.224-.38-.24-.98-.384-1.8-.432-.97 0-1.98.28-3.02.84zm2.54 7.968c1.35 0 2.45-.568 3.32-1.704v-1.8c-.79-.576-1.72-.864-2.81-.864-.82 0-1.51.2-2.07.6-.56.4-.84.952-.84 1.656 0 .64.23 1.152.68 1.536.44.384 1.02.576 1.72.576zm12.58-9.768h3.22V86h-1.25v-4.032h-2.69l-3.1 4.032h-1.53l3.41-4.32a3.088 3.088 0 0 1-1.85-1.008c-.5-.576-.75-1.264-.75-2.064 0-1.04.38-1.864 1.13-2.472.75-.624 1.89-.936 3.41-.936zm-3.22 3.432c0 .64.25 1.16.75 1.56.49.4 1.02.6 1.58.6h2.86v-4.416h-2.19c-.99 0-1.74.208-2.25.624-.5.4-.75.944-.75 1.632zm24.27 4.92l.62.912c-.43.56-1.02.992-1.75 1.296a5.94 5.94 0 0 1-2.33.456c-1.68 0-3.06-.512-4.13-1.536-1.05-1.024-1.58-2.384-1.58-4.08 0-1.584.51-2.912 1.53-3.984 1.04-1.088 2.32-1.632 3.84-1.632 1.86 0 3.26.448 4.2 1.344l-.6 1.008c-.84-.784-1.98-1.176-3.4-1.176-1.16 0-2.16.424-3 1.272-.84.832-1.25 1.888-1.25 3.168 0 1.344.42 2.424 1.27 3.24.85.8 1.92 1.2 3.22 1.2 1.39 0 2.51-.496 3.36-1.488zm3.36 2.448V75.2c.53 0 1.04-.008 1.54-.024a85.55 85.55 0 0 1 1.94-.048c2.98 0 4.47.928 4.47 2.784 0 .624-.2 1.168-.6 1.632-.39.448-.92.728-1.59.84v.048c1.73.256 2.59 1.12 2.59 2.592 0 2.032-1.6 3.048-4.82 3.048-.21 0-.84-.016-1.9-.048a53.39 53.39 0 0 0-1.63-.024zm3.84-4.968h-2.59v3.816c1.25.032 2.06.048 2.42.048 2.24 0 3.36-.664 3.36-1.992 0-1.248-1.06-1.872-3.19-1.872zm-.21-4.728c-.53 0-1.32.016-2.38.048V80h2.85c.79 0 1.41-.168 1.85-.504.45-.352.68-.816.68-1.392 0-1.2-1-1.8-3-1.8zm12.37-1.104h3.21V86h-1.25v-4.032h-2.68L1225.7 86h-1.54l3.41-4.32c-.72-.112-1.33-.448-1.85-1.008-.49-.576-.74-1.264-.74-2.064 0-1.04.38-1.864 1.13-2.472.75-.624 1.89-.936 3.41-.936zm-3.22 3.432c0 .64.25 1.16.74 1.56.5.4 1.03.6 1.59.6h2.85v-4.416h-2.18c-.99 0-1.74.208-2.26.624-.49.4-.74.944-.74 1.632zm13.55 7.584c-.74 0-1.55-.136-2.45-.408-.85-.256-1.45-.6-1.8-1.032l.65-.96c.42.384.94.688 1.56.912.64.208 1.26.312 1.85.312 1.01 0 1.81-.2 2.42-.6.61-.4.91-.936.91-1.608 0-.56-.22-1-.67-1.32-.45-.32-1.05-.48-1.82-.48h-1.83V80h1.71c.61 0 1.13-.192 1.56-.576.43-.384.65-.848.65-1.392 0-.608-.24-1.072-.72-1.392-.48-.32-1.16-.48-2.02-.48-1.26 0-2.39.4-3.38 1.2l-.51-.96c.91-.944 2.27-1.416 4.06-1.416 1.23 0 2.18.256 2.85.768.69.496 1.04 1.184 1.04 2.064 0 1.264-.65 2.128-1.95 2.592v.048c.74.064 1.31.336 1.73.816.42.464.62 1.04.62 1.728 0 .992-.4 1.776-1.22 2.352-.82.576-1.9.864-3.24.864zm10.82-.216h-3.16V75.2h1.24v3.624h2.09c2.85 0 4.27 1.184 4.27 3.552 0 1.12-.36 2.008-1.1 2.664-.72.64-1.83.96-3.34.96zm-.04-6h-1.88v4.824h1.85c1.12 0 1.93-.2 2.43-.6.51-.4.76-1.008.76-1.824 0-1.6-1.05-2.4-3.16-2.4zm6.27 10.944l-.81-.696c1.44-1.264 2.53-2.728 3.28-4.392.76-1.68 1.13-3.432 1.13-5.256 0-1.872-.35-3.592-1.05-5.16-.71-1.568-1.83-3.064-3.36-4.488l.79-.696c3.25 2.928 4.87 6.376 4.87 10.344 0 4.112-1.62 7.56-4.85 10.344z" fill="#141414"/><path d="M384 45h54a8 8 0 0 1 8 8v135" stroke="#E4002B" stroke-width="2"/><path d="M700 53h1-1zm8-8v-1 1zm169.207.707a1 1 0 0 0 0-1.414l-6.364-6.364a1 1 0 1 0-1.414 1.414L875.086 45l-5.657 5.657a1 1 0 1 0 1.414 1.414l6.364-6.364zM701 133.5V53h-2v80.5h2zm7-87.5h168.5v-2H708v2zm-7 7a7 7 0 0 1 7-7v-2a9 9 0 0 0-9 9h2z" fill="#E4002B"/></svg>