<svg width="1569" height="421" viewBox="0 0 1569 421" fill="none" xmlns="http://www.w3.org/2000/svg"><path d="M1103.21 207.707a1 1 0 0 0 0-1.414l-6.37-6.364a.994.994 0 0 0-1.41 0 1 1 0 0 0 0 1.414l5.66 5.657-5.66 5.657a1 1 0 0 0 0 1.414.994.994 0 0 0 1.41 0l6.37-6.364zm-84.71.293h84v-2h-84v2zM1287 41v1-1zm7.29 106.707c.39.39 1.03.39 1.42 0l6.36-6.364a1 1 0 0 0 0-1.414.994.994 0 0 0-1.41 0l-5.66 5.657-5.66-5.657a.994.994 0 0 0-1.41 0 1 1 0 0 0 0 1.414l6.36 6.364zM1018.5 42H1287v-2h-268.5v2zm275.5 7v98h2V49h-2zm-7-7c3.87 0 7 3.134 7 7h2a9 9 0 0 0-9-9v2zM752.707 99.293a1 1 0 0 0-1.414 0l-6.364 6.364a.999.999 0 1 0 1.414 1.414l5.657-5.657 5.657 5.657a.999.999 0 1 0 1.414-1.414l-6.364-6.364zM753 131v-31h-2v31h2zm-2.293 152.293a.999.999 0 0 0-1.414 0l-6.364 6.364a.999.999 0 1 0 1.414 1.414l5.657-5.657 5.657 5.657a.999.999 0 1 0 1.414-1.414l-6.364-6.364zM751 315v-31h-2v31h2zM499.207 159.707a.999.999 0 0 0 0-1.414l-6.364-6.364a.999.999 0 1 0-1.414 1.414l5.657 5.657-5.657 5.657a.999.999 0 1 0 1.414 1.414l6.364-6.364zM385 160h113.5v-2H385v2z" fill="#E4002B"/><rect x="540" y="145" width="449" height="124" rx="8" fill="#F6F4F2"/><path d="M590.88 196h-.216v-16.8h.264c.688 0 1.328-.008 1.92-.024 1.184-.032 1.888-.048 2.112-.048 1.616 0 3.04.224 4.272.672 1.248.432 2.24 1.04 2.976 1.824a7.351 7.351 0 0 1 1.632 2.616c.368.96.552 2 .552 3.12 0 2.528-.84 4.608-2.52 6.24-1.664 1.632-4.032 2.448-7.104 2.448-.688 0-1.32-.008-1.896-.024a72.694 72.694 0 0 0-1.992-.024zm4.032-15.624c-.352 0-.872.016-1.56.048-.672.016-1.128.024-1.368.024v14.304c.528 0 1.024.008 1.488.024.464 0 .8.008 1.008.024h.336c2.608 0 4.624-.688 6.048-2.064 1.424-1.392 2.136-3.184 2.136-5.376 0-2.064-.68-3.744-2.04-5.04-1.376-1.296-3.392-1.944-6.048-1.944zm17.458 15.84c-1.664 0-3.024-.528-4.08-1.584s-1.584-2.4-1.584-4.032c0-1.632.528-2.976 1.584-4.032s2.416-1.584 4.08-1.584c1.664 0 3.024.528 4.08 1.584s1.584 2.4 1.584 4.032c0 1.632-.528 2.976-1.584 4.032s-2.416 1.584-4.08 1.584zm0-1.176c1.296 0 2.336-.408 3.12-1.224.816-.832 1.224-1.904 1.224-3.216 0-1.296-.408-2.36-1.224-3.192-.816-.832-1.856-1.248-3.12-1.248-1.248 0-2.288.416-3.12 1.248-.816.832-1.224 1.896-1.224 3.192 0 1.296.408 2.36 1.224 3.192.816.832 1.856 1.248 3.12 1.248zm8.481-3.144V182.2h1.248v3h4.344v1.176h-4.344v5.328c0 2.176.808 3.264 2.424 3.264.64 0 1.216-.192 1.728-.576l.408.984c-.656.512-1.464.768-2.424.768-2.256 0-3.384-1.416-3.384-4.248zm10.672-2.64V196h-1.32v-16.8c.656 0 1.336-.008 2.04-.024a90.874 90.874 0 0 1 2.064-.024c1.12 0 2.08.144 2.88.432.816.288 1.44.68 1.872 1.176.432.496.744 1.032.936 1.608.192.56.288 1.176.288 1.848 0 1.456-.504 2.672-1.512 3.648-1.024.992-2.512 1.488-4.464 1.488-1.104 0-2.032-.032-2.784-.096zm2.904-8.856c-.528 0-1.496.016-2.904.048v7.536c1.152.08 2.064.12 2.736.12 1.472 0 2.608-.352 3.408-1.056.816-.704 1.224-1.656 1.224-2.856 0-1.184-.376-2.112-1.128-2.784-.736-.672-1.848-1.008-3.336-1.008zm9.047 12.816V179.2h1.248v13.344c0 .848.12 1.464.36 1.848.24.384.64.576 1.2.576.544 0 1.048-.176 1.512-.528l.312.984c-.624.48-1.384.72-2.28.72-1.568 0-2.352-.976-2.352-2.928zm7.11-6.216l-.336-1.032c1.072-.656 2.216-.984 3.432-.984 1.408 0 2.424.352 3.048 1.056.64.704.96 1.792.96 3.264V196h-1.248v-1.656c-.88 1.2-2.112 1.8-3.696 1.8-1.008 0-1.816-.288-2.424-.864-.608-.592-.912-1.376-.912-2.352 0-1.056.384-1.88 1.152-2.472.752-.592 1.736-.888 2.952-.888s2.192.272 2.928.816c0-1.12-.08-1.976-.24-2.568-.128-.576-.392-.984-.792-1.224-.384-.24-.984-.384-1.8-.432-.976 0-1.984.28-3.024.84zm2.544 7.968c1.344 0 2.448-.568 3.312-1.704v-1.8c-.784-.576-1.72-.864-2.808-.864-.816 0-1.504.2-2.064.6-.56.4-.84.952-.84 1.656 0 .64.224 1.152.672 1.536.448.384 1.024.576 1.728.576zm9.383 1.032h-1.248v-10.8h1.248v1.512c.448-.496 1.024-.904 1.728-1.224a5.28 5.28 0 0 1 2.16-.48c1.504 0 2.632.392 3.384 1.176.752.784 1.128 2 1.128 3.648V196h-1.248v-5.928c0-2.592-1.184-3.888-3.552-3.888-.688 0-1.36.16-2.016.48-.656.304-1.184.696-1.584 1.176V196zm11.731-4.104V182.2h1.248v3h4.344v1.176h-4.344v5.328c0 2.176.808 3.264 2.424 3.264.64 0 1.216-.192 1.728-.576l.408.984c-.656.512-1.464.768-2.424.768-2.256 0-3.384-1.416-3.384-4.248zm21.432-6.696h1.608l-5.328 5.16 5.76 5.64h-1.68l-5.592-5.568 5.232-5.232zm-5.952 10.8h-1.248v-10.8h1.248V196zm10.713-9l-.336-1.032c1.072-.656 2.216-.984 3.432-.984 1.408 0 2.424.352 3.048 1.056.64.704.96 1.792.96 3.264V196h-1.248v-1.656c-.88 1.2-2.112 1.8-3.696 1.8-1.008 0-1.816-.288-2.424-.864-.608-.592-.912-1.376-.912-2.352 0-1.056.384-1.88 1.152-2.472.752-.592 1.736-.888 2.952-.888s2.192.272 2.928.816c0-1.12-.08-1.976-.24-2.568-.128-.576-.392-.984-.792-1.224-.384-.24-.984-.384-1.8-.432-.976 0-1.984.28-3.024.84zm2.544 7.968c1.344 0 2.448-.568 3.312-1.704v-1.8c-.784-.576-1.72-.864-2.808-.864-.816 0-1.504.2-2.064.6-.56.4-.84.952-.84 1.656 0 .64.224 1.152.672 1.536.448.384 1.024.576 1.728.576zm15.336-9.768h1.608l-5.328 5.16 5.76 5.64h-1.68l-5.592-5.568 5.232-5.232zm-5.952 10.8h-1.248v-10.8h1.248V196zm20.921.216c-1.664 0-3.024-.528-4.08-1.584s-1.584-2.4-1.584-4.032c0-1.632.528-2.976 1.584-4.032s2.416-1.584 4.08-1.584c1.664 0 3.024.528 4.08 1.584s1.584 2.4 1.584 4.032c0 1.632-.528 2.976-1.584 4.032s-2.416 1.584-4.08 1.584zm0-1.176c1.296 0 2.336-.408 3.12-1.224.816-.832 1.224-1.904 1.224-3.216 0-1.296-.408-2.36-1.224-3.192-.816-.832-1.856-1.248-3.12-1.248-1.248 0-2.288.416-3.12 1.248-.816.832-1.224 1.896-1.224 3.192 0 1.296.408 2.36 1.224 3.192.816.832 1.856 1.248 3.12 1.248zm17.121-1.488l.624.912c-.432.56-1.016.992-1.752 1.296a5.923 5.923 0 0 1-2.328.456c-1.68 0-3.056-.512-4.128-1.536-1.056-1.024-1.584-2.384-1.584-4.08 0-1.584.512-2.912 1.536-3.984 1.04-1.088 2.32-1.632 3.84-1.632 1.856 0 3.256.448 4.2 1.344l-.6 1.008c-.848-.784-1.984-1.176-3.408-1.176-1.152 0-2.152.424-3 1.272-.832.832-1.248 1.888-1.248 3.168 0 1.344.424 2.424 1.272 3.24.848.8 1.92 1.2 3.216 1.2 1.392 0 2.512-.496 3.36-1.488zm12.87 2.448h-1.248v-4.896h-7.008V196h-1.248v-10.8h1.248v4.728h7.008V185.2h1.248V196zm8.681.216c-1.664 0-3.024-.528-4.08-1.584s-1.584-2.4-1.584-4.032c0-1.632.528-2.976 1.584-4.032s2.416-1.584 4.08-1.584c1.664 0 3.024.528 4.08 1.584s1.584 2.4 1.584 4.032c0 1.632-.528 2.976-1.584 4.032s-2.416 1.584-4.08 1.584zm0-1.176c1.296 0 2.336-.408 3.12-1.224.816-.832 1.224-1.904 1.224-3.216 0-1.296-.408-2.36-1.224-3.192-.816-.832-1.856-1.248-3.12-1.248-1.248 0-2.288.416-3.12 1.248-.816.832-1.224 1.896-1.224 3.192 0 1.296.408 2.36 1.224 3.192.816.832 1.856 1.248 3.12 1.248zm8.721.96v-10.8c.528 0 1.04-.008 1.536-.024a85.964 85.964 0 0 1 1.944-.048c2.976 0 4.464.928 4.464 2.784 0 .624-.2 1.168-.6 1.632-.384.448-.912.728-1.584.84v.048c1.728.256 2.592 1.12 2.592 2.592 0 2.032-1.608 3.048-4.824 3.048-.208 0-.84-.016-1.896-.048a53.912 53.912 0 0 0-1.632-.024zm3.84-4.968h-2.592v3.816c1.248.032 2.056.048 2.424.048 2.24 0 3.36-.664 3.36-1.992 0-1.248-1.064-1.872-3.192-1.872zm-.216-4.728c-.528 0-1.32.016-2.376.048V190h2.856c.784 0 1.4-.168 1.848-.504.448-.352.672-.816.672-1.392 0-1.2-1-1.8-3-1.8zm8.267.696l-.336-1.032c1.072-.656 2.216-.984 3.432-.984 1.408 0 2.424.352 3.048 1.056.64.704.96 1.792.96 3.264V196h-1.248v-1.656c-.88 1.2-2.112 1.8-3.696 1.8-1.008 0-1.816-.288-2.424-.864-.608-.592-.912-1.376-.912-2.352 0-1.056.384-1.88 1.152-2.472.752-.592 1.736-.888 2.952-.888s2.192.272 2.928.816c0-1.12-.08-1.976-.24-2.568-.128-.576-.392-.984-.792-1.224-.384-.24-.984-.384-1.8-.432-.976 0-1.984.28-3.024.84zm2.544 7.968c1.344 0 2.448-.568 3.312-1.704v-1.8c-.784-.576-1.72-.864-2.808-.864-.816 0-1.504.2-2.064.6-.56.4-.84.952-.84 1.656 0 .64.224 1.152.672 1.536.448.384 1.024.576 1.728.576zm-205.696 38.768h-1.176v-3.912h1.344c.416-.528.784-1.384 1.104-2.568.336-1.184.552-2.52.648-4.008l.168-3.048h6.888v9.624h1.8v3.912h-1.176V231h-9.6v2.736zm3.264-12.36l-.144 2.352c-.128 1.472-.352 2.752-.672 3.84-.304 1.056-.624 1.808-.96 2.256h6.24v-8.448h-4.464zM611.361 231h-1.248v-9.552h-4.56l-.144 2.352c-.208 3.04-.712 5.056-1.512 6.048-.64.832-1.432 1.248-2.376 1.248l-.096-1.224c.416 0 .808-.192 1.176-.576.88-.816 1.416-2.728 1.608-5.736l.168-3.36h6.984V231zm8.241-10.8h3.216V231h-1.248v-4.032h-2.688L615.786 231h-1.536l3.408-4.32c-.72-.112-1.336-.448-1.848-1.008-.496-.576-.744-1.264-.744-2.064 0-1.04.376-1.864 1.128-2.472.752-.624 1.888-.936 3.408-.936zm-3.216 3.432c0 .64.248 1.16.744 1.56.496.4 1.024.6 1.584.6h2.856v-4.416h-2.184c-.992 0-1.744.208-2.256.624-.496.4-.744.944-.744 1.632zm24.406-9.672l.696.936c-.368.528-.816.888-1.344 1.08a16 16 0 0 1-2.088.456 8.055 8.055 0 0 0-2.256.624c-1.84.784-2.872 2.832-3.096 6.144h.048c.368-.88.984-1.584 1.848-2.112a5.172 5.172 0 0 1 2.808-.816c1.568 0 2.816.496 3.744 1.488.928.976 1.392 2.288 1.392 3.936 0 1.52-.52 2.824-1.56 3.912-1.024 1.072-2.328 1.608-3.912 1.608-1.696 0-3.064-.592-4.104-1.776-1.008-1.184-1.512-2.808-1.512-4.872 0-4.736 1.32-7.64 3.96-8.712a10.114 10.114 0 0 1 2.232-.6c.96-.16 1.648-.312 2.064-.456.416-.16.776-.44 1.08-.84zm-8.016 10.824c0 1.616.392 2.896 1.176 3.84.784.944 1.808 1.416 3.072 1.416 1.216 0 2.216-.416 3-1.248.8-.848 1.2-1.864 1.2-3.048 0-1.296-.368-2.336-1.104-3.12-.736-.784-1.736-1.176-3-1.176-1.136 0-2.104.336-2.904 1.008-.768.672-1.248 1.448-1.44 2.328zm20.248 1.224h-5.712v-1.032H653c-.112-1.2-.568-2.136-1.368-2.808-.784-.672-1.792-1.008-3.024-1.008-1.44 0-2.608.448-3.504 1.344l-.552-.936c.464-.48 1.064-.864 1.8-1.152a6.08 6.08 0 0 1 2.232-.432c1.696 0 3.064.512 4.104 1.536 1.072 1.024 1.608 2.384 1.608 4.08 0 1.6-.512 2.936-1.536 4.008s-2.304 1.608-3.84 1.608c-1.904 0-3.32-.44-4.248-1.32l.6-.936c.816.72 2 1.08 3.552 1.08 1.168 0 2.136-.368 2.904-1.104.784-.736 1.216-1.712 1.296-2.928zm11.525-5.808h1.608l-5.328 5.16 5.76 5.64h-1.68l-5.592-5.568 5.232-5.232zm-5.952 10.8h-1.248v-10.8h1.248V231zm18.382-2.28l.408.96c-.976 1.024-2.304 1.536-3.984 1.536-1.728 0-3.112-.512-4.152-1.536-1.056-1.024-1.584-2.384-1.584-4.08 0-1.632.48-2.976 1.44-4.032.976-1.056 2.32-1.584 4.032-1.584 1.392 0 2.56.448 3.504 1.344.928.88 1.392 2.056 1.392 3.528 0 .384-.024.72-.072 1.008h-8.904c.048 1.296.472 2.32 1.272 3.072.8.736 1.848 1.104 3.144 1.104 1.504 0 2.672-.44 3.504-1.32zm-3.96-7.56c-1.152 0-2.088.336-2.808 1.008-.704.672-1.112 1.56-1.224 2.664h7.776c-.016-1.136-.36-2.032-1.032-2.688-.672-.656-1.576-.984-2.712-.984zm17.506 9.84h-1.248v-4.896h-7.008V231h-1.248v-10.8h1.248v4.728h7.008V220.2h1.248V231zm3.305 2.736h-1.176v-3.912h1.344c.416-.528.784-1.384 1.104-2.568.336-1.184.552-2.52.648-4.008l.168-3.048h6.888v9.624h1.8v3.912h-1.176V231h-9.6v2.736zm3.264-12.36l-.144 2.352c-.128 1.472-.352 2.752-.672 3.84-.304 1.056-.624 1.808-.96 2.256h6.24v-8.448h-4.464zm10.161.624l-.336-1.032c1.072-.656 2.216-.984 3.432-.984 1.408 0 2.424.352 3.048 1.056.64.704.96 1.792.96 3.264V231h-1.248v-1.656c-.88 1.2-2.112 1.8-3.696 1.8-1.008 0-1.816-.288-2.424-.864-.608-.592-.912-1.376-.912-2.352 0-1.056.384-1.88 1.152-2.472.752-.592 1.736-.888 2.952-.888s2.192.272 2.928.816c0-1.12-.08-1.976-.24-2.568-.128-.576-.392-.984-.792-1.224-.384-.24-.984-.384-1.8-.432-.976 0-1.984.28-3.024.84zm2.544 7.968c1.344 0 2.448-.568 3.312-1.704v-1.8c-.784-.576-1.72-.864-2.808-.864-.816 0-1.504.2-2.064.6-.56.4-.84.952-.84 1.656 0 .64.224 1.152.672 1.536.448.384 1.024.576 1.728.576zm18.513 5.28l-.816.696c-3.232-2.784-4.848-6.232-4.848-10.344 0-3.968 1.624-7.416 4.872-10.344l.792.696c-1.536 1.424-2.656 2.92-3.36 4.488-.704 1.568-1.056 3.288-1.056 5.16 0 1.824.376 3.576 1.128 5.256.752 1.664 1.848 3.128 3.288 4.392zm3.992-10.992V231h-1.32v-16.8c.656 0 1.336-.008 2.04-.024a90.874 90.874 0 0 1 2.064-.024c1.12 0 2.08.144 2.88.432.816.288 1.44.68 1.872 1.176.432.496.744 1.032.936 1.608.192.56.288 1.176.288 1.848 0 1.456-.504 2.672-1.512 3.648-1.024.992-2.512 1.488-4.464 1.488-1.104 0-2.032-.032-2.784-.096zm2.904-8.856c-.528 0-1.496.016-2.904.048v7.536c1.152.08 2.064.12 2.736.12 1.472 0 2.608-.352 3.408-1.056.816-.704 1.224-1.656 1.224-2.856 0-1.184-.376-2.112-1.128-2.784-.736-.672-1.848-1.008-3.336-1.008zm22.943 15.6h-1.32v-7.944h-10.488V231h-1.32v-16.8h1.32v7.608h10.488V214.2h1.32V231zm6.638-6.744V231h-1.32v-16.8c.656 0 1.336-.008 2.04-.024a90.874 90.874 0 0 1 2.064-.024c1.12 0 2.08.144 2.88.432.816.288 1.44.68 1.872 1.176.432.496.744 1.032.936 1.608.192.56.288 1.176.288 1.848 0 1.456-.504 2.672-1.512 3.648-1.024.992-2.512 1.488-4.464 1.488-1.104 0-2.032-.032-2.784-.096zm2.904-8.856c-.528 0-1.496.016-2.904.048v7.536c1.152.08 2.064.12 2.736.12 1.472 0 2.608-.352 3.408-1.056.816-.704 1.224-1.656 1.224-2.856 0-1.184-.376-2.112-1.128-2.784-.736-.672-1.848-1.008-3.336-1.008zm13.607 7.512h-4.752v-1.104h4.752v-4.776h1.176v4.776h4.776v1.104h-4.776v4.824H781.3v-4.824zM792.961 231h-1.32v-16.8h1.344l6.768 9.216 6.504-9.216h1.272V231h-1.32v-14.736l-6.456 9.072h-.216l-6.576-9V231zm27.019-10.8h1.416l-4.368 10.8c-.784 1.904-1.464 3.168-2.04 3.792-.576.672-1.248 1.008-2.016 1.008-.592 0-1.208-.184-1.848-.552l.408-.96c.496.24.92.36 1.272.36.544 0 1.032-.24 1.464-.72.432-.464.88-1.248 1.344-2.352l.24-.576-5.328-10.8h1.488l3.696 7.632.768 1.68c.016-.064.216-.64.6-1.728l2.904-7.584zm12.178 6.624c0-.736-.216-1.368-.648-1.896a4.133 4.133 0 0 0-1.608-1.2l-2.088-.888a53.319 53.319 0 0 1-2.088-.984 4.253 4.253 0 0 1-1.608-1.416c-.432-.64-.648-1.392-.648-2.256 0-1.216.44-2.216 1.32-3 .896-.8 2.096-1.2 3.6-1.2 1.968 0 3.472.568 4.512 1.704l-.72.984c-.96-.96-2.208-1.44-3.744-1.44-1.104 0-1.976.272-2.616.816-.64.528-.96 1.24-.96 2.136 0 .72.216 1.344.648 1.872.432.512.968.896 1.608 1.152.64.256 1.336.544 2.088.864.752.304 1.448.616 2.088.936.64.32 1.176.808 1.608 1.464.432.64.648 1.416.648 2.328 0 1.312-.512 2.376-1.536 3.192-1.024.816-2.296 1.224-3.816 1.224a7.733 7.733 0 0 1-3.072-.648c-.992-.464-1.688-1.056-2.088-1.776l.792-.912c.48.624 1.12 1.128 1.92 1.512.8.384 1.608.576 2.424.576 1.088 0 2.024-.28 2.808-.84.784-.544 1.176-1.312 1.176-2.304zm3.982-4.224c0-2.448.8-4.496 2.4-6.144 1.6-1.648 3.608-2.472 6.024-2.472 2.4 0 4.4.816 6 2.448 1.616 1.616 2.424 3.672 2.424 6.168 0 2.624-.896 4.76-2.688 6.408l1.68 1.992h-1.584l-1.032-1.224c-1.424.96-3.024 1.44-4.8 1.44-2.4 0-4.408-.808-6.024-2.424-1.6-1.616-2.4-3.68-2.4-6.192zm1.392 0c0 2.08.672 3.832 2.016 5.256 1.36 1.408 3.032 2.112 5.016 2.112 1.472 0 2.792-.392 3.96-1.176l-1.488-1.8.888-.792 1.536 1.824c1.424-1.424 2.136-3.232 2.136-5.424 0-2.128-.68-3.88-2.04-5.256-1.344-1.408-3.008-2.112-4.992-2.112-2 0-3.672.704-5.016 2.112-1.344 1.392-2.016 3.144-2.016 5.256zm29.581 8.4h-10.176v-16.8h1.32v15.552h8.856V231zm1.219 4.944l-.816-.696c1.44-1.264 2.536-2.728 3.288-4.392a12.727 12.727 0 0 0 1.128-5.256c0-1.872-.352-3.592-1.056-5.16-.704-1.568-1.824-3.064-3.36-4.488l.792-.696c3.248 2.928 4.872 6.376 4.872 10.344 0 4.112-1.616 7.56-4.848 10.344z" fill="#141414"/><rect y="5" width="344" height="89" rx="8" fill="#F6F4F2"/><path d="M69.652 41.36L58.348 56h-1.176V39.2h1.32v14.64L69.796 39.2h1.176V56h-1.32V41.36zM76.777 56h-1.248V45.2h1.176l4.488 6.024 4.32-6.024h1.128V56h-1.248v-8.904l-4.2 5.832h-.072l-4.344-5.832V56zm23.066 0h-1.249v-9.624h-6.887V56h-1.248V45.2h9.383V56zm8.683.216c-1.664 0-3.024-.528-4.08-1.584s-1.584-2.4-1.584-4.032c0-1.632.528-2.976 1.584-4.032s2.416-1.584 4.08-1.584c1.664 0 3.024.528 4.08 1.584s1.584 2.4 1.584 4.032c0 1.632-.528 2.976-1.584 4.032s-2.416 1.584-4.08 1.584zm0-1.176c1.296 0 2.336-.408 3.12-1.224.816-.832 1.224-1.904 1.224-3.216 0-1.296-.408-2.36-1.224-3.192-.816-.832-1.856-1.248-3.12-1.248-1.248 0-2.288.416-3.12 1.248-.816.832-1.224 1.896-1.224 3.192 0 1.296.408 2.36 1.224 3.192.816.832 1.856 1.248 3.12 1.248zm9.97 5.76h-1.248V45.2h1.248v1.44c.432-.48 1.008-.872 1.728-1.176.736-.32 1.48-.48 2.232-.48 1.536 0 2.76.504 3.672 1.512.912 1.008 1.368 2.32 1.368 3.936 0 1.68-.512 3.064-1.536 4.152-1.04 1.088-2.376 1.632-4.008 1.632-1.456 0-2.608-.304-3.456-.912V60.8zm3.624-14.64c-.704 0-1.392.16-2.064.48-.656.32-1.176.72-1.56 1.2v6.216c.992.656 2.112.984 3.36.984 1.28 0 2.32-.424 3.12-1.272.8-.848 1.2-1.936 1.2-3.264 0-1.328-.36-2.384-1.08-3.168-.72-.784-1.712-1.176-2.976-1.176zm10.707.288h-4.296V45.2h9.84v1.248h-4.296V56h-1.248v-9.552zm16.101 0h-4.296V45.2h9.84v1.248h-4.296V56h-1.248v-9.552zm12.262 9.768c-1.664 0-3.024-.528-4.08-1.584s-1.584-2.4-1.584-4.032c0-1.632.528-2.976 1.584-4.032s2.416-1.584 4.08-1.584c1.664 0 3.024.528 4.08 1.584s1.584 2.4 1.584 4.032c0 1.632-.528 2.976-1.584 4.032s-2.416 1.584-4.08 1.584zm0-1.176c1.296 0 2.336-.408 3.12-1.224.816-.832 1.224-1.904 1.224-3.216 0-1.296-.408-2.36-1.224-3.192-.816-.832-1.856-1.248-3.12-1.248-1.248 0-2.288.416-3.12 1.248-.816.832-1.224 1.896-1.224 3.192 0 1.296.408 2.36 1.224 3.192.816.832 1.856 1.248 3.12 1.248zm8.722.96V45.2c.528 0 1.04-.008 1.536-.024a85.964 85.964 0 0 1 1.944-.048c2.976 0 4.464.928 4.464 2.784 0 .624-.2 1.168-.6 1.632-.384.448-.912.728-1.584.84v.048c1.728.256 2.592 1.12 2.592 2.592 0 2.032-1.608 3.048-4.824 3.048-.208 0-.84-.016-1.896-.048a53.912 53.912 0 0 0-1.632-.024zm3.84-4.968h-2.592v3.816c1.248.032 2.056.048 2.424.048 2.24 0 3.36-.664 3.36-1.992 0-1.248-1.064-1.872-3.192-1.872zm-.216-4.728c-.528 0-1.32.016-2.376.048V50h2.856c.784 0 1.4-.168 1.848-.504.448-.352.672-.816.672-1.392 0-1.2-1-1.8-3-1.8zm8.266.696l-.336-1.032c1.072-.656 2.216-.984 3.432-.984 1.408 0 2.424.352 3.048 1.056.64.704.96 1.792.96 3.264V56h-1.248v-1.656c-.88 1.2-2.112 1.8-3.696 1.8-1.008 0-1.816-.288-2.424-.864-.608-.592-.912-1.376-.912-2.352 0-1.056.384-1.88 1.152-2.472.752-.592 1.736-.888 2.952-.888s2.192.272 2.928.816c0-1.12-.08-1.976-.24-2.568-.128-.576-.392-.984-.792-1.224-.384-.24-.984-.384-1.8-.432-.976 0-1.984.28-3.024.84zm2.544 7.968c1.344 0 2.448-.568 3.312-1.704v-1.8c-.784-.576-1.72-.864-2.808-.864-.816 0-1.504.2-2.064.6-.56.4-.84.952-.84 1.656 0 .64.224 1.152.672 1.536.448.384 1.024.576 1.728.576zm9.384 5.832h-1.248V45.2h1.248v1.44c.432-.48 1.008-.872 1.728-1.176.736-.32 1.48-.48 2.232-.48 1.536 0 2.76.504 3.672 1.512.912 1.008 1.368 2.32 1.368 3.936 0 1.68-.512 3.064-1.536 4.152-1.04 1.088-2.376 1.632-4.008 1.632-1.456 0-2.608-.304-3.456-.912V60.8zm3.624-14.64c-.704 0-1.392.16-2.064.48-.656.32-1.176.72-1.56 1.2v6.216c.992.656 2.112.984 3.36.984 1.28 0 2.32-.424 3.12-1.272.8-.848 1.2-1.936 1.2-3.264 0-1.328-.36-2.384-1.08-3.168-.72-.784-1.712-1.176-2.976-1.176zm13.313 10.056c-1.664 0-3.024-.528-4.08-1.584s-1.584-2.4-1.584-4.032c0-1.632.528-2.976 1.584-4.032s2.416-1.584 4.08-1.584c1.664 0 3.024.528 4.08 1.584s1.584 2.4 1.584 4.032c0 1.632-.528 2.976-1.584 4.032s-2.416 1.584-4.08 1.584zm0-1.176c1.296 0 2.336-.408 3.12-1.224.816-.832 1.224-1.904 1.224-3.216 0-1.296-.408-2.36-1.224-3.192-.816-.832-1.856-1.248-3.12-1.248-1.248 0-2.288.416-3.12 1.248-.816.832-1.224 1.896-1.224 3.192 0 1.296.408 2.36 1.224 3.192.816.832 1.856 1.248 3.12 1.248zm8.721.96V45.2c.528 0 1.04-.008 1.536-.024a85.964 85.964 0 0 1 1.944-.048c2.976 0 4.464.928 4.464 2.784 0 .624-.2 1.168-.6 1.632-.384.448-.912.728-1.584.84v.048c1.728.256 2.592 1.12 2.592 2.592 0 2.032-1.608 3.048-4.824 3.048-.208 0-.84-.016-1.896-.048a53.912 53.912 0 0 0-1.632-.024zm3.84-4.968h-2.592v3.816c1.248.032 2.056.048 2.424.048 2.24 0 3.36-.664 3.36-1.992 0-1.248-1.064-1.872-3.192-1.872zm-.216-4.728c-.528 0-1.32.016-2.376.048V50h2.856c.784 0 1.4-.168 1.848-.504.448-.352.672-.816.672-1.392 0-1.2-1-1.8-3-1.8zm22.027.696l-7.2 9h-1.248V45.2h1.248v9l7.2-9h1.248V56h-1.248v-9zm8.365 9.216c-.736 0-1.552-.136-2.448-.408-.848-.256-1.448-.6-1.8-1.032l.648-.96c.416.384.936.688 1.56.912a5.97 5.97 0 0 0 1.848.312c1.008 0 1.816-.2 2.424-.6.608-.4.912-.936.912-1.608 0-.56-.224-1-.672-1.32-.448-.32-1.056-.48-1.824-.48h-1.824V50h1.704c.608 0 1.128-.192 1.56-.576.432-.384.648-.848.648-1.392 0-.608-.24-1.072-.72-1.392-.48-.32-1.152-.48-2.016-.48-1.264 0-2.392.4-3.384 1.2l-.504-.96c.912-.944 2.264-1.416 4.056-1.416 1.232 0 2.184.256 2.856.768.688.496 1.032 1.184 1.032 2.064 0 1.264-.648 2.128-1.944 2.592v.048c.736.064 1.312.336 1.728.816.416.464.624 1.04.624 1.728 0 .992-.408 1.776-1.224 2.352-.816.576-1.896.864-3.24.864zm13.161-13.104l-.672-1.008 3.816-3.048h.864V56h-1.248V40.88l-2.76 2.232zm21.577 10.272l.528.984c-.576.576-1.336 1.032-2.28 1.368-.928.32-1.904.48-2.928.48-2.496 0-4.528-.784-6.096-2.352-1.552-1.552-2.328-3.64-2.328-6.264 0-2.48.752-4.528 2.256-6.144 1.504-1.648 3.496-2.472 5.976-2.472 2.128 0 3.824.528 5.088 1.584l-.624.984c-1.136-.88-2.616-1.32-4.44-1.32-2.048 0-3.704.696-4.968 2.088-1.264 1.36-1.896 3.12-1.896 5.28 0 2.192.656 3.968 1.968 5.328 1.312 1.36 3.032 2.04 5.16 2.04 1.76 0 3.288-.528 4.584-1.584zM391.074 28.9h1.098l-3.042 3.924L392.352 37H391.2l-2.772-3.582L385.656 37h-1.098l3.222-4.14-3.042-3.96h1.152l2.574 3.348 2.61-3.348zm15.068 2.79V37h-.936v-5.058c0-1.536-.684-2.304-2.052-2.304-1.116 0-1.944.45-2.484 1.35.024.12.036.312.036.576V37h-.936v-5.472c0-.588-.18-1.05-.54-1.386-.36-.336-.858-.504-1.494-.504-1.044 0-1.866.426-2.466 1.278V37h-.936v-8.1h.936v1.134c.312-.384.72-.69 1.224-.918a3.719 3.719 0 0 1 1.584-.36c.636 0 1.17.132 1.602.396.444.264.738.63.882 1.098a3.12 3.12 0 0 1 1.242-1.08 3.707 3.707 0 0 1 1.71-.414c1.752 0 2.628.978 2.628 2.934zm2.676 3.222V24.4h.936v10.008c0 .636.09 1.098.27 1.386.18.288.48.432.9.432.408 0 .786-.132 1.134-.396l.234.738c-.468.36-1.038.54-1.71.54-1.176 0-1.764-.732-1.764-2.196zM770.988 119h-.99v-12.6h1.008l5.076 6.912 4.878-6.912h.954V119h-.99v-11.052l-4.842 6.804h-.162l-4.932-6.75V119zm20.264-8.1h1.062l-3.276 8.1c-.588 1.428-1.098 2.376-1.53 2.844-.432.504-.936.756-1.512.756-.444 0-.906-.138-1.386-.414l.306-.72c.372.18.69.27.954.27.408 0 .774-.18 1.098-.54.324-.348.66-.936 1.008-1.764l.18-.432-3.996-8.1h1.116l2.772 5.724.576 1.26c.012-.048.162-.48.45-1.296l2.178-5.688zm9.134 4.968c0-.552-.162-1.026-.486-1.422a3.1 3.1 0 0 0-1.206-.9l-1.566-.666a39.989 39.989 0 0 1-1.566-.738 3.19 3.19 0 0 1-1.206-1.062c-.324-.48-.486-1.044-.486-1.692 0-.912.33-1.662.99-2.25.672-.6 1.572-.9 2.7-.9 1.476 0 2.604.426 3.384 1.278l-.54.738c-.72-.72-1.656-1.08-2.808-1.08-.828 0-1.482.204-1.962.612-.48.396-.72.93-.72 1.602 0 .54.162 1.008.486 1.404.324.384.726.672 1.206.864.48.192 1.002.408 1.566.648.564.228 1.086.462 1.566.702.48.24.882.606 1.206 1.098.324.48.486 1.062.486 1.746 0 .984-.384 1.782-1.152 2.394-.768.612-1.722.918-2.862.918a5.8 5.8 0 0 1-2.304-.486c-.744-.348-1.266-.792-1.566-1.332l.594-.684c.36.468.84.846 1.44 1.134.6.288 1.206.432 1.818.432.816 0 1.518-.21 2.106-.63.588-.408.882-.984.882-1.728zm2.986-3.168c0-1.836.6-3.372 1.8-4.608 1.2-1.236 2.706-1.854 4.518-1.854 1.8 0 3.3.612 4.5 1.836 1.212 1.212 1.818 2.754 1.818 4.626 0 1.968-.672 3.57-2.016 4.806l1.26 1.494h-1.188l-.774-.918c-1.068.72-2.268 1.08-3.6 1.08-1.8 0-3.306-.606-4.518-1.818-1.2-1.212-1.8-2.76-1.8-4.644zm1.044 0c0 1.56.504 2.874 1.512 3.942 1.02 1.056 2.274 1.584 3.762 1.584 1.104 0 2.094-.294 2.97-.882l-1.116-1.35.666-.594 1.152 1.368c1.068-1.068 1.602-2.424 1.602-4.068 0-1.596-.51-2.91-1.53-3.942-1.008-1.056-2.256-1.584-3.744-1.584-1.5 0-2.754.528-3.762 1.584-1.008 1.044-1.512 2.358-1.512 3.942zm22.187 6.3h-7.632v-12.6h.99v11.664h6.642V119zm5.268-4.446h-4.122v-.882h4.122v.882zm4.853-2.718h-3.222v-.936h7.38v.936h-3.222V119h-.936v-7.164zm6.057.414l-.252-.774a4.848 4.848 0 0 1 2.574-.738c1.056 0 1.818.264 2.286.792.48.528.72 1.344.72 2.448V119h-.936v-1.242c-.66.9-1.584 1.35-2.772 1.35-.756 0-1.362-.216-1.818-.648-.456-.444-.684-1.032-.684-1.764 0-.792.288-1.41.864-1.854.564-.444 1.302-.666 2.214-.666.912 0 1.644.204 2.196.612 0-.84-.06-1.482-.18-1.926-.096-.432-.294-.738-.594-.918-.288-.18-.738-.288-1.35-.324-.732 0-1.488.21-2.268.63zm1.908 5.976c1.008 0 1.836-.426 2.484-1.278v-1.35c-.588-.432-1.29-.648-2.106-.648-.612 0-1.128.15-1.548.45-.42.3-.63.714-.63 1.242 0 .48.168.864.504 1.152.336.288.768.432 1.296.432zm12.51-12.006l.522.702c-.276.396-.612.666-1.008.81a12 12 0 0 1-1.566.342 6.04 6.04 0 0 0-1.692.468c-1.38.588-2.154 2.124-2.322 4.608h.036c.276-.66.738-1.188 1.386-1.584a3.879 3.879 0 0 1 2.106-.612c1.176 0 2.112.372 2.808 1.116.696.732 1.044 1.716 1.044 2.952 0 1.14-.39 2.118-1.17 2.934-.768.804-1.746 1.206-2.934 1.206-1.272 0-2.298-.444-3.078-1.332-.756-.888-1.134-2.106-1.134-3.654 0-3.552.99-5.73 2.97-6.534a7.585 7.585 0 0 1 1.674-.45c.72-.12 1.236-.234 1.548-.342.312-.12.582-.33.81-.63zm-6.012 8.118c0 1.212.294 2.172.882 2.88.588.708 1.356 1.062 2.304 1.062.912 0 1.662-.312 2.25-.936.6-.636.9-1.398.9-2.286 0-.972-.276-1.752-.828-2.34-.552-.588-1.302-.882-2.25-.882-.852 0-1.578.252-2.178.756-.576.504-.936 1.086-1.08 1.746zM867.066 119h-.936v-7.164h-3.42l-.108 1.764c-.156 2.28-.534 3.792-1.134 4.536-.48.624-1.074.936-1.782.936l-.072-.918c.312 0 .606-.144.882-.432.66-.612 1.062-2.046 1.206-4.302l.126-2.52h5.238v8.1zm9.186-6.75l-5.4 6.75h-.936v-8.1h.936v6.75l5.4-6.75h.936v8.1h-.936v-6.75zm11.224 6.75h-7.452v-8.1h.936v7.218h5.112V110.9h.936v7.218h1.35v2.934h-.882V119zm4.834 0h-2.232v-8.1h.936v2.718h1.404c2.136 0 3.204.888 3.204 2.664 0 .84-.27 1.506-.81 1.998-.54.48-1.374.72-2.502.72zm-.054-4.5h-1.242v3.618h1.224c.852 0 1.464-.15 1.836-.45.372-.3.558-.756.558-1.368 0-1.2-.792-1.8-2.376-1.8zm6.156 4.5h-.936v-8.1h.936v8.1zm-121.69 182.164l.468.684c-.324.42-.762.744-1.314.972a4.442 4.442 0 0 1-1.746.342c-1.26 0-2.292-.384-3.096-1.152-.792-.768-1.188-1.788-1.188-3.06 0-1.188.384-2.184 1.152-2.988.78-.816 1.74-1.224 2.88-1.224 1.392 0 2.442.336 3.15 1.008l-.45.756c-.636-.588-1.488-.882-2.556-.882-.864 0-1.614.318-2.25.954-.624.624-.936 1.416-.936 2.376 0 1.008.318 1.818.954 2.43.636.6 1.44.9 2.412.9 1.044 0 1.884-.372 2.52-1.116zm6.718-.288c0-.372-.156-.672-.468-.9a3.454 3.454 0 0 0-1.116-.54c-.432-.132-.87-.276-1.314-.432a2.858 2.858 0 0 1-1.134-.774c-.3-.36-.45-.81-.45-1.35 0-.648.24-1.164.72-1.548.48-.396 1.11-.594 1.89-.594 1.116 0 1.962.3 2.538.9l-.396.702c-.552-.516-1.26-.774-2.124-.774-.48 0-.876.126-1.188.378-.3.24-.45.546-.45.918 0 .384.15.702.45.954.312.24.684.432 1.116.576.444.132.888.276 1.332.432.444.156.816.402 1.116.738.312.336.468.762.468 1.278 0 .732-.276 1.302-.828 1.71-.54.408-1.236.612-2.088.612-.528 0-1.08-.12-1.656-.36-.54-.228-.912-.498-1.116-.81l.522-.612c.228.276.57.504 1.026.684.468.18.912.27 1.332.27.528 0 .96-.126 1.296-.378.348-.264.522-.624.522-1.08zm9.216-5.976h.99l-3.654 8.208h-.648l-3.798-8.208h1.098l2.322 5.094c.336.756.582 1.35.738 1.782.204-.576.444-1.188.72-1.836l2.232-5.04zm-400.934-49.736l.468.684c-.324.42-.762.744-1.314.972a4.442 4.442 0 0 1-1.746.342c-1.26 0-2.292-.384-3.096-1.152-.792-.768-1.188-1.788-1.188-3.06 0-1.188.384-2.184 1.152-2.988.78-.816 1.74-1.224 2.88-1.224 1.392 0 2.442.336 3.15 1.008l-.45.756c-.636-.588-1.488-.882-2.556-.882-.864 0-1.614.318-2.25.954-.624.624-.936 1.416-.936 2.376 0 1.008.318 1.818.954 2.43.636.6 1.44.9 2.412.9 1.044 0 1.884-.372 2.52-1.116zm6.718-.288c0-.372-.156-.672-.468-.9a3.454 3.454 0 0 0-1.116-.54c-.432-.132-.87-.276-1.314-.432a2.858 2.858 0 0 1-1.134-.774c-.3-.36-.45-.81-.45-1.35 0-.648.24-1.164.72-1.548.48-.396 1.11-.594 1.89-.594 1.116 0 1.962.3 2.538.9l-.396.702c-.552-.516-1.26-.774-2.124-.774-.48 0-.876.126-1.188.378-.3.24-.45.546-.45.918 0 .384.15.702.45.954.312.24.684.432 1.116.576.444.132.888.276 1.332.432.444.156.816.402 1.116.738.312.336.468.762.468 1.278 0 .732-.276 1.302-.828 1.71-.54.408-1.236.612-2.088.612-.528 0-1.08-.12-1.656-.36-.54-.228-.912-.498-1.116-.81l.522-.612c.228.276.57.504 1.026.684.468.18.912.27 1.332.27.528 0 .96-.126 1.296-.378.348-.264.522-.624.522-1.08zm9.216-5.976h.99l-3.654 8.208h-.648l-3.798-8.208h1.098l2.322 5.094c.336.756.582 1.35.738 1.782.204-.576.444-1.188.72-1.836l2.232-5.04zm-21.982 113.35l-.252-.774a4.848 4.848 0 0 1 2.574-.738c1.056 0 1.818.264 2.286.792.48.528.72 1.344.72 2.448V359h-.936v-1.242c-.66.9-1.584 1.35-2.772 1.35-.756 0-1.362-.216-1.818-.648-.456-.444-.684-1.032-.684-1.764 0-.792.288-1.41.864-1.854.564-.444 1.302-.666 2.214-.666.912 0 1.644.204 2.196.612 0-.84-.06-1.482-.18-1.926-.096-.432-.294-.738-.594-.918-.288-.18-.738-.288-1.35-.324-.732 0-1.488.21-2.268.63zm1.908 5.976c1.008 0 1.836-.426 2.484-1.278v-1.35c-.588-.432-1.29-.648-2.106-.648-.612 0-1.128.15-1.548.45-.42.3-.63.714-.63 1.242 0 .48.168.864.504 1.152.336.288.768.432 1.296.432zm7.038 4.374h-.936v-11.7h.936v1.08c.324-.36.756-.654 1.296-.882.552-.24 1.11-.36 1.674-.36 1.152 0 2.07.378 2.754 1.134.684.756 1.026 1.74 1.026 2.952 0 1.26-.384 2.298-1.152 3.114-.78.816-1.782 1.224-3.006 1.224-1.092 0-1.956-.228-2.592-.684v4.122zm2.718-10.98c-.528 0-1.044.12-1.548.36-.492.24-.882.54-1.17.9v4.662c.744.492 1.584.738 2.52.738.96 0 1.74-.318 2.34-.954.6-.636.9-1.452.9-2.448s-.27-1.788-.81-2.376c-.54-.588-1.284-.882-2.232-.882zm7.699 7.38h-.936v-8.1h.936v8.1zm-1.098-11.25a.53.53 0 0 1 .198-.432.716.716 0 0 1 .468-.162.57.57 0 0 1 .414.18.511.511 0 0 1 .198.414c0 .204-.06.366-.18.486a.553.553 0 0 1-.432.18.696.696 0 0 1-.486-.18.657.657 0 0 1-.18-.486z" fill="#141414"/><rect y="114" width="344" height="89" rx="8" fill="#F6F4F2"/><path d="M63.144 150.36L51.84 165h-1.176v-16.8h1.32v14.64l11.304-14.64h1.176V165h-1.32v-14.64zM70.269 165h-1.248v-10.8h1.176l4.488 6.024 4.32-6.024h1.128V165h-1.248v-8.904l-4.2 5.832h-.072l-4.344-5.832V165zm23.066 0h-1.248v-9.624h-6.888V165H83.95v-10.8h9.384V165zm8.684.216c-1.664 0-3.024-.528-4.08-1.584s-1.584-2.4-1.584-4.032c0-1.632.528-2.976 1.584-4.032s2.416-1.584 4.08-1.584c1.664 0 3.024.528 4.08 1.584s1.584 2.4 1.584 4.032c0 1.632-.528 2.976-1.584 4.032s-2.416 1.584-4.08 1.584zm0-1.176c1.296 0 2.336-.408 3.12-1.224.816-.832 1.224-1.904 1.224-3.216 0-1.296-.408-2.36-1.224-3.192-.816-.832-1.856-1.248-3.12-1.248-1.248 0-2.288.416-3.12 1.248-.816.832-1.224 1.896-1.224 3.192 0 1.296.408 2.36 1.224 3.192.816.832 1.856 1.248 3.12 1.248zm9.969 5.76h-1.248v-15.6h1.248v1.44c.432-.48 1.008-.872 1.728-1.176.736-.32 1.48-.48 2.232-.48 1.536 0 2.76.504 3.672 1.512.912 1.008 1.368 2.32 1.368 3.936 0 1.68-.512 3.064-1.536 4.152-1.04 1.088-2.376 1.632-4.008 1.632-1.456 0-2.608-.304-3.456-.912v5.496zm3.624-14.64c-.704 0-1.392.16-2.064.48-.656.32-1.176.72-1.56 1.2v6.216c.992.656 2.112.984 3.36.984 1.28 0 2.32-.424 3.12-1.272.8-.848 1.2-1.936 1.2-3.264 0-1.328-.36-2.384-1.08-3.168-.72-.784-1.712-1.176-2.976-1.176zm10.707.288h-4.296V154.2h9.84v1.248h-4.296V165h-1.248v-9.552zM149.645 165h-9.936v-10.8h1.248v9.624h6.816V154.2h1.248v9.624h1.8v3.912h-1.176V165zm12.014-2.28l.408.96c-.976 1.024-2.304 1.536-3.984 1.536-1.728 0-3.112-.512-4.152-1.536-1.056-1.024-1.584-2.384-1.584-4.08 0-1.632.48-2.976 1.44-4.032.976-1.056 2.32-1.584 4.032-1.584 1.392 0 2.56.448 3.504 1.344.928.88 1.392 2.056 1.392 3.528 0 .384-.024.72-.072 1.008h-8.904c.048 1.296.472 2.32 1.272 3.072.8.736 1.848 1.104 3.144 1.104 1.504 0 2.672-.44 3.504-1.32zm-3.96-7.56c-1.152 0-2.088.336-2.808 1.008-.704.672-1.112 1.56-1.224 2.664h7.776c-.016-1.136-.36-2.032-1.032-2.688-.672-.656-1.576-.984-2.712-.984zm17.506 9.84h-1.248v-4.896h-7.008V165h-1.248v-10.8h1.248v4.728h7.008V154.2h1.248V165zm17.881-9l-7.2 9h-1.248v-10.8h1.248v9l7.2-9h1.248V165h-1.248v-9zm15.573 9.216c-1.664 0-3.024-.528-4.08-1.584s-1.584-2.4-1.584-4.032c0-1.632.528-2.976 1.584-4.032s2.416-1.584 4.08-1.584c1.664 0 3.024.528 4.08 1.584s1.584 2.4 1.584 4.032c0 1.632-.528 2.976-1.584 4.032s-2.416 1.584-4.08 1.584zm0-1.176c1.296 0 2.336-.408 3.12-1.224.816-.832 1.224-1.904 1.224-3.216 0-1.296-.408-2.36-1.224-3.192-.816-.832-1.856-1.248-3.12-1.248-1.248 0-2.288.416-3.12 1.248-.816.832-1.224 1.896-1.224 3.192 0 1.296.408 2.36 1.224 3.192.816.832 1.856 1.248 3.12 1.248zm17.121-1.488l.624.912c-.432.56-1.016.992-1.752 1.296a5.923 5.923 0 0 1-2.328.456c-1.68 0-3.056-.512-4.128-1.536-1.056-1.024-1.584-2.384-1.584-4.08 0-1.584.512-2.912 1.536-3.984 1.04-1.088 2.32-1.632 3.84-1.632 1.856 0 3.256.448 4.2 1.344l-.6 1.008c-.848-.784-1.984-1.176-3.408-1.176-1.152 0-2.152.424-3 1.272-.832.832-1.248 1.888-1.248 3.168 0 1.344.424 2.424 1.272 3.24.848.8 1.92 1.2 3.216 1.2 1.392 0 2.512-.496 3.36-1.488zm5.984-7.104h-4.296V154.2h9.84v1.248h-4.296V165h-1.248v-9.552zm8.077.552l-.336-1.032c1.072-.656 2.216-.984 3.432-.984 1.408 0 2.424.352 3.048 1.056.64.704.96 1.792.96 3.264V165h-1.248v-1.656c-.88 1.2-2.112 1.8-3.696 1.8-1.008 0-1.816-.288-2.424-.864-.608-.592-.912-1.376-.912-2.352 0-1.056.384-1.88 1.152-2.472.752-.592 1.736-.888 2.952-.888s2.192.272 2.928.816c0-1.12-.08-1.976-.24-2.568-.128-.576-.392-.984-.792-1.224-.384-.24-.984-.384-1.8-.432-.976 0-1.984.28-3.024.84zm2.544 7.968c1.344 0 2.448-.568 3.312-1.704v-1.8c-.784-.576-1.72-.864-2.808-.864-.816 0-1.504.2-2.064.6-.56.4-.84.952-.84 1.656 0 .64.224 1.152.672 1.536.448.384 1.024.576 1.728.576zm10.848-8.52h-4.296V154.2h9.84v1.248h-4.296V165h-1.248v-9.552zm14.941-1.248h1.608l-5.328 5.16 5.76 5.64h-1.68l-5.592-5.568 5.232-5.232zm-5.952 10.8h-1.248v-10.8h1.248V165zm14.734.216c-1.664 0-3.024-.528-4.08-1.584s-1.584-2.4-1.584-4.032c0-1.632.528-2.976 1.584-4.032s2.416-1.584 4.08-1.584c1.664 0 3.024.528 4.08 1.584s1.584 2.4 1.584 4.032c0 1.632-.528 2.976-1.584 4.032s-2.416 1.584-4.08 1.584zm0-1.176c1.296 0 2.336-.408 3.12-1.224.816-.832 1.224-1.904 1.224-3.216 0-1.296-.408-2.36-1.224-3.192-.816-.832-1.856-1.248-3.12-1.248-1.248 0-2.288.416-3.12 1.248-.816.832-1.224 1.896-1.224 3.192 0 1.296.408 2.36 1.224 3.192.816.832 1.856 1.248 3.12 1.248zm8.721.96v-10.8c.528 0 1.04-.008 1.536-.024a85.964 85.964 0 0 1 1.944-.048c2.976 0 4.464.928 4.464 2.784 0 .624-.2 1.168-.6 1.632-.384.448-.912.728-1.584.84v.048c1.728.256 2.592 1.12 2.592 2.592 0 2.032-1.608 3.048-4.824 3.048-.208 0-.84-.016-1.896-.048a53.912 53.912 0 0 0-1.632-.024zm3.84-4.968h-2.592v3.816c1.248.032 2.056.048 2.424.048 2.24 0 3.36-.664 3.36-1.992 0-1.248-1.064-1.872-3.192-1.872zm-.216-4.728c-.528 0-1.32.016-2.376.048V159h2.856c.784 0 1.4-.168 1.848-.504.448-.352.672-.816.672-1.392 0-1.2-1-1.8-3-1.8z" fill="#141414"/><rect y="223" width="344" height="89" rx="8" fill="#F6F4F2"/><path d="M99.101 259.36L87.797 274h-1.176v-16.8h1.32v14.64l11.304-14.64h1.176V274h-1.32v-14.64zm7.125 14.64h-1.248v-10.8h1.176l4.488 6.024 4.32-6.024h1.128V274h-1.248v-8.904l-4.2 5.832h-.072l-4.344-5.832V274zm23.066 0h-1.248v-9.624h-6.888V274h-1.248v-10.8h9.384V274zm8.684.216c-1.664 0-3.024-.528-4.08-1.584s-1.584-2.4-1.584-4.032c0-1.632.528-2.976 1.584-4.032s2.416-1.584 4.08-1.584c1.664 0 3.024.528 4.08 1.584s1.584 2.4 1.584 4.032c0 1.632-.528 2.976-1.584 4.032s-2.416 1.584-4.08 1.584zm0-1.176c1.296 0 2.336-.408 3.12-1.224.816-.832 1.224-1.904 1.224-3.216 0-1.296-.408-2.36-1.224-3.192-.816-.832-1.856-1.248-3.12-1.248-1.248 0-2.288.416-3.12 1.248-.816.832-1.224 1.896-1.224 3.192 0 1.296.408 2.36 1.224 3.192.816.832 1.856 1.248 3.12 1.248zm9.969 5.76h-1.248v-15.6h1.248v1.44c.432-.48 1.008-.872 1.728-1.176.736-.32 1.48-.48 2.232-.48 1.536 0 2.76.504 3.672 1.512.912 1.008 1.368 2.32 1.368 3.936 0 1.68-.512 3.064-1.536 4.152-1.04 1.088-2.376 1.632-4.008 1.632-1.456 0-2.608-.304-3.456-.912v5.496zm3.624-14.64c-.704 0-1.392.16-2.064.48-.656.32-1.176.72-1.56 1.2v6.216c.992.656 2.112.984 3.36.984 1.28 0 2.32-.424 3.12-1.272.8-.848 1.2-1.936 1.2-3.264 0-1.328-.36-2.384-1.08-3.168-.72-.784-1.712-1.176-2.976-1.176zm10.707.288h-4.296V263.2h9.84v1.248h-4.296V274h-1.248v-9.552zm18.286 9.768c-1.664 0-3.024-.528-4.08-1.584s-1.584-2.4-1.584-4.032c0-1.632.528-2.976 1.584-4.032s2.416-1.584 4.08-1.584c1.664 0 3.024.528 4.08 1.584s1.584 2.4 1.584 4.032c0 1.632-.528 2.976-1.584 4.032s-2.416 1.584-4.08 1.584zm0-1.176c1.296 0 2.336-.408 3.12-1.224.816-.832 1.224-1.904 1.224-3.216 0-1.296-.408-2.36-1.224-3.192-.816-.832-1.856-1.248-3.12-1.248-1.248 0-2.288.416-3.12 1.248-.816.832-1.224 1.896-1.224 3.192 0 1.296.408 2.36 1.224 3.192.816.832 1.856 1.248 3.12 1.248zm11.011-8.592h-4.296V263.2h9.84v1.248h-4.296V274h-1.248v-9.552zm11.077 9.768c-.736 0-1.552-.136-2.448-.408-.848-.256-1.448-.6-1.8-1.032l.648-.96c.416.384.936.688 1.56.912a5.97 5.97 0 0 0 1.848.312c1.008 0 1.816-.2 2.424-.6.608-.4.912-.936.912-1.608 0-.56-.224-1-.672-1.32-.448-.32-1.056-.48-1.824-.48h-1.824V268h1.704c.608 0 1.128-.192 1.56-.576.432-.384.648-.848.648-1.392 0-.608-.24-1.072-.72-1.392-.48-.32-1.152-.48-2.016-.48-1.264 0-2.392.4-3.384 1.2l-.504-.96c.912-.944 2.264-1.416 4.056-1.416 1.232 0 2.184.256 2.856.768.688.496 1.032 1.184 1.032 2.064 0 1.264-.648 2.128-1.944 2.592v.048c.736.064 1.312.336 1.728.816.416.464.624 1.04.624 1.728 0 .992-.408 1.776-1.224 2.352-.816.576-1.896.864-3.24.864zm10.632-.216h-2.976v-10.8h1.248v3.624h1.872c2.848 0 4.272 1.184 4.272 3.552 0 1.12-.36 2.008-1.08 2.664-.72.64-1.832.96-3.336.96zm-.072-6h-1.656v4.824h1.632c1.136 0 1.952-.2 2.448-.6.496-.4.744-1.008.744-1.824 0-1.6-1.056-2.4-3.168-2.4zm8.208 6h-1.248v-10.8h1.248V274zm3.794 0v-10.8c.528 0 1.04-.008 1.536-.024a85.964 85.964 0 0 1 1.944-.048c2.976 0 4.464.928 4.464 2.784 0 .624-.2 1.168-.6 1.632-.384.448-.912.728-1.584.84v.048c1.728.256 2.592 1.12 2.592 2.592 0 2.032-1.608 3.048-4.824 3.048-.208 0-.84-.016-1.896-.048a53.912 53.912 0 0 0-1.632-.024zm3.84-4.968h-2.592v3.816c1.248.032 2.056.048 2.424.048 2.24 0 3.36-.664 3.36-1.992 0-1.248-1.064-1.872-3.192-1.872zm-.216-4.728c-.528 0-1.32.016-2.376.048V268h2.856c.784 0 1.4-.168 1.848-.504.448-.352.672-.816.672-1.392 0-1.2-1-1.8-3-1.8zm12.827 9.912c-1.664 0-3.024-.528-4.08-1.584s-1.584-2.4-1.584-4.032c0-1.632.528-2.976 1.584-4.032s2.416-1.584 4.08-1.584c1.664 0 3.024.528 4.08 1.584s1.584 2.4 1.584 4.032c0 1.632-.528 2.976-1.584 4.032s-2.416 1.584-4.08 1.584zm0-1.176c1.296 0 2.336-.408 3.12-1.224.816-.832 1.224-1.904 1.224-3.216 0-1.296-.408-2.36-1.224-3.192-.816-.832-1.856-1.248-3.12-1.248-1.248 0-2.288.416-3.12 1.248-.816.832-1.224 1.896-1.224 3.192 0 1.296.408 2.36 1.224 3.192.816.832 1.856 1.248 3.12 1.248zm8.721.96v-10.8c.528 0 1.04-.008 1.536-.024a85.964 85.964 0 0 1 1.944-.048c2.976 0 4.464.928 4.464 2.784 0 .624-.2 1.168-.6 1.632-.384.448-.912.728-1.584.84v.048c1.728.256 2.592 1.12 2.592 2.592 0 2.032-1.608 3.048-4.824 3.048-.208 0-.84-.016-1.896-.048a53.912 53.912 0 0 0-1.632-.024zm3.84-4.968h-2.592v3.816c1.248.032 2.056.048 2.424.048 2.24 0 3.36-.664 3.36-1.992 0-1.248-1.064-1.872-3.192-1.872zm-.216-4.728c-.528 0-1.32.016-2.376.048V268h2.856c.784 0 1.4-.168 1.848-.504.448-.352.672-.816.672-1.392 0-1.2-1-1.8-3-1.8z" fill="#141414"/><rect y="332" width="344" height="89" rx="8" fill="#F6F4F2"/><path d="M100.203 368.36L88.899 383h-1.176v-16.8h1.32v14.64l11.304-14.64h1.176V383h-1.32v-14.64zm7.125 14.64h-1.248v-10.8h1.176l4.488 6.024 4.32-6.024h1.128V383h-1.248v-8.904l-4.2 5.832h-.072l-4.344-5.832V383zm23.065 0h-1.248v-9.624h-6.888V383h-1.248v-10.8h9.384V383zm8.684.216c-1.664 0-3.024-.528-4.08-1.584s-1.584-2.4-1.584-4.032c0-1.632.528-2.976 1.584-4.032s2.416-1.584 4.08-1.584c1.664 0 3.024.528 4.08 1.584s1.584 2.4 1.584 4.032c0 1.632-.528 2.976-1.584 4.032s-2.416 1.584-4.08 1.584zm0-1.176c1.296 0 2.336-.408 3.12-1.224.816-.832 1.224-1.904 1.224-3.216 0-1.296-.408-2.36-1.224-3.192-.816-.832-1.856-1.248-3.12-1.248-1.248 0-2.288.416-3.12 1.248-.816.832-1.224 1.896-1.224 3.192 0 1.296.408 2.36 1.224 3.192.816.832 1.856 1.248 3.12 1.248zm9.969 5.76h-1.248v-15.6h1.248v1.44c.432-.48 1.008-.872 1.728-1.176.736-.32 1.48-.48 2.232-.48 1.536 0 2.76.504 3.672 1.512.912 1.008 1.368 2.32 1.368 3.936 0 1.68-.512 3.064-1.536 4.152-1.04 1.088-2.376 1.632-4.008 1.632-1.456 0-2.608-.304-3.456-.912v5.496zm3.624-14.64c-.704 0-1.392.16-2.064.48-.656.32-1.176.72-1.56 1.2v6.216c.992.656 2.112.984 3.36.984 1.28 0 2.32-.424 3.12-1.272.8-.848 1.2-1.936 1.2-3.264 0-1.328-.36-2.384-1.08-3.168-.72-.784-1.712-1.176-2.976-1.176zm10.708.288h-4.296V372.2h9.84v1.248h-4.296V383h-1.248v-9.552zm23.517-6h-10.584V366.2h12.456v.84l-11.112 14.712h11.352V383h-13.176v-.84l11.064-14.712zm8.643 15.768c-1.664 0-3.024-.528-4.08-1.584s-1.584-2.4-1.584-4.032c0-1.632.528-2.976 1.584-4.032s2.416-1.584 4.08-1.584c1.664 0 3.024.528 4.08 1.584s1.584 2.4 1.584 4.032c0 1.632-.528 2.976-1.584 4.032s-2.416 1.584-4.08 1.584zm0-1.176c1.296 0 2.336-.408 3.12-1.224.816-.832 1.224-1.904 1.224-3.216 0-1.296-.408-2.36-1.224-3.192-.816-.832-1.856-1.248-3.12-1.248-1.248 0-2.288.416-3.12 1.248-.816.832-1.224 1.896-1.224 3.192 0 1.296.408 2.36 1.224 3.192.816.832 1.856 1.248 3.12 1.248zm13.617 1.176c-1.664 0-3.024-.528-4.08-1.584s-1.584-2.4-1.584-4.032c0-1.632.528-2.976 1.584-4.032s2.416-1.584 4.08-1.584c1.664 0 3.024.528 4.08 1.584s1.584 2.4 1.584 4.032c0 1.632-.528 2.976-1.584 4.032s-2.416 1.584-4.08 1.584zm0-1.176c1.296 0 2.336-.408 3.12-1.224.816-.832 1.224-1.904 1.224-3.216 0-1.296-.408-2.36-1.224-3.192-.816-.832-1.856-1.248-3.12-1.248-1.248 0-2.288.416-3.12 1.248-.816.832-1.224 1.896-1.224 3.192 0 1.296.408 2.36 1.224 3.192.816.832 1.856 1.248 3.12 1.248zm24.465-6.12V383h-1.248v-6.744c0-2.048-.912-3.072-2.736-3.072-1.488 0-2.592.6-3.312 1.8.032.16.048.416.048.768V383h-1.248v-7.296c0-.784-.24-1.4-.72-1.848-.48-.448-1.144-.672-1.992-.672-1.392 0-2.488.568-3.288 1.704V383h-1.248v-10.8h1.248v1.512c.416-.512.96-.92 1.632-1.224a4.959 4.959 0 0 1 2.112-.48c.848 0 1.56.176 2.136.528.592.352.984.84 1.176 1.464.4-.608.952-1.088 1.656-1.44a4.943 4.943 0 0 1 2.28-.552c2.336 0 3.504 1.304 3.504 3.912zm8.465 7.296c-1.664 0-3.024-.528-4.08-1.584s-1.584-2.4-1.584-4.032c0-1.632.528-2.976 1.584-4.032s2.416-1.584 4.08-1.584c1.664 0 3.024.528 4.08 1.584s1.584 2.4 1.584 4.032c0 1.632-.528 2.976-1.584 4.032s-2.416 1.584-4.08 1.584zm0-1.176c1.296 0 2.336-.408 3.12-1.224.816-.832 1.224-1.904 1.224-3.216 0-1.296-.408-2.36-1.224-3.192-.816-.832-1.856-1.248-3.12-1.248-1.248 0-2.288.416-3.12 1.248-.816.832-1.224 1.896-1.224 3.192 0 1.296.408 2.36 1.224 3.192.816.832 1.856 1.248 3.12 1.248zm14.313-1.872c0-.496-.208-.896-.624-1.2-.4-.304-.896-.544-1.488-.72a44.633 44.633 0 0 1-1.752-.576 3.811 3.811 0 0 1-1.512-1.032c-.4-.48-.6-1.08-.6-1.8 0-.864.32-1.552.96-2.064.64-.528 1.48-.792 2.52-.792 1.488 0 2.616.4 3.384 1.2l-.528.936c-.736-.688-1.68-1.032-2.832-1.032-.64 0-1.168.168-1.584.504-.4.32-.6.728-.6 1.224 0 .512.2.936.6 1.272.416.32.912.576 1.488.768a38.18 38.18 0 0 1 1.776.576 3.523 3.523 0 0 1 1.488.984c.416.448.624 1.016.624 1.704 0 .976-.368 1.736-1.104 2.28-.72.544-1.648.816-2.784.816-.704 0-1.44-.16-2.208-.48-.72-.304-1.216-.664-1.488-1.08l.696-.816c.304.368.76.672 1.368.912.624.24 1.216.36 1.776.36.704 0 1.28-.168 1.728-.504.464-.352.696-.832.696-1.44z" fill="#141414"/><rect x="533" y="332" width="457" height="89" rx="8" fill="#F6F4F2"/><path d="M596.144 368.36L584.84 383h-1.176v-16.8h1.32v14.64l11.304-14.64h1.176V383h-1.32v-14.64zm7.125 14.64h-1.248v-10.8h1.176l4.488 6.024 4.32-6.024h1.128V383h-1.248v-8.904l-4.2 5.832h-.072l-4.344-5.832V383zm23.066 0h-1.248v-9.624h-6.888V383h-1.248v-10.8h9.384V383zm8.684.216c-1.664 0-3.024-.528-4.08-1.584s-1.584-2.4-1.584-4.032c0-1.632.528-2.976 1.584-4.032s2.416-1.584 4.08-1.584c1.664 0 3.024.528 4.08 1.584s1.584 2.4 1.584 4.032c0 1.632-.528 2.976-1.584 4.032s-2.416 1.584-4.08 1.584zm0-1.176c1.296 0 2.336-.408 3.12-1.224.816-.832 1.224-1.904 1.224-3.216 0-1.296-.408-2.36-1.224-3.192-.816-.832-1.856-1.248-3.12-1.248-1.248 0-2.288.416-3.12 1.248-.816.832-1.224 1.896-1.224 3.192 0 1.296.408 2.36 1.224 3.192.816.832 1.856 1.248 3.12 1.248zm9.969 5.76h-1.248v-15.6h1.248v1.44c.432-.48 1.008-.872 1.728-1.176.736-.32 1.48-.48 2.232-.48 1.536 0 2.76.504 3.672 1.512.912 1.008 1.368 2.32 1.368 3.936 0 1.68-.512 3.064-1.536 4.152-1.04 1.088-2.376 1.632-4.008 1.632-1.456 0-2.608-.304-3.456-.912v5.496zm3.624-14.64c-.704 0-1.392.16-2.064.48-.656.32-1.176.72-1.56 1.2v6.216c.992.656 2.112.984 3.36.984 1.28 0 2.32-.424 3.12-1.272.8-.848 1.2-1.936 1.2-3.264 0-1.328-.36-2.384-1.08-3.168-.72-.784-1.712-1.176-2.976-1.176zm10.707.288h-4.296V372.2h9.84v1.248h-4.296V383h-1.248v-9.552zm20.59-1.248h1.608l-5.328 5.16 5.76 5.64h-1.68l-5.592-5.568 5.232-5.232zm-5.952 10.8h-1.248v-10.8h1.248V383zm14.733.216c-1.664 0-3.024-.528-4.08-1.584s-1.584-2.4-1.584-4.032c0-1.632.528-2.976 1.584-4.032s2.416-1.584 4.08-1.584c1.664 0 3.024.528 4.08 1.584s1.584 2.4 1.584 4.032c0 1.632-.528 2.976-1.584 4.032s-2.416 1.584-4.08 1.584zm0-1.176c1.296 0 2.336-.408 3.12-1.224.816-.832 1.224-1.904 1.224-3.216 0-1.296-.408-2.36-1.224-3.192-.816-.832-1.856-1.248-3.12-1.248-1.248 0-2.288.416-3.12 1.248-.816.832-1.224 1.896-1.224 3.192 0 1.296.408 2.36 1.224 3.192.816.832 1.856 1.248 3.12 1.248zm18.226.96h-1.248v-4.896h-7.008V383h-1.248v-10.8h1.248v4.728h7.008V372.2h1.248V383zm10.481 4.8h-1.248v-4.584h-.36c-1.776 0-3.2-.52-4.272-1.56-1.056-1.056-1.584-2.408-1.584-4.056 0-1.536.528-2.856 1.584-3.96 1.072-1.104 2.488-1.656 4.248-1.656h.384V366.2h1.248v5.784h.408c1.728 0 3.128.536 4.2 1.608 1.072 1.056 1.608 2.392 1.608 4.008 0 1.632-.52 2.984-1.56 4.056-1.04 1.04-2.456 1.56-4.248 1.56h-.408v4.584zm-6.144-10.2c0 1.296.408 2.368 1.224 3.216.848.816 1.976 1.224 3.384 1.224h.288v-8.88h-.408c-1.376 0-2.472.424-3.288 1.272-.8.848-1.2 1.904-1.2 3.168zm6.552-4.44h-.408v8.88h.312c1.424 0 2.544-.4 3.36-1.2.816-.816 1.224-1.896 1.224-3.24 0-1.232-.408-2.28-1.224-3.144-.8-.864-1.888-1.296-3.264-1.296zm17.305.84l-7.2 9h-1.248v-10.8h1.248v9l7.2-9h1.248V383h-1.248v-9zm6.276 9h-1.248v-10.8h6.504v1.176h-5.256V383zm15.508-10.8h1.416l-4.368 10.8c-.784 1.904-1.464 3.168-2.04 3.792-.576.672-1.248 1.008-2.016 1.008-.592 0-1.208-.184-1.848-.552l.408-.96c.496.24.92.36 1.272.36.544 0 1.032-.24 1.464-.72.432-.464.88-1.248 1.344-2.352l.24-.576-5.328-10.8h1.488l3.696 7.632.768 1.68c.016-.064.216-.64.6-1.728l2.904-7.584zm4.906 15.6h-1.248v-15.6h1.248v1.44c.432-.48 1.008-.872 1.728-1.176.736-.32 1.48-.48 2.232-.48 1.536 0 2.76.504 3.672 1.512.912 1.008 1.368 2.32 1.368 3.936 0 1.68-.512 3.064-1.536 4.152-1.04 1.088-2.376 1.632-4.008 1.632-1.456 0-2.608-.304-3.456-.912v5.496zm3.624-14.64c-.704 0-1.392.16-2.064.48-.656.32-1.176.72-1.56 1.2v6.216c.992.656 2.112.984 3.36.984 1.28 0 2.32-.424 3.12-1.272.8-.848 1.2-1.936 1.2-3.264 0-1.328-.36-2.384-1.08-3.168-.72-.784-1.712-1.176-2.976-1.176zm8.753.84l-.336-1.032c1.072-.656 2.216-.984 3.432-.984 1.408 0 2.424.352 3.048 1.056.64.704.96 1.792.96 3.264V383h-1.248v-1.656c-.88 1.2-2.112 1.8-3.696 1.8-1.008 0-1.816-.288-2.424-.864-.608-.592-.912-1.376-.912-2.352 0-1.056.384-1.88 1.152-2.472.752-.592 1.736-.888 2.952-.888s2.192.272 2.928.816c0-1.12-.08-1.976-.24-2.568-.128-.576-.392-.984-.792-1.224-.384-.24-.984-.384-1.8-.432-.976 0-1.984.28-3.024.84zm2.544 7.968c1.344 0 2.448-.568 3.312-1.704v-1.8c-.784-.576-1.72-.864-2.808-.864-.816 0-1.504.2-2.064.6-.56.4-.84.952-.84 1.656 0 .64.224 1.152.672 1.536.448.384 1.024.576 1.728.576zM794.793 383h-9.936v-10.8h1.248v9.624h6.816V372.2h1.248v9.624h1.8v3.912h-1.176V383zm11.918-9l-7.2 9h-1.248v-10.8h1.248v9l7.2-9h1.248V383h-1.248v-9zm13.477 0l-7.2 9h-1.248v-10.8h1.248v9l7.2-9h1.248V383h-1.248v-9zm-6.792-7.416h1.128c0 .592.208 1.096.624 1.512.416.4.952.6 1.608.6.624 0 1.136-.2 1.536-.6.4-.416.6-.92.6-1.512h1.128c0 .88-.304 1.616-.912 2.208-.608.576-1.392.864-2.352.864-1.024 0-1.84-.28-2.448-.84-.608-.576-.912-1.32-.912-2.232zm24.165 21.216h-1.248v-4.584h-.36c-1.776 0-3.2-.52-4.272-1.56-1.056-1.056-1.584-2.408-1.584-4.056 0-1.536.528-2.856 1.584-3.96 1.072-1.104 2.488-1.656 4.248-1.656h.384V366.2h1.248v5.784h.408c1.728 0 3.128.536 4.2 1.608 1.072 1.056 1.608 2.392 1.608 4.008 0 1.632-.52 2.984-1.56 4.056-1.04 1.04-2.456 1.56-4.248 1.56h-.408v4.584zm-6.144-10.2c0 1.296.408 2.368 1.224 3.216.848.816 1.976 1.224 3.384 1.224h.288v-8.88h-.408c-1.376 0-2.472.424-3.288 1.272-.8.848-1.2 1.904-1.2 3.168zm6.552-4.44h-.408v8.88h.312c1.424 0 2.544-.4 3.36-1.2.816-.816 1.224-1.896 1.224-3.24 0-1.232-.408-2.28-1.224-3.144-.8-.864-1.888-1.296-3.264-1.296zm17.305.84l-7.2 9h-1.248v-10.8h1.248v9l7.2-9h1.248V383h-1.248v-9zm13.884 9h-1.248v-9.552h-4.56l-.144 2.352c-.208 3.04-.712 5.056-1.512 6.048-.64.832-1.432 1.248-2.376 1.248l-.096-1.224c.416 0 .808-.192 1.176-.576.88-.816 1.416-2.728 1.608-5.736l.168-3.36h6.984V383zm6.969 0h-3.168v-10.8h1.248v3.624h2.088c2.848 0 4.272 1.184 4.272 3.552 0 1.12-.368 2.008-1.104 2.664-.72.64-1.832.96-3.336.96zm-.048-6h-1.872v4.824h1.848c1.12 0 1.928-.2 2.424-.6.512-.4.768-1.008.768-1.824 0-1.6-1.056-2.4-3.168-2.4zm9.131-3.552h-4.296V372.2h9.84v1.248h-4.296V383h-1.248v-9.552zm8.989 14.352h-1.248v-15.6h1.248v1.44c.432-.48 1.008-.872 1.728-1.176.736-.32 1.48-.48 2.232-.48 1.536 0 2.76.504 3.672 1.512.912 1.008 1.368 2.32 1.368 3.936 0 1.68-.512 3.064-1.536 4.152-1.04 1.088-2.376 1.632-4.008 1.632-1.456 0-2.608-.304-3.456-.912v5.496zm3.624-14.64c-.704 0-1.392.16-2.064.48-.656.32-1.176.72-1.56 1.2v6.216c.992.656 2.112.984 3.36.984 1.28 0 2.32-.424 3.12-1.272.8-.848 1.2-1.936 1.2-3.264 0-1.328-.36-2.384-1.08-3.168-.72-.784-1.712-1.176-2.976-1.176zm8.753.84l-.336-1.032c1.072-.656 2.216-.984 3.432-.984 1.408 0 2.424.352 3.048 1.056.64.704.96 1.792.96 3.264V383h-1.248v-1.656c-.88 1.2-2.112 1.8-3.696 1.8-1.008 0-1.816-.288-2.424-.864-.608-.592-.912-1.376-.912-2.352 0-1.056.384-1.88 1.152-2.472.752-.592 1.736-.888 2.952-.888s2.192.272 2.928.816c0-1.12-.08-1.976-.24-2.568-.128-.576-.392-.984-.792-1.224-.384-.24-.984-.384-1.8-.432-.976 0-1.984.28-3.024.84zm2.544 7.968c1.344 0 2.448-.568 3.312-1.704v-1.8c-.784-.576-1.72-.864-2.808-.864-.816 0-1.504.2-2.064.6-.56.4-.84.952-.84 1.656 0 .64.224 1.152.672 1.536.448.384 1.024.576 1.728.576z" fill="#141414"/><rect x="1138" y="162" width="431" height="89" rx="8" fill="#F6F4F2"/><path d="M1201.79 213h-1.32v-7.944h-10.49V213h-1.32v-16.8h1.32v7.608h10.49V196.2h1.32V213zm9.11-15.552h-6.21V196.2h13.75v1.248h-6.22V213h-1.32v-15.552zM1222.66 213h-1.32v-16.8h1.34l6.77 9.216 6.5-9.216h1.27V213h-1.32v-14.736l-6.45 9.072h-.22l-6.57-9V213zm30.06 0h-10.17v-16.8h1.32v15.552h8.85V213zm7.03-5.928h-5.5v-1.176h5.5v1.176zM1276.8 213h-13.11v-10.8h1.25v9.624h4.68V202.2h1.25v9.624h4.68V202.2h1.25V213zm4.15-9l-.34-1.032c1.08-.656 2.22-.984 3.44-.984 1.4 0 2.42.352 3.04 1.056.64.704.96 1.792.96 3.264V213h-1.24v-1.656c-.88 1.2-2.12 1.8-3.7 1.8-1.01 0-1.82-.288-2.42-.864-.61-.592-.92-1.376-.92-2.352 0-1.056.39-1.88 1.16-2.472.75-.592 1.73-.888 2.95-.888 1.21 0 2.19.272 2.93.816 0-1.12-.08-1.976-.24-2.568-.13-.576-.4-.984-.8-1.224-.38-.24-.98-.384-1.8-.432-.97 0-1.98.28-3.02.84zm2.54 7.968c1.35 0 2.45-.568 3.32-1.704v-1.8c-.79-.576-1.72-.864-2.81-.864-.82 0-1.51.2-2.07.6-.56.4-.84.952-.84 1.656 0 .64.23 1.152.68 1.536.44.384 1.02.576 1.72.576zm16.68-16.008l.7.936c-.37.528-.82.888-1.34 1.08a16.4 16.4 0 0 1-2.09.456c-.83.112-1.59.32-2.26.624-1.84.784-2.87 2.832-3.09 6.144h.04c.37-.88.99-1.584 1.85-2.112.87-.544 1.8-.816 2.81-.816 1.57 0 2.82.496 3.74 1.488.93.976 1.4 2.288 1.4 3.936 0 1.52-.52 2.824-1.56 3.912-1.03 1.072-2.33 1.608-3.92 1.608-1.69 0-3.06-.592-4.1-1.776-1.01-1.184-1.51-2.808-1.51-4.872 0-4.736 1.32-7.64 3.96-8.712.67-.272 1.41-.472 2.23-.6.96-.16 1.65-.312 2.06-.456.42-.16.78-.44 1.08-.84zm-8.01 10.824c0 1.616.39 2.896 1.17 3.84.79.944 1.81 1.416 3.08 1.416 1.21 0 2.21-.416 3-1.248.8-.848 1.2-1.864 1.2-3.048 0-1.296-.37-2.336-1.11-3.12-.73-.784-1.73-1.176-3-1.176-1.13 0-2.1.336-2.9 1.008-.77.672-1.25 1.448-1.44 2.328zm21.17 6.216h-1.25v-9.552h-4.56l-.14 2.352c-.21 3.04-.71 5.056-1.51 6.048-.64.832-1.44 1.248-2.38 1.248l-.1-1.224c.42 0 .81-.192 1.18-.576.88-.816 1.42-2.728 1.61-5.736l.17-3.36h6.98V213zm8.7.216c-1.67 0-3.03-.528-4.08-1.584-1.06-1.056-1.59-2.4-1.59-4.032 0-1.632.53-2.976 1.59-4.032 1.05-1.056 2.41-1.584 4.08-1.584 1.66 0 3.02.528 4.08 1.584 1.05 1.056 1.58 2.4 1.58 4.032 0 1.632-.53 2.976-1.58 4.032-1.06 1.056-2.42 1.584-4.08 1.584zm0-1.176c1.29 0 2.33-.408 3.12-1.224.81-.832 1.22-1.904 1.22-3.216 0-1.296-.41-2.36-1.22-3.192-.82-.832-1.86-1.248-3.12-1.248-1.25 0-2.29.416-3.12 1.248-.82.832-1.23 1.896-1.23 3.192 0 1.296.41 2.36 1.23 3.192.81.832 1.85 1.248 3.12 1.248zm18.22.96H1339v-4.896h-7V213h-1.25v-10.8h1.25v4.728h7V202.2h1.25V213zm6.76 0h-2.97v-10.8h1.24v3.624h1.88c2.84 0 4.27 1.184 4.27 3.552 0 1.12-.36 2.008-1.08 2.664-.72.64-1.83.96-3.34.96zm-.07-6h-1.66v4.824h1.64c1.13 0 1.95-.2 2.44-.6.5-.4.75-1.008.75-1.824 0-1.6-1.06-2.4-3.17-2.4zm8.21 6h-1.25v-10.8h1.25V213zm8.96 2.736h-1.17v-3.912h1.34c.42-.528.78-1.384 1.1-2.568.34-1.184.56-2.52.65-4.008l.17-3.048h6.89v9.624h1.8v3.912h-1.18V213h-9.6v2.736zm3.27-12.36l-.15 2.352c-.13 1.472-.35 2.752-.67 3.84-.3 1.056-.62 1.808-.96 2.256h6.24v-8.448h-4.46zm18.68 9.624h-1.25v-9.552h-4.56l-.15 2.352c-.2 3.04-.71 5.056-1.51 6.048-.64.832-1.43 1.248-2.37 1.248l-.1-1.224c.42 0 .81-.192 1.18-.576.88-.816 1.41-2.728 1.6-5.736l.17-3.36h6.99V213zm8.24-10.8h3.21V213h-1.25v-4.032h-2.68l-3.1 4.032h-1.54l3.41-4.32c-.72-.112-1.33-.448-1.85-1.008-.49-.576-.74-1.264-.74-2.064 0-1.04.38-1.864 1.13-2.472.75-.624 1.89-.936 3.41-.936zm-3.22 3.432c0 .64.25 1.16.74 1.56.5.4 1.03.6 1.59.6h2.85v-4.416h-2.18c-.99 0-1.74.208-2.26.624-.49.4-.74.944-.74 1.632zm22.56 12.168h-1.25v-4.584h-.36c-1.78 0-3.2-.52-4.27-1.56-1.06-1.056-1.59-2.408-1.59-4.056 0-1.536.53-2.856 1.59-3.96 1.07-1.104 2.49-1.656 4.25-1.656h.38V196.2h1.25v5.784h.41c1.72 0 3.12.536 4.2 1.608 1.07 1.056 1.6 2.392 1.6 4.008 0 1.632-.52 2.984-1.56 4.056-1.04 1.04-2.45 1.56-4.24 1.56h-.41v4.584zm-6.15-10.2c0 1.296.41 2.368 1.23 3.216.85.816 1.97 1.224 3.38 1.224h.29v-8.88h-.41c-1.37 0-2.47.424-3.29 1.272-.8.848-1.2 1.904-1.2 3.168zm6.56-4.44h-.41v8.88h.31c1.42 0 2.54-.4 3.36-1.2.82-.816 1.22-1.896 1.22-3.24 0-1.232-.4-2.28-1.22-3.144-.8-.864-1.89-1.296-3.26-1.296zm10.1 14.64h-1.25v-15.6h1.25v1.44c.43-.48 1.01-.872 1.73-1.176.74-.32 1.48-.48 2.23-.48 1.54 0 2.76.504 3.67 1.512.92 1.008 1.37 2.32 1.37 3.936 0 1.68-.51 3.064-1.53 4.152-1.04 1.088-2.38 1.632-4.01 1.632-1.46 0-2.61-.304-3.46-.912v5.496zm3.63-14.64c-.71 0-1.4.16-2.07.48-.65.32-1.17.72-1.56 1.2v6.216c.99.656 2.11.984 3.36.984 1.28 0 2.32-.424 3.12-1.272.8-.848 1.2-1.936 1.2-3.264 0-1.328-.36-2.384-1.08-3.168-.72-.784-1.71-1.176-2.97-1.176zm13.31 10.056c-1.67 0-3.03-.528-4.08-1.584-1.06-1.056-1.59-2.4-1.59-4.032 0-1.632.53-2.976 1.59-4.032 1.05-1.056 2.41-1.584 4.08-1.584 1.66 0 3.02.528 4.08 1.584 1.05 1.056 1.58 2.4 1.58 4.032 0 1.632-.53 2.976-1.58 4.032-1.06 1.056-2.42 1.584-4.08 1.584zm0-1.176c1.29 0 2.33-.408 3.12-1.224.81-.832 1.22-1.904 1.22-3.216 0-1.296-.41-2.36-1.22-3.192-.82-.832-1.86-1.248-3.12-1.248-1.25 0-2.29.416-3.12 1.248-.82.832-1.23 1.896-1.23 3.192 0 1.296.41 2.36 1.23 3.192.81.832 1.85 1.248 3.12 1.248zm18.22.96h-1.24v-4.896h-7.01V213h-1.25v-10.8h1.25v4.728h7.01V202.2h1.24V213zm6.5-9.552h-4.29V202.2h9.84v1.248h-4.3V213h-1.25v-9.552zm15.91 7.272l.41.96c-.98 1.024-2.3 1.536-3.98 1.536-1.73 0-3.12-.512-4.16-1.536-1.05-1.024-1.58-2.384-1.58-4.08 0-1.632.48-2.976 1.44-4.032.98-1.056 2.32-1.584 4.03-1.584 1.39 0 2.56.448 3.51 1.344.92.88 1.39 2.056 1.39 3.528 0 .384-.03.72-.07 1.008h-8.91c.05 1.296.47 2.32 1.27 3.072.8.736 1.85 1.104 3.15 1.104 1.5 0 2.67-.44 3.5-1.32zm-3.96-7.56c-1.15 0-2.09.336-2.81 1.008-.7.672-1.11 1.56-1.22 2.664h7.78c-.02-1.136-.36-2.032-1.04-2.688-.67-.656-1.57-.984-2.71-.984zm17.51 9.84h-1.25v-4.896h-7.01V213h-1.25v-10.8h1.25v4.728h7.01V202.2h1.25V213zm3.3 2.736h-1.17v-3.912h1.34c.42-.528.78-1.384 1.1-2.568.34-1.184.56-2.52.65-4.008l.17-3.048h6.89v9.624h1.8v3.912h-1.18V213h-9.6v2.736zm3.27-12.36l-.15 2.352c-.13 1.472-.35 2.752-.67 3.84-.3 1.056-.62 1.808-.96 2.256h6.24v-8.448h-4.46zM1512 204l-.34-1.032a6.468 6.468 0 0 1 3.43-.984c1.41 0 2.43.352 3.05 1.056.64.704.96 1.792.96 3.264V213h-1.25v-1.656c-.88 1.2-2.11 1.8-3.69 1.8-1.01 0-1.82-.288-2.43-.864-.6-.592-.91-1.376-.91-2.352 0-1.056.39-1.88 1.15-2.472.76-.592 1.74-.888 2.96-.888 1.21 0 2.19.272 2.92.816 0-1.12-.08-1.976-.24-2.568-.12-.576-.39-.984-.79-1.224-.38-.24-.98-.384-1.8-.432-.97 0-1.98.28-3.02.84zm2.54 7.968c1.35 0 2.45-.568 3.31-1.704v-1.8c-.78-.576-1.72-.864-2.8-.864-.82 0-1.51.2-2.07.6-.56.4-.84.952-.84 1.656 0 .64.23 1.152.67 1.536.45.384 1.03.576 1.73.576z" fill="#141414"/><rect x="540" width="448" height="89" rx="8" fill="#F6F4F2"/><path d="M603.72 51h-1.32V35.448h-10.416V51h-1.32V34.2h13.056V51zm9.447.216c-1.664 0-3.024-.528-4.08-1.584s-1.584-2.4-1.584-4.032c0-1.632.528-2.976 1.584-4.032s2.416-1.584 4.08-1.584c1.664 0 3.024.528 4.08 1.584s1.584 2.4 1.584 4.032c0 1.632-.528 2.976-1.584 4.032s-2.416 1.584-4.08 1.584zm0-1.176c1.296 0 2.336-.408 3.12-1.224.816-.832 1.224-1.904 1.224-3.216 0-1.296-.408-2.36-1.224-3.192-.816-.832-1.856-1.248-3.12-1.248-1.248 0-2.288.416-3.12 1.248-.816.832-1.224 1.896-1.224 3.192 0 1.296.408 2.36 1.224 3.192.816.832 1.856 1.248 3.12 1.248zM630.336 42l-7.2 9h-1.248V40.2h1.248v9l7.2-9h1.248V51h-1.248v-9zm13.429 6.552l.624.912c-.432.56-1.016.992-1.752 1.296a5.923 5.923 0 0 1-2.328.456c-1.68 0-3.056-.512-4.128-1.536-1.056-1.024-1.584-2.384-1.584-4.08 0-1.584.512-2.912 1.536-3.984 1.04-1.088 2.32-1.632 3.84-1.632 1.856 0 3.256.448 4.2 1.344l-.6 1.008c-.848-.784-1.984-1.176-3.408-1.176-1.152 0-2.152.424-3 1.272-.832.832-1.248 1.888-1.248 3.168 0 1.344.424 2.424 1.272 3.24.848.8 1.92 1.2 3.216 1.2 1.392 0 2.512-.496 3.36-1.488zM654.33 40.2h1.608l-5.328 5.16 5.76 5.64h-1.68l-5.592-5.568 5.232-5.232zM648.378 51h-1.248V40.2h1.248V51zm14.734.216c-1.664 0-3.024-.528-4.08-1.584s-1.584-2.4-1.584-4.032c0-1.632.528-2.976 1.584-4.032s2.416-1.584 4.08-1.584c1.664 0 3.024.528 4.08 1.584s1.584 2.4 1.584 4.032c0 1.632-.528 2.976-1.584 4.032s-2.416 1.584-4.08 1.584zm0-1.176c1.296 0 2.336-.408 3.12-1.224.816-.832 1.224-1.904 1.224-3.216 0-1.296-.408-2.36-1.224-3.192-.816-.832-1.856-1.248-3.12-1.248-1.248 0-2.288.416-3.12 1.248-.816.832-1.224 1.896-1.224 3.192 0 1.296.408 2.36 1.224 3.192.816.832 1.856 1.248 3.12 1.248zm8.722.96V40.2c.528 0 1.04-.008 1.536-.024a85.964 85.964 0 0 1 1.944-.048c2.976 0 4.464.928 4.464 2.784 0 .624-.2 1.168-.6 1.632-.384.448-.912.728-1.584.84v.048c1.728.256 2.592 1.12 2.592 2.592 0 2.032-1.608 3.048-4.824 3.048-.208 0-.84-.016-1.897-.048a53.796 53.796 0 0 0-1.631-.024zm3.84-4.968h-2.592v3.816c1.248.032 2.056.048 2.424.048 2.24 0 3.36-.664 3.36-1.992 0-1.248-1.064-1.872-3.192-1.872zm-.216-4.728c-.528 0-1.32.016-2.376.048V45h2.856c.784 0 1.4-.168 1.848-.504.448-.352.672-.816.672-1.392 0-1.2-1-1.8-3-1.8zM686.364 51h-2.976V40.2h1.248v3.624h1.872c2.848 0 4.272 1.184 4.272 3.552 0 1.12-.36 2.008-1.08 2.664-.72.64-1.832.96-3.336.96zm-.072-6h-1.656v4.824h1.632c1.136 0 1.952-.2 2.448-.6.496-.4.744-1.008.744-1.824 0-1.6-1.056-2.4-3.168-2.4zm8.208 6h-1.248V40.2h1.248V51zm12.242-9l-7.2 9h-1.248V40.2h1.248v9l7.2-9h1.248V51h-1.248v-9zm-6.792-7.416h1.128c0 .592.208 1.096.624 1.512.416.4.952.6 1.608.6.624 0 1.136-.2 1.536-.6.4-.416.6-.92.6-1.512h1.128c0 .88-.304 1.616-.912 2.208-.608.576-1.392.864-2.352.864-1.024 0-1.84-.28-2.448-.84-.608-.576-.912-1.32-.912-2.232zm16.989 19.152h-1.176v-3.912h1.344c.416-.528.784-1.384 1.104-2.568.336-1.184.552-2.52.648-4.008l.168-3.048h6.888v9.624h1.8v3.912h-1.176V51h-9.6v2.736zm3.264-12.36l-.144 2.352c-.128 1.472-.352 2.752-.672 3.84-.304 1.056-.624 1.808-.96 2.256h6.24v-8.448h-4.464zM730.029 51V40.2c.528 0 1.04-.008 1.536-.024a85.964 85.964 0 0 1 1.944-.048c2.976 0 4.464.928 4.464 2.784 0 .624-.2 1.168-.6 1.632-.384.448-.912.728-1.584.84v.048c1.728.256 2.592 1.12 2.592 2.592 0 2.032-1.608 3.048-4.824 3.048-.208 0-.84-.016-1.896-.048a53.912 53.912 0 0 0-1.632-.024zm3.84-4.968h-2.592v3.816c1.248.032 2.056.048 2.424.048 2.24 0 3.36-.664 3.36-1.992 0-1.248-1.064-1.872-3.192-1.872zm-.216-4.728c-.528 0-1.32.016-2.376.048V45h2.856c.784 0 1.4-.168 1.848-.504.448-.352.672-.816.672-1.392 0-1.2-1-1.8-3-1.8zm16.379.696l-7.2 9h-1.248V40.2h1.248v9l7.2-9h1.248V51h-1.248v-9zm16.548-1.8h1.512l-4.32 5.184L768.38 51h-1.512l-4.488-5.616 4.2-5.184zM761.612 51h-1.248V40.2h1.248V51zm-7.944 0l4.536-5.616-4.32-5.184h1.536l4.176 5.184L755.18 51h-1.512zm21.476.216c-1.664 0-3.024-.528-4.08-1.584s-1.584-2.4-1.584-4.032c0-1.632.528-2.976 1.584-4.032s2.416-1.584 4.08-1.584c1.664 0 3.024.528 4.08 1.584s1.584 2.4 1.584 4.032c0 1.632-.528 2.976-1.584 4.032s-2.416 1.584-4.08 1.584zm0-1.176c1.296 0 2.336-.408 3.12-1.224.816-.832 1.224-1.904 1.224-3.216 0-1.296-.408-2.36-1.224-3.192-.816-.832-1.856-1.248-3.12-1.248-1.248 0-2.288.416-3.12 1.248-.816.832-1.224 1.896-1.224 3.192 0 1.296.408 2.36 1.224 3.192.816.832 1.856 1.248 3.12 1.248zm15.921-9.84h1.608l-5.328 5.16 5.76 5.64h-1.68l-5.592-5.568 5.232-5.232zM785.113 51h-1.248V40.2h1.248V51zm24.545-4.176c0-.736-.216-1.368-.648-1.896a4.133 4.133 0 0 0-1.608-1.2l-2.088-.888a53.319 53.319 0 0 1-2.088-.984 4.253 4.253 0 0 1-1.608-1.416c-.432-.64-.648-1.392-.648-2.256 0-1.216.44-2.216 1.32-3 .896-.8 2.096-1.2 3.6-1.2 1.968 0 3.472.568 4.512 1.704l-.72.984c-.96-.96-2.208-1.44-3.744-1.44-1.104 0-1.976.272-2.616.816-.64.528-.96 1.24-.96 2.136 0 .72.216 1.344.648 1.872.432.512.968.896 1.608 1.152.64.256 1.336.544 2.088.864.752.304 1.448.616 2.088.936.64.32 1.176.808 1.608 1.464.432.64.648 1.416.648 2.328 0 1.312-.512 2.376-1.536 3.192-1.024.816-2.296 1.224-3.816 1.224a7.733 7.733 0 0 1-3.072-.648c-.992-.464-1.688-1.056-2.088-1.776l.792-.912c.48.624 1.12 1.128 1.92 1.512.8.384 1.608.576 2.424.576 1.088 0 2.024-.28 2.808-.84.784-.544 1.176-1.312 1.176-2.304zm5.83 8.976h-1.248V40.2h1.248v1.44c.432-.48 1.008-.872 1.728-1.176.736-.32 1.48-.48 2.232-.48 1.536 0 2.76.504 3.672 1.512.912 1.008 1.368 2.32 1.368 3.936 0 1.68-.512 3.064-1.536 4.152-1.04 1.088-2.376 1.632-4.008 1.632-1.456 0-2.608-.304-3.456-.912V55.8zm3.624-14.64c-.704 0-1.392.16-2.064.48-.656.32-1.176.72-1.56 1.2v6.216c.992.656 2.112.984 3.36.984 1.28 0 2.32-.424 3.12-1.272.8-.848 1.2-1.936 1.2-3.264 0-1.328-.36-2.384-1.08-3.168-.72-.784-1.712-1.176-2.976-1.176zm9.665 9.84h-1.248V34.2h1.248v7.464c.432-.48 1.008-.872 1.728-1.176a5.28 5.28 0 0 1 2.16-.48c3.008 0 4.512 1.616 4.512 4.848V51h-1.248v-5.952c0-2.576-1.184-3.864-3.552-3.864-.688 0-1.368.16-2.04.48-.656.304-1.176.696-1.56 1.176V51zm13.819 0h-1.248V40.2h1.248V51zm-1.464-15c0-.24.088-.432.264-.576a.955.955 0 0 1 .624-.216c.208 0 .392.08.552.24a.682.682 0 0 1 .264.552c0 .272-.08.488-.24.648a.737.737 0 0 1-.576.24.928.928 0 0 1-.648-.24c-.16-.16-.24-.376-.24-.648zm7.121 15h-1.248V40.2h1.248v1.512c.448-.496 1.024-.904 1.728-1.224a5.28 5.28 0 0 1 2.16-.48c1.504 0 2.632.392 3.384 1.176.752.784 1.128 2 1.128 3.648V51h-1.248v-5.928c0-2.592-1.184-3.888-3.552-3.888-.688 0-1.36.16-2.016.48-.656.304-1.184.696-1.584 1.176V51zm19.507-10.8h1.464l-4.056 5.232L869.464 51h-1.536l-3.696-4.776L860.536 51h-1.464l4.296-5.52-4.056-5.28h1.536l3.432 4.464 3.48-4.464zm12.867 6.624c0-.736-.216-1.368-.648-1.896a4.133 4.133 0 0 0-1.608-1.2l-2.088-.888a53.319 53.319 0 0 1-2.088-.984 4.253 4.253 0 0 1-1.608-1.416c-.432-.64-.648-1.392-.648-2.256 0-1.216.44-2.216 1.32-3 .896-.8 2.096-1.2 3.6-1.2 1.968 0 3.472.568 4.512 1.704l-.72.984c-.96-.96-2.208-1.44-3.744-1.44-1.104 0-1.976.272-2.616.816-.64.528-.96 1.24-.96 2.136 0 .72.216 1.344.648 1.872.432.512.968.896 1.608 1.152.64.256 1.336.544 2.088.864.752.304 1.448.616 2.088.936.64.32 1.176.808 1.608 1.464.432.64.648 1.416.648 2.328 0 1.312-.512 2.376-1.536 3.192-1.024.816-2.296 1.224-3.816 1.224a7.733 7.733 0 0 1-3.072-.648c-.992-.464-1.688-1.056-2.088-1.776l.792-.912c.48.624 1.12 1.128 1.92 1.512.8.384 1.608.576 2.424.576 1.088 0 2.024-.28 2.808-.84.784-.544 1.176-1.312 1.176-2.304zm13.126 1.896l.408.96c-.976 1.024-2.304 1.536-3.984 1.536-1.728 0-3.112-.512-4.152-1.536-1.056-1.024-1.584-2.384-1.584-4.08 0-1.632.48-2.976 1.44-4.032.976-1.056 2.32-1.584 4.032-1.584 1.392 0 2.56.448 3.504 1.344.928.88 1.392 2.056 1.392 3.528 0 .384-.024.72-.072 1.008h-8.904c.048 1.296.472 2.32 1.272 3.072.8.736 1.848 1.104 3.144 1.104 1.504 0 2.672-.44 3.504-1.32zm-3.96-7.56c-1.152 0-2.088.336-2.808 1.008-.704.672-1.112 1.56-1.224 2.664h7.776c-.016-1.136-.36-2.032-1.032-2.688-.672-.656-1.576-.984-2.712-.984zm8.337.84l-.336-1.032c1.072-.656 2.216-.984 3.432-.984 1.408 0 2.424.352 3.048 1.056.64.704.96 1.792.96 3.264V51h-1.248v-1.656c-.88 1.2-2.112 1.8-3.696 1.8-1.008 0-1.816-.288-2.424-.864-.608-.592-.912-1.376-.912-2.352 0-1.056.384-1.88 1.152-2.472.752-.592 1.736-.888 2.952-.888s2.192.272 2.928.816c0-1.12-.08-1.976-.24-2.568-.128-.576-.392-.984-.792-1.224-.384-.24-.984-.384-1.8-.432-.976 0-1.984.28-3.024.84zm2.544 7.968c1.344 0 2.448-.568 3.312-1.704v-1.8c-.784-.576-1.72-.864-2.808-.864-.816 0-1.504.2-2.064.6-.56.4-.84.952-.84 1.656 0 .64.224 1.152.672 1.536.448.384 1.024.576 1.728.576zM910.058 51h-1.248V40.2h1.248v1.44c.72-1.088 1.688-1.632 2.904-1.632.752 0 1.312.136 1.68.408l-.432 1.176a2.937 2.937 0 0 0-1.512-.408c-1.072 0-1.952.584-2.64 1.752V51zm15.051-2.448l.624.912c-.432.56-1.016.992-1.752 1.296a5.923 5.923 0 0 1-2.328.456c-1.68 0-3.056-.512-4.128-1.536-1.056-1.024-1.584-2.384-1.584-4.08 0-1.584.512-2.912 1.536-3.984 1.04-1.088 2.32-1.632 3.84-1.632 1.856 0 3.256.448 4.2 1.344l-.6 1.008c-.848-.784-1.984-1.176-3.408-1.176-1.152 0-2.152.424-3 1.272-.832.832-1.248 1.888-1.248 3.168 0 1.344.424 2.424 1.272 3.24.848.8 1.92 1.2 3.216 1.2 1.392 0 2.512-.496 3.36-1.488zM929.722 51h-1.248V34.2h1.248v7.464c.432-.48 1.008-.872 1.728-1.176a5.28 5.28 0 0 1 2.16-.48c3.008 0 4.512 1.616 4.512 4.848V51h-1.248v-5.952c0-2.576-1.184-3.864-3.552-3.864-.688 0-1.368.16-2.04.48-.656.304-1.176.696-1.56 1.176V51z" fill="#141414"/><path d="M384 265h54a8 8 0 0 0 8-8v-94M384 50h54a8 8 0 0 1 8 8v97m-62 219h54a8 8 0 0 0 8-8v-99" stroke="#E4002B" stroke-width="2"/></svg>