<svg width="215" height="39" viewBox="0 0 215 39" fill="none" xmlns="http://www.w3.org/2000/svg"><path d="M146.062 28.108h19.347V23.81h-12.752c1.759-7.053 12.532-8.595 12.532-16.419 0-4.187-2.858-7.272-8.904-7.272-3.737 0-7.035 1.101-9.234 2.203l1.319 3.967c1.979-.992 4.287-1.873 7.146-1.873 2.198 0 4.287.992 4.287 3.526 0 5.73-12.642 6.17-13.741 20.165zm19.897-6.832h12.422v6.832h4.946v-6.832h4.178V17.09h-4.178V.119H179.7L165.959 17.97v3.306zm5.606-3.967l7.035-9.476c0 .771-.219 3.195-.219 5.4v3.966h-3.298c-.99 0-2.858.11-3.518.11zM5.574 23.92v-8.704h2.089c1.868 0 3.407.22 4.507.881 1.099.662 1.759 1.763 1.759 3.526 0 2.976-1.76 4.298-5.937 4.298H5.574zM.517 28.109h7.366c8.244 0 11.212-3.636 11.212-8.705 0-3.416-1.429-5.73-3.957-7.052-1.979-1.102-4.507-1.433-7.585-1.433H5.574V4.307h11.103L17.996.23H.407v27.878h.11zm21.986 0h4.837l6.266-9.035c1.209-1.653 2.088-3.306 2.638-4.188h.11c-.11 1.212-.22 2.755-.22 4.298v8.815h4.947V8.164h-4.837l-6.266 9.035c-1.1 1.653-2.089 3.306-2.638 4.188h-.11c.11-1.213.22-2.755.22-4.298V8.274h-4.947v19.834zm27.042 0h5.057V12.351h5.936l1.32-4.187h-18.36v4.187h6.046v15.757zm14.071 10.027h4.947V28.108c.99.33 1.978.44 3.078.44 6.266 0 10.333-4.296 10.333-10.467 0-6.391-3.738-10.468-10.883-10.468-2.748 0-5.386.55-7.585 1.212v29.31h.11zm4.947-14.324V12.13a7.808 7.808 0 0 1 2.308-.331c3.628 0 5.936 1.983 5.936 6.28 0 3.858-1.868 6.282-5.606 6.282-.99 0-1.759-.22-2.638-.551zm16.379 4.297h4.837l6.266-9.035c1.209-1.653 2.088-3.306 2.638-4.188h.11c-.11 1.212-.22 2.755-.22 4.298v8.815h4.947V8.164h-4.837l-6.266 9.035c-1.1 1.653-2.088 3.306-2.638 4.188h-.11c.11-1.213.22-2.755.22-4.298V8.274h-4.947v19.834zm22.535 0h5.057v-8.264h2.968c.55 0 1.099.55 1.759 1.873l2.528 6.391h5.387l-3.628-7.603c-.66-1.322-1.319-2.094-2.309-2.424v-.11c1.649-.992 1.869-3.857 2.859-5.29.329-.44.769-.66 1.429-.66.329 0 .769 0 1.099.22V7.943c-.55-.22-1.539-.33-2.089-.33-1.759 0-2.858.66-3.627 1.763-1.649 2.424-1.649 6.611-4.068 6.611h-2.308V8.164h-5.057v19.944zm28.911.44c2.748 0 5.277-.88 6.816-1.982l-1.429-3.416c-1.429.77-2.748 1.322-4.617 1.322-3.408 0-5.607-2.204-5.607-6.281 0-3.636 2.199-6.501 5.937-6.501 1.978 0 3.407.55 4.836 1.542V8.935c-1.099-.661-2.858-1.322-5.386-1.322-5.936 0-10.553 4.407-10.553 10.688 0 5.73 3.517 10.248 10.003 10.248z" fill="#141414"/><path d="M203.884 21.276c5.386 0 9.783-4.407 9.783-9.807s-4.397-9.807-9.783-9.807c-5.387 0-9.784 4.408-9.784 9.807.11 5.4 4.397 9.807 9.784 9.807z" stroke="#141414" stroke-width="1.769"/><path d="M210.04 11.47h-5.387v-5.4h-1.429v6.832h6.816v-1.433z" fill="#141414"/></svg>