<svg width="164" height="51" viewBox="0 0 164 51" fill="none" xmlns="http://www.w3.org/2000/svg"><path d="M22.74 1.136c1.064.036 1.093.062 1.093 1.01v32.49c0 .985-.032 1.018-1.003 1.119-5.907.616-11.499 2.257-16.695 5.166-1.11.617-2.161 1.315-3.24 1.973l.087.155c.184-.106.37-.21.55-.318 5.166-3.114 10.756-5.03 16.724-5.855 1.197-.166 2.405-.26 3.611-.37.725-.067.847-.178.848-.892 0-3.061.008-6.124-.008-9.186a1.433 1.433 0 0 1 .428-1.084c4.492-4.781 7.923-10.248 10.468-16.276.054-.13.123-.255.179-.376.957.165.957.165.957 1.06v29.375c-.617.028-1.227.175-1.792.065a52.463 52.463 0 0 0-16.12-.625c-5.416.623-10.57 2.085-15.423 4.586a6.867 6.867 0 0 0-.43.24c-.028.017-.039.063-.123.2.268-.105.45-.171.628-.247a55.908 55.908 0 0 1 16.376-4.262c5.57-.59 11.068-.173 16.501 1.149.918.223 1.28-.057 1.28-1 0-4.664.006-9.329-.01-13.994a1.356 1.356 0 0 1 .499-1.11c2.885-2.682 5.75-5.386 8.705-8.16.37.067.553.37.552.949-.018 8.96-.022 17.92-.012 26.88 0 .825-.493 1.194-1.289.928-3.642-1.225-7.35-2.22-11.16-2.724-2.905-.39-5.83-.716-8.754-.85A70.099 70.099 0 0 0 3.884 43.77c-.81.227-1.603.508-2.407.751-.221.067-.457.088-.761.144 0-1.162-.019-2.228.016-3.29 0-.188.203-.39.353-.547a90.833 90.833 0 0 0 12.162-16.012c3.946-6.626 7.128-13.58 8.95-21.108.205-.857.364-1.72.543-2.57zm56.425.206V19.8c-.617 0-1.205.031-1.79-.023-.123-.012-.32-.323-.324-.5-.028-1.234-.016-2.467-.016-3.7V4.504c-.458 1.067-1.059 2.499-1.686 3.918-1.603 3.622-3.206 7.236-4.81 10.857-.156.355-.325.543-.761.543-.437 0-.605-.184-.764-.54-1.993-4.476-4.004-8.946-5.998-13.425-.237-.532-.396-1.1-.643-1.797v15.7H60.39V1.353c.873 0 1.727-.036 2.58.029.185.013.402.356.505.59 1.465 3.3 2.92 6.603 4.364 9.911.647 1.48 1.28 2.97 1.936 4.495.054-.068.102-.141.143-.217 2.128-4.8 4.258-9.597 6.39-14.392.08-.18.33-.391.513-.401.755-.052 1.516-.026 2.345-.026zM60.513 44.484V26.042c.047-.028.081-.069.116-.068 2.927.018 5.874-.293 8.763.43 3.478.869 5.548 3.382 5.85 6.973.157 1.905.085 3.78-.672 5.56-1.313 3.083-3.757 4.824-6.987 5.257-2.303.315-4.663.207-7.07.29zm2.155-2.056c1.367 0 2.683.074 3.988-.014 3.226-.218 5.499-2.172 6.204-5.296a9.911 9.911 0 0 0-.044-4.457c-.549-2.371-2.04-3.83-4.375-4.425a9.976 9.976 0 0 0-2.063-.31c-1.223-.05-2.45-.015-3.71-.015v14.517zm86.687-22.668h-2.077V9.28c0-1.02.106-.899-.937-.908h-1.246V6.655h2.196c0-.911-.031-1.744.007-2.576.067-1.46.656-2.654 1.91-3.466 1.049-.679 2.204-.711 3.381-.493a.552.552 0 0 1 .349.382c.043.486.016.977.016 1.501-.379-.086-.692-.176-1.012-.227-1.233-.195-2.254.451-2.444 1.68-.143.927-.111 1.88-.123 2.822 0 .123.194.341.3.343 1.658.022 3.316.015 5.044.015 0-.96.019-1.839-.008-2.713-.012-.395.112-.6.501-.698.511-.13 1.01-.312 1.611-.502v3.91h3.241V8.36h-3.18c-.019.284-.043.493-.043.715v7.152c.053 1.75 1.165 2.506 2.835 1.927.114-.04.227-.075.436-.143 0 .516.024.98-.015 1.44a.55.55 0 0 1-.31.38c-1.213.396-2.424.432-3.575-.202-.91-.5-1.3-1.371-1.383-2.343-.096-1.123-.091-2.255-.101-3.382-.013-1.806 0-3.612 0-5.488-.262-.013-.479-.031-.698-.031-1.293 0-2.589.028-3.881-.015-.601-.02-.806.123-.799.77.037 3.286.017 6.573.017 9.864l-.012.757zm-24.258 24.702v-.74c0-2.424.006-4.848 0-7.274a6.657 6.657 0 0 0-.134-1.343c-.241-1.146-.83-2.027-2.046-2.285-1.268-.267-2.362.05-3.16 1.137-.616.844-.863 1.805-.863 2.836v7.624h-2.042v-13.07h2.02v1.83c1.064-1.393 2.361-2.241 4.127-2.219 1.806.026 3.065.883 3.774 2.635.302-.394.543-.74.814-1.06 1.413-1.665 4.16-2.117 6.01-.972 1.233.76 1.701 1.993 1.802 3.34.124 1.553.11 3.116.124 4.676.019 1.603 0 3.197 0 4.838h-2.052c-.013-.254-.036-.493-.036-.728 0-2.26.014-4.52-.011-6.782a10.319 10.319 0 0 0-.21-2.014c-.45-2.12-2.928-2.91-4.562-1.463-1.048.932-1.467 2.154-1.48 3.524-.013 2.24 0 4.478 0 6.718 0 .786 0 .786-.813.786l-1.262.006zm-11.451-24.359c-3.606-.013-6.108-2.32-6.315-5.919-.071-1.04.002-2.085.217-3.106.635-2.806 2.748-4.58 5.633-4.73a9.605 9.605 0 0 1 3.093.325c2.033.584 3.162 2.12 3.682 4.105a9.22 9.22 0 0 1 .013 4.632c-.746 2.959-3.107 4.703-6.323 4.693zm4.497-6.746c-.078-.694-.109-1.291-.217-1.873-.351-1.893-1.649-3.177-3.358-3.363-2.271-.246-3.924.608-4.694 2.532a6.776 6.776 0 0 0-.026 5.104c.667 1.712 2.295 2.7 4.146 2.596 2.045-.115 3.317-1.095 3.831-3.03.177-.67.224-1.37.318-1.966zm19.641 6.744c-3.729-.01-6.296-2.57-6.373-6.353-.024-1.22.078-2.422.534-3.565 1.216-3.05 3.998-4.234 7.227-3.808 3.012.397 4.922 2.5 5.108 5.556.068 1.132.063 2.315-.183 3.413-.68 3.025-3.075 4.767-6.313 4.757zm4.505-6.753c-.071-.657-.106-1.21-.195-1.755-.318-1.934-1.645-3.282-3.393-3.473-2.261-.247-3.946.639-4.685 2.54a6.951 6.951 0 0 0-.045 5.056c.639 1.726 2.321 2.752 4.18 2.637 2.075-.123 3.36-1.143 3.843-3.1.157-.652.208-1.332.295-1.905zm-28.833 31.074h-2.041v-2.029c-.229.289-.37.45-.494.617-1.542 2.171-4.652 2.096-6.208 1.1-1.325-.849-1.708-2.127-1.603-3.624.105-1.497.798-2.702 2.212-3.196 1.3-.455 2.701-.627 4.069-.895.64-.124 1.292-.192 1.929-.283.362-1.934-.822-3.366-2.739-3.37-1.544 0-2.879.555-4.192 1.561 0-.72-.016-1.341.013-1.959.007-.123.167-.287.295-.346 1.884-.864 3.822-1.375 5.903-.82 1.726.463 2.784 1.78 2.836 3.804.082 3.122.02 6.242.02 9.44zm-2.096-6.712c-1.603.304-3.185.533-4.723.916-.987.247-1.429 1.056-1.422 2.132a2.102 2.102 0 0 0 1.42 2.033c1.142.41 2.237.262 3.215-.452 1.542-1.128 1.677-2.752 1.509-4.629h.001zm-35.406-6.404c.74 0 1.38-.032 2.01.02.167.014.39.261.455.447 1.217 3.484 2.413 6.973 3.615 10.461.024.05.053.098.086.143.435-1.196.863-2.365 1.286-3.532.863-2.343 1.734-4.692 2.58-7.046.13-.37.293-.531.695-.504.51.034 1.024.008 1.636.008-.161.437-.29.81-.435 1.177-1.867 4.707-3.699 9.429-5.631 14.112a10.927 10.927 0 0 1-1.805 2.895c-1.048 1.22-2.495 1.364-4.036 1.023v-1.786c.186.024.342.035.493.066 1.26.255 2.24-.156 2.836-1.31.456-.917.863-1.86 1.218-2.82.08-.208-.01-.515-.1-.74a3267.174 3267.174 0 0 0-4.63-11.864c-.08-.211-.152-.42-.273-.75zm24.929 13.153h-1.756c-.439 0-.328-.346-.329-.586-.007-2.322 0-4.642-.012-6.964a9.394 9.394 0 0 0-.173-1.648c-.223-1.19-.808-2.138-2.063-2.422-1.308-.296-2.49.017-3.421 1.035-.79.863-1.11 1.907-1.11 3.052-.009 2.26 0 4.52 0 6.782v.714h-2.037V31.365h2.016v1.908l.123.059c.116-.147.233-.29.346-.438a4.922 4.922 0 0 1 5.565-1.693c1.756.604 2.5 2.006 2.706 3.708.146 1.217.123 2.457.133 3.688.026 1.927.012 3.854.012 5.862zm54.079-2.699c1.357.98 2.702 1.419 4.233 1.176.966-.153 1.512-.587 1.675-1.379.179-.863-.096-1.497-.952-2.002-.617-.364-1.273-.662-1.911-.987-.383-.196-.77-.386-1.147-.594-1.318-.729-1.912-1.85-1.85-3.354.067-1.446.82-2.426 2.05-3.062 1.637-.846 3.329-.756 5.011-.137a.657.657 0 0 1 .331.485c.045.53.016 1.065.016 1.61-.616-.224-1.188-.544-1.791-.623a6.787 6.787 0 0 0-2.239.055c-.729.15-1.188.74-1.253 1.51-.063.747.191 1.39.873 1.775.552.31 1.133.573 1.7.863.512.26 1.034.5 1.529.787 1.347.778 1.953 1.95 1.786 3.502-.159 1.48-1.041 2.45-2.373 2.959-1.758.674-3.542.592-5.271-.158-.195-.085-.377-.407-.402-.637-.054-.548-.015-1.102-.015-1.788zm-33.045-24.649c1.365.97 2.713 1.41 4.242 1.163.919-.148 1.501-.603 1.652-1.334.183-.883-.079-1.52-.912-2.022-.617-.37-1.268-.67-1.905-.998-.311-.159-.625-.308-.936-.465-1.603-.806-2.309-2.108-2.053-3.882.237-1.637 1.329-2.54 2.811-3.015 1.375-.44 2.752-.327 4.111.138.344.123.485.307.46.678-.032.493-.007.987-.007 1.392-.873-.225-1.726-.505-2.59-.648a3.287 3.287 0 0 0-1.448.153c-.718.221-1.183.748-1.248 1.524-.063.748.188 1.388.873 1.771.571.32 1.169.591 1.753.888.512.26 1.035.493 1.528.792 1.288.765 1.88 1.906 1.74 3.405-.134 1.43-.933 2.407-2.207 2.949-1.807.768-3.644.688-5.438-.077-.195-.084-.377-.407-.402-.637-.063-.542-.024-1.094-.024-1.775zm31.465 24.809c0 .627.027 1.158-.018 1.683a.662.662 0 0 1-.347.434c-3.422 1.672-8.719.684-9.435-4.76-.341-2.59.159-4.997 2.24-6.763 2.158-1.83 4.655-1.94 7.24-1.032.159.056.316.343.332.534.046.53.016 1.066.016 1.71-.226-.124-.391-.213-.555-.304-3.388-1.893-7.121.254-7.217 4.14-.031 1.254.103 2.466.796 3.544 1.177 1.837 3.689 2.436 5.863 1.4.331-.157.648-.347 1.085-.586zM97.648 9.034c-.37-.185-.649-.34-.94-.471-3.228-1.46-6.52.466-6.77 4a8.08 8.08 0 0 0 .18 2.5c.703 2.776 3.492 4.031 6.239 2.87.39-.166.76-.381 1.233-.617 0 .617.04 1.16-.024 1.697-.02.173-.286.383-.484.463-2.343.953-4.676.995-6.792-.525-2.116-1.52-2.698-3.778-2.503-6.269.174-2.22 1.027-4.117 2.968-5.333 2.047-1.28 4.25-1.356 6.497-.553.16.057.37.246.38.394.04.584.016 1.174.016 1.844zm4.591 10.736h-2.047c-.014-.246-.04-.458-.04-.674 0-3.92.011-7.84-.016-11.76 0-.59.198-.749.74-.7.425.037.854.007 1.344.007v2.43l.123.032c.11-.222.217-.445.332-.664.795-1.535 2.009-2.183 3.727-2.02.397.037.599.161.575.598-.029.508 0 1.02 0 1.561-.41-.088-.76-.181-1.11-.236-1.157-.173-2.045.282-2.692 1.221-.647.94-.909 2.01-.915 3.14-.012 2.114 0 4.228 0 6.342l-.021.724zM83.097 6.645c.573 0 1.11-.028 1.632.018.145.012.39.246.39.37.017 4.184.008 8.37 0 12.557a.728.728 0 0 1-.057.162h-1.973l.008-13.107zm57.738 24.658v13.154c-.59 0-1.161.023-1.726-.02-.108-.008-.27-.266-.283-.42-.04-.428-.015-.863-.015-1.293 0-3.554.019-7.107-.018-10.661 0-.652.195-.835.799-.768.414.025.829.027 1.243.008zM82.793 2.26a1.356 1.356 0 1 1 2.712.027 1.348 1.348 0 0 1-1.378 1.356c-.786-.012-1.342-.587-1.334-1.383zm58.447 24.644a1.352 1.352 0 0 1-1.33 1.397 1.364 1.364 0 1 1 .476-2.647 1.3 1.3 0 0 1 .754.725c.069.166.103.345.1.525z" fill="#141414"/></svg>