<svg width="184" height="52" viewBox="0 0 184 52" fill="none" xmlns="http://www.w3.org/2000/svg"><path d="M71.683 19.995c0-2.267.608-3.903 1.825-4.907 1.215-1.002 3.149-1.504 5.806-1.504h11.818c4.56 0 7.165 1.58 7.808 4.742l-2.272 1.685c0-1.36-.43-2.368-1.284-3.026-.968-.745-2.554-1.117-4.759-1.117H79.347c-2.093 0-3.513.339-4.253 1.015-.653.59-.98 1.627-.98 3.113 0 1.31.36 2.195 1.08 2.653.856.547 2.499.82 4.93.82H90.59c3.037 0 5.25.473 6.634 1.419 1.385.947 2.075 2.452 2.075 4.518v.457c0 2.35-.595 4.003-1.79 4.958-1.193.956-3.16 1.438-5.907 1.438H79.514c-2.408 0-4.264-.522-5.57-1.566-1.372-1.109-2.059-2.742-2.059-4.894l2.43-1.813c0 1.37-.22 3.94 1.25 4.846 1.052.651 2.554 1.14 4.761 1.14H91.4c1.845 0 3.217-.33 4.119-.991.9-.664 1.35-1.726 1.35-3.183 0-1.477-.4-2.523-1.199-3.131-.798-.61-2.279-.914-4.44-.914H79.448c-3.016 0-5.098-.48-6.247-1.44-1.012-.85-1.518-2.289-1.518-4.318zm65.364 16.263h-2.431V15.411h-1.351l-12.626 20.847h-1.25l-12.627-20.847h-1.384v20.847h-2.43V13.585h5.199l11.884 19.345 11.816-19.345h5.2v22.673zm3.849-16.263c0-2.267.608-3.903 1.822-4.907 1.214-1.002 3.153-1.504 5.809-1.504h11.816c5.312 0 7.969 2.142 7.969 6.427l-2.432 1.36c0-1.36.224-2.925-1.284-4.386-.874-.847-2.555-1.117-4.762-1.117h-11.276c-2.093 0-3.51.339-4.251 1.015-.656.59-.981 1.627-.981 3.113 0 1.31.359 2.195 1.079 2.653.855.547 2.499.82 4.928.82H159.8c3.039 0 5.252.473 6.634 1.419 1.386.947 2.076 2.452 2.076 4.518v.457c0 2.35-.596 4.003-1.787 4.958-1.194.956-3.162 1.438-5.909 1.438h-12.089c-2.411 0-4.266-.522-5.57-1.566-.983-.794-1.614-1.851-1.891-3.18l2.264-1.715c0 1.37.414 2.383 1.248 3.035.968.762 2.554 1.142 4.761 1.142h11.076c1.846 0 3.216-.331 4.119-.993.899-.664 1.351-1.726 1.351-3.183 0-1.477-.401-2.523-1.201-3.131-.797-.61-2.278-.915-4.44-.915h-11.781c-3.016 0-5.099-.48-6.247-1.439-1.013-.85-1.518-2.29-1.518-4.319zM73.33 45.108h-1.382c0-1.08.283-1.772.85-2.072.569-.3 1.461-.45 2.682-.45.915 0 1.646.07 2.194.209.546.141.962.432 1.252.873.29.435.432 1.09.432 1.962v5.63h-1.27l.083-.907c-.34.427-.75.707-1.231.843-.483.136-1.082.205-1.797.205-.803 0-1.453-.07-1.953-.205-.5-.14-.883-.408-1.152-.804-.268-.397-.402-.976-.402-1.734 0-.723.142-1.274.427-1.657a2.023 2.023 0 0 1 1.17-.762c.495-.128 1.124-.188 1.888-.188.703 0 1.286.05 1.747.147.459.097.83.34 1.112.72v-1.003c0-.728-.064-1.255-.193-1.587a1.071 1.071 0 0 0-.714-.655c-.347-.11-.907-.163-1.682-.163-.842 0-1.414.115-1.711.345-.268.177-.398.494-.398.949a.61.61 0 0 0 .023.142.77.77 0 0 1 .025.162zm-.297 3.409c0 .725.149 1.212.45 1.46.3.251.834.378 1.598.378.589 0 1.084-.03 1.487-.086.402-.057.75-.203 1.048-.438.298-.237.446-.607.446-1.112 0-.704-.206-1.158-.617-1.356-.41-.199-1.032-.3-1.866-.3h-.335c-.972 0-1.604.128-1.897.386-.208.161-.314.516-.314 1.068zm16.324-.423h1.337c0 .886-.124 1.56-.374 2.021-.25.464-.643.778-1.176.95-.534.17-1.276.257-2.228.257-.932 0-1.663-.093-2.196-.27-.533-.179-.924-.455-1.175-.827-.249-.374-.408-.825-.473-1.352-.067-.531-.101-1.274-.101-2.231 0-1.02.112-1.821.332-2.411a2.313 2.313 0 0 1 1.19-1.305c.574-.282 1.381-.423 2.423-.423 1.15 0 2.035.179 2.659.535.622.357.934 1.06.934 2.11v.283h-1.293c0-.524-.071-.918-.213-1.184a1.108 1.108 0 0 0-.667-.546c-.304-.097-.728-.147-1.272-.147-.813 0-1.403.076-1.774.226-.37.153-.618.43-.74.825-.12.4-.183 1.028-.183 1.893v.866c0 .766.045 1.344.135 1.731.09.389.308.685.66.888.35.206.9.31 1.65.31.72 0 1.247-.047 1.587-.137.339-.09.584-.288.734-.599.151-.315.224-.8.224-1.463zm11.208 0h1.334c0 .886-.123 1.56-.375 2.021-.248.464-.64.778-1.174.95-.532.17-1.275.257-2.227.257-.931 0-1.663-.093-2.198-.27-.531-.179-.924-.455-1.174-.827-.25-.374-.407-.825-.474-1.352-.066-.531-.099-1.274-.099-2.231 0-1.02.112-1.821.332-2.411.22-.59.617-1.026 1.19-1.305.573-.282 1.379-.423 2.424-.423 1.149 0 2.034.179 2.656.535.626.357.938 1.06.938 2.11v.283h-1.295c0-.524-.07-.918-.212-1.184a1.102 1.102 0 0 0-.666-.546c-.306-.097-.73-.147-1.274-.147-.81 0-1.403.076-1.774.226-.37.153-.616.43-.74.825-.121.4-.183 1.028-.183 1.893v.866c0 .766.047 1.344.134 1.731.09.389.312.685.662.888.35.206.898.31 1.65.31.717 0 1.246-.047 1.586-.137.338-.09.582-.288.735-.599.148-.315.224-.8.224-1.463zm22.799 0h1.334c0 .886-.124 1.56-.376 2.021-.247.464-.641.778-1.173.95-.533.17-1.277.257-2.227.257-.932 0-1.664-.093-2.197-.27-.533-.179-.926-.455-1.176-.827-.248-.374-.407-.825-.473-1.352-.067-.531-.098-1.274-.098-2.231 0-1.02.109-1.821.33-2.411a2.299 2.299 0 0 1 1.189-1.305c.574-.282 1.38-.423 2.426-.423 1.149 0 2.034.179 2.658.535.622.357.934 1.06.934 2.11v.283h-1.292c0-.524-.072-.918-.213-1.184a1.106 1.106 0 0 0-.666-.546c-.307-.097-.729-.147-1.274-.147-.81 0-1.403.076-1.772.226a1.25 1.25 0 0 0-.741.825c-.122.4-.182 1.028-.182 1.893v.866c0 .766.046 1.344.134 1.731.089.389.312.685.661.888.349.206.899.31 1.651.31.717 0 1.246-.047 1.586-.137a1.09 1.09 0 0 0 .734-.599c.147-.315.223-.8.223-1.463zm21.272.52h1.402c0 .81-.151 1.415-.457 1.812-.303.395-.719.65-1.239.763-.524.114-1.231.171-2.125.171-.841 0-1.522-.074-2.042-.217-.523-.144-.926-.38-1.207-.702-.285-.321-.483-.748-.592-1.276-.111-.527-.166-1.21-.166-2.04 0-1.141.078-2.029.235-2.661A2.313 2.313 0 0 1 139.498 43c.544-.344 1.38-.514 2.508-.514 1.127 0 1.97.112 2.535.336.563.226.949.614 1.159 1.169.208.553.322 1.39.338 2.509v.67h-6.432c0 .796.039 1.399.113 1.81.078.41.29.738.634.982.346.246.894.371 1.653.371h.355c.75 0 1.314-.088 1.7-.26.382-.17.575-.563.575-1.171v-.29zm.026-2.457c0-.776-.053-1.347-.156-1.707a1.12 1.12 0 0 0-.689-.761c-.355-.144-.924-.215-1.705-.215-.686 0-1.208.079-1.562.238a1.34 1.34 0 0 0-.739.806c-.136.376-.205.922-.205 1.64h5.056zm11.234-.143v-3.427h1.315v8.675h-1.355v-4.099h-4.845v4.1h-1.331v-8.657h1.331v3.408h4.885zm-23.717 5.222h-1.316v-7.641h-3.272v-1.057h7.824v1.057h-3.236v7.641zm33.237.037h-1.314v-7.64h-3.277v-1.058h7.827v1.058h-3.236v7.64zm-59.901-.021v-8.696h1.313v7.708l4.365-7.708h2.192v8.696h-1.315v-7.709l-4.311 7.709h-2.244zM31.989 37.397l28.4-23a5.446 5.446 0 0 0-2.633-.673H2.758L31.99 37.397zm31.23 12.947v-31.19c0-1.27-.441-2.436-1.178-3.36l-22.277 18.04 23.455 16.51zm-39.007-16.51L.758 14.839v30.904c0 1.393.531 2.657 1.397 3.617l22.057-15.526z" fill="#141414"/><path d="M39.003 34.45l-7.014 5.682-7.015-5.681L2.86 50.015a5.444 5.444 0 0 0 3.362 1.158h56.539L39.003 34.45zM170.874 6.856c0-3.692 3.002-6.425 6.539-6.425 3.507 0 6.51 2.733 6.51 6.425 0 3.725-3.001 6.457-6.51 6.457-3.538 0-6.539-2.732-6.539-6.457zm6.539 5.377c2.921 0 5.213-2.274 5.213-5.377 0-3.051-2.294-5.345-5.213-5.345-2.948 0-5.241 2.294-5.241 5.345 0 3.103 2.291 5.377 5.241 5.377zm-1.365-1.652h-1.112V3.163h2.817c1.752 0 2.631.64 2.631 2.109 0 1.33-.841 1.904-1.923 2.038l2.109 3.27h-1.266l-1.955-3.221h-1.299l-.002 3.222zm0-4.163h1.352c.96 0 1.802-.068 1.802-1.215 0-.927-.825-1.095-1.617-1.095h-1.534l-.003 2.31z" fill="#141414"/></svg>