<svg width="218" height="29" viewBox="0 0 218 29" fill="none" xmlns="http://www.w3.org/2000/svg"><path d="M22.48.86v16.222c0 7.635-4.878 11.452-11.24 11.452C4.77 28.534 0 24.717 0 17.082V.86h5.62v15.905c0 4.772 2.332 6.468 5.62 6.468 3.287 0 5.62-1.802 5.62-6.468V.86h5.62zm28.204 0v27.25h-6.468L32.87 9.872V28.11h-5.62V.86h6.363L45.17 19.202V.859h5.514zm88.114 0v27.25h-6.468L120.984 9.872V28.11h-5.619V.86h6.361l11.346 18.343V.859h5.726zM56.41.86h5.62v27.25h-5.62V.86zm32.234 19.297c0 6.362-5.726 8.483-10.391 8.483-7.953 0-11.24-4.56-11.876-9.225h5.62c.742 2.65 2.332 4.03 6.256 4.03 3.18 0 4.771-1.167 4.771-3.076 0-2.014-1.908-2.333-6.68-3.393-4.877-1.06-9.225-2.65-9.225-7.952 0-5.726 5.09-8.59 10.285-8.59 7.317 0 10.392 3.924 11.028 8.484h-5.62c-.636-1.909-1.909-3.287-5.302-3.287-3.287 0-4.665 1.378-4.665 3.18 0 1.591 1.378 2.015 4.984 2.757 7.104 1.485 10.815 3.075 10.815 8.59zM97.975 6.16v5.514h10.816v5.302H97.975v5.832H110.7v5.302H92.356V.86h18.343v5.3H97.975zm70.406 8.377c0 7.74-6.044 13.679-13.89 13.679h-9.862V.859h9.862c7.846 0 13.89 5.832 13.89 13.678zm-5.62 0c0-4.877-3.499-8.376-8.377-8.376h-4.241v16.647h4.241c4.878.106 8.377-3.393 8.377-8.27zm14.527-8.377v5.514h10.815v5.302h-10.815v5.832h12.724v5.302h-18.344V.86h18.344v5.3h-12.724zm25.872 12.195h-3.075v9.86h-5.62V.86h11.77c5.831 0 9.33 3.5 9.33 8.907 0 4.453-2.332 7.21-6.149 8.164l7.634 10.286h-6.892l-6.998-9.861zm-3.075-4.878h5.513c2.969 0 4.242-1.378 4.242-3.605 0-2.227-1.379-3.711-4.242-3.711h-5.513v7.316z" fill="#141414"/></svg>