<svg width="97" height="54" viewBox="0 0 97 54" fill="none" xmlns="http://www.w3.org/2000/svg"><path fill-rule="evenodd" clip-rule="evenodd" d="M32.898 14.943C30.313 7.835 37.744.243 43.802 0c3.635 1.858 6.785 6.704 6.623 13.327-.484 8.158-6.38 15.185-12.762 21.647-.403-7.916-2.1-12.924-4.765-20.031zm63.889 23.1V14.62a.724.724 0 0 0-.726-.727h-3.393a.724.724 0 0 0-.727.726v23.343c0 .404.323.808.727.808h3.393a.724.724 0 0 0 .726-.727zm-17.85.646V14.054c-1.938.08-4.846 1.292-4.846 3.877v16.881c-1.05.162-2.665.323-3.554.323-3.15 0-3.958-2.261-3.958-5.25V17.77c-.161-2.908-3.554-3.797-4.846-3.716v15.831c0 5.735 2.908 9.208 8.804 9.208.888 0 2.746-.242 3.554-.404v.323c.727 4.846-5.089 2.989-8.32 2.666-2.342 0-3.957 1.938-4.361 4.119 1.373.404 5.816.97 8.966 1.292 5.573-.08 8.561-3.15 8.561-8.4zm8.885-.646V14.62a.724.724 0 0 0-.727-.727h-3.392a.724.724 0 0 0-.727.726v23.343c0 .404.323.808.727.808h3.392a.724.724 0 0 0 .727-.727zM85.399 7.269a2.517 2.517 0 0 1 2.504 2.504 2.516 2.516 0 0 1-2.504 2.504 2.516 2.516 0 0 1-2.504-2.504c-.08-1.373 1.05-2.504 2.504-2.504zm8.965 0a2.517 2.517 0 0 1 2.504 2.504 2.516 2.516 0 0 1-2.504 2.504 2.516 2.516 0 0 1-2.504-2.504 2.517 2.517 0 0 1 2.504-2.504zM18.52 53.551c-1.05-7.916 2.262-14.7 5.574-18.82 7.108-8.884 6.704-14.215 5.977-18.738 3.715 5.815 6.058 12.842 6.623 19.061.242 5.008-3.473 16.8-18.173 18.497z" fill="#141414"/><path fill-rule="evenodd" clip-rule="evenodd" d="M13.432 23.343C2.69 20.435.024 11.146.51 4.927c10.42-4.12 21.727.08 28.189 8.966 4.523 6.219 7.43 14.134 7.996 21.08-3.15-4.038-7.108-6.38-12.116-8.157-3.392-1.293-6.623-2.1-11.146-3.473z" fill="#141414"/><path fill-rule="evenodd" clip-rule="evenodd" d="M30.071 15.912c.08.08.162.242.242.323l.081.162c.162.242.323.565.485.807v.08l.08.082v.08l.081.162.162.242c.08.162.242.404.323.646l.161.243.162.242v.08l.08.162.081.162.081.162c.081.161.162.323.242.565v.08l.485.97.08.242.082.162.08.161.081.081.081.162.08.161.082.242.161.324c.162.323.242.646.404.969l.08.242.081.162c.081.161.162.323.162.565v.08c.08.162.162.405.242.566v.081c.081.162.162.404.162.565v.081l.08.323.081.323.081.323.081.243v.08l.08.162c.081.162.081.323.162.565v.162l.081.242.242.97c.081.403.162.888.243 1.292v.08c.161.647.242 1.374.323 2.02 0 .242.08.404.08.646v1.373c-2.342-2.988-5.088-5.008-8.4-6.623 3.15-5.17 2.827-8.966 2.262-12.277z" fill="#141414"/></svg>