<svg width="239" height="31" viewBox="0 0 239 31" fill="none" xmlns="http://www.w3.org/2000/svg"><path d="M23.549 6.435h-8.856v24.167H8.736V6.434H0v-4.84h23.549v4.841zM34.688 31c-3.15 0-5.719-.97-7.704-2.909-1.973-1.939-2.959-4.522-2.959-7.75v-.558c0-2.165.417-4.097 1.251-5.797.834-1.713 2.012-3.028 3.534-3.945 1.536-.93 3.283-1.394 5.242-1.394 2.939 0 5.248.93 6.93 2.789 1.694 1.86 2.541 4.496 2.541 7.91v2.35h-13.68c.185 1.408.741 2.537 1.668 3.387.94.85 2.124 1.275 3.554 1.275 2.21 0 3.938-.804 5.182-2.41l2.82 3.167c-.86 1.222-2.026 2.178-3.495 2.869-1.47.677-3.098 1.016-4.885 1.016zm-.656-17.691c-1.138 0-2.065.385-2.78 1.155-.701.77-1.151 1.873-1.35 3.307h7.982v-.458c-.026-1.275-.37-2.258-1.032-2.949-.662-.704-1.602-1.056-2.82-1.056zm21.702 13.049c1.06 0 1.92-.292 2.581-.877.662-.584 1.007-1.361 1.033-2.33h5.38a7.454 7.454 0 0 1-1.19 4.024c-.782 1.209-1.854 2.151-3.217 2.829-1.35.664-2.846.996-4.487.996-3.072 0-5.494-.976-7.268-2.929-1.773-1.965-2.66-4.675-2.66-8.128v-.379c0-3.32.88-5.97 2.64-7.949 1.761-1.979 4.177-2.968 7.248-2.968 2.687 0 4.838.77 6.453 2.31 1.628 1.528 2.455 3.567 2.482 6.117h-5.381c-.026-1.116-.37-2.019-1.033-2.71-.661-.704-1.535-1.056-2.62-1.056-1.337 0-2.35.492-3.038 1.475-.675.97-1.013 2.55-1.013 4.741v.598c0 2.218.338 3.812 1.013 4.782.675.97 1.7 1.454 3.077 1.454zm17.87-14.962c1.522-1.833 3.435-2.75 5.738-2.75 4.66 0 7.023 2.717 7.089 8.149v13.806h-5.739V16.955c0-1.235-.264-2.145-.794-2.73-.53-.597-1.41-.896-2.64-.896-1.682 0-2.9.651-3.654 1.953V30.6h-5.738V0h5.738v11.396zM96.04 9.045l.18 2.49c1.535-1.926 3.593-2.888 6.175-2.888 2.276 0 3.971.67 5.083 2.012 1.111 1.341 1.681 3.347 1.707 6.016v13.927h-5.738V16.815c0-1.222-.265-2.105-.794-2.65-.53-.558-1.41-.837-2.641-.837-1.615 0-2.826.691-3.634 2.072v15.202H90.64V9.045h5.4zm16.62 10.579c0-2.138.41-4.044 1.231-5.718.821-1.673 1.999-2.968 3.534-3.885 1.549-.916 3.342-1.374 5.381-1.374 2.899 0 5.262.89 7.088 2.67 1.84 1.779 2.866 4.196 3.078 7.251l.04 1.474c0 3.308-.92 5.964-2.76 7.97-1.84 1.992-4.309 2.988-7.406 2.988-3.098 0-5.573-.996-7.426-2.988-1.84-1.993-2.76-4.702-2.76-8.129v-.259zm5.738.418c0 2.046.384 3.613 1.152 4.702.767 1.076 1.866 1.614 3.296 1.614 1.39 0 2.475-.531 3.256-1.594.781-1.076 1.171-2.79 1.171-5.14 0-2.005-.39-3.56-1.171-4.662-.781-1.102-1.88-1.653-3.296-1.653-1.403 0-2.489.55-3.256 1.653-.768 1.09-1.152 2.783-1.152 5.08zm25.018-16.297v5.3h3.673v4.224h-3.673v10.758c0 .797.152 1.368.457 1.713.304.346.886.518 1.747.518.635 0 1.198-.046 1.688-.14v4.364a11.785 11.785 0 0 1-3.475.518c-4.024 0-6.076-2.039-6.155-6.116V13.269h-3.138V9.045h3.138v-5.3h5.738zm12.926 26.857h-5.758V9.045h5.758v21.556zm-6.096-27.135c0-.864.285-1.574.854-2.132.582-.558 1.37-.837 2.363-.837.979 0 1.76.279 2.343.837.582.558.873 1.268.873 2.132 0 .876-.297 1.593-.893 2.151-.583.558-1.357.837-2.323.837-.967 0-1.748-.279-2.343-.837-.583-.558-.874-1.275-.874-2.151zm16.897 27.135h-5.758V0h5.758v30.602zm14.634.398c-3.151 0-5.719-.97-7.704-2.909-1.973-1.939-2.959-4.522-2.959-7.75v-.558c0-2.165.417-4.097 1.251-5.797.834-1.713 2.012-3.028 3.534-3.945 1.536-.93 3.283-1.394 5.242-1.394 2.939 0 5.249.93 6.93 2.789 1.694 1.86 2.541 4.496 2.541 7.91v2.35h-13.68c.185 1.408.741 2.537 1.668 3.387.94.85 2.124 1.275 3.554 1.275 2.21 0 3.938-.804 5.182-2.41l2.82 3.167c-.861 1.222-2.026 2.178-3.495 2.869-1.469.677-3.097 1.016-4.884 1.016zm-.656-17.691c-1.138 0-2.065.385-2.779 1.155-.702.77-1.152 1.873-1.351 3.307h7.982v-.458c-.026-1.275-.37-2.258-1.032-2.949-.662-.704-1.602-1.056-2.82-1.056zm13.065 14.464c0-.917.305-1.66.914-2.232.622-.571 1.396-.857 2.323-.857.94 0 1.714.286 2.323.857.622.571.933 1.315.933 2.232 0 .903-.304 1.64-.913 2.21-.609.559-1.39.838-2.343.838-.94 0-1.714-.28-2.323-.837-.609-.571-.914-1.308-.914-2.212zm23.608-13.329a15.527 15.527 0 0 0-2.065-.16c-2.17 0-3.593.738-4.269 2.212v14.106h-5.738V9.045h5.421l.159 2.57c1.151-1.979 2.746-2.968 4.785-2.968.635 0 1.231.086 1.787.259l-.08 5.538zM233.44 28.41c-1.416 1.727-3.375 2.59-5.877 2.59-2.303 0-4.063-.664-5.281-1.992-1.205-1.328-1.82-3.274-1.847-5.838V9.045h5.738v13.926c0 2.245 1.02 3.367 3.058 3.367 1.946 0 3.283-.677 4.011-2.032V9.045H239v21.557h-5.401l-.159-2.192z" fill="#000"/></svg>