<svg width="165" height="48" viewBox="0 0 165 48" fill="none" xmlns="http://www.w3.org/2000/svg"><rect width="164.359" height="47.597" rx="23.799" fill="#141414"/><path d="M33.119 16.317H27.04v-3.079h15.45v3.079h-6.078V31.98h-3.293V16.317zm22.095 0h-6.078v-3.079h15.449v3.079h-6.078V31.98h-3.293V16.317zm33.614-3.079V31.98h-2.624L75.896 18.994V31.98h-3.079V13.238h2.624l10.308 13.039V13.238h3.079zm22.648 17.697V13.238h3.079v7.443c.875-.696 1.937-1.044 3.186-1.044 1.767 0 3.159.571 4.177 1.713 1.035 1.107 1.553 2.58 1.553 4.418 0 1.981-.625 3.56-1.875 4.739-1.231 1.178-2.9 1.767-5.006 1.767-.928 0-1.865-.125-2.811-.375-.929-.25-1.696-.571-2.303-.964zm5.542-8.407c-.982 0-1.803.384-2.463 1.152v5.113a4.07 4.07 0 0 0 2.195.616c1.018 0 1.839-.303 2.464-.91.642-.625.963-1.464.963-2.517 0-1.089-.294-1.936-.883-2.543-.589-.607-1.348-.91-2.276-.91zm18.106-2.597h3.508l-4.739 12.049c-.857 2.088-1.624 3.498-2.303 4.23-.66.75-1.445 1.124-2.356 1.124-.857 0-1.722-.312-2.597-.937l.991-2.33c.464.286.883.43 1.258.43.732 0 1.348-.626 1.848-1.875l.267-.642-5.569-12.049h3.695l2.811 6.587c.036.089.232.669.589 1.74.107-.66.25-1.25.429-1.767l2.168-6.56zm-37.698 1.636h5.206v5.206h-5.206z" fill="#fff"/></svg>