<svg width="79" height="78" viewBox="0 0 79 78" fill="none" xmlns="http://www.w3.org/2000/svg"><path d="M39.774 73.404C20.971 73.404 5.51 57.804 5.51 39c0-3.9.696-7.66 1.95-11.282l20.057 39c.279.557.557.975 1.254.975.696 0 .975-.418 1.253-.975l9.332-20.754c.14-.278.279-.418.418-.418.279 0 .279.279.418.418l9.471 20.754c.28.557.558.975 1.254.975.697 0 .975-.418 1.254-.975l20.057-39A33.083 33.083 0 0 1 74.178 39c-.14 18.804-15.6 34.404-34.404 34.404zm0-43.318c-.278 0-.278-.279-.418-.418L28.631 6.546a32.88 32.88 0 0 1 11.143-1.95c3.9 0 7.66.697 11.143 1.95L40.192 29.668c-.14.14-.14.418-.418.418zM28.492 55.157c-.279 0-.279-.278-.418-.418l-17.55-33.707C13.59 16.018 18.046 11.84 23.2 8.914l12.397 26.743c.278.557.557.697.975.697h6.407c.418 0 .696-.14.975-.697L56.21 8.914c5.154 2.925 9.61 7.104 12.675 12.118L51.475 54.74c-.14.279-.28.418-.419.418-.278 0-.278-.278-.417-.418l-6.686-14.764c-.279-.557-.557-.696-.975-.696H36.57c-.418 0-.697.139-.975.696L28.91 54.739c-.14.14-.14.418-.418.418zM39.774 78c21.59 0 39-17.41 39-39s-17.41-39-39-39-39 17.41-39 39 17.41 39 39 39z" fill="#141414"/></svg>